<?xml version="1.0" encoding="UTF-8" standalone="no"?>
<!DOCTYPE svg PUBLIC "-//W3C//DTD SVG 1.1//EN"
 "http://www.w3.org/Graphics/SVG/1.1/DTD/svg11.dtd">
<!-- Generated by graphviz version 2.36.0 (20140111.2315)
 -->
<!-- Title: /home/travis/build/ComPWA/ComPWA/Estimator/SliceFitUB/SliceFitUB.cpp Pages: 1 -->
<svg width="1390pt" height="466pt"
 viewBox="0.00 0.00 1390.00 466.00" xmlns="http://www.w3.org/2000/svg" xmlns:xlink="http://www.w3.org/1999/xlink">
<g id="graph0" class="graph" transform="scale(1 1) rotate(0) translate(4 462)">
<title>/home/travis/build/ComPWA/ComPWA/Estimator/SliceFitUB/SliceFitUB.cpp</title>
<polygon fill="white" stroke="none" points="-4,4 -4,-462 1386,-462 1386,4 -4,4"/>
<!-- Node1 -->
<g id="node1" class="node"><title>Node1</title>
<polygon fill="#bfbfbf" stroke="black" points="776,-416.5 776,-457.5 932,-457.5 932,-416.5 776,-416.5"/>
<text text-anchor="start" x="784" y="-445.5" font-family="Helvetica,sans-Serif" font-size="10.00">/home/travis/build</text>
<text text-anchor="start" x="784" y="-434.5" font-family="Helvetica,sans-Serif" font-size="10.00">/ComPWA/ComPWA/Estimator</text>
<text text-anchor="middle" x="854" y="-423.5" font-family="Helvetica,sans-Serif" font-size="10.00">/SliceFitUB/SliceFitUB.cpp</text>
</g>
<!-- Node2 -->
<g id="node2" class="node"><title>Node2</title>
<polygon fill="white" stroke="#bfbfbf" points="1147,-112.5 1147,-131.5 1199,-131.5 1199,-112.5 1147,-112.5"/>
<text text-anchor="middle" x="1173" y="-119.5" font-family="Helvetica,sans-Serif" font-size="10.00">sstream</text>
</g>
<!-- Node1&#45;&gt;Node2 -->
<g id="edge1" class="edge"><title>Node1&#45;&gt;Node2</title>
<path fill="none" stroke="midnightblue" d="M932.059,-420.745C1033.55,-398.631 1198,-354.006 1198,-297 1198,-297 1198,-297 1198,-233 1198,-199.995 1187.17,-162.774 1179.76,-141.192"/>
<polygon fill="midnightblue" stroke="midnightblue" points="1183.03,-139.93 1176.37,-131.687 1176.43,-142.282 1183.03,-139.93"/>
</g>
<!-- Node3 -->
<g id="node3" class="node"><title>Node3</title>
<polygon fill="white" stroke="#bfbfbf" points="705,-0.5 705,-19.5 759,-19.5 759,-0.5 705,-0.5"/>
<text text-anchor="middle" x="732" y="-7.5" font-family="Helvetica,sans-Serif" font-size="10.00">iostream</text>
</g>
<!-- Node1&#45;&gt;Node3 -->
<g id="edge2" class="edge"><title>Node1&#45;&gt;Node3</title>
<path fill="none" stroke="midnightblue" d="M932.286,-430.181C989.753,-423.584 1068.52,-409.588 1132,-380 1185.6,-355.016 1236,-356.138 1236,-297 1236,-297 1236,-297 1236,-121 1236,-25.4667 885.979,-12.7669 769.323,-11.1871"/>
<polygon fill="midnightblue" stroke="midnightblue" points="769.137,-7.68486 759.097,-11.0695 769.056,-14.6844 769.137,-7.68486"/>
</g>
<!-- Node4 -->
<g id="node4" class="node"><title>Node4</title>
<polygon fill="white" stroke="#bfbfbf" points="924,-112.5 924,-131.5 976,-131.5 976,-112.5 924,-112.5"/>
<text text-anchor="middle" x="950" y="-119.5" font-family="Helvetica,sans-Serif" font-size="10.00">memory</text>
</g>
<!-- Node1&#45;&gt;Node4 -->
<g id="edge3" class="edge"><title>Node1&#45;&gt;Node4</title>
<path fill="none" stroke="midnightblue" d="M909.942,-416.38C958.813,-395.248 1022,-356.433 1022,-297 1022,-297 1022,-297 1022,-233 1022,-193.939 989.823,-157.944 968.491,-138.372"/>
<polygon fill="midnightblue" stroke="midnightblue" points="970.749,-135.697 960.935,-131.703 966.116,-140.945 970.749,-135.697"/>
</g>
<!-- Node5 -->
<g id="node5" class="node"><title>Node5</title>
<polygon fill="white" stroke="#bfbfbf" points="372,-0.5 372,-19.5 416,-19.5 416,-0.5 372,-0.5"/>
<text text-anchor="middle" x="394" y="-7.5" font-family="Helvetica,sans-Serif" font-size="10.00">vector</text>
</g>
<!-- Node1&#45;&gt;Node5 -->
<g id="edge4" class="edge"><title>Node1&#45;&gt;Node5</title>
<path fill="none" stroke="midnightblue" d="M775.727,-436.143C613.515,-435.437 246.261,-428.359 132,-380 80.6745,-358.278 38,-352.733 38,-297 38,-297 38,-297 38,-121 38,-87.5366 48.2157,-74.6503 76,-56 122.237,-24.9634 289.92,-14.9638 361.381,-12.0678"/>
<polygon fill="midnightblue" stroke="midnightblue" points="361.738,-15.5568 371.596,-11.6761 361.469,-8.56192 361.738,-15.5568"/>
</g>
<!-- Node6 -->
<g id="node6" class="node"><title>Node6</title>
<polygon fill="white" stroke="#bfbfbf" points="53,-0.5 53,-19.5 97,-19.5 97,-0.5 53,-0.5"/>
<text text-anchor="middle" x="75" y="-7.5" font-family="Helvetica,sans-Serif" font-size="10.00">cmath</text>
</g>
<!-- Node1&#45;&gt;Node6 -->
<g id="edge5" class="edge"><title>Node1&#45;&gt;Node6</title>
<path fill="none" stroke="midnightblue" d="M775.73,-434.302C587.291,-429.675 119.394,-414.791 58,-380 18.8465,-357.813 0,-342.003 0,-297 0,-297 0,-297 0,-121 0,-81.4439 33.5172,-45.6159 55.7389,-26.2091"/>
<polygon fill="midnightblue" stroke="midnightblue" points="58.2008,-28.7122 63.6091,-19.6017 53.6999,-23.351 58.2008,-28.7122"/>
</g>
<!-- Node7 -->
<g id="node7" class="node"><title>Node7</title>
<g id="a_node7"><a xlink:href="../../d8/d56/SliceFitUB_8hpp.html" target="_top" xlink:title="Estimator/SliceFitUB\l/SliceFitUB.hpp">
<polygon fill="white" stroke="black" points="632.5,-349 632.5,-379 741.5,-379 741.5,-349 632.5,-349"/>
<text text-anchor="start" x="640.5" y="-367" font-family="Helvetica,sans-Serif" font-size="10.00">Estimator/SliceFitUB</text>
<text text-anchor="middle" x="687" y="-356" font-family="Helvetica,sans-Serif" font-size="10.00">/SliceFitUB.hpp</text>
</a>
</g>
</g>
<!-- Node1&#45;&gt;Node7 -->
<g id="edge6" class="edge"><title>Node1&#45;&gt;Node7</title>
<path fill="none" stroke="midnightblue" d="M807.924,-416.411C783.293,-405.939 753.183,-393.138 729.17,-382.929"/>
<polygon fill="midnightblue" stroke="midnightblue" points="730.529,-379.703 719.957,-379.012 727.791,-386.145 730.529,-379.703"/>
</g>
<!-- Node13 -->
<g id="node13" class="node"><title>Node13</title>
<g id="a_node13"><a xlink:href="../../df/d9f/ParameterList_8hpp.html" target="_top" xlink:title="This class provides a list of fit parameters which can have different types. ">
<polygon fill="white" stroke="red" points="1050,-168.5 1050,-187.5 1170,-187.5 1170,-168.5 1050,-168.5"/>
<text text-anchor="middle" x="1110" y="-175.5" font-family="Helvetica,sans-Serif" font-size="10.00">Core/ParameterList.hpp</text>
</a>
</g>
</g>
<!-- Node1&#45;&gt;Node13 -->
<g id="edge57" class="edge"><title>Node1&#45;&gt;Node13</title>
<path fill="none" stroke="midnightblue" d="M932.409,-427.338C967.728,-419.857 1007.75,-405.929 1036,-380 1090.11,-330.343 1104.77,-237.669 1108.65,-197.91"/>
<polygon fill="midnightblue" stroke="midnightblue" points="1112.15,-198.035 1109.51,-187.775 1105.18,-197.443 1112.15,-198.035"/>
</g>
<!-- Node16 -->
<g id="node16" class="node"><title>Node16</title>
<g id="a_node16"><a xlink:href="../../df/d7d/Event_8hpp.html" target="_top" xlink:title="This class provides a internal container for event&#45;based information. ">
<polygon fill="white" stroke="black" points="185.5,-112.5 185.5,-131.5 270.5,-131.5 270.5,-112.5 185.5,-112.5"/>
<text text-anchor="middle" x="228" y="-119.5" font-family="Helvetica,sans-Serif" font-size="10.00">Core/Event.hpp</text>
</a>
</g>
</g>
<!-- Node1&#45;&gt;Node16 -->
<g id="edge55" class="edge"><title>Node1&#45;&gt;Node16</title>
<path fill="none" stroke="midnightblue" d="M775.925,-431.089C625.684,-420.005 304.423,-387.853 228,-312 182.216,-266.558 206.751,-179.449 220.604,-141.468"/>
<polygon fill="midnightblue" stroke="midnightblue" points="224.019,-142.335 224.316,-131.744 217.479,-139.838 224.019,-142.335"/>
</g>
<!-- Node17 -->
<g id="node17" class="node"><title>Node17</title>
<g id="a_node17"><a xlink:href="../../d3/d65/Particle_8hpp.html" target="_top" xlink:title="This class provides a internal container for information of a particle. ">
<polygon fill="white" stroke="red" points="104,-56.5 104,-75.5 196,-75.5 196,-56.5 104,-56.5"/>
<text text-anchor="middle" x="150" y="-63.5" font-family="Helvetica,sans-Serif" font-size="10.00">Core/Particle.hpp</text>
</a>
</g>
</g>
<!-- Node1&#45;&gt;Node17 -->
<g id="edge56" class="edge"><title>Node1&#45;&gt;Node17</title>
<path fill="none" stroke="midnightblue" d="M775.853,-436.791C665.029,-436.015 456.794,-427.52 287,-380 204.876,-357.016 114,-382.28 114,-297 114,-297 114,-297 114,-177 114,-142.982 129.744,-105.85 140.409,-84.6"/>
<polygon fill="midnightblue" stroke="midnightblue" points="143.62,-86.0118 145.145,-75.5273 137.415,-82.7725 143.62,-86.0118"/>
</g>
<!-- Node22 -->
<g id="node22" class="node"><title>Node22</title>
<polygon fill="white" stroke="#bfbfbf" points="1264,-349 1264,-379 1382,-379 1382,-349 1264,-349"/>
<text text-anchor="start" x="1272" y="-367" font-family="Helvetica,sans-Serif" font-size="10.00">Physics/DPKinematics</text>
<text text-anchor="middle" x="1323" y="-356" font-family="Helvetica,sans-Serif" font-size="10.00">/DalitzKinematics.hpp</text>
</g>
<!-- Node1&#45;&gt;Node22 -->
<g id="edge54" class="edge"><title>Node1&#45;&gt;Node22</title>
<path fill="none" stroke="midnightblue" d="M932.367,-426.378C1012.42,-416.207 1140.19,-399.026 1250,-380 1251.25,-379.783 1252.52,-379.56 1253.8,-379.332"/>
<polygon fill="midnightblue" stroke="midnightblue" points="1254.5,-382.762 1263.7,-377.507 1253.23,-375.878 1254.5,-382.762"/>
</g>
<!-- Node7&#45;&gt;Node4 -->
<g id="edge8" class="edge"><title>Node7&#45;&gt;Node4</title>
<path fill="none" stroke="midnightblue" d="M741.525,-360.992C814.256,-357.037 937.123,-345.457 965,-312 1006.23,-262.516 975.665,-178.251 958.972,-141.291"/>
<polygon fill="midnightblue" stroke="midnightblue" points="961.937,-139.37 954.517,-131.807 955.601,-142.346 961.937,-139.37"/>
</g>
<!-- Node7&#45;&gt;Node5 -->
<g id="edge7" class="edge"><title>Node7&#45;&gt;Node5</title>
<path fill="none" stroke="midnightblue" d="M632.206,-361.007C526.657,-356.502 299.271,-343.379 228,-312 145.845,-275.828 76,-268.766 76,-179 76,-179 76,-179 76,-121 76,-90.9022 72.3306,-75.7984 95,-56 134.219,-21.7477 292.216,-13.5584 361.344,-11.6072"/>
<polygon fill="midnightblue" stroke="midnightblue" points="361.736,-15.0984 371.644,-11.3446 361.558,-8.1007 361.736,-15.0984"/>
</g>
<!-- Node8 -->
<g id="node8" class="node"><title>Node8</title>
<polygon fill="white" stroke="#bfbfbf" points="430.5,-56.5 430.5,-75.5 471.5,-75.5 471.5,-56.5 430.5,-56.5"/>
<text text-anchor="middle" x="451" y="-63.5" font-family="Helvetica,sans-Serif" font-size="10.00">string</text>
</g>
<!-- Node7&#45;&gt;Node8 -->
<g id="edge9" class="edge"><title>Node7&#45;&gt;Node8</title>
<path fill="none" stroke="midnightblue" d="M632.482,-359.288C539.397,-349.554 353.259,-314.422 285,-188 252.142,-127.143 364.327,-89.0514 420.661,-74.1576"/>
<polygon fill="midnightblue" stroke="midnightblue" points="421.661,-77.5146 430.482,-71.6463 419.927,-70.7328 421.661,-77.5146"/>
</g>
<!-- Node9 -->
<g id="node9" class="node"><title>Node9</title>
<polygon fill="white" stroke="#bfbfbf" points="764.5,-286.5 764.5,-305.5 815.5,-305.5 815.5,-286.5 764.5,-286.5"/>
<text text-anchor="middle" x="790" y="-293.5" font-family="Helvetica,sans-Serif" font-size="10.00">TH1D.h</text>
</g>
<!-- Node7&#45;&gt;Node9 -->
<g id="edge10" class="edge"><title>Node7&#45;&gt;Node9</title>
<path fill="none" stroke="midnightblue" d="M709.096,-348.841C726.353,-337.784 750.234,-322.481 767.574,-311.37"/>
<polygon fill="midnightblue" stroke="midnightblue" points="769.92,-314.024 776.451,-305.682 766.143,-308.13 769.92,-314.024"/>
</g>
<!-- Node10 -->
<g id="node10" class="node"><title>Node10</title>
<polygon fill="white" stroke="#bfbfbf" points="834,-286.5 834,-305.5 956,-305.5 956,-286.5 834,-286.5"/>
<text text-anchor="middle" x="895" y="-293.5" font-family="Helvetica,sans-Serif" font-size="10.00">Estimator/Estimator.hpp</text>
</g>
<!-- Node7&#45;&gt;Node10 -->
<g id="edge11" class="edge"><title>Node7&#45;&gt;Node10</title>
<path fill="none" stroke="midnightblue" d="M731.366,-348.922C769.156,-336.931 822.812,-319.906 858.242,-308.664"/>
<polygon fill="midnightblue" stroke="midnightblue" points="859.696,-311.874 868.169,-305.514 857.578,-305.202 859.696,-311.874"/>
</g>
<!-- Node11 -->
<g id="node11" class="node"><title>Node11</title>
<g id="a_node11"><a xlink:href="../../dc/dfd/AmpIntensity_8hpp.html" target="_top" xlink:title="Core/AmpIntensity.hpp">
<polygon fill="white" stroke="black" points="492.5,-286.5 492.5,-305.5 609.5,-305.5 609.5,-286.5 492.5,-286.5"/>
<text text-anchor="middle" x="551" y="-293.5" font-family="Helvetica,sans-Serif" font-size="10.00">Core/AmpIntensity.hpp</text>
</a>
</g>
</g>
<!-- Node7&#45;&gt;Node11 -->
<g id="edge12" class="edge"><title>Node7&#45;&gt;Node11</title>
<path fill="none" stroke="midnightblue" d="M657.825,-348.841C634.195,-337.374 601.16,-321.342 578.104,-310.153"/>
<polygon fill="midnightblue" stroke="midnightblue" points="579.415,-306.899 568.89,-305.682 576.358,-313.197 579.415,-306.899"/>
</g>
<!-- Node7&#45;&gt;Node13 -->
<g id="edge53" class="edge"><title>Node7&#45;&gt;Node13</title>
<path fill="none" stroke="midnightblue" d="M741.635,-358.617C818.826,-351.658 955.186,-336.328 998,-312 1047.07,-284.119 1084.2,-226.027 1100.66,-196.72"/>
<polygon fill="midnightblue" stroke="midnightblue" points="1103.89,-198.106 1105.61,-187.651 1097.75,-194.755 1103.89,-198.106"/>
</g>
<!-- Node15 -->
<g id="node15" class="node"><title>Node15</title>
<g id="a_node15"><a xlink:href="../../d2/d4b/Data_8hpp.html" target="_top" xlink:title="Contains Data interface class. ">
<polygon fill="white" stroke="red" points="452,-224.5 452,-243.5 564,-243.5 564,-224.5 452,-224.5"/>
<text text-anchor="middle" x="508" y="-231.5" font-family="Helvetica,sans-Serif" font-size="10.00">DataReader/Data.hpp</text>
</a>
</g>
</g>
<!-- Node7&#45;&gt;Node15 -->
<g id="edge51" class="edge"><title>Node7&#45;&gt;Node15</title>
<path fill="none" stroke="midnightblue" d="M632.046,-356.849C578.056,-349.54 501.198,-335.308 483,-312 469.134,-294.24 482.438,-268.528 494.321,-251.787"/>
<polygon fill="midnightblue" stroke="midnightblue" points="497.339,-253.6 500.595,-243.518 491.762,-249.369 497.339,-253.6"/>
</g>
<!-- Node7&#45;&gt;Node16 -->
<g id="edge52" class="edge"><title>Node7&#45;&gt;Node16</title>
<path fill="none" stroke="midnightblue" d="M632.152,-360.298C521.245,-354.308 278.573,-338.319 252,-312 205.998,-266.438 216.314,-180.048 223.718,-141.908"/>
<polygon fill="midnightblue" stroke="midnightblue" points="227.228,-142.224 225.857,-131.719 220.377,-140.786 227.228,-142.224"/>
</g>
<!-- Node21 -->
<g id="node21" class="node"><title>Node21</title>
<polygon fill="white" stroke="#bfbfbf" points="627.5,-281 627.5,-311 746.5,-311 746.5,-281 627.5,-281"/>
<text text-anchor="start" x="635.5" y="-299" font-family="Helvetica,sans-Serif" font-size="10.00">Physics/AmplitudeSum</text>
<text text-anchor="middle" x="687" y="-288" font-family="Helvetica,sans-Serif" font-size="10.00">/AmpSumIntensity.hpp</text>
</g>
<!-- Node7&#45;&gt;Node21 -->
<g id="edge50" class="edge"><title>Node7&#45;&gt;Node21</title>
<path fill="none" stroke="midnightblue" d="M687,-348.679C687,-340.722 687,-330.605 687,-321.436"/>
<polygon fill="midnightblue" stroke="midnightblue" points="690.5,-321.293 687,-311.293 683.5,-321.293 690.5,-321.293"/>
</g>
<!-- Node11&#45;&gt;Node4 -->
<g id="edge14" class="edge"><title>Node11&#45;&gt;Node4</title>
<path fill="none" stroke="midnightblue" d="M586.352,-286.49C596.532,-284.202 607.675,-281.851 618,-280 735.428,-258.949 785.739,-311.655 884,-244 919.857,-219.311 938.083,-168.601 945.627,-141.325"/>
<polygon fill="midnightblue" stroke="midnightblue" points="949.049,-142.072 948.156,-131.515 942.271,-140.325 949.049,-142.072"/>
</g>
<!-- Node11&#45;&gt;Node5 -->
<g id="edge13" class="edge"><title>Node11&#45;&gt;Node5</title>
<path fill="none" stroke="midnightblue" d="M492.349,-289.704C404.9,-278.236 243.414,-242.425 176,-132 171.368,-124.413 171.262,-119.521 176,-112 216.997,-46.9272 312.028,-23.1969 361.989,-15.0125"/>
<polygon fill="midnightblue" stroke="midnightblue" points="362.574,-18.4638 371.931,-13.4927 361.516,-11.5442 362.574,-18.4638"/>
</g>
<!-- Node12 -->
<g id="node12" class="node"><title>Node12</title>
<polygon fill="white" stroke="#bfbfbf" points="737.5,-112.5 737.5,-131.5 784.5,-131.5 784.5,-112.5 737.5,-112.5"/>
<text text-anchor="middle" x="761" y="-119.5" font-family="Helvetica,sans-Serif" font-size="10.00">math.h</text>
</g>
<!-- Node11&#45;&gt;Node12 -->
<g id="edge15" class="edge"><title>Node11&#45;&gt;Node12</title>
<path fill="none" stroke="midnightblue" d="M583.864,-286.424C647.887,-268.98 785.4,-227.653 812,-188 824.279,-169.696 803.441,-149.946 784.82,-137.082"/>
<polygon fill="midnightblue" stroke="midnightblue" points="786.57,-134.044 776.28,-131.52 782.75,-139.91 786.57,-134.044"/>
</g>
<!-- Node11&#45;&gt;Node13 -->
<g id="edge16" class="edge"><title>Node11&#45;&gt;Node13</title>
<path fill="none" stroke="midnightblue" d="M585.986,-286.457C596.258,-284.142 607.543,-281.785 618,-280 752.115,-257.108 789.386,-274.405 922,-244 979.383,-230.844 1043.71,-206.386 1080.28,-191.512"/>
<polygon fill="midnightblue" stroke="midnightblue" points="1081.92,-194.626 1089.84,-187.589 1079.26,-188.151 1081.92,-194.626"/>
</g>
<!-- Node14 -->
<g id="node14" class="node"><title>Node14</title>
<g id="a_node14"><a xlink:href="../../da/db2/FunctionTree_8hpp.html" target="_top" xlink:title="This class can be used to store a function in a tree&#45;like structure. ">
<polygon fill="white" stroke="red" points="688,-168.5 688,-187.5 804,-187.5 804,-168.5 688,-168.5"/>
<text text-anchor="middle" x="746" y="-175.5" font-family="Helvetica,sans-Serif" font-size="10.00">Core/FunctionTree.hpp</text>
</a>
</g>
</g>
<!-- Node11&#45;&gt;Node14 -->
<g id="edge22" class="edge"><title>Node11&#45;&gt;Node14</title>
<path fill="none" stroke="midnightblue" d="M565.339,-286.47C598.794,-266.569 682.251,-216.922 722.951,-192.711"/>
<polygon fill="midnightblue" stroke="midnightblue" points="724.835,-195.663 731.64,-187.542 721.256,-189.647 724.835,-195.663"/>
</g>
<!-- Node11&#45;&gt;Node15 -->
<g id="edge26" class="edge"><title>Node11&#45;&gt;Node15</title>
<path fill="none" stroke="midnightblue" d="M544.839,-286.403C538.389,-277.403 528.096,-263.041 520.027,-251.782"/>
<polygon fill="midnightblue" stroke="midnightblue" points="522.82,-249.67 514.149,-243.581 517.13,-253.748 522.82,-249.67"/>
</g>
<!-- Node18 -->
<g id="node18" class="node"><title>Node18</title>
<g id="a_node18"><a xlink:href="../../d8/d6f/Efficiency_8hpp.html" target="_top" xlink:title="Core/Efficiency.hpp">
<polygon fill="white" stroke="red" points="680.5,-56.5 680.5,-75.5 783.5,-75.5 783.5,-56.5 680.5,-56.5"/>
<text text-anchor="middle" x="732" y="-63.5" font-family="Helvetica,sans-Serif" font-size="10.00">Core/Efficiency.hpp</text>
</a>
</g>
</g>
<!-- Node11&#45;&gt;Node18 -->
<g id="edge48" class="edge"><title>Node11&#45;&gt;Node18</title>
<path fill="none" stroke="midnightblue" d="M588.343,-286.471C642.778,-273.909 739.09,-251.147 754,-244 791.193,-226.172 809.634,-224.93 828,-188 849.648,-144.47 792.486,-101.909 757.282,-80.7764"/>
<polygon fill="midnightblue" stroke="midnightblue" points="758.847,-77.6378 748.442,-75.6391 755.33,-83.69 758.847,-77.6378"/>
</g>
<!-- Node19 -->
<g id="node19" class="node"><title>Node19</title>
<g id="a_node19"><a xlink:href="../../df/d33/Generator_8hpp.html" target="_top" xlink:title="Core/Generator.hpp">
<polygon fill="white" stroke="black" points="294,-168.5 294,-187.5 396,-187.5 396,-168.5 294,-168.5"/>
<text text-anchor="middle" x="345" y="-175.5" font-family="Helvetica,sans-Serif" font-size="10.00">Core/Generator.hpp</text>
</a>
</g>
</g>
<!-- Node11&#45;&gt;Node19 -->
<g id="edge49" class="edge"><title>Node11&#45;&gt;Node19</title>
<path fill="none" stroke="midnightblue" d="M530.658,-286.445C508.614,-276.935 472.622,-260.702 443,-244 415.058,-228.245 384.5,-207.345 365.062,-193.55"/>
<polygon fill="midnightblue" stroke="midnightblue" points="366.887,-190.552 356.718,-187.579 362.814,-196.245 366.887,-190.552"/>
</g>
<!-- Node20 -->
<g id="node20" class="node"><title>Node20</title>
<g id="a_node20"><a xlink:href="../../d8/dd4/DataPoint_8hpp.html" target="_top" xlink:title="dataPoint stores kinematic information of a dalitz plot ">
<polygon fill="white" stroke="red" points="566.5,-168.5 566.5,-187.5 669.5,-187.5 669.5,-168.5 566.5,-168.5"/>
<text text-anchor="middle" x="618" y="-175.5" font-family="Helvetica,sans-Serif" font-size="10.00">Core/DataPoint.hpp</text>
</a>
</g>
</g>
<!-- Node11&#45;&gt;Node20 -->
<g id="edge47" class="edge"><title>Node11&#45;&gt;Node20</title>
<path fill="none" stroke="midnightblue" d="M556.036,-286.281C567.051,-267.21 593.46,-221.488 607.992,-196.327"/>
<polygon fill="midnightblue" stroke="midnightblue" points="611.117,-197.915 613.088,-187.505 605.055,-194.414 611.117,-197.915"/>
</g>
<!-- Node13&#45;&gt;Node2 -->
<g id="edge20" class="edge"><title>Node13&#45;&gt;Node2</title>
<path fill="none" stroke="midnightblue" d="M1120.12,-168.324C1129.53,-160.263 1143.74,-148.077 1155.07,-138.369"/>
<polygon fill="midnightblue" stroke="midnightblue" points="1157.38,-140.999 1162.69,-131.834 1152.82,-135.684 1157.38,-140.999"/>
</g>
<!-- Node13&#45;&gt;Node3 -->
<g id="edge17" class="edge"><title>Node13&#45;&gt;Node3</title>
<path fill="none" stroke="midnightblue" d="M1110.9,-168.359C1112.71,-145.967 1114.1,-85.7385 1081,-56 1035.77,-15.3647 849.859,-10.7155 769.4,-10.6575"/>
<polygon fill="midnightblue" stroke="midnightblue" points="769.217,-7.15775 759.223,-10.6747 769.228,-14.1577 769.217,-7.15775"/>
</g>
<!-- Node13&#45;&gt;Node4 -->
<g id="edge19" class="edge"><title>Node13&#45;&gt;Node4</title>
<path fill="none" stroke="midnightblue" d="M1084.65,-168.444C1057.73,-159.359 1015,-144.939 984.913,-134.783"/>
<polygon fill="midnightblue" stroke="midnightblue" points="985.828,-131.398 975.234,-131.516 983.59,-138.031 985.828,-131.398"/>
</g>
<!-- Node13&#45;&gt;Node5 -->
<g id="edge21" class="edge"><title>Node13&#45;&gt;Node5</title>
<path fill="none" stroke="midnightblue" d="M1101.16,-168.427C1086.28,-154.477 1054.73,-126.929 1023,-112 927.41,-67.0277 896.023,-74.4149 792,-56 657.134,-32.1251 494.198,-18.3502 426.22,-13.2666"/>
<polygon fill="midnightblue" stroke="midnightblue" points="426.374,-9.76861 416.144,-12.5252 425.86,-16.7497 426.374,-9.76861"/>
</g>
<!-- Node13&#45;&gt;Node8 -->
<g id="edge18" class="edge"><title>Node13&#45;&gt;Node8</title>
<path fill="none" stroke="midnightblue" d="M1097.58,-168.385C1075.88,-153.848 1029.17,-124.788 985,-112 889.387,-84.32 580.531,-71.4736 481.712,-68.002"/>
<polygon fill="midnightblue" stroke="midnightblue" points="481.621,-64.4969 471.507,-67.6508 481.38,-71.4927 481.621,-64.4969"/>
</g>
<!-- Node14&#45;&gt;Node4 -->
<g id="edge24" class="edge"><title>Node14&#45;&gt;Node4</title>
<path fill="none" stroke="midnightblue" d="M778.324,-168.444C815.349,-158.643 875.835,-142.632 914.242,-132.465"/>
<polygon fill="midnightblue" stroke="midnightblue" points="915.205,-135.831 923.976,-129.889 913.414,-129.064 915.205,-135.831"/>
</g>
<!-- Node14&#45;&gt;Node5 -->
<g id="edge23" class="edge"><title>Node14&#45;&gt;Node5</title>
<path fill="none" stroke="midnightblue" d="M733.611,-168.26C702.518,-146.65 618.147,-90.0029 541,-56 502.768,-39.1489 456.326,-26.0799 426.011,-18.4685"/>
<polygon fill="midnightblue" stroke="midnightblue" points="426.547,-14.9961 416,-16.0066 424.875,-21.7936 426.547,-14.9961"/>
</g>
<!-- Node14&#45;&gt;Node8 -->
<g id="edge25" class="edge"><title>Node14&#45;&gt;Node8</title>
<path fill="none" stroke="midnightblue" d="M722.852,-168.368C669.951,-148.643 540.228,-100.272 481.168,-78.2491"/>
<polygon fill="midnightblue" stroke="midnightblue" points="482.249,-74.9166 471.656,-74.7022 479.803,-81.4755 482.249,-74.9166"/>
</g>
<!-- Node15&#45;&gt;Node4 -->
<g id="edge29" class="edge"><title>Node15&#45;&gt;Node4</title>
<path fill="none" stroke="midnightblue" d="M564.268,-229.619C626.113,-224.77 727.862,-213.436 812,-188 853.994,-175.305 899.425,-151.822 926.26,-136.829"/>
<polygon fill="midnightblue" stroke="midnightblue" points="928.291,-139.701 935.265,-131.725 924.839,-133.611 928.291,-139.701"/>
</g>
<!-- Node15&#45;&gt;Node5 -->
<g id="edge27" class="edge"><title>Node15&#45;&gt;Node5</title>
<path fill="none" stroke="midnightblue" d="M509.167,-224.252C512.369,-196.615 518.655,-109.825 480,-56 467.002,-37.9009 444.486,-26.493 425.753,-19.6928"/>
<polygon fill="midnightblue" stroke="midnightblue" points="426.69,-16.3157 416.096,-16.4608 424.468,-22.9538 426.69,-16.3157"/>
</g>
<!-- Node15&#45;&gt;Node8 -->
<g id="edge28" class="edge"><title>Node15&#45;&gt;Node8</title>
<path fill="none" stroke="midnightblue" d="M503.152,-224.238C498.349,-215.314 491.007,-200.982 486,-188 472.344,-152.597 461.12,-109.596 455.306,-85.5627"/>
<polygon fill="midnightblue" stroke="midnightblue" points="458.674,-84.5995 452.962,-75.6767 451.863,-86.2144 458.674,-84.5995"/>
</g>
<!-- Node15&#45;&gt;Node13 -->
<g id="edge41" class="edge"><title>Node15&#45;&gt;Node13</title>
<path fill="none" stroke="midnightblue" d="M564.094,-227.968C674.281,-218.084 918.747,-196.156 1039.59,-185.316"/>
<polygon fill="midnightblue" stroke="midnightblue" points="1040.18,-188.777 1049.83,-184.397 1039.56,-181.805 1040.18,-188.777"/>
</g>
<!-- Node15&#45;&gt;Node16 -->
<g id="edge30" class="edge"><title>Node15&#45;&gt;Node16</title>
<path fill="none" stroke="midnightblue" d="M496.795,-224.351C478.398,-210.543 440.212,-183.501 404,-168 364.285,-150.999 316.681,-139.308 281.002,-132.112"/>
<polygon fill="midnightblue" stroke="midnightblue" points="281.29,-128.602 270.803,-130.112 279.943,-135.471 281.29,-128.602"/>
</g>
<!-- Node15&#45;&gt;Node18 -->
<g id="edge38" class="edge"><title>Node15&#45;&gt;Node18</title>
<path fill="none" stroke="midnightblue" d="M513.086,-224.118C521.096,-210.704 537.734,-185.039 557,-168 602.106,-128.107 665.407,-96.3013 702.22,-79.6743"/>
<polygon fill="midnightblue" stroke="midnightblue" points="703.705,-82.8444 711.423,-75.5855 700.863,-76.4474 703.705,-82.8444"/>
</g>
<!-- Node15&#45;&gt;Node19 -->
<g id="edge42" class="edge"><title>Node15&#45;&gt;Node19</title>
<path fill="none" stroke="midnightblue" d="M482.172,-224.444C454.751,-215.359 411.223,-200.939 380.568,-190.783"/>
<polygon fill="midnightblue" stroke="midnightblue" points="381.3,-187.339 370.707,-187.516 379.099,-193.984 381.3,-187.339"/>
</g>
<!-- Node15&#45;&gt;Node20 -->
<g id="edge44" class="edge"><title>Node15&#45;&gt;Node20</title>
<path fill="none" stroke="midnightblue" d="M525.673,-224.324C543.394,-215.625 570.903,-202.12 591.288,-192.113"/>
<polygon fill="midnightblue" stroke="midnightblue" points="592.936,-195.203 600.37,-187.655 589.851,-188.919 592.936,-195.203"/>
</g>
<!-- Node16&#45;&gt;Node3 -->
<g id="edge33" class="edge"><title>Node16&#45;&gt;Node3</title>
<path fill="none" stroke="midnightblue" d="M249.335,-112.39C284.527,-98.5145 357.206,-71.225 421,-56 518.164,-32.8109 635.437,-19.7727 694.345,-14.2275"/>
<polygon fill="midnightblue" stroke="midnightblue" points="695.011,-17.6811 704.648,-13.2786 694.369,-10.7107 695.011,-17.6811"/>
</g>
<!-- Node16&#45;&gt;Node5 -->
<g id="edge31" class="edge"><title>Node16&#45;&gt;Node5</title>
<path fill="none" stroke="midnightblue" d="M241.026,-112.368C269.511,-93.4924 337.583,-48.385 372.516,-25.2367"/>
<polygon fill="midnightblue" stroke="midnightblue" points="374.632,-28.0328 381.035,-19.5914 370.765,-22.1977 374.632,-28.0328"/>
</g>
<!-- Node16&#45;&gt;Node8 -->
<g id="edge32" class="edge"><title>Node16&#45;&gt;Node8</title>
<path fill="none" stroke="midnightblue" d="M263.335,-112.444C306.606,-101.965 379.191,-84.3888 420.255,-74.445"/>
<polygon fill="midnightblue" stroke="midnightblue" points="421.326,-77.7868 430.222,-72.0315 419.679,-70.9834 421.326,-77.7868"/>
</g>
<!-- Node16&#45;&gt;Node17 -->
<g id="edge34" class="edge"><title>Node16&#45;&gt;Node17</title>
<path fill="none" stroke="midnightblue" d="M215.468,-112.324C203.414,-103.979 184.973,-91.2122 170.731,-81.3524"/>
<polygon fill="midnightblue" stroke="midnightblue" points="172.715,-78.469 162.501,-75.6545 168.731,-84.2243 172.715,-78.469"/>
</g>
<!-- Node17&#45;&gt;Node3 -->
<g id="edge37" class="edge"><title>Node17&#45;&gt;Node3</title>
<path fill="none" stroke="midnightblue" d="M196.155,-60.7176C308.072,-50.3335 592.205,-23.9707 694.544,-14.4753"/>
<polygon fill="midnightblue" stroke="midnightblue" points="695.076,-17.941 704.71,-13.532 694.43,-10.971 695.076,-17.941"/>
</g>
<!-- Node17&#45;&gt;Node5 -->
<g id="edge35" class="edge"><title>Node17&#45;&gt;Node5</title>
<path fill="none" stroke="midnightblue" d="M188.663,-56.4435C236.558,-45.8437 317.279,-27.9792 361.912,-18.1014"/>
<polygon fill="midnightblue" stroke="midnightblue" points="362.908,-21.4658 371.915,-15.8876 361.395,-14.6312 362.908,-21.4658"/>
</g>
<!-- Node17&#45;&gt;Node6 -->
<g id="edge36" class="edge"><title>Node17&#45;&gt;Node6</title>
<path fill="none" stroke="midnightblue" d="M137.95,-56.324C126.537,-48.1066 109.169,-35.6017 95.5651,-25.8069"/>
<polygon fill="midnightblue" stroke="midnightblue" points="97.4297,-22.8366 87.2693,-19.8339 93.3396,-28.5174 97.4297,-22.8366"/>
</g>
<!-- Node18&#45;&gt;Node3 -->
<g id="edge39" class="edge"><title>Node18&#45;&gt;Node3</title>
<path fill="none" stroke="midnightblue" d="M732,-56.083C732,-49.0059 732,-38.8611 732,-29.9865"/>
<polygon fill="midnightblue" stroke="midnightblue" points="735.5,-29.751 732,-19.7511 728.5,-29.7511 735.5,-29.751"/>
</g>
<!-- Node18&#45;&gt;Node5 -->
<g id="edge40" class="edge"><title>Node18&#45;&gt;Node5</title>
<path fill="none" stroke="midnightblue" d="M680.297,-56.7398C609.615,-45.4474 484.917,-25.5252 426.239,-16.1506"/>
<polygon fill="midnightblue" stroke="midnightblue" points="426.505,-12.6488 416.078,-14.5273 425.401,-19.5612 426.505,-12.6488"/>
</g>
<!-- Node19&#45;&gt;Node16 -->
<g id="edge43" class="edge"><title>Node19&#45;&gt;Node16</title>
<path fill="none" stroke="midnightblue" d="M326.461,-168.444C307.377,-159.636 277.425,-145.812 255.564,-135.722"/>
<polygon fill="midnightblue" stroke="midnightblue" points="256.999,-132.529 246.452,-131.516 254.065,-138.885 256.999,-132.529"/>
</g>
<!-- Node20&#45;&gt;Node5 -->
<g id="edge46" class="edge"><title>Node20&#45;&gt;Node5</title>
<path fill="none" stroke="midnightblue" d="M612.804,-168.379C599.238,-146.549 560.551,-88.5206 514,-56 487.228,-37.2969 451.708,-25.2478 426.272,-18.3708"/>
<polygon fill="midnightblue" stroke="midnightblue" points="426.939,-14.9284 416.382,-15.819 425.19,-21.7065 426.939,-14.9284"/>
</g>
<!-- Node20&#45;&gt;Node12 -->
<g id="edge45" class="edge"><title>Node20&#45;&gt;Node12</title>
<path fill="none" stroke="midnightblue" d="M640.659,-168.444C664.402,-159.478 701.909,-145.314 728.738,-135.183"/>
<polygon fill="midnightblue" stroke="midnightblue" points="730.329,-138.324 738.447,-131.516 727.856,-131.775 730.329,-138.324"/>
</g>
</g>
</svg>
