<?xml version="1.0" encoding="UTF-8" standalone="no"?>
<!DOCTYPE svg PUBLIC "-//W3C//DTD SVG 1.1//EN"
 "http://www.w3.org/Graphics/SVG/1.1/DTD/svg11.dtd">
<!-- Generated by graphviz version 2.36.0 (20140111.2315)
 -->
<!-- Title: ComPWA::Tools::UniformTwoBodyGenerator Pages: 1 -->
<svg width="168pt" height="498pt"
 viewBox="0.00 0.00 168.00 498.00" xmlns="http://www.w3.org/2000/svg" xmlns:xlink="http://www.w3.org/1999/xlink">
<g id="graph0" class="graph" transform="scale(1 1) rotate(0) translate(4 494)">
<title>ComPWA::Tools::UniformTwoBodyGenerator</title>
<polygon fill="white" stroke="none" points="-4,4 -4,-494 164,-494 164,4 -4,4"/>
<!-- Node1 -->
<g id="node1" class="node"><title>Node1</title>
<polygon fill="#bfbfbf" stroke="black" points="5,-0.5 5,-101.5 155,-101.5 155,-0.5 5,-0.5"/>
<text text-anchor="start" x="13" y="-89.5" font-family="Helvetica,sans-Serif" font-size="10.00">ComPWA::Tools::UniformTwo</text>
<text text-anchor="middle" x="80" y="-78.5" font-family="Helvetica,sans-Serif" font-size="10.00">BodyGenerator</text>
<polyline fill="none" stroke="black" points="5,-71.5 155,-71.5 "/>
<text text-anchor="start" x="13" y="-59.5" font-family="Helvetica,sans-Serif" font-size="10.00"># minSq</text>
<text text-anchor="start" x="13" y="-48.5" font-family="Helvetica,sans-Serif" font-size="10.00"># maxSq</text>
<polyline fill="none" stroke="black" points="5,-41.5 155,-41.5 "/>
<text text-anchor="start" x="13" y="-29.5" font-family="Helvetica,sans-Serif" font-size="10.00">+ UniformTwoBodyGenerator()</text>
<text text-anchor="start" x="13" y="-18.5" font-family="Helvetica,sans-Serif" font-size="10.00">+ Generate()</text>
<text text-anchor="start" x="13" y="-7.5" font-family="Helvetica,sans-Serif" font-size="10.00">+ Clone()</text>
</g>
<!-- Node2 -->
<g id="node2" class="node"><title>Node2</title>
<g id="a_node2"><a xlink:href="../../d9/d48/classComPWA_1_1Tools_1_1RootGenerator.html" target="_top" xlink:title="{ComPWA::Tools::RootGenerator\n|# sqrtS\l# event\l# nPart\l# masses\l|+ RootGenerator()\l+ ~RootGenerator()\l+ Clone()\l+ Generate()\l+ SetSeed()\l+ GetSeed()\l+ GetUniform()\l+ GetGaussDist()\l+ GetGenerator()\l}">
<polygon fill="white" stroke="black" points="-0.5,-139 -0.5,-317 160.5,-317 160.5,-139 -0.5,-139"/>
<text text-anchor="middle" x="80" y="-305" font-family="Helvetica,sans-Serif" font-size="10.00">ComPWA::Tools::RootGenerator</text>
<polyline fill="none" stroke="black" points="-0.5,-298 160.5,-298 "/>
<text text-anchor="start" x="7.5" y="-286" font-family="Helvetica,sans-Serif" font-size="10.00"># sqrtS</text>
<text text-anchor="start" x="7.5" y="-275" font-family="Helvetica,sans-Serif" font-size="10.00"># event</text>
<text text-anchor="start" x="7.5" y="-264" font-family="Helvetica,sans-Serif" font-size="10.00"># nPart</text>
<text text-anchor="start" x="7.5" y="-253" font-family="Helvetica,sans-Serif" font-size="10.00"># masses</text>
<polyline fill="none" stroke="black" points="-0.5,-246 160.5,-246 "/>
<text text-anchor="start" x="7.5" y="-234" font-family="Helvetica,sans-Serif" font-size="10.00">+ RootGenerator()</text>
<text text-anchor="start" x="7.5" y="-223" font-family="Helvetica,sans-Serif" font-size="10.00">+ ~RootGenerator()</text>
<text text-anchor="start" x="7.5" y="-212" font-family="Helvetica,sans-Serif" font-size="10.00">+ Clone()</text>
<text text-anchor="start" x="7.5" y="-201" font-family="Helvetica,sans-Serif" font-size="10.00">+ Generate()</text>
<text text-anchor="start" x="7.5" y="-190" font-family="Helvetica,sans-Serif" font-size="10.00">+ SetSeed()</text>
<text text-anchor="start" x="7.5" y="-179" font-family="Helvetica,sans-Serif" font-size="10.00">+ GetSeed()</text>
<text text-anchor="start" x="7.5" y="-168" font-family="Helvetica,sans-Serif" font-size="10.00">+ GetUniform()</text>
<text text-anchor="start" x="7.5" y="-157" font-family="Helvetica,sans-Serif" font-size="10.00">+ GetGaussDist()</text>
<text text-anchor="start" x="7.5" y="-146" font-family="Helvetica,sans-Serif" font-size="10.00">+ GetGenerator()</text>
</a>
</g>
</g>
<!-- Node2&#45;&gt;Node1 -->
<g id="edge1" class="edge"><title>Node2&#45;&gt;Node1</title>
<path fill="none" stroke="midnightblue" d="M80,-128.837C80,-119.523 80,-110.373 80,-101.817"/>
<polygon fill="none" stroke="midnightblue" points="76.5001,-128.987 80,-138.987 83.5001,-128.987 76.5001,-128.987"/>
</g>
<!-- Node3 -->
<g id="node3" class="node"><title>Node3</title>
<g id="a_node3"><a xlink:href="../../d0/dc7/classComPWA_1_1Generator.html" target="_top" xlink:title="Virtual class for PHSP generators. ">
<polygon fill="white" stroke="black" points="25,-355 25,-489 135,-489 135,-355 25,-355"/>
<text text-anchor="middle" x="80" y="-477" font-family="Helvetica,sans-Serif" font-size="10.00">ComPWA::Generator</text>
<polyline fill="none" stroke="black" points="25,-470 135,-470 "/>
<text text-anchor="middle" x="80" y="-458" font-family="Helvetica,sans-Serif" font-size="10.00"> </text>
<polyline fill="none" stroke="black" points="25,-451 135,-451 "/>
<text text-anchor="start" x="33" y="-439" font-family="Helvetica,sans-Serif" font-size="10.00">+ Generator()</text>
<text text-anchor="start" x="33" y="-428" font-family="Helvetica,sans-Serif" font-size="10.00">+ ~Generator()</text>
<text text-anchor="start" x="33" y="-417" font-family="Helvetica,sans-Serif" font-size="10.00">+ Generate()</text>
<text text-anchor="start" x="33" y="-406" font-family="Helvetica,sans-Serif" font-size="10.00">+ Clone()</text>
<text text-anchor="start" x="33" y="-395" font-family="Helvetica,sans-Serif" font-size="10.00">+ SetSeed()</text>
<text text-anchor="start" x="33" y="-384" font-family="Helvetica,sans-Serif" font-size="10.00">+ GetSeed()</text>
<text text-anchor="start" x="33" y="-373" font-family="Helvetica,sans-Serif" font-size="10.00">+ GetUniform()</text>
<text text-anchor="start" x="33" y="-362" font-family="Helvetica,sans-Serif" font-size="10.00">+ GetGaussDist()</text>
</a>
</g>
</g>
<!-- Node3&#45;&gt;Node2 -->
<g id="edge2" class="edge"><title>Node3&#45;&gt;Node2</title>
<path fill="none" stroke="midnightblue" d="M80,-344.817C80,-335.756 80,-326.449 80,-317.238"/>
<polygon fill="none" stroke="midnightblue" points="76.5001,-344.924 80,-354.924 83.5001,-344.925 76.5001,-344.924"/>
</g>
</g>
</svg>
