<?xml version="1.0" encoding="UTF-8" standalone="no"?>
<!DOCTYPE svg PUBLIC "-//W3C//DTD SVG 1.1//EN"
 "http://www.w3.org/Graphics/SVG/1.1/DTD/svg11.dtd">
<!-- Generated by graphviz version 2.36.0 (20140111.2315)
 -->
<!-- Title: /home/travis/build/ComPWA/ComPWA/Core/AmpIntensity.hpp Pages: 1 -->
<svg width="2811pt" height="386pt"
 viewBox="0.00 0.00 2811.00 386.00" xmlns="http://www.w3.org/2000/svg" xmlns:xlink="http://www.w3.org/1999/xlink">
<g id="graph0" class="graph" transform="scale(1 1) rotate(0) translate(4 382)">
<title>/home/travis/build/ComPWA/ComPWA/Core/AmpIntensity.hpp</title>
<polygon fill="white" stroke="none" points="-4,4 -4,-382 2807,-382 2807,4 -4,4"/>
<!-- Node1 -->
<g id="node1" class="node"><title>Node1</title>
<polygon fill="#bfbfbf" stroke="black" points="1733.5,-336.5 1733.5,-377.5 1868.5,-377.5 1868.5,-336.5 1733.5,-336.5"/>
<text text-anchor="start" x="1741.5" y="-365.5" font-family="Helvetica,sans-Serif" font-size="10.00">/home/travis/build</text>
<text text-anchor="start" x="1741.5" y="-354.5" font-family="Helvetica,sans-Serif" font-size="10.00">/ComPWA/ComPWA/Core</text>
<text text-anchor="middle" x="1801" y="-343.5" font-family="Helvetica,sans-Serif" font-size="10.00">/AmpIntensity.hpp</text>
</g>
<!-- Node2 -->
<g id="node2" class="node"><title>Node2</title>
<g id="a_node2"><a xlink:href="../../d5/dc2/Dictionary_8hpp.html" target="_top" xlink:title="This class gathers information from modules, namely what they need as input and what they provide as ...">
<polygon fill="white" stroke="black" points="95.5,-252.5 95.5,-293.5 230.5,-293.5 230.5,-252.5 95.5,-252.5"/>
<text text-anchor="start" x="103.5" y="-281.5" font-family="Helvetica,sans-Serif" font-size="10.00">/home/travis/build</text>
<text text-anchor="start" x="103.5" y="-270.5" font-family="Helvetica,sans-Serif" font-size="10.00">/ComPWA/ComPWA/Core</text>
<text text-anchor="middle" x="163" y="-259.5" font-family="Helvetica,sans-Serif" font-size="10.00">/Dictionary.hpp</text>
</a>
</g>
</g>
<!-- Node1&#45;&gt;Node2 -->
<g id="edge1" class="edge"><title>Node1&#45;&gt;Node2</title>
<path fill="none" stroke="midnightblue" d="M1723.07,-355.932C1504.55,-355.113 867.509,-348.411 341,-300 304.458,-296.64 263.962,-290.887 230.839,-285.646"/>
<polygon fill="midnightblue" stroke="midnightblue" points="1723.15,-359.433 1733.16,-355.967 1723.17,-352.433 1723.15,-359.433"/>
</g>
<!-- Node4 -->
<g id="node4" class="node"><title>Node4</title>
<g id="a_node4"><a xlink:href="../../d5/d10/Estimator_8hpp.html" target="_top" xlink:title="This class provides the interface to classes which estimate the &quot;closeness&quot; of the modeled intensity ...">
<polygon fill="white" stroke="black" points="655.5,-252.5 655.5,-293.5 790.5,-293.5 790.5,-252.5 655.5,-252.5"/>
<text text-anchor="start" x="663.5" y="-281.5" font-family="Helvetica,sans-Serif" font-size="10.00">/home/travis/build</text>
<text text-anchor="start" x="663.5" y="-270.5" font-family="Helvetica,sans-Serif" font-size="10.00">/ComPWA/ComPWA/Core</text>
<text text-anchor="middle" x="723" y="-259.5" font-family="Helvetica,sans-Serif" font-size="10.00">/Estimator.hpp</text>
</a>
</g>
</g>
<!-- Node1&#45;&gt;Node4 -->
<g id="edge3" class="edge"><title>Node1&#45;&gt;Node4</title>
<path fill="none" stroke="midnightblue" d="M1722.91,-350.06C1520.42,-334.657 981.046,-293.629 790.681,-279.148"/>
<polygon fill="midnightblue" stroke="midnightblue" points="1722.92,-353.571 1733.16,-350.839 1723.45,-346.591 1722.92,-353.571"/>
</g>
<!-- Node5 -->
<g id="node5" class="node"><title>Node5</title>
<g id="a_node5"><a xlink:href="../../d5/d8d/ChiOneD_8hpp.html" target="_top" xlink:title="This class calculates a simple &#160;of a intensity and a dataset. ">
<polygon fill="white" stroke="red" points="153,-162.5 153,-203.5 309,-203.5 309,-162.5 153,-162.5"/>
<text text-anchor="start" x="161" y="-191.5" font-family="Helvetica,sans-Serif" font-size="10.00">/home/travis/build</text>
<text text-anchor="start" x="161" y="-180.5" font-family="Helvetica,sans-Serif" font-size="10.00">/ComPWA/ComPWA/Estimator</text>
<text text-anchor="middle" x="231" y="-169.5" font-family="Helvetica,sans-Serif" font-size="10.00">/ChiOneD/ChiOneD.hpp</text>
</a>
</g>
</g>
<!-- Node1&#45;&gt;Node5 -->
<g id="edge28" class="edge"><title>Node1&#45;&gt;Node5</title>
<path fill="none" stroke="midnightblue" d="M1722.96,-356.21C1480.3,-356.298 741.331,-352.161 508,-300 416.923,-279.64 317.784,-231.039 266.386,-203.644"/>
<polygon fill="midnightblue" stroke="midnightblue" points="1723.11,-359.71 1733.11,-356.204 1723.1,-352.71 1723.11,-359.71"/>
</g>
<!-- Node6 -->
<g id="node6" class="node"><title>Node6</title>
<g id="a_node6"><a xlink:href="../../d7/de4/MinLogLH_8hpp.html" target="_top" xlink:title="This class calculates a simple &#45;log(LH) of a intensity and a dataset. ">
<polygon fill="white" stroke="red" points="327,-162.5 327,-203.5 483,-203.5 483,-162.5 327,-162.5"/>
<text text-anchor="start" x="335" y="-191.5" font-family="Helvetica,sans-Serif" font-size="10.00">/home/travis/build</text>
<text text-anchor="start" x="335" y="-180.5" font-family="Helvetica,sans-Serif" font-size="10.00">/ComPWA/ComPWA/Estimator</text>
<text text-anchor="middle" x="405" y="-169.5" font-family="Helvetica,sans-Serif" font-size="10.00">/MinLogLH/MinLogLH.hpp</text>
</a>
</g>
</g>
<!-- Node1&#45;&gt;Node6 -->
<g id="edge29" class="edge"><title>Node1&#45;&gt;Node6</title>
<path fill="none" stroke="midnightblue" d="M1723.18,-356.247C1498.29,-356.328 850.579,-351.916 646,-300 565.435,-279.555 479.709,-230.988 435.428,-203.621"/>
<polygon fill="midnightblue" stroke="midnightblue" points="1723.25,-359.748 1733.25,-356.241 1723.24,-352.748 1723.25,-359.748"/>
</g>
<!-- Node14 -->
<g id="node14" class="node"><title>Node14</title>
<g id="a_node14"><a xlink:href="../../db/d41/RunManager_8hpp.html" target="_top" xlink:title="This class provides a RunManager for simple fits. ">
<polygon fill="white" stroke="red" points="1319,-78.5 1319,-119.5 1457,-119.5 1457,-78.5 1319,-78.5"/>
<text text-anchor="start" x="1327" y="-107.5" font-family="Helvetica,sans-Serif" font-size="10.00">/home/travis/build</text>
<text text-anchor="start" x="1327" y="-96.5" font-family="Helvetica,sans-Serif" font-size="10.00">/ComPWA/ComPWA/Tools</text>
<text text-anchor="middle" x="1388" y="-85.5" font-family="Helvetica,sans-Serif" font-size="10.00">/RunManager.hpp</text>
</a>
</g>
</g>
<!-- Node1&#45;&gt;Node14 -->
<g id="edge39" class="edge"><title>Node1&#45;&gt;Node14</title>
<path fill="none" stroke="midnightblue" d="M1750.56,-330.435C1739.51,-322.298 1729.25,-312.174 1723,-300 1693.77,-243.036 1768.42,-204.822 1727,-156 1693.09,-116.028 1545.96,-104.546 1457.06,-101.275"/>
<polygon fill="midnightblue" stroke="midnightblue" points="1748.89,-333.528 1759.12,-336.272 1752.83,-327.745 1748.89,-333.528"/>
</g>
<!-- Node15 -->
<g id="node15" class="node"><title>Node15</title>
<g id="a_node15"><a xlink:href="../../de/d88/FitResult_8hpp.html" target="_top" xlink:title="/home/travis/build\l/ComPWA/ComPWA/Core\l/FitResult.hpp">
<polygon fill="white" stroke="red" points="1305.5,-252.5 1305.5,-293.5 1440.5,-293.5 1440.5,-252.5 1305.5,-252.5"/>
<text text-anchor="start" x="1313.5" y="-281.5" font-family="Helvetica,sans-Serif" font-size="10.00">/home/travis/build</text>
<text text-anchor="start" x="1313.5" y="-270.5" font-family="Helvetica,sans-Serif" font-size="10.00">/ComPWA/ComPWA/Core</text>
<text text-anchor="middle" x="1373" y="-259.5" font-family="Helvetica,sans-Serif" font-size="10.00">/FitResult.hpp</text>
</a>
</g>
</g>
<!-- Node1&#45;&gt;Node15 -->
<g id="edge16" class="edge"><title>Node1&#45;&gt;Node15</title>
<path fill="none" stroke="midnightblue" d="M1723.06,-341.068C1642.26,-325.587 1517.22,-301.631 1440.5,-286.932"/>
<polygon fill="midnightblue" stroke="midnightblue" points="1722.7,-344.563 1733.18,-343.007 1724.02,-337.688 1722.7,-344.563"/>
</g>
<!-- Node19 -->
<g id="node19" class="node"><title>Node19</title>
<g id="a_node19"><a xlink:href="../../d8/dec/GaussAmp_8hpp.html" target="_top" xlink:title="/home/travis/build\l/ComPWA/ComPWA/Core\l/GaussAmp.hpp">
<polygon fill="white" stroke="black" points="2141.5,-252.5 2141.5,-293.5 2276.5,-293.5 2276.5,-252.5 2141.5,-252.5"/>
<text text-anchor="start" x="2149.5" y="-281.5" font-family="Helvetica,sans-Serif" font-size="10.00">/home/travis/build</text>
<text text-anchor="start" x="2149.5" y="-270.5" font-family="Helvetica,sans-Serif" font-size="10.00">/ComPWA/ComPWA/Core</text>
<text text-anchor="middle" x="2209" y="-259.5" font-family="Helvetica,sans-Serif" font-size="10.00">/GaussAmp.hpp</text>
</a>
</g>
</g>
<!-- Node1&#45;&gt;Node19 -->
<g id="edge27" class="edge"><title>Node1&#45;&gt;Node19</title>
<path fill="none" stroke="midnightblue" d="M1878.67,-346.395C1946.21,-337.205 2046.39,-321.552 2132,-300 2139.39,-298.14 2147.09,-295.908 2154.63,-293.543"/>
<polygon fill="midnightblue" stroke="midnightblue" points="1877.97,-342.957 1868.53,-347.759 1878.91,-349.894 1877.97,-342.957"/>
</g>
<!-- Node20 -->
<g id="node20" class="node"><title>Node20</title>
<g id="a_node20"><a xlink:href="../../d8/d56/SliceFitUB_8hpp.html" target="_top" xlink:title="/home/travis/build\l/ComPWA/ComPWA/Estimator\l/SliceFitUB/SliceFitUB.hpp">
<polygon fill="white" stroke="red" points="2295,-252.5 2295,-293.5 2451,-293.5 2451,-252.5 2295,-252.5"/>
<text text-anchor="start" x="2303" y="-281.5" font-family="Helvetica,sans-Serif" font-size="10.00">/home/travis/build</text>
<text text-anchor="start" x="2303" y="-270.5" font-family="Helvetica,sans-Serif" font-size="10.00">/ComPWA/ComPWA/Estimator</text>
<text text-anchor="middle" x="2373" y="-259.5" font-family="Helvetica,sans-Serif" font-size="10.00">/SliceFitUB/SliceFitUB.hpp</text>
</a>
</g>
</g>
<!-- Node1&#45;&gt;Node20 -->
<g id="edge30" class="edge"><title>Node1&#45;&gt;Node20</title>
<path fill="none" stroke="midnightblue" d="M1878.74,-351.143C1974.9,-344.189 2143.26,-328.915 2285,-300 2293.74,-298.217 2302.87,-295.97 2311.8,-293.547"/>
<polygon fill="midnightblue" stroke="midnightblue" points="1878.24,-347.669 1868.52,-351.87 1878.74,-354.651 1878.24,-347.669"/>
</g>
<!-- Node21 -->
<g id="node21" class="node"><title>Node21</title>
<g id="a_node21"><a xlink:href="../../d2/d09/DalitzAnalysis__D0KsKK_2PlotData_8hpp.html" target="_top" xlink:title="/home/travis/build\l/ComPWA/ComPWA/Examples\l/DalitzAnalysis_D0KsKK\l/PlotData.hpp">
<polygon fill="white" stroke="red" points="2469,-247 2469,-299 2627,-299 2627,-247 2469,-247"/>
<text text-anchor="start" x="2477" y="-287" font-family="Helvetica,sans-Serif" font-size="10.00">/home/travis/build</text>
<text text-anchor="start" x="2477" y="-276" font-family="Helvetica,sans-Serif" font-size="10.00">/ComPWA/ComPWA/Examples</text>
<text text-anchor="start" x="2477" y="-265" font-family="Helvetica,sans-Serif" font-size="10.00">/DalitzAnalysis_D0KsKK</text>
<text text-anchor="middle" x="2548" y="-254" font-family="Helvetica,sans-Serif" font-size="10.00">/PlotData.hpp</text>
</a>
</g>
</g>
<!-- Node1&#45;&gt;Node21 -->
<g id="edge31" class="edge"><title>Node1&#45;&gt;Node21</title>
<path fill="none" stroke="midnightblue" d="M1879.13,-354.466C2003.22,-350.888 2252.56,-339.041 2460,-300 2462.82,-299.47 2465.67,-298.885 2468.55,-298.257"/>
<polygon fill="midnightblue" stroke="midnightblue" points="1878.86,-350.972 1868.97,-354.748 1879.06,-357.969 1878.86,-350.972"/>
</g>
<!-- Node22 -->
<g id="node22" class="node"><title>Node22</title>
<g id="a_node22"><a xlink:href="../../d0/dc0/PythonDalitzFit_2PlotData_8hpp.html" target="_top" xlink:title="/home/travis/build\l/ComPWA/ComPWA/Examples\l/PythonDalitzFit/PlotData.hpp">
<polygon fill="white" stroke="red" points="2645,-252.5 2645,-293.5 2803,-293.5 2803,-252.5 2645,-252.5"/>
<text text-anchor="start" x="2653" y="-281.5" font-family="Helvetica,sans-Serif" font-size="10.00">/home/travis/build</text>
<text text-anchor="start" x="2653" y="-270.5" font-family="Helvetica,sans-Serif" font-size="10.00">/ComPWA/ComPWA/Examples</text>
<text text-anchor="middle" x="2724" y="-259.5" font-family="Helvetica,sans-Serif" font-size="10.00">/PythonDalitzFit/PlotData.hpp</text>
</a>
</g>
</g>
<!-- Node1&#45;&gt;Node22 -->
<g id="edge32" class="edge"><title>Node1&#45;&gt;Node22</title>
<path fill="none" stroke="midnightblue" d="M1878.99,-356.382C2027.38,-355.871 2360.11,-348.782 2635,-300 2644.35,-298.34 2654.12,-296.065 2663.62,-293.545"/>
<polygon fill="midnightblue" stroke="midnightblue" points="1878.61,-352.882 1868.62,-356.408 1878.63,-359.882 1878.61,-352.882"/>
</g>
<!-- Node23 -->
<g id="node23" class="node"><title>Node23</title>
<g id="a_node23"><a xlink:href="../../df/d1f/CoherentIntensity_8hpp.html" target="_top" xlink:title="/home/travis/build\l/ComPWA/ComPWA/Physics\l/HelicityFormalism/CoherentIntensity.hpp">
<polygon fill="white" stroke="red" points="1926.5,-252.5 1926.5,-293.5 2123.5,-293.5 2123.5,-252.5 1926.5,-252.5"/>
<text text-anchor="start" x="1934.5" y="-281.5" font-family="Helvetica,sans-Serif" font-size="10.00">/home/travis/build</text>
<text text-anchor="start" x="1934.5" y="-270.5" font-family="Helvetica,sans-Serif" font-size="10.00">/ComPWA/ComPWA/Physics</text>
<text text-anchor="middle" x="2025" y="-259.5" font-family="Helvetica,sans-Serif" font-size="10.00">/HelicityFormalism/CoherentIntensity.hpp</text>
</a>
</g>
</g>
<!-- Node1&#45;&gt;Node23 -->
<g id="edge33" class="edge"><title>Node1&#45;&gt;Node23</title>
<path fill="none" stroke="midnightblue" d="M1864.17,-332.874C1898.07,-320.465 1939.39,-305.341 1971.65,-293.529"/>
<polygon fill="midnightblue" stroke="midnightblue" points="1862.56,-329.739 1854.37,-336.463 1864.96,-336.312 1862.56,-329.739"/>
</g>
<!-- Node24 -->
<g id="node24" class="node"><title>Node24</title>
<g id="a_node24"><a xlink:href="../../d0/d6d/IncoherentIntensity_8hpp.html" target="_top" xlink:title="/home/travis/build\l/ComPWA/ComPWA/Physics\l/HelicityFormalism/Incoherent\lIntensity.hpp">
<polygon fill="white" stroke="red" points="1828.5,-157 1828.5,-209 1977.5,-209 1977.5,-157 1828.5,-157"/>
<text text-anchor="start" x="1836.5" y="-197" font-family="Helvetica,sans-Serif" font-size="10.00">/home/travis/build</text>
<text text-anchor="start" x="1836.5" y="-186" font-family="Helvetica,sans-Serif" font-size="10.00">/ComPWA/ComPWA/Physics</text>
<text text-anchor="start" x="1836.5" y="-175" font-family="Helvetica,sans-Serif" font-size="10.00">/HelicityFormalism/Incoherent</text>
<text text-anchor="middle" x="1903" y="-164" font-family="Helvetica,sans-Serif" font-size="10.00">Intensity.hpp</text>
</a>
</g>
</g>
<!-- Node1&#45;&gt;Node24 -->
<g id="edge35" class="edge"><title>Node1&#45;&gt;Node24</title>
<path fill="none" stroke="midnightblue" d="M1848.13,-330.648C1859.8,-322.312 1871.18,-312.037 1879,-300 1896.92,-272.406 1901.82,-233.992 1902.97,-209.062"/>
<polygon fill="midnightblue" stroke="midnightblue" points="1845.97,-327.883 1839.64,-336.373 1849.89,-333.688 1845.97,-327.883"/>
</g>
<!-- Node25 -->
<g id="node25" class="node"><title>Node25</title>
<g id="a_node25"><a xlink:href="../../d0/d27/Integration_8hpp.html" target="_top" xlink:title="/home/travis/build\l/ComPWA/ComPWA/Tools\l/Integration.hpp">
<polygon fill="white" stroke="red" points="1732,-252.5 1732,-293.5 1870,-293.5 1870,-252.5 1732,-252.5"/>
<text text-anchor="start" x="1740" y="-281.5" font-family="Helvetica,sans-Serif" font-size="10.00">/home/travis/build</text>
<text text-anchor="start" x="1740" y="-270.5" font-family="Helvetica,sans-Serif" font-size="10.00">/ComPWA/ComPWA/Tools</text>
<text text-anchor="middle" x="1801" y="-259.5" font-family="Helvetica,sans-Serif" font-size="10.00">/Integration.hpp</text>
</a>
</g>
</g>
<!-- Node1&#45;&gt;Node25 -->
<g id="edge36" class="edge"><title>Node1&#45;&gt;Node25</title>
<path fill="none" stroke="midnightblue" d="M1801,-325.881C1801,-315.133 1801,-303.309 1801,-293.667"/>
<polygon fill="midnightblue" stroke="midnightblue" points="1797.5,-326.15 1801,-336.15 1804.5,-326.15 1797.5,-326.15"/>
</g>
<!-- Node3 -->
<g id="node3" class="node"><title>Node3</title>
<g id="a_node3"><a xlink:href="../../dc/d53/Dictionary_8cpp.html" target="_top" xlink:title="/home/travis/build\l/ComPWA/ComPWA/Core\l/Dictionary.cpp">
<polygon fill="white" stroke="black" points="-0.5,-162.5 -0.5,-203.5 134.5,-203.5 134.5,-162.5 -0.5,-162.5"/>
<text text-anchor="start" x="7.5" y="-191.5" font-family="Helvetica,sans-Serif" font-size="10.00">/home/travis/build</text>
<text text-anchor="start" x="7.5" y="-180.5" font-family="Helvetica,sans-Serif" font-size="10.00">/ComPWA/ComPWA/Core</text>
<text text-anchor="middle" x="67" y="-169.5" font-family="Helvetica,sans-Serif" font-size="10.00">/Dictionary.cpp</text>
</a>
</g>
</g>
<!-- Node2&#45;&gt;Node3 -->
<g id="edge2" class="edge"><title>Node2&#45;&gt;Node3</title>
<path fill="none" stroke="midnightblue" d="M134.322,-245.712C119.65,-232.262 102.086,-216.162 88.5779,-203.78"/>
<polygon fill="midnightblue" stroke="midnightblue" points="131.958,-248.293 141.694,-252.47 136.688,-243.133 131.958,-248.293"/>
</g>
<!-- Node4&#45;&gt;Node5 -->
<g id="edge4" class="edge"><title>Node4&#45;&gt;Node5</title>
<path fill="none" stroke="midnightblue" d="M645.478,-263.372C563.52,-253.497 430.755,-235.351 318,-210 309.695,-208.133 301.022,-205.896 292.507,-203.53"/>
<polygon fill="midnightblue" stroke="midnightblue" points="645.118,-266.854 655.463,-264.564 645.949,-259.903 645.118,-266.854"/>
</g>
<!-- Node4&#45;&gt;Node6 -->
<g id="edge5" class="edge"><title>Node4&#45;&gt;Node6</title>
<path fill="none" stroke="midnightblue" d="M645.529,-250.905C601.881,-238.98 546.374,-223.749 497,-210 489.485,-207.907 481.628,-205.707 473.809,-203.508"/>
<polygon fill="midnightblue" stroke="midnightblue" points="644.652,-254.293 655.221,-253.552 646.496,-247.541 644.652,-254.293"/>
</g>
<!-- Node8 -->
<g id="node8" class="node"><title>Node8</title>
<g id="a_node8"><a xlink:href="../../db/dad/GenevaIF_8hpp.html" target="_top" xlink:title="This class provides a wrapper around the Geneva library. ">
<polygon fill="white" stroke="red" points="887,-78.5 887,-119.5 1043,-119.5 1043,-78.5 887,-78.5"/>
<text text-anchor="start" x="895" y="-107.5" font-family="Helvetica,sans-Serif" font-size="10.00">/home/travis/build</text>
<text text-anchor="start" x="895" y="-96.5" font-family="Helvetica,sans-Serif" font-size="10.00">/ComPWA/ComPWA/Optimizer</text>
<text text-anchor="middle" x="965" y="-85.5" font-family="Helvetica,sans-Serif" font-size="10.00">/Geneva/GenevaIF.hpp</text>
</a>
</g>
</g>
<!-- Node4&#45;&gt;Node8 -->
<g id="edge7" class="edge"><title>Node4&#45;&gt;Node8</title>
<path fill="none" stroke="midnightblue" d="M720.984,-242.247C720.908,-216.149 725.17,-178.891 747,-156 752.065,-150.689 826.279,-132.322 886.727,-118.054"/>
<polygon fill="midnightblue" stroke="midnightblue" points="717.487,-242.419 721.228,-252.332 724.485,-242.25 717.487,-242.419"/>
</g>
<!-- Node9 -->
<g id="node9" class="node"><title>Node9</title>
<g id="a_node9"><a xlink:href="../../df/dfa/GStartIndividual_8hpp.html" target="_top" xlink:title="/home/travis/build\l/ComPWA/ComPWA/Optimizer\l/Geneva/GStartIndividual.hpp">
<polygon fill="white" stroke="red" points="539,-162.5 539,-203.5 695,-203.5 695,-162.5 539,-162.5"/>
<text text-anchor="start" x="547" y="-191.5" font-family="Helvetica,sans-Serif" font-size="10.00">/home/travis/build</text>
<text text-anchor="start" x="547" y="-180.5" font-family="Helvetica,sans-Serif" font-size="10.00">/ComPWA/ComPWA/Optimizer</text>
<text text-anchor="middle" x="617" y="-169.5" font-family="Helvetica,sans-Serif" font-size="10.00">/Geneva/GStartIndividual.hpp</text>
</a>
</g>
</g>
<!-- Node4&#45;&gt;Node9 -->
<g id="edge8" class="edge"><title>Node4&#45;&gt;Node9</title>
<path fill="none" stroke="midnightblue" d="M691.78,-246.081C675.49,-232.558 655.878,-216.276 640.826,-203.78"/>
<polygon fill="midnightblue" stroke="midnightblue" points="689.545,-248.775 699.475,-252.47 694.017,-243.389 689.545,-248.775"/>
</g>
<!-- Node11 -->
<g id="node11" class="node"><title>Node11</title>
<g id="a_node11"><a xlink:href="../../de/d83/MinuitFcn_8hpp.html" target="_top" xlink:title="Based on the Minuit2 FcnBase. ">
<polygon fill="white" stroke="red" points="789,-162.5 789,-203.5 945,-203.5 945,-162.5 789,-162.5"/>
<text text-anchor="start" x="797" y="-191.5" font-family="Helvetica,sans-Serif" font-size="10.00">/home/travis/build</text>
<text text-anchor="start" x="797" y="-180.5" font-family="Helvetica,sans-Serif" font-size="10.00">/ComPWA/ComPWA/Optimizer</text>
<text text-anchor="middle" x="867" y="-169.5" font-family="Helvetica,sans-Serif" font-size="10.00">/Minuit2/MinuitFcn.hpp</text>
</a>
</g>
</g>
<!-- Node4&#45;&gt;Node11 -->
<g id="edge11" class="edge"><title>Node4&#45;&gt;Node11</title>
<path fill="none" stroke="midnightblue" d="M763.643,-247.163C786.198,-233.379 813.855,-216.477 834.882,-203.627"/>
<polygon fill="midnightblue" stroke="midnightblue" points="761.666,-244.269 754.958,-252.47 765.316,-250.242 761.666,-244.269"/>
</g>
<!-- Node12 -->
<g id="node12" class="node"><title>Node12</title>
<g id="a_node12"><a xlink:href="../../d3/d89/MinuitResult_8hpp.html" target="_top" xlink:title="/home/travis/build\l/ComPWA/ComPWA/Optimizer\l/Minuit2/MinuitResult.hpp">
<polygon fill="white" stroke="red" points="963,-162.5 963,-203.5 1119,-203.5 1119,-162.5 963,-162.5"/>
<text text-anchor="start" x="971" y="-191.5" font-family="Helvetica,sans-Serif" font-size="10.00">/home/travis/build</text>
<text text-anchor="start" x="971" y="-180.5" font-family="Helvetica,sans-Serif" font-size="10.00">/ComPWA/ComPWA/Optimizer</text>
<text text-anchor="middle" x="1041" y="-169.5" font-family="Helvetica,sans-Serif" font-size="10.00">/Minuit2/MinuitResult.hpp</text>
</a>
</g>
</g>
<!-- Node4&#45;&gt;Node12 -->
<g id="edge12" class="edge"><title>Node4&#45;&gt;Node12</title>
<path fill="none" stroke="midnightblue" d="M800.289,-251.838C845.235,-239.968 902.919,-224.485 954,-210 961.28,-207.936 968.888,-205.731 976.446,-203.512"/>
<polygon fill="midnightblue" stroke="midnightblue" points="799.385,-248.457 790.608,-254.391 801.17,-255.225 799.385,-248.457"/>
</g>
<!-- Node13 -->
<g id="node13" class="node"><title>Node13</title>
<g id="a_node13"><a xlink:href="../../db/d94/RunManager_8cpp.html" target="_top" xlink:title="/home/travis/build\l/ComPWA/ComPWA/Tools\l/RunManager.cpp">
<polygon fill="white" stroke="black" points="1270,-0.5 1270,-41.5 1408,-41.5 1408,-0.5 1270,-0.5"/>
<text text-anchor="start" x="1278" y="-29.5" font-family="Helvetica,sans-Serif" font-size="10.00">/home/travis/build</text>
<text text-anchor="start" x="1278" y="-18.5" font-family="Helvetica,sans-Serif" font-size="10.00">/ComPWA/ComPWA/Tools</text>
<text text-anchor="middle" x="1339" y="-7.5" font-family="Helvetica,sans-Serif" font-size="10.00">/RunManager.cpp</text>
</a>
</g>
</g>
<!-- Node4&#45;&gt;Node13 -->
<g id="edge13" class="edge"><title>Node4&#45;&gt;Node13</title>
<path fill="none" stroke="midnightblue" d="M645.388,-256.78C598.112,-245.756 544.155,-229.414 530,-210 495.438,-162.595 489.974,-120.892 530,-78 579.978,-24.4433 1083.4,-20.9554 1269.95,-21.5238"/>
<polygon fill="midnightblue" stroke="midnightblue" points="644.83,-260.243 655.358,-259.051 646.385,-253.417 644.83,-260.243"/>
</g>
<!-- Node4&#45;&gt;Node14 -->
<g id="edge14" class="edge"><title>Node4&#45;&gt;Node14</title>
<path fill="none" stroke="midnightblue" d="M735.565,-242.786C749.847,-210.217 772.191,-161.377 780,-156 801.937,-140.897 1164.24,-114.988 1318.9,-104.552"/>
<polygon fill="midnightblue" stroke="midnightblue" points="732.204,-241.74 731.417,-252.305 738.621,-244.536 732.204,-241.74"/>
</g>
<!-- Node7 -->
<g id="node7" class="node"><title>Node7</title>
<g id="a_node7"><a xlink:href="../../de/d8e/MinLogLH_8cpp.html" target="_top" xlink:title="/home/travis/build\l/ComPWA/ComPWA/Estimator\l/MinLogLH/MinLogLH.cpp">
<polygon fill="white" stroke="black" points="539,-78.5 539,-119.5 695,-119.5 695,-78.5 539,-78.5"/>
<text text-anchor="start" x="547" y="-107.5" font-family="Helvetica,sans-Serif" font-size="10.00">/home/travis/build</text>
<text text-anchor="start" x="547" y="-96.5" font-family="Helvetica,sans-Serif" font-size="10.00">/ComPWA/ComPWA/Estimator</text>
<text text-anchor="middle" x="617" y="-85.5" font-family="Helvetica,sans-Serif" font-size="10.00">/MinLogLH/MinLogLH.cpp</text>
</a>
</g>
</g>
<!-- Node6&#45;&gt;Node7 -->
<g id="edge6" class="edge"><title>Node6&#45;&gt;Node7</title>
<path fill="none" stroke="midnightblue" d="M465.203,-158.714C497.206,-146.336 536.103,-131.29 566.51,-119.529"/>
<polygon fill="midnightblue" stroke="midnightblue" points="463.574,-155.591 455.51,-162.463 466.099,-162.12 463.574,-155.591"/>
</g>
<!-- Node9&#45;&gt;Node8 -->
<g id="edge9" class="edge"><title>Node9&#45;&gt;Node8</title>
<path fill="none" stroke="midnightblue" d="M693.971,-159.847C699.047,-158.509 704.091,-157.215 709,-156 783.547,-137.547 803.02,-136.603 878,-120 880.875,-119.363 883.802,-118.711 886.759,-118.049"/>
<polygon fill="midnightblue" stroke="midnightblue" points="692.949,-156.497 684.193,-162.462 694.758,-163.259 692.949,-156.497"/>
</g>
<!-- Node10 -->
<g id="node10" class="node"><title>Node10</title>
<g id="a_node10"><a xlink:href="../../d6/d5e/GenevaResult_8hpp.html" target="_top" xlink:title="This class contains FitResults from Geneva Optimizations. ">
<polygon fill="white" stroke="red" points="713,-78.5 713,-119.5 869,-119.5 869,-78.5 713,-78.5"/>
<text text-anchor="start" x="721" y="-107.5" font-family="Helvetica,sans-Serif" font-size="10.00">/home/travis/build</text>
<text text-anchor="start" x="721" y="-96.5" font-family="Helvetica,sans-Serif" font-size="10.00">/ComPWA/ComPWA/Optimizer</text>
<text text-anchor="middle" x="791" y="-85.5" font-family="Helvetica,sans-Serif" font-size="10.00">/Geneva/GenevaResult.hpp</text>
</a>
</g>
</g>
<!-- Node9&#45;&gt;Node10 -->
<g id="edge10" class="edge"><title>Node9&#45;&gt;Node10</title>
<path fill="none" stroke="midnightblue" d="M667.961,-157.984C693.855,-145.781 724.923,-131.14 749.362,-119.623"/>
<polygon fill="midnightblue" stroke="midnightblue" points="666.231,-154.93 658.677,-162.359 669.215,-161.262 666.231,-154.93"/>
</g>
<!-- Node14&#45;&gt;Node13 -->
<g id="edge15" class="edge"><title>Node14&#45;&gt;Node13</title>
<path fill="none" stroke="midnightblue" d="M1369.79,-69.7571C1363.73,-60.354 1357.11,-50.096 1351.58,-41.5056"/>
<polygon fill="midnightblue" stroke="midnightblue" points="1367.02,-71.9201 1375.38,-78.4281 1372.9,-68.1269 1367.02,-71.9201"/>
</g>
<!-- Node15&#45;&gt;Node7 -->
<g id="edge18" class="edge"><title>Node15&#45;&gt;Node7</title>
<path fill="none" stroke="midnightblue" d="M1295.32,-263.207C1252.23,-255.118 1199.7,-239.627 1161,-210 1138.67,-192.902 1151.93,-170.785 1128,-156 1047.56,-106.294 797.423,-134.629 704,-120 701.091,-119.544 698.134,-119.046 695.153,-118.515"/>
<polygon fill="midnightblue" stroke="midnightblue" points="1294.74,-266.66 1305.2,-264.966 1295.97,-259.768 1294.74,-266.66"/>
</g>
<!-- Node15&#45;&gt;Node10 -->
<g id="edge19" class="edge"><title>Node15&#45;&gt;Node10</title>
<path fill="none" stroke="midnightblue" d="M1295.39,-253.303C1265.05,-243.587 1231.1,-229.552 1204,-210 1179.12,-192.05 1187.74,-171.042 1161,-156 1050.49,-93.8354 1002.83,-142.231 878,-120 875.101,-119.484 872.153,-118.934 869.179,-118.358"/>
<polygon fill="midnightblue" stroke="midnightblue" points="1294.52,-256.696 1305.1,-256.308 1296.58,-250.009 1294.52,-256.696"/>
</g>
<!-- Node15&#45;&gt;Node12 -->
<g id="edge21" class="edge"><title>Node15&#45;&gt;Node12</title>
<path fill="none" stroke="midnightblue" d="M1295.57,-252.47C1248.49,-240.479 1187.2,-224.658 1133,-210 1125.47,-207.964 1117.6,-205.798 1109.78,-203.621"/>
<polygon fill="midnightblue" stroke="midnightblue" points="1294.84,-255.895 1305.39,-254.969 1296.56,-249.111 1294.84,-255.895"/>
</g>
<!-- Node15&#45;&gt;Node14 -->
<g id="edge26" class="edge"><title>Node15&#45;&gt;Node14</title>
<path fill="none" stroke="midnightblue" d="M1450.77,-268.656C1538.82,-263.048 1674.19,-248.285 1706,-210 1776.38,-125.308 1570.7,-105.698 1457.35,-101.246"/>
<polygon fill="midnightblue" stroke="midnightblue" points="1450.31,-265.178 1440.54,-269.28 1450.74,-272.165 1450.31,-265.178"/>
</g>
<!-- Node16 -->
<g id="node16" class="node"><title>Node16</title>
<g id="a_node16"><a xlink:href="../../dd/d18/FitResult_8cpp.html" target="_top" xlink:title="/home/travis/build\l/ComPWA/ComPWA/Core\l/FitResult.cpp">
<polygon fill="white" stroke="black" points="1387.5,-162.5 1387.5,-203.5 1522.5,-203.5 1522.5,-162.5 1387.5,-162.5"/>
<text text-anchor="start" x="1395.5" y="-191.5" font-family="Helvetica,sans-Serif" font-size="10.00">/home/travis/build</text>
<text text-anchor="start" x="1395.5" y="-180.5" font-family="Helvetica,sans-Serif" font-size="10.00">/ComPWA/ComPWA/Core</text>
<text text-anchor="middle" x="1455" y="-169.5" font-family="Helvetica,sans-Serif" font-size="10.00">/FitResult.cpp</text>
</a>
</g>
</g>
<!-- Node15&#45;&gt;Node16 -->
<g id="edge17" class="edge"><title>Node15&#45;&gt;Node16</title>
<path fill="none" stroke="midnightblue" d="M1398.19,-244.969C1410.58,-231.673 1425.24,-215.935 1436.57,-203.78"/>
<polygon fill="midnightblue" stroke="midnightblue" points="1395.46,-242.768 1391.2,-252.47 1400.58,-247.54 1395.46,-242.768"/>
</g>
<!-- Node17 -->
<g id="node17" class="node"><title>Node17</title>
<g id="a_node17"><a xlink:href="../../d0/d33/MinuitIF_8cpp.html" target="_top" xlink:title="/home/travis/build\l/ComPWA/ComPWA/Optimizer\l/Minuit2/MinuitIF.cpp">
<polygon fill="white" stroke="black" points="1541,-162.5 1541,-203.5 1697,-203.5 1697,-162.5 1541,-162.5"/>
<text text-anchor="start" x="1549" y="-191.5" font-family="Helvetica,sans-Serif" font-size="10.00">/home/travis/build</text>
<text text-anchor="start" x="1549" y="-180.5" font-family="Helvetica,sans-Serif" font-size="10.00">/ComPWA/ComPWA/Optimizer</text>
<text text-anchor="middle" x="1619" y="-169.5" font-family="Helvetica,sans-Serif" font-size="10.00">/Minuit2/MinuitIF.cpp</text>
</a>
</g>
</g>
<!-- Node15&#45;&gt;Node17 -->
<g id="edge20" class="edge"><title>Node15&#45;&gt;Node17</title>
<path fill="none" stroke="midnightblue" d="M1437.37,-248.973C1476.76,-234.883 1526.62,-217.046 1564.13,-203.627"/>
<polygon fill="midnightblue" stroke="midnightblue" points="1435.83,-245.806 1427.6,-252.47 1438.19,-252.397 1435.83,-245.806"/>
</g>
<!-- Node18 -->
<g id="node18" class="node"><title>Node18</title>
<g id="a_node18"><a xlink:href="../../db/d93/Optimizer_8hpp.html" target="_top" xlink:title="This class provides the interface to (external) optimization libraries or routines. ">
<polygon fill="white" stroke="red" points="1213,-162.5 1213,-203.5 1369,-203.5 1369,-162.5 1213,-162.5"/>
<text text-anchor="start" x="1221" y="-191.5" font-family="Helvetica,sans-Serif" font-size="10.00">/home/travis/build</text>
<text text-anchor="start" x="1221" y="-180.5" font-family="Helvetica,sans-Serif" font-size="10.00">/ComPWA/ComPWA/Optimizer</text>
<text text-anchor="middle" x="1291" y="-169.5" font-family="Helvetica,sans-Serif" font-size="10.00">/Optimizer.hpp</text>
</a>
</g>
</g>
<!-- Node15&#45;&gt;Node18 -->
<g id="edge22" class="edge"><title>Node15&#45;&gt;Node18</title>
<path fill="none" stroke="midnightblue" d="M1347.81,-244.969C1335.42,-231.673 1320.76,-215.935 1309.43,-203.78"/>
<polygon fill="midnightblue" stroke="midnightblue" points="1345.42,-247.54 1354.8,-252.47 1350.54,-242.768 1345.42,-247.54"/>
</g>
<!-- Node18&#45;&gt;Node8 -->
<g id="edge23" class="edge"><title>Node18&#45;&gt;Node8</title>
<path fill="none" stroke="midnightblue" d="M1213.01,-159.724C1208.28,-158.444 1203.58,-157.194 1199,-156 1147.26,-142.504 1088.76,-128.504 1043.2,-117.878"/>
<polygon fill="midnightblue" stroke="midnightblue" points="1212.19,-163.127 1222.76,-162.382 1214.03,-156.374 1212.19,-163.127"/>
</g>
<!-- Node18&#45;&gt;Node13 -->
<g id="edge24" class="edge"><title>Node18&#45;&gt;Node13</title>
<path fill="none" stroke="midnightblue" d="M1294.03,-152.403C1296.77,-131.262 1301.67,-102.367 1310,-78 1314.32,-65.3604 1321.11,-52.0496 1327.03,-41.578"/>
<polygon fill="midnightblue" stroke="midnightblue" points="1290.55,-152.048 1292.83,-162.395 1297.5,-152.887 1290.55,-152.048"/>
</g>
<!-- Node18&#45;&gt;Node14 -->
<g id="edge25" class="edge"><title>Node18&#45;&gt;Node14</title>
<path fill="none" stroke="midnightblue" d="M1322.31,-155.528C1336.1,-143.871 1352.02,-130.414 1364.74,-119.667"/>
<polygon fill="midnightblue" stroke="midnightblue" points="1319.86,-153.021 1314.48,-162.15 1324.38,-158.367 1319.86,-153.021"/>
</g>
<!-- Node23&#45;&gt;Node24 -->
<g id="edge34" class="edge"><title>Node23&#45;&gt;Node24</title>
<path fill="none" stroke="midnightblue" d="M1989.71,-246.545C1973.42,-234.793 1954.13,-220.881 1937.89,-209.166"/>
<polygon fill="midnightblue" stroke="midnightblue" points="1987.77,-249.458 1997.92,-252.47 1991.86,-243.781 1987.77,-249.458"/>
</g>
<!-- Node25&#45;&gt;Node13 -->
<g id="edge38" class="edge"><title>Node25&#45;&gt;Node13</title>
<path fill="none" stroke="midnightblue" d="M1794.37,-242.498C1787.02,-216.319 1772.66,-178.79 1747,-156 1650.14,-69.9784 1496.82,-38.9975 1408.29,-27.9696"/>
<polygon fill="midnightblue" stroke="midnightblue" points="1791.01,-243.481 1796.93,-252.263 1797.78,-241.702 1791.01,-243.481"/>
</g>
<!-- Node25&#45;&gt;Node24 -->
<g id="edge37" class="edge"><title>Node25&#45;&gt;Node24</title>
<path fill="none" stroke="midnightblue" d="M1831.26,-245.896C1844.72,-234.283 1860.5,-220.666 1873.83,-209.166"/>
<polygon fill="midnightblue" stroke="midnightblue" points="1828.92,-243.288 1823.64,-252.47 1833.5,-248.588 1828.92,-243.288"/>
</g>
</g>
</svg>
