<?xml version="1.0" encoding="UTF-8" standalone="no"?>
<!DOCTYPE svg PUBLIC "-//W3C//DTD SVG 1.1//EN"
 "http://www.w3.org/Graphics/SVG/1.1/DTD/svg11.dtd">
<!-- Generated by graphviz version 2.36.0 (20140111.2315)
 -->
<!-- Title: /home/travis/build/ComPWA/ComPWA/Core/DataPoint.cpp Pages: 1 -->
<svg width="1072pt" height="398pt"
 viewBox="0.00 0.00 1071.88 398.00" xmlns="http://www.w3.org/2000/svg" xmlns:xlink="http://www.w3.org/1999/xlink">
<g id="graph0" class="graph" transform="scale(1 1) rotate(0) translate(4 394)">
<title>/home/travis/build/ComPWA/ComPWA/Core/DataPoint.cpp</title>
<polygon fill="white" stroke="none" points="-4,4 -4,-394 1067.88,-394 1067.88,4 -4,4"/>
<!-- Node1 -->
<g id="node1" class="node"><title>Node1</title>
<polygon fill="#bfbfbf" stroke="black" points="641.5,-348.5 641.5,-389.5 776.5,-389.5 776.5,-348.5 641.5,-348.5"/>
<text text-anchor="start" x="649.5" y="-377.5" font-family="Helvetica,sans-Serif" font-size="10.00">/home/travis/build</text>
<text text-anchor="start" x="649.5" y="-366.5" font-family="Helvetica,sans-Serif" font-size="10.00">/ComPWA/ComPWA/Core</text>
<text text-anchor="middle" x="709" y="-355.5" font-family="Helvetica,sans-Serif" font-size="10.00">/DataPoint.cpp</text>
</g>
<!-- Node2 -->
<g id="node2" class="node"><title>Node2</title>
<polygon fill="white" stroke="#bfbfbf" points="94,-62.5 94,-81.5 150,-81.5 150,-62.5 94,-62.5"/>
<text text-anchor="middle" x="122" y="-69.5" font-family="Helvetica,sans-Serif" font-size="10.00">algorithm</text>
</g>
<!-- Node1&#45;&gt;Node2 -->
<g id="edge1" class="edge"><title>Node1&#45;&gt;Node2</title>
<path fill="none" stroke="midnightblue" d="M641.339,-363.523C464.121,-350.897 0,-311.659 0,-247 0,-247 0,-247 0,-189 0,-138.561 55.4436,-103.411 91.578,-85.8577"/>
<polygon fill="midnightblue" stroke="midnightblue" points="93.1692,-88.9776 100.749,-81.5753 90.2075,-82.6349 93.1692,-88.9776"/>
</g>
<!-- Node3 -->
<g id="node3" class="node"><title>Node3</title>
<g id="a_node3"><a xlink:href="../../d2/de9/Exceptions_8hpp.html" target="_top" xlink:title="This class defines the ComPWA exception base&#45;class and provides a set of standard exceptions...">
<polygon fill="white" stroke="black" points="829,-62.5 829,-81.5 937,-81.5 937,-62.5 829,-62.5"/>
<text text-anchor="middle" x="883" y="-69.5" font-family="Helvetica,sans-Serif" font-size="10.00">Core/Exceptions.hpp</text>
</a>
</g>
</g>
<!-- Node1&#45;&gt;Node3 -->
<g id="edge2" class="edge"><title>Node1&#45;&gt;Node3</title>
<path fill="none" stroke="midnightblue" d="M776.698,-363.123C869.247,-352.126 1027.63,-316.349 1061,-200 1079.2,-136.528 990.498,-100.679 931.757,-84.2173"/>
<polygon fill="midnightblue" stroke="midnightblue" points="932.456,-80.7808 921.89,-81.5534 930.632,-87.5389 932.456,-80.7808"/>
</g>
<!-- Node6 -->
<g id="node6" class="node"><title>Node6</title>
<g id="a_node6"><a xlink:href="../../d4/d37/Kinematics_8hpp.html" target="_top" xlink:title="Core/Kinematics.hpp">
<polygon fill="white" stroke="black" points="542,-292.5 542,-311.5 650,-311.5 650,-292.5 542,-292.5"/>
<text text-anchor="middle" x="596" y="-299.5" font-family="Helvetica,sans-Serif" font-size="10.00">Core/Kinematics.hpp</text>
</a>
</g>
</g>
<!-- Node1&#45;&gt;Node6 -->
<g id="edge5" class="edge"><title>Node1&#45;&gt;Node6</title>
<path fill="none" stroke="midnightblue" d="M675.096,-348.498C657.271,-338.245 635.854,-325.925 619.804,-316.693"/>
<polygon fill="midnightblue" stroke="midnightblue" points="621.455,-313.605 611.042,-311.652 617.965,-319.673 621.455,-313.605"/>
</g>
<!-- Node19 -->
<g id="node19" class="node"><title>Node19</title>
<g id="a_node19"><a xlink:href="../../d8/dd4/DataPoint_8hpp.html" target="_top" xlink:title="dataPoint stores kinematic information of a dalitz plot ">
<polygon fill="white" stroke="black" points="914.5,-236.5 914.5,-255.5 1017.5,-255.5 1017.5,-236.5 914.5,-236.5"/>
<text text-anchor="middle" x="966" y="-243.5" font-family="Helvetica,sans-Serif" font-size="10.00">Core/DataPoint.hpp</text>
</a>
</g>
</g>
<!-- Node1&#45;&gt;Node19 -->
<g id="edge48" class="edge"><title>Node1&#45;&gt;Node19</title>
<path fill="none" stroke="midnightblue" d="M750.577,-348.425C803.518,-323.499 893.515,-281.127 938.581,-259.91"/>
<polygon fill="midnightblue" stroke="midnightblue" points="940.186,-263.022 947.742,-255.596 937.204,-256.689 940.186,-263.022"/>
</g>
<!-- Node4 -->
<g id="node4" class="node"><title>Node4</title>
<polygon fill="white" stroke="#bfbfbf" points="853.5,-0.5 853.5,-19.5 912.5,-19.5 912.5,-0.5 853.5,-0.5"/>
<text text-anchor="middle" x="883" y="-7.5" font-family="Helvetica,sans-Serif" font-size="10.00">exception</text>
</g>
<!-- Node3&#45;&gt;Node4 -->
<g id="edge3" class="edge"><title>Node3&#45;&gt;Node4</title>
<path fill="none" stroke="midnightblue" d="M883,-62.4035C883,-53.9381 883,-40.7283 883,-29.8199"/>
<polygon fill="midnightblue" stroke="midnightblue" points="886.5,-29.5806 883,-19.5806 879.5,-29.5806 886.5,-29.5806"/>
</g>
<!-- Node5 -->
<g id="node5" class="node"><title>Node5</title>
<polygon fill="white" stroke="#bfbfbf" points="726.5,-0.5 726.5,-19.5 767.5,-19.5 767.5,-0.5 726.5,-0.5"/>
<text text-anchor="middle" x="747" y="-7.5" font-family="Helvetica,sans-Serif" font-size="10.00">string</text>
</g>
<!-- Node3&#45;&gt;Node5 -->
<g id="edge4" class="edge"><title>Node3&#45;&gt;Node5</title>
<path fill="none" stroke="midnightblue" d="M863.515,-62.4035C840.59,-52.2896 802.315,-35.4036 775.925,-23.761"/>
<polygon fill="midnightblue" stroke="midnightblue" points="777.011,-20.4148 766.449,-19.5806 774.186,-26.8193 777.011,-20.4148"/>
</g>
<!-- Node6&#45;&gt;Node5 -->
<g id="edge7" class="edge"><title>Node6&#45;&gt;Node5</title>
<path fill="none" stroke="midnightblue" d="M650.182,-292.518C744.977,-274.396 938.31,-222.037 1017,-88 1024.2,-75.7352 1026.19,-66.8518 1017,-56 1001.62,-37.8442 845.04,-20.5531 777.614,-13.8867"/>
<polygon fill="midnightblue" stroke="midnightblue" points="777.886,-10.3967 767.593,-12.9095 777.206,-17.3636 777.886,-10.3967"/>
</g>
<!-- Node7 -->
<g id="node7" class="node"><title>Node7</title>
<polygon fill="white" stroke="#bfbfbf" points="297,-62.5 297,-81.5 341,-81.5 341,-62.5 297,-62.5"/>
<text text-anchor="middle" x="319" y="-69.5" font-family="Helvetica,sans-Serif" font-size="10.00">vector</text>
</g>
<!-- Node6&#45;&gt;Node7 -->
<g id="edge6" class="edge"><title>Node6&#45;&gt;Node7</title>
<path fill="none" stroke="midnightblue" d="M541.971,-297.067C458.192,-289.068 293.912,-265.678 172,-200 134.746,-179.93 114.202,-181.708 95,-144 90.9664,-136.079 89.456,-130.948 95,-124 118.603,-94.4188 230.302,-80.6691 286.519,-75.5346"/>
<polygon fill="midnightblue" stroke="midnightblue" points="287.001,-79.0058 296.658,-74.6472 286.391,-72.0324 287.001,-79.0058"/>
</g>
<!-- Node8 -->
<g id="node8" class="node"><title>Node8</title>
<polygon fill="white" stroke="#bfbfbf" points="955.5,-62.5 955.5,-81.5 1008.5,-81.5 1008.5,-62.5 955.5,-62.5"/>
<text text-anchor="middle" x="982" y="-69.5" font-family="Helvetica,sans-Serif" font-size="10.00">complex</text>
</g>
<!-- Node6&#45;&gt;Node8 -->
<g id="edge8" class="edge"><title>Node6&#45;&gt;Node8</title>
<path fill="none" stroke="midnightblue" d="M612.912,-292.352C657.326,-269.486 780.63,-204.991 879,-144 908.586,-125.656 941.5,-102.451 961.978,-87.6617"/>
<polygon fill="midnightblue" stroke="midnightblue" points="964.164,-90.3995 970.2,-81.6923 960.052,-84.7348 964.164,-90.3995"/>
</g>
<!-- Node9 -->
<g id="node9" class="node"><title>Node9</title>
<g id="a_node9"><a xlink:href="../../df/d7d/Event_8hpp.html" target="_top" xlink:title="This class provides a internal container for event&#45;based information. ">
<polygon fill="white" stroke="black" points="181.5,-180.5 181.5,-199.5 266.5,-199.5 266.5,-180.5 181.5,-180.5"/>
<text text-anchor="middle" x="224" y="-187.5" font-family="Helvetica,sans-Serif" font-size="10.00">Core/Event.hpp</text>
</a>
</g>
</g>
<!-- Node6&#45;&gt;Node9 -->
<g id="edge9" class="edge"><title>Node6&#45;&gt;Node9</title>
<path fill="none" stroke="midnightblue" d="M541.885,-293.069C496.874,-285.73 431.443,-273.329 376,-256 330.469,-241.769 279.987,-218.617 250.176,-204.127"/>
<polygon fill="midnightblue" stroke="midnightblue" points="251.415,-200.837 240.896,-199.571 248.329,-207.12 251.415,-200.837"/>
</g>
<!-- Node12 -->
<g id="node12" class="node"><title>Node12</title>
<g id="a_node12"><a xlink:href="../../dd/df5/SubSystem_8hpp.html" target="_top" xlink:title="Contains SubSystem class. ">
<polygon fill="white" stroke="black" points="366,-124.5 366,-143.5 476,-143.5 476,-124.5 366,-124.5"/>
<text text-anchor="middle" x="421" y="-131.5" font-family="Helvetica,sans-Serif" font-size="10.00">Core/SubSystem.hpp</text>
</a>
</g>
</g>
<!-- Node6&#45;&gt;Node12 -->
<g id="edge17" class="edge"><title>Node6&#45;&gt;Node12</title>
<path fill="none" stroke="midnightblue" d="M580.354,-292.458C565.788,-284.133 543.852,-270.621 527,-256 489.029,-223.055 452.049,-176.617 433.439,-151.949"/>
<polygon fill="midnightblue" stroke="midnightblue" points="436.025,-149.561 427.243,-143.634 430.412,-153.744 436.025,-149.561"/>
</g>
<!-- Node14 -->
<g id="node14" class="node"><title>Node14</title>
<g id="a_node14"><a xlink:href="../../d8/d35/PhysConst_8hpp.html" target="_top" xlink:title="PhysConst provides particle information to the framework. ">
<polygon fill="white" stroke="black" points="542,-236.5 542,-255.5 650,-255.5 650,-236.5 542,-236.5"/>
<text text-anchor="middle" x="596" y="-243.5" font-family="Helvetica,sans-Serif" font-size="10.00">Core/PhysConst.hpp</text>
</a>
</g>
</g>
<!-- Node6&#45;&gt;Node14 -->
<g id="edge20" class="edge"><title>Node6&#45;&gt;Node14</title>
<path fill="none" stroke="midnightblue" d="M596,-292.083C596,-285.006 596,-274.861 596,-265.986"/>
<polygon fill="midnightblue" stroke="midnightblue" points="599.5,-265.751 596,-255.751 592.5,-265.751 599.5,-265.751"/>
</g>
<!-- Node16 -->
<g id="node16" class="node"><title>Node16</title>
<g id="a_node16"><a xlink:href="../../d9/dfb/Spin_8hpp.html" target="_top" xlink:title="Core/Spin.hpp">
<polygon fill="white" stroke="black" points="570.5,-124.5 570.5,-143.5 649.5,-143.5 649.5,-124.5 570.5,-124.5"/>
<text text-anchor="middle" x="610" y="-131.5" font-family="Helvetica,sans-Serif" font-size="10.00">Core/Spin.hpp</text>
</a>
</g>
</g>
<!-- Node6&#45;&gt;Node16 -->
<g id="edge42" class="edge"><title>Node6&#45;&gt;Node16</title>
<path fill="none" stroke="midnightblue" d="M575.153,-292.427C560.422,-285.129 541.795,-273.091 533,-256 528.933,-248.096 530.442,-244.513 533,-236 543.55,-200.894 572.871,-168.789 592.134,-150.593"/>
<polygon fill="midnightblue" stroke="midnightblue" points="594.675,-153.011 599.689,-143.678 589.949,-147.848 594.675,-153.011"/>
</g>
<!-- Node6&#45;&gt;Node19 -->
<g id="edge43" class="edge"><title>Node6&#45;&gt;Node19</title>
<path fill="none" stroke="midnightblue" d="M650.197,-293.09C717.828,-283.22 833.206,-266.381 904.202,-256.019"/>
<polygon fill="midnightblue" stroke="midnightblue" points="904.955,-259.446 914.344,-254.539 903.944,-252.52 904.955,-259.446"/>
</g>
<!-- Node9&#45;&gt;Node5 -->
<g id="edge11" class="edge"><title>Node9&#45;&gt;Node5</title>
<path fill="none" stroke="midnightblue" d="M181.197,-185.116C152.582,-180.201 116.389,-169.09 95,-144 69.4636,-114.045 58.1267,-84.7621 85,-56 128.51,-9.43153 591.494,-9.74802 716.207,-10.6894"/>
<polygon fill="midnightblue" stroke="midnightblue" points="716.202,-14.1894 726.231,-10.7722 716.26,-7.18963 716.202,-14.1894"/>
</g>
<!-- Node9&#45;&gt;Node7 -->
<g id="edge10" class="edge"><title>Node9&#45;&gt;Node7</title>
<path fill="none" stroke="midnightblue" d="M225.532,-180.213C228.202,-166.923 234.737,-141.419 248,-124 259.878,-108.401 277.849,-95.558 292.738,-86.6619"/>
<polygon fill="midnightblue" stroke="midnightblue" points="294.579,-89.641 301.528,-81.6436 291.109,-83.5619 294.579,-89.641"/>
</g>
<!-- Node10 -->
<g id="node10" class="node"><title>Node10</title>
<polygon fill="white" stroke="#bfbfbf" points="477,-62.5 477,-81.5 531,-81.5 531,-62.5 477,-62.5"/>
<text text-anchor="middle" x="504" y="-69.5" font-family="Helvetica,sans-Serif" font-size="10.00">iostream</text>
</g>
<!-- Node9&#45;&gt;Node10 -->
<g id="edge12" class="edge"><title>Node9&#45;&gt;Node10</title>
<path fill="none" stroke="midnightblue" d="M240.089,-180.35C264.811,-167.241 313.814,-141.967 357,-124 393.861,-108.664 437.155,-94.0376 467.169,-84.4127"/>
<polygon fill="midnightblue" stroke="midnightblue" points="468.341,-87.7127 476.81,-81.3465 466.22,-81.0419 468.341,-87.7127"/>
</g>
<!-- Node11 -->
<g id="node11" class="node"><title>Node11</title>
<g id="a_node11"><a xlink:href="../../d3/d65/Particle_8hpp.html" target="_top" xlink:title="This class provides a internal container for information of a particle. ">
<polygon fill="white" stroke="red" points="104,-124.5 104,-143.5 196,-143.5 196,-124.5 104,-124.5"/>
<text text-anchor="middle" x="150" y="-131.5" font-family="Helvetica,sans-Serif" font-size="10.00">Core/Particle.hpp</text>
</a>
</g>
</g>
<!-- Node9&#45;&gt;Node11 -->
<g id="edge13" class="edge"><title>Node9&#45;&gt;Node11</title>
<path fill="none" stroke="midnightblue" d="M212.111,-180.324C200.85,-172.107 183.713,-159.602 170.291,-149.807"/>
<polygon fill="midnightblue" stroke="midnightblue" points="172.247,-146.901 162.106,-143.834 168.12,-152.556 172.247,-146.901"/>
</g>
<!-- Node11&#45;&gt;Node2 -->
<g id="edge15" class="edge"><title>Node11&#45;&gt;Node2</title>
<path fill="none" stroke="midnightblue" d="M145.988,-124.403C141.913,-115.671 135.482,-101.889 130.304,-90.7936"/>
<polygon fill="midnightblue" stroke="midnightblue" points="133.405,-89.1623 126.004,-81.5806 127.062,-92.1225 133.405,-89.1623"/>
</g>
<!-- Node11&#45;&gt;Node7 -->
<g id="edge14" class="edge"><title>Node11&#45;&gt;Node7</title>
<path fill="none" stroke="midnightblue" d="M174.214,-124.403C203.99,-113.832 254.607,-95.8614 287.415,-84.2136"/>
<polygon fill="midnightblue" stroke="midnightblue" points="288.729,-87.4611 296.982,-80.817 286.387,-80.8645 288.729,-87.4611"/>
</g>
<!-- Node11&#45;&gt;Node10 -->
<g id="edge16" class="edge"><title>Node11&#45;&gt;Node10</title>
<path fill="none" stroke="midnightblue" d="M196.279,-125.156C267.114,-113.15 401.058,-90.4478 466.336,-79.3838"/>
<polygon fill="midnightblue" stroke="midnightblue" points="467.302,-82.77 476.576,-77.6481 466.132,-75.8684 467.302,-82.77"/>
</g>
<!-- Node12&#45;&gt;Node7 -->
<g id="edge18" class="edge"><title>Node12&#45;&gt;Node7</title>
<path fill="none" stroke="midnightblue" d="M406.386,-124.403C389.647,-114.557 361.996,-98.2915 342.281,-86.6949"/>
<polygon fill="midnightblue" stroke="midnightblue" points="343.981,-83.6341 333.587,-81.5806 340.432,-89.6676 343.981,-83.6341"/>
</g>
<!-- Node13 -->
<g id="node13" class="node"><title>Node13</title>
<polygon fill="white" stroke="#bfbfbf" points="617.5,-57 617.5,-87 718.5,-87 718.5,-57 617.5,-57"/>
<text text-anchor="start" x="625.5" y="-75" font-family="Helvetica,sans-Serif" font-size="10.00">boost/property_tree</text>
<text text-anchor="middle" x="668" y="-64" font-family="Helvetica,sans-Serif" font-size="10.00">/ptree.hpp</text>
</g>
<!-- Node12&#45;&gt;Node13 -->
<g id="edge19" class="edge"><title>Node12&#45;&gt;Node13</title>
<path fill="none" stroke="midnightblue" d="M456.127,-124.467C495.419,-114.922 559.775,-99.2895 607.265,-87.7534"/>
<polygon fill="midnightblue" stroke="midnightblue" points="608.237,-91.1193 617.128,-85.3576 606.584,-84.3171 608.237,-91.1193"/>
</g>
<!-- Node14&#45;&gt;Node7 -->
<g id="edge22" class="edge"><title>Node14&#45;&gt;Node7</title>
<path fill="none" stroke="midnightblue" d="M541.812,-242.212C477.722,-235.68 373.506,-214.181 324,-144 313.339,-128.887 313.435,-107.176 315.354,-91.7488"/>
<polygon fill="midnightblue" stroke="midnightblue" points="318.82,-92.2374 316.945,-81.8098 311.908,-91.1305 318.82,-92.2374"/>
</g>
<!-- Node14&#45;&gt;Node10 -->
<g id="edge21" class="edge"><title>Node14&#45;&gt;Node10</title>
<path fill="none" stroke="midnightblue" d="M590.901,-236.438C585.573,-227.432 577.028,-212.816 570,-200 548.883,-161.491 525.464,-115.617 512.988,-90.9058"/>
<polygon fill="midnightblue" stroke="midnightblue" points="515.973,-89.0516 508.35,-81.6938 509.721,-92.1996 515.973,-89.0516"/>
</g>
<!-- Node14&#45;&gt;Node13 -->
<g id="edge23" class="edge"><title>Node14&#45;&gt;Node13</title>
<path fill="none" stroke="midnightblue" d="M641.653,-236.431C662.243,-230.044 684.665,-218.999 697,-200 717.821,-167.93 698.492,-122.828 682.964,-95.8945"/>
<polygon fill="midnightblue" stroke="midnightblue" points="685.866,-93.9294 677.702,-87.1767 679.873,-97.5467 685.866,-93.9294"/>
</g>
<!-- Node15 -->
<g id="node15" class="node"><title>Node15</title>
<g id="a_node15"><a xlink:href="../../db/dce/Parameter_8hpp.html" target="_top" xlink:title="This class implements some internal container of parameters. ">
<polygon fill="white" stroke="red" points="744,-124.5 744,-143.5 848,-143.5 848,-124.5 744,-124.5"/>
<text text-anchor="middle" x="796" y="-131.5" font-family="Helvetica,sans-Serif" font-size="10.00">Core/Parameter.hpp</text>
</a>
</g>
</g>
<!-- Node14&#45;&gt;Node15 -->
<g id="edge24" class="edge"><title>Node14&#45;&gt;Node15</title>
<path fill="none" stroke="midnightblue" d="M636.772,-236.43C664.459,-229.418 701.144,-217.727 730,-200 751.077,-187.052 770.652,-166.198 782.922,-151.613"/>
<polygon fill="midnightblue" stroke="midnightblue" points="785.642,-153.816 789.258,-143.857 780.221,-149.387 785.642,-153.816"/>
</g>
<!-- Node14&#45;&gt;Node16 -->
<g id="edge30" class="edge"><title>Node14&#45;&gt;Node16</title>
<path fill="none" stroke="midnightblue" d="M589.431,-236.135C580.978,-223.592 568.149,-199.967 575,-180 578.719,-169.161 586.233,-158.922 593.349,-150.957"/>
<polygon fill="midnightblue" stroke="midnightblue" points="596.054,-153.192 600.444,-143.55 590.999,-148.35 596.054,-153.192"/>
</g>
<!-- Node18 -->
<g id="node18" class="node"><title>Node18</title>
<g id="a_node18"><a xlink:href="../../dc/ded/Properties_8hpp.html" target="_top" xlink:title="Core/Properties.hpp">
<polygon fill="white" stroke="black" points="584,-180.5 584,-199.5 688,-199.5 688,-180.5 584,-180.5"/>
<text text-anchor="middle" x="636" y="-187.5" font-family="Helvetica,sans-Serif" font-size="10.00">Core/Properties.hpp</text>
</a>
</g>
</g>
<!-- Node14&#45;&gt;Node18 -->
<g id="edge36" class="edge"><title>Node14&#45;&gt;Node18</title>
<path fill="none" stroke="midnightblue" d="M602.605,-236.083C608.255,-228.455 616.545,-217.264 623.451,-207.941"/>
<polygon fill="midnightblue" stroke="midnightblue" points="626.378,-209.87 629.518,-199.751 620.753,-205.703 626.378,-209.87"/>
</g>
<!-- Node15&#45;&gt;Node3 -->
<g id="edge29" class="edge"><title>Node15&#45;&gt;Node3</title>
<path fill="none" stroke="midnightblue" d="M808.465,-124.403C822.419,-114.78 845.265,-99.0242 861.991,-87.4891"/>
<polygon fill="midnightblue" stroke="midnightblue" points="864.313,-90.1392 870.558,-81.5806 860.339,-84.3767 864.313,-90.1392"/>
</g>
<!-- Node15&#45;&gt;Node5 -->
<g id="edge26" class="edge"><title>Node15&#45;&gt;Node5</title>
<path fill="none" stroke="midnightblue" d="M788.806,-124.234C782.007,-115.536 771.981,-101.576 766,-88 757.692,-69.1407 752.604,-46.0134 749.811,-30.0554"/>
<polygon fill="midnightblue" stroke="midnightblue" points="753.215,-29.182 748.169,-19.866 746.304,-30.2954 753.215,-29.182"/>
</g>
<!-- Node15&#45;&gt;Node8 -->
<g id="edge27" class="edge"><title>Node15&#45;&gt;Node8</title>
<path fill="none" stroke="midnightblue" d="M827.913,-124.459C858.493,-116.032 905.803,-102.361 946,-88 948.26,-87.1928 950.583,-86.3216 952.91,-85.4196"/>
<polygon fill="midnightblue" stroke="midnightblue" points="954.369,-88.6055 962.338,-81.6236 951.754,-82.1122 954.369,-88.6055"/>
</g>
<!-- Node15&#45;&gt;Node10 -->
<g id="edge25" class="edge"><title>Node15&#45;&gt;Node10</title>
<path fill="none" stroke="midnightblue" d="M754.474,-124.467C697.524,-112.765 596.041,-91.9124 541.362,-80.6772"/>
<polygon fill="midnightblue" stroke="midnightblue" points="541.898,-77.2142 531.398,-78.6298 540.489,-84.071 541.898,-77.2142"/>
</g>
<!-- Node15&#45;&gt;Node13 -->
<g id="edge28" class="edge"><title>Node15&#45;&gt;Node13</title>
<path fill="none" stroke="midnightblue" d="M777.661,-124.403C759.434,-115.86 730.897,-102.483 707.503,-91.5171"/>
<polygon fill="midnightblue" stroke="midnightblue" points="708.707,-88.2161 698.167,-87.1408 705.736,-94.5543 708.707,-88.2161"/>
</g>
<!-- Node16&#45;&gt;Node3 -->
<g id="edge35" class="edge"><title>Node16&#45;&gt;Node3</title>
<path fill="none" stroke="midnightblue" d="M649.725,-124.671C691.804,-115.796 760.155,-101.23 819,-88 824.849,-86.685 830.992,-85.2781 837.063,-83.8723"/>
<polygon fill="midnightblue" stroke="midnightblue" points="838.201,-87.2011 847.146,-81.5241 836.613,-80.3836 838.201,-87.2011"/>
</g>
<!-- Node16&#45;&gt;Node5 -->
<g id="edge31" class="edge"><title>Node16&#45;&gt;Node5</title>
<path fill="none" stroke="midnightblue" d="M606.69,-124.382C601.395,-109.01 593.055,-76.5474 608,-56 632.598,-22.1819 683.162,-13.2584 716.046,-11.1908"/>
<polygon fill="midnightblue" stroke="midnightblue" points="716.623,-14.6686 726.457,-10.7264 716.311,-7.67559 716.623,-14.6686"/>
</g>
<!-- Node16&#45;&gt;Node7 -->
<g id="edge33" class="edge"><title>Node16&#45;&gt;Node7</title>
<path fill="none" stroke="midnightblue" d="M570.452,-124.846C512.322,-112.86 404.915,-90.7144 351.261,-79.6517"/>
<polygon fill="midnightblue" stroke="midnightblue" points="351.778,-76.1848 341.277,-77.5933 350.365,-83.0406 351.778,-76.1848"/>
</g>
<!-- Node16&#45;&gt;Node10 -->
<g id="edge34" class="edge"><title>Node16&#45;&gt;Node10</title>
<path fill="none" stroke="midnightblue" d="M594.813,-124.403C577.338,-114.512 548.421,-98.1442 527.917,-86.5378"/>
<polygon fill="midnightblue" stroke="midnightblue" points="529.586,-83.4607 519.159,-81.5806 526.138,-89.5525 529.586,-83.4607"/>
</g>
<!-- Node17 -->
<g id="node17" class="node"><title>Node17</title>
<polygon fill="white" stroke="#bfbfbf" points="775.5,-62.5 775.5,-81.5 810.5,-81.5 810.5,-62.5 775.5,-62.5"/>
<text text-anchor="middle" x="793" y="-69.5" font-family="Helvetica,sans-Serif" font-size="10.00">map</text>
</g>
<!-- Node16&#45;&gt;Node17 -->
<g id="edge32" class="edge"><title>Node16&#45;&gt;Node17</title>
<path fill="none" stroke="midnightblue" d="M636.219,-124.403C670.671,-113.108 730.885,-93.3656 765.811,-81.9143"/>
<polygon fill="midnightblue" stroke="midnightblue" points="766.954,-85.2229 775.366,-78.7816 764.773,-78.5713 766.954,-85.2229"/>
</g>
<!-- Node18&#45;&gt;Node3 -->
<g id="edge39" class="edge"><title>Node18&#45;&gt;Node3</title>
<path fill="none" stroke="midnightblue" d="M688.06,-184.251C745.199,-178.049 832.138,-165.383 857,-144 872.202,-130.925 878.519,-108.175 881.142,-91.9513"/>
<polygon fill="midnightblue" stroke="midnightblue" points="884.623,-92.3268 882.432,-81.961 877.68,-91.4307 884.623,-92.3268"/>
</g>
<!-- Node18&#45;&gt;Node7 -->
<g id="edge37" class="edge"><title>Node18&#45;&gt;Node7</title>
<path fill="none" stroke="midnightblue" d="M617.664,-180.339C589.506,-167.215 533.754,-141.923 485,-124 438.968,-107.078 384.409,-91.0689 350.747,-81.6453"/>
<polygon fill="midnightblue" stroke="midnightblue" points="351.576,-78.243 341.004,-78.9385 349.702,-84.9876 351.576,-78.243"/>
</g>
<!-- Node18&#45;&gt;Node13 -->
<g id="edge38" class="edge"><title>Node18&#45;&gt;Node13</title>
<path fill="none" stroke="midnightblue" d="M641.241,-180.374C646.349,-171.556 653.924,-157.303 658,-144 662.633,-128.88 665.13,-111.282 666.471,-97.3888"/>
<polygon fill="midnightblue" stroke="midnightblue" points="669.981,-97.4136 667.316,-87.1592 663.004,-96.8368 669.981,-97.4136"/>
</g>
<!-- Node18&#45;&gt;Node15 -->
<g id="edge40" class="edge"><title>Node18&#45;&gt;Node15</title>
<path fill="none" stroke="midnightblue" d="M661.352,-180.444C688.269,-171.359 730.996,-156.939 761.087,-146.783"/>
<polygon fill="midnightblue" stroke="midnightblue" points="762.41,-150.031 770.766,-143.516 760.172,-143.398 762.41,-150.031"/>
</g>
<!-- Node18&#45;&gt;Node16 -->
<g id="edge41" class="edge"><title>Node18&#45;&gt;Node16</title>
<path fill="none" stroke="midnightblue" d="M631.707,-180.083C628.148,-172.691 622.978,-161.953 618.576,-152.811"/>
<polygon fill="midnightblue" stroke="midnightblue" points="621.705,-151.243 614.213,-143.751 615.398,-154.279 621.705,-151.243"/>
</g>
<!-- Node19&#45;&gt;Node7 -->
<g id="edge46" class="edge"><title>Node19&#45;&gt;Node7</title>
<path fill="none" stroke="midnightblue" d="M914.367,-242.697C783.606,-235.905 443.628,-211.987 357,-144 340.2,-130.815 329.92,-108.087 324.36,-91.8978"/>
<polygon fill="midnightblue" stroke="midnightblue" points="327.568,-90.4315 321.242,-81.9324 320.887,-92.5213 327.568,-90.4315"/>
</g>
<!-- Node19&#45;&gt;Node17 -->
<g id="edge47" class="edge"><title>Node19&#45;&gt;Node17</title>
<path fill="none" stroke="midnightblue" d="M959.047,-236.345C942.41,-215.852 898.586,-163.146 857,-124 843.215,-111.024 826.441,-97.7389 813.524,-87.982"/>
<polygon fill="midnightblue" stroke="midnightblue" points="815.392,-85.0086 805.282,-81.8381 811.208,-90.6208 815.392,-85.0086"/>
</g>
<!-- Node20 -->
<g id="node20" class="node"><title>Node20</title>
<polygon fill="white" stroke="#bfbfbf" points="1007.5,-180.5 1007.5,-199.5 1052.5,-199.5 1052.5,-180.5 1007.5,-180.5"/>
<text text-anchor="middle" x="1030" y="-187.5" font-family="Helvetica,sans-Serif" font-size="10.00">cstdlib</text>
</g>
<!-- Node19&#45;&gt;Node20 -->
<g id="edge44" class="edge"><title>Node19&#45;&gt;Node20</title>
<path fill="none" stroke="midnightblue" d="M976.283,-236.324C985.836,-228.263 1000.28,-216.077 1011.78,-206.369"/>
<polygon fill="midnightblue" stroke="midnightblue" points="1014.14,-208.958 1019.53,-199.834 1009.63,-203.608 1014.14,-208.958"/>
</g>
<!-- Node21 -->
<g id="node21" class="node"><title>Node21</title>
<polygon fill="white" stroke="#bfbfbf" points="942.5,-180.5 942.5,-199.5 989.5,-199.5 989.5,-180.5 942.5,-180.5"/>
<text text-anchor="middle" x="966" y="-187.5" font-family="Helvetica,sans-Serif" font-size="10.00">math.h</text>
</g>
<!-- Node19&#45;&gt;Node21 -->
<g id="edge45" class="edge"><title>Node19&#45;&gt;Node21</title>
<path fill="none" stroke="midnightblue" d="M966,-236.083C966,-229.006 966,-218.861 966,-209.986"/>
<polygon fill="midnightblue" stroke="midnightblue" points="969.5,-209.751 966,-199.751 962.5,-209.751 969.5,-209.751"/>
</g>
</g>
</svg>
