<?xml version="1.0" encoding="UTF-8" standalone="no"?>
<!DOCTYPE svg PUBLIC "-//W3C//DTD SVG 1.1//EN"
 "http://www.w3.org/Graphics/SVG/1.1/DTD/svg11.dtd">
<!-- Generated by graphviz version 2.36.0 (20140111.2315)
 -->
<!-- Title: /home/travis/build/ComPWA/ComPWA/Core/DataPoint.cpp Pages: 1 -->
<svg width="1047pt" height="342pt"
 viewBox="0.00 0.00 1046.91 342.00" xmlns="http://www.w3.org/2000/svg" xmlns:xlink="http://www.w3.org/1999/xlink">
<g id="graph0" class="graph" transform="scale(1 1) rotate(0) translate(4 338)">
<title>/home/travis/build/ComPWA/ComPWA/Core/DataPoint.cpp</title>
<polygon fill="white" stroke="none" points="-4,4 -4,-338 1042.91,-338 1042.91,4 -4,4"/>
<!-- Node1 -->
<g id="node1" class="node"><title>Node1</title>
<polygon fill="#bfbfbf" stroke="black" points="416.413,-292.5 416.413,-333.5 551.413,-333.5 551.413,-292.5 416.413,-292.5"/>
<text text-anchor="start" x="424.413" y="-321.5" font-family="Helvetica,sans-Serif" font-size="10.00">/home/travis/build</text>
<text text-anchor="start" x="424.413" y="-310.5" font-family="Helvetica,sans-Serif" font-size="10.00">/ComPWA/ComPWA/Core</text>
<text text-anchor="middle" x="483.913" y="-299.5" font-family="Helvetica,sans-Serif" font-size="10.00">/DataPoint.cpp</text>
</g>
<!-- Node2 -->
<g id="node2" class="node"><title>Node2</title>
<polygon fill="white" stroke="#bfbfbf" points="555.913,-62.5 555.913,-81.5 611.913,-81.5 611.913,-62.5 555.913,-62.5"/>
<text text-anchor="middle" x="583.913" y="-69.5" font-family="Helvetica,sans-Serif" font-size="10.00">algorithm</text>
</g>
<!-- Node1&#45;&gt;Node2 -->
<g id="edge1" class="edge"><title>Node1&#45;&gt;Node2</title>
<path fill="none" stroke="midnightblue" d="M492.097,-292.442C511.058,-247.125 557.784,-135.449 576.238,-91.3444"/>
<polygon fill="midnightblue" stroke="midnightblue" points="579.563,-92.464 580.194,-81.888 573.106,-89.7621 579.563,-92.464"/>
</g>
<!-- Node3 -->
<g id="node3" class="node"><title>Node3</title>
<g id="a_node3"><a xlink:href="../../d2/de9/Exceptions_8hpp.html" target="_top" xlink:title="This class defines the ComPWA exception base&#45;class and provides a set of standard exceptions...">
<polygon fill="white" stroke="black" points="86.9132,-62.5 86.9132,-81.5 194.913,-81.5 194.913,-62.5 86.9132,-62.5"/>
<text text-anchor="middle" x="140.913" y="-69.5" font-family="Helvetica,sans-Serif" font-size="10.00">Core/Exceptions.hpp</text>
</a>
</g>
</g>
<!-- Node1&#45;&gt;Node3 -->
<g id="edge2" class="edge"><title>Node1&#45;&gt;Node3</title>
<path fill="none" stroke="midnightblue" d="M416.334,-305.217C326.465,-292.026 171.877,-253.735 110.913,-144 100.917,-126.008 113.763,-104.005 125.611,-89.3066"/>
<polygon fill="midnightblue" stroke="midnightblue" points="128.397,-91.4352 132.291,-81.5819 123.103,-86.8563 128.397,-91.4352"/>
</g>
<!-- Node6 -->
<g id="node6" class="node"><title>Node6</title>
<g id="a_node6"><a xlink:href="../../d4/d37/Kinematics_8hpp.html" target="_top" xlink:title="Core/Kinematics.hpp">
<polygon fill="white" stroke="black" points="388.913,-236.5 388.913,-255.5 496.913,-255.5 496.913,-236.5 388.913,-236.5"/>
<text text-anchor="middle" x="442.913" y="-243.5" font-family="Helvetica,sans-Serif" font-size="10.00">Core/Kinematics.hpp</text>
</a>
</g>
</g>
<!-- Node1&#45;&gt;Node6 -->
<g id="edge5" class="edge"><title>Node1&#45;&gt;Node6</title>
<path fill="none" stroke="midnightblue" d="M471.612,-292.498C465.93,-283.49 459.243,-272.888 453.753,-264.185"/>
<polygon fill="midnightblue" stroke="midnightblue" points="456.666,-262.243 448.371,-255.652 450.746,-265.978 456.666,-262.243"/>
</g>
<!-- Node18 -->
<g id="node18" class="node"><title>Node18</title>
<g id="a_node18"><a xlink:href="../../d8/dd4/DataPoint_8hpp.html" target="_top" xlink:title="dataPoint stores kinematic information of a dalitz plot ">
<polygon fill="white" stroke="black" points="853.413,-180.5 853.413,-199.5 956.413,-199.5 956.413,-180.5 853.413,-180.5"/>
<text text-anchor="middle" x="904.913" y="-187.5" font-family="Helvetica,sans-Serif" font-size="10.00">Core/DataPoint.hpp</text>
</a>
</g>
</g>
<!-- Node1&#45;&gt;Node18 -->
<g id="edge42" class="edge"><title>Node1&#45;&gt;Node18</title>
<path fill="none" stroke="midnightblue" d="M551.554,-292.559C640.17,-267.09 792.742,-223.239 864.888,-202.504"/>
<polygon fill="midnightblue" stroke="midnightblue" points="866.287,-205.743 874.931,-199.617 864.354,-199.016 866.287,-205.743"/>
</g>
<!-- Node4 -->
<g id="node4" class="node"><title>Node4</title>
<polygon fill="white" stroke="#bfbfbf" points="111.413,-0.5 111.413,-19.5 170.413,-19.5 170.413,-0.5 111.413,-0.5"/>
<text text-anchor="middle" x="140.913" y="-7.5" font-family="Helvetica,sans-Serif" font-size="10.00">exception</text>
</g>
<!-- Node3&#45;&gt;Node4 -->
<g id="edge3" class="edge"><title>Node3&#45;&gt;Node4</title>
<path fill="none" stroke="midnightblue" d="M140.913,-62.4035C140.913,-53.9381 140.913,-40.7283 140.913,-29.8199"/>
<polygon fill="midnightblue" stroke="midnightblue" points="144.413,-29.5806 140.913,-19.5806 137.413,-29.5806 144.413,-29.5806"/>
</g>
<!-- Node5 -->
<g id="node5" class="node"><title>Node5</title>
<polygon fill="white" stroke="#bfbfbf" points="202.413,-0.5 202.413,-19.5 243.413,-19.5 243.413,-0.5 202.413,-0.5"/>
<text text-anchor="middle" x="222.913" y="-7.5" font-family="Helvetica,sans-Serif" font-size="10.00">string</text>
</g>
<!-- Node3&#45;&gt;Node5 -->
<g id="edge4" class="edge"><title>Node3&#45;&gt;Node5</title>
<path fill="none" stroke="midnightblue" d="M152.662,-62.4035C165.814,-52.7797 187.347,-37.0242 203.112,-25.4891"/>
<polygon fill="midnightblue" stroke="midnightblue" points="205.183,-28.3103 211.186,-19.5806 201.049,-22.6611 205.183,-28.3103"/>
</g>
<!-- Node6&#45;&gt;Node5 -->
<g id="edge7" class="edge"><title>Node6&#45;&gt;Node5</title>
<path fill="none" stroke="midnightblue" d="M388.769,-244.304C329.237,-241.8 231.83,-232.5 154.913,-200 78.6015,-167.755 42.9227,-162.118 5.91325,-88 -0.440301,-75.2758 -3.0645,-67.0305 5.91325,-56 6.28377,-55.5448 132.352,-29.6005 192.139,-17.3179"/>
<polygon fill="midnightblue" stroke="midnightblue" points="193.058,-20.7022 202.15,-15.2617 191.65,-13.8454 193.058,-20.7022"/>
</g>
<!-- Node7 -->
<g id="node7" class="node"><title>Node7</title>
<polygon fill="white" stroke="#bfbfbf" points="688.913,-62.5 688.913,-81.5 732.913,-81.5 732.913,-62.5 688.913,-62.5"/>
<text text-anchor="middle" x="710.913" y="-69.5" font-family="Helvetica,sans-Serif" font-size="10.00">vector</text>
</g>
<!-- Node6&#45;&gt;Node7 -->
<g id="edge6" class="edge"><title>Node6&#45;&gt;Node7</title>
<path fill="none" stroke="midnightblue" d="M497.16,-244.447C548.995,-241.822 627.899,-232.213 687.913,-200 718.378,-183.648 728.973,-176.062 741.913,-144 749.5,-125.202 737.408,-103.928 726.18,-89.6097"/>
<polygon fill="midnightblue" stroke="midnightblue" points="728.608,-87.061 719.483,-81.6777 723.26,-91.5766 728.608,-87.061"/>
</g>
<!-- Node8 -->
<g id="node8" class="node"><title>Node8</title>
<polygon fill="white" stroke="#bfbfbf" points="15.4132,-62.5 15.4132,-81.5 68.4132,-81.5 68.4132,-62.5 15.4132,-62.5"/>
<text text-anchor="middle" x="41.9132" y="-69.5" font-family="Helvetica,sans-Serif" font-size="10.00">complex</text>
</g>
<!-- Node6&#45;&gt;Node8 -->
<g id="edge8" class="edge"><title>Node6&#45;&gt;Node8</title>
<path fill="none" stroke="midnightblue" d="M388.466,-240.705C338.353,-235.408 262.663,-223.967 200.913,-200 156.994,-182.954 147.601,-173.555 110.913,-144 90.1012,-127.234 69.1168,-104.643 55.8467,-89.4876"/>
<polygon fill="midnightblue" stroke="midnightblue" points="58.1636,-86.8147 48.9845,-81.5237 52.8607,-91.3841 58.1636,-86.8147"/>
</g>
<!-- Node9 -->
<g id="node9" class="node"><title>Node9</title>
<g id="a_node9"><a xlink:href="../../df/d7d/Event_8hpp.html" target="_top" xlink:title="This class provides a internal container for event&#45;based information. ">
<polygon fill="white" stroke="black" points="594.413,-180.5 594.413,-199.5 679.413,-199.5 679.413,-180.5 594.413,-180.5"/>
<text text-anchor="middle" x="636.913" y="-187.5" font-family="Helvetica,sans-Serif" font-size="10.00">Core/Event.hpp</text>
</a>
</g>
</g>
<!-- Node6&#45;&gt;Node9 -->
<g id="edge9" class="edge"><title>Node6&#45;&gt;Node9</title>
<path fill="none" stroke="midnightblue" d="M473.653,-236.444C506.857,-227.201 559.904,-212.436 596.471,-202.257"/>
<polygon fill="midnightblue" stroke="midnightblue" points="597.622,-205.57 606.317,-199.516 595.745,-198.826 597.622,-205.57"/>
</g>
<!-- Node12 -->
<g id="node12" class="node"><title>Node12</title>
<g id="a_node12"><a xlink:href="../../dd/df5/SubSystem_8hpp.html" target="_top" xlink:title="Contains SubSystem class. ">
<polygon fill="white" stroke="black" points="288.913,-124.5 288.913,-143.5 398.913,-143.5 398.913,-124.5 288.913,-124.5"/>
<text text-anchor="middle" x="343.913" y="-131.5" font-family="Helvetica,sans-Serif" font-size="10.00">Core/SubSystem.hpp</text>
</a>
</g>
</g>
<!-- Node6&#45;&gt;Node12 -->
<g id="edge17" class="edge"><title>Node6&#45;&gt;Node12</title>
<path fill="none" stroke="midnightblue" d="M435.145,-236.368C418.59,-217.974 379.617,-174.671 358.36,-151.052"/>
<polygon fill="midnightblue" stroke="midnightblue" points="360.937,-148.683 351.646,-143.591 355.734,-153.366 360.937,-148.683"/>
</g>
<!-- Node14 -->
<g id="node14" class="node"><title>Node14</title>
<g id="a_node14"><a xlink:href="../../dc/ded/Properties_8hpp.html" target="_top" xlink:title="Core/Properties.hpp">
<polygon fill="white" stroke="black" points="209.913,-180.5 209.913,-199.5 313.913,-199.5 313.913,-180.5 209.913,-180.5"/>
<text text-anchor="middle" x="261.913" y="-187.5" font-family="Helvetica,sans-Serif" font-size="10.00">Core/Properties.hpp</text>
</a>
</g>
</g>
<!-- Node6&#45;&gt;Node14 -->
<g id="edge20" class="edge"><title>Node6&#45;&gt;Node14</title>
<path fill="none" stroke="midnightblue" d="M414.233,-236.444C383.386,-227.241 334.185,-212.562 300.084,-202.388"/>
<polygon fill="midnightblue" stroke="midnightblue" points="301.042,-199.021 290.459,-199.516 299.041,-205.729 301.042,-199.021"/>
</g>
<!-- Node16 -->
<g id="node16" class="node"><title>Node16</title>
<g id="a_node16"><a xlink:href="../../d9/dfb/Spin_8hpp.html" target="_top" xlink:title="Core/Spin.hpp">
<polygon fill="white" stroke="black" points="417.413,-124.5 417.413,-143.5 496.413,-143.5 496.413,-124.5 417.413,-124.5"/>
<text text-anchor="middle" x="456.913" y="-131.5" font-family="Helvetica,sans-Serif" font-size="10.00">Core/Spin.hpp</text>
</a>
</g>
</g>
<!-- Node6&#45;&gt;Node16 -->
<g id="edge36" class="edge"><title>Node6&#45;&gt;Node16</title>
<path fill="none" stroke="midnightblue" d="M444.012,-236.368C446.271,-218.617 451.483,-177.666 454.546,-153.597"/>
<polygon fill="midnightblue" stroke="midnightblue" points="458.029,-153.953 455.82,-143.591 451.085,-153.069 458.029,-153.953"/>
</g>
<!-- Node6&#45;&gt;Node18 -->
<g id="edge37" class="edge"><title>Node6&#45;&gt;Node18</title>
<path fill="none" stroke="midnightblue" d="M497.084,-239.232C573.394,-231.019 716.873,-215.253 838.913,-200 840.383,-199.816 841.872,-199.628 843.373,-199.437"/>
<polygon fill="midnightblue" stroke="midnightblue" points="843.938,-202.893 853.405,-198.137 843.038,-195.951 843.938,-202.893"/>
</g>
<!-- Node9&#45;&gt;Node5 -->
<g id="edge11" class="edge"><title>Node9&#45;&gt;Node5</title>
<path fill="none" stroke="midnightblue" d="M679.466,-182.254C702.098,-176.267 728.048,-165.028 741.913,-144 752.749,-127.567 776.294,-94.0228 740.913,-56 707.621,-20.2214 359.961,-12.7732 253.635,-11.3275"/>
<polygon fill="midnightblue" stroke="midnightblue" points="253.601,-7.82687 243.557,-11.1989 253.511,-14.8263 253.601,-7.82687"/>
</g>
<!-- Node9&#45;&gt;Node7 -->
<g id="edge10" class="edge"><title>Node9&#45;&gt;Node7</title>
<path fill="none" stroke="midnightblue" d="M672.765,-180.397C691.794,-173.81 713.54,-162.589 724.913,-144 734.822,-127.804 728.153,-105.987 721.026,-90.8298"/>
<polygon fill="midnightblue" stroke="midnightblue" points="723.926,-88.8188 716.217,-81.5512 717.711,-92.0402 723.926,-88.8188"/>
</g>
<!-- Node10 -->
<g id="node10" class="node"><title>Node10</title>
<polygon fill="white" stroke="#bfbfbf" points="456.913,-62.5 456.913,-81.5 510.913,-81.5 510.913,-62.5 456.913,-62.5"/>
<text text-anchor="middle" x="483.913" y="-69.5" font-family="Helvetica,sans-Serif" font-size="10.00">iostream</text>
</g>
<!-- Node9&#45;&gt;Node10 -->
<g id="edge12" class="edge"><title>Node9&#45;&gt;Node10</title>
<path fill="none" stroke="midnightblue" d="M625.413,-180.281C599.369,-160.535 535.64,-112.218 503.348,-87.7346"/>
<polygon fill="midnightblue" stroke="midnightblue" points="505.214,-84.7574 495.131,-81.5048 500.985,-90.3354 505.214,-84.7574"/>
</g>
<!-- Node11 -->
<g id="node11" class="node"><title>Node11</title>
<g id="a_node11"><a xlink:href="../../d3/d65/Particle_8hpp.html" target="_top" xlink:title="This class provides a internal container for information of a particle. ">
<polygon fill="white" stroke="red" points="590.913,-124.5 590.913,-143.5 682.913,-143.5 682.913,-124.5 590.913,-124.5"/>
<text text-anchor="middle" x="636.913" y="-131.5" font-family="Helvetica,sans-Serif" font-size="10.00">Core/Particle.hpp</text>
</a>
</g>
</g>
<!-- Node9&#45;&gt;Node11 -->
<g id="edge13" class="edge"><title>Node9&#45;&gt;Node11</title>
<path fill="none" stroke="midnightblue" d="M636.913,-180.083C636.913,-173.006 636.913,-162.861 636.913,-153.986"/>
<polygon fill="midnightblue" stroke="midnightblue" points="640.413,-153.751 636.913,-143.751 633.413,-153.751 640.413,-153.751"/>
</g>
<!-- Node11&#45;&gt;Node2 -->
<g id="edge15" class="edge"><title>Node11&#45;&gt;Node2</title>
<path fill="none" stroke="midnightblue" d="M629.32,-124.403C621.212,-115.225 608.178,-100.47 598.15,-89.1173"/>
<polygon fill="midnightblue" stroke="midnightblue" points="600.736,-86.7582 591.493,-81.5806 595.49,-91.3925 600.736,-86.7582"/>
</g>
<!-- Node11&#45;&gt;Node7 -->
<g id="edge14" class="edge"><title>Node11&#45;&gt;Node7</title>
<path fill="none" stroke="midnightblue" d="M647.516,-124.403C659.165,-114.958 678.1,-99.6056 692.248,-88.1342"/>
<polygon fill="midnightblue" stroke="midnightblue" points="694.767,-90.5973 700.331,-81.5806 690.359,-85.16 694.767,-90.5973"/>
</g>
<!-- Node11&#45;&gt;Node10 -->
<g id="edge16" class="edge"><title>Node11&#45;&gt;Node10</title>
<path fill="none" stroke="midnightblue" d="M614.992,-124.403C588.861,-114.156 545.001,-96.9561 515.284,-85.3021"/>
<polygon fill="midnightblue" stroke="midnightblue" points="516.381,-81.9731 505.794,-81.5806 513.826,-88.4899 516.381,-81.9731"/>
</g>
<!-- Node12&#45;&gt;Node7 -->
<g id="edge18" class="edge"><title>Node12&#45;&gt;Node7</title>
<path fill="none" stroke="midnightblue" d="M396.315,-124.484C451.836,-115.455 542.06,-100.763 619.913,-88 639.41,-84.8037 661.253,-81.2038 678.651,-78.332"/>
<polygon fill="midnightblue" stroke="midnightblue" points="679.553,-81.7306 688.849,-76.648 678.412,-74.8241 679.553,-81.7306"/>
</g>
<!-- Node13 -->
<g id="node13" class="node"><title>Node13</title>
<polygon fill="white" stroke="#bfbfbf" points="251.413,-57 251.413,-87 352.413,-87 352.413,-57 251.413,-57"/>
<text text-anchor="start" x="259.413" y="-75" font-family="Helvetica,sans-Serif" font-size="10.00">boost/property_tree</text>
<text text-anchor="middle" x="301.913" y="-64" font-family="Helvetica,sans-Serif" font-size="10.00">/ptree.hpp</text>
</g>
<!-- Node12&#45;&gt;Node13 -->
<g id="edge19" class="edge"><title>Node12&#45;&gt;Node13</title>
<path fill="none" stroke="midnightblue" d="M337.896,-124.403C332.633,-116.885 324.75,-105.624 317.703,-95.5565"/>
<polygon fill="midnightblue" stroke="midnightblue" points="320.414,-93.326 311.812,-87.1408 314.679,-97.3403 320.414,-93.326"/>
</g>
<!-- Node14&#45;&gt;Node3 -->
<g id="edge23" class="edge"><title>Node14&#45;&gt;Node3</title>
<path fill="none" stroke="midnightblue" d="M209.849,-187.132C178.331,-182.98 140.384,-171.961 119.913,-144 108.217,-128.024 118.198,-105.569 128.005,-90.216"/>
<polygon fill="midnightblue" stroke="midnightblue" points="131.088,-91.9119 133.894,-81.6953 125.329,-87.9322 131.088,-91.9119"/>
</g>
<!-- Node14&#45;&gt;Node7 -->
<g id="edge21" class="edge"><title>Node14&#45;&gt;Node7</title>
<path fill="none" stroke="midnightblue" d="M314.187,-186.814C422.492,-181.818 663.695,-168.098 691.913,-144 706.893,-131.208 710.715,-108.025 711.39,-91.6352"/>
<polygon fill="midnightblue" stroke="midnightblue" points="714.89,-91.6063 711.452,-81.5848 707.89,-91.5629 714.89,-91.6063"/>
</g>
<!-- Node14&#45;&gt;Node13 -->
<g id="edge22" class="edge"><title>Node14&#45;&gt;Node13</title>
<path fill="none" stroke="midnightblue" d="M263.879,-180.471C266.856,-167.938 272.91,-143.879 279.913,-124 283.137,-114.848 287.226,-105.011 291.001,-96.442"/>
<polygon fill="midnightblue" stroke="midnightblue" points="294.302,-97.6366 295.219,-87.0815 287.92,-94.761 294.302,-97.6366"/>
</g>
<!-- Node15 -->
<g id="node15" class="node"><title>Node15</title>
<g id="a_node15"><a xlink:href="../../db/dce/Parameter_8hpp.html" target="_top" xlink:title="This class implements some internal container of parameters. ">
<polygon fill="white" stroke="red" points="128.913,-124.5 128.913,-143.5 232.913,-143.5 232.913,-124.5 128.913,-124.5"/>
<text text-anchor="middle" x="180.913" y="-131.5" font-family="Helvetica,sans-Serif" font-size="10.00">Core/Parameter.hpp</text>
</a>
</g>
</g>
<!-- Node14&#45;&gt;Node15 -->
<g id="edge24" class="edge"><title>Node14&#45;&gt;Node15</title>
<path fill="none" stroke="midnightblue" d="M248.899,-180.324C236.382,-171.979 217.232,-159.212 202.442,-149.352"/>
<polygon fill="midnightblue" stroke="midnightblue" points="204.157,-146.289 193.895,-143.655 200.274,-152.114 204.157,-146.289"/>
</g>
<!-- Node14&#45;&gt;Node16 -->
<g id="edge30" class="edge"><title>Node14&#45;&gt;Node16</title>
<path fill="none" stroke="midnightblue" d="M292.812,-180.444C326.187,-171.201 379.507,-156.436 416.262,-146.257"/>
<polygon fill="midnightblue" stroke="midnightblue" points="417.456,-149.558 426.159,-143.516 415.588,-142.812 417.456,-149.558"/>
</g>
<!-- Node15&#45;&gt;Node3 -->
<g id="edge29" class="edge"><title>Node15&#45;&gt;Node3</title>
<path fill="none" stroke="midnightblue" d="M175.182,-124.403C169.242,-115.493 159.796,-101.325 152.325,-90.1177"/>
<polygon fill="midnightblue" stroke="midnightblue" points="155.093,-87.9596 146.634,-81.5806 149.269,-91.8426 155.093,-87.9596"/>
</g>
<!-- Node15&#45;&gt;Node5 -->
<g id="edge26" class="edge"><title>Node15&#45;&gt;Node5</title>
<path fill="none" stroke="midnightblue" d="M186.12,-124.31C191.247,-115.442 199.005,-101.152 203.913,-88 211.119,-68.6925 216.394,-45.6412 219.532,-29.8234"/>
<polygon fill="midnightblue" stroke="midnightblue" points="223.02,-30.217 221.437,-19.7411 216.141,-28.9175 223.02,-30.217"/>
</g>
<!-- Node15&#45;&gt;Node8 -->
<g id="edge27" class="edge"><title>Node15&#45;&gt;Node8</title>
<path fill="none" stroke="midnightblue" d="M160.998,-124.403C137.464,-114.245 98.1032,-97.2547 71.1204,-85.6074"/>
<polygon fill="midnightblue" stroke="midnightblue" points="72.3599,-82.3303 61.7916,-81.5806 69.5857,-88.7572 72.3599,-82.3303"/>
</g>
<!-- Node15&#45;&gt;Node10 -->
<g id="edge25" class="edge"><title>Node15&#45;&gt;Node10</title>
<path fill="none" stroke="midnightblue" d="M224.004,-124.467C283.683,-112.65 390.492,-91.4992 446.812,-80.3468"/>
<polygon fill="midnightblue" stroke="midnightblue" points="447.588,-83.7612 456.718,-78.3853 446.228,-76.8945 447.588,-83.7612"/>
</g>
<!-- Node15&#45;&gt;Node13 -->
<g id="edge28" class="edge"><title>Node15&#45;&gt;Node13</title>
<path fill="none" stroke="midnightblue" d="M198.25,-124.403C215.403,-115.898 242.216,-102.602 264.275,-91.6635"/>
<polygon fill="midnightblue" stroke="midnightblue" points="265.992,-94.719 273.396,-87.1408 262.882,-88.4477 265.992,-94.719"/>
</g>
<!-- Node16&#45;&gt;Node3 -->
<g id="edge35" class="edge"><title>Node16&#45;&gt;Node3</title>
<path fill="none" stroke="midnightblue" d="M417.212,-125.462C361.312,-114.848 259.186,-95.4569 195.978,-83.4553"/>
<polygon fill="midnightblue" stroke="midnightblue" points="196.275,-79.9493 185.798,-81.5224 194.969,-86.8264 196.275,-79.9493"/>
</g>
<!-- Node16&#45;&gt;Node5 -->
<g id="edge31" class="edge"><title>Node16&#45;&gt;Node5</title>
<path fill="none" stroke="midnightblue" d="M448.432,-124.382C432.582,-108.718 396.811,-75.4071 360.913,-56 326.165,-37.2145 282.231,-24.5627 253.388,-17.5761"/>
<polygon fill="midnightblue" stroke="midnightblue" points="254.025,-14.1304 243.49,-15.2576 252.428,-20.946 254.025,-14.1304"/>
</g>
<!-- Node16&#45;&gt;Node7 -->
<g id="edge33" class="edge"><title>Node16&#45;&gt;Node7</title>
<path fill="none" stroke="midnightblue" d="M493.036,-124.467C542.8,-112.712 631.657,-91.722 679.062,-80.524"/>
<polygon fill="midnightblue" stroke="midnightblue" points="679.868,-83.93 688.795,-78.2248 678.258,-77.1175 679.868,-83.93"/>
</g>
<!-- Node16&#45;&gt;Node10 -->
<g id="edge34" class="edge"><title>Node16&#45;&gt;Node10</title>
<path fill="none" stroke="midnightblue" d="M460.782,-124.403C464.711,-115.671 470.913,-101.889 475.906,-90.7936"/>
<polygon fill="midnightblue" stroke="midnightblue" points="479.14,-92.1361 480.052,-81.5806 472.757,-89.2635 479.14,-92.1361"/>
</g>
<!-- Node17 -->
<g id="node17" class="node"><title>Node17</title>
<polygon fill="white" stroke="#bfbfbf" points="849.413,-62.5 849.413,-81.5 884.413,-81.5 884.413,-62.5 849.413,-62.5"/>
<text text-anchor="middle" x="866.913" y="-69.5" font-family="Helvetica,sans-Serif" font-size="10.00">map</text>
</g>
<!-- Node16&#45;&gt;Node17 -->
<g id="edge32" class="edge"><title>Node16&#45;&gt;Node17</title>
<path fill="none" stroke="midnightblue" d="M496.598,-127.192C579.367,-115.08 768.597,-87.3877 839.454,-77.0184"/>
<polygon fill="midnightblue" stroke="midnightblue" points="840.012,-80.4741 849.4,-75.5629 838.999,-73.5479 840.012,-80.4741"/>
</g>
<!-- Node18&#45;&gt;Node7 -->
<g id="edge40" class="edge"><title>Node18&#45;&gt;Node7</title>
<path fill="none" stroke="midnightblue" d="M898.067,-180.307C886.946,-166.68 863.69,-140.179 838.913,-124 808.721,-104.285 769.704,-90.1047 742.723,-81.7768"/>
<polygon fill="midnightblue" stroke="midnightblue" points="743.599,-78.3856 733.016,-78.8722 741.593,-85.0919 743.599,-78.3856"/>
</g>
<!-- Node18&#45;&gt;Node17 -->
<g id="edge41" class="edge"><title>Node18&#45;&gt;Node17</title>
<path fill="none" stroke="midnightblue" d="M902.057,-180.281C895.893,-161.463 881.228,-116.697 872.921,-91.3399"/>
<polygon fill="midnightblue" stroke="midnightblue" points="876.139,-89.9183 869.699,-81.5048 869.486,-92.0975 876.139,-89.9183"/>
</g>
<!-- Node19 -->
<g id="node19" class="node"><title>Node19</title>
<polygon fill="white" stroke="#bfbfbf" points="929.413,-124.5 929.413,-143.5 974.413,-143.5 974.413,-124.5 929.413,-124.5"/>
<text text-anchor="middle" x="951.913" y="-131.5" font-family="Helvetica,sans-Serif" font-size="10.00">cstdlib</text>
</g>
<!-- Node18&#45;&gt;Node19 -->
<g id="edge38" class="edge"><title>Node18&#45;&gt;Node19</title>
<path fill="none" stroke="midnightblue" d="M912.674,-180.083C919.45,-172.298 929.456,-160.801 937.668,-151.367"/>
<polygon fill="midnightblue" stroke="midnightblue" points="940.371,-153.592 944.297,-143.751 935.091,-148.996 940.371,-153.592"/>
</g>
<!-- Node20 -->
<g id="node20" class="node"><title>Node20</title>
<polygon fill="white" stroke="#bfbfbf" points="992.413,-124.5 992.413,-143.5 1039.41,-143.5 1039.41,-124.5 992.413,-124.5"/>
<text text-anchor="middle" x="1015.91" y="-131.5" font-family="Helvetica,sans-Serif" font-size="10.00">math.h</text>
</g>
<!-- Node18&#45;&gt;Node20 -->
<g id="edge39" class="edge"><title>Node18&#45;&gt;Node20</title>
<path fill="none" stroke="midnightblue" d="M922.747,-180.324C940.629,-171.625 968.388,-158.12 988.959,-148.113"/>
<polygon fill="midnightblue" stroke="midnightblue" points="990.662,-151.177 998.123,-143.655 987.6,-144.882 990.662,-151.177"/>
</g>
</g>
</svg>
