<?xml version="1.0" encoding="UTF-8" standalone="no"?>
<!DOCTYPE svg PUBLIC "-//W3C//DTD SVG 1.1//EN"
 "http://www.w3.org/Graphics/SVG/1.1/DTD/svg11.dtd">
<!-- Generated by graphviz version 2.26.3 (20100126.1600)
 -->
<!-- Title: G Pages: 1 -->
<svg width="1187pt" height="146pt"
 viewBox="0.00 0.00 1187.00 146.00" xmlns="http://www.w3.org/2000/svg" xmlns:xlink="http://www.w3.org/1999/xlink">
<g id="graph1" class="graph" transform="scale(1 1) rotate(0) translate(4 142)">
<title>G</title>
<polygon fill="white" stroke="white" points="-4,5 -4,-142 1184,-142 1184,5 -4,5"/>
<!-- Node1 -->
<g id="node1" class="node"><title>Node1</title>
<polygon fill="#bfbfbf" stroke="black" points="463,-116.5 463,-137.5 703,-137.5 703,-116.5 463,-116.5"/>
<text text-anchor="middle" x="583" y="-124.5" font-family="Helvetica,sans-Serif" font-size="10.00">Physics/AmplitudeSum/AmpSumOfAmplitudes.hpp</text>
</g>
<!-- Node2 -->
<g id="node3" class="node"><title>Node2</title>
<a xlink:href="../../db/dd9/AmpSumIntensity_8cpp.xhtml" target="_top" xlink:title="Physics/AmplitudeSum/AmpSumIntensity.cpp">
<polygon fill="white" stroke="black" points="0,-0.5 0,-21.5 218,-21.5 218,-0.5 0,-0.5"/>
<text text-anchor="middle" x="109" y="-8.5" font-family="Helvetica,sans-Serif" font-size="10.00">Physics/AmplitudeSum/AmpSumIntensity.cpp</text>
</a>
</g>
<!-- Node1&#45;&gt;Node2 -->
<g id="edge2" class="edge"><title>Node1&#45;&gt;Node2</title>
<path fill="none" stroke="midnightblue" d="M452.372,-116.179C365.587,-107.846 260.13,-95.1978 218,-80 179.868,-66.2443 141.168,-37.4474 121.766,-21.7549"/>
<polygon fill="midnightblue" stroke="midnightblue" points="452.302,-119.688 462.588,-117.148 452.963,-112.719 452.302,-119.688"/>
</g>
<!-- Node3 -->
<g id="node5" class="node"><title>Node3</title>
<a xlink:href="../../d0/d2a/AmpSumIntensity_8hpp.xhtml" target="_top" xlink:title="Physics/AmplitudeSum/AmpSumIntensity.hpp">
<polygon fill="white" stroke="black" points="227,-58.5 227,-79.5 445,-79.5 445,-58.5 227,-58.5"/>
<text text-anchor="middle" x="336" y="-66.5" font-family="Helvetica,sans-Serif" font-size="10.00">Physics/AmplitudeSum/AmpSumIntensity.hpp</text>
</a>
</g>
<!-- Node1&#45;&gt;Node3 -->
<g id="edge4" class="edge"><title>Node1&#45;&gt;Node3</title>
<path fill="none" stroke="midnightblue" d="M528.524,-114.208C484.174,-103.794 422.329,-89.2716 380.814,-79.5231"/>
<polygon fill="midnightblue" stroke="midnightblue" points="527.735,-117.618 538.27,-116.497 529.335,-110.803 527.735,-117.618"/>
</g>
<!-- Node7 -->
<g id="node14" class="node"><title>Node7</title>
<a xlink:href="../../d6/dfb/AmpSumOfAmplitudes_8cpp.xhtml" target="_top" xlink:title="Physics/AmplitudeSum/AmpSumOfAmplitudes.cpp">
<polygon fill="white" stroke="black" points="463,-58.5 463,-79.5 703,-79.5 703,-58.5 463,-58.5"/>
<text text-anchor="middle" x="583" y="-66.5" font-family="Helvetica,sans-Serif" font-size="10.00">Physics/AmplitudeSum/AmpSumOfAmplitudes.cpp</text>
</a>
</g>
<!-- Node1&#45;&gt;Node7 -->
<g id="edge14" class="edge"><title>Node1&#45;&gt;Node7</title>
<path fill="none" stroke="midnightblue" d="M583,-106.191C583,-97.1684 583,-86.9941 583,-79.5707"/>
<polygon fill="midnightblue" stroke="midnightblue" points="579.5,-106.362 583,-116.362 586.5,-106.362 579.5,-106.362"/>
</g>
<!-- Node8 -->
<g id="node16" class="node"><title>Node8</title>
<a xlink:href="../../dc/d4f/AmpSumSliceIntensity_8hpp.xhtml" target="_top" xlink:title="Physics/AmplitudeSum/AmpSumSliceIntensity.hpp">
<polygon fill="white" stroke="black" points="721,-58.5 721,-79.5 961,-79.5 961,-58.5 721,-58.5"/>
<text text-anchor="middle" x="841" y="-66.5" font-family="Helvetica,sans-Serif" font-size="10.00">Physics/AmplitudeSum/AmpSumSliceIntensity.hpp</text>
</a>
</g>
<!-- Node1&#45;&gt;Node8 -->
<g id="edge16" class="edge"><title>Node1&#45;&gt;Node8</title>
<path fill="none" stroke="midnightblue" d="M639.61,-114.274C685.956,-103.855 750.735,-89.2921 794.191,-79.5231"/>
<polygon fill="midnightblue" stroke="midnightblue" points="638.711,-110.888 629.722,-116.497 640.246,-117.718 638.711,-110.888"/>
</g>
<!-- Node9 -->
<g id="node18" class="node"><title>Node9</title>
<a xlink:href="../../d6/d5d/AmpSumTree_8hpp.xhtml" target="_top" xlink:title="Physics/AmplitudeSum/AmpSumTree.hpp">
<polygon fill="white" stroke="black" points="979,-58.5 979,-79.5 1179,-79.5 1179,-58.5 979,-58.5"/>
<text text-anchor="middle" x="1079" y="-66.5" font-family="Helvetica,sans-Serif" font-size="10.00">Physics/AmplitudeSum/AmpSumTree.hpp</text>
</a>
</g>
<!-- Node1&#45;&gt;Node9 -->
<g id="edge18" class="edge"><title>Node1&#45;&gt;Node9</title>
<path fill="none" stroke="midnightblue" d="M682.989,-115.308C772.53,-104.837 902.665,-89.6198 989.01,-79.5231"/>
<polygon fill="midnightblue" stroke="midnightblue" points="682.348,-111.859 672.822,-116.497 683.161,-118.811 682.348,-111.859"/>
</g>
<!-- Node3&#45;&gt;Node2 -->
<g id="edge6" class="edge"><title>Node3&#45;&gt;Node2</title>
<path fill="none" stroke="midnightblue" d="M285.162,-56.0107C244.46,-45.6109 188.098,-31.2102 150.185,-21.5231"/>
<polygon fill="midnightblue" stroke="midnightblue" points="284.337,-59.4121 294.892,-58.4966 286.07,-52.63 284.337,-59.4121"/>
</g>
<!-- Node4 -->
<g id="node8" class="node"><title>Node4</title>
<a xlink:href="../../de/d2f/Physics_2RootGenerator_2GenDalitzApp_8cpp.xhtml" target="_top" xlink:title="Physics/RootGenerator/GenDalitzApp.cpp">
<polygon fill="white" stroke="black" points="235.5,-0.5 235.5,-21.5 436.5,-21.5 436.5,-0.5 235.5,-0.5"/>
<text text-anchor="middle" x="336" y="-8.5" font-family="Helvetica,sans-Serif" font-size="10.00">Physics/RootGenerator/GenDalitzApp.cpp</text>
</a>
</g>
<!-- Node3&#45;&gt;Node4 -->
<g id="edge8" class="edge"><title>Node3&#45;&gt;Node4</title>
<path fill="none" stroke="midnightblue" d="M336,-48.1906C336,-39.1684 336,-28.9941 336,-21.5707"/>
<polygon fill="midnightblue" stroke="midnightblue" points="332.5,-48.3619 336,-58.3619 339.5,-48.3619 332.5,-48.3619"/>
</g>
<!-- Node5 -->
<g id="node10" class="node"><title>Node5</title>
<a xlink:href="../../da/d2a/DalitzFitApp_8cpp.xhtml" target="_top" xlink:title="Test&#45;Application for full fit with simple BW&#45;dalitz&#45;model.">
<polygon fill="white" stroke="black" points="453.5,-0.5 453.5,-21.5 562.5,-21.5 562.5,-0.5 453.5,-0.5"/>
<text text-anchor="middle" x="508" y="-8.5" font-family="Helvetica,sans-Serif" font-size="10.00">test/DalitzFitApp.cpp</text>
</a>
</g>
<!-- Node3&#45;&gt;Node5 -->
<g id="edge10" class="edge"><title>Node3&#45;&gt;Node5</title>
<path fill="none" stroke="midnightblue" d="M376.691,-55.2787C407.339,-44.9437 448.735,-30.9849 476.794,-21.5231"/>
<polygon fill="midnightblue" stroke="midnightblue" points="375.505,-51.9847 367.148,-58.4966 377.742,-58.6178 375.505,-51.9847"/>
</g>
<!-- Node6 -->
<g id="node12" class="node"><title>Node6</title>
<a xlink:href="../../d2/d52/test_2GenDalitzApp_8cpp.xhtml" target="_top" xlink:title="test/GenDalitzApp.cpp">
<polygon fill="white" stroke="black" points="580,-0.5 580,-21.5 696,-21.5 696,-0.5 580,-0.5"/>
<text text-anchor="middle" x="638" y="-8.5" font-family="Helvetica,sans-Serif" font-size="10.00">test/GenDalitzApp.cpp</text>
</a>
</g>
<!-- Node3&#45;&gt;Node6 -->
<g id="edge12" class="edge"><title>Node3&#45;&gt;Node6</title>
<path fill="none" stroke="midnightblue" d="M400.566,-56.5999C454.922,-46.1607 531.808,-31.3945 583.208,-21.5231"/>
<polygon fill="midnightblue" stroke="midnightblue" points="399.85,-53.1733 390.69,-58.4966 401.171,-60.0477 399.85,-53.1733"/>
</g>
</g>
</svg>
