<?xml version="1.0" encoding="UTF-8" standalone="no"?>
<!DOCTYPE svg PUBLIC "-//W3C//DTD SVG 1.1//EN"
 "http://www.w3.org/Graphics/SVG/1.1/DTD/svg11.dtd">
<!-- Generated by graphviz version 2.26.3 (20100126.1600)
 -->
<!-- Title: G Pages: 1 -->
<svg width="884pt" height="262pt"
 viewBox="0.00 0.00 884.00 262.00" xmlns="http://www.w3.org/2000/svg" xmlns:xlink="http://www.w3.org/1999/xlink">
<g id="graph1" class="graph" transform="scale(1 1) rotate(0) translate(4 258)">
<title>G</title>
<polygon fill="white" stroke="white" points="-4,5 -4,-258 881,-258 881,5 -4,5"/>
<!-- Node1 -->
<g id="node1" class="node"><title>Node1</title>
<polygon fill="#bfbfbf" stroke="black" points="589.5,-232.5 589.5,-253.5 798.5,-253.5 798.5,-232.5 589.5,-232.5"/>
<text text-anchor="middle" x="694" y="-240.5" font-family="Helvetica,sans-Serif" font-size="10.00">Physics/AmplitudeSum/AmpKinematics.cpp</text>
</g>
<!-- Node2 -->
<g id="node3" class="node"><title>Node2</title>
<a xlink:href="../../d6/d6b/AmpKinematics_8hpp.xhtml" target="_top" xlink:title="Physics/AmplitudeSum/AmpKinematics.hpp">
<polygon fill="white" stroke="black" points="376.5,-174.5 376.5,-195.5 585.5,-195.5 585.5,-174.5 376.5,-174.5"/>
<text text-anchor="middle" x="481" y="-182.5" font-family="Helvetica,sans-Serif" font-size="10.00">Physics/AmplitudeSum/AmpKinematics.hpp</text>
</a>
</g>
<!-- Node1&#45;&gt;Node2 -->
<g id="edge2" class="edge"><title>Node1&#45;&gt;Node2</title>
<path fill="none" stroke="midnightblue" d="M655.427,-232.497C620.101,-222.877 567.662,-208.598 529.509,-198.209"/>
<polygon fill="midnightblue" stroke="midnightblue" points="530.213,-194.773 519.645,-195.523 528.374,-201.528 530.213,-194.773"/>
</g>
<!-- Node17 -->
<g id="node36" class="node"><title>Node17</title>
<a xlink:href="../../d1/d72/DPKinematics_8hpp.xhtml" target="_top" xlink:title="DPKinematics stores kinematic information of a dalitz plot.">
<polygon fill="white" stroke="black" points="673.5,-116.5 673.5,-137.5 876.5,-137.5 876.5,-116.5 673.5,-116.5"/>
<text text-anchor="middle" x="775" y="-124.5" font-family="Helvetica,sans-Serif" font-size="10.00">Physics/DPKinematics/DPKinematics.hpp</text>
</a>
</g>
<!-- Node1&#45;&gt;Node17 -->
<g id="edge38" class="edge"><title>Node1&#45;&gt;Node17</title>
<path fill="none" stroke="midnightblue" d="M742.133,-232.426C761.719,-225.501 782.432,-214.219 794,-196 803.615,-180.856 796.342,-160.848 788.171,-146.278"/>
<polygon fill="midnightblue" stroke="midnightblue" points="791.055,-144.286 782.841,-137.595 785.09,-147.948 791.055,-144.286"/>
</g>
<!-- Node18 -->
<g id="node39" class="node"><title>Node18</title>
<a xlink:href="../../d8/dd4/DataPoint_8hpp.xhtml" target="_top" xlink:title="dataPoint stores kinematic information of a dalitz plot">
<polygon fill="white" stroke="black" points="602.5,-174.5 602.5,-195.5 785.5,-195.5 785.5,-174.5 602.5,-174.5"/>
<text text-anchor="middle" x="694" y="-182.5" font-family="Helvetica,sans-Serif" font-size="10.00">Physics/DPKinematics/DataPoint.hpp</text>
</a>
</g>
<!-- Node1&#45;&gt;Node18 -->
<g id="edge42" class="edge"><title>Node1&#45;&gt;Node18</title>
<path fill="none" stroke="midnightblue" d="M694,-232.362C694,-224.922 694,-214.743 694,-205.728"/>
<polygon fill="midnightblue" stroke="midnightblue" points="697.5,-205.571 694,-195.571 690.5,-205.571 697.5,-205.571"/>
</g>
<!-- Node3 -->
<g id="node5" class="node"><title>Node3</title>
<polygon fill="white" stroke="#bfbfbf" points="547.5,-116.5 547.5,-137.5 592.5,-137.5 592.5,-116.5 547.5,-116.5"/>
<text text-anchor="middle" x="570" y="-124.5" font-family="Helvetica,sans-Serif" font-size="10.00">cstdlib</text>
</g>
<!-- Node2&#45;&gt;Node3 -->
<g id="edge4" class="edge"><title>Node2&#45;&gt;Node3</title>
<path fill="none" stroke="midnightblue" d="M497.324,-174.362C510.748,-165.614 529.983,-153.079 545.293,-143.101"/>
<polygon fill="midnightblue" stroke="midnightblue" points="547.312,-145.963 553.78,-137.571 543.491,-140.098 547.312,-145.963"/>
</g>
<!-- Node4 -->
<g id="node7" class="node"><title>Node4</title>
<polygon fill="white" stroke="#bfbfbf" points="609.5,-116.5 609.5,-137.5 656.5,-137.5 656.5,-116.5 609.5,-116.5"/>
<text text-anchor="middle" x="633" y="-124.5" font-family="Helvetica,sans-Serif" font-size="10.00">math.h</text>
</g>
<!-- Node2&#45;&gt;Node4 -->
<g id="edge6" class="edge"><title>Node2&#45;&gt;Node4</title>
<path fill="none" stroke="midnightblue" d="M508.526,-174.497C534.127,-164.728 572.323,-150.153 599.646,-139.727"/>
<polygon fill="midnightblue" stroke="midnightblue" points="601.082,-142.926 609.177,-136.09 598.586,-136.385 601.082,-142.926"/>
</g>
<!-- Node5 -->
<g id="node9" class="node"><title>Node5</title>
<polygon fill="white" stroke="#bfbfbf" points="603,-58.5 603,-79.5 657,-79.5 657,-58.5 603,-58.5"/>
<text text-anchor="middle" x="630" y="-66.5" font-family="Helvetica,sans-Serif" font-size="10.00">iostream</text>
</g>
<!-- Node2&#45;&gt;Node5 -->
<g id="edge8" class="edge"><title>Node2&#45;&gt;Node5</title>
<path fill="none" stroke="midnightblue" d="M488.149,-174.034C498.139,-159.36 517.485,-133.196 539,-116 555.408,-102.886 576.049,-91.8678 593.523,-83.8028"/>
<polygon fill="midnightblue" stroke="midnightblue" points="595.156,-86.9068 602.858,-79.6316 592.3,-80.5158 595.156,-86.9068"/>
</g>
<!-- Node6 -->
<g id="node11" class="node"><title>Node6</title>
<a xlink:href="../../db/dce/Parameter_8hpp.xhtml" target="_top" xlink:title="This class implements some internal container of parameters.">
<polygon fill="white" stroke="black" points="388,-116.5 388,-137.5 492,-137.5 492,-116.5 388,-116.5"/>
<text text-anchor="middle" x="440" y="-124.5" font-family="Helvetica,sans-Serif" font-size="10.00">Core/Parameter.hpp</text>
</a>
</g>
<!-- Node2&#45;&gt;Node6 -->
<g id="edge10" class="edge"><title>Node2&#45;&gt;Node6</title>
<path fill="none" stroke="midnightblue" d="M473.48,-174.362C467.874,-166.431 460.068,-155.389 453.403,-145.961"/>
<polygon fill="midnightblue" stroke="midnightblue" points="456.103,-143.716 447.472,-137.571 450.387,-147.757 456.103,-143.716"/>
</g>
<!-- Node6&#45;&gt;Node5 -->
<g id="edge12" class="edge"><title>Node6&#45;&gt;Node5</title>
<path fill="none" stroke="midnightblue" d="M474.558,-116.457C503.758,-107.547 546.945,-94.3681 593.26,-80.2254"/>
<polygon fill="midnightblue" stroke="midnightblue" points="594.332,-83.5578 602.874,-77.2897 592.287,-76.863 594.332,-83.5578"/>
</g>
<!-- Node7 -->
<g id="node14" class="node"><title>Node7</title>
<polygon fill="white" stroke="#bfbfbf" points="337.5,-0.5 337.5,-21.5 378.5,-21.5 378.5,-0.5 337.5,-0.5"/>
<text text-anchor="middle" x="358" y="-8.5" font-family="Helvetica,sans-Serif" font-size="10.00">string</text>
</g>
<!-- Node6&#45;&gt;Node7 -->
<g id="edge14" class="edge"><title>Node6&#45;&gt;Node7</title>
<path fill="none" stroke="midnightblue" d="M387.717,-118.311C365.391,-111.73 341.426,-100.194 328,-80 317.481,-64.1779 328.6,-44.0604 340.164,-29.6364"/>
<polygon fill="midnightblue" stroke="midnightblue" points="342.978,-31.7333 346.865,-21.8771 337.68,-27.1583 342.978,-31.7333"/>
</g>
<!-- Node8 -->
<g id="node16" class="node"><title>Node8</title>
<polygon fill="white" stroke="#bfbfbf" points="463,-58.5 463,-79.5 515,-79.5 515,-58.5 463,-58.5"/>
<text text-anchor="middle" x="489" y="-66.5" font-family="Helvetica,sans-Serif" font-size="10.00">sstream</text>
</g>
<!-- Node6&#45;&gt;Node8 -->
<g id="edge16" class="edge"><title>Node6&#45;&gt;Node8</title>
<path fill="none" stroke="midnightblue" d="M448.987,-116.362C455.825,-108.268 465.402,-96.9318 473.472,-87.3796"/>
<polygon fill="midnightblue" stroke="midnightblue" points="476.29,-89.4683 480.07,-79.5707 470.942,-84.9508 476.29,-89.4683"/>
</g>
<!-- Node9 -->
<g id="node18" class="node"><title>Node9</title>
<polygon fill="white" stroke="#bfbfbf" points="532.5,-58.5 532.5,-79.5 585.5,-79.5 585.5,-58.5 532.5,-58.5"/>
<text text-anchor="middle" x="559" y="-66.5" font-family="Helvetica,sans-Serif" font-size="10.00">complex</text>
</g>
<!-- Node6&#45;&gt;Node9 -->
<g id="edge18" class="edge"><title>Node6&#45;&gt;Node9</title>
<path fill="none" stroke="midnightblue" d="M461.55,-116.497C480.136,-107.438 507.202,-94.2462 528.095,-84.0628"/>
<polygon fill="midnightblue" stroke="midnightblue" points="529.753,-87.1487 537.208,-79.6212 526.686,-80.8563 529.753,-87.1487"/>
</g>
<!-- Node10 -->
<g id="node20" class="node"><title>Node10</title>
<a xlink:href="../../d8/def/AbsParameter_8hpp.xhtml" target="_top" xlink:title="This class defines the internal container of a parameter.">
<polygon fill="white" stroke="black" points="129,-58.5 129,-79.5 251,-79.5 251,-58.5 129,-58.5"/>
<text text-anchor="middle" x="190" y="-66.5" font-family="Helvetica,sans-Serif" font-size="10.00">Core/AbsParameter.hpp</text>
</a>
</g>
<!-- Node6&#45;&gt;Node10 -->
<g id="edge20" class="edge"><title>Node6&#45;&gt;Node10</title>
<path fill="none" stroke="midnightblue" d="M394.727,-116.497C352.735,-106.755 290.141,-92.2328 245.228,-81.813"/>
<polygon fill="midnightblue" stroke="midnightblue" points="245.89,-78.3737 235.358,-79.5231 244.308,-85.1926 245.89,-78.3737"/>
</g>
<!-- Node15 -->
<g id="node31" class="node"><title>Node15</title>
<a xlink:href="../../d2/de9/Exceptions_8hpp.xhtml" target="_top" xlink:title="This class defines the ComPWA exception base&#45;class and provides a set of standard exceptions...">
<polygon fill="white" stroke="black" points="337,-58.5 337,-79.5 445,-79.5 445,-58.5 337,-58.5"/>
<text text-anchor="middle" x="391" y="-66.5" font-family="Helvetica,sans-Serif" font-size="10.00">Core/Exceptions.hpp</text>
</a>
</g>
<!-- Node6&#45;&gt;Node15 -->
<g id="edge32" class="edge"><title>Node6&#45;&gt;Node15</title>
<path fill="none" stroke="midnightblue" d="M431.013,-116.362C424.175,-108.268 414.598,-96.9318 406.528,-87.3796"/>
<polygon fill="midnightblue" stroke="midnightblue" points="409.058,-84.9508 399.93,-79.5707 403.71,-89.4683 409.058,-84.9508"/>
</g>
<!-- Node10&#45;&gt;Node7 -->
<g id="edge22" class="edge"><title>Node10&#45;&gt;Node7</title>
<path fill="none" stroke="midnightblue" d="M222.415,-58.4109C248.619,-49.7688 286.672,-37.0354 327.781,-22.3669"/>
<polygon fill="midnightblue" stroke="midnightblue" points="329.207,-25.574 337.439,-18.9049 326.845,-18.9845 329.207,-25.574"/>
</g>
<!-- Node11 -->
<g id="node23" class="node"><title>Node11</title>
<polygon fill="white" stroke="#bfbfbf" points="0,-0.5 0,-21.5 44,-21.5 44,-0.5 0,-0.5"/>
<text text-anchor="middle" x="22" y="-8.5" font-family="Helvetica,sans-Serif" font-size="10.00">vector</text>
</g>
<!-- Node10&#45;&gt;Node11 -->
<g id="edge24" class="edge"><title>Node10&#45;&gt;Node11</title>
<path fill="none" stroke="midnightblue" d="M158.954,-58.4528C133.119,-49.6531 95.139,-36.6639 53.5097,-22.1568"/>
<polygon fill="midnightblue" stroke="midnightblue" points="54.6002,-18.8305 44.0054,-18.8404 52.294,-25.4397 54.6002,-18.8305"/>
</g>
<!-- Node12 -->
<g id="node25" class="node"><title>Node12</title>
<polygon fill="white" stroke="#bfbfbf" points="62,-0.5 62,-21.5 114,-21.5 114,-0.5 62,-0.5"/>
<text text-anchor="middle" x="88" y="-8.5" font-family="Helvetica,sans-Serif" font-size="10.00">memory</text>
</g>
<!-- Node10&#45;&gt;Node12 -->
<g id="edge26" class="edge"><title>Node10&#45;&gt;Node12</title>
<path fill="none" stroke="midnightblue" d="M171.292,-58.3619C155.619,-49.4502 133.036,-36.6087 115.337,-26.5447"/>
<polygon fill="midnightblue" stroke="midnightblue" points="117.013,-23.4712 106.59,-21.5707 113.553,-29.5562 117.013,-23.4712"/>
</g>
<!-- Node13 -->
<g id="node27" class="node"><title>Node13</title>
<polygon fill="white" stroke="#bfbfbf" points="132,-0.5 132,-21.5 188,-21.5 188,-0.5 132,-0.5"/>
<text text-anchor="middle" x="160" y="-8.5" font-family="Helvetica,sans-Serif" font-size="10.00">algorithm</text>
</g>
<!-- Node10&#45;&gt;Node13 -->
<g id="edge28" class="edge"><title>Node10&#45;&gt;Node13</title>
<path fill="none" stroke="midnightblue" d="M184.498,-58.3619C180.48,-50.5949 174.919,-39.8426 170.11,-30.5458"/>
<polygon fill="midnightblue" stroke="midnightblue" points="173.171,-28.8448 165.468,-21.5707 166.953,-32.0608 173.171,-28.8448"/>
</g>
<!-- Node14 -->
<g id="node29" class="node"><title>Node14</title>
<a xlink:href="../../d9/d91/ParObserver_8hpp.xhtml" target="_top" xlink:title="For the use in the function tree, the observer pattern is used.">
<polygon fill="white" stroke="black" points="206,-0.5 206,-21.5 320,-21.5 320,-0.5 206,-0.5"/>
<text text-anchor="middle" x="263" y="-8.5" font-family="Helvetica,sans-Serif" font-size="10.00">Core/ParObserver.hpp</text>
</a>
</g>
<!-- Node10&#45;&gt;Node14 -->
<g id="edge30" class="edge"><title>Node10&#45;&gt;Node14</title>
<path fill="none" stroke="midnightblue" d="M203.389,-58.3619C214.091,-49.859 229.296,-37.7785 241.671,-27.9466"/>
<polygon fill="midnightblue" stroke="midnightblue" points="244.043,-30.5318 249.696,-21.5707 239.689,-25.0511 244.043,-30.5318"/>
</g>
<!-- Node15&#45;&gt;Node7 -->
<g id="edge36" class="edge"><title>Node15&#45;&gt;Node7</title>
<path fill="none" stroke="midnightblue" d="M384.947,-58.3619C380.528,-50.5949 374.41,-39.8426 369.121,-30.5458"/>
<polygon fill="midnightblue" stroke="midnightblue" points="372.002,-28.5315 364.014,-21.5707 365.918,-31.9932 372.002,-28.5315"/>
</g>
<!-- Node16 -->
<g id="node33" class="node"><title>Node16</title>
<polygon fill="white" stroke="#bfbfbf" points="395.5,-0.5 395.5,-21.5 454.5,-21.5 454.5,-0.5 395.5,-0.5"/>
<text text-anchor="middle" x="425" y="-8.5" font-family="Helvetica,sans-Serif" font-size="10.00">exception</text>
</g>
<!-- Node15&#45;&gt;Node16 -->
<g id="edge34" class="edge"><title>Node15&#45;&gt;Node16</title>
<path fill="none" stroke="midnightblue" d="M397.236,-58.3619C401.837,-50.5131 408.225,-39.6159 413.714,-30.2527"/>
<polygon fill="midnightblue" stroke="midnightblue" points="416.766,-31.9677 418.803,-21.5707 410.727,-28.4276 416.766,-31.9677"/>
</g>
<!-- Node17&#45;&gt;Node5 -->
<g id="edge40" class="edge"><title>Node17&#45;&gt;Node5</title>
<path fill="none" stroke="midnightblue" d="M748.742,-116.497C725.584,-107.234 691.625,-93.6499 665.948,-83.3793"/>
<polygon fill="midnightblue" stroke="midnightblue" points="667.138,-80.0855 656.553,-79.6212 664.538,-86.5849 667.138,-80.0855"/>
</g>
<!-- Node18&#45;&gt;Node3 -->
<g id="edge44" class="edge"><title>Node18&#45;&gt;Node3</title>
<path fill="none" stroke="midnightblue" d="M671.545,-174.497C652.09,-165.397 623.72,-152.127 601.909,-141.925"/>
<polygon fill="midnightblue" stroke="midnightblue" points="603.248,-138.688 592.707,-137.621 600.283,-145.028 603.248,-138.688"/>
</g>
<!-- Node18&#45;&gt;Node4 -->
<g id="edge46" class="edge"><title>Node18&#45;&gt;Node4</title>
<path fill="none" stroke="midnightblue" d="M682.812,-174.362C674.041,-166.023 661.651,-154.242 651.422,-144.516"/>
<polygon fill="midnightblue" stroke="midnightblue" points="653.776,-141.925 644.117,-137.571 648.953,-146.998 653.776,-141.925"/>
</g>
<!-- Node18&#45;&gt;Node17 -->
<g id="edge48" class="edge"><title>Node18&#45;&gt;Node17</title>
<path fill="none" stroke="midnightblue" d="M708.857,-174.362C720.846,-165.777 737.927,-153.546 751.728,-143.664"/>
<polygon fill="midnightblue" stroke="midnightblue" points="754.145,-146.238 760.238,-137.571 750.069,-140.547 754.145,-146.238"/>
</g>
</g>
</svg>
