<?xml version="1.0" encoding="UTF-8" standalone="no"?>
<!DOCTYPE svg PUBLIC "-//W3C//DTD SVG 1.1//EN"
 "http://www.w3.org/Graphics/SVG/1.1/DTD/svg11.dtd">
<!-- Generated by graphviz version 2.26.3 (20100126.1600)
 -->
<!-- Title: G Pages: 1 -->
<svg width="1219pt" height="320pt"
 viewBox="0.00 0.00 1219.00 320.00" xmlns="http://www.w3.org/2000/svg" xmlns:xlink="http://www.w3.org/1999/xlink">
<g id="graph1" class="graph" transform="scale(1 1) rotate(0) translate(4 316)">
<title>G</title>
<polygon fill="white" stroke="white" points="-4,5 -4,-316 1216,-316 1216,5 -4,5"/>
<!-- Node1 -->
<g id="node1" class="node"><title>Node1</title>
<polygon fill="#bfbfbf" stroke="black" points="668,-290.5 668,-311.5 908,-311.5 908,-290.5 668,-290.5"/>
<text text-anchor="middle" x="788" y="-298.5" font-family="Helvetica,sans-Serif" font-size="10.00">Physics/AmplitudeSum/AmpSumOfAmplitudes.hpp</text>
</g>
<!-- Node2 -->
<g id="node3" class="node"><title>Node2</title>
<a xlink:href="../../d3/d76/AmpAbsDynamicalFunction_8hpp.xhtml" target="_top" xlink:title="Physics/AmplitudeSum/AmpAbsDynamicalFunction.hpp">
<polygon fill="white" stroke="black" points="197,-174.5 197,-195.5 459,-195.5 459,-174.5 197,-174.5"/>
<text text-anchor="middle" x="328" y="-182.5" font-family="Helvetica,sans-Serif" font-size="10.00">Physics/AmplitudeSum/AmpAbsDynamicalFunction.hpp</text>
</a>
</g>
<!-- Node1&#45;&gt;Node2 -->
<g id="edge2" class="edge"><title>Node1&#45;&gt;Node2</title>
<path fill="none" stroke="midnightblue" d="M745.959,-290.398C661.517,-269.104 471.547,-221.199 379.684,-198.033"/>
<polygon fill="midnightblue" stroke="midnightblue" points="380.33,-194.587 369.777,-195.535 378.618,-201.374 380.33,-194.587"/>
</g>
<!-- Node3 -->
<g id="node5" class="node"><title>Node3</title>
<polygon fill="white" stroke="#bfbfbf" points="870,-0.5 870,-21.5 914,-21.5 914,-0.5 870,-0.5"/>
<text text-anchor="middle" x="892" y="-8.5" font-family="Helvetica,sans-Serif" font-size="10.00">vector</text>
</g>
<!-- Node1&#45;&gt;Node3 -->
<g id="edge98" class="edge"><title>Node1&#45;&gt;Node3</title>
<path fill="none" stroke="midnightblue" d="M908.083,-291.504C1033.14,-278.215 1211,-248.204 1211,-185 1211,-185 1211,-185 1211,-127 1211,-66.4429 1005.4,-28.3542 924.316,-15.6882"/>
<polygon fill="midnightblue" stroke="midnightblue" points="924.593,-12.1898 914.178,-14.1361 923.533,-19.1092 924.593,-12.1898"/>
</g>
<!-- Node10 -->
<g id="node22" class="node"><title>Node10</title>
<polygon fill="white" stroke="#bfbfbf" points="443,-0.5 443,-21.5 495,-21.5 495,-0.5 443,-0.5"/>
<text text-anchor="middle" x="469" y="-8.5" font-family="Helvetica,sans-Serif" font-size="10.00">memory</text>
</g>
<!-- Node1&#45;&gt;Node10 -->
<g id="edge100" class="edge"><title>Node1&#45;&gt;Node10</title>
<path fill="none" stroke="midnightblue" d="M667.676,-297.617C510.407,-290.362 247.894,-267.568 188,-196 181.725,-188.502 181.785,-181.549 188,-174 240.964,-109.669 297.656,-175.638 372,-138 405.955,-120.809 412.202,-110.475 435,-80 446.201,-65.0274 455.32,-45.7923 461.284,-31.4363"/>
<polygon fill="midnightblue" stroke="midnightblue" points="464.603,-32.5611 465.054,-21.9758 458.101,-29.9698 464.603,-32.5611"/>
</g>
<!-- Node15 -->
<g id="node33" class="node"><title>Node15</title>
<a xlink:href="../../d8/dd4/DataPoint_8hpp.xhtml" target="_top" xlink:title="dataPoint stores kinematic information of a dalitz plot">
<polygon fill="white" stroke="black" points="676.5,-116.5 676.5,-137.5 779.5,-137.5 779.5,-116.5 676.5,-116.5"/>
<text text-anchor="middle" x="728" y="-124.5" font-family="Helvetica,sans-Serif" font-size="10.00">Core/DataPoint.hpp</text>
</a>
</g>
<!-- Node1&#45;&gt;Node15 -->
<g id="edge96" class="edge"><title>Node1&#45;&gt;Node15</title>
<path fill="none" stroke="midnightblue" d="M768.429,-290.467C755.553,-282.363 739.706,-269.871 732,-254 715.307,-219.62 719.376,-173.608 723.751,-147.454"/>
<polygon fill="midnightblue" stroke="midnightblue" points="727.205,-148.023 725.585,-137.553 720.322,-146.748 727.205,-148.023"/>
</g>
<!-- Node20 -->
<g id="node47" class="node"><title>Node20</title>
<a xlink:href="../../d2/d45/AmpRelBreitWignerRes_8hpp.xhtml" target="_top" xlink:title="Physics/AmplitudeSum/AmpRelBreitWignerRes.hpp">
<polygon fill="white" stroke="black" points="740.5,-232.5 740.5,-253.5 985.5,-253.5 985.5,-232.5 740.5,-232.5"/>
<text text-anchor="middle" x="863" y="-240.5" font-family="Helvetica,sans-Serif" font-size="10.00">Physics/AmplitudeSum/AmpRelBreitWignerRes.hpp</text>
</a>
</g>
<!-- Node1&#45;&gt;Node20 -->
<g id="edge54" class="edge"><title>Node1&#45;&gt;Node20</title>
<path fill="none" stroke="midnightblue" d="M801.756,-290.362C812.751,-281.859 828.373,-269.779 841.086,-259.947"/>
<polygon fill="midnightblue" stroke="midnightblue" points="843.562,-262.457 849.331,-253.571 839.279,-256.919 843.562,-262.457"/>
</g>
<!-- Node24 -->
<g id="node67" class="node"><title>Node24</title>
<a xlink:href="../../d4/d12/AmpWigner_8hpp.xhtml" target="_top" xlink:title="Physics/AmplitudeSum/AmpWigner.hpp">
<polygon fill="white" stroke="black" points="954.5,-174.5 954.5,-195.5 1145.5,-195.5 1145.5,-174.5 954.5,-174.5"/>
<text text-anchor="middle" x="1050" y="-182.5" font-family="Helvetica,sans-Serif" font-size="10.00">Physics/AmplitudeSum/AmpWigner.hpp</text>
</a>
</g>
<!-- Node1&#45;&gt;Node24 -->
<g id="edge94" class="edge"><title>Node1&#45;&gt;Node24</title>
<path fill="none" stroke="midnightblue" d="M855.526,-290.487C906.363,-281.674 971.07,-268.27 994,-254 1013.53,-241.849 1029.3,-220.454 1039.07,-204.701"/>
<polygon fill="midnightblue" stroke="midnightblue" points="1042.28,-206.143 1044.36,-195.754 1036.26,-202.581 1042.28,-206.143"/>
</g>
<!-- Node2&#45;&gt;Node3 -->
<g id="edge4" class="edge"><title>Node2&#45;&gt;Node3</title>
<path fill="none" stroke="midnightblue" d="M357.248,-174.448C378.199,-166.179 406.56,-153.494 429,-138 470.898,-109.071 465.107,-80.05 511,-58 572.516,-28.4437 779.455,-16.0972 859.763,-12.3411"/>
<polygon fill="midnightblue" stroke="midnightblue" points="859.959,-15.8359 869.79,-11.8863 859.642,-8.84308 859.959,-15.8359"/>
</g>
<!-- Node4 -->
<g id="node7" class="node"><title>Node4</title>
<polygon fill="white" stroke="#bfbfbf" points="-0.5,-58.5 -0.5,-79.5 52.5,-79.5 52.5,-58.5 -0.5,-58.5"/>
<text text-anchor="middle" x="26" y="-66.5" font-family="Helvetica,sans-Serif" font-size="10.00">complex</text>
</g>
<!-- Node2&#45;&gt;Node4 -->
<g id="edge6" class="edge"><title>Node2&#45;&gt;Node4</title>
<path fill="none" stroke="midnightblue" d="M300.399,-174.398C245.64,-153.365 123.286,-106.368 62.1764,-82.8956"/>
<polygon fill="midnightblue" stroke="midnightblue" points="63.1522,-79.5211 52.5621,-79.2027 60.6422,-86.0556 63.1522,-79.5211"/>
</g>
<!-- Node5 -->
<g id="node9" class="node"><title>Node5</title>
<a xlink:href="../../db/dce/Parameter_8hpp.xhtml" target="_top" xlink:title="This class implements some internal container of parameters.">
<polygon fill="white" stroke="black" points="259,-116.5 259,-137.5 363,-137.5 363,-116.5 259,-116.5"/>
<text text-anchor="middle" x="311" y="-124.5" font-family="Helvetica,sans-Serif" font-size="10.00">Core/Parameter.hpp</text>
</a>
</g>
<!-- Node2&#45;&gt;Node5 -->
<g id="edge8" class="edge"><title>Node2&#45;&gt;Node5</title>
<path fill="none" stroke="midnightblue" d="M324.882,-174.362C322.677,-166.84 319.652,-156.519 316.988,-147.431"/>
<polygon fill="midnightblue" stroke="midnightblue" points="320.27,-146.182 314.098,-137.571 313.552,-148.151 320.27,-146.182"/>
</g>
<!-- Node2&#45;&gt;Node15 -->
<g id="edge36" class="edge"><title>Node2&#45;&gt;Node15</title>
<path fill="none" stroke="midnightblue" d="M400.437,-174.497C476.399,-163.482 594.496,-146.358 666.207,-135.96"/>
<polygon fill="midnightblue" stroke="midnightblue" points="667.046,-139.375 676.44,-134.476 666.041,-132.448 667.046,-139.375"/>
</g>
<!-- Node5&#45;&gt;Node4 -->
<g id="edge16" class="edge"><title>Node5&#45;&gt;Node4</title>
<path fill="none" stroke="midnightblue" d="M258.9,-119.056C210.241,-111.222 135.459,-98.1234 62.477,-80.183"/>
<polygon fill="midnightblue" stroke="midnightblue" points="63.2097,-76.7587 52.6602,-77.7373 61.5174,-83.5511 63.2097,-76.7587"/>
</g>
<!-- Node6 -->
<g id="node11" class="node"><title>Node6</title>
<polygon fill="white" stroke="#bfbfbf" points="520,-58.5 520,-79.5 574,-79.5 574,-58.5 520,-58.5"/>
<text text-anchor="middle" x="547" y="-66.5" font-family="Helvetica,sans-Serif" font-size="10.00">iostream</text>
</g>
<!-- Node5&#45;&gt;Node6 -->
<g id="edge10" class="edge"><title>Node5&#45;&gt;Node6</title>
<path fill="none" stroke="midnightblue" d="M353.738,-116.497C398.282,-105.549 467.384,-88.5665 509.765,-78.1509"/>
<polygon fill="midnightblue" stroke="midnightblue" points="510.799,-81.5011 519.675,-75.7155 509.128,-74.7034 510.799,-81.5011"/>
</g>
<!-- Node7 -->
<g id="node13" class="node"><title>Node7</title>
<polygon fill="white" stroke="#bfbfbf" points="178.5,-0.5 178.5,-21.5 219.5,-21.5 219.5,-0.5 178.5,-0.5"/>
<text text-anchor="middle" x="199" y="-8.5" font-family="Helvetica,sans-Serif" font-size="10.00">string</text>
</g>
<!-- Node5&#45;&gt;Node7 -->
<g id="edge12" class="edge"><title>Node5&#45;&gt;Node7</title>
<path fill="none" stroke="midnightblue" d="M279.97,-116.359C261.799,-108.736 239.622,-96.8233 225,-80 212.972,-66.1606 206.264,-46.2072 202.688,-31.314"/>
<polygon fill="midnightblue" stroke="midnightblue" points="206.11,-30.5771 200.607,-21.5235 199.263,-32.0327 206.11,-30.5771"/>
</g>
<!-- Node8 -->
<g id="node15" class="node"><title>Node8</title>
<polygon fill="white" stroke="#bfbfbf" points="374,-58.5 374,-79.5 426,-79.5 426,-58.5 374,-58.5"/>
<text text-anchor="middle" x="400" y="-66.5" font-family="Helvetica,sans-Serif" font-size="10.00">sstream</text>
</g>
<!-- Node5&#45;&gt;Node8 -->
<g id="edge14" class="edge"><title>Node5&#45;&gt;Node8</title>
<path fill="none" stroke="midnightblue" d="M327.324,-116.362C340.748,-107.614 359.983,-95.0786 375.293,-85.1015"/>
<polygon fill="midnightblue" stroke="midnightblue" points="377.312,-87.9628 383.78,-79.5707 373.491,-82.0982 377.312,-87.9628"/>
</g>
<!-- Node9 -->
<g id="node18" class="node"><title>Node9</title>
<a xlink:href="../../d8/def/AbsParameter_8hpp.xhtml" target="_top" xlink:title="This class defines the internal container of a parameter.">
<polygon fill="white" stroke="black" points="234,-58.5 234,-79.5 356,-79.5 356,-58.5 234,-58.5"/>
<text text-anchor="middle" x="295" y="-66.5" font-family="Helvetica,sans-Serif" font-size="10.00">Core/AbsParameter.hpp</text>
</a>
</g>
<!-- Node5&#45;&gt;Node9 -->
<g id="edge18" class="edge"><title>Node5&#45;&gt;Node9</title>
<path fill="none" stroke="midnightblue" d="M308.065,-116.362C305.99,-108.84 303.143,-98.5187 300.636,-89.4308"/>
<polygon fill="midnightblue" stroke="midnightblue" points="303.949,-88.2798 297.916,-79.5707 297.201,-90.1414 303.949,-88.2798"/>
</g>
<!-- Node13 -->
<g id="node28" class="node"><title>Node13</title>
<a xlink:href="../../d2/de9/Exceptions_8hpp.xhtml" target="_top" xlink:title="This class defines the ComPWA exception base&#45;class and provides a set of standard exceptions...">
<polygon fill="white" stroke="black" points="70,-58.5 70,-79.5 178,-79.5 178,-58.5 70,-58.5"/>
<text text-anchor="middle" x="124" y="-66.5" font-family="Helvetica,sans-Serif" font-size="10.00">Core/Exceptions.hpp</text>
</a>
</g>
<!-- Node5&#45;&gt;Node13 -->
<g id="edge30" class="edge"><title>Node5&#45;&gt;Node13</title>
<path fill="none" stroke="midnightblue" d="M277.136,-116.497C246.518,-107 201.257,-92.9619 167.876,-82.6087"/>
<polygon fill="midnightblue" stroke="midnightblue" points="168.516,-79.1426 157.928,-79.5231 166.442,-85.8284 168.516,-79.1426"/>
</g>
<!-- Node9&#45;&gt;Node3 -->
<g id="edge22" class="edge"><title>Node9&#45;&gt;Node3</title>
<path fill="none" stroke="midnightblue" d="M356.05,-59.1601C359.073,-58.7501 362.07,-58.3605 365,-58 551.909,-35.0058 777.436,-18.6979 859.856,-13.1141"/>
<polygon fill="midnightblue" stroke="midnightblue" points="860.111,-16.6049 869.854,-12.442 859.642,-9.62068 860.111,-16.6049"/>
</g>
<!-- Node9&#45;&gt;Node7 -->
<g id="edge20" class="edge"><title>Node9&#45;&gt;Node7</title>
<path fill="none" stroke="midnightblue" d="M277.392,-58.3619C262.777,-49.532 241.776,-36.844 225.189,-26.8224"/>
<polygon fill="midnightblue" stroke="midnightblue" points="226.865,-23.7461 216.496,-21.5707 223.246,-29.7376 226.865,-23.7461"/>
</g>
<!-- Node9&#45;&gt;Node10 -->
<g id="edge24" class="edge"><title>Node9&#45;&gt;Node10</title>
<path fill="none" stroke="midnightblue" d="M326.51,-58.4966C356.556,-48.4814 401.756,-33.4147 433.161,-22.9464"/>
<polygon fill="midnightblue" stroke="midnightblue" points="434.456,-26.2042 442.836,-19.7214 432.242,-19.5634 434.456,-26.2042"/>
</g>
<!-- Node11 -->
<g id="node24" class="node"><title>Node11</title>
<polygon fill="white" stroke="#bfbfbf" points="237,-0.5 237,-21.5 293,-21.5 293,-0.5 237,-0.5"/>
<text text-anchor="middle" x="265" y="-8.5" font-family="Helvetica,sans-Serif" font-size="10.00">algorithm</text>
</g>
<!-- Node9&#45;&gt;Node11 -->
<g id="edge26" class="edge"><title>Node9&#45;&gt;Node11</title>
<path fill="none" stroke="midnightblue" d="M289.498,-58.3619C285.48,-50.5949 279.919,-39.8426 275.11,-30.5458"/>
<polygon fill="midnightblue" stroke="midnightblue" points="278.171,-28.8448 270.468,-21.5707 271.953,-32.0608 278.171,-28.8448"/>
</g>
<!-- Node12 -->
<g id="node26" class="node"><title>Node12</title>
<a xlink:href="../../d9/d91/ParObserver_8hpp.xhtml" target="_top" xlink:title="For the use in the function tree, the observer pattern is used.">
<polygon fill="white" stroke="black" points="311,-0.5 311,-21.5 425,-21.5 425,-0.5 311,-0.5"/>
<text text-anchor="middle" x="368" y="-8.5" font-family="Helvetica,sans-Serif" font-size="10.00">Core/ParObserver.hpp</text>
</a>
</g>
<!-- Node9&#45;&gt;Node12 -->
<g id="edge28" class="edge"><title>Node9&#45;&gt;Node12</title>
<path fill="none" stroke="midnightblue" d="M308.389,-58.3619C319.091,-49.859 334.296,-37.7785 346.671,-27.9466"/>
<polygon fill="midnightblue" stroke="midnightblue" points="349.043,-30.5318 354.696,-21.5707 344.689,-25.0511 349.043,-30.5318"/>
</g>
<!-- Node13&#45;&gt;Node7 -->
<g id="edge34" class="edge"><title>Node13&#45;&gt;Node7</title>
<path fill="none" stroke="midnightblue" d="M137.756,-58.3619C148.751,-49.859 164.373,-37.7785 177.086,-27.9466"/>
<polygon fill="midnightblue" stroke="midnightblue" points="179.562,-30.4569 185.331,-21.5707 175.279,-24.9195 179.562,-30.4569"/>
</g>
<!-- Node14 -->
<g id="node30" class="node"><title>Node14</title>
<polygon fill="white" stroke="#bfbfbf" points="94.5,-0.5 94.5,-21.5 153.5,-21.5 153.5,-0.5 94.5,-0.5"/>
<text text-anchor="middle" x="124" y="-8.5" font-family="Helvetica,sans-Serif" font-size="10.00">exception</text>
</g>
<!-- Node13&#45;&gt;Node14 -->
<g id="edge32" class="edge"><title>Node13&#45;&gt;Node14</title>
<path fill="none" stroke="midnightblue" d="M124,-58.3619C124,-50.9219 124,-40.7427 124,-31.7276"/>
<polygon fill="midnightblue" stroke="midnightblue" points="127.5,-31.5706 124,-21.5707 120.5,-31.5707 127.5,-31.5706"/>
</g>
<!-- Node15&#45;&gt;Node3 -->
<g id="edge42" class="edge"><title>Node15&#45;&gt;Node3</title>
<path fill="none" stroke="midnightblue" d="M727.951,-116.391C728.464,-101.404 731.629,-74.0745 747,-58 762.631,-41.6539 822.031,-26.1828 859.784,-17.7057"/>
<polygon fill="midnightblue" stroke="midnightblue" points="860.787,-21.0688 869.804,-15.5052 859.286,-14.2318 860.787,-21.0688"/>
</g>
<!-- Node16 -->
<g id="node35" class="node"><title>Node16</title>
<polygon fill="white" stroke="#bfbfbf" points="591.5,-58.5 591.5,-79.5 636.5,-79.5 636.5,-58.5 591.5,-58.5"/>
<text text-anchor="middle" x="614" y="-66.5" font-family="Helvetica,sans-Serif" font-size="10.00">cstdlib</text>
</g>
<!-- Node15&#45;&gt;Node16 -->
<g id="edge38" class="edge"><title>Node15&#45;&gt;Node16</title>
<path fill="none" stroke="midnightblue" d="M707.355,-116.497C689.63,-107.479 663.855,-94.3649 643.877,-84.2006"/>
<polygon fill="midnightblue" stroke="midnightblue" points="645.376,-81.0364 634.876,-79.6212 642.202,-87.2753 645.376,-81.0364"/>
</g>
<!-- Node17 -->
<g id="node37" class="node"><title>Node17</title>
<polygon fill="white" stroke="#bfbfbf" points="653.5,-58.5 653.5,-79.5 700.5,-79.5 700.5,-58.5 653.5,-58.5"/>
<text text-anchor="middle" x="677" y="-66.5" font-family="Helvetica,sans-Serif" font-size="10.00">math.h</text>
</g>
<!-- Node15&#45;&gt;Node17 -->
<g id="edge40" class="edge"><title>Node15&#45;&gt;Node17</title>
<path fill="none" stroke="midnightblue" d="M718.646,-116.362C711.457,-108.186 701.359,-96.7025 692.907,-87.0907"/>
<polygon fill="midnightblue" stroke="midnightblue" points="695.527,-84.7692 686.295,-79.5707 690.27,-89.3916 695.527,-84.7692"/>
</g>
<!-- Node18 -->
<g id="node40" class="node"><title>Node18</title>
<a xlink:href="../../d4/d37/Kinematics_8hpp.xhtml" target="_top" xlink:title="Core/Kinematics.hpp">
<polygon fill="white" stroke="black" points="756,-58.5 756,-79.5 864,-79.5 864,-58.5 756,-58.5"/>
<text text-anchor="middle" x="810" y="-66.5" font-family="Helvetica,sans-Serif" font-size="10.00">Core/Kinematics.hpp</text>
</a>
</g>
<!-- Node15&#45;&gt;Node18 -->
<g id="edge44" class="edge"><title>Node15&#45;&gt;Node18</title>
<path fill="none" stroke="midnightblue" d="M737.676,-116.362C748.496,-107.614 765.967,-95.0786 781.118,-85.1015"/>
<polygon fill="midnightblue" stroke="midnightblue" points="783.192,-87.9288 789.703,-79.5707 779.401,-82.0442 783.192,-87.9288"/>
</g>
<!-- Node18&#45;&gt;Node3 -->
<g id="edge46" class="edge"><title>Node18&#45;&gt;Node3</title>
<path fill="none" stroke="midnightblue" d="M825.04,-58.3619C837.293,-49.6955 854.799,-37.3126 868.839,-27.3819"/>
<polygon fill="midnightblue" stroke="midnightblue" points="870.912,-30.2028 877.055,-21.5707 866.87,-24.4879 870.912,-30.2028"/>
</g>
<!-- Node18&#45;&gt;Node10 -->
<g id="edge48" class="edge"><title>Node18&#45;&gt;Node10</title>
<path fill="none" stroke="midnightblue" d="M755.968,-59.8097C685.812,-47.8771 565.262,-27.3729 505.204,-17.1578"/>
<polygon fill="midnightblue" stroke="midnightblue" points="505.509,-13.6596 495.064,-15.4332 504.335,-20.5605 505.509,-13.6596"/>
</g>
<!-- Node18&#45;&gt;Node15 -->
<g id="edge52" class="edge"><title>Node18&#45;&gt;Node15</title>
<path fill="none" stroke="midnightblue" d="M800.407,-79.5707C789.622,-88.2993 772.162,-100.831 756.999,-110.821"/>
<polygon fill="midnightblue" stroke="midnightblue" points="754.913,-108.002 748.404,-116.362 758.705,-113.885 754.913,-108.002"/>
</g>
<!-- Node19 -->
<g id="node44" class="node"><title>Node19</title>
<polygon fill="white" stroke="#bfbfbf" points="1072.5,-0.5 1072.5,-21.5 1173.5,-21.5 1173.5,-0.5 1072.5,-0.5"/>
<text text-anchor="middle" x="1123" y="-8.5" font-family="Helvetica,sans-Serif" font-size="10.00">boost/log/trivial.hpp</text>
</g>
<!-- Node18&#45;&gt;Node19 -->
<g id="edge50" class="edge"><title>Node18&#45;&gt;Node19</title>
<path fill="none" stroke="midnightblue" d="M864.163,-58.9634C919.376,-48.7323 1004.85,-32.8937 1062.31,-22.2458"/>
<polygon fill="midnightblue" stroke="midnightblue" points="1063.15,-25.6499 1072.35,-20.3864 1061.88,-18.7671 1063.15,-25.6499"/>
</g>
<!-- Node20&#45;&gt;Node2 -->
<g id="edge58" class="edge"><title>Node20&#45;&gt;Node2</title>
<path fill="none" stroke="midnightblue" d="M766.116,-232.497C672.76,-222.376 531.824,-207.097 435.158,-196.617"/>
<polygon fill="midnightblue" stroke="midnightblue" points="435.385,-193.121 425.066,-195.523 434.631,-200.081 435.385,-193.121"/>
</g>
<!-- Node20&#45;&gt;Node3 -->
<g id="edge56" class="edge"><title>Node20&#45;&gt;Node3</title>
<path fill="none" stroke="midnightblue" d="M969.71,-232.482C1047.67,-223.691 1141.81,-210.32 1154,-196 1200.73,-141.12 1243.58,-178.973 1058,-58 1016.61,-31.0219 959.649,-19.2971 924.36,-14.3694"/>
<polygon fill="midnightblue" stroke="midnightblue" points="924.511,-10.8599 914.145,-13.0489 923.614,-17.8021 924.511,-10.8599"/>
</g>
<!-- Node21 -->
<g id="node51" class="node"><title>Node21</title>
<a xlink:href="../../d6/d6b/AmpKinematics_8hpp.xhtml" target="_top" xlink:title="Physics/AmplitudeSum/AmpKinematics.hpp">
<polygon fill="white" stroke="black" points="476.5,-174.5 476.5,-195.5 685.5,-195.5 685.5,-174.5 476.5,-174.5"/>
<text text-anchor="middle" x="581" y="-182.5" font-family="Helvetica,sans-Serif" font-size="10.00">Physics/AmplitudeSum/AmpKinematics.hpp</text>
</a>
</g>
<!-- Node20&#45;&gt;Node21 -->
<g id="edge60" class="edge"><title>Node20&#45;&gt;Node21</title>
<path fill="none" stroke="midnightblue" d="M811.932,-232.497C764.167,-222.673 692.771,-207.988 642.025,-197.551"/>
<polygon fill="midnightblue" stroke="midnightblue" points="642.664,-194.109 632.164,-195.523 641.254,-200.966 642.664,-194.109"/>
</g>
<!-- Node22 -->
<g id="node57" class="node"><title>Node22</title>
<a xlink:href="../../d0/d2a/AmpWigner2_8hpp.xhtml" target="_top" xlink:title="Angular distribution based on WignerD functions.">
<polygon fill="white" stroke="black" points="740.5,-174.5 740.5,-195.5 937.5,-195.5 937.5,-174.5 740.5,-174.5"/>
<text text-anchor="middle" x="839" y="-182.5" font-family="Helvetica,sans-Serif" font-size="10.00">Physics/AmplitudeSum/AmpWigner2.hpp</text>
</a>
</g>
<!-- Node20&#45;&gt;Node22 -->
<g id="edge70" class="edge"><title>Node20&#45;&gt;Node22</title>
<path fill="none" stroke="midnightblue" d="M858.598,-232.362C855.418,-224.677 851.028,-214.069 847.21,-204.84"/>
<polygon fill="midnightblue" stroke="midnightblue" points="850.432,-203.473 843.374,-195.571 843.964,-206.149 850.432,-203.473"/>
</g>
<!-- Node20&#45;&gt;Node24 -->
<g id="edge86" class="edge"><title>Node20&#45;&gt;Node24</title>
<path fill="none" stroke="midnightblue" d="M896.864,-232.497C927.482,-223 972.743,-208.962 1006.12,-198.609"/>
<polygon fill="midnightblue" stroke="midnightblue" points="1007.56,-201.828 1016.07,-195.523 1005.48,-195.143 1007.56,-201.828"/>
</g>
<!-- Node21&#45;&gt;Node5 -->
<g id="edge68" class="edge"><title>Node21&#45;&gt;Node5</title>
<path fill="none" stroke="midnightblue" d="M532.105,-174.497C486.563,-164.714 418.584,-150.111 370.036,-139.682"/>
<polygon fill="midnightblue" stroke="midnightblue" points="370.499,-136.201 359.987,-137.523 369.029,-143.045 370.499,-136.201"/>
</g>
<!-- Node21&#45;&gt;Node6 -->
<g id="edge66" class="edge"><title>Node21&#45;&gt;Node6</title>
<path fill="none" stroke="midnightblue" d="M577.862,-174.295C572.22,-155.045 560.274,-114.289 553.011,-89.5091"/>
<polygon fill="midnightblue" stroke="midnightblue" points="556.302,-88.291 550.13,-79.6792 549.584,-90.26 556.302,-88.291"/>
</g>
<!-- Node21&#45;&gt;Node16 -->
<g id="edge62" class="edge"><title>Node21&#45;&gt;Node16</title>
<path fill="none" stroke="midnightblue" d="M584.045,-174.295C589.522,-155.045 601.116,-114.289 608.166,-89.5091"/>
<polygon fill="midnightblue" stroke="midnightblue" points="611.592,-90.2553 610.962,-79.6792 604.859,-88.3399 611.592,-90.2553"/>
</g>
<!-- Node21&#45;&gt;Node17 -->
<g id="edge64" class="edge"><title>Node21&#45;&gt;Node17</title>
<path fill="none" stroke="midnightblue" d="M589.859,-174.295C606.219,-154.527 641.347,-112.08 661.653,-87.5443"/>
<polygon fill="midnightblue" stroke="midnightblue" points="664.483,-89.6147 668.162,-79.6792 659.09,-85.1517 664.483,-89.6147"/>
</g>
<!-- Node22&#45;&gt;Node3 -->
<g id="edge72" class="edge"><title>Node22&#45;&gt;Node3</title>
<path fill="none" stroke="midnightblue" d="M841.546,-174.115C844.855,-160.408 851.04,-136.206 858,-116 863.645,-99.6118 867.355,-96.3882 873,-80 878.492,-64.0564 883.501,-45.6246 886.996,-31.8241"/>
<polygon fill="midnightblue" stroke="midnightblue" points="890.45,-32.433 889.454,-21.8852 883.655,-30.7524 890.45,-32.433"/>
</g>
<!-- Node22&#45;&gt;Node15 -->
<g id="edge84" class="edge"><title>Node22&#45;&gt;Node15</title>
<path fill="none" stroke="midnightblue" d="M818.899,-174.497C801.718,-165.519 776.77,-152.484 757.355,-142.339"/>
<polygon fill="midnightblue" stroke="midnightblue" points="758.811,-139.15 748.327,-137.621 755.569,-145.354 758.811,-139.15"/>
</g>
<!-- Node23 -->
<g id="node60" class="node"><title>Node23</title>
<a xlink:href="../../d7/dd9/DalitzKinematics_8hpp.xhtml" target="_top" xlink:title="Physics/DPKinematics/DalitzKinematics.hpp">
<polygon fill="white" stroke="black" points="867,-116.5 867,-137.5 1081,-137.5 1081,-116.5 867,-116.5"/>
<text text-anchor="middle" x="974" y="-124.5" font-family="Helvetica,sans-Serif" font-size="10.00">Physics/DPKinematics/DalitzKinematics.hpp</text>
</a>
</g>
<!-- Node22&#45;&gt;Node23 -->
<g id="edge74" class="edge"><title>Node22&#45;&gt;Node23</title>
<path fill="none" stroke="midnightblue" d="M863.447,-174.497C884.818,-165.315 916.069,-151.889 939.897,-141.652"/>
<polygon fill="midnightblue" stroke="midnightblue" points="941.472,-144.784 949.278,-137.621 938.709,-138.353 941.472,-144.784"/>
</g>
<!-- Node23&#45;&gt;Node3 -->
<g id="edge78" class="edge"><title>Node23&#45;&gt;Node3</title>
<path fill="none" stroke="midnightblue" d="M966.433,-116.295C952.52,-96.6135 922.715,-54.4504 905.337,-29.8668"/>
<polygon fill="midnightblue" stroke="midnightblue" points="908.18,-27.8247 899.549,-21.6792 902.463,-31.8653 908.18,-27.8247"/>
</g>
<!-- Node23&#45;&gt;Node6 -->
<g id="edge76" class="edge"><title>Node23&#45;&gt;Node6</title>
<path fill="none" stroke="midnightblue" d="M866.958,-119.272C790.452,-112.548 685.044,-100.842 584.422,-80.0248"/>
<polygon fill="midnightblue" stroke="midnightblue" points="584.893,-76.5474 574.387,-77.9147 583.453,-83.3976 584.893,-76.5474"/>
</g>
<!-- Node23&#45;&gt;Node18 -->
<g id="edge82" class="edge"><title>Node23&#45;&gt;Node18</title>
<path fill="none" stroke="midnightblue" d="M944.301,-116.497C917.68,-107.082 878.438,-93.2036 849.239,-82.8773"/>
<polygon fill="midnightblue" stroke="midnightblue" points="850.35,-79.5576 839.755,-79.5231 848.016,-86.1571 850.35,-79.5576"/>
</g>
<!-- Node23&#45;&gt;Node19 -->
<g id="edge80" class="edge"><title>Node23&#45;&gt;Node19</title>
<path fill="none" stroke="midnightblue" d="M987.75,-116.295C1013.7,-96.0955 1070.06,-52.2158 1101.21,-27.9632"/>
<polygon fill="midnightblue" stroke="midnightblue" points="1103.54,-30.5841 1109.28,-21.6792 1099.24,-25.0606 1103.54,-30.5841"/>
</g>
<!-- Node24&#45;&gt;Node3 -->
<g id="edge88" class="edge"><title>Node24&#45;&gt;Node3</title>
<path fill="none" stroke="midnightblue" d="M1063.78,-174.417C1079.74,-160.821 1102.35,-136.526 1090,-116 1053.73,-55.7116 969.912,-28.2051 923.812,-17.2491"/>
<polygon fill="midnightblue" stroke="midnightblue" points="924.562,-13.8304 914.036,-15.0403 923.019,-20.6583 924.562,-13.8304"/>
</g>
<!-- Node24&#45;&gt;Node15 -->
<g id="edge92" class="edge"><title>Node24&#45;&gt;Node15</title>
<path fill="none" stroke="midnightblue" d="M991.688,-174.497C934.585,-164.211 847.902,-148.597 789.672,-138.109"/>
<polygon fill="midnightblue" stroke="midnightblue" points="789.965,-134.605 779.503,-136.277 788.724,-141.494 789.965,-134.605"/>
</g>
<!-- Node24&#45;&gt;Node23 -->
<g id="edge90" class="edge"><title>Node24&#45;&gt;Node23</title>
<path fill="none" stroke="midnightblue" d="M1036.06,-174.362C1024.81,-165.777 1008.78,-153.546 995.835,-143.664"/>
<polygon fill="midnightblue" stroke="midnightblue" points="997.924,-140.855 987.851,-137.571 993.677,-146.42 997.924,-140.855"/>
</g>
</g>
</svg>
