<?xml version="1.0" encoding="UTF-8" standalone="no"?>
<!DOCTYPE svg PUBLIC "-//W3C//DTD SVG 1.1//EN"
 "http://www.w3.org/Graphics/SVG/1.1/DTD/svg11.dtd">
<!-- Generated by graphviz version 2.36.0 (20140111.2315)
 -->
<!-- Title: ComPWA::DataReader::RootEfficiency Pages: 1 -->
<svg width="126pt" height="238pt"
 viewBox="0.00 0.00 126.00 238.00" xmlns="http://www.w3.org/2000/svg" xmlns:xlink="http://www.w3.org/1999/xlink">
<g id="graph0" class="graph" transform="scale(1 1) rotate(0) translate(4 234)">
<title>ComPWA::DataReader::RootEfficiency</title>
<polygon fill="white" stroke="none" points="-4,4 -4,-234 122,-234 122,4 -4,4"/>
<!-- Node1 -->
<g id="node1" class="node"><title>Node1</title>
<polygon fill="#bfbfbf" stroke="black" points="-0.5,-1 -0.5,-113 118.5,-113 118.5,-1 -0.5,-1"/>
<text text-anchor="start" x="7.5" y="-101" font-family="Helvetica,sans-Serif" font-size="10.00">ComPWA::DataReader</text>
<text text-anchor="middle" x="59" y="-90" font-family="Helvetica,sans-Serif" font-size="10.00">::RootEfficiency</text>
<polyline fill="none" stroke="black" points="-0.5,-83 118.5,-83 "/>
<text text-anchor="start" x="7.5" y="-71" font-family="Helvetica,sans-Serif" font-size="10.00"># effHist</text>
<polyline fill="none" stroke="black" points="-0.5,-64 118.5,-64 "/>
<text text-anchor="start" x="7.5" y="-52" font-family="Helvetica,sans-Serif" font-size="10.00">+ RootEfficiency()</text>
<text text-anchor="start" x="7.5" y="-41" font-family="Helvetica,sans-Serif" font-size="10.00">+ RootEfficiency()</text>
<text text-anchor="start" x="7.5" y="-30" font-family="Helvetica,sans-Serif" font-size="10.00">+ RootEfficiency()</text>
<text text-anchor="start" x="7.5" y="-19" font-family="Helvetica,sans-Serif" font-size="10.00">+ ~RootEfficiency()</text>
<text text-anchor="start" x="7.5" y="-8" font-family="Helvetica,sans-Serif" font-size="10.00">+ Evaluate()</text>
</g>
<!-- Node2 -->
<g id="node2" class="node"><title>Node2</title>
<g id="a_node2"><a xlink:href="../../d7/d11/classComPWA_1_1Efficiency.html" target="_top" xlink:title="{ComPWA::Efficiency\n||+ Efficiency()\l+ ~Efficiency()\l+ Evaluate()\l}">
<polygon fill="white" stroke="black" points="4,-150.5 4,-229.5 114,-229.5 114,-150.5 4,-150.5"/>
<text text-anchor="middle" x="59" y="-217.5" font-family="Helvetica,sans-Serif" font-size="10.00">ComPWA::Efficiency</text>
<polyline fill="none" stroke="black" points="4,-210.5 114,-210.5 "/>
<text text-anchor="middle" x="59" y="-198.5" font-family="Helvetica,sans-Serif" font-size="10.00"> </text>
<polyline fill="none" stroke="black" points="4,-191.5 114,-191.5 "/>
<text text-anchor="start" x="12" y="-179.5" font-family="Helvetica,sans-Serif" font-size="10.00">+ Efficiency()</text>
<text text-anchor="start" x="12" y="-168.5" font-family="Helvetica,sans-Serif" font-size="10.00">+ ~Efficiency()</text>
<text text-anchor="start" x="12" y="-157.5" font-family="Helvetica,sans-Serif" font-size="10.00">+ Evaluate()</text>
</a>
</g>
</g>
<!-- Node2&#45;&gt;Node1 -->
<g id="edge1" class="edge"><title>Node2&#45;&gt;Node1</title>
<path fill="none" stroke="midnightblue" d="M59,-140.315C59,-131.514 59,-122.28 59,-113.307"/>
<polygon fill="none" stroke="midnightblue" points="55.5001,-140.404 59,-150.404 62.5001,-140.404 55.5001,-140.404"/>
</g>
</g>
</svg>
