<?xml version="1.0" encoding="UTF-8" standalone="no"?>
<!DOCTYPE svg PUBLIC "-//W3C//DTD SVG 1.1//EN"
 "http://www.w3.org/Graphics/SVG/1.1/DTD/svg11.dtd">
<!-- Generated by graphviz version 2.36.0 (20140111.2315)
 -->
<!-- Title: Base Pages: 1 -->
<svg width="72pt" height="194pt"
 viewBox="0.00 0.00 72.00 194.00" xmlns="http://www.w3.org/2000/svg" xmlns:xlink="http://www.w3.org/1999/xlink">
<g id="graph0" class="graph" transform="scale(1 1) rotate(0) translate(4 190)">
<title>Base</title>
<polygon fill="white" stroke="none" points="-4,4 -4,-190 68,-190 68,4 -4,4"/>
<!-- Node1 -->
<g id="node1" class="node"><title>Node1</title>
<polygon fill="#bfbfbf" stroke="black" points="2.5,-106.5 2.5,-185.5 61.5,-185.5 61.5,-106.5 2.5,-106.5"/>
<text text-anchor="middle" x="32" y="-173.5" font-family="Helvetica,sans-Serif" font-size="10.00">Base</text>
<polyline fill="none" stroke="black" points="2.5,-166.5 61.5,-166.5 "/>
<text text-anchor="start" x="10.5" y="-154.5" font-family="Helvetica,sans-Serif" font-size="10.00"># i</text>
<polyline fill="none" stroke="black" points="2.5,-147.5 61.5,-147.5 "/>
<text text-anchor="start" x="10.5" y="-135.5" font-family="Helvetica,sans-Serif" font-size="10.00">+ Base()</text>
<text text-anchor="start" x="10.5" y="-124.5" font-family="Helvetica,sans-Serif" font-size="10.00">+ GetInt()</text>
<text text-anchor="start" x="10.5" y="-113.5" font-family="Helvetica,sans-Serif" font-size="10.00">+ SetInt()</text>
</g>
<!-- Node2 -->
<g id="node2" class="node"><title>Node2</title>
<g id="a_node2"><a xlink:href="../../d1/da6/classDerived.html" target="_top" xlink:title="{Derived\n||+ Derived()\l+ SetInt()\l}">
<polygon fill="white" stroke="black" points="-0.5,-1 -0.5,-69 64.5,-69 64.5,-1 -0.5,-1"/>
<text text-anchor="middle" x="32" y="-57" font-family="Helvetica,sans-Serif" font-size="10.00">Derived</text>
<polyline fill="none" stroke="black" points="-0.5,-50 64.5,-50 "/>
<text text-anchor="middle" x="32" y="-38" font-family="Helvetica,sans-Serif" font-size="10.00"> </text>
<polyline fill="none" stroke="black" points="-0.5,-31 64.5,-31 "/>
<text text-anchor="start" x="7.5" y="-19" font-family="Helvetica,sans-Serif" font-size="10.00">+ Derived()</text>
<text text-anchor="start" x="7.5" y="-8" font-family="Helvetica,sans-Serif" font-size="10.00">+ SetInt()</text>
</a>
</g>
</g>
<!-- Node1&#45;&gt;Node2 -->
<g id="edge1" class="edge"><title>Node1&#45;&gt;Node2</title>
<path fill="none" stroke="midnightblue" d="M32,-96.125C32,-87.0164 32,-77.6961 32,-69.1962"/>
<polygon fill="none" stroke="midnightblue" points="28.5001,-96.2637 32,-106.264 35.5001,-96.2638 28.5001,-96.2637"/>
</g>
</g>
</svg>
