<?xml version="1.0" encoding="UTF-8" standalone="no"?>
<!DOCTYPE svg PUBLIC "-//W3C//DTD SVG 1.1//EN"
 "http://www.w3.org/Graphics/SVG/1.1/DTD/svg11.dtd">
<!-- Generated by graphviz version 2.36.0 (20140111.2315)
 -->
<!-- Title: /home/travis/build/ComPWA/ComPWA/DataReader/Data.hpp Pages: 1 -->
<svg width="1582pt" height="354pt"
 viewBox="0.00 0.00 1582.00 354.00" xmlns="http://www.w3.org/2000/svg" xmlns:xlink="http://www.w3.org/1999/xlink">
<g id="graph0" class="graph" transform="scale(1 1) rotate(0) translate(4 350)">
<title>/home/travis/build/ComPWA/ComPWA/DataReader/Data.hpp</title>
<polygon fill="white" stroke="none" points="-4,4 -4,-350 1578,-350 1578,4 -4,4"/>
<!-- Node1 -->
<g id="node1" class="node"><title>Node1</title>
<polygon fill="#bfbfbf" stroke="black" points="447.5,-304.5 447.5,-345.5 614.5,-345.5 614.5,-304.5 447.5,-304.5"/>
<text text-anchor="start" x="455.5" y="-333.5" font-family="Helvetica,sans-Serif" font-size="10.00">/home/travis/build</text>
<text text-anchor="start" x="455.5" y="-322.5" font-family="Helvetica,sans-Serif" font-size="10.00">/ComPWA/ComPWA/DataReader</text>
<text text-anchor="middle" x="531" y="-311.5" font-family="Helvetica,sans-Serif" font-size="10.00">/Data.hpp</text>
</g>
<!-- Node2 -->
<g id="node2" class="node"><title>Node2</title>
<polygon fill="white" stroke="#bfbfbf" points="259,-6.5 259,-25.5 303,-25.5 303,-6.5 259,-6.5"/>
<text text-anchor="middle" x="281" y="-13.5" font-family="Helvetica,sans-Serif" font-size="10.00">vector</text>
</g>
<!-- Node1&#45;&gt;Node2 -->
<g id="edge1" class="edge"><title>Node1&#45;&gt;Node2</title>
<path fill="none" stroke="midnightblue" d="M447.447,-322.091C297.91,-316.388 0,-293.65 0,-203 0,-203 0,-203 0,-139 0,-31.5346 175.064,-17.7089 248.834,-16.6535"/>
<polygon fill="midnightblue" stroke="midnightblue" points="248.976,-20.1527 258.95,-16.5808 248.925,-13.1529 248.976,-20.1527"/>
</g>
<!-- Node3 -->
<g id="node3" class="node"><title>Node3</title>
<polygon fill="white" stroke="#bfbfbf" points="985.5,-6.5 985.5,-25.5 1026.5,-25.5 1026.5,-6.5 985.5,-6.5"/>
<text text-anchor="middle" x="1006" y="-13.5" font-family="Helvetica,sans-Serif" font-size="10.00">string</text>
</g>
<!-- Node1&#45;&gt;Node3 -->
<g id="edge2" class="edge"><title>Node1&#45;&gt;Node3</title>
<path fill="none" stroke="midnightblue" d="M614.515,-321.081C832.519,-312.357 1402,-282.005 1402,-203 1402,-203 1402,-203 1402,-139 1402,-62.7083 1130.17,-29.0885 1036.94,-19.8018"/>
<polygon fill="midnightblue" stroke="midnightblue" points="1037.02,-16.2937 1026.73,-18.812 1036.35,-23.261 1037.02,-16.2937"/>
</g>
<!-- Node4 -->
<g id="node4" class="node"><title>Node4</title>
<polygon fill="white" stroke="#bfbfbf" points="1300,-6.5 1300,-25.5 1352,-25.5 1352,-6.5 1300,-6.5"/>
<text text-anchor="middle" x="1326" y="-13.5" font-family="Helvetica,sans-Serif" font-size="10.00">memory</text>
</g>
<!-- Node1&#45;&gt;Node4 -->
<g id="edge3" class="edge"><title>Node1&#45;&gt;Node4</title>
<path fill="none" stroke="midnightblue" d="M614.74,-321.939C787.408,-317.038 1177.57,-302.424 1306,-268 1369.94,-250.863 1440,-269.192 1440,-203 1440,-203 1440,-203 1440,-139 1440,-88.1254 1386.42,-49.6678 1352.73,-30.512"/>
<polygon fill="midnightblue" stroke="midnightblue" points="1354.26,-27.3628 1343.81,-25.6267 1350.9,-33.5016 1354.26,-27.3628"/>
</g>
<!-- Node5 -->
<g id="node5" class="node"><title>Node5</title>
<g id="a_node5"><a xlink:href="../../df/d7d/Event_8hpp.html" target="_top" xlink:title="This class provides a internal container for event&#45;based information. ">
<polygon fill="white" stroke="black" points="207.5,-192.5 207.5,-211.5 292.5,-211.5 292.5,-192.5 207.5,-192.5"/>
<text text-anchor="middle" x="250" y="-199.5" font-family="Helvetica,sans-Serif" font-size="10.00">Core/Event.hpp</text>
</a>
</g>
</g>
<!-- Node1&#45;&gt;Node5 -->
<g id="edge4" class="edge"><title>Node1&#45;&gt;Node5</title>
<path fill="none" stroke="midnightblue" d="M447.371,-322.779C354.137,-319.438 211.947,-307.757 178,-268 160.956,-248.039 191.354,-228.29 217.744,-215.894"/>
<polygon fill="midnightblue" stroke="midnightblue" points="219.488,-218.948 227.189,-211.673 216.632,-212.557 219.488,-218.948"/>
</g>
<!-- Node8 -->
<g id="node8" class="node"><title>Node8</title>
<g id="a_node8"><a xlink:href="../../d8/d6f/Efficiency_8hpp.html" target="_top" xlink:title="Core/Efficiency.hpp">
<polygon fill="white" stroke="black" points="366.5,-130.5 366.5,-149.5 469.5,-149.5 469.5,-130.5 366.5,-130.5"/>
<text text-anchor="middle" x="418" y="-137.5" font-family="Helvetica,sans-Serif" font-size="10.00">Core/Efficiency.hpp</text>
</a>
</g>
</g>
<!-- Node1&#45;&gt;Node8 -->
<g id="edge11" class="edge"><title>Node1&#45;&gt;Node8</title>
<path fill="none" stroke="midnightblue" d="M516.447,-304.456C504.851,-289 488.111,-266.944 473,-248 460.013,-231.718 453.288,-230.109 443,-212 433.535,-195.34 426.711,-174.473 422.608,-159.683"/>
<polygon fill="midnightblue" stroke="midnightblue" points="425.92,-158.516 420.002,-149.728 419.148,-160.289 425.92,-158.516"/>
</g>
<!-- Node10 -->
<g id="node10" class="node"><title>Node10</title>
<g id="a_node10"><a xlink:href="../../d4/d37/Kinematics_8hpp.html" target="_top" xlink:title="Core/Kinematics.hpp">
<polygon fill="white" stroke="black" points="586,-248.5 586,-267.5 694,-267.5 694,-248.5 586,-248.5"/>
<text text-anchor="middle" x="640" y="-255.5" font-family="Helvetica,sans-Serif" font-size="10.00">Core/Kinematics.hpp</text>
</a>
</g>
</g>
<!-- Node1&#45;&gt;Node10 -->
<g id="edge15" class="edge"><title>Node1&#45;&gt;Node10</title>
<path fill="none" stroke="midnightblue" d="M563.704,-304.498C580.737,-294.34 601.171,-282.155 616.603,-272.952"/>
<polygon fill="midnightblue" stroke="midnightblue" points="618.694,-275.78 625.49,-267.652 615.109,-269.768 618.694,-275.78"/>
</g>
<!-- Node20 -->
<g id="node20" class="node"><title>Node20</title>
<g id="a_node20"><a xlink:href="../../d8/dd4/DataPoint_8hpp.html" target="_top" xlink:title="dataPoint stores kinematic information of a dalitz plot ">
<polygon fill="white" stroke="red" points="452.5,-192.5 452.5,-211.5 555.5,-211.5 555.5,-192.5 452.5,-192.5"/>
<text text-anchor="middle" x="504" y="-199.5" font-family="Helvetica,sans-Serif" font-size="10.00">Core/DataPoint.hpp</text>
</a>
</g>
</g>
<!-- Node1&#45;&gt;Node20 -->
<g id="edge61" class="edge"><title>Node1&#45;&gt;Node20</title>
<path fill="none" stroke="midnightblue" d="M526.602,-304.29C521.489,-281.375 513.114,-243.846 508.122,-221.473"/>
<polygon fill="midnightblue" stroke="midnightblue" points="511.507,-220.573 505.913,-211.575 504.675,-222.097 511.507,-220.573"/>
</g>
<!-- Node21 -->
<g id="node21" class="node"><title>Node21</title>
<g id="a_node21"><a xlink:href="../../df/d9f/ParameterList_8hpp.html" target="_top" xlink:title="This class provides a list of fit parameters which can have different types. ">
<polygon fill="white" stroke="red" points="962,-192.5 962,-211.5 1082,-211.5 1082,-192.5 962,-192.5"/>
<text text-anchor="middle" x="1022" y="-199.5" font-family="Helvetica,sans-Serif" font-size="10.00">Core/ParameterList.hpp</text>
</a>
</g>
</g>
<!-- Node1&#45;&gt;Node21 -->
<g id="edge46" class="edge"><title>Node1&#45;&gt;Node21</title>
<path fill="none" stroke="midnightblue" d="M610.16,-304.492C714.446,-278.792 894.334,-234.461 977.482,-213.971"/>
<polygon fill="midnightblue" stroke="midnightblue" points="978.496,-217.326 987.368,-211.535 976.821,-210.529 978.496,-217.326"/>
</g>
<!-- Node23 -->
<g id="node23" class="node"><title>Node23</title>
<g id="a_node23"><a xlink:href="../../df/d33/Generator_8hpp.html" target="_top" xlink:title="Core/Generator.hpp">
<polygon fill="white" stroke="black" points="187,-248.5 187,-267.5 289,-267.5 289,-248.5 187,-248.5"/>
<text text-anchor="middle" x="238" y="-255.5" font-family="Helvetica,sans-Serif" font-size="10.00">Core/Generator.hpp</text>
</a>
</g>
</g>
<!-- Node1&#45;&gt;Node23 -->
<g id="edge59" class="edge"><title>Node1&#45;&gt;Node23</title>
<path fill="none" stroke="midnightblue" d="M447.43,-305.461C395.332,-293.903 330.124,-279.437 286.434,-269.745"/>
<polygon fill="midnightblue" stroke="midnightblue" points="287.153,-266.319 276.632,-267.57 285.636,-273.153 287.153,-266.319"/>
</g>
<!-- Node24 -->
<g id="node24" class="node"><title>Node24</title>
<g id="a_node24"><a xlink:href="../../de/d34/Resolution_8hpp.html" target="_top" xlink:title="Core/Resolution.hpp">
<polygon fill="white" stroke="black" points="1468,-248.5 1468,-267.5 1574,-267.5 1574,-248.5 1468,-248.5"/>
<text text-anchor="middle" x="1521" y="-255.5" font-family="Helvetica,sans-Serif" font-size="10.00">Core/Resolution.hpp</text>
</a>
</g>
</g>
<!-- Node1&#45;&gt;Node24 -->
<g id="edge62" class="edge"><title>Node1&#45;&gt;Node24</title>
<path fill="none" stroke="midnightblue" d="M614.525,-320.975C776.656,-314.651 1145.22,-298.066 1454,-268 1455.11,-267.892 1456.23,-267.78 1457.36,-267.663"/>
<polygon fill="midnightblue" stroke="midnightblue" points="1458.09,-271.103 1467.65,-266.524 1457.32,-264.146 1458.09,-271.103"/>
</g>
<!-- Node25 -->
<g id="node25" class="node"><title>Node25</title>
<g id="a_node25"><a xlink:href="../../d2/dee/DataCorrection_8hpp.html" target="_top" xlink:title="DataReader/DataCorrection.hpp">
<polygon fill="white" stroke="red" points="307.5,-248.5 307.5,-267.5 464.5,-267.5 464.5,-248.5 307.5,-248.5"/>
<text text-anchor="middle" x="386" y="-255.5" font-family="Helvetica,sans-Serif" font-size="10.00">DataReader/DataCorrection.hpp</text>
</a>
</g>
</g>
<!-- Node1&#45;&gt;Node25 -->
<g id="edge63" class="edge"><title>Node1&#45;&gt;Node25</title>
<path fill="none" stroke="midnightblue" d="M487.495,-304.498C463.875,-293.909 435.338,-281.117 414.547,-271.797"/>
<polygon fill="midnightblue" stroke="midnightblue" points="415.859,-268.549 405.302,-267.652 412.995,-274.937 415.859,-268.549"/>
</g>
<!-- Node5&#45;&gt;Node2 -->
<g id="edge5" class="edge"><title>Node5&#45;&gt;Node2</title>
<path fill="none" stroke="midnightblue" d="M207.463,-196.862C157.684,-191.038 79.7723,-178.528 62,-156 37.7761,-125.294 37.6819,-98.6319 62,-68 84.9263,-39.1212 193.267,-25.0921 248.481,-19.7222"/>
<polygon fill="midnightblue" stroke="midnightblue" points="249.143,-23.1757 258.774,-18.7618 248.492,-16.206 249.143,-23.1757"/>
</g>
<!-- Node5&#45;&gt;Node3 -->
<g id="edge6" class="edge"><title>Node5&#45;&gt;Node3</title>
<path fill="none" stroke="midnightblue" d="M254.296,-192.264C262.328,-176.704 280.998,-143.955 305,-124 350.257,-86.3741 368.155,-83.2494 425,-68 530.436,-39.7156 870.428,-22.8972 975.063,-18.2952"/>
<polygon fill="midnightblue" stroke="midnightblue" points="975.428,-21.7828 985.267,-17.8526 975.124,-14.7894 975.428,-21.7828"/>
</g>
<!-- Node6 -->
<g id="node6" class="node"><title>Node6</title>
<polygon fill="white" stroke="#bfbfbf" points="434,-68.5 434,-87.5 488,-87.5 488,-68.5 434,-68.5"/>
<text text-anchor="middle" x="461" y="-75.5" font-family="Helvetica,sans-Serif" font-size="10.00">iostream</text>
</g>
<!-- Node5&#45;&gt;Node6 -->
<g id="edge7" class="edge"><title>Node5&#45;&gt;Node6</title>
<path fill="none" stroke="midnightblue" d="M260.42,-192.324C278.986,-177.142 319.378,-145.345 357,-124 379.748,-111.093 406.917,-99.456 427.781,-91.2503"/>
<polygon fill="midnightblue" stroke="midnightblue" points="429.11,-94.4887 437.176,-87.6185 426.586,-87.9596 429.11,-94.4887"/>
</g>
<!-- Node7 -->
<g id="node7" class="node"><title>Node7</title>
<g id="a_node7"><a xlink:href="../../d3/d65/Particle_8hpp.html" target="_top" xlink:title="This class provides a internal container for information of a particle. ">
<polygon fill="white" stroke="red" points="104,-130.5 104,-149.5 196,-149.5 196,-130.5 104,-130.5"/>
<text text-anchor="middle" x="150" y="-137.5" font-family="Helvetica,sans-Serif" font-size="10.00">Core/Particle.hpp</text>
</a>
</g>
</g>
<!-- Node5&#45;&gt;Node7 -->
<g id="edge8" class="edge"><title>Node5&#45;&gt;Node7</title>
<path fill="none" stroke="midnightblue" d="M235.672,-192.403C219.336,-182.601 192.398,-166.439 173.088,-154.853"/>
<polygon fill="midnightblue" stroke="midnightblue" points="174.677,-151.724 164.301,-149.581 171.075,-157.727 174.677,-151.724"/>
</g>
<!-- Node7&#45;&gt;Node2 -->
<g id="edge9" class="edge"><title>Node7&#45;&gt;Node2</title>
<path fill="none" stroke="midnightblue" d="M156.394,-130.093C166.737,-116.016 188.193,-88.1548 210,-68 225.045,-54.0952 243.964,-40.6745 258.489,-31.0934"/>
<polygon fill="midnightblue" stroke="midnightblue" points="260.398,-34.0266 266.89,-25.6539 256.594,-28.1505 260.398,-34.0266"/>
</g>
<!-- Node7&#45;&gt;Node6 -->
<g id="edge10" class="edge"><title>Node7&#45;&gt;Node6</title>
<path fill="none" stroke="midnightblue" d="M194.228,-130.467C255.799,-118.589 366.244,-97.2809 423.809,-86.1751"/>
<polygon fill="midnightblue" stroke="midnightblue" points="424.762,-89.5558 433.918,-84.2248 423.436,-82.6825 424.762,-89.5558"/>
</g>
<!-- Node8&#45;&gt;Node2 -->
<g id="edge13" class="edge"><title>Node8&#45;&gt;Node2</title>
<path fill="none" stroke="midnightblue" d="M410.788,-130.169C399.164,-116.196 375.232,-88.4744 352,-68 336.682,-54.5003 317.856,-41.1047 303.439,-31.432"/>
<polygon fill="midnightblue" stroke="midnightblue" points="304.957,-28.2398 294.683,-25.6496 301.099,-34.081 304.957,-28.2398"/>
</g>
<!-- Node8&#45;&gt;Node6 -->
<g id="edge12" class="edge"><title>Node8&#45;&gt;Node6</title>
<path fill="none" stroke="midnightblue" d="M424.161,-130.403C430.611,-121.403 440.904,-107.041 448.973,-95.7824"/>
<polygon fill="midnightblue" stroke="midnightblue" points="451.87,-97.7476 454.851,-87.5806 446.18,-93.6699 451.87,-97.7476"/>
</g>
<!-- Node9 -->
<g id="node9" class="node"><title>Node9</title>
<g id="a_node9"><a xlink:href="../../da/db4/Logging_8hpp.html" target="_top" xlink:title="Core/Logging.hpp">
<polygon fill="white" stroke="red" points="506.5,-68.5 506.5,-87.5 599.5,-87.5 599.5,-68.5 506.5,-68.5"/>
<text text-anchor="middle" x="553" y="-75.5" font-family="Helvetica,sans-Serif" font-size="10.00">Core/Logging.hpp</text>
</a>
</g>
</g>
<!-- Node8&#45;&gt;Node9 -->
<g id="edge14" class="edge"><title>Node8&#45;&gt;Node9</title>
<path fill="none" stroke="midnightblue" d="M437.342,-130.403C460.099,-120.29 498.092,-103.404 524.288,-91.761"/>
<polygon fill="midnightblue" stroke="midnightblue" points="525.977,-94.8404 533.694,-87.5806 523.134,-88.4437 525.977,-94.8404"/>
</g>
<!-- Node10&#45;&gt;Node2 -->
<g id="edge16" class="edge"><title>Node10&#45;&gt;Node2</title>
<path fill="none" stroke="midnightblue" d="M632.651,-248.084C620.188,-233.642 593.382,-205.401 564,-192 465.465,-147.059 409.098,-221.696 323,-156 285.681,-127.524 280.431,-66.9304 280.342,-36.0095"/>
<polygon fill="midnightblue" stroke="midnightblue" points="283.845,-35.7946 280.504,-25.7404 276.846,-35.6837 283.845,-35.7946"/>
</g>
<!-- Node10&#45;&gt;Node3 -->
<g id="edge17" class="edge"><title>Node10&#45;&gt;Node3</title>
<path fill="none" stroke="midnightblue" d="M694.476,-256.279C829.519,-253.25 1174.1,-237.525 1247,-156 1273.5,-126.368 1288.23,-98.7233 1263,-68 1248.68,-50.5579 1102.12,-29.5102 1036.95,-20.9287"/>
<polygon fill="midnightblue" stroke="midnightblue" points="1037.23,-17.4354 1026.86,-19.6142 1036.33,-24.3768 1037.23,-17.4354"/>
</g>
<!-- Node10&#45;&gt;Node5 -->
<g id="edge19" class="edge"><title>Node10&#45;&gt;Node5</title>
<path fill="none" stroke="midnightblue" d="M585.772,-249.492C510.911,-239.126 376.779,-220.554 302.722,-210.3"/>
<polygon fill="midnightblue" stroke="midnightblue" points="303.069,-206.815 292.683,-208.91 302.109,-213.749 303.069,-206.815"/>
</g>
<!-- Node11 -->
<g id="node11" class="node"><title>Node11</title>
<polygon fill="white" stroke="#bfbfbf" points="747.5,-68.5 747.5,-87.5 800.5,-87.5 800.5,-68.5 747.5,-68.5"/>
<text text-anchor="middle" x="774" y="-75.5" font-family="Helvetica,sans-Serif" font-size="10.00">complex</text>
</g>
<!-- Node10&#45;&gt;Node11 -->
<g id="edge18" class="edge"><title>Node10&#45;&gt;Node11</title>
<path fill="none" stroke="midnightblue" d="M679.831,-248.462C701.941,-241.866 728.441,-230.616 746,-212 775.598,-180.619 777.202,-126.233 775.7,-97.7013"/>
<polygon fill="midnightblue" stroke="midnightblue" points="779.176,-97.2316 774.968,-87.5082 772.194,-97.7334 779.176,-97.2316"/>
</g>
<!-- Node12 -->
<g id="node12" class="node"><title>Node12</title>
<g id="a_node12"><a xlink:href="../../d8/d35/PhysConst_8hpp.html" target="_top" xlink:title="PhysConst provides particle information to the framework. ">
<polygon fill="white" stroke="red" points="612,-192.5 612,-211.5 720,-211.5 720,-192.5 612,-192.5"/>
<text text-anchor="middle" x="666" y="-199.5" font-family="Helvetica,sans-Serif" font-size="10.00">Core/PhysConst.hpp</text>
</a>
</g>
</g>
<!-- Node10&#45;&gt;Node12 -->
<g id="edge20" class="edge"><title>Node10&#45;&gt;Node12</title>
<path fill="none" stroke="midnightblue" d="M644.293,-248.083C647.852,-240.691 653.022,-229.953 657.424,-220.811"/>
<polygon fill="midnightblue" stroke="midnightblue" points="660.602,-222.279 661.787,-211.751 654.295,-219.243 660.602,-222.279"/>
</g>
<!-- Node18 -->
<g id="node18" class="node"><title>Node18</title>
<g id="a_node18"><a xlink:href="../../d9/dfb/Spin_8hpp.html" target="_top" xlink:title="Core/Spin.hpp">
<polygon fill="white" stroke="black" points="678.5,-130.5 678.5,-149.5 757.5,-149.5 757.5,-130.5 678.5,-130.5"/>
<text text-anchor="middle" x="718" y="-137.5" font-family="Helvetica,sans-Serif" font-size="10.00">Core/Spin.hpp</text>
</a>
</g>
</g>
<!-- Node10&#45;&gt;Node18 -->
<g id="edge42" class="edge"><title>Node10&#45;&gt;Node18</title>
<path fill="none" stroke="midnightblue" d="M676.702,-248.349C695.834,-241.775 717.572,-230.583 729,-212 738.874,-195.943 733.257,-174.101 726.997,-158.9"/>
<polygon fill="midnightblue" stroke="midnightblue" points="730.083,-157.231 722.744,-149.59 723.716,-160.14 730.083,-157.231"/>
</g>
<!-- Node10&#45;&gt;Node20 -->
<g id="edge43" class="edge"><title>Node10&#45;&gt;Node20</title>
<path fill="none" stroke="midnightblue" d="M618.45,-248.444C595.969,-239.517 560.512,-225.439 535.02,-215.317"/>
<polygon fill="midnightblue" stroke="midnightblue" points="536.035,-211.954 525.449,-211.516 533.451,-218.46 536.035,-211.954"/>
</g>
<!-- Node12&#45;&gt;Node2 -->
<g id="edge22" class="edge"><title>Node12&#45;&gt;Node2</title>
<path fill="none" stroke="midnightblue" d="M611.891,-193.743C524.682,-181.961 362.202,-159.617 357,-156 314.764,-126.636 293.677,-65.985 285.38,-35.4365"/>
<polygon fill="midnightblue" stroke="midnightblue" points="288.749,-34.4826 282.886,-25.6575 281.966,-36.2122 288.749,-34.4826"/>
</g>
<!-- Node12&#45;&gt;Node6 -->
<g id="edge21" class="edge"><title>Node12&#45;&gt;Node6</title>
<path fill="none" stroke="midnightblue" d="M613.358,-192.428C584.512,-185.878 549.203,-174.685 522,-156 499.437,-140.502 481.189,-114.171 470.714,-96.6819"/>
<polygon fill="midnightblue" stroke="midnightblue" points="473.487,-94.4827 465.47,-87.5551 467.417,-97.9696 473.487,-94.4827"/>
</g>
<!-- Node13 -->
<g id="node13" class="node"><title>Node13</title>
<g id="a_node13"><a xlink:href="../../db/dce/Parameter_8hpp.html" target="_top" xlink:title="This class implements some internal container of parameters. ">
<polygon fill="white" stroke="red" points="852,-130.5 852,-149.5 956,-149.5 956,-130.5 852,-130.5"/>
<text text-anchor="middle" x="904" y="-137.5" font-family="Helvetica,sans-Serif" font-size="10.00">Core/Parameter.hpp</text>
</a>
</g>
</g>
<!-- Node12&#45;&gt;Node13 -->
<g id="edge23" class="edge"><title>Node12&#45;&gt;Node13</title>
<path fill="none" stroke="midnightblue" d="M699.847,-192.467C742.052,-181.827 814.268,-163.622 860.528,-151.959"/>
<polygon fill="midnightblue" stroke="midnightblue" points="861.429,-155.342 870.27,-149.503 859.718,-148.554 861.429,-155.342"/>
</g>
<!-- Node12&#45;&gt;Node18 -->
<g id="edge36" class="edge"><title>Node12&#45;&gt;Node18</title>
<path fill="none" stroke="midnightblue" d="M673.45,-192.403C681.328,-183.314 693.945,-168.756 703.744,-157.449"/>
<polygon fill="midnightblue" stroke="midnightblue" points="706.659,-159.43 710.563,-149.581 701.369,-154.845 706.659,-159.43"/>
</g>
<!-- Node13&#45;&gt;Node3 -->
<g id="edge25" class="edge"><title>Node13&#45;&gt;Node3</title>
<path fill="none" stroke="midnightblue" d="M888.452,-130.422C866.582,-117.24 831.183,-91.0993 848,-68 877.029,-28.1266 937.839,-18.7713 974.977,-16.9512"/>
<polygon fill="midnightblue" stroke="midnightblue" points="975.351,-20.4408 985.23,-16.6104 975.119,-13.4447 975.351,-20.4408"/>
</g>
<!-- Node13&#45;&gt;Node6 -->
<g id="edge24" class="edge"><title>Node13&#45;&gt;Node6</title>
<path fill="none" stroke="midnightblue" d="M851.906,-133.264C761.864,-123.224 579.689,-102.322 497.969,-87.9413"/>
<polygon fill="midnightblue" stroke="midnightblue" points="498.516,-84.4833 488.05,-86.1333 497.26,-91.3698 498.516,-84.4833"/>
</g>
<!-- Node13&#45;&gt;Node9 -->
<g id="edge35" class="edge"><title>Node13&#45;&gt;Node9</title>
<path fill="none" stroke="midnightblue" d="M854.083,-130.467C789.544,-119.435 677.422,-100.269 609.725,-88.6967"/>
<polygon fill="midnightblue" stroke="midnightblue" points="610.11,-85.2118 599.664,-86.9767 608.931,-92.1117 610.11,-85.2118"/>
</g>
<!-- Node13&#45;&gt;Node11 -->
<g id="edge27" class="edge"><title>Node13&#45;&gt;Node11</title>
<path fill="none" stroke="midnightblue" d="M885.374,-130.403C863.557,-120.334 827.196,-103.552 801.983,-91.9151"/>
<polygon fill="midnightblue" stroke="midnightblue" points="803.138,-88.5934 792.591,-87.5806 800.204,-94.9491 803.138,-88.5934"/>
</g>
<!-- Node14 -->
<g id="node14" class="node"><title>Node14</title>
<polygon fill="white" stroke="#bfbfbf" points="983,-68.5 983,-87.5 1035,-87.5 1035,-68.5 983,-68.5"/>
<text text-anchor="middle" x="1009" y="-75.5" font-family="Helvetica,sans-Serif" font-size="10.00">sstream</text>
</g>
<!-- Node13&#45;&gt;Node14 -->
<g id="edge26" class="edge"><title>Node13&#45;&gt;Node14</title>
<path fill="none" stroke="midnightblue" d="M919.044,-130.403C936.275,-120.557 964.74,-104.291 985.034,-92.6949"/>
<polygon fill="midnightblue" stroke="midnightblue" points="987.038,-95.5809 993.984,-87.5806 983.565,-89.5032 987.038,-95.5809"/>
</g>
<!-- Node15 -->
<g id="node15" class="node"><title>Node15</title>
<g id="a_node15"><a xlink:href="../../d8/def/AbsParameter_8hpp.html" target="_top" xlink:title="This class defines the internal container of a parameter. ">
<polygon fill="white" stroke="red" points="1132,-68.5 1132,-87.5 1254,-87.5 1254,-68.5 1132,-68.5"/>
<text text-anchor="middle" x="1193" y="-75.5" font-family="Helvetica,sans-Serif" font-size="10.00">Core/AbsParameter.hpp</text>
</a>
</g>
</g>
<!-- Node13&#45;&gt;Node15 -->
<g id="edge28" class="edge"><title>Node13&#45;&gt;Node15</title>
<path fill="none" stroke="midnightblue" d="M945.1,-130.467C996.886,-119.716 1085.88,-101.239 1141.97,-89.5947"/>
<polygon fill="midnightblue" stroke="midnightblue" points="1142.96,-92.9632 1152.04,-87.5034 1141.54,-86.1093 1142.96,-92.9632"/>
</g>
<!-- Node17 -->
<g id="node17" class="node"><title>Node17</title>
<g id="a_node17"><a xlink:href="../../d2/de9/Exceptions_8hpp.html" target="_top" xlink:title="This class defines the ComPWA exception base&#45;class and provides a set of standard exceptions...">
<polygon fill="white" stroke="red" points="857,-68.5 857,-87.5 965,-87.5 965,-68.5 857,-68.5"/>
<text text-anchor="middle" x="911" y="-75.5" font-family="Helvetica,sans-Serif" font-size="10.00">Core/Exceptions.hpp</text>
</a>
</g>
</g>
<!-- Node13&#45;&gt;Node17 -->
<g id="edge33" class="edge"><title>Node13&#45;&gt;Node17</title>
<path fill="none" stroke="midnightblue" d="M905.003,-130.403C905.991,-121.938 907.532,-108.728 908.804,-97.8199"/>
<polygon fill="midnightblue" stroke="midnightblue" points="912.316,-97.9188 909.999,-87.5806 905.364,-97.1076 912.316,-97.9188"/>
</g>
<!-- Node15&#45;&gt;Node2 -->
<g id="edge30" class="edge"><title>Node15&#45;&gt;Node2</title>
<path fill="none" stroke="midnightblue" d="M1131.91,-72.1051C1114.2,-70.7283 1094.83,-69.2629 1077,-68 780.529,-47.0024 421.665,-25.3652 313.419,-18.9202"/>
<polygon fill="midnightblue" stroke="midnightblue" points="313.356,-15.4103 303.165,-18.3105 312.94,-22.398 313.356,-15.4103"/>
</g>
<!-- Node15&#45;&gt;Node3 -->
<g id="edge29" class="edge"><title>Node15&#45;&gt;Node3</title>
<path fill="none" stroke="midnightblue" d="M1166.21,-68.4035C1131.92,-57.4029 1072.67,-38.3908 1036.63,-26.8279"/>
<polygon fill="midnightblue" stroke="midnightblue" points="1037.27,-23.3589 1026.68,-23.6363 1035.14,-30.0242 1037.27,-23.3589"/>
</g>
<!-- Node15&#45;&gt;Node4 -->
<g id="edge31" class="edge"><title>Node15&#45;&gt;Node4</title>
<path fill="none" stroke="midnightblue" d="M1212.06,-68.4035C1234.47,-58.2896 1271.91,-41.4036 1297.71,-29.761"/>
<polygon fill="midnightblue" stroke="midnightblue" points="1299.3,-32.8832 1306.98,-25.5806 1296.43,-26.5025 1299.3,-32.8832"/>
</g>
<!-- Node16 -->
<g id="node16" class="node"><title>Node16</title>
<polygon fill="white" stroke="#bfbfbf" points="1165.5,-1 1165.5,-31 1260.5,-31 1260.5,-1 1165.5,-1"/>
<text text-anchor="start" x="1173.5" y="-19" font-family="Helvetica,sans-Serif" font-size="10.00">boost/serialization</text>
<text text-anchor="middle" x="1213" y="-8" font-family="Helvetica,sans-Serif" font-size="10.00">/shared_ptr.hpp</text>
</g>
<!-- Node15&#45;&gt;Node16 -->
<g id="edge32" class="edge"><title>Node15&#45;&gt;Node16</title>
<path fill="none" stroke="midnightblue" d="M1195.87,-68.4035C1198.27,-61.1886 1201.82,-50.5277 1205.07,-40.7823"/>
<polygon fill="midnightblue" stroke="midnightblue" points="1208.44,-41.7345 1208.29,-31.1408 1201.8,-39.5208 1208.44,-41.7345"/>
</g>
<!-- Node17&#45;&gt;Node3 -->
<g id="edge34" class="edge"><title>Node17&#45;&gt;Node3</title>
<path fill="none" stroke="midnightblue" d="M924.611,-68.4035C940.061,-58.646 965.49,-42.5854 983.816,-31.0109"/>
<polygon fill="midnightblue" stroke="midnightblue" points="985.828,-33.8798 992.414,-25.5806 982.09,-27.9613 985.828,-33.8798"/>
</g>
<!-- Node18&#45;&gt;Node2 -->
<g id="edge39" class="edge"><title>Node18&#45;&gt;Node2</title>
<path fill="none" stroke="midnightblue" d="M707.883,-130.341C689.402,-115.036 648.358,-83.3729 608,-68 505.176,-28.8328 373.203,-19.7251 313.23,-17.6221"/>
<polygon fill="midnightblue" stroke="midnightblue" points="313.332,-14.1236 303.228,-17.314 313.116,-21.1203 313.332,-14.1236"/>
</g>
<!-- Node18&#45;&gt;Node3 -->
<g id="edge37" class="edge"><title>Node18&#45;&gt;Node3</title>
<path fill="none" stroke="midnightblue" d="M708.265,-130.291C693.443,-115.996 668.585,-87.229 685,-68 722.113,-24.525 901.532,-17.9203 974.77,-17.0565"/>
<polygon fill="midnightblue" stroke="midnightblue" points="975.207,-20.5529 985.175,-16.9646 975.145,-13.5531 975.207,-20.5529"/>
</g>
<!-- Node18&#45;&gt;Node6 -->
<g id="edge40" class="edge"><title>Node18&#45;&gt;Node6</title>
<path fill="none" stroke="midnightblue" d="M680.018,-130.456C637.93,-120.938 567.789,-104.934 497.962,-88.2"/>
<polygon fill="midnightblue" stroke="midnightblue" points="498.655,-84.767 488.114,-85.8345 497.02,-91.5734 498.655,-84.767"/>
</g>
<!-- Node18&#45;&gt;Node17 -->
<g id="edge41" class="edge"><title>Node18&#45;&gt;Node17</title>
<path fill="none" stroke="midnightblue" d="M745.652,-130.403C779.332,-119.933 836.357,-102.205 873.847,-90.5501"/>
<polygon fill="midnightblue" stroke="midnightblue" points="874.889,-93.8915 883.399,-87.5806 872.811,-87.2071 874.889,-93.8915"/>
</g>
<!-- Node19 -->
<g id="node19" class="node"><title>Node19</title>
<polygon fill="white" stroke="#bfbfbf" points="694.5,-68.5 694.5,-87.5 729.5,-87.5 729.5,-68.5 694.5,-68.5"/>
<text text-anchor="middle" x="712" y="-75.5" font-family="Helvetica,sans-Serif" font-size="10.00">map</text>
</g>
<!-- Node18&#45;&gt;Node19 -->
<g id="edge38" class="edge"><title>Node18&#45;&gt;Node19</title>
<path fill="none" stroke="midnightblue" d="M717.14,-130.403C716.294,-121.938 714.973,-108.728 713.882,-97.8199"/>
<polygon fill="midnightblue" stroke="midnightblue" points="717.336,-97.1827 712.858,-87.5806 710.371,-97.8793 717.336,-97.1827"/>
</g>
<!-- Node20&#45;&gt;Node2 -->
<g id="edge44" class="edge"><title>Node20&#45;&gt;Node2</title>
<path fill="none" stroke="midnightblue" d="M452.183,-199.09C347.44,-194.694 118.448,-182.169 95,-156 41.6311,-96.4372 182.68,-45.7149 248.869,-25.9013"/>
<polygon fill="midnightblue" stroke="midnightblue" points="250.195,-29.16 258.808,-22.9901 248.228,-22.4422 250.195,-29.16"/>
</g>
<!-- Node20&#45;&gt;Node19 -->
<g id="edge45" class="edge"><title>Node20&#45;&gt;Node19</title>
<path fill="none" stroke="midnightblue" d="M520.908,-192.347C537.996,-183.507 565.078,-169.239 588,-156 624.386,-134.985 665.659,-108.889 690.223,-93.1107"/>
<polygon fill="midnightblue" stroke="midnightblue" points="692.264,-95.9595 698.774,-87.6009 688.473,-90.0752 692.264,-95.9595"/>
</g>
<!-- Node21&#45;&gt;Node2 -->
<g id="edge51" class="edge"><title>Node21&#45;&gt;Node2</title>
<path fill="none" stroke="midnightblue" d="M1027.54,-192.476C1041.95,-169.133 1077.25,-103.552 1044,-68 993.453,-13.9611 452.279,-15.3647 313.355,-16.6283"/>
<polygon fill="midnightblue" stroke="midnightblue" points="313.298,-13.1286 303.332,-16.7258 313.366,-20.1283 313.298,-13.1286"/>
</g>
<!-- Node21&#45;&gt;Node3 -->
<g id="edge48" class="edge"><title>Node21&#45;&gt;Node3</title>
<path fill="none" stroke="midnightblue" d="M1037.85,-192.223C1050.13,-184.46 1066.3,-171.905 1074,-156 1091.05,-120.775 1094.86,-102.82 1077,-68 1068.34,-51.1137 1051.2,-38.5557 1035.93,-30.1265"/>
<polygon fill="midnightblue" stroke="midnightblue" points="1037.25,-26.8701 1026.76,-25.4099 1034.05,-33.0954 1037.25,-26.8701"/>
</g>
<!-- Node21&#45;&gt;Node4 -->
<g id="edge49" class="edge"><title>Node21&#45;&gt;Node4</title>
<path fill="none" stroke="midnightblue" d="M1082.21,-196.881C1146.73,-191.323 1243.71,-179.311 1272,-156 1309.21,-125.344 1320.86,-65.7421 1324.44,-35.5236"/>
<polygon fill="midnightblue" stroke="midnightblue" points="1327.93,-35.8045 1325.46,-25.5023 1320.97,-35.098 1327.93,-35.8045"/>
</g>
<!-- Node21&#45;&gt;Node6 -->
<g id="edge47" class="edge"><title>Node21&#45;&gt;Node6</title>
<path fill="none" stroke="midnightblue" d="M961.804,-201.345C880.138,-200.27 730.49,-192.801 609,-156 560.934,-141.44 510.081,-111.277 482.269,-93.3288"/>
<polygon fill="midnightblue" stroke="midnightblue" points="484.04,-90.3047 473.758,-87.7502 480.203,-96.1593 484.04,-90.3047"/>
</g>
<!-- Node21&#45;&gt;Node9 -->
<g id="edge58" class="edge"><title>Node21&#45;&gt;Node9</title>
<path fill="none" stroke="midnightblue" d="M961.942,-201.573C890.071,-200.418 767.138,-192.537 669,-156 630.403,-141.63 591.799,-112.28 570.294,-94.2551"/>
<polygon fill="midnightblue" stroke="midnightblue" points="572.549,-91.5778 562.675,-87.7373 567.999,-96.8972 572.549,-91.5778"/>
</g>
<!-- Node21&#45;&gt;Node13 -->
<g id="edge56" class="edge"><title>Node21&#45;&gt;Node13</title>
<path fill="none" stroke="midnightblue" d="M1005.09,-192.403C985.466,-182.423 952.869,-165.849 930.01,-154.225"/>
<polygon fill="midnightblue" stroke="midnightblue" points="931.375,-150.993 920.875,-149.581 928.203,-157.233 931.375,-150.993"/>
</g>
<!-- Node21&#45;&gt;Node14 -->
<g id="edge50" class="edge"><title>Node21&#45;&gt;Node14</title>
<path fill="none" stroke="midnightblue" d="M1021.07,-192.226C1018.97,-172.53 1013.84,-124.437 1010.99,-97.7004"/>
<polygon fill="midnightblue" stroke="midnightblue" points="1014.47,-97.2673 1009.93,-87.6944 1007.51,-98.009 1014.47,-97.2673"/>
</g>
<!-- Node21&#45;&gt;Node15 -->
<g id="edge55" class="edge"><title>Node21&#45;&gt;Node15</title>
<path fill="none" stroke="midnightblue" d="M1082.05,-196.252C1136.74,-190.534 1211.67,-178.716 1230,-156 1245.13,-137.252 1226.16,-111.298 1210.28,-94.8288"/>
<polygon fill="midnightblue" stroke="midnightblue" points="1212.48,-92.0853 1202.89,-87.579 1207.58,-97.0814 1212.48,-92.0853"/>
</g>
<!-- Node21&#45;&gt;Node16 -->
<g id="edge54" class="edge"><title>Node21&#45;&gt;Node16</title>
<path fill="none" stroke="midnightblue" d="M1082.16,-196.245C1140.64,-190.38 1223.91,-178.325 1247,-156 1275.58,-128.368 1278.03,-104.801 1263,-68 1258.29,-56.4582 1249.56,-46.1154 1240.7,-37.8102"/>
<polygon fill="midnightblue" stroke="midnightblue" points="1242.82,-35.0068 1232.98,-31.0574 1238.21,-40.2756 1242.82,-35.0068"/>
</g>
<!-- Node21&#45;&gt;Node17 -->
<g id="edge57" class="edge"><title>Node21&#45;&gt;Node17</title>
<path fill="none" stroke="midnightblue" d="M1016.61,-192.4C1007.14,-177.606 986.466,-146.737 965,-124 954.659,-113.047 941.736,-102.194 931.124,-93.8913"/>
<polygon fill="midnightblue" stroke="midnightblue" points="932.931,-90.867 922.862,-87.5708 928.678,-96.4267 932.931,-90.867"/>
</g>
<!-- Node21&#45;&gt;Node19 -->
<g id="edge52" class="edge"><title>Node21&#45;&gt;Node19</title>
<path fill="none" stroke="midnightblue" d="M972.174,-192.439C935.574,-185.209 885.105,-173.25 843,-156 801.474,-138.987 757.292,-110.585 732.32,-93.4414"/>
<polygon fill="midnightblue" stroke="midnightblue" points="734.238,-90.512 724.03,-87.6768 730.242,-96.2592 734.238,-90.512"/>
</g>
<!-- Node22 -->
<g id="node22" class="node"><title>Node22</title>
<polygon fill="white" stroke="#bfbfbf" points="1126.5,-125 1126.5,-155 1221.5,-155 1221.5,-125 1126.5,-125"/>
<text text-anchor="start" x="1134.5" y="-143" font-family="Helvetica,sans-Serif" font-size="10.00">boost/serialization</text>
<text text-anchor="middle" x="1174" y="-132" font-family="Helvetica,sans-Serif" font-size="10.00">/vector.hpp</text>
</g>
<!-- Node21&#45;&gt;Node22 -->
<g id="edge53" class="edge"><title>Node21&#45;&gt;Node22</title>
<path fill="none" stroke="midnightblue" d="M1043.78,-192.403C1065.88,-183.679 1100.75,-169.914 1128.85,-158.824"/>
<polygon fill="midnightblue" stroke="midnightblue" points="1130.45,-161.953 1138.47,-155.025 1127.88,-155.441 1130.45,-161.953"/>
</g>
<!-- Node23&#45;&gt;Node5 -->
<g id="edge60" class="edge"><title>Node23&#45;&gt;Node5</title>
<path fill="none" stroke="midnightblue" d="M239.982,-248.083C241.572,-240.927 243.859,-230.635 245.846,-221.691"/>
<polygon fill="midnightblue" stroke="midnightblue" points="249.303,-222.272 248.055,-211.751 242.469,-220.754 249.303,-222.272"/>
</g>
<!-- Node25&#45;&gt;Node5 -->
<g id="edge64" class="edge"><title>Node25&#45;&gt;Node5</title>
<path fill="none" stroke="midnightblue" d="M364.45,-248.444C341.969,-239.517 306.512,-225.439 281.02,-215.317"/>
<polygon fill="midnightblue" stroke="midnightblue" points="282.035,-211.954 271.449,-211.516 279.451,-218.46 282.035,-211.954"/>
</g>
<!-- Node25&#45;&gt;Node9 -->
<g id="edge65" class="edge"><title>Node25&#45;&gt;Node9</title>
<path fill="none" stroke="midnightblue" d="M393.24,-248.462C403.934,-235.916 424.665,-211.842 443,-192 445.26,-189.554 507.652,-125.525 537.446,-94.9564"/>
<polygon fill="midnightblue" stroke="midnightblue" points="540.113,-97.2349 544.587,-87.6308 535.1,-92.3489 540.113,-97.2349"/>
</g>
</g>
</svg>
