<?xml version="1.0" encoding="UTF-8" standalone="no"?>
<!DOCTYPE svg PUBLIC "-//W3C//DTD SVG 1.1//EN"
 "http://www.w3.org/Graphics/SVG/1.1/DTD/svg11.dtd">
<!-- Generated by graphviz version 2.36.0 (20140111.2315)
 -->
<!-- Title: ComPWA::Resolution Pages: 1 -->
<svg width="140pt" height="228pt"
 viewBox="0.00 0.00 140.00 228.00" xmlns="http://www.w3.org/2000/svg" xmlns:xlink="http://www.w3.org/1999/xlink">
<g id="graph0" class="graph" transform="scale(1 1) rotate(0) translate(4 224)">
<title>ComPWA::Resolution</title>
<polygon fill="white" stroke="none" points="-4,4 -4,-224 136,-224 136,4 -4,4"/>
<!-- Node1 -->
<g id="node1" class="node"><title>Node1</title>
<polygon fill="#bfbfbf" stroke="black" points="9.5,-129 9.5,-219 122.5,-219 122.5,-129 9.5,-129"/>
<text text-anchor="middle" x="66" y="-207" font-family="Helvetica,sans-Serif" font-size="10.00">ComPWA::Resolution</text>
<polyline fill="none" stroke="black" points="9.5,-200 122.5,-200 "/>
<text text-anchor="middle" x="66" y="-188" font-family="Helvetica,sans-Serif" font-size="10.00"> </text>
<polyline fill="none" stroke="black" points="9.5,-181 122.5,-181 "/>
<text text-anchor="start" x="17.5" y="-169" font-family="Helvetica,sans-Serif" font-size="10.00">+ Resolution()</text>
<text text-anchor="start" x="17.5" y="-158" font-family="Helvetica,sans-Serif" font-size="10.00">+ ~Resolution()</text>
<text text-anchor="start" x="17.5" y="-147" font-family="Helvetica,sans-Serif" font-size="10.00">+ resolution()</text>
<text text-anchor="start" x="17.5" y="-136" font-family="Helvetica,sans-Serif" font-size="10.00">+ resolution()</text>
</g>
<!-- Node2 -->
<g id="node2" class="node"><title>Node2</title>
<g id="a_node2"><a xlink:href="../../d2/d4d/classComPWA_1_1ZeroResolution.html" target="_top" xlink:title="{ComPWA::ZeroResolution\n||+ ZeroResolution()\l+ ~ZeroResolution()\l+ resolution()\l+ resolution()\l}">
<polygon fill="white" stroke="black" points="-0.5,-1 -0.5,-91 132.5,-91 132.5,-1 -0.5,-1"/>
<text text-anchor="middle" x="66" y="-79" font-family="Helvetica,sans-Serif" font-size="10.00">ComPWA::ZeroResolution</text>
<polyline fill="none" stroke="black" points="-0.5,-72 132.5,-72 "/>
<text text-anchor="middle" x="66" y="-60" font-family="Helvetica,sans-Serif" font-size="10.00"> </text>
<polyline fill="none" stroke="black" points="-0.5,-53 132.5,-53 "/>
<text text-anchor="start" x="7.5" y="-41" font-family="Helvetica,sans-Serif" font-size="10.00">+ ZeroResolution()</text>
<text text-anchor="start" x="7.5" y="-30" font-family="Helvetica,sans-Serif" font-size="10.00">+ ~ZeroResolution()</text>
<text text-anchor="start" x="7.5" y="-19" font-family="Helvetica,sans-Serif" font-size="10.00">+ resolution()</text>
<text text-anchor="start" x="7.5" y="-8" font-family="Helvetica,sans-Serif" font-size="10.00">+ resolution()</text>
</a>
</g>
</g>
<!-- Node1&#45;&gt;Node2 -->
<g id="edge1" class="edge"><title>Node1&#45;&gt;Node2</title>
<path fill="none" stroke="midnightblue" d="M66,-118.726C66,-109.556 66,-100.133 66,-91.2568"/>
<polygon fill="none" stroke="midnightblue" points="62.5001,-118.931 66,-128.931 69.5001,-118.931 62.5001,-118.931"/>
</g>
</g>
</svg>
