<?xml version="1.0" encoding="UTF-8" standalone="no"?>
<!DOCTYPE svg PUBLIC "-//W3C//DTD SVG 1.1//EN"
 "http://www.w3.org/Graphics/SVG/1.1/DTD/svg11.dtd">
<!-- Generated by graphviz version 2.36.0 (20140111.2315)
 -->
<!-- Title: /home/travis/build/ComPWA/ComPWA/Physics/Amplitude.hpp Pages: 1 -->
<svg width="2193pt" height="466pt"
 viewBox="0.00 0.00 2193.00 466.00" xmlns="http://www.w3.org/2000/svg" xmlns:xlink="http://www.w3.org/1999/xlink">
<g id="graph0" class="graph" transform="scale(1 1) rotate(0) translate(4 462)">
<title>/home/travis/build/ComPWA/ComPWA/Physics/Amplitude.hpp</title>
<polygon fill="white" stroke="none" points="-4,4 -4,-462 2189,-462 2189,4 -4,4"/>
<!-- Node1 -->
<g id="node1" class="node"><title>Node1</title>
<polygon fill="#bfbfbf" stroke="black" points="1420.5,-416.5 1420.5,-457.5 1569.5,-457.5 1569.5,-416.5 1420.5,-416.5"/>
<text text-anchor="start" x="1428.5" y="-445.5" font-family="Helvetica,sans-Serif" font-size="10.00">/home/travis/build</text>
<text text-anchor="start" x="1428.5" y="-434.5" font-family="Helvetica,sans-Serif" font-size="10.00">/ComPWA/ComPWA/Physics</text>
<text text-anchor="middle" x="1495" y="-423.5" font-family="Helvetica,sans-Serif" font-size="10.00">/Amplitude.hpp</text>
</g>
<!-- Node2 -->
<g id="node2" class="node"><title>Node2</title>
<polygon fill="white" stroke="#bfbfbf" points="1962,-6.5 1962,-25.5 2006,-25.5 2006,-6.5 1962,-6.5"/>
<text text-anchor="middle" x="1984" y="-13.5" font-family="Helvetica,sans-Serif" font-size="10.00">vector</text>
</g>
<!-- Node1&#45;&gt;Node2 -->
<g id="edge1" class="edge"><title>Node1&#45;&gt;Node2</title>
<path fill="none" stroke="midnightblue" d="M1569.83,-430.653C1748.45,-416.887 2185,-376.912 2185,-315 2185,-315 2185,-315 2185,-139 2185,-60.9893 2072.99,-31.4624 2016.2,-21.5056"/>
<polygon fill="midnightblue" stroke="midnightblue" points="2016.72,-18.0433 2006.28,-19.8669 2015.57,-24.9497 2016.72,-18.0433"/>
</g>
<!-- Node3 -->
<g id="node3" class="node"><title>Node3</title>
<polygon fill="white" stroke="#bfbfbf" points="69,-6.5 69,-25.5 121,-25.5 121,-6.5 69,-6.5"/>
<text text-anchor="middle" x="95" y="-13.5" font-family="Helvetica,sans-Serif" font-size="10.00">memory</text>
</g>
<!-- Node1&#45;&gt;Node3 -->
<g id="edge2" class="edge"><title>Node1&#45;&gt;Node3</title>
<path fill="none" stroke="midnightblue" d="M1420.35,-433.913C1117.94,-424.974 0,-387.057 0,-315 0,-315 0,-315 0,-139 0,-91.7649 44.8804,-51.8263 72.9458,-31.469"/>
<polygon fill="midnightblue" stroke="midnightblue" points="75.2007,-34.163 81.3888,-25.5631 71.1884,-28.427 75.2007,-34.163"/>
</g>
<!-- Node4 -->
<g id="node4" class="node"><title>Node4</title>
<polygon fill="white" stroke="#bfbfbf" points="1447.5,-130.5 1447.5,-149.5 1494.5,-149.5 1494.5,-130.5 1447.5,-130.5"/>
<text text-anchor="middle" x="1471" y="-137.5" font-family="Helvetica,sans-Serif" font-size="10.00">math.h</text>
</g>
<!-- Node1&#45;&gt;Node4 -->
<g id="edge3" class="edge"><title>Node1&#45;&gt;Node4</title>
<path fill="none" stroke="midnightblue" d="M1493.39,-416.186C1488.99,-362.14 1476.83,-212.685 1472.53,-159.824"/>
<polygon fill="midnightblue" stroke="midnightblue" points="1476,-159.254 1471.7,-149.571 1469.02,-159.822 1476,-159.254"/>
</g>
<!-- Node5 -->
<g id="node5" class="node"><title>Node5</title>
<g id="a_node5"><a xlink:href="../../df/d9f/ParameterList_8hpp.html" target="_top" xlink:title="This class provides a list of fit parameters which can have different types. ">
<polygon fill="white" stroke="black" points="766,-192.5 766,-211.5 886,-211.5 886,-192.5 766,-192.5"/>
<text text-anchor="middle" x="826" y="-199.5" font-family="Helvetica,sans-Serif" font-size="10.00">Core/ParameterList.hpp</text>
</a>
</g>
</g>
<!-- Node1&#45;&gt;Node5 -->
<g id="edge4" class="edge"><title>Node1&#45;&gt;Node5</title>
<path fill="none" stroke="midnightblue" d="M1420.14,-431.493C1317.61,-422.717 1130.17,-397.21 989,-324 930.875,-293.858 871.269,-243.74 842.944,-218.513"/>
<polygon fill="midnightblue" stroke="midnightblue" points="844.966,-215.625 835.193,-211.533 840.282,-220.826 844.966,-215.625"/>
</g>
<!-- Node21 -->
<g id="node21" class="node"><title>Node21</title>
<g id="a_node21"><a xlink:href="../../da/db2/FunctionTree_8hpp.html" target="_top" xlink:title="This class can be used to store a function in a tree&#45;like structure. ">
<polygon fill="white" stroke="black" points="1168,-360.5 1168,-379.5 1284,-379.5 1284,-360.5 1168,-360.5"/>
<text text-anchor="middle" x="1226" y="-367.5" font-family="Helvetica,sans-Serif" font-size="10.00">Core/FunctionTree.hpp</text>
</a>
</g>
</g>
<!-- Node1&#45;&gt;Node21 -->
<g id="edge33" class="edge"><title>Node1&#45;&gt;Node21</title>
<path fill="none" stroke="midnightblue" d="M1420.43,-417.98C1372.55,-406.412 1311.94,-391.767 1271.23,-381.929"/>
<polygon fill="midnightblue" stroke="midnightblue" points="1271.87,-378.483 1261.33,-379.536 1270.23,-385.287 1271.87,-378.483"/>
</g>
<!-- Node23 -->
<g id="node23" class="node"><title>Node23</title>
<g id="a_node23"><a xlink:href="../../d8/dd4/DataPoint_8hpp.html" target="_top" xlink:title="dataPoint stores kinematic information of a dalitz plot ">
<polygon fill="white" stroke="red" points="1523.5,-192.5 1523.5,-211.5 1626.5,-211.5 1626.5,-192.5 1523.5,-192.5"/>
<text text-anchor="middle" x="1575" y="-199.5" font-family="Helvetica,sans-Serif" font-size="10.00">Core/DataPoint.hpp</text>
</a>
</g>
</g>
<!-- Node1&#45;&gt;Node23 -->
<g id="edge60" class="edge"><title>Node1&#45;&gt;Node23</title>
<path fill="none" stroke="midnightblue" d="M1501.82,-416.135C1517.12,-371.59 1553.96,-264.27 1568.73,-221.27"/>
<polygon fill="midnightblue" stroke="midnightblue" points="1572.11,-222.181 1572.05,-211.586 1565.49,-219.908 1572.11,-222.181"/>
</g>
<!-- Node25 -->
<g id="node25" class="node"><title>Node25</title>
<g id="a_node25"><a xlink:href="../../d4/d37/Kinematics_8hpp.html" target="_top" xlink:title="Core/Kinematics.hpp">
<polygon fill="white" stroke="black" points="1718,-304.5 1718,-323.5 1826,-323.5 1826,-304.5 1718,-304.5"/>
<text text-anchor="middle" x="1772" y="-311.5" font-family="Helvetica,sans-Serif" font-size="10.00">Core/Kinematics.hpp</text>
</a>
</g>
</g>
<!-- Node1&#45;&gt;Node25 -->
<g id="edge61" class="edge"><title>Node1&#45;&gt;Node25</title>
<path fill="none" stroke="midnightblue" d="M1539.81,-416.425C1597.11,-391.395 1694.69,-348.771 1743.06,-327.644"/>
<polygon fill="midnightblue" stroke="midnightblue" points="1744.56,-330.806 1752.32,-323.596 1741.76,-324.392 1744.56,-330.806"/>
</g>
<!-- Node5&#45;&gt;Node2 -->
<g id="edge9" class="edge"><title>Node5&#45;&gt;Node2</title>
<path fill="none" stroke="midnightblue" d="M886.242,-196.49C962.179,-190.221 1096.51,-177.192 1210,-156 1363.86,-127.269 1397.15,-96.7758 1551,-68 1699.26,-40.2696 1879.07,-24.8086 1951.48,-19.3181"/>
<polygon fill="midnightblue" stroke="midnightblue" points="1952.05,-22.7853 1961.76,-18.551 1951.53,-15.8047 1952.05,-22.7853"/>
</g>
<!-- Node5&#45;&gt;Node3 -->
<g id="edge7" class="edge"><title>Node5&#45;&gt;Node3</title>
<path fill="none" stroke="midnightblue" d="M765.737,-200.238C641.176,-197.997 359.521,-189.293 270,-156 199.862,-129.915 136.077,-64.239 108.883,-33.4322"/>
<polygon fill="midnightblue" stroke="midnightblue" points="111.402,-30.9948 102.208,-25.7296 106.112,-35.579 111.402,-30.9948"/>
</g>
<!-- Node6 -->
<g id="node6" class="node"><title>Node6</title>
<polygon fill="white" stroke="#bfbfbf" points="1560,-68.5 1560,-87.5 1614,-87.5 1614,-68.5 1560,-68.5"/>
<text text-anchor="middle" x="1587" y="-75.5" font-family="Helvetica,sans-Serif" font-size="10.00">iostream</text>
</g>
<!-- Node5&#45;&gt;Node6 -->
<g id="edge5" class="edge"><title>Node5&#45;&gt;Node6</title>
<path fill="none" stroke="midnightblue" d="M886.08,-195.551C961.848,-188.314 1096.01,-174.287 1210,-156 1335.22,-135.912 1482.05,-103.273 1549.57,-87.7445"/>
<polygon fill="midnightblue" stroke="midnightblue" points="1550.75,-91.0632 1559.71,-85.4038 1549.18,-84.2426 1550.75,-91.0632"/>
</g>
<!-- Node7 -->
<g id="node7" class="node"><title>Node7</title>
<polygon fill="white" stroke="#bfbfbf" points="1207.5,-6.5 1207.5,-25.5 1248.5,-25.5 1248.5,-6.5 1207.5,-6.5"/>
<text text-anchor="middle" x="1228" y="-13.5" font-family="Helvetica,sans-Serif" font-size="10.00">string</text>
</g>
<!-- Node5&#45;&gt;Node7 -->
<g id="edge6" class="edge"><title>Node5&#45;&gt;Node7</title>
<path fill="none" stroke="midnightblue" d="M765.741,-201.611C682.124,-200.187 545.882,-188.333 590,-124 659.758,-22.2798 1079.47,-16.3415 1197.27,-16.7065"/>
<polygon fill="midnightblue" stroke="midnightblue" points="1197.39,-20.207 1207.4,-16.7564 1197.42,-13.2071 1197.39,-20.207"/>
</g>
<!-- Node8 -->
<g id="node8" class="node"><title>Node8</title>
<polygon fill="white" stroke="#bfbfbf" points="744,-68.5 744,-87.5 796,-87.5 796,-68.5 744,-68.5"/>
<text text-anchor="middle" x="770" y="-75.5" font-family="Helvetica,sans-Serif" font-size="10.00">sstream</text>
</g>
<!-- Node5&#45;&gt;Node8 -->
<g id="edge8" class="edge"><title>Node5&#45;&gt;Node8</title>
<path fill="none" stroke="midnightblue" d="M765.819,-197.37C706.386,-192.381 621.489,-180.992 601,-156 562.337,-108.839 673.061,-89.3335 733.53,-82.3622"/>
<polygon fill="midnightblue" stroke="midnightblue" points="734.274,-85.802 743.836,-81.2388 733.515,-78.8432 734.274,-85.802"/>
</g>
<!-- Node9 -->
<g id="node9" class="node"><title>Node9</title>
<polygon fill="white" stroke="#bfbfbf" points="1512.5,-130.5 1512.5,-149.5 1547.5,-149.5 1547.5,-130.5 1512.5,-130.5"/>
<text text-anchor="middle" x="1530" y="-137.5" font-family="Helvetica,sans-Serif" font-size="10.00">map</text>
</g>
<!-- Node5&#45;&gt;Node9 -->
<g id="edge10" class="edge"><title>Node5&#45;&gt;Node9</title>
<path fill="none" stroke="midnightblue" d="M886.026,-200.364C1029.38,-198.308 1388.25,-189.835 1503,-156 1504.7,-155.5 1506.41,-154.879 1508.09,-154.177"/>
<polygon fill="midnightblue" stroke="midnightblue" points="1509.96,-157.158 1517.33,-149.548 1506.82,-150.9 1509.96,-157.158"/>
</g>
<!-- Node10 -->
<g id="node10" class="node"><title>Node10</title>
<polygon fill="white" stroke="#bfbfbf" points="420.5,-125 420.5,-155 515.5,-155 515.5,-125 420.5,-125"/>
<text text-anchor="start" x="428.5" y="-143" font-family="Helvetica,sans-Serif" font-size="10.00">boost/serialization</text>
<text text-anchor="middle" x="468" y="-132" font-family="Helvetica,sans-Serif" font-size="10.00">/vector.hpp</text>
</g>
<!-- Node5&#45;&gt;Node10 -->
<g id="edge11" class="edge"><title>Node5&#45;&gt;Node10</title>
<path fill="none" stroke="midnightblue" d="M765.926,-193.418C705.936,-185.483 611.222,-171.968 530,-156 528.54,-155.713 527.062,-155.415 525.573,-155.107"/>
<polygon fill="midnightblue" stroke="midnightblue" points="526.149,-151.651 515.636,-152.965 524.674,-158.494 526.149,-151.651"/>
</g>
<!-- Node11 -->
<g id="node11" class="node"><title>Node11</title>
<polygon fill="white" stroke="#bfbfbf" points="243.5,-1 243.5,-31 338.5,-31 338.5,-1 243.5,-1"/>
<text text-anchor="start" x="251.5" y="-19" font-family="Helvetica,sans-Serif" font-size="10.00">boost/serialization</text>
<text text-anchor="middle" x="291" y="-8" font-family="Helvetica,sans-Serif" font-size="10.00">/shared_ptr.hpp</text>
</g>
<!-- Node5&#45;&gt;Node11 -->
<g id="edge12" class="edge"><title>Node5&#45;&gt;Node11</title>
<path fill="none" stroke="midnightblue" d="M765.819,-199.164C643.349,-194.892 373.966,-182.563 342,-156 310.729,-130.014 331.859,-105.846 317,-68 313.358,-58.7245 308.581,-48.8914 304.116,-40.3603"/>
<polygon fill="midnightblue" stroke="midnightblue" points="307.105,-38.5289 299.285,-31.3807 300.941,-41.8454 307.105,-38.5289"/>
</g>
<!-- Node12 -->
<g id="node12" class="node"><title>Node12</title>
<g id="a_node12"><a xlink:href="../../d8/def/AbsParameter_8hpp.html" target="_top" xlink:title="Core/AbsParameter.hpp">
<polygon fill="white" stroke="red" points="186,-68.5 186,-87.5 308,-87.5 308,-68.5 186,-68.5"/>
<text text-anchor="middle" x="247" y="-75.5" font-family="Helvetica,sans-Serif" font-size="10.00">Core/AbsParameter.hpp</text>
</a>
</g>
</g>
<!-- Node5&#45;&gt;Node12 -->
<g id="edge13" class="edge"><title>Node5&#45;&gt;Node12</title>
<path fill="none" stroke="midnightblue" d="M765.588,-201.592C646.577,-201.818 386.613,-197.384 309,-156 284.21,-142.782 265.774,-114.987 255.701,-96.6598"/>
<polygon fill="midnightblue" stroke="midnightblue" points="258.706,-94.8529 250.978,-87.605 252.5,-98.09 258.706,-94.8529"/>
</g>
<!-- Node13 -->
<g id="node13" class="node"><title>Node13</title>
<g id="a_node13"><a xlink:href="../../db/dce/Parameter_8hpp.html" target="_top" xlink:title="This class implements some internal container of parameters. ">
<polygon fill="white" stroke="red" points="1097,-130.5 1097,-149.5 1201,-149.5 1201,-130.5 1097,-130.5"/>
<text text-anchor="middle" x="1149" y="-137.5" font-family="Helvetica,sans-Serif" font-size="10.00">Core/Parameter.hpp</text>
</a>
</g>
</g>
<!-- Node5&#45;&gt;Node13 -->
<g id="edge18" class="edge"><title>Node5&#45;&gt;Node13</title>
<path fill="none" stroke="midnightblue" d="M879.304,-192.467C931.383,-183.942 1012.84,-170.107 1083,-156 1089.58,-154.677 1096.51,-153.198 1103.3,-151.698"/>
<polygon fill="midnightblue" stroke="midnightblue" points="1104.11,-155.104 1113.1,-149.502 1102.58,-148.273 1104.11,-155.104"/>
</g>
<!-- Node15 -->
<g id="node15" class="node"><title>Node15</title>
<g id="a_node15"><a xlink:href="../../d2/de9/Exceptions_8hpp.html" target="_top" xlink:title="This class defines the ComPWA exception base&#45;class and provides a set of standard exceptions...">
<polygon fill="white" stroke="red" points="1174,-68.5 1174,-87.5 1282,-87.5 1282,-68.5 1174,-68.5"/>
<text text-anchor="middle" x="1228" y="-75.5" font-family="Helvetica,sans-Serif" font-size="10.00">Core/Exceptions.hpp</text>
</a>
</g>
</g>
<!-- Node5&#45;&gt;Node15 -->
<g id="edge27" class="edge"><title>Node5&#45;&gt;Node15</title>
<path fill="none" stroke="midnightblue" d="M868.523,-192.491C906.144,-184.516 962.31,-171.518 1010,-156 1045.63,-144.406 1052.8,-136.854 1088,-124 1121.85,-111.637 1160.94,-99.2253 1189.2,-90.578"/>
<polygon fill="midnightblue" stroke="midnightblue" points="1190.54,-93.8283 1199.09,-87.5695 1188.5,-87.1313 1190.54,-93.8283"/>
</g>
<!-- Node16 -->
<g id="node16" class="node"><title>Node16</title>
<g id="a_node16"><a xlink:href="../../da/db4/Logging_8hpp.html" target="_top" xlink:title="Core/Logging.hpp">
<polygon fill="white" stroke="red" points="1024.5,-68.5 1024.5,-87.5 1117.5,-87.5 1117.5,-68.5 1024.5,-68.5"/>
<text text-anchor="middle" x="1071" y="-75.5" font-family="Helvetica,sans-Serif" font-size="10.00">Core/Logging.hpp</text>
</a>
</g>
</g>
<!-- Node5&#45;&gt;Node16 -->
<g id="edge28" class="edge"><title>Node5&#45;&gt;Node16</title>
<path fill="none" stroke="midnightblue" d="M868.149,-192.467C898.44,-185.31 939.646,-173.429 973,-156 1004.76,-139.402 1036.45,-112.049 1054.86,-94.8058"/>
<polygon fill="midnightblue" stroke="midnightblue" points="1057.52,-97.1055 1062.34,-87.6697 1052.69,-92.0414 1057.52,-97.1055"/>
</g>
<!-- Node17 -->
<g id="node17" class="node"><title>Node17</title>
<polygon fill="white" stroke="#bfbfbf" points="610,-130.5 610,-149.5 704,-149.5 704,-130.5 610,-130.5"/>
<text text-anchor="middle" x="657" y="-137.5" font-family="Helvetica,sans-Serif" font-size="10.00">boost/version.hpp</text>
</g>
<!-- Node5&#45;&gt;Node17 -->
<g id="edge29" class="edge"><title>Node5&#45;&gt;Node17</title>
<path fill="none" stroke="midnightblue" d="M801.786,-192.403C772.671,-182.067 723.632,-164.656 690.798,-152.999"/>
<polygon fill="midnightblue" stroke="midnightblue" points="691.763,-149.628 681.169,-149.581 689.421,-156.225 691.763,-149.628"/>
</g>
<!-- Node18 -->
<g id="node18" class="node"><title>Node18</title>
<polygon fill="white" stroke="#bfbfbf" points="722.5,-125 722.5,-155 817.5,-155 817.5,-125 722.5,-125"/>
<text text-anchor="start" x="730.5" y="-143" font-family="Helvetica,sans-Serif" font-size="10.00">boost/serialization</text>
<text text-anchor="middle" x="770" y="-132" font-family="Helvetica,sans-Serif" font-size="10.00">/split_free.hpp</text>
</g>
<!-- Node5&#45;&gt;Node18 -->
<g id="edge30" class="edge"><title>Node5&#45;&gt;Node18</title>
<path fill="none" stroke="midnightblue" d="M817.977,-192.403C810.747,-184.657 799.809,-172.938 790.202,-162.645"/>
<polygon fill="midnightblue" stroke="midnightblue" points="792.58,-160.063 783.198,-155.141 787.463,-164.84 792.58,-160.063"/>
</g>
<!-- Node19 -->
<g id="node19" class="node"><title>Node19</title>
<polygon fill="white" stroke="#bfbfbf" points="835.5,-130.5 835.5,-149.5 964.5,-149.5 964.5,-130.5 835.5,-130.5"/>
<text text-anchor="middle" x="900" y="-137.5" font-family="Helvetica,sans-Serif" font-size="10.00">boost/unordered_map.hpp</text>
</g>
<!-- Node5&#45;&gt;Node19 -->
<g id="edge31" class="edge"><title>Node5&#45;&gt;Node19</title>
<path fill="none" stroke="midnightblue" d="M836.602,-192.403C848.252,-182.958 867.186,-167.606 881.335,-156.134"/>
<polygon fill="midnightblue" stroke="midnightblue" points="883.854,-158.597 889.417,-149.581 879.445,-153.16 883.854,-158.597"/>
</g>
<!-- Node20 -->
<g id="node20" class="node"><title>Node20</title>
<polygon fill="white" stroke="#bfbfbf" points="351.5,-130.5 351.5,-149.5 402.5,-149.5 402.5,-130.5 351.5,-130.5"/>
<text text-anchor="middle" x="377" y="-137.5" font-family="Helvetica,sans-Serif" font-size="10.00">typeinfo</text>
</g>
<!-- Node5&#45;&gt;Node20 -->
<g id="edge32" class="edge"><title>Node5&#45;&gt;Node20</title>
<path fill="none" stroke="midnightblue" d="M765.843,-200.233C684.155,-197.898 534.204,-189.006 411,-156 408.346,-155.289 405.633,-154.399 402.956,-153.41"/>
<polygon fill="midnightblue" stroke="midnightblue" points="404.155,-150.119 393.577,-149.533 401.481,-156.588 404.155,-150.119"/>
</g>
<!-- Node12&#45;&gt;Node2 -->
<g id="edge15" class="edge"><title>Node12&#45;&gt;Node2</title>
<path fill="none" stroke="midnightblue" d="M308.056,-74.891C587.83,-65.2269 1742.65,-25.3367 1951.53,-18.1215"/>
<polygon fill="midnightblue" stroke="midnightblue" points="1951.95,-21.6091 1961.83,-17.7659 1951.71,-14.6133 1951.95,-21.6091"/>
</g>
<!-- Node12&#45;&gt;Node3 -->
<g id="edge16" class="edge"><title>Node12&#45;&gt;Node3</title>
<path fill="none" stroke="midnightblue" d="M225.222,-68.4035C199.262,-58.1559 155.689,-40.9561 126.165,-29.3021"/>
<polygon fill="midnightblue" stroke="midnightblue" points="127.324,-25.9968 116.737,-25.5806 124.754,-32.5079 127.324,-25.9968"/>
</g>
<!-- Node12&#45;&gt;Node7 -->
<g id="edge14" class="edge"><title>Node12&#45;&gt;Node7</title>
<path fill="none" stroke="midnightblue" d="M308.366,-73.2467C496.231,-61.7565 1059.12,-27.3293 1197.17,-18.8854"/>
<polygon fill="midnightblue" stroke="midnightblue" points="1197.67,-22.3615 1207.44,-18.2575 1197.24,-15.3746 1197.67,-22.3615"/>
</g>
<!-- Node12&#45;&gt;Node11 -->
<g id="edge17" class="edge"><title>Node12&#45;&gt;Node11</title>
<path fill="none" stroke="midnightblue" d="M253.304,-68.4035C258.873,-60.8089 267.243,-49.3959 274.682,-39.2518"/>
<polygon fill="midnightblue" stroke="midnightblue" points="277.539,-41.2747 280.63,-31.1408 271.894,-37.1351 277.539,-41.2747"/>
</g>
<!-- Node13&#45;&gt;Node6 -->
<g id="edge19" class="edge"><title>Node13&#45;&gt;Node6</title>
<path fill="none" stroke="midnightblue" d="M1201.4,-131.822C1290.96,-119.553 1471.39,-94.837 1549.52,-84.1345"/>
<polygon fill="midnightblue" stroke="midnightblue" points="1550.41,-87.545 1559.84,-82.7201 1549.46,-80.6097 1550.41,-87.545"/>
</g>
<!-- Node13&#45;&gt;Node7 -->
<g id="edge20" class="edge"><title>Node13&#45;&gt;Node7</title>
<path fill="none" stroke="midnightblue" d="M1149.15,-130.455C1149.77,-116.397 1152.6,-87.9625 1165,-68 1174.47,-52.7527 1190.15,-40.0376 1203.49,-31.117"/>
<polygon fill="midnightblue" stroke="midnightblue" points="1205.68,-33.8733 1212.25,-25.5629 1201.93,-27.9613 1205.68,-33.8733"/>
</g>
<!-- Node13&#45;&gt;Node8 -->
<g id="edge21" class="edge"><title>Node13&#45;&gt;Node8</title>
<path fill="none" stroke="midnightblue" d="M1096.7,-130.72C1018.63,-118.362 873.615,-95.4035 806.198,-84.7305"/>
<polygon fill="midnightblue" stroke="midnightblue" points="806.49,-81.2333 796.066,-83.1265 805.396,-88.1472 806.49,-81.2333"/>
</g>
<!-- Node13&#45;&gt;Node12 -->
<g id="edge23" class="edge"><title>Node13&#45;&gt;Node12</title>
<path fill="none" stroke="midnightblue" d="M1096.66,-134.22C1061.67,-131.103 1014.59,-127.061 973,-124 733.274,-106.357 448.672,-90.0725 318.459,-82.88"/>
<polygon fill="midnightblue" stroke="midnightblue" points="318.401,-79.3716 308.224,-82.3158 318.016,-86.361 318.401,-79.3716"/>
</g>
<!-- Node14 -->
<g id="node14" class="node"><title>Node14</title>
<polygon fill="white" stroke="#bfbfbf" points="1300.5,-68.5 1300.5,-87.5 1353.5,-87.5 1353.5,-68.5 1300.5,-68.5"/>
<text text-anchor="middle" x="1327" y="-75.5" font-family="Helvetica,sans-Serif" font-size="10.00">complex</text>
</g>
<!-- Node13&#45;&gt;Node14 -->
<g id="edge22" class="edge"><title>Node13&#45;&gt;Node14</title>
<path fill="none" stroke="midnightblue" d="M1174.5,-130.403C1205.3,-120.022 1257.27,-102.506 1291.85,-90.849"/>
<polygon fill="midnightblue" stroke="midnightblue" points="1293.19,-94.0915 1301.54,-87.5806 1290.95,-87.4582 1293.19,-94.0915"/>
</g>
<!-- Node13&#45;&gt;Node15 -->
<g id="edge24" class="edge"><title>Node13&#45;&gt;Node15</title>
<path fill="none" stroke="midnightblue" d="M1160.32,-130.403C1172.87,-120.869 1193.35,-105.315 1208.5,-93.8106"/>
<polygon fill="midnightblue" stroke="midnightblue" points="1210.86,-96.4162 1216.7,-87.5806 1206.62,-90.8417 1210.86,-96.4162"/>
</g>
<!-- Node13&#45;&gt;Node16 -->
<g id="edge26" class="edge"><title>Node13&#45;&gt;Node16</title>
<path fill="none" stroke="midnightblue" d="M1137.82,-130.403C1125.43,-120.869 1105.21,-105.315 1090.25,-93.8106"/>
<polygon fill="midnightblue" stroke="midnightblue" points="1092.22,-90.9035 1082.15,-87.5806 1087.95,-96.4519 1092.22,-90.9035"/>
</g>
<!-- Node15&#45;&gt;Node7 -->
<g id="edge25" class="edge"><title>Node15&#45;&gt;Node7</title>
<path fill="none" stroke="midnightblue" d="M1228,-68.4035C1228,-59.9381 1228,-46.7283 1228,-35.8199"/>
<polygon fill="midnightblue" stroke="midnightblue" points="1231.5,-35.5806 1228,-25.5806 1224.5,-35.5806 1231.5,-35.5806"/>
</g>
<!-- Node21&#45;&gt;Node2 -->
<g id="edge34" class="edge"><title>Node21&#45;&gt;Node2</title>
<path fill="none" stroke="midnightblue" d="M1284.31,-368.189C1486.77,-364.613 2147,-346.259 2147,-259 2147,-259 2147,-259 2147,-139 2147,-74.2907 2063.65,-39.7414 2016.15,-25.3078"/>
<polygon fill="midnightblue" stroke="midnightblue" points="2016.9,-21.8813 2006.32,-22.4515 2014.95,-28.6032 2016.9,-21.8813"/>
</g>
<!-- Node21&#45;&gt;Node3 -->
<g id="edge35" class="edge"><title>Node21&#45;&gt;Node3</title>
<path fill="none" stroke="midnightblue" d="M1167.71,-364.018C1059.04,-354.643 829.321,-334.385 750,-324 600.757,-304.46 561.857,-305.161 416,-268 342.178,-249.192 322.518,-245.298 254,-212 181.019,-176.533 156.869,-160.283 120,-88 111.294,-70.9309 104.359,-50.1233 100.023,-35.4591"/>
<polygon fill="midnightblue" stroke="midnightblue" points="103.324,-34.2712 97.2276,-25.6064 96.5903,-36.1821 103.324,-34.2712"/>
</g>
<!-- Node21&#45;&gt;Node7 -->
<g id="edge36" class="edge"><title>Node21&#45;&gt;Node7</title>
<path fill="none" stroke="midnightblue" d="M1284.17,-360.832C1341,-349.186 1419,-321.768 1419,-259 1419,-259 1419,-259 1419,-201 1419,-136.689 1408.4,-112.528 1362,-68 1333.4,-40.5578 1288.54,-27.5228 1258.71,-21.5893"/>
<polygon fill="midnightblue" stroke="midnightblue" points="1259.3,-18.14 1248.84,-19.7747 1258.04,-25.0247 1259.3,-18.14"/>
</g>
<!-- Node21&#45;&gt;Node9 -->
<g id="edge37" class="edge"><title>Node21&#45;&gt;Node9</title>
<path fill="none" stroke="midnightblue" d="M1284.1,-361.912C1336.89,-354.498 1409.92,-341.498 1433,-324 1461.86,-302.116 1505.37,-201.342 1522.6,-159.398"/>
<polygon fill="midnightblue" stroke="midnightblue" points="1525.95,-160.454 1526.47,-149.872 1519.46,-157.817 1525.95,-160.454"/>
</g>
<!-- Node21&#45;&gt;Node12 -->
<g id="edge58" class="edge"><title>Node21&#45;&gt;Node12</title>
<path fill="none" stroke="midnightblue" d="M1168,-361.705C975.134,-337.123 363.188,-256.377 286,-212 257.074,-195.37 247.892,-187.175 236,-156 228.726,-136.933 233.874,-113.544 239.312,-97.5801"/>
<polygon fill="midnightblue" stroke="midnightblue" points="242.724,-98.451 242.974,-87.8591 236.174,-95.9831 242.724,-98.451"/>
</g>
<!-- Node21&#45;&gt;Node13 -->
<g id="edge59" class="edge"><title>Node21&#45;&gt;Node13</title>
<path fill="none" stroke="midnightblue" d="M1219.24,-360.416C1206.46,-343.706 1178.92,-305.181 1166,-268 1153.14,-231.011 1149.93,-184.839 1149.18,-159.604"/>
<polygon fill="midnightblue" stroke="midnightblue" points="1152.68,-159.52 1148.98,-149.592 1145.68,-159.659 1152.68,-159.52"/>
</g>
<!-- Node22 -->
<g id="node22" class="node"><title>Node22</title>
<g id="a_node22"><a xlink:href="../../dc/d66/Functions_8hpp.html" target="_top" xlink:title="This file contains Functions implementing the Strategy interface so they can be used inside a node of...">
<polygon fill="white" stroke="black" points="1175,-248.5 1175,-267.5 1277,-267.5 1277,-248.5 1175,-248.5"/>
<text text-anchor="middle" x="1226" y="-255.5" font-family="Helvetica,sans-Serif" font-size="10.00">Core/Functions.hpp</text>
</a>
</g>
</g>
<!-- Node21&#45;&gt;Node22 -->
<g id="edge38" class="edge"><title>Node21&#45;&gt;Node22</title>
<path fill="none" stroke="midnightblue" d="M1226,-360.368C1226,-342.617 1226,-301.666 1226,-277.597"/>
<polygon fill="midnightblue" stroke="midnightblue" points="1229.5,-277.591 1226,-267.591 1222.5,-277.591 1229.5,-277.591"/>
</g>
<!-- Node24 -->
<g id="node24" class="node"><title>Node24</title>
<g id="a_node24"><a xlink:href="../../df/d5a/TreeNode_8hpp.html" target="_top" xlink:title="This class acts as a container for a parameter in a function tree. ">
<polygon fill="white" stroke="red" points="998,-304.5 998,-323.5 1100,-323.5 1100,-304.5 998,-304.5"/>
<text text-anchor="middle" x="1049" y="-311.5" font-family="Helvetica,sans-Serif" font-size="10.00">Core/TreeNode.hpp</text>
</a>
</g>
</g>
<!-- Node21&#45;&gt;Node24 -->
<g id="edge50" class="edge"><title>Node21&#45;&gt;Node24</title>
<path fill="none" stroke="midnightblue" d="M1197.95,-360.444C1167.92,-351.28 1120.09,-336.688 1086.76,-326.519"/>
<polygon fill="midnightblue" stroke="midnightblue" points="1087.5,-323.087 1076.91,-323.516 1085.46,-329.782 1087.5,-323.087"/>
</g>
<!-- Node22&#45;&gt;Node2 -->
<g id="edge39" class="edge"><title>Node22&#45;&gt;Node2</title>
<path fill="none" stroke="midnightblue" d="M1277.26,-255.036C1400.1,-250.007 1708.52,-235.396 1809,-212 1841.63,-204.401 1926.28,-180.633 1949,-156 1979.98,-122.407 1984.52,-65.4903 1984.62,-35.9929"/>
<polygon fill="midnightblue" stroke="midnightblue" points="1988.11,-35.7629 1984.47,-25.8143 1981.12,-35.8636 1988.11,-35.7629"/>
</g>
<!-- Node22&#45;&gt;Node4 -->
<g id="edge41" class="edge"><title>Node22&#45;&gt;Node4</title>
<path fill="none" stroke="midnightblue" d="M1244.02,-248.47C1286.49,-228.359 1393.12,-177.874 1443.64,-153.955"/>
<polygon fill="midnightblue" stroke="midnightblue" points="1445.42,-156.985 1452.96,-149.542 1442.42,-150.658 1445.42,-156.985"/>
</g>
<!-- Node22&#45;&gt;Node5 -->
<g id="edge43" class="edge"><title>Node22&#45;&gt;Node5</title>
<path fill="none" stroke="midnightblue" d="M1174.93,-250.106C1104.14,-240.549 975.914,-223.238 896.173,-212.473"/>
<polygon fill="midnightblue" stroke="midnightblue" points="896.594,-208.999 886.216,-211.129 895.658,-215.936 896.594,-208.999"/>
</g>
<!-- Node22&#45;&gt;Node12 -->
<g id="edge45" class="edge"><title>Node22&#45;&gt;Node12</title>
<path fill="none" stroke="midnightblue" d="M1174.97,-254.903C986.906,-246.733 339.874,-214.557 270,-156 253.078,-141.819 248.288,-115.746 247.098,-97.9033"/>
<polygon fill="midnightblue" stroke="midnightblue" points="250.592,-97.6766 246.744,-87.8052 243.596,-97.9215 250.592,-97.6766"/>
</g>
<!-- Node22&#45;&gt;Node13 -->
<g id="edge44" class="edge"><title>Node22&#45;&gt;Node13</title>
<path fill="none" stroke="midnightblue" d="M1220.21,-248.281C1207.5,-229.126 1176.93,-183.083 1160.28,-157.994"/>
<polygon fill="midnightblue" stroke="midnightblue" points="1163.09,-155.901 1154.65,-149.505 1157.26,-159.772 1163.09,-155.901"/>
</g>
<!-- Node22&#45;&gt;Node14 -->
<g id="edge40" class="edge"><title>Node22&#45;&gt;Node14</title>
<path fill="none" stroke="midnightblue" d="M1230.87,-248.415C1246.5,-220.875 1295.59,-134.363 1316.93,-96.7528"/>
<polygon fill="midnightblue" stroke="midnightblue" points="1320.05,-98.3432 1321.94,-87.9185 1313.96,-94.8886 1320.05,-98.3432"/>
</g>
<!-- Node22&#45;&gt;Node15 -->
<g id="edge42" class="edge"><title>Node22&#45;&gt;Node15</title>
<path fill="none" stroke="midnightblue" d="M1226.1,-248.415C1226.4,-221.227 1227.35,-136.563 1227.78,-98.2169"/>
<polygon fill="midnightblue" stroke="midnightblue" points="1231.29,-97.9572 1227.9,-87.9185 1224.29,-97.8785 1231.29,-97.9572"/>
</g>
<!-- Node22&#45;&gt;Node23 -->
<g id="edge46" class="edge"><title>Node22&#45;&gt;Node23</title>
<path fill="none" stroke="midnightblue" d="M1277.12,-249.09C1339.88,-239.379 1446.24,-222.923 1513.43,-212.527"/>
<polygon fill="midnightblue" stroke="midnightblue" points="1514.11,-215.963 1523.46,-210.975 1513.04,-209.045 1514.11,-215.963"/>
</g>
<!-- Node23&#45;&gt;Node2 -->
<g id="edge48" class="edge"><title>Node23&#45;&gt;Node2</title>
<path fill="none" stroke="midnightblue" d="M1593.91,-192.494C1659.44,-163.01 1877.15,-65.0716 1955.55,-29.7993"/>
<polygon fill="midnightblue" stroke="midnightblue" points="1957.14,-32.9223 1964.82,-25.6277 1954.27,-26.5386 1957.14,-32.9223"/>
</g>
<!-- Node23&#45;&gt;Node4 -->
<g id="edge47" class="edge"><title>Node23&#45;&gt;Node4</title>
<path fill="none" stroke="midnightblue" d="M1560.1,-192.403C1543.03,-182.557 1514.84,-166.291 1494.74,-154.695"/>
<polygon fill="midnightblue" stroke="midnightblue" points="1496.28,-151.546 1485.87,-149.581 1492.79,-157.61 1496.28,-151.546"/>
</g>
<!-- Node23&#45;&gt;Node9 -->
<g id="edge49" class="edge"><title>Node23&#45;&gt;Node9</title>
<path fill="none" stroke="midnightblue" d="M1568.55,-192.403C1561.8,-183.403 1551.03,-169.041 1542.59,-157.782"/>
<polygon fill="midnightblue" stroke="midnightblue" points="1545.24,-155.481 1536.44,-149.581 1539.64,-159.681 1545.24,-155.481"/>
</g>
<!-- Node24&#45;&gt;Node3 -->
<g id="edge53" class="edge"><title>Node24&#45;&gt;Node3</title>
<path fill="none" stroke="midnightblue" d="M997.788,-310.403C847.902,-302.154 412.714,-273.392 286,-212 209.079,-174.732 194.872,-152.684 139,-88 124.829,-71.5933 112.203,-50.1355 104.151,-35.1213"/>
<polygon fill="midnightblue" stroke="midnightblue" points="107.07,-33.1483 99.3446,-25.8977 100.862,-36.3833 107.07,-33.1483"/>
</g>
<!-- Node24&#45;&gt;Node5 -->
<g id="edge55" class="edge"><title>Node24&#45;&gt;Node5</title>
<path fill="none" stroke="midnightblue" d="M1031.5,-304.368C992.583,-285.171 898.661,-238.842 852.504,-216.074"/>
<polygon fill="midnightblue" stroke="midnightblue" points="853.934,-212.876 843.417,-211.591 850.837,-219.154 853.934,-212.876"/>
</g>
<!-- Node24&#45;&gt;Node7 -->
<g id="edge51" class="edge"><title>Node24&#45;&gt;Node7</title>
<path fill="none" stroke="midnightblue" d="M1043.7,-304.228C1023.65,-269.8 956.49,-142.174 1015,-68 1037.36,-39.6512 1143.77,-25.2959 1197.22,-19.7736"/>
<polygon fill="midnightblue" stroke="midnightblue" points="1197.86,-23.2272 1207.47,-18.7564 1197.17,-16.2614 1197.86,-23.2272"/>
</g>
<!-- Node24&#45;&gt;Node12 -->
<g id="edge56" class="edge"><title>Node24&#45;&gt;Node12</title>
<path fill="none" stroke="midnightblue" d="M997.964,-308.698C887.115,-298.573 616.65,-269.632 397,-212 328.571,-194.046 288.651,-213.899 248,-156 236.027,-138.946 238.262,-114.117 241.843,-97.3006"/>
<polygon fill="midnightblue" stroke="midnightblue" points="245.246,-98.1179 244.255,-87.5696 238.452,-96.434 245.246,-98.1179"/>
</g>
<!-- Node24&#45;&gt;Node13 -->
<g id="edge57" class="edge"><title>Node24&#45;&gt;Node13</title>
<path fill="none" stroke="midnightblue" d="M1054.1,-304.234C1069.81,-277.202 1117.74,-194.773 1138.84,-158.475"/>
<polygon fill="midnightblue" stroke="midnightblue" points="1142.03,-159.948 1144.03,-149.544 1135.98,-156.43 1142.03,-159.948"/>
</g>
<!-- Node24&#45;&gt;Node14 -->
<g id="edge52" class="edge"><title>Node24&#45;&gt;Node14</title>
<path fill="none" stroke="midnightblue" d="M1100.24,-309.712C1161.57,-304.706 1259.25,-292.978 1285,-268 1332.22,-222.183 1331.79,-135.928 1328.96,-97.8652"/>
<polygon fill="midnightblue" stroke="midnightblue" points="1332.43,-97.3494 1328.06,-87.698 1325.46,-97.9682 1332.43,-97.3494"/>
</g>
<!-- Node24&#45;&gt;Node22 -->
<g id="edge54" class="edge"><title>Node24&#45;&gt;Node22</title>
<path fill="none" stroke="midnightblue" d="M1077.05,-304.444C1107.08,-295.28 1154.91,-280.688 1188.24,-270.519"/>
<polygon fill="midnightblue" stroke="midnightblue" points="1189.54,-273.782 1198.09,-267.516 1187.5,-267.087 1189.54,-273.782"/>
</g>
<!-- Node25&#45;&gt;Node2 -->
<g id="edge62" class="edge"><title>Node25&#45;&gt;Node2</title>
<path fill="none" stroke="midnightblue" d="M1826.06,-307.834C1860.62,-302.363 1904.97,-291.112 1938,-268 1987.91,-233.074 1997.31,-213.644 2017,-156 2029.65,-118.968 2031.84,-105.3 2020,-68 2015.93,-55.1875 2007.36,-42.8187 1999.59,-33.4711"/>
<polygon fill="midnightblue" stroke="midnightblue" points="2002.08,-31.0017 1992.85,-25.81 1996.83,-35.628 2002.08,-31.0017"/>
</g>
<!-- Node25&#45;&gt;Node7 -->
<g id="edge63" class="edge"><title>Node25&#45;&gt;Node7</title>
<path fill="none" stroke="midnightblue" d="M1778.73,-304.496C1793.82,-284.328 1827.63,-232.276 1809,-192 1771.97,-111.927 1735.92,-100.744 1654,-68 1581.78,-39.1346 1343.94,-23.4265 1258.72,-18.617"/>
<polygon fill="midnightblue" stroke="midnightblue" points="1258.82,-15.1176 1248.65,-18.0595 1258.44,-22.1069 1258.82,-15.1176"/>
</g>
<!-- Node25&#45;&gt;Node14 -->
<g id="edge64" class="edge"><title>Node25&#45;&gt;Node14</title>
<path fill="none" stroke="midnightblue" d="M1766.69,-304.325C1747.36,-273.577 1677.2,-169.217 1589,-124 1515.42,-86.2772 1416.51,-79.3142 1363.76,-78.533"/>
<polygon fill="midnightblue" stroke="midnightblue" points="1363.56,-75.0314 1353.54,-78.4515 1363.51,-82.0312 1363.56,-75.0314"/>
</g>
<!-- Node25&#45;&gt;Node23 -->
<g id="edge83" class="edge"><title>Node25&#45;&gt;Node23</title>
<path fill="none" stroke="midnightblue" d="M1717.8,-305.471C1671.84,-298.02 1610.65,-285.237 1593,-268 1580.7,-255.994 1576.59,-236.39 1575.32,-221.846"/>
<polygon fill="midnightblue" stroke="midnightblue" points="1578.8,-221.323 1574.81,-211.509 1571.81,-221.67 1578.8,-221.323"/>
</g>
<!-- Node26 -->
<g id="node26" class="node"><title>Node26</title>
<g id="a_node26"><a xlink:href="../../df/d7d/Event_8hpp.html" target="_top" xlink:title="This class provides a internal container for event&#45;based information. ">
<polygon fill="white" stroke="red" points="1832.5,-130.5 1832.5,-149.5 1917.5,-149.5 1917.5,-130.5 1832.5,-130.5"/>
<text text-anchor="middle" x="1875" y="-137.5" font-family="Helvetica,sans-Serif" font-size="10.00">Core/Event.hpp</text>
</a>
</g>
</g>
<!-- Node25&#45;&gt;Node26 -->
<g id="edge65" class="edge"><title>Node25&#45;&gt;Node26</title>
<path fill="none" stroke="midnightblue" d="M1826.21,-311.627C1858.75,-307.653 1897.81,-296.646 1919,-268 1939.09,-240.844 1930.77,-223.661 1919,-192 1913.91,-178.299 1903.3,-165.818 1893.77,-156.633"/>
<polygon fill="midnightblue" stroke="midnightblue" points="1895.93,-153.865 1886.17,-149.738 1891.23,-159.049 1895.93,-153.865"/>
</g>
<!-- Node27 -->
<g id="node27" class="node"><title>Node27</title>
<g id="a_node27"><a xlink:href="../../dd/df5/SubSystem_8hpp.html" target="_top" xlink:title="Contains SubSystem class. ">
<polygon fill="white" stroke="red" points="2009,-248.5 2009,-267.5 2119,-267.5 2119,-248.5 2009,-248.5"/>
<text text-anchor="middle" x="2064" y="-255.5" font-family="Helvetica,sans-Serif" font-size="10.00">Core/SubSystem.hpp</text>
</a>
</g>
</g>
<!-- Node25&#45;&gt;Node27 -->
<g id="edge69" class="edge"><title>Node25&#45;&gt;Node27</title>
<path fill="none" stroke="midnightblue" d="M1818.27,-304.444C1869.74,-294.925 1952.89,-279.547 2008,-269.356"/>
<polygon fill="midnightblue" stroke="midnightblue" points="2008.75,-272.777 2017.95,-267.516 2007.48,-265.893 2008.75,-272.777"/>
</g>
<!-- Node28 -->
<g id="node28" class="node"><title>Node28</title>
<g id="a_node28"><a xlink:href="../../dc/ded/Properties_8hpp.html" target="_top" xlink:title="Core/Properties.hpp">
<polygon fill="white" stroke="red" points="1602,-248.5 1602,-267.5 1706,-267.5 1706,-248.5 1602,-248.5"/>
<text text-anchor="middle" x="1654" y="-255.5" font-family="Helvetica,sans-Serif" font-size="10.00">Core/Properties.hpp</text>
</a>
</g>
</g>
<!-- Node25&#45;&gt;Node28 -->
<g id="edge71" class="edge"><title>Node25&#45;&gt;Node28</title>
<path fill="none" stroke="midnightblue" d="M1753.3,-304.444C1734.06,-295.636 1703.85,-281.812 1681.8,-271.722"/>
<polygon fill="midnightblue" stroke="midnightblue" points="1683.16,-268.495 1672.61,-267.516 1680.25,-274.86 1683.16,-268.495"/>
</g>
<!-- Node29 -->
<g id="node29" class="node"><title>Node29</title>
<g id="a_node29"><a xlink:href="../../d9/dfb/Spin_8hpp.html" target="_top" xlink:title="Core/Spin.hpp">
<polygon fill="white" stroke="black" points="1721.5,-192.5 1721.5,-211.5 1800.5,-211.5 1800.5,-192.5 1721.5,-192.5"/>
<text text-anchor="middle" x="1761" y="-199.5" font-family="Helvetica,sans-Serif" font-size="10.00">Core/Spin.hpp</text>
</a>
</g>
</g>
<!-- Node25&#45;&gt;Node29 -->
<g id="edge82" class="edge"><title>Node25&#45;&gt;Node29</title>
<path fill="none" stroke="midnightblue" d="M1771.14,-304.368C1769.36,-286.617 1765.27,-245.666 1762.86,-221.597"/>
<polygon fill="midnightblue" stroke="midnightblue" points="1766.34,-221.193 1761.86,-211.591 1759.37,-221.89 1766.34,-221.193"/>
</g>
<!-- Node26&#45;&gt;Node2 -->
<g id="edge66" class="edge"><title>Node26&#45;&gt;Node2</title>
<path fill="none" stroke="midnightblue" d="M1881.36,-130.427C1891.57,-116.807 1912.48,-89.5611 1932,-68 1943.12,-55.7217 1956.47,-42.6565 1966.86,-32.824"/>
<polygon fill="midnightblue" stroke="midnightblue" points="1969.55,-35.0982 1974.46,-25.7084 1964.77,-29.9885 1969.55,-35.0982"/>
</g>
<!-- Node26&#45;&gt;Node6 -->
<g id="edge68" class="edge"><title>Node26&#45;&gt;Node6</title>
<path fill="none" stroke="midnightblue" d="M1834.04,-130.467C1777.87,-118.765 1677.78,-97.9124 1623.85,-86.6772"/>
<polygon fill="midnightblue" stroke="midnightblue" points="1624.53,-83.243 1614.02,-84.6298 1623.1,-90.0958 1624.53,-83.243"/>
</g>
<!-- Node26&#45;&gt;Node7 -->
<g id="edge67" class="edge"><title>Node26&#45;&gt;Node7</title>
<path fill="none" stroke="midnightblue" d="M1869.87,-130.322C1860.09,-114.688 1837.13,-82.1106 1808,-68 1709.81,-20.4434 1364.83,-16.826 1259.06,-16.8608"/>
<polygon fill="midnightblue" stroke="midnightblue" points="1258.75,-13.3612 1248.75,-16.8764 1258.76,-20.3612 1258.75,-13.3612"/>
</g>
<!-- Node27&#45;&gt;Node2 -->
<g id="edge70" class="edge"><title>Node27&#45;&gt;Node2</title>
<path fill="none" stroke="midnightblue" d="M2067.58,-248.313C2078.63,-220.007 2109.4,-128.754 2074,-68 2061.57,-46.6642 2036.53,-33.5349 2016.01,-25.9516"/>
<polygon fill="midnightblue" stroke="midnightblue" points="2016.97,-22.5811 2006.37,-22.6628 2014.71,-29.2058 2016.97,-22.5811"/>
</g>
<!-- Node28&#45;&gt;Node2 -->
<g id="edge72" class="edge"><title>Node28&#45;&gt;Node2</title>
<path fill="none" stroke="midnightblue" d="M1706.11,-249.652C1793.72,-236.08 1964.29,-204.015 1998,-156 2023.69,-119.402 2005.12,-63.4282 1992.71,-34.966"/>
<polygon fill="midnightblue" stroke="midnightblue" points="1995.86,-33.442 1988.51,-25.8115 1989.5,-36.3602 1995.86,-33.442"/>
</g>
<!-- Node28&#45;&gt;Node5 -->
<g id="edge75" class="edge"><title>Node28&#45;&gt;Node5</title>
<path fill="none" stroke="midnightblue" d="M1601.89,-253.602C1458.78,-244.268 1059.54,-218.231 896.607,-207.605"/>
<polygon fill="midnightblue" stroke="midnightblue" points="896.428,-204.086 886.221,-206.927 895.972,-211.071 896.428,-204.086"/>
</g>
<!-- Node28&#45;&gt;Node13 -->
<g id="edge74" class="edge"><title>Node28&#45;&gt;Node13</title>
<path fill="none" stroke="midnightblue" d="M1616.87,-248.47C1526.58,-227.731 1295.66,-174.689 1195.98,-151.792"/>
<polygon fill="midnightblue" stroke="midnightblue" points="1196.72,-148.37 1186.19,-149.542 1195.15,-155.192 1196.72,-148.37"/>
</g>
<!-- Node28&#45;&gt;Node15 -->
<g id="edge73" class="edge"><title>Node28&#45;&gt;Node15</title>
<path fill="none" stroke="midnightblue" d="M1653.06,-248.356C1651.3,-235.253 1646.59,-209.989 1635,-192 1628.73,-182.263 1566.56,-128.753 1556,-124 1450.57,-76.5568 1410.9,-102.867 1292.47,-88.1236"/>
<polygon fill="midnightblue" stroke="midnightblue" points="1292.66,-84.6189 1282.29,-86.7803 1291.75,-91.5587 1292.66,-84.6189"/>
</g>
<!-- Node28&#45;&gt;Node29 -->
<g id="edge76" class="edge"><title>Node28&#45;&gt;Node29</title>
<path fill="none" stroke="midnightblue" d="M1671.19,-248.324C1688.35,-239.664 1714.95,-226.242 1734.75,-216.249"/>
<polygon fill="midnightblue" stroke="midnightblue" points="1736.5,-219.285 1743.85,-211.655 1733.35,-213.035 1736.5,-219.285"/>
</g>
<!-- Node29&#45;&gt;Node2 -->
<g id="edge79" class="edge"><title>Node29&#45;&gt;Node2</title>
<path fill="none" stroke="midnightblue" d="M1800.59,-194.328C1843.22,-186.443 1907.43,-172.315 1926,-156 1944.88,-139.408 1968.12,-69.3346 1978.52,-35.4716"/>
<polygon fill="midnightblue" stroke="midnightblue" points="1981.99,-36.0902 1981.53,-25.5053 1975.28,-34.0666 1981.99,-36.0902"/>
</g>
<!-- Node29&#45;&gt;Node6 -->
<g id="edge80" class="edge"><title>Node29&#45;&gt;Node6</title>
<path fill="none" stroke="midnightblue" d="M1751.43,-192.354C1734.74,-177.49 1698.95,-146.519 1666,-124 1648.95,-112.348 1628.69,-100.851 1612.96,-92.3952"/>
<polygon fill="midnightblue" stroke="midnightblue" points="1614.29,-89.1404 1603.82,-87.5488 1611.01,-95.325 1614.29,-89.1404"/>
</g>
<!-- Node29&#45;&gt;Node7 -->
<g id="edge77" class="edge"><title>Node29&#45;&gt;Node7</title>
<path fill="none" stroke="midnightblue" d="M1755.52,-192.162C1739.2,-166.779 1687.93,-93.8274 1623,-68 1556.59,-41.5838 1339.87,-24.575 1258.9,-19.0054"/>
<polygon fill="midnightblue" stroke="midnightblue" points="1259.05,-15.5079 1248.83,-18.3246 1258.58,-22.4919 1259.05,-15.5079"/>
</g>
<!-- Node29&#45;&gt;Node9 -->
<g id="edge78" class="edge"><title>Node29&#45;&gt;Node9</title>
<path fill="none" stroke="midnightblue" d="M1727.9,-192.403C1682.03,-180.489 1599.98,-159.178 1557.37,-148.11"/>
<polygon fill="midnightblue" stroke="midnightblue" points="1558.24,-144.719 1547.68,-145.592 1556.48,-151.494 1558.24,-144.719"/>
</g>
<!-- Node29&#45;&gt;Node15 -->
<g id="edge81" class="edge"><title>Node29&#45;&gt;Node15</title>
<path fill="none" stroke="midnightblue" d="M1742.9,-192.472C1702.19,-173.353 1605.76,-128.387 1590,-124 1464.2,-88.9862 1425.58,-104.65 1292.46,-88.1343"/>
<polygon fill="midnightblue" stroke="midnightblue" points="1292.65,-84.63 1282.29,-86.8326 1291.76,-91.5734 1292.65,-84.63"/>
</g>
</g>
</svg>
