<?xml version="1.0" encoding="UTF-8" standalone="no"?>
<!DOCTYPE svg PUBLIC "-//W3C//DTD SVG 1.1//EN"
 "http://www.w3.org/Graphics/SVG/1.1/DTD/svg11.dtd">
<!-- Generated by graphviz version 2.26.3 (20100126.1600)
 -->
<!-- Title: G Pages: 1 -->
<svg width="1395pt" height="436pt"
 viewBox="0.00 0.00 1395.24 436.00" xmlns="http://www.w3.org/2000/svg" xmlns:xlink="http://www.w3.org/1999/xlink">
<g id="graph1" class="graph" transform="scale(1 1) rotate(0) translate(4 432)">
<title>G</title>
<polygon fill="white" stroke="white" points="-4,5 -4,-432 1392.24,-432 1392.24,5 -4,5"/>
<!-- Node1 -->
<g id="node1" class="node"><title>Node1</title>
<polygon fill="#bfbfbf" stroke="black" points="961.5,-406.5 961.5,-427.5 1078.5,-427.5 1078.5,-406.5 961.5,-406.5"/>
<text text-anchor="middle" x="1020" y="-414.5" font-family="Helvetica,sans-Serif" font-size="10.00">Physics/Amplitude.hpp</text>
</g>
<!-- Node2 -->
<g id="node3" class="node"><title>Node2</title>
<polygon fill="white" stroke="#bfbfbf" points="827,-0.5 827,-21.5 871,-21.5 871,-0.5 827,-0.5"/>
<text text-anchor="middle" x="849" y="-8.5" font-family="Helvetica,sans-Serif" font-size="10.00">vector</text>
</g>
<!-- Node1&#45;&gt;Node2 -->
<g id="edge2" class="edge"><title>Node1&#45;&gt;Node2</title>
<path fill="none" stroke="midnightblue" d="M1020.71,-406.156C1022.25,-376.97 1024.07,-294.727 1001,-232 970.049,-147.84 899.659,-65.2481 866.674,-29.4828"/>
<polygon fill="midnightblue" stroke="midnightblue" points="868.886,-26.7241 859.501,-21.8072 863.772,-31.5034 868.886,-26.7241"/>
</g>
<!-- Node3 -->
<g id="node5" class="node"><title>Node3</title>
<polygon fill="white" stroke="#bfbfbf" points="994,-0.5 994,-21.5 1046,-21.5 1046,-0.5 994,-0.5"/>
<text text-anchor="middle" x="1020" y="-8.5" font-family="Helvetica,sans-Serif" font-size="10.00">memory</text>
</g>
<!-- Node1&#45;&gt;Node3 -->
<g id="edge4" class="edge"><title>Node1&#45;&gt;Node3</title>
<path fill="none" stroke="midnightblue" d="M1078.8,-410.674C1182.26,-397.898 1386,-364.657 1386,-301 1386,-301 1386,-301 1386,-127 1386,-95.1919 1390.95,-78.9345 1367,-58 1343.85,-37.7598 1140.51,-20.1525 1056.29,-13.661"/>
<polygon fill="midnightblue" stroke="midnightblue" points="1056.4,-10.1592 1046.16,-12.8898 1055.86,-17.139 1056.4,-10.1592"/>
</g>
<!-- Node4 -->
<g id="node7" class="node"><title>Node4</title>
<a xlink:href="../../df/d9f/ParameterList_8hpp.xhtml" target="_top" xlink:title="This class provides a list of fit parameters which can have different types.">
<polygon fill="white" stroke="black" points="561,-174.5 561,-195.5 681,-195.5 681,-174.5 561,-174.5"/>
<text text-anchor="middle" x="621" y="-182.5" font-family="Helvetica,sans-Serif" font-size="10.00">Core/ParameterList.hpp</text>
</a>
</g>
<!-- Node1&#45;&gt;Node4 -->
<g id="edge6" class="edge"><title>Node1&#45;&gt;Node4</title>
<path fill="none" stroke="midnightblue" d="M1001.82,-406.429C938.076,-369.365 724.477,-245.167 648.287,-200.866"/>
<polygon fill="midnightblue" stroke="midnightblue" points="649.692,-197.634 639.288,-195.634 646.173,-203.686 649.692,-197.634"/>
</g>
<!-- Node16 -->
<g id="node42" class="node"><title>Node16</title>
<a xlink:href="../../da/db2/FunctionTree_8hpp.xhtml" target="_top" xlink:title="This class can be used to store a function in a tree&#45;like structure.">
<polygon fill="white" stroke="black" points="556,-348.5 556,-369.5 672,-369.5 672,-348.5 556,-348.5"/>
<text text-anchor="middle" x="614" y="-356.5" font-family="Helvetica,sans-Serif" font-size="10.00">Core/FunctionTree.hpp</text>
</a>
</g>
<!-- Node1&#45;&gt;Node16 -->
<g id="edge52" class="edge"><title>Node1&#45;&gt;Node16</title>
<path fill="none" stroke="midnightblue" d="M961.398,-408.628C887.526,-398.075 760.76,-379.966 682.495,-368.785"/>
<polygon fill="midnightblue" stroke="midnightblue" points="682.65,-365.272 672.256,-367.322 681.66,-372.201 682.65,-365.272"/>
</g>
<!-- Node21 -->
<g id="node74" class="node"><title>Node21</title>
<a xlink:href="../../d8/dd4/DataPoint_8hpp.xhtml" target="_top" xlink:title="dataPoint stores kinematic information of a dalitz plot">
<polygon fill="white" stroke="black" points="1133.5,-116.5 1133.5,-137.5 1236.5,-137.5 1236.5,-116.5 1133.5,-116.5"/>
<text text-anchor="middle" x="1185" y="-124.5" font-family="Helvetica,sans-Serif" font-size="10.00">Core/DataPoint.hpp</text>
</a>
</g>
<!-- Node1&#45;&gt;Node21 -->
<g id="edge106" class="edge"><title>Node1&#45;&gt;Node21</title>
<path fill="none" stroke="midnightblue" d="M1049.52,-406.445C1088.7,-390.315 1153,-355.537 1153,-301 1153,-301 1153,-301 1153,-243 1153,-208.216 1166.54,-169.61 1176,-146.867"/>
<polygon fill="midnightblue" stroke="midnightblue" points="1179.25,-148.172 1180,-137.604 1172.82,-145.398 1179.25,-148.172"/>
</g>
<!-- Node4&#45;&gt;Node2 -->
<g id="edge16" class="edge"><title>Node4&#45;&gt;Node2</title>
<path fill="none" stroke="midnightblue" d="M629.894,-174.47C642.155,-160.29 665.316,-134.684 688,-116 731.675,-80.0268 788.124,-45.6438 821.266,-26.5256"/>
<polygon fill="midnightblue" stroke="midnightblue" points="823.023,-29.5527 829.966,-21.5495 819.547,-23.4765 823.023,-29.5527"/>
</g>
<!-- Node4&#45;&gt;Node3 -->
<g id="edge12" class="edge"><title>Node4&#45;&gt;Node3</title>
<path fill="none" stroke="midnightblue" d="M636.199,-174.356C663.055,-155.569 716.512,-118.285 721,-116 811.426,-69.9701 926.744,-35.7666 984.158,-20.2391"/>
<polygon fill="midnightblue" stroke="midnightblue" points="985.099,-23.6105 993.856,-17.6457 983.291,-16.8481 985.099,-23.6105"/>
</g>
<!-- Node5 -->
<g id="node9" class="node"><title>Node5</title>
<polygon fill="white" stroke="#bfbfbf" points="504,-58.5 504,-79.5 558,-79.5 558,-58.5 504,-58.5"/>
<text text-anchor="middle" x="531" y="-66.5" font-family="Helvetica,sans-Serif" font-size="10.00">iostream</text>
</g>
<!-- Node4&#45;&gt;Node5 -->
<g id="edge8" class="edge"><title>Node4&#45;&gt;Node5</title>
<path fill="none" stroke="midnightblue" d="M612.694,-174.295C597.424,-154.613 564.712,-112.45 545.638,-87.8668"/>
<polygon fill="midnightblue" stroke="midnightblue" points="548.181,-85.4346 539.286,-79.6792 542.65,-89.7256 548.181,-85.4346"/>
</g>
<!-- Node6 -->
<g id="node11" class="node"><title>Node6</title>
<polygon fill="white" stroke="#bfbfbf" points="283.5,-0.5 283.5,-21.5 324.5,-21.5 324.5,-0.5 283.5,-0.5"/>
<text text-anchor="middle" x="304" y="-8.5" font-family="Helvetica,sans-Serif" font-size="10.00">string</text>
</g>
<!-- Node4&#45;&gt;Node6 -->
<g id="edge10" class="edge"><title>Node4&#45;&gt;Node6</title>
<path fill="none" stroke="midnightblue" d="M627.146,-174.244C639.987,-150.194 666.149,-91.5523 637,-58 632.041,-52.2923 416.971,-25.0355 335.151,-14.8507"/>
<polygon fill="midnightblue" stroke="midnightblue" points="335.322,-11.3452 324.967,-13.5856 334.459,-18.2918 335.322,-11.3452"/>
</g>
<!-- Node7 -->
<g id="node14" class="node"><title>Node7</title>
<polygon fill="white" stroke="#bfbfbf" points="576,-58.5 576,-79.5 628,-79.5 628,-58.5 576,-58.5"/>
<text text-anchor="middle" x="602" y="-66.5" font-family="Helvetica,sans-Serif" font-size="10.00">sstream</text>
</g>
<!-- Node4&#45;&gt;Node7 -->
<g id="edge14" class="edge"><title>Node4&#45;&gt;Node7</title>
<path fill="none" stroke="midnightblue" d="M618.787,-174.198C616.874,-164.688 614.094,-150.453 612,-138 609.303,-121.96 606.682,-103.748 604.801,-90.0631"/>
<polygon fill="midnightblue" stroke="midnightblue" points="608.219,-89.22 603.409,-79.78 601.282,-90.1592 608.219,-89.22"/>
</g>
<!-- Node8 -->
<g id="node17" class="node"><title>Node8</title>
<polygon fill="white" stroke="#bfbfbf" points="729.5,-116.5 729.5,-137.5 764.5,-137.5 764.5,-116.5 729.5,-116.5"/>
<text text-anchor="middle" x="747" y="-124.5" font-family="Helvetica,sans-Serif" font-size="10.00">map</text>
</g>
<!-- Node4&#45;&gt;Node8 -->
<g id="edge18" class="edge"><title>Node4&#45;&gt;Node8</title>
<path fill="none" stroke="midnightblue" d="M643.818,-174.497C665.288,-164.614 697.444,-149.811 720.142,-139.363"/>
<polygon fill="midnightblue" stroke="midnightblue" points="721.612,-142.54 729.232,-135.179 718.685,-136.181 721.612,-142.54"/>
</g>
<!-- Node9 -->
<g id="node19" class="node"><title>Node9</title>
<a xlink:href="../../d8/def/AbsParameter_8hpp.xhtml" target="_top" xlink:title="This class defines the internal container of a parameter.">
<polygon fill="white" stroke="black" points="130,-58.5 130,-79.5 252,-79.5 252,-58.5 130,-58.5"/>
<text text-anchor="middle" x="191" y="-66.5" font-family="Helvetica,sans-Serif" font-size="10.00">Core/AbsParameter.hpp</text>
</a>
</g>
<!-- Node4&#45;&gt;Node9 -->
<g id="edge20" class="edge"><title>Node4&#45;&gt;Node9</title>
<path fill="none" stroke="midnightblue" d="M560.948,-176.821C509.864,-169.126 434.845,-156.079 371,-138 318.313,-123.081 259.446,-99.0466 223.821,-83.6431"/>
<polygon fill="midnightblue" stroke="midnightblue" points="224.979,-80.3298 214.413,-79.5421 222.182,-86.7467 224.979,-80.3298"/>
</g>
<!-- Node12 -->
<g id="node28" class="node"><title>Node12</title>
<a xlink:href="../../db/dce/Parameter_8hpp.xhtml" target="_top" xlink:title="This class implements some internal container of parameters.">
<polygon fill="white" stroke="black" points="380,-116.5 380,-137.5 484,-137.5 484,-116.5 380,-116.5"/>
<text text-anchor="middle" x="432" y="-124.5" font-family="Helvetica,sans-Serif" font-size="10.00">Core/Parameter.hpp</text>
</a>
</g>
<!-- Node4&#45;&gt;Node12 -->
<g id="edge32" class="edge"><title>Node4&#45;&gt;Node12</title>
<path fill="none" stroke="midnightblue" d="M586.774,-174.497C555.695,-164.959 509.688,-150.841 475.91,-140.475"/>
<polygon fill="midnightblue" stroke="midnightblue" points="476.877,-137.111 466.291,-137.523 474.824,-143.803 476.877,-137.111"/>
</g>
<!-- Node14 -->
<g id="node36" class="node"><title>Node14</title>
<a xlink:href="../../d2/de9/Exceptions_8hpp.xhtml" target="_top" xlink:title="This class defines the ComPWA exception base&#45;class and provides a set of standard exceptions...">
<polygon fill="white" stroke="black" points="378,-58.5 378,-79.5 486,-79.5 486,-58.5 378,-58.5"/>
<text text-anchor="middle" x="432" y="-66.5" font-family="Helvetica,sans-Serif" font-size="10.00">Core/Exceptions.hpp</text>
</a>
</g>
<!-- Node4&#45;&gt;Node14 -->
<g id="edge50" class="edge"><title>Node4&#45;&gt;Node14</title>
<path fill="none" stroke="midnightblue" d="M603.558,-174.295C570.141,-153.785 496.943,-108.859 457.837,-84.8575"/>
<polygon fill="midnightblue" stroke="midnightblue" points="459.48,-81.7596 449.127,-79.5117 455.819,-87.7256 459.48,-81.7596"/>
</g>
<!-- Node9&#45;&gt;Node2 -->
<g id="edge24" class="edge"><title>Node9&#45;&gt;Node2</title>
<path fill="none" stroke="midnightblue" d="M252.046,-59.127C255.071,-58.7257 258.068,-58.347 261,-58 472.333,-32.9859 728.012,-17.6126 816.794,-12.7106"/>
<polygon fill="midnightblue" stroke="midnightblue" points="816.986,-16.2055 826.78,-12.1648 816.604,-9.2159 816.986,-16.2055"/>
</g>
<!-- Node9&#45;&gt;Node3 -->
<g id="edge26" class="edge"><title>Node9&#45;&gt;Node3</title>
<path fill="none" stroke="midnightblue" d="M252.037,-59.0487C255.064,-58.6681 258.064,-58.3153 261,-58 535.001,-28.5749 605.066,-40.7939 880,-22 915.264,-19.5894 955.487,-16.3812 983.743,-14.052"/>
<polygon fill="midnightblue" stroke="midnightblue" points="984.274,-17.52 993.951,-13.2058 983.696,-10.544 984.274,-17.52"/>
</g>
<!-- Node9&#45;&gt;Node6 -->
<g id="edge22" class="edge"><title>Node9&#45;&gt;Node6</title>
<path fill="none" stroke="midnightblue" d="M211.463,-58.4966C229.033,-49.4786 254.582,-36.3649 274.385,-26.2006"/>
<polygon fill="midnightblue" stroke="midnightblue" points="276.009,-29.3014 283.307,-21.6212 272.812,-23.0738 276.009,-29.3014"/>
</g>
<!-- Node10 -->
<g id="node24" class="node"><title>Node10</title>
<polygon fill="white" stroke="#bfbfbf" points="163,-0.5 163,-21.5 219,-21.5 219,-0.5 163,-0.5"/>
<text text-anchor="middle" x="191" y="-8.5" font-family="Helvetica,sans-Serif" font-size="10.00">algorithm</text>
</g>
<!-- Node9&#45;&gt;Node10 -->
<g id="edge28" class="edge"><title>Node9&#45;&gt;Node10</title>
<path fill="none" stroke="midnightblue" d="M191,-58.3619C191,-50.9219 191,-40.7427 191,-31.7276"/>
<polygon fill="midnightblue" stroke="midnightblue" points="194.5,-31.5706 191,-21.5707 187.5,-31.5707 194.5,-31.5706"/>
</g>
<!-- Node11 -->
<g id="node26" class="node"><title>Node11</title>
<a xlink:href="../../d9/d91/ParObserver_8hpp.xhtml" target="_top" xlink:title="For the use in the function tree, the observer pattern is used.">
<polygon fill="white" stroke="black" points="0,-0.5 0,-21.5 114,-21.5 114,-0.5 0,-0.5"/>
<text text-anchor="middle" x="57" y="-8.5" font-family="Helvetica,sans-Serif" font-size="10.00">Core/ParObserver.hpp</text>
</a>
</g>
<!-- Node9&#45;&gt;Node11 -->
<g id="edge30" class="edge"><title>Node9&#45;&gt;Node11</title>
<path fill="none" stroke="midnightblue" d="M166.734,-58.4966C145.522,-49.3154 114.502,-35.8889 90.8502,-25.6516"/>
<polygon fill="midnightblue" stroke="midnightblue" points="92.1062,-22.3815 81.5387,-21.6212 89.3256,-28.8055 92.1062,-22.3815"/>
</g>
<!-- Node12&#45;&gt;Node5 -->
<g id="edge34" class="edge"><title>Node12&#45;&gt;Node5</title>
<path fill="none" stroke="midnightblue" d="M450.158,-116.362C465.23,-107.532 486.887,-94.844 503.993,-84.8224"/>
<polygon fill="midnightblue" stroke="midnightblue" points="506.098,-87.6456 512.957,-79.5707 502.559,-81.6058 506.098,-87.6456"/>
</g>
<!-- Node12&#45;&gt;Node6 -->
<g id="edge36" class="edge"><title>Node12&#45;&gt;Node6</title>
<path fill="none" stroke="midnightblue" d="M416.137,-116.322C403.029,-107.232 384.177,-93.5302 369,-80 351.132,-64.0706 332.585,-43.9677 319.898,-29.5763"/>
<polygon fill="midnightblue" stroke="midnightblue" points="322.364,-27.0779 313.155,-21.8376 317.086,-31.6764 322.364,-27.0779"/>
</g>
<!-- Node12&#45;&gt;Node7 -->
<g id="edge38" class="edge"><title>Node12&#45;&gt;Node7</title>
<path fill="none" stroke="midnightblue" d="M462.786,-116.497C491.842,-106.583 535.404,-91.7211 566.043,-81.2677"/>
<polygon fill="midnightblue" stroke="midnightblue" points="567.564,-84.4468 575.899,-77.9052 565.304,-77.8218 567.564,-84.4468"/>
</g>
<!-- Node12&#45;&gt;Node9 -->
<g id="edge42" class="edge"><title>Node12&#45;&gt;Node9</title>
<path fill="none" stroke="midnightblue" d="M388.357,-116.497C347.962,-106.775 287.79,-92.2938 244.513,-81.8787"/>
<polygon fill="midnightblue" stroke="midnightblue" points="245.267,-78.4601 234.725,-79.5231 243.629,-85.2658 245.267,-78.4601"/>
</g>
<!-- Node13 -->
<g id="node33" class="node"><title>Node13</title>
<polygon fill="white" stroke="#bfbfbf" points="269.5,-58.5 269.5,-79.5 322.5,-79.5 322.5,-58.5 269.5,-58.5"/>
<text text-anchor="middle" x="296" y="-66.5" font-family="Helvetica,sans-Serif" font-size="10.00">complex</text>
</g>
<!-- Node12&#45;&gt;Node13 -->
<g id="edge40" class="edge"><title>Node12&#45;&gt;Node13</title>
<path fill="none" stroke="midnightblue" d="M407.371,-116.497C385.843,-107.315 354.36,-93.8889 330.355,-83.6516"/>
<polygon fill="midnightblue" stroke="midnightblue" points="331.476,-80.3247 320.905,-79.6212 328.73,-86.7636 331.476,-80.3247"/>
</g>
<!-- Node12&#45;&gt;Node14 -->
<g id="edge44" class="edge"><title>Node12&#45;&gt;Node14</title>
<path fill="none" stroke="midnightblue" d="M432,-116.362C432,-108.922 432,-98.7427 432,-89.7276"/>
<polygon fill="midnightblue" stroke="midnightblue" points="435.5,-89.5706 432,-79.5707 428.5,-89.5707 435.5,-89.5706"/>
</g>
<!-- Node14&#45;&gt;Node6 -->
<g id="edge48" class="edge"><title>Node14&#45;&gt;Node6</title>
<path fill="none" stroke="midnightblue" d="M408.82,-58.4966C387.892,-49.0134 356.968,-35.0011 334.129,-24.6521"/>
<polygon fill="midnightblue" stroke="midnightblue" points="335.441,-21.4044 324.888,-20.465 332.552,-27.7803 335.441,-21.4044"/>
</g>
<!-- Node15 -->
<g id="node38" class="node"><title>Node15</title>
<polygon fill="white" stroke="#bfbfbf" points="402.5,-0.5 402.5,-21.5 461.5,-21.5 461.5,-0.5 402.5,-0.5"/>
<text text-anchor="middle" x="432" y="-8.5" font-family="Helvetica,sans-Serif" font-size="10.00">exception</text>
</g>
<!-- Node14&#45;&gt;Node15 -->
<g id="edge46" class="edge"><title>Node14&#45;&gt;Node15</title>
<path fill="none" stroke="midnightblue" d="M432,-58.3619C432,-50.9219 432,-40.7427 432,-31.7276"/>
<polygon fill="midnightblue" stroke="midnightblue" points="435.5,-31.5706 432,-21.5707 428.5,-31.5707 435.5,-31.5706"/>
</g>
<!-- Node16&#45;&gt;Node2 -->
<g id="edge54" class="edge"><title>Node16&#45;&gt;Node2</title>
<path fill="none" stroke="midnightblue" d="M625.924,-348.249C635.941,-339.005 650.432,-325.124 662,-312 726.185,-239.181 745.026,-221.808 794,-138 814.896,-102.241 832.588,-57.0576 841.917,-31.3544"/>
<polygon fill="midnightblue" stroke="midnightblue" points="845.328,-32.2103 845.388,-21.6156 838.734,-29.8602 845.328,-32.2103"/>
</g>
<!-- Node16&#45;&gt;Node3 -->
<g id="edge56" class="edge"><title>Node16&#45;&gt;Node3</title>
<path fill="none" stroke="midnightblue" d="M672.045,-355.981C792.397,-348.132 1058,-321.874 1058,-243 1058,-243 1058,-243 1058,-127 1058,-91.7411 1041.95,-53.3154 1030.71,-30.7323"/>
<polygon fill="midnightblue" stroke="midnightblue" points="1033.8,-29.0901 1026.11,-21.809 1027.58,-32.3005 1033.8,-29.0901"/>
</g>
<!-- Node16&#45;&gt;Node6 -->
<g id="edge58" class="edge"><title>Node16&#45;&gt;Node6</title>
<path fill="none" stroke="midnightblue" d="M555.834,-356.05C481.921,-351.303 350.863,-339.536 242,-312 159.744,-291.194 64,-327.847 64,-243 64,-243 64,-243 64,-127 64,-89.1282 82.5965,-79.1682 114,-58 139.934,-40.5189 226.809,-23.8766 273.577,-15.9053"/>
<polygon fill="midnightblue" stroke="midnightblue" points="274.173,-19.3544 283.456,-14.2489 273.015,-12.4508 274.173,-19.3544"/>
</g>
<!-- Node16&#45;&gt;Node8 -->
<g id="edge60" class="edge"><title>Node16&#45;&gt;Node8</title>
<path fill="none" stroke="midnightblue" d="M620.06,-348.429C640.746,-312.346 708.772,-193.683 735.792,-146.55"/>
<polygon fill="midnightblue" stroke="midnightblue" points="738.967,-148.05 740.904,-137.634 732.894,-144.568 738.967,-148.05"/>
</g>
<!-- Node16&#45;&gt;Node9 -->
<g id="edge94" class="edge"><title>Node16&#45;&gt;Node9</title>
<path fill="none" stroke="midnightblue" d="M555.977,-354.601C462.489,-347.013 286.748,-330.487 265,-312 197.342,-254.487 190.336,-137.112 190.428,-89.6261"/>
<polygon fill="midnightblue" stroke="midnightblue" points="193.927,-89.6648 190.559,-79.6197 186.928,-89.5729 193.927,-89.6648"/>
</g>
<!-- Node16&#45;&gt;Node12 -->
<g id="edge96" class="edge"><title>Node16&#45;&gt;Node12</title>
<path fill="none" stroke="midnightblue" d="M605.707,-348.429C577.223,-312.12 483.14,-192.19 446.647,-145.671"/>
<polygon fill="midnightblue" stroke="midnightblue" points="449.268,-143.341 440.342,-137.634 443.76,-147.662 449.268,-143.341"/>
</g>
<!-- Node17 -->
<g id="node48" class="node"><title>Node17</title>
<a xlink:href="../../dc/d66/Functions_8hpp.xhtml" target="_top" xlink:title="This file contains Functions implementing the Strategy interface so they can be used inside a node of...">
<polygon fill="white" stroke="black" points="365,-232.5 365,-253.5 467,-253.5 467,-232.5 365,-232.5"/>
<text text-anchor="middle" x="416" y="-240.5" font-family="Helvetica,sans-Serif" font-size="10.00">Core/Functions.hpp</text>
</a>
</g>
<!-- Node16&#45;&gt;Node17 -->
<g id="edge62" class="edge"><title>Node16&#45;&gt;Node17</title>
<path fill="none" stroke="midnightblue" d="M590.52,-348.431C571.017,-339.406 542.727,-325.738 519,-312 490.605,-295.559 459.504,-274.232 438.989,-259.667"/>
<polygon fill="midnightblue" stroke="midnightblue" points="440.79,-256.653 430.62,-253.684 436.719,-262.347 440.79,-256.653"/>
</g>
<!-- Node19 -->
<g id="node57" class="node"><title>Node19</title>
<a xlink:href="../../df/d5a/TreeNode_8hpp.xhtml" target="_top" xlink:title="This class acts as a container for a parameter in a function tree.">
<polygon fill="white" stroke="black" points="274,-290.5 274,-311.5 376,-311.5 376,-290.5 274,-290.5"/>
<text text-anchor="middle" x="325" y="-298.5" font-family="Helvetica,sans-Serif" font-size="10.00">Core/TreeNode.hpp</text>
</a>
</g>
<!-- Node16&#45;&gt;Node19 -->
<g id="edge76" class="edge"><title>Node16&#45;&gt;Node19</title>
<path fill="none" stroke="midnightblue" d="M561.664,-348.497C512.409,-338.611 438.633,-323.805 386.57,-313.357"/>
<polygon fill="midnightblue" stroke="midnightblue" points="386.954,-309.864 376.46,-311.328 385.576,-316.727 386.954,-309.864"/>
</g>
<!-- Node20 -->
<g id="node69" class="node"><title>Node20</title>
<a xlink:href="../../de/d1f/ControlParameter_8hpp.xhtml" target="_top" xlink:title="This class provides the interface for the optimizer module to access the data.">
<polygon fill="white" stroke="black" points="835.5,-232.5 835.5,-253.5 992.5,-253.5 992.5,-232.5 835.5,-232.5"/>
<text text-anchor="middle" x="914" y="-240.5" font-family="Helvetica,sans-Serif" font-size="10.00">Optimizer/ControlParameter.hpp</text>
</a>
</g>
<!-- Node16&#45;&gt;Node20 -->
<g id="edge98" class="edge"><title>Node16&#45;&gt;Node20</title>
<path fill="none" stroke="midnightblue" d="M662.918,-348.474C697.398,-340.335 744.313,-327.799 784,-312 821.635,-297.018 862.511,-274.131 888.182,-258.875"/>
<polygon fill="midnightblue" stroke="midnightblue" points="890.147,-261.778 896.917,-253.629 886.543,-255.777 890.147,-261.778"/>
</g>
<!-- Node17&#45;&gt;Node2 -->
<g id="edge64" class="edge"><title>Node17&#45;&gt;Node2</title>
<path fill="none" stroke="midnightblue" d="M467.073,-240.897C523.527,-237.077 616.229,-226.315 690,-196 692.602,-194.931 771.131,-140.101 773,-138 799.83,-107.841 794.809,-92.3567 816,-58 821.905,-48.4269 829.014,-38.1639 835.119,-29.6782"/>
<polygon fill="midnightblue" stroke="midnightblue" points="837.959,-31.7233 841.025,-21.5818 832.304,-27.5978 837.959,-31.7233"/>
</g>
<!-- Node17&#45;&gt;Node4 -->
<g id="edge70" class="edge"><title>Node17&#45;&gt;Node4</title>
<path fill="none" stroke="midnightblue" d="M453.124,-232.497C486.979,-222.918 537.164,-208.72 573.844,-198.342"/>
<polygon fill="midnightblue" stroke="midnightblue" points="575.137,-201.613 583.806,-195.523 573.231,-194.878 575.137,-201.613"/>
</g>
<!-- Node17&#45;&gt;Node9 -->
<g id="edge74" class="edge"><title>Node17&#45;&gt;Node9</title>
<path fill="none" stroke="midnightblue" d="M402.264,-232.377C364.528,-203.195 259.026,-121.607 212.972,-85.9915"/>
<polygon fill="midnightblue" stroke="midnightblue" points="214.894,-83.0534 204.842,-79.7046 210.612,-88.5908 214.894,-83.0534"/>
</g>
<!-- Node17&#45;&gt;Node12 -->
<g id="edge72" class="edge"><title>Node17&#45;&gt;Node12</title>
<path fill="none" stroke="midnightblue" d="M417.477,-232.295C420.12,-213.131 425.703,-172.654 429.125,-147.843"/>
<polygon fill="midnightblue" stroke="midnightblue" points="432.628,-148.064 430.527,-137.679 425.693,-147.107 432.628,-148.064"/>
</g>
<!-- Node17&#45;&gt;Node14 -->
<g id="edge68" class="edge"><title>Node17&#45;&gt;Node14</title>
<path fill="none" stroke="midnightblue" d="M406.69,-232.461C388.272,-210.266 350.66,-157.35 371,-116 377.395,-102.999 389.308,-92.5825 400.921,-84.8922"/>
<polygon fill="midnightblue" stroke="midnightblue" points="402.948,-87.7546 409.646,-79.5452 399.291,-81.7861 402.948,-87.7546"/>
</g>
<!-- Node18 -->
<g id="node51" class="node"><title>Node18</title>
<polygon fill="white" stroke="#bfbfbf" points="1085.5,-58.5 1085.5,-79.5 1132.5,-79.5 1132.5,-58.5 1085.5,-58.5"/>
<text text-anchor="middle" x="1109" y="-66.5" font-family="Helvetica,sans-Serif" font-size="10.00">math.h</text>
</g>
<!-- Node17&#45;&gt;Node18 -->
<g id="edge66" class="edge"><title>Node17&#45;&gt;Node18</title>
<path fill="none" stroke="midnightblue" d="M467.021,-237.814C528.348,-230.978 634.116,-217.27 723,-196 856.458,-164.063 1009.96,-107.338 1075.99,-81.9321"/>
<polygon fill="midnightblue" stroke="midnightblue" points="1077.39,-85.1442 1085.46,-78.2746 1074.87,-78.6149 1077.39,-85.1442"/>
</g>
<!-- Node19&#45;&gt;Node3 -->
<g id="edge82" class="edge"><title>Node19&#45;&gt;Node3</title>
<path fill="none" stroke="midnightblue" d="M369.256,-290.493C407.832,-281.229 465.238,-267.19 515,-254 606.527,-229.739 633.318,-234.104 720,-196 831.007,-147.204 949.919,-63.0989 997.981,-27.5883"/>
<polygon fill="midnightblue" stroke="midnightblue" points="1000.18,-30.3178 1006.11,-21.5426 995.999,-24.7002 1000.18,-30.3178"/>
</g>
<!-- Node19&#45;&gt;Node4 -->
<g id="edge86" class="edge"><title>Node19&#45;&gt;Node4</title>
<path fill="none" stroke="midnightblue" d="M364.319,-290.425C395.106,-281.748 438.798,-268.556 476,-254 517.286,-237.846 563.231,-215.136 592.115,-200.249"/>
<polygon fill="midnightblue" stroke="midnightblue" points="593.962,-203.234 601.226,-195.521 590.737,-197.021 593.962,-203.234"/>
</g>
<!-- Node19&#45;&gt;Node6 -->
<g id="edge78" class="edge"><title>Node19&#45;&gt;Node6</title>
<path fill="none" stroke="midnightblue" d="M309.176,-290.466C268.395,-262.235 160.168,-180.179 121,-80 117.44,-70.8935 115.007,-65.7262 121,-58 130.408,-45.8707 223.898,-26.3509 273.479,-16.7332"/>
<polygon fill="midnightblue" stroke="midnightblue" points="274.187,-20.1613 283.347,-14.8374 272.866,-13.287 274.187,-20.1613"/>
</g>
<!-- Node19&#45;&gt;Node9 -->
<g id="edge88" class="edge"><title>Node19&#45;&gt;Node9</title>
<path fill="none" stroke="midnightblue" d="M318.894,-290.429C298.053,-254.346 229.515,-135.683 202.292,-88.5499"/>
<polygon fill="midnightblue" stroke="midnightblue" points="205.174,-86.5423 197.142,-79.6335 199.113,-90.0434 205.174,-86.5423"/>
</g>
<!-- Node19&#45;&gt;Node11 -->
<g id="edge92" class="edge"><title>Node19&#45;&gt;Node11</title>
<path fill="none" stroke="midnightblue" d="M273.94,-292.069C188.542,-275.668 26,-237.547 26,-185 26,-185 26,-185 26,-127 26,-92.292 39.1132,-53.6626 48.2823,-30.8944"/>
<polygon fill="midnightblue" stroke="midnightblue" points="51.5312,-32.197 52.1562,-21.6206 45.0721,-29.4988 51.5312,-32.197"/>
</g>
<!-- Node19&#45;&gt;Node12 -->
<g id="edge90" class="edge"><title>Node19&#45;&gt;Node12</title>
<path fill="none" stroke="midnightblue" d="M328.983,-290.385C334.349,-276.548 344.559,-251.78 356,-232 374.534,-199.956 400.63,-165.739 416.917,-145.372"/>
<polygon fill="midnightblue" stroke="midnightblue" points="419.684,-147.516 423.245,-137.538 414.239,-143.117 419.684,-147.516"/>
</g>
<!-- Node19&#45;&gt;Node13 -->
<g id="edge80" class="edge"><title>Node19&#45;&gt;Node13</title>
<path fill="none" stroke="midnightblue" d="M323.679,-290.429C319.206,-254.648 304.583,-137.663 298.594,-89.7481"/>
<polygon fill="midnightblue" stroke="midnightblue" points="302.043,-89.1221 297.329,-79.6335 295.097,-89.9904 302.043,-89.1221"/>
</g>
<!-- Node19&#45;&gt;Node17 -->
<g id="edge84" class="edge"><title>Node19&#45;&gt;Node17</title>
<path fill="none" stroke="midnightblue" d="M341.691,-290.362C355.416,-281.614 375.084,-269.079 390.737,-259.101"/>
<polygon fill="midnightblue" stroke="midnightblue" points="392.863,-261.897 399.415,-253.571 389.101,-255.994 392.863,-261.897"/>
</g>
<!-- Node20&#45;&gt;Node2 -->
<g id="edge100" class="edge"><title>Node20&#45;&gt;Node2</title>
<path fill="none" stroke="midnightblue" d="M911.038,-232.429C900.992,-196.573 868.099,-79.1689 854.728,-31.4458"/>
<polygon fill="midnightblue" stroke="midnightblue" points="858.047,-30.3185 851.979,-21.6335 851.307,-32.207 858.047,-30.3185"/>
</g>
<!-- Node20&#45;&gt;Node3 -->
<g id="edge102" class="edge"><title>Node20&#45;&gt;Node3</title>
<path fill="none" stroke="midnightblue" d="M920.077,-232.168C934.422,-206.347 971.057,-138.927 996,-80 1002.78,-63.9913 1009.18,-45.3456 1013.66,-31.4756"/>
<polygon fill="midnightblue" stroke="midnightblue" points="1017,-32.513 1016.69,-21.9228 1010.33,-30.3965 1017,-32.513"/>
</g>
<!-- Node20&#45;&gt;Node4 -->
<g id="edge104" class="edge"><title>Node20&#45;&gt;Node4</title>
<path fill="none" stroke="midnightblue" d="M860.94,-232.497C811.209,-222.652 736.822,-207.927 684.076,-197.486"/>
<polygon fill="midnightblue" stroke="midnightblue" points="684.649,-194.032 674.16,-195.523 683.29,-200.898 684.649,-194.032"/>
</g>
<!-- Node21&#45;&gt;Node2 -->
<g id="edge112" class="edge"><title>Node21&#45;&gt;Node2</title>
<path fill="none" stroke="midnightblue" d="M1181.42,-116.339C1175.59,-100.767 1162.49,-72.122 1141,-58 1098.73,-30.2208 948.553,-17.3611 881.613,-12.9107"/>
<polygon fill="midnightblue" stroke="midnightblue" points="881.444,-9.39269 871.24,-12.2445 880.995,-16.3783 881.444,-9.39269"/>
</g>
<!-- Node21&#45;&gt;Node18 -->
<g id="edge110" class="edge"><title>Node21&#45;&gt;Node18</title>
<path fill="none" stroke="midnightblue" d="M1171.06,-116.362C1159.81,-107.777 1143.78,-95.5459 1130.84,-85.6636"/>
<polygon fill="midnightblue" stroke="midnightblue" points="1132.92,-82.8551 1122.85,-79.5707 1128.68,-88.4198 1132.92,-82.8551"/>
</g>
<!-- Node22 -->
<g id="node76" class="node"><title>Node22</title>
<polygon fill="white" stroke="#bfbfbf" points="1187.5,-58.5 1187.5,-79.5 1232.5,-79.5 1232.5,-58.5 1187.5,-58.5"/>
<text text-anchor="middle" x="1210" y="-66.5" font-family="Helvetica,sans-Serif" font-size="10.00">cstdlib</text>
</g>
<!-- Node21&#45;&gt;Node22 -->
<g id="edge108" class="edge"><title>Node21&#45;&gt;Node22</title>
<path fill="none" stroke="midnightblue" d="M1189.59,-116.362C1192.9,-108.677 1197.47,-98.0686 1201.45,-88.8399"/>
<polygon fill="midnightblue" stroke="midnightblue" points="1204.7,-90.1393 1205.44,-79.5707 1198.27,-87.3685 1204.7,-90.1393"/>
</g>
<!-- Node23 -->
<g id="node80" class="node"><title>Node23</title>
<a xlink:href="../../d4/d37/Kinematics_8hpp.xhtml" target="_top" xlink:title="Core/Kinematics.hpp">
<polygon fill="white" stroke="black" points="1250,-58.5 1250,-79.5 1358,-79.5 1358,-58.5 1250,-58.5"/>
<text text-anchor="middle" x="1304" y="-66.5" font-family="Helvetica,sans-Serif" font-size="10.00">Core/Kinematics.hpp</text>
</a>
</g>
<!-- Node21&#45;&gt;Node23 -->
<g id="edge114" class="edge"><title>Node21&#45;&gt;Node23</title>
<path fill="none" stroke="midnightblue" d="M1201.21,-116.497C1218.32,-107.356 1245.5,-94.0082 1267.69,-83.7883"/>
<polygon fill="midnightblue" stroke="midnightblue" points="1269.19,-86.9482 1276.85,-79.6212 1266.3,-80.5766 1269.19,-86.9482"/>
</g>
<!-- Node23&#45;&gt;Node2 -->
<g id="edge116" class="edge"><title>Node23&#45;&gt;Node2</title>
<path fill="none" stroke="midnightblue" d="M1249.73,-59.335C1246.78,-58.8686 1243.86,-58.4202 1241,-58 1108.03,-38.4344 948.777,-21.2673 881.516,-14.3033"/>
<polygon fill="midnightblue" stroke="midnightblue" points="881.464,-10.7795 871.158,-13.2364 880.747,-17.7427 881.464,-10.7795"/>
</g>
<!-- Node23&#45;&gt;Node3 -->
<g id="edge118" class="edge"><title>Node23&#45;&gt;Node3</title>
<path fill="none" stroke="midnightblue" d="M1252.57,-58.4966C1195.86,-46.9155 1106.08,-28.5798 1056.28,-18.4103"/>
<polygon fill="midnightblue" stroke="midnightblue" points="1056.79,-14.9414 1046.29,-16.3695 1055.39,-21.7998 1056.79,-14.9414"/>
</g>
<!-- Node23&#45;&gt;Node21 -->
<g id="edge122" class="edge"><title>Node23&#45;&gt;Node21</title>
<path fill="none" stroke="midnightblue" d="M1287.57,-79.6212C1270.37,-88.7977 1243.17,-102.15 1221.03,-112.343"/>
<polygon fill="midnightblue" stroke="midnightblue" points="1219.55,-109.172 1211.89,-116.497 1222.44,-115.544 1219.55,-109.172"/>
</g>
<!-- Node24 -->
<g id="node84" class="node"><title>Node24</title>
<polygon fill="white" stroke="#bfbfbf" points="1253.5,-0.5 1253.5,-21.5 1354.5,-21.5 1354.5,-0.5 1253.5,-0.5"/>
<text text-anchor="middle" x="1304" y="-8.5" font-family="Helvetica,sans-Serif" font-size="10.00">boost/log/trivial.hpp</text>
</g>
<!-- Node23&#45;&gt;Node24 -->
<g id="edge120" class="edge"><title>Node23&#45;&gt;Node24</title>
<path fill="none" stroke="midnightblue" d="M1304,-58.3619C1304,-50.9219 1304,-40.7427 1304,-31.7276"/>
<polygon fill="midnightblue" stroke="midnightblue" points="1307.5,-31.5706 1304,-21.5707 1300.5,-31.5707 1307.5,-31.5706"/>
</g>
</g>
</svg>
