<?xml version="1.0" encoding="UTF-8" standalone="no"?>
<!DOCTYPE svg PUBLIC "-//W3C//DTD SVG 1.1//EN"
 "http://www.w3.org/Graphics/SVG/1.1/DTD/svg11.dtd">
<!-- Generated by graphviz version 2.36.0 (20140111.2315)
 -->
<!-- Title: /home/travis/build/ComPWA/ComPWA/DataReader/Data.cpp Pages: 1 -->
<!--zoomable 274 -->
<svg id="main" version="1.1" xmlns="http://www.w3.org/2000/svg" xmlns:xlink="http://www.w3.org/1999/xlink" xml:space="preserve" onload="init(evt)">
<style type="text/css"><![CDATA[
.edge:hover path { stroke: red; }
.edge:hover polygon { stroke: red; fill: red; }
]]></style>
<script type="text/javascript"><![CDATA[
var edges = document.getElementsByTagName('g');
if (edges && edges.length) {
  for (var i=0;i<edges.length;i++) {
    if (edges[i].id.substr(0,4)=='edge') {
      edges[i].setAttribute('class','edge');
    }
  }
}
]]></script>
        <defs>
                <circle id="rim" cx="0" cy="0" r="7"/>
                <circle id="rim2" cx="0" cy="0" r="3.5"/>
                <g id="zoomPlus">
                        <use xlink:href="#rim" fill="#404040">
                                <set attributeName="fill" to="#808080" begin="zoomplus.mouseover" end="zoomplus.mouseout"/>
                        </use>
                        <path d="M-4,0h8M0,-4v8" fill="none" stroke="white" stroke-width="1.5" pointer-events="none"/>
                </g>
                <g id="zoomMin">
                        <use xlink:href="#rim" fill="#404040">
                                <set attributeName="fill" to="#808080" begin="zoomminus.mouseover" end="zoomminus.mouseout"/>
                        </use>
                        <path d="M-4,0h8" fill="none" stroke="white" stroke-width="1.5" pointer-events="none"/>
                </g>
                <g id="dirArrow">
                        <path fill="none" stroke="white" stroke-width="1.5" d="M0,-3.0v7 M-2.5,-0.5L0,-3.0L2.5,-0.5"/>
                </g>
               <g id="resetDef">
                       <use xlink:href="#rim2" fill="#404040">
                               <set attributeName="fill" to="#808080" begin="reset.mouseover" end="reset.mouseout"/>
                       </use>
               </g>
        </defs>

<script type="text/javascript">
var viewWidth = 919;
var viewHeight = 274;
var sectionId = 'dynsection-0';
</script>
<script xlink:href="../../svgpan.js"/>
<svg id="graph" class="graph">
<g id="viewport">
<title>/home/travis/build/ComPWA/ComPWA/DataReader/Data.cpp</title>
<polygon fill="white" stroke="none" points="-4,4 -4,-270 914.867,-270 914.867,4 -4,4"/>
<!-- Node1 -->
<g id="node1" class="node"><title>Node1</title>
<polygon fill="#bfbfbf" stroke="black" points="372.367,-224.5 372.367,-265.5 539.367,-265.5 539.367,-224.5 372.367,-224.5"/>
<text text-anchor="start" x="380.367" y="-253.5" font-family="Helvetica,sans-Serif" font-size="10.00">/home/travis/build</text>
<text text-anchor="start" x="380.367" y="-242.5" font-family="Helvetica,sans-Serif" font-size="10.00">/ComPWA/ComPWA/DataReader</text>
<text text-anchor="middle" x="455.867" y="-231.5" font-family="Helvetica,sans-Serif" font-size="10.00">/Data.cpp</text>
</g>
<!-- Node2 -->
<g id="node2" class="node"><title>Node2</title>
<g id="a_node2"><a xlink:href="../../d2/d4b/Data_8hpp.html" target="_top" xlink:title="Contains Data interface class. ">
<polygon fill="white" stroke="black" points="399.867,-168.5 399.867,-187.5 511.867,-187.5 511.867,-168.5 399.867,-168.5"/>
<text text-anchor="middle" x="455.867" y="-175.5" font-family="Helvetica,sans-Serif" font-size="10.00">DataReader/Data.hpp</text>
</a>
</g>
</g>
<!-- Node1&#45;&gt;Node2 -->
<g id="edge1" class="edge"><title>Node1&#45;&gt;Node2</title>
<path fill="none" stroke="midnightblue" d="M455.867,-224.498C455.867,-216.065 455.867,-206.235 455.867,-197.874"/>
<polygon fill="midnightblue" stroke="midnightblue" points="459.367,-197.652 455.867,-187.652 452.367,-197.653 459.367,-197.652"/>
</g>
<!-- Node3 -->
<g id="node3" class="node"><title>Node3</title>
<polygon fill="white" stroke="#bfbfbf" points="203.867,-0.5 203.867,-19.5 247.867,-19.5 247.867,-0.5 203.867,-0.5"/>
<text text-anchor="middle" x="225.867" y="-7.5" font-family="Helvetica,sans-Serif" font-size="10.00">vector</text>
</g>
<!-- Node2&#45;&gt;Node3 -->
<g id="edge2" class="edge"><title>Node2&#45;&gt;Node3</title>
<path fill="none" stroke="midnightblue" d="M399.613,-177.971C325.951,-177.498 193.853,-170.594 88.8672,-132 46.4058,-116.391 25.3224,-115.828 3.86717,-76 -0.348461,-68.1744 -1.75935,-62.8815 3.86717,-56 27.4863,-27.1129 138.079,-16.3253 193.721,-12.677"/>
<polygon fill="midnightblue" stroke="midnightblue" points="193.992,-16.167 203.757,-12.0576 193.56,-9.18033 193.992,-16.167"/>
</g>
<!-- Node4 -->
<g id="node4" class="node"><title>Node4</title>
<polygon fill="white" stroke="#bfbfbf" points="497.367,-0.5 497.367,-19.5 538.367,-19.5 538.367,-0.5 497.367,-0.5"/>
<text text-anchor="middle" x="517.867" y="-7.5" font-family="Helvetica,sans-Serif" font-size="10.00">string</text>
</g>
<!-- Node2&#45;&gt;Node4 -->
<g id="edge3" class="edge"><title>Node2&#45;&gt;Node4</title>
<path fill="none" stroke="midnightblue" d="M503.916,-168.458C524.809,-162.101 547.338,-151.074 559.867,-132 581.94,-98.3986 551.887,-51.907 532.325,-27.4917"/>
<polygon fill="midnightblue" stroke="midnightblue" points="534.803,-24.9972 525.709,-19.5602 529.427,-29.4812 534.803,-24.9972"/>
</g>
<!-- Node5 -->
<g id="node5" class="node"><title>Node5</title>
<polygon fill="white" stroke="#bfbfbf" points="731.867,-56.5 731.867,-75.5 783.867,-75.5 783.867,-56.5 731.867,-56.5"/>
<text text-anchor="middle" x="757.867" y="-63.5" font-family="Helvetica,sans-Serif" font-size="10.00">memory</text>
</g>
<!-- Node2&#45;&gt;Node5 -->
<g id="edge4" class="edge"><title>Node2&#45;&gt;Node5</title>
<path fill="none" stroke="midnightblue" d="M512.073,-176.907C590.218,-175.452 725.638,-167.687 756.867,-132 767.765,-119.547 766.507,-100.036 763.443,-85.637"/>
<polygon fill="midnightblue" stroke="midnightblue" points="766.8,-84.6372 760.92,-75.8242 760.021,-86.3808 766.8,-84.6372"/>
</g>
<!-- Node6 -->
<g id="node6" class="node"><title>Node6</title>
<g id="a_node6"><a xlink:href="../../df/d7d/Event_8hpp.html" target="_top" xlink:title="This class provides a internal container for event&#45;based information. ">
<polygon fill="white" stroke="red" points="392.367,-56.5 392.367,-75.5 477.367,-75.5 477.367,-56.5 392.367,-56.5"/>
<text text-anchor="middle" x="434.867" y="-63.5" font-family="Helvetica,sans-Serif" font-size="10.00">Core/Event.hpp</text>
</a>
</g>
</g>
<!-- Node2&#45;&gt;Node6 -->
<g id="edge5" class="edge"><title>Node2&#45;&gt;Node6</title>
<path fill="none" stroke="midnightblue" d="M486.151,-168.487C517.734,-157.995 560.385,-138.277 542.867,-112 530.319,-93.1785 508.251,-82.2165 487.32,-75.8378"/>
<polygon fill="midnightblue" stroke="midnightblue" points="488.073,-72.4151 477.503,-73.1391 486.217,-79.1647 488.073,-72.4151"/>
</g>
<!-- Node7 -->
<g id="node7" class="node"><title>Node7</title>
<g id="a_node7"><a xlink:href="../../d8/d6f/Efficiency_8hpp.html" target="_top" xlink:title="Core/Efficiency.hpp">
<polygon fill="white" stroke="red" points="13.3672,-56.5 13.3672,-75.5 116.367,-75.5 116.367,-56.5 13.3672,-56.5"/>
<text text-anchor="middle" x="64.8672" y="-63.5" font-family="Helvetica,sans-Serif" font-size="10.00">Core/Efficiency.hpp</text>
</a>
</g>
</g>
<!-- Node2&#45;&gt;Node7 -->
<g id="edge8" class="edge"><title>Node2&#45;&gt;Node7</title>
<path fill="none" stroke="midnightblue" d="M399.847,-174.842C315.628,-170.735 161.206,-159.599 113.867,-132 95.2395,-121.14 81.4102,-100.136 73.2766,-84.9368"/>
<polygon fill="midnightblue" stroke="midnightblue" points="76.3791,-83.3156 68.761,-75.9524 70.1246,-86.4592 76.3791,-83.3156"/>
</g>
<!-- Node8 -->
<g id="node8" class="node"><title>Node8</title>
<g id="a_node8"><a xlink:href="../../d4/d37/Kinematics_8hpp.html" target="_top" xlink:title="Core/Kinematics.hpp">
<polygon fill="white" stroke="red" points="130.867,-112.5 130.867,-131.5 238.867,-131.5 238.867,-112.5 130.867,-112.5"/>
<text text-anchor="middle" x="184.867" y="-119.5" font-family="Helvetica,sans-Serif" font-size="10.00">Core/Kinematics.hpp</text>
</a>
</g>
</g>
<!-- Node2&#45;&gt;Node8 -->
<g id="edge10" class="edge"><title>Node2&#45;&gt;Node8</title>
<path fill="none" stroke="midnightblue" d="M412.926,-168.444C365.354,-158.964 288.624,-143.675 237.479,-133.483"/>
<polygon fill="midnightblue" stroke="midnightblue" points="238.098,-130.038 227.607,-131.516 236.73,-136.903 238.098,-130.038"/>
</g>
<!-- Node9 -->
<g id="node9" class="node"><title>Node9</title>
<g id="a_node9"><a xlink:href="../../d8/dd4/DataPoint_8hpp.html" target="_top" xlink:title="dataPoint stores kinematic information of a dalitz plot ">
<polygon fill="white" stroke="red" points="134.367,-56.5 134.367,-75.5 237.367,-75.5 237.367,-56.5 134.367,-56.5"/>
<text text-anchor="middle" x="185.867" y="-63.5" font-family="Helvetica,sans-Serif" font-size="10.00">Core/DataPoint.hpp</text>
</a>
</g>
</g>
<!-- Node2&#45;&gt;Node9 -->
<g id="edge22" class="edge"><title>Node2&#45;&gt;Node9</title>
<path fill="none" stroke="midnightblue" d="M399.527,-177.941C313.915,-178.027 157.25,-172.47 121.867,-132 105.487,-113.265 133.331,-93.039 157.278,-80.2116"/>
<polygon fill="midnightblue" stroke="midnightblue" points="159.175,-83.1734 166.496,-75.5152 155.997,-76.9362 159.175,-83.1734"/>
</g>
<!-- Node10 -->
<g id="node10" class="node"><title>Node10</title>
<g id="a_node10"><a xlink:href="../../df/d9f/ParameterList_8hpp.html" target="_top" xlink:title="This class provides a list of fit parameters which can have different types. ">
<polygon fill="white" stroke="red" points="628.867,-112.5 628.867,-131.5 748.867,-131.5 748.867,-112.5 628.867,-112.5"/>
<text text-anchor="middle" x="688.867" y="-119.5" font-family="Helvetica,sans-Serif" font-size="10.00">Core/ParameterList.hpp</text>
</a>
</g>
</g>
<!-- Node2&#45;&gt;Node10 -->
<g id="edge16" class="edge"><title>Node2&#45;&gt;Node10</title>
<path fill="none" stroke="midnightblue" d="M492.787,-168.444C533.263,-159.063 598.288,-143.993 642.252,-133.804"/>
<polygon fill="midnightblue" stroke="midnightblue" points="643.169,-137.184 652.12,-131.516 641.588,-130.365 643.169,-137.184"/>
</g>
<!-- Node11 -->
<g id="node11" class="node"><title>Node11</title>
<g id="a_node11"><a xlink:href="../../df/d33/Generator_8hpp.html" target="_top" xlink:title="Core/Generator.hpp">
<polygon fill="white" stroke="black" points="256.867,-112.5 256.867,-131.5 358.867,-131.5 358.867,-112.5 256.867,-112.5"/>
<text text-anchor="middle" x="307.867" y="-119.5" font-family="Helvetica,sans-Serif" font-size="10.00">Core/Generator.hpp</text>
</a>
</g>
</g>
<!-- Node2&#45;&gt;Node11 -->
<g id="edge20" class="edge"><title>Node2&#45;&gt;Node11</title>
<path fill="none" stroke="midnightblue" d="M432.416,-168.444C407.735,-159.438 368.682,-145.189 340.89,-135.049"/>
<polygon fill="midnightblue" stroke="midnightblue" points="341.802,-131.656 331.208,-131.516 339.403,-138.232 341.802,-131.656"/>
</g>
<!-- Node12 -->
<g id="node12" class="node"><title>Node12</title>
<g id="a_node12"><a xlink:href="../../de/d34/Resolution_8hpp.html" target="_top" xlink:title="Core/Resolution.hpp">
<polygon fill="white" stroke="black" points="804.867,-112.5 804.867,-131.5 910.867,-131.5 910.867,-112.5 804.867,-112.5"/>
<text text-anchor="middle" x="857.867" y="-119.5" font-family="Helvetica,sans-Serif" font-size="10.00">Core/Resolution.hpp</text>
</a>
</g>
</g>
<!-- Node2&#45;&gt;Node12 -->
<g id="edge23" class="edge"><title>Node2&#45;&gt;Node12</title>
<path fill="none" stroke="midnightblue" d="M512.187,-169.435C586.532,-159.448 717.054,-141.915 794.683,-131.487"/>
<polygon fill="midnightblue" stroke="midnightblue" points="795.364,-134.927 804.809,-130.127 794.432,-127.99 795.364,-134.927"/>
</g>
<!-- Node13 -->
<g id="node13" class="node"><title>Node13</title>
<g id="a_node13"><a xlink:href="../../d2/dee/DataCorrection_8hpp.html" target="_top" xlink:title="DataReader/DataCorrection.hpp">
<polygon fill="white" stroke="red" points="377.367,-112.5 377.367,-131.5 534.367,-131.5 534.367,-112.5 377.367,-112.5"/>
<text text-anchor="middle" x="455.867" y="-119.5" font-family="Helvetica,sans-Serif" font-size="10.00">DataReader/DataCorrection.hpp</text>
</a>
</g>
</g>
<!-- Node2&#45;&gt;Node13 -->
<g id="edge24" class="edge"><title>Node2&#45;&gt;Node13</title>
<path fill="none" stroke="midnightblue" d="M455.867,-168.083C455.867,-161.006 455.867,-150.861 455.867,-141.986"/>
<polygon fill="midnightblue" stroke="midnightblue" points="459.367,-141.751 455.867,-131.751 452.367,-141.751 459.367,-141.751"/>
</g>
<!-- Node6&#45;&gt;Node3 -->
<g id="edge6" class="edge"><title>Node6&#45;&gt;Node3</title>
<path fill="none" stroke="midnightblue" d="M401.75,-56.4435C362.234,-46.2334 296.629,-29.2831 257.692,-19.2226"/>
<polygon fill="midnightblue" stroke="midnightblue" points="258.487,-15.8133 247.93,-16.7003 256.736,-22.5907 258.487,-15.8133"/>
</g>
<!-- Node6&#45;&gt;Node4 -->
<g id="edge7" class="edge"><title>Node6&#45;&gt;Node4</title>
<path fill="none" stroke="midnightblue" d="M448.203,-56.324C461.029,-47.979 480.652,-35.2122 495.807,-25.3524"/>
<polygon fill="midnightblue" stroke="midnightblue" points="498.091,-28.0417 504.565,-19.6545 494.274,-22.1742 498.091,-28.0417"/>
</g>
<!-- Node7&#45;&gt;Node3 -->
<g id="edge9" class="edge"><title>Node7&#45;&gt;Node3</title>
<path fill="none" stroke="midnightblue" d="M90.3781,-56.4435C118.419,-47.0385 163.512,-31.9142 193.893,-21.7242"/>
<polygon fill="midnightblue" stroke="midnightblue" points="195.219,-24.9713 203.587,-18.473 192.993,-18.3347 195.219,-24.9713"/>
</g>
<!-- Node8&#45;&gt;Node3 -->
<g id="edge11" class="edge"><title>Node8&#45;&gt;Node3</title>
<path fill="none" stroke="midnightblue" d="M204.773,-112.41C219.092,-105.04 237.325,-92.9163 245.867,-76 253.576,-60.7344 246.159,-41.9351 238.265,-28.4877"/>
<polygon fill="midnightblue" stroke="midnightblue" points="241.003,-26.2757 232.642,-19.7688 235.12,-30.0697 241.003,-26.2757"/>
</g>
<!-- Node8&#45;&gt;Node4 -->
<g id="edge12" class="edge"><title>Node8&#45;&gt;Node4</title>
<path fill="none" stroke="midnightblue" d="M210.72,-112.46C271.352,-92.4315 422.466,-42.5138 487.412,-21.0601"/>
<polygon fill="midnightblue" stroke="midnightblue" points="488.671,-24.3303 497.069,-17.8703 486.476,-17.6836 488.671,-24.3303"/>
</g>
<!-- Node8&#45;&gt;Node6 -->
<g id="edge13" class="edge"><title>Node8&#45;&gt;Node6</title>
<path fill="none" stroke="midnightblue" d="M224.48,-112.444C268.092,-103.023 338.267,-87.8656 385.445,-77.6752"/>
<polygon fill="midnightblue" stroke="midnightblue" points="386.404,-81.0489 395.439,-75.5164 384.926,-74.2067 386.404,-81.0489"/>
</g>
<!-- Node8&#45;&gt;Node9 -->
<g id="edge14" class="edge"><title>Node8&#45;&gt;Node9</title>
<path fill="none" stroke="midnightblue" d="M185.032,-112.083C185.163,-105.006 185.351,-94.8611 185.516,-85.9865"/>
<polygon fill="midnightblue" stroke="midnightblue" points="189.019,-85.8142 185.705,-75.7511 182.02,-85.6845 189.019,-85.8142"/>
</g>
<!-- Node9&#45;&gt;Node3 -->
<g id="edge15" class="edge"><title>Node9&#45;&gt;Node3</title>
<path fill="none" stroke="midnightblue" d="M192.472,-56.083C198.122,-48.4554 206.412,-37.2645 213.318,-27.9408"/>
<polygon fill="midnightblue" stroke="midnightblue" points="216.245,-29.87 219.385,-19.7511 210.62,-25.7034 216.245,-29.87"/>
</g>
<!-- Node10&#45;&gt;Node3 -->
<g id="edge19" class="edge"><title>Node10&#45;&gt;Node3</title>
<path fill="none" stroke="midnightblue" d="M665.724,-112.429C628.347,-98.8508 552.175,-72.2711 485.867,-56 404.835,-36.1159 307.498,-21.7472 258.074,-15.1109"/>
<polygon fill="midnightblue" stroke="midnightblue" points="258.367,-11.6192 247.994,-13.7759 257.448,-18.5586 258.367,-11.6192"/>
</g>
<!-- Node10&#45;&gt;Node4 -->
<g id="edge17" class="edge"><title>Node10&#45;&gt;Node4</title>
<path fill="none" stroke="midnightblue" d="M687.15,-112.061C684.005,-98.0965 676.005,-71.1421 658.867,-56 627.862,-28.605 580.08,-17.8691 548.891,-13.6737"/>
<polygon fill="midnightblue" stroke="midnightblue" points="548.95,-10.156 538.605,-12.446 548.12,-17.1067 548.95,-10.156"/>
</g>
<!-- Node10&#45;&gt;Node5 -->
<g id="edge18" class="edge"><title>Node10&#45;&gt;Node5</title>
<path fill="none" stroke="midnightblue" d="M699.953,-112.324C710.353,-104.185 726.128,-91.8395 738.589,-82.0874"/>
<polygon fill="midnightblue" stroke="midnightblue" points="740.861,-84.7533 746.579,-75.8339 736.547,-79.2407 740.861,-84.7533"/>
</g>
<!-- Node11&#45;&gt;Node6 -->
<g id="edge21" class="edge"><title>Node11&#45;&gt;Node6</title>
<path fill="none" stroke="midnightblue" d="M327.991,-112.444C348.891,-103.557 381.802,-89.5632 405.583,-79.4514"/>
<polygon fill="midnightblue" stroke="midnightblue" points="407.005,-82.6504 414.838,-75.5164 404.266,-76.2085 407.005,-82.6504"/>
</g>
<!-- Node13&#45;&gt;Node6 -->
<g id="edge25" class="edge"><title>Node13&#45;&gt;Node6</title>
<path fill="none" stroke="midnightblue" d="M452.399,-112.083C449.555,-104.77 445.438,-94.1814 441.907,-85.1034"/>
<polygon fill="midnightblue" stroke="midnightblue" points="445.157,-83.8025 438.27,-75.7511 438.633,-86.3397 445.157,-83.8025"/>
</g>
</g>
</svg>
        <g id="navigator" transform="translate(0 0)" fill="#404254">
                <rect fill="#f2f5e9" fill-opacity="0.5" stroke="#606060" stroke-width=".5" x="0" y="0" width="60" height="60"/>
                <use id="zoomplus" xlink:href="#zoomPlus" x="17" y="9" onmousedown="handleZoom(evt,'in')"/>
                <use id="zoomminus" xlink:href="#zoomMin" x="42" y="9" onmousedown="handleZoom(evt,'out')"/>
                <use id="reset" xlink:href="#resetDef" x="30" y="36" onmousedown="handleReset()"/>
                <g id="arrowUp" xlink:href="#dirArrow" transform="translate(30 24)" onmousedown="handlePan(0,-1)">
                  <use xlink:href="#rim" fill="#404040">
                        <set attributeName="fill" to="#808080" begin="arrowUp.mouseover" end="arrowUp.mouseout"/>
                  </use>
                  <path fill="none" stroke="white" stroke-width="1.5" d="M0,-3.0v7 M-2.5,-0.5L0,-3.0L2.5,-0.5"/>
                </g>
                <g id="arrowRight" xlink:href="#dirArrow" transform="rotate(90) translate(36 -43)" onmousedown="handlePan(1,0)">
                  <use xlink:href="#rim" fill="#404040">
                        <set attributeName="fill" to="#808080" begin="arrowRight.mouseover" end="arrowRight.mouseout"/>
                  </use>
                  <path fill="none" stroke="white" stroke-width="1.5" d="M0,-3.0v7 M-2.5,-0.5L0,-3.0L2.5,-0.5"/>
                </g>
                <g id="arrowDown" xlink:href="#dirArrow" transform="rotate(180) translate(-30 -48)" onmousedown="handlePan(0,1)">
                  <use xlink:href="#rim" fill="#404040">
                        <set attributeName="fill" to="#808080" begin="arrowDown.mouseover" end="arrowDown.mouseout"/>
                  </use>
                  <path fill="none" stroke="white" stroke-width="1.5" d="M0,-3.0v7 M-2.5,-0.5L0,-3.0L2.5,-0.5"/>
                </g>
                <g id="arrowLeft" xlink:href="#dirArrow" transform="rotate(270) translate(-36 17)" onmousedown="handlePan(-1,0)">
                  <use xlink:href="#rim" fill="#404040">
                        <set attributeName="fill" to="#808080" begin="arrowLeft.mouseover" end="arrowLeft.mouseout"/>
                  </use>
                  <path fill="none" stroke="white" stroke-width="1.5" d="M0,-3.0v7 M-2.5,-0.5L0,-3.0L2.5,-0.5"/>
                </g>
        </g>
        <svg viewBox="0 0 15 15" width="100%" height="30px" preserveAspectRatio="xMaxYMin meet">
         <g id="arrow_out" transform="scale(0.3 0.3)">
          <a xlink:href="Data_8cpp__incl_org.svg" target="_base">
           <rect id="button" ry="5" rx="5" y="6" x="6" height="38" width="38"
                fill="#f2f5e9" fill-opacity="0.5" stroke="#606060" stroke-width="1.0"/>
           <path id="arrow"
             d="M 11.500037,31.436501 C 11.940474,20.09759 22.043105,11.32322 32.158766,21.979434 L 37.068811,17.246167 C 37.068811,17.246167 37.088388,32 37.088388,32 L 22.160133,31.978069 C 22.160133,31.978069 26.997745,27.140456 26.997745,27.140456 C 18.528582,18.264221 13.291696,25.230495 11.500037,31.436501 z"
             style="fill:#404040;"/>
          </a>
         </g>
        </svg>
</svg>
