<?xml version="1.0" encoding="UTF-8" standalone="no"?>
<!DOCTYPE svg PUBLIC "-//W3C//DTD SVG 1.1//EN"
 "http://www.w3.org/Graphics/SVG/1.1/DTD/svg11.dtd">
<!-- Generated by graphviz version 2.36.0 (20140111.2315)
 -->
<!-- Title: /home/travis/build/ComPWA/ComPWA/DataReader/Data.cpp Pages: 1 -->
<svg width="1580pt" height="354pt"
 viewBox="0.00 0.00 1579.76 354.00" xmlns="http://www.w3.org/2000/svg" xmlns:xlink="http://www.w3.org/1999/xlink">
<g id="graph0" class="graph" transform="scale(1 1) rotate(0) translate(4 350)">
<title>/home/travis/build/ComPWA/ComPWA/DataReader/Data.cpp</title>
<polygon fill="white" stroke="none" points="-4,4 -4,-350 1575.76,-350 1575.76,4 -4,4"/>
<!-- Node1 -->
<g id="node1" class="node"><title>Node1</title>
<polygon fill="#bfbfbf" stroke="black" points="538.259,-304.5 538.259,-345.5 705.259,-345.5 705.259,-304.5 538.259,-304.5"/>
<text text-anchor="start" x="546.259" y="-333.5" font-family="Helvetica,sans-Serif" font-size="10.00">/home/travis/build</text>
<text text-anchor="start" x="546.259" y="-322.5" font-family="Helvetica,sans-Serif" font-size="10.00">/ComPWA/ComPWA/DataReader</text>
<text text-anchor="middle" x="621.759" y="-311.5" font-family="Helvetica,sans-Serif" font-size="10.00">/Data.cpp</text>
</g>
<!-- Node2 -->
<g id="node2" class="node"><title>Node2</title>
<g id="a_node2"><a xlink:href="../../d2/d4b/Data_8hpp.html" target="_top" xlink:title="Contains Data interface class. ">
<polygon fill="white" stroke="black" points="565.759,-248.5 565.759,-267.5 677.759,-267.5 677.759,-248.5 565.759,-248.5"/>
<text text-anchor="middle" x="621.759" y="-255.5" font-family="Helvetica,sans-Serif" font-size="10.00">DataReader/Data.hpp</text>
</a>
</g>
</g>
<!-- Node1&#45;&gt;Node2 -->
<g id="edge1" class="edge"><title>Node1&#45;&gt;Node2</title>
<path fill="none" stroke="midnightblue" d="M621.759,-304.498C621.759,-296.065 621.759,-286.235 621.759,-277.874"/>
<polygon fill="midnightblue" stroke="midnightblue" points="625.259,-277.652 621.759,-267.652 618.259,-277.653 625.259,-277.652"/>
</g>
<!-- Node3 -->
<g id="node3" class="node"><title>Node3</title>
<polygon fill="white" stroke="#bfbfbf" points="575.759,-6.5 575.759,-25.5 619.759,-25.5 619.759,-6.5 575.759,-6.5"/>
<text text-anchor="middle" x="597.759" y="-13.5" font-family="Helvetica,sans-Serif" font-size="10.00">vector</text>
</g>
<!-- Node2&#45;&gt;Node3 -->
<g id="edge2" class="edge"><title>Node2&#45;&gt;Node3</title>
<path fill="none" stroke="midnightblue" d="M598.294,-248.424C551.674,-229.884 448.783,-181.079 412.759,-100 385.051,-37.6349 505.397,-22.1272 565.453,-18.2733"/>
<polygon fill="midnightblue" stroke="midnightblue" points="565.789,-21.76 575.574,-17.6975 565.391,-14.7713 565.789,-21.76"/>
</g>
<!-- Node4 -->
<g id="node4" class="node"><title>Node4</title>
<polygon fill="white" stroke="#bfbfbf" points="789.259,-6.5 789.259,-25.5 830.259,-25.5 830.259,-6.5 789.259,-6.5"/>
<text text-anchor="middle" x="809.759" y="-13.5" font-family="Helvetica,sans-Serif" font-size="10.00">string</text>
</g>
<!-- Node2&#45;&gt;Node4 -->
<g id="edge3" class="edge"><title>Node2&#45;&gt;Node4</title>
<path fill="none" stroke="midnightblue" d="M677.782,-255.657C745.99,-250.646 858.641,-230.747 911.759,-156 928.703,-132.158 860.328,-63.7069 827.029,-32.6542"/>
<polygon fill="midnightblue" stroke="midnightblue" points="829.117,-29.8189 819.392,-25.6151 824.373,-34.9661 829.117,-29.8189"/>
</g>
<!-- Node5 -->
<g id="node5" class="node"><title>Node5</title>
<polygon fill="white" stroke="#bfbfbf" points="1303.76,-6.5 1303.76,-25.5 1355.76,-25.5 1355.76,-6.5 1303.76,-6.5"/>
<text text-anchor="middle" x="1329.76" y="-13.5" font-family="Helvetica,sans-Serif" font-size="10.00">memory</text>
</g>
<!-- Node2&#45;&gt;Node5 -->
<g id="edge4" class="edge"><title>Node2&#45;&gt;Node5</title>
<path fill="none" stroke="midnightblue" d="M677.923,-255.064C844.072,-248.016 1327.31,-217.582 1418.76,-100 1427.49,-88.7737 1425.89,-80.3053 1418.76,-68 1407.3,-48.2282 1384.97,-35.4638 1365.54,-27.6496"/>
<polygon fill="midnightblue" stroke="midnightblue" points="1366.6,-24.3102 1356.01,-24.1029 1364.16,-30.8708 1366.6,-24.3102"/>
</g>
<!-- Node6 -->
<g id="node6" class="node"><title>Node6</title>
<g id="a_node6"><a xlink:href="../../df/d7d/Event_8hpp.html" target="_top" xlink:title="This class provides a internal container for event&#45;based information. ">
<polygon fill="white" stroke="black" points="271.259,-136.5 271.259,-155.5 356.259,-155.5 356.259,-136.5 271.259,-136.5"/>
<text text-anchor="middle" x="313.759" y="-143.5" font-family="Helvetica,sans-Serif" font-size="10.00">Core/Event.hpp</text>
</a>
</g>
</g>
<!-- Node2&#45;&gt;Node6 -->
<g id="edge5" class="edge"><title>Node2&#45;&gt;Node6</title>
<path fill="none" stroke="midnightblue" d="M565.667,-257.227C485.642,-256.218 344.81,-249.056 312.759,-212 301.934,-199.484 303.837,-179.982 307.44,-165.603"/>
<polygon fill="midnightblue" stroke="midnightblue" points="310.857,-166.388 310.343,-155.805 304.146,-164.399 310.857,-166.388"/>
</g>
<!-- Node9 -->
<g id="node9" class="node"><title>Node9</title>
<g id="a_node9"><a xlink:href="../../d8/d6f/Efficiency_8hpp.html" target="_top" xlink:title="Core/Efficiency.hpp">
<polygon fill="white" stroke="black" points="6.25935,-136.5 6.25935,-155.5 109.259,-155.5 109.259,-136.5 6.25935,-136.5"/>
<text text-anchor="middle" x="57.7594" y="-143.5" font-family="Helvetica,sans-Serif" font-size="10.00">Core/Efficiency.hpp</text>
</a>
</g>
</g>
<!-- Node2&#45;&gt;Node9 -->
<g id="edge12" class="edge"><title>Node2&#45;&gt;Node9</title>
<path fill="none" stroke="midnightblue" d="M565.601,-254.978C438.727,-250.01 137.922,-235.847 98.7594,-212 81.3524,-201.401 70.1211,-180.308 63.893,-165.019"/>
<polygon fill="midnightblue" stroke="midnightblue" points="67.1396,-163.708 60.3662,-155.561 60.5808,-166.154 67.1396,-163.708"/>
</g>
<!-- Node11 -->
<g id="node11" class="node"><title>Node11</title>
<g id="a_node11"><a xlink:href="../../d4/d37/Kinematics_8hpp.html" target="_top" xlink:title="Core/Kinematics.hpp">
<polygon fill="white" stroke="black" points="567.759,-192.5 567.759,-211.5 675.759,-211.5 675.759,-192.5 567.759,-192.5"/>
<text text-anchor="middle" x="621.759" y="-199.5" font-family="Helvetica,sans-Serif" font-size="10.00">Core/Kinematics.hpp</text>
</a>
</g>
</g>
<!-- Node2&#45;&gt;Node11 -->
<g id="edge16" class="edge"><title>Node2&#45;&gt;Node11</title>
<path fill="none" stroke="midnightblue" d="M621.759,-248.083C621.759,-241.006 621.759,-230.861 621.759,-221.986"/>
<polygon fill="midnightblue" stroke="midnightblue" points="625.259,-221.751 621.759,-211.751 618.259,-221.751 625.259,-221.751"/>
</g>
<!-- Node17 -->
<g id="node17" class="node"><title>Node17</title>
<g id="a_node17"><a xlink:href="../../d8/dd4/DataPoint_8hpp.html" target="_top" xlink:title="dataPoint stores kinematic information of a dalitz plot ">
<polygon fill="white" stroke="red" points="800.259,-136.5 800.259,-155.5 903.259,-155.5 903.259,-136.5 800.259,-136.5"/>
<text text-anchor="middle" x="851.759" y="-143.5" font-family="Helvetica,sans-Serif" font-size="10.00">Core/DataPoint.hpp</text>
</a>
</g>
</g>
<!-- Node2&#45;&gt;Node17 -->
<g id="edge51" class="edge"><title>Node2&#45;&gt;Node17</title>
<path fill="none" stroke="midnightblue" d="M639.807,-248.368C680.031,-229.131 777.223,-182.648 824.721,-159.931"/>
<polygon fill="midnightblue" stroke="midnightblue" points="826.284,-163.064 833.795,-155.591 823.264,-156.749 826.284,-163.064"/>
</g>
<!-- Node18 -->
<g id="node18" class="node"><title>Node18</title>
<g id="a_node18"><a xlink:href="../../df/d9f/ParameterList_8hpp.html" target="_top" xlink:title="This class provides a list of fit parameters which can have different types. ">
<polygon fill="white" stroke="red" points="977.759,-136.5 977.759,-155.5 1097.76,-155.5 1097.76,-136.5 977.759,-136.5"/>
<text text-anchor="middle" x="1037.76" y="-143.5" font-family="Helvetica,sans-Serif" font-size="10.00">Core/ParameterList.hpp</text>
</a>
</g>
</g>
<!-- Node2&#45;&gt;Node18 -->
<g id="edge34" class="edge"><title>Node2&#45;&gt;Node18</title>
<path fill="none" stroke="midnightblue" d="M677.956,-257.162C744.228,-255.574 856.64,-247.239 945.759,-212 974.829,-200.505 1003.46,-178.024 1020.87,-162.757"/>
<polygon fill="midnightblue" stroke="midnightblue" points="1023.38,-165.212 1028.47,-155.922 1018.7,-160.008 1023.38,-165.212"/>
</g>
<!-- Node23 -->
<g id="node23" class="node"><title>Node23</title>
<g id="a_node23"><a xlink:href="../../df/d33/Generator_8hpp.html" target="_top" xlink:title="Core/Generator.hpp">
<polygon fill="white" stroke="black" points="321.759,-192.5 321.759,-211.5 423.759,-211.5 423.759,-192.5 321.759,-192.5"/>
<text text-anchor="middle" x="372.759" y="-199.5" font-family="Helvetica,sans-Serif" font-size="10.00">Core/Generator.hpp</text>
</a>
</g>
</g>
<!-- Node2&#45;&gt;Node23 -->
<g id="edge49" class="edge"><title>Node2&#45;&gt;Node23</title>
<path fill="none" stroke="midnightblue" d="M582.305,-248.444C538.867,-239.023 468.973,-223.866 421.984,-213.675"/>
<polygon fill="midnightblue" stroke="midnightblue" points="422.544,-210.215 412.03,-211.516 421.061,-217.056 422.544,-210.215"/>
</g>
<!-- Node24 -->
<g id="node24" class="node"><title>Node24</title>
<g id="a_node24"><a xlink:href="../../de/d34/Resolution_8hpp.html" target="_top" xlink:title="Core/Resolution.hpp">
<polygon fill="white" stroke="black" points="1465.76,-192.5 1465.76,-211.5 1571.76,-211.5 1571.76,-192.5 1465.76,-192.5"/>
<text text-anchor="middle" x="1518.76" y="-199.5" font-family="Helvetica,sans-Serif" font-size="10.00">Core/Resolution.hpp</text>
</a>
</g>
</g>
<!-- Node2&#45;&gt;Node24 -->
<g id="edge52" class="edge"><title>Node2&#45;&gt;Node24</title>
<path fill="none" stroke="midnightblue" d="M678.231,-255.484C812.548,-251.542 1161.54,-239.316 1451.76,-212 1452.87,-211.896 1453.99,-211.786 1455.12,-211.673"/>
<polygon fill="midnightblue" stroke="midnightblue" points="1455.85,-215.115 1465.41,-210.555 1455.09,-208.156 1455.85,-215.115"/>
</g>
<!-- Node25 -->
<g id="node25" class="node"><title>Node25</title>
<g id="a_node25"><a xlink:href="../../d2/dee/DataCorrection_8hpp.html" target="_top" xlink:title="DataReader/DataCorrection.hpp">
<polygon fill="white" stroke="red" points="108.259,-192.5 108.259,-211.5 265.259,-211.5 265.259,-192.5 108.259,-192.5"/>
<text text-anchor="middle" x="186.759" y="-199.5" font-family="Helvetica,sans-Serif" font-size="10.00">DataReader/DataCorrection.hpp</text>
</a>
</g>
</g>
<!-- Node2&#45;&gt;Node25 -->
<g id="edge53" class="edge"><title>Node2&#45;&gt;Node25</title>
<path fill="none" stroke="midnightblue" d="M565.337,-249.996C488.826,-240.498 351.816,-223.49 265.29,-212.749"/>
<polygon fill="midnightblue" stroke="midnightblue" points="265.612,-209.262 255.257,-211.503 264.75,-216.209 265.612,-209.262"/>
</g>
<!-- Node6&#45;&gt;Node3 -->
<g id="edge6" class="edge"><title>Node6&#45;&gt;Node3</title>
<path fill="none" stroke="midnightblue" d="M314.249,-136.304C315.648,-120.207 321.036,-85.7884 341.759,-68 375.01,-39.4589 504.114,-24.9351 565.277,-19.538"/>
<polygon fill="midnightblue" stroke="midnightblue" points="565.858,-23.0013 575.524,-18.6635 565.262,-16.0267 565.858,-23.0013"/>
</g>
<!-- Node6&#45;&gt;Node4 -->
<g id="edge7" class="edge"><title>Node6&#45;&gt;Node4</title>
<path fill="none" stroke="midnightblue" d="M356.308,-137.923C402.142,-129.985 477.072,-116.092 540.759,-100 628.351,-77.8681 729.702,-44.4223 779.272,-27.5411"/>
<polygon fill="midnightblue" stroke="midnightblue" points="780.711,-30.7481 789.04,-24.2003 778.446,-24.1247 780.711,-30.7481"/>
</g>
<!-- Node7 -->
<g id="node7" class="node"><title>Node7</title>
<polygon fill="white" stroke="#bfbfbf" points="216.759,-6.5 216.759,-25.5 270.759,-25.5 270.759,-6.5 216.759,-6.5"/>
<text text-anchor="middle" x="243.759" y="-13.5" font-family="Helvetica,sans-Serif" font-size="10.00">iostream</text>
</g>
<!-- Node6&#45;&gt;Node7 -->
<g id="edge8" class="edge"><title>Node6&#45;&gt;Node7</title>
<path fill="none" stroke="midnightblue" d="M271.154,-141.879C242.716,-137.321 207.261,-126.324 188.759,-100 172.175,-76.4027 200.572,-48.3071 222.362,-31.6008"/>
<polygon fill="midnightblue" stroke="midnightblue" points="224.571,-34.3209 230.569,-25.5871 220.434,-28.6744 224.571,-34.3209"/>
</g>
<!-- Node8 -->
<g id="node8" class="node"><title>Node8</title>
<g id="a_node8"><a xlink:href="../../d3/d65/Particle_8hpp.html" target="_top" xlink:title="This class provides a internal container for information of a particle. ">
<polygon fill="white" stroke="red" points="197.759,-74.5 197.759,-93.5 289.759,-93.5 289.759,-74.5 197.759,-74.5"/>
<text text-anchor="middle" x="243.759" y="-81.5" font-family="Helvetica,sans-Serif" font-size="10.00">Core/Particle.hpp</text>
</a>
</g>
</g>
<!-- Node6&#45;&gt;Node8 -->
<g id="edge9" class="edge"><title>Node6&#45;&gt;Node8</title>
<path fill="none" stroke="midnightblue" d="M303.73,-136.403C292.71,-126.958 274.799,-111.606 261.416,-100.134"/>
<polygon fill="midnightblue" stroke="midnightblue" points="263.64,-97.4311 253.77,-93.5806 259.085,-102.746 263.64,-97.4311"/>
</g>
<!-- Node8&#45;&gt;Node3 -->
<g id="edge10" class="edge"><title>Node8&#45;&gt;Node3</title>
<path fill="none" stroke="midnightblue" d="M276.043,-74.4681C284.989,-72.2298 294.725,-69.9102 303.759,-68 398.316,-48.0072 511.195,-30.0687 565.473,-21.8083"/>
<polygon fill="midnightblue" stroke="midnightblue" points="566.161,-25.2441 575.525,-20.2875 565.114,-18.3229 566.161,-25.2441"/>
</g>
<!-- Node8&#45;&gt;Node7 -->
<g id="edge11" class="edge"><title>Node8&#45;&gt;Node7</title>
<path fill="none" stroke="midnightblue" d="M243.759,-74.3717C243.759,-64.6426 243.759,-48.528 243.759,-35.8504"/>
<polygon fill="midnightblue" stroke="midnightblue" points="247.259,-35.8411 243.759,-25.8411 240.259,-35.8412 247.259,-35.8411"/>
</g>
<!-- Node9&#45;&gt;Node3 -->
<g id="edge14" class="edge"><title>Node9&#45;&gt;Node3</title>
<path fill="none" stroke="midnightblue" d="M51.2774,-136.385C40.3317,-120.725 21.0282,-87.4225 38.7594,-68 56.6592,-48.3927 449.244,-25.206 565.563,-18.746"/>
<polygon fill="midnightblue" stroke="midnightblue" points="565.837,-22.2362 575.629,-18.1905 565.451,-15.2469 565.837,-22.2362"/>
</g>
<!-- Node9&#45;&gt;Node7 -->
<g id="edge13" class="edge"><title>Node9&#45;&gt;Node7</title>
<path fill="none" stroke="midnightblue" d="M41.976,-136.467C29.5566,-128.769 13.1543,-116.179 5.75935,-100 -0.152911,-87.0649 -3.18184,-79.0601 5.75935,-68 30.5703,-37.3092 145.877,-24.2539 206.415,-19.4379"/>
<polygon fill="midnightblue" stroke="midnightblue" points="206.989,-22.9044 216.695,-18.6575 206.459,-15.9245 206.989,-22.9044"/>
</g>
<!-- Node10 -->
<g id="node10" class="node"><title>Node10</title>
<g id="a_node10"><a xlink:href="../../da/db4/Logging_8hpp.html" target="_top" xlink:title="Core/Logging.hpp">
<polygon fill="white" stroke="red" points="48.2594,-74.5 48.2594,-93.5 141.259,-93.5 141.259,-74.5 48.2594,-74.5"/>
<text text-anchor="middle" x="94.7594" y="-81.5" font-family="Helvetica,sans-Serif" font-size="10.00">Core/Logging.hpp</text>
</a>
</g>
</g>
<!-- Node9&#45;&gt;Node10 -->
<g id="edge15" class="edge"><title>Node9&#45;&gt;Node10</title>
<path fill="none" stroke="midnightblue" d="M63.0606,-136.403C68.5556,-127.493 77.2925,-113.325 84.2034,-102.118"/>
<polygon fill="midnightblue" stroke="midnightblue" points="87.1982,-103.929 89.468,-93.5806 81.24,-100.255 87.1982,-103.929"/>
</g>
<!-- Node11&#45;&gt;Node3 -->
<g id="edge17" class="edge"><title>Node11&#45;&gt;Node3</title>
<path fill="none" stroke="midnightblue" d="M576.106,-192.431C555.516,-186.044 533.094,-174.999 520.759,-156 515.919,-148.545 518.242,-144.525 520.759,-136 524.091,-124.718 565.406,-63.8963 586.103,-33.8366"/>
<polygon fill="midnightblue" stroke="midnightblue" points="588.999,-35.8024 591.799,-25.5843 583.238,-31.8259 588.999,-35.8024"/>
</g>
<!-- Node11&#45;&gt;Node4 -->
<g id="edge18" class="edge"><title>Node11&#45;&gt;Node4</title>
<path fill="none" stroke="midnightblue" d="M675.809,-192.854C701.502,-186.556 731.049,-175.464 751.759,-156 786.916,-122.96 801.524,-65.3414 806.941,-35.7365"/>
<polygon fill="midnightblue" stroke="midnightblue" points="810.447,-35.9902 808.639,-25.5508 803.542,-34.8391 810.447,-35.9902"/>
</g>
<!-- Node11&#45;&gt;Node6 -->
<g id="edge20" class="edge"><title>Node11&#45;&gt;Node6</title>
<path fill="none" stroke="midnightblue" d="M572.956,-192.444C516.63,-182.568 424.34,-166.387 366.428,-156.234"/>
<polygon fill="midnightblue" stroke="midnightblue" points="366.837,-152.753 356.383,-154.473 365.629,-159.647 366.837,-152.753"/>
</g>
<!-- Node12 -->
<g id="node12" class="node"><title>Node12</title>
<polygon fill="white" stroke="#bfbfbf" points="690.259,-136.5 690.259,-155.5 743.259,-155.5 743.259,-136.5 690.259,-136.5"/>
<text text-anchor="middle" x="716.759" y="-143.5" font-family="Helvetica,sans-Serif" font-size="10.00">complex</text>
</g>
<!-- Node11&#45;&gt;Node12 -->
<g id="edge19" class="edge"><title>Node11&#45;&gt;Node12</title>
<path fill="none" stroke="midnightblue" d="M637.023,-192.324C651.981,-183.822 675.014,-170.729 692.486,-160.797"/>
<polygon fill="midnightblue" stroke="midnightblue" points="694.57,-163.639 701.534,-155.655 691.111,-157.553 694.57,-163.639"/>
</g>
<!-- Node13 -->
<g id="node13" class="node"><title>Node13</title>
<g id="a_node13"><a xlink:href="../../dd/df5/SubSystem_8hpp.html" target="_top" xlink:title="Contains SubSystem class. ">
<polygon fill="white" stroke="red" points="421.759,-74.5 421.759,-93.5 531.759,-93.5 531.759,-74.5 421.759,-74.5"/>
<text text-anchor="middle" x="476.759" y="-81.5" font-family="Helvetica,sans-Serif" font-size="10.00">Core/SubSystem.hpp</text>
</a>
</g>
</g>
<!-- Node11&#45;&gt;Node13 -->
<g id="edge21" class="edge"><title>Node11&#45;&gt;Node13</title>
<path fill="none" stroke="midnightblue" d="M567.597,-196.071C539.68,-190.645 507.448,-179.363 487.759,-156 475.599,-141.571 473.97,-119.401 474.671,-103.678"/>
<polygon fill="midnightblue" stroke="midnightblue" points="478.171,-103.818 475.477,-93.5717 471.193,-103.262 478.171,-103.818"/>
</g>
<!-- Node14 -->
<g id="node14" class="node"><title>Node14</title>
<g id="a_node14"><a xlink:href="../../dc/ded/Properties_8hpp.html" target="_top" xlink:title="Core/Properties.hpp">
<polygon fill="white" stroke="red" points="529.759,-136.5 529.759,-155.5 633.759,-155.5 633.759,-136.5 529.759,-136.5"/>
<text text-anchor="middle" x="581.759" y="-143.5" font-family="Helvetica,sans-Serif" font-size="10.00">Core/Properties.hpp</text>
</a>
</g>
</g>
<!-- Node11&#45;&gt;Node14 -->
<g id="edge23" class="edge"><title>Node11&#45;&gt;Node14</title>
<path fill="none" stroke="midnightblue" d="M615.154,-192.083C609.504,-184.455 601.215,-173.264 594.308,-163.941"/>
<polygon fill="midnightblue" stroke="midnightblue" points="597.006,-161.703 588.242,-155.751 591.381,-165.87 597.006,-161.703"/>
</g>
<!-- Node15 -->
<g id="node15" class="node"><title>Node15</title>
<g id="a_node15"><a xlink:href="../../d9/dfb/Spin_8hpp.html" target="_top" xlink:title="Core/Spin.hpp">
<polygon fill="white" stroke="red" points="664.259,-74.5 664.259,-93.5 743.259,-93.5 743.259,-74.5 664.259,-74.5"/>
<text text-anchor="middle" x="703.759" y="-81.5" font-family="Helvetica,sans-Serif" font-size="10.00">Core/Spin.hpp</text>
</a>
</g>
</g>
<!-- Node11&#45;&gt;Node15 -->
<g id="edge30" class="edge"><title>Node11&#45;&gt;Node15</title>
<path fill="none" stroke="midnightblue" d="M627.923,-192.281C641.464,-173.126 674.011,-127.083 691.746,-101.994"/>
<polygon fill="midnightblue" stroke="midnightblue" points="694.833,-103.691 697.747,-93.5048 689.117,-99.6502 694.833,-103.691"/>
</g>
<!-- Node11&#45;&gt;Node17 -->
<g id="edge31" class="edge"><title>Node11&#45;&gt;Node17</title>
<path fill="none" stroke="midnightblue" d="M658.204,-192.444C698.158,-183.063 762.346,-167.993 805.744,-157.804"/>
<polygon fill="midnightblue" stroke="midnightblue" points="806.55,-161.21 815.486,-155.516 804.95,-154.395 806.55,-161.21"/>
</g>
<!-- Node13&#45;&gt;Node3 -->
<g id="edge22" class="edge"><title>Node13&#45;&gt;Node3</title>
<path fill="none" stroke="midnightblue" d="M492.578,-74.3717C513.05,-63.2051 548.944,-43.6266 573.032,-30.4876"/>
<polygon fill="midnightblue" stroke="midnightblue" points="574.834,-33.4917 581.937,-25.6305 571.482,-27.3464 574.834,-33.4917"/>
</g>
<!-- Node14&#45;&gt;Node3 -->
<g id="edge24" class="edge"><title>Node14&#45;&gt;Node3</title>
<path fill="none" stroke="midnightblue" d="M589.973,-136.182C597.303,-127.663 607.515,-114.019 611.759,-100 618.352,-78.2252 611.748,-52.2376 605.56,-35.2147"/>
<polygon fill="midnightblue" stroke="midnightblue" points="608.808,-33.9101 601.883,-25.8918 602.297,-36.4786 608.808,-33.9101"/>
</g>
<!-- Node14&#45;&gt;Node15 -->
<g id="edge25" class="edge"><title>Node14&#45;&gt;Node15</title>
<path fill="none" stroke="midnightblue" d="M599.239,-136.403C619.623,-126.379 653.535,-109.701 677.184,-98.0699"/>
<polygon fill="midnightblue" stroke="midnightblue" points="678.883,-101.135 686.312,-93.5806 675.794,-94.8531 678.883,-101.135"/>
</g>
<!-- Node15&#45;&gt;Node3 -->
<g id="edge28" class="edge"><title>Node15&#45;&gt;Node3</title>
<path fill="none" stroke="midnightblue" d="M689.902,-74.3717C672.206,-63.3533 641.356,-44.1449 620.267,-31.0142"/>
<polygon fill="midnightblue" stroke="midnightblue" points="621.959,-27.945 611.62,-25.6305 618.259,-33.8872 621.959,-27.945"/>
</g>
<!-- Node15&#45;&gt;Node4 -->
<g id="edge26" class="edge"><title>Node15&#45;&gt;Node4</title>
<path fill="none" stroke="midnightblue" d="M717.617,-74.3717C735.313,-63.3533 766.163,-44.1449 787.252,-31.0142"/>
<polygon fill="midnightblue" stroke="midnightblue" points="789.259,-33.8872 795.898,-25.6305 785.559,-27.945 789.259,-33.8872"/>
</g>
<!-- Node15&#45;&gt;Node7 -->
<g id="edge29" class="edge"><title>Node15&#45;&gt;Node7</title>
<path fill="none" stroke="midnightblue" d="M664.142,-77.3158C576.381,-64.724 366.612,-34.6267 281.053,-22.3508"/>
<polygon fill="midnightblue" stroke="midnightblue" points="281.409,-18.8661 271.013,-20.9103 280.414,-25.7951 281.409,-18.8661"/>
</g>
<!-- Node16 -->
<g id="node16" class="node"><title>Node16</title>
<polygon fill="white" stroke="#bfbfbf" points="944.259,-6.5 944.259,-25.5 979.259,-25.5 979.259,-6.5 944.259,-6.5"/>
<text text-anchor="middle" x="961.759" y="-13.5" font-family="Helvetica,sans-Serif" font-size="10.00">map</text>
</g>
<!-- Node15&#45;&gt;Node16 -->
<g id="edge27" class="edge"><title>Node15&#45;&gt;Node16</title>
<path fill="none" stroke="midnightblue" d="M737.224,-74.4393C788.688,-61.2742 886.303,-36.3028 934.053,-24.0876"/>
<polygon fill="midnightblue" stroke="midnightblue" points="935.17,-27.4148 943.99,-21.5456 933.435,-20.6332 935.17,-27.4148"/>
</g>
<!-- Node17&#45;&gt;Node3 -->
<g id="edge32" class="edge"><title>Node17&#45;&gt;Node3</title>
<path fill="none" stroke="midnightblue" d="M842.842,-136.424C826.197,-120.827 788.725,-87.6219 751.759,-68 711.915,-46.8504 661.647,-32.202 629.594,-24.1986"/>
<polygon fill="midnightblue" stroke="midnightblue" points="630.408,-20.7945 619.864,-21.8337 628.755,-27.5965 630.408,-20.7945"/>
</g>
<!-- Node17&#45;&gt;Node16 -->
<g id="edge33" class="edge"><title>Node17&#45;&gt;Node16</title>
<path fill="none" stroke="midnightblue" d="M859.32,-136.202C877.541,-115 924.107,-60.8138 947.661,-33.4048"/>
<polygon fill="midnightblue" stroke="midnightblue" points="950.572,-35.3878 954.435,-25.5224 945.263,-30.8254 950.572,-35.3878"/>
</g>
<!-- Node18&#45;&gt;Node3 -->
<g id="edge39" class="edge"><title>Node18&#45;&gt;Node3</title>
<path fill="none" stroke="midnightblue" d="M1011.44,-136.435C966.268,-121.822 870.99,-91.3881 789.759,-68 733.866,-51.9071 668.291,-34.8844 630.046,-25.1409"/>
<polygon fill="midnightblue" stroke="midnightblue" points="630.569,-21.6626 620.015,-22.5926 628.845,-28.4471 630.569,-21.6626"/>
</g>
<!-- Node18&#45;&gt;Node4 -->
<g id="edge36" class="edge"><title>Node18&#45;&gt;Node4</title>
<path fill="none" stroke="midnightblue" d="M1022.45,-136.403C983.587,-114.588 880.914,-56.9463 833.893,-30.5488"/>
<polygon fill="midnightblue" stroke="midnightblue" points="835.44,-27.4032 825.006,-25.5598 832.013,-33.5071 835.44,-27.4032"/>
</g>
<!-- Node18&#45;&gt;Node5 -->
<g id="edge37" class="edge"><title>Node18&#45;&gt;Node5</title>
<path fill="none" stroke="midnightblue" d="M1098.14,-145.062C1147.52,-142.479 1217.33,-132.58 1268.76,-100 1293.73,-84.1811 1311.88,-54.1875 1321.62,-34.9186"/>
<polygon fill="midnightblue" stroke="midnightblue" points="1324.86,-36.2427 1326.04,-25.7131 1318.55,-33.2122 1324.86,-36.2427"/>
</g>
<!-- Node18&#45;&gt;Node7 -->
<g id="edge35" class="edge"><title>Node18&#45;&gt;Node7</title>
<path fill="none" stroke="midnightblue" d="M977.736,-140.716C821.557,-129.563 414.457,-100.459 412.759,-100 356.426,-84.7606 296.472,-50.4097 265.345,-31.0153"/>
<polygon fill="midnightblue" stroke="midnightblue" points="266.969,-27.901 256.646,-25.5142 263.227,-33.8172 266.969,-27.901"/>
</g>
<!-- Node18&#45;&gt;Node10 -->
<g id="edge48" class="edge"><title>Node18&#45;&gt;Node10</title>
<path fill="none" stroke="midnightblue" d="M977.532,-140.433C956.705,-138.924 933.212,-137.3 911.759,-136 590.617,-116.538 508.753,-133.398 188.759,-100 176.689,-98.7402 163.808,-96.9687 151.575,-95.083"/>
<polygon fill="midnightblue" stroke="midnightblue" points="151.909,-91.5922 141.484,-93.4807 150.811,-98.5056 151.909,-91.5922"/>
</g>
<!-- Node18&#45;&gt;Node16 -->
<g id="edge40" class="edge"><title>Node18&#45;&gt;Node16</title>
<path fill="none" stroke="midnightblue" d="M1098.01,-141.49C1169.9,-135.061 1275.58,-117.154 1234.76,-68 1203.75,-30.6571 1052.63,-20.5067 989.53,-17.8748"/>
<polygon fill="midnightblue" stroke="midnightblue" points="989.629,-14.3761 979.502,-17.4897 989.36,-21.371 989.629,-14.3761"/>
</g>
<!-- Node19 -->
<g id="node19" class="node"><title>Node19</title>
<polygon fill="white" stroke="#bfbfbf" points="1357.76,-74.5 1357.76,-93.5 1409.76,-93.5 1409.76,-74.5 1357.76,-74.5"/>
<text text-anchor="middle" x="1383.76" y="-81.5" font-family="Helvetica,sans-Serif" font-size="10.00">sstream</text>
</g>
<!-- Node18&#45;&gt;Node19 -->
<g id="edge38" class="edge"><title>Node18&#45;&gt;Node19</title>
<path fill="none" stroke="midnightblue" d="M1098.03,-139.956C1160.29,-133.859 1259.92,-121.622 1343.76,-100 1346.99,-99.1666 1350.32,-98.1626 1353.62,-97.0739"/>
<polygon fill="midnightblue" stroke="midnightblue" points="1355.02,-100.29 1363.27,-93.6391 1352.67,-93.6955 1355.02,-100.29"/>
</g>
<!-- Node20 -->
<g id="node20" class="node"><title>Node20</title>
<polygon fill="white" stroke="#bfbfbf" points="990.259,-69 990.259,-99 1085.26,-99 1085.26,-69 990.259,-69"/>
<text text-anchor="start" x="998.259" y="-87" font-family="Helvetica,sans-Serif" font-size="10.00">boost/serialization</text>
<text text-anchor="middle" x="1037.76" y="-76" font-family="Helvetica,sans-Serif" font-size="10.00">/vector.hpp</text>
</g>
<!-- Node18&#45;&gt;Node20 -->
<g id="edge41" class="edge"><title>Node18&#45;&gt;Node20</title>
<path fill="none" stroke="midnightblue" d="M1037.76,-136.403C1037.76,-129.341 1037.76,-118.975 1037.76,-109.399"/>
<polygon fill="midnightblue" stroke="midnightblue" points="1041.26,-109.141 1037.76,-99.1408 1034.26,-109.141 1041.26,-109.141"/>
</g>
<!-- Node21 -->
<g id="node21" class="node"><title>Node21</title>
<polygon fill="white" stroke="#bfbfbf" points="1153.26,-1 1153.26,-31 1248.26,-31 1248.26,-1 1153.26,-1"/>
<text text-anchor="start" x="1161.26" y="-19" font-family="Helvetica,sans-Serif" font-size="10.00">boost/serialization</text>
<text text-anchor="middle" x="1200.76" y="-8" font-family="Helvetica,sans-Serif" font-size="10.00">/shared_ptr.hpp</text>
</g>
<!-- Node18&#45;&gt;Node21 -->
<g id="edge42" class="edge"><title>Node18&#45;&gt;Node21</title>
<path fill="none" stroke="midnightblue" d="M1097.94,-140.726C1154.6,-135.301 1233.55,-123.642 1252.76,-100 1268.85,-80.1927 1248.2,-55.0837 1228.36,-37.6965"/>
<polygon fill="midnightblue" stroke="midnightblue" points="1230.51,-34.9317 1220.59,-31.2111 1226.03,-40.3059 1230.51,-34.9317"/>
</g>
<!-- Node22 -->
<g id="node22" class="node"><title>Node22</title>
<g id="a_node22"><a xlink:href="../../d8/def/AbsParameter_8hpp.html" target="_top" xlink:title="This class defines the internal container of a parameter. ">
<polygon fill="white" stroke="red" points="1103.76,-74.5 1103.76,-93.5 1225.76,-93.5 1225.76,-74.5 1103.76,-74.5"/>
<text text-anchor="middle" x="1164.76" y="-81.5" font-family="Helvetica,sans-Serif" font-size="10.00">Core/AbsParameter.hpp</text>
</a>
</g>
</g>
<!-- Node18&#45;&gt;Node22 -->
<g id="edge43" class="edge"><title>Node18&#45;&gt;Node22</title>
<path fill="none" stroke="midnightblue" d="M1055.96,-136.403C1077.27,-126.334 1112.79,-109.552 1137.42,-97.9151"/>
<polygon fill="midnightblue" stroke="midnightblue" points="1139.05,-101.017 1146.6,-93.5806 1136.06,-94.6877 1139.05,-101.017"/>
</g>
<!-- Node22&#45;&gt;Node3 -->
<g id="edge45" class="edge"><title>Node22&#45;&gt;Node3</title>
<path fill="none" stroke="midnightblue" d="M1128.05,-74.471C1117.06,-72.1289 1104.96,-69.7542 1093.76,-68 1003.59,-53.8794 725.423,-28.4172 630.157,-19.8792"/>
<polygon fill="midnightblue" stroke="midnightblue" points="630.251,-16.3737 619.979,-18.9691 629.627,-23.3459 630.251,-16.3737"/>
</g>
<!-- Node22&#45;&gt;Node4 -->
<g id="edge44" class="edge"><title>Node22&#45;&gt;Node4</title>
<path fill="none" stroke="midnightblue" d="M1125.37,-74.4549C1115.09,-72.2868 1104.02,-70.0051 1093.76,-68 1001.77,-50.0271 892.533,-31.0822 840.404,-22.1874"/>
<polygon fill="midnightblue" stroke="midnightblue" points="840.913,-18.7238 830.468,-20.4958 839.738,-25.6245 840.913,-18.7238"/>
</g>
<!-- Node22&#45;&gt;Node5 -->
<g id="edge46" class="edge"><title>Node22&#45;&gt;Node5</title>
<path fill="none" stroke="midnightblue" d="M1186.33,-74.3717C1215.07,-62.877 1266.09,-42.4687 1298.89,-29.3465"/>
<polygon fill="midnightblue" stroke="midnightblue" points="1300.46,-32.4895 1308.44,-25.5259 1297.86,-25.9902 1300.46,-32.4895"/>
</g>
<!-- Node22&#45;&gt;Node21 -->
<g id="edge47" class="edge"><title>Node22&#45;&gt;Node21</title>
<path fill="none" stroke="midnightblue" d="M1169.47,-74.3717C1174.19,-65.7143 1181.67,-52.0008 1188.13,-40.152"/>
<polygon fill="midnightblue" stroke="midnightblue" points="1191.31,-41.6364 1193.02,-31.1815 1185.16,-38.2844 1191.31,-41.6364"/>
</g>
<!-- Node23&#45;&gt;Node6 -->
<g id="edge50" class="edge"><title>Node23&#45;&gt;Node6</title>
<path fill="none" stroke="midnightblue" d="M363.28,-192.324C354.558,-184.341 341.416,-172.313 330.862,-162.653"/>
<polygon fill="midnightblue" stroke="midnightblue" points="333.151,-160.004 323.411,-155.834 328.425,-165.167 333.151,-160.004"/>
</g>
<!-- Node25&#45;&gt;Node6 -->
<g id="edge54" class="edge"><title>Node25&#45;&gt;Node6</title>
<path fill="none" stroke="midnightblue" d="M206.883,-192.444C227.784,-183.557 260.694,-169.563 284.475,-159.451"/>
<polygon fill="midnightblue" stroke="midnightblue" points="285.897,-162.65 293.73,-155.516 283.158,-156.208 285.897,-162.65"/>
</g>
<!-- Node25&#45;&gt;Node10 -->
<g id="edge55" class="edge"><title>Node25&#45;&gt;Node10</title>
<path fill="none" stroke="midnightblue" d="M179.844,-192.281C164.585,-173.041 127.813,-126.677 107.976,-101.664"/>
<polygon fill="midnightblue" stroke="midnightblue" points="110.461,-99.1649 101.505,-93.5048 104.976,-103.515 110.461,-99.1649"/>
</g>
</g>
</svg>
