<?xml version="1.0" encoding="UTF-8" standalone="no"?>
<!DOCTYPE svg PUBLIC "-//W3C//DTD SVG 1.1//EN"
 "http://www.w3.org/Graphics/SVG/1.1/DTD/svg11.dtd">
<!-- Generated by graphviz version 2.36.0 (20140111.2315)
 -->
<!-- Title: ComPWA::Properties Pages: 1 -->
<svg width="277pt" height="326pt"
 viewBox="0.00 0.00 277.00 326.00" xmlns="http://www.w3.org/2000/svg" xmlns:xlink="http://www.w3.org/1999/xlink">
<g id="graph0" class="graph" transform="scale(1 1) rotate(0) translate(4 322)">
<title>ComPWA::Properties</title>
<polygon fill="white" stroke="none" points="-4,4 -4,-322 273,-322 273,4 -4,4"/>
<!-- Node1 -->
<g id="node1" class="node"><title>Node1</title>
<polygon fill="#bfbfbf" stroke="black" points="69.5,-205 69.5,-317 180.5,-317 180.5,-205 69.5,-205"/>
<text text-anchor="middle" x="125" y="-305" font-family="Helvetica,sans-Serif" font-size="10.00">ComPWA::Properties</text>
<polyline fill="none" stroke="black" points="69.5,-298 180.5,-298 "/>
<text text-anchor="start" x="77.5" y="-286" font-family="Helvetica,sans-Serif" font-size="10.00"># _name</text>
<text text-anchor="start" x="77.5" y="-275" font-family="Helvetica,sans-Serif" font-size="10.00"># _id</text>
<polyline fill="none" stroke="black" points="69.5,-268 180.5,-268 "/>
<text text-anchor="start" x="77.5" y="-256" font-family="Helvetica,sans-Serif" font-size="10.00">+ Properties()</text>
<text text-anchor="start" x="77.5" y="-245" font-family="Helvetica,sans-Serif" font-size="10.00">+ SetName()</text>
<text text-anchor="start" x="77.5" y="-234" font-family="Helvetica,sans-Serif" font-size="10.00">+ GetName()</text>
<text text-anchor="start" x="77.5" y="-223" font-family="Helvetica,sans-Serif" font-size="10.00">+ SetId()</text>
<text text-anchor="start" x="77.5" y="-212" font-family="Helvetica,sans-Serif" font-size="10.00">+ GetId()</text>
</g>
<!-- Node2 -->
<g id="node2" class="node"><title>Node2</title>
<g id="a_node2"><a xlink:href="../../d3/dc6/classComPWA_1_1Constant.html" target="_top" xlink:title="{ComPWA::Constant\n|# _value\l|+ Constant()\l+ Constant()\l+ SetValue()\l+ GetValue()\l+ SetValuePar()\l+ GetValuePar()\l}">
<polygon fill="white" stroke="black" points="-0.5,-28 -0.5,-140 106.5,-140 106.5,-28 -0.5,-28"/>
<text text-anchor="middle" x="53" y="-128" font-family="Helvetica,sans-Serif" font-size="10.00">ComPWA::Constant</text>
<polyline fill="none" stroke="black" points="-0.5,-121 106.5,-121 "/>
<text text-anchor="start" x="7.5" y="-109" font-family="Helvetica,sans-Serif" font-size="10.00"># _value</text>
<polyline fill="none" stroke="black" points="-0.5,-102 106.5,-102 "/>
<text text-anchor="start" x="7.5" y="-90" font-family="Helvetica,sans-Serif" font-size="10.00">+ Constant()</text>
<text text-anchor="start" x="7.5" y="-79" font-family="Helvetica,sans-Serif" font-size="10.00">+ Constant()</text>
<text text-anchor="start" x="7.5" y="-68" font-family="Helvetica,sans-Serif" font-size="10.00">+ SetValue()</text>
<text text-anchor="start" x="7.5" y="-57" font-family="Helvetica,sans-Serif" font-size="10.00">+ GetValue()</text>
<text text-anchor="start" x="7.5" y="-46" font-family="Helvetica,sans-Serif" font-size="10.00">+ SetValuePar()</text>
<text text-anchor="start" x="7.5" y="-35" font-family="Helvetica,sans-Serif" font-size="10.00">+ GetValuePar()</text>
</a>
</g>
</g>
<!-- Node1&#45;&gt;Node2 -->
<g id="edge1" class="edge"><title>Node1&#45;&gt;Node2</title>
<path fill="none" stroke="midnightblue" d="M98.3717,-195.278C90.8997,-177.117 82.8489,-157.549 75.6331,-140.011"/>
<polygon fill="none" stroke="midnightblue" points="95.1771,-196.713 102.219,-204.629 101.651,-194.049 95.1771,-196.713"/>
</g>
<!-- Node3 -->
<g id="node3" class="node"><title>Node3</title>
<g id="a_node3"><a xlink:href="../../d3/d4a/classComPWA_1_1ParticleProperties.html" target="_top" xlink:title="{ComPWA::ParticleProperties\n|# _mass\l# intQuantumNumbers_\l# spinQuantumNumbers_\l# _decayInfo\l|+ ParticleProperties()\l+ ParticleProperties()\l+ GetMass()\l+ GetMassPar()\l+ GetQuantumNumber()\l+ GetSpinQuantumNumber()\l+ GetDecayInfo()\l+ GetDecayType()\l}">
<polygon fill="white" stroke="black" points="125,-0.5 125,-167.5 269,-167.5 269,-0.5 125,-0.5"/>
<text text-anchor="middle" x="197" y="-155.5" font-family="Helvetica,sans-Serif" font-size="10.00">ComPWA::ParticleProperties</text>
<polyline fill="none" stroke="black" points="125,-148.5 269,-148.5 "/>
<text text-anchor="start" x="133" y="-136.5" font-family="Helvetica,sans-Serif" font-size="10.00"># _mass</text>
<text text-anchor="start" x="133" y="-125.5" font-family="Helvetica,sans-Serif" font-size="10.00"># intQuantumNumbers_</text>
<text text-anchor="start" x="133" y="-114.5" font-family="Helvetica,sans-Serif" font-size="10.00"># spinQuantumNumbers_</text>
<text text-anchor="start" x="133" y="-103.5" font-family="Helvetica,sans-Serif" font-size="10.00"># _decayInfo</text>
<polyline fill="none" stroke="black" points="125,-96.5 269,-96.5 "/>
<text text-anchor="start" x="133" y="-84.5" font-family="Helvetica,sans-Serif" font-size="10.00">+ ParticleProperties()</text>
<text text-anchor="start" x="133" y="-73.5" font-family="Helvetica,sans-Serif" font-size="10.00">+ ParticleProperties()</text>
<text text-anchor="start" x="133" y="-62.5" font-family="Helvetica,sans-Serif" font-size="10.00">+ GetMass()</text>
<text text-anchor="start" x="133" y="-51.5" font-family="Helvetica,sans-Serif" font-size="10.00">+ GetMassPar()</text>
<text text-anchor="start" x="133" y="-40.5" font-family="Helvetica,sans-Serif" font-size="10.00">+ GetQuantumNumber()</text>
<text text-anchor="start" x="133" y="-29.5" font-family="Helvetica,sans-Serif" font-size="10.00">+ GetSpinQuantumNumber()</text>
<text text-anchor="start" x="133" y="-18.5" font-family="Helvetica,sans-Serif" font-size="10.00">+ GetDecayInfo()</text>
<text text-anchor="start" x="133" y="-7.5" font-family="Helvetica,sans-Serif" font-size="10.00">+ GetDecayType()</text>
</a>
</g>
</g>
<!-- Node1&#45;&gt;Node3 -->
<g id="edge2" class="edge"><title>Node1&#45;&gt;Node3</title>
<path fill="none" stroke="midnightblue" d="M151.608,-195.327C155.338,-186.261 159.213,-176.844 163.056,-167.504"/>
<polygon fill="none" stroke="midnightblue" points="148.349,-194.049 147.781,-204.629 154.823,-196.713 148.349,-194.049"/>
</g>
</g>
</svg>
