<?xml version="1.0" encoding="UTF-8" standalone="no"?>
<!DOCTYPE svg PUBLIC "-//W3C//DTD SVG 1.1//EN"
 "http://www.w3.org/Graphics/SVG/1.1/DTD/svg11.dtd">
<!-- Generated by graphviz version 2.36.0 (20140111.2315)
 -->
<!-- Title: /home/travis/build/ComPWA/ComPWA/Core/TwoBodyKinematics.hpp Pages: 1 -->
<svg width="606pt" height="286pt"
 viewBox="0.00 0.00 606.27 286.00" xmlns="http://www.w3.org/2000/svg" xmlns:xlink="http://www.w3.org/1999/xlink">
<g id="graph0" class="graph" transform="scale(1 1) rotate(0) translate(4 282)">
<title>/home/travis/build/ComPWA/ComPWA/Core/TwoBodyKinematics.hpp</title>
<polygon fill="white" stroke="none" points="-4,4 -4,-282 602.274,-282 602.274,4 -4,4"/>
<!-- Node1 -->
<g id="node1" class="node"><title>Node1</title>
<polygon fill="#bfbfbf" stroke="black" points="234.774,-236.5 234.774,-277.5 369.774,-277.5 369.774,-236.5 234.774,-236.5"/>
<text text-anchor="start" x="242.774" y="-265.5" font-family="Helvetica,sans-Serif" font-size="10.00">/home/travis/build</text>
<text text-anchor="start" x="242.774" y="-254.5" font-family="Helvetica,sans-Serif" font-size="10.00">/ComPWA/ComPWA/Core</text>
<text text-anchor="middle" x="302.274" y="-243.5" font-family="Helvetica,sans-Serif" font-size="10.00">/TwoBodyKinematics.hpp</text>
</g>
<!-- Node2 -->
<g id="node2" class="node"><title>Node2</title>
<g id="a_node2"><a xlink:href="../../d4/d37/Kinematics_8hpp.html" target="_top" xlink:title="Core/Kinematics.hpp">
<polygon fill="white" stroke="black" points="248.274,-180.5 248.274,-199.5 356.274,-199.5 356.274,-180.5 248.274,-180.5"/>
<text text-anchor="middle" x="302.274" y="-187.5" font-family="Helvetica,sans-Serif" font-size="10.00">Core/Kinematics.hpp</text>
</a>
</g>
</g>
<!-- Node1&#45;&gt;Node2 -->
<g id="edge1" class="edge"><title>Node1&#45;&gt;Node2</title>
<path fill="none" stroke="midnightblue" d="M302.274,-236.498C302.274,-228.065 302.274,-218.235 302.274,-209.874"/>
<polygon fill="midnightblue" stroke="midnightblue" points="305.774,-209.652 302.274,-199.652 298.774,-209.653 305.774,-209.652"/>
</g>
<!-- Node3 -->
<g id="node3" class="node"><title>Node3</title>
<polygon fill="white" stroke="#bfbfbf" points="44.2737,-6.5 44.2737,-25.5 88.2737,-25.5 88.2737,-6.5 44.2737,-6.5"/>
<text text-anchor="middle" x="66.2737" y="-13.5" font-family="Helvetica,sans-Serif" font-size="10.00">vector</text>
</g>
<!-- Node2&#45;&gt;Node3 -->
<g id="edge2" class="edge"><title>Node2&#45;&gt;Node3</title>
<path fill="none" stroke="midnightblue" d="M247.84,-183.273C203.559,-177.28 140.138,-165.617 88.2737,-144 46.5161,-126.595 24.7289,-127.828 3.27367,-88 -8.95326,-65.3026 17.292,-43.8309 39.5538,-30.5634"/>
<polygon fill="midnightblue" stroke="midnightblue" points="41.4263,-33.5257 48.4175,-25.565 37.9878,-27.4284 41.4263,-33.5257"/>
</g>
<!-- Node4 -->
<g id="node4" class="node"><title>Node4</title>
<polygon fill="white" stroke="#bfbfbf" points="315.774,-6.5 315.774,-25.5 356.774,-25.5 356.774,-6.5 315.774,-6.5"/>
<text text-anchor="middle" x="336.274" y="-13.5" font-family="Helvetica,sans-Serif" font-size="10.00">string</text>
</g>
<!-- Node2&#45;&gt;Node4 -->
<g id="edge3" class="edge"><title>Node2&#45;&gt;Node4</title>
<path fill="none" stroke="midnightblue" d="M346.448,-180.472C393.166,-168.752 464.069,-142.569 493.274,-88 497.468,-80.1629 498.499,-75.1911 493.274,-68 489.425,-62.7033 411.052,-38.9756 366.524,-25.8331"/>
<polygon fill="midnightblue" stroke="midnightblue" points="367.368,-22.433 356.786,-22.9683 365.392,-29.1484 367.368,-22.433"/>
</g>
<!-- Node5 -->
<g id="node5" class="node"><title>Node5</title>
<polygon fill="white" stroke="#bfbfbf" points="545.774,-6.5 545.774,-25.5 598.774,-25.5 598.774,-6.5 545.774,-6.5"/>
<text text-anchor="middle" x="572.274" y="-13.5" font-family="Helvetica,sans-Serif" font-size="10.00">complex</text>
</g>
<!-- Node2&#45;&gt;Node5 -->
<g id="edge4" class="edge"><title>Node2&#45;&gt;Node5</title>
<path fill="none" stroke="midnightblue" d="M356.624,-182.155C389.748,-176.06 431.804,-164.744 464.274,-144 509.24,-115.273 545.452,-62.0565 562.198,-34.5217"/>
<polygon fill="midnightblue" stroke="midnightblue" points="565.379,-36.0192 567.467,-25.6321 559.358,-32.4499 565.379,-36.0192"/>
</g>
<!-- Node6 -->
<g id="node6" class="node"><title>Node6</title>
<g id="a_node6"><a xlink:href="../../df/d7d/Event_8hpp.html" target="_top" xlink:title="This class provides a internal container for event&#45;based information. ">
<polygon fill="white" stroke="black" points="97.7737,-124.5 97.7737,-143.5 182.774,-143.5 182.774,-124.5 97.7737,-124.5"/>
<text text-anchor="middle" x="140.274" y="-131.5" font-family="Helvetica,sans-Serif" font-size="10.00">Core/Event.hpp</text>
</a>
</g>
</g>
<!-- Node2&#45;&gt;Node6 -->
<g id="edge5" class="edge"><title>Node2&#45;&gt;Node6</title>
<path fill="none" stroke="midnightblue" d="M276.604,-180.444C249.351,-171.359 206.09,-156.939 175.623,-146.783"/>
<polygon fill="midnightblue" stroke="midnightblue" points="176.417,-143.358 165.823,-143.516 174.203,-149.999 176.417,-143.358"/>
</g>
<!-- Node9 -->
<g id="node9" class="node"><title>Node9</title>
<g id="a_node9"><a xlink:href="../../d8/d35/PhysConst_8hpp.html" target="_top" xlink:title="PhysConst provides particle information to the framework. ">
<polygon fill="white" stroke="black" points="292.274,-124.5 292.274,-143.5 400.274,-143.5 400.274,-124.5 292.274,-124.5"/>
<text text-anchor="middle" x="346.274" y="-131.5" font-family="Helvetica,sans-Serif" font-size="10.00">Core/PhysConst.hpp</text>
</a>
</g>
</g>
<!-- Node2&#45;&gt;Node9 -->
<g id="edge12" class="edge"><title>Node2&#45;&gt;Node9</title>
<path fill="none" stroke="midnightblue" d="M309.539,-180.083C315.819,-172.377 325.061,-161.033 332.705,-151.653"/>
<polygon fill="midnightblue" stroke="midnightblue" points="335.54,-153.714 339.143,-143.751 330.113,-149.293 335.54,-153.714"/>
</g>
<!-- Node12 -->
<g id="node12" class="node"><title>Node12</title>
<g id="a_node12"><a xlink:href="../../d9/dfb/Spin_8hpp.html" target="_top" xlink:title="Core/Spin.hpp">
<polygon fill="white" stroke="red" points="206.774,-68.5 206.774,-87.5 285.774,-87.5 285.774,-68.5 206.774,-68.5"/>
<text text-anchor="middle" x="246.274" y="-75.5" font-family="Helvetica,sans-Serif" font-size="10.00">Core/Spin.hpp</text>
</a>
</g>
</g>
<!-- Node2&#45;&gt;Node12 -->
<g id="edge25" class="edge"><title>Node2&#45;&gt;Node12</title>
<path fill="none" stroke="midnightblue" d="M297.879,-180.368C288.72,-162.376 267.427,-120.55 255.247,-96.6267"/>
<polygon fill="midnightblue" stroke="midnightblue" points="258.303,-94.9152 250.647,-87.5914 252.065,-98.091 258.303,-94.9152"/>
</g>
<!-- Node6&#45;&gt;Node3 -->
<g id="edge6" class="edge"><title>Node6&#45;&gt;Node3</title>
<path fill="none" stroke="midnightblue" d="M97.6037,-130.468C68.0704,-126.225 30.7087,-115.363 11.2737,-88 -3.10477,-67.7561 21.689,-45.2235 42.4833,-31.0834"/>
<polygon fill="midnightblue" stroke="midnightblue" points="44.5221,-33.9333 51.0244,-25.5684 40.725,-28.0526 44.5221,-33.9333"/>
</g>
<!-- Node6&#45;&gt;Node4 -->
<g id="edge7" class="edge"><title>Node6&#45;&gt;Node4</title>
<path fill="none" stroke="midnightblue" d="M183.009,-129.084C216.273,-124.152 262.048,-113.034 294.274,-88 311.716,-74.4504 323.385,-51.4595 329.907,-35.3197"/>
<polygon fill="midnightblue" stroke="midnightblue" points="333.216,-36.4631 333.459,-25.871 326.664,-34.0002 333.216,-36.4631"/>
</g>
<!-- Node7 -->
<g id="node7" class="node"><title>Node7</title>
<polygon fill="white" stroke="#bfbfbf" points="219.274,-6.5 219.274,-25.5 273.274,-25.5 273.274,-6.5 219.274,-6.5"/>
<text text-anchor="middle" x="246.274" y="-13.5" font-family="Helvetica,sans-Serif" font-size="10.00">iostream</text>
</g>
<!-- Node6&#45;&gt;Node7 -->
<g id="edge8" class="edge"><title>Node6&#45;&gt;Node7</title>
<path fill="none" stroke="midnightblue" d="M147.531,-124.477C158.246,-111.952 179.004,-87.9022 197.274,-68 208.281,-56.0093 221.027,-42.7616 230.76,-32.7738"/>
<polygon fill="midnightblue" stroke="midnightblue" points="233.337,-35.1446 237.829,-25.5491 228.334,-30.2491 233.337,-35.1446"/>
</g>
<!-- Node8 -->
<g id="node8" class="node"><title>Node8</title>
<g id="a_node8"><a xlink:href="../../d3/d65/Particle_8hpp.html" target="_top" xlink:title="This class provides a internal container for information of a particle. ">
<polygon fill="white" stroke="red" points="20.2737,-68.5 20.2737,-87.5 112.274,-87.5 112.274,-68.5 20.2737,-68.5"/>
<text text-anchor="middle" x="66.2737" y="-75.5" font-family="Helvetica,sans-Serif" font-size="10.00">Core/Particle.hpp</text>
</a>
</g>
</g>
<!-- Node6&#45;&gt;Node8 -->
<g id="edge9" class="edge"><title>Node6&#45;&gt;Node8</title>
<path fill="none" stroke="midnightblue" d="M128.384,-124.324C117.123,-116.107 99.9871,-103.602 86.5645,-93.8069"/>
<polygon fill="midnightblue" stroke="midnightblue" points="88.5205,-90.9014 78.3794,-87.8339 84.3942,-96.5559 88.5205,-90.9014"/>
</g>
<!-- Node8&#45;&gt;Node3 -->
<g id="edge10" class="edge"><title>Node8&#45;&gt;Node3</title>
<path fill="none" stroke="midnightblue" d="M66.2737,-68.4035C66.2737,-59.9381 66.2737,-46.7283 66.2737,-35.8199"/>
<polygon fill="midnightblue" stroke="midnightblue" points="69.7738,-35.5806 66.2737,-25.5806 62.7738,-35.5806 69.7738,-35.5806"/>
</g>
<!-- Node8&#45;&gt;Node7 -->
<g id="edge11" class="edge"><title>Node8&#45;&gt;Node7</title>
<path fill="none" stroke="midnightblue" d="M92.0633,-68.4035C123.207,-58.0222 175.755,-40.5062 210.727,-28.849"/>
<polygon fill="midnightblue" stroke="midnightblue" points="212.152,-32.0633 220.532,-25.5806 209.938,-25.4225 212.152,-32.0633"/>
</g>
<!-- Node9&#45;&gt;Node3 -->
<g id="edge14" class="edge"><title>Node9&#45;&gt;Node3</title>
<path fill="none" stroke="midnightblue" d="M310.645,-124.423C280.007,-116.536 234.935,-103.701 197.274,-88 157.508,-71.4217 114.038,-46.3637 88.5142,-30.8761"/>
<polygon fill="midnightblue" stroke="midnightblue" points="90.3182,-27.8767 79.9629,-25.6366 86.661,-33.8454 90.3182,-27.8767"/>
</g>
<!-- Node9&#45;&gt;Node7 -->
<g id="edge13" class="edge"><title>Node9&#45;&gt;Node7</title>
<path fill="none" stroke="midnightblue" d="M339.755,-124.409C330.107,-111.798 311.327,-87.6433 294.274,-68 283.833,-55.9733 271.51,-42.9022 261.965,-33.004"/>
<polygon fill="midnightblue" stroke="midnightblue" points="264.472,-30.5617 254.994,-25.8267 259.45,-35.4387 264.472,-30.5617"/>
</g>
<!-- Node10 -->
<g id="node10" class="node"><title>Node10</title>
<polygon fill="white" stroke="#bfbfbf" points="396.774,-1 396.774,-31 497.774,-31 497.774,-1 396.774,-1"/>
<text text-anchor="start" x="404.774" y="-19" font-family="Helvetica,sans-Serif" font-size="10.00">boost/property_tree</text>
<text text-anchor="middle" x="447.274" y="-8" font-family="Helvetica,sans-Serif" font-size="10.00">/ptree.hpp</text>
</g>
<!-- Node9&#45;&gt;Node10 -->
<g id="edge15" class="edge"><title>Node9&#45;&gt;Node10</title>
<path fill="none" stroke="midnightblue" d="M400.484,-131.627C433.019,-127.653 472.085,-116.646 493.274,-88 505.358,-71.6624 490.944,-52.2453 475.143,-37.8497"/>
<polygon fill="midnightblue" stroke="midnightblue" points="477.262,-35.0564 467.386,-31.2216 472.715,-40.3785 477.262,-35.0564"/>
</g>
<!-- Node11 -->
<g id="node11" class="node"><title>Node11</title>
<g id="a_node11"><a xlink:href="../../db/dce/Parameter_8hpp.html" target="_top" xlink:title="This class implements some internal container of parameters. ">
<polygon fill="white" stroke="red" points="380.274,-68.5 380.274,-87.5 484.274,-87.5 484.274,-68.5 380.274,-68.5"/>
<text text-anchor="middle" x="432.274" y="-75.5" font-family="Helvetica,sans-Serif" font-size="10.00">Core/Parameter.hpp</text>
</a>
</g>
</g>
<!-- Node9&#45;&gt;Node11 -->
<g id="edge16" class="edge"><title>Node9&#45;&gt;Node11</title>
<path fill="none" stroke="midnightblue" d="M360.091,-124.324C373.507,-115.9 394.098,-102.971 409.859,-93.0741"/>
<polygon fill="midnightblue" stroke="midnightblue" points="411.883,-95.9364 418.491,-87.6545 408.16,-90.0081 411.883,-95.9364"/>
</g>
<!-- Node9&#45;&gt;Node12 -->
<g id="edge21" class="edge"><title>Node9&#45;&gt;Node12</title>
<path fill="none" stroke="midnightblue" d="M330.207,-124.324C314.316,-115.743 289.766,-102.486 271.315,-92.5224"/>
<polygon fill="midnightblue" stroke="midnightblue" points="272.763,-89.3264 262.301,-87.6545 269.437,-95.4857 272.763,-89.3264"/>
</g>
<!-- Node11&#45;&gt;Node4 -->
<g id="edge18" class="edge"><title>Node11&#45;&gt;Node4</title>
<path fill="none" stroke="midnightblue" d="M418.519,-68.4035C402.907,-58.646 377.21,-42.5854 358.691,-31.0109"/>
<polygon fill="midnightblue" stroke="midnightblue" points="360.338,-27.9126 350.003,-25.5806 356.628,-33.8486 360.338,-27.9126"/>
</g>
<!-- Node11&#45;&gt;Node5 -->
<g id="edge19" class="edge"><title>Node11&#45;&gt;Node5</title>
<path fill="none" stroke="midnightblue" d="M452.332,-68.4035C476.035,-58.245 515.679,-41.2547 542.856,-29.6074"/>
<polygon fill="midnightblue" stroke="midnightblue" points="544.44,-32.7369 552.252,-25.5806 541.682,-26.3028 544.44,-32.7369"/>
</g>
<!-- Node11&#45;&gt;Node7 -->
<g id="edge17" class="edge"><title>Node11&#45;&gt;Node7</title>
<path fill="none" stroke="midnightblue" d="M405.624,-68.4035C373.304,-57.9777 318.676,-40.3557 282.541,-28.6992"/>
<polygon fill="midnightblue" stroke="midnightblue" points="283.465,-25.3197 272.874,-25.5806 281.316,-31.9817 283.465,-25.3197"/>
</g>
<!-- Node11&#45;&gt;Node10 -->
<g id="edge20" class="edge"><title>Node11&#45;&gt;Node10</title>
<path fill="none" stroke="midnightblue" d="M434.423,-68.4035C436.208,-61.2646 438.836,-50.7517 441.251,-41.0903"/>
<polygon fill="midnightblue" stroke="midnightblue" points="444.709,-41.6911 443.738,-31.1408 437.918,-39.9933 444.709,-41.6911"/>
</g>
<!-- Node12&#45;&gt;Node3 -->
<g id="edge23" class="edge"><title>Node12&#45;&gt;Node3</title>
<path fill="none" stroke="midnightblue" d="M220.484,-68.4035C188.19,-57.6388 132.882,-39.2026 98.0197,-27.582"/>
<polygon fill="midnightblue" stroke="midnightblue" points="98.929,-24.1958 88.3353,-24.3539 96.7154,-30.8366 98.929,-24.1958"/>
</g>
<!-- Node12&#45;&gt;Node4 -->
<g id="edge22" class="edge"><title>Node12&#45;&gt;Node4</title>
<path fill="none" stroke="midnightblue" d="M259.168,-68.4035C273.738,-58.6905 297.676,-42.7319 315.019,-31.1697"/>
<polygon fill="midnightblue" stroke="midnightblue" points="317.024,-34.0398 323.403,-25.5806 313.141,-28.2155 317.024,-34.0398"/>
</g>
<!-- Node12&#45;&gt;Node7 -->
<g id="edge24" class="edge"><title>Node12&#45;&gt;Node7</title>
<path fill="none" stroke="midnightblue" d="M246.274,-68.4035C246.274,-59.9381 246.274,-46.7283 246.274,-35.8199"/>
<polygon fill="midnightblue" stroke="midnightblue" points="249.774,-35.5806 246.274,-25.5806 242.774,-35.5806 249.774,-35.5806"/>
</g>
</g>
</svg>
