<?xml version="1.0" encoding="UTF-8" standalone="no"?>
<!DOCTYPE svg PUBLIC "-//W3C//DTD SVG 1.1//EN"
 "http://www.w3.org/Graphics/SVG/1.1/DTD/svg11.dtd">
<!-- Generated by graphviz version 2.36.0 (20140111.2315)
 -->
<!-- Title: /home/travis/build/ComPWA/ComPWA/Examples/DalitzAnalysis_D0KsKK Pages: 1 -->
<svg width="250pt" height="439pt"
 viewBox="0.00 0.00 250.18 439.00" xmlns="http://www.w3.org/2000/svg" xmlns:xlink="http://www.w3.org/1999/xlink">
<g id="graph0" class="graph" transform="scale(1 1) rotate(0) translate(4 435)">
<title>/home/travis/build/ComPWA/ComPWA/Examples/DalitzAnalysis_D0KsKK</title>
<polygon fill="white" stroke="none" points="-4,4 -4,-435 246.177,-435 246.177,4 -4,4"/>
<g id="clust1" class="cluster"><title>clusterdir_d3797818b93279c559ab8c66e3e384f0</title>
<g id="a_clust1"><a xlink:href="dir_d3797818b93279c559ab8c66e3e384f0.html" target="_top" xlink:title="Examples">
<polygon fill="#ddddee" stroke="black" points="77,-352 77,-423 217,-423 217,-352 77,-352"/>
<text text-anchor="middle" x="147" y="-411" font-family="Helvetica,sans-Serif" font-size="10.00">Examples</text>
</a>
</g>
</g>
<!-- dir_1acfe491ca5dc872d8e4d4de423ed744 -->
<g id="node1" class="node"><title>dir_1acfe491ca5dc872d8e4d4de423ed744</title>
<g id="a_node1"><a xlink:href="dir_1acfe491ca5dc872d8e4d4de423ed744.html" target="_top" xlink:title="DalitzAnalysis_D0KsKK">
<polygon fill="#eeeeff" stroke="black" points="208.25,-396 85.75,-396 85.75,-360 208.25,-360 208.25,-396"/>
<text text-anchor="middle" x="147" y="-375.5" font-family="Helvetica,sans-Serif" font-size="10.00">DalitzAnalysis_D0KsKK</text>
</a>
</g>
</g>
<!-- dir_6affbc29315b2bcc3e87f973c15f2971 -->
<g id="node2" class="node"><title>dir_6affbc29315b2bcc3e87f973c15f2971</title>
<g id="a_node2"><a xlink:href="dir_6affbc29315b2bcc3e87f973c15f2971.html" target="_top" xlink:title="Core">
<polygon fill="white" stroke="red" points="98,-252 44,-252 44,-216 98,-216 98,-252"/>
<text text-anchor="middle" x="71" y="-231.5" font-family="Helvetica,sans-Serif" font-size="10.00">Core</text>
</a>
</g>
</g>
<!-- dir_1acfe491ca5dc872d8e4d4de423ed744&#45;&gt;dir_6affbc29315b2bcc3e87f973c15f2971 -->
<g id="edge2" class="edge"><title>dir_1acfe491ca5dc872d8e4d4de423ed744&#45;&gt;dir_6affbc29315b2bcc3e87f973c15f2971</title>
<path fill="none" stroke="black" d="M108.224,-359.783C93.8187,-351.242 79.0366,-339.402 71,-324 61.0951,-305.017 61.9133,-280.507 64.748,-262.016"/>
<polygon fill="black" stroke="black" points="68.1923,-262.638 66.5293,-252.174 61.3042,-261.391 68.1923,-262.638"/>
<g id="a_edge2&#45;headlabel"><a xlink:href="dir_000014_000001.html" target="_top" xlink:title="16">
<text text-anchor="middle" x="70.3461" y="-264.181" font-family="Helvetica,sans-Serif" font-size="10.00">16</text>
</a>
</g>
</g>
<!-- dir_07a2f2f9ac9dcc8572e29d5eac3ef8e4 -->
<g id="node3" class="node"><title>dir_07a2f2f9ac9dcc8572e29d5eac3ef8e4</title>
<g id="a_node3"><a xlink:href="dir_07a2f2f9ac9dcc8572e29d5eac3ef8e4.html" target="_top" xlink:title="DataReader">
<polygon fill="white" stroke="red" points="173.25,-180 104.75,-180 104.75,-144 173.25,-144 173.25,-180"/>
<text text-anchor="middle" x="139" y="-159.5" font-family="Helvetica,sans-Serif" font-size="10.00">DataReader</text>
</a>
</g>
</g>
<!-- dir_1acfe491ca5dc872d8e4d4de423ed744&#45;&gt;dir_07a2f2f9ac9dcc8572e29d5eac3ef8e4 -->
<g id="edge3" class="edge"><title>dir_1acfe491ca5dc872d8e4d4de423ed744&#45;&gt;dir_07a2f2f9ac9dcc8572e29d5eac3ef8e4</title>
<path fill="none" stroke="black" d="M184.391,-359.798C198.544,-351.203 213.128,-339.321 221,-324 228.312,-309.769 225.411,-303.38 221,-288 209.927,-249.391 182.276,-211.783 162.137,-188.073"/>
<polygon fill="black" stroke="black" points="164.569,-185.537 155.366,-180.288 159.287,-190.13 164.569,-185.537"/>
<g id="a_edge3&#45;headlabel"><a xlink:href="dir_000014_000003.html" target="_top" xlink:title="5">
<text text-anchor="middle" x="169.071" y="-183.886" font-family="Helvetica,sans-Serif" font-size="10.00">5</text>
</a>
</g>
</g>
<!-- dir_07de378ed9486553e64ea14149656b37 -->
<g id="node4" class="node"><title>dir_07de378ed9486553e64ea14149656b37</title>
<g id="a_node4"><a xlink:href="dir_07de378ed9486553e64ea14149656b37.html" target="_top" xlink:title="Tools">
<polygon fill="white" stroke="red" points="166,-108 112,-108 112,-72 166,-72 166,-108"/>
<text text-anchor="middle" x="139" y="-87.5" font-family="Helvetica,sans-Serif" font-size="10.00">Tools</text>
</a>
</g>
</g>
<!-- dir_1acfe491ca5dc872d8e4d4de423ed744&#45;&gt;dir_07de378ed9486553e64ea14149656b37 -->
<g id="edge4" class="edge"><title>dir_1acfe491ca5dc872d8e4d4de423ed744&#45;&gt;dir_07de378ed9486553e64ea14149656b37</title>
<path fill="none" stroke="black" d="M196.562,-359.846C212.692,-351.636 228.798,-340.009 238,-324 245.974,-310.128 240.007,-303.874 238,-288 229.712,-222.443 235.96,-200.073 201,-144 193.965,-132.717 183.75,-122.58 173.633,-114.267"/>
<polygon fill="black" stroke="black" points="175.642,-111.395 165.604,-108.004 171.336,-116.915 175.642,-111.395"/>
<g id="a_edge4&#45;headlabel"><a xlink:href="dir_000014_000030.html" target="_top" xlink:title="3">
<text text-anchor="middle" x="180.222" y="-108.867" font-family="Helvetica,sans-Serif" font-size="10.00">3</text>
</a>
</g>
</g>
<!-- dir_3ed12ba79a1160ca9b085eca52cedfd6 -->
<g id="node5" class="node"><title>dir_3ed12ba79a1160ca9b085eca52cedfd6</title>
<g id="a_node5"><a xlink:href="dir_3ed12ba79a1160ca9b085eca52cedfd6.html" target="_top" xlink:title="Estimator">
<polygon fill="white" stroke="red" points="139.25,-324 80.75,-324 80.75,-288 139.25,-288 139.25,-324"/>
<text text-anchor="middle" x="110" y="-303.5" font-family="Helvetica,sans-Serif" font-size="10.00">Estimator</text>
</a>
</g>
</g>
<!-- dir_1acfe491ca5dc872d8e4d4de423ed744&#45;&gt;dir_3ed12ba79a1160ca9b085eca52cedfd6 -->
<g id="edge5" class="edge"><title>dir_1acfe491ca5dc872d8e4d4de423ed744&#45;&gt;dir_3ed12ba79a1160ca9b085eca52cedfd6</title>
<path fill="none" stroke="black" d="M137.854,-359.697C133.597,-351.644 128.444,-341.894 123.734,-332.982"/>
<polygon fill="black" stroke="black" points="126.808,-331.31 119.041,-324.104 120.62,-334.581 126.808,-331.31"/>
<g id="a_edge5&#45;headlabel"><a xlink:href="dir_000014_000007.html" target="_top" xlink:title="1">
<text text-anchor="middle" x="130.998" y="-330.661" font-family="Helvetica,sans-Serif" font-size="10.00">1</text>
</a>
</g>
</g>
<!-- dir_e70d8e706843d7578727bdcd4ddb658f -->
<g id="node6" class="node"><title>dir_e70d8e706843d7578727bdcd4ddb658f</title>
<g id="a_node6"><a xlink:href="dir_e70d8e706843d7578727bdcd4ddb658f.html" target="_top" xlink:title="Optimizer">
<polygon fill="white" stroke="red" points="67.25,-36 8.75,-36 8.75,-0 67.25,-0 67.25,-36"/>
<text text-anchor="middle" x="38" y="-15.5" font-family="Helvetica,sans-Serif" font-size="10.00">Optimizer</text>
</a>
</g>
</g>
<!-- dir_1acfe491ca5dc872d8e4d4de423ed744&#45;&gt;dir_e70d8e706843d7578727bdcd4ddb658f -->
<g id="edge6" class="edge"><title>dir_1acfe491ca5dc872d8e4d4de423ed744&#45;&gt;dir_e70d8e706843d7578727bdcd4ddb658f</title>
<path fill="none" stroke="black" d="M107.993,-359.919C64.4432,-337.896 0,-295.144 0,-235 0,-235 0,-235 0,-161 0,-119.633 15.2348,-73.7216 26.4117,-45.6051"/>
<polygon fill="black" stroke="black" points="29.7564,-46.6733 30.3101,-36.0929 23.2793,-44.0187 29.7564,-46.6733"/>
<g id="a_edge6&#45;headlabel"><a xlink:href="dir_000014_000020.html" target="_top" xlink:title="2">
<text text-anchor="middle" x="31.0205" y="-48.5761" font-family="Helvetica,sans-Serif" font-size="10.00">2</text>
</a>
</g>
</g>
<!-- dir_b3db74a047a522c1bb2757e17a1c93c2 -->
<g id="node7" class="node"><title>dir_b3db74a047a522c1bb2757e17a1c93c2</title>
<g id="a_node7"><a xlink:href="dir_b3db74a047a522c1bb2757e17a1c93c2.html" target="_top" xlink:title="Physics">
<polygon fill="white" stroke="red" points="212,-324 158,-324 158,-288 212,-288 212,-324"/>
<text text-anchor="middle" x="185" y="-303.5" font-family="Helvetica,sans-Serif" font-size="10.00">Physics</text>
</a>
</g>
</g>
<!-- dir_1acfe491ca5dc872d8e4d4de423ed744&#45;&gt;dir_b3db74a047a522c1bb2757e17a1c93c2 -->
<g id="edge7" class="edge"><title>dir_1acfe491ca5dc872d8e4d4de423ed744&#45;&gt;dir_b3db74a047a522c1bb2757e17a1c93c2</title>
<path fill="none" stroke="black" d="M156.393,-359.697C160.765,-351.644 166.057,-341.894 170.895,-332.982"/>
<polygon fill="black" stroke="black" points="174.02,-334.563 175.715,-324.104 167.868,-331.223 174.02,-334.563"/>
<g id="a_edge7&#45;headlabel"><a xlink:href="dir_000014_000024.html" target="_top" xlink:title="3">
<text text-anchor="middle" x="174.8" y="-336.576" font-family="Helvetica,sans-Serif" font-size="10.00">3</text>
</a>
</g>
</g>
<!-- dir_6affbc29315b2bcc3e87f973c15f2971&#45;&gt;dir_07a2f2f9ac9dcc8572e29d5eac3ef8e4 -->
<g id="edge1" class="edge"><title>dir_6affbc29315b2bcc3e87f973c15f2971&#45;&gt;dir_07a2f2f9ac9dcc8572e29d5eac3ef8e4</title>
<path fill="none" stroke="black" d="M81.8933,-215.697C89.4007,-207.05 99.5227,-196.449 109.213,-187.027"/>
<polygon fill="black" stroke="black" points="111.657,-189.533 116.489,-180.104 106.832,-184.462 111.657,-189.533"/>
<g id="a_edge1&#45;headlabel"><a xlink:href="dir_000001_000003.html" target="_top" xlink:title="4">
<text text-anchor="middle" x="111.01" y="-191.568" font-family="Helvetica,sans-Serif" font-size="10.00">4</text>
</a>
</g>
</g>
<!-- dir_07a2f2f9ac9dcc8572e29d5eac3ef8e4&#45;&gt;dir_6affbc29315b2bcc3e87f973c15f2971 -->
<g id="edge8" class="edge"><title>dir_07a2f2f9ac9dcc8572e29d5eac3ef8e4&#45;&gt;dir_6affbc29315b2bcc3e87f973c15f2971</title>
<path fill="none" stroke="black" d="M128.279,-180.104C120.812,-188.72 110.707,-199.316 101.01,-208.755"/>
<polygon fill="black" stroke="black" points="98.5506,-206.265 93.7247,-215.697 103.379,-211.333 98.5506,-206.265"/>
<g id="a_edge8&#45;headlabel"><a xlink:href="dir_000003_000001.html" target="_top" xlink:title="25">
<text text-anchor="middle" x="99.1946" y="-199.229" font-family="Helvetica,sans-Serif" font-size="10.00">25</text>
</a>
</g>
</g>
<!-- dir_07a2f2f9ac9dcc8572e29d5eac3ef8e4&#45;&gt;dir_07de378ed9486553e64ea14149656b37 -->
<g id="edge9" class="edge"><title>dir_07a2f2f9ac9dcc8572e29d5eac3ef8e4&#45;&gt;dir_07de378ed9486553e64ea14149656b37</title>
<path fill="none" stroke="black" d="M133.084,-143.697C132.289,-135.983 132.062,-126.712 132.405,-118.112"/>
<polygon fill="black" stroke="black" points="135.898,-118.324 133.105,-108.104 128.915,-117.836 135.898,-118.324"/>
<g id="a_edge9&#45;headlabel"><a xlink:href="dir_000003_000030.html" target="_top" xlink:title="2">
<text text-anchor="middle" x="138.48" y="-119.608" font-family="Helvetica,sans-Serif" font-size="10.00">2</text>
</a>
</g>
</g>
<!-- dir_07de378ed9486553e64ea14149656b37&#45;&gt;dir_6affbc29315b2bcc3e87f973c15f2971 -->
<g id="edge10" class="edge"><title>dir_07de378ed9486553e64ea14149656b37&#45;&gt;dir_6affbc29315b2bcc3e87f973c15f2971</title>
<path fill="none" stroke="black" d="M121.411,-108.24C112.36,-117.988 101.823,-130.834 95,-144 84.905,-163.479 78.7394,-187.619 75.1897,-205.842"/>
<polygon fill="black" stroke="black" points="71.7229,-205.344 73.392,-215.807 78.6118,-206.587 71.7229,-205.344"/>
<g id="a_edge10&#45;headlabel"><a xlink:href="dir_000030_000001.html" target="_top" xlink:title="20">
<text text-anchor="middle" x="69.5668" y="-198.803" font-family="Helvetica,sans-Serif" font-size="10.00">20</text>
</a>
</g>
</g>
<!-- dir_07de378ed9486553e64ea14149656b37&#45;&gt;dir_07a2f2f9ac9dcc8572e29d5eac3ef8e4 -->
<g id="edge11" class="edge"><title>dir_07de378ed9486553e64ea14149656b37&#45;&gt;dir_07a2f2f9ac9dcc8572e29d5eac3ef8e4</title>
<path fill="none" stroke="black" d="M144.895,-108.104C145.701,-115.791 145.937,-125.054 145.604,-133.665"/>
<polygon fill="black" stroke="black" points="142.109,-133.48 144.916,-143.697 149.092,-133.96 142.109,-133.48"/>
<g id="a_edge11&#45;headlabel"><a xlink:href="dir_000030_000003.html" target="_top" xlink:title="2">
<text text-anchor="middle" x="139.522" y="-127.2" font-family="Helvetica,sans-Serif" font-size="10.00">2</text>
</a>
</g>
</g>
<!-- dir_07de378ed9486553e64ea14149656b37&#45;&gt;dir_e70d8e706843d7578727bdcd4ddb658f -->
<g id="edge12" class="edge"><title>dir_07de378ed9486553e64ea14149656b37&#45;&gt;dir_e70d8e706843d7578727bdcd4ddb658f</title>
<path fill="none" stroke="black" d="M114.293,-71.8761C101.331,-62.8931 85.2716,-51.7625 71.235,-42.0341"/>
<polygon fill="black" stroke="black" points="73.0151,-39.0095 62.8024,-36.1898 69.0276,-44.7628 73.0151,-39.0095"/>
<g id="a_edge12&#45;headlabel"><a xlink:href="dir_000030_000020.html" target="_top" xlink:title="2">
<text text-anchor="middle" x="77.5868" y="-36.2235" font-family="Helvetica,sans-Serif" font-size="10.00">2</text>
</a>
</g>
</g>
<!-- dir_3ed12ba79a1160ca9b085eca52cedfd6&#45;&gt;dir_6affbc29315b2bcc3e87f973c15f2971 -->
<g id="edge13" class="edge"><title>dir_3ed12ba79a1160ca9b085eca52cedfd6&#45;&gt;dir_6affbc29315b2bcc3e87f973c15f2971</title>
<path fill="none" stroke="black" d="M100.36,-287.697C95.8729,-279.644 90.4412,-269.894 85.4759,-260.982"/>
<polygon fill="black" stroke="black" points="88.4541,-259.137 80.5296,-252.104 82.3391,-262.544 88.4541,-259.137"/>
<g id="a_edge13&#45;headlabel"><a xlink:href="dir_000007_000001.html" target="_top" xlink:title="30">
<text text-anchor="middle" x="92.6839" y="-258.395" font-family="Helvetica,sans-Serif" font-size="10.00">30</text>
</a>
</g>
</g>
<!-- dir_3ed12ba79a1160ca9b085eca52cedfd6&#45;&gt;dir_07a2f2f9ac9dcc8572e29d5eac3ef8e4 -->
<g id="edge14" class="edge"><title>dir_3ed12ba79a1160ca9b085eca52cedfd6&#45;&gt;dir_07a2f2f9ac9dcc8572e29d5eac3ef8e4</title>
<path fill="none" stroke="black" d="M113.498,-287.871C118.462,-263.564 127.6,-218.819 133.483,-190.013"/>
<polygon fill="black" stroke="black" points="136.918,-190.687 135.49,-180.189 130.059,-189.287 136.918,-190.687"/>
<g id="a_edge14&#45;headlabel"><a xlink:href="dir_000007_000003.html" target="_top" xlink:title="5">
<text text-anchor="middle" x="138.98" y="-192.277" font-family="Helvetica,sans-Serif" font-size="10.00">5</text>
</a>
</g>
</g>
<!-- dir_e70d8e706843d7578727bdcd4ddb658f&#45;&gt;dir_6affbc29315b2bcc3e87f973c15f2971 -->
<g id="edge15" class="edge"><title>dir_e70d8e706843d7578727bdcd4ddb658f&#45;&gt;dir_6affbc29315b2bcc3e87f973c15f2971</title>
<path fill="none" stroke="black" d="M40.6573,-36.2325C46.3771,-73.3243 59.8942,-160.981 66.7921,-205.712"/>
<polygon fill="black" stroke="black" points="63.372,-206.499 68.3553,-215.849 70.2902,-205.433 63.372,-206.499"/>
<g id="a_edge15&#45;headlabel"><a xlink:href="dir_000020_000001.html" target="_top" xlink:title="36">
<text text-anchor="middle" x="60.0182" y="-200.88" font-family="Helvetica,sans-Serif" font-size="10.00">36</text>
</a>
</g>
</g>
<!-- dir_b3db74a047a522c1bb2757e17a1c93c2&#45;&gt;dir_6affbc29315b2bcc3e87f973c15f2971 -->
<g id="edge16" class="edge"><title>dir_b3db74a047a522c1bb2757e17a1c93c2&#45;&gt;dir_6affbc29315b2bcc3e87f973c15f2971</title>
<path fill="none" stroke="black" d="M157.984,-288.411C142.762,-279.064 123.551,-267.268 107.058,-257.141"/>
<polygon fill="black" stroke="black" points="108.571,-253.963 98.2176,-251.713 104.908,-259.928 108.571,-253.963"/>
<g id="a_edge16&#45;headlabel"><a xlink:href="dir_000024_000001.html" target="_top" xlink:title="44">
<text text-anchor="middle" x="113.12" y="-250.924" font-family="Helvetica,sans-Serif" font-size="10.00">44</text>
</a>
</g>
</g>
<!-- dir_b3db74a047a522c1bb2757e17a1c93c2&#45;&gt;dir_07a2f2f9ac9dcc8572e29d5eac3ef8e4 -->
<g id="edge17" class="edge"><title>dir_b3db74a047a522c1bb2757e17a1c93c2&#45;&gt;dir_07a2f2f9ac9dcc8572e29d5eac3ef8e4</title>
<path fill="none" stroke="black" d="M179.451,-287.871C171.577,-263.564 157.082,-218.819 147.751,-190.013"/>
<polygon fill="black" stroke="black" points="150.98,-188.624 144.568,-180.189 144.321,-190.781 150.98,-188.624"/>
<g id="a_edge17&#45;headlabel"><a xlink:href="dir_000024_000003.html" target="_top" xlink:title="4">
<text text-anchor="middle" x="154.789" y="-188.669" font-family="Helvetica,sans-Serif" font-size="10.00">4</text>
</a>
</g>
</g>
<!-- dir_b3db74a047a522c1bb2757e17a1c93c2&#45;&gt;dir_07de378ed9486553e64ea14149656b37 -->
<g id="edge18" class="edge"><title>dir_b3db74a047a522c1bb2757e17a1c93c2&#45;&gt;dir_07de378ed9486553e64ea14149656b37</title>
<path fill="none" stroke="black" d="M188.215,-287.887C193.122,-257.734 200.124,-193.632 182,-144 178.242,-133.71 171.591,-123.94 164.625,-115.656"/>
<polygon fill="black" stroke="black" points="167.219,-113.306 157.935,-108.201 162.009,-117.981 167.219,-113.306"/>
<g id="a_edge18&#45;headlabel"><a xlink:href="dir_000024_000030.html" target="_top" xlink:title="7">
<text text-anchor="middle" x="171.733" y="-111.585" font-family="Helvetica,sans-Serif" font-size="10.00">7</text>
</a>
</g>
</g>
</g>
</svg>
