<?xml version="1.0" encoding="UTF-8" standalone="no"?>
<!DOCTYPE svg PUBLIC "-//W3C//DTD SVG 1.1//EN"
 "http://www.w3.org/Graphics/SVG/1.1/DTD/svg11.dtd">
<!-- Generated by graphviz version 2.36.0 (20140111.2315)
 -->
<!-- Title: /home/travis/build/ComPWA/ComPWA/executables/AmpPlotter Pages: 1 -->
<svg width="112pt" height="223pt"
 viewBox="0.00 0.00 112.00 223.00" xmlns="http://www.w3.org/2000/svg" xmlns:xlink="http://www.w3.org/1999/xlink">
<g id="graph0" class="graph" transform="scale(1 1) rotate(0) translate(4 219)">
<title>/home/travis/build/ComPWA/ComPWA/executables/AmpPlotter</title>
<polygon fill="white" stroke="none" points="-4,4 -4,-219 108,-219 108,4 -4,4"/>
<g id="clust1" class="cluster"><title>clusterdir_f8af16d85c17617dacb0f135ccb3a513</title>
<g id="a_clust1"><a xlink:href="dir_f8af16d85c17617dacb0f135ccb3a513.html" target="_top" xlink:title="executables">
<polygon fill="#ddddee" stroke="black" points="8,-136 8,-207 90,-207 90,-136 8,-136"/>
<text text-anchor="middle" x="49" y="-195" font-family="Helvetica,sans-Serif" font-size="10.00">executables</text>
</a>
</g>
</g>
<!-- dir_7e4ba924aa6e30bd10e1c73f4ed13ae4 -->
<g id="node1" class="node"><title>dir_7e4ba924aa6e30bd10e1c73f4ed13ae4</title>
<g id="a_node1"><a xlink:href="dir_7e4ba924aa6e30bd10e1c73f4ed13ae4.html" target="_top" xlink:title="AmpPlotter">
<polygon fill="#eeeeff" stroke="black" points="81.25,-180 16.75,-180 16.75,-144 81.25,-144 81.25,-180"/>
<text text-anchor="middle" x="49" y="-159.5" font-family="Helvetica,sans-Serif" font-size="10.00">AmpPlotter</text>
</a>
</g>
</g>
<!-- dir_6affbc29315b2bcc3e87f973c15f2971 -->
<g id="node2" class="node"><title>dir_6affbc29315b2bcc3e87f973c15f2971</title>
<g id="a_node2"><a xlink:href="dir_6affbc29315b2bcc3e87f973c15f2971.html" target="_top" xlink:title="Core">
<polygon fill="none" stroke="black" points="76,-36 22,-36 22,-0 76,-0 76,-36"/>
<text text-anchor="middle" x="49" y="-15.5" font-family="Helvetica,sans-Serif" font-size="10.00">Core</text>
</a>
</g>
</g>
<!-- dir_7e4ba924aa6e30bd10e1c73f4ed13ae4&#45;&gt;dir_6affbc29315b2bcc3e87f973c15f2971 -->
<g id="edge2" class="edge"><title>dir_7e4ba924aa6e30bd10e1c73f4ed13ae4&#45;&gt;dir_6affbc29315b2bcc3e87f973c15f2971</title>
<path fill="none" stroke="black" d="M45.7517,-143.888C43.9542,-133.542 41.9053,-120.063 41,-108 39.8026,-92.0449 39.8026,-87.9551 41,-72 41.6366,-63.5179 42.8384,-54.3361 44.1208,-46.0356"/>
<polygon fill="black" stroke="black" points="47.5836,-46.5472 45.7517,-36.1119 40.6763,-45.412 47.5836,-46.5472"/>
<g id="a_edge2&#45;headlabel"><a xlink:href="dir_000012_000001.html" target="_top" xlink:title="2">
<text text-anchor="middle" x="49.8024" y="-48.0546" font-family="Helvetica,sans-Serif" font-size="10.00">2</text>
</a>
</g>
</g>
<!-- dir_b3db74a047a522c1bb2757e17a1c93c2 -->
<g id="node3" class="node"><title>dir_b3db74a047a522c1bb2757e17a1c93c2</title>
<g id="a_node3"><a xlink:href="dir_b3db74a047a522c1bb2757e17a1c93c2.html" target="_top" xlink:title="Physics">
<polygon fill="white" stroke="red" points="104,-108 50,-108 50,-72 104,-72 104,-108"/>
<text text-anchor="middle" x="77" y="-87.5" font-family="Helvetica,sans-Serif" font-size="10.00">Physics</text>
</a>
</g>
</g>
<!-- dir_7e4ba924aa6e30bd10e1c73f4ed13ae4&#45;&gt;dir_b3db74a047a522c1bb2757e17a1c93c2 -->
<g id="edge3" class="edge"><title>dir_7e4ba924aa6e30bd10e1c73f4ed13ae4&#45;&gt;dir_b3db74a047a522c1bb2757e17a1c93c2</title>
<path fill="none" stroke="black" d="M55.9214,-143.697C59.0747,-135.813 62.8783,-126.304 66.3814,-117.546"/>
<polygon fill="black" stroke="black" points="69.694,-118.689 70.1583,-108.104 63.1946,-116.089 69.694,-118.689"/>
<g id="a_edge3&#45;headlabel"><a xlink:href="dir_000012_000021.html" target="_top" xlink:title="1">
<text text-anchor="middle" x="70.9952" y="-120.581" font-family="Helvetica,sans-Serif" font-size="10.00">1</text>
</a>
</g>
</g>
<!-- dir_b3db74a047a522c1bb2757e17a1c93c2&#45;&gt;dir_6affbc29315b2bcc3e87f973c15f2971 -->
<g id="edge1" class="edge"><title>dir_b3db74a047a522c1bb2757e17a1c93c2&#45;&gt;dir_6affbc29315b2bcc3e87f973c15f2971</title>
<path fill="none" stroke="black" d="M70.0786,-71.6966C66.9253,-63.8132 63.1217,-54.3042 59.6186,-45.5464"/>
<polygon fill="black" stroke="black" points="62.8054,-44.0892 55.8417,-36.1043 56.306,-46.689 62.8054,-44.0892"/>
<g id="a_edge1&#45;headlabel"><a xlink:href="dir_000021_000001.html" target="_top" xlink:title="85">
<text text-anchor="middle" x="66.7765" y="-43.8723" font-family="Helvetica,sans-Serif" font-size="10.00">85</text>
</a>
</g>
</g>
</g>
</svg>
