<?xml version="1.0" encoding="UTF-8" standalone="no"?>
<!DOCTYPE svg PUBLIC "-//W3C//DTD SVG 1.1//EN"
 "http://www.w3.org/Graphics/SVG/1.1/DTD/svg11.dtd">
<!-- Generated by graphviz version 2.36.0 (20140111.2315)
 -->
<!-- Title: /home/travis/build/ComPWA/ComPWA/executables Pages: 1 -->
<svg width="292pt" height="303pt"
 viewBox="0.00 0.00 292.00 303.00" xmlns="http://www.w3.org/2000/svg" xmlns:xlink="http://www.w3.org/1999/xlink">
<g id="graph0" class="graph" transform="scale(1 1) rotate(0) translate(4 299)">
<title>/home/travis/build/ComPWA/ComPWA/executables</title>
<polygon fill="white" stroke="none" points="-4,4 -4,-299 288,-299 288,4 -4,4"/>
<g id="clust1" class="cluster"><title>clusterdir_4a050d6467fbd459d1c3f1ad22ffdaa0</title>
<g id="a_clust1"><a xlink:href="dir_4a050d6467fbd459d1c3f1ad22ffdaa0.html" target="_top" xlink:title="ComPWA">
<polygon fill="#ddddee" stroke="black" points="91,-200 91,-287 276,-287 276,-200 91,-200"/>
<text text-anchor="middle" x="183.5" y="-275" font-family="Helvetica,sans-Serif" font-size="10.00">ComPWA</text>
</a>
</g>
</g>
<g id="clust2" class="cluster"><title>clusterdir_f8af16d85c17617dacb0f135ccb3a513</title>
<g id="a_clust2"><a xlink:href="dir_f8af16d85c17617dacb0f135ccb3a513.html" target="_top">
<polygon fill="#eeeeff" stroke="black" points="99,-208 99,-260 268,-260 268,-208 99,-208"/>
</a>
</g>
</g>
<!-- dir_f8af16d85c17617dacb0f135ccb3a513 -->
<g id="node1" class="node"><title>dir_f8af16d85c17617dacb0f135ccb3a513</title>
<text text-anchor="middle" x="142" y="-231.5" font-family="Helvetica,sans-Serif" font-size="10.00">executables</text>
</g>
<!-- dir_07a2f2f9ac9dcc8572e29d5eac3ef8e4 -->
<g id="node4" class="node"><title>dir_07a2f2f9ac9dcc8572e29d5eac3ef8e4</title>
<g id="a_node4"><a xlink:href="dir_07a2f2f9ac9dcc8572e29d5eac3ef8e4.html" target="_top" xlink:title="DataReader">
<polygon fill="white" stroke="red" points="126.25,-108 57.75,-108 57.75,-72 126.25,-72 126.25,-108"/>
<text text-anchor="middle" x="92" y="-87.5" font-family="Helvetica,sans-Serif" font-size="10.00">DataReader</text>
</a>
</g>
</g>
<!-- dir_f8af16d85c17617dacb0f135ccb3a513&#45;&gt;dir_07a2f2f9ac9dcc8572e29d5eac3ef8e4 -->
<g id="edge3" class="edge"><title>dir_f8af16d85c17617dacb0f135ccb3a513&#45;&gt;dir_07a2f2f9ac9dcc8572e29d5eac3ef8e4</title>
<path fill="none" stroke="black" d="M127.563,-215.963C119.952,-206.077 111.151,-193.035 106,-180 98.2038,-160.272 94.7388,-136.468 93.2039,-118.444"/>
<polygon fill="black" stroke="black" points="96.6846,-118.045 92.4906,-108.315 89.7019,-118.536 96.6846,-118.045"/>
<g id="a_edge3&#45;headlabel"><a xlink:href="dir_000017_000003.html" target="_top" xlink:title="8">
<text text-anchor="middle" x="99.7693" y="-118.931" font-family="Helvetica,sans-Serif" font-size="10.00">8</text>
</a>
</g>
</g>
<!-- dir_3ed12ba79a1160ca9b085eca52cedfd6 -->
<g id="node5" class="node"><title>dir_3ed12ba79a1160ca9b085eca52cedfd6</title>
<g id="a_node5"><a xlink:href="dir_3ed12ba79a1160ca9b085eca52cedfd6.html" target="_top" xlink:title="Estimator">
<polygon fill="white" stroke="red" points="58.25,-180 -0.25,-180 -0.25,-144 58.25,-144 58.25,-180"/>
<text text-anchor="middle" x="29" y="-159.5" font-family="Helvetica,sans-Serif" font-size="10.00">Estimator</text>
</a>
</g>
</g>
<!-- dir_f8af16d85c17617dacb0f135ccb3a513&#45;&gt;dir_3ed12ba79a1160ca9b085eca52cedfd6 -->
<g id="edge4" class="edge"><title>dir_f8af16d85c17617dacb0f135ccb3a513&#45;&gt;dir_3ed12ba79a1160ca9b085eca52cedfd6</title>
<path fill="none" stroke="black" d="M114.357,-215.876C99.5823,-206.724 81.2088,-195.342 65.2972,-185.485"/>
<polygon fill="black" stroke="black" points="67.0934,-182.481 56.7492,-180.19 63.4071,-188.431 67.0934,-182.481"/>
<g id="a_edge4&#45;headlabel"><a xlink:href="dir_000017_000007.html" target="_top" xlink:title="4">
<text text-anchor="middle" x="71.6444" y="-179.46" font-family="Helvetica,sans-Serif" font-size="10.00">4</text>
</a>
</g>
</g>
<!-- dir_e70d8e706843d7578727bdcd4ddb658f -->
<g id="node6" class="node"><title>dir_e70d8e706843d7578727bdcd4ddb658f</title>
<g id="a_node6"><a xlink:href="dir_e70d8e706843d7578727bdcd4ddb658f.html" target="_top" xlink:title="Optimizer">
<polygon fill="white" stroke="red" points="246.25,-180 187.75,-180 187.75,-144 246.25,-144 246.25,-180"/>
<text text-anchor="middle" x="217" y="-159.5" font-family="Helvetica,sans-Serif" font-size="10.00">Optimizer</text>
</a>
</g>
</g>
<!-- dir_f8af16d85c17617dacb0f135ccb3a513&#45;&gt;dir_e70d8e706843d7578727bdcd4ddb658f -->
<g id="edge5" class="edge"><title>dir_f8af16d85c17617dacb0f135ccb3a513&#45;&gt;dir_e70d8e706843d7578727bdcd4ddb658f</title>
<path fill="none" stroke="black" d="M160.539,-215.697C169.803,-207.05 181.162,-196.449 191.257,-187.027"/>
<polygon fill="black" stroke="black" points="193.751,-189.486 198.674,-180.104 188.975,-184.369 193.751,-189.486"/>
<g id="a_edge5&#45;headlabel"><a xlink:href="dir_000017_000020.html" target="_top" xlink:title="8">
<text text-anchor="middle" x="193.061" y="-191.515" font-family="Helvetica,sans-Serif" font-size="10.00">8</text>
</a>
</g>
</g>
<!-- dir_b3db74a047a522c1bb2757e17a1c93c2 -->
<g id="node7" class="node"><title>dir_b3db74a047a522c1bb2757e17a1c93c2</title>
<g id="a_node7"><a xlink:href="dir_b3db74a047a522c1bb2757e17a1c93c2.html" target="_top" xlink:title="Physics">
<polygon fill="white" stroke="red" points="169,-180 115,-180 115,-144 169,-144 169,-180"/>
<text text-anchor="middle" x="142" y="-159.5" font-family="Helvetica,sans-Serif" font-size="10.00">Physics</text>
</a>
</g>
</g>
<!-- dir_f8af16d85c17617dacb0f135ccb3a513&#45;&gt;dir_b3db74a047a522c1bb2757e17a1c93c2 -->
<g id="edge6" class="edge"><title>dir_f8af16d85c17617dacb0f135ccb3a513&#45;&gt;dir_b3db74a047a522c1bb2757e17a1c93c2</title>
<path fill="none" stroke="black" d="M142,-215.697C142,-207.983 142,-198.712 142,-190.112"/>
<polygon fill="black" stroke="black" points="145.5,-190.104 142,-180.104 138.5,-190.104 145.5,-190.104"/>
<g id="a_edge6&#45;headlabel"><a xlink:href="dir_000017_000024.html" target="_top" xlink:title="1">
<text text-anchor="middle" x="148.339" y="-191.199" font-family="Helvetica,sans-Serif" font-size="10.00">1</text>
</a>
</g>
</g>
<!-- dir_7e4ba924aa6e30bd10e1c73f4ed13ae4 -->
<g id="node2" class="node"><title>dir_7e4ba924aa6e30bd10e1c73f4ed13ae4</title>
<g id="a_node2"><a xlink:href="dir_7e4ba924aa6e30bd10e1c73f4ed13ae4.html" target="_top" xlink:title="AmpPlotter">
<polygon fill="white" stroke="black" points="259.25,-252 194.75,-252 194.75,-216 259.25,-216 259.25,-252"/>
<text text-anchor="middle" x="227" y="-231.5" font-family="Helvetica,sans-Serif" font-size="10.00">AmpPlotter</text>
</a>
</g>
</g>
<!-- dir_6affbc29315b2bcc3e87f973c15f2971 -->
<g id="node3" class="node"><title>dir_6affbc29315b2bcc3e87f973c15f2971</title>
<g id="a_node3"><a xlink:href="dir_6affbc29315b2bcc3e87f973c15f2971.html" target="_top" xlink:title="Core">
<polygon fill="white" stroke="red" points="150,-36 96,-36 96,-0 150,-0 150,-36"/>
<text text-anchor="middle" x="123" y="-15.5" font-family="Helvetica,sans-Serif" font-size="10.00">Core</text>
</a>
</g>
</g>
<!-- dir_7e4ba924aa6e30bd10e1c73f4ed13ae4&#45;&gt;dir_6affbc29315b2bcc3e87f973c15f2971 -->
<g id="edge12" class="edge"><title>dir_7e4ba924aa6e30bd10e1c73f4ed13ae4&#45;&gt;dir_6affbc29315b2bcc3e87f973c15f2971</title>
<path fill="none" stroke="black" d="M239.367,-215.969C250.928,-197.83 265.019,-168.428 255,-144 236.281,-98.3575 191.212,-61.8517 158.948,-40.3406"/>
<polygon fill="black" stroke="black" points="160.514,-37.1842 150.22,-34.6758 156.703,-43.0559 160.514,-37.1842"/>
<g id="a_edge12&#45;headlabel"><a xlink:href="dir_000019_000001.html" target="_top" xlink:title="2">
<text text-anchor="middle" x="165.075" y="-34.2595" font-family="Helvetica,sans-Serif" font-size="10.00">2</text>
</a>
</g>
</g>
<!-- dir_6affbc29315b2bcc3e87f973c15f2971&#45;&gt;dir_07a2f2f9ac9dcc8572e29d5eac3ef8e4 -->
<g id="edge1" class="edge"><title>dir_6affbc29315b2bcc3e87f973c15f2971&#45;&gt;dir_07a2f2f9ac9dcc8572e29d5eac3ef8e4</title>
<path fill="none" stroke="black" d="M121.32,-36.1043C118.607,-44.1291 114.514,-53.871 110.161,-62.7967"/>
<polygon fill="black" stroke="black" points="107.045,-61.2037 105.579,-71.6966 113.268,-64.4082 107.045,-61.2037"/>
<g id="a_edge1&#45;headlabel"><a xlink:href="dir_000001_000003.html" target="_top" xlink:title="2">
<text text-anchor="middle" x="106.166" y="-54.2081" font-family="Helvetica,sans-Serif" font-size="10.00">2</text>
</a>
</g>
</g>
<!-- dir_07a2f2f9ac9dcc8572e29d5eac3ef8e4&#45;&gt;dir_6affbc29315b2bcc3e87f973c15f2971 -->
<g id="edge2" class="edge"><title>dir_07a2f2f9ac9dcc8572e29d5eac3ef8e4&#45;&gt;dir_6affbc29315b2bcc3e87f973c15f2971</title>
<path fill="none" stroke="black" d="M93.7472,-71.6966C96.4541,-63.7284 100.504,-54.0995 104.809,-45.2641"/>
<polygon fill="black" stroke="black" points="108.06,-46.5967 109.53,-36.1043 101.838,-43.3897 108.06,-46.5967"/>
<g id="a_edge2&#45;headlabel"><a xlink:href="dir_000003_000001.html" target="_top" xlink:title="25">
<text text-anchor="middle" x="108.937" y="-48.5926" font-family="Helvetica,sans-Serif" font-size="10.00">25</text>
</a>
</g>
</g>
<!-- dir_3ed12ba79a1160ca9b085eca52cedfd6&#45;&gt;dir_6affbc29315b2bcc3e87f973c15f2971 -->
<g id="edge7" class="edge"><title>dir_3ed12ba79a1160ca9b085eca52cedfd6&#45;&gt;dir_6affbc29315b2bcc3e87f973c15f2971</title>
<path fill="none" stroke="black" d="M29.0403,-143.853C29.8592,-124.817 33.5618,-93.8954 48,-72 57.6672,-57.3398 72.8989,-45.4838 87.1174,-36.7327"/>
<polygon fill="black" stroke="black" points="88.9004,-39.7447 95.7807,-31.6879 85.3779,-33.6955 88.9004,-39.7447"/>
<g id="a_edge7&#45;headlabel"><a xlink:href="dir_000007_000001.html" target="_top" xlink:title="35">
<text text-anchor="middle" x="87.2229" y="-41.5071" font-family="Helvetica,sans-Serif" font-size="10.00">35</text>
</a>
</g>
</g>
<!-- dir_3ed12ba79a1160ca9b085eca52cedfd6&#45;&gt;dir_07a2f2f9ac9dcc8572e29d5eac3ef8e4 -->
<g id="edge8" class="edge"><title>dir_3ed12ba79a1160ca9b085eca52cedfd6&#45;&gt;dir_07a2f2f9ac9dcc8572e29d5eac3ef8e4</title>
<path fill="none" stroke="black" d="M44.573,-143.697C52.2022,-135.22 61.5228,-124.864 69.8757,-115.583"/>
<polygon fill="black" stroke="black" points="72.518,-117.879 76.6061,-108.104 67.3149,-113.196 72.518,-117.879"/>
<g id="a_edge8&#45;headlabel"><a xlink:href="dir_000007_000003.html" target="_top" xlink:title="6">
<text text-anchor="middle" x="72.2237" y="-119.95" font-family="Helvetica,sans-Serif" font-size="10.00">6</text>
</a>
</g>
</g>
<!-- dir_e70d8e706843d7578727bdcd4ddb658f&#45;&gt;dir_6affbc29315b2bcc3e87f973c15f2971 -->
<g id="edge9" class="edge"><title>dir_e70d8e706843d7578727bdcd4ddb658f&#45;&gt;dir_6affbc29315b2bcc3e87f973c15f2971</title>
<path fill="none" stroke="black" d="M205.661,-143.871C189.359,-119.244 159.169,-73.6377 140.135,-44.8845"/>
<polygon fill="black" stroke="black" points="142.817,-42.5958 134.379,-36.1893 136.98,-46.4598 142.817,-42.5958"/>
<g id="a_edge9&#45;headlabel"><a xlink:href="dir_000020_000001.html" target="_top" xlink:title="35">
<text text-anchor="middle" x="147.169" y="-41.526" font-family="Helvetica,sans-Serif" font-size="10.00">35</text>
</a>
</g>
</g>
<!-- dir_b3db74a047a522c1bb2757e17a1c93c2&#45;&gt;dir_6affbc29315b2bcc3e87f973c15f2971 -->
<g id="edge10" class="edge"><title>dir_b3db74a047a522c1bb2757e17a1c93c2&#45;&gt;dir_6affbc29315b2bcc3e87f973c15f2971</title>
<path fill="none" stroke="black" d="M141.385,-143.854C140.569,-125.871 138.766,-96.8244 135,-72 133.706,-63.474 131.807,-54.2797 129.899,-45.9812"/>
<polygon fill="black" stroke="black" points="133.257,-44.9754 127.522,-36.0666 126.45,-46.607 133.257,-44.9754"/>
<g id="a_edge10&#45;headlabel"><a xlink:href="dir_000024_000001.html" target="_top" xlink:title="41">
<text text-anchor="middle" x="136.856" y="-45.3092" font-family="Helvetica,sans-Serif" font-size="10.00">41</text>
</a>
</g>
</g>
<!-- dir_b3db74a047a522c1bb2757e17a1c93c2&#45;&gt;dir_07a2f2f9ac9dcc8572e29d5eac3ef8e4 -->
<g id="edge11" class="edge"><title>dir_b3db74a047a522c1bb2757e17a1c93c2&#45;&gt;dir_07a2f2f9ac9dcc8572e29d5eac3ef8e4</title>
<path fill="none" stroke="black" d="M129.64,-143.697C123.767,-135.474 116.631,-125.483 110.158,-116.421"/>
<polygon fill="black" stroke="black" points="112.878,-114.207 104.217,-108.104 107.182,-118.276 112.878,-114.207"/>
<g id="a_edge11&#45;headlabel"><a xlink:href="dir_000024_000003.html" target="_top" xlink:title="3">
<text text-anchor="middle" x="117.278" y="-112.982" font-family="Helvetica,sans-Serif" font-size="10.00">3</text>
</a>
</g>
</g>
</g>
</svg>
