<?xml version="1.0" encoding="UTF-8" standalone="no"?>
<!DOCTYPE svg PUBLIC "-//W3C//DTD SVG 1.1//EN"
 "http://www.w3.org/Graphics/SVG/1.1/DTD/svg11.dtd">
<!-- Generated by graphviz version 2.36.0 (20140111.2315)
 -->
<!-- Title: /home/travis/build/ComPWA/ComPWA/Examples/PythonDalitzFit Pages: 1 -->
<svg width="144pt" height="367pt"
 viewBox="0.00 0.00 143.58 367.00" xmlns="http://www.w3.org/2000/svg" xmlns:xlink="http://www.w3.org/1999/xlink">
<g id="graph0" class="graph" transform="scale(1 1) rotate(0) translate(4 363)">
<title>/home/travis/build/ComPWA/ComPWA/Examples/PythonDalitzFit</title>
<polygon fill="white" stroke="none" points="-4,4 -4,-363 139.576,-363 139.576,4 -4,4"/>
<g id="clust1" class="cluster"><title>clusterdir_d3797818b93279c559ab8c66e3e384f0</title>
<g id="a_clust1"><a xlink:href="dir_d3797818b93279c559ab8c66e3e384f0.html" target="_top" xlink:title="Examples">
<polygon fill="#ddddee" stroke="black" points="8,-280 8,-351 108,-351 108,-280 8,-280"/>
<text text-anchor="middle" x="58" y="-339" font-family="Helvetica,sans-Serif" font-size="10.00">Examples</text>
</a>
</g>
</g>
<!-- dir_f0d92b1bc2a86ae757c34d8270833e37 -->
<g id="node1" class="node"><title>dir_f0d92b1bc2a86ae757c34d8270833e37</title>
<g id="a_node1"><a xlink:href="dir_f0d92b1bc2a86ae757c34d8270833e37.html" target="_top" xlink:title="PythonDalitzFit">
<polygon fill="#eeeeff" stroke="black" points="99.5,-324 16.5,-324 16.5,-288 99.5,-288 99.5,-324"/>
<text text-anchor="middle" x="58" y="-303.5" font-family="Helvetica,sans-Serif" font-size="10.00">PythonDalitzFit</text>
</a>
</g>
</g>
<!-- dir_6affbc29315b2bcc3e87f973c15f2971 -->
<g id="node2" class="node"><title>dir_6affbc29315b2bcc3e87f973c15f2971</title>
<g id="a_node2"><a xlink:href="dir_6affbc29315b2bcc3e87f973c15f2971.html" target="_top" xlink:title="Core">
<polygon fill="white" stroke="red" points="131,-108 77,-108 77,-72 131,-72 131,-108"/>
<text text-anchor="middle" x="104" y="-87.5" font-family="Helvetica,sans-Serif" font-size="10.00">Core</text>
</a>
</g>
</g>
<!-- dir_f0d92b1bc2a86ae757c34d8270833e37&#45;&gt;dir_6affbc29315b2bcc3e87f973c15f2971 -->
<g id="edge7" class="edge"><title>dir_f0d92b1bc2a86ae757c34d8270833e37&#45;&gt;dir_6affbc29315b2bcc3e87f973c15f2971</title>
<path fill="none" stroke="black" d="M90.527,-287.984C103.789,-279.18 117.699,-267.085 125,-252 146.034,-208.542 129.521,-151.165 116.288,-117.948"/>
<polygon fill="black" stroke="black" points="119.41,-116.341 112.332,-108.457 112.949,-119.034 119.41,-116.341"/>
<g id="a_edge7&#45;headlabel"><a xlink:href="dir_000016_000001.html" target="_top" xlink:title="13">
<text text-anchor="middle" x="123.414" y="-116.066" font-family="Helvetica,sans-Serif" font-size="10.00">13</text>
</a>
</g>
</g>
<!-- dir_07a2f2f9ac9dcc8572e29d5eac3ef8e4 -->
<g id="node3" class="node"><title>dir_07a2f2f9ac9dcc8572e29d5eac3ef8e4</title>
<g id="a_node3"><a xlink:href="dir_07a2f2f9ac9dcc8572e29d5eac3ef8e4.html" target="_top" xlink:title="DataReader">
<polygon fill="white" stroke="red" points="110.25,-36 41.75,-36 41.75,-0 110.25,-0 110.25,-36"/>
<text text-anchor="middle" x="76" y="-15.5" font-family="Helvetica,sans-Serif" font-size="10.00">DataReader</text>
</a>
</g>
</g>
<!-- dir_f0d92b1bc2a86ae757c34d8270833e37&#45;&gt;dir_07a2f2f9ac9dcc8572e29d5eac3ef8e4 -->
<g id="edge8" class="edge"><title>dir_f0d92b1bc2a86ae757c34d8270833e37&#45;&gt;dir_07a2f2f9ac9dcc8572e29d5eac3ef8e4</title>
<path fill="none" stroke="black" d="M46.5595,-287.755C28.5404,-258.446 -3.1184,-196.942 10,-144 19.1995,-106.874 41.6613,-68.6208 57.8267,-44.3746"/>
<polygon fill="black" stroke="black" points="60.7237,-46.3386 63.4612,-36.1035 54.9385,-42.3975 60.7237,-46.3386"/>
<g id="a_edge8&#45;headlabel"><a xlink:href="dir_000016_000003.html" target="_top" xlink:title="3">
<text text-anchor="middle" x="61.0464" y="-48.4079" font-family="Helvetica,sans-Serif" font-size="10.00">3</text>
</a>
</g>
</g>
<!-- dir_3ed12ba79a1160ca9b085eca52cedfd6 -->
<g id="node4" class="node"><title>dir_3ed12ba79a1160ca9b085eca52cedfd6</title>
<g id="a_node4"><a xlink:href="dir_3ed12ba79a1160ca9b085eca52cedfd6.html" target="_top" xlink:title="Estimator">
<polygon fill="white" stroke="red" points="78.25,-180 19.75,-180 19.75,-144 78.25,-144 78.25,-180"/>
<text text-anchor="middle" x="49" y="-159.5" font-family="Helvetica,sans-Serif" font-size="10.00">Estimator</text>
</a>
</g>
</g>
<!-- dir_f0d92b1bc2a86ae757c34d8270833e37&#45;&gt;dir_3ed12ba79a1160ca9b085eca52cedfd6 -->
<g id="edge9" class="edge"><title>dir_f0d92b1bc2a86ae757c34d8270833e37&#45;&gt;dir_3ed12ba79a1160ca9b085eca52cedfd6</title>
<path fill="none" stroke="black" d="M53.9409,-287.929C51.6944,-277.598 49.1334,-264.12 48,-252 46.0698,-231.36 46.4373,-207.911 47.2243,-190.265"/>
<polygon fill="black" stroke="black" points="50.7285,-190.273 47.7518,-180.105 43.7379,-189.91 50.7285,-190.273"/>
<g id="a_edge9&#45;headlabel"><a xlink:href="dir_000016_000007.html" target="_top" xlink:title="3">
<text text-anchor="middle" x="53.3777" y="-191.51" font-family="Helvetica,sans-Serif" font-size="10.00">3</text>
</a>
</g>
</g>
<!-- dir_e70d8e706843d7578727bdcd4ddb658f -->
<g id="node5" class="node"><title>dir_e70d8e706843d7578727bdcd4ddb658f</title>
<g id="a_node5"><a xlink:href="dir_e70d8e706843d7578727bdcd4ddb658f.html" target="_top" xlink:title="Optimizer">
<polygon fill="white" stroke="red" points="116.25,-252 57.75,-252 57.75,-216 116.25,-216 116.25,-252"/>
<text text-anchor="middle" x="87" y="-231.5" font-family="Helvetica,sans-Serif" font-size="10.00">Optimizer</text>
</a>
</g>
</g>
<!-- dir_f0d92b1bc2a86ae757c34d8270833e37&#45;&gt;dir_e70d8e706843d7578727bdcd4ddb658f -->
<g id="edge10" class="edge"><title>dir_f0d92b1bc2a86ae757c34d8270833e37&#45;&gt;dir_e70d8e706843d7578727bdcd4ddb658f</title>
<path fill="none" stroke="black" d="M65.1685,-287.697C68.4345,-279.813 72.374,-270.304 76.0022,-261.546"/>
<polygon fill="black" stroke="black" points="79.32,-262.683 79.9139,-252.104 72.853,-260.003 79.32,-262.683"/>
<g id="a_edge10&#45;headlabel"><a xlink:href="dir_000016_000020.html" target="_top" xlink:title="3">
<text text-anchor="middle" x="80.5673" y="-264.59" font-family="Helvetica,sans-Serif" font-size="10.00">3</text>
</a>
</g>
</g>
<!-- dir_6affbc29315b2bcc3e87f973c15f2971&#45;&gt;dir_07a2f2f9ac9dcc8572e29d5eac3ef8e4 -->
<g id="edge1" class="edge"><title>dir_6affbc29315b2bcc3e87f973c15f2971&#45;&gt;dir_07a2f2f9ac9dcc8572e29d5eac3ef8e4</title>
<path fill="none" stroke="black" d="M91.1629,-71.6966C87.239,-63.8979 83.2606,-54.5085 80.1479,-45.8292"/>
<polygon fill="black" stroke="black" points="83.398,-44.5086 76.9467,-36.1043 76.749,-46.6973 83.398,-44.5086"/>
<g id="a_edge1&#45;headlabel"><a xlink:href="dir_000001_000003.html" target="_top" xlink:title="3">
<text text-anchor="middle" x="87.2188" y="-44.5352" font-family="Helvetica,sans-Serif" font-size="10.00">3</text>
</a>
</g>
</g>
<!-- dir_07a2f2f9ac9dcc8572e29d5eac3ef8e4&#45;&gt;dir_6affbc29315b2bcc3e87f973c15f2971 -->
<g id="edge2" class="edge"><title>dir_07a2f2f9ac9dcc8572e29d5eac3ef8e4&#45;&gt;dir_6affbc29315b2bcc3e87f973c15f2971</title>
<path fill="none" stroke="black" d="M88.7368,-36.1043C92.6597,-43.8757 96.645,-53.2575 99.7724,-61.9488"/>
<polygon fill="black" stroke="black" points="96.5328,-63.3003 102.994,-71.6966 103.179,-61.1034 96.5328,-63.3003"/>
<g id="a_edge2&#45;headlabel"><a xlink:href="dir_000003_000001.html" target="_top" xlink:title="23">
<text text-anchor="middle" x="92.7089" y="-58.2784" font-family="Helvetica,sans-Serif" font-size="10.00">23</text>
</a>
</g>
</g>
<!-- dir_3ed12ba79a1160ca9b085eca52cedfd6&#45;&gt;dir_6affbc29315b2bcc3e87f973c15f2971 -->
<g id="edge3" class="edge"><title>dir_3ed12ba79a1160ca9b085eca52cedfd6&#45;&gt;dir_6affbc29315b2bcc3e87f973c15f2971</title>
<path fill="none" stroke="black" d="M62.5955,-143.697C69.1227,-135.389 77.068,-125.277 84.2466,-116.141"/>
<polygon fill="black" stroke="black" points="87.1347,-118.13 90.5609,-108.104 81.6305,-113.805 87.1347,-118.13"/>
<g id="a_edge3&#45;headlabel"><a xlink:href="dir_000007_000001.html" target="_top" xlink:title="32">
<text text-anchor="middle" x="87.1465" y="-120.211" font-family="Helvetica,sans-Serif" font-size="10.00">32</text>
</a>
</g>
</g>
<!-- dir_3ed12ba79a1160ca9b085eca52cedfd6&#45;&gt;dir_07a2f2f9ac9dcc8572e29d5eac3ef8e4 -->
<g id="edge4" class="edge"><title>dir_3ed12ba79a1160ca9b085eca52cedfd6&#45;&gt;dir_07a2f2f9ac9dcc8572e29d5eac3ef8e4</title>
<path fill="none" stroke="black" d="M52.2568,-143.871C56.8585,-119.67 65.312,-75.2108 70.7914,-46.3932"/>
<polygon fill="black" stroke="black" points="74.302,-46.6671 72.7316,-36.1893 67.4252,-45.3594 74.302,-46.6671"/>
<g id="a_edge4&#45;headlabel"><a xlink:href="dir_000007_000003.html" target="_top" xlink:title="5">
<text text-anchor="middle" x="76.4199" y="-48.2287" font-family="Helvetica,sans-Serif" font-size="10.00">5</text>
</a>
</g>
</g>
<!-- dir_e70d8e706843d7578727bdcd4ddb658f&#45;&gt;dir_6affbc29315b2bcc3e87f973c15f2971 -->
<g id="edge5" class="edge"><title>dir_e70d8e706843d7578727bdcd4ddb658f&#45;&gt;dir_6affbc29315b2bcc3e87f973c15f2971</title>
<path fill="none" stroke="black" d="M89.0506,-215.871C91.9479,-191.67 97.2705,-147.211 100.721,-118.393"/>
<polygon fill="black" stroke="black" points="104.229,-118.534 101.942,-108.189 97.2782,-117.702 104.229,-118.534"/>
<g id="a_edge5&#45;headlabel"><a xlink:href="dir_000020_000001.html" target="_top" xlink:title="37">
<text text-anchor="middle" x="106.62" y="-119.941" font-family="Helvetica,sans-Serif" font-size="10.00">37</text>
</a>
</g>
</g>
<!-- dir_e70d8e706843d7578727bdcd4ddb658f&#45;&gt;dir_3ed12ba79a1160ca9b085eca52cedfd6 -->
<g id="edge6" class="edge"><title>dir_e70d8e706843d7578727bdcd4ddb658f&#45;&gt;dir_3ed12ba79a1160ca9b085eca52cedfd6</title>
<path fill="none" stroke="black" d="M77.6067,-215.697C73.2351,-207.644 67.9427,-197.894 63.1047,-188.982"/>
<polygon fill="black" stroke="black" points="66.1322,-187.223 58.2852,-180.104 59.9802,-190.563 66.1322,-187.223"/>
<g id="a_edge6&#45;headlabel"><a xlink:href="dir_000020_000007.html" target="_top" xlink:title="1">
<text text-anchor="middle" x="70.3424" y="-186.528" font-family="Helvetica,sans-Serif" font-size="10.00">1</text>
</a>
</g>
</g>
</g>
</svg>
