<?xml version="1.0" encoding="UTF-8" standalone="no"?>
<!DOCTYPE svg PUBLIC "-//W3C//DTD SVG 1.1//EN"
 "http://www.w3.org/Graphics/SVG/1.1/DTD/svg11.dtd">
<!-- Generated by graphviz version 2.36.0 (20140111.2315)
 -->
<!-- Title: /home/travis/build/ComPWA/ComPWA/Examples/DalitzAnalysis_D0KsKK Pages: 1 -->
<svg width="286pt" height="439pt"
 viewBox="0.00 0.00 286.00 439.00" xmlns="http://www.w3.org/2000/svg" xmlns:xlink="http://www.w3.org/1999/xlink">
<g id="graph0" class="graph" transform="scale(1 1) rotate(0) translate(4 435)">
<title>/home/travis/build/ComPWA/ComPWA/Examples/DalitzAnalysis_D0KsKK</title>
<polygon fill="white" stroke="none" points="-4,4 -4,-435 282,-435 282,4 -4,4"/>
<g id="clust1" class="cluster"><title>clusterdir_d3797818b93279c559ab8c66e3e384f0</title>
<g id="a_clust1"><a xlink:href="dir_d3797818b93279c559ab8c66e3e384f0.html" target="_top" xlink:title="Examples">
<polygon fill="#ddddee" stroke="black" points="70,-352 70,-423 210,-423 210,-352 70,-352"/>
<text text-anchor="middle" x="140" y="-411" font-family="Helvetica,sans-Serif" font-size="10.00">Examples</text>
</a>
</g>
</g>
<!-- dir_1acfe491ca5dc872d8e4d4de423ed744 -->
<g id="node1" class="node"><title>dir_1acfe491ca5dc872d8e4d4de423ed744</title>
<g id="a_node1"><a xlink:href="dir_1acfe491ca5dc872d8e4d4de423ed744.html" target="_top" xlink:title="DalitzAnalysis_D0KsKK">
<polygon fill="#eeeeff" stroke="black" points="201.25,-396 78.75,-396 78.75,-360 201.25,-360 201.25,-396"/>
<text text-anchor="middle" x="140" y="-375.5" font-family="Helvetica,sans-Serif" font-size="10.00">DalitzAnalysis_D0KsKK</text>
</a>
</g>
</g>
<!-- dir_6affbc29315b2bcc3e87f973c15f2971 -->
<g id="node2" class="node"><title>dir_6affbc29315b2bcc3e87f973c15f2971</title>
<g id="a_node2"><a xlink:href="dir_6affbc29315b2bcc3e87f973c15f2971.html" target="_top" xlink:title="Core">
<polygon fill="white" stroke="red" points="161,-252 107,-252 107,-216 161,-216 161,-252"/>
<text text-anchor="middle" x="134" y="-231.5" font-family="Helvetica,sans-Serif" font-size="10.00">Core</text>
</a>
</g>
</g>
<!-- dir_1acfe491ca5dc872d8e4d4de423ed744&#45;&gt;dir_6affbc29315b2bcc3e87f973c15f2971 -->
<g id="edge2" class="edge"><title>dir_1acfe491ca5dc872d8e4d4de423ed744&#45;&gt;dir_6affbc29315b2bcc3e87f973c15f2971</title>
<path fill="none" stroke="black" d="M135.941,-359.929C133.694,-349.598 131.133,-336.12 130,-324 128.068,-303.34 129.259,-279.892 130.831,-262.252"/>
<polygon fill="black" stroke="black" points="134.334,-262.391 131.834,-252.096 127.368,-261.703 134.334,-262.391"/>
<g id="a_edge2&#45;headlabel"><a xlink:href="dir_000014_000001.html" target="_top" xlink:title="8">
<text text-anchor="middle" x="136.807" y="-263.748" font-family="Helvetica,sans-Serif" font-size="10.00">8</text>
</a>
</g>
</g>
<!-- dir_07a2f2f9ac9dcc8572e29d5eac3ef8e4 -->
<g id="node3" class="node"><title>dir_07a2f2f9ac9dcc8572e29d5eac3ef8e4</title>
<g id="a_node3"><a xlink:href="dir_07a2f2f9ac9dcc8572e29d5eac3ef8e4.html" target="_top" xlink:title="DataReader">
<polygon fill="white" stroke="red" points="249.25,-180 180.75,-180 180.75,-144 249.25,-144 249.25,-180"/>
<text text-anchor="middle" x="215" y="-159.5" font-family="Helvetica,sans-Serif" font-size="10.00">DataReader</text>
</a>
</g>
</g>
<!-- dir_1acfe491ca5dc872d8e4d4de423ed744&#45;&gt;dir_07a2f2f9ac9dcc8572e29d5eac3ef8e4 -->
<g id="edge3" class="edge"><title>dir_1acfe491ca5dc872d8e4d4de423ed744&#45;&gt;dir_07a2f2f9ac9dcc8572e29d5eac3ef8e4</title>
<path fill="none" stroke="black" d="M172.179,-359.81C185.373,-350.972 199.326,-338.899 207,-324 228.969,-281.344 225.1,-223.612 220.148,-190.129"/>
<polygon fill="black" stroke="black" points="223.587,-189.472 218.534,-180.16 216.677,-190.591 223.587,-189.472"/>
<g id="a_edge3&#45;headlabel"><a xlink:href="dir_000014_000003.html" target="_top" xlink:title="4">
<text text-anchor="middle" x="226.965" y="-190.066" font-family="Helvetica,sans-Serif" font-size="10.00">4</text>
</a>
</g>
</g>
<!-- dir_07de378ed9486553e64ea14149656b37 -->
<g id="node4" class="node"><title>dir_07de378ed9486553e64ea14149656b37</title>
<g id="a_node4"><a xlink:href="dir_07de378ed9486553e64ea14149656b37.html" target="_top" xlink:title="Tools">
<polygon fill="white" stroke="red" points="149,-108 95,-108 95,-72 149,-72 149,-108"/>
<text text-anchor="middle" x="122" y="-87.5" font-family="Helvetica,sans-Serif" font-size="10.00">Tools</text>
</a>
</g>
</g>
<!-- dir_1acfe491ca5dc872d8e4d4de423ed744&#45;&gt;dir_07de378ed9486553e64ea14149656b37 -->
<g id="edge4" class="edge"><title>dir_1acfe491ca5dc872d8e4d4de423ed744&#45;&gt;dir_07de378ed9486553e64ea14149656b37</title>
<path fill="none" stroke="black" d="M132.164,-359.658C121.915,-335.935 104.502,-291.765 98,-252 90.3051,-204.939 103.181,-149.969 112.853,-117.963"/>
<polygon fill="black" stroke="black" points="116.194,-119.006 115.851,-108.417 109.515,-116.909 116.194,-119.006"/>
<g id="a_edge4&#45;headlabel"><a xlink:href="dir_000014_000029.html" target="_top" xlink:title="5">
<text text-anchor="middle" x="117.826" y="-120.786" font-family="Helvetica,sans-Serif" font-size="10.00">5</text>
</a>
</g>
</g>
<!-- dir_3ed12ba79a1160ca9b085eca52cedfd6 -->
<g id="node5" class="node"><title>dir_3ed12ba79a1160ca9b085eca52cedfd6</title>
<g id="a_node5"><a xlink:href="dir_3ed12ba79a1160ca9b085eca52cedfd6.html" target="_top" xlink:title="Estimator">
<polygon fill="white" stroke="red" points="198.25,-324 139.75,-324 139.75,-288 198.25,-288 198.25,-324"/>
<text text-anchor="middle" x="169" y="-303.5" font-family="Helvetica,sans-Serif" font-size="10.00">Estimator</text>
</a>
</g>
</g>
<!-- dir_1acfe491ca5dc872d8e4d4de423ed744&#45;&gt;dir_3ed12ba79a1160ca9b085eca52cedfd6 -->
<g id="edge5" class="edge"><title>dir_1acfe491ca5dc872d8e4d4de423ed744&#45;&gt;dir_3ed12ba79a1160ca9b085eca52cedfd6</title>
<path fill="none" stroke="black" d="M147.169,-359.697C150.435,-351.813 154.374,-342.304 158.002,-333.546"/>
<polygon fill="black" stroke="black" points="161.32,-334.683 161.914,-324.104 154.853,-332.003 161.32,-334.683"/>
<g id="a_edge5&#45;headlabel"><a xlink:href="dir_000014_000007.html" target="_top" xlink:title="1">
<text text-anchor="middle" x="162.567" y="-336.59" font-family="Helvetica,sans-Serif" font-size="10.00">1</text>
</a>
</g>
</g>
<!-- dir_e70d8e706843d7578727bdcd4ddb658f -->
<g id="node6" class="node"><title>dir_e70d8e706843d7578727bdcd4ddb658f</title>
<g id="a_node6"><a xlink:href="dir_e70d8e706843d7578727bdcd4ddb658f.html" target="_top" xlink:title="Optimizer">
<polygon fill="white" stroke="red" points="96.25,-36 37.75,-36 37.75,-0 96.25,-0 96.25,-36"/>
<text text-anchor="middle" x="67" y="-15.5" font-family="Helvetica,sans-Serif" font-size="10.00">Optimizer</text>
</a>
</g>
</g>
<!-- dir_1acfe491ca5dc872d8e4d4de423ed744&#45;&gt;dir_e70d8e706843d7578727bdcd4ddb658f -->
<g id="edge6" class="edge"><title>dir_1acfe491ca5dc872d8e4d4de423ed744&#45;&gt;dir_e70d8e706843d7578727bdcd4ddb658f</title>
<path fill="none" stroke="black" d="M103.582,-359.814C62.1008,-337.416 0,-294.026 0,-235 0,-235 0,-235 0,-161 0,-116.725 26.9702,-71.4709 46.6875,-44.3024"/>
<polygon fill="black" stroke="black" points="49.6048,-46.2456 52.791,-36.1412 43.9991,-42.0532 49.6048,-46.2456"/>
<g id="a_edge6&#45;headlabel"><a xlink:href="dir_000014_000020.html" target="_top" xlink:title="2">
<text text-anchor="middle" x="49.7258" y="-48.3246" font-family="Helvetica,sans-Serif" font-size="10.00">2</text>
</a>
</g>
</g>
<!-- dir_b3db74a047a522c1bb2757e17a1c93c2 -->
<g id="node7" class="node"><title>dir_b3db74a047a522c1bb2757e17a1c93c2</title>
<g id="a_node7"><a xlink:href="dir_b3db74a047a522c1bb2757e17a1c93c2.html" target="_top" xlink:title="Physics">
<polygon fill="white" stroke="red" points="204,-36 150,-36 150,-0 204,-0 204,-36"/>
<text text-anchor="middle" x="177" y="-15.5" font-family="Helvetica,sans-Serif" font-size="10.00">Physics</text>
</a>
</g>
</g>
<!-- dir_1acfe491ca5dc872d8e4d4de423ed744&#45;&gt;dir_b3db74a047a522c1bb2757e17a1c93c2 -->
<g id="edge7" class="edge"><title>dir_1acfe491ca5dc872d8e4d4de423ed744&#45;&gt;dir_b3db74a047a522c1bb2757e17a1c93c2</title>
<path fill="none" stroke="black" d="M175.538,-359.873C216.427,-337.394 278,-293.784 278,-235 278,-235 278,-235 278,-161 278,-112.193 237.887,-68.5063 208.22,-42.8704"/>
<polygon fill="black" stroke="black" points="210.085,-39.867 200.171,-36.1292 205.59,-45.2334 210.085,-39.867"/>
<g id="a_edge7&#45;headlabel"><a xlink:href="dir_000014_000024.html" target="_top" xlink:title="1">
<text text-anchor="middle" x="214.664" y="-37.4984" font-family="Helvetica,sans-Serif" font-size="10.00">1</text>
</a>
</g>
</g>
<!-- dir_6affbc29315b2bcc3e87f973c15f2971&#45;&gt;dir_07a2f2f9ac9dcc8572e29d5eac3ef8e4 -->
<g id="edge1" class="edge"><title>dir_6affbc29315b2bcc3e87f973c15f2971&#45;&gt;dir_07a2f2f9ac9dcc8572e29d5eac3ef8e4</title>
<path fill="none" stroke="black" d="M148.107,-215.697C157.399,-206.881 169.786,-196.032 181.423,-186.474"/>
<polygon fill="black" stroke="black" points="183.731,-189.11 189.313,-180.104 179.334,-183.663 183.731,-189.11"/>
<g id="a_edge1&#45;headlabel"><a xlink:href="dir_000001_000003.html" target="_top" xlink:title="2">
<text text-anchor="middle" x="182.718" y="-191.077" font-family="Helvetica,sans-Serif" font-size="10.00">2</text>
</a>
</g>
</g>
<!-- dir_07a2f2f9ac9dcc8572e29d5eac3ef8e4&#45;&gt;dir_6affbc29315b2bcc3e87f973c15f2971 -->
<g id="edge8" class="edge"><title>dir_07a2f2f9ac9dcc8572e29d5eac3ef8e4&#45;&gt;dir_6affbc29315b2bcc3e87f973c15f2971</title>
<path fill="none" stroke="black" d="M201.103,-180.104C191.858,-188.889 179.488,-199.732 167.84,-209.309"/>
<polygon fill="black" stroke="black" points="165.515,-206.688 159.938,-215.697 169.915,-212.132 165.515,-206.688"/>
<g id="a_edge8&#45;headlabel"><a xlink:href="dir_000003_000001.html" target="_top" xlink:title="25">
<text text-anchor="middle" x="166.526" y="-199.72" font-family="Helvetica,sans-Serif" font-size="10.00">25</text>
</a>
</g>
</g>
<!-- dir_07a2f2f9ac9dcc8572e29d5eac3ef8e4&#45;&gt;dir_07de378ed9486553e64ea14149656b37 -->
<g id="edge9" class="edge"><title>dir_07a2f2f9ac9dcc8572e29d5eac3ef8e4&#45;&gt;dir_07de378ed9486553e64ea14149656b37</title>
<path fill="none" stroke="black" d="M186.353,-143.876C173.721,-135.063 159.091,-124.182 146.916,-114.586"/>
<polygon fill="black" stroke="black" points="148.926,-111.712 138.934,-108.19 144.549,-117.175 148.926,-111.712"/>
<g id="a_edge9&#45;headlabel"><a xlink:href="dir_000003_000029.html" target="_top" xlink:title="2">
<text text-anchor="middle" x="153.507" y="-109.244" font-family="Helvetica,sans-Serif" font-size="10.00">2</text>
</a>
</g>
</g>
<!-- dir_07de378ed9486553e64ea14149656b37&#45;&gt;dir_6affbc29315b2bcc3e87f973c15f2971 -->
<g id="edge10" class="edge"><title>dir_07de378ed9486553e64ea14149656b37&#45;&gt;dir_6affbc29315b2bcc3e87f973c15f2971</title>
<path fill="none" stroke="black" d="M123.453,-108.189C125.501,-132.424 129.258,-176.888 131.691,-205.679"/>
<polygon fill="black" stroke="black" points="128.223,-206.202 132.553,-215.871 135.198,-205.612 128.223,-206.202"/>
<g id="a_edge10&#45;headlabel"><a xlink:href="dir_000029_000001.html" target="_top" xlink:title="28">
<text text-anchor="middle" x="125.091" y="-200.359" font-family="Helvetica,sans-Serif" font-size="10.00">28</text>
</a>
</g>
</g>
<!-- dir_07de378ed9486553e64ea14149656b37&#45;&gt;dir_07a2f2f9ac9dcc8572e29d5eac3ef8e4 -->
<g id="edge11" class="edge"><title>dir_07de378ed9486553e64ea14149656b37&#45;&gt;dir_07a2f2f9ac9dcc8572e29d5eac3ef8e4</title>
<path fill="none" stroke="black" d="M149.24,-107.145C162.174,-116.117 177.436,-127.446 190.062,-137.396"/>
<polygon fill="black" stroke="black" points="187.934,-140.176 197.927,-143.697 192.311,-134.713 187.934,-140.176"/>
<g id="a_edge11&#45;headlabel"><a xlink:href="dir_000029_000003.html" target="_top" xlink:title="3">
<text text-anchor="middle" x="183.354" y="-137.645" font-family="Helvetica,sans-Serif" font-size="10.00">3</text>
</a>
</g>
</g>
<!-- dir_07de378ed9486553e64ea14149656b37&#45;&gt;dir_e70d8e706843d7578727bdcd4ddb658f -->
<g id="edge12" class="edge"><title>dir_07de378ed9486553e64ea14149656b37&#45;&gt;dir_e70d8e706843d7578727bdcd4ddb658f</title>
<path fill="none" stroke="black" d="M108.404,-71.6966C101.877,-63.3893 93.932,-53.2771 86.7534,-44.1407"/>
<polygon fill="black" stroke="black" points="89.3695,-41.8051 80.4391,-36.1043 83.8653,-46.1299 89.3695,-41.8051"/>
<g id="a_edge12&#45;headlabel"><a xlink:href="dir_000029_000020.html" target="_top" xlink:title="2">
<text text-anchor="middle" x="93.8229" y="-40.3775" font-family="Helvetica,sans-Serif" font-size="10.00">2</text>
</a>
</g>
</g>
<!-- dir_07de378ed9486553e64ea14149656b37&#45;&gt;dir_b3db74a047a522c1bb2757e17a1c93c2 -->
<g id="edge13" class="edge"><title>dir_07de378ed9486553e64ea14149656b37&#45;&gt;dir_b3db74a047a522c1bb2757e17a1c93c2</title>
<path fill="none" stroke="black" d="M129.68,-71.6966C135.408,-63.3046 143.257,-53.0705 150.974,-43.8613"/>
<polygon fill="black" stroke="black" points="153.784,-45.9625 157.666,-36.1043 148.484,-41.3902 153.784,-45.9625"/>
<g id="a_edge13&#45;headlabel"><a xlink:href="dir_000029_000024.html" target="_top" xlink:title="2">
<text text-anchor="middle" x="153.586" y="-48.0389" font-family="Helvetica,sans-Serif" font-size="10.00">2</text>
</a>
</g>
</g>
<!-- dir_3ed12ba79a1160ca9b085eca52cedfd6&#45;&gt;dir_6affbc29315b2bcc3e87f973c15f2971 -->
<g id="edge14" class="edge"><title>dir_3ed12ba79a1160ca9b085eca52cedfd6&#45;&gt;dir_6affbc29315b2bcc3e87f973c15f2971</title>
<path fill="none" stroke="black" d="M160.348,-287.697C156.364,-279.728 151.55,-270.1 147.132,-261.264"/>
<polygon fill="black" stroke="black" points="150.155,-259.483 142.552,-252.104 143.894,-262.614 150.155,-259.483"/>
<g id="a_edge14&#45;headlabel"><a xlink:href="dir_000007_000001.html" target="_top" xlink:title="35">
<text text-anchor="middle" x="154.302" y="-258.929" font-family="Helvetica,sans-Serif" font-size="10.00">35</text>
</a>
</g>
</g>
<!-- dir_3ed12ba79a1160ca9b085eca52cedfd6&#45;&gt;dir_07a2f2f9ac9dcc8572e29d5eac3ef8e4 -->
<g id="edge15" class="edge"><title>dir_3ed12ba79a1160ca9b085eca52cedfd6&#45;&gt;dir_07a2f2f9ac9dcc8572e29d5eac3ef8e4</title>
<path fill="none" stroke="black" d="M174.549,-287.871C182.423,-263.564 196.918,-218.819 206.249,-190.013"/>
<polygon fill="black" stroke="black" points="209.679,-190.781 209.432,-180.189 203.02,-188.624 209.679,-190.781"/>
<g id="a_edge15&#45;headlabel"><a xlink:href="dir_000007_000003.html" target="_top" xlink:title="6">
<text text-anchor="middle" x="211.273" y="-192.576" font-family="Helvetica,sans-Serif" font-size="10.00">6</text>
</a>
</g>
</g>
<!-- dir_e70d8e706843d7578727bdcd4ddb658f&#45;&gt;dir_6affbc29315b2bcc3e87f973c15f2971 -->
<g id="edge16" class="edge"><title>dir_e70d8e706843d7578727bdcd4ddb658f&#45;&gt;dir_6affbc29315b2bcc3e87f973c15f2971</title>
<path fill="none" stroke="black" d="M69.8585,-36.2616C73.0439,-54.34 78.7182,-83.4624 86,-108 96.2884,-142.669 111.798,-181.362 122.384,-206.386"/>
<polygon fill="black" stroke="black" points="119.304,-208.085 126.452,-215.905 125.74,-205.334 119.304,-208.085"/>
<g id="a_edge16&#45;headlabel"><a xlink:href="dir_000020_000001.html" target="_top" xlink:title="35">
<text text-anchor="middle" x="115.28" y="-203.396" font-family="Helvetica,sans-Serif" font-size="10.00">35</text>
</a>
</g>
</g>
<!-- dir_b3db74a047a522c1bb2757e17a1c93c2&#45;&gt;dir_6affbc29315b2bcc3e87f973c15f2971 -->
<g id="edge17" class="edge"><title>dir_b3db74a047a522c1bb2757e17a1c93c2&#45;&gt;dir_6affbc29315b2bcc3e87f973c15f2971</title>
<path fill="none" stroke="black" d="M173.537,-36.2325C166.069,-73.4027 148.397,-161.352 139.426,-205.996"/>
<polygon fill="black" stroke="black" points="135.985,-205.356 137.446,-215.849 142.848,-206.735 135.985,-205.356"/>
<g id="a_edge17&#45;headlabel"><a xlink:href="dir_000024_000001.html" target="_top" xlink:title="41">
<text text-anchor="middle" x="133.909" y="-198.772" font-family="Helvetica,sans-Serif" font-size="10.00">41</text>
</a>
</g>
</g>
<!-- dir_b3db74a047a522c1bb2757e17a1c93c2&#45;&gt;dir_07a2f2f9ac9dcc8572e29d5eac3ef8e4 -->
<g id="edge18" class="edge"><title>dir_b3db74a047a522c1bb2757e17a1c93c2&#45;&gt;dir_07a2f2f9ac9dcc8572e29d5eac3ef8e4</title>
<path fill="none" stroke="black" d="M181.6,-36.1893C188.114,-60.5311 200.089,-105.28 207.79,-134.059"/>
<polygon fill="black" stroke="black" points="204.45,-135.116 210.416,-143.871 211.212,-133.307 204.45,-135.116"/>
<g id="a_edge18&#45;headlabel"><a xlink:href="dir_000024_000003.html" target="_top" xlink:title="3">
<text text-anchor="middle" x="200.778" y="-129.878" font-family="Helvetica,sans-Serif" font-size="10.00">3</text>
</a>
</g>
</g>
<!-- dir_b3db74a047a522c1bb2757e17a1c93c2&#45;&gt;dir_07de378ed9486553e64ea14149656b37 -->
<g id="edge19" class="edge"><title>dir_b3db74a047a522c1bb2757e17a1c93c2&#45;&gt;dir_07de378ed9486553e64ea14149656b37</title>
<path fill="none" stroke="black" d="M169.456,-36.1043C163.762,-44.467 155.928,-54.6945 148.209,-63.9197"/>
<polygon fill="black" stroke="black" points="145.385,-61.8353 141.511,-71.6966 150.689,-66.4034 145.385,-61.8353"/>
<g id="a_edge19&#45;headlabel"><a xlink:href="dir_000024_000029.html" target="_top" xlink:title="6">
<text text-anchor="middle" x="145.579" y="-54.7588" font-family="Helvetica,sans-Serif" font-size="10.00">6</text>
</a>
</g>
</g>
</g>
</svg>
