<?xml version="1.0" encoding="UTF-8" standalone="no"?>
<!DOCTYPE svg PUBLIC "-//W3C//DTD SVG 1.1//EN"
 "http://www.w3.org/Graphics/SVG/1.1/DTD/svg11.dtd">
<!-- Generated by graphviz version 2.36.0 (20140111.2315)
 -->
<!-- Title: /home/travis/build/ComPWA/ComPWA/Physics Pages: 1 -->
<svg width="406pt" height="303pt"
 viewBox="0.00 0.00 405.83 303.00" xmlns="http://www.w3.org/2000/svg" xmlns:xlink="http://www.w3.org/1999/xlink">
<g id="graph0" class="graph" transform="scale(1 1) rotate(0) translate(4 299)">
<title>/home/travis/build/ComPWA/ComPWA/Physics</title>
<polygon fill="white" stroke="none" points="-4,4 -4,-299 401.834,-299 401.834,4 -4,4"/>
<g id="clust1" class="cluster"><title>clusterdir_4a050d6467fbd459d1c3f1ad22ffdaa0</title>
<g id="a_clust1"><a xlink:href="dir_4a050d6467fbd459d1c3f1ad22ffdaa0.html" target="_top" xlink:title="ComPWA">
<polygon fill="#ddddee" stroke="black" points="8,-56 8,-287 291,-287 291,-56 8,-56"/>
<text text-anchor="middle" x="149.5" y="-275" font-family="Helvetica,sans-Serif" font-size="10.00">ComPWA</text>
</a>
</g>
</g>
<g id="clust2" class="cluster"><title>clusterdir_b3db74a047a522c1bb2757e17a1c93c2</title>
<g id="a_clust2"><a xlink:href="dir_b3db74a047a522c1bb2757e17a1c93c2.html" target="_top">
<polygon fill="#eeeeff" stroke="black" points="16,-64 16,-260 283,-260 283,-64 16,-64"/>
</a>
</g>
</g>
<!-- dir_b3db74a047a522c1bb2757e17a1c93c2 -->
<g id="node1" class="node"><title>dir_b3db74a047a522c1bb2757e17a1c93c2</title>
<text text-anchor="middle" x="248" y="-231.5" font-family="Helvetica,sans-Serif" font-size="10.00">Physics</text>
</g>
<!-- dir_09cf514cb96a35e65d9646a5360d40b3 -->
<g id="node2" class="node"><title>dir_09cf514cb96a35e65d9646a5360d40b3</title>
<g id="a_node2"><a xlink:href="dir_09cf514cb96a35e65d9646a5360d40b3.html" target="_top" xlink:title="AmplitudeSum">
<polygon fill="white" stroke="black" points="256,-180 176,-180 176,-144 256,-144 256,-180"/>
<text text-anchor="middle" x="216" y="-159.5" font-family="Helvetica,sans-Serif" font-size="10.00">AmplitudeSum</text>
</a>
</g>
</g>
<!-- dir_51713950be669ec9e238204b37299ca7 -->
<g id="node5" class="node"><title>dir_51713950be669ec9e238204b37299ca7</title>
<g id="a_node5"><a xlink:href="dir_51713950be669ec9e238204b37299ca7.html" target="_top" xlink:title="DPKinematics">
<polygon fill="white" stroke="black" points="256,-108 176,-108 176,-72 256,-72 256,-108"/>
<text text-anchor="middle" x="216" y="-87.5" font-family="Helvetica,sans-Serif" font-size="10.00">DPKinematics</text>
</a>
</g>
</g>
<!-- dir_09cf514cb96a35e65d9646a5360d40b3&#45;&gt;dir_51713950be669ec9e238204b37299ca7 -->
<g id="edge7" class="edge"><title>dir_09cf514cb96a35e65d9646a5360d40b3&#45;&gt;dir_51713950be669ec9e238204b37299ca7</title>
<path fill="none" stroke="black" d="M216,-143.697C216,-135.983 216,-126.712 216,-118.112"/>
<polygon fill="black" stroke="black" points="219.5,-118.104 216,-108.104 212.5,-118.104 219.5,-118.104"/>
<g id="a_edge7&#45;headlabel"><a xlink:href="dir_000022_000025.html" target="_top" xlink:title="4">
<text text-anchor="middle" x="222.339" y="-119.199" font-family="Helvetica,sans-Serif" font-size="10.00">4</text>
</a>
</g>
</g>
<!-- dir_6affbc29315b2bcc3e87f973c15f2971 -->
<g id="node8" class="node"><title>dir_6affbc29315b2bcc3e87f973c15f2971</title>
<g id="a_node8"><a xlink:href="dir_6affbc29315b2bcc3e87f973c15f2971.html" target="_top" xlink:title="Core">
<polygon fill="none" stroke="black" points="330,-36 276,-36 276,-0 330,-0 330,-36"/>
<text text-anchor="middle" x="303" y="-15.5" font-family="Helvetica,sans-Serif" font-size="10.00">Core</text>
</a>
</g>
</g>
<!-- dir_09cf514cb96a35e65d9646a5360d40b3&#45;&gt;dir_6affbc29315b2bcc3e87f973c15f2971 -->
<g id="edge6" class="edge"><title>dir_09cf514cb96a35e65d9646a5360d40b3&#45;&gt;dir_6affbc29315b2bcc3e87f973c15f2971</title>
<path fill="none" stroke="black" d="M256.019,-144.908C271.872,-136.391 288.544,-124.267 298,-108 308.843,-89.3472 309.359,-64.6154 307.58,-45.9576"/>
<polygon fill="black" stroke="black" points="311.054,-45.5325 306.368,-36.0306 304.106,-46.3812 311.054,-45.5325"/>
<g id="a_edge6&#45;headlabel"><a xlink:href="dir_000022_000001.html" target="_top" xlink:title="30">
<text text-anchor="middle" x="314.308" y="-46.2565" font-family="Helvetica,sans-Serif" font-size="10.00">30</text>
</a>
</g>
</g>
<!-- dir_7e02b1813710c8e119c77f662c5998de -->
<g id="node3" class="node"><title>dir_7e02b1813710c8e119c77f662c5998de</title>
<g id="a_node3"><a xlink:href="dir_7e02b1813710c8e119c77f662c5998de.html" target="_top" xlink:title="BreitWigner">
<polygon fill="white" stroke="black" points="203,-252 135,-252 135,-216 203,-216 203,-252"/>
<text text-anchor="middle" x="169" y="-231.5" font-family="Helvetica,sans-Serif" font-size="10.00">BreitWigner</text>
</a>
</g>
</g>
<!-- dir_7e02b1813710c8e119c77f662c5998de&#45;&gt;dir_6affbc29315b2bcc3e87f973c15f2971 -->
<g id="edge12" class="edge"><title>dir_7e02b1813710c8e119c77f662c5998de&#45;&gt;dir_6affbc29315b2bcc3e87f973c15f2971</title>
<path fill="none" stroke="black" d="M203.094,-218.958C206.086,-217.898 209.084,-216.894 212,-216 282.515,-194.374 327.849,-237.533 374,-180 408.485,-137.011 402.58,-103.121 374,-56 366.344,-43.3763 352.818,-34.8584 339.611,-29.2124"/>
<polygon fill="black" stroke="black" points="340.73,-25.8932 330.139,-25.5912 338.23,-32.4316 340.73,-25.8932"/>
<g id="a_edge12&#45;headlabel"><a xlink:href="dir_000023_000001.html" target="_top" xlink:title="4">
<text text-anchor="middle" x="345.101" y="-22.0248" font-family="Helvetica,sans-Serif" font-size="10.00">4</text>
</a>
</g>
</g>
<!-- dir_677792c6b0af04f6b28184abca97610a -->
<g id="node4" class="node"><title>dir_677792c6b0af04f6b28184abca97610a</title>
<g id="a_node4"><a xlink:href="dir_677792c6b0af04f6b28184abca97610a.html" target="_top" xlink:title="DecayTree">
<polygon fill="white" stroke="black" points="154.25,-180 89.75,-180 89.75,-144 154.25,-144 154.25,-180"/>
<text text-anchor="middle" x="122" y="-159.5" font-family="Helvetica,sans-Serif" font-size="10.00">DecayTree</text>
</a>
</g>
</g>
<!-- dir_fdd4de048863ed7726b7fad341a18267 -->
<g id="node6" class="node"><title>dir_fdd4de048863ed7726b7fad341a18267</title>
<g id="a_node6"><a xlink:href="dir_fdd4de048863ed7726b7fad341a18267.html" target="_top" xlink:title="DynamicalDecayFunctions">
<polygon fill="white" stroke="red" points="158,-108 24,-108 24,-72 158,-72 158,-108"/>
<text text-anchor="middle" x="91" y="-87.5" font-family="Helvetica,sans-Serif" font-size="10.00">DynamicalDecayFunctions</text>
</a>
</g>
</g>
<!-- dir_677792c6b0af04f6b28184abca97610a&#45;&gt;dir_fdd4de048863ed7726b7fad341a18267 -->
<g id="edge3" class="edge"><title>dir_677792c6b0af04f6b28184abca97610a&#45;&gt;dir_fdd4de048863ed7726b7fad341a18267</title>
<path fill="none" stroke="black" d="M114.337,-143.697C110.808,-135.728 106.544,-126.1 102.631,-117.264"/>
<polygon fill="black" stroke="black" points="105.824,-115.831 98.5748,-108.104 99.4239,-118.665 105.824,-115.831"/>
<g id="a_edge3&#45;headlabel"><a xlink:href="dir_000024_000026.html" target="_top" xlink:title="1">
<text text-anchor="middle" x="109.876" y="-115.468" font-family="Helvetica,sans-Serif" font-size="10.00">1</text>
</a>
</g>
</g>
<!-- dir_a5cff7bee041fe1927995f843ca9c6f9 -->
<g id="node7" class="node"><title>dir_a5cff7bee041fe1927995f843ca9c6f9</title>
<g id="a_node7"><a xlink:href="dir_a5cff7bee041fe1927995f843ca9c6f9.html" target="_top" xlink:title="HelicityAmplitude">
<polygon fill="white" stroke="black" points="116.25,-252 23.75,-252 23.75,-216 116.25,-216 116.25,-252"/>
<text text-anchor="middle" x="70" y="-231.5" font-family="Helvetica,sans-Serif" font-size="10.00">HelicityAmplitude</text>
</a>
</g>
</g>
<!-- dir_677792c6b0af04f6b28184abca97610a&#45;&gt;dir_a5cff7bee041fe1927995f843ca9c6f9 -->
<g id="edge5" class="edge"><title>dir_677792c6b0af04f6b28184abca97610a&#45;&gt;dir_a5cff7bee041fe1927995f843ca9c6f9</title>
<path fill="none" stroke="black" d="M115.189,-180.104C109.853,-188.467 102.458,-198.694 95.1341,-207.92"/>
<polygon fill="black" stroke="black" points="92.3944,-205.741 88.7697,-215.697 97.8116,-210.174 92.3944,-205.741"/>
<g id="a_edge5&#45;headlabel"><a xlink:href="dir_000024_000028.html" target="_top" xlink:title="1">
<text text-anchor="middle" x="92.4737" y="-198.661" font-family="Helvetica,sans-Serif" font-size="10.00">1</text>
</a>
</g>
</g>
<!-- dir_677792c6b0af04f6b28184abca97610a&#45;&gt;dir_6affbc29315b2bcc3e87f973c15f2971 -->
<g id="edge4" class="edge"><title>dir_677792c6b0af04f6b28184abca97610a&#45;&gt;dir_6affbc29315b2bcc3e87f973c15f2971</title>
<path fill="none" stroke="black" d="M154.432,-148.708C158.658,-147.118 162.931,-145.516 167,-144 210.482,-127.801 231.356,-139.955 265,-108 282.451,-91.4252 292.271,-65.5313 297.535,-45.9382"/>
<polygon fill="black" stroke="black" points="300.971,-46.6209 299.95,-36.0754 294.172,-44.9561 300.971,-46.6209"/>
<g id="a_edge4&#45;headlabel"><a xlink:href="dir_000024_000001.html" target="_top" xlink:title="8">
<text text-anchor="middle" x="302.874" y="-48.2876" font-family="Helvetica,sans-Serif" font-size="10.00">8</text>
</a>
</g>
</g>
<!-- dir_51713950be669ec9e238204b37299ca7&#45;&gt;dir_6affbc29315b2bcc3e87f973c15f2971 -->
<g id="edge13" class="edge"><title>dir_51713950be669ec9e238204b37299ca7&#45;&gt;dir_6affbc29315b2bcc3e87f973c15f2971</title>
<path fill="none" stroke="black" d="M237.506,-71.6966C248.463,-62.8807 261.946,-52.0321 273.825,-42.4742"/>
<polygon fill="black" stroke="black" points="276.145,-45.1001 281.742,-36.1043 271.756,-39.6462 276.145,-45.1001"/>
<g id="a_edge13&#45;headlabel"><a xlink:href="dir_000025_000001.html" target="_top" xlink:title="15">
<text text-anchor="middle" x="275.124" y="-47.0655" font-family="Helvetica,sans-Serif" font-size="10.00">15</text>
</a>
</g>
</g>
<!-- dir_fdd4de048863ed7726b7fad341a18267&#45;&gt;dir_a5cff7bee041fe1927995f843ca9c6f9 -->
<g id="edge2" class="edge"><title>dir_fdd4de048863ed7726b7fad341a18267&#45;&gt;dir_a5cff7bee041fe1927995f843ca9c6f9</title>
<path fill="none" stroke="black" d="M94.8496,-108.111C93.732,-118.457 90.9254,-131.936 89,-144 85.7124,-164.599 83.1243,-188.05 80.1101,-205.707"/>
<polygon fill="black" stroke="black" points="76.6063,-205.395 78.1682,-215.874 83.4821,-206.709 76.6063,-205.395"/>
<g id="a_edge2&#45;headlabel"><a xlink:href="dir_000026_000028.html" target="_top" xlink:title="2">
<text text-anchor="middle" x="74.4917" y="-198.832" font-family="Helvetica,sans-Serif" font-size="10.00">2</text>
</a>
</g>
</g>
<!-- dir_fdd4de048863ed7726b7fad341a18267&#45;&gt;dir_6affbc29315b2bcc3e87f973c15f2971 -->
<g id="edge1" class="edge"><title>dir_fdd4de048863ed7726b7fad341a18267&#45;&gt;dir_6affbc29315b2bcc3e87f973c15f2971</title>
<path fill="none" stroke="black" d="M127.299,-71.9721C139.735,-66.4793 153.835,-60.6221 167,-56 199.858,-44.4641 238.215,-34.3193 265.801,-27.5842"/>
<polygon fill="black" stroke="black" points="266.909,-30.9175 275.812,-25.1741 265.271,-24.1119 266.909,-30.9175"/>
<g id="a_edge1&#45;headlabel"><a xlink:href="dir_000026_000001.html" target="_top" xlink:title="9">
<text text-anchor="middle" x="264.079" y="-32.0191" font-family="Helvetica,sans-Serif" font-size="10.00">9</text>
</a>
</g>
</g>
<!-- dir_a5cff7bee041fe1927995f843ca9c6f9&#45;&gt;dir_09cf514cb96a35e65d9646a5360d40b3 -->
<g id="edge11" class="edge"><title>dir_a5cff7bee041fe1927995f843ca9c6f9&#45;&gt;dir_09cf514cb96a35e65d9646a5360d40b3</title>
<path fill="none" stroke="black" d="M105.716,-215.876C125.497,-206.392 150.272,-194.513 171.326,-184.419"/>
<polygon fill="black" stroke="black" points="172.896,-187.548 180.4,-180.068 169.87,-181.236 172.896,-187.548"/>
<g id="a_edge11&#45;headlabel"><a xlink:href="dir_000028_000022.html" target="_top" xlink:title="1">
<text text-anchor="middle" x="170.883" y="-189.162" font-family="Helvetica,sans-Serif" font-size="10.00">1</text>
</a>
</g>
</g>
<!-- dir_a5cff7bee041fe1927995f843ca9c6f9&#45;&gt;dir_677792c6b0af04f6b28184abca97610a -->
<g id="edge10" class="edge"><title>dir_a5cff7bee041fe1927995f843ca9c6f9&#45;&gt;dir_677792c6b0af04f6b28184abca97610a</title>
<path fill="none" stroke="black" d="M76.9382,-215.697C82.3067,-207.305 89.7171,-197.07 97.0399,-187.861"/>
<polygon fill="black" stroke="black" points="99.7658,-190.057 103.399,-180.104 94.3523,-185.619 99.7658,-190.057"/>
<g id="a_edge10&#45;headlabel"><a xlink:href="dir_000028_000024.html" target="_top" xlink:title="1">
<text text-anchor="middle" x="99.6827" y="-192.137" font-family="Helvetica,sans-Serif" font-size="10.00">1</text>
</a>
</g>
</g>
<!-- dir_a5cff7bee041fe1927995f843ca9c6f9&#45;&gt;dir_fdd4de048863ed7726b7fad341a18267 -->
<g id="edge8" class="edge"><title>dir_a5cff7bee041fe1927995f843ca9c6f9&#45;&gt;dir_fdd4de048863ed7726b7fad341a18267</title>
<path fill="none" stroke="black" d="M64.7296,-215.874C64.0801,-197.907 67.0301,-168.874 71,-144 72.3689,-135.423 74.1831,-126.131 76.3661,-117.759"/>
<polygon fill="black" stroke="black" points="79.7395,-118.693 79.2068,-108.111 73.0246,-116.716 79.7395,-118.693"/>
<g id="a_edge8&#45;headlabel"><a xlink:href="dir_000028_000026.html" target="_top" xlink:title="4">
<text text-anchor="middle" x="81.4479" y="-120.443" font-family="Helvetica,sans-Serif" font-size="10.00">4</text>
</a>
</g>
</g>
<!-- dir_a5cff7bee041fe1927995f843ca9c6f9&#45;&gt;dir_6affbc29315b2bcc3e87f973c15f2971 -->
<g id="edge9" class="edge"><title>dir_a5cff7bee041fe1927995f843ca9c6f9&#45;&gt;dir_6affbc29315b2bcc3e87f973c15f2971</title>
<path fill="none" stroke="black" d="M116.405,-218.752C119.648,-217.806 122.87,-216.88 126,-216 187.434,-198.728 212.308,-216 265,-180 297.593,-157.732 304.855,-145.558 317,-108 324.111,-86.0099 321.157,-78.7341 317,-56 316.395,-52.6895 315.508,-49.2908 314.47,-45.9589"/>
<polygon fill="black" stroke="black" points="317.688,-44.562 311.032,-36.3187 311.095,-46.9133 317.688,-44.562"/>
<g id="a_edge9&#45;headlabel"><a xlink:href="dir_000028_000001.html" target="_top" xlink:title="19">
<text text-anchor="middle" x="321.57" y="-44.4941" font-family="Helvetica,sans-Serif" font-size="10.00">19</text>
</a>
</g>
</g>
</g>
</svg>
