<?xml version="1.0" encoding="UTF-8" standalone="no"?>
<!DOCTYPE svg PUBLIC "-//W3C//DTD SVG 1.1//EN"
 "http://www.w3.org/Graphics/SVG/1.1/DTD/svg11.dtd">
<!-- Generated by graphviz version 2.36.0 (20140111.2315)
 -->
<!-- Title: /home/travis/build/ComPWA/ComPWA/executables/test Pages: 1 -->
<svg width="273pt" height="367pt"
 viewBox="0.00 0.00 272.61 367.00" xmlns="http://www.w3.org/2000/svg" xmlns:xlink="http://www.w3.org/1999/xlink">
<g id="graph0" class="graph" transform="scale(1 1) rotate(0) translate(4 363)">
<title>/home/travis/build/ComPWA/ComPWA/executables/test</title>
<polygon fill="white" stroke="none" points="-4,4 -4,-363 268.606,-363 268.606,4 -4,4"/>
<g id="clust1" class="cluster"><title>clusterdir_f8af16d85c17617dacb0f135ccb3a513</title>
<g id="a_clust1"><a xlink:href="dir_f8af16d85c17617dacb0f135ccb3a513.html" target="_top" xlink:title="executables">
<polygon fill="#ddddee" stroke="black" points="160,-280 160,-351 230,-351 230,-280 160,-280"/>
<text text-anchor="middle" x="195" y="-339" font-family="Helvetica,sans-Serif" font-size="10.00">executables</text>
</a>
</g>
</g>
<!-- dir_2a3e7156d79ea9894b3a5716c61cb42e -->
<g id="node1" class="node"><title>dir_2a3e7156d79ea9894b3a5716c61cb42e</title>
<g id="a_node1"><a xlink:href="dir_2a3e7156d79ea9894b3a5716c61cb42e.html" target="_top" xlink:title="test">
<polygon fill="#eeeeff" stroke="black" points="222,-324 168,-324 168,-288 222,-288 222,-324"/>
<text text-anchor="middle" x="195" y="-303.5" font-family="Helvetica,sans-Serif" font-size="10.00">test</text>
</a>
</g>
</g>
<!-- dir_6affbc29315b2bcc3e87f973c15f2971 -->
<g id="node2" class="node"><title>dir_6affbc29315b2bcc3e87f973c15f2971</title>
<g id="a_node2"><a xlink:href="dir_6affbc29315b2bcc3e87f973c15f2971.html" target="_top" xlink:title="Core">
<polygon fill="none" stroke="black" points="155,-252 101,-252 101,-216 155,-216 155,-252"/>
<text text-anchor="middle" x="128" y="-231.5" font-family="Helvetica,sans-Serif" font-size="10.00">Core</text>
</a>
</g>
</g>
<!-- dir_2a3e7156d79ea9894b3a5716c61cb42e&#45;&gt;dir_6affbc29315b2bcc3e87f973c15f2971 -->
<g id="edge11" class="edge"><title>dir_2a3e7156d79ea9894b3a5716c61cb42e&#45;&gt;dir_6affbc29315b2bcc3e87f973c15f2971</title>
<path fill="none" stroke="black" d="M178.438,-287.697C170.325,-279.22 160.412,-268.864 151.529,-259.583"/>
<polygon fill="black" stroke="black" points="153.814,-256.908 144.371,-252.104 148.757,-261.749 153.814,-256.908"/>
<g id="a_edge11&#45;headlabel"><a xlink:href="dir_000017_000001.html" target="_top" xlink:title="32">
<text text-anchor="middle" x="158.351" y="-255.042" font-family="Helvetica,sans-Serif" font-size="10.00">32</text>
</a>
</g>
</g>
<!-- dir_07a2f2f9ac9dcc8572e29d5eac3ef8e4 -->
<g id="node3" class="node"><title>dir_07a2f2f9ac9dcc8572e29d5eac3ef8e4</title>
<g id="a_node3"><a xlink:href="dir_07a2f2f9ac9dcc8572e29d5eac3ef8e4.html" target="_top" xlink:title="DataReader">
<polygon fill="white" stroke="red" points="68.25,-36 -0.25,-36 -0.25,-0 68.25,-0 68.25,-36"/>
<text text-anchor="middle" x="34" y="-15.5" font-family="Helvetica,sans-Serif" font-size="10.00">DataReader</text>
</a>
</g>
</g>
<!-- dir_2a3e7156d79ea9894b3a5716c61cb42e&#45;&gt;dir_07a2f2f9ac9dcc8572e29d5eac3ef8e4 -->
<g id="edge12" class="edge"><title>dir_2a3e7156d79ea9894b3a5716c61cb42e&#45;&gt;dir_07a2f2f9ac9dcc8572e29d5eac3ef8e4</title>
<path fill="none" stroke="black" d="M167.977,-297.632C144.667,-289.931 111.729,-275.611 92,-252 41.5377,-191.607 33.9603,-93.5689 33.4597,-46.2563"/>
<polygon fill="black" stroke="black" points="36.9597,-46.1634 33.4546,-36.1653 29.9597,-46.1671 36.9597,-46.1634"/>
<g id="a_edge12&#45;headlabel"><a xlink:href="dir_000017_000002.html" target="_top" xlink:title="5">
<text text-anchor="middle" x="39.8007" y="-47.2567" font-family="Helvetica,sans-Serif" font-size="10.00">5</text>
</a>
</g>
</g>
<!-- dir_3ed12ba79a1160ca9b085eca52cedfd6 -->
<g id="node4" class="node"><title>dir_3ed12ba79a1160ca9b085eca52cedfd6</title>
<g id="a_node4"><a xlink:href="dir_3ed12ba79a1160ca9b085eca52cedfd6.html" target="_top" xlink:title="Estimator">
<polygon fill="white" stroke="red" points="168.25,-108 109.75,-108 109.75,-72 168.25,-72 168.25,-108"/>
<text text-anchor="middle" x="139" y="-87.5" font-family="Helvetica,sans-Serif" font-size="10.00">Estimator</text>
</a>
</g>
</g>
<!-- dir_2a3e7156d79ea9894b3a5716c61cb42e&#45;&gt;dir_3ed12ba79a1160ca9b085eca52cedfd6 -->
<g id="edge13" class="edge"><title>dir_2a3e7156d79ea9894b3a5716c61cb42e&#45;&gt;dir_3ed12ba79a1160ca9b085eca52cedfd6</title>
<path fill="none" stroke="black" d="M206.763,-287.809C226.26,-256.98 260.524,-191.117 233,-144 221.143,-123.703 198.329,-110.571 178.146,-102.455"/>
<polygon fill="black" stroke="black" points="179.102,-99.0765 168.509,-98.8651 176.658,-105.636 179.102,-99.0765"/>
<g id="a_edge13&#45;headlabel"><a xlink:href="dir_000017_000006.html" target="_top" xlink:title="5">
<text text-anchor="middle" x="183.462" y="-95.1707" font-family="Helvetica,sans-Serif" font-size="10.00">5</text>
</a>
</g>
</g>
<!-- dir_e70d8e706843d7578727bdcd4ddb658f -->
<g id="node5" class="node"><title>dir_e70d8e706843d7578727bdcd4ddb658f</title>
<g id="a_node5"><a xlink:href="dir_e70d8e706843d7578727bdcd4ddb658f.html" target="_top" xlink:title="Optimizer">
<polygon fill="white" stroke="red" points="224.25,-180 165.75,-180 165.75,-144 224.25,-144 224.25,-180"/>
<text text-anchor="middle" x="195" y="-159.5" font-family="Helvetica,sans-Serif" font-size="10.00">Optimizer</text>
</a>
</g>
</g>
<!-- dir_2a3e7156d79ea9894b3a5716c61cb42e&#45;&gt;dir_e70d8e706843d7578727bdcd4ddb658f -->
<g id="edge14" class="edge"><title>dir_2a3e7156d79ea9894b3a5716c61cb42e&#45;&gt;dir_e70d8e706843d7578727bdcd4ddb658f</title>
<path fill="none" stroke="black" d="M195,-287.871C195,-263.67 195,-219.211 195,-190.393"/>
<polygon fill="black" stroke="black" points="198.5,-190.189 195,-180.189 191.5,-190.189 198.5,-190.189"/>
<g id="a_edge14&#45;headlabel"><a xlink:href="dir_000017_000018.html" target="_top" xlink:title="7">
<text text-anchor="middle" x="201.339" y="-191.284" font-family="Helvetica,sans-Serif" font-size="10.00">7</text>
</a>
</g>
</g>
<!-- dir_b3db74a047a522c1bb2757e17a1c93c2 -->
<g id="node6" class="node"><title>dir_b3db74a047a522c1bb2757e17a1c93c2</title>
<g id="a_node6"><a xlink:href="dir_b3db74a047a522c1bb2757e17a1c93c2.html" target="_top" xlink:title="Physics">
<polygon fill="white" stroke="red" points="166,-36 112,-36 112,-0 166,-0 166,-36"/>
<text text-anchor="middle" x="139" y="-15.5" font-family="Helvetica,sans-Serif" font-size="10.00">Physics</text>
</a>
</g>
</g>
<!-- dir_2a3e7156d79ea9894b3a5716c61cb42e&#45;&gt;dir_b3db74a047a522c1bb2757e17a1c93c2 -->
<g id="edge15" class="edge"><title>dir_2a3e7156d79ea9894b3a5716c61cb42e&#45;&gt;dir_b3db74a047a522c1bb2757e17a1c93c2</title>
<path fill="none" stroke="black" d="M217.98,-287.926C228.73,-278.588 240.558,-266.064 247,-252 267.019,-208.293 270.371,-188.826 253,-144 236.579,-101.626 198.364,-64.8109 170.697,-42.3147"/>
<polygon fill="black" stroke="black" points="172.852,-39.5565 162.844,-36.0798 168.5,-45.0388 172.852,-39.5565"/>
<g id="a_edge15&#45;headlabel"><a xlink:href="dir_000017_000021.html" target="_top" xlink:title="7">
<text text-anchor="middle" x="177.433" y="-37.0678" font-family="Helvetica,sans-Serif" font-size="10.00">7</text>
</a>
</g>
</g>
<!-- dir_6affbc29315b2bcc3e87f973c15f2971&#45;&gt;dir_07a2f2f9ac9dcc8572e29d5eac3ef8e4 -->
<g id="edge1" class="edge"><title>dir_6affbc29315b2bcc3e87f973c15f2971&#45;&gt;dir_07a2f2f9ac9dcc8572e29d5eac3ef8e4</title>
<path fill="none" stroke="black" d="M107.818,-215.887C99.7567,-205.766 91.2567,-192.516 85,-180 62.472,-134.933 43.5521,-79.2489 35.8711,-46.5761"/>
<polygon fill="black" stroke="black" points="39.2156,-45.4773 33.7081,-36.4265 32.3694,-46.9364 39.2156,-45.4773"/>
<g id="a_edge1&#45;headlabel"><a xlink:href="dir_000001_000002.html" target="_top" xlink:title="5">
<text text-anchor="middle" x="42.7417" y="-45.9012" font-family="Helvetica,sans-Serif" font-size="10.00">5</text>
</a>
</g>
</g>
<!-- dir_6affbc29315b2bcc3e87f973c15f2971&#45;&gt;dir_3ed12ba79a1160ca9b085eca52cedfd6 -->
<g id="edge2" class="edge"><title>dir_6affbc29315b2bcc3e87f973c15f2971&#45;&gt;dir_3ed12ba79a1160ca9b085eca52cedfd6</title>
<path fill="none" stroke="black" d="M124.742,-215.871C124.059,-191.67 127.211,-147.211 131.419,-118.393"/>
<polygon fill="black" stroke="black" points="134.928,-118.621 133.078,-108.189 128.018,-117.498 134.928,-118.621"/>
<g id="a_edge2&#45;headlabel"><a xlink:href="dir_000001_000006.html" target="_top" xlink:title="2">
<text text-anchor="middle" x="137.154" y="-120.125" font-family="Helvetica,sans-Serif" font-size="10.00">2</text>
</a>
</g>
</g>
<!-- dir_6affbc29315b2bcc3e87f973c15f2971&#45;&gt;dir_e70d8e706843d7578727bdcd4ddb658f -->
<g id="edge3" class="edge"><title>dir_6affbc29315b2bcc3e87f973c15f2971&#45;&gt;dir_e70d8e706843d7578727bdcd4ddb658f</title>
<path fill="none" stroke="black" d="M138.646,-215.697C145.958,-207.135 155.805,-196.656 165.275,-187.304"/>
<polygon fill="black" stroke="black" points="167.97,-189.568 172.734,-180.104 163.108,-184.532 167.97,-189.568"/>
<g id="a_edge3&#45;headlabel"><a xlink:href="dir_000001_000018.html" target="_top" xlink:title="2">
<text text-anchor="middle" x="167.356" y="-191.607" font-family="Helvetica,sans-Serif" font-size="10.00">2</text>
</a>
</g>
</g>
<!-- dir_07a2f2f9ac9dcc8572e29d5eac3ef8e4&#45;&gt;dir_6affbc29315b2bcc3e87f973c15f2971 -->
<g id="edge4" class="edge"><title>dir_07a2f2f9ac9dcc8572e29d5eac3ef8e4&#45;&gt;dir_6affbc29315b2bcc3e87f973c15f2971</title>
<path fill="none" stroke="black" d="M44.5792,-36.4265C57.3207,-66.5236 77.9253,-129.839 103,-180 107.595,-189.192 113.399,-198.779 118.46,-207.232"/>
<polygon fill="black" stroke="black" points="115.471,-209.054 123.568,-215.887 121.5,-205.496 115.471,-209.054"/>
<g id="a_edge4&#45;headlabel"><a xlink:href="dir_000002_000001.html" target="_top" xlink:title="23">
<text text-anchor="middle" x="111.199" y="-204.901" font-family="Helvetica,sans-Serif" font-size="10.00">23</text>
</a>
</g>
</g>
<!-- dir_3ed12ba79a1160ca9b085eca52cedfd6&#45;&gt;dir_6affbc29315b2bcc3e87f973c15f2971 -->
<g id="edge5" class="edge"><title>dir_3ed12ba79a1160ca9b085eca52cedfd6&#45;&gt;dir_6affbc29315b2bcc3e87f973c15f2971</title>
<path fill="none" stroke="black" d="M142.259,-108.189C142.937,-132.424 139.78,-176.888 135.57,-205.679"/>
<polygon fill="black" stroke="black" points="132.064,-205.439 133.911,-215.871 138.973,-206.564 132.064,-205.439"/>
<g id="a_edge5&#45;headlabel"><a xlink:href="dir_000006_000001.html" target="_top" xlink:title="31">
<text text-anchor="middle" x="129.839" y="-198.935" font-family="Helvetica,sans-Serif" font-size="10.00">31</text>
</a>
</g>
</g>
<!-- dir_3ed12ba79a1160ca9b085eca52cedfd6&#45;&gt;dir_07a2f2f9ac9dcc8572e29d5eac3ef8e4 -->
<g id="edge6" class="edge"><title>dir_3ed12ba79a1160ca9b085eca52cedfd6&#45;&gt;dir_07a2f2f9ac9dcc8572e29d5eac3ef8e4</title>
<path fill="none" stroke="black" d="M113.314,-71.8761C99.7125,-62.8083 82.8285,-51.5523 68.1388,-41.7592"/>
<polygon fill="black" stroke="black" points="70.0466,-38.8246 59.7846,-36.1898 66.1637,-44.649 70.0466,-38.8246"/>
<g id="a_edge6&#45;headlabel"><a xlink:href="dir_000006_000002.html" target="_top" xlink:title="4">
<text text-anchor="middle" x="74.6124" y="-35.9561" font-family="Helvetica,sans-Serif" font-size="10.00">4</text>
</a>
</g>
</g>
<!-- dir_3ed12ba79a1160ca9b085eca52cedfd6&#45;&gt;dir_b3db74a047a522c1bb2757e17a1c93c2 -->
<g id="edge7" class="edge"><title>dir_3ed12ba79a1160ca9b085eca52cedfd6&#45;&gt;dir_b3db74a047a522c1bb2757e17a1c93c2</title>
<path fill="none" stroke="black" d="M139,-71.6966C139,-63.9827 139,-54.7125 139,-46.1124"/>
<polygon fill="black" stroke="black" points="142.5,-46.1043 139,-36.1043 135.5,-46.1044 142.5,-46.1043"/>
<g id="a_edge7&#45;headlabel"><a xlink:href="dir_000006_000021.html" target="_top" xlink:title="4">
<text text-anchor="middle" x="145.339" y="-47.199" font-family="Helvetica,sans-Serif" font-size="10.00">4</text>
</a>
</g>
</g>
<!-- dir_e70d8e706843d7578727bdcd4ddb658f&#45;&gt;dir_6affbc29315b2bcc3e87f973c15f2971 -->
<g id="edge8" class="edge"><title>dir_e70d8e706843d7578727bdcd4ddb658f&#45;&gt;dir_6affbc29315b2bcc3e87f973c15f2971</title>
<path fill="none" stroke="black" d="M184.524,-180.104C177.252,-188.636 167.421,-199.108 157.945,-208.478"/>
<polygon fill="black" stroke="black" points="155.235,-206.23 150.478,-215.697 160.1,-211.263 155.235,-206.23"/>
<g id="a_edge8&#45;headlabel"><a xlink:href="dir_000018_000001.html" target="_top" xlink:title="30">
<text text-anchor="middle" x="155.846" y="-199.19" font-family="Helvetica,sans-Serif" font-size="10.00">30</text>
</a>
</g>
</g>
<!-- dir_e70d8e706843d7578727bdcd4ddb658f&#45;&gt;dir_3ed12ba79a1160ca9b085eca52cedfd6 -->
<g id="edge9" class="edge"><title>dir_e70d8e706843d7578727bdcd4ddb658f&#45;&gt;dir_3ed12ba79a1160ca9b085eca52cedfd6</title>
<path fill="none" stroke="black" d="M181.157,-143.697C174.511,-135.389 166.422,-125.277 159.113,-116.141"/>
<polygon fill="black" stroke="black" points="161.664,-113.727 152.683,-108.104 156.197,-118.099 161.664,-113.727"/>
<g id="a_edge9&#45;headlabel"><a xlink:href="dir_000018_000006.html" target="_top" xlink:title="1">
<text text-anchor="middle" x="166.126" y="-112.26" font-family="Helvetica,sans-Serif" font-size="10.00">1</text>
</a>
</g>
</g>
<!-- dir_b3db74a047a522c1bb2757e17a1c93c2&#45;&gt;dir_6affbc29315b2bcc3e87f973c15f2971 -->
<g id="edge10" class="edge"><title>dir_b3db74a047a522c1bb2757e17a1c93c2&#45;&gt;dir_6affbc29315b2bcc3e87f973c15f2971</title>
<path fill="none" stroke="black" d="M122.11,-36.0066C113.707,-45.6854 104.418,-58.5408 100,-72 84.9237,-117.926 102.317,-174.033 115.638,-206.428"/>
<polygon fill="black" stroke="black" points="112.447,-207.868 119.601,-215.683 118.882,-205.112 112.447,-207.868"/>
<g id="a_edge10&#45;headlabel"><a xlink:href="dir_000021_000001.html" target="_top" xlink:title="85">
<text text-anchor="middle" x="108.422" y="-203.181" font-family="Helvetica,sans-Serif" font-size="10.00">85</text>
</a>
</g>
</g>
</g>
</svg>
