<?xml version="1.0" encoding="UTF-8" standalone="no"?>
<!DOCTYPE svg PUBLIC "-//W3C//DTD SVG 1.1//EN"
 "http://www.w3.org/Graphics/SVG/1.1/DTD/svg11.dtd">
<!-- Generated by graphviz version 2.36.0 (20140111.2315)
 -->
<!-- Title: Graphical Class Hierarchy Pages: 1 -->
<svg width="464pt" height="136pt"
 viewBox="0.00 0.00 464.00 136.00" xmlns="http://www.w3.org/2000/svg" xmlns:xlink="http://www.w3.org/1999/xlink">
<g id="graph0" class="graph" transform="scale(1 1) rotate(0) translate(4 132)">
<title>Graphical Class Hierarchy</title>
<polygon fill="white" stroke="none" points="-4,4 -4,-132 460,-132 460,4 -4,4"/>
<!-- Node1 -->
<g id="node1" class="node"><title>Node1</title>
<g id="a_node1"><a xlink:href="d6/d64/classComPWA_1_1Physics_1_1QFT_1_1Tensor__Base.html" target="_top" xlink:title="Base class for all Tensor template classes. ">
<polygon fill="white" stroke="black" points="0,-73 0,-103 128,-103 128,-73 0,-73"/>
<text text-anchor="start" x="8" y="-91" font-family="Helvetica,sans-Serif" font-size="10.00">ComPWA::Physics::QFT</text>
<text text-anchor="middle" x="64" y="-80" font-family="Helvetica,sans-Serif" font-size="10.00">::Tensor_Base</text>
</a>
</g>
</g>
<!-- Node2 -->
<g id="node2" class="node"><title>Node2</title>
<g id="a_node2"><a xlink:href="db/dd4/classComPWA_1_1Physics_1_1QFT_1_1Tensor.html" target="_top" xlink:title="General template class for handling tensors and tensor operations. ">
<polygon fill="white" stroke="black" points="164,-98 164,-128 292,-128 292,-98 164,-98"/>
<text text-anchor="start" x="172" y="-116" font-family="Helvetica,sans-Serif" font-size="10.00">ComPWA::Physics::QFT</text>
<text text-anchor="middle" x="228" y="-105" font-family="Helvetica,sans-Serif" font-size="10.00">::Tensor&lt; _Tp &gt;</text>
</a>
</g>
</g>
<!-- Node1&#45;&gt;Node2 -->
<g id="edge1" class="edge"><title>Node1&#45;&gt;Node2</title>
<path fill="none" stroke="midnightblue" d="M138.094,-99.2799C146.676,-100.604 155.378,-101.947 163.808,-103.248"/>
<polygon fill="midnightblue" stroke="midnightblue" points="138.514,-95.8034 128.097,-97.7372 137.446,-102.722 138.514,-95.8034"/>
</g>
<!-- Node4 -->
<g id="node4" class="node"><title>Node4</title>
<g id="a_node4"><a xlink:href="db/dd4/classComPWA_1_1Physics_1_1QFT_1_1Tensor.html" target="_top" xlink:title="ComPWA::Physics::QFT\l::Tensor\&lt; double \&gt;">
<polygon fill="white" stroke="black" points="164,-49 164,-79 292,-79 292,-49 164,-49"/>
<text text-anchor="start" x="172" y="-67" font-family="Helvetica,sans-Serif" font-size="10.00">ComPWA::Physics::QFT</text>
<text text-anchor="middle" x="228" y="-56" font-family="Helvetica,sans-Serif" font-size="10.00">::Tensor&lt; double &gt;</text>
</a>
</g>
</g>
<!-- Node1&#45;&gt;Node4 -->
<g id="edge3" class="edge"><title>Node1&#45;&gt;Node4</title>
<path fill="none" stroke="midnightblue" d="M138.094,-77.1713C146.676,-75.8999 155.378,-74.6107 163.808,-73.3617"/>
<polygon fill="midnightblue" stroke="midnightblue" points="137.476,-73.7245 128.097,-78.6523 138.502,-80.6489 137.476,-73.7245"/>
</g>
<!-- Node3 -->
<g id="node3" class="node"><title>Node3</title>
<g id="a_node3"><a xlink:href="dd/db8/classComPWA_1_1Physics_1_1QFT_1_1Vector4.html" target="_top" xlink:title=" : 4&#45;vectors and 4&#45;momenta. ">
<polygon fill="white" stroke="black" points="328,-98 328,-128 456,-128 456,-98 328,-98"/>
<text text-anchor="start" x="336" y="-116" font-family="Helvetica,sans-Serif" font-size="10.00">ComPWA::Physics::QFT</text>
<text text-anchor="middle" x="392" y="-105" font-family="Helvetica,sans-Serif" font-size="10.00">::Vector4&lt; _Tp &gt;</text>
</a>
</g>
</g>
<!-- Node2&#45;&gt;Node3 -->
<g id="edge2" class="edge"><title>Node2&#45;&gt;Node3</title>
<path fill="none" stroke="midnightblue" d="M302.374,-113C310.865,-113 319.469,-113 327.808,-113"/>
<polygon fill="midnightblue" stroke="midnightblue" points="302.097,-109.5 292.097,-113 302.097,-116.5 302.097,-109.5"/>
</g>
<!-- Node5 -->
<g id="node5" class="node"><title>Node5</title>
<g id="a_node5"><a xlink:href="d9/d3a/classComPWA_1_1Physics_1_1QFT_1_1LeviCivitaTensor.html" target="_top" xlink:title=" : Totally anti&#45;symmetric Levi&#45;Civita tensor ">
<polygon fill="white" stroke="black" points="328,-49 328,-79 456,-79 456,-49 328,-49"/>
<text text-anchor="start" x="336" y="-67" font-family="Helvetica,sans-Serif" font-size="10.00">ComPWA::Physics::QFT</text>
<text text-anchor="middle" x="392" y="-56" font-family="Helvetica,sans-Serif" font-size="10.00">::LeviCivitaTensor</text>
</a>
</g>
</g>
<!-- Node4&#45;&gt;Node5 -->
<g id="edge4" class="edge"><title>Node4&#45;&gt;Node5</title>
<path fill="none" stroke="midnightblue" d="M302.374,-64C310.865,-64 319.469,-64 327.808,-64"/>
<polygon fill="midnightblue" stroke="midnightblue" points="302.097,-60.5001 292.097,-64 302.097,-67.5001 302.097,-60.5001"/>
</g>
<!-- Node6 -->
<g id="node6" class="node"><title>Node6</title>
<g id="a_node6"><a xlink:href="d8/d4f/classComPWA_1_1Physics_1_1QFT_1_1MetricTensor.html" target="_top" xlink:title=" : The metric tensor for Minkowski space. ">
<polygon fill="white" stroke="black" points="328,-0 328,-30 456,-30 456,-0 328,-0"/>
<text text-anchor="start" x="336" y="-18" font-family="Helvetica,sans-Serif" font-size="10.00">ComPWA::Physics::QFT</text>
<text text-anchor="middle" x="392" y="-7" font-family="Helvetica,sans-Serif" font-size="10.00">::MetricTensor</text>
</a>
</g>
</g>
<!-- Node4&#45;&gt;Node6 -->
<g id="edge5" class="edge"><title>Node4&#45;&gt;Node6</title>
<path fill="none" stroke="midnightblue" d="M288.884,-45.8871C306.106,-40.6778 324.698,-35.0543 341.238,-30.0516"/>
<polygon fill="midnightblue" stroke="midnightblue" points="287.486,-42.6532 278.927,-48.8986 289.512,-49.3534 287.486,-42.6532"/>
</g>
</g>
</svg>
