<?xml version="1.0" encoding="UTF-8" standalone="no"?>
<!DOCTYPE svg PUBLIC "-//W3C//DTD SVG 1.1//EN"
 "http://www.w3.org/Graphics/SVG/1.1/DTD/svg11.dtd">
<!-- Generated by graphviz version 2.36.0 (20140111.2315)
 -->
<!-- Title: Graphical Class Hierarchy Pages: 1 -->
<svg width="402pt" height="136pt"
 viewBox="0.00 0.00 402.00 136.00" xmlns="http://www.w3.org/2000/svg" xmlns:xlink="http://www.w3.org/1999/xlink">
<g id="graph0" class="graph" transform="scale(1 1) rotate(0) translate(4 132)">
<title>Graphical Class Hierarchy</title>
<polygon fill="white" stroke="none" points="-4,4 -4,-132 398,-132 398,4 -4,4"/>
<!-- Node1 -->
<g id="node1" class="node"><title>Node1</title>
<g id="a_node1"><a xlink:href="d3/d36/classComPWA_1_1Physics_1_1HelicityFormalism_1_1AbstractDynamicalFunction.html" target="_top" xlink:title="ComPWA::Physics::Helicity\lFormalism::AbstractDynamicalFunction">
<polygon fill="white" stroke="black" points="0.5,-49 0.5,-79 189.5,-79 189.5,-49 0.5,-49"/>
<text text-anchor="start" x="8.5" y="-67" font-family="Helvetica,sans-Serif" font-size="10.00">ComPWA::Physics::Helicity</text>
<text text-anchor="middle" x="95" y="-56" font-family="Helvetica,sans-Serif" font-size="10.00">Formalism::AbstractDynamicalFunction</text>
</a>
</g>
</g>
<!-- Node2 -->
<g id="node2" class="node"><title>Node2</title>
<g id="a_node2"><a xlink:href="d8/d81/classComPWA_1_1Physics_1_1HelicityFormalism_1_1AmpFlatteRes.html" target="_top" xlink:title="ComPWA::Physics::Helicity\lFormalism::AmpFlatteRes">
<polygon fill="white" stroke="black" points="239.5,-98 239.5,-128 380.5,-128 380.5,-98 239.5,-98"/>
<text text-anchor="start" x="247.5" y="-116" font-family="Helvetica,sans-Serif" font-size="10.00">ComPWA::Physics::Helicity</text>
<text text-anchor="middle" x="310" y="-105" font-family="Helvetica,sans-Serif" font-size="10.00">Formalism::AmpFlatteRes</text>
</a>
</g>
</g>
<!-- Node1&#45;&gt;Node2 -->
<g id="edge1" class="edge"><title>Node1&#45;&gt;Node2</title>
<path fill="none" stroke="midnightblue" d="M171.337,-81.3309C194.985,-86.7712 220.881,-92.7285 243.769,-97.9938"/>
<polygon fill="midnightblue" stroke="midnightblue" points="171.885,-77.8657 161.355,-79.0346 170.315,-84.6875 171.885,-77.8657"/>
</g>
<!-- Node3 -->
<g id="node3" class="node"><title>Node3</title>
<g id="a_node3"><a xlink:href="d9/d94/classComPWA_1_1Physics_1_1HelicityFormalism_1_1NonResonant.html" target="_top" xlink:title="ComPWA::Physics::Helicity\lFormalism::NonResonant">
<polygon fill="white" stroke="black" points="239.5,-49 239.5,-79 380.5,-79 380.5,-49 239.5,-49"/>
<text text-anchor="start" x="247.5" y="-67" font-family="Helvetica,sans-Serif" font-size="10.00">ComPWA::Physics::Helicity</text>
<text text-anchor="middle" x="310" y="-56" font-family="Helvetica,sans-Serif" font-size="10.00">Formalism::NonResonant</text>
</a>
</g>
</g>
<!-- Node1&#45;&gt;Node3 -->
<g id="edge2" class="edge"><title>Node1&#45;&gt;Node3</title>
<path fill="none" stroke="midnightblue" d="M199.907,-64C213.241,-64 226.63,-64 239.236,-64"/>
<polygon fill="midnightblue" stroke="midnightblue" points="199.735,-60.5001 189.735,-64 199.735,-67.5001 199.735,-60.5001"/>
</g>
<!-- Node4 -->
<g id="node4" class="node"><title>Node4</title>
<g id="a_node4"><a xlink:href="d1/d78/classComPWA_1_1Physics_1_1HelicityFormalism_1_1RelativisticBreitWigner.html" target="_top" xlink:title="ComPWA::Physics::Helicity\lFormalism::RelativisticBreitWigner">
<polygon fill="white" stroke="black" points="226,-0 226,-30 394,-30 394,-0 226,-0"/>
<text text-anchor="start" x="234" y="-18" font-family="Helvetica,sans-Serif" font-size="10.00">ComPWA::Physics::Helicity</text>
<text text-anchor="middle" x="310" y="-7" font-family="Helvetica,sans-Serif" font-size="10.00">Formalism::RelativisticBreitWigner</text>
</a>
</g>
</g>
<!-- Node1&#45;&gt;Node4 -->
<g id="edge3" class="edge"><title>Node1&#45;&gt;Node4</title>
<path fill="none" stroke="midnightblue" d="M171.337,-46.6691C194.985,-41.2288 220.881,-35.2715 243.769,-30.0062"/>
<polygon fill="midnightblue" stroke="midnightblue" points="170.315,-43.3125 161.355,-48.9654 171.885,-50.1343 170.315,-43.3125"/>
</g>
</g>
</svg>
