<?xml version="1.0" encoding="UTF-8" standalone="no"?>
<!DOCTYPE svg PUBLIC "-//W3C//DTD SVG 1.1//EN"
 "http://www.w3.org/Graphics/SVG/1.1/DTD/svg11.dtd">
<!-- Generated by graphviz version 2.36.0 (20140111.2315)
 -->
<!-- Title: Graphical Class Hierarchy Pages: 1 -->
<svg width="438pt" height="77pt"
 viewBox="0.00 0.00 438.00 77.00" xmlns="http://www.w3.org/2000/svg" xmlns:xlink="http://www.w3.org/1999/xlink">
<g id="graph0" class="graph" transform="scale(1 1) rotate(0) translate(4 73)">
<title>Graphical Class Hierarchy</title>
<polygon fill="white" stroke="none" points="-4,4 -4,-73 434,-73 434,4 -4,4"/>
<!-- Node1 -->
<g id="node1" class="node"><title>Node1</title>
<g id="a_node1"><a xlink:href="d7/d11/classComPWA_1_1Efficiency.html" target="_top" xlink:title="ComPWA::Efficiency">
<polygon fill="white" stroke="black" points="0,-22.5 0,-41.5 110,-41.5 110,-22.5 0,-22.5"/>
<text text-anchor="middle" x="55" y="-29.5" font-family="Helvetica,sans-Serif" font-size="10.00">ComPWA::Efficiency</text>
</a>
</g>
</g>
<!-- Node2 -->
<g id="node2" class="node"><title>Node2</title>
<g id="a_node2"><a xlink:href="df/d4c/classComPWA_1_1DataReader_1_1RootEfficiency.html" target="_top" xlink:title="Efficiency provided by a histogram. ">
<polygon fill="white" stroke="black" points="150.5,-39 150.5,-69 269.5,-69 269.5,-39 150.5,-39"/>
<text text-anchor="start" x="158.5" y="-57" font-family="Helvetica,sans-Serif" font-size="10.00">ComPWA::DataReader</text>
<text text-anchor="middle" x="210" y="-46" font-family="Helvetica,sans-Serif" font-size="10.00">::RootEfficiency</text>
</a>
</g>
</g>
<!-- Node1&#45;&gt;Node2 -->
<g id="edge1" class="edge"><title>Node1&#45;&gt;Node2</title>
<path fill="none" stroke="midnightblue" d="M120.561,-41.2832C130.459,-42.7065 140.631,-44.1692 150.391,-45.5726"/>
<polygon fill="midnightblue" stroke="midnightblue" points="120.769,-37.7773 110.373,-39.8183 119.773,-44.706 120.769,-37.7773"/>
</g>
<!-- Node4 -->
<g id="node4" class="node"><title>Node4</title>
<g id="a_node4"><a xlink:href="df/dce/classComPWA_1_1UnitEfficiency.html" target="_top" xlink:title="implementation of virtual class efficiency. ">
<polygon fill="white" stroke="black" points="146,-0.5 146,-19.5 274,-19.5 274,-0.5 146,-0.5"/>
<text text-anchor="middle" x="210" y="-7.5" font-family="Helvetica,sans-Serif" font-size="10.00">ComPWA::UnitEfficiency</text>
</a>
</g>
</g>
<!-- Node1&#45;&gt;Node4 -->
<g id="edge3" class="edge"><title>Node1&#45;&gt;Node4</title>
<path fill="none" stroke="midnightblue" d="M120.509,-22.7242C128.922,-21.5145 137.534,-20.2761 145.924,-19.0698"/>
<polygon fill="midnightblue" stroke="midnightblue" points="119.773,-19.294 110.373,-24.1817 120.769,-26.2227 119.773,-19.294"/>
</g>
<!-- Node3 -->
<g id="node3" class="node"><title>Node3</title>
<g id="a_node3"><a xlink:href="de/dfc/classComPWA_1_1DataReader_1_1RootAngleEfficiency.html" target="_top" xlink:title="Uses also TEfficiency object, but the variables are one invariant mass and the corresponding helicity...">
<polygon fill="white" stroke="black" points="310.5,-39 310.5,-69 429.5,-69 429.5,-39 310.5,-39"/>
<text text-anchor="start" x="318.5" y="-57" font-family="Helvetica,sans-Serif" font-size="10.00">ComPWA::DataReader</text>
<text text-anchor="middle" x="370" y="-46" font-family="Helvetica,sans-Serif" font-size="10.00">::RootAngleEfficiency</text>
</a>
</g>
</g>
<!-- Node2&#45;&gt;Node3 -->
<g id="edge2" class="edge"><title>Node2&#45;&gt;Node3</title>
<path fill="none" stroke="midnightblue" d="M279.896,-54C290.06,-54 300.451,-54 310.381,-54"/>
<polygon fill="midnightblue" stroke="midnightblue" points="279.833,-50.5001 269.833,-54 279.833,-57.5001 279.833,-50.5001"/>
</g>
</g>
</svg>
