<?xml version="1.0" encoding="UTF-8" standalone="no"?>
<!DOCTYPE svg PUBLIC "-//W3C//DTD SVG 1.1//EN"
 "http://www.w3.org/Graphics/SVG/1.1/DTD/svg11.dtd">
<!-- Generated by graphviz version 2.36.0 (20140111.2315)
 -->
<!-- Title: Graphical Class Hierarchy Pages: 1 -->
<svg width="296pt" height="185pt"
 viewBox="0.00 0.00 296.00 185.00" xmlns="http://www.w3.org/2000/svg" xmlns:xlink="http://www.w3.org/1999/xlink">
<g id="graph0" class="graph" transform="scale(1 1) rotate(0) translate(4 181)">
<title>Graphical Class Hierarchy</title>
<polygon fill="white" stroke="none" points="-4,4 -4,-181 292,-181 292,4 -4,4"/>
<!-- Node1 -->
<g id="node1" class="node"><title>Node1</title>
<polygon fill="white" stroke="#bfbfbf" points="0,-78.5 0,-97.5 62,-97.5 62,-78.5 0,-78.5"/>
<text text-anchor="middle" x="31" y="-85.5" font-family="Helvetica,sans-Serif" font-size="10.00">dfs_visitor</text>
</g>
<!-- Node2 -->
<g id="node2" class="node"><title>Node2</title>
<g id="a_node2"><a xlink:href="dc/d77/structComPWA_1_1Physics_1_1DecayTree_1_1DecayTree_1_1ConnectedVertexDetector.html" target="_top" xlink:title="ComPWA::Physics::DecayTree\l::DecayTree::ConnectedVertexDetector">
<polygon fill="white" stroke="black" points="98,-147 98,-177 288,-177 288,-147 98,-147"/>
<text text-anchor="start" x="106" y="-165" font-family="Helvetica,sans-Serif" font-size="10.00">ComPWA::Physics::DecayTree</text>
<text text-anchor="middle" x="193" y="-154" font-family="Helvetica,sans-Serif" font-size="10.00">::DecayTree::ConnectedVertexDetector</text>
</a>
</g>
</g>
<!-- Node1&#45;&gt;Node2 -->
<g id="edge1" class="edge"><title>Node1&#45;&gt;Node2</title>
<path fill="none" stroke="midnightblue" d="M50.2475,-104.532C62.8544,-115.17 80.4533,-128.539 98,-137 105.91,-140.814 114.484,-144.11 123.128,-146.941"/>
<polygon fill="midnightblue" stroke="midnightblue" points="52.2241,-101.613 42.3792,-97.6981 47.6337,-106.898 52.2241,-101.613"/>
</g>
<!-- Node3 -->
<g id="node3" class="node"><title>Node3</title>
<g id="a_node3"><a xlink:href="d1/d1c/structComPWA_1_1Physics_1_1DecayTree_1_1DecayTree_1_1CycleDetector.html" target="_top" xlink:title="ComPWA::Physics::DecayTree\l::DecayTree::CycleDetector">
<polygon fill="white" stroke="black" points="115,-98 115,-128 271,-128 271,-98 115,-98"/>
<text text-anchor="start" x="123" y="-116" font-family="Helvetica,sans-Serif" font-size="10.00">ComPWA::Physics::DecayTree</text>
<text text-anchor="middle" x="193" y="-105" font-family="Helvetica,sans-Serif" font-size="10.00">::DecayTree::CycleDetector</text>
</a>
</g>
</g>
<!-- Node1&#45;&gt;Node3 -->
<g id="edge2" class="edge"><title>Node1&#45;&gt;Node3</title>
<path fill="none" stroke="midnightblue" d="M72.0875,-94.2637C85.1022,-96.2972 100.012,-98.6268 114.794,-100.937"/>
<polygon fill="midnightblue" stroke="midnightblue" points="72.5152,-90.7881 62.0948,-92.7023 71.4345,-97.7042 72.5152,-90.7881"/>
</g>
<!-- Node4 -->
<g id="node4" class="node"><title>Node4</title>
<g id="a_node4"><a xlink:href="dc/dcc/structComPWA_1_1Physics_1_1DecayTree_1_1DecayTree_1_1GetAscendingVertexList.html" target="_top" xlink:title="ComPWA::Physics::DecayTree\l::DecayTree::GetAscendingVertexList">
<polygon fill="white" stroke="black" points="102,-49 102,-79 284,-79 284,-49 102,-49"/>
<text text-anchor="start" x="110" y="-67" font-family="Helvetica,sans-Serif" font-size="10.00">ComPWA::Physics::DecayTree</text>
<text text-anchor="middle" x="193" y="-56" font-family="Helvetica,sans-Serif" font-size="10.00">::DecayTree::GetAscendingVertexList</text>
</a>
</g>
</g>
<!-- Node1&#45;&gt;Node4 -->
<g id="edge3" class="edge"><title>Node1&#45;&gt;Node4</title>
<path fill="none" stroke="midnightblue" d="M72.0828,-81.9876C81.323,-80.6015 91.5185,-79.0722 101.946,-77.5082"/>
<polygon fill="midnightblue" stroke="midnightblue" points="71.4649,-78.541 62.0948,-83.4858 72.5034,-85.4636 71.4649,-78.541"/>
</g>
<!-- Node5 -->
<g id="node5" class="node"><title>Node5</title>
<g id="a_node5"><a xlink:href="d9/dae/structComPWA_1_1Physics_1_1DecayTree_1_1DecayTree_1_1GetVertexDecendants.html" target="_top" xlink:title="ComPWA::Physics::DecayTree\l::DecayTree::GetVertexDecendants">
<polygon fill="white" stroke="black" points="106.5,-0 106.5,-30 279.5,-30 279.5,-0 106.5,-0"/>
<text text-anchor="start" x="114.5" y="-18" font-family="Helvetica,sans-Serif" font-size="10.00">ComPWA::Physics::DecayTree</text>
<text text-anchor="middle" x="193" y="-7" font-family="Helvetica,sans-Serif" font-size="10.00">::DecayTree::GetVertexDecendants</text>
</a>
</g>
</g>
<!-- Node1&#45;&gt;Node5 -->
<g id="edge4" class="edge"><title>Node1&#45;&gt;Node5</title>
<path fill="none" stroke="midnightblue" d="M50.7565,-71.4488C63.3531,-61.0973 80.7465,-48.2149 98,-40 105.928,-36.2251 114.514,-32.9523 123.163,-30.1333"/>
<polygon fill="midnightblue" stroke="midnightblue" points="48.2396,-68.9934 42.8627,-78.1224 52.759,-74.339 48.2396,-68.9934"/>
</g>
</g>
</svg>
