<?xml version="1.0" encoding="UTF-8" standalone="no"?>
<!DOCTYPE svg PUBLIC "-//W3C//DTD SVG 1.1//EN"
 "http://www.w3.org/Graphics/SVG/1.1/DTD/svg11.dtd">
<!-- Generated by graphviz version 2.36.0 (20140111.2315)
 -->
<!-- Title: Graphical Class Hierarchy Pages: 1 -->
<svg width="280pt" height="66pt"
 viewBox="0.00 0.00 280.00 66.00" xmlns="http://www.w3.org/2000/svg" xmlns:xlink="http://www.w3.org/1999/xlink">
<g id="graph0" class="graph" transform="scale(1 1) rotate(0) translate(4 62)">
<title>Graphical Class Hierarchy</title>
<polygon fill="white" stroke="none" points="-4,4 -4,-62 276,-62 276,4 -4,4"/>
<!-- Node1 -->
<g id="node1" class="node"><title>Node1</title>
<polygon fill="white" stroke="#bfbfbf" points="0.5,-38.5 0.5,-57.5 125.5,-57.5 125.5,-38.5 0.5,-38.5"/>
<text text-anchor="middle" x="63" y="-45.5" font-family="Helvetica,sans-Serif" font-size="10.00">enable_shared_from_this</text>
</g>
<!-- Node2 -->
<g id="node2" class="node"><title>Node2</title>
<g id="a_node2"><a xlink:href="da/da8/classComPWA_1_1TreeNode.html" target="_top" xlink:title="ComPWA::TreeNode">
<polygon fill="white" stroke="black" points="162,-19.5 162,-38.5 272,-38.5 272,-19.5 162,-19.5"/>
<text text-anchor="middle" x="217" y="-26.5" font-family="Helvetica,sans-Serif" font-size="10.00">ComPWA::TreeNode</text>
</a>
</g>
</g>
<!-- Node1&#45;&gt;Node2 -->
<g id="edge1" class="edge"><title>Node1&#45;&gt;Node2</title>
<path fill="none" stroke="midnightblue" d="M135.897,-39.0129C144.527,-37.9341 153.229,-36.8464 161.554,-35.8058"/>
<polygon fill="midnightblue" stroke="midnightblue" points="135.313,-35.5586 125.824,-40.272 136.181,-42.5045 135.313,-35.5586"/>
</g>
<!-- Node3 -->
<g id="node3" class="node"><title>Node3</title>
<g id="a_node3"><a xlink:href="d7/d61/classComPWA_1_1ParObserver.html" target="_top" xlink:title="ComPWA::ParObserver">
<polygon fill="white" stroke="black" points="2,-0.5 2,-19.5 124,-19.5 124,-0.5 2,-0.5"/>
<text text-anchor="middle" x="63" y="-7.5" font-family="Helvetica,sans-Serif" font-size="10.00">ComPWA::ParObserver</text>
</a>
</g>
</g>
<!-- Node3&#45;&gt;Node2 -->
<g id="edge2" class="edge"><title>Node3&#45;&gt;Node2</title>
<path fill="none" stroke="midnightblue" d="M134.093,-18.7616C143.393,-19.9242 152.812,-21.1015 161.788,-22.2235"/>
<polygon fill="midnightblue" stroke="midnightblue" points="134.431,-15.2768 124.074,-17.5093 133.563,-22.2227 134.431,-15.2768"/>
</g>
</g>
</svg>
