<?xml version="1.0" encoding="UTF-8" standalone="no"?>
<!DOCTYPE svg PUBLIC "-//W3C//DTD SVG 1.1//EN"
 "http://www.w3.org/Graphics/SVG/1.1/DTD/svg11.dtd">
<!-- Generated by graphviz version 2.26.3 (20100126.1600)
 -->
<!-- Title: G Pages: 1 -->
<svg width="212pt" height="776pt"
 viewBox="0.00 0.00 212.00 776.00" xmlns="http://www.w3.org/2000/svg" xmlns:xlink="http://www.w3.org/1999/xlink">
<g id="graph1" class="graph" transform="scale(1 1) rotate(0) translate(4 772)">
<title>G</title>
<polygon fill="white" stroke="white" points="-4,5 -4,-772 209,-772 209,5 -4,5"/>
<!-- Node1 -->
<g id="node1" class="node"><title>Node1</title>
<polygon fill="#bfbfbf" stroke="black" points="23.5,-0.5 23.5,-141.5 130.5,-141.5 130.5,-0.5 23.5,-0.5"/>
<text text-anchor="middle" x="77" y="-128.5" font-family="Helvetica,sans-Serif" font-size="10.00">AmplitudeSetup</text>
<polyline fill="none" stroke="black" points="23.5,-120.5 130.5,-120.5 "/>
<text text-anchor="start" x="31.5" y="-107.5" font-family="Helvetica,sans-Serif" font-size="10.00">&#45; m_file</text>
<text text-anchor="start" x="31.5" y="-94.5" font-family="Helvetica,sans-Serif" font-size="10.00">&#45; m_resonances</text>
<polyline fill="none" stroke="black" points="23.5,-86.5 130.5,-86.5 "/>
<text text-anchor="start" x="31.5" y="-73.5" font-family="Helvetica,sans-Serif" font-size="10.00">+ AmplitudeSetup()</text>
<text text-anchor="start" x="31.5" y="-60.5" font-family="Helvetica,sans-Serif" font-size="10.00">+ load()</text>
<text text-anchor="start" x="31.5" y="-47.5" font-family="Helvetica,sans-Serif" font-size="10.00">+ save()</text>
<text text-anchor="start" x="31.5" y="-34.5" font-family="Helvetica,sans-Serif" font-size="10.00">+ ~AmplitudeSetup()</text>
<text text-anchor="start" x="31.5" y="-21.5" font-family="Helvetica,sans-Serif" font-size="10.00">+ getFileName()</text>
<text text-anchor="start" x="31.5" y="-8.5" font-family="Helvetica,sans-Serif" font-size="10.00">+ getResonances()</text>
</g>
<!-- Node2 -->
<g id="node2" class="node"><title>Node2</title>
<a xlink:title="STL class.">
<polygon fill="white" stroke="#bfbfbf" points="32,-602.5 32,-665.5 92,-665.5 92,-602.5 32,-602.5"/>
<text text-anchor="middle" x="62" y="-652.5" font-family="Helvetica,sans-Serif" font-size="10.00">std::string</text>
<polyline fill="none" stroke="#bfbfbf" points="32,-644.5 92,-644.5 "/>
<text text-anchor="middle" x="62" y="-631.5" font-family="Helvetica,sans-Serif" font-size="10.00"> </text>
<polyline fill="none" stroke="#bfbfbf" points="32,-623.5 92,-623.5 "/>
<text text-anchor="middle" x="62" y="-610.5" font-family="Helvetica,sans-Serif" font-size="10.00"> </text>
</a>
</g>
<!-- Node2&#45;&gt;Node1 -->
<g id="edge2" class="edge"><title>Node2&#45;&gt;Node1</title>
<path fill="none" stroke="#9a32cd" stroke-dasharray="5,2" d="M60.9977,-591.902C59.4117,-513.267 57.242,-338.743 65,-192 65.8637,-175.663 67.3043,-158.128 68.8932,-141.617"/>
<polygon fill="#9a32cd" stroke="#9a32cd" points="61.2165,-602.349 56.508,-592.445 61.1118,-597.35 61.007,-592.351 61.007,-592.351 61.007,-592.351 61.1118,-597.35 65.506,-592.257 61.2165,-602.349 61.2165,-602.349"/>
<text text-anchor="middle" x="75.5" y="-278.5" font-family="Helvetica,sans-Serif" font-size="10.00">m_file</text>
</g>
<!-- Node5 -->
<g id="node8" class="node"><title>Node5</title>
<a xlink:href="../../d6/d5b/structResonance.xhtml" target="_top" xlink:title="{Resonance\n|+ m_name\l+ m_mass\l+ m_mass_min\l+ m_mass_max\l+ m_breakup_mom\l+ m_width\l+ m_width_min\l+ m_width_max\l+ m_strength\l+ m_phase\l+ m_spin\l+ m_m\l+ m_n\l+ m_daugtherA\l+ m_daugtherB\l|}">
<polygon fill="white" stroke="black" points="80.5,-306.5 80.5,-551.5 181.5,-551.5 181.5,-306.5 80.5,-306.5"/>
<text text-anchor="middle" x="131" y="-538.5" font-family="Helvetica,sans-Serif" font-size="10.00">Resonance</text>
<polyline fill="none" stroke="black" points="80.5,-530.5 181.5,-530.5 "/>
<text text-anchor="start" x="88.5" y="-517.5" font-family="Helvetica,sans-Serif" font-size="10.00">+ m_name</text>
<text text-anchor="start" x="88.5" y="-504.5" font-family="Helvetica,sans-Serif" font-size="10.00">+ m_mass</text>
<text text-anchor="start" x="88.5" y="-491.5" font-family="Helvetica,sans-Serif" font-size="10.00">+ m_mass_min</text>
<text text-anchor="start" x="88.5" y="-478.5" font-family="Helvetica,sans-Serif" font-size="10.00">+ m_mass_max</text>
<text text-anchor="start" x="88.5" y="-465.5" font-family="Helvetica,sans-Serif" font-size="10.00">+ m_breakup_mom</text>
<text text-anchor="start" x="88.5" y="-452.5" font-family="Helvetica,sans-Serif" font-size="10.00">+ m_width</text>
<text text-anchor="start" x="88.5" y="-439.5" font-family="Helvetica,sans-Serif" font-size="10.00">+ m_width_min</text>
<text text-anchor="start" x="88.5" y="-426.5" font-family="Helvetica,sans-Serif" font-size="10.00">+ m_width_max</text>
<text text-anchor="start" x="88.5" y="-413.5" font-family="Helvetica,sans-Serif" font-size="10.00">+ m_strength</text>
<text text-anchor="start" x="88.5" y="-400.5" font-family="Helvetica,sans-Serif" font-size="10.00">+ m_phase</text>
<text text-anchor="start" x="88.5" y="-387.5" font-family="Helvetica,sans-Serif" font-size="10.00">+ m_spin</text>
<text text-anchor="start" x="88.5" y="-374.5" font-family="Helvetica,sans-Serif" font-size="10.00">+ m_m</text>
<text text-anchor="start" x="88.5" y="-361.5" font-family="Helvetica,sans-Serif" font-size="10.00">+ m_n</text>
<text text-anchor="start" x="88.5" y="-348.5" font-family="Helvetica,sans-Serif" font-size="10.00">+ m_daugtherA</text>
<text text-anchor="start" x="88.5" y="-335.5" font-family="Helvetica,sans-Serif" font-size="10.00">+ m_daugtherB</text>
<polyline fill="none" stroke="black" points="80.5,-327.5 181.5,-327.5 "/>
<text text-anchor="middle" x="131" y="-314.5" font-family="Helvetica,sans-Serif" font-size="10.00"> </text>
</a>
</g>
<!-- Node2&#45;&gt;Node5 -->
<g id="edge10" class="edge"><title>Node2&#45;&gt;Node5</title>
<path fill="none" stroke="#9a32cd" stroke-dasharray="5,2" d="M75.8212,-592.937C79.9807,-580.579 84.7757,-566.333 89.7663,-551.506"/>
<polygon fill="#9a32cd" stroke="#9a32cd" points="72.63,-602.418 71.5552,-591.505 74.2251,-597.679 75.8201,-592.94 75.8201,-592.94 75.8201,-592.94 74.2251,-597.679 80.085,-594.376 72.63,-602.418 72.63,-602.418"/>
<text text-anchor="middle" x="101" y="-574.5" font-family="Helvetica,sans-Serif" font-size="10.00">m_name</text>
</g>
<!-- Node3 -->
<g id="node4" class="node"><title>Node3</title>
<a xlink:title="STL class.">
<polygon fill="white" stroke="#bfbfbf" points="-0.5,-704.5 -0.5,-767.5 124.5,-767.5 124.5,-704.5 -0.5,-704.5"/>
<text text-anchor="middle" x="62" y="-754.5" font-family="Helvetica,sans-Serif" font-size="10.00">std::basic_string&lt; char &gt;</text>
<polyline fill="none" stroke="#bfbfbf" points="-0.5,-746.5 124.5,-746.5 "/>
<text text-anchor="middle" x="62" y="-733.5" font-family="Helvetica,sans-Serif" font-size="10.00"> </text>
<polyline fill="none" stroke="#bfbfbf" points="-0.5,-725.5 124.5,-725.5 "/>
<text text-anchor="middle" x="62" y="-712.5" font-family="Helvetica,sans-Serif" font-size="10.00"> </text>
</a>
</g>
<!-- Node3&#45;&gt;Node2 -->
<g id="edge4" class="edge"><title>Node3&#45;&gt;Node2</title>
<path fill="none" stroke="midnightblue" d="M62,-694.194C62,-684.674 62,-674.712 62,-665.695"/>
<polygon fill="none" stroke="midnightblue" points="58.5001,-694.286 62,-704.286 65.5001,-694.286 58.5001,-694.286"/>
</g>
<!-- Node4 -->
<g id="node6" class="node"><title>Node4</title>
<polygon fill="white" stroke="#bfbfbf" points="73.5,-192.5 73.5,-255.5 204.5,-255.5 204.5,-192.5 73.5,-192.5"/>
<text text-anchor="middle" x="139" y="-242.5" font-family="Helvetica,sans-Serif" font-size="10.00">std::vector&lt; Resonance &gt;</text>
<polyline fill="none" stroke="#bfbfbf" points="73.5,-234.5 204.5,-234.5 "/>
<text text-anchor="start" x="81.5" y="-221.5" font-family="Helvetica,sans-Serif" font-size="10.00">&#45; elements</text>
<polyline fill="none" stroke="#bfbfbf" points="73.5,-213.5 204.5,-213.5 "/>
<text text-anchor="middle" x="139" y="-200.5" font-family="Helvetica,sans-Serif" font-size="10.00"> </text>
</g>
<!-- Node4&#45;&gt;Node1 -->
<g id="edge6" class="edge"><title>Node4&#45;&gt;Node1</title>
<path fill="none" stroke="#9a32cd" stroke-dasharray="5,2" d="M122.364,-182.948C117.22,-170.251 111.397,-155.883 105.68,-141.776"/>
<polygon fill="#9a32cd" stroke="#9a32cd" points="126.154,-192.298 118.227,-184.72 124.276,-187.664 122.398,-183.03 122.398,-183.03 122.398,-183.03 124.276,-187.664 126.568,-181.34 126.154,-192.298 126.154,-192.298"/>
<text text-anchor="middle" x="149" y="-164.5" font-family="Helvetica,sans-Serif" font-size="10.00">m_resonances</text>
</g>
<!-- Node5&#45;&gt;Node4 -->
<g id="edge8" class="edge"><title>Node5&#45;&gt;Node4</title>
<path fill="none" stroke="#9a32cd" stroke-dasharray="5,2" d="M136.172,-296.46C136.761,-281.375 137.313,-267.242 137.769,-255.535"/>
<polygon fill="#9a32cd" stroke="#9a32cd" points="135.781,-306.495 131.674,-296.327 135.976,-301.499 136.171,-296.503 136.171,-296.503 136.171,-296.503 135.976,-301.499 140.667,-296.678 135.781,-306.495 135.781,-306.495"/>
<text text-anchor="middle" x="156" y="-278.5" font-family="Helvetica,sans-Serif" font-size="10.00">elements</text>
</g>
</g>
</svg>
