<?xml version="1.0" encoding="UTF-8" standalone="no"?>
<!DOCTYPE svg PUBLIC "-//W3C//DTD SVG 1.1//EN"
 "http://www.w3.org/Graphics/SVG/1.1/DTD/svg11.dtd">
<!-- Generated by graphviz version 2.36.0 (20140111.2315)
 -->
<!-- Title: /home/travis/build/ComPWA/ComPWA/Tools/FitFractions.hpp Pages: 1 -->
<!--zoomable 218 -->
<svg id="main" version="1.1" xmlns="http://www.w3.org/2000/svg" xmlns:xlink="http://www.w3.org/1999/xlink" xml:space="preserve" onload="init(evt)">
<style type="text/css"><![CDATA[
.edge:hover path { stroke: red; }
.edge:hover polygon { stroke: red; fill: red; }
]]></style>
<script type="text/javascript"><![CDATA[
var edges = document.getElementsByTagName('g');
if (edges && edges.length) {
  for (var i=0;i<edges.length;i++) {
    if (edges[i].id.substr(0,4)=='edge') {
      edges[i].setAttribute('class','edge');
    }
  }
}
]]></script>
        <defs>
                <circle id="rim" cx="0" cy="0" r="7"/>
                <circle id="rim2" cx="0" cy="0" r="3.5"/>
                <g id="zoomPlus">
                        <use xlink:href="#rim" fill="#404040">
                                <set attributeName="fill" to="#808080" begin="zoomplus.mouseover" end="zoomplus.mouseout"/>
                        </use>
                        <path d="M-4,0h8M0,-4v8" fill="none" stroke="white" stroke-width="1.5" pointer-events="none"/>
                </g>
                <g id="zoomMin">
                        <use xlink:href="#rim" fill="#404040">
                                <set attributeName="fill" to="#808080" begin="zoomminus.mouseover" end="zoomminus.mouseout"/>
                        </use>
                        <path d="M-4,0h8" fill="none" stroke="white" stroke-width="1.5" pointer-events="none"/>
                </g>
                <g id="dirArrow">
                        <path fill="none" stroke="white" stroke-width="1.5" d="M0,-3.0v7 M-2.5,-0.5L0,-3.0L2.5,-0.5"/>
                </g>
               <g id="resetDef">
                       <use xlink:href="#rim2" fill="#404040">
                               <set attributeName="fill" to="#808080" begin="reset.mouseover" end="reset.mouseout"/>
                       </use>
               </g>
        </defs>

<script type="text/javascript">
var viewWidth = 1134;
var viewHeight = 218;
var sectionId = 'dynsection-0';
</script>
<script xlink:href="../../svgpan.js"/>
<svg id="graph" class="graph">
<g id="viewport">
<title>/home/travis/build/ComPWA/ComPWA/Tools/FitFractions.hpp</title>
<polygon fill="white" stroke="none" points="-4,4 -4,-214 1130,-214 1130,4 -4,4"/>
<!-- Node1 -->
<g id="node1" class="node"><title>Node1</title>
<polygon fill="#bfbfbf" stroke="black" points="480,-168.5 480,-209.5 618,-209.5 618,-168.5 480,-168.5"/>
<text text-anchor="start" x="488" y="-197.5" font-family="Helvetica,sans-Serif" font-size="10.00">/home/travis/build</text>
<text text-anchor="start" x="488" y="-186.5" font-family="Helvetica,sans-Serif" font-size="10.00">/ComPWA/ComPWA/Tools</text>
<text text-anchor="middle" x="549" y="-175.5" font-family="Helvetica,sans-Serif" font-size="10.00">/FitFractions.hpp</text>
</g>
<!-- Node2 -->
<g id="node2" class="node"><title>Node2</title>
<polygon fill="white" stroke="#bfbfbf" points="0,-0.5 0,-19.5 52,-19.5 52,-0.5 0,-0.5"/>
<text text-anchor="middle" x="26" y="-7.5" font-family="Helvetica,sans-Serif" font-size="10.00">memory</text>
</g>
<!-- Node1&#45;&gt;Node2 -->
<g id="edge1" class="edge"><title>Node1&#45;&gt;Node2</title>
<path fill="none" stroke="midnightblue" d="M479.86,-186.26C367.892,-182.352 152.872,-169.997 88,-132 50.7656,-110.191 35.093,-57.8256 29.175,-29.6667"/>
<polygon fill="midnightblue" stroke="midnightblue" points="32.558,-28.7208 27.2536,-19.5494 25.6809,-30.0269 32.558,-28.7208"/>
</g>
<!-- Node3 -->
<g id="node3" class="node"><title>Node3</title>
<polygon fill="white" stroke="#bfbfbf" points="85,-0.5 85,-19.5 129,-19.5 129,-0.5 85,-0.5"/>
<text text-anchor="middle" x="107" y="-7.5" font-family="Helvetica,sans-Serif" font-size="10.00">vector</text>
</g>
<!-- Node1&#45;&gt;Node3 -->
<g id="edge2" class="edge"><title>Node1&#45;&gt;Node3</title>
<path fill="none" stroke="midnightblue" d="M479.882,-185.409C400.422,-180.774 266.937,-167.871 158,-132 108.137,-115.581 80.9198,-121.07 54,-76 42.6556,-57.0071 63.4464,-37.6628 82.2235,-25.0744"/>
<polygon fill="midnightblue" stroke="midnightblue" points="84.2657,-27.9245 90.8576,-19.6301 80.532,-22.0033 84.2657,-27.9245"/>
</g>
<!-- Node4 -->
<g id="node4" class="node"><title>Node4</title>
<polygon fill="white" stroke="#bfbfbf" points="293,-112.5 293,-131.5 365,-131.5 365,-112.5 293,-112.5"/>
<text text-anchor="middle" x="329" y="-119.5" font-family="Helvetica,sans-Serif" font-size="10.00">gsl/gsl_rng.h</text>
</g>
<!-- Node1&#45;&gt;Node4 -->
<g id="edge3" class="edge"><title>Node1&#45;&gt;Node4</title>
<path fill="none" stroke="midnightblue" d="M482.993,-168.498C445.419,-157.396 399.645,-143.872 367.813,-134.468"/>
<polygon fill="midnightblue" stroke="midnightblue" points="368.578,-131.044 357.996,-131.567 366.595,-137.757 368.578,-131.044"/>
</g>
<!-- Node5 -->
<g id="node5" class="node"><title>Node5</title>
<polygon fill="white" stroke="#bfbfbf" points="383,-112.5 383,-131.5 487,-131.5 487,-112.5 383,-112.5"/>
<text text-anchor="middle" x="435" y="-119.5" font-family="Helvetica,sans-Serif" font-size="10.00">gsl/gsl_sf_gamma.h</text>
</g>
<!-- Node1&#45;&gt;Node5 -->
<g id="edge4" class="edge"><title>Node1&#45;&gt;Node5</title>
<path fill="none" stroke="midnightblue" d="M514.796,-168.498C496.814,-158.245 475.207,-145.925 459.015,-136.693"/>
<polygon fill="midnightblue" stroke="midnightblue" points="460.596,-133.565 450.175,-131.652 457.129,-139.646 460.596,-133.565"/>
</g>
<!-- Node6 -->
<g id="node6" class="node"><title>Node6</title>
<polygon fill="white" stroke="#bfbfbf" points="505,-112.5 505,-131.5 593,-131.5 593,-112.5 505,-112.5"/>
<text text-anchor="middle" x="549" y="-119.5" font-family="Helvetica,sans-Serif" font-size="10.00">gsl/gsl_randist.h</text>
</g>
<!-- Node1&#45;&gt;Node6 -->
<g id="edge5" class="edge"><title>Node1&#45;&gt;Node6</title>
<path fill="none" stroke="midnightblue" d="M549,-168.498C549,-160.065 549,-150.235 549,-141.874"/>
<polygon fill="midnightblue" stroke="midnightblue" points="552.5,-141.652 549,-131.652 545.5,-141.653 552.5,-141.652"/>
</g>
<!-- Node7 -->
<g id="node7" class="node"><title>Node7</title>
<polygon fill="white" stroke="#bfbfbf" points="611,-112.5 611,-131.5 697,-131.5 697,-112.5 611,-112.5"/>
<text text-anchor="middle" x="654" y="-119.5" font-family="Helvetica,sans-Serif" font-size="10.00">gsl/gsl_vector.h</text>
</g>
<!-- Node1&#45;&gt;Node7 -->
<g id="edge6" class="edge"><title>Node1&#45;&gt;Node7</title>
<path fill="none" stroke="midnightblue" d="M580.503,-168.498C596.912,-158.34 616.596,-146.155 631.462,-136.952"/>
<polygon fill="midnightblue" stroke="midnightblue" points="633.362,-139.892 640.023,-131.652 629.678,-133.94 633.362,-139.892"/>
</g>
<!-- Node8 -->
<g id="node8" class="node"><title>Node8</title>
<polygon fill="white" stroke="#bfbfbf" points="715,-112.5 715,-131.5 801,-131.5 801,-112.5 715,-112.5"/>
<text text-anchor="middle" x="758" y="-119.5" font-family="Helvetica,sans-Serif" font-size="10.00">gsl/gsl_matrix.h</text>
</g>
<!-- Node1&#45;&gt;Node8 -->
<g id="edge7" class="edge"><title>Node1&#45;&gt;Node8</title>
<path fill="none" stroke="midnightblue" d="M611.707,-168.498C647.248,-157.444 690.511,-143.99 720.734,-134.59"/>
<polygon fill="midnightblue" stroke="midnightblue" points="721.944,-137.879 730.454,-131.567 719.865,-131.195 721.944,-137.879"/>
</g>
<!-- Node9 -->
<g id="node9" class="node"><title>Node9</title>
<polygon fill="white" stroke="#bfbfbf" points="819.5,-112.5 819.5,-131.5 896.5,-131.5 896.5,-112.5 819.5,-112.5"/>
<text text-anchor="middle" x="858" y="-119.5" font-family="Helvetica,sans-Serif" font-size="10.00">gsl/gsl_blas.h</text>
</g>
<!-- Node1&#45;&gt;Node9 -->
<g id="edge8" class="edge"><title>Node1&#45;&gt;Node9</title>
<path fill="none" stroke="midnightblue" d="M618.346,-173.413C676.564,-161.166 758.243,-143.985 809.623,-133.176"/>
<polygon fill="midnightblue" stroke="midnightblue" points="810.413,-136.587 819.479,-131.103 808.972,-129.737 810.413,-136.587"/>
</g>
<!-- Node10 -->
<g id="node10" class="node"><title>Node10</title>
<polygon fill="white" stroke="#bfbfbf" points="914.5,-112.5 914.5,-131.5 995.5,-131.5 995.5,-112.5 914.5,-112.5"/>
<text text-anchor="middle" x="955" y="-119.5" font-family="Helvetica,sans-Serif" font-size="10.00">gsl/gsl_linalg.h</text>
</g>
<!-- Node1&#45;&gt;Node10 -->
<g id="edge9" class="edge"><title>Node1&#45;&gt;Node10</title>
<path fill="none" stroke="midnightblue" d="M618.319,-177.559C687.942,-166.967 798.57,-149.851 904.453,-132.062"/>
<polygon fill="midnightblue" stroke="midnightblue" points="905.074,-135.506 914.354,-130.394 903.912,-128.603 905.074,-135.506"/>
</g>
<!-- Node11 -->
<g id="node11" class="node"><title>Node11</title>
<g id="a_node11"><a xlink:href="../../d7/df5/ProgressBar_8hpp.html" target="_top" xlink:title="Core/ProgressBar.hpp">
<polygon fill="white" stroke="black" points="1013.5,-112.5 1013.5,-131.5 1126.5,-131.5 1126.5,-112.5 1013.5,-112.5"/>
<text text-anchor="middle" x="1070" y="-119.5" font-family="Helvetica,sans-Serif" font-size="10.00">Core/ProgressBar.hpp</text>
</a>
</g>
</g>
<!-- Node1&#45;&gt;Node11 -->
<g id="edge10" class="edge"><title>Node1&#45;&gt;Node11</title>
<path fill="none" stroke="midnightblue" d="M618.025,-179.789C705.117,-169.365 859.794,-150.641 1003.18,-132.092"/>
<polygon fill="midnightblue" stroke="midnightblue" points="1004.01,-135.513 1013.48,-130.757 1003.11,-128.571 1004.01,-135.513"/>
</g>
<!-- Node14 -->
<g id="node14" class="node"><title>Node14</title>
<g id="a_node14"><a xlink:href="../../d0/d27/Integration_8hpp.html" target="_top" xlink:title="Tools/Integration.hpp">
<polygon fill="white" stroke="black" points="167,-112.5 167,-131.5 275,-131.5 275,-112.5 167,-112.5"/>
<text text-anchor="middle" x="221" y="-119.5" font-family="Helvetica,sans-Serif" font-size="10.00">Tools/Integration.hpp</text>
</a>
</g>
</g>
<!-- Node1&#45;&gt;Node14 -->
<g id="edge13" class="edge"><title>Node1&#45;&gt;Node14</title>
<path fill="none" stroke="midnightblue" d="M479.84,-174.295C418.442,-162.127 330.024,-144.605 274.058,-133.515"/>
<polygon fill="midnightblue" stroke="midnightblue" points="274.489,-130.032 263.999,-131.521 273.128,-136.898 274.489,-130.032"/>
</g>
<!-- Node12 -->
<g id="node12" class="node"><title>Node12</title>
<polygon fill="white" stroke="#bfbfbf" points="1082.5,-56.5 1082.5,-75.5 1123.5,-75.5 1123.5,-56.5 1082.5,-56.5"/>
<text text-anchor="middle" x="1103" y="-63.5" font-family="Helvetica,sans-Serif" font-size="10.00">ctime</text>
</g>
<!-- Node11&#45;&gt;Node12 -->
<g id="edge11" class="edge"><title>Node11&#45;&gt;Node12</title>
<path fill="none" stroke="midnightblue" d="M1075.45,-112.083C1080.01,-104.613 1086.67,-93.7244 1092.29,-84.5199"/>
<polygon fill="midnightblue" stroke="midnightblue" points="1095.42,-86.109 1097.65,-75.7511 1089.45,-82.4588 1095.42,-86.109"/>
</g>
<!-- Node13 -->
<g id="node13" class="node"><title>Node13</title>
<polygon fill="white" stroke="#bfbfbf" points="1010,-56.5 1010,-75.5 1064,-75.5 1064,-56.5 1010,-56.5"/>
<text text-anchor="middle" x="1037" y="-63.5" font-family="Helvetica,sans-Serif" font-size="10.00">iostream</text>
</g>
<!-- Node11&#45;&gt;Node13 -->
<g id="edge12" class="edge"><title>Node11&#45;&gt;Node13</title>
<path fill="none" stroke="midnightblue" d="M1064.55,-112.083C1059.99,-104.613 1053.33,-93.7244 1047.71,-84.5199"/>
<polygon fill="midnightblue" stroke="midnightblue" points="1050.55,-82.4588 1042.35,-75.7511 1044.58,-86.109 1050.55,-82.4588"/>
</g>
<!-- Node15 -->
<g id="node15" class="node"><title>Node15</title>
<polygon fill="white" stroke="#bfbfbf" points="199,-56.5 199,-75.5 243,-75.5 243,-56.5 199,-56.5"/>
<text text-anchor="middle" x="221" y="-63.5" font-family="Helvetica,sans-Serif" font-size="10.00">cmath</text>
</g>
<!-- Node14&#45;&gt;Node15 -->
<g id="edge14" class="edge"><title>Node14&#45;&gt;Node15</title>
<path fill="none" stroke="midnightblue" d="M221,-112.083C221,-105.006 221,-94.8611 221,-85.9865"/>
<polygon fill="midnightblue" stroke="midnightblue" points="224.5,-85.751 221,-75.7511 217.5,-85.7511 224.5,-85.751"/>
</g>
<!-- Node16 -->
<g id="node16" class="node"><title>Node16</title>
<polygon fill="white" stroke="#bfbfbf" points="288.5,-0.5 288.5,-19.5 335.5,-19.5 335.5,-0.5 288.5,-0.5"/>
<text text-anchor="middle" x="312" y="-7.5" font-family="Helvetica,sans-Serif" font-size="10.00">math.h</text>
</g>
<!-- Node14&#45;&gt;Node16 -->
<g id="edge15" class="edge"><title>Node14&#45;&gt;Node16</title>
<path fill="none" stroke="midnightblue" d="M275.127,-113.157C334.867,-103.949 423.973,-88.367 434,-76 461.063,-42.6218 390.587,-24.137 345.776,-16.0404"/>
<polygon fill="midnightblue" stroke="midnightblue" points="346.277,-12.5754 335.829,-14.3354 345.094,-19.4747 346.277,-12.5754"/>
</g>
<!-- Node17 -->
<g id="node17" class="node"><title>Node17</title>
<polygon fill="white" stroke="#bfbfbf" points="261.5,-56.5 261.5,-75.5 314.5,-75.5 314.5,-56.5 261.5,-56.5"/>
<text text-anchor="middle" x="288" y="-63.5" font-family="Helvetica,sans-Serif" font-size="10.00">complex</text>
</g>
<!-- Node14&#45;&gt;Node17 -->
<g id="edge16" class="edge"><title>Node14&#45;&gt;Node17</title>
<path fill="none" stroke="midnightblue" d="M231.765,-112.324C241.766,-104.263 256.887,-92.0765 268.93,-82.3695"/>
<polygon fill="midnightblue" stroke="midnightblue" points="271.45,-84.8343 277.039,-75.8339 267.057,-79.3841 271.45,-84.8343"/>
</g>
<!-- Node18 -->
<g id="node18" class="node"><title>Node18</title>
<g id="a_node18"><a xlink:href="../../da/db4/Logging_8hpp.html" target="_top" xlink:title="Core/Logging.hpp">
<polygon fill="white" stroke="red" points="332.5,-56.5 332.5,-75.5 425.5,-75.5 425.5,-56.5 332.5,-56.5"/>
<text text-anchor="middle" x="379" y="-63.5" font-family="Helvetica,sans-Serif" font-size="10.00">Core/Logging.hpp</text>
</a>
</g>
</g>
<!-- Node14&#45;&gt;Node18 -->
<g id="edge17" class="edge"><title>Node14&#45;&gt;Node18</title>
<path fill="none" stroke="midnightblue" d="M246.036,-112.444C272.616,-103.359 314.809,-88.9388 344.523,-78.7831"/>
<polygon fill="midnightblue" stroke="midnightblue" points="345.751,-82.0625 354.082,-75.5164 343.487,-75.4386 345.751,-82.0625"/>
</g>
<!-- Node19 -->
<g id="node19" class="node"><title>Node19</title>
<g id="a_node19"><a xlink:href="../../dc/dfd/AmpIntensity_8hpp.html" target="_top" xlink:title="Core/AmpIntensity.hpp">
<polygon fill="white" stroke="red" points="63.5,-56.5 63.5,-75.5 180.5,-75.5 180.5,-56.5 63.5,-56.5"/>
<text text-anchor="middle" x="122" y="-63.5" font-family="Helvetica,sans-Serif" font-size="10.00">Core/AmpIntensity.hpp</text>
</a>
</g>
</g>
<!-- Node14&#45;&gt;Node19 -->
<g id="edge18" class="edge"><title>Node14&#45;&gt;Node19</title>
<path fill="none" stroke="midnightblue" d="M205.094,-112.324C189.362,-103.743 165.058,-90.486 146.791,-80.5224"/>
<polygon fill="midnightblue" stroke="midnightblue" points="148.322,-77.3704 137.867,-75.6545 144.97,-83.5157 148.322,-77.3704"/>
</g>
<!-- Node19&#45;&gt;Node2 -->
<g id="edge20" class="edge"><title>Node19&#45;&gt;Node2</title>
<path fill="none" stroke="midnightblue" d="M106.576,-56.324C91.4605,-47.8215 68.1846,-34.7288 50.5288,-24.7975"/>
<polygon fill="midnightblue" stroke="midnightblue" points="51.8175,-21.5066 41.3858,-19.6545 48.3856,-27.6077 51.8175,-21.5066"/>
</g>
<!-- Node19&#45;&gt;Node3 -->
<g id="edge19" class="edge"><title>Node19&#45;&gt;Node3</title>
<path fill="none" stroke="midnightblue" d="M119.523,-56.083C117.514,-48.8486 114.614,-38.4087 112.11,-29.3968"/>
<polygon fill="midnightblue" stroke="midnightblue" points="115.48,-28.4495 109.431,-19.7511 108.735,-30.323 115.48,-28.4495"/>
</g>
<!-- Node19&#45;&gt;Node16 -->
<g id="edge21" class="edge"><title>Node19&#45;&gt;Node16</title>
<path fill="none" stroke="midnightblue" d="M152.106,-56.4435C186.487,-46.6722 242.588,-30.7275 278.374,-20.5567"/>
<polygon fill="midnightblue" stroke="midnightblue" points="279.676,-23.8256 288.338,-17.7251 277.762,-17.0923 279.676,-23.8256"/>
</g>
</g>
</svg>
        <g id="navigator" transform="translate(0 0)" fill="#404254">
                <rect fill="#f2f5e9" fill-opacity="0.5" stroke="#606060" stroke-width=".5" x="0" y="0" width="60" height="60"/>
                <use id="zoomplus" xlink:href="#zoomPlus" x="17" y="9" onmousedown="handleZoom(evt,'in')"/>
                <use id="zoomminus" xlink:href="#zoomMin" x="42" y="9" onmousedown="handleZoom(evt,'out')"/>
                <use id="reset" xlink:href="#resetDef" x="30" y="36" onmousedown="handleReset()"/>
                <g id="arrowUp" xlink:href="#dirArrow" transform="translate(30 24)" onmousedown="handlePan(0,-1)">
                  <use xlink:href="#rim" fill="#404040">
                        <set attributeName="fill" to="#808080" begin="arrowUp.mouseover" end="arrowUp.mouseout"/>
                  </use>
                  <path fill="none" stroke="white" stroke-width="1.5" d="M0,-3.0v7 M-2.5,-0.5L0,-3.0L2.5,-0.5"/>
                </g>
                <g id="arrowRight" xlink:href="#dirArrow" transform="rotate(90) translate(36 -43)" onmousedown="handlePan(1,0)">
                  <use xlink:href="#rim" fill="#404040">
                        <set attributeName="fill" to="#808080" begin="arrowRight.mouseover" end="arrowRight.mouseout"/>
                  </use>
                  <path fill="none" stroke="white" stroke-width="1.5" d="M0,-3.0v7 M-2.5,-0.5L0,-3.0L2.5,-0.5"/>
                </g>
                <g id="arrowDown" xlink:href="#dirArrow" transform="rotate(180) translate(-30 -48)" onmousedown="handlePan(0,1)">
                  <use xlink:href="#rim" fill="#404040">
                        <set attributeName="fill" to="#808080" begin="arrowDown.mouseover" end="arrowDown.mouseout"/>
                  </use>
                  <path fill="none" stroke="white" stroke-width="1.5" d="M0,-3.0v7 M-2.5,-0.5L0,-3.0L2.5,-0.5"/>
                </g>
                <g id="arrowLeft" xlink:href="#dirArrow" transform="rotate(270) translate(-36 17)" onmousedown="handlePan(-1,0)">
                  <use xlink:href="#rim" fill="#404040">
                        <set attributeName="fill" to="#808080" begin="arrowLeft.mouseover" end="arrowLeft.mouseout"/>
                  </use>
                  <path fill="none" stroke="white" stroke-width="1.5" d="M0,-3.0v7 M-2.5,-0.5L0,-3.0L2.5,-0.5"/>
                </g>
        </g>
        <svg viewBox="0 0 15 15" width="100%" height="30px" preserveAspectRatio="xMaxYMin meet">
         <g id="arrow_out" transform="scale(0.3 0.3)">
          <a xlink:href="FitFractions_8hpp__incl_org.svg" target="_base">
           <rect id="button" ry="5" rx="5" y="6" x="6" height="38" width="38"
                fill="#f2f5e9" fill-opacity="0.5" stroke="#606060" stroke-width="1.0"/>
           <path id="arrow"
             d="M 11.500037,31.436501 C 11.940474,20.09759 22.043105,11.32322 32.158766,21.979434 L 37.068811,17.246167 C 37.068811,17.246167 37.088388,32 37.088388,32 L 22.160133,31.978069 C 22.160133,31.978069 26.997745,27.140456 26.997745,27.140456 C 18.528582,18.264221 13.291696,25.230495 11.500037,31.436501 z"
             style="fill:#404040;"/>
          </a>
         </g>
        </svg>
</svg>
