<?xml version="1.0" encoding="UTF-8" standalone="no"?>
<!DOCTYPE svg PUBLIC "-//W3C//DTD SVG 1.1//EN"
 "http://www.w3.org/Graphics/SVG/1.1/DTD/svg11.dtd">
<!-- Generated by graphviz version 2.36.0 (20140111.2315)
 -->
<!-- Title: /home/travis/build/ComPWA/ComPWA/Optimizer/Geneva/GenevaIF.cpp Pages: 1 -->
<svg width="1667pt" height="466pt"
 viewBox="0.00 0.00 1667.31 466.00" xmlns="http://www.w3.org/2000/svg" xmlns:xlink="http://www.w3.org/1999/xlink">
<g id="graph0" class="graph" transform="scale(1 1) rotate(0) translate(4 462)">
<title>/home/travis/build/ComPWA/ComPWA/Optimizer/Geneva/GenevaIF.cpp</title>
<polygon fill="white" stroke="none" points="-4,4 -4,-462 1663.31,-462 1663.31,4 -4,4"/>
<!-- Node1 -->
<g id="node1" class="node"><title>Node1</title>
<polygon fill="#bfbfbf" stroke="black" points="126.312,-416.5 126.312,-457.5 282.312,-457.5 282.312,-416.5 126.312,-416.5"/>
<text text-anchor="start" x="134.312" y="-445.5" font-family="Helvetica,sans-Serif" font-size="10.00">/home/travis/build</text>
<text text-anchor="start" x="134.312" y="-434.5" font-family="Helvetica,sans-Serif" font-size="10.00">/ComPWA/ComPWA/Optimizer</text>
<text text-anchor="middle" x="204.312" y="-423.5" font-family="Helvetica,sans-Serif" font-size="10.00">/Geneva/GenevaIF.cpp</text>
</g>
<!-- Node2 -->
<g id="node2" class="node"><title>Node2</title>
<polygon fill="white" stroke="#bfbfbf" points="536.312,-0.5 536.312,-19.5 590.312,-19.5 590.312,-0.5 536.312,-0.5"/>
<text text-anchor="middle" x="563.312" y="-7.5" font-family="Helvetica,sans-Serif" font-size="10.00">iostream</text>
</g>
<!-- Node1&#45;&gt;Node2 -->
<g id="edge1" class="edge"><title>Node1&#45;&gt;Node2</title>
<path fill="none" stroke="midnightblue" d="M126.111,-429.83C89.3282,-422.967 47.6476,-408.839 20.3122,-380 -3.93656,-354.417 1.31219,-338.249 1.31219,-303 1.31219,-303 1.31219,-303 1.31219,-121 1.31219,-13.7682 400.345,-9.14704 525.938,-10.3482"/>
<polygon fill="midnightblue" stroke="midnightblue" points="526.166,-13.851 536.206,-10.4657 526.246,-6.85144 526.166,-13.851"/>
</g>
<!-- Node3 -->
<g id="node3" class="node"><title>Node3</title>
<polygon fill="white" stroke="#bfbfbf" points="29.3122,-354.5 29.3122,-373.5 69.3122,-373.5 69.3122,-354.5 29.3122,-354.5"/>
<text text-anchor="middle" x="49.3122" y="-361.5" font-family="Helvetica,sans-Serif" font-size="10.00">limits</text>
</g>
<!-- Node1&#45;&gt;Node3 -->
<g id="edge2" class="edge"><title>Node1&#45;&gt;Node3</title>
<path fill="none" stroke="midnightblue" d="M161.547,-416.411C134.732,-404.128 100.922,-388.641 77.454,-377.891"/>
<polygon fill="midnightblue" stroke="midnightblue" points="78.6291,-374.579 68.0799,-373.597 75.7139,-380.943 78.6291,-374.579"/>
</g>
<!-- Node4 -->
<g id="node4" class="node"><title>Node4</title>
<polygon fill="white" stroke="#bfbfbf" points="292.312,-56.5 292.312,-75.5 344.312,-75.5 344.312,-56.5 292.312,-56.5"/>
<text text-anchor="middle" x="318.312" y="-63.5" font-family="Helvetica,sans-Serif" font-size="10.00">memory</text>
</g>
<!-- Node1&#45;&gt;Node4 -->
<g id="edge3" class="edge"><title>Node1&#45;&gt;Node4</title>
<path fill="none" stroke="midnightblue" d="M172.963,-416.399C136.171,-390.651 82.2061,-342.72 99.3122,-292 131.442,-196.736 160.139,-177.614 236.312,-112 251.74,-98.7109 271.727,-87.644 288.106,-79.8106"/>
<polygon fill="midnightblue" stroke="midnightblue" points="289.659,-82.9488 297.271,-75.5797 286.725,-76.5934 289.659,-82.9488"/>
</g>
<!-- Node5 -->
<g id="node5" class="node"><title>Node5</title>
<polygon fill="white" stroke="#bfbfbf" points="108.312,-292.5 108.312,-311.5 196.312,-311.5 196.312,-292.5 108.312,-292.5"/>
<text text-anchor="middle" x="152.312" y="-299.5" font-family="Helvetica,sans-Serif" font-size="10.00">geneva/Go2.hpp</text>
</g>
<!-- Node1&#45;&gt;Node5 -->
<g id="edge4" class="edge"><title>Node1&#45;&gt;Node5</title>
<path fill="none" stroke="midnightblue" d="M190.762,-416.254C184.123,-405.846 176.468,-392.644 171.312,-380 163.53,-360.917 158.353,-337.828 155.395,-321.94"/>
<polygon fill="midnightblue" stroke="midnightblue" points="158.794,-321.054 153.628,-311.804 151.898,-322.256 158.794,-321.054"/>
</g>
<!-- Node6 -->
<g id="node6" class="node"><title>Node6</title>
<polygon fill="white" stroke="#bfbfbf" points="180.312,-349 180.312,-379 334.312,-379 334.312,-349 180.312,-349"/>
<text text-anchor="start" x="188.312" y="-367" font-family="Helvetica,sans-Serif" font-size="10.00">geneva/GEvolutionaryAlgorithm</text>
<text text-anchor="middle" x="257.312" y="-356" font-family="Helvetica,sans-Serif" font-size="10.00">Factory.hpp</text>
</g>
<!-- Node1&#45;&gt;Node6 -->
<g id="edge5" class="edge"><title>Node1&#45;&gt;Node6</title>
<path fill="none" stroke="midnightblue" d="M219.076,-416.223C225.829,-407.175 233.858,-396.42 240.81,-387.106"/>
<polygon fill="midnightblue" stroke="midnightblue" points="243.648,-389.156 246.825,-379.049 238.039,-384.968 243.648,-389.156"/>
</g>
<!-- Node7 -->
<g id="node7" class="node"><title>Node7</title>
<g id="a_node7"><a xlink:href="../../db/dad/GenevaIF_8hpp.html" target="_top" xlink:title="This class provides a wrapper around the Geneva library. ">
<polygon fill="white" stroke="black" points="479.312,-354.5 479.312,-373.5 639.312,-373.5 639.312,-354.5 479.312,-354.5"/>
<text text-anchor="middle" x="559.312" y="-361.5" font-family="Helvetica,sans-Serif" font-size="10.00">Optimizer/Geneva/GenevaIF.hpp</text>
</a>
</g>
</g>
<!-- Node1&#45;&gt;Node7 -->
<g id="edge6" class="edge"><title>Node1&#45;&gt;Node7</title>
<path fill="none" stroke="midnightblue" d="M282.658,-420.331C350.794,-406.704 447.631,-387.336 506.815,-375.499"/>
<polygon fill="midnightblue" stroke="midnightblue" points="507.576,-378.917 516.696,-373.523 506.203,-372.053 507.576,-378.917"/>
</g>
<!-- Node19 -->
<g id="node19" class="node"><title>Node19</title>
<g id="a_node19"><a xlink:href="../../df/dfa/GStartIndividual_8hpp.html" target="_top" xlink:title="Optimizer/Geneva/GStartIndividual.hpp">
<polygon fill="white" stroke="red" points="1401.81,-230.5 1401.81,-249.5 1588.81,-249.5 1588.81,-230.5 1401.81,-230.5"/>
<text text-anchor="middle" x="1495.31" y="-237.5" font-family="Helvetica,sans-Serif" font-size="10.00">Optimizer/Geneva/GStartIndividual.hpp</text>
</a>
</g>
</g>
<!-- Node1&#45;&gt;Node19 -->
<g id="edge69" class="edge"><title>Node1&#45;&gt;Node19</title>
<path fill="none" stroke="midnightblue" d="M282.423,-433.153C461.928,-425.293 916.817,-397.839 1286.31,-312 1351.52,-296.851 1425.06,-269.315 1465.19,-253.352"/>
<polygon fill="midnightblue" stroke="midnightblue" points="1466.67,-256.529 1474.65,-249.557 1464.07,-250.032 1466.67,-256.529"/>
</g>
<!-- Node23 -->
<g id="node23" class="node"><title>Node23</title>
<g id="a_node23"><a xlink:href="../../d6/d5e/GenevaResult_8hpp.html" target="_top" xlink:title="This class contains FitResults from Geneva Optimizations. ">
<polygon fill="white" stroke="black" points="1039.81,-292.5 1039.81,-311.5 1218.81,-311.5 1218.81,-292.5 1039.81,-292.5"/>
<text text-anchor="middle" x="1129.31" y="-299.5" font-family="Helvetica,sans-Serif" font-size="10.00">Optimizer/Geneva/GenevaResult.hpp</text>
</a>
</g>
</g>
<!-- Node1&#45;&gt;Node23 -->
<g id="edge55" class="edge"><title>Node1&#45;&gt;Node23</title>
<path fill="none" stroke="midnightblue" d="M282.617,-426.922C371.405,-416.444 520.448,-398.293 648.312,-380 800.264,-358.261 978.539,-328.641 1069.43,-313.244"/>
<polygon fill="midnightblue" stroke="midnightblue" points="1070.27,-316.651 1079.54,-311.528 1069.09,-309.75 1070.27,-316.651"/>
</g>
<!-- Node7&#45;&gt;Node2 -->
<g id="edge9" class="edge"><title>Node7&#45;&gt;Node2</title>
<path fill="none" stroke="midnightblue" d="M556.865,-354.159C552.252,-339.141 540.843,-308.66 520.312,-292 386.138,-183.121 148.312,-351.793 148.312,-179 148.312,-179 148.312,-179 148.312,-121 148.312,-43.2519 423.905,-19.1706 525.924,-12.9197"/>
<polygon fill="midnightblue" stroke="midnightblue" points="526.306,-16.4033 536.083,-12.3214 525.894,-9.41545 526.306,-16.4033"/>
</g>
<!-- Node7&#45;&gt;Node4 -->
<g id="edge8" class="edge"><title>Node7&#45;&gt;Node4</title>
<path fill="none" stroke="midnightblue" d="M478.937,-359.787C396.936,-354.848 277.075,-342.5 243.312,-312 219.072,-290.103 224.312,-273.666 224.312,-241 224.312,-241 224.312,-241 224.312,-177 224.312,-133.932 266.472,-99.2143 294.322,-80.9784"/>
<polygon fill="midnightblue" stroke="midnightblue" points="296.192,-83.9369 302.79,-75.6471 292.463,-78.0132 296.192,-83.9369"/>
</g>
<!-- Node7&#45;&gt;Node5 -->
<g id="edge54" class="edge"><title>Node7&#45;&gt;Node5</title>
<path fill="none" stroke="midnightblue" d="M500.007,-354.497C430.55,-344.5 312.037,-327.325 210.312,-312 209.037,-311.808 207.746,-311.613 206.444,-311.415"/>
<polygon fill="midnightblue" stroke="midnightblue" points="206.738,-307.92 196.325,-309.871 205.682,-314.84 206.738,-307.92"/>
</g>
<!-- Node8 -->
<g id="node8" class="node"><title>Node8</title>
<polygon fill="white" stroke="#bfbfbf" points="888.312,-56.5 888.312,-75.5 932.312,-75.5 932.312,-56.5 888.312,-56.5"/>
<text text-anchor="middle" x="910.312" y="-63.5" font-family="Helvetica,sans-Serif" font-size="10.00">vector</text>
</g>
<!-- Node7&#45;&gt;Node8 -->
<g id="edge7" class="edge"><title>Node7&#45;&gt;Node8</title>
<path fill="none" stroke="midnightblue" d="M559.184,-354.406C559.153,-318.385 564.159,-178.368 641.312,-112 676.349,-81.8614 814.362,-71.5206 877.935,-68.309"/>
<polygon fill="midnightblue" stroke="midnightblue" points="878.365,-71.7926 888.187,-67.8207 878.031,-64.8005 878.365,-71.7926"/>
</g>
<!-- Node9 -->
<g id="node9" class="node"><title>Node9</title>
<g id="a_node9"><a xlink:href="../../de/d1f/ControlParameter_8hpp.html" target="_top" xlink:title="This class provides the interface for the optimizer module to access the data. ">
<polygon fill="white" stroke="red" points="887.312,-168.5 887.312,-187.5 1023.31,-187.5 1023.31,-168.5 887.312,-168.5"/>
<text text-anchor="middle" x="955.312" y="-175.5" font-family="Helvetica,sans-Serif" font-size="10.00">Core/ControlParameter.hpp</text>
</a>
</g>
</g>
<!-- Node7&#45;&gt;Node9 -->
<g id="edge10" class="edge"><title>Node7&#45;&gt;Node9</title>
<path fill="none" stroke="midnightblue" d="M605.052,-354.449C659.089,-343.957 745.424,-325.856 775.312,-312 842.333,-280.929 909.087,-222.651 939.003,-194.716"/>
<polygon fill="midnightblue" stroke="midnightblue" points="941.573,-197.103 946.434,-187.689 936.763,-192.017 941.573,-197.103"/>
</g>
<!-- Node10 -->
<g id="node10" class="node"><title>Node10</title>
<g id="a_node10"><a xlink:href="../../df/d9f/ParameterList_8hpp.html" target="_top" xlink:title="This class provides a list of fit parameters which can have different types. ">
<polygon fill="white" stroke="red" points="938.312,-112.5 938.312,-131.5 1058.31,-131.5 1058.31,-112.5 938.312,-112.5"/>
<text text-anchor="middle" x="998.312" y="-119.5" font-family="Helvetica,sans-Serif" font-size="10.00">Core/ParameterList.hpp</text>
</a>
</g>
</g>
<!-- Node7&#45;&gt;Node10 -->
<g id="edge42" class="edge"><title>Node7&#45;&gt;Node10</title>
<path fill="none" stroke="midnightblue" d="M604.522,-354.466C670.794,-341.84 788.521,-318.929 807.312,-312 914.442,-272.499 974.241,-286.31 1032.31,-188 1042.06,-171.501 1028.6,-151.941 1015.85,-138.619"/>
<polygon fill="midnightblue" stroke="midnightblue" points="1018.21,-136.034 1008.61,-131.566 1013.33,-141.05 1018.21,-136.034"/>
</g>
<!-- Node13 -->
<g id="node13" class="node"><title>Node13</title>
<g id="a_node13"><a xlink:href="../../db/dce/Parameter_8hpp.html" target="_top" xlink:title="This class implements some internal container of parameters. ">
<polygon fill="white" stroke="red" points="591.312,-56.5 591.312,-75.5 695.312,-75.5 695.312,-56.5 591.312,-56.5"/>
<text text-anchor="middle" x="643.312" y="-63.5" font-family="Helvetica,sans-Serif" font-size="10.00">Core/Parameter.hpp</text>
</a>
</g>
</g>
<!-- Node7&#45;&gt;Node13 -->
<g id="edge43" class="edge"><title>Node7&#45;&gt;Node13</title>
<path fill="none" stroke="midnightblue" d="M566.489,-354.173C574.045,-344.429 585.74,-327.998 592.312,-312 625.208,-231.919 637.793,-128.065 641.755,-85.9664"/>
<polygon fill="midnightblue" stroke="midnightblue" points="645.259,-86.0705 642.654,-75.8011 638.286,-85.454 645.259,-86.0705"/>
</g>
<!-- Node14 -->
<g id="node14" class="node"><title>Node14</title>
<g id="a_node14"><a xlink:href="../../db/d93/Optimizer_8hpp.html" target="_top" xlink:title="This class provides the interface to (external) optimization libraries or routines. ">
<polygon fill="white" stroke="black" points="644.312,-292.5 644.312,-311.5 766.312,-311.5 766.312,-292.5 644.312,-292.5"/>
<text text-anchor="middle" x="705.312" y="-299.5" font-family="Helvetica,sans-Serif" font-size="10.00">Optimizer/Optimizer.hpp</text>
</a>
</g>
</g>
<!-- Node7&#45;&gt;Node14 -->
<g id="edge22" class="edge"><title>Node7&#45;&gt;Node14</title>
<path fill="none" stroke="midnightblue" d="M580.23,-354.403C605.058,-344.2 646.656,-327.105 675.006,-315.454"/>
<polygon fill="midnightblue" stroke="midnightblue" points="676.514,-318.619 684.433,-311.581 673.853,-312.144 676.514,-318.619"/>
</g>
<!-- Node7&#45;&gt;Node19 -->
<g id="edge44" class="edge"><title>Node7&#45;&gt;Node19</title>
<path fill="none" stroke="midnightblue" d="M639.318,-361.605C765.245,-358.354 1017.02,-347.577 1227.31,-312 1312.07,-297.661 1409,-268.774 1459.87,-252.615"/>
<polygon fill="midnightblue" stroke="midnightblue" points="1460.96,-255.943 1469.41,-249.562 1458.82,-249.276 1460.96,-255.943"/>
</g>
<!-- Node21 -->
<g id="node21" class="node"><title>Node21</title>
<polygon fill="white" stroke="#bfbfbf" points="252.312,-292.5 252.312,-311.5 386.312,-311.5 386.312,-292.5 252.312,-292.5"/>
<text text-anchor="middle" x="319.312" y="-299.5" font-family="Helvetica,sans-Serif" font-size="10.00">boost/program_options.hpp</text>
</g>
<!-- Node7&#45;&gt;Node21 -->
<g id="edge52" class="edge"><title>Node7&#45;&gt;Node21</title>
<path fill="none" stroke="midnightblue" d="M525.181,-354.467C482.621,-343.827 409.798,-325.622 363.149,-313.959"/>
<polygon fill="midnightblue" stroke="midnightblue" points="363.876,-310.533 353.326,-311.503 362.178,-317.324 363.876,-310.533"/>
</g>
<!-- Node22 -->
<g id="node22" class="node"><title>Node22</title>
<polygon fill="white" stroke="#bfbfbf" points="404.812,-292.5 404.812,-311.5 511.812,-311.5 511.812,-292.5 404.812,-292.5"/>
<text text-anchor="middle" x="458.312" y="-299.5" font-family="Helvetica,sans-Serif" font-size="10.00">boost/filesystem.hpp</text>
</g>
<!-- Node7&#45;&gt;Node22 -->
<g id="edge53" class="edge"><title>Node7&#45;&gt;Node22</title>
<path fill="none" stroke="midnightblue" d="M544.841,-354.403C528.266,-344.557 500.886,-328.291 481.365,-316.695"/>
<polygon fill="midnightblue" stroke="midnightblue" points="483.141,-313.679 472.756,-311.581 479.566,-319.697 483.141,-313.679"/>
</g>
<!-- Node9&#45;&gt;Node4 -->
<g id="edge12" class="edge"><title>Node9&#45;&gt;Node4</title>
<path fill="none" stroke="midnightblue" d="M894.339,-168.462C834.222,-159.88 739.785,-145.955 658.312,-132 547.442,-113.01 416.943,-87.042 354.785,-74.4511"/>
<polygon fill="midnightblue" stroke="midnightblue" points="355.197,-70.9634 344.701,-72.4042 353.804,-77.8235 355.197,-70.9634"/>
</g>
<!-- Node9&#45;&gt;Node8 -->
<g id="edge11" class="edge"><title>Node9&#45;&gt;Node8</title>
<path fill="none" stroke="midnightblue" d="M949.481,-168.361C943.726,-159.533 934.989,-145.273 929.312,-132 922.811,-116.799 917.719,-98.6845 914.45,-85.4444"/>
<polygon fill="midnightblue" stroke="midnightblue" points="917.84,-84.5719 912.141,-75.6402 911.026,-86.1762 917.84,-84.5719"/>
</g>
<!-- Node9&#45;&gt;Node10 -->
<g id="edge13" class="edge"><title>Node9&#45;&gt;Node10</title>
<path fill="none" stroke="midnightblue" d="M962.413,-168.083C968.549,-160.377 977.582,-149.033 985.051,-139.653"/>
<polygon fill="midnightblue" stroke="midnightblue" points="987.852,-141.754 991.344,-131.751 982.376,-137.394 987.852,-141.754"/>
</g>
<!-- Node10&#45;&gt;Node2 -->
<g id="edge14" class="edge"><title>Node10&#45;&gt;Node2</title>
<path fill="none" stroke="midnightblue" d="M993.546,-112.46C984.987,-98.0372 965.526,-69.1431 940.312,-56 881.666,-25.429 683.319,-15.1352 600.317,-12.1135"/>
<polygon fill="midnightblue" stroke="midnightblue" points="600.436,-8.61559 590.32,-11.7647 600.192,-15.6113 600.436,-8.61559"/>
</g>
<!-- Node10&#45;&gt;Node4 -->
<g id="edge16" class="edge"><title>Node10&#45;&gt;Node4</title>
<path fill="none" stroke="midnightblue" d="M938.265,-116.232C800.548,-105.295 465.308,-78.6732 354.518,-69.8751"/>
<polygon fill="midnightblue" stroke="midnightblue" points="354.757,-66.3832 344.511,-69.0805 354.203,-73.3612 354.757,-66.3832"/>
</g>
<!-- Node10&#45;&gt;Node8 -->
<g id="edge17" class="edge"><title>Node10&#45;&gt;Node8</title>
<path fill="none" stroke="midnightblue" d="M984.173,-112.324C970.446,-103.9 949.376,-90.9709 933.248,-81.0741"/>
<polygon fill="midnightblue" stroke="midnightblue" points="934.77,-77.9016 924.416,-75.6545 931.108,-83.8678 934.77,-77.9016"/>
</g>
<!-- Node11 -->
<g id="node11" class="node"><title>Node11</title>
<polygon fill="white" stroke="#bfbfbf" points="1269.81,-0.5 1269.81,-19.5 1310.81,-19.5 1310.81,-0.5 1269.81,-0.5"/>
<text text-anchor="middle" x="1290.31" y="-7.5" font-family="Helvetica,sans-Serif" font-size="10.00">string</text>
</g>
<!-- Node10&#45;&gt;Node11 -->
<g id="edge15" class="edge"><title>Node10&#45;&gt;Node11</title>
<path fill="none" stroke="midnightblue" d="M1021.22,-112.368C1073.46,-92.6908 1201.37,-44.5063 1260.02,-22.4099"/>
<polygon fill="midnightblue" stroke="midnightblue" points="1261.36,-25.6482 1269.48,-18.8475 1258.89,-19.0975 1261.36,-25.6482"/>
</g>
<!-- Node12 -->
<g id="node12" class="node"><title>Node12</title>
<polygon fill="white" stroke="#bfbfbf" points="1355.81,-56.5 1355.81,-75.5 1390.81,-75.5 1390.81,-56.5 1355.81,-56.5"/>
<text text-anchor="middle" x="1373.31" y="-63.5" font-family="Helvetica,sans-Serif" font-size="10.00">map</text>
</g>
<!-- Node10&#45;&gt;Node12 -->
<g id="edge18" class="edge"><title>Node10&#45;&gt;Node12</title>
<path fill="none" stroke="midnightblue" d="M1057.73,-112.444C1139.95,-100.604 1285.1,-79.7026 1345.61,-70.9887"/>
<polygon fill="midnightblue" stroke="midnightblue" points="1346.17,-74.4451 1355.57,-69.5555 1345.17,-67.5166 1346.17,-74.4451"/>
</g>
<!-- Node10&#45;&gt;Node13 -->
<g id="edge19" class="edge"><title>Node10&#45;&gt;Node13</title>
<path fill="none" stroke="midnightblue" d="M942.061,-112.444C877.625,-102.642 772.354,-86.629 705.52,-76.4627"/>
<polygon fill="midnightblue" stroke="midnightblue" points="705.955,-72.9886 695.542,-74.9449 704.902,-79.909 705.955,-72.9886"/>
</g>
<!-- Node13&#45;&gt;Node2 -->
<g id="edge20" class="edge"><title>Node13&#45;&gt;Node2</title>
<path fill="none" stroke="midnightblue" d="M630.459,-56.324C618.096,-47.979 599.182,-35.2122 584.575,-25.3524"/>
<polygon fill="midnightblue" stroke="midnightblue" points="586.38,-22.3483 576.134,-19.6545 582.464,-28.1503 586.38,-22.3483"/>
</g>
<!-- Node13&#45;&gt;Node11 -->
<g id="edge21" class="edge"><title>Node13&#45;&gt;Node11</title>
<path fill="none" stroke="midnightblue" d="M695.517,-57.5956C700.178,-57.021 704.828,-56.479 709.312,-56 919.138,-33.5871 1172.74,-17.8239 1259.49,-12.7531"/>
<polygon fill="midnightblue" stroke="midnightblue" points="1259.91,-16.2347 1269.69,-12.1614 1259.5,-9.2465 1259.91,-16.2347"/>
</g>
<!-- Node14&#45;&gt;Node4 -->
<g id="edge24" class="edge"><title>Node14&#45;&gt;Node4</title>
<path fill="none" stroke="midnightblue" d="M643.93,-294.94C604.288,-289.102 552.596,-277.779 511.312,-256 428.334,-212.225 357.187,-121.454 330.05,-83.8661"/>
<polygon fill="midnightblue" stroke="midnightblue" points="332.763,-81.642 324.118,-75.5166 327.056,-85.696 332.763,-81.642"/>
</g>
<!-- Node14&#45;&gt;Node8 -->
<g id="edge23" class="edge"><title>Node14&#45;&gt;Node8</title>
<path fill="none" stroke="midnightblue" d="M686.328,-292.398C672.426,-284.954 654.598,-272.741 646.312,-256 629.621,-222.277 617.073,-156.23 658.312,-112 687.617,-80.5692 816.455,-70.9456 877.723,-68.1183"/>
<polygon fill="midnightblue" stroke="midnightblue" points="878.15,-71.6033 887.992,-67.6793 877.851,-64.6097 878.15,-71.6033"/>
</g>
<!-- Node14&#45;&gt;Node10 -->
<g id="edge25" class="edge"><title>Node14&#45;&gt;Node10</title>
<path fill="none" stroke="midnightblue" d="M716.336,-292.455C753.754,-263.461 873.841,-170.484 878.312,-168 903.67,-153.912 934.323,-142.502 958.301,-134.697"/>
<polygon fill="midnightblue" stroke="midnightblue" points="959.662,-137.937 968.134,-131.575 957.544,-131.265 959.662,-137.937"/>
</g>
<!-- Node15 -->
<g id="node15" class="node"><title>Node15</title>
<g id="a_node15"><a xlink:href="../../de/d88/FitResult_8hpp.html" target="_top" xlink:title="Core/FitResult.hpp">
<polygon fill="white" stroke="red" points="655.812,-230.5 655.812,-249.5 754.812,-249.5 754.812,-230.5 655.812,-230.5"/>
<text text-anchor="middle" x="705.312" y="-237.5" font-family="Helvetica,sans-Serif" font-size="10.00">Core/FitResult.hpp</text>
</a>
</g>
</g>
<!-- Node14&#45;&gt;Node15 -->
<g id="edge26" class="edge"><title>Node14&#45;&gt;Node15</title>
<path fill="none" stroke="midnightblue" d="M705.312,-292.403C705.312,-283.938 705.312,-270.728 705.312,-259.82"/>
<polygon fill="midnightblue" stroke="midnightblue" points="708.812,-259.581 705.312,-249.581 701.812,-259.581 708.812,-259.581"/>
</g>
<!-- Node15&#45;&gt;Node2 -->
<g id="edge29" class="edge"><title>Node15&#45;&gt;Node2</title>
<path fill="none" stroke="midnightblue" d="M672.397,-230.442C628.861,-218.796 556.735,-198.236 549.312,-188 514.381,-139.83 540.088,-63.6682 554.848,-29.1153"/>
<polygon fill="midnightblue" stroke="midnightblue" points="558.123,-30.3636 558.997,-19.8049 551.729,-27.5137 558.123,-30.3636"/>
</g>
<!-- Node15&#45;&gt;Node4 -->
<g id="edge31" class="edge"><title>Node15&#45;&gt;Node4</title>
<path fill="none" stroke="midnightblue" d="M656.522,-230.442C616.45,-222.415 558.771,-208.544 511.312,-188 443.015,-158.435 370.838,-106.952 337.39,-81.7508"/>
<polygon fill="midnightblue" stroke="midnightblue" points="339.459,-78.9274 329.381,-75.6587 335.221,-84.4987 339.459,-78.9274"/>
</g>
<!-- Node15&#45;&gt;Node8 -->
<g id="edge27" class="edge"><title>Node15&#45;&gt;Node8</title>
<path fill="none" stroke="midnightblue" d="M704.144,-230.215C702.713,-215.812 701.927,-186.892 715.312,-168 715.653,-167.52 831.759,-107.548 884.628,-80.2558"/>
<polygon fill="midnightblue" stroke="midnightblue" points="886.441,-83.2587 893.722,-75.5618 883.23,-77.0385 886.441,-83.2587"/>
</g>
<!-- Node15&#45;&gt;Node10 -->
<g id="edge32" class="edge"><title>Node15&#45;&gt;Node10</title>
<path fill="none" stroke="midnightblue" d="M706.166,-230.432C708.161,-215.271 714.576,-183.827 734.312,-168 763.465,-144.621 860.098,-132.859 927.972,-127.344"/>
<polygon fill="midnightblue" stroke="midnightblue" points="928.489,-130.814 938.184,-126.543 927.941,-123.835 928.489,-130.814"/>
</g>
<!-- Node15&#45;&gt;Node11 -->
<g id="edge28" class="edge"><title>Node15&#45;&gt;Node11</title>
<path fill="none" stroke="midnightblue" d="M693.15,-230.493C681.441,-221.485 664.484,-206.084 657.312,-188 651.392,-173.073 643.226,-131.033 658.312,-112 733.945,-16.5814 1143.26,-10.5147 1259.51,-10.7447"/>
<polygon fill="midnightblue" stroke="midnightblue" points="1259.51,-14.2446 1269.52,-10.7821 1259.54,-7.24468 1259.51,-14.2446"/>
</g>
<!-- Node16 -->
<g id="node16" class="node"><title>Node16</title>
<polygon fill="white" stroke="#bfbfbf" points="743.312,-168.5 743.312,-187.5 793.312,-187.5 793.312,-168.5 743.312,-168.5"/>
<text text-anchor="middle" x="768.312" y="-175.5" font-family="Helvetica,sans-Serif" font-size="10.00">fstream</text>
</g>
<!-- Node15&#45;&gt;Node16 -->
<g id="edge30" class="edge"><title>Node15&#45;&gt;Node16</title>
<path fill="none" stroke="midnightblue" d="M714.339,-230.403C724.069,-221.136 739.77,-206.183 751.735,-194.788"/>
<polygon fill="midnightblue" stroke="midnightblue" points="754.475,-197.012 759.303,-187.581 749.647,-191.943 754.475,-197.012"/>
</g>
<!-- Node17 -->
<g id="node17" class="node"><title>Node17</title>
<g id="a_node17"><a xlink:href="../../d0/d0c/TableFormater_8hpp.html" target="_top" xlink:title="Core/TableFormater.hpp">
<polygon fill="white" stroke="red" points="1155.31,-168.5 1155.31,-187.5 1277.31,-187.5 1277.31,-168.5 1155.31,-168.5"/>
<text text-anchor="middle" x="1216.31" y="-175.5" font-family="Helvetica,sans-Serif" font-size="10.00">Core/TableFormater.hpp</text>
</a>
</g>
</g>
<!-- Node15&#45;&gt;Node17 -->
<g id="edge33" class="edge"><title>Node15&#45;&gt;Node17</title>
<path fill="none" stroke="midnightblue" d="M755.239,-233.138C846.38,-222.436 1039.97,-199.706 1144.98,-187.375"/>
<polygon fill="midnightblue" stroke="midnightblue" points="1145.65,-190.821 1155.17,-186.179 1144.83,-183.869 1145.65,-190.821"/>
</g>
<!-- Node18 -->
<g id="node18" class="node"><title>Node18</title>
<g id="a_node18"><a xlink:href="../../d8/d35/PhysConst_8hpp.html" target="_top" xlink:title="PhysConst provides particle information to the framework. ">
<polygon fill="white" stroke="red" points="667.312,-112.5 667.312,-131.5 775.312,-131.5 775.312,-112.5 667.312,-112.5"/>
<text text-anchor="middle" x="721.312" y="-119.5" font-family="Helvetica,sans-Serif" font-size="10.00">Core/PhysConst.hpp</text>
</a>
</g>
</g>
<!-- Node15&#45;&gt;Node18 -->
<g id="edge38" class="edge"><title>Node15&#45;&gt;Node18</title>
<path fill="none" stroke="midnightblue" d="M693.939,-230.5C677.912,-217.418 651.846,-191.408 663.312,-168 669.835,-154.684 682.408,-144.177 694.185,-136.676"/>
<polygon fill="midnightblue" stroke="midnightblue" points="696.083,-139.621 702.923,-131.529 692.53,-133.589 696.083,-139.621"/>
</g>
<!-- Node17&#45;&gt;Node2 -->
<g id="edge34" class="edge"><title>Node17&#45;&gt;Node2</title>
<path fill="none" stroke="midnightblue" d="M1203.13,-168.324C1182.84,-155.18 1142.52,-129.863 1106.31,-112 1046.58,-82.5305 1031.89,-72.2814 967.312,-56 835.505,-22.7709 673.337,-14.0702 601.11,-11.7988"/>
<polygon fill="midnightblue" stroke="midnightblue" points="600.812,-8.28871 590.714,-11.4973 600.609,-15.2858 600.812,-8.28871"/>
</g>
<!-- Node17&#45;&gt;Node8 -->
<g id="edge35" class="edge"><title>Node17&#45;&gt;Node8</title>
<path fill="none" stroke="midnightblue" d="M1198.6,-168.442C1170.84,-155.229 1115.19,-129.559 1066.31,-112 1024.25,-96.8885 974.438,-83.2318 942.619,-75.0258"/>
<polygon fill="midnightblue" stroke="midnightblue" points="943.11,-71.5391 932.555,-72.4577 941.379,-78.3217 943.11,-71.5391"/>
</g>
<!-- Node17&#45;&gt;Node10 -->
<g id="edge37" class="edge"><title>Node17&#45;&gt;Node10</title>
<path fill="none" stroke="midnightblue" d="M1181.77,-168.444C1144.06,-159.102 1083.57,-144.119 1042.45,-133.933"/>
<polygon fill="midnightblue" stroke="midnightblue" points="1043.24,-130.524 1032.69,-131.516 1041.56,-137.318 1043.24,-130.524"/>
</g>
<!-- Node17&#45;&gt;Node11 -->
<g id="edge36" class="edge"><title>Node17&#45;&gt;Node11</title>
<path fill="none" stroke="midnightblue" d="M1268.05,-168.487C1296.36,-161.956 1330.93,-150.762 1357.31,-132 1382.67,-113.971 1389.47,-105.515 1399.31,-76 1402.12,-67.5673 1404.25,-63.388 1399.31,-56 1382,-30.1272 1346.8,-19.1137 1321.07,-14.4355"/>
<polygon fill="midnightblue" stroke="midnightblue" points="1321.47,-10.9553 1311.05,-12.8404 1320.37,-17.8684 1321.47,-10.9553"/>
</g>
<!-- Node18&#45;&gt;Node2 -->
<g id="edge39" class="edge"><title>Node18&#45;&gt;Node2</title>
<path fill="none" stroke="midnightblue" d="M681.253,-112.423C645.324,-103.97 596.188,-90.2802 582.312,-76 570.417,-63.758 565.903,-44.4948 564.224,-30.112"/>
<polygon fill="midnightblue" stroke="midnightblue" points="567.689,-29.538 563.398,-19.8509 560.711,-30.0995 567.689,-29.538"/>
</g>
<!-- Node18&#45;&gt;Node8 -->
<g id="edge40" class="edge"><title>Node18&#45;&gt;Node8</title>
<path fill="none" stroke="midnightblue" d="M751.26,-112.444C785.933,-102.537 842.816,-86.2846 878.331,-76.1375"/>
<polygon fill="midnightblue" stroke="midnightblue" points="879.528,-79.4356 888.182,-73.323 877.605,-72.7049 879.528,-79.4356"/>
</g>
<!-- Node18&#45;&gt;Node13 -->
<g id="edge41" class="edge"><title>Node18&#45;&gt;Node13</title>
<path fill="none" stroke="midnightblue" d="M708.78,-112.324C696.726,-103.979 678.285,-91.2122 664.043,-81.3524"/>
<polygon fill="midnightblue" stroke="midnightblue" points="666.027,-78.469 655.813,-75.6545 662.043,-84.2243 666.027,-78.469"/>
</g>
<!-- Node19&#45;&gt;Node2 -->
<g id="edge45" class="edge"><title>Node19&#45;&gt;Node2</title>
<path fill="none" stroke="midnightblue" d="M1493.87,-230.481C1488.25,-200.304 1464.83,-98.0595 1399.31,-56 1331.53,-12.4824 754.266,-10.5887 600.705,-10.8631"/>
<polygon fill="midnightblue" stroke="midnightblue" points="600.386,-7.36367 590.394,-10.886 600.401,-14.3637 600.386,-7.36367"/>
</g>
<!-- Node19&#45;&gt;Node8 -->
<g id="edge47" class="edge"><title>Node19&#45;&gt;Node8</title>
<path fill="none" stroke="midnightblue" d="M1482.36,-230.343C1442.97,-204.169 1324.66,-126.759 1281.31,-112 1161.17,-71.0961 1008.02,-66.4284 942.45,-66.5024"/>
<polygon fill="midnightblue" stroke="midnightblue" points="942.317,-63.0029 932.335,-66.5534 942.352,-70.0028 942.317,-63.0029"/>
</g>
<!-- Node19&#45;&gt;Node9 -->
<g id="edge51" class="edge"><title>Node19&#45;&gt;Node9</title>
<path fill="none" stroke="midnightblue" d="M1439.78,-230.476C1424.42,-228.238 1407.73,-225.916 1392.31,-224 1267.09,-208.441 1121.2,-194.197 1033.66,-186.068"/>
<polygon fill="midnightblue" stroke="midnightblue" points="1033.82,-182.568 1023.54,-185.131 1033.17,-189.538 1033.82,-182.568"/>
</g>
<!-- Node19&#45;&gt;Node10 -->
<g id="edge50" class="edge"><title>Node19&#45;&gt;Node10</title>
<path fill="none" stroke="midnightblue" d="M1436.68,-230.459C1337.49,-216.007 1147.18,-188.259 1146.31,-188 1126.12,-181.968 1122.56,-176.597 1103.31,-168 1078.14,-156.757 1049.35,-144.458 1028.29,-135.563"/>
<polygon fill="midnightblue" stroke="midnightblue" points="1029.49,-132.269 1018.91,-131.611 1026.77,-138.719 1029.49,-132.269"/>
</g>
<!-- Node19&#45;&gt;Node11 -->
<g id="edge46" class="edge"><title>Node19&#45;&gt;Node11</title>
<path fill="none" stroke="midnightblue" d="M1497.19,-230.376C1502.94,-201.539 1517.19,-107.394 1471.31,-56 1451.56,-33.8701 1367.36,-20.3661 1321.09,-14.4769"/>
<polygon fill="midnightblue" stroke="midnightblue" points="1321.36,-10.9847 1311.01,-13.2388 1320.51,-17.9325 1321.36,-10.9847"/>
</g>
<!-- Node19&#45;&gt;Node12 -->
<g id="edge48" class="edge"><title>Node19&#45;&gt;Node12</title>
<path fill="none" stroke="midnightblue" d="M1484.92,-230.323C1473.79,-220.707 1456.02,-204.385 1443.31,-188 1417.02,-154.107 1393.66,-109.336 1381.72,-84.864"/>
<polygon fill="midnightblue" stroke="midnightblue" points="1384.81,-83.2107 1377.33,-75.7098 1378.5,-86.2397 1384.81,-83.2107"/>
</g>
<!-- Node20 -->
<g id="node20" class="node"><title>Node20</title>
<polygon fill="white" stroke="#bfbfbf" points="1523.31,-168.5 1523.31,-187.5 1631.31,-187.5 1631.31,-168.5 1523.31,-168.5"/>
<text text-anchor="middle" x="1577.31" y="-175.5" font-family="Helvetica,sans-Serif" font-size="10.00">boost/shared_ptr.hpp</text>
</g>
<!-- Node19&#45;&gt;Node20 -->
<g id="edge49" class="edge"><title>Node19&#45;&gt;Node20</title>
<path fill="none" stroke="midnightblue" d="M1507.06,-230.403C1520.21,-220.78 1541.75,-205.024 1557.51,-193.489"/>
<polygon fill="midnightblue" stroke="midnightblue" points="1559.58,-196.31 1565.59,-187.581 1555.45,-190.661 1559.58,-196.31"/>
</g>
<!-- Node23&#45;&gt;Node2 -->
<g id="edge58" class="edge"><title>Node23&#45;&gt;Node2</title>
<path fill="none" stroke="midnightblue" d="M1039.65,-297.542C920.536,-292.108 716.933,-279.661 646.312,-256 591.814,-237.741 567.787,-236.092 536.312,-188 504.185,-138.91 515.721,-111.301 535.312,-56 538.84,-46.0435 544.834,-35.9676 550.373,-27.8816"/>
<polygon fill="midnightblue" stroke="midnightblue" points="553.258,-29.8653 556.278,-19.7101 547.584,-25.7652 553.258,-29.8653"/>
</g>
<!-- Node23&#45;&gt;Node4 -->
<g id="edge60" class="edge"><title>Node23&#45;&gt;Node4</title>
<path fill="none" stroke="midnightblue" d="M1039.75,-297.228C920.757,-291.431 717.291,-278.566 646.312,-256 518.069,-215.227 385.141,-118.769 337.063,-81.7861"/>
<polygon fill="midnightblue" stroke="midnightblue" points="339.139,-78.9669 329.093,-75.5996 334.846,-84.4964 339.139,-78.9669"/>
</g>
<!-- Node23&#45;&gt;Node8 -->
<g id="edge56" class="edge"><title>Node23&#45;&gt;Node8</title>
<path fill="none" stroke="midnightblue" d="M1128.8,-292.497C1128.34,-276.721 1129.74,-242.817 1148.31,-224 1194.8,-176.887 1325.55,-221.305 1286.31,-168 1244.95,-111.812 1025.77,-80.5631 942.468,-70.5716"/>
<polygon fill="midnightblue" stroke="midnightblue" points="942.665,-67.0706 932.325,-69.3799 941.848,-74.0228 942.665,-67.0706"/>
</g>
<!-- Node23&#45;&gt;Node10 -->
<g id="edge64" class="edge"><title>Node23&#45;&gt;Node10</title>
<path fill="none" stroke="midnightblue" d="M1124.81,-292.42C1120.1,-283.4 1112.55,-268.772 1106.31,-256 1087.38,-217.228 1093.36,-200.787 1065.31,-168 1054.21,-155.024 1038.49,-144.204 1025.07,-136.428"/>
<polygon fill="midnightblue" stroke="midnightblue" points="1026.68,-133.316 1016.23,-131.542 1023.29,-139.442 1026.68,-133.316"/>
</g>
<!-- Node23&#45;&gt;Node11 -->
<g id="edge57" class="edge"><title>Node23&#45;&gt;Node11</title>
<path fill="none" stroke="midnightblue" d="M1219.05,-297.089C1350.1,-290.715 1581.84,-276.687 1614.31,-256 1647.74,-234.703 1659.31,-218.638 1659.31,-179 1659.31,-179 1659.31,-179 1659.31,-121 1659.31,-50.58 1409.38,-21.5655 1320.9,-13.5003"/>
<polygon fill="midnightblue" stroke="midnightblue" points="1321.21,-10.0139 1310.94,-12.6192 1320.59,-16.9867 1321.21,-10.0139"/>
</g>
<!-- Node23&#45;&gt;Node15 -->
<g id="edge67" class="edge"><title>Node23&#45;&gt;Node15</title>
<path fill="none" stroke="midnightblue" d="M1039.78,-292.47C966.698,-284.87 860.916,-272.412 769.312,-256 762.595,-254.796 755.524,-253.337 748.631,-251.806"/>
<polygon fill="midnightblue" stroke="midnightblue" points="749.25,-248.358 738.721,-249.535 747.686,-255.181 749.25,-248.358"/>
</g>
<!-- Node23&#45;&gt;Node16 -->
<g id="edge59" class="edge"><title>Node23&#45;&gt;Node16</title>
<path fill="none" stroke="midnightblue" d="M1039.76,-293.516C991.996,-287.342 932.998,-276.161 883.312,-256 845.545,-240.676 807.337,-211.852 785.853,-194.147"/>
<polygon fill="midnightblue" stroke="midnightblue" points="787.88,-191.278 777.971,-187.527 783.377,-196.638 787.88,-191.278"/>
</g>
<!-- Node23&#45;&gt;Node17 -->
<g id="edge65" class="edge"><title>Node23&#45;&gt;Node17</title>
<path fill="none" stroke="midnightblue" d="M1123.93,-292.123C1115.47,-276.909 1101.4,-245.425 1115.31,-224 1125.72,-207.97 1143.31,-197.602 1160.92,-190.916"/>
<polygon fill="midnightblue" stroke="midnightblue" points="1162.34,-194.129 1170.66,-187.569 1160.06,-187.509 1162.34,-194.129"/>
</g>
<!-- Node23&#45;&gt;Node18 -->
<g id="edge66" class="edge"><title>Node23&#45;&gt;Node18</title>
<path fill="none" stroke="midnightblue" d="M1109.63,-292.415C1043.54,-263.578 829.234,-170.083 750.595,-135.775"/>
<polygon fill="midnightblue" stroke="midnightblue" points="751.837,-132.499 741.271,-131.708 749.038,-138.915 751.837,-132.499"/>
</g>
<!-- Node23&#45;&gt;Node19 -->
<g id="edge68" class="edge"><title>Node23&#45;&gt;Node19</title>
<path fill="none" stroke="midnightblue" d="M1181.36,-292.467C1247.76,-281.582 1362.47,-262.778 1433.32,-251.163"/>
<polygon fill="midnightblue" stroke="midnightblue" points="1434.14,-254.575 1443.44,-249.503 1433.01,-247.667 1434.14,-254.575"/>
</g>
<!-- Node23&#45;&gt;Node20 -->
<g id="edge63" class="edge"><title>Node23&#45;&gt;Node20</title>
<path fill="none" stroke="midnightblue" d="M1218.82,-298.75C1347.57,-294.575 1572.41,-283.414 1597.31,-256 1612.28,-239.525 1600.48,-213.278 1589.68,-196.091"/>
<polygon fill="midnightblue" stroke="midnightblue" points="1592.44,-193.935 1583.96,-187.595 1586.64,-197.845 1592.44,-193.935"/>
</g>
<!-- Node24 -->
<g id="node24" class="node"><title>Node24</title>
<polygon fill="white" stroke="#bfbfbf" points="1157.31,-225 1157.31,-255 1261.31,-255 1261.31,-225 1157.31,-225"/>
<text text-anchor="start" x="1165.31" y="-243" font-family="Helvetica,sans-Serif" font-size="10.00">boost/numeric/ublas</text>
<text text-anchor="middle" x="1209.31" y="-232" font-family="Helvetica,sans-Serif" font-size="10.00">/symmetric.hpp</text>
</g>
<!-- Node23&#45;&gt;Node24 -->
<g id="edge61" class="edge"><title>Node23&#45;&gt;Node24</title>
<path fill="none" stroke="midnightblue" d="M1140.77,-292.403C1151.61,-284.277 1168.27,-271.779 1182.46,-261.142"/>
<polygon fill="midnightblue" stroke="midnightblue" points="1184.56,-263.941 1190.46,-255.141 1180.36,-258.341 1184.56,-263.941"/>
</g>
<!-- Node25 -->
<g id="node25" class="node"><title>Node25</title>
<polygon fill="white" stroke="#bfbfbf" points="1279.31,-225 1279.31,-255 1383.31,-255 1383.31,-225 1279.31,-225"/>
<text text-anchor="start" x="1287.31" y="-243" font-family="Helvetica,sans-Serif" font-size="10.00">boost/numeric/ublas</text>
<text text-anchor="middle" x="1331.31" y="-232" font-family="Helvetica,sans-Serif" font-size="10.00">/io.hpp</text>
</g>
<!-- Node23&#45;&gt;Node25 -->
<g id="edge62" class="edge"><title>Node23&#45;&gt;Node25</title>
<path fill="none" stroke="midnightblue" d="M1158.25,-292.403C1188.4,-283.45 1236.41,-269.19 1274.22,-257.958"/>
<polygon fill="midnightblue" stroke="midnightblue" points="1275.5,-261.228 1284.09,-255.025 1273.51,-254.518 1275.5,-261.228"/>
</g>
</g>
</svg>
