<?xml version="1.0" encoding="UTF-8" standalone="no"?>
<!DOCTYPE svg PUBLIC "-//W3C//DTD SVG 1.1//EN"
 "http://www.w3.org/Graphics/SVG/1.1/DTD/svg11.dtd">
<!-- Generated by graphviz version 2.26.3 (20100126.1600)
 -->
<!-- Title: G Pages: 1 -->
<svg width="3917pt" height="146pt"
 viewBox="0.00 0.00 3917.00 146.00" xmlns="http://www.w3.org/2000/svg" xmlns:xlink="http://www.w3.org/1999/xlink">
<g id="graph1" class="graph" transform="scale(1 1) rotate(0) translate(4 142)">
<title>G</title>
<polygon fill="white" stroke="white" points="-4,5 -4,-142 3914,-142 3914,5 -4,5"/>
<!-- Node1 -->
<g id="node1" class="node"><title>Node1</title>
<polygon fill="#bfbfbf" stroke="black" points="2008.5,-116.5 2008.5,-137.5 2125.5,-137.5 2125.5,-116.5 2008.5,-116.5"/>
<text text-anchor="middle" x="2067" y="-124.5" font-family="Helvetica,sans-Serif" font-size="10.00">Physics/Amplitude.hpp</text>
</g>
<!-- Node2 -->
<g id="node3" class="node"><title>Node2</title>
<a xlink:href="../../dc/d53/Dictionary_8cpp.xhtml" target="_top" xlink:title="Core/Dictionary.cpp">
<polygon fill="white" stroke="black" points="0,-0.5 0,-21.5 104,-21.5 104,-0.5 0,-0.5"/>
<text text-anchor="middle" x="52" y="-8.5" font-family="Helvetica,sans-Serif" font-size="10.00">Core/Dictionary.cpp</text>
</a>
</g>
<!-- Node1&#45;&gt;Node2 -->
<g id="edge2" class="edge"><title>Node1&#45;&gt;Node2</title>
<path fill="none" stroke="midnightblue" d="M1998.03,-126.256C1667.68,-122.573 259.465,-105.431 170,-80 128.226,-68.1257 85.8778,-37.9688 65.1226,-21.7355"/>
<polygon fill="midnightblue" stroke="midnightblue" points="1998.37,-129.76 2008.4,-126.372 1998.44,-122.761 1998.37,-129.76"/>
</g>
<!-- Node3 -->
<g id="node5" class="node"><title>Node3</title>
<a xlink:href="../../d5/dc2/Dictionary_8hpp.xhtml" target="_top" xlink:title="This class gathers information from modules, namely what they need as input and what they provide as ...">
<polygon fill="white" stroke="black" points="179,-58.5 179,-79.5 283,-79.5 283,-58.5 179,-58.5"/>
<text text-anchor="middle" x="231" y="-66.5" font-family="Helvetica,sans-Serif" font-size="10.00">Core/Dictionary.hpp</text>
</a>
</g>
<!-- Node1&#45;&gt;Node3 -->
<g id="edge4" class="edge"><title>Node1&#45;&gt;Node3</title>
<path fill="none" stroke="midnightblue" d="M1997.98,-126.01C1769.56,-122.528 1017.33,-109.438 396,-80 358.289,-78.2133 315.784,-75.3597 283.36,-73.0067"/>
<polygon fill="midnightblue" stroke="midnightblue" points="1998.09,-129.511 2008.14,-126.163 1998.19,-122.512 1998.09,-129.511"/>
</g>
<!-- Node4 -->
<g id="node8" class="node"><title>Node4</title>
<a xlink:href="../../db/d94/RunManager_8cpp.xhtml" target="_top" xlink:title="Core/RunManager.cpp">
<polygon fill="white" stroke="black" points="121.5,-0.5 121.5,-21.5 236.5,-21.5 236.5,-0.5 121.5,-0.5"/>
<text text-anchor="middle" x="179" y="-8.5" font-family="Helvetica,sans-Serif" font-size="10.00">Core/RunManager.cpp</text>
</a>
</g>
<!-- Node1&#45;&gt;Node4 -->
<g id="edge8" class="edge"><title>Node1&#45;&gt;Node4</title>
<path fill="none" stroke="midnightblue" d="M1997.9,-125.828C1748.89,-121.434 898.033,-104.911 627,-80 483.985,-66.8552 317.198,-37.3853 233.216,-21.5467"/>
<polygon fill="midnightblue" stroke="midnightblue" points="1998.19,-129.333 2008.25,-126.009 1998.31,-122.334 1998.19,-129.333"/>
</g>
<!-- Node5 -->
<g id="node10" class="node"><title>Node5</title>
<a xlink:href="../../db/d41/RunManager_8hpp.xhtml" target="_top" xlink:title="This class provides a RunManager for simple fits.">
<polygon fill="white" stroke="black" points="635.5,-58.5 635.5,-79.5 750.5,-79.5 750.5,-58.5 635.5,-58.5"/>
<text text-anchor="middle" x="693" y="-66.5" font-family="Helvetica,sans-Serif" font-size="10.00">Core/RunManager.hpp</text>
</a>
</g>
<!-- Node1&#45;&gt;Node5 -->
<g id="edge10" class="edge"><title>Node1&#45;&gt;Node5</title>
<path fill="none" stroke="midnightblue" d="M1998.44,-125.684C1765.26,-121.027 1003.78,-104.296 760,-80 756.95,-79.6961 753.829,-79.3404 750.682,-78.9466"/>
<polygon fill="midnightblue" stroke="midnightblue" points="1998.42,-129.184 2008.49,-125.884 1998.56,-122.186 1998.42,-129.184"/>
</g>
<!-- Node7 -->
<g id="node15" class="node"><title>Node7</title>
<a xlink:href="../../d5/d8d/ChiOneD_8hpp.xhtml" target="_top" xlink:title="This class calculates a simple &#160;of a intensity and a dataset.">
<polygon fill="white" stroke="black" points="769,-58.5 769,-79.5 933,-79.5 933,-58.5 769,-58.5"/>
<text text-anchor="middle" x="851" y="-66.5" font-family="Helvetica,sans-Serif" font-size="10.00">Estimator/ChiOneD/ChiOneD.hpp</text>
</a>
</g>
<!-- Node1&#45;&gt;Node7 -->
<g id="edge16" class="edge"><title>Node1&#45;&gt;Node7</title>
<path fill="none" stroke="midnightblue" d="M1998.07,-124.386C1830.53,-117.929 1388.59,-100.266 1020,-80 991.67,-78.4423 960.684,-76.4959 933.07,-74.6752"/>
<polygon fill="midnightblue" stroke="midnightblue" points="1998.1,-127.89 2008.23,-124.777 1998.37,-120.895 1998.1,-127.89"/>
</g>
<!-- Node11 -->
<g id="node23" class="node"><title>Node11</title>
<a xlink:href="../../d7/de4/MinLogLH_8hpp.xhtml" target="_top" xlink:title="This class calculates a simple &#45;log(LH) of a intensity and a dataset.">
<polygon fill="white" stroke="black" points="1488,-58.5 1488,-79.5 1660,-79.5 1660,-58.5 1488,-58.5"/>
<text text-anchor="middle" x="1574" y="-66.5" font-family="Helvetica,sans-Serif" font-size="10.00">Estimator/MinLogLH/MinLogLH.hpp</text>
</a>
</g>
<!-- Node1&#45;&gt;Node11 -->
<g id="edge24" class="edge"><title>Node1&#45;&gt;Node11</title>
<path fill="none" stroke="midnightblue" d="M1997.83,-118.863C1909.42,-108.462 1756.36,-90.4537 1660.38,-79.1622"/>
<polygon fill="midnightblue" stroke="midnightblue" points="1997.68,-122.369 2008.02,-120.061 1998.5,-115.417 1997.68,-122.369"/>
</g>
<!-- Node15 -->
<g id="node33" class="node"><title>Node15</title>
<a xlink:href="../../da/d67/SliceFit_8hpp.xhtml" target="_top" xlink:title="This class performs a Chi2&#45;Fit on slices along one axis of a dalitz&#45;plot.">
<polygon fill="white" stroke="black" points="2320.5,-58.5 2320.5,-79.5 2469.5,-79.5 2469.5,-58.5 2320.5,-58.5"/>
<text text-anchor="middle" x="2395" y="-66.5" font-family="Helvetica,sans-Serif" font-size="10.00">Estimator/SliceFit/SliceFit.hpp</text>
</a>
</g>
<!-- Node1&#45;&gt;Node15 -->
<g id="edge36" class="edge"><title>Node1&#45;&gt;Node15</title>
<path fill="none" stroke="midnightblue" d="M2135.63,-114.863C2194.75,-104.411 2279.19,-89.4789 2335.48,-79.5241"/>
<polygon fill="midnightblue" stroke="midnightblue" points="2134.88,-111.443 2125.64,-116.631 2136.1,-118.336 2134.88,-111.443"/>
</g>
<!-- Node17 -->
<g id="node37" class="node"><title>Node17</title>
<a xlink:href="../../d3/de6/StockLeastSquares_8hpp.xhtml" target="_top" xlink:title="This class calculates a simple square&#45;sum of a stock&#45;model and stock value.">
<polygon fill="white" stroke="black" points="2545,-58.5 2545,-79.5 2799,-79.5 2799,-58.5 2545,-58.5"/>
<text text-anchor="middle" x="2672" y="-66.5" font-family="Helvetica,sans-Serif" font-size="10.00">Estimator/StockLeastSquares/StockLeastSquares.hpp</text>
</a>
</g>
<!-- Node1&#45;&gt;Node17 -->
<g id="edge40" class="edge"><title>Node1&#45;&gt;Node17</title>
<path fill="none" stroke="midnightblue" d="M2135.63,-120.421C2239.61,-110.452 2438.1,-91.4234 2562.28,-79.5184"/>
<polygon fill="midnightblue" stroke="midnightblue" points="2135.18,-116.948 2125.56,-121.386 2135.85,-123.916 2135.18,-116.948"/>
</g>
<!-- Node21 -->
<g id="node45" class="node"><title>Node21</title>
<a xlink:href="../../db/dd9/AmpSumIntensity_8cpp.xhtml" target="_top" xlink:title="Physics/AmplitudeSum/AmpSumIntensity.cpp">
<polygon fill="white" stroke="black" points="1890,-0.5 1890,-21.5 2108,-21.5 2108,-0.5 1890,-0.5"/>
<text text-anchor="middle" x="1999" y="-8.5" font-family="Helvetica,sans-Serif" font-size="10.00">Physics/AmplitudeSum/AmpSumIntensity.cpp</text>
</a>
</g>
<!-- Node1&#45;&gt;Node21 -->
<g id="edge48" class="edge"><title>Node1&#45;&gt;Node21</title>
<path fill="none" stroke="midnightblue" d="M2044.19,-109.745C2034.87,-101.638 2024.72,-91.2775 2018,-80 2006.8,-61.2152 2002.02,-35.6462 2000.13,-21.5"/>
<polygon fill="midnightblue" stroke="midnightblue" points="2042.12,-112.579 2052.06,-116.256 2046.59,-107.185 2042.12,-112.579"/>
</g>
<!-- Node22 -->
<g id="node47" class="node"><title>Node22</title>
<a xlink:href="../../d0/d2a/AmpSumIntensity_8hpp.xhtml" target="_top" xlink:title="Physics/AmplitudeSum/AmpSumIntensity.hpp">
<polygon fill="white" stroke="black" points="2027,-58.5 2027,-79.5 2245,-79.5 2245,-58.5 2027,-58.5"/>
<text text-anchor="middle" x="2136" y="-66.5" font-family="Helvetica,sans-Serif" font-size="10.00">Physics/AmplitudeSum/AmpSumIntensity.hpp</text>
</a>
</g>
<!-- Node1&#45;&gt;Node22 -->
<g id="edge50" class="edge"><title>Node1&#45;&gt;Node22</title>
<path fill="none" stroke="midnightblue" d="M2087.59,-109.691C2099.24,-99.8996 2113.43,-87.973 2123.42,-79.5707"/>
<polygon fill="midnightblue" stroke="midnightblue" points="2085.06,-107.248 2079.66,-116.362 2089.56,-112.607 2085.06,-107.248"/>
</g>
<!-- Node25 -->
<g id="node55" class="node"><title>Node25</title>
<a xlink:href="../../dc/d4f/AmpSumSliceIntensity_8hpp.xhtml" target="_top" xlink:title="Physics/AmplitudeSum/AmpSumSliceIntensity.hpp">
<polygon fill="white" stroke="black" points="3255,-58.5 3255,-79.5 3495,-79.5 3495,-58.5 3255,-58.5"/>
<text text-anchor="middle" x="3375" y="-66.5" font-family="Helvetica,sans-Serif" font-size="10.00">Physics/AmplitudeSum/AmpSumSliceIntensity.hpp</text>
</a>
</g>
<!-- Node1&#45;&gt;Node25 -->
<g id="edge60" class="edge"><title>Node1&#45;&gt;Node25</title>
<path fill="none" stroke="midnightblue" d="M2135.83,-125.344C2317.44,-120.739 2824.58,-106.354 3246,-80 3248.92,-79.8176 3251.87,-79.6254 3254.85,-79.4248"/>
<polygon fill="midnightblue" stroke="midnightblue" points="2135.53,-121.85 2125.63,-125.601 2135.71,-128.848 2135.53,-121.85"/>
</g>
<!-- Node26 -->
<g id="node57" class="node"><title>Node26</title>
<a xlink:href="../../d6/d5d/AmpSumTree_8hpp.xhtml" target="_top" xlink:title="Physics/AmplitudeSum/AmpSumTree.hpp">
<polygon fill="white" stroke="black" points="3513,-58.5 3513,-79.5 3713,-79.5 3713,-58.5 3513,-58.5"/>
<text text-anchor="middle" x="3613" y="-66.5" font-family="Helvetica,sans-Serif" font-size="10.00">Physics/AmplitudeSum/AmpSumTree.hpp</text>
</a>
</g>
<!-- Node1&#45;&gt;Node26 -->
<g id="edge62" class="edge"><title>Node1&#45;&gt;Node26</title>
<path fill="none" stroke="midnightblue" d="M2135.7,-126.407C2342.67,-124.264 2978.33,-115.08 3504,-80 3506.94,-79.8037 3509.93,-79.5908 3512.94,-79.3642"/>
<polygon fill="midnightblue" stroke="midnightblue" points="2135.55,-122.908 2125.59,-126.509 2135.62,-129.907 2135.55,-122.908"/>
</g>
<!-- Node27 -->
<g id="node59" class="node"><title>Node27</title>
<a xlink:href="../../db/d41/BlackScholes_8hpp.xhtml" target="_top" xlink:title="This class implements a Black&#45;Scholes model of stock price developments.">
<polygon fill="white" stroke="black" points="2816.5,-58.5 2816.5,-79.5 3013.5,-79.5 3013.5,-58.5 2816.5,-58.5"/>
<text text-anchor="middle" x="2915" y="-66.5" font-family="Helvetica,sans-Serif" font-size="10.00">Physics/BlackScholes/BlackScholes.hpp</text>
</a>
</g>
<!-- Node1&#45;&gt;Node27 -->
<g id="edge64" class="edge"><title>Node1&#45;&gt;Node27</title>
<path fill="none" stroke="midnightblue" d="M2135.94,-123.53C2266.97,-116.733 2560.98,-100.524 2808,-80 2810.79,-79.7681 2813.62,-79.5256 2816.48,-79.2745"/>
<polygon fill="midnightblue" stroke="midnightblue" points="2135.46,-120.05 2125.65,-124.061 2135.82,-127.04 2135.46,-120.05"/>
</g>
<!-- Node29 -->
<g id="node64" class="node"><title>Node29</title>
<a xlink:href="../../d3/da8/BreitWigner_8hpp.xhtml" target="_top" xlink:title="This class provides a simple Breit&#45;Wigner calculation with given parameters.">
<polygon fill="white" stroke="black" points="1028.5,-58.5 1028.5,-79.5 1207.5,-79.5 1207.5,-58.5 1028.5,-58.5"/>
<text text-anchor="middle" x="1118" y="-66.5" font-family="Helvetica,sans-Serif" font-size="10.00">Physics/BreitWigner/BreitWigner.hpp</text>
</a>
</g>
<!-- Node1&#45;&gt;Node29 -->
<g id="edge70" class="edge"><title>Node1&#45;&gt;Node29</title>
<path fill="none" stroke="midnightblue" d="M1998.36,-122.805C1829.89,-112.509 1396,-85.9906 1207.57,-74.4741"/>
<polygon fill="midnightblue" stroke="midnightblue" points="1998.16,-126.299 2008.35,-123.416 1998.58,-119.312 1998.16,-126.299"/>
</g>
<!-- Node33 -->
<g id="node76" class="node"><title>Node33</title>
<a xlink:href="../../db/dc4/NeuralNetwork_8hpp.xhtml" target="_top" xlink:title="This class implements a neural network to model of stock price developments.">
<polygon fill="white" stroke="black" points="3030.5,-58.5 3030.5,-79.5 3237.5,-79.5 3237.5,-58.5 3030.5,-58.5"/>
<text text-anchor="middle" x="3134" y="-66.5" font-family="Helvetica,sans-Serif" font-size="10.00">Physics/NeuralNetwork/NeuralNetwork.hpp</text>
</a>
</g>
<!-- Node1&#45;&gt;Node33 -->
<g id="edge86" class="edge"><title>Node1&#45;&gt;Node33</title>
<path fill="none" stroke="midnightblue" d="M2135.74,-124.767C2292.86,-119.411 2690.32,-104.435 3022,-80 3024.73,-79.799 3027.49,-79.5871 3030.28,-79.3661"/>
<polygon fill="midnightblue" stroke="midnightblue" points="2135.62,-121.269 2125.74,-125.106 2135.86,-128.265 2135.62,-121.269"/>
</g>
<!-- Node35 -->
<g id="node81" class="node"><title>Node35</title>
<a xlink:href="../../db/d6f/RootGen_8hpp.xhtml" target="_top" xlink:title="Class to generate 4&#45;Vectors.">
<polygon fill="white" stroke="black" points="3730.5,-58.5 3730.5,-79.5 3909.5,-79.5 3909.5,-58.5 3730.5,-58.5"/>
<text text-anchor="middle" x="3820" y="-66.5" font-family="Helvetica,sans-Serif" font-size="10.00">Physics/RootGenerator/RootGen.hpp</text>
</a>
</g>
<!-- Node1&#45;&gt;Node35 -->
<g id="edge92" class="edge"><title>Node1&#45;&gt;Node35</title>
<path fill="none" stroke="midnightblue" d="M2135.72,-125.814C2407.27,-121.009 3405.99,-102.183 3722,-80 3724.73,-79.8082 3727.51,-79.5974 3730.31,-79.3707"/>
<polygon fill="midnightblue" stroke="midnightblue" points="2135.55,-122.316 2125.61,-125.992 2135.67,-129.315 2135.55,-122.316"/>
</g>
<!-- Node3&#45;&gt;Node2 -->
<g id="edge6" class="edge"><title>Node3&#45;&gt;Node2</title>
<path fill="none" stroke="midnightblue" d="M189.067,-55.4127C157.13,-45.0646 113.804,-31.0258 84.4763,-21.5231"/>
<polygon fill="midnightblue" stroke="midnightblue" points="187.992,-58.7437 198.584,-58.4966 190.15,-52.0845 187.992,-58.7437"/>
</g>
<!-- Node5&#45;&gt;Node4 -->
<g id="edge12" class="edge"><title>Node5&#45;&gt;Node4</title>
<path fill="none" stroke="midnightblue" d="M625.123,-63.1699C537.227,-55.3246 379.364,-40.2281 245,-22 242.237,-21.6252 239.413,-21.224 236.562,-20.8047"/>
<polygon fill="midnightblue" stroke="midnightblue" points="624.958,-66.669 635.229,-64.0674 625.578,-59.6964 624.958,-66.669"/>
</g>
<!-- Node6 -->
<g id="node13" class="node"><title>Node6</title>
<a xlink:href="../../dd/d77/RunManagerTestApp_8cpp.xhtml" target="_top" xlink:title="Test&#45;Application for fit with simple modules using RunManager.">
<polygon fill="white" stroke="black" points="619.5,-0.5 619.5,-21.5 766.5,-21.5 766.5,-0.5 619.5,-0.5"/>
<text text-anchor="middle" x="693" y="-8.5" font-family="Helvetica,sans-Serif" font-size="10.00">test/RunManagerTestApp.cpp</text>
</a>
</g>
<!-- Node5&#45;&gt;Node6 -->
<g id="edge14" class="edge"><title>Node5&#45;&gt;Node6</title>
<path fill="none" stroke="midnightblue" d="M693,-48.1906C693,-39.1684 693,-28.9941 693,-21.5707"/>
<polygon fill="midnightblue" stroke="midnightblue" points="689.5,-48.3619 693,-58.3619 696.5,-48.3619 689.5,-48.3619"/>
</g>
<!-- Node8 -->
<g id="node17" class="node"><title>Node8</title>
<a xlink:href="../../d1/d9e/ChiOneD_8cpp.xhtml" target="_top" xlink:title="Estimator/ChiOneD/ChiOneD.cpp">
<polygon fill="white" stroke="black" points="254,-0.5 254,-21.5 418,-21.5 418,-0.5 254,-0.5"/>
<text text-anchor="middle" x="336" y="-8.5" font-family="Helvetica,sans-Serif" font-size="10.00">Estimator/ChiOneD/ChiOneD.cpp</text>
</a>
</g>
<!-- Node7&#45;&gt;Node8 -->
<g id="edge18" class="edge"><title>Node7&#45;&gt;Node8</title>
<path fill="none" stroke="midnightblue" d="M758.778,-57.9856C609.89,-41.0847 571.287,-38.5427 427,-22 424.154,-21.6737 421.259,-21.3389 418.335,-20.9985"/>
<polygon fill="midnightblue" stroke="midnightblue" points="758.415,-61.4669 768.746,-59.12 759.206,-54.5117 758.415,-61.4669"/>
</g>
<!-- Node9 -->
<g id="node19" class="node"><title>Node9</title>
<a xlink:href="../../d4/d31/EstimatorTestApp_8cpp.xhtml" target="_top" xlink:title="Test&#45;Application of a simple &#160;estimator.">
<polygon fill="white" stroke="black" points="784,-0.5 784,-21.5 918,-21.5 918,-0.5 784,-0.5"/>
<text text-anchor="middle" x="851" y="-8.5" font-family="Helvetica,sans-Serif" font-size="10.00">test/EstimatorTestApp.cpp</text>
</a>
</g>
<!-- Node7&#45;&gt;Node9 -->
<g id="edge20" class="edge"><title>Node7&#45;&gt;Node9</title>
<path fill="none" stroke="midnightblue" d="M851,-48.1906C851,-39.1684 851,-28.9941 851,-21.5707"/>
<polygon fill="midnightblue" stroke="midnightblue" points="847.5,-48.3619 851,-58.3619 854.5,-48.3619 847.5,-48.3619"/>
</g>
<!-- Node10 -->
<g id="node21" class="node"><title>Node10</title>
<a xlink:href="../../d0/d0c/IntegrationTestBinnedApp_8cpp.xhtml" target="_top" xlink:title="test/IntegrationTestBinnedApp.cpp">
<polygon fill="white" stroke="black" points="435.5,-0.5 435.5,-21.5 602.5,-21.5 602.5,-0.5 435.5,-0.5"/>
<text text-anchor="middle" x="519" y="-8.5" font-family="Helvetica,sans-Serif" font-size="10.00">test/IntegrationTestBinnedApp.cpp</text>
</a>
</g>
<!-- Node7&#45;&gt;Node10 -->
<g id="edge22" class="edge"><title>Node7&#45;&gt;Node10</title>
<path fill="none" stroke="midnightblue" d="M780.763,-56.7296C720.966,-46.2833 635.975,-31.4354 579.235,-21.5231"/>
<polygon fill="midnightblue" stroke="midnightblue" points="780.424,-60.2234 790.877,-58.4966 781.629,-53.3278 780.424,-60.2234"/>
</g>
<!-- Node11&#45;&gt;Node6 -->
<g id="edge34" class="edge"><title>Node11&#45;&gt;Node6</title>
<path fill="none" stroke="midnightblue" d="M1477.7,-65.6561C1327.39,-59.9141 1028.01,-46.3772 775,-22 772.283,-21.7383 769.519,-21.4548 766.727,-21.1542"/>
<polygon fill="midnightblue" stroke="midnightblue" points="1477.69,-69.1584 1487.82,-66.0396 1477.96,-62.1635 1477.69,-69.1584"/>
</g>
<!-- Node11&#45;&gt;Node9 -->
<g id="edge30" class="edge"><title>Node11&#45;&gt;Node9</title>
<path fill="none" stroke="midnightblue" d="M1477.69,-64.1506C1351.12,-57.2863 1122,-43.1669 927,-22 924.084,-21.6835 921.108,-21.3401 918.104,-20.9769"/>
<polygon fill="midnightblue" stroke="midnightblue" points="1477.57,-67.6492 1487.75,-64.6924 1477.95,-60.6593 1477.57,-67.6492"/>
</g>
<!-- Node12 -->
<g id="node25" class="node"><title>Node12</title>
<a xlink:href="../../de/d8e/MinLogLH_8cpp.xhtml" target="_top" xlink:title="Estimator/MinLogLH/MinLogLH.cpp">
<polygon fill="white" stroke="black" points="1574,-0.5 1574,-21.5 1746,-21.5 1746,-0.5 1574,-0.5"/>
<text text-anchor="middle" x="1660" y="-8.5" font-family="Helvetica,sans-Serif" font-size="10.00">Estimator/MinLogLH/MinLogLH.cpp</text>
</a>
</g>
<!-- Node11&#45;&gt;Node12 -->
<g id="edge26" class="edge"><title>Node11&#45;&gt;Node12</title>
<path fill="none" stroke="midnightblue" d="M1598.41,-52.5407C1613.15,-42.5973 1631.5,-30.2177 1644.33,-21.5707"/>
<polygon fill="midnightblue" stroke="midnightblue" points="1596.11,-49.8687 1589.77,-58.3619 1600.02,-55.6722 1596.11,-49.8687"/>
</g>
<!-- Node13 -->
<g id="node27" class="node"><title>Node13</title>
<a xlink:href="../../da/d2a/DalitzFitApp_8cpp.xhtml" target="_top" xlink:title="Test&#45;Application for full fit with simple BW&#45;dalitz&#45;model.">
<polygon fill="white" stroke="black" points="1763.5,-0.5 1763.5,-21.5 1872.5,-21.5 1872.5,-0.5 1763.5,-0.5"/>
<text text-anchor="middle" x="1818" y="-8.5" font-family="Helvetica,sans-Serif" font-size="10.00">test/DalitzFitApp.cpp</text>
</a>
</g>
<!-- Node11&#45;&gt;Node13 -->
<g id="edge28" class="edge"><title>Node11&#45;&gt;Node13</title>
<path fill="none" stroke="midnightblue" d="M1628.09,-56.1424C1671.88,-45.7328 1732.81,-31.2511 1773.73,-21.5231"/>
<polygon fill="midnightblue" stroke="midnightblue" points="1627.11,-52.7788 1618.19,-58.4966 1628.72,-59.5891 1627.11,-52.7788"/>
</g>
<!-- Node14 -->
<g id="node30" class="node"><title>Node14</title>
<a xlink:href="../../d5/d26/IntegrationTestApp_8cpp.xhtml" target="_top" xlink:title="Test&#45;Application for full fit with simple modules.">
<polygon fill="white" stroke="black" points="1419.5,-0.5 1419.5,-21.5 1556.5,-21.5 1556.5,-0.5 1419.5,-0.5"/>
<text text-anchor="middle" x="1488" y="-8.5" font-family="Helvetica,sans-Serif" font-size="10.00">test/IntegrationTestApp.cpp</text>
</a>
</g>
<!-- Node11&#45;&gt;Node14 -->
<g id="edge32" class="edge"><title>Node11&#45;&gt;Node14</title>
<path fill="none" stroke="midnightblue" d="M1549.59,-52.5407C1534.85,-42.5973 1516.5,-30.2177 1503.67,-21.5707"/>
<polygon fill="midnightblue" stroke="midnightblue" points="1547.98,-55.6722 1558.23,-58.3619 1551.89,-49.8687 1547.98,-55.6722"/>
</g>
<!-- Node16 -->
<g id="node35" class="node"><title>Node16</title>
<a xlink:href="../../d2/d9b/SliceFit_8cpp.xhtml" target="_top" xlink:title="Estimator/SliceFit/SliceFit.cpp">
<polygon fill="white" stroke="black" points="2477.5,-0.5 2477.5,-21.5 2626.5,-21.5 2626.5,-0.5 2477.5,-0.5"/>
<text text-anchor="middle" x="2552" y="-8.5" font-family="Helvetica,sans-Serif" font-size="10.00">Estimator/SliceFit/SliceFit.cpp</text>
</a>
</g>
<!-- Node15&#45;&gt;Node16 -->
<g id="edge38" class="edge"><title>Node15&#45;&gt;Node16</title>
<path fill="none" stroke="midnightblue" d="M2432.87,-55.0095C2460.77,-44.7023 2498.12,-30.903 2523.52,-21.5231"/>
<polygon fill="midnightblue" stroke="midnightblue" points="2431.6,-51.7481 2423.43,-58.4966 2434.02,-58.3143 2431.6,-51.7481"/>
</g>
<!-- Node18 -->
<g id="node39" class="node"><title>Node18</title>
<a xlink:href="../../db/de2/StockLeastSquares_8cpp.xhtml" target="_top" xlink:title="Estimator/StockLeastSquares/StockLeastSquares.cpp">
<polygon fill="white" stroke="black" points="2644,-0.5 2644,-21.5 2898,-21.5 2898,-0.5 2644,-0.5"/>
<text text-anchor="middle" x="2771" y="-8.5" font-family="Helvetica,sans-Serif" font-size="10.00">Estimator/StockLeastSquares/StockLeastSquares.cpp</text>
</a>
</g>
<!-- Node17&#45;&gt;Node18 -->
<g id="edge42" class="edge"><title>Node17&#45;&gt;Node18</title>
<path fill="none" stroke="midnightblue" d="M2699.14,-53.1009C2716.27,-43.0658 2737.92,-30.3808 2752.96,-21.5707"/>
<polygon fill="midnightblue" stroke="midnightblue" points="2697.02,-50.287 2690.16,-58.3619 2700.56,-56.3268 2697.02,-50.287"/>
</g>
<!-- Node19 -->
<g id="node41" class="node"><title>Node19</title>
<a xlink:href="../../de/dbe/BlackScholesApp_8cpp.xhtml" target="_top" xlink:title="Test&#45;Application for Black&#45;Scholes stock model.">
<polygon fill="white" stroke="black" points="2916,-0.5 2916,-21.5 3048,-21.5 3048,-0.5 2916,-0.5"/>
<text text-anchor="middle" x="2982" y="-8.5" font-family="Helvetica,sans-Serif" font-size="10.00">test/BlackScholesApp.cpp</text>
</a>
</g>
<!-- Node17&#45;&gt;Node19 -->
<g id="edge44" class="edge"><title>Node17&#45;&gt;Node19</title>
<path fill="none" stroke="midnightblue" d="M2738.28,-56.5999C2794.07,-46.1607 2873,-31.3945 2925.76,-21.5231"/>
<polygon fill="midnightblue" stroke="midnightblue" points="2737.32,-53.2172 2728.14,-58.4966 2738.61,-60.0978 2737.32,-53.2172"/>
</g>
<!-- Node20 -->
<g id="node43" class="node"><title>Node20</title>
<a xlink:href="../../dc/d3f/NeuralNetworkApp_8cpp.xhtml" target="_top" xlink:title="test/NeuralNetworkApp.cpp">
<polygon fill="white" stroke="black" points="3065.5,-0.5 3065.5,-21.5 3202.5,-21.5 3202.5,-0.5 3065.5,-0.5"/>
<text text-anchor="middle" x="3134" y="-8.5" font-family="Helvetica,sans-Serif" font-size="10.00">test/NeuralNetworkApp.cpp</text>
</a>
</g>
<!-- Node17&#45;&gt;Node20 -->
<g id="edge46" class="edge"><title>Node17&#45;&gt;Node20</title>
<path fill="none" stroke="midnightblue" d="M2772.96,-57.2464C2850.66,-48.0619 2960.69,-34.7562 3057,-22 3059.68,-21.6454 3062.41,-21.279 3065.16,-20.9049"/>
<polygon fill="midnightblue" stroke="midnightblue" points="2772.21,-53.81 2762.69,-58.4581 2773.03,-60.7617 2772.21,-53.81"/>
</g>
<!-- Node22&#45;&gt;Node13 -->
<g id="edge56" class="edge"><title>Node22&#45;&gt;Node13</title>
<path fill="none" stroke="midnightblue" d="M2068.54,-56.6957C2010.14,-46.0444 1926.76,-30.836 1872.5,-20.9409"/>
<polygon fill="midnightblue" stroke="midnightblue" points="2067.95,-60.1455 2078.41,-58.4966 2069.2,-53.2591 2067.95,-60.1455"/>
</g>
<!-- Node22&#45;&gt;Node21 -->
<g id="edge52" class="edge"><title>Node22&#45;&gt;Node21</title>
<path fill="none" stroke="midnightblue" d="M2101.7,-54.4794C2077.58,-44.2695 2045.86,-30.8386 2024.09,-21.6212"/>
<polygon fill="midnightblue" stroke="midnightblue" points="2100.62,-57.821 2111.19,-58.4966 2103.35,-51.3749 2100.62,-57.821"/>
</g>
<!-- Node23 -->
<g id="node50" class="node"><title>Node23</title>
<a xlink:href="../../de/d2f/Physics_2RootGenerator_2GenDalitzApp_8cpp.xhtml" target="_top" xlink:title="Physics/RootGenerator/GenDalitzApp.cpp">
<polygon fill="white" stroke="black" points="2259.5,-0.5 2259.5,-21.5 2460.5,-21.5 2460.5,-0.5 2259.5,-0.5"/>
<text text-anchor="middle" x="2360" y="-8.5" font-family="Helvetica,sans-Serif" font-size="10.00">Physics/RootGenerator/GenDalitzApp.cpp</text>
</a>
</g>
<!-- Node22&#45;&gt;Node23 -->
<g id="edge54" class="edge"><title>Node22&#45;&gt;Node23</title>
<path fill="none" stroke="midnightblue" d="M2186.42,-55.9447C2226.57,-45.5501 2282.03,-31.1897 2319.36,-21.5231"/>
<polygon fill="midnightblue" stroke="midnightblue" points="2185.37,-52.6017 2176.56,-58.4966 2187.12,-59.3782 2185.37,-52.6017"/>
</g>
<!-- Node24 -->
<g id="node53" class="node"><title>Node24</title>
<a xlink:href="../../d2/d52/test_2GenDalitzApp_8cpp.xhtml" target="_top" xlink:title="test/GenDalitzApp.cpp">
<polygon fill="white" stroke="black" points="2126,-0.5 2126,-21.5 2242,-21.5 2242,-0.5 2126,-0.5"/>
<text text-anchor="middle" x="2184" y="-8.5" font-family="Helvetica,sans-Serif" font-size="10.00">test/GenDalitzApp.cpp</text>
</a>
</g>
<!-- Node22&#45;&gt;Node24 -->
<g id="edge58" class="edge"><title>Node22&#45;&gt;Node24</title>
<path fill="none" stroke="midnightblue" d="M2151.28,-50.5407C2159.19,-40.9786 2168.57,-29.6467 2175.25,-21.5707"/>
<polygon fill="midnightblue" stroke="midnightblue" points="2148.48,-48.4264 2144.8,-58.3619 2153.88,-52.8894 2148.48,-48.4264"/>
</g>
<!-- Node27&#45;&gt;Node19 -->
<g id="edge68" class="edge"><title>Node27&#45;&gt;Node19</title>
<path fill="none" stroke="midnightblue" d="M2935,-51.6908C2946.31,-41.8996 2960.08,-29.973 2969.79,-21.5707"/>
<polygon fill="midnightblue" stroke="midnightblue" points="2932.56,-49.1706 2927.29,-58.3619 2937.14,-54.4631 2932.56,-49.1706"/>
</g>
<!-- Node28 -->
<g id="node61" class="node"><title>Node28</title>
<a xlink:href="../../d9/d27/BlackScholes_8cpp.xhtml" target="_top" xlink:title="Physics/BlackScholes/BlackScholes.cpp">
<polygon fill="white" stroke="black" points="3219.5,-0.5 3219.5,-21.5 3416.5,-21.5 3416.5,-0.5 3219.5,-0.5"/>
<text text-anchor="middle" x="3318" y="-8.5" font-family="Helvetica,sans-Serif" font-size="10.00">Physics/BlackScholes/BlackScholes.cpp</text>
</a>
</g>
<!-- Node27&#45;&gt;Node28 -->
<g id="edge66" class="edge"><title>Node27&#45;&gt;Node28</title>
<path fill="none" stroke="midnightblue" d="M2998.02,-57.052C3070.71,-46.5906 3175.3,-31.5378 3244.88,-21.5231"/>
<polygon fill="midnightblue" stroke="midnightblue" points="2997.38,-53.6077 2987.98,-58.4966 2998.38,-60.5363 2997.38,-53.6077"/>
</g>
<!-- Node29&#45;&gt;Node6 -->
<g id="edge84" class="edge"><title>Node29&#45;&gt;Node6</title>
<path fill="none" stroke="midnightblue" d="M1030.76,-57.0941C952.841,-46.4607 839.983,-31.0589 766.548,-21.0371"/>
<polygon fill="midnightblue" stroke="midnightblue" points="1030.65,-60.6122 1041.04,-58.4966 1031.6,-53.6765 1030.65,-60.6122"/>
</g>
<!-- Node29&#45;&gt;Node9 -->
<g id="edge74" class="edge"><title>Node29&#45;&gt;Node9</title>
<path fill="none" stroke="midnightblue" d="M1059.72,-56.3391C1011.73,-45.9159 944.508,-31.3126 899.442,-21.5231"/>
<polygon fill="midnightblue" stroke="midnightblue" points="1059.13,-59.794 1069.65,-58.4966 1060.62,-52.9535 1059.13,-59.794"/>
</g>
<!-- Node29&#45;&gt;Node10 -->
<g id="edge80" class="edge"><title>Node29&#45;&gt;Node10</title>
<path fill="none" stroke="midnightblue" d="M1018.16,-60.5332C915.857,-51.6719 752.219,-36.9854 611,-22 608.281,-21.7114 605.517,-21.4127 602.726,-21.1064"/>
<polygon fill="midnightblue" stroke="midnightblue" points="1017.91,-64.0245 1028.18,-61.3989 1018.52,-57.0505 1017.91,-64.0245"/>
</g>
<!-- Node29&#45;&gt;Node14 -->
<g id="edge78" class="edge"><title>Node29&#45;&gt;Node14</title>
<path fill="none" stroke="midnightblue" d="M1195.04,-56.9234C1261.74,-46.4675 1357.24,-31.4969 1420.87,-21.5231"/>
<polygon fill="midnightblue" stroke="midnightblue" points="1194.34,-53.4901 1185,-58.4966 1195.43,-60.4057 1194.34,-53.4901"/>
</g>
<!-- Node30 -->
<g id="node66" class="node"><title>Node30</title>
<a xlink:href="../../da/d1c/BreitWigner_8cpp.xhtml" target="_top" xlink:title="Physics/BreitWigner/BreitWigner.cpp">
<polygon fill="white" stroke="black" points="935.5,-0.5 935.5,-21.5 1114.5,-21.5 1114.5,-0.5 935.5,-0.5"/>
<text text-anchor="middle" x="1025" y="-8.5" font-family="Helvetica,sans-Serif" font-size="10.00">Physics/BreitWigner/BreitWigner.cpp</text>
</a>
</g>
<!-- Node29&#45;&gt;Node30 -->
<g id="edge72" class="edge"><title>Node29&#45;&gt;Node30</title>
<path fill="none" stroke="midnightblue" d="M1092.06,-52.8215C1076.04,-42.8312 1055.95,-30.2993 1041.95,-21.5707"/>
<polygon fill="midnightblue" stroke="midnightblue" points="1090.61,-56.0399 1100.94,-58.3619 1094.31,-50.1003 1090.61,-56.0399"/>
</g>
<!-- Node31 -->
<g id="node69" class="node"><title>Node31</title>
<a xlink:href="../../db/d35/GenTwoPartApp_8cpp.xhtml" target="_top" xlink:title="Application to generate a two&#45;particle intensity.">
<polygon fill="white" stroke="black" points="1131.5,-0.5 1131.5,-21.5 1258.5,-21.5 1258.5,-0.5 1131.5,-0.5"/>
<text text-anchor="middle" x="1195" y="-8.5" font-family="Helvetica,sans-Serif" font-size="10.00">test/GenTwoPartApp.cpp</text>
</a>
</g>
<!-- Node29&#45;&gt;Node31 -->
<g id="edge76" class="edge"><title>Node29&#45;&gt;Node31</title>
<path fill="none" stroke="midnightblue" d="M1140.23,-52.2587C1153.36,-42.3641 1169.6,-30.1361 1180.97,-21.5707"/>
<polygon fill="midnightblue" stroke="midnightblue" points="1138,-49.5496 1132.12,-58.3619 1142.22,-55.1409 1138,-49.5496"/>
</g>
<!-- Node32 -->
<g id="node73" class="node"><title>Node32</title>
<a xlink:href="../../db/da0/PhysicsTestApp_8cpp.xhtml" target="_top" xlink:title="Test&#45;Application of the Physics&#45;IF.">
<polygon fill="white" stroke="black" points="1275.5,-0.5 1275.5,-21.5 1402.5,-21.5 1402.5,-0.5 1275.5,-0.5"/>
<text text-anchor="middle" x="1339" y="-8.5" font-family="Helvetica,sans-Serif" font-size="10.00">test/PhysicsTestApp.cpp</text>
</a>
</g>
<!-- Node29&#45;&gt;Node32 -->
<g id="edge82" class="edge"><title>Node29&#45;&gt;Node32</title>
<path fill="none" stroke="midnightblue" d="M1167.75,-55.9447C1207.35,-45.5501 1262.07,-31.1897 1298.9,-21.5231"/>
<polygon fill="midnightblue" stroke="midnightblue" points="1166.81,-52.5727 1158.02,-58.4966 1168.58,-59.3435 1166.81,-52.5727"/>
</g>
<!-- Node33&#45;&gt;Node20 -->
<g id="edge90" class="edge"><title>Node33&#45;&gt;Node20</title>
<path fill="none" stroke="midnightblue" d="M3134,-48.1906C3134,-39.1684 3134,-28.9941 3134,-21.5707"/>
<polygon fill="midnightblue" stroke="midnightblue" points="3130.5,-48.3619 3134,-58.3619 3137.5,-48.3619 3130.5,-48.3619"/>
</g>
<!-- Node34 -->
<g id="node78" class="node"><title>Node34</title>
<a xlink:href="../../d1/d9c/NeuralNetwork_8cpp.xhtml" target="_top" xlink:title="Physics/NeuralNetwork/NeuralNetwork.cpp">
<polygon fill="white" stroke="black" points="3433.5,-0.5 3433.5,-21.5 3640.5,-21.5 3640.5,-0.5 3433.5,-0.5"/>
<text text-anchor="middle" x="3537" y="-8.5" font-family="Helvetica,sans-Serif" font-size="10.00">Physics/NeuralNetwork/NeuralNetwork.cpp</text>
</a>
</g>
<!-- Node33&#45;&gt;Node34 -->
<g id="edge88" class="edge"><title>Node33&#45;&gt;Node34</title>
<path fill="none" stroke="midnightblue" d="M3217.02,-57.052C3289.71,-46.5906 3394.3,-31.5378 3463.88,-21.5231"/>
<polygon fill="midnightblue" stroke="midnightblue" points="3216.38,-53.6077 3206.98,-58.4966 3217.38,-60.5363 3216.38,-53.6077"/>
</g>
</g>
</svg>
