<?xml version="1.0" encoding="UTF-8" standalone="no"?>
<!DOCTYPE svg PUBLIC "-//W3C//DTD SVG 1.1//EN"
 "http://www.w3.org/Graphics/SVG/1.1/DTD/svg11.dtd">
<!-- Generated by graphviz version 2.36.0 (20140111.2315)
 -->
<!-- Title: /home/travis/build/ComPWA/ComPWA/Tools/RunManager.hpp Pages: 1 -->
<svg width="1210pt" height="230pt"
 viewBox="0.00 0.00 1210.00 230.00" xmlns="http://www.w3.org/2000/svg" xmlns:xlink="http://www.w3.org/1999/xlink">
<g id="graph0" class="graph" transform="scale(1 1) rotate(0) translate(4 226)">
<title>/home/travis/build/ComPWA/ComPWA/Tools/RunManager.hpp</title>
<polygon fill="white" stroke="none" points="-4,4 -4,-226 1206,-226 1206,4 -4,4"/>
<!-- Node1 -->
<g id="node1" class="node"><title>Node1</title>
<polygon fill="#bfbfbf" stroke="black" points="564,-180.5 564,-221.5 702,-221.5 702,-180.5 564,-180.5"/>
<text text-anchor="start" x="572" y="-209.5" font-family="Helvetica,sans-Serif" font-size="10.00">/home/travis/build</text>
<text text-anchor="start" x="572" y="-198.5" font-family="Helvetica,sans-Serif" font-size="10.00">/ComPWA/ComPWA/Tools</text>
<text text-anchor="middle" x="633" y="-187.5" font-family="Helvetica,sans-Serif" font-size="10.00">/RunManager.hpp</text>
</g>
<!-- Node2 -->
<g id="node2" class="node"><title>Node2</title>
<g id="a_node2"><a xlink:href="../../dc/d4f/RootReaderTest_8cpp.html" target="_top" xlink:title="/home/travis/build\l/ComPWA/ComPWA/DataReader\l/RootReader/test/RootReaderTest.cpp">
<polygon fill="white" stroke="black" points="-0.5,-96.5 -0.5,-137.5 184.5,-137.5 184.5,-96.5 -0.5,-96.5"/>
<text text-anchor="start" x="7.5" y="-125.5" font-family="Helvetica,sans-Serif" font-size="10.00">/home/travis/build</text>
<text text-anchor="start" x="7.5" y="-114.5" font-family="Helvetica,sans-Serif" font-size="10.00">/ComPWA/ComPWA/DataReader</text>
<text text-anchor="middle" x="92" y="-103.5" font-family="Helvetica,sans-Serif" font-size="10.00">/RootReader/test/RootReaderTest.cpp</text>
</a>
</g>
</g>
<!-- Node1&#45;&gt;Node2 -->
<g id="edge1" class="edge"><title>Node1&#45;&gt;Node2</title>
<path fill="none" stroke="midnightblue" d="M554.029,-192.961C465.6,-184.381 318.256,-167.995 193,-144 183.308,-142.143 173.165,-139.899 163.203,-137.516"/>
<polygon fill="midnightblue" stroke="midnightblue" points="553.697,-196.445 563.986,-193.918 554.367,-189.477 553.697,-196.445"/>
</g>
<!-- Node3 -->
<g id="node3" class="node"><title>Node3</title>
<g id="a_node3"><a xlink:href="../../db/d7b/DalitzFitD03K_8cpp.html" target="_top" xlink:title="Executable for Dalitz plot analysis of the decay D0 &#45;&gt; K_S K+ K&#45;. ">
<polygon fill="white" stroke="black" points="202,-91 202,-143 360,-143 360,-91 202,-91"/>
<text text-anchor="start" x="210" y="-131" font-family="Helvetica,sans-Serif" font-size="10.00">/home/travis/build</text>
<text text-anchor="start" x="210" y="-120" font-family="Helvetica,sans-Serif" font-size="10.00">/ComPWA/ComPWA/Examples</text>
<text text-anchor="start" x="210" y="-109" font-family="Helvetica,sans-Serif" font-size="10.00">/DalitzAnalysis_D0KsKK</text>
<text text-anchor="middle" x="281" y="-98" font-family="Helvetica,sans-Serif" font-size="10.00">/DalitzFitD03K.cpp</text>
</a>
</g>
</g>
<!-- Node1&#45;&gt;Node3 -->
<g id="edge2" class="edge"><title>Node1&#45;&gt;Node3</title>
<path fill="none" stroke="midnightblue" d="M553.786,-184.881C501.157,-174.423 430.655,-159.622 369,-144 366.066,-143.257 363.083,-142.48 360.074,-141.68"/>
<polygon fill="midnightblue" stroke="midnightblue" points="553.243,-188.341 563.732,-186.848 554.601,-181.474 553.243,-188.341"/>
</g>
<!-- Node4 -->
<g id="node4" class="node"><title>Node4</title>
<g id="a_node4"><a xlink:href="../../dc/d7e/Examples_2DalitzFit_2DalitzFitApp_8cpp.html" target="_top" xlink:title="Simple Dalitz plot analysis with ComPWA. ">
<polygon fill="white" stroke="black" points="378,-96.5 378,-137.5 536,-137.5 536,-96.5 378,-96.5"/>
<text text-anchor="start" x="386" y="-125.5" font-family="Helvetica,sans-Serif" font-size="10.00">/home/travis/build</text>
<text text-anchor="start" x="386" y="-114.5" font-family="Helvetica,sans-Serif" font-size="10.00">/ComPWA/ComPWA/Examples</text>
<text text-anchor="middle" x="457" y="-103.5" font-family="Helvetica,sans-Serif" font-size="10.00">/DalitzFit/DalitzFitApp.cpp</text>
</a>
</g>
</g>
<!-- Node1&#45;&gt;Node4 -->
<g id="edge3" class="edge"><title>Node1&#45;&gt;Node4</title>
<path fill="none" stroke="midnightblue" d="M581.453,-175.984C555.261,-163.781 523.836,-149.14 499.117,-137.623"/>
<polygon fill="midnightblue" stroke="midnightblue" points="580.301,-179.308 590.844,-180.359 583.257,-172.963 580.301,-179.308"/>
</g>
<!-- Node5 -->
<g id="node5" class="node"><title>Node5</title>
<g id="a_node5"><a xlink:href="../../db/deb/PythonFit_8hpp.html" target="_top" xlink:title="This class provides a Manager for simple fits. ">
<polygon fill="white" stroke="black" points="554,-96.5 554,-137.5 712,-137.5 712,-96.5 554,-96.5"/>
<text text-anchor="start" x="562" y="-125.5" font-family="Helvetica,sans-Serif" font-size="10.00">/home/travis/build</text>
<text text-anchor="start" x="562" y="-114.5" font-family="Helvetica,sans-Serif" font-size="10.00">/ComPWA/ComPWA/Examples</text>
<text text-anchor="middle" x="633" y="-103.5" font-family="Helvetica,sans-Serif" font-size="10.00">/PythonDalitzFit/PythonFit.hpp</text>
</a>
</g>
</g>
<!-- Node1&#45;&gt;Node5 -->
<g id="edge4" class="edge"><title>Node1&#45;&gt;Node5</title>
<path fill="none" stroke="midnightblue" d="M633,-169.881C633,-159.133 633,-147.309 633,-137.667"/>
<polygon fill="midnightblue" stroke="midnightblue" points="629.5,-170.15 633,-180.15 636.5,-170.15 629.5,-170.15"/>
</g>
<!-- Node8 -->
<g id="node8" class="node"><title>Node8</title>
<g id="a_node8"><a xlink:href="../../d8/d80/AmpModel_8cpp.html" target="_top" xlink:title="/home/travis/build\l/ComPWA/ComPWA/Physics\l/HelicityFormalism/test\l/AmpModel.cpp">
<polygon fill="white" stroke="black" points="729.5,-91 729.5,-143 878.5,-143 878.5,-91 729.5,-91"/>
<text text-anchor="start" x="737.5" y="-131" font-family="Helvetica,sans-Serif" font-size="10.00">/home/travis/build</text>
<text text-anchor="start" x="737.5" y="-120" font-family="Helvetica,sans-Serif" font-size="10.00">/ComPWA/ComPWA/Physics</text>
<text text-anchor="start" x="737.5" y="-109" font-family="Helvetica,sans-Serif" font-size="10.00">/HelicityFormalism/test</text>
<text text-anchor="middle" x="804" y="-98" font-family="Helvetica,sans-Serif" font-size="10.00">/AmpModel.cpp</text>
</a>
</g>
</g>
<!-- Node1&#45;&gt;Node8 -->
<g id="edge7" class="edge"><title>Node1&#45;&gt;Node8</title>
<path fill="none" stroke="midnightblue" d="M683.259,-175.899C704.795,-165.572 729.947,-153.511 751.703,-143.078"/>
<polygon fill="midnightblue" stroke="midnightblue" points="681.462,-172.879 673.959,-180.359 684.489,-179.191 681.462,-172.879"/>
</g>
<!-- Node9 -->
<g id="node9" class="node"><title>Node9</title>
<g id="a_node9"><a xlink:href="../../d7/d56/HelicityAngle_8cpp.html" target="_top" xlink:title="/home/travis/build\l/ComPWA/ComPWA/Physics\l/HelicityFormalism/test\l/HelicityAngle.cpp">
<polygon fill="white" stroke="black" points="896.5,-91 896.5,-143 1045.5,-143 1045.5,-91 896.5,-91"/>
<text text-anchor="start" x="904.5" y="-131" font-family="Helvetica,sans-Serif" font-size="10.00">/home/travis/build</text>
<text text-anchor="start" x="904.5" y="-120" font-family="Helvetica,sans-Serif" font-size="10.00">/ComPWA/ComPWA/Physics</text>
<text text-anchor="start" x="904.5" y="-109" font-family="Helvetica,sans-Serif" font-size="10.00">/HelicityFormalism/test</text>
<text text-anchor="middle" x="971" y="-98" font-family="Helvetica,sans-Serif" font-size="10.00">/HelicityAngle.cpp</text>
</a>
</g>
</g>
<!-- Node1&#45;&gt;Node9 -->
<g id="edge8" class="edge"><title>Node1&#45;&gt;Node9</title>
<path fill="none" stroke="midnightblue" d="M711.945,-184.36C762.291,-173.951 828.782,-159.399 887,-144 890.099,-143.18 893.255,-142.32 896.438,-141.431"/>
<polygon fill="midnightblue" stroke="midnightblue" points="711.188,-180.942 702.098,-186.385 712.598,-187.799 711.188,-180.942"/>
</g>
<!-- Node10 -->
<g id="node10" class="node"><title>Node10</title>
<g id="a_node10"><a xlink:href="../../db/d94/RunManager_8cpp.html" target="_top" xlink:title="/home/travis/build\l/ComPWA/ComPWA/Tools\l/RunManager.cpp">
<polygon fill="white" stroke="black" points="1064,-96.5 1064,-137.5 1202,-137.5 1202,-96.5 1064,-96.5"/>
<text text-anchor="start" x="1072" y="-125.5" font-family="Helvetica,sans-Serif" font-size="10.00">/home/travis/build</text>
<text text-anchor="start" x="1072" y="-114.5" font-family="Helvetica,sans-Serif" font-size="10.00">/ComPWA/ComPWA/Tools</text>
<text text-anchor="middle" x="1133" y="-103.5" font-family="Helvetica,sans-Serif" font-size="10.00">/RunManager.cpp</text>
</a>
</g>
</g>
<!-- Node1&#45;&gt;Node10 -->
<g id="edge9" class="edge"><title>Node1&#45;&gt;Node10</title>
<path fill="none" stroke="midnightblue" d="M712.367,-193.869C797.59,-186.261 936.587,-170.885 1054,-144 1061.88,-142.195 1070.1,-139.936 1078.12,-137.507"/>
<polygon fill="midnightblue" stroke="midnightblue" points="711.9,-190.397 702.245,-194.759 712.513,-197.37 711.9,-190.397"/>
</g>
<!-- Node6 -->
<g id="node6" class="node"><title>Node6</title>
<g id="a_node6"><a xlink:href="../../d8/d92/Dalitz__ext_8cpp.html" target="_top" xlink:title="/home/travis/build\l/ComPWA/ComPWA/Examples\l/PythonDalitzFit/Dalitz\l_ext.cpp">
<polygon fill="white" stroke="black" points="466,-1 466,-53 624,-53 624,-1 466,-1"/>
<text text-anchor="start" x="474" y="-41" font-family="Helvetica,sans-Serif" font-size="10.00">/home/travis/build</text>
<text text-anchor="start" x="474" y="-30" font-family="Helvetica,sans-Serif" font-size="10.00">/ComPWA/ComPWA/Examples</text>
<text text-anchor="start" x="474" y="-19" font-family="Helvetica,sans-Serif" font-size="10.00">/PythonDalitzFit/Dalitz</text>
<text text-anchor="middle" x="545" y="-8" font-family="Helvetica,sans-Serif" font-size="10.00">_ext.cpp</text>
</a>
</g>
</g>
<!-- Node5&#45;&gt;Node6 -->
<g id="edge5" class="edge"><title>Node5&#45;&gt;Node6</title>
<path fill="none" stroke="midnightblue" d="M606.242,-89.2424C594.775,-77.775 581.451,-64.4515 570.166,-53.1657"/>
<polygon fill="midnightblue" stroke="midnightblue" points="603.924,-91.8737 613.47,-96.4699 608.874,-86.924 603.924,-91.8737"/>
</g>
<!-- Node7 -->
<g id="node7" class="node"><title>Node7</title>
<g id="a_node7"><a xlink:href="../../d6/d0a/PythonFit_8cpp.html" target="_top" xlink:title="/home/travis/build\l/ComPWA/ComPWA/Examples\l/PythonDalitzFit/PythonFit.cpp">
<polygon fill="white" stroke="black" points="642,-6.5 642,-47.5 800,-47.5 800,-6.5 642,-6.5"/>
<text text-anchor="start" x="650" y="-35.5" font-family="Helvetica,sans-Serif" font-size="10.00">/home/travis/build</text>
<text text-anchor="start" x="650" y="-24.5" font-family="Helvetica,sans-Serif" font-size="10.00">/ComPWA/ComPWA/Examples</text>
<text text-anchor="middle" x="721" y="-13.5" font-family="Helvetica,sans-Serif" font-size="10.00">/PythonDalitzFit/PythonFit.cpp</text>
</a>
</g>
</g>
<!-- Node5&#45;&gt;Node7 -->
<g id="edge6" class="edge"><title>Node5&#45;&gt;Node7</title>
<path fill="none" stroke="midnightblue" d="M659.659,-89.3411C673.033,-75.9672 688.951,-60.0487 701.22,-47.7798"/>
<polygon fill="midnightblue" stroke="midnightblue" points="657.126,-86.924 652.53,-96.4699 662.076,-91.8737 657.126,-86.924"/>
</g>
</g>
</svg>
