<?xml version="1.0" encoding="UTF-8" standalone="no"?>
<!DOCTYPE svg PUBLIC "-//W3C//DTD SVG 1.1//EN"
 "http://www.w3.org/Graphics/SVG/1.1/DTD/svg11.dtd">
<!-- Generated by graphviz version 2.36.0 (20140111.2315)
 -->
<!-- Title: /home/travis/build/ComPWA/ComPWA/Physics/qft++/Matrix_Base.h Pages: 1 -->
<svg width="213pt" height="162pt"
 viewBox="0.00 0.00 213.00 162.00" xmlns="http://www.w3.org/2000/svg" xmlns:xlink="http://www.w3.org/1999/xlink">
<g id="graph0" class="graph" transform="scale(1 1) rotate(0) translate(4 158)">
<title>/home/travis/build/ComPWA/ComPWA/Physics/qft++/Matrix_Base.h</title>
<polygon fill="white" stroke="none" points="-4,4 -4,-158 209,-158 209,4 -4,4"/>
<!-- Node1 -->
<g id="node1" class="node"><title>Node1</title>
<polygon fill="#bfbfbf" stroke="black" points="5.5,-112.5 5.5,-153.5 154.5,-153.5 154.5,-112.5 5.5,-112.5"/>
<text text-anchor="start" x="13.5" y="-141.5" font-family="Helvetica,sans-Serif" font-size="10.00">/home/travis/build</text>
<text text-anchor="start" x="13.5" y="-130.5" font-family="Helvetica,sans-Serif" font-size="10.00">/ComPWA/ComPWA/Physics</text>
<text text-anchor="middle" x="80" y="-119.5" font-family="Helvetica,sans-Serif" font-size="10.00">/qft++/Matrix_Base.h</text>
</g>
<!-- Node2 -->
<g id="node2" class="node"><title>Node2</title>
<polygon fill="white" stroke="#bfbfbf" points="-0.5,-56.5 -0.5,-75.5 48.5,-75.5 48.5,-56.5 -0.5,-56.5"/>
<text text-anchor="middle" x="24" y="-63.5" font-family="Helvetica,sans-Serif" font-size="10.00">cassert</text>
</g>
<!-- Node1&#45;&gt;Node2 -->
<g id="edge1" class="edge"><title>Node1&#45;&gt;Node2</title>
<path fill="none" stroke="midnightblue" d="M63.1982,-112.498C55.1902,-103.203 45.7191,-92.2097 38.0929,-83.3579"/>
<polygon fill="midnightblue" stroke="midnightblue" points="40.6332,-80.9441 31.4545,-75.6525 35.3299,-85.5131 40.6332,-80.9441"/>
</g>
<!-- Node3 -->
<g id="node3" class="node"><title>Node3</title>
<g id="a_node3"><a xlink:href="../../db/dcf/Conversion_8h.html" target="_top" xlink:title="Conversion class definition file (also defines IsDerived macro). ">
<polygon fill="white" stroke="black" points="66.5,-56.5 66.5,-75.5 205.5,-75.5 205.5,-56.5 66.5,-56.5"/>
<text text-anchor="middle" x="136" y="-63.5" font-family="Helvetica,sans-Serif" font-size="10.00">Physics/qft++/Conversion.h</text>
</a>
</g>
</g>
<!-- Node1&#45;&gt;Node3 -->
<g id="edge2" class="edge"><title>Node1&#45;&gt;Node3</title>
<path fill="none" stroke="midnightblue" d="M96.8018,-112.498C104.81,-103.203 114.281,-92.2097 121.907,-83.3579"/>
<polygon fill="midnightblue" stroke="midnightblue" points="124.67,-85.5131 128.546,-75.6525 119.367,-80.9441 124.67,-85.5131"/>
</g>
<!-- Node4 -->
<g id="node4" class="node"><title>Node4</title>
<g id="a_node4"><a xlink:href="../../d7/db7/Type_8h.html" target="_top" xlink:title="Type class definition file. ">
<polygon fill="white" stroke="black" points="80.5,-0.5 80.5,-19.5 191.5,-19.5 191.5,-0.5 80.5,-0.5"/>
<text text-anchor="middle" x="136" y="-7.5" font-family="Helvetica,sans-Serif" font-size="10.00">Physics/qft++/Type.h</text>
</a>
</g>
</g>
<!-- Node3&#45;&gt;Node4 -->
<g id="edge3" class="edge"><title>Node3&#45;&gt;Node4</title>
<path fill="none" stroke="midnightblue" d="M136,-56.083C136,-49.0059 136,-38.8611 136,-29.9865"/>
<polygon fill="midnightblue" stroke="midnightblue" points="139.5,-29.751 136,-19.7511 132.5,-29.7511 139.5,-29.751"/>
</g>
</g>
</svg>
