<?xml version="1.0" encoding="UTF-8" standalone="no"?>
<!DOCTYPE svg PUBLIC "-//W3C//DTD SVG 1.1//EN"
 "http://www.w3.org/Graphics/SVG/1.1/DTD/svg11.dtd">
<!-- Generated by graphviz version 2.36.0 (20140111.2315)
 -->
<!-- Title: /home/travis/build/ComPWA/ComPWA/Core/Efficiency.hpp Pages: 1 -->
<svg width="3464pt" height="452pt"
 viewBox="0.00 0.00 3464.00 452.00" xmlns="http://www.w3.org/2000/svg" xmlns:xlink="http://www.w3.org/1999/xlink">
<g id="graph0" class="graph" transform="scale(1 1) rotate(0) translate(4 448)">
<title>/home/travis/build/ComPWA/ComPWA/Core/Efficiency.hpp</title>
<polygon fill="white" stroke="none" points="-4,4 -4,-448 3460,-448 3460,4 -4,4"/>
<!-- Node1 -->
<g id="node1" class="node"><title>Node1</title>
<polygon fill="#bfbfbf" stroke="black" points="1611.5,-402.5 1611.5,-443.5 1746.5,-443.5 1746.5,-402.5 1611.5,-402.5"/>
<text text-anchor="start" x="1619.5" y="-431.5" font-family="Helvetica,sans-Serif" font-size="10.00">/home/travis/build</text>
<text text-anchor="start" x="1619.5" y="-420.5" font-family="Helvetica,sans-Serif" font-size="10.00">/ComPWA/ComPWA/Core</text>
<text text-anchor="middle" x="1679" y="-409.5" font-family="Helvetica,sans-Serif" font-size="10.00">/Efficiency.hpp</text>
</g>
<!-- Node2 -->
<g id="node2" class="node"><title>Node2</title>
<g id="a_node2"><a xlink:href="../../dc/dfd/AmpIntensity_8hpp.html" target="_top" xlink:title="/home/travis/build\l/ComPWA/ComPWA/Core\l/AmpIntensity.hpp">
<polygon fill="white" stroke="red" points="392.5,-234.5 392.5,-275.5 527.5,-275.5 527.5,-234.5 392.5,-234.5"/>
<text text-anchor="start" x="400.5" y="-263.5" font-family="Helvetica,sans-Serif" font-size="10.00">/home/travis/build</text>
<text text-anchor="start" x="400.5" y="-252.5" font-family="Helvetica,sans-Serif" font-size="10.00">/ComPWA/ComPWA/Core</text>
<text text-anchor="middle" x="460" y="-241.5" font-family="Helvetica,sans-Serif" font-size="10.00">/AmpIntensity.hpp</text>
</a>
</g>
</g>
<!-- Node1&#45;&gt;Node2 -->
<g id="edge1" class="edge"><title>Node1&#45;&gt;Node2</title>
<path fill="none" stroke="midnightblue" d="M1601.03,-421.522C1362.55,-419.588 653.412,-410.147 560,-366 518.931,-346.591 487.066,-301.877 471.162,-275.826"/>
<polygon fill="midnightblue" stroke="midnightblue" points="1601.32,-425.025 1611.35,-421.604 1601.38,-418.025 1601.32,-425.025"/>
</g>
<!-- Node6 -->
<g id="node6" class="node"><title>Node6</title>
<g id="a_node6"><a xlink:href="../../d6/d0a/PythonFit_8cpp.html" target="_top" xlink:title="/home/travis/build\l/ComPWA/ComPWA/Examples\l/PythonDalitzFit/PythonFit.cpp">
<polygon fill="white" stroke="black" points="765,-0.5 765,-41.5 923,-41.5 923,-0.5 765,-0.5"/>
<text text-anchor="start" x="773" y="-29.5" font-family="Helvetica,sans-Serif" font-size="10.00">/home/travis/build</text>
<text text-anchor="start" x="773" y="-18.5" font-family="Helvetica,sans-Serif" font-size="10.00">/ComPWA/ComPWA/Examples</text>
<text text-anchor="middle" x="844" y="-7.5" font-family="Helvetica,sans-Serif" font-size="10.00">/PythonDalitzFit/PythonFit.cpp</text>
</a>
</g>
</g>
<!-- Node1&#45;&gt;Node6 -->
<g id="edge26" class="edge"><title>Node1&#45;&gt;Node6</title>
<path fill="none" stroke="midnightblue" d="M1601.18,-421.702C1414.57,-420.247 953.239,-411.988 902,-366 865.02,-332.81 882,-305.69 882,-256 882,-256 882,-256 882,-176 882,-126.432 863.213,-70.4335 852.059,-41.5533"/>
<polygon fill="midnightblue" stroke="midnightblue" points="1601.17,-425.202 1611.2,-421.775 1601.23,-418.202 1601.17,-425.202"/>
</g>
<!-- Node7 -->
<g id="node7" class="node"><title>Node7</title>
<g id="a_node7"><a xlink:href="../../db/d41/RunManager_8hpp.html" target="_top" xlink:title="This class provides a RunManager for simple fits. ">
<polygon fill="white" stroke="red" points="65,-0.5 65,-41.5 203,-41.5 203,-0.5 65,-0.5"/>
<text text-anchor="start" x="73" y="-29.5" font-family="Helvetica,sans-Serif" font-size="10.00">/home/travis/build</text>
<text text-anchor="start" x="73" y="-18.5" font-family="Helvetica,sans-Serif" font-size="10.00">/ComPWA/ComPWA/Tools</text>
<text text-anchor="middle" x="134" y="-7.5" font-family="Helvetica,sans-Serif" font-size="10.00">/RunManager.hpp</text>
</a>
</g>
</g>
<!-- Node1&#45;&gt;Node7 -->
<g id="edge37" class="edge"><title>Node1&#45;&gt;Node7</title>
<path fill="none" stroke="midnightblue" d="M1600.92,-422.584C1269.98,-424.047 0,-419.04 0,-256 0,-256 0,-256 0,-176 0,-127.694 15.038,-114.22 47,-78 59.9549,-63.3194 77.6501,-50.988 93.7003,-41.6668"/>
<polygon fill="midnightblue" stroke="midnightblue" points="1601.38,-426.082 1611.36,-422.534 1601.35,-419.082 1601.38,-426.082"/>
</g>
<!-- Node10 -->
<g id="node10" class="node"><title>Node10</title>
<g id="a_node10"><a xlink:href="../../d8/dec/GaussAmp_8hpp.html" target="_top" xlink:title="/home/travis/build\l/ComPWA/ComPWA/Core\l/GaussAmp.hpp">
<polygon fill="white" stroke="black" points="680.5,-156.5 680.5,-197.5 815.5,-197.5 815.5,-156.5 680.5,-156.5"/>
<text text-anchor="start" x="688.5" y="-185.5" font-family="Helvetica,sans-Serif" font-size="10.00">/home/travis/build</text>
<text text-anchor="start" x="688.5" y="-174.5" font-family="Helvetica,sans-Serif" font-size="10.00">/ComPWA/ComPWA/Core</text>
<text text-anchor="middle" x="748" y="-163.5" font-family="Helvetica,sans-Serif" font-size="10.00">/GaussAmp.hpp</text>
</a>
</g>
</g>
<!-- Node1&#45;&gt;Node10 -->
<g id="edge15" class="edge"><title>Node1&#45;&gt;Node10</title>
<path fill="none" stroke="midnightblue" d="M1601.24,-420.585C1410.42,-416.555 930.039,-402.836 868,-366 802.743,-327.253 767.069,-237.635 753.931,-197.755"/>
<polygon fill="midnightblue" stroke="midnightblue" points="1601.4,-424.089 1611.47,-420.797 1601.55,-417.09 1601.4,-424.089"/>
</g>
<!-- Node11 -->
<g id="node11" class="node"><title>Node11</title>
<g id="a_node11"><a xlink:href="../../d0/d3c/Efficiency_8cpp.html" target="_top" xlink:title="/home/travis/build\l/ComPWA/ComPWA/Core\l/Efficiency.cpp">
<polygon fill="white" stroke="black" points="910.5,-318.5 910.5,-359.5 1045.5,-359.5 1045.5,-318.5 910.5,-318.5"/>
<text text-anchor="start" x="918.5" y="-347.5" font-family="Helvetica,sans-Serif" font-size="10.00">/home/travis/build</text>
<text text-anchor="start" x="918.5" y="-336.5" font-family="Helvetica,sans-Serif" font-size="10.00">/ComPWA/ComPWA/Core</text>
<text text-anchor="middle" x="978" y="-325.5" font-family="Helvetica,sans-Serif" font-size="10.00">/Efficiency.cpp</text>
</a>
</g>
</g>
<!-- Node1&#45;&gt;Node11 -->
<g id="edge14" class="edge"><title>Node1&#45;&gt;Node11</title>
<path fill="none" stroke="midnightblue" d="M1601.18,-420.891C1482.24,-417.883 1248.65,-406.785 1055,-366 1046.99,-364.313 1038.66,-362.057 1030.56,-359.574"/>
<polygon fill="midnightblue" stroke="midnightblue" points="1601.2,-424.393 1611.28,-421.134 1601.37,-417.395 1601.2,-424.393"/>
</g>
<!-- Node12 -->
<g id="node12" class="node"><title>Node12</title>
<g id="a_node12"><a xlink:href="../../d2/d4b/Data_8hpp.html" target="_top" xlink:title="/home/travis/build\l/ComPWA/ComPWA/DataReader\l/Data.hpp">
<polygon fill="white" stroke="red" points="568.5,-318.5 568.5,-359.5 735.5,-359.5 735.5,-318.5 568.5,-318.5"/>
<text text-anchor="start" x="576.5" y="-347.5" font-family="Helvetica,sans-Serif" font-size="10.00">/home/travis/build</text>
<text text-anchor="start" x="576.5" y="-336.5" font-family="Helvetica,sans-Serif" font-size="10.00">/ComPWA/ComPWA/DataReader</text>
<text text-anchor="middle" x="652" y="-325.5" font-family="Helvetica,sans-Serif" font-size="10.00">/Data.hpp</text>
</a>
</g>
</g>
<!-- Node1&#45;&gt;Node12 -->
<g id="edge16" class="edge"><title>Node1&#45;&gt;Node12</title>
<path fill="none" stroke="midnightblue" d="M1601.43,-418.941C1451.89,-412.589 1113.42,-395.999 830,-366 799.098,-362.729 765.328,-358.073 735.587,-353.603"/>
<polygon fill="midnightblue" stroke="midnightblue" points="1601.3,-422.439 1611.44,-419.363 1601.59,-415.445 1601.3,-422.439"/>
</g>
<!-- Node13 -->
<g id="node13" class="node"><title>Node13</title>
<g id="a_node13"><a xlink:href="../../d5/d5e/RootEfficiency_8hpp.html" target="_top" xlink:title="/home/travis/build\l/ComPWA/ComPWA/DataReader\l/RootReader/RootEfficiency.hpp">
<polygon fill="white" stroke="red" points="1063.5,-318.5 1063.5,-359.5 1230.5,-359.5 1230.5,-318.5 1063.5,-318.5"/>
<text text-anchor="start" x="1071.5" y="-347.5" font-family="Helvetica,sans-Serif" font-size="10.00">/home/travis/build</text>
<text text-anchor="start" x="1071.5" y="-336.5" font-family="Helvetica,sans-Serif" font-size="10.00">/ComPWA/ComPWA/DataReader</text>
<text text-anchor="middle" x="1147" y="-325.5" font-family="Helvetica,sans-Serif" font-size="10.00">/RootReader/RootEfficiency.hpp</text>
</a>
</g>
</g>
<!-- Node1&#45;&gt;Node13 -->
<g id="edge23" class="edge"><title>Node1&#45;&gt;Node13</title>
<path fill="none" stroke="midnightblue" d="M1601.19,-415.626C1512.81,-407.571 1364.56,-391.585 1239,-366 1230.06,-364.177 1220.71,-361.938 1211.54,-359.545"/>
<polygon fill="midnightblue" stroke="midnightblue" points="1601.13,-419.134 1611.4,-416.545 1601.76,-412.162 1601.13,-419.134"/>
</g>
<!-- Node14 -->
<g id="node14" class="node"><title>Node14</title>
<g id="a_node14"><a xlink:href="../../da/d2a/DalitzFitApp_8cpp.html" target="_top" xlink:title="Dalitz plot analysis of the decay D0&#45;&gt;K_S0 K_ K&#45;Fit application for D0&#45;&gt;K_S0 K_ K&#45; analysis...">
<polygon fill="white" stroke="black" points="1248,-318.5 1248,-359.5 1406,-359.5 1406,-318.5 1248,-318.5"/>
<text text-anchor="start" x="1256" y="-347.5" font-family="Helvetica,sans-Serif" font-size="10.00">/home/travis/build</text>
<text text-anchor="start" x="1256" y="-336.5" font-family="Helvetica,sans-Serif" font-size="10.00">/ComPWA/ComPWA/Examples</text>
<text text-anchor="middle" x="1327" y="-325.5" font-family="Helvetica,sans-Serif" font-size="10.00">/DalitzFit/DalitzFitApp.cpp</text>
</a>
</g>
</g>
<!-- Node1&#45;&gt;Node14 -->
<g id="edge24" class="edge"><title>Node1&#45;&gt;Node14</title>
<path fill="none" stroke="midnightblue" d="M1601.42,-407.205C1548.62,-396.73 1477.3,-381.784 1415,-366 1407.28,-364.044 1399.22,-361.86 1391.24,-359.612"/>
<polygon fill="midnightblue" stroke="midnightblue" points="1600.9,-410.67 1611.39,-409.173 1602.26,-403.803 1600.9,-410.67"/>
</g>
<!-- Node15 -->
<g id="node15" class="node"><title>Node15</title>
<g id="a_node15"><a xlink:href="../../d1/d93/GenDalitzApp_8cpp.html" target="_top" xlink:title="Application to generate J/Psi &#45;&gt; g pi pi. ">
<polygon fill="white" stroke="black" points="1424,-318.5 1424,-359.5 1582,-359.5 1582,-318.5 1424,-318.5"/>
<text text-anchor="start" x="1432" y="-347.5" font-family="Helvetica,sans-Serif" font-size="10.00">/home/travis/build</text>
<text text-anchor="start" x="1432" y="-336.5" font-family="Helvetica,sans-Serif" font-size="10.00">/ComPWA/ComPWA/Examples</text>
<text text-anchor="middle" x="1503" y="-325.5" font-family="Helvetica,sans-Serif" font-size="10.00">/DalitzFit/GenDalitzApp.cpp</text>
</a>
</g>
</g>
<!-- Node1&#45;&gt;Node15 -->
<g id="edge25" class="edge"><title>Node1&#45;&gt;Node15</title>
<path fill="none" stroke="midnightblue" d="M1627.45,-397.984C1601.26,-385.781 1569.84,-371.14 1545.12,-359.623"/>
<polygon fill="midnightblue" stroke="midnightblue" points="1626.3,-401.308 1636.84,-402.359 1629.26,-394.963 1626.3,-401.308"/>
</g>
<!-- Node16 -->
<g id="node16" class="node"><title>Node16</title>
<g id="a_node16"><a xlink:href="../../d6/d9a/SliceFitApp_8cpp.html" target="_top" xlink:title="/home/travis/build\l/ComPWA/ComPWA/Examples\l/SliceFit/SliceFitApp.cpp">
<polygon fill="white" stroke="black" points="1600,-318.5 1600,-359.5 1758,-359.5 1758,-318.5 1600,-318.5"/>
<text text-anchor="start" x="1608" y="-347.5" font-family="Helvetica,sans-Serif" font-size="10.00">/home/travis/build</text>
<text text-anchor="start" x="1608" y="-336.5" font-family="Helvetica,sans-Serif" font-size="10.00">/ComPWA/ComPWA/Examples</text>
<text text-anchor="middle" x="1679" y="-325.5" font-family="Helvetica,sans-Serif" font-size="10.00">/SliceFit/SliceFitApp.cpp</text>
</a>
</g>
</g>
<!-- Node1&#45;&gt;Node16 -->
<g id="edge27" class="edge"><title>Node1&#45;&gt;Node16</title>
<path fill="none" stroke="midnightblue" d="M1679,-391.881C1679,-381.133 1679,-369.309 1679,-359.667"/>
<polygon fill="midnightblue" stroke="midnightblue" points="1675.5,-392.15 1679,-402.15 1682.5,-392.15 1675.5,-392.15"/>
</g>
<!-- Node17 -->
<g id="node17" class="node"><title>Node17</title>
<g id="a_node17"><a xlink:href="../../d3/dbc/SliceFitRANDApp_8cpp.html" target="_top" xlink:title="/home/travis/build\l/ComPWA/ComPWA/Examples\l/SliceFit/SliceFitRANDApp.cpp">
<polygon fill="white" stroke="black" points="1776,-318.5 1776,-359.5 1934,-359.5 1934,-318.5 1776,-318.5"/>
<text text-anchor="start" x="1784" y="-347.5" font-family="Helvetica,sans-Serif" font-size="10.00">/home/travis/build</text>
<text text-anchor="start" x="1784" y="-336.5" font-family="Helvetica,sans-Serif" font-size="10.00">/ComPWA/ComPWA/Examples</text>
<text text-anchor="middle" x="1855" y="-325.5" font-family="Helvetica,sans-Serif" font-size="10.00">/SliceFit/SliceFitRANDApp.cpp</text>
</a>
</g>
</g>
<!-- Node1&#45;&gt;Node17 -->
<g id="edge28" class="edge"><title>Node1&#45;&gt;Node17</title>
<path fill="none" stroke="midnightblue" d="M1730.55,-397.984C1756.74,-385.781 1788.16,-371.14 1812.88,-359.623"/>
<polygon fill="midnightblue" stroke="midnightblue" points="1728.74,-394.963 1721.16,-402.359 1731.7,-401.308 1728.74,-394.963"/>
</g>
<!-- Node18 -->
<g id="node18" class="node"><title>Node18</title>
<g id="a_node18"><a xlink:href="../../d9/de4/SliceFitUBApp_8cpp.html" target="_top" xlink:title="/home/travis/build\l/ComPWA/ComPWA/Examples\l/SliceFit/SliceFitUBApp.cpp">
<polygon fill="white" stroke="black" points="1952,-318.5 1952,-359.5 2110,-359.5 2110,-318.5 1952,-318.5"/>
<text text-anchor="start" x="1960" y="-347.5" font-family="Helvetica,sans-Serif" font-size="10.00">/home/travis/build</text>
<text text-anchor="start" x="1960" y="-336.5" font-family="Helvetica,sans-Serif" font-size="10.00">/ComPWA/ComPWA/Examples</text>
<text text-anchor="middle" x="2031" y="-325.5" font-family="Helvetica,sans-Serif" font-size="10.00">/SliceFit/SliceFitUBApp.cpp</text>
</a>
</g>
</g>
<!-- Node1&#45;&gt;Node18 -->
<g id="edge29" class="edge"><title>Node1&#45;&gt;Node18</title>
<path fill="none" stroke="midnightblue" d="M1756.54,-407.068C1809.1,-396.56 1880.02,-381.629 1942,-366 1949.8,-364.032 1957.96,-361.841 1966.02,-359.589"/>
<polygon fill="midnightblue" stroke="midnightblue" points="1755.74,-403.659 1746.61,-409.044 1757.1,-410.524 1755.74,-403.659"/>
</g>
<!-- Node19 -->
<g id="node19" class="node"><title>Node19</title>
<g id="a_node19"><a xlink:href="../../d9/dab/CompareTreeAmpApp_8cpp.html" target="_top" xlink:title="/home/travis/build\l/ComPWA/ComPWA/executables\l/CompareTreeAmpApp.cpp">
<polygon fill="white" stroke="black" points="2127.5,-318.5 2127.5,-359.5 2294.5,-359.5 2294.5,-318.5 2127.5,-318.5"/>
<text text-anchor="start" x="2135.5" y="-347.5" font-family="Helvetica,sans-Serif" font-size="10.00">/home/travis/build</text>
<text text-anchor="start" x="2135.5" y="-336.5" font-family="Helvetica,sans-Serif" font-size="10.00">/ComPWA/ComPWA/executables</text>
<text text-anchor="middle" x="2211" y="-325.5" font-family="Helvetica,sans-Serif" font-size="10.00">/CompareTreeAmpApp.cpp</text>
</a>
</g>
</g>
<!-- Node1&#45;&gt;Node19 -->
<g id="edge30" class="edge"><title>Node1&#45;&gt;Node19</title>
<path fill="none" stroke="midnightblue" d="M1757,-415.511C1845.21,-407.373 1992.86,-391.333 2118,-366 2127.04,-364.17 2136.48,-361.927 2145.75,-359.532"/>
<polygon fill="midnightblue" stroke="midnightblue" points="1756.45,-412.047 1746.81,-416.441 1757.09,-419.018 1756.45,-412.047"/>
</g>
<!-- Node20 -->
<g id="node20" class="node"><title>Node20</title>
<g id="a_node20"><a xlink:href="../../db/d19/GenRunManagerApp_8cpp.html" target="_top" xlink:title="/home/travis/build\l/ComPWA/ComPWA/executables\l/GenRunManagerApp.cpp">
<polygon fill="white" stroke="black" points="2312.5,-318.5 2312.5,-359.5 2479.5,-359.5 2479.5,-318.5 2312.5,-318.5"/>
<text text-anchor="start" x="2320.5" y="-347.5" font-family="Helvetica,sans-Serif" font-size="10.00">/home/travis/build</text>
<text text-anchor="start" x="2320.5" y="-336.5" font-family="Helvetica,sans-Serif" font-size="10.00">/ComPWA/ComPWA/executables</text>
<text text-anchor="middle" x="2396" y="-325.5" font-family="Helvetica,sans-Serif" font-size="10.00">/GenRunManagerApp.cpp</text>
</a>
</g>
</g>
<!-- Node1&#45;&gt;Node20 -->
<g id="edge31" class="edge"><title>Node1&#45;&gt;Node20</title>
<path fill="none" stroke="midnightblue" d="M1757.04,-419.58C1875.79,-414.869 2108.59,-401.588 2303,-366 2312.48,-364.264 2322.4,-361.996 2332.07,-359.523"/>
<polygon fill="midnightblue" stroke="midnightblue" points="1756.81,-416.086 1746.95,-419.971 1757.08,-423.081 1756.81,-416.086"/>
</g>
<!-- Node21 -->
<g id="node21" class="node"><title>Node21</title>
<g id="a_node21"><a xlink:href="../../d1/d13/HelicityAmplitudeFitApp_8cpp.html" target="_top" xlink:title="/home/travis/build\l/ComPWA/ComPWA/executables\l/HelicityAmplitudeFitApp.cpp">
<polygon fill="white" stroke="black" points="2497.5,-318.5 2497.5,-359.5 2664.5,-359.5 2664.5,-318.5 2497.5,-318.5"/>
<text text-anchor="start" x="2505.5" y="-347.5" font-family="Helvetica,sans-Serif" font-size="10.00">/home/travis/build</text>
<text text-anchor="start" x="2505.5" y="-336.5" font-family="Helvetica,sans-Serif" font-size="10.00">/ComPWA/ComPWA/executables</text>
<text text-anchor="middle" x="2581" y="-325.5" font-family="Helvetica,sans-Serif" font-size="10.00">/HelicityAmplitudeFitApp.cpp</text>
</a>
</g>
</g>
<!-- Node1&#45;&gt;Node21 -->
<g id="edge32" class="edge"><title>Node1&#45;&gt;Node21</title>
<path fill="none" stroke="midnightblue" d="M1756.8,-421.855C1901.74,-420.428 2222.45,-411.819 2488,-366 2497.75,-364.318 2507.94,-362.031 2517.86,-359.506"/>
<polygon fill="midnightblue" stroke="midnightblue" points="1756.64,-418.356 1746.68,-421.945 1756.71,-425.356 1756.64,-418.356"/>
</g>
<!-- Node22 -->
<g id="node22" class="node"><title>Node22</title>
<g id="a_node22"><a xlink:href="../../d4/d26/HelicityCoherentAmplitudeEventGenApp_8cpp.html" target="_top" xlink:title="Application to generate J/Psi &#45;&gt; g pi pi. ">
<polygon fill="white" stroke="black" points="2682.5,-313 2682.5,-365 2849.5,-365 2849.5,-313 2682.5,-313"/>
<text text-anchor="start" x="2690.5" y="-353" font-family="Helvetica,sans-Serif" font-size="10.00">/home/travis/build</text>
<text text-anchor="start" x="2690.5" y="-342" font-family="Helvetica,sans-Serif" font-size="10.00">/ComPWA/ComPWA/executables</text>
<text text-anchor="start" x="2690.5" y="-331" font-family="Helvetica,sans-Serif" font-size="10.00">/HelicityCoherentAmplitudeEvent</text>
<text text-anchor="middle" x="2766" y="-320" font-family="Helvetica,sans-Serif" font-size="10.00">GenApp.cpp</text>
</a>
</g>
</g>
<!-- Node1&#45;&gt;Node22 -->
<g id="edge33" class="edge"><title>Node1&#45;&gt;Node22</title>
<path fill="none" stroke="midnightblue" d="M1756.99,-419.787C1959.26,-413.697 2497.13,-395.185 2673,-366 2676.06,-365.492 2679.16,-364.922 2682.29,-364.301"/>
<polygon fill="midnightblue" stroke="midnightblue" points="1756.64,-416.295 1746.75,-420.093 1756.85,-423.292 1756.64,-416.295"/>
</g>
<!-- Node23 -->
<g id="node23" class="node"><title>Node23</title>
<g id="a_node23"><a xlink:href="../../dc/ddc/HelicityCoherentAmplitudePlotApp_8cpp.html" target="_top" xlink:title="Application to generate J/Psi &#45;&gt; g pi pi. ">
<polygon fill="white" stroke="black" points="2867.5,-318.5 2867.5,-359.5 3056.5,-359.5 3056.5,-318.5 2867.5,-318.5"/>
<text text-anchor="start" x="2875.5" y="-347.5" font-family="Helvetica,sans-Serif" font-size="10.00">/home/travis/build</text>
<text text-anchor="start" x="2875.5" y="-336.5" font-family="Helvetica,sans-Serif" font-size="10.00">/ComPWA/ComPWA/executables</text>
<text text-anchor="middle" x="2962" y="-325.5" font-family="Helvetica,sans-Serif" font-size="10.00">/HelicityCoherentAmplitudePlotApp.cpp</text>
</a>
</g>
</g>
<!-- Node1&#45;&gt;Node23 -->
<g id="edge34" class="edge"><title>Node1&#45;&gt;Node23</title>
<path fill="none" stroke="midnightblue" d="M1756.83,-420.31C1984.14,-415.056 2644.49,-397.445 2858,-366 2869.05,-364.373 2880.63,-362.08 2891.89,-359.524"/>
<polygon fill="midnightblue" stroke="midnightblue" points="1756.57,-416.815 1746.65,-420.544 1756.73,-423.813 1756.57,-416.815"/>
</g>
<!-- Node24 -->
<g id="node24" class="node"><title>Node24</title>
<g id="a_node24"><a xlink:href="../../d6/d45/LHNormalizationTestApp_8cpp.html" target="_top" xlink:title="/home/travis/build\l/ComPWA/ComPWA/executables\l/LHNormalizationTestApp.cpp">
<polygon fill="white" stroke="black" points="3074.5,-318.5 3074.5,-359.5 3241.5,-359.5 3241.5,-318.5 3074.5,-318.5"/>
<text text-anchor="start" x="3082.5" y="-347.5" font-family="Helvetica,sans-Serif" font-size="10.00">/home/travis/build</text>
<text text-anchor="start" x="3082.5" y="-336.5" font-family="Helvetica,sans-Serif" font-size="10.00">/ComPWA/ComPWA/executables</text>
<text text-anchor="middle" x="3158" y="-325.5" font-family="Helvetica,sans-Serif" font-size="10.00">/LHNormalizationTestApp.cpp</text>
</a>
</g>
</g>
<!-- Node1&#45;&gt;Node24 -->
<g id="edge35" class="edge"><title>Node1&#45;&gt;Node24</title>
<path fill="none" stroke="midnightblue" d="M1757.13,-421.227C2010.87,-418.342 2810.14,-406.214 3065,-366 3075.1,-364.406 3085.67,-362.096 3095.91,-359.5"/>
<polygon fill="midnightblue" stroke="midnightblue" points="1756.85,-417.73 1746.89,-421.342 1756.93,-424.729 1756.85,-417.73"/>
</g>
<!-- Node25 -->
<g id="node25" class="node"><title>Node25</title>
<g id="a_node25"><a xlink:href="../../d2/db6/CoherentIntensity_8cpp.html" target="_top" xlink:title="/home/travis/build\l/ComPWA/ComPWA/Physics\l/HelicityFormalism/CoherentIntensity.cpp">
<polygon fill="white" stroke="black" points="3259.5,-318.5 3259.5,-359.5 3456.5,-359.5 3456.5,-318.5 3259.5,-318.5"/>
<text text-anchor="start" x="3267.5" y="-347.5" font-family="Helvetica,sans-Serif" font-size="10.00">/home/travis/build</text>
<text text-anchor="start" x="3267.5" y="-336.5" font-family="Helvetica,sans-Serif" font-size="10.00">/ComPWA/ComPWA/Physics</text>
<text text-anchor="middle" x="3358" y="-325.5" font-family="Helvetica,sans-Serif" font-size="10.00">/HelicityFormalism/CoherentIntensity.cpp</text>
</a>
</g>
</g>
<!-- Node1&#45;&gt;Node25 -->
<g id="edge36" class="edge"><title>Node1&#45;&gt;Node25</title>
<path fill="none" stroke="midnightblue" d="M1757,-421.289C2032.15,-418.46 2956.67,-406.122 3250,-366 3261.56,-364.419 3273.69,-362.133 3285.47,-359.563"/>
<polygon fill="midnightblue" stroke="midnightblue" points="1756.67,-417.792 1746.71,-421.394 1756.74,-424.792 1756.67,-417.792"/>
</g>
<!-- Node3 -->
<g id="node3" class="node"><title>Node3</title>
<g id="a_node3"><a xlink:href="../../de/d1f/ControlParameter_8hpp.html" target="_top" xlink:title="This class provides the interface for the optimizer module to access the data. ">
<polygon fill="white" stroke="red" points="296.5,-156.5 296.5,-197.5 431.5,-197.5 431.5,-156.5 296.5,-156.5"/>
<text text-anchor="start" x="304.5" y="-185.5" font-family="Helvetica,sans-Serif" font-size="10.00">/home/travis/build</text>
<text text-anchor="start" x="304.5" y="-174.5" font-family="Helvetica,sans-Serif" font-size="10.00">/ComPWA/ComPWA/Core</text>
<text text-anchor="middle" x="364" y="-163.5" font-family="Helvetica,sans-Serif" font-size="10.00">/ControlParameter.hpp</text>
</a>
</g>
</g>
<!-- Node2&#45;&gt;Node3 -->
<g id="edge2" class="edge"><title>Node2&#45;&gt;Node3</title>
<path fill="none" stroke="midnightblue" d="M427.24,-228.065C414.599,-218.057 400.385,-206.804 388.639,-197.506"/>
<polygon fill="midnightblue" stroke="midnightblue" points="425.265,-230.965 435.278,-234.428 429.61,-225.477 425.265,-230.965"/>
</g>
<!-- Node4 -->
<g id="node4" class="node"><title>Node4</title>
<g id="a_node4"><a xlink:href="../../d5/d10/Estimator_8hpp.html" target="_top" xlink:title="This class provides the interface to classes which estimate the &quot;closeness&quot; of the modeled intensity ...">
<polygon fill="white" stroke="red" points="339,-78.5 339,-119.5 495,-119.5 495,-78.5 339,-78.5"/>
<text text-anchor="start" x="347" y="-107.5" font-family="Helvetica,sans-Serif" font-size="10.00">/home/travis/build</text>
<text text-anchor="start" x="347" y="-96.5" font-family="Helvetica,sans-Serif" font-size="10.00">/ComPWA/ComPWA/Estimator</text>
<text text-anchor="middle" x="417" y="-85.5" font-family="Helvetica,sans-Serif" font-size="10.00">/Estimator.hpp</text>
</a>
</g>
</g>
<!-- Node2&#45;&gt;Node4 -->
<g id="edge12" class="edge"><title>Node2&#45;&gt;Node4</title>
<path fill="none" stroke="midnightblue" d="M455.442,-224.317C452.064,-204.694 446.859,-178.53 440,-156 436.235,-143.633 430.778,-130.222 426.125,-119.626"/>
<polygon fill="midnightblue" stroke="midnightblue" points="451.993,-224.914 457.085,-234.205 458.898,-223.767 451.993,-224.914"/>
</g>
<!-- Node5 -->
<g id="node5" class="node"><title>Node5</title>
<g id="a_node5"><a xlink:href="../../d5/d8d/ChiOneD_8hpp.html" target="_top" xlink:title="This class calculates a simple &#160;of a intensity and a dataset. ">
<polygon fill="white" stroke="red" points="339,-0.5 339,-41.5 495,-41.5 495,-0.5 339,-0.5"/>
<text text-anchor="start" x="347" y="-29.5" font-family="Helvetica,sans-Serif" font-size="10.00">/home/travis/build</text>
<text text-anchor="start" x="347" y="-18.5" font-family="Helvetica,sans-Serif" font-size="10.00">/ComPWA/ComPWA/Estimator</text>
<text text-anchor="middle" x="417" y="-7.5" font-family="Helvetica,sans-Serif" font-size="10.00">/ChiOneD/ChiOneD.hpp</text>
</a>
</g>
</g>
<!-- Node2&#45;&gt;Node5 -->
<g id="edge11" class="edge"><title>Node2&#45;&gt;Node5</title>
<path fill="none" stroke="midnightblue" d="M381.96,-248.888C346.996,-242.234 308.803,-227.974 287,-198 253.674,-152.184 291.326,-119.401 330,-78 343.611,-63.4296 361.775,-50.9662 377.984,-41.522"/>
<polygon fill="midnightblue" stroke="midnightblue" points="381.753,-252.403 392.2,-250.644 382.936,-245.504 381.753,-252.403"/>
</g>
<!-- Node2&#45;&gt;Node7 -->
<g id="edge13" class="edge"><title>Node2&#45;&gt;Node7</title>
<path fill="none" stroke="midnightblue" d="M381.851,-245.321C344.883,-237.842 302.132,-223.919 271,-198 225.021,-159.72 248.681,-123.642 210,-78 198.026,-63.8713 181.815,-51.3045 167.441,-41.6737"/>
<polygon fill="midnightblue" stroke="midnightblue" points="381.634,-248.842 392.11,-247.264 382.936,-241.964 381.634,-248.842"/>
</g>
<!-- Node8 -->
<g id="node8" class="node"><title>Node8</title>
<g id="a_node8"><a xlink:href="../../d5/dc2/Dictionary_8hpp.html" target="_top" xlink:title="This class gathers information from modules, namely what they need as input and what they provide as ...">
<polygon fill="white" stroke="red" points="488.5,-156.5 488.5,-197.5 623.5,-197.5 623.5,-156.5 488.5,-156.5"/>
<text text-anchor="start" x="496.5" y="-185.5" font-family="Helvetica,sans-Serif" font-size="10.00">/home/travis/build</text>
<text text-anchor="start" x="496.5" y="-174.5" font-family="Helvetica,sans-Serif" font-size="10.00">/ComPWA/ComPWA/Core</text>
<text text-anchor="middle" x="556" y="-163.5" font-family="Helvetica,sans-Serif" font-size="10.00">/Dictionary.hpp</text>
</a>
</g>
</g>
<!-- Node2&#45;&gt;Node8 -->
<g id="edge7" class="edge"><title>Node2&#45;&gt;Node8</title>
<path fill="none" stroke="midnightblue" d="M492.76,-228.065C505.401,-218.057 519.615,-206.804 531.361,-197.506"/>
<polygon fill="midnightblue" stroke="midnightblue" points="490.39,-225.477 484.722,-234.428 494.735,-230.965 490.39,-225.477"/>
</g>
<!-- Node9 -->
<g id="node9" class="node"><title>Node9</title>
<g id="a_node9"><a xlink:href="../../de/d88/FitResult_8hpp.html" target="_top" xlink:title="/home/travis/build\l/ComPWA/ComPWA/Core\l/FitResult.hpp">
<polygon fill="white" stroke="red" points="66.5,-78.5 66.5,-119.5 201.5,-119.5 201.5,-78.5 66.5,-78.5"/>
<text text-anchor="start" x="74.5" y="-107.5" font-family="Helvetica,sans-Serif" font-size="10.00">/home/travis/build</text>
<text text-anchor="start" x="74.5" y="-96.5" font-family="Helvetica,sans-Serif" font-size="10.00">/ComPWA/ComPWA/Core</text>
<text text-anchor="middle" x="134" y="-85.5" font-family="Helvetica,sans-Serif" font-size="10.00">/FitResult.hpp</text>
</a>
</g>
</g>
<!-- Node2&#45;&gt;Node9 -->
<g id="edge8" class="edge"><title>Node2&#45;&gt;Node9</title>
<path fill="none" stroke="midnightblue" d="M382.258,-248.934C331.777,-242.69 266.269,-228.808 216,-198 184.224,-178.525 158.839,-142.406 145.142,-119.875"/>
<polygon fill="midnightblue" stroke="midnightblue" points="382.131,-252.443 392.467,-250.119 382.937,-245.489 382.131,-252.443"/>
</g>
<!-- Node2&#45;&gt;Node10 -->
<g id="edge10" class="edge"><title>Node2&#45;&gt;Node10</title>
<path fill="none" stroke="midnightblue" d="M537.445,-233.563C582.048,-221.793 637.571,-207.141 680.401,-195.839"/>
<polygon fill="midnightblue" stroke="midnightblue" points="536.299,-230.246 527.523,-236.181 538.085,-237.014 536.299,-230.246"/>
</g>
<!-- Node3&#45;&gt;Node4 -->
<g id="edge3" class="edge"><title>Node3&#45;&gt;Node4</title>
<path fill="none" stroke="midnightblue" d="M383.493,-148.048C390.106,-138.566 397.345,-128.185 403.397,-119.506"/>
<polygon fill="midnightblue" stroke="midnightblue" points="380.498,-146.224 377.649,-156.428 386.24,-150.228 380.498,-146.224"/>
</g>
<!-- Node4&#45;&gt;Node5 -->
<g id="edge4" class="edge"><title>Node4&#45;&gt;Node5</title>
<path fill="none" stroke="midnightblue" d="M417,-68.2965C417,-59.3009 417,-49.6532 417,-41.5056"/>
<polygon fill="midnightblue" stroke="midnightblue" points="413.5,-68.4281 417,-78.4281 420.5,-68.4281 413.5,-68.4281"/>
</g>
<!-- Node4&#45;&gt;Node6 -->
<g id="edge5" class="edge"><title>Node4&#45;&gt;Node6</title>
<path fill="none" stroke="midnightblue" d="M505.4,-82.2661C581.775,-68.6724 691.149,-49.2053 764.732,-36.1086"/>
<polygon fill="midnightblue" stroke="midnightblue" points="504.55,-78.8622 495.318,-84.0604 505.777,-85.7539 504.55,-78.8622"/>
</g>
<!-- Node4&#45;&gt;Node7 -->
<g id="edge6" class="edge"><title>Node4&#45;&gt;Node7</title>
<path fill="none" stroke="midnightblue" d="M334.279,-75.7852C292.658,-64.6079 242.786,-51.2147 203.221,-40.5894"/>
<polygon fill="midnightblue" stroke="midnightblue" points="333.555,-79.2147 344.12,-78.4281 335.37,-72.4542 333.555,-79.2147"/>
</g>
<!-- Node9&#45;&gt;Node7 -->
<g id="edge9" class="edge"><title>Node9&#45;&gt;Node7</title>
<path fill="none" stroke="midnightblue" d="M134,-68.2965C134,-59.3009 134,-49.6532 134,-41.5056"/>
<polygon fill="midnightblue" stroke="midnightblue" points="130.5,-68.4281 134,-78.4281 137.5,-68.4281 130.5,-68.4281"/>
</g>
<!-- Node12&#45;&gt;Node2 -->
<g id="edge17" class="edge"><title>Node12&#45;&gt;Node2</title>
<path fill="none" stroke="midnightblue" d="M596.517,-314.304C567.796,-302.038 533.149,-287.241 505.946,-275.623"/>
<polygon fill="midnightblue" stroke="midnightblue" points="595.44,-317.65 606.011,-318.359 598.19,-311.213 595.44,-317.65"/>
</g>
<!-- Node12&#45;&gt;Node5 -->
<g id="edge20" class="edge"><title>Node12&#45;&gt;Node5</title>
<path fill="none" stroke="midnightblue" d="M656.214,-308.439C660.103,-270.173 661.47,-202.854 632,-156 595.938,-98.665 525.459,-61.8196 475.022,-41.5605"/>
<polygon fill="midnightblue" stroke="midnightblue" points="652.731,-308.088 655.074,-318.42 659.686,-308.882 652.731,-308.088"/>
</g>
<!-- Node12&#45;&gt;Node6 -->
<g id="edge21" class="edge"><title>Node12&#45;&gt;Node6</title>
<path fill="none" stroke="midnightblue" d="M699.453,-313.317C739.869,-289.564 795.75,-249.664 824,-198 851.811,-147.139 849.509,-75.7552 846.362,-41.6474"/>
<polygon fill="midnightblue" stroke="midnightblue" points="697.49,-310.408 690.566,-318.428 700.98,-316.476 697.49,-310.408"/>
</g>
<!-- Node12&#45;&gt;Node7 -->
<g id="edge22" class="edge"><title>Node12&#45;&gt;Node7</title>
<path fill="none" stroke="midnightblue" d="M558.251,-322.185C457.824,-302.705 295.786,-263.833 169,-198 115.165,-170.047 85.0779,-173.77 57,-120 48.3597,-103.453 48.5295,-94.6341 57,-78 64.8008,-62.6811 78.9714,-50.5666 93.049,-41.5811"/>
<polygon fill="midnightblue" stroke="midnightblue" points="557.896,-325.681 568.376,-324.124 559.213,-318.806 557.896,-325.681"/>
</g>
<!-- Node12&#45;&gt;Node8 -->
<g id="edge18" class="edge"><title>Node12&#45;&gt;Node8</title>
<path fill="none" stroke="midnightblue" d="M634.875,-309.458C615.57,-277.284 584.691,-225.819 567.868,-197.78"/>
<polygon fill="midnightblue" stroke="midnightblue" points="632.082,-311.607 640.229,-318.381 638.085,-308.005 632.082,-311.607"/>
</g>
<!-- Node12&#45;&gt;Node10 -->
<g id="edge19" class="edge"><title>Node12&#45;&gt;Node10</title>
<path fill="none" stroke="midnightblue" d="M669.125,-309.458C688.43,-277.284 719.309,-225.819 736.132,-197.78"/>
<polygon fill="midnightblue" stroke="midnightblue" points="665.915,-308.005 663.771,-318.381 671.918,-311.607 665.915,-308.005"/>
</g>
</g>
</svg>
