<?xml version="1.0" encoding="UTF-8" standalone="no"?>
<!DOCTYPE svg PUBLIC "-//W3C//DTD SVG 1.1//EN"
 "http://www.w3.org/Graphics/SVG/1.1/DTD/svg11.dtd">
<!-- Generated by graphviz version 2.36.0 (20140111.2315)
 -->
<!-- Title: /home/travis/build/ComPWA/ComPWA/Core/Efficiency.hpp Pages: 1 -->
<svg width="3069pt" height="476pt"
 viewBox="0.00 0.00 3069.00 476.00" xmlns="http://www.w3.org/2000/svg" xmlns:xlink="http://www.w3.org/1999/xlink">
<g id="graph0" class="graph" transform="scale(1 1) rotate(0) translate(4 472)">
<title>/home/travis/build/ComPWA/ComPWA/Core/Efficiency.hpp</title>
<polygon fill="white" stroke="none" points="-4,4 -4,-472 3065,-472 3065,4 -4,4"/>
<!-- Node1 -->
<g id="node1" class="node"><title>Node1</title>
<polygon fill="#bfbfbf" stroke="black" points="1426.5,-426.5 1426.5,-467.5 1561.5,-467.5 1561.5,-426.5 1426.5,-426.5"/>
<text text-anchor="start" x="1434.5" y="-455.5" font-family="Helvetica,sans-Serif" font-size="10.00">/home/travis/build</text>
<text text-anchor="start" x="1434.5" y="-444.5" font-family="Helvetica,sans-Serif" font-size="10.00">/ComPWA/ComPWA/Core</text>
<text text-anchor="middle" x="1494" y="-433.5" font-family="Helvetica,sans-Serif" font-size="10.00">/Efficiency.hpp</text>
</g>
<!-- Node2 -->
<g id="node2" class="node"><title>Node2</title>
<g id="a_node2"><a xlink:href="../../dc/dfd/AmpIntensity_8hpp.html" target="_top" xlink:title="/home/travis/build\l/ComPWA/ComPWA/Core\l/AmpIntensity.hpp">
<polygon fill="white" stroke="red" points="403.5,-258.5 403.5,-299.5 538.5,-299.5 538.5,-258.5 403.5,-258.5"/>
<text text-anchor="start" x="411.5" y="-287.5" font-family="Helvetica,sans-Serif" font-size="10.00">/home/travis/build</text>
<text text-anchor="start" x="411.5" y="-276.5" font-family="Helvetica,sans-Serif" font-size="10.00">/ComPWA/ComPWA/Core</text>
<text text-anchor="middle" x="471" y="-265.5" font-family="Helvetica,sans-Serif" font-size="10.00">/AmpIntensity.hpp</text>
</a>
</g>
</g>
<!-- Node1&#45;&gt;Node2 -->
<g id="edge1" class="edge"><title>Node1&#45;&gt;Node2</title>
<path fill="none" stroke="midnightblue" d="M1416.1,-446.276C1231.67,-446.079 773.035,-440.37 629,-390 573.472,-370.582 519.615,-325.871 491.377,-299.824"/>
<polygon fill="midnightblue" stroke="midnightblue" points="1416.26,-449.776 1426.26,-446.281 1416.26,-442.776 1416.26,-449.776"/>
</g>
<!-- Node7 -->
<g id="node7" class="node"><title>Node7</title>
<g id="a_node7"><a xlink:href="../../db/deb/PythonFit_8hpp.html" target="_top" xlink:title="This class provides a Manager for simple fits. ">
<polygon fill="white" stroke="red" points="636.5,-91 636.5,-143 803.5,-143 803.5,-91 636.5,-91"/>
<text text-anchor="start" x="644.5" y="-131" font-family="Helvetica,sans-Serif" font-size="10.00">/home/travis/build</text>
<text text-anchor="start" x="644.5" y="-120" font-family="Helvetica,sans-Serif" font-size="10.00">/ComPWA/ComPWA/executables</text>
<text text-anchor="start" x="644.5" y="-109" font-family="Helvetica,sans-Serif" font-size="10.00">/Examples/PythonDalitzFit</text>
<text text-anchor="middle" x="720" y="-98" font-family="Helvetica,sans-Serif" font-size="10.00">/PythonFit.hpp</text>
</a>
</g>
</g>
<!-- Node1&#45;&gt;Node7 -->
<g id="edge26" class="edge"><title>Node1&#45;&gt;Node7</title>
<path fill="none" stroke="midnightblue" d="M1416.01,-445.725C1225.5,-443.103 745.866,-424.078 662,-300 651.547,-284.535 654.624,-275.148 662,-258 671.192,-236.629 688.822,-242.403 700,-222 713.428,-197.49 717.961,-165.422 719.428,-143.411"/>
<polygon fill="midnightblue" stroke="midnightblue" points="1416.18,-449.227 1426.23,-445.853 1416.27,-442.228 1416.18,-449.227"/>
</g>
<!-- Node8 -->
<g id="node8" class="node"><title>Node8</title>
<g id="a_node8"><a xlink:href="../../d6/d0a/PythonFit_8cpp.html" target="_top" xlink:title="/home/travis/build\l/ComPWA/ComPWA/executables\l/Examples/PythonDalitzFit\l/PythonFit.cpp">
<polygon fill="white" stroke="black" points="1187.5,-1 1187.5,-53 1354.5,-53 1354.5,-1 1187.5,-1"/>
<text text-anchor="start" x="1195.5" y="-41" font-family="Helvetica,sans-Serif" font-size="10.00">/home/travis/build</text>
<text text-anchor="start" x="1195.5" y="-30" font-family="Helvetica,sans-Serif" font-size="10.00">/ComPWA/ComPWA/executables</text>
<text text-anchor="start" x="1195.5" y="-19" font-family="Helvetica,sans-Serif" font-size="10.00">/Examples/PythonDalitzFit</text>
<text text-anchor="middle" x="1271" y="-8" font-family="Helvetica,sans-Serif" font-size="10.00">/PythonFit.cpp</text>
</a>
</g>
</g>
<!-- Node1&#45;&gt;Node8 -->
<g id="edge25" class="edge"><title>Node1&#45;&gt;Node8</title>
<path fill="none" stroke="midnightblue" d="M1514.05,-418.152C1520.46,-409.19 1527.56,-399.199 1534,-390 1550.68,-366.162 1545.77,-350.495 1571,-336 1762.96,-225.692 2195.94,-435.041 2063,-258 1976.86,-143.291 1540.35,-67.243 1354.73,-39.6106"/>
<polygon fill="midnightblue" stroke="midnightblue" points="1511.14,-416.203 1508.16,-426.37 1516.83,-420.281 1511.14,-416.203"/>
</g>
<!-- Node9 -->
<g id="node9" class="node"><title>Node9</title>
<g id="a_node9"><a xlink:href="../../db/d41/RunManager_8hpp.html" target="_top" xlink:title="This class provides a RunManager for simple fits. ">
<polygon fill="white" stroke="red" points="0,-96.5 0,-137.5 138,-137.5 138,-96.5 0,-96.5"/>
<text text-anchor="start" x="8" y="-125.5" font-family="Helvetica,sans-Serif" font-size="10.00">/home/travis/build</text>
<text text-anchor="start" x="8" y="-114.5" font-family="Helvetica,sans-Serif" font-size="10.00">/ComPWA/ComPWA/Tools</text>
<text text-anchor="middle" x="69" y="-103.5" font-family="Helvetica,sans-Serif" font-size="10.00">/RunManager.hpp</text>
</a>
</g>
</g>
<!-- Node1&#45;&gt;Node9 -->
<g id="edge37" class="edge"><title>Node1&#45;&gt;Node9</title>
<path fill="none" stroke="midnightblue" d="M1416.19,-444.357C1218.31,-439.717 699.617,-424.54 531,-390 315.319,-345.819 191.553,-402.151 65,-222 47.5507,-197.161 54.7263,-160.134 61.7213,-137.613"/>
<polygon fill="midnightblue" stroke="midnightblue" points="1416.14,-447.857 1426.22,-444.589 1416.3,-440.858 1416.14,-447.857"/>
</g>
<!-- Node10 -->
<g id="node10" class="node"><title>Node10</title>
<g id="a_node10"><a xlink:href="../../d8/dd4/DataPoint_8hpp.html" target="_top" xlink:title="dataPoint stores kinematic information of a dalitz plot ">
<polygon fill="white" stroke="red" points="1219.5,-342.5 1219.5,-383.5 1354.5,-383.5 1354.5,-342.5 1219.5,-342.5"/>
<text text-anchor="start" x="1227.5" y="-371.5" font-family="Helvetica,sans-Serif" font-size="10.00">/home/travis/build</text>
<text text-anchor="start" x="1227.5" y="-360.5" font-family="Helvetica,sans-Serif" font-size="10.00">/ComPWA/ComPWA/Core</text>
<text text-anchor="middle" x="1287" y="-349.5" font-family="Helvetica,sans-Serif" font-size="10.00">/DataPoint.hpp</text>
</a>
</g>
</g>
<!-- Node1&#45;&gt;Node10 -->
<g id="edge10" class="edge"><title>Node1&#45;&gt;Node10</title>
<path fill="none" stroke="midnightblue" d="M1435.22,-422.714C1403.97,-410.336 1365.99,-395.29 1336.3,-383.529"/>
<polygon fill="midnightblue" stroke="midnightblue" points="1434.1,-426.034 1444.68,-426.463 1436.67,-419.526 1434.1,-426.034"/>
</g>
<!-- Node11 -->
<g id="node11" class="node"><title>Node11</title>
<g id="a_node11"><a xlink:href="../../da/d2a/DalitzFitApp_8cpp.html" target="_top" xlink:title="Dalitz plot analysis of the decay D0&#45;&gt;K_S0 K_ K&#45;Fit application for D0&#45;&gt;K_S0 K_ K&#45; analysis...">
<polygon fill="white" stroke="black" points="671.5,-258.5 671.5,-299.5 850.5,-299.5 850.5,-258.5 671.5,-258.5"/>
<text text-anchor="start" x="679.5" y="-287.5" font-family="Helvetica,sans-Serif" font-size="10.00">/home/travis/build</text>
<text text-anchor="start" x="679.5" y="-276.5" font-family="Helvetica,sans-Serif" font-size="10.00">/ComPWA/ComPWA/executables</text>
<text text-anchor="middle" x="761" y="-265.5" font-family="Helvetica,sans-Serif" font-size="10.00">/Examples/DalitzFit/DalitzFitApp.cpp</text>
</a>
</g>
</g>
<!-- Node1&#45;&gt;Node11 -->
<g id="edge23" class="edge"><title>Node1&#45;&gt;Node11</title>
<path fill="none" stroke="midnightblue" d="M1416.27,-441.871C1326.63,-435.815 1175.38,-421.6 1049,-390 958.652,-367.409 858.072,-324.711 802.907,-299.675"/>
<polygon fill="midnightblue" stroke="midnightblue" points="1416.15,-445.37 1426.36,-442.536 1416.61,-438.386 1416.15,-445.37"/>
</g>
<!-- Node12 -->
<g id="node12" class="node"><title>Node12</title>
<g id="a_node12"><a xlink:href="../../d1/d93/GenDalitzApp_8cpp.html" target="_top" xlink:title="Application to generate J/Psi &#45;&gt; g pi pi. ">
<polygon fill="white" stroke="black" points="868.5,-258.5 868.5,-299.5 1053.5,-299.5 1053.5,-258.5 868.5,-258.5"/>
<text text-anchor="start" x="876.5" y="-287.5" font-family="Helvetica,sans-Serif" font-size="10.00">/home/travis/build</text>
<text text-anchor="start" x="876.5" y="-276.5" font-family="Helvetica,sans-Serif" font-size="10.00">/ComPWA/ComPWA/executables</text>
<text text-anchor="middle" x="961" y="-265.5" font-family="Helvetica,sans-Serif" font-size="10.00">/Examples/DalitzFit/GenDalitzApp.cpp</text>
</a>
</g>
</g>
<!-- Node1&#45;&gt;Node12 -->
<g id="edge24" class="edge"><title>Node1&#45;&gt;Node12</title>
<path fill="none" stroke="midnightblue" d="M1416.44,-439.578C1349.51,-432.412 1250.96,-417.94 1169,-390 1101.72,-367.065 1029.81,-324.49 990.643,-299.569"/>
<polygon fill="midnightblue" stroke="midnightblue" points="1416.18,-443.07 1426.49,-440.625 1416.91,-436.108 1416.18,-443.07"/>
</g>
<!-- Node13 -->
<g id="node13" class="node"><title>Node13</title>
<g id="a_node13"><a xlink:href="../../d6/d9a/SliceFitApp_8cpp.html" target="_top" xlink:title="/home/travis/build\l/ComPWA/ComPWA/executables\l/Examples/SliceFit/SliceFitApp.cpp">
<polygon fill="white" stroke="black" points="1071.5,-258.5 1071.5,-299.5 1242.5,-299.5 1242.5,-258.5 1071.5,-258.5"/>
<text text-anchor="start" x="1079.5" y="-287.5" font-family="Helvetica,sans-Serif" font-size="10.00">/home/travis/build</text>
<text text-anchor="start" x="1079.5" y="-276.5" font-family="Helvetica,sans-Serif" font-size="10.00">/ComPWA/ComPWA/executables</text>
<text text-anchor="middle" x="1157" y="-265.5" font-family="Helvetica,sans-Serif" font-size="10.00">/Examples/SliceFit/SliceFitApp.cpp</text>
</a>
</g>
</g>
<!-- Node1&#45;&gt;Node13 -->
<g id="edge27" class="edge"><title>Node1&#45;&gt;Node13</title>
<path fill="none" stroke="midnightblue" d="M1416.2,-438.384C1343.82,-429.938 1242.54,-414.219 1211,-390 1181.64,-367.453 1167.25,-324.739 1161.04,-299.688"/>
<polygon fill="midnightblue" stroke="midnightblue" points="1415.88,-441.87 1426.21,-439.527 1416.68,-434.915 1415.88,-441.87"/>
</g>
<!-- Node14 -->
<g id="node14" class="node"><title>Node14</title>
<g id="a_node14"><a xlink:href="../../d3/dbc/SliceFitRANDApp_8cpp.html" target="_top" xlink:title="/home/travis/build\l/ComPWA/ComPWA/executables\l/Examples/SliceFit/SliceFitRANDApp.cpp">
<polygon fill="white" stroke="black" points="1299,-258.5 1299,-299.5 1499,-299.5 1499,-258.5 1299,-258.5"/>
<text text-anchor="start" x="1307" y="-287.5" font-family="Helvetica,sans-Serif" font-size="10.00">/home/travis/build</text>
<text text-anchor="start" x="1307" y="-276.5" font-family="Helvetica,sans-Serif" font-size="10.00">/ComPWA/ComPWA/executables</text>
<text text-anchor="middle" x="1399" y="-265.5" font-family="Helvetica,sans-Serif" font-size="10.00">/Examples/SliceFit/SliceFitRANDApp.cpp</text>
</a>
</g>
</g>
<!-- Node1&#45;&gt;Node14 -->
<g id="edge28" class="edge"><title>Node1&#45;&gt;Node14</title>
<path fill="none" stroke="midnightblue" d="M1451.74,-420.336C1440.92,-411.91 1430.3,-401.667 1423,-390 1405.48,-361.993 1400.64,-323.025 1399.36,-299.774"/>
<polygon fill="midnightblue" stroke="midnightblue" points="1449.87,-423.306 1460,-426.419 1454.02,-417.67 1449.87,-423.306"/>
</g>
<!-- Node15 -->
<g id="node15" class="node"><title>Node15</title>
<g id="a_node15"><a xlink:href="../../d9/de4/SliceFitUBApp_8cpp.html" target="_top" xlink:title="/home/travis/build\l/ComPWA/ComPWA/executables\l/Examples/SliceFit/SliceFitUBApp.cpp">
<polygon fill="white" stroke="black" points="1517.5,-258.5 1517.5,-299.5 1702.5,-299.5 1702.5,-258.5 1517.5,-258.5"/>
<text text-anchor="start" x="1525.5" y="-287.5" font-family="Helvetica,sans-Serif" font-size="10.00">/home/travis/build</text>
<text text-anchor="start" x="1525.5" y="-276.5" font-family="Helvetica,sans-Serif" font-size="10.00">/ComPWA/ComPWA/executables</text>
<text text-anchor="middle" x="1610" y="-265.5" font-family="Helvetica,sans-Serif" font-size="10.00">/Examples/SliceFit/SliceFitUBApp.cpp</text>
</a>
</g>
</g>
<!-- Node1&#45;&gt;Node15 -->
<g id="edge29" class="edge"><title>Node1&#45;&gt;Node15</title>
<path fill="none" stroke="midnightblue" d="M1472.91,-417.618C1458.2,-394.063 1443.99,-360.564 1461,-336 1470.28,-322.596 1502.66,-309.65 1534.88,-299.589"/>
<polygon fill="midnightblue" stroke="midnightblue" points="1470.09,-419.693 1478.51,-426.12 1475.93,-415.843 1470.09,-419.693"/>
</g>
<!-- Node16 -->
<g id="node16" class="node"><title>Node16</title>
<g id="a_node16"><a xlink:href="../../d1/d13/HelicityAmplitudeFitApp_8cpp.html" target="_top" xlink:title="/home/travis/build\l/ComPWA/ComPWA/executables\l/HelicityAmplitudeFitApp.cpp">
<polygon fill="white" stroke="black" points="1720.5,-258.5 1720.5,-299.5 1887.5,-299.5 1887.5,-258.5 1720.5,-258.5"/>
<text text-anchor="start" x="1728.5" y="-287.5" font-family="Helvetica,sans-Serif" font-size="10.00">/home/travis/build</text>
<text text-anchor="start" x="1728.5" y="-276.5" font-family="Helvetica,sans-Serif" font-size="10.00">/ComPWA/ComPWA/executables</text>
<text text-anchor="middle" x="1804" y="-265.5" font-family="Helvetica,sans-Serif" font-size="10.00">/HelicityAmplitudeFitApp.cpp</text>
</a>
</g>
</g>
<!-- Node1&#45;&gt;Node16 -->
<g id="edge31" class="edge"><title>Node1&#45;&gt;Node16</title>
<path fill="none" stroke="midnightblue" d="M1486.14,-416.334C1481.56,-391.783 1479.94,-357.554 1499,-336 1530.65,-300.201 1664.07,-309.026 1711,-300 1714.08,-299.407 1717.22,-298.792 1720.38,-298.162"/>
<polygon fill="midnightblue" stroke="midnightblue" points="1482.73,-417.141 1488.23,-426.199 1489.58,-415.691 1482.73,-417.141"/>
</g>
<!-- Node17 -->
<g id="node17" class="node"><title>Node17</title>
<g id="a_node17"><a xlink:href="../../dc/de3/Amplitude_8hpp.html" target="_top" xlink:title="This class provides the interface to the model which tries to describe the intensity. ">
<polygon fill="white" stroke="red" points="1905.5,-258.5 1905.5,-299.5 2054.5,-299.5 2054.5,-258.5 1905.5,-258.5"/>
<text text-anchor="start" x="1913.5" y="-287.5" font-family="Helvetica,sans-Serif" font-size="10.00">/home/travis/build</text>
<text text-anchor="start" x="1913.5" y="-276.5" font-family="Helvetica,sans-Serif" font-size="10.00">/ComPWA/ComPWA/Physics</text>
<text text-anchor="middle" x="1980" y="-265.5" font-family="Helvetica,sans-Serif" font-size="10.00">/Amplitude.hpp</text>
</a>
</g>
</g>
<!-- Node1&#45;&gt;Node17 -->
<g id="edge35" class="edge"><title>Node1&#45;&gt;Node17</title>
<path fill="none" stroke="midnightblue" d="M1497.07,-416.522C1501.42,-390.926 1511.88,-355.062 1537,-336 1600.87,-287.538 1816.94,-313.315 1896,-300 1899.1,-299.477 1902.26,-298.906 1905.45,-298.297"/>
<polygon fill="midnightblue" stroke="midnightblue" points="1493.61,-416.041 1495.6,-426.445 1500.53,-417.066 1493.61,-416.041"/>
</g>
<!-- Node18 -->
<g id="node18" class="node"><title>Node18</title>
<g id="a_node18"><a xlink:href="../../d0/d3c/Efficiency_8cpp.html" target="_top" xlink:title="/home/travis/build\l/ComPWA/ComPWA/Core\l/Efficiency.cpp">
<polygon fill="white" stroke="black" points="1579.5,-342.5 1579.5,-383.5 1714.5,-383.5 1714.5,-342.5 1579.5,-342.5"/>
<text text-anchor="start" x="1587.5" y="-371.5" font-family="Helvetica,sans-Serif" font-size="10.00">/home/travis/build</text>
<text text-anchor="start" x="1587.5" y="-360.5" font-family="Helvetica,sans-Serif" font-size="10.00">/ComPWA/ComPWA/Core</text>
<text text-anchor="middle" x="1647" y="-349.5" font-family="Helvetica,sans-Serif" font-size="10.00">/Efficiency.cpp</text>
</a>
</g>
</g>
<!-- Node1&#45;&gt;Node18 -->
<g id="edge20" class="edge"><title>Node1&#45;&gt;Node18</title>
<path fill="none" stroke="midnightblue" d="M1539.71,-421.501C1562.3,-409.396 1589.18,-394.988 1610.39,-383.623"/>
<polygon fill="midnightblue" stroke="midnightblue" points="1537.81,-418.55 1530.65,-426.359 1541.11,-424.72 1537.81,-418.55"/>
</g>
<!-- Node19 -->
<g id="node19" class="node"><title>Node19</title>
<g id="a_node19"><a xlink:href="../../d5/d5e/RootEfficiency_8hpp.html" target="_top" xlink:title="/home/travis/build\l/ComPWA/ComPWA/DataReader\l/RootReader/RootEfficiency.hpp">
<polygon fill="white" stroke="red" points="1732.5,-342.5 1732.5,-383.5 1899.5,-383.5 1899.5,-342.5 1732.5,-342.5"/>
<text text-anchor="start" x="1740.5" y="-371.5" font-family="Helvetica,sans-Serif" font-size="10.00">/home/travis/build</text>
<text text-anchor="start" x="1740.5" y="-360.5" font-family="Helvetica,sans-Serif" font-size="10.00">/ComPWA/ComPWA/DataReader</text>
<text text-anchor="middle" x="1816" y="-349.5" font-family="Helvetica,sans-Serif" font-size="10.00">/RootReader/RootEfficiency.hpp</text>
</a>
</g>
</g>
<!-- Node1&#45;&gt;Node19 -->
<g id="edge21" class="edge"><title>Node1&#45;&gt;Node19</title>
<path fill="none" stroke="midnightblue" d="M1571.4,-427.74C1615.85,-417.087 1672.66,-403.187 1723,-390 1730.78,-387.961 1738.92,-385.772 1747,-383.562"/>
<polygon fill="midnightblue" stroke="midnightblue" points="1570.44,-424.37 1561.53,-430.1 1572.07,-431.178 1570.44,-424.37"/>
</g>
<!-- Node20 -->
<g id="node20" class="node"><title>Node20</title>
<g id="a_node20"><a xlink:href="../../d9/dab/CompareTreeAmpApp_8cpp.html" target="_top" xlink:title="/home/travis/build\l/ComPWA/ComPWA/executables\l/CompareTreeAmpApp.cpp">
<polygon fill="white" stroke="black" points="1917.5,-342.5 1917.5,-383.5 2084.5,-383.5 2084.5,-342.5 1917.5,-342.5"/>
<text text-anchor="start" x="1925.5" y="-371.5" font-family="Helvetica,sans-Serif" font-size="10.00">/home/travis/build</text>
<text text-anchor="start" x="1925.5" y="-360.5" font-family="Helvetica,sans-Serif" font-size="10.00">/ComPWA/ComPWA/executables</text>
<text text-anchor="middle" x="2001" y="-349.5" font-family="Helvetica,sans-Serif" font-size="10.00">/CompareTreeAmpApp.cpp</text>
</a>
</g>
</g>
<!-- Node1&#45;&gt;Node20 -->
<g id="edge22" class="edge"><title>Node1&#45;&gt;Node20</title>
<path fill="none" stroke="midnightblue" d="M1571.71,-438.727C1655.31,-430.151 1791.91,-413.96 1908,-390 1916.95,-388.153 1926.3,-385.914 1935.48,-383.534"/>
<polygon fill="midnightblue" stroke="midnightblue" points="1571.12,-435.269 1561.53,-439.761 1571.83,-442.233 1571.12,-435.269"/>
</g>
<!-- Node21 -->
<g id="node21" class="node"><title>Node21</title>
<g id="a_node21"><a xlink:href="../../db/d19/GenRunManagerApp_8cpp.html" target="_top" xlink:title="/home/travis/build\l/ComPWA/ComPWA/executables\l/GenRunManagerApp.cpp">
<polygon fill="white" stroke="black" points="2102.5,-342.5 2102.5,-383.5 2269.5,-383.5 2269.5,-342.5 2102.5,-342.5"/>
<text text-anchor="start" x="2110.5" y="-371.5" font-family="Helvetica,sans-Serif" font-size="10.00">/home/travis/build</text>
<text text-anchor="start" x="2110.5" y="-360.5" font-family="Helvetica,sans-Serif" font-size="10.00">/ComPWA/ComPWA/executables</text>
<text text-anchor="middle" x="2186" y="-349.5" font-family="Helvetica,sans-Serif" font-size="10.00">/GenRunManagerApp.cpp</text>
</a>
</g>
</g>
<!-- Node1&#45;&gt;Node21 -->
<g id="edge30" class="edge"><title>Node1&#45;&gt;Node21</title>
<path fill="none" stroke="midnightblue" d="M1572.03,-443.171C1686.94,-438 1908.07,-424.21 2093,-390 2102.4,-388.262 2112.22,-386.009 2121.81,-383.556"/>
<polygon fill="midnightblue" stroke="midnightblue" points="1571.75,-439.68 1561.92,-443.616 1572.06,-446.673 1571.75,-439.68"/>
</g>
<!-- Node22 -->
<g id="node22" class="node"><title>Node22</title>
<g id="a_node22"><a xlink:href="../../d4/d26/HelicityCoherentAmplitudeEventGenApp_8cpp.html" target="_top" xlink:title="Application to generate J/Psi &#45;&gt; g pi pi. ">
<polygon fill="white" stroke="black" points="2287.5,-337 2287.5,-389 2454.5,-389 2454.5,-337 2287.5,-337"/>
<text text-anchor="start" x="2295.5" y="-377" font-family="Helvetica,sans-Serif" font-size="10.00">/home/travis/build</text>
<text text-anchor="start" x="2295.5" y="-366" font-family="Helvetica,sans-Serif" font-size="10.00">/ComPWA/ComPWA/executables</text>
<text text-anchor="start" x="2295.5" y="-355" font-family="Helvetica,sans-Serif" font-size="10.00">/HelicityCoherentAmplitudeEvent</text>
<text text-anchor="middle" x="2371" y="-344" font-family="Helvetica,sans-Serif" font-size="10.00">GenApp.cpp</text>
</a>
</g>
</g>
<!-- Node1&#45;&gt;Node22 -->
<g id="edge32" class="edge"><title>Node1&#45;&gt;Node22</title>
<path fill="none" stroke="midnightblue" d="M1571.99,-445.606C1713.65,-443.746 2022.23,-434.42 2278,-390 2281.06,-389.469 2284.16,-388.88 2287.28,-388.242"/>
<polygon fill="midnightblue" stroke="midnightblue" points="1571.63,-442.11 1561.67,-445.732 1571.71,-449.11 1571.63,-442.11"/>
</g>
<!-- Node23 -->
<g id="node23" class="node"><title>Node23</title>
<g id="a_node23"><a xlink:href="../../dc/ddc/HelicityCoherentAmplitudePlotApp_8cpp.html" target="_top" xlink:title="Application to generate J/Psi &#45;&gt; g pi pi. ">
<polygon fill="white" stroke="black" points="2472.5,-342.5 2472.5,-383.5 2661.5,-383.5 2661.5,-342.5 2472.5,-342.5"/>
<text text-anchor="start" x="2480.5" y="-371.5" font-family="Helvetica,sans-Serif" font-size="10.00">/home/travis/build</text>
<text text-anchor="start" x="2480.5" y="-360.5" font-family="Helvetica,sans-Serif" font-size="10.00">/ComPWA/ComPWA/executables</text>
<text text-anchor="middle" x="2567" y="-349.5" font-family="Helvetica,sans-Serif" font-size="10.00">/HelicityCoherentAmplitudePlotApp.cpp</text>
</a>
</g>
</g>
<!-- Node1&#45;&gt;Node23 -->
<g id="edge33" class="edge"><title>Node1&#45;&gt;Node23</title>
<path fill="none" stroke="midnightblue" d="M1571.77,-446.424C1736.93,-446.248 2134.42,-440.115 2463,-390 2473.86,-388.344 2485.23,-386.071 2496.31,-383.552"/>
<polygon fill="midnightblue" stroke="midnightblue" points="1571.71,-442.924 1561.71,-446.428 1571.71,-449.924 1571.71,-442.924"/>
</g>
<!-- Node24 -->
<g id="node24" class="node"><title>Node24</title>
<g id="a_node24"><a xlink:href="../../d6/d45/LHNormalizationTestApp_8cpp.html" target="_top" xlink:title="/home/travis/build\l/ComPWA/ComPWA/executables\l/LHNormalizationTestApp.cpp">
<polygon fill="white" stroke="black" points="2679.5,-342.5 2679.5,-383.5 2846.5,-383.5 2846.5,-342.5 2679.5,-342.5"/>
<text text-anchor="start" x="2687.5" y="-371.5" font-family="Helvetica,sans-Serif" font-size="10.00">/home/travis/build</text>
<text text-anchor="start" x="2687.5" y="-360.5" font-family="Helvetica,sans-Serif" font-size="10.00">/ComPWA/ComPWA/executables</text>
<text text-anchor="middle" x="2763" y="-349.5" font-family="Helvetica,sans-Serif" font-size="10.00">/LHNormalizationTestApp.cpp</text>
</a>
</g>
</g>
<!-- Node1&#45;&gt;Node24 -->
<g id="edge34" class="edge"><title>Node1&#45;&gt;Node24</title>
<path fill="none" stroke="midnightblue" d="M1571.67,-444.581C1798.53,-440.074 2457.48,-424.317 2670,-390 2680.01,-388.383 2690.49,-386.078 2700.65,-383.501"/>
<polygon fill="midnightblue" stroke="midnightblue" points="1571.45,-441.084 1561.52,-444.781 1571.59,-448.083 1571.45,-441.084"/>
</g>
<!-- Node25 -->
<g id="node25" class="node"><title>Node25</title>
<g id="a_node25"><a xlink:href="../../d2/db6/CoherentIntensity_8cpp.html" target="_top" xlink:title="/home/travis/build\l/ComPWA/ComPWA/Physics\l/HelicityFormalism/CoherentIntensity.cpp">
<polygon fill="white" stroke="black" points="2864.5,-342.5 2864.5,-383.5 3061.5,-383.5 3061.5,-342.5 2864.5,-342.5"/>
<text text-anchor="start" x="2872.5" y="-371.5" font-family="Helvetica,sans-Serif" font-size="10.00">/home/travis/build</text>
<text text-anchor="start" x="2872.5" y="-360.5" font-family="Helvetica,sans-Serif" font-size="10.00">/ComPWA/ComPWA/Physics</text>
<text text-anchor="middle" x="2963" y="-349.5" font-family="Helvetica,sans-Serif" font-size="10.00">/HelicityFormalism/CoherentIntensity.cpp</text>
</a>
</g>
</g>
<!-- Node1&#45;&gt;Node25 -->
<g id="edge36" class="edge"><title>Node1&#45;&gt;Node25</title>
<path fill="none" stroke="midnightblue" d="M1571.96,-444.792C1822.37,-440.597 2604.5,-424.965 2855,-390 2866.56,-388.387 2878.68,-386.084 2890.46,-383.508"/>
<polygon fill="midnightblue" stroke="midnightblue" points="1571.8,-441.294 1561.86,-444.96 1571.91,-448.293 1571.8,-441.294"/>
</g>
<!-- Node3 -->
<g id="node3" class="node"><title>Node3</title>
<g id="a_node3"><a xlink:href="../../d5/dca/AmpIntensity_8cpp.html" target="_top" xlink:title="/home/travis/build\l/ComPWA/ComPWA/Core\l/AmpIntensity.cpp">
<polygon fill="white" stroke="black" points="250.5,-180.5 250.5,-221.5 385.5,-221.5 385.5,-180.5 250.5,-180.5"/>
<text text-anchor="start" x="258.5" y="-209.5" font-family="Helvetica,sans-Serif" font-size="10.00">/home/travis/build</text>
<text text-anchor="start" x="258.5" y="-198.5" font-family="Helvetica,sans-Serif" font-size="10.00">/ComPWA/ComPWA/Core</text>
<text text-anchor="middle" x="318" y="-187.5" font-family="Helvetica,sans-Serif" font-size="10.00">/AmpIntensity.cpp</text>
</a>
</g>
</g>
<!-- Node2&#45;&gt;Node3 -->
<g id="edge2" class="edge"><title>Node2&#45;&gt;Node3</title>
<path fill="none" stroke="midnightblue" d="M422.499,-253.908C401.462,-243.458 377.147,-231.38 357.268,-221.506"/>
<polygon fill="midnightblue" stroke="midnightblue" points="421.086,-257.114 431.599,-258.428 424.2,-250.845 421.086,-257.114"/>
</g>
<!-- Node4 -->
<g id="node4" class="node"><title>Node4</title>
<g id="a_node4"><a xlink:href="../../de/d1f/ControlParameter_8hpp.html" target="_top" xlink:title="This class provides the interface for the optimizer module to access the data. ">
<polygon fill="white" stroke="red" points="403.5,-180.5 403.5,-221.5 538.5,-221.5 538.5,-180.5 403.5,-180.5"/>
<text text-anchor="start" x="411.5" y="-209.5" font-family="Helvetica,sans-Serif" font-size="10.00">/home/travis/build</text>
<text text-anchor="start" x="411.5" y="-198.5" font-family="Helvetica,sans-Serif" font-size="10.00">/ComPWA/ComPWA/Core</text>
<text text-anchor="middle" x="471" y="-187.5" font-family="Helvetica,sans-Serif" font-size="10.00">/ControlParameter.hpp</text>
</a>
</g>
</g>
<!-- Node2&#45;&gt;Node4 -->
<g id="edge3" class="edge"><title>Node2&#45;&gt;Node4</title>
<path fill="none" stroke="midnightblue" d="M471,-248.297C471,-239.301 471,-229.653 471,-221.506"/>
<polygon fill="midnightblue" stroke="midnightblue" points="467.5,-248.428 471,-258.428 474.5,-248.428 467.5,-248.428"/>
</g>
<!-- Node5 -->
<g id="node5" class="node"><title>Node5</title>
<g id="a_node5"><a xlink:href="../../d5/dc2/Dictionary_8hpp.html" target="_top" xlink:title="This class gathers information from modules, namely what they need as input and what they provide as ...">
<polygon fill="white" stroke="red" points="97.5,-180.5 97.5,-221.5 232.5,-221.5 232.5,-180.5 97.5,-180.5"/>
<text text-anchor="start" x="105.5" y="-209.5" font-family="Helvetica,sans-Serif" font-size="10.00">/home/travis/build</text>
<text text-anchor="start" x="105.5" y="-198.5" font-family="Helvetica,sans-Serif" font-size="10.00">/ComPWA/ComPWA/Core</text>
<text text-anchor="middle" x="165" y="-187.5" font-family="Helvetica,sans-Serif" font-size="10.00">/Dictionary.hpp</text>
</a>
</g>
</g>
<!-- Node2&#45;&gt;Node5 -->
<g id="edge4" class="edge"><title>Node2&#45;&gt;Node5</title>
<path fill="none" stroke="midnightblue" d="M393.581,-259.527C348.925,-248.778 291.742,-234.853 241,-222 238.223,-221.296 235.389,-220.574 232.528,-219.84"/>
<polygon fill="midnightblue" stroke="midnightblue" points="392.948,-262.975 403.489,-261.91 394.585,-256.169 392.948,-262.975"/>
</g>
<!-- Node6 -->
<g id="node6" class="node"><title>Node6</title>
<g id="a_node6"><a xlink:href="../../de/d88/FitResult_8hpp.html" target="_top" xlink:title="/home/travis/build\l/ComPWA/ComPWA/Core\l/FitResult.hpp">
<polygon fill="white" stroke="red" points="556.5,-180.5 556.5,-221.5 691.5,-221.5 691.5,-180.5 556.5,-180.5"/>
<text text-anchor="start" x="564.5" y="-209.5" font-family="Helvetica,sans-Serif" font-size="10.00">/home/travis/build</text>
<text text-anchor="start" x="564.5" y="-198.5" font-family="Helvetica,sans-Serif" font-size="10.00">/ComPWA/ComPWA/Core</text>
<text text-anchor="middle" x="624" y="-187.5" font-family="Helvetica,sans-Serif" font-size="10.00">/FitResult.hpp</text>
</a>
</g>
</g>
<!-- Node2&#45;&gt;Node6 -->
<g id="edge5" class="edge"><title>Node2&#45;&gt;Node6</title>
<path fill="none" stroke="midnightblue" d="M519.501,-253.908C540.538,-243.458 564.853,-231.38 584.732,-221.506"/>
<polygon fill="midnightblue" stroke="midnightblue" points="517.8,-250.845 510.401,-258.428 520.914,-257.114 517.8,-250.845"/>
</g>
<!-- Node2&#45;&gt;Node9 -->
<g id="edge9" class="edge"><title>Node2&#45;&gt;Node9</title>
<path fill="none" stroke="midnightblue" d="M393.035,-276.995C293.853,-274.016 130.323,-262.846 88,-222 65.4162,-200.204 64.5255,-161.123 66.4237,-137.574"/>
<polygon fill="midnightblue" stroke="midnightblue" points="393.221,-280.502 403.315,-277.282 393.416,-273.505 393.221,-280.502"/>
</g>
<!-- Node6&#45;&gt;Node7 -->
<g id="edge6" class="edge"><title>Node6&#45;&gt;Node7</title>
<path fill="none" stroke="midnightblue" d="M654.856,-173.644C666.256,-163.906 679.142,-152.9 690.426,-143.261"/>
<polygon fill="midnightblue" stroke="midnightblue" points="652.569,-170.994 647.239,-180.15 657.116,-176.317 652.569,-170.994"/>
</g>
<!-- Node6&#45;&gt;Node9 -->
<g id="edge8" class="edge"><title>Node6&#45;&gt;Node9</title>
<path fill="none" stroke="midnightblue" d="M546.183,-179.961C395.508,-151.238 229.674,-133.083 138.302,-124.242"/>
<polygon fill="midnightblue" stroke="midnightblue" points="545.604,-183.413 556.085,-181.868 546.928,-176.54 545.604,-183.413"/>
</g>
<!-- Node7&#45;&gt;Node8 -->
<g id="edge7" class="edge"><title>Node7&#45;&gt;Node8</title>
<path fill="none" stroke="midnightblue" d="M813.629,-101.046C918.483,-84.3003 1086.87,-57.408 1187.43,-41.3466"/>
<polygon fill="midnightblue" stroke="midnightblue" points="813.008,-97.6013 803.685,-102.635 814.112,-104.514 813.008,-97.6013"/>
</g>
<!-- Node10&#45;&gt;Node2 -->
<g id="edge11" class="edge"><title>Node10&#45;&gt;Node2</title>
<path fill="none" stroke="midnightblue" d="M1209.44,-354.443C1091.28,-342.9 859.107,-320.096 662,-300 621.036,-295.824 575.144,-291.022 538.613,-287.171"/>
<polygon fill="midnightblue" stroke="midnightblue" points="1209.18,-357.934 1219.47,-355.423 1209.86,-350.968 1209.18,-357.934"/>
</g>
<!-- Node10&#45;&gt;Node8 -->
<g id="edge14" class="edge"><title>Node10&#45;&gt;Node8</title>
<path fill="none" stroke="midnightblue" d="M1285.57,-332.091C1282.45,-267.014 1275.1,-113.564 1272.2,-53.1086"/>
<polygon fill="midnightblue" stroke="midnightblue" points="1282.07,-332.286 1286.05,-342.107 1289.06,-331.951 1282.07,-332.286"/>
</g>
<!-- Node10&#45;&gt;Node11 -->
<g id="edge12" class="edge"><title>Node10&#45;&gt;Node11</title>
<path fill="none" stroke="midnightblue" d="M1209.23,-352.019C1123.49,-340.71 981.581,-321.091 860,-300 856.89,-299.461 853.728,-298.898 850.537,-298.318"/>
<polygon fill="midnightblue" stroke="midnightblue" points="1208.78,-355.489 1219.15,-353.323 1209.69,-348.549 1208.78,-355.489"/>
</g>
<!-- Node10&#45;&gt;Node12 -->
<g id="edge13" class="edge"><title>Node10&#45;&gt;Node12</title>
<path fill="none" stroke="midnightblue" d="M1209.68,-342.552C1158.08,-329.572 1090.47,-312.565 1038.77,-299.561"/>
<polygon fill="midnightblue" stroke="midnightblue" points="1208.9,-345.964 1219.45,-345.01 1210.61,-339.176 1208.9,-345.964"/>
</g>
<!-- Node10&#45;&gt;Node13 -->
<g id="edge15" class="edge"><title>Node10&#45;&gt;Node13</title>
<path fill="none" stroke="midnightblue" d="M1247.17,-336.874C1228.27,-324.952 1206.01,-310.912 1188.33,-299.765"/>
<polygon fill="midnightblue" stroke="midnightblue" points="1245.54,-339.984 1255.86,-342.359 1249.27,-334.064 1245.54,-339.984"/>
</g>
<!-- Node10&#45;&gt;Node14 -->
<g id="edge16" class="edge"><title>Node10&#45;&gt;Node14</title>
<path fill="none" stroke="midnightblue" d="M1321.98,-336.387C1338.12,-324.571 1356.99,-310.761 1372,-299.765"/>
<polygon fill="midnightblue" stroke="midnightblue" points="1319.83,-333.628 1313.83,-342.359 1323.96,-339.276 1319.83,-333.628"/>
</g>
<!-- Node10&#45;&gt;Node15 -->
<g id="edge17" class="edge"><title>Node10&#45;&gt;Node15</title>
<path fill="none" stroke="midnightblue" d="M1364.7,-342.274C1415.71,-329.323 1482.16,-312.455 1533.03,-299.541"/>
<polygon fill="midnightblue" stroke="midnightblue" points="1363.54,-338.957 1354.71,-344.81 1365.27,-345.742 1363.54,-338.957"/>
</g>
<!-- Node10&#45;&gt;Node16 -->
<g id="edge18" class="edge"><title>Node10&#45;&gt;Node16</title>
<path fill="none" stroke="midnightblue" d="M1364.75,-350.292C1394.82,-345.788 1429.5,-340.621 1461,-336 1572.07,-319.705 1600.51,-319.813 1711,-300 1714.09,-299.446 1717.23,-298.864 1720.4,-298.262"/>
<polygon fill="midnightblue" stroke="midnightblue" points="1364.12,-346.848 1354.75,-351.792 1365.15,-353.77 1364.12,-346.848"/>
</g>
<!-- Node10&#45;&gt;Node17 -->
<g id="edge19" class="edge"><title>Node10&#45;&gt;Node17</title>
<path fill="none" stroke="midnightblue" d="M1364.7,-351.874C1404.78,-346.803 1454.47,-340.748 1499,-336 1675.17,-317.214 1721.15,-328.591 1896,-300 1899.11,-299.492 1902.27,-298.933 1905.46,-298.334"/>
<polygon fill="midnightblue" stroke="midnightblue" points="1364.2,-348.409 1354.73,-353.141 1365.09,-355.353 1364.2,-348.409"/>
</g>
</g>
</svg>
