<?xml version="1.0" encoding="UTF-8" standalone="no"?>
<!DOCTYPE svg PUBLIC "-//W3C//DTD SVG 1.1//EN"
 "http://www.w3.org/Graphics/SVG/1.1/DTD/svg11.dtd">
<!-- Generated by graphviz version 2.26.3 (20100126.1600)
 -->
<!-- Title: G Pages: 1 -->
<svg width="942pt" height="378pt"
 viewBox="0.00 0.00 942.42 378.00" xmlns="http://www.w3.org/2000/svg" xmlns:xlink="http://www.w3.org/1999/xlink">
<g id="graph1" class="graph" transform="scale(1 1) rotate(0) translate(4 374)">
<title>G</title>
<polygon fill="white" stroke="white" points="-4,5 -4,-374 939.416,-374 939.416,5 -4,5"/>
<!-- Node1 -->
<g id="node1" class="node"><title>Node1</title>
<polygon fill="#bfbfbf" stroke="black" points="450.416,-348.5 450.416,-369.5 608.416,-369.5 608.416,-348.5 450.416,-348.5"/>
<text text-anchor="middle" x="529.416" y="-356.5" font-family="Helvetica,sans-Serif" font-size="10.00">Optimizer/Minuit2/MinuitFcn.cpp</text>
</g>
<!-- Node2 -->
<g id="node3" class="node"><title>Node2</title>
<a xlink:href="../../de/d83/MinuitFcn_8hpp.xhtml" target="_top" xlink:title="Based on the Minuit2 FcnBase.">
<polygon fill="white" stroke="black" points="450.416,-290.5 450.416,-311.5 608.416,-311.5 608.416,-290.5 450.416,-290.5"/>
<text text-anchor="middle" x="529.416" y="-298.5" font-family="Helvetica,sans-Serif" font-size="10.00">Optimizer/Minuit2/MinuitFcn.hpp</text>
</a>
</g>
<!-- Node1&#45;&gt;Node2 -->
<g id="edge2" class="edge"><title>Node1&#45;&gt;Node2</title>
<path fill="none" stroke="midnightblue" d="M529.416,-348.362C529.416,-340.922 529.416,-330.743 529.416,-321.728"/>
<polygon fill="midnightblue" stroke="midnightblue" points="532.916,-321.571 529.416,-311.571 525.916,-321.571 532.916,-321.571"/>
</g>
<!-- Node4 -->
<g id="node7" class="node"><title>Node4</title>
<polygon fill="white" stroke="#bfbfbf" points="703.416,-0.5 703.416,-21.5 755.416,-21.5 755.416,-0.5 703.416,-0.5"/>
<text text-anchor="middle" x="729.416" y="-8.5" font-family="Helvetica,sans-Serif" font-size="10.00">memory</text>
</g>
<!-- Node1&#45;&gt;Node4 -->
<g id="edge76" class="edge"><title>Node1&#45;&gt;Node4</title>
<path fill="none" stroke="midnightblue" d="M601.21,-348.473C698.015,-332.223 858.416,-297.129 858.416,-243 858.416,-243 858.416,-243 858.416,-127 858.416,-76.4661 803.005,-42.3446 764.815,-24.8287"/>
<polygon fill="midnightblue" stroke="midnightblue" points="766.083,-21.5629 755.521,-20.7334 763.261,-27.9686 766.083,-21.5629"/>
</g>
<!-- Node8 -->
<g id="node15" class="node"><title>Node8</title>
<a xlink:href="../../de/d1f/ControlParameter_8hpp.xhtml" target="_top" xlink:title="This class provides the interface for the optimizer module to access the data.">
<polygon fill="white" stroke="black" points="635.916,-232.5 635.916,-253.5 792.916,-253.5 792.916,-232.5 635.916,-232.5"/>
<text text-anchor="middle" x="714.416" y="-240.5" font-family="Helvetica,sans-Serif" font-size="10.00">Optimizer/ControlParameter.hpp</text>
</a>
</g>
<!-- Node1&#45;&gt;Node8 -->
<g id="edge68" class="edge"><title>Node1&#45;&gt;Node8</title>
<path fill="none" stroke="midnightblue" d="M551.186,-348.352C569.263,-339.279 595.474,-325.586 617.416,-312 644.081,-295.489 673.219,-274.306 692.528,-259.792"/>
<polygon fill="midnightblue" stroke="midnightblue" points="694.802,-262.46 700.663,-253.634 690.577,-256.879 694.802,-262.46"/>
</g>
<!-- Node9 -->
<g id="node19" class="node"><title>Node9</title>
<a xlink:href="../../df/d9f/ParameterList_8hpp.xhtml" target="_top" xlink:title="This class provides a list of fit parameters which can have different types.">
<polygon fill="white" stroke="black" points="355.416,-174.5 355.416,-195.5 475.416,-195.5 475.416,-174.5 355.416,-174.5"/>
<text text-anchor="middle" x="415.416" y="-182.5" font-family="Helvetica,sans-Serif" font-size="10.00">Core/ParameterList.hpp</text>
</a>
</g>
<!-- Node1&#45;&gt;Node9 -->
<g id="edge70" class="edge"><title>Node1&#45;&gt;Node9</title>
<path fill="none" stroke="midnightblue" d="M497.161,-348.419C478.62,-340.874 456.158,-329.019 441.416,-312 415.514,-282.097 412.925,-233.381 413.845,-205.787"/>
<polygon fill="midnightblue" stroke="midnightblue" points="417.346,-205.858 414.373,-195.689 410.355,-205.492 417.346,-205.858"/>
</g>
<!-- Node10 -->
<g id="node21" class="node"><title>Node10</title>
<polygon fill="white" stroke="#bfbfbf" points="13.4159,-58.5 13.4159,-79.5 67.4159,-79.5 67.4159,-58.5 13.4159,-58.5"/>
<text text-anchor="middle" x="40.4159" y="-66.5" font-family="Helvetica,sans-Serif" font-size="10.00">iostream</text>
</g>
<!-- Node1&#45;&gt;Node10 -->
<g id="edge78" class="edge"><title>Node1&#45;&gt;Node10</title>
<path fill="none" stroke="midnightblue" d="M450.306,-356.452C311.908,-349.824 40.4159,-326.216 40.4159,-243 40.4159,-243 40.4159,-243 40.4159,-185 40.4159,-151.598 40.4159,-112.785 40.4159,-89.5939"/>
<polygon fill="midnightblue" stroke="midnightblue" points="43.916,-89.5561 40.4159,-79.5561 36.916,-89.5561 43.916,-89.5561"/>
</g>
<!-- Node15 -->
<g id="node38" class="node"><title>Node15</title>
<a xlink:href="../../db/dce/Parameter_8hpp.xhtml" target="_top" xlink:title="This class implements some internal container of parameters.">
<polygon fill="white" stroke="black" points="191.416,-116.5 191.416,-137.5 295.416,-137.5 295.416,-116.5 191.416,-116.5"/>
<text text-anchor="middle" x="243.416" y="-124.5" font-family="Helvetica,sans-Serif" font-size="10.00">Core/Parameter.hpp</text>
</a>
</g>
<!-- Node1&#45;&gt;Node15 -->
<g id="edge72" class="edge"><title>Node1&#45;&gt;Node15</title>
<path fill="none" stroke="midnightblue" d="M497.146,-348.366C475.235,-340.291 446.214,-327.874 423.416,-312 352.22,-262.428 285.767,-182.034 257.598,-145.784"/>
<polygon fill="midnightblue" stroke="midnightblue" points="260.15,-143.361 251.282,-137.564 254.6,-147.626 260.15,-143.361"/>
</g>
<!-- Node19 -->
<g id="node56" class="node"><title>Node19</title>
<polygon fill="white" stroke="#bfbfbf" points="885.916,-290.5 885.916,-311.5 934.916,-311.5 934.916,-290.5 885.916,-290.5"/>
<text text-anchor="middle" x="910.416" y="-298.5" font-family="Helvetica,sans-Serif" font-size="10.00">cassert</text>
</g>
<!-- Node1&#45;&gt;Node19 -->
<g id="edge74" class="edge"><title>Node1&#45;&gt;Node19</title>
<path fill="none" stroke="midnightblue" d="M608.653,-351.453C678.537,-344.012 782.897,-330.984 872.416,-312 873.491,-311.772 874.58,-311.53 875.677,-311.275"/>
<polygon fill="midnightblue" stroke="midnightblue" points="876.785,-314.605 885.61,-308.742 875.055,-307.822 876.785,-314.605"/>
</g>
<!-- Node3 -->
<g id="node5" class="node"><title>Node3</title>
<polygon fill="white" stroke="#bfbfbf" points="593.416,-0.5 593.416,-21.5 637.416,-21.5 637.416,-0.5 593.416,-0.5"/>
<text text-anchor="middle" x="615.416" y="-8.5" font-family="Helvetica,sans-Serif" font-size="10.00">vector</text>
</g>
<!-- Node2&#45;&gt;Node3 -->
<g id="edge4" class="edge"><title>Node2&#45;&gt;Node3</title>
<path fill="none" stroke="midnightblue" d="M508.27,-290.319C486.042,-277.568 456.015,-255.058 469.416,-232 511.826,-159.03 592.006,-210.97 634.416,-138 653.998,-104.308 637.98,-57.4163 625.849,-31.0582"/>
<polygon fill="midnightblue" stroke="midnightblue" points="628.833,-29.1915 621.315,-21.726 622.537,-32.2502 628.833,-29.1915"/>
</g>
<!-- Node2&#45;&gt;Node4 -->
<g id="edge6" class="edge"><title>Node2&#45;&gt;Node4</title>
<path fill="none" stroke="midnightblue" d="M608.492,-296.609C678.476,-291.109 773.683,-279.151 801.416,-254 824.978,-232.632 820.416,-216.808 820.416,-185 820.416,-185 820.416,-185 820.416,-127 820.416,-84.0402 781.302,-47.5506 754.361,-27.5124"/>
<polygon fill="midnightblue" stroke="midnightblue" points="756.274,-24.5773 746.107,-21.5973 752.196,-30.2671 756.274,-24.5773"/>
</g>
<!-- Node5 -->
<g id="node9" class="node"><title>Node5</title>
<polygon fill="white" stroke="#bfbfbf" points="270.916,-0.5 270.916,-21.5 311.916,-21.5 311.916,-0.5 270.916,-0.5"/>
<text text-anchor="middle" x="291.416" y="-8.5" font-family="Helvetica,sans-Serif" font-size="10.00">string</text>
</g>
<!-- Node2&#45;&gt;Node5 -->
<g id="edge8" class="edge"><title>Node2&#45;&gt;Node5</title>
<path fill="none" stroke="midnightblue" d="M450.281,-295.491C327.995,-282.114 97.506,-236.347 4.41588,-80 -0.586349,-71.5987 -1.91477,-65.4517 4.41588,-58 20.9344,-38.5563 190.28,-20.517 260.827,-13.7853"/>
<polygon fill="midnightblue" stroke="midnightblue" points="261.248,-17.2612 270.876,-12.8393 260.592,-10.292 261.248,-17.2612"/>
</g>
<!-- Node6 -->
<g id="node11" class="node"><title>Node6</title>
<polygon fill="white" stroke="#bfbfbf" points="590.916,-116.5 590.916,-137.5 625.916,-137.5 625.916,-116.5 590.916,-116.5"/>
<text text-anchor="middle" x="608.416" y="-124.5" font-family="Helvetica,sans-Serif" font-size="10.00">map</text>
</g>
<!-- Node2&#45;&gt;Node6 -->
<g id="edge10" class="edge"><title>Node2&#45;&gt;Node6</title>
<path fill="none" stroke="midnightblue" d="M549.758,-290.481C563.266,-282.384 580.159,-269.893 589.416,-254 608.855,-220.624 610.685,-174.257 609.837,-147.768"/>
<polygon fill="midnightblue" stroke="midnightblue" points="613.331,-147.549 609.353,-137.729 606.339,-147.886 613.331,-147.549"/>
</g>
<!-- Node7 -->
<g id="node13" class="node"><title>Node7</title>
<polygon fill="white" stroke="#bfbfbf" points="477.916,-232.5 477.916,-253.5 580.916,-253.5 580.916,-232.5 477.916,-232.5"/>
<text text-anchor="middle" x="529.416" y="-240.5" font-family="Helvetica,sans-Serif" font-size="10.00">Minuit2/FCNBase.h</text>
</g>
<!-- Node2&#45;&gt;Node7 -->
<g id="edge12" class="edge"><title>Node2&#45;&gt;Node7</title>
<path fill="none" stroke="midnightblue" d="M529.416,-290.362C529.416,-282.922 529.416,-272.743 529.416,-263.728"/>
<polygon fill="midnightblue" stroke="midnightblue" points="532.916,-263.571 529.416,-253.571 525.916,-263.571 532.916,-263.571"/>
</g>
<!-- Node2&#45;&gt;Node8 -->
<g id="edge14" class="edge"><title>Node2&#45;&gt;Node8</title>
<path fill="none" stroke="midnightblue" d="M562.918,-290.497C593.209,-281 637.986,-266.962 671.009,-256.609"/>
<polygon fill="midnightblue" stroke="midnightblue" points="672.356,-259.854 680.851,-253.523 670.262,-253.175 672.356,-259.854"/>
</g>
<!-- Node2&#45;&gt;Node9 -->
<g id="edge66" class="edge"><title>Node2&#45;&gt;Node9</title>
<path fill="none" stroke="midnightblue" d="M493.175,-290.446C473.844,-283.105 451.085,-271.446 436.416,-254 424.985,-240.406 419.775,-220.693 417.4,-205.815"/>
<polygon fill="midnightblue" stroke="midnightblue" points="420.829,-205.034 416.082,-195.562 413.886,-205.927 420.829,-205.034"/>
</g>
<!-- Node8&#45;&gt;Node3 -->
<g id="edge16" class="edge"><title>Node8&#45;&gt;Node3</title>
<path fill="none" stroke="midnightblue" d="M713.831,-232.154C711.784,-202.268 702.992,-117.037 667.416,-58 660.448,-46.4372 649.754,-36.0697 639.872,-28.0329"/>
<polygon fill="midnightblue" stroke="midnightblue" points="641.918,-25.1905 631.861,-21.855 637.643,-30.7336 641.918,-25.1905"/>
</g>
<!-- Node8&#45;&gt;Node4 -->
<g id="edge18" class="edge"><title>Node8&#45;&gt;Node4</title>
<path fill="none" stroke="midnightblue" d="M715.099,-232.429C717.413,-196.648 724.976,-79.6628 728.074,-31.7481"/>
<polygon fill="midnightblue" stroke="midnightblue" points="731.576,-31.8385 728.728,-21.6335 724.59,-31.3868 731.576,-31.8385"/>
</g>
<!-- Node8&#45;&gt;Node9 -->
<g id="edge20" class="edge"><title>Node8&#45;&gt;Node9</title>
<path fill="none" stroke="midnightblue" d="M660.269,-232.497C609.519,-222.652 533.609,-207.927 479.783,-197.486"/>
<polygon fill="midnightblue" stroke="midnightblue" points="480.148,-193.991 469.664,-195.523 478.815,-200.863 480.148,-193.991"/>
</g>
<!-- Node9&#45;&gt;Node3 -->
<g id="edge30" class="edge"><title>Node9&#45;&gt;Node3</title>
<path fill="none" stroke="midnightblue" d="M432.867,-174.397C461.031,-156.821 517.482,-119.638 558.416,-80 574.5,-64.4252 590.536,-44.523 601.483,-30.0993"/>
<polygon fill="midnightblue" stroke="midnightblue" points="604.416,-32.0206 607.596,-21.9141 598.808,-27.8319 604.416,-32.0206"/>
</g>
<!-- Node9&#45;&gt;Node4 -->
<g id="edge26" class="edge"><title>Node9&#45;&gt;Node4</title>
<path fill="none" stroke="midnightblue" d="M439.835,-174.476C460.505,-165.37 490.773,-151.566 516.416,-138 585.999,-101.189 664.841,-52.1757 704.221,-27.1684"/>
<polygon fill="midnightblue" stroke="midnightblue" points="706.352,-29.9604 712.906,-21.6356 702.591,-24.0566 706.352,-29.9604"/>
</g>
<!-- Node9&#45;&gt;Node5 -->
<g id="edge24" class="edge"><title>Node9&#45;&gt;Node5</title>
<path fill="none" stroke="midnightblue" d="M407.846,-174.377C387.487,-145.809 331.336,-67.017 305.17,-30.2999"/>
<polygon fill="midnightblue" stroke="midnightblue" points="307.857,-28.0401 299.203,-21.9277 302.157,-32.1026 307.857,-28.0401"/>
</g>
<!-- Node9&#45;&gt;Node6 -->
<g id="edge32" class="edge"><title>Node9&#45;&gt;Node6</title>
<path fill="none" stroke="midnightblue" d="M454.234,-174.427C487.173,-165.291 535.605,-151.47 577.416,-138 578.639,-137.606 579.886,-137.196 581.145,-136.777"/>
<polygon fill="midnightblue" stroke="midnightblue" points="582.456,-140.027 590.772,-133.462 580.177,-133.408 582.456,-140.027"/>
</g>
<!-- Node9&#45;&gt;Node10 -->
<g id="edge22" class="edge"><title>Node9&#45;&gt;Node10</title>
<path fill="none" stroke="midnightblue" d="M355.159,-179.834C302.278,-173.929 223.959,-161.818 159.416,-138 123.813,-124.862 86.5588,-101.448 63.4208,-85.578"/>
<polygon fill="midnightblue" stroke="midnightblue" points="65.1942,-82.5477 54.9897,-79.6983 61.1901,-88.2894 65.1942,-82.5477"/>
</g>
<!-- Node11 -->
<g id="node25" class="node"><title>Node11</title>
<polygon fill="white" stroke="#bfbfbf" points="497.416,-58.5 497.416,-79.5 549.416,-79.5 549.416,-58.5 497.416,-58.5"/>
<text text-anchor="middle" x="523.416" y="-66.5" font-family="Helvetica,sans-Serif" font-size="10.00">sstream</text>
</g>
<!-- Node9&#45;&gt;Node11 -->
<g id="edge28" class="edge"><title>Node9&#45;&gt;Node11</title>
<path fill="none" stroke="midnightblue" d="M425.383,-174.295C443.868,-154.441 483.652,-111.709 506.449,-87.2239"/>
<polygon fill="midnightblue" stroke="midnightblue" points="509.221,-89.3831 513.473,-79.6792 504.097,-84.6132 509.221,-89.3831"/>
</g>
<!-- Node12 -->
<g id="node29" class="node"><title>Node12</title>
<a xlink:href="../../d8/def/AbsParameter_8hpp.xhtml" target="_top" xlink:title="This class defines the internal container of a parameter.">
<polygon fill="white" stroke="black" points="357.416,-58.5 357.416,-79.5 479.416,-79.5 479.416,-58.5 357.416,-58.5"/>
<text text-anchor="middle" x="418.416" y="-66.5" font-family="Helvetica,sans-Serif" font-size="10.00">Core/AbsParameter.hpp</text>
</a>
</g>
<!-- Node9&#45;&gt;Node12 -->
<g id="edge34" class="edge"><title>Node9&#45;&gt;Node12</title>
<path fill="none" stroke="midnightblue" d="M415.693,-174.295C416.188,-155.131 417.235,-114.654 417.877,-89.8434"/>
<polygon fill="midnightblue" stroke="midnightblue" points="421.38,-89.7664 418.14,-79.6792 414.382,-89.5853 421.38,-89.7664"/>
</g>
<!-- Node9&#45;&gt;Node15 -->
<g id="edge46" class="edge"><title>Node9&#45;&gt;Node15</title>
<path fill="none" stroke="midnightblue" d="M384.268,-174.497C356.227,-165.041 314.834,-151.083 284.17,-140.743"/>
<polygon fill="midnightblue" stroke="midnightblue" points="285.216,-137.402 274.622,-137.523 282.98,-144.035 285.216,-137.402"/>
</g>
<!-- Node17 -->
<g id="node46" class="node"><title>Node17</title>
<a xlink:href="../../d2/de9/Exceptions_8hpp.xhtml" target="_top" xlink:title="This class defines the ComPWA exception base&#45;class and provides a set of standard exceptions...">
<polygon fill="white" stroke="black" points="85.4159,-58.5 85.4159,-79.5 193.416,-79.5 193.416,-58.5 85.4159,-58.5"/>
<text text-anchor="middle" x="139.416" y="-66.5" font-family="Helvetica,sans-Serif" font-size="10.00">Core/Exceptions.hpp</text>
</a>
</g>
<!-- Node9&#45;&gt;Node17 -->
<g id="edge64" class="edge"><title>Node9&#45;&gt;Node17</title>
<path fill="none" stroke="midnightblue" d="M355.353,-178.347C295.893,-170.808 209.884,-157.046 182.416,-138 165.194,-126.058 153.484,-104.758 146.686,-88.9721"/>
<polygon fill="midnightblue" stroke="midnightblue" points="149.881,-87.5351 142.92,-79.5484 143.381,-90.1332 149.881,-87.5351"/>
</g>
<!-- Node12&#45;&gt;Node3 -->
<g id="edge38" class="edge"><title>Node12&#45;&gt;Node3</title>
<path fill="none" stroke="midnightblue" d="M454.091,-58.4966C490.926,-47.6519 547.878,-30.8843 583.334,-20.4455"/>
<polygon fill="midnightblue" stroke="midnightblue" points="584.561,-23.7328 593.165,-17.5509 582.584,-17.0178 584.561,-23.7328"/>
</g>
<!-- Node12&#45;&gt;Node4 -->
<g id="edge40" class="edge"><title>Node12&#45;&gt;Node4</title>
<path fill="none" stroke="midnightblue" d="M474.736,-58.4966C538.243,-46.6528 639.631,-27.7445 693.323,-17.7311"/>
<polygon fill="midnightblue" stroke="midnightblue" points="694.212,-21.1258 703.401,-15.8517 692.929,-14.2444 694.212,-21.1258"/>
</g>
<!-- Node12&#45;&gt;Node5 -->
<g id="edge36" class="edge"><title>Node12&#45;&gt;Node5</title>
<path fill="none" stroke="midnightblue" d="M395.417,-58.4966C374.652,-49.0134 343.97,-35.0011 321.309,-24.6521"/>
<polygon fill="midnightblue" stroke="midnightblue" points="322.691,-21.4355 312.141,-20.465 319.783,-27.803 322.691,-21.4355"/>
</g>
<!-- Node13 -->
<g id="node34" class="node"><title>Node13</title>
<polygon fill="white" stroke="#bfbfbf" points="339.416,-0.5 339.416,-21.5 395.416,-21.5 395.416,-0.5 339.416,-0.5"/>
<text text-anchor="middle" x="367.416" y="-8.5" font-family="Helvetica,sans-Serif" font-size="10.00">algorithm</text>
</g>
<!-- Node12&#45;&gt;Node13 -->
<g id="edge42" class="edge"><title>Node12&#45;&gt;Node13</title>
<path fill="none" stroke="midnightblue" d="M409.062,-58.3619C401.873,-50.1861 391.775,-38.7025 383.323,-29.0907"/>
<polygon fill="midnightblue" stroke="midnightblue" points="385.943,-26.7692 376.711,-21.5707 380.686,-31.3916 385.943,-26.7692"/>
</g>
<!-- Node14 -->
<g id="node36" class="node"><title>Node14</title>
<a xlink:href="../../d9/d91/ParObserver_8hpp.xhtml" target="_top" xlink:title="For the use in the function tree, the observer pattern is used.">
<polygon fill="white" stroke="black" points="413.416,-0.5 413.416,-21.5 527.416,-21.5 527.416,-0.5 413.416,-0.5"/>
<text text-anchor="middle" x="470.416" y="-8.5" font-family="Helvetica,sans-Serif" font-size="10.00">Core/ParObserver.hpp</text>
</a>
</g>
<!-- Node12&#45;&gt;Node14 -->
<g id="edge44" class="edge"><title>Node12&#45;&gt;Node14</title>
<path fill="none" stroke="midnightblue" d="M427.953,-58.3619C435.284,-50.1861 445.579,-38.7025 454.197,-29.0907"/>
<polygon fill="midnightblue" stroke="midnightblue" points="456.869,-31.3528 460.939,-21.5707 451.657,-26.68 456.869,-31.3528"/>
</g>
<!-- Node15&#45;&gt;Node5 -->
<g id="edge50" class="edge"><title>Node15&#45;&gt;Node5</title>
<path fill="none" stroke="midnightblue" d="M251.261,-116.281C257.704,-107.055 266.673,-93.1856 272.416,-80 279.228,-64.3599 284.198,-45.6491 287.343,-31.6599"/>
<polygon fill="midnightblue" stroke="midnightblue" points="290.825,-32.1103 289.474,-21.602 283.977,-30.6595 290.825,-32.1103"/>
</g>
<!-- Node15&#45;&gt;Node10 -->
<g id="edge48" class="edge"><title>Node15&#45;&gt;Node10</title>
<path fill="none" stroke="midnightblue" d="M204.875,-116.415C173.101,-107.629 126.609,-94.6416 77.3982,-80.2496"/>
<polygon fill="midnightblue" stroke="midnightblue" points="78.1042,-76.8093 67.5233,-77.3533 76.134,-83.5263 78.1042,-76.8093"/>
</g>
<!-- Node15&#45;&gt;Node11 -->
<g id="edge52" class="edge"><title>Node15&#45;&gt;Node11</title>
<path fill="none" stroke="midnightblue" d="M295.416,-118.809C343.033,-110.909 415.601,-97.8649 487.062,-80.1469"/>
<polygon fill="midnightblue" stroke="midnightblue" points="488.29,-83.4473 497.135,-77.6159 486.584,-76.6583 488.29,-83.4473"/>
</g>
<!-- Node15&#45;&gt;Node12 -->
<g id="edge56" class="edge"><title>Node15&#45;&gt;Node12</title>
<path fill="none" stroke="midnightblue" d="M275.107,-116.497C303.637,-107.041 345.752,-93.0829 376.951,-82.7428"/>
<polygon fill="midnightblue" stroke="midnightblue" points="378.274,-85.9914 386.665,-79.5231 376.072,-79.3468 378.274,-85.9914"/>
</g>
<!-- Node16 -->
<g id="node43" class="node"><title>Node16</title>
<polygon fill="white" stroke="#bfbfbf" points="210.916,-58.5 210.916,-79.5 263.916,-79.5 263.916,-58.5 210.916,-58.5"/>
<text text-anchor="middle" x="237.416" y="-66.5" font-family="Helvetica,sans-Serif" font-size="10.00">complex</text>
</g>
<!-- Node15&#45;&gt;Node16 -->
<g id="edge54" class="edge"><title>Node15&#45;&gt;Node16</title>
<path fill="none" stroke="midnightblue" d="M242.315,-116.362C241.546,-108.922 240.493,-98.7427 239.56,-89.7276"/>
<polygon fill="midnightblue" stroke="midnightblue" points="243.02,-89.1574 238.509,-79.5707 236.057,-89.8777 243.02,-89.1574"/>
</g>
<!-- Node15&#45;&gt;Node17 -->
<g id="edge58" class="edge"><title>Node15&#45;&gt;Node17</title>
<path fill="none" stroke="midnightblue" d="M224.341,-116.362C208.361,-107.45 185.335,-94.6087 167.289,-84.5447"/>
<polygon fill="midnightblue" stroke="midnightblue" points="168.809,-81.3846 158.37,-79.5707 165.399,-87.4982 168.809,-81.3846"/>
</g>
<!-- Node17&#45;&gt;Node5 -->
<g id="edge62" class="edge"><title>Node17&#45;&gt;Node5</title>
<path fill="none" stroke="midnightblue" d="M166.942,-58.4966C193.61,-48.3207 233.944,-32.93 261.419,-22.4462"/>
<polygon fill="midnightblue" stroke="midnightblue" points="262.815,-25.6596 270.91,-18.8245 260.32,-19.1196 262.815,-25.6596"/>
</g>
<!-- Node18 -->
<g id="node48" class="node"><title>Node18</title>
<polygon fill="white" stroke="#bfbfbf" points="109.916,-0.5 109.916,-21.5 168.916,-21.5 168.916,-0.5 109.916,-0.5"/>
<text text-anchor="middle" x="139.416" y="-8.5" font-family="Helvetica,sans-Serif" font-size="10.00">exception</text>
</g>
<!-- Node17&#45;&gt;Node18 -->
<g id="edge60" class="edge"><title>Node17&#45;&gt;Node18</title>
<path fill="none" stroke="midnightblue" d="M139.416,-58.3619C139.416,-50.9219 139.416,-40.7427 139.416,-31.7276"/>
<polygon fill="midnightblue" stroke="midnightblue" points="142.916,-31.5706 139.416,-21.5707 135.916,-31.5707 142.916,-31.5706"/>
</g>
</g>
</svg>
