<?xml version="1.0" encoding="UTF-8" standalone="no"?>
<!DOCTYPE svg PUBLIC "-//W3C//DTD SVG 1.1//EN"
 "http://www.w3.org/Graphics/SVG/1.1/DTD/svg11.dtd">
<!-- Generated by graphviz version 2.36.0 (20140111.2315)
 -->
<!-- Title: /home/travis/build/ComPWA/ComPWA/Optimizer/Minuit2/MinuitFcn.cpp Pages: 1 -->
<svg width="1613pt" height="422pt"
 viewBox="0.00 0.00 1613.00 422.00" xmlns="http://www.w3.org/2000/svg" xmlns:xlink="http://www.w3.org/1999/xlink">
<g id="graph0" class="graph" transform="scale(1 1) rotate(0) translate(4 418)">
<title>/home/travis/build/ComPWA/ComPWA/Optimizer/Minuit2/MinuitFcn.cpp</title>
<polygon fill="white" stroke="none" points="-4,4 -4,-418 1609,-418 1609,4 -4,4"/>
<!-- Node1 -->
<g id="node1" class="node"><title>Node1</title>
<polygon fill="#bfbfbf" stroke="black" points="170,-372.5 170,-413.5 326,-413.5 326,-372.5 170,-372.5"/>
<text text-anchor="start" x="178" y="-401.5" font-family="Helvetica,sans-Serif" font-size="10.00">/home/travis/build</text>
<text text-anchor="start" x="178" y="-390.5" font-family="Helvetica,sans-Serif" font-size="10.00">/ComPWA/ComPWA/Optimizer</text>
<text text-anchor="middle" x="248" y="-379.5" font-family="Helvetica,sans-Serif" font-size="10.00">/Minuit2/MinuitFcn.cpp</text>
</g>
<!-- Node2 -->
<g id="node2" class="node"><title>Node2</title>
<polygon fill="white" stroke="#bfbfbf" points="-0.5,-310.5 -0.5,-329.5 48.5,-329.5 48.5,-310.5 -0.5,-310.5"/>
<text text-anchor="middle" x="24" y="-317.5" font-family="Helvetica,sans-Serif" font-size="10.00">cassert</text>
</g>
<!-- Node1&#45;&gt;Node2 -->
<g id="edge1" class="edge"><title>Node1&#45;&gt;Node2</title>
<path fill="none" stroke="midnightblue" d="M179.088,-372.444C144.119,-362.191 101.089,-349.07 63,-336 60.3883,-335.104 57.6911,-334.143 54.9915,-333.155"/>
<polygon fill="midnightblue" stroke="midnightblue" points="55.9452,-329.775 45.3531,-329.536 53.4847,-336.328 55.9452,-329.775"/>
</g>
<!-- Node3 -->
<g id="node3" class="node"><title>Node3</title>
<polygon fill="white" stroke="#bfbfbf" points="1147,-6.5 1147,-25.5 1199,-25.5 1199,-6.5 1147,-6.5"/>
<text text-anchor="middle" x="1173" y="-13.5" font-family="Helvetica,sans-Serif" font-size="10.00">memory</text>
</g>
<!-- Node1&#45;&gt;Node3 -->
<g id="edge2" class="edge"><title>Node1&#45;&gt;Node3</title>
<path fill="none" stroke="midnightblue" d="M186.748,-372.485C137.681,-352.574 77,-316.355 77,-259 77,-259 77,-259 77,-139 77,57.8656 -6.12274,-125.389 1063,-32 1087.75,-29.838 1115.47,-26.05 1136.89,-22.8217"/>
<polygon fill="midnightblue" stroke="midnightblue" points="1137.5,-26.2684 1146.85,-21.2915 1136.44,-19.3494 1137.5,-26.2684"/>
</g>
<!-- Node4 -->
<g id="node4" class="node"><title>Node4</title>
<polygon fill="white" stroke="#bfbfbf" points="205,-68.5 205,-87.5 259,-87.5 259,-68.5 205,-68.5"/>
<text text-anchor="middle" x="232" y="-75.5" font-family="Helvetica,sans-Serif" font-size="10.00">iostream</text>
</g>
<!-- Node1&#45;&gt;Node4 -->
<g id="edge3" class="edge"><title>Node1&#45;&gt;Node4</title>
<path fill="none" stroke="midnightblue" d="M233.616,-372.395C216.731,-347.394 191,-302.209 191,-259 191,-259 191,-259 191,-201 191,-162.071 209.989,-119.625 222.121,-96.4783"/>
<polygon fill="midnightblue" stroke="midnightblue" points="225.276,-98.0024 226.973,-87.5442 219.124,-94.6617 225.276,-98.0024"/>
</g>
<!-- Node5 -->
<g id="node5" class="node"><title>Node5</title>
<polygon fill="white" stroke="#bfbfbf" points="143,-68.5 143,-87.5 187,-87.5 187,-68.5 143,-68.5"/>
<text text-anchor="middle" x="165" y="-75.5" font-family="Helvetica,sans-Serif" font-size="10.00">cmath</text>
</g>
<!-- Node1&#45;&gt;Node5 -->
<g id="edge4" class="edge"><title>Node1&#45;&gt;Node5</title>
<path fill="none" stroke="midnightblue" d="M221.789,-372.346C193.67,-348.8 153,-306.529 153,-259 153,-259 153,-259 153,-201 153,-164.237 158.463,-121.541 162.017,-97.6563"/>
<polygon fill="midnightblue" stroke="midnightblue" points="165.511,-97.9672 163.576,-87.5504 158.593,-96.8999 165.511,-97.9672"/>
</g>
<!-- Node6 -->
<g id="node6" class="node"><title>Node6</title>
<polygon fill="white" stroke="#bfbfbf" points="1445,-310.5 1445,-329.5 1495,-329.5 1495,-310.5 1445,-310.5"/>
<text text-anchor="middle" x="1470" y="-317.5" font-family="Helvetica,sans-Serif" font-size="10.00">iomanip</text>
</g>
<!-- Node1&#45;&gt;Node6 -->
<g id="edge5" class="edge"><title>Node1&#45;&gt;Node6</title>
<path fill="none" stroke="midnightblue" d="M326.35,-391.545C555.081,-389.702 1219.1,-380.554 1431,-336 1434.51,-335.261 1438.13,-334.247 1441.67,-333.092"/>
<polygon fill="midnightblue" stroke="midnightblue" points="1443.13,-336.286 1451.33,-329.575 1440.73,-329.709 1443.13,-336.286"/>
</g>
<!-- Node7 -->
<g id="node7" class="node"><title>Node7</title>
<polygon fill="white" stroke="#bfbfbf" points="1513,-310.5 1513,-329.5 1605,-329.5 1605,-310.5 1513,-310.5"/>
<text text-anchor="middle" x="1559" y="-317.5" font-family="Helvetica,sans-Serif" font-size="10.00">boost/chrono.hpp</text>
</g>
<!-- Node1&#45;&gt;Node7 -->
<g id="edge6" class="edge"><title>Node1&#45;&gt;Node7</title>
<path fill="none" stroke="midnightblue" d="M326.299,-390.779C564.072,-386.714 1275.42,-371.811 1504,-336 1510.01,-335.058 1516.31,-333.703 1522.41,-332.187"/>
<polygon fill="midnightblue" stroke="midnightblue" points="1523.64,-335.483 1532.4,-329.531 1521.84,-328.718 1523.64,-335.483"/>
</g>
<!-- Node8 -->
<g id="node8" class="node"><title>Node8</title>
<g id="a_node8"><a xlink:href="../../df/d9f/ParameterList_8hpp.html" target="_top" xlink:title="This class provides a list of fit parameters which can have different types. ">
<polygon fill="white" stroke="black" points="907,-192.5 907,-211.5 1027,-211.5 1027,-192.5 907,-192.5"/>
<text text-anchor="middle" x="967" y="-199.5" font-family="Helvetica,sans-Serif" font-size="10.00">Core/ParameterList.hpp</text>
</a>
</g>
</g>
<!-- Node1&#45;&gt;Node8 -->
<g id="edge7" class="edge"><title>Node1&#45;&gt;Node8</title>
<path fill="none" stroke="midnightblue" d="M322.238,-372.486C472.15,-333.079 806.769,-245.119 924.797,-214.094"/>
<polygon fill="midnightblue" stroke="midnightblue" points="925.773,-217.456 934.555,-211.529 923.994,-210.686 925.773,-217.456"/>
</g>
<!-- Node16 -->
<g id="node16" class="node"><title>Node16</title>
<g id="a_node16"><a xlink:href="../../db/dce/Parameter_8hpp.html" target="_top" xlink:title="This class implements some internal container of parameters. ">
<polygon fill="white" stroke="red" points="257,-130.5 257,-149.5 361,-149.5 361,-130.5 257,-130.5"/>
<text text-anchor="middle" x="309" y="-137.5" font-family="Helvetica,sans-Serif" font-size="10.00">Core/Parameter.hpp</text>
</a>
</g>
</g>
<!-- Node1&#45;&gt;Node16 -->
<g id="edge36" class="edge"><title>Node1&#45;&gt;Node16</title>
<path fill="none" stroke="midnightblue" d="M252.787,-372.304C264.255,-325.114 293.185,-206.075 304.43,-159.804"/>
<polygon fill="midnightblue" stroke="midnightblue" points="307.871,-160.468 306.831,-149.924 301.069,-158.815 307.871,-160.468"/>
</g>
<!-- Node18 -->
<g id="node18" class="node"><title>Node18</title>
<g id="a_node18"><a xlink:href="../../da/db4/Logging_8hpp.html" target="_top" xlink:title="Core/Logging.hpp">
<polygon fill="white" stroke="red" points="1013.5,-68.5 1013.5,-87.5 1106.5,-87.5 1106.5,-68.5 1013.5,-68.5"/>
<text text-anchor="middle" x="1060" y="-75.5" font-family="Helvetica,sans-Serif" font-size="10.00">Core/Logging.hpp</text>
</a>
</g>
</g>
<!-- Node1&#45;&gt;Node18 -->
<g id="edge37" class="edge"><title>Node1&#45;&gt;Node18</title>
<path fill="none" stroke="midnightblue" d="M326.033,-391.432C530.162,-389.343 1076.2,-379.712 1251,-336 1329.9,-316.27 1417,-340.328 1417,-259 1417,-259 1417,-259 1417,-201 1417,-138.31 1217.39,-101.158 1116.68,-86.405"/>
<polygon fill="midnightblue" stroke="midnightblue" points="1117.07,-82.9241 1106.67,-84.964 1116.07,-89.8528 1117.07,-82.9241"/>
</g>
<!-- Node23 -->
<g id="node23" class="node"><title>Node23</title>
<g id="a_node23"><a xlink:href="../../de/d83/MinuitFcn_8hpp.html" target="_top" xlink:title="Based on the Minuit2 FcnBase. ">
<polygon fill="white" stroke="black" points="1120,-305 1120,-335 1242,-335 1242,-305 1120,-305"/>
<text text-anchor="start" x="1128" y="-323" font-family="Helvetica,sans-Serif" font-size="10.00">Optimizer/Minuit2/Minuit</text>
<text text-anchor="middle" x="1181" y="-312" font-family="Helvetica,sans-Serif" font-size="10.00">Fcn.hpp</text>
</a>
</g>
</g>
<!-- Node1&#45;&gt;Node23 -->
<g id="edge38" class="edge"><title>Node1&#45;&gt;Node23</title>
<path fill="none" stroke="midnightblue" d="M326.342,-386.038C504.628,-372.471 938.445,-339.458 1109.74,-326.423"/>
<polygon fill="midnightblue" stroke="midnightblue" points="1110.2,-329.898 1119.9,-325.65 1109.66,-322.918 1110.2,-329.898"/>
</g>
<!-- Node8&#45;&gt;Node3 -->
<g id="edge10" class="edge"><title>Node8&#45;&gt;Node3</title>
<path fill="none" stroke="midnightblue" d="M1019.8,-192.496C1045.98,-186.078 1076.69,-174.986 1099,-156 1137.58,-123.165 1159.09,-65.0249 1168.02,-35.4254"/>
<polygon fill="midnightblue" stroke="midnightblue" points="1171.44,-36.168 1170.83,-25.5908 1164.71,-34.2406 1171.44,-36.168"/>
</g>
<!-- Node8&#45;&gt;Node4 -->
<g id="edge8" class="edge"><title>Node8&#45;&gt;Node4</title>
<path fill="none" stroke="midnightblue" d="M906.718,-201.338C742.683,-201.693 297.231,-198.677 248,-156 231.674,-141.847 229.418,-115.768 230.076,-97.9157"/>
<polygon fill="midnightblue" stroke="midnightblue" points="233.576,-98.0324 230.786,-87.8116 226.593,-97.5416 233.576,-98.0324"/>
</g>
<!-- Node9 -->
<g id="node9" class="node"><title>Node9</title>
<polygon fill="white" stroke="#bfbfbf" points="348.5,-6.5 348.5,-25.5 389.5,-25.5 389.5,-6.5 348.5,-6.5"/>
<text text-anchor="middle" x="369" y="-13.5" font-family="Helvetica,sans-Serif" font-size="10.00">string</text>
</g>
<!-- Node8&#45;&gt;Node9 -->
<g id="edge9" class="edge"><title>Node8&#45;&gt;Node9</title>
<path fill="none" stroke="midnightblue" d="M906.564,-199.854C776.729,-196.815 480.206,-186.574 447,-156 417.812,-129.126 452.042,-102.241 432,-68 422.99,-52.6066 407.458,-39.9541 394.071,-31.1019"/>
<polygon fill="midnightblue" stroke="midnightblue" points="395.588,-27.9228 385.253,-25.5936 391.88,-33.8598 395.588,-27.9228"/>
</g>
<!-- Node10 -->
<g id="node10" class="node"><title>Node10</title>
<polygon fill="white" stroke="#bfbfbf" points="641,-68.5 641,-87.5 693,-87.5 693,-68.5 641,-68.5"/>
<text text-anchor="middle" x="667" y="-75.5" font-family="Helvetica,sans-Serif" font-size="10.00">sstream</text>
</g>
<!-- Node8&#45;&gt;Node10 -->
<g id="edge11" class="edge"><title>Node8&#45;&gt;Node10</title>
<path fill="none" stroke="midnightblue" d="M976.259,-192.453C991.695,-177.193 1019.28,-144.903 1001,-124 981.607,-101.819 785.966,-86.6847 703.427,-81.2395"/>
<polygon fill="midnightblue" stroke="midnightblue" points="703.455,-77.7341 693.249,-80.5795 703.002,-84.7194 703.455,-77.7341"/>
</g>
<!-- Node11 -->
<g id="node11" class="node"><title>Node11</title>
<polygon fill="white" stroke="#bfbfbf" points="1305,-6.5 1305,-25.5 1349,-25.5 1349,-6.5 1305,-6.5"/>
<text text-anchor="middle" x="1327" y="-13.5" font-family="Helvetica,sans-Serif" font-size="10.00">vector</text>
</g>
<!-- Node8&#45;&gt;Node11 -->
<g id="edge12" class="edge"><title>Node8&#45;&gt;Node11</title>
<path fill="none" stroke="midnightblue" d="M1012.58,-192.424C1045.4,-185.246 1090.2,-173.358 1127,-156 1200.37,-121.389 1276.1,-60.5858 1309.44,-32.2883"/>
<polygon fill="midnightblue" stroke="midnightblue" points="1312.02,-34.6887 1317.33,-25.5228 1307.46,-29.3743 1312.02,-34.6887"/>
</g>
<!-- Node12 -->
<g id="node12" class="node"><title>Node12</title>
<polygon fill="white" stroke="#bfbfbf" points="1239.5,-130.5 1239.5,-149.5 1274.5,-149.5 1274.5,-130.5 1239.5,-130.5"/>
<text text-anchor="middle" x="1257" y="-137.5" font-family="Helvetica,sans-Serif" font-size="10.00">map</text>
</g>
<!-- Node8&#45;&gt;Node12 -->
<g id="edge13" class="edge"><title>Node8&#45;&gt;Node12</title>
<path fill="none" stroke="midnightblue" d="M1027.25,-195.077C1080.23,-188.793 1158.98,-176.821 1225,-156 1227.14,-155.325 1229.32,-154.537 1231.49,-153.682"/>
<polygon fill="midnightblue" stroke="midnightblue" points="1232.96,-156.857 1240.73,-149.647 1230.16,-150.442 1232.96,-156.857"/>
</g>
<!-- Node13 -->
<g id="node13" class="node"><title>Node13</title>
<polygon fill="white" stroke="#bfbfbf" points="455.5,-125 455.5,-155 550.5,-155 550.5,-125 455.5,-125"/>
<text text-anchor="start" x="463.5" y="-143" font-family="Helvetica,sans-Serif" font-size="10.00">boost/serialization</text>
<text text-anchor="middle" x="503" y="-132" font-family="Helvetica,sans-Serif" font-size="10.00">/vector.hpp</text>
</g>
<!-- Node8&#45;&gt;Node13 -->
<g id="edge14" class="edge"><title>Node8&#45;&gt;Node13</title>
<path fill="none" stroke="midnightblue" d="M906.94,-197.137C829.203,-191.521 689.463,-179.335 560.81,-155.968"/>
<polygon fill="midnightblue" stroke="midnightblue" points="561.247,-152.49 550.778,-154.119 559.978,-159.374 561.247,-152.49"/>
</g>
<!-- Node14 -->
<g id="node14" class="node"><title>Node14</title>
<polygon fill="white" stroke="#bfbfbf" points="959.5,-1 959.5,-31 1054.5,-31 1054.5,-1 959.5,-1"/>
<text text-anchor="start" x="967.5" y="-19" font-family="Helvetica,sans-Serif" font-size="10.00">boost/serialization</text>
<text text-anchor="middle" x="1007" y="-8" font-family="Helvetica,sans-Serif" font-size="10.00">/shared_ptr.hpp</text>
</g>
<!-- Node8&#45;&gt;Node14 -->
<g id="edge15" class="edge"><title>Node8&#45;&gt;Node14</title>
<path fill="none" stroke="midnightblue" d="M998.398,-192.483C1020.24,-185.39 1049.09,-173.58 1070,-156 1097.74,-132.68 1104.56,-122.703 1115,-88 1117.56,-79.4881 1119.76,-75.5084 1115,-68 1103.51,-49.8623 1083.64,-38.0534 1064.05,-30.4209"/>
<polygon fill="midnightblue" stroke="midnightblue" points="1065.09,-27.0759 1054.5,-27.0001 1062.74,-33.6662 1065.09,-27.0759"/>
</g>
<!-- Node15 -->
<g id="node15" class="node"><title>Node15</title>
<g id="a_node15"><a xlink:href="../../d8/def/AbsParameter_8hpp.html" target="_top" xlink:title="This class defines the internal container of a parameter. ">
<polygon fill="white" stroke="red" points="873,-68.5 873,-87.5 995,-87.5 995,-68.5 873,-68.5"/>
<text text-anchor="middle" x="934" y="-75.5" font-family="Helvetica,sans-Serif" font-size="10.00">Core/AbsParameter.hpp</text>
</a>
</g>
</g>
<!-- Node8&#45;&gt;Node15 -->
<g id="edge16" class="edge"><title>Node8&#45;&gt;Node15</title>
<path fill="none" stroke="midnightblue" d="M990.454,-192.408C1006.16,-185.28 1025.62,-173.458 1035,-156 1041.73,-143.472 1042.74,-135.929 1035,-124 1024.59,-107.97 1007,-97.6017 989.393,-90.9164"/>
<polygon fill="midnightblue" stroke="midnightblue" points="990.248,-87.5092 979.653,-87.5687 987.972,-94.1291 990.248,-87.5092"/>
</g>
<!-- Node8&#45;&gt;Node16 -->
<g id="edge21" class="edge"><title>Node8&#45;&gt;Node16</title>
<path fill="none" stroke="midnightblue" d="M906.586,-199.35C799.117,-195.761 567.887,-185.087 375,-156 367.487,-154.867 359.558,-153.349 351.903,-151.714"/>
<polygon fill="midnightblue" stroke="midnightblue" points="352.578,-148.278 342.055,-149.518 351.054,-155.11 352.578,-148.278"/>
</g>
<!-- Node17 -->
<g id="node17" class="node"><title>Node17</title>
<g id="a_node17"><a xlink:href="../../d2/de9/Exceptions_8hpp.html" target="_top" xlink:title="This class defines the ComPWA exception base&#45;class and provides a set of standard exceptions...">
<polygon fill="white" stroke="red" points="315,-68.5 315,-87.5 423,-87.5 423,-68.5 315,-68.5"/>
<text text-anchor="middle" x="369" y="-75.5" font-family="Helvetica,sans-Serif" font-size="10.00">Core/Exceptions.hpp</text>
</a>
</g>
</g>
<!-- Node8&#45;&gt;Node17 -->
<g id="edge30" class="edge"><title>Node8&#45;&gt;Node17</title>
<path fill="none" stroke="midnightblue" d="M906.94,-199.264C772.107,-194.921 453.919,-182.018 413,-156 392.028,-142.665 380.01,-115.534 373.992,-97.3059"/>
<polygon fill="midnightblue" stroke="midnightblue" points="377.288,-96.1106 371.057,-87.5415 370.584,-98.1258 377.288,-96.1106"/>
</g>
<!-- Node8&#45;&gt;Node18 -->
<g id="edge31" class="edge"><title>Node8&#45;&gt;Node18</title>
<path fill="none" stroke="midnightblue" d="M997.965,-192.415C1016.43,-185.625 1038.62,-174.189 1051,-156 1062.57,-139.005 1063.54,-114.877 1062.43,-98.1792"/>
<polygon fill="midnightblue" stroke="midnightblue" points="1065.89,-97.6005 1061.45,-87.9849 1058.93,-98.276 1065.89,-97.6005"/>
</g>
<!-- Node19 -->
<g id="node19" class="node"><title>Node19</title>
<polygon fill="white" stroke="#bfbfbf" points="569,-130.5 569,-149.5 663,-149.5 663,-130.5 569,-130.5"/>
<text text-anchor="middle" x="616" y="-137.5" font-family="Helvetica,sans-Serif" font-size="10.00">boost/version.hpp</text>
</g>
<!-- Node8&#45;&gt;Node19 -->
<g id="edge32" class="edge"><title>Node8&#45;&gt;Node19</title>
<path fill="none" stroke="midnightblue" d="M906.983,-193.699C847.332,-186 753.389,-172.681 673,-156 667.489,-154.857 661.716,-153.512 656.046,-152.106"/>
<polygon fill="midnightblue" stroke="midnightblue" points="656.589,-148.632 646.033,-149.537 654.85,-155.412 656.589,-148.632"/>
</g>
<!-- Node20 -->
<g id="node20" class="node"><title>Node20</title>
<polygon fill="white" stroke="#bfbfbf" points="681.5,-125 681.5,-155 776.5,-155 776.5,-125 681.5,-125"/>
<text text-anchor="start" x="689.5" y="-143" font-family="Helvetica,sans-Serif" font-size="10.00">boost/serialization</text>
<text text-anchor="middle" x="729" y="-132" font-family="Helvetica,sans-Serif" font-size="10.00">/split_free.hpp</text>
</g>
<!-- Node8&#45;&gt;Node20 -->
<g id="edge33" class="edge"><title>Node8&#45;&gt;Node20</title>
<path fill="none" stroke="midnightblue" d="M931.927,-192.431C897.433,-183.969 843.024,-170.534 786.416,-156.088"/>
<polygon fill="midnightblue" stroke="midnightblue" points="787.128,-152.657 776.573,-153.571 785.394,-159.439 787.128,-152.657"/>
</g>
<!-- Node21 -->
<g id="node21" class="node"><title>Node21</title>
<polygon fill="white" stroke="#bfbfbf" points="794.5,-130.5 794.5,-149.5 923.5,-149.5 923.5,-130.5 794.5,-130.5"/>
<text text-anchor="middle" x="859" y="-137.5" font-family="Helvetica,sans-Serif" font-size="10.00">boost/unordered_map.hpp</text>
</g>
<!-- Node8&#45;&gt;Node21 -->
<g id="edge34" class="edge"><title>Node8&#45;&gt;Node21</title>
<path fill="none" stroke="midnightblue" d="M951.526,-192.403C933.722,-182.512 904.259,-166.144 883.368,-154.538"/>
<polygon fill="midnightblue" stroke="midnightblue" points="884.886,-151.378 874.445,-149.581 881.487,-157.497 884.886,-151.378"/>
</g>
<!-- Node22 -->
<g id="node22" class="node"><title>Node22</title>
<polygon fill="white" stroke="#bfbfbf" points="941.5,-130.5 941.5,-149.5 992.5,-149.5 992.5,-130.5 941.5,-130.5"/>
<text text-anchor="middle" x="967" y="-137.5" font-family="Helvetica,sans-Serif" font-size="10.00">typeinfo</text>
</g>
<!-- Node8&#45;&gt;Node22 -->
<g id="edge35" class="edge"><title>Node8&#45;&gt;Node22</title>
<path fill="none" stroke="midnightblue" d="M967,-192.403C967,-183.938 967,-170.728 967,-159.82"/>
<polygon fill="midnightblue" stroke="midnightblue" points="970.5,-159.581 967,-149.581 963.5,-159.581 970.5,-159.581"/>
</g>
<!-- Node15&#45;&gt;Node3 -->
<g id="edge19" class="edge"><title>Node15&#45;&gt;Node3</title>
<path fill="none" stroke="midnightblue" d="M967.989,-68.4672C1012.8,-57.2178 1091.3,-37.5115 1137.06,-26.0227"/>
<polygon fill="midnightblue" stroke="midnightblue" points="1138.01,-29.3938 1146.85,-23.5642 1136.3,-22.6045 1138.01,-29.3938"/>
</g>
<!-- Node15&#45;&gt;Node9 -->
<g id="edge17" class="edge"><title>Node15&#45;&gt;Node9</title>
<path fill="none" stroke="midnightblue" d="M872.998,-70.5219C752.899,-57.7681 489.669,-29.8144 399.789,-20.2697"/>
<polygon fill="midnightblue" stroke="midnightblue" points="400.023,-16.7748 389.709,-19.1992 399.283,-23.7357 400.023,-16.7748"/>
</g>
<!-- Node15&#45;&gt;Node11 -->
<g id="edge18" class="edge"><title>Node15&#45;&gt;Node11</title>
<path fill="none" stroke="midnightblue" d="M989.89,-68.4672C1073.37,-55.7223 1227.95,-32.1226 1294.8,-21.9156"/>
<polygon fill="midnightblue" stroke="midnightblue" points="1295.4,-25.3654 1304.76,-20.3962 1294.34,-18.4456 1295.4,-25.3654"/>
</g>
<!-- Node15&#45;&gt;Node14 -->
<g id="edge20" class="edge"><title>Node15&#45;&gt;Node14</title>
<path fill="none" stroke="midnightblue" d="M944.459,-68.4035C954.161,-60.4292 968.985,-48.2451 981.766,-37.7403"/>
<polygon fill="midnightblue" stroke="midnightblue" points="984.292,-40.1944 989.795,-31.1408 979.848,-34.7866 984.292,-40.1944"/>
</g>
<!-- Node16&#45;&gt;Node4 -->
<g id="edge22" class="edge"><title>Node16&#45;&gt;Node4</title>
<path fill="none" stroke="midnightblue" d="M297.968,-130.403C285.732,-120.869 265.771,-105.315 251.007,-93.8106"/>
<polygon fill="midnightblue" stroke="midnightblue" points="253.051,-90.9663 243.012,-87.5806 248.748,-96.4879 253.051,-90.9663"/>
</g>
<!-- Node16&#45;&gt;Node5 -->
<g id="edge25" class="edge"><title>Node16&#45;&gt;Node5</title>
<path fill="none" stroke="midnightblue" d="M288.368,-130.403C263.881,-120.2 222.853,-103.105 194.891,-91.4544"/>
<polygon fill="midnightblue" stroke="midnightblue" points="196.17,-88.196 185.593,-87.5806 193.478,-94.6576 196.17,-88.196"/>
</g>
<!-- Node16&#45;&gt;Node9 -->
<g id="edge23" class="edge"><title>Node16&#45;&gt;Node9</title>
<path fill="none" stroke="midnightblue" d="M306.102,-130.173C302.052,-116.204 296.225,-88.4886 306,-68 313.654,-51.9553 329.096,-39.3266 342.775,-30.6496"/>
<polygon fill="midnightblue" stroke="midnightblue" points="344.598,-33.6373 351.41,-25.5221 341.024,-27.6185 344.598,-33.6373"/>
</g>
<!-- Node16&#45;&gt;Node10 -->
<g id="edge24" class="edge"><title>Node16&#45;&gt;Node10</title>
<path fill="none" stroke="midnightblue" d="M359.912,-130.467C433.24,-118.178 566.79,-95.7949 630.844,-85.0597"/>
<polygon fill="midnightblue" stroke="midnightblue" points="631.589,-88.4837 640.873,-83.3788 630.432,-81.58 631.589,-88.4837"/>
</g>
<!-- Node16&#45;&gt;Node15 -->
<g id="edge26" class="edge"><title>Node16&#45;&gt;Node15</title>
<path fill="none" stroke="midnightblue" d="M361.076,-133.139C386.908,-130.283 418.585,-126.857 447,-124 594.742,-109.146 767.892,-93.5866 862.793,-85.2174"/>
<polygon fill="midnightblue" stroke="midnightblue" points="863.196,-88.6956 872.85,-84.3316 862.581,-81.7226 863.196,-88.6956"/>
</g>
<!-- Node16&#45;&gt;Node17 -->
<g id="edge27" class="edge"><title>Node16&#45;&gt;Node17</title>
<path fill="none" stroke="midnightblue" d="M317.597,-130.403C326.864,-121.136 341.817,-106.183 353.212,-94.7876"/>
<polygon fill="midnightblue" stroke="midnightblue" points="355.823,-97.1266 360.419,-87.5806 350.873,-92.1768 355.823,-97.1266"/>
</g>
<!-- Node16&#45;&gt;Node18 -->
<g id="edge29" class="edge"><title>Node16&#45;&gt;Node18</title>
<path fill="none" stroke="midnightblue" d="M361.044,-132.8C386.868,-129.861 418.549,-126.465 447,-124 690.888,-102.874 755.779,-115.373 1003.28,-87.9658"/>
<polygon fill="midnightblue" stroke="midnightblue" points="1003.75,-91.4352 1013.29,-86.8458 1002.97,-84.4786 1003.75,-91.4352"/>
</g>
<!-- Node17&#45;&gt;Node9 -->
<g id="edge28" class="edge"><title>Node17&#45;&gt;Node9</title>
<path fill="none" stroke="midnightblue" d="M369,-68.4035C369,-59.9381 369,-46.7283 369,-35.8199"/>
<polygon fill="midnightblue" stroke="midnightblue" points="372.5,-35.5806 369,-25.5806 365.5,-35.5806 372.5,-35.5806"/>
</g>
<!-- Node23&#45;&gt;Node3 -->
<g id="edge40" class="edge"><title>Node23&#45;&gt;Node3</title>
<path fill="none" stroke="midnightblue" d="M1198.05,-304.958C1234.14,-273.418 1312.65,-194.215 1283,-124 1265.48,-82.5064 1223.12,-49.1509 1196.38,-31.2819"/>
<polygon fill="midnightblue" stroke="midnightblue" points="1197.93,-28.118 1187.63,-25.6193 1194.12,-33.9932 1197.93,-28.118"/>
</g>
<!-- Node23&#45;&gt;Node8 -->
<g id="edge47" class="edge"><title>Node23&#45;&gt;Node8</title>
<path fill="none" stroke="midnightblue" d="M1152.37,-304.841C1132.27,-294.796 1104.84,-280.866 1081,-268 1049.28,-250.881 1013.23,-230.097 990.313,-216.716"/>
<polygon fill="midnightblue" stroke="midnightblue" points="992.033,-213.667 981.635,-211.635 988.496,-219.708 992.033,-213.667"/>
</g>
<!-- Node23&#45;&gt;Node9 -->
<g id="edge41" class="edge"><title>Node23&#45;&gt;Node9</title>
<path fill="none" stroke="midnightblue" d="M1119.73,-316.985C909.533,-308.494 225.557,-267.236 134,-88 129.956,-80.0841 128.421,-74.9199 134,-68 159.347,-36.5624 280.589,-23.5144 338.315,-19.0154"/>
<polygon fill="midnightblue" stroke="midnightblue" points="338.604,-22.5037 348.317,-18.2723 338.085,-15.5229 338.604,-22.5037"/>
</g>
<!-- Node23&#45;&gt;Node11 -->
<g id="edge39" class="edge"><title>Node23&#45;&gt;Node11</title>
<path fill="none" stroke="midnightblue" d="M1242.15,-318.848C1322.9,-315.056 1455,-294.82 1455,-203 1455,-203 1455,-203 1455,-139 1455,-85.2284 1395.08,-47.9258 1357.23,-29.7283"/>
<polygon fill="midnightblue" stroke="midnightblue" points="1358.68,-26.5421 1348.14,-25.515 1355.74,-32.8938 1358.68,-26.5421"/>
</g>
<!-- Node23&#45;&gt;Node12 -->
<g id="edge42" class="edge"><title>Node23&#45;&gt;Node12</title>
<path fill="none" stroke="midnightblue" d="M1187.09,-304.734C1200.82,-272.586 1234.15,-194.525 1249.29,-159.064"/>
<polygon fill="midnightblue" stroke="midnightblue" points="1252.65,-160.096 1253.36,-149.524 1246.21,-157.347 1252.65,-160.096"/>
</g>
<!-- Node24 -->
<g id="node24" class="node"><title>Node24</title>
<g id="a_node24"><a xlink:href="../../d5/d10/Estimator_8hpp.html" target="_top" xlink:title="This class provides the interface to classes which estimate the &quot;closeness&quot; of the modeled intensity ...">
<polygon fill="white" stroke="red" points="1287.5,-248.5 1287.5,-267.5 1388.5,-267.5 1388.5,-248.5 1287.5,-248.5"/>
<text text-anchor="middle" x="1338" y="-255.5" font-family="Helvetica,sans-Serif" font-size="10.00">Core/Estimator.hpp</text>
</a>
</g>
</g>
<!-- Node23&#45;&gt;Node24 -->
<g id="edge43" class="edge"><title>Node23&#45;&gt;Node24</title>
<path fill="none" stroke="midnightblue" d="M1217.81,-304.933C1244.53,-294.72 1280.34,-281.036 1305.9,-271.266"/>
<polygon fill="midnightblue" stroke="midnightblue" points="1307.4,-274.439 1315.5,-267.6 1304.91,-267.901 1307.4,-274.439"/>
</g>
<!-- Node25 -->
<g id="node25" class="node"><title>Node25</title>
<polygon fill="white" stroke="#bfbfbf" points="1089.5,-248.5 1089.5,-267.5 1192.5,-267.5 1192.5,-248.5 1089.5,-248.5"/>
<text text-anchor="middle" x="1141" y="-255.5" font-family="Helvetica,sans-Serif" font-size="10.00">Minuit2/FCNBase.h</text>
</g>
<!-- Node23&#45;&gt;Node25 -->
<g id="edge48" class="edge"><title>Node23&#45;&gt;Node25</title>
<path fill="none" stroke="midnightblue" d="M1171.52,-304.781C1165.83,-296.242 1158.55,-285.318 1152.52,-276.283"/>
<polygon fill="midnightblue" stroke="midnightblue" points="1155.28,-274.11 1146.82,-267.731 1149.46,-277.993 1155.28,-274.11"/>
</g>
<!-- Node24&#45;&gt;Node3 -->
<g id="edge45" class="edge"><title>Node24&#45;&gt;Node3</title>
<path fill="none" stroke="midnightblue" d="M1338.61,-248.252C1339.76,-225.968 1340.32,-165.867 1317,-124 1291.48,-78.1822 1237.24,-46.3467 1203.09,-29.9216"/>
<polygon fill="midnightblue" stroke="midnightblue" points="1204.16,-26.5572 1193.62,-25.5094 1201.2,-32.9031 1204.16,-26.5572"/>
</g>
<!-- Node24&#45;&gt;Node8 -->
<g id="edge46" class="edge"><title>Node24&#45;&gt;Node8</title>
<path fill="none" stroke="midnightblue" d="M1287.19,-249.605C1221.9,-240.101 1108.29,-223.566 1035.43,-212.961"/>
<polygon fill="midnightblue" stroke="midnightblue" points="1035.83,-209.482 1025.43,-211.505 1034.83,-216.409 1035.83,-209.482"/>
</g>
<!-- Node24&#45;&gt;Node11 -->
<g id="edge44" class="edge"><title>Node24&#45;&gt;Node11</title>
<path fill="none" stroke="midnightblue" d="M1342.37,-248.307C1346.56,-239.437 1352.6,-225.145 1355,-212 1366.5,-149.041 1370.9,-129.994 1355,-68 1351.91,-55.9654 1345.33,-43.722 1339.32,-34.2485"/>
<polygon fill="midnightblue" stroke="midnightblue" points="1342.13,-32.1607 1333.66,-25.8088 1336.32,-36.0622 1342.13,-32.1607"/>
</g>
</g>
</svg>
