<?xml version="1.0" encoding="UTF-8" standalone="no"?>
<!DOCTYPE svg PUBLIC "-//W3C//DTD SVG 1.1//EN"
 "http://www.w3.org/Graphics/SVG/1.1/DTD/svg11.dtd">
<!-- Generated by graphviz version 2.36.0 (20140111.2315)
 -->
<!-- Title: NeatPlotting::PlotStyle Pages: 1 -->
<svg width="144pt" height="422pt"
 viewBox="0.00 0.00 144.00 422.00" xmlns="http://www.w3.org/2000/svg" xmlns:xlink="http://www.w3.org/1999/xlink">
<g id="graph0" class="graph" transform="scale(1 1) rotate(0) translate(4 418)">
<title>NeatPlotting::PlotStyle</title>
<polygon fill="white" stroke="none" points="-4,4 -4,-418 140,-418 140,4 -4,4"/>
<!-- Node1 -->
<g id="node1" class="node"><title>Node1</title>
<polygon fill="#bfbfbf" stroke="black" points="2,-1 2,-91 118,-91 118,-1 2,-1"/>
<text text-anchor="middle" x="60" y="-79" font-family="Helvetica,sans-Serif" font-size="10.00">NeatPlotting::PlotStyle</text>
<polyline fill="none" stroke="black" points="2,-72 118,-72 "/>
<text text-anchor="start" x="10" y="-60" font-family="Helvetica,sans-Serif" font-size="10.00">+ statistics_options</text>
<text text-anchor="start" x="10" y="-49" font-family="Helvetica,sans-Serif" font-size="10.00">+ palette_color_style</text>
<polyline fill="none" stroke="black" points="2,-42 118,-42 "/>
<text text-anchor="start" x="10" y="-30" font-family="Helvetica,sans-Serif" font-size="10.00">+ PlotStyle()</text>
<text text-anchor="start" x="10" y="-19" font-family="Helvetica,sans-Serif" font-size="10.00">+ operator&lt;()</text>
<text text-anchor="start" x="10" y="-8" font-family="Helvetica,sans-Serif" font-size="10.00">+ operator&gt;()</text>
</g>
<!-- Node2 -->
<g id="node2" class="node"><title>Node2</title>
<g id="a_node2"><a xlink:href="../../d2/d75/structNeatPlotting_1_1AxisStyle.html" target="_top" xlink:title="{NeatPlotting::AxisStyle\n|+ log_scale\l+ axis_label_text_offset\l+ axis_title_text_offset\l|+ AxisStyle()\l+ operator\&lt;()\l+ operator\&gt;()\l}">
<polygon fill="white" stroke="black" points="-0.5,-162.5 -0.5,-263.5 120.5,-263.5 120.5,-162.5 -0.5,-162.5"/>
<text text-anchor="middle" x="60" y="-251.5" font-family="Helvetica,sans-Serif" font-size="10.00">NeatPlotting::AxisStyle</text>
<polyline fill="none" stroke="black" points="-0.5,-244.5 120.5,-244.5 "/>
<text text-anchor="start" x="7.5" y="-232.5" font-family="Helvetica,sans-Serif" font-size="10.00">+ log_scale</text>
<text text-anchor="start" x="7.5" y="-221.5" font-family="Helvetica,sans-Serif" font-size="10.00">+ axis_label_text_offset</text>
<text text-anchor="start" x="7.5" y="-210.5" font-family="Helvetica,sans-Serif" font-size="10.00">+ axis_title_text_offset</text>
<polyline fill="none" stroke="black" points="-0.5,-203.5 120.5,-203.5 "/>
<text text-anchor="start" x="7.5" y="-191.5" font-family="Helvetica,sans-Serif" font-size="10.00">+ AxisStyle()</text>
<text text-anchor="start" x="7.5" y="-180.5" font-family="Helvetica,sans-Serif" font-size="10.00">+ operator&lt;()</text>
<text text-anchor="start" x="7.5" y="-169.5" font-family="Helvetica,sans-Serif" font-size="10.00">+ operator&gt;()</text>
</a>
</g>
</g>
<!-- Node2&#45;&gt;Node1 -->
<g id="edge1" class="edge"><title>Node2&#45;&gt;Node1</title>
<path fill="none" stroke="#404040" d="M60,-162.495C60,-143.884 60,-122.591 60,-103.4"/>
<polygon fill="none" stroke="#404040" points="60.0001,-103.141 56,-97.1408 60,-91.1407 64,-97.1407 60.0001,-103.141"/>
<text text-anchor="middle" x="92" y="-135.5" font-family="Helvetica,sans-Serif" font-size="10.00"> +y_axis_style</text>
<text text-anchor="middle" x="92" y="-124.5" font-family="Helvetica,sans-Serif" font-size="10.00">+x_axis_style</text>
<text text-anchor="middle" x="92" y="-113.5" font-family="Helvetica,sans-Serif" font-size="10.00">+z_axis_style</text>
</g>
<!-- Node3 -->
<g id="node3" class="node"><title>Node3</title>
<g id="a_node3"><a xlink:href="../../df/d4c/structNeatPlotting_1_1TextStyle.html" target="_top" xlink:title="{NeatPlotting::TextStyle\n|+ text_font\l+ text_size\l+ text_color\l|+ TextStyle()\l+ operator\&lt;()\l+ operator\&gt;()\l}">
<polygon fill="white" stroke="black" points="0.5,-312.5 0.5,-413.5 119.5,-413.5 119.5,-312.5 0.5,-312.5"/>
<text text-anchor="middle" x="60" y="-401.5" font-family="Helvetica,sans-Serif" font-size="10.00">NeatPlotting::TextStyle</text>
<polyline fill="none" stroke="black" points="0.5,-394.5 119.5,-394.5 "/>
<text text-anchor="start" x="8.5" y="-382.5" font-family="Helvetica,sans-Serif" font-size="10.00">+ text_font</text>
<text text-anchor="start" x="8.5" y="-371.5" font-family="Helvetica,sans-Serif" font-size="10.00">+ text_size</text>
<text text-anchor="start" x="8.5" y="-360.5" font-family="Helvetica,sans-Serif" font-size="10.00">+ text_color</text>
<polyline fill="none" stroke="black" points="0.5,-353.5 119.5,-353.5 "/>
<text text-anchor="start" x="8.5" y="-341.5" font-family="Helvetica,sans-Serif" font-size="10.00">+ TextStyle()</text>
<text text-anchor="start" x="8.5" y="-330.5" font-family="Helvetica,sans-Serif" font-size="10.00">+ operator&lt;()</text>
<text text-anchor="start" x="8.5" y="-319.5" font-family="Helvetica,sans-Serif" font-size="10.00">+ operator&gt;()</text>
</a>
</g>
</g>
<!-- Node3&#45;&gt;Node2 -->
<g id="edge2" class="edge"><title>Node3&#45;&gt;Node2</title>
<path fill="none" stroke="#404040" d="M60,-312.306C60,-300.529 60,-287.827 60,-275.591"/>
<polygon fill="none" stroke="#404040" points="60.0001,-275.562 56,-269.562 60,-263.562 64,-269.562 60.0001,-275.562"/>
<text text-anchor="middle" x="98" y="-285.5" font-family="Helvetica,sans-Serif" font-size="10.00"> +axis_text_style</text>
</g>
</g>
</svg>
