<?xml version="1.0" encoding="UTF-8" standalone="no"?>
<!DOCTYPE svg PUBLIC "-//W3C//DTD SVG 1.1//EN"
 "http://www.w3.org/Graphics/SVG/1.1/DTD/svg11.dtd">
<!-- Generated by graphviz version 2.36.0 (20140111.2315)
 -->
<!-- Title: /home/travis/build/ComPWA/ComPWA/Physics/HelicityFormalism/AmpWignerD.hpp Pages: 1 -->
<!--zoomable 490 -->
<svg id="main" version="1.1" xmlns="http://www.w3.org/2000/svg" xmlns:xlink="http://www.w3.org/1999/xlink" xml:space="preserve" onload="init(evt)">
<style type="text/css"><![CDATA[
.edge:hover path { stroke: red; }
.edge:hover polygon { stroke: red; fill: red; }
]]></style>
<script type="text/javascript"><![CDATA[
var edges = document.getElementsByTagName('g');
if (edges && edges.length) {
  for (var i=0;i<edges.length;i++) {
    if (edges[i].id.substr(0,4)=='edge') {
      edges[i].setAttribute('class','edge');
    }
  }
}
]]></script>
        <defs>
                <circle id="rim" cx="0" cy="0" r="7"/>
                <circle id="rim2" cx="0" cy="0" r="3.5"/>
                <g id="zoomPlus">
                        <use xlink:href="#rim" fill="#404040">
                                <set attributeName="fill" to="#808080" begin="zoomplus.mouseover" end="zoomplus.mouseout"/>
                        </use>
                        <path d="M-4,0h8M0,-4v8" fill="none" stroke="white" stroke-width="1.5" pointer-events="none"/>
                </g>
                <g id="zoomMin">
                        <use xlink:href="#rim" fill="#404040">
                                <set attributeName="fill" to="#808080" begin="zoomminus.mouseover" end="zoomminus.mouseout"/>
                        </use>
                        <path d="M-4,0h8" fill="none" stroke="white" stroke-width="1.5" pointer-events="none"/>
                </g>
                <g id="dirArrow">
                        <path fill="none" stroke="white" stroke-width="1.5" d="M0,-3.0v7 M-2.5,-0.5L0,-3.0L2.5,-0.5"/>
                </g>
               <g id="resetDef">
                       <use xlink:href="#rim2" fill="#404040">
                               <set attributeName="fill" to="#808080" begin="reset.mouseover" end="reset.mouseout"/>
                       </use>
               </g>
        </defs>

<script type="text/javascript">
var viewWidth = 2000;
var viewHeight = 490;
var sectionId = 'dynsection-0';
</script>
<script xlink:href="../../svgpan.js"/>
<svg id="graph" class="graph">
<g id="viewport">
<title>/home/travis/build/ComPWA/ComPWA/Physics/HelicityFormalism/AmpWignerD.hpp</title>
<polygon fill="white" stroke="none" points="-4,4 -4,-486 1996,-486 1996,4 -4,4"/>
<!-- Node1 -->
<g id="node1" class="node"><title>Node1</title>
<polygon fill="#bfbfbf" stroke="black" points="1424.5,-440.5 1424.5,-481.5 1603.5,-481.5 1603.5,-440.5 1424.5,-440.5"/>
<text text-anchor="start" x="1432.5" y="-469.5" font-family="Helvetica,sans-Serif" font-size="10.00">/home/travis/build</text>
<text text-anchor="start" x="1432.5" y="-458.5" font-family="Helvetica,sans-Serif" font-size="10.00">/ComPWA/ComPWA/Physics</text>
<text text-anchor="middle" x="1514" y="-447.5" font-family="Helvetica,sans-Serif" font-size="10.00">/HelicityFormalism/AmpWignerD.hpp</text>
</g>
<!-- Node2 -->
<g id="node2" class="node"><title>Node2</title>
<polygon fill="white" stroke="#bfbfbf" points="299,-6.5 299,-25.5 343,-25.5 343,-6.5 299,-6.5"/>
<text text-anchor="middle" x="321" y="-13.5" font-family="Helvetica,sans-Serif" font-size="10.00">vector</text>
</g>
<!-- Node1&#45;&gt;Node2 -->
<g id="edge1" class="edge"><title>Node1&#45;&gt;Node2</title>
<path fill="none" stroke="midnightblue" d="M1424.5,-460.002C1233.27,-459.03 770.98,-451.479 387,-404 212.954,-382.479 0,-502.371 0,-327 0,-327 0,-327 0,-151 0,-26.7406 207.374,-15.6625 288.765,-16.0999"/>
<polygon fill="midnightblue" stroke="midnightblue" points="288.896,-19.6016 298.936,-16.2193 288.978,-12.6021 288.896,-19.6016"/>
</g>
<!-- Node3 -->
<g id="node3" class="node"><title>Node3</title>
<polygon fill="white" stroke="#bfbfbf" points="1890,-6.5 1890,-25.5 1942,-25.5 1942,-6.5 1890,-6.5"/>
<text text-anchor="middle" x="1916" y="-13.5" font-family="Helvetica,sans-Serif" font-size="10.00">memory</text>
</g>
<!-- Node1&#45;&gt;Node3 -->
<g id="edge2" class="edge"><title>Node1&#45;&gt;Node3</title>
<path fill="none" stroke="midnightblue" d="M1603.63,-453.396C1742.04,-440.699 1992,-406.732 1992,-327 1992,-327 1992,-327 1992,-151 1992,-103.151 1954.88,-56.7361 1932.53,-33.1198"/>
<polygon fill="midnightblue" stroke="midnightblue" points="1934.81,-30.4534 1925.32,-25.7523 1929.81,-35.3483 1934.81,-30.4534"/>
</g>
<!-- Node4 -->
<g id="node4" class="node"><title>Node4</title>
<polygon fill="white" stroke="#bfbfbf" points="1710.5,-69 1710.5,-99 1811.5,-99 1811.5,-69 1710.5,-69"/>
<text text-anchor="start" x="1718.5" y="-87" font-family="Helvetica,sans-Serif" font-size="10.00">boost/property_tree</text>
<text text-anchor="middle" x="1761" y="-76" font-family="Helvetica,sans-Serif" font-size="10.00">/ptree.hpp</text>
</g>
<!-- Node1&#45;&gt;Node4 -->
<g id="edge3" class="edge"><title>Node1&#45;&gt;Node4</title>
<path fill="none" stroke="midnightblue" d="M1603.71,-458.88C1697.13,-452.396 1830,-425.807 1830,-327 1830,-327 1830,-327 1830,-213 1830,-171.674 1801.79,-130.861 1781.44,-106.803"/>
<polygon fill="midnightblue" stroke="midnightblue" points="1783.85,-104.241 1774.63,-99.0188 1778.58,-108.85 1783.85,-104.241"/>
</g>
<!-- Node5 -->
<g id="node5" class="node"><title>Node5</title>
<polygon fill="white" stroke="#bfbfbf" points="1125.5,-373 1125.5,-403 1226.5,-403 1226.5,-373 1125.5,-373"/>
<text text-anchor="start" x="1133.5" y="-391" font-family="Helvetica,sans-Serif" font-size="10.00">boost/property_tree</text>
<text text-anchor="middle" x="1176" y="-380" font-family="Helvetica,sans-Serif" font-size="10.00">/exceptions.hpp</text>
</g>
<!-- Node1&#45;&gt;Node5 -->
<g id="edge4" class="edge"><title>Node1&#45;&gt;Node5</title>
<path fill="none" stroke="midnightblue" d="M1424.26,-443.014C1372.25,-432.912 1305.3,-419.469 1236.81,-404.127"/>
<polygon fill="midnightblue" stroke="midnightblue" points="1237.22,-400.632 1226.7,-401.85 1235.69,-407.461 1237.22,-400.632"/>
</g>
<!-- Node6 -->
<g id="node6" class="node"><title>Node6</title>
<g id="a_node6"><a xlink:href="../../df/d9f/ParameterList_8hpp.html" target="_top" xlink:title="This class provides a list of fit parameters which can have different types. ">
<polygon fill="white" stroke="black" points="1078,-204.5 1078,-223.5 1198,-223.5 1198,-204.5 1078,-204.5"/>
<text text-anchor="middle" x="1138" y="-211.5" font-family="Helvetica,sans-Serif" font-size="10.00">Core/ParameterList.hpp</text>
</a>
</g>
</g>
<!-- Node1&#45;&gt;Node6 -->
<g id="edge5" class="edge"><title>Node1&#45;&gt;Node6</title>
<path fill="none" stroke="midnightblue" d="M1495.98,-440.253C1468.02,-410.446 1411.48,-353.472 1355,-316 1294.64,-275.954 1215.87,-243.615 1171.74,-227.055"/>
<polygon fill="midnightblue" stroke="midnightblue" points="1172.94,-223.767 1162.35,-223.572 1170.51,-230.33 1172.94,-223.767"/>
</g>
<!-- Node22 -->
<g id="node22" class="node"><title>Node22</title>
<g id="a_node22"><a xlink:href="../../dc/d66/Functions_8hpp.html" target="_top" xlink:title="This file contains Functions implementing the Strategy interface so they can be used inside a node of...">
<polygon fill="white" stroke="black" points="299,-260.5 299,-279.5 401,-279.5 401,-260.5 299,-260.5"/>
<text text-anchor="middle" x="350" y="-267.5" font-family="Helvetica,sans-Serif" font-size="10.00">Core/Functions.hpp</text>
</a>
</g>
</g>
<!-- Node1&#45;&gt;Node22 -->
<g id="edge35" class="edge"><title>Node1&#45;&gt;Node22</title>
<path fill="none" stroke="midnightblue" d="M1424.46,-460.891C1187.61,-461.606 551.245,-452.369 383,-336 367.421,-325.225 358.779,-304.831 354.287,-289.748"/>
<polygon fill="midnightblue" stroke="midnightblue" points="357.632,-288.704 351.71,-279.918 350.86,-290.479 357.632,-288.704"/>
</g>
<!-- Node24 -->
<g id="node24" class="node"><title>Node24</title>
<g id="a_node24"><a xlink:href="../../d8/dd4/DataPoint_8hpp.html" target="_top" xlink:title="dataPoint stores kinematic information of a dalitz plot ">
<polygon fill="white" stroke="red" points="124.5,-204.5 124.5,-223.5 227.5,-223.5 227.5,-204.5 124.5,-204.5"/>
<text text-anchor="middle" x="176" y="-211.5" font-family="Helvetica,sans-Serif" font-size="10.00">Core/DataPoint.hpp</text>
</a>
</g>
</g>
<!-- Node1&#45;&gt;Node24 -->
<g id="edge47" class="edge"><title>Node1&#45;&gt;Node24</title>
<path fill="none" stroke="midnightblue" d="M1424.3,-457.921C1186.53,-452.029 552.05,-433.699 462,-404 346.727,-365.983 233.602,-268.583 192.366,-230.548"/>
<polygon fill="midnightblue" stroke="midnightblue" points="194.588,-227.835 184.889,-223.571 189.812,-232.952 194.588,-227.835"/>
</g>
<!-- Node25 -->
<g id="node25" class="node"><title>Node25</title>
<g id="a_node25"><a xlink:href="../../da/db2/FunctionTree_8hpp.html" target="_top" xlink:title="This class can be used to store a function in a tree&#45;like structure. ">
<polygon fill="white" stroke="black" points="1245,-378.5 1245,-397.5 1361,-397.5 1361,-378.5 1245,-378.5"/>
<text text-anchor="middle" x="1303" y="-385.5" font-family="Helvetica,sans-Serif" font-size="10.00">Core/FunctionTree.hpp</text>
</a>
</g>
</g>
<!-- Node1&#45;&gt;Node25 -->
<g id="edge48" class="edge"><title>Node1&#45;&gt;Node25</title>
<path fill="none" stroke="midnightblue" d="M1455.78,-440.411C1418.03,-427.707 1370.09,-411.576 1338.08,-400.803"/>
<polygon fill="midnightblue" stroke="midnightblue" points="1338.87,-397.377 1328.27,-397.504 1336.64,-404.011 1338.87,-397.377"/>
</g>
<!-- Node27 -->
<g id="node27" class="node"><title>Node27</title>
<g id="a_node27"><a xlink:href="../../d9/dfb/Spin_8hpp.html" target="_top" xlink:title="Core/Spin.hpp">
<polygon fill="white" stroke="black" points="1456.5,-142.5 1456.5,-161.5 1535.5,-161.5 1535.5,-142.5 1456.5,-142.5"/>
<text text-anchor="middle" x="1496" y="-149.5" font-family="Helvetica,sans-Serif" font-size="10.00">Core/Spin.hpp</text>
</a>
</g>
</g>
<!-- Node1&#45;&gt;Node27 -->
<g id="edge64" class="edge"><title>Node1&#45;&gt;Node27</title>
<path fill="none" stroke="midnightblue" d="M1525.12,-440.422C1538.45,-415.084 1559,-369.171 1559,-327 1559,-327 1559,-327 1559,-269 1559,-229.346 1530.22,-190.302 1511.56,-169.16"/>
<polygon fill="midnightblue" stroke="midnightblue" points="1514.09,-166.741 1504.76,-161.727 1508.93,-171.467 1514.09,-166.741"/>
</g>
<!-- Node28 -->
<g id="node28" class="node"><title>Node28</title>
<g id="a_node28"><a xlink:href="../../dc/ded/Properties_8hpp.html" target="_top" xlink:title="Core/Properties.hpp">
<polygon fill="white" stroke="black" points="1613,-204.5 1613,-223.5 1717,-223.5 1717,-204.5 1613,-204.5"/>
<text text-anchor="middle" x="1665" y="-211.5" font-family="Helvetica,sans-Serif" font-size="10.00">Core/Properties.hpp</text>
</a>
</g>
</g>
<!-- Node1&#45;&gt;Node28 -->
<g id="edge70" class="edge"><title>Node1&#45;&gt;Node28</title>
<path fill="none" stroke="midnightblue" d="M1538.36,-440.445C1549.85,-430.391 1563.15,-417.443 1573,-404 1614.64,-347.152 1645.81,-268.529 1658.61,-233.326"/>
<polygon fill="midnightblue" stroke="midnightblue" points="1662.05,-234.1 1662.11,-223.505 1655.46,-231.75 1662.05,-234.1"/>
</g>
<!-- Node6&#45;&gt;Node2 -->
<g id="edge10" class="edge"><title>Node6&#45;&gt;Node2</title>
<path fill="none" stroke="midnightblue" d="M1077.75,-211.442C942.555,-207.495 618.63,-195.408 513,-168 443.713,-150.022 419.361,-148.809 367,-100 347.658,-81.9703 334.488,-53.9233 327.353,-35.5067"/>
<polygon fill="midnightblue" stroke="midnightblue" points="330.571,-34.1142 323.849,-25.9247 323.997,-36.5185 330.571,-34.1142"/>
</g>
<!-- Node6&#45;&gt;Node3 -->
<g id="edge8" class="edge"><title>Node6&#45;&gt;Node3</title>
<path fill="none" stroke="midnightblue" d="M1198.04,-210.626C1299.74,-205.955 1501.27,-193.708 1567,-168 1636.21,-140.933 1633.67,-99.4507 1701,-68 1760.21,-40.343 1835.81,-26.9113 1879.78,-21.0192"/>
<polygon fill="midnightblue" stroke="midnightblue" points="1880.25,-24.4881 1889.72,-19.744 1879.36,-17.545 1880.25,-24.4881"/>
</g>
<!-- Node7 -->
<g id="node7" class="node"><title>Node7</title>
<polygon fill="white" stroke="#bfbfbf" points="1360,-74.5 1360,-93.5 1414,-93.5 1414,-74.5 1360,-74.5"/>
<text text-anchor="middle" x="1387" y="-81.5" font-family="Helvetica,sans-Serif" font-size="10.00">iostream</text>
</g>
<!-- Node6&#45;&gt;Node7 -->
<g id="edge6" class="edge"><title>Node6&#45;&gt;Node7</title>
<path fill="none" stroke="midnightblue" d="M1161.16,-204.411C1183.32,-195.951 1217.47,-182.255 1246,-168 1289.41,-146.306 1337.68,-116.599 1364.99,-99.2375"/>
<polygon fill="midnightblue" stroke="midnightblue" points="1367.19,-101.982 1373.73,-93.6449 1363.42,-96.0856 1367.19,-101.982"/>
</g>
<!-- Node8 -->
<g id="node8" class="node"><title>Node8</title>
<polygon fill="white" stroke="#bfbfbf" points="1459.5,-6.5 1459.5,-25.5 1500.5,-25.5 1500.5,-6.5 1459.5,-6.5"/>
<text text-anchor="middle" x="1480" y="-13.5" font-family="Helvetica,sans-Serif" font-size="10.00">string</text>
</g>
<!-- Node6&#45;&gt;Node8 -->
<g id="edge7" class="edge"><title>Node6&#45;&gt;Node8</title>
<path fill="none" stroke="midnightblue" d="M1147.29,-204.395C1155.58,-196.025 1167.14,-182.483 1172,-168 1176.52,-154.516 1177.87,-148.956 1172,-136 1162,-113.909 1141,-122.091 1131,-100 1125.13,-87.0437 1121.7,-78.7592 1131,-68 1172.12,-20.4391 1371.82,-16.364 1449.24,-16.6136"/>
<polygon fill="midnightblue" stroke="midnightblue" points="1449.3,-20.114 1459.32,-16.6735 1449.35,-13.1141 1449.3,-20.114"/>
</g>
<!-- Node9 -->
<g id="node9" class="node"><title>Node9</title>
<polygon fill="white" stroke="#bfbfbf" points="1140,-74.5 1140,-93.5 1192,-93.5 1192,-74.5 1140,-74.5"/>
<text text-anchor="middle" x="1166" y="-81.5" font-family="Helvetica,sans-Serif" font-size="10.00">sstream</text>
</g>
<!-- Node6&#45;&gt;Node9 -->
<g id="edge9" class="edge"><title>Node6&#45;&gt;Node9</title>
<path fill="none" stroke="midnightblue" d="M1161.45,-204.408C1177.16,-197.28 1196.62,-185.458 1206,-168 1218.3,-145.114 1198.89,-117.858 1183.06,-100.989"/>
<polygon fill="midnightblue" stroke="midnightblue" points="1185.26,-98.237 1175.73,-93.6075 1180.29,-103.169 1185.26,-98.237"/>
</g>
<!-- Node10 -->
<g id="node10" class="node"><title>Node10</title>
<polygon fill="white" stroke="#bfbfbf" points="182.5,-74.5 182.5,-93.5 217.5,-93.5 217.5,-74.5 182.5,-74.5"/>
<text text-anchor="middle" x="200" y="-81.5" font-family="Helvetica,sans-Serif" font-size="10.00">map</text>
</g>
<!-- Node6&#45;&gt;Node10 -->
<g id="edge11" class="edge"><title>Node6&#45;&gt;Node10</title>
<path fill="none" stroke="midnightblue" d="M1078,-213.572C960.331,-213.68 691.455,-208.928 470,-168 378.833,-151.151 275.069,-113.922 227.033,-95.6032"/>
<polygon fill="midnightblue" stroke="midnightblue" points="228.243,-92.3186 217.653,-91.9952 225.73,-98.852 228.243,-92.3186"/>
</g>
<!-- Node11 -->
<g id="node11" class="node"><title>Node11</title>
<polygon fill="white" stroke="#bfbfbf" points="626.5,-137 626.5,-167 721.5,-167 721.5,-137 626.5,-137"/>
<text text-anchor="start" x="634.5" y="-155" font-family="Helvetica,sans-Serif" font-size="10.00">boost/serialization</text>
<text text-anchor="middle" x="674" y="-144" font-family="Helvetica,sans-Serif" font-size="10.00">/vector.hpp</text>
</g>
<!-- Node6&#45;&gt;Node11 -->
<g id="edge12" class="edge"><title>Node6&#45;&gt;Node11</title>
<path fill="none" stroke="midnightblue" d="M1077.94,-209.137C1000.2,-203.521 860.463,-191.335 731.81,-167.968"/>
<polygon fill="midnightblue" stroke="midnightblue" points="732.247,-164.49 721.778,-166.119 730.978,-171.374 732.247,-164.49"/>
</g>
<!-- Node12 -->
<g id="node12" class="node"><title>Node12</title>
<polygon fill="white" stroke="#bfbfbf" points="469.5,-1 469.5,-31 564.5,-31 564.5,-1 469.5,-1"/>
<text text-anchor="start" x="477.5" y="-19" font-family="Helvetica,sans-Serif" font-size="10.00">boost/serialization</text>
<text text-anchor="middle" x="517" y="-8" font-family="Helvetica,sans-Serif" font-size="10.00">/shared_ptr.hpp</text>
</g>
<!-- Node6&#45;&gt;Node12 -->
<g id="edge13" class="edge"><title>Node6&#45;&gt;Node12</title>
<path fill="none" stroke="midnightblue" d="M1077.88,-211.341C948.664,-207.275 653.205,-195.1 617,-168 578.809,-139.413 605.84,-106.738 578,-68 569.59,-56.2984 557.896,-45.6597 546.994,-37.1628"/>
<polygon fill="midnightblue" stroke="midnightblue" points="548.986,-34.2817 538.88,-31.1006 544.796,-39.8896 548.986,-34.2817"/>
</g>
<!-- Node13 -->
<g id="node13" class="node"><title>Node13</title>
<g id="a_node13"><a xlink:href="../../d8/def/AbsParameter_8hpp.html" target="_top" xlink:title="This class defines the internal container of a parameter. ">
<polygon fill="white" stroke="red" points="376,-74.5 376,-93.5 498,-93.5 498,-74.5 376,-74.5"/>
<text text-anchor="middle" x="437" y="-81.5" font-family="Helvetica,sans-Serif" font-size="10.00">Core/AbsParameter.hpp</text>
</a>
</g>
</g>
<!-- Node6&#45;&gt;Node13 -->
<g id="edge14" class="edge"><title>Node6&#45;&gt;Node13</title>
<path fill="none" stroke="midnightblue" d="M1077.77,-211.371C953.954,-207.492 674.874,-195.864 584,-168 534.658,-152.87 483.643,-119.283 456.603,-99.7892"/>
<polygon fill="midnightblue" stroke="midnightblue" points="458.523,-96.857 448.389,-93.7657 454.383,-102.502 458.523,-96.857"/>
</g>
<!-- Node14 -->
<g id="node14" class="node"><title>Node14</title>
<g id="a_node14"><a xlink:href="../../db/dce/Parameter_8hpp.html" target="_top" xlink:title="This class implements some internal container of parameters. ">
<polygon fill="white" stroke="red" points="1334,-142.5 1334,-161.5 1438,-161.5 1438,-142.5 1334,-142.5"/>
<text text-anchor="middle" x="1386" y="-149.5" font-family="Helvetica,sans-Serif" font-size="10.00">Core/Parameter.hpp</text>
</a>
</g>
</g>
<!-- Node6&#45;&gt;Node14 -->
<g id="edge19" class="edge"><title>Node6&#45;&gt;Node14</title>
<path fill="none" stroke="midnightblue" d="M1173.27,-204.467C1217.34,-193.805 1292.81,-175.545 1341,-163.886"/>
<polygon fill="midnightblue" stroke="midnightblue" points="1341.96,-167.257 1350.85,-161.503 1340.31,-160.453 1341.96,-167.257"/>
</g>
<!-- Node16 -->
<g id="node16" class="node"><title>Node16</title>
<g id="a_node16"><a xlink:href="../../d2/de9/Exceptions_8hpp.html" target="_top" xlink:title="This class defines the ComPWA exception base&#45;class and provides a set of standard exceptions...">
<polygon fill="white" stroke="red" points="1508,-74.5 1508,-93.5 1616,-93.5 1616,-74.5 1508,-74.5"/>
<text text-anchor="middle" x="1562" y="-81.5" font-family="Helvetica,sans-Serif" font-size="10.00">Core/Exceptions.hpp</text>
</a>
</g>
</g>
<!-- Node6&#45;&gt;Node16 -->
<g id="edge29" class="edge"><title>Node6&#45;&gt;Node16</title>
<path fill="none" stroke="midnightblue" d="M1198.37,-210.156C1305.23,-204.566 1518.85,-190.678 1544,-168 1561.77,-151.979 1564.24,-122.927 1563.67,-103.796"/>
<polygon fill="midnightblue" stroke="midnightblue" points="1567.16,-103.382 1563.06,-93.612 1560.17,-103.805 1567.16,-103.382"/>
</g>
<!-- Node17 -->
<g id="node17" class="node"><title>Node17</title>
<g id="a_node17"><a xlink:href="../../da/db4/Logging_8hpp.html" target="_top" xlink:title="Core/Logging.hpp">
<polygon fill="white" stroke="red" points="1210.5,-74.5 1210.5,-93.5 1303.5,-93.5 1303.5,-74.5 1210.5,-74.5"/>
<text text-anchor="middle" x="1257" y="-81.5" font-family="Helvetica,sans-Serif" font-size="10.00">Core/Logging.hpp</text>
</a>
</g>
</g>
<!-- Node6&#45;&gt;Node17 -->
<g id="edge30" class="edge"><title>Node6&#45;&gt;Node17</title>
<path fill="none" stroke="midnightblue" d="M1164.11,-204.354C1182.4,-197.142 1206.29,-185.242 1222,-168 1238.83,-149.535 1248.28,-121.794 1253.01,-103.545"/>
<polygon fill="midnightblue" stroke="midnightblue" points="1256.42,-104.345 1255.32,-93.8076 1249.61,-102.73 1256.42,-104.345"/>
</g>
<!-- Node18 -->
<g id="node18" class="node"><title>Node18</title>
<polygon fill="white" stroke="#bfbfbf" points="740,-142.5 740,-161.5 834,-161.5 834,-142.5 740,-142.5"/>
<text text-anchor="middle" x="787" y="-149.5" font-family="Helvetica,sans-Serif" font-size="10.00">boost/version.hpp</text>
</g>
<!-- Node6&#45;&gt;Node18 -->
<g id="edge31" class="edge"><title>Node6&#45;&gt;Node18</title>
<path fill="none" stroke="midnightblue" d="M1077.76,-205.79C1017.9,-198.161 923.623,-184.893 843,-168 837.582,-166.865 831.907,-165.525 826.336,-164.121"/>
<polygon fill="midnightblue" stroke="midnightblue" points="827.057,-160.692 816.498,-161.554 825.29,-167.465 827.057,-160.692"/>
</g>
<!-- Node19 -->
<g id="node19" class="node"><title>Node19</title>
<polygon fill="white" stroke="#bfbfbf" points="852.5,-137 852.5,-167 947.5,-167 947.5,-137 852.5,-137"/>
<text text-anchor="start" x="860.5" y="-155" font-family="Helvetica,sans-Serif" font-size="10.00">boost/serialization</text>
<text text-anchor="middle" x="900" y="-144" font-family="Helvetica,sans-Serif" font-size="10.00">/split_free.hpp</text>
</g>
<!-- Node6&#45;&gt;Node19 -->
<g id="edge32" class="edge"><title>Node6&#45;&gt;Node19</title>
<path fill="none" stroke="midnightblue" d="M1102.72,-204.49C1068.02,-196.075 1013.3,-182.676 957.36,-168.328"/>
<polygon fill="midnightblue" stroke="midnightblue" points="958.199,-164.929 947.642,-165.828 956.456,-171.709 958.199,-164.929"/>
</g>
<!-- Node20 -->
<g id="node20" class="node"><title>Node20</title>
<polygon fill="white" stroke="#bfbfbf" points="965.5,-142.5 965.5,-161.5 1094.5,-161.5 1094.5,-142.5 965.5,-142.5"/>
<text text-anchor="middle" x="1030" y="-149.5" font-family="Helvetica,sans-Serif" font-size="10.00">boost/unordered_map.hpp</text>
</g>
<!-- Node6&#45;&gt;Node20 -->
<g id="edge33" class="edge"><title>Node6&#45;&gt;Node20</title>
<path fill="none" stroke="midnightblue" d="M1122.53,-204.403C1104.72,-194.512 1075.26,-178.144 1054.37,-166.538"/>
<polygon fill="midnightblue" stroke="midnightblue" points="1055.89,-163.378 1045.45,-161.581 1052.49,-169.497 1055.89,-163.378"/>
</g>
<!-- Node21 -->
<g id="node21" class="node"><title>Node21</title>
<polygon fill="white" stroke="#bfbfbf" points="1112.5,-142.5 1112.5,-161.5 1163.5,-161.5 1163.5,-142.5 1112.5,-142.5"/>
<text text-anchor="middle" x="1138" y="-149.5" font-family="Helvetica,sans-Serif" font-size="10.00">typeinfo</text>
</g>
<!-- Node6&#45;&gt;Node21 -->
<g id="edge34" class="edge"><title>Node6&#45;&gt;Node21</title>
<path fill="none" stroke="midnightblue" d="M1138,-204.403C1138,-195.938 1138,-182.728 1138,-171.82"/>
<polygon fill="midnightblue" stroke="midnightblue" points="1141.5,-171.581 1138,-161.581 1134.5,-171.581 1141.5,-171.581"/>
</g>
<!-- Node13&#45;&gt;Node2 -->
<g id="edge16" class="edge"><title>Node13&#45;&gt;Node2</title>
<path fill="none" stroke="midnightblue" d="M421.835,-74.3717C402.296,-63.2545 368.102,-43.7997 345.013,-30.6624"/>
<polygon fill="midnightblue" stroke="midnightblue" points="346.591,-27.5337 336.169,-25.6305 343.129,-33.6178 346.591,-27.5337"/>
</g>
<!-- Node13&#45;&gt;Node3 -->
<g id="edge17" class="edge"><title>Node13&#45;&gt;Node3</title>
<path fill="none" stroke="midnightblue" d="M470.976,-74.4686C482.355,-71.9467 495.159,-69.4698 507,-68 949.226,-13.1043 1063.67,-48.2061 1509,-32 1645.77,-27.0226 1808.4,-20.9966 1879.59,-18.3533"/>
<polygon fill="midnightblue" stroke="midnightblue" points="1879.95,-21.8424 1889.81,-17.9736 1879.69,-14.8472 1879.95,-21.8424"/>
</g>
<!-- Node13&#45;&gt;Node8 -->
<g id="edge15" class="edge"><title>Node13&#45;&gt;Node8</title>
<path fill="none" stroke="midnightblue" d="M471.704,-74.4255C482.904,-71.9646 495.418,-69.5346 507,-68 875.319,-19.1986 1327.87,-16.5958 1448.99,-16.8409"/>
<polygon fill="midnightblue" stroke="midnightblue" points="1449.34,-20.3418 1459.35,-16.8708 1449.36,-13.3418 1449.34,-20.3418"/>
</g>
<!-- Node13&#45;&gt;Node12 -->
<g id="edge18" class="edge"><title>Node13&#45;&gt;Node12</title>
<path fill="none" stroke="midnightblue" d="M447.459,-74.3717C458.68,-65.1143 476.908,-50.0756 491.888,-37.7175"/>
<polygon fill="midnightblue" stroke="midnightblue" points="494.324,-40.2451 499.81,-31.1815 489.869,-34.8455 494.324,-40.2451"/>
</g>
<!-- Node14&#45;&gt;Node4 -->
<g id="edge24" class="edge"><title>Node14&#45;&gt;Node4</title>
<path fill="none" stroke="midnightblue" d="M1418.5,-142.497C1427.68,-140.234 1437.7,-137.895 1447,-136 1534.53,-118.16 1636.8,-102.504 1700.24,-93.3943"/>
<polygon fill="midnightblue" stroke="midnightblue" points="1701.06,-96.8128 1710.47,-91.9345 1700.08,-89.883 1701.06,-96.8128"/>
</g>
<!-- Node14&#45;&gt;Node7 -->
<g id="edge20" class="edge"><title>Node14&#45;&gt;Node7</title>
<path fill="none" stroke="midnightblue" d="M1386.13,-142.372C1386.28,-132.643 1386.52,-116.528 1386.71,-103.85"/>
<polygon fill="midnightblue" stroke="midnightblue" points="1390.21,-103.893 1386.87,-93.8411 1383.21,-103.787 1390.21,-103.893"/>
</g>
<!-- Node14&#45;&gt;Node8 -->
<g id="edge21" class="edge"><title>Node14&#45;&gt;Node8</title>
<path fill="none" stroke="midnightblue" d="M1377.13,-142.442C1361.95,-126.746 1334.2,-92.7003 1351,-68 1372.8,-35.934 1418.21,-24.0294 1448.91,-19.6097"/>
<polygon fill="midnightblue" stroke="midnightblue" points="1449.6,-23.0506 1459.09,-18.3378 1448.73,-16.1046 1449.6,-23.0506"/>
</g>
<!-- Node14&#45;&gt;Node9 -->
<g id="edge22" class="edge"><title>Node14&#45;&gt;Node9</title>
<path fill="none" stroke="midnightblue" d="M1349.39,-142.469C1311.74,-133.333 1251.62,-117.733 1201,-100 1198.74,-99.207 1196.41,-98.3376 1194.09,-97.4292"/>
<polygon fill="midnightblue" stroke="midnightblue" points="1195.29,-94.1374 1184.71,-93.5723 1192.62,-100.612 1195.29,-94.1374"/>
</g>
<!-- Node14&#45;&gt;Node13 -->
<g id="edge25" class="edge"><title>Node14&#45;&gt;Node13</title>
<path fill="none" stroke="midnightblue" d="M1333.69,-147.1C1290.37,-143.927 1227.2,-139.429 1172,-136 876.581,-117.651 800.39,-139.13 507,-100 498.767,-98.902 490.062,-97.355 481.693,-95.6684"/>
<polygon fill="midnightblue" stroke="midnightblue" points="482.212,-92.2009 471.705,-93.5625 480.768,-99.0504 482.212,-92.2009"/>
</g>
<!-- Node15 -->
<g id="node15" class="node"><title>Node15</title>
<polygon fill="white" stroke="#bfbfbf" points="516.5,-74.5 516.5,-93.5 569.5,-93.5 569.5,-74.5 516.5,-74.5"/>
<text text-anchor="middle" x="543" y="-81.5" font-family="Helvetica,sans-Serif" font-size="10.00">complex</text>
</g>
<!-- Node14&#45;&gt;Node15 -->
<g id="edge23" class="edge"><title>Node14&#45;&gt;Node15</title>
<path fill="none" stroke="midnightblue" d="M1333.9,-146.921C1177.5,-134.676 714.545,-98.4305 580.037,-87.8997"/>
<polygon fill="midnightblue" stroke="midnightblue" points="580.087,-84.393 569.845,-87.1017 579.541,-91.3717 580.087,-84.393"/>
</g>
<!-- Node14&#45;&gt;Node16 -->
<g id="edge26" class="edge"><title>Node14&#45;&gt;Node16</title>
<path fill="none" stroke="midnightblue" d="M1409.01,-142.372C1439.79,-130.827 1494.55,-110.293 1529.53,-97.1772"/>
<polygon fill="midnightblue" stroke="midnightblue" points="1531.13,-100.314 1539.26,-93.5259 1528.67,-93.76 1531.13,-100.314"/>
</g>
<!-- Node14&#45;&gt;Node17 -->
<g id="edge28" class="edge"><title>Node14&#45;&gt;Node17</title>
<path fill="none" stroke="midnightblue" d="M1369.14,-142.372C1347.21,-131.156 1308.7,-111.453 1283.02,-98.3136"/>
<polygon fill="midnightblue" stroke="midnightblue" points="1284.37,-95.0694 1273.87,-93.6305 1281.18,-101.301 1284.37,-95.0694"/>
</g>
<!-- Node16&#45;&gt;Node8 -->
<g id="edge27" class="edge"><title>Node16&#45;&gt;Node8</title>
<path fill="none" stroke="midnightblue" d="M1551.28,-74.3717C1537.9,-63.6004 1514.79,-45.0021 1498.52,-31.9065"/>
<polygon fill="midnightblue" stroke="midnightblue" points="1500.71,-29.174 1490.72,-25.6305 1496.32,-34.6271 1500.71,-29.174"/>
</g>
<!-- Node22&#45;&gt;Node2 -->
<g id="edge36" class="edge"><title>Node22&#45;&gt;Node2</title>
<path fill="none" stroke="midnightblue" d="M347.237,-260.475C344.445,-251.499 340.232,-236.907 338,-224 326.133,-155.389 322.496,-72.5077 321.425,-35.922"/>
<polygon fill="midnightblue" stroke="midnightblue" points="324.92,-35.6526 321.161,-25.747 317.922,-35.8347 324.92,-35.6526"/>
</g>
<!-- Node22&#45;&gt;Node6 -->
<g id="edge40" class="edge"><title>Node22&#45;&gt;Node6</title>
<path fill="none" stroke="midnightblue" d="M401.096,-265.499C537.671,-256.139 911.403,-230.528 1067.76,-219.813"/>
<polygon fill="midnightblue" stroke="midnightblue" points="1068,-223.305 1077.74,-219.129 1067.53,-216.321 1068,-223.305"/>
</g>
<!-- Node22&#45;&gt;Node13 -->
<g id="edge42" class="edge"><title>Node22&#45;&gt;Node13</title>
<path fill="none" stroke="midnightblue" d="M347.857,-260.471C342.761,-238.196 332.054,-177.155 356,-136 366.295,-118.306 385.438,-105.832 402.53,-97.6505"/>
<polygon fill="midnightblue" stroke="midnightblue" points="404.038,-100.811 411.745,-93.5412 401.187,-94.4174 404.038,-100.811"/>
</g>
<!-- Node22&#45;&gt;Node14 -->
<g id="edge41" class="edge"><title>Node22&#45;&gt;Node14</title>
<path fill="none" stroke="midnightblue" d="M401.231,-268.468C561.385,-266.466 1051.13,-257.676 1206,-224 1263.36,-211.526 1326.29,-182.999 1360.45,-166.147"/>
<polygon fill="midnightblue" stroke="midnightblue" points="1362.31,-169.127 1369.69,-161.524 1359.18,-162.867 1362.31,-169.127"/>
</g>
<!-- Node22&#45;&gt;Node15 -->
<g id="edge37" class="edge"><title>Node22&#45;&gt;Node15</title>
<path fill="none" stroke="midnightblue" d="M359.05,-260.372C389.246,-231.584 486.85,-138.531 526.263,-100.956"/>
<polygon fill="midnightblue" stroke="midnightblue" points="528.922,-103.257 533.745,-93.8234 524.092,-98.1904 528.922,-103.257"/>
</g>
<!-- Node22&#45;&gt;Node16 -->
<g id="edge39" class="edge"><title>Node22&#45;&gt;Node16</title>
<path fill="none" stroke="midnightblue" d="M401.158,-268.73C539.223,-267.511 930.812,-260.804 1254,-224 1394.41,-208.01 1476.3,-276.371 1567,-168 1582.02,-150.056 1576.01,-121.561 1569.59,-103.069"/>
<polygon fill="midnightblue" stroke="midnightblue" points="1572.85,-101.811 1566.01,-93.7241 1566.32,-104.314 1572.85,-101.811"/>
</g>
<!-- Node23 -->
<g id="node23" class="node"><title>Node23</title>
<polygon fill="white" stroke="#bfbfbf" points="180.5,-142.5 180.5,-161.5 227.5,-161.5 227.5,-142.5 180.5,-142.5"/>
<text text-anchor="middle" x="204" y="-149.5" font-family="Helvetica,sans-Serif" font-size="10.00">math.h</text>
</g>
<!-- Node22&#45;&gt;Node23 -->
<g id="edge38" class="edge"><title>Node22&#45;&gt;Node23</title>
<path fill="none" stroke="midnightblue" d="M334.999,-260.429C320.456,-251.876 298.014,-238.02 280,-224 257.878,-206.783 234.637,-184.336 219.769,-169.335"/>
<polygon fill="midnightblue" stroke="midnightblue" points="221.931,-166.54 212.432,-161.847 216.931,-171.439 221.931,-166.54"/>
</g>
<!-- Node22&#45;&gt;Node24 -->
<g id="edge43" class="edge"><title>Node22&#45;&gt;Node24</title>
<path fill="none" stroke="midnightblue" d="M322.429,-260.444C292.903,-251.28 245.882,-236.688 213.117,-226.519"/>
<polygon fill="midnightblue" stroke="midnightblue" points="214.03,-223.138 203.442,-223.516 211.955,-229.823 214.03,-223.138"/>
</g>
<!-- Node24&#45;&gt;Node2 -->
<g id="edge45" class="edge"><title>Node24&#45;&gt;Node2</title>
<path fill="none" stroke="midnightblue" d="M172.396,-204.277C162.879,-179.694 139.991,-108.984 173,-68 201.117,-33.0894 254.439,-21.9933 288.816,-18.5166"/>
<polygon fill="midnightblue" stroke="midnightblue" points="289.16,-22 298.827,-17.6642 288.566,-15.0252 289.16,-22"/>
</g>
<!-- Node24&#45;&gt;Node10 -->
<g id="edge46" class="edge"><title>Node24&#45;&gt;Node10</title>
<path fill="none" stroke="midnightblue" d="M173.654,-204.28C170.156,-189.821 164.63,-160.089 171,-136 174.203,-123.888 181.023,-111.642 187.244,-102.186"/>
<polygon fill="midnightblue" stroke="midnightblue" points="190.264,-103.974 193.11,-93.7688 184.521,-99.9717 190.264,-103.974"/>
</g>
<!-- Node24&#45;&gt;Node23 -->
<g id="edge44" class="edge"><title>Node24&#45;&gt;Node23</title>
<path fill="none" stroke="midnightblue" d="M180.012,-204.403C184.087,-195.671 190.518,-181.889 195.696,-170.794"/>
<polygon fill="midnightblue" stroke="midnightblue" points="198.938,-172.123 199.996,-161.581 192.595,-169.162 198.938,-172.123"/>
</g>
<!-- Node25&#45;&gt;Node2 -->
<g id="edge49" class="edge"><title>Node25&#45;&gt;Node2</title>
<path fill="none" stroke="midnightblue" d="M1270.01,-378.468C1258.95,-375.946 1246.51,-373.469 1235,-372 1019.05,-344.44 467.204,-388.796 256,-336 200.848,-322.213 183.738,-317.487 141,-280 70.0115,-217.733 86.2345,-132.714 155,-68 191.869,-33.3039 251.795,-22.1818 288.665,-18.6357"/>
<polygon fill="midnightblue" stroke="midnightblue" points="289.188,-22.1045 298.866,-17.7917 288.611,-15.1283 289.188,-22.1045"/>
</g>
<!-- Node25&#45;&gt;Node3 -->
<g id="edge50" class="edge"><title>Node25&#45;&gt;Node3</title>
<path fill="none" stroke="midnightblue" d="M1361.06,-382.749C1520.61,-370.294 1954,-330.948 1954,-271 1954,-271 1954,-271 1954,-151 1954,-108.048 1935.71,-60.1895 1924.5,-34.9112"/>
<polygon fill="midnightblue" stroke="midnightblue" points="1927.56,-33.1743 1920.21,-25.5403 1921.19,-36.0895 1927.56,-33.1743"/>
</g>
<!-- Node25&#45;&gt;Node8 -->
<g id="edge51" class="edge"><title>Node25&#45;&gt;Node8</title>
<path fill="none" stroke="midnightblue" d="M1359.99,-378.468C1486.71,-358.21 1785.35,-302.932 1844,-224 1885.4,-168.294 1885.1,-118.031 1837,-68 1792.45,-21.662 1589.68,-16.848 1511.17,-16.7573"/>
<polygon fill="midnightblue" stroke="midnightblue" points="1510.94,-13.2575 1500.95,-16.772 1510.95,-20.2575 1510.94,-13.2575"/>
</g>
<!-- Node25&#45;&gt;Node10 -->
<g id="edge52" class="edge"><title>Node25&#45;&gt;Node10</title>
<path fill="none" stroke="midnightblue" d="M1269.66,-378.426C1258.69,-375.934 1246.39,-373.485 1235,-372 859.177,-322.992 752.949,-418.355 383,-336 256.99,-307.949 186.552,-331.451 115,-224 85.4966,-179.694 145.299,-125.416 179.054,-99.7677"/>
<polygon fill="midnightblue" stroke="midnightblue" points="181.433,-102.362 187.397,-93.6052 177.274,-96.7315 181.433,-102.362"/>
</g>
<!-- Node25&#45;&gt;Node13 -->
<g id="edge62" class="edge"><title>Node25&#45;&gt;Node13</title>
<path fill="none" stroke="midnightblue" d="M1264.9,-378.487C1255.16,-376.34 1244.7,-374.061 1235,-372 960.427,-313.652 880.69,-330.566 621,-224 568.037,-202.266 549.976,-203.42 505,-168 481.072,-149.156 459.971,-120.527 447.846,-102.297"/>
<polygon fill="midnightblue" stroke="midnightblue" points="450.73,-100.311 442.356,-93.8197 444.854,-104.116 450.73,-100.311"/>
</g>
<!-- Node25&#45;&gt;Node14 -->
<g id="edge63" class="edge"><title>Node25&#45;&gt;Node14</title>
<path fill="none" stroke="midnightblue" d="M1315.5,-378.428C1327.66,-369.371 1345.63,-353.932 1355,-336 1383.56,-281.345 1386.74,-206.142 1386.53,-171.653"/>
<polygon fill="midnightblue" stroke="midnightblue" points="1390.03,-171.545 1386.36,-161.606 1383.03,-171.664 1390.03,-171.545"/>
</g>
<!-- Node25&#45;&gt;Node22 -->
<g id="edge53" class="edge"><title>Node25&#45;&gt;Node22</title>
<path fill="none" stroke="midnightblue" d="M1269.65,-378.437C1258.69,-375.945 1246.39,-373.494 1235,-372 1144.58,-360.133 498.471,-372.74 415,-336 392.045,-325.896 372.777,-303.702 361.321,-288.069"/>
<polygon fill="midnightblue" stroke="midnightblue" points="364.111,-285.95 355.51,-279.764 358.375,-289.964 364.111,-285.95"/>
</g>
<!-- Node26 -->
<g id="node26" class="node"><title>Node26</title>
<g id="a_node26"><a xlink:href="../../df/d5a/TreeNode_8hpp.html" target="_top" xlink:title="This class acts as a container for a parameter in a function tree. ">
<polygon fill="white" stroke="red" points="1245,-316.5 1245,-335.5 1347,-335.5 1347,-316.5 1245,-316.5"/>
<text text-anchor="middle" x="1296" y="-323.5" font-family="Helvetica,sans-Serif" font-size="10.00">Core/TreeNode.hpp</text>
</a>
</g>
</g>
<!-- Node25&#45;&gt;Node26 -->
<g id="edge54" class="edge"><title>Node25&#45;&gt;Node26</title>
<path fill="none" stroke="midnightblue" d="M1302,-378.403C1301.01,-369.938 1299.47,-356.728 1298.2,-345.82"/>
<polygon fill="midnightblue" stroke="midnightblue" points="1301.64,-345.108 1297,-335.581 1294.68,-345.919 1301.64,-345.108"/>
</g>
<!-- Node26&#45;&gt;Node3 -->
<g id="edge57" class="edge"><title>Node26&#45;&gt;Node3</title>
<path fill="none" stroke="midnightblue" d="M1347.16,-323.903C1416.23,-321.193 1542.47,-311.875 1645,-280 1697.01,-263.831 1706.62,-250.854 1754,-224 1794.99,-200.772 1812.6,-203.12 1844,-168 1880.03,-127.7 1901.73,-66.1726 1910.89,-35.5937"/>
<polygon fill="midnightblue" stroke="midnightblue" points="1914.3,-36.4025 1913.7,-25.8246 1907.57,-34.4672 1914.3,-36.4025"/>
</g>
<!-- Node26&#45;&gt;Node6 -->
<g id="edge59" class="edge"><title>Node26&#45;&gt;Node6</title>
<path fill="none" stroke="midnightblue" d="M1283.6,-316.368C1256.6,-297.573 1192.25,-252.768 1158.88,-229.533"/>
<polygon fill="midnightblue" stroke="midnightblue" points="1160.55,-226.433 1150.34,-223.591 1156.55,-232.178 1160.55,-226.433"/>
</g>
<!-- Node26&#45;&gt;Node8 -->
<g id="edge55" class="edge"><title>Node26&#45;&gt;Node8</title>
<path fill="none" stroke="midnightblue" d="M1347.01,-323.961C1432.21,-319.976 1605.93,-302.053 1726,-224 1783.98,-186.307 1797.96,-165.551 1820,-100 1824.53,-86.5192 1829.28,-78.7767 1820,-68 1780.18,-21.7666 1587.12,-16.8515 1510.97,-16.7469"/>
<polygon fill="midnightblue" stroke="midnightblue" points="1510.61,-13.2473 1500.61,-16.762 1510.62,-20.2473 1510.61,-13.2473"/>
</g>
<!-- Node26&#45;&gt;Node13 -->
<g id="edge60" class="edge"><title>Node26&#45;&gt;Node13</title>
<path fill="none" stroke="midnightblue" d="M1244.99,-323.867C1135.72,-319.936 872.458,-302.381 669,-224 584.224,-191.34 495.067,-128.646 456.58,-99.9745"/>
<polygon fill="midnightblue" stroke="midnightblue" points="458.424,-96.9823 448.329,-93.768 454.216,-102.576 458.424,-96.9823"/>
</g>
<!-- Node26&#45;&gt;Node14 -->
<g id="edge61" class="edge"><title>Node26&#45;&gt;Node14</title>
<path fill="none" stroke="midnightblue" d="M1300.59,-316.234C1314.73,-289.202 1357.86,-206.773 1376.86,-170.475"/>
<polygon fill="midnightblue" stroke="midnightblue" points="1379.99,-172.027 1381.53,-161.544 1373.79,-168.782 1379.99,-172.027"/>
</g>
<!-- Node26&#45;&gt;Node15 -->
<g id="edge56" class="edge"><title>Node26&#45;&gt;Node15</title>
<path fill="none" stroke="midnightblue" d="M1244.75,-318.911C1101.06,-301.026 697.984,-245.024 592,-168 569.832,-151.889 555.973,-122.424 548.865,-103.284"/>
<polygon fill="midnightblue" stroke="midnightblue" points="552.101,-101.931 545.524,-93.6243 545.486,-104.219 552.101,-101.931"/>
</g>
<!-- Node26&#45;&gt;Node22 -->
<g id="edge58" class="edge"><title>Node26&#45;&gt;Node22</title>
<path fill="none" stroke="midnightblue" d="M1244.64,-322.864C1112.99,-317.258 752.712,-301.088 453,-280 439.516,-279.051 425.052,-277.882 411.352,-276.704"/>
<polygon fill="midnightblue" stroke="midnightblue" points="411.32,-273.188 401.053,-275.805 410.711,-280.161 411.32,-273.188"/>
</g>
<!-- Node27&#45;&gt;Node2 -->
<g id="edge67" class="edge"><title>Node27&#45;&gt;Node2</title>
<path fill="none" stroke="midnightblue" d="M1491.6,-142.391C1481.97,-124.626 1457.15,-84.2183 1423,-68 1326.28,-22.0645 566.794,-39.7488 460,-32 423.293,-29.3366 381.305,-24.566 353.17,-21.1187"/>
<polygon fill="midnightblue" stroke="midnightblue" points="353.46,-17.6279 343.105,-19.8695 352.597,-24.5746 353.46,-17.6279"/>
</g>
<!-- Node27&#45;&gt;Node7 -->
<g id="edge68" class="edge"><title>Node27&#45;&gt;Node7</title>
<path fill="none" stroke="midnightblue" d="M1481.75,-142.372C1463.47,-131.304 1431.55,-111.972 1409.85,-98.838"/>
<polygon fill="midnightblue" stroke="midnightblue" points="1411.62,-95.8161 1401.25,-93.6305 1407.99,-101.804 1411.62,-95.8161"/>
</g>
<!-- Node27&#45;&gt;Node8 -->
<g id="edge65" class="edge"><title>Node27&#45;&gt;Node8</title>
<path fill="none" stroke="midnightblue" d="M1494.95,-142.208C1492.38,-120.722 1485.75,-65.1671 1482.25,-35.8137"/>
<polygon fill="midnightblue" stroke="midnightblue" points="1485.69,-35.1648 1481.03,-25.6503 1478.74,-35.9947 1485.69,-35.1648"/>
</g>
<!-- Node27&#45;&gt;Node10 -->
<g id="edge66" class="edge"><title>Node27&#45;&gt;Node10</title>
<path fill="none" stroke="midnightblue" d="M1472.38,-142.392C1464.42,-139.865 1455.42,-137.404 1447,-136 1210.14,-96.5119 606.68,-114.747 367,-100 317.925,-96.9805 260.909,-91.4156 227.795,-87.9787"/>
<polygon fill="midnightblue" stroke="midnightblue" points="227.838,-84.464 217.527,-86.9014 227.107,-91.4258 227.838,-84.464"/>
</g>
<!-- Node27&#45;&gt;Node16 -->
<g id="edge69" class="edge"><title>Node27&#45;&gt;Node16</title>
<path fill="none" stroke="midnightblue" d="M1504.63,-142.372C1515.05,-131.955 1532.78,-114.217 1545.78,-101.216"/>
<polygon fill="midnightblue" stroke="midnightblue" points="1548.56,-103.387 1553.16,-93.8411 1543.61,-98.4373 1548.56,-103.387"/>
</g>
<!-- Node28&#45;&gt;Node2 -->
<g id="edge71" class="edge"><title>Node28&#45;&gt;Node2</title>
<path fill="none" stroke="midnightblue" d="M1668.38,-204.221C1673.45,-189.676 1681.69,-159.824 1674,-136 1662.56,-100.55 1657.89,-85.4866 1625,-68 1567.82,-37.6033 524.598,-36.477 460,-32 423.285,-29.4554 381.298,-24.6629 353.166,-21.178"/>
<polygon fill="midnightblue" stroke="midnightblue" points="353.46,-17.6875 343.102,-19.9138 352.587,-24.6329 353.46,-17.6875"/>
</g>
<!-- Node28&#45;&gt;Node4 -->
<g id="edge72" class="edge"><title>Node28&#45;&gt;Node4</title>
<path fill="none" stroke="midnightblue" d="M1682.99,-204.446C1697.48,-196.735 1717.44,-184.139 1730,-168 1743.46,-150.71 1751.54,-126.965 1756.06,-109.301"/>
<polygon fill="midnightblue" stroke="midnightblue" points="1759.55,-109.736 1758.43,-99.2006 1752.73,-108.136 1759.55,-109.736"/>
</g>
<!-- Node28&#45;&gt;Node14 -->
<g id="edge74" class="edge"><title>Node28&#45;&gt;Node14</title>
<path fill="none" stroke="midnightblue" d="M1621.05,-204.432C1576.95,-195.716 1507.12,-181.592 1447,-168 1441.34,-166.721 1435.41,-165.327 1429.55,-163.919"/>
<polygon fill="midnightblue" stroke="midnightblue" points="1430.37,-160.517 1419.83,-161.557 1428.72,-167.32 1430.37,-160.517"/>
</g>
<!-- Node28&#45;&gt;Node16 -->
<g id="edge73" class="edge"><title>Node28&#45;&gt;Node16</title>
<path fill="none" stroke="midnightblue" d="M1666.09,-204.498C1667.56,-189.309 1668.56,-157.128 1654,-136 1641.41,-117.731 1620.06,-105.317 1601.09,-97.3141"/>
<polygon fill="midnightblue" stroke="midnightblue" points="1602.32,-94.037 1591.73,-93.6288 1599.75,-100.55 1602.32,-94.037"/>
</g>
<!-- Node28&#45;&gt;Node27 -->
<g id="edge75" class="edge"><title>Node28&#45;&gt;Node27</title>
<path fill="none" stroke="midnightblue" d="M1640.79,-204.403C1611.67,-194.067 1562.63,-176.656 1529.8,-164.999"/>
<polygon fill="midnightblue" stroke="midnightblue" points="1530.76,-161.628 1520.17,-161.581 1528.42,-168.225 1530.76,-161.628"/>
</g>
</g>
</svg>
        <g id="navigator" transform="translate(0 0)" fill="#404254">
                <rect fill="#f2f5e9" fill-opacity="0.5" stroke="#606060" stroke-width=".5" x="0" y="0" width="60" height="60"/>
                <use id="zoomplus" xlink:href="#zoomPlus" x="17" y="9" onmousedown="handleZoom(evt,'in')"/>
                <use id="zoomminus" xlink:href="#zoomMin" x="42" y="9" onmousedown="handleZoom(evt,'out')"/>
                <use id="reset" xlink:href="#resetDef" x="30" y="36" onmousedown="handleReset()"/>
                <g id="arrowUp" xlink:href="#dirArrow" transform="translate(30 24)" onmousedown="handlePan(0,-1)">
                  <use xlink:href="#rim" fill="#404040">
                        <set attributeName="fill" to="#808080" begin="arrowUp.mouseover" end="arrowUp.mouseout"/>
                  </use>
                  <path fill="none" stroke="white" stroke-width="1.5" d="M0,-3.0v7 M-2.5,-0.5L0,-3.0L2.5,-0.5"/>
                </g>
                <g id="arrowRight" xlink:href="#dirArrow" transform="rotate(90) translate(36 -43)" onmousedown="handlePan(1,0)">
                  <use xlink:href="#rim" fill="#404040">
                        <set attributeName="fill" to="#808080" begin="arrowRight.mouseover" end="arrowRight.mouseout"/>
                  </use>
                  <path fill="none" stroke="white" stroke-width="1.5" d="M0,-3.0v7 M-2.5,-0.5L0,-3.0L2.5,-0.5"/>
                </g>
                <g id="arrowDown" xlink:href="#dirArrow" transform="rotate(180) translate(-30 -48)" onmousedown="handlePan(0,1)">
                  <use xlink:href="#rim" fill="#404040">
                        <set attributeName="fill" to="#808080" begin="arrowDown.mouseover" end="arrowDown.mouseout"/>
                  </use>
                  <path fill="none" stroke="white" stroke-width="1.5" d="M0,-3.0v7 M-2.5,-0.5L0,-3.0L2.5,-0.5"/>
                </g>
                <g id="arrowLeft" xlink:href="#dirArrow" transform="rotate(270) translate(-36 17)" onmousedown="handlePan(-1,0)">
                  <use xlink:href="#rim" fill="#404040">
                        <set attributeName="fill" to="#808080" begin="arrowLeft.mouseover" end="arrowLeft.mouseout"/>
                  </use>
                  <path fill="none" stroke="white" stroke-width="1.5" d="M0,-3.0v7 M-2.5,-0.5L0,-3.0L2.5,-0.5"/>
                </g>
        </g>
        <svg viewBox="0 0 15 15" width="100%" height="30px" preserveAspectRatio="xMaxYMin meet">
         <g id="arrow_out" transform="scale(0.3 0.3)">
          <a xlink:href="AmpWignerD_8hpp__incl_org.svg" target="_base">
           <rect id="button" ry="5" rx="5" y="6" x="6" height="38" width="38"
                fill="#f2f5e9" fill-opacity="0.5" stroke="#606060" stroke-width="1.0"/>
           <path id="arrow"
             d="M 11.500037,31.436501 C 11.940474,20.09759 22.043105,11.32322 32.158766,21.979434 L 37.068811,17.246167 C 37.068811,17.246167 37.088388,32 37.088388,32 L 22.160133,31.978069 C 22.160133,31.978069 26.997745,27.140456 26.997745,27.140456 C 18.528582,18.264221 13.291696,25.230495 11.500037,31.436501 z"
             style="fill:#404040;"/>
          </a>
         </g>
        </svg>
</svg>
