<?xml version="1.0" encoding="UTF-8" standalone="no"?>
<!DOCTYPE svg PUBLIC "-//W3C//DTD SVG 1.1//EN"
 "http://www.w3.org/Graphics/SVG/1.1/DTD/svg11.dtd">
<!-- Generated by graphviz version 2.36.0 (20140111.2315)
 -->
<!-- Title: /home/travis/build/ComPWA/ComPWA/Physics/DynamicalDecayFunctions/TwoBodyDecay/TopNodeConstantValue.hpp Pages: 1 -->
<svg width="395pt" height="152pt"
 viewBox="0.00 0.00 395.00 152.00" xmlns="http://www.w3.org/2000/svg" xmlns:xlink="http://www.w3.org/1999/xlink">
<g id="graph0" class="graph" transform="scale(1 1) rotate(0) translate(4 148)">
<title>/home/travis/build/ComPWA/ComPWA/Physics/DynamicalDecayFunctions/TwoBodyDecay/TopNodeConstantValue.hpp</title>
<polygon fill="white" stroke="none" points="-4,4 -4,-148 391,-148 391,4 -4,4"/>
<!-- Node1 -->
<g id="node1" class="node"><title>Node1</title>
<polygon fill="#bfbfbf" stroke="black" points="70.5,-91 70.5,-143 285.5,-143 285.5,-91 70.5,-91"/>
<text text-anchor="start" x="78.5" y="-131" font-family="Helvetica,sans-Serif" font-size="10.00">/home/travis/build</text>
<text text-anchor="start" x="78.5" y="-120" font-family="Helvetica,sans-Serif" font-size="10.00">/ComPWA/ComPWA/Physics</text>
<text text-anchor="start" x="78.5" y="-109" font-family="Helvetica,sans-Serif" font-size="10.00">/DynamicalDecayFunctions</text>
<text text-anchor="middle" x="178" y="-98" font-family="Helvetica,sans-Serif" font-size="10.00">/TwoBodyDecay/TopNodeConstantValue.hpp</text>
</g>
<!-- Node2 -->
<g id="node2" class="node"><title>Node2</title>
<g id="a_node2"><a xlink:href="../../de/d0e/DynamicalFunctionFactory_8cpp.html" target="_top" xlink:title="/home/travis/build\l/ComPWA/ComPWA/Physics\l/DynamicalDecayFunctions\l/DynamicalFunctionFactory.cpp">
<polygon fill="white" stroke="black" points="-0.5,-1 -0.5,-53 154.5,-53 154.5,-1 -0.5,-1"/>
<text text-anchor="start" x="7.5" y="-41" font-family="Helvetica,sans-Serif" font-size="10.00">/home/travis/build</text>
<text text-anchor="start" x="7.5" y="-30" font-family="Helvetica,sans-Serif" font-size="10.00">/ComPWA/ComPWA/Physics</text>
<text text-anchor="start" x="7.5" y="-19" font-family="Helvetica,sans-Serif" font-size="10.00">/DynamicalDecayFunctions</text>
<text text-anchor="middle" x="77" y="-8" font-family="Helvetica,sans-Serif" font-size="10.00">/DynamicalFunctionFactory.cpp</text>
</a>
</g>
</g>
<!-- Node1&#45;&gt;Node2 -->
<g id="edge1" class="edge"><title>Node1&#45;&gt;Node2</title>
<path fill="none" stroke="midnightblue" d="M141.216,-83.9506C129.599,-73.8293 116.935,-62.795 105.947,-53.221"/>
<polygon fill="midnightblue" stroke="midnightblue" points="139.219,-86.8524 149.057,-90.7827 143.817,-81.5746 139.219,-86.8524"/>
</g>
<!-- Node3 -->
<g id="node3" class="node"><title>Node3</title>
<g id="a_node3"><a xlink:href="../../d0/dd2/TopNodeConstantValue_8cpp.html" target="_top" xlink:title="/home/travis/build\l/ComPWA/ComPWA/Physics\l/DynamicalDecayFunctions\l/TwoBodyDecay/TopNodeConstantValue.cpp">
<polygon fill="white" stroke="black" points="172.5,-1 172.5,-53 387.5,-53 387.5,-1 172.5,-1"/>
<text text-anchor="start" x="180.5" y="-41" font-family="Helvetica,sans-Serif" font-size="10.00">/home/travis/build</text>
<text text-anchor="start" x="180.5" y="-30" font-family="Helvetica,sans-Serif" font-size="10.00">/ComPWA/ComPWA/Physics</text>
<text text-anchor="start" x="180.5" y="-19" font-family="Helvetica,sans-Serif" font-size="10.00">/DynamicalDecayFunctions</text>
<text text-anchor="middle" x="280" y="-8" font-family="Helvetica,sans-Serif" font-size="10.00">/TwoBodyDecay/TopNodeConstantValue.cpp</text>
</a>
</g>
</g>
<!-- Node1&#45;&gt;Node3 -->
<g id="edge2" class="edge"><title>Node1&#45;&gt;Node3</title>
<path fill="none" stroke="midnightblue" d="M214.81,-84.2423C226.634,-74.0416 239.563,-62.8871 250.767,-53.221"/>
<polygon fill="midnightblue" stroke="midnightblue" points="212.514,-81.6003 207.229,-90.7827 217.087,-86.9004 212.514,-81.6003"/>
</g>
</g>
</svg>
