<?xml version="1.0" encoding="UTF-8" standalone="no"?>
<!DOCTYPE svg PUBLIC "-//W3C//DTD SVG 1.1//EN"
 "http://www.w3.org/Graphics/SVG/1.1/DTD/svg11.dtd">
<!-- Generated by graphviz version 2.36.0 (20140111.2315)
 -->
<!-- Title: /home/travis/build/ComPWA/ComPWA/Physics/AmplitudeSum/AmpRelBreitWignerRes.cpp Pages: 1 -->
<svg width="1466pt" height="726pt"
 viewBox="0.00 0.00 1466.03 726.00" xmlns="http://www.w3.org/2000/svg" xmlns:xlink="http://www.w3.org/1999/xlink">
<g id="graph0" class="graph" transform="scale(1 1) rotate(0) translate(4 722)">
<title>/home/travis/build/ComPWA/ComPWA/Physics/AmplitudeSum/AmpRelBreitWignerRes.cpp</title>
<polygon fill="white" stroke="none" points="-4,4 -4,-722 1462.03,-722 1462.03,4 -4,4"/>
<!-- Node1 -->
<g id="node1" class="node"><title>Node1</title>
<polygon fill="#bfbfbf" stroke="black" points="872.531,-665 872.531,-717 1045.53,-717 1045.53,-665 872.531,-665"/>
<text text-anchor="start" x="880.531" y="-705" font-family="Helvetica,sans-Serif" font-size="10.00">/home/travis/build</text>
<text text-anchor="start" x="880.531" y="-694" font-family="Helvetica,sans-Serif" font-size="10.00">/ComPWA/ComPWA/Physics</text>
<text text-anchor="start" x="880.531" y="-683" font-family="Helvetica,sans-Serif" font-size="10.00">/AmplitudeSum/AmpRelBreitWigner</text>
<text text-anchor="middle" x="959.031" y="-672" font-family="Helvetica,sans-Serif" font-size="10.00">Res.cpp</text>
</g>
<!-- Node2 -->
<g id="node2" class="node"><title>Node2</title>
<polygon fill="white" stroke="#bfbfbf" points="13.0315,-56.5 13.0315,-75.5 57.0315,-75.5 57.0315,-56.5 13.0315,-56.5"/>
<text text-anchor="middle" x="35.0315" y="-63.5" font-family="Helvetica,sans-Serif" font-size="10.00">cmath</text>
</g>
<!-- Node1&#45;&gt;Node2 -->
<g id="edge1" class="edge"><title>Node1&#45;&gt;Node2</title>
<path fill="none" stroke="midnightblue" d="M872.115,-685.823C637.35,-673.39 8.03146,-631.951 8.03146,-545 8.03146,-545 8.03146,-545 8.03146,-177 8.03146,-143.861 19.7325,-106.682 27.7288,-85.1445"/>
<polygon fill="midnightblue" stroke="midnightblue" points="31.053,-86.2517 31.3901,-75.6622 24.5229,-83.7302 31.053,-86.2517"/>
</g>
<!-- Node3 -->
<g id="node3" class="node"><title>Node3</title>
<polygon fill="white" stroke="#bfbfbf" points="1049.03,-602.5 1049.03,-621.5 1097.03,-621.5 1097.03,-602.5 1049.03,-602.5"/>
<text text-anchor="middle" x="1073.03" y="-609.5" font-family="Helvetica,sans-Serif" font-size="10.00">stdlib.h</text>
</g>
<!-- Node1&#45;&gt;Node3 -->
<g id="edge2" class="edge"><title>Node1&#45;&gt;Node3</title>
<path fill="none" stroke="midnightblue" d="M996.359,-664.787C1014.82,-652.321 1036.41,-637.737 1051.97,-627.228"/>
<polygon fill="midnightblue" stroke="midnightblue" points="1054.03,-630.055 1060.36,-621.558 1050.12,-624.255 1054.03,-630.055"/>
</g>
<!-- Node4 -->
<g id="node4" class="node"><title>Node4</title>
<g id="a_node4"><a xlink:href="../../d2/d45/AmpRelBreitWignerRes_8hpp.html" target="_top" xlink:title="Physics/AmplitudeSum\l/AmpRelBreitWignerRes.hpp">
<polygon fill="white" stroke="black" points="887.531,-597 887.531,-627 1030.53,-627 1030.53,-597 887.531,-597"/>
<text text-anchor="start" x="895.531" y="-615" font-family="Helvetica,sans-Serif" font-size="10.00">Physics/AmplitudeSum</text>
<text text-anchor="middle" x="959.031" y="-604" font-family="Helvetica,sans-Serif" font-size="10.00">/AmpRelBreitWignerRes.hpp</text>
</a>
</g>
</g>
<!-- Node1&#45;&gt;Node4 -->
<g id="edge3" class="edge"><title>Node1&#45;&gt;Node4</title>
<path fill="none" stroke="midnightblue" d="M959.031,-664.787C959.031,-656.029 959.031,-646.225 959.031,-637.523"/>
<polygon fill="midnightblue" stroke="midnightblue" points="962.532,-637.252 959.031,-627.252 955.532,-637.252 962.532,-637.252"/>
</g>
<!-- Node5 -->
<g id="node5" class="node"><title>Node5</title>
<polygon fill="white" stroke="#bfbfbf" points="1246.03,-0.5 1246.03,-19.5 1290.03,-19.5 1290.03,-0.5 1246.03,-0.5"/>
<text text-anchor="middle" x="1268.03" y="-7.5" font-family="Helvetica,sans-Serif" font-size="10.00">vector</text>
</g>
<!-- Node4&#45;&gt;Node5 -->
<g id="edge4" class="edge"><title>Node4&#45;&gt;Node5</title>
<path fill="none" stroke="midnightblue" d="M1024.01,-596.957C1159.15,-567.305 1458.03,-499.215 1458.03,-477 1458.03,-477 1458.03,-477 1458.03,-121 1458.03,-48.9975 1354.57,-23.3614 1300.34,-14.8695"/>
<polygon fill="midnightblue" stroke="midnightblue" points="1300.6,-11.3699 1290.2,-13.391 1299.59,-18.2967 1300.6,-11.3699"/>
</g>
<!-- Node6 -->
<g id="node6" class="node"><title>Node6</title>
<g id="a_node6"><a xlink:href="../../dc/d66/Functions_8hpp.html" target="_top" xlink:title="This file contains Functions implementing the Strategy interface so they can be used inside a node of...">
<polygon fill="white" stroke="black" points="905.031,-224.5 905.031,-243.5 1007.03,-243.5 1007.03,-224.5 905.031,-224.5"/>
<text text-anchor="middle" x="956.031" y="-231.5" font-family="Helvetica,sans-Serif" font-size="10.00">Core/Functions.hpp</text>
</a>
</g>
</g>
<!-- Node4&#45;&gt;Node6 -->
<g id="edge5" class="edge"><title>Node4&#45;&gt;Node6</title>
<path fill="none" stroke="midnightblue" d="M993.136,-596.973C1061.79,-566.407 1207.01,-488.714 1169.03,-392 1144.2,-328.772 1120.83,-318.746 1065.03,-280 1044.03,-265.418 1017.58,-254.354 995.999,-246.847"/>
<polygon fill="midnightblue" stroke="midnightblue" points="997.055,-243.509 986.461,-243.647 994.829,-250.146 997.055,-243.509"/>
</g>
<!-- Node9 -->
<g id="node9" class="node"><title>Node9</title>
<g id="a_node9"><a xlink:href="../../d2/de9/Exceptions_8hpp.html" target="_top" xlink:title="This class defines the ComPWA exception base&#45;class and provides a set of standard exceptions...">
<polygon fill="white" stroke="red" points="165.031,-56.5 165.031,-75.5 273.031,-75.5 273.031,-56.5 165.031,-56.5"/>
<text text-anchor="middle" x="219.031" y="-63.5" font-family="Helvetica,sans-Serif" font-size="10.00">Core/Exceptions.hpp</text>
</a>
</g>
</g>
<!-- Node4&#45;&gt;Node9 -->
<g id="edge33" class="edge"><title>Node4&#45;&gt;Node9</title>
<path fill="none" stroke="midnightblue" d="M887.39,-608.01C672.159,-598.083 46.0315,-561.909 46.0315,-477 46.0315,-477 46.0315,-477 46.0315,-233 46.0315,-155.148 138.372,-102.447 188.127,-79.7018"/>
<polygon fill="midnightblue" stroke="midnightblue" points="189.751,-82.8103 197.471,-75.5535 186.911,-76.4126 189.751,-82.8103"/>
</g>
<!-- Node17 -->
<g id="node17" class="node"><title>Node17</title>
<g id="a_node17"><a xlink:href="../../da/db2/FunctionTree_8hpp.html" target="_top" xlink:title="This class can be used to store a function in a tree&#45;like structure. ">
<polygon fill="white" stroke="black" points="581.031,-336.5 581.031,-355.5 697.031,-355.5 697.031,-336.5 581.031,-336.5"/>
<text text-anchor="middle" x="639.031" y="-343.5" font-family="Helvetica,sans-Serif" font-size="10.00">Core/FunctionTree.hpp</text>
</a>
</g>
</g>
<!-- Node4&#45;&gt;Node17 -->
<g id="edge34" class="edge"><title>Node4&#45;&gt;Node17</title>
<path fill="none" stroke="midnightblue" d="M916.005,-596.993C849.432,-572.949 722.528,-517.199 659.031,-424 647.153,-406.565 642.329,-382.522 640.37,-365.964"/>
<polygon fill="midnightblue" stroke="midnightblue" points="643.842,-365.498 639.421,-355.87 636.873,-366.154 643.842,-365.498"/>
</g>
<!-- Node19 -->
<g id="node19" class="node"><title>Node19</title>
<g id="a_node19"><a xlink:href="../../d3/d76/AmpAbsDynamicalFunction_8hpp.html" target="_top" xlink:title="Physics/AmplitudeSum\l/AmpAbsDynamicalFunction.hpp">
<polygon fill="white" stroke="black" points="879.031,-461 879.031,-491 1039.03,-491 1039.03,-461 879.031,-461"/>
<text text-anchor="start" x="887.031" y="-479" font-family="Helvetica,sans-Serif" font-size="10.00">Physics/AmplitudeSum</text>
<text text-anchor="middle" x="959.031" y="-468" font-family="Helvetica,sans-Serif" font-size="10.00">/AmpAbsDynamicalFunction.hpp</text>
</a>
</g>
</g>
<!-- Node4&#45;&gt;Node19 -->
<g id="edge50" class="edge"><title>Node4&#45;&gt;Node19</title>
<path fill="none" stroke="midnightblue" d="M967.75,-596.882C973.342,-586.969 980.086,-573.179 983.031,-560 986.134,-546.12 986.134,-541.88 983.031,-528 980.891,-518.425 976.746,-508.527 972.494,-500.027"/>
<polygon fill="midnightblue" stroke="midnightblue" points="975.54,-498.3 967.75,-491.118 969.361,-501.589 975.54,-498.3"/>
</g>
<!-- Node23 -->
<g id="node23" class="node"><title>Node23</title>
<g id="a_node23"><a xlink:href="../../d0/d2a/AmpWigner2_8hpp.html" target="_top" xlink:title="Angular distribution based on WignerD functions. ">
<polygon fill="white" stroke="red" points="1041.53,-393 1041.53,-423 1160.53,-423 1160.53,-393 1041.53,-393"/>
<text text-anchor="start" x="1049.53" y="-411" font-family="Helvetica,sans-Serif" font-size="10.00">Physics/AmplitudeSum</text>
<text text-anchor="middle" x="1101.03" y="-400" font-family="Helvetica,sans-Serif" font-size="10.00">/AmpWigner2.hpp</text>
</a>
</g>
</g>
<!-- Node4&#45;&gt;Node23 -->
<g id="edge74" class="edge"><title>Node4&#45;&gt;Node23</title>
<path fill="none" stroke="midnightblue" d="M970.395,-596.831C978.488,-586.663 989.563,-572.591 999.031,-560 1021.42,-530.227 1027.11,-522.821 1048.03,-492 1061.64,-471.948 1076.43,-448.655 1086.92,-431.857"/>
<polygon fill="midnightblue" stroke="midnightblue" points="1089.96,-433.596 1092.27,-423.256 1084.01,-429.899 1089.96,-433.596"/>
</g>
<!-- Node24 -->
<g id="node24" class="node"><title>Node24</title>
<g id="a_node24"><a xlink:href="../../d4/db6/NonResonant_8hpp.html" target="_top" xlink:title="Physics/AmplitudeSum\l/NonResonant.hpp">
<polygon fill="white" stroke="black" points="855.531,-529 855.531,-559 974.531,-559 974.531,-529 855.531,-529"/>
<text text-anchor="start" x="863.531" y="-547" font-family="Helvetica,sans-Serif" font-size="10.00">Physics/AmplitudeSum</text>
<text text-anchor="middle" x="915.031" y="-536" font-family="Helvetica,sans-Serif" font-size="10.00">/NonResonant.hpp</text>
</a>
</g>
</g>
<!-- Node4&#45;&gt;Node24 -->
<g id="edge75" class="edge"><title>Node4&#45;&gt;Node24</title>
<path fill="none" stroke="midnightblue" d="M949.484,-596.679C943.834,-588.203 936.549,-577.276 930.134,-567.655"/>
<polygon fill="midnightblue" stroke="midnightblue" points="933.019,-565.672 924.56,-559.293 927.195,-569.555 933.019,-565.672"/>
</g>
<!-- Node6&#45;&gt;Node5 -->
<g id="edge6" class="edge"><title>Node6&#45;&gt;Node5</title>
<path fill="none" stroke="midnightblue" d="M963.365,-224.22C981.404,-203 1030.04,-148.021 1079.03,-112 1131.04,-73.7645 1199.36,-40.9652 1238,-23.7954"/>
<polygon fill="midnightblue" stroke="midnightblue" points="1239.86,-26.7991 1247.61,-19.5741 1237.05,-20.3897 1239.86,-26.7991"/>
</g>
<!-- Node7 -->
<g id="node7" class="node"><title>Node7</title>
<polygon fill="white" stroke="#bfbfbf" points="797.531,-56.5 797.531,-75.5 850.531,-75.5 850.531,-56.5 797.531,-56.5"/>
<text text-anchor="middle" x="824.031" y="-63.5" font-family="Helvetica,sans-Serif" font-size="10.00">complex</text>
</g>
<!-- Node6&#45;&gt;Node7 -->
<g id="edge7" class="edge"><title>Node6&#45;&gt;Node7</title>
<path fill="none" stroke="midnightblue" d="M960.701,-224.347C971.55,-202.936 995.653,-146.708 970.031,-112 945.12,-78.2538 895.273,-69.0282 860.803,-66.9062"/>
<polygon fill="midnightblue" stroke="midnightblue" points="860.789,-63.4022 850.644,-66.4564 860.479,-70.3954 860.789,-63.4022"/>
</g>
<!-- Node8 -->
<g id="node8" class="node"><title>Node8</title>
<polygon fill="white" stroke="#bfbfbf" points="1088.53,-112.5 1088.53,-131.5 1135.53,-131.5 1135.53,-112.5 1088.53,-112.5"/>
<text text-anchor="middle" x="1112.03" y="-119.5" font-family="Helvetica,sans-Serif" font-size="10.00">math.h</text>
</g>
<!-- Node6&#45;&gt;Node8 -->
<g id="edge8" class="edge"><title>Node6&#45;&gt;Node8</title>
<path fill="none" stroke="midnightblue" d="M977.829,-224.4C996.753,-216.412 1024.43,-203.444 1046.03,-188 1065.75,-173.902 1085.13,-153.874 1097.73,-139.785"/>
<polygon fill="midnightblue" stroke="midnightblue" points="1100.69,-141.716 1104.64,-131.886 1095.42,-137.106 1100.69,-141.716"/>
</g>
<!-- Node6&#45;&gt;Node9 -->
<g id="edge9" class="edge"><title>Node6&#45;&gt;Node9</title>
<path fill="none" stroke="midnightblue" d="M904.757,-230.392C828.615,-225.799 681.473,-214.156 559.031,-188 478.756,-170.851 460.345,-159.584 383.031,-132 335.584,-115.072 281.404,-93.0631 248.731,-79.4909"/>
<polygon fill="midnightblue" stroke="midnightblue" points="249.89,-76.182 239.313,-75.5647 247.196,-82.6431 249.89,-76.182"/>
</g>
<!-- Node11 -->
<g id="node11" class="node"><title>Node11</title>
<g id="a_node11"><a xlink:href="../../df/d9f/ParameterList_8hpp.html" target="_top" xlink:title="This class provides a list of fit parameters which can have different types. ">
<polygon fill="white" stroke="red" points="568.031,-168.5 568.031,-187.5 688.031,-187.5 688.031,-168.5 568.031,-168.5"/>
<text text-anchor="middle" x="628.031" y="-175.5" font-family="Helvetica,sans-Serif" font-size="10.00">Core/ParameterList.hpp</text>
</a>
</g>
</g>
<!-- Node6&#45;&gt;Node11 -->
<g id="edge11" class="edge"><title>Node6&#45;&gt;Node11</title>
<path fill="none" stroke="midnightblue" d="M904.781,-224.562C846.667,-214.995 751.942,-199.4 689.797,-189.169"/>
<polygon fill="midnightblue" stroke="midnightblue" points="690.168,-185.683 679.733,-187.512 689.031,-192.59 690.168,-185.683"/>
</g>
<!-- Node14 -->
<g id="node14" class="node"><title>Node14</title>
<g id="a_node14"><a xlink:href="../../d8/def/AbsParameter_8hpp.html" target="_top" xlink:title="This class defines the internal container of a parameter. ">
<polygon fill="white" stroke="red" points="452.031,-56.5 452.031,-75.5 574.031,-75.5 574.031,-56.5 452.031,-56.5"/>
<text text-anchor="middle" x="513.031" y="-63.5" font-family="Helvetica,sans-Serif" font-size="10.00">Core/AbsParameter.hpp</text>
</a>
</g>
</g>
<!-- Node6&#45;&gt;Node14 -->
<g id="edge28" class="edge"><title>Node6&#45;&gt;Node14</title>
<path fill="none" stroke="midnightblue" d="M955.859,-224.231C955.122,-210.501 951.743,-183.86 937.031,-168 889.797,-117.076 692.27,-87.2499 584.291,-74.4496"/>
<polygon fill="midnightblue" stroke="midnightblue" points="584.467,-70.9465 574.129,-73.2639 583.656,-77.8994 584.467,-70.9465"/>
</g>
<!-- Node15 -->
<g id="node15" class="node"><title>Node15</title>
<g id="a_node15"><a xlink:href="../../db/dce/Parameter_8hpp.html" target="_top" xlink:title="This class implements some internal container of parameters. ">
<polygon fill="white" stroke="red" points="166.031,-112.5 166.031,-131.5 270.031,-131.5 270.031,-112.5 166.031,-112.5"/>
<text text-anchor="middle" x="218.031" y="-119.5" font-family="Helvetica,sans-Serif" font-size="10.00">Core/Parameter.hpp</text>
</a>
</g>
</g>
<!-- Node6&#45;&gt;Node15 -->
<g id="edge27" class="edge"><title>Node6&#45;&gt;Node15</title>
<path fill="none" stroke="midnightblue" d="M904.825,-230.434C818.417,-225.579 638.369,-213.196 488.031,-188 405.114,-174.103 309.884,-148.98 257.586,-134.372"/>
<polygon fill="midnightblue" stroke="midnightblue" points="258.289,-130.934 247.715,-131.597 256.395,-137.673 258.289,-130.934"/>
</g>
<!-- Node16 -->
<g id="node16" class="node"><title>Node16</title>
<g id="a_node16"><a xlink:href="../../d8/dd4/DataPoint_8hpp.html" target="_top" xlink:title="dataPoint stores kinematic information of a dalitz plot ">
<polygon fill="white" stroke="red" points="1098.53,-168.5 1098.53,-187.5 1201.53,-187.5 1201.53,-168.5 1098.53,-168.5"/>
<text text-anchor="middle" x="1150.03" y="-175.5" font-family="Helvetica,sans-Serif" font-size="10.00">Core/DataPoint.hpp</text>
</a>
</g>
</g>
<!-- Node6&#45;&gt;Node16 -->
<g id="edge29" class="edge"><title>Node6&#45;&gt;Node16</title>
<path fill="none" stroke="midnightblue" d="M986.771,-224.444C1019.98,-215.201 1073.02,-200.436 1109.59,-190.257"/>
<polygon fill="midnightblue" stroke="midnightblue" points="1110.74,-193.57 1119.44,-187.516 1108.86,-186.826 1110.74,-193.57"/>
</g>
<!-- Node10 -->
<g id="node10" class="node"><title>Node10</title>
<polygon fill="white" stroke="#bfbfbf" points="157.531,-0.5 157.531,-19.5 198.531,-19.5 198.531,-0.5 157.531,-0.5"/>
<text text-anchor="middle" x="178.031" y="-7.5" font-family="Helvetica,sans-Serif" font-size="10.00">string</text>
</g>
<!-- Node9&#45;&gt;Node10 -->
<g id="edge10" class="edge"><title>Node9&#45;&gt;Node10</title>
<path fill="none" stroke="midnightblue" d="M212.261,-56.083C206.47,-48.4554 197.973,-37.2645 190.894,-27.9408"/>
<polygon fill="midnightblue" stroke="midnightblue" points="193.511,-25.5991 184.676,-19.7511 187.935,-29.8321 193.511,-25.5991"/>
</g>
<!-- Node11&#45;&gt;Node5 -->
<g id="edge14" class="edge"><title>Node11&#45;&gt;Node5</title>
<path fill="none" stroke="midnightblue" d="M635.583,-168.348C656.755,-144.818 719.627,-79.8387 788.031,-56 871.27,-26.9917 1142.48,-15.2547 1235.99,-12.0058"/>
<polygon fill="midnightblue" stroke="midnightblue" points="1236.12,-15.5037 1245.99,-11.6675 1235.88,-8.50773 1236.12,-15.5037"/>
</g>
<!-- Node11&#45;&gt;Node9 -->
<g id="edge26" class="edge"><title>Node11&#45;&gt;Node9</title>
<path fill="none" stroke="midnightblue" d="M596.278,-168.46C523.038,-148.762 342.303,-100.154 260.472,-78.1455"/>
<polygon fill="midnightblue" stroke="midnightblue" points="261.33,-74.7519 250.764,-75.5345 259.512,-81.5117 261.33,-74.7519"/>
</g>
<!-- Node11&#45;&gt;Node10 -->
<g id="edge12" class="edge"><title>Node11&#45;&gt;Node10</title>
<path fill="none" stroke="midnightblue" d="M627.718,-168.207C626.388,-145.446 619.429,-84.4061 583.031,-56 524.928,-10.6533 293.102,-9.31302 208.843,-10.3842"/>
<polygon fill="midnightblue" stroke="midnightblue" points="208.588,-6.88752 198.641,-10.5355 208.692,-13.8868 208.588,-6.88752"/>
</g>
<!-- Node12 -->
<g id="node12" class="node"><title>Node12</title>
<polygon fill="white" stroke="#bfbfbf" points="550.031,-0.5 550.031,-19.5 602.031,-19.5 602.031,-0.5 550.031,-0.5"/>
<text text-anchor="middle" x="576.031" y="-7.5" font-family="Helvetica,sans-Serif" font-size="10.00">memory</text>
</g>
<!-- Node11&#45;&gt;Node12 -->
<g id="edge13" class="edge"><title>Node11&#45;&gt;Node12</title>
<path fill="none" stroke="midnightblue" d="M628.938,-168.334C630.719,-147.816 633.136,-95.0612 616.031,-56 611.189,-44.9409 602.574,-34.7009 594.576,-26.792"/>
<polygon fill="midnightblue" stroke="midnightblue" points="596.658,-23.95 586.946,-19.7162 591.898,-29.0825 596.658,-23.95"/>
</g>
<!-- Node13 -->
<g id="node13" class="node"><title>Node13</title>
<polygon fill="white" stroke="#bfbfbf" points="744.531,-112.5 744.531,-131.5 779.531,-131.5 779.531,-112.5 744.531,-112.5"/>
<text text-anchor="middle" x="762.031" y="-119.5" font-family="Helvetica,sans-Serif" font-size="10.00">map</text>
</g>
<!-- Node11&#45;&gt;Node13 -->
<g id="edge15" class="edge"><title>Node11&#45;&gt;Node13</title>
<path fill="none" stroke="midnightblue" d="M649.264,-168.444C672.457,-159.097 709.667,-144.102 734.946,-133.915"/>
<polygon fill="midnightblue" stroke="midnightblue" points="736.355,-137.121 744.322,-130.137 733.738,-130.628 736.355,-137.121"/>
</g>
<!-- Node11&#45;&gt;Node14 -->
<g id="edge16" class="edge"><title>Node11&#45;&gt;Node14</title>
<path fill="none" stroke="midnightblue" d="M619.008,-168.368C599.693,-149.894 554.11,-106.293 529.491,-82.7436"/>
<polygon fill="midnightblue" stroke="midnightblue" points="531.659,-79.9744 522.013,-75.5914 526.821,-85.0329 531.659,-79.9744"/>
</g>
<!-- Node11&#45;&gt;Node15 -->
<g id="edge20" class="edge"><title>Node11&#45;&gt;Node15</title>
<path fill="none" stroke="midnightblue" d="M567.975,-169.09C491.023,-158.955 358.285,-141.472 280.288,-131.2"/>
<polygon fill="midnightblue" stroke="midnightblue" points="280.494,-127.697 270.123,-129.861 279.58,-134.637 280.494,-127.697"/>
</g>
<!-- Node14&#45;&gt;Node5 -->
<g id="edge18" class="edge"><title>Node14&#45;&gt;Node5</title>
<path fill="none" stroke="midnightblue" d="M574.177,-60.6267C726.704,-49.7175 1120.02,-21.586 1235.62,-13.3179"/>
<polygon fill="midnightblue" stroke="midnightblue" points="1236.2,-16.7856 1245.93,-12.581 1235.7,-9.80347 1236.2,-16.7856"/>
</g>
<!-- Node14&#45;&gt;Node10 -->
<g id="edge17" class="edge"><title>Node14&#45;&gt;Node10</title>
<path fill="none" stroke="midnightblue" d="M459.95,-56.4435C389.234,-45.0445 266.399,-25.2443 209.112,-16.01"/>
<polygon fill="midnightblue" stroke="midnightblue" points="209.314,-12.4974 198.884,-14.3614 208.2,-19.4082 209.314,-12.4974"/>
</g>
<!-- Node14&#45;&gt;Node12 -->
<g id="edge19" class="edge"><title>Node14&#45;&gt;Node12</title>
<path fill="none" stroke="midnightblue" d="M523.154,-56.324C532.558,-48.2631 546.776,-36.0765 558.1,-26.3695"/>
<polygon fill="midnightblue" stroke="midnightblue" points="560.41,-28.9993 565.725,-19.8339 555.855,-23.6844 560.41,-28.9993"/>
</g>
<!-- Node15&#45;&gt;Node2 -->
<g id="edge23" class="edge"><title>Node15&#45;&gt;Node2</title>
<path fill="none" stroke="midnightblue" d="M189.035,-112.444C155.88,-102.66 101.753,-86.6884 67.2916,-76.5194"/>
<polygon fill="midnightblue" stroke="midnightblue" points="67.8547,-73.0364 57.2729,-73.5631 65.8735,-79.7502 67.8547,-73.0364"/>
</g>
<!-- Node15&#45;&gt;Node7 -->
<g id="edge22" class="edge"><title>Node15&#45;&gt;Node7</title>
<path fill="none" stroke="midnightblue" d="M270.223,-116.349C390.287,-105.65 683.693,-79.5054 787.168,-70.2848"/>
<polygon fill="midnightblue" stroke="midnightblue" points="787.775,-73.7448 797.425,-69.3709 787.153,-66.7724 787.775,-73.7448"/>
</g>
<!-- Node15&#45;&gt;Node9 -->
<g id="edge25" class="edge"><title>Node15&#45;&gt;Node9</title>
<path fill="none" stroke="midnightblue" d="M218.197,-112.083C218.328,-105.006 218.516,-94.8611 218.68,-85.9865"/>
<polygon fill="midnightblue" stroke="midnightblue" points="222.184,-85.8142 218.869,-75.7511 215.185,-85.6845 222.184,-85.8142"/>
</g>
<!-- Node15&#45;&gt;Node10 -->
<g id="edge21" class="edge"><title>Node15&#45;&gt;Node10</title>
<path fill="none" stroke="midnightblue" d="M197.809,-112.495C183.26,-105.168 164.731,-93.0628 156.031,-76 148.118,-60.4774 156.426,-41.4764 165.005,-28.0376"/>
<polygon fill="midnightblue" stroke="midnightblue" points="167.945,-29.9391 170.79,-19.7334 162.202,-25.9374 167.945,-29.9391"/>
</g>
<!-- Node15&#45;&gt;Node14 -->
<g id="edge24" class="edge"><title>Node15&#45;&gt;Node14</title>
<path fill="none" stroke="midnightblue" d="M264.775,-112.444C316.777,-102.925 400.783,-87.5472 456.455,-77.3563"/>
<polygon fill="midnightblue" stroke="midnightblue" points="457.3,-80.7599 466.507,-75.5164 456.04,-73.8743 457.3,-80.7599"/>
</g>
<!-- Node16&#45;&gt;Node5 -->
<g id="edge31" class="edge"><title>Node16&#45;&gt;Node5</title>
<path fill="none" stroke="midnightblue" d="M1156.38,-168.075C1175.27,-141.493 1231.4,-62.5379 1256.12,-27.7633"/>
<polygon fill="midnightblue" stroke="midnightblue" points="1259,-29.7466 1261.94,-19.5681 1253.29,-25.6909 1259,-29.7466"/>
</g>
<!-- Node16&#45;&gt;Node8 -->
<g id="edge30" class="edge"><title>Node16&#45;&gt;Node8</title>
<path fill="none" stroke="midnightblue" d="M1143.76,-168.083C1138.39,-160.455 1130.51,-149.264 1123.95,-139.941"/>
<polygon fill="midnightblue" stroke="midnightblue" points="1126.81,-137.915 1118.19,-131.751 1121.08,-141.943 1126.81,-137.915"/>
</g>
<!-- Node16&#45;&gt;Node13 -->
<g id="edge32" class="edge"><title>Node16&#45;&gt;Node13</title>
<path fill="none" stroke="midnightblue" d="M1098.51,-169.829C1015.49,-158.276 854.912,-135.927 790.136,-126.911"/>
<polygon fill="midnightblue" stroke="midnightblue" points="790.276,-123.397 779.889,-125.485 789.311,-130.33 790.276,-123.397"/>
</g>
<!-- Node17&#45;&gt;Node5 -->
<g id="edge35" class="edge"><title>Node17&#45;&gt;Node5</title>
<path fill="none" stroke="midnightblue" d="M695.509,-336.456C824.516,-315.871 1135.45,-259.876 1210.03,-188 1254.99,-144.671 1265.13,-65.9999 1267.39,-29.9573"/>
<polygon fill="midnightblue" stroke="midnightblue" points="1270.89,-30.0106 1267.88,-19.8519 1263.9,-29.6695 1270.89,-30.0106"/>
</g>
<!-- Node17&#45;&gt;Node6 -->
<g id="edge39" class="edge"><title>Node17&#45;&gt;Node6</title>
<path fill="none" stroke="midnightblue" d="M663.642,-336.46C719.704,-317.006 857.026,-269.355 921.516,-246.977"/>
<polygon fill="midnightblue" stroke="midnightblue" points="922.918,-250.195 931.218,-243.61 920.623,-243.582 922.918,-250.195"/>
</g>
<!-- Node17&#45;&gt;Node10 -->
<g id="edge37" class="edge"><title>Node17&#45;&gt;Node10</title>
<path fill="none" stroke="midnightblue" d="M580.728,-342.925C485.184,-338.778 299.997,-327.393 241.031,-300 109.587,-238.936 61.378,-209.108 4.03146,-76 -20.6012,-18.8246 90.8749,-10.9183 147.181,-10.4868"/>
<polygon fill="midnightblue" stroke="midnightblue" points="147.329,-13.9869 157.329,-10.4854 147.328,-6.9869 147.329,-13.9869"/>
</g>
<!-- Node17&#45;&gt;Node12 -->
<g id="edge36" class="edge"><title>Node17&#45;&gt;Node12</title>
<path fill="none" stroke="midnightblue" d="M580.871,-342.986C545.635,-338.743 502.199,-327.678 474.031,-300 418.554,-245.487 436.031,-208.996 425.031,-132 421.969,-110.562 428.879,-57.4234 430.031,-56 456.42,-23.3961 505.92,-13.9015 539.907,-11.4069"/>
<polygon fill="midnightblue" stroke="midnightblue" points="540.129,-14.9001 549.915,-10.8396 539.733,-7.91129 540.129,-14.9001"/>
</g>
<!-- Node17&#45;&gt;Node13 -->
<g id="edge38" class="edge"><title>Node17&#45;&gt;Node13</title>
<path fill="none" stroke="midnightblue" d="M644.375,-336.266C658.754,-312.661 699.26,-245.498 730.031,-188 738.461,-172.249 747.387,-153.968 753.664,-140.812"/>
<polygon fill="midnightblue" stroke="midnightblue" points="756.954,-142.043 758.07,-131.507 750.627,-139.047 756.954,-142.043"/>
</g>
<!-- Node17&#45;&gt;Node14 -->
<g id="edge48" class="edge"><title>Node17&#45;&gt;Node14</title>
<path fill="none" stroke="midnightblue" d="M580.745,-343.588C548.186,-339.432 510.049,-328.248 489.031,-300 439.92,-233.992 483.425,-126.789 503.83,-84.732"/>
<polygon fill="midnightblue" stroke="midnightblue" points="506.996,-86.2262 508.341,-75.7171 500.736,-83.0935 506.996,-86.2262"/>
</g>
<!-- Node17&#45;&gt;Node15 -->
<g id="edge49" class="edge"><title>Node17&#45;&gt;Node15</title>
<path fill="none" stroke="midnightblue" d="M580.975,-345.94C486.708,-346.219 306.219,-341.168 260.031,-300 214.292,-259.232 213.757,-178.602 216.181,-141.941"/>
<polygon fill="midnightblue" stroke="midnightblue" points="219.692,-141.941 217.018,-131.689 212.715,-141.371 219.692,-141.941"/>
</g>
<!-- Node18 -->
<g id="node18" class="node"><title>Node18</title>
<g id="a_node18"><a xlink:href="../../df/d5a/TreeNode_8hpp.html" target="_top" xlink:title="This class acts as a container for a parameter in a function tree. ">
<polygon fill="white" stroke="red" points="498.031,-280.5 498.031,-299.5 600.031,-299.5 600.031,-280.5 498.031,-280.5"/>
<text text-anchor="middle" x="549.031" y="-287.5" font-family="Helvetica,sans-Serif" font-size="10.00">Core/TreeNode.hpp</text>
</a>
</g>
</g>
<!-- Node17&#45;&gt;Node18 -->
<g id="edge40" class="edge"><title>Node17&#45;&gt;Node18</title>
<path fill="none" stroke="midnightblue" d="M624.571,-336.324C610.532,-327.9 588.983,-314.971 572.488,-305.074"/>
<polygon fill="midnightblue" stroke="midnightblue" points="573.831,-301.798 563.456,-299.655 570.23,-307.801 573.831,-301.798"/>
</g>
<!-- Node18&#45;&gt;Node6 -->
<g id="edge44" class="edge"><title>Node18&#45;&gt;Node6</title>
<path fill="none" stroke="midnightblue" d="M600.166,-282.216C675.102,-272.273 814.534,-253.774 894.819,-243.122"/>
<polygon fill="midnightblue" stroke="midnightblue" points="895.333,-246.584 904.786,-241.799 894.412,-239.645 895.333,-246.584"/>
</g>
<!-- Node18&#45;&gt;Node7 -->
<g id="edge42" class="edge"><title>Node18&#45;&gt;Node7</title>
<path fill="none" stroke="midnightblue" d="M566.977,-280.418C596.979,-265.328 657.788,-231.476 696.031,-188 721.107,-159.494 708.106,-138.765 735.031,-112 749.744,-97.3754 770.18,-86.5831 787.759,-79.2393"/>
<polygon fill="midnightblue" stroke="midnightblue" points="789.166,-82.4464 797.177,-75.5118 786.59,-75.9377 789.166,-82.4464"/>
</g>
<!-- Node18&#45;&gt;Node10 -->
<g id="edge41" class="edge"><title>Node18&#45;&gt;Node10</title>
<path fill="none" stroke="midnightblue" d="M497.98,-285.48C411.277,-276.468 236.901,-244.548 157.031,-132 137.375,-104.301 139.442,-88.5826 149.031,-56 152.044,-45.7645 158.186,-35.6599 164.045,-27.627"/>
<polygon fill="midnightblue" stroke="midnightblue" points="166.963,-29.5773 170.359,-19.5413 161.446,-25.2694 166.963,-29.5773"/>
</g>
<!-- Node18&#45;&gt;Node11 -->
<g id="edge45" class="edge"><title>Node18&#45;&gt;Node11</title>
<path fill="none" stroke="midnightblue" d="M555.23,-280.368C568.268,-262.215 598.729,-219.802 615.829,-195.99"/>
<polygon fill="midnightblue" stroke="midnightblue" points="618.871,-197.755 621.861,-187.591 613.185,-193.672 618.871,-197.755"/>
</g>
<!-- Node18&#45;&gt;Node12 -->
<g id="edge43" class="edge"><title>Node18&#45;&gt;Node12</title>
<path fill="none" stroke="midnightblue" d="M538.985,-280.326C503.134,-248.332 386.561,-134.721 443.031,-56 464.86,-25.5699 508.389,-15.4568 539.711,-12.2346"/>
<polygon fill="midnightblue" stroke="midnightblue" points="540.144,-15.7107 549.816,-11.3867 539.559,-8.73521 540.144,-15.7107"/>
</g>
<!-- Node18&#45;&gt;Node14 -->
<g id="edge46" class="edge"><title>Node18&#45;&gt;Node14</title>
<path fill="none" stroke="midnightblue" d="M546.219,-280.275C538.785,-256.693 518.725,-189.58 512.031,-132 511.005,-123.171 511.933,-120.888 512.031,-112 512.127,-103.396 512.325,-93.8686 512.52,-85.8037"/>
<polygon fill="midnightblue" stroke="midnightblue" points="516.024,-85.7128 512.783,-75.6259 509.026,-85.5323 516.024,-85.7128"/>
</g>
<!-- Node18&#45;&gt;Node15 -->
<g id="edge47" class="edge"><title>Node18&#45;&gt;Node15</title>
<path fill="none" stroke="midnightblue" d="M515.513,-280.427C487.236,-272.626 446.047,-259.911 412.031,-244 344.699,-212.505 272.065,-162.34 237.915,-137.673"/>
<polygon fill="midnightblue" stroke="midnightblue" points="239.858,-134.758 229.714,-131.702 235.739,-140.417 239.858,-134.758"/>
</g>
<!-- Node19&#45;&gt;Node5 -->
<g id="edge51" class="edge"><title>Node19&#45;&gt;Node5</title>
<path fill="none" stroke="midnightblue" d="M1039.18,-464.917C1085.18,-457.316 1143.3,-444.576 1192.03,-424 1329.06,-366.145 1420.03,-327.746 1420.03,-179 1420.03,-179 1420.03,-179 1420.03,-121 1420.03,-62.2217 1344.51,-31.6533 1299.94,-18.7294"/>
<polygon fill="midnightblue" stroke="midnightblue" points="1300.7,-15.3104 1290.13,-16.0255 1298.84,-22.0585 1300.7,-15.3104"/>
</g>
<!-- Node19&#45;&gt;Node7 -->
<g id="edge52" class="edge"><title>Node19&#45;&gt;Node7</title>
<path fill="none" stroke="midnightblue" d="M1039.09,-464.754C1090.62,-456.486 1151.18,-443.072 1169.03,-424 1247.77,-339.869 1258.44,-272.565 1210.03,-168 1193.87,-133.09 1179.13,-127.745 1144.03,-112 1094.02,-89.5679 933.938,-75.1637 860.94,-69.6006"/>
<polygon fill="midnightblue" stroke="midnightblue" points="861.058,-66.0998 850.825,-68.8441 860.536,-73.0803 861.058,-66.0998"/>
</g>
<!-- Node19&#45;&gt;Node15 -->
<g id="edge54" class="edge"><title>Node19&#45;&gt;Node15</title>
<path fill="none" stroke="midnightblue" d="M878.985,-470.889C710.916,-460.868 328.205,-430.331 224.031,-356 174.131,-320.394 176.033,-284.777 184.031,-224 188.001,-193.835 200.901,-160.748 209.619,-140.94"/>
<polygon fill="midnightblue" stroke="midnightblue" points="212.894,-142.194 213.839,-131.641 206.519,-139.301 212.894,-142.194"/>
</g>
<!-- Node19&#45;&gt;Node16 -->
<g id="edge55" class="edge"><title>Node19&#45;&gt;Node16</title>
<path fill="none" stroke="midnightblue" d="M1039.31,-465.793C1091.52,-457.963 1152.8,-444.646 1169.03,-424 1222.74,-355.692 1178.96,-240.998 1158.82,-196.963"/>
<polygon fill="midnightblue" stroke="midnightblue" points="1161.93,-195.345 1154.49,-187.795 1155.6,-198.332 1161.93,-195.345"/>
</g>
<!-- Node19&#45;&gt;Node17 -->
<g id="edge56" class="edge"><title>Node19&#45;&gt;Node17</title>
<path fill="none" stroke="midnightblue" d="M878.84,-466.325C812.056,-457.895 723.183,-443.51 693.031,-424 670.927,-409.697 655.244,-382.862 646.664,-364.958"/>
<polygon fill="midnightblue" stroke="midnightblue" points="649.847,-363.504 642.534,-355.838 643.471,-366.391 649.847,-363.504"/>
</g>
<!-- Node20 -->
<g id="node20" class="node"><title>Node20</title>
<polygon fill="white" stroke="#bfbfbf" points="829.531,-393 829.531,-423 930.531,-423 930.531,-393 829.531,-393"/>
<text text-anchor="start" x="837.531" y="-411" font-family="Helvetica,sans-Serif" font-size="10.00">boost/property_tree</text>
<text text-anchor="middle" x="880.031" y="-400" font-family="Helvetica,sans-Serif" font-size="10.00">/ptree.hpp</text>
</g>
<!-- Node19&#45;&gt;Node20 -->
<g id="edge53" class="edge"><title>Node19&#45;&gt;Node20</title>
<path fill="none" stroke="midnightblue" d="M941.89,-460.679C931.05,-451.623 916.86,-439.768 904.805,-429.697"/>
<polygon fill="midnightblue" stroke="midnightblue" points="906.787,-426.792 896.868,-423.066 902.299,-432.164 906.787,-426.792"/>
</g>
<!-- Node21 -->
<g id="node21" class="node"><title>Node21</title>
<g id="a_node21"><a xlink:href="../../d8/d35/PhysConst_8hpp.html" target="_top" xlink:title="PhysConst provides particle information to the framework. ">
<polygon fill="white" stroke="red" points="820.031,-168.5 820.031,-187.5 928.031,-187.5 928.031,-168.5 820.031,-168.5"/>
<text text-anchor="middle" x="874.031" y="-175.5" font-family="Helvetica,sans-Serif" font-size="10.00">Core/PhysConst.hpp</text>
</a>
</g>
</g>
<!-- Node19&#45;&gt;Node21 -->
<g id="edge57" class="edge"><title>Node19&#45;&gt;Node21</title>
<path fill="none" stroke="midnightblue" d="M955.89,-460.836C952.15,-444.261 945.585,-416.023 939.031,-392 919.297,-319.662 892.159,-234.683 880.16,-197.732"/>
<polygon fill="midnightblue" stroke="midnightblue" points="883.374,-196.296 876.948,-187.873 876.718,-198.465 883.374,-196.296"/>
</g>
<!-- Node22 -->
<g id="node22" class="node"><title>Node22</title>
<g id="a_node22"><a xlink:href="../../d4/d62/Resonance_8hpp.html" target="_top" xlink:title="Core/Resonance.hpp">
<polygon fill="white" stroke="red" points="702.531,-398.5 702.531,-417.5 811.531,-417.5 811.531,-398.5 702.531,-398.5"/>
<text text-anchor="middle" x="757.031" y="-405.5" font-family="Helvetica,sans-Serif" font-size="10.00">Core/Resonance.hpp</text>
</a>
</g>
</g>
<!-- Node19&#45;&gt;Node22 -->
<g id="edge60" class="edge"><title>Node19&#45;&gt;Node22</title>
<path fill="none" stroke="midnightblue" d="M915.697,-460.841C879.085,-448.879 827.269,-431.949 792.937,-420.731"/>
<polygon fill="midnightblue" stroke="midnightblue" points="793.905,-417.366 783.312,-417.587 791.731,-424.02 793.905,-417.366"/>
</g>
<!-- Node19&#45;&gt;Node23 -->
<g id="edge67" class="edge"><title>Node19&#45;&gt;Node23</title>
<path fill="none" stroke="midnightblue" d="M989.494,-460.841C1010.55,-451.054 1038.76,-437.941 1061.55,-427.353"/>
<polygon fill="midnightblue" stroke="midnightblue" points="1063.03,-430.524 1070.62,-423.135 1060.08,-424.176 1063.03,-430.524"/>
</g>
<!-- Node21&#45;&gt;Node5 -->
<g id="edge58" class="edge"><title>Node21&#45;&gt;Node5</title>
<path fill="none" stroke="midnightblue" d="M881.395,-168.224C900.997,-145.506 957.127,-84.558 1018.03,-56 1090.76,-21.8996 1186.54,-13.5435 1235.77,-11.5604"/>
<polygon fill="midnightblue" stroke="midnightblue" points="1235.95,-15.0564 1245.82,-11.2191 1235.71,-8.0604 1235.95,-15.0564"/>
</g>
<!-- Node21&#45;&gt;Node15 -->
<g id="edge59" class="edge"><title>Node21&#45;&gt;Node15</title>
<path fill="none" stroke="midnightblue" d="M819.79,-172.535C698.894,-162.583 407.937,-138.633 280.076,-128.107"/>
<polygon fill="midnightblue" stroke="midnightblue" points="280.307,-124.615 270.053,-127.282 279.733,-131.591 280.307,-124.615"/>
</g>
<!-- Node22&#45;&gt;Node5 -->
<g id="edge61" class="edge"><title>Node22&#45;&gt;Node5</title>
<path fill="none" stroke="midnightblue" d="M781.455,-398.485C868.888,-367.601 1164.71,-259.543 1233.03,-188 1270.08,-149.203 1271.48,-129.243 1278.03,-76 1279.95,-60.3991 1276.91,-42.7794 1273.7,-29.8241"/>
<polygon fill="midnightblue" stroke="midnightblue" points="1276.97,-28.5219 1270.94,-19.808 1270.22,-30.3781 1276.97,-28.5219"/>
</g>
<!-- Node22&#45;&gt;Node12 -->
<g id="edge62" class="edge"><title>Node22&#45;&gt;Node12</title>
<path fill="none" stroke="midnightblue" d="M759.336,-398.404C770.726,-355.148 819.232,-161.425 788.031,-112 749.225,-50.5262 661.621,-25.6882 612.028,-16.2746"/>
<polygon fill="midnightblue" stroke="midnightblue" points="612.513,-12.806 602.054,-14.4924 611.282,-19.6968 612.513,-12.806"/>
</g>
<!-- Node22&#45;&gt;Node14 -->
<g id="edge63" class="edge"><title>Node22&#45;&gt;Node14</title>
<path fill="none" stroke="midnightblue" d="M751.33,-398.39C742.147,-384.719 723.257,-357.404 705.031,-336 645.129,-265.651 608.965,-265.742 559.031,-188 537.756,-154.876 524.059,-110.429 517.53,-85.6638"/>
<polygon fill="midnightblue" stroke="midnightblue" points="520.876,-84.6196 515.033,-75.7816 514.09,-86.3343 520.876,-84.6196"/>
</g>
<!-- Node22&#45;&gt;Node15 -->
<g id="edge64" class="edge"><title>Node22&#45;&gt;Node15</title>
<path fill="none" stroke="midnightblue" d="M702.414,-407.145C561.755,-406.053 198.031,-393.337 198.031,-291 198.031,-291 198.031,-291 198.031,-233 198.031,-200.438 206.62,-163.315 212.541,-141.592"/>
<polygon fill="midnightblue" stroke="midnightblue" points="215.973,-142.317 215.334,-131.742 209.239,-140.408 215.973,-142.317"/>
</g>
<!-- Node22&#45;&gt;Node16 -->
<g id="edge65" class="edge"><title>Node22&#45;&gt;Node16</title>
<path fill="none" stroke="midnightblue" d="M771.958,-398.341C831.535,-363.777 1052.63,-235.507 1126.11,-192.876"/>
<polygon fill="midnightblue" stroke="midnightblue" points="1128.2,-195.714 1135.09,-187.668 1124.68,-189.659 1128.2,-195.714"/>
</g>
<!-- Node22&#45;&gt;Node17 -->
<g id="edge66" class="edge"><title>Node22&#45;&gt;Node17</title>
<path fill="none" stroke="midnightblue" d="M740.125,-398.403C720.497,-388.423 687.901,-371.849 665.041,-360.225"/>
<polygon fill="midnightblue" stroke="midnightblue" points="666.407,-356.993 655.907,-355.581 663.234,-363.233 666.407,-356.993"/>
</g>
<!-- Node23&#45;&gt;Node5 -->
<g id="edge68" class="edge"><title>Node23&#45;&gt;Node5</title>
<path fill="none" stroke="midnightblue" d="M1160.78,-393.58C1202.31,-383.42 1253.27,-369.034 1271.03,-356 1302.91,-332.608 1382.03,-207.503 1382.03,-179 1382.03,-179 1382.03,-179 1382.03,-121 1382.03,-90.2048 1378.58,-78.9391 1358.03,-56 1342.55,-38.7134 1318.9,-27.25 1299.73,-20.2212"/>
<polygon fill="midnightblue" stroke="midnightblue" points="1300.77,-16.8794 1290.18,-16.9424 1298.5,-23.5001 1300.77,-16.8794"/>
</g>
<!-- Node23&#45;&gt;Node6 -->
<g id="edge71" class="edge"><title>Node23&#45;&gt;Node6</title>
<path fill="none" stroke="midnightblue" d="M1097.79,-392.679C1091.36,-367.154 1074.79,-313.352 1043.03,-280 1029.21,-265.485 1009.67,-254.796 992.613,-247.488"/>
<polygon fill="midnightblue" stroke="midnightblue" points="993.501,-244.071 982.917,-243.572 990.879,-250.562 993.501,-244.071"/>
</g>
<!-- Node23&#45;&gt;Node11 -->
<g id="edge70" class="edge"><title>Node23&#45;&gt;Node11</title>
<path fill="none" stroke="midnightblue" d="M1073.3,-392.816C1011.88,-361.508 859.529,-284.47 730.031,-224 705.767,-212.669 677.936,-200.442 657.482,-191.596"/>
<polygon fill="midnightblue" stroke="midnightblue" points="658.65,-188.289 648.081,-187.545 655.879,-194.717 658.65,-188.289"/>
</g>
<!-- Node23&#45;&gt;Node12 -->
<g id="edge69" class="edge"><title>Node23&#45;&gt;Node12</title>
<path fill="none" stroke="midnightblue" d="M1120.93,-392.964C1154.74,-367.734 1222.26,-311.05 1248.03,-244 1271.85,-182.015 1236.21,-144.007 1178.03,-112 1078.99,-57.5133 726.94,-23.6974 612.36,-13.9402"/>
<polygon fill="midnightblue" stroke="midnightblue" points="612.597,-10.4478 602.338,-13.0968 612.009,-17.4231 612.597,-10.4478"/>
</g>
<!-- Node23&#45;&gt;Node16 -->
<g id="edge72" class="edge"><title>Node23&#45;&gt;Node16</title>
<path fill="none" stroke="midnightblue" d="M1104.02,-392.754C1110.5,-361.949 1126.35,-286.847 1140.03,-224 1141.93,-215.291 1144.07,-205.642 1145.88,-197.52"/>
<polygon fill="midnightblue" stroke="midnightblue" points="1149.32,-198.145 1148.09,-187.622 1142.49,-196.617 1149.32,-198.145"/>
</g>
<!-- Node23&#45;&gt;Node17 -->
<g id="edge73" class="edge"><title>Node23&#45;&gt;Node17</title>
<path fill="none" stroke="midnightblue" d="M1041.11,-399.218C955.298,-388.074 797.838,-367.624 707.528,-355.896"/>
<polygon fill="midnightblue" stroke="midnightblue" points="707.761,-352.397 697.393,-354.579 706.859,-359.338 707.761,-352.397"/>
</g>
<!-- Node24&#45;&gt;Node15 -->
<g id="edge77" class="edge"><title>Node24&#45;&gt;Node15</title>
<path fill="none" stroke="midnightblue" d="M855.268,-539.676C664.727,-528.292 84.0315,-487.182 84.0315,-409 84.0315,-409 84.0315,-409 84.0315,-233 84.0315,-182.394 141.834,-150.812 181.512,-135.095"/>
<polygon fill="midnightblue" stroke="midnightblue" points="182.806,-138.347 190.915,-131.529 180.323,-131.802 182.806,-138.347"/>
</g>
<!-- Node24&#45;&gt;Node16 -->
<g id="edge76" class="edge"><title>Node24&#45;&gt;Node16</title>
<path fill="none" stroke="midnightblue" d="M974.671,-533.826C1038.31,-520.802 1137.32,-490.653 1192.03,-424 1248.44,-355.278 1229.86,-302.454 1188.03,-224 1182.4,-213.443 1173.98,-203.136 1166.5,-195.056"/>
<polygon fill="midnightblue" stroke="midnightblue" points="1168.93,-192.54 1159.46,-187.791 1163.9,-197.41 1168.93,-192.54"/>
</g>
<!-- Node24&#45;&gt;Node19 -->
<g id="edge78" class="edge"><title>Node24&#45;&gt;Node19</title>
<path fill="none" stroke="midnightblue" d="M924.579,-528.679C930.229,-520.203 937.514,-509.276 943.928,-499.655"/>
<polygon fill="midnightblue" stroke="midnightblue" points="946.868,-501.555 949.503,-491.293 941.044,-497.672 946.868,-501.555"/>
</g>
</g>
</svg>
