<?xml version="1.0" encoding="UTF-8" standalone="no"?>
<!DOCTYPE svg PUBLIC "-//W3C//DTD SVG 1.1//EN"
 "http://www.w3.org/Graphics/SVG/1.1/DTD/svg11.dtd">
<!-- Generated by graphviz version 2.26.3 (20100126.1600)
 -->
<!-- Title: G Pages: 1 -->
<svg width="1081pt" height="320pt"
 viewBox="0.00 0.00 1081.00 320.00" xmlns="http://www.w3.org/2000/svg" xmlns:xlink="http://www.w3.org/1999/xlink">
<g id="graph1" class="graph" transform="scale(1 1) rotate(0) translate(4 316)">
<title>G</title>
<polygon fill="white" stroke="white" points="-4,5 -4,-316 1078,-316 1078,5 -4,5"/>
<!-- Node1 -->
<g id="node1" class="node"><title>Node1</title>
<polygon fill="#bfbfbf" stroke="black" points="617.5,-290.5 617.5,-311.5 862.5,-311.5 862.5,-290.5 617.5,-290.5"/>
<text text-anchor="middle" x="740" y="-298.5" font-family="Helvetica,sans-Serif" font-size="10.00">Physics/AmplitudeSum/AmpRelBreitWignerRes.cpp</text>
</g>
<!-- Node2 -->
<g id="node3" class="node"><title>Node2</title>
<polygon fill="white" stroke="#bfbfbf" points="556,-232.5 556,-253.5 600,-253.5 600,-232.5 556,-232.5"/>
<text text-anchor="middle" x="578" y="-240.5" font-family="Helvetica,sans-Serif" font-size="10.00">cmath</text>
</g>
<!-- Node1&#45;&gt;Node2 -->
<g id="edge2" class="edge"><title>Node1&#45;&gt;Node2</title>
<path fill="none" stroke="midnightblue" d="M710.663,-290.497C682.279,-280.334 639.369,-264.972 610.089,-254.489"/>
<polygon fill="midnightblue" stroke="midnightblue" points="610.942,-251.077 600.347,-251.001 608.582,-257.667 610.942,-251.077"/>
</g>
<!-- Node3 -->
<g id="node5" class="node"><title>Node3</title>
<a xlink:href="../../d2/d45/AmpRelBreitWignerRes_8hpp.xhtml" target="_top" xlink:title="Physics/AmplitudeSum/AmpRelBreitWignerRes.hpp">
<polygon fill="white" stroke="black" points="617.5,-232.5 617.5,-253.5 862.5,-253.5 862.5,-232.5 617.5,-232.5"/>
<text text-anchor="middle" x="740" y="-240.5" font-family="Helvetica,sans-Serif" font-size="10.00">Physics/AmplitudeSum/AmpRelBreitWignerRes.hpp</text>
</a>
</g>
<!-- Node1&#45;&gt;Node3 -->
<g id="edge4" class="edge"><title>Node1&#45;&gt;Node3</title>
<path fill="none" stroke="midnightblue" d="M740,-290.362C740,-282.922 740,-272.743 740,-263.728"/>
<polygon fill="midnightblue" stroke="midnightblue" points="743.5,-263.571 740,-253.571 736.5,-263.571 743.5,-263.571"/>
</g>
<!-- Node26 -->
<g id="node73" class="node"><title>Node26</title>
<polygon fill="white" stroke="#bfbfbf" points="880,-232.5 880,-253.5 928,-253.5 928,-232.5 880,-232.5"/>
<text text-anchor="middle" x="904" y="-240.5" font-family="Helvetica,sans-Serif" font-size="10.00">stdlib.h</text>
</g>
<!-- Node1&#45;&gt;Node26 -->
<g id="edge94" class="edge"><title>Node1&#45;&gt;Node26</title>
<path fill="none" stroke="midnightblue" d="M769.699,-290.497C798.061,-280.466 840.751,-265.369 870.356,-254.898"/>
<polygon fill="midnightblue" stroke="midnightblue" points="871.594,-258.173 879.855,-251.539 869.26,-251.574 871.594,-258.173"/>
</g>
<!-- Node4 -->
<g id="node7" class="node"><title>Node4</title>
<polygon fill="white" stroke="#bfbfbf" points="791,-0.5 791,-21.5 835,-21.5 835,-0.5 791,-0.5"/>
<text text-anchor="middle" x="813" y="-8.5" font-family="Helvetica,sans-Serif" font-size="10.00">vector</text>
</g>
<!-- Node3&#45;&gt;Node4 -->
<g id="edge6" class="edge"><title>Node3&#45;&gt;Node4</title>
<path fill="none" stroke="midnightblue" d="M861.094,-232.497C944.301,-224.019 1042.03,-211.052 1055,-196 1099.9,-143.906 1042.59,-95.589 985,-58 941.705,-29.7421 881.694,-18.3507 845.205,-13.8457"/>
<polygon fill="midnightblue" stroke="midnightblue" points="845.457,-10.3518 835.126,-12.7033 844.668,-17.3073 845.457,-10.3518"/>
</g>
<!-- Node5 -->
<g id="node9" class="node"><title>Node5</title>
<a xlink:href="../../d3/d76/AmpAbsDynamicalFunction_8hpp.xhtml" target="_top" xlink:title="Physics/AmplitudeSum/AmpAbsDynamicalFunction.hpp">
<polygon fill="white" stroke="black" points="136,-174.5 136,-195.5 398,-195.5 398,-174.5 136,-174.5"/>
<text text-anchor="middle" x="267" y="-182.5" font-family="Helvetica,sans-Serif" font-size="10.00">Physics/AmplitudeSum/AmpAbsDynamicalFunction.hpp</text>
</a>
</g>
<!-- Node3&#45;&gt;Node5 -->
<g id="edge8" class="edge"><title>Node3&#45;&gt;Node5</title>
<path fill="none" stroke="midnightblue" d="M654.343,-232.497C572.141,-222.417 448.21,-207.22 362.779,-196.745"/>
<polygon fill="midnightblue" stroke="midnightblue" points="363.169,-193.266 352.817,-195.523 362.317,-200.214 363.169,-193.266"/>
</g>
<!-- Node22 -->
<g id="node52" class="node"><title>Node22</title>
<a xlink:href="../../d6/d6b/AmpKinematics_8hpp.xhtml" target="_top" xlink:title="Physics/AmplitudeSum/AmpKinematics.hpp">
<polygon fill="white" stroke="black" points="415.5,-174.5 415.5,-195.5 624.5,-195.5 624.5,-174.5 415.5,-174.5"/>
<text text-anchor="middle" x="520" y="-182.5" font-family="Helvetica,sans-Serif" font-size="10.00">Physics/AmplitudeSum/AmpKinematics.hpp</text>
</a>
</g>
<!-- Node3&#45;&gt;Node22 -->
<g id="edge60" class="edge"><title>Node3&#45;&gt;Node22</title>
<path fill="none" stroke="midnightblue" d="M700.16,-232.497C663.517,-222.836 609.049,-208.477 569.601,-198.077"/>
<polygon fill="midnightblue" stroke="midnightblue" points="570.477,-194.688 559.915,-195.523 568.692,-201.457 570.477,-194.688"/>
</g>
<!-- Node23 -->
<g id="node58" class="node"><title>Node23</title>
<a xlink:href="../../d0/d2a/AmpWigner2_8hpp.xhtml" target="_top" xlink:title="Angular distribution based on WignerD functions.">
<polygon fill="white" stroke="black" points="641.5,-174.5 641.5,-195.5 838.5,-195.5 838.5,-174.5 641.5,-174.5"/>
<text text-anchor="middle" x="740" y="-182.5" font-family="Helvetica,sans-Serif" font-size="10.00">Physics/AmplitudeSum/AmpWigner2.hpp</text>
</a>
</g>
<!-- Node3&#45;&gt;Node23 -->
<g id="edge70" class="edge"><title>Node3&#45;&gt;Node23</title>
<path fill="none" stroke="midnightblue" d="M740,-232.362C740,-224.922 740,-214.743 740,-205.728"/>
<polygon fill="midnightblue" stroke="midnightblue" points="743.5,-205.571 740,-195.571 736.5,-205.571 743.5,-205.571"/>
</g>
<!-- Node25 -->
<g id="node68" class="node"><title>Node25</title>
<a xlink:href="../../d4/d12/AmpWigner_8hpp.xhtml" target="_top" xlink:title="Physics/AmplitudeSum/AmpWigner.hpp">
<polygon fill="white" stroke="black" points="855.5,-174.5 855.5,-195.5 1046.5,-195.5 1046.5,-174.5 855.5,-174.5"/>
<text text-anchor="middle" x="951" y="-182.5" font-family="Helvetica,sans-Serif" font-size="10.00">Physics/AmplitudeSum/AmpWigner.hpp</text>
</a>
</g>
<!-- Node3&#45;&gt;Node25 -->
<g id="edge86" class="edge"><title>Node3&#45;&gt;Node25</title>
<path fill="none" stroke="midnightblue" d="M778.211,-232.497C813.205,-222.877 865.152,-208.598 902.947,-198.209"/>
<polygon fill="midnightblue" stroke="midnightblue" points="904.003,-201.548 912.718,-195.523 902.148,-194.799 904.003,-201.548"/>
</g>
<!-- Node5&#45;&gt;Node4 -->
<g id="edge10" class="edge"><title>Node5&#45;&gt;Node4</title>
<path fill="none" stroke="midnightblue" d="M283.896,-174.32C331.278,-144.405 462.646,-61.7201 473,-58 529.391,-37.7401 707.01,-20.3062 780.587,-13.7615"/>
<polygon fill="midnightblue" stroke="midnightblue" points="781.006,-17.2382 790.661,-12.8758 780.393,-10.2651 781.006,-17.2382"/>
</g>
<!-- Node6 -->
<g id="node12" class="node"><title>Node6</title>
<polygon fill="white" stroke="#bfbfbf" points="-0.5,-58.5 -0.5,-79.5 52.5,-79.5 52.5,-58.5 -0.5,-58.5"/>
<text text-anchor="middle" x="26" y="-66.5" font-family="Helvetica,sans-Serif" font-size="10.00">complex</text>
</g>
<!-- Node5&#45;&gt;Node6 -->
<g id="edge12" class="edge"><title>Node5&#45;&gt;Node6</title>
<path fill="none" stroke="midnightblue" d="M244.759,-174.295C201.608,-153.525 106.44,-107.718 57.0727,-83.9562"/>
<polygon fill="midnightblue" stroke="midnightblue" points="58.3674,-80.695 47.8389,-79.5117 55.3315,-87.0024 58.3674,-80.695"/>
</g>
<!-- Node7 -->
<g id="node14" class="node"><title>Node7</title>
<a xlink:href="../../db/dce/Parameter_8hpp.xhtml" target="_top" xlink:title="This class implements some internal container of parameters.">
<polygon fill="white" stroke="black" points="228,-116.5 228,-137.5 332,-137.5 332,-116.5 228,-116.5"/>
<text text-anchor="middle" x="280" y="-124.5" font-family="Helvetica,sans-Serif" font-size="10.00">Core/Parameter.hpp</text>
</a>
</g>
<!-- Node5&#45;&gt;Node7 -->
<g id="edge14" class="edge"><title>Node5&#45;&gt;Node7</title>
<path fill="none" stroke="midnightblue" d="M269.384,-174.362C271.07,-166.84 273.384,-156.519 275.421,-147.431"/>
<polygon fill="midnightblue" stroke="midnightblue" points="278.859,-148.094 277.631,-137.571 272.028,-146.563 278.859,-148.094"/>
</g>
<!-- Node17 -->
<g id="node38" class="node"><title>Node17</title>
<a xlink:href="../../d8/dd4/DataPoint_8hpp.xhtml" target="_top" xlink:title="dataPoint stores kinematic information of a dalitz plot">
<polygon fill="white" stroke="black" points="635.5,-116.5 635.5,-137.5 738.5,-137.5 738.5,-116.5 635.5,-116.5"/>
<text text-anchor="middle" x="687" y="-124.5" font-family="Helvetica,sans-Serif" font-size="10.00">Core/DataPoint.hpp</text>
</a>
</g>
<!-- Node5&#45;&gt;Node17 -->
<g id="edge42" class="edge"><title>Node5&#45;&gt;Node17</title>
<path fill="none" stroke="midnightblue" d="M343.059,-174.497C423.885,-163.335 550.145,-145.899 625.111,-135.547"/>
<polygon fill="midnightblue" stroke="midnightblue" points="625.911,-138.969 635.339,-134.134 624.954,-132.035 625.911,-138.969"/>
</g>
<!-- Node7&#45;&gt;Node6 -->
<g id="edge22" class="edge"><title>Node7&#45;&gt;Node6</title>
<path fill="none" stroke="midnightblue" d="M227.906,-117.239C185.594,-108.991 124.21,-96.3005 62.5706,-80.2676"/>
<polygon fill="midnightblue" stroke="midnightblue" points="63.2399,-76.8247 52.6785,-77.6659 61.4593,-83.5945 63.2399,-76.8247"/>
</g>
<!-- Node8 -->
<g id="node16" class="node"><title>Node8</title>
<polygon fill="white" stroke="#bfbfbf" points="482,-58.5 482,-79.5 536,-79.5 536,-58.5 482,-58.5"/>
<text text-anchor="middle" x="509" y="-66.5" font-family="Helvetica,sans-Serif" font-size="10.00">iostream</text>
</g>
<!-- Node7&#45;&gt;Node8 -->
<g id="edge16" class="edge"><title>Node7&#45;&gt;Node8</title>
<path fill="none" stroke="midnightblue" d="M321.47,-116.497C364.364,-105.633 430.726,-88.8248 471.926,-78.3899"/>
<polygon fill="midnightblue" stroke="midnightblue" points="472.994,-81.73 481.829,-75.8818 471.276,-74.9442 472.994,-81.73"/>
</g>
<!-- Node9 -->
<g id="node18" class="node"><title>Node9</title>
<polygon fill="white" stroke="#bfbfbf" points="179.5,-0.5 179.5,-21.5 220.5,-21.5 220.5,-0.5 179.5,-0.5"/>
<text text-anchor="middle" x="200" y="-8.5" font-family="Helvetica,sans-Serif" font-size="10.00">string</text>
</g>
<!-- Node7&#45;&gt;Node9 -->
<g id="edge18" class="edge"><title>Node7&#45;&gt;Node9</title>
<path fill="none" stroke="midnightblue" d="M263.542,-116.422C251.412,-107.882 235.296,-94.8697 225,-80 214.827,-65.3087 208.297,-46.005 204.472,-31.5521"/>
<polygon fill="midnightblue" stroke="midnightblue" points="207.817,-30.4953 202.058,-21.6022 201.014,-32.1455 207.817,-30.4953"/>
</g>
<!-- Node10 -->
<g id="node20" class="node"><title>Node10</title>
<polygon fill="white" stroke="#bfbfbf" points="374,-58.5 374,-79.5 426,-79.5 426,-58.5 374,-58.5"/>
<text text-anchor="middle" x="400" y="-66.5" font-family="Helvetica,sans-Serif" font-size="10.00">sstream</text>
</g>
<!-- Node7&#45;&gt;Node10 -->
<g id="edge20" class="edge"><title>Node7&#45;&gt;Node10</title>
<path fill="none" stroke="midnightblue" d="M301.731,-116.497C320.474,-107.438 347.767,-94.2462 368.836,-84.0628"/>
<polygon fill="midnightblue" stroke="midnightblue" points="370.545,-87.1242 378.025,-79.6212 367.498,-80.8217 370.545,-87.1242"/>
</g>
<!-- Node11 -->
<g id="node23" class="node"><title>Node11</title>
<a xlink:href="../../d8/def/AbsParameter_8hpp.xhtml" target="_top" xlink:title="This class defines the internal container of a parameter.">
<polygon fill="white" stroke="black" points="234,-58.5 234,-79.5 356,-79.5 356,-58.5 234,-58.5"/>
<text text-anchor="middle" x="295" y="-66.5" font-family="Helvetica,sans-Serif" font-size="10.00">Core/AbsParameter.hpp</text>
</a>
</g>
<!-- Node7&#45;&gt;Node11 -->
<g id="edge24" class="edge"><title>Node7&#45;&gt;Node11</title>
<path fill="none" stroke="midnightblue" d="M282.751,-116.362C284.697,-108.84 287.366,-98.5187 289.716,-89.4308"/>
<polygon fill="midnightblue" stroke="midnightblue" points="293.151,-90.1285 292.266,-79.5707 286.374,-88.3758 293.151,-90.1285"/>
</g>
<!-- Node15 -->
<g id="node33" class="node"><title>Node15</title>
<a xlink:href="../../d2/de9/Exceptions_8hpp.xhtml" target="_top" xlink:title="This class defines the ComPWA exception base&#45;class and provides a set of standard exceptions...">
<polygon fill="white" stroke="black" points="70,-58.5 70,-79.5 178,-79.5 178,-58.5 70,-58.5"/>
<text text-anchor="middle" x="124" y="-66.5" font-family="Helvetica,sans-Serif" font-size="10.00">Core/Exceptions.hpp</text>
</a>
</g>
<!-- Node7&#45;&gt;Node15 -->
<g id="edge36" class="edge"><title>Node7&#45;&gt;Node15</title>
<path fill="none" stroke="midnightblue" d="M251.75,-116.497C226.538,-107.123 189.424,-93.3242 161.688,-83.0122"/>
<polygon fill="midnightblue" stroke="midnightblue" points="162.896,-79.7274 152.303,-79.5231 160.457,-86.2886 162.896,-79.7274"/>
</g>
<!-- Node11&#45;&gt;Node4 -->
<g id="edge28" class="edge"><title>Node11&#45;&gt;Node4</title>
<path fill="none" stroke="midnightblue" d="M356.057,-59.2164C359.079,-58.7914 362.073,-58.3833 365,-58 520.207,-37.6774 706.578,-20.4023 780.503,-13.8326"/>
<polygon fill="midnightblue" stroke="midnightblue" points="780.924,-17.3091 790.577,-12.9419 780.307,-10.3363 780.924,-17.3091"/>
</g>
<!-- Node11&#45;&gt;Node9 -->
<g id="edge26" class="edge"><title>Node11&#45;&gt;Node9</title>
<path fill="none" stroke="midnightblue" d="M277.576,-58.3619C263.113,-49.532 242.331,-36.844 225.916,-26.8224"/>
<polygon fill="midnightblue" stroke="midnightblue" points="227.673,-23.7943 217.314,-21.5707 224.025,-29.7688 227.673,-23.7943"/>
</g>
<!-- Node12 -->
<g id="node27" class="node"><title>Node12</title>
<polygon fill="white" stroke="#bfbfbf" points="562,-0.5 562,-21.5 614,-21.5 614,-0.5 562,-0.5"/>
<text text-anchor="middle" x="588" y="-8.5" font-family="Helvetica,sans-Serif" font-size="10.00">memory</text>
</g>
<!-- Node11&#45;&gt;Node12 -->
<g id="edge30" class="edge"><title>Node11&#45;&gt;Node12</title>
<path fill="none" stroke="midnightblue" d="M348.06,-58.4966C406.996,-46.8302 500.558,-28.3093 551.694,-18.1869"/>
<polygon fill="midnightblue" stroke="midnightblue" points="552.503,-21.5947 561.633,-16.2194 551.144,-14.7279 552.503,-21.5947"/>
</g>
<!-- Node13 -->
<g id="node29" class="node"><title>Node13</title>
<polygon fill="white" stroke="#bfbfbf" points="370,-0.5 370,-21.5 426,-21.5 426,-0.5 370,-0.5"/>
<text text-anchor="middle" x="398" y="-8.5" font-family="Helvetica,sans-Serif" font-size="10.00">algorithm</text>
</g>
<!-- Node11&#45;&gt;Node13 -->
<g id="edge32" class="edge"><title>Node11&#45;&gt;Node13</title>
<path fill="none" stroke="midnightblue" d="M313.892,-58.3619C329.718,-49.4502 352.523,-36.6087 370.395,-26.5447"/>
<polygon fill="midnightblue" stroke="midnightblue" points="372.232,-29.5271 379.228,-21.5707 368.797,-23.4276 372.232,-29.5271"/>
</g>
<!-- Node14 -->
<g id="node31" class="node"><title>Node14</title>
<a xlink:href="../../d9/d91/ParObserver_8hpp.xhtml" target="_top" xlink:title="For the use in the function tree, the observer pattern is used.">
<polygon fill="white" stroke="black" points="238,-0.5 238,-21.5 352,-21.5 352,-0.5 238,-0.5"/>
<text text-anchor="middle" x="295" y="-8.5" font-family="Helvetica,sans-Serif" font-size="10.00">Core/ParObserver.hpp</text>
</a>
</g>
<!-- Node11&#45;&gt;Node14 -->
<g id="edge34" class="edge"><title>Node11&#45;&gt;Node14</title>
<path fill="none" stroke="midnightblue" d="M295,-58.3619C295,-50.9219 295,-40.7427 295,-31.7276"/>
<polygon fill="midnightblue" stroke="midnightblue" points="298.5,-31.5706 295,-21.5707 291.5,-31.5707 298.5,-31.5706"/>
</g>
<!-- Node15&#45;&gt;Node9 -->
<g id="edge40" class="edge"><title>Node15&#45;&gt;Node9</title>
<path fill="none" stroke="midnightblue" d="M137.94,-58.3619C149.188,-49.7773 165.216,-37.5459 178.165,-27.6636"/>
<polygon fill="midnightblue" stroke="midnightblue" points="180.323,-30.4198 186.149,-21.5707 176.076,-24.8551 180.323,-30.4198"/>
</g>
<!-- Node16 -->
<g id="node35" class="node"><title>Node16</title>
<polygon fill="white" stroke="#bfbfbf" points="94.5,-0.5 94.5,-21.5 153.5,-21.5 153.5,-0.5 94.5,-0.5"/>
<text text-anchor="middle" x="124" y="-8.5" font-family="Helvetica,sans-Serif" font-size="10.00">exception</text>
</g>
<!-- Node15&#45;&gt;Node16 -->
<g id="edge38" class="edge"><title>Node15&#45;&gt;Node16</title>
<path fill="none" stroke="midnightblue" d="M124,-58.3619C124,-50.9219 124,-40.7427 124,-31.7276"/>
<polygon fill="midnightblue" stroke="midnightblue" points="127.5,-31.5706 124,-21.5707 120.5,-31.5707 127.5,-31.5706"/>
</g>
<!-- Node17&#45;&gt;Node4 -->
<g id="edge48" class="edge"><title>Node17&#45;&gt;Node4</title>
<path fill="none" stroke="midnightblue" d="M687.738,-116.342C689.294,-101.544 694.117,-74.7147 709,-58 727.823,-36.8601 758.025,-24.6778 781.044,-18.0388"/>
<polygon fill="midnightblue" stroke="midnightblue" points="781.977,-21.4124 790.731,-15.4446 780.166,-14.6506 781.977,-21.4124"/>
</g>
<!-- Node18 -->
<g id="node40" class="node"><title>Node18</title>
<polygon fill="white" stroke="#bfbfbf" points="617.5,-58.5 617.5,-79.5 662.5,-79.5 662.5,-58.5 617.5,-58.5"/>
<text text-anchor="middle" x="640" y="-66.5" font-family="Helvetica,sans-Serif" font-size="10.00">cstdlib</text>
</g>
<!-- Node17&#45;&gt;Node18 -->
<g id="edge44" class="edge"><title>Node17&#45;&gt;Node18</title>
<path fill="none" stroke="midnightblue" d="M678.379,-116.362C671.82,-108.268 662.634,-96.9318 654.894,-87.3796"/>
<polygon fill="midnightblue" stroke="midnightblue" points="657.581,-85.1364 648.566,-79.5707 652.142,-89.5436 657.581,-85.1364"/>
</g>
<!-- Node19 -->
<g id="node42" class="node"><title>Node19</title>
<polygon fill="white" stroke="#bfbfbf" points="553.5,-58.5 553.5,-79.5 600.5,-79.5 600.5,-58.5 553.5,-58.5"/>
<text text-anchor="middle" x="577" y="-66.5" font-family="Helvetica,sans-Serif" font-size="10.00">math.h</text>
</g>
<!-- Node17&#45;&gt;Node19 -->
<g id="edge46" class="edge"><title>Node17&#45;&gt;Node19</title>
<path fill="none" stroke="midnightblue" d="M667.08,-116.497C650.054,-107.519 625.331,-94.4835 606.091,-84.3387"/>
<polygon fill="midnightblue" stroke="midnightblue" points="607.622,-81.1894 597.144,-79.6212 604.357,-87.3814 607.622,-81.1894"/>
</g>
<!-- Node20 -->
<g id="node45" class="node"><title>Node20</title>
<a xlink:href="../../d4/d37/Kinematics_8hpp.xhtml" target="_top" xlink:title="Core/Kinematics.hpp">
<polygon fill="white" stroke="black" points="718,-58.5 718,-79.5 826,-79.5 826,-58.5 718,-58.5"/>
<text text-anchor="middle" x="772" y="-66.5" font-family="Helvetica,sans-Serif" font-size="10.00">Core/Kinematics.hpp</text>
</a>
</g>
<!-- Node17&#45;&gt;Node20 -->
<g id="edge50" class="edge"><title>Node17&#45;&gt;Node20</title>
<path fill="none" stroke="midnightblue" d="M697.226,-116.362C708.499,-107.614 726.618,-95.0786 742.285,-85.1015"/>
<polygon fill="midnightblue" stroke="midnightblue" points="744.522,-87.8314 751.156,-79.5707 740.819,-81.8913 744.522,-87.8314"/>
</g>
<!-- Node20&#45;&gt;Node4 -->
<g id="edge52" class="edge"><title>Node20&#45;&gt;Node4</title>
<path fill="none" stroke="midnightblue" d="M779.52,-58.3619C785.126,-50.4313 792.932,-39.3885 799.597,-29.9606"/>
<polygon fill="midnightblue" stroke="midnightblue" points="802.613,-31.7568 805.528,-21.5707 796.897,-27.7161 802.613,-31.7568"/>
</g>
<!-- Node20&#45;&gt;Node12 -->
<g id="edge54" class="edge"><title>Node20&#45;&gt;Node12</title>
<path fill="none" stroke="midnightblue" d="M738.679,-58.4966C706.3,-48.2901 657.277,-32.8374 624.012,-22.3517"/>
<polygon fill="midnightblue" stroke="midnightblue" points="624.82,-18.9367 614.231,-19.2683 622.716,-25.6129 624.82,-18.9367"/>
</g>
<!-- Node20&#45;&gt;Node17 -->
<g id="edge58" class="edge"><title>Node20&#45;&gt;Node17</title>
<path fill="none" stroke="midnightblue" d="M761.861,-79.5707C750.623,-88.2993 732.515,-100.831 716.836,-110.821"/>
<polygon fill="midnightblue" stroke="midnightblue" points="714.586,-108.099 707.954,-116.362 718.291,-114.039 714.586,-108.099"/>
</g>
<!-- Node21 -->
<g id="node49" class="node"><title>Node21</title>
<polygon fill="white" stroke="#bfbfbf" points="972.5,-0.5 972.5,-21.5 1073.5,-21.5 1073.5,-0.5 972.5,-0.5"/>
<text text-anchor="middle" x="1023" y="-8.5" font-family="Helvetica,sans-Serif" font-size="10.00">boost/log/trivial.hpp</text>
</g>
<!-- Node20&#45;&gt;Node21 -->
<g id="edge56" class="edge"><title>Node20&#45;&gt;Node21</title>
<path fill="none" stroke="midnightblue" d="M817.454,-58.4966C859.614,-48.7545 922.458,-34.2328 967.551,-23.813"/>
<polygon fill="midnightblue" stroke="midnightblue" points="968.505,-27.1847 977.461,-21.5231 966.929,-20.3644 968.505,-27.1847"/>
</g>
<!-- Node22&#45;&gt;Node7 -->
<g id="edge68" class="edge"><title>Node22&#45;&gt;Node7</title>
<path fill="none" stroke="midnightblue" d="M476.538,-174.497C436.31,-164.775 376.388,-150.294 333.291,-139.879"/>
<polygon fill="midnightblue" stroke="midnightblue" points="334.086,-136.47 323.544,-137.523 332.442,-143.274 334.086,-136.47"/>
</g>
<!-- Node22&#45;&gt;Node8 -->
<g id="edge66" class="edge"><title>Node22&#45;&gt;Node8</title>
<path fill="none" stroke="midnightblue" d="M518.985,-174.295C517.168,-155.131 513.329,-114.654 510.977,-89.8434"/>
<polygon fill="midnightblue" stroke="midnightblue" points="514.441,-89.3041 510.013,-79.6792 507.472,-89.965 514.441,-89.3041"/>
</g>
<!-- Node22&#45;&gt;Node18 -->
<g id="edge62" class="edge"><title>Node22&#45;&gt;Node18</title>
<path fill="none" stroke="midnightblue" d="M531.074,-174.295C551.702,-154.355 596.203,-111.337 621.477,-86.9056"/>
<polygon fill="midnightblue" stroke="midnightblue" points="624.195,-89.1459 628.953,-79.6792 619.33,-84.113 624.195,-89.1459"/>
</g>
<!-- Node22&#45;&gt;Node19 -->
<g id="edge64" class="edge"><title>Node22&#45;&gt;Node19</title>
<path fill="none" stroke="midnightblue" d="M525.26,-174.295C534.804,-154.872 555.106,-113.556 567.248,-88.8462"/>
<polygon fill="midnightblue" stroke="midnightblue" points="570.484,-90.1978 571.752,-79.6792 564.201,-87.1107 570.484,-90.1978"/>
</g>
<!-- Node23&#45;&gt;Node4 -->
<g id="edge72" class="edge"><title>Node23&#45;&gt;Node4</title>
<path fill="none" stroke="midnightblue" d="M745.344,-174.33C752.866,-159.991 767.617,-134.204 785,-116 803.911,-96.196 822.516,-104.372 835,-80 843.182,-64.0271 835.401,-44.4158 826.914,-30.1889"/>
<polygon fill="midnightblue" stroke="midnightblue" points="829.784,-28.1818 821.396,-21.7096 823.917,-32.0001 829.784,-28.1818"/>
</g>
<!-- Node23&#45;&gt;Node17 -->
<g id="edge84" class="edge"><title>Node23&#45;&gt;Node17</title>
<path fill="none" stroke="midnightblue" d="M730.279,-174.362C722.808,-166.186 712.314,-154.702 703.531,-145.091"/>
<polygon fill="midnightblue" stroke="midnightblue" points="705.989,-142.592 696.659,-137.571 700.821,-147.314 705.989,-142.592"/>
</g>
<!-- Node24 -->
<g id="node61" class="node"><title>Node24</title>
<a xlink:href="../../d7/dd9/DalitzKinematics_8hpp.xhtml" target="_top" xlink:title="Physics/DPKinematics/DalitzKinematics.hpp">
<polygon fill="white" stroke="black" points="794,-116.5 794,-137.5 1008,-137.5 1008,-116.5 794,-116.5"/>
<text text-anchor="middle" x="901" y="-124.5" font-family="Helvetica,sans-Serif" font-size="10.00">Physics/DPKinematics/DalitzKinematics.hpp</text>
</a>
</g>
<!-- Node23&#45;&gt;Node24 -->
<g id="edge74" class="edge"><title>Node23&#45;&gt;Node24</title>
<path fill="none" stroke="midnightblue" d="M769.156,-174.497C795.176,-165.123 833.479,-151.324 862.104,-141.012"/>
<polygon fill="midnightblue" stroke="midnightblue" points="863.568,-144.205 871.789,-137.523 861.195,-137.62 863.568,-144.205"/>
</g>
<!-- Node24&#45;&gt;Node4 -->
<g id="edge78" class="edge"><title>Node24&#45;&gt;Node4</title>
<path fill="none" stroke="midnightblue" d="M897.516,-116.427C892.494,-102.198 882.234,-76.5355 868,-58 859.187,-46.5239 847.168,-35.8585 836.613,-27.5983"/>
<polygon fill="midnightblue" stroke="midnightblue" points="838.643,-24.7455 828.551,-21.5198 834.429,-30.3348 838.643,-24.7455"/>
</g>
<!-- Node24&#45;&gt;Node8 -->
<g id="edge76" class="edge"><title>Node24&#45;&gt;Node8</title>
<path fill="none" stroke="midnightblue" d="M793.888,-117.523C725.365,-110.361 634.541,-98.8351 545.952,-79.9311"/>
<polygon fill="midnightblue" stroke="midnightblue" points="546.515,-76.4718 536,-77.7739 545.032,-83.3129 546.515,-76.4718"/>
</g>
<!-- Node24&#45;&gt;Node20 -->
<g id="edge82" class="edge"><title>Node24&#45;&gt;Node20</title>
<path fill="none" stroke="midnightblue" d="M877.639,-116.497C857.309,-107.356 827.622,-94.0082 804.891,-83.7883"/>
<polygon fill="midnightblue" stroke="midnightblue" points="806.179,-80.5298 795.623,-79.6212 803.308,-86.9142 806.179,-80.5298"/>
</g>
<!-- Node24&#45;&gt;Node21 -->
<g id="edge80" class="edge"><title>Node24&#45;&gt;Node21</title>
<path fill="none" stroke="midnightblue" d="M912.259,-116.295C933.321,-96.2682 978.865,-52.9641 1004.5,-28.5893"/>
<polygon fill="midnightblue" stroke="midnightblue" points="1006.93,-31.1063 1011.77,-21.6792 1002.11,-26.0334 1006.93,-31.1063"/>
</g>
<!-- Node25&#45;&gt;Node4 -->
<g id="edge88" class="edge"><title>Node25&#45;&gt;Node4</title>
<path fill="none" stroke="midnightblue" d="M974.612,-174.349C998.937,-161.796 1031.42,-139.634 1017,-116 979.299,-54.1935 892.302,-27.2224 845.011,-16.7766"/>
<polygon fill="midnightblue" stroke="midnightblue" points="845.506,-13.3044 835.001,-14.6822 844.072,-20.156 845.506,-13.3044"/>
</g>
<!-- Node25&#45;&gt;Node17 -->
<g id="edge92" class="edge"><title>Node25&#45;&gt;Node17</title>
<path fill="none" stroke="midnightblue" d="M903.192,-174.497C858.662,-164.714 792.193,-150.111 744.724,-139.682"/>
<polygon fill="midnightblue" stroke="midnightblue" points="745.416,-136.25 734.898,-137.523 743.914,-143.087 745.416,-136.25"/>
</g>
<!-- Node25&#45;&gt;Node24 -->
<g id="edge90" class="edge"><title>Node25&#45;&gt;Node24</title>
<path fill="none" stroke="midnightblue" d="M941.829,-174.362C934.852,-166.268 925.079,-154.932 916.844,-145.38"/>
<polygon fill="midnightblue" stroke="midnightblue" points="919.293,-142.859 910.113,-137.571 913.991,-147.43 919.293,-142.859"/>
</g>
</g>
</svg>
