<?xml version="1.0" encoding="UTF-8" standalone="no"?>
<!DOCTYPE svg PUBLIC "-//W3C//DTD SVG 1.1//EN"
 "http://www.w3.org/Graphics/SVG/1.1/DTD/svg11.dtd">
<!-- Generated by graphviz version 2.26.3 (20100126.1600)
 -->
<!-- Title: G Pages: 1 -->
<svg width="156pt" height="480pt"
 viewBox="0.00 0.00 156.00 480.00" xmlns="http://www.w3.org/2000/svg" xmlns:xlink="http://www.w3.org/1999/xlink">
<g id="graph1" class="graph" transform="scale(1 1) rotate(0) translate(4 476)">
<title>G</title>
<polygon fill="white" stroke="white" points="-4,5 -4,-476 153,-476 153,5 -4,5"/>
<!-- Node1 -->
<g id="node1" class="node"><title>Node1</title>
<polygon fill="#bfbfbf" stroke="black" points="16,-0.5 16,-141.5 108,-141.5 108,-0.5 16,-0.5"/>
<text text-anchor="middle" x="62" y="-128.5" font-family="Helvetica,sans-Serif" font-size="10.00">Kinematics</text>
<polyline fill="none" stroke="black" points="16,-120.5 108,-120.5 "/>
<text text-anchor="start" x="24" y="-107.5" font-family="Helvetica,sans-Serif" font-size="10.00"># varNames</text>
<text text-anchor="start" x="24" y="-94.5" font-family="Helvetica,sans-Serif" font-size="10.00"># _inst</text>
<polyline fill="none" stroke="black" points="16,-86.5 108,-86.5 "/>
<text text-anchor="start" x="24" y="-73.5" font-family="Helvetica,sans-Serif" font-size="10.00">+ getVarNames()</text>
<text text-anchor="start" x="24" y="-60.5" font-family="Helvetica,sans-Serif" font-size="10.00">+ isWithinPhsp()</text>
<text text-anchor="start" x="24" y="-47.5" font-family="Helvetica,sans-Serif" font-size="10.00">+ instance()</text>
<text text-anchor="start" x="24" y="-34.5" font-family="Helvetica,sans-Serif" font-size="10.00"># Kinematics()</text>
<text text-anchor="start" x="24" y="-21.5" font-family="Helvetica,sans-Serif" font-size="10.00"># Kinematics()</text>
<text text-anchor="start" x="24" y="-8.5" font-family="Helvetica,sans-Serif" font-size="10.00"># ~Kinematics()</text>
</g>
<!-- Node1&#45;&gt;Node1 -->
<g id="edge2" class="edge"><title>Node1&#45;&gt;Node1</title>
<path fill="none" stroke="#9a32cd" stroke-dasharray="5,2" d="M117.547,-85.4149C122.73,-82.4495 126,-77.6445 126,-71 126,-60.875 118.406,-55.0215 108.024,-53.4395"/>
<polygon fill="#9a32cd" stroke="#9a32cd" points="108.024,-88.5605 116.108,-81.151 112.772,-86.9922 117.52,-85.4239 117.52,-85.4239 117.52,-85.4239 112.772,-86.9922 118.931,-89.6968 108.024,-88.5605 108.024,-88.5605"/>
<text text-anchor="middle" x="137" y="-68.5" font-family="Helvetica,sans-Serif" font-size="10.00">_inst</text>
</g>
<!-- Node2 -->
<g id="node3" class="node"><title>Node2</title>
<polygon fill="white" stroke="#bfbfbf" points="-0.5,-192.5 -0.5,-255.5 124.5,-255.5 124.5,-192.5 -0.5,-192.5"/>
<text text-anchor="middle" x="62" y="-242.5" font-family="Helvetica,sans-Serif" font-size="10.00">std::vector&lt; std::string &gt;</text>
<polyline fill="none" stroke="#bfbfbf" points="-0.5,-234.5 124.5,-234.5 "/>
<text text-anchor="start" x="7.5" y="-221.5" font-family="Helvetica,sans-Serif" font-size="10.00">&#45; elements</text>
<polyline fill="none" stroke="#bfbfbf" points="-0.5,-213.5 124.5,-213.5 "/>
<text text-anchor="middle" x="62" y="-200.5" font-family="Helvetica,sans-Serif" font-size="10.00"> </text>
</g>
<!-- Node2&#45;&gt;Node1 -->
<g id="edge4" class="edge"><title>Node2&#45;&gt;Node1</title>
<path fill="none" stroke="#9a32cd" stroke-dasharray="5,2" d="M62,-182.199C62,-169.688 62,-155.606 62,-141.776"/>
<polygon fill="#9a32cd" stroke="#9a32cd" points="62,-192.298 57.5001,-182.298 62,-187.298 62.0001,-182.298 62.0001,-182.298 62.0001,-182.298 62,-187.298 66.5001,-182.298 62,-192.298 62,-192.298"/>
<text text-anchor="middle" x="85" y="-164.5" font-family="Helvetica,sans-Serif" font-size="10.00">varNames</text>
</g>
<!-- Node3 -->
<g id="node5" class="node"><title>Node3</title>
<a xlink:title="STL class.">
<polygon fill="white" stroke="#bfbfbf" points="32,-306.5 32,-369.5 92,-369.5 92,-306.5 32,-306.5"/>
<text text-anchor="middle" x="62" y="-356.5" font-family="Helvetica,sans-Serif" font-size="10.00">std::string</text>
<polyline fill="none" stroke="#bfbfbf" points="32,-348.5 92,-348.5 "/>
<text text-anchor="middle" x="62" y="-335.5" font-family="Helvetica,sans-Serif" font-size="10.00"> </text>
<polyline fill="none" stroke="#bfbfbf" points="32,-327.5 92,-327.5 "/>
<text text-anchor="middle" x="62" y="-314.5" font-family="Helvetica,sans-Serif" font-size="10.00"> </text>
</a>
</g>
<!-- Node3&#45;&gt;Node2 -->
<g id="edge6" class="edge"><title>Node3&#45;&gt;Node2</title>
<path fill="none" stroke="#9a32cd" stroke-dasharray="5,2" d="M62,-295.866C62,-282.538 62,-268.043 62,-255.585"/>
<polygon fill="#9a32cd" stroke="#9a32cd" points="62,-306.245 57.5001,-296.245 62,-301.245 62.0001,-296.245 62.0001,-296.245 62.0001,-296.245 62,-301.245 66.5001,-296.245 62,-306.245 62,-306.245"/>
<text text-anchor="middle" x="82" y="-278.5" font-family="Helvetica,sans-Serif" font-size="10.00">elements</text>
</g>
<!-- Node4 -->
<g id="node7" class="node"><title>Node4</title>
<a xlink:title="STL class.">
<polygon fill="white" stroke="#bfbfbf" points="-0.5,-408.5 -0.5,-471.5 124.5,-471.5 124.5,-408.5 -0.5,-408.5"/>
<text text-anchor="middle" x="62" y="-458.5" font-family="Helvetica,sans-Serif" font-size="10.00">std::basic_string&lt; char &gt;</text>
<polyline fill="none" stroke="#bfbfbf" points="-0.5,-450.5 124.5,-450.5 "/>
<text text-anchor="middle" x="62" y="-437.5" font-family="Helvetica,sans-Serif" font-size="10.00"> </text>
<polyline fill="none" stroke="#bfbfbf" points="-0.5,-429.5 124.5,-429.5 "/>
<text text-anchor="middle" x="62" y="-416.5" font-family="Helvetica,sans-Serif" font-size="10.00"> </text>
</a>
</g>
<!-- Node4&#45;&gt;Node3 -->
<g id="edge8" class="edge"><title>Node4&#45;&gt;Node3</title>
<path fill="none" stroke="midnightblue" d="M62,-398.194C62,-388.674 62,-378.712 62,-369.695"/>
<polygon fill="none" stroke="midnightblue" points="58.5001,-398.286 62,-408.286 65.5001,-398.286 58.5001,-398.286"/>
</g>
</g>
</svg>
