<?xml version="1.0" encoding="UTF-8" standalone="no"?>
<!DOCTYPE svg PUBLIC "-//W3C//DTD SVG 1.1//EN"
 "http://www.w3.org/Graphics/SVG/1.1/DTD/svg11.dtd">
<!-- Generated by graphviz version 2.26.3 (20100126.1600)
 -->
<!-- Title: G Pages: 1 -->
<svg width="571pt" height="204pt"
 viewBox="0.00 0.00 571.00 204.00" xmlns="http://www.w3.org/2000/svg" xmlns:xlink="http://www.w3.org/1999/xlink">
<g id="graph1" class="graph" transform="scale(1 1) rotate(0) translate(4 200)">
<title>G</title>
<polygon fill="white" stroke="white" points="-4,5 -4,-200 568,-200 568,5 -4,5"/>
<!-- Node1 -->
<g id="node1" class="node"><title>Node1</title>
<polygon fill="#bfbfbf" stroke="black" points="108.5,-174.5 108.5,-195.5 317.5,-195.5 317.5,-174.5 108.5,-174.5"/>
<text text-anchor="middle" x="213" y="-182.5" font-family="Helvetica,sans-Serif" font-size="10.00">Physics/DPKinematics/DalitzEfficiency.cpp</text>
</g>
<!-- Node2 -->
<g id="node3" class="node"><title>Node2</title>
<a xlink:href="../../dc/d1c/DalitzEfficiency_8hpp.xhtml" target="_top" xlink:title="Physics/DPKinematics/DalitzEfficiency.hpp">
<polygon fill="white" stroke="black" points="2.5,-116.5 2.5,-137.5 211.5,-137.5 211.5,-116.5 2.5,-116.5"/>
<text text-anchor="middle" x="107" y="-124.5" font-family="Helvetica,sans-Serif" font-size="10.00">Physics/DPKinematics/DalitzEfficiency.hpp</text>
</a>
</g>
<!-- Node1&#45;&gt;Node2 -->
<g id="edge2" class="edge"><title>Node1&#45;&gt;Node2</title>
<path fill="none" stroke="midnightblue" d="M193.558,-174.362C177.196,-165.409 153.587,-152.491 135.157,-142.406"/>
<polygon fill="midnightblue" stroke="midnightblue" points="136.771,-139.3 126.319,-137.571 133.411,-145.441 136.771,-139.3"/>
</g>
<!-- Node6 -->
<g id="node11" class="node"><title>Node6</title>
<a xlink:href="../../d8/dd4/DataPoint_8hpp.xhtml" target="_top" xlink:title="dataPoint stores kinematic information of a dalitz plot">
<polygon fill="white" stroke="black" points="228.5,-116.5 228.5,-137.5 411.5,-137.5 411.5,-116.5 228.5,-116.5"/>
<text text-anchor="middle" x="320" y="-124.5" font-family="Helvetica,sans-Serif" font-size="10.00">Physics/DPKinematics/DataPoint.hpp</text>
</a>
</g>
<!-- Node1&#45;&gt;Node6 -->
<g id="edge10" class="edge"><title>Node1&#45;&gt;Node6</title>
<path fill="none" stroke="midnightblue" d="M232.625,-174.362C249.141,-165.409 272.974,-152.491 291.578,-142.406"/>
<polygon fill="midnightblue" stroke="midnightblue" points="293.375,-145.413 300.499,-137.571 290.04,-139.259 293.375,-145.413"/>
</g>
<!-- Node3 -->
<g id="node5" class="node"><title>Node3</title>
<polygon fill="white" stroke="#bfbfbf" points="0,-58.5 0,-79.5 52,-79.5 52,-58.5 0,-58.5"/>
<text text-anchor="middle" x="26" y="-66.5" font-family="Helvetica,sans-Serif" font-size="10.00">memory</text>
</g>
<!-- Node2&#45;&gt;Node3 -->
<g id="edge4" class="edge"><title>Node2&#45;&gt;Node3</title>
<path fill="none" stroke="midnightblue" d="M92.1434,-116.362C80.1545,-107.777 63.0727,-95.5459 49.2715,-85.6636"/>
<polygon fill="midnightblue" stroke="midnightblue" points="50.9307,-82.5469 40.7625,-79.5707 46.8554,-88.2383 50.9307,-82.5469"/>
</g>
<!-- Node4 -->
<g id="node7" class="node"><title>Node4</title>
<polygon fill="white" stroke="#bfbfbf" points="70,-58.5 70,-79.5 144,-79.5 144,-58.5 70,-58.5"/>
<text text-anchor="middle" x="107" y="-66.5" font-family="Helvetica,sans-Serif" font-size="10.00">TEfficiency.h</text>
</g>
<!-- Node2&#45;&gt;Node4 -->
<g id="edge6" class="edge"><title>Node2&#45;&gt;Node4</title>
<path fill="none" stroke="midnightblue" d="M107,-116.362C107,-108.922 107,-98.7427 107,-89.7276"/>
<polygon fill="midnightblue" stroke="midnightblue" points="110.5,-89.5706 107,-79.5707 103.5,-89.5707 110.5,-89.5706"/>
</g>
<!-- Node5 -->
<g id="node9" class="node"><title>Node5</title>
<polygon fill="white" stroke="#bfbfbf" points="162,-58.5 162,-79.5 206,-79.5 206,-58.5 162,-58.5"/>
<text text-anchor="middle" x="184" y="-66.5" font-family="Helvetica,sans-Serif" font-size="10.00">TH2.h</text>
</g>
<!-- Node2&#45;&gt;Node5 -->
<g id="edge8" class="edge"><title>Node2&#45;&gt;Node5</title>
<path fill="none" stroke="midnightblue" d="M121.123,-116.362C132.52,-107.777 148.758,-95.5459 161.878,-85.6636"/>
<polygon fill="midnightblue" stroke="midnightblue" points="164.085,-88.3829 169.967,-79.5707 159.873,-82.7916 164.085,-88.3829"/>
</g>
<!-- Node7 -->
<g id="node13" class="node"><title>Node7</title>
<polygon fill="white" stroke="#bfbfbf" points="234.5,-58.5 234.5,-79.5 279.5,-79.5 279.5,-58.5 234.5,-58.5"/>
<text text-anchor="middle" x="257" y="-66.5" font-family="Helvetica,sans-Serif" font-size="10.00">cstdlib</text>
</g>
<!-- Node6&#45;&gt;Node7 -->
<g id="edge12" class="edge"><title>Node6&#45;&gt;Node7</title>
<path fill="none" stroke="midnightblue" d="M308.445,-116.362C299.387,-108.023 286.59,-96.2418 276.026,-86.5162"/>
<polygon fill="midnightblue" stroke="midnightblue" points="278.21,-83.7688 268.482,-79.5707 273.468,-88.9187 278.21,-83.7688"/>
</g>
<!-- Node8 -->
<g id="node15" class="node"><title>Node8</title>
<polygon fill="white" stroke="#bfbfbf" points="296.5,-58.5 296.5,-79.5 343.5,-79.5 343.5,-58.5 296.5,-58.5"/>
<text text-anchor="middle" x="320" y="-66.5" font-family="Helvetica,sans-Serif" font-size="10.00">math.h</text>
</g>
<!-- Node6&#45;&gt;Node8 -->
<g id="edge14" class="edge"><title>Node6&#45;&gt;Node8</title>
<path fill="none" stroke="midnightblue" d="M320,-116.362C320,-108.922 320,-98.7427 320,-89.7276"/>
<polygon fill="midnightblue" stroke="midnightblue" points="323.5,-89.5706 320,-79.5707 316.5,-89.5707 323.5,-89.5706"/>
</g>
<!-- Node9 -->
<g id="node17" class="node"><title>Node9</title>
<a xlink:href="../../d1/d72/DPKinematics_8hpp.xhtml" target="_top" xlink:title="DPKinematics stores kinematic information of a dalitz plot.">
<polygon fill="white" stroke="black" points="360.5,-58.5 360.5,-79.5 563.5,-79.5 563.5,-58.5 360.5,-58.5"/>
<text text-anchor="middle" x="462" y="-66.5" font-family="Helvetica,sans-Serif" font-size="10.00">Physics/DPKinematics/DPKinematics.hpp</text>
</a>
</g>
<!-- Node6&#45;&gt;Node9 -->
<g id="edge16" class="edge"><title>Node6&#45;&gt;Node9</title>
<path fill="none" stroke="midnightblue" d="M345.715,-116.497C368.293,-107.275 401.358,-93.7695 426.463,-83.5153"/>
<polygon fill="midnightblue" stroke="midnightblue" points="428.062,-86.6427 435.996,-79.6212 425.415,-80.1624 428.062,-86.6427"/>
</g>
<!-- Node10 -->
<g id="node19" class="node"><title>Node10</title>
<polygon fill="white" stroke="#bfbfbf" points="435,-0.5 435,-21.5 489,-21.5 489,-0.5 435,-0.5"/>
<text text-anchor="middle" x="462" y="-8.5" font-family="Helvetica,sans-Serif" font-size="10.00">iostream</text>
</g>
<!-- Node9&#45;&gt;Node10 -->
<g id="edge18" class="edge"><title>Node9&#45;&gt;Node10</title>
<path fill="none" stroke="midnightblue" d="M462,-58.3619C462,-50.9219 462,-40.7427 462,-31.7276"/>
<polygon fill="midnightblue" stroke="midnightblue" points="465.5,-31.5706 462,-21.5707 458.5,-31.5707 465.5,-31.5706"/>
</g>
</g>
</svg>
