<?xml version="1.0" encoding="UTF-8" standalone="no"?>
<!DOCTYPE svg PUBLIC "-//W3C//DTD SVG 1.1//EN"
 "http://www.w3.org/Graphics/SVG/1.1/DTD/svg11.dtd">
<!-- Generated by graphviz version 2.26.3 (20100126.1600)
 -->
<!-- Title: G Pages: 1 -->
<svg width="336pt" height="484pt"
 viewBox="0.00 0.00 336.00 484.00" xmlns="http://www.w3.org/2000/svg" xmlns:xlink="http://www.w3.org/1999/xlink">
<g id="graph1" class="graph" transform="scale(1 1) rotate(0) translate(4 480)">
<title>G</title>
<polygon fill="white" stroke="white" points="-4,5 -4,-480 333,-480 333,5 -4,5"/>
<!-- Node1 -->
<g id="node1" class="node"><title>Node1</title>
<polygon fill="#bfbfbf" stroke="black" points="121,-1 121,-233 225,-233 225,-1 121,-1"/>
<text text-anchor="middle" x="173" y="-220" font-family="Helvetica,sans-Serif" font-size="10.00">AbsParameter</text>
<polyline fill="none" stroke="black" points="121,-212 225,-212 "/>
<text text-anchor="start" x="129" y="-199" font-family="Helvetica,sans-Serif" font-size="10.00"># out_</text>
<text text-anchor="start" x="129" y="-186" font-family="Helvetica,sans-Serif" font-size="10.00"># outVal_</text>
<text text-anchor="start" x="129" y="-173" font-family="Helvetica,sans-Serif" font-size="10.00"># name_</text>
<text text-anchor="start" x="129" y="-160" font-family="Helvetica,sans-Serif" font-size="10.00"># type_</text>
<text text-anchor="start" x="129" y="-147" font-family="Helvetica,sans-Serif" font-size="10.00"># oberservingNodes</text>
<polyline fill="none" stroke="black" points="121,-139 225,-139 "/>
<text text-anchor="start" x="129" y="-126" font-family="Helvetica,sans-Serif" font-size="10.00">+ AbsParameter()</text>
<text text-anchor="start" x="129" y="-113" font-family="Helvetica,sans-Serif" font-size="10.00">+ GetName()</text>
<text text-anchor="start" x="129" y="-100" font-family="Helvetica,sans-Serif" font-size="10.00">+ type()</text>
<text text-anchor="start" x="129" y="-87" font-family="Helvetica,sans-Serif" font-size="10.00">+ TypeName()</text>
<text text-anchor="start" x="129" y="-74" font-family="Helvetica,sans-Serif" font-size="10.00">+ Attach()</text>
<text text-anchor="start" x="129" y="-61" font-family="Helvetica,sans-Serif" font-size="10.00">+ Detach()</text>
<text text-anchor="start" x="129" y="-48" font-family="Helvetica,sans-Serif" font-size="10.00">+ Notify()</text>
<text text-anchor="start" x="129" y="-35" font-family="Helvetica,sans-Serif" font-size="10.00">+ to_str()</text>
<text text-anchor="start" x="129" y="-22" font-family="Helvetica,sans-Serif" font-size="10.00">+ val_to_str()</text>
<text text-anchor="start" x="129" y="-9" font-family="Helvetica,sans-Serif" font-size="10.00"># make_str()</text>
</g>
<!-- Node2 -->
<g id="node2" class="node"><title>Node2</title>
<polygon fill="white" stroke="#bfbfbf" points="-0.5,-310.5 -0.5,-373.5 218.5,-373.5 218.5,-310.5 -0.5,-310.5"/>
<text text-anchor="middle" x="109" y="-360.5" font-family="Helvetica,sans-Serif" font-size="10.00">std::vector&lt; std::shared_ptr&lt; ParObserver &gt; &gt;</text>
<polyline fill="none" stroke="#bfbfbf" points="-0.5,-352.5 218.5,-352.5 "/>
<text text-anchor="start" x="7.5" y="-339.5" font-family="Helvetica,sans-Serif" font-size="10.00">&#45; elements</text>
<polyline fill="none" stroke="#bfbfbf" points="-0.5,-331.5 218.5,-331.5 "/>
<text text-anchor="middle" x="109" y="-318.5" font-family="Helvetica,sans-Serif" font-size="10.00"> </text>
</g>
<!-- Node2&#45;&gt;Node1 -->
<g id="edge2" class="edge"><title>Node2&#45;&gt;Node1</title>
<path fill="none" stroke="#9a32cd" stroke-dasharray="5,2" d="M120.771,-300.619C126.25,-281.354 133.072,-257.372 139.958,-233.163"/>
<polygon fill="#9a32cd" stroke="#9a32cd" points="118.034,-310.24 116.442,-299.391 119.402,-305.431 120.77,-300.622 120.77,-300.622 120.77,-300.622 119.402,-305.431 125.098,-301.853 118.034,-310.24 118.034,-310.24"/>
<text text-anchor="middle" x="172.5" y="-269.5" font-family="Helvetica,sans-Serif" font-size="10.00">oberservingNodes</text>
</g>
<!-- Node3 -->
<g id="node4" class="node"><title>Node3</title>
<a xlink:title="STL class.">
<polygon fill="white" stroke="#bfbfbf" points="236,-310.5 236,-373.5 296,-373.5 296,-310.5 236,-310.5"/>
<text text-anchor="middle" x="266" y="-360.5" font-family="Helvetica,sans-Serif" font-size="10.00">std::string</text>
<polyline fill="none" stroke="#bfbfbf" points="236,-352.5 296,-352.5 "/>
<text text-anchor="middle" x="266" y="-339.5" font-family="Helvetica,sans-Serif" font-size="10.00"> </text>
<polyline fill="none" stroke="#bfbfbf" points="236,-331.5 296,-331.5 "/>
<text text-anchor="middle" x="266" y="-318.5" font-family="Helvetica,sans-Serif" font-size="10.00"> </text>
</a>
</g>
<!-- Node3&#45;&gt;Node1 -->
<g id="edge4" class="edge"><title>Node3&#45;&gt;Node1</title>
<path fill="none" stroke="#9a32cd" stroke-dasharray="5,2" d="M249.005,-300.884C241.024,-281.574 231.066,-257.483 221.014,-233.163"/>
<polygon fill="#9a32cd" stroke="#9a32cd" points="252.873,-310.24 244.894,-302.718 250.963,-305.619 249.053,-300.999 249.053,-300.999 249.053,-300.999 250.963,-305.619 253.211,-299.28 252.873,-310.24 252.873,-310.24"/>
<text text-anchor="middle" x="260" y="-282.5" font-family="Helvetica,sans-Serif" font-size="10.00">out_</text>
<text text-anchor="middle" x="260" y="-269.5" font-family="Helvetica,sans-Serif" font-size="10.00">outVal_</text>
<text text-anchor="middle" x="260" y="-256.5" font-family="Helvetica,sans-Serif" font-size="10.00">name_</text>
</g>
<!-- Node4 -->
<g id="node6" class="node"><title>Node4</title>
<a xlink:title="STL class.">
<polygon fill="white" stroke="#bfbfbf" points="203.5,-412.5 203.5,-475.5 328.5,-475.5 328.5,-412.5 203.5,-412.5"/>
<text text-anchor="middle" x="266" y="-462.5" font-family="Helvetica,sans-Serif" font-size="10.00">std::basic_string&lt; char &gt;</text>
<polyline fill="none" stroke="#bfbfbf" points="203.5,-454.5 328.5,-454.5 "/>
<text text-anchor="middle" x="266" y="-441.5" font-family="Helvetica,sans-Serif" font-size="10.00"> </text>
<polyline fill="none" stroke="#bfbfbf" points="203.5,-433.5 328.5,-433.5 "/>
<text text-anchor="middle" x="266" y="-420.5" font-family="Helvetica,sans-Serif" font-size="10.00"> </text>
</a>
</g>
<!-- Node4&#45;&gt;Node3 -->
<g id="edge6" class="edge"><title>Node4&#45;&gt;Node3</title>
<path fill="none" stroke="midnightblue" d="M266,-402.194C266,-392.674 266,-382.712 266,-373.695"/>
<polygon fill="none" stroke="midnightblue" points="262.5,-402.286 266,-412.286 269.5,-402.286 262.5,-402.286"/>
</g>
</g>
</svg>
