<?xml version="1.0" encoding="UTF-8" standalone="no"?>
<!DOCTYPE svg PUBLIC "-//W3C//DTD SVG 1.1//EN"
 "http://www.w3.org/Graphics/SVG/1.1/DTD/svg11.dtd">
<!-- Generated by graphviz version 2.26.3 (20100126.1600)
 -->
<!-- Title: G Pages: 1 -->
<svg width="276pt" height="264pt"
 viewBox="0.00 0.00 276.00 264.00" xmlns="http://www.w3.org/2000/svg" xmlns:xlink="http://www.w3.org/1999/xlink">
<g id="graph1" class="graph" transform="scale(1 1) rotate(0) translate(4 260)">
<title>G</title>
<polygon fill="white" stroke="white" points="-4,5 -4,-260 273,-260 273,5 -4,5"/>
<!-- Node1 -->
<g id="node1" class="node"><title>Node1</title>
<polygon fill="#bfbfbf" stroke="black" points="79.5,-153 79.5,-255 186.5,-255 186.5,-153 79.5,-153"/>
<text text-anchor="middle" x="133" y="-242" font-family="Helvetica,sans-Serif" font-size="10.00">DalitzEfficiency</text>
<polyline fill="none" stroke="black" points="79.5,-234 186.5,-234 "/>
<text text-anchor="middle" x="133" y="-221" font-family="Helvetica,sans-Serif" font-size="10.00"> </text>
<polyline fill="none" stroke="black" points="79.5,-213 186.5,-213 "/>
<text text-anchor="start" x="87.5" y="-200" font-family="Helvetica,sans-Serif" font-size="10.00">+ DalitzEfficiency()</text>
<text text-anchor="start" x="87.5" y="-187" font-family="Helvetica,sans-Serif" font-size="10.00">+ DalitzEfficiency()</text>
<text text-anchor="start" x="87.5" y="-174" font-family="Helvetica,sans-Serif" font-size="10.00">+ ~DalitzEfficiency()</text>
<text text-anchor="start" x="87.5" y="-161" font-family="Helvetica,sans-Serif" font-size="10.00">+ evaluate()</text>
</g>
<!-- Node2 -->
<g id="node3" class="node"><title>Node2</title>
<a xlink:href="../../d7/d76/classDalitzHistEfficiency.xhtml" target="_top" xlink:title="Efficiency provided by a histogram.">
<polygon fill="white" stroke="black" points="-0.5,-0.5 -0.5,-115.5 124.5,-115.5 124.5,-0.5 -0.5,-0.5"/>
<text text-anchor="middle" x="62" y="-102.5" font-family="Helvetica,sans-Serif" font-size="10.00">DalitzHistEfficiency</text>
<polyline fill="none" stroke="black" points="-0.5,-94.5 124.5,-94.5 "/>
<text text-anchor="start" x="7.5" y="-81.5" font-family="Helvetica,sans-Serif" font-size="10.00">&#45; effHist</text>
<polyline fill="none" stroke="black" points="-0.5,-73.5 124.5,-73.5 "/>
<text text-anchor="start" x="7.5" y="-60.5" font-family="Helvetica,sans-Serif" font-size="10.00">+ evaluate()</text>
<text text-anchor="start" x="7.5" y="-47.5" font-family="Helvetica,sans-Serif" font-size="10.00">+ DalitzHistEfficiency()</text>
<text text-anchor="start" x="7.5" y="-34.5" font-family="Helvetica,sans-Serif" font-size="10.00">+ DalitzHistEfficiency()</text>
<text text-anchor="start" x="7.5" y="-21.5" font-family="Helvetica,sans-Serif" font-size="10.00">+ DalitzHistEfficiency()</text>
<text text-anchor="start" x="7.5" y="-8.5" font-family="Helvetica,sans-Serif" font-size="10.00">+ ~DalitzHistEfficiency()</text>
</a>
</g>
<!-- Node1&#45;&gt;Node2 -->
<g id="edge2" class="edge"><title>Node1&#45;&gt;Node2</title>
<path fill="none" stroke="midnightblue" d="M103.69,-143.728C99.1538,-134.401 94.4789,-124.788 89.9735,-115.523"/>
<polygon fill="none" stroke="midnightblue" points="100.647,-145.474 108.168,-152.936 106.942,-142.413 100.647,-145.474"/>
</g>
<!-- Node3 -->
<g id="node5" class="node"><title>Node3</title>
<a xlink:href="../../d5/dff/classDalitzPolyEfficiency.xhtml" target="_top" xlink:title="Efficiency provided by a polynomial.">
<polygon fill="white" stroke="black" points="142,-13.5 142,-102.5 268,-102.5 268,-13.5 142,-13.5"/>
<text text-anchor="middle" x="205" y="-89.5" font-family="Helvetica,sans-Serif" font-size="10.00">DalitzPolyEfficiency</text>
<polyline fill="none" stroke="black" points="142,-81.5 268,-81.5 "/>
<text text-anchor="middle" x="205" y="-68.5" font-family="Helvetica,sans-Serif" font-size="10.00"> </text>
<polyline fill="none" stroke="black" points="142,-60.5 268,-60.5 "/>
<text text-anchor="start" x="150" y="-47.5" font-family="Helvetica,sans-Serif" font-size="10.00">+ evaluate()</text>
<text text-anchor="start" x="150" y="-34.5" font-family="Helvetica,sans-Serif" font-size="10.00">+ DalitzPolyEfficiency()</text>
<text text-anchor="start" x="150" y="-21.5" font-family="Helvetica,sans-Serif" font-size="10.00">+ ~DalitzPolyEfficiency()</text>
</a>
</g>
<!-- Node1&#45;&gt;Node3 -->
<g id="edge4" class="edge"><title>Node1&#45;&gt;Node3</title>
<path fill="none" stroke="midnightblue" d="M162.77,-143.633C169.483,-130.02 176.495,-115.803 182.832,-102.953"/>
<polygon fill="none" stroke="midnightblue" points="159.466,-142.42 158.182,-152.936 165.744,-145.516 159.466,-142.42"/>
</g>
</g>
</svg>
