<?xml version="1.0" encoding="UTF-8" standalone="no"?>
<!DOCTYPE svg PUBLIC "-//W3C//DTD SVG 1.1//EN"
 "http://www.w3.org/Graphics/SVG/1.1/DTD/svg11.dtd">
<!-- Generated by graphviz version 2.36.0 (20140111.2315)
 -->
<!-- Title: /home/travis/build/ComPWA/ComPWA/Optimizer/Minuit2/MinuitIF.cpp Pages: 1 -->
<svg width="2210pt" height="434pt"
 viewBox="0.00 0.00 2210.00 434.00" xmlns="http://www.w3.org/2000/svg" xmlns:xlink="http://www.w3.org/1999/xlink">
<g id="graph0" class="graph" transform="scale(1 1) rotate(0) translate(4 430)">
<title>/home/travis/build/ComPWA/ComPWA/Optimizer/Minuit2/MinuitIF.cpp</title>
<polygon fill="white" stroke="none" points="-4,4 -4,-430 2206,-430 2206,4 -4,4"/>
<!-- Node1 -->
<g id="node1" class="node"><title>Node1</title>
<polygon fill="#bfbfbf" stroke="black" points="1092,-384.5 1092,-425.5 1248,-425.5 1248,-384.5 1092,-384.5"/>
<text text-anchor="start" x="1100" y="-413.5" font-family="Helvetica,sans-Serif" font-size="10.00">/home/travis/build</text>
<text text-anchor="start" x="1100" y="-402.5" font-family="Helvetica,sans-Serif" font-size="10.00">/ComPWA/ComPWA/Optimizer</text>
<text text-anchor="middle" x="1170" y="-391.5" font-family="Helvetica,sans-Serif" font-size="10.00">/Minuit2/MinuitIF.cpp</text>
</g>
<!-- Node2 -->
<g id="node2" class="node"><title>Node2</title>
<polygon fill="white" stroke="#bfbfbf" points="282,-56.5 282,-75.5 326,-75.5 326,-56.5 282,-56.5"/>
<text text-anchor="middle" x="304" y="-63.5" font-family="Helvetica,sans-Serif" font-size="10.00">vector</text>
</g>
<!-- Node1&#45;&gt;Node2 -->
<g id="edge1" class="edge"><title>Node1&#45;&gt;Node2</title>
<path fill="none" stroke="midnightblue" d="M1091.75,-402.626C835.514,-397.102 38,-371.365 38,-265 38,-265 38,-265 38,-195 38,-152.162 52.1599,-136.924 87,-112 116.275,-91.0566 218.679,-76.6887 271.674,-70.4724"/>
<polygon fill="midnightblue" stroke="midnightblue" points="272.346,-73.9185 281.884,-69.3042 271.551,-66.9638 272.346,-73.9185"/>
</g>
<!-- Node3 -->
<g id="node3" class="node"><title>Node3</title>
<polygon fill="white" stroke="#bfbfbf" points="1236.5,-322.5 1236.5,-341.5 1277.5,-341.5 1277.5,-322.5 1236.5,-322.5"/>
<text text-anchor="middle" x="1257" y="-329.5" font-family="Helvetica,sans-Serif" font-size="10.00">ctime</text>
</g>
<!-- Node1&#45;&gt;Node3 -->
<g id="edge2" class="edge"><title>Node1&#45;&gt;Node3</title>
<path fill="none" stroke="midnightblue" d="M1194.23,-384.223C1208.26,-372.778 1225.63,-358.603 1238.54,-348.067"/>
<polygon fill="midnightblue" stroke="midnightblue" points="1240.76,-350.769 1246.3,-341.735 1236.34,-345.346 1240.76,-350.769"/>
</g>
<!-- Node4 -->
<g id="node4" class="node"><title>Node4</title>
<polygon fill="white" stroke="#bfbfbf" points="839.5,-0.5 839.5,-19.5 880.5,-19.5 880.5,-0.5 839.5,-0.5"/>
<text text-anchor="middle" x="860" y="-7.5" font-family="Helvetica,sans-Serif" font-size="10.00">string</text>
</g>
<!-- Node1&#45;&gt;Node4 -->
<g id="edge3" class="edge"><title>Node1&#45;&gt;Node4</title>
<path fill="none" stroke="midnightblue" d="M1170,-384.204C1170,-357.244 1170,-307.472 1170,-265 1170,-265 1170,-265 1170,-195 1170,-66.1864 969.62,-25.5652 891.064,-14.5897"/>
<polygon fill="midnightblue" stroke="midnightblue" points="891.195,-11.0764 880.821,-13.2316 890.275,-18.0157 891.195,-11.0764"/>
</g>
<!-- Node5 -->
<g id="node5" class="node"><title>Node5</title>
<polygon fill="white" stroke="#bfbfbf" points="1144,-0.5 1144,-19.5 1196,-19.5 1196,-0.5 1144,-0.5"/>
<text text-anchor="middle" x="1170" y="-7.5" font-family="Helvetica,sans-Serif" font-size="10.00">sstream</text>
</g>
<!-- Node1&#45;&gt;Node5 -->
<g id="edge4" class="edge"><title>Node1&#45;&gt;Node5</title>
<path fill="none" stroke="midnightblue" d="M1179.01,-384.208C1190.24,-357.66 1208,-308.781 1208,-265 1208,-265 1208,-265 1208,-127 1208,-90.6128 1190.91,-50.8528 1179.65,-28.6136"/>
<polygon fill="midnightblue" stroke="midnightblue" points="1182.72,-26.9294 1174.97,-19.7035 1176.52,-30.1842 1182.72,-26.9294"/>
</g>
<!-- Node6 -->
<g id="node6" class="node"><title>Node6</title>
<polygon fill="white" stroke="#bfbfbf" points="467,-0.5 467,-19.5 521,-19.5 521,-0.5 467,-0.5"/>
<text text-anchor="middle" x="494" y="-7.5" font-family="Helvetica,sans-Serif" font-size="10.00">iostream</text>
</g>
<!-- Node1&#45;&gt;Node6 -->
<g id="edge5" class="edge"><title>Node1&#45;&gt;Node6</title>
<path fill="none" stroke="midnightblue" d="M1091.88,-402.462C862.835,-397.589 203.299,-380.844 112,-348 53.7009,-327.028 0,-326.957 0,-265 0,-265 0,-265 0,-127 0,-33.2409 341.519,-15.2019 456.635,-11.7846"/>
<polygon fill="midnightblue" stroke="midnightblue" points="456.837,-15.2804 466.737,-11.5054 456.644,-8.28311 456.837,-15.2804"/>
</g>
<!-- Node7 -->
<g id="node7" class="node"><title>Node7</title>
<polygon fill="white" stroke="#bfbfbf" points="582,-56.5 582,-75.5 634,-75.5 634,-56.5 582,-56.5"/>
<text text-anchor="middle" x="608" y="-63.5" font-family="Helvetica,sans-Serif" font-size="10.00">memory</text>
</g>
<!-- Node1&#45;&gt;Node7 -->
<g id="edge6" class="edge"><title>Node1&#45;&gt;Node7</title>
<path fill="none" stroke="midnightblue" d="M1157.24,-384.407C1150.57,-373.819 1142.46,-360.407 1136,-348 1098.3,-275.641 1124.09,-232.925 1062,-180 997.948,-125.406 740.096,-85.1522 644.177,-71.7964"/>
<polygon fill="midnightblue" stroke="midnightblue" points="644.476,-68.3045 634.092,-70.4085 643.521,-75.2392 644.476,-68.3045"/>
</g>
<!-- Node8 -->
<g id="node8" class="node"><title>Node8</title>
<polygon fill="white" stroke="#bfbfbf" points="1296,-322.5 1296,-341.5 1448,-341.5 1448,-322.5 1296,-322.5"/>
<text text-anchor="middle" x="1372" y="-329.5" font-family="Helvetica,sans-Serif" font-size="10.00">boost/archive/xml_iarchive.hpp</text>
</g>
<!-- Node1&#45;&gt;Node8 -->
<g id="edge7" class="edge"><title>Node1&#45;&gt;Node8</title>
<path fill="none" stroke="midnightblue" d="M1225.73,-384.411C1261.72,-371.762 1307.37,-355.715 1338.02,-344.943"/>
<polygon fill="midnightblue" stroke="midnightblue" points="1339.53,-348.122 1347.8,-341.504 1337.21,-341.519 1339.53,-348.122"/>
</g>
<!-- Node9 -->
<g id="node9" class="node"><title>Node9</title>
<polygon fill="white" stroke="#bfbfbf" points="1466,-322.5 1466,-341.5 1610,-341.5 1610,-322.5 1466,-322.5"/>
<text text-anchor="middle" x="1538" y="-329.5" font-family="Helvetica,sans-Serif" font-size="10.00">Minuit2/MnUserParameters.h</text>
</g>
<!-- Node1&#45;&gt;Node9 -->
<g id="edge8" class="edge"><title>Node1&#45;&gt;Node9</title>
<path fill="none" stroke="midnightblue" d="M1248.04,-388.943C1318.89,-375.273 1421.54,-355.47 1483.79,-343.459"/>
<polygon fill="midnightblue" stroke="midnightblue" points="1484.64,-346.859 1493.8,-341.528 1483.32,-339.986 1484.64,-346.859"/>
</g>
<!-- Node10 -->
<g id="node10" class="node"><title>Node10</title>
<polygon fill="white" stroke="#bfbfbf" points="1628,-322.5 1628,-341.5 1730,-341.5 1730,-322.5 1628,-322.5"/>
<text text-anchor="middle" x="1679" y="-329.5" font-family="Helvetica,sans-Serif" font-size="10.00">Minuit2/MnMigrad.h</text>
</g>
<!-- Node1&#45;&gt;Node10 -->
<g id="edge9" class="edge"><title>Node1&#45;&gt;Node10</title>
<path fill="none" stroke="midnightblue" d="M1248.31,-397.129C1338.26,-388.568 1490.04,-372.071 1619,-348 1625.23,-346.836 1631.79,-345.411 1638.18,-343.907"/>
<polygon fill="midnightblue" stroke="midnightblue" points="1639.13,-347.277 1648.02,-341.505 1637.47,-340.476 1639.13,-347.277"/>
</g>
<!-- Node11 -->
<g id="node11" class="node"><title>Node11</title>
<polygon fill="white" stroke="#bfbfbf" points="890.5,-186.5 890.5,-205.5 1027.5,-205.5 1027.5,-186.5 890.5,-186.5"/>
<text text-anchor="middle" x="959" y="-193.5" font-family="Helvetica,sans-Serif" font-size="10.00">Minuit2/FunctionMinimum.h</text>
</g>
<!-- Node1&#45;&gt;Node11 -->
<g id="edge10" class="edge"><title>Node1&#45;&gt;Node11</title>
<path fill="none" stroke="midnightblue" d="M1103.31,-384.393C1081.95,-375.754 1059.37,-363.87 1042,-348 1020.39,-328.258 983.322,-250.469 967.053,-214.909"/>
<polygon fill="midnightblue" stroke="midnightblue" points="970.198,-213.37 962.878,-205.71 963.823,-216.262 970.198,-213.37"/>
</g>
<!-- Node12 -->
<g id="node12" class="node"><title>Node12</title>
<polygon fill="white" stroke="#bfbfbf" points="1748.5,-322.5 1748.5,-341.5 1847.5,-341.5 1847.5,-322.5 1748.5,-322.5"/>
<text text-anchor="middle" x="1798" y="-329.5" font-family="Helvetica,sans-Serif" font-size="10.00">Minuit2/MnMinos.h</text>
</g>
<!-- Node1&#45;&gt;Node12 -->
<g id="edge11" class="edge"><title>Node1&#45;&gt;Node12</title>
<path fill="none" stroke="midnightblue" d="M1248.12,-399.934C1358.07,-393.387 1564.46,-378.081 1738,-348 1744.39,-346.893 1751.1,-345.474 1757.63,-343.951"/>
<polygon fill="midnightblue" stroke="midnightblue" points="1758.78,-347.274 1767.66,-341.504 1757.12,-340.473 1758.78,-347.274"/>
</g>
<!-- Node13 -->
<g id="node13" class="node"><title>Node13</title>
<polygon fill="white" stroke="#bfbfbf" points="1865.5,-322.5 1865.5,-341.5 1966.5,-341.5 1966.5,-322.5 1865.5,-322.5"/>
<text text-anchor="middle" x="1916" y="-329.5" font-family="Helvetica,sans-Serif" font-size="10.00">Minuit2/MnHesse.h</text>
</g>
<!-- Node1&#45;&gt;Node13 -->
<g id="edge12" class="edge"><title>Node1&#45;&gt;Node13</title>
<path fill="none" stroke="midnightblue" d="M1248.18,-401.774C1376.05,-397.206 1637.58,-383.969 1856,-348 1862.47,-346.935 1869.26,-345.526 1875.86,-343.996"/>
<polygon fill="midnightblue" stroke="midnightblue" points="1877.1,-347.295 1885.99,-341.526 1875.44,-340.495 1877.1,-347.295"/>
</g>
<!-- Node14 -->
<g id="node14" class="node"><title>Node14</title>
<polygon fill="white" stroke="#bfbfbf" points="859,-254.5 859,-273.5 969,-273.5 969,-254.5 859,-254.5"/>
<text text-anchor="middle" x="914" y="-261.5" font-family="Helvetica,sans-Serif" font-size="10.00">Minuit2/MnStrategy.h</text>
</g>
<!-- Node1&#45;&gt;Node14 -->
<g id="edge13" class="edge"><title>Node1&#45;&gt;Node14</title>
<path fill="none" stroke="midnightblue" d="M1091.68,-387.092C1060.76,-378.31 1025.81,-365.634 997,-348 967.89,-330.184 941.345,-300.156 926.468,-281.519"/>
<polygon fill="midnightblue" stroke="midnightblue" points="929.219,-279.355 920.313,-273.615 923.696,-283.656 929.219,-279.355"/>
</g>
<!-- Node15 -->
<g id="node15" class="node"><title>Node15</title>
<polygon fill="white" stroke="#bfbfbf" points="1984.5,-322.5 1984.5,-341.5 2077.5,-341.5 2077.5,-322.5 1984.5,-322.5"/>
<text text-anchor="middle" x="2031" y="-329.5" font-family="Helvetica,sans-Serif" font-size="10.00">Minuit2/MnPrint.h</text>
</g>
<!-- Node1&#45;&gt;Node15 -->
<g id="edge14" class="edge"><title>Node1&#45;&gt;Node15</title>
<path fill="none" stroke="midnightblue" d="M1248.01,-403.537C1392.45,-401.582 1710.91,-392.134 1975,-348 1980.98,-347.001 1987.24,-345.642 1993.33,-344.148"/>
<polygon fill="midnightblue" stroke="midnightblue" points="1994.52,-347.453 2003.32,-341.545 1992.76,-340.679 1994.52,-347.453"/>
</g>
<!-- Node16 -->
<g id="node16" class="node"><title>Node16</title>
<polygon fill="white" stroke="#bfbfbf" points="2095.5,-322.5 2095.5,-341.5 2202.5,-341.5 2202.5,-322.5 2095.5,-322.5"/>
<text text-anchor="middle" x="2149" y="-329.5" font-family="Helvetica,sans-Serif" font-size="10.00">Minuit2/MinosError.h</text>
</g>
<!-- Node1&#45;&gt;Node16 -->
<g id="edge15" class="edge"><title>Node1&#45;&gt;Node16</title>
<path fill="none" stroke="midnightblue" d="M1248.28,-403.755C1407.12,-402.259 1778.29,-393.688 2086,-348 2093.02,-346.957 2100.42,-345.516 2107.57,-343.936"/>
<polygon fill="midnightblue" stroke="midnightblue" points="2108.86,-347.23 2117.8,-341.553 2107.27,-340.412 2108.86,-347.23"/>
</g>
<!-- Node17 -->
<g id="node17" class="node"><title>Node17</title>
<g id="a_node17"><a xlink:href="../../da/d15/MinuitIF_8hpp.html" target="_top" xlink:title="This class provides a wrapper around the Minuit2 library. ">
<polygon fill="white" stroke="black" points="522,-317 522,-347 644,-347 644,-317 522,-317"/>
<text text-anchor="start" x="530" y="-335" font-family="Helvetica,sans-Serif" font-size="10.00">Optimizer/Minuit2/Minuit</text>
<text text-anchor="middle" x="583" y="-324" font-family="Helvetica,sans-Serif" font-size="10.00">IF.hpp</text>
</a>
</g>
</g>
<!-- Node1&#45;&gt;Node17 -->
<g id="edge16" class="edge"><title>Node1&#45;&gt;Node17</title>
<path fill="none" stroke="midnightblue" d="M1091.75,-394.535C977.029,-380.659 764.862,-354.997 654.26,-341.619"/>
<polygon fill="midnightblue" stroke="midnightblue" points="654.553,-338.129 644.205,-340.403 653.712,-345.079 654.553,-338.129"/>
</g>
<!-- Node19 -->
<g id="node19" class="node"><title>Node19</title>
<g id="a_node19"><a xlink:href="../../df/d9f/ParameterList_8hpp.html" target="_top" xlink:title="This class provides a list of fit parameters which can have different types. ">
<polygon fill="white" stroke="red" points="674,-118.5 674,-137.5 794,-137.5 794,-118.5 674,-118.5"/>
<text text-anchor="middle" x="734" y="-125.5" font-family="Helvetica,sans-Serif" font-size="10.00">Core/ParameterList.hpp</text>
</a>
</g>
</g>
<!-- Node1&#45;&gt;Node19 -->
<g id="edge55" class="edge"><title>Node1&#45;&gt;Node19</title>
<path fill="none" stroke="midnightblue" d="M1124.04,-384.251C1108.01,-375.303 1091.25,-363.258 1080,-348 1034.2,-285.868 1092.95,-232.1 1036,-180 1027.46,-172.189 890.85,-151.413 804.321,-138.92"/>
<polygon fill="midnightblue" stroke="midnightblue" points="804.686,-135.436 794.289,-137.476 803.688,-142.365 804.686,-135.436"/>
</g>
<!-- Node20 -->
<g id="node20" class="node"><title>Node20</title>
<g id="a_node20"><a xlink:href="../../db/dce/Parameter_8hpp.html" target="_top" xlink:title="This class implements some internal container of parameters. ">
<polygon fill="white" stroke="red" points="926,-56.5 926,-75.5 1030,-75.5 1030,-56.5 926,-56.5"/>
<text text-anchor="middle" x="978" y="-63.5" font-family="Helvetica,sans-Serif" font-size="10.00">Core/Parameter.hpp</text>
</a>
</g>
</g>
<!-- Node1&#45;&gt;Node20 -->
<g id="edge56" class="edge"><title>Node1&#45;&gt;Node20</title>
<path fill="none" stroke="midnightblue" d="M1160.99,-384.208C1149.76,-357.66 1132,-308.781 1132,-265 1132,-265 1132,-265 1132,-195 1132,-134.271 1060.3,-96.8214 1014.74,-79.1577"/>
<polygon fill="midnightblue" stroke="midnightblue" points="1015.77,-75.805 1005.18,-75.5877 1013.32,-82.3632 1015.77,-75.805"/>
</g>
<!-- Node22 -->
<g id="node22" class="node"><title>Node22</title>
<g id="a_node22"><a xlink:href="../../de/d88/FitResult_8hpp.html" target="_top" xlink:title="Core/FitResult.hpp">
<polygon fill="white" stroke="red" points="290.5,-186.5 290.5,-205.5 389.5,-205.5 389.5,-186.5 290.5,-186.5"/>
<text text-anchor="middle" x="340" y="-193.5" font-family="Helvetica,sans-Serif" font-size="10.00">Core/FitResult.hpp</text>
</a>
</g>
</g>
<!-- Node1&#45;&gt;Node22 -->
<g id="edge57" class="edge"><title>Node1&#45;&gt;Node22</title>
<path fill="none" stroke="midnightblue" d="M1091.93,-402.473C968.152,-398.906 719.689,-387.074 513,-348 408.678,-328.278 347.496,-365.091 284,-280 266.578,-256.652 295.966,-228.303 318.342,-211.506"/>
<polygon fill="midnightblue" stroke="midnightblue" points="320.386,-214.348 326.463,-205.669 316.3,-208.664 320.386,-214.348"/>
</g>
<!-- Node17&#45;&gt;Node2 -->
<g id="edge17" class="edge"><title>Node17&#45;&gt;Node2</title>
<path fill="none" stroke="midnightblue" d="M521.739,-326.301C436.875,-319.047 288.506,-303.461 240,-280 160.46,-241.529 130.114,-225.078 95,-144 64.6475,-73.9174 205.53,-66.141 271.496,-66.2463"/>
<polygon fill="midnightblue" stroke="midnightblue" points="271.747,-69.7483 281.775,-66.3278 271.803,-62.7485 271.747,-69.7483"/>
</g>
<!-- Node17&#45;&gt;Node7 -->
<g id="edge18" class="edge"><title>Node17&#45;&gt;Node7</title>
<path fill="none" stroke="midnightblue" d="M584.344,-316.806C588.55,-272.392 601.462,-136.045 606.217,-85.8251"/>
<polygon fill="midnightblue" stroke="midnightblue" points="609.714,-86.0269 607.172,-75.7414 602.745,-85.3669 609.714,-86.0269"/>
</g>
<!-- Node17&#45;&gt;Node14 -->
<g id="edge20" class="edge"><title>Node17&#45;&gt;Node14</title>
<path fill="none" stroke="midnightblue" d="M644.096,-318.818C706.43,-306.389 802.16,-287.3 861.277,-275.513"/>
<polygon fill="midnightblue" stroke="midnightblue" points="862.034,-278.931 871.156,-273.543 860.665,-272.066 862.034,-278.931"/>
</g>
<!-- Node18 -->
<g id="node18" class="node"><title>Node18</title>
<polygon fill="white" stroke="#bfbfbf" points="104.5,-113 104.5,-143 199.5,-143 199.5,-113 104.5,-113"/>
<text text-anchor="start" x="112.5" y="-131" font-family="Helvetica,sans-Serif" font-size="10.00">boost/serialization</text>
<text text-anchor="middle" x="152" y="-120" font-family="Helvetica,sans-Serif" font-size="10.00">/nvp.hpp</text>
</g>
<!-- Node17&#45;&gt;Node18 -->
<g id="edge19" class="edge"><title>Node17&#45;&gt;Node18</title>
<path fill="none" stroke="midnightblue" d="M521.948,-325.448C446.67,-317.772 323.796,-302.296 284,-280 228.745,-249.042 185.369,-185.843 164.888,-151.85"/>
<polygon fill="midnightblue" stroke="midnightblue" points="167.818,-149.928 159.727,-143.087 161.786,-153.48 167.818,-149.928"/>
</g>
<!-- Node17&#45;&gt;Node19 -->
<g id="edge21" class="edge"><title>Node17&#45;&gt;Node19</title>
<path fill="none" stroke="midnightblue" d="M634.195,-316.893C682.742,-300.485 752.888,-268.188 785,-212 792.057,-199.652 790.443,-193.14 785,-180 778.967,-165.435 766.532,-152.86 755.451,-143.841"/>
<polygon fill="midnightblue" stroke="midnightblue" points="757.441,-140.956 747.371,-137.664 753.189,-146.518 757.441,-140.956"/>
</g>
<!-- Node21 -->
<g id="node21" class="node"><title>Node21</title>
<g id="a_node21"><a xlink:href="../../db/d93/Optimizer_8hpp.html" target="_top" xlink:title="This class provides the interface to (external) optimization libraries or routines. ">
<polygon fill="white" stroke="black" points="293,-254.5 293,-273.5 415,-273.5 415,-254.5 293,-254.5"/>
<text text-anchor="middle" x="354" y="-261.5" font-family="Helvetica,sans-Serif" font-size="10.00">Optimizer/Optimizer.hpp</text>
</a>
</g>
</g>
<!-- Node17&#45;&gt;Node21 -->
<g id="edge31" class="edge"><title>Node17&#45;&gt;Node21</title>
<path fill="none" stroke="midnightblue" d="M534.155,-316.922C492.192,-304.828 432.461,-287.613 393.469,-276.375"/>
<polygon fill="midnightblue" stroke="midnightblue" points="394.118,-272.92 383.54,-273.514 392.18,-279.646 394.118,-272.92"/>
</g>
<!-- Node23 -->
<g id="node23" class="node"><title>Node23</title>
<g id="a_node23"><a xlink:href="../../de/d83/MinuitFcn_8hpp.html" target="_top" xlink:title="Based on the Minuit2 FcnBase. ">
<polygon fill="white" stroke="red" points="636,-181 636,-211 758,-211 758,-181 636,-181"/>
<text text-anchor="start" x="644" y="-199" font-family="Helvetica,sans-Serif" font-size="10.00">Optimizer/Minuit2/Minuit</text>
<text text-anchor="middle" x="697" y="-188" font-family="Helvetica,sans-Serif" font-size="10.00">Fcn.hpp</text>
</a>
</g>
</g>
<!-- Node17&#45;&gt;Node23 -->
<g id="edge42" class="edge"><title>Node17&#45;&gt;Node23</title>
<path fill="none" stroke="midnightblue" d="M595.2,-316.66C615.085,-293.286 654.62,-246.815 678.142,-219.167"/>
<polygon fill="midnightblue" stroke="midnightblue" points="681.074,-221.122 684.888,-211.237 675.742,-216.586 681.074,-221.122"/>
</g>
<!-- Node24 -->
<g id="node24" class="node"><title>Node24</title>
<g id="a_node24"><a xlink:href="../../d3/d89/MinuitResult_8hpp.html" target="_top" xlink:title="Optimizer/Minuit2/Minuit\lResult.hpp">
<polygon fill="white" stroke="red" points="433,-249 433,-279 555,-279 555,-249 433,-249"/>
<text text-anchor="start" x="441" y="-267" font-family="Helvetica,sans-Serif" font-size="10.00">Optimizer/Minuit2/Minuit</text>
<text text-anchor="middle" x="494" y="-256" font-family="Helvetica,sans-Serif" font-size="10.00">Result.hpp</text>
</a>
</g>
</g>
<!-- Node17&#45;&gt;Node24 -->
<g id="edge47" class="edge"><title>Node17&#45;&gt;Node24</title>
<path fill="none" stroke="midnightblue" d="M563.688,-316.679C551.241,-307.449 534.874,-295.311 521.129,-285.118"/>
<polygon fill="midnightblue" stroke="midnightblue" points="523.085,-282.212 512.968,-279.066 518.916,-287.834 523.085,-282.212"/>
</g>
<!-- Node19&#45;&gt;Node2 -->
<g id="edge26" class="edge"><title>Node19&#45;&gt;Node2</title>
<path fill="none" stroke="midnightblue" d="M673.758,-118.594C581.42,-105.71 408.067,-81.521 336.34,-71.5126"/>
<polygon fill="midnightblue" stroke="midnightblue" points="336.51,-68.0024 326.122,-70.0868 335.542,-74.9353 336.51,-68.0024"/>
</g>
<!-- Node19&#45;&gt;Node4 -->
<g id="edge23" class="edge"><title>Node19&#45;&gt;Node4</title>
<path fill="none" stroke="midnightblue" d="M742.971,-118.103C756.752,-104.504 784.05,-77.8263 808,-56 819.03,-45.9479 831.687,-34.9834 841.751,-26.3942"/>
<polygon fill="midnightblue" stroke="midnightblue" points="844.147,-28.9514 849.503,-19.8101 839.616,-23.616 844.147,-28.9514"/>
</g>
<!-- Node19&#45;&gt;Node5 -->
<g id="edge25" class="edge"><title>Node19&#45;&gt;Node5</title>
<path fill="none" stroke="midnightblue" d="M794.278,-122.2C856.716,-116.016 956.512,-102.708 1039,-76 1078.84,-63.1011 1121.72,-39.8433 1147.18,-24.928"/>
<polygon fill="midnightblue" stroke="midnightblue" points="1149.24,-27.777 1156.05,-19.6591 1145.67,-21.7595 1149.24,-27.777"/>
</g>
<!-- Node19&#45;&gt;Node6 -->
<g id="edge22" class="edge"><title>Node19&#45;&gt;Node6</title>
<path fill="none" stroke="midnightblue" d="M725.23,-118.3C709.848,-103.496 676.451,-73.3271 643,-56 607.107,-37.408 562.286,-25.1788 531.225,-18.2245"/>
<polygon fill="midnightblue" stroke="midnightblue" points="531.766,-14.7607 521.252,-16.0668 530.286,-21.6024 531.766,-14.7607"/>
</g>
<!-- Node19&#45;&gt;Node7 -->
<g id="edge24" class="edge"><title>Node19&#45;&gt;Node7</title>
<path fill="none" stroke="midnightblue" d="M715.947,-118.403C694.802,-108.334 659.56,-91.5522 635.122,-79.9151"/>
<polygon fill="midnightblue" stroke="midnightblue" points="636.553,-76.72 626.019,-75.5806 633.543,-83.04 636.553,-76.72"/>
</g>
<!-- Node19&#45;&gt;Node20 -->
<g id="edge27" class="edge"><title>Node19&#45;&gt;Node20</title>
<path fill="none" stroke="midnightblue" d="M768.7,-118.467C811.97,-107.827 886.006,-89.6215 933.432,-77.9593"/>
<polygon fill="midnightblue" stroke="midnightblue" points="934.545,-81.2901 943.42,-75.5034 932.873,-74.4926 934.545,-81.2901"/>
</g>
<!-- Node20&#45;&gt;Node4 -->
<g id="edge29" class="edge"><title>Node20&#45;&gt;Node4</title>
<path fill="none" stroke="midnightblue" d="M959.303,-56.4435C940.056,-47.6356 909.848,-33.8116 887.8,-23.722"/>
<polygon fill="midnightblue" stroke="midnightblue" points="889.16,-20.4951 878.61,-19.5164 886.247,-26.8603 889.16,-20.4951"/>
</g>
<!-- Node20&#45;&gt;Node5 -->
<g id="edge30" class="edge"><title>Node20&#45;&gt;Node5</title>
<path fill="none" stroke="midnightblue" d="M1008.42,-56.4435C1042.54,-46.8477 1097.83,-31.2984 1134.05,-21.1104"/>
<polygon fill="midnightblue" stroke="midnightblue" points="1135.05,-24.4652 1143.73,-18.3884 1133.16,-17.7267 1135.05,-24.4652"/>
</g>
<!-- Node20&#45;&gt;Node6 -->
<g id="edge28" class="edge"><title>Node20&#45;&gt;Node6</title>
<path fill="none" stroke="midnightblue" d="M925.744,-59.1697C827.308,-48.1873 616.628,-24.6816 531.166,-15.1466"/>
<polygon fill="midnightblue" stroke="midnightblue" points="531.47,-11.6589 521.143,-14.0284 530.693,-18.6157 531.47,-11.6589"/>
</g>
<!-- Node21&#45;&gt;Node2 -->
<g id="edge32" class="edge"><title>Node21&#45;&gt;Node2</title>
<path fill="none" stroke="midnightblue" d="M331.982,-254.425C314.63,-246.353 291.647,-232.427 281,-212 259.28,-170.331 280.772,-113.478 294.502,-84.9211"/>
<polygon fill="midnightblue" stroke="midnightblue" points="297.743,-86.2666 299.114,-75.7609 291.491,-83.1183 297.743,-86.2666"/>
</g>
<!-- Node21&#45;&gt;Node7 -->
<g id="edge33" class="edge"><title>Node21&#45;&gt;Node7</title>
<path fill="none" stroke="midnightblue" d="M365.242,-254.325C404.912,-223.714 538.655,-120.51 588.799,-81.8169"/>
<polygon fill="midnightblue" stroke="midnightblue" points="591.109,-84.4547 596.888,-75.5746 586.833,-78.9128 591.109,-84.4547"/>
</g>
<!-- Node21&#45;&gt;Node19 -->
<g id="edge34" class="edge"><title>Node21&#45;&gt;Node19</title>
<path fill="none" stroke="midnightblue" d="M378.349,-254.414C444.035,-231.251 624.986,-167.442 700.36,-140.863"/>
<polygon fill="midnightblue" stroke="midnightblue" points="701.587,-144.141 709.854,-137.515 699.259,-137.54 701.587,-144.141"/>
</g>
<!-- Node21&#45;&gt;Node22 -->
<g id="edge35" class="edge"><title>Node21&#45;&gt;Node22</title>
<path fill="none" stroke="midnightblue" d="M352.17,-254.372C350.106,-244.643 346.688,-228.528 343.999,-215.85"/>
<polygon fill="midnightblue" stroke="midnightblue" points="347.374,-214.897 341.875,-205.841 340.527,-216.35 347.374,-214.897"/>
</g>
<!-- Node22&#45;&gt;Node2 -->
<g id="edge36" class="edge"><title>Node22&#45;&gt;Node2</title>
<path fill="none" stroke="midnightblue" d="M337.526,-186.202C331.692,-165.459 316.978,-113.144 309.125,-85.2216"/>
<polygon fill="midnightblue" stroke="midnightblue" points="312.474,-84.2013 306.397,-75.5224 305.735,-86.0966 312.474,-84.2013"/>
</g>
<!-- Node22&#45;&gt;Node4 -->
<g id="edge37" class="edge"><title>Node22&#45;&gt;Node4</title>
<path fill="none" stroke="midnightblue" d="M343.291,-186.298C350.115,-169.423 367.422,-132.146 394,-112 463.804,-59.0886 736.639,-24.6376 829.136,-14.2831"/>
<polygon fill="midnightblue" stroke="midnightblue" points="829.695,-17.7427 839.251,-13.1669 828.927,-10.785 829.695,-17.7427"/>
</g>
<!-- Node22&#45;&gt;Node6 -->
<g id="edge38" class="edge"><title>Node22&#45;&gt;Node6</title>
<path fill="none" stroke="midnightblue" d="M329.72,-186.392C303.376,-163.322 237.918,-98.9455 273,-56 295.795,-28.0955 400.039,-17.0551 456.839,-13.0533"/>
<polygon fill="midnightblue" stroke="midnightblue" points="457.117,-16.5426 466.862,-12.3855 456.651,-9.55807 457.117,-16.5426"/>
</g>
<!-- Node22&#45;&gt;Node7 -->
<g id="edge39" class="edge"><title>Node22&#45;&gt;Node7</title>
<path fill="none" stroke="midnightblue" d="M348.116,-186.31C364.334,-169.455 402.59,-132.212 442,-112 483.776,-90.5746 536.856,-78.4923 571.595,-72.3586"/>
<polygon fill="midnightblue" stroke="midnightblue" points="572.477,-75.7593 581.754,-70.6423 571.311,-68.8571 572.477,-75.7593"/>
</g>
<!-- Node22&#45;&gt;Node18 -->
<g id="edge40" class="edge"><title>Node22&#45;&gt;Node18</title>
<path fill="none" stroke="midnightblue" d="M315.422,-186.372C286.642,-176.268 238.245,-159.277 201.568,-146.402"/>
<polygon fill="midnightblue" stroke="midnightblue" points="202.634,-143.066 192.039,-143.056 200.315,-149.671 202.634,-143.066"/>
</g>
<!-- Node22&#45;&gt;Node19 -->
<g id="edge41" class="edge"><title>Node22&#45;&gt;Node19</title>
<path fill="none" stroke="midnightblue" d="M389.501,-186.708C461.5,-174.647 595.003,-152.284 672.986,-139.221"/>
<polygon fill="midnightblue" stroke="midnightblue" points="673.86,-142.623 683.144,-137.519 672.703,-135.719 673.86,-142.623"/>
</g>
<!-- Node23&#45;&gt;Node2 -->
<g id="edge43" class="edge"><title>Node23&#45;&gt;Node2</title>
<path fill="none" stroke="midnightblue" d="M653.818,-180.936C574.187,-155 405.952,-100.206 335.782,-77.3513"/>
<polygon fill="midnightblue" stroke="midnightblue" points="336.755,-73.9874 326.163,-74.2184 334.587,-80.6432 336.755,-73.9874"/>
</g>
<!-- Node23&#45;&gt;Node4 -->
<g id="edge45" class="edge"><title>Node23&#45;&gt;Node4</title>
<path fill="none" stroke="midnightblue" d="M742.783,-180.93C763.033,-172.813 785.861,-160.813 802,-144 833.737,-110.937 849.658,-57.695 856.214,-29.6543"/>
<polygon fill="midnightblue" stroke="midnightblue" points="859.692,-30.1347 858.407,-19.618 852.853,-28.6401 859.692,-30.1347"/>
</g>
<!-- Node23&#45;&gt;Node7 -->
<g id="edge44" class="edge"><title>Node23&#45;&gt;Node7</title>
<path fill="none" stroke="midnightblue" d="M687.135,-180.813C670.609,-157.044 637.404,-109.288 619.716,-83.8502"/>
<polygon fill="midnightblue" stroke="midnightblue" points="622.544,-81.7861 613.961,-75.5738 616.797,-85.7823 622.544,-81.7861"/>
</g>
<!-- Node23&#45;&gt;Node19 -->
<g id="edge46" class="edge"><title>Node23&#45;&gt;Node19</title>
<path fill="none" stroke="midnightblue" d="M705.028,-180.679C710.626,-170.694 718.131,-157.307 724.1,-146.66"/>
<polygon fill="midnightblue" stroke="midnightblue" points="727.214,-148.263 729.051,-137.828 721.108,-144.84 727.214,-148.263"/>
</g>
<!-- Node24&#45;&gt;Node2 -->
<g id="edge48" class="edge"><title>Node24&#45;&gt;Node2</title>
<path fill="none" stroke="midnightblue" d="M480.336,-248.904C446.004,-213.488 356.273,-120.924 319.779,-83.2773"/>
<polygon fill="midnightblue" stroke="midnightblue" points="321.933,-80.4706 312.459,-75.7266 316.907,-85.3428 321.933,-80.4706"/>
</g>
<!-- Node24&#45;&gt;Node4 -->
<g id="edge49" class="edge"><title>Node24&#45;&gt;Node4</title>
<path fill="none" stroke="midnightblue" d="M555.272,-258.09C629.242,-251.175 748.299,-236.585 785,-212 842.349,-173.584 844.942,-143.364 860,-76 863.427,-60.6679 863.127,-42.7884 862.14,-29.6665"/>
<polygon fill="midnightblue" stroke="midnightblue" points="865.608,-29.1649 861.172,-19.5435 858.639,-29.8313 865.608,-29.1649"/>
</g>
<!-- Node24&#45;&gt;Node6 -->
<g id="edge50" class="edge"><title>Node24&#45;&gt;Node6</title>
<path fill="none" stroke="midnightblue" d="M494,-248.729C494,-205.829 494,-78.0207 494,-29.7447"/>
<polygon fill="midnightblue" stroke="midnightblue" points="497.5,-29.5175 494,-19.5176 490.5,-29.5176 497.5,-29.5175"/>
</g>
<!-- Node24&#45;&gt;Node7 -->
<g id="edge51" class="edge"><title>Node24&#45;&gt;Node7</title>
<path fill="none" stroke="midnightblue" d="M502.199,-248.904C522.538,-213.935 575.284,-123.248 597.69,-84.7268"/>
<polygon fill="midnightblue" stroke="midnightblue" points="600.922,-86.1305 602.924,-75.7266 594.871,-82.611 600.922,-86.1305"/>
</g>
<!-- Node24&#45;&gt;Node11 -->
<g id="edge52" class="edge"><title>Node24&#45;&gt;Node11</title>
<path fill="none" stroke="midnightblue" d="M555.324,-255.696C630.888,-246.492 763.138,-229.723 876,-212 885.03,-210.582 894.591,-208.964 903.887,-207.327"/>
<polygon fill="midnightblue" stroke="midnightblue" points="904.604,-210.755 913.833,-205.553 903.374,-203.864 904.604,-210.755"/>
</g>
<!-- Node24&#45;&gt;Node19 -->
<g id="edge53" class="edge"><title>Node24&#45;&gt;Node19</title>
<path fill="none" stroke="midnightblue" d="M555.277,-260.375C627.372,-255.851 740.624,-243.76 767,-212 783.347,-192.316 764.913,-163.526 749.742,-145.546"/>
<polygon fill="midnightblue" stroke="midnightblue" points="751.99,-142.809 742.723,-137.674 746.766,-147.467 751.99,-142.809"/>
</g>
<!-- Node24&#45;&gt;Node22 -->
<g id="edge54" class="edge"><title>Node24&#45;&gt;Node22</title>
<path fill="none" stroke="midnightblue" d="M460.963,-248.841C433.848,-237.221 395.794,-220.912 369.648,-209.706"/>
<polygon fill="midnightblue" stroke="midnightblue" points="370.828,-206.404 360.258,-205.682 368.07,-212.838 370.828,-206.404"/>
</g>
</g>
</svg>
