<?xml version="1.0" encoding="UTF-8" standalone="no"?>
<!DOCTYPE svg PUBLIC "-//W3C//DTD SVG 1.1//EN"
 "http://www.w3.org/Graphics/SVG/1.1/DTD/svg11.dtd">
<!-- Generated by graphviz version 2.36.0 (20140111.2315)
 -->
<!-- Title: /home/travis/build/ComPWA/ComPWA/Optimizer/Minuit2/MinuitIF.cpp Pages: 1 -->
<svg width="1726pt" height="434pt"
 viewBox="0.00 0.00 1726.44 434.00" xmlns="http://www.w3.org/2000/svg" xmlns:xlink="http://www.w3.org/1999/xlink">
<g id="graph0" class="graph" transform="scale(1 1) rotate(0) translate(4 430)">
<title>/home/travis/build/ComPWA/ComPWA/Optimizer/Minuit2/MinuitIF.cpp</title>
<polygon fill="white" stroke="none" points="-4,4 -4,-430 1722.44,-430 1722.44,4 -4,4"/>
<!-- Node1 -->
<g id="node1" class="node"><title>Node1</title>
<polygon fill="#bfbfbf" stroke="black" points="574.443,-384.5 574.443,-425.5 730.443,-425.5 730.443,-384.5 574.443,-384.5"/>
<text text-anchor="start" x="582.443" y="-413.5" font-family="Helvetica,sans-Serif" font-size="10.00">/home/travis/build</text>
<text text-anchor="start" x="582.443" y="-402.5" font-family="Helvetica,sans-Serif" font-size="10.00">/ComPWA/ComPWA/Optimizer</text>
<text text-anchor="middle" x="652.443" y="-391.5" font-family="Helvetica,sans-Serif" font-size="10.00">/Minuit2/MinuitIF.cpp</text>
</g>
<!-- Node2 -->
<g id="node2" class="node"><title>Node2</title>
<polygon fill="white" stroke="#bfbfbf" points="506.443,-56.5 506.443,-75.5 550.443,-75.5 550.443,-56.5 506.443,-56.5"/>
<text text-anchor="middle" x="528.443" y="-63.5" font-family="Helvetica,sans-Serif" font-size="10.00">vector</text>
</g>
<!-- Node1&#45;&gt;Node2 -->
<g id="edge1" class="edge"><title>Node1&#45;&gt;Node2</title>
<path fill="none" stroke="midnightblue" d="M574.348,-403.629C464.322,-401.521 271.185,-391.512 218.443,-348 169.331,-307.484 183.572,-274.856 173.443,-212 171.18,-197.959 165.127,-191.538 173.443,-180 229.324,-102.469 286.302,-140.762 377.443,-112 418.457,-99.0564 466.05,-85.0378 496.669,-76.147"/>
<polygon fill="midnightblue" stroke="midnightblue" points="497.737,-79.4816 506.369,-73.3375 495.79,-72.758 497.737,-79.4816"/>
</g>
<!-- Node3 -->
<g id="node3" class="node"><title>Node3</title>
<polygon fill="white" stroke="#bfbfbf" points="44.4426,-322.5 44.4426,-341.5 88.4426,-341.5 88.4426,-322.5 44.4426,-322.5"/>
<text text-anchor="middle" x="66.4426" y="-329.5" font-family="Helvetica,sans-Serif" font-size="10.00">time.h</text>
</g>
<!-- Node1&#45;&gt;Node3 -->
<g id="edge2" class="edge"><title>Node1&#45;&gt;Node3</title>
<path fill="none" stroke="midnightblue" d="M574.23,-403.201C466.441,-400.49 266.891,-389.663 102.443,-348 99.4541,-347.243 96.39,-346.281 93.3715,-345.21"/>
<polygon fill="midnightblue" stroke="midnightblue" points="94.6211,-341.941 84.0338,-341.54 92.0606,-348.456 94.6211,-341.941"/>
</g>
<!-- Node4 -->
<g id="node4" class="node"><title>Node4</title>
<polygon fill="white" stroke="#bfbfbf" points="523.943,-0.5 523.943,-19.5 564.943,-19.5 564.943,-0.5 523.943,-0.5"/>
<text text-anchor="middle" x="544.443" y="-7.5" font-family="Helvetica,sans-Serif" font-size="10.00">string</text>
</g>
<!-- Node1&#45;&gt;Node4 -->
<g id="edge3" class="edge"><title>Node1&#45;&gt;Node4</title>
<path fill="none" stroke="midnightblue" d="M574.223,-401.401C459.613,-396.456 252.588,-382.874 187.443,-348 144.645,-325.089 116.443,-313.544 116.443,-265 116.443,-265 116.443,-265 116.443,-127 116.443,-44.6329 415.465,-18.9159 513.632,-12.6925"/>
<polygon fill="midnightblue" stroke="midnightblue" points="514.031,-16.1748 523.799,-12.0729 513.605,-9.18781 514.031,-16.1748"/>
</g>
<!-- Node5 -->
<g id="node5" class="node"><title>Node5</title>
<polygon fill="white" stroke="#bfbfbf" points="654.443,-0.5 654.443,-19.5 706.443,-19.5 706.443,-0.5 654.443,-0.5"/>
<text text-anchor="middle" x="680.443" y="-7.5" font-family="Helvetica,sans-Serif" font-size="10.00">sstream</text>
</g>
<!-- Node1&#45;&gt;Node5 -->
<g id="edge4" class="edge"><title>Node1&#45;&gt;Node5</title>
<path fill="none" stroke="midnightblue" d="M574.323,-402.667C416.405,-399.16 71.1215,-387.064 35.4426,-348 -155.501,-138.941 482.13,-37.652 644,-15.6555"/>
<polygon fill="midnightblue" stroke="midnightblue" points="644.942,-19.0608 654.389,-14.2645 644.013,-12.1227 644.942,-19.0608"/>
</g>
<!-- Node6 -->
<g id="node6" class="node"><title>Node6</title>
<polygon fill="white" stroke="#bfbfbf" points="967.443,-0.5 967.443,-19.5 1021.44,-19.5 1021.44,-0.5 967.443,-0.5"/>
<text text-anchor="middle" x="994.443" y="-7.5" font-family="Helvetica,sans-Serif" font-size="10.00">iostream</text>
</g>
<!-- Node1&#45;&gt;Node6 -->
<g id="edge5" class="edge"><title>Node1&#45;&gt;Node6</title>
<path fill="none" stroke="midnightblue" d="M730.735,-404.433C926.27,-404.701 1431.68,-400.164 1590.44,-348 1654.86,-326.836 1718.44,-332.802 1718.44,-265 1718.44,-265 1718.44,-265 1718.44,-127 1718.44,-56.7552 1180.21,-21.4067 1031.89,-12.9991"/>
<polygon fill="midnightblue" stroke="midnightblue" points="1031.68,-9.48212 1021.5,-12.4184 1031.29,-16.4712 1031.68,-9.48212"/>
</g>
<!-- Node7 -->
<g id="node7" class="node"><title>Node7</title>
<polygon fill="white" stroke="#bfbfbf" points="834.443,-56.5 834.443,-75.5 886.443,-75.5 886.443,-56.5 834.443,-56.5"/>
<text text-anchor="middle" x="860.443" y="-63.5" font-family="Helvetica,sans-Serif" font-size="10.00">memory</text>
</g>
<!-- Node1&#45;&gt;Node7 -->
<g id="edge6" class="edge"><title>Node1&#45;&gt;Node7</title>
<path fill="none" stroke="midnightblue" d="M730.54,-401.229C964.31,-391.904 1642.44,-356.933 1642.44,-265 1642.44,-265 1642.44,-265 1642.44,-195 1642.44,-101.218 1539.6,-134.022 1448.44,-112 1225.41,-58.122 1161.83,-98.0454 933.443,-76 921.57,-74.854 908.643,-73.3461 897.012,-71.893"/>
<polygon fill="midnightblue" stroke="midnightblue" points="897.124,-68.379 886.761,-70.5858 896.238,-75.3228 897.124,-68.379"/>
</g>
<!-- Node8 -->
<g id="node8" class="node"><title>Node8</title>
<polygon fill="white" stroke="#bfbfbf" points="258.443,-322.5 258.443,-341.5 342.443,-341.5 342.443,-322.5 258.443,-322.5"/>
<text text-anchor="middle" x="300.443" y="-329.5" font-family="Helvetica,sans-Serif" font-size="10.00">boost/timer.hpp</text>
</g>
<!-- Node1&#45;&gt;Node8 -->
<g id="edge7" class="edge"><title>Node1&#45;&gt;Node8</title>
<path fill="none" stroke="midnightblue" d="M574.339,-391.719C513.306,-381.582 426.526,-365.977 351.443,-348 346.806,-346.89 341.964,-345.617 337.189,-344.292"/>
<polygon fill="midnightblue" stroke="midnightblue" points="338.143,-340.925 327.566,-341.536 336.216,-347.655 338.143,-340.925"/>
</g>
<!-- Node9 -->
<g id="node9" class="node"><title>Node9</title>
<polygon fill="white" stroke="#bfbfbf" points="360.443,-322.5 360.443,-341.5 504.443,-341.5 504.443,-322.5 360.443,-322.5"/>
<text text-anchor="middle" x="432.443" y="-329.5" font-family="Helvetica,sans-Serif" font-size="10.00">Minuit2/MnUserParameters.h</text>
</g>
<!-- Node1&#45;&gt;Node9 -->
<g id="edge8" class="edge"><title>Node1&#45;&gt;Node9</title>
<path fill="none" stroke="midnightblue" d="M591.744,-384.411C552.21,-371.652 501.962,-355.436 468.582,-344.663"/>
<polygon fill="midnightblue" stroke="midnightblue" points="469.386,-341.245 458.794,-341.504 467.236,-347.907 469.386,-341.245"/>
</g>
<!-- Node10 -->
<g id="node10" class="node"><title>Node10</title>
<polygon fill="white" stroke="#bfbfbf" points="522.443,-322.5 522.443,-341.5 624.443,-341.5 624.443,-322.5 522.443,-322.5"/>
<text text-anchor="middle" x="573.443" y="-329.5" font-family="Helvetica,sans-Serif" font-size="10.00">Minuit2/MnMigrad.h</text>
</g>
<!-- Node1&#45;&gt;Node10 -->
<g id="edge9" class="edge"><title>Node1&#45;&gt;Node10</title>
<path fill="none" stroke="midnightblue" d="M630.437,-384.223C617.946,-372.996 602.53,-359.142 590.882,-348.673"/>
<polygon fill="midnightblue" stroke="midnightblue" points="592.939,-345.816 583.162,-341.735 588.26,-351.023 592.939,-345.816"/>
</g>
<!-- Node11 -->
<g id="node11" class="node"><title>Node11</title>
<polygon fill="white" stroke="#bfbfbf" points="182.943,-186.5 182.943,-205.5 319.943,-205.5 319.943,-186.5 182.943,-186.5"/>
<text text-anchor="middle" x="251.443" y="-193.5" font-family="Helvetica,sans-Serif" font-size="10.00">Minuit2/FunctionMinimum.h</text>
</g>
<!-- Node1&#45;&gt;Node11 -->
<g id="edge10" class="edge"><title>Node1&#45;&gt;Node11</title>
<path fill="none" stroke="midnightblue" d="M574.201,-398.958C459.873,-390.784 258.299,-372.995 236.443,-348 203.725,-310.583 227.38,-246.3 242.086,-215.075"/>
<polygon fill="midnightblue" stroke="midnightblue" points="245.357,-216.357 246.636,-205.84 239.077,-213.264 245.357,-216.357"/>
</g>
<!-- Node12 -->
<g id="node12" class="node"><title>Node12</title>
<polygon fill="white" stroke="#bfbfbf" points="680.943,-322.5 680.943,-341.5 779.943,-341.5 779.943,-322.5 680.943,-322.5"/>
<text text-anchor="middle" x="730.443" y="-329.5" font-family="Helvetica,sans-Serif" font-size="10.00">Minuit2/MnMinos.h</text>
</g>
<!-- Node1&#45;&gt;Node12 -->
<g id="edge11" class="edge"><title>Node1&#45;&gt;Node12</title>
<path fill="none" stroke="midnightblue" d="M674.17,-384.223C686.503,-372.996 701.723,-359.142 713.224,-348.673"/>
<polygon fill="midnightblue" stroke="midnightblue" points="715.807,-351.055 720.846,-341.735 711.095,-345.878 715.807,-351.055"/>
</g>
<!-- Node13 -->
<g id="node13" class="node"><title>Node13</title>
<polygon fill="white" stroke="#bfbfbf" points="797.943,-322.5 797.943,-341.5 898.943,-341.5 898.943,-322.5 797.943,-322.5"/>
<text text-anchor="middle" x="848.443" y="-329.5" font-family="Helvetica,sans-Serif" font-size="10.00">Minuit2/MnHesse.h</text>
</g>
<!-- Node1&#45;&gt;Node13 -->
<g id="edge12" class="edge"><title>Node1&#45;&gt;Node13</title>
<path fill="none" stroke="midnightblue" d="M706.519,-384.411C741.437,-371.762 785.736,-355.715 815.473,-344.943"/>
<polygon fill="midnightblue" stroke="midnightblue" points="816.755,-348.201 824.965,-341.504 814.371,-341.62 816.755,-348.201"/>
</g>
<!-- Node14 -->
<g id="node14" class="node"><title>Node14</title>
<polygon fill="white" stroke="#bfbfbf" points="388.443,-254.5 388.443,-273.5 498.443,-273.5 498.443,-254.5 388.443,-254.5"/>
<text text-anchor="middle" x="443.443" y="-261.5" font-family="Helvetica,sans-Serif" font-size="10.00">Minuit2/MnStrategy.h</text>
</g>
<!-- Node1&#45;&gt;Node14 -->
<g id="edge13" class="edge"><title>Node1&#45;&gt;Node14</title>
<path fill="none" stroke="midnightblue" d="M574.058,-404.773C468.931,-403.943 290.666,-395.348 249.443,-348 208.689,-301.191 306.841,-279.987 377.895,-270.997"/>
<polygon fill="midnightblue" stroke="midnightblue" points="378.653,-274.431 388.162,-269.758 377.815,-267.482 378.653,-274.431"/>
</g>
<!-- Node15 -->
<g id="node15" class="node"><title>Node15</title>
<polygon fill="white" stroke="#bfbfbf" points="1057.94,-322.5 1057.94,-341.5 1150.94,-341.5 1150.94,-322.5 1057.94,-322.5"/>
<text text-anchor="middle" x="1104.44" y="-329.5" font-family="Helvetica,sans-Serif" font-size="10.00">Minuit2/MnPrint.h</text>
</g>
<!-- Node1&#45;&gt;Node15 -->
<g id="edge14" class="edge"><title>Node1&#45;&gt;Node15</title>
<path fill="none" stroke="midnightblue" d="M730.69,-395.771C810.918,-386.671 939.077,-370.295 1048.44,-348 1053.93,-346.882 1059.67,-345.541 1065.31,-344.128"/>
<polygon fill="midnightblue" stroke="midnightblue" points="1066.45,-347.446 1075.25,-341.537 1064.69,-340.673 1066.45,-347.446"/>
</g>
<!-- Node16 -->
<g id="node16" class="node"><title>Node16</title>
<polygon fill="white" stroke="#bfbfbf" points="1168.94,-322.5 1168.94,-341.5 1275.94,-341.5 1275.94,-322.5 1168.94,-322.5"/>
<text text-anchor="middle" x="1222.44" y="-329.5" font-family="Helvetica,sans-Serif" font-size="10.00">Minuit2/MinosError.h</text>
</g>
<!-- Node1&#45;&gt;Node16 -->
<g id="edge15" class="edge"><title>Node1&#45;&gt;Node16</title>
<path fill="none" stroke="midnightblue" d="M730.601,-398.386C830.543,-390.517 1008.72,-374.164 1159.44,-348 1166.14,-346.837 1173.19,-345.387 1180.05,-343.85"/>
<polygon fill="midnightblue" stroke="midnightblue" points="1180.96,-347.233 1189.9,-341.559 1179.37,-340.414 1180.96,-347.233"/>
</g>
<!-- Node17 -->
<g id="node17" class="node"><title>Node17</title>
<g id="a_node17"><a xlink:href="../../da/d15/MinuitIF_8hpp.html" target="_top" xlink:title="This class provides a wrapper around the Minuit2 library. ">
<polygon fill="white" stroke="black" points="917.443,-317 917.443,-347 1039.44,-347 1039.44,-317 917.443,-317"/>
<text text-anchor="start" x="925.443" y="-335" font-family="Helvetica,sans-Serif" font-size="10.00">Optimizer/Minuit2/Minuit</text>
<text text-anchor="middle" x="978.443" y="-324" font-family="Helvetica,sans-Serif" font-size="10.00">IF.hpp</text>
</a>
</g>
</g>
<!-- Node1&#45;&gt;Node17 -->
<g id="edge16" class="edge"><title>Node1&#45;&gt;Node17</title>
<path fill="none" stroke="midnightblue" d="M730.528,-386.994C784.324,-375.277 855.242,-359.832 907.442,-348.463"/>
<polygon fill="midnightblue" stroke="midnightblue" points="908.266,-351.866 917.292,-346.318 906.776,-345.026 908.266,-351.866"/>
</g>
<!-- Node24 -->
<g id="node24" class="node"><title>Node24</title>
<g id="a_node24"><a xlink:href="../../df/d9f/ParameterList_8hpp.html" target="_top" xlink:title="This class provides a list of fit parameters which can have different types. ">
<polygon fill="white" stroke="red" points="620.443,-118.5 620.443,-137.5 740.443,-137.5 740.443,-118.5 620.443,-118.5"/>
<text text-anchor="middle" x="680.443" y="-125.5" font-family="Helvetica,sans-Serif" font-size="10.00">Core/ParameterList.hpp</text>
</a>
</g>
</g>
<!-- Node1&#45;&gt;Node24 -->
<g id="edge62" class="edge"><title>Node1&#45;&gt;Node24</title>
<path fill="none" stroke="midnightblue" d="M653.879,-384.447C654.199,-364.247 651.227,-333.301 632.443,-316 546.8,-237.117 309.134,-340.811 379.443,-248 415.127,-200.894 452.15,-232.859 507.443,-212 561.909,-191.452 622.628,-160.282 655.684,-142.566"/>
<polygon fill="midnightblue" stroke="midnightblue" points="657.495,-145.566 664.632,-137.736 654.17,-139.406 657.495,-145.566"/>
</g>
<!-- Node25 -->
<g id="node25" class="node"><title>Node25</title>
<g id="a_node25"><a xlink:href="../../db/dce/Parameter_8hpp.html" target="_top" xlink:title="This class implements some internal container of parameters. ">
<polygon fill="white" stroke="red" points="942.443,-56.5 942.443,-75.5 1046.44,-75.5 1046.44,-56.5 942.443,-56.5"/>
<text text-anchor="middle" x="994.443" y="-63.5" font-family="Helvetica,sans-Serif" font-size="10.00">Core/Parameter.hpp</text>
</a>
</g>
</g>
<!-- Node1&#45;&gt;Node25 -->
<g id="edge63" class="edge"><title>Node1&#45;&gt;Node25</title>
<path fill="none" stroke="midnightblue" d="M730.492,-402.163C910.584,-397.381 1350.73,-382.45 1494.44,-348 1582.47,-326.898 1680.44,-355.524 1680.44,-265 1680.44,-265 1680.44,-265 1680.44,-195 1680.44,-125.699 1614.2,-133.878 1548.44,-112 1458.72,-82.1475 1181.66,-71.6288 1056.71,-68.3378"/>
<polygon fill="midnightblue" stroke="midnightblue" points="1056.62,-64.8346 1046.53,-68.0771 1056.44,-71.8323 1056.62,-64.8346"/>
</g>
<!-- Node27 -->
<g id="node27" class="node"><title>Node27</title>
<g id="a_node27"><a xlink:href="../../de/d88/FitResult_8hpp.html" target="_top" xlink:title="Core/FitResult.hpp">
<polygon fill="white" stroke="red" points="948.943,-186.5 948.943,-205.5 1047.94,-205.5 1047.94,-186.5 948.943,-186.5"/>
<text text-anchor="middle" x="998.443" y="-193.5" font-family="Helvetica,sans-Serif" font-size="10.00">Core/FitResult.hpp</text>
</a>
</g>
</g>
<!-- Node1&#45;&gt;Node27 -->
<g id="edge64" class="edge"><title>Node1&#45;&gt;Node27</title>
<path fill="none" stroke="midnightblue" d="M730.502,-402.221C850.566,-398.333 1087.34,-386.098 1284.44,-348 1387.01,-328.174 1447.17,-363.877 1509.44,-280 1517.92,-268.581 1518.99,-258.544 1509.44,-248 1479.62,-215.058 1186.38,-202.494 1058.05,-198.547"/>
<polygon fill="midnightblue" stroke="midnightblue" points="1058.1,-195.047 1048,-198.245 1057.89,-202.044 1058.1,-195.047"/>
</g>
<!-- Node17&#45;&gt;Node2 -->
<g id="edge17" class="edge"><title>Node17&#45;&gt;Node2</title>
<path fill="none" stroke="midnightblue" d="M917.33,-317.642C913.992,-317.052 910.68,-316.499 907.443,-316 745.463,-291.023 689.149,-348.903 540.443,-280 521.906,-271.411 525.264,-257.989 507.443,-248 451.399,-216.589 406.81,-262.772 367.443,-212 322.774,-154.392 437.991,-100.912 496.627,-78.321"/>
<polygon fill="midnightblue" stroke="midnightblue" points="498.07,-81.5174 506.193,-74.7156 495.601,-74.9672 498.07,-81.5174"/>
</g>
<!-- Node17&#45;&gt;Node7 -->
<g id="edge18" class="edge"><title>Node17&#45;&gt;Node7</title>
<path fill="none" stroke="midnightblue" d="M965.594,-316.637C957.313,-306.838 946.763,-293.274 939.443,-280 919.998,-244.744 881.321,-130.246 866.456,-85.3246"/>
<polygon fill="midnightblue" stroke="midnightblue" points="869.743,-84.1172 863.289,-75.7155 863.095,-86.3086 869.743,-84.1172"/>
</g>
<!-- Node17&#45;&gt;Node14 -->
<g id="edge25" class="edge"><title>Node17&#45;&gt;Node14</title>
<path fill="none" stroke="midnightblue" d="M917.334,-317.615C913.995,-317.032 910.682,-316.488 907.443,-316 733.127,-289.736 686.681,-306.775 512.443,-280 504.69,-278.809 496.502,-277.276 488.581,-275.647"/>
<polygon fill="midnightblue" stroke="midnightblue" points="489.253,-272.211 478.743,-273.55 487.794,-279.058 489.253,-272.211"/>
</g>
<!-- Node18 -->
<g id="node18" class="node"><title>Node18</title>
<polygon fill="white" stroke="#bfbfbf" points="1102.44,-118.5 1102.44,-137.5 1152.44,-137.5 1152.44,-118.5 1102.44,-118.5"/>
<text text-anchor="middle" x="1127.44" y="-125.5" font-family="Helvetica,sans-Serif" font-size="10.00">fstream</text>
</g>
<!-- Node17&#45;&gt;Node18 -->
<g id="edge19" class="edge"><title>Node17&#45;&gt;Node18</title>
<path fill="none" stroke="midnightblue" d="M1039.82,-317.365C1042.73,-316.87 1045.61,-316.412 1048.44,-316 1099.29,-308.601 1474.56,-317.718 1509.44,-280 1613.23,-167.791 1275.45,-137.627 1162.75,-130.781"/>
<polygon fill="midnightblue" stroke="midnightblue" points="1162.76,-127.275 1152.57,-130.189 1162.35,-134.263 1162.76,-127.275"/>
</g>
<!-- Node19 -->
<g id="node19" class="node"><title>Node19</title>
<polygon fill="white" stroke="#bfbfbf" points="948.943,-249 948.943,-279 1043.94,-279 1043.94,-249 948.943,-249"/>
<text text-anchor="start" x="956.943" y="-267" font-family="Helvetica,sans-Serif" font-size="10.00">boost/serialization</text>
<text text-anchor="middle" x="996.443" y="-256" font-family="Helvetica,sans-Serif" font-size="10.00">/string.hpp</text>
</g>
<!-- Node17&#45;&gt;Node19 -->
<g id="edge20" class="edge"><title>Node17&#45;&gt;Node19</title>
<path fill="none" stroke="midnightblue" d="M982.348,-316.679C984.542,-308.636 987.338,-298.385 989.86,-289.137"/>
<polygon fill="midnightblue" stroke="midnightblue" points="993.29,-289.862 992.544,-279.293 986.537,-288.02 993.29,-289.862"/>
</g>
<!-- Node20 -->
<g id="node20" class="node"><title>Node20</title>
<polygon fill="white" stroke="#bfbfbf" points="1061.94,-249 1061.94,-279 1156.94,-279 1156.94,-249 1061.94,-249"/>
<text text-anchor="start" x="1069.94" y="-267" font-family="Helvetica,sans-Serif" font-size="10.00">boost/serialization</text>
<text text-anchor="middle" x="1109.44" y="-256" font-family="Helvetica,sans-Serif" font-size="10.00">/map.hpp</text>
</g>
<!-- Node17&#45;&gt;Node20 -->
<g id="edge21" class="edge"><title>Node17&#45;&gt;Node20</title>
<path fill="none" stroke="midnightblue" d="M1006.55,-316.841C1025.8,-307.141 1051.54,-294.174 1072.45,-283.636"/>
<polygon fill="midnightblue" stroke="midnightblue" points="1074.03,-286.76 1081.39,-279.135 1070.88,-280.509 1074.03,-286.76"/>
</g>
<!-- Node21 -->
<g id="node21" class="node"><title>Node21</title>
<polygon fill="white" stroke="#bfbfbf" points="1174.94,-254.5 1174.94,-273.5 1329.94,-273.5 1329.94,-254.5 1174.94,-254.5"/>
<text text-anchor="middle" x="1252.44" y="-261.5" font-family="Helvetica,sans-Serif" font-size="10.00">boost/archive/xml_oarchive.hpp</text>
</g>
<!-- Node17&#45;&gt;Node21 -->
<g id="edge22" class="edge"><title>Node17&#45;&gt;Node21</title>
<path fill="none" stroke="midnightblue" d="M1036.89,-316.922C1087.84,-304.648 1160.7,-287.099 1207.29,-275.877"/>
<polygon fill="midnightblue" stroke="midnightblue" points="1208.2,-279.258 1217.1,-273.514 1206.56,-272.453 1208.2,-279.258"/>
</g>
<!-- Node22 -->
<g id="node22" class="node"><title>Node22</title>
<polygon fill="white" stroke="#bfbfbf" points="1348.44,-254.5 1348.44,-273.5 1500.44,-273.5 1500.44,-254.5 1348.44,-254.5"/>
<text text-anchor="middle" x="1424.44" y="-261.5" font-family="Helvetica,sans-Serif" font-size="10.00">boost/archive/xml_iarchive.hpp</text>
</g>
<!-- Node17&#45;&gt;Node22 -->
<g id="edge23" class="edge"><title>Node17&#45;&gt;Node22</title>
<path fill="none" stroke="midnightblue" d="M1039.47,-317.595C1042.5,-317.032 1045.5,-316.497 1048.44,-316 1176.51,-294.373 1209.99,-299.164 1338.44,-280 1348.01,-278.573 1358.15,-276.925 1367.99,-275.255"/>
<polygon fill="midnightblue" stroke="midnightblue" points="1368.83,-278.661 1378.09,-273.515 1367.64,-271.763 1368.83,-278.661"/>
</g>
<!-- Node23 -->
<g id="node23" class="node"><title>Node23</title>
<polygon fill="white" stroke="#bfbfbf" points="1344.94,-113 1344.94,-143 1439.94,-143 1439.94,-113 1344.94,-113"/>
<text text-anchor="start" x="1352.94" y="-131" font-family="Helvetica,sans-Serif" font-size="10.00">boost/serialization</text>
<text text-anchor="middle" x="1392.44" y="-120" font-family="Helvetica,sans-Serif" font-size="10.00">/nvp.hpp</text>
</g>
<!-- Node17&#45;&gt;Node23 -->
<g id="edge24" class="edge"><title>Node17&#45;&gt;Node23</title>
<path fill="none" stroke="midnightblue" d="M1039.82,-317.352C1042.73,-316.861 1045.61,-316.406 1048.44,-316 1101.82,-308.332 1495.75,-319.521 1532.44,-280 1555.84,-254.799 1515.46,-191.431 1504.44,-180 1489.47,-164.468 1468.88,-153.254 1449.44,-145.368"/>
<polygon fill="midnightblue" stroke="midnightblue" points="1450.61,-142.067 1440.02,-141.76 1448.11,-148.604 1450.61,-142.067"/>
</g>
<!-- Node17&#45;&gt;Node24 -->
<g id="edge26" class="edge"><title>Node17&#45;&gt;Node24</title>
<path fill="none" stroke="midnightblue" d="M917.313,-317.749C913.979,-317.131 910.673,-316.544 907.443,-316 844.274,-305.37 663.815,-328.04 621.443,-280 585.706,-239.483 636.732,-174.83 664.501,-145.017"/>
<polygon fill="midnightblue" stroke="midnightblue" points="667.235,-147.223 671.625,-137.581 662.18,-142.38 667.235,-147.223"/>
</g>
<!-- Node26 -->
<g id="node26" class="node"><title>Node26</title>
<g id="a_node26"><a xlink:href="../../db/d93/Optimizer_8hpp.html" target="_top" xlink:title="This class provides the interface to (external) optimization libraries or routines. ">
<polygon fill="white" stroke="black" points="770.443,-254.5 770.443,-273.5 892.443,-273.5 892.443,-254.5 770.443,-254.5"/>
<text text-anchor="middle" x="831.443" y="-261.5" font-family="Helvetica,sans-Serif" font-size="10.00">Optimizer/Optimizer.hpp</text>
</a>
</g>
</g>
<!-- Node17&#45;&gt;Node26 -->
<g id="edge36" class="edge"><title>Node17&#45;&gt;Node26</title>
<path fill="none" stroke="midnightblue" d="M946.907,-316.841C921.139,-305.272 885.021,-289.055 860.073,-277.855"/>
<polygon fill="midnightblue" stroke="midnightblue" points="861.336,-274.585 850.779,-273.682 858.469,-280.971 861.336,-274.585"/>
</g>
<!-- Node28 -->
<g id="node28" class="node"><title>Node28</title>
<g id="a_node28"><a xlink:href="../../de/d83/MinuitFcn_8hpp.html" target="_top" xlink:title="Based on the Minuit2 FcnBase. ">
<polygon fill="white" stroke="red" points="376.443,-181 376.443,-211 498.443,-211 498.443,-181 376.443,-181"/>
<text text-anchor="start" x="384.443" y="-199" font-family="Helvetica,sans-Serif" font-size="10.00">Optimizer/Minuit2/Minuit</text>
<text text-anchor="middle" x="437.443" y="-188" font-family="Helvetica,sans-Serif" font-size="10.00">Fcn.hpp</text>
</a>
</g>
</g>
<!-- Node17&#45;&gt;Node28 -->
<g id="edge48" class="edge"><title>Node17&#45;&gt;Node28</title>
<path fill="none" stroke="midnightblue" d="M917.321,-317.699C913.985,-317.094 910.676,-316.523 907.443,-316 766.594,-293.228 722.461,-328.949 588.443,-280 564.359,-271.204 562.643,-260.826 540.443,-248 520.249,-236.334 497.026,-224.69 477.748,-215.479"/>
<polygon fill="midnightblue" stroke="midnightblue" points="479.167,-212.279 468.631,-211.164 476.172,-218.606 479.167,-212.279"/>
</g>
<!-- Node29 -->
<g id="node29" class="node"><title>Node29</title>
<g id="a_node29"><a xlink:href="../../d3/d89/MinuitResult_8hpp.html" target="_top" xlink:title="Optimizer/Minuit2/Minuit\lResult.hpp">
<polygon fill="white" stroke="red" points="630.443,-249 630.443,-279 752.443,-279 752.443,-249 630.443,-249"/>
<text text-anchor="start" x="638.443" y="-267" font-family="Helvetica,sans-Serif" font-size="10.00">Optimizer/Minuit2/Minuit</text>
<text text-anchor="middle" x="691.443" y="-256" font-family="Helvetica,sans-Serif" font-size="10.00">Result.hpp</text>
</a>
</g>
</g>
<!-- Node17&#45;&gt;Node29 -->
<g id="edge53" class="edge"><title>Node17&#45;&gt;Node29</title>
<path fill="none" stroke="midnightblue" d="M917.226,-316.922C871.886,-306.496 809.994,-292.263 762.476,-281.335"/>
<polygon fill="midnightblue" stroke="midnightblue" points="763.095,-277.886 752.565,-279.056 761.526,-284.708 763.095,-277.886"/>
</g>
<!-- Node24&#45;&gt;Node2 -->
<g id="edge31" class="edge"><title>Node24&#45;&gt;Node2</title>
<path fill="none" stroke="midnightblue" d="M658.665,-118.403C632.704,-108.156 589.131,-90.9561 559.608,-79.3021"/>
<polygon fill="midnightblue" stroke="midnightblue" points="560.767,-75.9968 550.18,-75.5806 558.197,-82.5079 560.767,-75.9968"/>
</g>
<!-- Node24&#45;&gt;Node4 -->
<g id="edge28" class="edge"><title>Node24&#45;&gt;Node4</title>
<path fill="none" stroke="midnightblue" d="M670.22,-118.281C647.169,-98.6192 590.905,-50.63 562.087,-26.0498"/>
<polygon fill="midnightblue" stroke="midnightblue" points="564.293,-23.3313 554.414,-19.5048 559.751,-28.6572 564.293,-23.3313"/>
</g>
<!-- Node24&#45;&gt;Node5 -->
<g id="edge30" class="edge"><title>Node24&#45;&gt;Node5</title>
<path fill="none" stroke="midnightblue" d="M680.443,-118.281C680.443,-99.5475 680.443,-55.098 680.443,-29.6822"/>
<polygon fill="midnightblue" stroke="midnightblue" points="683.943,-29.5047 680.443,-19.5048 676.943,-29.5048 683.943,-29.5047"/>
</g>
<!-- Node24&#45;&gt;Node6 -->
<g id="edge27" class="edge"><title>Node24&#45;&gt;Node6</title>
<path fill="none" stroke="midnightblue" d="M691.179,-118.373C710.348,-103.402 752.233,-72.627 792.443,-56 847.538,-33.2178 916.08,-21.0632 957.487,-15.3307"/>
<polygon fill="midnightblue" stroke="midnightblue" points="957.955,-18.7994 967.406,-14.0092 957.031,-11.8607 957.955,-18.7994"/>
</g>
<!-- Node24&#45;&gt;Node7 -->
<g id="edge29" class="edge"><title>Node24&#45;&gt;Node7</title>
<path fill="none" stroke="midnightblue" d="M706.232,-118.403C737.376,-108.022 789.924,-90.5062 824.896,-78.849"/>
<polygon fill="midnightblue" stroke="midnightblue" points="826.321,-82.0633 834.701,-75.5806 824.107,-75.4225 826.321,-82.0633"/>
</g>
<!-- Node24&#45;&gt;Node25 -->
<g id="edge32" class="edge"><title>Node24&#45;&gt;Node25</title>
<path fill="none" stroke="midnightblue" d="M725.098,-118.467C781.598,-107.671 878.861,-89.0856 939.754,-77.4501"/>
<polygon fill="midnightblue" stroke="midnightblue" points="940.776,-80.8181 949.942,-75.5034 939.462,-73.9425 940.776,-80.8181"/>
</g>
<!-- Node25&#45;&gt;Node4 -->
<g id="edge34" class="edge"><title>Node25&#45;&gt;Node4</title>
<path fill="none" stroke="midnightblue" d="M942.216,-57.7856C937.56,-57.1704 932.917,-56.5672 928.443,-56 797.24,-39.3682 640.53,-21.6813 575.296,-14.4156"/>
<polygon fill="midnightblue" stroke="midnightblue" points="575.597,-10.9277 565.272,-13.301 574.824,-17.8848 575.597,-10.9277"/>
</g>
<!-- Node25&#45;&gt;Node5 -->
<g id="edge35" class="edge"><title>Node25&#45;&gt;Node5</title>
<path fill="none" stroke="midnightblue" d="M944.688,-56.4435C881.198,-45.5248 772.885,-26.8977 716.681,-17.232"/>
<polygon fill="midnightblue" stroke="midnightblue" points="717.263,-13.7809 706.815,-15.5354 716.077,-20.6797 717.263,-13.7809"/>
</g>
<!-- Node25&#45;&gt;Node6 -->
<g id="edge33" class="edge"><title>Node25&#45;&gt;Node6</title>
<path fill="none" stroke="midnightblue" d="M994.443,-56.083C994.443,-49.0059 994.443,-38.8611 994.443,-29.9865"/>
<polygon fill="midnightblue" stroke="midnightblue" points="997.943,-29.751 994.443,-19.7511 990.943,-29.7511 997.943,-29.751"/>
</g>
<!-- Node26&#45;&gt;Node2 -->
<g id="edge37" class="edge"><title>Node26&#45;&gt;Node2</title>
<path fill="none" stroke="midnightblue" d="M811.606,-254.406C771.781,-236.705 680.039,-193.645 611.443,-144 585.717,-125.382 559.404,-99.5951 543.492,-83.1036"/>
<polygon fill="midnightblue" stroke="midnightblue" points="545.994,-80.6559 536.564,-75.8266 540.924,-85.4826 545.994,-80.6559"/>
</g>
<!-- Node26&#45;&gt;Node7 -->
<g id="edge38" class="edge"><title>Node26&#45;&gt;Node7</title>
<path fill="none" stroke="midnightblue" d="M833.998,-254.444C839.66,-235.025 853.179,-186.041 858.443,-144 860.905,-124.333 861.186,-101.628 860.987,-85.9953"/>
<polygon fill="midnightblue" stroke="midnightblue" points="864.478,-85.5116 860.769,-75.5871 857.479,-85.6582 864.478,-85.5116"/>
</g>
<!-- Node26&#45;&gt;Node24 -->
<g id="edge39" class="edge"><title>Node26&#45;&gt;Node24</title>
<path fill="none" stroke="midnightblue" d="M821.535,-254.208C796.359,-231.866 729.673,-172.688 697.836,-144.435"/>
<polygon fill="midnightblue" stroke="midnightblue" points="699.993,-141.67 690.19,-137.65 695.347,-146.906 699.993,-141.67"/>
</g>
<!-- Node26&#45;&gt;Node27 -->
<g id="edge40" class="edge"><title>Node26&#45;&gt;Node27</title>
<path fill="none" stroke="midnightblue" d="M853.275,-254.372C882.36,-242.877 933.999,-222.469 967.202,-209.346"/>
<polygon fill="midnightblue" stroke="midnightblue" points="968.856,-212.456 976.87,-205.526 966.283,-205.946 968.856,-212.456"/>
</g>
<!-- Node27&#45;&gt;Node2 -->
<g id="edge41" class="edge"><title>Node27&#45;&gt;Node2</title>
<path fill="none" stroke="midnightblue" d="M975.627,-186.409C931.994,-170.207 833.492,-134.73 748.443,-112 682.333,-94.3316 603.453,-79.7366 560.395,-72.3066"/>
<polygon fill="midnightblue" stroke="midnightblue" points="560.948,-68.8506 550.502,-70.6172 559.77,-75.7507 560.948,-68.8506"/>
</g>
<!-- Node27&#45;&gt;Node4 -->
<g id="edge42" class="edge"><title>Node27&#45;&gt;Node4</title>
<path fill="none" stroke="midnightblue" d="M996.271,-186.297C991.99,-170.364 981.292,-135.95 963.443,-112 940.047,-80.6077 931.377,-71.5421 895.443,-56 866.301,-43.3961 655.354,-21.8052 575.217,-13.9596"/>
<polygon fill="midnightblue" stroke="midnightblue" points="575.535,-10.474 565.242,-12.988 574.856,-17.4411 575.535,-10.474"/>
</g>
<!-- Node27&#45;&gt;Node6 -->
<g id="edge43" class="edge"><title>Node27&#45;&gt;Node6</title>
<path fill="none" stroke="midnightblue" d="M1007.2,-186.331C1028.49,-164.151 1079.54,-103.729 1055.44,-56 1048.64,-42.5199 1035.67,-32.083 1023.44,-24.6696"/>
<polygon fill="midnightblue" stroke="midnightblue" points="1024.79,-21.4099 1014.35,-19.5896 1021.37,-27.5214 1024.79,-21.4099"/>
</g>
<!-- Node27&#45;&gt;Node7 -->
<g id="edge45" class="edge"><title>Node27&#45;&gt;Node7</title>
<path fill="none" stroke="midnightblue" d="M993.323,-186.4C983.458,-170.338 960.473,-135.302 934.443,-112 920.382,-99.413 902.321,-88.3518 887.563,-80.3456"/>
<polygon fill="midnightblue" stroke="midnightblue" points="888.897,-77.0929 878.416,-75.5403 885.641,-83.2897 888.897,-77.0929"/>
</g>
<!-- Node27&#45;&gt;Node18 -->
<g id="edge44" class="edge"><title>Node27&#45;&gt;Node18</title>
<path fill="none" stroke="midnightblue" d="M1015.31,-186.372C1037.23,-175.156 1075.74,-155.453 1101.42,-142.314"/>
<polygon fill="midnightblue" stroke="midnightblue" points="1103.27,-145.301 1110.57,-137.63 1100.08,-139.069 1103.27,-145.301"/>
</g>
<!-- Node27&#45;&gt;Node23 -->
<g id="edge46" class="edge"><title>Node27&#45;&gt;Node23</title>
<path fill="none" stroke="midnightblue" d="M1047.94,-186.708C1120.93,-174.481 1257.13,-151.667 1334.61,-138.688"/>
<polygon fill="midnightblue" stroke="midnightblue" points="1335.4,-142.105 1344.68,-137.001 1334.24,-135.201 1335.4,-142.105"/>
</g>
<!-- Node27&#45;&gt;Node24 -->
<g id="edge47" class="edge"><title>Node27&#45;&gt;Node24</title>
<path fill="none" stroke="midnightblue" d="M957.196,-186.439C899.409,-174.446 794.414,-152.654 731.685,-139.635"/>
<polygon fill="midnightblue" stroke="midnightblue" points="732.119,-136.151 721.616,-137.546 730.696,-143.005 732.119,-136.151"/>
</g>
<!-- Node28&#45;&gt;Node2 -->
<g id="edge49" class="edge"><title>Node28&#45;&gt;Node2</title>
<path fill="none" stroke="midnightblue" d="M447.529,-180.813C464.427,-157.044 498.378,-109.288 516.463,-83.8502"/>
<polygon fill="midnightblue" stroke="midnightblue" points="519.405,-85.7521 522.347,-75.5738 513.7,-81.696 519.405,-85.7521"/>
</g>
<!-- Node28&#45;&gt;Node4 -->
<g id="edge51" class="edge"><title>Node28&#45;&gt;Node4</title>
<path fill="none" stroke="midnightblue" d="M436.499,-180.879C435.431,-153.94 436.677,-94.4726 464.443,-56 476.526,-39.2572 496.871,-27.9349 514.02,-20.8351"/>
<polygon fill="midnightblue" stroke="midnightblue" points="515.58,-23.9854 523.661,-17.1337 513.071,-17.4505 515.58,-23.9854"/>
</g>
<!-- Node28&#45;&gt;Node7 -->
<g id="edge50" class="edge"><title>Node28&#45;&gt;Node7</title>
<path fill="none" stroke="midnightblue" d="M461.654,-180.888C494.509,-162.345 555.539,-130.027 611.443,-112 685.061,-88.2605 775.206,-75.8888 824.316,-70.4779"/>
<polygon fill="midnightblue" stroke="midnightblue" points="824.869,-73.9388 834.441,-69.3975 824.126,-66.9784 824.869,-73.9388"/>
</g>
<!-- Node28&#45;&gt;Node24 -->
<g id="edge52" class="edge"><title>Node28&#45;&gt;Node24</title>
<path fill="none" stroke="midnightblue" d="M489.274,-180.922C534.086,-168.751 597.995,-151.393 639.35,-140.161"/>
<polygon fill="midnightblue" stroke="midnightblue" points="640.363,-143.513 649.096,-137.514 638.529,-136.757 640.363,-143.513"/>
</g>
<!-- Node29&#45;&gt;Node2 -->
<g id="edge54" class="edge"><title>Node29&#45;&gt;Node2</title>
<path fill="none" stroke="midnightblue" d="M662.697,-248.98C627.619,-230.244 569.415,-193.563 540.443,-144 530.013,-126.158 527.758,-102.194 527.635,-85.766"/>
<polygon fill="midnightblue" stroke="midnightblue" points="531.134,-85.8262 527.816,-75.7644 524.135,-85.6992 531.134,-85.8262"/>
</g>
<!-- Node29&#45;&gt;Node4 -->
<g id="edge55" class="edge"><title>Node29&#45;&gt;Node4</title>
<path fill="none" stroke="midnightblue" d="M635.815,-248.94C612.466,-240.977 586.206,-229.099 566.443,-212 515.185,-167.654 511.012,-142.407 497.443,-76 495.663,-67.2911 493.952,-64.1748 497.443,-56 502.589,-43.9469 512.724,-33.5764 522.269,-25.8389"/>
<polygon fill="midnightblue" stroke="midnightblue" points="524.482,-28.5532 530.364,-19.7409 520.271,-22.9619 524.482,-28.5532"/>
</g>
<!-- Node29&#45;&gt;Node6 -->
<g id="edge56" class="edge"><title>Node29&#45;&gt;Node6</title>
<path fill="none" stroke="midnightblue" d="M698.862,-248.822C721.246,-206.54 788.815,-82.608 825.443,-56 864.569,-27.5765 920.429,-17.1022 957.054,-13.2448"/>
<polygon fill="midnightblue" stroke="midnightblue" points="957.673,-16.7022 967.303,-12.285 957.02,-9.73271 957.673,-16.7022"/>
</g>
<!-- Node29&#45;&gt;Node7 -->
<g id="edge58" class="edge"><title>Node29&#45;&gt;Node7</title>
<path fill="none" stroke="midnightblue" d="M726.417,-248.979C744.727,-240.351 766.573,-227.889 782.443,-212 820.043,-174.353 844.202,-114.793 854.587,-85.0899"/>
<polygon fill="midnightblue" stroke="midnightblue" points="857.911,-86.1876 857.79,-75.5934 851.278,-83.9508 857.911,-86.1876"/>
</g>
<!-- Node29&#45;&gt;Node11 -->
<g id="edge61" class="edge"><title>Node29&#45;&gt;Node11</title>
<path fill="none" stroke="midnightblue" d="M630.262,-253.823C548.235,-241.519 403.133,-219.754 318.305,-207.029"/>
<polygon fill="midnightblue" stroke="midnightblue" points="318.676,-203.546 308.268,-205.524 317.638,-210.469 318.676,-203.546"/>
</g>
<!-- Node29&#45;&gt;Node18 -->
<g id="edge57" class="edge"><title>Node29&#45;&gt;Node18</title>
<path fill="none" stroke="midnightblue" d="M752.464,-249.587C755.495,-249.027 758.501,-248.494 761.443,-248 891.705,-226.14 940.044,-274.43 1056.44,-212 1084.46,-196.972 1106.24,-166.024 1117.93,-146.457"/>
<polygon fill="midnightblue" stroke="midnightblue" points="1121.04,-148.064 1122.97,-137.646 1114.96,-144.586 1121.04,-148.064"/>
</g>
<!-- Node29&#45;&gt;Node24 -->
<g id="edge59" class="edge"><title>Node29&#45;&gt;Node24</title>
<path fill="none" stroke="midnightblue" d="M690.265,-248.66C688.267,-224.32 684.213,-174.933 681.989,-147.837"/>
<polygon fill="midnightblue" stroke="midnightblue" points="685.466,-147.408 681.159,-137.728 678.489,-147.98 685.466,-147.408"/>
</g>
<!-- Node29&#45;&gt;Node27 -->
<g id="edge60" class="edge"><title>Node29&#45;&gt;Node27</title>
<path fill="none" stroke="midnightblue" d="M752.463,-249.882C809.96,-237.521 895.056,-219.226 948.589,-207.718"/>
<polygon fill="midnightblue" stroke="midnightblue" points="949.489,-211.104 958.53,-205.58 948.018,-204.261 949.489,-211.104"/>
</g>
</g>
</svg>
