<?xml version="1.0" encoding="UTF-8" standalone="no"?>
<!DOCTYPE svg PUBLIC "-//W3C//DTD SVG 1.1//EN"
 "http://www.w3.org/Graphics/SVG/1.1/DTD/svg11.dtd">
<!-- Generated by graphviz version 2.26.3 (20100126.1600)
 -->
<!-- Title: G Pages: 1 -->
<svg width="562pt" height="1228pt"
 viewBox="0.00 0.00 562.00 1228.00" xmlns="http://www.w3.org/2000/svg" xmlns:xlink="http://www.w3.org/1999/xlink">
<g id="graph1" class="graph" transform="scale(1 1) rotate(0) translate(4 1224)">
<title>G</title>
<polygon fill="white" stroke="white" points="-4,5 -4,-1224 559,-1224 559,5 -4,5"/>
<!-- Node1 -->
<g id="node1" class="node"><title>Node1</title>
<polygon fill="#bfbfbf" stroke="black" points="178,-0.5 178,-375.5 290,-375.5 290,-0.5 178,-0.5"/>
<text text-anchor="middle" x="234" y="-362.5" font-family="Helvetica,sans-Serif" font-size="10.00">RootReader</text>
<polyline fill="none" stroke="black" points="178,-354.5 290,-354.5 "/>
<text text-anchor="start" x="186" y="-341.5" font-family="Helvetica,sans-Serif" font-size="10.00"># _readFlag</text>
<text text-anchor="start" x="186" y="-328.5" font-family="Helvetica,sans-Serif" font-size="10.00"># fileName</text>
<text text-anchor="start" x="186" y="-315.5" font-family="Helvetica,sans-Serif" font-size="10.00"># treeName</text>
<text text-anchor="start" x="186" y="-302.5" font-family="Helvetica,sans-Serif" font-size="10.00"># fFile</text>
<text text-anchor="start" x="186" y="-289.5" font-family="Helvetica,sans-Serif" font-size="10.00"># fTree</text>
<text text-anchor="start" x="186" y="-276.5" font-family="Helvetica,sans-Serif" font-size="10.00"># fParticles</text>
<text text-anchor="start" x="186" y="-263.5" font-family="Helvetica,sans-Serif" font-size="10.00"># fmaxEvents</text>
<text text-anchor="start" x="186" y="-250.5" font-family="Helvetica,sans-Serif" font-size="10.00"># fEvent</text>
<text text-anchor="start" x="186" y="-237.5" font-family="Helvetica,sans-Serif" font-size="10.00"># fBinned</text>
<text text-anchor="start" x="186" y="-224.5" font-family="Helvetica,sans-Serif" font-size="10.00"># fmaxBins</text>
<text text-anchor="start" x="186" y="-211.5" font-family="Helvetica,sans-Serif" font-size="10.00"># fBins</text>
<text text-anchor="start" x="186" y="-198.5" font-family="Helvetica,sans-Serif" font-size="10.00"># fVarNames</text>
<text text-anchor="start" x="186" y="-185.5" font-family="Helvetica,sans-Serif" font-size="10.00"># fEvents</text>
<polyline fill="none" stroke="black" points="178,-177.5 290,-177.5 "/>
<text text-anchor="start" x="186" y="-164.5" font-family="Helvetica,sans-Serif" font-size="10.00">+ RootReader()</text>
<text text-anchor="start" x="186" y="-151.5" font-family="Helvetica,sans-Serif" font-size="10.00">+ RootReader()</text>
<text text-anchor="start" x="186" y="-138.5" font-family="Helvetica,sans-Serif" font-size="10.00">+ RootReader()</text>
<text text-anchor="start" x="186" y="-125.5" font-family="Helvetica,sans-Serif" font-size="10.00">+ getVariableNames()</text>
<text text-anchor="start" x="186" y="-112.5" font-family="Helvetica,sans-Serif" font-size="10.00">+ pushEvent()</text>
<text text-anchor="start" x="186" y="-99.5" font-family="Helvetica,sans-Serif" font-size="10.00">+ getEvent()</text>
<text text-anchor="start" x="186" y="-86.5" font-family="Helvetica,sans-Serif" font-size="10.00">+ getBin()</text>
<text text-anchor="start" x="186" y="-73.5" font-family="Helvetica,sans-Serif" font-size="10.00">+ getNEvents()</text>
<text text-anchor="start" x="186" y="-60.5" font-family="Helvetica,sans-Serif" font-size="10.00">+ getNBins()</text>
<text text-anchor="start" x="186" y="-47.5" font-family="Helvetica,sans-Serif" font-size="10.00">+ ~RootReader()</text>
<text text-anchor="start" x="186" y="-34.5" font-family="Helvetica,sans-Serif" font-size="10.00"># init()</text>
<text text-anchor="start" x="186" y="-21.5" font-family="Helvetica,sans-Serif" font-size="10.00"># storeEvents()</text>
<text text-anchor="start" x="186" y="-8.5" font-family="Helvetica,sans-Serif" font-size="10.00"># bin()</text>
</g>
<!-- Node2 -->
<g id="node2" class="node"><title>Node2</title>
<a xlink:href="../../d0/df3/classData.xhtml" target="_top" xlink:title="Data Interface Base&#45;Class.">
<polygon fill="white" stroke="black" points="-0.5,-426.5 -0.5,-567.5 82.5,-567.5 82.5,-426.5 -0.5,-426.5"/>
<text text-anchor="middle" x="41" y="-554.5" font-family="Helvetica,sans-Serif" font-size="10.00">Data</text>
<polyline fill="none" stroke="black" points="-0.5,-546.5 82.5,-546.5 "/>
<text text-anchor="middle" x="41" y="-533.5" font-family="Helvetica,sans-Serif" font-size="10.00"> </text>
<polyline fill="none" stroke="black" points="-0.5,-525.5 82.5,-525.5 "/>
<text text-anchor="start" x="7.5" y="-512.5" font-family="Helvetica,sans-Serif" font-size="10.00">+ Data()</text>
<text text-anchor="start" x="7.5" y="-499.5" font-family="Helvetica,sans-Serif" font-size="10.00">+ ~Data()</text>
<text text-anchor="start" x="7.5" y="-486.5" font-family="Helvetica,sans-Serif" font-size="10.00">+ pushEvent()</text>
<text text-anchor="start" x="7.5" y="-473.5" font-family="Helvetica,sans-Serif" font-size="10.00">+ getEvent()</text>
<text text-anchor="start" x="7.5" y="-460.5" font-family="Helvetica,sans-Serif" font-size="10.00">+ getBin()</text>
<text text-anchor="start" x="7.5" y="-447.5" font-family="Helvetica,sans-Serif" font-size="10.00">+ getNEvents()</text>
<text text-anchor="start" x="7.5" y="-434.5" font-family="Helvetica,sans-Serif" font-size="10.00">+ getNBins()</text>
</a>
</g>
<!-- Node2&#45;&gt;Node1 -->
<g id="edge2" class="edge"><title>Node2&#45;&gt;Node1</title>
<path fill="none" stroke="midnightblue" d="M87.9694,-421.8C115.111,-378.346 149.424,-323.409 177.969,-277.708"/>
<polygon fill="none" stroke="midnightblue" points="84.9695,-419.996 82.6405,-430.332 90.9066,-423.705 84.9695,-419.996"/>
</g>
<!-- Node3 -->
<g id="node4" class="node"><title>Node3</title>
<a xlink:title="STL class.">
<polygon fill="white" stroke="#bfbfbf" points="206,-938.5 206,-1001.5 266,-1001.5 266,-938.5 206,-938.5"/>
<text text-anchor="middle" x="236" y="-988.5" font-family="Helvetica,sans-Serif" font-size="10.00">std::string</text>
<polyline fill="none" stroke="#bfbfbf" points="206,-980.5 266,-980.5 "/>
<text text-anchor="middle" x="236" y="-967.5" font-family="Helvetica,sans-Serif" font-size="10.00"> </text>
<polyline fill="none" stroke="#bfbfbf" points="206,-959.5 266,-959.5 "/>
<text text-anchor="middle" x="236" y="-946.5" font-family="Helvetica,sans-Serif" font-size="10.00"> </text>
</a>
</g>
<!-- Node3&#45;&gt;Node1 -->
<g id="edge4" class="edge"><title>Node3&#45;&gt;Node1</title>
<path fill="none" stroke="#9a32cd" stroke-dasharray="5,2" d="M234.966,-928.182C233.512,-867.076 230.936,-749.796 230,-650 229.154,-559.766 229.824,-459.618 230.841,-375.696"/>
<polygon fill="#9a32cd" stroke="#9a32cd" points="235.207,-938.209 230.468,-928.32 235.087,-933.211 234.967,-928.212 234.967,-928.212 234.967,-928.212 235.087,-933.211 239.465,-928.104 235.207,-938.209 235.207,-938.209"/>
<text text-anchor="middle" x="251.5" y="-622" font-family="Helvetica,sans-Serif" font-size="10.00">treeName</text>
<text text-anchor="middle" x="251.5" y="-609" font-family="Helvetica,sans-Serif" font-size="10.00">fileName</text>
</g>
<!-- Node6 -->
<g id="node10" class="node"><title>Node6</title>
<a xlink:href="../../d5/da5/classEvent.xhtml" target="_top" xlink:title="Internal container for event information.">
<polygon fill="white" stroke="black" points="107.5,-668.5 107.5,-887.5 198.5,-887.5 198.5,-668.5 107.5,-668.5"/>
<text text-anchor="middle" x="153" y="-874.5" font-family="Helvetica,sans-Serif" font-size="10.00">Event</text>
<polyline fill="none" stroke="black" points="107.5,-866.5 198.5,-866.5 "/>
<text text-anchor="start" x="115.5" y="-853.5" font-family="Helvetica,sans-Serif" font-size="10.00"># fParticles</text>
<text text-anchor="start" x="115.5" y="-840.5" font-family="Helvetica,sans-Serif" font-size="10.00"># fWeight</text>
<text text-anchor="start" x="115.5" y="-827.5" font-family="Helvetica,sans-Serif" font-size="10.00"># fName</text>
<polyline fill="none" stroke="black" points="107.5,-819.5 198.5,-819.5 "/>
<text text-anchor="start" x="115.5" y="-806.5" font-family="Helvetica,sans-Serif" font-size="10.00">+ Event()</text>
<text text-anchor="start" x="115.5" y="-793.5" font-family="Helvetica,sans-Serif" font-size="10.00">+ Event()</text>
<text text-anchor="start" x="115.5" y="-780.5" font-family="Helvetica,sans-Serif" font-size="10.00">+ Event()</text>
<text text-anchor="start" x="115.5" y="-767.5" font-family="Helvetica,sans-Serif" font-size="10.00">+ addParticle()</text>
<text text-anchor="start" x="115.5" y="-754.5" font-family="Helvetica,sans-Serif" font-size="10.00">+ ~Event()</text>
<text text-anchor="start" x="115.5" y="-741.5" font-family="Helvetica,sans-Serif" font-size="10.00">+ setName()</text>
<text text-anchor="start" x="115.5" y="-728.5" font-family="Helvetica,sans-Serif" font-size="10.00">+ getName()</text>
<text text-anchor="start" x="115.5" y="-715.5" font-family="Helvetica,sans-Serif" font-size="10.00">+ getWeight()</text>
<text text-anchor="start" x="115.5" y="-702.5" font-family="Helvetica,sans-Serif" font-size="10.00">+ setWeight()</text>
<text text-anchor="start" x="115.5" y="-689.5" font-family="Helvetica,sans-Serif" font-size="10.00">+ getNParticles()</text>
<text text-anchor="start" x="115.5" y="-676.5" font-family="Helvetica,sans-Serif" font-size="10.00">+ getParticle()</text>
</a>
</g>
<!-- Node3&#45;&gt;Node6 -->
<g id="edge12" class="edge"><title>Node3&#45;&gt;Node6</title>
<path fill="none" stroke="#9a32cd" stroke-dasharray="5,2" d="M199.362,-934.133C195.868,-929.607 192.648,-924.854 190,-920 184.511,-909.936 179.808,-899.022 175.785,-887.868"/>
<polygon fill="#9a32cd" stroke="#9a32cd" points="205.884,-942.007 196.04,-937.176 202.695,-938.156 199.505,-934.306 199.505,-934.306 199.505,-934.306 202.695,-938.156 202.971,-931.435 205.884,-942.007 205.884,-942.007"/>
<text text-anchor="middle" x="205" y="-910.5" font-family="Helvetica,sans-Serif" font-size="10.00">fName</text>
</g>
<!-- Node9 -->
<g id="node17" class="node"><title>Node9</title>
<polygon fill="white" stroke="#bfbfbf" points="281.5,-586.5 281.5,-649.5 406.5,-649.5 406.5,-586.5 281.5,-586.5"/>
<text text-anchor="middle" x="344" y="-636.5" font-family="Helvetica,sans-Serif" font-size="10.00">std::vector&lt; std::string &gt;</text>
<polyline fill="none" stroke="#bfbfbf" points="281.5,-628.5 406.5,-628.5 "/>
<text text-anchor="start" x="289.5" y="-615.5" font-family="Helvetica,sans-Serif" font-size="10.00">&#45; elements</text>
<polyline fill="none" stroke="#bfbfbf" points="281.5,-607.5 406.5,-607.5 "/>
<text text-anchor="middle" x="344" y="-594.5" font-family="Helvetica,sans-Serif" font-size="10.00"> </text>
</g>
<!-- Node3&#45;&gt;Node9 -->
<g id="edge20" class="edge"><title>Node3&#45;&gt;Node9</title>
<path fill="none" stroke="#9a32cd" stroke-dasharray="5,2" d="M248.736,-928.491C270.585,-857.277 314.747,-713.342 334.304,-649.603"/>
<polygon fill="#9a32cd" stroke="#9a32cd" points="245.679,-938.453 244.311,-927.572 247.146,-933.672 248.613,-928.892 248.613,-928.892 248.613,-928.892 247.146,-933.672 252.915,-930.212 245.679,-938.453 245.679,-938.453"/>
<text text-anchor="middle" x="276" y="-910.5" font-family="Helvetica,sans-Serif" font-size="10.00">elements</text>
</g>
<!-- Node4 -->
<g id="node6" class="node"><title>Node4</title>
<a xlink:title="STL class.">
<polygon fill="white" stroke="#bfbfbf" points="173.5,-1104.5 173.5,-1167.5 298.5,-1167.5 298.5,-1104.5 173.5,-1104.5"/>
<text text-anchor="middle" x="236" y="-1154.5" font-family="Helvetica,sans-Serif" font-size="10.00">std::basic_string&lt; char &gt;</text>
<polyline fill="none" stroke="#bfbfbf" points="173.5,-1146.5 298.5,-1146.5 "/>
<text text-anchor="middle" x="236" y="-1133.5" font-family="Helvetica,sans-Serif" font-size="10.00"> </text>
<polyline fill="none" stroke="#bfbfbf" points="173.5,-1125.5 298.5,-1125.5 "/>
<text text-anchor="middle" x="236" y="-1112.5" font-family="Helvetica,sans-Serif" font-size="10.00"> </text>
</a>
</g>
<!-- Node4&#45;&gt;Node3 -->
<g id="edge6" class="edge"><title>Node4&#45;&gt;Node3</title>
<path fill="none" stroke="midnightblue" d="M236,-1094.25C236,-1065.56 236,-1028.05 236,-1001.78"/>
<polygon fill="none" stroke="midnightblue" points="232.5,-1094.39 236,-1104.39 239.5,-1094.39 232.5,-1094.39"/>
</g>
<!-- Node5 -->
<g id="node8" class="node"><title>Node5</title>
<polygon fill="white" stroke="#bfbfbf" points="99.5,-465.5 99.5,-528.5 206.5,-528.5 206.5,-465.5 99.5,-465.5"/>
<text text-anchor="middle" x="153" y="-515.5" font-family="Helvetica,sans-Serif" font-size="10.00">std::vector&lt; Event &gt;</text>
<polyline fill="none" stroke="#bfbfbf" points="99.5,-507.5 206.5,-507.5 "/>
<text text-anchor="start" x="107.5" y="-494.5" font-family="Helvetica,sans-Serif" font-size="10.00">&#45; elements</text>
<polyline fill="none" stroke="#bfbfbf" points="99.5,-486.5 206.5,-486.5 "/>
<text text-anchor="middle" x="153" y="-473.5" font-family="Helvetica,sans-Serif" font-size="10.00"> </text>
</g>
<!-- Node5&#45;&gt;Node1 -->
<g id="edge8" class="edge"><title>Node5&#45;&gt;Node1</title>
<path fill="none" stroke="#9a32cd" stroke-dasharray="5,2" d="M163.85,-455.61C169.525,-433.96 176.918,-405.757 184.771,-375.8"/>
<polygon fill="#9a32cd" stroke="#9a32cd" points="161.288,-465.384 159.471,-454.569 162.556,-460.547 163.824,-455.711 163.824,-455.711 163.824,-455.711 162.556,-460.547 168.176,-456.852 161.288,-465.384 161.288,-465.384"/>
<text text-anchor="middle" x="197" y="-398.5" font-family="Helvetica,sans-Serif" font-size="10.00">fEvents</text>
</g>
<!-- Node6&#45;&gt;Node5 -->
<g id="edge10" class="edge"><title>Node6&#45;&gt;Node5</title>
<path fill="none" stroke="#9a32cd" stroke-dasharray="5,2" d="M153,-658.12C153,-610.851 153,-560.398 153,-528.795"/>
<polygon fill="#9a32cd" stroke="#9a32cd" points="153,-668.151 148.5,-658.151 153,-663.151 153,-658.151 153,-658.151 153,-658.151 153,-663.151 157.5,-658.151 153,-668.151 153,-668.151"/>
<text text-anchor="middle" x="173" y="-615.5" font-family="Helvetica,sans-Serif" font-size="10.00">elements</text>
</g>
<!-- Node7 -->
<g id="node13" class="node"><title>Node7</title>
<polygon fill="white" stroke="#bfbfbf" points="54,-938.5 54,-1001.5 168,-1001.5 168,-938.5 54,-938.5"/>
<text text-anchor="middle" x="111" y="-988.5" font-family="Helvetica,sans-Serif" font-size="10.00">std::vector&lt; Particle &gt;</text>
<polyline fill="none" stroke="#bfbfbf" points="54,-980.5 168,-980.5 "/>
<text text-anchor="start" x="62" y="-967.5" font-family="Helvetica,sans-Serif" font-size="10.00">&#45; elements</text>
<polyline fill="none" stroke="#bfbfbf" points="54,-959.5 168,-959.5 "/>
<text text-anchor="middle" x="111" y="-946.5" font-family="Helvetica,sans-Serif" font-size="10.00"> </text>
</g>
<!-- Node7&#45;&gt;Node6 -->
<g id="edge14" class="edge"><title>Node7&#45;&gt;Node6</title>
<path fill="none" stroke="#9a32cd" stroke-dasharray="5,2" d="M113.81,-928.299C114.625,-920.841 115.668,-913.166 117,-906 118.118,-899.986 119.391,-893.845 120.773,-887.668"/>
<polygon fill="#9a32cd" stroke="#9a32cd" points="112.835,-938.267 109.33,-927.876 113.322,-933.291 113.809,-928.315 113.809,-928.315 113.809,-928.315 113.322,-933.291 118.287,-928.753 112.835,-938.267 112.835,-938.267"/>
<text text-anchor="middle" x="138" y="-910.5" font-family="Helvetica,sans-Serif" font-size="10.00">fParticles</text>
</g>
<!-- Node8 -->
<g id="node15" class="node"><title>Node8</title>
<a xlink:href="../../d2/d47/structParticle.xhtml" target="_top" xlink:title="Internal container representing a particle.">
<polygon fill="white" stroke="black" points="64,-1052.5 64,-1219.5 156,-1219.5 156,-1052.5 64,-1052.5"/>
<text text-anchor="middle" x="110" y="-1206.5" font-family="Helvetica,sans-Serif" font-size="10.00">Particle</text>
<polyline fill="none" stroke="black" points="64,-1198.5 156,-1198.5 "/>
<text text-anchor="start" x="72" y="-1185.5" font-family="Helvetica,sans-Serif" font-size="10.00">+ px</text>
<text text-anchor="start" x="72" y="-1172.5" font-family="Helvetica,sans-Serif" font-size="10.00">+ py</text>
<text text-anchor="start" x="72" y="-1159.5" font-family="Helvetica,sans-Serif" font-size="10.00">+ pz</text>
<text text-anchor="start" x="72" y="-1146.5" font-family="Helvetica,sans-Serif" font-size="10.00">+ E</text>
<text text-anchor="start" x="72" y="-1133.5" font-family="Helvetica,sans-Serif" font-size="10.00">+ pid</text>
<polyline fill="none" stroke="black" points="64,-1125.5 156,-1125.5 "/>
<text text-anchor="start" x="72" y="-1112.5" font-family="Helvetica,sans-Serif" font-size="10.00">+ Particle()</text>
<text text-anchor="start" x="72" y="-1099.5" font-family="Helvetica,sans-Serif" font-size="10.00">+ Particle()</text>
<text text-anchor="start" x="72" y="-1086.5" font-family="Helvetica,sans-Serif" font-size="10.00">+ Particle()</text>
<text text-anchor="start" x="72" y="-1073.5" font-family="Helvetica,sans-Serif" font-size="10.00">+ invariantMass()</text>
<text text-anchor="start" x="72" y="-1060.5" font-family="Helvetica,sans-Serif" font-size="10.00">+ invariantMass()</text>
</a>
</g>
<!-- Node8&#45;&gt;Node7 -->
<g id="edge16" class="edge"><title>Node8&#45;&gt;Node7</title>
<path fill="none" stroke="#9a32cd" stroke-dasharray="5,2" d="M110.567,-1041.92C110.654,-1027.4 110.739,-1013.34 110.81,-1001.57"/>
<polygon fill="#9a32cd" stroke="#9a32cd" points="110.506,-1052.03 106.066,-1042 110.536,-1047.03 110.566,-1042.03 110.566,-1042.03 110.566,-1042.03 110.536,-1047.03 115.066,-1042.05 110.506,-1052.03 110.506,-1052.03"/>
<text text-anchor="middle" x="131" y="-1024.5" font-family="Helvetica,sans-Serif" font-size="10.00">elements</text>
</g>
<!-- Node9&#45;&gt;Node1 -->
<g id="edge18" class="edge"><title>Node9&#45;&gt;Node1</title>
<path fill="none" stroke="#9a32cd" stroke-dasharray="5,2" d="M295.964,-578.721C293.34,-575.3 290.975,-571.718 289,-568 270.978,-534.078 258.035,-453.682 249.252,-375.532"/>
<polygon fill="#9a32cd" stroke="#9a32cd" points="302.492,-586.399 292.586,-581.696 299.253,-582.59 296.014,-578.781 296.014,-578.781 296.014,-578.781 299.253,-582.59 299.442,-575.865 302.492,-586.399 302.492,-586.399"/>
<text text-anchor="middle" x="314" y="-494.5" font-family="Helvetica,sans-Serif" font-size="10.00">fVarNames</text>
</g>
<!-- Node10 -->
<g id="node20" class="node"><title>Node10</title>
<polygon fill="white" stroke="#bfbfbf" points="348,-459 348,-535 554,-535 554,-459 348,-459"/>
<text text-anchor="middle" x="451" y="-522" font-family="Helvetica,sans-Serif" font-size="10.00">std::map&lt; int, std::pair&lt; double, double &gt; &gt;</text>
<polyline fill="none" stroke="#bfbfbf" points="348,-514 554,-514 "/>
<text text-anchor="start" x="356" y="-501" font-family="Helvetica,sans-Serif" font-size="10.00">&#45; keys</text>
<text text-anchor="start" x="356" y="-488" font-family="Helvetica,sans-Serif" font-size="10.00">&#45; elements</text>
<polyline fill="none" stroke="#bfbfbf" points="348,-480 554,-480 "/>
<text text-anchor="middle" x="451" y="-467" font-family="Helvetica,sans-Serif" font-size="10.00"> </text>
</g>
<!-- Node10&#45;&gt;Node1 -->
<g id="edge22" class="edge"><title>Node10&#45;&gt;Node1</title>
<path fill="none" stroke="#9a32cd" stroke-dasharray="5,2" d="M418.291,-450.424C384.412,-402.181 330.833,-325.887 290.159,-267.969"/>
<polygon fill="#9a32cd" stroke="#9a32cd" points="424.174,-458.801 414.744,-453.203 421.3,-454.709 418.427,-450.617 418.427,-450.617 418.427,-450.617 421.3,-454.709 422.109,-448.031 424.174,-458.801 424.174,-458.801"/>
<text text-anchor="middle" x="397.5" y="-398.5" font-family="Helvetica,sans-Serif" font-size="10.00">fBins</text>
</g>
</g>
</svg>
