<?xml version="1.0" encoding="UTF-8" standalone="no"?>
<!DOCTYPE svg PUBLIC "-//W3C//DTD SVG 1.1//EN"
 "http://www.w3.org/Graphics/SVG/1.1/DTD/svg11.dtd">
<!-- Generated by graphviz version 2.36.0 (20140111.2315)
 -->
<!-- Title: ComPWA::IEstimator Pages: 1 -->
<svg width="257pt" height="392pt"
 viewBox="0.00 0.00 257.00 392.00" xmlns="http://www.w3.org/2000/svg" xmlns:xlink="http://www.w3.org/1999/xlink">
<g id="graph0" class="graph" transform="scale(1 1) rotate(0) translate(4 388)">
<title>ComPWA::IEstimator</title>
<polygon fill="white" stroke="none" points="-4,4 -4,-388 253,-388 253,4 -4,4"/>
<!-- Node1 -->
<g id="node1" class="node"><title>Node1</title>
<polygon fill="#bfbfbf" stroke="black" points="68,-304.5 68,-383.5 180,-383.5 180,-304.5 68,-304.5"/>
<text text-anchor="middle" x="124" y="-371.5" font-family="Helvetica,sans-Serif" font-size="10.00">ComPWA::IEstimator</text>
<polyline fill="none" stroke="black" points="68,-364.5 180,-364.5 "/>
<text text-anchor="start" x="76" y="-352.5" font-family="Helvetica,sans-Serif" font-size="10.00"># f</text>
<polyline fill="none" stroke="black" points="68,-345.5 180,-345.5 "/>
<text text-anchor="start" x="76" y="-333.5" font-family="Helvetica,sans-Serif" font-size="10.00">+ controlParameter()</text>
<text text-anchor="start" x="76" y="-322.5" font-family="Helvetica,sans-Serif" font-size="10.00">+ GetTree()</text>
<text text-anchor="start" x="76" y="-311.5" font-family="Helvetica,sans-Serif" font-size="10.00">+ NSteps()</text>
</g>
<!-- Node2 -->
<g id="node2" class="node"><title>Node2</title>
<g id="a_node2"><a xlink:href="../../d9/ddf/classComPWA_1_1Estimator_1_1ChiOneD_1_1ChiOneD.html" target="_top" xlink:title="{ComPWA::Estimator::\lChiOneD::ChiOneD\n|&#45; kin_\l&#45; pPIF_\l&#45; pDIF_\l|+ ChiOneD()\l+ controlParameter()\l+ HasTree()\l+ GetTree()\l+ GetIntensity()\l}">
<polygon fill="white" stroke="black" points="-0.5,-67 -0.5,-201 114.5,-201 114.5,-67 -0.5,-67"/>
<text text-anchor="start" x="7.5" y="-189" font-family="Helvetica,sans-Serif" font-size="10.00">ComPWA::Estimator::</text>
<text text-anchor="middle" x="57" y="-178" font-family="Helvetica,sans-Serif" font-size="10.00">ChiOneD::ChiOneD</text>
<polyline fill="none" stroke="black" points="-0.5,-171 114.5,-171 "/>
<text text-anchor="start" x="7.5" y="-159" font-family="Helvetica,sans-Serif" font-size="10.00">&#45; kin_</text>
<text text-anchor="start" x="7.5" y="-148" font-family="Helvetica,sans-Serif" font-size="10.00">&#45; pPIF_</text>
<text text-anchor="start" x="7.5" y="-137" font-family="Helvetica,sans-Serif" font-size="10.00">&#45; pDIF_</text>
<polyline fill="none" stroke="black" points="-0.5,-130 114.5,-130 "/>
<text text-anchor="start" x="7.5" y="-118" font-family="Helvetica,sans-Serif" font-size="10.00">+ ChiOneD()</text>
<text text-anchor="start" x="7.5" y="-107" font-family="Helvetica,sans-Serif" font-size="10.00">+ controlParameter()</text>
<text text-anchor="start" x="7.5" y="-96" font-family="Helvetica,sans-Serif" font-size="10.00">+ HasTree()</text>
<text text-anchor="start" x="7.5" y="-85" font-family="Helvetica,sans-Serif" font-size="10.00">+ GetTree()</text>
<text text-anchor="start" x="7.5" y="-74" font-family="Helvetica,sans-Serif" font-size="10.00">+ GetIntensity()</text>
</a>
</g>
</g>
<!-- Node1&#45;&gt;Node2 -->
<g id="edge1" class="edge"><title>Node1&#45;&gt;Node2</title>
<path fill="none" stroke="midnightblue" d="M108.377,-294.498C99.4348,-266.738 88.0899,-231.518 78.3366,-201.239"/>
<polygon fill="none" stroke="midnightblue" points="105.157,-295.919 111.555,-304.364 111.82,-293.773 105.157,-295.919"/>
</g>
<!-- Node3 -->
<g id="node3" class="node"><title>Node3</title>
<g id="a_node3"><a xlink:href="../../d5/d71/classComPWA_1_1Estimator_1_1MinLogLH.html" target="_top" xlink:title="Negative Log Likelihood&#45;Estimator. ">
<polygon fill="white" stroke="black" points="132.5,-1 132.5,-267 249.5,-267 249.5,-1 132.5,-1"/>
<text text-anchor="start" x="140.5" y="-255" font-family="Helvetica,sans-Serif" font-size="10.00">ComPWA::Estimator::</text>
<text text-anchor="middle" x="191" y="-244" font-family="Helvetica,sans-Serif" font-size="10.00">MinLogLH</text>
<polyline fill="none" stroke="black" points="132.5,-237 249.5,-237 "/>
<text text-anchor="start" x="140.5" y="-225" font-family="Helvetica,sans-Serif" font-size="10.00"># _kin</text>
<text text-anchor="start" x="140.5" y="-214" font-family="Helvetica,sans-Serif" font-size="10.00"># _intens</text>
<text text-anchor="start" x="140.5" y="-203" font-family="Helvetica,sans-Serif" font-size="10.00"># _tree</text>
<text text-anchor="start" x="140.5" y="-192" font-family="Helvetica,sans-Serif" font-size="10.00"># _firstEvent</text>
<text text-anchor="start" x="140.5" y="-181" font-family="Helvetica,sans-Serif" font-size="10.00"># _nEvents</text>
<text text-anchor="start" x="140.5" y="-170" font-family="Helvetica,sans-Serif" font-size="10.00"># _nCalls</text>
<text text-anchor="start" x="140.5" y="-159" font-family="Helvetica,sans-Serif" font-size="10.00"># _dataSample</text>
<text text-anchor="start" x="140.5" y="-148" font-family="Helvetica,sans-Serif" font-size="10.00"># _dataSampleList</text>
<text text-anchor="start" x="140.5" y="-137" font-family="Helvetica,sans-Serif" font-size="10.00"># _sumOfWeights</text>
<text text-anchor="start" x="140.5" y="-126" font-family="Helvetica,sans-Serif" font-size="10.00"># _phspSample</text>
<text text-anchor="start" x="140.5" y="-115" font-family="Helvetica,sans-Serif" font-size="10.00"># _phspSampleList</text>
<text text-anchor="start" x="140.5" y="-104" font-family="Helvetica,sans-Serif" font-size="10.00"># _phspAccSample</text>
<text text-anchor="start" x="140.5" y="-93" font-family="Helvetica,sans-Serif" font-size="10.00"># _phspAccSampleList</text>
<text text-anchor="start" x="140.5" y="-82" font-family="Helvetica,sans-Serif" font-size="10.00"># _phspAccSampleEff</text>
<polyline fill="none" stroke="black" points="132.5,-75 249.5,-75 "/>
<text text-anchor="start" x="140.5" y="-63" font-family="Helvetica,sans-Serif" font-size="10.00">+ MinLogLH()</text>
<text text-anchor="start" x="140.5" y="-52" font-family="Helvetica,sans-Serif" font-size="10.00">+ controlParameter()</text>
<text text-anchor="start" x="140.5" y="-41" font-family="Helvetica,sans-Serif" font-size="10.00">+ UseFunctionTree()</text>
<text text-anchor="start" x="140.5" y="-30" font-family="Helvetica,sans-Serif" font-size="10.00">+ GetTree()</text>
<text text-anchor="start" x="140.5" y="-19" font-family="Helvetica,sans-Serif" font-size="10.00">+ NSteps()</text>
<text text-anchor="start" x="140.5" y="-8" font-family="Helvetica,sans-Serif" font-size="10.00"># IniLHtree()</text>
</a>
</g>
</g>
<!-- Node1&#45;&gt;Node3 -->
<g id="edge2" class="edge"><title>Node1&#45;&gt;Node3</title>
<path fill="none" stroke="midnightblue" d="M139.566,-294.676C142.32,-286.125 145.304,-276.863 148.4,-267.252"/>
<polygon fill="none" stroke="midnightblue" points="136.18,-293.773 136.445,-304.364 142.843,-295.919 136.18,-293.773"/>
</g>
</g>
</svg>
