<?xml version="1.0" encoding="UTF-8" standalone="no"?>
<!DOCTYPE svg PUBLIC "-//W3C//DTD SVG 1.1//EN"
 "http://www.w3.org/Graphics/SVG/1.1/DTD/svg11.dtd">
<!-- Generated by graphviz version 2.36.0 (20140111.2315)
 -->
<!-- Title: ComPWA::IEstimator Pages: 1 -->
<svg width="390pt" height="414pt"
 viewBox="0.00 0.00 390.00 414.00" xmlns="http://www.w3.org/2000/svg" xmlns:xlink="http://www.w3.org/1999/xlink">
<g id="graph0" class="graph" transform="scale(1 1) rotate(0) translate(4 410)">
<title>ComPWA::IEstimator</title>
<polygon fill="white" stroke="none" points="-4,4 -4,-410 386,-410 386,4 -4,4"/>
<!-- Node1 -->
<g id="node1" class="node"><title>Node1</title>
<polygon fill="#bfbfbf" stroke="black" points="135,-315 135,-405 247,-405 247,-315 135,-315"/>
<text text-anchor="middle" x="191" y="-393" font-family="Helvetica,sans-Serif" font-size="10.00">ComPWA::IEstimator</text>
<polyline fill="none" stroke="black" points="135,-386 247,-386 "/>
<text text-anchor="start" x="143" y="-374" font-family="Helvetica,sans-Serif" font-size="10.00"># f</text>
<polyline fill="none" stroke="black" points="135,-367 247,-367 "/>
<text text-anchor="start" x="143" y="-355" font-family="Helvetica,sans-Serif" font-size="10.00">+ ~IEstimator()</text>
<text text-anchor="start" x="143" y="-344" font-family="Helvetica,sans-Serif" font-size="10.00">+ controlParameter()</text>
<text text-anchor="start" x="143" y="-333" font-family="Helvetica,sans-Serif" font-size="10.00">+ GetTree()</text>
<text text-anchor="start" x="143" y="-322" font-family="Helvetica,sans-Serif" font-size="10.00">+ NSteps()</text>
</g>
<!-- Node2 -->
<g id="node2" class="node"><title>Node2</title>
<g id="a_node2"><a xlink:href="../../d9/ddf/classComPWA_1_1Estimator_1_1ChiOneD_1_1ChiOneD.html" target="_top" xlink:title="{ComPWA::Estimator::\lChiOneD::ChiOneD\n|&#45; kin_\l&#45; pPIF_\l&#45; pDIF_\l|+ ChiOneD()\l+ controlParameter()\l+ HasTree()\l+ GetTree()\l+ GetIntensity()\l}">
<polygon fill="white" stroke="black" points="-0.5,-72 -0.5,-206 114.5,-206 114.5,-72 -0.5,-72"/>
<text text-anchor="start" x="7.5" y="-194" font-family="Helvetica,sans-Serif" font-size="10.00">ComPWA::Estimator::</text>
<text text-anchor="middle" x="57" y="-183" font-family="Helvetica,sans-Serif" font-size="10.00">ChiOneD::ChiOneD</text>
<polyline fill="none" stroke="black" points="-0.5,-176 114.5,-176 "/>
<text text-anchor="start" x="7.5" y="-164" font-family="Helvetica,sans-Serif" font-size="10.00">&#45; kin_</text>
<text text-anchor="start" x="7.5" y="-153" font-family="Helvetica,sans-Serif" font-size="10.00">&#45; pPIF_</text>
<text text-anchor="start" x="7.5" y="-142" font-family="Helvetica,sans-Serif" font-size="10.00">&#45; pDIF_</text>
<polyline fill="none" stroke="black" points="-0.5,-135 114.5,-135 "/>
<text text-anchor="start" x="7.5" y="-123" font-family="Helvetica,sans-Serif" font-size="10.00">+ ChiOneD()</text>
<text text-anchor="start" x="7.5" y="-112" font-family="Helvetica,sans-Serif" font-size="10.00">+ controlParameter()</text>
<text text-anchor="start" x="7.5" y="-101" font-family="Helvetica,sans-Serif" font-size="10.00">+ HasTree()</text>
<text text-anchor="start" x="7.5" y="-90" font-family="Helvetica,sans-Serif" font-size="10.00">+ GetTree()</text>
<text text-anchor="start" x="7.5" y="-79" font-family="Helvetica,sans-Serif" font-size="10.00">+ GetIntensity()</text>
</a>
</g>
</g>
<!-- Node1&#45;&gt;Node2 -->
<g id="edge1" class="edge"><title>Node1&#45;&gt;Node2</title>
<path fill="none" stroke="midnightblue" d="M143.884,-306.728C136.482,-297.459 129.229,-287.67 123,-278 108.547,-255.562 95.2699,-229.473 84.4732,-206.058"/>
<polygon fill="none" stroke="midnightblue" points="141.373,-309.187 150.405,-314.724 146.797,-304.762 141.373,-309.187"/>
</g>
<!-- Node3 -->
<g id="node3" class="node"><title>Node3</title>
<g id="a_node3"><a xlink:href="../../d5/d71/classComPWA_1_1Estimator_1_1MinLogLH.html" target="_top" xlink:title="Negative Log Likelihood&#45;Estimator. ">
<polygon fill="white" stroke="black" points="132.5,-0.5 132.5,-277.5 249.5,-277.5 249.5,-0.5 132.5,-0.5"/>
<text text-anchor="start" x="140.5" y="-265.5" font-family="Helvetica,sans-Serif" font-size="10.00">ComPWA::Estimator::</text>
<text text-anchor="middle" x="191" y="-254.5" font-family="Helvetica,sans-Serif" font-size="10.00">MinLogLH</text>
<polyline fill="none" stroke="black" points="132.5,-247.5 249.5,-247.5 "/>
<text text-anchor="start" x="140.5" y="-235.5" font-family="Helvetica,sans-Serif" font-size="10.00"># _kin</text>
<text text-anchor="start" x="140.5" y="-224.5" font-family="Helvetica,sans-Serif" font-size="10.00"># _intens</text>
<text text-anchor="start" x="140.5" y="-213.5" font-family="Helvetica,sans-Serif" font-size="10.00"># _tree</text>
<text text-anchor="start" x="140.5" y="-202.5" font-family="Helvetica,sans-Serif" font-size="10.00"># _firstEvent</text>
<text text-anchor="start" x="140.5" y="-191.5" font-family="Helvetica,sans-Serif" font-size="10.00"># _nEvents</text>
<text text-anchor="start" x="140.5" y="-180.5" font-family="Helvetica,sans-Serif" font-size="10.00"># _nCalls</text>
<text text-anchor="start" x="140.5" y="-169.5" font-family="Helvetica,sans-Serif" font-size="10.00"># _dataSample</text>
<text text-anchor="start" x="140.5" y="-158.5" font-family="Helvetica,sans-Serif" font-size="10.00"># _dataSampleList</text>
<text text-anchor="start" x="140.5" y="-147.5" font-family="Helvetica,sans-Serif" font-size="10.00"># _sumOfWeights</text>
<text text-anchor="start" x="140.5" y="-136.5" font-family="Helvetica,sans-Serif" font-size="10.00"># _phspSample</text>
<text text-anchor="start" x="140.5" y="-125.5" font-family="Helvetica,sans-Serif" font-size="10.00"># _phspSampleList</text>
<text text-anchor="start" x="140.5" y="-114.5" font-family="Helvetica,sans-Serif" font-size="10.00"># _phspAccSample</text>
<text text-anchor="start" x="140.5" y="-103.5" font-family="Helvetica,sans-Serif" font-size="10.00"># _phspAccSampleList</text>
<text text-anchor="start" x="140.5" y="-92.5" font-family="Helvetica,sans-Serif" font-size="10.00"># _phspAccSampleEff</text>
<polyline fill="none" stroke="black" points="132.5,-85.5 249.5,-85.5 "/>
<text text-anchor="start" x="140.5" y="-73.5" font-family="Helvetica,sans-Serif" font-size="10.00">+ MinLogLH()</text>
<text text-anchor="start" x="140.5" y="-62.5" font-family="Helvetica,sans-Serif" font-size="10.00">+ ~MinLogLH()</text>
<text text-anchor="start" x="140.5" y="-51.5" font-family="Helvetica,sans-Serif" font-size="10.00">+ controlParameter()</text>
<text text-anchor="start" x="140.5" y="-40.5" font-family="Helvetica,sans-Serif" font-size="10.00">+ UseFunctionTree()</text>
<text text-anchor="start" x="140.5" y="-29.5" font-family="Helvetica,sans-Serif" font-size="10.00">+ GetTree()</text>
<text text-anchor="start" x="140.5" y="-18.5" font-family="Helvetica,sans-Serif" font-size="10.00">+ NSteps()</text>
<text text-anchor="start" x="140.5" y="-7.5" font-family="Helvetica,sans-Serif" font-size="10.00"># IniLHtree()</text>
</a>
</g>
</g>
<!-- Node1&#45;&gt;Node3 -->
<g id="edge2" class="edge"><title>Node1&#45;&gt;Node3</title>
<path fill="none" stroke="midnightblue" d="M191,-304.853C191,-296.315 191,-287.167 191,-277.719"/>
<polygon fill="none" stroke="midnightblue" points="187.5,-304.945 191,-314.946 194.5,-304.946 187.5,-304.945"/>
</g>
<!-- Node4 -->
<g id="node4" class="node"><title>Node4</title>
<g id="a_node4"><a xlink:href="../../d2/d37/classComPWA_1_1Estimator_1_1SumMinLogLH.html" target="_top" xlink:title="{ComPWA::Estimator::\lSumMinLogLH\n|# _minLogLh\l|+ SumMinLogLH()\l}">
<polygon fill="white" stroke="black" points="267.5,-105 267.5,-173 382.5,-173 382.5,-105 267.5,-105"/>
<text text-anchor="start" x="275.5" y="-161" font-family="Helvetica,sans-Serif" font-size="10.00">ComPWA::Estimator::</text>
<text text-anchor="middle" x="325" y="-150" font-family="Helvetica,sans-Serif" font-size="10.00">SumMinLogLH</text>
<polyline fill="none" stroke="black" points="267.5,-143 382.5,-143 "/>
<text text-anchor="start" x="275.5" y="-131" font-family="Helvetica,sans-Serif" font-size="10.00"># _minLogLh</text>
<polyline fill="none" stroke="black" points="267.5,-124 382.5,-124 "/>
<text text-anchor="start" x="275.5" y="-112" font-family="Helvetica,sans-Serif" font-size="10.00">+ SumMinLogLH()</text>
</a>
</g>
</g>
<!-- Node1&#45;&gt;Node4 -->
<g id="edge3" class="edge"><title>Node1&#45;&gt;Node4</title>
<path fill="none" stroke="midnightblue" d="M237.343,-306.635C244.645,-297.377 251.815,-287.616 258,-278 279.826,-244.064 299.283,-201.964 311.532,-173.247"/>
<polygon fill="none" stroke="midnightblue" points="234.455,-304.641 230.912,-314.626 239.908,-309.029 234.455,-304.641"/>
</g>
</g>
</svg>
