<?xml version="1.0" encoding="UTF-8" standalone="no"?>
<!DOCTYPE svg PUBLIC "-//W3C//DTD SVG 1.1//EN"
 "http://www.w3.org/Graphics/SVG/1.1/DTD/svg11.dtd">
<!-- Generated by graphviz version 2.36.0 (20140111.2315)
 -->
<!-- Title: /home/travis/build/ComPWA/ComPWA/Core/TreeNode.hpp Pages: 1 -->
<svg width="2500pt" height="620pt"
 viewBox="0.00 0.00 2500.33 620.00" xmlns="http://www.w3.org/2000/svg" xmlns:xlink="http://www.w3.org/1999/xlink">
<g id="graph0" class="graph" transform="scale(1 1) rotate(0) translate(4 616)">
<title>/home/travis/build/ComPWA/ComPWA/Core/TreeNode.hpp</title>
<polygon fill="white" stroke="none" points="-4,4 -4,-616 2496.33,-616 2496.33,4 -4,4"/>
<!-- Node1 -->
<g id="node1" class="node"><title>Node1</title>
<polygon fill="#bfbfbf" stroke="black" points="1741.83,-570.5 1741.83,-611.5 1876.83,-611.5 1876.83,-570.5 1741.83,-570.5"/>
<text text-anchor="start" x="1749.83" y="-599.5" font-family="Helvetica,sans-Serif" font-size="10.00">/home/travis/build</text>
<text text-anchor="start" x="1749.83" y="-588.5" font-family="Helvetica,sans-Serif" font-size="10.00">/ComPWA/ComPWA/Core</text>
<text text-anchor="middle" x="1809.33" y="-577.5" font-family="Helvetica,sans-Serif" font-size="10.00">/TreeNode.hpp</text>
</g>
<!-- Node2 -->
<g id="node2" class="node"><title>Node2</title>
<g id="a_node2"><a xlink:href="../../da/db2/FunctionTree_8hpp.html" target="_top" xlink:title="This class can be used to store a function in a tree&#45;like structure. ">
<polygon fill="white" stroke="black" points="948.831,-492.5 948.831,-533.5 1083.83,-533.5 1083.83,-492.5 948.831,-492.5"/>
<text text-anchor="start" x="956.831" y="-521.5" font-family="Helvetica,sans-Serif" font-size="10.00">/home/travis/build</text>
<text text-anchor="start" x="956.831" y="-510.5" font-family="Helvetica,sans-Serif" font-size="10.00">/ComPWA/ComPWA/Core</text>
<text text-anchor="middle" x="1016.33" y="-499.5" font-family="Helvetica,sans-Serif" font-size="10.00">/FunctionTree.hpp</text>
</a>
</g>
</g>
<!-- Node1&#45;&gt;Node2 -->
<g id="edge1" class="edge"><title>Node1&#45;&gt;Node2</title>
<path fill="none" stroke="midnightblue" d="M1731.32,-582.524C1576.01,-567.639 1230.51,-534.527 1084.05,-520.49"/>
<polygon fill="midnightblue" stroke="midnightblue" points="1731.43,-586.05 1741.72,-583.52 1732.1,-579.082 1731.43,-586.05"/>
</g>
<!-- Node17 -->
<g id="node17" class="node"><title>Node17</title>
<g id="a_node17"><a xlink:href="../../d3/d0c/TreeTestApp_8cpp.html" target="_top" xlink:title="Test&#45;Application to show usage of the FunctionTree. ">
<polygon fill="white" stroke="black" points="2357.83,-408.5 2357.83,-449.5 2492.83,-449.5 2492.83,-408.5 2357.83,-408.5"/>
<text text-anchor="start" x="2365.83" y="-437.5" font-family="Helvetica,sans-Serif" font-size="10.00">/home/travis/build</text>
<text text-anchor="start" x="2365.83" y="-426.5" font-family="Helvetica,sans-Serif" font-size="10.00">/ComPWA/ComPWA/Core</text>
<text text-anchor="middle" x="2425.33" y="-415.5" font-family="Helvetica,sans-Serif" font-size="10.00">/test/TreeTestApp.cpp</text>
</a>
</g>
</g>
<!-- Node1&#45;&gt;Node17 -->
<g id="edge39" class="edge"><title>Node1&#45;&gt;Node17</title>
<path fill="none" stroke="midnightblue" d="M1806.34,-560.206C1805.91,-537.978 1809.48,-508.683 1828.33,-492 1871.28,-453.981 2286.98,-466.744 2343.33,-456 2351.99,-454.35 2361.01,-452.079 2369.77,-449.561"/>
<polygon fill="midnightblue" stroke="midnightblue" points="1802.85,-560.64 1806.82,-570.464 1809.85,-560.31 1802.85,-560.64"/>
</g>
<!-- Node25 -->
<g id="node25" class="node"><title>Node25</title>
<g id="a_node25"><a xlink:href="../../d3/d71/TreeNode_8cpp.html" target="_top" xlink:title="/home/travis/build\l/ComPWA/ComPWA/Core\l/TreeNode.cpp">
<polygon fill="white" stroke="black" points="1837.83,-492.5 1837.83,-533.5 1972.83,-533.5 1972.83,-492.5 1837.83,-492.5"/>
<text text-anchor="start" x="1845.83" y="-521.5" font-family="Helvetica,sans-Serif" font-size="10.00">/home/travis/build</text>
<text text-anchor="start" x="1845.83" y="-510.5" font-family="Helvetica,sans-Serif" font-size="10.00">/ComPWA/ComPWA/Core</text>
<text text-anchor="middle" x="1905.33" y="-499.5" font-family="Helvetica,sans-Serif" font-size="10.00">/TreeNode.cpp</text>
</a>
</g>
</g>
<!-- Node1&#45;&gt;Node25 -->
<g id="edge40" class="edge"><title>Node1&#45;&gt;Node25</title>
<path fill="none" stroke="midnightblue" d="M1842.09,-564.065C1854.73,-554.057 1868.95,-542.804 1880.69,-533.506"/>
<polygon fill="midnightblue" stroke="midnightblue" points="1839.72,-561.477 1834.05,-570.428 1844.07,-566.965 1839.72,-561.477"/>
</g>
<!-- Node3 -->
<g id="node3" class="node"><title>Node3</title>
<g id="a_node3"><a xlink:href="../../dc/dfd/AmpIntensity_8hpp.html" target="_top" xlink:title="/home/travis/build\l/ComPWA/ComPWA/Core\l/AmpIntensity.hpp">
<polygon fill="white" stroke="red" points="502.831,-408.5 502.831,-449.5 637.831,-449.5 637.831,-408.5 502.831,-408.5"/>
<text text-anchor="start" x="510.831" y="-437.5" font-family="Helvetica,sans-Serif" font-size="10.00">/home/travis/build</text>
<text text-anchor="start" x="510.831" y="-426.5" font-family="Helvetica,sans-Serif" font-size="10.00">/ComPWA/ComPWA/Core</text>
<text text-anchor="middle" x="570.331" y="-415.5" font-family="Helvetica,sans-Serif" font-size="10.00">/AmpIntensity.hpp</text>
</a>
</g>
</g>
<!-- Node2&#45;&gt;Node3 -->
<g id="edge2" class="edge"><title>Node2&#45;&gt;Node3</title>
<path fill="none" stroke="midnightblue" d="M938.739,-497.734C853.75,-482.109 718.801,-457.297 637.974,-442.437"/>
<polygon fill="midnightblue" stroke="midnightblue" points="938.125,-501.18 948.593,-499.546 939.391,-494.295 938.125,-501.18"/>
</g>
<!-- Node5 -->
<g id="node5" class="node"><title>Node5</title>
<g id="a_node5"><a xlink:href="../../de/d1f/ControlParameter_8hpp.html" target="_top" xlink:title="This class provides the interface for the optimizer module to access the data. ">
<polygon fill="white" stroke="red" points="368.831,-324.5 368.831,-365.5 503.831,-365.5 503.831,-324.5 368.831,-324.5"/>
<text text-anchor="start" x="376.831" y="-353.5" font-family="Helvetica,sans-Serif" font-size="10.00">/home/travis/build</text>
<text text-anchor="start" x="376.831" y="-342.5" font-family="Helvetica,sans-Serif" font-size="10.00">/ComPWA/ComPWA/Core</text>
<text text-anchor="middle" x="436.331" y="-331.5" font-family="Helvetica,sans-Serif" font-size="10.00">/ControlParameter.hpp</text>
</a>
</g>
</g>
<!-- Node2&#45;&gt;Node5 -->
<g id="edge19" class="edge"><title>Node2&#45;&gt;Node5</title>
<path fill="none" stroke="midnightblue" d="M938.561,-512.492C810.868,-511.872 563.883,-504.235 493.331,-456 462.258,-434.756 447.031,-391.154 440.507,-365.688"/>
<polygon fill="midnightblue" stroke="midnightblue" points="938.654,-515.993 948.667,-512.528 938.679,-508.993 938.654,-515.993"/>
</g>
<!-- Node6 -->
<g id="node6" class="node"><title>Node6</title>
<g id="a_node6"><a xlink:href="../../d5/d10/Estimator_8hpp.html" target="_top" xlink:title="This class provides the interface to classes which estimate the &quot;closeness&quot; of the modeled intensity ...">
<polygon fill="white" stroke="red" points="386.331,-246.5 386.331,-287.5 542.331,-287.5 542.331,-246.5 386.331,-246.5"/>
<text text-anchor="start" x="394.331" y="-275.5" font-family="Helvetica,sans-Serif" font-size="10.00">/home/travis/build</text>
<text text-anchor="start" x="394.331" y="-264.5" font-family="Helvetica,sans-Serif" font-size="10.00">/ComPWA/ComPWA/Estimator</text>
<text text-anchor="middle" x="464.331" y="-253.5" font-family="Helvetica,sans-Serif" font-size="10.00">/Estimator.hpp</text>
</a>
</g>
</g>
<!-- Node2&#45;&gt;Node6 -->
<g id="edge22" class="edge"><title>Node2&#45;&gt;Node6</title>
<path fill="none" stroke="midnightblue" d="M938.609,-510.678C804.29,-507.348 534.982,-495.774 450.331,-456 385.838,-425.698 322.669,-385.102 359.331,-324 369.057,-307.79 385.244,-296.014 402.031,-287.573"/>
<polygon fill="midnightblue" stroke="midnightblue" points="938.745,-514.182 948.826,-510.922 938.912,-507.184 938.745,-514.182"/>
</g>
<!-- Node7 -->
<g id="node7" class="node"><title>Node7</title>
<g id="a_node7"><a xlink:href="../../d7/de4/MinLogLH_8hpp.html" target="_top" xlink:title="This class calculates a simple &#45;log(LH) of a intensity and a dataset. ">
<polygon fill="white" stroke="red" points="596.331,-168.5 596.331,-209.5 752.331,-209.5 752.331,-168.5 596.331,-168.5"/>
<text text-anchor="start" x="604.331" y="-197.5" font-family="Helvetica,sans-Serif" font-size="10.00">/home/travis/build</text>
<text text-anchor="start" x="604.331" y="-186.5" font-family="Helvetica,sans-Serif" font-size="10.00">/ComPWA/ComPWA/Estimator</text>
<text text-anchor="middle" x="674.331" y="-175.5" font-family="Helvetica,sans-Serif" font-size="10.00">/MinLogLH/MinLogLH.hpp</text>
</a>
</g>
</g>
<!-- Node2&#45;&gt;Node7 -->
<g id="edge24" class="edge"><title>Node2&#45;&gt;Node7</title>
<path fill="none" stroke="midnightblue" d="M938.473,-501.254C880.791,-491.819 808.51,-476.413 786.331,-456 740.828,-414.122 766.166,-381.062 742.331,-324 724.835,-282.114 699.708,-235.262 685.406,-209.545"/>
<polygon fill="midnightblue" stroke="midnightblue" points="938.264,-504.765 948.692,-502.889 939.37,-497.853 938.264,-504.765"/>
</g>
<!-- Node8 -->
<g id="node8" class="node"><title>Node8</title>
<g id="a_node8"><a xlink:href="../../de/d8e/MinLogLH_8cpp.html" target="_top" xlink:title="/home/travis/build\l/ComPWA/ComPWA/Estimator\l/MinLogLH/MinLogLH.cpp">
<polygon fill="white" stroke="black" points="32.3307,-84.5 32.3307,-125.5 188.331,-125.5 188.331,-84.5 32.3307,-84.5"/>
<text text-anchor="start" x="40.3307" y="-113.5" font-family="Helvetica,sans-Serif" font-size="10.00">/home/travis/build</text>
<text text-anchor="start" x="40.3307" y="-102.5" font-family="Helvetica,sans-Serif" font-size="10.00">/ComPWA/ComPWA/Estimator</text>
<text text-anchor="middle" x="110.331" y="-91.5" font-family="Helvetica,sans-Serif" font-size="10.00">/MinLogLH/MinLogLH.cpp</text>
</a>
</g>
</g>
<!-- Node2&#45;&gt;Node8 -->
<g id="edge23" class="edge"><title>Node2&#45;&gt;Node8</title>
<path fill="none" stroke="midnightblue" d="M938.608,-509.517C758.719,-503.3 324.514,-485.416 265.331,-456 206.961,-426.988 168.331,-411.182 168.331,-346 168.331,-346 168.331,-346 168.331,-266 168.331,-212.816 139.656,-155.321 122.631,-125.87"/>
<polygon fill="midnightblue" stroke="midnightblue" points="938.678,-513.022 948.792,-509.866 938.918,-506.026 938.678,-513.022"/>
</g>
<!-- Node9 -->
<g id="node9" class="node"><title>Node9</title>
<g id="a_node9"><a xlink:href="../../db/d7b/DalitzFitD03K_8cpp.html" target="_top" xlink:title="/home/travis/build\l/ComPWA/ComPWA/Examples\l/DalitzAnalysis_D0KsKK\l/DalitzFitD03K.cpp">
<polygon fill="white" stroke="black" points="206.331,-79 206.331,-131 364.331,-131 364.331,-79 206.331,-79"/>
<text text-anchor="start" x="214.331" y="-119" font-family="Helvetica,sans-Serif" font-size="10.00">/home/travis/build</text>
<text text-anchor="start" x="214.331" y="-108" font-family="Helvetica,sans-Serif" font-size="10.00">/ComPWA/ComPWA/Examples</text>
<text text-anchor="start" x="214.331" y="-97" font-family="Helvetica,sans-Serif" font-size="10.00">/DalitzAnalysis_D0KsKK</text>
<text text-anchor="middle" x="285.331" y="-86" font-family="Helvetica,sans-Serif" font-size="10.00">/DalitzFitD03K.cpp</text>
</a>
</g>
</g>
<!-- Node2&#45;&gt;Node9 -->
<g id="edge25" class="edge"><title>Node2&#45;&gt;Node9</title>
<path fill="none" stroke="midnightblue" d="M938.599,-510.427C765.221,-506.272 358.164,-492.687 308.331,-456 265.928,-424.783 264.331,-398.655 264.331,-346 264.331,-346 264.331,-346 264.331,-266 264.331,-217.953 273.755,-162.474 279.977,-131.084"/>
<polygon fill="midnightblue" stroke="midnightblue" points="938.597,-513.928 948.677,-510.664 938.762,-506.93 938.597,-513.928"/>
</g>
<!-- Node10 -->
<g id="node10" class="node"><title>Node10</title>
<g id="a_node10"><a xlink:href="../../da/d2a/DalitzFitApp_8cpp.html" target="_top" xlink:title="Dalitz plot analysis of the decay D0&#45;&gt;K_S0 K_ K&#45;Fit application for D0&#45;&gt;K_S0 K_ K&#45; analysis...">
<polygon fill="white" stroke="black" points="382.331,-84.5 382.331,-125.5 540.331,-125.5 540.331,-84.5 382.331,-84.5"/>
<text text-anchor="start" x="390.331" y="-113.5" font-family="Helvetica,sans-Serif" font-size="10.00">/home/travis/build</text>
<text text-anchor="start" x="390.331" y="-102.5" font-family="Helvetica,sans-Serif" font-size="10.00">/ComPWA/ComPWA/Examples</text>
<text text-anchor="middle" x="461.331" y="-91.5" font-family="Helvetica,sans-Serif" font-size="10.00">/DalitzFit/DalitzFitApp.cpp</text>
</a>
</g>
</g>
<!-- Node2&#45;&gt;Node10 -->
<g id="edge26" class="edge"><title>Node2&#45;&gt;Node10</title>
<path fill="none" stroke="midnightblue" d="M938.278,-509.323C775.858,-503.176 412.636,-486.204 365.331,-456 317.845,-425.681 302.331,-402.339 302.331,-346 302.331,-346 302.331,-346 302.331,-266 302.331,-199.622 372.035,-151.001 419.139,-125.722"/>
<polygon fill="midnightblue" stroke="midnightblue" points="938.556,-512.836 948.68,-509.713 938.818,-505.841 938.556,-512.836"/>
</g>
<!-- Node11 -->
<g id="node11" class="node"><title>Node11</title>
<g id="a_node11"><a xlink:href="../../d6/d0a/PythonFit_8cpp.html" target="_top" xlink:title="/home/travis/build\l/ComPWA/ComPWA/Examples\l/PythonDalitzFit/PythonFit.cpp">
<polygon fill="white" stroke="black" points="508.331,-0.5 508.331,-41.5 666.331,-41.5 666.331,-0.5 508.331,-0.5"/>
<text text-anchor="start" x="516.331" y="-29.5" font-family="Helvetica,sans-Serif" font-size="10.00">/home/travis/build</text>
<text text-anchor="start" x="516.331" y="-18.5" font-family="Helvetica,sans-Serif" font-size="10.00">/ComPWA/ComPWA/Examples</text>
<text text-anchor="middle" x="587.331" y="-7.5" font-family="Helvetica,sans-Serif" font-size="10.00">/PythonDalitzFit/PythonFit.cpp</text>
</a>
</g>
</g>
<!-- Node2&#45;&gt;Node11 -->
<g id="edge27" class="edge"><title>Node2&#45;&gt;Node11</title>
<path fill="none" stroke="midnightblue" d="M938.643,-511.606C759.084,-509.922 320.007,-501.165 180.331,-456 92.5617,-427.62 4.33068,-438.243 4.33068,-346 4.33068,-346 4.33068,-346 4.33068,-188 4.33068,-138.387 -12.992,-111.795 23.3307,-78 58.1123,-45.639 361.394,-30.2337 508.272,-24.6185"/>
<polygon fill="midnightblue" stroke="midnightblue" points="938.772,-515.107 948.802,-511.696 938.834,-508.107 938.772,-515.107"/>
</g>
<!-- Node12 -->
<g id="node12" class="node"><title>Node12</title>
<g id="a_node12"><a xlink:href="../../db/deb/PythonFit_8hpp.html" target="_top" xlink:title="This class provides a Manager for simple fits. ">
<polygon fill="white" stroke="red" points="1188.33,-84.5 1188.33,-125.5 1346.33,-125.5 1346.33,-84.5 1188.33,-84.5"/>
<text text-anchor="start" x="1196.33" y="-113.5" font-family="Helvetica,sans-Serif" font-size="10.00">/home/travis/build</text>
<text text-anchor="start" x="1196.33" y="-102.5" font-family="Helvetica,sans-Serif" font-size="10.00">/ComPWA/ComPWA/Examples</text>
<text text-anchor="middle" x="1267.33" y="-91.5" font-family="Helvetica,sans-Serif" font-size="10.00">/PythonDalitzFit/PythonFit.hpp</text>
</a>
</g>
</g>
<!-- Node2&#45;&gt;Node12 -->
<g id="edge28" class="edge"><title>Node2&#45;&gt;Node12</title>
<path fill="none" stroke="midnightblue" d="M1094.09,-509.826C1368.24,-502.005 2274.62,-474.778 2298.33,-456 2338.15,-424.463 2329.33,-396.793 2329.33,-346 2329.33,-346 2329.33,-346 2329.33,-266 2329.33,-194.674 2706.3,-294.326 2060.33,-168 1802.49,-117.577 1489.92,-107.857 1346.37,-106.19"/>
<polygon fill="midnightblue" stroke="midnightblue" points="1093.73,-506.334 1083.83,-510.118 1093.93,-513.332 1093.73,-506.334"/>
</g>
<!-- Node13 -->
<g id="node13" class="node"><title>Node13</title>
<g id="a_node13"><a xlink:href="../../d9/dab/CompareTreeAmpApp_8cpp.html" target="_top" xlink:title="/home/travis/build\l/ComPWA/ComPWA/executables\l/CompareTreeAmpApp.cpp">
<polygon fill="white" stroke="black" points="633.831,-84.5 633.831,-125.5 800.831,-125.5 800.831,-84.5 633.831,-84.5"/>
<text text-anchor="start" x="641.831" y="-113.5" font-family="Helvetica,sans-Serif" font-size="10.00">/home/travis/build</text>
<text text-anchor="start" x="641.831" y="-102.5" font-family="Helvetica,sans-Serif" font-size="10.00">/ComPWA/ComPWA/executables</text>
<text text-anchor="middle" x="717.331" y="-91.5" font-family="Helvetica,sans-Serif" font-size="10.00">/CompareTreeAmpApp.cpp</text>
</a>
</g>
</g>
<!-- Node2&#45;&gt;Node13 -->
<g id="edge32" class="edge"><title>Node2&#45;&gt;Node13</title>
<path fill="none" stroke="midnightblue" d="M938.476,-505.31C901.855,-498.318 860.214,-484.229 832.331,-456 796.551,-419.776 800.331,-396.916 800.331,-346 800.331,-346 800.331,-346 800.331,-266 800.331,-209.986 759.751,-154.079 735.34,-125.515"/>
<polygon fill="midnightblue" stroke="midnightblue" points="938.201,-508.816 948.656,-507.101 939.413,-501.921 938.201,-508.816"/>
</g>
<!-- Node14 -->
<g id="node14" class="node"><title>Node14</title>
<g id="a_node14"><a xlink:href="../../d1/d13/HelicityAmplitudeFitApp_8cpp.html" target="_top" xlink:title="/home/travis/build\l/ComPWA/ComPWA/executables\l/HelicityAmplitudeFitApp.cpp">
<polygon fill="white" stroke="black" points="818.831,-84.5 818.831,-125.5 985.831,-125.5 985.831,-84.5 818.831,-84.5"/>
<text text-anchor="start" x="826.831" y="-113.5" font-family="Helvetica,sans-Serif" font-size="10.00">/home/travis/build</text>
<text text-anchor="start" x="826.831" y="-102.5" font-family="Helvetica,sans-Serif" font-size="10.00">/ComPWA/ComPWA/executables</text>
<text text-anchor="middle" x="902.331" y="-91.5" font-family="Helvetica,sans-Serif" font-size="10.00">/HelicityAmplitudeFitApp.cpp</text>
</a>
</g>
</g>
<!-- Node2&#45;&gt;Node14 -->
<g id="edge33" class="edge"><title>Node2&#45;&gt;Node14</title>
<path fill="none" stroke="midnightblue" d="M938.651,-501.657C909.108,-493.833 877.696,-480.1 857.331,-456 825.309,-418.105 838.331,-395.613 838.331,-346 838.331,-346 838.331,-346 838.331,-266 838.331,-212.148 869.971,-154.924 888.758,-125.693"/>
<polygon fill="midnightblue" stroke="midnightblue" points="938.034,-505.109 948.579,-504.09 939.7,-498.311 938.034,-505.109"/>
</g>
<!-- Node15 -->
<g id="node15" class="node"><title>Node15</title>
<g id="a_node15"><a xlink:href="../../d6/d45/LHNormalizationTestApp_8cpp.html" target="_top" xlink:title="/home/travis/build\l/ComPWA/ComPWA/executables\l/LHNormalizationTestApp.cpp">
<polygon fill="white" stroke="black" points="1003.83,-84.5 1003.83,-125.5 1170.83,-125.5 1170.83,-84.5 1003.83,-84.5"/>
<text text-anchor="start" x="1011.83" y="-113.5" font-family="Helvetica,sans-Serif" font-size="10.00">/home/travis/build</text>
<text text-anchor="start" x="1011.83" y="-102.5" font-family="Helvetica,sans-Serif" font-size="10.00">/ComPWA/ComPWA/executables</text>
<text text-anchor="middle" x="1087.33" y="-91.5" font-family="Helvetica,sans-Serif" font-size="10.00">/LHNormalizationTestApp.cpp</text>
</a>
</g>
</g>
<!-- Node2&#45;&gt;Node15 -->
<g id="edge34" class="edge"><title>Node2&#45;&gt;Node15</title>
<path fill="none" stroke="midnightblue" d="M1093.96,-509.842C1364.43,-502.159 2250.13,-475.553 2272.33,-456 2309.56,-423.206 2291.33,-395.613 2291.33,-346 2291.33,-346 2291.33,-346 2291.33,-266 2291.33,-141.551 1301.36,-156.441 1179.33,-132 1170.3,-130.191 1160.86,-127.944 1151.61,-125.535"/>
<polygon fill="midnightblue" stroke="midnightblue" points="1093.73,-506.347 1083.84,-510.129 1093.93,-513.344 1093.73,-506.347"/>
</g>
<!-- Node16 -->
<g id="node16" class="node"><title>Node16</title>
<g id="a_node16"><a xlink:href="../../dc/de3/FunctionTree_8cpp.html" target="_top" xlink:title="/home/travis/build\l/ComPWA/ComPWA/Core\l/FunctionTree.cpp">
<polygon fill="white" stroke="black" points="866.831,-408.5 866.831,-449.5 1001.83,-449.5 1001.83,-408.5 866.831,-408.5"/>
<text text-anchor="start" x="874.831" y="-437.5" font-family="Helvetica,sans-Serif" font-size="10.00">/home/travis/build</text>
<text text-anchor="start" x="874.831" y="-426.5" font-family="Helvetica,sans-Serif" font-size="10.00">/ComPWA/ComPWA/Core</text>
<text text-anchor="middle" x="934.331" y="-415.5" font-family="Helvetica,sans-Serif" font-size="10.00">/FunctionTree.cpp</text>
</a>
</g>
</g>
<!-- Node2&#45;&gt;Node16 -->
<g id="edge20" class="edge"><title>Node2&#45;&gt;Node16</title>
<path fill="none" stroke="midnightblue" d="M989.204,-484.873C977.7,-473.369 964.544,-460.213 953.998,-449.667"/>
<polygon fill="midnightblue" stroke="midnightblue" points="986.935,-487.554 996.481,-492.15 991.885,-482.604 986.935,-487.554"/>
</g>
<!-- Node2&#45;&gt;Node17 -->
<g id="edge21" class="edge"><title>Node2&#45;&gt;Node17</title>
<path fill="none" stroke="midnightblue" d="M1094.46,-509.909C1360.38,-502.625 2220.71,-477.631 2343.33,-456 2352.3,-454.417 2361.65,-452.113 2370.7,-449.52"/>
<polygon fill="midnightblue" stroke="midnightblue" points="1094.02,-506.419 1084.12,-510.191 1094.21,-513.417 1094.02,-506.419"/>
</g>
<!-- Node18 -->
<g id="node18" class="node"><title>Node18</title>
<g id="a_node18"><a xlink:href="../../d6/d9a/SliceFitApp_8cpp.html" target="_top" xlink:title="/home/travis/build\l/ComPWA/ComPWA/Examples\l/SliceFit/SliceFitApp.cpp">
<polygon fill="white" stroke="black" points="1020.33,-408.5 1020.33,-449.5 1178.33,-449.5 1178.33,-408.5 1020.33,-408.5"/>
<text text-anchor="start" x="1028.33" y="-437.5" font-family="Helvetica,sans-Serif" font-size="10.00">/home/travis/build</text>
<text text-anchor="start" x="1028.33" y="-426.5" font-family="Helvetica,sans-Serif" font-size="10.00">/ComPWA/ComPWA/Examples</text>
<text text-anchor="middle" x="1099.33" y="-415.5" font-family="Helvetica,sans-Serif" font-size="10.00">/SliceFit/SliceFitApp.cpp</text>
</a>
</g>
</g>
<!-- Node2&#45;&gt;Node18 -->
<g id="edge29" class="edge"><title>Node2&#45;&gt;Node18</title>
<path fill="none" stroke="midnightblue" d="M1043.79,-484.873C1055.43,-473.369 1068.75,-460.213 1079.42,-449.667"/>
<polygon fill="midnightblue" stroke="midnightblue" points="1041.08,-482.632 1036.42,-492.15 1046,-487.612 1041.08,-482.632"/>
</g>
<!-- Node19 -->
<g id="node19" class="node"><title>Node19</title>
<g id="a_node19"><a xlink:href="../../d3/dbc/SliceFitRANDApp_8cpp.html" target="_top" xlink:title="/home/travis/build\l/ComPWA/ComPWA/Examples\l/SliceFit/SliceFitRANDApp.cpp">
<polygon fill="white" stroke="black" points="1196.33,-408.5 1196.33,-449.5 1354.33,-449.5 1354.33,-408.5 1196.33,-408.5"/>
<text text-anchor="start" x="1204.33" y="-437.5" font-family="Helvetica,sans-Serif" font-size="10.00">/home/travis/build</text>
<text text-anchor="start" x="1204.33" y="-426.5" font-family="Helvetica,sans-Serif" font-size="10.00">/ComPWA/ComPWA/Examples</text>
<text text-anchor="middle" x="1275.33" y="-415.5" font-family="Helvetica,sans-Serif" font-size="10.00">/SliceFit/SliceFitRANDApp.cpp</text>
</a>
</g>
</g>
<!-- Node2&#45;&gt;Node19 -->
<g id="edge30" class="edge"><title>Node2&#45;&gt;Node19</title>
<path fill="none" stroke="midnightblue" d="M1087.62,-489.431C1127.13,-476.92 1175.78,-461.519 1213.65,-449.529"/>
<polygon fill="midnightblue" stroke="midnightblue" points="1086.52,-486.108 1078.04,-492.463 1088.63,-492.781 1086.52,-486.108"/>
</g>
<!-- Node20 -->
<g id="node20" class="node"><title>Node20</title>
<g id="a_node20"><a xlink:href="../../d9/de4/SliceFitUBApp_8cpp.html" target="_top" xlink:title="/home/travis/build\l/ComPWA/ComPWA/Examples\l/SliceFit/SliceFitUBApp.cpp">
<polygon fill="white" stroke="black" points="1372.33,-408.5 1372.33,-449.5 1530.33,-449.5 1530.33,-408.5 1372.33,-408.5"/>
<text text-anchor="start" x="1380.33" y="-437.5" font-family="Helvetica,sans-Serif" font-size="10.00">/home/travis/build</text>
<text text-anchor="start" x="1380.33" y="-426.5" font-family="Helvetica,sans-Serif" font-size="10.00">/ComPWA/ComPWA/Examples</text>
<text text-anchor="middle" x="1451.33" y="-415.5" font-family="Helvetica,sans-Serif" font-size="10.00">/SliceFit/SliceFitUBApp.cpp</text>
</a>
</g>
</g>
<!-- Node2&#45;&gt;Node20 -->
<g id="edge31" class="edge"><title>Node2&#45;&gt;Node20</title>
<path fill="none" stroke="midnightblue" d="M1094.24,-502.198C1164.71,-492.668 1271.11,-476.623 1362.33,-456 1370.65,-454.119 1379.34,-451.902 1387.89,-449.569"/>
<polygon fill="midnightblue" stroke="midnightblue" points="1093.55,-498.759 1084.11,-503.557 1094.48,-505.697 1093.55,-498.759"/>
</g>
<!-- Node21 -->
<g id="node21" class="node"><title>Node21</title>
<g id="a_node21"><a xlink:href="../../dc/de3/Amplitude_8hpp.html" target="_top" xlink:title="This class provides the interface to the model which tries to describe the intensity. ">
<polygon fill="white" stroke="red" points="1547.83,-408.5 1547.83,-449.5 1696.83,-449.5 1696.83,-408.5 1547.83,-408.5"/>
<text text-anchor="start" x="1555.83" y="-437.5" font-family="Helvetica,sans-Serif" font-size="10.00">/home/travis/build</text>
<text text-anchor="start" x="1555.83" y="-426.5" font-family="Helvetica,sans-Serif" font-size="10.00">/ComPWA/ComPWA/Physics</text>
<text text-anchor="middle" x="1622.33" y="-415.5" font-family="Helvetica,sans-Serif" font-size="10.00">/Amplitude.hpp</text>
</a>
</g>
</g>
<!-- Node2&#45;&gt;Node21 -->
<g id="edge35" class="edge"><title>Node2&#45;&gt;Node21</title>
<path fill="none" stroke="midnightblue" d="M1094.42,-508.337C1197.11,-502.449 1382.77,-488.103 1538.33,-456 1546.85,-454.241 1555.74,-451.977 1564.42,-449.519"/>
<polygon fill="midnightblue" stroke="midnightblue" points="1093.92,-504.859 1084.13,-508.914 1094.31,-511.848 1093.92,-504.859"/>
</g>
<!-- Node22 -->
<g id="node22" class="node"><title>Node22</title>
<g id="a_node22"><a xlink:href="../../de/d02/AbstractDynamicalFunction_8hpp.html" target="_top" xlink:title="/home/travis/build\l/ComPWA/ComPWA/Physics\l/HelicityFormalism/AbstractDynamical\lFunction.hpp">
<polygon fill="white" stroke="red" points="1714.83,-403 1714.83,-455 1899.83,-455 1899.83,-403 1714.83,-403"/>
<text text-anchor="start" x="1722.83" y="-443" font-family="Helvetica,sans-Serif" font-size="10.00">/home/travis/build</text>
<text text-anchor="start" x="1722.83" y="-432" font-family="Helvetica,sans-Serif" font-size="10.00">/ComPWA/ComPWA/Physics</text>
<text text-anchor="start" x="1722.83" y="-421" font-family="Helvetica,sans-Serif" font-size="10.00">/HelicityFormalism/AbstractDynamical</text>
<text text-anchor="middle" x="1807.33" y="-410" font-family="Helvetica,sans-Serif" font-size="10.00">Function.hpp</text>
</a>
</g>
</g>
<!-- Node2&#45;&gt;Node22 -->
<g id="edge36" class="edge"><title>Node2&#45;&gt;Node22</title>
<path fill="none" stroke="midnightblue" d="M1094.4,-509.933C1222.69,-505.582 1485.77,-492.637 1705.33,-456 1708.39,-455.489 1711.5,-454.931 1714.63,-454.334"/>
<polygon fill="midnightblue" stroke="midnightblue" points="1094.16,-506.439 1084.28,-510.268 1094.39,-513.435 1094.16,-506.439"/>
</g>
<!-- Node23 -->
<g id="node23" class="node"><title>Node23</title>
<g id="a_node23"><a xlink:href="../../d9/de6/AmpWignerD_8hpp.html" target="_top" xlink:title="Angular distribution based on WignerD functions. ">
<polygon fill="white" stroke="red" points="1917.83,-408.5 1917.83,-449.5 2096.83,-449.5 2096.83,-408.5 1917.83,-408.5"/>
<text text-anchor="start" x="1925.83" y="-437.5" font-family="Helvetica,sans-Serif" font-size="10.00">/home/travis/build</text>
<text text-anchor="start" x="1925.83" y="-426.5" font-family="Helvetica,sans-Serif" font-size="10.00">/ComPWA/ComPWA/Physics</text>
<text text-anchor="middle" x="2007.33" y="-415.5" font-family="Helvetica,sans-Serif" font-size="10.00">/HelicityFormalism/AmpWignerD.hpp</text>
</a>
</g>
</g>
<!-- Node2&#45;&gt;Node23 -->
<g id="edge37" class="edge"><title>Node2&#45;&gt;Node23</title>
<path fill="none" stroke="midnightblue" d="M1094.38,-512.17C1250.16,-511.396 1610.33,-504.019 1908.33,-456 1918.68,-454.332 1929.52,-452.052 1940.07,-449.53"/>
<polygon fill="midnightblue" stroke="midnightblue" points="1093.95,-508.672 1083.96,-512.213 1093.98,-515.672 1093.95,-508.672"/>
</g>
<!-- Node24 -->
<g id="node24" class="node"><title>Node24</title>
<g id="a_node24"><a xlink:href="../../d4/d62/Resonance_8hpp.html" target="_top" xlink:title="/home/travis/build\l/ComPWA/ComPWA/Physics\l/Resonance.hpp">
<polygon fill="white" stroke="red" points="2114.83,-408.5 2114.83,-449.5 2263.83,-449.5 2263.83,-408.5 2114.83,-408.5"/>
<text text-anchor="start" x="2122.83" y="-437.5" font-family="Helvetica,sans-Serif" font-size="10.00">/home/travis/build</text>
<text text-anchor="start" x="2122.83" y="-426.5" font-family="Helvetica,sans-Serif" font-size="10.00">/ComPWA/ComPWA/Physics</text>
<text text-anchor="middle" x="2189.33" y="-415.5" font-family="Helvetica,sans-Serif" font-size="10.00">/Resonance.hpp</text>
</a>
</g>
</g>
<!-- Node2&#45;&gt;Node24 -->
<g id="edge38" class="edge"><title>Node2&#45;&gt;Node24</title>
<path fill="none" stroke="midnightblue" d="M1094.18,-510.51C1309.66,-505.985 1910.82,-490.546 2105.33,-456 2114.35,-454.398 2123.75,-452.119 2132.87,-449.568"/>
<polygon fill="midnightblue" stroke="midnightblue" points="1093.83,-507.016 1083.91,-510.723 1093.98,-514.014 1093.83,-507.016"/>
</g>
<!-- Node4 -->
<g id="node4" class="node"><title>Node4</title>
<g id="a_node4"><a xlink:href="../../d5/dca/AmpIntensity_8cpp.html" target="_top" xlink:title="/home/travis/build\l/ComPWA/ComPWA/Core\l/AmpIntensity.cpp">
<polygon fill="white" stroke="black" points="598.831,-324.5 598.831,-365.5 733.831,-365.5 733.831,-324.5 598.831,-324.5"/>
<text text-anchor="start" x="606.831" y="-353.5" font-family="Helvetica,sans-Serif" font-size="10.00">/home/travis/build</text>
<text text-anchor="start" x="606.831" y="-342.5" font-family="Helvetica,sans-Serif" font-size="10.00">/ComPWA/ComPWA/Core</text>
<text text-anchor="middle" x="666.331" y="-331.5" font-family="Helvetica,sans-Serif" font-size="10.00">/AmpIntensity.cpp</text>
</a>
</g>
</g>
<!-- Node3&#45;&gt;Node4 -->
<g id="edge3" class="edge"><title>Node3&#45;&gt;Node4</title>
<path fill="none" stroke="midnightblue" d="M601.322,-401.528C614.97,-389.871 630.724,-376.414 643.306,-365.667"/>
<polygon fill="midnightblue" stroke="midnightblue" points="598.9,-398.994 593.57,-408.15 603.447,-404.317 598.9,-398.994"/>
</g>
<!-- Node3&#45;&gt;Node5 -->
<g id="edge4" class="edge"><title>Node3&#45;&gt;Node5</title>
<path fill="none" stroke="midnightblue" d="M529.535,-403.036C509.996,-391.079 486.928,-376.963 468.63,-365.765"/>
<polygon fill="midnightblue" stroke="midnightblue" points="527.878,-406.125 538.234,-408.359 531.532,-400.154 527.878,-406.125"/>
</g>
<!-- Node3&#45;&gt;Node6 -->
<g id="edge17" class="edge"><title>Node3&#45;&gt;Node6</title>
<path fill="none" stroke="midnightblue" d="M556.106,-398.924C545.175,-377.539 529.142,-348.121 512.331,-324 503.471,-311.289 492.264,-298.083 482.906,-287.69"/>
<polygon fill="midnightblue" stroke="midnightblue" points="553.124,-400.785 560.754,-408.136 559.374,-397.632 553.124,-400.785"/>
</g>
<!-- Node3&#45;&gt;Node7 -->
<g id="edge18" class="edge"><title>Node3&#45;&gt;Node7</title>
<path fill="none" stroke="midnightblue" d="M572.715,-398.166C575.142,-376.912 579.947,-347.98 589.331,-324 606.598,-279.873 639.033,-234.552 658.459,-209.561"/>
<polygon fill="midnightblue" stroke="midnightblue" points="569.223,-397.914 571.679,-408.22 576.186,-398.632 569.223,-397.914"/>
</g>
<!-- Node5&#45;&gt;Node6 -->
<g id="edge5" class="edge"><title>Node5&#45;&gt;Node6</title>
<path fill="none" stroke="midnightblue" d="M447.058,-314.882C450.433,-305.721 454.077,-295.83 457.144,-287.506"/>
<polygon fill="midnightblue" stroke="midnightblue" points="443.714,-313.835 443.541,-324.428 450.283,-316.255 443.714,-313.835"/>
</g>
<!-- Node6&#45;&gt;Node7 -->
<g id="edge6" class="edge"><title>Node6&#45;&gt;Node7</title>
<path fill="none" stroke="midnightblue" d="M528.195,-242.887C557.674,-232.219 592.292,-219.69 620.434,-209.506"/>
<polygon fill="midnightblue" stroke="midnightblue" points="526.623,-239.734 518.411,-246.428 529.005,-246.316 526.623,-239.734"/>
</g>
<!-- Node6&#45;&gt;Node11 -->
<g id="edge16" class="edge"><title>Node6&#45;&gt;Node11</title>
<path fill="none" stroke="midnightblue" d="M484.436,-237.996C502.771,-211.584 529.755,-170.422 548.331,-132 563.059,-101.536 575.168,-64.0072 581.807,-41.595"/>
<polygon fill="midnightblue" stroke="midnightblue" points="481.446,-236.164 478.575,-246.362 487.179,-240.181 481.446,-236.164"/>
</g>
<!-- Node7&#45;&gt;Node8 -->
<g id="edge7" class="edge"><title>Node7&#45;&gt;Node8</title>
<path fill="none" stroke="midnightblue" d="M586.016,-182.241C489.712,-174.894 331.405,-159.686 197.331,-132 188.685,-130.215 179.659,-127.966 170.832,-125.543"/>
<polygon fill="midnightblue" stroke="midnightblue" points="585.769,-185.732 596.004,-182.992 586.294,-178.752 585.769,-185.732"/>
</g>
<!-- Node7&#45;&gt;Node9 -->
<g id="edge8" class="edge"><title>Node7&#45;&gt;Node9</title>
<path fill="none" stroke="midnightblue" d="M586.356,-174.098C526.065,-163.97 444.444,-149.072 373.331,-132 370.387,-131.293 367.396,-130.549 364.381,-129.775"/>
<polygon fill="midnightblue" stroke="midnightblue" points="585.781,-177.551 596.221,-175.745 586.934,-170.646 585.781,-177.551"/>
</g>
<!-- Node7&#45;&gt;Node10 -->
<g id="edge9" class="edge"><title>Node7&#45;&gt;Node10</title>
<path fill="none" stroke="midnightblue" d="M613.843,-164.714C581.69,-152.336 542.61,-137.29 512.059,-125.529"/>
<polygon fill="midnightblue" stroke="midnightblue" points="612.993,-168.137 623.582,-168.463 615.508,-161.604 612.993,-168.137"/>
</g>
<!-- Node7&#45;&gt;Node11 -->
<g id="edge10" class="edge"><title>Node7&#45;&gt;Node11</title>
<path fill="none" stroke="midnightblue" d="M646.052,-160.788C638.218,-152.148 630.249,-142.179 624.331,-132 607.316,-102.737 596.699,-64.5089 591.41,-41.6846"/>
<polygon fill="midnightblue" stroke="midnightblue" points="643.741,-163.439 653.146,-168.316 648.835,-158.638 643.741,-163.439"/>
</g>
<!-- Node7&#45;&gt;Node12 -->
<g id="edge11" class="edge"><title>Node7&#45;&gt;Node12</title>
<path fill="none" stroke="midnightblue" d="M762.614,-182.955C863.988,-176.068 1034.91,-161.104 1179.33,-132 1188.08,-130.238 1197.21,-128.002 1206.13,-125.585"/>
<polygon fill="midnightblue" stroke="midnightblue" points="762.163,-179.477 752.419,-183.636 762.63,-186.461 762.163,-179.477"/>
</g>
<!-- Node7&#45;&gt;Node13 -->
<g id="edge13" class="edge"><title>Node7&#45;&gt;Node13</title>
<path fill="none" stroke="midnightblue" d="M689.423,-159.219C695.242,-148.122 701.751,-135.711 707.017,-125.667"/>
<polygon fill="midnightblue" stroke="midnightblue" points="686.284,-157.668 684.74,-168.15 692.484,-160.919 686.284,-157.668"/>
</g>
<!-- Node7&#45;&gt;Node14 -->
<g id="edge14" class="edge"><title>Node7&#45;&gt;Node14</title>
<path fill="none" stroke="midnightblue" d="M738.189,-165.033C772.773,-152.595 815.046,-137.392 848.03,-125.529"/>
<polygon fill="midnightblue" stroke="midnightblue" points="736.878,-161.785 728.653,-168.463 739.247,-168.372 736.878,-161.785"/>
</g>
<!-- Node7&#45;&gt;Node15 -->
<g id="edge15" class="edge"><title>Node7&#45;&gt;Node15</title>
<path fill="none" stroke="midnightblue" d="M762.494,-174.988C827.028,-164.878 916.536,-149.636 994.331,-132 1002.83,-130.073 1011.72,-127.855 1020.48,-125.546"/>
<polygon fill="midnightblue" stroke="midnightblue" points="761.699,-171.569 752.356,-176.566 762.776,-178.486 761.699,-171.569"/>
</g>
<!-- Node12&#45;&gt;Node11 -->
<g id="edge12" class="edge"><title>Node12&#45;&gt;Node11</title>
<path fill="none" stroke="midnightblue" d="M1196.79,-81.8688C1190.91,-80.4206 1185.04,-79.1032 1179.33,-78 997.891,-42.9554 780.75,-29.5397 666.542,-24.6398"/>
<polygon fill="midnightblue" stroke="midnightblue" points="1196.08,-85.3013 1206.64,-84.4146 1197.83,-78.5239 1196.08,-85.3013"/>
</g>
</g>
</svg>
