<?xml version="1.0" encoding="UTF-8" standalone="no"?>
<!DOCTYPE svg PUBLIC "-//W3C//DTD SVG 1.1//EN"
 "http://www.w3.org/Graphics/SVG/1.1/DTD/svg11.dtd">
<!-- Generated by graphviz version 2.36.0 (20140111.2315)
 -->
<!-- Title: /home/travis/build/ComPWA/ComPWA/Core/TreeNode.hpp Pages: 1 -->
<svg width="2413pt" height="620pt"
 viewBox="0.00 0.00 2413.15 620.00" xmlns="http://www.w3.org/2000/svg" xmlns:xlink="http://www.w3.org/1999/xlink">
<g id="graph0" class="graph" transform="scale(1 1) rotate(0) translate(4 616)">
<title>/home/travis/build/ComPWA/ComPWA/Core/TreeNode.hpp</title>
<polygon fill="white" stroke="none" points="-4,4 -4,-616 2409.15,-616 2409.15,4 -4,4"/>
<!-- Node1 -->
<g id="node1" class="node"><title>Node1</title>
<polygon fill="#bfbfbf" stroke="black" points="1639.65,-570.5 1639.65,-611.5 1774.65,-611.5 1774.65,-570.5 1639.65,-570.5"/>
<text text-anchor="start" x="1647.65" y="-599.5" font-family="Helvetica,sans-Serif" font-size="10.00">/home/travis/build</text>
<text text-anchor="start" x="1647.65" y="-588.5" font-family="Helvetica,sans-Serif" font-size="10.00">/ComPWA/ComPWA/Core</text>
<text text-anchor="middle" x="1707.15" y="-577.5" font-family="Helvetica,sans-Serif" font-size="10.00">/TreeNode.hpp</text>
</g>
<!-- Node2 -->
<g id="node2" class="node"><title>Node2</title>
<g id="a_node2"><a xlink:href="../../da/db2/FunctionTree_8hpp.html" target="_top" xlink:title="This class can be used to store a function in a tree&#45;like structure. ">
<polygon fill="white" stroke="black" points="912.65,-492.5 912.65,-533.5 1047.65,-533.5 1047.65,-492.5 912.65,-492.5"/>
<text text-anchor="start" x="920.65" y="-521.5" font-family="Helvetica,sans-Serif" font-size="10.00">/home/travis/build</text>
<text text-anchor="start" x="920.65" y="-510.5" font-family="Helvetica,sans-Serif" font-size="10.00">/ComPWA/ComPWA/Core</text>
<text text-anchor="middle" x="980.15" y="-499.5" font-family="Helvetica,sans-Serif" font-size="10.00">/FunctionTree.hpp</text>
</a>
</g>
</g>
<!-- Node1&#45;&gt;Node2 -->
<g id="edge1" class="edge"><title>Node1&#45;&gt;Node2</title>
<path fill="none" stroke="midnightblue" d="M1629.38,-581.87C1486.14,-566.896 1182.95,-535.2 1047.72,-521.064"/>
<polygon fill="midnightblue" stroke="midnightblue" points="1629.1,-585.36 1639.41,-582.918 1629.83,-578.398 1629.1,-585.36"/>
</g>
<!-- Node17 -->
<g id="node17" class="node"><title>Node17</title>
<g id="a_node17"><a xlink:href="../../d3/d0c/TreeTestApp_8cpp.html" target="_top" xlink:title="Test&#45;Application to show usage of the FunctionTree. ">
<polygon fill="white" stroke="black" points="2270.65,-408.5 2270.65,-449.5 2405.65,-449.5 2405.65,-408.5 2270.65,-408.5"/>
<text text-anchor="start" x="2278.65" y="-437.5" font-family="Helvetica,sans-Serif" font-size="10.00">/home/travis/build</text>
<text text-anchor="start" x="2278.65" y="-426.5" font-family="Helvetica,sans-Serif" font-size="10.00">/ComPWA/ComPWA/Core</text>
<text text-anchor="middle" x="2338.15" y="-415.5" font-family="Helvetica,sans-Serif" font-size="10.00">/test/TreeTestApp.cpp</text>
</a>
</g>
</g>
<!-- Node1&#45;&gt;Node17 -->
<g id="edge40" class="edge"><title>Node1&#45;&gt;Node17</title>
<path fill="none" stroke="midnightblue" d="M1704.15,-560.196C1703.71,-537.962 1707.29,-508.664 1726.15,-492 1770.39,-452.922 2198.16,-466.998 2256.15,-456 2264.81,-454.358 2273.83,-452.092 2282.59,-449.577"/>
<polygon fill="midnightblue" stroke="midnightblue" points="1700.67,-560.634 1704.64,-570.456 1707.66,-560.301 1700.67,-560.634"/>
</g>
<!-- Node25 -->
<g id="node25" class="node"><title>Node25</title>
<g id="a_node25"><a xlink:href="../../d3/d71/TreeNode_8cpp.html" target="_top" xlink:title="/home/travis/build\l/ComPWA/ComPWA/Core\l/TreeNode.cpp">
<polygon fill="white" stroke="black" points="1735.65,-492.5 1735.65,-533.5 1870.65,-533.5 1870.65,-492.5 1735.65,-492.5"/>
<text text-anchor="start" x="1743.65" y="-521.5" font-family="Helvetica,sans-Serif" font-size="10.00">/home/travis/build</text>
<text text-anchor="start" x="1743.65" y="-510.5" font-family="Helvetica,sans-Serif" font-size="10.00">/ComPWA/ComPWA/Core</text>
<text text-anchor="middle" x="1803.15" y="-499.5" font-family="Helvetica,sans-Serif" font-size="10.00">/TreeNode.cpp</text>
</a>
</g>
</g>
<!-- Node1&#45;&gt;Node25 -->
<g id="edge41" class="edge"><title>Node1&#45;&gt;Node25</title>
<path fill="none" stroke="midnightblue" d="M1739.91,-564.065C1752.55,-554.057 1766.77,-542.804 1778.51,-533.506"/>
<polygon fill="midnightblue" stroke="midnightblue" points="1737.54,-561.477 1731.87,-570.428 1741.89,-566.965 1737.54,-561.477"/>
</g>
<!-- Node3 -->
<g id="node3" class="node"><title>Node3</title>
<g id="a_node3"><a xlink:href="../../dc/dfd/AmpIntensity_8hpp.html" target="_top" xlink:title="/home/travis/build\l/ComPWA/ComPWA/Core\l/AmpIntensity.hpp">
<polygon fill="white" stroke="red" points="383.65,-408.5 383.65,-449.5 518.65,-449.5 518.65,-408.5 383.65,-408.5"/>
<text text-anchor="start" x="391.65" y="-437.5" font-family="Helvetica,sans-Serif" font-size="10.00">/home/travis/build</text>
<text text-anchor="start" x="391.65" y="-426.5" font-family="Helvetica,sans-Serif" font-size="10.00">/ComPWA/ComPWA/Core</text>
<text text-anchor="middle" x="451.15" y="-415.5" font-family="Helvetica,sans-Serif" font-size="10.00">/AmpIntensity.hpp</text>
</a>
</g>
</g>
<!-- Node2&#45;&gt;Node3 -->
<g id="edge2" class="edge"><title>Node2&#45;&gt;Node3</title>
<path fill="none" stroke="midnightblue" d="M902.509,-503.878C818.313,-494.539 680.137,-477.669 562.15,-456 548.037,-453.408 533.015,-450.199 518.731,-446.93"/>
<polygon fill="midnightblue" stroke="midnightblue" points="902.181,-507.363 912.505,-504.979 902.948,-500.405 902.181,-507.363"/>
</g>
<!-- Node4 -->
<g id="node4" class="node"><title>Node4</title>
<g id="a_node4"><a xlink:href="../../de/d1f/ControlParameter_8hpp.html" target="_top" xlink:title="This class provides the interface for the optimizer module to access the data. ">
<polygon fill="white" stroke="red" points="479.65,-324.5 479.65,-365.5 614.65,-365.5 614.65,-324.5 479.65,-324.5"/>
<text text-anchor="start" x="487.65" y="-353.5" font-family="Helvetica,sans-Serif" font-size="10.00">/home/travis/build</text>
<text text-anchor="start" x="487.65" y="-342.5" font-family="Helvetica,sans-Serif" font-size="10.00">/ComPWA/ComPWA/Core</text>
<text text-anchor="middle" x="547.15" y="-331.5" font-family="Helvetica,sans-Serif" font-size="10.00">/ControlParameter.hpp</text>
</a>
</g>
</g>
<!-- Node2&#45;&gt;Node4 -->
<g id="edge19" class="edge"><title>Node2&#45;&gt;Node4</title>
<path fill="none" stroke="midnightblue" d="M902.286,-506.41C813.21,-498.842 673.885,-483.072 629.15,-456 593.488,-434.418 568.264,-390.94 555.872,-365.587"/>
<polygon fill="midnightblue" stroke="midnightblue" points="902.096,-509.906 912.352,-507.249 902.678,-502.93 902.096,-509.906"/>
</g>
<!-- Node5 -->
<g id="node5" class="node"><title>Node5</title>
<g id="a_node5"><a xlink:href="../../d5/d10/Estimator_8hpp.html" target="_top" xlink:title="This class provides the interface to classes which estimate the &quot;closeness&quot; of the modeled intensity ...">
<polygon fill="white" stroke="red" points="469.15,-246.5 469.15,-287.5 625.15,-287.5 625.15,-246.5 469.15,-246.5"/>
<text text-anchor="start" x="477.15" y="-275.5" font-family="Helvetica,sans-Serif" font-size="10.00">/home/travis/build</text>
<text text-anchor="start" x="477.15" y="-264.5" font-family="Helvetica,sans-Serif" font-size="10.00">/ComPWA/ComPWA/Estimator</text>
<text text-anchor="middle" x="547.15" y="-253.5" font-family="Helvetica,sans-Serif" font-size="10.00">/Estimator.hpp</text>
</a>
</g>
</g>
<!-- Node2&#45;&gt;Node5 -->
<g id="edge23" class="edge"><title>Node2&#45;&gt;Node5</title>
<path fill="none" stroke="midnightblue" d="M902.242,-507.06C821.239,-500.391 701.536,-485.738 667.15,-456 620.376,-415.548 659.521,-374.014 623.15,-324 612.547,-309.419 597.024,-297.03 582.767,-287.64"/>
<polygon fill="midnightblue" stroke="midnightblue" points="902.166,-510.565 912.413,-507.872 902.724,-503.587 902.166,-510.565"/>
</g>
<!-- Node6 -->
<g id="node6" class="node"><title>Node6</title>
<g id="a_node6"><a xlink:href="../../d7/de4/MinLogLH_8hpp.html" target="_top" xlink:title="This class calculates a simple &#45;log(LH) of a intensity and a dataset. ">
<polygon fill="white" stroke="red" points="535.15,-168.5 535.15,-209.5 691.15,-209.5 691.15,-168.5 535.15,-168.5"/>
<text text-anchor="start" x="543.15" y="-197.5" font-family="Helvetica,sans-Serif" font-size="10.00">/home/travis/build</text>
<text text-anchor="start" x="543.15" y="-186.5" font-family="Helvetica,sans-Serif" font-size="10.00">/ComPWA/ComPWA/Estimator</text>
<text text-anchor="middle" x="613.15" y="-175.5" font-family="Helvetica,sans-Serif" font-size="10.00">/MinLogLH/MinLogLH.hpp</text>
</a>
</g>
</g>
<!-- Node2&#45;&gt;Node6 -->
<g id="edge25" class="edge"><title>Node2&#45;&gt;Node6</title>
<path fill="none" stroke="midnightblue" d="M902.128,-504.782C831.389,-496.729 733.926,-481.382 705.15,-456 668.207,-423.413 650.69,-292.402 634.15,-246 629.827,-233.872 624.765,-220.354 620.694,-209.639"/>
<polygon fill="midnightblue" stroke="midnightblue" points="902.034,-508.293 912.36,-505.917 902.807,-501.335 902.034,-508.293"/>
</g>
<!-- Node7 -->
<g id="node7" class="node"><title>Node7</title>
<g id="a_node7"><a xlink:href="../../de/d8e/MinLogLH_8cpp.html" target="_top" xlink:title="/home/travis/build\l/ComPWA/ComPWA/Estimator\l/MinLogLH/MinLogLH.cpp">
<polygon fill="white" stroke="black" points="2042.15,-84.5 2042.15,-125.5 2198.15,-125.5 2198.15,-84.5 2042.15,-84.5"/>
<text text-anchor="start" x="2050.15" y="-113.5" font-family="Helvetica,sans-Serif" font-size="10.00">/home/travis/build</text>
<text text-anchor="start" x="2050.15" y="-102.5" font-family="Helvetica,sans-Serif" font-size="10.00">/ComPWA/ComPWA/Estimator</text>
<text text-anchor="middle" x="2120.15" y="-91.5" font-family="Helvetica,sans-Serif" font-size="10.00">/MinLogLH/MinLogLH.cpp</text>
</a>
</g>
</g>
<!-- Node2&#45;&gt;Node7 -->
<g id="edge24" class="edge"><title>Node2&#45;&gt;Node7</title>
<path fill="none" stroke="midnightblue" d="M1058.29,-509.59C1324.38,-501.237 2180.09,-473.097 2203.15,-456 2244.82,-425.11 2242.15,-397.871 2242.15,-346 2242.15,-346 2242.15,-346 2242.15,-266 2242.15,-204.87 2185.14,-152.548 2149.06,-125.558"/>
<polygon fill="midnightblue" stroke="midnightblue" points="1057.83,-506.103 1047.94,-509.914 1058.05,-513.1 1057.83,-506.103"/>
</g>
<!-- Node8 -->
<g id="node8" class="node"><title>Node8</title>
<g id="a_node8"><a xlink:href="../../db/d7b/DalitzFitD03K_8cpp.html" target="_top" xlink:title="/home/travis/build\l/ComPWA/ComPWA/Examples\l/DalitzAnalysis_D0KsKK\l/DalitzFitD03K.cpp">
<polygon fill="white" stroke="black" points="32.1503,-79 32.1503,-131 190.15,-131 190.15,-79 32.1503,-79"/>
<text text-anchor="start" x="40.1503" y="-119" font-family="Helvetica,sans-Serif" font-size="10.00">/home/travis/build</text>
<text text-anchor="start" x="40.1503" y="-108" font-family="Helvetica,sans-Serif" font-size="10.00">/ComPWA/ComPWA/Examples</text>
<text text-anchor="start" x="40.1503" y="-97" font-family="Helvetica,sans-Serif" font-size="10.00">/DalitzAnalysis_D0KsKK</text>
<text text-anchor="middle" x="111.15" y="-86" font-family="Helvetica,sans-Serif" font-size="10.00">/DalitzFitD03K.cpp</text>
</a>
</g>
</g>
<!-- Node2&#45;&gt;Node8 -->
<g id="edge26" class="edge"><title>Node2&#45;&gt;Node8</title>
<path fill="none" stroke="midnightblue" d="M902.512,-510.621C715.023,-506.712 248.576,-493.313 189.15,-456 141.437,-426.041 126.15,-402.339 126.15,-346 126.15,-346 126.15,-346 126.15,-266 126.15,-218.152 119.418,-162.606 114.974,-131.149"/>
<polygon fill="midnightblue" stroke="midnightblue" points="902.504,-514.122 912.573,-510.827 902.647,-507.123 902.504,-514.122"/>
</g>
<!-- Node9 -->
<g id="node9" class="node"><title>Node9</title>
<g id="a_node9"><a xlink:href="../../da/d2a/DalitzFitApp_8cpp.html" target="_top" xlink:title="Dalitz plot analysis of the decay D0&#45;&gt;K_S0 K_ K&#45;Fit application for D0&#45;&gt;K_S0 K_ K&#45; analysis...">
<polygon fill="white" stroke="black" points="246.15,-84.5 246.15,-125.5 404.15,-125.5 404.15,-84.5 246.15,-84.5"/>
<text text-anchor="start" x="254.15" y="-113.5" font-family="Helvetica,sans-Serif" font-size="10.00">/home/travis/build</text>
<text text-anchor="start" x="254.15" y="-102.5" font-family="Helvetica,sans-Serif" font-size="10.00">/ComPWA/ComPWA/Examples</text>
<text text-anchor="middle" x="325.15" y="-91.5" font-family="Helvetica,sans-Serif" font-size="10.00">/DalitzFit/DalitzFitApp.cpp</text>
</a>
</g>
</g>
<!-- Node2&#45;&gt;Node9 -->
<g id="edge27" class="edge"><title>Node2&#45;&gt;Node9</title>
<path fill="none" stroke="midnightblue" d="M902.372,-509.777C726.68,-504.217 310.118,-487.819 255.15,-456 203.94,-426.356 180.15,-405.171 180.15,-346 180.15,-346 180.15,-346 180.15,-266 180.15,-201.521 245.606,-151.459 288.561,-125.548"/>
<polygon fill="midnightblue" stroke="midnightblue" points="902.475,-513.282 912.58,-510.096 902.694,-506.285 902.475,-513.282"/>
</g>
<!-- Node10 -->
<g id="node10" class="node"><title>Node10</title>
<g id="a_node10"><a xlink:href="../../d6/d0a/PythonFit_8cpp.html" target="_top" xlink:title="/home/travis/build\l/ComPWA/ComPWA/Examples\l/PythonDalitzFit/PythonFit.cpp">
<polygon fill="white" stroke="black" points="338.15,-0.5 338.15,-41.5 496.15,-41.5 496.15,-0.5 338.15,-0.5"/>
<text text-anchor="start" x="346.15" y="-29.5" font-family="Helvetica,sans-Serif" font-size="10.00">/home/travis/build</text>
<text text-anchor="start" x="346.15" y="-18.5" font-family="Helvetica,sans-Serif" font-size="10.00">/ComPWA/ComPWA/Examples</text>
<text text-anchor="middle" x="417.15" y="-7.5" font-family="Helvetica,sans-Serif" font-size="10.00">/PythonDalitzFit/PythonFit.cpp</text>
</a>
</g>
</g>
<!-- Node2&#45;&gt;Node10 -->
<g id="edge28" class="edge"><title>Node2&#45;&gt;Node10</title>
<path fill="none" stroke="midnightblue" d="M902.218,-509.665C706.02,-503.388 202.301,-484.666 132.15,-456 62.7141,-427.626 4.15032,-421.01 4.15032,-346 4.15032,-346 4.15032,-346 4.15032,-188 4.15032,-138.387 -12.451,-112.554 23.1503,-78 66.7169,-35.715 236.162,-25.0957 338.116,-22.5931"/>
<polygon fill="midnightblue" stroke="midnightblue" points="902.344,-513.171 912.45,-509.99 902.566,-506.174 902.344,-513.171"/>
</g>
<!-- Node11 -->
<g id="node11" class="node"><title>Node11</title>
<g id="a_node11"><a xlink:href="../../db/deb/PythonFit_8hpp.html" target="_top" xlink:title="This class provides a Manager for simple fits. ">
<polygon fill="white" stroke="red" points="644.15,-84.5 644.15,-125.5 802.15,-125.5 802.15,-84.5 644.15,-84.5"/>
<text text-anchor="start" x="652.15" y="-113.5" font-family="Helvetica,sans-Serif" font-size="10.00">/home/travis/build</text>
<text text-anchor="start" x="652.15" y="-102.5" font-family="Helvetica,sans-Serif" font-size="10.00">/ComPWA/ComPWA/Examples</text>
<text text-anchor="middle" x="723.15" y="-91.5" font-family="Helvetica,sans-Serif" font-size="10.00">/PythonDalitzFit/PythonFit.hpp</text>
</a>
</g>
</g>
<!-- Node2&#45;&gt;Node11 -->
<g id="edge29" class="edge"><title>Node2&#45;&gt;Node11</title>
<path fill="none" stroke="midnightblue" d="M902.225,-503.342C840.284,-494.816 760.458,-479.602 738.15,-456 704.071,-419.944 719.15,-395.613 719.15,-346 719.15,-346 719.15,-346 719.15,-266 719.15,-215.429 721.172,-155.894 722.341,-125.702"/>
<polygon fill="midnightblue" stroke="midnightblue" points="902.015,-506.845 912.391,-504.704 902.944,-499.907 902.015,-506.845"/>
</g>
<!-- Node12 -->
<g id="node12" class="node"><title>Node12</title>
<g id="a_node12"><a xlink:href="../../d9/dab/CompareTreeAmpApp_8cpp.html" target="_top" xlink:title="/home/travis/build\l/ComPWA/ComPWA/executables\l/CompareTreeAmpApp.cpp">
<polygon fill="white" stroke="black" points="421.65,-84.5 421.65,-125.5 588.65,-125.5 588.65,-84.5 421.65,-84.5"/>
<text text-anchor="start" x="429.65" y="-113.5" font-family="Helvetica,sans-Serif" font-size="10.00">/home/travis/build</text>
<text text-anchor="start" x="429.65" y="-102.5" font-family="Helvetica,sans-Serif" font-size="10.00">/ComPWA/ComPWA/executables</text>
<text text-anchor="middle" x="505.15" y="-91.5" font-family="Helvetica,sans-Serif" font-size="10.00">/CompareTreeAmpApp.cpp</text>
</a>
</g>
</g>
<!-- Node2&#45;&gt;Node12 -->
<g id="edge33" class="edge"><title>Node2&#45;&gt;Node12</title>
<path fill="none" stroke="midnightblue" d="M902.571,-511.842C753.038,-510.479 430.874,-502.095 331.15,-456 279.516,-432.133 262.064,-418.493 240.15,-366 192.602,-252.099 364.478,-163.115 454.105,-125.506"/>
<polygon fill="midnightblue" stroke="midnightblue" points="902.572,-515.342 912.601,-511.925 902.63,-508.342 902.572,-515.342"/>
</g>
<!-- Node13 -->
<g id="node13" class="node"><title>Node13</title>
<g id="a_node13"><a xlink:href="../../d1/d13/HelicityAmplitudeFitApp_8cpp.html" target="_top" xlink:title="/home/travis/build\l/ComPWA/ComPWA/executables\l/HelicityAmplitudeFitApp.cpp">
<polygon fill="white" stroke="black" points="1306.65,-84.5 1306.65,-125.5 1473.65,-125.5 1473.65,-84.5 1306.65,-84.5"/>
<text text-anchor="start" x="1314.65" y="-113.5" font-family="Helvetica,sans-Serif" font-size="10.00">/home/travis/build</text>
<text text-anchor="start" x="1314.65" y="-102.5" font-family="Helvetica,sans-Serif" font-size="10.00">/ComPWA/ComPWA/executables</text>
<text text-anchor="middle" x="1390.15" y="-91.5" font-family="Helvetica,sans-Serif" font-size="10.00">/HelicityAmplitudeFitApp.cpp</text>
</a>
</g>
</g>
<!-- Node2&#45;&gt;Node13 -->
<g id="edge34" class="edge"><title>Node2&#45;&gt;Node13</title>
<path fill="none" stroke="midnightblue" d="M1057.89,-509.569C1315.6,-501.344 2126.7,-474.072 2147.15,-456 2184.32,-423.143 2166.15,-395.613 2166.15,-346 2166.15,-346 2166.15,-346 2166.15,-266 2166.15,-195.932 1674.59,-136.045 1473.93,-114.518"/>
<polygon fill="midnightblue" stroke="midnightblue" points="1057.75,-506.071 1047.86,-509.888 1057.97,-513.068 1057.75,-506.071"/>
</g>
<!-- Node14 -->
<g id="node14" class="node"><title>Node14</title>
<g id="a_node14"><a xlink:href="../../d6/d45/LHNormalizationTestApp_8cpp.html" target="_top" xlink:title="/home/travis/build\l/ComPWA/ComPWA/executables\l/LHNormalizationTestApp.cpp">
<polygon fill="white" stroke="black" points="1734.65,-84.5 1734.65,-125.5 1901.65,-125.5 1901.65,-84.5 1734.65,-84.5"/>
<text text-anchor="start" x="1742.65" y="-113.5" font-family="Helvetica,sans-Serif" font-size="10.00">/home/travis/build</text>
<text text-anchor="start" x="1742.65" y="-102.5" font-family="Helvetica,sans-Serif" font-size="10.00">/ComPWA/ComPWA/executables</text>
<text text-anchor="middle" x="1818.15" y="-91.5" font-family="Helvetica,sans-Serif" font-size="10.00">/LHNormalizationTestApp.cpp</text>
</a>
</g>
</g>
<!-- Node2&#45;&gt;Node14 -->
<g id="edge35" class="edge"><title>Node2&#45;&gt;Node14</title>
<path fill="none" stroke="midnightblue" d="M1058.2,-509.557C1319.93,-501.211 2151.27,-473.385 2173.15,-456 2212.92,-424.398 2204.15,-396.793 2204.15,-346 2204.15,-346 2204.15,-346 2204.15,-266 2204.15,-201.074 2015.43,-148.718 1901.91,-123.096"/>
<polygon fill="midnightblue" stroke="midnightblue" points="1057.9,-506.065 1048.02,-509.881 1058.13,-513.061 1057.9,-506.065"/>
</g>
<!-- Node15 -->
<g id="node15" class="node"><title>Node15</title>
<g id="a_node15"><a xlink:href="../../d8/dec/GaussAmp_8hpp.html" target="_top" xlink:title="/home/travis/build\l/ComPWA/ComPWA/Core\l/GaussAmp.hpp">
<polygon fill="white" stroke="black" points="249.65,-324.5 249.65,-365.5 384.65,-365.5 384.65,-324.5 249.65,-324.5"/>
<text text-anchor="start" x="257.65" y="-353.5" font-family="Helvetica,sans-Serif" font-size="10.00">/home/travis/build</text>
<text text-anchor="start" x="257.65" y="-342.5" font-family="Helvetica,sans-Serif" font-size="10.00">/ComPWA/ComPWA/Core</text>
<text text-anchor="middle" x="317.15" y="-331.5" font-family="Helvetica,sans-Serif" font-size="10.00">/GaussAmp.hpp</text>
</a>
</g>
</g>
<!-- Node2&#45;&gt;Node15 -->
<g id="edge21" class="edge"><title>Node2&#45;&gt;Node15</title>
<path fill="none" stroke="midnightblue" d="M902.095,-508.94C748.255,-502.311 417.018,-484.854 374.15,-456 342.924,-434.982 327.754,-391.297 321.28,-365.756"/>
<polygon fill="midnightblue" stroke="midnightblue" points="902.273,-512.451 912.413,-509.38 902.571,-505.457 902.273,-512.451"/>
</g>
<!-- Node16 -->
<g id="node16" class="node"><title>Node16</title>
<g id="a_node16"><a xlink:href="../../dc/de3/FunctionTree_8cpp.html" target="_top" xlink:title="/home/travis/build\l/ComPWA/ComPWA/Core\l/FunctionTree.cpp">
<polygon fill="white" stroke="black" points="747.65,-408.5 747.65,-449.5 882.65,-449.5 882.65,-408.5 747.65,-408.5"/>
<text text-anchor="start" x="755.65" y="-437.5" font-family="Helvetica,sans-Serif" font-size="10.00">/home/travis/build</text>
<text text-anchor="start" x="755.65" y="-426.5" font-family="Helvetica,sans-Serif" font-size="10.00">/ComPWA/ComPWA/Core</text>
<text text-anchor="middle" x="815.15" y="-415.5" font-family="Helvetica,sans-Serif" font-size="10.00">/FunctionTree.cpp</text>
</a>
</g>
</g>
<!-- Node2&#45;&gt;Node16 -->
<g id="edge20" class="edge"><title>Node2&#45;&gt;Node16</title>
<path fill="none" stroke="midnightblue" d="M931.502,-487.823C907.012,-475.652 877.708,-461.089 854.635,-449.623"/>
<polygon fill="midnightblue" stroke="midnightblue" points="930.116,-491.043 940.629,-492.359 933.231,-484.774 930.116,-491.043"/>
</g>
<!-- Node2&#45;&gt;Node17 -->
<g id="edge22" class="edge"><title>Node2&#45;&gt;Node17</title>
<path fill="none" stroke="midnightblue" d="M1057.92,-509.778C1316.65,-502.222 2138.66,-476.828 2256.15,-456 2265.12,-454.41 2274.47,-452.101 2283.51,-449.507"/>
<polygon fill="midnightblue" stroke="midnightblue" points="1057.75,-506.282 1047.86,-510.071 1057.96,-513.279 1057.75,-506.282"/>
</g>
<!-- Node18 -->
<g id="node18" class="node"><title>Node18</title>
<g id="a_node18"><a xlink:href="../../d6/d9a/SliceFitApp_8cpp.html" target="_top" xlink:title="/home/travis/build\l/ComPWA/ComPWA/Examples\l/SliceFit/SliceFitApp.cpp">
<polygon fill="white" stroke="black" points="901.15,-408.5 901.15,-449.5 1059.15,-449.5 1059.15,-408.5 901.15,-408.5"/>
<text text-anchor="start" x="909.15" y="-437.5" font-family="Helvetica,sans-Serif" font-size="10.00">/home/travis/build</text>
<text text-anchor="start" x="909.15" y="-426.5" font-family="Helvetica,sans-Serif" font-size="10.00">/ComPWA/ComPWA/Examples</text>
<text text-anchor="middle" x="980.15" y="-415.5" font-family="Helvetica,sans-Serif" font-size="10.00">/SliceFit/SliceFitApp.cpp</text>
</a>
</g>
</g>
<!-- Node2&#45;&gt;Node18 -->
<g id="edge30" class="edge"><title>Node2&#45;&gt;Node18</title>
<path fill="none" stroke="midnightblue" d="M980.15,-481.881C980.15,-471.133 980.15,-459.309 980.15,-449.667"/>
<polygon fill="midnightblue" stroke="midnightblue" points="976.65,-482.15 980.15,-492.15 983.65,-482.15 976.65,-482.15"/>
</g>
<!-- Node19 -->
<g id="node19" class="node"><title>Node19</title>
<g id="a_node19"><a xlink:href="../../d3/dbc/SliceFitRANDApp_8cpp.html" target="_top" xlink:title="/home/travis/build\l/ComPWA/ComPWA/Examples\l/SliceFit/SliceFitRANDApp.cpp">
<polygon fill="white" stroke="black" points="1077.15,-408.5 1077.15,-449.5 1235.15,-449.5 1235.15,-408.5 1077.15,-408.5"/>
<text text-anchor="start" x="1085.15" y="-437.5" font-family="Helvetica,sans-Serif" font-size="10.00">/home/travis/build</text>
<text text-anchor="start" x="1085.15" y="-426.5" font-family="Helvetica,sans-Serif" font-size="10.00">/ComPWA/ComPWA/Examples</text>
<text text-anchor="middle" x="1156.15" y="-415.5" font-family="Helvetica,sans-Serif" font-size="10.00">/SliceFit/SliceFitRANDApp.cpp</text>
</a>
</g>
</g>
<!-- Node2&#45;&gt;Node19 -->
<g id="edge31" class="edge"><title>Node2&#45;&gt;Node19</title>
<path fill="none" stroke="midnightblue" d="M1031.7,-487.984C1057.89,-475.781 1089.31,-461.14 1114.03,-449.623"/>
<polygon fill="midnightblue" stroke="midnightblue" points="1029.89,-484.963 1022.31,-492.359 1032.85,-491.308 1029.89,-484.963"/>
</g>
<!-- Node20 -->
<g id="node20" class="node"><title>Node20</title>
<g id="a_node20"><a xlink:href="../../d9/de4/SliceFitUBApp_8cpp.html" target="_top" xlink:title="/home/travis/build\l/ComPWA/ComPWA/Examples\l/SliceFit/SliceFitUBApp.cpp">
<polygon fill="white" stroke="black" points="1253.15,-408.5 1253.15,-449.5 1411.15,-449.5 1411.15,-408.5 1253.15,-408.5"/>
<text text-anchor="start" x="1261.15" y="-437.5" font-family="Helvetica,sans-Serif" font-size="10.00">/home/travis/build</text>
<text text-anchor="start" x="1261.15" y="-426.5" font-family="Helvetica,sans-Serif" font-size="10.00">/ComPWA/ComPWA/Examples</text>
<text text-anchor="middle" x="1332.15" y="-415.5" font-family="Helvetica,sans-Serif" font-size="10.00">/SliceFit/SliceFitUBApp.cpp</text>
</a>
</g>
</g>
<!-- Node2&#45;&gt;Node20 -->
<g id="edge32" class="edge"><title>Node2&#45;&gt;Node20</title>
<path fill="none" stroke="midnightblue" d="M1057.69,-497.068C1110.25,-486.56 1181.17,-471.629 1243.15,-456 1250.95,-454.032 1259.11,-451.841 1267.17,-449.589"/>
<polygon fill="midnightblue" stroke="midnightblue" points="1056.89,-493.659 1047.76,-499.044 1058.25,-500.524 1056.89,-493.659"/>
</g>
<!-- Node21 -->
<g id="node21" class="node"><title>Node21</title>
<g id="a_node21"><a xlink:href="../../dc/de3/Amplitude_8hpp.html" target="_top" xlink:title="This class provides the interface to the model which tries to describe the intensity. ">
<polygon fill="white" stroke="red" points="1428.65,-408.5 1428.65,-449.5 1577.65,-449.5 1577.65,-408.5 1428.65,-408.5"/>
<text text-anchor="start" x="1436.65" y="-437.5" font-family="Helvetica,sans-Serif" font-size="10.00">/home/travis/build</text>
<text text-anchor="start" x="1436.65" y="-426.5" font-family="Helvetica,sans-Serif" font-size="10.00">/ComPWA/ComPWA/Physics</text>
<text text-anchor="middle" x="1503.15" y="-415.5" font-family="Helvetica,sans-Serif" font-size="10.00">/Amplitude.hpp</text>
</a>
</g>
</g>
<!-- Node2&#45;&gt;Node21 -->
<g id="edge36" class="edge"><title>Node2&#45;&gt;Node21</title>
<path fill="none" stroke="midnightblue" d="M1057.9,-506.18C1146.19,-498.627 1294.2,-483.094 1419.15,-456 1427.36,-454.221 1435.91,-452.006 1444.29,-449.625"/>
<polygon fill="midnightblue" stroke="midnightblue" points="1057.37,-502.712 1047.7,-507.04 1057.96,-509.687 1057.37,-502.712"/>
</g>
<!-- Node22 -->
<g id="node22" class="node"><title>Node22</title>
<g id="a_node22"><a xlink:href="../../de/d02/AbstractDynamicalFunction_8hpp.html" target="_top" xlink:title="/home/travis/build\l/ComPWA/ComPWA/Physics\l/DecayDynamics/AbstractDynamical\lFunction.hpp">
<polygon fill="white" stroke="red" points="1595.65,-403 1595.65,-455 1774.65,-455 1774.65,-403 1595.65,-403"/>
<text text-anchor="start" x="1603.65" y="-443" font-family="Helvetica,sans-Serif" font-size="10.00">/home/travis/build</text>
<text text-anchor="start" x="1603.65" y="-432" font-family="Helvetica,sans-Serif" font-size="10.00">/ComPWA/ComPWA/Physics</text>
<text text-anchor="start" x="1603.65" y="-421" font-family="Helvetica,sans-Serif" font-size="10.00">/DecayDynamics/AbstractDynamical</text>
<text text-anchor="middle" x="1685.15" y="-410" font-family="Helvetica,sans-Serif" font-size="10.00">Function.hpp</text>
</a>
</g>
</g>
<!-- Node2&#45;&gt;Node22 -->
<g id="edge37" class="edge"><title>Node2&#45;&gt;Node22</title>
<path fill="none" stroke="midnightblue" d="M1058.08,-508.904C1173.98,-503.376 1398.28,-489.117 1586.15,-456 1589.21,-455.46 1592.32,-454.873 1595.45,-454.246"/>
<polygon fill="midnightblue" stroke="midnightblue" points="1057.71,-505.418 1047.89,-509.381 1058.04,-512.41 1057.71,-505.418"/>
</g>
<!-- Node23 -->
<g id="node23" class="node"><title>Node23</title>
<g id="a_node23"><a xlink:href="../../d9/de6/AmpWignerD_8hpp.html" target="_top" xlink:title="Angular distribution based on WignerD functions. ">
<polygon fill="white" stroke="red" points="1792.65,-408.5 1792.65,-449.5 1971.65,-449.5 1971.65,-408.5 1792.65,-408.5"/>
<text text-anchor="start" x="1800.65" y="-437.5" font-family="Helvetica,sans-Serif" font-size="10.00">/home/travis/build</text>
<text text-anchor="start" x="1800.65" y="-426.5" font-family="Helvetica,sans-Serif" font-size="10.00">/ComPWA/ComPWA/Physics</text>
<text text-anchor="middle" x="1882.15" y="-415.5" font-family="Helvetica,sans-Serif" font-size="10.00">/HelicityFormalism/AmpWignerD.hpp</text>
</a>
</g>
</g>
<!-- Node2&#45;&gt;Node23 -->
<g id="edge38" class="edge"><title>Node2&#45;&gt;Node23</title>
<path fill="none" stroke="midnightblue" d="M1057.86,-511.397C1201.87,-509.216 1519.56,-499.412 1783.15,-456 1793.41,-454.311 1804.15,-452.036 1814.61,-449.531"/>
<polygon fill="midnightblue" stroke="midnightblue" points="1057.75,-507.898 1047.8,-511.541 1057.85,-514.898 1057.75,-507.898"/>
</g>
<!-- Node24 -->
<g id="node24" class="node"><title>Node24</title>
<g id="a_node24"><a xlink:href="../../d4/d62/Resonance_8hpp.html" target="_top" xlink:title="/home/travis/build\l/ComPWA/ComPWA/Physics\l/Resonance.hpp">
<polygon fill="white" stroke="red" points="1989.65,-408.5 1989.65,-449.5 2138.65,-449.5 2138.65,-408.5 1989.65,-408.5"/>
<text text-anchor="start" x="1997.65" y="-437.5" font-family="Helvetica,sans-Serif" font-size="10.00">/home/travis/build</text>
<text text-anchor="start" x="1997.65" y="-426.5" font-family="Helvetica,sans-Serif" font-size="10.00">/ComPWA/ComPWA/Physics</text>
<text text-anchor="middle" x="2064.15" y="-415.5" font-family="Helvetica,sans-Serif" font-size="10.00">/Resonance.hpp</text>
</a>
</g>
</g>
<!-- Node2&#45;&gt;Node24 -->
<g id="edge39" class="edge"><title>Node2&#45;&gt;Node24</title>
<path fill="none" stroke="midnightblue" d="M1057.94,-510.098C1260.97,-504.74 1803.43,-487.804 1980.15,-456 1989.17,-454.378 1998.57,-452.088 2007.68,-449.532"/>
<polygon fill="midnightblue" stroke="midnightblue" points="1057.56,-506.606 1047.66,-510.367 1057.75,-513.604 1057.56,-506.606"/>
</g>
<!-- Node3&#45;&gt;Node4 -->
<g id="edge3" class="edge"><title>Node3&#45;&gt;Node4</title>
<path fill="none" stroke="midnightblue" d="M482.141,-401.528C495.789,-389.871 511.544,-376.414 524.125,-365.667"/>
<polygon fill="midnightblue" stroke="midnightblue" points="479.72,-398.994 474.389,-408.15 484.266,-404.317 479.72,-398.994"/>
</g>
<!-- Node3&#45;&gt;Node5 -->
<g id="edge17" class="edge"><title>Node3&#45;&gt;Node5</title>
<path fill="none" stroke="midnightblue" d="M450.81,-398.324C451.856,-376.281 456.128,-346.299 470.15,-324 479.565,-309.028 494.562,-296.788 508.829,-287.613"/>
<polygon fill="midnightblue" stroke="midnightblue" points="447.308,-398.345 450.526,-408.439 454.305,-398.541 447.308,-398.345"/>
</g>
<!-- Node3&#45;&gt;Node6 -->
<g id="edge18" class="edge"><title>Node3&#45;&gt;Node6</title>
<path fill="none" stroke="midnightblue" d="M443.11,-398.46C434.337,-359.191 425.729,-289.68 460.15,-246 478.446,-222.784 507.299,-209.19 535.042,-201.232"/>
<polygon fill="midnightblue" stroke="midnightblue" points="439.714,-399.306 445.435,-408.223 446.523,-397.685 439.714,-399.306"/>
</g>
<!-- Node3&#45;&gt;Node15 -->
<g id="edge16" class="edge"><title>Node3&#45;&gt;Node15</title>
<path fill="none" stroke="midnightblue" d="M410.355,-403.036C390.816,-391.079 367.748,-376.963 349.449,-365.765"/>
<polygon fill="midnightblue" stroke="midnightblue" points="408.697,-406.125 419.054,-408.359 412.351,-400.154 408.697,-406.125"/>
</g>
<!-- Node4&#45;&gt;Node5 -->
<g id="edge4" class="edge"><title>Node4&#45;&gt;Node5</title>
<path fill="none" stroke="midnightblue" d="M547.15,-314.297C547.15,-305.301 547.15,-295.653 547.15,-287.506"/>
<polygon fill="midnightblue" stroke="midnightblue" points="543.65,-314.428 547.15,-324.428 550.65,-314.428 543.65,-314.428"/>
</g>
<!-- Node5&#45;&gt;Node6 -->
<g id="edge5" class="edge"><title>Node5&#45;&gt;Node6</title>
<path fill="none" stroke="midnightblue" d="M570.922,-238.627C579.29,-228.99 588.52,-218.362 596.211,-209.506"/>
<polygon fill="midnightblue" stroke="midnightblue" points="568.061,-236.583 564.147,-246.428 573.346,-241.173 568.061,-236.583"/>
</g>
<!-- Node5&#45;&gt;Node10 -->
<g id="edge15" class="edge"><title>Node5&#45;&gt;Node10</title>
<path fill="none" stroke="midnightblue" d="M458.915,-254.387C385.703,-239.586 285.972,-206.291 237.15,-132 223.97,-111.943 222.922,-97.3276 237.15,-78 260.336,-46.5047 301.098,-32.2108 337.974,-25.9221"/>
<polygon fill="midnightblue" stroke="midnightblue" points="458.577,-257.887 469.061,-256.355 459.91,-251.015 458.577,-257.887"/>
</g>
<!-- Node6&#45;&gt;Node7 -->
<g id="edge6" class="edge"><title>Node6&#45;&gt;Node7</title>
<path fill="none" stroke="midnightblue" d="M701.549,-186.621C911.517,-182.815 1456.58,-169.809 1910.15,-132 1953.9,-128.353 2002.56,-122.446 2042.02,-117.183"/>
<polygon fill="midnightblue" stroke="midnightblue" points="701.441,-183.122 691.505,-186.801 701.566,-190.121 701.441,-183.122"/>
</g>
<!-- Node6&#45;&gt;Node8 -->
<g id="edge7" class="edge"><title>Node6&#45;&gt;Node8</title>
<path fill="none" stroke="midnightblue" d="M524.755,-176.25C448.416,-165.764 335.255,-149.414 237.15,-132 221.976,-129.307 205.828,-126.176 190.333,-123.04"/>
<polygon fill="midnightblue" stroke="midnightblue" points="524.428,-179.738 534.81,-177.626 525.377,-172.802 524.428,-179.738"/>
</g>
<!-- Node6&#45;&gt;Node9 -->
<g id="edge8" class="edge"><title>Node6&#45;&gt;Node9</title>
<path fill="none" stroke="midnightblue" d="M532.238,-165.828C495.536,-155.676 451.607,-143.391 412.15,-132 405.032,-129.945 397.595,-127.768 390.196,-125.583"/>
<polygon fill="midnightblue" stroke="midnightblue" points="531.325,-169.207 541.896,-168.497 533.189,-162.46 531.325,-169.207"/>
</g>
<!-- Node6&#45;&gt;Node10 -->
<g id="edge9" class="edge"><title>Node6&#45;&gt;Node10</title>
<path fill="none" stroke="midnightblue" d="M616.866,-158.278C618.206,-133.917 615.927,-99.9874 597.15,-78 572.177,-48.7576 532.209,-34.5615 496.271,-27.76"/>
<polygon fill="midnightblue" stroke="midnightblue" points="613.365,-158.153 616.075,-168.395 620.344,-158.698 613.365,-158.153"/>
</g>
<!-- Node6&#45;&gt;Node11 -->
<g id="edge10" class="edge"><title>Node6&#45;&gt;Node11</title>
<path fill="none" stroke="midnightblue" d="M647.946,-162.062C663.699,-150.318 682.021,-136.66 696.636,-125.765"/>
<polygon fill="midnightblue" stroke="midnightblue" points="645.424,-159.576 639.498,-168.359 649.607,-165.188 645.424,-159.576"/>
</g>
<!-- Node6&#45;&gt;Node12 -->
<g id="edge12" class="edge"><title>Node6&#45;&gt;Node12</title>
<path fill="none" stroke="midnightblue" d="M578.987,-162.062C563.52,-150.318 545.532,-136.66 531.182,-125.765"/>
<polygon fill="midnightblue" stroke="midnightblue" points="577.201,-165.099 587.282,-168.359 581.434,-159.524 577.201,-165.099"/>
</g>
<!-- Node6&#45;&gt;Node13 -->
<g id="edge13" class="edge"><title>Node6&#45;&gt;Node13</title>
<path fill="none" stroke="midnightblue" d="M701.375,-178.689C852.472,-162.743 1158.74,-130.421 1306.58,-114.819"/>
<polygon fill="midnightblue" stroke="midnightblue" points="700.787,-175.232 691.21,-179.762 701.522,-182.193 700.787,-175.232"/>
</g>
<!-- Node6&#45;&gt;Node14 -->
<g id="edge14" class="edge"><title>Node6&#45;&gt;Node14</title>
<path fill="none" stroke="midnightblue" d="M701.447,-182.687C858.517,-173.151 1196.8,-152.234 1482.15,-132 1568.23,-125.896 1666.66,-118.195 1734.63,-112.763"/>
<polygon fill="midnightblue" stroke="midnightblue" points="701.135,-179.199 691.365,-183.298 701.559,-186.186 701.135,-179.199"/>
</g>
<!-- Node11&#45;&gt;Node10 -->
<g id="edge11" class="edge"><title>Node11&#45;&gt;Node10</title>
<path fill="none" stroke="midnightblue" d="M643.609,-81.6748C639.058,-80.4246 634.547,-79.1924 630.15,-78 584.576,-65.6391 533.402,-52.1716 492.638,-41.542"/>
<polygon fill="midnightblue" stroke="midnightblue" points="643.039,-85.1481 653.61,-84.4316 644.899,-78.3998 643.039,-85.1481"/>
</g>
</g>
</svg>
