<?xml version="1.0" encoding="UTF-8" standalone="no"?>
<!DOCTYPE svg PUBLIC "-//W3C//DTD SVG 1.1//EN"
 "http://www.w3.org/Graphics/SVG/1.1/DTD/svg11.dtd">
<!-- Generated by graphviz version 2.36.0 (20140111.2315)
 -->
<!-- Title: /home/travis/build/ComPWA/ComPWA/Physics/DecayTree/DecayGeneratorConfig.hpp Pages: 1 -->
<svg width="560pt" height="140pt"
 viewBox="0.00 0.00 560.00 140.00" xmlns="http://www.w3.org/2000/svg" xmlns:xlink="http://www.w3.org/1999/xlink">
<g id="graph0" class="graph" transform="scale(1 1) rotate(0) translate(4 136)">
<title>/home/travis/build/ComPWA/ComPWA/Physics/DecayTree/DecayGeneratorConfig.hpp</title>
<polygon fill="white" stroke="none" points="-4,4 -4,-136 556,-136 556,4 -4,4"/>
<!-- Node1 -->
<g id="node1" class="node"><title>Node1</title>
<polygon fill="#bfbfbf" stroke="black" points="170.5,-90.5 170.5,-131.5 359.5,-131.5 359.5,-90.5 170.5,-90.5"/>
<text text-anchor="start" x="178.5" y="-119.5" font-family="Helvetica,sans-Serif" font-size="10.00">/home/travis/build</text>
<text text-anchor="start" x="178.5" y="-108.5" font-family="Helvetica,sans-Serif" font-size="10.00">/ComPWA/ComPWA/Physics</text>
<text text-anchor="middle" x="265" y="-97.5" font-family="Helvetica,sans-Serif" font-size="10.00">/DecayTree/DecayGeneratorConfig.hpp</text>
</g>
<!-- Node2 -->
<g id="node2" class="node"><title>Node2</title>
<g id="a_node2"><a xlink:href="../../d3/d7f/HelicityDecayTreeGeneratorTestApp_8cpp.html" target="_top" xlink:title="/home/travis/build\l/ComPWA/ComPWA/executables\l/HelicityDecayTreeGeneratorTest\lApp.cpp">
<polygon fill="white" stroke="black" points="-0.5,-1 -0.5,-53 166.5,-53 166.5,-1 -0.5,-1"/>
<text text-anchor="start" x="7.5" y="-41" font-family="Helvetica,sans-Serif" font-size="10.00">/home/travis/build</text>
<text text-anchor="start" x="7.5" y="-30" font-family="Helvetica,sans-Serif" font-size="10.00">/ComPWA/ComPWA/executables</text>
<text text-anchor="start" x="7.5" y="-19" font-family="Helvetica,sans-Serif" font-size="10.00">/HelicityDecayTreeGeneratorTest</text>
<text text-anchor="middle" x="83" y="-8" font-family="Helvetica,sans-Serif" font-size="10.00">App.cpp</text>
</a>
</g>
</g>
<!-- Node1&#45;&gt;Node2 -->
<g id="edge1" class="edge"><title>Node1&#45;&gt;Node2</title>
<path fill="none" stroke="midnightblue" d="M212.123,-86.1765C189.067,-75.7882 162.024,-63.6042 138.661,-53.0779"/>
<polygon fill="midnightblue" stroke="midnightblue" points="210.851,-89.4422 221.406,-90.359 213.727,-83.06 210.851,-89.4422"/>
</g>
<!-- Node3 -->
<g id="node3" class="node"><title>Node3</title>
<g id="a_node3"><a xlink:href="../../df/d52/DecayGenerator_8cpp.html" target="_top" xlink:title="/home/travis/build\l/ComPWA/ComPWA/Physics\l/DecayTree/DecayGenerator.cpp">
<polygon fill="white" stroke="black" points="184.5,-6.5 184.5,-47.5 345.5,-47.5 345.5,-6.5 184.5,-6.5"/>
<text text-anchor="start" x="192.5" y="-35.5" font-family="Helvetica,sans-Serif" font-size="10.00">/home/travis/build</text>
<text text-anchor="start" x="192.5" y="-24.5" font-family="Helvetica,sans-Serif" font-size="10.00">/ComPWA/ComPWA/Physics</text>
<text text-anchor="middle" x="265" y="-13.5" font-family="Helvetica,sans-Serif" font-size="10.00">/DecayTree/DecayGenerator.cpp</text>
</a>
</g>
</g>
<!-- Node1&#45;&gt;Node3 -->
<g id="edge2" class="edge"><title>Node1&#45;&gt;Node3</title>
<path fill="none" stroke="midnightblue" d="M265,-79.881C265,-69.1328 265,-57.309 265,-47.6671"/>
<polygon fill="midnightblue" stroke="midnightblue" points="261.5,-80.1501 265,-90.1501 268.5,-80.1501 261.5,-80.1501"/>
</g>
<!-- Node4 -->
<g id="node4" class="node"><title>Node4</title>
<g id="a_node4"><a xlink:href="../../de/df7/DecayGeneratorConfig_8cpp.html" target="_top" xlink:title="/home/travis/build\l/ComPWA/ComPWA/Physics\l/DecayTree/DecayGeneratorConfig.cpp">
<polygon fill="white" stroke="black" points="363.5,-6.5 363.5,-47.5 552.5,-47.5 552.5,-6.5 363.5,-6.5"/>
<text text-anchor="start" x="371.5" y="-35.5" font-family="Helvetica,sans-Serif" font-size="10.00">/home/travis/build</text>
<text text-anchor="start" x="371.5" y="-24.5" font-family="Helvetica,sans-Serif" font-size="10.00">/ComPWA/ComPWA/Physics</text>
<text text-anchor="middle" x="458" y="-13.5" font-family="Helvetica,sans-Serif" font-size="10.00">/DecayTree/DecayGeneratorConfig.cpp</text>
</a>
</g>
</g>
<!-- Node1&#45;&gt;Node4 -->
<g id="edge3" class="edge"><title>Node1&#45;&gt;Node4</title>
<path fill="none" stroke="midnightblue" d="M320.772,-86.3043C349.643,-74.0379 384.47,-59.2406 411.815,-47.6227"/>
<polygon fill="midnightblue" stroke="midnightblue" points="319.063,-83.2272 311.228,-90.359 321.801,-89.6698 319.063,-83.2272"/>
</g>
</g>
</svg>
