<?xml version="1.0" encoding="UTF-8" standalone="no"?>
<!DOCTYPE svg PUBLIC "-//W3C//DTD SVG 1.1//EN"
 "http://www.w3.org/Graphics/SVG/1.1/DTD/svg11.dtd">
<!-- Generated by graphviz version 2.36.0 (20140111.2315)
 -->
<!-- Title: /home/travis/build/ComPWA/ComPWA/executables/HelicityDecayTreeGeneratorTestApp.cpp Pages: 1 -->
<svg width="1346pt" height="514pt"
 viewBox="0.00 0.00 1346.00 514.00" xmlns="http://www.w3.org/2000/svg" xmlns:xlink="http://www.w3.org/1999/xlink">
<g id="graph0" class="graph" transform="scale(1 1) rotate(0) translate(4 510)">
<title>/home/travis/build/ComPWA/ComPWA/executables/HelicityDecayTreeGeneratorTestApp.cpp</title>
<polygon fill="white" stroke="none" points="-4,4 -4,-510 1342,-510 1342,4 -4,4"/>
<!-- Node1 -->
<g id="node1" class="node"><title>Node1</title>
<polygon fill="#bfbfbf" stroke="black" points="633.5,-453 633.5,-505 800.5,-505 800.5,-453 633.5,-453"/>
<text text-anchor="start" x="641.5" y="-493" font-family="Helvetica,sans-Serif" font-size="10.00">/home/travis/build</text>
<text text-anchor="start" x="641.5" y="-482" font-family="Helvetica,sans-Serif" font-size="10.00">/ComPWA/ComPWA/executables</text>
<text text-anchor="start" x="641.5" y="-471" font-family="Helvetica,sans-Serif" font-size="10.00">/HelicityDecayTreeGeneratorTest</text>
<text text-anchor="middle" x="717" y="-460" font-family="Helvetica,sans-Serif" font-size="10.00">App.cpp</text>
</g>
<!-- Node2 -->
<g id="node2" class="node"><title>Node2</title>
<polygon fill="white" stroke="#bfbfbf" points="235,-0.5 235,-19.5 285,-19.5 285,-0.5 235,-0.5"/>
<text text-anchor="middle" x="260" y="-7.5" font-family="Helvetica,sans-Serif" font-size="10.00">fstream</text>
</g>
<!-- Node1&#45;&gt;Node2 -->
<g id="edge1" class="edge"><title>Node1&#45;&gt;Node2</title>
<path fill="none" stroke="midnightblue" d="M633.348,-478.48C444.211,-477.313 0,-460.952 0,-333 0,-333 0,-333 0,-127 0,-29.9157 153.056,-13.5213 224.303,-11.149"/>
<polygon fill="midnightblue" stroke="midnightblue" points="224.69,-14.6403 234.597,-10.8855 224.51,-7.6426 224.69,-14.6403"/>
</g>
<!-- Node3 -->
<g id="node3" class="node"><title>Node3</title>
<polygon fill="white" stroke="#bfbfbf" points="395.5,-390.5 395.5,-409.5 502.5,-409.5 502.5,-390.5 395.5,-390.5"/>
<text text-anchor="middle" x="449" y="-397.5" font-family="Helvetica,sans-Serif" font-size="10.00">boost/filesystem.hpp</text>
</g>
<!-- Node1&#45;&gt;Node3 -->
<g id="edge2" class="edge"><title>Node1&#45;&gt;Node3</title>
<path fill="none" stroke="midnightblue" d="M633.306,-453.953C584.948,-440.06 526.366,-423.228 488.422,-412.327"/>
<polygon fill="midnightblue" stroke="midnightblue" points="489.344,-408.95 478.767,-409.552 487.411,-415.678 489.344,-408.95"/>
</g>
<!-- Node4 -->
<g id="node4" class="node"><title>Node4</title>
<g id="a_node4"><a xlink:href="../../d8/d35/PhysConst_8hpp.html" target="_top" xlink:title="PhysConst provides particle information to the framework. ">
<polygon fill="white" stroke="black" points="543,-186.5 543,-205.5 651,-205.5 651,-186.5 543,-186.5"/>
<text text-anchor="middle" x="597" y="-193.5" font-family="Helvetica,sans-Serif" font-size="10.00">Core/PhysConst.hpp</text>
</a>
</g>
</g>
<!-- Node1&#45;&gt;Node4 -->
<g id="edge3" class="edge"><title>Node1&#45;&gt;Node4</title>
<path fill="none" stroke="midnightblue" d="M658.578,-452.889C643.298,-443.518 628.471,-431.329 619,-416 579.248,-351.657 587.814,-255.897 593.746,-215.762"/>
<polygon fill="midnightblue" stroke="midnightblue" points="597.218,-216.215 595.342,-205.788 590.306,-215.109 597.218,-216.215"/>
</g>
<!-- Node18 -->
<g id="node18" class="node"><title>Node18</title>
<g id="a_node18"><a xlink:href="../../d8/d45/DecayGenerator_8hpp.html" target="_top" xlink:title="Physics/DecayTree/DecayGenerator.hpp">
<polygon fill="white" stroke="black" points="745,-322.5 745,-341.5 941,-341.5 941,-322.5 745,-322.5"/>
<text text-anchor="middle" x="843" y="-329.5" font-family="Helvetica,sans-Serif" font-size="10.00">Physics/DecayTree/DecayGenerator.hpp</text>
</a>
</g>
</g>
<!-- Node1&#45;&gt;Node18 -->
<g id="edge26" class="edge"><title>Node1&#45;&gt;Node18</title>
<path fill="none" stroke="midnightblue" d="M769.866,-452.949C785.828,-443.271 802.223,-430.893 814,-416 829.054,-396.963 836.595,-369.556 840.149,-351.519"/>
<polygon fill="midnightblue" stroke="midnightblue" points="843.598,-352.113 841.877,-341.659 836.703,-350.904 843.598,-352.113"/>
</g>
<!-- Node23 -->
<g id="node23" class="node"><title>Node23</title>
<g id="a_node23"><a xlink:href="../../d2/dc6/DecayGeneratorFacade_8hpp.html" target="_top" xlink:title="Physics/DecayTree/DecayGenerator\lFacade.hpp">
<polygon fill="white" stroke="black" points="628.5,-385 628.5,-415 805.5,-415 805.5,-385 628.5,-385"/>
<text text-anchor="start" x="636.5" y="-403" font-family="Helvetica,sans-Serif" font-size="10.00">Physics/DecayTree/DecayGenerator</text>
<text text-anchor="middle" x="717" y="-392" font-family="Helvetica,sans-Serif" font-size="10.00">Facade.hpp</text>
</a>
</g>
</g>
<!-- Node1&#45;&gt;Node23 -->
<g id="edge39" class="edge"><title>Node1&#45;&gt;Node23</title>
<path fill="none" stroke="midnightblue" d="M717,-452.787C717,-444.029 717,-434.225 717,-425.523"/>
<polygon fill="midnightblue" stroke="midnightblue" points="720.5,-425.252 717,-415.252 713.5,-425.252 720.5,-425.252"/>
</g>
<!-- Node24 -->
<g id="node24" class="node"><title>Node24</title>
<g id="a_node24"><a xlink:href="../../dd/d21/DecayGeneratorConfig_8hpp.html" target="_top" xlink:title="Physics/DecayTree/DecayGenerator\lConfig.hpp">
<polygon fill="white" stroke="black" points="1161.5,-317 1161.5,-347 1338.5,-347 1338.5,-317 1161.5,-317"/>
<text text-anchor="start" x="1169.5" y="-335" font-family="Helvetica,sans-Serif" font-size="10.00">Physics/DecayTree/DecayGenerator</text>
<text text-anchor="middle" x="1250" y="-324" font-family="Helvetica,sans-Serif" font-size="10.00">Config.hpp</text>
</a>
</g>
</g>
<!-- Node1&#45;&gt;Node24 -->
<g id="edge43" class="edge"><title>Node1&#45;&gt;Node24</title>
<path fill="none" stroke="midnightblue" d="M800.574,-455.264C908.241,-425.974 1092.89,-375.742 1188.54,-349.721"/>
<polygon fill="midnightblue" stroke="midnightblue" points="1189.62,-353.053 1198.35,-347.051 1187.78,-346.299 1189.62,-353.053"/>
</g>
<!-- Node25 -->
<g id="node25" class="node"><title>Node25</title>
<g id="a_node25"><a xlink:href="../../d8/d04/DecayXMLConfigReader_8hpp.html" target="_top" xlink:title="Physics/DecayTree/DecayXMLConfig\lReader.hpp">
<polygon fill="white" stroke="black" points="959.5,-317 959.5,-347 1142.5,-347 1142.5,-317 959.5,-317"/>
<text text-anchor="start" x="967.5" y="-335" font-family="Helvetica,sans-Serif" font-size="10.00">Physics/DecayTree/DecayXMLConfig</text>
<text text-anchor="middle" x="1051" y="-324" font-family="Helvetica,sans-Serif" font-size="10.00">Reader.hpp</text>
</a>
</g>
</g>
<!-- Node1&#45;&gt;Node25 -->
<g id="edge45" class="edge"><title>Node1&#45;&gt;Node25</title>
<path fill="none" stroke="midnightblue" d="M774.797,-452.908C841.651,-423.885 950.084,-376.811 1009.24,-351.128"/>
<polygon fill="midnightblue" stroke="midnightblue" points="1010.87,-354.238 1018.65,-347.045 1008.08,-347.817 1010.87,-354.238"/>
</g>
<!-- Node5 -->
<g id="node5" class="node"><title>Node5</title>
<polygon fill="white" stroke="#bfbfbf" points="636,-56.5 636,-75.5 690,-75.5 690,-56.5 636,-56.5"/>
<text text-anchor="middle" x="663" y="-63.5" font-family="Helvetica,sans-Serif" font-size="10.00">iostream</text>
</g>
<!-- Node4&#45;&gt;Node5 -->
<g id="edge4" class="edge"><title>Node4&#45;&gt;Node5</title>
<path fill="none" stroke="midnightblue" d="M601.536,-186.202C612.327,-165.275 639.686,-112.216 653.984,-84.4861"/>
<polygon fill="midnightblue" stroke="midnightblue" points="657.133,-86.0145 658.606,-75.5224 650.912,-82.8064 657.133,-86.0145"/>
</g>
<!-- Node6 -->
<g id="node6" class="node"><title>Node6</title>
<polygon fill="white" stroke="#bfbfbf" points="917,-0.5 917,-19.5 961,-19.5 961,-0.5 917,-0.5"/>
<text text-anchor="middle" x="939" y="-7.5" font-family="Helvetica,sans-Serif" font-size="10.00">vector</text>
</g>
<!-- Node4&#45;&gt;Node6 -->
<g id="edge5" class="edge"><title>Node4&#45;&gt;Node6</title>
<path fill="none" stroke="midnightblue" d="M613.99,-186.405C652.022,-167.107 746.811,-118.676 825,-76 856.637,-58.7321 892.709,-37.9831 915.652,-24.6502"/>
<polygon fill="midnightblue" stroke="midnightblue" points="917.461,-27.6469 924.341,-19.5901 913.938,-21.5978 917.461,-27.6469"/>
</g>
<!-- Node7 -->
<g id="node7" class="node"><title>Node7</title>
<g id="a_node7"><a xlink:href="../../db/dce/Parameter_8hpp.html" target="_top" xlink:title="This class implements some internal container of parameters. ">
<polygon fill="white" stroke="black" points="404,-118.5 404,-137.5 508,-137.5 508,-118.5 404,-118.5"/>
<text text-anchor="middle" x="456" y="-125.5" font-family="Helvetica,sans-Serif" font-size="10.00">Core/Parameter.hpp</text>
</a>
</g>
</g>
<!-- Node4&#45;&gt;Node7 -->
<g id="edge6" class="edge"><title>Node4&#45;&gt;Node7</title>
<path fill="none" stroke="midnightblue" d="M578.567,-186.372C554.394,-175.057 511.77,-155.105 483.704,-141.968"/>
<polygon fill="midnightblue" stroke="midnightblue" points="484.979,-138.7 474.438,-137.63 482.011,-145.04 484.979,-138.7"/>
</g>
<!-- Node16 -->
<g id="node16" class="node"><title>Node16</title>
<g id="a_node16"><a xlink:href="../../d4/d03/Utility_8hpp.html" target="_top" xlink:title="Basic structures for amplitude calculations. ">
<polygon fill="white" stroke="black" points="833.5,-118.5 833.5,-137.5 918.5,-137.5 918.5,-118.5 833.5,-118.5"/>
<text text-anchor="middle" x="876" y="-125.5" font-family="Helvetica,sans-Serif" font-size="10.00">Core/Utility.hpp</text>
</a>
</g>
</g>
<!-- Node4&#45;&gt;Node16 -->
<g id="edge20" class="edge"><title>Node4&#45;&gt;Node16</title>
<path fill="none" stroke="midnightblue" d="M635.988,-186.434C680.39,-176.587 755.068,-159.751 819,-144 824.025,-142.762 829.29,-141.427 834.503,-140.083"/>
<polygon fill="midnightblue" stroke="midnightblue" points="835.593,-143.416 844.388,-137.509 833.829,-136.642 835.593,-143.416"/>
</g>
<!-- Node7&#45;&gt;Node5 -->
<g id="edge7" class="edge"><title>Node7&#45;&gt;Node5</title>
<path fill="none" stroke="midnightblue" d="M485.658,-118.403C522.656,-107.679 585.921,-89.3417 626.037,-77.7139"/>
<polygon fill="midnightblue" stroke="midnightblue" points="627.077,-81.0566 635.707,-74.911 625.128,-74.3334 627.077,-81.0566"/>
</g>
<!-- Node8 -->
<g id="node8" class="node"><title>Node8</title>
<polygon fill="white" stroke="#bfbfbf" points="587.5,-0.5 587.5,-19.5 628.5,-19.5 628.5,-0.5 587.5,-0.5"/>
<text text-anchor="middle" x="608" y="-7.5" font-family="Helvetica,sans-Serif" font-size="10.00">string</text>
</g>
<!-- Node7&#45;&gt;Node8 -->
<g id="edge8" class="edge"><title>Node7&#45;&gt;Node8</title>
<path fill="none" stroke="midnightblue" d="M508.053,-118.547C535.595,-111.527 567.97,-98.8244 589,-76 600.567,-63.4466 605.125,-44.2253 606.904,-29.937"/>
<polygon fill="midnightblue" stroke="midnightblue" points="610.409,-30.0297 607.815,-19.7573 603.437,-29.4053 610.409,-30.0297"/>
</g>
<!-- Node9 -->
<g id="node9" class="node"><title>Node9</title>
<polygon fill="white" stroke="#bfbfbf" points="66,-56.5 66,-75.5 118,-75.5 118,-56.5 66,-56.5"/>
<text text-anchor="middle" x="92" y="-63.5" font-family="Helvetica,sans-Serif" font-size="10.00">sstream</text>
</g>
<!-- Node7&#45;&gt;Node9 -->
<g id="edge9" class="edge"><title>Node7&#45;&gt;Node9</title>
<path fill="none" stroke="midnightblue" d="M403.865,-120.523C340.788,-112.329 231.215,-96.9589 128.251,-76.0956"/>
<polygon fill="midnightblue" stroke="midnightblue" points="128.808,-72.6372 118.309,-74.0595 127.403,-79.4948 128.808,-72.6372"/>
</g>
<!-- Node10 -->
<g id="node10" class="node"><title>Node10</title>
<polygon fill="white" stroke="#bfbfbf" points="136.5,-56.5 136.5,-75.5 189.5,-75.5 189.5,-56.5 136.5,-56.5"/>
<text text-anchor="middle" x="163" y="-63.5" font-family="Helvetica,sans-Serif" font-size="10.00">complex</text>
</g>
<!-- Node7&#45;&gt;Node10 -->
<g id="edge10" class="edge"><title>Node7&#45;&gt;Node10</title>
<path fill="none" stroke="midnightblue" d="M408.752,-118.49C359.013,-109.346 278.21,-93.9684 199.765,-76.3129"/>
<polygon fill="midnightblue" stroke="midnightblue" points="200.242,-72.8323 189.715,-74.0354 198.694,-79.6591 200.242,-72.8323"/>
</g>
<!-- Node11 -->
<g id="node11" class="node"><title>Node11</title>
<polygon fill="white" stroke="#bfbfbf" points="207.5,-56.5 207.5,-75.5 266.5,-75.5 266.5,-56.5 207.5,-56.5"/>
<text text-anchor="middle" x="237" y="-63.5" font-family="Helvetica,sans-Serif" font-size="10.00">stdexcept</text>
</g>
<!-- Node7&#45;&gt;Node11 -->
<g id="edge11" class="edge"><title>Node7&#45;&gt;Node11</title>
<path fill="none" stroke="midnightblue" d="M424.623,-118.403C385.533,-107.694 318.729,-89.3915 276.279,-77.7613"/>
<polygon fill="midnightblue" stroke="midnightblue" points="277.135,-74.367 266.566,-75.1001 275.285,-81.1182 277.135,-74.367"/>
</g>
<!-- Node12 -->
<g id="node12" class="node"><title>Node12</title>
<polygon fill="white" stroke="#bfbfbf" points="285,-56.5 285,-75.5 329,-75.5 329,-56.5 285,-56.5"/>
<text text-anchor="middle" x="307" y="-63.5" font-family="Helvetica,sans-Serif" font-size="10.00">cmath</text>
</g>
<!-- Node7&#45;&gt;Node12 -->
<g id="edge12" class="edge"><title>Node7&#45;&gt;Node12</title>
<path fill="none" stroke="midnightblue" d="M434.652,-118.403C409.314,-108.2 366.862,-91.1055 337.929,-79.4544"/>
<polygon fill="midnightblue" stroke="midnightblue" points="338.892,-76.0694 328.308,-75.5806 336.277,-82.5627 338.892,-76.0694"/>
</g>
<!-- Node13 -->
<g id="node13" class="node"><title>Node13</title>
<g id="a_node13"><a xlink:href="../../d8/def/AbsParameter_8hpp.html" target="_top" xlink:title="This class defines the internal container of a parameter. ">
<polygon fill="white" stroke="red" points="458,-56.5 458,-75.5 580,-75.5 580,-56.5 458,-56.5"/>
<text text-anchor="middle" x="519" y="-63.5" font-family="Helvetica,sans-Serif" font-size="10.00">Core/AbsParameter.hpp</text>
</a>
</g>
</g>
<!-- Node7&#45;&gt;Node13 -->
<g id="edge13" class="edge"><title>Node7&#45;&gt;Node13</title>
<path fill="none" stroke="midnightblue" d="M465.026,-118.403C474.757,-109.136 490.458,-94.1828 502.423,-82.7876"/>
<polygon fill="midnightblue" stroke="midnightblue" points="505.163,-85.0117 509.99,-75.5806 500.335,-79.9427 505.163,-85.0117"/>
</g>
<!-- Node14 -->
<g id="node14" class="node"><title>Node14</title>
<g id="a_node14"><a xlink:href="../../d2/de9/Exceptions_8hpp.html" target="_top" xlink:title="This class defines the ComPWA exception base&#45;class and provides a set of standard exceptions...">
<polygon fill="white" stroke="red" points="708,-56.5 708,-75.5 816,-75.5 816,-56.5 708,-56.5"/>
<text text-anchor="middle" x="762" y="-63.5" font-family="Helvetica,sans-Serif" font-size="10.00">Core/Exceptions.hpp</text>
</a>
</g>
</g>
<!-- Node7&#45;&gt;Node14 -->
<g id="edge17" class="edge"><title>Node7&#45;&gt;Node14</title>
<path fill="none" stroke="midnightblue" d="M499.517,-118.467C554.578,-107.671 649.364,-89.0856 708.704,-77.4501"/>
<polygon fill="midnightblue" stroke="midnightblue" points="709.493,-80.8622 718.633,-75.5034 708.146,-73.993 709.493,-80.8622"/>
</g>
<!-- Node15 -->
<g id="node15" class="node"><title>Node15</title>
<g id="a_node15"><a xlink:href="../../da/db4/Logging_8hpp.html" target="_top" xlink:title="Core/Logging.hpp">
<polygon fill="white" stroke="red" points="346.5,-56.5 346.5,-75.5 439.5,-75.5 439.5,-56.5 346.5,-56.5"/>
<text text-anchor="middle" x="393" y="-63.5" font-family="Helvetica,sans-Serif" font-size="10.00">Core/Logging.hpp</text>
</a>
</g>
</g>
<!-- Node7&#45;&gt;Node15 -->
<g id="edge19" class="edge"><title>Node7&#45;&gt;Node15</title>
<path fill="none" stroke="midnightblue" d="M446.974,-118.403C437.243,-109.136 421.542,-94.1828 409.577,-82.7876"/>
<polygon fill="midnightblue" stroke="midnightblue" points="411.665,-79.9427 402.01,-75.5806 406.837,-85.0117 411.665,-79.9427"/>
</g>
<!-- Node13&#45;&gt;Node2 -->
<g id="edge16" class="edge"><title>Node13&#45;&gt;Node2</title>
<path fill="none" stroke="midnightblue" d="M477.961,-56.4435C427.463,-45.9151 342.591,-28.2197 295.024,-18.3022"/>
<polygon fill="midnightblue" stroke="midnightblue" points="295.688,-14.8655 285.184,-16.2506 294.259,-21.7181 295.688,-14.8655"/>
</g>
<!-- Node13&#45;&gt;Node6 -->
<g id="edge15" class="edge"><title>Node13&#45;&gt;Node6</title>
<path fill="none" stroke="midnightblue" d="M580.072,-57.1479C670.528,-45.5178 836.938,-24.1222 906.793,-15.1409"/>
<polygon fill="midnightblue" stroke="midnightblue" points="907.292,-18.6056 916.764,-13.8589 906.399,-11.6628 907.292,-18.6056"/>
</g>
<!-- Node13&#45;&gt;Node8 -->
<g id="edge14" class="edge"><title>Node13&#45;&gt;Node8</title>
<path fill="none" stroke="midnightblue" d="M533.299,-56.324C547.183,-47.9002 568.492,-34.9709 584.804,-25.0741"/>
<polygon fill="midnightblue" stroke="midnightblue" points="587.002,-27.8341 593.736,-19.6545 583.371,-21.8495 587.002,-27.8341"/>
</g>
<!-- Node14&#45;&gt;Node8 -->
<g id="edge18" class="edge"><title>Node14&#45;&gt;Node8</title>
<path fill="none" stroke="midnightblue" d="M737.598,-56.4435C710.741,-47.0262 667.531,-31.8746 638.47,-21.6842"/>
<polygon fill="midnightblue" stroke="midnightblue" points="639.425,-18.3104 628.83,-18.3042 637.109,-24.916 639.425,-18.3104"/>
</g>
<!-- Node16&#45;&gt;Node5 -->
<g id="edge24" class="edge"><title>Node16&#45;&gt;Node5</title>
<path fill="none" stroke="midnightblue" d="M845.482,-118.403C807.013,-107.567 740.944,-88.956 699.743,-77.3501"/>
<polygon fill="midnightblue" stroke="midnightblue" points="700.662,-73.973 690.088,-74.6304 698.764,-80.7108 700.662,-73.973"/>
</g>
<!-- Node16&#45;&gt;Node6 -->
<g id="edge23" class="edge"><title>Node16&#45;&gt;Node6</title>
<path fill="none" stroke="midnightblue" d="M880.735,-118.281C891.093,-99.2099 915.925,-53.4879 929.59,-28.3272"/>
<polygon fill="midnightblue" stroke="midnightblue" points="932.684,-29.9628 934.381,-19.5048 926.533,-26.622 932.684,-29.9628"/>
</g>
<!-- Node16&#45;&gt;Node8 -->
<g id="edge21" class="edge"><title>Node16&#45;&gt;Node8</title>
<path fill="none" stroke="midnightblue" d="M872.4,-118.409C865.561,-103.211 849.18,-71.7106 825,-56 767.028,-18.3341 683.53,-11.3736 638.9,-10.571"/>
<polygon fill="midnightblue" stroke="midnightblue" points="638.718,-7.06943 628.689,-10.4843 638.659,-14.0692 638.718,-7.06943"/>
</g>
<!-- Node16&#45;&gt;Node14 -->
<g id="edge25" class="edge"><title>Node16&#45;&gt;Node14</title>
<path fill="none" stroke="midnightblue" d="M859.667,-118.403C840.789,-108.468 809.493,-91.9966 787.424,-80.3812"/>
<polygon fill="midnightblue" stroke="midnightblue" points="788.782,-77.1409 778.303,-75.5806 785.522,-83.3353 788.782,-77.1409"/>
</g>
<!-- Node17 -->
<g id="node17" class="node"><title>Node17</title>
<polygon fill="white" stroke="#bfbfbf" points="986.5,-56.5 986.5,-75.5 1021.5,-75.5 1021.5,-56.5 986.5,-56.5"/>
<text text-anchor="middle" x="1004" y="-63.5" font-family="Helvetica,sans-Serif" font-size="10.00">map</text>
</g>
<!-- Node16&#45;&gt;Node17 -->
<g id="edge22" class="edge"><title>Node16&#45;&gt;Node17</title>
<path fill="none" stroke="midnightblue" d="M894.339,-118.403C915.943,-108.277 952.029,-91.3613 976.87,-79.7173"/>
<polygon fill="midnightblue" stroke="midnightblue" points="978.538,-82.8006 986.107,-75.3871 975.567,-76.4624 978.538,-82.8006"/>
</g>
<!-- Node18&#45;&gt;Node6 -->
<g id="edge27" class="edge"><title>Node18&#45;&gt;Node6</title>
<path fill="none" stroke="midnightblue" d="M901.284,-322.473C990.691,-309.258 1151.88,-284.843 1156,-280 1185.12,-245.755 1175.45,-167.313 1050,-56 1027.54,-36.0746 995.112,-24.3111 971.099,-17.8409"/>
<polygon fill="midnightblue" stroke="midnightblue" points="971.93,-14.4408 961.377,-15.3836 970.215,-21.2274 971.93,-14.4408"/>
</g>
<!-- Node18&#45;&gt;Node16 -->
<g id="edge28" class="edge"><title>Node18&#45;&gt;Node16</title>
<path fill="none" stroke="midnightblue" d="M800.86,-322.456C777.438,-315.323 750.224,-302.536 736,-280 728.409,-267.973 730.03,-260.909 736,-248 759.253,-197.716 815.389,-160.89 849.09,-142.404"/>
<polygon fill="midnightblue" stroke="midnightblue" points="850.775,-145.472 857.955,-137.681 847.483,-139.295 850.775,-145.472"/>
</g>
<!-- Node19 -->
<g id="node19" class="node"><title>Node19</title>
<g id="a_node19"><a xlink:href="../../da/d62/DecayConfiguration_8hpp.html" target="_top" xlink:title="Physics/DecayTree/DecayConfiguration.hpp">
<polygon fill="white" stroke="black" points="936.5,-254.5 936.5,-273.5 1147.5,-273.5 1147.5,-254.5 936.5,-254.5"/>
<text text-anchor="middle" x="1042" y="-261.5" font-family="Helvetica,sans-Serif" font-size="10.00">Physics/DecayTree/DecayConfiguration.hpp</text>
</a>
</g>
</g>
<!-- Node18&#45;&gt;Node19 -->
<g id="edge29" class="edge"><title>Node18&#45;&gt;Node19</title>
<path fill="none" stroke="midnightblue" d="M869.016,-322.372C904.272,-310.679 967.338,-289.762 1006.8,-276.674"/>
<polygon fill="midnightblue" stroke="midnightblue" points="1007.9,-279.996 1016.29,-273.526 1005.7,-273.352 1007.9,-279.996"/>
</g>
<!-- Node22 -->
<g id="node22" class="node"><title>Node22</title>
<g id="a_node22"><a xlink:href="../../d3/dd8/DynamicalFunctionFactory_8hpp.html" target="_top" xlink:title="Physics/DynamicalDecayFunctions\l/DynamicalFunctionFactory.hpp">
<polygon fill="white" stroke="red" points="745.5,-249 745.5,-279 918.5,-279 918.5,-249 745.5,-249"/>
<text text-anchor="start" x="753.5" y="-267" font-family="Helvetica,sans-Serif" font-size="10.00">Physics/DynamicalDecayFunctions</text>
<text text-anchor="middle" x="832" y="-256" font-family="Helvetica,sans-Serif" font-size="10.00">/DynamicalFunctionFactory.hpp</text>
</a>
</g>
</g>
<!-- Node18&#45;&gt;Node22 -->
<g id="edge36" class="edge"><title>Node18&#45;&gt;Node22</title>
<path fill="none" stroke="midnightblue" d="M841.562,-322.372C840.162,-313.971 837.969,-300.811 836.035,-289.213"/>
<polygon fill="midnightblue" stroke="midnightblue" points="839.46,-288.47 834.364,-279.181 832.555,-289.621 839.46,-288.47"/>
</g>
<!-- Node19&#45;&gt;Node6 -->
<g id="edge31" class="edge"><title>Node19&#45;&gt;Node6</title>
<path fill="none" stroke="midnightblue" d="M1044.47,-254.093C1052.42,-223.31 1074.42,-119.821 1030,-56 1016.31,-36.3232 991.474,-24.8521 971.206,-18.4219"/>
<polygon fill="midnightblue" stroke="midnightblue" points="971.978,-15.0018 961.399,-15.5791 970.029,-21.7251 971.978,-15.0018"/>
</g>
<!-- Node19&#45;&gt;Node17 -->
<g id="edge30" class="edge"><title>Node19&#45;&gt;Node17</title>
<path fill="none" stroke="midnightblue" d="M1040.32,-254.325C1034.57,-224.664 1015.6,-126.85 1007.61,-85.6044"/>
<polygon fill="midnightblue" stroke="midnightblue" points="1011,-84.7256 1005.66,-75.5746 1004.13,-86.058 1011,-84.7256"/>
</g>
<!-- Node20 -->
<g id="node20" class="node"><title>Node20</title>
<g id="a_node20"><a xlink:href="../../dd/db0/ParticleStateDefinitions_8hpp.html" target="_top" xlink:title="Physics/HelicityAmplitude\l/ParticleStateDefinitions.hpp">
<polygon fill="white" stroke="red" points="853.5,-181 853.5,-211 994.5,-211 994.5,-181 853.5,-181"/>
<text text-anchor="start" x="861.5" y="-199" font-family="Helvetica,sans-Serif" font-size="10.00">Physics/HelicityAmplitude</text>
<text text-anchor="middle" x="924" y="-188" font-family="Helvetica,sans-Serif" font-size="10.00">/ParticleStateDefinitions.hpp</text>
</a>
</g>
</g>
<!-- Node19&#45;&gt;Node20 -->
<g id="edge32" class="edge"><title>Node19&#45;&gt;Node20</title>
<path fill="none" stroke="midnightblue" d="M1026.57,-254.372C1009.33,-244.729 980.877,-228.812 958.305,-216.187"/>
<polygon fill="midnightblue" stroke="midnightblue" points="959.791,-213.008 949.355,-211.181 956.374,-219.118 959.791,-213.008"/>
</g>
<!-- Node20&#45;&gt;Node16 -->
<g id="edge35" class="edge"><title>Node20&#45;&gt;Node16</title>
<path fill="none" stroke="midnightblue" d="M913.585,-180.679C906.175,-170.49 896.188,-156.759 888.372,-146.011"/>
<polygon fill="midnightblue" stroke="midnightblue" points="891.133,-143.857 882.421,-137.828 885.472,-147.974 891.133,-143.857"/>
</g>
<!-- Node20&#45;&gt;Node17 -->
<g id="edge33" class="edge"><title>Node20&#45;&gt;Node17</title>
<path fill="none" stroke="midnightblue" d="M935.157,-180.591C942.757,-170.548 952.873,-156.722 961,-144 973.577,-124.312 986.436,-100.74 994.774,-84.9078"/>
<polygon fill="midnightblue" stroke="midnightblue" points="998.034,-86.2253 999.552,-75.7397 991.827,-82.9902 998.034,-86.2253"/>
</g>
<!-- Node21 -->
<g id="node21" class="node"><title>Node21</title>
<polygon fill="white" stroke="#bfbfbf" points="1203.5,-113 1203.5,-143 1304.5,-143 1304.5,-113 1203.5,-113"/>
<text text-anchor="start" x="1211.5" y="-131" font-family="Helvetica,sans-Serif" font-size="10.00">boost/property_tree</text>
<text text-anchor="middle" x="1254" y="-120" font-family="Helvetica,sans-Serif" font-size="10.00">/ptree.hpp</text>
</g>
<!-- Node20&#45;&gt;Node21 -->
<g id="edge34" class="edge"><title>Node20&#45;&gt;Node21</title>
<path fill="none" stroke="midnightblue" d="M994.389,-180.922C1053.58,-169.083 1137.32,-152.336 1193.53,-141.093"/>
<polygon fill="midnightblue" stroke="midnightblue" points="1194.23,-144.523 1203.35,-139.13 1192.86,-137.659 1194.23,-144.523"/>
</g>
<!-- Node22&#45;&gt;Node4 -->
<g id="edge37" class="edge"><title>Node22&#45;&gt;Node4</title>
<path fill="none" stroke="midnightblue" d="M781.875,-248.922C738.63,-236.777 676.994,-219.466 636.993,-208.232"/>
<polygon fill="midnightblue" stroke="midnightblue" points="637.888,-204.848 627.314,-205.514 635.995,-211.587 637.888,-204.848"/>
</g>
<!-- Node22&#45;&gt;Node20 -->
<g id="edge38" class="edge"><title>Node22&#45;&gt;Node20</title>
<path fill="none" stroke="midnightblue" d="M851.963,-248.679C864.829,-239.449 881.749,-227.311 895.957,-217.118"/>
<polygon fill="midnightblue" stroke="midnightblue" points="898.307,-219.739 904.392,-211.066 894.227,-214.052 898.307,-219.739"/>
</g>
<!-- Node23&#45;&gt;Node6 -->
<g id="edge40" class="edge"><title>Node23&#45;&gt;Node6</title>
<path fill="none" stroke="midnightblue" d="M715.008,-384.768C711.787,-356.324 708.326,-291.46 736,-248 766.467,-200.155 793.835,-206.474 844,-180 879.561,-161.233 903.449,-176.59 927,-144 951.586,-109.978 947.398,-57.5538 942.838,-29.7747"/>
<polygon fill="midnightblue" stroke="midnightblue" points="946.257,-29.0115 941.007,-19.8088 939.372,-30.2768 946.257,-29.0115"/>
</g>
<!-- Node23&#45;&gt;Node8 -->
<g id="edge41" class="edge"><title>Node23&#45;&gt;Node8</title>
<path fill="none" stroke="midnightblue" d="M628.316,-385.697C479.599,-358.081 183.785,-279.202 57,-76 52.2947,-68.4586 50.9758,-62.5362 57,-56 74.7619,-36.7284 463.435,-17.579 577.065,-12.3764"/>
<polygon fill="midnightblue" stroke="midnightblue" points="577.35,-15.8672 587.181,-11.9169 577.032,-8.87436 577.35,-15.8672"/>
</g>
<!-- Node23&#45;&gt;Node18 -->
<g id="edge42" class="edge"><title>Node23&#45;&gt;Node18</title>
<path fill="none" stroke="midnightblue" d="M744.03,-384.841C765.727,-373.476 795.983,-357.628 817.315,-346.454"/>
<polygon fill="midnightblue" stroke="midnightblue" points="819.191,-349.422 826.425,-341.682 815.943,-343.222 819.191,-349.422"/>
</g>
<!-- Node24&#45;&gt;Node21 -->
<g id="edge44" class="edge"><title>Node24&#45;&gt;Node21</title>
<path fill="none" stroke="midnightblue" d="M1250.28,-316.796C1250.96,-282.677 1252.68,-195.787 1253.52,-153.23"/>
<polygon fill="midnightblue" stroke="midnightblue" points="1257.02,-153.256 1253.72,-143.189 1250.02,-153.117 1257.02,-153.256"/>
</g>
<!-- Node25&#45;&gt;Node19 -->
<g id="edge47" class="edge"><title>Node25&#45;&gt;Node19</title>
<path fill="none" stroke="midnightblue" d="M1049.05,-316.679C1047.74,-307.101 1046.01,-294.394 1044.59,-283.977"/>
<polygon fill="midnightblue" stroke="midnightblue" points="1048.02,-283.264 1043.2,-273.828 1041.09,-284.21 1048.02,-283.264"/>
</g>
<!-- Node25&#45;&gt;Node21 -->
<g id="edge46" class="edge"><title>Node25&#45;&gt;Node21</title>
<path fill="none" stroke="midnightblue" d="M1122.56,-316.896C1146.35,-309.266 1171.48,-297.635 1190,-280 1226.5,-245.254 1243.12,-186.375 1249.9,-153.341"/>
<polygon fill="midnightblue" stroke="midnightblue" points="1253.4,-153.681 1251.84,-143.202 1246.53,-152.367 1253.4,-153.681"/>
</g>
</g>
</svg>
