<?xml version="1.0" encoding="UTF-8" standalone="no"?>
<!DOCTYPE svg PUBLIC "-//W3C//DTD SVG 1.1//EN"
 "http://www.w3.org/Graphics/SVG/1.1/DTD/svg11.dtd">
<!-- Generated by graphviz version 2.26.3 (20100126.1600)
 -->
<!-- Title: G Pages: 1 -->
<svg width="828pt" height="1118pt"
 viewBox="0.00 0.00 828.00 1118.00" xmlns="http://www.w3.org/2000/svg" xmlns:xlink="http://www.w3.org/1999/xlink">
<g id="graph1" class="graph" transform="scale(1 1) rotate(0) translate(4 1114)">
<title>G</title>
<polygon fill="white" stroke="white" points="-4,5 -4,-1114 825,-1114 825,5 -4,5"/>
<!-- Node1 -->
<g id="node1" class="node"><title>Node1</title>
<polygon fill="#bfbfbf" stroke="black" points="297.5,-0.5 297.5,-635.5 434.5,-635.5 434.5,-0.5 297.5,-0.5"/>
<text text-anchor="middle" x="366" y="-622.5" font-family="Helvetica,sans-Serif" font-size="10.00">AmpSumSliceIntensity</text>
<polyline fill="none" stroke="black" points="297.5,-614.5 434.5,-614.5 "/>
<text text-anchor="start" x="305.5" y="-601.5" font-family="Helvetica,sans-Serif" font-size="10.00"># M</text>
<text text-anchor="start" x="305.5" y="-588.5" font-family="Helvetica,sans-Serif" font-size="10.00"># Br</text>
<text text-anchor="start" x="305.5" y="-575.5" font-family="Helvetica,sans-Serif" font-size="10.00"># m1</text>
<text text-anchor="start" x="305.5" y="-562.5" font-family="Helvetica,sans-Serif" font-size="10.00"># m2</text>
<text text-anchor="start" x="305.5" y="-549.5" font-family="Helvetica,sans-Serif" font-size="10.00"># m3</text>
<text text-anchor="start" x="305.5" y="-536.5" font-family="Helvetica,sans-Serif" font-size="10.00"># PI</text>
<text text-anchor="start" x="305.5" y="-523.5" font-family="Helvetica,sans-Serif" font-size="10.00"># m23_sq_min</text>
<text text-anchor="start" x="305.5" y="-510.5" font-family="Helvetica,sans-Serif" font-size="10.00"># m23_sq_max</text>
<text text-anchor="start" x="305.5" y="-497.5" font-family="Helvetica,sans-Serif" font-size="10.00"># m13_sq_min</text>
<text text-anchor="start" x="305.5" y="-484.5" font-family="Helvetica,sans-Serif" font-size="10.00"># m13_sq_max</text>
<text text-anchor="start" x="305.5" y="-471.5" font-family="Helvetica,sans-Serif" font-size="10.00"># m12_sq_min</text>
<text text-anchor="start" x="305.5" y="-458.5" font-family="Helvetica,sans-Serif" font-size="10.00"># m12_sq_max</text>
<text text-anchor="start" x="305.5" y="-445.5" font-family="Helvetica,sans-Serif" font-size="10.00"># m23_min</text>
<text text-anchor="start" x="305.5" y="-432.5" font-family="Helvetica,sans-Serif" font-size="10.00"># m23_max</text>
<text text-anchor="start" x="305.5" y="-419.5" font-family="Helvetica,sans-Serif" font-size="10.00"># m13_min</text>
<text text-anchor="start" x="305.5" y="-406.5" font-family="Helvetica,sans-Serif" font-size="10.00"># m13_max</text>
<text text-anchor="start" x="305.5" y="-393.5" font-family="Helvetica,sans-Serif" font-size="10.00"># m12_min</text>
<text text-anchor="start" x="305.5" y="-380.5" font-family="Helvetica,sans-Serif" font-size="10.00"># m12_max</text>
<text text-anchor="start" x="305.5" y="-367.5" font-family="Helvetica,sans-Serif" font-size="10.00"># ma</text>
<text text-anchor="start" x="305.5" y="-354.5" font-family="Helvetica,sans-Serif" font-size="10.00"># mb</text>
<text text-anchor="start" x="305.5" y="-341.5" font-family="Helvetica,sans-Serif" font-size="10.00"># mc</text>
<text text-anchor="start" x="305.5" y="-328.5" font-family="Helvetica,sans-Serif" font-size="10.00"># totAmp</text>
<text text-anchor="start" x="305.5" y="-315.5" font-family="Helvetica,sans-Serif" font-size="10.00"># mr</text>
<text text-anchor="start" x="305.5" y="-302.5" font-family="Helvetica,sans-Serif" font-size="10.00"># qr</text>
<text text-anchor="start" x="305.5" y="-289.5" font-family="Helvetica,sans-Serif" font-size="10.00"># gr</text>
<text text-anchor="start" x="305.5" y="-276.5" font-family="Helvetica,sans-Serif" font-size="10.00"># rr</text>
<text text-anchor="start" x="305.5" y="-263.5" font-family="Helvetica,sans-Serif" font-size="10.00"># phir</text>
<text text-anchor="start" x="305.5" y="-250.5" font-family="Helvetica,sans-Serif" font-size="10.00"># aj</text>
<text text-anchor="start" x="305.5" y="-237.5" font-family="Helvetica,sans-Serif" font-size="10.00"># am</text>
<text text-anchor="start" x="305.5" y="-224.5" font-family="Helvetica,sans-Serif" font-size="10.00"># an</text>
<text text-anchor="start" x="305.5" y="-211.5" font-family="Helvetica,sans-Serif" font-size="10.00"># rbw</text>
<text text-anchor="start" x="305.5" y="-198.5" font-family="Helvetica,sans-Serif" font-size="10.00"># angd</text>
<polyline fill="none" stroke="black" points="297.5,-190.5 434.5,-190.5 "/>
<text text-anchor="start" x="305.5" y="-177.5" font-family="Helvetica,sans-Serif" font-size="10.00">+ AmpSumSliceIntensity()</text>
<text text-anchor="start" x="305.5" y="-164.5" font-family="Helvetica,sans-Serif" font-size="10.00">+ integral()</text>
<text text-anchor="start" x="305.5" y="-151.5" font-family="Helvetica,sans-Serif" font-size="10.00">+ intensity()</text>
<text text-anchor="start" x="305.5" y="-138.5" font-family="Helvetica,sans-Serif" font-size="10.00">+ fillStartParVec()</text>
<text text-anchor="start" x="305.5" y="-125.5" font-family="Helvetica,sans-Serif" font-size="10.00">+ ~AmpSumSliceIntensity()</text>
<text text-anchor="start" x="305.5" y="-112.5" font-family="Helvetica,sans-Serif" font-size="10.00"># lambda()</text>
<text text-anchor="start" x="305.5" y="-99.5" font-family="Helvetica,sans-Serif" font-size="10.00"># m13_sq_max_constr()</text>
<text text-anchor="start" x="305.5" y="-86.5" font-family="Helvetica,sans-Serif" font-size="10.00"># m13_sq_min_constr()</text>
<text text-anchor="start" x="305.5" y="-73.5" font-family="Helvetica,sans-Serif" font-size="10.00"># m23_sq_max_constr()</text>
<text text-anchor="start" x="305.5" y="-60.5" font-family="Helvetica,sans-Serif" font-size="10.00"># m23_sq_min_constr()</text>
<text text-anchor="start" x="305.5" y="-47.5" font-family="Helvetica,sans-Serif" font-size="10.00"># mb_sq_max_constr()</text>
<text text-anchor="start" x="305.5" y="-34.5" font-family="Helvetica,sans-Serif" font-size="10.00"># mb_sq_min_constr()</text>
<text text-anchor="start" x="305.5" y="-21.5" font-family="Helvetica,sans-Serif" font-size="10.00"># ma_sq_max_constr()</text>
<text text-anchor="start" x="305.5" y="-8.5" font-family="Helvetica,sans-Serif" font-size="10.00"># ma_sq_min_constr()</text>
</g>
<!-- Node2 -->
<g id="node2" class="node"><title>Node2</title>
<a xlink:href="../../d9/d3e/classAmplitude.xhtml" target="_top" xlink:title="Physics Interface Base&#45;Class.">
<polygon fill="white" stroke="black" points="-0.5,-796.5 -0.5,-963.5 94.5,-963.5 94.5,-796.5 -0.5,-796.5"/>
<text text-anchor="middle" x="47" y="-950.5" font-family="Helvetica,sans-Serif" font-size="10.00">Amplitude</text>
<polyline fill="none" stroke="black" points="-0.5,-942.5 94.5,-942.5 "/>
<text text-anchor="middle" x="47" y="-929.5" font-family="Helvetica,sans-Serif" font-size="10.00"> </text>
<polyline fill="none" stroke="black" points="-0.5,-921.5 94.5,-921.5 "/>
<text text-anchor="start" x="7.5" y="-908.5" font-family="Helvetica,sans-Serif" font-size="10.00">+ Amplitude()</text>
<text text-anchor="start" x="7.5" y="-895.5" font-family="Helvetica,sans-Serif" font-size="10.00">+ ~Amplitude()</text>
<text text-anchor="start" x="7.5" y="-882.5" font-family="Helvetica,sans-Serif" font-size="10.00">+ setNevents()</text>
<text text-anchor="start" x="7.5" y="-869.5" font-family="Helvetica,sans-Serif" font-size="10.00">+ getNevents()</text>
<text text-anchor="start" x="7.5" y="-856.5" font-family="Helvetica,sans-Serif" font-size="10.00">+ integral()</text>
<text text-anchor="start" x="7.5" y="-843.5" font-family="Helvetica,sans-Serif" font-size="10.00">+ getMaxVal()</text>
<text text-anchor="start" x="7.5" y="-830.5" font-family="Helvetica,sans-Serif" font-size="10.00">+ intensity()</text>
<text text-anchor="start" x="7.5" y="-817.5" font-family="Helvetica,sans-Serif" font-size="10.00">+ fillStartParVec()</text>
<text text-anchor="start" x="7.5" y="-804.5" font-family="Helvetica,sans-Serif" font-size="10.00">+ functionTree()</text>
</a>
</g>
<!-- Node2&#45;&gt;Node1 -->
<g id="edge2" class="edge"><title>Node2&#45;&gt;Node1</title>
<path fill="none" stroke="midnightblue" d="M96.6969,-787.394C98.818,-783.541 100.925,-779.73 103,-776 167.737,-659.611 243.679,-527.855 297.27,-435.639"/>
<polygon fill="none" stroke="midnightblue" points="93.4719,-785.996 91.7315,-796.447 99.6093,-789.363 93.4719,-785.996"/>
</g>
<!-- Node3 -->
<g id="node4" class="node"><title>Node3</title>
<polygon fill="white" stroke="#bfbfbf" points="112,-848.5 112,-911.5 330,-911.5 330,-848.5 112,-848.5"/>
<text text-anchor="middle" x="221" y="-898.5" font-family="Helvetica,sans-Serif" font-size="10.00">std::vector&lt; std::shared_ptr&lt; RooRealVar &gt; &gt;</text>
<polyline fill="none" stroke="#bfbfbf" points="112,-890.5 330,-890.5 "/>
<text text-anchor="start" x="120" y="-877.5" font-family="Helvetica,sans-Serif" font-size="10.00">&#45; elements</text>
<polyline fill="none" stroke="#bfbfbf" points="112,-869.5 330,-869.5 "/>
<text text-anchor="middle" x="221" y="-856.5" font-family="Helvetica,sans-Serif" font-size="10.00"> </text>
</g>
<!-- Node3&#45;&gt;Node1 -->
<g id="edge4" class="edge"><title>Node3&#45;&gt;Node1</title>
<path fill="none" stroke="#9a32cd" stroke-dasharray="5,2" d="M231.713,-838.478C245.873,-783.596 272.015,-682.274 297.496,-583.512"/>
<polygon fill="#9a32cd" stroke="#9a32cd" points="229.211,-848.174 227.352,-837.367 230.46,-843.333 231.71,-838.491 231.71,-838.491 231.71,-838.491 230.46,-843.333 236.067,-839.616 229.211,-848.174 229.211,-848.174"/>
<text text-anchor="middle" x="285" y="-749" font-family="Helvetica,sans-Serif" font-size="10.00">rr</text>
<text text-anchor="middle" x="285" y="-736" font-family="Helvetica,sans-Serif" font-size="10.00">phir</text>
<text text-anchor="middle" x="285" y="-723" font-family="Helvetica,sans-Serif" font-size="10.00">qr</text>
<text text-anchor="middle" x="285" y="-710" font-family="Helvetica,sans-Serif" font-size="10.00">mr</text>
<text text-anchor="middle" x="285" y="-697" font-family="Helvetica,sans-Serif" font-size="10.00">aj</text>
<text text-anchor="middle" x="285" y="-684" font-family="Helvetica,sans-Serif" font-size="10.00">gr</text>
<text text-anchor="middle" x="285" y="-671" font-family="Helvetica,sans-Serif" font-size="10.00">am</text>
<text text-anchor="middle" x="285" y="-658" font-family="Helvetica,sans-Serif" font-size="10.00">an</text>
</g>
<!-- Node4 -->
<g id="node6" class="node"><title>Node4</title>
<polygon fill="white" stroke="#bfbfbf" points="44,-1046.5 44,-1109.5 330,-1109.5 330,-1046.5 44,-1046.5"/>
<text text-anchor="middle" x="187" y="-1096.5" font-family="Helvetica,sans-Serif" font-size="10.00">std::vector&lt; std::shared_ptr&lt; AmpAbsDynamicalFunction &gt; &gt;</text>
<polyline fill="none" stroke="#bfbfbf" points="44,-1088.5 330,-1088.5 "/>
<text text-anchor="start" x="52" y="-1075.5" font-family="Helvetica,sans-Serif" font-size="10.00">&#45; elements</text>
<polyline fill="none" stroke="#bfbfbf" points="44,-1067.5 330,-1067.5 "/>
<text text-anchor="middle" x="187" y="-1054.5" font-family="Helvetica,sans-Serif" font-size="10.00"> </text>
</g>
<!-- Node4&#45;&gt;Node1 -->
<g id="edge6" class="edge"><title>Node4&#45;&gt;Node1</title>
<path fill="none" stroke="#9a32cd" stroke-dasharray="5,2" d="M277.764,-1041.29C301.742,-1027.05 324.851,-1008.22 339,-984 357.333,-952.619 364.175,-791.659 366.389,-635.85"/>
<polygon fill="#9a32cd" stroke="#9a32cd" points="268.906,-1046.33 275.374,-1037.47 273.252,-1043.85 277.598,-1041.38 277.598,-1041.38 277.598,-1041.38 273.252,-1043.85 279.823,-1045.29 268.906,-1046.33 268.906,-1046.33"/>
<text text-anchor="middle" x="371" y="-877.5" font-family="Helvetica,sans-Serif" font-size="10.00">rbw</text>
</g>
<!-- Node5 -->
<g id="node8" class="node"><title>Node5</title>
<a xlink:href="../../dc/d5e/classAmpSumOfAmplitudes.xhtml" target="_top" xlink:title="{AmpSumOfAmplitudes\n|# _pdfList\l# _intList\l# _phaseList\l# _angList\l# maxVal\l|+ AmpSumOfAmplitudes()\l+ AmpSumOfAmplitudes()\l+ AmpSumOfAmplitudes()\l+ ~AmpSumOfAmplitudes()\l+ addBW()\l+ addBW()\l+ evaluateSlice()\l+ evaluate()\l}">
<polygon fill="white" stroke="black" points="399.5,-777 399.5,-983 536.5,-983 536.5,-777 399.5,-777"/>
<text text-anchor="middle" x="468" y="-970" font-family="Helvetica,sans-Serif" font-size="10.00">AmpSumOfAmplitudes</text>
<polyline fill="none" stroke="black" points="399.5,-962 536.5,-962 "/>
<text text-anchor="start" x="407.5" y="-949" font-family="Helvetica,sans-Serif" font-size="10.00"># _pdfList</text>
<text text-anchor="start" x="407.5" y="-936" font-family="Helvetica,sans-Serif" font-size="10.00"># _intList</text>
<text text-anchor="start" x="407.5" y="-923" font-family="Helvetica,sans-Serif" font-size="10.00"># _phaseList</text>
<text text-anchor="start" x="407.5" y="-910" font-family="Helvetica,sans-Serif" font-size="10.00"># _angList</text>
<text text-anchor="start" x="407.5" y="-897" font-family="Helvetica,sans-Serif" font-size="10.00"># maxVal</text>
<polyline fill="none" stroke="black" points="399.5,-889 536.5,-889 "/>
<text text-anchor="start" x="407.5" y="-876" font-family="Helvetica,sans-Serif" font-size="10.00">+ AmpSumOfAmplitudes()</text>
<text text-anchor="start" x="407.5" y="-863" font-family="Helvetica,sans-Serif" font-size="10.00">+ AmpSumOfAmplitudes()</text>
<text text-anchor="start" x="407.5" y="-850" font-family="Helvetica,sans-Serif" font-size="10.00">+ AmpSumOfAmplitudes()</text>
<text text-anchor="start" x="407.5" y="-837" font-family="Helvetica,sans-Serif" font-size="10.00">+ ~AmpSumOfAmplitudes()</text>
<text text-anchor="start" x="407.5" y="-824" font-family="Helvetica,sans-Serif" font-size="10.00">+ addBW()</text>
<text text-anchor="start" x="407.5" y="-811" font-family="Helvetica,sans-Serif" font-size="10.00">+ addBW()</text>
<text text-anchor="start" x="407.5" y="-798" font-family="Helvetica,sans-Serif" font-size="10.00">+ evaluateSlice()</text>
<text text-anchor="start" x="407.5" y="-785" font-family="Helvetica,sans-Serif" font-size="10.00">+ evaluate()</text>
</a>
</g>
<!-- Node4&#45;&gt;Node5 -->
<g id="edge12" class="edge"><title>Node4&#45;&gt;Node5</title>
<path fill="none" stroke="#9a32cd" stroke-dasharray="5,2" d="M340.166,-1045.41C357.567,-1039.93 371.942,-1034.05 380,-1028 396.018,-1015.98 409.679,-1000.11 421.12,-983.232"/>
<polygon fill="#9a32cd" stroke="#9a32cd" points="330.208,-1048.41 338.484,-1041.22 334.995,-1046.97 339.782,-1045.53 339.782,-1045.53 339.782,-1045.53 334.995,-1046.97 341.081,-1049.84 330.208,-1048.41 330.208,-1048.41"/>
<text text-anchor="middle" x="424.5" y="-1012.5" font-family="Helvetica,sans-Serif" font-size="10.00">_pdfList</text>
</g>
<!-- Node5&#45;&gt;Node1 -->
<g id="edge8" class="edge"><title>Node5&#45;&gt;Node1</title>
<path fill="none" stroke="#9a32cd" stroke-dasharray="5,2" d="M447.435,-766.692C440.399,-727.925 432.144,-682.443 423.639,-635.58"/>
<polygon fill="#9a32cd" stroke="#9a32cd" points="449.292,-776.921 443.078,-767.885 448.399,-772.001 447.506,-767.081 447.506,-767.081 447.506,-767.081 448.399,-772.001 451.933,-766.278 449.292,-776.921 449.292,-776.921"/>
<text text-anchor="middle" x="460" y="-703.5" font-family="Helvetica,sans-Serif" font-size="10.00">totAmp</text>
</g>
<!-- Node6 -->
<g id="node10" class="node"><title>Node6</title>
<polygon fill="white" stroke="#bfbfbf" points="348,-1046.5 348,-1109.5 588,-1109.5 588,-1046.5 348,-1046.5"/>
<text text-anchor="middle" x="468" y="-1096.5" font-family="Helvetica,sans-Serif" font-size="10.00">std::vector&lt; std::shared_ptr&lt; DoubleParameter &gt; &gt;</text>
<polyline fill="none" stroke="#bfbfbf" points="348,-1088.5 588,-1088.5 "/>
<text text-anchor="start" x="356" y="-1075.5" font-family="Helvetica,sans-Serif" font-size="10.00">&#45; elements</text>
<polyline fill="none" stroke="#bfbfbf" points="348,-1067.5 588,-1067.5 "/>
<text text-anchor="middle" x="468" y="-1054.5" font-family="Helvetica,sans-Serif" font-size="10.00"> </text>
</g>
<!-- Node6&#45;&gt;Node5 -->
<g id="edge10" class="edge"><title>Node6&#45;&gt;Node5</title>
<path fill="none" stroke="#9a32cd" stroke-dasharray="5,2" d="M468,-1035.89C468,-1020.32 468,-1001.9 468,-983.275"/>
<polygon fill="#9a32cd" stroke="#9a32cd" points="468,-1046.19 463.5,-1036.19 468,-1041.19 468,-1036.19 468,-1036.19 468,-1036.19 468,-1041.19 472.5,-1036.19 468,-1046.19 468,-1046.19"/>
<text text-anchor="middle" x="492" y="-1019" font-family="Helvetica,sans-Serif" font-size="10.00">_phaseList</text>
<text text-anchor="middle" x="492" y="-1006" font-family="Helvetica,sans-Serif" font-size="10.00">_intList</text>
</g>
<!-- Node7 -->
<g id="node13" class="node"><title>Node7</title>
<polygon fill="white" stroke="#bfbfbf" points="605.5,-1046.5 605.5,-1109.5 820.5,-1109.5 820.5,-1046.5 605.5,-1046.5"/>
<text text-anchor="middle" x="713" y="-1096.5" font-family="Helvetica,sans-Serif" font-size="10.00">std::vector&lt; std::shared_ptr&lt; AmpWigner &gt; &gt;</text>
<polyline fill="none" stroke="#bfbfbf" points="605.5,-1088.5 820.5,-1088.5 "/>
<text text-anchor="start" x="613.5" y="-1075.5" font-family="Helvetica,sans-Serif" font-size="10.00">&#45; elements</text>
<polyline fill="none" stroke="#bfbfbf" points="605.5,-1067.5 820.5,-1067.5 "/>
<text text-anchor="middle" x="713" y="-1054.5" font-family="Helvetica,sans-Serif" font-size="10.00"> </text>
</g>
<!-- Node7&#45;&gt;Node1 -->
<g id="edge16" class="edge"><title>Node7&#45;&gt;Node1</title>
<path fill="none" stroke="#9a32cd" stroke-dasharray="5,2" d="M694.259,-1036.95C646.033,-931.33 515.752,-645.988 434.567,-468.175"/>
<polygon fill="#9a32cd" stroke="#9a32cd" points="698.532,-1046.31 690.285,-1039.08 696.455,-1041.76 694.378,-1037.21 694.378,-1037.21 694.378,-1037.21 696.455,-1041.76 698.472,-1035.35 698.532,-1046.31 698.532,-1046.31"/>
<text text-anchor="middle" x="680" y="-877.5" font-family="Helvetica,sans-Serif" font-size="10.00">angd</text>
</g>
<!-- Node7&#45;&gt;Node5 -->
<g id="edge14" class="edge"><title>Node7&#45;&gt;Node5</title>
<path fill="none" stroke="#9a32cd" stroke-dasharray="5,2" d="M649.221,-1040.77C642.955,-1036.62 636.782,-1032.33 631,-1028 598.56,-1003.73 565.038,-974.18 536.892,-947.889"/>
<polygon fill="#9a32cd" stroke="#9a32cd" points="657.795,-1046.32 646.956,-1044.66 653.599,-1043.61 649.403,-1040.89 649.403,-1040.89 649.403,-1040.89 653.599,-1043.61 651.85,-1037.11 657.795,-1046.32 657.795,-1046.32"/>
<text text-anchor="middle" x="649.5" y="-1012.5" font-family="Helvetica,sans-Serif" font-size="10.00">_angList</text>
</g>
</g>
</svg>
