<?xml version="1.0" encoding="UTF-8" standalone="no"?>
<!DOCTYPE svg PUBLIC "-//W3C//DTD SVG 1.1//EN"
 "http://www.w3.org/Graphics/SVG/1.1/DTD/svg11.dtd">
<!-- Generated by graphviz version 2.26.3 (20100126.1600)
 -->
<!-- Title: G Pages: 1 -->
<svg width="1179pt" height="262pt"
 viewBox="0.00 0.00 1179.17 262.00" xmlns="http://www.w3.org/2000/svg" xmlns:xlink="http://www.w3.org/1999/xlink">
<g id="graph1" class="graph" transform="scale(1 1) rotate(0) translate(4 258)">
<title>G</title>
<polygon fill="white" stroke="white" points="-4,5 -4,-258 1176.17,-258 1176.17,5 -4,5"/>
<!-- Node1 -->
<g id="node1" class="node"><title>Node1</title>
<polygon fill="#bfbfbf" stroke="black" points="528.666,-232.5 528.666,-253.5 719.666,-253.5 719.666,-232.5 528.666,-232.5"/>
<text text-anchor="middle" x="624.166" y="-240.5" font-family="Helvetica,sans-Serif" font-size="10.00">Physics/AmplitudeSum/AmpWigner.hpp</text>
</g>
<!-- Node2 -->
<g id="node3" class="node"><title>Node2</title>
<a xlink:href="../../dd/d65/AmpFlatteRes_8hpp.xhtml" target="_top" xlink:title="Physics/AmplitudeSum/AmpFlatteRes.hpp">
<polygon fill="white" stroke="black" points="55.6663,-116.5 55.6663,-137.5 258.666,-137.5 258.666,-116.5 55.6663,-116.5"/>
<text text-anchor="middle" x="157.166" y="-124.5" font-family="Helvetica,sans-Serif" font-size="10.00">Physics/AmplitudeSum/AmpFlatteRes.hpp</text>
</a>
</g>
<!-- Node1&#45;&gt;Node2 -->
<g id="edge2" class="edge"><title>Node1&#45;&gt;Node2</title>
<path fill="none" stroke="midnightblue" d="M525.008,-231.091C470.759,-223.41 402.67,-211.86 343.166,-196 283.428,-180.078 216.018,-152.561 181.065,-137.537"/>
<polygon fill="midnightblue" stroke="midnightblue" points="524.584,-234.565 534.971,-232.48 525.55,-227.632 524.584,-234.565"/>
</g>
<!-- Node4 -->
<g id="node7" class="node"><title>Node4</title>
<a xlink:href="../../db/dd9/AmpSumIntensity_8cpp.xhtml" target="_top" xlink:title="Physics/AmplitudeSum/AmpSumIntensity.cpp">
<polygon fill="white" stroke="black" points="139.166,-0.5 139.166,-21.5 357.166,-21.5 357.166,-0.5 139.166,-0.5"/>
<text text-anchor="middle" x="248.166" y="-8.5" font-family="Helvetica,sans-Serif" font-size="10.00">Physics/AmplitudeSum/AmpSumIntensity.cpp</text>
</a>
</g>
<!-- Node1&#45;&gt;Node4 -->
<g id="edge38" class="edge"><title>Node1&#45;&gt;Node4</title>
<path fill="none" stroke="midnightblue" d="M518.369,-234.553C373.017,-221.158 121.132,-190.977 47.1663,-138 15.165,-115.08 -15.8382,-88.4007 9.16634,-58 26.0898,-37.4244 84.2516,-25.7172 138.958,-19.133"/>
<polygon fill="midnightblue" stroke="midnightblue" points="518.37,-238.068 528.646,-235.489 519.005,-231.097 518.37,-238.068"/>
</g>
<!-- Node5 -->
<g id="node9" class="node"><title>Node5</title>
<a xlink:href="../../d0/d2a/AmpSumIntensity_8hpp.xhtml" target="_top" xlink:title="Physics/AmplitudeSum/AmpSumIntensity.hpp">
<polygon fill="white" stroke="black" points="477.166,-58.5 477.166,-79.5 695.166,-79.5 695.166,-58.5 477.166,-58.5"/>
<text text-anchor="middle" x="586.166" y="-66.5" font-family="Helvetica,sans-Serif" font-size="10.00">Physics/AmplitudeSum/AmpSumIntensity.hpp</text>
</a>
</g>
<!-- Node1&#45;&gt;Node5 -->
<g id="edge42" class="edge"><title>Node1&#45;&gt;Node5</title>
<path fill="none" stroke="midnightblue" d="M619.624,-222.2C611.502,-185.013 594.762,-108.36 588.553,-79.9277"/>
<polygon fill="midnightblue" stroke="midnightblue" points="616.293,-223.355 621.846,-232.377 623.132,-221.861 616.293,-223.355"/>
</g>
<!-- Node10 -->
<g id="node20" class="node"><title>Node10</title>
<a xlink:href="../../d2/d45/AmpRelBreitWignerRes_8hpp.xhtml" target="_top" xlink:title="Physics/AmplitudeSum/AmpRelBreitWignerRes.hpp">
<polygon fill="white" stroke="black" points="351.666,-174.5 351.666,-195.5 596.666,-195.5 596.666,-174.5 351.666,-174.5"/>
<text text-anchor="middle" x="474.166" y="-182.5" font-family="Helvetica,sans-Serif" font-size="10.00">Physics/AmplitudeSum/AmpRelBreitWignerRes.hpp</text>
</a>
</g>
<!-- Node1&#45;&gt;Node10 -->
<g id="edge20" class="edge"><title>Node1&#45;&gt;Node10</title>
<path fill="none" stroke="midnightblue" d="M587.634,-228.874C561.016,-218.582 525.534,-204.862 501.381,-195.523"/>
<polygon fill="midnightblue" stroke="midnightblue" points="586.413,-232.155 597.002,-232.497 588.938,-225.626 586.413,-232.155"/>
</g>
<!-- Node12 -->
<g id="node25" class="node"><title>Node12</title>
<a xlink:href="../../d4/d9e/AmpSumOfAmplitudes_8hpp.xhtml" target="_top" xlink:title="Physics/AmplitudeSum/AmpSumOfAmplitudes.hpp">
<polygon fill="white" stroke="black" points="652.166,-116.5 652.166,-137.5 892.166,-137.5 892.166,-116.5 652.166,-116.5"/>
<text text-anchor="middle" x="772.166" y="-124.5" font-family="Helvetica,sans-Serif" font-size="10.00">Physics/AmplitudeSum/AmpSumOfAmplitudes.hpp</text>
</a>
</g>
<!-- Node1&#45;&gt;Node12 -->
<g id="edge40" class="edge"><title>Node1&#45;&gt;Node12</title>
<path fill="none" stroke="midnightblue" d="M636.967,-223.539C647.505,-208.609 663.536,-188.214 681.166,-174 700.546,-158.375 725.945,-145.783 744.983,-137.581"/>
<polygon fill="midnightblue" stroke="midnightblue" points="633.917,-221.798 631.15,-232.025 639.69,-225.756 633.917,-221.798"/>
</g>
<!-- Node15 -->
<g id="node37" class="node"><title>Node15</title>
<a xlink:href="../../d6/daa/AmpWigner_8cpp.xhtml" target="_top" xlink:title="Physics/AmplitudeSum/AmpWigner.cpp">
<polygon fill="white" stroke="black" points="689.666,-174.5 689.666,-195.5 880.666,-195.5 880.666,-174.5 689.666,-174.5"/>
<text text-anchor="middle" x="785.166" y="-182.5" font-family="Helvetica,sans-Serif" font-size="10.00">Physics/AmplitudeSum/AmpWigner.cpp</text>
</a>
</g>
<!-- Node1&#45;&gt;Node15 -->
<g id="edge44" class="edge"><title>Node1&#45;&gt;Node15</title>
<path fill="none" stroke="midnightblue" d="M663.002,-229.009C691.613,-218.702 729.918,-204.903 755.956,-195.523"/>
<polygon fill="midnightblue" stroke="midnightblue" points="661.544,-225.814 653.322,-232.497 663.917,-232.4 661.544,-225.814"/>
</g>
<!-- Node16 -->
<g id="node39" class="node"><title>Node16</title>
<a xlink:href="../../d3/d66/PhiSumOfAmplitudes_8hpp.xhtml" target="_top" xlink:title="Physics/AmplitudeSum/PhiSumOfAmplitudes.hpp">
<polygon fill="white" stroke="black" points="904.166,-174.5 904.166,-195.5 1138.17,-195.5 1138.17,-174.5 904.166,-174.5"/>
<text text-anchor="middle" x="1021.17" y="-182.5" font-family="Helvetica,sans-Serif" font-size="10.00">Physics/AmplitudeSum/PhiSumOfAmplitudes.hpp</text>
</a>
</g>
<!-- Node1&#45;&gt;Node16 -->
<g id="edge46" class="edge"><title>Node1&#45;&gt;Node16</title>
<path fill="none" stroke="midnightblue" d="M706.388,-230.988C777.976,-220.529 880.729,-205.517 949.138,-195.523"/>
<polygon fill="midnightblue" stroke="midnightblue" points="705.449,-227.588 696.06,-232.497 706.461,-234.514 705.449,-227.588"/>
</g>
<!-- Node3 -->
<g id="node5" class="node"><title>Node3</title>
<a xlink:href="../../d2/d84/AmpFlatteRes_8cpp.xhtml" target="_top" xlink:title="Physics/AmplitudeSum/AmpFlatteRes.cpp">
<polygon fill="white" stroke="black" points="17.6663,-58.5 17.6663,-79.5 220.666,-79.5 220.666,-58.5 17.6663,-58.5"/>
<text text-anchor="middle" x="119.166" y="-66.5" font-family="Helvetica,sans-Serif" font-size="10.00">Physics/AmplitudeSum/AmpFlatteRes.cpp</text>
</a>
</g>
<!-- Node2&#45;&gt;Node3 -->
<g id="edge4" class="edge"><title>Node2&#45;&gt;Node3</title>
<path fill="none" stroke="midnightblue" d="M144.691,-107.959C138.508,-98.522 131.276,-87.4835 126.092,-79.5707"/>
<polygon fill="midnightblue" stroke="midnightblue" points="141.789,-109.915 150.197,-116.362 147.644,-106.079 141.789,-109.915"/>
</g>
<!-- Node2&#45;&gt;Node4 -->
<g id="edge6" class="edge"><title>Node2&#45;&gt;Node4</title>
<path fill="none" stroke="midnightblue" d="M191.379,-111.451C204.913,-103.745 219.512,-93.2247 229.166,-80 242.06,-62.3376 246.205,-36.3477 247.537,-21.8289"/>
<polygon fill="midnightblue" stroke="midnightblue" points="189.418,-108.53 182.253,-116.335 192.721,-114.702 189.418,-108.53"/>
</g>
<!-- Node2&#45;&gt;Node5 -->
<g id="edge8" class="edge"><title>Node2&#45;&gt;Node5</title>
<path fill="none" stroke="midnightblue" d="M245.066,-115.116C322.463,-104.652 434.106,-89.5583 508.332,-79.5231"/>
<polygon fill="midnightblue" stroke="midnightblue" points="244.296,-111.688 234.855,-116.497 245.234,-118.625 244.296,-111.688"/>
</g>
<!-- Node5&#45;&gt;Node4 -->
<g id="edge10" class="edge"><title>Node5&#45;&gt;Node4</title>
<path fill="none" stroke="midnightblue" d="M515.037,-56.7943C454.14,-46.3447 367.375,-31.4559 309.49,-21.5231"/>
<polygon fill="midnightblue" stroke="midnightblue" points="514.509,-60.2549 524.957,-58.4966 515.693,-53.3557 514.509,-60.2549"/>
</g>
<!-- Node6 -->
<g id="node12" class="node"><title>Node6</title>
<a xlink:href="../../de/d2f/Physics_2RootGenerator_2GenDalitzApp_8cpp.xhtml" target="_top" xlink:title="Physics/RootGenerator/GenDalitzApp.cpp">
<polygon fill="white" stroke="black" points="374.666,-0.5 374.666,-21.5 575.666,-21.5 575.666,-0.5 374.666,-0.5"/>
<text text-anchor="middle" x="475.166" y="-8.5" font-family="Helvetica,sans-Serif" font-size="10.00">Physics/RootGenerator/GenDalitzApp.cpp</text>
</a>
</g>
<!-- Node5&#45;&gt;Node6 -->
<g id="edge12" class="edge"><title>Node5&#45;&gt;Node6</title>
<path fill="none" stroke="midnightblue" d="M557.065,-53.794C537.699,-43.6746 512.741,-30.6338 495.493,-21.6212"/>
<polygon fill="midnightblue" stroke="midnightblue" points="555.581,-56.9675 566.065,-58.4966 558.823,-50.7634 555.581,-56.9675"/>
</g>
<!-- Node7 -->
<g id="node14" class="node"><title>Node7</title>
<a xlink:href="../../da/d2a/DalitzFitApp_8cpp.xhtml" target="_top" xlink:title="Test&#45;Application for full fit with simple BW&#45;dalitz&#45;model.">
<polygon fill="white" stroke="black" points="592.666,-0.5 592.666,-21.5 701.666,-21.5 701.666,-0.5 592.666,-0.5"/>
<text text-anchor="middle" x="647.166" y="-8.5" font-family="Helvetica,sans-Serif" font-size="10.00">test/DalitzFitApp.cpp</text>
</a>
</g>
<!-- Node5&#45;&gt;Node7 -->
<g id="edge14" class="edge"><title>Node5&#45;&gt;Node7</title>
<path fill="none" stroke="midnightblue" d="M604.671,-51.405C614.912,-41.6683 627.298,-29.8914 636.049,-21.5707"/>
<polygon fill="midnightblue" stroke="midnightblue" points="602.19,-48.9348 597.355,-58.3619 607.013,-54.0077 602.19,-48.9348"/>
</g>
<!-- Node8 -->
<g id="node16" class="node"><title>Node8</title>
<a xlink:href="../../d2/d52/test_2GenDalitzApp_8cpp.xhtml" target="_top" xlink:title="test/GenDalitzApp.cpp">
<polygon fill="white" stroke="black" points="719.166,-0.5 719.166,-21.5 835.166,-21.5 835.166,-0.5 719.166,-0.5"/>
<text text-anchor="middle" x="777.166" y="-8.5" font-family="Helvetica,sans-Serif" font-size="10.00">test/GenDalitzApp.cpp</text>
</a>
</g>
<!-- Node5&#45;&gt;Node8 -->
<g id="edge16" class="edge"><title>Node5&#45;&gt;Node8</title>
<path fill="none" stroke="midnightblue" d="M630.471,-55.5464C664.589,-45.1857 711.084,-31.0668 742.513,-21.5231"/>
<polygon fill="midnightblue" stroke="midnightblue" points="629.307,-52.2419 620.755,-58.4966 631.341,-58.9399 629.307,-52.2419"/>
</g>
<!-- Node9 -->
<g id="node18" class="node"><title>Node9</title>
<a xlink:href="../../db/d19/GenRunManagerApp_8cpp.xhtml" target="_top" xlink:title="test/GenRunManagerApp.cpp">
<polygon fill="white" stroke="black" points="853.166,-0.5 853.166,-21.5 999.166,-21.5 999.166,-0.5 853.166,-0.5"/>
<text text-anchor="middle" x="926.166" y="-8.5" font-family="Helvetica,sans-Serif" font-size="10.00">test/GenRunManagerApp.cpp</text>
</a>
</g>
<!-- Node5&#45;&gt;Node9 -->
<g id="edge18" class="edge"><title>Node5&#45;&gt;Node9</title>
<path fill="none" stroke="midnightblue" d="M657.717,-56.7943C718.973,-46.3447 806.252,-31.4559 864.479,-21.5231"/>
<polygon fill="midnightblue" stroke="midnightblue" points="657.007,-53.3648 647.738,-58.4966 658.184,-60.2651 657.007,-53.3648"/>
</g>
<!-- Node10&#45;&gt;Node4 -->
<g id="edge24" class="edge"><title>Node10&#45;&gt;Node4</title>
<path fill="none" stroke="midnightblue" d="M406.676,-172.329C366.622,-163.664 320.707,-151.36 305.166,-138 268.33,-106.333 254.2,-46.1013 249.828,-21.6822"/>
<polygon fill="midnightblue" stroke="midnightblue" points="406.203,-175.806 416.711,-174.452 407.652,-168.958 406.203,-175.806"/>
</g>
<!-- Node10&#45;&gt;Node5 -->
<g id="edge36" class="edge"><title>Node10&#45;&gt;Node5</title>
<path fill="none" stroke="midnightblue" d="M520.753,-170.472C537.503,-163.147 555.195,-152.63 567.166,-138 581.172,-120.883 584.887,-94.2109 585.85,-79.5463"/>
<polygon fill="midnightblue" stroke="midnightblue" points="518.993,-167.409 511.051,-174.422 521.633,-173.892 518.993,-167.409"/>
</g>
<!-- Node11 -->
<g id="node22" class="node"><title>Node11</title>
<a xlink:href="../../dd/d5d/AmpRelBreitWignerRes_8cpp.xhtml" target="_top" xlink:title="Physics/AmplitudeSum/AmpRelBreitWignerRes.cpp">
<polygon fill="white" stroke="black" points="313.666,-116.5 313.666,-137.5 558.666,-137.5 558.666,-116.5 313.666,-116.5"/>
<text text-anchor="middle" x="436.166" y="-124.5" font-family="Helvetica,sans-Serif" font-size="10.00">Physics/AmplitudeSum/AmpRelBreitWignerRes.cpp</text>
</a>
</g>
<!-- Node10&#45;&gt;Node11 -->
<g id="edge22" class="edge"><title>Node10&#45;&gt;Node11</title>
<path fill="none" stroke="midnightblue" d="M461.691,-165.959C455.508,-156.522 448.276,-145.484 443.092,-137.571"/>
<polygon fill="midnightblue" stroke="midnightblue" points="458.789,-167.915 467.197,-174.362 464.644,-164.079 458.789,-167.915"/>
</g>
<!-- Node10&#45;&gt;Node12 -->
<g id="edge26" class="edge"><title>Node10&#45;&gt;Node12</title>
<path fill="none" stroke="midnightblue" d="M538.211,-172.535C591.828,-162.099 667.486,-147.374 718.1,-137.523"/>
<polygon fill="midnightblue" stroke="midnightblue" points="537.279,-169.151 528.132,-174.497 538.616,-176.022 537.279,-169.151"/>
</g>
<!-- Node12&#45;&gt;Node4 -->
<g id="edge28" class="edge"><title>Node12&#45;&gt;Node4</title>
<path fill="none" stroke="midnightblue" d="M670.226,-115.138C610.852,-107.261 534.792,-95.5055 468.166,-80 398.379,-63.7588 318.626,-36.4953 276.962,-21.564"/>
<polygon fill="midnightblue" stroke="midnightblue" points="669.987,-118.636 680.357,-116.466 670.897,-111.696 669.987,-118.636"/>
</g>
<!-- Node12&#45;&gt;Node5 -->
<g id="edge30" class="edge"><title>Node12&#45;&gt;Node5</title>
<path fill="none" stroke="midnightblue" d="M728.593,-113.413C695.408,-103.065 650.387,-89.0258 619.913,-79.5231"/>
<polygon fill="midnightblue" stroke="midnightblue" points="727.895,-116.861 738.483,-116.497 729.978,-110.178 727.895,-116.861"/>
</g>
<!-- Node13 -->
<g id="node29" class="node"><title>Node13</title>
<a xlink:href="../../d6/dfb/AmpSumOfAmplitudes_8cpp.xhtml" target="_top" xlink:title="Physics/AmplitudeSum/AmpSumOfAmplitudes.cpp">
<polygon fill="white" stroke="black" points="931.166,-58.5 931.166,-79.5 1171.17,-79.5 1171.17,-58.5 931.166,-58.5"/>
<text text-anchor="middle" x="1051.17" y="-66.5" font-family="Helvetica,sans-Serif" font-size="10.00">Physics/AmplitudeSum/AmpSumOfAmplitudes.cpp</text>
</a>
</g>
<!-- Node12&#45;&gt;Node13 -->
<g id="edge32" class="edge"><title>Node12&#45;&gt;Node13</title>
<path fill="none" stroke="midnightblue" d="M832.755,-114.404C882.915,-103.977 953.357,-89.333 1000.55,-79.5231"/>
<polygon fill="midnightblue" stroke="midnightblue" points="831.769,-111.034 822.691,-116.497 833.194,-117.888 831.769,-111.034"/>
</g>
<!-- Node14 -->
<g id="node31" class="node"><title>Node14</title>
<a xlink:href="../../d6/d5d/AmpSumTree_8hpp.xhtml" target="_top" xlink:title="Physics/AmplitudeSum/AmpSumTree.hpp">
<polygon fill="white" stroke="black" points="713.166,-58.5 713.166,-79.5 913.166,-79.5 913.166,-58.5 713.166,-58.5"/>
<text text-anchor="middle" x="813.166" y="-66.5" font-family="Helvetica,sans-Serif" font-size="10.00">Physics/AmplitudeSum/AmpSumTree.hpp</text>
</a>
</g>
<!-- Node12&#45;&gt;Node14 -->
<g id="edge34" class="edge"><title>Node12&#45;&gt;Node14</title>
<path fill="none" stroke="midnightblue" d="M785.626,-107.959C792.297,-98.522 800.1,-87.4835 805.694,-79.5707"/>
<polygon fill="midnightblue" stroke="midnightblue" points="782.601,-106.176 779.686,-116.362 788.317,-110.216 782.601,-106.176"/>
</g>
<!-- Node17 -->
<g id="node41" class="node"><title>Node17</title>
<a xlink:href="../../db/db7/PhiSumOfAmplitudes_8cpp.xhtml" target="_top" xlink:title="Physics/AmplitudeSum/PhiSumOfAmplitudes.cpp">
<polygon fill="white" stroke="black" points="910.166,-116.5 910.166,-137.5 1144.17,-137.5 1144.17,-116.5 910.166,-116.5"/>
<text text-anchor="middle" x="1027.17" y="-124.5" font-family="Helvetica,sans-Serif" font-size="10.00">Physics/AmplitudeSum/PhiSumOfAmplitudes.cpp</text>
</a>
</g>
<!-- Node16&#45;&gt;Node17 -->
<g id="edge48" class="edge"><title>Node16&#45;&gt;Node17</title>
<path fill="none" stroke="midnightblue" d="M1023.32,-164.191C1024.25,-155.168 1025.3,-144.994 1026.07,-137.571"/>
<polygon fill="midnightblue" stroke="midnightblue" points="1019.81,-164.055 1022.27,-174.362 1026.78,-164.775 1019.81,-164.055"/>
</g>
</g>
</svg>
