<?xml version="1.0" encoding="UTF-8" standalone="no"?>
<!DOCTYPE svg PUBLIC "-//W3C//DTD SVG 1.1//EN"
 "http://www.w3.org/Graphics/SVG/1.1/DTD/svg11.dtd">
<!-- Generated by graphviz version 2.36.0 (20140111.2315)
 -->
<!-- Title: /home/travis/build/ComPWA/ComPWA/Physics/HelicityFormalism/HelicityKinematics.hpp Pages: 1 -->
<svg width="980pt" height="342pt"
 viewBox="0.00 0.00 980.00 342.00" xmlns="http://www.w3.org/2000/svg" xmlns:xlink="http://www.w3.org/1999/xlink">
<g id="graph0" class="graph" transform="scale(1 1) rotate(0) translate(4 338)">
<title>/home/travis/build/ComPWA/ComPWA/Physics/HelicityFormalism/HelicityKinematics.hpp</title>
<polygon fill="white" stroke="none" points="-4,4 -4,-338 976,-338 976,4 -4,4"/>
<!-- Node1 -->
<g id="node1" class="node"><title>Node1</title>
<polygon fill="#bfbfbf" stroke="black" points="596,-292.5 596,-333.5 798,-333.5 798,-292.5 596,-292.5"/>
<text text-anchor="start" x="604" y="-321.5" font-family="Helvetica,sans-Serif" font-size="10.00">/home/travis/build</text>
<text text-anchor="start" x="604" y="-310.5" font-family="Helvetica,sans-Serif" font-size="10.00">/ComPWA/ComPWA/Physics</text>
<text text-anchor="middle" x="697" y="-299.5" font-family="Helvetica,sans-Serif" font-size="10.00">/HelicityFormalism/HelicityKinematics.hpp</text>
</g>
<!-- Node2 -->
<g id="node2" class="node"><title>Node2</title>
<polygon fill="white" stroke="#bfbfbf" points="656,-6.5 656,-25.5 700,-25.5 700,-6.5 656,-6.5"/>
<text text-anchor="middle" x="678" y="-13.5" font-family="Helvetica,sans-Serif" font-size="10.00">vector</text>
</g>
<!-- Node1&#45;&gt;Node2 -->
<g id="edge1" class="edge"><title>Node1&#45;&gt;Node2</title>
<path fill="none" stroke="midnightblue" d="M747.543,-292.493C787.645,-273.332 837,-239.831 837,-191 837,-191 837,-191 837,-133 837,-70.7365 756.443,-38.3392 710.009,-24.8367"/>
<polygon fill="midnightblue" stroke="midnightblue" points="710.68,-21.3908 700.108,-22.0926 708.81,-28.1365 710.68,-21.3908"/>
</g>
<!-- Node3 -->
<g id="node3" class="node"><title>Node3</title>
<g id="a_node3"><a xlink:href="../../d4/d37/Kinematics_8hpp.html" target="_top" xlink:title="Core/Kinematics.hpp">
<polygon fill="white" stroke="black" points="503,-236.5 503,-255.5 611,-255.5 611,-236.5 503,-236.5"/>
<text text-anchor="middle" x="557" y="-243.5" font-family="Helvetica,sans-Serif" font-size="10.00">Core/Kinematics.hpp</text>
</a>
</g>
</g>
<!-- Node1&#45;&gt;Node3 -->
<g id="edge2" class="edge"><title>Node1&#45;&gt;Node3</title>
<path fill="none" stroke="midnightblue" d="M654.995,-292.498C632.292,-281.957 604.886,-269.233 584.835,-259.923"/>
<polygon fill="midnightblue" stroke="midnightblue" points="586.18,-256.689 575.636,-255.652 583.232,-263.038 586.18,-256.689"/>
</g>
<!-- Node3&#45;&gt;Node2 -->
<g id="edge3" class="edge"><title>Node3&#45;&gt;Node2</title>
<path fill="none" stroke="midnightblue" d="M577.784,-236.496C621.151,-217.457 720.446,-166.796 759,-88 772.087,-61.2544 737.558,-40.3123 709.584,-28.3011"/>
<polygon fill="midnightblue" stroke="midnightblue" points="710.633,-24.9497 700.051,-24.4302 707.999,-31.4354 710.633,-24.9497"/>
</g>
<!-- Node4 -->
<g id="node4" class="node"><title>Node4</title>
<polygon fill="white" stroke="#bfbfbf" points="75.5,-6.5 75.5,-25.5 116.5,-25.5 116.5,-6.5 75.5,-6.5"/>
<text text-anchor="middle" x="96" y="-13.5" font-family="Helvetica,sans-Serif" font-size="10.00">string</text>
</g>
<!-- Node3&#45;&gt;Node4 -->
<g id="edge4" class="edge"><title>Node3&#45;&gt;Node4</title>
<path fill="none" stroke="midnightblue" d="M510.671,-236.476C438.878,-222.384 297.226,-191.031 184,-144 133.337,-122.956 102.672,-134.771 74,-88 63.723,-71.236 73.4743,-49.2744 83.0524,-34.2418"/>
<polygon fill="midnightblue" stroke="midnightblue" points="86.0188,-36.1054 88.8132,-25.8857 80.2557,-32.1322 86.0188,-36.1054"/>
</g>
<!-- Node5 -->
<g id="node5" class="node"><title>Node5</title>
<polygon fill="white" stroke="#bfbfbf" points="-0.5,-6.5 -0.5,-25.5 52.5,-25.5 52.5,-6.5 -0.5,-6.5"/>
<text text-anchor="middle" x="26" y="-13.5" font-family="Helvetica,sans-Serif" font-size="10.00">complex</text>
</g>
<!-- Node3&#45;&gt;Node5 -->
<g id="edge5" class="edge"><title>Node3&#45;&gt;Node5</title>
<path fill="none" stroke="midnightblue" d="M502.917,-244.901C414.076,-242.242 234.95,-226.149 113,-144 72.3143,-116.593 45.2464,-63.199 33.1842,-35.1725"/>
<polygon fill="midnightblue" stroke="midnightblue" points="36.3557,-33.6829 29.2989,-25.7802 29.8873,-36.3587 36.3557,-33.6829"/>
</g>
<!-- Node6 -->
<g id="node6" class="node"><title>Node6</title>
<g id="a_node6"><a xlink:href="../../df/d7d/Event_8hpp.html" target="_top" xlink:title="This class provides a internal container for event&#45;based information. ">
<polygon fill="white" stroke="black" points="193.5,-124.5 193.5,-143.5 278.5,-143.5 278.5,-124.5 193.5,-124.5"/>
<text text-anchor="middle" x="236" y="-131.5" font-family="Helvetica,sans-Serif" font-size="10.00">Core/Event.hpp</text>
</a>
</g>
</g>
<!-- Node3&#45;&gt;Node6 -->
<g id="edge6" class="edge"><title>Node3&#45;&gt;Node6</title>
<path fill="none" stroke="midnightblue" d="M527.968,-236.482C498.591,-227.748 451.933,-213.56 412,-200 361.19,-182.746 302.891,-160.782 267.782,-147.314"/>
<polygon fill="midnightblue" stroke="midnightblue" points="268.682,-143.91 258.093,-143.587 266.169,-150.444 268.682,-143.91"/>
</g>
<!-- Node9 -->
<g id="node9" class="node"><title>Node9</title>
<g id="a_node9"><a xlink:href="../../dd/df5/SubSystem_8hpp.html" target="_top" xlink:title="Contains SubSystem class. ">
<polygon fill="white" stroke="black" points="623,-68.5 623,-87.5 733,-87.5 733,-68.5 623,-68.5"/>
<text text-anchor="middle" x="678" y="-75.5" font-family="Helvetica,sans-Serif" font-size="10.00">Core/SubSystem.hpp</text>
</a>
</g>
</g>
<!-- Node3&#45;&gt;Node9 -->
<g id="edge13" class="edge"><title>Node3&#45;&gt;Node9</title>
<path fill="none" stroke="midnightblue" d="M563.505,-236.075C582.882,-209.493 640.433,-130.538 665.781,-95.7633"/>
<polygon fill="midnightblue" stroke="midnightblue" points="668.693,-97.7108 671.755,-87.5681 663.036,-93.5875 668.693,-97.7108"/>
</g>
<!-- Node11 -->
<g id="node11" class="node"><title>Node11</title>
<g id="a_node11"><a xlink:href="../../d8/d35/PhysConst_8hpp.html" target="_top" xlink:title="PhysConst provides particle information to the framework. ">
<polygon fill="white" stroke="black" points="421,-180.5 421,-199.5 529,-199.5 529,-180.5 421,-180.5"/>
<text text-anchor="middle" x="475" y="-187.5" font-family="Helvetica,sans-Serif" font-size="10.00">Core/PhysConst.hpp</text>
</a>
</g>
</g>
<!-- Node3&#45;&gt;Node11 -->
<g id="edge16" class="edge"><title>Node3&#45;&gt;Node11</title>
<path fill="none" stroke="midnightblue" d="M543.825,-236.324C531.153,-227.979 511.767,-215.212 496.794,-205.352"/>
<polygon fill="midnightblue" stroke="midnightblue" points="498.419,-202.231 488.142,-199.655 494.569,-208.078 498.419,-202.231"/>
</g>
<!-- Node13 -->
<g id="node13" class="node"><title>Node13</title>
<g id="a_node13"><a xlink:href="../../d9/dfb/Spin_8hpp.html" target="_top" xlink:title="Core/Spin.hpp">
<polygon fill="white" stroke="red" points="487.5,-68.5 487.5,-87.5 566.5,-87.5 566.5,-68.5 487.5,-68.5"/>
<text text-anchor="middle" x="527" y="-75.5" font-family="Helvetica,sans-Serif" font-size="10.00">Core/Spin.hpp</text>
</a>
</g>
</g>
<!-- Node3&#45;&gt;Node13 -->
<g id="edge35" class="edge"><title>Node3&#45;&gt;Node13</title>
<path fill="none" stroke="midnightblue" d="M555.387,-236.075C550.665,-209.945 536.797,-133.211 530.357,-97.577"/>
<polygon fill="midnightblue" stroke="midnightblue" points="533.771,-96.7862 528.548,-87.5681 526.883,-98.0312 533.771,-96.7862"/>
</g>
<!-- Node16 -->
<g id="node16" class="node"><title>Node16</title>
<g id="a_node16"><a xlink:href="../../d8/dd4/DataPoint_8hpp.html" target="_top" xlink:title="dataPoint stores kinematic information of a dalitz plot ">
<polygon fill="white" stroke="black" points="865.5,-68.5 865.5,-87.5 968.5,-87.5 968.5,-68.5 865.5,-68.5"/>
<text text-anchor="middle" x="917" y="-75.5" font-family="Helvetica,sans-Serif" font-size="10.00">Core/DataPoint.hpp</text>
</a>
</g>
</g>
<!-- Node3&#45;&gt;Node16 -->
<g id="edge36" class="edge"><title>Node3&#45;&gt;Node16</title>
<path fill="none" stroke="midnightblue" d="M611.389,-241.337C657.027,-236.53 722.921,-225.456 775,-200 829.09,-173.561 879.496,-121.723 903.051,-95.3091"/>
<polygon fill="midnightblue" stroke="midnightblue" points="905.768,-97.5191 909.725,-87.6912 900.503,-92.9061 905.768,-97.5191"/>
</g>
<!-- Node6&#45;&gt;Node2 -->
<g id="edge7" class="edge"><title>Node6&#45;&gt;Node2</title>
<path fill="none" stroke="midnightblue" d="M262.945,-124.457C304.271,-111.486 385.888,-86.3923 456,-68 523.142,-50.3869 602.578,-32.9506 645.885,-23.729"/>
<polygon fill="midnightblue" stroke="midnightblue" points="646.777,-27.1178 655.833,-21.62 645.325,-20.27 646.777,-27.1178"/>
</g>
<!-- Node6&#45;&gt;Node4 -->
<g id="edge8" class="edge"><title>Node6&#45;&gt;Node4</title>
<path fill="none" stroke="midnightblue" d="M193.166,-133.326C157.603,-131.033 108.949,-121.406 84,-88 72.5864,-72.7176 79.0407,-50.4311 86.1185,-34.9181"/>
<polygon fill="midnightblue" stroke="midnightblue" points="89.3156,-36.3506 90.6781,-25.8437 83.0608,-33.2077 89.3156,-36.3506"/>
</g>
<!-- Node7 -->
<g id="node7" class="node"><title>Node7</title>
<polygon fill="white" stroke="#bfbfbf" points="244,-6.5 244,-25.5 298,-25.5 298,-6.5 244,-6.5"/>
<text text-anchor="middle" x="271" y="-13.5" font-family="Helvetica,sans-Serif" font-size="10.00">iostream</text>
</g>
<!-- Node6&#45;&gt;Node7 -->
<g id="edge9" class="edge"><title>Node6&#45;&gt;Node7</title>
<path fill="none" stroke="midnightblue" d="M193.337,-128.925C141.864,-122.271 65.5513,-105.803 94,-68 110.805,-45.6698 187.168,-30.0582 233.931,-22.4"/>
<polygon fill="midnightblue" stroke="midnightblue" points="234.669,-25.8268 243.995,-20.7994 233.569,-18.9137 234.669,-25.8268"/>
</g>
<!-- Node8 -->
<g id="node8" class="node"><title>Node8</title>
<g id="a_node8"><a xlink:href="../../d3/d65/Particle_8hpp.html" target="_top" xlink:title="This class provides a internal container for information of a particle. ">
<polygon fill="white" stroke="red" points="225,-68.5 225,-87.5 317,-87.5 317,-68.5 225,-68.5"/>
<text text-anchor="middle" x="271" y="-75.5" font-family="Helvetica,sans-Serif" font-size="10.00">Core/Particle.hpp</text>
</a>
</g>
</g>
<!-- Node6&#45;&gt;Node8 -->
<g id="edge10" class="edge"><title>Node6&#45;&gt;Node8</title>
<path fill="none" stroke="midnightblue" d="M241.78,-124.083C246.672,-116.534 253.827,-105.495 259.833,-96.2298"/>
<polygon fill="midnightblue" stroke="midnightblue" points="262.826,-98.0463 265.328,-87.7511 256.952,-94.239 262.826,-98.0463"/>
</g>
<!-- Node8&#45;&gt;Node2 -->
<g id="edge11" class="edge"><title>Node8&#45;&gt;Node2</title>
<path fill="none" stroke="midnightblue" d="M317.292,-70.1757C400.525,-57.9054 573.472,-32.4096 645.46,-21.7971"/>
<polygon fill="midnightblue" stroke="midnightblue" points="646.34,-25.2053 655.722,-20.2842 645.319,-18.2801 646.34,-25.2053"/>
</g>
<!-- Node8&#45;&gt;Node7 -->
<g id="edge12" class="edge"><title>Node8&#45;&gt;Node7</title>
<path fill="none" stroke="midnightblue" d="M271,-68.4035C271,-59.9381 271,-46.7283 271,-35.8199"/>
<polygon fill="midnightblue" stroke="midnightblue" points="274.5,-35.5806 271,-25.5806 267.5,-35.5806 274.5,-35.5806"/>
</g>
<!-- Node9&#45;&gt;Node2 -->
<g id="edge14" class="edge"><title>Node9&#45;&gt;Node2</title>
<path fill="none" stroke="midnightblue" d="M678,-68.4035C678,-59.9381 678,-46.7283 678,-35.8199"/>
<polygon fill="midnightblue" stroke="midnightblue" points="681.5,-35.5806 678,-25.5806 674.5,-35.5806 681.5,-35.5806"/>
</g>
<!-- Node10 -->
<g id="node10" class="node"><title>Node10</title>
<polygon fill="white" stroke="#bfbfbf" points="434.5,-1 434.5,-31 535.5,-31 535.5,-1 434.5,-1"/>
<text text-anchor="start" x="442.5" y="-19" font-family="Helvetica,sans-Serif" font-size="10.00">boost/property_tree</text>
<text text-anchor="middle" x="485" y="-8" font-family="Helvetica,sans-Serif" font-size="10.00">/ptree.hpp</text>
</g>
<!-- Node9&#45;&gt;Node10 -->
<g id="edge15" class="edge"><title>Node9&#45;&gt;Node10</title>
<path fill="none" stroke="midnightblue" d="M650.348,-68.4035C621.67,-59.4882 576.067,-45.311 540.01,-34.1014"/>
<polygon fill="midnightblue" stroke="midnightblue" points="540.703,-30.6518 530.115,-31.0253 538.625,-37.3363 540.703,-30.6518"/>
</g>
<!-- Node11&#45;&gt;Node2 -->
<g id="edge18" class="edge"><title>Node11&#45;&gt;Node2</title>
<path fill="none" stroke="midnightblue" d="M529.216,-185.901C592.383,-179.047 694.181,-157.215 742,-88 756.989,-66.3038 728.711,-44.186 705.104,-30.5295"/>
<polygon fill="midnightblue" stroke="midnightblue" points="706.511,-27.3093 696.062,-25.5592 703.139,-33.4436 706.511,-27.3093"/>
</g>
<!-- Node11&#45;&gt;Node7 -->
<g id="edge17" class="edge"><title>Node11&#45;&gt;Node7</title>
<path fill="none" stroke="midnightblue" d="M446.829,-180.464C426.153,-173.185 398.26,-161.154 378,-144 346.764,-117.554 352.727,-98.9956 326,-68 314.887,-55.1117 300.786,-42.0913 289.645,-32.4324"/>
<polygon fill="midnightblue" stroke="midnightblue" points="291.686,-29.5729 281.801,-25.7594 287.15,-34.9048 291.686,-29.5729"/>
</g>
<!-- Node11&#45;&gt;Node10 -->
<g id="edge19" class="edge"><title>Node11&#45;&gt;Node10</title>
<path fill="none" stroke="midnightblue" d="M488.684,-180.488C511.695,-165.262 557.354,-130.903 575,-88 584.608,-64.6405 562.569,-46.9923 537.901,-35.1336"/>
<polygon fill="midnightblue" stroke="midnightblue" points="539.304,-31.927 528.748,-31.0268 536.439,-38.3137 539.304,-31.927"/>
</g>
<!-- Node12 -->
<g id="node12" class="node"><title>Node12</title>
<g id="a_node12"><a xlink:href="../../db/dce/Parameter_8hpp.html" target="_top" xlink:title="This class implements some internal container of parameters. ">
<polygon fill="white" stroke="red" points="103,-68.5 103,-87.5 207,-87.5 207,-68.5 103,-68.5"/>
<text text-anchor="middle" x="155" y="-75.5" font-family="Helvetica,sans-Serif" font-size="10.00">Core/Parameter.hpp</text>
</a>
</g>
</g>
<!-- Node11&#45;&gt;Node12 -->
<g id="edge20" class="edge"><title>Node11&#45;&gt;Node12</title>
<path fill="none" stroke="midnightblue" d="M443.722,-180.437C414.294,-172.097 369.172,-158.576 331,-144 310.932,-136.337 306.968,-131.92 287,-124 255.469,-111.494 218.915,-99.1985 192.28,-90.6288"/>
<polygon fill="midnightblue" stroke="midnightblue" points="193.179,-87.242 182.588,-87.5342 191.05,-93.9103 193.179,-87.242"/>
</g>
<!-- Node11&#45;&gt;Node13 -->
<g id="edge25" class="edge"><title>Node11&#45;&gt;Node13</title>
<path fill="none" stroke="midnightblue" d="M480.284,-180.193C485.566,-171.233 493.775,-156.873 500,-144 507.555,-128.375 515.038,-110.08 520.203,-96.8872"/>
<polygon fill="midnightblue" stroke="midnightblue" points="523.472,-98.1387 523.806,-87.5492 516.941,-95.6192 523.472,-98.1387"/>
</g>
<!-- Node15 -->
<g id="node15" class="node"><title>Node15</title>
<g id="a_node15"><a xlink:href="../../dc/ded/Properties_8hpp.html" target="_top" xlink:title="Core/Properties.hpp">
<polygon fill="white" stroke="red" points="387,-124.5 387,-143.5 491,-143.5 491,-124.5 387,-124.5"/>
<text text-anchor="middle" x="439" y="-131.5" font-family="Helvetica,sans-Serif" font-size="10.00">Core/Properties.hpp</text>
</a>
</g>
</g>
<!-- Node11&#45;&gt;Node15 -->
<g id="edge30" class="edge"><title>Node11&#45;&gt;Node15</title>
<path fill="none" stroke="midnightblue" d="M469.055,-180.083C464.023,-172.534 456.663,-161.495 450.487,-152.23"/>
<polygon fill="midnightblue" stroke="midnightblue" points="453.293,-150.13 444.834,-143.751 447.469,-154.013 453.293,-150.13"/>
</g>
<!-- Node12&#45;&gt;Node4 -->
<g id="edge22" class="edge"><title>Node12&#45;&gt;Node4</title>
<path fill="none" stroke="midnightblue" d="M146.547,-68.4035C137.434,-59.1361 122.73,-44.1828 111.524,-32.7876"/>
<polygon fill="midnightblue" stroke="midnightblue" points="113.945,-30.2569 104.438,-25.5806 108.953,-35.1649 113.945,-30.2569"/>
</g>
<!-- Node12&#45;&gt;Node5 -->
<g id="edge23" class="edge"><title>Node12&#45;&gt;Node5</title>
<path fill="none" stroke="midnightblue" d="M136.517,-68.4035C114.868,-58.3341 78.7872,-41.5522 53.7675,-29.9151"/>
<polygon fill="midnightblue" stroke="midnightblue" points="54.9916,-26.6244 44.4483,-25.5806 52.0394,-32.9715 54.9916,-26.6244"/>
</g>
<!-- Node12&#45;&gt;Node7 -->
<g id="edge21" class="edge"><title>Node12&#45;&gt;Node7</title>
<path fill="none" stroke="midnightblue" d="M171.62,-68.4035C190.915,-58.4232 222.959,-41.8487 245.431,-30.2253"/>
<polygon fill="midnightblue" stroke="midnightblue" points="247.137,-33.2836 254.411,-25.5806 243.921,-27.0661 247.137,-33.2836"/>
</g>
<!-- Node12&#45;&gt;Node10 -->
<g id="edge24" class="edge"><title>Node12&#45;&gt;Node10</title>
<path fill="none" stroke="midnightblue" d="M201.93,-68.4672C260.372,-57.8414 360.314,-39.6702 424.467,-28.0061"/>
<polygon fill="midnightblue" stroke="midnightblue" points="425.231,-31.4246 434.444,-26.1921 423.979,-24.5375 425.231,-31.4246"/>
</g>
<!-- Node13&#45;&gt;Node2 -->
<g id="edge28" class="edge"><title>Node13&#45;&gt;Node2</title>
<path fill="none" stroke="midnightblue" d="M548.635,-68.4035C574.424,-58.1559 617.711,-40.9561 647.04,-29.3021"/>
<polygon fill="midnightblue" stroke="midnightblue" points="648.405,-32.526 656.406,-25.5806 645.82,-26.0207 648.405,-32.526"/>
</g>
<!-- Node13&#45;&gt;Node4 -->
<g id="edge26" class="edge"><title>Node13&#45;&gt;Node4</title>
<path fill="none" stroke="midnightblue" d="M487.225,-71.4629C402.039,-59.6041 203.501,-31.9654 126.908,-21.3027"/>
<polygon fill="midnightblue" stroke="midnightblue" points="127.321,-17.8265 116.934,-19.9142 126.356,-24.7597 127.321,-17.8265"/>
</g>
<!-- Node13&#45;&gt;Node7 -->
<g id="edge29" class="edge"><title>Node13&#45;&gt;Node7</title>
<path fill="none" stroke="midnightblue" d="M490.593,-68.4672C442.137,-57.1101 356.903,-37.1335 308.099,-25.695"/>
<polygon fill="midnightblue" stroke="midnightblue" points="308.799,-22.2643 298.264,-23.39 307.201,-29.0796 308.799,-22.2643"/>
</g>
<!-- Node14 -->
<g id="node14" class="node"><title>Node14</title>
<polygon fill="white" stroke="#bfbfbf" points="780.5,-6.5 780.5,-25.5 815.5,-25.5 815.5,-6.5 780.5,-6.5"/>
<text text-anchor="middle" x="798" y="-13.5" font-family="Helvetica,sans-Serif" font-size="10.00">map</text>
</g>
<!-- Node13&#45;&gt;Node14 -->
<g id="edge27" class="edge"><title>Node13&#45;&gt;Node14</title>
<path fill="none" stroke="midnightblue" d="M565.54,-68.4672C620.949,-56.1995 721.783,-33.8745 770.371,-23.1171"/>
<polygon fill="midnightblue" stroke="midnightblue" points="771.177,-26.5235 780.184,-20.9445 769.664,-19.689 771.177,-26.5235"/>
</g>
<!-- Node15&#45;&gt;Node2 -->
<g id="edge31" class="edge"><title>Node15&#45;&gt;Node2</title>
<path fill="none" stroke="midnightblue" d="M441.749,-124.357C446.675,-110.308 458.367,-82.6186 478,-68 528.342,-30.516 603.423,-20.4505 645.822,-17.8314"/>
<polygon fill="midnightblue" stroke="midnightblue" points="646.057,-21.3241 655.863,-17.3138 645.696,-14.3334 646.057,-21.3241"/>
</g>
<!-- Node15&#45;&gt;Node10 -->
<g id="edge32" class="edge"><title>Node15&#45;&gt;Node10</title>
<path fill="none" stroke="midnightblue" d="M438.279,-124.227C437.557,-111.389 437.461,-86.9545 445,-68 449.223,-57.3824 456.39,-47.1635 463.5,-38.6977"/>
<polygon fill="midnightblue" stroke="midnightblue" points="466.172,-40.9605 470.202,-31.1623 460.941,-36.3084 466.172,-40.9605"/>
</g>
<!-- Node15&#45;&gt;Node12 -->
<g id="edge33" class="edge"><title>Node15&#45;&gt;Node12</title>
<path fill="none" stroke="midnightblue" d="M393.999,-124.444C344.041,-114.944 263.399,-99.611 209.801,-89.4198"/>
<polygon fill="midnightblue" stroke="midnightblue" points="210.268,-85.9461 199.79,-87.5164 208.96,-92.8228 210.268,-85.9461"/>
</g>
<!-- Node15&#45;&gt;Node13 -->
<g id="edge34" class="edge"><title>Node15&#45;&gt;Node13</title>
<path fill="none" stroke="midnightblue" d="M453.139,-124.324C466.866,-115.9 487.936,-102.971 504.064,-93.0741"/>
<polygon fill="midnightblue" stroke="midnightblue" points="506.204,-95.8678 512.896,-87.6545 502.543,-89.9016 506.204,-95.8678"/>
</g>
<!-- Node16&#45;&gt;Node2 -->
<g id="edge39" class="edge"><title>Node16&#45;&gt;Node2</title>
<path fill="none" stroke="midnightblue" d="M883.011,-68.4672C836.86,-56.8813 754.977,-36.3248 709.923,-25.014"/>
<polygon fill="midnightblue" stroke="midnightblue" points="710.65,-21.5881 700.099,-22.5478 708.945,-28.3774 710.65,-21.5881"/>
</g>
<!-- Node16&#45;&gt;Node14 -->
<g id="edge40" class="edge"><title>Node16&#45;&gt;Node14</title>
<path fill="none" stroke="midnightblue" d="M899.95,-68.4035C880.156,-58.4232 847.283,-41.8487 824.23,-30.2253"/>
<polygon fill="midnightblue" stroke="midnightblue" points="825.523,-26.9575 815.018,-25.5806 822.372,-33.208 825.523,-26.9575"/>
</g>
<!-- Node17 -->
<g id="node17" class="node"><title>Node17</title>
<polygon fill="white" stroke="#bfbfbf" points="862.5,-6.5 862.5,-25.5 907.5,-25.5 907.5,-6.5 862.5,-6.5"/>
<text text-anchor="middle" x="885" y="-13.5" font-family="Helvetica,sans-Serif" font-size="10.00">cstdlib</text>
</g>
<!-- Node16&#45;&gt;Node17 -->
<g id="edge37" class="edge"><title>Node16&#45;&gt;Node17</title>
<path fill="none" stroke="midnightblue" d="M912.415,-68.4035C907.71,-59.5816 900.257,-45.6075 894.309,-34.4548"/>
<polygon fill="midnightblue" stroke="midnightblue" points="897.37,-32.7571 889.576,-25.5806 891.194,-36.0512 897.37,-32.7571"/>
</g>
<!-- Node18 -->
<g id="node18" class="node"><title>Node18</title>
<polygon fill="white" stroke="#bfbfbf" points="925.5,-6.5 925.5,-25.5 972.5,-25.5 972.5,-6.5 925.5,-6.5"/>
<text text-anchor="middle" x="949" y="-13.5" font-family="Helvetica,sans-Serif" font-size="10.00">math.h</text>
</g>
<!-- Node16&#45;&gt;Node18 -->
<g id="edge38" class="edge"><title>Node16&#45;&gt;Node18</title>
<path fill="none" stroke="midnightblue" d="M921.585,-68.4035C926.29,-59.5816 933.743,-45.6075 939.691,-34.4548"/>
<polygon fill="midnightblue" stroke="midnightblue" points="942.806,-36.0512 944.424,-25.5806 936.63,-32.7571 942.806,-36.0512"/>
</g>
</g>
</svg>
