<?xml version="1.0" encoding="UTF-8" standalone="no"?>
<!DOCTYPE svg PUBLIC "-//W3C//DTD SVG 1.1//EN"
 "http://www.w3.org/Graphics/SVG/1.1/DTD/svg11.dtd">
<!-- Generated by graphviz version 2.26.3 (20100126.1600)
 -->
<!-- Title: G Pages: 1 -->
<svg width="228pt" height="264pt"
 viewBox="0.00 0.00 228.00 264.00" xmlns="http://www.w3.org/2000/svg" xmlns:xlink="http://www.w3.org/1999/xlink">
<g id="graph1" class="graph" transform="scale(1 1) rotate(0) translate(4 260)">
<title>G</title>
<polygon fill="white" stroke="white" points="-4,5 -4,-260 225,-260 225,5 -4,5"/>
<!-- Node1 -->
<g id="node1" class="node"><title>Node1</title>
<polygon fill="#bfbfbf" stroke="black" points="66.5,-0.5 66.5,-141.5 143.5,-141.5 143.5,-0.5 66.5,-0.5"/>
<text text-anchor="middle" x="105" y="-128.5" font-family="Helvetica,sans-Serif" font-size="10.00">RootGen</text>
<polyline fill="none" stroke="black" points="66.5,-120.5 143.5,-120.5 "/>
<text text-anchor="start" x="74.5" y="-107.5" font-family="Helvetica,sans-Serif" font-size="10.00">&#45; initialM_</text>
<text text-anchor="start" x="74.5" y="-94.5" font-family="Helvetica,sans-Serif" font-size="10.00">&#45; initialBr_</text>
<text text-anchor="start" x="74.5" y="-81.5" font-family="Helvetica,sans-Serif" font-size="10.00">&#45; finalM_</text>
<text text-anchor="start" x="74.5" y="-68.5" font-family="Helvetica,sans-Serif" font-size="10.00">&#45; pids_</text>
<polyline fill="none" stroke="black" points="66.5,-60.5 143.5,-60.5 "/>
<text text-anchor="start" x="74.5" y="-47.5" font-family="Helvetica,sans-Serif" font-size="10.00">+ RootGen()</text>
<text text-anchor="start" x="74.5" y="-34.5" font-family="Helvetica,sans-Serif" font-size="10.00">+ ~RootGen()</text>
<text text-anchor="start" x="74.5" y="-21.5" font-family="Helvetica,sans-Serif" font-size="10.00">+ generate()</text>
<text text-anchor="start" x="74.5" y="-8.5" font-family="Helvetica,sans-Serif" font-size="10.00">+ setBr()</text>
</g>
<!-- Node2 -->
<g id="node2" class="node"><title>Node2</title>
<polygon fill="white" stroke="#bfbfbf" points="0,-192.5 0,-255.5 92,-255.5 92,-192.5 0,-192.5"/>
<text text-anchor="middle" x="46" y="-242.5" font-family="Helvetica,sans-Serif" font-size="10.00">std::vector&lt; int &gt;</text>
<polyline fill="none" stroke="#bfbfbf" points="0,-234.5 92,-234.5 "/>
<text text-anchor="start" x="8" y="-221.5" font-family="Helvetica,sans-Serif" font-size="10.00">&#45; elements</text>
<polyline fill="none" stroke="#bfbfbf" points="0,-213.5 92,-213.5 "/>
<text text-anchor="middle" x="46" y="-200.5" font-family="Helvetica,sans-Serif" font-size="10.00"> </text>
</g>
<!-- Node2&#45;&gt;Node1 -->
<g id="edge2" class="edge"><title>Node2&#45;&gt;Node1</title>
<path fill="none" stroke="#9a32cd" stroke-dasharray="5,2" d="M61.8307,-182.948C66.7266,-170.251 72.2673,-155.883 77.7074,-141.776"/>
<polygon fill="#9a32cd" stroke="#9a32cd" points="58.2248,-192.298 57.6242,-181.349 60.0239,-187.633 61.8229,-182.968 61.8229,-182.968 61.8229,-182.968 60.0239,-187.633 66.0215,-184.587 58.2248,-192.298 58.2248,-192.298"/>
<text text-anchor="middle" x="83" y="-164.5" font-family="Helvetica,sans-Serif" font-size="10.00">pids_</text>
</g>
<!-- Node3 -->
<g id="node4" class="node"><title>Node3</title>
<polygon fill="white" stroke="#bfbfbf" points="110,-192.5 110,-255.5 220,-255.5 220,-192.5 110,-192.5"/>
<text text-anchor="middle" x="165" y="-242.5" font-family="Helvetica,sans-Serif" font-size="10.00">std::vector&lt; double &gt;</text>
<polyline fill="none" stroke="#bfbfbf" points="110,-234.5 220,-234.5 "/>
<text text-anchor="start" x="118" y="-221.5" font-family="Helvetica,sans-Serif" font-size="10.00">&#45; elements</text>
<polyline fill="none" stroke="#bfbfbf" points="110,-213.5 220,-213.5 "/>
<text text-anchor="middle" x="165" y="-200.5" font-family="Helvetica,sans-Serif" font-size="10.00"> </text>
</g>
<!-- Node3&#45;&gt;Node1 -->
<g id="edge4" class="edge"><title>Node3&#45;&gt;Node1</title>
<path fill="none" stroke="#9a32cd" stroke-dasharray="5,2" d="M148.901,-182.948C143.922,-170.251 138.287,-155.883 132.755,-141.776"/>
<polygon fill="#9a32cd" stroke="#9a32cd" points="152.568,-192.298 144.728,-184.631 150.742,-187.643 148.917,-182.989 148.917,-182.989 148.917,-182.989 150.742,-187.643 153.106,-181.346 152.568,-192.298 152.568,-192.298"/>
<text text-anchor="middle" x="159" y="-164.5" font-family="Helvetica,sans-Serif" font-size="10.00">finalM_</text>
</g>
</g>
</svg>
