<?xml version="1.0" encoding="UTF-8" standalone="no"?>
<!DOCTYPE svg PUBLIC "-//W3C//DTD SVG 1.1//EN"
 "http://www.w3.org/Graphics/SVG/1.1/DTD/svg11.dtd">
<!-- Generated by graphviz version 2.36.0 (20140111.2315)
 -->
<!-- Title: /home/travis/build/ComPWA/ComPWA/DataReader/RootReader/DataTest.cpp Pages: 1 -->
<svg width="1354pt" height="454pt"
 viewBox="0.00 0.00 1354.31 454.00" xmlns="http://www.w3.org/2000/svg" xmlns:xlink="http://www.w3.org/1999/xlink">
<g id="graph0" class="graph" transform="scale(1 1) rotate(0) translate(4 450)">
<title>/home/travis/build/ComPWA/ComPWA/DataReader/RootReader/DataTest.cpp</title>
<polygon fill="white" stroke="none" points="-4,4 -4,-450 1350.31,-450 1350.31,4 -4,4"/>
<!-- Node1 -->
<g id="node1" class="node"><title>Node1</title>
<polygon fill="#bfbfbf" stroke="black" points="139.5,-404.5 139.5,-445.5 306.5,-445.5 306.5,-404.5 139.5,-404.5"/>
<text text-anchor="start" x="147.5" y="-433.5" font-family="Helvetica,sans-Serif" font-size="10.00">/home/travis/build</text>
<text text-anchor="start" x="147.5" y="-422.5" font-family="Helvetica,sans-Serif" font-size="10.00">/ComPWA/ComPWA/DataReader</text>
<text text-anchor="middle" x="223" y="-411.5" font-family="Helvetica,sans-Serif" font-size="10.00">/RootReader/DataTest.cpp</text>
</g>
<!-- Node2 -->
<g id="node2" class="node"><title>Node2</title>
<polygon fill="white" stroke="#bfbfbf" points="-0.5,-342.5 -0.5,-361.5 118.5,-361.5 118.5,-342.5 -0.5,-342.5"/>
<text text-anchor="middle" x="59" y="-349.5" font-family="Helvetica,sans-Serif" font-size="10.00">boost/test/unit_test.hpp</text>
</g>
<!-- Node1&#45;&gt;Node2 -->
<g id="edge1" class="edge"><title>Node1&#45;&gt;Node2</title>
<path fill="none" stroke="midnightblue" d="M177.752,-404.411C149.127,-392.018 112.967,-376.364 88.1134,-365.604"/>
<polygon fill="midnightblue" stroke="midnightblue" points="89.425,-362.358 78.8575,-361.597 86.6439,-368.782 89.425,-362.358"/>
</g>
<!-- Node3 -->
<g id="node3" class="node"><title>Node3</title>
<g id="a_node3"><a xlink:href="../../df/d53/RootReader_8hpp.html" target="_top" xlink:title="This class reads event&#45;based data from root&#45;files. ">
<polygon fill="white" stroke="black" points="430.5,-337 430.5,-367 555.5,-367 555.5,-337 430.5,-337"/>
<text text-anchor="start" x="438.5" y="-355" font-family="Helvetica,sans-Serif" font-size="10.00">DataReader/RootReader</text>
<text text-anchor="middle" x="493" y="-344" font-family="Helvetica,sans-Serif" font-size="10.00">/RootReader.hpp</text>
</a>
</g>
</g>
<!-- Node1&#45;&gt;Node3 -->
<g id="edge2" class="edge"><title>Node1&#45;&gt;Node3</title>
<path fill="none" stroke="midnightblue" d="M297.493,-404.411C339.079,-393.475 390.324,-380 429.914,-369.589"/>
<polygon fill="midnightblue" stroke="midnightblue" points="430.935,-372.94 439.716,-367.012 429.155,-366.17 430.935,-372.94"/>
</g>
<!-- Node4 -->
<g id="node4" class="node"><title>Node4</title>
<polygon fill="white" stroke="#bfbfbf" points="483,-0.5 483,-19.5 527,-19.5 527,-0.5 483,-0.5"/>
<text text-anchor="middle" x="505" y="-7.5" font-family="Helvetica,sans-Serif" font-size="10.00">vector</text>
</g>
<!-- Node1&#45;&gt;Node4 -->
<g id="edge50" class="edge"><title>Node1&#45;&gt;Node4</title>
<path fill="none" stroke="midnightblue" d="M203.032,-404.362C180.514,-380.026 147,-336.21 147,-291 147,-291 147,-291 147,-121 147,-74.8419 185.828,-74.7644 228,-56 310.664,-19.2188 419.161,-12.1206 472.512,-10.9957"/>
<polygon fill="midnightblue" stroke="midnightblue" points="472.781,-14.4922 482.727,-10.8406 472.675,-7.49297 472.781,-14.4922"/>
</g>
<!-- Node6 -->
<g id="node6" class="node"><title>Node6</title>
<polygon fill="white" stroke="#bfbfbf" points="1286,-168.5 1286,-187.5 1338,-187.5 1338,-168.5 1286,-168.5"/>
<text text-anchor="middle" x="1312" y="-175.5" font-family="Helvetica,sans-Serif" font-size="10.00">memory</text>
</g>
<!-- Node1&#45;&gt;Node6 -->
<g id="edge49" class="edge"><title>Node1&#45;&gt;Node6</title>
<path fill="none" stroke="midnightblue" d="M306.848,-418.244C519.016,-402.981 1072.7,-358.594 1247,-300 1293.82,-284.261 1318.4,-286.833 1343,-244 1352.28,-227.84 1340.24,-208.461 1328.57,-195.091"/>
<polygon fill="midnightblue" stroke="midnightblue" points="1330.94,-192.506 1321.54,-187.625 1325.85,-197.305 1330.94,-192.506"/>
</g>
<!-- Node7 -->
<g id="node7" class="node"><title>Node7</title>
<polygon fill="white" stroke="#bfbfbf" points="696.5,-56.5 696.5,-75.5 737.5,-75.5 737.5,-56.5 696.5,-56.5"/>
<text text-anchor="middle" x="717" y="-63.5" font-family="Helvetica,sans-Serif" font-size="10.00">string</text>
</g>
<!-- Node1&#45;&gt;Node7 -->
<g id="edge51" class="edge"><title>Node1&#45;&gt;Node7</title>
<path fill="none" stroke="midnightblue" d="M222.081,-404.395C221.494,-375.744 223.284,-321.352 242,-280 285.93,-182.937 314.896,-153.554 413,-112 461.964,-91.2598 618.993,-75.5349 686.108,-69.5897"/>
<polygon fill="midnightblue" stroke="midnightblue" points="686.42,-73.0759 696.078,-68.7203 685.811,-66.1024 686.42,-73.0759"/>
</g>
<!-- Node3&#45;&gt;Node4 -->
<g id="edge3" class="edge"><title>Node3&#45;&gt;Node4</title>
<path fill="none" stroke="midnightblue" d="M430.274,-349.303C376.97,-345.382 300.08,-333.693 242,-300 208.764,-280.72 185,-273.423 185,-235 185,-235 185,-235 185,-121 185,-60.6316 391.247,-26.2958 472.582,-15.1024"/>
<polygon fill="midnightblue" stroke="midnightblue" points="473.308,-18.5363 482.752,-13.7344 472.375,-11.5988 473.308,-18.5363"/>
</g>
<!-- Node5 -->
<g id="node5" class="node"><title>Node5</title>
<polygon fill="white" stroke="#bfbfbf" points="696.5,-168.5 696.5,-187.5 731.5,-187.5 731.5,-168.5 696.5,-168.5"/>
<text text-anchor="middle" x="714" y="-175.5" font-family="Helvetica,sans-Serif" font-size="10.00">map</text>
</g>
<!-- Node3&#45;&gt;Node5 -->
<g id="edge4" class="edge"><title>Node3&#45;&gt;Node5</title>
<path fill="none" stroke="midnightblue" d="M555.549,-337.906C576.926,-330.329 598.96,-318.473 613,-300 633.615,-272.876 603.172,-251.704 623,-224 630.988,-212.839 662.94,-198.602 686.74,-189.163"/>
<polygon fill="midnightblue" stroke="midnightblue" points="688.29,-192.315 696.347,-185.434 685.758,-185.79 688.29,-192.315"/>
</g>
<!-- Node3&#45;&gt;Node6 -->
<g id="edge5" class="edge"><title>Node3&#45;&gt;Node6</title>
<path fill="none" stroke="midnightblue" d="M555.526,-348.675C701.627,-342.868 1061.95,-326.28 1180,-300 1248.24,-284.808 1287.33,-301.567 1327,-244 1336.62,-230.034 1330.33,-210.774 1323.18,-196.849"/>
<polygon fill="midnightblue" stroke="midnightblue" points="1326.02,-194.766 1318.03,-187.803 1319.93,-198.226 1326.02,-194.766"/>
</g>
<!-- Node3&#45;&gt;Node7 -->
<g id="edge6" class="edge"><title>Node3&#45;&gt;Node7</title>
<path fill="none" stroke="midnightblue" d="M430.33,-339.936C406.843,-332.564 382.192,-320.317 367,-300 331.747,-252.853 320.42,-214.901 356,-168 396.572,-114.519 606.184,-81.6445 686.048,-70.8953"/>
<polygon fill="midnightblue" stroke="midnightblue" points="686.969,-74.3042 696.425,-69.5256 686.053,-67.3644 686.969,-74.3042"/>
</g>
<!-- Node8 -->
<g id="node8" class="node"><title>Node8</title>
<polygon fill="white" stroke="#bfbfbf" points="251,-280.5 251,-299.5 291,-299.5 291,-280.5 251,-280.5"/>
<text text-anchor="middle" x="271" y="-287.5" font-family="Helvetica,sans-Serif" font-size="10.00">utility</text>
</g>
<!-- Node3&#45;&gt;Node8 -->
<g id="edge7" class="edge"><title>Node3&#45;&gt;Node8</title>
<path fill="none" stroke="midnightblue" d="M440.951,-336.933C397.443,-325.174 336.913,-308.814 301.062,-299.125"/>
<polygon fill="midnightblue" stroke="midnightblue" points="301.774,-295.692 291.207,-296.461 299.948,-302.449 301.774,-295.692"/>
</g>
<!-- Node9 -->
<g id="node9" class="node"><title>Node9</title>
<g id="a_node9"><a xlink:href="../../df/d7d/Event_8hpp.html" target="_top" xlink:title="This class provides a internal container for event&#45;based information. ">
<polygon fill="white" stroke="black" points="899.5,-112.5 899.5,-131.5 984.5,-131.5 984.5,-112.5 899.5,-112.5"/>
<text text-anchor="middle" x="942" y="-119.5" font-family="Helvetica,sans-Serif" font-size="10.00">Core/Event.hpp</text>
</a>
</g>
</g>
<!-- Node3&#45;&gt;Node9 -->
<g id="edge8" class="edge"><title>Node3&#45;&gt;Node9</title>
<path fill="none" stroke="midnightblue" d="M555.577,-349.52C692.609,-344.784 1012.03,-325.095 1075,-244 1110.36,-198.463 1025.48,-155.653 975.443,-135.336"/>
<polygon fill="midnightblue" stroke="midnightblue" points="976.533,-132.004 965.947,-131.579 973.957,-138.513 976.533,-132.004"/>
</g>
<!-- Node12 -->
<g id="node12" class="node"><title>Node12</title>
<g id="a_node12"><a xlink:href="../../d8/dd4/DataPoint_8hpp.html" target="_top" xlink:title="dataPoint stores kinematic information of a dalitz plot ">
<polygon fill="white" stroke="black" points="452.5,-224.5 452.5,-243.5 555.5,-243.5 555.5,-224.5 452.5,-224.5"/>
<text text-anchor="middle" x="504" y="-231.5" font-family="Helvetica,sans-Serif" font-size="10.00">Core/DataPoint.hpp</text>
</a>
</g>
</g>
<!-- Node3&#45;&gt;Node12 -->
<g id="edge15" class="edge"><title>Node3&#45;&gt;Node12</title>
<path fill="none" stroke="midnightblue" d="M430.458,-337.075C393.303,-325.699 356.84,-307.046 376,-280 391.267,-258.45 417.712,-247.145 442.617,-241.244"/>
<polygon fill="midnightblue" stroke="midnightblue" points="443.365,-244.663 452.423,-239.169 441.915,-237.815 443.365,-244.663"/>
</g>
<!-- Node17 -->
<g id="node17" class="node"><title>Node17</title>
<g id="a_node17"><a xlink:href="../../d2/d4b/Data_8hpp.html" target="_top" xlink:title="This class provides the interface to experimental data. ">
<polygon fill="white" stroke="black" points="736,-280.5 736,-299.5 848,-299.5 848,-280.5 736,-280.5"/>
<text text-anchor="middle" x="792" y="-287.5" font-family="Helvetica,sans-Serif" font-size="10.00">DataReader/Data.hpp</text>
</a>
</g>
</g>
<!-- Node3&#45;&gt;Node17 -->
<g id="edge28" class="edge"><title>Node3&#45;&gt;Node17</title>
<path fill="none" stroke="midnightblue" d="M555.68,-338.422C610.264,-327.469 688.477,-311.774 739.743,-301.486"/>
<polygon fill="midnightblue" stroke="midnightblue" points="740.506,-304.903 749.622,-299.504 739.129,-298.04 740.506,-304.903"/>
</g>
<!-- Node21 -->
<g id="node21" class="node"><title>Node21</title>
<g id="a_node21"><a xlink:href="../../d2/dee/DataCorrection_8hpp.html" target="_top" xlink:title="DataReader/DataCorrection.hpp">
<polygon fill="white" stroke="red" points="1161.5,-224.5 1161.5,-243.5 1318.5,-243.5 1318.5,-224.5 1161.5,-224.5"/>
<text text-anchor="middle" x="1240" y="-231.5" font-family="Helvetica,sans-Serif" font-size="10.00">DataReader/DataCorrection.hpp</text>
</a>
</g>
</g>
<!-- Node3&#45;&gt;Node21 -->
<g id="edge45" class="edge"><title>Node3&#45;&gt;Node21</title>
<path fill="none" stroke="midnightblue" d="M555.67,-350.293C697.528,-348.022 1039.25,-338.592 1147,-300 1176.96,-289.269 1206.15,-266.194 1223.6,-250.629"/>
<polygon fill="midnightblue" stroke="midnightblue" points="1226.18,-253.018 1231.18,-243.679 1221.44,-247.859 1226.18,-253.018"/>
</g>
<!-- Node22 -->
<g id="node22" class="node"><title>Node22</title>
<polygon fill="white" stroke="#bfbfbf" points="385.5,-280.5 385.5,-299.5 432.5,-299.5 432.5,-280.5 385.5,-280.5"/>
<text text-anchor="middle" x="409" y="-287.5" font-family="Helvetica,sans-Serif" font-size="10.00">TFile.h</text>
</g>
<!-- Node3&#45;&gt;Node22 -->
<g id="edge46" class="edge"><title>Node3&#45;&gt;Node22</title>
<path fill="none" stroke="midnightblue" d="M473.093,-336.781C460.006,-327.433 442.918,-315.227 429.678,-305.77"/>
<polygon fill="midnightblue" stroke="midnightblue" points="431.394,-302.695 421.223,-299.731 427.326,-308.391 431.394,-302.695"/>
</g>
<!-- Node23 -->
<g id="node23" class="node"><title>Node23</title>
<polygon fill="white" stroke="#bfbfbf" points="450.5,-280.5 450.5,-299.5 535.5,-299.5 535.5,-280.5 450.5,-280.5"/>
<text text-anchor="middle" x="493" y="-287.5" font-family="Helvetica,sans-Serif" font-size="10.00">TClonesArray.h</text>
</g>
<!-- Node3&#45;&gt;Node23 -->
<g id="edge47" class="edge"><title>Node3&#45;&gt;Node23</title>
<path fill="none" stroke="midnightblue" d="M493,-336.781C493,-328.781 493,-318.689 493,-310.017"/>
<polygon fill="midnightblue" stroke="midnightblue" points="496.5,-309.73 493,-299.731 489.5,-309.731 496.5,-309.73"/>
</g>
<!-- Node24 -->
<g id="node24" class="node"><title>Node24</title>
<polygon fill="white" stroke="#bfbfbf" points="554,-280.5 554,-299.5 604,-299.5 604,-280.5 554,-280.5"/>
<text text-anchor="middle" x="579" y="-287.5" font-family="Helvetica,sans-Serif" font-size="10.00">TTree.h</text>
</g>
<!-- Node3&#45;&gt;Node24 -->
<g id="edge48" class="edge"><title>Node3&#45;&gt;Node24</title>
<path fill="none" stroke="midnightblue" d="M513.381,-336.781C526.99,-327.286 544.824,-314.843 558.465,-305.327"/>
<polygon fill="midnightblue" stroke="midnightblue" points="560.538,-308.148 566.737,-299.556 556.533,-302.407 560.538,-308.148"/>
</g>
<!-- Node9&#45;&gt;Node4 -->
<g id="edge9" class="edge"><title>Node9&#45;&gt;Node4</title>
<path fill="none" stroke="midnightblue" d="M932.623,-112.29C916.505,-97.882 881.903,-69.3546 847,-56 739.097,-14.7137 599.605,-10.0977 537.41,-10.3298"/>
<polygon fill="midnightblue" stroke="midnightblue" points="537.037,-6.83277 527.066,-10.4172 537.096,-13.8325 537.037,-6.83277"/>
</g>
<!-- Node9&#45;&gt;Node7 -->
<g id="edge10" class="edge"><title>Node9&#45;&gt;Node7</title>
<path fill="none" stroke="midnightblue" d="M906.348,-112.444C862.483,-101.916 788.758,-84.222 747.434,-74.3042"/>
<polygon fill="midnightblue" stroke="midnightblue" points="748.205,-70.8898 737.664,-71.9593 746.571,-77.6965 748.205,-70.8898"/>
</g>
<!-- Node10 -->
<g id="node10" class="node"><title>Node10</title>
<polygon fill="white" stroke="#bfbfbf" points="955,-0.5 955,-19.5 1009,-19.5 1009,-0.5 955,-0.5"/>
<text text-anchor="middle" x="982" y="-7.5" font-family="Helvetica,sans-Serif" font-size="10.00">iostream</text>
</g>
<!-- Node9&#45;&gt;Node10 -->
<g id="edge11" class="edge"><title>Node9&#45;&gt;Node10</title>
<path fill="none" stroke="midnightblue" d="M960.389,-112.471C974.101,-104.997 991.815,-92.7104 1000,-76 1007.46,-60.7687 1000.72,-41.9649 993.454,-28.5071"/>
<polygon fill="midnightblue" stroke="midnightblue" points="996.385,-26.5897 988.269,-19.7801 990.367,-30.165 996.385,-26.5897"/>
</g>
<!-- Node11 -->
<g id="node11" class="node"><title>Node11</title>
<g id="a_node11"><a xlink:href="../../d3/d65/Particle_8hpp.html" target="_top" xlink:title="This class provides a internal container for information of a particle. ">
<polygon fill="white" stroke="red" points="899,-56.5 899,-75.5 991,-75.5 991,-56.5 899,-56.5"/>
<text text-anchor="middle" x="945" y="-63.5" font-family="Helvetica,sans-Serif" font-size="10.00">Core/Particle.hpp</text>
</a>
</g>
</g>
<!-- Node9&#45;&gt;Node11 -->
<g id="edge12" class="edge"><title>Node9&#45;&gt;Node11</title>
<path fill="none" stroke="midnightblue" d="M942.495,-112.083C942.889,-105.006 943.452,-94.8611 943.945,-85.9865"/>
<polygon fill="midnightblue" stroke="midnightblue" points="947.454,-85.9299 944.514,-75.7511 940.464,-85.5415 947.454,-85.9299"/>
</g>
<!-- Node11&#45;&gt;Node4 -->
<g id="edge13" class="edge"><title>Node11&#45;&gt;Node4</title>
<path fill="none" stroke="midnightblue" d="M898.833,-57.9274C894.163,-57.2562 889.489,-56.6023 885,-56 756.516,-38.7603 603.115,-21.6563 537.437,-14.4979"/>
<polygon fill="midnightblue" stroke="midnightblue" points="537.622,-10.9975 527.303,-13.3965 536.866,-17.9566 537.622,-10.9975"/>
</g>
<!-- Node11&#45;&gt;Node10 -->
<g id="edge14" class="edge"><title>Node11&#45;&gt;Node10</title>
<path fill="none" stroke="midnightblue" d="M951.11,-56.083C956.282,-48.5341 963.846,-37.4948 970.194,-28.2298"/>
<polygon fill="midnightblue" stroke="midnightblue" points="973.239,-29.9787 976.004,-19.7511 967.464,-26.0221 973.239,-29.9787"/>
</g>
<!-- Node12&#45;&gt;Node4 -->
<g id="edge18" class="edge"><title>Node12&#45;&gt;Node4</title>
<path fill="none" stroke="midnightblue" d="M452.357,-232.07C419.052,-228.447 377.988,-217.667 356,-188 308.618,-124.07 423.797,-53.0892 478.315,-24.2541"/>
<polygon fill="midnightblue" stroke="midnightblue" points="480.165,-27.2375 487.431,-19.5267 476.943,-21.0234 480.165,-27.2375"/>
</g>
<!-- Node12&#45;&gt;Node5 -->
<g id="edge19" class="edge"><title>Node12&#45;&gt;Node5</title>
<path fill="none" stroke="midnightblue" d="M538.861,-224.477C574.798,-215.623 632.418,-201.237 682,-188 683.464,-187.609 684.964,-187.204 686.477,-186.791"/>
<polygon fill="midnightblue" stroke="midnightblue" points="687.716,-190.08 696.418,-184.036 685.846,-183.334 687.716,-190.08"/>
</g>
<!-- Node12&#45;&gt;Node9 -->
<g id="edge27" class="edge"><title>Node12&#45;&gt;Node9</title>
<path fill="none" stroke="midnightblue" d="M537.728,-224.424C567.517,-216.407 611.864,-203.382 649,-188 666.632,-180.696 668.942,-174.177 687,-168 754.791,-144.812 837.007,-133.055 889.413,-127.483"/>
<polygon fill="midnightblue" stroke="midnightblue" points="889.893,-130.952 899.483,-126.449 889.178,-123.989 889.893,-130.952"/>
</g>
<!-- Node13 -->
<g id="node13" class="node"><title>Node13</title>
<polygon fill="white" stroke="#bfbfbf" points="365.5,-168.5 365.5,-187.5 410.5,-187.5 410.5,-168.5 365.5,-168.5"/>
<text text-anchor="middle" x="388" y="-175.5" font-family="Helvetica,sans-Serif" font-size="10.00">cstdlib</text>
</g>
<!-- Node12&#45;&gt;Node13 -->
<g id="edge16" class="edge"><title>Node12&#45;&gt;Node13</title>
<path fill="none" stroke="midnightblue" d="M485.619,-224.444C466.784,-215.675 437.269,-201.935 415.621,-191.858"/>
<polygon fill="midnightblue" stroke="midnightblue" points="416.838,-188.564 406.295,-187.516 413.883,-194.91 416.838,-188.564"/>
</g>
<!-- Node14 -->
<g id="node14" class="node"><title>Node14</title>
<polygon fill="white" stroke="#bfbfbf" points="428.5,-168.5 428.5,-187.5 475.5,-187.5 475.5,-168.5 428.5,-168.5"/>
<text text-anchor="middle" x="452" y="-175.5" font-family="Helvetica,sans-Serif" font-size="10.00">math.h</text>
</g>
<!-- Node12&#45;&gt;Node14 -->
<g id="edge17" class="edge"><title>Node12&#45;&gt;Node14</title>
<path fill="none" stroke="midnightblue" d="M495.413,-224.083C487.841,-216.22 476.622,-204.569 467.486,-195.081"/>
<polygon fill="midnightblue" stroke="midnightblue" points="469.885,-192.527 460.427,-187.751 464.842,-197.382 469.885,-192.527"/>
</g>
<!-- Node15 -->
<g id="node15" class="node"><title>Node15</title>
<g id="a_node15"><a xlink:href="../../d4/d37/Kinematics_8hpp.html" target="_top" xlink:title="Core/Kinematics.hpp">
<polygon fill="white" stroke="red" points="532,-168.5 532,-187.5 640,-187.5 640,-168.5 532,-168.5"/>
<text text-anchor="middle" x="586" y="-175.5" font-family="Helvetica,sans-Serif" font-size="10.00">Core/Kinematics.hpp</text>
</a>
</g>
</g>
<!-- Node12&#45;&gt;Node15 -->
<g id="edge20" class="edge"><title>Node12&#45;&gt;Node15</title>
<path fill="none" stroke="midnightblue" d="M517.175,-224.324C529.847,-215.979 549.233,-203.212 564.206,-193.352"/>
<polygon fill="midnightblue" stroke="midnightblue" points="566.431,-196.078 572.858,-187.655 562.581,-190.231 566.431,-196.078"/>
</g>
<!-- Node16 -->
<g id="node16" class="node"><title>Node16</title>
<g id="a_node16"><a xlink:href="../../d8/d6f/Efficiency_8hpp.html" target="_top" xlink:title="Core/Efficiency.hpp">
<polygon fill="white" stroke="red" points="453.5,-56.5 453.5,-75.5 556.5,-75.5 556.5,-56.5 453.5,-56.5"/>
<text text-anchor="middle" x="505" y="-63.5" font-family="Helvetica,sans-Serif" font-size="10.00">Core/Efficiency.hpp</text>
</a>
</g>
</g>
<!-- Node12&#45;&gt;Node16 -->
<g id="edge24" class="edge"><title>Node12&#45;&gt;Node16</title>
<path fill="none" stroke="midnightblue" d="M504.054,-224.075C504.211,-197.945 504.673,-121.211 504.888,-85.577"/>
<polygon fill="midnightblue" stroke="midnightblue" points="508.388,-85.589 504.948,-75.5681 501.388,-85.5468 508.388,-85.589"/>
</g>
<!-- Node15&#45;&gt;Node4 -->
<g id="edge21" class="edge"><title>Node15&#45;&gt;Node4</title>
<path fill="none" stroke="midnightblue" d="M586.579,-168.334C587.565,-147.367 587.607,-92.9084 565,-56 557.033,-42.9933 543.795,-32.4677 531.777,-24.876"/>
<polygon fill="midnightblue" stroke="midnightblue" points="533.322,-21.7237 522.932,-19.6499 529.761,-27.7503 533.322,-21.7237"/>
</g>
<!-- Node15&#45;&gt;Node7 -->
<g id="edge22" class="edge"><title>Node15&#45;&gt;Node7</title>
<path fill="none" stroke="midnightblue" d="M596.279,-168.368C618.472,-149.733 671.111,-105.532 698.977,-82.1338"/>
<polygon fill="midnightblue" stroke="midnightblue" points="701.361,-84.7024 706.768,-75.5914 696.859,-79.3416 701.361,-84.7024"/>
</g>
<!-- Node15&#45;&gt;Node9 -->
<g id="edge23" class="edge"><title>Node15&#45;&gt;Node9</title>
<path fill="none" stroke="midnightblue" d="M640.069,-168.799C707.691,-158.541 822.688,-141.098 889.546,-130.957"/>
<polygon fill="midnightblue" stroke="midnightblue" points="890.087,-134.415 899.449,-129.454 889.037,-127.494 890.087,-134.415"/>
</g>
<!-- Node16&#45;&gt;Node4 -->
<g id="edge26" class="edge"><title>Node16&#45;&gt;Node4</title>
<path fill="none" stroke="midnightblue" d="M505,-56.083C505,-49.0059 505,-38.8611 505,-29.9865"/>
<polygon fill="midnightblue" stroke="midnightblue" points="508.5,-29.751 505,-19.7511 501.5,-29.7511 508.5,-29.751"/>
</g>
<!-- Node16&#45;&gt;Node10 -->
<g id="edge25" class="edge"><title>Node16&#45;&gt;Node10</title>
<path fill="none" stroke="midnightblue" d="M556.501,-59.1697C653.298,-48.2115 860.229,-24.7854 944.812,-15.21"/>
<polygon fill="midnightblue" stroke="midnightblue" points="945.432,-18.6622 954.975,-14.0594 944.645,-11.7066 945.432,-18.6622"/>
</g>
<!-- Node17&#45;&gt;Node4 -->
<g id="edge29" class="edge"><title>Node17&#45;&gt;Node4</title>
<path fill="none" stroke="midnightblue" d="M735.85,-288.29C665.657,-285.937 542.62,-276.942 443,-244 394.637,-228.007 368.758,-231.946 343,-188 311.115,-133.601 344.066,-93.1706 395,-56 418.665,-38.7294 449.918,-26.7736 473.062,-19.5498"/>
<polygon fill="midnightblue" stroke="midnightblue" points="474.174,-22.8703 482.752,-16.6519 472.169,-16.1637 474.174,-22.8703"/>
</g>
<!-- Node17&#45;&gt;Node6 -->
<g id="edge31" class="edge"><title>Node17&#45;&gt;Node6</title>
<path fill="none" stroke="midnightblue" d="M848.182,-281.922C905.53,-274.263 996.952,-260.855 1075,-244 1113.48,-235.691 1219.61,-205.592 1275.88,-189.431"/>
<polygon fill="midnightblue" stroke="midnightblue" points="1277.14,-192.711 1285.78,-186.584 1275.2,-185.984 1277.14,-192.711"/>
</g>
<!-- Node17&#45;&gt;Node7 -->
<g id="edge30" class="edge"><title>Node17&#45;&gt;Node7</title>
<path fill="none" stroke="midnightblue" d="M735.911,-285.505C707.057,-280.519 674.205,-269.199 656,-244 622.941,-198.239 709.108,-234.85 740,-188 761.095,-156.008 741.384,-109.51 727.661,-84.4942"/>
<polygon fill="midnightblue" stroke="midnightblue" points="730.648,-82.6678 722.622,-75.7517 724.583,-86.1634 730.648,-82.6678"/>
</g>
<!-- Node17&#45;&gt;Node9 -->
<g id="edge32" class="edge"><title>Node17&#45;&gt;Node9</title>
<path fill="none" stroke="midnightblue" d="M848.172,-281.32C872.63,-275.153 899.62,-264.037 917,-244 942.099,-215.063 944.347,-167.62 943.41,-141.569"/>
<polygon fill="midnightblue" stroke="midnightblue" points="946.902,-141.327 942.849,-131.538 939.913,-141.718 946.902,-141.327"/>
</g>
<!-- Node17&#45;&gt;Node12 -->
<g id="edge41" class="edge"><title>Node17&#45;&gt;Node12</title>
<path fill="none" stroke="midnightblue" d="M746.366,-280.444C695.703,-270.944 613.925,-255.611 559.572,-245.42"/>
<polygon fill="midnightblue" stroke="midnightblue" points="559.895,-241.919 549.421,-243.516 558.605,-248.799 559.895,-241.919"/>
</g>
<!-- Node18 -->
<g id="node18" class="node"><title>Node18</title>
<g id="a_node18"><a xlink:href="../../df/d9f/ParameterList_8hpp.html" target="_top" xlink:title="This class provides a list of fit parameters which can have different types. ">
<polygon fill="white" stroke="red" points="665,-224.5 665,-243.5 785,-243.5 785,-224.5 665,-224.5"/>
<text text-anchor="middle" x="725" y="-231.5" font-family="Helvetica,sans-Serif" font-size="10.00">Core/ParameterList.hpp</text>
</a>
</g>
</g>
<!-- Node17&#45;&gt;Node18 -->
<g id="edge33" class="edge"><title>Node17&#45;&gt;Node18</title>
<path fill="none" stroke="midnightblue" d="M781.235,-280.324C771.234,-272.263 756.113,-260.077 744.07,-250.369"/>
<polygon fill="midnightblue" stroke="midnightblue" points="745.943,-247.384 735.961,-243.834 741.55,-252.834 745.943,-247.384"/>
</g>
<!-- Node19 -->
<g id="node19" class="node"><title>Node19</title>
<g id="a_node19"><a xlink:href="../../df/d33/Generator_8hpp.html" target="_top" xlink:title="Core/Generator.hpp">
<polygon fill="white" stroke="black" points="965,-224.5 965,-243.5 1067,-243.5 1067,-224.5 965,-224.5"/>
<text text-anchor="middle" x="1016" y="-231.5" font-family="Helvetica,sans-Serif" font-size="10.00">Core/Generator.hpp</text>
</a>
</g>
</g>
<!-- Node17&#45;&gt;Node19 -->
<g id="edge39" class="edge"><title>Node17&#45;&gt;Node19</title>
<path fill="none" stroke="midnightblue" d="M827.493,-280.444C866.324,-271.083 928.656,-256.056 970.918,-245.868"/>
<polygon fill="midnightblue" stroke="midnightblue" points="971.771,-249.263 980.673,-243.516 970.131,-242.458 971.771,-249.263"/>
</g>
<!-- Node20 -->
<g id="node20" class="node"><title>Node20</title>
<g id="a_node20"><a xlink:href="../../de/d34/Resolution_8hpp.html" target="_top" xlink:title="Core/Resolution.hpp">
<polygon fill="white" stroke="black" points="803,-224.5 803,-243.5 909,-243.5 909,-224.5 803,-224.5"/>
<text text-anchor="middle" x="856" y="-231.5" font-family="Helvetica,sans-Serif" font-size="10.00">Core/Resolution.hpp</text>
</a>
</g>
</g>
<!-- Node17&#45;&gt;Node20 -->
<g id="edge42" class="edge"><title>Node17&#45;&gt;Node20</title>
<path fill="none" stroke="midnightblue" d="M802.283,-280.324C811.836,-272.263 826.28,-260.077 837.784,-250.369"/>
<polygon fill="midnightblue" stroke="midnightblue" points="840.144,-252.958 845.53,-243.834 835.63,-247.608 840.144,-252.958"/>
</g>
<!-- Node17&#45;&gt;Node21 -->
<g id="edge43" class="edge"><title>Node17&#45;&gt;Node21</title>
<path fill="none" stroke="midnightblue" d="M848.286,-282.216C926.694,-272.765 1069.25,-255.581 1159.06,-244.756"/>
<polygon fill="midnightblue" stroke="midnightblue" points="1159.69,-248.206 1169.2,-243.534 1158.85,-241.256 1159.69,-248.206"/>
</g>
<!-- Node18&#45;&gt;Node4 -->
<g id="edge37" class="edge"><title>Node18&#45;&gt;Node4</title>
<path fill="none" stroke="midnightblue" d="M747.788,-224.471C763.326,-217.316 782.707,-205.435 792,-188 821.221,-133.174 799.482,-87.6139 746,-56 679.404,-16.6342 585.891,-10.483 537.251,-10.2262"/>
<polygon fill="midnightblue" stroke="midnightblue" points="537.005,-6.72683 527.016,-10.2573 537.027,-13.7268 537.005,-6.72683"/>
</g>
<!-- Node18&#45;&gt;Node5 -->
<g id="edge38" class="edge"><title>Node18&#45;&gt;Node5</title>
<path fill="none" stroke="midnightblue" d="M723.184,-224.083C721.726,-216.927 719.629,-206.635 717.807,-197.691"/>
<polygon fill="midnightblue" stroke="midnightblue" points="721.208,-196.851 715.783,-187.751 714.349,-198.248 721.208,-196.851"/>
</g>
<!-- Node18&#45;&gt;Node6 -->
<g id="edge36" class="edge"><title>Node18&#45;&gt;Node6</title>
<path fill="none" stroke="midnightblue" d="M785.193,-224.994C788.169,-224.646 791.118,-224.313 794,-224 974.512,-204.396 1191.16,-187.817 1275.71,-181.613"/>
<polygon fill="midnightblue" stroke="midnightblue" points="1276.1,-185.093 1285.82,-180.874 1275.59,-178.112 1276.1,-185.093"/>
</g>
<!-- Node18&#45;&gt;Node7 -->
<g id="edge35" class="edge"><title>Node18&#45;&gt;Node7</title>
<path fill="none" stroke="midnightblue" d="M739.661,-224.402C751.406,-216.585 767.031,-203.862 774,-188 787.587,-157.075 788.73,-142.397 774,-112 767.603,-98.7996 755.248,-88.3032 743.671,-80.7794"/>
<polygon fill="midnightblue" stroke="midnightblue" points="745.454,-77.7678 735.082,-75.6099 741.845,-83.7653 745.454,-77.7678"/>
</g>
<!-- Node18&#45;&gt;Node10 -->
<g id="edge34" class="edge"><title>Node18&#45;&gt;Node10</title>
<path fill="none" stroke="midnightblue" d="M785.059,-224.767C844.98,-213.587 936.09,-188.123 993,-132 1018.04,-107.309 1025.94,-89.4193 1015,-56 1011.51,-45.3397 1004.43,-35.1174 997.714,-27.1175"/>
<polygon fill="midnightblue" stroke="midnightblue" points="1000.3,-24.7633 991.02,-19.66 995.096,-29.4395 1000.3,-24.7633"/>
</g>
<!-- Node19&#45;&gt;Node9 -->
<g id="edge40" class="edge"><title>Node19&#45;&gt;Node9</title>
<path fill="none" stroke="midnightblue" d="M1010.19,-224.368C997.981,-206.215 969.448,-163.802 953.43,-139.99"/>
<polygon fill="midnightblue" stroke="midnightblue" points="956.266,-137.935 947.78,-131.591 950.457,-141.842 956.266,-137.935"/>
</g>
<!-- Node21&#45;&gt;Node9 -->
<g id="edge44" class="edge"><title>Node21&#45;&gt;Node9</title>
<path fill="none" stroke="midnightblue" d="M1230.47,-224.377C1214.45,-210.356 1180.56,-182.707 1147,-168 1097.82,-146.448 1037.34,-134.798 994.86,-128.791"/>
<polygon fill="midnightblue" stroke="midnightblue" points="995.115,-125.293 984.736,-127.417 994.175,-132.23 995.115,-125.293"/>
</g>
</g>
</svg>
