<?xml version="1.0" encoding="UTF-8" standalone="no"?>
<!DOCTYPE svg PUBLIC "-//W3C//DTD SVG 1.1//EN"
 "http://www.w3.org/Graphics/SVG/1.1/DTD/svg11.dtd">
<!-- Generated by graphviz version 2.26.3 (20100126.1600)
 -->
<!-- Title: G Pages: 1 -->
<svg width="642pt" height="88pt"
 viewBox="0.00 0.00 642.00 88.00" xmlns="http://www.w3.org/2000/svg" xmlns:xlink="http://www.w3.org/1999/xlink">
<g id="graph1" class="graph" transform="scale(1 1) rotate(0) translate(4 84)">
<title>G</title>
<polygon fill="white" stroke="white" points="-4,5 -4,-84 639,-84 639,5 -4,5"/>
<!-- Node1 -->
<g id="node1" class="node"><title>Node1</title>
<polygon fill="#bfbfbf" stroke="black" points="86.5,-58.5 86.5,-79.5 295.5,-79.5 295.5,-58.5 86.5,-58.5"/>
<text text-anchor="middle" x="191" y="-66.5" font-family="Helvetica,sans-Serif" font-size="10.00">Physics/AmplitudeSum/AmplitudeSetup.hpp</text>
</g>
<!-- Node2 -->
<g id="node3" class="node"><title>Node2</title>
<polygon fill="white" stroke="#bfbfbf" points="0,-0.5 0,-21.5 44,-21.5 44,-0.5 0,-0.5"/>
<text text-anchor="middle" x="22" y="-8.5" font-family="Helvetica,sans-Serif" font-size="10.00">vector</text>
</g>
<!-- Node1&#45;&gt;Node2 -->
<g id="edge2" class="edge"><title>Node1&#45;&gt;Node2</title>
<path fill="none" stroke="midnightblue" d="M159.721,-58.4733C133.693,-49.6861 95.4333,-36.7048 53.5618,-22.1699"/>
<polygon fill="midnightblue" stroke="midnightblue" points="54.5981,-18.8247 44.0033,-18.8465 52.2992,-25.4365 54.5981,-18.8247"/>
</g>
<!-- Node3 -->
<g id="node5" class="node"><title>Node3</title>
<polygon fill="white" stroke="#bfbfbf" points="61.5,-0.5 61.5,-21.5 102.5,-21.5 102.5,-0.5 61.5,-0.5"/>
<text text-anchor="middle" x="82" y="-8.5" font-family="Helvetica,sans-Serif" font-size="10.00">string</text>
</g>
<!-- Node1&#45;&gt;Node3 -->
<g id="edge4" class="edge"><title>Node1&#45;&gt;Node3</title>
<path fill="none" stroke="midnightblue" d="M171.261,-58.4966C154.39,-49.5194 129.891,-36.4835 110.826,-26.3387"/>
<polygon fill="midnightblue" stroke="midnightblue" points="112.433,-23.2289 101.961,-21.6212 109.144,-29.4086 112.433,-23.2289"/>
</g>
<!-- Node4 -->
<g id="node7" class="node"><title>Node4</title>
<polygon fill="white" stroke="#bfbfbf" points="120,-0.5 120,-21.5 172,-21.5 172,-0.5 120,-0.5"/>
<text text-anchor="middle" x="146" y="-8.5" font-family="Helvetica,sans-Serif" font-size="10.00">memory</text>
</g>
<!-- Node1&#45;&gt;Node4 -->
<g id="edge6" class="edge"><title>Node1&#45;&gt;Node4</title>
<path fill="none" stroke="midnightblue" d="M182.746,-58.3619C176.53,-50.3496 167.849,-39.1605 160.485,-29.6696"/>
<polygon fill="midnightblue" stroke="midnightblue" points="163.097,-27.326 154.201,-21.5707 157.566,-31.617 163.097,-27.326"/>
</g>
<!-- Node5 -->
<g id="node9" class="node"><title>Node5</title>
<polygon fill="white" stroke="#bfbfbf" points="189.5,-0.5 189.5,-21.5 284.5,-21.5 284.5,-0.5 189.5,-0.5"/>
<text text-anchor="middle" x="237" y="-8.5" font-family="Helvetica,sans-Serif" font-size="10.00">boost/foreach.hpp</text>
</g>
<!-- Node1&#45;&gt;Node5 -->
<g id="edge8" class="edge"><title>Node1&#45;&gt;Node5</title>
<path fill="none" stroke="midnightblue" d="M199.437,-58.3619C205.792,-50.3496 214.666,-39.1605 222.193,-29.6696"/>
<polygon fill="midnightblue" stroke="midnightblue" points="225.145,-31.5805 228.616,-21.5707 219.66,-27.2308 225.145,-31.5805"/>
</g>
<!-- Node6 -->
<g id="node11" class="node"><title>Node6</title>
<polygon fill="white" stroke="#bfbfbf" points="302,-0.5 302,-21.5 446,-21.5 446,-0.5 302,-0.5"/>
<text text-anchor="middle" x="374" y="-8.5" font-family="Helvetica,sans-Serif" font-size="10.00">boost/property_tree/ptree.hpp</text>
</g>
<!-- Node1&#45;&gt;Node6 -->
<g id="edge10" class="edge"><title>Node1&#45;&gt;Node6</title>
<path fill="none" stroke="midnightblue" d="M224.14,-58.4966C254.103,-49.0001 298.396,-34.9619 331.062,-24.6087"/>
<polygon fill="midnightblue" stroke="midnightblue" points="332.323,-27.8809 340.798,-21.5231 330.208,-21.208 332.323,-27.8809"/>
</g>
<!-- Node7 -->
<g id="node13" class="node"><title>Node7</title>
<polygon fill="white" stroke="#bfbfbf" points="464,-0.5 464,-21.5 634,-21.5 634,-0.5 464,-0.5"/>
<text text-anchor="middle" x="549" y="-8.5" font-family="Helvetica,sans-Serif" font-size="10.00">boost/property_tree/xml_parser.hpp</text>
</g>
<!-- Node1&#45;&gt;Node7 -->
<g id="edge12" class="edge"><title>Node1&#45;&gt;Node7</title>
<path fill="none" stroke="midnightblue" d="M255.831,-58.4966C317.227,-48.5499 409.377,-33.6205 473.932,-23.1618"/>
<polygon fill="midnightblue" stroke="midnightblue" points="474.736,-26.5774 484.047,-21.5231 473.616,-19.6674 474.736,-26.5774"/>
</g>
</g>
</svg>
