<?xml version="1.0" encoding="UTF-8" standalone="no"?>
<!DOCTYPE svg PUBLIC "-//W3C//DTD SVG 1.1//EN"
 "http://www.w3.org/Graphics/SVG/1.1/DTD/svg11.dtd">
<!-- Generated by graphviz version 2.36.0 (20140111.2315)
 -->
<!-- Title: /home/travis/build/ComPWA/ComPWA/executables/GenTwoPartApp.cpp Pages: 1 -->
<!--zoomable 322 -->
<svg id="main" version="1.1" xmlns="http://www.w3.org/2000/svg" xmlns:xlink="http://www.w3.org/1999/xlink" xml:space="preserve" onload="init(evt)">
<style type="text/css"><![CDATA[
.edge:hover path { stroke: red; }
.edge:hover polygon { stroke: red; fill: red; }
]]></style>
<script type="text/javascript"><![CDATA[
var edges = document.getElementsByTagName('g');
if (edges && edges.length) {
  for (var i=0;i<edges.length;i++) {
    if (edges[i].id.substr(0,4)=='edge') {
      edges[i].setAttribute('class','edge');
    }
  }
}
]]></script>
        <defs>
                <circle id="rim" cx="0" cy="0" r="7"/>
                <circle id="rim2" cx="0" cy="0" r="3.5"/>
                <g id="zoomPlus">
                        <use xlink:href="#rim" fill="#404040">
                                <set attributeName="fill" to="#808080" begin="zoomplus.mouseover" end="zoomplus.mouseout"/>
                        </use>
                        <path d="M-4,0h8M0,-4v8" fill="none" stroke="white" stroke-width="1.5" pointer-events="none"/>
                </g>
                <g id="zoomMin">
                        <use xlink:href="#rim" fill="#404040">
                                <set attributeName="fill" to="#808080" begin="zoomminus.mouseover" end="zoomminus.mouseout"/>
                        </use>
                        <path d="M-4,0h8" fill="none" stroke="white" stroke-width="1.5" pointer-events="none"/>
                </g>
                <g id="dirArrow">
                        <path fill="none" stroke="white" stroke-width="1.5" d="M0,-3.0v7 M-2.5,-0.5L0,-3.0L2.5,-0.5"/>
                </g>
               <g id="resetDef">
                       <use xlink:href="#rim2" fill="#404040">
                               <set attributeName="fill" to="#808080" begin="reset.mouseover" end="reset.mouseout"/>
                       </use>
               </g>
        </defs>

<script type="text/javascript">
var viewWidth = 2145;
var viewHeight = 322;
var sectionId = 'dynsection-0';
</script>
<script xlink:href="../../svgpan.js"/>
<svg id="graph" class="graph">
<g id="viewport">
<title>/home/travis/build/ComPWA/ComPWA/executables/GenTwoPartApp.cpp</title>
<polygon fill="white" stroke="none" points="-4,4 -4,-318 2140.73,-318 2140.73,4 -4,4"/>
<!-- Node1 -->
<g id="node1" class="node"><title>Node1</title>
<polygon fill="#bfbfbf" stroke="black" points="1227.23,-272.5 1227.23,-313.5 1394.23,-313.5 1394.23,-272.5 1227.23,-272.5"/>
<text text-anchor="start" x="1235.23" y="-301.5" font-family="Helvetica,sans-Serif" font-size="10.00">/home/travis/build</text>
<text text-anchor="start" x="1235.23" y="-290.5" font-family="Helvetica,sans-Serif" font-size="10.00">/ComPWA/ComPWA/executables</text>
<text text-anchor="middle" x="1310.73" y="-279.5" font-family="Helvetica,sans-Serif" font-size="10.00">/GenTwoPartApp.cpp</text>
</g>
<!-- Node2 -->
<g id="node2" class="node"><title>Node2</title>
<polygon fill="white" stroke="#bfbfbf" points="76.7317,-74.5 76.7317,-93.5 130.732,-93.5 130.732,-74.5 76.7317,-74.5"/>
<text text-anchor="middle" x="103.732" y="-81.5" font-family="Helvetica,sans-Serif" font-size="10.00">iostream</text>
</g>
<!-- Node1&#45;&gt;Node2 -->
<g id="edge1" class="edge"><title>Node1&#45;&gt;Node2</title>
<path fill="none" stroke="midnightblue" d="M1226.94,-291.976C984.825,-291.322 295.874,-285.115 207.732,-236 154.52,-206.349 122.748,-136.65 110.096,-103.345"/>
<polygon fill="midnightblue" stroke="midnightblue" points="113.243,-101.757 106.536,-93.5562 106.665,-104.15 113.243,-101.757"/>
</g>
<!-- Node3 -->
<g id="node3" class="node"><title>Node3</title>
<polygon fill="white" stroke="#bfbfbf" points="14.7317,-74.5 14.7317,-93.5 58.7317,-93.5 58.7317,-74.5 14.7317,-74.5"/>
<text text-anchor="middle" x="36.7317" y="-81.5" font-family="Helvetica,sans-Serif" font-size="10.00">cmath</text>
</g>
<!-- Node1&#45;&gt;Node3 -->
<g id="edge2" class="edge"><title>Node1&#45;&gt;Node3</title>
<path fill="none" stroke="midnightblue" d="M1227.09,-291.713C979.253,-290.336 260.141,-282.345 165.732,-236 105.987,-206.671 62.9964,-135.72 45.4624,-102.59"/>
<polygon fill="midnightblue" stroke="midnightblue" points="48.5316,-100.905 40.8477,-93.6103 42.3056,-104.104 48.5316,-100.905"/>
</g>
<!-- Node4 -->
<g id="node4" class="node"><title>Node4</title>
<polygon fill="white" stroke="#bfbfbf" points="148.732,-74.5 148.732,-93.5 200.732,-93.5 200.732,-74.5 148.732,-74.5"/>
<text text-anchor="middle" x="174.732" y="-81.5" font-family="Helvetica,sans-Serif" font-size="10.00">sstream</text>
</g>
<!-- Node1&#45;&gt;Node4 -->
<g id="edge3" class="edge"><title>Node1&#45;&gt;Node4</title>
<path fill="none" stroke="midnightblue" d="M1227.04,-290.571C1076.55,-287.069 750.62,-275.226 478.732,-236 341.271,-216.168 260.597,-276.365 173.732,-168 159.265,-149.953 163.331,-121.911 168.378,-103.5"/>
<polygon fill="midnightblue" stroke="midnightblue" points="171.73,-104.508 171.331,-93.9209 165.04,-102.446 171.73,-104.508"/>
</g>
<!-- Node5 -->
<g id="node5" class="node"><title>Node5</title>
<polygon fill="white" stroke="#bfbfbf" points="624.732,-6.5 624.732,-25.5 668.732,-25.5 668.732,-6.5 624.732,-6.5"/>
<text text-anchor="middle" x="646.732" y="-13.5" font-family="Helvetica,sans-Serif" font-size="10.00">vector</text>
</g>
<!-- Node1&#45;&gt;Node5 -->
<g id="edge4" class="edge"><title>Node1&#45;&gt;Node5</title>
<path fill="none" stroke="midnightblue" d="M1226.81,-291.948C971.755,-291.251 217.127,-285.023 118.732,-236 48.3921,-200.955 32.4309,-173.912 5.73167,-100 0.899748,-86.6237 -3.91792,-78.4478 5.73167,-68 47.3609,-22.927 490.208,-17.6569 614.474,-17.0673"/>
<polygon fill="midnightblue" stroke="midnightblue" points="614.524,-20.5672 624.509,-17.0268 614.495,-13.5673 614.524,-20.5672"/>
</g>
<!-- Node6 -->
<g id="node6" class="node"><title>Node6</title>
<polygon fill="white" stroke="#bfbfbf" points="790.232,-6.5 790.232,-25.5 831.232,-25.5 831.232,-6.5 790.232,-6.5"/>
<text text-anchor="middle" x="810.732" y="-13.5" font-family="Helvetica,sans-Serif" font-size="10.00">string</text>
</g>
<!-- Node1&#45;&gt;Node6 -->
<g id="edge5" class="edge"><title>Node1&#45;&gt;Node6</title>
<path fill="none" stroke="midnightblue" d="M1273.23,-272.434C1255.45,-262.473 1234.31,-249.607 1216.73,-236 1166.78,-197.327 1167.57,-172.092 1115.73,-136 1056.98,-95.1017 1036.39,-94.094 969.732,-68 925.765,-50.7882 873.383,-34.8337 841.091,-25.5037"/>
<polygon fill="midnightblue" stroke="midnightblue" points="841.926,-22.1021 831.349,-22.714 839.999,-28.8317 841.926,-22.1021"/>
</g>
<!-- Node7 -->
<g id="node7" class="node"><title>Node7</title>
<polygon fill="white" stroke="#bfbfbf" points="1184.73,-6.5 1184.73,-25.5 1236.73,-25.5 1236.73,-6.5 1184.73,-6.5"/>
<text text-anchor="middle" x="1210.73" y="-13.5" font-family="Helvetica,sans-Serif" font-size="10.00">memory</text>
</g>
<!-- Node1&#45;&gt;Node7 -->
<g id="edge6" class="edge"><title>Node1&#45;&gt;Node7</title>
<path fill="none" stroke="midnightblue" d="M1268.97,-272.348C1254.44,-263.354 1239.58,-251.252 1230.73,-236 1211.13,-202.205 1210.09,-82.4807 1210.46,-35.8159"/>
<polygon fill="midnightblue" stroke="midnightblue" points="1213.96,-35.6615 1210.57,-25.6229 1206.96,-35.5831 1213.96,-35.6615"/>
</g>
<!-- Node8 -->
<g id="node8" class="node"><title>Node8</title>
<polygon fill="white" stroke="#bfbfbf" points="1239.23,-210.5 1239.23,-229.5 1292.23,-229.5 1292.23,-210.5 1239.23,-210.5"/>
<text text-anchor="middle" x="1265.73" y="-217.5" font-family="Helvetica,sans-Serif" font-size="10.00">TMath.h</text>
</g>
<!-- Node1&#45;&gt;Node8 -->
<g id="edge7" class="edge"><title>Node1&#45;&gt;Node8</title>
<path fill="none" stroke="midnightblue" d="M1298.2,-272.223C1291.43,-261.541 1283.15,-248.481 1276.65,-238.221"/>
<polygon fill="midnightblue" stroke="midnightblue" points="1279.58,-236.308 1271.27,-229.735 1273.67,-240.055 1279.58,-236.308"/>
</g>
<!-- Node9 -->
<g id="node9" class="node"><title>Node9</title>
<polygon fill="white" stroke="#bfbfbf" points="1310.73,-210.5 1310.73,-229.5 1402.73,-229.5 1402.73,-210.5 1310.73,-210.5"/>
<text text-anchor="middle" x="1356.73" y="-217.5" font-family="Helvetica,sans-Serif" font-size="10.00">TLorentzVector.h</text>
</g>
<!-- Node1&#45;&gt;Node9 -->
<g id="edge8" class="edge"><title>Node1&#45;&gt;Node9</title>
<path fill="none" stroke="midnightblue" d="M1323.55,-272.223C1330.47,-261.541 1338.93,-248.481 1345.57,-238.221"/>
<polygon fill="midnightblue" stroke="midnightblue" points="1348.57,-240.031 1351.07,-229.735 1342.7,-236.224 1348.57,-240.031"/>
</g>
<!-- Node10 -->
<g id="node10" class="node"><title>Node10</title>
<polygon fill="white" stroke="#bfbfbf" points="1420.73,-210.5 1420.73,-229.5 1484.73,-229.5 1484.73,-210.5 1420.73,-210.5"/>
<text text-anchor="middle" x="1452.73" y="-217.5" font-family="Helvetica,sans-Serif" font-size="10.00">TParticle.h</text>
</g>
<!-- Node1&#45;&gt;Node10 -->
<g id="edge9" class="edge"><title>Node1&#45;&gt;Node10</title>
<path fill="none" stroke="midnightblue" d="M1349.91,-272.411C1374.26,-260.238 1404.9,-244.917 1426.37,-234.18"/>
<polygon fill="midnightblue" stroke="midnightblue" points="1428.16,-237.2 1435.54,-229.597 1425.03,-230.939 1428.16,-237.2"/>
</g>
<!-- Node11 -->
<g id="node11" class="node"><title>Node11</title>
<polygon fill="white" stroke="#bfbfbf" points="1502.73,-210.5 1502.73,-229.5 1606.73,-229.5 1606.73,-210.5 1502.73,-210.5"/>
<text text-anchor="middle" x="1554.73" y="-217.5" font-family="Helvetica,sans-Serif" font-size="10.00">TGenPhaseSpace.h</text>
</g>
<!-- Node1&#45;&gt;Node11 -->
<g id="edge10" class="edge"><title>Node1&#45;&gt;Node11</title>
<path fill="none" stroke="midnightblue" d="M1378.05,-272.411C1422.28,-259.542 1478.59,-243.156 1515.6,-232.386"/>
<polygon fill="midnightblue" stroke="midnightblue" points="1516.88,-235.659 1525.51,-229.504 1514.93,-228.938 1516.88,-235.659"/>
</g>
<!-- Node12 -->
<g id="node12" class="node"><title>Node12</title>
<polygon fill="white" stroke="#bfbfbf" points="1625.23,-210.5 1625.23,-229.5 1672.23,-229.5 1672.23,-210.5 1625.23,-210.5"/>
<text text-anchor="middle" x="1648.73" y="-217.5" font-family="Helvetica,sans-Serif" font-size="10.00">TFile.h</text>
</g>
<!-- Node1&#45;&gt;Node12 -->
<g id="edge11" class="edge"><title>Node1&#45;&gt;Node12</title>
<path fill="none" stroke="midnightblue" d="M1394.27,-282.284C1456.32,-273.721 1542.53,-258.972 1615.73,-236 1618.01,-235.284 1620.34,-234.451 1622.66,-233.551"/>
<polygon fill="midnightblue" stroke="midnightblue" points="1624.09,-236.744 1631.92,-229.602 1621.35,-230.305 1624.09,-236.744"/>
</g>
<!-- Node13 -->
<g id="node13" class="node"><title>Node13</title>
<polygon fill="white" stroke="#bfbfbf" points="1690.23,-210.5 1690.23,-229.5 1749.23,-229.5 1749.23,-210.5 1690.23,-210.5"/>
<text text-anchor="middle" x="1719.73" y="-217.5" font-family="Helvetica,sans-Serif" font-size="10.00">TROOT.h</text>
</g>
<!-- Node1&#45;&gt;Node13 -->
<g id="edge12" class="edge"><title>Node1&#45;&gt;Node13</title>
<path fill="none" stroke="midnightblue" d="M1394.44,-284.565C1470.13,-276.612 1584.17,-261.553 1680.73,-236 1683.89,-235.165 1687.14,-234.16 1690.35,-233.071"/>
<polygon fill="midnightblue" stroke="midnightblue" points="1691.57,-236.352 1699.76,-229.635 1689.17,-229.777 1691.57,-236.352"/>
</g>
<!-- Node14 -->
<g id="node14" class="node"><title>Node14</title>
<polygon fill="white" stroke="#bfbfbf" points="1767.23,-210.5 1767.23,-229.5 1852.23,-229.5 1852.23,-210.5 1767.23,-210.5"/>
<text text-anchor="middle" x="1809.73" y="-217.5" font-family="Helvetica,sans-Serif" font-size="10.00">TClonesArray.h</text>
</g>
<!-- Node1&#45;&gt;Node14 -->
<g id="edge13" class="edge"><title>Node1&#45;&gt;Node14</title>
<path fill="none" stroke="midnightblue" d="M1394.58,-285.434C1484.88,-277.449 1632.48,-261.747 1757.73,-236 1762.84,-234.951 1768.17,-233.652 1773.39,-232.262"/>
<polygon fill="midnightblue" stroke="midnightblue" points="1774.52,-235.58 1783.21,-229.516 1772.64,-228.839 1774.52,-235.58"/>
</g>
<!-- Node15 -->
<g id="node15" class="node"><title>Node15</title>
<polygon fill="white" stroke="#bfbfbf" points="1870.73,-210.5 1870.73,-229.5 1920.73,-229.5 1920.73,-210.5 1870.73,-210.5"/>
<text text-anchor="middle" x="1895.73" y="-217.5" font-family="Helvetica,sans-Serif" font-size="10.00">TTree.h</text>
</g>
<!-- Node1&#45;&gt;Node15 -->
<g id="edge14" class="edge"><title>Node1&#45;&gt;Node15</title>
<path fill="none" stroke="midnightblue" d="M1394.58,-291.308C1503.63,-288.638 1699.28,-277.772 1860.73,-236 1863.55,-235.27 1866.44,-234.348 1869.28,-233.32"/>
<polygon fill="midnightblue" stroke="midnightblue" points="1870.68,-236.53 1878.65,-229.548 1868.07,-230.037 1870.68,-236.53"/>
</g>
<!-- Node16 -->
<g id="node16" class="node"><title>Node16</title>
<polygon fill="white" stroke="#bfbfbf" points="1939.23,-210.5 1939.23,-229.5 2012.23,-229.5 2012.23,-210.5 1939.23,-210.5"/>
<text text-anchor="middle" x="1975.73" y="-217.5" font-family="Helvetica,sans-Serif" font-size="10.00">TRandom3.h</text>
</g>
<!-- Node1&#45;&gt;Node16 -->
<g id="edge15" class="edge"><title>Node1&#45;&gt;Node16</title>
<path fill="none" stroke="midnightblue" d="M1394.45,-290.38C1514.24,-286.722 1740.93,-274.806 1929.73,-236 1934.2,-235.081 1938.85,-233.876 1943.39,-232.548"/>
<polygon fill="midnightblue" stroke="midnightblue" points="1944.58,-235.844 1953.07,-229.508 1942.49,-229.165 1944.58,-235.844"/>
</g>
<!-- Node17 -->
<g id="node17" class="node"><title>Node17</title>
<polygon fill="white" stroke="#bfbfbf" points="2030.73,-205 2030.73,-235 2136.73,-235 2136.73,-205 2030.73,-205"/>
<text text-anchor="start" x="2038.73" y="-223" font-family="Helvetica,sans-Serif" font-size="10.00">Physics/BreitWigner</text>
<text text-anchor="middle" x="2083.73" y="-212" font-family="Helvetica,sans-Serif" font-size="10.00">/BreitWigner.hpp</text>
</g>
<!-- Node1&#45;&gt;Node17 -->
<g id="edge16" class="edge"><title>Node1&#45;&gt;Node17</title>
<path fill="none" stroke="midnightblue" d="M1394.3,-289.603C1525.64,-284.909 1788.42,-271.778 2020.59,-235.833"/>
<polygon fill="midnightblue" stroke="midnightblue" points="2021.23,-239.274 2030.57,-234.269 2020.15,-232.358 2021.23,-239.274"/>
</g>
<!-- Node18 -->
<g id="node18" class="node"><title>Node18</title>
<g id="a_node18"><a xlink:href="../../db/dce/Parameter_8hpp.html" target="_top" xlink:title="This class implements some internal container of parameters. ">
<polygon fill="white" stroke="black" points="203.732,-142.5 203.732,-161.5 307.732,-161.5 307.732,-142.5 203.732,-142.5"/>
<text text-anchor="middle" x="255.732" y="-149.5" font-family="Helvetica,sans-Serif" font-size="10.00">Core/Parameter.hpp</text>
</a>
</g>
</g>
<!-- Node1&#45;&gt;Node18 -->
<g id="edge17" class="edge"><title>Node1&#45;&gt;Node18</title>
<path fill="none" stroke="midnightblue" d="M1227.08,-287.365C1104.87,-279.981 870.554,-263.503 672.732,-236 513.183,-213.818 474.108,-202.355 316.732,-168 310.998,-166.748 304.98,-165.36 299.049,-163.948"/>
<polygon fill="midnightblue" stroke="midnightblue" points="299.761,-160.519 289.218,-161.569 298.114,-167.323 299.761,-160.519"/>
</g>
<!-- Node26 -->
<g id="node26" class="node"><title>Node26</title>
<g id="a_node26"><a xlink:href="../../df/d9f/ParameterList_8hpp.html" target="_top" xlink:title="This class provides a list of fit parameters which can have different types. ">
<polygon fill="white" stroke="black" points="681.732,-210.5 681.732,-229.5 801.732,-229.5 801.732,-210.5 681.732,-210.5"/>
<text text-anchor="middle" x="741.732" y="-217.5" font-family="Helvetica,sans-Serif" font-size="10.00">Core/ParameterList.hpp</text>
</a>
</g>
</g>
<!-- Node1&#45;&gt;Node26 -->
<g id="edge33" class="edge"><title>Node1&#45;&gt;Node26</title>
<path fill="none" stroke="midnightblue" d="M1227.08,-281.562C1114.82,-267.554 917.416,-242.922 812.284,-229.804"/>
<polygon fill="midnightblue" stroke="midnightblue" points="812.451,-226.297 802.095,-228.532 811.584,-233.243 812.451,-226.297"/>
</g>
<!-- Node18&#45;&gt;Node2 -->
<g id="edge18" class="edge"><title>Node18&#45;&gt;Node2</title>
<path fill="none" stroke="midnightblue" d="M235.86,-142.372C209.574,-130.958 163.049,-110.756 132.808,-97.6252"/>
<polygon fill="midnightblue" stroke="midnightblue" points="134.175,-94.403 123.608,-93.6305 131.386,-100.824 134.175,-94.403"/>
</g>
<!-- Node18&#45;&gt;Node3 -->
<g id="edge23" class="edge"><title>Node18&#45;&gt;Node3</title>
<path fill="none" stroke="midnightblue" d="M215.811,-142.444C177.285,-133.658 117.623,-118.653 67.7317,-100 65.8836,-99.3091 63.9968,-98.547 62.1121,-97.7436"/>
<polygon fill="midnightblue" stroke="midnightblue" points="63.4427,-94.5034 52.8935,-93.5206 60.5273,-100.867 63.4427,-94.5034"/>
</g>
<!-- Node18&#45;&gt;Node4 -->
<g id="edge20" class="edge"><title>Node18&#45;&gt;Node4</title>
<path fill="none" stroke="midnightblue" d="M245.142,-142.372C232.044,-131.699 209.516,-113.343 193.47,-100.268"/>
<polygon fill="midnightblue" stroke="midnightblue" points="195.287,-97.2339 185.324,-93.6305 190.865,-102.661 195.287,-97.2339"/>
</g>
<!-- Node18&#45;&gt;Node6 -->
<g id="edge19" class="edge"><title>Node18&#45;&gt;Node6</title>
<path fill="none" stroke="midnightblue" d="M289.901,-142.471C298.64,-140.325 308.027,-138.049 316.732,-136 387.681,-119.297 411.233,-131.981 476.732,-100 496.88,-90.1624 495.344,-77.3296 515.732,-68 562.628,-46.5404 714.093,-27.7039 779.821,-20.3196"/>
<polygon fill="midnightblue" stroke="midnightblue" points="780.415,-23.7753 789.969,-19.1944 779.644,-16.818 780.415,-23.7753"/>
</g>
<!-- Node19 -->
<g id="node19" class="node"><title>Node19</title>
<polygon fill="white" stroke="#bfbfbf" points="219.232,-74.5 219.232,-93.5 272.232,-93.5 272.232,-74.5 219.232,-74.5"/>
<text text-anchor="middle" x="245.732" y="-81.5" font-family="Helvetica,sans-Serif" font-size="10.00">complex</text>
</g>
<!-- Node18&#45;&gt;Node19 -->
<g id="edge21" class="edge"><title>Node18&#45;&gt;Node19</title>
<path fill="none" stroke="midnightblue" d="M254.424,-142.372C252.95,-132.643 250.509,-116.528 248.588,-103.85"/>
<polygon fill="midnightblue" stroke="midnightblue" points="252.03,-103.204 247.071,-93.8411 245.109,-104.253 252.03,-103.204"/>
</g>
<!-- Node20 -->
<g id="node20" class="node"><title>Node20</title>
<polygon fill="white" stroke="#bfbfbf" points="290.232,-74.5 290.232,-93.5 349.232,-93.5 349.232,-74.5 290.232,-74.5"/>
<text text-anchor="middle" x="319.732" y="-81.5" font-family="Helvetica,sans-Serif" font-size="10.00">stdexcept</text>
</g>
<!-- Node18&#45;&gt;Node20 -->
<g id="edge22" class="edge"><title>Node18&#45;&gt;Node20</title>
<path fill="none" stroke="midnightblue" d="M264.099,-142.372C274.2,-131.955 291.4,-114.217 304.007,-101.216"/>
<polygon fill="midnightblue" stroke="midnightblue" points="306.71,-103.457 311.158,-93.8411 301.684,-98.5836 306.71,-103.457"/>
</g>
<!-- Node21 -->
<g id="node21" class="node"><title>Node21</title>
<polygon fill="white" stroke="#bfbfbf" points="367.232,-69 367.232,-99 468.232,-99 468.232,-69 367.232,-69"/>
<text text-anchor="start" x="375.232" y="-87" font-family="Helvetica,sans-Serif" font-size="10.00">boost/property_tree</text>
<text text-anchor="middle" x="417.732" y="-76" font-family="Helvetica,sans-Serif" font-size="10.00">/ptree.hpp</text>
</g>
<!-- Node18&#45;&gt;Node21 -->
<g id="edge24" class="edge"><title>Node18&#45;&gt;Node21</title>
<path fill="none" stroke="midnightblue" d="M276.91,-142.372C301.394,-132.397 342.352,-115.71 373.803,-102.897"/>
<polygon fill="midnightblue" stroke="midnightblue" points="375.29,-106.071 383.23,-99.0562 372.649,-99.5879 375.29,-106.071"/>
</g>
<!-- Node22 -->
<g id="node22" class="node"><title>Node22</title>
<g id="a_node22"><a xlink:href="../../d8/def/AbsParameter_8hpp.html" target="_top" xlink:title="This class defines the internal container of a parameter. ">
<polygon fill="white" stroke="red" points="838.732,-74.5 838.732,-93.5 960.732,-93.5 960.732,-74.5 838.732,-74.5"/>
<text text-anchor="middle" x="899.732" y="-81.5" font-family="Helvetica,sans-Serif" font-size="10.00">Core/AbsParameter.hpp</text>
</a>
</g>
</g>
<!-- Node18&#45;&gt;Node22 -->
<g id="edge25" class="edge"><title>Node18&#45;&gt;Node22</title>
<path fill="none" stroke="midnightblue" d="M286.249,-142.446C295.927,-140.017 306.716,-137.6 316.732,-136 525.798,-102.608 581.222,-122.574 791.732,-100 805.081,-98.5685 819.322,-96.779 832.937,-94.9396"/>
<polygon fill="midnightblue" stroke="midnightblue" points="833.772,-98.3579 843.202,-93.5284 832.818,-91.4231 833.772,-98.3579"/>
</g>
<!-- Node24 -->
<g id="node24" class="node"><title>Node24</title>
<g id="a_node24"><a xlink:href="../../d2/de9/Exceptions_8hpp.html" target="_top" xlink:title="This class defines the ComPWA exception base&#45;class and provides a set of standard exceptions...">
<polygon fill="white" stroke="red" points="674.732,-74.5 674.732,-93.5 782.732,-93.5 782.732,-74.5 674.732,-74.5"/>
<text text-anchor="middle" x="728.732" y="-81.5" font-family="Helvetica,sans-Serif" font-size="10.00">Core/Exceptions.hpp</text>
</a>
</g>
</g>
<!-- Node18&#45;&gt;Node24 -->
<g id="edge30" class="edge"><title>Node18&#45;&gt;Node24</title>
<path fill="none" stroke="midnightblue" d="M287.23,-142.455C296.665,-140.112 307.072,-137.741 316.732,-136 453.235,-111.391 489.213,-118.092 626.732,-100 638.984,-98.3881 652.047,-96.5545 664.591,-94.7362"/>
<polygon fill="midnightblue" stroke="midnightblue" points="665.127,-98.1952 674.516,-93.2857 664.114,-91.2688 665.127,-98.1952"/>
</g>
<!-- Node25 -->
<g id="node25" class="node"><title>Node25</title>
<g id="a_node25"><a xlink:href="../../da/db4/Logging_8hpp.html" target="_top" xlink:title="Core/Logging.hpp">
<polygon fill="white" stroke="red" points="525.232,-74.5 525.232,-93.5 618.232,-93.5 618.232,-74.5 525.232,-74.5"/>
<text text-anchor="middle" x="571.732" y="-81.5" font-family="Helvetica,sans-Serif" font-size="10.00">Core/Logging.hpp</text>
</a>
</g>
</g>
<!-- Node18&#45;&gt;Node25 -->
<g id="edge32" class="edge"><title>Node18&#45;&gt;Node25</title>
<path fill="none" stroke="midnightblue" d="M288.893,-142.477C297.901,-140.263 307.67,-137.953 316.732,-136 402.457,-117.522 425.006,-118.478 510.732,-100 516.537,-98.7487 522.632,-97.3511 528.632,-95.9259"/>
<polygon fill="midnightblue" stroke="midnightblue" points="529.673,-99.2751 538.57,-93.5226 528.028,-92.4713 529.673,-99.2751"/>
</g>
<!-- Node22&#45;&gt;Node5 -->
<g id="edge27" class="edge"><title>Node22&#45;&gt;Node5</title>
<path fill="none" stroke="midnightblue" d="M866.916,-74.4393C818.212,-61.7339 727.356,-38.0325 678.981,-25.413"/>
<polygon fill="midnightblue" stroke="midnightblue" points="679.612,-21.9604 669.052,-22.8228 677.845,-28.7338 679.612,-21.9604"/>
</g>
<!-- Node22&#45;&gt;Node6 -->
<g id="edge26" class="edge"><title>Node22&#45;&gt;Node6</title>
<path fill="none" stroke="midnightblue" d="M888.096,-74.3717C873.572,-63.6004 848.492,-45.0021 830.833,-31.9065"/>
<polygon fill="midnightblue" stroke="midnightblue" points="832.487,-28.7758 822.37,-25.6305 828.317,-34.3984 832.487,-28.7758"/>
</g>
<!-- Node22&#45;&gt;Node7 -->
<g id="edge28" class="edge"><title>Node22&#45;&gt;Node7</title>
<path fill="none" stroke="midnightblue" d="M940.071,-74.4393C1001.16,-61.4754 1116.19,-37.0634 1174.65,-24.6566"/>
<polygon fill="midnightblue" stroke="midnightblue" points="1175.49,-28.0565 1184.55,-22.5567 1174.04,-21.209 1175.49,-28.0565"/>
</g>
<!-- Node23 -->
<g id="node23" class="node"><title>Node23</title>
<polygon fill="white" stroke="#bfbfbf" points="961.232,-1 961.232,-31 1056.23,-31 1056.23,-1 961.232,-1"/>
<text text-anchor="start" x="969.232" y="-19" font-family="Helvetica,sans-Serif" font-size="10.00">boost/serialization</text>
<text text-anchor="middle" x="1008.73" y="-8" font-family="Helvetica,sans-Serif" font-size="10.00">/shared_ptr.hpp</text>
</g>
<!-- Node22&#45;&gt;Node23 -->
<g id="edge29" class="edge"><title>Node22&#45;&gt;Node23</title>
<path fill="none" stroke="midnightblue" d="M913.982,-74.3717C929.766,-64.8143 955.727,-49.0948 976.486,-36.5248"/>
<polygon fill="midnightblue" stroke="midnightblue" points="978.57,-39.355 985.311,-31.1815 974.944,-33.3671 978.57,-39.355"/>
</g>
<!-- Node24&#45;&gt;Node6 -->
<g id="edge31" class="edge"><title>Node24&#45;&gt;Node6</title>
<path fill="none" stroke="midnightblue" d="M739.452,-74.3717C752.834,-63.6004 775.941,-45.0021 792.212,-31.9065"/>
<polygon fill="midnightblue" stroke="midnightblue" points="794.413,-34.6271 800.009,-25.6305 790.024,-29.174 794.413,-34.6271"/>
</g>
<!-- Node26&#45;&gt;Node2 -->
<g id="edge34" class="edge"><title>Node26&#45;&gt;Node2</title>
<path fill="none" stroke="midnightblue" d="M681.349,-219.302C553.649,-219.027 260.789,-213.307 173.732,-168 145.695,-153.409 124.356,-122.326 112.968,-102.613"/>
<polygon fill="midnightblue" stroke="midnightblue" points="115.961,-100.793 108.064,-93.73 109.833,-104.176 115.961,-100.793"/>
</g>
<!-- Node26&#45;&gt;Node4 -->
<g id="edge37" class="edge"><title>Node26&#45;&gt;Node4</title>
<path fill="none" stroke="midnightblue" d="M681.602,-217.286C547.116,-212.904 230.941,-199.354 194.732,-168 176.552,-152.258 173.382,-123.131 173.499,-103.908"/>
<polygon fill="midnightblue" stroke="midnightblue" points="177.006,-103.791 173.875,-93.6692 170.011,-103.534 177.006,-103.791"/>
</g>
<!-- Node26&#45;&gt;Node5 -->
<g id="edge38" class="edge"><title>Node26&#45;&gt;Node5</title>
<path fill="none" stroke="midnightblue" d="M734.684,-210.337C719.693,-191.472 684.485,-144.768 665.732,-100 656.914,-78.9518 651.822,-53.1066 649.168,-35.9038"/>
<polygon fill="midnightblue" stroke="midnightblue" points="652.569,-34.9526 647.705,-25.5402 645.638,-35.9313 652.569,-34.9526"/>
</g>
<!-- Node26&#45;&gt;Node6 -->
<g id="edge35" class="edge"><title>Node26&#45;&gt;Node6</title>
<path fill="none" stroke="midnightblue" d="M746.032,-210.242C755.434,-190.811 778.068,-142.45 791.732,-100 798.65,-78.5058 804.077,-53.1117 807.329,-36.1242"/>
<polygon fill="midnightblue" stroke="midnightblue" points="810.851,-36.3272 809.225,-25.8579 803.967,-35.0562 810.851,-36.3272"/>
</g>
<!-- Node26&#45;&gt;Node7 -->
<g id="edge36" class="edge"><title>Node26&#45;&gt;Node7</title>
<path fill="none" stroke="midnightblue" d="M801.891,-218.008C898.681,-215.311 1083.43,-205.282 1135.73,-168 1180.93,-135.78 1200.32,-68.4335 1207.34,-35.6836"/>
<polygon fill="midnightblue" stroke="midnightblue" points="1210.81,-36.1463 1209.32,-25.6566 1203.95,-34.7854 1210.81,-36.1463"/>
</g>
<!-- Node26&#45;&gt;Node18 -->
<g id="edge43" class="edge"><title>Node26&#45;&gt;Node18</title>
<path fill="none" stroke="midnightblue" d="M681.561,-214.104C598.899,-206.849 445.77,-191.518 316.732,-168 310.395,-166.845 303.735,-165.425 297.239,-163.923"/>
<polygon fill="midnightblue" stroke="midnightblue" points="297.775,-160.452 287.234,-161.522 296.141,-167.259 297.775,-160.452"/>
</g>
<!-- Node26&#45;&gt;Node22 -->
<g id="edge42" class="edge"><title>Node26&#45;&gt;Node22</title>
<path fill="none" stroke="midnightblue" d="M751.338,-210.395C768.37,-195.186 805.054,-162.644 836.732,-136 851.432,-123.636 868.367,-109.957 880.974,-99.8812"/>
<polygon fill="midnightblue" stroke="midnightblue" points="883.291,-102.511 888.93,-93.5415 878.928,-97.0362 883.291,-102.511"/>
</g>
<!-- Node26&#45;&gt;Node23 -->
<g id="edge41" class="edge"><title>Node26&#45;&gt;Node23</title>
<path fill="none" stroke="midnightblue" d="M802.108,-219.945C897.345,-219.998 1075.76,-213.79 1115.73,-168 1154.16,-123.976 1083.98,-66.2904 1040.11,-36.5753"/>
<polygon fill="midnightblue" stroke="midnightblue" points="1042,-33.6268 1031.73,-31.0175 1038.13,-39.4608 1042,-33.6268"/>
</g>
<!-- Node26&#45;&gt;Node24 -->
<g id="edge44" class="edge"><title>Node26&#45;&gt;Node24</title>
<path fill="none" stroke="midnightblue" d="M740.879,-210.208C738.794,-188.722 733.405,-133.167 730.557,-103.814"/>
<polygon fill="midnightblue" stroke="midnightblue" points="734.02,-103.266 729.571,-93.6503 727.053,-103.942 734.02,-103.266"/>
</g>
<!-- Node26&#45;&gt;Node25 -->
<g id="edge45" class="edge"><title>Node26&#45;&gt;Node25</title>
<path fill="none" stroke="midnightblue" d="M732.483,-210.4C715.688,-194.923 678.849,-161.605 645.732,-136 628.763,-122.88 608.68,-109.145 593.72,-99.2378"/>
<polygon fill="midnightblue" stroke="midnightblue" points="595.422,-96.1678 585.142,-93.6039 591.579,-102.019 595.422,-96.1678"/>
</g>
<!-- Node27 -->
<g id="node27" class="node"><title>Node27</title>
<polygon fill="white" stroke="#bfbfbf" points="846.232,-142.5 846.232,-161.5 881.232,-161.5 881.232,-142.5 846.232,-142.5"/>
<text text-anchor="middle" x="863.732" y="-149.5" font-family="Helvetica,sans-Serif" font-size="10.00">map</text>
</g>
<!-- Node26&#45;&gt;Node27 -->
<g id="edge39" class="edge"><title>Node26&#45;&gt;Node27</title>
<path fill="none" stroke="midnightblue" d="M757.681,-210.372C778.322,-199.205 814.513,-179.627 838.8,-166.488"/>
<polygon fill="midnightblue" stroke="midnightblue" points="840.648,-169.467 847.778,-161.63 837.318,-163.31 840.648,-169.467"/>
</g>
<!-- Node28 -->
<g id="node28" class="node"><title>Node28</title>
<polygon fill="white" stroke="#bfbfbf" points="899.232,-137 899.232,-167 994.232,-167 994.232,-137 899.232,-137"/>
<text text-anchor="start" x="907.232" y="-155" font-family="Helvetica,sans-Serif" font-size="10.00">boost/serialization</text>
<text text-anchor="middle" x="946.732" y="-144" font-family="Helvetica,sans-Serif" font-size="10.00">/vector.hpp</text>
</g>
<!-- Node26&#45;&gt;Node28 -->
<g id="edge40" class="edge"><title>Node26&#45;&gt;Node28</title>
<path fill="none" stroke="midnightblue" d="M768.532,-210.372C800.115,-200.203 853.363,-183.06 893.445,-170.156"/>
<polygon fill="midnightblue" stroke="midnightblue" points="894.626,-173.452 903.072,-167.056 892.481,-166.789 894.626,-173.452"/>
</g>
<!-- Node29 -->
<g id="node29" class="node"><title>Node29</title>
<polygon fill="white" stroke="#bfbfbf" points="1012.73,-142.5 1012.73,-161.5 1106.73,-161.5 1106.73,-142.5 1012.73,-142.5"/>
<text text-anchor="middle" x="1059.73" y="-149.5" font-family="Helvetica,sans-Serif" font-size="10.00">boost/version.hpp</text>
</g>
<!-- Node26&#45;&gt;Node29 -->
<g id="edge46" class="edge"><title>Node26&#45;&gt;Node29</title>
<path fill="none" stroke="midnightblue" d="M790.514,-210.437C843.095,-200.982 929.15,-184.852 1002.73,-168 1008.03,-166.786 1013.58,-165.43 1019.06,-164.044"/>
<polygon fill="midnightblue" stroke="midnightblue" points="1019.95,-167.428 1028.76,-161.538 1018.2,-160.651 1019.95,-167.428"/>
</g>
<!-- Node30 -->
<g id="node30" class="node"><title>Node30</title>
<polygon fill="white" stroke="#bfbfbf" points="326.232,-137 326.232,-167 421.232,-167 421.232,-137 326.232,-137"/>
<text text-anchor="start" x="334.232" y="-155" font-family="Helvetica,sans-Serif" font-size="10.00">boost/serialization</text>
<text text-anchor="middle" x="373.732" y="-144" font-family="Helvetica,sans-Serif" font-size="10.00">/split_free.hpp</text>
</g>
<!-- Node26&#45;&gt;Node30 -->
<g id="edge47" class="edge"><title>Node26&#45;&gt;Node30</title>
<path fill="none" stroke="midnightblue" d="M681.586,-210.984C620.665,-202.456 523.575,-187.747 431.11,-168.186"/>
<polygon fill="midnightblue" stroke="midnightblue" points="431.823,-164.759 421.312,-166.091 430.359,-171.604 431.823,-164.759"/>
</g>
<!-- Node31 -->
<g id="node31" class="node"><title>Node31</title>
<polygon fill="white" stroke="#bfbfbf" points="439.232,-142.5 439.232,-161.5 568.232,-161.5 568.232,-142.5 439.232,-142.5"/>
<text text-anchor="middle" x="503.732" y="-149.5" font-family="Helvetica,sans-Serif" font-size="10.00">boost/unordered_map.hpp</text>
</g>
<!-- Node26&#45;&gt;Node31 -->
<g id="edge48" class="edge"><title>Node26&#45;&gt;Node31</title>
<path fill="none" stroke="midnightblue" d="M710.617,-210.372C668.005,-198.555 591.424,-177.318 544.34,-164.261"/>
<polygon fill="midnightblue" stroke="midnightblue" points="545.048,-160.825 534.477,-161.526 543.178,-167.571 545.048,-160.825"/>
</g>
<!-- Node32 -->
<g id="node32" class="node"><title>Node32</title>
<polygon fill="white" stroke="#bfbfbf" points="586.232,-142.5 586.232,-161.5 637.232,-161.5 637.232,-142.5 586.232,-142.5"/>
<text text-anchor="middle" x="611.732" y="-149.5" font-family="Helvetica,sans-Serif" font-size="10.00">typeinfo</text>
</g>
<!-- Node26&#45;&gt;Node32 -->
<g id="edge49" class="edge"><title>Node26&#45;&gt;Node32</title>
<path fill="none" stroke="midnightblue" d="M724.736,-210.372C702.644,-199.156 663.836,-179.453 637.955,-166.314"/>
<polygon fill="midnightblue" stroke="midnightblue" points="639.232,-163.037 628.731,-161.63 636.063,-169.278 639.232,-163.037"/>
</g>
</g>
</svg>
        <g id="navigator" transform="translate(0 0)" fill="#404254">
                <rect fill="#f2f5e9" fill-opacity="0.5" stroke="#606060" stroke-width=".5" x="0" y="0" width="60" height="60"/>
                <use id="zoomplus" xlink:href="#zoomPlus" x="17" y="9" onmousedown="handleZoom(evt,'in')"/>
                <use id="zoomminus" xlink:href="#zoomMin" x="42" y="9" onmousedown="handleZoom(evt,'out')"/>
                <use id="reset" xlink:href="#resetDef" x="30" y="36" onmousedown="handleReset()"/>
                <g id="arrowUp" xlink:href="#dirArrow" transform="translate(30 24)" onmousedown="handlePan(0,-1)">
                  <use xlink:href="#rim" fill="#404040">
                        <set attributeName="fill" to="#808080" begin="arrowUp.mouseover" end="arrowUp.mouseout"/>
                  </use>
                  <path fill="none" stroke="white" stroke-width="1.5" d="M0,-3.0v7 M-2.5,-0.5L0,-3.0L2.5,-0.5"/>
                </g>
                <g id="arrowRight" xlink:href="#dirArrow" transform="rotate(90) translate(36 -43)" onmousedown="handlePan(1,0)">
                  <use xlink:href="#rim" fill="#404040">
                        <set attributeName="fill" to="#808080" begin="arrowRight.mouseover" end="arrowRight.mouseout"/>
                  </use>
                  <path fill="none" stroke="white" stroke-width="1.5" d="M0,-3.0v7 M-2.5,-0.5L0,-3.0L2.5,-0.5"/>
                </g>
                <g id="arrowDown" xlink:href="#dirArrow" transform="rotate(180) translate(-30 -48)" onmousedown="handlePan(0,1)">
                  <use xlink:href="#rim" fill="#404040">
                        <set attributeName="fill" to="#808080" begin="arrowDown.mouseover" end="arrowDown.mouseout"/>
                  </use>
                  <path fill="none" stroke="white" stroke-width="1.5" d="M0,-3.0v7 M-2.5,-0.5L0,-3.0L2.5,-0.5"/>
                </g>
                <g id="arrowLeft" xlink:href="#dirArrow" transform="rotate(270) translate(-36 17)" onmousedown="handlePan(-1,0)">
                  <use xlink:href="#rim" fill="#404040">
                        <set attributeName="fill" to="#808080" begin="arrowLeft.mouseover" end="arrowLeft.mouseout"/>
                  </use>
                  <path fill="none" stroke="white" stroke-width="1.5" d="M0,-3.0v7 M-2.5,-0.5L0,-3.0L2.5,-0.5"/>
                </g>
        </g>
        <svg viewBox="0 0 15 15" width="100%" height="30px" preserveAspectRatio="xMaxYMin meet">
         <g id="arrow_out" transform="scale(0.3 0.3)">
          <a xlink:href="GenTwoPartApp_8cpp__incl_org.svg" target="_base">
           <rect id="button" ry="5" rx="5" y="6" x="6" height="38" width="38"
                fill="#f2f5e9" fill-opacity="0.5" stroke="#606060" stroke-width="1.0"/>
           <path id="arrow"
             d="M 11.500037,31.436501 C 11.940474,20.09759 22.043105,11.32322 32.158766,21.979434 L 37.068811,17.246167 C 37.068811,17.246167 37.088388,32 37.088388,32 L 22.160133,31.978069 C 22.160133,31.978069 26.997745,27.140456 26.997745,27.140456 C 18.528582,18.264221 13.291696,25.230495 11.500037,31.436501 z"
             style="fill:#404040;"/>
          </a>
         </g>
        </svg>
</svg>
