<?xml version="1.0" encoding="UTF-8" standalone="no"?>
<!DOCTYPE svg PUBLIC "-//W3C//DTD SVG 1.1//EN"
 "http://www.w3.org/Graphics/SVG/1.1/DTD/svg11.dtd">
<!-- Generated by graphviz version 2.26.3 (20100126.1600)
 -->
<!-- Title: G Pages: 1 -->
<svg width="1101pt" height="1220pt"
 viewBox="0.00 0.00 1101.00 1220.00" xmlns="http://www.w3.org/2000/svg" xmlns:xlink="http://www.w3.org/1999/xlink">
<g id="graph1" class="graph" transform="scale(1 1) rotate(0) translate(4 1216)">
<title>G</title>
<polygon fill="white" stroke="white" points="-4,5 -4,-1216 1098,-1216 1098,5 -4,5"/>
<!-- Node1 -->
<g id="node1" class="node"><title>Node1</title>
<polygon fill="#bfbfbf" stroke="black" points="795.5,-1 795.5,-155 926.5,-155 926.5,-1 795.5,-1"/>
<text text-anchor="middle" x="861" y="-142" font-family="Helvetica,sans-Serif" font-size="10.00">ROOT::Minuit2::MinuitFcn</text>
<polyline fill="none" stroke="black" points="795.5,-134 926.5,-134 "/>
<text text-anchor="start" x="803.5" y="-121" font-family="Helvetica,sans-Serif" font-size="10.00">&#45; _myDataPtr</text>
<text text-anchor="start" x="803.5" y="-108" font-family="Helvetica,sans-Serif" font-size="10.00">&#45; _parList</text>
<text text-anchor="start" x="803.5" y="-95" font-family="Helvetica,sans-Serif" font-size="10.00">&#45; _parNames</text>
<polyline fill="none" stroke="black" points="795.5,-87 926.5,-87 "/>
<text text-anchor="start" x="803.5" y="-74" font-family="Helvetica,sans-Serif" font-size="10.00">+ MinuitFcn()</text>
<text text-anchor="start" x="803.5" y="-61" font-family="Helvetica,sans-Serif" font-size="10.00">+ ~MinuitFcn()</text>
<text text-anchor="start" x="803.5" y="-48" font-family="Helvetica,sans-Serif" font-size="10.00">+ operator()()</text>
<text text-anchor="start" x="803.5" y="-35" font-family="Helvetica,sans-Serif" font-size="10.00">+ Up()</text>
<text text-anchor="start" x="803.5" y="-22" font-family="Helvetica,sans-Serif" font-size="10.00">+ setNameID()</text>
<text text-anchor="start" x="803.5" y="-9" font-family="Helvetica,sans-Serif" font-size="10.00">+ parName()</text>
</g>
<!-- Node2 -->
<g id="node2" class="node"><title>Node2</title>
<polygon fill="white" stroke="#bfbfbf" points="918.5,-823 918.5,-899 1093.5,-899 1093.5,-823 918.5,-823"/>
<text text-anchor="middle" x="1006" y="-886" font-family="Helvetica,sans-Serif" font-size="10.00">std::map&lt; unsigned int, std::string &gt;</text>
<polyline fill="none" stroke="#bfbfbf" points="918.5,-878 1093.5,-878 "/>
<text text-anchor="start" x="926.5" y="-865" font-family="Helvetica,sans-Serif" font-size="10.00">&#45; keys</text>
<text text-anchor="start" x="926.5" y="-852" font-family="Helvetica,sans-Serif" font-size="10.00">&#45; elements</text>
<polyline fill="none" stroke="#bfbfbf" points="918.5,-844 1093.5,-844 "/>
<text text-anchor="middle" x="1006" y="-831" font-family="Helvetica,sans-Serif" font-size="10.00"> </text>
</g>
<!-- Node2&#45;&gt;Node1 -->
<g id="edge2" class="edge"><title>Node2&#45;&gt;Node1</title>
<path fill="none" stroke="#9a32cd" stroke-dasharray="5,2" d="M997.077,-812.813C972.731,-681.349 905.005,-315.627 875.288,-155.153"/>
<polygon fill="#9a32cd" stroke="#9a32cd" points="998.957,-822.97 992.712,-813.956 998.047,-818.053 997.136,-813.137 997.136,-813.137 997.136,-813.137 998.047,-818.053 1001.56,-812.317 998.957,-822.97 998.957,-822.97"/>
<text text-anchor="middle" x="1019.5" y="-502.5" font-family="Helvetica,sans-Serif" font-size="10.00">_parNames</text>
</g>
<!-- Node3 -->
<g id="node4" class="node"><title>Node3</title>
<a xlink:title="STL class.">
<polygon fill="white" stroke="#bfbfbf" points="872,-1046.5 872,-1109.5 932,-1109.5 932,-1046.5 872,-1046.5"/>
<text text-anchor="middle" x="902" y="-1096.5" font-family="Helvetica,sans-Serif" font-size="10.00">std::string</text>
<polyline fill="none" stroke="#bfbfbf" points="872,-1088.5 932,-1088.5 "/>
<text text-anchor="middle" x="902" y="-1075.5" font-family="Helvetica,sans-Serif" font-size="10.00"> </text>
<polyline fill="none" stroke="#bfbfbf" points="872,-1067.5 932,-1067.5 "/>
<text text-anchor="middle" x="902" y="-1054.5" font-family="Helvetica,sans-Serif" font-size="10.00"> </text>
</a>
</g>
<!-- Node3&#45;&gt;Node2 -->
<g id="edge4" class="edge"><title>Node3&#45;&gt;Node2</title>
<path fill="none" stroke="#9a32cd" stroke-dasharray="5,2" d="M940.473,-1055.95C961.386,-1041.72 985.474,-1021.18 998,-996 1012.95,-965.939 1013.7,-927.338 1011.44,-899.118"/>
<polygon fill="#9a32cd" stroke="#9a32cd" points="932.048,-1061.46 937.95,-1052.22 936.231,-1058.72 940.415,-1055.99 940.415,-1055.99 940.415,-1055.99 936.231,-1058.72 942.879,-1059.75 932.048,-1061.46 932.048,-1061.46"/>
<text text-anchor="middle" x="1006" y="-1018.5" font-family="Helvetica,sans-Serif" font-size="10.00">elements</text>
</g>
<!-- Node5 -->
<g id="node8" class="node"><title>Node5</title>
<a xlink:href="../../d1/d9d/classParameterList.xhtml" target="_top" xlink:title="Internal container representing a parameter list.">
<polygon fill="white" stroke="black" points="632.5,-207 632.5,-803 755.5,-803 755.5,-207 632.5,-207"/>
<text text-anchor="middle" x="694" y="-790" font-family="Helvetica,sans-Serif" font-size="10.00">ParameterList</text>
<polyline fill="none" stroke="black" points="632.5,-782 755.5,-782 "/>
<text text-anchor="start" x="640.5" y="-769" font-family="Helvetica,sans-Serif" font-size="10.00"># mDoubleParID_</text>
<text text-anchor="start" x="640.5" y="-756" font-family="Helvetica,sans-Serif" font-size="10.00"># mIntParID_</text>
<text text-anchor="start" x="640.5" y="-743" font-family="Helvetica,sans-Serif" font-size="10.00"># mBoolParID_</text>
<text text-anchor="start" x="640.5" y="-730" font-family="Helvetica,sans-Serif" font-size="10.00"># vDoublePar_</text>
<text text-anchor="start" x="640.5" y="-717" font-family="Helvetica,sans-Serif" font-size="10.00"># vIntPar_</text>
<text text-anchor="start" x="640.5" y="-704" font-family="Helvetica,sans-Serif" font-size="10.00"># vBoolPar_</text>
<text text-anchor="start" x="640.5" y="-691" font-family="Helvetica,sans-Serif" font-size="10.00"># out_</text>
<polyline fill="none" stroke="black" points="632.5,-683 755.5,-683 "/>
<text text-anchor="start" x="640.5" y="-670" font-family="Helvetica,sans-Serif" font-size="10.00">+ ParameterList()</text>
<text text-anchor="start" x="640.5" y="-657" font-family="Helvetica,sans-Serif" font-size="10.00">+ ParameterList()</text>
<text text-anchor="start" x="640.5" y="-644" font-family="Helvetica,sans-Serif" font-size="10.00">+ ParameterList()</text>
<text text-anchor="start" x="640.5" y="-631" font-family="Helvetica,sans-Serif" font-size="10.00">+ ParameterList()</text>
<text text-anchor="start" x="640.5" y="-618" font-family="Helvetica,sans-Serif" font-size="10.00">+ ParameterList()</text>
<text text-anchor="start" x="640.5" y="-605" font-family="Helvetica,sans-Serif" font-size="10.00">+ ParameterList()</text>
<text text-anchor="start" x="640.5" y="-592" font-family="Helvetica,sans-Serif" font-size="10.00">+ ~ParameterList()</text>
<text text-anchor="start" x="640.5" y="-579" font-family="Helvetica,sans-Serif" font-size="10.00">+ GetParameter()</text>
<text text-anchor="start" x="640.5" y="-566" font-family="Helvetica,sans-Serif" font-size="10.00">+ GetParameter()</text>
<text text-anchor="start" x="640.5" y="-553" font-family="Helvetica,sans-Serif" font-size="10.00">+ GetNParameter()</text>
<text text-anchor="start" x="640.5" y="-540" font-family="Helvetica,sans-Serif" font-size="10.00">+ GetNDouble()</text>
<text text-anchor="start" x="640.5" y="-527" font-family="Helvetica,sans-Serif" font-size="10.00">+ GetNInteger()</text>
<text text-anchor="start" x="640.5" y="-514" font-family="Helvetica,sans-Serif" font-size="10.00">+ GetNBool()</text>
<text text-anchor="start" x="640.5" y="-501" font-family="Helvetica,sans-Serif" font-size="10.00">+ GetDoubleParameter()</text>
<text text-anchor="start" x="640.5" y="-488" font-family="Helvetica,sans-Serif" font-size="10.00">+ GetIntegerParameter()</text>
<text text-anchor="start" x="640.5" y="-475" font-family="Helvetica,sans-Serif" font-size="10.00">+ GetBoolParameter()</text>
<text text-anchor="start" x="640.5" y="-462" font-family="Helvetica,sans-Serif" font-size="10.00">+ GetParameterValue()</text>
<text text-anchor="start" x="640.5" y="-449" font-family="Helvetica,sans-Serif" font-size="10.00">+ GetDoubleParameter()</text>
<text text-anchor="start" x="640.5" y="-436" font-family="Helvetica,sans-Serif" font-size="10.00">+ GetIntegerParameter()</text>
<text text-anchor="start" x="640.5" y="-423" font-family="Helvetica,sans-Serif" font-size="10.00">+ GetBoolParameter()</text>
<text text-anchor="start" x="640.5" y="-410" font-family="Helvetica,sans-Serif" font-size="10.00">+ GetParameterValue()</text>
<text text-anchor="start" x="640.5" y="-397" font-family="Helvetica,sans-Serif" font-size="10.00">+ SetParameterValue()</text>
<text text-anchor="start" x="640.5" y="-384" font-family="Helvetica,sans-Serif" font-size="10.00">+ SetParameterValue()</text>
<text text-anchor="start" x="640.5" y="-371" font-family="Helvetica,sans-Serif" font-size="10.00">+ SetParameterValue()</text>
<text text-anchor="start" x="640.5" y="-358" font-family="Helvetica,sans-Serif" font-size="10.00">+ AddParameter()</text>
<text text-anchor="start" x="640.5" y="-345" font-family="Helvetica,sans-Serif" font-size="10.00">+ AddParameter()</text>
<text text-anchor="start" x="640.5" y="-332" font-family="Helvetica,sans-Serif" font-size="10.00">+ AddParameter()</text>
<text text-anchor="start" x="640.5" y="-319" font-family="Helvetica,sans-Serif" font-size="10.00">+ AddParameter()</text>
<text text-anchor="start" x="640.5" y="-306" font-family="Helvetica,sans-Serif" font-size="10.00">+ RemoveDouble()</text>
<text text-anchor="start" x="640.5" y="-293" font-family="Helvetica,sans-Serif" font-size="10.00">+ RemoveInteger()</text>
<text text-anchor="start" x="640.5" y="-280" font-family="Helvetica,sans-Serif" font-size="10.00">+ RemoveBool()</text>
<text text-anchor="start" x="640.5" y="-267" font-family="Helvetica,sans-Serif" font-size="10.00">+ RemoveDouble()</text>
<text text-anchor="start" x="640.5" y="-254" font-family="Helvetica,sans-Serif" font-size="10.00">+ RemoveInteger()</text>
<text text-anchor="start" x="640.5" y="-241" font-family="Helvetica,sans-Serif" font-size="10.00">+ RemoveBool()</text>
<text text-anchor="start" x="640.5" y="-228" font-family="Helvetica,sans-Serif" font-size="10.00">+ to_str()</text>
<text text-anchor="start" x="640.5" y="-215" font-family="Helvetica,sans-Serif" font-size="10.00"># make_str()</text>
</a>
</g>
<!-- Node3&#45;&gt;Node5 -->
<g id="edge18" class="edge"><title>Node3&#45;&gt;Node5</title>
<path fill="none" stroke="#9a32cd" stroke-dasharray="5,2" d="M862.877,-1059.98C837.254,-1046.12 805.246,-1024.51 787,-996 764.874,-961.426 746.399,-885.328 731.898,-803.127"/>
<polygon fill="#9a32cd" stroke="#9a32cd" points="871.99,-1064.73 861.043,-1064.09 867.557,-1062.42 863.124,-1060.1 863.124,-1060.1 863.124,-1060.1 867.557,-1062.42 865.205,-1056.11 871.99,-1064.73 871.99,-1064.73"/>
<text text-anchor="middle" x="796.5" y="-954.5" font-family="Helvetica,sans-Serif" font-size="10.00">out_</text>
</g>
<!-- Node8 -->
<g id="node14" class="node"><title>Node8</title>
<polygon fill="white" stroke="#bfbfbf" points="814.5,-919 814.5,-995 989.5,-995 989.5,-919 814.5,-919"/>
<text text-anchor="middle" x="902" y="-982" font-family="Helvetica,sans-Serif" font-size="10.00">std::map&lt; std::string, unsigned int &gt;</text>
<polyline fill="none" stroke="#bfbfbf" points="814.5,-974 989.5,-974 "/>
<text text-anchor="start" x="822.5" y="-961" font-family="Helvetica,sans-Serif" font-size="10.00">&#45; keys</text>
<text text-anchor="start" x="822.5" y="-948" font-family="Helvetica,sans-Serif" font-size="10.00">&#45; elements</text>
<polyline fill="none" stroke="#bfbfbf" points="814.5,-940 989.5,-940 "/>
<text text-anchor="middle" x="902" y="-927" font-family="Helvetica,sans-Serif" font-size="10.00"> </text>
</g>
<!-- Node3&#45;&gt;Node8 -->
<g id="edge16" class="edge"><title>Node3&#45;&gt;Node8</title>
<path fill="none" stroke="#9a32cd" stroke-dasharray="5,2" d="M902,-1035.89C902,-1022.61 902,-1008.02 902,-995.036"/>
<polygon fill="#9a32cd" stroke="#9a32cd" points="902,-1046.21 897.5,-1036.21 902,-1041.21 902,-1036.21 902,-1036.21 902,-1036.21 902,-1041.21 906.5,-1036.21 902,-1046.21 902,-1046.21"/>
<text text-anchor="middle" x="913" y="-1018.5" font-family="Helvetica,sans-Serif" font-size="10.00">keys</text>
</g>
<!-- Node4 -->
<g id="node6" class="node"><title>Node4</title>
<a xlink:title="STL class.">
<polygon fill="white" stroke="#bfbfbf" points="839.5,-1148.5 839.5,-1211.5 964.5,-1211.5 964.5,-1148.5 839.5,-1148.5"/>
<text text-anchor="middle" x="902" y="-1198.5" font-family="Helvetica,sans-Serif" font-size="10.00">std::basic_string&lt; char &gt;</text>
<polyline fill="none" stroke="#bfbfbf" points="839.5,-1190.5 964.5,-1190.5 "/>
<text text-anchor="middle" x="902" y="-1177.5" font-family="Helvetica,sans-Serif" font-size="10.00"> </text>
<polyline fill="none" stroke="#bfbfbf" points="839.5,-1169.5 964.5,-1169.5 "/>
<text text-anchor="middle" x="902" y="-1156.5" font-family="Helvetica,sans-Serif" font-size="10.00"> </text>
</a>
</g>
<!-- Node4&#45;&gt;Node3 -->
<g id="edge6" class="edge"><title>Node4&#45;&gt;Node3</title>
<path fill="none" stroke="midnightblue" d="M902,-1138.19C902,-1128.67 902,-1118.71 902,-1109.69"/>
<polygon fill="none" stroke="midnightblue" points="898.5,-1138.29 902,-1148.29 905.5,-1138.29 898.5,-1138.29"/>
</g>
<!-- Node5&#45;&gt;Node1 -->
<g id="edge8" class="edge"><title>Node5&#45;&gt;Node1</title>
<path fill="none" stroke="#9a32cd" stroke-dasharray="5,2" d="M759.37,-337.857C784.025,-274.815 810.897,-206.109 830.813,-155.185"/>
<polygon fill="#9a32cd" stroke="#9a32cd" points="755.592,-347.517 755.043,-336.565 757.413,-342.861 759.234,-338.204 759.234,-338.204 759.234,-338.204 757.413,-342.861 763.425,-339.843 755.592,-347.517 755.592,-347.517"/>
<text text-anchor="middle" x="837.5" y="-178.5" font-family="Helvetica,sans-Serif" font-size="10.00">_parList</text>
</g>
<!-- Node6 -->
<g id="node10" class="node"><title>Node6</title>
<polygon fill="white" stroke="#bfbfbf" points="503.5,-925.5 503.5,-988.5 742.5,-988.5 742.5,-925.5 503.5,-925.5"/>
<text text-anchor="middle" x="623" y="-975.5" font-family="Helvetica,sans-Serif" font-size="10.00">std::vector&lt; std::shared_ptr&lt; IntegerParameter &gt; &gt;</text>
<polyline fill="none" stroke="#bfbfbf" points="503.5,-967.5 742.5,-967.5 "/>
<text text-anchor="start" x="511.5" y="-954.5" font-family="Helvetica,sans-Serif" font-size="10.00">&#45; elements</text>
<polyline fill="none" stroke="#bfbfbf" points="503.5,-946.5 742.5,-946.5 "/>
<text text-anchor="middle" x="623" y="-933.5" font-family="Helvetica,sans-Serif" font-size="10.00"> </text>
</g>
<!-- Node6&#45;&gt;Node5 -->
<g id="edge10" class="edge"><title>Node6&#45;&gt;Node5</title>
<path fill="none" stroke="#9a32cd" stroke-dasharray="5,2" d="M629.595,-915.016C634.017,-886.862 640.28,-846.99 647.181,-803.06"/>
<polygon fill="#9a32cd" stroke="#9a32cd" points="627.993,-925.216 625.099,-914.639 628.769,-920.277 629.544,-915.337 629.544,-915.337 629.544,-915.337 628.769,-920.277 633.99,-916.036 627.993,-925.216 627.993,-925.216"/>
<text text-anchor="middle" x="661.5" y="-858.5" font-family="Helvetica,sans-Serif" font-size="10.00">vIntPar_</text>
</g>
<!-- Node7 -->
<g id="node12" class="node"><title>Node7</title>
<polygon fill="white" stroke="#bfbfbf" points="0,-925.5 0,-988.5 240,-988.5 240,-925.5 0,-925.5"/>
<text text-anchor="middle" x="120" y="-975.5" font-family="Helvetica,sans-Serif" font-size="10.00">std::vector&lt; std::shared_ptr&lt; DoubleParameter &gt; &gt;</text>
<polyline fill="none" stroke="#bfbfbf" points="0,-967.5 240,-967.5 "/>
<text text-anchor="start" x="8" y="-954.5" font-family="Helvetica,sans-Serif" font-size="10.00">&#45; elements</text>
<polyline fill="none" stroke="#bfbfbf" points="0,-946.5 240,-946.5 "/>
<text text-anchor="middle" x="120" y="-933.5" font-family="Helvetica,sans-Serif" font-size="10.00"> </text>
</g>
<!-- Node7&#45;&gt;Node5 -->
<g id="edge12" class="edge"><title>Node7&#45;&gt;Node5</title>
<path fill="none" stroke="#9a32cd" stroke-dasharray="5,2" d="M168.504,-918.805C272.592,-836.84 517.235,-644.195 632.226,-553.644"/>
<polygon fill="#9a32cd" stroke="#9a32cd" points="160.363,-925.216 165.435,-915.494 164.291,-922.123 168.219,-919.03 168.219,-919.03 168.219,-919.03 164.291,-922.123 171.003,-922.565 160.363,-925.216 160.363,-925.216"/>
<text text-anchor="middle" x="317.5" y="-858.5" font-family="Helvetica,sans-Serif" font-size="10.00">vDoublePar_</text>
</g>
<!-- Node8&#45;&gt;Node5 -->
<g id="edge14" class="edge"><title>Node8&#45;&gt;Node5</title>
<path fill="none" stroke="#9a32cd" stroke-dasharray="5,2" d="M848.421,-911.105C845.387,-907.505 842.542,-903.791 840,-900 805.083,-847.931 777.176,-786.426 755.502,-727.648"/>
<polygon fill="#9a32cd" stroke="#9a32cd" points="855.326,-918.787 845.295,-914.358 851.984,-915.069 848.642,-911.35 848.642,-911.35 848.642,-911.35 851.984,-915.069 851.988,-908.342 855.326,-918.787 855.326,-918.787"/>
<text text-anchor="middle" x="875" y="-871.5" font-family="Helvetica,sans-Serif" font-size="10.00">mBoolParID_</text>
<text text-anchor="middle" x="875" y="-858.5" font-family="Helvetica,sans-Serif" font-size="10.00">mDoubleParID_</text>
<text text-anchor="middle" x="875" y="-845.5" font-family="Helvetica,sans-Serif" font-size="10.00">mIntParID_</text>
</g>
<!-- Node9 -->
<g id="node18" class="node"><title>Node9</title>
<polygon fill="white" stroke="#bfbfbf" points="257.5,-925.5 257.5,-988.5 486.5,-988.5 486.5,-925.5 257.5,-925.5"/>
<text text-anchor="middle" x="372" y="-975.5" font-family="Helvetica,sans-Serif" font-size="10.00">std::vector&lt; std::shared_ptr&lt; BoolParameter &gt; &gt;</text>
<polyline fill="none" stroke="#bfbfbf" points="257.5,-967.5 486.5,-967.5 "/>
<text text-anchor="start" x="265.5" y="-954.5" font-family="Helvetica,sans-Serif" font-size="10.00">&#45; elements</text>
<polyline fill="none" stroke="#bfbfbf" points="257.5,-946.5 486.5,-946.5 "/>
<text text-anchor="middle" x="372" y="-933.5" font-family="Helvetica,sans-Serif" font-size="10.00"> </text>
</g>
<!-- Node9&#45;&gt;Node5 -->
<g id="edge20" class="edge"><title>Node9&#45;&gt;Node5</title>
<path fill="none" stroke="#9a32cd" stroke-dasharray="5,2" d="M400.666,-916.76C452.498,-844.003 562.867,-689.076 632.464,-591.38"/>
<polygon fill="#9a32cd" stroke="#9a32cd" points="394.642,-925.216 396.78,-914.461 397.544,-921.144 400.445,-917.072 400.445,-917.072 400.445,-917.072 397.544,-921.144 404.11,-919.683 394.642,-925.216 394.642,-925.216"/>
<text text-anchor="middle" x="490" y="-858.5" font-family="Helvetica,sans-Serif" font-size="10.00">vBoolPar_</text>
</g>
</g>
</svg>
