<?xml version="1.0" encoding="UTF-8" standalone="no"?>
<!DOCTYPE svg PUBLIC "-//W3C//DTD SVG 1.1//EN"
 "http://www.w3.org/Graphics/SVG/1.1/DTD/svg11.dtd">
<!-- Generated by graphviz version 2.36.0 (20140111.2315)
 -->
<!-- Title: /home/travis/build/ComPWA/ComPWA/Optimizer/Geneva/GenevaIF.hpp Pages: 1 -->
<svg width="2040pt" height="466pt"
 viewBox="0.00 0.00 2040.00 466.00" xmlns="http://www.w3.org/2000/svg" xmlns:xlink="http://www.w3.org/1999/xlink">
<g id="graph0" class="graph" transform="scale(1 1) rotate(0) translate(4 462)">
<title>/home/travis/build/ComPWA/ComPWA/Optimizer/Geneva/GenevaIF.hpp</title>
<polygon fill="white" stroke="none" points="-4,4 -4,-462 2036,-462 2036,4 -4,4"/>
<!-- Node1 -->
<g id="node1" class="node"><title>Node1</title>
<polygon fill="#bfbfbf" stroke="black" points="1346,-416.5 1346,-457.5 1502,-457.5 1502,-416.5 1346,-416.5"/>
<text text-anchor="start" x="1354" y="-445.5" font-family="Helvetica,sans-Serif" font-size="10.00">/home/travis/build</text>
<text text-anchor="start" x="1354" y="-434.5" font-family="Helvetica,sans-Serif" font-size="10.00">/ComPWA/ComPWA/Optimizer</text>
<text text-anchor="middle" x="1424" y="-423.5" font-family="Helvetica,sans-Serif" font-size="10.00">/Geneva/GenevaIF.hpp</text>
</g>
<!-- Node2 -->
<g id="node2" class="node"><title>Node2</title>
<polygon fill="white" stroke="#bfbfbf" points="282,-6.5 282,-25.5 326,-25.5 326,-6.5 282,-6.5"/>
<text text-anchor="middle" x="304" y="-13.5" font-family="Helvetica,sans-Serif" font-size="10.00">vector</text>
</g>
<!-- Node1&#45;&gt;Node2 -->
<g id="edge1" class="edge"><title>Node1&#45;&gt;Node2</title>
<path fill="none" stroke="midnightblue" d="M1345.87,-434.123C1132.31,-428.643 541.917,-411.056 350,-380 242.602,-362.621 114,-423.795 114,-315 114,-315 114,-315 114,-139 114,-64.9473 217.459,-33.7525 271.688,-22.4877"/>
<polygon fill="midnightblue" stroke="midnightblue" points="272.696,-25.8568 281.833,-20.4937 271.345,-18.9883 272.696,-25.8568"/>
</g>
<!-- Node3 -->
<g id="node3" class="node"><title>Node3</title>
<polygon fill="white" stroke="#bfbfbf" points="1290,-6.5 1290,-25.5 1342,-25.5 1342,-6.5 1290,-6.5"/>
<text text-anchor="middle" x="1316" y="-13.5" font-family="Helvetica,sans-Serif" font-size="10.00">memory</text>
</g>
<!-- Node1&#45;&gt;Node3 -->
<g id="edge2" class="edge"><title>Node1&#45;&gt;Node3</title>
<path fill="none" stroke="midnightblue" d="M1502.23,-424.412C1563.7,-410.354 1639,-379.89 1639,-315 1639,-315 1639,-315 1639,-139 1639,-100.147 1620.78,-88.8554 1588,-68 1549.31,-43.3871 1417.11,-27.125 1352.34,-20.4438"/>
<polygon fill="midnightblue" stroke="midnightblue" points="1352.48,-16.9402 1342.18,-19.4173 1351.78,-23.9048 1352.48,-16.9402"/>
</g>
<!-- Node4 -->
<g id="node4" class="node"><title>Node4</title>
<polygon fill="white" stroke="#bfbfbf" points="1401,-68.5 1401,-87.5 1455,-87.5 1455,-68.5 1401,-68.5"/>
<text text-anchor="middle" x="1428" y="-75.5" font-family="Helvetica,sans-Serif" font-size="10.00">iostream</text>
</g>
<!-- Node1&#45;&gt;Node4 -->
<g id="edge3" class="edge"><title>Node1&#45;&gt;Node4</title>
<path fill="none" stroke="midnightblue" d="M1460.2,-416.425C1473.37,-407.255 1486.79,-395.009 1494,-380 1542.13,-279.855 1468.72,-144.086 1439.31,-96.4119"/>
<polygon fill="midnightblue" stroke="midnightblue" points="1442.2,-94.4431 1433.91,-87.8533 1436.28,-98.1783 1442.2,-94.4431"/>
</g>
<!-- Node5 -->
<g id="node5" class="node"><title>Node5</title>
<g id="a_node5"><a xlink:href="../../de/d1f/ControlParameter_8hpp.html" target="_top" xlink:title="This class provides the interface for the optimizer module to access the data. ">
<polygon fill="white" stroke="black" points="448,-304.5 448,-323.5 584,-323.5 584,-304.5 448,-304.5"/>
<text text-anchor="middle" x="516" y="-311.5" font-family="Helvetica,sans-Serif" font-size="10.00">Core/ControlParameter.hpp</text>
</a>
</g>
</g>
<!-- Node1&#45;&gt;Node5 -->
<g id="edge4" class="edge"><title>Node1&#45;&gt;Node5</title>
<path fill="none" stroke="midnightblue" d="M1345.99,-436.568C1167.25,-436.932 733.064,-432.228 598,-380 570.874,-369.511 545.607,-346.72 530.482,-331.116"/>
<polygon fill="midnightblue" stroke="midnightblue" points="532.934,-328.615 523.541,-323.715 527.828,-333.403 532.934,-328.615"/>
</g>
<!-- Node6 -->
<g id="node6" class="node"><title>Node6</title>
<g id="a_node6"><a xlink:href="../../df/d9f/ParameterList_8hpp.html" target="_top" xlink:title="This class provides a list of fit parameters which can have different types. ">
<polygon fill="white" stroke="red" points="716,-192.5 716,-211.5 836,-211.5 836,-192.5 716,-192.5"/>
<text text-anchor="middle" x="776" y="-199.5" font-family="Helvetica,sans-Serif" font-size="10.00">Core/ParameterList.hpp</text>
</a>
</g>
</g>
<!-- Node1&#45;&gt;Node6 -->
<g id="edge57" class="edge"><title>Node1&#45;&gt;Node6</title>
<path fill="none" stroke="midnightblue" d="M1369.59,-416.435C1239.58,-369.689 913.942,-252.6 809.087,-214.897"/>
<polygon fill="midnightblue" stroke="midnightblue" points="810.238,-211.592 799.643,-211.501 807.869,-218.179 810.238,-211.592"/>
</g>
<!-- Node13 -->
<g id="node13" class="node"><title>Node13</title>
<g id="a_node13"><a xlink:href="../../db/dce/Parameter_8hpp.html" target="_top" xlink:title="This class implements some internal container of parameters. ">
<polygon fill="white" stroke="red" points="521,-130.5 521,-149.5 625,-149.5 625,-130.5 521,-130.5"/>
<text text-anchor="middle" x="573" y="-137.5" font-family="Helvetica,sans-Serif" font-size="10.00">Core/Parameter.hpp</text>
</a>
</g>
</g>
<!-- Node1&#45;&gt;Node13 -->
<g id="edge58" class="edge"><title>Node1&#45;&gt;Node13</title>
<path fill="none" stroke="midnightblue" d="M1345.77,-432.486C1142.26,-422.308 612,-388.714 612,-315 612,-315 612,-315 612,-257 612,-220.519 594.455,-180.791 582.901,-158.583"/>
<polygon fill="midnightblue" stroke="midnightblue" points="585.929,-156.824 578.099,-149.687 579.769,-160.149 585.929,-156.824"/>
</g>
<!-- Node20 -->
<g id="node20" class="node"><title>Node20</title>
<g id="a_node20"><a xlink:href="../../db/d93/Optimizer_8hpp.html" target="_top" xlink:title="This class provides the interface to (external) optimization libraries or routines. ">
<polygon fill="white" stroke="black" points="1363,-360.5 1363,-379.5 1485,-379.5 1485,-360.5 1363,-360.5"/>
<text text-anchor="middle" x="1424" y="-367.5" font-family="Helvetica,sans-Serif" font-size="10.00">Optimizer/Optimizer.hpp</text>
</a>
</g>
</g>
<!-- Node1&#45;&gt;Node20 -->
<g id="edge45" class="edge"><title>Node1&#45;&gt;Node20</title>
<path fill="none" stroke="midnightblue" d="M1424,-416.498C1424,-408.065 1424,-398.235 1424,-389.874"/>
<polygon fill="midnightblue" stroke="midnightblue" points="1427.5,-389.652 1424,-379.652 1420.5,-389.653 1427.5,-389.652"/>
</g>
<!-- Node22 -->
<g id="node22" class="node"><title>Node22</title>
<g id="a_node22"><a xlink:href="../../df/dfa/GStartIndividual_8hpp.html" target="_top" xlink:title="Optimizer/Geneva/GStartIndividual.hpp">
<polygon fill="white" stroke="red" points="359.5,-360.5 359.5,-379.5 546.5,-379.5 546.5,-360.5 359.5,-360.5"/>
<text text-anchor="middle" x="453" y="-367.5" font-family="Helvetica,sans-Serif" font-size="10.00">Optimizer/Geneva/GStartIndividual.hpp</text>
</a>
</g>
</g>
<!-- Node1&#45;&gt;Node22 -->
<g id="edge59" class="edge"><title>Node1&#45;&gt;Node22</title>
<path fill="none" stroke="midnightblue" d="M1345.93,-431.443C1194.36,-422.485 849.681,-401.569 560,-380 558.908,-379.919 557.809,-379.836 556.706,-379.753"/>
<polygon fill="midnightblue" stroke="midnightblue" points="556.889,-376.257 546.65,-378.981 556.353,-383.236 556.889,-376.257"/>
</g>
<!-- Node23 -->
<g id="node23" class="node"><title>Node23</title>
<polygon fill="white" stroke="#bfbfbf" points="1667,-360.5 1667,-379.5 1801,-379.5 1801,-360.5 1667,-360.5"/>
<text text-anchor="middle" x="1734" y="-367.5" font-family="Helvetica,sans-Serif" font-size="10.00">boost/program_options.hpp</text>
</g>
<!-- Node1&#45;&gt;Node23 -->
<g id="edge66" class="edge"><title>Node1&#45;&gt;Node23</title>
<path fill="none" stroke="midnightblue" d="M1502.23,-419.598C1558.99,-407.695 1634.14,-391.938 1683.25,-381.64"/>
<polygon fill="midnightblue" stroke="midnightblue" points="1684.25,-385.007 1693.32,-379.529 1682.82,-378.156 1684.25,-385.007"/>
</g>
<!-- Node24 -->
<g id="node24" class="node"><title>Node24</title>
<polygon fill="white" stroke="#bfbfbf" points="1819.5,-360.5 1819.5,-379.5 1926.5,-379.5 1926.5,-360.5 1819.5,-360.5"/>
<text text-anchor="middle" x="1873" y="-367.5" font-family="Helvetica,sans-Serif" font-size="10.00">boost/filesystem.hpp</text>
</g>
<!-- Node1&#45;&gt;Node24 -->
<g id="edge67" class="edge"><title>Node1&#45;&gt;Node24</title>
<path fill="none" stroke="midnightblue" d="M1502.21,-424.678C1589.31,-412.068 1728.45,-391.925 1809.23,-380.232"/>
<polygon fill="midnightblue" stroke="midnightblue" points="1809.87,-383.676 1819.27,-378.779 1808.87,-376.748 1809.87,-383.676"/>
</g>
<!-- Node25 -->
<g id="node25" class="node"><title>Node25</title>
<polygon fill="white" stroke="#bfbfbf" points="1944,-360.5 1944,-379.5 2032,-379.5 2032,-360.5 1944,-360.5"/>
<text text-anchor="middle" x="1988" y="-367.5" font-family="Helvetica,sans-Serif" font-size="10.00">geneva/Go2.hpp</text>
</g>
<!-- Node1&#45;&gt;Node25 -->
<g id="edge68" class="edge"><title>Node1&#45;&gt;Node25</title>
<path fill="none" stroke="midnightblue" d="M1502.09,-428.888C1600.42,-419.608 1774.75,-402.081 1933.81,-380.096"/>
<polygon fill="midnightblue" stroke="midnightblue" points="1934.36,-383.554 1943.78,-378.709 1933.4,-376.62 1934.36,-383.554"/>
</g>
<!-- Node5&#45;&gt;Node2 -->
<g id="edge5" class="edge"><title>Node5&#45;&gt;Node2</title>
<path fill="none" stroke="midnightblue" d="M476.921,-304.437C414.217,-288.21 294.199,-246.206 255,-156 248.56,-141.181 259.181,-72.2593 261,-68 266.757,-54.5202 277.331,-41.9036 286.553,-32.5913"/>
<polygon fill="midnightblue" stroke="midnightblue" points="289.049,-35.0469 293.845,-25.5998 284.205,-29.9939 289.049,-35.0469"/>
</g>
<!-- Node5&#45;&gt;Node3 -->
<g id="edge6" class="edge"><title>Node5&#45;&gt;Node3</title>
<path fill="none" stroke="midnightblue" d="M584.396,-309.291C707.128,-301.191 971.84,-277.115 1185,-212 1240.52,-195.041 1265.9,-200.652 1303,-156 1331.44,-121.767 1325.77,-65.1284 1320.29,-35.8394"/>
<polygon fill="midnightblue" stroke="midnightblue" points="1323.65,-34.8204 1318.2,-25.7378 1316.8,-36.2398 1323.65,-34.8204"/>
</g>
<!-- Node5&#45;&gt;Node6 -->
<g id="edge7" class="edge"><title>Node5&#45;&gt;Node6</title>
<path fill="none" stroke="midnightblue" d="M536.284,-304.355C565.573,-291.878 621.417,-268.113 669,-248 695.077,-236.977 724.756,-224.501 746.231,-215.486"/>
<polygon fill="midnightblue" stroke="midnightblue" points="747.612,-218.702 755.478,-211.605 744.903,-212.247 747.612,-218.702"/>
</g>
<!-- Node18 -->
<g id="node18" class="node"><title>Node18</title>
<g id="a_node18"><a xlink:href="../../da/db2/FunctionTree_8hpp.html" target="_top" xlink:title="This class can be used to store a function in a tree&#45;like structure. ">
<polygon fill="white" stroke="red" points="413,-192.5 413,-211.5 529,-211.5 529,-192.5 413,-192.5"/>
<text text-anchor="middle" x="471" y="-199.5" font-family="Helvetica,sans-Serif" font-size="10.00">Core/FunctionTree.hpp</text>
</a>
</g>
</g>
<!-- Node5&#45;&gt;Node18 -->
<g id="edge33" class="edge"><title>Node5&#45;&gt;Node18</title>
<path fill="none" stroke="midnightblue" d="M512.469,-304.368C505.141,-286.456 488.15,-244.923 478.342,-220.948"/>
<polygon fill="midnightblue" stroke="midnightblue" points="481.54,-219.522 474.515,-211.591 475.062,-222.172 481.54,-219.522"/>
</g>
<!-- Node19 -->
<g id="node19" class="node"><title>Node19</title>
<g id="a_node19"><a xlink:href="../../dc/dfd/AmpIntensity_8hpp.html" target="_top" xlink:title="Core/AmpIntensity.hpp">
<polygon fill="white" stroke="red" points="678.5,-248.5 678.5,-267.5 795.5,-267.5 795.5,-248.5 678.5,-248.5"/>
<text text-anchor="middle" x="737" y="-255.5" font-family="Helvetica,sans-Serif" font-size="10.00">Core/AmpIntensity.hpp</text>
</a>
</g>
</g>
<!-- Node5&#45;&gt;Node19 -->
<g id="edge40" class="edge"><title>Node5&#45;&gt;Node19</title>
<path fill="none" stroke="midnightblue" d="M551.018,-304.444C589.248,-295.102 650.567,-280.119 692.257,-269.933"/>
<polygon fill="midnightblue" stroke="midnightblue" points="693.262,-273.29 702.146,-267.516 691.601,-266.49 693.262,-273.29"/>
</g>
<!-- Node6&#45;&gt;Node2 -->
<g id="edge12" class="edge"><title>Node6&#45;&gt;Node2</title>
<path fill="none" stroke="midnightblue" d="M780.088,-192.222C792.182,-165.64 825.912,-86.7061 809,-68 777.255,-32.8872 443.033,-20.7885 336.459,-17.8073"/>
<polygon fill="midnightblue" stroke="midnightblue" points="336.397,-14.3044 326.305,-17.5318 336.207,-21.3018 336.397,-14.3044"/>
</g>
<!-- Node6&#45;&gt;Node3 -->
<g id="edge10" class="edge"><title>Node6&#45;&gt;Node3</title>
<path fill="none" stroke="midnightblue" d="M836.125,-196.619C913.72,-190.228 1043.88,-176.797 1087,-156 1105.69,-146.985 1104.21,-136.2 1121,-124 1176.29,-83.8158 1248.34,-48.0483 1287.55,-29.7997"/>
<polygon fill="midnightblue" stroke="midnightblue" points="1289.16,-32.9103 1296.78,-25.5457 1286.23,-26.5531 1289.16,-32.9103"/>
</g>
<!-- Node6&#45;&gt;Node4 -->
<g id="edge8" class="edge"><title>Node6&#45;&gt;Node4</title>
<path fill="none" stroke="midnightblue" d="M836.196,-196.824C920.936,-190.323 1070.68,-176.375 1121,-156 1143.08,-147.059 1142.1,-133.371 1164,-124 1240.18,-91.4036 1338.24,-82.3831 1390.8,-79.9108"/>
<polygon fill="midnightblue" stroke="midnightblue" points="1391.14,-83.3995 1400.99,-79.4875 1390.85,-76.4056 1391.14,-83.3995"/>
</g>
<!-- Node7 -->
<g id="node7" class="node"><title>Node7</title>
<polygon fill="white" stroke="#bfbfbf" points="131.5,-6.5 131.5,-25.5 172.5,-25.5 172.5,-6.5 131.5,-6.5"/>
<text text-anchor="middle" x="152" y="-13.5" font-family="Helvetica,sans-Serif" font-size="10.00">string</text>
</g>
<!-- Node6&#45;&gt;Node7 -->
<g id="edge9" class="edge"><title>Node6&#45;&gt;Node7</title>
<path fill="none" stroke="midnightblue" d="M715.748,-199.004C646.435,-195.358 529.852,-185.062 434,-156 381.057,-139.947 235.137,-62.1597 176.685,-30.4729"/>
<polygon fill="midnightblue" stroke="midnightblue" points="178.225,-27.3266 167.768,-25.6281 174.884,-33.4774 178.225,-27.3266"/>
</g>
<!-- Node8 -->
<g id="node8" class="node"><title>Node8</title>
<polygon fill="white" stroke="#bfbfbf" points="458,-68.5 458,-87.5 510,-87.5 510,-68.5 458,-68.5"/>
<text text-anchor="middle" x="484" y="-75.5" font-family="Helvetica,sans-Serif" font-size="10.00">sstream</text>
</g>
<!-- Node6&#45;&gt;Node8 -->
<g id="edge11" class="edge"><title>Node6&#45;&gt;Node8</title>
<path fill="none" stroke="midnightblue" d="M715.704,-197.663C647.555,-192.721 542.164,-181.172 512,-156 494.717,-141.577 488.102,-115.562 485.57,-97.7977"/>
<polygon fill="midnightblue" stroke="midnightblue" points="489.036,-97.2979 484.443,-87.7503 482.08,-98.0781 489.036,-97.2979"/>
</g>
<!-- Node9 -->
<g id="node9" class="node"><title>Node9</title>
<polygon fill="white" stroke="#bfbfbf" points="277.5,-130.5 277.5,-149.5 312.5,-149.5 312.5,-130.5 277.5,-130.5"/>
<text text-anchor="middle" x="295" y="-137.5" font-family="Helvetica,sans-Serif" font-size="10.00">map</text>
</g>
<!-- Node6&#45;&gt;Node9 -->
<g id="edge13" class="edge"><title>Node6&#45;&gt;Node9</title>
<path fill="none" stroke="midnightblue" d="M715.844,-196.349C635.536,-189.699 489.01,-176.022 365,-156 351.005,-153.74 335.584,-150.517 322.787,-147.636"/>
<polygon fill="midnightblue" stroke="midnightblue" points="323.274,-144.157 312.743,-145.326 321.705,-150.979 323.274,-144.157"/>
</g>
<!-- Node10 -->
<g id="node10" class="node"><title>Node10</title>
<polygon fill="white" stroke="#bfbfbf" points="1173.5,-125 1173.5,-155 1268.5,-155 1268.5,-125 1173.5,-125"/>
<text text-anchor="start" x="1181.5" y="-143" font-family="Helvetica,sans-Serif" font-size="10.00">boost/serialization</text>
<text text-anchor="middle" x="1221" y="-132" font-family="Helvetica,sans-Serif" font-size="10.00">/vector.hpp</text>
</g>
<!-- Node6&#45;&gt;Node10 -->
<g id="edge14" class="edge"><title>Node6&#45;&gt;Node10</title>
<path fill="none" stroke="midnightblue" d="M836.035,-196.2C911.72,-189.632 1045.65,-176.295 1159,-156 1160.46,-155.738 1161.95,-155.462 1163.44,-155.174"/>
<polygon fill="midnightblue" stroke="midnightblue" points="1164.3,-158.57 1173.4,-153.13 1162.9,-151.713 1164.3,-158.57"/>
</g>
<!-- Node11 -->
<g id="node11" class="node"><title>Node11</title>
<polygon fill="white" stroke="#bfbfbf" points="754.5,-1 754.5,-31 849.5,-31 849.5,-1 754.5,-1"/>
<text text-anchor="start" x="762.5" y="-19" font-family="Helvetica,sans-Serif" font-size="10.00">boost/serialization</text>
<text text-anchor="middle" x="802" y="-8" font-family="Helvetica,sans-Serif" font-size="10.00">/shared_ptr.hpp</text>
</g>
<!-- Node6&#45;&gt;Node11 -->
<g id="edge15" class="edge"><title>Node6&#45;&gt;Node11</title>
<path fill="none" stroke="midnightblue" d="M783.26,-192.371C797.859,-174.387 830.367,-130.983 842,-88 844.322,-79.4198 844.902,-76.4019 842,-68 838.325,-57.3606 831.415,-47.2489 824.359,-38.8771"/>
<polygon fill="midnightblue" stroke="midnightblue" points="826.941,-36.5143 817.65,-31.4231 821.738,-41.1973 826.941,-36.5143"/>
</g>
<!-- Node12 -->
<g id="node12" class="node"><title>Node12</title>
<g id="a_node12"><a xlink:href="../../d8/def/AbsParameter_8hpp.html" target="_top" xlink:title="This class defines the internal container of a parameter. ">
<polygon fill="white" stroke="red" points="678,-68.5 678,-87.5 800,-87.5 800,-68.5 678,-68.5"/>
<text text-anchor="middle" x="739" y="-75.5" font-family="Helvetica,sans-Serif" font-size="10.00">Core/AbsParameter.hpp</text>
</a>
</g>
</g>
<!-- Node6&#45;&gt;Node12 -->
<g id="edge16" class="edge"><title>Node6&#45;&gt;Node12</title>
<path fill="none" stroke="midnightblue" d="M770.62,-192.372C765.358,-183.552 757.498,-169.298 753,-156 746.484,-136.736 742.802,-113.677 740.867,-97.8459"/>
<polygon fill="midnightblue" stroke="midnightblue" points="744.329,-97.3082 739.751,-87.7532 737.371,-98.0772 744.329,-97.3082"/>
</g>
<!-- Node6&#45;&gt;Node13 -->
<g id="edge21" class="edge"><title>Node6&#45;&gt;Node13</title>
<path fill="none" stroke="midnightblue" d="M746.915,-192.403C711.415,-181.911 651.255,-164.129 611.826,-152.476"/>
<polygon fill="midnightblue" stroke="midnightblue" points="612.613,-149.059 602.031,-149.581 610.629,-155.772 612.613,-149.059"/>
</g>
<!-- Node14 -->
<g id="node14" class="node"><title>Node14</title>
<g id="a_node14"><a xlink:href="../../d2/de9/Exceptions_8hpp.html" target="_top" xlink:title="This class defines the ComPWA exception base&#45;class and provides a set of standard exceptions...">
<polygon fill="white" stroke="red" points="332,-68.5 332,-87.5 440,-87.5 440,-68.5 332,-68.5"/>
<text text-anchor="middle" x="386" y="-75.5" font-family="Helvetica,sans-Serif" font-size="10.00">Core/Exceptions.hpp</text>
</a>
</g>
</g>
<!-- Node6&#45;&gt;Node14 -->
<g id="edge29" class="edge"><title>Node6&#45;&gt;Node14</title>
<path fill="none" stroke="midnightblue" d="M715.723,-199.938C656.007,-196.984 563.017,-187.184 489,-156 454.434,-141.437 420.878,-112.827 401.892,-94.8782"/>
<polygon fill="midnightblue" stroke="midnightblue" points="404.308,-92.3462 394.687,-87.9106 399.442,-97.3783 404.308,-92.3462"/>
</g>
<!-- Node15 -->
<g id="node15" class="node"><title>Node15</title>
<g id="a_node15"><a xlink:href="../../da/db4/Logging_8hpp.html" target="_top" xlink:title="Core/Logging.hpp">
<polygon fill="white" stroke="red" points="566.5,-68.5 566.5,-87.5 659.5,-87.5 659.5,-68.5 566.5,-68.5"/>
<text text-anchor="middle" x="613" y="-75.5" font-family="Helvetica,sans-Serif" font-size="10.00">Core/Logging.hpp</text>
</a>
</g>
</g>
<!-- Node6&#45;&gt;Node15 -->
<g id="edge30" class="edge"><title>Node6&#45;&gt;Node15</title>
<path fill="none" stroke="midnightblue" d="M764.538,-192.421C737.132,-171.908 667.528,-119.813 633.022,-93.9858"/>
<polygon fill="midnightblue" stroke="midnightblue" points="634.771,-90.9227 624.667,-87.7326 630.576,-96.5269 634.771,-90.9227"/>
</g>
<!-- Node16 -->
<g id="node16" class="node"><title>Node16</title>
<polygon fill="white" stroke="#bfbfbf" points="871,-130.5 871,-149.5 965,-149.5 965,-130.5 871,-130.5"/>
<text text-anchor="middle" x="918" y="-137.5" font-family="Helvetica,sans-Serif" font-size="10.00">boost/version.hpp</text>
</g>
<!-- Node6&#45;&gt;Node16 -->
<g id="edge31" class="edge"><title>Node6&#45;&gt;Node16</title>
<path fill="none" stroke="midnightblue" d="M796.345,-192.403C820.387,-182.245 860.597,-165.255 888.163,-153.607"/>
<polygon fill="midnightblue" stroke="midnightblue" points="889.843,-156.697 897.693,-149.581 887.119,-150.249 889.843,-156.697"/>
</g>
<!-- Node17 -->
<g id="node17" class="node"><title>Node17</title>
<polygon fill="white" stroke="#bfbfbf" points="983.5,-125 983.5,-155 1078.5,-155 1078.5,-125 983.5,-125"/>
<text text-anchor="start" x="991.5" y="-143" font-family="Helvetica,sans-Serif" font-size="10.00">boost/serialization</text>
<text text-anchor="middle" x="1031" y="-132" font-family="Helvetica,sans-Serif" font-size="10.00">/split_free.hpp</text>
</g>
<!-- Node6&#45;&gt;Node17 -->
<g id="edge32" class="edge"><title>Node6&#45;&gt;Node17</title>
<path fill="none" stroke="midnightblue" d="M815.538,-192.427C853.538,-184.096 912.816,-170.859 973.668,-156.035"/>
<polygon fill="midnightblue" stroke="midnightblue" points="974.563,-159.42 983.445,-153.643 972.9,-152.62 974.563,-159.42"/>
</g>
<!-- Node12&#45;&gt;Node2 -->
<g id="edge18" class="edge"><title>Node12&#45;&gt;Node2</title>
<path fill="none" stroke="midnightblue" d="M677.598,-68.5307C584.039,-55.626 409.033,-31.4873 336.638,-21.5018"/>
<polygon fill="midnightblue" stroke="midnightblue" points="336.71,-17.9786 326.325,-20.0793 335.753,-24.913 336.71,-17.9786"/>
</g>
<!-- Node12&#45;&gt;Node3 -->
<g id="edge19" class="edge"><title>Node12&#45;&gt;Node3</title>
<path fill="none" stroke="midnightblue" d="M800.203,-70.6358C920.272,-58.1502 1183.39,-30.7901 1279.73,-20.7719"/>
<polygon fill="midnightblue" stroke="midnightblue" points="1280.26,-24.2356 1289.84,-19.72 1279.53,-17.2732 1280.26,-24.2356"/>
</g>
<!-- Node12&#45;&gt;Node7 -->
<g id="edge17" class="edge"><title>Node12&#45;&gt;Node7</title>
<path fill="none" stroke="midnightblue" d="M677.825,-69.1067C674.503,-68.7214 671.212,-68.3498 668,-68 492.753,-48.9129 448.273,-50.8461 273,-32 242.2,-28.6882 207.072,-24.261 182.63,-21.0759"/>
<polygon fill="midnightblue" stroke="midnightblue" points="182.9,-17.5814 172.53,-19.7511 181.99,-24.5219 182.9,-17.5814"/>
</g>
<!-- Node12&#45;&gt;Node11 -->
<g id="edge20" class="edge"><title>Node12&#45;&gt;Node11</title>
<path fill="none" stroke="midnightblue" d="M748.026,-68.4035C756.32,-60.5051 768.949,-48.4768 779.907,-38.0409"/>
<polygon fill="midnightblue" stroke="midnightblue" points="782.325,-40.5719 787.152,-31.1408 777.497,-35.5029 782.325,-40.5719"/>
</g>
<!-- Node13&#45;&gt;Node4 -->
<g id="edge22" class="edge"><title>Node13&#45;&gt;Node4</title>
<path fill="none" stroke="midnightblue" d="M625.197,-135.337C783.167,-124.251 1253.64,-91.2358 1390.35,-81.6419"/>
<polygon fill="midnightblue" stroke="midnightblue" points="1390.98,-85.1064 1400.71,-80.9149 1390.49,-78.1236 1390.98,-85.1064"/>
</g>
<!-- Node13&#45;&gt;Node7 -->
<g id="edge23" class="edge"><title>Node13&#45;&gt;Node7</title>
<path fill="none" stroke="midnightblue" d="M569.147,-130.238C561.841,-114.771 544.398,-82.8578 519,-68 511.713,-63.7369 269.442,-32.1519 182.595,-20.9366"/>
<polygon fill="midnightblue" stroke="midnightblue" points="182.933,-17.4514 172.567,-19.6431 182.037,-24.3938 182.933,-17.4514"/>
</g>
<!-- Node13&#45;&gt;Node8 -->
<g id="edge24" class="edge"><title>Node13&#45;&gt;Node8</title>
<path fill="none" stroke="midnightblue" d="M560.248,-130.403C545.973,-120.78 522.603,-105.024 505.492,-93.4891"/>
<polygon fill="midnightblue" stroke="midnightblue" points="506.976,-90.2684 496.728,-87.5806 503.063,-96.0727 506.976,-90.2684"/>
</g>
<!-- Node13&#45;&gt;Node12 -->
<g id="edge25" class="edge"><title>Node13&#45;&gt;Node12</title>
<path fill="none" stroke="midnightblue" d="M596.784,-130.403C625.382,-120.067 673.551,-102.656 705.802,-90.9994"/>
<polygon fill="midnightblue" stroke="midnightblue" points="707.046,-94.2715 715.26,-87.5806 704.666,-87.6883 707.046,-94.2715"/>
</g>
<!-- Node13&#45;&gt;Node14 -->
<g id="edge26" class="edge"><title>Node13&#45;&gt;Node14</title>
<path fill="none" stroke="midnightblue" d="M546.207,-130.403C513.714,-119.978 458.792,-102.356 422.462,-90.6992"/>
<polygon fill="midnightblue" stroke="midnightblue" points="423.334,-87.3031 412.743,-87.5806 421.195,-93.9685 423.334,-87.3031"/>
</g>
<!-- Node13&#45;&gt;Node15 -->
<g id="edge28" class="edge"><title>Node13&#45;&gt;Node15</title>
<path fill="none" stroke="midnightblue" d="M578.731,-130.403C584.672,-121.493 594.117,-107.325 601.588,-96.1177"/>
<polygon fill="midnightblue" stroke="midnightblue" points="604.645,-97.8426 607.28,-87.5806 598.82,-93.9596 604.645,-97.8426"/>
</g>
<!-- Node14&#45;&gt;Node7 -->
<g id="edge27" class="edge"><title>Node14&#45;&gt;Node7</title>
<path fill="none" stroke="midnightblue" d="M352.474,-68.4035C306.963,-56.7341 226.292,-36.0493 182.439,-24.8049"/>
<polygon fill="midnightblue" stroke="midnightblue" points="183.195,-21.3856 172.639,-22.2921 181.457,-28.1663 183.195,-21.3856"/>
</g>
<!-- Node18&#45;&gt;Node2 -->
<g id="edge34" class="edge"><title>Node18&#45;&gt;Node2</title>
<path fill="none" stroke="midnightblue" d="M457.433,-192.298C424.435,-170.886 341.348,-115.398 323,-88 312.476,-72.2855 307.769,-50.9673 305.672,-35.802"/>
<polygon fill="midnightblue" stroke="midnightblue" points="309.12,-35.1447 304.523,-25.5992 302.164,-35.928 309.12,-35.1447"/>
</g>
<!-- Node18&#45;&gt;Node3 -->
<g id="edge35" class="edge"><title>Node18&#45;&gt;Node3</title>
<path fill="none" stroke="midnightblue" d="M510.061,-192.494C652.415,-161.497 1142.25,-54.8352 1279.81,-24.8801"/>
<polygon fill="midnightblue" stroke="midnightblue" points="1280.81,-28.2454 1289.83,-22.6978 1279.32,-21.4057 1280.81,-28.2454"/>
</g>
<!-- Node18&#45;&gt;Node7 -->
<g id="edge36" class="edge"><title>Node18&#45;&gt;Node7</title>
<path fill="none" stroke="midnightblue" d="M446.687,-192.485C424.71,-184.371 391.793,-171.168 365,-156 343.958,-144.088 343.162,-133.672 321,-124 245.028,-90.843 190.654,-152.021 138,-88 125.692,-73.0354 133.294,-50.3343 141.284,-34.6487"/>
<polygon fill="midnightblue" stroke="midnightblue" points="144.569,-35.9439 146.386,-25.5059 138.457,-32.5331 144.569,-35.9439"/>
</g>
<!-- Node18&#45;&gt;Node9 -->
<g id="edge37" class="edge"><title>Node18&#45;&gt;Node9</title>
<path fill="none" stroke="midnightblue" d="M439.399,-192.46C409.938,-184.185 364.964,-170.751 327,-156 325.156,-155.283 323.268,-154.509 321.378,-153.703"/>
<polygon fill="midnightblue" stroke="midnightblue" points="322.642,-150.435 312.086,-149.531 319.774,-156.82 322.642,-150.435"/>
</g>
<!-- Node18&#45;&gt;Node12 -->
<g id="edge38" class="edge"><title>Node18&#45;&gt;Node12</title>
<path fill="none" stroke="midnightblue" d="M519.367,-192.464C552.699,-185.442 597.407,-173.724 634,-156 668.001,-139.531 702.358,-111.749 722.115,-94.443"/>
<polygon fill="midnightblue" stroke="midnightblue" points="724.509,-96.9979 729.645,-87.7312 719.851,-91.7723 724.509,-96.9979"/>
</g>
<!-- Node18&#45;&gt;Node13 -->
<g id="edge39" class="edge"><title>Node18&#45;&gt;Node13</title>
<path fill="none" stroke="midnightblue" d="M485.614,-192.403C502.353,-182.557 530.004,-166.291 549.719,-154.695"/>
<polygon fill="midnightblue" stroke="midnightblue" points="551.568,-157.668 558.413,-149.581 548.019,-151.634 551.568,-157.668"/>
</g>
<!-- Node19&#45;&gt;Node2 -->
<g id="edge41" class="edge"><title>Node19&#45;&gt;Node2</title>
<path fill="none" stroke="midnightblue" d="M678.389,-254.078C562.931,-246.877 313.303,-223.648 268,-156 242.203,-117.48 272.887,-61.5684 291.603,-33.8638"/>
<polygon fill="midnightblue" stroke="midnightblue" points="294.512,-35.8114 297.392,-25.6156 288.782,-31.7898 294.512,-35.8114"/>
</g>
<!-- Node19&#45;&gt;Node3 -->
<g id="edge42" class="edge"><title>Node19&#45;&gt;Node3</title>
<path fill="none" stroke="midnightblue" d="M795.921,-253.674C920.964,-245.431 1207.17,-219.904 1277,-156 1311.27,-124.643 1316.36,-65.8411 1316.56,-35.7634"/>
<polygon fill="midnightblue" stroke="midnightblue" points="1320.06,-35.7194 1316.45,-25.7594 1313.06,-35.7981 1320.06,-35.7194"/>
</g>
<!-- Node19&#45;&gt;Node6 -->
<g id="edge43" class="edge"><title>Node19&#45;&gt;Node6</title>
<path fill="none" stroke="midnightblue" d="M743.44,-248.083C748.949,-240.455 757.031,-229.264 763.765,-219.941"/>
<polygon fill="midnightblue" stroke="midnightblue" points="766.662,-221.907 769.68,-211.751 760.987,-217.809 766.662,-221.907"/>
</g>
<!-- Node19&#45;&gt;Node18 -->
<g id="edge44" class="edge"><title>Node19&#45;&gt;Node18</title>
<path fill="none" stroke="midnightblue" d="M694.852,-248.444C648.254,-238.984 573.156,-223.738 522.955,-213.547"/>
<polygon fill="midnightblue" stroke="midnightblue" points="523.448,-210.076 512.951,-211.516 522.055,-216.936 523.448,-210.076"/>
</g>
<!-- Node20&#45;&gt;Node2 -->
<g id="edge46" class="edge"><title>Node20&#45;&gt;Node2</title>
<path fill="none" stroke="midnightblue" d="M1429.38,-360.333C1453.38,-320.525 1545.83,-153.503 1464,-68 1453.97,-57.5192 523.302,-24.6249 336.452,-18.1229"/>
<polygon fill="midnightblue" stroke="midnightblue" points="336.3,-14.6156 326.184,-17.7662 336.057,-21.6114 336.3,-14.6156"/>
</g>
<!-- Node20&#45;&gt;Node3 -->
<g id="edge47" class="edge"><title>Node20&#45;&gt;Node3</title>
<path fill="none" stroke="midnightblue" d="M1465.68,-360.459C1489.45,-353.831 1518.49,-342.549 1539,-324 1583.82,-283.473 1601,-263.426 1601,-203 1601,-203 1601,-203 1601,-139 1601,-31.9508 1428.97,-17.5995 1352.22,-16.5235"/>
<polygon fill="midnightblue" stroke="midnightblue" points="1352.07,-13.0225 1342.05,-16.4515 1352.02,-20.0223 1352.07,-13.0225"/>
</g>
<!-- Node20&#45;&gt;Node6 -->
<g id="edge48" class="edge"><title>Node20&#45;&gt;Node6</title>
<path fill="none" stroke="midnightblue" d="M1369.96,-360.494C1340.6,-353.978 1304.73,-342.796 1277,-324 1241.15,-299.696 1254.05,-268.696 1216,-248 1154,-214.277 954.179,-205.782 846.426,-203.672"/>
<polygon fill="midnightblue" stroke="midnightblue" points="846.355,-200.17 836.293,-203.487 846.227,-207.169 846.355,-200.17"/>
</g>
<!-- Node21 -->
<g id="node21" class="node"><title>Node21</title>
<g id="a_node21"><a xlink:href="../../de/d88/FitResult_8hpp.html" target="_top" xlink:title="Core/FitResult.hpp">
<polygon fill="white" stroke="red" points="1286.5,-304.5 1286.5,-323.5 1385.5,-323.5 1385.5,-304.5 1286.5,-304.5"/>
<text text-anchor="middle" x="1336" y="-311.5" font-family="Helvetica,sans-Serif" font-size="10.00">Core/FitResult.hpp</text>
</a>
</g>
</g>
<!-- Node20&#45;&gt;Node21 -->
<g id="edge49" class="edge"><title>Node20&#45;&gt;Node21</title>
<path fill="none" stroke="midnightblue" d="M1409.86,-360.324C1396.13,-351.9 1375.06,-338.971 1358.94,-329.074"/>
<polygon fill="midnightblue" stroke="midnightblue" points="1360.46,-325.902 1350.1,-323.655 1356.8,-331.868 1360.46,-325.902"/>
</g>
<!-- Node21&#45;&gt;Node2 -->
<g id="edge50" class="edge"><title>Node21&#45;&gt;Node2</title>
<path fill="none" stroke="midnightblue" d="M1340.99,-304.49C1351.09,-286.436 1373,-242.693 1373,-203 1373,-203 1373,-203 1373,-139 1373,-85.4563 515.243,-29.9457 336.424,-18.955"/>
<polygon fill="midnightblue" stroke="midnightblue" points="336.523,-15.4547 326.328,-18.3376 336.095,-22.4416 336.523,-15.4547"/>
</g>
<!-- Node21&#45;&gt;Node3 -->
<g id="edge53" class="edge"><title>Node21&#45;&gt;Node3</title>
<path fill="none" stroke="midnightblue" d="M1356.01,-304.461C1371.56,-296.91 1392.66,-284.526 1406,-268 1464.13,-195.983 1517.74,-143.354 1464,-68 1438.83,-32.707 1387.57,-21.5948 1352.51,-18.2322"/>
<polygon fill="midnightblue" stroke="midnightblue" points="1352.43,-14.7157 1342.19,-17.4192 1351.88,-21.6941 1352.43,-14.7157"/>
</g>
<!-- Node21&#45;&gt;Node4 -->
<g id="edge52" class="edge"><title>Node21&#45;&gt;Node4</title>
<path fill="none" stroke="midnightblue" d="M1349.91,-304.418C1361.64,-296.441 1377.92,-283.479 1387,-268 1419.67,-212.325 1426.4,-133.671 1427.72,-97.9584"/>
<polygon fill="midnightblue" stroke="midnightblue" points="1431.23,-97.6765 1427.99,-87.5885 1424.23,-97.4937 1431.23,-97.6765"/>
</g>
<!-- Node21&#45;&gt;Node6 -->
<g id="edge56" class="edge"><title>Node21&#45;&gt;Node6</title>
<path fill="none" stroke="midnightblue" d="M1328.42,-304.373C1315.06,-289.82 1285.69,-260.733 1254,-248 1181.83,-219.002 960.87,-208.369 846.398,-204.735"/>
<polygon fill="midnightblue" stroke="midnightblue" points="846.435,-201.234 836.332,-204.424 846.219,-208.231 846.435,-201.234"/>
</g>
<!-- Node21&#45;&gt;Node7 -->
<g id="edge51" class="edge"><title>Node21&#45;&gt;Node7</title>
<path fill="none" stroke="midnightblue" d="M1286.23,-311.611C1106.99,-306.068 495.618,-282.307 315,-212 222.069,-175.826 175.164,-175.865 128,-88 118.623,-70.5312 128.912,-48.7038 138.777,-33.8953"/>
<polygon fill="midnightblue" stroke="midnightblue" points="141.686,-35.8451 144.686,-25.6837 136.004,-31.7567 141.686,-35.8451"/>
</g>
<!-- Node21&#45;&gt;Node10 -->
<g id="edge54" class="edge"><title>Node21&#45;&gt;Node10</title>
<path fill="none" stroke="midnightblue" d="M1330.14,-304.234C1312.85,-278.376 1261.67,-201.831 1236.02,-163.459"/>
<polygon fill="midnightblue" stroke="midnightblue" points="1238.84,-161.379 1230.37,-155.012 1233.02,-165.27 1238.84,-161.379"/>
</g>
<!-- Node21&#45;&gt;Node19 -->
<g id="edge55" class="edge"><title>Node21&#45;&gt;Node19</title>
<path fill="none" stroke="midnightblue" d="M1286.47,-308.535C1179.74,-298.913 927.827,-276.203 805.729,-265.196"/>
<polygon fill="midnightblue" stroke="midnightblue" points="806.019,-261.708 795.745,-264.296 805.39,-268.68 806.019,-261.708"/>
</g>
<!-- Node22&#45;&gt;Node2 -->
<g id="edge62" class="edge"><title>Node22&#45;&gt;Node2</title>
<path fill="none" stroke="midnightblue" d="M405.502,-360.482C325.617,-344.791 173,-308.355 173,-259 173,-259 173,-259 173,-201 173,-125.853 246.409,-60.1043 283.322,-31.7938"/>
<polygon fill="midnightblue" stroke="midnightblue" points="285.528,-34.514 291.439,-25.7212 281.335,-28.9088 285.528,-34.514"/>
</g>
<!-- Node22&#45;&gt;Node4 -->
<g id="edge60" class="edge"><title>Node22&#45;&gt;Node4</title>
<path fill="none" stroke="midnightblue" d="M546.659,-367.429C778.165,-363.158 1361.07,-349.879 1394,-324 1463.39,-269.469 1443.28,-144.586 1432.65,-97.4588"/>
<polygon fill="midnightblue" stroke="midnightblue" points="1436.05,-96.6177 1430.33,-87.6999 1429.24,-98.2386 1436.05,-96.6177"/>
</g>
<!-- Node22&#45;&gt;Node5 -->
<g id="edge65" class="edge"><title>Node22&#45;&gt;Node5</title>
<path fill="none" stroke="midnightblue" d="M463.122,-360.324C472.526,-352.263 486.744,-340.077 498.069,-330.369"/>
<polygon fill="midnightblue" stroke="midnightblue" points="500.379,-332.999 505.694,-323.834 495.823,-327.684 500.379,-332.999"/>
</g>
<!-- Node22&#45;&gt;Node6 -->
<g id="edge64" class="edge"><title>Node22&#45;&gt;Node6</title>
<path fill="none" stroke="midnightblue" d="M513.09,-360.47C603.838,-346.22 769.009,-314.48 804,-268 815.138,-253.205 803.456,-233.3 791.963,-219.431"/>
<polygon fill="midnightblue" stroke="midnightblue" points="794.309,-216.803 785.038,-211.675 789.088,-221.466 794.309,-216.803"/>
</g>
<!-- Node22&#45;&gt;Node7 -->
<g id="edge61" class="edge"><title>Node22&#45;&gt;Node7</title>
<path fill="none" stroke="midnightblue" d="M359.413,-365.084C226.765,-356.938 0,-332.293 0,-259 0,-259 0,-259 0,-139 0,-77.314 77.079,-41.6162 121.46,-26.1747"/>
<polygon fill="midnightblue" stroke="midnightblue" points="122.804,-29.4158 131.184,-22.9322 120.59,-22.7753 122.804,-29.4158"/>
</g>
<!-- Node22&#45;&gt;Node9 -->
<g id="edge63" class="edge"><title>Node22&#45;&gt;Node9</title>
<path fill="none" stroke="midnightblue" d="M446.999,-360.341C423.634,-326.623 338.473,-203.733 306.891,-158.16"/>
<polygon fill="midnightblue" stroke="midnightblue" points="309.579,-155.894 301.007,-149.668 303.826,-159.881 309.579,-155.894"/>
</g>
</g>
</svg>
