<?xml version="1.0" encoding="UTF-8" standalone="no"?>
<!DOCTYPE svg PUBLIC "-//W3C//DTD SVG 1.1//EN"
 "http://www.w3.org/Graphics/SVG/1.1/DTD/svg11.dtd">
<!-- Generated by graphviz version 2.36.0 (20140111.2315)
 -->
<!-- Title: /home/travis/build/ComPWA/ComPWA/Optimizer/Geneva/GenevaIF.hpp Pages: 1 -->
<svg width="1874pt" height="466pt"
 viewBox="0.00 0.00 1874.00 466.00" xmlns="http://www.w3.org/2000/svg" xmlns:xlink="http://www.w3.org/1999/xlink">
<g id="graph0" class="graph" transform="scale(1 1) rotate(0) translate(4 462)">
<title>/home/travis/build/ComPWA/ComPWA/Optimizer/Geneva/GenevaIF.hpp</title>
<polygon fill="white" stroke="none" points="-4,4 -4,-462 1870,-462 1870,4 -4,4"/>
<!-- Node1 -->
<g id="node1" class="node"><title>Node1</title>
<polygon fill="#bfbfbf" stroke="black" points="1080,-416.5 1080,-457.5 1236,-457.5 1236,-416.5 1080,-416.5"/>
<text text-anchor="start" x="1088" y="-445.5" font-family="Helvetica,sans-Serif" font-size="10.00">/home/travis/build</text>
<text text-anchor="start" x="1088" y="-434.5" font-family="Helvetica,sans-Serif" font-size="10.00">/ComPWA/ComPWA/Optimizer</text>
<text text-anchor="middle" x="1158" y="-423.5" font-family="Helvetica,sans-Serif" font-size="10.00">/Geneva/GenevaIF.hpp</text>
</g>
<!-- Node2 -->
<g id="node2" class="node"><title>Node2</title>
<polygon fill="white" stroke="#bfbfbf" points="244,-6.5 244,-25.5 288,-25.5 288,-6.5 244,-6.5"/>
<text text-anchor="middle" x="266" y="-13.5" font-family="Helvetica,sans-Serif" font-size="10.00">vector</text>
</g>
<!-- Node1&#45;&gt;Node2 -->
<g id="edge1" class="edge"><title>Node1&#45;&gt;Node2</title>
<path fill="none" stroke="midnightblue" d="M1079.77,-436.048C819.633,-435.187 0,-423.838 0,-315 0,-315 0,-315 0,-139 0,-37.2752 162.714,-20.0435 233.619,-17.3637"/>
<polygon fill="midnightblue" stroke="midnightblue" points="233.889,-20.8573 243.779,-17.0566 233.677,-13.8605 233.889,-20.8573"/>
</g>
<!-- Node3 -->
<g id="node3" class="node"><title>Node3</title>
<polygon fill="white" stroke="#bfbfbf" points="1440,-6.5 1440,-25.5 1492,-25.5 1492,-6.5 1440,-6.5"/>
<text text-anchor="middle" x="1466" y="-13.5" font-family="Helvetica,sans-Serif" font-size="10.00">memory</text>
</g>
<!-- Node1&#45;&gt;Node3 -->
<g id="edge2" class="edge"><title>Node1&#45;&gt;Node3</title>
<path fill="none" stroke="midnightblue" d="M1236.03,-422.591C1367.27,-397.802 1618,-339.863 1618,-259 1618,-259 1618,-259 1618,-139 1618,-79.7008 1546.77,-44.4176 1501.83,-28.0584"/>
<polygon fill="midnightblue" stroke="midnightblue" points="1502.72,-24.6627 1492.13,-24.6692 1500.42,-31.2712 1502.72,-24.6627"/>
</g>
<!-- Node4 -->
<g id="node4" class="node"><title>Node4</title>
<polygon fill="white" stroke="#bfbfbf" points="184,-68.5 184,-87.5 238,-87.5 238,-68.5 184,-68.5"/>
<text text-anchor="middle" x="211" y="-75.5" font-family="Helvetica,sans-Serif" font-size="10.00">iostream</text>
</g>
<!-- Node1&#45;&gt;Node4 -->
<g id="edge3" class="edge"><title>Node1&#45;&gt;Node4</title>
<path fill="none" stroke="midnightblue" d="M1079.88,-436.716C901.433,-437.387 468.994,-433.276 335,-380 262.237,-351.07 239.693,-334.899 199,-268 165.66,-213.189 173.622,-186.284 189,-124 191.371,-114.396 195.979,-104.443 200.367,-96.3462"/>
<polygon fill="midnightblue" stroke="midnightblue" points="203.482,-97.9507 205.446,-87.5395 197.418,-94.4535 203.482,-97.9507"/>
</g>
<!-- Node5 -->
<g id="node5" class="node"><title>Node5</title>
<g id="a_node5"><a xlink:href="../../de/d1f/ControlParameter_8hpp.html" target="_top" xlink:title="This class provides the interface for the optimizer module to access the data. ">
<polygon fill="white" stroke="black" points="1078,-304.5 1078,-323.5 1214,-323.5 1214,-304.5 1078,-304.5"/>
<text text-anchor="middle" x="1146" y="-311.5" font-family="Helvetica,sans-Serif" font-size="10.00">Core/ControlParameter.hpp</text>
</a>
</g>
</g>
<!-- Node1&#45;&gt;Node5 -->
<g id="edge4" class="edge"><title>Node1&#45;&gt;Node5</title>
<path fill="none" stroke="midnightblue" d="M1218.85,-416.444C1249.18,-403.259 1276.27,-383.918 1260,-360 1248.89,-343.671 1230.85,-333.267 1212.37,-326.638"/>
<polygon fill="midnightblue" stroke="midnightblue" points="1213.29,-323.257 1202.69,-323.505 1211.13,-329.917 1213.29,-323.257"/>
</g>
<!-- Node6 -->
<g id="node6" class="node"><title>Node6</title>
<g id="a_node6"><a xlink:href="../../df/d9f/ParameterList_8hpp.html" target="_top" xlink:title="This class provides a list of fit parameters which can have different types. ">
<polygon fill="white" stroke="red" points="724,-192.5 724,-211.5 844,-211.5 844,-192.5 724,-192.5"/>
<text text-anchor="middle" x="784" y="-199.5" font-family="Helvetica,sans-Serif" font-size="10.00">Core/ParameterList.hpp</text>
</a>
</g>
</g>
<!-- Node1&#45;&gt;Node6 -->
<g id="edge57" class="edge"><title>Node1&#45;&gt;Node6</title>
<path fill="none" stroke="midnightblue" d="M1079.7,-420.962C1006.08,-404.567 894.541,-373.797 808,-324 775.816,-305.481 761.076,-301.933 746,-268 738.103,-250.225 752.224,-231.154 765.435,-218.298"/>
<polygon fill="midnightblue" stroke="midnightblue" points="767.874,-220.811 772.935,-211.504 763.174,-215.623 767.874,-220.811"/>
</g>
<!-- Node13 -->
<g id="node13" class="node"><title>Node13</title>
<g id="a_node13"><a xlink:href="../../db/dce/Parameter_8hpp.html" target="_top" xlink:title="This class implements some internal container of parameters. ">
<polygon fill="white" stroke="red" points="862,-130.5 862,-149.5 966,-149.5 966,-130.5 862,-130.5"/>
<text text-anchor="middle" x="914" y="-137.5" font-family="Helvetica,sans-Serif" font-size="10.00">Core/Parameter.hpp</text>
</a>
</g>
</g>
<!-- Node1&#45;&gt;Node13 -->
<g id="edge58" class="edge"><title>Node1&#45;&gt;Node13</title>
<path fill="none" stroke="midnightblue" d="M1103.44,-416.448C1085.78,-407.725 1067.54,-395.776 1055,-380 1036.35,-356.532 1037,-344.976 1037,-315 1037,-315 1037,-315 1037,-257 1037,-206.344 981.102,-171.269 944.671,-153.788"/>
<polygon fill="midnightblue" stroke="midnightblue" points="945.972,-150.534 935.425,-149.525 943.041,-156.891 945.972,-150.534"/>
</g>
<!-- Node20 -->
<g id="node20" class="node"><title>Node20</title>
<g id="a_node20"><a xlink:href="../../db/d93/Optimizer_8hpp.html" target="_top" xlink:title="This class provides the interface to (external) optimization libraries or routines. ">
<polygon fill="white" stroke="black" points="344,-360.5 344,-379.5 466,-379.5 466,-360.5 344,-360.5"/>
<text text-anchor="middle" x="405" y="-367.5" font-family="Helvetica,sans-Serif" font-size="10.00">Optimizer/Optimizer.hpp</text>
</a>
</g>
</g>
<!-- Node1&#45;&gt;Node20 -->
<g id="edge45" class="edge"><title>Node1&#45;&gt;Node20</title>
<path fill="none" stroke="midnightblue" d="M1079.87,-430.491C953.614,-421.377 696.95,-401.969 480,-380 478.891,-379.888 477.773,-379.773 476.648,-379.656"/>
<polygon fill="midnightblue" stroke="midnightblue" points="476.691,-376.141 466.374,-378.552 475.943,-383.101 476.691,-376.141"/>
</g>
<!-- Node22 -->
<g id="node22" class="node"><title>Node22</title>
<g id="a_node22"><a xlink:href="../../df/dfa/GStartIndividual_8hpp.html" target="_top" xlink:title="Optimizer/Geneva/GStartIndividual.hpp">
<polygon fill="white" stroke="red" points="1064.5,-360.5 1064.5,-379.5 1251.5,-379.5 1251.5,-360.5 1064.5,-360.5"/>
<text text-anchor="middle" x="1158" y="-367.5" font-family="Helvetica,sans-Serif" font-size="10.00">Optimizer/Geneva/GStartIndividual.hpp</text>
</a>
</g>
</g>
<!-- Node1&#45;&gt;Node22 -->
<g id="edge59" class="edge"><title>Node1&#45;&gt;Node22</title>
<path fill="none" stroke="midnightblue" d="M1158,-416.498C1158,-408.065 1158,-398.235 1158,-389.874"/>
<polygon fill="midnightblue" stroke="midnightblue" points="1161.5,-389.652 1158,-379.652 1154.5,-389.653 1161.5,-389.652"/>
</g>
<!-- Node23 -->
<g id="node23" class="node"><title>Node23</title>
<polygon fill="white" stroke="#bfbfbf" points="1501,-360.5 1501,-379.5 1635,-379.5 1635,-360.5 1501,-360.5"/>
<text text-anchor="middle" x="1568" y="-367.5" font-family="Helvetica,sans-Serif" font-size="10.00">boost/program_options.hpp</text>
</g>
<!-- Node1&#45;&gt;Node23 -->
<g id="edge67" class="edge"><title>Node1&#45;&gt;Node23</title>
<path fill="none" stroke="midnightblue" d="M1236.08,-423.621C1313.97,-411.273 1432.16,-392.536 1504.48,-381.07"/>
<polygon fill="midnightblue" stroke="midnightblue" points="1505.04,-384.525 1514.37,-379.502 1503.95,-377.611 1505.04,-384.525"/>
</g>
<!-- Node24 -->
<g id="node24" class="node"><title>Node24</title>
<polygon fill="white" stroke="#bfbfbf" points="1653.5,-360.5 1653.5,-379.5 1760.5,-379.5 1760.5,-360.5 1653.5,-360.5"/>
<text text-anchor="middle" x="1707" y="-367.5" font-family="Helvetica,sans-Serif" font-size="10.00">boost/filesystem.hpp</text>
</g>
<!-- Node1&#45;&gt;Node24 -->
<g id="edge68" class="edge"><title>Node1&#45;&gt;Node24</title>
<path fill="none" stroke="midnightblue" d="M1236.36,-427.634C1330.33,-417.451 1492.87,-399.365 1643.06,-380.089"/>
<polygon fill="midnightblue" stroke="midnightblue" points="1643.93,-383.507 1653.4,-378.759 1643.03,-376.564 1643.93,-383.507"/>
</g>
<!-- Node25 -->
<g id="node25" class="node"><title>Node25</title>
<polygon fill="white" stroke="#bfbfbf" points="1778,-360.5 1778,-379.5 1866,-379.5 1866,-360.5 1778,-360.5"/>
<text text-anchor="middle" x="1822" y="-367.5" font-family="Helvetica,sans-Serif" font-size="10.00">geneva/Go2.hpp</text>
</g>
<!-- Node1&#45;&gt;Node25 -->
<g id="edge69" class="edge"><title>Node1&#45;&gt;Node25</title>
<path fill="none" stroke="midnightblue" d="M1236.34,-430.755C1350.86,-422.656 1570.89,-405.47 1767.84,-380.062"/>
<polygon fill="midnightblue" stroke="midnightblue" points="1768.33,-383.528 1777.79,-378.768 1767.42,-376.586 1768.33,-383.528"/>
</g>
<!-- Node5&#45;&gt;Node2 -->
<g id="edge5" class="edge"><title>Node5&#45;&gt;Node2</title>
<path fill="none" stroke="midnightblue" d="M1077.93,-312.224C947.686,-308.85 655.724,-292.125 426,-212 377.169,-194.968 360.706,-192.431 324,-156 289.921,-122.176 274.89,-65.3595 269.115,-35.9375"/>
<polygon fill="midnightblue" stroke="midnightblue" points="272.503,-35.0053 267.281,-25.7867 265.614,-36.2496 272.503,-35.0053"/>
</g>
<!-- Node5&#45;&gt;Node3 -->
<g id="edge6" class="edge"><title>Node5&#45;&gt;Node3</title>
<path fill="none" stroke="midnightblue" d="M1174.74,-304.451C1250.17,-281.308 1450.09,-215.188 1480,-156 1499.89,-116.632 1484.46,-63.0508 1473.85,-35.317"/>
<polygon fill="midnightblue" stroke="midnightblue" points="1476.97,-33.6912 1469.97,-25.7327 1470.48,-36.3155 1476.97,-33.6912"/>
</g>
<!-- Node5&#45;&gt;Node6 -->
<g id="edge7" class="edge"><title>Node5&#45;&gt;Node6</title>
<path fill="none" stroke="midnightblue" d="M1117.9,-304.46C1053.48,-284.886 895.121,-236.766 822.06,-214.565"/>
<polygon fill="midnightblue" stroke="midnightblue" points="822.922,-211.169 812.336,-211.61 820.886,-217.867 822.922,-211.169"/>
</g>
<!-- Node18 -->
<g id="node18" class="node"><title>Node18</title>
<g id="a_node18"><a xlink:href="../../da/db2/FunctionTree_8hpp.html" target="_top" xlink:title="This class can be used to store a function in a tree&#45;like structure. ">
<polygon fill="white" stroke="red" points="1088,-192.5 1088,-211.5 1204,-211.5 1204,-192.5 1088,-192.5"/>
<text text-anchor="middle" x="1146" y="-199.5" font-family="Helvetica,sans-Serif" font-size="10.00">Core/FunctionTree.hpp</text>
</a>
</g>
</g>
<!-- Node5&#45;&gt;Node18 -->
<g id="edge33" class="edge"><title>Node5&#45;&gt;Node18</title>
<path fill="none" stroke="midnightblue" d="M1146,-304.368C1146,-286.617 1146,-245.666 1146,-221.597"/>
<polygon fill="midnightblue" stroke="midnightblue" points="1149.5,-221.591 1146,-211.591 1142.5,-221.591 1149.5,-221.591"/>
</g>
<!-- Node19 -->
<g id="node19" class="node"><title>Node19</title>
<g id="a_node19"><a xlink:href="../../dc/dfd/AmpIntensity_8hpp.html" target="_top" xlink:title="Core/AmpIntensity.hpp">
<polygon fill="white" stroke="red" points="763.5,-248.5 763.5,-267.5 880.5,-267.5 880.5,-248.5 763.5,-248.5"/>
<text text-anchor="middle" x="822" y="-255.5" font-family="Helvetica,sans-Serif" font-size="10.00">Core/AmpIntensity.hpp</text>
</a>
</g>
</g>
<!-- Node5&#45;&gt;Node19 -->
<g id="edge40" class="edge"><title>Node5&#45;&gt;Node19</title>
<path fill="none" stroke="midnightblue" d="M1094.66,-304.444C1037.19,-294.865 944.133,-279.356 883,-269.167"/>
<polygon fill="midnightblue" stroke="midnightblue" points="883.538,-265.708 873.099,-267.516 882.387,-272.613 883.538,-265.708"/>
</g>
<!-- Node6&#45;&gt;Node2 -->
<g id="edge12" class="edge"><title>Node6&#45;&gt;Node2</title>
<path fill="none" stroke="midnightblue" d="M726.321,-192.438C682.723,-185.114 621.748,-173.037 570,-156 462.028,-120.452 341.31,-57.9262 290.562,-30.5175"/>
<polygon fill="midnightblue" stroke="midnightblue" points="292.102,-27.3709 281.644,-25.6723 288.76,-33.5218 292.102,-27.3709"/>
</g>
<!-- Node6&#45;&gt;Node3 -->
<g id="edge10" class="edge"><title>Node6&#45;&gt;Node3</title>
<path fill="none" stroke="midnightblue" d="M844.262,-198.219C914.952,-193.829 1035.18,-182.827 1135,-156 1253.99,-124.021 1386.6,-58.5384 1440.83,-30.3697"/>
<polygon fill="midnightblue" stroke="midnightblue" points="1442.78,-33.2973 1450.02,-25.5607 1439.54,-27.0947 1442.78,-33.2973"/>
</g>
<!-- Node6&#45;&gt;Node4 -->
<g id="edge8" class="edge"><title>Node6&#45;&gt;Node4</title>
<path fill="none" stroke="midnightblue" d="M792.652,-192.269C807.036,-176.717 832.544,-143.979 814,-124 794.681,-103.185 377.086,-85.4034 248.407,-80.402"/>
<polygon fill="midnightblue" stroke="midnightblue" points="248.382,-76.8985 238.255,-80.0107 248.113,-83.8933 248.382,-76.8985"/>
</g>
<!-- Node7 -->
<g id="node7" class="node"><title>Node7</title>
<polygon fill="white" stroke="#bfbfbf" points="1011.5,-6.5 1011.5,-25.5 1052.5,-25.5 1052.5,-6.5 1011.5,-6.5"/>
<text text-anchor="middle" x="1032" y="-13.5" font-family="Helvetica,sans-Serif" font-size="10.00">string</text>
</g>
<!-- Node6&#45;&gt;Node7 -->
<g id="edge9" class="edge"><title>Node6&#45;&gt;Node7</title>
<path fill="none" stroke="midnightblue" d="M844.013,-194.871C897.617,-188.206 970.849,-175.777 992,-156 1025.84,-124.356 1031.68,-66.1214 1032.3,-36.0632"/>
<polygon fill="midnightblue" stroke="midnightblue" points="1035.8,-35.7192 1032.33,-25.7107 1028.8,-35.7023 1035.8,-35.7192"/>
</g>
<!-- Node8 -->
<g id="node8" class="node"><title>Node8</title>
<polygon fill="white" stroke="#bfbfbf" points="580,-68.5 580,-87.5 632,-87.5 632,-68.5 580,-68.5"/>
<text text-anchor="middle" x="606" y="-75.5" font-family="Helvetica,sans-Serif" font-size="10.00">sstream</text>
</g>
<!-- Node6&#45;&gt;Node8 -->
<g id="edge11" class="edge"><title>Node6&#45;&gt;Node8</title>
<path fill="none" stroke="midnightblue" d="M723.781,-196.016C669.969,-190.164 596.927,-178.289 579,-156 564.635,-138.14 579.213,-112.098 591.887,-95.3508"/>
<polygon fill="midnightblue" stroke="midnightblue" points="594.636,-97.518 598.178,-87.5328 589.182,-93.1297 594.636,-97.518"/>
</g>
<!-- Node9 -->
<g id="node9" class="node"><title>Node9</title>
<polygon fill="white" stroke="#bfbfbf" points="1250.5,-130.5 1250.5,-149.5 1285.5,-149.5 1285.5,-130.5 1250.5,-130.5"/>
<text text-anchor="middle" x="1268" y="-137.5" font-family="Helvetica,sans-Serif" font-size="10.00">map</text>
</g>
<!-- Node6&#45;&gt;Node9 -->
<g id="edge13" class="edge"><title>Node6&#45;&gt;Node9</title>
<path fill="none" stroke="midnightblue" d="M844.039,-201.42C931.749,-200.61 1099.34,-193.643 1236,-156 1238.35,-155.354 1240.73,-154.548 1243.09,-153.647"/>
<polygon fill="midnightblue" stroke="midnightblue" points="1244.68,-156.774 1252.45,-149.578 1241.89,-150.354 1244.68,-156.774"/>
</g>
<!-- Node10 -->
<g id="node10" class="node"><title>Node10</title>
<polygon fill="white" stroke="#bfbfbf" points="370.5,-125 370.5,-155 465.5,-155 465.5,-125 370.5,-125"/>
<text text-anchor="start" x="378.5" y="-143" font-family="Helvetica,sans-Serif" font-size="10.00">boost/serialization</text>
<text text-anchor="middle" x="418" y="-132" font-family="Helvetica,sans-Serif" font-size="10.00">/vector.hpp</text>
</g>
<!-- Node6&#45;&gt;Node10 -->
<g id="edge14" class="edge"><title>Node6&#45;&gt;Node10</title>
<path fill="none" stroke="midnightblue" d="M723.739,-193.713C662.206,-185.89 564.055,-172.354 480,-156 478.539,-155.716 477.061,-155.42 475.571,-155.115"/>
<polygon fill="midnightblue" stroke="midnightblue" points="476.144,-151.658 465.632,-152.984 474.676,-158.503 476.144,-151.658"/>
</g>
<!-- Node11 -->
<g id="node11" class="node"><title>Node11</title>
<polygon fill="white" stroke="#bfbfbf" points="1117.5,-1 1117.5,-31 1212.5,-31 1212.5,-1 1117.5,-1"/>
<text text-anchor="start" x="1125.5" y="-19" font-family="Helvetica,sans-Serif" font-size="10.00">boost/serialization</text>
<text text-anchor="middle" x="1165" y="-8" font-family="Helvetica,sans-Serif" font-size="10.00">/shared_ptr.hpp</text>
</g>
<!-- Node6&#45;&gt;Node11 -->
<g id="edge15" class="edge"><title>Node6&#45;&gt;Node11</title>
<path fill="none" stroke="midnightblue" d="M844.129,-198.837C905.186,-195.047 1001.64,-184.627 1080,-156 1134.34,-136.148 1162.73,-138.476 1191,-88 1199.61,-72.6355 1192.05,-53.876 1182.91,-39.4993"/>
<polygon fill="midnightblue" stroke="midnightblue" points="1185.72,-37.4072 1177.15,-31.1837 1179.97,-41.3958 1185.72,-37.4072"/>
</g>
<!-- Node12 -->
<g id="node12" class="node"><title>Node12</title>
<g id="a_node12"><a xlink:href="../../d8/def/AbsParameter_8hpp.html" target="_top" xlink:title="This class defines the internal container of a parameter. ">
<polygon fill="white" stroke="red" points="1060,-68.5 1060,-87.5 1182,-87.5 1182,-68.5 1060,-68.5"/>
<text text-anchor="middle" x="1121" y="-75.5" font-family="Helvetica,sans-Serif" font-size="10.00">Core/AbsParameter.hpp</text>
</a>
</g>
</g>
<!-- Node6&#45;&gt;Node12 -->
<g id="edge16" class="edge"><title>Node6&#45;&gt;Node12</title>
<path fill="none" stroke="midnightblue" d="M844.067,-201.089C899.465,-198.84 982.487,-189.415 1046,-156 1073,-141.794 1096.11,-114.325 1109.28,-96.3298"/>
<polygon fill="midnightblue" stroke="midnightblue" points="1112.32,-98.0909 1115.23,-87.9032 1106.6,-94.0532 1112.32,-98.0909"/>
</g>
<!-- Node6&#45;&gt;Node13 -->
<g id="edge21" class="edge"><title>Node6&#45;&gt;Node13</title>
<path fill="none" stroke="midnightblue" d="M802.626,-192.403C824.443,-182.334 860.804,-165.552 886.017,-153.915"/>
<polygon fill="midnightblue" stroke="midnightblue" points="887.796,-156.949 895.409,-149.581 884.862,-150.593 887.796,-156.949"/>
</g>
<!-- Node14 -->
<g id="node14" class="node"><title>Node14</title>
<g id="a_node14"><a xlink:href="../../d2/de9/Exceptions_8hpp.html" target="_top" xlink:title="This class defines the ComPWA exception base&#45;class and provides a set of standard exceptions...">
<polygon fill="white" stroke="red" points="858,-68.5 858,-87.5 966,-87.5 966,-68.5 858,-68.5"/>
<text text-anchor="middle" x="912" y="-75.5" font-family="Helvetica,sans-Serif" font-size="10.00">Core/Exceptions.hpp</text>
</a>
</g>
</g>
<!-- Node6&#45;&gt;Node14 -->
<g id="edge29" class="edge"><title>Node6&#45;&gt;Node14</title>
<path fill="none" stroke="midnightblue" d="M844.021,-194.931C893.758,-188.515 958.822,-176.432 975,-156 983.829,-144.85 981.508,-136.646 975,-124 967.923,-110.247 954.479,-99.7663 941.822,-92.3942"/>
<polygon fill="midnightblue" stroke="midnightblue" points="943.313,-89.2221 932.847,-87.5733 940.001,-95.3888 943.313,-89.2221"/>
</g>
<!-- Node15 -->
<g id="node15" class="node"><title>Node15</title>
<g id="a_node15"><a xlink:href="../../da/db4/Logging_8hpp.html" target="_top" xlink:title="Core/Logging.hpp">
<polygon fill="white" stroke="red" points="679.5,-68.5 679.5,-87.5 772.5,-87.5 772.5,-68.5 679.5,-68.5"/>
<text text-anchor="middle" x="726" y="-75.5" font-family="Helvetica,sans-Serif" font-size="10.00">Core/Logging.hpp</text>
</a>
</g>
</g>
<!-- Node6&#45;&gt;Node15 -->
<g id="edge30" class="edge"><title>Node6&#45;&gt;Node15</title>
<path fill="none" stroke="midnightblue" d="M723.731,-195.232C672.838,-188.968 605.655,-176.936 589,-156 562.144,-122.241 620.718,-100.811 669.442,-89.3578"/>
<polygon fill="midnightblue" stroke="midnightblue" points="670.352,-92.7405 679.34,-87.1319 668.816,-85.9111 670.352,-92.7405"/>
</g>
<!-- Node16 -->
<g id="node16" class="node"><title>Node16</title>
<polygon fill="white" stroke="#bfbfbf" points="598,-130.5 598,-149.5 692,-149.5 692,-130.5 598,-130.5"/>
<text text-anchor="middle" x="645" y="-137.5" font-family="Helvetica,sans-Serif" font-size="10.00">boost/version.hpp</text>
</g>
<!-- Node6&#45;&gt;Node16 -->
<g id="edge31" class="edge"><title>Node6&#45;&gt;Node16</title>
<path fill="none" stroke="midnightblue" d="M764.085,-192.403C740.551,-182.245 701.19,-165.255 674.207,-153.607"/>
<polygon fill="midnightblue" stroke="midnightblue" points="675.447,-150.33 664.878,-149.581 672.672,-156.757 675.447,-150.33"/>
</g>
<!-- Node17 -->
<g id="node17" class="node"><title>Node17</title>
<polygon fill="white" stroke="#bfbfbf" points="710.5,-125 710.5,-155 805.5,-155 805.5,-125 710.5,-125"/>
<text text-anchor="start" x="718.5" y="-143" font-family="Helvetica,sans-Serif" font-size="10.00">boost/serialization</text>
<text text-anchor="middle" x="758" y="-132" font-family="Helvetica,sans-Serif" font-size="10.00">/split_free.hpp</text>
</g>
<!-- Node6&#45;&gt;Node17 -->
<g id="edge32" class="edge"><title>Node6&#45;&gt;Node17</title>
<path fill="none" stroke="midnightblue" d="M780.275,-192.403C777.116,-185.113 772.431,-174.303 768.172,-164.475"/>
<polygon fill="midnightblue" stroke="midnightblue" points="771.315,-162.925 764.128,-155.141 764.892,-165.708 771.315,-162.925"/>
</g>
<!-- Node12&#45;&gt;Node2 -->
<g id="edge18" class="edge"><title>Node12&#45;&gt;Node2</title>
<path fill="none" stroke="midnightblue" d="M1059.72,-71.9978C1042.96,-70.6622 1024.78,-69.2449 1008,-68 733.457,-47.6324 401.553,-25.8163 298.257,-19.0916"/>
<polygon fill="midnightblue" stroke="midnightblue" points="298.368,-15.5915 288.162,-18.4351 297.914,-22.5768 298.368,-15.5915"/>
</g>
<!-- Node12&#45;&gt;Node3 -->
<g id="edge19" class="edge"><title>Node12&#45;&gt;Node3</title>
<path fill="none" stroke="midnightblue" d="M1170.06,-68.4672C1240.23,-56.2641 1367.62,-34.1095 1429.84,-23.2881"/>
<polygon fill="midnightblue" stroke="midnightblue" points="1430.71,-26.6896 1439.96,-21.5279 1429.51,-19.7932 1430.71,-26.6896"/>
</g>
<!-- Node12&#45;&gt;Node7 -->
<g id="edge17" class="edge"><title>Node12&#45;&gt;Node7</title>
<path fill="none" stroke="midnightblue" d="M1108.25,-68.4035C1093.97,-58.7797 1070.6,-43.0242 1053.49,-31.4891"/>
<polygon fill="midnightblue" stroke="midnightblue" points="1054.98,-28.2684 1044.73,-25.5806 1051.06,-34.0727 1054.98,-28.2684"/>
</g>
<!-- Node12&#45;&gt;Node11 -->
<g id="edge20" class="edge"><title>Node12&#45;&gt;Node11</title>
<path fill="none" stroke="midnightblue" d="M1127.3,-68.4035C1132.87,-60.8089 1141.24,-49.3959 1148.68,-39.2518"/>
<polygon fill="midnightblue" stroke="midnightblue" points="1151.54,-41.2747 1154.63,-31.1408 1145.89,-37.1351 1151.54,-41.2747"/>
</g>
<!-- Node13&#45;&gt;Node4 -->
<g id="edge22" class="edge"><title>Node13&#45;&gt;Node4</title>
<path fill="none" stroke="midnightblue" d="M880.95,-130.447C870.476,-128.018 858.81,-125.601 848,-124 621.821,-90.5098 346.65,-81.7744 248.215,-79.6437"/>
<polygon fill="midnightblue" stroke="midnightblue" points="248.239,-76.1436 238.169,-79.4362 248.095,-83.1421 248.239,-76.1436"/>
</g>
<!-- Node13&#45;&gt;Node7 -->
<g id="edge23" class="edge"><title>Node13&#45;&gt;Node7</title>
<path fill="none" stroke="midnightblue" d="M895.821,-130.492C870.774,-117.607 830.706,-92.0894 849,-68 867.405,-43.764 954.372,-27.9676 1001.49,-21.0375"/>
<polygon fill="midnightblue" stroke="midnightblue" points="1002.04,-24.4941 1011.45,-19.6175 1001.05,-17.5642 1002.04,-24.4941"/>
</g>
<!-- Node13&#45;&gt;Node8 -->
<g id="edge24" class="edge"><title>Node13&#45;&gt;Node8</title>
<path fill="none" stroke="midnightblue" d="M877.745,-130.489C868.095,-128.298 857.666,-125.996 848,-124 775.242,-108.973 689.697,-93.6028 642.289,-85.2854"/>
<polygon fill="midnightblue" stroke="midnightblue" points="642.662,-81.7976 632.208,-83.5225 641.456,-88.693 642.662,-81.7976"/>
</g>
<!-- Node13&#45;&gt;Node12 -->
<g id="edge25" class="edge"><title>Node13&#45;&gt;Node12</title>
<path fill="none" stroke="midnightblue" d="M943.658,-130.403C979.934,-119.889 1041.46,-102.054 1081.66,-90.4016"/>
<polygon fill="midnightblue" stroke="midnightblue" points="1082.77,-93.7263 1091.4,-87.5806 1080.82,-87.003 1082.77,-93.7263"/>
</g>
<!-- Node13&#45;&gt;Node14 -->
<g id="edge26" class="edge"><title>Node13&#45;&gt;Node14</title>
<path fill="none" stroke="midnightblue" d="M913.713,-130.403C913.431,-121.938 912.991,-108.728 912.627,-97.8199"/>
<polygon fill="midnightblue" stroke="midnightblue" points="916.117,-97.4584 912.286,-87.5806 909.121,-97.6917 916.117,-97.4584"/>
</g>
<!-- Node13&#45;&gt;Node15 -->
<g id="edge28" class="edge"><title>Node13&#45;&gt;Node15</title>
<path fill="none" stroke="midnightblue" d="M887.064,-130.403C854.397,-119.978 799.181,-102.356 762.657,-90.6992"/>
<polygon fill="midnightblue" stroke="midnightblue" points="763.477,-87.2868 752.886,-87.5806 761.348,-93.9554 763.477,-87.2868"/>
</g>
<!-- Node14&#45;&gt;Node7 -->
<g id="edge27" class="edge"><title>Node14&#45;&gt;Node7</title>
<path fill="none" stroke="midnightblue" d="M929.193,-68.4035C949.243,-58.3787 982.599,-41.7006 1005.86,-30.0699"/>
<polygon fill="midnightblue" stroke="midnightblue" points="1007.46,-33.1833 1014.84,-25.5806 1004.33,-26.9223 1007.46,-33.1833"/>
</g>
<!-- Node18&#45;&gt;Node2 -->
<g id="edge34" class="edge"><title>Node18&#45;&gt;Node2</title>
<path fill="none" stroke="midnightblue" d="M1138.56,-192.401C1116.57,-167.667 1048.74,-96.2973 975,-68 848.9,-19.6083 420.083,-16.6846 298.421,-16.8538"/>
<polygon fill="midnightblue" stroke="midnightblue" points="298.254,-13.354 288.262,-16.8764 298.27,-20.354 298.254,-13.354"/>
</g>
<!-- Node18&#45;&gt;Node3 -->
<g id="edge35" class="edge"><title>Node18&#45;&gt;Node3</title>
<path fill="none" stroke="midnightblue" d="M1201.93,-192.443C1235.08,-185.776 1277.1,-174.46 1311,-156 1326.86,-147.362 1412.45,-67.4735 1449.21,-32.8642"/>
<polygon fill="midnightblue" stroke="midnightblue" points="1451.78,-35.2457 1456.66,-25.8391 1446.98,-30.1524 1451.78,-35.2457"/>
</g>
<!-- Node18&#45;&gt;Node7 -->
<g id="edge36" class="edge"><title>Node18&#45;&gt;Node7</title>
<path fill="none" stroke="midnightblue" d="M1204.28,-199.264C1236.24,-194.955 1273.45,-183.725 1294,-156 1302.47,-144.574 1301.27,-136.225 1294,-124 1269.14,-82.1944 1126.04,-41.0557 1062.44,-24.5553"/>
<polygon fill="midnightblue" stroke="midnightblue" points="1063.15,-21.1239 1052.6,-22.0328 1061.42,-27.9049 1063.15,-21.1239"/>
</g>
<!-- Node18&#45;&gt;Node9 -->
<g id="edge37" class="edge"><title>Node18&#45;&gt;Node9</title>
<path fill="none" stroke="midnightblue" d="M1163.48,-192.403C1183.86,-182.379 1217.78,-165.701 1241.42,-154.07"/>
<polygon fill="midnightblue" stroke="midnightblue" points="1243.12,-157.135 1250.55,-149.581 1240.03,-150.853 1243.12,-157.135"/>
</g>
<!-- Node18&#45;&gt;Node12 -->
<g id="edge38" class="edge"><title>Node18&#45;&gt;Node12</title>
<path fill="none" stroke="midnightblue" d="M1144.2,-192.226C1140.17,-172.53 1130.31,-124.437 1124.83,-97.7004"/>
<polygon fill="midnightblue" stroke="midnightblue" points="1128.22,-96.7882 1122.78,-87.6944 1121.36,-98.1935 1128.22,-96.7882"/>
</g>
<!-- Node18&#45;&gt;Node13 -->
<g id="edge39" class="edge"><title>Node18&#45;&gt;Node13</title>
<path fill="none" stroke="midnightblue" d="M1112.76,-192.403C1071.76,-181.799 1001.97,-163.751 956.946,-152.107"/>
<polygon fill="midnightblue" stroke="midnightblue" points="957.736,-148.696 947.178,-149.581 955.983,-155.473 957.736,-148.696"/>
</g>
<!-- Node19&#45;&gt;Node2 -->
<g id="edge41" class="edge"><title>Node19&#45;&gt;Node2</title>
<path fill="none" stroke="midnightblue" d="M763.152,-257.541C669.952,-255.642 486.148,-240.424 361,-156 315.68,-125.427 285.873,-65.3337 273.102,-35.1733"/>
<polygon fill="midnightblue" stroke="midnightblue" points="276.186,-33.4657 269.171,-25.526 269.703,-36.1074 276.186,-33.4657"/>
</g>
<!-- Node19&#45;&gt;Node3 -->
<g id="edge42" class="edge"><title>Node19&#45;&gt;Node3</title>
<path fill="none" stroke="midnightblue" d="M880.535,-252.312C973.562,-244.513 1150.88,-228.133 1212,-212 1273.62,-195.737 1290.91,-191.247 1344,-156 1394.23,-122.653 1436.41,-63.4425 1455.33,-34.2505"/>
<polygon fill="midnightblue" stroke="midnightblue" points="1458.42,-35.9009 1460.83,-25.5821 1452.51,-32.1502 1458.42,-35.9009"/>
</g>
<!-- Node19&#45;&gt;Node6 -->
<g id="edge43" class="edge"><title>Node19&#45;&gt;Node6</title>
<path fill="none" stroke="midnightblue" d="M815.725,-248.083C810.358,-240.455 802.482,-229.264 795.921,-219.941"/>
<polygon fill="midnightblue" stroke="midnightblue" points="798.775,-217.915 790.158,-211.751 793.051,-221.943 798.775,-217.915"/>
</g>
<!-- Node19&#45;&gt;Node18 -->
<g id="edge44" class="edge"><title>Node19&#45;&gt;Node18</title>
<path fill="none" stroke="midnightblue" d="M873.339,-248.444C930.808,-238.865 1023.87,-223.356 1085,-213.167"/>
<polygon fill="midnightblue" stroke="midnightblue" points="1085.61,-216.613 1094.9,-211.516 1084.46,-209.708 1085.61,-216.613"/>
</g>
<!-- Node20&#45;&gt;Node2 -->
<g id="edge46" class="edge"><title>Node20&#45;&gt;Node2</title>
<path fill="none" stroke="midnightblue" d="M343.819,-366.512C266.248,-362.263 138.012,-351.245 100,-324 50.8864,-288.798 38,-263.426 38,-203 38,-203 38,-203 38,-139 38,-51.3641 170.57,-26.4411 233.534,-19.5461"/>
<polygon fill="midnightblue" stroke="midnightblue" points="234.124,-23.0045 243.723,-18.5218 233.423,-16.0396 234.124,-23.0045"/>
</g>
<!-- Node20&#45;&gt;Node3 -->
<g id="edge47" class="edge"><title>Node20&#45;&gt;Node3</title>
<path fill="none" stroke="midnightblue" d="M466.114,-368.065C630.347,-365.164 1078.55,-354.599 1223,-324 1371.34,-292.576 1542,-354.634 1542,-203 1542,-203 1542,-203 1542,-139 1542,-95.2172 1506.3,-54.1424 1483.84,-32.6295"/>
<polygon fill="midnightblue" stroke="midnightblue" points="1485.97,-29.8353 1476.25,-25.62 1481.22,-34.9768 1485.97,-29.8353"/>
</g>
<!-- Node20&#45;&gt;Node6 -->
<g id="edge48" class="edge"><title>Node20&#45;&gt;Node6</title>
<path fill="none" stroke="midnightblue" d="M407.492,-360.486C414.597,-337.869 437.247,-276.099 480,-248 517.336,-223.462 635.933,-211.77 713.487,-206.619"/>
<polygon fill="midnightblue" stroke="midnightblue" points="713.918,-210.098 723.673,-205.964 713.469,-203.113 713.918,-210.098"/>
</g>
<!-- Node21 -->
<g id="node21" class="node"><title>Node21</title>
<g id="a_node21"><a xlink:href="../../de/d88/FitResult_8hpp.html" target="_top" xlink:title="Core/FitResult.hpp">
<polygon fill="white" stroke="red" points="310.5,-304.5 310.5,-323.5 409.5,-323.5 409.5,-304.5 310.5,-304.5"/>
<text text-anchor="middle" x="360" y="-311.5" font-family="Helvetica,sans-Serif" font-size="10.00">Core/FitResult.hpp</text>
</a>
</g>
</g>
<!-- Node20&#45;&gt;Node21 -->
<g id="edge49" class="edge"><title>Node20&#45;&gt;Node21</title>
<path fill="none" stroke="midnightblue" d="M397.569,-360.083C391.147,-352.377 381.694,-341.033 373.878,-331.653"/>
<polygon fill="midnightblue" stroke="midnightblue" points="376.383,-329.193 367.293,-323.751 371.006,-333.674 376.383,-329.193"/>
</g>
<!-- Node21&#45;&gt;Node2 -->
<g id="edge50" class="edge"><title>Node21&#45;&gt;Node2</title>
<path fill="none" stroke="midnightblue" d="M310.401,-309.202C276.007,-304.332 230.842,-293.24 199,-268 127.45,-211.285 122.714,-176.431 100,-88 85.3727,-31.0528 181.304,-19.4399 233.629,-17.3004"/>
<polygon fill="midnightblue" stroke="midnightblue" points="233.887,-20.7941 243.772,-16.9814 233.667,-13.7976 233.887,-20.7941"/>
</g>
<!-- Node21&#45;&gt;Node3 -->
<g id="edge53" class="edge"><title>Node21&#45;&gt;Node3</title>
<path fill="none" stroke="midnightblue" d="M409.571,-313.753C547.611,-314.52 946.85,-307.654 1260,-212 1352.21,-183.834 1387.66,-170.231 1438,-88 1448.14,-71.4299 1455.85,-50.5497 1460.59,-35.7323"/>
<polygon fill="midnightblue" stroke="midnightblue" points="1464.06,-36.3407 1463.62,-25.755 1457.36,-34.3047 1464.06,-36.3407"/>
</g>
<!-- Node21&#45;&gt;Node4 -->
<g id="edge52" class="edge"><title>Node21&#45;&gt;Node4</title>
<path fill="none" stroke="midnightblue" d="M310.255,-311.871C277.272,-308.22 236.131,-297.487 214,-268 175.618,-216.86 193.924,-134.081 204.86,-97.4493"/>
<polygon fill="midnightblue" stroke="midnightblue" points="208.282,-98.238 207.947,-87.6484 201.605,-96.1352 208.282,-98.238"/>
</g>
<!-- Node21&#45;&gt;Node6 -->
<g id="edge56" class="edge"><title>Node21&#45;&gt;Node6</title>
<path fill="none" stroke="midnightblue" d="M367.626,-304.497C381.069,-290.129 410.551,-261.317 442,-248 489.561,-227.861 628.292,-214.431 713.744,-207.813"/>
<polygon fill="midnightblue" stroke="midnightblue" points="714.187,-211.289 723.892,-207.039 713.655,-204.309 714.187,-211.289"/>
</g>
<!-- Node21&#45;&gt;Node7 -->
<g id="edge51" class="edge"><title>Node21&#45;&gt;Node7</title>
<path fill="none" stroke="midnightblue" d="M356.75,-304.305C346.48,-275.192 317.872,-179.83 361,-124 440.453,-21.147 880.256,-16.0799 1001.21,-16.6633"/>
<polygon fill="midnightblue" stroke="midnightblue" points="1001.25,-20.1636 1011.27,-16.7291 1001.29,-13.1637 1001.25,-20.1636"/>
</g>
<!-- Node21&#45;&gt;Node10 -->
<g id="edge54" class="edge"><title>Node21&#45;&gt;Node10</title>
<path fill="none" stroke="midnightblue" d="M362.956,-304.234C371.565,-278.704 396.837,-203.761 409.929,-164.934"/>
<polygon fill="midnightblue" stroke="midnightblue" points="413.396,-165.606 413.275,-155.012 406.763,-163.369 413.396,-165.606"/>
</g>
<!-- Node21&#45;&gt;Node19 -->
<g id="edge55" class="edge"><title>Node21&#45;&gt;Node19</title>
<path fill="none" stroke="midnightblue" d="M409.881,-307.17C492.839,-297.473 659.315,-278.015 753.311,-267.029"/>
<polygon fill="midnightblue" stroke="midnightblue" points="753.763,-270.5 763.289,-265.862 752.95,-263.547 753.763,-270.5"/>
</g>
<!-- Node22&#45;&gt;Node2 -->
<g id="edge63" class="edge"><title>Node22&#45;&gt;Node2</title>
<path fill="none" stroke="midnightblue" d="M1064.43,-368.862C808.182,-367.252 114,-354.113 114,-259 114,-259 114,-259 114,-139 114,-77.8133 189.836,-42.1958 234.376,-26.5536"/>
<polygon fill="midnightblue" stroke="midnightblue" points="235.539,-29.855 243.898,-23.3449 233.304,-23.2215 235.539,-29.855"/>
</g>
<!-- Node22&#45;&gt;Node3 -->
<g id="edge62" class="edge"><title>Node22&#45;&gt;Node3</title>
<path fill="none" stroke="midnightblue" d="M1251.66,-363.354C1375.98,-353.242 1580,-326.384 1580,-259 1580,-259 1580,-259 1580,-139 1580,-105.69 1577.22,-93.677 1556,-68 1541.58,-50.5521 1519.55,-37.923 1500.89,-29.5967"/>
<polygon fill="midnightblue" stroke="midnightblue" points="1502.07,-26.2972 1491.5,-25.6321 1499.35,-32.746 1502.07,-26.2972"/>
</g>
<!-- Node22&#45;&gt;Node4 -->
<g id="edge60" class="edge"><title>Node22&#45;&gt;Node4</title>
<path fill="none" stroke="midnightblue" d="M1064.38,-365.764C911.423,-357.197 601.672,-325.953 369,-212 308.04,-182.144 250.836,-123.713 225.169,-95.2958"/>
<polygon fill="midnightblue" stroke="midnightblue" points="227.777,-92.9618 218.517,-87.8143 222.546,-97.6131 227.777,-92.9618"/>
</g>
<!-- Node22&#45;&gt;Node5 -->
<g id="edge66" class="edge"><title>Node22&#45;&gt;Node5</title>
<path fill="none" stroke="midnightblue" d="M1156.02,-360.083C1154.43,-352.927 1152.14,-342.635 1150.15,-333.691"/>
<polygon fill="midnightblue" stroke="midnightblue" points="1153.53,-332.754 1147.94,-323.751 1146.7,-334.272 1153.53,-332.754"/>
</g>
<!-- Node22&#45;&gt;Node6 -->
<g id="edge65" class="edge"><title>Node22&#45;&gt;Node6</title>
<path fill="none" stroke="midnightblue" d="M1077.58,-360.489C971.432,-347.408 793.376,-318.432 754,-268 742.363,-253.096 755.154,-232.949 767.447,-219.055"/>
<polygon fill="midnightblue" stroke="midnightblue" points="770.096,-221.348 774.44,-211.684 765.018,-216.531 770.096,-221.348"/>
</g>
<!-- Node22&#45;&gt;Node7 -->
<g id="edge61" class="edge"><title>Node22&#45;&gt;Node7</title>
<path fill="none" stroke="midnightblue" d="M1184.39,-360.399C1202.88,-353.209 1227.05,-341.316 1243,-324 1306.61,-254.947 1352.25,-208.339 1311,-124 1293.19,-87.5827 1275.48,-85.6809 1239,-68 1207.91,-52.9295 1112.05,-32.7119 1062.44,-22.8727"/>
<polygon fill="midnightblue" stroke="midnightblue" points="1063.09,-19.4325 1052.6,-20.9363 1061.74,-26.3008 1063.09,-19.4325"/>
</g>
<!-- Node22&#45;&gt;Node9 -->
<g id="edge64" class="edge"><title>Node22&#45;&gt;Node9</title>
<path fill="none" stroke="midnightblue" d="M1177.39,-360.355C1192.09,-352.818 1211.63,-340.503 1223,-324 1258.68,-272.196 1266.15,-194.983 1267.66,-159.748"/>
<polygon fill="midnightblue" stroke="midnightblue" points="1271.16,-159.608 1267.97,-149.505 1264.17,-159.393 1271.16,-159.608"/>
</g>
</g>
</svg>
