<?xml version="1.0" encoding="UTF-8" standalone="no"?>
<!DOCTYPE svg PUBLIC "-//W3C//DTD SVG 1.1//EN"
 "http://www.w3.org/Graphics/SVG/1.1/DTD/svg11.dtd">
<!-- Generated by graphviz version 2.36.0 (20140111.2315)
 -->
<!-- Title: /home/travis/build/ComPWA/ComPWA/executables/SerializationApp.cpp Pages: 1 -->
<svg width="1419pt" height="310pt"
 viewBox="0.00 0.00 1418.91 310.00" xmlns="http://www.w3.org/2000/svg" xmlns:xlink="http://www.w3.org/1999/xlink">
<g id="graph0" class="graph" transform="scale(1 1) rotate(0) translate(4 306)">
<title>/home/travis/build/ComPWA/ComPWA/executables/SerializationApp.cpp</title>
<polygon fill="white" stroke="none" points="-4,4 -4,-306 1414.91,-306 1414.91,4 -4,4"/>
<!-- Node1 -->
<g id="node1" class="node"><title>Node1</title>
<polygon fill="#bfbfbf" stroke="black" points="694.408,-260.5 694.408,-301.5 861.408,-301.5 861.408,-260.5 694.408,-260.5"/>
<text text-anchor="start" x="702.408" y="-289.5" font-family="Helvetica,sans-Serif" font-size="10.00">/home/travis/build</text>
<text text-anchor="start" x="702.408" y="-278.5" font-family="Helvetica,sans-Serif" font-size="10.00">/ComPWA/ComPWA/executables</text>
<text text-anchor="middle" x="777.908" y="-267.5" font-family="Helvetica,sans-Serif" font-size="10.00">/SerializationApp.cpp</text>
</g>
<!-- Node2 -->
<g id="node2" class="node"><title>Node2</title>
<g id="a_node2"><a xlink:href="../../db/dce/Parameter_8hpp.html" target="_top" xlink:title="This class implements some internal container of parameters. ">
<polygon fill="white" stroke="black" points="306.908,-130.5 306.908,-149.5 410.908,-149.5 410.908,-130.5 306.908,-130.5"/>
<text text-anchor="middle" x="358.908" y="-137.5" font-family="Helvetica,sans-Serif" font-size="10.00">Core/Parameter.hpp</text>
</a>
</g>
</g>
<!-- Node1&#45;&gt;Node2 -->
<g id="edge1" class="edge"><title>Node1&#45;&gt;Node2</title>
<path fill="none" stroke="midnightblue" d="M704.819,-260.414C668.045,-250.205 622.899,-237.131 582.908,-224 513.087,-201.075 432.603,-170.12 389.669,-153.235"/>
<polygon fill="midnightblue" stroke="midnightblue" points="390.929,-149.97 380.342,-149.556 388.36,-156.482 390.929,-149.97"/>
</g>
<!-- Node5 -->
<g id="node5" class="node"><title>Node5</title>
<polygon fill="white" stroke="#bfbfbf" points="12.9083,-68.5 12.9083,-87.5 64.9083,-87.5 64.9083,-68.5 12.9083,-68.5"/>
<text text-anchor="middle" x="38.9083" y="-75.5" font-family="Helvetica,sans-Serif" font-size="10.00">sstream</text>
</g>
<!-- Node1&#45;&gt;Node5 -->
<g id="edge32" class="edge"><title>Node1&#45;&gt;Node5</title>
<path fill="none" stroke="midnightblue" d="M693.946,-270.781C576.16,-256.032 356.498,-221.842 179.908,-156 135.023,-139.264 86.9,-110.327 60.0866,-93.0921"/>
<polygon fill="midnightblue" stroke="midnightblue" points="61.8216,-90.0454 51.5313,-87.5234 58.0029,-95.912 61.8216,-90.0454"/>
</g>
<!-- Node12 -->
<g id="node12" class="node"><title>Node12</title>
<polygon fill="white" stroke="#bfbfbf" points="228.408,-1 228.408,-31 323.408,-31 323.408,-1 228.408,-1"/>
<text text-anchor="start" x="236.408" y="-19" font-family="Helvetica,sans-Serif" font-size="10.00">boost/serialization</text>
<text text-anchor="middle" x="275.908" y="-8" font-family="Helvetica,sans-Serif" font-size="10.00">/serialization.hpp</text>
</g>
<!-- Node1&#45;&gt;Node12 -->
<g id="edge33" class="edge"><title>Node1&#45;&gt;Node12</title>
<path fill="none" stroke="midnightblue" d="M694.346,-276.727C596.273,-271.441 429.322,-257.918 289.908,-224 207.218,-203.882 186.991,-194.131 110.908,-156 60.5343,-130.754 31.0377,-137.385 3.90832,-88 -0.371447,-80.2092 -1.76844,-74.8401 3.90832,-68 30.5579,-35.8892 146.276,-23.8741 217.919,-19.4675"/>
<polygon fill="midnightblue" stroke="midnightblue" points="218.374,-22.947 228.154,-18.8711 217.967,-15.9589 218.374,-22.947"/>
</g>
<!-- Node16 -->
<g id="node16" class="node"><title>Node16</title>
<g id="a_node16"><a xlink:href="../../df/d9f/ParameterList_8hpp.html" target="_top" xlink:title="This class provides a list of fit parameters which can have different types. ">
<polygon fill="white" stroke="red" points="591.908,-198.5 591.908,-217.5 711.908,-217.5 711.908,-198.5 591.908,-198.5"/>
<text text-anchor="middle" x="651.908" y="-205.5" font-family="Helvetica,sans-Serif" font-size="10.00">Core/ParameterList.hpp</text>
</a>
</g>
</g>
<!-- Node1&#45;&gt;Node16 -->
<g id="edge17" class="edge"><title>Node1&#45;&gt;Node16</title>
<path fill="none" stroke="midnightblue" d="M743.145,-260.411C721.833,-248.402 695.086,-233.33 676.075,-222.618"/>
<polygon fill="midnightblue" stroke="midnightblue" points="677.595,-219.457 667.165,-217.597 674.159,-225.555 677.595,-219.457"/>
</g>
<!-- Node21 -->
<g id="node21" class="node"><title>Node21</title>
<polygon fill="white" stroke="#bfbfbf" points="730.408,-193 730.408,-223 825.408,-223 825.408,-193 730.408,-193"/>
<text text-anchor="start" x="738.408" y="-211" font-family="Helvetica,sans-Serif" font-size="10.00">boost/archive/text</text>
<text text-anchor="middle" x="777.908" y="-200" font-family="Helvetica,sans-Serif" font-size="10.00">_iarchive.hpp</text>
</g>
<!-- Node1&#45;&gt;Node21 -->
<g id="edge34" class="edge"><title>Node1&#45;&gt;Node21</title>
<path fill="none" stroke="midnightblue" d="M777.908,-260.223C777.908,-251.821 777.908,-241.948 777.908,-233.123"/>
<polygon fill="midnightblue" stroke="midnightblue" points="781.408,-233.048 777.908,-223.049 774.408,-233.049 781.408,-233.048"/>
</g>
<!-- Node22 -->
<g id="node22" class="node"><title>Node22</title>
<polygon fill="white" stroke="#bfbfbf" points="843.408,-193 843.408,-223 938.408,-223 938.408,-193 843.408,-193"/>
<text text-anchor="start" x="851.408" y="-211" font-family="Helvetica,sans-Serif" font-size="10.00">boost/serialization</text>
<text text-anchor="middle" x="890.908" y="-200" font-family="Helvetica,sans-Serif" font-size="10.00">/export.hpp</text>
</g>
<!-- Node1&#45;&gt;Node22 -->
<g id="edge35" class="edge"><title>Node1&#45;&gt;Node22</title>
<path fill="none" stroke="midnightblue" d="M809.085,-260.411C824.813,-250.529 843.841,-238.573 859.588,-228.679"/>
<polygon fill="midnightblue" stroke="midnightblue" points="861.826,-231.407 868.431,-223.123 858.102,-225.479 861.826,-231.407"/>
</g>
<!-- Node23 -->
<g id="node23" class="node"><title>Node23</title>
<polygon fill="white" stroke="#bfbfbf" points="956.908,-193 956.908,-223 1066.91,-223 1066.91,-193 956.908,-193"/>
<text text-anchor="start" x="964.908" y="-211" font-family="Helvetica,sans-Serif" font-size="10.00">boost/archive/archive</text>
<text text-anchor="middle" x="1011.91" y="-200" font-family="Helvetica,sans-Serif" font-size="10.00">_exception.hpp</text>
</g>
<!-- Node1&#45;&gt;Node23 -->
<g id="edge36" class="edge"><title>Node1&#45;&gt;Node23</title>
<path fill="none" stroke="midnightblue" d="M842.469,-260.411C878.052,-249.614 921.794,-236.342 955.921,-225.988"/>
<polygon fill="midnightblue" stroke="midnightblue" points="957.176,-229.265 965.729,-223.012 955.143,-222.566 957.176,-229.265"/>
</g>
<!-- Node24 -->
<g id="node24" class="node"><title>Node24</title>
<polygon fill="white" stroke="#bfbfbf" points="1085.41,-198.5 1085.41,-217.5 1240.41,-217.5 1240.41,-198.5 1085.41,-198.5"/>
<text text-anchor="middle" x="1162.91" y="-205.5" font-family="Helvetica,sans-Serif" font-size="10.00">boost/archive/xml_oarchive.hpp</text>
</g>
<!-- Node1&#45;&gt;Node24 -->
<g id="edge37" class="edge"><title>Node1&#45;&gt;Node24</title>
<path fill="none" stroke="midnightblue" d="M861.448,-264.594C935.656,-250.909 1042.08,-231.283 1106.61,-219.381"/>
<polygon fill="midnightblue" stroke="midnightblue" points="1107.4,-222.795 1116.6,-217.54 1106.13,-215.911 1107.4,-222.795"/>
</g>
<!-- Node25 -->
<g id="node25" class="node"><title>Node25</title>
<polygon fill="white" stroke="#bfbfbf" points="1258.91,-198.5 1258.91,-217.5 1410.91,-217.5 1410.91,-198.5 1258.91,-198.5"/>
<text text-anchor="middle" x="1334.91" y="-205.5" font-family="Helvetica,sans-Serif" font-size="10.00">boost/archive/xml_iarchive.hpp</text>
</g>
<!-- Node1&#45;&gt;Node25 -->
<g id="edge38" class="edge"><title>Node1&#45;&gt;Node25</title>
<path fill="none" stroke="midnightblue" d="M861.469,-271.452C955.768,-261.483 1113.66,-243.821 1248.91,-224 1258.48,-222.597 1268.62,-220.962 1278.46,-219.296"/>
<polygon fill="midnightblue" stroke="midnightblue" points="1279.3,-222.703 1288.56,-217.559 1278.12,-215.804 1279.3,-222.703"/>
</g>
<!-- Node3 -->
<g id="node3" class="node"><title>Node3</title>
<polygon fill="white" stroke="#bfbfbf" points="331.908,-68.5 331.908,-87.5 385.908,-87.5 385.908,-68.5 331.908,-68.5"/>
<text text-anchor="middle" x="358.908" y="-75.5" font-family="Helvetica,sans-Serif" font-size="10.00">iostream</text>
</g>
<!-- Node2&#45;&gt;Node3 -->
<g id="edge2" class="edge"><title>Node2&#45;&gt;Node3</title>
<path fill="none" stroke="midnightblue" d="M358.908,-130.403C358.908,-121.938 358.908,-108.728 358.908,-97.8199"/>
<polygon fill="midnightblue" stroke="midnightblue" points="362.408,-97.5806 358.908,-87.5806 355.408,-97.5806 362.408,-97.5806"/>
</g>
<!-- Node4 -->
<g id="node4" class="node"><title>Node4</title>
<polygon fill="white" stroke="#bfbfbf" points="590.408,-6.5 590.408,-25.5 631.408,-25.5 631.408,-6.5 590.408,-6.5"/>
<text text-anchor="middle" x="610.908" y="-13.5" font-family="Helvetica,sans-Serif" font-size="10.00">string</text>
</g>
<!-- Node2&#45;&gt;Node4 -->
<g id="edge3" class="edge"><title>Node2&#45;&gt;Node4</title>
<path fill="none" stroke="midnightblue" d="M348.601,-130.396C332.88,-116.253 306.392,-87.6979 322.908,-68 355.503,-29.1268 512.665,-19.8664 580.086,-17.6741"/>
<polygon fill="midnightblue" stroke="midnightblue" points="580.21,-21.172 590.103,-17.3795 580.005,-14.1751 580.21,-21.172"/>
</g>
<!-- Node2&#45;&gt;Node5 -->
<g id="edge4" class="edge"><title>Node2&#45;&gt;Node5</title>
<path fill="none" stroke="midnightblue" d="M306.673,-130.853C251.469,-121.975 161.674,-106.772 75.2111,-88.1601"/>
<polygon fill="midnightblue" stroke="midnightblue" points="75.7464,-84.6948 65.2314,-85.9932 74.261,-91.5354 75.7464,-84.6948"/>
</g>
<!-- Node6 -->
<g id="node6" class="node"><title>Node6</title>
<polygon fill="white" stroke="#bfbfbf" points="145.408,-68.5 145.408,-87.5 198.408,-87.5 198.408,-68.5 145.408,-68.5"/>
<text text-anchor="middle" x="171.908" y="-75.5" font-family="Helvetica,sans-Serif" font-size="10.00">complex</text>
</g>
<!-- Node2&#45;&gt;Node6 -->
<g id="edge5" class="edge"><title>Node2&#45;&gt;Node6</title>
<path fill="none" stroke="midnightblue" d="M332.116,-130.403C299.622,-119.978 244.7,-102.356 208.371,-90.6992"/>
<polygon fill="midnightblue" stroke="midnightblue" points="209.242,-87.3031 198.651,-87.5806 207.104,-93.9685 209.242,-87.3031"/>
</g>
<!-- Node7 -->
<g id="node7" class="node"><title>Node7</title>
<polygon fill="white" stroke="#bfbfbf" points="216.408,-68.5 216.408,-87.5 275.408,-87.5 275.408,-68.5 216.408,-68.5"/>
<text text-anchor="middle" x="245.908" y="-75.5" font-family="Helvetica,sans-Serif" font-size="10.00">stdexcept</text>
</g>
<!-- Node2&#45;&gt;Node7 -->
<g id="edge6" class="edge"><title>Node2&#45;&gt;Node7</title>
<path fill="none" stroke="midnightblue" d="M342.718,-130.403C324.006,-120.468 292.985,-103.997 271.11,-92.3812"/>
<polygon fill="midnightblue" stroke="midnightblue" points="272.542,-89.179 262.068,-87.5806 269.259,-95.3616 272.542,-89.179"/>
</g>
<!-- Node8 -->
<g id="node8" class="node"><title>Node8</title>
<polygon fill="white" stroke="#bfbfbf" points="82.9083,-68.5 82.9083,-87.5 126.908,-87.5 126.908,-68.5 82.9083,-68.5"/>
<text text-anchor="middle" x="104.908" y="-75.5" font-family="Helvetica,sans-Serif" font-size="10.00">cmath</text>
</g>
<!-- Node2&#45;&gt;Node8 -->
<g id="edge7" class="edge"><title>Node2&#45;&gt;Node8</title>
<path fill="none" stroke="midnightblue" d="M318.453,-130.483C275.656,-121.31 205.956,-105.909 136.947,-88.1628"/>
<polygon fill="midnightblue" stroke="midnightblue" points="137.775,-84.7618 127.217,-85.6435 136.02,-91.5383 137.775,-84.7618"/>
</g>
<!-- Node9 -->
<g id="node9" class="node"><title>Node9</title>
<g id="a_node9"><a xlink:href="../../d8/def/AbsParameter_8hpp.html" target="_top" xlink:title="This class defines the internal container of a parameter. ">
<polygon fill="white" stroke="red" points="679.908,-68.5 679.908,-87.5 801.908,-87.5 801.908,-68.5 679.908,-68.5"/>
<text text-anchor="middle" x="740.908" y="-75.5" font-family="Helvetica,sans-Serif" font-size="10.00">Core/AbsParameter.hpp</text>
</a>
</g>
</g>
<!-- Node2&#45;&gt;Node9 -->
<g id="edge8" class="edge"><title>Node2&#45;&gt;Node9</title>
<path fill="none" stroke="midnightblue" d="M411.223,-130.783C480.308,-119.932 601.915,-100.831 676.553,-89.1081"/>
<polygon fill="midnightblue" stroke="midnightblue" points="677.427,-92.5138 686.763,-87.5045 676.341,-85.5986 677.427,-92.5138"/>
</g>
<!-- Node14 -->
<g id="node14" class="node"><title>Node14</title>
<g id="a_node14"><a xlink:href="../../d2/de9/Exceptions_8hpp.html" target="_top" xlink:title="This class defines the ComPWA exception base&#45;class and provides a set of standard exceptions...">
<polygon fill="white" stroke="red" points="515.908,-68.5 515.908,-87.5 623.908,-87.5 623.908,-68.5 515.908,-68.5"/>
<text text-anchor="middle" x="569.908" y="-75.5" font-family="Helvetica,sans-Serif" font-size="10.00">Core/Exceptions.hpp</text>
</a>
</g>
</g>
<!-- Node2&#45;&gt;Node14 -->
<g id="edge14" class="edge"><title>Node2&#45;&gt;Node14</title>
<path fill="none" stroke="midnightblue" d="M389.139,-130.403C426.195,-119.866 489.101,-101.978 530.073,-90.3276"/>
<polygon fill="midnightblue" stroke="midnightblue" points="531.072,-93.6824 539.733,-87.5806 529.157,-86.9493 531.072,-93.6824"/>
</g>
<!-- Node15 -->
<g id="node15" class="node"><title>Node15</title>
<g id="a_node15"><a xlink:href="../../da/db4/Logging_8hpp.html" target="_top" xlink:title="Core/Logging.hpp">
<polygon fill="white" stroke="red" points="404.408,-68.5 404.408,-87.5 497.408,-87.5 497.408,-68.5 404.408,-68.5"/>
<text text-anchor="middle" x="450.908" y="-75.5" font-family="Helvetica,sans-Serif" font-size="10.00">Core/Logging.hpp</text>
</a>
</g>
</g>
<!-- Node2&#45;&gt;Node15 -->
<g id="edge16" class="edge"><title>Node2&#45;&gt;Node15</title>
<path fill="none" stroke="midnightblue" d="M372.09,-130.403C386.983,-120.691 411.453,-104.732 429.181,-93.1697"/>
<polygon fill="midnightblue" stroke="midnightblue" points="431.287,-95.975 437.751,-87.5806 427.463,-90.1117 431.287,-95.975"/>
</g>
<!-- Node9&#45;&gt;Node4 -->
<g id="edge9" class="edge"><title>Node9&#45;&gt;Node4</title>
<path fill="none" stroke="midnightblue" d="M722.282,-68.4035C700.466,-58.3341 664.105,-41.5522 638.891,-29.9151"/>
<polygon fill="midnightblue" stroke="midnightblue" points="640.046,-26.5934 629.5,-25.5806 637.112,-32.9491 640.046,-26.5934"/>
</g>
<!-- Node10 -->
<g id="node10" class="node"><title>Node10</title>
<polygon fill="white" stroke="#bfbfbf" points="733.908,-6.5 733.908,-25.5 777.908,-25.5 777.908,-6.5 733.908,-6.5"/>
<text text-anchor="middle" x="755.908" y="-13.5" font-family="Helvetica,sans-Serif" font-size="10.00">vector</text>
</g>
<!-- Node9&#45;&gt;Node10 -->
<g id="edge10" class="edge"><title>Node9&#45;&gt;Node10</title>
<path fill="none" stroke="midnightblue" d="M743.057,-68.4035C745.196,-59.849 748.546,-46.4497 751.289,-35.4762"/>
<polygon fill="midnightblue" stroke="midnightblue" points="754.733,-36.1309 753.763,-25.5806 747.942,-34.4331 754.733,-36.1309"/>
</g>
<!-- Node11 -->
<g id="node11" class="node"><title>Node11</title>
<polygon fill="white" stroke="#bfbfbf" points="825.908,-6.5 825.908,-25.5 877.908,-25.5 877.908,-6.5 825.908,-6.5"/>
<text text-anchor="middle" x="851.908" y="-13.5" font-family="Helvetica,sans-Serif" font-size="10.00">memory</text>
</g>
<!-- Node9&#45;&gt;Node11 -->
<g id="edge11" class="edge"><title>Node9&#45;&gt;Node11</title>
<path fill="none" stroke="midnightblue" d="M756.812,-68.4035C775.193,-58.4678 805.665,-41.9966 827.153,-30.3812"/>
<polygon fill="midnightblue" stroke="midnightblue" points="828.901,-33.4148 836.034,-25.5806 825.573,-27.2568 828.901,-33.4148"/>
</g>
<!-- Node9&#45;&gt;Node12 -->
<g id="edge12" class="edge"><title>Node9&#45;&gt;Node12</title>
<path fill="none" stroke="midnightblue" d="M679.64,-69.0943C589.376,-57.4474 421.847,-35.8308 333.648,-24.4503"/>
<polygon fill="midnightblue" stroke="midnightblue" points="333.92,-20.9564 323.554,-23.1479 333.024,-27.8989 333.92,-20.9564"/>
</g>
<!-- Node13 -->
<g id="node13" class="node"><title>Node13</title>
<polygon fill="white" stroke="#bfbfbf" points="948.408,-1 948.408,-31 1043.41,-31 1043.41,-1 948.408,-1"/>
<text text-anchor="start" x="956.408" y="-19" font-family="Helvetica,sans-Serif" font-size="10.00">boost/serialization</text>
<text text-anchor="middle" x="995.908" y="-8" font-family="Helvetica,sans-Serif" font-size="10.00">/shared_ptr.hpp</text>
</g>
<!-- Node9&#45;&gt;Node13 -->
<g id="edge13" class="edge"><title>Node9&#45;&gt;Node13</title>
<path fill="none" stroke="midnightblue" d="M777.173,-68.4672C819.109,-58.5998 888.699,-42.2257 938.117,-30.598"/>
<polygon fill="midnightblue" stroke="midnightblue" points="939.095,-33.9634 948.028,-28.266 937.492,-27.1495 939.095,-33.9634"/>
</g>
<!-- Node14&#45;&gt;Node4 -->
<g id="edge15" class="edge"><title>Node14&#45;&gt;Node4</title>
<path fill="none" stroke="midnightblue" d="M575.783,-68.4035C581.872,-59.4925 591.553,-45.3247 599.211,-34.1177"/>
<polygon fill="midnightblue" stroke="midnightblue" points="602.293,-35.8117 605.045,-25.5806 596.513,-31.8624 602.293,-35.8117"/>
</g>
<!-- Node16&#45;&gt;Node2 -->
<g id="edge27" class="edge"><title>Node16&#45;&gt;Node2</title>
<path fill="none" stroke="midnightblue" d="M613.904,-198.439C560.88,-186.495 464.717,-164.834 406.839,-151.797"/>
<polygon fill="midnightblue" stroke="midnightblue" points="407.37,-148.329 396.845,-149.546 405.832,-155.158 407.37,-148.329"/>
</g>
<!-- Node16&#45;&gt;Node3 -->
<g id="edge18" class="edge"><title>Node16&#45;&gt;Node3</title>
<path fill="none" stroke="midnightblue" d="M627.445,-198.417C600.385,-188.754 555.62,-172.271 517.908,-156 470.135,-135.388 415.857,-108.281 384.673,-92.3387"/>
<polygon fill="midnightblue" stroke="midnightblue" points="385.892,-89.0303 375.398,-87.5772 382.695,-95.2578 385.892,-89.0303"/>
</g>
<!-- Node16&#45;&gt;Node4 -->
<g id="edge19" class="edge"><title>Node16&#45;&gt;Node4</title>
<path fill="none" stroke="midnightblue" d="M651.541,-198.375C650.428,-176.299 646.301,-116.101 632.908,-68 629.755,-56.6755 624.616,-44.5715 620.098,-34.9983"/>
<polygon fill="midnightblue" stroke="midnightblue" points="623.111,-33.1939 615.562,-25.7604 616.828,-36.2793 623.111,-33.1939"/>
</g>
<!-- Node16&#45;&gt;Node5 -->
<g id="edge21" class="edge"><title>Node16&#45;&gt;Node5</title>
<path fill="none" stroke="midnightblue" d="M591.612,-201.025C520.773,-193.381 399.951,-178.394 297.908,-156 215.819,-137.985 121.778,-107.473 72.7179,-90.7788"/>
<polygon fill="midnightblue" stroke="midnightblue" points="73.8319,-87.4608 63.2373,-87.5337 71.565,-94.0836 73.8319,-87.4608"/>
</g>
<!-- Node16&#45;&gt;Node9 -->
<g id="edge26" class="edge"><title>Node16&#45;&gt;Node9</title>
<path fill="none" stroke="midnightblue" d="M658.026,-198.202C672.704,-177.092 710.118,-123.282 729.253,-95.7623"/>
<polygon fill="midnightblue" stroke="midnightblue" points="732.147,-97.7309 734.983,-87.5224 726.4,-93.7347 732.147,-97.7309"/>
</g>
<!-- Node16&#45;&gt;Node10 -->
<g id="edge22" class="edge"><title>Node16&#45;&gt;Node10</title>
<path fill="none" stroke="midnightblue" d="M673.752,-198.416C710.126,-182.773 781.968,-145.809 810.908,-88 821.743,-66.3575 799.217,-44.8568 779.803,-31.2831"/>
<polygon fill="midnightblue" stroke="midnightblue" points="781.509,-28.2153 771.234,-25.6324 777.655,-34.0592 781.509,-28.2153"/>
</g>
<!-- Node16&#45;&gt;Node11 -->
<g id="edge20" class="edge"><title>Node16&#45;&gt;Node11</title>
<path fill="none" stroke="midnightblue" d="M690.655,-198.465C718.33,-190.878 755.234,-177.572 781.908,-156 820.843,-124.513 840.091,-65.7695 847.751,-35.7338"/>
<polygon fill="midnightblue" stroke="midnightblue" points="851.218,-36.2841 850.136,-25.7446 844.409,-34.6582 851.218,-36.2841"/>
</g>
<!-- Node16&#45;&gt;Node13 -->
<g id="edge25" class="edge"><title>Node16&#45;&gt;Node13</title>
<path fill="none" stroke="midnightblue" d="M688.313,-198.432C698.796,-196.142 710.273,-193.806 720.908,-192 785.584,-181.021 970.442,-205.134 1013.91,-156 1042.13,-124.096 1023.34,-70.8288 1008.63,-40.3334"/>
<polygon fill="midnightblue" stroke="midnightblue" points="1011.7,-38.638 1004.07,-31.2883 1005.45,-41.7926 1011.7,-38.638"/>
</g>
<!-- Node16&#45;&gt;Node14 -->
<g id="edge28" class="edge"><title>Node16&#45;&gt;Node14</title>
<path fill="none" stroke="midnightblue" d="M646.272,-198.202C632.807,-177.184 598.576,-123.75 580.878,-96.1227"/>
<polygon fill="midnightblue" stroke="midnightblue" points="583.709,-94.0548 575.368,-87.5224 577.815,-97.8308 583.709,-94.0548"/>
</g>
<!-- Node16&#45;&gt;Node15 -->
<g id="edge29" class="edge"><title>Node16&#45;&gt;Node15</title>
<path fill="none" stroke="midnightblue" d="M638.408,-198.403C604.366,-176.724 514.768,-119.667 472.969,-93.0485"/>
<polygon fill="midnightblue" stroke="midnightblue" points="474.665,-89.9791 464.35,-87.5598 470.905,-95.8835 474.665,-89.9791"/>
</g>
<!-- Node17 -->
<g id="node17" class="node"><title>Node17</title>
<polygon fill="white" stroke="#bfbfbf" points="857.408,-130.5 857.408,-149.5 892.408,-149.5 892.408,-130.5 857.408,-130.5"/>
<text text-anchor="middle" x="874.908" y="-137.5" font-family="Helvetica,sans-Serif" font-size="10.00">map</text>
</g>
<!-- Node16&#45;&gt;Node17 -->
<g id="edge23" class="edge"><title>Node16&#45;&gt;Node17</title>
<path fill="none" stroke="midnightblue" d="M692.051,-198.467C731.146,-189.649 791.961,-174.576 842.908,-156 844.811,-155.306 846.754,-154.542 848.697,-153.738"/>
<polygon fill="midnightblue" stroke="midnightblue" points="850.489,-156.771 858.206,-149.512 847.647,-150.374 850.489,-156.771"/>
</g>
<!-- Node18 -->
<g id="node18" class="node"><title>Node18</title>
<polygon fill="white" stroke="#bfbfbf" points="910.408,-125 910.408,-155 1005.41,-155 1005.41,-125 910.408,-125"/>
<text text-anchor="start" x="918.408" y="-143" font-family="Helvetica,sans-Serif" font-size="10.00">boost/serialization</text>
<text text-anchor="middle" x="957.908" y="-132" font-family="Helvetica,sans-Serif" font-size="10.00">/vector.hpp</text>
</g>
<!-- Node16&#45;&gt;Node18 -->
<g id="edge24" class="edge"><title>Node16&#45;&gt;Node18</title>
<path fill="none" stroke="midnightblue" d="M690.567,-198.477C700.452,-196.33 711.068,-194.053 720.908,-192 797.653,-175.985 819.72,-174.487 900.256,-156.069"/>
<polygon fill="midnightblue" stroke="midnightblue" points="901.417,-159.393 910.375,-153.736 899.845,-152.572 901.417,-159.393"/>
</g>
<!-- Node19 -->
<g id="node19" class="node"><title>Node19</title>
<polygon fill="white" stroke="#bfbfbf" points="1061.91,-130.5 1061.91,-149.5 1155.91,-149.5 1155.91,-130.5 1061.91,-130.5"/>
<text text-anchor="middle" x="1108.91" y="-137.5" font-family="Helvetica,sans-Serif" font-size="10.00">boost/version.hpp</text>
</g>
<!-- Node16&#45;&gt;Node19 -->
<g id="edge30" class="edge"><title>Node16&#45;&gt;Node19</title>
<path fill="none" stroke="midnightblue" d="M687.941,-198.423C698.52,-196.107 710.14,-193.758 720.908,-192 865.209,-168.438 903.94,-181.512 1047.91,-156 1054.32,-154.864 1061.06,-153.441 1067.63,-151.928"/>
<polygon fill="midnightblue" stroke="midnightblue" points="1068.82,-155.24 1077.73,-149.503 1067.19,-148.434 1068.82,-155.24"/>
</g>
<!-- Node20 -->
<g id="node20" class="node"><title>Node20</title>
<polygon fill="white" stroke="#bfbfbf" points="1174.41,-125 1174.41,-155 1269.41,-155 1269.41,-125 1174.41,-125"/>
<text text-anchor="start" x="1182.41" y="-143" font-family="Helvetica,sans-Serif" font-size="10.00">boost/serialization</text>
<text text-anchor="middle" x="1221.91" y="-132" font-family="Helvetica,sans-Serif" font-size="10.00">/split_free.hpp</text>
</g>
<!-- Node16&#45;&gt;Node20 -->
<g id="edge31" class="edge"><title>Node16&#45;&gt;Node20</title>
<path fill="none" stroke="midnightblue" d="M686.844,-198.46C697.704,-196.061 709.753,-193.657 720.908,-192 913.489,-163.39 967.952,-188.46 1164.09,-155.92"/>
<polygon fill="midnightblue" stroke="midnightblue" points="1164.87,-159.338 1174.15,-154.222 1163.71,-152.436 1164.87,-159.338"/>
</g>
</g>
</svg>
