<?xml version="1.0" encoding="UTF-8" standalone="no"?>
<!DOCTYPE svg PUBLIC "-//W3C//DTD SVG 1.1//EN"
 "http://www.w3.org/Graphics/SVG/1.1/DTD/svg11.dtd">
<!-- Generated by graphviz version 2.36.0 (20140111.2315)
 -->
<!-- Title: /home/travis/build/ComPWA/ComPWA/Optimizer/Geneva/GStartIndividual.hpp Pages: 1 -->
<svg width="962pt" height="206pt"
 viewBox="0.00 0.00 962.00 206.00" xmlns="http://www.w3.org/2000/svg" xmlns:xlink="http://www.w3.org/1999/xlink">
<g id="graph0" class="graph" transform="scale(1 1) rotate(0) translate(4 202)">
<title>/home/travis/build/ComPWA/ComPWA/Optimizer/Geneva/GStartIndividual.hpp</title>
<polygon fill="white" stroke="none" points="-4,4 -4,-202 958,-202 958,4 -4,4"/>
<!-- Node1 -->
<g id="node1" class="node"><title>Node1</title>
<polygon fill="#bfbfbf" stroke="black" points="571,-156.5 571,-197.5 727,-197.5 727,-156.5 571,-156.5"/>
<text text-anchor="start" x="579" y="-185.5" font-family="Helvetica,sans-Serif" font-size="10.00">/home/travis/build</text>
<text text-anchor="start" x="579" y="-174.5" font-family="Helvetica,sans-Serif" font-size="10.00">/ComPWA/ComPWA/Optimizer</text>
<text text-anchor="middle" x="649" y="-163.5" font-family="Helvetica,sans-Serif" font-size="10.00">/Geneva/GStartIndividual.hpp</text>
</g>
<!-- Node2 -->
<g id="node2" class="node"><title>Node2</title>
<g id="a_node2"><a xlink:href="../../db/d24/GenevaIF_8cpp.html" target="_top" xlink:title="/home/travis/build\l/ComPWA/ComPWA/Optimizer\l/Geneva/GenevaIF.cpp">
<polygon fill="white" stroke="black" points="555,-0.5 555,-41.5 711,-41.5 711,-0.5 555,-0.5"/>
<text text-anchor="start" x="563" y="-29.5" font-family="Helvetica,sans-Serif" font-size="10.00">/home/travis/build</text>
<text text-anchor="start" x="563" y="-18.5" font-family="Helvetica,sans-Serif" font-size="10.00">/ComPWA/ComPWA/Optimizer</text>
<text text-anchor="middle" x="633" y="-7.5" font-family="Helvetica,sans-Serif" font-size="10.00">/Geneva/GenevaIF.cpp</text>
</a>
</g>
</g>
<!-- Node1&#45;&gt;Node2 -->
<g id="edge1" class="edge"><title>Node1&#45;&gt;Node2</title>
<path fill="none" stroke="midnightblue" d="M627.832,-147.848C622.593,-139.338 617.707,-129.674 615,-120 607.542,-93.3461 616.438,-61.7283 624.158,-41.7632"/>
<polygon fill="midnightblue" stroke="midnightblue" points="624.932,-149.808 633.343,-156.25 630.785,-145.969 624.932,-149.808"/>
</g>
<!-- Node3 -->
<g id="node3" class="node"><title>Node3</title>
<g id="a_node3"><a xlink:href="../../db/dad/GenevaIF_8hpp.html" target="_top" xlink:title="This class provides a wrapper around the Geneva library. ">
<polygon fill="white" stroke="black" points="375,-78.5 375,-119.5 531,-119.5 531,-78.5 375,-78.5"/>
<text text-anchor="start" x="383" y="-107.5" font-family="Helvetica,sans-Serif" font-size="10.00">/home/travis/build</text>
<text text-anchor="start" x="383" y="-96.5" font-family="Helvetica,sans-Serif" font-size="10.00">/ComPWA/ComPWA/Optimizer</text>
<text text-anchor="middle" x="453" y="-85.5" font-family="Helvetica,sans-Serif" font-size="10.00">/Geneva/GenevaIF.hpp</text>
</a>
</g>
</g>
<!-- Node1&#45;&gt;Node3 -->
<g id="edge2" class="edge"><title>Node1&#45;&gt;Node3</title>
<path fill="none" stroke="midnightblue" d="M589.035,-152.748C561.599,-142.11 529.455,-129.646 503.304,-119.506"/>
<polygon fill="midnightblue" stroke="midnightblue" points="587.936,-156.076 598.525,-156.428 590.467,-149.55 587.936,-156.076"/>
</g>
<!-- Node7 -->
<g id="node7" class="node"><title>Node7</title>
<g id="a_node7"><a xlink:href="../../d6/d5e/GenevaResult_8hpp.html" target="_top" xlink:title="This class contains FitResults from Geneva Optimizations. ">
<polygon fill="white" stroke="black" points="624,-78.5 624,-119.5 780,-119.5 780,-78.5 624,-78.5"/>
<text text-anchor="start" x="632" y="-107.5" font-family="Helvetica,sans-Serif" font-size="10.00">/home/travis/build</text>
<text text-anchor="start" x="632" y="-96.5" font-family="Helvetica,sans-Serif" font-size="10.00">/ComPWA/ComPWA/Optimizer</text>
<text text-anchor="middle" x="702" y="-85.5" font-family="Helvetica,sans-Serif" font-size="10.00">/Geneva/GenevaResult.hpp</text>
</a>
</g>
</g>
<!-- Node1&#45;&gt;Node7 -->
<g id="edge7" class="edge"><title>Node1&#45;&gt;Node7</title>
<path fill="none" stroke="midnightblue" d="M668.493,-148.048C675.106,-138.566 682.345,-128.185 688.397,-119.506"/>
<polygon fill="midnightblue" stroke="midnightblue" points="665.498,-146.224 662.649,-156.428 671.24,-150.228 665.498,-146.224"/>
</g>
<!-- Node9 -->
<g id="node9" class="node"><title>Node9</title>
<g id="a_node9"><a xlink:href="../../db/d25/GStartIndividual_8cpp.html" target="_top" xlink:title="/home/travis/build\l/ComPWA/ComPWA/Optimizer\l/Geneva/GStartIndividual.cpp">
<polygon fill="white" stroke="black" points="798,-78.5 798,-119.5 954,-119.5 954,-78.5 798,-78.5"/>
<text text-anchor="start" x="806" y="-107.5" font-family="Helvetica,sans-Serif" font-size="10.00">/home/travis/build</text>
<text text-anchor="start" x="806" y="-96.5" font-family="Helvetica,sans-Serif" font-size="10.00">/ComPWA/ComPWA/Optimizer</text>
<text text-anchor="middle" x="876" y="-85.5" font-family="Helvetica,sans-Serif" font-size="10.00">/Geneva/GStartIndividual.cpp</text>
</a>
</g>
</g>
<!-- Node1&#45;&gt;Node9 -->
<g id="edge10" class="edge"><title>Node1&#45;&gt;Node9</title>
<path fill="none" stroke="midnightblue" d="M717.204,-153.165C749.249,-142.437 787.056,-129.779 817.74,-119.506"/>
<polygon fill="midnightblue" stroke="midnightblue" points="715.83,-149.934 707.458,-156.428 718.052,-156.572 715.83,-149.934"/>
</g>
<!-- Node3&#45;&gt;Node2 -->
<g id="edge6" class="edge"><title>Node3&#45;&gt;Node2</title>
<path fill="none" stroke="midnightblue" d="M508.731,-74.4689C533.782,-63.8921 562.996,-51.5572 586.803,-41.5056"/>
<polygon fill="midnightblue" stroke="midnightblue" points="507.206,-71.314 499.354,-78.4281 509.928,-77.7627 507.206,-71.314"/>
</g>
<!-- Node4 -->
<g id="node4" class="node"><title>Node4</title>
<g id="a_node4"><a xlink:href="../../dc/d3f/NeuralNetworkApp_8cpp.html" target="_top" xlink:title="/home/travis/build\l/ComPWA/ComPWA/executables\l/NeuralNetworkApp.cpp">
<polygon fill="white" stroke="black" points="-0.5,-0.5 -0.5,-41.5 166.5,-41.5 166.5,-0.5 -0.5,-0.5"/>
<text text-anchor="start" x="7.5" y="-29.5" font-family="Helvetica,sans-Serif" font-size="10.00">/home/travis/build</text>
<text text-anchor="start" x="7.5" y="-18.5" font-family="Helvetica,sans-Serif" font-size="10.00">/ComPWA/ComPWA/executables</text>
<text text-anchor="middle" x="83" y="-7.5" font-family="Helvetica,sans-Serif" font-size="10.00">/NeuralNetworkApp.cpp</text>
</a>
</g>
</g>
<!-- Node3&#45;&gt;Node4 -->
<g id="edge3" class="edge"><title>Node3&#45;&gt;Node4</title>
<path fill="none" stroke="midnightblue" d="M364.739,-80.5786C310.055,-69.696 238.397,-55.2755 175,-42 172.28,-41.4305 169.516,-40.8484 166.725,-40.258"/>
<polygon fill="midnightblue" stroke="midnightblue" points="364.255,-84.0509 374.746,-82.5683 365.62,-77.1853 364.255,-84.0509"/>
</g>
<!-- Node5 -->
<g id="node5" class="node"><title>Node5</title>
<g id="a_node5"><a xlink:href="../../d4/d5e/GenevaTestApp_8cpp.html" target="_top" xlink:title="/home/travis/build\l/ComPWA/ComPWA/executables\l/test/GenevaTestApp.cpp">
<polygon fill="white" stroke="black" points="184.5,-0.5 184.5,-41.5 351.5,-41.5 351.5,-0.5 184.5,-0.5"/>
<text text-anchor="start" x="192.5" y="-29.5" font-family="Helvetica,sans-Serif" font-size="10.00">/home/travis/build</text>
<text text-anchor="start" x="192.5" y="-18.5" font-family="Helvetica,sans-Serif" font-size="10.00">/ComPWA/ComPWA/executables</text>
<text text-anchor="middle" x="268" y="-7.5" font-family="Helvetica,sans-Serif" font-size="10.00">/test/GenevaTestApp.cpp</text>
</a>
</g>
</g>
<!-- Node3&#45;&gt;Node5 -->
<g id="edge4" class="edge"><title>Node3&#45;&gt;Node5</title>
<path fill="none" stroke="midnightblue" d="M396.06,-74.6086C370.239,-64.0008 340.056,-51.6015 315.481,-41.5056"/>
<polygon fill="midnightblue" stroke="midnightblue" points="394.778,-77.8656 405.358,-78.4281 397.438,-71.3906 394.778,-77.8656"/>
</g>
<!-- Node6 -->
<g id="node6" class="node"><title>Node6</title>
<g id="a_node6"><a xlink:href="../../d4/db7/OptimizerTestApp_8cpp.html" target="_top" xlink:title="Test&#45;Application of the Optimizer&#45;IF. ">
<polygon fill="white" stroke="black" points="369.5,-0.5 369.5,-41.5 536.5,-41.5 536.5,-0.5 369.5,-0.5"/>
<text text-anchor="start" x="377.5" y="-29.5" font-family="Helvetica,sans-Serif" font-size="10.00">/home/travis/build</text>
<text text-anchor="start" x="377.5" y="-18.5" font-family="Helvetica,sans-Serif" font-size="10.00">/ComPWA/ComPWA/executables</text>
<text text-anchor="middle" x="453" y="-7.5" font-family="Helvetica,sans-Serif" font-size="10.00">/test/OptimizerTestApp.cpp</text>
</a>
</g>
</g>
<!-- Node3&#45;&gt;Node6 -->
<g id="edge5" class="edge"><title>Node3&#45;&gt;Node6</title>
<path fill="none" stroke="midnightblue" d="M453,-68.2965C453,-59.3009 453,-49.6532 453,-41.5056"/>
<polygon fill="midnightblue" stroke="midnightblue" points="449.5,-68.4281 453,-78.4281 456.5,-68.4281 449.5,-68.4281"/>
</g>
<!-- Node7&#45;&gt;Node2 -->
<g id="edge8" class="edge"><title>Node7&#45;&gt;Node2</title>
<path fill="none" stroke="midnightblue" d="M677.41,-70.9158C668.592,-61.2029 658.83,-50.4502 650.709,-41.5056"/>
<polygon fill="midnightblue" stroke="midnightblue" points="674.918,-73.3769 684.231,-78.4281 680.1,-68.6716 674.918,-73.3769"/>
</g>
<!-- Node8 -->
<g id="node8" class="node"><title>Node8</title>
<g id="a_node8"><a xlink:href="../../db/d4d/GenevaResult_8cpp.html" target="_top" xlink:title="/home/travis/build\l/ComPWA/ComPWA/Optimizer\l/Geneva/GenevaResult.cpp">
<polygon fill="white" stroke="black" points="729,-0.5 729,-41.5 885,-41.5 885,-0.5 729,-0.5"/>
<text text-anchor="start" x="737" y="-29.5" font-family="Helvetica,sans-Serif" font-size="10.00">/home/travis/build</text>
<text text-anchor="start" x="737" y="-18.5" font-family="Helvetica,sans-Serif" font-size="10.00">/ComPWA/ComPWA/Optimizer</text>
<text text-anchor="middle" x="807" y="-7.5" font-family="Helvetica,sans-Serif" font-size="10.00">/Geneva/GenevaResult.cpp</text>
</a>
</g>
</g>
<!-- Node7&#45;&gt;Node8 -->
<g id="edge9" class="edge"><title>Node7&#45;&gt;Node8</title>
<path fill="none" stroke="midnightblue" d="M737.437,-72.3503C751.361,-62.2719 767.082,-50.893 780.052,-41.5056"/>
<polygon fill="midnightblue" stroke="midnightblue" points="735.089,-69.7295 729.04,-78.4281 739.193,-75.4 735.089,-69.7295"/>
</g>
</g>
</svg>
