<?xml version="1.0" encoding="UTF-8" standalone="no"?>
<!DOCTYPE svg PUBLIC "-//W3C//DTD SVG 1.1//EN"
 "http://www.w3.org/Graphics/SVG/1.1/DTD/svg11.dtd">
<!-- Generated by graphviz version 2.26.3 (20100126.1600)
 -->
<!-- Title: G Pages: 1 -->
<svg width="421pt" height="320pt"
 viewBox="0.00 0.00 421.00 320.00" xmlns="http://www.w3.org/2000/svg" xmlns:xlink="http://www.w3.org/1999/xlink">
<g id="graph1" class="graph" transform="scale(1 1) rotate(0) translate(4 316)">
<title>G</title>
<polygon fill="white" stroke="white" points="-4,5 -4,-316 418,-316 418,5 -4,5"/>
<!-- Node1 -->
<g id="node1" class="node"><title>Node1</title>
<polygon fill="#bfbfbf" stroke="black" points="61.5,-290.5 61.5,-311.5 252.5,-311.5 252.5,-290.5 61.5,-290.5"/>
<text text-anchor="middle" x="157" y="-298.5" font-family="Helvetica,sans-Serif" font-size="10.00">Physics/AmplitudeSum/AmpWigner.cpp</text>
</g>
<!-- Node2 -->
<g id="node3" class="node"><title>Node2</title>
<polygon fill="white" stroke="#bfbfbf" points="0,-232.5 0,-253.5 44,-253.5 44,-232.5 0,-232.5"/>
<text text-anchor="middle" x="22" y="-240.5" font-family="Helvetica,sans-Serif" font-size="10.00">cmath</text>
</g>
<!-- Node1&#45;&gt;Node2 -->
<g id="edge2" class="edge"><title>Node1&#45;&gt;Node2</title>
<path fill="none" stroke="midnightblue" d="M132.553,-290.497C110.381,-280.971 77.5733,-266.876 53.4544,-256.514"/>
<polygon fill="midnightblue" stroke="midnightblue" points="54.6001,-253.197 44.0306,-252.465 51.8369,-259.628 54.6001,-253.197"/>
</g>
<!-- Node3 -->
<g id="node5" class="node"><title>Node3</title>
<a xlink:href="../../d4/d12/AmpWigner_8hpp.xhtml" target="_top" xlink:title="Physics/AmplitudeSum/AmpWigner.hpp">
<polygon fill="white" stroke="black" points="61.5,-232.5 61.5,-253.5 252.5,-253.5 252.5,-232.5 61.5,-232.5"/>
<text text-anchor="middle" x="157" y="-240.5" font-family="Helvetica,sans-Serif" font-size="10.00">Physics/AmplitudeSum/AmpWigner.hpp</text>
</a>
</g>
<!-- Node1&#45;&gt;Node3 -->
<g id="edge4" class="edge"><title>Node1&#45;&gt;Node3</title>
<path fill="none" stroke="midnightblue" d="M157,-290.362C157,-282.922 157,-272.743 157,-263.728"/>
<polygon fill="midnightblue" stroke="midnightblue" points="160.5,-263.571 157,-253.571 153.5,-263.571 160.5,-263.571"/>
</g>
<!-- Node13 -->
<g id="node31" class="node"><title>Node13</title>
<polygon fill="white" stroke="#bfbfbf" points="270,-232.5 270,-253.5 318,-253.5 318,-232.5 270,-232.5"/>
<text text-anchor="middle" x="294" y="-240.5" font-family="Helvetica,sans-Serif" font-size="10.00">qft++.h</text>
</g>
<!-- Node1&#45;&gt;Node13 -->
<g id="edge36" class="edge"><title>Node1&#45;&gt;Node13</title>
<path fill="none" stroke="midnightblue" d="M181.81,-290.497C203.865,-281.159 236.292,-267.431 260.619,-257.132"/>
<polygon fill="midnightblue" stroke="midnightblue" points="261.991,-260.352 269.835,-253.231 259.262,-253.906 261.991,-260.352"/>
</g>
<!-- Node4 -->
<g id="node7" class="node"><title>Node4</title>
<polygon fill="white" stroke="#bfbfbf" points="110,-0.5 110,-21.5 154,-21.5 154,-0.5 110,-0.5"/>
<text text-anchor="middle" x="132" y="-8.5" font-family="Helvetica,sans-Serif" font-size="10.00">vector</text>
</g>
<!-- Node3&#45;&gt;Node4 -->
<g id="edge6" class="edge"><title>Node3&#45;&gt;Node4</title>
<path fill="none" stroke="midnightblue" d="M95.3209,-232.493C74.5211,-225.685 53.4455,-214.471 41,-196 21.4195,-166.94 -15.4378,-175.079 61,-58 70.546,-43.3785 86.3993,-32.2436 100.707,-24.4907"/>
<polygon fill="midnightblue" stroke="midnightblue" points="102.465,-27.5234 109.804,-19.8817 99.3015,-21.2791 102.465,-27.5234"/>
</g>
<!-- Node5 -->
<g id="node9" class="node"><title>Node5</title>
<a xlink:href="../../d7/dd9/DalitzKinematics_8hpp.xhtml" target="_top" xlink:title="Physics/DPKinematics/DalitzKinematics.hpp">
<polygon fill="white" stroke="black" points="50,-174.5 50,-195.5 264,-195.5 264,-174.5 50,-174.5"/>
<text text-anchor="middle" x="157" y="-182.5" font-family="Helvetica,sans-Serif" font-size="10.00">Physics/DPKinematics/DalitzKinematics.hpp</text>
</a>
</g>
<!-- Node3&#45;&gt;Node5 -->
<g id="edge8" class="edge"><title>Node3&#45;&gt;Node5</title>
<path fill="none" stroke="midnightblue" d="M157,-232.362C157,-224.922 157,-214.743 157,-205.728"/>
<polygon fill="midnightblue" stroke="midnightblue" points="160.5,-205.571 157,-195.571 153.5,-205.571 160.5,-205.571"/>
</g>
<!-- Node10 -->
<g id="node22" class="node"><title>Node10</title>
<a xlink:href="../../d8/dd4/DataPoint_8hpp.xhtml" target="_top" xlink:title="dataPoint stores kinematic information of a dalitz plot">
<polygon fill="white" stroke="black" points="307.5,-58.5 307.5,-79.5 410.5,-79.5 410.5,-58.5 307.5,-58.5"/>
<text text-anchor="middle" x="359" y="-66.5" font-family="Helvetica,sans-Serif" font-size="10.00">Core/DataPoint.hpp</text>
</a>
</g>
<!-- Node3&#45;&gt;Node10 -->
<g id="edge34" class="edge"><title>Node3&#45;&gt;Node10</title>
<path fill="none" stroke="midnightblue" d="M197.273,-232.441C220.916,-224.903 250.477,-213.049 273,-196 311.007,-167.229 337.912,-116.594 350.657,-88.7419"/>
<polygon fill="midnightblue" stroke="midnightblue" points="353.859,-90.155 354.706,-79.594 347.458,-87.3217 353.859,-90.155"/>
</g>
<!-- Node5&#45;&gt;Node4 -->
<g id="edge12" class="edge"><title>Node5&#45;&gt;Node4</title>
<path fill="none" stroke="midnightblue" d="M120.959,-174.481C103.194,-167.274 83.3969,-155.731 73,-138 55.0152,-107.328 57.5646,-90.0304 73,-58 79.2066,-45.1205 90.8494,-34.6785 102.163,-26.9373"/>
<polygon fill="midnightblue" stroke="midnightblue" points="104.087,-29.8617 110.655,-21.5484 100.336,-23.9513 104.087,-29.8617"/>
</g>
<!-- Node6 -->
<g id="node11" class="node"><title>Node6</title>
<polygon fill="white" stroke="#bfbfbf" points="82,-116.5 82,-137.5 136,-137.5 136,-116.5 82,-116.5"/>
<text text-anchor="middle" x="109" y="-124.5" font-family="Helvetica,sans-Serif" font-size="10.00">iostream</text>
</g>
<!-- Node5&#45;&gt;Node6 -->
<g id="edge10" class="edge"><title>Node5&#45;&gt;Node6</title>
<path fill="none" stroke="midnightblue" d="M148.196,-174.362C141.498,-166.268 132.116,-154.932 124.211,-145.38"/>
<polygon fill="midnightblue" stroke="midnightblue" points="126.82,-143.043 117.748,-137.571 121.427,-147.506 126.82,-143.043"/>
</g>
<!-- Node7 -->
<g id="node14" class="node"><title>Node7</title>
<polygon fill="white" stroke="#bfbfbf" points="81.5,-58.5 81.5,-79.5 182.5,-79.5 182.5,-58.5 81.5,-58.5"/>
<text text-anchor="middle" x="132" y="-66.5" font-family="Helvetica,sans-Serif" font-size="10.00">boost/log/trivial.hpp</text>
</g>
<!-- Node5&#45;&gt;Node7 -->
<g id="edge14" class="edge"><title>Node5&#45;&gt;Node7</title>
<path fill="none" stroke="midnightblue" d="M155.453,-174.179C153.426,-160.538 149.585,-136.405 145,-116 143.038,-107.27 140.481,-97.7377 138.154,-89.5533"/>
<polygon fill="midnightblue" stroke="midnightblue" points="141.455,-88.3726 135.297,-79.7517 134.735,-90.3316 141.455,-88.3726"/>
</g>
<!-- Node8 -->
<g id="node16" class="node"><title>Node8</title>
<a xlink:href="../../d4/d37/Kinematics_8hpp.xhtml" target="_top" xlink:title="Core/Kinematics.hpp">
<polygon fill="white" stroke="black" points="201,-116.5 201,-137.5 309,-137.5 309,-116.5 201,-116.5"/>
<text text-anchor="middle" x="255" y="-124.5" font-family="Helvetica,sans-Serif" font-size="10.00">Core/Kinematics.hpp</text>
</a>
</g>
<!-- Node5&#45;&gt;Node8 -->
<g id="edge16" class="edge"><title>Node5&#45;&gt;Node8</title>
<path fill="none" stroke="midnightblue" d="M174.975,-174.362C189.894,-165.532 211.333,-152.844 228.266,-142.822"/>
<polygon fill="midnightblue" stroke="midnightblue" points="230.316,-145.676 237.139,-137.571 226.751,-139.652 230.316,-145.676"/>
</g>
<!-- Node8&#45;&gt;Node4 -->
<g id="edge18" class="edge"><title>Node8&#45;&gt;Node4</title>
<path fill="none" stroke="midnightblue" d="M245.923,-116.248C233.919,-102.262 211.844,-77.3333 191,-58 179.523,-47.3548 165.901,-36.4039 154.639,-27.7535"/>
<polygon fill="midnightblue" stroke="midnightblue" points="156.645,-24.8822 146.562,-21.6301 152.416,-30.4605 156.645,-24.8822"/>
</g>
<!-- Node8&#45;&gt;Node7 -->
<g id="edge22" class="edge"><title>Node8&#45;&gt;Node7</title>
<path fill="none" stroke="midnightblue" d="M232.726,-116.497C213.428,-107.397 185.287,-94.1273 163.652,-83.9253"/>
<polygon fill="midnightblue" stroke="midnightblue" points="165.062,-80.7206 154.524,-79.6212 162.076,-87.052 165.062,-80.7206"/>
</g>
<!-- Node9 -->
<g id="node19" class="node"><title>Node9</title>
<polygon fill="white" stroke="#bfbfbf" points="238,-58.5 238,-79.5 290,-79.5 290,-58.5 238,-58.5"/>
<text text-anchor="middle" x="264" y="-66.5" font-family="Helvetica,sans-Serif" font-size="10.00">memory</text>
</g>
<!-- Node8&#45;&gt;Node9 -->
<g id="edge20" class="edge"><title>Node8&#45;&gt;Node9</title>
<path fill="none" stroke="midnightblue" d="M256.651,-116.362C257.805,-108.922 259.385,-98.7427 260.784,-89.7276"/>
<polygon fill="midnightblue" stroke="midnightblue" points="264.285,-89.9891 262.36,-79.5707 257.368,-88.9157 264.285,-89.9891"/>
</g>
<!-- Node8&#45;&gt;Node10 -->
<g id="edge24" class="edge"><title>Node8&#45;&gt;Node10</title>
<path fill="none" stroke="midnightblue" d="M268.711,-116.362C283.246,-107.368 306.328,-94.3727 325.595,-84.2684"/>
<polygon fill="midnightblue" stroke="midnightblue" points="327.414,-87.2686 334.694,-79.5707 324.202,-81.0488 327.414,-87.2686"/>
</g>
<!-- Node10&#45;&gt;Node4 -->
<g id="edge30" class="edge"><title>Node10&#45;&gt;Node4</title>
<path fill="none" stroke="midnightblue" d="M317.892,-58.4966C273.7,-47.2052 204.378,-29.493 164.048,-19.1886"/>
<polygon fill="midnightblue" stroke="midnightblue" points="164.767,-15.7597 154.211,-16.6752 163.034,-22.5418 164.767,-15.7597"/>
</g>
<!-- Node10&#45;&gt;Node8 -->
<g id="edge32" class="edge"><title>Node10&#45;&gt;Node8</title>
<path fill="none" stroke="midnightblue" d="M345.316,-79.6212C330.753,-88.6338 307.589,-101.675 288.285,-111.794"/>
<polygon fill="midnightblue" stroke="midnightblue" points="286.455,-108.8 279.174,-116.497 289.665,-115.021 286.455,-108.8"/>
</g>
<!-- Node11 -->
<g id="node24" class="node"><title>Node11</title>
<polygon fill="white" stroke="#bfbfbf" points="304.5,-0.5 304.5,-21.5 349.5,-21.5 349.5,-0.5 304.5,-0.5"/>
<text text-anchor="middle" x="327" y="-8.5" font-family="Helvetica,sans-Serif" font-size="10.00">cstdlib</text>
</g>
<!-- Node10&#45;&gt;Node11 -->
<g id="edge26" class="edge"><title>Node10&#45;&gt;Node11</title>
<path fill="none" stroke="midnightblue" d="M353.131,-58.3619C348.845,-50.5949 342.913,-39.8426 337.784,-30.5458"/>
<polygon fill="midnightblue" stroke="midnightblue" points="340.727,-28.6357 332.832,-21.5707 334.598,-32.0172 340.727,-28.6357"/>
</g>
<!-- Node12 -->
<g id="node26" class="node"><title>Node12</title>
<polygon fill="white" stroke="#bfbfbf" points="366.5,-0.5 366.5,-21.5 413.5,-21.5 413.5,-0.5 366.5,-0.5"/>
<text text-anchor="middle" x="390" y="-8.5" font-family="Helvetica,sans-Serif" font-size="10.00">math.h</text>
</g>
<!-- Node10&#45;&gt;Node12 -->
<g id="edge28" class="edge"><title>Node10&#45;&gt;Node12</title>
<path fill="none" stroke="midnightblue" d="M364.686,-58.3619C368.837,-50.5949 374.584,-39.8426 379.553,-30.5458"/>
<polygon fill="midnightblue" stroke="midnightblue" points="382.723,-32.0398 384.35,-21.5707 376.55,-28.7401 382.723,-32.0398"/>
</g>
</g>
</svg>
