<?xml version="1.0" encoding="UTF-8" standalone="no"?>
<!DOCTYPE svg PUBLIC "-//W3C//DTD SVG 1.1//EN"
 "http://www.w3.org/Graphics/SVG/1.1/DTD/svg11.dtd">
<!-- Generated by graphviz version 2.36.0 (20140111.2315)
 -->
<!-- Title: NeatPlotting::AxisStyle Pages: 1 -->
<svg width="144pt" height="260pt"
 viewBox="0.00 0.00 144.00 260.00" xmlns="http://www.w3.org/2000/svg" xmlns:xlink="http://www.w3.org/1999/xlink">
<g id="graph0" class="graph" transform="scale(1 1) rotate(0) translate(4 256)">
<title>NeatPlotting::AxisStyle</title>
<polygon fill="white" stroke="none" points="-4,4 -4,-256 140,-256 140,4 -4,4"/>
<!-- Node1 -->
<g id="node1" class="node"><title>Node1</title>
<polygon fill="#bfbfbf" stroke="black" points="-0.5,-0.5 -0.5,-101.5 120.5,-101.5 120.5,-0.5 -0.5,-0.5"/>
<text text-anchor="middle" x="60" y="-89.5" font-family="Helvetica,sans-Serif" font-size="10.00">NeatPlotting::AxisStyle</text>
<polyline fill="none" stroke="black" points="-0.5,-82.5 120.5,-82.5 "/>
<text text-anchor="start" x="7.5" y="-70.5" font-family="Helvetica,sans-Serif" font-size="10.00">+ log_scale</text>
<text text-anchor="start" x="7.5" y="-59.5" font-family="Helvetica,sans-Serif" font-size="10.00">+ axis_label_text_offset</text>
<text text-anchor="start" x="7.5" y="-48.5" font-family="Helvetica,sans-Serif" font-size="10.00">+ axis_title_text_offset</text>
<polyline fill="none" stroke="black" points="-0.5,-41.5 120.5,-41.5 "/>
<text text-anchor="start" x="7.5" y="-29.5" font-family="Helvetica,sans-Serif" font-size="10.00">+ AxisStyle()</text>
<text text-anchor="start" x="7.5" y="-18.5" font-family="Helvetica,sans-Serif" font-size="10.00">+ operator&lt;()</text>
<text text-anchor="start" x="7.5" y="-7.5" font-family="Helvetica,sans-Serif" font-size="10.00">+ operator&gt;()</text>
</g>
<!-- Node2 -->
<g id="node2" class="node"><title>Node2</title>
<g id="a_node2"><a xlink:href="../../df/d4c/structNeatPlotting_1_1TextStyle.html" target="_top" xlink:title="{NeatPlotting::TextStyle\n|+ text_font\l+ text_size\l+ text_color\l|+ TextStyle()\l+ operator\&lt;()\l+ operator\&gt;()\l}">
<polygon fill="white" stroke="black" points="0.5,-150.5 0.5,-251.5 119.5,-251.5 119.5,-150.5 0.5,-150.5"/>
<text text-anchor="middle" x="60" y="-239.5" font-family="Helvetica,sans-Serif" font-size="10.00">NeatPlotting::TextStyle</text>
<polyline fill="none" stroke="black" points="0.5,-232.5 119.5,-232.5 "/>
<text text-anchor="start" x="8.5" y="-220.5" font-family="Helvetica,sans-Serif" font-size="10.00">+ text_font</text>
<text text-anchor="start" x="8.5" y="-209.5" font-family="Helvetica,sans-Serif" font-size="10.00">+ text_size</text>
<text text-anchor="start" x="8.5" y="-198.5" font-family="Helvetica,sans-Serif" font-size="10.00">+ text_color</text>
<polyline fill="none" stroke="black" points="0.5,-191.5 119.5,-191.5 "/>
<text text-anchor="start" x="8.5" y="-179.5" font-family="Helvetica,sans-Serif" font-size="10.00">+ TextStyle()</text>
<text text-anchor="start" x="8.5" y="-168.5" font-family="Helvetica,sans-Serif" font-size="10.00">+ operator&lt;()</text>
<text text-anchor="start" x="8.5" y="-157.5" font-family="Helvetica,sans-Serif" font-size="10.00">+ operator&gt;()</text>
</a>
</g>
</g>
<!-- Node2&#45;&gt;Node1 -->
<g id="edge1" class="edge"><title>Node2&#45;&gt;Node1</title>
<path fill="none" stroke="#404040" d="M60,-150.306C60,-138.529 60,-125.827 60,-113.591"/>
<polygon fill="none" stroke="#404040" points="60.0001,-113.562 56,-107.562 60,-101.562 64,-107.562 60.0001,-113.562"/>
<text text-anchor="middle" x="98" y="-123.5" font-family="Helvetica,sans-Serif" font-size="10.00"> +axis_text_style</text>
</g>
</g>
</svg>
