<?xml version="1.0" encoding="UTF-8" standalone="no"?>
<!DOCTYPE svg PUBLIC "-//W3C//DTD SVG 1.1//EN"
 "http://www.w3.org/Graphics/SVG/1.1/DTD/svg11.dtd">
<!-- Generated by graphviz version 2.36.0 (20140111.2315)
 -->
<!-- Title: /home/travis/build/ComPWA/ComPWA/Optimizer/Minuit2/MinuitResult.cpp Pages: 1 -->
<svg width="1552pt" height="410pt"
 viewBox="0.00 0.00 1552.34 410.00" xmlns="http://www.w3.org/2000/svg" xmlns:xlink="http://www.w3.org/1999/xlink">
<g id="graph0" class="graph" transform="scale(1 1) rotate(0) translate(4 406)">
<title>/home/travis/build/ComPWA/ComPWA/Optimizer/Minuit2/MinuitResult.cpp</title>
<polygon fill="white" stroke="none" points="-4,4 -4,-406 1548.34,-406 1548.34,4 -4,4"/>
<!-- Node1 -->
<g id="node1" class="node"><title>Node1</title>
<polygon fill="#bfbfbf" stroke="black" points="170,-360.5 170,-401.5 326,-401.5 326,-360.5 170,-360.5"/>
<text text-anchor="start" x="178" y="-389.5" font-family="Helvetica,sans-Serif" font-size="10.00">/home/travis/build</text>
<text text-anchor="start" x="178" y="-378.5" font-family="Helvetica,sans-Serif" font-size="10.00">/ComPWA/ComPWA/Optimizer</text>
<text text-anchor="middle" x="248" y="-367.5" font-family="Helvetica,sans-Serif" font-size="10.00">/Minuit2/MinuitResult.cpp</text>
</g>
<!-- Node2 -->
<g id="node2" class="node"><title>Node2</title>
<polygon fill="white" stroke="#bfbfbf" points="-0.5,-298.5 -0.5,-317.5 50.5,-317.5 50.5,-298.5 -0.5,-298.5"/>
<text text-anchor="middle" x="25" y="-305.5" font-family="Helvetica,sans-Serif" font-size="10.00">numeric</text>
</g>
<!-- Node1&#45;&gt;Node2 -->
<g id="edge1" class="edge"><title>Node1&#45;&gt;Node2</title>
<path fill="none" stroke="midnightblue" d="M180.324,-360.378C145.67,-350.055 102.904,-336.893 65,-324 62.391,-323.113 59.6968,-322.167 56.9969,-321.198"/>
<polygon fill="midnightblue" stroke="midnightblue" points="57.931,-317.813 47.3374,-317.655 55.5202,-324.385 57.931,-317.813"/>
</g>
<!-- Node3 -->
<g id="node3" class="node"><title>Node3</title>
<polygon fill="white" stroke="#bfbfbf" points="489,-112.5 489,-131.5 533,-131.5 533,-112.5 489,-112.5"/>
<text text-anchor="middle" x="511" y="-119.5" font-family="Helvetica,sans-Serif" font-size="10.00">cmath</text>
</g>
<!-- Node1&#45;&gt;Node3 -->
<g id="edge2" class="edge"><title>Node1&#45;&gt;Node3</title>
<path fill="none" stroke="midnightblue" d="M326.177,-368.555C380.165,-359.077 445.602,-343.94 465,-324 514.3,-273.321 514.91,-181.202 512.615,-141.75"/>
<polygon fill="midnightblue" stroke="midnightblue" points="516.1,-141.421 511.894,-131.697 509.118,-141.921 516.1,-141.421"/>
</g>
<!-- Node4 -->
<g id="node4" class="node"><title>Node4</title>
<polygon fill="white" stroke="#bfbfbf" points="107.5,-298.5 107.5,-317.5 152.5,-317.5 152.5,-298.5 107.5,-298.5"/>
<text text-anchor="middle" x="130" y="-305.5" font-family="Helvetica,sans-Serif" font-size="10.00">cstdlib</text>
</g>
<!-- Node1&#45;&gt;Node4 -->
<g id="edge3" class="edge"><title>Node1&#45;&gt;Node4</title>
<path fill="none" stroke="midnightblue" d="M215.444,-360.411C195.576,-348.457 170.665,-333.468 152.876,-322.765"/>
<polygon fill="midnightblue" stroke="midnightblue" points="154.661,-319.754 144.288,-317.597 151.052,-325.752 154.661,-319.754"/>
</g>
<!-- Node5 -->
<g id="node5" class="node"><title>Node5</title>
<polygon fill="white" stroke="#bfbfbf" points="170.5,-298.5 170.5,-317.5 325.5,-317.5 325.5,-298.5 170.5,-298.5"/>
<text text-anchor="middle" x="248" y="-305.5" font-family="Helvetica,sans-Serif" font-size="10.00">boost/archive/xml_oarchive.hpp</text>
</g>
<!-- Node1&#45;&gt;Node5 -->
<g id="edge4" class="edge"><title>Node1&#45;&gt;Node5</title>
<path fill="none" stroke="midnightblue" d="M248,-360.223C248,-350.086 248,-337.807 248,-327.813"/>
<polygon fill="midnightblue" stroke="midnightblue" points="251.5,-327.735 248,-317.735 244.5,-327.735 251.5,-327.735"/>
</g>
<!-- Node6 -->
<g id="node6" class="node"><title>Node6</title>
<g id="a_node6"><a xlink:href="../../d7/df5/ProgressBar_8hpp.html" target="_top" xlink:title="Core/ProgressBar.hpp">
<polygon fill="white" stroke="black" points="343.5,-298.5 343.5,-317.5 456.5,-317.5 456.5,-298.5 343.5,-298.5"/>
<text text-anchor="middle" x="400" y="-305.5" font-family="Helvetica,sans-Serif" font-size="10.00">Core/ProgressBar.hpp</text>
</a>
</g>
</g>
<!-- Node1&#45;&gt;Node6 -->
<g id="edge5" class="edge"><title>Node1&#45;&gt;Node6</title>
<path fill="none" stroke="midnightblue" d="M289.937,-360.411C316.233,-348.128 349.389,-332.641 372.403,-321.891"/>
<polygon fill="midnightblue" stroke="midnightblue" points="374.016,-325 381.595,-317.597 371.054,-318.658 374.016,-325"/>
</g>
<!-- Node9 -->
<g id="node9" class="node"><title>Node9</title>
<g id="a_node9"><a xlink:href="../../da/db4/Logging_8hpp.html" target="_top" xlink:title="Core/Logging.hpp">
<polygon fill="white" stroke="black" points="376.5,-56.5 376.5,-75.5 469.5,-75.5 469.5,-56.5 376.5,-56.5"/>
<text text-anchor="middle" x="423" y="-63.5" font-family="Helvetica,sans-Serif" font-size="10.00">Core/Logging.hpp</text>
</a>
</g>
</g>
<!-- Node1&#45;&gt;Node9 -->
<g id="edge8" class="edge"><title>Node1&#45;&gt;Node9</title>
<path fill="none" stroke="midnightblue" d="M169.964,-366.5C143.747,-358.293 116.497,-345.121 98,-324 73.0678,-295.531 79,-278.843 79,-241 79,-241 79,-241 79,-177 79,-117.426 268.54,-85.6851 366.234,-73.2817"/>
<polygon fill="midnightblue" stroke="midnightblue" points="366.757,-76.7438 376.249,-72.0372 365.893,-69.7973 366.757,-76.7438"/>
</g>
<!-- Node12 -->
<g id="node12" class="node"><title>Node12</title>
<g id="a_node12"><a xlink:href="../../d3/d89/MinuitResult_8hpp.html" target="_top" xlink:title="Optimizer/Minuit2/Minuit\lResult.hpp">
<polygon fill="white" stroke="red" points="959,-293 959,-323 1081,-323 1081,-293 959,-293"/>
<text text-anchor="start" x="967" y="-311" font-family="Helvetica,sans-Serif" font-size="10.00">Optimizer/Minuit2/Minuit</text>
<text text-anchor="middle" x="1020" y="-300" font-family="Helvetica,sans-Serif" font-size="10.00">Result.hpp</text>
</a>
</g>
</g>
<!-- Node1&#45;&gt;Node12 -->
<g id="edge11" class="edge"><title>Node1&#45;&gt;Node12</title>
<path fill="none" stroke="midnightblue" d="M326.272,-372.801C476.665,-358.97 803.916,-328.873 948.673,-315.56"/>
<polygon fill="midnightblue" stroke="midnightblue" points="949.138,-319.032 958.775,-314.631 948.497,-312.061 949.138,-319.032"/>
</g>
<!-- Node7 -->
<g id="node7" class="node"><title>Node7</title>
<polygon fill="white" stroke="#bfbfbf" points="365.5,-230.5 365.5,-249.5 406.5,-249.5 406.5,-230.5 365.5,-230.5"/>
<text text-anchor="middle" x="386" y="-237.5" font-family="Helvetica,sans-Serif" font-size="10.00">ctime</text>
</g>
<!-- Node6&#45;&gt;Node7 -->
<g id="edge6" class="edge"><title>Node6&#45;&gt;Node7</title>
<path fill="none" stroke="midnightblue" d="M398.17,-298.372C396.106,-288.643 392.688,-272.528 389.999,-259.85"/>
<polygon fill="midnightblue" stroke="midnightblue" points="393.374,-258.897 387.875,-249.841 386.527,-260.35 393.374,-258.897"/>
</g>
<!-- Node8 -->
<g id="node8" class="node"><title>Node8</title>
<polygon fill="white" stroke="#bfbfbf" points="701,-56.5 701,-75.5 755,-75.5 755,-56.5 701,-56.5"/>
<text text-anchor="middle" x="728" y="-63.5" font-family="Helvetica,sans-Serif" font-size="10.00">iostream</text>
</g>
<!-- Node6&#45;&gt;Node8 -->
<g id="edge7" class="edge"><title>Node6&#45;&gt;Node8</title>
<path fill="none" stroke="midnightblue" d="M403.023,-298.271C415.646,-262.037 464.215,-124.778 480,-112 511.83,-86.2342 629.688,-74.0897 690.762,-69.4219"/>
<polygon fill="midnightblue" stroke="midnightblue" points="691.047,-72.9105 700.764,-68.6857 690.534,-65.9294 691.047,-72.9105"/>
</g>
<!-- Node10 -->
<g id="node10" class="node"><title>Node10</title>
<polygon fill="white" stroke="#bfbfbf" points="309.5,-0.5 309.5,-19.5 410.5,-19.5 410.5,-0.5 309.5,-0.5"/>
<text text-anchor="middle" x="360" y="-7.5" font-family="Helvetica,sans-Serif" font-size="10.00">boost/log/trivial.hpp</text>
</g>
<!-- Node9&#45;&gt;Node10 -->
<g id="edge9" class="edge"><title>Node9&#45;&gt;Node10</title>
<path fill="none" stroke="midnightblue" d="M412.878,-56.324C403.474,-48.2631 389.256,-36.0765 377.931,-26.3695"/>
<polygon fill="midnightblue" stroke="midnightblue" points="380.177,-23.6844 370.306,-19.8339 375.621,-28.9993 380.177,-23.6844"/>
</g>
<!-- Node11 -->
<g id="node11" class="node"><title>Node11</title>
<polygon fill="white" stroke="#bfbfbf" points="429,-0.5 429,-19.5 545,-19.5 545,-0.5 429,-0.5"/>
<text text-anchor="middle" x="487" y="-7.5" font-family="Helvetica,sans-Serif" font-size="10.00">boost/log/common.hpp</text>
</g>
<!-- Node9&#45;&gt;Node11 -->
<g id="edge10" class="edge"><title>Node9&#45;&gt;Node11</title>
<path fill="none" stroke="midnightblue" d="M433.283,-56.324C442.836,-48.2631 457.28,-36.0765 468.784,-26.3695"/>
<polygon fill="midnightblue" stroke="midnightblue" points="471.144,-28.9577 476.53,-19.8339 466.63,-23.6076 471.144,-28.9577"/>
</g>
<!-- Node12&#45;&gt;Node8 -->
<g id="edge14" class="edge"><title>Node12&#45;&gt;Node8</title>
<path fill="none" stroke="midnightblue" d="M958.619,-307.515C861.677,-306.958 679.535,-299.902 635,-256 589.383,-211.031 600.43,-161.57 641,-112 653.904,-96.2332 673.786,-85.3678 691.288,-78.2696"/>
<polygon fill="midnightblue" stroke="midnightblue" points="692.592,-81.5183 700.707,-74.7065 690.115,-74.9712 692.592,-81.5183"/>
</g>
<!-- Node12&#45;&gt;Node9 -->
<g id="edge41" class="edge"><title>Node12&#45;&gt;Node9</title>
<path fill="none" stroke="midnightblue" d="M958.955,-304.14C859.999,-298.723 669.531,-284.834 609,-256 525.855,-216.394 459.076,-123.276 433.857,-84.4636"/>
<polygon fill="midnightblue" stroke="midnightblue" points="436.681,-82.3837 428.356,-75.8315 430.778,-86.1457 436.681,-82.3837"/>
</g>
<!-- Node13 -->
<g id="node13" class="node"><title>Node13</title>
<polygon fill="white" stroke="#bfbfbf" points="1089,-56.5 1089,-75.5 1133,-75.5 1133,-56.5 1089,-56.5"/>
<text text-anchor="middle" x="1111" y="-63.5" font-family="Helvetica,sans-Serif" font-size="10.00">vector</text>
</g>
<!-- Node12&#45;&gt;Node13 -->
<g id="edge12" class="edge"><title>Node12&#45;&gt;Node13</title>
<path fill="none" stroke="midnightblue" d="M1081.05,-302.464C1153.97,-295.971 1270.43,-281.851 1305,-256 1332.06,-235.764 1331.24,-220.886 1339,-188 1359.43,-101.477 1211.27,-76.3897 1143.55,-69.4801"/>
<polygon fill="midnightblue" stroke="midnightblue" points="1143.69,-65.9783 1133.41,-68.5206 1143.04,-72.9472 1143.69,-65.9783"/>
</g>
<!-- Node14 -->
<g id="node14" class="node"><title>Node14</title>
<polygon fill="white" stroke="#bfbfbf" points="842.5,-56.5 842.5,-75.5 883.5,-75.5 883.5,-56.5 842.5,-56.5"/>
<text text-anchor="middle" x="863" y="-63.5" font-family="Helvetica,sans-Serif" font-size="10.00">string</text>
</g>
<!-- Node12&#45;&gt;Node14 -->
<g id="edge13" class="edge"><title>Node12&#45;&gt;Node14</title>
<path fill="none" stroke="midnightblue" d="M958.924,-305.082C869.603,-301.162 708.958,-289.54 663,-256 635.865,-236.197 637.525,-220.74 630,-188 609.503,-98.8172 764.449,-75.0972 832.272,-69.013"/>
<polygon fill="midnightblue" stroke="midnightblue" points="832.69,-72.4905 842.369,-68.1806 832.115,-65.5141 832.69,-72.4905"/>
</g>
<!-- Node15 -->
<g id="node15" class="node"><title>Node15</title>
<polygon fill="white" stroke="#bfbfbf" points="639,-168.5 639,-187.5 689,-187.5 689,-168.5 639,-168.5"/>
<text text-anchor="middle" x="664" y="-175.5" font-family="Helvetica,sans-Serif" font-size="10.00">fstream</text>
</g>
<!-- Node12&#45;&gt;Node15 -->
<g id="edge15" class="edge"><title>Node12&#45;&gt;Node15</title>
<path fill="none" stroke="midnightblue" d="M958.814,-305.572C873.114,-302.295 723.385,-291.507 684,-256 667.766,-241.365 663.96,-215.4 663.42,-197.705"/>
<polygon fill="midnightblue" stroke="midnightblue" points="666.92,-197.706 663.432,-187.702 659.92,-197.698 666.92,-197.706"/>
</g>
<!-- Node16 -->
<g id="node16" class="node"><title>Node16</title>
<polygon fill="white" stroke="#bfbfbf" points="1294,-56.5 1294,-75.5 1346,-75.5 1346,-56.5 1294,-56.5"/>
<text text-anchor="middle" x="1320" y="-63.5" font-family="Helvetica,sans-Serif" font-size="10.00">memory</text>
</g>
<!-- Node12&#45;&gt;Node16 -->
<g id="edge16" class="edge"><title>Node12&#45;&gt;Node16</title>
<path fill="none" stroke="midnightblue" d="M1081.03,-305.383C1209.69,-301.343 1499.43,-288.68 1529,-256 1595.12,-182.921 1427.75,-107.818 1353.43,-79.1312"/>
<polygon fill="midnightblue" stroke="midnightblue" points="1354.6,-75.8326 1344.01,-75.5524 1352.11,-82.3761 1354.6,-75.8326"/>
</g>
<!-- Node17 -->
<g id="node17" class="node"><title>Node17</title>
<polygon fill="white" stroke="#bfbfbf" points="1416,-225 1416,-255 1520,-255 1520,-225 1416,-225"/>
<text text-anchor="start" x="1424" y="-243" font-family="Helvetica,sans-Serif" font-size="10.00">boost/numeric/ublas</text>
<text text-anchor="middle" x="1468" y="-232" font-family="Helvetica,sans-Serif" font-size="10.00">/io.hpp</text>
</g>
<!-- Node12&#45;&gt;Node17 -->
<g id="edge17" class="edge"><title>Node12&#45;&gt;Node17</title>
<path fill="none" stroke="midnightblue" d="M1081.13,-300.57C1156.78,-292.215 1289.4,-276.269 1402,-256 1403.27,-255.772 1404.55,-255.535 1405.84,-255.292"/>
<polygon fill="midnightblue" stroke="midnightblue" points="1406.72,-258.686 1415.85,-253.312 1405.36,-251.819 1406.72,-258.686"/>
</g>
<!-- Node18 -->
<g id="node18" class="node"><title>Node18</title>
<g id="a_node18"><a xlink:href="../../df/d9f/ParameterList_8hpp.html" target="_top" xlink:title="This class provides a list of fit parameters which can have different types. ">
<polygon fill="white" stroke="red" points="934,-112.5 934,-131.5 1054,-131.5 1054,-112.5 934,-112.5"/>
<text text-anchor="middle" x="994" y="-119.5" font-family="Helvetica,sans-Serif" font-size="10.00">Core/ParameterList.hpp</text>
</a>
</g>
</g>
<!-- Node12&#45;&gt;Node18 -->
<g id="edge18" class="edge"><title>Node12&#45;&gt;Node18</title>
<path fill="none" stroke="midnightblue" d="M1081.06,-304.344C1159.55,-298.624 1280.82,-280.617 1237,-224 1197.94,-173.534 1156.63,-213.204 1098,-188 1066.48,-174.448 1033.43,-152.201 1013.27,-137.575"/>
<polygon fill="midnightblue" stroke="midnightblue" points="1015.34,-134.752 1005.21,-131.636 1011.18,-140.387 1015.34,-134.752"/>
</g>
<!-- Node19 -->
<g id="node19" class="node"><title>Node19</title>
<g id="a_node19"><a xlink:href="../../d0/d0c/TableFormater_8hpp.html" target="_top" xlink:title="Core/TableFormater.hpp">
<polygon fill="white" stroke="red" points="756,-168.5 756,-187.5 878,-187.5 878,-168.5 756,-168.5"/>
<text text-anchor="middle" x="817" y="-175.5" font-family="Helvetica,sans-Serif" font-size="10.00">Core/TableFormater.hpp</text>
</a>
</g>
</g>
<!-- Node12&#45;&gt;Node19 -->
<g id="edge24" class="edge"><title>Node12&#45;&gt;Node19</title>
<path fill="none" stroke="midnightblue" d="M958.665,-306.515C873.845,-304.394 727.381,-295.009 694,-256 684.753,-245.194 685.852,-235.657 694,-224 706.258,-206.463 726.123,-195.738 746.346,-189.187"/>
<polygon fill="midnightblue" stroke="midnightblue" points="747.337,-192.544 755.953,-186.378 745.372,-185.825 747.337,-192.544"/>
</g>
<!-- Node20 -->
<g id="node20" class="node"><title>Node20</title>
<g id="a_node20"><a xlink:href="../../dc/ded/Properties_8hpp.html" target="_top" xlink:title="Core/Properties.hpp">
<polygon fill="white" stroke="red" points="1107,-168.5 1107,-187.5 1211,-187.5 1211,-168.5 1107,-168.5"/>
<text text-anchor="middle" x="1159" y="-175.5" font-family="Helvetica,sans-Serif" font-size="10.00">Core/Properties.hpp</text>
</a>
</g>
</g>
<!-- Node12&#45;&gt;Node20 -->
<g id="edge30" class="edge"><title>Node12&#45;&gt;Node20</title>
<path fill="none" stroke="midnightblue" d="M1081.16,-303.182C1147.35,-297.623 1246.61,-284.649 1270,-256 1279,-244.984 1277.95,-235.795 1270,-224 1258.62,-207.107 1239.7,-196.554 1220.67,-189.961"/>
<polygon fill="midnightblue" stroke="midnightblue" points="1221.64,-186.598 1211.06,-186.948 1219.55,-193.278 1221.64,-186.598"/>
</g>
<!-- Node21 -->
<g id="node21" class="node"><title>Node21</title>
<g id="a_node21"><a xlink:href="../../de/d88/FitResult_8hpp.html" target="_top" xlink:title="Core/FitResult.hpp">
<polygon fill="white" stroke="red" points="1038.5,-230.5 1038.5,-249.5 1137.5,-249.5 1137.5,-230.5 1038.5,-230.5"/>
<text text-anchor="middle" x="1088" y="-237.5" font-family="Helvetica,sans-Serif" font-size="10.00">Core/FitResult.hpp</text>
</a>
</g>
</g>
<!-- Node12&#45;&gt;Node21 -->
<g id="edge32" class="edge"><title>Node12&#45;&gt;Node21</title>
<path fill="none" stroke="midnightblue" d="M1034.75,-292.679C1045.57,-282.184 1060.25,-267.932 1071.46,-257.052"/>
<polygon fill="midnightblue" stroke="midnightblue" points="1074.17,-259.305 1078.9,-249.828 1069.29,-254.282 1074.17,-259.305"/>
</g>
<!-- Node22 -->
<g id="node22" class="node"><title>Node22</title>
<g id="a_node22"><a xlink:href="../../d5/d10/Estimator_8hpp.html" target="_top" xlink:title="This class provides the interface to classes which estimate the &quot;closeness&quot; of the modeled intensity ...">
<polygon fill="white" stroke="red" points="1229.5,-168.5 1229.5,-187.5 1330.5,-187.5 1330.5,-168.5 1229.5,-168.5"/>
<text text-anchor="middle" x="1280" y="-175.5" font-family="Helvetica,sans-Serif" font-size="10.00">Core/Estimator.hpp</text>
</a>
</g>
</g>
<!-- Node12&#45;&gt;Node22 -->
<g id="edge42" class="edge"><title>Node12&#45;&gt;Node22</title>
<path fill="none" stroke="midnightblue" d="M1081.18,-304.087C1151.76,-299.295 1261.4,-286.956 1287,-256 1300.53,-239.639 1294.67,-214.101 1288.21,-196.972"/>
<polygon fill="midnightblue" stroke="midnightblue" points="1291.36,-195.433 1284.28,-187.55 1284.9,-198.127 1291.36,-195.433"/>
</g>
<!-- Node23 -->
<g id="node23" class="node"><title>Node23</title>
<polygon fill="white" stroke="#bfbfbf" points="703,-230.5 703,-249.5 865,-249.5 865,-230.5 703,-230.5"/>
<text text-anchor="middle" x="784" y="-237.5" font-family="Helvetica,sans-Serif" font-size="10.00">Minuit2/MnUserParameterState.h</text>
</g>
<!-- Node12&#45;&gt;Node23 -->
<g id="edge46" class="edge"><title>Node12&#45;&gt;Node23</title>
<path fill="none" stroke="midnightblue" d="M969.662,-292.922C926.232,-280.777 864.335,-263.466 824.164,-252.232"/>
<polygon fill="midnightblue" stroke="midnightblue" points="825.016,-248.836 814.443,-249.514 823.131,-255.578 825.016,-248.836"/>
</g>
<!-- Node24 -->
<g id="node24" class="node"><title>Node24</title>
<polygon fill="white" stroke="#bfbfbf" points="883.5,-230.5 883.5,-249.5 1020.5,-249.5 1020.5,-230.5 883.5,-230.5"/>
<text text-anchor="middle" x="952" y="-237.5" font-family="Helvetica,sans-Serif" font-size="10.00">Minuit2/FunctionMinimum.h</text>
</g>
<!-- Node12&#45;&gt;Node24 -->
<g id="edge47" class="edge"><title>Node12&#45;&gt;Node24</title>
<path fill="none" stroke="midnightblue" d="M1005.25,-292.679C994.432,-282.184 979.748,-267.932 968.539,-257.052"/>
<polygon fill="midnightblue" stroke="midnightblue" points="970.709,-254.282 961.096,-249.828 965.834,-259.305 970.709,-254.282"/>
</g>
<!-- Node25 -->
<g id="node25" class="node"><title>Node25</title>
<polygon fill="white" stroke="#bfbfbf" points="1156,-230.5 1156,-249.5 1228,-249.5 1228,-230.5 1156,-230.5"/>
<text text-anchor="middle" x="1192" y="-237.5" font-family="Helvetica,sans-Serif" font-size="10.00">gsl/gsl_rng.h</text>
</g>
<!-- Node12&#45;&gt;Node25 -->
<g id="edge48" class="edge"><title>Node12&#45;&gt;Node25</title>
<path fill="none" stroke="midnightblue" d="M1056.9,-292.841C1087.58,-281.067 1130.81,-264.48 1160.04,-253.265"/>
<polygon fill="midnightblue" stroke="midnightblue" points="1161.29,-256.532 1169.37,-249.682 1158.78,-249.997 1161.29,-256.532"/>
</g>
<!-- Node18&#45;&gt;Node8 -->
<g id="edge19" class="edge"><title>Node18&#45;&gt;Node8</title>
<path fill="none" stroke="midnightblue" d="M951.852,-112.444C900.428,-102.004 814.294,-84.5183 765.217,-74.5553"/>
<polygon fill="midnightblue" stroke="midnightblue" points="765.829,-71.1083 755.333,-72.5488 764.437,-77.9684 765.829,-71.1083"/>
</g>
<!-- Node18&#45;&gt;Node9 -->
<g id="edge23" class="edge"><title>Node18&#45;&gt;Node9</title>
<path fill="none" stroke="midnightblue" d="M933.972,-115.323C823.157,-104.843 587.916,-82.5963 479.67,-72.3593"/>
<polygon fill="midnightblue" stroke="midnightblue" points="479.885,-68.8641 469.6,-71.407 479.226,-75.833 479.885,-68.8641"/>
</g>
<!-- Node18&#45;&gt;Node13 -->
<g id="edge22" class="edge"><title>Node18&#45;&gt;Node13</title>
<path fill="none" stroke="midnightblue" d="M1012.54,-112.444C1031.62,-103.636 1061.57,-89.8116 1083.44,-79.722"/>
<polygon fill="midnightblue" stroke="midnightblue" points="1084.93,-82.8849 1092.55,-75.5164 1082,-76.5292 1084.93,-82.8849"/>
</g>
<!-- Node18&#45;&gt;Node14 -->
<g id="edge20" class="edge"><title>Node18&#45;&gt;Node14</title>
<path fill="none" stroke="midnightblue" d="M973.243,-112.444C951.684,-103.557 917.737,-89.5632 893.206,-79.4514"/>
<polygon fill="midnightblue" stroke="midnightblue" points="894.239,-76.0917 883.66,-75.5164 891.572,-82.5634 894.239,-76.0917"/>
</g>
<!-- Node18&#45;&gt;Node16 -->
<g id="edge21" class="edge"><title>Node18&#45;&gt;Node16</title>
<path fill="none" stroke="midnightblue" d="M1045.66,-112.444C1112.08,-101.441 1225.76,-82.6107 1283.71,-73.0105"/>
<polygon fill="midnightblue" stroke="midnightblue" points="1284.57,-76.4166 1293.86,-71.3294 1283.43,-69.5107 1284.57,-76.4166"/>
</g>
<!-- Node19&#45;&gt;Node3 -->
<g id="edge28" class="edge"><title>Node19&#45;&gt;Node3</title>
<path fill="none" stroke="midnightblue" d="M768.513,-168.444C705.475,-157.319 597.096,-138.193 543.275,-128.696"/>
<polygon fill="midnightblue" stroke="midnightblue" points="543.724,-125.221 533.268,-126.93 542.507,-132.114 543.724,-125.221"/>
</g>
<!-- Node19&#45;&gt;Node8 -->
<g id="edge25" class="edge"><title>Node19&#45;&gt;Node8</title>
<path fill="none" stroke="midnightblue" d="M810.016,-168.368C795.264,-150.135 760.708,-107.426 741.492,-83.6752"/>
<polygon fill="midnightblue" stroke="midnightblue" points="743.962,-81.164 734.951,-75.5914 738.52,-85.567 743.962,-81.164"/>
</g>
<!-- Node19&#45;&gt;Node13 -->
<g id="edge26" class="edge"><title>Node19&#45;&gt;Node13</title>
<path fill="none" stroke="midnightblue" d="M828.672,-168.322C847.825,-154.474 887.548,-127.376 925,-112 976.831,-90.7202 1041.09,-77.9484 1078.91,-71.71"/>
<polygon fill="midnightblue" stroke="midnightblue" points="1079.52,-75.1567 1088.85,-70.122 1078.42,-68.2444 1079.52,-75.1567"/>
</g>
<!-- Node19&#45;&gt;Node14 -->
<g id="edge27" class="edge"><title>Node19&#45;&gt;Node14</title>
<path fill="none" stroke="midnightblue" d="M820.61,-168.368C828.1,-150.456 845.468,-108.923 855.494,-84.9482"/>
<polygon fill="midnightblue" stroke="midnightblue" points="858.778,-86.1676 859.407,-75.5914 852.32,-83.4669 858.778,-86.1676"/>
</g>
<!-- Node19&#45;&gt;Node18 -->
<g id="edge29" class="edge"><title>Node19&#45;&gt;Node18</title>
<path fill="none" stroke="midnightblue" d="M845.046,-168.444C875.082,-159.28 922.913,-144.688 956.243,-134.519"/>
<polygon fill="midnightblue" stroke="midnightblue" points="957.542,-137.782 966.085,-131.516 955.499,-131.087 957.542,-137.782"/>
</g>
<!-- Node20&#45;&gt;Node13 -->
<g id="edge31" class="edge"><title>Node20&#45;&gt;Node13</title>
<path fill="none" stroke="midnightblue" d="M1155.23,-168.368C1147.42,-150.456 1129.29,-108.923 1118.83,-84.9482"/>
<polygon fill="midnightblue" stroke="midnightblue" points="1121.96,-83.357 1114.75,-75.5914 1115.54,-86.1566 1121.96,-83.357"/>
</g>
<!-- Node21&#45;&gt;Node8 -->
<g id="edge35" class="edge"><title>Node21&#45;&gt;Node8</title>
<path fill="none" stroke="midnightblue" d="M1057.23,-230.422C1048.19,-228.106 1038.24,-225.758 1029,-224 966.938,-212.195 792.31,-232.024 747,-188 719.51,-161.29 721.312,-112.206 724.785,-85.4973"/>
<polygon fill="midnightblue" stroke="midnightblue" points="728.255,-85.9631 726.296,-75.5509 721.334,-84.9121 728.255,-85.9631"/>
</g>
<!-- Node21&#45;&gt;Node13 -->
<g id="edge33" class="edge"><title>Node21&#45;&gt;Node13</title>
<path fill="none" stroke="midnightblue" d="M1089.17,-230.234C1092.74,-203.548 1103.53,-122.877 1108.47,-85.8931"/>
<polygon fill="midnightblue" stroke="midnightblue" points="1112,-85.9199 1109.86,-75.5442 1105.06,-84.9921 1112,-85.9199"/>
</g>
<!-- Node21&#45;&gt;Node14 -->
<g id="edge34" class="edge"><title>Node21&#45;&gt;Node14</title>
<path fill="none" stroke="midnightblue" d="M1072.33,-230.382C1042.27,-213.495 975.032,-174.014 925,-132 907,-116.885 888.704,-97.0371 876.7,-83.2688"/>
<polygon fill="midnightblue" stroke="midnightblue" points="879.268,-80.886 870.098,-75.5783 873.956,-85.4457 879.268,-80.886"/>
</g>
<!-- Node21&#45;&gt;Node15 -->
<g id="edge36" class="edge"><title>Node21&#45;&gt;Node15</title>
<path fill="none" stroke="midnightblue" d="M1057.55,-230.423C1048.43,-228.079 1038.36,-225.716 1029,-224 890.4,-198.582 853.413,-208.492 714,-188 709.181,-187.292 704.115,-186.47 699.133,-185.617"/>
<polygon fill="midnightblue" stroke="midnightblue" points="699.585,-182.143 689.128,-183.849 698.366,-189.036 699.585,-182.143"/>
</g>
<!-- Node21&#45;&gt;Node16 -->
<g id="edge37" class="edge"><title>Node21&#45;&gt;Node16</title>
<path fill="none" stroke="midnightblue" d="M1120.06,-230.454C1128.78,-228.239 1138.23,-225.936 1147,-224 1189.39,-214.647 1311.28,-221.405 1339,-188 1363.46,-158.531 1344.1,-110.642 1330.47,-84.833"/>
<polygon fill="midnightblue" stroke="midnightblue" points="1333.38,-82.859 1325.46,-75.8173 1327.26,-86.2586 1333.38,-82.859"/>
</g>
<!-- Node21&#45;&gt;Node18 -->
<g id="edge38" class="edge"><title>Node21&#45;&gt;Node18</title>
<path fill="none" stroke="midnightblue" d="M1075,-230.499C1061.65,-221.274 1040.92,-205.499 1027,-188 1015.57,-173.637 1006.5,-154.686 1000.78,-140.956"/>
<polygon fill="midnightblue" stroke="midnightblue" points="1004.03,-139.638 997.083,-131.636 997.521,-142.221 1004.03,-139.638"/>
</g>
<!-- Node21&#45;&gt;Node19 -->
<g id="edge39" class="edge"><title>Node21&#45;&gt;Node19</title>
<path fill="none" stroke="midnightblue" d="M1055.29,-230.437C1046.75,-228.269 1037.54,-225.992 1029,-224 974.892,-211.385 912.671,-198.351 869.697,-189.578"/>
<polygon fill="midnightblue" stroke="midnightblue" points="870.244,-186.118 859.747,-187.553 868.848,-192.977 870.244,-186.118"/>
</g>
<!-- Node21&#45;&gt;Node20 -->
<g id="edge40" class="edge"><title>Node21&#45;&gt;Node20</title>
<path fill="none" stroke="midnightblue" d="M1098.17,-230.403C1109.35,-220.958 1127.52,-205.606 1141.09,-194.134"/>
<polygon fill="midnightblue" stroke="midnightblue" points="1143.47,-196.709 1148.85,-187.581 1138.95,-191.362 1143.47,-196.709"/>
</g>
<!-- Node22&#45;&gt;Node13 -->
<g id="edge43" class="edge"><title>Node22&#45;&gt;Node13</title>
<path fill="none" stroke="midnightblue" d="M1266.74,-168.368C1237.74,-149.492 1168.44,-104.385 1132.87,-81.2367"/>
<polygon fill="midnightblue" stroke="midnightblue" points="1134.49,-78.1132 1124.2,-75.5914 1130.67,-83.9799 1134.49,-78.1132"/>
</g>
<!-- Node22&#45;&gt;Node16 -->
<g id="edge44" class="edge"><title>Node22&#45;&gt;Node16</title>
<path fill="none" stroke="midnightblue" d="M1283.14,-168.368C1289.62,-150.537 1304.62,-109.295 1313.36,-85.2717"/>
<polygon fill="midnightblue" stroke="midnightblue" points="1316.75,-86.1855 1316.88,-75.5914 1310.17,-83.7932 1316.75,-86.1855"/>
</g>
<!-- Node22&#45;&gt;Node18 -->
<g id="edge45" class="edge"><title>Node22&#45;&gt;Node18</title>
<path fill="none" stroke="midnightblue" d="M1234.68,-168.444C1184.37,-158.944 1103.16,-143.611 1049.19,-133.42"/>
<polygon fill="midnightblue" stroke="midnightblue" points="1049.58,-129.933 1039.11,-131.516 1048.28,-136.811 1049.58,-129.933"/>
</g>
</g>
</svg>
