<?xml version="1.0" encoding="UTF-8" standalone="no"?>
<!DOCTYPE svg PUBLIC "-//W3C//DTD SVG 1.1//EN"
 "http://www.w3.org/Graphics/SVG/1.1/DTD/svg11.dtd">
<!-- Generated by graphviz version 2.36.0 (20140111.2315)
 -->
<!-- Title: /home/travis/build/ComPWA/ComPWA/Physics/HelicityAmplitude/TopologyAmplitudeFactory.hpp Pages: 1 -->
<svg width="1163pt" height="378pt"
 viewBox="0.00 0.00 1163.02 378.00" xmlns="http://www.w3.org/2000/svg" xmlns:xlink="http://www.w3.org/1999/xlink">
<g id="graph0" class="graph" transform="scale(1 1) rotate(0) translate(4 374)">
<title>/home/travis/build/ComPWA/ComPWA/Physics/HelicityAmplitude/TopologyAmplitudeFactory.hpp</title>
<polygon fill="white" stroke="none" points="-4,4 -4,-374 1159.02,-374 1159.02,4 -4,4"/>
<!-- Node1 -->
<g id="node1" class="node"><title>Node1</title>
<polygon fill="#bfbfbf" stroke="black" points="193.023,-317 193.023,-369 375.023,-369 375.023,-317 193.023,-317"/>
<text text-anchor="start" x="201.023" y="-357" font-family="Helvetica,sans-Serif" font-size="10.00">/home/travis/build</text>
<text text-anchor="start" x="201.023" y="-346" font-family="Helvetica,sans-Serif" font-size="10.00">/ComPWA/ComPWA/Physics</text>
<text text-anchor="start" x="201.023" y="-335" font-family="Helvetica,sans-Serif" font-size="10.00">/HelicityAmplitude/TopologyAmplitude</text>
<text text-anchor="middle" x="284.023" y="-324" font-family="Helvetica,sans-Serif" font-size="10.00">Factory.hpp</text>
</g>
<!-- Node2 -->
<g id="node2" class="node"><title>Node2</title>
<g id="a_node2"><a xlink:href="../../d3/d65/Particle_8hpp.html" target="_top" xlink:title="This class provides a internal container for information of a particle. ">
<polygon fill="white" stroke="black" points="33.0228,-56.5 33.0228,-75.5 125.023,-75.5 125.023,-56.5 33.0228,-56.5"/>
<text text-anchor="middle" x="79.0228" y="-63.5" font-family="Helvetica,sans-Serif" font-size="10.00">Core/Particle.hpp</text>
</a>
</g>
</g>
<!-- Node1&#45;&gt;Node2 -->
<g id="edge1" class="edge"><title>Node1&#45;&gt;Node2</title>
<path fill="none" stroke="midnightblue" d="M220.293,-316.882C154.563,-286.961 56.2855,-229.956 17.0228,-144 11.1137,-131.063 10.563,-124.671 17.0228,-112 24.0229,-98.2698 37.3885,-87.7496 49.923,-80.3465"/>
<polygon fill="midnightblue" stroke="midnightblue" points="51.6965,-83.366 58.8002,-75.5055 48.3451,-77.2204 51.6965,-83.366"/>
</g>
<!-- Node7 -->
<g id="node7" class="node"><title>Node7</title>
<g id="a_node7"><a xlink:href="../../df/d7d/Event_8hpp.html" target="_top" xlink:title="This class provides a internal container for event&#45;based information. ">
<polygon fill="white" stroke="black" points="26.5228,-118.5 26.5228,-137.5 111.523,-137.5 111.523,-118.5 26.5228,-118.5"/>
<text text-anchor="middle" x="69.0228" y="-125.5" font-family="Helvetica,sans-Serif" font-size="10.00">Core/Event.hpp</text>
</a>
</g>
</g>
<!-- Node1&#45;&gt;Node7 -->
<g id="edge6" class="edge"><title>Node1&#45;&gt;Node7</title>
<path fill="none" stroke="midnightblue" d="M251.846,-316.957C238.278,-306.004 222.531,-292.762 209.023,-280 160.039,-233.723 107.286,-173.727 82.8731,-145.306"/>
<polygon fill="midnightblue" stroke="midnightblue" points="85.4005,-142.876 76.242,-137.549 80.0798,-147.425 85.4005,-142.876"/>
</g>
<!-- Node9 -->
<g id="node9" class="node"><title>Node9</title>
<g id="a_node9"><a xlink:href="../../d7/ddb/TopologyAmplitude_8hpp.html" target="_top" xlink:title="Physics/HelicityAmplitude\l/TopologyAmplitude.hpp">
<polygon fill="white" stroke="black" points="218.523,-249 218.523,-279 349.523,-279 349.523,-249 218.523,-249"/>
<text text-anchor="start" x="226.523" y="-267" font-family="Helvetica,sans-Serif" font-size="10.00">Physics/HelicityAmplitude</text>
<text text-anchor="middle" x="284.023" y="-256" font-family="Helvetica,sans-Serif" font-size="10.00">/TopologyAmplitude.hpp</text>
</a>
</g>
</g>
<!-- Node1&#45;&gt;Node9 -->
<g id="edge11" class="edge"><title>Node1&#45;&gt;Node9</title>
<path fill="none" stroke="midnightblue" d="M284.023,-316.787C284.023,-308.029 284.023,-298.225 284.023,-289.523"/>
<polygon fill="midnightblue" stroke="midnightblue" points="287.523,-289.252 284.023,-279.252 280.523,-289.252 287.523,-289.252"/>
</g>
<!-- Node20 -->
<g id="node20" class="node"><title>Node20</title>
<g id="a_node20"><a xlink:href="../../d3/dd8/DynamicalFunctionFactory_8hpp.html" target="_top" xlink:title="Physics/DynamicalDecayFunctions\l/DynamicalFunctionFactory.hpp">
<polygon fill="white" stroke="black" points="390.523,-249 390.523,-279 563.523,-279 563.523,-249 390.523,-249"/>
<text text-anchor="start" x="398.523" y="-267" font-family="Helvetica,sans-Serif" font-size="10.00">Physics/DynamicalDecayFunctions</text>
<text text-anchor="middle" x="477.023" y="-256" font-family="Helvetica,sans-Serif" font-size="10.00">/DynamicalFunctionFactory.hpp</text>
</a>
</g>
</g>
<!-- Node1&#45;&gt;Node20 -->
<g id="edge35" class="edge"><title>Node1&#45;&gt;Node20</title>
<path fill="none" stroke="midnightblue" d="M346.951,-316.894C374.848,-305.764 407.021,-292.928 432.39,-282.807"/>
<polygon fill="midnightblue" stroke="midnightblue" points="433.765,-286.027 441.756,-279.07 431.171,-279.525 433.765,-286.027"/>
</g>
<!-- Node23 -->
<g id="node23" class="node"><title>Node23</title>
<g id="a_node23"><a xlink:href="../../d0/d0e/DecayTree_8hpp.html" target="_top" xlink:title="Physics/DecayTree/DecayTree.hpp">
<polygon fill="white" stroke="black" points="753.523,-186.5 753.523,-205.5 926.523,-205.5 926.523,-186.5 753.523,-186.5"/>
<text text-anchor="middle" x="840.023" y="-193.5" font-family="Helvetica,sans-Serif" font-size="10.00">Physics/DecayTree/DecayTree.hpp</text>
</a>
</g>
</g>
<!-- Node1&#45;&gt;Node23 -->
<g id="edge45" class="edge"><title>Node1&#45;&gt;Node23</title>
<path fill="none" stroke="midnightblue" d="M375.307,-324.494C432.185,-313.056 506.714,-297.107 572.023,-280 656.836,-257.784 754.876,-225.775 805.612,-208.728"/>
<polygon fill="midnightblue" stroke="midnightblue" points="806.753,-212.037 815.11,-205.526 804.516,-205.404 806.753,-212.037"/>
</g>
<!-- Node3 -->
<g id="node3" class="node"><title>Node3</title>
<polygon fill="white" stroke="#bfbfbf" points="110.023,-0.5 110.023,-19.5 154.023,-19.5 154.023,-0.5 110.023,-0.5"/>
<text text-anchor="middle" x="132.023" y="-7.5" font-family="Helvetica,sans-Serif" font-size="10.00">vector</text>
</g>
<!-- Node2&#45;&gt;Node3 -->
<g id="edge2" class="edge"><title>Node2&#45;&gt;Node3</title>
<path fill="none" stroke="midnightblue" d="M87.7747,-56.083C95.4926,-48.2195 106.928,-36.5688 116.239,-27.0813"/>
<polygon fill="midnightblue" stroke="midnightblue" points="118.927,-29.3396 123.434,-19.7511 113.931,-24.4363 118.927,-29.3396"/>
</g>
<!-- Node4 -->
<g id="node4" class="node"><title>Node4</title>
<polygon fill="white" stroke="#bfbfbf" points="372.023,-0.5 372.023,-19.5 416.023,-19.5 416.023,-0.5 372.023,-0.5"/>
<text text-anchor="middle" x="394.023" y="-7.5" font-family="Helvetica,sans-Serif" font-size="10.00">cmath</text>
</g>
<!-- Node2&#45;&gt;Node4 -->
<g id="edge3" class="edge"><title>Node2&#45;&gt;Node4</title>
<path fill="none" stroke="midnightblue" d="M125.233,-57.4168C128.207,-56.9354 131.157,-56.4598 134.023,-56 232.571,-40.191 260.719,-42.2557 361.75,-20.055"/>
<polygon fill="midnightblue" stroke="midnightblue" points="362.757,-23.4166 371.759,-17.8294 361.238,-16.5834 362.757,-23.4166"/>
</g>
<!-- Node5 -->
<g id="node5" class="node"><title>Node5</title>
<polygon fill="white" stroke="#bfbfbf" points="300.023,-0.5 300.023,-19.5 354.023,-19.5 354.023,-0.5 300.023,-0.5"/>
<text text-anchor="middle" x="327.023" y="-7.5" font-family="Helvetica,sans-Serif" font-size="10.00">iostream</text>
</g>
<!-- Node2&#45;&gt;Node5 -->
<g id="edge4" class="edge"><title>Node2&#45;&gt;Node5</title>
<path fill="none" stroke="midnightblue" d="M118.319,-56.4435C165.428,-46.186 243.779,-29.1256 289.901,-19.083"/>
<polygon fill="midnightblue" stroke="midnightblue" points="290.759,-22.4783 299.785,-16.9308 289.269,-15.6386 290.759,-22.4783"/>
</g>
<!-- Node6 -->
<g id="node6" class="node"><title>Node6</title>
<polygon fill="white" stroke="#bfbfbf" points="434.523,-0.5 434.523,-19.5 493.523,-19.5 493.523,-0.5 434.523,-0.5"/>
<text text-anchor="middle" x="464.023" y="-7.5" font-family="Helvetica,sans-Serif" font-size="10.00">stdexcept</text>
</g>
<!-- Node2&#45;&gt;Node6 -->
<g id="edge5" class="edge"><title>Node2&#45;&gt;Node6</title>
<path fill="none" stroke="midnightblue" d="M125.216,-57.308C128.195,-56.8532 131.15,-56.4132 134.023,-56 262.578,-37.5096 296.07,-42.2816 424.023,-20 424.128,-19.9817 424.233,-19.9633 424.339,-19.9448"/>
<polygon fill="midnightblue" stroke="midnightblue" points="425.224,-23.3386 434.381,-18.0086 423.899,-16.4652 425.224,-23.3386"/>
</g>
<!-- Node7&#45;&gt;Node2 -->
<g id="edge10" class="edge"><title>Node7&#45;&gt;Node2</title>
<path fill="none" stroke="midnightblue" d="M70.4556,-118.403C71.8813,-109.849 74.1145,-96.4497 75.9435,-85.4762"/>
<polygon fill="midnightblue" stroke="midnightblue" points="79.401,-86.02 77.5927,-75.5806 72.4963,-84.8691 79.401,-86.02"/>
</g>
<!-- Node7&#45;&gt;Node3 -->
<g id="edge7" class="edge"><title>Node7&#45;&gt;Node3</title>
<path fill="none" stroke="midnightblue" d="M56.5185,-118.393C38.5693,-104.954 9.20878,-78.2211 24.0228,-56 40.7588,-30.896 74.432,-19.7742 99.7538,-14.8605"/>
<polygon fill="midnightblue" stroke="midnightblue" points="100.412,-18.2989 109.678,-13.1627 99.2314,-11.3991 100.412,-18.2989"/>
</g>
<!-- Node7&#45;&gt;Node5 -->
<g id="edge9" class="edge"><title>Node7&#45;&gt;Node5</title>
<path fill="none" stroke="midnightblue" d="M98.0386,-118.462C144.402,-104.781 230.656,-79.1553 237.023,-76 264.33,-62.4669 292.241,-40.8529 309.591,-26.304"/>
<polygon fill="midnightblue" stroke="midnightblue" points="311.88,-28.9517 317.211,-19.7957 307.333,-23.6289 311.88,-28.9517"/>
</g>
<!-- Node8 -->
<g id="node8" class="node"><title>Node8</title>
<polygon fill="white" stroke="#bfbfbf" points="511.523,-0.5 511.523,-19.5 552.523,-19.5 552.523,-0.5 511.523,-0.5"/>
<text text-anchor="middle" x="532.023" y="-7.5" font-family="Helvetica,sans-Serif" font-size="10.00">string</text>
</g>
<!-- Node7&#45;&gt;Node8 -->
<g id="edge8" class="edge"><title>Node7&#45;&gt;Node8</title>
<path fill="none" stroke="midnightblue" d="M97.0106,-118.496C104.468,-116.305 112.533,-114.002 120.023,-112 201.577,-90.2006 403.704,-45.8489 501.691,-19.9486"/>
<polygon fill="midnightblue" stroke="midnightblue" points="502.654,-23.3141 511.409,-17.347 500.844,-16.5522 502.654,-23.3141"/>
</g>
<!-- Node9&#45;&gt;Node3 -->
<g id="edge12" class="edge"><title>Node9&#45;&gt;Node3</title>
<path fill="none" stroke="midnightblue" d="M218.405,-253.943C154.853,-241.32 61.7336,-211.781 17.0228,-144 -4.51426,-111.35 -6.07429,-88.2737 16.0228,-56 34.7433,-28.658 72.6807,-17.9259 100.082,-13.7152"/>
<polygon fill="midnightblue" stroke="midnightblue" points="100.553,-17.1835 110.006,-12.3997 99.6332,-10.2442 100.553,-17.1835"/>
</g>
<!-- Node10 -->
<g id="node10" class="node"><title>Node10</title>
<g id="a_node10"><a xlink:href="../../d8/dd9/TwoBodyDecayAmplitude_8hpp.html" target="_top" xlink:title="TwoBodyDecayAmplitude.hpp">
<polygon fill="white" stroke="black" points="209.523,-186.5 209.523,-205.5 358.523,-205.5 358.523,-186.5 209.523,-186.5"/>
<text text-anchor="middle" x="284.023" y="-193.5" font-family="Helvetica,sans-Serif" font-size="10.00">TwoBodyDecayAmplitude.hpp</text>
</a>
</g>
</g>
<!-- Node9&#45;&gt;Node10 -->
<g id="edge13" class="edge"><title>Node9&#45;&gt;Node10</title>
<path fill="none" stroke="midnightblue" d="M284.023,-248.679C284.023,-239.101 284.023,-226.394 284.023,-215.977"/>
<polygon fill="midnightblue" stroke="midnightblue" points="287.523,-215.828 284.023,-205.828 280.523,-215.828 287.523,-215.828"/>
</g>
<!-- Node15 -->
<g id="node15" class="node"><title>Node15</title>
<g id="a_node15"><a xlink:href="../../de/d02/AbstractDynamicalFunction_8hpp.html" target="_top" xlink:title="Physics/DynamicalDecayFunctions\l/AbstractDynamicalFunction.hpp">
<polygon fill="white" stroke="black" points="414.523,-181 414.523,-211 587.523,-211 587.523,-181 414.523,-181"/>
<text text-anchor="start" x="422.523" y="-199" font-family="Helvetica,sans-Serif" font-size="10.00">Physics/DynamicalDecayFunctions</text>
<text text-anchor="middle" x="501.023" y="-188" font-family="Helvetica,sans-Serif" font-size="10.00">/AbstractDynamicalFunction.hpp</text>
</a>
</g>
</g>
<!-- Node9&#45;&gt;Node15 -->
<g id="edge21" class="edge"><title>Node9&#45;&gt;Node15</title>
<path fill="none" stroke="midnightblue" d="M330.309,-248.922C363.873,-238.714 409.434,-224.857 445.046,-214.025"/>
<polygon fill="midnightblue" stroke="midnightblue" points="446.259,-217.315 454.808,-211.056 444.222,-210.617 446.259,-217.315"/>
</g>
<!-- Node11 -->
<g id="node11" class="node"><title>Node11</title>
<polygon fill="white" stroke="#bfbfbf" points="688.523,-0.5 688.523,-19.5 741.523,-19.5 741.523,-0.5 688.523,-0.5"/>
<text text-anchor="middle" x="715.023" y="-7.5" font-family="Helvetica,sans-Serif" font-size="10.00">complex</text>
</g>
<!-- Node10&#45;&gt;Node11 -->
<g id="edge14" class="edge"><title>Node10&#45;&gt;Node11</title>
<path fill="none" stroke="midnightblue" d="M354.835,-186.478C431.173,-176.704 547.35,-159.967 589.023,-144 641.639,-123.84 662.169,-121.042 696.023,-76 706.067,-62.6368 710.815,-44.066 713.051,-30.1949"/>
<polygon fill="midnightblue" stroke="midnightblue" points="716.576,-30.2351 714.401,-19.866 709.635,-29.3284 716.576,-30.2351"/>
</g>
<!-- Node12 -->
<g id="node12" class="node"><title>Node12</title>
<polygon fill="white" stroke="#bfbfbf" points="682.023,-118.5 682.023,-137.5 730.023,-137.5 730.023,-118.5 682.023,-118.5"/>
<text text-anchor="middle" x="706.023" y="-125.5" font-family="Helvetica,sans-Serif" font-size="10.00">qft++.h</text>
</g>
<!-- Node10&#45;&gt;Node12 -->
<g id="edge15" class="edge"><title>Node10&#45;&gt;Node12</title>
<path fill="none" stroke="midnightblue" d="M351.487,-186.473C457.561,-173.004 652.909,-147.924 668.023,-144 671.082,-143.206 674.228,-142.234 677.337,-141.169"/>
<polygon fill="midnightblue" stroke="midnightblue" points="678.852,-144.34 686.995,-137.562 676.402,-137.782 678.852,-144.34"/>
</g>
<!-- Node13 -->
<g id="node13" class="node"><title>Node13</title>
<g id="a_node13"><a xlink:href="../../dd/db0/ParticleStateDefinitions_8hpp.html" target="_top" xlink:title="Physics/HelicityAmplitude\l/ParticleStateDefinitions.hpp">
<polygon fill="white" stroke="red" points="129.523,-113 129.523,-143 270.523,-143 270.523,-113 129.523,-113"/>
<text text-anchor="start" x="137.523" y="-131" font-family="Helvetica,sans-Serif" font-size="10.00">Physics/HelicityAmplitude</text>
<text text-anchor="middle" x="200.023" y="-120" font-family="Helvetica,sans-Serif" font-size="10.00">/ParticleStateDefinitions.hpp</text>
</a>
</g>
</g>
<!-- Node10&#45;&gt;Node13 -->
<g id="edge16" class="edge"><title>Node10&#45;&gt;Node13</title>
<path fill="none" stroke="midnightblue" d="M273.041,-186.372C261.15,-177.029 241.764,-161.797 225.955,-149.375"/>
<polygon fill="midnightblue" stroke="midnightblue" points="228.098,-146.608 218.072,-143.181 223.773,-152.112 228.098,-146.608"/>
</g>
<!-- Node14 -->
<g id="node14" class="node"><title>Node14</title>
<g id="a_node14"><a xlink:href="../../d4/d03/Utility_8hpp.html" target="_top" xlink:title="Basic structures for amplitude calculations. ">
<polygon fill="white" stroke="red" points="143.523,-56.5 143.523,-75.5 228.523,-75.5 228.523,-56.5 143.523,-56.5"/>
<text text-anchor="middle" x="186.023" y="-63.5" font-family="Helvetica,sans-Serif" font-size="10.00">Core/Utility.hpp</text>
</a>
</g>
</g>
<!-- Node13&#45;&gt;Node14 -->
<g id="edge17" class="edge"><title>Node13&#45;&gt;Node14</title>
<path fill="none" stroke="midnightblue" d="M196.705,-112.781C194.817,-104.691 192.431,-94.4617 190.392,-85.725"/>
<polygon fill="midnightblue" stroke="midnightblue" points="193.741,-84.6736 188.06,-75.7305 186.924,-86.2643 193.741,-84.6736"/>
</g>
<!-- Node14&#45;&gt;Node3 -->
<g id="edge19" class="edge"><title>Node14&#45;&gt;Node3</title>
<path fill="none" stroke="midnightblue" d="M177.106,-56.083C169.242,-48.2195 157.592,-36.5688 148.104,-27.0813"/>
<polygon fill="midnightblue" stroke="midnightblue" points="150.32,-24.3473 140.774,-19.7511 145.37,-29.2971 150.32,-24.3473"/>
</g>
<!-- Node14&#45;&gt;Node5 -->
<g id="edge20" class="edge"><title>Node14&#45;&gt;Node5</title>
<path fill="none" stroke="midnightblue" d="M208.365,-56.4435C231.776,-47.4776 268.758,-33.314 295.212,-23.1827"/>
<polygon fill="midnightblue" stroke="midnightblue" points="296.699,-26.3615 304.785,-19.5164 294.195,-19.8245 296.699,-26.3615"/>
</g>
<!-- Node14&#45;&gt;Node8 -->
<g id="edge18" class="edge"><title>Node14&#45;&gt;Node8</title>
<path fill="none" stroke="midnightblue" d="M228.553,-60.9916C287.667,-54.9725 398.102,-42.1106 501.491,-19.7968"/>
<polygon fill="midnightblue" stroke="midnightblue" points="502.455,-23.1688 511.473,-17.6078 500.955,-16.3313 502.455,-23.1688"/>
</g>
<!-- Node15&#45;&gt;Node11 -->
<g id="edge22" class="edge"><title>Node15&#45;&gt;Node11</title>
<path fill="none" stroke="midnightblue" d="M587.761,-181.812C651.709,-171.203 729.227,-156.118 739.023,-144 766.217,-110.361 741.796,-56.1957 725.999,-28.5144"/>
<polygon fill="midnightblue" stroke="midnightblue" points="728.81,-26.3952 720.68,-19.6013 722.799,-29.9821 728.81,-26.3952"/>
</g>
<!-- Node16 -->
<g id="node16" class="node"><title>Node16</title>
<polygon fill="white" stroke="#bfbfbf" points="786.523,-113 786.523,-143 887.523,-143 887.523,-113 786.523,-113"/>
<text text-anchor="start" x="794.523" y="-131" font-family="Helvetica,sans-Serif" font-size="10.00">boost/property_tree</text>
<text text-anchor="middle" x="837.023" y="-120" font-family="Helvetica,sans-Serif" font-size="10.00">/ptree_fwd.hpp</text>
</g>
<!-- Node15&#45;&gt;Node16 -->
<g id="edge23" class="edge"><title>Node15&#45;&gt;Node16</title>
<path fill="none" stroke="midnightblue" d="M580.345,-180.952C634.462,-171.153 707.71,-157.466 772.023,-144 773.475,-143.696 774.945,-143.385 776.427,-143.068"/>
<polygon fill="midnightblue" stroke="midnightblue" points="777.3,-146.46 786.325,-140.91 775.809,-139.62 777.3,-146.46"/>
</g>
<!-- Node17 -->
<g id="node17" class="node"><title>Node17</title>
<g id="a_node17"><a xlink:href="../../df/d9f/ParameterList_8hpp.html" target="_top" xlink:title="This class provides a list of fit parameters which can have different types. ">
<polygon fill="white" stroke="red" points="461.023,-118.5 461.023,-137.5 581.023,-137.5 581.023,-118.5 461.023,-118.5"/>
<text text-anchor="middle" x="521.023" y="-125.5" font-family="Helvetica,sans-Serif" font-size="10.00">Core/ParameterList.hpp</text>
</a>
</g>
</g>
<!-- Node15&#45;&gt;Node17 -->
<g id="edge24" class="edge"><title>Node15&#45;&gt;Node17</title>
<path fill="none" stroke="midnightblue" d="M505.363,-180.679C508.296,-170.999 512.198,-158.123 515.373,-147.645"/>
<polygon fill="midnightblue" stroke="midnightblue" points="518.797,-148.414 518.348,-137.828 512.098,-146.383 518.797,-148.414"/>
</g>
<!-- Node17&#45;&gt;Node3 -->
<g id="edge28" class="edge"><title>Node17&#45;&gt;Node3</title>
<path fill="none" stroke="midnightblue" d="M492.419,-118.47C421.534,-97.3323 238.126,-42.6401 163.904,-20.5069"/>
<polygon fill="midnightblue" stroke="midnightblue" points="164.762,-17.1105 154.178,-17.6068 162.761,-23.8186 164.762,-17.1105"/>
</g>
<!-- Node17&#45;&gt;Node5 -->
<g id="edge25" class="edge"><title>Node17&#45;&gt;Node5</title>
<path fill="none" stroke="midnightblue" d="M506.758,-118.47C473.474,-98.5685 390.445,-48.9224 349.953,-24.711"/>
<polygon fill="midnightblue" stroke="midnightblue" points="351.688,-21.6703 341.309,-19.5423 348.096,-27.6782 351.688,-21.6703"/>
</g>
<!-- Node17&#45;&gt;Node8 -->
<g id="edge26" class="edge"><title>Node17&#45;&gt;Node8</title>
<path fill="none" stroke="midnightblue" d="M540.326,-118.445C556.386,-110.156 578.157,-95.9095 588.023,-76 597.958,-55.9524 576.953,-37.0523 557.898,-24.8553"/>
<polygon fill="midnightblue" stroke="midnightblue" points="559.496,-21.7328 549.121,-19.5868 555.893,-27.7345 559.496,-21.7328"/>
</g>
<!-- Node18 -->
<g id="node18" class="node"><title>Node18</title>
<polygon fill="white" stroke="#bfbfbf" points="635.023,-56.5 635.023,-75.5 687.023,-75.5 687.023,-56.5 635.023,-56.5"/>
<text text-anchor="middle" x="661.023" y="-63.5" font-family="Helvetica,sans-Serif" font-size="10.00">memory</text>
</g>
<!-- Node17&#45;&gt;Node18 -->
<g id="edge27" class="edge"><title>Node17&#45;&gt;Node18</title>
<path fill="none" stroke="midnightblue" d="M541.081,-118.403C564.784,-108.245 604.429,-91.2547 631.606,-79.6074"/>
<polygon fill="midnightblue" stroke="midnightblue" points="633.189,-82.7369 641.001,-75.5806 630.431,-76.3028 633.189,-82.7369"/>
</g>
<!-- Node19 -->
<g id="node19" class="node"><title>Node19</title>
<g id="a_node19"><a xlink:href="../../db/dce/Parameter_8hpp.html" target="_top" xlink:title="This class implements some internal container of parameters. ">
<polygon fill="white" stroke="red" points="475.023,-56.5 475.023,-75.5 579.023,-75.5 579.023,-56.5 475.023,-56.5"/>
<text text-anchor="middle" x="527.023" y="-63.5" font-family="Helvetica,sans-Serif" font-size="10.00">Core/Parameter.hpp</text>
</a>
</g>
</g>
<!-- Node17&#45;&gt;Node19 -->
<g id="edge29" class="edge"><title>Node17&#45;&gt;Node19</title>
<path fill="none" stroke="midnightblue" d="M521.882,-118.403C522.729,-109.938 524.05,-96.7283 525.141,-85.8199"/>
<polygon fill="midnightblue" stroke="midnightblue" points="528.652,-85.8793 526.165,-75.5806 521.687,-85.1827 528.652,-85.8793"/>
</g>
<!-- Node19&#45;&gt;Node4 -->
<g id="edge34" class="edge"><title>Node19&#45;&gt;Node4</title>
<path fill="none" stroke="midnightblue" d="M505.949,-56.4435C483.963,-47.5171 449.289,-33.4387 424.359,-23.3168"/>
<polygon fill="midnightblue" stroke="midnightblue" points="425.581,-20.0355 414.998,-19.5164 422.947,-26.5213 425.581,-20.0355"/>
</g>
<!-- Node19&#45;&gt;Node5 -->
<g id="edge30" class="edge"><title>Node19&#45;&gt;Node5</title>
<path fill="none" stroke="midnightblue" d="M495.332,-56.4435C459.692,-46.8205 401.875,-31.2102 364.148,-21.0239"/>
<polygon fill="midnightblue" stroke="midnightblue" points="364.642,-17.5319 354.075,-18.3042 362.817,-24.2899 364.642,-17.5319"/>
</g>
<!-- Node19&#45;&gt;Node6 -->
<g id="edge33" class="edge"><title>Node19&#45;&gt;Node6</title>
<path fill="none" stroke="midnightblue" d="M516.901,-56.324C507.496,-48.2631 493.279,-36.0765 481.954,-26.3695"/>
<polygon fill="midnightblue" stroke="midnightblue" points="484.199,-23.6844 474.329,-19.8339 479.644,-28.9993 484.199,-23.6844"/>
</g>
<!-- Node19&#45;&gt;Node8 -->
<g id="edge31" class="edge"><title>Node19&#45;&gt;Node8</title>
<path fill="none" stroke="midnightblue" d="M527.848,-56.083C528.504,-49.0059 529.443,-38.8611 530.265,-29.9865"/>
<polygon fill="midnightblue" stroke="midnightblue" points="533.776,-30.0312 531.213,-19.7511 526.805,-29.3858 533.776,-30.0312"/>
</g>
<!-- Node19&#45;&gt;Node11 -->
<g id="edge32" class="edge"><title>Node19&#45;&gt;Node11</title>
<path fill="none" stroke="midnightblue" d="M556.812,-56.4435C589.794,-46.9699 642.979,-31.6935 678.46,-21.5022"/>
<polygon fill="midnightblue" stroke="midnightblue" points="679.768,-24.7681 688.413,-18.6433 677.835,-18.0401 679.768,-24.7681"/>
</g>
<!-- Node20&#45;&gt;Node13 -->
<g id="edge44" class="edge"><title>Node20&#45;&gt;Node13</title>
<path fill="none" stroke="midnightblue" d="M390.16,-249.74C311.259,-237.277 206.232,-219.457 200.023,-212 186.611,-195.893 188.44,-171.295 192.52,-153.054"/>
<polygon fill="midnightblue" stroke="midnightblue" points="195.963,-153.72 195.084,-143.161 189.187,-151.963 195.963,-153.72"/>
</g>
<!-- Node20&#45;&gt;Node15 -->
<g id="edge43" class="edge"><title>Node20&#45;&gt;Node15</title>
<path fill="none" stroke="midnightblue" d="M482.23,-248.679C485.187,-240.549 488.963,-230.164 492.354,-220.839"/>
<polygon fill="midnightblue" stroke="midnightblue" points="495.697,-221.887 495.825,-211.293 489.119,-219.495 495.697,-221.887"/>
</g>
<!-- Node20&#45;&gt;Node18 -->
<g id="edge36" class="edge"><title>Node20&#45;&gt;Node18</title>
<path fill="none" stroke="midnightblue" d="M532.093,-248.967C554.168,-241.084 578.476,-229.259 596.023,-212 632.472,-176.149 650.212,-116.215 657.23,-85.8552"/>
<polygon fill="midnightblue" stroke="midnightblue" points="660.716,-86.2935 659.411,-75.7793 653.875,-84.8124 660.716,-86.2935"/>
</g>
<!-- Node21 -->
<g id="node21" class="node"><title>Node21</title>
<polygon fill="white" stroke="#bfbfbf" points="644.523,-186.5 644.523,-205.5 735.523,-205.5 735.523,-186.5 644.523,-186.5"/>
<text text-anchor="middle" x="690.023" y="-193.5" font-family="Helvetica,sans-Serif" font-size="10.00">boost/assign.hpp</text>
</g>
<!-- Node20&#45;&gt;Node21 -->
<g id="edge37" class="edge"><title>Node20&#45;&gt;Node21</title>
<path fill="none" stroke="midnightblue" d="M522.455,-248.922C561.32,-236.88 616.572,-219.76 652.848,-208.519"/>
<polygon fill="midnightblue" stroke="midnightblue" points="654.031,-211.817 662.547,-205.514 651.959,-205.13 654.031,-211.817"/>
</g>
<!-- Node22 -->
<g id="node22" class="node"><title>Node22</title>
<g id="a_node22"><a xlink:href="../../d8/d35/PhysConst_8hpp.html" target="_top" xlink:title="PhysConst provides particle information to the framework. ">
<polygon fill="white" stroke="black" points="327.023,-118.5 327.023,-137.5 435.023,-137.5 435.023,-118.5 327.023,-118.5"/>
<text text-anchor="middle" x="381.023" y="-125.5" font-family="Helvetica,sans-Serif" font-size="10.00">Core/PhysConst.hpp</text>
</a>
</g>
</g>
<!-- Node20&#45;&gt;Node22 -->
<g id="edge38" class="edge"><title>Node20&#45;&gt;Node22</title>
<path fill="none" stroke="midnightblue" d="M448.473,-248.863C433.543,-240.131 416.117,-227.606 405.023,-212 391.269,-192.653 385.349,-165.509 382.832,-147.6"/>
<polygon fill="midnightblue" stroke="midnightblue" points="386.296,-147.086 381.644,-137.567 379.345,-147.91 386.296,-147.086"/>
</g>
<!-- Node22&#45;&gt;Node3 -->
<g id="edge40" class="edge"><title>Node22&#45;&gt;Node3</title>
<path fill="none" stroke="midnightblue" d="M364.313,-118.401C337.619,-104.744 283.61,-77.4494 237.023,-56 212.14,-44.5433 183.541,-32.3494 162.48,-23.549"/>
<polygon fill="midnightblue" stroke="midnightblue" points="163.663,-20.2502 153.085,-19.6395 160.973,-26.713 163.663,-20.2502"/>
</g>
<!-- Node22&#45;&gt;Node5 -->
<g id="edge39" class="edge"><title>Node22&#45;&gt;Node5</title>
<path fill="none" stroke="midnightblue" d="M376.964,-118.281C368.125,-99.2943 346.99,-53.892 335.245,-28.6624"/>
<polygon fill="midnightblue" stroke="midnightblue" points="338.375,-27.0935 330.982,-19.5048 332.029,-30.0477 338.375,-27.0935"/>
</g>
<!-- Node22&#45;&gt;Node14 -->
<g id="edge42" class="edge"><title>Node22&#45;&gt;Node14</title>
<path fill="none" stroke="midnightblue" d="M353.084,-118.403C319.055,-107.933 261.439,-90.2049 223.561,-78.5501"/>
<polygon fill="midnightblue" stroke="midnightblue" points="224.497,-75.1763 213.91,-75.5806 222.438,-81.8667 224.497,-75.1763"/>
</g>
<!-- Node22&#45;&gt;Node19 -->
<g id="edge41" class="edge"><title>Node22&#45;&gt;Node19</title>
<path fill="none" stroke="midnightblue" d="M401.941,-118.403C426.768,-108.2 468.366,-91.1055 496.717,-79.4544"/>
<polygon fill="midnightblue" stroke="midnightblue" points="498.224,-82.6191 506.143,-75.5806 495.564,-76.1445 498.224,-82.6191"/>
</g>
<!-- Node23&#45;&gt;Node14 -->
<g id="edge49" class="edge"><title>Node23&#45;&gt;Node14</title>
<path fill="none" stroke="midnightblue" d="M789.794,-186.466C775.073,-184.151 758.929,-181.792 744.023,-180 649.698,-168.66 406.047,-179.743 318.023,-144 297.249,-135.565 297.913,-124.078 279.023,-112 259.205,-99.3286 235.287,-87.8307 216.669,-79.6292"/>
<polygon fill="midnightblue" stroke="midnightblue" points="218.034,-76.4063 207.466,-75.652 215.257,-82.8319 218.034,-76.4063"/>
</g>
<!-- Node23&#45;&gt;Node16 -->
<g id="edge48" class="edge"><title>Node23&#45;&gt;Node16</title>
<path fill="none" stroke="midnightblue" d="M839.631,-186.372C839.249,-177.971 838.651,-164.811 838.123,-153.213"/>
<polygon fill="midnightblue" stroke="midnightblue" points="841.618,-153.012 837.667,-143.181 834.625,-153.33 841.618,-153.012"/>
</g>
<!-- Node24 -->
<g id="node24" class="node"><title>Node24</title>
<polygon fill="white" stroke="#bfbfbf" points="905.523,-113 905.523,-143 1020.52,-143 1020.52,-113 905.523,-113"/>
<text text-anchor="start" x="913.523" y="-131" font-family="Helvetica,sans-Serif" font-size="10.00">boost/graph/adjacency</text>
<text text-anchor="middle" x="963.023" y="-120" font-family="Helvetica,sans-Serif" font-size="10.00">_list.hpp</text>
</g>
<!-- Node23&#45;&gt;Node24 -->
<g id="edge46" class="edge"><title>Node23&#45;&gt;Node24</title>
<path fill="none" stroke="midnightblue" d="M856.103,-186.372C874.154,-176.686 904,-160.671 927.578,-148.019"/>
<polygon fill="midnightblue" stroke="midnightblue" points="929.437,-150.994 936.594,-143.181 926.127,-144.826 929.437,-150.994"/>
</g>
<!-- Node25 -->
<g id="node25" class="node"><title>Node25</title>
<polygon fill="white" stroke="#bfbfbf" points="1039.02,-113 1039.02,-143 1155.02,-143 1155.02,-113 1039.02,-113"/>
<text text-anchor="start" x="1047.02" y="-131" font-family="Helvetica,sans-Serif" font-size="10.00">boost/graph/depth_first</text>
<text text-anchor="middle" x="1097.02" y="-120" font-family="Helvetica,sans-Serif" font-size="10.00">_search.hpp</text>
</g>
<!-- Node23&#45;&gt;Node25 -->
<g id="edge47" class="edge"><title>Node23&#45;&gt;Node25</title>
<path fill="none" stroke="midnightblue" d="M873.358,-186.439C913.466,-176.139 981.715,-158.612 1032.3,-145.621"/>
<polygon fill="midnightblue" stroke="midnightblue" points="1033.35,-148.965 1042.17,-143.087 1031.61,-142.185 1033.35,-148.965"/>
</g>
</g>
</svg>
