<?xml version="1.0" encoding="UTF-8" standalone="no"?>
<!DOCTYPE svg PUBLIC "-//W3C//DTD SVG 1.1//EN"
 "http://www.w3.org/Graphics/SVG/1.1/DTD/svg11.dtd">
<!-- Generated by graphviz version 2.36.0 (20140111.2315)
 -->
<!-- Title: /home/travis/build/ComPWA/ComPWA/Core/Parameter.hpp Pages: 1 -->
<svg width="2684pt" height="464pt"
 viewBox="0.00 0.00 2684.00 464.00" xmlns="http://www.w3.org/2000/svg" xmlns:xlink="http://www.w3.org/1999/xlink">
<g id="graph0" class="graph" transform="scale(1 1) rotate(0) translate(4 460)">
<title>/home/travis/build/ComPWA/ComPWA/Core/Parameter.hpp</title>
<polygon fill="white" stroke="none" points="-4,4 -4,-460 2680,-460 2680,4 -4,4"/>
<!-- Node1 -->
<g id="node1" class="node"><title>Node1</title>
<polygon fill="#bfbfbf" stroke="black" points="1046.5,-414.5 1046.5,-455.5 1181.5,-455.5 1181.5,-414.5 1046.5,-414.5"/>
<text text-anchor="start" x="1054.5" y="-443.5" font-family="Helvetica,sans-Serif" font-size="10.00">/home/travis/build</text>
<text text-anchor="start" x="1054.5" y="-432.5" font-family="Helvetica,sans-Serif" font-size="10.00">/ComPWA/ComPWA/Core</text>
<text text-anchor="middle" x="1114" y="-421.5" font-family="Helvetica,sans-Serif" font-size="10.00">/Parameter.hpp</text>
</g>
<!-- Node2 -->
<g id="node2" class="node"><title>Node2</title>
<g id="a_node2"><a xlink:href="../../dc/d53/Dictionary_8cpp.html" target="_top" xlink:title="/home/travis/build\l/ComPWA/ComPWA/Core\l/Dictionary.cpp">
<polygon fill="white" stroke="black" points="432.5,-168.5 432.5,-209.5 567.5,-209.5 567.5,-168.5 432.5,-168.5"/>
<text text-anchor="start" x="440.5" y="-197.5" font-family="Helvetica,sans-Serif" font-size="10.00">/home/travis/build</text>
<text text-anchor="start" x="440.5" y="-186.5" font-family="Helvetica,sans-Serif" font-size="10.00">/ComPWA/ComPWA/Core</text>
<text text-anchor="middle" x="500" y="-175.5" font-family="Helvetica,sans-Serif" font-size="10.00">/Dictionary.cpp</text>
</a>
</g>
</g>
<!-- Node1&#45;&gt;Node2 -->
<g id="edge1" class="edge"><title>Node1&#45;&gt;Node2</title>
<path fill="none" stroke="midnightblue" d="M1035.98,-433.131C859.362,-430.441 433.66,-419.702 297,-378 230.722,-357.775 196.638,-360.017 162,-300 150.003,-279.213 146.478,-264.305 162,-246 195.948,-205.964 343.752,-194.515 432.278,-191.264"/>
<polygon fill="midnightblue" stroke="midnightblue" points="1036.19,-436.634 1046.24,-433.282 1036.29,-429.635 1036.19,-436.634"/>
</g>
<!-- Node3 -->
<g id="node3" class="node"><title>Node3</title>
<g id="a_node3"><a xlink:href="../../d5/dc2/Dictionary_8hpp.html" target="_top" xlink:title="This class gathers information from modules, namely what they need as input and what they provide as ...">
<polygon fill="white" stroke="black" points="432.5,-252.5 432.5,-293.5 567.5,-293.5 567.5,-252.5 432.5,-252.5"/>
<text text-anchor="start" x="440.5" y="-281.5" font-family="Helvetica,sans-Serif" font-size="10.00">/home/travis/build</text>
<text text-anchor="start" x="440.5" y="-270.5" font-family="Helvetica,sans-Serif" font-size="10.00">/ComPWA/ComPWA/Core</text>
<text text-anchor="middle" x="500" y="-259.5" font-family="Helvetica,sans-Serif" font-size="10.00">/Dictionary.hpp</text>
</a>
</g>
</g>
<!-- Node1&#45;&gt;Node3 -->
<g id="edge2" class="edge"><title>Node1&#45;&gt;Node3</title>
<path fill="none" stroke="midnightblue" d="M1036.33,-433.146C907.986,-430.534 658.21,-420.031 582,-378 547.169,-358.79 521.966,-318.049 509.285,-293.65"/>
<polygon fill="midnightblue" stroke="midnightblue" points="1036.42,-436.648 1046.49,-433.341 1036.56,-429.649 1036.42,-436.648"/>
</g>
<!-- Node4 -->
<g id="node4" class="node"><title>Node4</title>
<g id="a_node4"><a xlink:href="../../dc/d66/Functions_8hpp.html" target="_top" xlink:title="This file contains Functions implementing the Strategy interface so they can be used inside a node of...">
<polygon fill="white" stroke="red" points="700.5,-252.5 700.5,-293.5 835.5,-293.5 835.5,-252.5 700.5,-252.5"/>
<text text-anchor="start" x="708.5" y="-281.5" font-family="Helvetica,sans-Serif" font-size="10.00">/home/travis/build</text>
<text text-anchor="start" x="708.5" y="-270.5" font-family="Helvetica,sans-Serif" font-size="10.00">/ComPWA/ComPWA/Core</text>
<text text-anchor="middle" x="768" y="-259.5" font-family="Helvetica,sans-Serif" font-size="10.00">/Functions.hpp</text>
</a>
</g>
</g>
<!-- Node1&#45;&gt;Node4 -->
<g id="edge4" class="edge"><title>Node1&#45;&gt;Node4</title>
<path fill="none" stroke="midnightblue" d="M1036.26,-431.385C980.72,-426.359 906.193,-412.924 850,-378 816.411,-357.124 790.941,-317.353 777.843,-293.501"/>
<polygon fill="midnightblue" stroke="midnightblue" points="1036.14,-434.887 1046.4,-432.229 1036.72,-427.911 1036.14,-434.887"/>
</g>
<!-- Node5 -->
<g id="node5" class="node"><title>Node5</title>
<g id="a_node5"><a xlink:href="../../da/db2/FunctionTree_8hpp.html" target="_top" xlink:title="This class can be used to store a function in a tree&#45;like structure. ">
<polygon fill="white" stroke="red" points="604.5,-90.5 604.5,-131.5 739.5,-131.5 739.5,-90.5 604.5,-90.5"/>
<text text-anchor="start" x="612.5" y="-119.5" font-family="Helvetica,sans-Serif" font-size="10.00">/home/travis/build</text>
<text text-anchor="start" x="612.5" y="-108.5" font-family="Helvetica,sans-Serif" font-size="10.00">/ComPWA/ComPWA/Core</text>
<text text-anchor="middle" x="672" y="-97.5" font-family="Helvetica,sans-Serif" font-size="10.00">/FunctionTree.hpp</text>
</a>
</g>
</g>
<!-- Node1&#45;&gt;Node5 -->
<g id="edge16" class="edge"><title>Node1&#45;&gt;Node5</title>
<path fill="none" stroke="midnightblue" d="M1036.06,-429.4C971.29,-423.401 877.816,-409.615 802,-378 746.349,-354.794 723.934,-350.507 691,-300 656.686,-247.377 663.077,-168.283 668.476,-131.768"/>
<polygon fill="midnightblue" stroke="midnightblue" points="1035.93,-432.903 1046.2,-430.298 1036.54,-425.93 1035.93,-432.903"/>
</g>
<!-- Node6 -->
<g id="node6" class="node"><title>Node6</title>
<g id="a_node6"><a xlink:href="../../d4/d62/Resonance_8hpp.html" target="_top" xlink:title="/home/travis/build\l/ComPWA/ComPWA/Core\l/Resonance.hpp">
<polygon fill="white" stroke="red" points="-0.5,-6.5 -0.5,-47.5 134.5,-47.5 134.5,-6.5 -0.5,-6.5"/>
<text text-anchor="start" x="7.5" y="-35.5" font-family="Helvetica,sans-Serif" font-size="10.00">/home/travis/build</text>
<text text-anchor="start" x="7.5" y="-24.5" font-family="Helvetica,sans-Serif" font-size="10.00">/ComPWA/ComPWA/Core</text>
<text text-anchor="middle" x="67" y="-13.5" font-family="Helvetica,sans-Serif" font-size="10.00">/Resonance.hpp</text>
</a>
</g>
</g>
<!-- Node1&#45;&gt;Node6 -->
<g id="edge42" class="edge"><title>Node1&#45;&gt;Node6</title>
<path fill="none" stroke="midnightblue" d="M1036.04,-434.397C808.346,-434.923 155.444,-431.683 77,-378 35.1406,-349.353 30,-324.723 30,-274 30,-274 30,-274 30,-188 30,-136.395 48.496,-77.78 59.3336,-47.8643"/>
<polygon fill="midnightblue" stroke="midnightblue" points="1036.24,-437.897 1046.23,-434.37 1036.22,-430.897 1036.24,-437.897"/>
</g>
<!-- Node7 -->
<g id="node7" class="node"><title>Node7</title>
<g id="a_node7"><a xlink:href="../../d9/dab/CompareTreeAmpApp_8cpp.html" target="_top" xlink:title="/home/travis/build\l/ComPWA/ComPWA/executables\l/CompareTreeAmpApp.cpp">
<polygon fill="white" stroke="black" points="580.5,-6.5 580.5,-47.5 747.5,-47.5 747.5,-6.5 580.5,-6.5"/>
<text text-anchor="start" x="588.5" y="-35.5" font-family="Helvetica,sans-Serif" font-size="10.00">/home/travis/build</text>
<text text-anchor="start" x="588.5" y="-24.5" font-family="Helvetica,sans-Serif" font-size="10.00">/ComPWA/ComPWA/executables</text>
<text text-anchor="middle" x="664" y="-13.5" font-family="Helvetica,sans-Serif" font-size="10.00">/CompareTreeAmpApp.cpp</text>
</a>
</g>
</g>
<!-- Node1&#45;&gt;Node7 -->
<g id="edge46" class="edge"><title>Node1&#45;&gt;Node7</title>
<path fill="none" stroke="midnightblue" d="M1036.23,-431.851C870.248,-426.645 492.486,-411.256 445,-378 368.132,-324.167 369.158,-244.862 423,-168 465.962,-106.67 545.047,-68.3298 600.885,-47.5954"/>
<polygon fill="midnightblue" stroke="midnightblue" points="1036.27,-435.354 1046.38,-432.165 1036.49,-428.358 1036.27,-435.354"/>
</g>
<!-- Node8 -->
<g id="node8" class="node"><title>Node8</title>
<g id="a_node8"><a xlink:href="../../db/d7b/DalitzFitD03K_8cpp.html" target="_top" xlink:title="/home/travis/build\l/ComPWA/ComPWA/executables\l/Examples/DalitzAnalysis\l_D0KsKK/DalitzFitD03K.cpp">
<polygon fill="white" stroke="black" points="197.5,-1 197.5,-53 364.5,-53 364.5,-1 197.5,-1"/>
<text text-anchor="start" x="205.5" y="-41" font-family="Helvetica,sans-Serif" font-size="10.00">/home/travis/build</text>
<text text-anchor="start" x="205.5" y="-30" font-family="Helvetica,sans-Serif" font-size="10.00">/ComPWA/ComPWA/executables</text>
<text text-anchor="start" x="205.5" y="-19" font-family="Helvetica,sans-Serif" font-size="10.00">/Examples/DalitzAnalysis</text>
<text text-anchor="middle" x="281" y="-8" font-family="Helvetica,sans-Serif" font-size="10.00">_D0KsKK/DalitzFitD03K.cpp</text>
</a>
</g>
</g>
<!-- Node1&#45;&gt;Node8 -->
<g id="edge47" class="edge"><title>Node1&#45;&gt;Node8</title>
<path fill="none" stroke="midnightblue" d="M1035.95,-433.921C815.658,-433.099 200.132,-426.443 124,-378 79.7088,-349.818 68,-326.497 68,-274 68,-274 68,-274 68,-188 68,-119.781 138.71,-77.0581 198.649,-53.0977"/>
<polygon fill="midnightblue" stroke="midnightblue" points="1036.12,-437.422 1046.14,-433.956 1036.15,-430.422 1036.12,-437.422"/>
</g>
<!-- Node9 -->
<g id="node9" class="node"><title>Node9</title>
<g id="a_node9"><a xlink:href="../../da/d2a/DalitzFitApp_8cpp.html" target="_top" xlink:title="Dalitz plot analysis of the decay D0&#45;&gt;K_S0 K_ K&#45;Fit application for D0&#45;&gt;K_S0 K_ K&#45; analysis...">
<polygon fill="white" stroke="black" points="765.5,-6.5 765.5,-47.5 944.5,-47.5 944.5,-6.5 765.5,-6.5"/>
<text text-anchor="start" x="773.5" y="-35.5" font-family="Helvetica,sans-Serif" font-size="10.00">/home/travis/build</text>
<text text-anchor="start" x="773.5" y="-24.5" font-family="Helvetica,sans-Serif" font-size="10.00">/ComPWA/ComPWA/executables</text>
<text text-anchor="middle" x="855" y="-13.5" font-family="Helvetica,sans-Serif" font-size="10.00">/Examples/DalitzFit/DalitzFitApp.cpp</text>
</a>
</g>
</g>
<!-- Node1&#45;&gt;Node9 -->
<g id="edge49" class="edge"><title>Node1&#45;&gt;Node9</title>
<path fill="none" stroke="midnightblue" d="M1037,-413.23C1017.37,-404.909 997.69,-393.496 983,-378 889.3,-279.162 863.149,-106.224 856.813,-47.8721"/>
<polygon fill="midnightblue" stroke="midnightblue" points="1035.72,-416.488 1046.31,-416.956 1038.32,-409.989 1035.72,-416.488"/>
</g>
<!-- Node10 -->
<g id="node10" class="node"><title>Node10</title>
<g id="a_node10"><a xlink:href="../../d6/d9a/SliceFitApp_8cpp.html" target="_top" xlink:title="/home/travis/build\l/ComPWA/ComPWA/executables\l/Examples/SliceFit/SliceFitApp.cpp">
<polygon fill="white" stroke="black" points="391.5,-6.5 391.5,-47.5 562.5,-47.5 562.5,-6.5 391.5,-6.5"/>
<text text-anchor="start" x="399.5" y="-35.5" font-family="Helvetica,sans-Serif" font-size="10.00">/home/travis/build</text>
<text text-anchor="start" x="399.5" y="-24.5" font-family="Helvetica,sans-Serif" font-size="10.00">/ComPWA/ComPWA/executables</text>
<text text-anchor="middle" x="477" y="-13.5" font-family="Helvetica,sans-Serif" font-size="10.00">/Examples/SliceFit/SliceFitApp.cpp</text>
</a>
</g>
</g>
<!-- Node1&#45;&gt;Node10 -->
<g id="edge51" class="edge"><title>Node1&#45;&gt;Node10</title>
<path fill="none" stroke="midnightblue" d="M1036.18,-432.951C826.615,-429.615 261.171,-417.06 187,-378 135.161,-350.701 106,-332.587 106,-274 106,-274 106,-274 106,-188 106,-154.594 311.439,-82.3062 416.567,-47.5021"/>
<polygon fill="midnightblue" stroke="midnightblue" points="1036.13,-436.45 1046.19,-433.107 1036.24,-429.451 1036.13,-436.45"/>
</g>
<!-- Node11 -->
<g id="node11" class="node"><title>Node11</title>
<g id="a_node11"><a xlink:href="../../d3/dbc/SliceFitRANDApp_8cpp.html" target="_top" xlink:title="/home/travis/build\l/ComPWA/ComPWA/executables\l/Examples/SliceFit/SliceFitRANDApp.cpp">
<polygon fill="white" stroke="black" points="963,-6.5 963,-47.5 1163,-47.5 1163,-6.5 963,-6.5"/>
<text text-anchor="start" x="971" y="-35.5" font-family="Helvetica,sans-Serif" font-size="10.00">/home/travis/build</text>
<text text-anchor="start" x="971" y="-24.5" font-family="Helvetica,sans-Serif" font-size="10.00">/ComPWA/ComPWA/executables</text>
<text text-anchor="middle" x="1063" y="-13.5" font-family="Helvetica,sans-Serif" font-size="10.00">/Examples/SliceFit/SliceFitRANDApp.cpp</text>
</a>
</g>
</g>
<!-- Node1&#45;&gt;Node11 -->
<g id="edge52" class="edge"><title>Node1&#45;&gt;Node11</title>
<path fill="none" stroke="midnightblue" d="M1192.14,-432.949C1468.38,-427.927 2374.58,-399.68 2227,-246 2158.53,-174.696 1432.07,-240.398 1338,-210 1231.22,-175.495 1126.75,-87.1408 1083.64,-47.6201"/>
<polygon fill="midnightblue" stroke="midnightblue" points="1191.74,-429.456 1181.8,-433.132 1191.86,-436.455 1191.74,-429.456"/>
</g>
<!-- Node12 -->
<g id="node12" class="node"><title>Node12</title>
<g id="a_node12"><a xlink:href="../../d9/de4/SliceFitUBApp_8cpp.html" target="_top" xlink:title="/home/travis/build\l/ComPWA/ComPWA/executables\l/Examples/SliceFit/SliceFitUBApp.cpp">
<polygon fill="white" stroke="black" points="1181.5,-6.5 1181.5,-47.5 1366.5,-47.5 1366.5,-6.5 1181.5,-6.5"/>
<text text-anchor="start" x="1189.5" y="-35.5" font-family="Helvetica,sans-Serif" font-size="10.00">/home/travis/build</text>
<text text-anchor="start" x="1189.5" y="-24.5" font-family="Helvetica,sans-Serif" font-size="10.00">/ComPWA/ComPWA/executables</text>
<text text-anchor="middle" x="1274" y="-13.5" font-family="Helvetica,sans-Serif" font-size="10.00">/Examples/SliceFit/SliceFitUBApp.cpp</text>
</a>
</g>
</g>
<!-- Node1&#45;&gt;Node12 -->
<g id="edge53" class="edge"><title>Node1&#45;&gt;Node12</title>
<path fill="none" stroke="midnightblue" d="M1191.88,-433.946C1394.43,-433.115 1933.84,-426.292 2105,-378 2175.43,-358.13 2212.46,-362.816 2250,-300 2373.31,-93.6422 2825.63,-399.75 1375,-54 1366.46,-51.964 1357.53,-49.7662 1348.66,-47.5411"/>
<polygon fill="midnightblue" stroke="midnightblue" points="1191.61,-430.447 1181.62,-433.984 1191.64,-437.447 1191.61,-430.447"/>
</g>
<!-- Node13 -->
<g id="node13" class="node"><title>Node13</title>
<g id="a_node13"><a xlink:href="../../d1/d13/HelicityAmplitudeFitApp_8cpp.html" target="_top" xlink:title="/home/travis/build\l/ComPWA/ComPWA/executables\l/HelicityAmplitudeFitApp.cpp">
<polygon fill="white" stroke="black" points="1384.5,-6.5 1384.5,-47.5 1551.5,-47.5 1551.5,-6.5 1384.5,-6.5"/>
<text text-anchor="start" x="1392.5" y="-35.5" font-family="Helvetica,sans-Serif" font-size="10.00">/home/travis/build</text>
<text text-anchor="start" x="1392.5" y="-24.5" font-family="Helvetica,sans-Serif" font-size="10.00">/ComPWA/ComPWA/executables</text>
<text text-anchor="middle" x="1468" y="-13.5" font-family="Helvetica,sans-Serif" font-size="10.00">/HelicityAmplitudeFitApp.cpp</text>
</a>
</g>
</g>
<!-- Node1&#45;&gt;Node13 -->
<g id="edge56" class="edge"><title>Node1&#45;&gt;Node13</title>
<path fill="none" stroke="midnightblue" d="M1192.01,-432.324C1421.59,-427.052 2084.6,-409.271 2177,-378 2252.12,-352.576 2322,-353.307 2322,-274 2322,-274 2322,-274 2322,-188 2322,-110.174 1767,-53.8462 1551.83,-34.9326"/>
<polygon fill="midnightblue" stroke="midnightblue" points="1191.65,-428.831 1181.73,-432.558 1191.81,-435.829 1191.65,-428.831"/>
</g>
<!-- Node14 -->
<g id="node14" class="node"><title>Node14</title>
<g id="a_node14"><a xlink:href="../../df/d5a/TreeNode_8hpp.html" target="_top" xlink:title="This class acts as a container for a parameter in a function tree. ">
<polygon fill="white" stroke="red" points="700.5,-168.5 700.5,-209.5 835.5,-209.5 835.5,-168.5 700.5,-168.5"/>
<text text-anchor="start" x="708.5" y="-197.5" font-family="Helvetica,sans-Serif" font-size="10.00">/home/travis/build</text>
<text text-anchor="start" x="708.5" y="-186.5" font-family="Helvetica,sans-Serif" font-size="10.00">/ComPWA/ComPWA/Core</text>
<text text-anchor="middle" x="768" y="-175.5" font-family="Helvetica,sans-Serif" font-size="10.00">/TreeNode.hpp</text>
</a>
</g>
</g>
<!-- Node1&#45;&gt;Node14 -->
<g id="edge43" class="edge"><title>Node1&#45;&gt;Node14</title>
<path fill="none" stroke="midnightblue" d="M1036.04,-431.397C899.751,-426.032 624.098,-411.338 534,-378 477.451,-357.076 450.797,-353.506 423,-300 411.936,-278.702 407.448,-264.28 423,-246 440.743,-225.145 604.977,-205.859 700.307,-196.298"/>
<polygon fill="midnightblue" stroke="midnightblue" points="1036.27,-434.908 1046.4,-431.797 1036.55,-427.914 1036.27,-434.908"/>
</g>
<!-- Node15 -->
<g id="node15" class="node"><title>Node15</title>
<g id="a_node15"><a xlink:href="../../df/d9f/ParameterList_8hpp.html" target="_top" xlink:title="This class provides a list of fit parameters which can have different types. ">
<polygon fill="white" stroke="red" points="992.5,-336.5 992.5,-377.5 1127.5,-377.5 1127.5,-336.5 992.5,-336.5"/>
<text text-anchor="start" x="1000.5" y="-365.5" font-family="Helvetica,sans-Serif" font-size="10.00">/home/travis/build</text>
<text text-anchor="start" x="1000.5" y="-354.5" font-family="Helvetica,sans-Serif" font-size="10.00">/ComPWA/ComPWA/Core</text>
<text text-anchor="middle" x="1060" y="-343.5" font-family="Helvetica,sans-Serif" font-size="10.00">/ParameterList.hpp</text>
</a>
</g>
</g>
<!-- Node1&#45;&gt;Node15 -->
<g id="edge17" class="edge"><title>Node1&#45;&gt;Node15</title>
<path fill="none" stroke="midnightblue" d="M1094.14,-406.048C1087.4,-396.566 1080.03,-386.185 1073.86,-377.506"/>
<polygon fill="midnightblue" stroke="midnightblue" points="1091.45,-408.304 1100.09,-414.428 1097.15,-404.249 1091.45,-408.304"/>
</g>
<!-- Node16 -->
<g id="node16" class="node"><title>Node16</title>
<g id="a_node16"><a xlink:href="../../d3/d13/ParameterListTest_8cpp.html" target="_top" xlink:title="/home/travis/build\l/ComPWA/ComPWA/Core\l/ParameterListTest.cpp">
<polygon fill="white" stroke="black" points="1158.5,-252.5 1158.5,-293.5 1293.5,-293.5 1293.5,-252.5 1158.5,-252.5"/>
<text text-anchor="start" x="1166.5" y="-281.5" font-family="Helvetica,sans-Serif" font-size="10.00">/home/travis/build</text>
<text text-anchor="start" x="1166.5" y="-270.5" font-family="Helvetica,sans-Serif" font-size="10.00">/ComPWA/ComPWA/Core</text>
<text text-anchor="middle" x="1226" y="-259.5" font-family="Helvetica,sans-Serif" font-size="10.00">/ParameterListTest.cpp</text>
</a>
</g>
</g>
<!-- Node1&#45;&gt;Node16 -->
<g id="edge38" class="edge"><title>Node1&#45;&gt;Node16</title>
<path fill="none" stroke="midnightblue" d="M1133.69,-405.871C1156.19,-373.726 1192.44,-321.939 1212.15,-293.78"/>
<polygon fill="midnightblue" stroke="midnightblue" points="1130.6,-404.181 1127.73,-414.381 1136.34,-408.196 1130.6,-404.181"/>
</g>
<!-- Node17 -->
<g id="node17" class="node"><title>Node17</title>
<g id="a_node17"><a xlink:href="../../d3/d54/AmpPlotterApp_8cpp.html" target="_top" xlink:title="Plotting Tool for Physics&#45;IF amplitudes. ">
<polygon fill="white" stroke="black" points="1311.5,-252.5 1311.5,-293.5 1478.5,-293.5 1478.5,-252.5 1311.5,-252.5"/>
<text text-anchor="start" x="1319.5" y="-281.5" font-family="Helvetica,sans-Serif" font-size="10.00">/home/travis/build</text>
<text text-anchor="start" x="1319.5" y="-270.5" font-family="Helvetica,sans-Serif" font-size="10.00">/ComPWA/ComPWA/executables</text>
<text text-anchor="middle" x="1395" y="-259.5" font-family="Helvetica,sans-Serif" font-size="10.00">/AmpPlotter/AmpPlotterApp.cpp</text>
</a>
</g>
</g>
<!-- Node1&#45;&gt;Node17 -->
<g id="edge44" class="edge"><title>Node1&#45;&gt;Node17</title>
<path fill="none" stroke="midnightblue" d="M1157.41,-409.28C1213.38,-377.412 1309.57,-322.644 1360.7,-293.529"/>
<polygon fill="midnightblue" stroke="midnightblue" points="1155.41,-406.391 1148.46,-414.381 1158.88,-412.474 1155.41,-406.391"/>
</g>
<!-- Node18 -->
<g id="node18" class="node"><title>Node18</title>
<g id="a_node18"><a xlink:href="../../de/dbe/BlackScholesApp_8cpp.html" target="_top" xlink:title="Test&#45;Application for Black&#45;Scholes stock model. ">
<polygon fill="white" stroke="black" points="1496.5,-252.5 1496.5,-293.5 1663.5,-293.5 1663.5,-252.5 1496.5,-252.5"/>
<text text-anchor="start" x="1504.5" y="-281.5" font-family="Helvetica,sans-Serif" font-size="10.00">/home/travis/build</text>
<text text-anchor="start" x="1504.5" y="-270.5" font-family="Helvetica,sans-Serif" font-size="10.00">/ComPWA/ComPWA/executables</text>
<text text-anchor="middle" x="1580" y="-259.5" font-family="Helvetica,sans-Serif" font-size="10.00">/BlackScholesApp.cpp</text>
</a>
</g>
</g>
<!-- Node1&#45;&gt;Node18 -->
<g id="edge45" class="edge"><title>Node1&#45;&gt;Node18</title>
<path fill="none" stroke="midnightblue" d="M1180.62,-411.126C1272.54,-379.567 1436.66,-323.215 1523.12,-293.529"/>
<polygon fill="midnightblue" stroke="midnightblue" points="1179.46,-407.823 1171.14,-414.381 1181.74,-414.444 1179.46,-407.823"/>
</g>
<!-- Node19 -->
<g id="node19" class="node"><title>Node19</title>
<g id="a_node19"><a xlink:href="../../d8/d43/PlotData_8hpp.html" target="_top" xlink:title="/home/travis/build\l/ComPWA/ComPWA/executables\l/Examples/DalitzAnalysis\l_D0KsKK/PlotData.hpp">
<polygon fill="white" stroke="red" points="171.5,-247 171.5,-299 338.5,-299 338.5,-247 171.5,-247"/>
<text text-anchor="start" x="179.5" y="-287" font-family="Helvetica,sans-Serif" font-size="10.00">/home/travis/build</text>
<text text-anchor="start" x="179.5" y="-276" font-family="Helvetica,sans-Serif" font-size="10.00">/ComPWA/ComPWA/executables</text>
<text text-anchor="start" x="179.5" y="-265" font-family="Helvetica,sans-Serif" font-size="10.00">/Examples/DalitzAnalysis</text>
<text text-anchor="middle" x="255" y="-254" font-family="Helvetica,sans-Serif" font-size="10.00">_D0KsKK/PlotData.hpp</text>
</a>
</g>
</g>
<!-- Node1&#45;&gt;Node19 -->
<g id="edge48" class="edge"><title>Node1&#45;&gt;Node19</title>
<path fill="none" stroke="midnightblue" d="M1036.46,-431.502C854.835,-425.197 412.612,-407.039 352,-378 316.151,-360.825 287.028,-324.118 270.349,-299.241"/>
<polygon fill="midnightblue" stroke="midnightblue" points="1036.36,-435.001 1046.48,-431.847 1036.6,-428.005 1036.36,-435.001"/>
</g>
<!-- Node20 -->
<g id="node20" class="node"><title>Node20</title>
<g id="a_node20"><a xlink:href="../../d1/d93/GenDalitzApp_8cpp.html" target="_top" xlink:title="Application to generate J/Psi &#45;&gt; g pi pi. ">
<polygon fill="white" stroke="black" points="2349.5,-252.5 2349.5,-293.5 2534.5,-293.5 2534.5,-252.5 2349.5,-252.5"/>
<text text-anchor="start" x="2357.5" y="-281.5" font-family="Helvetica,sans-Serif" font-size="10.00">/home/travis/build</text>
<text text-anchor="start" x="2357.5" y="-270.5" font-family="Helvetica,sans-Serif" font-size="10.00">/ComPWA/ComPWA/executables</text>
<text text-anchor="middle" x="2442" y="-259.5" font-family="Helvetica,sans-Serif" font-size="10.00">/Examples/DalitzFit/GenDalitzApp.cpp</text>
</a>
</g>
</g>
<!-- Node1&#45;&gt;Node20 -->
<g id="edge50" class="edge"><title>Node1&#45;&gt;Node20</title>
<path fill="none" stroke="midnightblue" d="M1192.04,-433.646C1444.94,-432.054 2231.64,-423.463 2336,-378 2338.72,-376.816 2392.29,-323.607 2422.21,-293.771"/>
<polygon fill="midnightblue" stroke="midnightblue" points="1191.81,-430.147 1181.83,-433.708 1191.86,-437.147 1191.81,-430.147"/>
</g>
<!-- Node21 -->
<g id="node21" class="node"><title>Node21</title>
<g id="a_node21"><a xlink:href="../../db/d19/GenRunManagerApp_8cpp.html" target="_top" xlink:title="/home/travis/build\l/ComPWA/ComPWA/executables\l/GenRunManagerApp.cpp">
<polygon fill="white" stroke="black" points="1681.5,-252.5 1681.5,-293.5 1848.5,-293.5 1848.5,-252.5 1681.5,-252.5"/>
<text text-anchor="start" x="1689.5" y="-281.5" font-family="Helvetica,sans-Serif" font-size="10.00">/home/travis/build</text>
<text text-anchor="start" x="1689.5" y="-270.5" font-family="Helvetica,sans-Serif" font-size="10.00">/ComPWA/ComPWA/executables</text>
<text text-anchor="middle" x="1765" y="-259.5" font-family="Helvetica,sans-Serif" font-size="10.00">/GenRunManagerApp.cpp</text>
</a>
</g>
</g>
<!-- Node1&#45;&gt;Node21 -->
<g id="edge54" class="edge"><title>Node1&#45;&gt;Node21</title>
<path fill="none" stroke="midnightblue" d="M1191.46,-416.365C1299.42,-391.567 1501.12,-344.439 1672,-300 1679.87,-297.953 1688.09,-295.749 1696.26,-293.52"/>
<polygon fill="midnightblue" stroke="midnightblue" points="1190.59,-412.973 1181.63,-418.621 1192.16,-419.796 1190.59,-412.973"/>
</g>
<!-- Node22 -->
<g id="node22" class="node"><title>Node22</title>
<g id="a_node22"><a xlink:href="../../db/d35/GenTwoPartApp_8cpp.html" target="_top" xlink:title="Application to generate a two&#45;particle intensity. ">
<polygon fill="white" stroke="black" points="1866.5,-252.5 1866.5,-293.5 2033.5,-293.5 2033.5,-252.5 1866.5,-252.5"/>
<text text-anchor="start" x="1874.5" y="-281.5" font-family="Helvetica,sans-Serif" font-size="10.00">/home/travis/build</text>
<text text-anchor="start" x="1874.5" y="-270.5" font-family="Helvetica,sans-Serif" font-size="10.00">/ComPWA/ComPWA/executables</text>
<text text-anchor="middle" x="1950" y="-259.5" font-family="Helvetica,sans-Serif" font-size="10.00">/GenTwoPartApp.cpp</text>
</a>
</g>
</g>
<!-- Node1&#45;&gt;Node22 -->
<g id="edge55" class="edge"><title>Node1&#45;&gt;Node22</title>
<path fill="none" stroke="midnightblue" d="M1191.52,-422.877C1327.29,-402.761 1616.56,-357.075 1857,-300 1865.32,-298.025 1874.01,-295.805 1882.61,-293.517"/>
<polygon fill="midnightblue" stroke="midnightblue" points="1191,-419.416 1181.62,-424.339 1192.02,-426.341 1191,-419.416"/>
</g>
<!-- Node23 -->
<g id="node23" class="node"><title>Node23</title>
<g id="a_node23"><a xlink:href="../../d4/d26/HelicityCoherentAmplitudeEventGenApp_8cpp.html" target="_top" xlink:title="Application to generate J/Psi &#45;&gt; g pi pi. ">
<polygon fill="white" stroke="black" points="2051.5,-247 2051.5,-299 2218.5,-299 2218.5,-247 2051.5,-247"/>
<text text-anchor="start" x="2059.5" y="-287" font-family="Helvetica,sans-Serif" font-size="10.00">/home/travis/build</text>
<text text-anchor="start" x="2059.5" y="-276" font-family="Helvetica,sans-Serif" font-size="10.00">/ComPWA/ComPWA/executables</text>
<text text-anchor="start" x="2059.5" y="-265" font-family="Helvetica,sans-Serif" font-size="10.00">/HelicityCoherentAmplitudeEvent</text>
<text text-anchor="middle" x="2135" y="-254" font-family="Helvetica,sans-Serif" font-size="10.00">GenApp.cpp</text>
</a>
</g>
</g>
<!-- Node1&#45;&gt;Node23 -->
<g id="edge57" class="edge"><title>Node1&#45;&gt;Node23</title>
<path fill="none" stroke="midnightblue" d="M1191.87,-426.91C1352.33,-411.392 1730.83,-370.094 2042,-300 2045.11,-299.3 2048.27,-298.561 2051.45,-297.792"/>
<polygon fill="midnightblue" stroke="midnightblue" points="1191.24,-423.454 1181.62,-427.895 1191.91,-430.422 1191.24,-423.454"/>
</g>
<!-- Node24 -->
<g id="node24" class="node"><title>Node24</title>
<g id="a_node24"><a xlink:href="../../dc/d31/ParameterTest_8cpp.html" target="_top" xlink:title="/home/travis/build\l/ComPWA/ComPWA/Core\l/ParameterTest.cpp">
<polygon fill="white" stroke="black" points="2541.5,-336.5 2541.5,-377.5 2676.5,-377.5 2676.5,-336.5 2541.5,-336.5"/>
<text text-anchor="start" x="2549.5" y="-365.5" font-family="Helvetica,sans-Serif" font-size="10.00">/home/travis/build</text>
<text text-anchor="start" x="2549.5" y="-354.5" font-family="Helvetica,sans-Serif" font-size="10.00">/ComPWA/ComPWA/Core</text>
<text text-anchor="middle" x="2609" y="-343.5" font-family="Helvetica,sans-Serif" font-size="10.00">/ParameterTest.cpp</text>
</a>
</g>
</g>
<!-- Node1&#45;&gt;Node24 -->
<g id="edge39" class="edge"><title>Node1&#45;&gt;Node24</title>
<path fill="none" stroke="midnightblue" d="M1191.74,-433.127C1448.83,-429.893 2270.15,-416.718 2532,-378 2535.01,-377.556 2538.06,-377.04 2541.14,-376.468"/>
<polygon fill="midnightblue" stroke="midnightblue" points="1191.69,-429.627 1181.74,-433.251 1191.78,-436.626 1191.69,-429.627"/>
</g>
<!-- Node25 -->
<g id="node25" class="node"><title>Node25</title>
<g id="a_node25"><a xlink:href="../../d8/d35/PhysConst_8hpp.html" target="_top" xlink:title="PhysConst provides particle information to the framework. ">
<polygon fill="white" stroke="red" points="2388.5,-336.5 2388.5,-377.5 2523.5,-377.5 2523.5,-336.5 2388.5,-336.5"/>
<text text-anchor="start" x="2396.5" y="-365.5" font-family="Helvetica,sans-Serif" font-size="10.00">/home/travis/build</text>
<text text-anchor="start" x="2396.5" y="-354.5" font-family="Helvetica,sans-Serif" font-size="10.00">/ComPWA/ComPWA/Core</text>
<text text-anchor="middle" x="2456" y="-343.5" font-family="Helvetica,sans-Serif" font-size="10.00">/PhysConst.hpp</text>
</a>
</g>
</g>
<!-- Node1&#45;&gt;Node25 -->
<g id="edge40" class="edge"><title>Node1&#45;&gt;Node25</title>
<path fill="none" stroke="midnightblue" d="M1192.18,-432.52C1430.27,-427.697 2144.12,-410.823 2374,-378 2378.64,-377.337 2383.4,-376.528 2388.19,-375.618"/>
<polygon fill="midnightblue" stroke="midnightblue" points="1191.81,-429.027 1181.88,-432.727 1191.95,-436.025 1191.81,-429.027"/>
</g>
<!-- Node3&#45;&gt;Node2 -->
<g id="edge3" class="edge"><title>Node3&#45;&gt;Node2</title>
<path fill="none" stroke="midnightblue" d="M500,-241.881C500,-231.133 500,-219.309 500,-209.667"/>
<polygon fill="midnightblue" stroke="midnightblue" points="496.5,-242.15 500,-252.15 503.5,-242.15 496.5,-242.15"/>
</g>
<!-- Node4&#45;&gt;Node5 -->
<g id="edge5" class="edge"><title>Node4&#45;&gt;Node5</title>
<path fill="none" stroke="midnightblue" d="M725.647,-246.4C712.671,-236.564 699.573,-224.23 691,-210 676.423,-185.803 672.706,-152.689 671.929,-131.823"/>
<polygon fill="midnightblue" stroke="midnightblue" points="723.949,-249.49 734.108,-252.498 728.042,-243.811 723.949,-249.49"/>
</g>
<!-- Node4&#45;&gt;Node14 -->
<g id="edge14" class="edge"><title>Node4&#45;&gt;Node14</title>
<path fill="none" stroke="midnightblue" d="M768,-241.881C768,-231.133 768,-219.309 768,-209.667"/>
<polygon fill="midnightblue" stroke="midnightblue" points="764.5,-242.15 768,-252.15 771.5,-242.15 764.5,-242.15"/>
</g>
<!-- Node5&#45;&gt;Node6 -->
<g id="edge6" class="edge"><title>Node5&#45;&gt;Node6</title>
<path fill="none" stroke="midnightblue" d="M594.185,-103.328C498.289,-94.5695 330.533,-77.5029 188,-54 170.616,-51.1335 151.954,-47.4357 134.616,-43.7333"/>
<polygon fill="midnightblue" stroke="midnightblue" points="594.102,-106.834 604.377,-104.252 594.734,-99.863 594.102,-106.834"/>
</g>
<!-- Node5&#45;&gt;Node7 -->
<g id="edge7" class="edge"><title>Node5&#45;&gt;Node7</title>
<path fill="none" stroke="midnightblue" d="M669.062,-79.881C668.013,-69.1328 666.859,-57.309 665.919,-47.6671"/>
<polygon fill="midnightblue" stroke="midnightblue" points="665.609,-80.5372 670.063,-90.1501 672.576,-79.8575 665.609,-80.5372"/>
</g>
<!-- Node5&#45;&gt;Node8 -->
<g id="edge8" class="edge"><title>Node5&#45;&gt;Node8</title>
<path fill="none" stroke="midnightblue" d="M594.45,-96.3574C535.889,-85.7328 453.645,-70.1232 382,-54 376.347,-52.7279 370.53,-51.3676 364.677,-49.961"/>
<polygon fill="midnightblue" stroke="midnightblue" points="593.906,-99.8157 604.369,-98.1504 595.152,-92.9273 593.906,-99.8157"/>
</g>
<!-- Node5&#45;&gt;Node9 -->
<g id="edge9" class="edge"><title>Node5&#45;&gt;Node9</title>
<path fill="none" stroke="midnightblue" d="M725.239,-86.1442C752.544,-73.9093 785.393,-59.1901 811.208,-47.6227"/>
<polygon fill="midnightblue" stroke="midnightblue" points="723.528,-83.0758 715.833,-90.359 726.39,-89.4638 723.528,-83.0758"/>
</g>
<!-- Node5&#45;&gt;Node10 -->
<g id="edge10" class="edge"><title>Node5&#45;&gt;Node10</title>
<path fill="none" stroke="midnightblue" d="M616.031,-86.4642C586.786,-74.1666 551.412,-59.2911 523.664,-47.6227"/>
<polygon fill="midnightblue" stroke="midnightblue" points="614.718,-89.7089 625.293,-90.359 617.431,-83.2562 614.718,-89.7089"/>
</g>
<!-- Node5&#45;&gt;Node11 -->
<g id="edge11" class="edge"><title>Node5&#45;&gt;Node11</title>
<path fill="none" stroke="midnightblue" d="M749.641,-95.2929C806.147,-84.403 884.451,-68.9268 953,-54 962.299,-51.975 972.023,-49.7841 981.677,-47.5628"/>
<polygon fill="midnightblue" stroke="midnightblue" points="748.865,-91.8781 739.706,-97.2038 750.187,-98.7521 748.865,-91.8781"/>
</g>
<!-- Node5&#45;&gt;Node12 -->
<g id="edge12" class="edge"><title>Node5&#45;&gt;Node12</title>
<path fill="none" stroke="midnightblue" d="M749.746,-104.636C848.489,-97.0592 1023.86,-81.0427 1172,-54 1181.98,-52.1786 1192.42,-49.9249 1202.66,-47.512"/>
<polygon fill="midnightblue" stroke="midnightblue" points="749.262,-101.163 739.556,-105.409 749.792,-108.143 749.262,-101.163"/>
</g>
<!-- Node5&#45;&gt;Node13 -->
<g id="edge13" class="edge"><title>Node5&#45;&gt;Node13</title>
<path fill="none" stroke="midnightblue" d="M750.214,-108.686C880.676,-105.4 1150.54,-93.9295 1375,-54 1384.57,-52.297 1394.58,-50.031 1404.34,-47.5447"/>
<polygon fill="midnightblue" stroke="midnightblue" points="749.837,-105.194 739.925,-108.936 750.007,-112.192 749.837,-105.194"/>
</g>
<!-- Node14&#45;&gt;Node5 -->
<g id="edge15" class="edge"><title>Node14&#45;&gt;Node5</title>
<path fill="none" stroke="midnightblue" d="M735.24,-162.065C722.599,-152.057 708.385,-140.804 696.639,-131.506"/>
<polygon fill="midnightblue" stroke="midnightblue" points="733.265,-164.965 743.278,-168.428 737.61,-159.477 733.265,-164.965"/>
</g>
<!-- Node15&#45;&gt;Node2 -->
<g id="edge18" class="edge"><title>Node15&#45;&gt;Node2</title>
<path fill="none" stroke="midnightblue" d="M982.025,-355.791C898.997,-353.163 765.076,-341.937 658,-300 643.645,-294.378 567.914,-239.724 526.731,-209.633"/>
<polygon fill="midnightblue" stroke="midnightblue" points="982.048,-359.293 992.143,-356.077 982.246,-352.296 982.048,-359.293"/>
</g>
<!-- Node15&#45;&gt;Node3 -->
<g id="edge19" class="edge"><title>Node15&#45;&gt;Node3</title>
<path fill="none" stroke="midnightblue" d="M982.077,-348.149C893.895,-338.786 746.116,-321.646 620,-300 602.982,-297.079 584.72,-293.404 567.705,-289.744"/>
<polygon fill="midnightblue" stroke="midnightblue" points="981.954,-351.656 992.266,-349.225 982.688,-344.694 981.954,-351.656"/>
</g>
<!-- Node15&#45;&gt;Node4 -->
<g id="edge20" class="edge"><title>Node15&#45;&gt;Node4</title>
<path fill="none" stroke="midnightblue" d="M982.412,-334.212C936.712,-321.378 879.456,-305.299 835.61,-292.986"/>
<polygon fill="midnightblue" stroke="midnightblue" points="981.702,-337.647 992.275,-336.981 983.594,-330.908 981.702,-337.647"/>
</g>
<!-- Node15&#45;&gt;Node7 -->
<g id="edge25" class="edge"><title>Node15&#45;&gt;Node7</title>
<path fill="none" stroke="midnightblue" d="M1047.9,-326.871C1021.48,-264.578 957.631,-121.515 916,-90 857.885,-46.0068 826.652,-71.9179 756,-54 748.117,-52.0007 739.881,-49.8143 731.716,-47.5855"/>
<polygon fill="midnightblue" stroke="midnightblue" points="1044.7,-328.291 1051.81,-336.146 1051.15,-325.572 1044.7,-328.291"/>
</g>
<!-- Node15&#45;&gt;Node8 -->
<g id="edge26" class="edge"><title>Node15&#45;&gt;Node8</title>
<path fill="none" stroke="midnightblue" d="M981.959,-350.478C888.872,-342.807 739.717,-326.764 691,-300 622.805,-262.535 638.007,-215.002 576,-168 507.556,-116.118 416.806,-76.6123 354.122,-53.0042"/>
<polygon fill="midnightblue" stroke="midnightblue" points="981.934,-353.987 992.183,-351.305 982.498,-347.01 981.934,-353.987"/>
</g>
<!-- Node15&#45;&gt;Node9 -->
<g id="edge29" class="edge"><title>Node15&#45;&gt;Node9</title>
<path fill="none" stroke="midnightblue" d="M1055.66,-326.01C1046.22,-264.326 1022.2,-125.998 992,-90 975.724,-70.5995 952.113,-56.9996 929.062,-47.5899"/>
<polygon fill="midnightblue" stroke="midnightblue" points="1052.25,-326.885 1057.2,-336.253 1059.18,-325.843 1052.25,-326.885"/>
</g>
<!-- Node15&#45;&gt;Node10 -->
<g id="edge31" class="edge"><title>Node15&#45;&gt;Node10</title>
<path fill="none" stroke="midnightblue" d="M1032.7,-329.403C969.364,-268.279 812.934,-120.687 748,-90 675.42,-55.6989 649.066,-72.7116 571,-54 562.685,-52.0069 553.992,-49.7884 545.395,-47.511"/>
<polygon fill="midnightblue" stroke="midnightblue" points="1030.32,-331.978 1039.94,-336.414 1035.19,-326.946 1030.32,-331.978"/>
</g>
<!-- Node15&#45;&gt;Node11 -->
<g id="edge32" class="edge"><title>Node15&#45;&gt;Node11</title>
<path fill="none" stroke="midnightblue" d="M1060.27,-326.342C1060.87,-260.458 1062.31,-103.362 1062.82,-47.848"/>
<polygon fill="midnightblue" stroke="midnightblue" points="1056.77,-326.433 1060.18,-336.464 1063.77,-326.497 1056.77,-326.433"/>
</g>
<!-- Node15&#45;&gt;Node12 -->
<g id="edge33" class="edge"><title>Node15&#45;&gt;Node12</title>
<path fill="none" stroke="midnightblue" d="M1073.06,-327.366C1083.73,-304.769 1099.66,-272.712 1116,-246 1162.83,-169.444 1228.29,-85.0971 1258.09,-47.7083"/>
<polygon fill="midnightblue" stroke="midnightblue" points="1069.89,-325.887 1068.83,-336.428 1076.23,-328.85 1069.89,-325.887"/>
</g>
<!-- Node15&#45;&gt;Node13 -->
<g id="edge36" class="edge"><title>Node15&#45;&gt;Node13</title>
<path fill="none" stroke="midnightblue" d="M1089.36,-329.234C1098.38,-320.348 1108.03,-310.128 1116,-300 1133.4,-277.901 1129.62,-266.389 1149,-246 1235.06,-155.437 1364.75,-81.26 1429.03,-47.5622"/>
<polygon fill="midnightblue" stroke="midnightblue" points="1086.75,-326.893 1081.98,-336.354 1091.61,-331.931 1086.75,-326.893"/>
</g>
<!-- Node15&#45;&gt;Node14 -->
<g id="edge22" class="edge"><title>Node15&#45;&gt;Node14</title>
<path fill="none" stroke="midnightblue" d="M996.413,-332.646C973.701,-323.471 948.241,-312.208 926,-300 899.63,-285.525 832.23,-237.023 794.535,-209.501"/>
<polygon fill="midnightblue" stroke="midnightblue" points="995.375,-336 1005.96,-336.447 997.964,-329.497 995.375,-336"/>
</g>
<!-- Node15&#45;&gt;Node16 -->
<g id="edge21" class="edge"><title>Node15&#45;&gt;Node16</title>
<path fill="none" stroke="midnightblue" d="M1108.94,-331.823C1133.58,-319.652 1163.06,-305.089 1186.28,-293.623"/>
<polygon fill="midnightblue" stroke="midnightblue" points="1107.18,-328.792 1099.76,-336.359 1110.28,-335.068 1107.18,-328.792"/>
</g>
<!-- Node15&#45;&gt;Node17 -->
<g id="edge23" class="edge"><title>Node15&#45;&gt;Node17</title>
<path fill="none" stroke="midnightblue" d="M1137.67,-338.966C1185.24,-328.299 1247.29,-313.97 1302,-300 1309.96,-297.968 1318.28,-295.761 1326.53,-293.52"/>
<polygon fill="midnightblue" stroke="midnightblue" points="1136.74,-335.587 1127.74,-341.185 1138.26,-342.418 1136.74,-335.587"/>
</g>
<!-- Node15&#45;&gt;Node18 -->
<g id="edge24" class="edge"><title>Node15&#45;&gt;Node18</title>
<path fill="none" stroke="midnightblue" d="M1138,-349.132C1224.03,-340.778 1366.28,-324.661 1487,-300 1496.03,-298.155 1505.48,-295.902 1514.74,-293.502"/>
<polygon fill="midnightblue" stroke="midnightblue" points="1137.41,-345.672 1127.79,-350.112 1138.08,-352.64 1137.41,-345.672"/>
</g>
<!-- Node15&#45;&gt;Node19 -->
<g id="edge27" class="edge"><title>Node15&#45;&gt;Node19</title>
<path fill="none" stroke="midnightblue" d="M982.231,-350.822C862.051,-342.445 624.06,-324.369 423,-300 395.459,-296.662 365.492,-292.27 338.594,-288.048"/>
<polygon fill="midnightblue" stroke="midnightblue" points="982.217,-354.329 992.435,-351.529 982.702,-347.346 982.217,-354.329"/>
</g>
<!-- Node15&#45;&gt;Node20 -->
<g id="edge30" class="edge"><title>Node15&#45;&gt;Node20</title>
<path fill="none" stroke="midnightblue" d="M1137.57,-354.218C1325.02,-349.49 1817.41,-334.547 2227,-300 2267.18,-296.611 2311.43,-291.498 2349.29,-286.701"/>
<polygon fill="midnightblue" stroke="midnightblue" points="1137.44,-350.72 1127.53,-354.469 1137.62,-357.718 1137.44,-350.72"/>
</g>
<!-- Node15&#45;&gt;Node21 -->
<g id="edge34" class="edge"><title>Node15&#45;&gt;Node21</title>
<path fill="none" stroke="midnightblue" d="M1137.83,-353.396C1254.69,-348.472 1482.03,-334.947 1672,-300 1681.48,-298.256 1691.39,-295.984 1701.07,-293.508"/>
<polygon fill="midnightblue" stroke="midnightblue" points="1137.4,-349.911 1127.56,-353.819 1137.69,-356.905 1137.4,-349.911"/>
</g>
<!-- Node15&#45;&gt;Node22 -->
<g id="edge35" class="edge"><title>Node15&#45;&gt;Node22</title>
<path fill="none" stroke="midnightblue" d="M1137.75,-355.739C1281.05,-354.109 1596.06,-345.163 1857,-300 1866.66,-298.327 1876.77,-296.062 1886.61,-293.561"/>
<polygon fill="midnightblue" stroke="midnightblue" points="1137.69,-352.239 1127.73,-355.844 1137.77,-359.239 1137.69,-352.239"/>
</g>
<!-- Node15&#45;&gt;Node23 -->
<g id="edge37" class="edge"><title>Node15&#45;&gt;Node23</title>
<path fill="none" stroke="midnightblue" d="M1137.77,-353.732C1338.14,-347.54 1868.46,-328.859 2042,-300 2045.06,-299.491 2048.16,-298.92 2051.29,-298.299"/>
<polygon fill="midnightblue" stroke="midnightblue" points="1137.51,-350.238 1127.62,-354.043 1137.72,-357.235 1137.51,-350.238"/>
</g>
<!-- Node19&#45;&gt;Node8 -->
<g id="edge28" class="edge"><title>Node19&#45;&gt;Node8</title>
<path fill="none" stroke="midnightblue" d="M258.751,-236.795C264.071,-186.87 273.677,-96.7241 278.33,-53.0562"/>
<polygon fill="midnightblue" stroke="midnightblue" points="255.264,-236.492 257.685,-246.807 262.224,-237.234 255.264,-236.492"/>
</g>
<!-- Node25&#45;&gt;Node20 -->
<g id="edge41" class="edge"><title>Node25&#45;&gt;Node20</title>
<path fill="none" stroke="midnightblue" d="M2450.92,-326.217C2449.06,-315.379 2447.02,-303.409 2445.36,-293.667"/>
<polygon fill="midnightblue" stroke="midnightblue" points="2447.48,-326.882 2452.61,-336.15 2454.38,-325.704 2447.48,-326.882"/>
</g>
</g>
</svg>
