<?xml version="1.0" encoding="UTF-8" standalone="no"?>
<!DOCTYPE svg PUBLIC "-//W3C//DTD SVG 1.1//EN"
 "http://www.w3.org/Graphics/SVG/1.1/DTD/svg11.dtd">
<!-- Generated by graphviz version 2.36.0 (20140111.2315)
 -->
<!-- Title: /home/travis/build/ComPWA/ComPWA/Core/Parameter.hpp Pages: 1 -->
<svg width="2550pt" height="542pt"
 viewBox="0.00 0.00 2550.00 542.00" xmlns="http://www.w3.org/2000/svg" xmlns:xlink="http://www.w3.org/1999/xlink">
<g id="graph0" class="graph" transform="scale(1 1) rotate(0) translate(4 538)">
<title>/home/travis/build/ComPWA/ComPWA/Core/Parameter.hpp</title>
<polygon fill="white" stroke="none" points="-4,4 -4,-538 2546,-538 2546,4 -4,4"/>
<!-- Node1 -->
<g id="node1" class="node"><title>Node1</title>
<polygon fill="#bfbfbf" stroke="black" points="1144.5,-492.5 1144.5,-533.5 1279.5,-533.5 1279.5,-492.5 1144.5,-492.5"/>
<text text-anchor="start" x="1152.5" y="-521.5" font-family="Helvetica,sans-Serif" font-size="10.00">/home/travis/build</text>
<text text-anchor="start" x="1152.5" y="-510.5" font-family="Helvetica,sans-Serif" font-size="10.00">/ComPWA/ComPWA/Core</text>
<text text-anchor="middle" x="1212" y="-499.5" font-family="Helvetica,sans-Serif" font-size="10.00">/Parameter.hpp</text>
</g>
<!-- Node2 -->
<g id="node2" class="node"><title>Node2</title>
<g id="a_node2"><a xlink:href="../../dc/d53/Dictionary_8cpp.html" target="_top" xlink:title="/home/travis/build\l/ComPWA/ComPWA/Core\l/Dictionary.cpp">
<polygon fill="white" stroke="black" points="52.5,-246.5 52.5,-287.5 187.5,-287.5 187.5,-246.5 52.5,-246.5"/>
<text text-anchor="start" x="60.5" y="-275.5" font-family="Helvetica,sans-Serif" font-size="10.00">/home/travis/build</text>
<text text-anchor="start" x="60.5" y="-264.5" font-family="Helvetica,sans-Serif" font-size="10.00">/ComPWA/ComPWA/Core</text>
<text text-anchor="middle" x="120" y="-253.5" font-family="Helvetica,sans-Serif" font-size="10.00">/Dictionary.cpp</text>
</a>
</g>
</g>
<!-- Node1&#45;&gt;Node2 -->
<g id="edge1" class="edge"><title>Node1&#45;&gt;Node2</title>
<path fill="none" stroke="midnightblue" d="M1134.1,-510.322C907.249,-505.086 257.403,-487.488 167,-456 110.402,-436.286 84.5158,-431.243 57,-378 45.9813,-356.679 47.1683,-345.894 57,-324 63.5943,-309.315 76.1534,-296.911 88.3338,-287.539"/>
<polygon fill="midnightblue" stroke="midnightblue" points="1134.18,-513.824 1144.26,-510.554 1134.34,-506.826 1134.18,-513.824"/>
</g>
<!-- Node3 -->
<g id="node3" class="node"><title>Node3</title>
<g id="a_node3"><a xlink:href="../../d5/dc2/Dictionary_8hpp.html" target="_top" xlink:title="This class gathers information from modules, namely what they need as input and what they provide as ...">
<polygon fill="white" stroke="black" points="66.5,-330.5 66.5,-371.5 201.5,-371.5 201.5,-330.5 66.5,-330.5"/>
<text text-anchor="start" x="74.5" y="-359.5" font-family="Helvetica,sans-Serif" font-size="10.00">/home/travis/build</text>
<text text-anchor="start" x="74.5" y="-348.5" font-family="Helvetica,sans-Serif" font-size="10.00">/ComPWA/ComPWA/Core</text>
<text text-anchor="middle" x="134" y="-337.5" font-family="Helvetica,sans-Serif" font-size="10.00">/Dictionary.hpp</text>
</a>
</g>
</g>
<!-- Node1&#45;&gt;Node3 -->
<g id="edge2" class="edge"><title>Node1&#45;&gt;Node3</title>
<path fill="none" stroke="midnightblue" d="M1134.25,-511.282C914.002,-508.741 296.586,-497.918 216,-456 180.711,-437.644 155.67,-396.602 143.141,-371.919"/>
<polygon fill="midnightblue" stroke="midnightblue" points="1134.4,-514.784 1144.43,-511.397 1134.47,-507.784 1134.4,-514.784"/>
</g>
<!-- Node4 -->
<g id="node4" class="node"><title>Node4</title>
<g id="a_node4"><a xlink:href="../../dc/d66/Functions_8hpp.html" target="_top" xlink:title="This file contains Functions implementing the Strategy interface so they can be used inside a node of...">
<polygon fill="white" stroke="red" points="372.5,-330.5 372.5,-371.5 507.5,-371.5 507.5,-330.5 372.5,-330.5"/>
<text text-anchor="start" x="380.5" y="-359.5" font-family="Helvetica,sans-Serif" font-size="10.00">/home/travis/build</text>
<text text-anchor="start" x="380.5" y="-348.5" font-family="Helvetica,sans-Serif" font-size="10.00">/ComPWA/ComPWA/Core</text>
<text text-anchor="middle" x="440" y="-337.5" font-family="Helvetica,sans-Serif" font-size="10.00">/Functions.hpp</text>
</a>
</g>
</g>
<!-- Node1&#45;&gt;Node4 -->
<g id="edge4" class="edge"><title>Node1&#45;&gt;Node4</title>
<path fill="none" stroke="midnightblue" d="M1134.37,-511.93C1027.33,-510.062 829.248,-500.206 667,-456 594.853,-436.343 516.867,-395.956 473.669,-371.701"/>
<polygon fill="midnightblue" stroke="midnightblue" points="1134.39,-515.431 1144.44,-512.087 1134.49,-508.431 1134.39,-515.431"/>
</g>
<!-- Node5 -->
<g id="node5" class="node"><title>Node5</title>
<g id="a_node5"><a xlink:href="../../da/db2/FunctionTree_8hpp.html" target="_top" xlink:title="This class can be used to store a function in a tree&#45;like structure. ">
<polygon fill="white" stroke="red" points="715.5,-168.5 715.5,-209.5 850.5,-209.5 850.5,-168.5 715.5,-168.5"/>
<text text-anchor="start" x="723.5" y="-197.5" font-family="Helvetica,sans-Serif" font-size="10.00">/home/travis/build</text>
<text text-anchor="start" x="723.5" y="-186.5" font-family="Helvetica,sans-Serif" font-size="10.00">/ComPWA/ComPWA/Core</text>
<text text-anchor="middle" x="783" y="-175.5" font-family="Helvetica,sans-Serif" font-size="10.00">/FunctionTree.hpp</text>
</a>
</g>
</g>
<!-- Node1&#45;&gt;Node5 -->
<g id="edge20" class="edge"><title>Node1&#45;&gt;Node5</title>
<path fill="none" stroke="midnightblue" d="M1134.28,-507.561C1014.83,-499.935 797.379,-482.558 774,-456 711.716,-385.246 754.412,-258.344 774.327,-209.709"/>
<polygon fill="midnightblue" stroke="midnightblue" points="1134.27,-511.067 1144.47,-508.203 1134.71,-504.081 1134.27,-511.067"/>
</g>
<!-- Node6 -->
<g id="node6" class="node"><title>Node6</title>
<g id="a_node6"><a xlink:href="../../d3/d0c/TreeTestApp_8cpp.html" target="_top" xlink:title="Test&#45;Application to show usage of the FunctionTree. ">
<polygon fill="white" stroke="black" points="167.5,-84.5 167.5,-125.5 302.5,-125.5 302.5,-84.5 167.5,-84.5"/>
<text text-anchor="start" x="175.5" y="-113.5" font-family="Helvetica,sans-Serif" font-size="10.00">/home/travis/build</text>
<text text-anchor="start" x="175.5" y="-102.5" font-family="Helvetica,sans-Serif" font-size="10.00">/ComPWA/ComPWA/Core</text>
<text text-anchor="middle" x="235" y="-91.5" font-family="Helvetica,sans-Serif" font-size="10.00">/test/TreeTestApp.cpp</text>
</a>
</g>
</g>
<!-- Node1&#45;&gt;Node6 -->
<g id="edge47" class="edge"><title>Node1&#45;&gt;Node6</title>
<path fill="none" stroke="midnightblue" d="M1134.08,-511.929C893.278,-511.19 171.684,-504.876 79,-456 27.6561,-428.924 0,-410.046 0,-352 0,-352 0,-352 0,-266 0,-184.437 97.9199,-141.504 167.344,-121.315"/>
<polygon fill="midnightblue" stroke="midnightblue" points="1134.14,-515.43 1144.15,-511.958 1134.16,-508.43 1134.14,-515.43"/>
</g>
<!-- Node7 -->
<g id="node7" class="node"><title>Node7</title>
<g id="a_node7"><a xlink:href="../../db/d7b/DalitzFitD03K_8cpp.html" target="_top" xlink:title="/home/travis/build\l/ComPWA/ComPWA/Examples\l/DalitzAnalysis_D0KsKK\l/DalitzFitD03K.cpp">
<polygon fill="white" stroke="black" points="603,-79 603,-131 761,-131 761,-79 603,-79"/>
<text text-anchor="start" x="611" y="-119" font-family="Helvetica,sans-Serif" font-size="10.00">/home/travis/build</text>
<text text-anchor="start" x="611" y="-108" font-family="Helvetica,sans-Serif" font-size="10.00">/ComPWA/ComPWA/Examples</text>
<text text-anchor="start" x="611" y="-97" font-family="Helvetica,sans-Serif" font-size="10.00">/DalitzAnalysis_D0KsKK</text>
<text text-anchor="middle" x="682" y="-86" font-family="Helvetica,sans-Serif" font-size="10.00">/DalitzFitD03K.cpp</text>
</a>
</g>
</g>
<!-- Node1&#45;&gt;Node7 -->
<g id="edge50" class="edge"><title>Node1&#45;&gt;Node7</title>
<path fill="none" stroke="midnightblue" d="M1134.31,-510.885C941.937,-507.536 454.538,-495.237 393,-456 313.504,-405.312 305.106,-320.412 363,-246 393.825,-206.38 518.804,-159.276 602.87,-131.053"/>
<polygon fill="midnightblue" stroke="midnightblue" points="1134.29,-514.385 1144.34,-511.057 1134.41,-507.386 1134.29,-514.385"/>
</g>
<!-- Node8 -->
<g id="node8" class="node"><title>Node8</title>
<g id="a_node8"><a xlink:href="../../da/d2a/DalitzFitApp_8cpp.html" target="_top" xlink:title="Dalitz plot analysis of the decay D0&#45;&gt;K_S0 K_ K&#45;Fit application for D0&#45;&gt;K_S0 K_ K&#45; analysis...">
<polygon fill="white" stroke="black" points="817,-84.5 817,-125.5 975,-125.5 975,-84.5 817,-84.5"/>
<text text-anchor="start" x="825" y="-113.5" font-family="Helvetica,sans-Serif" font-size="10.00">/home/travis/build</text>
<text text-anchor="start" x="825" y="-102.5" font-family="Helvetica,sans-Serif" font-size="10.00">/ComPWA/ComPWA/Examples</text>
<text text-anchor="middle" x="896" y="-91.5" font-family="Helvetica,sans-Serif" font-size="10.00">/DalitzFit/DalitzFitApp.cpp</text>
</a>
</g>
</g>
<!-- Node1&#45;&gt;Node8 -->
<g id="edge52" class="edge"><title>Node1&#45;&gt;Node8</title>
<path fill="none" stroke="midnightblue" d="M1133.94,-509.506C1045.68,-501.906 906.319,-474.318 845,-378 818.037,-335.647 869.092,-181.155 888.748,-125.855"/>
<polygon fill="midnightblue" stroke="midnightblue" points="1133.93,-513.016 1144.17,-510.317 1134.48,-506.038 1133.93,-513.016"/>
</g>
<!-- Node9 -->
<g id="node9" class="node"><title>Node9</title>
<g id="a_node9"><a xlink:href="../../d6/d0a/PythonFit_8cpp.html" target="_top" xlink:title="/home/travis/build\l/ComPWA/ComPWA/Examples\l/PythonDalitzFit/PythonFit.cpp">
<polygon fill="white" stroke="black" points="924,-0.5 924,-41.5 1082,-41.5 1082,-0.5 924,-0.5"/>
<text text-anchor="start" x="932" y="-29.5" font-family="Helvetica,sans-Serif" font-size="10.00">/home/travis/build</text>
<text text-anchor="start" x="932" y="-18.5" font-family="Helvetica,sans-Serif" font-size="10.00">/ComPWA/ComPWA/Examples</text>
<text text-anchor="middle" x="1003" y="-7.5" font-family="Helvetica,sans-Serif" font-size="10.00">/PythonDalitzFit/PythonFit.cpp</text>
</a>
</g>
</g>
<!-- Node1&#45;&gt;Node9 -->
<g id="edge55" class="edge"><title>Node1&#45;&gt;Node9</title>
<path fill="none" stroke="midnightblue" d="M1289.81,-510.766C1513.22,-506.8 2146.19,-492.443 2232,-456 2293.63,-429.826 2341,-418.958 2341,-352 2341,-352 2341,-352 2341,-188 2341,-60.3573 1369.62,-29.7163 1082.2,-23.4436"/>
<polygon fill="midnightblue" stroke="midnightblue" points="1289.74,-507.267 1279.8,-510.942 1289.86,-514.266 1289.74,-507.267"/>
</g>
<!-- Node10 -->
<g id="node10" class="node"><title>Node10</title>
<g id="a_node10"><a xlink:href="../../db/deb/PythonFit_8hpp.html" target="_top" xlink:title="This class provides a Manager for simple fits. ">
<polygon fill="white" stroke="red" points="427,-84.5 427,-125.5 585,-125.5 585,-84.5 427,-84.5"/>
<text text-anchor="start" x="435" y="-113.5" font-family="Helvetica,sans-Serif" font-size="10.00">/home/travis/build</text>
<text text-anchor="start" x="435" y="-102.5" font-family="Helvetica,sans-Serif" font-size="10.00">/ComPWA/ComPWA/Examples</text>
<text text-anchor="middle" x="506" y="-91.5" font-family="Helvetica,sans-Serif" font-size="10.00">/PythonDalitzFit/PythonFit.hpp</text>
</a>
</g>
</g>
<!-- Node1&#45;&gt;Node10 -->
<g id="edge56" class="edge"><title>Node1&#45;&gt;Node10</title>
<path fill="none" stroke="midnightblue" d="M1134.21,-511.982C932.827,-511.24 405.838,-504.624 345,-456 272.009,-397.663 288.171,-326.857 335,-246 366.824,-191.051 428.968,-148.637 468.93,-125.517"/>
<polygon fill="midnightblue" stroke="midnightblue" points="1134.41,-515.482 1144.42,-512.015 1134.43,-508.482 1134.41,-515.482"/>
</g>
<!-- Node11 -->
<g id="node11" class="node"><title>Node11</title>
<g id="a_node11"><a xlink:href="../../d6/d9a/SliceFitApp_8cpp.html" target="_top" xlink:title="/home/travis/build\l/ComPWA/ComPWA/Examples\l/SliceFit/SliceFitApp.cpp">
<polygon fill="white" stroke="black" points="1255,-84.5 1255,-125.5 1413,-125.5 1413,-84.5 1255,-84.5"/>
<text text-anchor="start" x="1263" y="-113.5" font-family="Helvetica,sans-Serif" font-size="10.00">/home/travis/build</text>
<text text-anchor="start" x="1263" y="-102.5" font-family="Helvetica,sans-Serif" font-size="10.00">/ComPWA/ComPWA/Examples</text>
<text text-anchor="middle" x="1334" y="-91.5" font-family="Helvetica,sans-Serif" font-size="10.00">/SliceFit/SliceFitApp.cpp</text>
</a>
</g>
</g>
<!-- Node1&#45;&gt;Node11 -->
<g id="edge57" class="edge"><title>Node1&#45;&gt;Node11</title>
<path fill="none" stroke="midnightblue" d="M1289.95,-510.26C1465.39,-505.756 1886.67,-491.49 2024,-456 2103.31,-435.502 2147.01,-447.103 2191,-378 2203.89,-357.755 2206.81,-342.057 2191,-324 2151.13,-278.457 1980.71,-297.941 1921,-288 1746.63,-258.97 1697.55,-269.21 1531,-210 1468.87,-187.913 1402.11,-149.114 1364.45,-125.662"/>
<polygon fill="midnightblue" stroke="midnightblue" points="1289.67,-506.766 1279.76,-510.518 1289.85,-513.764 1289.67,-506.766"/>
</g>
<!-- Node12 -->
<g id="node12" class="node"><title>Node12</title>
<g id="a_node12"><a xlink:href="../../d3/dbc/SliceFitRANDApp_8cpp.html" target="_top" xlink:title="/home/travis/build\l/ComPWA/ComPWA/Examples\l/SliceFit/SliceFitRANDApp.cpp">
<polygon fill="white" stroke="black" points="1431,-84.5 1431,-125.5 1589,-125.5 1589,-84.5 1431,-84.5"/>
<text text-anchor="start" x="1439" y="-113.5" font-family="Helvetica,sans-Serif" font-size="10.00">/home/travis/build</text>
<text text-anchor="start" x="1439" y="-102.5" font-family="Helvetica,sans-Serif" font-size="10.00">/ComPWA/ComPWA/Examples</text>
<text text-anchor="middle" x="1510" y="-91.5" font-family="Helvetica,sans-Serif" font-size="10.00">/SliceFit/SliceFitRANDApp.cpp</text>
</a>
</g>
</g>
<!-- Node1&#45;&gt;Node12 -->
<g id="edge58" class="edge"><title>Node1&#45;&gt;Node12</title>
<path fill="none" stroke="midnightblue" d="M1289.93,-512.757C1478.95,-513.694 1957.22,-510.435 2106,-456 2160.59,-436.026 2184.88,-429.937 2211,-378 2221.78,-356.558 2225.23,-343.327 2211,-324 2206.09,-317.333 1746.94,-177.752 1574.48,-125.509"/>
<polygon fill="midnightblue" stroke="midnightblue" points="1289.81,-509.256 1279.79,-512.701 1289.77,-516.256 1289.81,-509.256"/>
</g>
<!-- Node13 -->
<g id="node13" class="node"><title>Node13</title>
<g id="a_node13"><a xlink:href="../../d9/de4/SliceFitUBApp_8cpp.html" target="_top" xlink:title="/home/travis/build\l/ComPWA/ComPWA/Examples\l/SliceFit/SliceFitUBApp.cpp">
<polygon fill="white" stroke="black" points="1607,-84.5 1607,-125.5 1765,-125.5 1765,-84.5 1607,-84.5"/>
<text text-anchor="start" x="1615" y="-113.5" font-family="Helvetica,sans-Serif" font-size="10.00">/home/travis/build</text>
<text text-anchor="start" x="1615" y="-102.5" font-family="Helvetica,sans-Serif" font-size="10.00">/ComPWA/ComPWA/Examples</text>
<text text-anchor="middle" x="1686" y="-91.5" font-family="Helvetica,sans-Serif" font-size="10.00">/SliceFit/SliceFitUBApp.cpp</text>
</a>
</g>
</g>
<!-- Node1&#45;&gt;Node13 -->
<g id="edge59" class="edge"><title>Node1&#45;&gt;Node13</title>
<path fill="none" stroke="midnightblue" d="M1289.65,-509.938C1501.67,-503.953 2080.07,-485.133 2161,-456 2234.6,-429.504 2303,-430.227 2303,-352 2303,-352 2303,-352 2303,-266 2303,-156.1 1931.57,-120.42 1765.08,-109.947"/>
<polygon fill="midnightblue" stroke="midnightblue" points="1289.43,-506.442 1279.53,-510.221 1289.63,-513.44 1289.43,-506.442"/>
</g>
<!-- Node14 -->
<g id="node14" class="node"><title>Node14</title>
<g id="a_node14"><a xlink:href="../../d9/dab/CompareTreeAmpApp_8cpp.html" target="_top" xlink:title="/home/travis/build\l/ComPWA/ComPWA/executables\l/CompareTreeAmpApp.cpp">
<polygon fill="white" stroke="black" points="1070.5,-84.5 1070.5,-125.5 1237.5,-125.5 1237.5,-84.5 1070.5,-84.5"/>
<text text-anchor="start" x="1078.5" y="-113.5" font-family="Helvetica,sans-Serif" font-size="10.00">/home/travis/build</text>
<text text-anchor="start" x="1078.5" y="-102.5" font-family="Helvetica,sans-Serif" font-size="10.00">/ComPWA/ComPWA/executables</text>
<text text-anchor="middle" x="1154" y="-91.5" font-family="Helvetica,sans-Serif" font-size="10.00">/CompareTreeAmpApp.cpp</text>
</a>
</g>
</g>
<!-- Node1&#45;&gt;Node14 -->
<g id="edge62" class="edge"><title>Node1&#45;&gt;Node14</title>
<path fill="none" stroke="midnightblue" d="M1289.98,-509.156C1539.49,-498.702 2294.83,-455.882 2170,-324 2119.89,-271.065 1585.42,-306.804 1515,-288 1382.43,-252.6 1241.81,-165.126 1182.74,-125.759"/>
<polygon fill="midnightblue" stroke="midnightblue" points="1289.75,-505.663 1279.9,-509.572 1290.04,-512.657 1289.75,-505.663"/>
</g>
<!-- Node15 -->
<g id="node15" class="node"><title>Node15</title>
<g id="a_node15"><a xlink:href="../../df/d5a/TreeNode_8hpp.html" target="_top" xlink:title="This class acts as a container for a parameter in a function tree. ">
<polygon fill="white" stroke="red" points="372.5,-246.5 372.5,-287.5 507.5,-287.5 507.5,-246.5 372.5,-246.5"/>
<text text-anchor="start" x="380.5" y="-275.5" font-family="Helvetica,sans-Serif" font-size="10.00">/home/travis/build</text>
<text text-anchor="start" x="380.5" y="-264.5" font-family="Helvetica,sans-Serif" font-size="10.00">/ComPWA/ComPWA/Core</text>
<text text-anchor="middle" x="440" y="-253.5" font-family="Helvetica,sans-Serif" font-size="10.00">/TreeNode.hpp</text>
</a>
</g>
</g>
<!-- Node1&#45;&gt;Node15 -->
<g id="edge48" class="edge"><title>Node1&#45;&gt;Node15</title>
<path fill="none" stroke="midnightblue" d="M1134.08,-512.864C1009.82,-512.576 759.908,-505.159 555,-456 465.435,-434.513 414.432,-454.409 363,-378 349.598,-358.09 352.109,-345.387 363,-324 370.801,-308.681 384.971,-296.567 399.049,-287.581"/>
<polygon fill="midnightblue" stroke="midnightblue" points="1134.26,-516.364 1144.26,-512.872 1134.26,-509.364 1134.26,-516.364"/>
</g>
<!-- Node16 -->
<g id="node16" class="node"><title>Node16</title>
<g id="a_node16"><a xlink:href="../../df/d9f/ParameterList_8hpp.html" target="_top" xlink:title="This class provides a list of fit parameters which can have different types. ">
<polygon fill="white" stroke="red" points="1086.5,-414.5 1086.5,-455.5 1221.5,-455.5 1221.5,-414.5 1086.5,-414.5"/>
<text text-anchor="start" x="1094.5" y="-443.5" font-family="Helvetica,sans-Serif" font-size="10.00">/home/travis/build</text>
<text text-anchor="start" x="1094.5" y="-432.5" font-family="Helvetica,sans-Serif" font-size="10.00">/ComPWA/ComPWA/Core</text>
<text text-anchor="middle" x="1154" y="-421.5" font-family="Helvetica,sans-Serif" font-size="10.00">/ParameterList.hpp</text>
</a>
</g>
</g>
<!-- Node1&#45;&gt;Node16 -->
<g id="edge21" class="edge"><title>Node1&#45;&gt;Node16</title>
<path fill="none" stroke="midnightblue" d="M1190.89,-484.338C1183.59,-474.778 1175.58,-464.273 1168.89,-455.506"/>
<polygon fill="midnightblue" stroke="midnightblue" points="1188.21,-486.602 1197.06,-492.428 1193.78,-482.355 1188.21,-486.602"/>
</g>
<!-- Node17 -->
<g id="node17" class="node"><title>Node17</title>
<g id="a_node17"><a xlink:href="../../dc/d31/ParameterTest_8cpp.html" target="_top" xlink:title="/home/travis/build\l/ComPWA/ComPWA/Core\l/test/ParameterTest.cpp">
<polygon fill="white" stroke="black" points="1296.5,-330.5 1296.5,-371.5 1431.5,-371.5 1431.5,-330.5 1296.5,-330.5"/>
<text text-anchor="start" x="1304.5" y="-359.5" font-family="Helvetica,sans-Serif" font-size="10.00">/home/travis/build</text>
<text text-anchor="start" x="1304.5" y="-348.5" font-family="Helvetica,sans-Serif" font-size="10.00">/ComPWA/ComPWA/Core</text>
<text text-anchor="middle" x="1364" y="-337.5" font-family="Helvetica,sans-Serif" font-size="10.00">/test/ParameterTest.cpp</text>
</a>
</g>
</g>
<!-- Node1&#45;&gt;Node17 -->
<g id="edge46" class="edge"><title>Node1&#45;&gt;Node17</title>
<path fill="none" stroke="midnightblue" d="M1237.56,-485.098C1268,-453.058 1318.11,-400.3 1345.21,-371.78"/>
<polygon fill="midnightblue" stroke="midnightblue" points="1234.99,-482.72 1230.64,-492.381 1240.06,-487.541 1234.99,-482.72"/>
</g>
<!-- Node18 -->
<g id="node18" class="node"><title>Node18</title>
<g id="a_node18"><a xlink:href="../../d4/d31/EstimatorTestApp_8cpp.html" target="_top" xlink:title="Test&#45;Application of a simple &#160;estimator. ">
<polygon fill="white" stroke="black" points="1450,-330.5 1450,-371.5 1606,-371.5 1606,-330.5 1450,-330.5"/>
<text text-anchor="start" x="1458" y="-359.5" font-family="Helvetica,sans-Serif" font-size="10.00">/home/travis/build</text>
<text text-anchor="start" x="1458" y="-348.5" font-family="Helvetica,sans-Serif" font-size="10.00">/ComPWA/ComPWA/Estimator</text>
<text text-anchor="middle" x="1528" y="-337.5" font-family="Helvetica,sans-Serif" font-size="10.00">/test/EstimatorTestApp.cpp</text>
</a>
</g>
</g>
<!-- Node1&#45;&gt;Node18 -->
<g id="edge49" class="edge"><title>Node1&#45;&gt;Node18</title>
<path fill="none" stroke="midnightblue" d="M1260.05,-487.673C1322.87,-455.864 1431.69,-400.764 1489.43,-371.529"/>
<polygon fill="midnightblue" stroke="midnightblue" points="1258.09,-484.741 1250.75,-492.381 1261.25,-490.986 1258.09,-484.741"/>
</g>
<!-- Node19 -->
<g id="node19" class="node"><title>Node19</title>
<g id="a_node19"><a xlink:href="../../d2/d09/DalitzAnalysis__D0KsKK_2PlotData_8hpp.html" target="_top" xlink:title="/home/travis/build\l/ComPWA/ComPWA/Examples\l/DalitzAnalysis_D0KsKK\l/PlotData.hpp">
<polygon fill="white" stroke="red" points="526,-325 526,-377 684,-377 684,-325 526,-325"/>
<text text-anchor="start" x="534" y="-365" font-family="Helvetica,sans-Serif" font-size="10.00">/home/travis/build</text>
<text text-anchor="start" x="534" y="-354" font-family="Helvetica,sans-Serif" font-size="10.00">/ComPWA/ComPWA/Examples</text>
<text text-anchor="start" x="534" y="-343" font-family="Helvetica,sans-Serif" font-size="10.00">/DalitzAnalysis_D0KsKK</text>
<text text-anchor="middle" x="605" y="-332" font-family="Helvetica,sans-Serif" font-size="10.00">/PlotData.hpp</text>
</a>
</g>
</g>
<!-- Node1&#45;&gt;Node19 -->
<g id="edge51" class="edge"><title>Node1&#45;&gt;Node19</title>
<path fill="none" stroke="midnightblue" d="M1134.14,-508.01C1018.15,-501.198 806.106,-485.15 736,-456 693.099,-438.161 652.652,-401.996 628.35,-377.381"/>
<polygon fill="midnightblue" stroke="midnightblue" points="1134.19,-511.519 1144.37,-508.602 1134.59,-504.531 1134.19,-511.519"/>
</g>
<!-- Node20 -->
<g id="node20" class="node"><title>Node20</title>
<g id="a_node20"><a xlink:href="../../d1/d93/GenDalitzApp_8cpp.html" target="_top" xlink:title="Application to generate J/Psi &#45;&gt; g pi pi. ">
<polygon fill="white" stroke="black" points="2369,-330.5 2369,-371.5 2527,-371.5 2527,-330.5 2369,-330.5"/>
<text text-anchor="start" x="2377" y="-359.5" font-family="Helvetica,sans-Serif" font-size="10.00">/home/travis/build</text>
<text text-anchor="start" x="2377" y="-348.5" font-family="Helvetica,sans-Serif" font-size="10.00">/ComPWA/ComPWA/Examples</text>
<text text-anchor="middle" x="2448" y="-337.5" font-family="Helvetica,sans-Serif" font-size="10.00">/DalitzFit/GenDalitzApp.cpp</text>
</a>
</g>
</g>
<!-- Node1&#45;&gt;Node20 -->
<g id="edge53" class="edge"><title>Node1&#45;&gt;Node20</title>
<path fill="none" stroke="midnightblue" d="M1289.61,-511.647C1531.21,-510.073 2259.48,-501.56 2355,-456 2364.95,-451.255 2407.76,-400.692 2431.67,-371.857"/>
<polygon fill="midnightblue" stroke="midnightblue" points="1289.48,-508.148 1279.5,-511.711 1289.52,-515.148 1289.48,-508.148"/>
</g>
<!-- Node21 -->
<g id="node21" class="node"><title>Node21</title>
<g id="a_node21"><a xlink:href="../../d0/dc0/PythonDalitzFit_2PlotData_8hpp.html" target="_top" xlink:title="/home/travis/build\l/ComPWA/ComPWA/Examples\l/PythonDalitzFit/PlotData.hpp">
<polygon fill="white" stroke="red" points="854,-330.5 854,-371.5 1012,-371.5 1012,-330.5 854,-330.5"/>
<text text-anchor="start" x="862" y="-359.5" font-family="Helvetica,sans-Serif" font-size="10.00">/home/travis/build</text>
<text text-anchor="start" x="862" y="-348.5" font-family="Helvetica,sans-Serif" font-size="10.00">/ComPWA/ComPWA/Examples</text>
<text text-anchor="middle" x="933" y="-337.5" font-family="Helvetica,sans-Serif" font-size="10.00">/PythonDalitzFit/PlotData.hpp</text>
</a>
</g>
</g>
<!-- Node1&#45;&gt;Node21 -->
<g id="edge54" class="edge"><title>Node1&#45;&gt;Node21</title>
<path fill="none" stroke="midnightblue" d="M1147.21,-488.674C1124.47,-479.568 1099.1,-468.342 1077,-456 1032.04,-430.888 984.457,-394.282 956.809,-371.864"/>
<polygon fill="midnightblue" stroke="midnightblue" points="1146.19,-492.034 1156.78,-492.444 1148.76,-485.521 1146.19,-492.034"/>
</g>
<!-- Node22 -->
<g id="node22" class="node"><title>Node22</title>
<g id="a_node22"><a xlink:href="../../d3/d54/AmpPlotterApp_8cpp.html" target="_top" xlink:title="Plotting Tool for Physics&#45;IF amplitudes. ">
<polygon fill="white" stroke="black" points="1624.5,-330.5 1624.5,-371.5 1791.5,-371.5 1791.5,-330.5 1624.5,-330.5"/>
<text text-anchor="start" x="1632.5" y="-359.5" font-family="Helvetica,sans-Serif" font-size="10.00">/home/travis/build</text>
<text text-anchor="start" x="1632.5" y="-348.5" font-family="Helvetica,sans-Serif" font-size="10.00">/ComPWA/ComPWA/executables</text>
<text text-anchor="middle" x="1708" y="-337.5" font-family="Helvetica,sans-Serif" font-size="10.00">/AmpPlotter/AmpPlotterApp.cpp</text>
</a>
</g>
</g>
<!-- Node1&#45;&gt;Node22 -->
<g id="edge60" class="edge"><title>Node1&#45;&gt;Node22</title>
<path fill="none" stroke="midnightblue" d="M1282.61,-489.221C1380.39,-457.681 1555.34,-401.245 1647.46,-371.529"/>
<polygon fill="midnightblue" stroke="midnightblue" points="1281.26,-485.98 1272.82,-492.381 1283.41,-492.642 1281.26,-485.98"/>
</g>
<!-- Node23 -->
<g id="node23" class="node"><title>Node23</title>
<g id="a_node23"><a xlink:href="../../de/dbe/BlackScholesApp_8cpp.html" target="_top" xlink:title="Test&#45;Application for Black&#45;Scholes stock model. ">
<polygon fill="white" stroke="black" points="1809.5,-330.5 1809.5,-371.5 1976.5,-371.5 1976.5,-330.5 1809.5,-330.5"/>
<text text-anchor="start" x="1817.5" y="-359.5" font-family="Helvetica,sans-Serif" font-size="10.00">/home/travis/build</text>
<text text-anchor="start" x="1817.5" y="-348.5" font-family="Helvetica,sans-Serif" font-size="10.00">/ComPWA/ComPWA/executables</text>
<text text-anchor="middle" x="1893" y="-337.5" font-family="Helvetica,sans-Serif" font-size="10.00">/BlackScholesApp.cpp</text>
</a>
</g>
</g>
<!-- Node1&#45;&gt;Node23 -->
<g id="edge61" class="edge"><title>Node1&#45;&gt;Node23</title>
<path fill="none" stroke="midnightblue" d="M1289.65,-495.598C1402.45,-471.481 1618.03,-424.283 1800,-378 1807.96,-375.975 1816.28,-373.773 1824.53,-371.535"/>
<polygon fill="midnightblue" stroke="midnightblue" points="1288.77,-492.207 1279.73,-497.718 1290.24,-499.053 1288.77,-492.207"/>
</g>
<!-- Node24 -->
<g id="node24" class="node"><title>Node24</title>
<g id="a_node24"><a xlink:href="../../db/d19/GenRunManagerApp_8cpp.html" target="_top" xlink:title="/home/travis/build\l/ComPWA/ComPWA/executables\l/GenRunManagerApp.cpp">
<polygon fill="white" stroke="black" points="1994.5,-330.5 1994.5,-371.5 2161.5,-371.5 2161.5,-330.5 1994.5,-330.5"/>
<text text-anchor="start" x="2002.5" y="-359.5" font-family="Helvetica,sans-Serif" font-size="10.00">/home/travis/build</text>
<text text-anchor="start" x="2002.5" y="-348.5" font-family="Helvetica,sans-Serif" font-size="10.00">/ComPWA/ComPWA/executables</text>
<text text-anchor="middle" x="2078" y="-337.5" font-family="Helvetica,sans-Serif" font-size="10.00">/GenRunManagerApp.cpp</text>
</a>
</g>
</g>
<!-- Node1&#45;&gt;Node24 -->
<g id="edge63" class="edge"><title>Node1&#45;&gt;Node24</title>
<path fill="none" stroke="midnightblue" d="M1289.95,-501.565C1430.07,-482.125 1733.36,-436.94 1985,-378 1993.32,-376.05 2002.02,-373.845 2010.62,-371.564"/>
<polygon fill="midnightblue" stroke="midnightblue" points="1289.17,-498.139 1279.74,-502.975 1290.13,-505.074 1289.17,-498.139"/>
</g>
<!-- Node25 -->
<g id="node25" class="node"><title>Node25</title>
<g id="a_node25"><a xlink:href="../../d8/d35/PhysConst_8hpp.html" target="_top" xlink:title="PhysConst provides particle information to the framework. ">
<polygon fill="white" stroke="red" points="2407.5,-414.5 2407.5,-455.5 2542.5,-455.5 2542.5,-414.5 2407.5,-414.5"/>
<text text-anchor="start" x="2415.5" y="-443.5" font-family="Helvetica,sans-Serif" font-size="10.00">/home/travis/build</text>
<text text-anchor="start" x="2415.5" y="-432.5" font-family="Helvetica,sans-Serif" font-size="10.00">/ComPWA/ComPWA/Core</text>
<text text-anchor="middle" x="2475" y="-421.5" font-family="Helvetica,sans-Serif" font-size="10.00">/PhysConst.hpp</text>
</a>
</g>
</g>
<!-- Node1&#45;&gt;Node25 -->
<g id="edge44" class="edge"><title>Node1&#45;&gt;Node25</title>
<path fill="none" stroke="midnightblue" d="M1289.95,-510.256C1517.63,-504.854 2179.03,-486.875 2393,-456 2397.64,-455.33 2402.4,-454.516 2407.18,-453.602"/>
<polygon fill="midnightblue" stroke="midnightblue" points="1289.68,-506.762 1279.76,-510.497 1289.84,-513.76 1289.68,-506.762"/>
</g>
<!-- Node3&#45;&gt;Node2 -->
<g id="edge3" class="edge"><title>Node3&#45;&gt;Node2</title>
<path fill="none" stroke="midnightblue" d="M128.915,-320.217C127.065,-309.379 125.021,-297.409 123.358,-287.667"/>
<polygon fill="midnightblue" stroke="midnightblue" points="125.478,-320.882 130.611,-330.15 132.378,-319.704 125.478,-320.882"/>
</g>
<!-- Node4&#45;&gt;Node5 -->
<g id="edge5" class="edge"><title>Node4&#45;&gt;Node5</title>
<path fill="none" stroke="midnightblue" d="M491.314,-326.064C559.371,-294.317 678.204,-238.884 741.134,-209.529"/>
<polygon fill="midnightblue" stroke="midnightblue" points="489.641,-322.982 482.059,-330.381 492.601,-329.325 489.641,-322.982"/>
</g>
<!-- Node4&#45;&gt;Node6 -->
<g id="edge16" class="edge"><title>Node4&#45;&gt;Node6</title>
<path fill="none" stroke="midnightblue" d="M403.841,-324.262C390.3,-313.783 375.245,-301.068 363,-288 312.947,-234.584 266.858,-160.523 246.292,-125.65"/>
<polygon fill="midnightblue" stroke="midnightblue" points="401.955,-327.225 412.037,-330.481 406.186,-321.648 401.955,-327.225"/>
</g>
<!-- Node4&#45;&gt;Node15 -->
<g id="edge17" class="edge"><title>Node4&#45;&gt;Node15</title>
<path fill="none" stroke="midnightblue" d="M440,-319.881C440,-309.133 440,-297.309 440,-287.667"/>
<polygon fill="midnightblue" stroke="midnightblue" points="436.5,-320.15 440,-330.15 443.5,-320.15 436.5,-320.15"/>
</g>
<!-- Node5&#45;&gt;Node6 -->
<g id="edge6" class="edge"><title>Node5&#45;&gt;Node6</title>
<path fill="none" stroke="midnightblue" d="M705.098,-176.343C597.343,-160.219 404.587,-131.376 302.59,-116.114"/>
<polygon fill="midnightblue" stroke="midnightblue" points="704.847,-179.844 715.255,-177.863 705.883,-172.922 704.847,-179.844"/>
</g>
<!-- Node5&#45;&gt;Node7 -->
<g id="edge7" class="edge"><title>Node5&#45;&gt;Node7</title>
<path fill="none" stroke="midnightblue" d="M750.72,-161.793C738.605,-151.957 724.874,-140.809 712.889,-131.078"/>
<polygon fill="midnightblue" stroke="midnightblue" points="748.838,-164.773 758.808,-168.359 753.251,-159.339 748.838,-164.773"/>
</g>
<!-- Node5&#45;&gt;Node8 -->
<g id="edge8" class="edge"><title>Node5&#45;&gt;Node8</title>
<path fill="none" stroke="midnightblue" d="M818.296,-162.387C834.579,-150.571 853.61,-136.761 868.763,-125.765"/>
<polygon fill="midnightblue" stroke="midnightblue" points="816.104,-159.653 810.066,-168.359 820.216,-165.318 816.104,-159.653"/>
</g>
<!-- Node5&#45;&gt;Node9 -->
<g id="edge9" class="edge"><title>Node5&#45;&gt;Node9</title>
<path fill="none" stroke="midnightblue" d="M781.932,-157.935C782.717,-133.366 787.842,-99.3229 808,-78 837.762,-46.5172 883.94,-32.3598 923.889,-26.147"/>
<polygon fill="midnightblue" stroke="midnightblue" points="778.43,-158.116 781.834,-168.149 785.43,-158.183 778.43,-158.116"/>
</g>
<!-- Node5&#45;&gt;Node10 -->
<g id="edge10" class="edge"><title>Node5&#45;&gt;Node10</title>
<path fill="none" stroke="midnightblue" d="M707.297,-165.59C664.94,-153.051 612.643,-137.569 571.97,-125.529"/>
<polygon fill="midnightblue" stroke="midnightblue" points="706.421,-168.981 717.004,-168.463 708.408,-162.269 706.421,-168.981"/>
</g>
<!-- Node5&#45;&gt;Node11 -->
<g id="edge12" class="edge"><title>Node5&#45;&gt;Node11</title>
<path fill="none" stroke="midnightblue" d="M860.781,-182.579C953.296,-175.216 1112.06,-159.684 1246,-132 1254.74,-130.194 1263.86,-127.934 1272.79,-125.505"/>
<polygon fill="midnightblue" stroke="midnightblue" points="860.356,-179.101 850.661,-183.373 860.904,-186.08 860.356,-179.101"/>
</g>
<!-- Node5&#45;&gt;Node12 -->
<g id="edge13" class="edge"><title>Node5&#45;&gt;Node12</title>
<path fill="none" stroke="midnightblue" d="M860.909,-186.088C981.785,-182.019 1221.38,-169.54 1421,-132 1430.18,-130.274 1439.76,-127.996 1449.1,-125.504"/>
<polygon fill="midnightblue" stroke="midnightblue" points="860.527,-182.599 850.647,-186.423 860.755,-189.595 860.527,-182.599"/>
</g>
<!-- Node5&#45;&gt;Node13 -->
<g id="edge14" class="edge"><title>Node5&#45;&gt;Node13</title>
<path fill="none" stroke="midnightblue" d="M860.779,-188.197C1006.43,-187.344 1329.74,-179.656 1597,-132 1606.35,-130.333 1616.12,-128.053 1625.61,-125.532"/>
<polygon fill="midnightblue" stroke="midnightblue" points="860.585,-184.698 850.603,-188.247 860.62,-191.698 860.585,-184.698"/>
</g>
<!-- Node5&#45;&gt;Node14 -->
<g id="edge15" class="edge"><title>Node5&#45;&gt;Node14</title>
<path fill="none" stroke="midnightblue" d="M860.627,-170.843C921.959,-157.287 1007.4,-138.401 1070.27,-124.507"/>
<polygon fill="midnightblue" stroke="midnightblue" points="859.625,-167.48 850.616,-173.055 861.135,-174.315 859.625,-167.48"/>
</g>
<!-- Node10&#45;&gt;Node9 -->
<g id="edge11" class="edge"><title>Node10&#45;&gt;Node9</title>
<path fill="none" stroke="midnightblue" d="M577.628,-81.8674C583.143,-80.4609 588.646,-79.1505 594,-78 707.513,-53.6064 841.146,-37.6607 923.978,-29.2394"/>
<polygon fill="midnightblue" stroke="midnightblue" points="576.489,-78.5481 567.717,-84.4892 578.28,-85.3154 576.489,-78.5481"/>
</g>
<!-- Node15&#45;&gt;Node5 -->
<g id="edge18" class="edge"><title>Node15&#45;&gt;Node5</title>
<path fill="none" stroke="midnightblue" d="M517.867,-248.747C577.375,-235.561 658.571,-217.57 715.375,-204.984"/>
<polygon fill="midnightblue" stroke="midnightblue" points="516.772,-245.404 507.766,-250.985 518.286,-252.239 516.772,-245.404"/>
</g>
<!-- Node15&#45;&gt;Node6 -->
<g id="edge19" class="edge"><title>Node15&#45;&gt;Node6</title>
<path fill="none" stroke="midnightblue" d="M406.799,-240.087C365.765,-208.061 296.864,-154.284 260.022,-125.529"/>
<polygon fill="midnightblue" stroke="midnightblue" points="404.826,-242.987 414.863,-246.381 409.133,-237.469 404.826,-242.987"/>
</g>
<!-- Node16&#45;&gt;Node2 -->
<g id="edge22" class="edge"><title>Node16&#45;&gt;Node2</title>
<path fill="none" stroke="midnightblue" d="M1075.95,-431.976C903.835,-426.944 496.406,-411.763 363,-378 283.988,-358.003 198.762,-313.51 153.212,-287.654"/>
<polygon fill="midnightblue" stroke="midnightblue" points="1076.1,-435.482 1086.2,-432.272 1076.3,-428.484 1076.1,-435.482"/>
</g>
<!-- Node16&#45;&gt;Node3 -->
<g id="edge23" class="edge"><title>Node16&#45;&gt;Node3</title>
<path fill="none" stroke="midnightblue" d="M1076.02,-433.108C919.458,-430.445 556.035,-419.872 254,-378 236.897,-375.629 218.603,-372.155 201.585,-368.514"/>
<polygon fill="midnightblue" stroke="midnightblue" points="1076.42,-436.615 1086.48,-433.279 1076.54,-429.616 1076.42,-436.615"/>
</g>
<!-- Node16&#45;&gt;Node4 -->
<g id="edge24" class="edge"><title>Node16&#45;&gt;Node4</title>
<path fill="none" stroke="midnightblue" d="M1076.01,-433.091C955.057,-430.353 715.485,-419.614 517,-378 508.991,-376.321 500.658,-374.068 492.56,-371.587"/>
<polygon fill="midnightblue" stroke="midnightblue" points="1076.21,-436.596 1086.28,-433.311 1076.36,-429.598 1076.21,-436.596"/>
</g>
<!-- Node16&#45;&gt;Node7 -->
<g id="edge28" class="edge"><title>Node16&#45;&gt;Node7</title>
<path fill="none" stroke="midnightblue" d="M1117.5,-408.407C1104.76,-399.135 1090.52,-388.385 1078,-378 1050.89,-355.517 1049.47,-343.281 1020,-324 947.037,-276.27 922.322,-274.721 840,-246 781.775,-225.686 748.821,-254.376 706,-210 685.799,-189.065 681.349,-154.692 680.928,-131.238"/>
<polygon fill="midnightblue" stroke="midnightblue" points="1115.46,-411.254 1125.62,-414.267 1119.56,-405.577 1115.46,-411.254"/>
</g>
<!-- Node16&#45;&gt;Node8 -->
<g id="edge31" class="edge"><title>Node16&#45;&gt;Node8</title>
<path fill="none" stroke="midnightblue" d="M1124.96,-407.112C1116.74,-398.414 1108.31,-388.332 1102,-378 1069.45,-324.735 1089.11,-297.618 1054,-246 1019.06,-194.633 961.126,-149.913 925.961,-125.556"/>
<polygon fill="midnightblue" stroke="midnightblue" points="1122.58,-409.681 1132.08,-414.371 1127.57,-404.78 1122.58,-409.681"/>
</g>
<!-- Node16&#45;&gt;Node9 -->
<g id="edge35" class="edge"><title>Node16&#45;&gt;Node9</title>
<path fill="none" stroke="midnightblue" d="M1143.22,-404.575C1114.13,-325.221 1034.64,-108.317 1010.23,-41.7144"/>
<polygon fill="midnightblue" stroke="midnightblue" points="1140.09,-406.221 1146.82,-414.406 1146.66,-403.812 1140.09,-406.221"/>
</g>
<!-- Node16&#45;&gt;Node10 -->
<g id="edge36" class="edge"><title>Node16&#45;&gt;Node10</title>
<path fill="none" stroke="midnightblue" d="M1076.26,-430.517C1011.79,-425.187 919.047,-411.756 845,-378 808.611,-361.411 600.008,-185.762 529.376,-125.873"/>
<polygon fill="midnightblue" stroke="midnightblue" points="1076.12,-434.017 1086.36,-431.305 1076.66,-427.038 1076.12,-434.017"/>
</g>
<!-- Node16&#45;&gt;Node11 -->
<g id="edge37" class="edge"><title>Node16&#45;&gt;Node11</title>
<path fill="none" stroke="midnightblue" d="M1169.61,-405.554C1205.36,-340.406 1292.45,-181.705 1323.11,-125.848"/>
<polygon fill="midnightblue" stroke="midnightblue" points="1166.46,-404.014 1164.72,-414.464 1172.6,-407.382 1166.46,-404.014"/>
</g>
<!-- Node16&#45;&gt;Node12 -->
<g id="edge38" class="edge"><title>Node16&#45;&gt;Node12</title>
<path fill="none" stroke="midnightblue" d="M1183.89,-407.405C1193.51,-398.385 1204,-388.044 1213,-378 1233.11,-355.554 1233.3,-345.896 1254,-324 1330.4,-243.195 1434.86,-161.934 1483.3,-125.641"/>
<polygon fill="midnightblue" stroke="midnightblue" points="1181.37,-404.966 1176.41,-414.325 1186.12,-410.106 1181.37,-404.966"/>
</g>
<!-- Node16&#45;&gt;Node13 -->
<g id="edge39" class="edge"><title>Node16&#45;&gt;Node13</title>
<path fill="none" stroke="midnightblue" d="M1203.65,-409.486C1218.79,-400.725 1234.88,-390.009 1248,-378 1269.84,-358.009 1264.8,-343.581 1287,-324 1395.49,-228.329 1553.11,-157.922 1633.93,-125.631"/>
<polygon fill="midnightblue" stroke="midnightblue" points="1201.88,-406.466 1194.87,-414.414 1205.3,-412.569 1201.88,-406.466"/>
</g>
<!-- Node16&#45;&gt;Node14 -->
<g id="edge42" class="edge"><title>Node16&#45;&gt;Node14</title>
<path fill="none" stroke="midnightblue" d="M1154,-404.342C1154,-338.458 1154,-181.362 1154,-125.848"/>
<polygon fill="midnightblue" stroke="midnightblue" points="1150.5,-404.464 1154,-414.464 1157.5,-404.464 1150.5,-404.464"/>
</g>
<!-- Node16&#45;&gt;Node15 -->
<g id="edge26" class="edge"><title>Node16&#45;&gt;Node15</title>
<path fill="none" stroke="midnightblue" d="M1076.22,-427.096C1006.04,-419.501 900.54,-404.67 812,-378 756.001,-361.132 747.502,-342.44 692,-324 630.861,-303.688 558.926,-288.53 507.598,-279.142"/>
<polygon fill="midnightblue" stroke="midnightblue" points="1075.99,-430.592 1086.31,-428.164 1076.73,-423.631 1075.99,-430.592"/>
</g>
<!-- Node16&#45;&gt;Node17 -->
<g id="edge25" class="edge"><title>Node16&#45;&gt;Node17</title>
<path fill="none" stroke="midnightblue" d="M1213.64,-410.714C1245.34,-398.336 1283.87,-383.29 1313.99,-371.529"/>
<polygon fill="midnightblue" stroke="midnightblue" points="1212.08,-407.566 1204.03,-414.463 1214.62,-414.086 1212.08,-407.566"/>
</g>
<!-- Node16&#45;&gt;Node18 -->
<g id="edge27" class="edge"><title>Node16&#45;&gt;Node18</title>
<path fill="none" stroke="midnightblue" d="M1231.86,-420.794C1289.62,-410.506 1370.11,-395.126 1440,-378 1447.89,-376.066 1456.13,-373.871 1464.27,-371.595"/>
<polygon fill="midnightblue" stroke="midnightblue" points="1230.95,-417.402 1221.71,-422.592 1232.17,-424.294 1230.95,-417.402"/>
</g>
<!-- Node16&#45;&gt;Node19 -->
<g id="edge29" class="edge"><title>Node16&#45;&gt;Node19</title>
<path fill="none" stroke="midnightblue" d="M1076.29,-428.041C985.078,-420.222 829.549,-404.311 698,-378 693.479,-377.096 688.856,-376.086 684.206,-375.003"/>
<polygon fill="midnightblue" stroke="midnightblue" points="1076.01,-431.53 1086.27,-428.887 1076.61,-424.555 1076.01,-431.53"/>
</g>
<!-- Node16&#45;&gt;Node20 -->
<g id="edge32" class="edge"><title>Node16&#45;&gt;Node20</title>
<path fill="none" stroke="midnightblue" d="M1231.64,-430.733C1401.77,-423.353 1820.18,-403.99 2170,-378 2237.19,-373.008 2313.38,-365.772 2368.98,-360.2"/>
<polygon fill="midnightblue" stroke="midnightblue" points="1231.37,-427.242 1221.53,-431.171 1231.67,-434.235 1231.37,-427.242"/>
</g>
<!-- Node16&#45;&gt;Node21 -->
<g id="edge33" class="edge"><title>Node16&#45;&gt;Node21</title>
<path fill="none" stroke="midnightblue" d="M1091.67,-410.874C1058.23,-398.465 1017.47,-383.341 985.633,-371.529"/>
<polygon fill="midnightblue" stroke="midnightblue" points="1090.75,-414.266 1101.35,-414.463 1093.19,-407.703 1090.75,-414.266"/>
</g>
<!-- Node16&#45;&gt;Node22 -->
<g id="edge40" class="edge"><title>Node16&#45;&gt;Node22</title>
<path fill="none" stroke="midnightblue" d="M1231.77,-428.177C1323.88,-420.448 1481.63,-404.584 1615,-378 1624.13,-376.181 1633.66,-373.929 1643.01,-371.517"/>
<polygon fill="midnightblue" stroke="midnightblue" points="1231.37,-424.698 1221.69,-429.012 1231.95,-431.674 1231.37,-424.698"/>
</g>
<!-- Node16&#45;&gt;Node23 -->
<g id="edge41" class="edge"><title>Node16&#45;&gt;Node23</title>
<path fill="none" stroke="midnightblue" d="M1231.86,-431.922C1353.86,-427.62 1597.12,-414.821 1800,-378 1809.48,-376.279 1819.4,-374.019 1829.08,-371.549"/>
<polygon fill="midnightblue" stroke="midnightblue" points="1231.38,-428.436 1221.5,-432.277 1231.62,-435.432 1231.38,-428.436"/>
</g>
<!-- Node16&#45;&gt;Node24 -->
<g id="edge43" class="edge"><title>Node16&#45;&gt;Node24</title>
<path fill="none" stroke="midnightblue" d="M1231.94,-434.059C1379.85,-433 1711,-425.019 1985,-378 1994.75,-376.327 2004.94,-374.044 2014.86,-371.522"/>
<polygon fill="midnightblue" stroke="midnightblue" points="1231.58,-430.561 1221.61,-434.123 1231.63,-437.56 1231.58,-430.561"/>
</g>
<!-- Node19&#45;&gt;Node7 -->
<g id="edge30" class="edge"><title>Node19&#45;&gt;Node7</title>
<path fill="none" stroke="midnightblue" d="M616.011,-315.108C631.746,-265.247 660.284,-174.815 674.093,-131.056"/>
<polygon fill="midnightblue" stroke="midnightblue" points="612.622,-314.217 612.95,-324.807 619.298,-316.324 612.622,-314.217"/>
</g>
<!-- Node21&#45;&gt;Node9 -->
<g id="edge34" class="edge"><title>Node21&#45;&gt;Node9</title>
<path fill="none" stroke="midnightblue" d="M940.236,-320.419C950.366,-278.581 969.095,-199.673 983,-132 989.485,-100.438 995.969,-63.5563 999.727,-41.5246"/>
<polygon fill="midnightblue" stroke="midnightblue" points="936.812,-319.684 937.853,-330.228 943.615,-321.336 936.812,-319.684"/>
</g>
<!-- Node25&#45;&gt;Node20 -->
<g id="edge45" class="edge"><title>Node25&#45;&gt;Node20</title>
<path fill="none" stroke="midnightblue" d="M2465.3,-404.551C2461.71,-393.626 2457.72,-381.51 2454.48,-371.667"/>
<polygon fill="midnightblue" stroke="midnightblue" points="2462.01,-405.746 2468.46,-414.15 2468.66,-403.557 2462.01,-405.746"/>
</g>
</g>
</svg>
