<?xml version="1.0" encoding="UTF-8" standalone="no"?>
<!DOCTYPE svg PUBLIC "-//W3C//DTD SVG 1.1//EN"
 "http://www.w3.org/Graphics/SVG/1.1/DTD/svg11.dtd">
<!-- Generated by graphviz version 2.36.0 (20140111.2315)
 -->
<!-- Title: /home/travis/build/ComPWA/ComPWA/Physics/HelicityFormalism/RelativisticBreitWigner.hpp Pages: 1 -->
<svg width="699pt" height="332pt"
 viewBox="0.00 0.00 699.00 332.00" xmlns="http://www.w3.org/2000/svg" xmlns:xlink="http://www.w3.org/1999/xlink">
<g id="graph0" class="graph" transform="scale(1 1) rotate(0) translate(4 328)">
<title>/home/travis/build/ComPWA/ComPWA/Physics/HelicityFormalism/RelativisticBreitWigner.hpp</title>
<polygon fill="white" stroke="none" points="-4,4 -4,-328 695,-328 695,4 -4,4"/>
<!-- Node1 -->
<g id="node1" class="node"><title>Node1</title>
<polygon fill="#bfbfbf" stroke="black" points="194,-271 194,-323 344,-323 344,-271 194,-271"/>
<text text-anchor="start" x="202" y="-311" font-family="Helvetica,sans-Serif" font-size="10.00">/home/travis/build</text>
<text text-anchor="start" x="202" y="-300" font-family="Helvetica,sans-Serif" font-size="10.00">/ComPWA/ComPWA/Physics</text>
<text text-anchor="start" x="202" y="-289" font-family="Helvetica,sans-Serif" font-size="10.00">/HelicityFormalism/Relativistic</text>
<text text-anchor="middle" x="269" y="-278" font-family="Helvetica,sans-Serif" font-size="10.00">BreitWigner.hpp</text>
</g>
<!-- Node2 -->
<g id="node2" class="node"><title>Node2</title>
<g id="a_node2"><a xlink:href="../../df/d53/PartialDecay_8cpp.html" target="_top" xlink:title="/home/travis/build\l/ComPWA/ComPWA/Physics\l/HelicityFormalism/PartialDecay.cpp">
<polygon fill="white" stroke="black" points="0,-186.5 0,-227.5 176,-227.5 176,-186.5 0,-186.5"/>
<text text-anchor="start" x="8" y="-215.5" font-family="Helvetica,sans-Serif" font-size="10.00">/home/travis/build</text>
<text text-anchor="start" x="8" y="-204.5" font-family="Helvetica,sans-Serif" font-size="10.00">/ComPWA/ComPWA/Physics</text>
<text text-anchor="middle" x="88" y="-193.5" font-family="Helvetica,sans-Serif" font-size="10.00">/HelicityFormalism/PartialDecay.cpp</text>
</a>
</g>
</g>
<!-- Node1&#45;&gt;Node2 -->
<g id="edge1" class="edge"><title>Node1&#45;&gt;Node2</title>
<path fill="none" stroke="midnightblue" d="M208.02,-266.352C181.769,-253.589 151.797,-239.018 128.372,-227.628"/>
<polygon fill="midnightblue" stroke="midnightblue" points="206.609,-269.558 217.133,-270.783 209.67,-263.262 206.609,-269.558"/>
</g>
<!-- Node3 -->
<g id="node3" class="node"><title>Node3</title>
<g id="a_node3"><a xlink:href="../../d3/d67/RelativisticBreitWigner_8cpp.html" target="_top" xlink:title="/home/travis/build\l/ComPWA/ComPWA/Physics\l/HelicityFormalism/Relativistic\lBreitWigner.cpp">
<polygon fill="white" stroke="black" points="194,-181 194,-233 344,-233 344,-181 194,-181"/>
<text text-anchor="start" x="202" y="-221" font-family="Helvetica,sans-Serif" font-size="10.00">/home/travis/build</text>
<text text-anchor="start" x="202" y="-210" font-family="Helvetica,sans-Serif" font-size="10.00">/ComPWA/ComPWA/Physics</text>
<text text-anchor="start" x="202" y="-199" font-family="Helvetica,sans-Serif" font-size="10.00">/HelicityFormalism/Relativistic</text>
<text text-anchor="middle" x="269" y="-188" font-family="Helvetica,sans-Serif" font-size="10.00">BreitWigner.cpp</text>
</a>
</g>
</g>
<!-- Node1&#45;&gt;Node3 -->
<g id="edge2" class="edge"><title>Node1&#45;&gt;Node3</title>
<path fill="none" stroke="midnightblue" d="M269,-260.489C269,-251.309 269,-241.616 269,-233.092"/>
<polygon fill="midnightblue" stroke="midnightblue" points="265.5,-260.547 269,-270.547 272.5,-260.547 265.5,-260.547"/>
</g>
<!-- Node4 -->
<g id="node4" class="node"><title>Node4</title>
<g id="a_node4"><a xlink:href="../../d3/d1f/HelicityFormalism_8hpp.html" target="_top" xlink:title="/home/travis/build\l/ComPWA/ComPWA/Physics\l/HelicityFormalism.hpp">
<polygon fill="white" stroke="black" points="361.5,-186.5 361.5,-227.5 510.5,-227.5 510.5,-186.5 361.5,-186.5"/>
<text text-anchor="start" x="369.5" y="-215.5" font-family="Helvetica,sans-Serif" font-size="10.00">/home/travis/build</text>
<text text-anchor="start" x="369.5" y="-204.5" font-family="Helvetica,sans-Serif" font-size="10.00">/ComPWA/ComPWA/Physics</text>
<text text-anchor="middle" x="436" y="-193.5" font-family="Helvetica,sans-Serif" font-size="10.00">/HelicityFormalism.hpp</text>
</a>
</g>
</g>
<!-- Node1&#45;&gt;Node4 -->
<g id="edge3" class="edge"><title>Node1&#45;&gt;Node4</title>
<path fill="none" stroke="midnightblue" d="M325.899,-266.017C349.966,-253.335 377.326,-238.918 398.751,-227.628"/>
<polygon fill="midnightblue" stroke="midnightblue" points="324.071,-263.024 316.855,-270.783 327.334,-269.217 324.071,-263.024"/>
</g>
<!-- Node5 -->
<g id="node5" class="node"><title>Node5</title>
<g id="a_node5"><a xlink:href="../../db/d7b/DalitzFitD03K_8cpp.html" target="_top" xlink:title="/home/travis/build\l/ComPWA/ComPWA/Examples\l/DalitzAnalysis_D0KsKK\l/DalitzFitD03K.cpp">
<polygon fill="white" stroke="black" points="269,-91 269,-143 427,-143 427,-91 269,-91"/>
<text text-anchor="start" x="277" y="-131" font-family="Helvetica,sans-Serif" font-size="10.00">/home/travis/build</text>
<text text-anchor="start" x="277" y="-120" font-family="Helvetica,sans-Serif" font-size="10.00">/ComPWA/ComPWA/Examples</text>
<text text-anchor="start" x="277" y="-109" font-family="Helvetica,sans-Serif" font-size="10.00">/DalitzAnalysis_D0KsKK</text>
<text text-anchor="middle" x="348" y="-98" font-family="Helvetica,sans-Serif" font-size="10.00">/DalitzFitD03K.cpp</text>
</a>
</g>
</g>
<!-- Node4&#45;&gt;Node5 -->
<g id="edge4" class="edge"><title>Node4&#45;&gt;Node5</title>
<path fill="none" stroke="midnightblue" d="M409.242,-179.242C397.775,-167.775 384.451,-154.451 373.166,-143.166"/>
<polygon fill="midnightblue" stroke="midnightblue" points="406.924,-181.874 416.47,-186.47 411.874,-176.924 406.924,-181.874"/>
</g>
<!-- Node6 -->
<g id="node6" class="node"><title>Node6</title>
<g id="a_node6"><a xlink:href="../../db/deb/PythonFit_8hpp.html" target="_top" xlink:title="This class provides a Manager for simple fits. ">
<polygon fill="white" stroke="black" points="445,-96.5 445,-137.5 603,-137.5 603,-96.5 445,-96.5"/>
<text text-anchor="start" x="453" y="-125.5" font-family="Helvetica,sans-Serif" font-size="10.00">/home/travis/build</text>
<text text-anchor="start" x="453" y="-114.5" font-family="Helvetica,sans-Serif" font-size="10.00">/ComPWA/ComPWA/Examples</text>
<text text-anchor="middle" x="524" y="-103.5" font-family="Helvetica,sans-Serif" font-size="10.00">/PythonDalitzFit/PythonFit.hpp</text>
</a>
</g>
</g>
<!-- Node4&#45;&gt;Node6 -->
<g id="edge5" class="edge"><title>Node4&#45;&gt;Node6</title>
<path fill="none" stroke="midnightblue" d="M462.659,-179.341C476.033,-165.967 491.951,-150.049 504.22,-137.78"/>
<polygon fill="midnightblue" stroke="midnightblue" points="460.126,-176.924 455.53,-186.47 465.076,-181.874 460.126,-176.924"/>
</g>
<!-- Node7 -->
<g id="node7" class="node"><title>Node7</title>
<g id="a_node7"><a xlink:href="../../d8/d92/Dalitz__ext_8cpp.html" target="_top" xlink:title="/home/travis/build\l/ComPWA/ComPWA/Examples\l/PythonDalitzFit/Dalitz\l_ext.cpp">
<polygon fill="white" stroke="black" points="357,-1 357,-53 515,-53 515,-1 357,-1"/>
<text text-anchor="start" x="365" y="-41" font-family="Helvetica,sans-Serif" font-size="10.00">/home/travis/build</text>
<text text-anchor="start" x="365" y="-30" font-family="Helvetica,sans-Serif" font-size="10.00">/ComPWA/ComPWA/Examples</text>
<text text-anchor="start" x="365" y="-19" font-family="Helvetica,sans-Serif" font-size="10.00">/PythonDalitzFit/Dalitz</text>
<text text-anchor="middle" x="436" y="-8" font-family="Helvetica,sans-Serif" font-size="10.00">_ext.cpp</text>
</a>
</g>
</g>
<!-- Node6&#45;&gt;Node7 -->
<g id="edge6" class="edge"><title>Node6&#45;&gt;Node7</title>
<path fill="none" stroke="midnightblue" d="M497.242,-89.2424C485.775,-77.775 472.451,-64.4515 461.166,-53.1657"/>
<polygon fill="midnightblue" stroke="midnightblue" points="494.924,-91.8737 504.47,-96.4699 499.874,-86.924 494.924,-91.8737"/>
</g>
<!-- Node8 -->
<g id="node8" class="node"><title>Node8</title>
<g id="a_node8"><a xlink:href="../../d6/d0a/PythonFit_8cpp.html" target="_top" xlink:title="/home/travis/build\l/ComPWA/ComPWA/Examples\l/PythonDalitzFit/PythonFit.cpp">
<polygon fill="white" stroke="black" points="533,-6.5 533,-47.5 691,-47.5 691,-6.5 533,-6.5"/>
<text text-anchor="start" x="541" y="-35.5" font-family="Helvetica,sans-Serif" font-size="10.00">/home/travis/build</text>
<text text-anchor="start" x="541" y="-24.5" font-family="Helvetica,sans-Serif" font-size="10.00">/ComPWA/ComPWA/Examples</text>
<text text-anchor="middle" x="612" y="-13.5" font-family="Helvetica,sans-Serif" font-size="10.00">/PythonDalitzFit/PythonFit.cpp</text>
</a>
</g>
</g>
<!-- Node6&#45;&gt;Node8 -->
<g id="edge7" class="edge"><title>Node6&#45;&gt;Node8</title>
<path fill="none" stroke="midnightblue" d="M550.659,-89.3411C564.033,-75.9672 579.951,-60.0487 592.22,-47.7798"/>
<polygon fill="midnightblue" stroke="midnightblue" points="548.126,-86.924 543.53,-96.4699 553.076,-91.8737 548.126,-86.924"/>
</g>
</g>
</svg>
