<?xml version="1.0" encoding="UTF-8" standalone="no"?>
<!DOCTYPE svg PUBLIC "-//W3C//DTD SVG 1.1//EN"
 "http://www.w3.org/Graphics/SVG/1.1/DTD/svg11.dtd">
<!-- Generated by graphviz version 2.36.0 (20140111.2315)
 -->
<!-- Title: /home/travis/build/ComPWA/ComPWA/executables/BlackScholesApp.cpp Pages: 1 -->
<svg width="1317pt" height="354pt"
 viewBox="0.00 0.00 1316.78 354.00" xmlns="http://www.w3.org/2000/svg" xmlns:xlink="http://www.w3.org/1999/xlink">
<g id="graph0" class="graph" transform="scale(1 1) rotate(0) translate(4 350)">
<title>/home/travis/build/ComPWA/ComPWA/executables/BlackScholesApp.cpp</title>
<polygon fill="white" stroke="none" points="-4,4 -4,-350 1312.78,-350 1312.78,4 -4,4"/>
<!-- Node1 -->
<g id="node1" class="node"><title>Node1</title>
<polygon fill="#bfbfbf" stroke="black" points="471.5,-304.5 471.5,-345.5 638.5,-345.5 638.5,-304.5 471.5,-304.5"/>
<text text-anchor="start" x="479.5" y="-333.5" font-family="Helvetica,sans-Serif" font-size="10.00">/home/travis/build</text>
<text text-anchor="start" x="479.5" y="-322.5" font-family="Helvetica,sans-Serif" font-size="10.00">/ComPWA/ComPWA/executables</text>
<text text-anchor="middle" x="555" y="-311.5" font-family="Helvetica,sans-Serif" font-size="10.00">/BlackScholesApp.cpp</text>
</g>
<!-- Node2 -->
<g id="node2" class="node"><title>Node2</title>
<polygon fill="white" stroke="#bfbfbf" points="282,-56.5 282,-75.5 336,-75.5 336,-56.5 282,-56.5"/>
<text text-anchor="middle" x="309" y="-63.5" font-family="Helvetica,sans-Serif" font-size="10.00">iostream</text>
</g>
<!-- Node1&#45;&gt;Node2 -->
<g id="edge1" class="edge"><title>Node1&#45;&gt;Node2</title>
<path fill="none" stroke="midnightblue" d="M471.121,-315.042C437.123,-307.462 399.864,-293.537 374,-268 322.456,-217.108 311.756,-125.105 309.557,-85.7164"/>
<polygon fill="midnightblue" stroke="midnightblue" points="313.052,-85.5198 309.123,-75.6802 306.058,-85.8221 313.052,-85.5198"/>
</g>
<!-- Node3 -->
<g id="node3" class="node"><title>Node3</title>
<polygon fill="white" stroke="#bfbfbf" points="66,-56.5 66,-75.5 110,-75.5 110,-56.5 66,-56.5"/>
<text text-anchor="middle" x="88" y="-63.5" font-family="Helvetica,sans-Serif" font-size="10.00">cmath</text>
</g>
<!-- Node1&#45;&gt;Node3 -->
<g id="edge2" class="edge"><title>Node1&#45;&gt;Node3</title>
<path fill="none" stroke="midnightblue" d="M471.285,-316.496C387.895,-307.837 266.604,-291.678 226,-268 152.826,-225.329 109.726,-126.546 94.3962,-85.4523"/>
<polygon fill="midnightblue" stroke="midnightblue" points="97.6357,-84.118 90.9501,-75.8989 91.051,-86.4932 97.6357,-84.118"/>
</g>
<!-- Node4 -->
<g id="node4" class="node"><title>Node4</title>
<polygon fill="white" stroke="#bfbfbf" points="590,-56.5 590,-75.5 642,-75.5 642,-56.5 590,-56.5"/>
<text text-anchor="middle" x="616" y="-63.5" font-family="Helvetica,sans-Serif" font-size="10.00">sstream</text>
</g>
<!-- Node1&#45;&gt;Node4 -->
<g id="edge3" class="edge"><title>Node1&#45;&gt;Node4</title>
<path fill="none" stroke="midnightblue" d="M568.635,-304.395C575.204,-294.024 582.594,-280.813 587,-268 609.14,-203.618 614.38,-122 615.618,-85.7793"/>
<polygon fill="midnightblue" stroke="midnightblue" points="619.119,-85.7866 615.896,-75.694 612.122,-85.5938 619.119,-85.7866"/>
</g>
<!-- Node5 -->
<g id="node5" class="node"><title>Node5</title>
<polygon fill="white" stroke="#bfbfbf" points="893,-0.5 893,-19.5 937,-19.5 937,-0.5 893,-0.5"/>
<text text-anchor="middle" x="915" y="-7.5" font-family="Helvetica,sans-Serif" font-size="10.00">vector</text>
</g>
<!-- Node1&#45;&gt;Node5 -->
<g id="edge4" class="edge"><title>Node1&#45;&gt;Node5</title>
<path fill="none" stroke="midnightblue" d="M593.838,-304.423C613.428,-294.164 637.35,-281.044 658,-268 678.443,-255.086 680.726,-247.494 702,-236 803.6,-181.106 870.704,-232.408 945,-144 970.436,-113.733 972.714,-92.6956 958,-56 953.32,-44.328 944.009,-33.9687 935.244,-26.1405"/>
<polygon fill="midnightblue" stroke="midnightblue" points="937.424,-23.4011 927.497,-19.698 932.948,-28.7832 937.424,-23.4011"/>
</g>
<!-- Node6 -->
<g id="node6" class="node"><title>Node6</title>
<polygon fill="white" stroke="#bfbfbf" points="420.5,-0.5 420.5,-19.5 461.5,-19.5 461.5,-0.5 420.5,-0.5"/>
<text text-anchor="middle" x="441" y="-7.5" font-family="Helvetica,sans-Serif" font-size="10.00">string</text>
</g>
<!-- Node1&#45;&gt;Node6 -->
<g id="edge5" class="edge"><title>Node1&#45;&gt;Node6</title>
<path fill="none" stroke="midnightblue" d="M471.31,-321.201C316.266,-313.724 0,-286.738 0,-191 0,-191 0,-191 0,-127 0,-90.1084 11.9293,-75.8897 43,-56 103.805,-17.0759 327.823,-11.6898 410.277,-11.0438"/>
<polygon fill="midnightblue" stroke="midnightblue" points="410.299,-14.5439 420.277,-10.9838 410.257,-7.544 410.299,-14.5439"/>
</g>
<!-- Node7 -->
<g id="node7" class="node"><title>Node7</title>
<polygon fill="white" stroke="#bfbfbf" points="1067,-0.5 1067,-19.5 1119,-19.5 1119,-0.5 1067,-0.5"/>
<text text-anchor="middle" x="1093" y="-7.5" font-family="Helvetica,sans-Serif" font-size="10.00">memory</text>
</g>
<!-- Node1&#45;&gt;Node7 -->
<g id="edge6" class="edge"><title>Node1&#45;&gt;Node7</title>
<path fill="none" stroke="midnightblue" d="M638.761,-322.986C820.407,-320.024 1238.21,-308.807 1287,-268 1314.12,-245.316 1307,-226.358 1307,-191 1307,-191 1307,-191 1307,-127 1307,-47.1023 1190.28,-21.9489 1129.24,-14.2574"/>
<polygon fill="midnightblue" stroke="midnightblue" points="1129.58,-10.7731 1119.24,-13.0906 1128.77,-17.726 1129.58,-10.7731"/>
</g>
<!-- Node8 -->
<g id="node8" class="node"><title>Node8</title>
<polygon fill="white" stroke="#bfbfbf" points="396,-242.5 396,-261.5 438,-261.5 438,-242.5 396,-242.5"/>
<text text-anchor="middle" x="417" y="-249.5" font-family="Helvetica,sans-Serif" font-size="10.00">TF1.h</text>
</g>
<!-- Node1&#45;&gt;Node8 -->
<g id="edge7" class="edge"><title>Node1&#45;&gt;Node8</title>
<path fill="none" stroke="midnightblue" d="M516.926,-304.411C493.265,-292.238 463.487,-276.917 442.617,-266.18"/>
<polygon fill="midnightblue" stroke="midnightblue" points="444.203,-263.06 433.709,-261.597 441,-269.284 444.203,-263.06"/>
</g>
<!-- Node9 -->
<g id="node9" class="node"><title>Node9</title>
<polygon fill="white" stroke="#bfbfbf" points="456.5,-242.5 456.5,-261.5 513.5,-261.5 513.5,-242.5 456.5,-242.5"/>
<text text-anchor="middle" x="485" y="-249.5" font-family="Helvetica,sans-Serif" font-size="10.00">TGraph.h</text>
</g>
<!-- Node1&#45;&gt;Node9 -->
<g id="edge8" class="edge"><title>Node1&#45;&gt;Node9</title>
<path fill="none" stroke="midnightblue" d="M535.501,-304.223C524.541,-293.105 511.039,-279.411 500.754,-268.979"/>
<polygon fill="midnightblue" stroke="midnightblue" points="503.125,-266.399 493.612,-261.735 498.14,-271.313 503.125,-266.399"/>
</g>
<!-- Node10 -->
<g id="node10" class="node"><title>Node10</title>
<polygon fill="white" stroke="#bfbfbf" points="531.5,-242.5 531.5,-261.5 578.5,-261.5 578.5,-242.5 531.5,-242.5"/>
<text text-anchor="middle" x="555" y="-249.5" font-family="Helvetica,sans-Serif" font-size="10.00">TFile.h</text>
</g>
<!-- Node1&#45;&gt;Node10 -->
<g id="edge9" class="edge"><title>Node1&#45;&gt;Node10</title>
<path fill="none" stroke="midnightblue" d="M555,-304.223C555,-294.086 555,-281.807 555,-271.813"/>
<polygon fill="midnightblue" stroke="midnightblue" points="558.5,-271.735 555,-261.735 551.5,-271.735 558.5,-271.735"/>
</g>
<!-- Node11 -->
<g id="node11" class="node"><title>Node11</title>
<g id="a_node11"><a xlink:href="../../df/d7d/Event_8hpp.html" target="_top" xlink:title="This class provides a internal container for event&#45;based information. ">
<polygon fill="white" stroke="black" points="211.5,-180.5 211.5,-199.5 296.5,-199.5 296.5,-180.5 211.5,-180.5"/>
<text text-anchor="middle" x="254" y="-187.5" font-family="Helvetica,sans-Serif" font-size="10.00">Core/Event.hpp</text>
</a>
</g>
</g>
<!-- Node1&#45;&gt;Node11 -->
<g id="edge10" class="edge"><title>Node1&#45;&gt;Node11</title>
<path fill="none" stroke="midnightblue" d="M471.258,-317.941C422.858,-311.264 362.534,-297.273 316,-268 292.466,-253.195 273.889,-226.293 263.42,-208.533"/>
<polygon fill="midnightblue" stroke="midnightblue" points="266.421,-206.729 258.458,-199.741 260.325,-210.17 266.421,-206.729"/>
</g>
<!-- Node12 -->
<g id="node12" class="node"><title>Node12</title>
<g id="a_node12"><a xlink:href="../../d3/d65/Particle_8hpp.html" target="_top" xlink:title="This class provides a internal container for information of a particle. ">
<polygon fill="white" stroke="black" points="134,-118.5 134,-137.5 226,-137.5 226,-118.5 134,-118.5"/>
<text text-anchor="middle" x="180" y="-125.5" font-family="Helvetica,sans-Serif" font-size="10.00">Core/Particle.hpp</text>
</a>
</g>
</g>
<!-- Node1&#45;&gt;Node12 -->
<g id="edge19" class="edge"><title>Node1&#45;&gt;Node12</title>
<path fill="none" stroke="midnightblue" d="M471.332,-318.401C414.615,-311.937 339.296,-298.008 279,-268 238.126,-247.657 226.789,-238.341 202,-200 191.615,-183.938 185.881,-162.674 182.893,-147.617"/>
<polygon fill="midnightblue" stroke="midnightblue" points="186.293,-146.743 181.112,-137.501 179.399,-147.957 186.293,-146.743"/>
</g>
<!-- Node14 -->
<g id="node14" class="node"><title>Node14</title>
<g id="a_node14"><a xlink:href="../../db/dce/Parameter_8hpp.html" target="_top" xlink:title="This class implements some internal container of parameters. ">
<polygon fill="white" stroke="black" points="396,-118.5 396,-137.5 500,-137.5 500,-118.5 396,-118.5"/>
<text text-anchor="middle" x="448" y="-125.5" font-family="Helvetica,sans-Serif" font-size="10.00">Core/Parameter.hpp</text>
</a>
</g>
</g>
<!-- Node1&#45;&gt;Node14 -->
<g id="edge20" class="edge"><title>Node1&#45;&gt;Node14</title>
<path fill="none" stroke="midnightblue" d="M471.378,-316.602C439.654,-309.243 406.505,-295.061 387,-268 358.109,-227.916 404.257,-171.987 431.026,-144.924"/>
<polygon fill="midnightblue" stroke="midnightblue" points="433.605,-147.296 438.295,-137.796 428.705,-142.298 433.605,-147.296"/>
</g>
<!-- Node19 -->
<g id="node19" class="node"><title>Node19</title>
<g id="a_node19"><a xlink:href="../../df/d9f/ParameterList_8hpp.html" target="_top" xlink:title="This class provides a list of fit parameters which can have different types. ">
<polygon fill="white" stroke="red" points="657,-180.5 657,-199.5 777,-199.5 777,-180.5 657,-180.5"/>
<text text-anchor="middle" x="717" y="-187.5" font-family="Helvetica,sans-Serif" font-size="10.00">Core/ParameterList.hpp</text>
</a>
</g>
</g>
<!-- Node1&#45;&gt;Node19 -->
<g id="edge34" class="edge"><title>Node1&#45;&gt;Node19</title>
<path fill="none" stroke="midnightblue" d="M578.904,-304.375C611.427,-277.674 668.937,-230.459 698.426,-206.249"/>
<polygon fill="midnightblue" stroke="midnightblue" points="700.78,-208.845 706.288,-199.794 696.339,-203.434 700.78,-208.845"/>
</g>
<!-- Node22 -->
<g id="node22" class="node"><title>Node22</title>
<polygon fill="white" stroke="#bfbfbf" points="851.5,-237 851.5,-267 980.5,-267 980.5,-237 851.5,-237"/>
<text text-anchor="start" x="859.5" y="-255" font-family="Helvetica,sans-Serif" font-size="10.00">DataReader/StockReader</text>
<text text-anchor="middle" x="916" y="-244" font-family="Helvetica,sans-Serif" font-size="10.00">/StockReader.hpp</text>
</g>
<!-- Node1&#45;&gt;Node22 -->
<g id="edge46" class="edge"><title>Node1&#45;&gt;Node22</title>
<path fill="none" stroke="midnightblue" d="M638.546,-307.865C693.362,-297.239 766.897,-282.912 841.393,-268.113"/>
<polygon fill="midnightblue" stroke="midnightblue" points="842.306,-271.5 851.432,-266.117 840.941,-264.634 842.306,-271.5"/>
</g>
<!-- Node23 -->
<g id="node23" class="node"><title>Node23</title>
<polygon fill="white" stroke="#bfbfbf" points="998.5,-237 998.5,-267 1113.5,-267 1113.5,-237 998.5,-237"/>
<text text-anchor="start" x="1006.5" y="-255" font-family="Helvetica,sans-Serif" font-size="10.00">Physics/BlackScholes</text>
<text text-anchor="middle" x="1056" y="-244" font-family="Helvetica,sans-Serif" font-size="10.00">/BlackScholes.hpp</text>
</g>
<!-- Node1&#45;&gt;Node23 -->
<g id="edge47" class="edge"><title>Node1&#45;&gt;Node23</title>
<path fill="none" stroke="midnightblue" d="M638.546,-315.526C723.965,-306.338 860.634,-290.188 988.361,-268.011"/>
<polygon fill="midnightblue" stroke="midnightblue" points="989.078,-271.439 998.324,-266.266 987.87,-264.544 989.078,-271.439"/>
</g>
<!-- Node24 -->
<g id="node24" class="node"><title>Node24</title>
<polygon fill="white" stroke="#bfbfbf" points="1131.5,-237 1131.5,-267 1278.5,-267 1278.5,-237 1131.5,-237"/>
<text text-anchor="start" x="1139.5" y="-255" font-family="Helvetica,sans-Serif" font-size="10.00">Estimator/StockLeastSquares</text>
<text text-anchor="middle" x="1205" y="-244" font-family="Helvetica,sans-Serif" font-size="10.00">/StockLeastSquares.hpp</text>
</g>
<!-- Node1&#45;&gt;Node24 -->
<g id="edge48" class="edge"><title>Node1&#45;&gt;Node24</title>
<path fill="none" stroke="midnightblue" d="M638.831,-317.839C747.646,-309.366 943.606,-292.491 1121.23,-268.035"/>
<polygon fill="midnightblue" stroke="midnightblue" points="1121.86,-271.481 1131.28,-266.64 1120.9,-264.547 1121.86,-271.481"/>
</g>
<!-- Node25 -->
<g id="node25" class="node"><title>Node25</title>
<g id="a_node25"><a xlink:href="../../da/d15/MinuitIF_8hpp.html" target="_top" xlink:title="This class provides a wrapper around the Minuit2 library. ">
<polygon fill="white" stroke="red" points="711,-237 711,-267 833,-267 833,-237 711,-237"/>
<text text-anchor="start" x="719" y="-255" font-family="Helvetica,sans-Serif" font-size="10.00">Optimizer/Minuit2/Minuit</text>
<text text-anchor="middle" x="772" y="-244" font-family="Helvetica,sans-Serif" font-size="10.00">IF.hpp</text>
</a>
</g>
</g>
<!-- Node1&#45;&gt;Node25 -->
<g id="edge49" class="edge"><title>Node1&#45;&gt;Node25</title>
<path fill="none" stroke="midnightblue" d="M614.871,-304.411C647.585,-293.707 687.737,-280.57 719.263,-270.255"/>
<polygon fill="midnightblue" stroke="midnightblue" points="720.76,-273.448 729.175,-267.012 718.583,-266.795 720.76,-273.448"/>
</g>
<!-- Node11&#45;&gt;Node2 -->
<g id="edge13" class="edge"><title>Node11&#45;&gt;Node2</title>
<path fill="none" stroke="midnightblue" d="M257.955,-180.226C266.914,-160.354 288.904,-111.576 300.89,-84.9894"/>
<polygon fill="midnightblue" stroke="midnightblue" points="304.161,-86.2493 305.08,-75.6944 297.78,-83.3724 304.161,-86.2493"/>
</g>
<!-- Node11&#45;&gt;Node5 -->
<g id="edge11" class="edge"><title>Node11&#45;&gt;Node5</title>
<path fill="none" stroke="midnightblue" d="M252.008,-180.212C247.138,-156.195 237.483,-89.05 273,-56 317.91,-14.2088 758.267,-11.0033 882.513,-10.9361"/>
<polygon fill="midnightblue" stroke="midnightblue" points="882.878,-14.4361 892.879,-10.9377 882.88,-7.43609 882.878,-14.4361"/>
</g>
<!-- Node11&#45;&gt;Node6 -->
<g id="edge12" class="edge"><title>Node11&#45;&gt;Node6</title>
<path fill="none" stroke="midnightblue" d="M217.748,-180.465C147.277,-162.288 3.23927,-116.429 57,-56 80.3954,-29.7028 323.24,-16.289 410.221,-12.3006"/>
<polygon fill="midnightblue" stroke="midnightblue" points="410.43,-15.7948 420.264,-11.8505 410.117,-8.80181 410.43,-15.7948"/>
</g>
<!-- Node11&#45;&gt;Node12 -->
<g id="edge14" class="edge"><title>Node11&#45;&gt;Node12</title>
<path fill="none" stroke="midnightblue" d="M243.398,-180.403C231.748,-170.958 212.814,-155.606 198.665,-144.134"/>
<polygon fill="midnightblue" stroke="midnightblue" points="200.555,-141.16 190.583,-137.581 196.146,-146.597 200.555,-141.16"/>
</g>
<!-- Node12&#45;&gt;Node2 -->
<g id="edge17" class="edge"><title>Node12&#45;&gt;Node2</title>
<path fill="none" stroke="midnightblue" d="M198.483,-118.403C220.132,-108.334 256.213,-91.5522 281.232,-79.9151"/>
<polygon fill="midnightblue" stroke="midnightblue" points="282.961,-82.9715 290.552,-75.5806 280.008,-76.6244 282.961,-82.9715"/>
</g>
<!-- Node12&#45;&gt;Node3 -->
<g id="edge16" class="edge"><title>Node12&#45;&gt;Node3</title>
<path fill="none" stroke="midnightblue" d="M166.819,-118.403C151.926,-108.691 127.456,-92.7319 109.727,-81.1697"/>
<polygon fill="midnightblue" stroke="midnightblue" points="111.445,-78.1117 101.157,-75.5806 107.621,-83.975 111.445,-78.1117"/>
</g>
<!-- Node12&#45;&gt;Node5 -->
<g id="edge15" class="edge"><title>Node12&#45;&gt;Node5</title>
<path fill="none" stroke="midnightblue" d="M172.457,-118.385C160.529,-103.709 140.294,-73.7276 157,-56 182.251,-29.2054 740.815,-14.9041 882.538,-11.6987"/>
<polygon fill="midnightblue" stroke="midnightblue" points="882.83,-15.1932 892.749,-11.4708 882.674,-8.19494 882.83,-15.1932"/>
</g>
<!-- Node13 -->
<g id="node13" class="node"><title>Node13</title>
<polygon fill="white" stroke="#bfbfbf" points="166.5,-56.5 166.5,-75.5 225.5,-75.5 225.5,-56.5 166.5,-56.5"/>
<text text-anchor="middle" x="196" y="-63.5" font-family="Helvetica,sans-Serif" font-size="10.00">stdexcept</text>
</g>
<!-- Node12&#45;&gt;Node13 -->
<g id="edge18" class="edge"><title>Node12&#45;&gt;Node13</title>
<path fill="none" stroke="midnightblue" d="M182.292,-118.403C184.574,-109.849 188.147,-96.4497 191.073,-85.4762"/>
<polygon fill="midnightblue" stroke="midnightblue" points="194.517,-86.1448 193.712,-75.5806 187.753,-84.3411 194.517,-86.1448"/>
</g>
<!-- Node14&#45;&gt;Node2 -->
<g id="edge21" class="edge"><title>Node14&#45;&gt;Node2</title>
<path fill="none" stroke="midnightblue" d="M428.085,-118.403C404.551,-108.245 365.19,-91.2547 338.207,-79.6074"/>
<polygon fill="midnightblue" stroke="midnightblue" points="339.447,-76.3303 328.878,-75.5806 336.672,-82.7572 339.447,-76.3303"/>
</g>
<!-- Node14&#45;&gt;Node3 -->
<g id="edge26" class="edge"><title>Node14&#45;&gt;Node3</title>
<path fill="none" stroke="midnightblue" d="M396.803,-118.467C321.566,-105.928 183.282,-82.8804 120.516,-72.4194"/>
<polygon fill="midnightblue" stroke="midnightblue" points="120.847,-68.9264 110.408,-70.7347 119.697,-75.8311 120.847,-68.9264"/>
</g>
<!-- Node14&#45;&gt;Node4 -->
<g id="edge23" class="edge"><title>Node14&#45;&gt;Node4</title>
<path fill="none" stroke="midnightblue" d="M472.07,-118.403C501.013,-108.067 549.762,-90.6564 582.402,-78.9994"/>
<polygon fill="midnightblue" stroke="midnightblue" points="583.734,-82.2401 591.974,-75.5806 581.38,-75.6479 583.734,-82.2401"/>
</g>
<!-- Node14&#45;&gt;Node6 -->
<g id="edge22" class="edge"><title>Node14&#45;&gt;Node6</title>
<path fill="none" stroke="midnightblue" d="M429.563,-118.46C413.943,-110.097 392.6,-95.7347 383,-76 373.075,-55.5964 394.701,-36.784 414.308,-24.7051"/>
<polygon fill="midnightblue" stroke="midnightblue" points="416.149,-27.6836 423.054,-19.6476 412.645,-21.6239 416.149,-27.6836"/>
</g>
<!-- Node14&#45;&gt;Node13 -->
<g id="edge25" class="edge"><title>Node14&#45;&gt;Node13</title>
<path fill="none" stroke="midnightblue" d="M412.162,-118.467C365.477,-107.352 284.115,-87.9796 235.634,-76.4366"/>
<polygon fill="midnightblue" stroke="midnightblue" points="236.35,-73.0095 225.812,-74.098 234.729,-79.8191 236.35,-73.0095"/>
</g>
<!-- Node15 -->
<g id="node15" class="node"><title>Node15</title>
<polygon fill="white" stroke="#bfbfbf" points="392.5,-56.5 392.5,-75.5 445.5,-75.5 445.5,-56.5 392.5,-56.5"/>
<text text-anchor="middle" x="419" y="-63.5" font-family="Helvetica,sans-Serif" font-size="10.00">complex</text>
</g>
<!-- Node14&#45;&gt;Node15 -->
<g id="edge24" class="edge"><title>Node14&#45;&gt;Node15</title>
<path fill="none" stroke="midnightblue" d="M443.845,-118.403C439.624,-109.671 432.963,-95.8893 427.6,-84.7936"/>
<polygon fill="midnightblue" stroke="midnightblue" points="430.65,-83.061 423.147,-75.5806 424.348,-86.1072 430.65,-83.061"/>
</g>
<!-- Node16 -->
<g id="node16" class="node"><title>Node16</title>
<g id="a_node16"><a xlink:href="../../d8/def/AbsParameter_8hpp.html" target="_top" xlink:title="This class defines the internal container of a parameter. ">
<polygon fill="white" stroke="red" points="810,-56.5 810,-75.5 932,-75.5 932,-56.5 810,-56.5"/>
<text text-anchor="middle" x="871" y="-63.5" font-family="Helvetica,sans-Serif" font-size="10.00">Core/AbsParameter.hpp</text>
</a>
</g>
</g>
<!-- Node14&#45;&gt;Node16 -->
<g id="edge27" class="edge"><title>Node14&#45;&gt;Node16</title>
<path fill="none" stroke="midnightblue" d="M500.292,-119.583C576.016,-108.842 716.367,-88.9338 800.962,-76.9345"/>
<polygon fill="midnightblue" stroke="midnightblue" points="801.584,-80.3813 810.994,-75.5115 800.601,-73.4507 801.584,-80.3813"/>
</g>
<!-- Node17 -->
<g id="node17" class="node"><title>Node17</title>
<g id="a_node17"><a xlink:href="../../d2/de9/Exceptions_8hpp.html" target="_top" xlink:title="This class defines the ComPWA exception base&#45;class and provides a set of standard exceptions...">
<polygon fill="white" stroke="red" points="464,-56.5 464,-75.5 572,-75.5 572,-56.5 464,-56.5"/>
<text text-anchor="middle" x="518" y="-63.5" font-family="Helvetica,sans-Serif" font-size="10.00">Core/Exceptions.hpp</text>
</a>
</g>
</g>
<!-- Node14&#45;&gt;Node17 -->
<g id="edge31" class="edge"><title>Node14&#45;&gt;Node17</title>
<path fill="none" stroke="midnightblue" d="M458.029,-118.403C469.049,-108.958 486.96,-93.6056 500.343,-82.1342"/>
<polygon fill="midnightblue" stroke="midnightblue" points="502.675,-84.7459 507.989,-75.5806 498.119,-79.4311 502.675,-84.7459"/>
</g>
<!-- Node18 -->
<g id="node18" class="node"><title>Node18</title>
<g id="a_node18"><a xlink:href="../../da/db4/Logging_8hpp.html" target="_top" xlink:title="Core/Logging.hpp">
<polygon fill="white" stroke="red" points="660.5,-56.5 660.5,-75.5 753.5,-75.5 753.5,-56.5 660.5,-56.5"/>
<text text-anchor="middle" x="707" y="-63.5" font-family="Helvetica,sans-Serif" font-size="10.00">Core/Logging.hpp</text>
</a>
</g>
</g>
<!-- Node14&#45;&gt;Node18 -->
<g id="edge33" class="edge"><title>Node14&#45;&gt;Node18</title>
<path fill="none" stroke="midnightblue" d="M484.833,-118.467C530.955,-107.783 610.01,-89.4687 660.324,-77.8129"/>
<polygon fill="midnightblue" stroke="midnightblue" points="661.342,-81.17 670.294,-75.5034 659.762,-74.3506 661.342,-81.17"/>
</g>
<!-- Node16&#45;&gt;Node5 -->
<g id="edge29" class="edge"><title>Node16&#45;&gt;Node5</title>
<path fill="none" stroke="midnightblue" d="M878.266,-56.083C884.545,-48.3768 893.788,-37.0333 901.431,-27.6531"/>
<polygon fill="midnightblue" stroke="midnightblue" points="904.266,-29.7143 907.869,-19.7511 898.839,-25.2926 904.266,-29.7143"/>
</g>
<!-- Node16&#45;&gt;Node6 -->
<g id="edge28" class="edge"><title>Node16&#45;&gt;Node6</title>
<path fill="none" stroke="midnightblue" d="M809.848,-57.3205C716.558,-45.6049 542.113,-23.6979 471.671,-14.8517"/>
<polygon fill="midnightblue" stroke="midnightblue" points="472.028,-11.3692 461.67,-13.5958 471.156,-18.3146 472.028,-11.3692"/>
</g>
<!-- Node16&#45;&gt;Node7 -->
<g id="edge30" class="edge"><title>Node16&#45;&gt;Node7</title>
<path fill="none" stroke="midnightblue" d="M906.177,-56.4435C947.403,-46.4155 1015.36,-29.8856 1056.96,-19.7674"/>
<polygon fill="midnightblue" stroke="midnightblue" points="1057.79,-23.167 1066.68,-17.4026 1056.13,-16.3654 1057.79,-23.167"/>
</g>
<!-- Node17&#45;&gt;Node6 -->
<g id="edge32" class="edge"><title>Node17&#45;&gt;Node6</title>
<path fill="none" stroke="midnightblue" d="M505.629,-56.324C493.842,-48.0577 475.868,-35.4527 461.864,-25.6322"/>
<polygon fill="midnightblue" stroke="midnightblue" points="463.538,-22.5307 453.341,-19.6545 459.518,-28.2619 463.538,-22.5307"/>
</g>
<!-- Node19&#45;&gt;Node2 -->
<g id="edge35" class="edge"><title>Node19&#45;&gt;Node2</title>
<path fill="none" stroke="midnightblue" d="M656.967,-185.364C575.077,-179.636 433.24,-166.751 387,-144 358.939,-130.194 334.76,-102.378 321.044,-84.2316"/>
<polygon fill="midnightblue" stroke="midnightblue" points="323.579,-81.7678 314.86,-75.749 317.922,-85.8915 323.579,-81.7678"/>
</g>
<!-- Node19&#45;&gt;Node4 -->
<g id="edge38" class="edge"><title>Node19&#45;&gt;Node4</title>
<path fill="none" stroke="midnightblue" d="M709.736,-180.226C692.994,-160.002 651.466,-109.84 629.742,-83.5989"/>
<polygon fill="midnightblue" stroke="midnightblue" points="632.271,-81.1654 623.198,-75.6944 626.879,-85.6293 632.271,-81.1654"/>
</g>
<!-- Node19&#45;&gt;Node5 -->
<g id="edge39" class="edge"><title>Node19&#45;&gt;Node5</title>
<path fill="none" stroke="midnightblue" d="M777.153,-182.233C828.926,-175.248 898.443,-162.715 919,-144 948.811,-116.86 951.44,-94.9394 941,-56 938.346,-46.1031 932.931,-36.1315 927.726,-28.099"/>
<polygon fill="midnightblue" stroke="midnightblue" points="930.464,-25.9055 921.89,-19.6811 924.711,-29.8935 930.464,-25.9055"/>
</g>
<!-- Node19&#45;&gt;Node6 -->
<g id="edge36" class="edge"><title>Node19&#45;&gt;Node6</title>
<path fill="none" stroke="midnightblue" d="M718.071,-180.09C720.084,-165.357 725.238,-135.239 736,-112 747.531,-87.0999 780.006,-76.7066 762,-56 724.594,-12.9838 545.345,-9.8696 472.192,-10.4421"/>
<polygon fill="midnightblue" stroke="midnightblue" points="471.76,-6.94646 461.799,-10.5545 471.836,-13.9461 471.76,-6.94646"/>
</g>
<!-- Node19&#45;&gt;Node7 -->
<g id="edge37" class="edge"><title>Node19&#45;&gt;Node7</title>
<path fill="none" stroke="midnightblue" d="M777.437,-185.848C825.102,-181.342 892.127,-170.424 945,-144 1003.53,-114.749 1056.47,-55.977 1080.05,-27.3793"/>
<polygon fill="midnightblue" stroke="midnightblue" points="1082.82,-29.513 1086.4,-19.539 1077.38,-25.1075 1082.82,-29.513"/>
</g>
<!-- Node19&#45;&gt;Node14 -->
<g id="edge43" class="edge"><title>Node19&#45;&gt;Node14</title>
<path fill="none" stroke="midnightblue" d="M678.745,-180.467C630.742,-169.76 548.392,-151.392 496.151,-139.74"/>
<polygon fill="midnightblue" stroke="midnightblue" points="496.646,-136.264 486.124,-137.503 495.122,-143.097 496.646,-136.264"/>
</g>
<!-- Node19&#45;&gt;Node16 -->
<g id="edge42" class="edge"><title>Node19&#45;&gt;Node16</title>
<path fill="none" stroke="midnightblue" d="M777.054,-182.402C824.986,-175.752 886.579,-163.622 902,-144 916.256,-125.861 900.558,-100.296 886.795,-83.6861"/>
<polygon fill="midnightblue" stroke="midnightblue" points="889.178,-81.0964 879.943,-75.9036 883.924,-85.722 889.178,-81.0964"/>
</g>
<!-- Node19&#45;&gt;Node17 -->
<g id="edge44" class="edge"><title>Node19&#45;&gt;Node17</title>
<path fill="none" stroke="midnightblue" d="M703.007,-180.421C669.038,-159.596 581.972,-106.219 540.55,-80.8247"/>
<polygon fill="midnightblue" stroke="midnightblue" points="542.333,-77.8121 531.978,-75.5693 538.674,-83.7799 542.333,-77.8121"/>
</g>
<!-- Node19&#45;&gt;Node18 -->
<g id="edge45" class="edge"><title>Node19&#45;&gt;Node18</title>
<path fill="none" stroke="midnightblue" d="M713.4,-180.222C709.944,-171.285 704.967,-156.942 703,-144 699.99,-124.192 701.867,-101.226 703.945,-85.5645"/>
<polygon fill="midnightblue" stroke="midnightblue" points="707.418,-86.0078 705.427,-75.6016 700.494,-84.9778 707.418,-86.0078"/>
</g>
<!-- Node20 -->
<g id="node20" class="node"><title>Node20</title>
<polygon fill="white" stroke="#bfbfbf" points="745.5,-118.5 745.5,-137.5 780.5,-137.5 780.5,-118.5 745.5,-118.5"/>
<text text-anchor="middle" x="763" y="-125.5" font-family="Helvetica,sans-Serif" font-size="10.00">map</text>
</g>
<!-- Node19&#45;&gt;Node20 -->
<g id="edge40" class="edge"><title>Node19&#45;&gt;Node20</title>
<path fill="none" stroke="midnightblue" d="M723.591,-180.403C730.491,-171.403 741.502,-157.041 750.134,-145.782"/>
<polygon fill="midnightblue" stroke="midnightblue" points="753.115,-147.646 756.422,-137.581 747.56,-143.387 753.115,-147.646"/>
</g>
<!-- Node21 -->
<g id="node21" class="node"><title>Node21</title>
<polygon fill="white" stroke="#bfbfbf" points="798.5,-113 798.5,-143 893.5,-143 893.5,-113 798.5,-113"/>
<text text-anchor="start" x="806.5" y="-131" font-family="Helvetica,sans-Serif" font-size="10.00">boost/serialization</text>
<text text-anchor="middle" x="846" y="-120" font-family="Helvetica,sans-Serif" font-size="10.00">/vector.hpp</text>
</g>
<!-- Node19&#45;&gt;Node21 -->
<g id="edge41" class="edge"><title>Node19&#45;&gt;Node21</title>
<path fill="none" stroke="midnightblue" d="M735.483,-180.403C753.934,-171.822 782.867,-158.364 806.502,-147.371"/>
<polygon fill="midnightblue" stroke="midnightblue" points="808.006,-150.532 815.597,-143.141 805.054,-144.185 808.006,-150.532"/>
</g>
<!-- Node25&#45;&gt;Node5 -->
<g id="edge50" class="edge"><title>Node25&#45;&gt;Node5</title>
<path fill="none" stroke="midnightblue" d="M819.902,-236.975C883.95,-217.078 991.806,-179.158 1012,-144 1031.48,-110.085 1033.05,-88.9653 1012,-56 997.792,-33.7469 969.434,-22.3307 947.032,-16.5785"/>
<polygon fill="midnightblue" stroke="midnightblue" points="947.762,-13.155 937.231,-14.3156 946.187,-19.9756 947.762,-13.155"/>
</g>
<!-- Node25&#45;&gt;Node7 -->
<g id="edge51" class="edge"><title>Node25&#45;&gt;Node7</title>
<path fill="none" stroke="midnightblue" d="M830.77,-236.902C881.408,-224.439 948.052,-207.16 959,-200 1025.46,-156.532 1069.11,-67.6934 1085.61,-29.3225"/>
<polygon fill="midnightblue" stroke="midnightblue" points="1088.91,-30.4943 1089.53,-19.9178 1082.45,-27.7964 1088.91,-30.4943"/>
</g>
<!-- Node25&#45;&gt;Node19 -->
<g id="edge52" class="edge"><title>Node25&#45;&gt;Node19</title>
<path fill="none" stroke="midnightblue" d="M758.966,-236.781C750.809,-227.882 740.278,-216.394 731.806,-207.152"/>
<polygon fill="midnightblue" stroke="midnightblue" points="734.34,-204.737 725.003,-199.731 729.18,-209.467 734.34,-204.737"/>
</g>
</g>
</svg>
