<?xml version="1.0" encoding="UTF-8" standalone="no"?>
<!DOCTYPE svg PUBLIC "-//W3C//DTD SVG 1.1//EN"
 "http://www.w3.org/Graphics/SVG/1.1/DTD/svg11.dtd">
<!-- Generated by graphviz version 2.36.0 (20140111.2315)
 -->
<!-- Title: /home/travis/build/ComPWA/ComPWA/Physics/HelicityFormalism/IncoherentIntensity.hpp Pages: 1 -->
<svg width="1172pt" height="378pt"
 viewBox="0.00 0.00 1172.26 378.00" xmlns="http://www.w3.org/2000/svg" xmlns:xlink="http://www.w3.org/1999/xlink">
<g id="graph0" class="graph" transform="scale(1 1) rotate(0) translate(4 374)">
<title>/home/travis/build/ComPWA/ComPWA/Physics/HelicityFormalism/IncoherentIntensity.hpp</title>
<polygon fill="white" stroke="none" points="-4,4 -4,-374 1168.26,-374 1168.26,4 -4,4"/>
<!-- Node1 -->
<g id="node1" class="node"><title>Node1</title>
<polygon fill="#bfbfbf" stroke="black" points="509.76,-317 509.76,-369 658.76,-369 658.76,-317 509.76,-317"/>
<text text-anchor="start" x="517.76" y="-357" font-family="Helvetica,sans-Serif" font-size="10.00">/home/travis/build</text>
<text text-anchor="start" x="517.76" y="-346" font-family="Helvetica,sans-Serif" font-size="10.00">/ComPWA/ComPWA/Physics</text>
<text text-anchor="start" x="517.76" y="-335" font-family="Helvetica,sans-Serif" font-size="10.00">/HelicityFormalism/Incoherent</text>
<text text-anchor="middle" x="584.26" y="-324" font-family="Helvetica,sans-Serif" font-size="10.00">Intensity.hpp</text>
</g>
<!-- Node2 -->
<g id="node2" class="node"><title>Node2</title>
<g id="a_node2"><a xlink:href="../../dc/dfd/AmpIntensity_8hpp.html" target="_top" xlink:title="Core/AmpIntensity.hpp">
<polygon fill="white" stroke="black" points="525.76,-186.5 525.76,-205.5 642.76,-205.5 642.76,-186.5 525.76,-186.5"/>
<text text-anchor="middle" x="584.26" y="-193.5" font-family="Helvetica,sans-Serif" font-size="10.00">Core/AmpIntensity.hpp</text>
</a>
</g>
</g>
<!-- Node1&#45;&gt;Node2 -->
<g id="edge1" class="edge"><title>Node1&#45;&gt;Node2</title>
<path fill="none" stroke="midnightblue" d="M584.26,-316.743C584.26,-288.035 584.26,-241.822 584.26,-216.007"/>
<polygon fill="midnightblue" stroke="midnightblue" points="587.76,-215.717 584.26,-205.717 580.76,-215.717 587.76,-215.717"/>
</g>
<!-- Node13 -->
<g id="node13" class="node"><title>Node13</title>
<g id="a_node13"><a xlink:href="../../df/d1f/CoherentIntensity_8hpp.html" target="_top" xlink:title="Physics/HelicityFormalism\l/CoherentIntensity.hpp">
<polygon fill="white" stroke="black" points="655.26,-249 655.26,-279 789.26,-279 789.26,-249 655.26,-249"/>
<text text-anchor="start" x="663.26" y="-267" font-family="Helvetica,sans-Serif" font-size="10.00">Physics/HelicityFormalism</text>
<text text-anchor="middle" x="722.26" y="-256" font-family="Helvetica,sans-Serif" font-size="10.00">/CoherentIntensity.hpp</text>
</a>
</g>
</g>
<!-- Node1&#45;&gt;Node13 -->
<g id="edge26" class="edge"><title>Node1&#45;&gt;Node13</title>
<path fill="none" stroke="midnightblue" d="M629.446,-316.787C648.591,-306.105 670.523,-293.868 688.259,-283.972"/>
<polygon fill="midnightblue" stroke="midnightblue" points="690.087,-286.96 697.114,-279.031 686.676,-280.847 690.087,-286.96"/>
</g>
<!-- Node17 -->
<g id="node17" class="node"><title>Node17</title>
<g id="a_node17"><a xlink:href="../../d0/d27/Integration_8hpp.html" target="_top" xlink:title="Tools/Integration.hpp">
<polygon fill="white" stroke="black" points="84.2598,-254.5 84.2598,-273.5 192.26,-273.5 192.26,-254.5 84.2598,-254.5"/>
<text text-anchor="middle" x="138.26" y="-261.5" font-family="Helvetica,sans-Serif" font-size="10.00">Tools/Integration.hpp</text>
</a>
</g>
</g>
<!-- Node1&#45;&gt;Node17 -->
<g id="edge34" class="edge"><title>Node1&#45;&gt;Node17</title>
<path fill="none" stroke="midnightblue" d="M509.609,-329.112C421.858,-313.962 278.018,-289.129 197.537,-275.234"/>
<polygon fill="midnightblue" stroke="midnightblue" points="198.018,-271.765 187.568,-273.513 196.827,-278.663 198.018,-271.765"/>
</g>
<!-- Node3 -->
<g id="node3" class="node"><title>Node3</title>
<polygon fill="white" stroke="#bfbfbf" points="518.26,-0.5 518.26,-19.5 562.26,-19.5 562.26,-0.5 518.26,-0.5"/>
<text text-anchor="middle" x="540.26" y="-7.5" font-family="Helvetica,sans-Serif" font-size="10.00">vector</text>
</g>
<!-- Node2&#45;&gt;Node3 -->
<g id="edge2" class="edge"><title>Node2&#45;&gt;Node3</title>
<path fill="none" stroke="midnightblue" d="M613.372,-186.47C675.054,-166.978 809.375,-116.178 760.26,-56 736.977,-27.4725 628.261,-16.5434 572.875,-12.7742"/>
<polygon fill="midnightblue" stroke="midnightblue" points="572.754,-9.25933 562.55,-12.1127 572.306,-16.245 572.754,-9.25933"/>
</g>
<!-- Node4 -->
<g id="node4" class="node"><title>Node4</title>
<polygon fill="white" stroke="#bfbfbf" points="718.26,-0.5 718.26,-19.5 770.26,-19.5 770.26,-0.5 718.26,-0.5"/>
<text text-anchor="middle" x="744.26" y="-7.5" font-family="Helvetica,sans-Serif" font-size="10.00">memory</text>
</g>
<!-- Node2&#45;&gt;Node4 -->
<g id="edge3" class="edge"><title>Node2&#45;&gt;Node4</title>
<path fill="none" stroke="midnightblue" d="M642.99,-188.812C693.347,-182.083 767.076,-168.794 827.26,-144 878.666,-122.822 905.7,-124.844 932.26,-76 963.762,-18.0662 843.669,-10.3944 780.606,-10.2361"/>
<polygon fill="midnightblue" stroke="midnightblue" points="780.261,-6.73725 770.274,-10.2757 780.288,-13.7372 780.261,-6.73725"/>
</g>
<!-- Node5 -->
<g id="node5" class="node"><title>Node5</title>
<polygon fill="white" stroke="#bfbfbf" points="103.76,-0.5 103.76,-19.5 150.76,-19.5 150.76,-0.5 103.76,-0.5"/>
<text text-anchor="middle" x="127.26" y="-7.5" font-family="Helvetica,sans-Serif" font-size="10.00">math.h</text>
</g>
<!-- Node2&#45;&gt;Node5 -->
<g id="edge4" class="edge"><title>Node2&#45;&gt;Node5</title>
<path fill="none" stroke="midnightblue" d="M525.527,-189.391C442.702,-179.013 289.915,-150.583 184.26,-76 165.752,-62.9353 149.254,-42.6806 138.829,-28.2561"/>
<polygon fill="midnightblue" stroke="midnightblue" points="141.489,-25.9511 132.896,-19.7532 135.748,-29.9569 141.489,-25.9511"/>
</g>
<!-- Node6 -->
<g id="node6" class="node"><title>Node6</title>
<g id="a_node6"><a xlink:href="../../df/d9f/ParameterList_8hpp.html" target="_top" xlink:title="This class provides a list of fit parameters which can have different types. ">
<polygon fill="white" stroke="red" points="436.26,-56.5 436.26,-75.5 556.26,-75.5 556.26,-56.5 436.26,-56.5"/>
<text text-anchor="middle" x="496.26" y="-63.5" font-family="Helvetica,sans-Serif" font-size="10.00">Core/ParameterList.hpp</text>
</a>
</g>
</g>
<!-- Node2&#45;&gt;Node6 -->
<g id="edge5" class="edge"><title>Node2&#45;&gt;Node6</title>
<path fill="none" stroke="midnightblue" d="M568.303,-186.369C553.511,-177.578 531.936,-162.613 519.26,-144 507.264,-126.386 501.395,-102.378 498.612,-85.8769"/>
<polygon fill="midnightblue" stroke="midnightblue" points="502.052,-85.2115 497.141,-75.8236 495.126,-86.2249 502.052,-85.2115"/>
</g>
<!-- Node8 -->
<g id="node8" class="node"><title>Node8</title>
<g id="a_node8"><a xlink:href="../../da/db2/FunctionTree_8hpp.html" target="_top" xlink:title="This class can be used to store a function in a tree&#45;like structure. ">
<polygon fill="white" stroke="red" points="808.26,-56.5 808.26,-75.5 924.26,-75.5 924.26,-56.5 808.26,-56.5"/>
<text text-anchor="middle" x="866.26" y="-63.5" font-family="Helvetica,sans-Serif" font-size="10.00">Core/FunctionTree.hpp</text>
</a>
</g>
</g>
<!-- Node2&#45;&gt;Node8 -->
<g id="edge9" class="edge"><title>Node2&#45;&gt;Node8</title>
<path fill="none" stroke="midnightblue" d="M642.886,-189.902C686.994,-183.977 747.607,-171.246 794.26,-144 820.099,-128.909 842.302,-101.686 854.973,-83.9833"/>
<polygon fill="midnightblue" stroke="midnightblue" points="857.887,-85.9232 860.699,-75.7085 852.131,-81.9399 857.887,-85.9232"/>
</g>
<!-- Node9 -->
<g id="node9" class="node"><title>Node9</title>
<g id="a_node9"><a xlink:href="../../d2/d4b/Data_8hpp.html" target="_top" xlink:title="Contains Data interface class. ">
<polygon fill="white" stroke="red" points="528.26,-118.5 528.26,-137.5 640.26,-137.5 640.26,-118.5 528.26,-118.5"/>
<text text-anchor="middle" x="584.26" y="-125.5" font-family="Helvetica,sans-Serif" font-size="10.00">DataReader/Data.hpp</text>
</a>
</g>
</g>
<!-- Node2&#45;&gt;Node9 -->
<g id="edge12" class="edge"><title>Node2&#45;&gt;Node9</title>
<path fill="none" stroke="midnightblue" d="M584.26,-186.372C584.26,-176.643 584.26,-160.528 584.26,-147.85"/>
<polygon fill="midnightblue" stroke="midnightblue" points="587.76,-147.841 584.26,-137.841 580.76,-147.841 587.76,-147.841"/>
</g>
<!-- Node10 -->
<g id="node10" class="node"><title>Node10</title>
<g id="a_node10"><a xlink:href="../../d8/d6f/Efficiency_8hpp.html" target="_top" xlink:title="Core/Efficiency.hpp">
<polygon fill="white" stroke="red" points="314.76,-56.5 314.76,-75.5 417.76,-75.5 417.76,-56.5 314.76,-56.5"/>
<text text-anchor="middle" x="366.26" y="-63.5" font-family="Helvetica,sans-Serif" font-size="10.00">Core/Efficiency.hpp</text>
</a>
</g>
</g>
<!-- Node2&#45;&gt;Node10 -->
<g id="edge24" class="edge"><title>Node2&#45;&gt;Node10</title>
<path fill="none" stroke="midnightblue" d="M569.618,-186.403C532.541,-164.633 434.703,-107.187 389.617,-80.7145"/>
<polygon fill="midnightblue" stroke="midnightblue" points="391.234,-77.6049 380.838,-75.5598 387.689,-83.6413 391.234,-77.6049"/>
</g>
<!-- Node11 -->
<g id="node11" class="node"><title>Node11</title>
<g id="a_node11"><a xlink:href="../../df/d33/Generator_8hpp.html" target="_top" xlink:title="Core/Generator.hpp">
<polygon fill="white" stroke="red" points="650.26,-56.5 650.26,-75.5 752.26,-75.5 752.26,-56.5 650.26,-56.5"/>
<text text-anchor="middle" x="701.26" y="-63.5" font-family="Helvetica,sans-Serif" font-size="10.00">Core/Generator.hpp</text>
</a>
</g>
</g>
<!-- Node2&#45;&gt;Node11 -->
<g id="edge25" class="edge"><title>Node2&#45;&gt;Node11</title>
<path fill="none" stroke="midnightblue" d="M597.209,-186.405C610.839,-176.983 632.467,-160.938 648.26,-144 665.49,-125.52 681.365,-101.039 691.16,-84.6906"/>
<polygon fill="midnightblue" stroke="midnightblue" points="694.399,-86.0868 696.432,-75.6889 688.358,-82.5495 694.399,-86.0868"/>
</g>
<!-- Node12 -->
<g id="node12" class="node"><title>Node12</title>
<g id="a_node12"><a xlink:href="../../d8/dd4/DataPoint_8hpp.html" target="_top" xlink:title="dataPoint stores kinematic information of a dalitz plot ">
<polygon fill="white" stroke="red" points="193.76,-56.5 193.76,-75.5 296.76,-75.5 296.76,-56.5 193.76,-56.5"/>
<text text-anchor="middle" x="245.26" y="-63.5" font-family="Helvetica,sans-Serif" font-size="10.00">Core/DataPoint.hpp</text>
</a>
</g>
</g>
<!-- Node2&#45;&gt;Node12 -->
<g id="edge23" class="edge"><title>Node2&#45;&gt;Node12</title>
<path fill="none" stroke="midnightblue" d="M559.003,-186.456C529.986,-176.561 480.999,-159.616 439.26,-144 381,-122.202 313.643,-95.0156 275.585,-79.468"/>
<polygon fill="midnightblue" stroke="midnightblue" points="276.692,-76.1394 266.111,-75.5909 274.041,-82.6178 276.692,-76.1394"/>
</g>
<!-- Node6&#45;&gt;Node3 -->
<g id="edge7" class="edge"><title>Node6&#45;&gt;Node3</title>
<path fill="none" stroke="midnightblue" d="M503.525,-56.083C509.805,-48.3768 519.047,-37.0333 526.691,-27.6531"/>
<polygon fill="midnightblue" stroke="midnightblue" points="529.526,-29.7143 533.129,-19.7511 524.099,-25.2926 529.526,-29.7143"/>
</g>
<!-- Node6&#45;&gt;Node4 -->
<g id="edge6" class="edge"><title>Node6&#45;&gt;Node4</title>
<path fill="none" stroke="midnightblue" d="M535.556,-56.4435C583.046,-46.1031 662.286,-28.8492 708.251,-18.8407"/>
<polygon fill="midnightblue" stroke="midnightblue" points="709.054,-22.2479 718.08,-16.7003 707.565,-15.4081 709.054,-22.2479"/>
</g>
<!-- Node7 -->
<g id="node7" class="node"><title>Node7</title>
<g id="a_node7"><a xlink:href="../../da/db4/Logging_8hpp.html" target="_top" xlink:title="Core/Logging.hpp">
<polygon fill="white" stroke="red" points="319.76,-0.5 319.76,-19.5 412.76,-19.5 412.76,-0.5 319.76,-0.5"/>
<text text-anchor="middle" x="366.26" y="-7.5" font-family="Helvetica,sans-Serif" font-size="10.00">Core/Logging.hpp</text>
</a>
</g>
</g>
<!-- Node6&#45;&gt;Node7 -->
<g id="edge8" class="edge"><title>Node6&#45;&gt;Node7</title>
<path fill="none" stroke="midnightblue" d="M475.661,-56.4435C454.266,-47.5566 420.579,-33.5632 396.235,-23.4514"/>
<polygon fill="midnightblue" stroke="midnightblue" points="397.34,-20.1203 386.762,-19.5164 394.655,-26.5848 397.34,-20.1203"/>
</g>
<!-- Node8&#45;&gt;Node3 -->
<g id="edge10" class="edge"><title>Node8&#45;&gt;Node3</title>
<path fill="none" stroke="midnightblue" d="M814.604,-56.4435C746.631,-45.1842 629.175,-25.7283 572.584,-16.3543"/>
<polygon fill="midnightblue" stroke="midnightblue" points="572.867,-12.8536 562.43,-14.6723 571.723,-19.7595 572.867,-12.8536"/>
</g>
<!-- Node8&#45;&gt;Node4 -->
<g id="edge11" class="edge"><title>Node8&#45;&gt;Node4</title>
<path fill="none" stroke="midnightblue" d="M846.929,-56.4435C826.94,-47.5961 795.517,-33.6875 772.696,-23.5865"/>
<polygon fill="midnightblue" stroke="midnightblue" points="774.062,-20.3635 763.501,-19.5164 771.228,-26.7645 774.062,-20.3635"/>
</g>
<!-- Node9&#45;&gt;Node3 -->
<g id="edge13" class="edge"><title>Node9&#45;&gt;Node3</title>
<path fill="none" stroke="midnightblue" d="M582.489,-118.499C579.536,-104.976 573.049,-77.8625 564.26,-56 560.503,-46.6553 555.346,-36.7305 550.775,-28.586"/>
<polygon fill="midnightblue" stroke="midnightblue" points="553.665,-26.5919 545.624,-19.6931 547.608,-30.1006 553.665,-26.5919"/>
</g>
<!-- Node9&#45;&gt;Node4 -->
<g id="edge14" class="edge"><title>Node9&#45;&gt;Node4</title>
<path fill="none" stroke="midnightblue" d="M589.193,-118.455C597.981,-103.884 617.658,-74.0584 641.26,-56 661.328,-40.6447 687.448,-29.3099 708.363,-21.8571"/>
<polygon fill="midnightblue" stroke="midnightblue" points="709.534,-25.1556 717.863,-18.6077 707.269,-18.5323 709.534,-25.1556"/>
</g>
<!-- Node9&#45;&gt;Node6 -->
<g id="edge18" class="edge"><title>Node9&#45;&gt;Node6</title>
<path fill="none" stroke="midnightblue" d="M571.652,-118.403C557.537,-108.78 534.429,-93.0242 517.51,-81.4891"/>
<polygon fill="midnightblue" stroke="midnightblue" points="519.079,-78.3222 508.845,-75.5806 515.135,-84.1058 519.079,-78.3222"/>
</g>
<!-- Node9&#45;&gt;Node10 -->
<g id="edge15" class="edge"><title>Node9&#45;&gt;Node10</title>
<path fill="none" stroke="midnightblue" d="M553.026,-118.403C514.66,-107.844 449.473,-89.9027 407.149,-78.2538"/>
<polygon fill="midnightblue" stroke="midnightblue" points="408.006,-74.8598 397.436,-75.5806 406.149,-81.6088 408.006,-74.8598"/>
</g>
<!-- Node9&#45;&gt;Node11 -->
<g id="edge19" class="edge"><title>Node9&#45;&gt;Node11</title>
<path fill="none" stroke="midnightblue" d="M601.023,-118.403C620.485,-108.423 652.805,-91.8487 675.471,-80.2253"/>
<polygon fill="midnightblue" stroke="midnightblue" points="677.227,-83.2582 684.528,-75.5806 674.032,-77.0294 677.227,-83.2582"/>
</g>
<!-- Node9&#45;&gt;Node12 -->
<g id="edge20" class="edge"><title>Node9&#45;&gt;Node12</title>
<path fill="none" stroke="midnightblue" d="M536.049,-118.467C474.799,-107.626 369.175,-88.9318 303.49,-77.3062"/>
<polygon fill="midnightblue" stroke="midnightblue" points="303.761,-73.7999 293.304,-75.5034 302.541,-80.6927 303.761,-73.7999"/>
</g>
<!-- Node10&#45;&gt;Node3 -->
<g id="edge16" class="edge"><title>Node10&#45;&gt;Node3</title>
<path fill="none" stroke="midnightblue" d="M393.831,-56.4435C425.007,-46.768 475.687,-31.0397 508.496,-20.8577"/>
<polygon fill="midnightblue" stroke="midnightblue" points="509.55,-24.1954 518.063,-17.8886 507.475,-17.51 509.55,-24.1954"/>
</g>
<!-- Node10&#45;&gt;Node7 -->
<g id="edge17" class="edge"><title>Node10&#45;&gt;Node7</title>
<path fill="none" stroke="midnightblue" d="M366.26,-56.083C366.26,-49.0059 366.26,-38.8611 366.26,-29.9865"/>
<polygon fill="midnightblue" stroke="midnightblue" points="369.76,-29.751 366.26,-19.7511 362.76,-29.7511 369.76,-29.751"/>
</g>
<!-- Node12&#45;&gt;Node3 -->
<g id="edge22" class="edge"><title>Node12&#45;&gt;Node3</title>
<path fill="none" stroke="midnightblue" d="M292.003,-56.4435C352.345,-45.398 455.78,-26.4641 508.034,-16.8989"/>
<polygon fill="midnightblue" stroke="midnightblue" points="508.868,-20.3045 518.075,-15.061 507.608,-13.4189 508.868,-20.3045"/>
</g>
<!-- Node12&#45;&gt;Node5 -->
<g id="edge21" class="edge"><title>Node12&#45;&gt;Node5</title>
<path fill="none" stroke="midnightblue" d="M226.562,-56.4435C207.315,-47.6356 177.107,-33.8116 155.06,-23.722"/>
<polygon fill="midnightblue" stroke="midnightblue" points="156.419,-20.4951 145.87,-19.5164 153.506,-26.8603 156.419,-20.4951"/>
</g>
<!-- Node13&#45;&gt;Node2 -->
<g id="edge29" class="edge"><title>Node13&#45;&gt;Node2</title>
<path fill="none" stroke="midnightblue" d="M692.655,-248.841C668.571,-237.323 634.857,-221.199 611.449,-210.004"/>
<polygon fill="midnightblue" stroke="midnightblue" points="612.944,-206.839 602.413,-205.682 609.924,-213.154 612.944,-206.839"/>
</g>
<!-- Node13&#45;&gt;Node9 -->
<g id="edge30" class="edge"><title>Node13&#45;&gt;Node9</title>
<path fill="none" stroke="midnightblue" d="M711.772,-248.99C698.593,-231.819 674.833,-202.266 651.26,-180 636.963,-166.496 619.189,-153.1 605.542,-143.429"/>
<polygon fill="midnightblue" stroke="midnightblue" points="607.452,-140.494 597.247,-137.647 603.449,-146.237 607.452,-140.494"/>
</g>
<!-- Node14 -->
<g id="node14" class="node"><title>Node14</title>
<polygon fill="white" stroke="#bfbfbf" points="944.76,-113 944.76,-143 1045.76,-143 1045.76,-113 944.76,-113"/>
<text text-anchor="start" x="952.76" y="-131" font-family="Helvetica,sans-Serif" font-size="10.00">boost/property_tree</text>
<text text-anchor="middle" x="995.26" y="-120" font-family="Helvetica,sans-Serif" font-size="10.00">/ptree.hpp</text>
</g>
<!-- Node13&#45;&gt;Node14 -->
<g id="edge27" class="edge"><title>Node13&#45;&gt;Node14</title>
<path fill="none" stroke="midnightblue" d="M750.96,-248.913C800.524,-224.585 902.152,-174.701 957.426,-147.57"/>
<polygon fill="midnightblue" stroke="midnightblue" points="959.1,-150.648 966.535,-143.099 956.016,-144.364 959.1,-150.648"/>
</g>
<!-- Node15 -->
<g id="node15" class="node"><title>Node15</title>
<polygon fill="white" stroke="#bfbfbf" points="1063.76,-113 1063.76,-143 1164.76,-143 1164.76,-113 1063.76,-113"/>
<text text-anchor="start" x="1071.76" y="-131" font-family="Helvetica,sans-Serif" font-size="10.00">boost/property_tree</text>
<text text-anchor="middle" x="1114.26" y="-120" font-family="Helvetica,sans-Serif" font-size="10.00">/xml_parser.hpp</text>
</g>
<!-- Node13&#45;&gt;Node15 -->
<g id="edge28" class="edge"><title>Node13&#45;&gt;Node15</title>
<path fill="none" stroke="midnightblue" d="M789.288,-261.346C880.428,-257.802 1037.17,-246.698 1081.26,-212 1099.27,-197.825 1107.49,-172.348 1111.21,-153.347"/>
<polygon fill="midnightblue" stroke="midnightblue" points="1114.69,-153.746 1112.89,-143.306 1107.79,-152.592 1114.69,-153.746"/>
</g>
<!-- Node16 -->
<g id="node16" class="node"><title>Node16</title>
<g id="a_node16"><a xlink:href="../../d5/df6/SequentialTwoBodyDecay_8hpp.html" target="_top" xlink:title="Physics/HelicityFormalism\l/SequentialTwoBodyDecay.hpp">
<polygon fill="white" stroke="red" points="918.26,-181 918.26,-211 1072.26,-211 1072.26,-181 918.26,-181"/>
<text text-anchor="start" x="926.26" y="-199" font-family="Helvetica,sans-Serif" font-size="10.00">Physics/HelicityFormalism</text>
<text text-anchor="middle" x="995.26" y="-188" font-family="Helvetica,sans-Serif" font-size="10.00">/SequentialTwoBodyDecay.hpp</text>
</a>
</g>
</g>
<!-- Node13&#45;&gt;Node16 -->
<g id="edge31" class="edge"><title>Node13&#45;&gt;Node16</title>
<path fill="none" stroke="midnightblue" d="M780.49,-248.922C823.438,-238.539 881.999,-224.382 927.124,-213.472"/>
<polygon fill="midnightblue" stroke="midnightblue" points="928.221,-216.808 937.119,-211.056 926.576,-210.004 928.221,-216.808"/>
</g>
<!-- Node16&#45;&gt;Node14 -->
<g id="edge32" class="edge"><title>Node16&#45;&gt;Node14</title>
<path fill="none" stroke="midnightblue" d="M995.26,-180.679C995.26,-172.722 995.26,-162.605 995.26,-153.436"/>
<polygon fill="midnightblue" stroke="midnightblue" points="998.76,-153.293 995.26,-143.293 991.76,-153.293 998.76,-153.293"/>
</g>
<!-- Node16&#45;&gt;Node15 -->
<g id="edge33" class="edge"><title>Node16&#45;&gt;Node15</title>
<path fill="none" stroke="midnightblue" d="M1020.79,-180.841C1038.04,-171.272 1061.03,-158.523 1079.89,-148.062"/>
<polygon fill="midnightblue" stroke="midnightblue" points="1081.73,-151.046 1088.77,-143.135 1078.33,-144.925 1081.73,-151.046"/>
</g>
<!-- Node17&#45;&gt;Node2 -->
<g id="edge39" class="edge"><title>Node17&#45;&gt;Node2</title>
<path fill="none" stroke="midnightblue" d="M192.502,-254.973C273.98,-242.916 427.841,-220.147 516.562,-207.018"/>
<polygon fill="midnightblue" stroke="midnightblue" points="517.141,-210.471 526.521,-205.544 516.117,-203.546 517.141,-210.471"/>
</g>
<!-- Node17&#45;&gt;Node5 -->
<g id="edge36" class="edge"><title>Node17&#45;&gt;Node5</title>
<path fill="none" stroke="midnightblue" d="M84.0604,-255.332C57.7222,-248.575 28.3518,-235.874 12.2598,-212 -32.8227,-145.117 63.3861,-59.6166 107.117,-25.7571"/>
<polygon fill="midnightblue" stroke="midnightblue" points="109.256,-28.5278 115.106,-19.6946 105.024,-22.9515 109.256,-28.5278"/>
</g>
<!-- Node17&#45;&gt;Node7 -->
<g id="edge38" class="edge"><title>Node17&#45;&gt;Node7</title>
<path fill="none" stroke="midnightblue" d="M139.641,-254.3C145.658,-216.858 169.92,-70.6837 184.26,-56 201.58,-38.2644 262.724,-25.7028 309.408,-18.4371"/>
<polygon fill="midnightblue" stroke="midnightblue" points="310.063,-21.878 319.428,-16.9234 309.017,-14.9565 310.063,-21.878"/>
</g>
<!-- Node18 -->
<g id="node18" class="node"><title>Node18</title>
<polygon fill="white" stroke="#bfbfbf" points="21.2598,-186.5 21.2598,-205.5 65.2598,-205.5 65.2598,-186.5 21.2598,-186.5"/>
<text text-anchor="middle" x="43.2598" y="-193.5" font-family="Helvetica,sans-Serif" font-size="10.00">cmath</text>
</g>
<!-- Node17&#45;&gt;Node18 -->
<g id="edge35" class="edge"><title>Node17&#45;&gt;Node18</title>
<path fill="none" stroke="midnightblue" d="M125.84,-254.372C110.123,-243.452 82.827,-224.489 63.9424,-211.369"/>
<polygon fill="midnightblue" stroke="midnightblue" points="65.892,-208.462 55.6824,-205.63 61.8981,-214.21 65.892,-208.462"/>
</g>
<!-- Node19 -->
<g id="node19" class="node"><title>Node19</title>
<polygon fill="white" stroke="#bfbfbf" points="83.7598,-186.5 83.7598,-205.5 136.76,-205.5 136.76,-186.5 83.7598,-186.5"/>
<text text-anchor="middle" x="110.26" y="-193.5" font-family="Helvetica,sans-Serif" font-size="10.00">complex</text>
</g>
<!-- Node17&#45;&gt;Node19 -->
<g id="edge37" class="edge"><title>Node17&#45;&gt;Node19</title>
<path fill="none" stroke="midnightblue" d="M134.599,-254.372C130.388,-244.446 123.358,-227.874 117.933,-215.086"/>
<polygon fill="midnightblue" stroke="midnightblue" points="121.138,-213.68 114.011,-205.841 114.694,-216.414 121.138,-213.68"/>
</g>
</g>
</svg>
