<?xml version="1.0" encoding="UTF-8" standalone="no"?>
<!DOCTYPE svg PUBLIC "-//W3C//DTD SVG 1.1//EN"
 "http://www.w3.org/Graphics/SVG/1.1/DTD/svg11.dtd">
<!-- Generated by graphviz version 2.36.0 (20140111.2315)
 -->
<!-- Title: /home/travis/build/ComPWA/ComPWA/Physics/HelicityFormalism/IncoherentIntensity.hpp Pages: 1 -->
<svg width="1280pt" height="446pt"
 viewBox="0.00 0.00 1279.95 446.00" xmlns="http://www.w3.org/2000/svg" xmlns:xlink="http://www.w3.org/1999/xlink">
<g id="graph0" class="graph" transform="scale(1 1) rotate(0) translate(4 442)">
<title>/home/travis/build/ComPWA/ComPWA/Physics/HelicityFormalism/IncoherentIntensity.hpp</title>
<polygon fill="white" stroke="none" points="-4,4 -4,-442 1275.95,-442 1275.95,4 -4,4"/>
<!-- Node1 -->
<g id="node1" class="node"><title>Node1</title>
<polygon fill="#bfbfbf" stroke="black" points="725.249,-385 725.249,-437 874.249,-437 874.249,-385 725.249,-385"/>
<text text-anchor="start" x="733.249" y="-425" font-family="Helvetica,sans-Serif" font-size="10.00">/home/travis/build</text>
<text text-anchor="start" x="733.249" y="-414" font-family="Helvetica,sans-Serif" font-size="10.00">/ComPWA/ComPWA/Physics</text>
<text text-anchor="start" x="733.249" y="-403" font-family="Helvetica,sans-Serif" font-size="10.00">/HelicityFormalism/Incoherent</text>
<text text-anchor="middle" x="799.749" y="-392" font-family="Helvetica,sans-Serif" font-size="10.00">Intensity.hpp</text>
</g>
<!-- Node2 -->
<g id="node2" class="node"><title>Node2</title>
<g id="a_node2"><a xlink:href="../../dc/dfd/AmpIntensity_8hpp.html" target="_top" xlink:title="Core/AmpIntensity.hpp">
<polygon fill="white" stroke="black" points="604.249,-254.5 604.249,-273.5 721.249,-273.5 721.249,-254.5 604.249,-254.5"/>
<text text-anchor="middle" x="662.749" y="-261.5" font-family="Helvetica,sans-Serif" font-size="10.00">Core/AmpIntensity.hpp</text>
</a>
</g>
</g>
<!-- Node1&#45;&gt;Node2 -->
<g id="edge1" class="edge"><title>Node1&#45;&gt;Node2</title>
<path fill="none" stroke="midnightblue" d="M765.24,-384.859C751.64,-374.202 736.303,-361.205 723.749,-348 703.892,-327.114 684.862,-299.632 673.486,-282.135"/>
<polygon fill="midnightblue" stroke="midnightblue" points="676.332,-280.089 667.998,-273.548 670.434,-283.859 676.332,-280.089"/>
</g>
<!-- Node19 -->
<g id="node19" class="node"><title>Node19</title>
<g id="a_node19"><a xlink:href="../../df/d1f/CoherentIntensity_8hpp.html" target="_top" xlink:title="Physics/HelicityFormalism\l/CoherentIntensity.hpp">
<polygon fill="white" stroke="black" points="732.749,-317 732.749,-347 866.749,-347 866.749,-317 732.749,-317"/>
<text text-anchor="start" x="740.749" y="-335" font-family="Helvetica,sans-Serif" font-size="10.00">Physics/HelicityFormalism</text>
<text text-anchor="middle" x="799.749" y="-324" font-family="Helvetica,sans-Serif" font-size="10.00">/CoherentIntensity.hpp</text>
</a>
</g>
</g>
<!-- Node1&#45;&gt;Node19 -->
<g id="edge37" class="edge"><title>Node1&#45;&gt;Node19</title>
<path fill="none" stroke="midnightblue" d="M799.749,-384.787C799.749,-376.029 799.749,-366.225 799.749,-357.523"/>
<polygon fill="midnightblue" stroke="midnightblue" points="803.249,-357.252 799.749,-347.252 796.249,-357.252 803.249,-357.252"/>
</g>
<!-- Node23 -->
<g id="node23" class="node"><title>Node23</title>
<g id="a_node23"><a xlink:href="../../d0/d27/Integration_8hpp.html" target="_top" xlink:title="Tools/Integration.hpp">
<polygon fill="white" stroke="black" points="1069.75,-322.5 1069.75,-341.5 1177.75,-341.5 1177.75,-322.5 1069.75,-322.5"/>
<text text-anchor="middle" x="1123.75" y="-329.5" font-family="Helvetica,sans-Serif" font-size="10.00">Tools/Integration.hpp</text>
</a>
</g>
</g>
<!-- Node1&#45;&gt;Node23 -->
<g id="edge45" class="edge"><title>Node1&#45;&gt;Node23</title>
<path fill="none" stroke="midnightblue" d="M874.488,-392.238C937.342,-377.3 1025.18,-356.426 1078.05,-343.861"/>
<polygon fill="midnightblue" stroke="midnightblue" points="1078.9,-347.256 1087.82,-341.538 1077.28,-340.445 1078.9,-347.256"/>
</g>
<!-- Node3 -->
<g id="node3" class="node"><title>Node3</title>
<polygon fill="white" stroke="#bfbfbf" points="391.749,-0.5 391.749,-19.5 435.749,-19.5 435.749,-0.5 391.749,-0.5"/>
<text text-anchor="middle" x="413.749" y="-7.5" font-family="Helvetica,sans-Serif" font-size="10.00">vector</text>
</g>
<!-- Node2&#45;&gt;Node3 -->
<g id="edge2" class="edge"><title>Node2&#45;&gt;Node3</title>
<path fill="none" stroke="midnightblue" d="M604.128,-259.889C463.748,-251.235 113.863,-222.153 31.7488,-144 2.83171,-116.478 -12.8549,-85.7644 13.7488,-56 38.1383,-28.7129 290.457,-15.9512 381.345,-12.2145"/>
<polygon fill="midnightblue" stroke="midnightblue" points="381.751,-15.7011 391.603,-11.8032 381.47,-8.70675 381.751,-15.7011"/>
</g>
<!-- Node4 -->
<g id="node4" class="node"><title>Node4</title>
<polygon fill="white" stroke="#bfbfbf" points="513.749,-62.5 513.749,-81.5 565.749,-81.5 565.749,-62.5 513.749,-62.5"/>
<text text-anchor="middle" x="539.749" y="-69.5" font-family="Helvetica,sans-Serif" font-size="10.00">memory</text>
</g>
<!-- Node2&#45;&gt;Node4 -->
<g id="edge3" class="edge"><title>Node2&#45;&gt;Node4</title>
<path fill="none" stroke="midnightblue" d="M652.458,-254.274C631.572,-235.999 584.051,-191.454 558.749,-144 549.946,-127.491 544.994,-106.602 542.369,-91.7656"/>
<polygon fill="midnightblue" stroke="midnightblue" points="545.808,-91.1045 540.791,-81.7731 538.894,-92.1968 545.808,-91.1045"/>
</g>
<!-- Node5 -->
<g id="node5" class="node"><title>Node5</title>
<polygon fill="white" stroke="#bfbfbf" points="848.249,-62.5 848.249,-81.5 895.249,-81.5 895.249,-62.5 848.249,-62.5"/>
<text text-anchor="middle" x="871.749" y="-69.5" font-family="Helvetica,sans-Serif" font-size="10.00">math.h</text>
</g>
<!-- Node2&#45;&gt;Node5 -->
<g id="edge4" class="edge"><title>Node2&#45;&gt;Node5</title>
<path fill="none" stroke="midnightblue" d="M699.001,-254.475C725.555,-246.812 761.259,-233.407 786.749,-212 826.875,-178.3 853.438,-120.586 865.055,-91.2599"/>
<polygon fill="midnightblue" stroke="midnightblue" points="868.356,-92.4275 868.656,-81.8369 861.817,-89.9285 868.356,-92.4275"/>
</g>
<!-- Node6 -->
<g id="node6" class="node"><title>Node6</title>
<g id="a_node6"><a xlink:href="../../df/d9f/ParameterList_8hpp.html" target="_top" xlink:title="This class provides a list of fit parameters which can have different types. ">
<polygon fill="white" stroke="red" points="195.749,-124.5 195.749,-143.5 315.749,-143.5 315.749,-124.5 195.749,-124.5"/>
<text text-anchor="middle" x="255.749" y="-131.5" font-family="Helvetica,sans-Serif" font-size="10.00">Core/ParameterList.hpp</text>
</a>
</g>
</g>
<!-- Node2&#45;&gt;Node6 -->
<g id="edge5" class="edge"><title>Node2&#45;&gt;Node6</title>
<path fill="none" stroke="midnightblue" d="M604.041,-258.859C520.643,-252.181 372.764,-237.173 325.749,-212 299.708,-198.057 278.377,-170.516 266.362,-152.433"/>
<polygon fill="midnightblue" stroke="midnightblue" points="269.284,-150.506 260.953,-143.961 263.385,-154.273 269.284,-150.506"/>
</g>
<!-- Node14 -->
<g id="node14" class="node"><title>Node14</title>
<g id="a_node14"><a xlink:href="../../da/db2/FunctionTree_8hpp.html" target="_top" xlink:title="This class can be used to store a function in a tree&#45;like structure. ">
<polygon fill="white" stroke="red" points="567.749,-124.5 567.749,-143.5 683.749,-143.5 683.749,-124.5 567.749,-124.5"/>
<text text-anchor="middle" x="625.749" y="-131.5" font-family="Helvetica,sans-Serif" font-size="10.00">Core/FunctionTree.hpp</text>
</a>
</g>
</g>
<!-- Node2&#45;&gt;Node14 -->
<g id="edge15" class="edge"><title>Node2&#45;&gt;Node14</title>
<path fill="none" stroke="midnightblue" d="M660.206,-254.202C654.21,-233.459 639.087,-181.144 631.016,-153.222"/>
<polygon fill="midnightblue" stroke="midnightblue" points="634.352,-152.157 628.212,-143.522 627.627,-154.101 634.352,-152.157"/>
</g>
<!-- Node15 -->
<g id="node15" class="node"><title>Node15</title>
<g id="a_node15"><a xlink:href="../../d2/d4b/Data_8hpp.html" target="_top" xlink:title="DataReader/Data.hpp">
<polygon fill="white" stroke="red" points="334.749,-186.5 334.749,-205.5 446.749,-205.5 446.749,-186.5 334.749,-186.5"/>
<text text-anchor="middle" x="390.749" y="-193.5" font-family="Helvetica,sans-Serif" font-size="10.00">DataReader/Data.hpp</text>
</a>
</g>
</g>
<!-- Node2&#45;&gt;Node15 -->
<g id="edge20" class="edge"><title>Node2&#45;&gt;Node15</title>
<path fill="none" stroke="midnightblue" d="M627.468,-254.439C578.449,-242.545 489.712,-221.013 435.913,-207.959"/>
<polygon fill="midnightblue" stroke="midnightblue" points="436.51,-204.502 425.967,-205.546 434.859,-211.305 436.51,-204.502"/>
</g>
<!-- Node16 -->
<g id="node16" class="node"><title>Node16</title>
<g id="a_node16"><a xlink:href="../../df/d33/Generator_8hpp.html" target="_top" xlink:title="Core/Generator.hpp">
<polygon fill="white" stroke="red" points="409.749,-124.5 409.749,-143.5 511.749,-143.5 511.749,-124.5 409.749,-124.5"/>
<text text-anchor="middle" x="460.749" y="-131.5" font-family="Helvetica,sans-Serif" font-size="10.00">Core/Generator.hpp</text>
</a>
</g>
</g>
<!-- Node2&#45;&gt;Node16 -->
<g id="edge36" class="edge"><title>Node2&#45;&gt;Node16</title>
<path fill="none" stroke="midnightblue" d="M624.791,-254.492C595.802,-246.723 555.848,-233.173 525.749,-212 502.69,-195.779 482.904,-169.466 471.408,-152.196"/>
<polygon fill="midnightblue" stroke="midnightblue" points="474.264,-150.166 465.907,-143.653 468.378,-153.956 474.264,-150.166"/>
</g>
<!-- Node17 -->
<g id="node17" class="node"><title>Node17</title>
<g id="a_node17"><a xlink:href="../../d8/dd4/DataPoint_8hpp.html" target="_top" xlink:title="dataPoint stores kinematic information of a dalitz plot ">
<polygon fill="white" stroke="red" points="702.249,-124.5 702.249,-143.5 805.249,-143.5 805.249,-124.5 702.249,-124.5"/>
<text text-anchor="middle" x="753.749" y="-131.5" font-family="Helvetica,sans-Serif" font-size="10.00">Core/DataPoint.hpp</text>
</a>
</g>
</g>
<!-- Node2&#45;&gt;Node17 -->
<g id="edge34" class="edge"><title>Node2&#45;&gt;Node17</title>
<path fill="none" stroke="midnightblue" d="M669.004,-254.202C684.012,-233.092 722.267,-179.282 741.832,-151.762"/>
<polygon fill="midnightblue" stroke="midnightblue" points="744.748,-153.701 747.69,-143.522 739.043,-149.645 744.748,-153.701"/>
</g>
<!-- Node18 -->
<g id="node18" class="node"><title>Node18</title>
<g id="a_node18"><a xlink:href="../../d8/d6f/Efficiency_8hpp.html" target="_top" xlink:title="Core/Efficiency.hpp">
<polygon fill="white" stroke="black" points="714.249,-62.5 714.249,-81.5 817.249,-81.5 817.249,-62.5 714.249,-62.5"/>
<text text-anchor="middle" x="765.749" y="-69.5" font-family="Helvetica,sans-Serif" font-size="10.00">Core/Efficiency.hpp</text>
</a>
</g>
</g>
<!-- Node2&#45;&gt;Node18 -->
<g id="edge35" class="edge"><title>Node2&#45;&gt;Node18</title>
<path fill="none" stroke="midnightblue" d="M682.706,-254.476C717.032,-238.571 786.214,-200.757 813.749,-144 823.795,-123.292 804.175,-101.687 787.072,-87.8287"/>
<polygon fill="midnightblue" stroke="midnightblue" points="789.093,-84.9683 779.019,-81.6861 784.847,-90.5339 789.093,-84.9683"/>
</g>
<!-- Node6&#45;&gt;Node3 -->
<g id="edge10" class="edge"><title>Node6&#45;&gt;Node3</title>
<path fill="none" stroke="midnightblue" d="M271.921,-124.376C287.317,-115.89 310.873,-102.176 329.749,-88 355.306,-68.8059 382.061,-43.1703 398.323,-26.8685"/>
<polygon fill="midnightblue" stroke="midnightblue" points="400.879,-29.2611 405.412,-19.6847 395.897,-24.3443 400.879,-29.2611"/>
</g>
<!-- Node6&#45;&gt;Node4 -->
<g id="edge8" class="edge"><title>Node6&#45;&gt;Node4</title>
<path fill="none" stroke="midnightblue" d="M315.971,-125.77C366.722,-118.803 440.903,-106.559 503.749,-88 506.397,-87.218 509.115,-86.3045 511.813,-85.3212"/>
<polygon fill="midnightblue" stroke="midnightblue" points="513.322,-88.4889 521.341,-81.5647 510.754,-81.9768 513.322,-88.4889"/>
</g>
<!-- Node7 -->
<g id="node7" class="node"><title>Node7</title>
<polygon fill="white" stroke="#bfbfbf" points="518.749,-0.5 518.749,-19.5 572.749,-19.5 572.749,-0.5 518.749,-0.5"/>
<text text-anchor="middle" x="545.749" y="-7.5" font-family="Helvetica,sans-Serif" font-size="10.00">iostream</text>
</g>
<!-- Node6&#45;&gt;Node7 -->
<g id="edge6" class="edge"><title>Node6&#45;&gt;Node7</title>
<path fill="none" stroke="midnightblue" d="M279.691,-124.356C301.757,-116.06 335.163,-102.654 362.749,-88 385.719,-75.7975 388.342,-67.3431 411.749,-56 443.179,-40.769 481.077,-28.5651 508.538,-20.7298"/>
<polygon fill="midnightblue" stroke="midnightblue" points="509.826,-24.0041 518.516,-17.9436 507.943,-17.262 509.826,-24.0041"/>
</g>
<!-- Node8 -->
<g id="node8" class="node"><title>Node8</title>
<polygon fill="white" stroke="#bfbfbf" points="454.249,-62.5 454.249,-81.5 495.249,-81.5 495.249,-62.5 454.249,-62.5"/>
<text text-anchor="middle" x="474.749" y="-69.5" font-family="Helvetica,sans-Serif" font-size="10.00">string</text>
</g>
<!-- Node6&#45;&gt;Node8 -->
<g id="edge7" class="edge"><title>Node6&#45;&gt;Node8</title>
<path fill="none" stroke="midnightblue" d="M299.448,-124.439C337.096,-116.562 392.649,-103.733 439.749,-88 442.163,-87.1936 444.643,-86.2905 447.113,-85.3381"/>
<polygon fill="midnightblue" stroke="midnightblue" points="448.513,-88.5471 456.442,-81.5199 445.861,-82.0688 448.513,-88.5471"/>
</g>
<!-- Node9 -->
<g id="node9" class="node"><title>Node9</title>
<polygon fill="white" stroke="#bfbfbf" points="42.7488,-62.5 42.7488,-81.5 94.7488,-81.5 94.7488,-62.5 42.7488,-62.5"/>
<text text-anchor="middle" x="68.7488" y="-69.5" font-family="Helvetica,sans-Serif" font-size="10.00">sstream</text>
</g>
<!-- Node6&#45;&gt;Node9 -->
<g id="edge9" class="edge"><title>Node6&#45;&gt;Node9</title>
<path fill="none" stroke="midnightblue" d="M222.775,-124.437C191.742,-116.097 144.132,-102.575 103.749,-88 101.493,-87.1858 99.1732,-86.301 96.8534,-85.3821"/>
<polygon fill="midnightblue" stroke="midnightblue" points="98.0568,-82.0924 87.4783,-81.5056 95.382,-88.5612 98.0568,-82.0924"/>
</g>
<!-- Node10 -->
<g id="node10" class="node"><title>Node10</title>
<polygon fill="white" stroke="#bfbfbf" points="622.249,-62.5 622.249,-81.5 657.249,-81.5 657.249,-62.5 622.249,-62.5"/>
<text text-anchor="middle" x="639.749" y="-69.5" font-family="Helvetica,sans-Serif" font-size="10.00">map</text>
</g>
<!-- Node6&#45;&gt;Node10 -->
<g id="edge11" class="edge"><title>Node6&#45;&gt;Node10</title>
<path fill="none" stroke="midnightblue" d="M315.971,-126.084C380.296,-118.328 485.113,-104.633 574.749,-88 587.129,-85.7029 600.716,-82.6515 612.254,-79.9008"/>
<polygon fill="midnightblue" stroke="midnightblue" points="613.288,-83.2514 622.179,-77.4895 611.635,-76.4493 613.288,-83.2514"/>
</g>
<!-- Node11 -->
<g id="node11" class="node"><title>Node11</title>
<polygon fill="white" stroke="#bfbfbf" points="113.249,-57 113.249,-87 208.249,-87 208.249,-57 113.249,-57"/>
<text text-anchor="start" x="121.249" y="-75" font-family="Helvetica,sans-Serif" font-size="10.00">boost/serialization</text>
<text text-anchor="middle" x="160.749" y="-64" font-family="Helvetica,sans-Serif" font-size="10.00">/vector.hpp</text>
</g>
<!-- Node6&#45;&gt;Node11 -->
<g id="edge12" class="edge"><title>Node6&#45;&gt;Node11</title>
<path fill="none" stroke="midnightblue" d="M242.138,-124.403C229.031,-116.125 208.741,-103.311 191.699,-92.5474"/>
<polygon fill="midnightblue" stroke="midnightblue" points="193.462,-89.5216 183.138,-87.1408 189.724,-95.44 193.462,-89.5216"/>
</g>
<!-- Node12 -->
<g id="node12" class="node"><title>Node12</title>
<polygon fill="white" stroke="#bfbfbf" points="226.249,-57 226.249,-87 321.249,-87 321.249,-57 226.249,-57"/>
<text text-anchor="start" x="234.249" y="-75" font-family="Helvetica,sans-Serif" font-size="10.00">boost/serialization</text>
<text text-anchor="middle" x="273.749" y="-64" font-family="Helvetica,sans-Serif" font-size="10.00">/shared_ptr.hpp</text>
</g>
<!-- Node6&#45;&gt;Node12 -->
<g id="edge13" class="edge"><title>Node6&#45;&gt;Node12</title>
<path fill="none" stroke="midnightblue" d="M258.328,-124.403C260.492,-117.189 263.691,-106.528 266.614,-96.7823"/>
<polygon fill="midnightblue" stroke="midnightblue" points="269.985,-97.7248 269.507,-87.1408 263.281,-95.7133 269.985,-97.7248"/>
</g>
<!-- Node13 -->
<g id="node13" class="node"><title>Node13</title>
<g id="a_node13"><a xlink:href="../../da/db4/Logging_8hpp.html" target="_top" xlink:title="Core/Logging.hpp">
<polygon fill="white" stroke="red" points="719.249,-0.5 719.249,-19.5 812.249,-19.5 812.249,-0.5 719.249,-0.5"/>
<text text-anchor="middle" x="765.749" y="-7.5" font-family="Helvetica,sans-Serif" font-size="10.00">Core/Logging.hpp</text>
</a>
</g>
</g>
<!-- Node6&#45;&gt;Node13 -->
<g id="edge14" class="edge"><title>Node6&#45;&gt;Node13</title>
<path fill="none" stroke="midnightblue" d="M296.203,-124.465C326.33,-117.187 367.922,-105.156 401.749,-88 422.995,-77.2244 422.711,-65.0465 444.749,-56 532.213,-20.0959 643.135,-11.9366 709.051,-10.5693"/>
<polygon fill="midnightblue" stroke="midnightblue" points="709.291,-14.066 719.234,-10.405 709.178,-7.06691 709.291,-14.066"/>
</g>
<!-- Node14&#45;&gt;Node3 -->
<g id="edge16" class="edge"><title>Node14&#45;&gt;Node3</title>
<path fill="none" stroke="midnightblue" d="M622.447,-124.366C615.882,-108.371 599.64,-74.1168 574.749,-56 536.152,-27.9075 480.688,-17.3375 445.966,-13.3705"/>
<polygon fill="midnightblue" stroke="midnightblue" points="446.202,-9.87642 435.897,-12.3392 445.489,-16.84 446.202,-9.87642"/>
</g>
<!-- Node14&#45;&gt;Node4 -->
<g id="edge17" class="edge"><title>Node14&#45;&gt;Node4</title>
<path fill="none" stroke="midnightblue" d="M613.427,-124.403C599.633,-114.78 577.05,-99.0242 560.516,-87.4891"/>
<polygon fill="midnightblue" stroke="midnightblue" points="562.252,-84.432 552.048,-81.5806 558.246,-90.1729 562.252,-84.432"/>
</g>
<!-- Node14&#45;&gt;Node8 -->
<g id="edge18" class="edge"><title>Node14&#45;&gt;Node8</title>
<path fill="none" stroke="midnightblue" d="M600.408,-124.469C575.707,-115.945 537.228,-102.111 504.749,-88 503.347,-87.3909 501.917,-86.749 500.48,-86.0875"/>
<polygon fill="midnightblue" stroke="midnightblue" points="501.632,-82.7577 491.103,-81.5753 498.596,-89.0654 501.632,-82.7577"/>
</g>
<!-- Node14&#45;&gt;Node10 -->
<g id="edge19" class="edge"><title>Node14&#45;&gt;Node10</title>
<path fill="none" stroke="midnightblue" d="M627.755,-124.403C629.751,-115.849 632.877,-102.45 635.438,-91.4762"/>
<polygon fill="midnightblue" stroke="midnightblue" points="638.883,-92.1143 637.747,-81.5806 632.066,-90.5237 638.883,-92.1143"/>
</g>
<!-- Node15&#45;&gt;Node3 -->
<g id="edge21" class="edge"><title>Node15&#45;&gt;Node3</title>
<path fill="none" stroke="midnightblue" d="M334.744,-192.26C213.657,-184.415 -54.7192,-155.563 33.7488,-56 56.7292,-30.1377 293.922,-16.5685 381.494,-12.4105"/>
<polygon fill="midnightblue" stroke="midnightblue" points="381.818,-15.8994 391.645,-11.9392 381.493,-8.90691 381.818,-15.8994"/>
</g>
<!-- Node15&#45;&gt;Node4 -->
<g id="edge23" class="edge"><title>Node15&#45;&gt;Node4</title>
<path fill="none" stroke="midnightblue" d="M389.348,-186.462C387.469,-171.901 385.902,-142.09 400.749,-124 431.513,-86.5146 458.459,-105.333 503.749,-88 505.855,-87.1938 508.023,-86.3434 510.201,-85.474"/>
<polygon fill="midnightblue" stroke="midnightblue" points="511.713,-88.6371 519.65,-81.6186 509.069,-82.1559 511.713,-88.6371"/>
</g>
<!-- Node15&#45;&gt;Node6 -->
<g id="edge24" class="edge"><title>Node15&#45;&gt;Node6</title>
<path fill="none" stroke="midnightblue" d="M371.407,-186.403C348.65,-176.29 310.657,-159.404 284.461,-147.761"/>
<polygon fill="midnightblue" stroke="midnightblue" points="285.615,-144.444 275.055,-143.581 282.772,-150.84 285.615,-144.444"/>
</g>
<!-- Node15&#45;&gt;Node8 -->
<g id="edge22" class="edge"><title>Node15&#45;&gt;Node8</title>
<path fill="none" stroke="midnightblue" d="M383.295,-186.095C372.473,-172.019 355.024,-144.161 367.749,-124 370.041,-120.369 414.841,-99.7873 445.738,-85.9057"/>
<polygon fill="midnightblue" stroke="midnightblue" points="447.513,-88.9457 455.209,-81.6641 444.652,-82.5571 447.513,-88.9457"/>
</g>
<!-- Node15&#45;&gt;Node16 -->
<g id="edge25" class="edge"><title>Node15&#45;&gt;Node16</title>
<path fill="none" stroke="midnightblue" d="M400.778,-186.403C411.798,-176.958 429.709,-161.606 443.092,-150.134"/>
<polygon fill="midnightblue" stroke="midnightblue" points="445.423,-152.746 450.738,-143.581 440.868,-147.431 445.423,-152.746"/>
</g>
<!-- Node15&#45;&gt;Node17 -->
<g id="edge26" class="edge"><title>Node15&#45;&gt;Node17</title>
<path fill="none" stroke="midnightblue" d="M442.372,-186.467C508.229,-175.582 621.993,-156.778 692.262,-145.163"/>
<polygon fill="midnightblue" stroke="midnightblue" points="693.008,-148.587 702.303,-143.503 691.866,-141.681 693.008,-148.587"/>
</g>
<!-- Node17&#45;&gt;Node3 -->
<g id="edge28" class="edge"><title>Node17&#45;&gt;Node3</title>
<path fill="none" stroke="midnightblue" d="M744.582,-124.476C723.949,-105.366 674.944,-60.4166 665.749,-56 627.375,-37.569 505.31,-21.5226 446.304,-14.6135"/>
<polygon fill="midnightblue" stroke="midnightblue" points="446.389,-11.1003 436.054,-13.4313 445.587,-18.0542 446.389,-11.1003"/>
</g>
<!-- Node17&#45;&gt;Node5 -->
<g id="edge27" class="edge"><title>Node17&#45;&gt;Node5</title>
<path fill="none" stroke="midnightblue" d="M770.655,-124.403C790.283,-114.423 822.88,-97.8487 845.739,-86.2253"/>
<polygon fill="midnightblue" stroke="midnightblue" points="847.546,-89.233 854.874,-81.5806 844.373,-82.9933 847.546,-89.233"/>
</g>
<!-- Node17&#45;&gt;Node10 -->
<g id="edge29" class="edge"><title>Node17&#45;&gt;Node10</title>
<path fill="none" stroke="midnightblue" d="M737.415,-124.403C718.538,-114.468 687.242,-97.9966 665.173,-86.3812"/>
<polygon fill="midnightblue" stroke="midnightblue" points="666.531,-83.1409 656.052,-81.5806 663.271,-89.3353 666.531,-83.1409"/>
</g>
<!-- Node17&#45;&gt;Node18 -->
<g id="edge30" class="edge"><title>Node17&#45;&gt;Node18</title>
<path fill="none" stroke="midnightblue" d="M755.468,-124.403C757.179,-115.849 759.859,-102.45 762.054,-91.4762"/>
<polygon fill="midnightblue" stroke="midnightblue" points="765.504,-92.0728 764.033,-81.5806 758.639,-90.7 765.504,-92.0728"/>
</g>
<!-- Node18&#45;&gt;Node3 -->
<g id="edge32" class="edge"><title>Node18&#45;&gt;Node3</title>
<path fill="none" stroke="midnightblue" d="M730.218,-62.4629C720.378,-60.2245 709.673,-57.9062 699.749,-56 608.313,-38.4369 499.457,-22.7296 446.265,-15.3881"/>
<polygon fill="midnightblue" stroke="midnightblue" points="446.471,-11.8837 436.088,-13.9921 445.519,-18.8187 446.471,-11.8837"/>
</g>
<!-- Node18&#45;&gt;Node7 -->
<g id="edge31" class="edge"><title>Node18&#45;&gt;Node7</title>
<path fill="none" stroke="midnightblue" d="M734.228,-62.4035C694.19,-51.484 625.208,-32.6708 582.727,-21.085"/>
<polygon fill="midnightblue" stroke="midnightblue" points="583.618,-17.7002 573.049,-18.4456 581.776,-24.4536 583.618,-17.7002"/>
</g>
<!-- Node18&#45;&gt;Node13 -->
<g id="edge33" class="edge"><title>Node18&#45;&gt;Node13</title>
<path fill="none" stroke="midnightblue" d="M765.749,-62.4035C765.749,-53.9381 765.749,-40.7283 765.749,-29.8199"/>
<polygon fill="midnightblue" stroke="midnightblue" points="769.249,-29.5806 765.749,-19.5806 762.249,-29.5806 769.249,-29.5806"/>
</g>
<!-- Node19&#45;&gt;Node2 -->
<g id="edge40" class="edge"><title>Node19&#45;&gt;Node2</title>
<path fill="none" stroke="midnightblue" d="M770.359,-316.841C746.556,-305.374 713.277,-289.342 690.052,-278.153"/>
<polygon fill="midnightblue" stroke="midnightblue" points="691.298,-274.869 680.77,-273.682 688.26,-281.175 691.298,-274.869"/>
</g>
<!-- Node19&#45;&gt;Node15 -->
<g id="edge41" class="edge"><title>Node19&#45;&gt;Node15</title>
<path fill="none" stroke="midnightblue" d="M733.06,-316.942C692.636,-307.797 640.253,-294.834 594.749,-280 530.51,-259.059 457.755,-227.481 418.849,-209.928"/>
<polygon fill="midnightblue" stroke="midnightblue" points="419.812,-206.522 409.26,-205.576 416.919,-212.896 419.812,-206.522"/>
</g>
<!-- Node20 -->
<g id="node20" class="node"><title>Node20</title>
<polygon fill="white" stroke="#bfbfbf" points="969.249,-181 969.249,-211 1070.25,-211 1070.25,-181 969.249,-181"/>
<text text-anchor="start" x="977.249" y="-199" font-family="Helvetica,sans-Serif" font-size="10.00">boost/property_tree</text>
<text text-anchor="middle" x="1019.75" y="-188" font-family="Helvetica,sans-Serif" font-size="10.00">/ptree.hpp</text>
</g>
<!-- Node19&#45;&gt;Node20 -->
<g id="edge38" class="edge"><title>Node19&#45;&gt;Node20</title>
<path fill="none" stroke="midnightblue" d="M866.935,-328.436C907.412,-323.5 957.406,-310.925 990.749,-280 1007.12,-264.815 1014.25,-239.882 1017.36,-221.3"/>
<polygon fill="midnightblue" stroke="midnightblue" points="1020.85,-221.601 1018.76,-211.214 1013.91,-220.637 1020.85,-221.601"/>
</g>
<!-- Node21 -->
<g id="node21" class="node"><title>Node21</title>
<polygon fill="white" stroke="#bfbfbf" points="850.249,-181 850.249,-211 951.249,-211 951.249,-181 850.249,-181"/>
<text text-anchor="start" x="858.249" y="-199" font-family="Helvetica,sans-Serif" font-size="10.00">boost/property_tree</text>
<text text-anchor="middle" x="900.749" y="-188" font-family="Helvetica,sans-Serif" font-size="10.00">/xml_parser.hpp</text>
</g>
<!-- Node19&#45;&gt;Node21 -->
<g id="edge39" class="edge"><title>Node19&#45;&gt;Node21</title>
<path fill="none" stroke="midnightblue" d="M799.773,-316.741C800.481,-299.05 803.981,-268.698 818.749,-248 828.334,-234.566 842.672,-223.922 856.69,-215.91"/>
<polygon fill="midnightblue" stroke="midnightblue" points="858.645,-218.833 865.803,-211.022 855.336,-212.664 858.645,-218.833"/>
</g>
<!-- Node22 -->
<g id="node22" class="node"><title>Node22</title>
<g id="a_node22"><a xlink:href="../../d5/df6/SequentialTwoBodyDecay_8hpp.html" target="_top" xlink:title="Physics/HelicityFormalism\l/SequentialTwoBodyDecay.hpp">
<polygon fill="white" stroke="red" points="827.749,-249 827.749,-279 981.749,-279 981.749,-249 827.749,-249"/>
<text text-anchor="start" x="835.749" y="-267" font-family="Helvetica,sans-Serif" font-size="10.00">Physics/HelicityFormalism</text>
<text text-anchor="middle" x="904.749" y="-256" font-family="Helvetica,sans-Serif" font-size="10.00">/SequentialTwoBodyDecay.hpp</text>
</a>
</g>
</g>
<!-- Node19&#45;&gt;Node22 -->
<g id="edge42" class="edge"><title>Node19&#45;&gt;Node22</title>
<path fill="none" stroke="midnightblue" d="M822.274,-316.841C837.222,-307.446 857.045,-294.985 873.511,-284.635"/>
<polygon fill="midnightblue" stroke="midnightblue" points="875.657,-287.42 882.261,-279.135 871.932,-281.494 875.657,-287.42"/>
</g>
<!-- Node22&#45;&gt;Node20 -->
<g id="edge43" class="edge"><title>Node22&#45;&gt;Node20</title>
<path fill="none" stroke="midnightblue" d="M929.419,-248.841C945.942,-239.359 967.905,-226.754 986.036,-216.348"/>
<polygon fill="midnightblue" stroke="midnightblue" points="988.188,-219.149 995.119,-211.135 984.704,-213.077 988.188,-219.149"/>
</g>
<!-- Node22&#45;&gt;Node21 -->
<g id="edge44" class="edge"><title>Node22&#45;&gt;Node21</title>
<path fill="none" stroke="midnightblue" d="M903.881,-248.679C903.399,-240.722 902.786,-230.605 902.23,-221.436"/>
<polygon fill="midnightblue" stroke="midnightblue" points="905.714,-221.063 901.615,-211.293 898.727,-221.487 905.714,-221.063"/>
</g>
<!-- Node23&#45;&gt;Node2 -->
<g id="edge50" class="edge"><title>Node23&#45;&gt;Node2</title>
<path fill="none" stroke="midnightblue" d="M1069.51,-323.235C985.432,-311.198 823.74,-288.049 731.559,-274.851"/>
<polygon fill="midnightblue" stroke="midnightblue" points="731.888,-271.363 721.493,-273.41 730.896,-278.292 731.888,-271.363"/>
</g>
<!-- Node23&#45;&gt;Node5 -->
<g id="edge47" class="edge"><title>Node23&#45;&gt;Node5</title>
<path fill="none" stroke="midnightblue" d="M1122.1,-322.364C1116.5,-293.76 1097.5,-202.648 1078.75,-180 1032.93,-124.674 951.081,-94.6191 905.23,-81.3966"/>
<polygon fill="midnightblue" stroke="midnightblue" points="906.048,-77.9913 895.475,-78.6817 904.171,-84.735 906.048,-77.9913"/>
</g>
<!-- Node23&#45;&gt;Node13 -->
<g id="edge49" class="edge"><title>Node23&#45;&gt;Node13</title>
<path fill="none" stroke="midnightblue" d="M1173.59,-322.426C1200.1,-315.359 1231.17,-302.651 1250.75,-280 1275.56,-251.291 1270.75,-234.945 1270.75,-197 1270.75,-197 1270.75,-197 1270.75,-133 1270.75,-41.6697 954.719,-18.4901 822.667,-12.791"/>
<polygon fill="midnightblue" stroke="midnightblue" points="822.489,-9.28077 812.353,-12.3654 822.2,-16.2748 822.489,-9.28077"/>
</g>
<!-- Node24 -->
<g id="node24" class="node"><title>Node24</title>
<polygon fill="white" stroke="#bfbfbf" points="1126.75,-254.5 1126.75,-273.5 1170.75,-273.5 1170.75,-254.5 1126.75,-254.5"/>
<text text-anchor="middle" x="1148.75" y="-261.5" font-family="Helvetica,sans-Serif" font-size="10.00">cmath</text>
</g>
<!-- Node23&#45;&gt;Node24 -->
<g id="edge46" class="edge"><title>Node23&#45;&gt;Node24</title>
<path fill="none" stroke="midnightblue" d="M1127.02,-322.372C1130.74,-312.544 1136.93,-296.202 1141.75,-283.467"/>
<polygon fill="midnightblue" stroke="midnightblue" points="1145.13,-284.433 1145.4,-273.841 1138.58,-281.953 1145.13,-284.433"/>
</g>
<!-- Node25 -->
<g id="node25" class="node"><title>Node25</title>
<polygon fill="white" stroke="#bfbfbf" points="1189.25,-254.5 1189.25,-273.5 1242.25,-273.5 1242.25,-254.5 1189.25,-254.5"/>
<text text-anchor="middle" x="1215.75" y="-261.5" font-family="Helvetica,sans-Serif" font-size="10.00">complex</text>
</g>
<!-- Node23&#45;&gt;Node25 -->
<g id="edge48" class="edge"><title>Node23&#45;&gt;Node25</title>
<path fill="none" stroke="midnightblue" d="M1135.78,-322.372C1150.93,-311.502 1177.19,-292.66 1195.47,-279.547"/>
<polygon fill="midnightblue" stroke="midnightblue" points="1197.63,-282.303 1203.72,-273.63 1193.55,-276.616 1197.63,-282.303"/>
</g>
</g>
</svg>
