<?xml version="1.0" encoding="UTF-8" standalone="no"?>
<!DOCTYPE svg PUBLIC "-//W3C//DTD SVG 1.1//EN"
 "http://www.w3.org/Graphics/SVG/1.1/DTD/svg11.dtd">
<!-- Generated by graphviz version 2.36.0 (20140111.2315)
 -->
<!-- Title: /home/travis/build/ComPWA/ComPWA/Physics/DecayDynamics/AbstractDynamicalFunction.hpp Pages: 1 -->
<svg width="1140pt" height="500pt"
 viewBox="0.00 0.00 1140.40 500.00" xmlns="http://www.w3.org/2000/svg" xmlns:xlink="http://www.w3.org/1999/xlink">
<g id="graph0" class="graph" transform="scale(1 1) rotate(0) translate(4 496)">
<title>/home/travis/build/ComPWA/ComPWA/Physics/DecayDynamics/AbstractDynamicalFunction.hpp</title>
<polygon fill="white" stroke="none" points="-4,4 -4,-496 1136.4,-496 1136.4,4 -4,4"/>
<!-- Node1 -->
<g id="node1" class="node"><title>Node1</title>
<polygon fill="#bfbfbf" stroke="black" points="482.5,-439 482.5,-491 661.5,-491 661.5,-439 482.5,-439"/>
<text text-anchor="start" x="490.5" y="-479" font-family="Helvetica,sans-Serif" font-size="10.00">/home/travis/build</text>
<text text-anchor="start" x="490.5" y="-468" font-family="Helvetica,sans-Serif" font-size="10.00">/ComPWA/ComPWA/Physics</text>
<text text-anchor="start" x="490.5" y="-457" font-family="Helvetica,sans-Serif" font-size="10.00">/DecayDynamics/AbstractDynamical</text>
<text text-anchor="middle" x="572" y="-446" font-family="Helvetica,sans-Serif" font-size="10.00">Function.hpp</text>
</g>
<!-- Node2 -->
<g id="node2" class="node"><title>Node2</title>
<g id="a_node2"><a xlink:href="../../dd/dd1/AbstractDynamicalFunction_8cpp.html" target="_top" xlink:title="/home/travis/build\l/ComPWA/ComPWA/Physics\l/DecayDynamics/AbstractDynamical\lFunction.cpp">
<polygon fill="white" stroke="black" points="-0.5,-349 -0.5,-401 178.5,-401 178.5,-349 -0.5,-349"/>
<text text-anchor="start" x="7.5" y="-389" font-family="Helvetica,sans-Serif" font-size="10.00">/home/travis/build</text>
<text text-anchor="start" x="7.5" y="-378" font-family="Helvetica,sans-Serif" font-size="10.00">/ComPWA/ComPWA/Physics</text>
<text text-anchor="start" x="7.5" y="-367" font-family="Helvetica,sans-Serif" font-size="10.00">/DecayDynamics/AbstractDynamical</text>
<text text-anchor="middle" x="89" y="-356" font-family="Helvetica,sans-Serif" font-size="10.00">Function.cpp</text>
</a>
</g>
</g>
<!-- Node1&#45;&gt;Node2 -->
<g id="edge1" class="edge"><title>Node1&#45;&gt;Node2</title>
<path fill="none" stroke="midnightblue" d="M472.151,-450.707C394.133,-439.649 283.173,-422.448 187,-402 184.245,-401.414 181.452,-400.8 178.636,-400.164"/>
<polygon fill="midnightblue" stroke="midnightblue" points="472.065,-454.229 482.456,-452.159 473.042,-447.298 472.065,-454.229"/>
</g>
<!-- Node3 -->
<g id="node3" class="node"><title>Node3</title>
<g id="a_node3"><a xlink:href="../../dd/d65/AmpFlatteRes_8hpp.html" target="_top" xlink:title="/home/travis/build\l/ComPWA/ComPWA/Physics\l/DecayDynamics/AmpFlatteRes.hpp">
<polygon fill="white" stroke="black" points="196.5,-354.5 196.5,-395.5 373.5,-395.5 373.5,-354.5 196.5,-354.5"/>
<text text-anchor="start" x="204.5" y="-383.5" font-family="Helvetica,sans-Serif" font-size="10.00">/home/travis/build</text>
<text text-anchor="start" x="204.5" y="-372.5" font-family="Helvetica,sans-Serif" font-size="10.00">/ComPWA/ComPWA/Physics</text>
<text text-anchor="middle" x="285" y="-361.5" font-family="Helvetica,sans-Serif" font-size="10.00">/DecayDynamics/AmpFlatteRes.hpp</text>
</a>
</g>
</g>
<!-- Node1&#45;&gt;Node3 -->
<g id="edge2" class="edge"><title>Node1&#45;&gt;Node3</title>
<path fill="none" stroke="midnightblue" d="M480.531,-435.954C437.595,-422.789 387.47,-407.419 348.722,-395.538"/>
<polygon fill="midnightblue" stroke="midnightblue" points="479.555,-439.315 490.141,-438.901 481.607,-432.623 479.555,-439.315"/>
</g>
<!-- Node6 -->
<g id="node6" class="node"><title>Node6</title>
<g id="a_node6"><a xlink:href="../../d3/d1f/HelicityFormalism_8hpp.html" target="_top" xlink:title="/home/travis/build\l/ComPWA/ComPWA/Physics\l/HelicityFormalism.hpp">
<polygon fill="white" stroke="black" points="629.5,-90.5 629.5,-131.5 778.5,-131.5 778.5,-90.5 629.5,-90.5"/>
<text text-anchor="start" x="637.5" y="-119.5" font-family="Helvetica,sans-Serif" font-size="10.00">/home/travis/build</text>
<text text-anchor="start" x="637.5" y="-108.5" font-family="Helvetica,sans-Serif" font-size="10.00">/ComPWA/ComPWA/Physics</text>
<text text-anchor="middle" x="704" y="-97.5" font-family="Helvetica,sans-Serif" font-size="10.00">/HelicityFormalism.hpp</text>
</a>
</g>
</g>
<!-- Node1&#45;&gt;Node6 -->
<g id="edge24" class="edge"><title>Node1&#45;&gt;Node6</title>
<path fill="none" stroke="midnightblue" d="M671.799,-461.363C753.656,-456.171 871.089,-441.663 966,-402 1064.22,-360.956 1103.87,-326.527 1124,-222 1128.54,-198.433 1139.81,-186.057 1124,-168 1101.65,-142.471 893.362,-124.653 778.757,-116.691"/>
<polygon fill="midnightblue" stroke="midnightblue" points="671.519,-457.874 661.746,-461.965 671.938,-464.861 671.519,-457.874"/>
</g>
<!-- Node9 -->
<g id="node9" class="node"><title>Node9</title>
<g id="a_node9"><a xlink:href="../../d4/db6/NonResonant_8hpp.html" target="_top" xlink:title="/home/travis/build\l/ComPWA/ComPWA/Physics\l/DecayDynamics/NonResonant.hpp">
<polygon fill="white" stroke="black" points="392,-354.5 392,-395.5 566,-395.5 566,-354.5 392,-354.5"/>
<text text-anchor="start" x="400" y="-383.5" font-family="Helvetica,sans-Serif" font-size="10.00">/home/travis/build</text>
<text text-anchor="start" x="400" y="-372.5" font-family="Helvetica,sans-Serif" font-size="10.00">/ComPWA/ComPWA/Physics</text>
<text text-anchor="middle" x="479" y="-361.5" font-family="Helvetica,sans-Serif" font-size="10.00">/DecayDynamics/NonResonant.hpp</text>
</a>
</g>
</g>
<!-- Node1&#45;&gt;Node9 -->
<g id="edge8" class="edge"><title>Node1&#45;&gt;Node9</title>
<path fill="none" stroke="midnightblue" d="M537.753,-431.594C524.958,-419.487 510.829,-406.118 499.634,-395.525"/>
<polygon fill="midnightblue" stroke="midnightblue" points="535.431,-434.216 545.101,-438.547 540.242,-429.131 535.431,-434.216"/>
</g>
<!-- Node11 -->
<g id="node11" class="node"><title>Node11</title>
<g id="a_node11"><a xlink:href="../../d6/da5/RelativisticBreitWigner_8hpp.html" target="_top" xlink:title="/home/travis/build\l/ComPWA/ComPWA/Physics\l/DecayDynamics/RelativisticBreit\lWigner.hpp">
<polygon fill="white" stroke="black" points="584,-349 584,-401 748,-401 748,-349 584,-349"/>
<text text-anchor="start" x="592" y="-389" font-family="Helvetica,sans-Serif" font-size="10.00">/home/travis/build</text>
<text text-anchor="start" x="592" y="-378" font-family="Helvetica,sans-Serif" font-size="10.00">/ComPWA/ComPWA/Physics</text>
<text text-anchor="start" x="592" y="-367" font-family="Helvetica,sans-Serif" font-size="10.00">/DecayDynamics/RelativisticBreit</text>
<text text-anchor="middle" x="666" y="-356" font-family="Helvetica,sans-Serif" font-size="10.00">Wigner.hpp</text>
</a>
</g>
</g>
<!-- Node1&#45;&gt;Node11 -->
<g id="edge12" class="edge"><title>Node1&#45;&gt;Node11</title>
<path fill="none" stroke="midnightblue" d="M606.547,-431.658C617.273,-421.617 628.931,-410.703 639.059,-401.221"/>
<polygon fill="midnightblue" stroke="midnightblue" points="603.845,-429.393 598.937,-438.783 608.629,-434.504 603.845,-429.393"/>
</g>
<!-- Node13 -->
<g id="node13" class="node"><title>Node13</title>
<g id="a_node13"><a xlink:href="../../db/d49/PartialDecay_8hpp.html" target="_top" xlink:title="/home/travis/build\l/ComPWA/ComPWA/Physics\l/HelicityFormalism/PartialDecay.hpp">
<polygon fill="white" stroke="black" points="782,-354.5 782,-395.5 958,-395.5 958,-354.5 782,-354.5"/>
<text text-anchor="start" x="790" y="-383.5" font-family="Helvetica,sans-Serif" font-size="10.00">/home/travis/build</text>
<text text-anchor="start" x="790" y="-372.5" font-family="Helvetica,sans-Serif" font-size="10.00">/ComPWA/ComPWA/Physics</text>
<text text-anchor="middle" x="870" y="-361.5" font-family="Helvetica,sans-Serif" font-size="10.00">/HelicityFormalism/PartialDecay.hpp</text>
</a>
</g>
</g>
<!-- Node1&#45;&gt;Node13 -->
<g id="edge16" class="edge"><title>Node1&#45;&gt;Node13</title>
<path fill="none" stroke="midnightblue" d="M666.694,-436.037C711.338,-422.853 763.518,-407.444 803.836,-395.538"/>
<polygon fill="midnightblue" stroke="midnightblue" points="665.595,-432.712 656.996,-438.901 667.578,-439.425 665.595,-432.712"/>
</g>
<!-- Node4 -->
<g id="node4" class="node"><title>Node4</title>
<g id="a_node4"><a xlink:href="../../d2/d84/AmpFlatteRes_8cpp.html" target="_top" xlink:title="/home/travis/build\l/ComPWA/ComPWA/Physics\l/DecayDynamics/AmpFlatteRes.cpp">
<polygon fill="white" stroke="black" points="36.5,-264.5 36.5,-305.5 213.5,-305.5 213.5,-264.5 36.5,-264.5"/>
<text text-anchor="start" x="44.5" y="-293.5" font-family="Helvetica,sans-Serif" font-size="10.00">/home/travis/build</text>
<text text-anchor="start" x="44.5" y="-282.5" font-family="Helvetica,sans-Serif" font-size="10.00">/ComPWA/ComPWA/Physics</text>
<text text-anchor="middle" x="125" y="-271.5" font-family="Helvetica,sans-Serif" font-size="10.00">/DecayDynamics/AmpFlatteRes.cpp</text>
</a>
</g>
</g>
<!-- Node3&#45;&gt;Node4 -->
<g id="edge3" class="edge"><title>Node3&#45;&gt;Node4</title>
<path fill="none" stroke="midnightblue" d="M240.505,-349.528C215.324,-335.678 184.257,-318.591 160.686,-305.627"/>
<polygon fill="midnightblue" stroke="midnightblue" points="239.042,-352.717 249.491,-354.47 242.415,-346.584 239.042,-352.717"/>
</g>
<!-- Node5 -->
<g id="node5" class="node"><title>Node5</title>
<g id="a_node5"><a xlink:href="../../df/d53/PartialDecay_8cpp.html" target="_top" xlink:title="/home/travis/build\l/ComPWA/ComPWA/Physics\l/HelicityFormalism/PartialDecay.cpp">
<polygon fill="white" stroke="black" points="462,-264.5 462,-305.5 638,-305.5 638,-264.5 462,-264.5"/>
<text text-anchor="start" x="470" y="-293.5" font-family="Helvetica,sans-Serif" font-size="10.00">/home/travis/build</text>
<text text-anchor="start" x="470" y="-282.5" font-family="Helvetica,sans-Serif" font-size="10.00">/ComPWA/ComPWA/Physics</text>
<text text-anchor="middle" x="550" y="-271.5" font-family="Helvetica,sans-Serif" font-size="10.00">/HelicityFormalism/PartialDecay.cpp</text>
</a>
</g>
</g>
<!-- Node3&#45;&gt;Node5 -->
<g id="edge4" class="edge"><title>Node3&#45;&gt;Node5</title>
<path fill="none" stroke="midnightblue" d="M353.534,-351.241C396.091,-337.11 450.23,-319.131 490.895,-305.627"/>
<polygon fill="midnightblue" stroke="midnightblue" points="352.199,-347.997 343.812,-354.47 354.406,-354.64 352.199,-347.997"/>
</g>
<!-- Node3&#45;&gt;Node6 -->
<g id="edge5" class="edge"><title>Node3&#45;&gt;Node6</title>
<path fill="none" stroke="midnightblue" d="M202.477,-351.866C197.245,-350.537 192.053,-349.238 187,-348 116.206,-330.651 72.5333,-368.917 27,-312 12.0073,-293.259 11.924,-276.674 27,-258 102.151,-164.914 469.552,-128.325 629.435,-116.647"/>
<polygon fill="midnightblue" stroke="midnightblue" points="202.007,-355.359 212.563,-354.451 203.745,-348.578 202.007,-355.359"/>
</g>
<!-- Node7 -->
<g id="node7" class="node"><title>Node7</title>
<g id="a_node7"><a xlink:href="../../db/d7b/DalitzFitD03K_8cpp.html" target="_top" xlink:title="/home/travis/build\l/ComPWA/ComPWA/Examples\l/DalitzAnalysis_D0KsKK\l/DalitzFitD03K.cpp">
<polygon fill="white" stroke="black" points="537,-1 537,-53 695,-53 695,-1 537,-1"/>
<text text-anchor="start" x="545" y="-41" font-family="Helvetica,sans-Serif" font-size="10.00">/home/travis/build</text>
<text text-anchor="start" x="545" y="-30" font-family="Helvetica,sans-Serif" font-size="10.00">/ComPWA/ComPWA/Examples</text>
<text text-anchor="start" x="545" y="-19" font-family="Helvetica,sans-Serif" font-size="10.00">/DalitzAnalysis_D0KsKK</text>
<text text-anchor="middle" x="616" y="-8" font-family="Helvetica,sans-Serif" font-size="10.00">/DalitzFitD03K.cpp</text>
</a>
</g>
</g>
<!-- Node6&#45;&gt;Node7 -->
<g id="edge6" class="edge"><title>Node6&#45;&gt;Node7</title>
<path fill="none" stroke="midnightblue" d="M675.111,-83.0805C664.811,-73.4832 653.254,-62.7143 643.11,-53.2613"/>
<polygon fill="midnightblue" stroke="midnightblue" points="672.995,-85.8934 682.698,-90.1501 677.768,-80.7722 672.995,-85.8934"/>
</g>
<!-- Node8 -->
<g id="node8" class="node"><title>Node8</title>
<g id="a_node8"><a xlink:href="../../db/deb/PythonFit_8hpp.html" target="_top" xlink:title="This class provides a Manager for simple fits. ">
<polygon fill="white" stroke="red" points="713,-6.5 713,-47.5 871,-47.5 871,-6.5 713,-6.5"/>
<text text-anchor="start" x="721" y="-35.5" font-family="Helvetica,sans-Serif" font-size="10.00">/home/travis/build</text>
<text text-anchor="start" x="721" y="-24.5" font-family="Helvetica,sans-Serif" font-size="10.00">/ComPWA/ComPWA/Examples</text>
<text text-anchor="middle" x="792" y="-13.5" font-family="Helvetica,sans-Serif" font-size="10.00">/PythonDalitzFit/PythonFit.hpp</text>
</a>
</g>
</g>
<!-- Node6&#45;&gt;Node8 -->
<g id="edge7" class="edge"><title>Node6&#45;&gt;Node8</title>
<path fill="none" stroke="midnightblue" d="M732.76,-83.2011C745.189,-71.6197 759.469,-58.3134 770.894,-47.6671"/>
<polygon fill="midnightblue" stroke="midnightblue" points="730.232,-80.7722 725.302,-90.1501 735.005,-85.8934 730.232,-80.7722"/>
</g>
<!-- Node9&#45;&gt;Node5 -->
<g id="edge10" class="edge"><title>Node9&#45;&gt;Node5</title>
<path fill="none" stroke="midnightblue" d="M501.11,-346.596C511.774,-333.379 524.326,-317.822 534.041,-305.78"/>
<polygon fill="midnightblue" stroke="midnightblue" points="498.313,-344.489 494.757,-354.47 503.76,-348.885 498.313,-344.489"/>
</g>
<!-- Node9&#45;&gt;Node6 -->
<g id="edge11" class="edge"><title>Node9&#45;&gt;Node6</title>
<path fill="none" stroke="midnightblue" d="M461.778,-345.405C449.399,-320.814 437.397,-285.127 453,-258 491.394,-191.25 573.333,-152.177 633.183,-131.517"/>
<polygon fill="midnightblue" stroke="midnightblue" points="458.696,-347.063 466.485,-354.245 464.875,-343.773 458.696,-347.063"/>
</g>
<!-- Node10 -->
<g id="node10" class="node"><title>Node10</title>
<g id="a_node10"><a xlink:href="../../d4/df9/NonResonant_8cpp.html" target="_top" xlink:title="/home/travis/build\l/ComPWA/ComPWA/Physics\l/DecayDynamics/NonResonant.cpp">
<polygon fill="white" stroke="black" points="232,-264.5 232,-305.5 406,-305.5 406,-264.5 232,-264.5"/>
<text text-anchor="start" x="240" y="-293.5" font-family="Helvetica,sans-Serif" font-size="10.00">/home/travis/build</text>
<text text-anchor="start" x="240" y="-282.5" font-family="Helvetica,sans-Serif" font-size="10.00">/ComPWA/ComPWA/Physics</text>
<text text-anchor="middle" x="319" y="-271.5" font-family="Helvetica,sans-Serif" font-size="10.00">/DecayDynamics/NonResonant.cpp</text>
</a>
</g>
</g>
<!-- Node9&#45;&gt;Node10 -->
<g id="edge9" class="edge"><title>Node9&#45;&gt;Node10</title>
<path fill="none" stroke="midnightblue" d="M434.505,-349.528C409.324,-335.678 378.257,-318.591 354.686,-305.627"/>
<polygon fill="midnightblue" stroke="midnightblue" points="433.042,-352.717 443.491,-354.47 436.415,-346.584 433.042,-352.717"/>
</g>
<!-- Node11&#45;&gt;Node5 -->
<g id="edge14" class="edge"><title>Node11&#45;&gt;Node5</title>
<path fill="none" stroke="midnightblue" d="M624.478,-342.501C608.259,-330.197 590.166,-316.47 575.874,-305.628"/>
<polygon fill="midnightblue" stroke="midnightblue" points="622.677,-345.527 632.759,-348.783 626.907,-339.95 622.677,-345.527"/>
</g>
<!-- Node11&#45;&gt;Node6 -->
<g id="edge15" class="edge"><title>Node11&#45;&gt;Node6</title>
<path fill="none" stroke="midnightblue" d="M668.716,-338.72C672.209,-297.533 679.149,-227.467 690,-168 692.231,-155.775 695.585,-142.255 698.451,-131.562"/>
<polygon fill="midnightblue" stroke="midnightblue" points="665.219,-338.539 667.882,-348.794 672.195,-339.117 665.219,-338.539"/>
</g>
<!-- Node12 -->
<g id="node12" class="node"><title>Node12</title>
<g id="a_node12"><a xlink:href="../../d3/d67/RelativisticBreitWigner_8cpp.html" target="_top" xlink:title="/home/travis/build\l/ComPWA/ComPWA/Physics\l/DecayDynamics/RelativisticBreit\lWigner.cpp">
<polygon fill="white" stroke="black" points="694,-259 694,-311 858,-311 858,-259 694,-259"/>
<text text-anchor="start" x="702" y="-299" font-family="Helvetica,sans-Serif" font-size="10.00">/home/travis/build</text>
<text text-anchor="start" x="702" y="-288" font-family="Helvetica,sans-Serif" font-size="10.00">/ComPWA/ComPWA/Physics</text>
<text text-anchor="start" x="702" y="-277" font-family="Helvetica,sans-Serif" font-size="10.00">/DecayDynamics/RelativisticBreit</text>
<text text-anchor="middle" x="776" y="-266" font-family="Helvetica,sans-Serif" font-size="10.00">Wigner.cpp</text>
</a>
</g>
</g>
<!-- Node11&#45;&gt;Node12 -->
<g id="edge13" class="edge"><title>Node11&#45;&gt;Node12</title>
<path fill="none" stroke="midnightblue" d="M705.333,-342.534C718.182,-332.254 732.276,-320.979 744.474,-311.221"/>
<polygon fill="midnightblue" stroke="midnightblue" points="703.144,-339.803 697.522,-348.783 707.517,-345.269 703.144,-339.803"/>
</g>
<!-- Node13&#45;&gt;Node5 -->
<g id="edge17" class="edge"><title>Node13&#45;&gt;Node5</title>
<path fill="none" stroke="midnightblue" d="M789.165,-351.77C737.396,-337.534 670.846,-319.233 621.096,-305.551"/>
<polygon fill="midnightblue" stroke="midnightblue" points="788.411,-355.193 798.982,-354.47 790.268,-348.444 788.411,-355.193"/>
</g>
<!-- Node13&#45;&gt;Node6 -->
<g id="edge23" class="edge"><title>Node13&#45;&gt;Node6</title>
<path fill="none" stroke="midnightblue" d="M878.305,-344.419C883.589,-318.751 886.272,-282.036 867,-258 825.733,-206.532 767.892,-270.34 723,-222 700.317,-197.574 699.537,-156.315 701.468,-131.868"/>
<polygon fill="midnightblue" stroke="midnightblue" points="874.854,-343.807 876.023,-354.337 881.676,-345.377 874.854,-343.807"/>
</g>
<!-- Node14 -->
<g id="node14" class="node"><title>Node14</title>
<g id="a_node14"><a xlink:href="../../d5/df6/SequentialTwoBodyDecay_8hpp.html" target="_top" xlink:title="/home/travis/build\l/ComPWA/ComPWA/Physics\l/HelicityFormalism/Sequential\lTwoBodyDecay.hpp">
<polygon fill="white" stroke="black" points="930.5,-259 930.5,-311 1079.5,-311 1079.5,-259 930.5,-259"/>
<text text-anchor="start" x="938.5" y="-299" font-family="Helvetica,sans-Serif" font-size="10.00">/home/travis/build</text>
<text text-anchor="start" x="938.5" y="-288" font-family="Helvetica,sans-Serif" font-size="10.00">/ComPWA/ComPWA/Physics</text>
<text text-anchor="start" x="938.5" y="-277" font-family="Helvetica,sans-Serif" font-size="10.00">/HelicityFormalism/Sequential</text>
<text text-anchor="middle" x="1005" y="-266" font-family="Helvetica,sans-Serif" font-size="10.00">TwoBodyDecay.hpp</text>
</a>
</g>
</g>
<!-- Node13&#45;&gt;Node14 -->
<g id="edge18" class="edge"><title>Node13&#45;&gt;Node14</title>
<path fill="none" stroke="midnightblue" d="M908.591,-348.844C926.799,-336.976 948.467,-322.851 966.645,-311.002"/>
<polygon fill="midnightblue" stroke="midnightblue" points="906.427,-346.077 899.961,-354.47 910.25,-351.941 906.427,-346.077"/>
</g>
<!-- Node14&#45;&gt;Node6 -->
<g id="edge22" class="edge"><title>Node14&#45;&gt;Node6</title>
<path fill="none" stroke="midnightblue" d="M1075.3,-253.404C1087.21,-244.993 1097.98,-234.617 1105,-222 1116.67,-201.03 1120.75,-186.106 1105,-168 1063.59,-120.405 883.102,-112.022 778.931,-111.263"/>
<polygon fill="midnightblue" stroke="midnightblue" points="1073.34,-250.503 1066.9,-258.917 1077.18,-256.354 1073.34,-250.503"/>
</g>
<!-- Node15 -->
<g id="node15" class="node"><title>Node15</title>
<g id="a_node15"><a xlink:href="../../df/d1f/CoherentIntensity_8hpp.html" target="_top" xlink:title="/home/travis/build\l/ComPWA/ComPWA/Physics\l/HelicityFormalism/CoherentIntensity.hpp">
<polygon fill="white" stroke="red" points="732.5,-174.5 732.5,-215.5 929.5,-215.5 929.5,-174.5 732.5,-174.5"/>
<text text-anchor="start" x="740.5" y="-203.5" font-family="Helvetica,sans-Serif" font-size="10.00">/home/travis/build</text>
<text text-anchor="start" x="740.5" y="-192.5" font-family="Helvetica,sans-Serif" font-size="10.00">/ComPWA/ComPWA/Physics</text>
<text text-anchor="middle" x="831" y="-181.5" font-family="Helvetica,sans-Serif" font-size="10.00">/HelicityFormalism/CoherentIntensity.hpp</text>
</a>
</g>
</g>
<!-- Node14&#45;&gt;Node15 -->
<g id="edge19" class="edge"><title>Node14&#45;&gt;Node15</title>
<path fill="none" stroke="midnightblue" d="M946.047,-254.185C920.891,-241.462 892.232,-226.968 869.81,-215.628"/>
<polygon fill="midnightblue" stroke="midnightblue" points="944.635,-257.393 955.139,-258.783 947.795,-251.146 944.635,-257.393"/>
</g>
<!-- Node16 -->
<g id="node16" class="node"><title>Node16</title>
<g id="a_node16"><a xlink:href="../../d4/de6/SequentialTwoBodyDecay_8cpp.html" target="_top" xlink:title="/home/travis/build\l/ComPWA/ComPWA/Physics\l/HelicityFormalism/Sequential\lTwoBodyDecay.cpp">
<polygon fill="white" stroke="black" points="947.5,-169 947.5,-221 1096.5,-221 1096.5,-169 947.5,-169"/>
<text text-anchor="start" x="955.5" y="-209" font-family="Helvetica,sans-Serif" font-size="10.00">/home/travis/build</text>
<text text-anchor="start" x="955.5" y="-198" font-family="Helvetica,sans-Serif" font-size="10.00">/ComPWA/ComPWA/Physics</text>
<text text-anchor="start" x="955.5" y="-187" font-family="Helvetica,sans-Serif" font-size="10.00">/HelicityFormalism/Sequential</text>
<text text-anchor="middle" x="1022" y="-176" font-family="Helvetica,sans-Serif" font-size="10.00">TwoBodyDecay.cpp</text>
</a>
</g>
</g>
<!-- Node14&#45;&gt;Node16 -->
<g id="edge21" class="edge"><title>Node14&#45;&gt;Node16</title>
<path fill="none" stroke="midnightblue" d="M1011.86,-248.489C1013.63,-239.309 1015.51,-229.616 1017.15,-221.092"/>
<polygon fill="midnightblue" stroke="midnightblue" points="1008.38,-248.064 1009.92,-258.547 1015.25,-249.392 1008.38,-248.064"/>
</g>
<!-- Node15&#45;&gt;Node6 -->
<g id="edge20" class="edge"><title>Node15&#45;&gt;Node6</title>
<path fill="none" stroke="midnightblue" d="M792.085,-168.874C773.621,-156.952 751.876,-142.912 734.612,-131.765"/>
<polygon fill="midnightblue" stroke="midnightblue" points="790.281,-171.875 800.58,-174.359 794.078,-165.994 790.281,-171.875"/>
</g>
</g>
</svg>
