<?xml version="1.0" encoding="UTF-8" standalone="no"?>
<!DOCTYPE svg PUBLIC "-//W3C//DTD SVG 1.1//EN"
 "http://www.w3.org/Graphics/SVG/1.1/DTD/svg11.dtd">
<!-- Generated by graphviz version 2.36.0 (20140111.2315)
 -->
<!-- Title: /home/travis/build/ComPWA/ComPWA/Estimator/SliceFitUB/SliceFitUB.hpp Pages: 1 -->
<svg width="1927pt" height="490pt"
 viewBox="0.00 0.00 1927.09 490.00" xmlns="http://www.w3.org/2000/svg" xmlns:xlink="http://www.w3.org/1999/xlink">
<g id="graph0" class="graph" transform="scale(1 1) rotate(0) translate(4 486)">
<title>/home/travis/build/ComPWA/ComPWA/Estimator/SliceFitUB/SliceFitUB.hpp</title>
<polygon fill="white" stroke="none" points="-4,4 -4,-486 1923.09,-486 1923.09,4 -4,4"/>
<!-- Node1 -->
<g id="node1" class="node"><title>Node1</title>
<polygon fill="#bfbfbf" stroke="black" points="184,-440.5 184,-481.5 340,-481.5 340,-440.5 184,-440.5"/>
<text text-anchor="start" x="192" y="-469.5" font-family="Helvetica,sans-Serif" font-size="10.00">/home/travis/build</text>
<text text-anchor="start" x="192" y="-458.5" font-family="Helvetica,sans-Serif" font-size="10.00">/ComPWA/ComPWA/Estimator</text>
<text text-anchor="middle" x="262" y="-447.5" font-family="Helvetica,sans-Serif" font-size="10.00">/SliceFitUB/SliceFitUB.hpp</text>
</g>
<!-- Node2 -->
<g id="node2" class="node"><title>Node2</title>
<polygon fill="white" stroke="#bfbfbf" points="1011,-0.5 1011,-19.5 1055,-19.5 1055,-0.5 1011,-0.5"/>
<text text-anchor="middle" x="1033" y="-7.5" font-family="Helvetica,sans-Serif" font-size="10.00">vector</text>
</g>
<!-- Node1&#45;&gt;Node2 -->
<g id="edge1" class="edge"><title>Node1&#45;&gt;Node2</title>
<path fill="none" stroke="midnightblue" d="M184.86,-440.414C133.349,-422.171 75,-389.12 75,-333 75,-333 75,-333 75,-263 75,-193.796 66.3701,-163.135 113,-112 163.483,-56.6399 198.555,-70.8001 272,-56 414.77,-27.23 874.513,-14.6682 1000.7,-11.7098"/>
<polygon fill="midnightblue" stroke="midnightblue" points="1000.95,-15.205 1010.87,-11.4754 1000.79,-8.20691 1000.95,-15.205"/>
</g>
<!-- Node3 -->
<g id="node3" class="node"><title>Node3</title>
<polygon fill="white" stroke="#bfbfbf" points="616,-56.5 616,-75.5 668,-75.5 668,-56.5 616,-56.5"/>
<text text-anchor="middle" x="642" y="-63.5" font-family="Helvetica,sans-Serif" font-size="10.00">memory</text>
</g>
<!-- Node1&#45;&gt;Node3 -->
<g id="edge2" class="edge"><title>Node1&#45;&gt;Node3</title>
<path fill="none" stroke="midnightblue" d="M246.018,-440.147C201.096,-381.867 82.5791,-209.271 171,-112 200.113,-79.973 500.534,-70.1797 605.802,-67.7187"/>
<polygon fill="midnightblue" stroke="midnightblue" points="606.019,-71.2148 615.938,-67.4905 605.862,-64.2165 606.019,-71.2148"/>
</g>
<!-- Node4 -->
<g id="node4" class="node"><title>Node4</title>
<polygon fill="white" stroke="#bfbfbf" points="303.5,-0.5 303.5,-19.5 344.5,-19.5 344.5,-0.5 303.5,-0.5"/>
<text text-anchor="middle" x="324" y="-7.5" font-family="Helvetica,sans-Serif" font-size="10.00">string</text>
</g>
<!-- Node1&#45;&gt;Node4 -->
<g id="edge3" class="edge"><title>Node1&#45;&gt;Node4</title>
<path fill="none" stroke="midnightblue" d="M183.746,-454.564C106.544,-444.44 0,-415.52 0,-333 0,-333 0,-333 0,-127 0,-65.1035 212.243,-27.4124 293.165,-15.2914"/>
<polygon fill="midnightblue" stroke="midnightblue" points="293.853,-18.7279 303.239,-13.8135 292.837,-11.8021 293.853,-18.7279"/>
</g>
<!-- Node5 -->
<g id="node5" class="node"><title>Node5</title>
<polygon fill="white" stroke="#bfbfbf" points="141.5,-384.5 141.5,-403.5 192.5,-403.5 192.5,-384.5 141.5,-384.5"/>
<text text-anchor="middle" x="167" y="-391.5" font-family="Helvetica,sans-Serif" font-size="10.00">TH1D.h</text>
</g>
<!-- Node1&#45;&gt;Node5 -->
<g id="edge4" class="edge"><title>Node1&#45;&gt;Node5</title>
<path fill="none" stroke="midnightblue" d="M233.497,-440.498C218.932,-430.532 201.513,-418.614 188.158,-409.476"/>
<polygon fill="midnightblue" stroke="midnightblue" points="189.875,-406.411 179.646,-403.652 185.923,-412.188 189.875,-406.411"/>
</g>
<!-- Node6 -->
<g id="node6" class="node"><title>Node6</title>
<g id="a_node6"><a xlink:href="../../d5/d10/Estimator_8hpp.html" target="_top" xlink:title="This class provides the interface to classes which estimate the &quot;closeness&quot; of the modeled intensity ...">
<polygon fill="white" stroke="black" points="697,-384.5 697,-403.5 819,-403.5 819,-384.5 697,-384.5"/>
<text text-anchor="middle" x="758" y="-391.5" font-family="Helvetica,sans-Serif" font-size="10.00">Estimator/Estimator.hpp</text>
</a>
</g>
</g>
<!-- Node1&#45;&gt;Node6 -->
<g id="edge5" class="edge"><title>Node1&#45;&gt;Node6</title>
<path fill="none" stroke="midnightblue" d="M340.046,-449.772C435.236,-437.298 594.791,-416.388 686.776,-404.334"/>
<polygon fill="midnightblue" stroke="midnightblue" points="687.369,-407.786 696.829,-403.016 686.459,-400.845 687.369,-407.786"/>
</g>
<!-- Node8 -->
<g id="node8" class="node"><title>Node8</title>
<g id="a_node8"><a xlink:href="../../df/d9f/ParameterList_8hpp.html" target="_top" xlink:title="This class provides a list of fit parameters which can have different types. ">
<polygon fill="white" stroke="red" points="727,-118.5 727,-137.5 847,-137.5 847,-118.5 727,-118.5"/>
<text text-anchor="middle" x="787" y="-125.5" font-family="Helvetica,sans-Serif" font-size="10.00">Core/ParameterList.hpp</text>
</a>
</g>
</g>
<!-- Node1&#45;&gt;Node8 -->
<g id="edge94" class="edge"><title>Node1&#45;&gt;Node8</title>
<path fill="none" stroke="midnightblue" d="M340.143,-457.973C487.781,-453.333 795.867,-439.469 828,-404 895.472,-329.523 826.085,-194.305 797.815,-146.398"/>
<polygon fill="midnightblue" stroke="midnightblue" points="800.638,-144.303 792.471,-137.554 794.647,-147.923 800.638,-144.303"/>
</g>
<!-- Node13 -->
<g id="node13" class="node"><title>Node13</title>
<g id="a_node13"><a xlink:href="../../dc/de3/Amplitude_8hpp.html" target="_top" xlink:title="This class provides the interface to the model which tries to describe the intensity. ">
<polygon fill="white" stroke="red" points="617.5,-254.5 617.5,-273.5 720.5,-273.5 720.5,-254.5 617.5,-254.5"/>
<text text-anchor="middle" x="669" y="-261.5" font-family="Helvetica,sans-Serif" font-size="10.00">Core/Amplitude.hpp</text>
</a>
</g>
</g>
<!-- Node1&#45;&gt;Node13 -->
<g id="edge58" class="edge"><title>Node1&#45;&gt;Node13</title>
<path fill="none" stroke="midnightblue" d="M340.122,-459.693C428.11,-454.947 569.316,-433.332 650,-348 666.316,-330.744 669.637,-302.458 669.846,-283.782"/>
<polygon fill="midnightblue" stroke="midnightblue" points="673.342,-283.516 669.663,-273.58 666.343,-283.641 673.342,-283.516"/>
</g>
<!-- Node17 -->
<g id="node17" class="node"><title>Node17</title>
<g id="a_node17"><a xlink:href="../../df/d7d/Event_8hpp.html" target="_top" xlink:title="This class provides a internal container for event&#45;based information. ">
<polygon fill="white" stroke="red" points="281.5,-56.5 281.5,-75.5 366.5,-75.5 366.5,-56.5 281.5,-56.5"/>
<text text-anchor="middle" x="324" y="-63.5" font-family="Helvetica,sans-Serif" font-size="10.00">Core/Event.hpp</text>
</a>
</g>
</g>
<!-- Node1&#45;&gt;Node17 -->
<g id="edge93" class="edge"><title>Node1&#45;&gt;Node17</title>
<path fill="none" stroke="midnightblue" d="M185.794,-440.44C165.922,-432.091 146.141,-420.361 132,-404 110.639,-379.286 113,-365.666 113,-333 113,-333 113,-333 113,-263 113,-194.975 91.6941,-161.831 138,-112 147.17,-102.132 219.377,-86.7055 271.067,-76.7245"/>
<polygon fill="midnightblue" stroke="midnightblue" points="271.943,-80.1206 281.107,-74.8042 270.628,-73.2453 271.943,-80.1206"/>
</g>
<!-- Node18 -->
<g id="node18" class="node"><title>Node18</title>
<g id="a_node18"><a xlink:href="../../d2/d4b/Data_8hpp.html" target="_top" xlink:title="This class provides the interface to experimental data. ">
<polygon fill="white" stroke="red" points="293,-186.5 293,-205.5 405,-205.5 405,-186.5 293,-186.5"/>
<text text-anchor="middle" x="349" y="-193.5" font-family="Helvetica,sans-Serif" font-size="10.00">DataReader/Data.hpp</text>
</a>
</g>
</g>
<!-- Node1&#45;&gt;Node18 -->
<g id="edge92" class="edge"><title>Node1&#45;&gt;Node18</title>
<path fill="none" stroke="midnightblue" d="M268.539,-440.232C284.817,-391.025 326.982,-263.562 342.844,-215.609"/>
<polygon fill="midnightblue" stroke="midnightblue" points="346.23,-216.518 346.048,-205.925 339.584,-214.32 346.23,-216.518"/>
</g>
<!-- Node20 -->
<g id="node20" class="node"><title>Node20</title>
<g id="a_node20"><a xlink:href="../../d0/d2a/AmpSumIntensity_8hpp.html" target="_top" xlink:title="Physics/AmplitudeSum\l/AmpSumIntensity.hpp">
<polygon fill="white" stroke="black" points="943.5,-317 943.5,-347 1062.5,-347 1062.5,-317 943.5,-317"/>
<text text-anchor="start" x="951.5" y="-335" font-family="Helvetica,sans-Serif" font-size="10.00">Physics/AmplitudeSum</text>
<text text-anchor="middle" x="1003" y="-324" font-family="Helvetica,sans-Serif" font-size="10.00">/AmpSumIntensity.hpp</text>
</a>
</g>
</g>
<!-- Node1&#45;&gt;Node20 -->
<g id="edge59" class="edge"><title>Node1&#45;&gt;Node20</title>
<path fill="none" stroke="midnightblue" d="M340.24,-456.442C480.39,-449.454 768.612,-432.123 865,-404 904.737,-392.406 946.481,-369.157 973.511,-352.417"/>
<polygon fill="midnightblue" stroke="midnightblue" points="975.492,-355.306 982.09,-347.016 971.762,-349.382 975.492,-355.306"/>
</g>
<!-- Node6&#45;&gt;Node2 -->
<g id="edge6" class="edge"><title>Node6&#45;&gt;Node2</title>
<path fill="none" stroke="midnightblue" d="M762.014,-384.41C785.441,-334.396 904.41,-82.048 932,-56 951.4,-37.6838 979.506,-25.9917 1001.15,-19.13"/>
<polygon fill="midnightblue" stroke="midnightblue" points="1002.3,-22.4387 1010.88,-16.2262 1000.3,-15.7308 1002.3,-22.4387"/>
</g>
<!-- Node6&#45;&gt;Node3 -->
<g id="edge7" class="edge"><title>Node6&#45;&gt;Node3</title>
<path fill="none" stroke="midnightblue" d="M696.804,-391.288C627.579,-387.909 521.171,-377.863 496,-348 421.336,-259.419 568.518,-126.27 622.911,-81.9456"/>
<polygon fill="midnightblue" stroke="midnightblue" points="625.189,-84.6049 630.796,-75.615 620.807,-79.1465 625.189,-84.6049"/>
</g>
<!-- Node7 -->
<g id="node7" class="node"><title>Node7</title>
<g id="a_node7"><a xlink:href="../../de/d1f/ControlParameter_8hpp.html" target="_top" xlink:title="This class provides the interface for the optimizer module to access the data. ">
<polygon fill="white" stroke="black" points="505,-322.5 505,-341.5 641,-341.5 641,-322.5 505,-322.5"/>
<text text-anchor="middle" x="573" y="-329.5" font-family="Helvetica,sans-Serif" font-size="10.00">Core/ControlParameter.hpp</text>
</a>
</g>
</g>
<!-- Node6&#45;&gt;Node7 -->
<g id="edge8" class="edge"><title>Node6&#45;&gt;Node7</title>
<path fill="none" stroke="midnightblue" d="M731.494,-384.403C699.348,-373.978 645.013,-356.356 609.073,-344.699"/>
<polygon fill="midnightblue" stroke="midnightblue" points="610.049,-341.336 599.457,-341.581 607.889,-347.995 610.049,-341.336"/>
</g>
<!-- Node6&#45;&gt;Node8 -->
<g id="edge55" class="edge"><title>Node6&#45;&gt;Node8</title>
<path fill="none" stroke="midnightblue" d="M758.965,-384.216C763.077,-346.786 779.187,-200.126 784.942,-147.732"/>
<polygon fill="midnightblue" stroke="midnightblue" points="788.448,-147.872 786.061,-137.55 781.49,-147.108 788.448,-147.872"/>
</g>
<!-- Node12 -->
<g id="node12" class="node"><title>Node12</title>
<g id="a_node12"><a xlink:href="../../da/db2/FunctionTree_8hpp.html" target="_top" xlink:title="This class can be used to store a function in a tree&#45;like structure. ">
<polygon fill="white" stroke="red" points="1196,-118.5 1196,-137.5 1312,-137.5 1312,-118.5 1196,-118.5"/>
<text text-anchor="middle" x="1254" y="-125.5" font-family="Helvetica,sans-Serif" font-size="10.00">Core/FunctionTree.hpp</text>
</a>
</g>
</g>
<!-- Node6&#45;&gt;Node12 -->
<g id="edge56" class="edge"><title>Node6&#45;&gt;Node12</title>
<path fill="none" stroke="midnightblue" d="M819.206,-392.375C883.864,-389.867 987.774,-380.503 1071,-348 1162.43,-312.294 1200.45,-299.458 1245,-212 1255.31,-191.765 1256.37,-165.209 1255.64,-147.648"/>
<polygon fill="midnightblue" stroke="midnightblue" points="1259.13,-147.316 1254.98,-137.565 1252.14,-147.771 1259.13,-147.316"/>
</g>
<!-- Node6&#45;&gt;Node13 -->
<g id="edge57" class="edge"><title>Node6&#45;&gt;Node13</title>
<path fill="none" stroke="midnightblue" d="M751.883,-384.202C737.204,-363.092 699.79,-309.282 680.655,-281.762"/>
<polygon fill="midnightblue" stroke="midnightblue" points="683.508,-279.735 674.926,-273.522 677.761,-283.731 683.508,-279.735"/>
</g>
<!-- Node7&#45;&gt;Node2 -->
<g id="edge9" class="edge"><title>Node7&#45;&gt;Node2</title>
<path fill="none" stroke="midnightblue" d="M570.175,-322.476C558.266,-284.763 516.177,-131.441 592,-56 620.889,-27.2566 903.865,-15.2715 1000.7,-11.9903"/>
<polygon fill="midnightblue" stroke="midnightblue" points="1000.9,-15.4856 1010.78,-11.6575 1000.67,-8.48939 1000.9,-15.4856"/>
</g>
<!-- Node7&#45;&gt;Node3 -->
<g id="edge10" class="edge"><title>Node7&#45;&gt;Node3</title>
<path fill="none" stroke="midnightblue" d="M573.954,-322.197C575.701,-306.954 579.81,-274.713 586,-248 600.077,-187.254 624.013,-117.222 635.488,-84.9669"/>
<polygon fill="midnightblue" stroke="midnightblue" points="638.786,-86.139 638.87,-75.5444 632.197,-83.7744 638.786,-86.139"/>
</g>
<!-- Node7&#45;&gt;Node8 -->
<g id="edge11" class="edge"><title>Node7&#45;&gt;Node8</title>
<path fill="none" stroke="midnightblue" d="M575.035,-322.493C579.156,-306.584 589.686,-271.794 608,-248 647.847,-196.23 716.905,-159.615 756.587,-141.638"/>
<polygon fill="midnightblue" stroke="midnightblue" points="758.043,-144.822 765.771,-137.574 755.21,-138.42 758.043,-144.822"/>
</g>
<!-- Node7&#45;&gt;Node12 -->
<g id="edge19" class="edge"><title>Node7&#45;&gt;Node12</title>
<path fill="none" stroke="midnightblue" d="M641.184,-323.577C780.698,-307.457 1093.32,-266.29 1185,-212 1211.9,-196.072 1233.04,-165.659 1244.51,-146.402"/>
<polygon fill="midnightblue" stroke="midnightblue" points="1247.54,-148.139 1249.47,-137.72 1241.47,-144.664 1247.54,-148.139"/>
</g>
<!-- Node7&#45;&gt;Node13 -->
<g id="edge25" class="edge"><title>Node7&#45;&gt;Node13</title>
<path fill="none" stroke="midnightblue" d="M585.55,-322.372C601.433,-311.452 629.016,-292.489 648.1,-279.369"/>
<polygon fill="midnightblue" stroke="midnightblue" points="650.189,-282.18 656.447,-273.63 646.223,-276.412 650.189,-282.18"/>
</g>
<!-- Node8&#45;&gt;Node2 -->
<g id="edge14" class="edge"><title>Node8&#45;&gt;Node2</title>
<path fill="none" stroke="midnightblue" d="M798.552,-118.341C818.286,-103.864 860.132,-74.5122 899,-56 932.398,-40.093 972.926,-27.3165 1000.61,-19.4991"/>
<polygon fill="midnightblue" stroke="midnightblue" points="1001.84,-22.7894 1010.55,-16.7497 999.974,-16.0429 1001.84,-22.7894"/>
</g>
<!-- Node8&#45;&gt;Node3 -->
<g id="edge13" class="edge"><title>Node8&#45;&gt;Node3</title>
<path fill="none" stroke="midnightblue" d="M766.225,-118.403C741.568,-108.2 700.255,-91.1055 672.098,-79.4544"/>
<polygon fill="midnightblue" stroke="midnightblue" points="673.315,-76.1701 662.736,-75.5806 670.638,-82.6382 673.315,-76.1701"/>
</g>
<!-- Node8&#45;&gt;Node4 -->
<g id="edge12" class="edge"><title>Node8&#45;&gt;Node4</title>
<path fill="none" stroke="midnightblue" d="M777.214,-118.472C758.942,-103.082 717.782,-70.8859 677,-56 563.436,-14.5481 417.237,-10.1737 354.645,-10.4136"/>
<polygon fill="midnightblue" stroke="midnightblue" points="354.614,-6.91363 344.643,-10.4953 354.672,-13.9134 354.614,-6.91363"/>
</g>
<!-- Node9 -->
<g id="node9" class="node"><title>Node9</title>
<polygon fill="white" stroke="#bfbfbf" points="1153.5,-56.5 1153.5,-75.5 1188.5,-75.5 1188.5,-56.5 1153.5,-56.5"/>
<text text-anchor="middle" x="1171" y="-63.5" font-family="Helvetica,sans-Serif" font-size="10.00">map</text>
</g>
<!-- Node8&#45;&gt;Node9 -->
<g id="edge15" class="edge"><title>Node8&#45;&gt;Node9</title>
<path fill="none" stroke="midnightblue" d="M841.61,-118.467C924.799,-105.469 1080.25,-81.1799 1143.33,-71.3229"/>
<polygon fill="midnightblue" stroke="midnightblue" points="1143.98,-74.7639 1153.32,-69.762 1142.9,-67.8478 1143.98,-74.7639"/>
</g>
<!-- Node10 -->
<g id="node10" class="node"><title>Node10</title>
<g id="a_node10"><a xlink:href="../../db/dce/Parameter_8hpp.html" target="_top" xlink:title="This class implements some internal container of parameters. ">
<polygon fill="white" stroke="red" points="1475,-56.5 1475,-75.5 1579,-75.5 1579,-56.5 1475,-56.5"/>
<text text-anchor="middle" x="1527" y="-63.5" font-family="Helvetica,sans-Serif" font-size="10.00">Core/Parameter.hpp</text>
</a>
</g>
</g>
<!-- Node8&#45;&gt;Node10 -->
<g id="edge16" class="edge"><title>Node8&#45;&gt;Node10</title>
<path fill="none" stroke="midnightblue" d="M847.244,-122.115C985.429,-110.911 1324.07,-83.4534 1464.46,-72.0712"/>
<polygon fill="midnightblue" stroke="midnightblue" points="1464.93,-75.5441 1474.62,-71.2473 1464.37,-68.567 1464.93,-75.5441"/>
</g>
<!-- Node10&#45;&gt;Node4 -->
<g id="edge17" class="edge"><title>Node10&#45;&gt;Node4</title>
<path fill="none" stroke="midnightblue" d="M1474.92,-62.6624C1269.26,-53.4308 516.938,-19.6606 354.889,-12.3866"/>
<polygon fill="midnightblue" stroke="midnightblue" points="354.815,-8.87978 344.668,-11.9277 354.501,-15.8727 354.815,-8.87978"/>
</g>
<!-- Node11 -->
<g id="node11" class="node"><title>Node11</title>
<polygon fill="white" stroke="#bfbfbf" points="1706.5,-0.5 1706.5,-19.5 1759.5,-19.5 1759.5,-0.5 1706.5,-0.5"/>
<text text-anchor="middle" x="1733" y="-7.5" font-family="Helvetica,sans-Serif" font-size="10.00">complex</text>
</g>
<!-- Node10&#45;&gt;Node11 -->
<g id="edge18" class="edge"><title>Node10&#45;&gt;Node11</title>
<path fill="none" stroke="midnightblue" d="M1559.64,-56.4435C1596.92,-46.6702 1657.77,-30.721 1696.57,-20.5506"/>
<polygon fill="midnightblue" stroke="midnightblue" points="1697.62,-23.8923 1706.41,-17.971 1695.85,-17.1211 1697.62,-23.8923"/>
</g>
<!-- Node12&#45;&gt;Node2 -->
<g id="edge20" class="edge"><title>Node12&#45;&gt;Node2</title>
<path fill="none" stroke="midnightblue" d="M1253.8,-118.111C1252.96,-103.021 1248.98,-72.4341 1231,-56 1207.06,-34.12 1115.25,-20.4455 1065.5,-14.4843"/>
<polygon fill="midnightblue" stroke="midnightblue" points="1065.6,-10.9734 1055.27,-13.2965 1064.8,-17.9267 1065.6,-10.9734"/>
</g>
<!-- Node12&#45;&gt;Node3 -->
<g id="edge21" class="edge"><title>Node12&#45;&gt;Node3</title>
<path fill="none" stroke="midnightblue" d="M1195.98,-121.112C1168.42,-118.327 1135.01,-114.969 1105,-112 946.111,-96.2809 756.499,-78.0025 678.378,-70.4927"/>
<polygon fill="midnightblue" stroke="midnightblue" points="678.399,-66.9786 668.11,-69.5059 677.729,-73.9465 678.399,-66.9786"/>
</g>
<!-- Node12&#45;&gt;Node4 -->
<g id="edge22" class="edge"><title>Node12&#45;&gt;Node4</title>
<path fill="none" stroke="midnightblue" d="M1250.16,-118.498C1242.57,-102.849 1224.02,-69.824 1197,-56 1120.8,-17.0119 500.906,-11.7932 354.776,-11.1036"/>
<polygon fill="midnightblue" stroke="midnightblue" points="354.727,-7.60346 344.712,-11.0599 354.696,-14.6034 354.727,-7.60346"/>
</g>
<!-- Node12&#45;&gt;Node9 -->
<g id="edge23" class="edge"><title>Node12&#45;&gt;Node9</title>
<path fill="none" stroke="midnightblue" d="M1242.11,-118.403C1228.8,-108.78 1207,-93.0242 1191.04,-81.4891"/>
<polygon fill="midnightblue" stroke="midnightblue" points="1193.02,-78.6026 1182.87,-75.5806 1188.92,-84.2756 1193.02,-78.6026"/>
</g>
<!-- Node12&#45;&gt;Node10 -->
<g id="edge24" class="edge"><title>Node12&#45;&gt;Node10</title>
<path fill="none" stroke="midnightblue" d="M1292.82,-118.467C1341.64,-107.738 1425.46,-89.3157 1478.46,-77.6673"/>
<polygon fill="midnightblue" stroke="midnightblue" points="1479.29,-81.0684 1488.31,-75.5034 1477.79,-74.2316 1479.29,-81.0684"/>
</g>
<!-- Node13&#45;&gt;Node2 -->
<g id="edge26" class="edge"><title>Node13&#45;&gt;Node2</title>
<path fill="none" stroke="midnightblue" d="M661.33,-254.264C634.956,-223.171 552.544,-116.512 607,-56 633.257,-26.8238 905.917,-15.1655 1000.72,-11.9743"/>
<polygon fill="midnightblue" stroke="midnightblue" points="1000.99,-15.4676 1010.87,-11.6425 1000.76,-8.47133 1000.99,-15.4676"/>
</g>
<!-- Node13&#45;&gt;Node3 -->
<g id="edge27" class="edge"><title>Node13&#45;&gt;Node3</title>
<path fill="none" stroke="midnightblue" d="M664.055,-254.313C658.716,-244.426 650.507,-227.618 647,-212 637.054,-167.7 638.635,-113.899 640.442,-85.9375"/>
<polygon fill="midnightblue" stroke="midnightblue" points="643.956,-85.8686 641.197,-75.6393 636.975,-85.3566 643.956,-85.8686"/>
</g>
<!-- Node13&#45;&gt;Node8 -->
<g id="edge41" class="edge"><title>Node13&#45;&gt;Node8</title>
<path fill="none" stroke="midnightblue" d="M673.406,-254.365C681.73,-238.545 700.923,-204.305 723,-180 735.651,-166.072 752.341,-152.905 765.505,-143.44"/>
<polygon fill="midnightblue" stroke="midnightblue" points="767.781,-146.119 773.963,-137.515 763.764,-140.386 767.781,-146.119"/>
</g>
<!-- Node13&#45;&gt;Node12 -->
<g id="edge42" class="edge"><title>Node13&#45;&gt;Node12</title>
<path fill="none" stroke="midnightblue" d="M720.737,-261.125C828.291,-256.642 1072.38,-243.262 1149,-212 1158.9,-207.963 1208.79,-166.865 1236.09,-144.057"/>
<polygon fill="midnightblue" stroke="midnightblue" points="1238.35,-146.731 1243.77,-137.627 1233.85,-141.365 1238.35,-146.731"/>
</g>
<!-- Node14 -->
<g id="node14" class="node"><title>Node14</title>
<g id="a_node14"><a xlink:href="../../d4/d62/Resonance_8hpp.html" target="_top" xlink:title="Core/Resonance.hpp">
<polygon fill="white" stroke="red" points="1031.5,-186.5 1031.5,-205.5 1140.5,-205.5 1140.5,-186.5 1031.5,-186.5"/>
<text text-anchor="middle" x="1086" y="-193.5" font-family="Helvetica,sans-Serif" font-size="10.00">Core/Resonance.hpp</text>
</a>
</g>
</g>
<!-- Node13&#45;&gt;Node14 -->
<g id="edge28" class="edge"><title>Node13&#45;&gt;Node14</title>
<path fill="none" stroke="midnightblue" d="M720.551,-254.841C796.798,-242.773 939.512,-220.185 1022.23,-207.093"/>
<polygon fill="midnightblue" stroke="midnightblue" points="1022.93,-210.526 1032.26,-205.505 1021.84,-203.612 1022.93,-210.526"/>
</g>
<!-- Node15 -->
<g id="node15" class="node"><title>Node15</title>
<g id="a_node15"><a xlink:href="../../d8/dd4/DataPoint_8hpp.html" target="_top" xlink:title="dataPoint stores kinematic information of a dalitz plot ">
<polygon fill="white" stroke="red" points="993.5,-118.5 993.5,-137.5 1096.5,-137.5 1096.5,-118.5 993.5,-118.5"/>
<text text-anchor="middle" x="1045" y="-125.5" font-family="Helvetica,sans-Serif" font-size="10.00">Core/DataPoint.hpp</text>
</a>
</g>
</g>
<!-- Node13&#45;&gt;Node15 -->
<g id="edge52" class="edge"><title>Node13&#45;&gt;Node15</title>
<path fill="none" stroke="midnightblue" d="M693.092,-254.414C757.955,-231.298 936.403,-167.702 1011.26,-141.026"/>
<polygon fill="midnightblue" stroke="midnightblue" points="1012.86,-144.169 1021.11,-137.515 1010.51,-137.575 1012.86,-144.169"/>
</g>
<!-- Node16 -->
<g id="node16" class="node"><title>Node16</title>
<g id="a_node16"><a xlink:href="../../d8/d6f/Efficiency_8hpp.html" target="_top" xlink:title="Core/Efficiency.hpp">
<polygon fill="white" stroke="red" points="941.5,-56.5 941.5,-75.5 1044.5,-75.5 1044.5,-56.5 941.5,-56.5"/>
<text text-anchor="middle" x="993" y="-63.5" font-family="Helvetica,sans-Serif" font-size="10.00">Core/Efficiency.hpp</text>
</a>
</g>
</g>
<!-- Node13&#45;&gt;Node16 -->
<g id="edge53" class="edge"><title>Node13&#45;&gt;Node16</title>
<path fill="none" stroke="midnightblue" d="M668.92,-254.155C669.203,-227.9 673.884,-149.889 718,-112 749.176,-85.2246 860.091,-74.1688 931.176,-69.7607"/>
<polygon fill="midnightblue" stroke="midnightblue" points="931.585,-73.2427 941.361,-69.1574 931.172,-66.2549 931.585,-73.2427"/>
</g>
<!-- Node13&#45;&gt;Node18 -->
<g id="edge43" class="edge"><title>Node13&#45;&gt;Node18</title>
<path fill="none" stroke="midnightblue" d="M627.494,-254.439C569.344,-242.446 463.688,-220.654 400.564,-207.635"/>
<polygon fill="midnightblue" stroke="midnightblue" points="400.934,-204.138 390.433,-205.546 399.52,-210.993 400.934,-204.138"/>
</g>
<!-- Node19 -->
<g id="node19" class="node"><title>Node19</title>
<g id="a_node19"><a xlink:href="../../df/d33/Generator_8hpp.html" target="_top" xlink:title="Core/Generator.hpp">
<polygon fill="white" stroke="black" points="180,-118.5 180,-137.5 282,-137.5 282,-118.5 180,-118.5"/>
<text text-anchor="middle" x="231" y="-125.5" font-family="Helvetica,sans-Serif" font-size="10.00">Core/Generator.hpp</text>
</a>
</g>
</g>
<!-- Node13&#45;&gt;Node19 -->
<g id="edge54" class="edge"><title>Node13&#45;&gt;Node19</title>
<path fill="none" stroke="midnightblue" d="M617.374,-257.328C515.655,-245.991 297.915,-220.863 284,-212 260.152,-196.811 244.998,-166.61 237.257,-147.13"/>
<polygon fill="midnightblue" stroke="midnightblue" points="240.472,-145.732 233.712,-137.574 233.909,-148.167 240.472,-145.732"/>
</g>
<!-- Node14&#45;&gt;Node2 -->
<g id="edge29" class="edge"><title>Node14&#45;&gt;Node2</title>
<path fill="none" stroke="midnightblue" d="M1091,-186.176C1099,-170.902 1113,-138.615 1105,-112 1094.69,-77.6878 1067.37,-45.3141 1049.5,-26.8524"/>
<polygon fill="midnightblue" stroke="midnightblue" points="1051.82,-24.218 1042.28,-19.6092 1046.86,-29.1612 1051.82,-24.218"/>
</g>
<!-- Node14&#45;&gt;Node3 -->
<g id="edge30" class="edge"><title>Node14&#45;&gt;Node3</title>
<path fill="none" stroke="midnightblue" d="M1065.29,-186.474C1025.24,-170.229 934.12,-134.458 855,-112 793.699,-94.5998 720.756,-80.6005 678.094,-73.0697"/>
<polygon fill="midnightblue" stroke="midnightblue" points="678.635,-69.6113 668.182,-71.3405 677.432,-76.5071 678.635,-69.6113"/>
</g>
<!-- Node14&#45;&gt;Node10 -->
<g id="edge31" class="edge"><title>Node14&#45;&gt;Node10</title>
<path fill="none" stroke="midnightblue" d="M1095.09,-186.411C1115.75,-167.071 1166.08,-121.087 1187,-112 1235.5,-90.9377 1380.33,-77.4419 1464.5,-71.1508"/>
<polygon fill="midnightblue" stroke="midnightblue" points="1464.99,-74.6245 1474.71,-70.4011 1464.48,-67.6433 1464.99,-74.6245"/>
</g>
<!-- Node14&#45;&gt;Node12 -->
<g id="edge40" class="edge"><title>Node14&#45;&gt;Node12</title>
<path fill="none" stroke="midnightblue" d="M1107.96,-186.372C1137.22,-174.877 1189.17,-154.469 1222.57,-141.346"/>
<polygon fill="midnightblue" stroke="midnightblue" points="1224.27,-144.44 1232.3,-137.526 1221.71,-137.925 1224.27,-144.44"/>
</g>
<!-- Node14&#45;&gt;Node15 -->
<g id="edge32" class="edge"><title>Node14&#45;&gt;Node15</title>
<path fill="none" stroke="midnightblue" d="M1080.64,-186.372C1074.41,-176.348 1063.98,-159.546 1056,-146.708"/>
<polygon fill="midnightblue" stroke="midnightblue" points="1058.74,-144.489 1050.49,-137.841 1052.8,-148.182 1058.74,-144.489"/>
</g>
<!-- Node15&#45;&gt;Node2 -->
<g id="edge33" class="edge"><title>Node15&#45;&gt;Node2</title>
<path fill="none" stroke="midnightblue" d="M1047.79,-118.168C1051.67,-104.653 1057.69,-78.0842 1053,-56 1051,-46.5915 1046.9,-36.7618 1042.93,-28.6981"/>
<polygon fill="midnightblue" stroke="midnightblue" points="1045.89,-26.8101 1038.13,-19.5932 1039.69,-30.0721 1045.89,-26.8101"/>
</g>
<!-- Node15&#45;&gt;Node9 -->
<g id="edge34" class="edge"><title>Node15&#45;&gt;Node9</title>
<path fill="none" stroke="midnightblue" d="M1063.05,-118.403C1084.32,-108.277 1119.84,-91.3613 1144.29,-79.7173"/>
<polygon fill="midnightblue" stroke="midnightblue" points="1145.86,-82.8466 1153.39,-75.3871 1142.85,-76.5265 1145.86,-82.8466"/>
</g>
<!-- Node15&#45;&gt;Node16 -->
<g id="edge35" class="edge"><title>Node15&#45;&gt;Node16</title>
<path fill="none" stroke="midnightblue" d="M1037.55,-118.403C1029.67,-109.314 1017.06,-94.7559 1007.26,-83.4489"/>
<polygon fill="midnightblue" stroke="midnightblue" points="1009.63,-80.8452 1000.44,-75.5806 1004.34,-85.4298 1009.63,-80.8452"/>
</g>
<!-- Node15&#45;&gt;Node17 -->
<g id="edge37" class="edge"><title>Node15&#45;&gt;Node17</title>
<path fill="none" stroke="midnightblue" d="M993.437,-122.709C861.035,-111.691 510.147,-82.4907 376.606,-71.3777"/>
<polygon fill="midnightblue" stroke="midnightblue" points="376.875,-67.8881 366.619,-70.5467 376.294,-74.864 376.875,-67.8881"/>
</g>
<!-- Node16&#45;&gt;Node2 -->
<g id="edge36" class="edge"><title>Node16&#45;&gt;Node2</title>
<path fill="none" stroke="midnightblue" d="M999.605,-56.083C1005.26,-48.4554 1013.54,-37.2645 1020.45,-27.9408"/>
<polygon fill="midnightblue" stroke="midnightblue" points="1023.38,-29.87 1026.52,-19.7511 1017.75,-25.7034 1023.38,-29.87"/>
</g>
<!-- Node17&#45;&gt;Node2 -->
<g id="edge38" class="edge"><title>Node17&#45;&gt;Node2</title>
<path fill="none" stroke="midnightblue" d="M366.586,-57.8581C371.439,-57.1684 376.321,-56.5298 381,-56 618.202,-29.1402 905.896,-16.0353 1000.88,-12.2184"/>
<polygon fill="midnightblue" stroke="midnightblue" points="1001.13,-15.7111 1010.99,-11.8182 1000.85,-8.71661 1001.13,-15.7111"/>
</g>
<!-- Node17&#45;&gt;Node4 -->
<g id="edge39" class="edge"><title>Node17&#45;&gt;Node4</title>
<path fill="none" stroke="midnightblue" d="M324,-56.083C324,-49.0059 324,-38.8611 324,-29.9865"/>
<polygon fill="midnightblue" stroke="midnightblue" points="327.5,-29.751 324,-19.7511 320.5,-29.7511 327.5,-29.751"/>
</g>
<!-- Node18&#45;&gt;Node2 -->
<g id="edge44" class="edge"><title>Node18&#45;&gt;Node2</title>
<path fill="none" stroke="midnightblue" d="M350.397,-186.201C354.938,-160.858 371.812,-87.5077 419,-56 467.59,-23.5568 881.088,-13.7061 1000.71,-11.5223"/>
<polygon fill="midnightblue" stroke="midnightblue" points="1000.78,-15.0217 1010.72,-11.3452 1000.66,-8.02279 1000.78,-15.0217"/>
</g>
<!-- Node18&#45;&gt;Node3 -->
<g id="edge46" class="edge"><title>Node18&#45;&gt;Node3</title>
<path fill="none" stroke="midnightblue" d="M367.456,-186.437C400.504,-171.158 472.033,-138.327 533,-112 559.241,-100.668 589.281,-88.3118 611.17,-79.4191"/>
<polygon fill="midnightblue" stroke="midnightblue" points="612.657,-82.5928 620.611,-75.593 610.028,-76.1053 612.657,-82.5928"/>
</g>
<!-- Node18&#45;&gt;Node4 -->
<g id="edge45" class="edge"><title>Node18&#45;&gt;Node4</title>
<path fill="none" stroke="midnightblue" d="M342.41,-186.274C325.106,-163.156 279.213,-100.426 272,-76 269.482,-67.4751 268.305,-64.0844 272,-56 277.777,-43.3602 289.052,-32.911 299.631,-25.2737"/>
<polygon fill="midnightblue" stroke="midnightblue" points="301.849,-28.0009 308.217,-19.5333 297.958,-22.1817 301.849,-28.0009"/>
</g>
<!-- Node18&#45;&gt;Node8 -->
<g id="edge48" class="edge"><title>Node18&#45;&gt;Node8</title>
<path fill="none" stroke="midnightblue" d="M405.364,-186.507C486.152,-174.333 634.584,-151.967 720.591,-139.007"/>
<polygon fill="midnightblue" stroke="midnightblue" points="721.139,-142.464 730.506,-137.513 720.096,-135.542 721.139,-142.464"/>
</g>
<!-- Node18&#45;&gt;Node15 -->
<g id="edge51" class="edge"><title>Node18&#45;&gt;Node15</title>
<path fill="none" stroke="midnightblue" d="M405.073,-189.683C533.708,-177.485 849.224,-147.565 983.207,-134.86"/>
<polygon fill="midnightblue" stroke="midnightblue" points="983.678,-138.331 993.303,-133.902 983.017,-131.362 983.678,-138.331"/>
</g>
<!-- Node18&#45;&gt;Node17 -->
<g id="edge47" class="edge"><title>Node18&#45;&gt;Node17</title>
<path fill="none" stroke="midnightblue" d="M347.282,-186.202C343.248,-165.551 333.103,-113.606 327.632,-85.5937"/>
<polygon fill="midnightblue" stroke="midnightblue" points="331.017,-84.666 325.665,-75.5224 324.146,-86.0079 331.017,-84.666"/>
</g>
<!-- Node18&#45;&gt;Node19 -->
<g id="edge49" class="edge"><title>Node18&#45;&gt;Node19</title>
<path fill="none" stroke="midnightblue" d="M333.574,-186.372C313.697,-175.254 278.915,-155.8 255.427,-142.662"/>
<polygon fill="midnightblue" stroke="midnightblue" points="256.866,-139.457 246.43,-137.63 253.449,-145.567 256.866,-139.457"/>
</g>
<!-- Node19&#45;&gt;Node17 -->
<g id="edge50" class="edge"><title>Node19&#45;&gt;Node17</title>
<path fill="none" stroke="midnightblue" d="M244.325,-118.403C259.38,-108.691 284.116,-92.7319 302.037,-81.1697"/>
<polygon fill="midnightblue" stroke="midnightblue" points="304.195,-83.9429 310.7,-75.5806 300.4,-78.0609 304.195,-83.9429"/>
</g>
<!-- Node20&#45;&gt;Node2 -->
<g id="edge60" class="edge"><title>Node20&#45;&gt;Node2</title>
<path fill="none" stroke="midnightblue" d="M1062.69,-331.496C1222.45,-332.134 1656.72,-329.161 1790,-280 1847.79,-258.682 1901,-258.6 1901,-197 1901,-197 1901,-197 1901,-127 1901,-49.6079 1817.14,-74.5225 1742,-56 1610.93,-23.6925 1185.64,-13.7341 1065.11,-11.5259"/>
<polygon fill="midnightblue" stroke="midnightblue" points="1065.1,-8.0254 1055.04,-11.3468 1064.98,-15.0243 1065.1,-8.0254"/>
</g>
<!-- Node20&#45;&gt;Node3 -->
<g id="edge61" class="edge"><title>Node20&#45;&gt;Node3</title>
<path fill="none" stroke="midnightblue" d="M977.708,-316.96C926.347,-287.912 807.148,-217.743 718,-144 694.83,-124.834 670.917,-99.5258 656.252,-83.2536"/>
<polygon fill="midnightblue" stroke="midnightblue" points="658.743,-80.7884 649.479,-75.6482 653.516,-85.4439 658.743,-80.7884"/>
</g>
<!-- Node20&#45;&gt;Node4 -->
<g id="edge63" class="edge"><title>Node20&#45;&gt;Node4</title>
<path fill="none" stroke="midnightblue" d="M943.152,-329.688C840.621,-326.513 625.19,-315.793 447,-280 348.326,-260.179 315.383,-266.853 231,-212 187.544,-183.752 146.44,-157.642 171,-112 196.918,-63.8357 256.981,-34.8232 293.671,-20.9533"/>
<polygon fill="midnightblue" stroke="midnightblue" points="295.145,-24.1414 303.351,-17.4394 292.757,-17.5615 295.145,-24.1414"/>
</g>
<!-- Node20&#45;&gt;Node8 -->
<g id="edge67" class="edge"><title>Node20&#45;&gt;Node8</title>
<path fill="none" stroke="midnightblue" d="M987.644,-316.6C977.108,-306.561 962.929,-292.736 951,-280 910.927,-237.216 909.078,-218.644 865,-180 848.525,-165.556 827.653,-152.122 811.647,-142.671"/>
<polygon fill="midnightblue" stroke="midnightblue" points="813.264,-139.564 802.855,-137.59 809.761,-145.624 813.264,-139.564"/>
</g>
<!-- Node20&#45;&gt;Node9 -->
<g id="edge62" class="edge"><title>Node20&#45;&gt;Node9</title>
<path fill="none" stroke="midnightblue" d="M1062.68,-326.21C1185.34,-314.997 1459.02,-282.479 1515,-212 1602.43,-101.925 1294.79,-74.2868 1198.75,-68.4113"/>
<polygon fill="midnightblue" stroke="midnightblue" points="1198.81,-64.909 1188.63,-67.8255 1198.41,-71.8973 1198.81,-64.909"/>
</g>
<!-- Node20&#45;&gt;Node10 -->
<g id="edge66" class="edge"><title>Node20&#45;&gt;Node10</title>
<path fill="none" stroke="midnightblue" d="M1062.6,-329.926C1229.44,-326.506 1692.86,-314.018 1752,-280 1825.79,-237.552 1899.81,-176.287 1844,-112 1811.69,-74.7764 1672,-67.5309 1589.22,-66.5922"/>
<polygon fill="midnightblue" stroke="midnightblue" points="1589.21,-63.0921 1579.18,-66.506 1589.15,-70.0918 1589.21,-63.0921"/>
</g>
<!-- Node20&#45;&gt;Node12 -->
<g id="edge68" class="edge"><title>Node20&#45;&gt;Node12</title>
<path fill="none" stroke="midnightblue" d="M1047.73,-316.929C1096.44,-299.508 1173.69,-265.425 1221,-212 1237.35,-193.541 1246.12,-165.994 1250.42,-147.768"/>
<polygon fill="midnightblue" stroke="midnightblue" points="1253.88,-148.299 1252.54,-137.789 1247.04,-146.84 1253.88,-148.299"/>
</g>
<!-- Node20&#45;&gt;Node13 -->
<g id="edge64" class="edge"><title>Node20&#45;&gt;Node13</title>
<path fill="none" stroke="midnightblue" d="M943.287,-319.201C880.496,-306.793 782.613,-287.451 722.334,-275.539"/>
<polygon fill="midnightblue" stroke="midnightblue" points="722.752,-272.054 712.264,-273.549 721.395,-278.921 722.752,-272.054"/>
</g>
<!-- Node20&#45;&gt;Node14 -->
<g id="edge65" class="edge"><title>Node20&#45;&gt;Node14</title>
<path fill="none" stroke="midnightblue" d="M1011.88,-316.66C1027.23,-291.885 1058.65,-241.161 1075.22,-214.407"/>
<polygon fill="midnightblue" stroke="midnightblue" points="1078.3,-216.072 1080.59,-205.728 1072.35,-212.386 1078.3,-216.072"/>
</g>
<!-- Node20&#45;&gt;Node15 -->
<g id="edge70" class="edge"><title>Node20&#45;&gt;Node15</title>
<path fill="none" stroke="midnightblue" d="M1003.37,-316.985C1004.4,-289.984 1008.18,-229.086 1022,-180 1025.24,-168.481 1030.69,-156.237 1035.47,-146.634"/>
<polygon fill="midnightblue" stroke="midnightblue" points="1038.6,-148.212 1040.09,-137.723 1032.38,-144.991 1038.6,-148.212"/>
</g>
<!-- Node20&#45;&gt;Node16 -->
<g id="edge69" class="edge"><title>Node20&#45;&gt;Node16</title>
<path fill="none" stroke="midnightblue" d="M999.965,-316.897C992.867,-282.085 976.347,-189.285 984,-112 984.874,-103.17 986.691,-93.5054 988.465,-85.4041"/>
<polygon fill="midnightblue" stroke="midnightblue" points="991.901,-86.0846 990.765,-75.5508 985.084,-84.4935 991.901,-86.0846"/>
</g>
<!-- Node20&#45;&gt;Node19 -->
<g id="edge71" class="edge"><title>Node20&#45;&gt;Node19</title>
<path fill="none" stroke="midnightblue" d="M943.259,-324.564C865.74,-315.92 726.391,-299.386 608,-280 536.004,-268.211 518.657,-261.701 447,-248 360.008,-231.367 315.32,-272.888 251,-212 233.536,-195.468 230.175,-166.552 230.056,-147.59"/>
<polygon fill="midnightblue" stroke="midnightblue" points="233.556,-147.586 230.29,-137.507 226.558,-147.423 233.556,-147.586"/>
</g>
<!-- Node21 -->
<g id="node21" class="node"><title>Node21</title>
<g id="a_node21"><a xlink:href="../../d3/d76/AmpAbsDynamicalFunction_8hpp.html" target="_top" xlink:title="Physics/AmplitudeSum\l/AmpAbsDynamicalFunction.hpp">
<polygon fill="white" stroke="black" points="1563,-249 1563,-279 1723,-279 1723,-249 1563,-249"/>
<text text-anchor="start" x="1571" y="-267" font-family="Helvetica,sans-Serif" font-size="10.00">Physics/AmplitudeSum</text>
<text text-anchor="middle" x="1643" y="-256" font-family="Helvetica,sans-Serif" font-size="10.00">/AmpAbsDynamicalFunction.hpp</text>
</a>
</g>
</g>
<!-- Node20&#45;&gt;Node21 -->
<g id="edge72" class="edge"><title>Node20&#45;&gt;Node21</title>
<path fill="none" stroke="midnightblue" d="M1062.52,-326.716C1163.01,-319.198 1372.61,-302.288 1549,-280 1550.27,-279.84 1551.55,-279.676 1552.83,-279.508"/>
<polygon fill="midnightblue" stroke="midnightblue" points="1553.36,-282.968 1562.8,-278.156 1552.42,-276.032 1553.36,-282.968"/>
</g>
<!-- Node25 -->
<g id="node25" class="node"><title>Node25</title>
<g id="a_node25"><a xlink:href="../../d7/dd9/DalitzKinematics_8hpp.html" target="_top" xlink:title="DalitzKinematics stores kinematic information of a dalitz plot. ">
<polygon fill="white" stroke="red" points="1553,-113 1553,-143 1671,-143 1671,-113 1553,-113"/>
<text text-anchor="start" x="1561" y="-131" font-family="Helvetica,sans-Serif" font-size="10.00">Physics/DPKinematics</text>
<text text-anchor="middle" x="1612" y="-120" font-family="Helvetica,sans-Serif" font-size="10.00">/DalitzKinematics.hpp</text>
</a>
</g>
</g>
<!-- Node20&#45;&gt;Node25 -->
<g id="edge91" class="edge"><title>Node20&#45;&gt;Node25</title>
<path fill="none" stroke="midnightblue" d="M1062.53,-331.375C1228.41,-331.803 1686.74,-328.541 1732,-280 1773.6,-235.389 1695.24,-177.809 1646.57,-148.305"/>
<polygon fill="midnightblue" stroke="midnightblue" points="1648.25,-145.232 1637.87,-143.133 1644.68,-151.25 1648.25,-145.232"/>
</g>
<!-- Node21&#45;&gt;Node2 -->
<g id="edge73" class="edge"><title>Node21&#45;&gt;Node2</title>
<path fill="none" stroke="midnightblue" d="M1662.2,-248.776C1672.89,-239.615 1685.17,-226.693 1691,-212 1696.24,-198.779 1692.14,-194.177 1691,-180 1688.55,-149.483 1695.43,-138.442 1680,-112 1659.92,-77.5884 1647.05,-70.6406 1610,-56 1509.6,-16.3322 1171.25,-11.5518 1065.12,-11.0397"/>
<polygon fill="midnightblue" stroke="midnightblue" points="1065.04,-7.53944 1055.03,-11.0008 1065.01,-14.5394 1065.04,-7.53944"/>
</g>
<!-- Node21&#45;&gt;Node10 -->
<g id="edge76" class="edge"><title>Node21&#45;&gt;Node10</title>
<path fill="none" stroke="midnightblue" d="M1655.72,-248.836C1669.91,-231.243 1688.93,-200.991 1673,-180 1637.01,-132.59 1584.92,-187.228 1544,-144 1529.25,-128.423 1526.19,-103.07 1526.03,-85.743"/>
<polygon fill="midnightblue" stroke="midnightblue" points="1529.53,-85.7737 1526.25,-75.6987 1522.53,-85.6188 1529.53,-85.7737"/>
</g>
<!-- Node21&#45;&gt;Node11 -->
<g id="edge74" class="edge"><title>Node21&#45;&gt;Node11</title>
<path fill="none" stroke="midnightblue" d="M1688.6,-248.914C1754.84,-225.524 1874.22,-171.526 1915,-76 1939.79,-17.926 1829.77,-10.1094 1769.75,-10.0425"/>
<polygon fill="midnightblue" stroke="midnightblue" points="1769.5,-6.54383 1759.52,-10.105 1769.54,-13.5437 1769.5,-6.54383"/>
</g>
<!-- Node21&#45;&gt;Node12 -->
<g id="edge78" class="edge"><title>Node21&#45;&gt;Node12</title>
<path fill="none" stroke="midnightblue" d="M1562.82,-256.993C1508.76,-250.709 1436.85,-237.923 1378,-212 1356.2,-202.396 1354.65,-193.468 1335,-180 1315.86,-166.885 1293.51,-152.908 1277.14,-142.909"/>
<polygon fill="midnightblue" stroke="midnightblue" points="1278.63,-139.716 1268.26,-137.518 1274.99,-145.7 1278.63,-139.716"/>
</g>
<!-- Node21&#45;&gt;Node14 -->
<g id="edge82" class="edge"><title>Node21&#45;&gt;Node14</title>
<path fill="none" stroke="midnightblue" d="M1562.9,-253.509C1451.87,-240.352 1253.32,-216.826 1150.97,-204.698"/>
<polygon fill="midnightblue" stroke="midnightblue" points="1151.11,-201.191 1140.77,-203.49 1150.29,-208.142 1151.11,-201.191"/>
</g>
<!-- Node21&#45;&gt;Node15 -->
<g id="edge77" class="edge"><title>Node21&#45;&gt;Node15</title>
<path fill="none" stroke="midnightblue" d="M1562.98,-252.627C1499.65,-243.767 1409.16,-229.662 1331,-212 1239.56,-191.338 1134.18,-158.309 1080.48,-140.795"/>
<polygon fill="midnightblue" stroke="midnightblue" points="1081.35,-137.397 1070.75,-137.61 1079.17,-144.05 1081.35,-137.397"/>
</g>
<!-- Node22 -->
<g id="node22" class="node"><title>Node22</title>
<polygon fill="white" stroke="#bfbfbf" points="1563.5,-181 1563.5,-211 1664.5,-211 1664.5,-181 1563.5,-181"/>
<text text-anchor="start" x="1571.5" y="-199" font-family="Helvetica,sans-Serif" font-size="10.00">boost/property_tree</text>
<text text-anchor="middle" x="1614" y="-188" font-family="Helvetica,sans-Serif" font-size="10.00">/ptree.hpp</text>
</g>
<!-- Node21&#45;&gt;Node22 -->
<g id="edge75" class="edge"><title>Node21&#45;&gt;Node22</title>
<path fill="none" stroke="midnightblue" d="M1636.71,-248.679C1633.1,-240.463 1628.47,-229.943 1624.34,-220.542"/>
<polygon fill="midnightblue" stroke="midnightblue" points="1627.51,-219.04 1620.28,-211.293 1621.1,-221.856 1627.51,-219.04"/>
</g>
<!-- Node23 -->
<g id="node23" class="node"><title>Node23</title>
<g id="a_node23"><a xlink:href="../../d8/d35/PhysConst_8hpp.html" target="_top" xlink:title="PhysConst provides particle information to the framework. ">
<polygon fill="white" stroke="red" points="1727,-118.5 1727,-137.5 1835,-137.5 1835,-118.5 1727,-118.5"/>
<text text-anchor="middle" x="1781" y="-125.5" font-family="Helvetica,sans-Serif" font-size="10.00">Core/PhysConst.hpp</text>
</a>
</g>
</g>
<!-- Node21&#45;&gt;Node23 -->
<g id="edge79" class="edge"><title>Node21&#45;&gt;Node23</title>
<path fill="none" stroke="midnightblue" d="M1686.73,-248.991C1706.59,-240.814 1729.14,-228.747 1745,-212 1762.25,-193.782 1771.99,-165.98 1776.88,-147.65"/>
<polygon fill="midnightblue" stroke="midnightblue" points="1780.29,-148.408 1779.26,-137.863 1773.49,-146.749 1780.29,-148.408"/>
</g>
<!-- Node24 -->
<g id="node24" class="node"><title>Node24</title>
<g id="a_node24"><a xlink:href="../../d0/d2a/AmpWigner2_8hpp.html" target="_top" xlink:title="Angular distribution based on WignerD functions. ">
<polygon fill="white" stroke="red" points="1387.5,-181 1387.5,-211 1506.5,-211 1506.5,-181 1387.5,-181"/>
<text text-anchor="start" x="1395.5" y="-199" font-family="Helvetica,sans-Serif" font-size="10.00">Physics/AmplitudeSum</text>
<text text-anchor="middle" x="1447" y="-188" font-family="Helvetica,sans-Serif" font-size="10.00">/AmpWigner2.hpp</text>
</a>
</g>
</g>
<!-- Node21&#45;&gt;Node24 -->
<g id="edge83" class="edge"><title>Node21&#45;&gt;Node24</title>
<path fill="none" stroke="midnightblue" d="M1600.95,-248.841C1570.88,-238.715 1530.24,-225.03 1498.26,-214.262"/>
<polygon fill="midnightblue" stroke="midnightblue" points="1499.23,-210.896 1488.64,-211.022 1497,-217.53 1499.23,-210.896"/>
</g>
<!-- Node23&#45;&gt;Node2 -->
<g id="edge80" class="edge"><title>Node23&#45;&gt;Node2</title>
<path fill="none" stroke="midnightblue" d="M1775.79,-118.258C1765.85,-102.522 1742.54,-69.783 1713,-56 1653.94,-28.4465 1192.84,-14.9883 1065.49,-11.7727"/>
<polygon fill="midnightblue" stroke="midnightblue" points="1065.31,-8.26721 1055.22,-11.5176 1065.13,-15.2651 1065.31,-8.26721"/>
</g>
<!-- Node23&#45;&gt;Node10 -->
<g id="edge81" class="edge"><title>Node23&#45;&gt;Node10</title>
<path fill="none" stroke="midnightblue" d="M1744.88,-118.467C1699.65,-107.783 1622.12,-89.4687 1572.77,-77.8129"/>
<polygon fill="midnightblue" stroke="midnightblue" points="1573.53,-74.3961 1563,-75.5034 1571.93,-81.2087 1573.53,-74.3961"/>
</g>
<!-- Node24&#45;&gt;Node2 -->
<g id="edge84" class="edge"><title>Node24&#45;&gt;Node2</title>
<path fill="none" stroke="midnightblue" d="M1435.87,-180.929C1421.28,-163.158 1394.21,-132.44 1366,-112 1270.97,-43.1335 1128.41,-20.6248 1065.18,-13.7734"/>
<polygon fill="midnightblue" stroke="midnightblue" points="1065.33,-10.2707 1055.03,-12.7356 1064.62,-17.2344 1065.33,-10.2707"/>
</g>
<!-- Node24&#45;&gt;Node3 -->
<g id="edge85" class="edge"><title>Node24&#45;&gt;Node3</title>
<path fill="none" stroke="midnightblue" d="M1431.2,-180.719C1408.5,-161.184 1364.47,-126.863 1320,-112 1259.06,-91.6308 810.755,-73.3383 678.578,-68.3416"/>
<polygon fill="midnightblue" stroke="midnightblue" points="678.32,-64.8295 668.196,-67.9519 678.058,-71.8246 678.32,-64.8295"/>
</g>
<!-- Node24&#45;&gt;Node8 -->
<g id="edge86" class="edge"><title>Node24&#45;&gt;Node8</title>
<path fill="none" stroke="midnightblue" d="M1387.27,-189.027C1265.23,-176.823 987.848,-149.085 857.348,-136.035"/>
<polygon fill="midnightblue" stroke="midnightblue" points="857.374,-132.52 847.075,-135.008 856.677,-139.485 857.374,-132.52"/>
</g>
<!-- Node24&#45;&gt;Node12 -->
<g id="edge88" class="edge"><title>Node24&#45;&gt;Node12</title>
<path fill="none" stroke="midnightblue" d="M1405.6,-180.841C1370.77,-168.93 1321.53,-152.094 1288.73,-140.876"/>
<polygon fill="midnightblue" stroke="midnightblue" points="1289.7,-137.511 1279.11,-137.587 1287.44,-144.134 1289.7,-137.511"/>
</g>
<!-- Node24&#45;&gt;Node15 -->
<g id="edge87" class="edge"><title>Node24&#45;&gt;Node15</title>
<path fill="none" stroke="midnightblue" d="M1387.25,-185.19C1311.89,-172.819 1182.98,-151.653 1106.71,-139.131"/>
<polygon fill="midnightblue" stroke="midnightblue" points="1107.2,-135.665 1096.76,-137.498 1106.06,-142.572 1107.2,-135.665"/>
</g>
<!-- Node24&#45;&gt;Node25 -->
<g id="edge89" class="edge"><title>Node24&#45;&gt;Node25</title>
<path fill="none" stroke="midnightblue" d="M1482.4,-180.841C1507.28,-170.89 1540.75,-157.5 1567.45,-146.822"/>
<polygon fill="midnightblue" stroke="midnightblue" points="1568.96,-149.985 1576.95,-143.022 1566.36,-143.486 1568.96,-149.985"/>
</g>
<!-- Node25&#45;&gt;Node2 -->
<g id="edge90" class="edge"><title>Node25&#45;&gt;Node2</title>
<path fill="none" stroke="midnightblue" d="M1611.6,-112.954C1610.3,-96.455 1605.44,-69.612 1588,-56 1546.71,-23.7633 1177.45,-13.8556 1065.21,-11.5756"/>
<polygon fill="midnightblue" stroke="midnightblue" points="1065.24,-8.07551 1055.18,-11.3782 1065.1,-15.0742 1065.24,-8.07551"/>
</g>
</g>
</svg>
