<?xml version="1.0" encoding="UTF-8" standalone="no"?>
<!DOCTYPE svg PUBLIC "-//W3C//DTD SVG 1.1//EN"
 "http://www.w3.org/Graphics/SVG/1.1/DTD/svg11.dtd">
<!-- Generated by graphviz version 2.36.0 (20140111.2315)
 -->
<!-- Title: ComPWA::BadParameter Pages: 1 -->
<svg width="136pt" height="332pt"
 viewBox="0.00 0.00 136.00 332.00" xmlns="http://www.w3.org/2000/svg" xmlns:xlink="http://www.w3.org/1999/xlink">
<g id="graph0" class="graph" transform="scale(1 1) rotate(0) translate(4 328)">
<title>ComPWA::BadParameter</title>
<polygon fill="white" stroke="none" points="-4,4 -4,-328 132,-328 132,4 -4,4"/>
<!-- Node1 -->
<g id="node1" class="node"><title>Node1</title>
<polygon fill="#bfbfbf" stroke="black" points="-0.5,-0.5 -0.5,-79.5 128.5,-79.5 128.5,-0.5 -0.5,-0.5"/>
<text text-anchor="middle" x="64" y="-67.5" font-family="Helvetica,sans-Serif" font-size="10.00">ComPWA::BadParameter</text>
<polyline fill="none" stroke="black" points="-0.5,-60.5 128.5,-60.5 "/>
<text text-anchor="middle" x="64" y="-48.5" font-family="Helvetica,sans-Serif" font-size="10.00"> </text>
<polyline fill="none" stroke="black" points="-0.5,-41.5 128.5,-41.5 "/>
<text text-anchor="start" x="7.5" y="-29.5" font-family="Helvetica,sans-Serif" font-size="10.00">+ BadParameter()</text>
<text text-anchor="start" x="7.5" y="-18.5" font-family="Helvetica,sans-Serif" font-size="10.00">+ BadParameter()</text>
<text text-anchor="start" x="7.5" y="-7.5" font-family="Helvetica,sans-Serif" font-size="10.00">+ ~BadParameter()</text>
</g>
<!-- Node2 -->
<g id="node2" class="node"><title>Node2</title>
<g id="a_node2"><a xlink:href="../../d0/d99/classComPWA_1_1Exception.html" target="_top" xlink:title="{ComPWA::Exception\n|# what_\l|+ Exception()\l+ operator=()\l+ ~Exception()\l+ what()\l# Exception()\l# Exception()\l}">
<polygon fill="white" stroke="black" points="9,-117 9,-229 119,-229 119,-117 9,-117"/>
<text text-anchor="middle" x="64" y="-217" font-family="Helvetica,sans-Serif" font-size="10.00">ComPWA::Exception</text>
<polyline fill="none" stroke="black" points="9,-210 119,-210 "/>
<text text-anchor="start" x="17" y="-198" font-family="Helvetica,sans-Serif" font-size="10.00"># what_</text>
<polyline fill="none" stroke="black" points="9,-191 119,-191 "/>
<text text-anchor="start" x="17" y="-179" font-family="Helvetica,sans-Serif" font-size="10.00">+ Exception()</text>
<text text-anchor="start" x="17" y="-168" font-family="Helvetica,sans-Serif" font-size="10.00">+ operator=()</text>
<text text-anchor="start" x="17" y="-157" font-family="Helvetica,sans-Serif" font-size="10.00">+ ~Exception()</text>
<text text-anchor="start" x="17" y="-146" font-family="Helvetica,sans-Serif" font-size="10.00">+ what()</text>
<text text-anchor="start" x="17" y="-135" font-family="Helvetica,sans-Serif" font-size="10.00"># Exception()</text>
<text text-anchor="start" x="17" y="-124" font-family="Helvetica,sans-Serif" font-size="10.00"># Exception()</text>
</a>
</g>
</g>
<!-- Node2&#45;&gt;Node1 -->
<g id="edge1" class="edge"><title>Node2&#45;&gt;Node1</title>
<path fill="none" stroke="midnightblue" d="M64,-106.537C64,-97.3924 64,-88.2465 64,-79.8127"/>
<polygon fill="none" stroke="midnightblue" points="60.5001,-106.824 64,-116.824 67.5001,-106.824 60.5001,-106.824"/>
</g>
<!-- Node3 -->
<g id="node3" class="node"><title>Node3</title>
<polygon fill="white" stroke="#bfbfbf" points="25,-266.5 25,-323.5 103,-323.5 103,-266.5 25,-266.5"/>
<text text-anchor="middle" x="64" y="-311.5" font-family="Helvetica,sans-Serif" font-size="10.00">std::exception</text>
<polyline fill="none" stroke="#bfbfbf" points="25,-304.5 103,-304.5 "/>
<text text-anchor="middle" x="64" y="-292.5" font-family="Helvetica,sans-Serif" font-size="10.00"> </text>
<polyline fill="none" stroke="#bfbfbf" points="25,-285.5 103,-285.5 "/>
<text text-anchor="middle" x="64" y="-273.5" font-family="Helvetica,sans-Serif" font-size="10.00"> </text>
</g>
<!-- Node3&#45;&gt;Node2 -->
<g id="edge2" class="edge"><title>Node3&#45;&gt;Node2</title>
<path fill="none" stroke="midnightblue" d="M64,-256.398C64,-247.802 64,-238.49 64,-229.324"/>
<polygon fill="none" stroke="midnightblue" points="60.5001,-256.47 64,-266.47 67.5001,-256.47 60.5001,-256.47"/>
</g>
</g>
</svg>
