<?xml version="1.0" encoding="UTF-8" standalone="no"?>
<!DOCTYPE svg PUBLIC "-//W3C//DTD SVG 1.1//EN"
 "http://www.w3.org/Graphics/SVG/1.1/DTD/svg11.dtd">
<!-- Generated by graphviz version 2.26.3 (20100126.1600)
 -->
<!-- Title: G Pages: 1 -->
<svg width="998pt" height="146pt"
 viewBox="0.00 0.00 998.00 146.00" xmlns="http://www.w3.org/2000/svg" xmlns:xlink="http://www.w3.org/1999/xlink">
<g id="graph1" class="graph" transform="scale(1 1) rotate(0) translate(4 142)">
<title>G</title>
<polygon fill="white" stroke="white" points="-4,5 -4,-142 995,-142 995,5 -4,5"/>
<!-- Node1 -->
<g id="node1" class="node"><title>Node1</title>
<polygon fill="#bfbfbf" stroke="black" points="371.5,-116.5 371.5,-137.5 616.5,-137.5 616.5,-116.5 371.5,-116.5"/>
<text text-anchor="middle" x="494" y="-124.5" font-family="Helvetica,sans-Serif" font-size="10.00">Physics/AmplitudeSum/AmpRelBreitWignerRes.hpp</text>
</g>
<!-- Node2 -->
<g id="node3" class="node"><title>Node2</title>
<a xlink:href="../../dd/d5d/AmpRelBreitWignerRes_8cpp.xhtml" target="_top" xlink:title="Physics/AmplitudeSum/AmpRelBreitWignerRes.cpp">
<polygon fill="white" stroke="black" points="-0.5,-58.5 -0.5,-79.5 244.5,-79.5 244.5,-58.5 -0.5,-58.5"/>
<text text-anchor="middle" x="122" y="-66.5" font-family="Helvetica,sans-Serif" font-size="10.00">Physics/AmplitudeSum/AmpRelBreitWignerRes.cpp</text>
</a>
</g>
<!-- Node1&#45;&gt;Node2 -->
<g id="edge2" class="edge"><title>Node1&#45;&gt;Node2</title>
<path fill="none" stroke="midnightblue" d="M416.543,-114.923C349.481,-104.468 253.463,-89.4969 189.493,-79.5231"/>
<polygon fill="midnightblue" stroke="midnightblue" points="416.214,-118.414 426.634,-116.497 417.292,-111.498 416.214,-118.414"/>
</g>
<!-- Node3 -->
<g id="node5" class="node"><title>Node3</title>
<a xlink:href="../../d0/d2a/AmpSumIntensity_8hpp.xhtml" target="_top" xlink:title="Physics/AmplitudeSum/AmpSumIntensity.hpp">
<polygon fill="white" stroke="black" points="262,-58.5 262,-79.5 480,-79.5 480,-58.5 262,-58.5"/>
<text text-anchor="middle" x="371" y="-66.5" font-family="Helvetica,sans-Serif" font-size="10.00">Physics/AmplitudeSum/AmpSumIntensity.hpp</text>
</a>
</g>
<!-- Node1&#45;&gt;Node3 -->
<g id="edge4" class="edge"><title>Node1&#45;&gt;Node3</title>
<path fill="none" stroke="midnightblue" d="M462.627,-112.206C441.049,-102.031 412.898,-88.7567 393.524,-79.6212"/>
<polygon fill="midnightblue" stroke="midnightblue" points="461.188,-115.397 471.726,-116.497 464.174,-109.066 461.188,-115.397"/>
</g>
<!-- Node6 -->
<g id="node11" class="node"><title>Node6</title>
<a xlink:href="../../dc/d4f/AmpSumSliceIntensity_8hpp.xhtml" target="_top" xlink:title="Physics/AmplitudeSum/AmpSumSliceIntensity.hpp">
<polygon fill="white" stroke="black" points="498,-58.5 498,-79.5 738,-79.5 738,-58.5 498,-58.5"/>
<text text-anchor="middle" x="618" y="-66.5" font-family="Helvetica,sans-Serif" font-size="10.00">Physics/AmplitudeSum/AmpSumSliceIntensity.hpp</text>
</a>
</g>
<!-- Node1&#45;&gt;Node6 -->
<g id="edge10" class="edge"><title>Node1&#45;&gt;Node6</title>
<path fill="none" stroke="midnightblue" d="M525.628,-112.206C547.382,-102.031 575.762,-88.7567 595.293,-79.6212"/>
<polygon fill="midnightblue" stroke="midnightblue" points="524.031,-109.089 516.455,-116.497 526.996,-115.43 524.031,-109.089"/>
</g>
<!-- Node7 -->
<g id="node13" class="node"><title>Node7</title>
<a xlink:href="../../d3/d66/PhiSumOfAmplitudes_8hpp.xhtml" target="_top" xlink:title="Physics/AmplitudeSum/PhiSumOfAmplitudes.hpp">
<polygon fill="white" stroke="black" points="756,-58.5 756,-79.5 990,-79.5 990,-58.5 756,-58.5"/>
<text text-anchor="middle" x="873" y="-66.5" font-family="Helvetica,sans-Serif" font-size="10.00">Physics/AmplitudeSum/PhiSumOfAmplitudes.hpp</text>
</a>
</g>
<!-- Node1&#45;&gt;Node7 -->
<g id="edge12" class="edge"><title>Node1&#45;&gt;Node7</title>
<path fill="none" stroke="midnightblue" d="M572.914,-114.923C641.238,-104.468 739.063,-89.4969 804.237,-79.5231"/>
<polygon fill="midnightblue" stroke="midnightblue" points="571.989,-111.524 562.634,-116.497 573.048,-118.444 571.989,-111.524"/>
</g>
<!-- Node4 -->
<g id="node7" class="node"><title>Node4</title>
<a xlink:href="../../da/d2a/DalitzFitApp_8cpp.xhtml" target="_top" xlink:title="Test&#45;Application for full fit with simple BW&#45;dalitz&#45;model.">
<polygon fill="white" stroke="black" points="251.5,-0.5 251.5,-21.5 360.5,-21.5 360.5,-0.5 251.5,-0.5"/>
<text text-anchor="middle" x="306" y="-8.5" font-family="Helvetica,sans-Serif" font-size="10.00">test/DalitzFitApp.cpp</text>
</a>
</g>
<!-- Node3&#45;&gt;Node4 -->
<g id="edge6" class="edge"><title>Node3&#45;&gt;Node4</title>
<path fill="none" stroke="midnightblue" d="M351.602,-51.6908C340.629,-41.8996 327.263,-29.973 317.846,-21.5707"/>
<polygon fill="midnightblue" stroke="midnightblue" points="349.286,-54.3155 359.078,-58.3619 353.947,-49.0925 349.286,-54.3155"/>
</g>
<!-- Node5 -->
<g id="node9" class="node"><title>Node5</title>
<a xlink:href="../../d1/d93/GenDalitzApp_8cpp.xhtml" target="_top" xlink:title="Application to generate J/Psi &#45;&gt; g pi pi.">
<polygon fill="white" stroke="black" points="378,-0.5 378,-21.5 494,-21.5 494,-0.5 378,-0.5"/>
<text text-anchor="middle" x="436" y="-8.5" font-family="Helvetica,sans-Serif" font-size="10.00">test/GenDalitzApp.cpp</text>
</a>
</g>
<!-- Node3&#45;&gt;Node5 -->
<g id="edge8" class="edge"><title>Node3&#45;&gt;Node5</title>
<path fill="none" stroke="midnightblue" d="M390.398,-51.6908C401.371,-41.8996 414.737,-29.973 424.154,-21.5707"/>
<polygon fill="midnightblue" stroke="midnightblue" points="388.053,-49.0925 382.922,-58.3619 392.714,-54.3155 388.053,-49.0925"/>
</g>
<!-- Node8 -->
<g id="node15" class="node"><title>Node8</title>
<a xlink:href="../../db/db7/PhiSumOfAmplitudes_8cpp.xhtml" target="_top" xlink:title="Physics/AmplitudeSum/PhiSumOfAmplitudes.cpp">
<polygon fill="white" stroke="black" points="756,-0.5 756,-21.5 990,-21.5 990,-0.5 756,-0.5"/>
<text text-anchor="middle" x="873" y="-8.5" font-family="Helvetica,sans-Serif" font-size="10.00">Physics/AmplitudeSum/PhiSumOfAmplitudes.cpp</text>
</a>
</g>
<!-- Node7&#45;&gt;Node8 -->
<g id="edge14" class="edge"><title>Node7&#45;&gt;Node8</title>
<path fill="none" stroke="midnightblue" d="M873,-48.1906C873,-39.1684 873,-28.9941 873,-21.5707"/>
<polygon fill="midnightblue" stroke="midnightblue" points="869.5,-48.3619 873,-58.3619 876.5,-48.3619 869.5,-48.3619"/>
</g>
</g>
</svg>
