<?xml version="1.0" encoding="UTF-8" standalone="no"?>
<!DOCTYPE svg PUBLIC "-//W3C//DTD SVG 1.1//EN"
 "http://www.w3.org/Graphics/SVG/1.1/DTD/svg11.dtd">
<!-- Generated by graphviz version 2.36.0 (20140111.2315)
 -->
<!-- Title: /home/travis/build/ComPWA/ComPWA/executables/GenRunManagerApp.cpp Pages: 1 -->
<svg width="2653pt" height="434pt"
 viewBox="0.00 0.00 2653.00 434.00" xmlns="http://www.w3.org/2000/svg" xmlns:xlink="http://www.w3.org/1999/xlink">
<g id="graph0" class="graph" transform="scale(1 1) rotate(0) translate(4 430)">
<title>/home/travis/build/ComPWA/ComPWA/executables/GenRunManagerApp.cpp</title>
<polygon fill="white" stroke="none" points="-4,4 -4,-430 2649,-430 2649,4 -4,4"/>
<!-- Node1 -->
<g id="node1" class="node"><title>Node1</title>
<polygon fill="#bfbfbf" stroke="black" points="1812.5,-384.5 1812.5,-425.5 1979.5,-425.5 1979.5,-384.5 1812.5,-384.5"/>
<text text-anchor="start" x="1820.5" y="-413.5" font-family="Helvetica,sans-Serif" font-size="10.00">/home/travis/build</text>
<text text-anchor="start" x="1820.5" y="-402.5" font-family="Helvetica,sans-Serif" font-size="10.00">/ComPWA/ComPWA/executables</text>
<text text-anchor="middle" x="1896" y="-391.5" font-family="Helvetica,sans-Serif" font-size="10.00">/GenRunManagerApp.cpp</text>
</g>
<!-- Node2 -->
<g id="node2" class="node"><title>Node2</title>
<polygon fill="white" stroke="#bfbfbf" points="1345,-74.5 1345,-93.5 1399,-93.5 1399,-74.5 1345,-74.5"/>
<text text-anchor="middle" x="1372" y="-81.5" font-family="Helvetica,sans-Serif" font-size="10.00">iostream</text>
</g>
<!-- Node1&#45;&gt;Node2 -->
<g id="edge1" class="edge"><title>Node1&#45;&gt;Node2</title>
<path fill="none" stroke="midnightblue" d="M1889,-384.263C1877.66,-354.47 1852.86,-297.514 1817,-260 1701.89,-139.584 1493.82,-100.42 1409.25,-89.116"/>
<polygon fill="midnightblue" stroke="midnightblue" points="1409.46,-85.614 1399.09,-87.8142 1408.57,-92.5572 1409.46,-85.614"/>
</g>
<!-- Node3 -->
<g id="node3" class="node"><title>Node3</title>
<polygon fill="white" stroke="#bfbfbf" points="66,-74.5 66,-93.5 110,-93.5 110,-74.5 66,-74.5"/>
<text text-anchor="middle" x="88" y="-81.5" font-family="Helvetica,sans-Serif" font-size="10.00">cmath</text>
</g>
<!-- Node1&#45;&gt;Node3 -->
<g id="edge2" class="edge"><title>Node1&#45;&gt;Node3</title>
<path fill="none" stroke="midnightblue" d="M1812.35,-404.35C1527.12,-405.028 594.184,-402.892 300,-348 197.339,-328.844 78,-375.433 78,-271 78,-271 78,-271 78,-213 78,-174.13 82.6401,-128.822 85.5988,-103.883"/>
<polygon fill="midnightblue" stroke="midnightblue" points="89.1075,-104.025 86.8529,-93.673 82.1597,-103.172 89.1075,-104.025"/>
</g>
<!-- Node4 -->
<g id="node4" class="node"><title>Node4</title>
<polygon fill="white" stroke="#bfbfbf" points="128,-74.5 128,-93.5 180,-93.5 180,-74.5 128,-74.5"/>
<text text-anchor="middle" x="154" y="-81.5" font-family="Helvetica,sans-Serif" font-size="10.00">sstream</text>
</g>
<!-- Node1&#45;&gt;Node4 -->
<g id="edge3" class="edge"><title>Node1&#45;&gt;Node4</title>
<path fill="none" stroke="midnightblue" d="M1812.27,-402.046C1464.75,-393.397 154,-355.192 154,-271 154,-271 154,-271 154,-213 154,-174.248 154,-128.897 154,-103.919"/>
<polygon fill="midnightblue" stroke="midnightblue" points="157.5,-103.691 154,-93.6913 150.5,-103.691 157.5,-103.691"/>
</g>
<!-- Node5 -->
<g id="node5" class="node"><title>Node5</title>
<polygon fill="white" stroke="#bfbfbf" points="1622,-6.5 1622,-25.5 1666,-25.5 1666,-6.5 1622,-6.5"/>
<text text-anchor="middle" x="1644" y="-13.5" font-family="Helvetica,sans-Serif" font-size="10.00">vector</text>
</g>
<!-- Node1&#45;&gt;Node5 -->
<g id="edge4" class="edge"><title>Node1&#45;&gt;Node5</title>
<path fill="none" stroke="midnightblue" d="M1918.46,-384.278C1928.69,-374.282 1940.22,-361.43 1948,-348 1965.97,-316.986 1972,-306.846 1972,-271 1972,-271 1972,-271 1972,-151 1972,-87.438 1758.25,-39.1736 1675.85,-22.9306"/>
<polygon fill="midnightblue" stroke="midnightblue" points="1676.51,-19.4935 1666.03,-21.0235 1675.18,-26.3652 1676.51,-19.4935"/>
</g>
<!-- Node6 -->
<g id="node6" class="node"><title>Node6</title>
<polygon fill="white" stroke="#bfbfbf" points="501.5,-6.5 501.5,-25.5 542.5,-25.5 542.5,-6.5 501.5,-6.5"/>
<text text-anchor="middle" x="522" y="-13.5" font-family="Helvetica,sans-Serif" font-size="10.00">string</text>
</g>
<!-- Node1&#45;&gt;Node6 -->
<g id="edge5" class="edge"><title>Node1&#45;&gt;Node6</title>
<path fill="none" stroke="midnightblue" d="M1812.21,-402.976C1466.99,-398.558 169.025,-379.884 88,-348 39.6399,-328.97 0,-322.97 0,-271 0,-271 0,-271 0,-151 0,-108.607 11.5693,-91.2767 47,-68 120.43,-19.7594 397.646,-16.4354 491.056,-16.7233"/>
<polygon fill="midnightblue" stroke="midnightblue" points="491.247,-20.2241 501.263,-16.7719 491.28,-13.2242 491.247,-20.2241"/>
</g>
<!-- Node7 -->
<g id="node7" class="node"><title>Node7</title>
<polygon fill="white" stroke="#bfbfbf" points="1552,-6.5 1552,-25.5 1604,-25.5 1604,-6.5 1552,-6.5"/>
<text text-anchor="middle" x="1578" y="-13.5" font-family="Helvetica,sans-Serif" font-size="10.00">memory</text>
</g>
<!-- Node1&#45;&gt;Node7 -->
<g id="edge6" class="edge"><title>Node1&#45;&gt;Node7</title>
<path fill="none" stroke="midnightblue" d="M1894.69,-384.392C1892.9,-366.059 1888.71,-338.249 1879,-316 1853.28,-257.048 1793.17,-153.111 1686,-68 1679.33,-62.6995 1636.68,-43.1712 1607.02,-29.8768"/>
<polygon fill="midnightblue" stroke="midnightblue" points="1608.08,-26.5203 1597.53,-25.6368 1605.23,-32.9115 1608.08,-26.5203"/>
</g>
<!-- Node8 -->
<g id="node8" class="node"><title>Node8</title>
<polygon fill="white" stroke="#bfbfbf" points="2000.5,-317 2000.5,-347 2101.5,-347 2101.5,-317 2000.5,-317"/>
<text text-anchor="start" x="2008.5" y="-335" font-family="Helvetica,sans-Serif" font-size="10.00">boost/property_tree</text>
<text text-anchor="middle" x="2051" y="-324" font-family="Helvetica,sans-Serif" font-size="10.00">/xml_parser.hpp</text>
</g>
<!-- Node1&#45;&gt;Node8 -->
<g id="edge7" class="edge"><title>Node1&#45;&gt;Node8</title>
<path fill="none" stroke="midnightblue" d="M1938.76,-384.411C1961.35,-374.067 1988.89,-361.452 2011.04,-351.306"/>
<polygon fill="midnightblue" stroke="midnightblue" points="2012.53,-354.469 2020.17,-347.123 2009.62,-348.105 2012.53,-354.469"/>
</g>
<!-- Node9 -->
<g id="node9" class="node"><title>Node9</title>
<polygon fill="white" stroke="#bfbfbf" points="2120,-317 2120,-347 2238,-347 2238,-317 2120,-317"/>
<text text-anchor="start" x="2128" y="-335" font-family="Helvetica,sans-Serif" font-size="10.00">Physics/DPKinematics</text>
<text text-anchor="middle" x="2179" y="-324" font-family="Helvetica,sans-Serif" font-size="10.00">/RootGenerator.hpp</text>
</g>
<!-- Node1&#45;&gt;Node9 -->
<g id="edge8" class="edge"><title>Node1&#45;&gt;Node9</title>
<path fill="none" stroke="midnightblue" d="M1974.08,-384.411C2017.85,-373.429 2071.84,-359.886 2113.4,-349.457"/>
<polygon fill="midnightblue" stroke="midnightblue" points="2114.3,-352.84 2123.15,-347.012 2112.6,-346.05 2114.3,-352.84"/>
</g>
<!-- Node10 -->
<g id="node10" class="node"><title>Node10</title>
<g id="a_node10"><a xlink:href="../../db/dce/Parameter_8hpp.html" target="_top" xlink:title="This class implements some internal container of parameters. ">
<polygon fill="white" stroke="black" points="220,-142.5 220,-161.5 324,-161.5 324,-142.5 220,-142.5"/>
<text text-anchor="middle" x="272" y="-149.5" font-family="Helvetica,sans-Serif" font-size="10.00">Core/Parameter.hpp</text>
</a>
</g>
</g>
<!-- Node1&#45;&gt;Node10 -->
<g id="edge9" class="edge"><title>Node1&#45;&gt;Node10</title>
<path fill="none" stroke="midnightblue" d="M1812.3,-404.486C1651.71,-404.173 1289.71,-397.432 990,-348 721.121,-303.653 407.772,-199.962 305.866,-164.859"/>
<polygon fill="midnightblue" stroke="midnightblue" points="306.994,-161.546 296.399,-161.585 304.706,-168.161 306.994,-161.546"/>
</g>
<!-- Node18 -->
<g id="node18" class="node"><title>Node18</title>
<g id="a_node18"><a xlink:href="../../df/d9f/ParameterList_8hpp.html" target="_top" xlink:title="This class provides a list of fit parameters which can have different types. ">
<polygon fill="white" stroke="black" points="632,-204.5 632,-223.5 752,-223.5 752,-204.5 632,-204.5"/>
<text text-anchor="middle" x="692" y="-211.5" font-family="Helvetica,sans-Serif" font-size="10.00">Core/ParameterList.hpp</text>
</a>
</g>
</g>
<!-- Node1&#45;&gt;Node18 -->
<g id="edge25" class="edge"><title>Node1&#45;&gt;Node18</title>
<path fill="none" stroke="midnightblue" d="M1812.27,-404.124C1669.56,-402.962 1370.61,-394.548 1123,-348 969.326,-319.112 793.164,-254.372 723.09,-227.285"/>
<polygon fill="midnightblue" stroke="midnightblue" points="724.124,-223.932 713.536,-223.57 721.588,-230.456 724.124,-223.932"/>
</g>
<!-- Node25 -->
<g id="node25" class="node"><title>Node25</title>
<polygon fill="white" stroke="#bfbfbf" points="2256.5,-322.5 2256.5,-341.5 2371.5,-341.5 2371.5,-322.5 2256.5,-322.5"/>
<text text-anchor="middle" x="2314" y="-329.5" font-family="Helvetica,sans-Serif" font-size="10.00">Core/RunManager.hpp</text>
</g>
<!-- Node1&#45;&gt;Node25 -->
<g id="edge42" class="edge"><title>Node1&#45;&gt;Node25</title>
<path fill="none" stroke="midnightblue" d="M1979.58,-392.155C2050.86,-381.699 2155.94,-365.44 2247,-348 2253.76,-346.704 2260.89,-345.23 2267.87,-343.722"/>
<polygon fill="midnightblue" stroke="midnightblue" points="2268.91,-347.076 2277.92,-341.508 2267.4,-340.24 2268.91,-347.076"/>
</g>
<!-- Node26 -->
<g id="node26" class="node"><title>Node26</title>
<g id="a_node26"><a xlink:href="../../d8/d6f/Efficiency_8hpp.html" target="_top" xlink:title="Core/Efficiency.hpp">
<polygon fill="white" stroke="black" points="1240.5,-142.5 1240.5,-161.5 1343.5,-161.5 1343.5,-142.5 1240.5,-142.5"/>
<text text-anchor="middle" x="1292" y="-149.5" font-family="Helvetica,sans-Serif" font-size="10.00">Core/Efficiency.hpp</text>
</a>
</g>
</g>
<!-- Node1&#45;&gt;Node26 -->
<g id="edge43" class="edge"><title>Node1&#45;&gt;Node26</title>
<path fill="none" stroke="midnightblue" d="M1812.28,-403.675C1680.12,-399.95 1418.21,-379.345 1224,-280 1183.65,-259.358 1130.18,-241.253 1156,-204 1172.82,-179.726 1202.72,-166.988 1230.2,-160.311"/>
<polygon fill="midnightblue" stroke="midnightblue" points="1231.17,-163.681 1240.19,-158.116 1229.67,-156.844 1231.17,-163.681"/>
</g>
<!-- Node27 -->
<g id="node27" class="node"><title>Node27</title>
<g id="a_node27"><a xlink:href="../../df/d53/RootReader_8hpp.html" target="_top" xlink:title="This class reads event&#45;based data from root&#45;files. ">
<polygon fill="white" stroke="black" points="1492.5,-317 1492.5,-347 1617.5,-347 1617.5,-317 1492.5,-317"/>
<text text-anchor="start" x="1500.5" y="-335" font-family="Helvetica,sans-Serif" font-size="10.00">DataReader/RootReader</text>
<text text-anchor="middle" x="1555" y="-324" font-family="Helvetica,sans-Serif" font-size="10.00">/RootReader.hpp</text>
</a>
</g>
</g>
<!-- Node1&#45;&gt;Node27 -->
<g id="edge47" class="edge"><title>Node1&#45;&gt;Node27</title>
<path fill="none" stroke="midnightblue" d="M1812.15,-386.541C1755.52,-374.751 1681.54,-359.346 1627.47,-348.089"/>
<polygon fill="midnightblue" stroke="midnightblue" points="1628.12,-344.649 1617.62,-346.037 1626.69,-351.502 1628.12,-344.649"/>
</g>
<!-- Node36 -->
<g id="node36" class="node"><title>Node36</title>
<polygon fill="white" stroke="#bfbfbf" points="2389.5,-317 2389.5,-347 2508.5,-347 2508.5,-317 2389.5,-317"/>
<text text-anchor="start" x="2397.5" y="-335" font-family="Helvetica,sans-Serif" font-size="10.00">Physics/AmplitudeSum</text>
<text text-anchor="middle" x="2449" y="-324" font-family="Helvetica,sans-Serif" font-size="10.00">/AmpSumIntensity.hpp</text>
</g>
<!-- Node1&#45;&gt;Node36 -->
<g id="edge76" class="edge"><title>Node1&#45;&gt;Node36</title>
<path fill="none" stroke="midnightblue" d="M1979.86,-396.835C2074.48,-388.177 2233.11,-371.936 2379.18,-348.032"/>
<polygon fill="midnightblue" stroke="midnightblue" points="2379.93,-351.455 2389.23,-346.372 2378.79,-344.549 2379.93,-351.455"/>
</g>
<!-- Node37 -->
<g id="node37" class="node"><title>Node37</title>
<polygon fill="white" stroke="#bfbfbf" points="2527,-317 2527,-347 2645,-347 2645,-317 2527,-317"/>
<text text-anchor="start" x="2535" y="-335" font-family="Helvetica,sans-Serif" font-size="10.00">Physics/DPKinematics</text>
<text text-anchor="middle" x="2586" y="-324" font-family="Helvetica,sans-Serif" font-size="10.00">/DalitzKinematics.hpp</text>
</g>
<!-- Node1&#45;&gt;Node37 -->
<g id="edge77" class="edge"><title>Node1&#45;&gt;Node37</title>
<path fill="none" stroke="midnightblue" d="M1979.52,-399.769C2099.12,-392.962 2325.87,-377.277 2517,-348 2517.1,-347.984 2517.2,-347.969 2517.31,-347.953"/>
<polygon fill="midnightblue" stroke="midnightblue" points="2517.71,-351.434 2526.99,-346.332 2516.55,-344.53 2517.71,-351.434"/>
</g>
<!-- Node10&#45;&gt;Node2 -->
<g id="edge10" class="edge"><title>Node10&#45;&gt;Node2</title>
<path fill="none" stroke="midnightblue" d="M324.293,-144.436C349.805,-141.448 380.966,-138.114 409,-136 793.573,-106.996 892.194,-137.83 1276,-100 1295.51,-98.0774 1317.08,-94.8098 1334.83,-91.8144"/>
<polygon fill="midnightblue" stroke="midnightblue" points="1335.54,-95.2446 1344.79,-90.0943 1334.34,-88.3466 1335.54,-95.2446"/>
</g>
<!-- Node10&#45;&gt;Node3 -->
<g id="edge15" class="edge"><title>Node10&#45;&gt;Node3</title>
<path fill="none" stroke="midnightblue" d="M242.547,-142.418C211.435,-133.068 161.148,-117.138 119,-100 117.401,-99.3497 115.768,-98.6553 114.129,-97.9349"/>
<polygon fill="midnightblue" stroke="midnightblue" points="115.422,-94.6767 104.877,-93.6529 112.482,-101.029 115.422,-94.6767"/>
</g>
<!-- Node10&#45;&gt;Node4 -->
<g id="edge12" class="edge"><title>Node10&#45;&gt;Node4</title>
<path fill="none" stroke="midnightblue" d="M256.574,-142.372C236.697,-131.254 201.915,-111.8 178.427,-98.6624"/>
<polygon fill="midnightblue" stroke="midnightblue" points="179.866,-95.4574 169.43,-93.6305 176.449,-101.567 179.866,-95.4574"/>
</g>
<!-- Node10&#45;&gt;Node6 -->
<g id="edge11" class="edge"><title>Node10&#45;&gt;Node6</title>
<path fill="none" stroke="midnightblue" d="M293.715,-142.482C315.923,-133.357 351.034,-117.766 379,-100 397.925,-87.9772 399.142,-80.128 418,-68 441.761,-52.7186 470.763,-38.8507 492.098,-29.4468"/>
<polygon fill="midnightblue" stroke="midnightblue" points="493.532,-32.64 501.314,-25.4511 490.747,-26.2175 493.532,-32.64"/>
</g>
<!-- Node11 -->
<g id="node11" class="node"><title>Node11</title>
<polygon fill="white" stroke="#bfbfbf" points="317.5,-74.5 317.5,-93.5 370.5,-93.5 370.5,-74.5 317.5,-74.5"/>
<text text-anchor="middle" x="344" y="-81.5" font-family="Helvetica,sans-Serif" font-size="10.00">complex</text>
</g>
<!-- Node10&#45;&gt;Node11 -->
<g id="edge13" class="edge"><title>Node10&#45;&gt;Node11</title>
<path fill="none" stroke="midnightblue" d="M281.413,-142.372C292.884,-131.856 312.492,-113.882 326.71,-100.85"/>
<polygon fill="midnightblue" stroke="midnightblue" points="329.349,-103.178 334.355,-93.8411 324.619,-98.0183 329.349,-103.178"/>
</g>
<!-- Node12 -->
<g id="node12" class="node"><title>Node12</title>
<polygon fill="white" stroke="#bfbfbf" points="1058.5,-74.5 1058.5,-93.5 1117.5,-93.5 1117.5,-74.5 1058.5,-74.5"/>
<text text-anchor="middle" x="1088" y="-81.5" font-family="Helvetica,sans-Serif" font-size="10.00">stdexcept</text>
</g>
<!-- Node10&#45;&gt;Node12 -->
<g id="edge14" class="edge"><title>Node10&#45;&gt;Node12</title>
<path fill="none" stroke="midnightblue" d="M324.002,-144.884C349.582,-141.984 380.886,-138.594 409,-136 651.406,-113.633 943.186,-94.2496 1048.05,-87.523"/>
<polygon fill="midnightblue" stroke="midnightblue" points="1048.43,-91.0061 1058.19,-86.8751 1047.98,-84.0203 1048.43,-91.0061"/>
</g>
<!-- Node13 -->
<g id="node13" class="node"><title>Node13</title>
<polygon fill="white" stroke="#bfbfbf" points="198.5,-69 198.5,-99 299.5,-99 299.5,-69 198.5,-69"/>
<text text-anchor="start" x="206.5" y="-87" font-family="Helvetica,sans-Serif" font-size="10.00">boost/property_tree</text>
<text text-anchor="middle" x="249" y="-76" font-family="Helvetica,sans-Serif" font-size="10.00">/ptree.hpp</text>
</g>
<!-- Node10&#45;&gt;Node13 -->
<g id="edge16" class="edge"><title>Node10&#45;&gt;Node13</title>
<path fill="none" stroke="midnightblue" d="M268.993,-142.372C266.036,-133.886 261.386,-120.542 257.314,-108.858"/>
<polygon fill="midnightblue" stroke="midnightblue" points="260.538,-107.473 253.942,-99.1815 253.928,-109.776 260.538,-107.473"/>
</g>
<!-- Node14 -->
<g id="node14" class="node"><title>Node14</title>
<g id="a_node14"><a xlink:href="../../d8/def/AbsParameter_8hpp.html" target="_top" xlink:title="Core/AbsParameter.hpp">
<polygon fill="white" stroke="red" points="649,-74.5 649,-93.5 771,-93.5 771,-74.5 649,-74.5"/>
<text text-anchor="middle" x="710" y="-81.5" font-family="Helvetica,sans-Serif" font-size="10.00">Core/AbsParameter.hpp</text>
</a>
</g>
</g>
<!-- Node10&#45;&gt;Node14 -->
<g id="edge17" class="edge"><title>Node10&#45;&gt;Node14</title>
<path fill="none" stroke="midnightblue" d="M324.398,-143.104C404.122,-131.091 555.831,-108.231 643.31,-95.0492"/>
<polygon fill="midnightblue" stroke="midnightblue" points="644.023,-98.4813 653.39,-93.5302 642.98,-91.5594 644.023,-98.4813"/>
</g>
<!-- Node16 -->
<g id="node16" class="node"><title>Node16</title>
<g id="a_node16"><a xlink:href="../../d2/de9/Exceptions_8hpp.html" target="_top" xlink:title="This class defines the ComPWA exception base&#45;class and provides a set of standard exceptions...">
<polygon fill="white" stroke="red" points="427,-74.5 427,-93.5 535,-93.5 535,-74.5 427,-74.5"/>
<text text-anchor="middle" x="481" y="-81.5" font-family="Helvetica,sans-Serif" font-size="10.00">Core/Exceptions.hpp</text>
</a>
</g>
</g>
<!-- Node10&#45;&gt;Node16 -->
<g id="edge22" class="edge"><title>Node10&#45;&gt;Node16</title>
<path fill="none" stroke="midnightblue" d="M299.323,-142.372C336.429,-130.654 402.867,-109.674 444.294,-96.5912"/>
<polygon fill="midnightblue" stroke="midnightblue" points="445.52,-99.8748 454.001,-93.5259 443.412,-93.1997 445.52,-99.8748"/>
</g>
<!-- Node17 -->
<g id="node17" class="node"><title>Node17</title>
<g id="a_node17"><a xlink:href="../../da/db4/Logging_8hpp.html" target="_top" xlink:title="Core/Logging.hpp">
<polygon fill="white" stroke="red" points="1174.5,-74.5 1174.5,-93.5 1267.5,-93.5 1267.5,-74.5 1174.5,-74.5"/>
<text text-anchor="middle" x="1221" y="-81.5" font-family="Helvetica,sans-Serif" font-size="10.00">Core/Logging.hpp</text>
</a>
</g>
</g>
<!-- Node10&#45;&gt;Node17 -->
<g id="edge24" class="edge"><title>Node10&#45;&gt;Node17</title>
<path fill="none" stroke="midnightblue" d="M324.301,-144.542C349.815,-141.579 380.975,-138.236 409,-136 727.058,-110.626 808.636,-132.928 1126,-100 1138.45,-98.7083 1151.75,-96.8869 1164.34,-94.9568"/>
<polygon fill="midnightblue" stroke="midnightblue" points="1164.93,-98.4084 1174.26,-93.3937 1163.84,-91.4939 1164.93,-98.4084"/>
</g>
<!-- Node14&#45;&gt;Node5 -->
<g id="edge19" class="edge"><title>Node14&#45;&gt;Node5</title>
<path fill="none" stroke="midnightblue" d="M771.313,-80.1989C967.944,-71.1288 1572.32,-42.5419 1613,-32 1615.34,-31.3926 1617.72,-30.602 1620.07,-29.7013"/>
<polygon fill="midnightblue" stroke="midnightblue" points="1621.62,-32.8414 1629.32,-25.5667 1618.76,-26.4502 1621.62,-32.8414"/>
</g>
<!-- Node14&#45;&gt;Node6 -->
<g id="edge18" class="edge"><title>Node14&#45;&gt;Node6</title>
<path fill="none" stroke="midnightblue" d="M685.422,-74.3717C651.215,-62.3627 589.294,-40.6246 552.28,-27.6303"/>
<polygon fill="midnightblue" stroke="midnightblue" points="553.139,-24.2226 542.545,-24.2125 550.821,-30.8274 553.139,-24.2226"/>
</g>
<!-- Node14&#45;&gt;Node7 -->
<g id="edge20" class="edge"><title>Node14&#45;&gt;Node7</title>
<path fill="none" stroke="midnightblue" d="M771.036,-78.359C939.544,-65.5462 1407.61,-29.9562 1541.68,-19.7615"/>
<polygon fill="midnightblue" stroke="midnightblue" points="1542.12,-23.2383 1551.83,-18.9901 1541.59,-16.2584 1542.12,-23.2383"/>
</g>
<!-- Node15 -->
<g id="node15" class="node"><title>Node15</title>
<polygon fill="white" stroke="#bfbfbf" points="607.5,-1 607.5,-31 702.5,-31 702.5,-1 607.5,-1"/>
<text text-anchor="start" x="615.5" y="-19" font-family="Helvetica,sans-Serif" font-size="10.00">boost/serialization</text>
<text text-anchor="middle" x="655" y="-8" font-family="Helvetica,sans-Serif" font-size="10.00">/shared_ptr.hpp</text>
</g>
<!-- Node14&#45;&gt;Node15 -->
<g id="edge21" class="edge"><title>Node14&#45;&gt;Node15</title>
<path fill="none" stroke="midnightblue" d="M702.81,-74.3717C695.381,-65.4572 683.485,-51.1817 673.418,-39.1013"/>
<polygon fill="midnightblue" stroke="midnightblue" points="675.909,-36.623 666.818,-31.1815 670.531,-41.1043 675.909,-36.623"/>
</g>
<!-- Node16&#45;&gt;Node6 -->
<g id="edge23" class="edge"><title>Node16&#45;&gt;Node6</title>
<path fill="none" stroke="midnightblue" d="M486.36,-74.3717C492.587,-64.3478 503.025,-47.5455 511,-34.7076"/>
<polygon fill="midnightblue" stroke="midnightblue" points="514.204,-36.1825 516.508,-25.8411 508.258,-32.4886 514.204,-36.1825"/>
</g>
<!-- Node18&#45;&gt;Node2 -->
<g id="edge26" class="edge"><title>Node18&#45;&gt;Node2</title>
<path fill="none" stroke="midnightblue" d="M752.243,-212.889C906.497,-212.051 1306.78,-206.182 1352,-168 1370.46,-152.413 1373.52,-123.023 1373.31,-103.729"/>
<polygon fill="midnightblue" stroke="midnightblue" points="1376.8,-103.563 1372.9,-93.7157 1369.81,-103.851 1376.8,-103.563"/>
</g>
<!-- Node18&#45;&gt;Node4 -->
<g id="edge29" class="edge"><title>Node18&#45;&gt;Node4</title>
<path fill="none" stroke="midnightblue" d="M631.625,-213.614C518.736,-213.755 280.785,-208.996 211,-168 185.959,-153.289 169.413,-122.714 160.883,-103.063"/>
<polygon fill="midnightblue" stroke="midnightblue" points="164.074,-101.619 157.057,-93.6809 157.592,-104.262 164.074,-101.619"/>
</g>
<!-- Node18&#45;&gt;Node5 -->
<g id="edge30" class="edge"><title>Node18&#45;&gt;Node5</title>
<path fill="none" stroke="midnightblue" d="M752.278,-212.326C850.409,-210.242 1039.44,-201.816 1096,-168 1142.35,-140.29 1118.23,-94.9942 1165,-68 1251.5,-18.0704 1516.62,-58.1994 1613,-32 1615.2,-31.4011 1617.44,-30.6471 1619.65,-29.7976"/>
<polygon fill="midnightblue" stroke="midnightblue" points="1621.27,-32.9075 1628.98,-25.6469 1618.43,-26.5111 1621.27,-32.9075"/>
</g>
<!-- Node18&#45;&gt;Node6 -->
<g id="edge27" class="edge"><title>Node18&#45;&gt;Node6</title>
<path fill="none" stroke="midnightblue" d="M631.822,-212.229C557.394,-209.853 437.059,-200.873 409,-168 399.767,-157.183 400.335,-147.278 409,-136 446.832,-86.758 506.168,-149.242 544,-100 558.849,-80.6721 545.757,-52.1767 534.357,-34.1078"/>
<polygon fill="midnightblue" stroke="midnightblue" points="537.194,-32.0547 528.707,-25.7131 531.387,-35.9633 537.194,-32.0547"/>
</g>
<!-- Node18&#45;&gt;Node7 -->
<g id="edge28" class="edge"><title>Node18&#45;&gt;Node7</title>
<path fill="none" stroke="midnightblue" d="M752.306,-210.301C855.451,-205.061 1056.75,-191.874 1078,-168 1108.77,-133.436 1017.89,-102.256 1049,-68 1082.09,-31.5672 1427.5,-20.4375 1541.63,-17.7409"/>
<polygon fill="midnightblue" stroke="midnightblue" points="1542.01,-21.2331 1551.93,-17.5057 1541.85,-14.2349 1542.01,-21.2331"/>
</g>
<!-- Node18&#45;&gt;Node10 -->
<g id="edge35" class="edge"><title>Node18&#45;&gt;Node10</title>
<path fill="none" stroke="midnightblue" d="M631.916,-207.158C561.277,-199.876 440.644,-186.144 338,-168 331.159,-166.791 323.957,-165.34 316.926,-163.824"/>
<polygon fill="midnightblue" stroke="midnightblue" points="317.33,-160.328 306.809,-161.576 315.812,-167.161 317.33,-160.328"/>
</g>
<!-- Node18&#45;&gt;Node14 -->
<g id="edge34" class="edge"><title>Node18&#45;&gt;Node14</title>
<path fill="none" stroke="midnightblue" d="M696.876,-204.372C701.559,-195.552 708.308,-181.299 711,-168 715.368,-146.425 714.167,-121.047 712.488,-104.085"/>
<polygon fill="midnightblue" stroke="midnightblue" points="715.93,-103.373 711.312,-93.8369 708.975,-104.171 715.93,-103.373"/>
</g>
<!-- Node18&#45;&gt;Node15 -->
<g id="edge33" class="edge"><title>Node18&#45;&gt;Node15</title>
<path fill="none" stroke="midnightblue" d="M644.667,-204.422C623.898,-198.051 601.448,-187.023 589,-168 561.101,-125.366 603.957,-68.9759 632.628,-38.5999"/>
<polygon fill="midnightblue" stroke="midnightblue" points="635.451,-40.7173 639.914,-31.1082 630.433,-35.837 635.451,-40.7173"/>
</g>
<!-- Node18&#45;&gt;Node16 -->
<g id="edge36" class="edge"><title>Node18&#45;&gt;Node16</title>
<path fill="none" stroke="midnightblue" d="M631.91,-213.399C549.652,-212.516 408.458,-205.408 376,-168 350.254,-138.328 404.306,-111.649 443.987,-96.9497"/>
<polygon fill="midnightblue" stroke="midnightblue" points="445.22,-100.226 453.457,-93.5632 442.863,-93.635 445.22,-100.226"/>
</g>
<!-- Node18&#45;&gt;Node17 -->
<g id="edge37" class="edge"><title>Node18&#45;&gt;Node17</title>
<path fill="none" stroke="midnightblue" d="M652.745,-204.475C633.004,-197.99 610.816,-186.843 599,-168 591.445,-155.951 589.292,-146.394 599,-136 639.062,-93.1076 1067.68,-106.583 1126,-100 1138.44,-98.5961 1151.74,-96.7282 1164.33,-94.7885"/>
<polygon fill="midnightblue" stroke="midnightblue" points="1164.91,-98.24 1174.24,-93.2249 1163.82,-91.3255 1164.91,-98.24"/>
</g>
<!-- Node19 -->
<g id="node19" class="node"><title>Node19</title>
<polygon fill="white" stroke="#bfbfbf" points="1400.5,-142.5 1400.5,-161.5 1435.5,-161.5 1435.5,-142.5 1400.5,-142.5"/>
<text text-anchor="middle" x="1418" y="-149.5" font-family="Helvetica,sans-Serif" font-size="10.00">map</text>
</g>
<!-- Node18&#45;&gt;Node19 -->
<g id="edge31" class="edge"><title>Node18&#45;&gt;Node19</title>
<path fill="none" stroke="midnightblue" d="M752.041,-211.968C897.753,-209.003 1266.87,-198.615 1386,-168 1388.5,-167.359 1391.03,-166.524 1393.53,-165.577"/>
<polygon fill="midnightblue" stroke="midnightblue" points="1395.04,-168.738 1402.81,-161.536 1392.24,-162.321 1395.04,-168.738"/>
</g>
<!-- Node20 -->
<g id="node20" class="node"><title>Node20</title>
<polygon fill="white" stroke="#bfbfbf" points="418.5,-137 418.5,-167 513.5,-167 513.5,-137 418.5,-137"/>
<text text-anchor="start" x="426.5" y="-155" font-family="Helvetica,sans-Serif" font-size="10.00">boost/serialization</text>
<text text-anchor="middle" x="466" y="-144" font-family="Helvetica,sans-Serif" font-size="10.00">/vector.hpp</text>
</g>
<!-- Node18&#45;&gt;Node20 -->
<g id="edge32" class="edge"><title>Node18&#45;&gt;Node20</title>
<path fill="none" stroke="midnightblue" d="M659.62,-204.403C624.178,-194.994 566.658,-179.723 523.504,-168.266"/>
<polygon fill="midnightblue" stroke="midnightblue" points="524.261,-164.846 513.698,-165.663 522.465,-171.612 524.261,-164.846"/>
</g>
<!-- Node21 -->
<g id="node21" class="node"><title>Node21</title>
<polygon fill="white" stroke="#bfbfbf" points="608,-142.5 608,-161.5 702,-161.5 702,-142.5 608,-142.5"/>
<text text-anchor="middle" x="655" y="-149.5" font-family="Helvetica,sans-Serif" font-size="10.00">boost/version.hpp</text>
</g>
<!-- Node18&#45;&gt;Node21 -->
<g id="edge38" class="edge"><title>Node18&#45;&gt;Node21</title>
<path fill="none" stroke="midnightblue" d="M686.699,-204.403C681.204,-195.493 672.467,-181.325 665.556,-170.118"/>
<polygon fill="midnightblue" stroke="midnightblue" points="668.519,-168.255 660.291,-161.581 662.561,-171.929 668.519,-168.255"/>
</g>
<!-- Node22 -->
<g id="node22" class="node"><title>Node22</title>
<polygon fill="white" stroke="#bfbfbf" points="758.5,-137 758.5,-167 853.5,-167 853.5,-137 758.5,-137"/>
<text text-anchor="start" x="766.5" y="-155" font-family="Helvetica,sans-Serif" font-size="10.00">boost/serialization</text>
<text text-anchor="middle" x="806" y="-144" font-family="Helvetica,sans-Serif" font-size="10.00">/split_free.hpp</text>
</g>
<!-- Node18&#45;&gt;Node22 -->
<g id="edge39" class="edge"><title>Node18&#45;&gt;Node22</title>
<path fill="none" stroke="midnightblue" d="M708.333,-204.403C724.422,-195.936 749.531,-182.72 770.261,-171.81"/>
<polygon fill="midnightblue" stroke="midnightblue" points="771.913,-174.896 779.132,-167.141 768.653,-168.701 771.913,-174.896"/>
</g>
<!-- Node23 -->
<g id="node23" class="node"><title>Node23</title>
<polygon fill="white" stroke="#bfbfbf" points="871.5,-142.5 871.5,-161.5 1000.5,-161.5 1000.5,-142.5 871.5,-142.5"/>
<text text-anchor="middle" x="936" y="-149.5" font-family="Helvetica,sans-Serif" font-size="10.00">boost/unordered_map.hpp</text>
</g>
<!-- Node18&#45;&gt;Node23 -->
<g id="edge40" class="edge"><title>Node18&#45;&gt;Node23</title>
<path fill="none" stroke="midnightblue" d="M726.7,-204.467C769.97,-193.827 844.006,-175.622 891.432,-163.959"/>
<polygon fill="midnightblue" stroke="midnightblue" points="892.545,-167.29 901.42,-161.503 890.873,-160.493 892.545,-167.29"/>
</g>
<!-- Node24 -->
<g id="node24" class="node"><title>Node24</title>
<polygon fill="white" stroke="#bfbfbf" points="1018.5,-142.5 1018.5,-161.5 1069.5,-161.5 1069.5,-142.5 1018.5,-142.5"/>
<text text-anchor="middle" x="1044" y="-149.5" font-family="Helvetica,sans-Serif" font-size="10.00">typeinfo</text>
</g>
<!-- Node18&#45;&gt;Node24 -->
<g id="edge41" class="edge"><title>Node18&#45;&gt;Node24</title>
<path fill="none" stroke="midnightblue" d="M752.269,-209.193C816.77,-204.025 921.615,-192.463 1009,-168 1011.65,-167.257 1014.37,-166.358 1017.06,-165.374"/>
<polygon fill="midnightblue" stroke="midnightblue" points="1018.56,-168.546 1026.52,-161.562 1015.94,-162.053 1018.56,-168.546"/>
</g>
<!-- Node26&#45;&gt;Node2 -->
<g id="edge44" class="edge"><title>Node26&#45;&gt;Node2</title>
<path fill="none" stroke="midnightblue" d="M1302.46,-142.372C1315.39,-131.699 1337.65,-113.343 1353.49,-100.268"/>
<polygon fill="midnightblue" stroke="midnightblue" points="1356.05,-102.694 1361.54,-93.6305 1351.6,-97.2945 1356.05,-102.694"/>
</g>
<!-- Node26&#45;&gt;Node5 -->
<g id="edge45" class="edge"><title>Node26&#45;&gt;Node5</title>
<path fill="none" stroke="midnightblue" d="M1293.79,-142.461C1297.89,-125.191 1309.73,-86.2151 1336,-68 1438.02,2.74163 1494.04,-67.4941 1613,-32 1615.14,-31.3611 1617.32,-30.5891 1619.47,-29.7363"/>
<polygon fill="midnightblue" stroke="midnightblue" points="1620.92,-32.9224 1628.62,-25.6444 1618.07,-26.5325 1620.92,-32.9224"/>
</g>
<!-- Node26&#45;&gt;Node17 -->
<g id="edge46" class="edge"><title>Node26&#45;&gt;Node17</title>
<path fill="none" stroke="midnightblue" d="M1282.72,-142.372C1271.41,-131.856 1252.07,-113.882 1238.05,-100.85"/>
<polygon fill="midnightblue" stroke="midnightblue" points="1240.22,-98.0861 1230.51,-93.8411 1235.45,-103.213 1240.22,-98.0861"/>
</g>
<!-- Node27&#45;&gt;Node5 -->
<g id="edge48" class="edge"><title>Node27&#45;&gt;Node5</title>
<path fill="none" stroke="midnightblue" d="M1617.51,-327.735C1686.83,-322.653 1792.21,-310.084 1817,-280 1889.73,-191.744 1727.97,-72.0439 1666.47,-31.275"/>
<polygon fill="midnightblue" stroke="midnightblue" points="1668.12,-28.1744 1657.84,-25.6353 1664.3,-34.0347 1668.12,-28.1744"/>
</g>
<!-- Node27&#45;&gt;Node6 -->
<g id="edge51" class="edge"><title>Node27&#45;&gt;Node6</title>
<path fill="none" stroke="midnightblue" d="M1492.25,-326.946C1256.88,-311.222 427.237,-250.989 177,-168 118.815,-148.703 87.864,-152.965 57,-100 49.8394,-87.7119 47.5074,-78.5907 57,-68 86.0298,-35.6122 392.081,-21.7168 491.205,-18.0439"/>
<polygon fill="midnightblue" stroke="midnightblue" points="491.588,-21.5324 501.455,-17.6734 491.335,-14.537 491.588,-21.5324"/>
</g>
<!-- Node27&#45;&gt;Node7 -->
<g id="edge50" class="edge"><title>Node27&#45;&gt;Node7</title>
<path fill="none" stroke="midnightblue" d="M1554.75,-316.898C1555.25,-300.855 1558.64,-274.949 1574,-260 1623.45,-211.889 1682.24,-278.147 1725,-224 1780.52,-153.692 1655.23,-64.5489 1601.23,-30.7928"/>
<polygon fill="midnightblue" stroke="midnightblue" points="1602.98,-27.7575 1592.62,-25.5048 1599.31,-33.7218 1602.98,-27.7575"/>
</g>
<!-- Node27&#45;&gt;Node19 -->
<g id="edge49" class="edge"><title>Node27&#45;&gt;Node19</title>
<path fill="none" stroke="midnightblue" d="M1492.28,-322.161C1444.07,-313.931 1383.22,-299.923 1368,-280 1341.39,-245.166 1379.34,-194.363 1402.45,-168.857"/>
<polygon fill="midnightblue" stroke="midnightblue" points="1405.04,-171.206 1409.33,-161.517 1399.93,-166.42 1405.04,-171.206"/>
</g>
<!-- Node28 -->
<g id="node28" class="node"><title>Node28</title>
<polygon fill="white" stroke="#bfbfbf" points="1583,-260.5 1583,-279.5 1623,-279.5 1623,-260.5 1583,-260.5"/>
<text text-anchor="middle" x="1603" y="-267.5" font-family="Helvetica,sans-Serif" font-size="10.00">utility</text>
</g>
<!-- Node27&#45;&gt;Node28 -->
<g id="edge52" class="edge"><title>Node27&#45;&gt;Node28</title>
<path fill="none" stroke="midnightblue" d="M1566.38,-316.781C1573.35,-308.062 1582.31,-296.857 1589.63,-287.715"/>
<polygon fill="midnightblue" stroke="midnightblue" points="1592.5,-289.726 1596.02,-279.731 1587.04,-285.353 1592.5,-289.726"/>
</g>
<!-- Node29 -->
<g id="node29" class="node"><title>Node29</title>
<g id="a_node29"><a xlink:href="../../df/d7d/Event_8hpp.html" target="_top" xlink:title="This class provides a internal container for event&#45;based information. ">
<polygon fill="white" stroke="red" points="1492.5,-142.5 1492.5,-161.5 1577.5,-161.5 1577.5,-142.5 1492.5,-142.5"/>
<text text-anchor="middle" x="1535" y="-149.5" font-family="Helvetica,sans-Serif" font-size="10.00">Core/Event.hpp</text>
</a>
</g>
</g>
<!-- Node27&#45;&gt;Node29 -->
<g id="edge53" class="edge"><title>Node27&#45;&gt;Node29</title>
<path fill="none" stroke="midnightblue" d="M1550.22,-316.895C1547.01,-306.758 1543.02,-292.695 1541,-280 1534.96,-241.985 1534.36,-196.831 1534.6,-171.903"/>
<polygon fill="midnightblue" stroke="midnightblue" points="1538.1,-171.743 1534.75,-161.69 1531.1,-171.636 1538.1,-171.743"/>
</g>
<!-- Node30 -->
<g id="node30" class="node"><title>Node30</title>
<g id="a_node30"><a xlink:href="../../d8/dd4/DataPoint_8hpp.html" target="_top" xlink:title="dataPoint stores kinematic information of a dalitz plot ">
<polygon fill="white" stroke="red" points="1613.5,-204.5 1613.5,-223.5 1716.5,-223.5 1716.5,-204.5 1613.5,-204.5"/>
<text text-anchor="middle" x="1665" y="-211.5" font-family="Helvetica,sans-Serif" font-size="10.00">Core/DataPoint.hpp</text>
</a>
</g>
</g>
<!-- Node27&#45;&gt;Node30 -->
<g id="edge57" class="edge"><title>Node27&#45;&gt;Node30</title>
<path fill="none" stroke="midnightblue" d="M1617.59,-326.763C1682.43,-320.916 1777.42,-307.766 1800,-280 1824.85,-249.447 1773.09,-232.299 1726.65,-223.386"/>
<polygon fill="midnightblue" stroke="midnightblue" points="1727.01,-219.894 1716.54,-221.555 1725.76,-226.781 1727.01,-219.894"/>
</g>
<!-- Node31 -->
<g id="node31" class="node"><title>Node31</title>
<g id="a_node31"><a xlink:href="../../d2/d4b/Data_8hpp.html" target="_top" xlink:title="Contains Data interface class. ">
<polygon fill="white" stroke="red" points="1377,-260.5 1377,-279.5 1489,-279.5 1489,-260.5 1377,-260.5"/>
<text text-anchor="middle" x="1433" y="-267.5" font-family="Helvetica,sans-Serif" font-size="10.00">DataReader/Data.hpp</text>
</a>
</g>
</g>
<!-- Node27&#45;&gt;Node31 -->
<g id="edge60" class="edge"><title>Node27&#45;&gt;Node31</title>
<path fill="none" stroke="midnightblue" d="M1526.4,-316.933C1506.18,-306.991 1479.28,-293.76 1459.54,-284.053"/>
<polygon fill="midnightblue" stroke="midnightblue" points="1461,-280.873 1450.49,-279.6 1457.92,-287.154 1461,-280.873"/>
</g>
<!-- Node32 -->
<g id="node32" class="node"><title>Node32</title>
<g id="a_node32"><a xlink:href="../../d2/dee/DataCorrection_8hpp.html" target="_top" xlink:title="DataReader/DataCorrection.hpp">
<polygon fill="white" stroke="red" points="1165.5,-204.5 1165.5,-223.5 1322.5,-223.5 1322.5,-204.5 1165.5,-204.5"/>
<text text-anchor="middle" x="1244" y="-211.5" font-family="Helvetica,sans-Serif" font-size="10.00">DataReader/DataCorrection.hpp</text>
</a>
</g>
</g>
<!-- Node27&#45;&gt;Node32 -->
<g id="edge72" class="edge"><title>Node27&#45;&gt;Node32</title>
<path fill="none" stroke="midnightblue" d="M1492.2,-323.141C1447.01,-315.906 1385.39,-302.745 1335,-280 1306.71,-267.232 1278.27,-245.067 1260.9,-230.218"/>
<polygon fill="midnightblue" stroke="midnightblue" points="1263.14,-227.53 1253.31,-223.589 1258.54,-232.803 1263.14,-227.53"/>
</g>
<!-- Node33 -->
<g id="node33" class="node"><title>Node33</title>
<polygon fill="white" stroke="#bfbfbf" points="1641.5,-260.5 1641.5,-279.5 1688.5,-279.5 1688.5,-260.5 1641.5,-260.5"/>
<text text-anchor="middle" x="1665" y="-267.5" font-family="Helvetica,sans-Serif" font-size="10.00">TFile.h</text>
</g>
<!-- Node27&#45;&gt;Node33 -->
<g id="edge73" class="edge"><title>Node27&#45;&gt;Node33</title>
<path fill="none" stroke="midnightblue" d="M1580.79,-316.933C1598.69,-307.171 1622.39,-294.24 1640.09,-284.586"/>
<polygon fill="midnightblue" stroke="midnightblue" points="1642.13,-287.461 1649.23,-279.6 1638.78,-281.316 1642.13,-287.461"/>
</g>
<!-- Node34 -->
<g id="node34" class="node"><title>Node34</title>
<polygon fill="white" stroke="#bfbfbf" points="1706.5,-260.5 1706.5,-279.5 1791.5,-279.5 1791.5,-260.5 1706.5,-260.5"/>
<text text-anchor="middle" x="1749" y="-267.5" font-family="Helvetica,sans-Serif" font-size="10.00">TClonesArray.h</text>
</g>
<!-- Node27&#45;&gt;Node34 -->
<g id="edge74" class="edge"><title>Node27&#45;&gt;Node34</title>
<path fill="none" stroke="midnightblue" d="M1600.48,-316.933C1634.34,-306.462 1679.99,-292.345 1711.7,-282.536"/>
<polygon fill="midnightblue" stroke="midnightblue" points="1712.96,-285.811 1721.48,-279.513 1710.89,-279.124 1712.96,-285.811"/>
</g>
<!-- Node35 -->
<g id="node35" class="node"><title>Node35</title>
<polygon fill="white" stroke="#bfbfbf" points="1233,-260.5 1233,-279.5 1283,-279.5 1283,-260.5 1233,-260.5"/>
<text text-anchor="middle" x="1258" y="-267.5" font-family="Helvetica,sans-Serif" font-size="10.00">TTree.h</text>
</g>
<!-- Node27&#45;&gt;Node35 -->
<g id="edge75" class="edge"><title>Node27&#45;&gt;Node35</title>
<path fill="none" stroke="midnightblue" d="M1492.33,-319.186C1440.01,-309.186 1363.52,-294.247 1297,-280 1295.74,-279.73 1294.46,-279.452 1293.16,-279.168"/>
<polygon fill="midnightblue" stroke="midnightblue" points="1293.67,-275.696 1283.15,-276.927 1292.14,-282.527 1293.67,-275.696"/>
</g>
<!-- Node29&#45;&gt;Node2 -->
<g id="edge56" class="edge"><title>Node29&#45;&gt;Node2</title>
<path fill="none" stroke="midnightblue" d="M1513.69,-142.372C1485.3,-130.877 1434.9,-110.469 1402.49,-97.3465"/>
<polygon fill="midnightblue" stroke="midnightblue" points="1403.64,-94.0349 1393.06,-93.5259 1401.01,-100.523 1403.64,-94.0349"/>
</g>
<!-- Node29&#45;&gt;Node5 -->
<g id="edge54" class="edge"><title>Node29&#45;&gt;Node5</title>
<path fill="none" stroke="midnightblue" d="M1542.15,-142.208C1560.09,-120.151 1607.24,-62.1933 1630.55,-33.5323"/>
<polygon fill="midnightblue" stroke="midnightblue" points="1633.37,-35.6165 1636.96,-25.6503 1627.94,-31.1993 1633.37,-35.6165"/>
</g>
<!-- Node29&#45;&gt;Node6 -->
<g id="edge55" class="edge"><title>Node29&#45;&gt;Node6</title>
<path fill="none" stroke="midnightblue" d="M1532.12,-142.461C1525.65,-124.83 1508.14,-84.6593 1478,-68 1392.35,-20.6588 695.18,-43.5085 598,-32 582.887,-30.2103 566.286,-27.0721 552.465,-24.1271"/>
<polygon fill="midnightblue" stroke="midnightblue" points="553.026,-20.6671 542.508,-21.9383 551.523,-27.5038 553.026,-20.6671"/>
</g>
<!-- Node30&#45;&gt;Node5 -->
<g id="edge58" class="edge"><title>Node30&#45;&gt;Node5</title>
<path fill="none" stroke="midnightblue" d="M1665.24,-204.434C1665.73,-181.918 1666.17,-119.271 1658,-68 1656.24,-56.9323 1652.97,-44.8243 1650.04,-35.1843"/>
<polygon fill="midnightblue" stroke="midnightblue" points="1653.33,-34.0021 1646.96,-25.536 1646.66,-36.1266 1653.33,-34.0021"/>
</g>
<!-- Node30&#45;&gt;Node19 -->
<g id="edge59" class="edge"><title>Node30&#45;&gt;Node19</title>
<path fill="none" stroke="midnightblue" d="M1629.87,-204.467C1580.31,-192.426 1490.85,-170.697 1445.69,-159.726"/>
<polygon fill="midnightblue" stroke="midnightblue" points="1446.27,-156.265 1435.72,-157.305 1444.61,-163.067 1446.27,-156.265"/>
</g>
<!-- Node31&#45;&gt;Node5 -->
<g id="edge61" class="edge"><title>Node31&#45;&gt;Node5</title>
<path fill="none" stroke="midnightblue" d="M1474.26,-260.424C1500.5,-253.575 1534.25,-242.071 1560,-224 1623.55,-179.408 1639.08,-77.9837 1642.83,-35.8731"/>
<polygon fill="midnightblue" stroke="midnightblue" points="1646.33,-35.9014 1643.6,-25.6651 1639.35,-35.3714 1646.33,-35.9014"/>
</g>
<!-- Node31&#45;&gt;Node6 -->
<g id="edge62" class="edge"><title>Node31&#45;&gt;Node6</title>
<path fill="none" stroke="midnightblue" d="M1435.66,-260.198C1445.11,-227 1473.08,-109.178 1408,-68 1331.87,-19.8292 687.445,-42.7525 598,-32 582.89,-30.1836 566.289,-27.0423 552.468,-24.1022"/>
<polygon fill="midnightblue" stroke="midnightblue" points="553.028,-20.642 542.51,-21.9184 551.528,-27.4795 553.028,-20.642"/>
</g>
<!-- Node31&#45;&gt;Node7 -->
<g id="edge63" class="edge"><title>Node31&#45;&gt;Node7</title>
<path fill="none" stroke="midnightblue" d="M1459.48,-260.479C1495.67,-247.231 1559.15,-217.89 1586,-168 1609.16,-124.969 1594.41,-64.6821 1584.64,-34.9836"/>
<polygon fill="midnightblue" stroke="midnightblue" points="1587.93,-33.8081 1581.34,-25.5146 1581.32,-36.1094 1587.93,-33.8081"/>
</g>
<!-- Node31&#45;&gt;Node18 -->
<g id="edge66" class="edge"><title>Node31&#45;&gt;Node18</title>
<path fill="none" stroke="midnightblue" d="M1376.7,-264.897C1243.36,-255.18 908.583,-230.783 762.273,-220.121"/>
<polygon fill="midnightblue" stroke="midnightblue" points="762.297,-216.614 752.069,-219.378 761.788,-223.595 762.297,-216.614"/>
</g>
<!-- Node31&#45;&gt;Node26 -->
<g id="edge65" class="edge"><title>Node31&#45;&gt;Node26</title>
<path fill="none" stroke="midnightblue" d="M1422.4,-260.281C1398.5,-240.619 1340.17,-192.63 1310.29,-168.05"/>
<polygon fill="midnightblue" stroke="midnightblue" points="1312.28,-165.155 1302.34,-161.505 1307.84,-170.561 1312.28,-165.155"/>
</g>
<!-- Node31&#45;&gt;Node29 -->
<g id="edge64" class="edge"><title>Node31&#45;&gt;Node29</title>
<path fill="none" stroke="midnightblue" d="M1440.67,-260.281C1457.66,-240.957 1498.71,-194.269 1520.64,-169.336"/>
<polygon fill="midnightblue" stroke="midnightblue" points="1523.55,-171.326 1527.52,-161.505 1518.29,-166.703 1523.55,-171.326"/>
</g>
<!-- Node31&#45;&gt;Node30 -->
<g id="edge67" class="edge"><title>Node31&#45;&gt;Node30</title>
<path fill="none" stroke="midnightblue" d="M1469.76,-260.444C1510.06,-251.063 1574.81,-235.993 1618.58,-225.804"/>
<polygon fill="midnightblue" stroke="midnightblue" points="1619.46,-229.192 1628.41,-223.516 1617.88,-222.375 1619.46,-229.192"/>
</g>
<!-- Node31&#45;&gt;Node32 -->
<g id="edge68" class="edge"><title>Node31&#45;&gt;Node32</title>
<path fill="none" stroke="midnightblue" d="M1403.05,-260.444C1370.84,-251.241 1319.47,-236.562 1283.86,-226.388"/>
<polygon fill="midnightblue" stroke="midnightblue" points="1284.38,-222.898 1273.81,-223.516 1282.46,-229.629 1284.38,-222.898"/>
</g>
<!-- Node32&#45;&gt;Node12 -->
<g id="edge69" class="edge"><title>Node32&#45;&gt;Node12</title>
<path fill="none" stroke="midnightblue" d="M1233.28,-204.202C1206.99,-182.633 1139.1,-126.927 1106.29,-100.005"/>
<polygon fill="midnightblue" stroke="midnightblue" points="1108.34,-97.1599 1098.39,-93.5224 1103.9,-102.571 1108.34,-97.1599"/>
</g>
<!-- Node32&#45;&gt;Node17 -->
<g id="edge71" class="edge"><title>Node32&#45;&gt;Node17</title>
<path fill="none" stroke="midnightblue" d="M1241.09,-204.476C1238.13,-195.501 1233.62,-180.91 1231,-168 1226.58,-146.274 1223.88,-120.925 1222.41,-104.011"/>
<polygon fill="midnightblue" stroke="midnightblue" points="1225.88,-103.485 1221.59,-93.7976 1218.9,-104.046 1225.88,-103.485"/>
</g>
<!-- Node32&#45;&gt;Node29 -->
<g id="edge70" class="edge"><title>Node32&#45;&gt;Node29</title>
<path fill="none" stroke="midnightblue" d="M1285.38,-204.467C1337.53,-193.716 1427.14,-175.239 1483.62,-163.595"/>
<polygon fill="midnightblue" stroke="midnightblue" points="1484.67,-166.951 1493.76,-161.503 1483.26,-160.095 1484.67,-166.951"/>
</g>
</g>
</svg>
