<?xml version="1.0" encoding="UTF-8" standalone="no"?>
<!DOCTYPE svg PUBLIC "-//W3C//DTD SVG 1.1//EN"
 "http://www.w3.org/Graphics/SVG/1.1/DTD/svg11.dtd">
<!-- Generated by graphviz version 2.36.0 (20140111.2315)
 -->
<!-- Title: /home/travis/build/ComPWA/ComPWA/executables/test/RunManagerTestApp.cpp Pages: 1 -->
<svg width="1880pt" height="366pt"
 viewBox="0.00 0.00 1880.00 366.00" xmlns="http://www.w3.org/2000/svg" xmlns:xlink="http://www.w3.org/1999/xlink">
<g id="graph0" class="graph" transform="scale(1 1) rotate(0) translate(4 362)">
<title>/home/travis/build/ComPWA/ComPWA/executables/test/RunManagerTestApp.cpp</title>
<polygon fill="white" stroke="none" points="-4,4 -4,-362 1876,-362 1876,4 -4,4"/>
<!-- Node1 -->
<g id="node1" class="node"><title>Node1</title>
<polygon fill="#bfbfbf" stroke="black" points="1079.5,-316.5 1079.5,-357.5 1246.5,-357.5 1246.5,-316.5 1079.5,-316.5"/>
<text text-anchor="start" x="1087.5" y="-345.5" font-family="Helvetica,sans-Serif" font-size="10.00">/home/travis/build</text>
<text text-anchor="start" x="1087.5" y="-334.5" font-family="Helvetica,sans-Serif" font-size="10.00">/ComPWA/ComPWA/executables</text>
<text text-anchor="middle" x="1163" y="-323.5" font-family="Helvetica,sans-Serif" font-size="10.00">/test/RunManagerTestApp.cpp</text>
</g>
<!-- Node2 -->
<g id="node2" class="node"><title>Node2</title>
<polygon fill="white" stroke="#bfbfbf" points="660,-0.5 660,-19.5 714,-19.5 714,-0.5 660,-0.5"/>
<text text-anchor="middle" x="687" y="-7.5" font-family="Helvetica,sans-Serif" font-size="10.00">iostream</text>
</g>
<!-- Node1&#45;&gt;Node2 -->
<g id="edge1" class="edge"><title>Node1&#45;&gt;Node2</title>
<path fill="none" stroke="midnightblue" d="M1173.96,-316.159C1182.45,-298.146 1191.59,-270.965 1184,-248 1160.36,-176.518 1144.2,-155.85 1083,-112 970.445,-31.3577 799.37,-14.9715 724.404,-11.7379"/>
<polygon fill="midnightblue" stroke="midnightblue" points="724.184,-8.22722 714.06,-11.3501 723.922,-15.2223 724.184,-8.22722"/>
</g>
<!-- Node3 -->
<g id="node3" class="node"><title>Node3</title>
<polygon fill="white" stroke="#bfbfbf" points="4,-0.5 4,-19.5 48,-19.5 48,-0.5 4,-0.5"/>
<text text-anchor="middle" x="26" y="-7.5" font-family="Helvetica,sans-Serif" font-size="10.00">cmath</text>
</g>
<!-- Node1&#45;&gt;Node3 -->
<g id="edge2" class="edge"><title>Node1&#45;&gt;Node3</title>
<path fill="none" stroke="midnightblue" d="M1079.26,-335.888C837.276,-334.989 148.657,-328.18 60,-280 20.0061,-258.265 0,-242.518 0,-197 0,-197 0,-197 0,-127 0,-91.7048 11.6029,-51.7995 19.3065,-29.1944"/>
<polygon fill="midnightblue" stroke="midnightblue" points="22.6711,-30.1779 22.7071,-19.5831 16.0719,-27.843 22.6711,-30.1779"/>
</g>
<!-- Node4 -->
<g id="node4" class="node"><title>Node4</title>
<polygon fill="white" stroke="#bfbfbf" points="92,-0.5 92,-19.5 144,-19.5 144,-0.5 92,-0.5"/>
<text text-anchor="middle" x="118" y="-7.5" font-family="Helvetica,sans-Serif" font-size="10.00">sstream</text>
</g>
<!-- Node1&#45;&gt;Node4 -->
<g id="edge3" class="edge"><title>Node1&#45;&gt;Node4</title>
<path fill="none" stroke="midnightblue" d="M1079.19,-334.078C852.446,-328.497 238.159,-310.703 152,-280 92.9635,-258.962 38,-259.673 38,-197 38,-197 38,-197 38,-127 38,-94.3341 38.6001,-82.9908 57,-56 65.8015,-43.089 79.5607,-32.4742 91.7855,-24.803"/>
<polygon fill="midnightblue" stroke="midnightblue" points="93.8971,-27.6207 100.727,-19.5212 90.337,-21.5936 93.8971,-27.6207"/>
</g>
<!-- Node5 -->
<g id="node5" class="node"><title>Node5</title>
<polygon fill="white" stroke="#bfbfbf" points="1410,-0.5 1410,-19.5 1454,-19.5 1454,-0.5 1410,-0.5"/>
<text text-anchor="middle" x="1432" y="-7.5" font-family="Helvetica,sans-Serif" font-size="10.00">vector</text>
</g>
<!-- Node1&#45;&gt;Node5 -->
<g id="edge4" class="edge"><title>Node1&#45;&gt;Node5</title>
<path fill="none" stroke="midnightblue" d="M1246.77,-336.965C1434.38,-336.873 1872,-323.139 1872,-197 1872,-197 1872,-197 1872,-127 1872,-90.3367 1860.78,-75.9265 1830,-56 1769.75,-16.9874 1547.83,-11.632 1464.19,-11.0203"/>
<polygon fill="midnightblue" stroke="midnightblue" points="1464.03,-7.51951 1454.01,-10.9648 1463.99,-14.5194 1464.03,-7.51951"/>
</g>
<!-- Node6 -->
<g id="node6" class="node"><title>Node6</title>
<polygon fill="white" stroke="#bfbfbf" points="272.5,-0.5 272.5,-19.5 313.5,-19.5 313.5,-0.5 272.5,-0.5"/>
<text text-anchor="middle" x="293" y="-7.5" font-family="Helvetica,sans-Serif" font-size="10.00">string</text>
</g>
<!-- Node1&#45;&gt;Node6 -->
<g id="edge5" class="edge"><title>Node1&#45;&gt;Node6</title>
<path fill="none" stroke="midnightblue" d="M1079.45,-333.036C910.171,-326.503 532.082,-309.091 406,-280 309.015,-257.623 198,-296.533 198,-197 198,-197 198,-197 198,-127 198,-81.9019 241.51,-44.7166 269.639,-25.3891"/>
<polygon fill="midnightblue" stroke="midnightblue" points="271.747,-28.1907 278.156,-19.754 267.885,-22.3526 271.747,-28.1907"/>
</g>
<!-- Node7 -->
<g id="node7" class="node"><title>Node7</title>
<polygon fill="white" stroke="#bfbfbf" points="1311,-56.5 1311,-75.5 1363,-75.5 1363,-56.5 1311,-56.5"/>
<text text-anchor="middle" x="1337" y="-63.5" font-family="Helvetica,sans-Serif" font-size="10.00">memory</text>
</g>
<!-- Node1&#45;&gt;Node7 -->
<g id="edge6" class="edge"><title>Node1&#45;&gt;Node7</title>
<path fill="none" stroke="midnightblue" d="M1246.79,-325.154C1362.41,-308.167 1561.07,-270.993 1600,-212 1607.83,-200.13 1607.75,-191.925 1600,-180 1559.45,-117.605 1515.44,-141.202 1447,-112 1420.5,-100.695 1390.19,-88.3362 1368.1,-79.4357"/>
<polygon fill="midnightblue" stroke="midnightblue" points="1369.16,-76.089 1358.58,-75.6058 1366.55,-82.5837 1369.16,-76.089"/>
</g>
<!-- Node8 -->
<g id="node8" class="node"><title>Node8</title>
<g id="a_node8"><a xlink:href="../../df/d53/RootReader_8hpp.html" target="_top" xlink:title="This class reads event&#45;based data from root&#45;files. ">
<polygon fill="white" stroke="red" points="709.5,-249 709.5,-279 834.5,-279 834.5,-249 709.5,-249"/>
<text text-anchor="start" x="717.5" y="-267" font-family="Helvetica,sans-Serif" font-size="10.00">DataReader/RootReader</text>
<text text-anchor="middle" x="772" y="-256" font-family="Helvetica,sans-Serif" font-size="10.00">/RootReader.hpp</text>
</a>
</g>
</g>
<!-- Node1&#45;&gt;Node8 -->
<g id="edge7" class="edge"><title>Node1&#45;&gt;Node8</title>
<path fill="none" stroke="midnightblue" d="M1079.12,-320.769C1009.33,-308.095 910.991,-290.239 844.548,-278.174"/>
<polygon fill="midnightblue" stroke="midnightblue" points="845.04,-274.706 834.575,-276.363 843.789,-281.593 845.04,-274.706"/>
</g>
<!-- Node13 -->
<g id="node13" class="node"><title>Node13</title>
<g id="a_node13"><a xlink:href="../../d8/d6f/Efficiency_8hpp.html" target="_top" xlink:title="Core/Efficiency.hpp">
<polygon fill="white" stroke="red" points="1460.5,-56.5 1460.5,-75.5 1563.5,-75.5 1563.5,-56.5 1460.5,-56.5"/>
<text text-anchor="middle" x="1512" y="-63.5" font-family="Helvetica,sans-Serif" font-size="10.00">Core/Efficiency.hpp</text>
</a>
</g>
</g>
<!-- Node1&#45;&gt;Node13 -->
<g id="edge62" class="edge"><title>Node1&#45;&gt;Node13</title>
<path fill="none" stroke="midnightblue" d="M1246.56,-334.362C1321.97,-330.296 1434.61,-317.686 1525,-280 1571.93,-260.434 1594.1,-257.398 1617,-212 1623.4,-199.302 1622.2,-193.237 1617,-180 1600.18,-137.191 1558.67,-100.961 1533.17,-81.751"/>
<polygon fill="midnightblue" stroke="midnightblue" points="1535.02,-78.7677 1524.88,-75.6831 1530.88,-84.4153 1535.02,-78.7677"/>
</g>
<!-- Node15 -->
<g id="node15" class="node"><title>Node15</title>
<g id="a_node15"><a xlink:href="../../df/d9f/ParameterList_8hpp.html" target="_top" xlink:title="This class provides a list of fit parameters which can have different types. ">
<polygon fill="white" stroke="red" points="492,-118.5 492,-137.5 612,-137.5 612,-118.5 492,-118.5"/>
<text text-anchor="middle" x="552" y="-125.5" font-family="Helvetica,sans-Serif" font-size="10.00">Core/ParameterList.hpp</text>
</a>
</g>
</g>
<!-- Node1&#45;&gt;Node15 -->
<g id="edge64" class="edge"><title>Node1&#45;&gt;Node15</title>
<path fill="none" stroke="midnightblue" d="M1079.22,-334.263C914.097,-328.791 556.636,-306.095 488,-212 479.619,-200.51 481.827,-192.813 488,-180 495.74,-163.936 511.273,-151.365 525.099,-142.723"/>
<polygon fill="midnightblue" stroke="midnightblue" points="526.971,-145.682 533.838,-137.614 523.438,-139.639 526.971,-145.682"/>
</g>
<!-- Node16 -->
<g id="node16" class="node"><title>Node16</title>
<g id="a_node16"><a xlink:href="../../db/dce/Parameter_8hpp.html" target="_top" xlink:title="This class implements some internal container of parameters. ">
<polygon fill="white" stroke="red" points="66,-56.5 66,-75.5 170,-75.5 170,-56.5 66,-56.5"/>
<text text-anchor="middle" x="118" y="-63.5" font-family="Helvetica,sans-Serif" font-size="10.00">Core/Parameter.hpp</text>
</a>
</g>
</g>
<!-- Node1&#45;&gt;Node16 -->
<g id="edge63" class="edge"><title>Node1&#45;&gt;Node16</title>
<path fill="none" stroke="midnightblue" d="M1079.2,-336.587C854.995,-337.413 253.648,-334.472 184,-280 122.825,-232.155 116.998,-128.499 117.34,-85.8816"/>
<polygon fill="midnightblue" stroke="midnightblue" points="120.842,-85.8602 117.552,-75.7889 113.843,-85.7132 120.842,-85.8602"/>
</g>
<!-- Node20 -->
<g id="node20" class="node"><title>Node20</title>
<g id="a_node20"><a xlink:href="../../d3/da8/BreitWigner_8hpp.html" target="_top" xlink:title="This class provides a simple Breit&#45;Wigner calculation with given parameters. ">
<polygon fill="white" stroke="red" points="1486,-181 1486,-211 1592,-211 1592,-181 1486,-181"/>
<text text-anchor="start" x="1494" y="-199" font-family="Helvetica,sans-Serif" font-size="10.00">Physics/BreitWigner</text>
<text text-anchor="middle" x="1539" y="-188" font-family="Helvetica,sans-Serif" font-size="10.00">/BreitWigner.hpp</text>
</a>
</g>
</g>
<!-- Node1&#45;&gt;Node20 -->
<g id="edge47" class="edge"><title>Node1&#45;&gt;Node20</title>
<path fill="none" stroke="midnightblue" d="M1246.76,-321.984C1291.95,-312.915 1348.11,-299.177 1396,-280 1438.08,-263.15 1482.66,-235.507 1510.64,-216.797"/>
<polygon fill="midnightblue" stroke="midnightblue" points="1512.8,-219.564 1519.12,-211.061 1508.87,-213.766 1512.8,-219.564"/>
</g>
<!-- Node21 -->
<g id="node21" class="node"><title>Node21</title>
<g id="a_node21"><a xlink:href="../../d7/de4/MinLogLH_8hpp.html" target="_top" xlink:title="This class calculates a simple &#45;log(LH) of a intensity and a dataset. ">
<polygon fill="white" stroke="red" points="1070,-249 1070,-279 1176,-279 1176,-249 1070,-249"/>
<text text-anchor="start" x="1078" y="-267" font-family="Helvetica,sans-Serif" font-size="10.00">Estimator/MinLogLH</text>
<text text-anchor="middle" x="1123" y="-256" font-family="Helvetica,sans-Serif" font-size="10.00">/MinLogLH.hpp</text>
</a>
</g>
</g>
<!-- Node1&#45;&gt;Node21 -->
<g id="edge51" class="edge"><title>Node1&#45;&gt;Node21</title>
<path fill="none" stroke="midnightblue" d="M1151.86,-316.223C1146.92,-307.452 1141.07,-297.077 1135.94,-287.966"/>
<polygon fill="midnightblue" stroke="midnightblue" points="1138.87,-286.043 1130.91,-279.049 1132.77,-289.479 1138.87,-286.043"/>
</g>
<!-- Node22 -->
<g id="node22" class="node"><title>Node22</title>
<g id="a_node22"><a xlink:href="../../da/d15/MinuitIF_8hpp.html" target="_top" xlink:title="This class provides a wrapper around the Minuit2 library. ">
<polygon fill="white" stroke="red" points="1346,-181 1346,-211 1468,-211 1468,-181 1346,-181"/>
<text text-anchor="start" x="1354" y="-199" font-family="Helvetica,sans-Serif" font-size="10.00">Optimizer/Minuit2/Minuit</text>
<text text-anchor="middle" x="1407" y="-188" font-family="Helvetica,sans-Serif" font-size="10.00">IF.hpp</text>
</a>
</g>
</g>
<!-- Node1&#45;&gt;Node22 -->
<g id="edge58" class="edge"><title>Node1&#45;&gt;Node22</title>
<path fill="none" stroke="midnightblue" d="M1246.68,-330.099C1287.86,-323.343 1335.84,-309.229 1370,-280 1387.62,-264.924 1397.2,-239.801 1402.17,-221.137"/>
<polygon fill="midnightblue" stroke="midnightblue" points="1405.6,-221.819 1404.53,-211.278 1398.8,-220.188 1405.6,-221.819"/>
</g>
<!-- Node23 -->
<g id="node23" class="node"><title>Node23</title>
<g id="a_node23"><a xlink:href="../../db/d41/RunManager_8hpp.html" target="_top" xlink:title="This class provides a RunManager for simple fits. ">
<polygon fill="white" stroke="red" points="1246.5,-254.5 1246.5,-273.5 1361.5,-273.5 1361.5,-254.5 1246.5,-254.5"/>
<text text-anchor="middle" x="1304" y="-261.5" font-family="Helvetica,sans-Serif" font-size="10.00">Core/RunManager.hpp</text>
</a>
</g>
</g>
<!-- Node1&#45;&gt;Node23 -->
<g id="edge65" class="edge"><title>Node1&#45;&gt;Node23</title>
<path fill="none" stroke="midnightblue" d="M1201.9,-316.411C1226.08,-304.238 1256.5,-288.917 1277.83,-278.18"/>
<polygon fill="midnightblue" stroke="midnightblue" points="1279.57,-281.22 1286.93,-273.597 1276.42,-274.968 1279.57,-281.22"/>
</g>
<!-- Node24 -->
<g id="node24" class="node"><title>Node24</title>
<g id="a_node24"><a xlink:href="../../d5/d5e/RootEfficiency_8hpp.html" target="_top" xlink:title="Physics/DPKinematics\l/RootEfficiency.hpp">
<polygon fill="white" stroke="red" points="1612,-113 1612,-143 1730,-143 1730,-113 1612,-113"/>
<text text-anchor="start" x="1620" y="-131" font-family="Helvetica,sans-Serif" font-size="10.00">Physics/DPKinematics</text>
<text text-anchor="middle" x="1671" y="-120" font-family="Helvetica,sans-Serif" font-size="10.00">/RootEfficiency.hpp</text>
</a>
</g>
</g>
<!-- Node1&#45;&gt;Node24 -->
<g id="edge71" class="edge"><title>Node1&#45;&gt;Node24</title>
<path fill="none" stroke="midnightblue" d="M1246.73,-334.088C1400.43,-329.708 1714.95,-316.359 1748,-280 1777.89,-247.11 1769.03,-219.154 1748,-180 1740.79,-166.572 1728.31,-156.084 1715.48,-148.204"/>
<polygon fill="midnightblue" stroke="midnightblue" points="1717.02,-145.055 1706.6,-143.162 1713.57,-151.143 1717.02,-145.055"/>
</g>
<!-- Node25 -->
<g id="node25" class="node"><title>Node25</title>
<g id="a_node25"><a xlink:href="../../d2/dcb/PolyFit_8hpp.html" target="_top" xlink:title="This class derives from ControlParameter, the data&#45;interface of the optimizers. ">
<polygon fill="white" stroke="red" points="334,-186.5 334,-205.5 400,-205.5 400,-186.5 334,-186.5"/>
<text text-anchor="middle" x="367" y="-193.5" font-family="Helvetica,sans-Serif" font-size="10.00">PolyFit.hpp</text>
</a>
</g>
</g>
<!-- Node1&#45;&gt;Node25 -->
<g id="edge75" class="edge"><title>Node1&#45;&gt;Node25</title>
<path fill="none" stroke="midnightblue" d="M1079.34,-336.277C916.804,-335.698 564.678,-328.657 455,-280 422.205,-265.451 393.991,-233.358 378.849,-213.615"/>
<polygon fill="midnightblue" stroke="midnightblue" points="381.612,-211.465 372.842,-205.52 375.991,-215.636 381.612,-211.465"/>
</g>
<!-- Node8&#45;&gt;Node5 -->
<g id="edge8" class="edge"><title>Node8&#45;&gt;Node5</title>
<path fill="none" stroke="midnightblue" d="M834.681,-262.696C903.252,-260.272 1015.1,-250.084 1103,-212 1206.12,-167.321 1203.33,-109.785 1302,-56 1333.61,-38.7696 1373.07,-26.2282 1400.17,-18.8279"/>
<polygon fill="midnightblue" stroke="midnightblue" points="1401.15,-22.1912 1409.91,-16.2444 1399.35,-15.4251 1401.15,-22.1912"/>
</g>
<!-- Node8&#45;&gt;Node6 -->
<g id="edge11" class="edge"><title>Node8&#45;&gt;Node6</title>
<path fill="none" stroke="midnightblue" d="M709.142,-261.365C578.996,-257.33 289.639,-244.738 260,-212 213.467,-160.602 238.429,-121.892 260,-56 263.49,-45.3397 270.573,-35.1174 277.286,-27.1175"/>
<polygon fill="midnightblue" stroke="midnightblue" points="279.904,-29.4395 283.98,-19.66 274.695,-24.7633 279.904,-29.4395"/>
</g>
<!-- Node8&#45;&gt;Node7 -->
<g id="edge10" class="edge"><title>Node8&#45;&gt;Node7</title>
<path fill="none" stroke="midnightblue" d="M834.524,-259.852C933.21,-254.108 1120.04,-239.865 1180,-212 1244.62,-181.971 1300.64,-115.397 1324.6,-84.0061"/>
<polygon fill="midnightblue" stroke="midnightblue" points="1327.54,-85.9111 1330.73,-75.8076 1321.94,-81.717 1327.54,-85.9111"/>
</g>
<!-- Node9 -->
<g id="node9" class="node"><title>Node9</title>
<polygon fill="white" stroke="#bfbfbf" points="428.5,-56.5 428.5,-75.5 463.5,-75.5 463.5,-56.5 428.5,-56.5"/>
<text text-anchor="middle" x="446" y="-63.5" font-family="Helvetica,sans-Serif" font-size="10.00">map</text>
</g>
<!-- Node8&#45;&gt;Node9 -->
<g id="edge9" class="edge"><title>Node8&#45;&gt;Node9</title>
<path fill="none" stroke="midnightblue" d="M709.388,-259.347C635.848,-253.792 519.823,-240.667 488,-212 451.74,-179.336 446.008,-117.473 445.578,-86.1704"/>
<polygon fill="midnightblue" stroke="midnightblue" points="449.079,-85.8086 445.62,-75.7945 442.079,-85.7802 449.079,-85.8086"/>
</g>
<!-- Node10 -->
<g id="node10" class="node"><title>Node10</title>
<polygon fill="white" stroke="#bfbfbf" points="497,-186.5 497,-205.5 537,-205.5 537,-186.5 497,-186.5"/>
<text text-anchor="middle" x="517" y="-193.5" font-family="Helvetica,sans-Serif" font-size="10.00">utility</text>
</g>
<!-- Node8&#45;&gt;Node10 -->
<g id="edge12" class="edge"><title>Node8&#45;&gt;Node10</title>
<path fill="none" stroke="midnightblue" d="M709.388,-253.307C663.327,-245.118 599.66,-231.566 546,-212 544.352,-211.399 542.68,-210.725 541.012,-210.003"/>
<polygon fill="midnightblue" stroke="midnightblue" points="542.251,-206.715 531.722,-205.537 539.218,-213.024 542.251,-206.715"/>
</g>
<!-- Node11 -->
<g id="node11" class="node"><title>Node11</title>
<g id="a_node11"><a xlink:href="../../df/d7d/Event_8hpp.html" target="_top" xlink:title="This class provides a internal container for event&#45;based information. ">
<polygon fill="white" stroke="red" points="815.5,-56.5 815.5,-75.5 900.5,-75.5 900.5,-56.5 815.5,-56.5"/>
<text text-anchor="middle" x="858" y="-63.5" font-family="Helvetica,sans-Serif" font-size="10.00">Core/Event.hpp</text>
</a>
</g>
</g>
<!-- Node8&#45;&gt;Node11 -->
<g id="edge13" class="edge"><title>Node8&#45;&gt;Node11</title>
<path fill="none" stroke="midnightblue" d="M761.501,-248.629C742.44,-222.199 703.505,-166.523 697,-144 693.053,-130.336 688.403,-123.33 697,-112 710.209,-94.5926 763.585,-82.0939 805.303,-74.752"/>
<polygon fill="midnightblue" stroke="midnightblue" points="806.085,-78.1694 815.356,-73.0413 804.91,-71.2687 806.085,-78.1694"/>
</g>
<!-- Node12 -->
<g id="node12" class="node"><title>Node12</title>
<g id="a_node12"><a xlink:href="../../d8/dd4/DataPoint_8hpp.html" target="_top" xlink:title="dataPoint stores kinematic information of a dalitz plot ">
<polygon fill="white" stroke="red" points="920.5,-118.5 920.5,-137.5 1023.5,-137.5 1023.5,-118.5 920.5,-118.5"/>
<text text-anchor="middle" x="972" y="-125.5" font-family="Helvetica,sans-Serif" font-size="10.00">Core/DataPoint.hpp</text>
</a>
</g>
</g>
<!-- Node8&#45;&gt;Node12 -->
<g id="edge17" class="edge"><title>Node8&#45;&gt;Node12</title>
<path fill="none" stroke="midnightblue" d="M793.025,-248.913C831.279,-223.283 911.863,-169.292 950.479,-143.419"/>
<polygon fill="midnightblue" stroke="midnightblue" points="952.554,-146.242 958.914,-137.768 948.658,-140.426 952.554,-146.242"/>
</g>
<!-- Node14 -->
<g id="node14" class="node"><title>Node14</title>
<g id="a_node14"><a xlink:href="../../d2/d4b/Data_8hpp.html" target="_top" xlink:title="This class provides the interface to experimental data. ">
<polygon fill="white" stroke="red" points="983,-186.5 983,-205.5 1095,-205.5 1095,-186.5 983,-186.5"/>
<text text-anchor="middle" x="1039" y="-193.5" font-family="Helvetica,sans-Serif" font-size="10.00">DataReader/Data.hpp</text>
</a>
</g>
</g>
<!-- Node8&#45;&gt;Node14 -->
<g id="edge24" class="edge"><title>Node8&#45;&gt;Node14</title>
<path fill="none" stroke="midnightblue" d="M828.951,-248.922C878.501,-236.674 949.301,-219.173 994.711,-207.948"/>
<polygon fill="midnightblue" stroke="midnightblue" points="995.69,-211.311 1004.56,-205.514 994.01,-204.516 995.69,-211.311"/>
</g>
<!-- Node17 -->
<g id="node17" class="node"><title>Node17</title>
<g id="a_node17"><a xlink:href="../../d2/dee/DataCorrection_8hpp.html" target="_top" xlink:title="DataReader/DataCorrection.hpp">
<polygon fill="white" stroke="red" points="706.5,-118.5 706.5,-137.5 863.5,-137.5 863.5,-118.5 706.5,-118.5"/>
<text text-anchor="middle" x="785" y="-125.5" font-family="Helvetica,sans-Serif" font-size="10.00">DataReader/DataCorrection.hpp</text>
</a>
</g>
</g>
<!-- Node8&#45;&gt;Node17 -->
<g id="edge44" class="edge"><title>Node8&#45;&gt;Node17</title>
<path fill="none" stroke="midnightblue" d="M773.391,-248.66C775.753,-224.32 780.544,-174.933 783.173,-147.837"/>
<polygon fill="midnightblue" stroke="midnightblue" points="786.671,-148.019 784.153,-137.728 779.704,-147.343 786.671,-148.019"/>
</g>
<!-- Node18 -->
<g id="node18" class="node"><title>Node18</title>
<polygon fill="white" stroke="#bfbfbf" points="555.5,-186.5 555.5,-205.5 602.5,-205.5 602.5,-186.5 555.5,-186.5"/>
<text text-anchor="middle" x="579" y="-193.5" font-family="Helvetica,sans-Serif" font-size="10.00">TFile.h</text>
</g>
<!-- Node8&#45;&gt;Node18 -->
<g id="edge45" class="edge"><title>Node8&#45;&gt;Node18</title>
<path fill="none" stroke="midnightblue" d="M721.729,-248.93C689.674,-239.505 647.457,-226.248 611,-212 609.157,-211.28 607.271,-210.503 605.381,-209.695"/>
<polygon fill="midnightblue" stroke="midnightblue" points="606.646,-206.427 596.091,-205.518 603.776,-212.811 606.646,-206.427"/>
</g>
<!-- Node19 -->
<g id="node19" class="node"><title>Node19</title>
<polygon fill="white" stroke="#bfbfbf" points="620.5,-186.5 620.5,-205.5 705.5,-205.5 705.5,-186.5 620.5,-186.5"/>
<text text-anchor="middle" x="663" y="-193.5" font-family="Helvetica,sans-Serif" font-size="10.00">TClonesArray.h</text>
</g>
<!-- Node8&#45;&gt;Node19 -->
<g id="edge46" class="edge"><title>Node8&#45;&gt;Node19</title>
<path fill="none" stroke="midnightblue" d="M748.617,-248.841C730.101,-237.63 704.38,-222.056 685.972,-210.91"/>
<polygon fill="midnightblue" stroke="midnightblue" points="687.705,-207.868 677.338,-205.682 684.08,-213.855 687.705,-207.868"/>
</g>
<!-- Node11&#45;&gt;Node2 -->
<g id="edge16" class="edge"><title>Node11&#45;&gt;Node2</title>
<path fill="none" stroke="midnightblue" d="M830.905,-56.4435C802.012,-47.3196 756.075,-32.8133 723.895,-22.6509"/>
<polygon fill="midnightblue" stroke="midnightblue" points="724.559,-19.1903 713.969,-19.5164 722.451,-25.8654 724.559,-19.1903"/>
</g>
<!-- Node11&#45;&gt;Node5 -->
<g id="edge14" class="edge"><title>Node11&#45;&gt;Node5</title>
<path fill="none" stroke="midnightblue" d="M900.674,-60.9853C1010.74,-50.631 1302.4,-23.1926 1399.81,-14.0284"/>
<polygon fill="midnightblue" stroke="midnightblue" points="1400.3,-17.4981 1409.93,-13.0767 1399.64,-10.5288 1400.3,-17.4981"/>
</g>
<!-- Node11&#45;&gt;Node6 -->
<g id="edge15" class="edge"><title>Node11&#45;&gt;Node6</title>
<path fill="none" stroke="midnightblue" d="M815.069,-60.8969C705.593,-50.4336 417.996,-22.9465 323.541,-13.919"/>
<polygon fill="midnightblue" stroke="midnightblue" points="323.79,-10.4269 313.502,-12.9595 323.124,-17.3951 323.79,-10.4269"/>
</g>
<!-- Node12&#45;&gt;Node5 -->
<g id="edge18" class="edge"><title>Node12&#45;&gt;Node5</title>
<path fill="none" stroke="midnightblue" d="M983.468,-118.286C1004.38,-102.894 1050.65,-71.0976 1095,-56 1202.27,-19.4817 1338.17,-12.4278 1399.43,-11.1836"/>
<polygon fill="midnightblue" stroke="midnightblue" points="1399.7,-14.6799 1409.64,-11.0173 1399.58,-7.68082 1399.7,-14.6799"/>
</g>
<!-- Node12&#45;&gt;Node9 -->
<g id="edge19" class="edge"><title>Node12&#45;&gt;Node9</title>
<path fill="none" stroke="midnightblue" d="M920.416,-118.823C904.874,-116.478 887.759,-114.013 872,-112 722.457,-92.8951 542.63,-75.8303 474.249,-69.5541"/>
<polygon fill="midnightblue" stroke="midnightblue" points="474.166,-66.032 463.889,-68.6077 473.529,-73.003 474.166,-66.032"/>
</g>
<!-- Node12&#45;&gt;Node11 -->
<g id="edge23" class="edge"><title>Node12&#45;&gt;Node11</title>
<path fill="none" stroke="midnightblue" d="M955.667,-118.403C936.789,-108.468 905.493,-91.9966 883.424,-80.3812"/>
<polygon fill="midnightblue" stroke="midnightblue" points="884.782,-77.1409 874.303,-75.5806 881.522,-83.3353 884.782,-77.1409"/>
</g>
<!-- Node12&#45;&gt;Node13 -->
<g id="edge20" class="edge"><title>Node12&#45;&gt;Node13</title>
<path fill="none" stroke="midnightblue" d="M1023.78,-121.247C1123.77,-110.137 1343.02,-85.7753 1450.35,-73.85"/>
<polygon fill="midnightblue" stroke="midnightblue" points="1450.83,-77.3186 1460.38,-72.7356 1450.05,-70.3614 1450.83,-77.3186"/>
</g>
<!-- Node13&#45;&gt;Node2 -->
<g id="edge21" class="edge"><title>Node13&#45;&gt;Node2</title>
<path fill="none" stroke="midnightblue" d="M1460.39,-61.6221C1307.04,-51.5843 856.541,-22.0972 724.052,-13.4252"/>
<polygon fill="midnightblue" stroke="midnightblue" points="724.208,-9.928 714,-12.7673 723.75,-16.9131 724.208,-9.928"/>
</g>
<!-- Node13&#45;&gt;Node5 -->
<g id="edge22" class="edge"><title>Node13&#45;&gt;Node5</title>
<path fill="none" stroke="midnightblue" d="M1499.15,-56.324C1486.78,-47.979 1467.87,-35.2122 1453.26,-25.3524"/>
<polygon fill="midnightblue" stroke="midnightblue" points="1455.07,-22.3483 1444.82,-19.6545 1451.15,-28.1503 1455.07,-22.3483"/>
</g>
<!-- Node14&#45;&gt;Node5 -->
<g id="edge25" class="edge"><title>Node14&#45;&gt;Node5</title>
<path fill="none" stroke="midnightblue" d="M1043.16,-186.313C1055.64,-161.274 1095.45,-88.6654 1152,-56 1193.7,-31.9153 1335.15,-18.3636 1399.57,-13.3102"/>
<polygon fill="midnightblue" stroke="midnightblue" points="1399.88,-16.797 1409.58,-12.5449 1399.34,-9.81738 1399.88,-16.797"/>
</g>
<!-- Node14&#45;&gt;Node6 -->
<g id="edge26" class="edge"><title>Node14&#45;&gt;Node6</title>
<path fill="none" stroke="midnightblue" d="M1010.63,-186.499C983.899,-177.85 943.241,-163.027 911,-144 891.69,-132.605 892.381,-121.345 872,-112 677.448,-22.7951 413.011,-11.9654 323.814,-10.9638"/>
<polygon fill="midnightblue" stroke="midnightblue" points="323.613,-7.46228 313.586,-10.8848 323.559,-14.4621 323.613,-7.46228"/>
</g>
<!-- Node14&#45;&gt;Node7 -->
<g id="edge27" class="edge"><title>Node14&#45;&gt;Node7</title>
<path fill="none" stroke="midnightblue" d="M1059.02,-186.403C1110.44,-164.314 1247.38,-105.497 1307.73,-79.5717"/>
<polygon fill="midnightblue" stroke="midnightblue" points="1309.26,-82.7224 1317.07,-75.5598 1306.5,-76.2906 1309.26,-82.7224"/>
</g>
<!-- Node14&#45;&gt;Node11 -->
<g id="edge28" class="edge"><title>Node14&#45;&gt;Node11</title>
<path fill="none" stroke="midnightblue" d="M1041.21,-186.269C1044.84,-169.673 1050,-133.33 1032,-112 1016.43,-93.544 956.069,-80.9546 910.78,-73.8849"/>
<polygon fill="midnightblue" stroke="midnightblue" points="911.2,-70.4087 900.789,-72.3755 910.154,-77.3301 911.2,-70.4087"/>
</g>
<!-- Node14&#45;&gt;Node12 -->
<g id="edge41" class="edge"><title>Node14&#45;&gt;Node12</title>
<path fill="none" stroke="midnightblue" d="M1030.24,-186.372C1019.67,-175.955 1001.66,-158.217 988.462,-145.216"/>
<polygon fill="midnightblue" stroke="midnightblue" points="990.555,-142.365 980.975,-137.841 985.643,-147.352 990.555,-142.365"/>
</g>
<!-- Node14&#45;&gt;Node15 -->
<g id="edge29" class="edge"><title>Node14&#45;&gt;Node15</title>
<path fill="none" stroke="midnightblue" d="M982.659,-187.364C893.307,-175.255 719.288,-151.671 622.04,-138.492"/>
<polygon fill="midnightblue" stroke="midnightblue" points="622.39,-135.008 612.011,-137.133 621.45,-141.944 622.39,-135.008"/>
</g>
<!-- Node14&#45;&gt;Node17 -->
<g id="edge42" class="edge"><title>Node14&#45;&gt;Node17</title>
<path fill="none" stroke="midnightblue" d="M1006.05,-186.439C960.469,-174.594 878.103,-153.192 827.804,-140.122"/>
<polygon fill="midnightblue" stroke="midnightblue" points="828.446,-136.673 817.887,-137.546 826.686,-143.448 828.446,-136.673"/>
</g>
<!-- Node15&#45;&gt;Node2 -->
<g id="edge30" class="edge"><title>Node15&#45;&gt;Node2</title>
<path fill="none" stroke="midnightblue" d="M562.147,-118.281C585.029,-98.6192 640.879,-50.63 669.485,-26.0498"/>
<polygon fill="midnightblue" stroke="midnightblue" points="671.799,-28.6766 677.102,-19.5048 667.237,-23.3673 671.799,-28.6766"/>
</g>
<!-- Node15&#45;&gt;Node4 -->
<g id="edge33" class="edge"><title>Node15&#45;&gt;Node4</title>
<path fill="none" stroke="midnightblue" d="M545.196,-118.184C532.633,-102.63 504.127,-70.5849 472,-56 415.9,-30.5319 233.288,-17.4747 154.611,-12.9167"/>
<polygon fill="midnightblue" stroke="midnightblue" points="154.404,-9.39953 144.223,-12.3295 154.009,-16.3884 154.404,-9.39953"/>
</g>
<!-- Node15&#45;&gt;Node5 -->
<g id="edge34" class="edge"><title>Node15&#45;&gt;Node5</title>
<path fill="none" stroke="midnightblue" d="M576.145,-118.49C620.856,-103.131 719.839,-70.9824 806,-56 1030.85,-16.901 1306.83,-11.6583 1399.74,-11.0443"/>
<polygon fill="midnightblue" stroke="midnightblue" points="1399.92,-14.5435 1409.91,-10.9913 1399.89,-7.5436 1399.92,-14.5435"/>
</g>
<!-- Node15&#45;&gt;Node6 -->
<g id="edge31" class="edge"><title>Node15&#45;&gt;Node6</title>
<path fill="none" stroke="midnightblue" d="M549.234,-118.428C543.872,-103.262 530.565,-71.8104 508,-56 451.881,-16.68 368.62,-10.3874 323.967,-10.13"/>
<polygon fill="midnightblue" stroke="midnightblue" points="323.73,-6.63091 313.745,-10.1743 323.76,-13.6308 323.73,-6.63091"/>
</g>
<!-- Node15&#45;&gt;Node7 -->
<g id="edge32" class="edge"><title>Node15&#45;&gt;Node7</title>
<path fill="none" stroke="midnightblue" d="M610.044,-118.481C627.374,-116.139 646.432,-113.762 664,-112 906.547,-87.6762 1199.63,-73.1557 1300.69,-68.5786"/>
<polygon fill="midnightblue" stroke="midnightblue" points="1301.13,-72.0625 1310.96,-68.1178 1300.82,-65.0696 1301.13,-72.0625"/>
</g>
<!-- Node15&#45;&gt;Node9 -->
<g id="edge35" class="edge"><title>Node15&#45;&gt;Node9</title>
<path fill="none" stroke="midnightblue" d="M536.813,-118.403C519.338,-108.512 490.421,-92.1442 469.917,-80.5378"/>
<polygon fill="midnightblue" stroke="midnightblue" points="471.586,-77.4607 461.159,-75.5806 468.138,-83.5525 471.586,-77.4607"/>
</g>
<!-- Node15&#45;&gt;Node16 -->
<g id="edge36" class="edge"><title>Node15&#45;&gt;Node16</title>
<path fill="none" stroke="midnightblue" d="M491.654,-118.657C409.486,-107.298 263.152,-87.0671 180.088,-75.5836"/>
<polygon fill="midnightblue" stroke="midnightblue" points="180.419,-72.0961 170.034,-74.1936 179.46,-79.0302 180.419,-72.0961"/>
</g>
<!-- Node16&#45;&gt;Node2 -->
<g id="edge37" class="edge"><title>Node16&#45;&gt;Node2</title>
<path fill="none" stroke="midnightblue" d="M170.003,-60.0647C283.559,-49.2879 551.401,-23.8688 649.853,-14.5254"/>
<polygon fill="midnightblue" stroke="midnightblue" points="650.3,-17.9988 659.925,-13.5695 649.639,-11.0301 650.3,-17.9988"/>
</g>
<!-- Node16&#45;&gt;Node3 -->
<g id="edge40" class="edge"><title>Node16&#45;&gt;Node3</title>
<path fill="none" stroke="midnightblue" d="M103.219,-56.324C88.7329,-47.8215 66.4269,-34.7288 49.5068,-24.7975"/>
<polygon fill="midnightblue" stroke="midnightblue" points="51.1406,-21.6981 40.7447,-19.6545 47.5972,-27.735 51.1406,-21.6981"/>
</g>
<!-- Node16&#45;&gt;Node4 -->
<g id="edge39" class="edge"><title>Node16&#45;&gt;Node4</title>
<path fill="none" stroke="midnightblue" d="M118,-56.083C118,-49.0059 118,-38.8611 118,-29.9865"/>
<polygon fill="midnightblue" stroke="midnightblue" points="121.5,-29.751 118,-19.7511 114.5,-29.7511 121.5,-29.751"/>
</g>
<!-- Node16&#45;&gt;Node6 -->
<g id="edge38" class="edge"><title>Node16&#45;&gt;Node6</title>
<path fill="none" stroke="midnightblue" d="M145.729,-56.4435C177.609,-46.6063 229.766,-30.5122 262.693,-20.3518"/>
<polygon fill="midnightblue" stroke="midnightblue" points="263.727,-23.6956 272.251,-17.4026 261.663,-17.0068 263.727,-23.6956"/>
</g>
<!-- Node17&#45;&gt;Node11 -->
<g id="edge43" class="edge"><title>Node17&#45;&gt;Node11</title>
<path fill="none" stroke="midnightblue" d="M795.459,-118.403C806.951,-108.958 825.63,-93.6056 839.587,-82.1342"/>
<polygon fill="midnightblue" stroke="midnightblue" points="842.057,-84.6342 847.56,-75.5806 837.612,-79.2264 842.057,-84.6342"/>
</g>
<!-- Node20&#45;&gt;Node5 -->
<g id="edge48" class="edge"><title>Node20&#45;&gt;Node5</title>
<path fill="none" stroke="midnightblue" d="M1592.14,-184.926C1648.25,-173.755 1729.86,-155.76 1739,-144 1747.73,-132.769 1746.93,-123.807 1739,-112 1707.55,-65.1616 1536.05,-29.5829 1463.95,-16.4789"/>
<polygon fill="midnightblue" stroke="midnightblue" points="1464.52,-13.0258 1454.06,-14.7099 1463.29,-19.9164 1464.52,-13.0258"/>
</g>
<!-- Node20&#45;&gt;Node7 -->
<g id="edge49" class="edge"><title>Node20&#45;&gt;Node7</title>
<path fill="none" stroke="midnightblue" d="M1516.61,-180.813C1477.62,-156.106 1397.73,-105.481 1359.01,-80.945"/>
<polygon fill="midnightblue" stroke="midnightblue" points="1360.85,-77.9699 1350.53,-75.5738 1357.1,-83.8828 1360.85,-77.9699"/>
</g>
<!-- Node20&#45;&gt;Node15 -->
<g id="edge50" class="edge"><title>Node20&#45;&gt;Node15</title>
<path fill="none" stroke="midnightblue" d="M1485.69,-181.418C1482.76,-180.886 1479.85,-180.407 1477,-180 1133.44,-130.973 1043.07,-169.865 697,-144 672.598,-142.176 645.945,-139.59 622.222,-137.078"/>
<polygon fill="midnightblue" stroke="midnightblue" points="622.566,-133.595 612.25,-136.009 621.819,-140.555 622.566,-133.595"/>
</g>
<!-- Node21&#45;&gt;Node5 -->
<g id="edge52" class="edge"><title>Node21&#45;&gt;Node5</title>
<path fill="none" stroke="midnightblue" d="M1176.03,-255.665C1195.22,-253.105 1217.07,-250.299 1237,-248 1398.06,-229.423 1443.12,-252.889 1600,-212 1604.57,-210.808 1753.41,-147.954 1756,-144 1826.49,-36.3712 1559.11,-15.8 1464.23,-11.9018"/>
<polygon fill="midnightblue" stroke="midnightblue" points="1464.18,-8.39768 1454.05,-11.5214 1463.92,-15.3928 1464.18,-8.39768"/>
</g>
<!-- Node21&#45;&gt;Node6 -->
<g id="edge54" class="edge"><title>Node21&#45;&gt;Node6</title>
<path fill="none" stroke="midnightblue" d="M1069.92,-260.043C892.685,-250.112 331.967,-218.234 325,-212 272.642,-165.147 282.314,-69.8155 289.243,-29.5799"/>
<polygon fill="midnightblue" stroke="midnightblue" points="292.716,-30.0487 291.112,-19.576 285.835,-28.7633 292.716,-30.0487"/>
</g>
<!-- Node21&#45;&gt;Node7 -->
<g id="edge53" class="edge"><title>Node21&#45;&gt;Node7</title>
<path fill="none" stroke="midnightblue" d="M1176.08,-251.752C1202.43,-244.053 1233.38,-231.588 1256,-212 1296.77,-176.696 1321.2,-115.582 1331.41,-85.2149"/>
<polygon fill="midnightblue" stroke="midnightblue" points="1334.79,-86.1145 1334.53,-75.523 1328.13,-83.9692 1334.79,-86.1145"/>
</g>
<!-- Node21&#45;&gt;Node11 -->
<g id="edge56" class="edge"><title>Node21&#45;&gt;Node11</title>
<path fill="none" stroke="midnightblue" d="M1121.28,-248.575C1116.69,-217.315 1101.04,-143.598 1053,-112 1010.45,-84.0147 952.699,-73.3239 911.102,-69.2975"/>
<polygon fill="midnightblue" stroke="midnightblue" points="911.159,-65.7894 900.893,-68.411 910.553,-72.7631 911.159,-65.7894"/>
</g>
<!-- Node21&#45;&gt;Node14 -->
<g id="edge55" class="edge"><title>Node21&#45;&gt;Node14</title>
<path fill="none" stroke="midnightblue" d="M1104.77,-248.679C1091.03,-237.879 1072.22,-223.098 1058.23,-212.11"/>
<polygon fill="midnightblue" stroke="midnightblue" points="1060.26,-209.254 1050.24,-205.828 1055.94,-214.759 1060.26,-209.254"/>
</g>
<!-- Node21&#45;&gt;Node15 -->
<g id="edge57" class="edge"><title>Node21&#45;&gt;Node15</title>
<path fill="none" stroke="midnightblue" d="M1069.67,-252.951C1018.94,-243.195 940.544,-227.611 873,-212 771.739,-188.596 653.638,-156.918 592.822,-140.279"/>
<polygon fill="midnightblue" stroke="midnightblue" points="593.426,-136.816 582.857,-137.547 591.575,-143.567 593.426,-136.816"/>
</g>
<!-- Node22&#45;&gt;Node5 -->
<g id="edge59" class="edge"><title>Node22&#45;&gt;Node5</title>
<path fill="none" stroke="midnightblue" d="M1408.92,-180.867C1413.38,-148.074 1424.42,-66.7976 1429.44,-29.8364"/>
<polygon fill="midnightblue" stroke="midnightblue" points="1432.91,-30.2714 1430.79,-19.8912 1425.98,-29.3289 1432.91,-30.2714"/>
</g>
<!-- Node22&#45;&gt;Node7 -->
<g id="edge60" class="edge"><title>Node22&#45;&gt;Node7</title>
<path fill="none" stroke="midnightblue" d="M1401.72,-180.747C1395.22,-163.844 1383.39,-135.058 1370,-112 1364.28,-102.156 1356.86,-91.868 1350.51,-83.618"/>
<polygon fill="midnightblue" stroke="midnightblue" points="1353.1,-81.2594 1344.16,-75.583 1347.61,-85.5992 1353.1,-81.2594"/>
</g>
<!-- Node22&#45;&gt;Node15 -->
<g id="edge61" class="edge"><title>Node22&#45;&gt;Node15</title>
<path fill="none" stroke="midnightblue" d="M1345.69,-191.246C1222.62,-183.567 936.756,-165.007 697,-144 672.624,-141.864 645.977,-139.202 622.252,-136.716"/>
<polygon fill="midnightblue" stroke="midnightblue" points="622.59,-133.232 612.278,-135.663 621.855,-140.193 622.59,-133.232"/>
</g>
<!-- Node23&#45;&gt;Node5 -->
<g id="edge66" class="edge"><title>Node23&#45;&gt;Node5</title>
<path fill="none" stroke="midnightblue" d="M1361.95,-259.197C1484.53,-249.711 1762.69,-220.053 1810,-144 1830.66,-110.79 1835.97,-85.2447 1810,-56 1787.17,-30.2946 1551.74,-16.6474 1464.39,-12.4383"/>
<polygon fill="midnightblue" stroke="midnightblue" points="1464.41,-8.93555 1454.26,-11.9607 1464.08,-15.9278 1464.41,-8.93555"/>
</g>
<!-- Node23&#45;&gt;Node7 -->
<g id="edge67" class="edge"><title>Node23&#45;&gt;Node7</title>
<path fill="none" stroke="midnightblue" d="M1306.53,-254.435C1312.17,-235 1325.74,-185.984 1332,-144 1334.93,-124.361 1336.14,-101.652 1336.64,-86.0104"/>
<polygon fill="midnightblue" stroke="midnightblue" points="1340.15,-85.6802 1336.91,-75.5951 1333.16,-85.5036 1340.15,-85.6802"/>
</g>
<!-- Node23&#45;&gt;Node13 -->
<g id="edge70" class="edge"><title>Node23&#45;&gt;Node13</title>
<path fill="none" stroke="midnightblue" d="M1361.69,-261.553C1439.04,-258.255 1570.14,-247.444 1600,-212 1609.16,-201.123 1604.84,-193.373 1600,-180 1592.91,-160.417 1582.94,-160.323 1570,-144 1553.84,-123.606 1535.91,-99.5806 1524.33,-83.8582"/>
<polygon fill="midnightblue" stroke="midnightblue" points="1527.04,-81.6395 1518.3,-75.6507 1521.4,-85.7826 1527.04,-81.6395"/>
</g>
<!-- Node23&#45;&gt;Node14 -->
<g id="edge68" class="edge"><title>Node23&#45;&gt;Node14</title>
<path fill="none" stroke="midnightblue" d="M1269.63,-254.439C1221.97,-242.57 1135.78,-221.103 1083.33,-208.041"/>
<polygon fill="midnightblue" stroke="midnightblue" points="1083.86,-204.566 1073.31,-205.546 1082.17,-211.359 1083.86,-204.566"/>
</g>
<!-- Node23&#45;&gt;Node15 -->
<g id="edge69" class="edge"><title>Node23&#45;&gt;Node15</title>
<path fill="none" stroke="midnightblue" d="M1246.3,-255.145C1180.29,-245.913 1069.05,-229.605 974,-212 907.828,-199.744 891.976,-193.27 826,-180 751.646,-165.045 665.624,-149.284 610.096,-139.311"/>
<polygon fill="midnightblue" stroke="midnightblue" points="610.553,-135.837 600.092,-137.517 609.318,-142.727 610.553,-135.837"/>
</g>
<!-- Node24&#45;&gt;Node5 -->
<g id="edge72" class="edge"><title>Node24&#45;&gt;Node5</title>
<path fill="none" stroke="midnightblue" d="M1654.86,-112.984C1636.06,-97.2619 1603.55,-71.8888 1572,-56 1536.87,-38.3051 1493.31,-25.6092 1464.2,-18.3047"/>
<polygon fill="midnightblue" stroke="midnightblue" points="1464.71,-14.8275 1454.17,-15.8582 1463.05,-21.6282 1464.71,-14.8275"/>
</g>
<!-- Node24&#45;&gt;Node7 -->
<g id="edge73" class="edge"><title>Node24&#45;&gt;Node7</title>
<path fill="none" stroke="midnightblue" d="M1611.67,-116.342C1542.49,-103.915 1430.35,-83.7687 1373.11,-73.4865"/>
<polygon fill="midnightblue" stroke="midnightblue" points="1373.54,-70.0088 1363.08,-71.6854 1372.31,-76.8985 1373.54,-70.0088"/>
</g>
<!-- Node24&#45;&gt;Node13 -->
<g id="edge74" class="edge"><title>Node24&#45;&gt;Node13</title>
<path fill="none" stroke="midnightblue" d="M1633.72,-112.933C1606.54,-102.674 1570.07,-88.9148 1544.16,-79.1369"/>
<polygon fill="midnightblue" stroke="midnightblue" points="1545.38,-75.8561 1534.79,-75.6 1542.91,-82.4053 1545.38,-75.8561"/>
</g>
<!-- Node25&#45;&gt;Node2 -->
<g id="edge76" class="edge"><title>Node25&#45;&gt;Node2</title>
<path fill="none" stroke="midnightblue" d="M367.198,-186.235C368.293,-160.985 375.269,-87.8622 419,-56 455.121,-29.6826 584.556,-17.6723 649.409,-13.2064"/>
<polygon fill="midnightblue" stroke="midnightblue" points="649.866,-16.6839 659.612,-12.5296 649.402,-9.69927 649.866,-16.6839"/>
</g>
<!-- Node25&#45;&gt;Node5 -->
<g id="edge78" class="edge"><title>Node25&#45;&gt;Node5</title>
<path fill="none" stroke="midnightblue" d="M376.424,-186.258C395.208,-169.313 439.283,-131.917 483,-112 580.706,-67.4852 611.812,-71.8792 718,-56 979.04,-16.9645 1298.7,-11.7278 1399.78,-11.0751"/>
<polygon fill="midnightblue" stroke="midnightblue" points="1399.96,-14.5743 1409.95,-11.0206 1399.93,-7.57439 1399.96,-14.5743"/>
</g>
<!-- Node25&#45;&gt;Node6 -->
<g id="edge77" class="edge"><title>Node25&#45;&gt;Node6</title>
<path fill="none" stroke="midnightblue" d="M360.855,-186.32C354.07,-176.44 343.161,-159.638 336,-144 318.045,-104.792 304.298,-55.931 297.568,-29.7105"/>
<polygon fill="midnightblue" stroke="midnightblue" points="300.876,-28.5116 295.05,-19.662 294.086,-30.2129 300.876,-28.5116"/>
</g>
<!-- Node25&#45;&gt;Node7 -->
<g id="edge80" class="edge"><title>Node25&#45;&gt;Node7</title>
<path fill="none" stroke="midnightblue" d="M400.26,-190.413C449.121,-183.2 542.864,-167.556 620,-144 655.444,-133.176 660.933,-120.522 697,-112 813.025,-84.5847 1182.52,-71.5534 1300.45,-68.0199"/>
<polygon fill="midnightblue" stroke="midnightblue" points="1300.85,-71.5097 1310.74,-67.7166 1300.65,-64.5127 1300.85,-71.5097"/>
</g>
<!-- Node25&#45;&gt;Node9 -->
<g id="edge79" class="edge"><title>Node25&#45;&gt;Node9</title>
<path fill="none" stroke="midnightblue" d="M371.308,-186.027C378.87,-170.528 395.321,-137.912 412,-112 418.294,-102.223 426.064,-91.8334 432.587,-83.5037"/>
<polygon fill="midnightblue" stroke="midnightblue" points="435.326,-85.683 438.82,-75.6807 429.851,-81.3214 435.326,-85.683"/>
</g>
<!-- Node25&#45;&gt;Node15 -->
<g id="edge81" class="edge"><title>Node25&#45;&gt;Node15</title>
<path fill="none" stroke="midnightblue" d="M391.186,-186.372C423.683,-174.778 481.599,-154.116 518.339,-141.009"/>
<polygon fill="midnightblue" stroke="midnightblue" points="519.859,-144.183 528.102,-137.526 517.507,-137.59 519.859,-144.183"/>
</g>
</g>
</svg>
