<?xml version="1.0" encoding="UTF-8" standalone="no"?>
<!DOCTYPE svg PUBLIC "-//W3C//DTD SVG 1.1//EN"
 "http://www.w3.org/Graphics/SVG/1.1/DTD/svg11.dtd">
<!-- Generated by graphviz version 2.26.3 (20100126.1600)
 -->
<!-- Title: G Pages: 1 -->
<svg width="640pt" height="276pt"
 viewBox="0.00 0.00 640.00 276.00" xmlns="http://www.w3.org/2000/svg" xmlns:xlink="http://www.w3.org/1999/xlink">
<g id="graph1" class="graph" transform="scale(1 1) rotate(0) translate(4 272)">
<title>G</title>
<polygon fill="white" stroke="white" points="-4,5 -4,-272 637,-272 637,5 -4,5"/>
<!-- Node1 -->
<g id="node1" class="node"><title>Node1</title>
<polygon fill="#bfbfbf" stroke="black" points="290,-178.5 290,-267.5 358,-267.5 358,-178.5 290,-178.5"/>
<text text-anchor="middle" x="324" y="-254.5" font-family="Helvetica,sans-Serif" font-size="10.00">Strategy</text>
<polyline fill="none" stroke="black" points="290,-246.5 358,-246.5 "/>
<text text-anchor="middle" x="324" y="-233.5" font-family="Helvetica,sans-Serif" font-size="10.00"> </text>
<polyline fill="none" stroke="black" points="290,-225.5 358,-225.5 "/>
<text text-anchor="start" x="298" y="-212.5" font-family="Helvetica,sans-Serif" font-size="10.00">+ Strategy()</text>
<text text-anchor="start" x="298" y="-199.5" font-family="Helvetica,sans-Serif" font-size="10.00">+ to_str()</text>
<text text-anchor="start" x="298" y="-186.5" font-family="Helvetica,sans-Serif" font-size="10.00">+ execute()</text>
</g>
<!-- Node2 -->
<g id="node3" class="node"><title>Node2</title>
<a xlink:href="../../d9/db9/classAddAll.xhtml" target="_top" xlink:title="{AddAll\n||+ AddAll()\l+ to_str()\l+ execute()\l}">
<polygon fill="white" stroke="black" points="0,-26.5 0,-115.5 66,-115.5 66,-26.5 0,-26.5"/>
<text text-anchor="middle" x="33" y="-102.5" font-family="Helvetica,sans-Serif" font-size="10.00">AddAll</text>
<polyline fill="none" stroke="black" points="0,-94.5 66,-94.5 "/>
<text text-anchor="middle" x="33" y="-81.5" font-family="Helvetica,sans-Serif" font-size="10.00"> </text>
<polyline fill="none" stroke="black" points="0,-73.5 66,-73.5 "/>
<text text-anchor="start" x="8" y="-60.5" font-family="Helvetica,sans-Serif" font-size="10.00">+ AddAll()</text>
<text text-anchor="start" x="8" y="-47.5" font-family="Helvetica,sans-Serif" font-size="10.00">+ to_str()</text>
<text text-anchor="start" x="8" y="-34.5" font-family="Helvetica,sans-Serif" font-size="10.00">+ execute()</text>
</a>
</g>
<!-- Node1&#45;&gt;Node2 -->
<g id="edge2" class="edge"><title>Node1&#45;&gt;Node2</title>
<path fill="none" stroke="midnightblue" d="M279.586,-218.166C225.984,-210.334 135.528,-190.504 75,-142 66.171,-134.925 58.7915,-125.455 52.8076,-115.742"/>
<polygon fill="none" stroke="midnightblue" points="279.41,-221.675 289.795,-219.577 280.369,-214.741 279.41,-221.675"/>
</g>
<!-- Node3 -->
<g id="node5" class="node"><title>Node3</title>
<a xlink:href="../../da/d9e/classAmpSumStrategy.xhtml" target="_top" xlink:title="{AmpSumStrategy\n|# _amplitude\l|+ AmpSumStrategy()\l+ to_str()\l+ execute()\l}">
<polygon fill="white" stroke="black" points="83.5,-26.5 83.5,-115.5 192.5,-115.5 192.5,-26.5 83.5,-26.5"/>
<text text-anchor="middle" x="138" y="-102.5" font-family="Helvetica,sans-Serif" font-size="10.00">AmpSumStrategy</text>
<polyline fill="none" stroke="black" points="83.5,-94.5 192.5,-94.5 "/>
<text text-anchor="start" x="91.5" y="-81.5" font-family="Helvetica,sans-Serif" font-size="10.00"># _amplitude</text>
<polyline fill="none" stroke="black" points="83.5,-73.5 192.5,-73.5 "/>
<text text-anchor="start" x="91.5" y="-60.5" font-family="Helvetica,sans-Serif" font-size="10.00">+ AmpSumStrategy()</text>
<text text-anchor="start" x="91.5" y="-47.5" font-family="Helvetica,sans-Serif" font-size="10.00">+ to_str()</text>
<text text-anchor="start" x="91.5" y="-34.5" font-family="Helvetica,sans-Serif" font-size="10.00">+ execute()</text>
</a>
</g>
<!-- Node1&#45;&gt;Node3 -->
<g id="edge4" class="edge"><title>Node1&#45;&gt;Node3</title>
<path fill="none" stroke="midnightblue" d="M281.199,-198.656C256.611,-183.754 225.789,-163.466 201,-142 191.781,-134.017 182.628,-124.717 174.273,-115.527"/>
<polygon fill="none" stroke="midnightblue" points="279.575,-201.763 289.954,-203.894 283.17,-195.756 279.575,-201.763"/>
</g>
<!-- Node4 -->
<g id="node7" class="node"><title>Node4</title>
<a xlink:href="../../de/d2e/classBreitWignerStrategy.xhtml" target="_top" xlink:title="{BreitWignerStrategy\n|# name\l|+ BreitWignerStrategy()\l+ to_str()\l+ execute()\l# q0()\l# q()\l# F()\l# BLprime2()\l}">
<polygon fill="white" stroke="black" points="209.5,-0.5 209.5,-141.5 328.5,-141.5 328.5,-0.5 209.5,-0.5"/>
<text text-anchor="middle" x="269" y="-128.5" font-family="Helvetica,sans-Serif" font-size="10.00">BreitWignerStrategy</text>
<polyline fill="none" stroke="black" points="209.5,-120.5 328.5,-120.5 "/>
<text text-anchor="start" x="217.5" y="-107.5" font-family="Helvetica,sans-Serif" font-size="10.00"># name</text>
<polyline fill="none" stroke="black" points="209.5,-99.5 328.5,-99.5 "/>
<text text-anchor="start" x="217.5" y="-86.5" font-family="Helvetica,sans-Serif" font-size="10.00">+ BreitWignerStrategy()</text>
<text text-anchor="start" x="217.5" y="-73.5" font-family="Helvetica,sans-Serif" font-size="10.00">+ to_str()</text>
<text text-anchor="start" x="217.5" y="-60.5" font-family="Helvetica,sans-Serif" font-size="10.00">+ execute()</text>
<text text-anchor="start" x="217.5" y="-47.5" font-family="Helvetica,sans-Serif" font-size="10.00"># q0()</text>
<text text-anchor="start" x="217.5" y="-34.5" font-family="Helvetica,sans-Serif" font-size="10.00"># q()</text>
<text text-anchor="start" x="217.5" y="-21.5" font-family="Helvetica,sans-Serif" font-size="10.00"># F()</text>
<text text-anchor="start" x="217.5" y="-8.5" font-family="Helvetica,sans-Serif" font-size="10.00"># BLprime2()</text>
</a>
</g>
<!-- Node1&#45;&gt;Node4 -->
<g id="edge6" class="edge"><title>Node1&#45;&gt;Node4</title>
<path fill="none" stroke="midnightblue" d="M304.307,-168.576C301.152,-159.858 297.848,-150.726 294.58,-141.695"/>
<polygon fill="none" stroke="midnightblue" points="301.102,-170.005 307.796,-178.217 307.684,-167.623 301.102,-170.005"/>
</g>
<!-- Node5 -->
<g id="node9" class="node"><title>Node5</title>
<a xlink:href="../../dc/dfa/classMultAll.xhtml" target="_top" xlink:title="{MultAll\n||+ MultAll()\l+ to_str()\l+ execute()\l}">
<polygon fill="white" stroke="black" points="346,-26.5 346,-115.5 412,-115.5 412,-26.5 346,-26.5"/>
<text text-anchor="middle" x="379" y="-102.5" font-family="Helvetica,sans-Serif" font-size="10.00">MultAll</text>
<polyline fill="none" stroke="black" points="346,-94.5 412,-94.5 "/>
<text text-anchor="middle" x="379" y="-81.5" font-family="Helvetica,sans-Serif" font-size="10.00"> </text>
<polyline fill="none" stroke="black" points="346,-73.5 412,-73.5 "/>
<text text-anchor="start" x="354" y="-60.5" font-family="Helvetica,sans-Serif" font-size="10.00">+ MultAll()</text>
<text text-anchor="start" x="354" y="-47.5" font-family="Helvetica,sans-Serif" font-size="10.00">+ to_str()</text>
<text text-anchor="start" x="354" y="-34.5" font-family="Helvetica,sans-Serif" font-size="10.00">+ execute()</text>
</a>
</g>
<!-- Node1&#45;&gt;Node5 -->
<g id="edge8" class="edge"><title>Node1&#45;&gt;Node5</title>
<path fill="none" stroke="midnightblue" d="M343.627,-168.759C349.915,-151.38 356.803,-132.344 362.817,-115.725"/>
<polygon fill="none" stroke="midnightblue" points="340.316,-167.623 340.204,-178.217 346.898,-170.005 340.316,-167.623"/>
</g>
<!-- Node6 -->
<g id="node11" class="node"><title>Node6</title>
<a xlink:href="../../da/d64/classPowerTwo.xhtml" target="_top" xlink:title="{PowerTwo\n||+ PowerTwo()\l+ to_str()\l+ execute()\l}">
<polygon fill="white" stroke="black" points="430,-26.5 430,-115.5 508,-115.5 508,-26.5 430,-26.5"/>
<text text-anchor="middle" x="469" y="-102.5" font-family="Helvetica,sans-Serif" font-size="10.00">PowerTwo</text>
<polyline fill="none" stroke="black" points="430,-94.5 508,-94.5 "/>
<text text-anchor="middle" x="469" y="-81.5" font-family="Helvetica,sans-Serif" font-size="10.00"> </text>
<polyline fill="none" stroke="black" points="430,-73.5 508,-73.5 "/>
<text text-anchor="start" x="438" y="-60.5" font-family="Helvetica,sans-Serif" font-size="10.00">+ PowerTwo()</text>
<text text-anchor="start" x="438" y="-47.5" font-family="Helvetica,sans-Serif" font-size="10.00">+ to_str()</text>
<text text-anchor="start" x="438" y="-34.5" font-family="Helvetica,sans-Serif" font-size="10.00">+ execute()</text>
</a>
</g>
<!-- Node1&#45;&gt;Node6 -->
<g id="edge10" class="edge"><title>Node1&#45;&gt;Node6</title>
<path fill="none" stroke="midnightblue" d="M366.392,-191.87C384.269,-177.698 404.674,-160.07 421,-142 428.282,-133.941 435.314,-124.704 441.646,-115.618"/>
<polygon fill="none" stroke="midnightblue" points="364.107,-189.214 358.38,-198.128 368.415,-194.731 364.107,-189.214"/>
</g>
<!-- Node7 -->
<g id="node13" class="node"><title>Node7</title>
<a xlink:href="../../d8/d77/classWignerDStrategy.xhtml" target="_top" xlink:title="{WignerDStrategy\n|# name\l|+ WignerDStrategy()\l+ to_str()\l+ execute()\l}">
<polygon fill="white" stroke="black" points="525.5,-26.5 525.5,-115.5 632.5,-115.5 632.5,-26.5 525.5,-26.5"/>
<text text-anchor="middle" x="579" y="-102.5" font-family="Helvetica,sans-Serif" font-size="10.00">WignerDStrategy</text>
<polyline fill="none" stroke="black" points="525.5,-94.5 632.5,-94.5 "/>
<text text-anchor="start" x="533.5" y="-81.5" font-family="Helvetica,sans-Serif" font-size="10.00"># name</text>
<polyline fill="none" stroke="black" points="525.5,-73.5 632.5,-73.5 "/>
<text text-anchor="start" x="533.5" y="-60.5" font-family="Helvetica,sans-Serif" font-size="10.00">+ WignerDStrategy()</text>
<text text-anchor="start" x="533.5" y="-47.5" font-family="Helvetica,sans-Serif" font-size="10.00">+ to_str()</text>
<text text-anchor="start" x="533.5" y="-34.5" font-family="Helvetica,sans-Serif" font-size="10.00">+ execute()</text>
</a>
</g>
<!-- Node1&#45;&gt;Node7 -->
<g id="edge12" class="edge"><title>Node1&#45;&gt;Node7</title>
<path fill="none" stroke="midnightblue" d="M367.835,-210.908C408.955,-198.169 470.86,-175.301 517,-142 527.218,-134.626 536.898,-125.264 545.439,-115.778"/>
<polygon fill="none" stroke="midnightblue" points="366.664,-207.605 358.107,-213.852 368.693,-214.305 366.664,-207.605"/>
</g>
</g>
</svg>
