<?xml version="1.0" encoding="UTF-8" standalone="no"?>
<!DOCTYPE svg PUBLIC "-//W3C//DTD SVG 1.1//EN"
 "http://www.w3.org/Graphics/SVG/1.1/DTD/svg11.dtd">
<!-- Generated by graphviz version 2.36.0 (20140111.2315)
 -->
<!-- Title: /home/travis/build/ComPWA/ComPWA/Estimator/SliceFit/SliceFit.hpp Pages: 1 -->
<svg width="353pt" height="128pt"
 viewBox="0.00 0.00 353.00 128.00" xmlns="http://www.w3.org/2000/svg" xmlns:xlink="http://www.w3.org/1999/xlink">
<g id="graph0" class="graph" transform="scale(1 1) rotate(0) translate(4 124)">
<title>/home/travis/build/ComPWA/ComPWA/Estimator/SliceFit/SliceFit.hpp</title>
<polygon fill="white" stroke="none" points="-4,4 -4,-124 349,-124 349,4 -4,4"/>
<!-- Node1 -->
<g id="node1" class="node"><title>Node1</title>
<polygon fill="#bfbfbf" stroke="black" points="91,-78.5 91,-119.5 247,-119.5 247,-78.5 91,-78.5"/>
<text text-anchor="start" x="99" y="-107.5" font-family="Helvetica,sans-Serif" font-size="10.00">/home/travis/build</text>
<text text-anchor="start" x="99" y="-96.5" font-family="Helvetica,sans-Serif" font-size="10.00">/ComPWA/ComPWA/Estimator</text>
<text text-anchor="middle" x="169" y="-85.5" font-family="Helvetica,sans-Serif" font-size="10.00">/SliceFit/SliceFit.hpp</text>
</g>
<!-- Node2 -->
<g id="node2" class="node"><title>Node2</title>
<g id="a_node2"><a xlink:href="../../d2/d9b/SliceFit_8cpp.html" target="_top" xlink:title="/home/travis/build\l/ComPWA/ComPWA/Estimator\l/SliceFit/SliceFit.cpp">
<polygon fill="white" stroke="black" points="0,-0.5 0,-41.5 156,-41.5 156,-0.5 0,-0.5"/>
<text text-anchor="start" x="8" y="-29.5" font-family="Helvetica,sans-Serif" font-size="10.00">/home/travis/build</text>
<text text-anchor="start" x="8" y="-18.5" font-family="Helvetica,sans-Serif" font-size="10.00">/ComPWA/ComPWA/Estimator</text>
<text text-anchor="middle" x="78" y="-7.5" font-family="Helvetica,sans-Serif" font-size="10.00">/SliceFit/SliceFit.cpp</text>
</a>
</g>
</g>
<!-- Node1&#45;&gt;Node2 -->
<g id="edge1" class="edge"><title>Node1&#45;&gt;Node2</title>
<path fill="none" stroke="midnightblue" d="M137.603,-71.7785C125.707,-61.8432 112.384,-50.7159 101.355,-41.5056"/>
<polygon fill="midnightblue" stroke="midnightblue" points="135.646,-74.7043 145.565,-78.4281 140.133,-69.3316 135.646,-74.7043"/>
</g>
<!-- Node3 -->
<g id="node3" class="node"><title>Node3</title>
<g id="a_node3"><a xlink:href="../../d6/d9a/SliceFitApp_8cpp.html" target="_top" xlink:title="/home/travis/build\l/ComPWA/ComPWA/executables\l/Examples/SliceFit/SliceFitApp.cpp">
<polygon fill="white" stroke="black" points="174.5,-0.5 174.5,-41.5 345.5,-41.5 345.5,-0.5 174.5,-0.5"/>
<text text-anchor="start" x="182.5" y="-29.5" font-family="Helvetica,sans-Serif" font-size="10.00">/home/travis/build</text>
<text text-anchor="start" x="182.5" y="-18.5" font-family="Helvetica,sans-Serif" font-size="10.00">/ComPWA/ComPWA/executables</text>
<text text-anchor="middle" x="260" y="-7.5" font-family="Helvetica,sans-Serif" font-size="10.00">/Examples/SliceFit/SliceFitApp.cpp</text>
</a>
</g>
</g>
<!-- Node1&#45;&gt;Node3 -->
<g id="edge2" class="edge"><title>Node1&#45;&gt;Node3</title>
<path fill="none" stroke="midnightblue" d="M200.397,-71.7785C212.293,-61.8432 225.616,-50.7159 236.645,-41.5056"/>
<polygon fill="midnightblue" stroke="midnightblue" points="197.867,-69.3316 192.435,-78.4281 202.354,-74.7043 197.867,-69.3316"/>
</g>
</g>
</svg>
