<?xml version="1.0" encoding="UTF-8" standalone="no"?>
<!DOCTYPE svg PUBLIC "-//W3C//DTD SVG 1.1//EN"
 "http://www.w3.org/Graphics/SVG/1.1/DTD/svg11.dtd">
<!-- Generated by graphviz version 2.26.3 (20100126.1600)
 -->
<!-- Title: G Pages: 1 -->
<svg width="336pt" height="204pt"
 viewBox="0.00 0.00 336.00 204.00" xmlns="http://www.w3.org/2000/svg" xmlns:xlink="http://www.w3.org/1999/xlink">
<g id="graph1" class="graph" transform="scale(1 1) rotate(0) translate(4 200)">
<title>G</title>
<polygon fill="white" stroke="white" points="-4,5 -4,-200 333,-200 333,5 -4,5"/>
<!-- Node1 -->
<g id="node1" class="node"><title>Node1</title>
<polygon fill="#bfbfbf" stroke="black" points="11.5,-174.5 11.5,-195.5 202.5,-195.5 202.5,-174.5 11.5,-174.5"/>
<text text-anchor="middle" x="107" y="-182.5" font-family="Helvetica,sans-Serif" font-size="10.00">Physics/AmplitudeSum/AmpWigner.hpp</text>
</g>
<!-- Node2 -->
<g id="node3" class="node"><title>Node2</title>
<polygon fill="white" stroke="#bfbfbf" points="35,-116.5 35,-137.5 79,-137.5 79,-116.5 35,-116.5"/>
<text text-anchor="middle" x="57" y="-124.5" font-family="Helvetica,sans-Serif" font-size="10.00">vector</text>
</g>
<!-- Node1&#45;&gt;Node2 -->
<g id="edge2" class="edge"><title>Node1&#45;&gt;Node2</title>
<path fill="none" stroke="midnightblue" d="M97.8292,-174.362C90.8516,-166.268 81.0792,-154.932 72.8445,-145.38"/>
<polygon fill="midnightblue" stroke="midnightblue" points="75.293,-142.859 66.1126,-137.571 69.9911,-147.43 75.293,-142.859"/>
</g>
<!-- Node3 -->
<g id="node5" class="node"><title>Node3</title>
<a xlink:href="../../d1/d72/DPKinematics_8hpp.xhtml" target="_top" xlink:title="DPKinematics stores kinematic information of a dalitz plot.">
<polygon fill="white" stroke="black" points="-0.5,-58.5 -0.5,-79.5 202.5,-79.5 202.5,-58.5 -0.5,-58.5"/>
<text text-anchor="middle" x="101" y="-66.5" font-family="Helvetica,sans-Serif" font-size="10.00">Physics/DPKinematics/DPKinematics.hpp</text>
</a>
</g>
<!-- Node1&#45;&gt;Node3 -->
<g id="edge4" class="edge"><title>Node1&#45;&gt;Node3</title>
<path fill="none" stroke="midnightblue" d="M106.446,-174.295C105.455,-155.131 103.361,-114.654 102.078,-89.8434"/>
<polygon fill="midnightblue" stroke="midnightblue" points="105.564,-89.485 101.552,-79.6792 98.5737,-89.8467 105.564,-89.485"/>
</g>
<!-- Node5 -->
<g id="node9" class="node"><title>Node5</title>
<a xlink:href="../../d8/dd4/DataPoint_8hpp.xhtml" target="_top" xlink:title="dataPoint stores kinematic information of a dalitz plot">
<polygon fill="white" stroke="black" points="145.5,-116.5 145.5,-137.5 328.5,-137.5 328.5,-116.5 145.5,-116.5"/>
<text text-anchor="middle" x="237" y="-124.5" font-family="Helvetica,sans-Serif" font-size="10.00">Physics/DPKinematics/DataPoint.hpp</text>
</a>
</g>
<!-- Node1&#45;&gt;Node5 -->
<g id="edge8" class="edge"><title>Node1&#45;&gt;Node5</title>
<path fill="none" stroke="midnightblue" d="M130.542,-174.497C151.029,-165.356 180.947,-152.008 203.854,-141.788"/>
<polygon fill="midnightblue" stroke="midnightblue" points="205.488,-144.892 213.194,-137.621 202.635,-138.499 205.488,-144.892"/>
</g>
<!-- Node4 -->
<g id="node7" class="node"><title>Node4</title>
<polygon fill="white" stroke="#bfbfbf" points="74,-0.5 74,-21.5 128,-21.5 128,-0.5 74,-0.5"/>
<text text-anchor="middle" x="101" y="-8.5" font-family="Helvetica,sans-Serif" font-size="10.00">iostream</text>
</g>
<!-- Node3&#45;&gt;Node4 -->
<g id="edge6" class="edge"><title>Node3&#45;&gt;Node4</title>
<path fill="none" stroke="midnightblue" d="M101,-58.3619C101,-50.9219 101,-40.7427 101,-31.7276"/>
<polygon fill="midnightblue" stroke="midnightblue" points="104.5,-31.5706 101,-21.5707 97.5001,-31.5707 104.5,-31.5706"/>
</g>
<!-- Node5&#45;&gt;Node3 -->
<g id="edge14" class="edge"><title>Node5&#45;&gt;Node3</title>
<path fill="none" stroke="midnightblue" d="M212.371,-116.497C190.843,-107.315 159.36,-93.8889 135.355,-83.6516"/>
<polygon fill="midnightblue" stroke="midnightblue" points="136.476,-80.3247 125.905,-79.6212 133.73,-86.7636 136.476,-80.3247"/>
</g>
<!-- Node6 -->
<g id="node11" class="node"><title>Node6</title>
<polygon fill="white" stroke="#bfbfbf" points="219.5,-58.5 219.5,-79.5 264.5,-79.5 264.5,-58.5 219.5,-58.5"/>
<text text-anchor="middle" x="242" y="-66.5" font-family="Helvetica,sans-Serif" font-size="10.00">cstdlib</text>
</g>
<!-- Node5&#45;&gt;Node6 -->
<g id="edge10" class="edge"><title>Node5&#45;&gt;Node6</title>
<path fill="none" stroke="midnightblue" d="M237.917,-116.362C238.558,-108.922 239.436,-98.7427 240.213,-89.7276"/>
<polygon fill="midnightblue" stroke="midnightblue" points="243.717,-89.8343 241.089,-79.5707 236.743,-89.2331 243.717,-89.8343"/>
</g>
<!-- Node7 -->
<g id="node13" class="node"><title>Node7</title>
<polygon fill="white" stroke="#bfbfbf" points="281.5,-58.5 281.5,-79.5 328.5,-79.5 328.5,-58.5 281.5,-58.5"/>
<text text-anchor="middle" x="305" y="-66.5" font-family="Helvetica,sans-Serif" font-size="10.00">math.h</text>
</g>
<!-- Node5&#45;&gt;Node7 -->
<g id="edge12" class="edge"><title>Node5&#45;&gt;Node7</title>
<path fill="none" stroke="midnightblue" d="M249.472,-116.362C259.345,-107.941 273.333,-96.0105 284.798,-86.2308"/>
<polygon fill="midnightblue" stroke="midnightblue" points="287.27,-88.7231 292.607,-79.5707 282.727,-83.3972 287.27,-88.7231"/>
</g>
</g>
</svg>
