<?xml version="1.0" encoding="UTF-8" standalone="no"?>
<!DOCTYPE svg PUBLIC "-//W3C//DTD SVG 1.1//EN"
 "http://www.w3.org/Graphics/SVG/1.1/DTD/svg11.dtd">
<!-- Generated by graphviz version 2.36.0 (20140111.2315)
 -->
<!-- Title: /home/travis/build/ComPWA/ComPWA/DataReader/CorrectionTable.cpp Pages: 1 -->
<svg width="1543pt" height="354pt"
 viewBox="0.00 0.00 1542.95 354.00" xmlns="http://www.w3.org/2000/svg" xmlns:xlink="http://www.w3.org/1999/xlink">
<g id="graph0" class="graph" transform="scale(1 1) rotate(0) translate(4 350)">
<title>/home/travis/build/ComPWA/ComPWA/DataReader/CorrectionTable.cpp</title>
<polygon fill="white" stroke="none" points="-4,4 -4,-350 1538.95,-350 1538.95,4 -4,4"/>
<!-- Node1 -->
<g id="node1" class="node"><title>Node1</title>
<polygon fill="#bfbfbf" stroke="black" points="104.5,-304.5 104.5,-345.5 271.5,-345.5 271.5,-304.5 104.5,-304.5"/>
<text text-anchor="start" x="112.5" y="-333.5" font-family="Helvetica,sans-Serif" font-size="10.00">/home/travis/build</text>
<text text-anchor="start" x="112.5" y="-322.5" font-family="Helvetica,sans-Serif" font-size="10.00">/ComPWA/ComPWA/DataReader</text>
<text text-anchor="middle" x="188" y="-311.5" font-family="Helvetica,sans-Serif" font-size="10.00">/CorrectionTable.cpp</text>
</g>
<!-- Node2 -->
<g id="node2" class="node"><title>Node2</title>
<polygon fill="white" stroke="#bfbfbf" points="872.5,-6.5 872.5,-25.5 913.5,-25.5 913.5,-6.5 872.5,-6.5"/>
<text text-anchor="middle" x="893" y="-13.5" font-family="Helvetica,sans-Serif" font-size="10.00">string</text>
</g>
<!-- Node1&#45;&gt;Node2 -->
<g id="edge1" class="edge"><title>Node1&#45;&gt;Node2</title>
<path fill="none" stroke="midnightblue" d="M188,-304.299C188,-280.352 188,-238.712 188,-203 188,-203 188,-203 188,-139 188,-45.5134 294.813,-88.6094 386,-68 477.707,-47.2731 766.653,-25.8058 862.078,-19.1168"/>
<polygon fill="midnightblue" stroke="midnightblue" points="862.494,-22.5965 872.226,-18.4102 862.007,-15.6134 862.494,-22.5965"/>
</g>
<!-- Node3 -->
<g id="node3" class="node"><title>Node3</title>
<polygon fill="white" stroke="#bfbfbf" points="108,-248.5 108,-267.5 160,-267.5 160,-248.5 108,-248.5"/>
<text text-anchor="middle" x="134" y="-255.5" font-family="Helvetica,sans-Serif" font-size="10.00">ostream</text>
</g>
<!-- Node1&#45;&gt;Node3 -->
<g id="edge2" class="edge"><title>Node1&#45;&gt;Node3</title>
<path fill="none" stroke="midnightblue" d="M171.798,-304.498C164.076,-295.203 154.943,-284.21 147.59,-275.358"/>
<polygon fill="midnightblue" stroke="midnightblue" points="150.271,-273.108 141.188,-267.652 144.886,-277.581 150.271,-273.108"/>
</g>
<!-- Node4 -->
<g id="node4" class="node"><title>Node4</title>
<g id="a_node4"><a xlink:href="../../da/db4/Logging_8hpp.html" target="_top" xlink:title="Core/Logging.hpp">
<polygon fill="white" stroke="black" points="66.5,-68.5 66.5,-87.5 159.5,-87.5 159.5,-68.5 66.5,-68.5"/>
<text text-anchor="middle" x="113" y="-75.5" font-family="Helvetica,sans-Serif" font-size="10.00">Core/Logging.hpp</text>
</a>
</g>
</g>
<!-- Node1&#45;&gt;Node4 -->
<g id="edge3" class="edge"><title>Node1&#45;&gt;Node4</title>
<path fill="none" stroke="midnightblue" d="M138.494,-304.498C123.027,-295.78 107.737,-283.821 99,-268 68.1513,-212.142 92.0773,-132.448 105.491,-97.0896"/>
<polygon fill="midnightblue" stroke="midnightblue" points="108.815,-98.2015 109.244,-87.6153 102.307,-95.6234 108.815,-98.2015"/>
</g>
<!-- Node7 -->
<g id="node7" class="node"><title>Node7</title>
<g id="a_node7"><a xlink:href="../../d0/d0c/TableFormater_8hpp.html" target="_top" xlink:title="Core/TableFormater.hpp">
<polygon fill="white" stroke="black" points="547,-248.5 547,-267.5 669,-267.5 669,-248.5 547,-248.5"/>
<text text-anchor="middle" x="608" y="-255.5" font-family="Helvetica,sans-Serif" font-size="10.00">Core/TableFormater.hpp</text>
</a>
</g>
</g>
<!-- Node1&#45;&gt;Node7 -->
<g id="edge6" class="edge"><title>Node1&#45;&gt;Node7</title>
<path fill="none" stroke="midnightblue" d="M271.732,-311.041C351.499,-298.697 469.926,-280.369 542.868,-269.08"/>
<polygon fill="midnightblue" stroke="midnightblue" points="543.503,-272.523 552.85,-267.535 542.432,-265.606 543.503,-272.523"/>
</g>
<!-- Node25 -->
<g id="node25" class="node"><title>Node25</title>
<g id="a_node25"><a xlink:href="../../d4/d9c/CorrectionTable_8hpp.html" target="_top" xlink:title="DataReader/CorrectionTable.hpp">
<polygon fill="white" stroke="black" points="1323,-130.5 1323,-149.5 1483,-149.5 1483,-130.5 1323,-130.5"/>
<text text-anchor="middle" x="1403" y="-137.5" font-family="Helvetica,sans-Serif" font-size="10.00">DataReader/CorrectionTable.hpp</text>
</a>
</g>
</g>
<!-- Node1&#45;&gt;Node25 -->
<g id="edge42" class="edge"><title>Node1&#45;&gt;Node25</title>
<path fill="none" stroke="midnightblue" d="M271.534,-317.838C435.853,-304.874 812.24,-271.004 1124,-212 1210.97,-195.541 1311.12,-167.878 1364.6,-152.388"/>
<polygon fill="midnightblue" stroke="midnightblue" points="1365.72,-155.707 1374.35,-149.551 1363.77,-148.987 1365.72,-155.707"/>
</g>
<!-- Node5 -->
<g id="node5" class="node"><title>Node5</title>
<polygon fill="white" stroke="#bfbfbf" points="-0.5,-6.5 -0.5,-25.5 100.5,-25.5 100.5,-6.5 -0.5,-6.5"/>
<text text-anchor="middle" x="50" y="-13.5" font-family="Helvetica,sans-Serif" font-size="10.00">boost/log/trivial.hpp</text>
</g>
<!-- Node4&#45;&gt;Node5 -->
<g id="edge4" class="edge"><title>Node4&#45;&gt;Node5</title>
<path fill="none" stroke="midnightblue" d="M103.974,-68.4035C94.2429,-59.1361 78.542,-44.1828 66.577,-32.7876"/>
<polygon fill="midnightblue" stroke="midnightblue" points="68.6648,-29.9427 59.0096,-25.5806 63.8372,-35.0117 68.6648,-29.9427"/>
</g>
<!-- Node6 -->
<g id="node6" class="node"><title>Node6</title>
<polygon fill="white" stroke="#bfbfbf" points="119,-6.5 119,-25.5 235,-25.5 235,-6.5 119,-6.5"/>
<text text-anchor="middle" x="177" y="-13.5" font-family="Helvetica,sans-Serif" font-size="10.00">boost/log/common.hpp</text>
</g>
<!-- Node4&#45;&gt;Node6 -->
<g id="edge5" class="edge"><title>Node4&#45;&gt;Node6</title>
<path fill="none" stroke="midnightblue" d="M122.17,-68.4035C132.15,-59.047 148.312,-43.8948 160.509,-32.4599"/>
<polygon fill="midnightblue" stroke="midnightblue" points="162.946,-34.9734 167.847,-25.5806 158.158,-29.8666 162.946,-34.9734"/>
</g>
<!-- Node7&#45;&gt;Node2 -->
<g id="edge10" class="edge"><title>Node7&#45;&gt;Node2</title>
<path fill="none" stroke="midnightblue" d="M546.922,-257.671C462.445,-257.144 316.532,-250.495 283,-212 261.844,-187.713 273.928,-154.041 311,-124 397.526,-53.8863 754.921,-25.7869 862.333,-18.826"/>
<polygon fill="midnightblue" stroke="midnightblue" points="862.735,-22.3076 872.494,-18.1828 862.293,-15.3216 862.735,-22.3076"/>
</g>
<!-- Node8 -->
<g id="node8" class="node"><title>Node8</title>
<polygon fill="white" stroke="#bfbfbf" points="1259,-68.5 1259,-87.5 1313,-87.5 1313,-68.5 1259,-68.5"/>
<text text-anchor="middle" x="1286" y="-75.5" font-family="Helvetica,sans-Serif" font-size="10.00">iostream</text>
</g>
<!-- Node7&#45;&gt;Node8 -->
<g id="edge7" class="edge"><title>Node7&#45;&gt;Node8</title>
<path fill="none" stroke="midnightblue" d="M669.138,-251.827C803.218,-239.679 1118.59,-206.488 1212,-156 1238.67,-141.586 1261.46,-114.175 1274.44,-96.2486"/>
<polygon fill="midnightblue" stroke="midnightblue" points="1277.45,-98.0588 1280.31,-87.8576 1271.71,-94.0479 1277.45,-98.0588"/>
</g>
<!-- Node9 -->
<g id="node9" class="node"><title>Node9</title>
<polygon fill="white" stroke="#bfbfbf" points="292,-192.5 292,-211.5 342,-211.5 342,-192.5 292,-192.5"/>
<text text-anchor="middle" x="317" y="-199.5" font-family="Helvetica,sans-Serif" font-size="10.00">iomanip</text>
</g>
<!-- Node7&#45;&gt;Node9 -->
<g id="edge8" class="edge"><title>Node7&#45;&gt;Node9</title>
<path fill="none" stroke="midnightblue" d="M555.73,-248.451C504.663,-239.914 424.794,-226.071 356,-212 354.736,-211.742 353.451,-211.473 352.153,-211.198"/>
<polygon fill="midnightblue" stroke="midnightblue" points="352.653,-207.724 342.135,-208.995 351.15,-214.561 352.653,-207.724"/>
</g>
<!-- Node10 -->
<g id="node10" class="node"><title>Node10</title>
<polygon fill="white" stroke="#bfbfbf" points="1476,-6.5 1476,-25.5 1520,-25.5 1520,-6.5 1476,-6.5"/>
<text text-anchor="middle" x="1498" y="-13.5" font-family="Helvetica,sans-Serif" font-size="10.00">vector</text>
</g>
<!-- Node7&#45;&gt;Node10 -->
<g id="edge9" class="edge"><title>Node7&#45;&gt;Node10</title>
<path fill="none" stroke="midnightblue" d="M669.024,-254.502C862.737,-245.994 1454.59,-215.323 1515,-156 1543.12,-128.383 1535.79,-106.18 1526,-68 1522.91,-55.9654 1516.33,-43.722 1510.32,-34.2485"/>
<polygon fill="midnightblue" stroke="midnightblue" points="1513.13,-32.1607 1504.66,-25.8088 1507.32,-36.0622 1513.13,-32.1607"/>
</g>
<!-- Node11 -->
<g id="node11" class="node"><title>Node11</title>
<polygon fill="white" stroke="#bfbfbf" points="731,-68.5 731,-87.5 783,-87.5 783,-68.5 731,-68.5"/>
<text text-anchor="middle" x="757" y="-75.5" font-family="Helvetica,sans-Serif" font-size="10.00">sstream</text>
</g>
<!-- Node7&#45;&gt;Node11 -->
<g id="edge11" class="edge"><title>Node7&#45;&gt;Node11</title>
<path fill="none" stroke="midnightblue" d="M546.845,-254.995C478.901,-249.098 372.058,-228.096 321,-156 312.78,-144.394 311.474,-134.56 321,-124 347.588,-94.527 620.459,-83.2044 720.495,-80.0242"/>
<polygon fill="midnightblue" stroke="midnightblue" points="720.835,-83.5154 730.722,-79.7085 720.619,-76.5188 720.835,-83.5154"/>
</g>
<!-- Node12 -->
<g id="node12" class="node"><title>Node12</title>
<polygon fill="white" stroke="#bfbfbf" points="1331,-68.5 1331,-87.5 1375,-87.5 1375,-68.5 1331,-68.5"/>
<text text-anchor="middle" x="1353" y="-75.5" font-family="Helvetica,sans-Serif" font-size="10.00">cmath</text>
</g>
<!-- Node7&#45;&gt;Node12 -->
<g id="edge12" class="edge"><title>Node7&#45;&gt;Node12</title>
<path fill="none" stroke="midnightblue" d="M669.056,-254.854C757.079,-250.887 924.398,-240.071 1064,-212 1146.97,-195.316 1170.21,-193.658 1246,-156 1280.25,-138.98 1315.39,-111.366 1335.65,-94.2438"/>
<polygon fill="midnightblue" stroke="midnightblue" points="1338.07,-96.7786 1343.38,-87.6095 1333.51,-91.467 1338.07,-96.7786"/>
</g>
<!-- Node13 -->
<g id="node13" class="node"><title>Node13</title>
<g id="a_node13"><a xlink:href="../../df/d9f/ParameterList_8hpp.html" target="_top" xlink:title="This class provides a list of fit parameters which can have different types. ">
<polygon fill="white" stroke="red" points="786,-192.5 786,-211.5 906,-211.5 906,-192.5 786,-192.5"/>
<text text-anchor="middle" x="846" y="-199.5" font-family="Helvetica,sans-Serif" font-size="10.00">Core/ParameterList.hpp</text>
</a>
</g>
</g>
<!-- Node7&#45;&gt;Node13 -->
<g id="edge13" class="edge"><title>Node7&#45;&gt;Node13</title>
<path fill="none" stroke="midnightblue" d="M645.712,-248.444C687.143,-239.043 753.757,-223.929 798.667,-213.739"/>
<polygon fill="midnightblue" stroke="midnightblue" points="799.487,-217.142 808.465,-211.516 797.938,-210.316 799.487,-217.142"/>
</g>
<!-- Node13&#45;&gt;Node2 -->
<g id="edge15" class="edge"><title>Node13&#45;&gt;Node2</title>
<path fill="none" stroke="midnightblue" d="M844.417,-192.342C839.423,-164.624 824.643,-79.2299 830,-68 837.654,-51.9553 853.096,-39.3266 866.775,-30.6496"/>
<polygon fill="midnightblue" stroke="midnightblue" points="868.598,-33.6373 875.41,-25.5221 865.024,-27.6185 868.598,-33.6373"/>
</g>
<!-- Node13&#45;&gt;Node4 -->
<g id="edge38" class="edge"><title>Node13&#45;&gt;Node4</title>
<path fill="none" stroke="midnightblue" d="M785.891,-201.158C648.577,-200.812 315.748,-195.758 212,-156 177.64,-142.833 145.503,-113.496 127.627,-95.0747"/>
<polygon fill="midnightblue" stroke="midnightblue" points="130.077,-92.571 120.667,-87.7018 124.986,-97.3762 130.077,-92.571"/>
</g>
<!-- Node13&#45;&gt;Node8 -->
<g id="edge14" class="edge"><title>Node13&#45;&gt;Node8</title>
<path fill="none" stroke="midnightblue" d="M906.285,-200.467C972.667,-198.106 1081.58,-188.931 1169,-156 1207.77,-141.395 1246.76,-112.123 1268.5,-94.1762"/>
<polygon fill="midnightblue" stroke="midnightblue" points="1270.81,-96.8067 1276.21,-87.6889 1266.31,-91.4516 1270.81,-96.8067"/>
</g>
<!-- Node13&#45;&gt;Node10 -->
<g id="edge18" class="edge"><title>Node13&#45;&gt;Node10</title>
<path fill="none" stroke="midnightblue" d="M906.235,-201.268C1058.88,-201.331 1451.65,-197.427 1492,-156 1523.23,-123.932 1512.39,-65.4485 1504.02,-35.6009"/>
<polygon fill="midnightblue" stroke="midnightblue" points="1507.27,-34.2416 1501.03,-25.6783 1500.57,-36.263 1507.27,-34.2416"/>
</g>
<!-- Node13&#45;&gt;Node11 -->
<g id="edge17" class="edge"><title>Node13&#45;&gt;Node11</title>
<path fill="none" stroke="midnightblue" d="M842.832,-192.322C837.131,-177.41 824.125,-146.369 807,-124 798.434,-112.812 786.836,-102.174 776.967,-94.0524"/>
<polygon fill="midnightblue" stroke="midnightblue" points="778.866,-91.0912 768.858,-87.613 774.512,-96.5729 778.866,-91.0912"/>
</g>
<!-- Node14 -->
<g id="node14" class="node"><title>Node14</title>
<polygon fill="white" stroke="#bfbfbf" points="1127,-6.5 1127,-25.5 1179,-25.5 1179,-6.5 1127,-6.5"/>
<text text-anchor="middle" x="1153" y="-13.5" font-family="Helvetica,sans-Serif" font-size="10.00">memory</text>
</g>
<!-- Node13&#45;&gt;Node14 -->
<g id="edge16" class="edge"><title>Node13&#45;&gt;Node14</title>
<path fill="none" stroke="midnightblue" d="M906.256,-198.186C975.66,-193.723 1084,-182.61 1114,-156 1148.75,-125.179 1153.63,-66.1369 1153.67,-35.8859"/>
<polygon fill="midnightblue" stroke="midnightblue" points="1157.17,-35.7608 1153.5,-25.8205 1150.17,-35.8775 1157.17,-35.7608"/>
</g>
<!-- Node15 -->
<g id="node15" class="node"><title>Node15</title>
<polygon fill="white" stroke="#bfbfbf" points="1053.5,-130.5 1053.5,-149.5 1088.5,-149.5 1088.5,-130.5 1053.5,-130.5"/>
<text text-anchor="middle" x="1071" y="-137.5" font-family="Helvetica,sans-Serif" font-size="10.00">map</text>
</g>
<!-- Node13&#45;&gt;Node15 -->
<g id="edge19" class="edge"><title>Node13&#45;&gt;Node15</title>
<path fill="none" stroke="midnightblue" d="M903.157,-192.438C943.401,-185.351 998.069,-173.567 1044,-156 1045.41,-155.461 1046.83,-154.86 1048.25,-154.216"/>
<polygon fill="midnightblue" stroke="midnightblue" points="1050.04,-157.235 1057.35,-149.567 1046.85,-151.001 1050.04,-157.235"/>
</g>
<!-- Node16 -->
<g id="node16" class="node"><title>Node16</title>
<polygon fill="white" stroke="#bfbfbf" points="330.5,-125 330.5,-155 425.5,-155 425.5,-125 330.5,-125"/>
<text text-anchor="start" x="338.5" y="-143" font-family="Helvetica,sans-Serif" font-size="10.00">boost/serialization</text>
<text text-anchor="middle" x="378" y="-132" font-family="Helvetica,sans-Serif" font-size="10.00">/vector.hpp</text>
</g>
<!-- Node13&#45;&gt;Node16 -->
<g id="edge20" class="edge"><title>Node13&#45;&gt;Node16</title>
<path fill="none" stroke="midnightblue" d="M785.695,-197.208C707.265,-191.654 565.921,-179.52 435.914,-155.985"/>
<polygon fill="midnightblue" stroke="midnightblue" points="436.246,-152.488 425.778,-154.123 434.98,-159.373 436.246,-152.488"/>
</g>
<!-- Node17 -->
<g id="node17" class="node"><title>Node17</title>
<polygon fill="white" stroke="#bfbfbf" points="519.5,-1 519.5,-31 614.5,-31 614.5,-1 519.5,-1"/>
<text text-anchor="start" x="527.5" y="-19" font-family="Helvetica,sans-Serif" font-size="10.00">boost/serialization</text>
<text text-anchor="middle" x="567" y="-8" font-family="Helvetica,sans-Serif" font-size="10.00">/shared_ptr.hpp</text>
</g>
<!-- Node13&#45;&gt;Node17 -->
<g id="edge21" class="edge"><title>Node13&#45;&gt;Node17</title>
<path fill="none" stroke="midnightblue" d="M785.573,-200.311C654.21,-198.186 351.893,-189.654 321,-156 258.97,-88.4261 418.806,-45.4078 509.486,-27.1254"/>
<polygon fill="midnightblue" stroke="midnightblue" points="510.244,-30.5434 519.378,-25.1736 508.889,-23.6758 510.244,-30.5434"/>
</g>
<!-- Node18 -->
<g id="node18" class="node"><title>Node18</title>
<g id="a_node18"><a xlink:href="../../d8/def/AbsParameter_8hpp.html" target="_top" xlink:title="This class defines the internal container of a parameter. ">
<polygon fill="white" stroke="red" points="1003,-68.5 1003,-87.5 1125,-87.5 1125,-68.5 1003,-68.5"/>
<text text-anchor="middle" x="1064" y="-75.5" font-family="Helvetica,sans-Serif" font-size="10.00">Core/AbsParameter.hpp</text>
</a>
</g>
</g>
<!-- Node13&#45;&gt;Node18 -->
<g id="edge22" class="edge"><title>Node13&#45;&gt;Node18</title>
<path fill="none" stroke="midnightblue" d="M906.128,-198.814C972.498,-194.989 1073.14,-184.522 1097,-156 1112.08,-137.978 1094.98,-112.035 1080.31,-95.3471"/>
<polygon fill="midnightblue" stroke="midnightblue" points="1082.83,-92.9158 1073.46,-87.9735 1077.71,-97.6812 1082.83,-92.9158"/>
</g>
<!-- Node19 -->
<g id="node19" class="node"><title>Node19</title>
<g id="a_node19"><a xlink:href="../../db/dce/Parameter_8hpp.html" target="_top" xlink:title="This class implements some internal container of parameters. ">
<polygon fill="white" stroke="red" points="931,-130.5 931,-149.5 1035,-149.5 1035,-130.5 931,-130.5"/>
<text text-anchor="middle" x="983" y="-137.5" font-family="Helvetica,sans-Serif" font-size="10.00">Core/Parameter.hpp</text>
</a>
</g>
</g>
<!-- Node13&#45;&gt;Node19 -->
<g id="edge27" class="edge"><title>Node13&#45;&gt;Node19</title>
<path fill="none" stroke="midnightblue" d="M865.629,-192.403C888.824,-182.245 927.619,-165.255 954.213,-153.607"/>
<polygon fill="midnightblue" stroke="midnightblue" points="955.652,-156.798 963.408,-149.581 952.843,-150.386 955.652,-156.798"/>
</g>
<!-- Node21 -->
<g id="node21" class="node"><title>Node21</title>
<g id="a_node21"><a xlink:href="../../d2/de9/Exceptions_8hpp.html" target="_top" xlink:title="This class defines the ComPWA exception base&#45;class and provides a set of standard exceptions...">
<polygon fill="white" stroke="red" points="839,-68.5 839,-87.5 947,-87.5 947,-68.5 839,-68.5"/>
<text text-anchor="middle" x="893" y="-75.5" font-family="Helvetica,sans-Serif" font-size="10.00">Core/Exceptions.hpp</text>
</a>
</g>
</g>
<!-- Node13&#45;&gt;Node21 -->
<g id="edge37" class="edge"><title>Node13&#45;&gt;Node21</title>
<path fill="none" stroke="midnightblue" d="M854.146,-192.447C861.798,-183.907 872.95,-170.061 879,-156 887.037,-137.319 890.462,-114.162 891.92,-98.1478"/>
<polygon fill="midnightblue" stroke="midnightblue" points="895.43,-98.1455 892.673,-87.9158 888.449,-97.6322 895.43,-98.1455"/>
</g>
<!-- Node22 -->
<g id="node22" class="node"><title>Node22</title>
<polygon fill="white" stroke="#bfbfbf" points="444,-130.5 444,-149.5 538,-149.5 538,-130.5 444,-130.5"/>
<text text-anchor="middle" x="491" y="-137.5" font-family="Helvetica,sans-Serif" font-size="10.00">boost/version.hpp</text>
</g>
<!-- Node13&#45;&gt;Node22 -->
<g id="edge39" class="edge"><title>Node13&#45;&gt;Node22</title>
<path fill="none" stroke="midnightblue" d="M785.798,-193.958C725.163,-186.394 629.094,-173.116 547,-156 541.581,-154.87 535.905,-153.533 530.334,-152.131"/>
<polygon fill="midnightblue" stroke="midnightblue" points="531.055,-148.702 520.495,-149.566 529.289,-155.475 531.055,-148.702"/>
</g>
<!-- Node23 -->
<g id="node23" class="node"><title>Node23</title>
<polygon fill="white" stroke="#bfbfbf" points="556.5,-125 556.5,-155 651.5,-155 651.5,-125 556.5,-125"/>
<text text-anchor="start" x="564.5" y="-143" font-family="Helvetica,sans-Serif" font-size="10.00">boost/serialization</text>
<text text-anchor="middle" x="604" y="-132" font-family="Helvetica,sans-Serif" font-size="10.00">/split_free.hpp</text>
</g>
<!-- Node13&#45;&gt;Node23 -->
<g id="edge40" class="edge"><title>Node13&#45;&gt;Node23</title>
<path fill="none" stroke="midnightblue" d="M809.582,-192.466C774.09,-184.087 718.35,-170.768 661.51,-156.356"/>
<polygon fill="midnightblue" stroke="midnightblue" points="662.192,-152.918 651.638,-153.845 660.467,-159.702 662.192,-152.918"/>
</g>
<!-- Node24 -->
<g id="node24" class="node"><title>Node24</title>
<polygon fill="white" stroke="#bfbfbf" points="669.5,-130.5 669.5,-149.5 798.5,-149.5 798.5,-130.5 669.5,-130.5"/>
<text text-anchor="middle" x="734" y="-137.5" font-family="Helvetica,sans-Serif" font-size="10.00">boost/unordered_map.hpp</text>
</g>
<!-- Node13&#45;&gt;Node24 -->
<g id="edge41" class="edge"><title>Node13&#45;&gt;Node24</title>
<path fill="none" stroke="midnightblue" d="M829.953,-192.403C811.407,-182.468 780.66,-165.997 758.978,-154.381"/>
<polygon fill="midnightblue" stroke="midnightblue" points="760.485,-151.218 750.017,-149.581 757.179,-157.388 760.485,-151.218"/>
</g>
<!-- Node18&#45;&gt;Node2 -->
<g id="edge23" class="edge"><title>Node18&#45;&gt;Node2</title>
<path fill="none" stroke="midnightblue" d="M1039.5,-68.4035C1008.87,-57.6557 956.442,-39.2603 923.314,-27.6366"/>
<polygon fill="midnightblue" stroke="midnightblue" points="924.293,-24.2709 913.698,-24.2626 921.976,-30.8761 924.293,-24.2709"/>
</g>
<!-- Node18&#45;&gt;Node10 -->
<g id="edge24" class="edge"><title>Node18&#45;&gt;Node10</title>
<path fill="none" stroke="midnightblue" d="M1125.26,-68.5307C1218.61,-55.626 1393.21,-31.4873 1465.44,-21.5018"/>
<polygon fill="midnightblue" stroke="midnightblue" points="1466.3,-24.9159 1475.73,-20.0793 1465.34,-17.9818 1466.3,-24.9159"/>
</g>
<!-- Node18&#45;&gt;Node14 -->
<g id="edge25" class="edge"><title>Node18&#45;&gt;Node14</title>
<path fill="none" stroke="midnightblue" d="M1076.75,-68.4035C1091.03,-58.7797 1114.4,-43.0242 1131.51,-31.4891"/>
<polygon fill="midnightblue" stroke="midnightblue" points="1133.94,-34.0727 1140.27,-25.5806 1130.02,-28.2684 1133.94,-34.0727"/>
</g>
<!-- Node18&#45;&gt;Node17 -->
<g id="edge26" class="edge"><title>Node18&#45;&gt;Node17</title>
<path fill="none" stroke="midnightblue" d="M1002.81,-69.6128C906.053,-57.932 719.05,-35.3562 624.59,-23.9525"/>
<polygon fill="midnightblue" stroke="midnightblue" points="624.989,-20.4753 614.641,-22.7515 624.15,-27.4249 624.989,-20.4753"/>
</g>
<!-- Node19&#45;&gt;Node2 -->
<g id="edge29" class="edge"><title>Node19&#45;&gt;Node2</title>
<path fill="none" stroke="midnightblue" d="M981.275,-130.433C978.122,-116.344 970.388,-87.8657 956,-68 945.336,-53.2767 929.392,-40.4256 916.212,-31.3066"/>
<polygon fill="midnightblue" stroke="midnightblue" points="917.896,-28.2236 907.627,-25.6125 914.026,-34.057 917.896,-28.2236"/>
</g>
<!-- Node19&#45;&gt;Node4 -->
<g id="edge36" class="edge"><title>Node19&#45;&gt;Node4</title>
<path fill="none" stroke="midnightblue" d="M930.654,-134.259C895.662,-131.159 848.589,-127.12 807,-124 570.624,-106.265 288.639,-89.2663 170.019,-82.3047"/>
<polygon fill="midnightblue" stroke="midnightblue" points="169.918,-78.7929 159.73,-81.7021 169.509,-85.7809 169.918,-78.7929"/>
</g>
<!-- Node19&#45;&gt;Node8 -->
<g id="edge28" class="edge"><title>Node19&#45;&gt;Node8</title>
<path fill="none" stroke="midnightblue" d="M1015.83,-130.497C1024.93,-128.259 1034.82,-125.932 1044,-124 1134.52,-104.945 1158.45,-106.942 1249,-88 1249.1,-87.9788 1249.2,-87.9576 1249.3,-87.9363"/>
<polygon fill="midnightblue" stroke="midnightblue" points="1249.97,-91.3748 1258.97,-85.7893 1248.45,-84.5414 1249.97,-91.3748"/>
</g>
<!-- Node19&#45;&gt;Node11 -->
<g id="edge30" class="edge"><title>Node19&#45;&gt;Node11</title>
<path fill="none" stroke="midnightblue" d="M950.62,-130.403C908.925,-119.334 836.674,-100.152 793.204,-88.6116"/>
<polygon fill="midnightblue" stroke="midnightblue" points="793.898,-85.1747 783.334,-85.9914 792.102,-91.9403 793.898,-85.1747"/>
</g>
<!-- Node19&#45;&gt;Node12 -->
<g id="edge32" class="edge"><title>Node19&#45;&gt;Node12</title>
<path fill="none" stroke="midnightblue" d="M1014.83,-130.457C1024.18,-128.142 1034.46,-125.785 1044,-124 1163.23,-101.693 1198.21,-112.816 1320.61,-87.9997"/>
<polygon fill="midnightblue" stroke="midnightblue" points="1321.67,-91.3555 1330.75,-85.9031 1320.25,-84.5004 1321.67,-91.3555"/>
</g>
<!-- Node19&#45;&gt;Node18 -->
<g id="edge33" class="edge"><title>Node19&#45;&gt;Node18</title>
<path fill="none" stroke="midnightblue" d="M994.605,-130.403C1007.48,-120.869 1028.47,-105.315 1044.01,-93.8106"/>
<polygon fill="midnightblue" stroke="midnightblue" points="1046.46,-96.3454 1052.42,-87.5806 1042.3,-90.7204 1046.46,-96.3454"/>
</g>
<!-- Node20 -->
<g id="node20" class="node"><title>Node20</title>
<polygon fill="white" stroke="#bfbfbf" points="1181.5,-68.5 1181.5,-87.5 1240.5,-87.5 1240.5,-68.5 1181.5,-68.5"/>
<text text-anchor="middle" x="1211" y="-75.5" font-family="Helvetica,sans-Serif" font-size="10.00">stdexcept</text>
</g>
<!-- Node19&#45;&gt;Node20 -->
<g id="edge31" class="edge"><title>Node19&#45;&gt;Node20</title>
<path fill="none" stroke="midnightblue" d="M1015.67,-130.403C1056.79,-119.581 1127.38,-101.005 1171.49,-89.3961"/>
<polygon fill="midnightblue" stroke="midnightblue" points="1172.52,-92.7468 1181.3,-86.817 1170.73,-85.9773 1172.52,-92.7468"/>
</g>
<!-- Node19&#45;&gt;Node21 -->
<g id="edge34" class="edge"><title>Node19&#45;&gt;Node21</title>
<path fill="none" stroke="midnightblue" d="M970.105,-130.403C955.536,-120.691 931.598,-104.732 914.255,-93.1697"/>
<polygon fill="midnightblue" stroke="midnightblue" points="916.133,-90.2155 905.871,-87.5806 912.25,-96.0398 916.133,-90.2155"/>
</g>
<!-- Node21&#45;&gt;Node2 -->
<g id="edge35" class="edge"><title>Node21&#45;&gt;Node2</title>
<path fill="none" stroke="midnightblue" d="M893,-68.4035C893,-59.9381 893,-46.7283 893,-35.8199"/>
<polygon fill="midnightblue" stroke="midnightblue" points="896.5,-35.5806 893,-25.5806 889.5,-35.5806 896.5,-35.5806"/>
</g>
<!-- Node25&#45;&gt;Node2 -->
<g id="edge44" class="edge"><title>Node25&#45;&gt;Node2</title>
<path fill="none" stroke="midnightblue" d="M1403.41,-130.401C1403.61,-115.192 1401.61,-83.6742 1383,-68 1365.35,-53.1334 1029.08,-27.0772 924.059,-19.2718"/>
<polygon fill="midnightblue" stroke="midnightblue" points="924.034,-15.7604 913.803,-18.513 923.518,-22.7413 924.034,-15.7604"/>
</g>
<!-- Node25&#45;&gt;Node8 -->
<g id="edge43" class="edge"><title>Node25&#45;&gt;Node8</title>
<path fill="none" stroke="midnightblue" d="M1386.24,-130.403C1366.78,-120.423 1334.45,-103.849 1311.79,-92.2253"/>
<polygon fill="midnightblue" stroke="midnightblue" points="1313.23,-89.0294 1302.73,-87.5806 1310.03,-95.2582 1313.23,-89.0294"/>
</g>
<!-- Node25&#45;&gt;Node10 -->
<g id="edge45" class="edge"><title>Node25&#45;&gt;Node10</title>
<path fill="none" stroke="midnightblue" d="M1413.33,-130.273C1424.41,-120.615 1442.12,-104.257 1455,-88 1468.38,-71.111 1480.79,-49.7341 1488.81,-34.8709"/>
<polygon fill="midnightblue" stroke="midnightblue" points="1492.05,-36.235 1493.62,-25.7568 1485.86,-32.9705 1492.05,-36.235"/>
</g>
<!-- Node25&#45;&gt;Node12 -->
<g id="edge47" class="edge"><title>Node25&#45;&gt;Node12</title>
<path fill="none" stroke="midnightblue" d="M1395.84,-130.403C1388.26,-121.314 1376.13,-106.756 1366.71,-95.4489"/>
<polygon fill="midnightblue" stroke="midnightblue" points="1369.24,-93.0222 1360.15,-87.5806 1363.86,-97.5035 1369.24,-93.0222"/>
</g>
<!-- Node25&#45;&gt;Node14 -->
<g id="edge46" class="edge"><title>Node25&#45;&gt;Node14</title>
<path fill="none" stroke="midnightblue" d="M1408.62,-130.489C1417.44,-115.969 1432.03,-86.217 1417,-68 1388.57,-33.5547 1255.15,-22.1089 1189.57,-18.5246"/>
<polygon fill="midnightblue" stroke="midnightblue" points="1189.44,-15.0137 1179.28,-17.9965 1189.09,-22.0045 1189.44,-15.0137"/>
</g>
<!-- Node25&#45;&gt;Node20 -->
<g id="edge48" class="edge"><title>Node25&#45;&gt;Node20</title>
<path fill="none" stroke="midnightblue" d="M1375.49,-130.403C1342.13,-119.978 1285.74,-102.356 1248.44,-90.6992"/>
<polygon fill="midnightblue" stroke="midnightblue" points="1249.05,-87.2227 1238.46,-87.5806 1246.96,-93.9041 1249.05,-87.2227"/>
</g>
</g>
</svg>
