<?xml version="1.0" encoding="UTF-8" standalone="no"?>
<!DOCTYPE svg PUBLIC "-//W3C//DTD SVG 1.1//EN"
 "http://www.w3.org/Graphics/SVG/1.1/DTD/svg11.dtd">
<!-- Generated by graphviz version 2.36.0 (20140111.2315)
 -->
<!-- Title: /home/travis/build/ComPWA/ComPWA/Examples/PythonDalitzFit/PythonFit.hpp Pages: 1 -->
<svg width="1842pt" height="490pt"
 viewBox="0.00 0.00 1841.85 490.00" xmlns="http://www.w3.org/2000/svg" xmlns:xlink="http://www.w3.org/1999/xlink">
<g id="graph0" class="graph" transform="scale(1 1) rotate(0) translate(4 486)">
<title>/home/travis/build/ComPWA/ComPWA/Examples/PythonDalitzFit/PythonFit.hpp</title>
<polygon fill="white" stroke="none" points="-4,4 -4,-486 1837.85,-486 1837.85,4 -4,4"/>
<!-- Node1 -->
<g id="node1" class="node"><title>Node1</title>
<polygon fill="#bfbfbf" stroke="black" points="756.85,-440.5 756.85,-481.5 914.85,-481.5 914.85,-440.5 756.85,-440.5"/>
<text text-anchor="start" x="764.85" y="-469.5" font-family="Helvetica,sans-Serif" font-size="10.00">/home/travis/build</text>
<text text-anchor="start" x="764.85" y="-458.5" font-family="Helvetica,sans-Serif" font-size="10.00">/ComPWA/ComPWA/Examples</text>
<text text-anchor="middle" x="835.85" y="-447.5" font-family="Helvetica,sans-Serif" font-size="10.00">/PythonDalitzFit/PythonFit.hpp</text>
</g>
<!-- Node2 -->
<g id="node2" class="node"><title>Node2</title>
<polygon fill="white" stroke="#bfbfbf" points="825.85,-0.5 825.85,-19.5 869.85,-19.5 869.85,-0.5 825.85,-0.5"/>
<text text-anchor="middle" x="847.85" y="-7.5" font-family="Helvetica,sans-Serif" font-size="10.00">vector</text>
</g>
<!-- Node1&#45;&gt;Node2 -->
<g id="edge1" class="edge"><title>Node1&#45;&gt;Node2</title>
<path fill="none" stroke="midnightblue" d="M834.198,-440.259C829.652,-384.802 817.015,-222.849 812.85,-88 812.411,-73.7846 808.234,-69.4524 812.85,-56 816.569,-45.161 824.083,-34.9216 831.199,-26.9566"/>
<polygon fill="midnightblue" stroke="midnightblue" points="833.904,-29.1922 838.294,-19.5497 828.849,-24.3498 833.904,-29.1922"/>
</g>
<!-- Node3 -->
<g id="node3" class="node"><title>Node3</title>
<polygon fill="white" stroke="#bfbfbf" points="1435.85,-0.5 1435.85,-19.5 1487.85,-19.5 1487.85,-0.5 1435.85,-0.5"/>
<text text-anchor="middle" x="1461.85" y="-7.5" font-family="Helvetica,sans-Serif" font-size="10.00">memory</text>
</g>
<!-- Node1&#45;&gt;Node3 -->
<g id="edge2" class="edge"><title>Node1&#45;&gt;Node3</title>
<path fill="none" stroke="midnightblue" d="M915.073,-458.43C1093.38,-454.279 1521.51,-440.704 1660.85,-404 1743.32,-382.278 1833.85,-406.28 1833.85,-321 1833.85,-321 1833.85,-321 1833.85,-133 1833.85,-83.6507 1798.08,-77.8908 1753.85,-56 1709.56,-34.0785 1566.51,-19.6625 1498.46,-13.8731"/>
<polygon fill="midnightblue" stroke="midnightblue" points="1498.47,-10.3615 1488.21,-13.0181 1497.89,-17.3373 1498.47,-10.3615"/>
</g>
<!-- Node4 -->
<g id="node4" class="node"><title>Node4</title>
<polygon fill="white" stroke="#bfbfbf" points="129.85,-378.5 129.85,-397.5 263.85,-397.5 263.85,-378.5 129.85,-378.5"/>
<text text-anchor="middle" x="196.85" y="-385.5" font-family="Helvetica,sans-Serif" font-size="10.00">boost/program_options.hpp</text>
</g>
<!-- Node1&#45;&gt;Node4 -->
<g id="edge3" class="edge"><title>Node1&#45;&gt;Node4</title>
<path fill="none" stroke="midnightblue" d="M756.768,-454.534C647.56,-446.439 444.591,-429.43 272.85,-404 264.15,-402.712 254.936,-401.103 246.038,-399.422"/>
<polygon fill="midnightblue" stroke="midnightblue" points="246.655,-395.976 236.171,-397.505 245.32,-402.848 246.655,-395.976"/>
</g>
<!-- Node5 -->
<g id="node5" class="node"><title>Node5</title>
<polygon fill="white" stroke="#bfbfbf" points="282.35,-373 282.35,-403 377.35,-403 377.35,-373 282.35,-373"/>
<text text-anchor="start" x="290.35" y="-391" font-family="Helvetica,sans-Serif" font-size="10.00">boost/serialization</text>
<text text-anchor="middle" x="329.85" y="-380" font-family="Helvetica,sans-Serif" font-size="10.00">/export.hpp</text>
</g>
<!-- Node1&#45;&gt;Node5 -->
<g id="edge4" class="edge"><title>Node1&#45;&gt;Node5</title>
<path fill="none" stroke="midnightblue" d="M756.841,-452.731C667.734,-443.908 518.705,-427.27 391.85,-404 390.386,-403.732 388.905,-403.45 387.413,-403.157"/>
<polygon fill="midnightblue" stroke="midnightblue" points="387.965,-399.697 377.462,-401.088 386.54,-406.551 387.965,-399.697"/>
</g>
<!-- Node6 -->
<g id="node6" class="node"><title>Node6</title>
<g id="a_node6"><a xlink:href="../../df/d7d/Event_8hpp.html" target="_top" xlink:title="This class provides a internal container for event&#45;based information. ">
<polygon fill="white" stroke="red" points="1056.35,-124.5 1056.35,-143.5 1141.35,-143.5 1141.35,-124.5 1056.35,-124.5"/>
<text text-anchor="middle" x="1098.85" y="-131.5" font-family="Helvetica,sans-Serif" font-size="10.00">Core/Event.hpp</text>
</a>
</g>
</g>
<!-- Node1&#45;&gt;Node6 -->
<g id="edge5" class="edge"><title>Node1&#45;&gt;Node6</title>
<path fill="none" stroke="midnightblue" d="M887.497,-440.42C908.789,-431.077 933.056,-418.706 952.85,-404 1044.25,-336.093 1074.21,-308.787 1107.85,-200 1112.58,-184.694 1109.4,-166.59 1105.57,-153.381"/>
<polygon fill="midnightblue" stroke="midnightblue" points="1108.81,-152.014 1102.36,-143.605 1102.15,-154.198 1108.81,-152.014"/>
</g>
<!-- Node8 -->
<g id="node8" class="node"><title>Node8</title>
<g id="a_node8"><a xlink:href="../../d3/d65/Particle_8hpp.html" target="_top" xlink:title="This class provides a internal container for information of a particle. ">
<polygon fill="white" stroke="red" points="1227.85,-62.5 1227.85,-81.5 1319.85,-81.5 1319.85,-62.5 1227.85,-62.5"/>
<text text-anchor="middle" x="1273.85" y="-69.5" font-family="Helvetica,sans-Serif" font-size="10.00">Core/Particle.hpp</text>
</a>
</g>
</g>
<!-- Node1&#45;&gt;Node8 -->
<g id="edge10" class="edge"><title>Node1&#45;&gt;Node8</title>
<path fill="none" stroke="midnightblue" d="M914.944,-456.424C1067.14,-447.373 1385.85,-416.965 1385.85,-321 1385.85,-321 1385.85,-321 1385.85,-251 1385.85,-218.334 1382.18,-208.845 1366.85,-180 1347.17,-142.969 1312.49,-107.833 1291.49,-88.4733"/>
<polygon fill="midnightblue" stroke="midnightblue" points="1293.69,-85.7394 1283.92,-81.63 1289,-90.9322 1293.69,-85.7394"/>
</g>
<!-- Node9 -->
<g id="node9" class="node"><title>Node9</title>
<g id="a_node9"><a xlink:href="../../db/dce/Parameter_8hpp.html" target="_top" xlink:title="This class implements some internal container of parameters. ">
<polygon fill="white" stroke="red" points="243.85,-124.5 243.85,-143.5 347.85,-143.5 347.85,-124.5 243.85,-124.5"/>
<text text-anchor="middle" x="295.85" y="-131.5" font-family="Helvetica,sans-Serif" font-size="10.00">Core/Parameter.hpp</text>
</a>
</g>
</g>
<!-- Node1&#45;&gt;Node9 -->
<g id="edge11" class="edge"><title>Node1&#45;&gt;Node9</title>
<path fill="none" stroke="midnightblue" d="M756.596,-459C580.437,-456.044 168.13,-444.8 120.85,-404 92.1994,-379.276 101.85,-358.843 101.85,-321 101.85,-321 101.85,-321 101.85,-251 101.85,-188.53 176.867,-158.897 233.604,-145.419"/>
<polygon fill="midnightblue" stroke="midnightblue" points="234.622,-148.777 243.606,-143.162 233.081,-141.949 234.622,-148.777"/>
</g>
<!-- Node10 -->
<g id="node10" class="node"><title>Node10</title>
<g id="a_node10"><a xlink:href="../../d8/def/AbsParameter_8hpp.html" target="_top" xlink:title="This class defines the internal container of a parameter. ">
<polygon fill="white" stroke="red" points="377.85,-62.5 377.85,-81.5 499.85,-81.5 499.85,-62.5 377.85,-62.5"/>
<text text-anchor="middle" x="438.85" y="-69.5" font-family="Helvetica,sans-Serif" font-size="10.00">Core/AbsParameter.hpp</text>
</a>
</g>
</g>
<!-- Node1&#45;&gt;Node10 -->
<g id="edge35" class="edge"><title>Node1&#45;&gt;Node10</title>
<path fill="none" stroke="midnightblue" d="M756.664,-458.672C705.813,-453.996 641.065,-440.457 595.85,-404 490.932,-319.406 452.135,-148.07 441.881,-91.5514"/>
<polygon fill="midnightblue" stroke="midnightblue" points="445.308,-90.8287 440.156,-81.5709 438.411,-92.0209 445.308,-90.8287"/>
</g>
<!-- Node11 -->
<g id="node11" class="node"><title>Node11</title>
<g id="a_node11"><a xlink:href="../../da/db4/Logging_8hpp.html" target="_top" xlink:title="Core/Logging.hpp">
<polygon fill="white" stroke="red" points="169.35,-62.5 169.35,-81.5 262.35,-81.5 262.35,-62.5 169.35,-62.5"/>
<text text-anchor="middle" x="215.85" y="-69.5" font-family="Helvetica,sans-Serif" font-size="10.00">Core/Logging.hpp</text>
</a>
</g>
</g>
<!-- Node1&#45;&gt;Node11 -->
<g id="edge36" class="edge"><title>Node1&#45;&gt;Node11</title>
<path fill="none" stroke="midnightblue" d="M756.614,-457.385C578.116,-451.01 155.569,-433.029 97.8498,-404 54.2224,-382.058 25.8498,-369.834 25.8498,-321 25.8498,-321 25.8498,-321 25.8498,-251 25.8498,-165.471 129.655,-109.13 183.81,-85.5572"/>
<polygon fill="midnightblue" stroke="midnightblue" points="185.463,-88.6582 193.308,-81.5373 182.735,-82.2118 185.463,-88.6582"/>
</g>
<!-- Node12 -->
<g id="node12" class="node"><title>Node12</title>
<g id="a_node12"><a xlink:href="../../df/d9f/ParameterList_8hpp.html" target="_top" xlink:title="This class provides a list of fit parameters which can have different types. ">
<polygon fill="white" stroke="red" points="309.85,-180.5 309.85,-199.5 429.85,-199.5 429.85,-180.5 309.85,-180.5"/>
<text text-anchor="middle" x="369.85" y="-187.5" font-family="Helvetica,sans-Serif" font-size="10.00">Core/ParameterList.hpp</text>
</a>
</g>
</g>
<!-- Node1&#45;&gt;Node12 -->
<g id="edge18" class="edge"><title>Node1&#45;&gt;Node12</title>
<path fill="none" stroke="midnightblue" d="M756.75,-458.541C680.073,-454.724 561.757,-442.39 466.85,-404 444.099,-394.797 442.337,-385.511 421.85,-372 396.206,-355.089 377.885,-362.787 362.85,-336 340.098,-295.465 353.763,-238.074 363.181,-209.155"/>
<polygon fill="midnightblue" stroke="midnightblue" points="366.538,-210.155 366.498,-199.56 359.923,-207.868 366.538,-210.155"/>
</g>
<!-- Node13 -->
<g id="node13" class="node"><title>Node13</title>
<g id="a_node13"><a xlink:href="../../da/db2/FunctionTree_8hpp.html" target="_top" xlink:title="This class can be used to store a function in a tree&#45;like structure. ">
<polygon fill="white" stroke="red" points="541.85,-180.5 541.85,-199.5 657.85,-199.5 657.85,-180.5 541.85,-180.5"/>
<text text-anchor="middle" x="599.85" y="-187.5" font-family="Helvetica,sans-Serif" font-size="10.00">Core/FunctionTree.hpp</text>
</a>
</g>
</g>
<!-- Node1&#45;&gt;Node13 -->
<g id="edge25" class="edge"><title>Node1&#45;&gt;Node13</title>
<path fill="none" stroke="midnightblue" d="M756.652,-449.538C701.606,-440.523 634.991,-425.535 616.85,-404 569.226,-347.464 585.441,-249.889 594.967,-209.417"/>
<polygon fill="midnightblue" stroke="midnightblue" points="598.392,-210.148 597.418,-199.598 591.601,-208.453 598.392,-210.148"/>
</g>
<!-- Node14 -->
<g id="node14" class="node"><title>Node14</title>
<g id="a_node14"><a xlink:href="../../d0/d0c/TableFormater_8hpp.html" target="_top" xlink:title="Core/TableFormater.hpp">
<polygon fill="white" stroke="red" points="129.85,-242.5 129.85,-261.5 251.85,-261.5 251.85,-242.5 129.85,-242.5"/>
<text text-anchor="middle" x="190.85" y="-249.5" font-family="Helvetica,sans-Serif" font-size="10.00">Core/TableFormater.hpp</text>
</a>
</g>
</g>
<!-- Node1&#45;&gt;Node14 -->
<g id="edge31" class="edge"><title>Node1&#45;&gt;Node14</title>
<path fill="none" stroke="midnightblue" d="M756.629,-460.355C672.61,-458.189 537.43,-447.335 429.85,-404 407.421,-394.965 405.964,-385.42 385.85,-372 353.817,-350.628 258.18,-293.208 213.863,-266.725"/>
<polygon fill="midnightblue" stroke="midnightblue" points="215.607,-263.69 205.227,-261.568 212.018,-269.7 215.607,-263.69"/>
</g>
<!-- Node15 -->
<g id="node15" class="node"><title>Node15</title>
<g id="a_node15"><a xlink:href="../../df/d53/RootReader_8hpp.html" target="_top" xlink:title="This class reads event&#45;based data from root&#45;files. ">
<polygon fill="white" stroke="red" points="1141.35,-237 1141.35,-267 1266.35,-267 1266.35,-237 1141.35,-237"/>
<text text-anchor="start" x="1149.35" y="-255" font-family="Helvetica,sans-Serif" font-size="10.00">DataReader/RootReader</text>
<text text-anchor="middle" x="1203.85" y="-244" font-family="Helvetica,sans-Serif" font-size="10.00">/RootReader.hpp</text>
</a>
</g>
</g>
<!-- Node1&#45;&gt;Node15 -->
<g id="edge37" class="edge"><title>Node1&#45;&gt;Node15</title>
<path fill="none" stroke="midnightblue" d="M915.094,-452.599C989.492,-444.278 1094.11,-428.618 1126.85,-404 1168.87,-372.405 1189.74,-311.363 1198.52,-277.365"/>
<polygon fill="midnightblue" stroke="midnightblue" points="1201.99,-277.893 1200.95,-267.349 1195.19,-276.239 1201.99,-277.893"/>
</g>
<!-- Node16 -->
<g id="node16" class="node"><title>Node16</title>
<g id="a_node16"><a xlink:href="../../d2/dee/DataCorrection_8hpp.html" target="_top" xlink:title="DataReader/DataCorrection.hpp">
<polygon fill="white" stroke="red" points="942.35,-180.5 942.35,-199.5 1099.35,-199.5 1099.35,-180.5 942.35,-180.5"/>
<text text-anchor="middle" x="1020.85" y="-187.5" font-family="Helvetica,sans-Serif" font-size="10.00">DataReader/DataCorrection.hpp</text>
</a>
</g>
</g>
<!-- Node1&#45;&gt;Node16 -->
<g id="edge53" class="edge"><title>Node1&#45;&gt;Node16</title>
<path fill="none" stroke="midnightblue" d="M868.957,-440.371C915.865,-410.281 999.261,-347.763 1028.85,-268 1035.91,-248.957 1031.85,-225.563 1027.33,-209.592"/>
<polygon fill="midnightblue" stroke="midnightblue" points="1030.61,-208.35 1024.27,-199.866 1023.94,-210.455 1030.61,-208.35"/>
</g>
<!-- Node17 -->
<g id="node17" class="node"><title>Node17</title>
<g id="a_node17"><a xlink:href="../../d4/d9c/CorrectionTable_8hpp.html" target="_top" xlink:title="DataReader/CorrectionTable.hpp">
<polygon fill="white" stroke="red" points="821.85,-62.5 821.85,-81.5 981.85,-81.5 981.85,-62.5 821.85,-62.5"/>
<text text-anchor="middle" x="901.85" y="-69.5" font-family="Helvetica,sans-Serif" font-size="10.00">DataReader/CorrectionTable.hpp</text>
</a>
</g>
</g>
<!-- Node1&#45;&gt;Node17 -->
<g id="edge52" class="edge"><title>Node1&#45;&gt;Node17</title>
<path fill="none" stroke="midnightblue" d="M841.205,-440.401C844.014,-429.697 847.376,-416.178 849.85,-404 873.806,-286.063 893.003,-142.571 899.487,-91.8528"/>
<polygon fill="midnightblue" stroke="midnightblue" points="902.983,-92.1059 900.768,-81.7453 896.039,-91.2263 902.983,-92.1059"/>
</g>
<!-- Node18 -->
<g id="node18" class="node"><title>Node18</title>
<g id="a_node18"><a xlink:href="../../d5/d5e/RootEfficiency_8hpp.html" target="_top" xlink:title="DataReader/RootReader\l/RootEfficiency.hpp">
<polygon fill="white" stroke="red" points="1566.35,-57 1566.35,-87 1691.35,-87 1691.35,-57 1566.35,-57"/>
<text text-anchor="start" x="1574.35" y="-75" font-family="Helvetica,sans-Serif" font-size="10.00">DataReader/RootReader</text>
<text text-anchor="middle" x="1628.85" y="-64" font-family="Helvetica,sans-Serif" font-size="10.00">/RootEfficiency.hpp</text>
</a>
</g>
</g>
<!-- Node1&#45;&gt;Node18 -->
<g id="edge49" class="edge"><title>Node1&#45;&gt;Node18</title>
<path fill="none" stroke="midnightblue" d="M915.095,-460.441C1086.38,-460.402 1485.66,-454.683 1609.85,-404 1662.7,-382.433 1707.85,-378.078 1707.85,-321 1707.85,-321 1707.85,-321 1707.85,-189 1707.85,-150.253 1677.37,-114.883 1654.27,-93.646"/>
<polygon fill="midnightblue" stroke="midnightblue" points="1656.58,-91.0165 1646.78,-87.0012 1651.94,-96.2543 1656.58,-91.0165"/>
</g>
<!-- Node19 -->
<g id="node19" class="node"><title>Node19</title>
<g id="a_node19"><a xlink:href="../../d7/de4/MinLogLH_8hpp.html" target="_top" xlink:title="This class calculates a simple &#45;log(LH) of a intensity and a dataset. ">
<polygon fill="white" stroke="red" points="625.85,-237 625.85,-267 731.85,-267 731.85,-237 625.85,-237"/>
<text text-anchor="start" x="633.85" y="-255" font-family="Helvetica,sans-Serif" font-size="10.00">Estimator/MinLogLH</text>
<text text-anchor="middle" x="678.85" y="-244" font-family="Helvetica,sans-Serif" font-size="10.00">/MinLogLH.hpp</text>
</a>
</g>
</g>
<!-- Node1&#45;&gt;Node19 -->
<g id="edge54" class="edge"><title>Node1&#45;&gt;Node19</title>
<path fill="none" stroke="midnightblue" d="M820.796,-440.152C791.408,-401.405 726.587,-315.94 695.767,-275.304"/>
<polygon fill="midnightblue" stroke="midnightblue" points="698.391,-272.972 689.559,-267.12 692.813,-277.202 698.391,-272.972"/>
</g>
<!-- Node20 -->
<g id="node20" class="node"><title>Node20</title>
<g id="a_node20"><a xlink:href="../../da/d15/MinuitIF_8hpp.html" target="_top" xlink:title="This class provides a wrapper around the Minuit2 library. ">
<polygon fill="white" stroke="red" points="625.85,-373 625.85,-403 747.85,-403 747.85,-373 625.85,-373"/>
<text text-anchor="start" x="633.85" y="-391" font-family="Helvetica,sans-Serif" font-size="10.00">Optimizer/Minuit2/Minuit</text>
<text text-anchor="middle" x="686.85" y="-380" font-family="Helvetica,sans-Serif" font-size="10.00">IF.hpp</text>
</a>
</g>
</g>
<!-- Node1&#45;&gt;Node20 -->
<g id="edge61" class="edge"><title>Node1&#45;&gt;Node20</title>
<path fill="none" stroke="midnightblue" d="M794.74,-440.411C773.13,-430.114 746.794,-417.564 725.552,-407.442"/>
<polygon fill="midnightblue" stroke="midnightblue" points="727.021,-404.265 716.488,-403.123 724.01,-410.584 727.021,-404.265"/>
</g>
<!-- Node21 -->
<g id="node21" class="node"><title>Node21</title>
<g id="a_node21"><a xlink:href="../../d3/d89/MinuitResult_8hpp.html" target="_top" xlink:title="Optimizer/Minuit2/Minuit\lResult.hpp">
<polygon fill="white" stroke="red" points="371.85,-305 371.85,-335 493.85,-335 493.85,-305 371.85,-305"/>
<text text-anchor="start" x="379.85" y="-323" font-family="Helvetica,sans-Serif" font-size="10.00">Optimizer/Minuit2/Minuit</text>
<text text-anchor="middle" x="432.85" y="-312" font-family="Helvetica,sans-Serif" font-size="10.00">Result.hpp</text>
</a>
</g>
</g>
<!-- Node1&#45;&gt;Node21 -->
<g id="edge72" class="edge"><title>Node1&#45;&gt;Node21</title>
<path fill="none" stroke="midnightblue" d="M756.811,-452.504C673.801,-443.583 549.616,-426.955 507.85,-404 481.843,-389.706 460.162,-362.906 446.909,-343.621"/>
<polygon fill="midnightblue" stroke="midnightblue" points="449.705,-341.505 441.262,-335.104 443.87,-345.372 449.705,-341.505"/>
</g>
<!-- Node22 -->
<g id="node22" class="node"><title>Node22</title>
<g id="a_node22"><a xlink:href="../../d3/d1f/HelicityFormalism_8hpp.html" target="_top" xlink:title="Physics/HelicityFormalism.hpp">
<polygon fill="white" stroke="red" points="1413.85,-378.5 1413.85,-397.5 1565.85,-397.5 1565.85,-378.5 1413.85,-378.5"/>
<text text-anchor="middle" x="1489.85" y="-385.5" font-family="Helvetica,sans-Serif" font-size="10.00">Physics/HelicityFormalism.hpp</text>
</a>
</g>
</g>
<!-- Node1&#45;&gt;Node22 -->
<g id="edge73" class="edge"><title>Node1&#45;&gt;Node22</title>
<path fill="none" stroke="midnightblue" d="M914.969,-453.807C1024.25,-444.873 1227.45,-426.901 1399.85,-404 1410.32,-402.609 1421.44,-400.925 1432.17,-399.195"/>
<polygon fill="midnightblue" stroke="midnightblue" points="1433,-402.606 1442.3,-397.53 1431.86,-395.699 1433,-402.606"/>
</g>
<!-- Node23 -->
<g id="node23" class="node"><title>Node23</title>
<g id="a_node23"><a xlink:href="../../db/d41/RunManager_8hpp.html" target="_top" xlink:title="This class provides a RunManager for simple fits. ">
<polygon fill="white" stroke="red" points="901.85,-242.5 901.85,-261.5 1019.85,-261.5 1019.85,-242.5 901.85,-242.5"/>
<text text-anchor="middle" x="960.85" y="-249.5" font-family="Helvetica,sans-Serif" font-size="10.00">Tools/RunManager.hpp</text>
</a>
</g>
</g>
<!-- Node1&#45;&gt;Node23 -->
<g id="edge74" class="edge"><title>Node1&#45;&gt;Node23</title>
<path fill="none" stroke="midnightblue" d="M856.936,-440.252C867.081,-430.053 878.944,-417.036 887.85,-404 918.278,-359.461 942.895,-300.311 954.177,-271.019"/>
<polygon fill="midnightblue" stroke="midnightblue" points="957.453,-272.252 957.716,-261.661 950.905,-269.776 957.453,-272.252"/>
</g>
<!-- Node24 -->
<g id="node24" class="node"><title>Node24</title>
<g id="a_node24"><a xlink:href="../../d6/d6a/FitFractions_8hpp.html" target="_top" xlink:title="Tools/FitFractions.hpp">
<polygon fill="white" stroke="red" points="1489.85,-124.5 1489.85,-143.5 1603.85,-143.5 1603.85,-124.5 1489.85,-124.5"/>
<text text-anchor="middle" x="1546.85" y="-131.5" font-family="Helvetica,sans-Serif" font-size="10.00">Tools/FitFractions.hpp</text>
</a>
</g>
</g>
<!-- Node1&#45;&gt;Node24 -->
<g id="edge87" class="edge"><title>Node1&#45;&gt;Node24</title>
<path fill="none" stroke="midnightblue" d="M915.097,-457.843C1094.15,-452.423 1518.75,-436.296 1574.85,-404 1613.63,-381.674 1631.85,-365.75 1631.85,-321 1631.85,-321 1631.85,-321 1631.85,-251 1631.85,-207.673 1592.79,-169.782 1567.63,-149.867"/>
<polygon fill="midnightblue" stroke="midnightblue" points="1569.47,-146.87 1559.39,-143.593 1565.22,-152.438 1569.47,-146.87"/>
</g>
<!-- Node25 -->
<g id="node25" class="node"><title>Node25</title>
<g id="a_node25"><a xlink:href="../../d7/ded/RootGenerator_8hpp.html" target="_top" xlink:title="Tools/RootGenerator.hpp">
<polygon fill="white" stroke="red" points="1231.85,-180.5 1231.85,-199.5 1357.85,-199.5 1357.85,-180.5 1231.85,-180.5"/>
<text text-anchor="middle" x="1294.85" y="-187.5" font-family="Helvetica,sans-Serif" font-size="10.00">Tools/RootGenerator.hpp</text>
</a>
</g>
</g>
<!-- Node1&#45;&gt;Node25 -->
<g id="edge81" class="edge"><title>Node1&#45;&gt;Node25</title>
<path fill="none" stroke="midnightblue" d="M914.885,-452.248C995.919,-443.235 1115.61,-426.648 1155.85,-404 1225.84,-364.609 1237.3,-338.999 1274.85,-268 1284.62,-249.53 1289.83,-226 1292.45,-209.84"/>
<polygon fill="midnightblue" stroke="midnightblue" points="1295.97,-209.951 1293.94,-199.554 1289.04,-208.952 1295.97,-209.951"/>
</g>
<!-- Node6&#45;&gt;Node2 -->
<g id="edge6" class="edge"><title>Node6&#45;&gt;Node2</title>
<path fill="none" stroke="midnightblue" d="M1092.95,-124.333C1081.54,-108.283 1054.86,-73.9409 1023.85,-56 978.131,-29.5531 916.91,-18.4505 880.034,-13.9343"/>
<polygon fill="midnightblue" stroke="midnightblue" points="880.195,-10.4301 869.864,-12.781 879.406,-17.3855 880.195,-10.4301"/>
</g>
<!-- Node7 -->
<g id="node7" class="node"><title>Node7</title>
<polygon fill="white" stroke="#bfbfbf" points="418.35,-0.5 418.35,-19.5 459.35,-19.5 459.35,-0.5 418.35,-0.5"/>
<text text-anchor="middle" x="438.85" y="-7.5" font-family="Helvetica,sans-Serif" font-size="10.00">string</text>
</g>
<!-- Node6&#45;&gt;Node7 -->
<g id="edge7" class="edge"><title>Node6&#45;&gt;Node7</title>
<path fill="none" stroke="midnightblue" d="M1056.1,-126.914C1000.1,-118.795 898.902,-103.619 812.85,-88 684.642,-64.7291 532.83,-31.8 469.241,-17.7625"/>
<polygon fill="midnightblue" stroke="midnightblue" points="469.981,-14.3416 459.461,-15.5987 468.469,-21.1764 469.981,-14.3416"/>
</g>
<!-- Node6&#45;&gt;Node8 -->
<g id="edge8" class="edge"><title>Node6&#45;&gt;Node8</title>
<path fill="none" stroke="midnightblue" d="M1123.92,-124.403C1154.2,-114.022 1205.29,-96.5062 1239.29,-84.849"/>
<polygon fill="midnightblue" stroke="midnightblue" points="1240.5,-88.1347 1248.82,-81.5806 1238.23,-81.5131 1240.5,-88.1347"/>
</g>
<!-- Node8&#45;&gt;Node2 -->
<g id="edge9" class="edge"><title>Node8&#45;&gt;Node2</title>
<path fill="none" stroke="midnightblue" d="M1242.87,-62.4844C1233.59,-60.1427 1223.35,-57.7648 1213.85,-56 1091.57,-33.2873 944.119,-19.1326 880.108,-13.6264"/>
<polygon fill="midnightblue" stroke="midnightblue" points="880.118,-10.1147 869.858,-12.7576 879.526,-17.0897 880.118,-10.1147"/>
</g>
<!-- Node9&#45;&gt;Node7 -->
<g id="edge12" class="edge"><title>Node9&#45;&gt;Node7</title>
<path fill="none" stroke="midnightblue" d="M298.212,-124.429C302.911,-108.841 314.832,-75.6503 335.85,-56 356.246,-36.9307 386.019,-25.1201 408.316,-18.4113"/>
<polygon fill="midnightblue" stroke="midnightblue" points="409.303,-21.7694 417.974,-15.6801 407.399,-15.0335 409.303,-21.7694"/>
</g>
<!-- Node9&#45;&gt;Node10 -->
<g id="edge13" class="edge"><title>Node9&#45;&gt;Node10</title>
<path fill="none" stroke="midnightblue" d="M316.338,-124.403C340.655,-114.2 381.398,-97.1055 409.167,-85.4544"/>
<polygon fill="midnightblue" stroke="midnightblue" points="410.532,-88.6771 418.399,-81.5806 407.824,-82.2223 410.532,-88.6771"/>
</g>
<!-- Node9&#45;&gt;Node11 -->
<g id="edge17" class="edge"><title>Node9&#45;&gt;Node11</title>
<path fill="none" stroke="midnightblue" d="M284.388,-124.403C271.675,-114.869 250.937,-99.3154 235.597,-87.8106"/>
<polygon fill="midnightblue" stroke="midnightblue" points="237.391,-84.7806 227.291,-81.5806 233.191,-90.3806 237.391,-84.7806"/>
</g>
<!-- Node10&#45;&gt;Node2 -->
<g id="edge15" class="edge"><title>Node10&#45;&gt;Node2</title>
<path fill="none" stroke="midnightblue" d="M497.015,-62.4672C584.311,-49.6609 746.316,-25.8949 815.341,-15.769"/>
<polygon fill="midnightblue" stroke="midnightblue" points="816.209,-19.1792 825.595,-14.2647 815.193,-12.2533 816.209,-19.1792"/>
</g>
<!-- Node10&#45;&gt;Node3 -->
<g id="edge16" class="edge"><title>Node10&#45;&gt;Node3</title>
<path fill="none" stroke="midnightblue" d="M500.159,-67.4042C691.485,-56.1827 1273.8,-22.0292 1425.44,-13.1356"/>
<polygon fill="midnightblue" stroke="midnightblue" points="1425.82,-16.6192 1435.6,-12.5396 1425.41,-9.6312 1425.82,-16.6192"/>
</g>
<!-- Node10&#45;&gt;Node7 -->
<g id="edge14" class="edge"><title>Node10&#45;&gt;Node7</title>
<path fill="none" stroke="midnightblue" d="M438.85,-62.4035C438.85,-53.9381 438.85,-40.7283 438.85,-29.8199"/>
<polygon fill="midnightblue" stroke="midnightblue" points="442.35,-29.5806 438.85,-19.5806 435.35,-29.5806 442.35,-29.5806"/>
</g>
<!-- Node12&#45;&gt;Node2 -->
<g id="edge21" class="edge"><title>Node12&#45;&gt;Node2</title>
<path fill="none" stroke="midnightblue" d="M368.311,-180.168C363.871,-153.432 352.372,-74.0987 368.85,-56 398.924,-22.9682 713.234,-13.7184 815.729,-11.5702"/>
<polygon fill="midnightblue" stroke="midnightblue" points="815.865,-15.0683 825.793,-11.3681 815.724,-8.06972 815.865,-15.0683"/>
</g>
<!-- Node12&#45;&gt;Node3 -->
<g id="edge20" class="edge"><title>Node12&#45;&gt;Node3</title>
<path fill="none" stroke="midnightblue" d="M430.082,-180.805C541.343,-165.312 786.398,-129.531 990.85,-88 1049.58,-76.0691 1062.94,-67.0592 1121.85,-56 1231.66,-35.3837 1363.16,-20.8132 1425.56,-14.5021"/>
<polygon fill="midnightblue" stroke="midnightblue" points="1426.08,-17.968 1435.68,-13.4901 1425.38,-11.0028 1426.08,-17.968"/>
</g>
<!-- Node12&#45;&gt;Node7 -->
<g id="edge19" class="edge"><title>Node12&#45;&gt;Node7</title>
<path fill="none" stroke="midnightblue" d="M328.729,-180.457C253.391,-163.028 105.707,-119.575 159.85,-56 191.49,-18.8473 342.422,-12.2623 408.148,-11.1728"/>
<polygon fill="midnightblue" stroke="midnightblue" points="408.345,-14.6706 418.298,-11.0376 408.252,-7.67122 408.345,-14.6706"/>
</g>
<!-- Node12&#45;&gt;Node9 -->
<g id="edge23" class="edge"><title>Node12&#45;&gt;Node9</title>
<path fill="none" stroke="midnightblue" d="M357.96,-180.324C346.7,-172.107 329.563,-159.602 316.141,-149.807"/>
<polygon fill="midnightblue" stroke="midnightblue" points="318.097,-146.901 307.955,-143.834 313.97,-152.556 318.097,-146.901"/>
</g>
<!-- Node12&#45;&gt;Node10 -->
<g id="edge22" class="edge"><title>Node12&#45;&gt;Node10</title>
<path fill="none" stroke="midnightblue" d="M375.036,-180.281C386.38,-161.21 413.577,-115.488 428.543,-90.3272"/>
<polygon fill="midnightblue" stroke="midnightblue" points="431.687,-91.8886 433.791,-81.5048 425.671,-88.31 431.687,-91.8886"/>
</g>
<!-- Node12&#45;&gt;Node11 -->
<g id="edge24" class="edge"><title>Node12&#45;&gt;Node11</title>
<path fill="none" stroke="midnightblue" d="M309.826,-181.91C283.546,-175.868 254.325,-164.686 234.85,-144 221.618,-129.945 217.389,-107.707 216.144,-91.8661"/>
<polygon fill="midnightblue" stroke="midnightblue" points="219.631,-91.5001 215.679,-81.6702 212.638,-91.8194 219.631,-91.5001"/>
</g>
<!-- Node13&#45;&gt;Node2 -->
<g id="edge26" class="edge"><title>Node13&#45;&gt;Node2</title>
<path fill="none" stroke="midnightblue" d="M604.159,-180.383C616.389,-156.805 653.704,-90.6773 703.85,-56 737.863,-32.4789 784.694,-20.8541 815.595,-15.3984"/>
<polygon fill="midnightblue" stroke="midnightblue" points="816.515,-18.7941 825.814,-13.7165 815.378,-11.8871 816.515,-18.7941"/>
</g>
<!-- Node13&#45;&gt;Node3 -->
<g id="edge27" class="edge"><title>Node13&#45;&gt;Node3</title>
<path fill="none" stroke="midnightblue" d="M657.882,-185.68C730.621,-180.651 858.754,-168.911 965.85,-144 1081.81,-117.028 1103.77,-86.4822 1218.85,-56 1291.15,-36.8507 1377.65,-22.9153 1425.5,-15.9719"/>
<polygon fill="midnightblue" stroke="midnightblue" points="1426.27,-19.3981 1435.67,-14.5173 1425.27,-12.4686 1426.27,-19.3981"/>
</g>
<!-- Node13&#45;&gt;Node7 -->
<g id="edge28" class="edge"><title>Node13&#45;&gt;Node7</title>
<path fill="none" stroke="midnightblue" d="M595.522,-180.358C583.921,-157.81 550.184,-96.1643 508.85,-56 495.969,-43.4841 479.092,-32.5124 465.137,-24.5365"/>
<polygon fill="midnightblue" stroke="midnightblue" points="466.474,-21.277 456.027,-19.5111 463.093,-27.4062 466.474,-21.277"/>
</g>
<!-- Node13&#45;&gt;Node9 -->
<g id="edge30" class="edge"><title>Node13&#45;&gt;Node9</title>
<path fill="none" stroke="midnightblue" d="M551.68,-180.444C497.981,-170.905 411.164,-155.483 353.795,-145.293"/>
<polygon fill="midnightblue" stroke="midnightblue" points="354.252,-141.819 343.794,-143.516 353.028,-148.712 354.252,-141.819"/>
</g>
<!-- Node13&#45;&gt;Node10 -->
<g id="edge29" class="edge"><title>Node13&#45;&gt;Node10</title>
<path fill="none" stroke="midnightblue" d="M588.011,-180.47C560.68,-160.778 492.93,-111.964 458.953,-87.484"/>
<polygon fill="midnightblue" stroke="midnightblue" points="460.865,-84.5483 450.706,-81.5423 456.773,-90.2277 460.865,-84.5483"/>
</g>
<!-- Node14&#45;&gt;Node2 -->
<g id="edge32" class="edge"><title>Node14&#45;&gt;Node2</title>
<path fill="none" stroke="midnightblue" d="M185.108,-242.163C166.101,-211.71 109.231,-110.038 159.85,-56 182.534,-31.7835 682.211,-15.7539 815.447,-11.8998"/>
<polygon fill="midnightblue" stroke="midnightblue" points="815.9,-15.3883 825.796,-11.6037 815.7,-8.39121 815.9,-15.3883"/>
</g>
<!-- Node14&#45;&gt;Node7 -->
<g id="edge33" class="edge"><title>Node14&#45;&gt;Node7</title>
<path fill="none" stroke="midnightblue" d="M129.666,-244.921C100.431,-238.587 67.942,-225.783 49.8498,-200 10.1632,-143.442 -42.6235,-166.891 136.85,-56 181.903,-28.1631 340.604,-16.3664 408.101,-12.5289"/>
<polygon fill="midnightblue" stroke="midnightblue" points="408.325,-16.0219 418.119,-11.9801 407.942,-9.03239 408.325,-16.0219"/>
</g>
<!-- Node14&#45;&gt;Node12 -->
<g id="edge34" class="edge"><title>Node14&#45;&gt;Node12</title>
<path fill="none" stroke="midnightblue" d="M216.496,-242.403C247.467,-232.022 299.723,-214.506 334.5,-202.849"/>
<polygon fill="midnightblue" stroke="midnightblue" points="335.882,-206.077 344.251,-199.581 333.657,-199.44 335.882,-206.077"/>
</g>
<!-- Node15&#45;&gt;Node2 -->
<g id="edge38" class="edge"><title>Node15&#45;&gt;Node2</title>
<path fill="none" stroke="midnightblue" d="M1200.45,-236.76C1193.97,-211.828 1177.9,-159.545 1149.85,-124 1118.35,-84.0881 1104.2,-76.9092 1057.85,-56 998.475,-29.2139 922.344,-18.0303 879.975,-13.6284"/>
<polygon fill="midnightblue" stroke="midnightblue" points="880.254,-10.1391 869.961,-12.65 879.573,-17.1059 880.254,-10.1391"/>
</g>
<!-- Node15&#45;&gt;Node3 -->
<g id="edge39" class="edge"><title>Node15&#45;&gt;Node3</title>
<path fill="none" stroke="midnightblue" d="M1266.55,-240.625C1353.09,-226.27 1499.2,-201.891 1504.85,-200 1556.12,-182.833 1566.07,-171.106 1612.85,-144 1632.74,-132.473 1688.84,-108.184 1699.85,-88 1706.66,-75.515 1708.92,-66.951 1699.85,-56 1674.67,-25.6073 1558.43,-15.5906 1498.23,-12.4096"/>
<polygon fill="midnightblue" stroke="midnightblue" points="1498.18,-8.9032 1488.02,-11.9076 1497.84,-15.8947 1498.18,-8.9032"/>
</g>
<!-- Node15&#45;&gt;Node6 -->
<g id="edge41" class="edge"><title>Node15&#45;&gt;Node6</title>
<path fill="none" stroke="midnightblue" d="M1191.91,-236.961C1179.56,-222.519 1159.62,-199.452 1141.85,-180 1132.9,-170.206 1122.65,-159.457 1114.4,-150.921"/>
<polygon fill="midnightblue" stroke="midnightblue" points="1116.69,-148.254 1107.21,-143.518 1111.66,-153.131 1116.69,-148.254"/>
</g>
<!-- Node15&#45;&gt;Node7 -->
<g id="edge40" class="edge"><title>Node15&#45;&gt;Node7</title>
<path fill="none" stroke="midnightblue" d="M1141.23,-242.478C1085.82,-234.169 1003.1,-219.875 932.85,-200 750.619,-148.444 541.386,-57.2903 466.931,-23.8025"/>
<polygon fill="midnightblue" stroke="midnightblue" points="468.287,-20.5744 457.733,-19.6494 465.407,-26.9543 468.287,-20.5744"/>
</g>
<!-- Node15&#45;&gt;Node16 -->
<g id="edge42" class="edge"><title>Node15&#45;&gt;Node16</title>
<path fill="none" stroke="midnightblue" d="M1160.94,-236.933C1129.15,-226.508 1086.32,-212.467 1056.42,-202.663"/>
<polygon fill="midnightblue" stroke="midnightblue" points="1057.41,-199.302 1046.81,-199.513 1055.23,-205.954 1057.41,-199.302"/>
</g>
<!-- Node16&#45;&gt;Node6 -->
<g id="edge43" class="edge"><title>Node16&#45;&gt;Node6</title>
<path fill="none" stroke="midnightblue" d="M1033.38,-180.324C1045.44,-171.979 1063.88,-159.212 1078.12,-149.352"/>
<polygon fill="midnightblue" stroke="midnightblue" points="1080.12,-152.224 1086.35,-143.655 1076.13,-146.469 1080.12,-152.224"/>
</g>
<!-- Node16&#45;&gt;Node11 -->
<g id="edge44" class="edge"><title>Node16&#45;&gt;Node11</title>
<path fill="none" stroke="midnightblue" d="M961.656,-180.47C812.021,-158.908 420.086,-102.43 272.85,-81.2137"/>
<polygon fill="midnightblue" stroke="midnightblue" points="273.076,-77.7101 262.679,-79.748 272.077,-84.6386 273.076,-77.7101"/>
</g>
<!-- Node16&#45;&gt;Node17 -->
<g id="edge45" class="edge"><title>Node16&#45;&gt;Node17</title>
<path fill="none" stroke="midnightblue" d="M1011.91,-180.281C991.908,-160.788 943.348,-113.452 917.943,-88.6879"/>
<polygon fill="midnightblue" stroke="midnightblue" points="920.178,-85.9788 910.575,-81.5048 915.292,-90.9913 920.178,-85.9788"/>
</g>
<!-- Node17&#45;&gt;Node2 -->
<g id="edge47" class="edge"><title>Node17&#45;&gt;Node2</title>
<path fill="none" stroke="midnightblue" d="M894.113,-62.4035C885.852,-53.2252 872.573,-38.4699 862.355,-27.1173"/>
<polygon fill="midnightblue" stroke="midnightblue" points="864.864,-24.6722 855.572,-19.5806 859.66,-29.3549 864.864,-24.6722"/>
</g>
<!-- Node17&#45;&gt;Node3 -->
<g id="edge48" class="edge"><title>Node17&#45;&gt;Node3</title>
<path fill="none" stroke="midnightblue" d="M975.84,-62.4813C994.75,-60.3346 1015.05,-58.0565 1033.85,-56 1178.97,-40.1258 1351.89,-22.269 1425.64,-14.7034"/>
<polygon fill="midnightblue" stroke="midnightblue" points="1426.2,-18.1649 1435.79,-13.6633 1425.48,-11.2014 1426.2,-18.1649"/>
</g>
<!-- Node17&#45;&gt;Node7 -->
<g id="edge46" class="edge"><title>Node17&#45;&gt;Node7</title>
<path fill="none" stroke="midnightblue" d="M836.005,-62.4672C734.635,-49.3307 544.274,-24.6619 469.819,-15.0133"/>
<polygon fill="midnightblue" stroke="midnightblue" points="470.066,-11.5161 459.699,-13.7018 469.166,-18.4581 470.066,-11.5161"/>
</g>
<!-- Node18&#45;&gt;Node2 -->
<g id="edge50" class="edge"><title>Node18&#45;&gt;Node2</title>
<path fill="none" stroke="midnightblue" d="M1566.26,-62.1176C1549.28,-59.904 1530.88,-57.6845 1513.85,-56 1270.94,-31.9748 976.89,-17.0209 880.299,-12.4753"/>
<polygon fill="midnightblue" stroke="midnightblue" points="880.177,-8.96591 870.025,-11.9962 879.851,-15.9583 880.177,-8.96591"/>
</g>
<!-- Node18&#45;&gt;Node3 -->
<g id="edge51" class="edge"><title>Node18&#45;&gt;Node3</title>
<path fill="none" stroke="midnightblue" d="M1589.7,-56.9327C1561.02,-46.6292 1522.51,-32.7935 1495.27,-23.0079"/>
<polygon fill="midnightblue" stroke="midnightblue" points="1496.38,-19.6874 1485.79,-19.6 1494.01,-26.2752 1496.38,-19.6874"/>
</g>
<!-- Node19&#45;&gt;Node2 -->
<g id="edge55" class="edge"><title>Node19&#45;&gt;Node2</title>
<path fill="none" stroke="midnightblue" d="M679.528,-236.76C681.943,-201.582 692.863,-109.552 741.85,-56 761.245,-34.7976 792.275,-23.2182 815.761,-17.1397"/>
<polygon fill="midnightblue" stroke="midnightblue" points="816.713,-20.5109 825.63,-14.7892 815.092,-13.7014 816.713,-20.5109"/>
</g>
<!-- Node19&#45;&gt;Node3 -->
<g id="edge56" class="edge"><title>Node19&#45;&gt;Node3</title>
<path fill="none" stroke="midnightblue" d="M731.974,-247.234C892.784,-235.813 1363.55,-202.208 1366.85,-200 1427.14,-159.675 1450.95,-69.0766 1458.68,-29.7783"/>
<polygon fill="midnightblue" stroke="midnightblue" points="1462.16,-30.2051 1460.52,-19.738 1455.27,-28.9435 1462.16,-30.2051"/>
</g>
<!-- Node19&#45;&gt;Node6 -->
<g id="edge58" class="edge"><title>Node19&#45;&gt;Node6</title>
<path fill="none" stroke="midnightblue" d="M728.939,-236.874C780.147,-222.461 861.997,-199.506 932.85,-180 975.115,-168.364 1023.5,-155.275 1057.08,-146.225"/>
<polygon fill="midnightblue" stroke="midnightblue" points="1058.26,-149.533 1067.01,-143.553 1056.44,-142.774 1058.26,-149.533"/>
</g>
<!-- Node19&#45;&gt;Node7 -->
<g id="edge57" class="edge"><title>Node19&#45;&gt;Node7</title>
<path fill="none" stroke="midnightblue" d="M625.619,-248.53C551.566,-244.038 413.823,-231.839 300.85,-200 218.698,-176.847 165.048,-170.927 144.85,-88 141.484,-74.1818 135.585,-66.7906 144.85,-56 178.535,-16.767 339.467,-11.3788 407.921,-10.8917"/>
<polygon fill="midnightblue" stroke="midnightblue" points="408.094,-14.3911 418.08,-10.8512 408.066,-7.39121 408.094,-14.3911"/>
</g>
<!-- Node19&#45;&gt;Node12 -->
<g id="edge59" class="edge"><title>Node19&#45;&gt;Node12</title>
<path fill="none" stroke="midnightblue" d="M625.731,-240.686C569.246,-229.718 480.393,-212.465 423.65,-201.447"/>
<polygon fill="midnightblue" stroke="midnightblue" points="424.274,-198.002 413.79,-199.532 422.939,-204.874 424.274,-198.002"/>
</g>
<!-- Node19&#45;&gt;Node13 -->
<g id="edge60" class="edge"><title>Node19&#45;&gt;Node13</title>
<path fill="none" stroke="midnightblue" d="M660.128,-236.781C647.938,-227.523 632.058,-215.462 619.657,-206.044"/>
<polygon fill="midnightblue" stroke="midnightblue" points="621.425,-202.992 611.345,-199.731 617.192,-208.566 621.425,-202.992"/>
</g>
<!-- Node20&#45;&gt;Node2 -->
<g id="edge62" class="edge"><title>Node20&#45;&gt;Node2</title>
<path fill="none" stroke="midnightblue" d="M694.974,-372.903C707.063,-351.174 729.474,-307.832 739.85,-268 749.75,-229.996 741.143,-218.696 747.85,-180 757.569,-123.919 746.808,-102.344 779.85,-56 789.532,-42.42 804.704,-31.8087 818.263,-24.3097"/>
<polygon fill="midnightblue" stroke="midnightblue" points="820.041,-27.3302 827.304,-19.6171 816.816,-21.1172 820.041,-27.3302"/>
</g>
<!-- Node20&#45;&gt;Node3 -->
<g id="edge63" class="edge"><title>Node20&#45;&gt;Node3</title>
<path fill="none" stroke="midnightblue" d="M748.172,-380.071C945.12,-356.663 1557.06,-274.611 1699.85,-144 1730.79,-115.701 1760.97,-87.9763 1733.85,-56 1704.02,-20.8311 1564.99,-13.1104 1498.05,-11.4426"/>
<polygon fill="midnightblue" stroke="midnightblue" points="1498.03,-7.94133 1487.96,-11.2236 1497.88,-14.9397 1498.03,-7.94133"/>
</g>
<!-- Node20&#45;&gt;Node12 -->
<g id="edge64" class="edge"><title>Node20&#45;&gt;Node12</title>
<path fill="none" stroke="midnightblue" d="M664.052,-372.904C605.554,-336.735 450.657,-240.963 392.415,-204.952"/>
<polygon fill="midnightblue" stroke="midnightblue" points="393.967,-201.796 383.62,-199.514 390.285,-207.75 393.967,-201.796"/>
</g>
<!-- Node20&#45;&gt;Node21 -->
<g id="edge65" class="edge"><title>Node20&#45;&gt;Node21</title>
<path fill="none" stroke="midnightblue" d="M632.672,-372.922C592.881,-362.583 538.686,-348.501 496.774,-337.61"/>
<polygon fill="midnightblue" stroke="midnightblue" points="497.503,-334.184 486.944,-335.056 495.743,-340.959 497.503,-334.184"/>
</g>
<!-- Node21&#45;&gt;Node2 -->
<g id="edge66" class="edge"><title>Node21&#45;&gt;Node2</title>
<path fill="none" stroke="midnightblue" d="M440.514,-304.79C465.768,-259.519 551.331,-118.026 665.85,-56 714.04,-29.8987 777.573,-18.6652 815.418,-14.0332"/>
<polygon fill="midnightblue" stroke="midnightblue" points="816.296,-17.456 825.835,-12.8465 815.503,-10.5009 816.296,-17.456"/>
</g>
<!-- Node21&#45;&gt;Node3 -->
<g id="edge68" class="edge"><title>Node21&#45;&gt;Node3</title>
<path fill="none" stroke="midnightblue" d="M494.035,-315.961C674.774,-306.889 1198.43,-279.901 1274.85,-268 1396.27,-249.091 1428.42,-244.808 1542.85,-200 1628.49,-166.465 1676.72,-170.754 1716.85,-88 1723.05,-75.2028 1725.99,-66.8955 1716.85,-56 1689.34,-23.2136 1561.7,-14.3046 1498.08,-11.8916"/>
<polygon fill="midnightblue" stroke="midnightblue" points="1498.2,-8.39357 1488.08,-11.546 1497.96,-15.3894 1498.2,-8.39357"/>
</g>
<!-- Node21&#45;&gt;Node7 -->
<g id="edge67" class="edge"><title>Node21&#45;&gt;Node7</title>
<path fill="none" stroke="midnightblue" d="M371.505,-316.284C239.148,-307.613 -56.1636,-271.645 9.84979,-124 28.3499,-82.6229 44.6201,-74.8264 85.8498,-56 143.164,-29.8291 333.237,-16.795 408.134,-12.5778"/>
<polygon fill="midnightblue" stroke="midnightblue" points="408.525,-16.0617 418.319,-12.0191 408.142,-9.07218 408.525,-16.0617"/>
</g>
<!-- Node21&#45;&gt;Node11 -->
<g id="edge71" class="edge"><title>Node21&#45;&gt;Node11</title>
<path fill="none" stroke="midnightblue" d="M403.209,-304.908C354.83,-280.095 260.246,-223.593 219.85,-144 211.657,-127.858 211.537,-106.915 212.93,-91.9666"/>
<polygon fill="midnightblue" stroke="midnightblue" points="216.423,-92.2374 214.181,-81.8825 209.476,-91.3753 216.423,-92.2374"/>
</g>
<!-- Node21&#45;&gt;Node12 -->
<g id="edge69" class="edge"><title>Node21&#45;&gt;Node12</title>
<path fill="none" stroke="midnightblue" d="M425.867,-304.813C414.322,-281.357 391.28,-234.541 378.643,-208.866"/>
<polygon fill="midnightblue" stroke="midnightblue" points="381.626,-207 374.07,-199.574 375.345,-210.092 381.626,-207"/>
</g>
<!-- Node21&#45;&gt;Node14 -->
<g id="edge70" class="edge"><title>Node21&#45;&gt;Node14</title>
<path fill="none" stroke="midnightblue" d="M381.232,-304.922C336.604,-292.751 272.958,-275.393 231.773,-264.161"/>
<polygon fill="midnightblue" stroke="midnightblue" points="232.635,-260.768 222.067,-261.514 230.794,-267.522 232.635,-260.768"/>
</g>
<!-- Node23&#45;&gt;Node2 -->
<g id="edge75" class="edge"><title>Node23&#45;&gt;Node2</title>
<path fill="none" stroke="midnightblue" d="M953.506,-242.44C943.132,-229.28 926.156,-203.168 932.85,-180 949.737,-121.549 1026.84,-105.056 990.85,-56 965.636,-21.6322 914.156,-12.8204 880.337,-10.9317"/>
<polygon fill="midnightblue" stroke="midnightblue" points="880.16,-7.42247 870.034,-10.5382 879.893,-14.4174 880.16,-7.42247"/>
</g>
<!-- Node23&#45;&gt;Node3 -->
<g id="edge76" class="edge"><title>Node23&#45;&gt;Node3</title>
<path fill="none" stroke="midnightblue" d="M1020.16,-245.619C1146.32,-234.047 1430.45,-207.252 1437.85,-200 1484.08,-154.673 1473.64,-68.1585 1466.17,-29.9466"/>
<polygon fill="midnightblue" stroke="midnightblue" points="1469.5,-28.7972 1464.01,-19.7375 1462.66,-30.2453 1469.5,-28.7972"/>
</g>
<!-- Node23&#45;&gt;Node12 -->
<g id="edge77" class="edge"><title>Node23&#45;&gt;Node12</title>
<path fill="none" stroke="midnightblue" d="M901.749,-245C792.102,-233.868 557.663,-210.067 440.107,-198.133"/>
<polygon fill="midnightblue" stroke="midnightblue" points="440.434,-194.648 430.132,-197.12 439.727,-201.612 440.434,-194.648"/>
</g>
<!-- Node23&#45;&gt;Node24 -->
<g id="edge78" class="edge"><title>Node23&#45;&gt;Node24</title>
<path fill="none" stroke="midnightblue" d="M1020.03,-245.632C1153.16,-233.489 1465.53,-204.608 1475.85,-200 1499.83,-189.291 1521.13,-167.234 1533.99,-151.798"/>
<polygon fill="midnightblue" stroke="midnightblue" points="1537.03,-153.603 1540.55,-143.61 1531.57,-149.226 1537.03,-153.603"/>
</g>
<!-- Node24&#45;&gt;Node2 -->
<g id="edge80" class="edge"><title>Node24&#45;&gt;Node2</title>
<path fill="none" stroke="midnightblue" d="M1531.09,-124.471C1499.84,-108.018 1427.39,-72.0995 1361.85,-56 1183.9,-12.2881 962.135,-9.70106 880.208,-10.426"/>
<polygon fill="midnightblue" stroke="midnightblue" points="879.995,-6.92812 870.035,-10.5403 880.074,-13.9277 879.995,-6.92812"/>
</g>
<!-- Node24&#45;&gt;Node3 -->
<g id="edge79" class="edge"><title>Node24&#45;&gt;Node3</title>
<path fill="none" stroke="midnightblue" d="M1544.52,-124.26C1540.22,-109.254 1529.98,-78.0749 1513.85,-56 1505.37,-44.4034 1493.38,-33.7677 1483.05,-25.751"/>
<polygon fill="midnightblue" stroke="midnightblue" points="1484.98,-22.8295 1474.87,-19.6694 1480.8,-28.4461 1484.98,-22.8295"/>
</g>
<!-- Node25&#45;&gt;Node2 -->
<g id="edge82" class="edge"><title>Node25&#45;&gt;Node2</title>
<path fill="none" stroke="midnightblue" d="M1299.03,-180.219C1311.38,-153.63 1345.86,-74.677 1328.85,-56 1298.64,-22.8373 983.026,-13.6753 880.104,-11.5596"/>
<polygon fill="midnightblue" stroke="midnightblue" points="880.066,-8.05829 869.999,-11.3607 879.928,-15.0569 880.066,-8.05829"/>
</g>
<!-- Node25&#45;&gt;Node3 -->
<g id="edge84" class="edge"><title>Node25&#45;&gt;Node3</title>
<path fill="none" stroke="midnightblue" d="M1301.71,-180.218C1318.94,-158.348 1365.83,-100.041 1409.85,-56 1420.4,-45.4453 1433.05,-34.4691 1443.22,-25.9994"/>
<polygon fill="midnightblue" stroke="midnightblue" points="1445.59,-28.5891 1451.09,-19.5387 1441.14,-23.1787 1445.59,-28.5891"/>
</g>
<!-- Node25&#45;&gt;Node6 -->
<g id="edge85" class="edge"><title>Node25&#45;&gt;Node6</title>
<path fill="none" stroke="midnightblue" d="M1263.79,-180.444C1230.25,-171.201 1176.65,-156.436 1139.71,-146.257"/>
<polygon fill="midnightblue" stroke="midnightblue" points="1140.33,-142.798 1129.76,-143.516 1138.47,-149.547 1140.33,-142.798"/>
</g>
<!-- Node25&#45;&gt;Node7 -->
<g id="edge83" class="edge"><title>Node25&#45;&gt;Node7</title>
<path fill="none" stroke="midnightblue" d="M1276.13,-180.482C1248.54,-167.963 1195.34,-143.92 1149.85,-124 1079.45,-93.1681 1065.45,-74.4736 990.85,-56 890.668,-31.193 570.328,-16.3464 469.523,-12.1999"/>
<polygon fill="midnightblue" stroke="midnightblue" points="469.533,-8.69749 459.399,-11.7893 469.249,-15.6917 469.533,-8.69749"/>
</g>
<!-- Node25&#45;&gt;Node8 -->
<g id="edge86" class="edge"><title>Node25&#45;&gt;Node8</title>
<path fill="none" stroke="midnightblue" d="M1293.27,-180.281C1289.88,-161.547 1281.83,-117.098 1277.23,-91.6822"/>
<polygon fill="midnightblue" stroke="midnightblue" points="1280.61,-90.7213 1275.39,-81.5048 1273.73,-91.9683 1280.61,-90.7213"/>
</g>
</g>
</svg>
