<?xml version="1.0" encoding="UTF-8" standalone="no"?>
<!DOCTYPE svg PUBLIC "-//W3C//DTD SVG 1.1//EN"
 "http://www.w3.org/Graphics/SVG/1.1/DTD/svg11.dtd">
<!-- Generated by graphviz version 2.26.3 (20100126.1600)
 -->
<!-- Title: G Pages: 1 -->
<svg width="132pt" height="522pt"
 viewBox="0.00 0.00 132.00 522.00" xmlns="http://www.w3.org/2000/svg" xmlns:xlink="http://www.w3.org/1999/xlink">
<g id="graph1" class="graph" transform="scale(1 1) rotate(0) translate(4 518)">
<title>G</title>
<polygon fill="white" stroke="white" points="-4,5 -4,-518 129,-518 129,5 -4,5"/>
<!-- Node1 -->
<g id="node1" class="node"><title>Node1</title>
<polygon fill="#bfbfbf" stroke="black" points="12.5,-1 12.5,-285 111.5,-285 111.5,-1 12.5,-1"/>
<text text-anchor="middle" x="62" y="-272" font-family="Helvetica,sans-Serif" font-size="10.00">Resonance</text>
<polyline fill="none" stroke="black" points="12.5,-264 111.5,-264 "/>
<text text-anchor="start" x="20.5" y="-251" font-family="Helvetica,sans-Serif" font-size="10.00">+ m_enable</text>
<text text-anchor="start" x="20.5" y="-238" font-family="Helvetica,sans-Serif" font-size="10.00">+ m_name</text>
<text text-anchor="start" x="20.5" y="-225" font-family="Helvetica,sans-Serif" font-size="10.00">+ m_reference</text>
<text text-anchor="start" x="20.5" y="-212" font-family="Helvetica,sans-Serif" font-size="10.00">+ m_mass</text>
<text text-anchor="start" x="20.5" y="-199" font-family="Helvetica,sans-Serif" font-size="10.00">+ m_mass_min</text>
<text text-anchor="start" x="20.5" y="-186" font-family="Helvetica,sans-Serif" font-size="10.00">+ m_mass_max</text>
<text text-anchor="start" x="20.5" y="-173" font-family="Helvetica,sans-Serif" font-size="10.00">+ m_mesonRadius</text>
<text text-anchor="start" x="20.5" y="-160" font-family="Helvetica,sans-Serif" font-size="10.00">+ m_width</text>
<text text-anchor="start" x="20.5" y="-147" font-family="Helvetica,sans-Serif" font-size="10.00">+ m_width_min</text>
<text text-anchor="start" x="20.5" y="-134" font-family="Helvetica,sans-Serif" font-size="10.00">+ m_width_max</text>
<text text-anchor="start" x="20.5" y="-121" font-family="Helvetica,sans-Serif" font-size="10.00">+ m_norm</text>
<text text-anchor="start" x="20.5" y="-108" font-family="Helvetica,sans-Serif" font-size="10.00">+ m_strength</text>
<text text-anchor="start" x="20.5" y="-95" font-family="Helvetica,sans-Serif" font-size="10.00">+ m_phase</text>
<text text-anchor="start" x="20.5" y="-82" font-family="Helvetica,sans-Serif" font-size="10.00">+ m_spin</text>
<text text-anchor="start" x="20.5" y="-69" font-family="Helvetica,sans-Serif" font-size="10.00">+ m_m</text>
<text text-anchor="start" x="20.5" y="-56" font-family="Helvetica,sans-Serif" font-size="10.00">+ m_n</text>
<text text-anchor="start" x="20.5" y="-43" font-family="Helvetica,sans-Serif" font-size="10.00">+ m_daugtherA</text>
<text text-anchor="start" x="20.5" y="-30" font-family="Helvetica,sans-Serif" font-size="10.00">+ m_daugtherB</text>
<polyline fill="none" stroke="black" points="12.5,-22 111.5,-22 "/>
<text text-anchor="middle" x="62" y="-9" font-family="Helvetica,sans-Serif" font-size="10.00"> </text>
</g>
<!-- Node2 -->
<g id="node2" class="node"><title>Node2</title>
<a xlink:title="STL class.">
<polygon fill="white" stroke="#bfbfbf" points="32,-348.5 32,-411.5 92,-411.5 92,-348.5 32,-348.5"/>
<text text-anchor="middle" x="62" y="-398.5" font-family="Helvetica,sans-Serif" font-size="10.00">std::string</text>
<polyline fill="none" stroke="#bfbfbf" points="32,-390.5 92,-390.5 "/>
<text text-anchor="middle" x="62" y="-377.5" font-family="Helvetica,sans-Serif" font-size="10.00"> </text>
<polyline fill="none" stroke="#bfbfbf" points="32,-369.5 92,-369.5 "/>
<text text-anchor="middle" x="62" y="-356.5" font-family="Helvetica,sans-Serif" font-size="10.00"> </text>
</a>
</g>
<!-- Node2&#45;&gt;Node1 -->
<g id="edge2" class="edge"><title>Node2&#45;&gt;Node1</title>
<path fill="none" stroke="#9a32cd" stroke-dasharray="5,2" d="M62,-337.914C62,-322.565 62,-304.235 62,-285.046"/>
<polygon fill="#9a32cd" stroke="#9a32cd" points="62,-348.037 57.5001,-338.037 62,-343.037 62.0001,-338.037 62.0001,-338.037 62.0001,-338.037 62,-343.037 66.5001,-338.037 62,-348.037 62,-348.037"/>
<text text-anchor="middle" x="89.5" y="-321" font-family="Helvetica,sans-Serif" font-size="10.00">m_reference</text>
<text text-anchor="middle" x="89.5" y="-308" font-family="Helvetica,sans-Serif" font-size="10.00">m_name</text>
</g>
<!-- Node3 -->
<g id="node4" class="node"><title>Node3</title>
<a xlink:title="STL class.">
<polygon fill="white" stroke="#bfbfbf" points="-0.5,-450.5 -0.5,-513.5 124.5,-513.5 124.5,-450.5 -0.5,-450.5"/>
<text text-anchor="middle" x="62" y="-500.5" font-family="Helvetica,sans-Serif" font-size="10.00">std::basic_string&lt; char &gt;</text>
<polyline fill="none" stroke="#bfbfbf" points="-0.5,-492.5 124.5,-492.5 "/>
<text text-anchor="middle" x="62" y="-479.5" font-family="Helvetica,sans-Serif" font-size="10.00"> </text>
<polyline fill="none" stroke="#bfbfbf" points="-0.5,-471.5 124.5,-471.5 "/>
<text text-anchor="middle" x="62" y="-458.5" font-family="Helvetica,sans-Serif" font-size="10.00"> </text>
</a>
</g>
<!-- Node3&#45;&gt;Node2 -->
<g id="edge4" class="edge"><title>Node3&#45;&gt;Node2</title>
<path fill="none" stroke="midnightblue" d="M62,-440.194C62,-430.674 62,-420.712 62,-411.695"/>
<polygon fill="none" stroke="midnightblue" points="58.5001,-440.286 62,-450.286 65.5001,-440.286 58.5001,-440.286"/>
</g>
</g>
</svg>
