<?xml version="1.0" encoding="UTF-8" standalone="no"?>
<!DOCTYPE svg PUBLIC "-//W3C//DTD SVG 1.1//EN"
 "http://www.w3.org/Graphics/SVG/1.1/DTD/svg11.dtd">
<!-- Generated by graphviz version 2.26.3 (20100126.1600)
 -->
<!-- Title: G Pages: 1 -->
<svg width="98pt" height="328pt"
 viewBox="0.00 0.00 98.00 328.00" xmlns="http://www.w3.org/2000/svg" xmlns:xlink="http://www.w3.org/1999/xlink">
<g id="graph1" class="graph" transform="scale(1 1) rotate(0) translate(4 324)">
<title>G</title>
<polygon fill="white" stroke="white" points="-4,5 -4,-324 95,-324 95,5 -4,5"/>
<!-- Node1 -->
<g id="node1" class="node"><title>Node1</title>
<polygon fill="#bfbfbf" stroke="black" points="-0.5,-0.5 -0.5,-141.5 90.5,-141.5 90.5,-0.5 -0.5,-0.5"/>
<text text-anchor="middle" x="45" y="-128.5" font-family="Helvetica,sans-Serif" font-size="10.00">AsciiReader</text>
<polyline fill="none" stroke="black" points="-0.5,-120.5 90.5,-120.5 "/>
<text text-anchor="start" x="7.5" y="-107.5" font-family="Helvetica,sans-Serif" font-size="10.00">&#45; EvtList_</text>
<text text-anchor="start" x="7.5" y="-94.5" font-family="Helvetica,sans-Serif" font-size="10.00">&#45; fmaxBins_</text>
<polyline fill="none" stroke="black" points="-0.5,-86.5 90.5,-86.5 "/>
<text text-anchor="start" x="7.5" y="-73.5" font-family="Helvetica,sans-Serif" font-size="10.00">+ AsciiReader()</text>
<text text-anchor="start" x="7.5" y="-60.5" font-family="Helvetica,sans-Serif" font-size="10.00">+ getEvent()</text>
<text text-anchor="start" x="7.5" y="-47.5" font-family="Helvetica,sans-Serif" font-size="10.00">+ getBin()</text>
<text text-anchor="start" x="7.5" y="-34.5" font-family="Helvetica,sans-Serif" font-size="10.00">+ getNEvents()</text>
<text text-anchor="start" x="7.5" y="-21.5" font-family="Helvetica,sans-Serif" font-size="10.00">+ getNBins()</text>
<text text-anchor="start" x="7.5" y="-8.5" font-family="Helvetica,sans-Serif" font-size="10.00">+ ~AsciiReader()</text>
</g>
<!-- Node2 -->
<g id="node2" class="node"><title>Node2</title>
<a xlink:href="../../d0/df3/classData.xhtml" target="_top" xlink:title="Data Interface Base&#45;Class.">
<polygon fill="white" stroke="black" points="3.5,-178.5 3.5,-319.5 86.5,-319.5 86.5,-178.5 3.5,-178.5"/>
<text text-anchor="middle" x="45" y="-306.5" font-family="Helvetica,sans-Serif" font-size="10.00">Data</text>
<polyline fill="none" stroke="black" points="3.5,-298.5 86.5,-298.5 "/>
<text text-anchor="middle" x="45" y="-285.5" font-family="Helvetica,sans-Serif" font-size="10.00"> </text>
<polyline fill="none" stroke="black" points="3.5,-277.5 86.5,-277.5 "/>
<text text-anchor="start" x="11.5" y="-264.5" font-family="Helvetica,sans-Serif" font-size="10.00">+ Data()</text>
<text text-anchor="start" x="11.5" y="-251.5" font-family="Helvetica,sans-Serif" font-size="10.00">+ ~Data()</text>
<text text-anchor="start" x="11.5" y="-238.5" font-family="Helvetica,sans-Serif" font-size="10.00">+ pushEvent()</text>
<text text-anchor="start" x="11.5" y="-225.5" font-family="Helvetica,sans-Serif" font-size="10.00">+ getEvent()</text>
<text text-anchor="start" x="11.5" y="-212.5" font-family="Helvetica,sans-Serif" font-size="10.00">+ getBin()</text>
<text text-anchor="start" x="11.5" y="-199.5" font-family="Helvetica,sans-Serif" font-size="10.00">+ getNEvents()</text>
<text text-anchor="start" x="11.5" y="-186.5" font-family="Helvetica,sans-Serif" font-size="10.00">+ getNBins()</text>
</a>
</g>
<!-- Node2&#45;&gt;Node1 -->
<g id="edge2" class="edge"><title>Node2&#45;&gt;Node1</title>
<path fill="none" stroke="midnightblue" d="M45,-168.354C45,-159.401 45,-150.334 45,-141.521"/>
<polygon fill="none" stroke="midnightblue" points="41.5001,-168.394 45,-178.394 48.5001,-168.394 41.5001,-168.394"/>
</g>
</g>
</svg>
