<?xml version="1.0" encoding="UTF-8" standalone="no"?>
<!DOCTYPE svg PUBLIC "-//W3C//DTD SVG 1.1//EN"
 "http://www.w3.org/Graphics/SVG/1.1/DTD/svg11.dtd">
<!-- Generated by graphviz version 2.36.0 (20140111.2315)
 -->
<!-- Title: /home/travis/build/ComPWA/ComPWA/Core/Logging.hpp Pages: 1 -->
<svg width="2936pt" height="398pt"
 viewBox="0.00 0.00 2935.78 398.00" xmlns="http://www.w3.org/2000/svg" xmlns:xlink="http://www.w3.org/1999/xlink">
<g id="graph0" class="graph" transform="scale(1 1) rotate(0) translate(4 394)">
<title>/home/travis/build/ComPWA/ComPWA/Core/Logging.hpp</title>
<polygon fill="white" stroke="none" points="-4,4 -4,-394 2931.78,-394 2931.78,4 -4,4"/>
<!-- Node1 -->
<g id="node1" class="node"><title>Node1</title>
<polygon fill="#bfbfbf" stroke="black" points="1266.28,-348.5 1266.28,-389.5 1401.28,-389.5 1401.28,-348.5 1266.28,-348.5"/>
<text text-anchor="start" x="1274.28" y="-377.5" font-family="Helvetica,sans-Serif" font-size="10.00">/home/travis/build</text>
<text text-anchor="start" x="1274.28" y="-366.5" font-family="Helvetica,sans-Serif" font-size="10.00">/ComPWA/ComPWA/Core</text>
<text text-anchor="middle" x="1333.78" y="-355.5" font-family="Helvetica,sans-Serif" font-size="10.00">/Logging.hpp</text>
</g>
<!-- Node2 -->
<g id="node2" class="node"><title>Node2</title>
<g id="a_node2"><a xlink:href="../../d8/d6f/Efficiency_8hpp.html" target="_top" xlink:title="/home/travis/build\l/ComPWA/ComPWA/Core\l/Efficiency.hpp">
<polygon fill="white" stroke="red" points="486.284,-180.5 486.284,-221.5 621.284,-221.5 621.284,-180.5 486.284,-180.5"/>
<text text-anchor="start" x="494.284" y="-209.5" font-family="Helvetica,sans-Serif" font-size="10.00">/home/travis/build</text>
<text text-anchor="start" x="494.284" y="-198.5" font-family="Helvetica,sans-Serif" font-size="10.00">/ComPWA/ComPWA/Core</text>
<text text-anchor="middle" x="553.784" y="-187.5" font-family="Helvetica,sans-Serif" font-size="10.00">/Efficiency.hpp</text>
</a>
</g>
</g>
<!-- Node1&#45;&gt;Node2 -->
<g id="edge1" class="edge"><title>Node1&#45;&gt;Node2</title>
<path fill="none" stroke="midnightblue" d="M1255.98,-364.951C1087.92,-357.892 701.822,-338.942 648.784,-312 609.188,-291.887 579.134,-247.437 564.217,-221.62"/>
<polygon fill="midnightblue" stroke="midnightblue" points="1255.86,-368.45 1266,-365.369 1256.16,-361.456 1255.86,-368.45"/>
</g>
<!-- Node4 -->
<g id="node4" class="node"><title>Node4</title>
<g id="a_node4"><a xlink:href="../../d0/d27/Integration_8hpp.html" target="_top" xlink:title="/home/travis/build\l/ComPWA/ComPWA/Tools\l/Integration.hpp">
<polygon fill="white" stroke="red" points="164.784,-6.5 164.784,-47.5 302.784,-47.5 302.784,-6.5 164.784,-6.5"/>
<text text-anchor="start" x="172.784" y="-35.5" font-family="Helvetica,sans-Serif" font-size="10.00">/home/travis/build</text>
<text text-anchor="start" x="172.784" y="-24.5" font-family="Helvetica,sans-Serif" font-size="10.00">/ComPWA/ComPWA/Tools</text>
<text text-anchor="middle" x="233.784" y="-13.5" font-family="Helvetica,sans-Serif" font-size="10.00">/Integration.hpp</text>
</a>
</g>
</g>
<!-- Node1&#45;&gt;Node4 -->
<g id="edge47" class="edge"><title>Node1&#45;&gt;Node4</title>
<path fill="none" stroke="midnightblue" d="M1255.88,-367.591C1008.09,-365.839 248.42,-356.831 147.784,-312 44.5488,-266.012 -43.8766,-180.523 23.7836,-90 40.8808,-67.1254 110.247,-49.7446 164.638,-39.2884"/>
<polygon fill="midnightblue" stroke="midnightblue" points="1255.87,-371.091 1265.89,-367.66 1255.91,-364.091 1255.87,-371.091"/>
</g>
<!-- Node5 -->
<g id="node5" class="node"><title>Node5</title>
<g id="a_node5"><a xlink:href="../../d9/dab/CompareTreeAmpApp_8cpp.html" target="_top" xlink:title="/home/travis/build\l/ComPWA/ComPWA/executables\l/CompareTreeAmpApp.cpp">
<polygon fill="white" stroke="black" points="570.284,-96.5 570.284,-137.5 737.284,-137.5 737.284,-96.5 570.284,-96.5"/>
<text text-anchor="start" x="578.284" y="-125.5" font-family="Helvetica,sans-Serif" font-size="10.00">/home/travis/build</text>
<text text-anchor="start" x="578.284" y="-114.5" font-family="Helvetica,sans-Serif" font-size="10.00">/ComPWA/ComPWA/executables</text>
<text text-anchor="middle" x="653.784" y="-103.5" font-family="Helvetica,sans-Serif" font-size="10.00">/CompareTreeAmpApp.cpp</text>
</a>
</g>
</g>
<!-- Node1&#45;&gt;Node5 -->
<g id="edge39" class="edge"><title>Node1&#45;&gt;Node5</title>
<path fill="none" stroke="midnightblue" d="M1255.88,-368.506C1119.58,-368.07 844.62,-360.922 763.784,-312 698.363,-272.408 668.414,-178.439 658.142,-137.559"/>
<polygon fill="midnightblue" stroke="midnightblue" points="1256.24,-372.006 1266.24,-368.527 1256.25,-365.006 1256.24,-372.006"/>
</g>
<!-- Node6 -->
<g id="node6" class="node"><title>Node6</title>
<g id="a_node6"><a xlink:href="../../d6/d45/LHNormalizationTestApp_8cpp.html" target="_top" xlink:title="/home/travis/build\l/ComPWA/ComPWA/executables\l/LHNormalizationTestApp.cpp">
<polygon fill="white" stroke="black" points="232.284,-96.5 232.284,-137.5 399.284,-137.5 399.284,-96.5 232.284,-96.5"/>
<text text-anchor="start" x="240.284" y="-125.5" font-family="Helvetica,sans-Serif" font-size="10.00">/home/travis/build</text>
<text text-anchor="start" x="240.284" y="-114.5" font-family="Helvetica,sans-Serif" font-size="10.00">/ComPWA/ComPWA/executables</text>
<text text-anchor="middle" x="315.784" y="-103.5" font-family="Helvetica,sans-Serif" font-size="10.00">/LHNormalizationTestApp.cpp</text>
</a>
</g>
</g>
<!-- Node1&#45;&gt;Node6 -->
<g id="edge40" class="edge"><title>Node1&#45;&gt;Node6</title>
<path fill="none" stroke="midnightblue" d="M1256.17,-365.739C1091.4,-360.36 711.538,-344.731 586.784,-312 495.626,-288.083 468.079,-281.241 394.784,-222 364.982,-197.913 340.099,-160.304 326.628,-137.524"/>
<polygon fill="midnightblue" stroke="midnightblue" points="1256.13,-369.239 1266.23,-366.063 1256.35,-362.243 1256.13,-369.239"/>
</g>
<!-- Node7 -->
<g id="node7" class="node"><title>Node7</title>
<g id="a_node7"><a xlink:href="../../dd/d18/FitResult_8cpp.html" target="_top" xlink:title="/home/travis/build\l/ComPWA/ComPWA/Core\l/FitResult.cpp">
<polygon fill="white" stroke="black" points="1438.28,-264.5 1438.28,-305.5 1573.28,-305.5 1573.28,-264.5 1438.28,-264.5"/>
<text text-anchor="start" x="1446.28" y="-293.5" font-family="Helvetica,sans-Serif" font-size="10.00">/home/travis/build</text>
<text text-anchor="start" x="1446.28" y="-282.5" font-family="Helvetica,sans-Serif" font-size="10.00">/ComPWA/ComPWA/Core</text>
<text text-anchor="middle" x="1505.78" y="-271.5" font-family="Helvetica,sans-Serif" font-size="10.00">/FitResult.cpp</text>
</a>
</g>
</g>
<!-- Node1&#45;&gt;Node7 -->
<g id="edge6" class="edge"><title>Node1&#45;&gt;Node7</title>
<path fill="none" stroke="midnightblue" d="M1384.16,-343.984C1409.76,-331.781 1440.47,-317.14 1464.62,-305.623"/>
<polygon fill="midnightblue" stroke="midnightblue" points="1382.5,-340.896 1374.98,-348.359 1385.51,-347.215 1382.5,-340.896"/>
</g>
<!-- Node8 -->
<g id="node8" class="node"><title>Node8</title>
<g id="a_node8"><a xlink:href="../../dc/de3/FunctionTree_8cpp.html" target="_top" xlink:title="/home/travis/build\l/ComPWA/ComPWA/Core\l/FunctionTree.cpp">
<polygon fill="white" stroke="black" points="1591.28,-264.5 1591.28,-305.5 1726.28,-305.5 1726.28,-264.5 1591.28,-264.5"/>
<text text-anchor="start" x="1599.28" y="-293.5" font-family="Helvetica,sans-Serif" font-size="10.00">/home/travis/build</text>
<text text-anchor="start" x="1599.28" y="-282.5" font-family="Helvetica,sans-Serif" font-size="10.00">/ComPWA/ComPWA/Core</text>
<text text-anchor="middle" x="1658.78" y="-271.5" font-family="Helvetica,sans-Serif" font-size="10.00">/FunctionTree.cpp</text>
</a>
</g>
</g>
<!-- Node1&#45;&gt;Node8 -->
<g id="edge7" class="edge"><title>Node1&#45;&gt;Node8</title>
<path fill="none" stroke="midnightblue" d="M1411.29,-352.654C1460.46,-342.39 1525.23,-327.887 1581.78,-312 1588.71,-310.054 1595.93,-307.851 1603.06,-305.572"/>
<polygon fill="midnightblue" stroke="midnightblue" points="1410.44,-349.256 1401.36,-354.715 1411.86,-356.11 1410.44,-349.256"/>
</g>
<!-- Node9 -->
<g id="node9" class="node"><title>Node9</title>
<g id="a_node9"><a xlink:href="../../d0/ddf/Logging_8cpp.html" target="_top" xlink:title="/home/travis/build\l/ComPWA/ComPWA/Core\l/Logging.cpp">
<polygon fill="white" stroke="black" points="1744.28,-264.5 1744.28,-305.5 1879.28,-305.5 1879.28,-264.5 1744.28,-264.5"/>
<text text-anchor="start" x="1752.28" y="-293.5" font-family="Helvetica,sans-Serif" font-size="10.00">/home/travis/build</text>
<text text-anchor="start" x="1752.28" y="-282.5" font-family="Helvetica,sans-Serif" font-size="10.00">/ComPWA/ComPWA/Core</text>
<text text-anchor="middle" x="1811.78" y="-271.5" font-family="Helvetica,sans-Serif" font-size="10.00">/Logging.cpp</text>
</a>
</g>
</g>
<!-- Node1&#45;&gt;Node9 -->
<g id="edge8" class="edge"><title>Node1&#45;&gt;Node9</title>
<path fill="none" stroke="midnightblue" d="M1411.71,-361.468C1493.1,-353.637 1624.08,-338.177 1734.78,-312 1742.34,-310.214 1750.2,-307.996 1757.89,-305.613"/>
<polygon fill="midnightblue" stroke="midnightblue" points="1411.17,-358.004 1401.54,-362.432 1411.83,-364.972 1411.17,-358.004"/>
</g>
<!-- Node10 -->
<g id="node10" class="node"><title>Node10</title>
<g id="a_node10"><a xlink:href="../../db/dce/Parameter_8hpp.html" target="_top" xlink:title="This class implements some internal container of parameters. ">
<polygon fill="white" stroke="red" points="773.284,-264.5 773.284,-305.5 908.284,-305.5 908.284,-264.5 773.284,-264.5"/>
<text text-anchor="start" x="781.284" y="-293.5" font-family="Helvetica,sans-Serif" font-size="10.00">/home/travis/build</text>
<text text-anchor="start" x="781.284" y="-282.5" font-family="Helvetica,sans-Serif" font-size="10.00">/ComPWA/ComPWA/Core</text>
<text text-anchor="middle" x="840.784" y="-271.5" font-family="Helvetica,sans-Serif" font-size="10.00">/Parameter.hpp</text>
</a>
</g>
</g>
<!-- Node1&#45;&gt;Node10 -->
<g id="edge9" class="edge"><title>Node1&#45;&gt;Node10</title>
<path fill="none" stroke="midnightblue" d="M1255.84,-355.132C1187.33,-343.811 1084.93,-326.862 995.784,-312 967.12,-307.221 935.48,-301.919 908.3,-297.356"/>
<polygon fill="midnightblue" stroke="midnightblue" points="1255.68,-358.653 1266.12,-356.831 1256.83,-351.747 1255.68,-358.653"/>
</g>
<!-- Node11 -->
<g id="node11" class="node"><title>Node11</title>
<g id="a_node11"><a xlink:href="../../df/d9f/ParameterList_8hpp.html" target="_top" xlink:title="This class provides a list of fit parameters which can have different types. ">
<polygon fill="white" stroke="red" points="869.284,-180.5 869.284,-221.5 1004.28,-221.5 1004.28,-180.5 869.284,-180.5"/>
<text text-anchor="start" x="877.284" y="-209.5" font-family="Helvetica,sans-Serif" font-size="10.00">/home/travis/build</text>
<text text-anchor="start" x="877.284" y="-198.5" font-family="Helvetica,sans-Serif" font-size="10.00">/ComPWA/ComPWA/Core</text>
<text text-anchor="middle" x="936.784" y="-187.5" font-family="Helvetica,sans-Serif" font-size="10.00">/ParameterList.hpp</text>
</a>
</g>
</g>
<!-- Node1&#45;&gt;Node11 -->
<g id="edge28" class="edge"><title>Node1&#45;&gt;Node11</title>
<path fill="none" stroke="midnightblue" d="M1255.88,-354.087C1213.18,-344.987 1159.92,-331.188 1114.78,-312 1057.11,-287.485 996.342,-246.063 962.835,-221.65"/>
<polygon fill="midnightblue" stroke="midnightblue" points="1255.43,-357.569 1265.93,-356.185 1256.86,-350.716 1255.43,-357.569"/>
</g>
<!-- Node12 -->
<g id="node12" class="node"><title>Node12</title>
<g id="a_node12"><a xlink:href="../../db/d7b/DalitzFitD03K_8cpp.html" target="_top" xlink:title="/home/travis/build\l/ComPWA/ComPWA/Examples\l/DalitzAnalysis_D0KsKK\l/DalitzFitD03K.cpp">
<polygon fill="white" stroke="black" points="654.784,-1 654.784,-53 812.784,-53 812.784,-1 654.784,-1"/>
<text text-anchor="start" x="662.784" y="-41" font-family="Helvetica,sans-Serif" font-size="10.00">/home/travis/build</text>
<text text-anchor="start" x="662.784" y="-30" font-family="Helvetica,sans-Serif" font-size="10.00">/ComPWA/ComPWA/Examples</text>
<text text-anchor="start" x="662.784" y="-19" font-family="Helvetica,sans-Serif" font-size="10.00">/DalitzAnalysis_D0KsKK</text>
<text text-anchor="middle" x="733.784" y="-8" font-family="Helvetica,sans-Serif" font-size="10.00">/DalitzFitD03K.cpp</text>
</a>
</g>
</g>
<!-- Node1&#45;&gt;Node12 -->
<g id="edge35" class="edge"><title>Node1&#45;&gt;Node12</title>
<path fill="none" stroke="midnightblue" d="M1255.84,-368.465C1049.9,-368.936 495.189,-365.087 320.784,-312 180.852,-269.406 110.149,-271.116 37.7836,-144 25.9099,-123.143 21.5834,-107.707 37.7836,-90 58.3831,-67.4839 476.726,-42.0528 654.723,-32.2049"/>
<polygon fill="midnightblue" stroke="midnightblue" points="1255.97,-371.965 1265.97,-368.438 1255.96,-364.965 1255.97,-371.965"/>
</g>
<!-- Node13 -->
<g id="node13" class="node"><title>Node13</title>
<g id="a_node13"><a xlink:href="../../db/deb/PythonFit_8hpp.html" target="_top" xlink:title="This class provides a Manager for simple fits. ">
<polygon fill="white" stroke="red" points="830.784,-6.5 830.784,-47.5 988.784,-47.5 988.784,-6.5 830.784,-6.5"/>
<text text-anchor="start" x="838.784" y="-35.5" font-family="Helvetica,sans-Serif" font-size="10.00">/home/travis/build</text>
<text text-anchor="start" x="838.784" y="-24.5" font-family="Helvetica,sans-Serif" font-size="10.00">/ComPWA/ComPWA/Examples</text>
<text text-anchor="middle" x="909.784" y="-13.5" font-family="Helvetica,sans-Serif" font-size="10.00">/PythonDalitzFit/PythonFit.hpp</text>
</a>
</g>
</g>
<!-- Node1&#45;&gt;Node13 -->
<g id="edge38" class="edge"><title>Node1&#45;&gt;Node13</title>
<path fill="none" stroke="midnightblue" d="M1346.73,-338.838C1360.29,-308.61 1380.35,-264.821 1385.78,-258 1420.68,-214.182 1436.03,-207.578 1484.78,-180 1524.08,-157.77 1554.13,-181.156 1579.78,-144 1593.42,-124.25 1595.95,-107.735 1579.78,-90 1560.1,-68.4057 1161.74,-42.6844 988.79,-32.4853"/>
<polygon fill="midnightblue" stroke="midnightblue" points="1343.47,-337.554 1342.59,-348.112 1349.87,-340.411 1343.47,-337.554"/>
</g>
<!-- Node14 -->
<g id="node14" class="node"><title>Node14</title>
<g id="a_node14"><a xlink:href="../../d6/d65/MinuitFcn_8cpp.html" target="_top" xlink:title="/home/travis/build\l/ComPWA/ComPWA/Optimizer\l/Minuit2/MinuitFcn.cpp">
<polygon fill="white" stroke="black" points="906.784,-96.5 906.784,-137.5 1062.78,-137.5 1062.78,-96.5 906.784,-96.5"/>
<text text-anchor="start" x="914.784" y="-125.5" font-family="Helvetica,sans-Serif" font-size="10.00">/home/travis/build</text>
<text text-anchor="start" x="914.784" y="-114.5" font-family="Helvetica,sans-Serif" font-size="10.00">/ComPWA/ComPWA/Optimizer</text>
<text text-anchor="middle" x="984.784" y="-103.5" font-family="Helvetica,sans-Serif" font-size="10.00">/Minuit2/MinuitFcn.cpp</text>
</a>
</g>
</g>
<!-- Node1&#45;&gt;Node14 -->
<g id="edge42" class="edge"><title>Node1&#45;&gt;Node14</title>
<path fill="none" stroke="midnightblue" d="M1297.34,-342.652C1283.65,-333.088 1267.98,-322.084 1253.78,-312 1164.84,-248.8 1060.18,-172.864 1011.8,-137.677"/>
<polygon fill="midnightblue" stroke="midnightblue" points="1295.37,-345.547 1305.58,-348.4 1299.38,-339.807 1295.37,-345.547"/>
</g>
<!-- Node15 -->
<g id="node15" class="node"><title>Node15</title>
<g id="a_node15"><a xlink:href="../../d3/d89/MinuitResult_8hpp.html" target="_top" xlink:title="/home/travis/build\l/ComPWA/ComPWA/Optimizer\l/Minuit2/MinuitResult.hpp">
<polygon fill="white" stroke="red" points="1080.78,-96.5 1080.78,-137.5 1236.78,-137.5 1236.78,-96.5 1080.78,-96.5"/>
<text text-anchor="start" x="1088.78" y="-125.5" font-family="Helvetica,sans-Serif" font-size="10.00">/home/travis/build</text>
<text text-anchor="start" x="1088.78" y="-114.5" font-family="Helvetica,sans-Serif" font-size="10.00">/ComPWA/ComPWA/Optimizer</text>
<text text-anchor="middle" x="1158.78" y="-103.5" font-family="Helvetica,sans-Serif" font-size="10.00">/Minuit2/MinuitResult.hpp</text>
</a>
</g>
</g>
<!-- Node1&#45;&gt;Node15 -->
<g id="edge44" class="edge"><title>Node1&#45;&gt;Node15</title>
<path fill="none" stroke="midnightblue" d="M1314.26,-340.104C1278.49,-289.011 1203.32,-181.617 1172.45,-137.526"/>
<polygon fill="midnightblue" stroke="midnightblue" points="1311.45,-342.198 1320.05,-348.383 1317.18,-338.183 1311.45,-342.198"/>
</g>
<!-- Node16 -->
<g id="node16" class="node"><title>Node16</title>
<g id="a_node16"><a xlink:href="../../d3/d8e/MinuitResult_8cpp.html" target="_top" xlink:title="/home/travis/build\l/ComPWA/ComPWA/Optimizer\l/Minuit2/MinuitResult.cpp">
<polygon fill="white" stroke="black" points="1319.78,-6.5 1319.78,-47.5 1475.78,-47.5 1475.78,-6.5 1319.78,-6.5"/>
<text text-anchor="start" x="1327.78" y="-35.5" font-family="Helvetica,sans-Serif" font-size="10.00">/home/travis/build</text>
<text text-anchor="start" x="1327.78" y="-24.5" font-family="Helvetica,sans-Serif" font-size="10.00">/ComPWA/ComPWA/Optimizer</text>
<text text-anchor="middle" x="1397.78" y="-13.5" font-family="Helvetica,sans-Serif" font-size="10.00">/Minuit2/MinuitResult.cpp</text>
</a>
</g>
</g>
<!-- Node1&#45;&gt;Node16 -->
<g id="edge43" class="edge"><title>Node1&#45;&gt;Node16</title>
<path fill="none" stroke="midnightblue" d="M1359.57,-341.06C1368.07,-331.964 1377.47,-321.665 1385.78,-312 1405.79,-288.742 1405.85,-278.379 1428.78,-258 1500.69,-194.098 1565.98,-228.05 1612.78,-144 1624.46,-123.031 1627.21,-109.178 1612.78,-90 1596,-67.6882 1530.27,-50.8845 1475.86,-40.4381"/>
<polygon fill="midnightblue" stroke="midnightblue" points="1356.99,-338.696 1352.69,-348.377 1362.09,-343.492 1356.99,-338.696"/>
</g>
<!-- Node17 -->
<g id="node17" class="node"><title>Node17</title>
<g id="a_node17"><a xlink:href="../../d8/d80/AmpModel_8cpp.html" target="_top" xlink:title="/home/travis/build\l/ComPWA/ComPWA/Physics\l/HelicityFormalism/test\l/AmpModel.cpp">
<polygon fill="white" stroke="black" points="1255.28,-91 1255.28,-143 1404.28,-143 1404.28,-91 1255.28,-91"/>
<text text-anchor="start" x="1263.28" y="-131" font-family="Helvetica,sans-Serif" font-size="10.00">/home/travis/build</text>
<text text-anchor="start" x="1263.28" y="-120" font-family="Helvetica,sans-Serif" font-size="10.00">/ComPWA/ComPWA/Physics</text>
<text text-anchor="start" x="1263.28" y="-109" font-family="Helvetica,sans-Serif" font-size="10.00">/HelicityFormalism/test</text>
<text text-anchor="middle" x="1329.78" y="-98" font-family="Helvetica,sans-Serif" font-size="10.00">/AmpModel.cpp</text>
</a>
</g>
</g>
<!-- Node1&#45;&gt;Node17 -->
<g id="edge45" class="edge"><title>Node1&#45;&gt;Node17</title>
<path fill="none" stroke="midnightblue" d="M1324.96,-338.45C1322.83,-329.987 1320.85,-320.698 1319.78,-312 1312.62,-253.773 1315.1,-238.479 1319.78,-180 1320.76,-167.828 1322.79,-154.439 1324.78,-143.228"/>
<polygon fill="midnightblue" stroke="midnightblue" points="1321.62,-339.514 1327.59,-348.267 1328.38,-337.701 1321.62,-339.514"/>
</g>
<!-- Node18 -->
<g id="node18" class="node"><title>Node18</title>
<g id="a_node18"><a xlink:href="../../d7/d56/HelicityAngle_8cpp.html" target="_top" xlink:title="/home/travis/build\l/ComPWA/ComPWA/Physics\l/HelicityFormalism/test\l/HelicityAngle.cpp">
<polygon fill="white" stroke="black" points="1422.28,-91 1422.28,-143 1571.28,-143 1571.28,-91 1422.28,-91"/>
<text text-anchor="start" x="1430.28" y="-131" font-family="Helvetica,sans-Serif" font-size="10.00">/home/travis/build</text>
<text text-anchor="start" x="1430.28" y="-120" font-family="Helvetica,sans-Serif" font-size="10.00">/ComPWA/ComPWA/Physics</text>
<text text-anchor="start" x="1430.28" y="-109" font-family="Helvetica,sans-Serif" font-size="10.00">/HelicityFormalism/test</text>
<text text-anchor="middle" x="1496.78" y="-98" font-family="Helvetica,sans-Serif" font-size="10.00">/HelicityAngle.cpp</text>
</a>
</g>
</g>
<!-- Node1&#45;&gt;Node18 -->
<g id="edge46" class="edge"><title>Node1&#45;&gt;Node18</title>
<path fill="none" stroke="midnightblue" d="M1335.77,-337.949C1338.33,-314.893 1344.23,-282.901 1357.78,-258 1383.57,-210.615 1430.24,-168.544 1462.34,-143.184"/>
<polygon fill="midnightblue" stroke="midnightblue" points="1332.26,-337.877 1334.78,-348.167 1339.22,-338.55 1332.26,-337.877"/>
</g>
<!-- Node19 -->
<g id="node19" class="node"><title>Node19</title>
<g id="a_node19"><a xlink:href="../../de/d27/PhysConstTest_8cpp.html" target="_top" xlink:title="/home/travis/build\l/ComPWA/ComPWA/Core\l/test/PhysConstTest.cpp">
<polygon fill="white" stroke="black" points="1897.28,-264.5 1897.28,-305.5 2032.28,-305.5 2032.28,-264.5 1897.28,-264.5"/>
<text text-anchor="start" x="1905.28" y="-293.5" font-family="Helvetica,sans-Serif" font-size="10.00">/home/travis/build</text>
<text text-anchor="start" x="1905.28" y="-282.5" font-family="Helvetica,sans-Serif" font-size="10.00">/ComPWA/ComPWA/Core</text>
<text text-anchor="middle" x="1964.78" y="-271.5" font-family="Helvetica,sans-Serif" font-size="10.00">/test/PhysConstTest.cpp</text>
</a>
</g>
</g>
<!-- Node1&#45;&gt;Node19 -->
<g id="edge29" class="edge"><title>Node1&#45;&gt;Node19</title>
<path fill="none" stroke="midnightblue" d="M1411.65,-365.639C1519.64,-361.12 1720.51,-348.211 1887.78,-312 1895.64,-310.298 1903.82,-308.066 1911.78,-305.622"/>
<polygon fill="midnightblue" stroke="midnightblue" points="1411.34,-362.148 1401.49,-366.05 1411.62,-369.142 1411.34,-362.148"/>
</g>
<!-- Node20 -->
<g id="node20" class="node"><title>Node20</title>
<g id="a_node20"><a xlink:href="../../d5/d8c/CorrectionTable_8cpp.html" target="_top" xlink:title="/home/travis/build\l/ComPWA/ComPWA/DataReader\l/CorrectionTable.cpp">
<polygon fill="white" stroke="black" points="2050.28,-264.5 2050.28,-305.5 2217.28,-305.5 2217.28,-264.5 2050.28,-264.5"/>
<text text-anchor="start" x="2058.28" y="-293.5" font-family="Helvetica,sans-Serif" font-size="10.00">/home/travis/build</text>
<text text-anchor="start" x="2058.28" y="-282.5" font-family="Helvetica,sans-Serif" font-size="10.00">/ComPWA/ComPWA/DataReader</text>
<text text-anchor="middle" x="2133.78" y="-271.5" font-family="Helvetica,sans-Serif" font-size="10.00">/CorrectionTable.cpp</text>
</a>
</g>
</g>
<!-- Node1&#45;&gt;Node20 -->
<g id="edge30" class="edge"><title>Node1&#45;&gt;Node20</title>
<path fill="none" stroke="midnightblue" d="M1411.93,-366.738C1542.94,-363.525 1814.75,-352.157 2040.78,-312 2050.36,-310.299 2060.37,-308.034 2070.12,-305.549"/>
<polygon fill="midnightblue" stroke="midnightblue" points="1411.51,-363.247 1401.6,-366.981 1411.68,-370.245 1411.51,-363.247"/>
</g>
<!-- Node21 -->
<g id="node21" class="node"><title>Node21</title>
<g id="a_node21"><a xlink:href="../../d2/dee/DataCorrection_8hpp.html" target="_top" xlink:title="/home/travis/build\l/ComPWA/ComPWA/DataReader\l/DataCorrection.hpp">
<polygon fill="white" stroke="red" points="47.2836,-96.5 47.2836,-137.5 214.284,-137.5 214.284,-96.5 47.2836,-96.5"/>
<text text-anchor="start" x="55.2836" y="-125.5" font-family="Helvetica,sans-Serif" font-size="10.00">/home/travis/build</text>
<text text-anchor="start" x="55.2836" y="-114.5" font-family="Helvetica,sans-Serif" font-size="10.00">/ComPWA/ComPWA/DataReader</text>
<text text-anchor="middle" x="130.784" y="-103.5" font-family="Helvetica,sans-Serif" font-size="10.00">/DataCorrection.hpp</text>
</a>
</g>
</g>
<!-- Node1&#45;&gt;Node21 -->
<g id="edge31" class="edge"><title>Node1&#45;&gt;Node21</title>
<path fill="none" stroke="midnightblue" d="M1255.86,-368.003C1067.39,-367.227 591.359,-360.383 440.784,-312 321.403,-273.64 201.715,-179.002 153.247,-137.752"/>
<polygon fill="midnightblue" stroke="midnightblue" points="1255.95,-371.503 1265.97,-368.039 1255.98,-364.503 1255.95,-371.503"/>
</g>
<!-- Node22 -->
<g id="node22" class="node"><title>Node22</title>
<g id="a_node22"><a xlink:href="../../df/d44/RootReader_8cpp.html" target="_top" xlink:title="/home/travis/build\l/ComPWA/ComPWA/DataReader\l/RootReader/RootReader.cpp">
<polygon fill="white" stroke="black" points="2235.28,-264.5 2235.28,-305.5 2402.28,-305.5 2402.28,-264.5 2235.28,-264.5"/>
<text text-anchor="start" x="2243.28" y="-293.5" font-family="Helvetica,sans-Serif" font-size="10.00">/home/travis/build</text>
<text text-anchor="start" x="2243.28" y="-282.5" font-family="Helvetica,sans-Serif" font-size="10.00">/ComPWA/ComPWA/DataReader</text>
<text text-anchor="middle" x="2318.78" y="-271.5" font-family="Helvetica,sans-Serif" font-size="10.00">/RootReader/RootReader.cpp</text>
</a>
</g>
</g>
<!-- Node1&#45;&gt;Node22 -->
<g id="edge34" class="edge"><title>Node1&#45;&gt;Node22</title>
<path fill="none" stroke="midnightblue" d="M1411.9,-368.577C1567.8,-368.524 1928.17,-362.369 2225.78,-312 2235.54,-310.349 2245.73,-308.079 2255.65,-305.561"/>
<polygon fill="midnightblue" stroke="midnightblue" points="1411.48,-365.076 1401.48,-368.571 1411.47,-372.076 1411.48,-365.076"/>
</g>
<!-- Node23 -->
<g id="node23" class="node"><title>Node23</title>
<g id="a_node23"><a xlink:href="../../d2/df1/DalitzAnalysis__D0KsKK_2PlotData_8cpp.html" target="_top" xlink:title="/home/travis/build\l/ComPWA/ComPWA/Examples\l/DalitzAnalysis_D0KsKK\l/PlotData.cpp">
<polygon fill="white" stroke="black" points="2419.78,-259 2419.78,-311 2577.78,-311 2577.78,-259 2419.78,-259"/>
<text text-anchor="start" x="2427.78" y="-299" font-family="Helvetica,sans-Serif" font-size="10.00">/home/travis/build</text>
<text text-anchor="start" x="2427.78" y="-288" font-family="Helvetica,sans-Serif" font-size="10.00">/ComPWA/ComPWA/Examples</text>
<text text-anchor="start" x="2427.78" y="-277" font-family="Helvetica,sans-Serif" font-size="10.00">/DalitzAnalysis_D0KsKK</text>
<text text-anchor="middle" x="2498.78" y="-266" font-family="Helvetica,sans-Serif" font-size="10.00">/PlotData.cpp</text>
</a>
</g>
</g>
<!-- Node1&#45;&gt;Node23 -->
<g id="edge36" class="edge"><title>Node1&#45;&gt;Node23</title>
<path fill="none" stroke="midnightblue" d="M1411.51,-366.332C1625.2,-361.368 2218.43,-344.942 2410.78,-312 2413.61,-311.516 2416.47,-310.971 2419.36,-310.377"/>
<polygon fill="midnightblue" stroke="midnightblue" points="1411.24,-362.837 1401.32,-366.567 1411.4,-369.835 1411.24,-362.837"/>
</g>
<!-- Node24 -->
<g id="node24" class="node"><title>Node24</title>
<g id="a_node24"><a xlink:href="../../de/d23/PythonDalitzFit_2PlotData_8cpp.html" target="_top" xlink:title="/home/travis/build\l/ComPWA/ComPWA/Examples\l/PythonDalitzFit/PlotData.cpp">
<polygon fill="white" stroke="black" points="2595.78,-264.5 2595.78,-305.5 2753.78,-305.5 2753.78,-264.5 2595.78,-264.5"/>
<text text-anchor="start" x="2603.78" y="-293.5" font-family="Helvetica,sans-Serif" font-size="10.00">/home/travis/build</text>
<text text-anchor="start" x="2603.78" y="-282.5" font-family="Helvetica,sans-Serif" font-size="10.00">/ComPWA/ComPWA/Examples</text>
<text text-anchor="middle" x="2674.78" y="-271.5" font-family="Helvetica,sans-Serif" font-size="10.00">/PythonDalitzFit/PlotData.cpp</text>
</a>
</g>
</g>
<!-- Node1&#45;&gt;Node24 -->
<g id="edge37" class="edge"><title>Node1&#45;&gt;Node24</title>
<path fill="none" stroke="midnightblue" d="M1411.54,-366.957C1648.31,-363.397 2358.16,-349.777 2585.78,-312 2595.31,-310.419 2605.26,-308.15 2614.91,-305.604"/>
<polygon fill="midnightblue" stroke="midnightblue" points="1411.24,-363.461 1401.29,-367.109 1411.35,-370.46 1411.24,-363.461"/>
</g>
<!-- Node25 -->
<g id="node25" class="node"><title>Node25</title>
<g id="a_node25"><a xlink:href="../../db/d4d/GenevaResult_8cpp.html" target="_top" xlink:title="/home/travis/build\l/ComPWA/ComPWA/Optimizer\l/Geneva/GenevaResult.cpp">
<polygon fill="white" stroke="black" points="2771.78,-264.5 2771.78,-305.5 2927.78,-305.5 2927.78,-264.5 2771.78,-264.5"/>
<text text-anchor="start" x="2779.78" y="-293.5" font-family="Helvetica,sans-Serif" font-size="10.00">/home/travis/build</text>
<text text-anchor="start" x="2779.78" y="-282.5" font-family="Helvetica,sans-Serif" font-size="10.00">/ComPWA/ComPWA/Optimizer</text>
<text text-anchor="middle" x="2849.78" y="-271.5" font-family="Helvetica,sans-Serif" font-size="10.00">/Geneva/GenevaResult.cpp</text>
</a>
</g>
</g>
<!-- Node1&#45;&gt;Node25 -->
<g id="edge41" class="edge"><title>Node1&#45;&gt;Node25</title>
<path fill="none" stroke="midnightblue" d="M1411.68,-367.486C1670.24,-365.383 2498.61,-355.346 2761.78,-312 2771.37,-310.421 2781.39,-308.118 2791.08,-305.526"/>
<polygon fill="midnightblue" stroke="midnightblue" points="1411.59,-363.987 1401.62,-367.566 1411.65,-370.987 1411.59,-363.987"/>
</g>
<!-- Node3 -->
<g id="node3" class="node"><title>Node3</title>
<g id="a_node3"><a xlink:href="../../dc/dfd/AmpIntensity_8hpp.html" target="_top" xlink:title="/home/travis/build\l/ComPWA/ComPWA/Core\l/AmpIntensity.hpp">
<polygon fill="white" stroke="red" points="417.284,-96.5 417.284,-137.5 552.284,-137.5 552.284,-96.5 417.284,-96.5"/>
<text text-anchor="start" x="425.284" y="-125.5" font-family="Helvetica,sans-Serif" font-size="10.00">/home/travis/build</text>
<text text-anchor="start" x="425.284" y="-114.5" font-family="Helvetica,sans-Serif" font-size="10.00">/ComPWA/ComPWA/Core</text>
<text text-anchor="middle" x="484.784" y="-103.5" font-family="Helvetica,sans-Serif" font-size="10.00">/AmpIntensity.hpp</text>
</a>
</g>
</g>
<!-- Node2&#45;&gt;Node3 -->
<g id="edge2" class="edge"><title>Node2&#45;&gt;Node3</title>
<path fill="none" stroke="midnightblue" d="M530.402,-172.214C520.856,-160.869 510.038,-148.012 501.333,-137.667"/>
<polygon fill="midnightblue" stroke="midnightblue" points="527.964,-174.752 537.081,-180.15 533.32,-170.245 527.964,-174.752"/>
</g>
<!-- Node2&#45;&gt;Node5 -->
<g id="edge4" class="edge"><title>Node2&#45;&gt;Node5</title>
<path fill="none" stroke="midnightblue" d="M585.814,-173.735C600.045,-162.065 616.516,-148.559 629.68,-137.765"/>
<polygon fill="midnightblue" stroke="midnightblue" points="583.249,-171.312 577.736,-180.359 587.688,-176.725 583.249,-171.312"/>
</g>
<!-- Node2&#45;&gt;Node6 -->
<g id="edge5" class="edge"><title>Node2&#45;&gt;Node6</title>
<path fill="none" stroke="midnightblue" d="M487.587,-177.193C451.401,-164.725 407.044,-149.443 372.466,-137.529"/>
<polygon fill="midnightblue" stroke="midnightblue" points="486.484,-180.515 497.079,-180.463 488.765,-173.897 486.484,-180.515"/>
</g>
<!-- Node3&#45;&gt;Node4 -->
<g id="edge3" class="edge"><title>Node3&#45;&gt;Node4</title>
<path fill="none" stroke="midnightblue" d="M419.615,-93.1522C379.346,-79.0338 328.202,-61.1028 289.766,-47.6274"/>
<polygon fill="midnightblue" stroke="midnightblue" points="418.484,-96.4642 429.079,-96.4699 420.8,-89.8585 418.484,-96.4642"/>
</g>
<!-- Node10&#45;&gt;Node5 -->
<g id="edge25" class="edge"><title>Node10&#45;&gt;Node5</title>
<path fill="none" stroke="midnightblue" d="M800.123,-258.71C784.168,-248.099 766.058,-235.175 750.784,-222 719.748,-195.231 688.176,-159.449 669.813,-137.598"/>
<polygon fill="midnightblue" stroke="midnightblue" points="798.452,-261.799 808.734,-264.353 802.289,-255.944 798.452,-261.799"/>
</g>
<!-- Node10&#45;&gt;Node6 -->
<g id="edge26" class="edge"><title>Node10&#45;&gt;Node6</title>
<path fill="none" stroke="midnightblue" d="M762.845,-279.828C687.45,-273.707 571.07,-258.692 476.784,-222 423.446,-201.243 369.102,-161.431 339.183,-137.539"/>
<polygon fill="midnightblue" stroke="midnightblue" points="762.964,-283.347 773.205,-280.633 763.507,-276.368 762.964,-283.347"/>
</g>
<!-- Node10&#45;&gt;Node11 -->
<g id="edge10" class="edge"><title>Node10&#45;&gt;Node11</title>
<path fill="none" stroke="midnightblue" d="M871.775,-257.528C885.422,-245.871 901.177,-232.414 913.759,-221.667"/>
<polygon fill="midnightblue" stroke="midnightblue" points="869.353,-254.994 864.022,-264.15 873.899,-260.317 869.353,-254.994"/>
</g>
<!-- Node10&#45;&gt;Node12 -->
<g id="edge23" class="edge"><title>Node10&#45;&gt;Node12</title>
<path fill="none" stroke="midnightblue" d="M828.647,-254.964C807.521,-204.419 764.337,-101.1 744.357,-53.2983"/>
<polygon fill="midnightblue" stroke="midnightblue" points="825.479,-256.46 832.565,-264.337 831.938,-253.761 825.479,-256.46"/>
</g>
<!-- Node10&#45;&gt;Node13 -->
<g id="edge24" class="edge"><title>Node10&#45;&gt;Node13</title>
<path fill="none" stroke="midnightblue" d="M845.087,-254.379C848.397,-233.442 853.47,-204.803 859.784,-180 872.05,-131.811 891.608,-76.6972 902.263,-47.9027"/>
<polygon fill="midnightblue" stroke="midnightblue" points="841.626,-253.859 843.562,-264.276 848.544,-254.925 841.626,-253.859"/>
</g>
<!-- Node10&#45;&gt;Node14 -->
<g id="edge27" class="edge"><title>Node10&#45;&gt;Node14</title>
<path fill="none" stroke="midnightblue" d="M918.596,-275.974C953.408,-268.059 991.36,-252.495 1012.78,-222 1030.73,-196.449 1013.35,-159.976 999.092,-137.705"/>
<polygon fill="midnightblue" stroke="midnightblue" points="917.472,-272.633 908.397,-278.101 918.901,-279.486 917.472,-272.633"/>
</g>
<!-- Node11&#45;&gt;Node3 -->
<g id="edge11" class="edge"><title>Node11&#45;&gt;Node3</title>
<path fill="none" stroke="midnightblue" d="M859.122,-192.603C782.532,-184.334 662.505,-168.757 560.784,-144 553.331,-142.186 545.573,-139.952 537.985,-137.561"/>
<polygon fill="midnightblue" stroke="midnightblue" points="858.856,-196.094 869.17,-193.673 859.597,-189.134 858.856,-196.094"/>
</g>
<!-- Node11&#45;&gt;Node5 -->
<g id="edge14" class="edge"><title>Node11&#45;&gt;Node5</title>
<path fill="none" stroke="midnightblue" d="M859.714,-177.669C816.391,-165.116 762.824,-149.595 721.183,-137.529"/>
<polygon fill="midnightblue" stroke="midnightblue" points="858.779,-181.042 869.358,-180.463 860.727,-174.318 858.779,-181.042"/>
</g>
<!-- Node11&#45;&gt;Node6 -->
<g id="edge15" class="edge"><title>Node11&#45;&gt;Node6</title>
<path fill="none" stroke="midnightblue" d="M858.947,-195.909C755.249,-189.516 566.412,-174.581 407.784,-144 398.657,-142.241 389.121,-140.007 379.791,-137.59"/>
<polygon fill="midnightblue" stroke="midnightblue" points="858.826,-199.408 869.019,-196.52 859.249,-192.421 858.826,-199.408"/>
</g>
<!-- Node11&#45;&gt;Node12 -->
<g id="edge12" class="edge"><title>Node11&#45;&gt;Node12</title>
<path fill="none" stroke="midnightblue" d="M905.663,-173.632C866.946,-140.827 801.319,-85.222 763.342,-53.0448"/>
<polygon fill="midnightblue" stroke="midnightblue" points="903.605,-176.475 913.497,-180.269 908.13,-171.135 903.605,-176.475"/>
</g>
<!-- Node11&#45;&gt;Node13 -->
<g id="edge13" class="edge"><title>Node11&#45;&gt;Node13</title>
<path fill="none" stroke="midnightblue" d="M912.577,-172.299C906.554,-163.784 900.924,-154.004 897.784,-144 887.536,-111.354 896.048,-71.2576 903.017,-47.7747"/>
<polygon fill="midnightblue" stroke="midnightblue" points="909.837,-174.478 918.653,-180.353 915.425,-170.262 909.837,-174.478"/>
</g>
<!-- Node11&#45;&gt;Node14 -->
<g id="edge16" class="edge"><title>Node11&#45;&gt;Node14</title>
<path fill="none" stroke="midnightblue" d="M953.631,-171.219C960.127,-160.122 967.392,-147.711 973.271,-137.667"/>
<polygon fill="midnightblue" stroke="midnightblue" points="950.434,-169.752 948.403,-180.15 956.475,-173.288 950.434,-169.752"/>
</g>
<!-- Node11&#45;&gt;Node15 -->
<g id="edge17" class="edge"><title>Node11&#45;&gt;Node15</title>
<path fill="none" stroke="midnightblue" d="M999.394,-176.874C1032.99,-164.465 1073.93,-149.341 1105.91,-137.529"/>
<polygon fill="midnightblue" stroke="midnightblue" points="997.844,-173.715 989.676,-180.463 1000.27,-180.281 997.844,-173.715"/>
</g>
<!-- Node11&#45;&gt;Node17 -->
<g id="edge21" class="edge"><title>Node11&#45;&gt;Node17</title>
<path fill="none" stroke="midnightblue" d="M1014.71,-188.551C1077.52,-178.683 1167.9,-163.037 1245.78,-144 1248.9,-143.239 1252.07,-142.428 1255.26,-141.58"/>
<polygon fill="midnightblue" stroke="midnightblue" points="1013.83,-185.146 1004.49,-190.145 1014.91,-192.063 1013.83,-185.146"/>
</g>
<!-- Node11&#45;&gt;Node18 -->
<g id="edge22" class="edge"><title>Node11&#45;&gt;Node18</title>
<path fill="none" stroke="midnightblue" d="M1014.5,-195.242C1109.33,-188.433 1274.16,-173.35 1412.78,-144 1415.77,-143.368 1418.8,-142.675 1421.86,-141.936"/>
<polygon fill="midnightblue" stroke="midnightblue" points="1014.15,-191.758 1004.42,-195.953 1014.64,-198.741 1014.15,-191.758"/>
</g>
<!-- Node15&#45;&gt;Node12 -->
<g id="edge18" class="edge"><title>Node15&#45;&gt;Node12</title>
<path fill="none" stroke="midnightblue" d="M1087.27,-93.7195C1082.05,-92.3736 1076.85,-91.1154 1071.78,-90 962.152,-65.8628 931.453,-77.9661 821.784,-54 818.827,-53.3538 815.824,-52.6603 812.798,-51.9301"/>
<polygon fill="midnightblue" stroke="midnightblue" points="1086.73,-97.1977 1097.29,-96.4014 1088.54,-90.4356 1086.73,-97.1977"/>
</g>
<!-- Node15&#45;&gt;Node13 -->
<g id="edge19" class="edge"><title>Node15&#45;&gt;Node13</title>
<path fill="none" stroke="midnightblue" d="M1093.88,-93.0628C1053.97,-78.9582 1003.37,-61.0744 965.32,-47.6274"/>
<polygon fill="midnightblue" stroke="midnightblue" points="1092.93,-96.4377 1103.52,-96.4699 1095.26,-89.8377 1092.93,-96.4377"/>
</g>
<!-- Node15&#45;&gt;Node16 -->
<g id="edge20" class="edge"><title>Node15&#45;&gt;Node16</title>
<path fill="none" stroke="midnightblue" d="M1221.32,-92.9733C1259.59,-78.8826 1308.03,-61.046 1344.48,-47.6274"/>
<polygon fill="midnightblue" stroke="midnightblue" points="1220,-89.7302 1211.83,-96.4699 1222.42,-96.2991 1220,-89.7302"/>
</g>
<!-- Node21&#45;&gt;Node12 -->
<g id="edge32" class="edge"><title>Node21&#45;&gt;Node12</title>
<path fill="none" stroke="midnightblue" d="M205.082,-93.9487C211.044,-92.5016 216.998,-91.1613 222.784,-90 373.925,-59.6635 553.397,-42.0594 654.394,-33.803"/>
<polygon fill="midnightblue" stroke="midnightblue" points="203.908,-90.635 195.066,-96.4721 205.618,-97.4228 203.908,-90.635"/>
</g>
<!-- Node21&#45;&gt;Node13 -->
<g id="edge33" class="edge"><title>Node21&#45;&gt;Node13</title>
<path fill="none" stroke="midnightblue" d="M202.948,-94.0316C209.612,-92.4806 216.296,-91.0987 222.784,-90 485.304,-45.5371 558.461,-99.6174 820.784,-54 830.14,-52.3728 839.912,-50.1147 849.409,-47.6028"/>
<polygon fill="midnightblue" stroke="midnightblue" points="202.104,-90.6346 193.223,-96.4116 203.769,-97.434 202.104,-90.6346"/>
</g>
</g>
</svg>
