<?xml version="1.0" encoding="UTF-8" standalone="no"?>
<!DOCTYPE svg PUBLIC "-//W3C//DTD SVG 1.1//EN"
 "http://www.w3.org/Graphics/SVG/1.1/DTD/svg11.dtd">
<!-- Generated by graphviz version 2.26.3 (20100126.1600)
 -->
<!-- Title: G Pages: 1 -->
<svg width="1240pt" height="262pt"
 viewBox="0.00 0.00 1240.00 262.00" xmlns="http://www.w3.org/2000/svg" xmlns:xlink="http://www.w3.org/1999/xlink">
<g id="graph1" class="graph" transform="scale(1 1) rotate(0) translate(4 258)">
<title>G</title>
<polygon fill="white" stroke="white" points="-4,5 -4,-258 1237,-258 1237,5 -4,5"/>
<!-- Node1 -->
<g id="node1" class="node"><title>Node1</title>
<polygon fill="#bfbfbf" stroke="black" points="290,-232.5 290,-253.5 552,-253.5 552,-232.5 290,-232.5"/>
<text text-anchor="middle" x="421" y="-240.5" font-family="Helvetica,sans-Serif" font-size="10.00">Physics/AmplitudeSum/AmpAbsDynamicalFunction.cpp</text>
</g>
<!-- Node2 -->
<g id="node3" class="node"><title>Node2</title>
<polygon fill="white" stroke="#bfbfbf" points="0,-174.5 0,-195.5 48,-195.5 48,-174.5 0,-174.5"/>
<text text-anchor="middle" x="24" y="-182.5" font-family="Helvetica,sans-Serif" font-size="10.00">stdlib.h</text>
</g>
<!-- Node1&#45;&gt;Node2 -->
<g id="edge2" class="edge"><title>Node1&#45;&gt;Node2</title>
<path fill="none" stroke="midnightblue" d="M291.902,-232.464C224.496,-225.489 140.681,-214.51 58.1541,-195.945"/>
<polygon fill="midnightblue" stroke="midnightblue" points="58.8872,-192.522 48.3585,-193.704 57.326,-199.346 58.8872,-192.522"/>
</g>
<!-- Node3 -->
<g id="node5" class="node"><title>Node3</title>
<polygon fill="white" stroke="#bfbfbf" points="66,-174.5 66,-195.5 152,-195.5 152,-174.5 66,-174.5"/>
<text text-anchor="middle" x="109" y="-182.5" font-family="Helvetica,sans-Serif" font-size="10.00">gsl/gsl_monte.h</text>
</g>
<!-- Node1&#45;&gt;Node3 -->
<g id="edge4" class="edge"><title>Node1&#45;&gt;Node3</title>
<path fill="none" stroke="midnightblue" d="M359.965,-232.493C309.481,-223.682 235.647,-210.52 162.023,-196.163"/>
<polygon fill="midnightblue" stroke="midnightblue" points="162.596,-192.709 152.11,-194.222 161.251,-199.578 162.596,-192.709"/>
</g>
<!-- Node4 -->
<g id="node7" class="node"><title>Node4</title>
<polygon fill="white" stroke="#bfbfbf" points="169.5,-174.5 169.5,-195.5 280.5,-195.5 280.5,-174.5 169.5,-174.5"/>
<text text-anchor="middle" x="225" y="-182.5" font-family="Helvetica,sans-Serif" font-size="10.00">gsl/gsl_monte_plain.h</text>
</g>
<!-- Node1&#45;&gt;Node4 -->
<g id="edge6" class="edge"><title>Node1&#45;&gt;Node4</title>
<path fill="none" stroke="midnightblue" d="M385.506,-232.497C353.276,-222.959 305.566,-208.841 270.536,-198.475"/>
<polygon fill="midnightblue" stroke="midnightblue" points="271.143,-195.005 260.561,-195.523 269.156,-201.717 271.143,-195.005"/>
</g>
<!-- Node5 -->
<g id="node9" class="node"><title>Node5</title>
<polygon fill="white" stroke="#bfbfbf" points="297.5,-174.5 297.5,-195.5 412.5,-195.5 412.5,-174.5 297.5,-174.5"/>
<text text-anchor="middle" x="355" y="-182.5" font-family="Helvetica,sans-Serif" font-size="10.00">gsl/gsl_monte_miser.h</text>
</g>
<!-- Node1&#45;&gt;Node5 -->
<g id="edge8" class="edge"><title>Node1&#45;&gt;Node5</title>
<path fill="none" stroke="midnightblue" d="M408.895,-232.362C399.312,-223.941 385.736,-212.011 374.607,-202.231"/>
<polygon fill="midnightblue" stroke="midnightblue" points="376.851,-199.543 367.029,-195.571 372.23,-204.801 376.851,-199.543"/>
</g>
<!-- Node6 -->
<g id="node11" class="node"><title>Node6</title>
<polygon fill="white" stroke="#bfbfbf" points="429.5,-174.5 429.5,-195.5 546.5,-195.5 546.5,-174.5 429.5,-174.5"/>
<text text-anchor="middle" x="488" y="-182.5" font-family="Helvetica,sans-Serif" font-size="10.00">gsl/gsl_monte_vegas.h</text>
</g>
<!-- Node1&#45;&gt;Node6 -->
<g id="edge10" class="edge"><title>Node1&#45;&gt;Node6</title>
<path fill="none" stroke="midnightblue" d="M433.289,-232.362C443.017,-223.941 456.798,-212.011 468.095,-202.231"/>
<polygon fill="midnightblue" stroke="midnightblue" points="470.519,-204.762 475.789,-195.571 465.938,-199.469 470.519,-204.762"/>
</g>
<!-- Node7 -->
<g id="node13" class="node"><title>Node7</title>
<a xlink:href="../../d8/d35/PhysConst_8hpp.xhtml" target="_top" xlink:title="PhysConst provides particle information to the framework.">
<polygon fill="white" stroke="black" points="764,-174.5 764,-195.5 952,-195.5 952,-174.5 764,-174.5"/>
<text text-anchor="middle" x="858" y="-182.5" font-family="Helvetica,sans-Serif" font-size="10.00">Physics/DPKinematics/PhysConst.hpp</text>
</a>
</g>
<!-- Node1&#45;&gt;Node7 -->
<g id="edge12" class="edge"><title>Node1&#45;&gt;Node7</title>
<path fill="none" stroke="midnightblue" d="M500.137,-232.497C575.852,-222.448 689.885,-207.313 768.789,-196.84"/>
<polygon fill="midnightblue" stroke="midnightblue" points="769.262,-200.308 778.714,-195.523 768.341,-193.369 769.262,-200.308"/>
</g>
<!-- Node20 -->
<g id="node43" class="node"><title>Node20</title>
<a xlink:href="../../d8/dd4/DataPoint_8hpp.xhtml" target="_top" xlink:title="dataPoint stores kinematic information of a dalitz plot">
<polygon fill="white" stroke="black" points="563.5,-174.5 563.5,-195.5 746.5,-195.5 746.5,-174.5 563.5,-174.5"/>
<text text-anchor="middle" x="655" y="-182.5" font-family="Helvetica,sans-Serif" font-size="10.00">Physics/DPKinematics/DataPoint.hpp</text>
</a>
</g>
<!-- Node1&#45;&gt;Node20 -->
<g id="edge46" class="edge"><title>Node1&#45;&gt;Node20</title>
<path fill="none" stroke="midnightblue" d="M463.376,-232.497C502.515,-222.795 560.776,-208.355 602.775,-197.945"/>
<polygon fill="midnightblue" stroke="midnightblue" points="603.681,-201.326 612.545,-195.523 601.997,-194.532 603.681,-201.326"/>
</g>
<!-- Node24 -->
<g id="node52" class="node"><title>Node24</title>
<a xlink:href="../../d3/d76/AmpAbsDynamicalFunction_8hpp.xhtml" target="_top" xlink:title="Physics/AmplitudeSum/AmpAbsDynamicalFunction.hpp">
<polygon fill="white" stroke="black" points="970,-174.5 970,-195.5 1232,-195.5 1232,-174.5 970,-174.5"/>
<text text-anchor="middle" x="1101" y="-182.5" font-family="Helvetica,sans-Serif" font-size="10.00">Physics/AmplitudeSum/AmpAbsDynamicalFunction.hpp</text>
</a>
</g>
<!-- Node1&#45;&gt;Node24 -->
<g id="edge56" class="edge"><title>Node1&#45;&gt;Node24</title>
<path fill="none" stroke="midnightblue" d="M544.143,-232.497C663.64,-222.304 844.473,-206.88 967.399,-196.395"/>
<polygon fill="midnightblue" stroke="midnightblue" points="967.96,-199.86 977.626,-195.523 967.365,-192.886 967.96,-199.86"/>
</g>
<!-- Node8 -->
<g id="node15" class="node"><title>Node8</title>
<polygon fill="white" stroke="#bfbfbf" points="574,-58.5 574,-79.5 628,-79.5 628,-58.5 574,-58.5"/>
<text text-anchor="middle" x="601" y="-66.5" font-family="Helvetica,sans-Serif" font-size="10.00">iostream</text>
</g>
<!-- Node7&#45;&gt;Node8 -->
<g id="edge14" class="edge"><title>Node7&#45;&gt;Node8</title>
<path fill="none" stroke="midnightblue" d="M846.738,-174.315C830.264,-159.237 798.057,-131.796 766,-116 715.317,-91.0266 696.1,-96.0725 637.807,-80.1098"/>
<polygon fill="midnightblue" stroke="midnightblue" points="638.681,-76.7196 628.106,-77.3597 636.772,-83.4542 638.681,-76.7196"/>
</g>
<!-- Node9 -->
<g id="node17" class="node"><title>Node9</title>
<polygon fill="white" stroke="#bfbfbf" points="1079,-0.5 1079,-21.5 1123,-21.5 1123,-0.5 1079,-0.5"/>
<text text-anchor="middle" x="1101" y="-8.5" font-family="Helvetica,sans-Serif" font-size="10.00">vector</text>
</g>
<!-- Node7&#45;&gt;Node9 -->
<g id="edge16" class="edge"><title>Node7&#45;&gt;Node9</title>
<path fill="none" stroke="midnightblue" d="M907.449,-174.38C958.175,-160.946 1035.86,-132.896 1081,-80 1092.48,-66.5427 1097.38,-46.815 1099.47,-31.897"/>
<polygon fill="midnightblue" stroke="midnightblue" points="1102.98,-31.9275 1100.57,-21.6101 1096.02,-31.1776 1102.98,-31.9275"/>
</g>
<!-- Node10 -->
<g id="node19" class="node"><title>Node10</title>
<a xlink:href="../../db/dce/Parameter_8hpp.xhtml" target="_top" xlink:title="This class implements some internal container of parameters.">
<polygon fill="white" stroke="black" points="819,-116.5 819,-137.5 923,-137.5 923,-116.5 819,-116.5"/>
<text text-anchor="middle" x="871" y="-124.5" font-family="Helvetica,sans-Serif" font-size="10.00">Core/Parameter.hpp</text>
</a>
</g>
<!-- Node7&#45;&gt;Node10 -->
<g id="edge18" class="edge"><title>Node7&#45;&gt;Node10</title>
<path fill="none" stroke="midnightblue" d="M860.384,-174.362C862.07,-166.84 864.384,-156.519 866.421,-147.431"/>
<polygon fill="midnightblue" stroke="midnightblue" points="869.859,-148.094 868.631,-137.571 863.028,-146.563 869.859,-148.094"/>
</g>
<!-- Node10&#45;&gt;Node8 -->
<g id="edge20" class="edge"><title>Node10&#45;&gt;Node8</title>
<path fill="none" stroke="midnightblue" d="M818.624,-118.003C773.215,-109.86 705.576,-96.9107 638.012,-80.0864"/>
<polygon fill="midnightblue" stroke="midnightblue" points="638.599,-76.6249 628.047,-77.5761 636.889,-83.4129 638.599,-76.6249"/>
</g>
<!-- Node11 -->
<g id="node22" class="node"><title>Node11</title>
<polygon fill="white" stroke="#bfbfbf" points="744.5,-0.5 744.5,-21.5 785.5,-21.5 785.5,-0.5 744.5,-0.5"/>
<text text-anchor="middle" x="765" y="-8.5" font-family="Helvetica,sans-Serif" font-size="10.00">string</text>
</g>
<!-- Node10&#45;&gt;Node11 -->
<g id="edge22" class="edge"><title>Node10&#45;&gt;Node11</title>
<path fill="none" stroke="midnightblue" d="M849.648,-116.377C834.604,-108.074 814.767,-95.3774 801,-80 788.236,-65.743 778.577,-46.1428 772.493,-31.4747"/>
<polygon fill="midnightblue" stroke="midnightblue" points="775.613,-29.8435 768.703,-21.8128 769.097,-32.4003 775.613,-29.8435"/>
</g>
<!-- Node12 -->
<g id="node24" class="node"><title>Node12</title>
<polygon fill="white" stroke="#bfbfbf" points="950,-58.5 950,-79.5 1002,-79.5 1002,-58.5 950,-58.5"/>
<text text-anchor="middle" x="976" y="-66.5" font-family="Helvetica,sans-Serif" font-size="10.00">sstream</text>
</g>
<!-- Node10&#45;&gt;Node12 -->
<g id="edge24" class="edge"><title>Node10&#45;&gt;Node12</title>
<path fill="none" stroke="midnightblue" d="M890.259,-116.362C906.466,-107.409 929.853,-94.4908 948.109,-84.4064"/>
<polygon fill="midnightblue" stroke="midnightblue" points="949.802,-87.4696 956.863,-79.5707 946.418,-81.3422 949.802,-87.4696"/>
</g>
<!-- Node13 -->
<g id="node26" class="node"><title>Node13</title>
<polygon fill="white" stroke="#bfbfbf" points="1019.5,-58.5 1019.5,-79.5 1072.5,-79.5 1072.5,-58.5 1019.5,-58.5"/>
<text text-anchor="middle" x="1046" y="-66.5" font-family="Helvetica,sans-Serif" font-size="10.00">complex</text>
</g>
<!-- Node10&#45;&gt;Node13 -->
<g id="edge26" class="edge"><title>Node10&#45;&gt;Node13</title>
<path fill="none" stroke="midnightblue" d="M902.691,-116.497C932.821,-106.511 978.102,-91.5033 1009.68,-81.0389"/>
<polygon fill="midnightblue" stroke="midnightblue" points="1011.02,-84.2815 1019.41,-77.8131 1008.82,-77.6369 1011.02,-84.2815"/>
</g>
<!-- Node14 -->
<g id="node28" class="node"><title>Node14</title>
<a xlink:href="../../d8/def/AbsParameter_8hpp.xhtml" target="_top" xlink:title="This class defines the internal container of a parameter.">
<polygon fill="white" stroke="black" points="810,-58.5 810,-79.5 932,-79.5 932,-58.5 810,-58.5"/>
<text text-anchor="middle" x="871" y="-66.5" font-family="Helvetica,sans-Serif" font-size="10.00">Core/AbsParameter.hpp</text>
</a>
</g>
<!-- Node10&#45;&gt;Node14 -->
<g id="edge28" class="edge"><title>Node10&#45;&gt;Node14</title>
<path fill="none" stroke="midnightblue" d="M871,-116.362C871,-108.922 871,-98.7427 871,-89.7276"/>
<polygon fill="midnightblue" stroke="midnightblue" points="874.5,-89.5706 871,-79.5707 867.5,-89.5707 874.5,-89.5706"/>
</g>
<!-- Node18 -->
<g id="node38" class="node"><title>Node18</title>
<a xlink:href="../../d2/de9/Exceptions_8hpp.xhtml" target="_top" xlink:title="This class defines the ComPWA exception base&#45;class and provides a set of standard exceptions...">
<polygon fill="white" stroke="black" points="646,-58.5 646,-79.5 754,-79.5 754,-58.5 646,-58.5"/>
<text text-anchor="middle" x="700" y="-66.5" font-family="Helvetica,sans-Serif" font-size="10.00">Core/Exceptions.hpp</text>
</a>
</g>
<!-- Node10&#45;&gt;Node18 -->
<g id="edge40" class="edge"><title>Node10&#45;&gt;Node18</title>
<path fill="none" stroke="midnightblue" d="M840.033,-116.497C812.156,-107.041 771.003,-93.0829 740.518,-82.7428"/>
<polygon fill="midnightblue" stroke="midnightblue" points="741.619,-79.4207 731.025,-79.5231 739.371,-86.0497 741.619,-79.4207"/>
</g>
<!-- Node14&#45;&gt;Node9 -->
<g id="edge32" class="edge"><title>Node14&#45;&gt;Node9</title>
<path fill="none" stroke="midnightblue" d="M922.528,-58.4466C960.655,-50.2722 1013.99,-38.0736 1068.85,-22.1356"/>
<polygon fill="midnightblue" stroke="midnightblue" points="1070.14,-25.4048 1078.74,-19.2244 1068.16,-18.6894 1070.14,-25.4048"/>
</g>
<!-- Node14&#45;&gt;Node11 -->
<g id="edge30" class="edge"><title>Node14&#45;&gt;Node11</title>
<path fill="none" stroke="midnightblue" d="M851.558,-58.3619C835.196,-49.4094 811.587,-36.4908 793.157,-26.4064"/>
<polygon fill="midnightblue" stroke="midnightblue" points="794.771,-23.3004 784.319,-21.5707 791.411,-29.4412 794.771,-23.3004"/>
</g>
<!-- Node15 -->
<g id="node32" class="node"><title>Node15</title>
<polygon fill="white" stroke="#bfbfbf" points="803,-0.5 803,-21.5 855,-21.5 855,-0.5 803,-0.5"/>
<text text-anchor="middle" x="829" y="-8.5" font-family="Helvetica,sans-Serif" font-size="10.00">memory</text>
</g>
<!-- Node14&#45;&gt;Node15 -->
<g id="edge34" class="edge"><title>Node14&#45;&gt;Node15</title>
<path fill="none" stroke="midnightblue" d="M863.297,-58.3619C857.554,-50.4313 849.557,-39.3885 842.73,-29.9606"/>
<polygon fill="midnightblue" stroke="midnightblue" points="845.355,-27.6173 836.655,-21.5707 839.685,-31.7229 845.355,-27.6173"/>
</g>
<!-- Node16 -->
<g id="node34" class="node"><title>Node16</title>
<polygon fill="white" stroke="#bfbfbf" points="873,-0.5 873,-21.5 929,-21.5 929,-0.5 873,-0.5"/>
<text text-anchor="middle" x="901" y="-8.5" font-family="Helvetica,sans-Serif" font-size="10.00">algorithm</text>
</g>
<!-- Node14&#45;&gt;Node16 -->
<g id="edge36" class="edge"><title>Node14&#45;&gt;Node16</title>
<path fill="none" stroke="midnightblue" d="M876.502,-58.3619C880.52,-50.5949 886.081,-39.8426 890.89,-30.5458"/>
<polygon fill="midnightblue" stroke="midnightblue" points="894.047,-32.0608 895.532,-21.5707 887.829,-28.8448 894.047,-32.0608"/>
</g>
<!-- Node17 -->
<g id="node36" class="node"><title>Node17</title>
<a xlink:href="../../d9/d91/ParObserver_8hpp.xhtml" target="_top" xlink:title="For the use in the function tree, the observer pattern is used.">
<polygon fill="white" stroke="black" points="947,-0.5 947,-21.5 1061,-21.5 1061,-0.5 947,-0.5"/>
<text text-anchor="middle" x="1004" y="-8.5" font-family="Helvetica,sans-Serif" font-size="10.00">Core/ParObserver.hpp</text>
</a>
</g>
<!-- Node14&#45;&gt;Node17 -->
<g id="edge38" class="edge"><title>Node14&#45;&gt;Node17</title>
<path fill="none" stroke="midnightblue" d="M895.085,-58.4966C916.139,-49.3154 946.927,-35.8889 970.402,-25.6516"/>
<polygon fill="midnightblue" stroke="midnightblue" points="971.877,-28.8268 979.644,-21.6212 969.079,-22.4104 971.877,-28.8268"/>
</g>
<!-- Node18&#45;&gt;Node11 -->
<g id="edge44" class="edge"><title>Node18&#45;&gt;Node11</title>
<path fill="none" stroke="midnightblue" d="M711.922,-58.3619C721.359,-49.9408 734.73,-38.0105 745.69,-28.2308"/>
<polygon fill="midnightblue" stroke="midnightblue" points="748.022,-30.8401 753.154,-21.5707 743.362,-25.6171 748.022,-30.8401"/>
</g>
<!-- Node19 -->
<g id="node40" class="node"><title>Node19</title>
<polygon fill="white" stroke="#bfbfbf" points="668.5,-0.5 668.5,-21.5 727.5,-21.5 727.5,-0.5 668.5,-0.5"/>
<text text-anchor="middle" x="698" y="-8.5" font-family="Helvetica,sans-Serif" font-size="10.00">exception</text>
</g>
<!-- Node18&#45;&gt;Node19 -->
<g id="edge42" class="edge"><title>Node18&#45;&gt;Node19</title>
<path fill="none" stroke="midnightblue" d="M699.633,-58.3619C699.377,-50.9219 699.026,-40.7427 698.715,-31.7276"/>
<polygon fill="midnightblue" stroke="midnightblue" points="702.207,-31.4441 698.365,-21.5707 695.211,-31.6854 702.207,-31.4441"/>
</g>
<!-- Node21 -->
<g id="node45" class="node"><title>Node21</title>
<polygon fill="white" stroke="#bfbfbf" points="428.5,-116.5 428.5,-137.5 473.5,-137.5 473.5,-116.5 428.5,-116.5"/>
<text text-anchor="middle" x="451" y="-124.5" font-family="Helvetica,sans-Serif" font-size="10.00">cstdlib</text>
</g>
<!-- Node20&#45;&gt;Node21 -->
<g id="edge48" class="edge"><title>Node20&#45;&gt;Node21</title>
<path fill="none" stroke="midnightblue" d="M612.792,-174.486C579.803,-166.056 532.614,-153.531 483.471,-138.326"/>
<polygon fill="midnightblue" stroke="midnightblue" points="484.209,-134.889 473.62,-135.249 482.122,-141.571 484.209,-134.889"/>
</g>
<!-- Node22 -->
<g id="node47" class="node"><title>Node22</title>
<polygon fill="white" stroke="#bfbfbf" points="490.5,-116.5 490.5,-137.5 537.5,-137.5 537.5,-116.5 490.5,-116.5"/>
<text text-anchor="middle" x="514" y="-124.5" font-family="Helvetica,sans-Serif" font-size="10.00">math.h</text>
</g>
<!-- Node20&#45;&gt;Node22 -->
<g id="edge50" class="edge"><title>Node20&#45;&gt;Node22</title>
<path fill="none" stroke="midnightblue" d="M629.466,-174.497C606.486,-165.044 572.567,-151.092 547.433,-140.752"/>
<polygon fill="midnightblue" stroke="midnightblue" points="548.513,-137.412 537.934,-136.845 545.85,-143.886 548.513,-137.412"/>
</g>
<!-- Node23 -->
<g id="node49" class="node"><title>Node23</title>
<a xlink:href="../../d1/d72/DPKinematics_8hpp.xhtml" target="_top" xlink:title="DPKinematics stores kinematic information of a dalitz plot.">
<polygon fill="white" stroke="black" points="554.5,-116.5 554.5,-137.5 757.5,-137.5 757.5,-116.5 554.5,-116.5"/>
<text text-anchor="middle" x="656" y="-124.5" font-family="Helvetica,sans-Serif" font-size="10.00">Physics/DPKinematics/DPKinematics.hpp</text>
</a>
</g>
<!-- Node20&#45;&gt;Node23 -->
<g id="edge52" class="edge"><title>Node20&#45;&gt;Node23</title>
<path fill="none" stroke="midnightblue" d="M655.183,-174.362C655.312,-166.922 655.487,-156.743 655.643,-147.728"/>
<polygon fill="midnightblue" stroke="midnightblue" points="659.145,-147.63 655.818,-137.571 652.146,-147.509 659.145,-147.63"/>
</g>
<!-- Node23&#45;&gt;Node8 -->
<g id="edge54" class="edge"><title>Node23&#45;&gt;Node8</title>
<path fill="none" stroke="midnightblue" d="M645.912,-116.362C638.159,-108.186 627.27,-96.7025 618.155,-87.0907"/>
<polygon fill="midnightblue" stroke="midnightblue" points="620.445,-84.4186 611.024,-79.5707 615.365,-89.2352 620.445,-84.4186"/>
</g>
<!-- Node24&#45;&gt;Node9 -->
<g id="edge60" class="edge"><title>Node24&#45;&gt;Node9</title>
<path fill="none" stroke="midnightblue" d="M1103.77,-174.435C1109.12,-152.623 1119.84,-101.046 1114,-58 1112.8,-49.1337 1110.37,-39.5776 1107.94,-31.4123"/>
<polygon fill="midnightblue" stroke="midnightblue" points="1111.2,-30.1247 1104.84,-21.6546 1104.53,-32.245 1111.2,-30.1247"/>
</g>
<!-- Node24&#45;&gt;Node10 -->
<g id="edge58" class="edge"><title>Node24&#45;&gt;Node10</title>
<path fill="none" stroke="midnightblue" d="M1059.35,-174.497C1020.96,-164.816 963.855,-150.416 922.593,-140.01"/>
<polygon fill="midnightblue" stroke="midnightblue" points="923.282,-136.575 912.729,-137.523 921.57,-143.362 923.282,-136.575"/>
</g>
<!-- Node24&#45;&gt;Node13 -->
<g id="edge62" class="edge"><title>Node24&#45;&gt;Node13</title>
<path fill="none" stroke="midnightblue" d="M1095.92,-174.295C1086.72,-154.872 1067.13,-113.556 1055.41,-88.8462"/>
<polygon fill="midnightblue" stroke="midnightblue" points="1058.51,-87.2155 1051.06,-79.6792 1052.19,-90.2145 1058.51,-87.2155"/>
</g>
</g>
</svg>
