<?xml version="1.0" encoding="UTF-8" standalone="no"?>
<!DOCTYPE svg PUBLIC "-//W3C//DTD SVG 1.1//EN"
 "http://www.w3.org/Graphics/SVG/1.1/DTD/svg11.dtd">
<!-- Generated by graphviz version 2.36.0 (20140111.2315)
 -->
<!-- Title: /home/travis/build/ComPWA/ComPWA/Physics/HelicityFormalism/PartialDecay.cpp Pages: 1 -->
<svg width="1263pt" height="434pt"
 viewBox="0.00 0.00 1263.00 434.00" xmlns="http://www.w3.org/2000/svg" xmlns:xlink="http://www.w3.org/1999/xlink">
<g id="graph0" class="graph" transform="scale(1 1) rotate(0) translate(4 430)">
<title>/home/travis/build/ComPWA/ComPWA/Physics/HelicityFormalism/PartialDecay.cpp</title>
<polygon fill="white" stroke="none" points="-4,4 -4,-430 1259,-430 1259,4 -4,4"/>
<!-- Node1 -->
<g id="node1" class="node"><title>Node1</title>
<polygon fill="#bfbfbf" stroke="black" points="433,-384.5 433,-425.5 609,-425.5 609,-384.5 433,-384.5"/>
<text text-anchor="start" x="441" y="-413.5" font-family="Helvetica,sans-Serif" font-size="10.00">/home/travis/build</text>
<text text-anchor="start" x="441" y="-402.5" font-family="Helvetica,sans-Serif" font-size="10.00">/ComPWA/ComPWA/Physics</text>
<text text-anchor="middle" x="521" y="-391.5" font-family="Helvetica,sans-Serif" font-size="10.00">/HelicityFormalism/PartialDecay.cpp</text>
</g>
<!-- Node2 -->
<g id="node2" class="node"><title>Node2</title>
<polygon fill="white" stroke="#bfbfbf" points="356,-322.5 356,-341.5 408,-341.5 408,-322.5 356,-322.5"/>
<text text-anchor="middle" x="382" y="-329.5" font-family="Helvetica,sans-Serif" font-size="10.00">sstream</text>
</g>
<!-- Node1&#45;&gt;Node2 -->
<g id="edge1" class="edge"><title>Node1&#45;&gt;Node2</title>
<path fill="none" stroke="midnightblue" d="M482.65,-384.411C458.817,-372.238 428.823,-356.917 407.803,-346.18"/>
<polygon fill="midnightblue" stroke="midnightblue" points="409.328,-343.029 398.83,-341.597 406.144,-349.263 409.328,-343.029"/>
</g>
<!-- Node3 -->
<g id="node3" class="node"><title>Node3</title>
<g id="a_node3"><a xlink:href="../../d6/da5/RelativisticBreitWigner_8hpp.html" target="_top" xlink:title="Physics/DecayDynamics\l/RelativisticBreitWigner.hpp">
<polygon fill="white" stroke="black" points="115,-249 115,-279 253,-279 253,-249 115,-249"/>
<text text-anchor="start" x="123" y="-267" font-family="Helvetica,sans-Serif" font-size="10.00">Physics/DecayDynamics</text>
<text text-anchor="middle" x="184" y="-256" font-family="Helvetica,sans-Serif" font-size="10.00">/RelativisticBreitWigner.hpp</text>
</a>
</g>
</g>
<!-- Node1&#45;&gt;Node3 -->
<g id="edge2" class="edge"><title>Node1&#45;&gt;Node3</title>
<path fill="none" stroke="midnightblue" d="M503.481,-384.358C484.276,-364.083 451.564,-333.076 417,-316 390.208,-302.763 319.562,-288.241 263.028,-278.09"/>
<polygon fill="midnightblue" stroke="midnightblue" points="263.469,-274.613 253.01,-276.31 262.244,-281.506 263.469,-274.613"/>
</g>
<!-- Node17 -->
<g id="node17" class="node"><title>Node17</title>
<g id="a_node17"><a xlink:href="../../dd/d65/AmpFlatteRes_8hpp.html" target="_top" xlink:title="Physics/DecayDynamics\l/AmpFlatteRes.hpp">
<polygon fill="white" stroke="black" points="951,-249 951,-279 1079,-279 1079,-249 951,-249"/>
<text text-anchor="start" x="959" y="-267" font-family="Helvetica,sans-Serif" font-size="10.00">Physics/DecayDynamics</text>
<text text-anchor="middle" x="1015" y="-256" font-family="Helvetica,sans-Serif" font-size="10.00">/AmpFlatteRes.hpp</text>
</a>
</g>
</g>
<!-- Node1&#45;&gt;Node17 -->
<g id="edge29" class="edge"><title>Node1&#45;&gt;Node17</title>
<path fill="none" stroke="midnightblue" d="M590.469,-384.453C687.904,-357.037 863.49,-307.631 955.336,-281.788"/>
<polygon fill="midnightblue" stroke="midnightblue" points="956.356,-285.137 965.034,-279.059 954.46,-278.399 956.356,-285.137"/>
</g>
<!-- Node20 -->
<g id="node20" class="node"><title>Node20</title>
<g id="a_node20"><a xlink:href="../../d4/db6/NonResonant_8hpp.html" target="_top" xlink:title="Physics/DecayDynamics\l/NonResonant.hpp">
<polygon fill="white" stroke="black" points="375,-249 375,-279 503,-279 503,-249 375,-249"/>
<text text-anchor="start" x="383" y="-267" font-family="Helvetica,sans-Serif" font-size="10.00">Physics/DecayDynamics</text>
<text text-anchor="middle" x="439" y="-256" font-family="Helvetica,sans-Serif" font-size="10.00">/NonResonant.hpp</text>
</a>
</g>
</g>
<!-- Node1&#45;&gt;Node20 -->
<g id="edge35" class="edge"><title>Node1&#45;&gt;Node20</title>
<path fill="none" stroke="midnightblue" d="M509.425,-384.38C494.419,-358.942 468.296,-314.661 452.433,-287.77"/>
<polygon fill="midnightblue" stroke="midnightblue" points="455.38,-285.877 447.284,-279.043 449.351,-289.434 455.38,-285.877"/>
</g>
<!-- Node22 -->
<g id="node22" class="node"><title>Node22</title>
<g id="a_node22"><a xlink:href="../../db/d49/PartialDecay_8hpp.html" target="_top" xlink:title="Physics/HelicityFormalism\l/PartialDecay.hpp">
<polygon fill="white" stroke="black" points="502,-317 502,-347 636,-347 636,-317 502,-317"/>
<text text-anchor="start" x="510" y="-335" font-family="Helvetica,sans-Serif" font-size="10.00">Physics/HelicityFormalism</text>
<text text-anchor="middle" x="569" y="-324" font-family="Helvetica,sans-Serif" font-size="10.00">/PartialDecay.hpp</text>
</a>
</g>
</g>
<!-- Node1&#45;&gt;Node22 -->
<g id="edge42" class="edge"><title>Node1&#45;&gt;Node22</title>
<path fill="none" stroke="midnightblue" d="M534.371,-384.223C540.425,-375.267 547.61,-364.639 553.862,-355.392"/>
<polygon fill="midnightblue" stroke="midnightblue" points="556.801,-357.293 559.502,-347.049 551.002,-353.373 556.801,-357.293"/>
</g>
<!-- Node25 -->
<g id="node25" class="node"><title>Node25</title>
<g id="a_node25"><a xlink:href="../../d0/dab/HelicityKinematics_8hpp.html" target="_top" xlink:title="Physics/HelicityFormalism\l/HelicityKinematics.hpp">
<polygon fill="white" stroke="black" points="777,-249 777,-279 911,-279 911,-249 777,-249"/>
<text text-anchor="start" x="785" y="-267" font-family="Helvetica,sans-Serif" font-size="10.00">Physics/HelicityFormalism</text>
<text text-anchor="middle" x="844" y="-256" font-family="Helvetica,sans-Serif" font-size="10.00">/HelicityKinematics.hpp</text>
</a>
</g>
</g>
<!-- Node1&#45;&gt;Node25 -->
<g id="edge56" class="edge"><title>Node1&#45;&gt;Node25</title>
<path fill="none" stroke="midnightblue" d="M566.593,-384.38C629.318,-357.386 741.346,-309.176 802.077,-283.041"/>
<polygon fill="midnightblue" stroke="midnightblue" points="803.566,-286.211 811.368,-279.043 800.799,-279.781 803.566,-286.211"/>
</g>
<!-- Node4 -->
<g id="node4" class="node"><title>Node4</title>
<polygon fill="white" stroke="#bfbfbf" points="461,-56.5 461,-75.5 505,-75.5 505,-56.5 461,-56.5"/>
<text text-anchor="middle" x="483" y="-63.5" font-family="Helvetica,sans-Serif" font-size="10.00">vector</text>
</g>
<!-- Node3&#45;&gt;Node4 -->
<g id="edge3" class="edge"><title>Node3&#45;&gt;Node4</title>
<path fill="none" stroke="midnightblue" d="M149.247,-248.941C133.659,-240.673 116.822,-228.545 108,-212 101.308,-199.45 99.1538,-191.136 108,-180 151.989,-124.623 200.654,-177.387 263,-144 281.293,-134.204 278.752,-121.88 297,-112 346.538,-85.1787 412.051,-74.1458 450.645,-69.7531"/>
<polygon fill="midnightblue" stroke="midnightblue" points="451.204,-73.2136 460.781,-68.6826 450.469,-66.2523 451.204,-73.2136"/>
</g>
<!-- Node5 -->
<g id="node5" class="node"><title>Node5</title>
<polygon fill="white" stroke="#bfbfbf" points="469,-118.5 469,-137.5 521,-137.5 521,-118.5 469,-118.5"/>
<text text-anchor="middle" x="495" y="-125.5" font-family="Helvetica,sans-Serif" font-size="10.00">memory</text>
</g>
<!-- Node3&#45;&gt;Node5 -->
<g id="edge4" class="edge"><title>Node3&#45;&gt;Node5</title>
<path fill="none" stroke="midnightblue" d="M220.719,-248.983C243.165,-239.764 272.063,-226.71 296,-212 315.397,-200.08 315.803,-190.508 336,-180 386.53,-153.71 405.296,-162.983 459,-144 461.262,-143.2 463.588,-142.335 465.916,-141.437"/>
<polygon fill="midnightblue" stroke="midnightblue" points="467.372,-144.624 475.346,-137.648 464.762,-138.128 467.372,-144.624"/>
</g>
<!-- Node6 -->
<g id="node6" class="node"><title>Node6</title>
<polygon fill="white" stroke="#bfbfbf" points="349.5,-113 349.5,-143 450.5,-143 450.5,-113 349.5,-113"/>
<text text-anchor="start" x="357.5" y="-131" font-family="Helvetica,sans-Serif" font-size="10.00">boost/property_tree</text>
<text text-anchor="middle" x="400" y="-120" font-family="Helvetica,sans-Serif" font-size="10.00">/ptree.hpp</text>
</g>
<!-- Node3&#45;&gt;Node6 -->
<g id="edge5" class="edge"><title>Node3&#45;&gt;Node6</title>
<path fill="none" stroke="midnightblue" d="M205.483,-248.986C220.809,-238.891 241.835,-224.842 260,-212 279.452,-198.248 282.841,-192.693 303,-180 321.646,-168.26 343.274,-156.704 361.369,-147.569"/>
<polygon fill="midnightblue" stroke="midnightblue" points="363.09,-150.622 370.475,-143.025 359.964,-144.359 363.09,-150.622"/>
</g>
<!-- Node7 -->
<g id="node7" class="node"><title>Node7</title>
<g id="a_node7"><a xlink:href="../../d9/dfb/Spin_8hpp.html" target="_top" xlink:title="Core/Spin.hpp">
<polygon fill="white" stroke="black" points="175.5,-118.5 175.5,-137.5 254.5,-137.5 254.5,-118.5 175.5,-118.5"/>
<text text-anchor="middle" x="215" y="-125.5" font-family="Helvetica,sans-Serif" font-size="10.00">Core/Spin.hpp</text>
</a>
</g>
</g>
<!-- Node3&#45;&gt;Node7 -->
<g id="edge6" class="edge"><title>Node3&#45;&gt;Node7</title>
<path fill="none" stroke="midnightblue" d="M124.395,-248.904C105.299,-241.266 86.2141,-229.628 75,-212 67.3662,-200 66.8441,-191.651 75,-180 86.0171,-164.261 131.381,-149.617 167.525,-140.096"/>
<polygon fill="midnightblue" stroke="midnightblue" points="168.624,-143.427 177.439,-137.549 166.883,-136.647 168.624,-143.427"/>
</g>
<!-- Node11 -->
<g id="node11" class="node"><title>Node11</title>
<g id="a_node11"><a xlink:href="../../d2/de9/Exceptions_8hpp.html" target="_top" xlink:title="This class defines the ComPWA exception base&#45;class and provides a set of standard exceptions...">
<polygon fill="white" stroke="red" points="0,-56.5 0,-75.5 108,-75.5 108,-56.5 0,-56.5"/>
<text text-anchor="middle" x="54" y="-63.5" font-family="Helvetica,sans-Serif" font-size="10.00">Core/Exceptions.hpp</text>
</a>
</g>
</g>
<!-- Node3&#45;&gt;Node11 -->
<g id="edge17" class="edge"><title>Node3&#45;&gt;Node11</title>
<path fill="none" stroke="midnightblue" d="M127.324,-248.956C102.978,-240.956 75.2944,-229.043 54,-212 15.8053,-181.431 -10.9694,-157.094 8,-112 13.0258,-100.053 22.9437,-89.6922 32.2875,-81.9339"/>
<polygon fill="midnightblue" stroke="midnightblue" points="34.4392,-84.6944 40.2135,-75.8113 30.16,-79.1547 34.4392,-84.6944"/>
</g>
<!-- Node12 -->
<g id="node12" class="node"><title>Node12</title>
<g id="a_node12"><a xlink:href="../../dc/d66/Functions_8hpp.html" target="_top" xlink:title="This file contains Functions implementing the Strategy interface so they can be used inside a node of...">
<polygon fill="white" stroke="red" points="17,-118.5 17,-137.5 119,-137.5 119,-118.5 17,-118.5"/>
<text text-anchor="middle" x="68" y="-125.5" font-family="Helvetica,sans-Serif" font-size="10.00">Core/Functions.hpp</text>
</a>
</g>
</g>
<!-- Node3&#45;&gt;Node12 -->
<g id="edge13" class="edge"><title>Node3&#45;&gt;Node12</title>
<path fill="none" stroke="midnightblue" d="M116.815,-249C97.099,-241.431 77.7055,-229.811 66,-212 53.4131,-192.848 57.233,-165.468 61.9349,-147.47"/>
<polygon fill="midnightblue" stroke="midnightblue" points="65.3643,-148.214 64.8376,-137.632 58.6505,-146.233 65.3643,-148.214"/>
</g>
<!-- Node14 -->
<g id="node14" class="node"><title>Node14</title>
<g id="a_node14"><a xlink:href="../../de/d02/AbstractDynamicalFunction_8hpp.html" target="_top" xlink:title="Physics/DecayDynamics\l/AbstractDynamicalFunction.hpp">
<polygon fill="white" stroke="red" points="344.5,-181 344.5,-211 503.5,-211 503.5,-181 344.5,-181"/>
<text text-anchor="start" x="352.5" y="-199" font-family="Helvetica,sans-Serif" font-size="10.00">Physics/DecayDynamics</text>
<text text-anchor="middle" x="424" y="-188" font-family="Helvetica,sans-Serif" font-size="10.00">/AbstractDynamicalFunction.hpp</text>
</a>
</g>
</g>
<!-- Node3&#45;&gt;Node14 -->
<g id="edge18" class="edge"><title>Node3&#45;&gt;Node14</title>
<path fill="none" stroke="midnightblue" d="M235.192,-248.922C272.631,-238.627 323.566,-224.619 363.097,-213.748"/>
<polygon fill="midnightblue" stroke="midnightblue" points="364.173,-217.082 372.887,-211.056 362.317,-210.333 364.173,-217.082"/>
</g>
<!-- Node16 -->
<g id="node16" class="node"><title>Node16</title>
<g id="a_node16"><a xlink:href="../../d9/de6/AmpWignerD_8hpp.html" target="_top" xlink:title="Angular distribution based on WignerD functions. ">
<polygon fill="white" stroke="red" points="117,-181 117,-211 251,-211 251,-181 117,-181"/>
<text text-anchor="start" x="125" y="-199" font-family="Helvetica,sans-Serif" font-size="10.00">Physics/HelicityFormalism</text>
<text text-anchor="middle" x="184" y="-188" font-family="Helvetica,sans-Serif" font-size="10.00">/AmpWignerD.hpp</text>
</a>
</g>
</g>
<!-- Node3&#45;&gt;Node16 -->
<g id="edge23" class="edge"><title>Node3&#45;&gt;Node16</title>
<path fill="none" stroke="midnightblue" d="M184,-248.679C184,-240.722 184,-230.605 184,-221.436"/>
<polygon fill="midnightblue" stroke="midnightblue" points="187.5,-221.293 184,-211.293 180.5,-221.293 187.5,-221.293"/>
</g>
<!-- Node7&#45;&gt;Node4 -->
<g id="edge9" class="edge"><title>Node7&#45;&gt;Node4</title>
<path fill="none" stroke="midnightblue" d="M244.338,-118.485C252.312,-116.27 260.965,-113.959 269,-112 333.097,-96.3753 408.781,-81.228 450.787,-73.1094"/>
<polygon fill="midnightblue" stroke="midnightblue" points="451.554,-76.5261 460.714,-71.2008 450.233,-69.652 451.554,-76.5261"/>
</g>
<!-- Node8 -->
<g id="node8" class="node"><title>Node8</title>
<polygon fill="white" stroke="#bfbfbf" points="187.5,-0.5 187.5,-19.5 228.5,-19.5 228.5,-0.5 187.5,-0.5"/>
<text text-anchor="middle" x="208" y="-7.5" font-family="Helvetica,sans-Serif" font-size="10.00">string</text>
</g>
<!-- Node7&#45;&gt;Node8 -->
<g id="edge7" class="edge"><title>Node7&#45;&gt;Node8</title>
<path fill="none" stroke="midnightblue" d="M214.474,-118.281C213.343,-99.5475 210.661,-55.098 209.127,-29.6822"/>
<polygon fill="midnightblue" stroke="midnightblue" points="212.609,-29.2758 208.513,-19.5048 205.622,-29.6975 212.609,-29.2758"/>
</g>
<!-- Node9 -->
<g id="node9" class="node"><title>Node9</title>
<polygon fill="white" stroke="#bfbfbf" points="236.5,-56.5 236.5,-75.5 271.5,-75.5 271.5,-56.5 236.5,-56.5"/>
<text text-anchor="middle" x="254" y="-63.5" font-family="Helvetica,sans-Serif" font-size="10.00">map</text>
</g>
<!-- Node7&#45;&gt;Node9 -->
<g id="edge8" class="edge"><title>Node7&#45;&gt;Node9</title>
<path fill="none" stroke="midnightblue" d="M220.588,-118.403C226.38,-109.493 235.589,-95.3247 242.874,-84.1177"/>
<polygon fill="midnightblue" stroke="midnightblue" points="245.907,-85.8725 248.423,-75.5806 240.038,-82.0576 245.907,-85.8725"/>
</g>
<!-- Node10 -->
<g id="node10" class="node"><title>Node10</title>
<polygon fill="white" stroke="#bfbfbf" points="290,-56.5 290,-75.5 344,-75.5 344,-56.5 290,-56.5"/>
<text text-anchor="middle" x="317" y="-63.5" font-family="Helvetica,sans-Serif" font-size="10.00">iostream</text>
</g>
<!-- Node7&#45;&gt;Node10 -->
<g id="edge10" class="edge"><title>Node7&#45;&gt;Node10</title>
<path fill="none" stroke="midnightblue" d="M229.614,-118.403C246.353,-108.557 274.004,-92.2915 293.719,-80.6949"/>
<polygon fill="midnightblue" stroke="midnightblue" points="295.568,-83.6676 302.413,-75.5806 292.019,-77.6341 295.568,-83.6676"/>
</g>
<!-- Node7&#45;&gt;Node11 -->
<g id="edge11" class="edge"><title>Node7&#45;&gt;Node11</title>
<path fill="none" stroke="midnightblue" d="M191.933,-118.403C164.315,-108.111 117.88,-90.8064 86.6037,-79.1504"/>
<polygon fill="midnightblue" stroke="midnightblue" points="87.6173,-75.7931 77.0246,-75.5806 85.1728,-82.3524 87.6173,-75.7931"/>
</g>
<!-- Node11&#45;&gt;Node8 -->
<g id="edge12" class="edge"><title>Node11&#45;&gt;Node8</title>
<path fill="none" stroke="midnightblue" d="M78.4018,-56.4435C105.259,-47.0262 148.469,-31.8746 177.53,-21.6842"/>
<polygon fill="midnightblue" stroke="midnightblue" points="178.891,-24.916 187.17,-18.3042 176.575,-18.3104 178.891,-24.916"/>
</g>
<!-- Node12&#45;&gt;Node4 -->
<g id="edge14" class="edge"><title>Node12&#45;&gt;Node4</title>
<path fill="none" stroke="midnightblue" d="M119.101,-119.071C134.198,-116.757 150.76,-114.248 166,-112 270.056,-96.6513 393.477,-79.4071 450.785,-71.4552"/>
<polygon fill="midnightblue" stroke="midnightblue" points="451.272,-74.9213 460.697,-70.0811 450.311,-67.9876 451.272,-74.9213"/>
</g>
<!-- Node12&#45;&gt;Node11 -->
<g id="edge16" class="edge"><title>Node12&#45;&gt;Node11</title>
<path fill="none" stroke="midnightblue" d="M65.9941,-118.403C63.9981,-109.849 60.8716,-96.4497 58.3111,-85.4762"/>
<polygon fill="midnightblue" stroke="midnightblue" points="61.683,-84.5237 56.0021,-75.5806 54.8661,-86.1143 61.683,-84.5237"/>
</g>
<!-- Node13 -->
<g id="node13" class="node"><title>Node13</title>
<polygon fill="white" stroke="#bfbfbf" points="126.5,-56.5 126.5,-75.5 179.5,-75.5 179.5,-56.5 126.5,-56.5"/>
<text text-anchor="middle" x="153" y="-63.5" font-family="Helvetica,sans-Serif" font-size="10.00">complex</text>
</g>
<!-- Node12&#45;&gt;Node13 -->
<g id="edge15" class="edge"><title>Node12&#45;&gt;Node13</title>
<path fill="none" stroke="midnightblue" d="M80.1784,-118.403C93.8122,-108.78 116.132,-93.0242 132.474,-81.4891"/>
<polygon fill="midnightblue" stroke="midnightblue" points="134.693,-84.2069 140.844,-75.5806 130.656,-78.4881 134.693,-84.2069"/>
</g>
<!-- Node14&#45;&gt;Node6 -->
<g id="edge20" class="edge"><title>Node14&#45;&gt;Node6</title>
<path fill="none" stroke="midnightblue" d="M418.792,-180.679C415.836,-172.549 412.06,-162.164 408.669,-152.839"/>
<polygon fill="midnightblue" stroke="midnightblue" points="411.904,-151.495 405.197,-143.293 405.326,-153.887 411.904,-151.495"/>
</g>
<!-- Node14&#45;&gt;Node7 -->
<g id="edge21" class="edge"><title>Node14&#45;&gt;Node7</title>
<path fill="none" stroke="midnightblue" d="M379.421,-180.922C341.449,-168.931 287.535,-151.906 251.935,-140.664"/>
<polygon fill="midnightblue" stroke="midnightblue" points="252.55,-137.188 241.96,-137.514 250.442,-143.863 252.55,-137.188"/>
</g>
<!-- Node14&#45;&gt;Node13 -->
<g id="edge19" class="edge"><title>Node14&#45;&gt;Node13</title>
<path fill="none" stroke="midnightblue" d="M344.464,-189.069C278.037,-182.41 190.391,-169.081 166,-144 151.114,-128.692 149.624,-103.075 150.681,-85.6274"/>
<polygon fill="midnightblue" stroke="midnightblue" points="154.179,-85.8157 151.629,-75.5323 147.209,-85.1615 154.179,-85.8157"/>
</g>
<!-- Node15 -->
<g id="node15" class="node"><title>Node15</title>
<g id="a_node15"><a xlink:href="../../de/dc9/FormFactor_8hpp.html" target="_top" xlink:title="Physics/DecayDynamics\l/FormFactor.hpp">
<polygon fill="white" stroke="black" points="615,-113 615,-143 743,-143 743,-113 615,-113"/>
<text text-anchor="start" x="623" y="-131" font-family="Helvetica,sans-Serif" font-size="10.00">Physics/DecayDynamics</text>
<text text-anchor="middle" x="679" y="-120" font-family="Helvetica,sans-Serif" font-size="10.00">/FormFactor.hpp</text>
</a>
</g>
</g>
<!-- Node14&#45;&gt;Node15 -->
<g id="edge22" class="edge"><title>Node14&#45;&gt;Node15</title>
<path fill="none" stroke="midnightblue" d="M478.391,-180.922C518.339,-170.583 572.748,-156.501 614.824,-145.61"/>
<polygon fill="midnightblue" stroke="midnightblue" points="615.888,-148.95 624.692,-143.056 614.134,-142.173 615.888,-148.95"/>
</g>
<!-- Node16&#45;&gt;Node4 -->
<g id="edge24" class="edge"><title>Node16&#45;&gt;Node4</title>
<path fill="none" stroke="midnightblue" d="M220.361,-180.942C243.014,-171.617 272.421,-158.463 297,-144 317.532,-131.919 318.786,-122.838 340,-112 376.075,-93.5697 421.145,-80.9158 450.936,-73.8271"/>
<polygon fill="midnightblue" stroke="midnightblue" points="451.84,-77.2107 460.797,-71.5516 450.266,-70.3899 451.84,-77.2107"/>
</g>
<!-- Node16&#45;&gt;Node5 -->
<g id="edge25" class="edge"><title>Node16&#45;&gt;Node5</title>
<path fill="none" stroke="midnightblue" d="M251.055,-186.609C307.321,-178.611 389.419,-164.694 459,-144 461.647,-143.213 464.364,-142.296 467.061,-141.31"/>
<polygon fill="midnightblue" stroke="midnightblue" points="468.571,-144.477 476.588,-137.55 466.001,-137.966 468.571,-144.477"/>
</g>
<!-- Node16&#45;&gt;Node6 -->
<g id="edge26" class="edge"><title>Node16&#45;&gt;Node6</title>
<path fill="none" stroke="midnightblue" d="M230.072,-180.922C263.482,-170.714 308.833,-156.857 344.281,-146.025"/>
<polygon fill="midnightblue" stroke="midnightblue" points="345.458,-149.326 353.998,-143.056 343.412,-142.631 345.458,-149.326"/>
</g>
<!-- Node16&#45;&gt;Node7 -->
<g id="edge28" class="edge"><title>Node16&#45;&gt;Node7</title>
<path fill="none" stroke="midnightblue" d="M190.727,-180.679C195.369,-170.796 201.576,-157.579 206.552,-146.986"/>
<polygon fill="midnightblue" stroke="midnightblue" points="209.77,-148.368 210.853,-137.828 203.434,-145.392 209.77,-148.368"/>
</g>
<!-- Node16&#45;&gt;Node12 -->
<g id="edge27" class="edge"><title>Node16&#45;&gt;Node12</title>
<path fill="none" stroke="midnightblue" d="M159.115,-180.841C139.32,-169.579 111.787,-153.913 92.1793,-142.757"/>
<polygon fill="midnightblue" stroke="midnightblue" points="93.6816,-139.585 83.2591,-137.682 90.2199,-145.669 93.6816,-139.585"/>
</g>
<!-- Node17&#45;&gt;Node4 -->
<g id="edge30" class="edge"><title>Node17&#45;&gt;Node4</title>
<path fill="none" stroke="midnightblue" d="M1007.48,-248.923C997.682,-231.42 979.259,-201.261 958,-180 920.256,-142.253 908.949,-130.829 859,-112 796.28,-88.357 594.924,-73.8283 515.578,-68.8946"/>
<polygon fill="midnightblue" stroke="midnightblue" points="515.413,-65.3781 505.218,-68.2621 514.986,-72.3651 515.413,-65.3781"/>
</g>
<!-- Node17&#45;&gt;Node14 -->
<g id="edge32" class="edge"><title>Node17&#45;&gt;Node14</title>
<path fill="none" stroke="midnightblue" d="M950.936,-252.4C940.606,-250.831 930.017,-249.305 920,-248 778.295,-229.541 613.096,-213.681 513.628,-204.744"/>
<polygon fill="midnightblue" stroke="midnightblue" points="513.888,-201.254 503.616,-203.848 513.264,-208.226 513.888,-201.254"/>
</g>
<!-- Node17&#45;&gt;Node15 -->
<g id="edge33" class="edge"><title>Node17&#45;&gt;Node15</title>
<path fill="none" stroke="midnightblue" d="M1006.85,-248.992C995.085,-230.103 971.469,-196.891 942,-180 884.07,-146.795 808.402,-134.793 753.109,-130.656"/>
<polygon fill="midnightblue" stroke="midnightblue" points="753.245,-127.157 743.031,-129.972 752.771,-134.141 753.245,-127.157"/>
</g>
<!-- Node18 -->
<g id="node18" class="node"><title>Node18</title>
<polygon fill="white" stroke="#bfbfbf" points="1065,-186.5 1065,-205.5 1109,-205.5 1109,-186.5 1065,-186.5"/>
<text text-anchor="middle" x="1087" y="-193.5" font-family="Helvetica,sans-Serif" font-size="10.00">cmath</text>
</g>
<!-- Node17&#45;&gt;Node18 -->
<g id="edge31" class="edge"><title>Node17&#45;&gt;Node18</title>
<path fill="none" stroke="midnightblue" d="M1030.62,-248.679C1042.18,-238.082 1057.92,-223.655 1069.83,-212.736"/>
<polygon fill="midnightblue" stroke="midnightblue" points="1072.36,-215.166 1077.37,-205.828 1067.63,-210.006 1072.36,-215.166"/>
</g>
<!-- Node19 -->
<g id="node19" class="node"><title>Node19</title>
<g id="a_node19"><a xlink:href="../../d1/dba/Coupling_8hpp.html" target="_top" xlink:title="Physics/DecayDynamics\l/Coupling.hpp">
<polygon fill="white" stroke="black" points="1127,-181 1127,-211 1255,-211 1255,-181 1127,-181"/>
<text text-anchor="start" x="1135" y="-199" font-family="Helvetica,sans-Serif" font-size="10.00">Physics/DecayDynamics</text>
<text text-anchor="middle" x="1191" y="-188" font-family="Helvetica,sans-Serif" font-size="10.00">/Coupling.hpp</text>
</a>
</g>
</g>
<!-- Node17&#45;&gt;Node19 -->
<g id="edge34" class="edge"><title>Node17&#45;&gt;Node19</title>
<path fill="none" stroke="midnightblue" d="M1052.76,-248.841C1079.53,-238.802 1115.63,-225.265 1144.22,-214.542"/>
<polygon fill="midnightblue" stroke="midnightblue" points="1145.47,-217.81 1153.61,-211.022 1143.02,-211.256 1145.47,-217.81"/>
</g>
<!-- Node20&#45;&gt;Node14 -->
<g id="edge36" class="edge"><title>Node20&#45;&gt;Node14</title>
<path fill="none" stroke="midnightblue" d="M435.745,-248.679C433.917,-240.636 431.587,-230.385 429.486,-221.137"/>
<polygon fill="midnightblue" stroke="midnightblue" points="432.878,-220.269 427.248,-211.293 426.052,-221.82 432.878,-220.269"/>
</g>
<!-- Node21 -->
<g id="node21" class="node"><title>Node21</title>
<g id="a_node21"><a xlink:href="../../d4/d37/Kinematics_8hpp.html" target="_top" xlink:title="Core/Kinematics.hpp">
<polygon fill="white" stroke="red" points="635,-186.5 635,-205.5 743,-205.5 743,-186.5 635,-186.5"/>
<text text-anchor="middle" x="689" y="-193.5" font-family="Helvetica,sans-Serif" font-size="10.00">Core/Kinematics.hpp</text>
</a>
</g>
</g>
<!-- Node20&#45;&gt;Node21 -->
<g id="edge37" class="edge"><title>Node20&#45;&gt;Node21</title>
<path fill="none" stroke="midnightblue" d="M492.325,-248.922C538.525,-236.725 604.456,-219.32 646.994,-208.09"/>
<polygon fill="midnightblue" stroke="midnightblue" points="647.976,-211.45 656.751,-205.514 646.189,-204.682 647.976,-211.45"/>
</g>
<!-- Node21&#45;&gt;Node4 -->
<g id="edge38" class="edge"><title>Node21&#45;&gt;Node4</title>
<path fill="none" stroke="midnightblue" d="M674.056,-186.36C657.243,-176.515 629.244,-159.745 606,-144 586.277,-130.64 582.978,-124.977 563,-112 545.404,-100.57 524.745,-88.9932 508.829,-80.4444"/>
<polygon fill="midnightblue" stroke="midnightblue" points="510.074,-77.1429 499.601,-75.5412 506.79,-83.3244 510.074,-77.1429"/>
</g>
<!-- Node21&#45;&gt;Node7 -->
<g id="edge41" class="edge"><title>Node21&#45;&gt;Node7</title>
<path fill="none" stroke="midnightblue" d="M634.626,-187.429C541.88,-174.515 354.458,-148.418 264.877,-135.945"/>
<polygon fill="midnightblue" stroke="midnightblue" points="265.096,-132.442 254.709,-134.529 264.13,-139.375 265.096,-132.442"/>
</g>
<!-- Node21&#45;&gt;Node8 -->
<g id="edge39" class="edge"><title>Node21&#45;&gt;Node8</title>
<path fill="none" stroke="midnightblue" d="M704.052,-186.426C728.78,-171.264 773.241,-138.793 752,-112 687.521,-30.666 344.254,-14.6767 238.823,-11.6684"/>
<polygon fill="midnightblue" stroke="midnightblue" points="238.636,-8.16223 228.546,-11.3954 238.45,-15.1598 238.636,-8.16223"/>
</g>
<!-- Node21&#45;&gt;Node13 -->
<g id="edge40" class="edge"><title>Node21&#45;&gt;Node13</title>
<path fill="none" stroke="midnightblue" d="M658.915,-186.446C632.352,-178.074 593.255,-163.706 563,-144 545.881,-132.85 548.448,-120.778 530,-112 407.543,-53.7297 361.644,-92.1865 227,-76 214.875,-74.5424 201.635,-72.9366 189.749,-71.4899"/>
<polygon fill="midnightblue" stroke="midnightblue" points="190.064,-68.0025 179.714,-70.2672 189.218,-74.9511 190.064,-68.0025"/>
</g>
<!-- Node22&#45;&gt;Node5 -->
<g id="edge43" class="edge"><title>Node22&#45;&gt;Node5</title>
<path fill="none" stroke="midnightblue" d="M569.535,-316.812C570.003,-288.994 568.164,-225.992 545,-180 537.958,-166.019 525.702,-153.424 515.086,-144.248"/>
<polygon fill="midnightblue" stroke="midnightblue" points="517.007,-141.297 507.055,-137.662 512.568,-146.71 517.007,-141.297"/>
</g>
<!-- Node22&#45;&gt;Node6 -->
<g id="edge44" class="edge"><title>Node22&#45;&gt;Node6</title>
<path fill="none" stroke="midnightblue" d="M567.258,-316.613C563.002,-287.311 549.525,-220.102 512,-180 497.951,-164.986 478.636,-154.053 460,-146.254"/>
<polygon fill="midnightblue" stroke="midnightblue" points="461.228,-142.976 450.641,-142.565 458.661,-149.489 461.228,-142.976"/>
</g>
<!-- Node22&#45;&gt;Node14 -->
<g id="edge49" class="edge"><title>Node22&#45;&gt;Node14</title>
<path fill="none" stroke="midnightblue" d="M501.768,-323.025C449.351,-315.261 382.732,-301.455 366,-280 349.8,-259.226 372.44,-234.333 394,-217.26"/>
<polygon fill="midnightblue" stroke="midnightblue" points="396.255,-219.944 402.127,-211.125 392.037,-214.357 396.255,-219.944"/>
</g>
<!-- Node22&#45;&gt;Node16 -->
<g id="edge50" class="edge"><title>Node22&#45;&gt;Node16</title>
<path fill="none" stroke="midnightblue" d="M501.583,-318.579C459.389,-309.879 404.259,-296.808 357,-280 307.081,-262.246 252.413,-234.515 218.166,-216.058"/>
<polygon fill="midnightblue" stroke="midnightblue" points="219.526,-212.813 209.069,-211.113 216.184,-218.964 219.526,-212.813"/>
</g>
<!-- Node23 -->
<g id="node23" class="node"><title>Node23</title>
<g id="a_node23"><a xlink:href="../../d4/d62/Resonance_8hpp.html" target="_top" xlink:title="Physics/Resonance.hpp">
<polygon fill="white" stroke="red" points="597.5,-254.5 597.5,-273.5 720.5,-273.5 720.5,-254.5 597.5,-254.5"/>
<text text-anchor="middle" x="659" y="-261.5" font-family="Helvetica,sans-Serif" font-size="10.00">Physics/Resonance.hpp</text>
</a>
</g>
</g>
<!-- Node22&#45;&gt;Node23 -->
<g id="edge45" class="edge"><title>Node22&#45;&gt;Node23</title>
<path fill="none" stroke="midnightblue" d="M588.529,-316.679C603.482,-305.713 624.03,-290.645 639.079,-279.609"/>
<polygon fill="midnightblue" stroke="midnightblue" points="641.227,-282.374 647.221,-273.638 637.087,-276.729 641.227,-282.374"/>
</g>
<!-- Node24 -->
<g id="node24" class="node"><title>Node24</title>
<g id="a_node24"><a xlink:href="../../dd/df5/SubSystem_8hpp.html" target="_top" xlink:title="Physics/HelicityFormalism\l/SubSystem.hpp">
<polygon fill="white" stroke="black" points="799,-181 799,-211 933,-211 933,-181 799,-181"/>
<text text-anchor="start" x="807" y="-199" font-family="Helvetica,sans-Serif" font-size="10.00">Physics/HelicityFormalism</text>
<text text-anchor="middle" x="866" y="-188" font-family="Helvetica,sans-Serif" font-size="10.00">/SubSystem.hpp</text>
</a>
</g>
</g>
<!-- Node22&#45;&gt;Node24 -->
<g id="edge51" class="edge"><title>Node22&#45;&gt;Node24</title>
<path fill="none" stroke="midnightblue" d="M631.619,-316.945C662.11,-308.65 698.645,-296.498 729,-280 748.7,-269.293 749.288,-260.353 768,-248 786.265,-235.942 807.718,-224.501 825.888,-215.522"/>
<polygon fill="midnightblue" stroke="midnightblue" points="827.596,-218.584 835.057,-211.061 824.533,-212.289 827.596,-218.584"/>
</g>
<!-- Node22&#45;&gt;Node25 -->
<g id="edge52" class="edge"><title>Node22&#45;&gt;Node25</title>
<path fill="none" stroke="midnightblue" d="M627.657,-316.922C671.01,-306.518 730.157,-292.322 775.651,-281.404"/>
<polygon fill="midnightblue" stroke="midnightblue" points="776.526,-284.793 785.433,-279.056 774.892,-277.987 776.526,-284.793"/>
</g>
<!-- Node23&#45;&gt;Node4 -->
<g id="edge46" class="edge"><title>Node23&#45;&gt;Node4</title>
<path fill="none" stroke="midnightblue" d="M691.81,-254.419C713.04,-246.978 739.053,-233.866 752,-212 774.644,-173.757 780.718,-145.921 752,-112 722.004,-76.5691 580.141,-69.0142 515.379,-67.4187"/>
<polygon fill="midnightblue" stroke="midnightblue" points="515.385,-63.9181 505.312,-67.2038 515.235,-70.9165 515.385,-63.9181"/>
</g>
<!-- Node23&#45;&gt;Node5 -->
<g id="edge47" class="edge"><title>Node23&#45;&gt;Node5</title>
<path fill="none" stroke="midnightblue" d="M652.606,-254.439C640.366,-238.442 612.232,-203.51 583,-180 564.424,-165.06 540.968,-151.695 522.944,-142.398"/>
<polygon fill="midnightblue" stroke="midnightblue" points="524.061,-139.041 513.556,-137.667 520.911,-145.292 524.061,-139.041"/>
</g>
<!-- Node23&#45;&gt;Node21 -->
<g id="edge48" class="edge"><title>Node23&#45;&gt;Node21</title>
<path fill="none" stroke="midnightblue" d="M662.922,-254.372C667.434,-244.446 674.966,-227.874 680.779,-215.086"/>
<polygon fill="midnightblue" stroke="midnightblue" points="684.03,-216.393 684.981,-205.841 677.657,-213.496 684.03,-216.393"/>
</g>
<!-- Node25&#45;&gt;Node4 -->
<g id="edge53" class="edge"><title>Node25&#45;&gt;Node4</title>
<path fill="none" stroke="midnightblue" d="M894.644,-248.892C912.837,-241.111 931.452,-229.38 942,-212 949.379,-199.842 949.949,-191.793 942,-180 893.477,-108.013 611.658,-77.8324 515.295,-69.5247"/>
<polygon fill="midnightblue" stroke="midnightblue" points="515.52,-66.0313 505.262,-68.6816 514.933,-73.0068 515.52,-66.0313"/>
</g>
<!-- Node25&#45;&gt;Node21 -->
<g id="edge54" class="edge"><title>Node25&#45;&gt;Node21</title>
<path fill="none" stroke="midnightblue" d="M810.749,-248.841C783.457,-237.221 745.157,-220.912 718.84,-209.706"/>
<polygon fill="midnightblue" stroke="midnightblue" points="719.961,-206.379 709.389,-205.682 717.219,-212.82 719.961,-206.379"/>
</g>
<!-- Node25&#45;&gt;Node24 -->
<g id="edge55" class="edge"><title>Node25&#45;&gt;Node24</title>
<path fill="none" stroke="midnightblue" d="M848.774,-248.679C851.484,-240.549 854.945,-230.164 858.054,-220.839"/>
<polygon fill="midnightblue" stroke="midnightblue" points="861.394,-221.887 861.236,-211.293 854.753,-219.673 861.394,-221.887"/>
</g>
</g>
</svg>
