<?xml version="1.0" encoding="UTF-8" standalone="no"?>
<!DOCTYPE svg PUBLIC "-//W3C//DTD SVG 1.1//EN"
 "http://www.w3.org/Graphics/SVG/1.1/DTD/svg11.dtd">
<!-- Generated by graphviz version 2.36.0 (20140111.2315)
 -->
<!-- Title: /home/travis/build/ComPWA/ComPWA/Physics/qft++/Tensor.h Pages: 1 -->
<svg width="1321pt" height="374pt"
 viewBox="0.00 0.00 1321.00 374.00" xmlns="http://www.w3.org/2000/svg" xmlns:xlink="http://www.w3.org/1999/xlink">
<g id="graph0" class="graph" transform="scale(1 1) rotate(0) translate(4 370)">
<title>/home/travis/build/ComPWA/ComPWA/Physics/qft++/Tensor.h</title>
<polygon fill="white" stroke="none" points="-4,4 -4,-370 1317,-370 1317,4 -4,4"/>
<!-- Node1 -->
<g id="node1" class="node"><title>Node1</title>
<polygon fill="#bfbfbf" stroke="black" points="290.5,-324.5 290.5,-365.5 439.5,-365.5 439.5,-324.5 290.5,-324.5"/>
<text text-anchor="start" x="298.5" y="-353.5" font-family="Helvetica,sans-Serif" font-size="10.00">/home/travis/build</text>
<text text-anchor="start" x="298.5" y="-342.5" font-family="Helvetica,sans-Serif" font-size="10.00">/ComPWA/ComPWA/Physics</text>
<text text-anchor="middle" x="365" y="-331.5" font-family="Helvetica,sans-Serif" font-size="10.00">/qft++/Tensor.h</text>
</g>
<!-- Node2 -->
<g id="node2" class="node"><title>Node2</title>
<g id="a_node2"><a xlink:href="../../d1/d79/SpecialTensors_8h.html" target="_top" xlink:title="Definition file for some special tensors derived from Tensor. ">
<polygon fill="white" stroke="black" points="207.5,-246.5 207.5,-287.5 356.5,-287.5 356.5,-246.5 207.5,-246.5"/>
<text text-anchor="start" x="215.5" y="-275.5" font-family="Helvetica,sans-Serif" font-size="10.00">/home/travis/build</text>
<text text-anchor="start" x="215.5" y="-264.5" font-family="Helvetica,sans-Serif" font-size="10.00">/ComPWA/ComPWA/Physics</text>
<text text-anchor="middle" x="282" y="-253.5" font-family="Helvetica,sans-Serif" font-size="10.00">/qft++/SpecialTensors.h</text>
</a>
</g>
</g>
<!-- Node1&#45;&gt;Node2 -->
<g id="edge1" class="edge"><title>Node1&#45;&gt;Node2</title>
<path fill="none" stroke="midnightblue" d="M336.05,-317.492C325.28,-307.629 313.264,-296.627 303.302,-287.506"/>
<polygon fill="midnightblue" stroke="midnightblue" points="333.887,-320.256 343.625,-324.428 338.614,-315.094 333.887,-320.256"/>
</g>
<!-- Node3 -->
<g id="node3" class="node"><title>Node3</title>
<g id="a_node3"><a xlink:href="../../d7/d36/Vector4_8h.html" target="_top" xlink:title="Vector4 template class definition file. ">
<polygon fill="white" stroke="black" points="374.5,-246.5 374.5,-287.5 523.5,-287.5 523.5,-246.5 374.5,-246.5"/>
<text text-anchor="start" x="382.5" y="-275.5" font-family="Helvetica,sans-Serif" font-size="10.00">/home/travis/build</text>
<text text-anchor="start" x="382.5" y="-264.5" font-family="Helvetica,sans-Serif" font-size="10.00">/ComPWA/ComPWA/Physics</text>
<text text-anchor="middle" x="449" y="-253.5" font-family="Helvetica,sans-Serif" font-size="10.00">/qft++/Vector4.h</text>
</a>
</g>
</g>
<!-- Node1&#45;&gt;Node3 -->
<g id="edge2" class="edge"><title>Node1&#45;&gt;Node3</title>
<path fill="none" stroke="midnightblue" d="M394.299,-317.492C405.199,-307.629 417.359,-296.627 427.441,-287.506"/>
<polygon fill="midnightblue" stroke="midnightblue" points="391.699,-315.124 386.632,-324.428 396.396,-320.314 391.699,-315.124"/>
</g>
<!-- Node4 -->
<g id="node4" class="node"><title>Node4</title>
<g id="a_node4"><a xlink:href="../../d2/d8f/HelicityKinematics_8cpp.html" target="_top" xlink:title="/home/travis/build\l/ComPWA/ComPWA/Physics\l/HelicityFormalism/HelicityKinematics.cpp">
<polygon fill="white" stroke="black" points="0,-84.5 0,-125.5 202,-125.5 202,-84.5 0,-84.5"/>
<text text-anchor="start" x="8" y="-113.5" font-family="Helvetica,sans-Serif" font-size="10.00">/home/travis/build</text>
<text text-anchor="start" x="8" y="-102.5" font-family="Helvetica,sans-Serif" font-size="10.00">/ComPWA/ComPWA/Physics</text>
<text text-anchor="middle" x="101" y="-91.5" font-family="Helvetica,sans-Serif" font-size="10.00">/HelicityFormalism/HelicityKinematics.cpp</text>
</a>
</g>
</g>
<!-- Node3&#45;&gt;Node4 -->
<g id="edge3" class="edge"><title>Node3&#45;&gt;Node4</title>
<path fill="none" stroke="midnightblue" d="M396.938,-242.064C327.889,-210.317 207.324,-154.884 143.476,-125.529"/>
<polygon fill="midnightblue" stroke="midnightblue" points="395.781,-245.383 406.328,-246.381 398.705,-239.023 395.781,-245.383"/>
</g>
<!-- Node5 -->
<g id="node5" class="node"><title>Node5</title>
<g id="a_node5"><a xlink:href="../../d0/dab/HelicityKinematics_8hpp.html" target="_top" xlink:title="/home/travis/build\l/ComPWA/ComPWA/Physics\l/HelicityFormalism/HelicityKinematics.hpp">
<polygon fill="white" stroke="black" points="507,-168.5 507,-209.5 709,-209.5 709,-168.5 507,-168.5"/>
<text text-anchor="start" x="515" y="-197.5" font-family="Helvetica,sans-Serif" font-size="10.00">/home/travis/build</text>
<text text-anchor="start" x="515" y="-186.5" font-family="Helvetica,sans-Serif" font-size="10.00">/ComPWA/ComPWA/Physics</text>
<text text-anchor="middle" x="608" y="-175.5" font-family="Helvetica,sans-Serif" font-size="10.00">/HelicityFormalism/HelicityKinematics.hpp</text>
</a>
</g>
</g>
<!-- Node3&#45;&gt;Node5 -->
<g id="edge4" class="edge"><title>Node3&#45;&gt;Node5</title>
<path fill="none" stroke="midnightblue" d="M499.109,-242.049C521.039,-231.566 546.441,-219.424 567.192,-209.506"/>
<polygon fill="midnightblue" stroke="midnightblue" points="497.459,-238.958 489.946,-246.428 500.478,-245.273 497.459,-238.958"/>
</g>
<!-- Node5&#45;&gt;Node4 -->
<g id="edge8" class="edge"><title>Node5&#45;&gt;Node4</title>
<path fill="none" stroke="midnightblue" d="M496.75,-175.087C416.913,-165.144 306.937,-150.065 211,-132 200.876,-130.094 190.278,-127.876 179.826,-125.554"/>
<polygon fill="midnightblue" stroke="midnightblue" points="496.471,-178.579 506.825,-176.334 497.331,-171.632 496.471,-178.579"/>
</g>
<!-- Node6 -->
<g id="node6" class="node"><title>Node6</title>
<g id="a_node6"><a xlink:href="../../dc/df0/PlotData_8cpp.html" target="_top" xlink:title="/home/travis/build\l/ComPWA/ComPWA/Examples\l/DalitzAnalysis_D0KsKK\l/PlotData.cpp">
<polygon fill="white" stroke="black" points="220,-79 220,-131 378,-131 378,-79 220,-79"/>
<text text-anchor="start" x="228" y="-119" font-family="Helvetica,sans-Serif" font-size="10.00">/home/travis/build</text>
<text text-anchor="start" x="228" y="-108" font-family="Helvetica,sans-Serif" font-size="10.00">/ComPWA/ComPWA/Examples</text>
<text text-anchor="start" x="228" y="-97" font-family="Helvetica,sans-Serif" font-size="10.00">/DalitzAnalysis_D0KsKK</text>
<text text-anchor="middle" x="299" y="-86" font-family="Helvetica,sans-Serif" font-size="10.00">/PlotData.cpp</text>
</a>
</g>
</g>
<!-- Node5&#45;&gt;Node6 -->
<g id="edge5" class="edge"><title>Node5&#45;&gt;Node6</title>
<path fill="none" stroke="midnightblue" d="M517.98,-166.036C477.801,-156.015 429.933,-143.777 387,-132 384.081,-131.199 381.111,-130.374 378.112,-129.533"/>
<polygon fill="midnightblue" stroke="midnightblue" points="517.205,-169.45 527.755,-168.468 518.896,-162.657 517.205,-169.45"/>
</g>
<!-- Node7 -->
<g id="node7" class="node"><title>Node7</title>
<g id="a_node7"><a xlink:href="../../de/d02/AbstractDynamicalFunction_8hpp.html" target="_top" xlink:title="/home/travis/build\l/ComPWA/ComPWA/Physics\l/HelicityFormalism/AbstractDynamical\lFunction.hpp">
<polygon fill="white" stroke="red" points="395.5,-79 395.5,-131 580.5,-131 580.5,-79 395.5,-79"/>
<text text-anchor="start" x="403.5" y="-119" font-family="Helvetica,sans-Serif" font-size="10.00">/home/travis/build</text>
<text text-anchor="start" x="403.5" y="-108" font-family="Helvetica,sans-Serif" font-size="10.00">/ComPWA/ComPWA/Physics</text>
<text text-anchor="start" x="403.5" y="-97" font-family="Helvetica,sans-Serif" font-size="10.00">/HelicityFormalism/AbstractDynamical</text>
<text text-anchor="middle" x="488" y="-86" font-family="Helvetica,sans-Serif" font-size="10.00">Function.hpp</text>
</a>
</g>
</g>
<!-- Node5&#45;&gt;Node7 -->
<g id="edge6" class="edge"><title>Node5&#45;&gt;Node7</title>
<path fill="none" stroke="midnightblue" d="M570.888,-162.64C556.196,-152.601 539.351,-141.09 524.699,-131.078"/>
<polygon fill="midnightblue" stroke="midnightblue" points="569.026,-165.607 579.257,-168.359 572.975,-159.827 569.026,-165.607"/>
</g>
<!-- Node8 -->
<g id="node8" class="node"><title>Node8</title>
<g id="a_node8"><a xlink:href="../../d3/d1f/HelicityFormalism_8hpp.html" target="_top" xlink:title="/home/travis/build\l/ComPWA/ComPWA/Physics\l/HelicityFormalism.hpp">
<polygon fill="white" stroke="red" points="473.5,-0.5 473.5,-41.5 622.5,-41.5 622.5,-0.5 473.5,-0.5"/>
<text text-anchor="start" x="481.5" y="-29.5" font-family="Helvetica,sans-Serif" font-size="10.00">/home/travis/build</text>
<text text-anchor="start" x="481.5" y="-18.5" font-family="Helvetica,sans-Serif" font-size="10.00">/ComPWA/ComPWA/Physics</text>
<text text-anchor="middle" x="548" y="-7.5" font-family="Helvetica,sans-Serif" font-size="10.00">/HelicityFormalism.hpp</text>
</a>
</g>
</g>
<!-- Node5&#45;&gt;Node8 -->
<g id="edge13" class="edge"><title>Node5&#45;&gt;Node8</title>
<path fill="none" stroke="midnightblue" d="M606.541,-158.089C604.566,-135.355 599.919,-103.718 589,-78 583.396,-64.8015 574.143,-51.773 565.844,-41.6084"/>
<polygon fill="midnightblue" stroke="midnightblue" points="603.059,-158.449 607.294,-168.161 610.039,-157.928 603.059,-158.449"/>
</g>
<!-- Node9 -->
<g id="node9" class="node"><title>Node9</title>
<g id="a_node9"><a xlink:href="../../df/d53/PartialDecay_8cpp.html" target="_top" xlink:title="/home/travis/build\l/ComPWA/ComPWA/Physics\l/HelicityFormalism/PartialDecay.cpp">
<polygon fill="white" stroke="black" points="636,-84.5 636,-125.5 812,-125.5 812,-84.5 636,-84.5"/>
<text text-anchor="start" x="644" y="-113.5" font-family="Helvetica,sans-Serif" font-size="10.00">/home/travis/build</text>
<text text-anchor="start" x="644" y="-102.5" font-family="Helvetica,sans-Serif" font-size="10.00">/ComPWA/ComPWA/Physics</text>
<text text-anchor="middle" x="724" y="-91.5" font-family="Helvetica,sans-Serif" font-size="10.00">/HelicityFormalism/PartialDecay.cpp</text>
</a>
</g>
</g>
<!-- Node5&#45;&gt;Node9 -->
<g id="edge9" class="edge"><title>Node5&#45;&gt;Node9</title>
<path fill="none" stroke="midnightblue" d="M644.233,-162.387C660.948,-150.571 680.485,-136.761 696.04,-125.765"/>
<polygon fill="midnightblue" stroke="midnightblue" points="641.93,-159.729 635.785,-168.359 645.971,-165.445 641.93,-159.729"/>
</g>
<!-- Node10 -->
<g id="node10" class="node"><title>Node10</title>
<g id="a_node10"><a xlink:href="../../d3/d67/RelativisticBreitWigner_8cpp.html" target="_top" xlink:title="/home/travis/build\l/ComPWA/ComPWA/Physics\l/HelicityFormalism/Relativistic\lBreitWigner.cpp">
<polygon fill="white" stroke="black" points="830,-79 830,-131 980,-131 980,-79 830,-79"/>
<text text-anchor="start" x="838" y="-119" font-family="Helvetica,sans-Serif" font-size="10.00">/home/travis/build</text>
<text text-anchor="start" x="838" y="-108" font-family="Helvetica,sans-Serif" font-size="10.00">/ComPWA/ComPWA/Physics</text>
<text text-anchor="start" x="838" y="-97" font-family="Helvetica,sans-Serif" font-size="10.00">/HelicityFormalism/Relativistic</text>
<text text-anchor="middle" x="905" y="-86" font-family="Helvetica,sans-Serif" font-size="10.00">BreitWigner.cpp</text>
</a>
</g>
</g>
<!-- Node5&#45;&gt;Node10 -->
<g id="edge10" class="edge"><title>Node5&#45;&gt;Node10</title>
<path fill="none" stroke="midnightblue" d="M694.857,-165.864C733.298,-155.86 778.998,-143.681 820,-132 823.265,-131.07 826.597,-130.107 829.959,-129.125"/>
<polygon fill="midnightblue" stroke="midnightblue" points="693.534,-162.592 684.734,-168.492 695.293,-169.367 693.534,-162.592"/>
</g>
<!-- Node11 -->
<g id="node11" class="node"><title>Node11</title>
<g id="a_node11"><a xlink:href="../../d8/d80/AmpModel_8cpp.html" target="_top" xlink:title="/home/travis/build\l/ComPWA/ComPWA/Physics\l/HelicityFormalism/test\l/AmpModel.cpp">
<polygon fill="white" stroke="black" points="997.5,-79 997.5,-131 1146.5,-131 1146.5,-79 997.5,-79"/>
<text text-anchor="start" x="1005.5" y="-119" font-family="Helvetica,sans-Serif" font-size="10.00">/home/travis/build</text>
<text text-anchor="start" x="1005.5" y="-108" font-family="Helvetica,sans-Serif" font-size="10.00">/ComPWA/ComPWA/Physics</text>
<text text-anchor="start" x="1005.5" y="-97" font-family="Helvetica,sans-Serif" font-size="10.00">/HelicityFormalism/test</text>
<text text-anchor="middle" x="1072" y="-86" font-family="Helvetica,sans-Serif" font-size="10.00">/AmpModel.cpp</text>
</a>
</g>
</g>
<!-- Node5&#45;&gt;Node11 -->
<g id="edge11" class="edge"><title>Node5&#45;&gt;Node11</title>
<path fill="none" stroke="midnightblue" d="M719.288,-176.175C795.486,-166.964 898.536,-152.311 988,-132 990.977,-131.324 994.002,-130.595 997.049,-129.825"/>
<polygon fill="midnightblue" stroke="midnightblue" points="718.704,-172.72 709.19,-177.383 719.535,-179.67 718.704,-172.72"/>
</g>
<!-- Node12 -->
<g id="node12" class="node"><title>Node12</title>
<g id="a_node12"><a xlink:href="../../d7/d56/HelicityAngle_8cpp.html" target="_top" xlink:title="/home/travis/build\l/ComPWA/ComPWA/Physics\l/HelicityFormalism/test\l/HelicityAngle.cpp">
<polygon fill="white" stroke="black" points="1164.5,-79 1164.5,-131 1313.5,-131 1313.5,-79 1164.5,-79"/>
<text text-anchor="start" x="1172.5" y="-119" font-family="Helvetica,sans-Serif" font-size="10.00">/home/travis/build</text>
<text text-anchor="start" x="1172.5" y="-108" font-family="Helvetica,sans-Serif" font-size="10.00">/ComPWA/ComPWA/Physics</text>
<text text-anchor="start" x="1172.5" y="-97" font-family="Helvetica,sans-Serif" font-size="10.00">/HelicityFormalism/test</text>
<text text-anchor="middle" x="1239" y="-86" font-family="Helvetica,sans-Serif" font-size="10.00">/HelicityAngle.cpp</text>
</a>
</g>
</g>
<!-- Node5&#45;&gt;Node12 -->
<g id="edge12" class="edge"><title>Node5&#45;&gt;Node12</title>
<path fill="none" stroke="midnightblue" d="M719.446,-183.065C830.674,-176.627 1006.02,-162.371 1155,-132 1157.99,-131.39 1161.03,-130.717 1164.09,-129.994"/>
<polygon fill="midnightblue" stroke="midnightblue" points="719.004,-179.584 709.219,-183.645 719.401,-186.573 719.004,-179.584"/>
</g>
<!-- Node7&#45;&gt;Node8 -->
<g id="edge7" class="edge"><title>Node7&#45;&gt;Node8</title>
<path fill="none" stroke="midnightblue" d="M512.259,-70.8459C519.496,-60.9556 527.196,-50.4327 533.588,-41.6965"/>
<polygon fill="midnightblue" stroke="midnightblue" points="509.409,-68.8146 506.328,-78.9517 515.058,-72.9482 509.409,-68.8146"/>
</g>
</g>
</svg>
