<?xml version="1.0" encoding="UTF-8" standalone="no"?>
<!DOCTYPE svg PUBLIC "-//W3C//DTD SVG 1.1//EN"
 "http://www.w3.org/Graphics/SVG/1.1/DTD/svg11.dtd">
<!-- Generated by graphviz version 2.36.0 (20140111.2315)
 -->
<!-- Title: /home/travis/build/ComPWA/ComPWA/DataReader/JakeReader/JakeReader.hpp Pages: 1 -->
<svg width="1147pt" height="140pt"
 viewBox="0.00 0.00 1147.00 140.00" xmlns="http://www.w3.org/2000/svg" xmlns:xlink="http://www.w3.org/1999/xlink">
<g id="graph0" class="graph" transform="scale(1 1) rotate(0) translate(4 136)">
<title>/home/travis/build/ComPWA/ComPWA/DataReader/JakeReader/JakeReader.hpp</title>
<polygon fill="white" stroke="none" points="-4,4 -4,-136 1143,-136 1143,4 -4,4"/>
<!-- Node1 -->
<g id="node1" class="node"><title>Node1</title>
<polygon fill="#bfbfbf" stroke="black" points="484.5,-90.5 484.5,-131.5 651.5,-131.5 651.5,-90.5 484.5,-90.5"/>
<text text-anchor="start" x="492.5" y="-119.5" font-family="Helvetica,sans-Serif" font-size="10.00">/home/travis/build</text>
<text text-anchor="start" x="492.5" y="-108.5" font-family="Helvetica,sans-Serif" font-size="10.00">/ComPWA/ComPWA/DataReader</text>
<text text-anchor="middle" x="568" y="-97.5" font-family="Helvetica,sans-Serif" font-size="10.00">/JakeReader/JakeReader.hpp</text>
</g>
<!-- Node2 -->
<g id="node2" class="node"><title>Node2</title>
<g id="a_node2"><a xlink:href="../../d6/d11/JakeReader_8cpp.html" target="_top" xlink:title="/home/travis/build\l/ComPWA/ComPWA/DataReader\l/JakeReader/JakeReader.cpp">
<polygon fill="white" stroke="black" points="-0.5,-6.5 -0.5,-47.5 166.5,-47.5 166.5,-6.5 -0.5,-6.5"/>
<text text-anchor="start" x="7.5" y="-35.5" font-family="Helvetica,sans-Serif" font-size="10.00">/home/travis/build</text>
<text text-anchor="start" x="7.5" y="-24.5" font-family="Helvetica,sans-Serif" font-size="10.00">/ComPWA/ComPWA/DataReader</text>
<text text-anchor="middle" x="83" y="-13.5" font-family="Helvetica,sans-Serif" font-size="10.00">/JakeReader/JakeReader.cpp</text>
</a>
</g>
</g>
<!-- Node1&#45;&gt;Node2 -->
<g id="edge1" class="edge"><title>Node1&#45;&gt;Node2</title>
<path fill="none" stroke="midnightblue" d="M474.194,-100.212C394.184,-91.0117 276.355,-75.4425 175,-54 166.231,-52.1449 157.068,-49.9156 148.068,-47.5524"/>
<polygon fill="midnightblue" stroke="midnightblue" points="473.917,-103.703 484.248,-101.357 474.709,-96.7478 473.917,-103.703"/>
</g>
<!-- Node3 -->
<g id="node3" class="node"><title>Node3</title>
<g id="a_node3"><a xlink:href="../../d4/d8c/DalitzDataPlotterApp_8cpp.html" target="_top" xlink:title="Plotter for three particle final states. ">
<polygon fill="white" stroke="black" points="184.5,-1 184.5,-53 365.5,-53 365.5,-1 184.5,-1"/>
<text text-anchor="start" x="192.5" y="-41" font-family="Helvetica,sans-Serif" font-size="10.00">/home/travis/build</text>
<text text-anchor="start" x="192.5" y="-30" font-family="Helvetica,sans-Serif" font-size="10.00">/ComPWA/ComPWA/executables</text>
<text text-anchor="start" x="192.5" y="-19" font-family="Helvetica,sans-Serif" font-size="10.00">/Examples/DalitzFit/DalitzDataPlotter</text>
<text text-anchor="middle" x="275" y="-8" font-family="Helvetica,sans-Serif" font-size="10.00">App.cpp</text>
</a>
</g>
</g>
<!-- Node1&#45;&gt;Node3 -->
<g id="edge2" class="edge"><title>Node1&#45;&gt;Node3</title>
<path fill="none" stroke="midnightblue" d="M488.135,-87.6488C449.899,-76.9479 403.968,-64.0933 364.55,-53.0619"/>
<polygon fill="midnightblue" stroke="midnightblue" points="487.618,-91.1385 498.191,-90.4631 489.505,-84.3975 487.618,-91.1385"/>
</g>
<!-- Node4 -->
<g id="node4" class="node"><title>Node4</title>
<g id="a_node4"><a xlink:href="../../da/d2a/DalitzFitApp_8cpp.html" target="_top" xlink:title="Dalitz plot analysis of the decay D0&#45;&gt;K_S0 K_ K&#45;Fit application for D0&#45;&gt;K_S0 K_ K&#45; analysis...">
<polygon fill="white" stroke="black" points="383.5,-6.5 383.5,-47.5 562.5,-47.5 562.5,-6.5 383.5,-6.5"/>
<text text-anchor="start" x="391.5" y="-35.5" font-family="Helvetica,sans-Serif" font-size="10.00">/home/travis/build</text>
<text text-anchor="start" x="391.5" y="-24.5" font-family="Helvetica,sans-Serif" font-size="10.00">/ComPWA/ComPWA/executables</text>
<text text-anchor="middle" x="473" y="-13.5" font-family="Helvetica,sans-Serif" font-size="10.00">/Examples/DalitzFit/DalitzFitApp.cpp</text>
</a>
</g>
</g>
<!-- Node1&#45;&gt;Node4 -->
<g id="edge3" class="edge"><title>Node1&#45;&gt;Node4</title>
<path fill="none" stroke="midnightblue" d="M537.332,-83.5284C523.826,-71.871 508.236,-58.4138 495.785,-47.6671"/>
<polygon fill="midnightblue" stroke="midnightblue" points="535.146,-86.2654 545.003,-90.1501 539.72,-80.9664 535.146,-86.2654"/>
</g>
<!-- Node5 -->
<g id="node5" class="node"><title>Node5</title>
<g id="a_node5"><a xlink:href="../../d6/d0a/PythonFit_8cpp.html" target="_top" xlink:title="/home/travis/build\l/ComPWA/ComPWA/executables\l/Examples/PythonDalitzFit\l/PythonFit.cpp">
<polygon fill="white" stroke="black" points="580.5,-1 580.5,-53 747.5,-53 747.5,-1 580.5,-1"/>
<text text-anchor="start" x="588.5" y="-41" font-family="Helvetica,sans-Serif" font-size="10.00">/home/travis/build</text>
<text text-anchor="start" x="588.5" y="-30" font-family="Helvetica,sans-Serif" font-size="10.00">/ComPWA/ComPWA/executables</text>
<text text-anchor="start" x="588.5" y="-19" font-family="Helvetica,sans-Serif" font-size="10.00">/Examples/PythonDalitzFit</text>
<text text-anchor="middle" x="664" y="-8" font-family="Helvetica,sans-Serif" font-size="10.00">/PythonFit.cpp</text>
</a>
</g>
</g>
<!-- Node1&#45;&gt;Node5 -->
<g id="edge4" class="edge"><title>Node1&#45;&gt;Node5</title>
<path fill="none" stroke="midnightblue" d="M598.856,-83.6437C610.256,-73.9061 623.142,-62.8996 634.426,-53.2613"/>
<polygon fill="midnightblue" stroke="midnightblue" points="596.569,-80.9939 591.239,-90.1501 601.116,-86.3165 596.569,-80.9939"/>
</g>
<!-- Node6 -->
<g id="node6" class="node"><title>Node6</title>
<g id="a_node6"><a xlink:href="../../d6/d9a/SliceFitApp_8cpp.html" target="_top" xlink:title="/home/travis/build\l/ComPWA/ComPWA/executables\l/Examples/SliceFit/SliceFitApp.cpp">
<polygon fill="white" stroke="black" points="765.5,-6.5 765.5,-47.5 936.5,-47.5 936.5,-6.5 765.5,-6.5"/>
<text text-anchor="start" x="773.5" y="-35.5" font-family="Helvetica,sans-Serif" font-size="10.00">/home/travis/build</text>
<text text-anchor="start" x="773.5" y="-24.5" font-family="Helvetica,sans-Serif" font-size="10.00">/ComPWA/ComPWA/executables</text>
<text text-anchor="middle" x="851" y="-13.5" font-family="Helvetica,sans-Serif" font-size="10.00">/Examples/SliceFit/SliceFitApp.cpp</text>
</a>
</g>
</g>
<!-- Node1&#45;&gt;Node6 -->
<g id="edge5" class="edge"><title>Node1&#45;&gt;Node6</title>
<path fill="none" stroke="midnightblue" d="M645.07,-87.6687C688.392,-75.116 741.96,-59.5947 783.601,-47.5291"/>
<polygon fill="midnightblue" stroke="midnightblue" points="644.057,-84.3183 635.426,-90.4631 646.005,-91.0417 644.057,-84.3183"/>
</g>
<!-- Node7 -->
<g id="node7" class="node"><title>Node7</title>
<g id="a_node7"><a xlink:href="../../d9/de4/SliceFitUBApp_8cpp.html" target="_top" xlink:title="/home/travis/build\l/ComPWA/ComPWA/executables\l/Examples/SliceFit/SliceFitUBApp.cpp">
<polygon fill="white" stroke="black" points="954.5,-6.5 954.5,-47.5 1139.5,-47.5 1139.5,-6.5 954.5,-6.5"/>
<text text-anchor="start" x="962.5" y="-35.5" font-family="Helvetica,sans-Serif" font-size="10.00">/home/travis/build</text>
<text text-anchor="start" x="962.5" y="-24.5" font-family="Helvetica,sans-Serif" font-size="10.00">/ComPWA/ComPWA/executables</text>
<text text-anchor="middle" x="1047" y="-13.5" font-family="Helvetica,sans-Serif" font-size="10.00">/Examples/SliceFit/SliceFitUBApp.cpp</text>
</a>
</g>
</g>
<!-- Node1&#45;&gt;Node7 -->
<g id="edge6" class="edge"><title>Node1&#45;&gt;Node7</title>
<path fill="none" stroke="midnightblue" d="M661.633,-98.7941C738.198,-88.9838 849.083,-73.2962 945,-54 954.495,-52.0898 964.431,-49.8561 974.217,-47.5148"/>
<polygon fill="midnightblue" stroke="midnightblue" points="661.011,-95.345 651.533,-100.08 661.895,-102.289 661.011,-95.345"/>
</g>
</g>
</svg>
