<?xml version="1.0" encoding="UTF-8" standalone="no"?>
<!DOCTYPE svg PUBLIC "-//W3C//DTD SVG 1.1//EN"
 "http://www.w3.org/Graphics/SVG/1.1/DTD/svg11.dtd">
<!-- Generated by graphviz version 2.36.0 (20140111.2315)
 -->
<!-- Title: /home/travis/build/ComPWA/ComPWA/Estimator/ChiOneD/ChiOneD.hpp Pages: 1 -->
<!--zoomable 330 -->
<svg id="main" version="1.1" xmlns="http://www.w3.org/2000/svg" xmlns:xlink="http://www.w3.org/1999/xlink" xml:space="preserve" onload="init(evt)">
<style type="text/css"><![CDATA[
.edge:hover path { stroke: red; }
.edge:hover polygon { stroke: red; fill: red; }
]]></style>
<script type="text/javascript"><![CDATA[
var edges = document.getElementsByTagName('g');
if (edges && edges.length) {
  for (var i=0;i<edges.length;i++) {
    if (edges[i].id.substr(0,4)=='edge') {
      edges[i].setAttribute('class','edge');
    }
  }
}
]]></script>
        <defs>
                <circle id="rim" cx="0" cy="0" r="7"/>
                <circle id="rim2" cx="0" cy="0" r="3.5"/>
                <g id="zoomPlus">
                        <use xlink:href="#rim" fill="#404040">
                                <set attributeName="fill" to="#808080" begin="zoomplus.mouseover" end="zoomplus.mouseout"/>
                        </use>
                        <path d="M-4,0h8M0,-4v8" fill="none" stroke="white" stroke-width="1.5" pointer-events="none"/>
                </g>
                <g id="zoomMin">
                        <use xlink:href="#rim" fill="#404040">
                                <set attributeName="fill" to="#808080" begin="zoomminus.mouseover" end="zoomminus.mouseout"/>
                        </use>
                        <path d="M-4,0h8" fill="none" stroke="white" stroke-width="1.5" pointer-events="none"/>
                </g>
                <g id="dirArrow">
                        <path fill="none" stroke="white" stroke-width="1.5" d="M0,-3.0v7 M-2.5,-0.5L0,-3.0L2.5,-0.5"/>
                </g>
               <g id="resetDef">
                       <use xlink:href="#rim2" fill="#404040">
                               <set attributeName="fill" to="#808080" begin="reset.mouseover" end="reset.mouseout"/>
                       </use>
               </g>
        </defs>

<script type="text/javascript">
var viewWidth = 726;
var viewHeight = 330;
var sectionId = 'dynsection-0';
</script>
<script xlink:href="../../svgpan.js"/>
<svg id="graph" class="graph">
<g id="viewport">
<title>/home/travis/build/ComPWA/ComPWA/Estimator/ChiOneD/ChiOneD.hpp</title>
<polygon fill="white" stroke="none" points="-4,4 -4,-326 722.408,-326 722.408,4 -4,4"/>
<!-- Node1 -->
<g id="node1" class="node"><title>Node1</title>
<polygon fill="#bfbfbf" stroke="black" points="360,-280.5 360,-321.5 516,-321.5 516,-280.5 360,-280.5"/>
<text text-anchor="start" x="368" y="-309.5" font-family="Helvetica,sans-Serif" font-size="10.00">/home/travis/build</text>
<text text-anchor="start" x="368" y="-298.5" font-family="Helvetica,sans-Serif" font-size="10.00">/ComPWA/ComPWA/Estimator</text>
<text text-anchor="middle" x="438" y="-287.5" font-family="Helvetica,sans-Serif" font-size="10.00">/ChiOneD/ChiOneD.hpp</text>
</g>
<!-- Node2 -->
<g id="node2" class="node"><title>Node2</title>
<polygon fill="white" stroke="#bfbfbf" points="352,-0.5 352,-19.5 396,-19.5 396,-0.5 352,-0.5"/>
<text text-anchor="middle" x="374" y="-7.5" font-family="Helvetica,sans-Serif" font-size="10.00">vector</text>
</g>
<!-- Node1&#45;&gt;Node2 -->
<g id="edge1" class="edge"><title>Node1&#45;&gt;Node2</title>
<path fill="none" stroke="midnightblue" d="M487.431,-280.486C527.029,-261.23 576,-227.592 576,-179 576,-179 576,-179 576,-121 576,-44.4997 462.876,-20.8944 405.94,-13.8584"/>
<polygon fill="midnightblue" stroke="midnightblue" points="406.334,-10.3807 396.002,-12.7284 405.543,-17.3359 406.334,-10.3807"/>
</g>
<!-- Node3 -->
<g id="node3" class="node"><title>Node3</title>
<polygon fill="white" stroke="#bfbfbf" points="131,-0.5 131,-19.5 183,-19.5 183,-0.5 131,-0.5"/>
<text text-anchor="middle" x="157" y="-7.5" font-family="Helvetica,sans-Serif" font-size="10.00">memory</text>
</g>
<!-- Node1&#45;&gt;Node3 -->
<g id="edge2" class="edge"><title>Node1&#45;&gt;Node3</title>
<path fill="none" stroke="midnightblue" d="M359.947,-294.466C234.023,-283.367 0,-252.811 0,-179 0,-179 0,-179 0,-121 0,-62.2432 74.6681,-32.2124 121.017,-19.2311"/>
<polygon fill="midnightblue" stroke="midnightblue" points="121.961,-22.6019 130.722,-16.6444 120.158,-15.8381 121.961,-22.6019"/>
</g>
<!-- Node4 -->
<g id="node4" class="node"><title>Node4</title>
<polygon fill="white" stroke="#bfbfbf" points="517.5,-0.5 517.5,-19.5 558.5,-19.5 558.5,-0.5 517.5,-0.5"/>
<text text-anchor="middle" x="538" y="-7.5" font-family="Helvetica,sans-Serif" font-size="10.00">string</text>
</g>
<!-- Node1&#45;&gt;Node4 -->
<g id="edge3" class="edge"><title>Node1&#45;&gt;Node4</title>
<path fill="none" stroke="midnightblue" d="M516.368,-298.333C599.202,-291.909 718,-267.304 718,-179 718,-179 718,-179 718,-121 718,-90.7745 719.631,-77.1111 698,-56 663.191,-22.0276 604.853,-13.2834 569.063,-11.2733"/>
<polygon fill="midnightblue" stroke="midnightblue" points="568.867,-7.7623 558.731,-10.8452 568.577,-14.7563 568.867,-7.7623"/>
</g>
<!-- Node5 -->
<g id="node5" class="node"><title>Node5</title>
<g id="a_node5"><a xlink:href="../../d5/d10/Estimator_8hpp.html" target="_top" xlink:title="This class provides the interface to classes which estimate the &quot;closeness&quot; of the modeled intensity ...">
<polygon fill="white" stroke="black" points="189.5,-224.5 189.5,-243.5 290.5,-243.5 290.5,-224.5 189.5,-224.5"/>
<text text-anchor="middle" x="240" y="-231.5" font-family="Helvetica,sans-Serif" font-size="10.00">Core/Estimator.hpp</text>
</a>
</g>
</g>
<!-- Node1&#45;&gt;Node5 -->
<g id="edge4" class="edge"><title>Node1&#45;&gt;Node5</title>
<path fill="none" stroke="midnightblue" d="M378.593,-280.498C345.07,-269.493 304.294,-256.106 275.679,-246.713"/>
<polygon fill="midnightblue" stroke="midnightblue" points="276.689,-243.361 266.097,-243.567 274.506,-250.012 276.689,-243.361"/>
</g>
<!-- Node6 -->
<g id="node6" class="node"><title>Node6</title>
<g id="a_node6"><a xlink:href="../../df/d9f/ParameterList_8hpp.html" target="_top" xlink:title="This class provides a list of fit parameters which can have different types. ">
<polygon fill="white" stroke="red" points="314,-56.5 314,-75.5 434,-75.5 434,-56.5 314,-56.5"/>
<text text-anchor="middle" x="374" y="-63.5" font-family="Helvetica,sans-Serif" font-size="10.00">Core/ParameterList.hpp</text>
</a>
</g>
</g>
<!-- Node1&#45;&gt;Node6 -->
<g id="edge31" class="edge"><title>Node1&#45;&gt;Node6</title>
<path fill="none" stroke="midnightblue" d="M433.084,-280.44C424.412,-246.187 405.641,-173.17 388,-112 385.446,-103.145 382.429,-93.3701 379.851,-85.1995"/>
<polygon fill="midnightblue" stroke="midnightblue" points="383.162,-84.0602 376.791,-75.5947 376.492,-86.1853 383.162,-84.0602"/>
</g>
<!-- Node8 -->
<g id="node8" class="node"><title>Node8</title>
<g id="a_node8"><a xlink:href="../../dc/dfd/AmpIntensity_8hpp.html" target="_top" xlink:title="Core/AmpIntensity.hpp">
<polygon fill="white" stroke="red" points="224.5,-168.5 224.5,-187.5 341.5,-187.5 341.5,-168.5 224.5,-168.5"/>
<text text-anchor="middle" x="283" y="-175.5" font-family="Helvetica,sans-Serif" font-size="10.00">Core/AmpIntensity.hpp</text>
</a>
</g>
</g>
<!-- Node1&#45;&gt;Node8 -->
<g id="edge28" class="edge"><title>Node1&#45;&gt;Node8</title>
<path fill="none" stroke="midnightblue" d="M412.752,-280.29C381.789,-256.119 329.999,-215.69 302.134,-193.937"/>
<polygon fill="midnightblue" stroke="midnightblue" points="304.021,-190.969 293.984,-187.575 299.713,-196.487 304.021,-190.969"/>
</g>
<!-- Node9 -->
<g id="node9" class="node"><title>Node9</title>
<g id="a_node9"><a xlink:href="../../d2/d4b/Data_8hpp.html" target="_top" xlink:title="Contains Data interface class. ">
<polygon fill="white" stroke="red" points="436,-112.5 436,-131.5 548,-131.5 548,-112.5 436,-112.5"/>
<text text-anchor="middle" x="492" y="-119.5" font-family="Helvetica,sans-Serif" font-size="10.00">DataReader/Data.hpp</text>
</a>
</g>
</g>
<!-- Node1&#45;&gt;Node9 -->
<g id="edge29" class="edge"><title>Node1&#45;&gt;Node9</title>
<path fill="none" stroke="midnightblue" d="M443.985,-280.382C454.495,-245.932 476.123,-175.042 486.374,-141.442"/>
<polygon fill="midnightblue" stroke="midnightblue" points="489.811,-142.17 489.381,-131.584 483.115,-140.127 489.811,-142.17"/>
</g>
<!-- Node10 -->
<g id="node10" class="node"><title>Node10</title>
<g id="a_node10"><a xlink:href="../../df/d7d/Event_8hpp.html" target="_top" xlink:title="This class provides a internal container for event&#45;based information. ">
<polygon fill="white" stroke="red" points="604.5,-56.5 604.5,-75.5 689.5,-75.5 689.5,-56.5 604.5,-56.5"/>
<text text-anchor="middle" x="647" y="-63.5" font-family="Helvetica,sans-Serif" font-size="10.00">Core/Event.hpp</text>
</a>
</g>
</g>
<!-- Node1&#45;&gt;Node10 -->
<g id="edge30" class="edge"><title>Node1&#45;&gt;Node10</title>
<path fill="none" stroke="midnightblue" d="M516.064,-285.814C542.528,-277.537 570.336,-264.497 590,-244 632.971,-199.21 643.548,-121.86 646.151,-86.1214"/>
<polygon fill="midnightblue" stroke="midnightblue" points="649.67,-85.892 646.763,-75.7038 642.682,-85.4812 649.67,-85.892"/>
</g>
<!-- Node5&#45;&gt;Node2 -->
<g id="edge5" class="edge"><title>Node5&#45;&gt;Node2</title>
<path fill="none" stroke="midnightblue" d="M227.559,-224.489C190.158,-197.906 84.2475,-114.698 133,-56 159.113,-24.5593 281.676,-14.9663 341.282,-12.1355"/>
<polygon fill="midnightblue" stroke="midnightblue" points="341.805,-15.6161 351.642,-11.6819 341.499,-8.62276 341.805,-15.6161"/>
</g>
<!-- Node5&#45;&gt;Node3 -->
<g id="edge6" class="edge"><title>Node5&#45;&gt;Node3</title>
<path fill="none" stroke="midnightblue" d="M189.405,-227.126C142.463,-220.511 77.5685,-207.994 62,-188 25.9569,-141.711 30.628,-105.574 62,-56 74.9742,-35.4981 100.094,-24.1541 121.245,-17.9855"/>
<polygon fill="midnightblue" stroke="midnightblue" points="122.156,-21.3649 130.931,-15.4283 120.369,-14.5968 122.156,-21.3649"/>
</g>
<!-- Node5&#45;&gt;Node6 -->
<g id="edge7" class="edge"><title>Node5&#45;&gt;Node6</title>
<path fill="none" stroke="midnightblue" d="M287.098,-224.493C309.311,-218.099 334.321,-207.03 350,-188 374.2,-158.628 376.367,-111.73 375.429,-85.7897"/>
<polygon fill="midnightblue" stroke="midnightblue" points="378.922,-85.5648 374.87,-75.7754 371.933,-85.955 378.922,-85.5648"/>
</g>
<!-- Node7 -->
<g id="node7" class="node"><title>Node7</title>
<g id="a_node7"><a xlink:href="../../da/db2/FunctionTree_8hpp.html" target="_top" xlink:title="This class can be used to store a function in a tree&#45;like structure. ">
<polygon fill="white" stroke="red" points="142,-56.5 142,-75.5 258,-75.5 258,-56.5 142,-56.5"/>
<text text-anchor="middle" x="200" y="-63.5" font-family="Helvetica,sans-Serif" font-size="10.00">Core/FunctionTree.hpp</text>
</a>
</g>
</g>
<!-- Node5&#45;&gt;Node7 -->
<g id="edge11" class="edge"><title>Node5&#45;&gt;Node7</title>
<path fill="none" stroke="midnightblue" d="M233.96,-224.497C228.091,-215.774 219.433,-201.595 215,-188 203.664,-153.238 200.797,-110.298 200.131,-86.0426"/>
<polygon fill="midnightblue" stroke="midnightblue" points="203.625,-85.6921 199.953,-75.7541 196.626,-85.813 203.625,-85.6921"/>
</g>
<!-- Node5&#45;&gt;Node8 -->
<g id="edge15" class="edge"><title>Node5&#45;&gt;Node8</title>
<path fill="none" stroke="midnightblue" d="M247.101,-224.083C253.237,-216.377 262.27,-205.033 269.739,-195.653"/>
<polygon fill="midnightblue" stroke="midnightblue" points="272.54,-197.754 276.032,-187.751 267.064,-193.394 272.54,-197.754"/>
</g>
<!-- Node6&#45;&gt;Node2 -->
<g id="edge10" class="edge"><title>Node6&#45;&gt;Node2</title>
<path fill="none" stroke="midnightblue" d="M374,-56.083C374,-49.0059 374,-38.8611 374,-29.9865"/>
<polygon fill="midnightblue" stroke="midnightblue" points="377.5,-29.751 374,-19.7511 370.5,-29.7511 377.5,-29.751"/>
</g>
<!-- Node6&#45;&gt;Node3 -->
<g id="edge9" class="edge"><title>Node6&#45;&gt;Node3</title>
<path fill="none" stroke="midnightblue" d="M339.616,-56.4435C299.513,-46.4641 233.535,-30.0457 192.825,-19.915"/>
<polygon fill="midnightblue" stroke="midnightblue" points="193.6,-16.5011 183.051,-17.4826 191.909,-23.294 193.6,-16.5011"/>
</g>
<!-- Node6&#45;&gt;Node4 -->
<g id="edge8" class="edge"><title>Node6&#45;&gt;Node4</title>
<path fill="none" stroke="midnightblue" d="M399.986,-56.4435C429.199,-46.8247 476.58,-31.2238 507.517,-21.0372"/>
<polygon fill="midnightblue" stroke="midnightblue" points="508.924,-24.2586 517.328,-17.8067 506.735,-17.6098 508.924,-24.2586"/>
</g>
<!-- Node7&#45;&gt;Node2 -->
<g id="edge12" class="edge"><title>Node7&#45;&gt;Node2</title>
<path fill="none" stroke="midnightblue" d="M227.571,-56.4435C258.747,-46.768 309.428,-31.0397 342.236,-20.8577"/>
<polygon fill="midnightblue" stroke="midnightblue" points="343.29,-24.1954 351.803,-17.8886 341.215,-17.51 343.29,-24.1954"/>
</g>
<!-- Node7&#45;&gt;Node3 -->
<g id="edge13" class="edge"><title>Node7&#45;&gt;Node3</title>
<path fill="none" stroke="midnightblue" d="M192.899,-56.083C186.763,-48.3768 177.73,-37.0333 170.261,-27.6531"/>
<polygon fill="midnightblue" stroke="midnightblue" points="172.936,-25.3936 163.968,-19.7511 167.46,-29.7542 172.936,-25.3936"/>
</g>
<!-- Node7&#45;&gt;Node4 -->
<g id="edge14" class="edge"><title>Node7&#45;&gt;Node4</title>
<path fill="none" stroke="midnightblue" d="M253.557,-56.4435C325.23,-44.9929 449.967,-25.0645 507.423,-15.8851"/>
<polygon fill="midnightblue" stroke="midnightblue" points="508.018,-19.3345 517.341,-14.3006 506.914,-12.4221 508.018,-19.3345"/>
</g>
<!-- Node8&#45;&gt;Node2 -->
<g id="edge16" class="edge"><title>Node8&#45;&gt;Node2</title>
<path fill="none" stroke="midnightblue" d="M282.354,-168.231C281.236,-147.034 281.016,-92.1029 305,-56 314.195,-42.1591 329.256,-31.6124 342.965,-24.2207"/>
<polygon fill="midnightblue" stroke="midnightblue" points="344.787,-27.2225 352.151,-19.6058 341.644,-20.9675 344.787,-27.2225"/>
</g>
<!-- Node8&#45;&gt;Node3 -->
<g id="edge17" class="edge"><title>Node8&#45;&gt;Node3</title>
<path fill="none" stroke="midnightblue" d="M257.321,-168.436C221.868,-155.056 159.329,-125.47 133,-76 124.734,-60.4697 133.746,-41.4698 142.991,-28.0333"/>
<polygon fill="midnightblue" stroke="midnightblue" points="146.019,-29.8304 149.22,-19.7309 140.419,-25.6295 146.019,-29.8304"/>
</g>
<!-- Node8&#45;&gt;Node6 -->
<g id="edge18" class="edge"><title>Node8&#45;&gt;Node6</title>
<path fill="none" stroke="midnightblue" d="M290.141,-168.368C305.291,-150.055 340.869,-107.049 360.464,-83.3624"/>
<polygon fill="midnightblue" stroke="midnightblue" points="363.215,-85.5276 366.893,-75.5914 357.821,-81.0656 363.215,-85.5276"/>
</g>
<!-- Node8&#45;&gt;Node7 -->
<g id="edge19" class="edge"><title>Node8&#45;&gt;Node7</title>
<path fill="none" stroke="midnightblue" d="M276.487,-168.368C262.729,-150.135 230.503,-107.426 212.582,-83.6752"/>
<polygon fill="midnightblue" stroke="midnightblue" points="215.3,-81.4659 206.483,-75.5914 209.712,-85.6821 215.3,-81.4659"/>
</g>
<!-- Node8&#45;&gt;Node9 -->
<g id="edge20" class="edge"><title>Node8&#45;&gt;Node9</title>
<path fill="none" stroke="midnightblue" d="M316.117,-168.444C352.118,-159.142 409.77,-144.246 449.186,-134.062"/>
<polygon fill="midnightblue" stroke="midnightblue" points="450.232,-137.407 459.038,-131.516 448.481,-130.629 450.232,-137.407"/>
</g>
<!-- Node9&#45;&gt;Node2 -->
<g id="edge21" class="edge"><title>Node9&#45;&gt;Node2</title>
<path fill="none" stroke="midnightblue" d="M492.178,-112.354C491.999,-98.7918 489.748,-72.3781 476,-56 458.302,-34.9169 428.788,-23.3707 406.049,-17.2719"/>
<polygon fill="midnightblue" stroke="midnightblue" points="406.691,-13.8256 396.144,-14.8384 405.02,-20.6234 406.691,-13.8256"/>
</g>
<!-- Node9&#45;&gt;Node3 -->
<g id="edge23" class="edge"><title>Node9&#45;&gt;Node3</title>
<path fill="none" stroke="midnightblue" d="M487.936,-112.111C480.847,-97.7071 464.769,-69.5206 442,-56 400.605,-31.4196 260.698,-18.3817 193.551,-13.4108"/>
<polygon fill="midnightblue" stroke="midnightblue" points="193.651,-9.90899 183.425,-12.6817 193.148,-16.8909 193.651,-9.90899"/>
</g>
<!-- Node9&#45;&gt;Node4 -->
<g id="edge22" class="edge"><title>Node9&#45;&gt;Node4</title>
<path fill="none" stroke="midnightblue" d="M496.479,-112.493C501.121,-103.532 508.459,-88.9525 514,-76 520.653,-60.4469 527.239,-42.3673 531.824,-29.23"/>
<polygon fill="midnightblue" stroke="midnightblue" points="535.22,-30.1158 535.162,-19.5211 528.601,-27.8397 535.22,-30.1158"/>
</g>
<!-- Node9&#45;&gt;Node6 -->
<g id="edge27" class="edge"><title>Node9&#45;&gt;Node6</title>
<path fill="none" stroke="midnightblue" d="M473.303,-112.444C454.056,-103.636 423.848,-89.8116 401.8,-79.722"/>
<polygon fill="midnightblue" stroke="midnightblue" points="403.16,-76.4951 392.61,-75.5164 400.247,-82.8603 403.16,-76.4951"/>
</g>
<!-- Node9&#45;&gt;Node10 -->
<g id="edge24" class="edge"><title>Node9&#45;&gt;Node10</title>
<path fill="none" stroke="midnightblue" d="M516.56,-112.444C542.523,-103.399 583.668,-89.064 612.797,-78.9158"/>
<polygon fill="midnightblue" stroke="midnightblue" points="614.263,-82.1116 622.555,-75.5164 611.96,-75.5013 614.263,-82.1116"/>
</g>
<!-- Node10&#45;&gt;Node2 -->
<g id="edge25" class="edge"><title>Node10&#45;&gt;Node2</title>
<path fill="none" stroke="midnightblue" d="M604.344,-56.5625C549.577,-45.7294 455.745,-27.1693 406.441,-17.417"/>
<polygon fill="midnightblue" stroke="midnightblue" points="406.83,-13.9261 396.341,-15.419 405.471,-20.793 406.83,-13.9261"/>
</g>
<!-- Node10&#45;&gt;Node4 -->
<g id="edge26" class="edge"><title>Node10&#45;&gt;Node4</title>
<path fill="none" stroke="midnightblue" d="M629.487,-56.324C611.928,-47.6247 584.669,-34.1202 564.469,-24.113"/>
<polygon fill="midnightblue" stroke="midnightblue" points="565.984,-20.9575 555.469,-19.6545 562.876,-27.23 565.984,-20.9575"/>
</g>
</g>
</svg>
        <g id="navigator" transform="translate(0 0)" fill="#404254">
                <rect fill="#f2f5e9" fill-opacity="0.5" stroke="#606060" stroke-width=".5" x="0" y="0" width="60" height="60"/>
                <use id="zoomplus" xlink:href="#zoomPlus" x="17" y="9" onmousedown="handleZoom(evt,'in')"/>
                <use id="zoomminus" xlink:href="#zoomMin" x="42" y="9" onmousedown="handleZoom(evt,'out')"/>
                <use id="reset" xlink:href="#resetDef" x="30" y="36" onmousedown="handleReset()"/>
                <g id="arrowUp" xlink:href="#dirArrow" transform="translate(30 24)" onmousedown="handlePan(0,-1)">
                  <use xlink:href="#rim" fill="#404040">
                        <set attributeName="fill" to="#808080" begin="arrowUp.mouseover" end="arrowUp.mouseout"/>
                  </use>
                  <path fill="none" stroke="white" stroke-width="1.5" d="M0,-3.0v7 M-2.5,-0.5L0,-3.0L2.5,-0.5"/>
                </g>
                <g id="arrowRight" xlink:href="#dirArrow" transform="rotate(90) translate(36 -43)" onmousedown="handlePan(1,0)">
                  <use xlink:href="#rim" fill="#404040">
                        <set attributeName="fill" to="#808080" begin="arrowRight.mouseover" end="arrowRight.mouseout"/>
                  </use>
                  <path fill="none" stroke="white" stroke-width="1.5" d="M0,-3.0v7 M-2.5,-0.5L0,-3.0L2.5,-0.5"/>
                </g>
                <g id="arrowDown" xlink:href="#dirArrow" transform="rotate(180) translate(-30 -48)" onmousedown="handlePan(0,1)">
                  <use xlink:href="#rim" fill="#404040">
                        <set attributeName="fill" to="#808080" begin="arrowDown.mouseover" end="arrowDown.mouseout"/>
                  </use>
                  <path fill="none" stroke="white" stroke-width="1.5" d="M0,-3.0v7 M-2.5,-0.5L0,-3.0L2.5,-0.5"/>
                </g>
                <g id="arrowLeft" xlink:href="#dirArrow" transform="rotate(270) translate(-36 17)" onmousedown="handlePan(-1,0)">
                  <use xlink:href="#rim" fill="#404040">
                        <set attributeName="fill" to="#808080" begin="arrowLeft.mouseover" end="arrowLeft.mouseout"/>
                  </use>
                  <path fill="none" stroke="white" stroke-width="1.5" d="M0,-3.0v7 M-2.5,-0.5L0,-3.0L2.5,-0.5"/>
                </g>
        </g>
        <svg viewBox="0 0 15 15" width="100%" height="30px" preserveAspectRatio="xMaxYMin meet">
         <g id="arrow_out" transform="scale(0.3 0.3)">
          <a xlink:href="ChiOneD_8hpp__incl_org.svg" target="_base">
           <rect id="button" ry="5" rx="5" y="6" x="6" height="38" width="38"
                fill="#f2f5e9" fill-opacity="0.5" stroke="#606060" stroke-width="1.0"/>
           <path id="arrow"
             d="M 11.500037,31.436501 C 11.940474,20.09759 22.043105,11.32322 32.158766,21.979434 L 37.068811,17.246167 C 37.068811,17.246167 37.088388,32 37.088388,32 L 22.160133,31.978069 C 22.160133,31.978069 26.997745,27.140456 26.997745,27.140456 C 18.528582,18.264221 13.291696,25.230495 11.500037,31.436501 z"
             style="fill:#404040;"/>
          </a>
         </g>
        </svg>
</svg>
