<?xml version="1.0" encoding="UTF-8" standalone="no"?>
<!DOCTYPE svg PUBLIC "-//W3C//DTD SVG 1.1//EN"
 "http://www.w3.org/Graphics/SVG/1.1/DTD/svg11.dtd">
<!-- Generated by graphviz version 2.36.0 (20140111.2315)
 -->
<!-- Title: /home/travis/build/ComPWA/ComPWA/executables/LHNormalizationTestApp.cpp Pages: 1 -->
<svg width="3290pt" height="570pt"
 viewBox="0.00 0.00 3290.00 570.00" xmlns="http://www.w3.org/2000/svg" xmlns:xlink="http://www.w3.org/1999/xlink">
<g id="graph0" class="graph" transform="scale(1 1) rotate(0) translate(4 566)">
<title>/home/travis/build/ComPWA/ComPWA/executables/LHNormalizationTestApp.cpp</title>
<polygon fill="white" stroke="none" points="-4,4 -4,-566 3286,-566 3286,4 -4,4"/>
<!-- Node1 -->
<g id="node1" class="node"><title>Node1</title>
<polygon fill="#bfbfbf" stroke="black" points="1073.5,-520.5 1073.5,-561.5 1240.5,-561.5 1240.5,-520.5 1073.5,-520.5"/>
<text text-anchor="start" x="1081.5" y="-549.5" font-family="Helvetica,sans-Serif" font-size="10.00">/home/travis/build</text>
<text text-anchor="start" x="1081.5" y="-538.5" font-family="Helvetica,sans-Serif" font-size="10.00">/ComPWA/ComPWA/executables</text>
<text text-anchor="middle" x="1157" y="-527.5" font-family="Helvetica,sans-Serif" font-size="10.00">/LHNormalizationTestApp.cpp</text>
</g>
<!-- Node2 -->
<g id="node2" class="node"><title>Node2</title>
<polygon fill="white" stroke="#bfbfbf" points="598,-74.5 598,-93.5 652,-93.5 652,-74.5 598,-74.5"/>
<text text-anchor="middle" x="625" y="-81.5" font-family="Helvetica,sans-Serif" font-size="10.00">iostream</text>
</g>
<!-- Node1&#45;&gt;Node2 -->
<g id="edge1" class="edge"><title>Node1&#45;&gt;Node2</title>
<path fill="none" stroke="midnightblue" d="M1073.25,-536.887C918.446,-530.447 599.551,-513.726 559,-484 526.711,-460.331 524,-441.035 524,-401 524,-401 524,-401 524,-275 524,-213.029 479.467,-188.115 513,-136 515.429,-132.224 562.965,-111.415 595.319,-97.5714"/>
<polygon fill="midnightblue" stroke="midnightblue" points="596.981,-100.668 604.806,-93.5253 594.235,-94.229 596.981,-100.668"/>
</g>
<!-- Node3 -->
<g id="node3" class="node"><title>Node3</title>
<polygon fill="white" stroke="#bfbfbf" points="428,-74.5 428,-93.5 472,-93.5 472,-74.5 428,-74.5"/>
<text text-anchor="middle" x="450" y="-81.5" font-family="Helvetica,sans-Serif" font-size="10.00">cmath</text>
</g>
<!-- Node1&#45;&gt;Node3 -->
<g id="edge2" class="edge"><title>Node1&#45;&gt;Node3</title>
<path fill="none" stroke="midnightblue" d="M1073.08,-538.006C819.09,-530.868 76,-501.404 76,-401 76,-401 76,-401 76,-275 76,-122.28 326.944,-92.2699 417.721,-86.4102"/>
<polygon fill="midnightblue" stroke="midnightblue" points="417.947,-89.9031 427.725,-85.8217 417.536,-82.9151 417.947,-89.9031"/>
</g>
<!-- Node4 -->
<g id="node4" class="node"><title>Node4</title>
<polygon fill="white" stroke="#bfbfbf" points="528,-74.5 528,-93.5 580,-93.5 580,-74.5 528,-74.5"/>
<text text-anchor="middle" x="554" y="-81.5" font-family="Helvetica,sans-Serif" font-size="10.00">sstream</text>
</g>
<!-- Node1&#45;&gt;Node4 -->
<g id="edge3" class="edge"><title>Node1&#45;&gt;Node4</title>
<path fill="none" stroke="midnightblue" d="M1073.33,-536.22C844.976,-524.795 228,-486.056 228,-401 228,-401 228,-401 228,-275 228,-178.09 311.033,-182.608 396,-136 435.109,-114.547 484.671,-100.395 517.758,-92.5553"/>
<polygon fill="midnightblue" stroke="midnightblue" points="518.924,-95.8789 527.887,-90.2307 517.358,-89.0562 518.924,-95.8789"/>
</g>
<!-- Node5 -->
<g id="node5" class="node"><title>Node5</title>
<polygon fill="white" stroke="#bfbfbf" points="2014,-6.5 2014,-25.5 2058,-25.5 2058,-6.5 2014,-6.5"/>
<text text-anchor="middle" x="2036" y="-13.5" font-family="Helvetica,sans-Serif" font-size="10.00">vector</text>
</g>
<!-- Node1&#45;&gt;Node5 -->
<g id="edge4" class="edge"><title>Node1&#45;&gt;Node5</title>
<path fill="none" stroke="midnightblue" d="M1240.87,-537.678C1507.88,-529.515 2335.41,-498.067 2589,-416 2652.16,-395.559 2687.35,-404.63 2722,-348 2748.82,-304.168 2663.38,-296.442 2658,-292 2557.31,-208.916 2583.04,-129.717 2468,-68 2450.36,-58.5363 2165.54,-29.7585 2068.27,-20.1565"/>
<polygon fill="midnightblue" stroke="midnightblue" points="2068.44,-16.6564 2058.14,-19.1595 2067.75,-23.6227 2068.44,-16.6564"/>
</g>
<!-- Node6 -->
<g id="node6" class="node"><title>Node6</title>
<polygon fill="white" stroke="#bfbfbf" points="274.5,-6.5 274.5,-25.5 315.5,-25.5 315.5,-6.5 274.5,-6.5"/>
<text text-anchor="middle" x="295" y="-13.5" font-family="Helvetica,sans-Serif" font-size="10.00">string</text>
</g>
<!-- Node1&#45;&gt;Node6 -->
<g id="edge5" class="edge"><title>Node1&#45;&gt;Node6</title>
<path fill="none" stroke="midnightblue" d="M1073.4,-539.643C866.578,-538.063 335.394,-529.553 165,-484 85.6962,-462.799 0,-483.089 0,-401 0,-401 0,-401 0,-151 0,-35.9968 188.147,-19.2168 263.927,-17.1224"/>
<polygon fill="midnightblue" stroke="midnightblue" points="264.33,-20.615 274.256,-16.9101 264.186,-13.6165 264.33,-20.615"/>
</g>
<!-- Node7 -->
<g id="node7" class="node"><title>Node7</title>
<polygon fill="white" stroke="#bfbfbf" points="2762,-6.5 2762,-25.5 2814,-25.5 2814,-6.5 2762,-6.5"/>
<text text-anchor="middle" x="2788" y="-13.5" font-family="Helvetica,sans-Serif" font-size="10.00">memory</text>
</g>
<!-- Node1&#45;&gt;Node7 -->
<g id="edge6" class="edge"><title>Node1&#45;&gt;Node7</title>
<path fill="none" stroke="midnightblue" d="M1240.6,-539.232C1565.43,-535.979 2729.23,-521.73 2798,-484 2895.81,-430.334 2940,-388.566 2940,-277 2940,-277 2940,-277 2940,-151 2940,-88.4008 2866.56,-48.0836 2821.78,-29.3172"/>
<polygon fill="midnightblue" stroke="midnightblue" points="2823,-26.0384 2812.42,-25.5341 2820.38,-32.5279 2823,-26.0384"/>
</g>
<!-- Node8 -->
<g id="node8" class="node"><title>Node8</title>
<polygon fill="white" stroke="#bfbfbf" points="590,-458.5 590,-477.5 724,-477.5 724,-458.5 590,-458.5"/>
<text text-anchor="middle" x="657" y="-465.5" font-family="Helvetica,sans-Serif" font-size="10.00">boost/program_options.hpp</text>
</g>
<!-- Node1&#45;&gt;Node8 -->
<g id="edge7" class="edge"><title>Node1&#45;&gt;Node8</title>
<path fill="none" stroke="midnightblue" d="M1073.1,-530.513C987.395,-520.449 850.59,-503.35 733,-484 724.886,-482.665 716.313,-481.112 707.963,-479.521"/>
<polygon fill="midnightblue" stroke="midnightblue" points="708.417,-476.044 697.934,-477.574 707.083,-482.916 708.417,-476.044"/>
</g>
<!-- Node9 -->
<g id="node9" class="node"><title>Node9</title>
<polygon fill="white" stroke="#bfbfbf" points="742,-458.5 742,-477.5 784,-477.5 784,-458.5 742,-458.5"/>
<text text-anchor="middle" x="763" y="-465.5" font-family="Helvetica,sans-Serif" font-size="10.00">TF1.h</text>
</g>
<!-- Node1&#45;&gt;Node9 -->
<g id="edge8" class="edge"><title>Node1&#45;&gt;Node9</title>
<path fill="none" stroke="midnightblue" d="M1073.28,-534.54C998.394,-527.924 886.369,-513.718 793,-484 791.086,-483.391 789.142,-482.673 787.213,-481.888"/>
<polygon fill="midnightblue" stroke="midnightblue" points="788.423,-478.591 777.876,-477.58 785.49,-484.947 788.423,-478.591"/>
</g>
<!-- Node10 -->
<g id="node10" class="node"><title>Node10</title>
<polygon fill="white" stroke="#bfbfbf" points="802.5,-458.5 802.5,-477.5 853.5,-477.5 853.5,-458.5 802.5,-458.5"/>
<text text-anchor="middle" x="828" y="-465.5" font-family="Helvetica,sans-Serif" font-size="10.00">TH1D.h</text>
</g>
<!-- Node1&#45;&gt;Node10 -->
<g id="edge9" class="edge"><title>Node1&#45;&gt;Node10</title>
<path fill="none" stroke="midnightblue" d="M1073.29,-527.589C1015.12,-518.041 936.122,-503.227 868,-484 864.859,-483.114 861.617,-482.089 858.4,-480.999"/>
<polygon fill="midnightblue" stroke="midnightblue" points="859.549,-477.693 848.954,-477.611 857.185,-484.282 859.549,-477.693"/>
</g>
<!-- Node11 -->
<g id="node11" class="node"><title>Node11</title>
<polygon fill="white" stroke="#bfbfbf" points="944.5,-328.5 944.5,-347.5 991.5,-347.5 991.5,-328.5 944.5,-328.5"/>
<text text-anchor="middle" x="968" y="-335.5" font-family="Helvetica,sans-Serif" font-size="10.00">TFile.h</text>
</g>
<!-- Node1&#45;&gt;Node11 -->
<g id="edge10" class="edge"><title>Node1&#45;&gt;Node11</title>
<path fill="none" stroke="midnightblue" d="M1073.34,-532.895C1007.17,-525.336 922.466,-510.669 901,-484 867.941,-442.928 920.941,-382.885 950.407,-354.704"/>
<polygon fill="midnightblue" stroke="midnightblue" points="953.062,-357.015 958.002,-347.642 948.295,-351.888 953.062,-357.015"/>
</g>
<!-- Node12 -->
<g id="node12" class="node"><title>Node12</title>
<polygon fill="white" stroke="#bfbfbf" points="910,-458.5 910,-477.5 1002,-477.5 1002,-458.5 910,-458.5"/>
<text text-anchor="middle" x="956" y="-465.5" font-family="Helvetica,sans-Serif" font-size="10.00">TLorentzVector.h</text>
</g>
<!-- Node1&#45;&gt;Node12 -->
<g id="edge11" class="edge"><title>Node1&#45;&gt;Node12</title>
<path fill="none" stroke="midnightblue" d="M1101.54,-520.411C1065.73,-507.762 1020.31,-491.715 989.81,-480.943"/>
<polygon fill="midnightblue" stroke="midnightblue" points="990.671,-477.535 980.076,-477.504 988.339,-484.135 990.671,-477.535"/>
</g>
<!-- Node13 -->
<g id="node13" class="node"><title>Node13</title>
<polygon fill="white" stroke="#bfbfbf" points="1020.5,-458.5 1020.5,-477.5 1071.5,-477.5 1071.5,-458.5 1020.5,-458.5"/>
<text text-anchor="middle" x="1046" y="-465.5" font-family="Helvetica,sans-Serif" font-size="10.00">TH2D.h</text>
</g>
<!-- Node1&#45;&gt;Node13 -->
<g id="edge12" class="edge"><title>Node1&#45;&gt;Node13</title>
<path fill="none" stroke="midnightblue" d="M1126.37,-520.411C1107.86,-508.567 1084.68,-493.743 1067.98,-483.06"/>
<polygon fill="midnightblue" stroke="midnightblue" points="1069.75,-480.037 1059.44,-477.597 1065.98,-485.934 1069.75,-480.037"/>
</g>
<!-- Node14 -->
<g id="node14" class="node"><title>Node14</title>
<g id="a_node14"><a xlink:href="../../df/d7d/Event_8hpp.html" target="_top" xlink:title="This class provides a internal container for event&#45;based information. ">
<polygon fill="white" stroke="black" points="637.5,-204.5 637.5,-223.5 722.5,-223.5 722.5,-204.5 637.5,-204.5"/>
<text text-anchor="middle" x="680" y="-211.5" font-family="Helvetica,sans-Serif" font-size="10.00">Core/Event.hpp</text>
</a>
</g>
</g>
<!-- Node1&#45;&gt;Node14 -->
<g id="edge13" class="edge"><title>Node1&#45;&gt;Node14</title>
<path fill="none" stroke="midnightblue" d="M1073.37,-537.955C921.606,-533.374 613.43,-519.736 581,-484 511.108,-406.983 621.313,-276.435 664.142,-231.089"/>
<polygon fill="midnightblue" stroke="midnightblue" points="666.89,-233.28 671.296,-223.645 661.843,-228.43 666.89,-233.28"/>
</g>
<!-- Node15 -->
<g id="node15" class="node"><title>Node15</title>
<g id="a_node15"><a xlink:href="../../d3/d65/Particle_8hpp.html" target="_top" xlink:title="This class provides a internal container for information of a particle. ">
<polygon fill="white" stroke="red" points="522,-142.5 522,-161.5 614,-161.5 614,-142.5 522,-142.5"/>
<text text-anchor="middle" x="568" y="-149.5" font-family="Helvetica,sans-Serif" font-size="10.00">Core/Particle.hpp</text>
</a>
</g>
</g>
<!-- Node1&#45;&gt;Node15 -->
<g id="edge22" class="edge"><title>Node1&#45;&gt;Node15</title>
<path fill="none" stroke="midnightblue" d="M1142.13,-520.227C1124.32,-497.065 1095,-460.736 1080,-452 1011.38,-412.034 977.998,-447.251 905,-416 767.295,-357.048 738.856,-324.743 628,-224 609.801,-207.462 592.01,-185.457 580.589,-170.353"/>
<polygon fill="midnightblue" stroke="midnightblue" points="583.123,-167.895 574.354,-161.95 577.502,-172.067 583.123,-167.895"/>
</g>
<!-- Node17 -->
<g id="node17" class="node"><title>Node17</title>
<g id="a_node17"><a xlink:href="../../db/dce/Parameter_8hpp.html" target="_top" xlink:title="This class implements some internal container of parameters. ">
<polygon fill="white" stroke="black" points="1020,-142.5 1020,-161.5 1124,-161.5 1124,-142.5 1020,-142.5"/>
<text text-anchor="middle" x="1072" y="-149.5" font-family="Helvetica,sans-Serif" font-size="10.00">Core/Parameter.hpp</text>
</a>
</g>
</g>
<!-- Node1&#45;&gt;Node17 -->
<g id="edge23" class="edge"><title>Node1&#45;&gt;Node17</title>
<path fill="none" stroke="midnightblue" d="M1172.03,-520.44C1178.96,-510.186 1186.44,-497.065 1190,-484 1193.74,-470.279 1192.66,-465.972 1190,-452 1168.67,-339.869 1106.1,-216.054 1081.81,-170.801"/>
<polygon fill="midnightblue" stroke="midnightblue" points="1084.83,-169.038 1076.98,-161.92 1078.68,-172.378 1084.83,-169.038"/>
</g>
<!-- Node20 -->
<g id="node20" class="node"><title>Node20</title>
<g id="a_node20"><a xlink:href="../../d8/def/AbsParameter_8hpp.html" target="_top" xlink:title="Core/AbsParameter.hpp">
<polygon fill="white" stroke="red" points="2310,-74.5 2310,-93.5 2432,-93.5 2432,-74.5 2310,-74.5"/>
<text text-anchor="middle" x="2371" y="-81.5" font-family="Helvetica,sans-Serif" font-size="10.00">Core/AbsParameter.hpp</text>
</a>
</g>
</g>
<!-- Node1&#45;&gt;Node20 -->
<g id="edge96" class="edge"><title>Node1&#45;&gt;Node20</title>
<path fill="none" stroke="midnightblue" d="M1240.51,-536.025C1548.13,-520.535 2605.21,-459.498 2702,-348 2741.04,-303.024 2679.05,-328.325 2623,-292 2535,-234.974 2528.85,-200.274 2446,-136 2428.9,-122.732 2408.54,-109.007 2393.35,-99.1424"/>
<polygon fill="midnightblue" stroke="midnightblue" points="2394.94,-96.0039 2384.63,-93.5375 2391.15,-101.891 2394.94,-96.0039"/>
</g>
<!-- Node25 -->
<g id="node25" class="node"><title>Node25</title>
<g id="a_node25"><a xlink:href="../../da/db4/Logging_8hpp.html" target="_top" xlink:title="Core/Logging.hpp">
<polygon fill="white" stroke="red" points="1056.5,-74.5 1056.5,-93.5 1149.5,-93.5 1149.5,-74.5 1056.5,-74.5"/>
<text text-anchor="middle" x="1103" y="-81.5" font-family="Helvetica,sans-Serif" font-size="10.00">Core/Logging.hpp</text>
</a>
</g>
</g>
<!-- Node1&#45;&gt;Node25 -->
<g id="edge97" class="edge"><title>Node1&#45;&gt;Node25</title>
<path fill="none" stroke="midnightblue" d="M1158.22,-520.185C1158.39,-500.925 1155.8,-471.765 1141,-452 1073.94,-362.418 916,-450.903 916,-339 916,-339 916,-339 916,-213 916,-175.13 1021.76,-121.829 1074.21,-97.7233"/>
<polygon fill="midnightblue" stroke="midnightblue" points="1075.68,-100.896 1083.34,-93.5723 1072.79,-94.5226 1075.68,-100.896"/>
</g>
<!-- Node26 -->
<g id="node26" class="node"><title>Node26</title>
<g id="a_node26"><a xlink:href="../../df/d9f/ParameterList_8hpp.html" target="_top" xlink:title="This class provides a list of fit parameters which can have different types. ">
<polygon fill="white" stroke="black" points="1470,-204.5 1470,-223.5 1590,-223.5 1590,-204.5 1470,-204.5"/>
<text text-anchor="middle" x="1530" y="-211.5" font-family="Helvetica,sans-Serif" font-size="10.00">Core/ParameterList.hpp</text>
</a>
</g>
</g>
<!-- Node1&#45;&gt;Node26 -->
<g id="edge41" class="edge"><title>Node1&#45;&gt;Node26</title>
<path fill="none" stroke="midnightblue" d="M1240.52,-535.647C1280.54,-529.269 1326.13,-515.025 1356,-484 1382.32,-456.666 1376,-438.945 1376,-401 1376,-401 1376,-401 1376,-337 1376,-278.371 1445.43,-243.472 1491.05,-226.869"/>
<polygon fill="midnightblue" stroke="midnightblue" points="1492.39,-230.11 1500.67,-223.507 1490.08,-223.501 1492.39,-230.11"/>
</g>
<!-- Node33 -->
<g id="node33" class="node"><title>Node33</title>
<polygon fill="white" stroke="#bfbfbf" points="1404.5,-458.5 1404.5,-477.5 1519.5,-477.5 1519.5,-458.5 1404.5,-458.5"/>
<text text-anchor="middle" x="1462" y="-465.5" font-family="Helvetica,sans-Serif" font-size="10.00">Core/RunManager.hpp</text>
</g>
<!-- Node1&#45;&gt;Node33 -->
<g id="edge58" class="edge"><title>Node1&#45;&gt;Node33</title>
<path fill="none" stroke="midnightblue" d="M1240.75,-520.505C1297.1,-507.387 1369.3,-490.58 1415.61,-479.8"/>
<polygon fill="midnightblue" stroke="midnightblue" points="1416.42,-483.204 1425.37,-477.528 1414.83,-476.386 1416.42,-483.204"/>
</g>
<!-- Node34 -->
<g id="node34" class="node"><title>Node34</title>
<g id="a_node34"><a xlink:href="../../d8/d6f/Efficiency_8hpp.html" target="_top" xlink:title="Core/Efficiency.hpp">
<polygon fill="white" stroke="black" points="784.5,-142.5 784.5,-161.5 887.5,-161.5 887.5,-142.5 784.5,-142.5"/>
<text text-anchor="middle" x="836" y="-149.5" font-family="Helvetica,sans-Serif" font-size="10.00">Core/Efficiency.hpp</text>
</a>
</g>
</g>
<!-- Node1&#45;&gt;Node34 -->
<g id="edge59" class="edge"><title>Node1&#45;&gt;Node34</title>
<path fill="none" stroke="midnightblue" d="M1152.89,-520.17C1147.56,-499.739 1136.19,-468.602 1114,-452 1037.47,-394.754 972.152,-480.904 902,-416 830.982,-350.294 831.455,-220.578 834.403,-171.979"/>
<polygon fill="midnightblue" stroke="midnightblue" points="837.899,-172.154 835.124,-161.929 830.917,-171.653 837.899,-172.154"/>
</g>
<!-- Node35 -->
<g id="node35" class="node"><title>Node35</title>
<g id="a_node35"><a xlink:href="../../da/db2/FunctionTree_8hpp.html" target="_top" xlink:title="This class can be used to store a function in a tree&#45;like structure. ">
<polygon fill="white" stroke="black" points="1920,-390.5 1920,-409.5 2036,-409.5 2036,-390.5 1920,-390.5"/>
<text text-anchor="middle" x="1978" y="-397.5" font-family="Helvetica,sans-Serif" font-size="10.00">Core/FunctionTree.hpp</text>
</a>
</g>
</g>
<!-- Node1&#45;&gt;Node35 -->
<g id="edge63" class="edge"><title>Node1&#45;&gt;Node35</title>
<path fill="none" stroke="midnightblue" d="M1240.74,-528.154C1316.02,-517.318 1429.55,-500.505 1528,-484 1671.61,-459.923 1840.27,-427.773 1924.48,-411.454"/>
<polygon fill="midnightblue" stroke="midnightblue" points="1925.18,-414.885 1934.33,-409.544 1923.84,-408.013 1925.18,-414.885"/>
</g>
<!-- Node39 -->
<g id="node39" class="node"><title>Node39</title>
<g id="a_node39"><a xlink:href="../../d0/d0c/TableFormater_8hpp.html" target="_top" xlink:title="Core/TableFormater.hpp">
<polygon fill="white" stroke="black" points="361,-266.5 361,-285.5 483,-285.5 483,-266.5 361,-266.5"/>
<text text-anchor="middle" x="422" y="-273.5" font-family="Helvetica,sans-Serif" font-size="10.00">Core/TableFormater.hpp</text>
</a>
</g>
</g>
<!-- Node1&#45;&gt;Node39 -->
<g id="edge88" class="edge"><title>Node1&#45;&gt;Node39</title>
<path fill="none" stroke="midnightblue" d="M1073.46,-537.527C908.862,-531.973 554.633,-516.378 510,-484 446.725,-438.099 428.598,-337.413 423.702,-295.686"/>
<polygon fill="midnightblue" stroke="midnightblue" points="427.166,-295.157 422.645,-285.575 420.204,-295.885 427.166,-295.157"/>
</g>
<!-- Node41 -->
<g id="node41" class="node"><title>Node41</title>
<g id="a_node41"><a xlink:href="../../df/d53/RootReader_8hpp.html" target="_top" xlink:title="This class reads event&#45;based data from root&#45;files. ">
<polygon fill="white" stroke="red" points="2085.5,-385 2085.5,-415 2210.5,-415 2210.5,-385 2085.5,-385"/>
<text text-anchor="start" x="2093.5" y="-403" font-family="Helvetica,sans-Serif" font-size="10.00">DataReader/RootReader</text>
<text text-anchor="middle" x="2148" y="-392" font-family="Helvetica,sans-Serif" font-size="10.00">/RootReader.hpp</text>
</a>
</g>
</g>
<!-- Node1&#45;&gt;Node41 -->
<g id="edge98" class="edge"><title>Node1&#45;&gt;Node41</title>
<path fill="none" stroke="midnightblue" d="M1240.69,-531.106C1335.14,-520.828 1493.33,-502.889 1629,-484 1788.68,-461.768 1975.16,-430.689 2075.39,-413.564"/>
<polygon fill="midnightblue" stroke="midnightblue" points="2076.14,-416.986 2085.41,-411.849 2074.96,-410.086 2076.14,-416.986"/>
</g>
<!-- Node46 -->
<g id="node46" class="node"><title>Node46</title>
<g id="a_node46"><a xlink:href="../../d7/de4/MinLogLH_8hpp.html" target="_top" xlink:title="Estimator/MinLogLH\l/MinLogLH.hpp">
<polygon fill="white" stroke="red" points="1242,-453 1242,-483 1348,-483 1348,-453 1242,-453"/>
<text text-anchor="start" x="1250" y="-471" font-family="Helvetica,sans-Serif" font-size="10.00">Estimator/MinLogLH</text>
<text text-anchor="middle" x="1295" y="-460" font-family="Helvetica,sans-Serif" font-size="10.00">/MinLogLH.hpp</text>
</a>
</g>
</g>
<!-- Node1&#45;&gt;Node46 -->
<g id="edge121" class="edge"><title>Node1&#45;&gt;Node46</title>
<path fill="none" stroke="midnightblue" d="M1195.07,-520.411C1214.91,-510.206 1239.04,-497.789 1258.62,-487.715"/>
<polygon fill="midnightblue" stroke="midnightblue" points="1260.26,-490.81 1267.55,-483.123 1257.06,-484.586 1260.26,-490.81"/>
</g>
<!-- Node47 -->
<g id="node47" class="node"><title>Node47</title>
<g id="a_node47"><a xlink:href="../../da/d15/MinuitIF_8hpp.html" target="_top" xlink:title="This class provides a wrapper around the Minuit2 library. ">
<polygon fill="white" stroke="red" points="2667,-261 2667,-291 2789,-291 2789,-261 2667,-261"/>
<text text-anchor="start" x="2675" y="-279" font-family="Helvetica,sans-Serif" font-size="10.00">Optimizer/Minuit2/Minuit</text>
<text text-anchor="middle" x="2728" y="-268" font-family="Helvetica,sans-Serif" font-size="10.00">IF.hpp</text>
</a>
</g>
</g>
<!-- Node1&#45;&gt;Node47 -->
<g id="edge129" class="edge"><title>Node1&#45;&gt;Node47</title>
<path fill="none" stroke="midnightblue" d="M1240.75,-540.285C1564.71,-540.983 2720.33,-539.559 2774,-484 2822.17,-434.133 2798.87,-392.718 2774,-328 2769.74,-316.922 2761.84,-306.749 2753.77,-298.452"/>
<polygon fill="midnightblue" stroke="midnightblue" points="2756.06,-295.79 2746.42,-291.387 2751.21,-300.839 2756.06,-295.79"/>
</g>
<!-- Node48 -->
<g id="node48" class="node"><title>Node48</title>
<polygon fill="white" stroke="#bfbfbf" points="2890,-453 2890,-483 3008,-483 3008,-453 2890,-453"/>
<text text-anchor="start" x="2898" y="-471" font-family="Helvetica,sans-Serif" font-size="10.00">Physics/DPKinematics</text>
<text text-anchor="middle" x="2949" y="-460" font-family="Helvetica,sans-Serif" font-size="10.00">/RootEfficiency.cpp</text>
</g>
<!-- Node1&#45;&gt;Node48 -->
<g id="edge135" class="edge"><title>Node1&#45;&gt;Node48</title>
<path fill="none" stroke="midnightblue" d="M1240.58,-539.161C1539.33,-535.868 2553.71,-522.081 2876,-484 2877.26,-483.851 2878.54,-483.69 2879.82,-483.521"/>
<polygon fill="midnightblue" stroke="midnightblue" points="2880.4,-486.974 2889.78,-482.048 2879.37,-480.05 2880.4,-486.974"/>
</g>
<!-- Node49 -->
<g id="node49" class="node"><title>Node49</title>
<polygon fill="white" stroke="#bfbfbf" points="3026.5,-453 3026.5,-483 3145.5,-483 3145.5,-453 3026.5,-453"/>
<text text-anchor="start" x="3034.5" y="-471" font-family="Helvetica,sans-Serif" font-size="10.00">Physics/AmplitudeSum</text>
<text text-anchor="middle" x="3086" y="-460" font-family="Helvetica,sans-Serif" font-size="10.00">/AmpSumIntensity.hpp</text>
</g>
<!-- Node1&#45;&gt;Node49 -->
<g id="edge136" class="edge"><title>Node1&#45;&gt;Node49</title>
<path fill="none" stroke="midnightblue" d="M1240.6,-539.527C1552.1,-537.448 2645.97,-527.253 3016.33,-483.882"/>
<polygon fill="midnightblue" stroke="midnightblue" points="3016.76,-487.354 3026.28,-482.687 3015.93,-480.404 3016.76,-487.354"/>
</g>
<!-- Node50 -->
<g id="node50" class="node"><title>Node50</title>
<polygon fill="white" stroke="#bfbfbf" points="3164,-453 3164,-483 3282,-483 3282,-453 3164,-453"/>
<text text-anchor="start" x="3172" y="-471" font-family="Helvetica,sans-Serif" font-size="10.00">Physics/DPKinematics</text>
<text text-anchor="middle" x="3223" y="-460" font-family="Helvetica,sans-Serif" font-size="10.00">/RootGenerator.hpp</text>
</g>
<!-- Node1&#45;&gt;Node50 -->
<g id="edge137" class="edge"><title>Node1&#45;&gt;Node50</title>
<path fill="none" stroke="midnightblue" d="M1240.77,-539.727C1567.1,-538.345 2754.31,-530.262 3153.51,-483.844"/>
<polygon fill="midnightblue" stroke="midnightblue" points="3154.14,-487.294 3163.65,-482.635 3153.31,-480.343 3154.14,-487.294"/>
</g>
<!-- Node14&#45;&gt;Node2 -->
<g id="edge16" class="edge"><title>Node14&#45;&gt;Node2</title>
<path fill="none" stroke="midnightblue" d="M676.22,-204.202C667.267,-183.367 644.628,-130.681 632.671,-102.852"/>
<polygon fill="midnightblue" stroke="midnightblue" points="635.826,-101.328 628.662,-93.5224 629.394,-104.092 635.826,-101.328"/>
</g>
<!-- Node14&#45;&gt;Node5 -->
<g id="edge14" class="edge"><title>Node14&#45;&gt;Node5</title>
<path fill="none" stroke="midnightblue" d="M682.815,-204.396C691.905,-178.198 723.226,-99.2975 780,-68 835.16,-37.5922 1812.54,-20.5486 2003.72,-17.498"/>
<polygon fill="midnightblue" stroke="midnightblue" points="2004.01,-20.9939 2013.95,-17.3362 2003.9,-13.9948 2004.01,-20.9939"/>
</g>
<!-- Node14&#45;&gt;Node6 -->
<g id="edge15" class="edge"><title>Node14&#45;&gt;Node6</title>
<path fill="none" stroke="midnightblue" d="M637.435,-205.719C602.829,-198.825 553.311,-186.707 513,-168 431.767,-130.302 348.121,-62.714 312.627,-32.4229"/>
<polygon fill="midnightblue" stroke="midnightblue" points="314.531,-29.4437 304.672,-25.5663 309.961,-34.7461 314.531,-29.4437"/>
</g>
<!-- Node14&#45;&gt;Node15 -->
<g id="edge17" class="edge"><title>Node14&#45;&gt;Node15</title>
<path fill="none" stroke="midnightblue" d="M663.953,-204.403C645.407,-194.468 614.66,-177.997 592.978,-166.381"/>
<polygon fill="midnightblue" stroke="midnightblue" points="594.485,-163.218 584.017,-161.581 591.179,-169.388 594.485,-163.218"/>
</g>
<!-- Node15&#45;&gt;Node2 -->
<g id="edge20" class="edge"><title>Node15&#45;&gt;Node2</title>
<path fill="none" stroke="midnightblue" d="M575.452,-142.372C584.363,-132.053 599.478,-114.551 610.676,-101.585"/>
<polygon fill="midnightblue" stroke="midnightblue" points="613.477,-103.697 617.364,-93.8411 608.179,-99.1217 613.477,-103.697"/>
</g>
<!-- Node15&#45;&gt;Node3 -->
<g id="edge19" class="edge"><title>Node15&#45;&gt;Node3</title>
<path fill="none" stroke="midnightblue" d="M552.574,-142.372C532.697,-131.254 497.915,-111.8 474.427,-98.6624"/>
<polygon fill="midnightblue" stroke="midnightblue" points="475.866,-95.4574 465.43,-93.6305 472.449,-101.567 475.866,-95.4574"/>
</g>
<!-- Node15&#45;&gt;Node5 -->
<g id="edge18" class="edge"><title>Node15&#45;&gt;Node5</title>
<path fill="none" stroke="midnightblue" d="M556.156,-142.362C535.396,-126.236 496.667,-91.0966 519,-68 572.423,-12.7505 1788.56,-15.8466 2003.64,-16.829"/>
<polygon fill="midnightblue" stroke="midnightblue" points="2003.93,-20.3303 2013.94,-16.878 2003.96,-13.3303 2003.93,-20.3303"/>
</g>
<!-- Node16 -->
<g id="node16" class="node"><title>Node16</title>
<polygon fill="white" stroke="#bfbfbf" points="979.5,-74.5 979.5,-93.5 1038.5,-93.5 1038.5,-74.5 979.5,-74.5"/>
<text text-anchor="middle" x="1009" y="-81.5" font-family="Helvetica,sans-Serif" font-size="10.00">stdexcept</text>
</g>
<!-- Node15&#45;&gt;Node16 -->
<g id="edge21" class="edge"><title>Node15&#45;&gt;Node16</title>
<path fill="none" stroke="midnightblue" d="M614.183,-148.759C689.64,-144.296 843.62,-131.824 970,-100 973.236,-99.1851 976.568,-98.1788 979.858,-97.0761"/>
<polygon fill="midnightblue" stroke="midnightblue" points="981.263,-100.289 989.459,-93.5741 978.865,-93.7128 981.263,-100.289"/>
</g>
<!-- Node17&#45;&gt;Node2 -->
<g id="edge24" class="edge"><title>Node17&#45;&gt;Node2</title>
<path fill="none" stroke="midnightblue" d="M1019.85,-143.3C928.491,-129.811 741.674,-102.227 662.16,-90.4867"/>
<polygon fill="midnightblue" stroke="midnightblue" points="662.521,-87.0022 652.117,-89.0039 661.499,-93.9271 662.521,-87.0022"/>
</g>
<!-- Node17&#45;&gt;Node3 -->
<g id="edge29" class="edge"><title>Node17&#45;&gt;Node3</title>
<path fill="none" stroke="midnightblue" d="M1019.78,-146.551C891.484,-135.567 567.716,-107.513 519,-100 506.941,-98.1403 493.829,-95.4593 482.305,-92.8767"/>
<polygon fill="midnightblue" stroke="midnightblue" points="482.775,-89.3934 472.245,-90.559 481.204,-96.2147 482.775,-89.3934"/>
</g>
<!-- Node17&#45;&gt;Node4 -->
<g id="edge26" class="edge"><title>Node17&#45;&gt;Node4</title>
<path fill="none" stroke="midnightblue" d="M1019.94,-146.391C903.69,-135.97 629.949,-110.676 589,-100 586.181,-99.2651 583.296,-98.3388 580.451,-97.3088"/>
<polygon fill="midnightblue" stroke="midnightblue" points="581.668,-94.0259 571.085,-93.5345 579.052,-100.519 581.668,-94.0259"/>
</g>
<!-- Node17&#45;&gt;Node6 -->
<g id="edge25" class="edge"><title>Node17&#45;&gt;Node6</title>
<path fill="none" stroke="midnightblue" d="M1034.51,-142.426C976.214,-129.082 868.669,-104.413 851,-100 797.864,-86.7292 785.788,-78.3131 732,-68 581.087,-39.0647 397.497,-24.1118 325.781,-19.0342"/>
<polygon fill="midnightblue" stroke="midnightblue" points="325.859,-15.5313 315.641,-18.3297 325.374,-22.5144 325.859,-15.5313"/>
</g>
<!-- Node17&#45;&gt;Node16 -->
<g id="edge28" class="edge"><title>Node17&#45;&gt;Node16</title>
<path fill="none" stroke="midnightblue" d="M1063.76,-142.372C1053.82,-131.955 1036.89,-114.217 1024.48,-101.216"/>
<polygon fill="midnightblue" stroke="midnightblue" points="1026.88,-98.658 1017.44,-93.8411 1021.81,-103.491 1026.88,-98.658"/>
</g>
<!-- Node18 -->
<g id="node18" class="node"><title>Node18</title>
<polygon fill="white" stroke="#bfbfbf" points="2137.5,-74.5 2137.5,-93.5 2190.5,-93.5 2190.5,-74.5 2137.5,-74.5"/>
<text text-anchor="middle" x="2164" y="-81.5" font-family="Helvetica,sans-Serif" font-size="10.00">complex</text>
</g>
<!-- Node17&#45;&gt;Node18 -->
<g id="edge27" class="edge"><title>Node17&#45;&gt;Node18</title>
<path fill="none" stroke="midnightblue" d="M1124.04,-146.129C1158.83,-142.973 1205.63,-138.923 1247,-136 1588.93,-111.843 2003.27,-92.2922 2127.26,-86.6476"/>
<polygon fill="midnightblue" stroke="midnightblue" points="2127.52,-90.1395 2137.35,-86.1898 2127.2,-83.1467 2127.52,-90.1395"/>
</g>
<!-- Node19 -->
<g id="node19" class="node"><title>Node19</title>
<polygon fill="white" stroke="#bfbfbf" points="860.5,-69 860.5,-99 961.5,-99 961.5,-69 860.5,-69"/>
<text text-anchor="start" x="868.5" y="-87" font-family="Helvetica,sans-Serif" font-size="10.00">boost/property_tree</text>
<text text-anchor="middle" x="911" y="-76" font-family="Helvetica,sans-Serif" font-size="10.00">/ptree.hpp</text>
</g>
<!-- Node17&#45;&gt;Node19 -->
<g id="edge30" class="edge"><title>Node17&#45;&gt;Node19</title>
<path fill="none" stroke="midnightblue" d="M1050.95,-142.372C1026.62,-132.397 985.914,-115.71 954.657,-102.897"/>
<polygon fill="midnightblue" stroke="midnightblue" points="955.869,-99.6109 945.289,-99.0562 953.214,-106.088 955.869,-99.6109"/>
</g>
<!-- Node17&#45;&gt;Node20 -->
<g id="edge31" class="edge"><title>Node17&#45;&gt;Node20</title>
<path fill="none" stroke="midnightblue" d="M1124.02,-145.886C1158.81,-142.629 1205.61,-138.555 1247,-136 1669.61,-109.913 1776.41,-126.401 2199,-100 2232.06,-97.9346 2268.63,-94.8573 2299.52,-92.0265"/>
<polygon fill="midnightblue" stroke="midnightblue" points="2300.12,-95.4851 2309.76,-91.0778 2299.48,-88.515 2300.12,-95.4851"/>
</g>
<!-- Node24 -->
<g id="node24" class="node"><title>Node24</title>
<g id="a_node24"><a xlink:href="../../d2/de9/Exceptions_8hpp.html" target="_top" xlink:title="This class defines the ComPWA exception base&#45;class and provides a set of standard exceptions...">
<polygon fill="white" stroke="red" points="1168,-74.5 1168,-93.5 1276,-93.5 1276,-74.5 1168,-74.5"/>
<text text-anchor="middle" x="1222" y="-81.5" font-family="Helvetica,sans-Serif" font-size="10.00">Core/Exceptions.hpp</text>
</a>
</g>
</g>
<!-- Node17&#45;&gt;Node24 -->
<g id="edge38" class="edge"><title>Node17&#45;&gt;Node24</title>
<path fill="none" stroke="midnightblue" d="M1091.61,-142.372C1117.44,-131.007 1163.07,-110.931 1192.92,-97.7961"/>
<polygon fill="midnightblue" stroke="midnightblue" points="1194.64,-100.862 1202.39,-93.6305 1191.82,-94.4543 1194.64,-100.862"/>
</g>
<!-- Node17&#45;&gt;Node25 -->
<g id="edge40" class="edge"><title>Node17&#45;&gt;Node25</title>
<path fill="none" stroke="midnightblue" d="M1076.05,-142.372C1080.71,-132.446 1088.5,-115.874 1094.5,-103.086"/>
<polygon fill="midnightblue" stroke="midnightblue" points="1097.76,-104.38 1098.85,-93.8411 1091.43,-101.404 1097.76,-104.38"/>
</g>
<!-- Node20&#45;&gt;Node5 -->
<g id="edge33" class="edge"><title>Node20&#45;&gt;Node5</title>
<path fill="none" stroke="midnightblue" d="M2328.57,-74.4846C2317.93,-72.3589 2306.55,-70.0899 2296,-68 2214.03,-51.7629 2117.46,-32.8874 2068.3,-23.2952"/>
<polygon fill="midnightblue" stroke="midnightblue" points="2068.75,-19.8177 2058.26,-21.3384 2067.41,-26.6882 2068.75,-19.8177"/>
</g>
<!-- Node20&#45;&gt;Node6 -->
<g id="edge32" class="edge"><title>Node20&#45;&gt;Node6</title>
<path fill="none" stroke="midnightblue" d="M2309.77,-76.7581C2276.95,-73.6407 2235.81,-70.0961 2199,-68 1438.7,-24.7044 505.48,-18.033 325.737,-17.1298"/>
<polygon fill="midnightblue" stroke="midnightblue" points="325.69,-13.6296 315.673,-17.0814 325.656,-20.6295 325.69,-13.6296"/>
</g>
<!-- Node20&#45;&gt;Node7 -->
<g id="edge34" class="edge"><title>Node20&#45;&gt;Node7</title>
<path fill="none" stroke="midnightblue" d="M2411.8,-74.4593C2422.88,-72.245 2434.88,-69.9397 2446,-68 2556.97,-48.6411 2689.01,-30.2611 2751.61,-21.8259"/>
<polygon fill="midnightblue" stroke="midnightblue" points="2752.31,-25.2628 2761.76,-20.4635 2751.38,-18.3251 2752.31,-25.2628"/>
</g>
<!-- Node21 -->
<g id="node21" class="node"><title>Node21</title>
<polygon fill="white" stroke="#bfbfbf" points="2404,-6.5 2404,-25.5 2454,-25.5 2454,-6.5 2404,-6.5"/>
<text text-anchor="middle" x="2429" y="-13.5" font-family="Helvetica,sans-Serif" font-size="10.00">fstream</text>
</g>
<!-- Node20&#45;&gt;Node21 -->
<g id="edge35" class="edge"><title>Node20&#45;&gt;Node21</title>
<path fill="none" stroke="midnightblue" d="M2378.58,-74.3717C2387.65,-64.053 2403.03,-46.5513 2414.42,-33.5854"/>
<polygon fill="midnightblue" stroke="midnightblue" points="2417.26,-35.6632 2421.23,-25.8411 2412,-31.0424 2417.26,-35.6632"/>
</g>
<!-- Node22 -->
<g id="node22" class="node"><title>Node22</title>
<polygon fill="white" stroke="#bfbfbf" points="2200.5,-1 2200.5,-31 2295.5,-31 2295.5,-1 2200.5,-1"/>
<text text-anchor="start" x="2208.5" y="-19" font-family="Helvetica,sans-Serif" font-size="10.00">boost/serialization</text>
<text text-anchor="middle" x="2248" y="-8" font-family="Helvetica,sans-Serif" font-size="10.00">/shared_ptr.hpp</text>
</g>
<!-- Node20&#45;&gt;Node22 -->
<g id="edge36" class="edge"><title>Node20&#45;&gt;Node22</title>
<path fill="none" stroke="midnightblue" d="M2354.92,-74.3717C2336.87,-64.6857 2307.02,-48.6708 2283.44,-36.0192"/>
<polygon fill="midnightblue" stroke="midnightblue" points="2284.9,-32.8256 2274.43,-31.1815 2281.59,-38.9937 2284.9,-32.8256"/>
</g>
<!-- Node23 -->
<g id="node23" class="node"><title>Node23</title>
<polygon fill="white" stroke="#bfbfbf" points="2531.5,-1 2531.5,-31 2626.5,-31 2626.5,-1 2531.5,-1"/>
<text text-anchor="start" x="2539.5" y="-19" font-family="Helvetica,sans-Serif" font-size="10.00">boost/serialization</text>
<text text-anchor="middle" x="2579" y="-8" font-family="Helvetica,sans-Serif" font-size="10.00">/nvp.hpp</text>
</g>
<!-- Node20&#45;&gt;Node23 -->
<g id="edge37" class="edge"><title>Node20&#45;&gt;Node23</title>
<path fill="none" stroke="midnightblue" d="M2398.19,-74.3717C2430.24,-64.2035 2484.26,-47.0602 2524.93,-34.1556"/>
<polygon fill="midnightblue" stroke="midnightblue" points="2526.23,-37.4168 2534.7,-31.0562 2524.11,-30.7447 2526.23,-37.4168"/>
</g>
<!-- Node24&#45;&gt;Node6 -->
<g id="edge39" class="edge"><title>Node24&#45;&gt;Node6</title>
<path fill="none" stroke="midnightblue" d="M1190.3,-74.4393C1180.06,-71.9791 1168.62,-69.546 1158,-68 834.957,-20.9518 437.867,-17.0354 325.756,-16.9213"/>
<polygon fill="midnightblue" stroke="midnightblue" points="325.518,-13.4214 315.517,-16.9211 325.517,-20.4214 325.518,-13.4214"/>
</g>
<!-- Node26&#45;&gt;Node2 -->
<g id="edge42" class="edge"><title>Node26&#45;&gt;Node2</title>
<path fill="none" stroke="midnightblue" d="M1469.98,-211.394C1372.83,-207.992 1175.42,-197.74 1011,-168 958.794,-158.557 947.672,-148.028 896,-136 813.117,-116.707 714.678,-99.6177 662.246,-90.9737"/>
<polygon fill="midnightblue" stroke="midnightblue" points="662.519,-87.4718 652.085,-89.3094 661.387,-94.3798 662.519,-87.4718"/>
</g>
<!-- Node26&#45;&gt;Node4 -->
<g id="edge45" class="edge"><title>Node26&#45;&gt;Node4</title>
<path fill="none" stroke="midnightblue" d="M1469.72,-211.665C1315.11,-207.879 907.336,-195.517 775,-168 701.972,-152.815 621.084,-117.272 580.42,-97.9916"/>
<polygon fill="midnightblue" stroke="midnightblue" points="581.739,-94.7425 571.209,-93.5745 578.712,-101.054 581.739,-94.7425"/>
</g>
<!-- Node26&#45;&gt;Node5 -->
<g id="edge46" class="edge"><title>Node26&#45;&gt;Node5</title>
<path fill="none" stroke="midnightblue" d="M1590.22,-211.808C1651,-208.776 1746.55,-198.938 1823,-168 1905.12,-134.767 1986,-64.27 2019.67,-32.7745"/>
<polygon fill="midnightblue" stroke="midnightblue" points="2022.33,-35.0726 2027.18,-25.6539 2017.51,-29.9912 2022.33,-35.0726"/>
</g>
<!-- Node26&#45;&gt;Node6 -->
<g id="edge43" class="edge"><title>Node26&#45;&gt;Node6</title>
<path fill="none" stroke="midnightblue" d="M1469.87,-207.572C1391.11,-199.846 1261.29,-184.744 1247,-168 1237.77,-157.183 1241.38,-149.065 1247,-136 1256.19,-114.629 1275.81,-121.371 1285,-100 1290.62,-86.9351 1294.79,-78.3121 1285,-68 1251.18,-32.3961 490.629,-19.7381 326.173,-17.4127"/>
<polygon fill="midnightblue" stroke="midnightblue" points="325.844,-13.9079 315.797,-17.2686 325.747,-20.9072 325.844,-13.9079"/>
</g>
<!-- Node26&#45;&gt;Node7 -->
<g id="edge44" class="edge"><title>Node26&#45;&gt;Node7</title>
<path fill="none" stroke="midnightblue" d="M1590.26,-209.781C1689.38,-204.069 1892.9,-190.589 2064,-168 2148.4,-156.858 2362.9,-133.864 2441,-100 2462.86,-90.5236 2462.09,-77.3425 2484,-68 2531.76,-47.6383 2681.77,-28.8434 2751.59,-20.9382"/>
<polygon fill="midnightblue" stroke="midnightblue" points="2752.13,-24.3992 2761.68,-19.8081 2751.35,-17.4426 2752.13,-24.3992"/>
</g>
<!-- Node26&#45;&gt;Node17 -->
<g id="edge51" class="edge"><title>Node26&#45;&gt;Node17</title>
<path fill="none" stroke="midnightblue" d="M1469.83,-205.664C1399.36,-196.999 1279.14,-181.992 1176,-168 1162.4,-166.155 1147.81,-164.099 1133.99,-162.115"/>
<polygon fill="midnightblue" stroke="midnightblue" points="1134.48,-158.65 1124.08,-160.687 1133.48,-165.578 1134.48,-158.65"/>
</g>
<!-- Node26&#45;&gt;Node20 -->
<g id="edge50" class="edge"><title>Node26&#45;&gt;Node20</title>
<path fill="none" stroke="midnightblue" d="M1590.05,-210.066C1677.96,-205.102 1846.59,-193.039 1988,-168 2044.04,-158.077 2056.5,-148.615 2112,-136 2180.71,-120.383 2260.31,-105.129 2312.93,-95.4349"/>
<polygon fill="midnightblue" stroke="midnightblue" points="2313.88,-98.8191 2323.09,-93.5718 2312.62,-91.9341 2313.88,-98.8191"/>
</g>
<!-- Node26&#45;&gt;Node22 -->
<g id="edge49" class="edge"><title>Node26&#45;&gt;Node22</title>
<path fill="none" stroke="midnightblue" d="M1590.21,-209.414C1658.29,-204.337 1772.04,-192.757 1867,-168 1901.2,-159.082 2111.88,-73.0243 2204.45,-34.9581"/>
<polygon fill="midnightblue" stroke="midnightblue" points="2205.9,-38.1443 2213.82,-31.1026 2203.24,-31.6708 2205.9,-38.1443"/>
</g>
<!-- Node26&#45;&gt;Node24 -->
<g id="edge52" class="edge"><title>Node26&#45;&gt;Node24</title>
<path fill="none" stroke="midnightblue" d="M1469.84,-208.639C1382.85,-201.714 1230.5,-187.018 1214,-168 1198.54,-150.185 1206,-121.426 1213.47,-102.87"/>
<polygon fill="midnightblue" stroke="midnightblue" points="1216.76,-104.077 1217.58,-93.5143 1210.35,-101.26 1216.76,-104.077"/>
</g>
<!-- Node26&#45;&gt;Node25 -->
<g id="edge53" class="edge"><title>Node26&#45;&gt;Node25</title>
<path fill="none" stroke="midnightblue" d="M1590.02,-213.783C1688.05,-213.195 1865.56,-203.219 1802,-136 1752.84,-84.007 1229.66,-111.317 1159,-100 1152.95,-99.0312 1146.61,-97.6753 1140.47,-96.1711"/>
<polygon fill="midnightblue" stroke="midnightblue" points="1140.95,-92.6788 1130.39,-93.5418 1139.18,-99.4522 1140.95,-92.6788"/>
</g>
<!-- Node27 -->
<g id="node27" class="node"><title>Node27</title>
<polygon fill="white" stroke="#bfbfbf" points="2306.5,-142.5 2306.5,-161.5 2341.5,-161.5 2341.5,-142.5 2306.5,-142.5"/>
<text text-anchor="middle" x="2324" y="-149.5" font-family="Helvetica,sans-Serif" font-size="10.00">map</text>
</g>
<!-- Node26&#45;&gt;Node27 -->
<g id="edge47" class="edge"><title>Node26&#45;&gt;Node27</title>
<path fill="none" stroke="midnightblue" d="M1590.19,-208.714C1699.64,-200.887 1938.58,-183.639 2140,-168 2195.46,-163.694 2260.28,-158.333 2296.29,-155.326"/>
<polygon fill="midnightblue" stroke="midnightblue" points="2296.82,-158.793 2306.5,-154.472 2296.24,-151.818 2296.82,-158.793"/>
</g>
<!-- Node28 -->
<g id="node28" class="node"><title>Node28</title>
<polygon fill="white" stroke="#bfbfbf" points="1256.5,-137 1256.5,-167 1351.5,-167 1351.5,-137 1256.5,-137"/>
<text text-anchor="start" x="1264.5" y="-155" font-family="Helvetica,sans-Serif" font-size="10.00">boost/serialization</text>
<text text-anchor="middle" x="1304" y="-144" font-family="Helvetica,sans-Serif" font-size="10.00">/vector.hpp</text>
</g>
<!-- Node26&#45;&gt;Node28 -->
<g id="edge48" class="edge"><title>Node26&#45;&gt;Node28</title>
<path fill="none" stroke="midnightblue" d="M1497.62,-204.403C1462.18,-194.994 1404.66,-179.723 1361.5,-168.266"/>
<polygon fill="midnightblue" stroke="midnightblue" points="1362.26,-164.846 1351.7,-165.663 1360.46,-171.612 1362.26,-164.846"/>
</g>
<!-- Node29 -->
<g id="node29" class="node"><title>Node29</title>
<polygon fill="white" stroke="#bfbfbf" points="1370,-142.5 1370,-161.5 1464,-161.5 1464,-142.5 1370,-142.5"/>
<text text-anchor="middle" x="1417" y="-149.5" font-family="Helvetica,sans-Serif" font-size="10.00">boost/version.hpp</text>
</g>
<!-- Node26&#45;&gt;Node29 -->
<g id="edge54" class="edge"><title>Node26&#45;&gt;Node29</title>
<path fill="none" stroke="midnightblue" d="M1513.81,-204.403C1495.1,-194.468 1464.08,-177.997 1442.2,-166.381"/>
<polygon fill="midnightblue" stroke="midnightblue" points="1443.63,-163.179 1433.16,-161.581 1440.35,-169.362 1443.63,-163.179"/>
</g>
<!-- Node30 -->
<g id="node30" class="node"><title>Node30</title>
<polygon fill="white" stroke="#bfbfbf" points="1482.5,-137 1482.5,-167 1577.5,-167 1577.5,-137 1482.5,-137"/>
<text text-anchor="start" x="1490.5" y="-155" font-family="Helvetica,sans-Serif" font-size="10.00">boost/serialization</text>
<text text-anchor="middle" x="1530" y="-144" font-family="Helvetica,sans-Serif" font-size="10.00">/split_free.hpp</text>
</g>
<!-- Node26&#45;&gt;Node30 -->
<g id="edge55" class="edge"><title>Node26&#45;&gt;Node30</title>
<path fill="none" stroke="midnightblue" d="M1530,-204.403C1530,-197.341 1530,-186.975 1530,-177.399"/>
<polygon fill="midnightblue" stroke="midnightblue" points="1533.5,-177.141 1530,-167.141 1526.5,-177.141 1533.5,-177.141"/>
</g>
<!-- Node31 -->
<g id="node31" class="node"><title>Node31</title>
<polygon fill="white" stroke="#bfbfbf" points="1595.5,-142.5 1595.5,-161.5 1724.5,-161.5 1724.5,-142.5 1595.5,-142.5"/>
<text text-anchor="middle" x="1660" y="-149.5" font-family="Helvetica,sans-Serif" font-size="10.00">boost/unordered_map.hpp</text>
</g>
<!-- Node26&#45;&gt;Node31 -->
<g id="edge56" class="edge"><title>Node26&#45;&gt;Node31</title>
<path fill="none" stroke="midnightblue" d="M1548.63,-204.403C1570.44,-194.334 1606.8,-177.552 1632.02,-165.915"/>
<polygon fill="midnightblue" stroke="midnightblue" points="1633.8,-168.949 1641.41,-161.581 1630.86,-162.593 1633.8,-168.949"/>
</g>
<!-- Node32 -->
<g id="node32" class="node"><title>Node32</title>
<polygon fill="white" stroke="#bfbfbf" points="1742.5,-142.5 1742.5,-161.5 1793.5,-161.5 1793.5,-142.5 1742.5,-142.5"/>
<text text-anchor="middle" x="1768" y="-149.5" font-family="Helvetica,sans-Serif" font-size="10.00">typeinfo</text>
</g>
<!-- Node26&#45;&gt;Node32 -->
<g id="edge57" class="edge"><title>Node26&#45;&gt;Node32</title>
<path fill="none" stroke="midnightblue" d="M1580.75,-204.474C1622.24,-196.857 1682.15,-184.375 1733,-168 1735.42,-167.22 1737.91,-166.335 1740.38,-165.395"/>
<polygon fill="midnightblue" stroke="midnightblue" points="1741.77,-168.608 1749.72,-161.597 1739.14,-162.123 1741.77,-168.608"/>
</g>
<!-- Node34&#45;&gt;Node2 -->
<g id="edge60" class="edge"><title>Node34&#45;&gt;Node2</title>
<path fill="none" stroke="midnightblue" d="M808.415,-142.372C770.954,-130.654 703.881,-109.674 662.057,-96.5912"/>
<polygon fill="midnightblue" stroke="midnightblue" points="662.846,-93.1709 652.257,-93.5259 660.756,-99.8517 662.846,-93.1709"/>
</g>
<!-- Node34&#45;&gt;Node5 -->
<g id="edge61" class="edge"><title>Node34&#45;&gt;Node5</title>
<path fill="none" stroke="midnightblue" d="M834.485,-142.306C832.044,-125.105 829.486,-86.7746 851,-68 895.637,-29.0463 1817.9,-18.912 2003.59,-17.2632"/>
<polygon fill="midnightblue" stroke="midnightblue" points="2003.83,-20.7614 2013.8,-17.1746 2003.77,-13.7616 2003.83,-20.7614"/>
</g>
<!-- Node34&#45;&gt;Node25 -->
<g id="edge62" class="edge"><title>Node34&#45;&gt;Node25</title>
<path fill="none" stroke="midnightblue" d="M872.661,-142.427C914.802,-132.506 986.011,-115.536 1047,-100 1051.75,-98.7903 1056.72,-97.4982 1061.65,-96.1988"/>
<polygon fill="midnightblue" stroke="midnightblue" points="1062.87,-99.4948 1071.64,-93.5453 1061.08,-92.7293 1062.87,-99.4948"/>
</g>
<!-- Node35&#45;&gt;Node5 -->
<g id="edge64" class="edge"><title>Node35&#45;&gt;Node5</title>
<path fill="none" stroke="midnightblue" d="M2013.5,-390.478C2093,-369.175 2283.54,-305.174 2350,-168 2356.2,-155.201 2357.12,-148.314 2350,-136 2342.43,-122.898 2246,-73.7346 2232,-68 2176.29,-45.1881 2107.44,-30.0785 2067.93,-22.5715"/>
<polygon fill="midnightblue" stroke="midnightblue" points="2068.55,-19.1257 2058.08,-20.741 2067.27,-26.008 2068.55,-19.1257"/>
</g>
<!-- Node35&#45;&gt;Node6 -->
<g id="edge66" class="edge"><title>Node35&#45;&gt;Node6</title>
<path fill="none" stroke="midnightblue" d="M1919.97,-399.346C1776.81,-399.41 1395.6,-394.769 1082,-348 1044.9,-342.467 1037.14,-333.253 1000,-328 952.542,-321.289 171.177,-326.592 138,-292 57.6449,-208.219 216.669,-75.5493 274.842,-31.644"/>
<polygon fill="midnightblue" stroke="midnightblue" points="277.026,-34.3815 282.957,-25.6027 272.846,-28.7665 277.026,-34.3815"/>
</g>
<!-- Node35&#45;&gt;Node7 -->
<g id="edge65" class="edge"><title>Node35&#45;&gt;Node7</title>
<path fill="none" stroke="midnightblue" d="M2030.83,-390.466C2045.45,-388.228 2061.32,-385.909 2076,-384 2224.93,-364.633 2263.08,-367.51 2412,-348 2469.53,-340.463 2483.6,-336.469 2541,-328 2598.05,-319.582 2759.7,-335.118 2798,-292 2863.77,-217.944 2816.46,-83.4775 2796.08,-35.0161"/>
<polygon fill="midnightblue" stroke="midnightblue" points="2799.17,-33.3426 2791.98,-25.5599 2792.75,-36.1269 2799.17,-33.3426"/>
</g>
<!-- Node35&#45;&gt;Node17 -->
<g id="edge87" class="edge"><title>Node35&#45;&gt;Node17</title>
<path fill="none" stroke="midnightblue" d="M1919.66,-395.93C1803.2,-389.362 1545.8,-372.523 1461,-348 1311.14,-304.663 1149.93,-204.357 1093.2,-167.19"/>
<polygon fill="midnightblue" stroke="midnightblue" points="1094.99,-164.177 1084.71,-161.59 1091.13,-170.02 1094.99,-164.177"/>
</g>
<!-- Node35&#45;&gt;Node20 -->
<g id="edge86" class="edge"><title>Node35&#45;&gt;Node20</title>
<path fill="none" stroke="midnightblue" d="M2031.36,-390.481C2045.83,-388.267 2061.5,-385.956 2076,-384 2144.29,-374.786 2325.93,-385.108 2384,-348 2444.98,-309.031 2482.84,-272.668 2460,-204 2445.85,-161.454 2409.89,-121.83 2388.26,-100.769"/>
<polygon fill="midnightblue" stroke="midnightblue" points="2390.41,-97.9835 2380.75,-93.6394 2385.59,-103.061 2390.41,-97.9835"/>
</g>
<!-- Node35&#45;&gt;Node27 -->
<g id="edge67" class="edge"><title>Node35&#45;&gt;Node27</title>
<path fill="none" stroke="midnightblue" d="M1997.19,-390.421C2017.58,-381.013 2050.45,-364.98 2077,-348 2169,-289.159 2267.91,-203.324 2306.86,-168.52"/>
<polygon fill="midnightblue" stroke="midnightblue" points="2309.54,-170.819 2314.64,-161.533 2304.86,-165.612 2309.54,-170.819"/>
</g>
<!-- Node36 -->
<g id="node36" class="node"><title>Node36</title>
<g id="a_node36"><a xlink:href="../../dc/d66/Functions_8hpp.html" target="_top" xlink:title="This file contains Functions implementing the Strategy interface so they can be used inside a node of...">
<polygon fill="white" stroke="red" points="1928,-266.5 1928,-285.5 2030,-285.5 2030,-266.5 1928,-266.5"/>
<text text-anchor="middle" x="1979" y="-273.5" font-family="Helvetica,sans-Serif" font-size="10.00">Core/Functions.hpp</text>
</a>
</g>
</g>
<!-- Node35&#45;&gt;Node36 -->
<g id="edge68" class="edge"><title>Node35&#45;&gt;Node36</title>
<path fill="none" stroke="midnightblue" d="M1972.82,-390.363C1965.49,-377.104 1953.48,-350.864 1958,-328 1960.27,-316.549 1965.14,-304.439 1969.62,-294.894"/>
<polygon fill="midnightblue" stroke="midnightblue" points="1972.87,-296.21 1974.18,-285.696 1966.6,-293.097 1972.87,-296.21"/>
</g>
<!-- Node38 -->
<g id="node38" class="node"><title>Node38</title>
<g id="a_node38"><a xlink:href="../../df/d5a/TreeNode_8hpp.html" target="_top" xlink:title="This class acts as a container for a parameter in a function tree. ">
<polygon fill="white" stroke="red" points="1967,-328.5 1967,-347.5 2069,-347.5 2069,-328.5 1967,-328.5"/>
<text text-anchor="middle" x="2018" y="-335.5" font-family="Helvetica,sans-Serif" font-size="10.00">Core/TreeNode.hpp</text>
</a>
</g>
</g>
<!-- Node35&#45;&gt;Node38 -->
<g id="edge78" class="edge"><title>Node35&#45;&gt;Node38</title>
<path fill="none" stroke="midnightblue" d="M1983.73,-390.403C1989.67,-381.493 1999.12,-367.325 2006.59,-356.118"/>
<polygon fill="midnightblue" stroke="midnightblue" points="2009.64,-357.843 2012.28,-347.581 2003.82,-353.96 2009.64,-357.843"/>
</g>
<!-- Node36&#45;&gt;Node5 -->
<g id="edge69" class="edge"><title>Node36&#45;&gt;Node5</title>
<path fill="none" stroke="midnightblue" d="M1983.98,-266.488C1994.02,-248.828 2016.55,-206.628 2026,-168 2037.36,-121.571 2037.63,-64.8697 2036.83,-35.9461"/>
<polygon fill="midnightblue" stroke="midnightblue" points="2040.31,-35.5421 2036.46,-25.6725 2033.32,-35.7903 2040.31,-35.5421"/>
</g>
<!-- Node36&#45;&gt;Node17 -->
<g id="edge73" class="edge"><title>Node36&#45;&gt;Node17</title>
<path fill="none" stroke="midnightblue" d="M1927.83,-268.784C1902.87,-265.876 1872.39,-262.51 1845,-260 1621.37,-239.505 1559.5,-275.864 1341,-224 1318.51,-218.663 1315,-211.068 1293,-204 1288.82,-202.657 1183.08,-178.404 1119.4,-163.834"/>
<polygon fill="midnightblue" stroke="midnightblue" points="1120.09,-160.402 1109.56,-161.584 1118.53,-167.226 1120.09,-160.402"/>
</g>
<!-- Node36&#45;&gt;Node18 -->
<g id="edge70" class="edge"><title>Node36&#45;&gt;Node18</title>
<path fill="none" stroke="midnightblue" d="M1985.56,-266.429C1996.6,-252.334 2020.08,-223.846 2044,-204 2067.35,-184.629 2079.64,-188.51 2102,-168 2123.47,-148.302 2142.6,-120.297 2153.75,-102.386"/>
<polygon fill="midnightblue" stroke="midnightblue" points="2156.89,-103.956 2159.08,-93.5915 2150.9,-100.324 2156.89,-103.956"/>
</g>
<!-- Node36&#45;&gt;Node20 -->
<g id="edge74" class="edge"><title>Node36&#45;&gt;Node20</title>
<path fill="none" stroke="midnightblue" d="M1994.79,-266.454C2020.02,-252.871 2071.05,-225.675 2115,-204 2196.87,-163.627 2295.12,-119.011 2342.58,-97.6962"/>
<polygon fill="midnightblue" stroke="midnightblue" points="2344.22,-100.797 2351.91,-93.5115 2341.35,-94.4096 2344.22,-100.797"/>
</g>
<!-- Node36&#45;&gt;Node24 -->
<g id="edge71" class="edge"><title>Node36&#45;&gt;Node24</title>
<path fill="none" stroke="midnightblue" d="M1927.8,-269.05C1902.84,-266.205 1872.36,-262.814 1845,-260 1674.48,-242.465 1630.42,-250.092 1461,-224 1431.79,-219.502 1219.57,-190.991 1201,-168 1185.73,-149.093 1198.53,-120.481 1209.78,-102.273"/>
<polygon fill="midnightblue" stroke="midnightblue" points="1212.78,-104.081 1215.36,-93.8057 1206.93,-100.229 1212.78,-104.081"/>
</g>
<!-- Node36&#45;&gt;Node26 -->
<g id="edge72" class="edge"><title>Node36&#45;&gt;Node26</title>
<path fill="none" stroke="midnightblue" d="M1932.65,-266.484C1919.83,-264.246 1905.89,-261.922 1893,-260 1791.47,-244.862 1673.43,-230.899 1600.21,-222.664"/>
<polygon fill="midnightblue" stroke="midnightblue" points="1600.51,-219.175 1590.18,-221.54 1599.73,-226.132 1600.51,-219.175"/>
</g>
<!-- Node37 -->
<g id="node37" class="node"><title>Node37</title>
<g id="a_node37"><a xlink:href="../../d8/dd4/DataPoint_8hpp.html" target="_top" xlink:title="dataPoint stores kinematic information of a dalitz plot ">
<polygon fill="white" stroke="red" points="2124.5,-204.5 2124.5,-223.5 2227.5,-223.5 2227.5,-204.5 2124.5,-204.5"/>
<text text-anchor="middle" x="2176" y="-211.5" font-family="Helvetica,sans-Serif" font-size="10.00">Core/DataPoint.hpp</text>
</a>
</g>
</g>
<!-- Node36&#45;&gt;Node37 -->
<g id="edge75" class="edge"><title>Node36&#45;&gt;Node37</title>
<path fill="none" stroke="midnightblue" d="M2007.23,-266.403C2041.6,-255.933 2099.81,-238.205 2138.08,-226.55"/>
<polygon fill="midnightblue" stroke="midnightblue" points="2139.28,-229.842 2147.83,-223.581 2137.24,-223.146 2139.28,-229.842"/>
</g>
<!-- Node37&#45;&gt;Node5 -->
<g id="edge76" class="edge"><title>Node37&#45;&gt;Node5</title>
<path fill="none" stroke="midnightblue" d="M2205.12,-204.441C2222.64,-197.62 2243.52,-186.141 2254,-168 2261.11,-155.684 2258.74,-149.408 2254,-136 2241.04,-99.3553 2231.15,-89.8505 2199,-68 2158.66,-40.5835 2102.87,-27.3439 2068.13,-21.3817"/>
<polygon fill="midnightblue" stroke="midnightblue" points="2068.5,-17.8956 2058.07,-19.7574 2067.38,-24.8062 2068.5,-17.8956"/>
</g>
<!-- Node37&#45;&gt;Node27 -->
<g id="edge77" class="edge"><title>Node37&#45;&gt;Node27</title>
<path fill="none" stroke="midnightblue" d="M2199.3,-204.496C2222.85,-195.773 2260.22,-181.593 2292,-168 2293.63,-167.303 2295.3,-166.573 2296.98,-165.825"/>
<polygon fill="midnightblue" stroke="midnightblue" points="2298.86,-168.814 2306.49,-161.47 2295.94,-162.449 2298.86,-168.814"/>
</g>
<!-- Node38&#45;&gt;Node6 -->
<g id="edge79" class="edge"><title>Node38&#45;&gt;Node6</title>
<path fill="none" stroke="midnightblue" d="M1966.71,-333.523C1889.12,-327.631 1746.05,-314.122 1700,-292 1681.3,-283.014 1684.97,-268.41 1666,-260 1573.88,-219.162 1313.24,-241.476 1214,-224 1121.83,-207.767 1101.19,-192.989 1011,-168 959.873,-153.835 947.485,-148.803 896,-136 823.581,-117.991 802.842,-123.457 732,-100 699.142,-89.1199 694.255,-77.5968 661,-68 540.091,-33.1083 389.592,-21.7443 325.832,-18.3379"/>
<polygon fill="midnightblue" stroke="midnightblue" points="325.824,-14.8331 315.66,-17.8236 325.471,-21.8241 325.824,-14.8331"/>
</g>
<!-- Node38&#45;&gt;Node7 -->
<g id="edge81" class="edge"><title>Node38&#45;&gt;Node7</title>
<path fill="none" stroke="midnightblue" d="M2069.08,-328.569C2109.37,-321.15 2166.64,-308.889 2215,-292 2437.28,-214.367 2687.09,-75.1021 2764.12,-30.8769"/>
<polygon fill="midnightblue" stroke="midnightblue" points="2766.12,-33.7621 2773.04,-25.7362 2762.63,-27.6972 2766.12,-33.7621"/>
</g>
<!-- Node38&#45;&gt;Node17 -->
<g id="edge85" class="edge"><title>Node38&#45;&gt;Node17</title>
<path fill="none" stroke="midnightblue" d="M1985.5,-328.475C1916.18,-310.402 1755.63,-269.143 1700,-260 1520.81,-230.55 1470.99,-259.995 1293,-224 1223.34,-209.912 1144.77,-181.538 1102.63,-165.248"/>
<polygon fill="midnightblue" stroke="midnightblue" points="1103.81,-161.951 1093.22,-161.577 1101.27,-168.472 1103.81,-161.951"/>
</g>
<!-- Node38&#45;&gt;Node18 -->
<g id="edge80" class="edge"><title>Node38&#45;&gt;Node18</title>
<path fill="none" stroke="midnightblue" d="M2024.83,-328.258C2043.59,-303.936 2096.85,-232.984 2131,-168 2142.24,-146.606 2152.03,-120.497 2157.96,-103.344"/>
<polygon fill="midnightblue" stroke="midnightblue" points="2161.4,-104.099 2161.28,-93.5053 2154.77,-101.861 2161.4,-104.099"/>
</g>
<!-- Node38&#45;&gt;Node20 -->
<g id="edge84" class="edge"><title>Node38&#45;&gt;Node20</title>
<path fill="none" stroke="midnightblue" d="M2056.71,-328.448C2126.43,-310.972 2273.01,-264.403 2350,-168 2364.68,-149.62 2369.23,-122.247 2370.57,-104.023"/>
<polygon fill="midnightblue" stroke="midnightblue" points="2374.08,-103.942 2371.06,-93.7875 2367.09,-103.611 2374.08,-103.942"/>
</g>
<!-- Node38&#45;&gt;Node26 -->
<g id="edge83" class="edge"><title>Node38&#45;&gt;Node26</title>
<path fill="none" stroke="midnightblue" d="M1999.22,-328.474C1956.08,-308.911 1852.98,-262.297 1845,-260 1762.86,-236.352 1664.95,-224.851 1600.33,-219.453"/>
<polygon fill="midnightblue" stroke="midnightblue" points="1600.5,-215.955 1590.25,-218.638 1599.94,-222.933 1600.5,-215.955"/>
</g>
<!-- Node38&#45;&gt;Node36 -->
<g id="edge82" class="edge"><title>Node38&#45;&gt;Node36</title>
<path fill="none" stroke="midnightblue" d="M2012.41,-328.403C2006.62,-319.493 1997.41,-305.325 1990.13,-294.118"/>
<polygon fill="midnightblue" stroke="midnightblue" points="1992.96,-292.058 1984.58,-285.581 1987.09,-295.873 1992.96,-292.058"/>
</g>
<!-- Node39&#45;&gt;Node2 -->
<g id="edge89" class="edge"><title>Node39&#45;&gt;Node2</title>
<path fill="none" stroke="midnightblue" d="M425.193,-266.181C435.788,-237.102 469.69,-145.552 480,-136 517.425,-101.327 541.197,-117.824 589,-100 591.248,-99.1617 593.564,-98.2681 595.885,-97.3505"/>
<polygon fill="midnightblue" stroke="midnightblue" points="597.355,-100.531 605.301,-93.524 594.719,-94.0464 597.355,-100.531"/>
</g>
<!-- Node39&#45;&gt;Node3 -->
<g id="edge94" class="edge"><title>Node39&#45;&gt;Node3</title>
<path fill="none" stroke="midnightblue" d="M385.167,-266.363C362.98,-259.056 336.487,-246.12 323,-224 318.372,-216.411 320.527,-212.538 323,-204 332.948,-169.654 340.486,-161.053 366,-136 382.126,-120.165 404.055,-107.062 421.463,-98.104"/>
<polygon fill="midnightblue" stroke="midnightblue" points="423.206,-101.146 430.604,-93.5624 420.091,-94.8776 423.206,-101.146"/>
</g>
<!-- Node39&#45;&gt;Node4 -->
<g id="edge93" class="edge"><title>Node39&#45;&gt;Node4</title>
<path fill="none" stroke="midnightblue" d="M422.443,-266.34C422.938,-256.196 423.708,-238.884 424,-224 424.174,-215.113 426.23,-212.605 424,-204 419.409,-186.282 408.591,-185.718 404,-168 400.432,-154.232 395.719,-147.563 404,-136 417.481,-117.177 478.098,-101.056 518.027,-92.2227"/>
<polygon fill="midnightblue" stroke="midnightblue" points="518.903,-95.6145 527.94,-90.0846 517.427,-88.7718 518.903,-95.6145"/>
</g>
<!-- Node39&#45;&gt;Node5 -->
<g id="edge91" class="edge"><title>Node39&#45;&gt;Node5</title>
<path fill="none" stroke="midnightblue" d="M417.868,-266.216C402.92,-233.041 355.776,-114.885 419,-68 485.001,-19.0554 1781.83,-16.9774 2003.81,-16.981"/>
<polygon fill="midnightblue" stroke="midnightblue" points="2003.84,-20.4809 2013.84,-16.9827 2003.84,-13.4809 2003.84,-20.4809"/>
</g>
<!-- Node39&#45;&gt;Node6 -->
<g id="edge92" class="edge"><title>Node39&#45;&gt;Node6</title>
<path fill="none" stroke="midnightblue" d="M392.073,-266.449C369.106,-258.594 337.892,-244.952 317,-224 266.152,-173.005 281.133,-75.9803 290.27,-35.4801"/>
<polygon fill="midnightblue" stroke="midnightblue" points="293.701,-36.182 292.633,-25.6411 286.895,-34.5474 293.701,-36.182"/>
</g>
<!-- Node39&#45;&gt;Node26 -->
<g id="edge95" class="edge"><title>Node39&#45;&gt;Node26</title>
<path fill="none" stroke="midnightblue" d="M483.149,-271.689C673.779,-261.366 1256.6,-229.805 1459.48,-218.819"/>
<polygon fill="midnightblue" stroke="midnightblue" points="1459.92,-222.3 1469.72,-218.264 1459.54,-215.31 1459.92,-222.3"/>
</g>
<!-- Node40 -->
<g id="node40" class="node"><title>Node40</title>
<polygon fill="white" stroke="#bfbfbf" points="332,-204.5 332,-223.5 382,-223.5 382,-204.5 332,-204.5"/>
<text text-anchor="middle" x="357" y="-211.5" font-family="Helvetica,sans-Serif" font-size="10.00">iomanip</text>
</g>
<!-- Node39&#45;&gt;Node40 -->
<g id="edge90" class="edge"><title>Node39&#45;&gt;Node40</title>
<path fill="none" stroke="midnightblue" d="M412.687,-266.403C402.551,-257.047 386.136,-241.895 373.748,-230.46"/>
<polygon fill="midnightblue" stroke="midnightblue" points="376.018,-227.792 366.296,-223.581 371.27,-232.935 376.018,-227.792"/>
</g>
<!-- Node41&#45;&gt;Node5 -->
<g id="edge99" class="edge"><title>Node41&#45;&gt;Node5</title>
<path fill="none" stroke="midnightblue" d="M2210.64,-396.633C2266.22,-392.329 2348.25,-380.455 2412,-348 2444.51,-331.451 2456.24,-324.899 2472,-292 2488.92,-256.669 2482.05,-242.847 2477,-204 2468.93,-141.996 2488.06,-109.165 2441,-68 2426.94,-55.7016 2161.24,-29.0597 2068.01,-20.0491"/>
<polygon fill="midnightblue" stroke="midnightblue" points="2068.31,-16.5621 2058.02,-19.0877 2067.64,-23.5299 2068.31,-16.5621"/>
</g>
<!-- Node41&#45;&gt;Node6 -->
<g id="edge102" class="edge"><title>Node41&#45;&gt;Node6</title>
<path fill="none" stroke="midnightblue" d="M2085.43,-388.894C2071.81,-386.996 2057.44,-385.226 2044,-384 1631.18,-346.361 1519.22,-425.487 1112,-348 1085.63,-342.982 1081.34,-333.184 1055,-328 748.034,-267.591 658.024,-357.014 352,-292 258.83,-272.206 152,-310.249 152,-215 152,-215 152,-215 152,-151 152,-89.6076 223.046,-48.1863 264.984,-29.084"/>
<polygon fill="midnightblue" stroke="midnightblue" points="266.462,-32.2574 274.207,-25.0274 263.644,-25.8498 266.462,-32.2574"/>
</g>
<!-- Node41&#45;&gt;Node7 -->
<g id="edge101" class="edge"><title>Node41&#45;&gt;Node7</title>
<path fill="none" stroke="midnightblue" d="M2210.91,-399.319C2314.75,-398.495 2527.84,-391.083 2702,-348 2778.31,-329.123 2864,-355.611 2864,-277 2864,-277 2864,-277 2864,-151 2864,-112.6 2859.69,-100.97 2840,-68 2831.73,-54.1575 2818.8,-41.4529 2807.9,-32.1863"/>
<polygon fill="midnightblue" stroke="midnightblue" points="2810.04,-29.4118 2800.08,-25.8083 2805.62,-34.8385 2810.04,-29.4118"/>
</g>
<!-- Node41&#45;&gt;Node11 -->
<g id="edge119" class="edge"><title>Node41&#45;&gt;Node11</title>
<path fill="none" stroke="midnightblue" d="M2085.43,-388.882C2071.81,-386.985 2057.44,-385.218 2044,-384 1617.89,-345.407 1509.13,-372.842 1082,-348 1054.97,-346.428 1024.38,-343.976 1001.7,-342.028"/>
<polygon fill="midnightblue" stroke="midnightblue" points="1001.83,-338.526 991.561,-341.146 1001.22,-345.5 1001.83,-338.526"/>
</g>
<!-- Node41&#45;&gt;Node14 -->
<g id="edge104" class="edge"><title>Node41&#45;&gt;Node14</title>
<path fill="none" stroke="midnightblue" d="M2085.41,-389.129C2071.78,-387.217 2057.43,-385.381 2044,-384 1783.68,-357.235 1124.2,-354.142 870,-292 808.849,-277.051 741.501,-246.003 705.709,-228.237"/>
<polygon fill="midnightblue" stroke="midnightblue" points="706.989,-224.964 696.482,-223.603 703.848,-231.219 706.989,-224.964"/>
</g>
<!-- Node41&#45;&gt;Node27 -->
<g id="edge100" class="edge"><title>Node41&#45;&gt;Node27</title>
<path fill="none" stroke="midnightblue" d="M2206.76,-384.903C2253.58,-370.236 2316.08,-342.172 2346,-292 2369.07,-253.312 2347.5,-198.258 2333.62,-170.475"/>
<polygon fill="midnightblue" stroke="midnightblue" points="2336.69,-168.791 2328.96,-161.554 2330.49,-172.037 2336.69,-168.791"/>
</g>
<!-- Node41&#45;&gt;Node37 -->
<g id="edge105" class="edge"><title>Node41&#45;&gt;Node37</title>
<path fill="none" stroke="midnightblue" d="M2150.15,-384.867C2155.14,-352.074 2167.51,-270.798 2173.13,-233.836"/>
<polygon fill="midnightblue" stroke="midnightblue" points="2176.6,-234.304 2174.65,-223.891 2169.68,-233.251 2176.6,-234.304"/>
</g>
<!-- Node42 -->
<g id="node42" class="node"><title>Node42</title>
<polygon fill="white" stroke="#bfbfbf" points="2550,-328.5 2550,-347.5 2590,-347.5 2590,-328.5 2550,-328.5"/>
<text text-anchor="middle" x="2570" y="-335.5" font-family="Helvetica,sans-Serif" font-size="10.00">utility</text>
</g>
<!-- Node41&#45;&gt;Node42 -->
<g id="edge103" class="edge"><title>Node41&#45;&gt;Node42</title>
<path fill="none" stroke="midnightblue" d="M2210.56,-393.268C2287.58,-385.64 2422.18,-370.448 2536,-348 2537.28,-347.747 2538.58,-347.474 2539.9,-347.186"/>
<polygon fill="midnightblue" stroke="midnightblue" points="2541.06,-350.506 2549.96,-344.759 2539.42,-343.701 2541.06,-350.506"/>
</g>
<!-- Node43 -->
<g id="node43" class="node"><title>Node43</title>
<g id="a_node43"><a xlink:href="../../d2/d4b/Data_8hpp.html" target="_top" xlink:title="Contains Data interface class. ">
<polygon fill="white" stroke="red" points="1470,-328.5 1470,-347.5 1582,-347.5 1582,-328.5 1470,-328.5"/>
<text text-anchor="middle" x="1526" y="-335.5" font-family="Helvetica,sans-Serif" font-size="10.00">DataReader/Data.hpp</text>
</a>
</g>
</g>
<!-- Node41&#45;&gt;Node43 -->
<g id="edge106" class="edge"><title>Node41&#45;&gt;Node43</title>
<path fill="none" stroke="midnightblue" d="M2085.38,-389.383C2071.76,-387.455 2057.41,-385.548 2044,-384 1882.04,-365.301 1690.78,-350.588 1592.18,-343.544"/>
<polygon fill="midnightblue" stroke="midnightblue" points="1592.28,-340.043 1582.06,-342.826 1591.79,-347.026 1592.28,-340.043"/>
</g>
<!-- Node44 -->
<g id="node44" class="node"><title>Node44</title>
<g id="a_node44"><a xlink:href="../../d2/dee/DataCorrection_8hpp.html" target="_top" xlink:title="DataReader/DataCorrection.hpp">
<polygon fill="white" stroke="red" points="1500.5,-266.5 1500.5,-285.5 1657.5,-285.5 1657.5,-266.5 1500.5,-266.5"/>
<text text-anchor="middle" x="1579" y="-273.5" font-family="Helvetica,sans-Serif" font-size="10.00">DataReader/DataCorrection.hpp</text>
</a>
</g>
</g>
<!-- Node41&#45;&gt;Node44 -->
<g id="edge118" class="edge"><title>Node41&#45;&gt;Node44</title>
<path fill="none" stroke="midnightblue" d="M2085.48,-385.595C1971.63,-361.184 1732.68,-309.95 1628.89,-287.697"/>
<polygon fill="midnightblue" stroke="midnightblue" points="1629.49,-284.247 1618.98,-285.572 1628.03,-291.091 1629.49,-284.247"/>
</g>
<!-- Node45 -->
<g id="node45" class="node"><title>Node45</title>
<polygon fill="white" stroke="#bfbfbf" points="2608.5,-328.5 2608.5,-347.5 2693.5,-347.5 2693.5,-328.5 2608.5,-328.5"/>
<text text-anchor="middle" x="2651" y="-335.5" font-family="Helvetica,sans-Serif" font-size="10.00">TClonesArray.h</text>
</g>
<!-- Node41&#45;&gt;Node45 -->
<g id="edge120" class="edge"><title>Node41&#45;&gt;Node45</title>
<path fill="none" stroke="midnightblue" d="M2210.52,-393.102C2295.77,-384.8 2453.45,-368.518 2598.49,-347.993"/>
<polygon fill="midnightblue" stroke="midnightblue" points="2599.06,-351.447 2608.47,-346.571 2598.07,-344.517 2599.06,-351.447"/>
</g>
<!-- Node43&#45;&gt;Node5 -->
<g id="edge107" class="edge"><title>Node43&#45;&gt;Node5</title>
<path fill="none" stroke="midnightblue" d="M1582.13,-331.497C1659.28,-321.51 1799.39,-294.443 1895,-224 1965.05,-172.384 2011.75,-74.9745 2028.79,-34.9065"/>
<polygon fill="midnightblue" stroke="midnightblue" points="2032.05,-36.1901 2032.65,-25.6121 2025.58,-33.5081 2032.05,-36.1901"/>
</g>
<!-- Node43&#45;&gt;Node6 -->
<g id="edge108" class="edge"><title>Node43&#45;&gt;Node6</title>
<path fill="none" stroke="midnightblue" d="M1469.93,-335.491C1239.61,-329.214 377.158,-304.891 352,-292 294.883,-262.733 289.451,-231.149 278,-168 270.07,-124.269 270.881,-111.871 278,-68 279.803,-56.8887 283.681,-44.927 287.278,-35.3825"/>
<polygon fill="midnightblue" stroke="midnightblue" points="290.643,-36.3929 291.094,-25.8077 284.14,-33.801 290.643,-36.3929"/>
</g>
<!-- Node43&#45;&gt;Node7 -->
<g id="edge109" class="edge"><title>Node43&#45;&gt;Node7</title>
<path fill="none" stroke="midnightblue" d="M1582.16,-334.695C1704.77,-329.307 1993.02,-314.606 2088,-292 2344.37,-230.986 2390.05,-159.985 2637,-68 2676.02,-53.4654 2721.35,-38.3954 2752.08,-28.442"/>
<polygon fill="midnightblue" stroke="midnightblue" points="2753.47,-31.6713 2761.91,-25.2708 2751.32,-25.0092 2753.47,-31.6713"/>
</g>
<!-- Node43&#45;&gt;Node14 -->
<g id="edge110" class="edge"><title>Node43&#45;&gt;Node14</title>
<path fill="none" stroke="midnightblue" d="M1469.71,-333.858C1379.5,-328.349 1197.1,-315.26 1044,-292 927.376,-274.281 791.903,-242.657 723.825,-225.984"/>
<polygon fill="midnightblue" stroke="midnightblue" points="724.432,-222.529 713.885,-223.538 722.76,-229.326 724.432,-222.529"/>
</g>
<!-- Node43&#45;&gt;Node26 -->
<g id="edge112" class="edge"><title>Node43&#45;&gt;Node26</title>
<path fill="none" stroke="midnightblue" d="M1516.44,-328.45C1507.91,-320.12 1496.01,-306.604 1491,-292 1486.38,-278.548 1486.03,-273.325 1491,-260 1495.17,-248.812 1503.52,-238.56 1511.42,-230.676"/>
<polygon fill="midnightblue" stroke="midnightblue" points="1514.06,-233.003 1519.01,-223.635 1509.3,-227.872 1514.06,-233.003"/>
</g>
<!-- Node43&#45;&gt;Node34 -->
<g id="edge111" class="edge"><title>Node43&#45;&gt;Node34</title>
<path fill="none" stroke="midnightblue" d="M1489.06,-328.445C1411.5,-310.341 1226.1,-266.331 1072,-224 1000.89,-204.466 918.558,-179.052 872.347,-164.53"/>
<polygon fill="midnightblue" stroke="midnightblue" points="873.366,-161.182 862.777,-161.516 871.263,-167.859 873.366,-161.182"/>
</g>
<!-- Node43&#45;&gt;Node37 -->
<g id="edge113" class="edge"><title>Node43&#45;&gt;Node37</title>
<path fill="none" stroke="midnightblue" d="M1582.1,-335.03C1696.73,-330.523 1954.1,-317.799 2038,-292 2083.51,-278.007 2130.73,-247.602 2156.43,-229.465"/>
<polygon fill="midnightblue" stroke="midnightblue" points="2158.51,-232.285 2164.59,-223.609 2154.43,-226.599 2158.51,-232.285"/>
</g>
<!-- Node43&#45;&gt;Node44 -->
<g id="edge114" class="edge"><title>Node43&#45;&gt;Node44</title>
<path fill="none" stroke="midnightblue" d="M1533.59,-328.403C1541.7,-319.225 1554.73,-304.47 1564.76,-293.117"/>
<polygon fill="midnightblue" stroke="midnightblue" points="1567.42,-295.392 1571.42,-285.581 1562.18,-290.758 1567.42,-295.392"/>
</g>
<!-- Node44&#45;&gt;Node14 -->
<g id="edge116" class="edge"><title>Node44&#45;&gt;Node14</title>
<path fill="none" stroke="midnightblue" d="M1500.4,-269.754C1320.96,-257.778 884.946,-228.678 733.155,-218.548"/>
<polygon fill="midnightblue" stroke="midnightblue" points="732.936,-215.025 722.725,-217.851 732.47,-222.01 732.936,-215.025"/>
</g>
<!-- Node44&#45;&gt;Node16 -->
<g id="edge115" class="edge"><title>Node44&#45;&gt;Node16</title>
<path fill="none" stroke="midnightblue" d="M1619.56,-266.479C1699.37,-248.055 1863.86,-200.88 1802,-136 1744.05,-75.2164 1129.11,-117.655 1047,-100 1043.57,-99.2619 1040.04,-98.2485 1036.59,-97.0937"/>
<polygon fill="midnightblue" stroke="midnightblue" points="1037.77,-93.7987 1027.18,-93.5765 1035.32,-100.356 1037.77,-93.7987"/>
</g>
<!-- Node44&#45;&gt;Node25 -->
<g id="edge117" class="edge"><title>Node44&#45;&gt;Node25</title>
<path fill="none" stroke="midnightblue" d="M1657.79,-272.468C1735.61,-268.11 1846.84,-256.255 1874,-224 1899.19,-194.081 1900.95,-164.343 1874,-136 1819.19,-78.3563 1237.58,-112.36 1159,-100 1152.95,-99.0482 1146.61,-97.7013 1140.46,-96.2008"/>
<polygon fill="midnightblue" stroke="midnightblue" points="1140.94,-92.7084 1130.38,-93.5733 1139.17,-99.4822 1140.94,-92.7084"/>
</g>
<!-- Node46&#45;&gt;Node5 -->
<g id="edge122" class="edge"><title>Node46&#45;&gt;Node5</title>
<path fill="none" stroke="midnightblue" d="M1241.75,-458.403C1167.94,-444.58 1032.62,-412.198 935,-348 845.568,-289.189 813.039,-268.049 775,-168 756.897,-120.386 785.403,-90.7093 831,-68 938.566,-14.4271 1822.17,-15.9245 2003.54,-16.8053"/>
<polygon fill="midnightblue" stroke="midnightblue" points="2003.74,-20.3063 2013.76,-16.858 2003.78,-13.3064 2003.74,-20.3063"/>
</g>
<!-- Node46&#45;&gt;Node6 -->
<g id="edge124" class="edge"><title>Node46&#45;&gt;Node6</title>
<path fill="none" stroke="midnightblue" d="M1241.95,-460.504C1166.86,-451.209 1025.31,-433.317 905,-416 513.482,-359.645 38,-610.553 38,-215 38,-215 38,-215 38,-151 38,-49.9801 196.054,-24.9938 264.265,-18.9142"/>
<polygon fill="midnightblue" stroke="midnightblue" points="264.719,-22.389 274.403,-18.0921 264.153,-15.4119 264.719,-22.389"/>
</g>
<!-- Node46&#45;&gt;Node7 -->
<g id="edge123" class="edge"><title>Node46&#45;&gt;Node7</title>
<path fill="none" stroke="midnightblue" d="M1348.07,-457.978C1363.19,-455.696 1379.71,-453.477 1395,-452 1702.66,-422.288 2489.23,-447.111 2782,-348 2840.7,-328.129 2902,-338.969 2902,-277 2902,-277 2902,-277 2902,-151 2902,-110.051 2888.64,-99.1017 2862,-68 2848.8,-52.5924 2829.92,-39.6803 2814.54,-30.7031"/>
<polygon fill="midnightblue" stroke="midnightblue" points="2815.93,-27.469 2805.49,-25.6348 2812.51,-33.5759 2815.93,-27.469"/>
</g>
<!-- Node46&#45;&gt;Node14 -->
<g id="edge126" class="edge"><title>Node46&#45;&gt;Node14</title>
<path fill="none" stroke="midnightblue" d="M1241.86,-464.562C1177.63,-460.242 1067.06,-448.376 978,-416 858.135,-372.426 739.727,-270.319 696.845,-230.909"/>
<polygon fill="midnightblue" stroke="midnightblue" points="699.006,-228.14 689.297,-223.899 694.243,-233.269 699.006,-228.14"/>
</g>
<!-- Node46&#45;&gt;Node26 -->
<g id="edge127" class="edge"><title>Node46&#45;&gt;Node26</title>
<path fill="none" stroke="midnightblue" d="M1295.2,-452.801C1296.54,-415.464 1305.45,-313.722 1362,-260 1388.09,-235.217 1426.29,-223.756 1459.68,-218.584"/>
<polygon fill="midnightblue" stroke="midnightblue" points="1460.45,-222.012 1469.87,-217.173 1459.48,-215.078 1460.45,-222.012"/>
</g>
<!-- Node46&#45;&gt;Node35 -->
<g id="edge128" class="edge"><title>Node46&#45;&gt;Node35</title>
<path fill="none" stroke="midnightblue" d="M1348.11,-458.411C1363.24,-456.134 1379.75,-453.81 1395,-452 1580.71,-429.97 1800.75,-413.254 1909.76,-405.6"/>
<polygon fill="midnightblue" stroke="midnightblue" points="1910.22,-409.076 1919.95,-404.887 1909.73,-402.093 1910.22,-409.076"/>
</g>
<!-- Node46&#45;&gt;Node43 -->
<g id="edge125" class="edge"><title>Node46&#45;&gt;Node43</title>
<path fill="none" stroke="midnightblue" d="M1320.6,-452.813C1365.47,-427.95 1457.71,-376.839 1501.67,-352.482"/>
<polygon fill="midnightblue" stroke="midnightblue" points="1503.48,-355.482 1510.53,-347.574 1500.08,-349.359 1503.48,-355.482"/>
</g>
<!-- Node47&#45;&gt;Node5 -->
<g id="edge130" class="edge"><title>Node47&#45;&gt;Node5</title>
<path fill="none" stroke="midnightblue" d="M2727.54,-260.958C2725.44,-222.646 2713.86,-115.983 2650,-68 2609.1,-37.2711 2241.96,-36.464 2191,-32 2148.6,-28.2858 2099.73,-23.4668 2068.38,-20.3066"/>
<polygon fill="midnightblue" stroke="midnightblue" points="2068.36,-16.7872 2058.06,-19.2626 2067.66,-23.7517 2068.36,-16.7872"/>
</g>
<!-- Node47&#45;&gt;Node7 -->
<g id="edge131" class="edge"><title>Node47&#45;&gt;Node7</title>
<path fill="none" stroke="midnightblue" d="M2740.85,-260.963C2748.91,-251.301 2758.74,-237.768 2764,-224 2789.06,-158.438 2789.92,-73.3645 2788.87,-36.0049"/>
<polygon fill="midnightblue" stroke="midnightblue" points="2792.35,-35.5018 2788.49,-25.6369 2785.36,-35.7586 2792.35,-35.5018"/>
</g>
<!-- Node47&#45;&gt;Node21 -->
<g id="edge132" class="edge"><title>Node47&#45;&gt;Node21</title>
<path fill="none" stroke="midnightblue" d="M2730.08,-260.78C2734.66,-223.394 2741.35,-121.54 2688,-68 2680.1,-60.0682 2533.27,-34.5163 2464.27,-22.8758"/>
<polygon fill="midnightblue" stroke="midnightblue" points="2464.73,-19.4042 2454.29,-21.1973 2463.57,-26.3073 2464.73,-19.4042"/>
</g>
<!-- Node47&#45;&gt;Node23 -->
<g id="edge133" class="edge"><title>Node47&#45;&gt;Node23</title>
<path fill="none" stroke="midnightblue" d="M2732.91,-260.75C2744.42,-224.575 2769,-127.823 2726,-68 2705.73,-39.7962 2668.73,-27.0582 2636.93,-21.3652"/>
<polygon fill="midnightblue" stroke="midnightblue" points="2637.24,-17.8706 2626.81,-19.7537 2636.14,-24.7835 2637.24,-17.8706"/>
</g>
<!-- Node47&#45;&gt;Node26 -->
<g id="edge134" class="edge"><title>Node47&#45;&gt;Node26</title>
<path fill="none" stroke="midnightblue" d="M2666.94,-271.942C2464.51,-261.804 1816.07,-229.327 1600.46,-218.529"/>
<polygon fill="midnightblue" stroke="midnightblue" points="1600.38,-215.021 1590.22,-218.016 1600.03,-222.012 1600.38,-215.021"/>
</g>
</g>
</svg>
