<?xml version="1.0" encoding="UTF-8" standalone="no"?>
<!DOCTYPE svg PUBLIC "-//W3C//DTD SVG 1.1//EN"
 "http://www.w3.org/Graphics/SVG/1.1/DTD/svg11.dtd">
<!-- Generated by graphviz version 2.36.0 (20140111.2315)
 -->
<!-- Title: /home/travis/build/ComPWA/ComPWA/executables/PolyFit.cpp Pages: 1 -->
<svg width="1411pt" height="218pt"
 viewBox="0.00 0.00 1411.00 218.00" xmlns="http://www.w3.org/2000/svg" xmlns:xlink="http://www.w3.org/1999/xlink">
<g id="graph0" class="graph" transform="scale(1 1) rotate(0) translate(4 214)">
<title>/home/travis/build/ComPWA/ComPWA/executables/PolyFit.cpp</title>
<polygon fill="white" stroke="none" points="-4,4 -4,-214 1407,-214 1407,4 -4,4"/>
<!-- Node1 -->
<g id="node1" class="node"><title>Node1</title>
<polygon fill="#bfbfbf" stroke="black" points="793.5,-168.5 793.5,-209.5 960.5,-209.5 960.5,-168.5 793.5,-168.5"/>
<text text-anchor="start" x="801.5" y="-197.5" font-family="Helvetica,sans-Serif" font-size="10.00">/home/travis/build</text>
<text text-anchor="start" x="801.5" y="-186.5" font-family="Helvetica,sans-Serif" font-size="10.00">/ComPWA/ComPWA/executables</text>
<text text-anchor="middle" x="877" y="-175.5" font-family="Helvetica,sans-Serif" font-size="10.00">/PolyFit.cpp</text>
</g>
<!-- Node2 -->
<g id="node2" class="node"><title>Node2</title>
<polygon fill="white" stroke="#bfbfbf" points="0,-112.5 0,-131.5 52,-131.5 52,-112.5 0,-112.5"/>
<text text-anchor="middle" x="26" y="-119.5" font-family="Helvetica,sans-Serif" font-size="10.00">getopt.h</text>
</g>
<!-- Node1&#45;&gt;Node2 -->
<g id="edge1" class="edge"><title>Node1&#45;&gt;Node2</title>
<path fill="none" stroke="midnightblue" d="M793.369,-186.42C645.78,-182.699 329.764,-170.551 66,-132 64.7322,-131.815 63.445,-131.611 62.1472,-131.392"/>
<polygon fill="midnightblue" stroke="midnightblue" points="62.6223,-127.92 52.1433,-129.482 61.3093,-134.796 62.6223,-127.92"/>
</g>
<!-- Node3 -->
<g id="node3" class="node"><title>Node3</title>
<polygon fill="white" stroke="#bfbfbf" points="146,-56.5 146,-75.5 196,-75.5 196,-56.5 146,-56.5"/>
<text text-anchor="middle" x="171" y="-63.5" font-family="Helvetica,sans-Serif" font-size="10.00">fstream</text>
</g>
<!-- Node1&#45;&gt;Node3 -->
<g id="edge2" class="edge"><title>Node1&#45;&gt;Node3</title>
<path fill="none" stroke="midnightblue" d="M793.367,-179.334C707.582,-169.888 570.452,-153.243 453,-132 363.313,-115.779 259.13,-89.9079 206.031,-76.2084"/>
<polygon fill="midnightblue" stroke="midnightblue" points="206.67,-72.7584 196.112,-73.6372 204.914,-79.5345 206.67,-72.7584"/>
</g>
<!-- Node4 -->
<g id="node4" class="node"><title>Node4</title>
<polygon fill="white" stroke="#bfbfbf" points="292,-0.5 292,-19.5 344,-19.5 344,-0.5 292,-0.5"/>
<text text-anchor="middle" x="318" y="-7.5" font-family="Helvetica,sans-Serif" font-size="10.00">sstream</text>
</g>
<!-- Node1&#45;&gt;Node4 -->
<g id="edge3" class="edge"><title>Node1&#45;&gt;Node4</title>
<path fill="none" stroke="midnightblue" d="M793.371,-181.744C608.241,-167.007 176.944,-127.443 137,-76 131.548,-68.9791 131.525,-63.0027 137,-56 145.961,-44.5389 231.542,-26.9922 281.75,-17.5528"/>
<polygon fill="midnightblue" stroke="midnightblue" points="282.696,-20.937 291.887,-15.6666 281.415,-14.0551 282.696,-20.937"/>
</g>
<!-- Node5 -->
<g id="node5" class="node"><title>Node5</title>
<polygon fill="white" stroke="#bfbfbf" points="197,-0.5 197,-19.5 251,-19.5 251,-0.5 197,-0.5"/>
<text text-anchor="middle" x="224" y="-7.5" font-family="Helvetica,sans-Serif" font-size="10.00">iostream</text>
</g>
<!-- Node1&#45;&gt;Node5 -->
<g id="edge4" class="edge"><title>Node1&#45;&gt;Node5</title>
<path fill="none" stroke="midnightblue" d="M793.261,-185.095C642.856,-179.158 333.048,-163.459 230,-132 176.27,-115.597 98.9589,-103.471 129,-56 141.664,-35.9885 165.899,-24.702 186.72,-18.437"/>
<polygon fill="midnightblue" stroke="midnightblue" points="187.872,-21.7511 196.602,-15.7487 186.034,-14.9966 187.872,-21.7511"/>
</g>
<!-- Node6 -->
<g id="node6" class="node"><title>Node6</title>
<polygon fill="white" stroke="#bfbfbf" points="754.5,-0.5 754.5,-19.5 795.5,-19.5 795.5,-0.5 754.5,-0.5"/>
<text text-anchor="middle" x="775" y="-7.5" font-family="Helvetica,sans-Serif" font-size="10.00">string</text>
</g>
<!-- Node1&#45;&gt;Node6 -->
<g id="edge5" class="edge"><title>Node1&#45;&gt;Node6</title>
<path fill="none" stroke="midnightblue" d="M865.694,-168.382C845.67,-133.633 804.278,-61.8065 785.128,-28.5744"/>
<polygon fill="midnightblue" stroke="midnightblue" points="787.972,-26.5005 779.947,-19.5838 781.907,-29.9957 787.972,-26.5005"/>
</g>
<!-- Node7 -->
<g id="node7" class="node"><title>Node7</title>
<polygon fill="white" stroke="#bfbfbf" points="825,-0.5 825,-19.5 877,-19.5 877,-0.5 825,-0.5"/>
<text text-anchor="middle" x="851" y="-7.5" font-family="Helvetica,sans-Serif" font-size="10.00">memory</text>
</g>
<!-- Node1&#45;&gt;Node7 -->
<g id="edge6" class="edge"><title>Node1&#45;&gt;Node7</title>
<path fill="none" stroke="midnightblue" d="M874.118,-168.382C869.08,-134.082 858.735,-63.6579 853.774,-29.8828"/>
<polygon fill="midnightblue" stroke="midnightblue" points="857.177,-28.9689 852.261,-19.5838 850.251,-29.9863 857.177,-28.9689"/>
</g>
<!-- Node8 -->
<g id="node8" class="node"><title>Node8</title>
<g id="a_node8"><a xlink:href="../../d2/dcb/PolyFit_8hpp.html" target="_top" xlink:title="This class derives from ControlParameter, the data&#45;interface of the optimizers. ">
<polygon fill="white" stroke="black" points="462,-112.5 462,-131.5 528,-131.5 528,-112.5 462,-112.5"/>
<text text-anchor="middle" x="495" y="-119.5" font-family="Helvetica,sans-Serif" font-size="10.00">PolyFit.hpp</text>
</a>
</g>
</g>
<!-- Node1&#45;&gt;Node8 -->
<g id="edge7" class="edge"><title>Node1&#45;&gt;Node8</title>
<path fill="none" stroke="midnightblue" d="M793.168,-173.735C714.483,-160.347 599.919,-140.853 538.217,-130.354"/>
<polygon fill="midnightblue" stroke="midnightblue" points="538.502,-126.852 528.056,-128.625 537.328,-133.753 538.502,-126.852"/>
</g>
<!-- Node15 -->
<g id="node15" class="node"><title>Node15</title>
<polygon fill="white" stroke="#bfbfbf" points="879.5,-112.5 879.5,-131.5 926.5,-131.5 926.5,-112.5 879.5,-112.5"/>
<text text-anchor="middle" x="903" y="-119.5" font-family="Helvetica,sans-Serif" font-size="10.00">TFile.h</text>
</g>
<!-- Node1&#45;&gt;Node15 -->
<g id="edge24" class="edge"><title>Node1&#45;&gt;Node15</title>
<path fill="none" stroke="midnightblue" d="M884.801,-168.498C888.289,-159.778 892.375,-149.563 895.79,-141.024"/>
<polygon fill="midnightblue" stroke="midnightblue" points="899.075,-142.237 899.539,-131.652 892.575,-139.637 899.075,-142.237"/>
</g>
<!-- Node16 -->
<g id="node16" class="node"><title>Node16</title>
<polygon fill="white" stroke="#bfbfbf" points="944.5,-112.5 944.5,-131.5 997.5,-131.5 997.5,-112.5 944.5,-112.5"/>
<text text-anchor="middle" x="971" y="-119.5" font-family="Helvetica,sans-Serif" font-size="10.00">TMath.h</text>
</g>
<!-- Node1&#45;&gt;Node16 -->
<g id="edge25" class="edge"><title>Node1&#45;&gt;Node16</title>
<path fill="none" stroke="midnightblue" d="M905.203,-168.498C919.615,-158.532 936.85,-146.614 950.065,-137.476"/>
<polygon fill="midnightblue" stroke="midnightblue" points="952.253,-140.219 958.487,-131.652 948.271,-134.461 952.253,-140.219"/>
</g>
<!-- Node17 -->
<g id="node17" class="node"><title>Node17</title>
<polygon fill="white" stroke="#bfbfbf" points="1015.5,-112.5 1015.5,-131.5 1072.5,-131.5 1072.5,-112.5 1015.5,-112.5"/>
<text text-anchor="middle" x="1044" y="-119.5" font-family="Helvetica,sans-Serif" font-size="10.00">TGraph.h</text>
</g>
<!-- Node1&#45;&gt;Node17 -->
<g id="edge26" class="edge"><title>Node1&#45;&gt;Node17</title>
<path fill="none" stroke="midnightblue" d="M927.106,-168.498C954.802,-157.718 988.368,-144.653 1012.41,-135.294"/>
<polygon fill="midnightblue" stroke="midnightblue" points="1013.72,-138.541 1021.77,-131.652 1011.18,-132.018 1013.72,-138.541"/>
</g>
<!-- Node18 -->
<g id="node18" class="node"><title>Node18</title>
<polygon fill="white" stroke="#bfbfbf" points="1090.5,-112.5 1090.5,-131.5 1155.5,-131.5 1155.5,-112.5 1090.5,-112.5"/>
<text text-anchor="middle" x="1123" y="-119.5" font-family="Helvetica,sans-Serif" font-size="10.00">TCanvas.h</text>
</g>
<!-- Node1&#45;&gt;Node18 -->
<g id="edge27" class="edge"><title>Node1&#45;&gt;Node18</title>
<path fill="none" stroke="midnightblue" d="M950.808,-168.498C993.187,-157.3 1044.89,-143.638 1080.52,-134.224"/>
<polygon fill="midnightblue" stroke="midnightblue" points="1081.8,-137.506 1090.58,-131.567 1080.01,-130.738 1081.8,-137.506"/>
</g>
<!-- Node19 -->
<g id="node19" class="node"><title>Node19</title>
<polygon fill="white" stroke="#bfbfbf" points="1174,-112.5 1174,-131.5 1242,-131.5 1242,-112.5 1174,-112.5"/>
<text text-anchor="middle" x="1208" y="-119.5" font-family="Helvetica,sans-Serif" font-size="10.00">TRandom.h</text>
</g>
<!-- Node1&#45;&gt;Node19 -->
<g id="edge28" class="edge"><title>Node1&#45;&gt;Node19</title>
<path fill="none" stroke="midnightblue" d="M960.554,-171.904C1017.83,-160.818 1095.55,-145.678 1164,-132 1164.1,-131.98 1164.2,-131.96 1164.3,-131.94"/>
<polygon fill="midnightblue" stroke="midnightblue" points="1164.78,-135.413 1173.9,-130.007 1163.4,-128.551 1164.78,-135.413"/>
</g>
<!-- Node20 -->
<g id="node20" class="node"><title>Node20</title>
<polygon fill="white" stroke="#bfbfbf" points="1260,-112.5 1260,-131.5 1302,-131.5 1302,-112.5 1260,-112.5"/>
<text text-anchor="middle" x="1281" y="-119.5" font-family="Helvetica,sans-Serif" font-size="10.00">TF1.h</text>
</g>
<!-- Node1&#45;&gt;Node20 -->
<g id="edge29" class="edge"><title>Node1&#45;&gt;Node20</title>
<path fill="none" stroke="midnightblue" d="M960.815,-178.924C1034.72,-170.126 1145.38,-155.018 1250.01,-131.954"/>
<polygon fill="midnightblue" stroke="midnightblue" points="1250.8,-135.365 1259.79,-129.77 1249.27,-128.533 1250.8,-135.365"/>
</g>
<!-- Node21 -->
<g id="node21" class="node"><title>Node21</title>
<polygon fill="white" stroke="#bfbfbf" points="1320.5,-112.5 1320.5,-131.5 1403.5,-131.5 1403.5,-112.5 1320.5,-112.5"/>
<text text-anchor="middle" x="1362" y="-119.5" font-family="Helvetica,sans-Serif" font-size="10.00">TGraphErrors.h</text>
</g>
<!-- Node1&#45;&gt;Node21 -->
<g id="edge30" class="edge"><title>Node1&#45;&gt;Node21</title>
<path fill="none" stroke="midnightblue" d="M960.561,-178.268C1047.87,-167.847 1188.77,-150.322 1310,-132 1310.1,-131.984 1310.21,-131.968 1310.31,-131.952"/>
<polygon fill="midnightblue" stroke="midnightblue" points="1310.97,-135.392 1320.3,-130.378 1309.88,-128.478 1310.97,-135.392"/>
</g>
<!-- Node8&#45;&gt;Node3 -->
<g id="edge9" class="edge"><title>Node8&#45;&gt;Node3</title>
<path fill="none" stroke="midnightblue" d="M461.955,-116.551C408.712,-109.21 300.727,-93.6086 210,-76 208.734,-75.7542 207.446,-75.4968 206.147,-75.2307"/>
<polygon fill="midnightblue" stroke="midnightblue" points="206.633,-71.7552 196.12,-73.0699 205.158,-78.5981 206.633,-71.7552"/>
</g>
<!-- Node8&#45;&gt;Node5 -->
<g id="edge8" class="edge"><title>Node8&#45;&gt;Node5</title>
<path fill="none" stroke="midnightblue" d="M461.578,-119.313C400.624,-115.563 274.748,-104.501 243,-76 230.033,-64.3589 225.712,-44.4086 224.372,-29.6731"/>
<polygon fill="midnightblue" stroke="midnightblue" points="227.865,-29.4437 223.835,-19.6453 220.875,-29.8182 227.865,-29.4437"/>
</g>
<!-- Node8&#45;&gt;Node6 -->
<g id="edge10" class="edge"><title>Node8&#45;&gt;Node6</title>
<path fill="none" stroke="midnightblue" d="M528.013,-118.118C585.685,-112.552 701.812,-98.8145 735,-76 751.343,-64.7653 762.249,-44.449 768.489,-29.5106"/>
<polygon fill="midnightblue" stroke="midnightblue" points="771.904,-30.3805 772.219,-19.7904 765.368,-27.8726 771.904,-30.3805"/>
</g>
<!-- Node8&#45;&gt;Node7 -->
<g id="edge14" class="edge"><title>Node8&#45;&gt;Node7</title>
<path fill="none" stroke="midnightblue" d="M528.398,-120.017C579.803,-117.482 680.583,-108.414 759,-76 788.044,-63.9945 816.878,-41.4475 834.32,-26.3248"/>
<polygon fill="midnightblue" stroke="midnightblue" points="836.766,-28.8337 841.918,-19.576 832.117,-23.6 836.766,-28.8337"/>
</g>
<!-- Node9 -->
<g id="node9" class="node"><title>Node9</title>
<polygon fill="white" stroke="#bfbfbf" points="400,-0.5 400,-19.5 444,-19.5 444,-0.5 400,-0.5"/>
<text text-anchor="middle" x="422" y="-7.5" font-family="Helvetica,sans-Serif" font-size="10.00">vector</text>
</g>
<!-- Node8&#45;&gt;Node9 -->
<g id="edge11" class="edge"><title>Node8&#45;&gt;Node9</title>
<path fill="none" stroke="midnightblue" d="M471.88,-112.466C456.047,-105.309 436.145,-93.4274 426,-76 417.912,-62.1068 417.575,-43.5948 418.873,-29.8806"/>
<polygon fill="midnightblue" stroke="midnightblue" points="422.379,-30.0674 420.214,-19.696 415.439,-29.1533 422.379,-30.0674"/>
</g>
<!-- Node10 -->
<g id="node10" class="node"><title>Node10</title>
<polygon fill="white" stroke="#bfbfbf" points="589.5,-0.5 589.5,-19.5 624.5,-19.5 624.5,-0.5 589.5,-0.5"/>
<text text-anchor="middle" x="607" y="-7.5" font-family="Helvetica,sans-Serif" font-size="10.00">map</text>
</g>
<!-- Node8&#45;&gt;Node10 -->
<g id="edge12" class="edge"><title>Node8&#45;&gt;Node10</title>
<path fill="none" stroke="midnightblue" d="M528.418,-119.273C584.662,-115.59 694.425,-104.808 718,-76 744.021,-44.2032 675.307,-24.537 634.588,-15.9887"/>
<polygon fill="midnightblue" stroke="midnightblue" points="635.163,-12.5345 624.671,-14.0084 633.792,-19.399 635.163,-12.5345"/>
</g>
<!-- Node11 -->
<g id="node11" class="node"><title>Node11</title>
<polygon fill="white" stroke="#bfbfbf" points="252.5,-56.5 252.5,-75.5 301.5,-75.5 301.5,-56.5 252.5,-56.5"/>
<text text-anchor="middle" x="277" y="-63.5" font-family="Helvetica,sans-Serif" font-size="10.00">cassert</text>
</g>
<!-- Node8&#45;&gt;Node11 -->
<g id="edge13" class="edge"><title>Node8&#45;&gt;Node11</title>
<path fill="none" stroke="midnightblue" d="M461.847,-113.227C426.799,-104.947 369.657,-91.2643 311.877,-76.439"/>
<polygon fill="midnightblue" stroke="midnightblue" points="312.404,-72.9605 301.847,-73.8554 310.658,-79.7392 312.404,-72.9605"/>
</g>
<!-- Node12 -->
<g id="node12" class="node"><title>Node12</title>
<polygon fill="white" stroke="#bfbfbf" points="319.5,-56.5 319.5,-75.5 378.5,-75.5 378.5,-56.5 319.5,-56.5"/>
<text text-anchor="middle" x="349" y="-63.5" font-family="Helvetica,sans-Serif" font-size="10.00">TROOT.h</text>
</g>
<!-- Node8&#45;&gt;Node12 -->
<g id="edge15" class="edge"><title>Node8&#45;&gt;Node12</title>
<path fill="none" stroke="midnightblue" d="M471.866,-112.444C447.518,-103.438 408.993,-89.1891 381.577,-79.049"/>
<polygon fill="midnightblue" stroke="midnightblue" points="382.619,-75.7028 372.026,-75.5164 380.191,-82.2681 382.619,-75.7028"/>
</g>
<!-- Node13 -->
<g id="node13" class="node"><title>Node13</title>
<polygon fill="white" stroke="#bfbfbf" points="573,-56.5 573,-75.5 709,-75.5 709,-56.5 573,-56.5"/>
<text text-anchor="middle" x="641" y="-63.5" font-family="Helvetica,sans-Serif" font-size="10.00">Core/ControlParameter.hpp</text>
</g>
<!-- Node8&#45;&gt;Node13 -->
<g id="edge16" class="edge"><title>Node8&#45;&gt;Node13</title>
<path fill="none" stroke="midnightblue" d="M518.134,-112.444C542.482,-103.438 581.007,-89.1891 608.423,-79.049"/>
<polygon fill="midnightblue" stroke="midnightblue" points="609.809,-82.2681 617.974,-75.5164 607.381,-75.7028 609.809,-82.2681"/>
</g>
<!-- Node14 -->
<g id="node14" class="node"><title>Node14</title>
<g id="a_node14"><a xlink:href="../../df/d9f/ParameterList_8hpp.html" target="_top" xlink:title="This class provides a list of fit parameters which can have different types. ">
<polygon fill="white" stroke="red" points="435,-56.5 435,-75.5 555,-75.5 555,-56.5 435,-56.5"/>
<text text-anchor="middle" x="495" y="-63.5" font-family="Helvetica,sans-Serif" font-size="10.00">Core/ParameterList.hpp</text>
</a>
</g>
</g>
<!-- Node8&#45;&gt;Node14 -->
<g id="edge17" class="edge"><title>Node8&#45;&gt;Node14</title>
<path fill="none" stroke="midnightblue" d="M495,-112.083C495,-105.006 495,-94.8611 495,-85.9865"/>
<polygon fill="midnightblue" stroke="midnightblue" points="498.5,-85.751 495,-75.7511 491.5,-85.7511 498.5,-85.751"/>
</g>
<!-- Node14&#45;&gt;Node4 -->
<g id="edge21" class="edge"><title>Node14&#45;&gt;Node4</title>
<path fill="none" stroke="midnightblue" d="M466.954,-56.4435C436.388,-47.1184 387.393,-32.1708 354.007,-21.985"/>
<polygon fill="midnightblue" stroke="midnightblue" points="354.77,-18.5588 344.184,-18.9883 352.727,-25.2541 354.77,-18.5588"/>
</g>
<!-- Node14&#45;&gt;Node5 -->
<g id="edge18" class="edge"><title>Node14&#45;&gt;Node5</title>
<path fill="none" stroke="midnightblue" d="M452.059,-56.4435C399.39,-45.9486 310.981,-28.3321 261.122,-18.397"/>
<polygon fill="midnightblue" stroke="midnightblue" points="261.586,-14.9206 251.094,-16.3989 260.218,-21.7857 261.586,-14.9206"/>
</g>
<!-- Node14&#45;&gt;Node6 -->
<g id="edge19" class="edge"><title>Node14&#45;&gt;Node6</title>
<path fill="none" stroke="midnightblue" d="M539.367,-56.4435C596.545,-45.4164 694.489,-26.5272 744.165,-16.9468"/>
<polygon fill="midnightblue" stroke="midnightblue" points="745.129,-20.3255 754.285,-14.9951 743.803,-13.4522 745.129,-20.3255"/>
</g>
<!-- Node14&#45;&gt;Node7 -->
<g id="edge20" class="edge"><title>Node14&#45;&gt;Node7</title>
<path fill="none" stroke="midnightblue" d="M555.228,-57.0382C617.594,-48.6041 717.798,-34.5227 804,-20 807.464,-19.4164 811.066,-18.7801 814.665,-18.1244"/>
<polygon fill="midnightblue" stroke="midnightblue" points="815.5,-21.5291 824.688,-16.2528 814.215,-14.648 815.5,-21.5291"/>
</g>
<!-- Node14&#45;&gt;Node9 -->
<g id="edge22" class="edge"><title>Node14&#45;&gt;Node9</title>
<path fill="none" stroke="midnightblue" d="M483.271,-56.324C472.163,-48.1066 455.258,-35.6017 442.017,-25.8069"/>
<polygon fill="midnightblue" stroke="midnightblue" points="444.063,-22.9671 433.942,-19.8339 439.9,-28.5948 444.063,-22.9671"/>
</g>
<!-- Node14&#45;&gt;Node10 -->
<g id="edge23" class="edge"><title>Node14&#45;&gt;Node10</title>
<path fill="none" stroke="midnightblue" d="M512.995,-56.324C531.144,-47.5732 559.379,-33.9603 580.17,-23.9357"/>
<polygon fill="midnightblue" stroke="midnightblue" points="581.932,-26.9722 589.419,-19.4765 578.891,-20.6668 581.932,-26.9722"/>
</g>
</g>
</svg>
