<?xml version="1.0" encoding="UTF-8" standalone="no"?>
<!DOCTYPE svg PUBLIC "-//W3C//DTD SVG 1.1//EN"
 "http://www.w3.org/Graphics/SVG/1.1/DTD/svg11.dtd">
<!-- Generated by graphviz version 2.26.3 (20100126.1600)
 -->
<!-- Title: G Pages: 1 -->
<svg width="2687pt" height="320pt"
 viewBox="0.00 0.00 2687.00 320.00" xmlns="http://www.w3.org/2000/svg" xmlns:xlink="http://www.w3.org/1999/xlink">
<g id="graph1" class="graph" transform="scale(1 1) rotate(0) translate(4 316)">
<title>G</title>
<polygon fill="white" stroke="white" points="-4,5 -4,-316 2684,-316 2684,5 -4,5"/>
<!-- Node1 -->
<g id="node1" class="node"><title>Node1</title>
<polygon fill="#bfbfbf" stroke="black" points="1538,-290.5 1538,-311.5 1752,-311.5 1752,-290.5 1538,-290.5"/>
<text text-anchor="middle" x="1645" y="-298.5" font-family="Helvetica,sans-Serif" font-size="10.00">Physics/DPKinematics/DalitzKinematics.hpp</text>
</g>
<!-- Node2 -->
<g id="node3" class="node"><title>Node2</title>
<a xlink:href="../../df/d29/AmpAbsDynamicalFunction_8cpp.xhtml" target="_top" xlink:title="Physics/AmplitudeSum/AmpAbsDynamicalFunction.cpp">
<polygon fill="white" stroke="black" points="522,-232.5 522,-253.5 784,-253.5 784,-232.5 522,-232.5"/>
<text text-anchor="middle" x="653" y="-240.5" font-family="Helvetica,sans-Serif" font-size="10.00">Physics/AmplitudeSum/AmpAbsDynamicalFunction.cpp</text>
</a>
</g>
<!-- Node1&#45;&gt;Node2 -->
<g id="edge2" class="edge"><title>Node1&#45;&gt;Node2</title>
<path fill="none" stroke="midnightblue" d="M1527.56,-295.388C1363.19,-287.337 1055.23,-271.533 793,-254 790.081,-253.805 787.128,-253.604 784.15,-253.398"/>
<polygon fill="midnightblue" stroke="midnightblue" points="1527.53,-298.891 1537.69,-295.884 1527.87,-291.899 1527.53,-298.891"/>
</g>
<!-- Node3 -->
<g id="node5" class="node"><title>Node3</title>
<a xlink:href="../../d4/d12/AmpWigner_8hpp.xhtml" target="_top" xlink:title="Physics/AmplitudeSum/AmpWigner.hpp">
<polygon fill="white" stroke="black" points="801.5,-232.5 801.5,-253.5 992.5,-253.5 992.5,-232.5 801.5,-232.5"/>
<text text-anchor="middle" x="897" y="-240.5" font-family="Helvetica,sans-Serif" font-size="10.00">Physics/AmplitudeSum/AmpWigner.hpp</text>
</a>
</g>
<!-- Node1&#45;&gt;Node3 -->
<g id="edge4" class="edge"><title>Node1&#45;&gt;Node3</title>
<path fill="none" stroke="midnightblue" d="M1527.82,-291.914C1380.21,-280.468 1129.38,-261.018 992.706,-250.421"/>
<polygon fill="midnightblue" stroke="midnightblue" points="1527.59,-295.406 1537.83,-292.69 1528.13,-288.427 1527.59,-295.406"/>
</g>
<!-- Node7 -->
<g id="node13" class="node"><title>Node7</title>
<a xlink:href="../../d0/d2a/AmpSumIntensity_8hpp.xhtml" target="_top" xlink:title="Physics/AmplitudeSum/AmpSumIntensity.hpp">
<polygon fill="white" stroke="black" points="1103,-58.5 1103,-79.5 1321,-79.5 1321,-58.5 1103,-58.5"/>
<text text-anchor="middle" x="1212" y="-66.5" font-family="Helvetica,sans-Serif" font-size="10.00">Physics/AmplitudeSum/AmpSumIntensity.hpp</text>
</a>
</g>
<!-- Node1&#45;&gt;Node7 -->
<g id="edge72" class="edge"><title>Node1&#45;&gt;Node7</title>
<path fill="none" stroke="midnightblue" d="M1616.52,-285.339C1602.43,-276.944 1585.58,-265.892 1572,-254 1536.89,-223.259 1543.47,-198.888 1504,-174 1451.11,-140.653 1427,-158.71 1368,-138 1318.54,-120.638 1262.9,-94.2994 1233.27,-79.697"/>
<polygon fill="midnightblue" stroke="midnightblue" points="1614.92,-288.453 1625.32,-290.454 1618.43,-282.402 1614.92,-288.453"/>
</g>
<!-- Node10 -->
<g id="node20" class="node"><title>Node10</title>
<a xlink:href="../../d2/d52/test_2GenDalitzApp_8cpp.xhtml" target="_top" xlink:title="test/GenDalitzApp.cpp">
<polygon fill="white" stroke="black" points="1411,-0.5 1411,-21.5 1527,-21.5 1527,-0.5 1411,-0.5"/>
<text text-anchor="middle" x="1469" y="-8.5" font-family="Helvetica,sans-Serif" font-size="10.00">test/GenDalitzApp.cpp</text>
</a>
</g>
<!-- Node1&#45;&gt;Node10 -->
<g id="edge90" class="edge"><title>Node1&#45;&gt;Node10</title>
<path fill="none" stroke="midnightblue" d="M1634.29,-281.268C1623.05,-258.685 1607,-220.259 1607,-185 1607,-185 1607,-185 1607,-127 1607,-95.1919 1609.25,-81.667 1588,-58 1571.6,-39.7371 1547.19,-28.4834 1524.73,-21.5908"/>
<polygon fill="midnightblue" stroke="midnightblue" points="1631.2,-282.91 1638.89,-290.191 1637.42,-279.699 1631.2,-282.91"/>
</g>
<!-- Node11 -->
<g id="node22" class="node"><title>Node11</title>
<a xlink:href="../../db/d19/GenRunManagerApp_8cpp.xhtml" target="_top" xlink:title="test/GenRunManagerApp.cpp">
<polygon fill="white" stroke="black" points="1572,-0.5 1572,-21.5 1718,-21.5 1718,-0.5 1572,-0.5"/>
<text text-anchor="middle" x="1645" y="-8.5" font-family="Helvetica,sans-Serif" font-size="10.00">test/GenRunManagerApp.cpp</text>
</a>
</g>
<!-- Node1&#45;&gt;Node11 -->
<g id="edge92" class="edge"><title>Node1&#45;&gt;Node11</title>
<path fill="none" stroke="midnightblue" d="M1645,-280.406C1645,-257.215 1645,-218.402 1645,-185 1645,-185 1645,-185 1645,-127 1645,-88.1319 1645,-41.9382 1645,-21.5561"/>
<polygon fill="midnightblue" stroke="midnightblue" points="1641.5,-280.444 1645,-290.444 1648.5,-280.444 1641.5,-280.444"/>
</g>
<!-- Node20 -->
<g id="node47" class="node"><title>Node20</title>
<a xlink:href="../../d0/d2a/AmpWigner2_8hpp.xhtml" target="_top" xlink:title="Angular distribution based on WignerD functions.">
<polygon fill="white" stroke="black" points="1190.5,-232.5 1190.5,-253.5 1387.5,-253.5 1387.5,-232.5 1190.5,-232.5"/>
<text text-anchor="middle" x="1289" y="-240.5" font-family="Helvetica,sans-Serif" font-size="10.00">Physics/AmplitudeSum/AmpWigner2.hpp</text>
</a>
</g>
<!-- Node1&#45;&gt;Node20 -->
<g id="edge54" class="edge"><title>Node1&#45;&gt;Node20</title>
<path fill="none" stroke="midnightblue" d="M1570.48,-288.859C1506.32,-278.406 1414.68,-263.476 1353.59,-253.523"/>
<polygon fill="midnightblue" stroke="midnightblue" points="1570.1,-292.343 1580.53,-290.497 1571.22,-285.434 1570.1,-292.343"/>
</g>
<!-- Node22 -->
<g id="node53" class="node"><title>Node22</title>
<a xlink:href="../../df/d8c/AmpGausRes_8hpp.xhtml" target="_top" xlink:title="Physics/AmplitudeSum/AmpGausRes.hpp">
<polygon fill="white" stroke="black" points="1377,-116.5 1377,-137.5 1579,-137.5 1579,-116.5 1377,-116.5"/>
<text text-anchor="middle" x="1478" y="-124.5" font-family="Helvetica,sans-Serif" font-size="10.00">Physics/AmplitudeSum/AmpGausRes.hpp</text>
</a>
</g>
<!-- Node1&#45;&gt;Node22 -->
<g id="edge62" class="edge"><title>Node1&#45;&gt;Node22</title>
<path fill="none" stroke="midnightblue" d="M1623.64,-283.617C1613.82,-275.155 1602.31,-264.548 1593,-254 1564.27,-221.465 1566.72,-205.625 1537,-174 1523.82,-159.973 1506.32,-146.558 1493.81,-137.677"/>
<polygon fill="midnightblue" stroke="midnightblue" points="1621.51,-286.397 1631.41,-290.172 1626.02,-281.047 1621.51,-286.397"/>
</g>
<!-- Node24 -->
<g id="node59" class="node"><title>Node24</title>
<a xlink:href="../../d4/d56/AmpKinematics_8cpp.xhtml" target="_top" xlink:title="Physics/AmplitudeSum/AmpKinematics.cpp">
<polygon fill="white" stroke="black" points="1672.5,-232.5 1672.5,-253.5 1881.5,-253.5 1881.5,-232.5 1672.5,-232.5"/>
<text text-anchor="middle" x="1777" y="-240.5" font-family="Helvetica,sans-Serif" font-size="10.00">Physics/AmplitudeSum/AmpKinematics.cpp</text>
</a>
</g>
<!-- Node1&#45;&gt;Node24 -->
<g id="edge70" class="edge"><title>Node1&#45;&gt;Node24</title>
<path fill="none" stroke="midnightblue" d="M1678.36,-286.343C1701.55,-276.15 1731.94,-262.798 1752.83,-253.621"/>
<polygon fill="midnightblue" stroke="midnightblue" points="1676.65,-283.27 1668.9,-290.497 1679.47,-289.678 1676.65,-283.27"/>
</g>
<!-- Node25 -->
<g id="node62" class="node"><title>Node25</title>
<a xlink:href="../../df/dbe/DalitzKinematics_8cpp.xhtml" target="_top" xlink:title="Physics/DPKinematics/DalitzKinematics.cpp">
<polygon fill="white" stroke="black" points="1899,-232.5 1899,-253.5 2113,-253.5 2113,-232.5 1899,-232.5"/>
<text text-anchor="middle" x="2006" y="-240.5" font-family="Helvetica,sans-Serif" font-size="10.00">Physics/DPKinematics/DalitzKinematics.cpp</text>
</a>
</g>
<!-- Node1&#45;&gt;Node25 -->
<g id="edge74" class="edge"><title>Node1&#45;&gt;Node25</title>
<path fill="none" stroke="midnightblue" d="M1720.57,-288.859C1785.63,-278.406 1878.55,-263.476 1940.5,-253.523"/>
<polygon fill="midnightblue" stroke="midnightblue" points="1719.69,-285.455 1710.37,-290.497 1720.8,-292.366 1719.69,-285.455"/>
</g>
<!-- Node26 -->
<g id="node64" class="node"><title>Node26</title>
<a xlink:href="../../d5/d5e/RootEfficiency_8hpp.xhtml" target="_top" xlink:title="Physics/DPKinematics/RootEfficiency.hpp">
<polygon fill="white" stroke="black" points="2131,-232.5 2131,-253.5 2335,-253.5 2335,-232.5 2131,-232.5"/>
<text text-anchor="middle" x="2233" y="-240.5" font-family="Helvetica,sans-Serif" font-size="10.00">Physics/DPKinematics/RootEfficiency.hpp</text>
</a>
</g>
<!-- Node1&#45;&gt;Node26 -->
<g id="edge76" class="edge"><title>Node1&#45;&gt;Node26</title>
<path fill="none" stroke="midnightblue" d="M1762.12,-289.478C1858.68,-279.975 1999.23,-266.132 2122,-254 2124.89,-253.714 2127.82,-253.424 2130.78,-253.132"/>
<polygon fill="midnightblue" stroke="midnightblue" points="1761.65,-286.008 1752.04,-290.471 1762.33,-292.974 1761.65,-286.008"/>
</g>
<!-- Node29 -->
<g id="node70" class="node"><title>Node29</title>
<a xlink:href="../../db/d11/RootGenerator_8cpp.xhtml" target="_top" xlink:title="Physics/DPKinematics/RootGenerator.cpp">
<polygon fill="white" stroke="black" points="1967.5,-58.5 1967.5,-79.5 2170.5,-79.5 2170.5,-58.5 1967.5,-58.5"/>
<text text-anchor="middle" x="2069" y="-66.5" font-family="Helvetica,sans-Serif" font-size="10.00">Physics/DPKinematics/RootGenerator.cpp</text>
</a>
</g>
<!-- Node1&#45;&gt;Node29 -->
<g id="edge82" class="edge"><title>Node1&#45;&gt;Node29</title>
<path fill="none" stroke="midnightblue" d="M1762.59,-297.234C1956.61,-290.441 2324.48,-274.879 2344,-254 2368.28,-228.029 2364.17,-203.284 2344,-174 2317.08,-134.908 2184.45,-97.2653 2113.68,-79.5497"/>
<polygon fill="midnightblue" stroke="midnightblue" points="1762.22,-293.744 1752.35,-297.59 1762.46,-300.74 1762.22,-293.744"/>
</g>
<!-- Node30 -->
<g id="node73" class="node"><title>Node30</title>
<a xlink:href="../../d4/d8c/DalitzDataPlotterApp_8cpp.xhtml" target="_top" xlink:title="Plotter for three particle final states.">
<polygon fill="white" stroke="black" points="2390.5,-232.5 2390.5,-253.5 2537.5,-253.5 2537.5,-232.5 2390.5,-232.5"/>
<text text-anchor="middle" x="2464" y="-240.5" font-family="Helvetica,sans-Serif" font-size="10.00">test/DalitzDataPlotterApp.cpp</text>
</a>
</g>
<!-- Node1&#45;&gt;Node30 -->
<g id="edge86" class="edge"><title>Node1&#45;&gt;Node30</title>
<path fill="none" stroke="midnightblue" d="M1762.38,-295.696C1907.1,-288.643 2160.5,-274.617 2377,-254 2381.4,-253.581 2385.91,-253.117 2390.46,-252.621"/>
<polygon fill="midnightblue" stroke="midnightblue" points="1761.97,-292.212 1752.15,-296.192 1762.31,-299.204 1761.97,-292.212"/>
</g>
<!-- Node31 -->
<g id="node75" class="node"><title>Node31</title>
<a xlink:href="../../d8/deb/DPareaTestApp_8cpp.xhtml" target="_top" xlink:title="Test App for calculation of DP area via numeric monte&#45;carlo integration.">
<polygon fill="white" stroke="black" points="2554.5,-232.5 2554.5,-253.5 2679.5,-253.5 2679.5,-232.5 2554.5,-232.5"/>
<text text-anchor="middle" x="2617" y="-240.5" font-family="Helvetica,sans-Serif" font-size="10.00">test/DPareaTestApp.cpp</text>
</a>
</g>
<!-- Node1&#45;&gt;Node31 -->
<g id="edge88" class="edge"><title>Node1&#45;&gt;Node31</title>
<path fill="none" stroke="midnightblue" d="M1762.17,-298.685C1934.35,-294.423 2265.68,-282.951 2546,-254 2548.73,-253.718 2551.51,-253.403 2554.32,-253.064"/>
<polygon fill="midnightblue" stroke="midnightblue" points="1761.98,-295.188 1752.07,-298.931 1762.15,-302.186 1761.98,-295.188"/>
</g>
<!-- Node4 -->
<g id="node7" class="node"><title>Node4</title>
<a xlink:href="../../dd/d65/AmpFlatteRes_8hpp.xhtml" target="_top" xlink:title="Physics/AmplitudeSum/AmpFlatteRes.hpp">
<polygon fill="white" stroke="black" points="1078.5,-174.5 1078.5,-195.5 1281.5,-195.5 1281.5,-174.5 1078.5,-174.5"/>
<text text-anchor="middle" x="1180" y="-182.5" font-family="Helvetica,sans-Serif" font-size="10.00">Physics/AmplitudeSum/AmpFlatteRes.hpp</text>
</a>
</g>
<!-- Node3&#45;&gt;Node4 -->
<g id="edge6" class="edge"><title>Node3&#45;&gt;Node4</title>
<path fill="none" stroke="midnightblue" d="M958.139,-230.47C1009.04,-220.038 1080.69,-205.354 1128.65,-195.523"/>
<polygon fill="midnightblue" stroke="midnightblue" points="957.343,-227.06 948.249,-232.497 958.748,-233.918 957.343,-227.06"/>
</g>
<!-- Node6 -->
<g id="node11" class="node"><title>Node6</title>
<a xlink:href="../../db/dd9/AmpSumIntensity_8cpp.xhtml" target="_top" xlink:title="Physics/AmplitudeSum/AmpSumIntensity.cpp">
<polygon fill="white" stroke="black" points="741,-0.5 741,-21.5 959,-21.5 959,-0.5 741,-0.5"/>
<text text-anchor="middle" x="850" y="-8.5" font-family="Helvetica,sans-Serif" font-size="10.00">Physics/AmplitudeSum/AmpSumIntensity.cpp</text>
</a>
</g>
<!-- Node3&#45;&gt;Node6 -->
<g id="edge42" class="edge"><title>Node3&#45;&gt;Node6</title>
<path fill="none" stroke="midnightblue" d="M796.871,-231.282C699.429,-219.653 562.541,-202.634 538,-196 473.775,-178.638 460.593,-165.474 400,-138 341.958,-111.683 237.831,-104.882 281,-58 311.445,-24.9367 584.369,-15.1314 740.898,-12.2244"/>
<polygon fill="midnightblue" stroke="midnightblue" points="796.718,-234.788 807.062,-232.495 797.546,-227.837 796.718,-234.788"/>
</g>
<!-- Node3&#45;&gt;Node7 -->
<g id="edge46" class="edge"><title>Node3&#45;&gt;Node7</title>
<path fill="none" stroke="midnightblue" d="M962.759,-229.51C985.312,-222.412 1009.5,-211.776 1028,-196 1058.87,-169.666 1040.86,-142.015 1072,-116 1093.94,-97.673 1123.33,-86.3946 1149.51,-79.5014"/>
<polygon fill="midnightblue" stroke="midnightblue" points="961.473,-226.24 952.877,-232.434 963.46,-232.953 961.473,-226.24"/>
</g>
<!-- Node12 -->
<g id="node24" class="node"><title>Node12</title>
<a xlink:href="../../d2/d45/AmpRelBreitWignerRes_8hpp.xhtml" target="_top" xlink:title="Physics/AmplitudeSum/AmpRelBreitWignerRes.hpp">
<polygon fill="white" stroke="black" points="774.5,-174.5 774.5,-195.5 1019.5,-195.5 1019.5,-174.5 774.5,-174.5"/>
<text text-anchor="middle" x="897" y="-182.5" font-family="Helvetica,sans-Serif" font-size="10.00">Physics/AmplitudeSum/AmpRelBreitWignerRes.hpp</text>
</a>
</g>
<!-- Node3&#45;&gt;Node12 -->
<g id="edge24" class="edge"><title>Node3&#45;&gt;Node12</title>
<path fill="none" stroke="midnightblue" d="M897,-222.191C897,-213.168 897,-202.994 897,-195.571"/>
<polygon fill="midnightblue" stroke="midnightblue" points="893.5,-222.362 897,-232.362 900.5,-222.362 893.5,-222.362"/>
</g>
<!-- Node14 -->
<g id="node29" class="node"><title>Node14</title>
<a xlink:href="../../d4/d9e/AmpSumOfAmplitudes_8hpp.xhtml" target="_top" xlink:title="Physics/AmplitudeSum/AmpSumOfAmplitudes.hpp">
<polygon fill="white" stroke="black" points="409,-116.5 409,-137.5 649,-137.5 649,-116.5 409,-116.5"/>
<text text-anchor="middle" x="529" y="-124.5" font-family="Helvetica,sans-Serif" font-size="10.00">Physics/AmplitudeSum/AmpSumOfAmplitudes.hpp</text>
</a>
</g>
<!-- Node3&#45;&gt;Node14 -->
<g id="edge44" class="edge"><title>Node3&#45;&gt;Node14</title>
<path fill="none" stroke="midnightblue" d="M794.736,-231.305C698.412,-219.909 567.455,-203.268 558,-196 539.353,-181.666 532.577,-153.109 530.207,-137.606"/>
<polygon fill="midnightblue" stroke="midnightblue" points="794.484,-234.8 804.825,-232.495 795.304,-227.848 794.484,-234.8"/>
</g>
<!-- Node17 -->
<g id="node41" class="node"><title>Node17</title>
<a xlink:href="../../d6/daa/AmpWigner_8cpp.xhtml" target="_top" xlink:title="Physics/AmplitudeSum/AmpWigner.cpp">
<polygon fill="white" stroke="black" points="566.5,-174.5 566.5,-195.5 757.5,-195.5 757.5,-174.5 566.5,-174.5"/>
<text text-anchor="middle" x="662" y="-182.5" font-family="Helvetica,sans-Serif" font-size="10.00">Physics/AmplitudeSum/AmpWigner.cpp</text>
</a>
</g>
<!-- Node3&#45;&gt;Node17 -->
<g id="edge48" class="edge"><title>Node3&#45;&gt;Node17</title>
<path fill="none" stroke="midnightblue" d="M844.638,-230.077C802.481,-219.672 743.969,-205.231 704.637,-195.523"/>
<polygon fill="midnightblue" stroke="midnightblue" points="843.896,-233.498 854.443,-232.497 845.573,-226.702 843.896,-233.498"/>
</g>
<!-- Node18 -->
<g id="node43" class="node"><title>Node18</title>
<a xlink:href="../../d3/d66/PhiSumOfAmplitudes_8hpp.xhtml" target="_top" xlink:title="Physics/AmplitudeSum/PhiSumOfAmplitudes.hpp">
<polygon fill="white" stroke="black" points="0,-174.5 0,-195.5 234,-195.5 234,-174.5 0,-174.5"/>
<text text-anchor="middle" x="117" y="-182.5" font-family="Helvetica,sans-Serif" font-size="10.00">Physics/AmplitudeSum/PhiSumOfAmplitudes.hpp</text>
</a>
</g>
<!-- Node3&#45;&gt;Node18 -->
<g id="edge50" class="edge"><title>Node3&#45;&gt;Node18</title>
<path fill="none" stroke="midnightblue" d="M791.091,-231.86C549.436,-211.306 486.761,-213.909 248,-196 243.448,-195.659 238.808,-195.303 234.121,-194.939"/>
<polygon fill="midnightblue" stroke="midnightblue" points="790.982,-235.364 801.244,-232.728 791.578,-228.389 790.982,-235.364"/>
</g>
<!-- Node5 -->
<g id="node9" class="node"><title>Node5</title>
<a xlink:href="../../d2/d84/AmpFlatteRes_8cpp.xhtml" target="_top" xlink:title="Physics/AmplitudeSum/AmpFlatteRes.cpp">
<polygon fill="white" stroke="black" points="1080.5,-116.5 1080.5,-137.5 1283.5,-137.5 1283.5,-116.5 1080.5,-116.5"/>
<text text-anchor="middle" x="1182" y="-124.5" font-family="Helvetica,sans-Serif" font-size="10.00">Physics/AmplitudeSum/AmpFlatteRes.cpp</text>
</a>
</g>
<!-- Node4&#45;&gt;Node5 -->
<g id="edge8" class="edge"><title>Node4&#45;&gt;Node5</title>
<path fill="none" stroke="midnightblue" d="M1180.72,-164.191C1181.03,-155.168 1181.38,-144.994 1181.64,-137.571"/>
<polygon fill="midnightblue" stroke="midnightblue" points="1177.21,-164.247 1180.37,-174.362 1184.21,-164.488 1177.21,-164.247"/>
</g>
<!-- Node4&#45;&gt;Node6 -->
<g id="edge10" class="edge"><title>Node4&#45;&gt;Node6</title>
<path fill="none" stroke="midnightblue" d="M1144.14,-170.553C1122.91,-161.711 1095.62,-149.849 1072,-138 993.419,-98.572 903.592,-44.1621 866.922,-21.5315"/>
<polygon fill="midnightblue" stroke="midnightblue" points="1142.86,-173.811 1153.44,-174.393 1145.54,-167.341 1142.86,-173.811"/>
</g>
<!-- Node4&#45;&gt;Node7 -->
<g id="edge12" class="edge"><title>Node4&#45;&gt;Node7</title>
<path fill="none" stroke="midnightblue" d="M1247.77,-170.949C1265.06,-163.976 1281.66,-153.557 1292,-138 1308.7,-112.875 1270.91,-91.5488 1241.76,-79.5139"/>
<polygon fill="midnightblue" stroke="midnightblue" points="1246.32,-167.753 1238.14,-174.479 1248.73,-174.326 1246.32,-167.753"/>
</g>
<!-- Node7&#45;&gt;Node6 -->
<g id="edge14" class="edge"><title>Node7&#45;&gt;Node6</title>
<path fill="none" stroke="midnightblue" d="M1136.22,-56.8589C1070.98,-46.4061 977.801,-31.4764 915.678,-21.5231"/>
<polygon fill="midnightblue" stroke="midnightblue" points="1136.02,-60.3704 1146.44,-58.4966 1137.12,-53.4586 1136.02,-60.3704"/>
</g>
<!-- Node8 -->
<g id="node16" class="node"><title>Node8</title>
<a xlink:href="../../de/d2f/Physics_2RootGenerator_2GenDalitzApp_8cpp.xhtml" target="_top" xlink:title="Physics/RootGenerator/GenDalitzApp.cpp">
<polygon fill="white" stroke="black" points="1138.5,-0.5 1138.5,-21.5 1339.5,-21.5 1339.5,-0.5 1138.5,-0.5"/>
<text text-anchor="middle" x="1239" y="-8.5" font-family="Helvetica,sans-Serif" font-size="10.00">Physics/RootGenerator/GenDalitzApp.cpp</text>
</a>
</g>
<!-- Node7&#45;&gt;Node8 -->
<g id="edge16" class="edge"><title>Node7&#45;&gt;Node8</title>
<path fill="none" stroke="midnightblue" d="M1221.27,-49.079C1225.57,-39.8422 1230.51,-29.2388 1234.08,-21.5707"/>
<polygon fill="midnightblue" stroke="midnightblue" points="1218,-47.819 1216.95,-58.3619 1224.35,-50.7732 1218,-47.819"/>
</g>
<!-- Node9 -->
<g id="node18" class="node"><title>Node9</title>
<a xlink:href="../../da/d2a/DalitzFitApp_8cpp.xhtml" target="_top" xlink:title="Test&#45;Application for full fit with simple BW&#45;dalitz&#45;model.">
<polygon fill="white" stroke="black" points="1012.5,-0.5 1012.5,-21.5 1121.5,-21.5 1121.5,-0.5 1012.5,-0.5"/>
<text text-anchor="middle" x="1067" y="-8.5" font-family="Helvetica,sans-Serif" font-size="10.00">test/DalitzFitApp.cpp</text>
</a>
</g>
<!-- Node7&#45;&gt;Node9 -->
<g id="edge18" class="edge"><title>Node7&#45;&gt;Node9</title>
<path fill="none" stroke="midnightblue" d="M1176.38,-54.7509C1150.77,-44.5086 1116.8,-30.9206 1093.55,-21.6212"/>
<polygon fill="midnightblue" stroke="midnightblue" points="1175.16,-58.0323 1185.74,-58.4966 1177.76,-51.533 1175.16,-58.0323"/>
</g>
<!-- Node7&#45;&gt;Node10 -->
<g id="edge20" class="edge"><title>Node7&#45;&gt;Node10</title>
<path fill="none" stroke="midnightblue" d="M1268.39,-56.2737C1314.56,-45.8548 1379.09,-31.2921 1422.37,-21.5231"/>
<polygon fill="midnightblue" stroke="midnightblue" points="1267.52,-52.881 1258.54,-58.4966 1269.07,-59.7093 1267.52,-52.881"/>
</g>
<!-- Node7&#45;&gt;Node11 -->
<g id="edge22" class="edge"><title>Node7&#45;&gt;Node11</title>
<path fill="none" stroke="midnightblue" d="M1300.48,-57.1487C1380.51,-46.4283 1496.97,-30.8287 1571.86,-20.7973"/>
<polygon fill="midnightblue" stroke="midnightblue" points="1299.86,-53.6999 1290.41,-58.4966 1300.79,-60.6379 1299.86,-53.6999"/>
</g>
<!-- Node12&#45;&gt;Node6 -->
<g id="edge28" class="edge"><title>Node12&#45;&gt;Node6</title>
<path fill="none" stroke="midnightblue" d="M793.961,-172.81C751.373,-165.456 708.913,-154.28 696,-138 653.724,-84.6983 730.484,-120.732 789,-80 812.359,-63.7402 832.725,-36.733 842.968,-21.7849"/>
<polygon fill="midnightblue" stroke="midnightblue" points="793.463,-176.275 803.901,-174.46 794.609,-169.37 793.463,-176.275"/>
</g>
<!-- Node12&#45;&gt;Node7 -->
<g id="edge40" class="edge"><title>Node12&#45;&gt;Node7</title>
<path fill="none" stroke="midnightblue" d="M924.648,-169.642C952.779,-154.48 997.958,-131.392 1039,-116 1080.24,-100.536 1128.74,-87.8074 1163.88,-79.5152"/>
<polygon fill="midnightblue" stroke="midnightblue" points="922.905,-166.606 915.792,-174.458 926.249,-172.756 922.905,-166.606"/>
</g>
<!-- Node13 -->
<g id="node26" class="node"><title>Node13</title>
<a xlink:href="../../dd/d5d/AmpRelBreitWignerRes_8cpp.xhtml" target="_top" xlink:title="Physics/AmplitudeSum/AmpRelBreitWignerRes.cpp">
<polygon fill="white" stroke="black" points="704.5,-116.5 704.5,-137.5 949.5,-137.5 949.5,-116.5 704.5,-116.5"/>
<text text-anchor="middle" x="827" y="-124.5" font-family="Helvetica,sans-Serif" font-size="10.00">Physics/AmplitudeSum/AmpRelBreitWignerRes.cpp</text>
</a>
</g>
<!-- Node12&#45;&gt;Node13 -->
<g id="edge26" class="edge"><title>Node12&#45;&gt;Node13</title>
<path fill="none" stroke="midnightblue" d="M876.453,-167.975C864.573,-158.132 849.997,-146.055 839.758,-137.571"/>
<polygon fill="midnightblue" stroke="midnightblue" points="874.228,-170.677 884.161,-174.362 878.694,-165.287 874.228,-170.677"/>
</g>
<!-- Node12&#45;&gt;Node14 -->
<g id="edge30" class="edge"><title>Node12&#45;&gt;Node14</title>
<path fill="none" stroke="midnightblue" d="M820.376,-172.923C754.035,-162.468 659.049,-147.497 595.767,-137.523"/>
<polygon fill="midnightblue" stroke="midnightblue" points="819.935,-176.397 830.358,-174.497 821.025,-169.482 819.935,-176.397"/>
</g>
<!-- Node14&#45;&gt;Node6 -->
<g id="edge32" class="edge"><title>Node14&#45;&gt;Node6</title>
<path fill="none" stroke="midnightblue" d="M636.03,-114.788C675.252,-107.792 719.251,-96.894 757,-80 790.031,-65.2173 822.59,-37.1102 839.011,-21.7245"/>
<polygon fill="midnightblue" stroke="midnightblue" points="635.43,-111.339 626.167,-116.483 636.616,-118.238 635.43,-111.339"/>
</g>
<!-- Node14&#45;&gt;Node7 -->
<g id="edge34" class="edge"><title>Node14&#45;&gt;Node7</title>
<path fill="none" stroke="midnightblue" d="M659.443,-115.923C788.044,-105.002 982.33,-88.5035 1102.96,-78.2598"/>
<polygon fill="midnightblue" stroke="midnightblue" points="658.811,-112.464 649.143,-116.798 659.403,-119.439 658.811,-112.464"/>
</g>
<!-- Node15 -->
<g id="node33" class="node"><title>Node15</title>
<a xlink:href="../../d6/dfb/AmpSumOfAmplitudes_8cpp.xhtml" target="_top" xlink:title="Physics/AmplitudeSum/AmpSumOfAmplitudes.cpp">
<polygon fill="white" stroke="black" points="290,-58.5 290,-79.5 530,-79.5 530,-58.5 290,-58.5"/>
<text text-anchor="middle" x="410" y="-66.5" font-family="Helvetica,sans-Serif" font-size="10.00">Physics/AmplitudeSum/AmpSumOfAmplitudes.cpp</text>
</a>
</g>
<!-- Node14&#45;&gt;Node15 -->
<g id="edge36" class="edge"><title>Node14&#45;&gt;Node15</title>
<path fill="none" stroke="midnightblue" d="M498.366,-112.069C477.526,-101.912 450.451,-88.7157 431.792,-79.6212"/>
<polygon fill="midnightblue" stroke="midnightblue" points="496.927,-115.262 507.45,-116.497 499.994,-108.969 496.927,-115.262"/>
</g>
<!-- Node16 -->
<g id="node35" class="node"><title>Node16</title>
<a xlink:href="../../d6/d5d/AmpSumTree_8hpp.xhtml" target="_top" xlink:title="Physics/AmplitudeSum/AmpSumTree.hpp">
<polygon fill="white" stroke="black" points="548,-58.5 548,-79.5 748,-79.5 748,-58.5 548,-58.5"/>
<text text-anchor="middle" x="648" y="-66.5" font-family="Helvetica,sans-Serif" font-size="10.00">Physics/AmplitudeSum/AmpSumTree.hpp</text>
</a>
</g>
<!-- Node14&#45;&gt;Node16 -->
<g id="edge38" class="edge"><title>Node14&#45;&gt;Node16</title>
<path fill="none" stroke="midnightblue" d="M559.634,-112.069C580.474,-101.912 607.549,-88.7157 626.208,-79.6212"/>
<polygon fill="midnightblue" stroke="midnightblue" points="558.006,-108.969 550.55,-116.497 561.073,-115.262 558.006,-108.969"/>
</g>
<!-- Node19 -->
<g id="node45" class="node"><title>Node19</title>
<a xlink:href="../../db/db7/PhiSumOfAmplitudes_8cpp.xhtml" target="_top" xlink:title="Physics/AmplitudeSum/PhiSumOfAmplitudes.cpp">
<polygon fill="white" stroke="black" points="0,-116.5 0,-137.5 234,-137.5 234,-116.5 0,-116.5"/>
<text text-anchor="middle" x="117" y="-124.5" font-family="Helvetica,sans-Serif" font-size="10.00">Physics/AmplitudeSum/PhiSumOfAmplitudes.cpp</text>
</a>
</g>
<!-- Node18&#45;&gt;Node19 -->
<g id="edge52" class="edge"><title>Node18&#45;&gt;Node19</title>
<path fill="none" stroke="midnightblue" d="M117,-164.191C117,-155.168 117,-144.994 117,-137.571"/>
<polygon fill="midnightblue" stroke="midnightblue" points="113.5,-164.362 117,-174.362 120.5,-164.362 113.5,-164.362"/>
</g>
<!-- Node20&#45;&gt;Node4 -->
<g id="edge56" class="edge"><title>Node20&#45;&gt;Node4</title>
<path fill="none" stroke="midnightblue" d="M1260.42,-227.794C1241.41,-217.675 1216.9,-204.634 1199.96,-195.621"/>
<polygon fill="midnightblue" stroke="midnightblue" points="1258.79,-230.889 1269.26,-232.497 1262.08,-224.709 1258.79,-230.889"/>
</g>
<!-- Node20&#45;&gt;Node12 -->
<g id="edge58" class="edge"><title>Node20&#45;&gt;Node12</title>
<path fill="none" stroke="midnightblue" d="M1207.81,-230.988C1137.13,-220.529 1035.67,-205.517 968.121,-195.523"/>
<polygon fill="midnightblue" stroke="midnightblue" points="1207.61,-234.495 1218.01,-232.497 1208.63,-227.571 1207.61,-234.495"/>
</g>
<!-- Node21 -->
<g id="node51" class="node"><title>Node21</title>
<a xlink:href="../../d6/d39/AmpWigner2_8cpp.xhtml" target="_top" xlink:title="Physics/AmplitudeSum/AmpWigner2.cpp">
<polygon fill="white" stroke="black" points="1298.5,-174.5 1298.5,-195.5 1495.5,-195.5 1495.5,-174.5 1298.5,-174.5"/>
<text text-anchor="middle" x="1397" y="-182.5" font-family="Helvetica,sans-Serif" font-size="10.00">Physics/AmplitudeSum/AmpWigner2.cpp</text>
</a>
</g>
<!-- Node20&#45;&gt;Node21 -->
<g id="edge60" class="edge"><title>Node20&#45;&gt;Node21</title>
<path fill="none" stroke="midnightblue" d="M1317.57,-227.656C1336.38,-217.556 1360.52,-204.593 1377.22,-195.621"/>
<polygon fill="midnightblue" stroke="midnightblue" points="1315.71,-224.682 1308.56,-232.497 1319.02,-230.849 1315.71,-224.682"/>
</g>
<!-- Node22&#45;&gt;Node6 -->
<g id="edge66" class="edge"><title>Node22&#45;&gt;Node6</title>
<path fill="none" stroke="midnightblue" d="M1441.44,-112.676C1419.79,-103.876 1391.99,-92.016 1368,-80 1350.55,-71.2613 1348.58,-63.9756 1330,-58 1295.65,-46.9513 1089.93,-29.4725 959.199,-19.2322"/>
<polygon fill="midnightblue" stroke="midnightblue" points="1440.33,-116.004 1450.91,-116.493 1442.95,-109.51 1440.33,-116.004"/>
</g>
<!-- Node22&#45;&gt;Node7 -->
<g id="edge68" class="edge"><title>Node22&#45;&gt;Node7</title>
<path fill="none" stroke="midnightblue" d="M1419.93,-114.339C1372.13,-103.916 1305.16,-89.3126 1260.26,-79.5231"/>
<polygon fill="midnightblue" stroke="midnightblue" points="1419.31,-117.786 1429.83,-116.497 1420.8,-110.947 1419.31,-117.786"/>
</g>
<!-- Node23 -->
<g id="node55" class="node"><title>Node23</title>
<a xlink:href="../../d9/d61/AmpGausRes_8cpp.xhtml" target="_top" xlink:title="Physics/AmplitudeSum/AmpGausRes.cpp">
<polygon fill="white" stroke="black" points="1377,-58.5 1377,-79.5 1579,-79.5 1579,-58.5 1377,-58.5"/>
<text text-anchor="middle" x="1478" y="-66.5" font-family="Helvetica,sans-Serif" font-size="10.00">Physics/AmplitudeSum/AmpGausRes.cpp</text>
</a>
</g>
<!-- Node22&#45;&gt;Node23 -->
<g id="edge64" class="edge"><title>Node22&#45;&gt;Node23</title>
<path fill="none" stroke="midnightblue" d="M1478,-106.191C1478,-97.1684 1478,-86.9941 1478,-79.5707"/>
<polygon fill="midnightblue" stroke="midnightblue" points="1474.5,-106.362 1478,-116.362 1481.5,-106.362 1474.5,-106.362"/>
</g>
<!-- Node27 -->
<g id="node66" class="node"><title>Node27</title>
<a xlink:href="../../d2/df3/RootEfficiency_8cpp.xhtml" target="_top" xlink:title="Physics/DPKinematics/RootEfficiency.cpp">
<polygon fill="white" stroke="black" points="2131,-174.5 2131,-195.5 2335,-195.5 2335,-174.5 2131,-174.5"/>
<text text-anchor="middle" x="2233" y="-182.5" font-family="Helvetica,sans-Serif" font-size="10.00">Physics/DPKinematics/RootEfficiency.cpp</text>
</a>
</g>
<!-- Node26&#45;&gt;Node27 -->
<g id="edge78" class="edge"><title>Node26&#45;&gt;Node27</title>
<path fill="none" stroke="midnightblue" d="M2233,-222.191C2233,-213.168 2233,-202.994 2233,-195.571"/>
<polygon fill="midnightblue" stroke="midnightblue" points="2229.5,-222.362 2233,-232.362 2236.5,-222.362 2229.5,-222.362"/>
</g>
<!-- Node28 -->
<g id="node68" class="node"><title>Node28</title>
<a xlink:href="../../dd/d77/RunManagerTestApp_8cpp.xhtml" target="_top" xlink:title="Test&#45;Application for fit with simple modules using RunManager.">
<polygon fill="white" stroke="black" points="1966.5,-174.5 1966.5,-195.5 2113.5,-195.5 2113.5,-174.5 1966.5,-174.5"/>
<text text-anchor="middle" x="2040" y="-182.5" font-family="Helvetica,sans-Serif" font-size="10.00">test/RunManagerTestApp.cpp</text>
</a>
</g>
<!-- Node26&#45;&gt;Node28 -->
<g id="edge80" class="edge"><title>Node26&#45;&gt;Node28</title>
<path fill="none" stroke="midnightblue" d="M2188.23,-229.546C2153.76,-219.186 2106.77,-205.067 2075.02,-195.523"/>
<polygon fill="midnightblue" stroke="midnightblue" points="2187.46,-232.97 2198.05,-232.497 2189.48,-226.267 2187.46,-232.97"/>
</g>
<!-- Node29&#45;&gt;Node11 -->
<g id="edge84" class="edge"><title>Node29&#45;&gt;Node11</title>
<path fill="none" stroke="midnightblue" d="M1981.95,-57.0919C1904.09,-46.4415 1791.27,-31.0088 1718.02,-20.989"/>
<polygon fill="midnightblue" stroke="midnightblue" points="1981.83,-60.609 1992.22,-58.4966 1982.78,-53.6735 1981.83,-60.609"/>
</g>
</g>
</svg>
