<?xml version="1.0" encoding="UTF-8" standalone="no"?>
<!DOCTYPE svg PUBLIC "-//W3C//DTD SVG 1.1//EN"
 "http://www.w3.org/Graphics/SVG/1.1/DTD/svg11.dtd">
<!-- Generated by graphviz version 2.26.3 (20100126.1600)
 -->
<!-- Title: G Pages: 1 -->
<svg width="294pt" height="548pt"
 viewBox="0.00 0.00 294.00 548.00" xmlns="http://www.w3.org/2000/svg" xmlns:xlink="http://www.w3.org/1999/xlink">
<g id="graph1" class="graph" transform="scale(1 1) rotate(0) translate(4 544)">
<title>G</title>
<polygon fill="white" stroke="white" points="-4,5 -4,-544 291,-544 291,5 -4,5"/>
<!-- Node1 -->
<g id="node1" class="node"><title>Node1</title>
<polygon fill="#bfbfbf" stroke="black" points="41.5,-1 41.5,-233 144.5,-233 144.5,-1 41.5,-1"/>
<text text-anchor="middle" x="93" y="-220" font-family="Helvetica,sans-Serif" font-size="10.00">NeuralNetwork</text>
<polyline fill="none" stroke="black" points="41.5,-212 144.5,-212 "/>
<text text-anchor="start" x="49.5" y="-199" font-family="Helvetica,sans-Serif" font-size="10.00"># _nIn</text>
<text text-anchor="start" x="49.5" y="-186" font-family="Helvetica,sans-Serif" font-size="10.00"># _nOut</text>
<text text-anchor="start" x="49.5" y="-173" font-family="Helvetica,sans-Serif" font-size="10.00"># _nHidden</text>
<text text-anchor="start" x="49.5" y="-160" font-family="Helvetica,sans-Serif" font-size="10.00"># _nNeurons</text>
<text text-anchor="start" x="49.5" y="-147" font-family="Helvetica,sans-Serif" font-size="10.00"># _scale</text>
<text text-anchor="start" x="49.5" y="-134" font-family="Helvetica,sans-Serif" font-size="10.00"># _hiddenVals</text>
<polyline fill="none" stroke="black" points="41.5,-126 144.5,-126 "/>
<text text-anchor="start" x="49.5" y="-113" font-family="Helvetica,sans-Serif" font-size="10.00">+ NeuralNetwork()</text>
<text text-anchor="start" x="49.5" y="-100" font-family="Helvetica,sans-Serif" font-size="10.00">+ integral()</text>
<text text-anchor="start" x="49.5" y="-87" font-family="Helvetica,sans-Serif" font-size="10.00">+ volume()</text>
<text text-anchor="start" x="49.5" y="-74" font-family="Helvetica,sans-Serif" font-size="10.00">+ drawInt()</text>
<text text-anchor="start" x="49.5" y="-61" font-family="Helvetica,sans-Serif" font-size="10.00">+ intensity()</text>
<text text-anchor="start" x="49.5" y="-48" font-family="Helvetica,sans-Serif" font-size="10.00">+ fillStartParVec()</text>
<text text-anchor="start" x="49.5" y="-35" font-family="Helvetica,sans-Serif" font-size="10.00">+ ~NeuralNetwork()</text>
<text text-anchor="start" x="49.5" y="-22" font-family="Helvetica,sans-Serif" font-size="10.00">&#45; OutValue()</text>
<text text-anchor="start" x="49.5" y="-9" font-family="Helvetica,sans-Serif" font-size="10.00">&#45; activatorFct()</text>
</g>
<!-- Node2 -->
<g id="node2" class="node"><title>Node2</title>
<a xlink:href="../../d9/d3e/classAmplitude.xhtml" target="_top" xlink:title="Physics Interface Base&#45;Class.">
<polygon fill="white" stroke="black" points="-0.5,-284.5 -0.5,-425.5 94.5,-425.5 94.5,-284.5 -0.5,-284.5"/>
<text text-anchor="middle" x="47" y="-412.5" font-family="Helvetica,sans-Serif" font-size="10.00">Amplitude</text>
<polyline fill="none" stroke="black" points="-0.5,-404.5 94.5,-404.5 "/>
<text text-anchor="middle" x="47" y="-391.5" font-family="Helvetica,sans-Serif" font-size="10.00"> </text>
<polyline fill="none" stroke="black" points="-0.5,-383.5 94.5,-383.5 "/>
<text text-anchor="start" x="7.5" y="-370.5" font-family="Helvetica,sans-Serif" font-size="10.00">+ Amplitude()</text>
<text text-anchor="start" x="7.5" y="-357.5" font-family="Helvetica,sans-Serif" font-size="10.00">+ ~Amplitude()</text>
<text text-anchor="start" x="7.5" y="-344.5" font-family="Helvetica,sans-Serif" font-size="10.00">+ integral()</text>
<text text-anchor="start" x="7.5" y="-331.5" font-family="Helvetica,sans-Serif" font-size="10.00">+ volume()</text>
<text text-anchor="start" x="7.5" y="-318.5" font-family="Helvetica,sans-Serif" font-size="10.00">+ intensity()</text>
<text text-anchor="start" x="7.5" y="-305.5" font-family="Helvetica,sans-Serif" font-size="10.00">+ fillStartParVec()</text>
<text text-anchor="start" x="7.5" y="-292.5" font-family="Helvetica,sans-Serif" font-size="10.00">+ functionTree()</text>
</a>
</g>
<!-- Node2&#45;&gt;Node1 -->
<g id="edge2" class="edge"><title>Node2&#45;&gt;Node1</title>
<path fill="none" stroke="midnightblue" d="M62.5964,-274.306C65.1441,-261.124 67.8276,-247.24 70.5019,-233.403"/>
<polygon fill="none" stroke="midnightblue" points="59.1383,-273.754 60.677,-284.237 66.0111,-275.082 59.1383,-273.754"/>
</g>
<!-- Node3 -->
<g id="node4" class="node"><title>Node3</title>
<polygon fill="white" stroke="#bfbfbf" points="112,-323.5 112,-386.5 286,-386.5 286,-323.5 112,-323.5"/>
<text text-anchor="middle" x="199" y="-373.5" font-family="Helvetica,sans-Serif" font-size="10.00">std::vector&lt; std::vector&lt; double &gt; &gt;</text>
<polyline fill="none" stroke="#bfbfbf" points="112,-365.5 286,-365.5 "/>
<text text-anchor="start" x="120" y="-352.5" font-family="Helvetica,sans-Serif" font-size="10.00">&#45; elements</text>
<polyline fill="none" stroke="#bfbfbf" points="112,-344.5 286,-344.5 "/>
<text text-anchor="middle" x="199" y="-331.5" font-family="Helvetica,sans-Serif" font-size="10.00"> </text>
</g>
<!-- Node3&#45;&gt;Node1 -->
<g id="edge4" class="edge"><title>Node3&#45;&gt;Node1</title>
<path fill="none" stroke="#9a32cd" stroke-dasharray="5,2" d="M180.793,-314.12C170.702,-291.464 157.597,-262.039 144.604,-232.865"/>
<polygon fill="#9a32cd" stroke="#9a32cd" points="184.924,-323.395 176.745,-316.091 182.89,-318.828 180.855,-314.26 180.855,-314.26 180.855,-314.26 182.89,-318.828 184.966,-312.43 184.924,-323.395 184.924,-323.395"/>
<text text-anchor="middle" x="185" y="-256.5" font-family="Helvetica,sans-Serif" font-size="10.00">_hiddenVals</text>
</g>
<!-- Node4 -->
<g id="node6" class="node"><title>Node4</title>
<polygon fill="white" stroke="#bfbfbf" points="144,-476.5 144,-539.5 254,-539.5 254,-476.5 144,-476.5"/>
<text text-anchor="middle" x="199" y="-526.5" font-family="Helvetica,sans-Serif" font-size="10.00">std::vector&lt; double &gt;</text>
<polyline fill="none" stroke="#bfbfbf" points="144,-518.5 254,-518.5 "/>
<text text-anchor="start" x="152" y="-505.5" font-family="Helvetica,sans-Serif" font-size="10.00">&#45; elements</text>
<polyline fill="none" stroke="#bfbfbf" points="144,-497.5 254,-497.5 "/>
<text text-anchor="middle" x="199" y="-484.5" font-family="Helvetica,sans-Serif" font-size="10.00"> </text>
</g>
<!-- Node4&#45;&gt;Node3 -->
<g id="edge6" class="edge"><title>Node4&#45;&gt;Node3</title>
<path fill="none" stroke="#9a32cd" stroke-dasharray="5,2" d="M199,-465.984C199,-440.927 199,-409.628 199,-386.661"/>
<polygon fill="#9a32cd" stroke="#9a32cd" points="199,-476.298 194.5,-466.298 199,-471.298 199,-466.298 199,-466.298 199,-466.298 199,-471.298 203.5,-466.298 199,-476.298 199,-476.298"/>
<text text-anchor="middle" x="219" y="-448.5" font-family="Helvetica,sans-Serif" font-size="10.00">elements</text>
</g>
</g>
</svg>
