<?xml version="1.0" encoding="UTF-8" standalone="no"?>
<!DOCTYPE svg PUBLIC "-//W3C//DTD SVG 1.1//EN"
 "http://www.w3.org/Graphics/SVG/1.1/DTD/svg11.dtd">
<!-- Generated by graphviz version 2.26.3 (20100126.1600)
 -->
<!-- Title: G Pages: 1 -->
<svg width="1342pt" height="378pt"
 viewBox="0.00 0.00 1342.00 378.00" xmlns="http://www.w3.org/2000/svg" xmlns:xlink="http://www.w3.org/1999/xlink">
<g id="graph1" class="graph" transform="scale(1 1) rotate(0) translate(4 374)">
<title>G</title>
<polygon fill="white" stroke="white" points="-4,5 -4,-374 1339,-374 1339,5 -4,5"/>
<!-- Node1 -->
<g id="node1" class="node"><title>Node1</title>
<polygon fill="#bfbfbf" stroke="black" points="928,-348.5 928,-369.5 1168,-369.5 1168,-348.5 928,-348.5"/>
<text text-anchor="middle" x="1048" y="-356.5" font-family="Helvetica,sans-Serif" font-size="10.00">Physics/AmplitudeSum/AmpSumOfAmplitudes.cpp</text>
</g>
<!-- Node2 -->
<g id="node3" class="node"><title>Node2</title>
<polygon fill="white" stroke="#bfbfbf" points="419,-290.5 419,-311.5 463,-311.5 463,-290.5 419,-290.5"/>
<text text-anchor="middle" x="441" y="-298.5" font-family="Helvetica,sans-Serif" font-size="10.00">cmath</text>
</g>
<!-- Node1&#45;&gt;Node2 -->
<g id="edge2" class="edge"><title>Node1&#45;&gt;Node2</title>
<path fill="none" stroke="midnightblue" d="M927.72,-352.861C789.913,-345.205 571.499,-331.009 473.134,-311.705"/>
<polygon fill="midnightblue" stroke="midnightblue" points="473.653,-308.239 463.151,-309.637 472.233,-315.093 473.653,-308.239"/>
</g>
<!-- Node3 -->
<g id="node5" class="node"><title>Node3</title>
<a xlink:href="../../db/dce/Parameter_8hpp.xhtml" target="_top" xlink:title="This class implements some internal container of parameters.">
<polygon fill="white" stroke="black" points="917,-116.5 917,-137.5 1021,-137.5 1021,-116.5 917,-116.5"/>
<text text-anchor="middle" x="969" y="-124.5" font-family="Helvetica,sans-Serif" font-size="10.00">Core/Parameter.hpp</text>
</a>
</g>
<!-- Node1&#45;&gt;Node3 -->
<g id="edge4" class="edge"><title>Node1&#45;&gt;Node3</title>
<path fill="none" stroke="midnightblue" d="M1049.67,-348.128C1053.71,-318.177 1061.45,-232.796 1029,-174 1021.97,-161.26 1009.91,-150.793 998.433,-142.997"/>
<polygon fill="midnightblue" stroke="midnightblue" points="1000.19,-139.964 989.867,-137.562 996.436,-145.875 1000.19,-139.964"/>
</g>
<!-- Node15 -->
<g id="node31" class="node"><title>Node15</title>
<polygon fill="white" stroke="#bfbfbf" points="1075.5,-290.5 1075.5,-311.5 1134.5,-311.5 1134.5,-290.5 1075.5,-290.5"/>
<text text-anchor="middle" x="1105" y="-298.5" font-family="Helvetica,sans-Serif" font-size="10.00">functional</text>
</g>
<!-- Node1&#45;&gt;Node15 -->
<g id="edge32" class="edge"><title>Node1&#45;&gt;Node15</title>
<path fill="none" stroke="midnightblue" d="M1058.45,-348.362C1066.57,-340.104 1078,-328.472 1087.5,-318.803"/>
<polygon fill="midnightblue" stroke="midnightblue" points="1090.1,-321.156 1094.61,-311.571 1085.11,-316.25 1090.1,-321.156"/>
</g>
<!-- Node16 -->
<g id="node33" class="node"><title>Node16</title>
<polygon fill="white" stroke="#bfbfbf" points="1152,-290.5 1152,-311.5 1200,-311.5 1200,-290.5 1152,-290.5"/>
<text text-anchor="middle" x="1176" y="-298.5" font-family="Helvetica,sans-Serif" font-size="10.00">qft++.h</text>
</g>
<!-- Node1&#45;&gt;Node16 -->
<g id="edge34" class="edge"><title>Node1&#45;&gt;Node16</title>
<path fill="none" stroke="midnightblue" d="M1071.18,-348.497C1091.35,-339.356 1120.81,-326.008 1143.36,-315.788"/>
<polygon fill="midnightblue" stroke="midnightblue" points="1144.9,-318.937 1152.56,-311.621 1142.01,-312.561 1144.9,-318.937"/>
</g>
<!-- Node17 -->
<g id="node35" class="node"><title>Node17</title>
<a xlink:href="../../d4/d9e/AmpSumOfAmplitudes_8hpp.xhtml" target="_top" xlink:title="Physics/AmplitudeSum/AmpSumOfAmplitudes.hpp">
<polygon fill="white" stroke="black" points="481,-290.5 481,-311.5 721,-311.5 721,-290.5 481,-290.5"/>
<text text-anchor="middle" x="601" y="-298.5" font-family="Helvetica,sans-Serif" font-size="10.00">Physics/AmplitudeSum/AmpSumOfAmplitudes.hpp</text>
</a>
</g>
<!-- Node1&#45;&gt;Node17 -->
<g id="edge36" class="edge"><title>Node1&#45;&gt;Node17</title>
<path fill="none" stroke="midnightblue" d="M967.052,-348.497C889.604,-338.448 772.962,-323.313 692.253,-312.84"/>
<polygon fill="midnightblue" stroke="midnightblue" points="692.467,-309.339 682.1,-311.523 691.567,-316.281 692.467,-309.339"/>
</g>
<!-- Node4 -->
<g id="node7" class="node"><title>Node4</title>
<polygon fill="white" stroke="#bfbfbf" points="676,-58.5 676,-79.5 730,-79.5 730,-58.5 676,-58.5"/>
<text text-anchor="middle" x="703" y="-66.5" font-family="Helvetica,sans-Serif" font-size="10.00">iostream</text>
</g>
<!-- Node3&#45;&gt;Node4 -->
<g id="edge6" class="edge"><title>Node3&#45;&gt;Node4</title>
<path fill="none" stroke="midnightblue" d="M920.829,-116.497C868.803,-105.153 787.055,-87.3278 739.896,-77.0451"/>
<polygon fill="midnightblue" stroke="midnightblue" points="740.616,-73.6198 730.1,-74.9089 739.124,-80.4591 740.616,-73.6198"/>
</g>
<!-- Node5 -->
<g id="node9" class="node"><title>Node5</title>
<polygon fill="white" stroke="#bfbfbf" points="1184.5,-0.5 1184.5,-21.5 1225.5,-21.5 1225.5,-0.5 1184.5,-0.5"/>
<text text-anchor="middle" x="1205" y="-8.5" font-family="Helvetica,sans-Serif" font-size="10.00">string</text>
</g>
<!-- Node3&#45;&gt;Node5 -->
<g id="edge8" class="edge"><title>Node3&#45;&gt;Node5</title>
<path fill="none" stroke="midnightblue" d="M1021.41,-121.003C1075.71,-113.813 1155.8,-100.154 1179,-80 1193,-67.8392 1199.48,-47.3508 1202.47,-31.8513"/>
<polygon fill="midnightblue" stroke="midnightblue" points="1205.98,-32.0617 1204.09,-21.6373 1199.06,-30.9669 1205.98,-32.0617"/>
</g>
<!-- Node6 -->
<g id="node11" class="node"><title>Node6</title>
<polygon fill="white" stroke="#bfbfbf" points="940,-58.5 940,-79.5 992,-79.5 992,-58.5 940,-58.5"/>
<text text-anchor="middle" x="966" y="-66.5" font-family="Helvetica,sans-Serif" font-size="10.00">sstream</text>
</g>
<!-- Node3&#45;&gt;Node6 -->
<g id="edge10" class="edge"><title>Node3&#45;&gt;Node6</title>
<path fill="none" stroke="midnightblue" d="M968.45,-116.362C968.065,-108.922 967.538,-98.7427 967.072,-89.7276"/>
<polygon fill="midnightblue" stroke="midnightblue" points="970.559,-89.3765 966.547,-79.5707 963.568,-89.7381 970.559,-89.3765"/>
</g>
<!-- Node7 -->
<g id="node13" class="node"><title>Node7</title>
<polygon fill="white" stroke="#bfbfbf" points="864.5,-58.5 864.5,-79.5 917.5,-79.5 917.5,-58.5 864.5,-58.5"/>
<text text-anchor="middle" x="891" y="-66.5" font-family="Helvetica,sans-Serif" font-size="10.00">complex</text>
</g>
<!-- Node3&#45;&gt;Node7 -->
<g id="edge12" class="edge"><title>Node3&#45;&gt;Node7</title>
<path fill="none" stroke="midnightblue" d="M954.694,-116.362C943.149,-107.777 926.7,-95.5459 913.41,-85.6636"/>
<polygon fill="midnightblue" stroke="midnightblue" points="915.329,-82.7291 905.216,-79.5707 911.152,-88.3463 915.329,-82.7291"/>
</g>
<!-- Node8 -->
<g id="node15" class="node"><title>Node8</title>
<a xlink:href="../../d8/def/AbsParameter_8hpp.xhtml" target="_top" xlink:title="This class defines the internal container of a parameter.">
<polygon fill="white" stroke="black" points="1048,-58.5 1048,-79.5 1170,-79.5 1170,-58.5 1048,-58.5"/>
<text text-anchor="middle" x="1109" y="-66.5" font-family="Helvetica,sans-Serif" font-size="10.00">Core/AbsParameter.hpp</text>
</a>
</g>
<!-- Node3&#45;&gt;Node8 -->
<g id="edge14" class="edge"><title>Node3&#45;&gt;Node8</title>
<path fill="none" stroke="midnightblue" d="M994.353,-116.497C1016.61,-107.275 1049.21,-93.7695 1073.96,-83.5153"/>
<polygon fill="midnightblue" stroke="midnightblue" points="1075.46,-86.6822 1083.36,-79.6212 1072.78,-80.2152 1075.46,-86.6822"/>
</g>
<!-- Node13 -->
<g id="node26" class="node"><title>Node13</title>
<a xlink:href="../../d2/de9/Exceptions_8hpp.xhtml" target="_top" xlink:title="This class defines the ComPWA exception base&#45;class and provides a set of standard exceptions...">
<polygon fill="white" stroke="black" points="1226,-58.5 1226,-79.5 1334,-79.5 1334,-58.5 1226,-58.5"/>
<text text-anchor="middle" x="1280" y="-66.5" font-family="Helvetica,sans-Serif" font-size="10.00">Core/Exceptions.hpp</text>
</a>
</g>
<!-- Node3&#45;&gt;Node13 -->
<g id="edge26" class="edge"><title>Node3&#45;&gt;Node13</title>
<path fill="none" stroke="midnightblue" d="M1021.05,-117.292C1074.64,-107.299 1158.22,-91.711 1215.86,-80.9622"/>
<polygon fill="midnightblue" stroke="midnightblue" points="1216.76,-84.3548 1225.95,-79.0807 1215.47,-77.4734 1216.76,-84.3548"/>
</g>
<!-- Node8&#45;&gt;Node5 -->
<g id="edge16" class="edge"><title>Node8&#45;&gt;Node5</title>
<path fill="none" stroke="midnightblue" d="M1126.61,-58.3619C1141.22,-49.532 1162.22,-36.844 1178.81,-26.8224"/>
<polygon fill="midnightblue" stroke="midnightblue" points="1180.75,-29.7376 1187.5,-21.5707 1177.13,-23.7461 1180.75,-29.7376"/>
</g>
<!-- Node9 -->
<g id="node18" class="node"><title>Node9</title>
<polygon fill="white" stroke="#bfbfbf" points="336,-0.5 336,-21.5 380,-21.5 380,-0.5 336,-0.5"/>
<text text-anchor="middle" x="358" y="-8.5" font-family="Helvetica,sans-Serif" font-size="10.00">vector</text>
</g>
<!-- Node8&#45;&gt;Node9 -->
<g id="edge18" class="edge"><title>Node8&#45;&gt;Node9</title>
<path fill="none" stroke="midnightblue" d="M1047.91,-62.4714C1032.6,-60.9196 1016.21,-59.33 1001,-58 766.941,-37.5303 484.408,-19.0295 390.261,-13.0313"/>
<polygon fill="midnightblue" stroke="midnightblue" points="390.431,-9.5351 380.229,-12.3941 389.987,-16.521 390.431,-9.5351"/>
</g>
<!-- Node10 -->
<g id="node20" class="node"><title>Node10</title>
<polygon fill="white" stroke="#bfbfbf" points="909,-0.5 909,-21.5 961,-21.5 961,-0.5 909,-0.5"/>
<text text-anchor="middle" x="935" y="-8.5" font-family="Helvetica,sans-Serif" font-size="10.00">memory</text>
</g>
<!-- Node8&#45;&gt;Node10 -->
<g id="edge20" class="edge"><title>Node8&#45;&gt;Node10</title>
<path fill="none" stroke="midnightblue" d="M1077.49,-58.4966C1047.44,-48.4814 1002.24,-33.4147 970.839,-22.9464"/>
<polygon fill="midnightblue" stroke="midnightblue" points="971.758,-19.5634 961.164,-19.7214 969.544,-26.2042 971.758,-19.5634"/>
</g>
<!-- Node11 -->
<g id="node22" class="node"><title>Node11</title>
<polygon fill="white" stroke="#bfbfbf" points="1111,-0.5 1111,-21.5 1167,-21.5 1167,-0.5 1111,-0.5"/>
<text text-anchor="middle" x="1139" y="-8.5" font-family="Helvetica,sans-Serif" font-size="10.00">algorithm</text>
</g>
<!-- Node8&#45;&gt;Node11 -->
<g id="edge22" class="edge"><title>Node8&#45;&gt;Node11</title>
<path fill="none" stroke="midnightblue" d="M1114.5,-58.3619C1118.52,-50.5949 1124.08,-39.8426 1128.89,-30.5458"/>
<polygon fill="midnightblue" stroke="midnightblue" points="1132.05,-32.0608 1133.53,-21.5707 1125.83,-28.8448 1132.05,-32.0608"/>
</g>
<!-- Node12 -->
<g id="node24" class="node"><title>Node12</title>
<a xlink:href="../../d9/d91/ParObserver_8hpp.xhtml" target="_top" xlink:title="For the use in the function tree, the observer pattern is used.">
<polygon fill="white" stroke="black" points="979,-0.5 979,-21.5 1093,-21.5 1093,-0.5 979,-0.5"/>
<text text-anchor="middle" x="1036" y="-8.5" font-family="Helvetica,sans-Serif" font-size="10.00">Core/ParObserver.hpp</text>
</a>
</g>
<!-- Node8&#45;&gt;Node12 -->
<g id="edge24" class="edge"><title>Node8&#45;&gt;Node12</title>
<path fill="none" stroke="midnightblue" d="M1095.61,-58.3619C1084.91,-49.859 1069.7,-37.7785 1057.33,-27.9466"/>
<polygon fill="midnightblue" stroke="midnightblue" points="1059.31,-25.0511 1049.3,-21.5707 1054.96,-30.5318 1059.31,-25.0511"/>
</g>
<!-- Node13&#45;&gt;Node5 -->
<g id="edge30" class="edge"><title>Node13&#45;&gt;Node5</title>
<path fill="none" stroke="midnightblue" d="M1266.24,-58.3619C1255.25,-49.859 1239.63,-37.7785 1226.91,-27.9466"/>
<polygon fill="midnightblue" stroke="midnightblue" points="1228.72,-24.9195 1218.67,-21.5707 1224.44,-30.4569 1228.72,-24.9195"/>
</g>
<!-- Node14 -->
<g id="node28" class="node"><title>Node14</title>
<polygon fill="white" stroke="#bfbfbf" points="1250.5,-0.5 1250.5,-21.5 1309.5,-21.5 1309.5,-0.5 1250.5,-0.5"/>
<text text-anchor="middle" x="1280" y="-8.5" font-family="Helvetica,sans-Serif" font-size="10.00">exception</text>
</g>
<!-- Node13&#45;&gt;Node14 -->
<g id="edge28" class="edge"><title>Node13&#45;&gt;Node14</title>
<path fill="none" stroke="midnightblue" d="M1280,-58.3619C1280,-50.9219 1280,-40.7427 1280,-31.7276"/>
<polygon fill="midnightblue" stroke="midnightblue" points="1283.5,-31.5706 1280,-21.5707 1276.5,-31.5707 1283.5,-31.5706"/>
</g>
<!-- Node17&#45;&gt;Node9 -->
<g id="edge108" class="edge"><title>Node17&#45;&gt;Node9</title>
<path fill="none" stroke="midnightblue" d="M483.766,-290.498C383.254,-280.941 246.469,-266.464 193,-254 104.284,-233.319 0,-276.095 0,-185 0,-185 0,-185 0,-127 0,-58.8031 238.075,-24.6916 325.932,-14.4251"/>
<polygon fill="midnightblue" stroke="midnightblue" points="326.337,-17.9017 335.876,-13.2906 325.543,-10.9469 326.337,-17.9017"/>
</g>
<!-- Node17&#45;&gt;Node10 -->
<g id="edge110" class="edge"><title>Node17&#45;&gt;Node10</title>
<path fill="none" stroke="midnightblue" d="M700.716,-290.494C814.031,-276.275 988.545,-246.673 1029,-196 1068.05,-147.091 1041.69,-105.55 1001,-58 990.549,-45.7876 976.279,-35.1135 963.681,-27.0375"/>
<polygon fill="midnightblue" stroke="midnightblue" points="965.234,-23.8839 954.881,-21.6312 961.57,-29.8482 965.234,-23.8839"/>
</g>
<!-- Node18 -->
<g id="node37" class="node"><title>Node18</title>
<a xlink:href="../../d3/d76/AmpAbsDynamicalFunction_8hpp.xhtml" target="_top" xlink:title="Physics/AmplitudeSum/AmpAbsDynamicalFunction.hpp">
<polygon fill="white" stroke="black" points="758,-174.5 758,-195.5 1020,-195.5 1020,-174.5 758,-174.5"/>
<text text-anchor="middle" x="889" y="-182.5" font-family="Helvetica,sans-Serif" font-size="10.00">Physics/AmplitudeSum/AmpAbsDynamicalFunction.hpp</text>
</a>
</g>
<!-- Node17&#45;&gt;Node18 -->
<g id="edge38" class="edge"><title>Node17&#45;&gt;Node18</title>
<path fill="none" stroke="midnightblue" d="M627.322,-290.398C679.172,-269.514 794.573,-223.033 853.252,-199.398"/>
<polygon fill="midnightblue" stroke="midnightblue" points="854.876,-202.518 862.844,-195.535 852.26,-196.025 854.876,-202.518"/>
</g>
<!-- Node19 -->
<g id="node42" class="node"><title>Node19</title>
<a xlink:href="../../d8/dd4/DataPoint_8hpp.xhtml" target="_top" xlink:title="dataPoint stores kinematic information of a dalitz plot">
<polygon fill="white" stroke="black" points="452.5,-116.5 452.5,-137.5 555.5,-137.5 555.5,-116.5 452.5,-116.5"/>
<text text-anchor="middle" x="504" y="-124.5" font-family="Helvetica,sans-Serif" font-size="10.00">Core/DataPoint.hpp</text>
</a>
</g>
<!-- Node17&#45;&gt;Node19 -->
<g id="edge106" class="edge"><title>Node17&#45;&gt;Node19</title>
<path fill="none" stroke="midnightblue" d="M590.847,-290.257C574.302,-272.19 541.517,-233.963 523,-196 515.521,-180.667 510.6,-161.934 507.643,-147.858"/>
<polygon fill="midnightblue" stroke="midnightblue" points="511.018,-146.875 505.682,-137.722 504.145,-148.205 511.018,-146.875"/>
</g>
<!-- Node24 -->
<g id="node56" class="node"><title>Node24</title>
<a xlink:href="../../d2/d45/AmpRelBreitWignerRes_8hpp.xhtml" target="_top" xlink:title="Physics/AmplitudeSum/AmpRelBreitWignerRes.hpp">
<polygon fill="white" stroke="black" points="231.5,-232.5 231.5,-253.5 476.5,-253.5 476.5,-232.5 231.5,-232.5"/>
<text text-anchor="middle" x="354" y="-240.5" font-family="Helvetica,sans-Serif" font-size="10.00">Physics/AmplitudeSum/AmpRelBreitWignerRes.hpp</text>
</a>
</g>
<!-- Node17&#45;&gt;Node24 -->
<g id="edge64" class="edge"><title>Node17&#45;&gt;Node24</title>
<path fill="none" stroke="midnightblue" d="M556.27,-290.497C514.782,-280.755 452.94,-266.233 408.566,-255.813"/>
<polygon fill="midnightblue" stroke="midnightblue" points="409.349,-252.402 398.814,-253.523 407.749,-259.216 409.349,-252.402"/>
</g>
<!-- Node28 -->
<g id="node76" class="node"><title>Node28</title>
<a xlink:href="../../d4/d12/AmpWigner_8hpp.xhtml" target="_top" xlink:title="Physics/AmplitudeSum/AmpWigner.hpp">
<polygon fill="white" stroke="black" points="71.5,-174.5 71.5,-195.5 262.5,-195.5 262.5,-174.5 71.5,-174.5"/>
<text text-anchor="middle" x="167" y="-182.5" font-family="Helvetica,sans-Serif" font-size="10.00">Physics/AmplitudeSum/AmpWigner.hpp</text>
</a>
</g>
<!-- Node17&#45;&gt;Node28 -->
<g id="edge104" class="edge"><title>Node17&#45;&gt;Node28</title>
<path fill="none" stroke="midnightblue" d="M480.884,-290.582C378.823,-280.99 245.374,-266.408 223,-254 202.665,-242.722 186.864,-220.807 177.306,-204.689"/>
<polygon fill="midnightblue" stroke="midnightblue" points="180.123,-202.557 172.177,-195.549 174.019,-205.983 180.123,-202.557"/>
</g>
<!-- Node18&#45;&gt;Node3 -->
<g id="edge44" class="edge"><title>Node18&#45;&gt;Node3</title>
<path fill="none" stroke="midnightblue" d="M903.673,-174.362C915.514,-165.777 932.385,-153.546 946.016,-143.664"/>
<polygon fill="midnightblue" stroke="midnightblue" points="948.378,-146.274 954.42,-137.571 944.269,-140.607 948.378,-146.274"/>
</g>
<!-- Node18&#45;&gt;Node7 -->
<g id="edge42" class="edge"><title>Node18&#45;&gt;Node7</title>
<path fill="none" stroke="midnightblue" d="M889.185,-174.295C889.515,-155.131 890.213,-114.654 890.641,-89.8434"/>
<polygon fill="midnightblue" stroke="midnightblue" points="894.143,-89.7381 890.816,-79.6792 887.144,-89.6173 894.143,-89.7381"/>
</g>
<!-- Node18&#45;&gt;Node9 -->
<g id="edge40" class="edge"><title>Node18&#45;&gt;Node9</title>
<path fill="none" stroke="midnightblue" d="M880.533,-174.495C859.594,-149.36 802.453,-85.7788 739,-58 676.48,-30.63 470.143,-16.9716 390.116,-12.6034"/>
<polygon fill="midnightblue" stroke="midnightblue" points="390.298,-9.10816 380.125,-12.0708 389.925,-16.0982 390.298,-9.10816"/>
</g>
<!-- Node18&#45;&gt;Node19 -->
<g id="edge46" class="edge"><title>Node18&#45;&gt;Node19</title>
<path fill="none" stroke="midnightblue" d="M819.279,-174.497C746.889,-163.591 634.741,-146.696 565.536,-136.27"/>
<polygon fill="midnightblue" stroke="midnightblue" points="566.057,-132.809 555.647,-134.781 565.014,-139.731 566.057,-132.809"/>
</g>
<!-- Node19&#45;&gt;Node9 -->
<g id="edge52" class="edge"><title>Node19&#45;&gt;Node9</title>
<path fill="none" stroke="midnightblue" d="M507.305,-116.465C511.201,-101.814 515.665,-75.1567 503,-58 489.496,-39.707 428.785,-24.7949 390.329,-16.9675"/>
<polygon fill="midnightblue" stroke="midnightblue" points="390.619,-13.4572 380.13,-14.9507 389.261,-20.3242 390.619,-13.4572"/>
</g>
<!-- Node20 -->
<g id="node44" class="node"><title>Node20</title>
<polygon fill="white" stroke="#bfbfbf" points="613.5,-58.5 613.5,-79.5 658.5,-79.5 658.5,-58.5 613.5,-58.5"/>
<text text-anchor="middle" x="636" y="-66.5" font-family="Helvetica,sans-Serif" font-size="10.00">cstdlib</text>
</g>
<!-- Node19&#45;&gt;Node20 -->
<g id="edge48" class="edge"><title>Node19&#45;&gt;Node20</title>
<path fill="none" stroke="midnightblue" d="M527.904,-116.497C549.191,-107.143 580.506,-93.3839 603.958,-83.0791"/>
<polygon fill="midnightblue" stroke="midnightblue" points="605.41,-86.2642 613.157,-79.0371 602.594,-79.8556 605.41,-86.2642"/>
</g>
<!-- Node21 -->
<g id="node46" class="node"><title>Node21</title>
<polygon fill="white" stroke="#bfbfbf" points="549.5,-58.5 549.5,-79.5 596.5,-79.5 596.5,-58.5 549.5,-58.5"/>
<text text-anchor="middle" x="573" y="-66.5" font-family="Helvetica,sans-Serif" font-size="10.00">math.h</text>
</g>
<!-- Node19&#45;&gt;Node21 -->
<g id="edge50" class="edge"><title>Node19&#45;&gt;Node21</title>
<path fill="none" stroke="midnightblue" d="M516.656,-116.362C526.674,-107.941 540.867,-96.0105 552.501,-86.2308"/>
<polygon fill="midnightblue" stroke="midnightblue" points="555.022,-88.6844 560.425,-79.5707 550.518,-83.326 555.022,-88.6844"/>
</g>
<!-- Node22 -->
<g id="node49" class="node"><title>Node22</title>
<a xlink:href="../../d4/d37/Kinematics_8hpp.xhtml" target="_top" xlink:title="Core/Kinematics.hpp">
<polygon fill="white" stroke="black" points="386,-58.5 386,-79.5 494,-79.5 494,-58.5 386,-58.5"/>
<text text-anchor="middle" x="440" y="-66.5" font-family="Helvetica,sans-Serif" font-size="10.00">Core/Kinematics.hpp</text>
</a>
</g>
<!-- Node19&#45;&gt;Node22 -->
<g id="edge54" class="edge"><title>Node19&#45;&gt;Node22</title>
<path fill="none" stroke="midnightblue" d="M486.897,-116.362C476.324,-108.104 463.183,-96.4725 453.363,-86.8029"/>
<polygon fill="midnightblue" stroke="midnightblue" points="455.799,-84.2875 446.312,-79.5707 450.787,-89.1741 455.799,-84.2875"/>
</g>
<!-- Node22&#45;&gt;Node9 -->
<g id="edge56" class="edge"><title>Node22&#45;&gt;Node9</title>
<path fill="none" stroke="midnightblue" d="M424.96,-58.3619C412.707,-49.6955 395.201,-37.3126 381.161,-27.3819"/>
<polygon fill="midnightblue" stroke="midnightblue" points="383.13,-24.4879 372.945,-21.5707 379.088,-30.2028 383.13,-24.4879"/>
</g>
<!-- Node22&#45;&gt;Node10 -->
<g id="edge58" class="edge"><title>Node22&#45;&gt;Node10</title>
<path fill="none" stroke="midnightblue" d="M494.39,-62.6271C596.13,-50.7059 812.706,-25.3294 898.706,-15.2526"/>
<polygon fill="midnightblue" stroke="midnightblue" points="899.243,-18.7138 908.767,-14.0737 898.428,-11.7613 899.243,-18.7138"/>
</g>
<!-- Node22&#45;&gt;Node19 -->
<g id="edge62" class="edge"><title>Node22&#45;&gt;Node19</title>
<path fill="none" stroke="midnightblue" d="M457.016,-79.5707C467.575,-87.8098 480.718,-99.4377 490.556,-109.118"/>
<polygon fill="midnightblue" stroke="midnightblue" points="488.136,-111.649 497.625,-116.362 493.146,-106.761 488.136,-111.649"/>
</g>
<!-- Node23 -->
<g id="node53" class="node"><title>Node23</title>
<polygon fill="white" stroke="#bfbfbf" points="102.5,-0.5 102.5,-21.5 203.5,-21.5 203.5,-0.5 102.5,-0.5"/>
<text text-anchor="middle" x="153" y="-8.5" font-family="Helvetica,sans-Serif" font-size="10.00">boost/log/trivial.hpp</text>
</g>
<!-- Node22&#45;&gt;Node23 -->
<g id="edge60" class="edge"><title>Node22&#45;&gt;Node23</title>
<path fill="none" stroke="midnightblue" d="M388.026,-58.4966C338.96,-48.5809 265.393,-33.7135 213.664,-23.2597"/>
<polygon fill="midnightblue" stroke="midnightblue" points="214.119,-19.7808 203.623,-21.2305 212.732,-26.6421 214.119,-19.7808"/>
</g>
<!-- Node24&#45;&gt;Node9 -->
<g id="edge66" class="edge"><title>Node24&#45;&gt;Node9</title>
<path fill="none" stroke="midnightblue" d="M247.29,-232.482C169.333,-223.691 75.1924,-210.32 63,-196 14.3071,-138.812 -35.339,-179.135 164,-58 215.11,-26.9414 285.474,-16.3986 325.906,-12.8257"/>
<polygon fill="midnightblue" stroke="midnightblue" points="326.301,-16.3054 335.993,-12.0251 325.747,-9.32735 326.301,-16.3054"/>
</g>
<!-- Node24&#45;&gt;Node18 -->
<g id="edge68" class="edge"><title>Node24&#45;&gt;Node18</title>
<path fill="none" stroke="midnightblue" d="M450.884,-232.497C544.24,-222.376 685.176,-207.097 781.842,-196.617"/>
<polygon fill="midnightblue" stroke="midnightblue" points="782.369,-200.081 791.934,-195.523 781.615,-193.121 782.369,-200.081"/>
</g>
<!-- Node25 -->
<g id="node60" class="node"><title>Node25</title>
<a xlink:href="../../d6/d6b/AmpKinematics_8hpp.xhtml" target="_top" xlink:title="Physics/AmplitudeSum/AmpKinematics.hpp">
<polygon fill="white" stroke="black" points="531.5,-174.5 531.5,-195.5 740.5,-195.5 740.5,-174.5 531.5,-174.5"/>
<text text-anchor="middle" x="636" y="-182.5" font-family="Helvetica,sans-Serif" font-size="10.00">Physics/AmplitudeSum/AmpKinematics.hpp</text>
</a>
</g>
<!-- Node24&#45;&gt;Node25 -->
<g id="edge70" class="edge"><title>Node24&#45;&gt;Node25</title>
<path fill="none" stroke="midnightblue" d="M405.068,-232.497C452.833,-222.673 524.229,-207.988 574.975,-197.551"/>
<polygon fill="midnightblue" stroke="midnightblue" points="575.746,-200.966 584.836,-195.523 574.336,-194.109 575.746,-200.966"/>
</g>
<!-- Node26 -->
<g id="node66" class="node"><title>Node26</title>
<a xlink:href="../../d0/d2a/AmpWigner2_8hpp.xhtml" target="_top" xlink:title="Angular distribution based on WignerD functions.">
<polygon fill="white" stroke="black" points="279.5,-174.5 279.5,-195.5 476.5,-195.5 476.5,-174.5 279.5,-174.5"/>
<text text-anchor="middle" x="378" y="-182.5" font-family="Helvetica,sans-Serif" font-size="10.00">Physics/AmplitudeSum/AmpWigner2.hpp</text>
</a>
</g>
<!-- Node24&#45;&gt;Node26 -->
<g id="edge80" class="edge"><title>Node24&#45;&gt;Node26</title>
<path fill="none" stroke="midnightblue" d="M358.402,-232.362C361.582,-224.677 365.972,-214.069 369.79,-204.84"/>
<polygon fill="midnightblue" stroke="midnightblue" points="373.036,-206.149 373.626,-195.571 366.568,-203.473 373.036,-206.149"/>
</g>
<!-- Node24&#45;&gt;Node28 -->
<g id="edge96" class="edge"><title>Node24&#45;&gt;Node28</title>
<path fill="none" stroke="midnightblue" d="M320.136,-232.497C289.518,-223 244.257,-208.962 210.876,-198.609"/>
<polygon fill="midnightblue" stroke="midnightblue" points="211.516,-195.143 200.928,-195.523 209.442,-201.828 211.516,-195.143"/>
</g>
<!-- Node25&#45;&gt;Node3 -->
<g id="edge78" class="edge"><title>Node25&#45;&gt;Node3</title>
<path fill="none" stroke="midnightblue" d="M696.304,-174.497C755.835,-164.128 846.451,-148.345 906.674,-137.856"/>
<polygon fill="midnightblue" stroke="midnightblue" points="907.558,-141.254 916.809,-136.09 906.356,-134.358 907.558,-141.254"/>
</g>
<!-- Node25&#45;&gt;Node4 -->
<g id="edge76" class="edge"><title>Node25&#45;&gt;Node4</title>
<path fill="none" stroke="midnightblue" d="M642.183,-174.295C653.451,-154.786 677.477,-113.188 691.727,-88.5177"/>
<polygon fill="midnightblue" stroke="midnightblue" points="694.861,-90.0891 696.832,-79.6792 688.799,-86.588 694.861,-90.0891"/>
</g>
<!-- Node25&#45;&gt;Node20 -->
<g id="edge72" class="edge"><title>Node25&#45;&gt;Node20</title>
<path fill="none" stroke="midnightblue" d="M636,-174.295C636,-155.131 636,-114.654 636,-89.8434"/>
<polygon fill="midnightblue" stroke="midnightblue" points="639.5,-89.6792 636,-79.6792 632.5,-89.6792 639.5,-89.6792"/>
</g>
<!-- Node25&#45;&gt;Node21 -->
<g id="edge74" class="edge"><title>Node25&#45;&gt;Node21</title>
<path fill="none" stroke="midnightblue" d="M630.186,-174.295C619.591,-154.786 596.999,-113.188 583.6,-88.5177"/>
<polygon fill="midnightblue" stroke="midnightblue" points="586.648,-86.7964 578.8,-79.6792 580.497,-90.1373 586.648,-86.7964"/>
</g>
<!-- Node26&#45;&gt;Node9 -->
<g id="edge82" class="edge"><title>Node26&#45;&gt;Node9</title>
<path fill="none" stroke="midnightblue" d="M376.779,-174.377C373.551,-146.293 364.744,-69.6735 360.437,-32.2027"/>
<polygon fill="midnightblue" stroke="midnightblue" points="363.875,-31.4626 359.256,-21.9277 356.921,-32.262 363.875,-31.4626"/>
</g>
<!-- Node26&#45;&gt;Node19 -->
<g id="edge94" class="edge"><title>Node26&#45;&gt;Node19</title>
<path fill="none" stroke="midnightblue" d="M400.818,-174.497C420.586,-165.397 449.413,-152.127 471.576,-141.925"/>
<polygon fill="midnightblue" stroke="midnightblue" points="473.306,-144.982 480.926,-137.621 470.379,-138.623 473.306,-144.982"/>
</g>
<!-- Node27 -->
<g id="node69" class="node"><title>Node27</title>
<a xlink:href="../../d7/dd9/DalitzKinematics_8hpp.xhtml" target="_top" xlink:title="Physics/DPKinematics/DalitzKinematics.hpp">
<polygon fill="white" stroke="black" points="142,-116.5 142,-137.5 356,-137.5 356,-116.5 142,-116.5"/>
<text text-anchor="middle" x="249" y="-124.5" font-family="Helvetica,sans-Serif" font-size="10.00">Physics/DPKinematics/DalitzKinematics.hpp</text>
</a>
</g>
<!-- Node26&#45;&gt;Node27 -->
<g id="edge84" class="edge"><title>Node26&#45;&gt;Node27</title>
<path fill="none" stroke="midnightblue" d="M354.639,-174.497C334.309,-165.356 304.622,-152.008 281.891,-141.788"/>
<polygon fill="midnightblue" stroke="midnightblue" points="283.179,-138.53 272.623,-137.621 280.308,-144.914 283.179,-138.53"/>
</g>
<!-- Node27&#45;&gt;Node4 -->
<g id="edge86" class="edge"><title>Node27&#45;&gt;Node4</title>
<path fill="none" stroke="midnightblue" d="M356.377,-120.403C438.833,-114.064 555.523,-102.339 665.664,-79.9896"/>
<polygon fill="midnightblue" stroke="midnightblue" points="666.531,-83.3846 675.618,-77.9368 665.117,-76.5289 666.531,-83.3846"/>
</g>
<!-- Node27&#45;&gt;Node9 -->
<g id="edge88" class="edge"><title>Node27&#45;&gt;Node9</title>
<path fill="none" stroke="midnightblue" d="M259.059,-116.295C277.715,-96.4408 317.868,-53.709 340.876,-29.2239"/>
<polygon fill="midnightblue" stroke="midnightblue" points="343.668,-31.3635 347.965,-21.6792 338.567,-26.57 343.668,-31.3635"/>
</g>
<!-- Node27&#45;&gt;Node22 -->
<g id="edge92" class="edge"><title>Node27&#45;&gt;Node22</title>
<path fill="none" stroke="midnightblue" d="M283.589,-116.497C314.996,-106.959 361.49,-92.8408 395.625,-82.475"/>
<polygon fill="midnightblue" stroke="midnightblue" points="396.795,-85.7778 405.346,-79.5231 394.761,-79.0798 396.795,-85.7778"/>
</g>
<!-- Node27&#45;&gt;Node23 -->
<g id="edge90" class="edge"><title>Node27&#45;&gt;Node23</title>
<path fill="none" stroke="midnightblue" d="M240.141,-116.295C223.781,-96.5271 188.653,-54.0801 168.347,-29.5443"/>
<polygon fill="midnightblue" stroke="midnightblue" points="170.91,-27.1517 161.838,-21.6792 165.517,-31.6147 170.91,-27.1517"/>
</g>
<!-- Node28&#45;&gt;Node9 -->
<g id="edge98" class="edge"><title>Node28&#45;&gt;Node9</title>
<path fill="none" stroke="midnightblue" d="M154.928,-174.33C140.711,-160.432 120.518,-135.6 133,-116 175.893,-48.6489 274.518,-23.7908 325.763,-15.1946"/>
<polygon fill="midnightblue" stroke="midnightblue" points="326.31,-18.6515 335.645,-13.6409 325.223,-11.7365 326.31,-18.6515"/>
</g>
<!-- Node28&#45;&gt;Node19 -->
<g id="edge102" class="edge"><title>Node28&#45;&gt;Node19</title>
<path fill="none" stroke="midnightblue" d="M228.028,-174.497C288.758,-164.045 381.454,-148.091 442.387,-137.604"/>
<polygon fill="midnightblue" stroke="midnightblue" points="442.996,-141.051 452.258,-135.905 441.809,-134.152 442.996,-141.051"/>
</g>
<!-- Node28&#45;&gt;Node27 -->
<g id="edge100" class="edge"><title>Node28&#45;&gt;Node27</title>
<path fill="none" stroke="midnightblue" d="M182.04,-174.362C194.293,-165.696 211.799,-153.313 225.839,-143.382"/>
<polygon fill="midnightblue" stroke="midnightblue" points="227.912,-146.203 234.055,-137.571 223.87,-140.488 227.912,-146.203"/>
</g>
</g>
</svg>
