<?xml version="1.0" encoding="UTF-8" standalone="no"?>
<!DOCTYPE svg PUBLIC "-//W3C//DTD SVG 1.1//EN"
 "http://www.w3.org/Graphics/SVG/1.1/DTD/svg11.dtd">
<!-- Generated by graphviz version 2.36.0 (20140111.2315)
 -->
<!-- Title: /home/travis/build/ComPWA/ComPWA/Optimizer/Geneva/GenevaResult.hpp Pages: 1 -->
<svg width="1847pt" height="422pt"
 viewBox="0.00 0.00 1847.00 422.00" xmlns="http://www.w3.org/2000/svg" xmlns:xlink="http://www.w3.org/1999/xlink">
<g id="graph0" class="graph" transform="scale(1 1) rotate(0) translate(4 418)">
<title>/home/travis/build/ComPWA/ComPWA/Optimizer/Geneva/GenevaResult.hpp</title>
<polygon fill="white" stroke="none" points="-4,4 -4,-418 1843,-418 1843,4 -4,4"/>
<!-- Node1 -->
<g id="node1" class="node"><title>Node1</title>
<polygon fill="#bfbfbf" stroke="black" points="291,-372.5 291,-413.5 447,-413.5 447,-372.5 291,-372.5"/>
<text text-anchor="start" x="299" y="-401.5" font-family="Helvetica,sans-Serif" font-size="10.00">/home/travis/build</text>
<text text-anchor="start" x="299" y="-390.5" font-family="Helvetica,sans-Serif" font-size="10.00">/ComPWA/ComPWA/Optimizer</text>
<text text-anchor="middle" x="369" y="-379.5" font-family="Helvetica,sans-Serif" font-size="10.00">/Geneva/GenevaResult.hpp</text>
</g>
<!-- Node2 -->
<g id="node2" class="node"><title>Node2</title>
<polygon fill="white" stroke="#bfbfbf" points="249,-6.5 249,-25.5 293,-25.5 293,-6.5 249,-6.5"/>
<text text-anchor="middle" x="271" y="-13.5" font-family="Helvetica,sans-Serif" font-size="10.00">vector</text>
</g>
<!-- Node1&#45;&gt;Node2 -->
<g id="edge1" class="edge"><title>Node1&#45;&gt;Node2</title>
<path fill="none" stroke="midnightblue" d="M290.977,-376.847C193.119,-355.563 38,-313.267 38,-259 38,-259 38,-259 38,-139 38,-49.466 174.697,-25.5142 238.685,-19.207"/>
<polygon fill="midnightblue" stroke="midnightblue" points="239.013,-22.6917 248.659,-18.3094 238.385,-15.7199 239.013,-22.6917"/>
</g>
<!-- Node3 -->
<g id="node3" class="node"><title>Node3</title>
<polygon fill="white" stroke="#bfbfbf" points="987.5,-6.5 987.5,-25.5 1028.5,-25.5 1028.5,-6.5 987.5,-6.5"/>
<text text-anchor="middle" x="1008" y="-13.5" font-family="Helvetica,sans-Serif" font-size="10.00">string</text>
</g>
<!-- Node1&#45;&gt;Node3 -->
<g id="edge2" class="edge"><title>Node1&#45;&gt;Node3</title>
<path fill="none" stroke="midnightblue" d="M292.097,-372.448C274.336,-364.173 257.568,-352.479 247,-336 210.314,-278.795 316.212,-246.326 335,-212 366.623,-154.225 319.883,-110.735 370,-68 416.628,-28.2394 856.618,-19.1334 977.437,-17.3751"/>
<polygon fill="midnightblue" stroke="midnightblue" points="977.535,-20.8742 987.485,-17.2354 977.437,-13.8749 977.535,-20.8742"/>
</g>
<!-- Node4 -->
<g id="node4" class="node"><title>Node4</title>
<polygon fill="white" stroke="#bfbfbf" points="379,-68.5 379,-87.5 433,-87.5 433,-68.5 379,-68.5"/>
<text text-anchor="middle" x="406" y="-75.5" font-family="Helvetica,sans-Serif" font-size="10.00">iostream</text>
</g>
<!-- Node1&#45;&gt;Node4 -->
<g id="edge3" class="edge"><title>Node1&#45;&gt;Node4</title>
<path fill="none" stroke="midnightblue" d="M290.593,-386.818C255.73,-380.134 217.727,-365.87 196,-336 187.634,-324.499 195.241,-318.202 196,-304 198.673,-253.959 181.842,-234.115 209,-192 246.028,-134.58 323.191,-103.12 369.188,-88.7839"/>
<polygon fill="midnightblue" stroke="midnightblue" points="370.212,-92.1309 378.782,-85.9014 368.198,-85.427 370.212,-92.1309"/>
</g>
<!-- Node5 -->
<g id="node5" class="node"><title>Node5</title>
<polygon fill="white" stroke="#bfbfbf" points="51,-6.5 51,-25.5 101,-25.5 101,-6.5 51,-6.5"/>
<text text-anchor="middle" x="76" y="-13.5" font-family="Helvetica,sans-Serif" font-size="10.00">fstream</text>
</g>
<!-- Node1&#45;&gt;Node5 -->
<g id="edge4" class="edge"><title>Node1&#45;&gt;Node5</title>
<path fill="none" stroke="midnightblue" d="M290.775,-389.641C229.21,-384.908 142.929,-371.733 76,-336 33.5825,-313.354 0,-307.084 0,-259 0,-259 0,-259 0,-139 0,-95.2172 35.699,-54.1424 58.1634,-32.6295"/>
<polygon fill="midnightblue" stroke="midnightblue" points="60.7804,-34.9768 65.7503,-25.62 56.0301,-29.8353 60.7804,-34.9768"/>
</g>
<!-- Node6 -->
<g id="node6" class="node"><title>Node6</title>
<polygon fill="white" stroke="#bfbfbf" points="1737,-6.5 1737,-25.5 1789,-25.5 1789,-6.5 1737,-6.5"/>
<text text-anchor="middle" x="1763" y="-13.5" font-family="Helvetica,sans-Serif" font-size="10.00">memory</text>
</g>
<!-- Node1&#45;&gt;Node6 -->
<g id="edge5" class="edge"><title>Node1&#45;&gt;Node6</title>
<path fill="none" stroke="midnightblue" d="M447.255,-389.061C751.516,-377.124 1839,-329.529 1839,-259 1839,-259 1839,-259 1839,-139 1839,-95.2172 1803.3,-54.1424 1780.84,-32.6295"/>
<polygon fill="midnightblue" stroke="midnightblue" points="1782.97,-29.8353 1773.25,-25.62 1778.22,-34.9768 1782.97,-29.8353"/>
</g>
<!-- Node7 -->
<g id="node7" class="node"><title>Node7</title>
<polygon fill="white" stroke="#bfbfbf" points="256,-305 256,-335 360,-335 360,-305 256,-305"/>
<text text-anchor="start" x="264" y="-323" font-family="Helvetica,sans-Serif" font-size="10.00">boost/numeric/ublas</text>
<text text-anchor="middle" x="308" y="-312" font-family="Helvetica,sans-Serif" font-size="10.00">/symmetric.hpp</text>
</g>
<!-- Node1&#45;&gt;Node7 -->
<g id="edge6" class="edge"><title>Node1&#45;&gt;Node7</title>
<path fill="none" stroke="midnightblue" d="M352.008,-372.223C344.156,-363.083 334.806,-352.2 326.748,-342.822"/>
<polygon fill="midnightblue" stroke="midnightblue" points="329.241,-340.353 320.07,-335.049 323.932,-344.914 329.241,-340.353"/>
</g>
<!-- Node8 -->
<g id="node8" class="node"><title>Node8</title>
<polygon fill="white" stroke="#bfbfbf" points="378,-305 378,-335 482,-335 482,-305 378,-305"/>
<text text-anchor="start" x="386" y="-323" font-family="Helvetica,sans-Serif" font-size="10.00">boost/numeric/ublas</text>
<text text-anchor="middle" x="430" y="-312" font-family="Helvetica,sans-Serif" font-size="10.00">/io.hpp</text>
</g>
<!-- Node1&#45;&gt;Node8 -->
<g id="edge7" class="edge"><title>Node1&#45;&gt;Node8</title>
<path fill="none" stroke="midnightblue" d="M385.992,-372.223C393.844,-363.083 403.194,-352.2 411.252,-342.822"/>
<polygon fill="midnightblue" stroke="midnightblue" points="414.068,-344.914 417.93,-335.049 408.759,-340.353 414.068,-344.914"/>
</g>
<!-- Node9 -->
<g id="node9" class="node"><title>Node9</title>
<g id="a_node9"><a xlink:href="../../df/d9f/ParameterList_8hpp.html" target="_top" xlink:title="This class provides a list of fit parameters which can have different types. ">
<polygon fill="white" stroke="black" points="1109,-192.5 1109,-211.5 1229,-211.5 1229,-192.5 1109,-192.5"/>
<text text-anchor="middle" x="1169" y="-199.5" font-family="Helvetica,sans-Serif" font-size="10.00">Core/ParameterList.hpp</text>
</a>
</g>
</g>
<!-- Node1&#45;&gt;Node9 -->
<g id="edge8" class="edge"><title>Node1&#45;&gt;Node9</title>
<path fill="none" stroke="midnightblue" d="M447.128,-377.277C502.74,-366.536 579.151,-351.247 646,-336 826.341,-294.867 1039.59,-238.073 1127.72,-214.24"/>
<polygon fill="midnightblue" stroke="midnightblue" points="1128.85,-217.559 1137.59,-211.567 1127.02,-210.802 1128.85,-217.559"/>
</g>
<!-- Node22 -->
<g id="node22" class="node"><title>Node22</title>
<g id="a_node22"><a xlink:href="../../d0/d0c/TableFormater_8hpp.html" target="_top" xlink:title="Core/TableFormater.hpp">
<polygon fill="white" stroke="red" points="438,-248.5 438,-267.5 560,-267.5 560,-248.5 438,-248.5"/>
<text text-anchor="middle" x="499" y="-255.5" font-family="Helvetica,sans-Serif" font-size="10.00">Core/TableFormater.hpp</text>
</a>
</g>
</g>
<!-- Node1&#45;&gt;Node22 -->
<g id="edge37" class="edge"><title>Node1&#45;&gt;Node22</title>
<path fill="none" stroke="midnightblue" d="M443.179,-372.407C461.517,-364.089 479.254,-352.384 491,-336 503.089,-319.138 503.507,-294.612 501.934,-277.797"/>
<polygon fill="midnightblue" stroke="midnightblue" points="505.369,-277.06 500.646,-267.577 498.424,-277.936 505.369,-277.06"/>
</g>
<!-- Node23 -->
<g id="node23" class="node"><title>Node23</title>
<g id="a_node23"><a xlink:href="../../d8/d35/PhysConst_8hpp.html" target="_top" xlink:title="PhysConst provides particle information to the framework. ">
<polygon fill="white" stroke="red" points="218,-192.5 218,-211.5 326,-211.5 326,-192.5 218,-192.5"/>
<text text-anchor="middle" x="272" y="-199.5" font-family="Helvetica,sans-Serif" font-size="10.00">Core/PhysConst.hpp</text>
</a>
</g>
</g>
<!-- Node1&#45;&gt;Node23 -->
<g id="edge43" class="edge"><title>Node1&#45;&gt;Node23</title>
<path fill="none" stroke="midnightblue" d="M290.88,-382.744C261.834,-375.081 231.672,-361.175 214,-336 191.529,-303.989 196.795,-283.124 214,-248 220.523,-234.684 233.096,-224.177 244.873,-216.676"/>
<polygon fill="midnightblue" stroke="midnightblue" points="246.771,-219.621 253.611,-211.529 243.218,-213.589 246.771,-219.621"/>
</g>
<!-- Node24 -->
<g id="node24" class="node"><title>Node24</title>
<g id="a_node24"><a xlink:href="../../de/d88/FitResult_8hpp.html" target="_top" xlink:title="Core/FitResult.hpp">
<polygon fill="white" stroke="red" points="538.5,-310.5 538.5,-329.5 637.5,-329.5 637.5,-310.5 538.5,-310.5"/>
<text text-anchor="middle" x="588" y="-317.5" font-family="Helvetica,sans-Serif" font-size="10.00">Core/FitResult.hpp</text>
</a>
</g>
</g>
<!-- Node1&#45;&gt;Node24 -->
<g id="edge47" class="edge"><title>Node1&#45;&gt;Node24</title>
<path fill="none" stroke="midnightblue" d="M429.422,-372.411C468.777,-359.652 518.796,-343.436 552.025,-332.663"/>
<polygon fill="midnightblue" stroke="midnightblue" points="553.335,-335.918 561.768,-329.504 551.176,-329.259 553.335,-335.918"/>
</g>
<!-- Node25 -->
<g id="node25" class="node"><title>Node25</title>
<g id="a_node25"><a xlink:href="../../df/dfa/GStartIndividual_8hpp.html" target="_top" xlink:title="Optimizer/Geneva/GStartIndividual.hpp">
<polygon fill="white" stroke="red" points="1075.5,-248.5 1075.5,-267.5 1262.5,-267.5 1262.5,-248.5 1075.5,-248.5"/>
<text text-anchor="middle" x="1169" y="-255.5" font-family="Helvetica,sans-Serif" font-size="10.00">Optimizer/Geneva/GStartIndividual.hpp</text>
</a>
</g>
</g>
<!-- Node1&#45;&gt;Node25 -->
<g id="edge57" class="edge"><title>Node1&#45;&gt;Node25</title>
<path fill="none" stroke="midnightblue" d="M447.323,-388.371C552.817,-382.46 746.025,-368.026 908,-336 991.466,-319.497 1086.66,-288.106 1135.78,-270.942"/>
<polygon fill="midnightblue" stroke="midnightblue" points="1136.99,-274.228 1145.26,-267.607 1134.66,-267.625 1136.99,-274.228"/>
</g>
<!-- Node9&#45;&gt;Node2 -->
<g id="edge13" class="edge"><title>Node9&#45;&gt;Node2</title>
<path fill="none" stroke="midnightblue" d="M1108.96,-197.369C1042.31,-192.286 932,-180.733 840,-156 803.814,-146.272 797.776,-135.143 762,-124 592.946,-71.3454 383.339,-34.9277 303.733,-22.0962"/>
<polygon fill="midnightblue" stroke="midnightblue" points="303.807,-18.5639 293.38,-20.443 302.703,-25.4763 303.807,-18.5639"/>
</g>
<!-- Node9&#45;&gt;Node3 -->
<g id="edge10" class="edge"><title>Node9&#45;&gt;Node3</title>
<path fill="none" stroke="midnightblue" d="M1229.02,-197.968C1328.31,-192.333 1517.89,-178.709 1538,-156 1547.43,-145.352 1546.8,-135.17 1538,-124 1475.36,-44.5171 1142.25,-23.0187 1038.72,-18.2141"/>
<polygon fill="midnightblue" stroke="midnightblue" points="1038.76,-14.7124 1028.62,-17.7649 1038.45,-21.7055 1038.76,-14.7124"/>
</g>
<!-- Node9&#45;&gt;Node4 -->
<g id="edge9" class="edge"><title>Node9&#45;&gt;Node4</title>
<path fill="none" stroke="midnightblue" d="M1108.92,-198.596C1033.29,-194.5 899.854,-183.712 789,-156 751.047,-146.512 744.804,-134.066 707,-124 613.991,-99.2341 500.94,-86.9286 443.464,-81.8904"/>
<polygon fill="midnightblue" stroke="midnightblue" points="443.657,-78.3942 433.396,-81.0328 443.063,-85.369 443.657,-78.3942"/>
</g>
<!-- Node9&#45;&gt;Node6 -->
<g id="edge11" class="edge"><title>Node9&#45;&gt;Node6</title>
<path fill="none" stroke="midnightblue" d="M1229.3,-198.166C1326.59,-192.951 1513.51,-180.099 1575,-156 1647.85,-127.447 1717.59,-63.0774 1747.59,-33.0232"/>
<polygon fill="midnightblue" stroke="midnightblue" points="1750.14,-35.4224 1754.66,-25.8382 1745.15,-30.5144 1750.14,-35.4224"/>
</g>
<!-- Node10 -->
<g id="node10" class="node"><title>Node10</title>
<polygon fill="white" stroke="#bfbfbf" points="815,-68.5 815,-87.5 867,-87.5 867,-68.5 815,-68.5"/>
<text text-anchor="middle" x="841" y="-75.5" font-family="Helvetica,sans-Serif" font-size="10.00">sstream</text>
</g>
<!-- Node9&#45;&gt;Node10 -->
<g id="edge12" class="edge"><title>Node9&#45;&gt;Node10</title>
<path fill="none" stroke="midnightblue" d="M1108.7,-199.987C1029.27,-197.381 895.485,-188.19 860,-156 843.861,-141.36 840.415,-115.396 840.136,-97.7027"/>
<polygon fill="midnightblue" stroke="midnightblue" points="843.636,-97.756 840.297,-87.7008 836.636,-97.6431 843.636,-97.756"/>
</g>
<!-- Node11 -->
<g id="node11" class="node"><title>Node11</title>
<polygon fill="white" stroke="#bfbfbf" points="1661.5,-130.5 1661.5,-149.5 1696.5,-149.5 1696.5,-130.5 1661.5,-130.5"/>
<text text-anchor="middle" x="1679" y="-137.5" font-family="Helvetica,sans-Serif" font-size="10.00">map</text>
</g>
<!-- Node9&#45;&gt;Node11 -->
<g id="edge14" class="edge"><title>Node9&#45;&gt;Node11</title>
<path fill="none" stroke="midnightblue" d="M1229.04,-201.894C1320.79,-201.808 1500.64,-195.893 1647,-156 1649.35,-155.36 1651.74,-154.559 1654.1,-153.661"/>
<polygon fill="midnightblue" stroke="midnightblue" points="1655.68,-156.788 1663.46,-149.596 1652.89,-150.367 1655.68,-156.788"/>
</g>
<!-- Node12 -->
<g id="node12" class="node"><title>Node12</title>
<polygon fill="white" stroke="#bfbfbf" points="603.5,-125 603.5,-155 698.5,-155 698.5,-125 603.5,-125"/>
<text text-anchor="start" x="611.5" y="-143" font-family="Helvetica,sans-Serif" font-size="10.00">boost/serialization</text>
<text text-anchor="middle" x="651" y="-132" font-family="Helvetica,sans-Serif" font-size="10.00">/vector.hpp</text>
</g>
<!-- Node9&#45;&gt;Node12 -->
<g id="edge15" class="edge"><title>Node9&#45;&gt;Node12</title>
<path fill="none" stroke="midnightblue" d="M1108.68,-195.303C1027.35,-187.438 878.046,-172.36 751,-156 737.199,-154.223 722.358,-152.108 708.444,-150.036"/>
<polygon fill="midnightblue" stroke="midnightblue" points="708.914,-146.567 698.504,-148.539 707.872,-153.489 708.914,-146.567"/>
</g>
<!-- Node13 -->
<g id="node13" class="node"><title>Node13</title>
<polygon fill="white" stroke="#bfbfbf" points="1304.5,-1 1304.5,-31 1399.5,-31 1399.5,-1 1304.5,-1"/>
<text text-anchor="start" x="1312.5" y="-19" font-family="Helvetica,sans-Serif" font-size="10.00">boost/serialization</text>
<text text-anchor="middle" x="1352" y="-8" font-family="Helvetica,sans-Serif" font-size="10.00">/shared_ptr.hpp</text>
</g>
<!-- Node9&#45;&gt;Node13 -->
<g id="edge16" class="edge"><title>Node9&#45;&gt;Node13</title>
<path fill="none" stroke="midnightblue" d="M1229.31,-198.301C1332.45,-193.061 1533.75,-179.874 1555,-156 1605.89,-98.8274 1486.06,-53.5851 1409.58,-31.5862"/>
<polygon fill="midnightblue" stroke="midnightblue" points="1410.14,-28.1065 1399.56,-28.7647 1408.24,-34.8444 1410.14,-28.1065"/>
</g>
<!-- Node14 -->
<g id="node14" class="node"><title>Node14</title>
<g id="a_node14"><a xlink:href="../../d8/def/AbsParameter_8hpp.html" target="_top" xlink:title="This class defines the internal container of a parameter. ">
<polygon fill="white" stroke="red" points="1048,-68.5 1048,-87.5 1170,-87.5 1170,-68.5 1048,-68.5"/>
<text text-anchor="middle" x="1109" y="-75.5" font-family="Helvetica,sans-Serif" font-size="10.00">Core/AbsParameter.hpp</text>
</a>
</g>
</g>
<!-- Node9&#45;&gt;Node14 -->
<g id="edge17" class="edge"><title>Node9&#45;&gt;Node14</title>
<path fill="none" stroke="midnightblue" d="M1229.18,-195.338C1293.24,-186.958 1380.82,-167.3 1345,-124 1339.46,-117.304 1241.07,-100.248 1173.1,-89.1637"/>
<polygon fill="midnightblue" stroke="midnightblue" points="1173.32,-85.6538 1162.89,-87.506 1172.2,-92.5633 1173.32,-85.6538"/>
</g>
<!-- Node15 -->
<g id="node15" class="node"><title>Node15</title>
<g id="a_node15"><a xlink:href="../../db/dce/Parameter_8hpp.html" target="_top" xlink:title="This class implements some internal container of parameters. ">
<polygon fill="white" stroke="red" points="869,-130.5 869,-149.5 973,-149.5 973,-130.5 869,-130.5"/>
<text text-anchor="middle" x="921" y="-137.5" font-family="Helvetica,sans-Serif" font-size="10.00">Core/Parameter.hpp</text>
</a>
</g>
</g>
<!-- Node9&#45;&gt;Node15 -->
<g id="edge23" class="edge"><title>Node9&#45;&gt;Node15</title>
<path fill="none" stroke="midnightblue" d="M1133.14,-192.426C1095.48,-183.411 1034.56,-168.787 982,-156 976.635,-154.695 971.007,-153.319 965.429,-151.952"/>
<polygon fill="midnightblue" stroke="midnightblue" points="966.057,-148.503 955.511,-149.518 964.388,-155.301 966.057,-148.503"/>
</g>
<!-- Node16 -->
<g id="node16" class="node"><title>Node16</title>
<g id="a_node16"><a xlink:href="../../d2/de9/Exceptions_8hpp.html" target="_top" xlink:title="This class defines the ComPWA exception base&#45;class and provides a set of standard exceptions...">
<polygon fill="white" stroke="red" points="1188,-68.5 1188,-87.5 1296,-87.5 1296,-68.5 1188,-68.5"/>
<text text-anchor="middle" x="1242" y="-75.5" font-family="Helvetica,sans-Serif" font-size="10.00">Core/Exceptions.hpp</text>
</a>
</g>
</g>
<!-- Node9&#45;&gt;Node16 -->
<g id="edge31" class="edge"><title>Node9&#45;&gt;Node16</title>
<path fill="none" stroke="midnightblue" d="M1229.27,-195.232C1280.16,-188.968 1347.34,-176.936 1364,-156 1372.85,-144.87 1372.13,-135.668 1364,-124 1350.62,-104.802 1328.07,-93.7726 1305.97,-87.4449"/>
<polygon fill="midnightblue" stroke="midnightblue" points="1306.78,-84.0388 1296.22,-84.9333 1305.04,-90.8175 1306.78,-84.0388"/>
</g>
<!-- Node17 -->
<g id="node17" class="node"><title>Node17</title>
<g id="a_node17"><a xlink:href="../../da/db4/Logging_8hpp.html" target="_top" xlink:title="Core/Logging.hpp">
<polygon fill="white" stroke="red" points="936.5,-68.5 936.5,-87.5 1029.5,-87.5 1029.5,-68.5 936.5,-68.5"/>
<text text-anchor="middle" x="983" y="-75.5" font-family="Helvetica,sans-Serif" font-size="10.00">Core/Logging.hpp</text>
</a>
</g>
</g>
<!-- Node9&#45;&gt;Node17 -->
<g id="edge32" class="edge"><title>Node9&#45;&gt;Node17</title>
<path fill="none" stroke="midnightblue" d="M1219.28,-192.422C1271.61,-181.39 1341.96,-159.327 1311,-124 1272.62,-80.2052 1114.47,-95.2891 1039.71,-87.8223"/>
<polygon fill="midnightblue" stroke="midnightblue" points="1040.09,-84.3422 1029.74,-86.6106 1039.24,-91.2911 1040.09,-84.3422"/>
</g>
<!-- Node18 -->
<g id="node18" class="node"><title>Node18</title>
<polygon fill="white" stroke="#bfbfbf" points="1435,-130.5 1435,-149.5 1529,-149.5 1529,-130.5 1435,-130.5"/>
<text text-anchor="middle" x="1482" y="-137.5" font-family="Helvetica,sans-Serif" font-size="10.00">boost/version.hpp</text>
</g>
<!-- Node9&#45;&gt;Node18 -->
<g id="edge33" class="edge"><title>Node9&#45;&gt;Node18</title>
<path fill="none" stroke="midnightblue" d="M1222.78,-192.428C1273.93,-184.031 1352.96,-170.425 1421,-156 1426.81,-154.768 1432.91,-153.382 1438.91,-151.963"/>
<polygon fill="midnightblue" stroke="midnightblue" points="1439.95,-155.312 1448.85,-149.564 1438.31,-148.508 1439.95,-155.312"/>
</g>
<!-- Node19 -->
<g id="node19" class="node"><title>Node19</title>
<polygon fill="white" stroke="#bfbfbf" points="991.5,-125 991.5,-155 1086.5,-155 1086.5,-125 991.5,-125"/>
<text text-anchor="start" x="999.5" y="-143" font-family="Helvetica,sans-Serif" font-size="10.00">boost/serialization</text>
<text text-anchor="middle" x="1039" y="-132" font-family="Helvetica,sans-Serif" font-size="10.00">/split_free.hpp</text>
</g>
<!-- Node9&#45;&gt;Node19 -->
<g id="edge34" class="edge"><title>Node9&#45;&gt;Node19</title>
<path fill="none" stroke="midnightblue" d="M1150.37,-192.403C1131.78,-183.822 1102.62,-170.364 1078.8,-159.371"/>
<polygon fill="midnightblue" stroke="midnightblue" points="1080.18,-156.154 1069.64,-155.141 1077.25,-162.509 1080.18,-156.154"/>
</g>
<!-- Node20 -->
<g id="node20" class="node"><title>Node20</title>
<polygon fill="white" stroke="#bfbfbf" points="1104.5,-130.5 1104.5,-149.5 1233.5,-149.5 1233.5,-130.5 1104.5,-130.5"/>
<text text-anchor="middle" x="1169" y="-137.5" font-family="Helvetica,sans-Serif" font-size="10.00">boost/unordered_map.hpp</text>
</g>
<!-- Node9&#45;&gt;Node20 -->
<g id="edge35" class="edge"><title>Node9&#45;&gt;Node20</title>
<path fill="none" stroke="midnightblue" d="M1169,-192.403C1169,-183.938 1169,-170.728 1169,-159.82"/>
<polygon fill="midnightblue" stroke="midnightblue" points="1172.5,-159.581 1169,-149.581 1165.5,-159.581 1172.5,-159.581"/>
</g>
<!-- Node21 -->
<g id="node21" class="node"><title>Node21</title>
<polygon fill="white" stroke="#bfbfbf" points="1251.5,-130.5 1251.5,-149.5 1302.5,-149.5 1302.5,-130.5 1251.5,-130.5"/>
<text text-anchor="middle" x="1277" y="-137.5" font-family="Helvetica,sans-Serif" font-size="10.00">typeinfo</text>
</g>
<!-- Node9&#45;&gt;Node21 -->
<g id="edge36" class="edge"><title>Node9&#45;&gt;Node21</title>
<path fill="none" stroke="midnightblue" d="M1184.47,-192.403C1202.28,-182.512 1231.74,-166.144 1252.63,-154.538"/>
<polygon fill="midnightblue" stroke="midnightblue" points="1254.51,-157.497 1261.55,-149.581 1251.11,-151.378 1254.51,-157.497"/>
</g>
<!-- Node14&#45;&gt;Node2 -->
<g id="edge19" class="edge"><title>Node14&#45;&gt;Node2</title>
<path fill="none" stroke="midnightblue" d="M1047.84,-69.0114C1044.51,-68.6506 1041.22,-68.3104 1038,-68 753.825,-40.5658 408.979,-23.3682 303.311,-18.4566"/>
<polygon fill="midnightblue" stroke="midnightblue" points="303.155,-14.9458 293.004,-17.9814 302.832,-21.9384 303.155,-14.9458"/>
</g>
<!-- Node14&#45;&gt;Node3 -->
<g id="edge18" class="edge"><title>Node14&#45;&gt;Node3</title>
<path fill="none" stroke="midnightblue" d="M1094.53,-68.4035C1077.95,-58.5569 1050.57,-42.2915 1031.05,-30.6949"/>
<polygon fill="midnightblue" stroke="midnightblue" points="1032.83,-27.6789 1022.44,-25.5806 1029.25,-33.6971 1032.83,-27.6789"/>
</g>
<!-- Node14&#45;&gt;Node5 -->
<g id="edge21" class="edge"><title>Node14&#45;&gt;Node5</title>
<path fill="none" stroke="midnightblue" d="M1047.84,-68.9284C1044.52,-68.589 1041.22,-68.2761 1038,-68 684.272,-37.652 594.203,-56.1749 240,-32 195.6,-28.9696 144.563,-24.0789 111.374,-20.7105"/>
<polygon fill="midnightblue" stroke="midnightblue" points="111.561,-17.2114 101.257,-19.6746 110.848,-24.175 111.561,-17.2114"/>
</g>
<!-- Node14&#45;&gt;Node6 -->
<g id="edge20" class="edge"><title>Node14&#45;&gt;Node6</title>
<path fill="none" stroke="midnightblue" d="M1170.07,-68.9998C1173.09,-68.6509 1176.08,-68.3155 1179,-68 1385.83,-45.6816 1634.69,-26.4893 1726.6,-19.6599"/>
<polygon fill="midnightblue" stroke="midnightblue" points="1727.06,-23.1361 1736.77,-18.9074 1726.54,-16.1552 1727.06,-23.1361"/>
</g>
<!-- Node14&#45;&gt;Node13 -->
<g id="edge22" class="edge"><title>Node14&#45;&gt;Node13</title>
<path fill="none" stroke="midnightblue" d="M1143.56,-68.4672C1182.83,-58.7714 1247.54,-42.7933 1294.45,-31.2089"/>
<polygon fill="midnightblue" stroke="midnightblue" points="1295.31,-34.6027 1304.18,-28.8075 1293.63,-27.8068 1295.31,-34.6027"/>
</g>
<!-- Node15&#45;&gt;Node3 -->
<g id="edge25" class="edge"><title>Node15&#45;&gt;Node3</title>
<path fill="none" stroke="midnightblue" d="M919.418,-130.387C917.292,-116.23 915.041,-87.6565 927,-68 938.515,-49.0742 960.003,-36.0294 977.954,-27.8728"/>
<polygon fill="midnightblue" stroke="midnightblue" points="979.635,-30.9618 987.477,-23.838 976.904,-24.5165 979.635,-30.9618"/>
</g>
<!-- Node15&#45;&gt;Node4 -->
<g id="edge24" class="edge"><title>Node15&#45;&gt;Node4</title>
<path fill="none" stroke="midnightblue" d="M868.785,-132.917C764.736,-120.794 533.788,-93.8879 443.349,-83.3513"/>
<polygon fill="midnightblue" stroke="midnightblue" points="443.622,-79.8595 433.284,-82.1787 442.812,-86.8125 443.622,-79.8595"/>
</g>
<!-- Node15&#45;&gt;Node10 -->
<g id="edge26" class="edge"><title>Node15&#45;&gt;Node10</title>
<path fill="none" stroke="midnightblue" d="M909.538,-130.403C896.825,-120.869 876.087,-105.315 860.747,-93.8106"/>
<polygon fill="midnightblue" stroke="midnightblue" points="862.541,-90.7806 852.441,-87.5806 858.341,-96.3806 862.541,-90.7806"/>
</g>
<!-- Node15&#45;&gt;Node14 -->
<g id="edge27" class="edge"><title>Node15&#45;&gt;Node14</title>
<path fill="none" stroke="midnightblue" d="M947.936,-130.403C980.603,-119.978 1035.82,-102.356 1072.34,-90.6992"/>
<polygon fill="midnightblue" stroke="midnightblue" points="1073.65,-93.9554 1082.11,-87.5806 1071.52,-87.2868 1073.65,-93.9554"/>
</g>
<!-- Node15&#45;&gt;Node16 -->
<g id="edge28" class="edge"><title>Node15&#45;&gt;Node16</title>
<path fill="none" stroke="midnightblue" d="M953.828,-130.482C962.923,-128.244 972.82,-125.921 982,-124 1048.45,-110.097 1125.1,-97.2101 1177.87,-88.8223"/>
<polygon fill="midnightblue" stroke="midnightblue" points="1178.43,-92.2765 1187.76,-87.2575 1177.34,-85.3624 1178.43,-92.2765"/>
</g>
<!-- Node15&#45;&gt;Node17 -->
<g id="edge30" class="edge"><title>Node15&#45;&gt;Node17</title>
<path fill="none" stroke="midnightblue" d="M929.883,-130.403C939.459,-121.136 954.911,-106.183 966.686,-94.7876"/>
<polygon fill="midnightblue" stroke="midnightblue" points="969.381,-97.05 974.133,-87.5806 964.513,-92.0197 969.381,-97.05"/>
</g>
<!-- Node16&#45;&gt;Node3 -->
<g id="edge29" class="edge"><title>Node16&#45;&gt;Node3</title>
<path fill="none" stroke="midnightblue" d="M1208.47,-68.4035C1162.96,-56.7341 1082.29,-36.0493 1038.44,-24.8049"/>
<polygon fill="midnightblue" stroke="midnightblue" points="1039.2,-21.3856 1028.64,-22.2921 1037.46,-28.1663 1039.2,-21.3856"/>
</g>
<!-- Node22&#45;&gt;Node2 -->
<g id="edge39" class="edge"><title>Node22&#45;&gt;Node2</title>
<path fill="none" stroke="midnightblue" d="M437.676,-256.468C361.449,-254.353 237.84,-245.661 209,-212 162.78,-158.055 226.598,-69.4046 256.747,-33.1826"/>
<polygon fill="midnightblue" stroke="midnightblue" points="259.45,-35.407 263.275,-25.5267 254.124,-30.8651 259.45,-35.407"/>
</g>
<!-- Node22&#45;&gt;Node3 -->
<g id="edge40" class="edge"><title>Node22&#45;&gt;Node3</title>
<path fill="none" stroke="midnightblue" d="M499.878,-248.162C502.779,-224.018 514.328,-156.579 555,-124 621.592,-70.6592 886.549,-32.5131 977.312,-20.7879"/>
<polygon fill="midnightblue" stroke="midnightblue" points="978.015,-24.2267 987.492,-19.4897 977.129,-17.2829 978.015,-24.2267"/>
</g>
<!-- Node22&#45;&gt;Node4 -->
<g id="edge38" class="edge"><title>Node22&#45;&gt;Node4</title>
<path fill="none" stroke="midnightblue" d="M494.514,-248.415C480.187,-220.992 435.31,-135.099 415.528,-97.2356"/>
<polygon fill="midnightblue" stroke="midnightblue" points="418.393,-95.1609 410.66,-87.9185 412.188,-98.4024 418.393,-95.1609"/>
</g>
<!-- Node22&#45;&gt;Node9 -->
<g id="edge42" class="edge"><title>Node22&#45;&gt;Node9</title>
<path fill="none" stroke="midnightblue" d="M560.234,-252.065C684.753,-242.029 966.821,-219.295 1098.64,-208.671"/>
<polygon fill="midnightblue" stroke="midnightblue" points="1098.95,-212.158 1108.63,-207.865 1098.38,-205.18 1098.95,-212.158"/>
</g>
<!-- Node22&#45;&gt;Node10 -->
<g id="edge41" class="edge"><title>Node22&#45;&gt;Node10</title>
<path fill="none" stroke="midnightblue" d="M502.367,-248.41C512.293,-224.313 543.923,-155.772 594,-124 628.46,-102.136 744.665,-88.1807 804.588,-82.2622"/>
<polygon fill="midnightblue" stroke="midnightblue" points="805.125,-85.7268 814.743,-81.2831 804.454,-78.7591 805.125,-85.7268"/>
</g>
<!-- Node23&#45;&gt;Node2 -->
<g id="edge45" class="edge"><title>Node23&#45;&gt;Node2</title>
<path fill="none" stroke="midnightblue" d="M271.952,-192.125C271.798,-163.769 271.315,-74.9299 271.102,-35.8108"/>
<polygon fill="midnightblue" stroke="midnightblue" points="274.602,-35.7665 271.048,-25.7857 267.602,-35.8046 274.602,-35.7665"/>
</g>
<!-- Node23&#45;&gt;Node4 -->
<g id="edge44" class="edge"><title>Node23&#45;&gt;Node4</title>
<path fill="none" stroke="midnightblue" d="M281.637,-192.226C304.14,-171.739 360.389,-120.527 388.883,-94.5844"/>
<polygon fill="midnightblue" stroke="midnightblue" points="391.412,-97.0147 396.45,-87.6944 386.7,-91.8386 391.412,-97.0147"/>
</g>
<!-- Node23&#45;&gt;Node15 -->
<g id="edge46" class="edge"><title>Node23&#45;&gt;Node15</title>
<path fill="none" stroke="midnightblue" d="M326.217,-195.988C445.782,-184.934 731.527,-158.517 858.432,-146.784"/>
<polygon fill="midnightblue" stroke="midnightblue" points="859.115,-150.236 868.751,-145.83 858.471,-143.266 859.115,-150.236"/>
</g>
<!-- Node24&#45;&gt;Node2 -->
<g id="edge48" class="edge"><title>Node24&#45;&gt;Node2</title>
<path fill="none" stroke="midnightblue" d="M538.387,-311.698C486.907,-303.497 404.373,-288.588 335,-268 270.358,-248.817 233.835,-266.403 194,-212 155.751,-159.763 177.915,-120.356 216,-68 225.889,-54.4056 239.79,-41.553 251.143,-32.1509"/>
<polygon fill="midnightblue" stroke="midnightblue" points="253.604,-34.6635 259.219,-25.6785 249.227,-29.2013 253.604,-34.6635"/>
</g>
<!-- Node24&#45;&gt;Node3 -->
<g id="edge49" class="edge"><title>Node24&#45;&gt;Node3</title>
<path fill="none" stroke="midnightblue" d="M594.383,-310.346C624.206,-270.131 750.694,-102.021 806,-68 860.273,-34.6149 935.506,-23.0267 977.152,-19.0458"/>
<polygon fill="midnightblue" stroke="midnightblue" points="977.569,-22.5228 987.228,-18.1698 976.962,-15.5491 977.569,-22.5228"/>
</g>
<!-- Node24&#45;&gt;Node4 -->
<g id="edge50" class="edge"><title>Node24&#45;&gt;Node4</title>
<path fill="none" stroke="midnightblue" d="M544.316,-310.489C502.557,-301.425 443.822,-285.931 429,-268 387.967,-218.359 396.071,-134.797 402.285,-97.7059"/>
<polygon fill="midnightblue" stroke="midnightblue" points="405.745,-98.2415 404.097,-87.7757 398.859,-96.9853 405.745,-98.2415"/>
</g>
<!-- Node24&#45;&gt;Node5 -->
<g id="edge51" class="edge"><title>Node24&#45;&gt;Node5</title>
<path fill="none" stroke="midnightblue" d="M538.176,-311.156C523.032,-308.809 506.341,-306.261 491,-304 376.895,-287.186 336.998,-319.904 234,-268 138.656,-219.953 94.1084,-85.0748 80.6198,-35.5444"/>
<polygon fill="midnightblue" stroke="midnightblue" points="83.9373,-34.3959 78.0238,-25.6049 77.1645,-36.1649 83.9373,-34.3959"/>
</g>
<!-- Node24&#45;&gt;Node6 -->
<g id="edge52" class="edge"><title>Node24&#45;&gt;Node6</title>
<path fill="none" stroke="midnightblue" d="M637.812,-319.55C866.067,-321.428 1801,-321.865 1801,-203 1801,-203 1801,-203 1801,-139 1801,-100.351 1783.4,-57.8037 1772.16,-34.5639"/>
<polygon fill="midnightblue" stroke="midnightblue" points="1775.27,-32.9625 1767.66,-25.5903 1769.01,-36.0986 1775.27,-32.9625"/>
</g>
<!-- Node24&#45;&gt;Node9 -->
<g id="edge54" class="edge"><title>Node24&#45;&gt;Node9</title>
<path fill="none" stroke="midnightblue" d="M619.35,-310.458C672.614,-296.152 784.317,-267.047 880,-248 954.383,-233.193 1040.34,-220.346 1099.06,-212.212"/>
<polygon fill="midnightblue" stroke="midnightblue" points="1099.53,-215.679 1108.96,-210.848 1098.58,-208.745 1099.53,-215.679"/>
</g>
<!-- Node24&#45;&gt;Node12 -->
<g id="edge53" class="edge"><title>Node24&#45;&gt;Node12</title>
<path fill="none" stroke="midnightblue" d="M591.039,-310.415C600.309,-284.222 628.46,-204.684 642.644,-164.609"/>
<polygon fill="midnightblue" stroke="midnightblue" points="645.972,-165.697 646.009,-155.102 639.373,-163.361 645.972,-165.697"/>
</g>
<!-- Node24&#45;&gt;Node22 -->
<g id="edge55" class="edge"><title>Node24&#45;&gt;Node22</title>
<path fill="none" stroke="midnightblue" d="M575.248,-310.403C560.973,-300.78 537.603,-285.024 520.492,-273.489"/>
<polygon fill="midnightblue" stroke="midnightblue" points="521.976,-270.268 511.728,-267.581 518.063,-276.073 521.976,-270.268"/>
</g>
<!-- Node24&#45;&gt;Node23 -->
<g id="edge56" class="edge"><title>Node24&#45;&gt;Node23</title>
<path fill="none" stroke="midnightblue" d="M538.255,-311.431C494.815,-303.774 430.655,-289.9 378,-268 345.879,-254.64 312.194,-232.343 291.642,-217.654"/>
<polygon fill="midnightblue" stroke="midnightblue" points="293.576,-214.733 283.429,-211.687 289.462,-220.396 293.576,-214.733"/>
</g>
<!-- Node25&#45;&gt;Node2 -->
<g id="edge61" class="edge"><title>Node25&#45;&gt;Node2</title>
<path fill="none" stroke="midnightblue" d="M1075.29,-250.654C959.286,-240.531 757.086,-215.409 594,-156 520.654,-129.282 513.674,-98.9237 442,-68 395.341,-47.869 338.27,-32.5974 303.286,-24.2228"/>
<polygon fill="midnightblue" stroke="midnightblue" points="303.71,-20.727 293.174,-21.8474 302.109,-27.5415 303.71,-20.727"/>
</g>
<!-- Node25&#45;&gt;Node3 -->
<g id="edge59" class="edge"><title>Node25&#45;&gt;Node3</title>
<path fill="none" stroke="midnightblue" d="M1262.8,-249.81C1431.2,-235.003 1762.19,-196.274 1705,-124 1662.75,-70.5979 1167.45,-29.1968 1038.52,-19.2745"/>
<polygon fill="midnightblue" stroke="midnightblue" points="1038.77,-15.7836 1028.53,-18.5128 1038.24,-22.7633 1038.77,-15.7836"/>
</g>
<!-- Node25&#45;&gt;Node4 -->
<g id="edge58" class="edge"><title>Node25&#45;&gt;Node4</title>
<path fill="none" stroke="midnightblue" d="M1089.19,-248.478C977.015,-235.267 767.077,-206.014 594,-156 534.533,-138.816 468.246,-109.005 432.437,-91.9556"/>
<polygon fill="midnightblue" stroke="midnightblue" points="433.706,-88.6822 423.177,-87.5063 430.675,-94.9918 433.706,-88.6822"/>
</g>
<!-- Node25&#45;&gt;Node6 -->
<g id="edge60" class="edge"><title>Node25&#45;&gt;Node6</title>
<path fill="none" stroke="midnightblue" d="M1262.88,-256.908C1353.02,-254.61 1492.19,-245.222 1608,-212 1662.26,-196.434 1685.61,-199.157 1722,-156 1751.65,-120.836 1759.86,-65.0103 1762.13,-35.9644"/>
<polygon fill="midnightblue" stroke="midnightblue" points="1765.65,-35.8052 1762.77,-25.608 1758.66,-35.3725 1765.65,-35.8052"/>
</g>
<!-- Node25&#45;&gt;Node9 -->
<g id="edge63" class="edge"><title>Node25&#45;&gt;Node9</title>
<path fill="none" stroke="midnightblue" d="M1169,-248.083C1169,-241.006 1169,-230.861 1169,-221.986"/>
<polygon fill="midnightblue" stroke="midnightblue" points="1172.5,-221.751 1169,-211.751 1165.5,-221.751 1172.5,-221.751"/>
</g>
<!-- Node25&#45;&gt;Node11 -->
<g id="edge62" class="edge"><title>Node25&#45;&gt;Node11</title>
<path fill="none" stroke="midnightblue" d="M1231.71,-248.461C1324.24,-234.815 1502.03,-204.569 1647,-156 1649.13,-155.287 1651.3,-154.472 1653.46,-153.599"/>
<polygon fill="midnightblue" stroke="midnightblue" points="1654.95,-156.766 1662.69,-149.529 1652.13,-150.361 1654.95,-156.766"/>
</g>
</g>
</svg>
