<?xml version="1.0" encoding="UTF-8" standalone="no"?>
<!DOCTYPE svg PUBLIC "-//W3C//DTD SVG 1.1//EN"
 "http://www.w3.org/Graphics/SVG/1.1/DTD/svg11.dtd">
<!-- Generated by graphviz version 2.36.0 (20140111.2315)
 -->
<!-- Title: /home/travis/build/ComPWA/ComPWA/Physics/HelicityFormalism/test/AmpModel.cpp Pages: 1 -->
<svg width="1620pt" height="334pt"
 viewBox="0.00 0.00 1620.00 334.00" xmlns="http://www.w3.org/2000/svg" xmlns:xlink="http://www.w3.org/1999/xlink">
<g id="graph0" class="graph" transform="scale(1 1) rotate(0) translate(4 330)">
<title>/home/travis/build/ComPWA/ComPWA/Physics/HelicityFormalism/test/AmpModel.cpp</title>
<polygon fill="white" stroke="none" points="-4,4 -4,-330 1616,-330 1616,4 -4,4"/>
<!-- Node1 -->
<g id="node1" class="node"><title>Node1</title>
<polygon fill="#bfbfbf" stroke="black" points="742.5,-273 742.5,-325 891.5,-325 891.5,-273 742.5,-273"/>
<text text-anchor="start" x="750.5" y="-313" font-family="Helvetica,sans-Serif" font-size="10.00">/home/travis/build</text>
<text text-anchor="start" x="750.5" y="-302" font-family="Helvetica,sans-Serif" font-size="10.00">/ComPWA/ComPWA/Physics</text>
<text text-anchor="start" x="750.5" y="-291" font-family="Helvetica,sans-Serif" font-size="10.00">/HelicityFormalism/test</text>
<text text-anchor="middle" x="817" y="-280" font-family="Helvetica,sans-Serif" font-size="10.00">/AmpModel.cpp</text>
</g>
<!-- Node2 -->
<g id="node2" class="node"><title>Node2</title>
<polygon fill="white" stroke="#bfbfbf" points="335,-74.5 335,-93.5 379,-93.5 379,-74.5 335,-74.5"/>
<text text-anchor="middle" x="357" y="-81.5" font-family="Helvetica,sans-Serif" font-size="10.00">vector</text>
</g>
<!-- Node1&#45;&gt;Node2 -->
<g id="edge1" class="edge"><title>Node1&#45;&gt;Node2</title>
<path fill="none" stroke="midnightblue" d="M742.481,-285.603C659.965,-269.171 525.712,-234.198 428,-168 414.263,-158.694 386.129,-123.325 369.7,-101.875"/>
<polygon fill="midnightblue" stroke="midnightblue" points="372.289,-99.496 363.452,-93.6506 366.715,-103.731 372.289,-99.496"/>
</g>
<!-- Node3 -->
<g id="node3" class="node"><title>Node3</title>
<polygon fill="white" stroke="#bfbfbf" points="927,-210.5 927,-229.5 969,-229.5 969,-210.5 927,-210.5"/>
<text text-anchor="middle" x="948" y="-217.5" font-family="Helvetica,sans-Serif" font-size="10.00">locale</text>
</g>
<!-- Node1&#45;&gt;Node3 -->
<g id="edge2" class="edge"><title>Node1&#45;&gt;Node3</title>
<path fill="none" stroke="midnightblue" d="M859.894,-272.787C881.499,-260.088 906.844,-245.191 924.79,-234.643"/>
<polygon fill="midnightblue" stroke="midnightblue" points="926.593,-237.642 933.441,-229.558 923.046,-231.608 926.593,-237.642"/>
</g>
<!-- Node4 -->
<g id="node4" class="node"><title>Node4</title>
<polygon fill="white" stroke="#bfbfbf" points="987.5,-210.5 987.5,-229.5 1106.5,-229.5 1106.5,-210.5 987.5,-210.5"/>
<text text-anchor="middle" x="1047" y="-217.5" font-family="Helvetica,sans-Serif" font-size="10.00">boost/test/unit_test.hpp</text>
</g>
<!-- Node1&#45;&gt;Node4 -->
<g id="edge3" class="edge"><title>Node1&#45;&gt;Node4</title>
<path fill="none" stroke="midnightblue" d="M891.674,-273C932.035,-259.488 979.983,-243.436 1011.82,-232.777"/>
<polygon fill="midnightblue" stroke="midnightblue" points="1013.19,-236.009 1021.56,-229.516 1010.97,-229.372 1013.19,-236.009"/>
</g>
<!-- Node5 -->
<g id="node5" class="node"><title>Node5</title>
<polygon fill="white" stroke="#bfbfbf" points="1125,-210.5 1125,-229.5 1227,-229.5 1227,-210.5 1125,-210.5"/>
<text text-anchor="middle" x="1176" y="-217.5" font-family="Helvetica,sans-Serif" font-size="10.00">boost/locale/utf.hpp</text>
</g>
<!-- Node1&#45;&gt;Node5 -->
<g id="edge4" class="edge"><title>Node1&#45;&gt;Node5</title>
<path fill="none" stroke="midnightblue" d="M891.559,-283.262C951.935,-271.141 1039.12,-253.218 1115,-236 1120.66,-234.717 1126.59,-233.32 1132.45,-231.911"/>
<polygon fill="midnightblue" stroke="midnightblue" points="1133.28,-235.311 1142.17,-229.548 1131.63,-228.509 1133.28,-235.311"/>
</g>
<!-- Node6 -->
<g id="node6" class="node"><title>Node6</title>
<polygon fill="white" stroke="#bfbfbf" points="-0.5,-1 -0.5,-31 100.5,-31 100.5,-1 -0.5,-1"/>
<text text-anchor="start" x="7.5" y="-19" font-family="Helvetica,sans-Serif" font-size="10.00">boost/property_tree</text>
<text text-anchor="middle" x="50" y="-8" font-family="Helvetica,sans-Serif" font-size="10.00">/ptree.hpp</text>
</g>
<!-- Node1&#45;&gt;Node6 -->
<g id="edge5" class="edge"><title>Node1&#45;&gt;Node6</title>
<path fill="none" stroke="midnightblue" d="M742.349,-296.59C567.316,-292.586 141.626,-278.538 94,-236 38.1707,-186.134 41.5175,-86.9599 46.5425,-41.1846"/>
<polygon fill="midnightblue" stroke="midnightblue" points="50.0167,-41.6082 47.7538,-31.2579 43.0683,-40.7603 50.0167,-41.6082"/>
</g>
<!-- Node7 -->
<g id="node7" class="node"><title>Node7</title>
<polygon fill="white" stroke="#bfbfbf" points="1245.5,-205 1245.5,-235 1346.5,-235 1346.5,-205 1245.5,-205"/>
<text text-anchor="start" x="1253.5" y="-223" font-family="Helvetica,sans-Serif" font-size="10.00">boost/property_tree</text>
<text text-anchor="middle" x="1296" y="-212" font-family="Helvetica,sans-Serif" font-size="10.00">/xml_parser.hpp</text>
</g>
<!-- Node1&#45;&gt;Node7 -->
<g id="edge6" class="edge"><title>Node1&#45;&gt;Node7</title>
<path fill="none" stroke="midnightblue" d="M891.736,-289.065C975.646,-278.535 1115.69,-259.465 1235,-236 1235.21,-235.958 1235.43,-235.916 1235.64,-235.873"/>
<polygon fill="midnightblue" stroke="midnightblue" points="1236.42,-239.287 1245.49,-233.809 1234.98,-232.436 1236.42,-239.287"/>
</g>
<!-- Node8 -->
<g id="node8" class="node"><title>Node8</title>
<g id="a_node8"><a xlink:href="../../d8/d35/PhysConst_8hpp.html" target="_top" xlink:title="PhysConst provides particle information to the framework. ">
<polygon fill="white" stroke="black" points="136,-210.5 136,-229.5 244,-229.5 244,-210.5 136,-210.5"/>
<text text-anchor="middle" x="190" y="-217.5" font-family="Helvetica,sans-Serif" font-size="10.00">Core/PhysConst.hpp</text>
</a>
</g>
</g>
<!-- Node1&#45;&gt;Node8 -->
<g id="edge7" class="edge"><title>Node1&#45;&gt;Node8</title>
<path fill="none" stroke="midnightblue" d="M742.303,-288.827C618.111,-273.575 371.28,-243.262 254.327,-228.9"/>
<polygon fill="midnightblue" stroke="midnightblue" points="254.451,-225.389 244.099,-227.644 253.598,-232.337 254.451,-225.389"/>
</g>
<!-- Node9 -->
<g id="node9" class="node"><title>Node9</title>
<polygon fill="white" stroke="#bfbfbf" points="271,-6.5 271,-25.5 325,-25.5 325,-6.5 271,-6.5"/>
<text text-anchor="middle" x="298" y="-13.5" font-family="Helvetica,sans-Serif" font-size="10.00">iostream</text>
</g>
<!-- Node1&#45;&gt;Node9 -->
<g id="edge53" class="edge"><title>Node1&#45;&gt;Node9</title>
<path fill="none" stroke="midnightblue" d="M742.222,-295.577C573.864,-289.515 175.914,-271.563 127,-236 66.5811,-192.073 74.9924,-116.272 132,-68 168.647,-36.9686 223.952,-24.8089 260.511,-20.0503"/>
<polygon fill="midnightblue" stroke="midnightblue" points="261.23,-23.4899 270.753,-18.8464 260.413,-16.5377 261.23,-23.4899"/>
</g>
<!-- Node13 -->
<g id="node13" class="node"><title>Node13</title>
<g id="a_node13"><a xlink:href="../../da/db4/Logging_8hpp.html" target="_top" xlink:title="Core/Logging.hpp">
<polygon fill="white" stroke="red" points="1099.5,-6.5 1099.5,-25.5 1192.5,-25.5 1192.5,-6.5 1099.5,-6.5"/>
<text text-anchor="middle" x="1146" y="-13.5" font-family="Helvetica,sans-Serif" font-size="10.00">Core/Logging.hpp</text>
</a>
</g>
</g>
<!-- Node1&#45;&gt;Node13 -->
<g id="edge33" class="edge"><title>Node1&#45;&gt;Node13</title>
<path fill="none" stroke="midnightblue" d="M842.234,-272.747C866.594,-248.7 902.063,-214.641 918,-204 1010.63,-142.151 1085.76,-193.683 1146,-100 1158.39,-80.7284 1155.39,-53.3779 1151.34,-35.4181"/>
<polygon fill="midnightblue" stroke="midnightblue" points="1154.69,-34.414 1148.81,-25.6054 1147.91,-36.1627 1154.69,-34.414"/>
</g>
<!-- Node16 -->
<g id="node16" class="node"><title>Node16</title>
<g id="a_node16"><a xlink:href="../../df/d9f/ParameterList_8hpp.html" target="_top" xlink:title="This class provides a list of fit parameters which can have different types. ">
<polygon fill="white" stroke="red" points="844,-142.5 844,-161.5 964,-161.5 964,-142.5 844,-142.5"/>
<text text-anchor="middle" x="904" y="-149.5" font-family="Helvetica,sans-Serif" font-size="10.00">Core/ParameterList.hpp</text>
</a>
</g>
</g>
<!-- Node1&#45;&gt;Node16 -->
<g id="edge22" class="edge"><title>Node1&#45;&gt;Node16</title>
<path fill="none" stroke="midnightblue" d="M832.154,-272.743C849.767,-243.388 878.361,-195.731 893.624,-170.294"/>
<polygon fill="midnightblue" stroke="midnightblue" points="896.626,-172.093 898.77,-161.717 890.624,-168.491 896.626,-172.093"/>
</g>
<!-- Node20 -->
<g id="node20" class="node"><title>Node20</title>
<g id="a_node20"><a xlink:href="../../db/d41/RunManager_8hpp.html" target="_top" xlink:title="This class provides a RunManager for simple fits. ">
<polygon fill="white" stroke="red" points="715,-210.5 715,-229.5 833,-229.5 833,-210.5 715,-210.5"/>
<text text-anchor="middle" x="774" y="-217.5" font-family="Helvetica,sans-Serif" font-size="10.00">Tools/RunManager.hpp</text>
</a>
</g>
</g>
<!-- Node1&#45;&gt;Node20 -->
<g id="edge34" class="edge"><title>Node1&#45;&gt;Node20</title>
<path fill="none" stroke="midnightblue" d="M802.92,-272.787C796.674,-261.603 789.476,-248.713 783.824,-238.591"/>
<polygon fill="midnightblue" stroke="midnightblue" points="786.711,-236.582 778.779,-229.558 780.599,-239.995 786.711,-236.582"/>
</g>
<!-- Node21 -->
<g id="node21" class="node"><title>Node21</title>
<g id="a_node21"><a xlink:href="../../d7/ded/RootGenerator_8hpp.html" target="_top" xlink:title="Tools/RootGenerator.hpp">
<polygon fill="white" stroke="red" points="480,-142.5 480,-161.5 606,-161.5 606,-142.5 480,-142.5"/>
<text text-anchor="middle" x="543" y="-149.5" font-family="Helvetica,sans-Serif" font-size="10.00">Tools/RootGenerator.hpp</text>
</a>
</g>
</g>
<!-- Node1&#45;&gt;Node21 -->
<g id="edge38" class="edge"><title>Node1&#45;&gt;Node21</title>
<path fill="none" stroke="midnightblue" d="M762.592,-272.914C739.414,-261.953 712.194,-248.718 688,-236 644.172,-212.962 594.322,-183.743 565.968,-166.83"/>
<polygon fill="midnightblue" stroke="midnightblue" points="567.595,-163.724 557.216,-161.593 564,-169.731 567.595,-163.724"/>
</g>
<!-- Node22 -->
<g id="node22" class="node"><title>Node22</title>
<g id="a_node22"><a xlink:href="../../df/d53/RootReader_8hpp.html" target="_top" xlink:title="This class reads event&#45;based data from root&#45;files. ">
<polygon fill="white" stroke="red" points="624.5,-137 624.5,-167 749.5,-167 749.5,-137 624.5,-137"/>
<text text-anchor="start" x="632.5" y="-155" font-family="Helvetica,sans-Serif" font-size="10.00">DataReader/RootReader</text>
<text text-anchor="middle" x="687" y="-144" font-family="Helvetica,sans-Serif" font-size="10.00">/RootReader.hpp</text>
</a>
</g>
</g>
<!-- Node1&#45;&gt;Node22 -->
<g id="edge44" class="edge"><title>Node1&#45;&gt;Node22</title>
<path fill="none" stroke="midnightblue" d="M751.094,-272.864C734.217,-263.588 717.584,-251.454 706,-236 693.298,-219.054 688.862,-195.08 687.419,-177.252"/>
<polygon fill="midnightblue" stroke="midnightblue" points="690.902,-176.857 686.86,-167.064 683.913,-177.241 690.902,-176.857"/>
</g>
<!-- Node23 -->
<g id="node23" class="node"><title>Node23</title>
<g id="a_node23"><a xlink:href="../../d0/d6d/IncoherentIntensity_8hpp.html" target="_top" xlink:title="Physics/HelicityFormalism\l/IncoherentIntensity.hpp">
<polygon fill="white" stroke="red" points="1365,-205 1365,-235 1499,-235 1499,-205 1365,-205"/>
<text text-anchor="start" x="1373" y="-223" font-family="Helvetica,sans-Serif" font-size="10.00">Physics/HelicityFormalism</text>
<text text-anchor="middle" x="1432" y="-212" font-family="Helvetica,sans-Serif" font-size="10.00">/IncoherentIntensity.hpp</text>
</a>
</g>
</g>
<!-- Node1&#45;&gt;Node23 -->
<g id="edge49" class="edge"><title>Node1&#45;&gt;Node23</title>
<path fill="none" stroke="midnightblue" d="M891.655,-291.245C993.78,-281.593 1182.93,-262.246 1354.87,-235.937"/>
<polygon fill="midnightblue" stroke="midnightblue" points="1355.51,-239.38 1364.86,-234.397 1354.45,-232.461 1355.51,-239.38"/>
</g>
<!-- Node24 -->
<g id="node24" class="node"><title>Node24</title>
<g id="a_node24"><a xlink:href="../../d0/dab/HelicityKinematics_8hpp.html" target="_top" xlink:title="Physics/HelicityFormalism\l/HelicityKinematics.hpp">
<polygon fill="white" stroke="red" points="252,-137 252,-167 386,-167 386,-137 252,-137"/>
<text text-anchor="start" x="260" y="-155" font-family="Helvetica,sans-Serif" font-size="10.00">Physics/HelicityFormalism</text>
<text text-anchor="middle" x="319" y="-144" font-family="Helvetica,sans-Serif" font-size="10.00">/HelicityKinematics.hpp</text>
</a>
</g>
</g>
<!-- Node1&#45;&gt;Node24 -->
<g id="edge50" class="edge"><title>Node1&#45;&gt;Node24</title>
<path fill="none" stroke="midnightblue" d="M742.347,-292.64C638.961,-284.25 458.326,-265.819 400,-236 372.483,-221.932 348.844,-194.896 334.325,-175.5"/>
<polygon fill="midnightblue" stroke="midnightblue" points="337.015,-173.246 328.315,-167.199 331.345,-177.352 337.015,-173.246"/>
</g>
<!-- Node25 -->
<g id="node25" class="node"><title>Node25</title>
<polygon fill="white" stroke="#bfbfbf" points="1517.5,-210.5 1517.5,-229.5 1612.5,-229.5 1612.5,-210.5 1517.5,-210.5"/>
<text text-anchor="middle" x="1565" y="-217.5" font-family="Helvetica,sans-Serif" font-size="10.00">boost/foreach.hpp</text>
</g>
<!-- Node1&#45;&gt;Node25 -->
<g id="edge52" class="edge"><title>Node1&#45;&gt;Node25</title>
<path fill="none" stroke="midnightblue" d="M891.674,-295.407C1018.98,-290.072 1285.84,-274.914 1508,-236 1514.01,-234.948 1520.3,-233.573 1526.43,-232.083"/>
<polygon fill="midnightblue" stroke="midnightblue" points="1527.68,-235.375 1536.5,-229.503 1525.95,-228.594 1527.68,-235.375"/>
</g>
<!-- Node8&#45;&gt;Node2 -->
<g id="edge9" class="edge"><title>Node8&#45;&gt;Node2</title>
<path fill="none" stroke="midnightblue" d="M193.509,-210.309C200.577,-193.781 218.01,-157.548 243,-136 266.957,-115.342 300.635,-101.666 325.172,-93.7229"/>
<polygon fill="midnightblue" stroke="midnightblue" points="326.224,-97.0611 334.744,-90.7631 324.156,-90.3735 326.224,-97.0611"/>
</g>
<!-- Node8&#45;&gt;Node6 -->
<g id="edge10" class="edge"><title>Node8&#45;&gt;Node6</title>
<path fill="none" stroke="midnightblue" d="M163.418,-210.432C142.819,-202.502 115.009,-188.769 98,-168 67.4419,-130.687 56.2262,-73.6564 52.192,-41.4181"/>
<polygon fill="midnightblue" stroke="midnightblue" points="55.6307,-40.6728 51.0446,-31.1219 48.6738,-41.4481 55.6307,-40.6728"/>
</g>
<!-- Node8&#45;&gt;Node9 -->
<g id="edge8" class="edge"><title>Node8&#45;&gt;Node9</title>
<path fill="none" stroke="midnightblue" d="M163.067,-210.462C143.663,-202.736 118.887,-189.256 107,-168 100.058,-155.587 100.347,-148.57 107,-136 138.756,-76.0031 215.39,-42.63 261.355,-27.3785"/>
<polygon fill="midnightblue" stroke="midnightblue" points="262.49,-30.6905 270.948,-24.3106 260.357,-24.0231 262.49,-30.6905"/>
</g>
<!-- Node10 -->
<g id="node10" class="node"><title>Node10</title>
<g id="a_node10"><a xlink:href="../../db/dce/Parameter_8hpp.html" target="_top" xlink:title="This class implements some internal container of parameters. ">
<polygon fill="white" stroke="red" points="711,-74.5 711,-93.5 815,-93.5 815,-74.5 711,-74.5"/>
<text text-anchor="middle" x="763" y="-81.5" font-family="Helvetica,sans-Serif" font-size="10.00">Core/Parameter.hpp</text>
</a>
</g>
</g>
<!-- Node8&#45;&gt;Node10 -->
<g id="edge11" class="edge"><title>Node8&#45;&gt;Node10</title>
<path fill="none" stroke="midnightblue" d="M244.438,-218.068C379.685,-215.208 722.651,-204.403 758,-168 774.309,-151.205 771.962,-122.38 768.05,-103.507"/>
<polygon fill="midnightblue" stroke="midnightblue" points="771.436,-102.617 765.695,-93.7115 764.629,-104.253 771.436,-102.617"/>
</g>
<!-- Node14 -->
<g id="node14" class="node"><title>Node14</title>
<g id="a_node14"><a xlink:href="../../d9/dfb/Spin_8hpp.html" target="_top" xlink:title="Core/Spin.hpp">
<polygon fill="white" stroke="red" points="116.5,-142.5 116.5,-161.5 195.5,-161.5 195.5,-142.5 116.5,-142.5"/>
<text text-anchor="middle" x="156" y="-149.5" font-family="Helvetica,sans-Serif" font-size="10.00">Core/Spin.hpp</text>
</a>
</g>
</g>
<!-- Node8&#45;&gt;Node14 -->
<g id="edge17" class="edge"><title>Node8&#45;&gt;Node14</title>
<path fill="none" stroke="midnightblue" d="M185.555,-210.372C180.442,-200.446 171.905,-183.874 165.317,-171.086"/>
<polygon fill="midnightblue" stroke="midnightblue" points="168.246,-169.128 160.555,-161.841 162.023,-172.334 168.246,-169.128"/>
</g>
<!-- Node10&#45;&gt;Node6 -->
<g id="edge15" class="edge"><title>Node10&#45;&gt;Node6</title>
<path fill="none" stroke="midnightblue" d="M711.195,-74.4766C696.014,-72.1617 679.366,-69.8002 664,-68 558.001,-55.5818 244.178,-31.5351 110.934,-21.5342"/>
<polygon fill="midnightblue" stroke="midnightblue" points="111.128,-18.039 100.894,-20.7816 110.605,-25.0194 111.128,-18.039"/>
</g>
<!-- Node10&#45;&gt;Node9 -->
<g id="edge12" class="edge"><title>Node10&#45;&gt;Node9</title>
<path fill="none" stroke="midnightblue" d="M728.19,-74.4289C718.163,-72.1395 707.182,-69.8034 697,-68 564.879,-44.5985 406.323,-27.5959 335.437,-20.5691"/>
<polygon fill="midnightblue" stroke="midnightblue" points="335.523,-17.0608 325.229,-19.5663 334.839,-24.0272 335.523,-17.0608"/>
</g>
<!-- Node11 -->
<g id="node11" class="node"><title>Node11</title>
<polygon fill="white" stroke="#bfbfbf" points="500.5,-6.5 500.5,-25.5 541.5,-25.5 541.5,-6.5 500.5,-6.5"/>
<text text-anchor="middle" x="521" y="-13.5" font-family="Helvetica,sans-Serif" font-size="10.00">string</text>
</g>
<!-- Node10&#45;&gt;Node11 -->
<g id="edge13" class="edge"><title>Node10&#45;&gt;Node11</title>
<path fill="none" stroke="midnightblue" d="M731.363,-74.3717C684.552,-61.6051 597.426,-37.8435 551.361,-25.2803"/>
<polygon fill="midnightblue" stroke="midnightblue" points="552.218,-21.8861 541.649,-22.6316 550.376,-28.6395 552.218,-21.8861"/>
</g>
<!-- Node12 -->
<g id="node12" class="node"><title>Node12</title>
<polygon fill="white" stroke="#bfbfbf" points="737,-6.5 737,-25.5 789,-25.5 789,-6.5 737,-6.5"/>
<text text-anchor="middle" x="763" y="-13.5" font-family="Helvetica,sans-Serif" font-size="10.00">sstream</text>
</g>
<!-- Node10&#45;&gt;Node12 -->
<g id="edge14" class="edge"><title>Node10&#45;&gt;Node12</title>
<path fill="none" stroke="midnightblue" d="M763,-74.3717C763,-64.6426 763,-48.528 763,-35.8504"/>
<polygon fill="midnightblue" stroke="midnightblue" points="766.5,-35.8411 763,-25.8411 759.5,-35.8412 766.5,-35.8411"/>
</g>
<!-- Node10&#45;&gt;Node13 -->
<g id="edge16" class="edge"><title>Node10&#45;&gt;Node13</title>
<path fill="none" stroke="midnightblue" d="M812.678,-74.4393C883.816,-62.1805 1014.36,-39.6849 1089.23,-26.7837"/>
<polygon fill="midnightblue" stroke="midnightblue" points="1090.15,-30.1764 1099.41,-25.029 1088.96,-23.2781 1090.15,-30.1764"/>
</g>
<!-- Node14&#45;&gt;Node2 -->
<g id="edge20" class="edge"><title>Node14&#45;&gt;Node2</title>
<path fill="none" stroke="midnightblue" d="M182.277,-142.372C218.987,-130.318 285.547,-108.462 325.068,-95.4851"/>
<polygon fill="midnightblue" stroke="midnightblue" points="326.328,-98.7555 334.737,-92.3104 324.144,-92.1048 326.328,-98.7555"/>
</g>
<!-- Node14&#45;&gt;Node9 -->
<g id="edge21" class="edge"><title>Node14&#45;&gt;Node9</title>
<path fill="none" stroke="midnightblue" d="M165.317,-142.208C188.892,-119.961 251.17,-61.1913 281.259,-32.7977"/>
<polygon fill="midnightblue" stroke="midnightblue" points="283.962,-35.0591 288.833,-25.6503 279.158,-29.968 283.962,-35.0591"/>
</g>
<!-- Node14&#45;&gt;Node11 -->
<g id="edge18" class="edge"><title>Node14&#45;&gt;Node11</title>
<path fill="none" stroke="midnightblue" d="M171.021,-142.397C200.123,-126.02 266.564,-90.0332 326,-68 382.534,-47.0427 451.302,-31.1932 490.226,-23.0695"/>
<polygon fill="midnightblue" stroke="midnightblue" points="491.286,-26.4249 500.378,-20.9852 489.878,-19.5679 491.286,-26.4249"/>
</g>
<!-- Node15 -->
<g id="node15" class="node"><title>Node15</title>
<polygon fill="white" stroke="#bfbfbf" points="549.5,-74.5 549.5,-93.5 584.5,-93.5 584.5,-74.5 549.5,-74.5"/>
<text text-anchor="middle" x="567" y="-81.5" font-family="Helvetica,sans-Serif" font-size="10.00">map</text>
</g>
<!-- Node14&#45;&gt;Node15 -->
<g id="edge19" class="edge"><title>Node14&#45;&gt;Node15</title>
<path fill="none" stroke="midnightblue" d="M195.825,-144.008C210.63,-141.442 227.575,-138.544 243,-136 352.558,-117.934 483.201,-97.7993 539.24,-89.2297"/>
<polygon fill="midnightblue" stroke="midnightblue" points="540.068,-92.644 549.425,-87.6741 539.011,-85.7242 540.068,-92.644"/>
</g>
<!-- Node16&#45;&gt;Node2 -->
<g id="edge27" class="edge"><title>Node16&#45;&gt;Node2</title>
<path fill="none" stroke="midnightblue" d="M843.897,-143.748C728.153,-129.783 477.919,-99.5898 389.085,-88.8713"/>
<polygon fill="midnightblue" stroke="midnightblue" points="389.419,-85.3863 379.071,-87.6631 388.58,-92.3359 389.419,-85.3863"/>
</g>
<!-- Node16&#45;&gt;Node9 -->
<g id="edge23" class="edge"><title>Node16&#45;&gt;Node9</title>
<path fill="none" stroke="midnightblue" d="M843.575,-143.071C802.049,-135.901 746.581,-122.848 702,-100 682.351,-89.9297 684.168,-76.9865 664,-68 605.603,-41.9795 416.301,-25.5631 335.313,-19.5678"/>
<polygon fill="midnightblue" stroke="midnightblue" points="335.309,-16.0583 325.082,-18.8233 334.801,-23.0399 335.309,-16.0583"/>
</g>
<!-- Node16&#45;&gt;Node10 -->
<g id="edge31" class="edge"><title>Node16&#45;&gt;Node10</title>
<path fill="none" stroke="midnightblue" d="M885.567,-142.372C861.394,-131.057 818.77,-111.105 790.704,-97.9678"/>
<polygon fill="midnightblue" stroke="midnightblue" points="791.979,-94.7 781.438,-93.6305 789.011,-101.04 791.979,-94.7"/>
</g>
<!-- Node16&#45;&gt;Node11 -->
<g id="edge24" class="edge"><title>Node16&#45;&gt;Node11</title>
<path fill="none" stroke="midnightblue" d="M964.161,-144.34C1032.19,-134.535 1128.55,-112.36 1088,-68 1078.86,-57.9967 668.92,-27.6799 551.893,-19.2158"/>
<polygon fill="midnightblue" stroke="midnightblue" points="552.036,-15.7171 541.81,-18.4882 551.532,-22.699 552.036,-15.7171"/>
</g>
<!-- Node16&#45;&gt;Node12 -->
<g id="edge26" class="edge"><title>Node16&#45;&gt;Node12</title>
<path fill="none" stroke="midnightblue" d="M896.337,-142.463C882.413,-127.086 851.821,-93.9219 824,-68 810.509,-55.4302 794.489,-42.0925 782.252,-32.2106"/>
<polygon fill="midnightblue" stroke="midnightblue" points="784.095,-29.2025 774.101,-25.6861 779.721,-34.6675 784.095,-29.2025"/>
</g>
<!-- Node16&#45;&gt;Node13 -->
<g id="edge32" class="edge"><title>Node16&#45;&gt;Node13</title>
<path fill="none" stroke="midnightblue" d="M964.26,-143.785C1020.68,-135.844 1099.56,-121.312 1122,-100 1139.56,-83.3274 1144.52,-54.6822 1145.78,-35.7908"/>
<polygon fill="midnightblue" stroke="midnightblue" points="1149.28,-35.8487 1146.17,-25.7209 1142.29,-35.5781 1149.28,-35.8487"/>
</g>
<!-- Node16&#45;&gt;Node15 -->
<g id="edge28" class="edge"><title>Node16&#45;&gt;Node15</title>
<path fill="none" stroke="midnightblue" d="M843.742,-143.585C767.018,-133.712 639.006,-115.672 594,-100 592.544,-99.493 591.075,-98.9108 589.613,-98.2765"/>
<polygon fill="midnightblue" stroke="midnightblue" points="590.814,-94.9621 580.309,-93.5833 587.661,-101.212 590.814,-94.9621"/>
</g>
<!-- Node17 -->
<g id="node17" class="node"><title>Node17</title>
<polygon fill="white" stroke="#bfbfbf" points="603,-74.5 603,-93.5 655,-93.5 655,-74.5 603,-74.5"/>
<text text-anchor="middle" x="629" y="-81.5" font-family="Helvetica,sans-Serif" font-size="10.00">memory</text>
</g>
<!-- Node16&#45;&gt;Node17 -->
<g id="edge25" class="edge"><title>Node16&#45;&gt;Node17</title>
<path fill="none" stroke="midnightblue" d="M863.061,-142.453C800.764,-129.397 687.423,-105.422 669,-100 665.869,-99.0786 662.633,-98.0308 659.421,-96.9273"/>
<polygon fill="midnightblue" stroke="midnightblue" points="660.575,-93.623 649.981,-93.5203 658.198,-100.207 660.575,-93.623"/>
</g>
<!-- Node18 -->
<g id="node18" class="node"><title>Node18</title>
<polygon fill="white" stroke="#bfbfbf" points="871.5,-69 871.5,-99 966.5,-99 966.5,-69 871.5,-69"/>
<text text-anchor="start" x="879.5" y="-87" font-family="Helvetica,sans-Serif" font-size="10.00">boost/serialization</text>
<text text-anchor="middle" x="919" y="-76" font-family="Helvetica,sans-Serif" font-size="10.00">/vector.hpp</text>
</g>
<!-- Node16&#45;&gt;Node18 -->
<g id="edge29" class="edge"><title>Node16&#45;&gt;Node18</title>
<path fill="none" stroke="midnightblue" d="M905.961,-142.372C907.87,-133.971 910.861,-120.811 913.497,-109.213"/>
<polygon fill="midnightblue" stroke="midnightblue" points="916.974,-109.708 915.777,-99.1815 910.148,-108.157 916.974,-109.708"/>
</g>
<!-- Node19 -->
<g id="node19" class="node"><title>Node19</title>
<polygon fill="white" stroke="#bfbfbf" points="984.5,-69 984.5,-99 1079.5,-99 1079.5,-69 984.5,-69"/>
<text text-anchor="start" x="992.5" y="-87" font-family="Helvetica,sans-Serif" font-size="10.00">boost/serialization</text>
<text text-anchor="middle" x="1032" y="-76" font-family="Helvetica,sans-Serif" font-size="10.00">/shared_ptr.hpp</text>
</g>
<!-- Node16&#45;&gt;Node19 -->
<g id="edge30" class="edge"><title>Node16&#45;&gt;Node19</title>
<path fill="none" stroke="midnightblue" d="M920.734,-142.372C939.602,-132.643 970.853,-116.529 995.44,-103.851"/>
<polygon fill="midnightblue" stroke="midnightblue" points="997.213,-106.875 1004.5,-99.1815 994.005,-100.654 997.213,-106.875"/>
</g>
<!-- Node20&#45;&gt;Node2 -->
<g id="edge35" class="edge"><title>Node20&#45;&gt;Node2</title>
<path fill="none" stroke="midnightblue" d="M714.754,-217.208C651.947,-213.467 550.976,-202.121 471,-168 449.089,-158.652 447.23,-150.061 428,-136 411.116,-123.655 391.835,-109.822 377.63,-99.6799"/>
<polygon fill="midnightblue" stroke="midnightblue" points="379.279,-96.5571 369.105,-93.6012 375.215,-102.257 379.279,-96.5571"/>
</g>
<!-- Node20&#45;&gt;Node16 -->
<g id="edge37" class="edge"><title>Node20&#45;&gt;Node16</title>
<path fill="none" stroke="midnightblue" d="M790.995,-210.372C813.087,-199.156 851.895,-179.453 877.776,-166.314"/>
<polygon fill="midnightblue" stroke="midnightblue" points="879.668,-169.278 887.001,-161.63 876.499,-163.037 879.668,-169.278"/>
</g>
<!-- Node20&#45;&gt;Node17 -->
<g id="edge36" class="edge"><title>Node20&#45;&gt;Node17</title>
<path fill="none" stroke="midnightblue" d="M774.872,-210.098C775.993,-193.532 775.987,-157.688 758,-136 756.346,-134.006 698.603,-111.639 660.94,-97.1958"/>
<polygon fill="midnightblue" stroke="midnightblue" points="661.969,-93.842 651.379,-93.5338 659.465,-100.379 661.969,-93.842"/>
</g>
<!-- Node21&#45;&gt;Node2 -->
<g id="edge41" class="edge"><title>Node21&#45;&gt;Node2</title>
<path fill="none" stroke="midnightblue" d="M515.981,-142.418C485.799,-132.691 435.584,-116.09 393,-100 390.89,-99.2028 388.72,-98.359 386.54,-97.4944"/>
<polygon fill="midnightblue" stroke="midnightblue" points="387.669,-94.1751 377.087,-93.6491 385.031,-100.659 387.669,-94.1751"/>
</g>
<!-- Node21&#45;&gt;Node9 -->
<g id="edge39" class="edge"><title>Node21&#45;&gt;Node9</title>
<path fill="none" stroke="midnightblue" d="M527.301,-142.414C485.729,-119.676 372.546,-57.7721 322.435,-30.3643"/>
<polygon fill="midnightblue" stroke="midnightblue" points="324.021,-27.2425 313.568,-25.5146 320.662,-33.384 324.021,-27.2425"/>
</g>
<!-- Node21&#45;&gt;Node11 -->
<g id="edge42" class="edge"><title>Node21&#45;&gt;Node11</title>
<path fill="none" stroke="midnightblue" d="M520.335,-142.343C502.794,-134.295 479.739,-120.443 469,-100 462.386,-87.4092 463.494,-81.113 469,-68 475.164,-53.3208 487.843,-40.7443 499.138,-31.7531"/>
<polygon fill="midnightblue" stroke="midnightblue" points="501.457,-34.3893 507.374,-25.6008 497.268,-28.7812 501.457,-34.3893"/>
</g>
<!-- Node21&#45;&gt;Node12 -->
<g id="edge40" class="edge"><title>Node21&#45;&gt;Node12</title>
<path fill="none" stroke="midnightblue" d="M539.296,-142.09C533.059,-125.512 522.744,-89.6485 540,-68 562.955,-39.2025 669.685,-25.3636 726.762,-19.9234"/>
<polygon fill="midnightblue" stroke="midnightblue" points="727.171,-23.4007 736.811,-19.0037 726.533,-16.4299 727.171,-23.4007"/>
</g>
<!-- Node21&#45;&gt;Node17 -->
<g id="edge43" class="edge"><title>Node21&#45;&gt;Node17</title>
<path fill="none" stroke="midnightblue" d="M554.243,-142.372C568.278,-131.6 592.512,-113.002 609.576,-99.9065"/>
<polygon fill="midnightblue" stroke="midnightblue" points="611.952,-102.495 617.754,-93.6305 607.69,-96.9421 611.952,-102.495"/>
</g>
<!-- Node22&#45;&gt;Node2 -->
<g id="edge45" class="edge"><title>Node22&#45;&gt;Node2</title>
<path fill="none" stroke="midnightblue" d="M624.179,-137.873C621.076,-137.237 618.003,-136.61 615,-136 533.71,-119.498 437.866,-100.734 389.062,-91.2283"/>
<polygon fill="midnightblue" stroke="midnightblue" points="389.587,-87.765 379.103,-89.29 388.25,-94.6361 389.587,-87.765"/>
</g>
<!-- Node22&#45;&gt;Node11 -->
<g id="edge48" class="edge"><title>Node22&#45;&gt;Node11</title>
<path fill="none" stroke="midnightblue" d="M628.465,-136.903C592.983,-127.215 552.263,-113.676 540,-100 524.228,-82.409 520.744,-54.4309 520.352,-35.8923"/>
<polygon fill="midnightblue" stroke="midnightblue" points="523.853,-35.7717 520.425,-25.7465 516.853,-35.7209 523.853,-35.7717"/>
</g>
<!-- Node22&#45;&gt;Node15 -->
<g id="edge46" class="edge"><title>Node22&#45;&gt;Node15</title>
<path fill="none" stroke="midnightblue" d="M661.321,-136.967C642.635,-126.744 616.731,-112.547 594,-100 593.178,-99.5465 592.343,-99.085 591.5,-98.6185"/>
<polygon fill="midnightblue" stroke="midnightblue" points="592.855,-95.3684 582.412,-93.5815 589.462,-101.491 592.855,-95.3684"/>
</g>
<!-- Node22&#45;&gt;Node17 -->
<g id="edge47" class="edge"><title>Node22&#45;&gt;Node17</title>
<path fill="none" stroke="midnightblue" d="M674.415,-136.679C665.282,-126.286 652.91,-112.208 643.386,-101.37"/>
<polygon fill="midnightblue" stroke="midnightblue" points="645.988,-99.0296 636.758,-93.8283 640.73,-103.65 645.988,-99.0296"/>
</g>
<!-- Node24&#45;&gt;Node2 -->
<g id="edge51" class="edge"><title>Node24&#45;&gt;Node2</title>
<path fill="none" stroke="midnightblue" d="M327.245,-136.679C332.994,-126.694 340.702,-113.307 346.832,-102.66"/>
<polygon fill="midnightblue" stroke="midnightblue" points="349.961,-104.241 351.917,-93.8283 343.894,-100.748 349.961,-104.241"/>
</g>
</g>
</svg>
