<?xml version="1.0" encoding="UTF-8" standalone="no"?>
<!DOCTYPE svg PUBLIC "-//W3C//DTD SVG 1.1//EN"
 "http://www.w3.org/Graphics/SVG/1.1/DTD/svg11.dtd">
<!-- Generated by graphviz version 2.26.3 (20100126.1600)
 -->
<!-- Title: G Pages: 1 -->
<svg width="198pt" height="456pt"
 viewBox="0.00 0.00 198.00 456.00" xmlns="http://www.w3.org/2000/svg" xmlns:xlink="http://www.w3.org/1999/xlink">
<g id="graph1" class="graph" transform="scale(1 1) rotate(0) translate(4 452)">
<title>G</title>
<polygon fill="white" stroke="white" points="-4,5 -4,-452 195,-452 195,5 -4,5"/>
<!-- Node1 -->
<g id="node1" class="node"><title>Node1</title>
<polygon fill="#bfbfbf" stroke="black" points="17,-0.5 17,-193.5 123,-193.5 123,-0.5 17,-0.5"/>
<text text-anchor="middle" x="70" y="-180.5" font-family="Helvetica,sans-Serif" font-size="10.00">GenevaIF</text>
<polyline fill="none" stroke="black" points="17,-172.5 123,-172.5 "/>
<text text-anchor="start" x="25" y="-159.5" font-family="Helvetica,sans-Serif" font-size="10.00">&#45; _myData</text>
<text text-anchor="start" x="25" y="-146.5" font-family="Helvetica,sans-Serif" font-size="10.00">&#45; configFileDir</text>
<text text-anchor="start" x="25" y="-133.5" font-family="Helvetica,sans-Serif" font-size="10.00">&#45; parallelizationMode</text>
<text text-anchor="start" x="25" y="-120.5" font-family="Helvetica,sans-Serif" font-size="10.00">&#45; serMode</text>
<text text-anchor="start" x="25" y="-107.5" font-family="Helvetica,sans-Serif" font-size="10.00">&#45; clientMode</text>
<text text-anchor="start" x="25" y="-94.5" font-family="Helvetica,sans-Serif" font-size="10.00">&#45; ip</text>
<text text-anchor="start" x="25" y="-81.5" font-family="Helvetica,sans-Serif" font-size="10.00">&#45; port</text>
<polyline fill="none" stroke="black" points="17,-73.5 123,-73.5 "/>
<text text-anchor="start" x="25" y="-60.5" font-family="Helvetica,sans-Serif" font-size="10.00">+ GenevaIF()</text>
<text text-anchor="start" x="25" y="-47.5" font-family="Helvetica,sans-Serif" font-size="10.00">+ exec()</text>
<text text-anchor="start" x="25" y="-34.5" font-family="Helvetica,sans-Serif" font-size="10.00">+ ~GenevaIF()</text>
<text text-anchor="start" x="25" y="-21.5" font-family="Helvetica,sans-Serif" font-size="10.00">+ setServerMode()</text>
<text text-anchor="start" x="25" y="-8.5" font-family="Helvetica,sans-Serif" font-size="10.00">+ setClientMode()</text>
</g>
<!-- Node2 -->
<g id="node2" class="node"><title>Node2</title>
<a xlink:href="../../d1/dc4/classOptimizer.xhtml" target="_top" xlink:title="Optimizer Interface Base&#45;Class.">
<polygon fill="white" stroke="black" points="0,-256.5 0,-345.5 80,-345.5 80,-256.5 0,-256.5"/>
<text text-anchor="middle" x="40" y="-332.5" font-family="Helvetica,sans-Serif" font-size="10.00">Optimizer</text>
<polyline fill="none" stroke="black" points="0,-324.5 80,-324.5 "/>
<text text-anchor="middle" x="40" y="-311.5" font-family="Helvetica,sans-Serif" font-size="10.00"> </text>
<polyline fill="none" stroke="black" points="0,-303.5 80,-303.5 "/>
<text text-anchor="start" x="8" y="-290.5" font-family="Helvetica,sans-Serif" font-size="10.00">+ Optimizer()</text>
<text text-anchor="start" x="8" y="-277.5" font-family="Helvetica,sans-Serif" font-size="10.00">+ ~Optimizer()</text>
<text text-anchor="start" x="8" y="-264.5" font-family="Helvetica,sans-Serif" font-size="10.00">+ exec()</text>
</a>
</g>
<!-- Node2&#45;&gt;Node1 -->
<g id="edge2" class="edge"><title>Node2&#45;&gt;Node1</title>
<path fill="none" stroke="midnightblue" d="M48.065,-246.158C50.4464,-229.964 53.1269,-211.737 55.7751,-193.729"/>
<polygon fill="none" stroke="midnightblue" points="44.5388,-246.081 46.5466,-256.483 51.4643,-247.099 44.5388,-246.081"/>
</g>
<!-- Node3 -->
<g id="node4" class="node"><title>Node3</title>
<a xlink:title="STL class.">
<polygon fill="white" stroke="#bfbfbf" points="98,-269.5 98,-332.5 158,-332.5 158,-269.5 98,-269.5"/>
<text text-anchor="middle" x="128" y="-319.5" font-family="Helvetica,sans-Serif" font-size="10.00">std::string</text>
<polyline fill="none" stroke="#bfbfbf" points="98,-311.5 158,-311.5 "/>
<text text-anchor="middle" x="128" y="-298.5" font-family="Helvetica,sans-Serif" font-size="10.00"> </text>
<polyline fill="none" stroke="#bfbfbf" points="98,-290.5 158,-290.5 "/>
<text text-anchor="middle" x="128" y="-277.5" font-family="Helvetica,sans-Serif" font-size="10.00"> </text>
</a>
</g>
<!-- Node3&#45;&gt;Node1 -->
<g id="edge4" class="edge"><title>Node3&#45;&gt;Node1</title>
<path fill="none" stroke="#9a32cd" stroke-dasharray="5,2" d="M116.152,-259.326C110.747,-240.318 104.103,-216.947 97.5562,-193.922"/>
<polygon fill="#9a32cd" stroke="#9a32cd" points="118.938,-269.125 111.874,-260.737 117.57,-264.316 116.203,-259.506 116.203,-259.506 116.203,-259.506 117.57,-264.316 120.531,-258.276 118.938,-269.125 118.938,-269.125"/>
<text text-anchor="middle" x="136.5" y="-229" font-family="Helvetica,sans-Serif" font-size="10.00">ip</text>
<text text-anchor="middle" x="136.5" y="-216" font-family="Helvetica,sans-Serif" font-size="10.00">configFileDir</text>
</g>
<!-- Node4 -->
<g id="node6" class="node"><title>Node4</title>
<a xlink:title="STL class.">
<polygon fill="white" stroke="#bfbfbf" points="65.5,-384.5 65.5,-447.5 190.5,-447.5 190.5,-384.5 65.5,-384.5"/>
<text text-anchor="middle" x="128" y="-434.5" font-family="Helvetica,sans-Serif" font-size="10.00">std::basic_string&lt; char &gt;</text>
<polyline fill="none" stroke="#bfbfbf" points="65.5,-426.5 190.5,-426.5 "/>
<text text-anchor="middle" x="128" y="-413.5" font-family="Helvetica,sans-Serif" font-size="10.00"> </text>
<polyline fill="none" stroke="#bfbfbf" points="65.5,-405.5 190.5,-405.5 "/>
<text text-anchor="middle" x="128" y="-392.5" font-family="Helvetica,sans-Serif" font-size="10.00"> </text>
</a>
</g>
<!-- Node4&#45;&gt;Node3 -->
<g id="edge6" class="edge"><title>Node4&#45;&gt;Node3</title>
<path fill="none" stroke="midnightblue" d="M128,-374.104C128,-360.408 128,-345.434 128,-332.625"/>
<polygon fill="none" stroke="midnightblue" points="124.5,-374.271 128,-384.271 131.5,-374.271 124.5,-374.271"/>
</g>
</g>
</svg>
