<?xml version="1.0" encoding="UTF-8" standalone="no"?>
<!DOCTYPE svg PUBLIC "-//W3C//DTD SVG 1.1//EN"
 "http://www.w3.org/Graphics/SVG/1.1/DTD/svg11.dtd">
<!-- Generated by graphviz version 2.36.0 (20140111.2315)
 -->
<!-- Title: /home/travis/build/ComPWA/ComPWA/Physics/DecayDynamics/RelativisticBreitWigner.hpp Pages: 1 -->
<!--zoomable 490 -->
<svg id="main" version="1.1" xmlns="http://www.w3.org/2000/svg" xmlns:xlink="http://www.w3.org/1999/xlink" xml:space="preserve" onload="init(evt)">
<style type="text/css"><![CDATA[
.edge:hover path { stroke: red; }
.edge:hover polygon { stroke: red; fill: red; }
]]></style>
<script type="text/javascript"><![CDATA[
var edges = document.getElementsByTagName('g');
if (edges && edges.length) {
  for (var i=0;i<edges.length;i++) {
    if (edges[i].id.substr(0,4)=='edge') {
      edges[i].setAttribute('class','edge');
    }
  }
}
]]></script>
        <defs>
                <circle id="rim" cx="0" cy="0" r="7"/>
                <circle id="rim2" cx="0" cy="0" r="3.5"/>
                <g id="zoomPlus">
                        <use xlink:href="#rim" fill="#404040">
                                <set attributeName="fill" to="#808080" begin="zoomplus.mouseover" end="zoomplus.mouseout"/>
                        </use>
                        <path d="M-4,0h8M0,-4v8" fill="none" stroke="white" stroke-width="1.5" pointer-events="none"/>
                </g>
                <g id="zoomMin">
                        <use xlink:href="#rim" fill="#404040">
                                <set attributeName="fill" to="#808080" begin="zoomminus.mouseover" end="zoomminus.mouseout"/>
                        </use>
                        <path d="M-4,0h8" fill="none" stroke="white" stroke-width="1.5" pointer-events="none"/>
                </g>
                <g id="dirArrow">
                        <path fill="none" stroke="white" stroke-width="1.5" d="M0,-3.0v7 M-2.5,-0.5L0,-3.0L2.5,-0.5"/>
                </g>
               <g id="resetDef">
                       <use xlink:href="#rim2" fill="#404040">
                               <set attributeName="fill" to="#808080" begin="reset.mouseover" end="reset.mouseout"/>
                       </use>
               </g>
        </defs>

<script type="text/javascript">
var viewWidth = 1414;
var viewHeight = 490;
var sectionId = 'dynsection-0';
</script>
<script xlink:href="../../svgpan.js"/>
<svg id="graph" class="graph">
<g id="viewport">
<title>/home/travis/build/ComPWA/ComPWA/Physics/DecayDynamics/RelativisticBreitWigner.hpp</title>
<polygon fill="white" stroke="none" points="-4,4 -4,-486 1410,-486 1410,4 -4,4"/>
<!-- Node1 -->
<g id="node1" class="node"><title>Node1</title>
<polygon fill="#bfbfbf" stroke="black" points="633,-429 633,-481 797,-481 797,-429 633,-429"/>
<text text-anchor="start" x="641" y="-469" font-family="Helvetica,sans-Serif" font-size="10.00">/home/travis/build</text>
<text text-anchor="start" x="641" y="-458" font-family="Helvetica,sans-Serif" font-size="10.00">/ComPWA/ComPWA/Physics</text>
<text text-anchor="start" x="641" y="-447" font-family="Helvetica,sans-Serif" font-size="10.00">/DecayDynamics/RelativisticBreit</text>
<text text-anchor="middle" x="715" y="-436" font-family="Helvetica,sans-Serif" font-size="10.00">Wigner.hpp</text>
</g>
<!-- Node2 -->
<g id="node2" class="node"><title>Node2</title>
<polygon fill="white" stroke="#bfbfbf" points="1041,-0.5 1041,-19.5 1085,-19.5 1085,-0.5 1041,-0.5"/>
<text text-anchor="middle" x="1063" y="-7.5" font-family="Helvetica,sans-Serif" font-size="10.00">vector</text>
</g>
<!-- Node1&#45;&gt;Node2 -->
<g id="edge1" class="edge"><title>Node1&#45;&gt;Node2</title>
<path fill="none" stroke="midnightblue" d="M797.303,-451.689C964.885,-444.741 1330,-417.19 1330,-309 1330,-309 1330,-309 1330,-245 1330,-151.381 1309.6,-115.106 1237,-56 1196.15,-22.7403 1133.5,-13.7779 1095.57,-11.5306"/>
<polygon fill="midnightblue" stroke="midnightblue" points="1095.26,-8.01241 1085.11,-11.0445 1094.93,-15.0049 1095.26,-8.01241"/>
</g>
<!-- Node3 -->
<g id="node3" class="node"><title>Node3</title>
<polygon fill="white" stroke="#bfbfbf" points="1304,-0.5 1304,-19.5 1356,-19.5 1356,-0.5 1304,-0.5"/>
<text text-anchor="middle" x="1330" y="-7.5" font-family="Helvetica,sans-Serif" font-size="10.00">memory</text>
</g>
<!-- Node1&#45;&gt;Node3 -->
<g id="edge2" class="edge"><title>Node1&#45;&gt;Node3</title>
<path fill="none" stroke="midnightblue" d="M797.322,-453.851C980.549,-451.298 1406,-432.114 1406,-309 1406,-309 1406,-309 1406,-133 1406,-89.2172 1370.3,-48.1424 1347.84,-26.6295"/>
<polygon fill="midnightblue" stroke="midnightblue" points="1349.97,-23.8353 1340.25,-19.62 1345.22,-28.9768 1349.97,-23.8353"/>
</g>
<!-- Node4 -->
<g id="node4" class="node"><title>Node4</title>
<polygon fill="white" stroke="#bfbfbf" points="-0.5,-57 -0.5,-87 100.5,-87 100.5,-57 -0.5,-57"/>
<text text-anchor="start" x="7.5" y="-75" font-family="Helvetica,sans-Serif" font-size="10.00">boost/property_tree</text>
<text text-anchor="middle" x="50" y="-64" font-family="Helvetica,sans-Serif" font-size="10.00">/ptree.hpp</text>
</g>
<!-- Node1&#45;&gt;Node4 -->
<g id="edge3" class="edge"><title>Node1&#45;&gt;Node4</title>
<path fill="none" stroke="midnightblue" d="M632.944,-453.534C484.137,-451.458 176.501,-441.151 83,-392 40.2856,-369.546 13,-357.257 13,-309 13,-309 13,-309 13,-189 13,-155.671 27.0349,-119.395 37.8167,-96.4442"/>
<polygon fill="midnightblue" stroke="midnightblue" points="41.0955,-97.7057 42.3336,-87.1834 34.804,-94.637 41.0955,-97.7057"/>
</g>
<!-- Node5 -->
<g id="node5" class="node"><title>Node5</title>
<g id="a_node5"><a xlink:href="../../d9/dfb/Spin_8hpp.html" target="_top" xlink:title="Core/Spin.hpp">
<polygon fill="white" stroke="black" points="429.5,-180.5 429.5,-199.5 508.5,-199.5 508.5,-180.5 429.5,-180.5"/>
<text text-anchor="middle" x="469" y="-187.5" font-family="Helvetica,sans-Serif" font-size="10.00">Core/Spin.hpp</text>
</a>
</g>
</g>
<!-- Node1&#45;&gt;Node5 -->
<g id="edge4" class="edge"><title>Node1&#45;&gt;Node5</title>
<path fill="none" stroke="midnightblue" d="M632.544,-447.094C524.923,-432.815 344.347,-389.157 294,-256 274.212,-203.665 360.694,-192.356 419.118,-190.54"/>
<polygon fill="midnightblue" stroke="midnightblue" points="419.391,-194.035 429.309,-190.309 419.232,-187.037 419.391,-194.035"/>
</g>
<!-- Node9 -->
<g id="node9" class="node"><title>Node9</title>
<g id="a_node9"><a xlink:href="../../d2/de9/Exceptions_8hpp.html" target="_top" xlink:title="This class defines the ComPWA exception base&#45;class and provides a set of standard exceptions...">
<polygon fill="white" stroke="red" points="241,-62.5 241,-81.5 349,-81.5 349,-62.5 241,-62.5"/>
<text text-anchor="middle" x="295" y="-69.5" font-family="Helvetica,sans-Serif" font-size="10.00">Core/Exceptions.hpp</text>
</a>
</g>
</g>
<!-- Node1&#45;&gt;Node9 -->
<g id="edge40" class="edge"><title>Node1&#45;&gt;Node9</title>
<path fill="none" stroke="midnightblue" d="M632.915,-453.144C455.261,-449.068 51,-426.847 51,-309 51,-309 51,-309 51,-245 51,-150.579 174.571,-103.439 245.836,-84.1039"/>
<polygon fill="midnightblue" stroke="midnightblue" points="246.744,-87.4842 255.526,-81.5581 244.965,-80.714 246.744,-87.4842"/>
</g>
<!-- Node10 -->
<g id="node10" class="node"><title>Node10</title>
<g id="a_node10"><a xlink:href="../../dc/d66/Functions_8hpp.html" target="_top" xlink:title="This file contains Functions implementing the Strategy interface so they can be used inside a node of...">
<polygon fill="white" stroke="black" points="929,-236.5 929,-255.5 1031,-255.5 1031,-236.5 929,-236.5"/>
<text text-anchor="middle" x="980" y="-243.5" font-family="Helvetica,sans-Serif" font-size="10.00">Core/Functions.hpp</text>
</a>
</g>
</g>
<!-- Node1&#45;&gt;Node10 -->
<g id="edge11" class="edge"><title>Node1&#45;&gt;Node10</title>
<path fill="none" stroke="midnightblue" d="M797.103,-452.933C888.149,-446.741 1030.77,-420.996 1096,-324 1103.94,-312.198 1104.03,-303.735 1096,-292 1083.36,-273.536 1061.95,-262.646 1040.95,-256.225"/>
<polygon fill="midnightblue" stroke="midnightblue" points="1041.6,-252.775 1031.03,-253.497 1039.75,-259.524 1041.6,-252.775"/>
</g>
<!-- Node17 -->
<g id="node17" class="node"><title>Node17</title>
<g id="a_node17"><a xlink:href="../../de/d02/AbstractDynamicalFunction_8hpp.html" target="_top" xlink:title="Physics/DecayDynamics\l/AbstractDynamicalFunction.hpp">
<polygon fill="white" stroke="black" points="496.5,-361 496.5,-391 655.5,-391 655.5,-361 496.5,-361"/>
<text text-anchor="start" x="504.5" y="-379" font-family="Helvetica,sans-Serif" font-size="10.00">Physics/DecayDynamics</text>
<text text-anchor="middle" x="576" y="-368" font-family="Helvetica,sans-Serif" font-size="10.00">/AbstractDynamicalFunction.hpp</text>
</a>
</g>
</g>
<!-- Node1&#45;&gt;Node17 -->
<g id="edge41" class="edge"><title>Node1&#45;&gt;Node17</title>
<path fill="none" stroke="midnightblue" d="M669.486,-428.787C650.203,-418.105 628.112,-405.868 610.248,-395.972"/>
<polygon fill="midnightblue" stroke="midnightblue" points="611.772,-392.815 601.328,-391.031 608.38,-398.938 611.772,-392.815"/>
</g>
<!-- Node21 -->
<g id="node21" class="node"><title>Node21</title>
<g id="a_node21"><a xlink:href="../../d9/de6/AmpWignerD_8hpp.html" target="_top" xlink:title="Contains AmpWignerD class which provides WignerD functions. ">
<polygon fill="white" stroke="black" points="786,-361 786,-391 920,-391 920,-361 786,-361"/>
<text text-anchor="start" x="794" y="-379" font-family="Helvetica,sans-Serif" font-size="10.00">Physics/HelicityFormalism</text>
<text text-anchor="middle" x="853" y="-368" font-family="Helvetica,sans-Serif" font-size="10.00">/AmpWignerD.hpp</text>
</a>
</g>
</g>
<!-- Node1&#45;&gt;Node21 -->
<g id="edge62" class="edge"><title>Node1&#45;&gt;Node21</title>
<path fill="none" stroke="midnightblue" d="M760.186,-428.787C779.331,-418.105 801.263,-405.868 818.999,-395.972"/>
<polygon fill="midnightblue" stroke="midnightblue" points="820.827,-398.96 827.854,-391.031 817.416,-392.847 820.827,-398.96"/>
</g>
<!-- Node5&#45;&gt;Node2 -->
<g id="edge7" class="edge"><title>Node5&#45;&gt;Node2</title>
<path fill="none" stroke="midnightblue" d="M471.222,-180.435C478.125,-155.791 501.76,-84.6423 551,-56 592.433,-31.899 925.012,-16.5538 1030.81,-12.2451"/>
<polygon fill="midnightblue" stroke="midnightblue" points="1031.03,-15.739 1040.88,-11.8403 1030.75,-8.74462 1031.03,-15.739"/>
</g>
<!-- Node6 -->
<g id="node6" class="node"><title>Node6</title>
<polygon fill="white" stroke="#bfbfbf" points="375.5,-0.5 375.5,-19.5 416.5,-19.5 416.5,-0.5 375.5,-0.5"/>
<text text-anchor="middle" x="396" y="-7.5" font-family="Helvetica,sans-Serif" font-size="10.00">string</text>
</g>
<!-- Node5&#45;&gt;Node6 -->
<g id="edge5" class="edge"><title>Node5&#45;&gt;Node6</title>
<path fill="none" stroke="midnightblue" d="M465.479,-180.415C454.233,-152.992 419.007,-67.0986 403.479,-29.2356"/>
<polygon fill="midnightblue" stroke="midnightblue" points="406.69,-27.8426 399.658,-19.9185 400.214,-30.4987 406.69,-27.8426"/>
</g>
<!-- Node7 -->
<g id="node7" class="node"><title>Node7</title>
<polygon fill="white" stroke="#bfbfbf" points="809.5,-124.5 809.5,-143.5 844.5,-143.5 844.5,-124.5 809.5,-124.5"/>
<text text-anchor="middle" x="827" y="-131.5" font-family="Helvetica,sans-Serif" font-size="10.00">map</text>
</g>
<!-- Node5&#45;&gt;Node7 -->
<g id="edge6" class="edge"><title>Node5&#45;&gt;Node7</title>
<path fill="none" stroke="midnightblue" d="M508.68,-183.015C581.82,-171.982 736.175,-148.7 799.255,-139.185"/>
<polygon fill="midnightblue" stroke="midnightblue" points="799.886,-142.629 809.252,-137.677 798.842,-135.708 799.886,-142.629"/>
</g>
<!-- Node8 -->
<g id="node8" class="node"><title>Node8</title>
<polygon fill="white" stroke="#bfbfbf" points="560,-62.5 560,-81.5 614,-81.5 614,-62.5 560,-62.5"/>
<text text-anchor="middle" x="587" y="-69.5" font-family="Helvetica,sans-Serif" font-size="10.00">iostream</text>
</g>
<!-- Node5&#45;&gt;Node8 -->
<g id="edge8" class="edge"><title>Node5&#45;&gt;Node8</title>
<path fill="none" stroke="midnightblue" d="M475.978,-180.206C486.345,-167.343 506.673,-142.877 526,-124 539.191,-111.116 555.224,-97.7921 567.542,-87.9951"/>
<polygon fill="midnightblue" stroke="midnightblue" points="570.058,-90.4701 575.761,-81.5414 565.735,-84.9645 570.058,-90.4701"/>
</g>
<!-- Node5&#45;&gt;Node9 -->
<g id="edge9" class="edge"><title>Node5&#45;&gt;Node9</title>
<path fill="none" stroke="midnightblue" d="M448.585,-180.471C429.833,-172.254 401.609,-158.9 379,-144 353.746,-127.357 327.586,-104.13 311.309,-88.8361"/>
<polygon fill="midnightblue" stroke="midnightblue" points="313.409,-86.0029 303.755,-81.6388 308.581,-91.0709 313.409,-86.0029"/>
</g>
<!-- Node9&#45;&gt;Node6 -->
<g id="edge10" class="edge"><title>Node9&#45;&gt;Node6</title>
<path fill="none" stroke="midnightblue" d="M309.471,-62.4035C326.046,-52.5569 353.426,-36.2915 372.947,-24.6949"/>
<polygon fill="midnightblue" stroke="midnightblue" points="374.746,-27.6971 381.556,-19.5806 371.171,-21.6789 374.746,-27.6971"/>
</g>
<!-- Node10&#45;&gt;Node2 -->
<g id="edge12" class="edge"><title>Node10&#45;&gt;Node2</title>
<path fill="none" stroke="midnightblue" d="M985.287,-236.275C990.524,-227.38 998.532,-213.069 1004,-200 1029.27,-139.602 1049.6,-64.4548 1058.35,-29.94"/>
<polygon fill="midnightblue" stroke="midnightblue" points="1061.84,-30.4228 1060.86,-19.8727 1055.04,-28.7266 1061.84,-30.4228"/>
</g>
<!-- Node10&#45;&gt;Node9 -->
<g id="edge15" class="edge"><title>Node10&#45;&gt;Node9</title>
<path fill="none" stroke="midnightblue" d="M928.894,-244.653C808.818,-243.237 511.928,-236.08 420,-200 365.666,-178.675 323.524,-119.801 305.116,-90.3077"/>
<polygon fill="midnightblue" stroke="midnightblue" points="307.973,-88.2696 299.8,-81.5288 301.986,-91.8957 307.973,-88.2696"/>
</g>
<!-- Node11 -->
<g id="node11" class="node"><title>Node11</title>
<polygon fill="white" stroke="#bfbfbf" points="771.5,-62.5 771.5,-81.5 824.5,-81.5 824.5,-62.5 771.5,-62.5"/>
<text text-anchor="middle" x="798" y="-69.5" font-family="Helvetica,sans-Serif" font-size="10.00">complex</text>
</g>
<!-- Node10&#45;&gt;Node11 -->
<g id="edge13" class="edge"><title>Node10&#45;&gt;Node11</title>
<path fill="none" stroke="midnightblue" d="M975.086,-236.452C962.594,-215.28 927.709,-159.555 887,-124 868.953,-108.238 845.292,-94.9566 826.903,-85.9022"/>
<polygon fill="midnightblue" stroke="midnightblue" points="828.357,-82.7177 817.825,-81.5619 825.337,-89.033 828.357,-82.7177"/>
</g>
<!-- Node12 -->
<g id="node12" class="node"><title>Node12</title>
<polygon fill="white" stroke="#bfbfbf" points="1091.5,-124.5 1091.5,-143.5 1138.5,-143.5 1138.5,-124.5 1091.5,-124.5"/>
<text text-anchor="middle" x="1115" y="-131.5" font-family="Helvetica,sans-Serif" font-size="10.00">math.h</text>
</g>
<!-- Node10&#45;&gt;Node12 -->
<g id="edge14" class="edge"><title>Node10&#45;&gt;Node12</title>
<path fill="none" stroke="midnightblue" d="M990.593,-236.368C1013.46,-217.733 1067.71,-173.532 1096.43,-150.134"/>
<polygon fill="midnightblue" stroke="midnightblue" points="1098.91,-152.622 1104.46,-143.591 1094.49,-147.195 1098.91,-152.622"/>
</g>
<!-- Node13 -->
<g id="node13" class="node"><title>Node13</title>
<g id="a_node13"><a xlink:href="../../df/d9f/ParameterList_8hpp.html" target="_top" xlink:title="This class provides a list of fit parameters which can have different types. ">
<polygon fill="white" stroke="red" points="680,-180.5 680,-199.5 800,-199.5 800,-180.5 680,-180.5"/>
<text text-anchor="middle" x="740" y="-187.5" font-family="Helvetica,sans-Serif" font-size="10.00">Core/ParameterList.hpp</text>
</a>
</g>
</g>
<!-- Node10&#45;&gt;Node13 -->
<g id="edge16" class="edge"><title>Node10&#45;&gt;Node13</title>
<path fill="none" stroke="midnightblue" d="M941.971,-236.444C900.192,-227.043 833.018,-211.929 787.73,-201.739"/>
<polygon fill="midnightblue" stroke="midnightblue" points="788.375,-198.297 777.851,-199.516 786.839,-205.126 788.375,-198.297"/>
</g>
<!-- Node14 -->
<g id="node14" class="node"><title>Node14</title>
<g id="a_node14"><a xlink:href="../../d8/def/AbsParameter_8hpp.html" target="_top" xlink:title="This class defines the internal container of a parameter. ">
<polygon fill="white" stroke="red" points="843,-62.5 843,-81.5 965,-81.5 965,-62.5 843,-62.5"/>
<text text-anchor="middle" x="904" y="-69.5" font-family="Helvetica,sans-Serif" font-size="10.00">Core/AbsParameter.hpp</text>
</a>
</g>
</g>
<!-- Node10&#45;&gt;Node14 -->
<g id="edge35" class="edge"><title>Node10&#45;&gt;Node14</title>
<path fill="none" stroke="midnightblue" d="M983.028,-236.191C991.233,-211.652 1012.52,-143.071 1001,-124 989.503,-104.966 968.286,-92.6817 948.62,-84.9513"/>
<polygon fill="midnightblue" stroke="midnightblue" points="949.735,-81.6324 939.14,-81.5126 947.348,-88.2128 949.735,-81.6324"/>
</g>
<!-- Node15 -->
<g id="node15" class="node"><title>Node15</title>
<g id="a_node15"><a xlink:href="../../db/dce/Parameter_8hpp.html" target="_top" xlink:title="This class implements some internal container of parameters. ">
<polygon fill="white" stroke="red" points="535,-124.5 535,-143.5 639,-143.5 639,-124.5 535,-124.5"/>
<text text-anchor="middle" x="587" y="-131.5" font-family="Helvetica,sans-Serif" font-size="10.00">Core/Parameter.hpp</text>
</a>
</g>
</g>
<!-- Node10&#45;&gt;Node15 -->
<g id="edge34" class="edge"><title>Node10&#45;&gt;Node15</title>
<path fill="none" stroke="midnightblue" d="M928.922,-245.401C865.852,-244.164 756.451,-236.289 671,-200 644.117,-188.584 618.344,-166.412 602.599,-151.164"/>
<polygon fill="midnightblue" stroke="midnightblue" points="604.879,-148.496 595.326,-143.915 599.938,-153.453 604.879,-148.496"/>
</g>
<!-- Node16 -->
<g id="node16" class="node"><title>Node16</title>
<g id="a_node16"><a xlink:href="../../d8/dd4/DataPoint_8hpp.html" target="_top" xlink:title="dataPoint stores kinematic information of a dalitz plot ">
<polygon fill="white" stroke="red" points="1084.5,-180.5 1084.5,-199.5 1187.5,-199.5 1187.5,-180.5 1084.5,-180.5"/>
<text text-anchor="middle" x="1136" y="-187.5" font-family="Helvetica,sans-Serif" font-size="10.00">Core/DataPoint.hpp</text>
</a>
</g>
</g>
<!-- Node10&#45;&gt;Node16 -->
<g id="edge36" class="edge"><title>Node10&#45;&gt;Node16</title>
<path fill="none" stroke="midnightblue" d="M1004.72,-236.444C1030.85,-227.399 1072.26,-213.064 1101.58,-202.916"/>
<polygon fill="midnightblue" stroke="midnightblue" points="1103.09,-206.095 1111.4,-199.516 1100.8,-199.48 1103.09,-206.095"/>
</g>
<!-- Node13&#45;&gt;Node2 -->
<g id="edge20" class="edge"><title>Node13&#45;&gt;Node2</title>
<path fill="none" stroke="midnightblue" d="M738.372,-180.328C734.468,-156.609 727.312,-90.154 762,-56 799.436,-19.1403 960.341,-12.392 1030.3,-11.2159"/>
<polygon fill="midnightblue" stroke="midnightblue" points="1030.77,-14.7098 1040.72,-11.0712 1030.67,-7.71052 1030.77,-14.7098"/>
</g>
<!-- Node13&#45;&gt;Node3 -->
<g id="edge19" class="edge"><title>Node13&#45;&gt;Node3</title>
<path fill="none" stroke="midnightblue" d="M768.457,-180.415C865.904,-151.015 1186.11,-54.4096 1294.09,-21.8352"/>
<polygon fill="midnightblue" stroke="midnightblue" points="1295.29,-25.1264 1303.86,-18.8871 1293.27,-18.4248 1295.29,-25.1264"/>
</g>
<!-- Node13&#45;&gt;Node6 -->
<g id="edge18" class="edge"><title>Node13&#45;&gt;Node6</title>
<path fill="none" stroke="midnightblue" d="M735.249,-180.441C721.434,-156.425 678.698,-88.0762 623,-56 559.987,-19.711 472.61,-12.2414 426.816,-10.9796"/>
<polygon fill="midnightblue" stroke="midnightblue" points="426.703,-7.47688 416.638,-10.7842 426.569,-14.4756 426.703,-7.47688"/>
</g>
<!-- Node13&#45;&gt;Node7 -->
<g id="edge21" class="edge"><title>Node13&#45;&gt;Node7</title>
<path fill="none" stroke="midnightblue" d="M753.978,-180.324C767.55,-171.9 788.38,-158.971 804.325,-149.074"/>
<polygon fill="midnightblue" stroke="midnightblue" points="806.406,-151.902 813.057,-143.655 802.714,-145.954 806.406,-151.902"/>
</g>
<!-- Node13&#45;&gt;Node8 -->
<g id="edge17" class="edge"><title>Node13&#45;&gt;Node8</title>
<path fill="none" stroke="midnightblue" d="M728.5,-180.281C702.455,-160.535 638.727,-112.218 606.434,-87.7346"/>
<polygon fill="midnightblue" stroke="midnightblue" points="608.301,-84.7574 598.218,-81.5048 604.072,-90.3354 608.301,-84.7574"/>
</g>
<!-- Node13&#45;&gt;Node9 -->
<g id="edge33" class="edge"><title>Node13&#45;&gt;Node9</title>
<path fill="none" stroke="midnightblue" d="M693.38,-180.465C649.838,-172.194 583.161,-158.762 526,-144 455.565,-125.81 374.575,-99.6906 329.638,-84.7269"/>
<polygon fill="midnightblue" stroke="midnightblue" points="330.674,-81.3831 320.081,-81.5314 328.455,-88.0219 330.674,-81.3831"/>
</g>
<!-- Node13&#45;&gt;Node14 -->
<g id="edge22" class="edge"><title>Node13&#45;&gt;Node14</title>
<path fill="none" stroke="midnightblue" d="M746.193,-180.475C756.261,-167.08 777.346,-140.89 800,-124 821.95,-107.635 849.968,-94.2519 871.392,-85.3076"/>
<polygon fill="midnightblue" stroke="midnightblue" points="872.778,-88.5221 880.726,-81.5156 870.144,-82.0369 872.778,-88.5221"/>
</g>
<!-- Node13&#45;&gt;Node15 -->
<g id="edge26" class="edge"><title>Node13&#45;&gt;Node15</title>
<path fill="none" stroke="midnightblue" d="M715.757,-180.444C690.129,-171.399 649.515,-157.064 620.762,-146.916"/>
<polygon fill="midnightblue" stroke="midnightblue" points="621.725,-143.544 611.13,-143.516 619.395,-150.145 621.725,-143.544"/>
</g>
<!-- Node14&#45;&gt;Node2 -->
<g id="edge24" class="edge"><title>Node14&#45;&gt;Node2</title>
<path fill="none" stroke="midnightblue" d="M926.781,-62.4035C954.21,-52.0529 1000.43,-34.6095 1031.33,-22.9523"/>
<polygon fill="midnightblue" stroke="midnightblue" points="1032.65,-26.1924 1040.77,-19.3871 1030.18,-19.6432 1032.65,-26.1924"/>
</g>
<!-- Node14&#45;&gt;Node3 -->
<g id="edge25" class="edge"><title>Node14&#45;&gt;Node3</title>
<path fill="none" stroke="midnightblue" d="M943.996,-62.4626C955.286,-60.1994 967.6,-57.8685 979,-56 1093.57,-37.2218 1230.26,-21.6454 1293.98,-14.7767"/>
<polygon fill="midnightblue" stroke="midnightblue" points="1294.36,-18.2565 1303.93,-13.7115 1293.61,-11.2963 1294.36,-18.2565"/>
</g>
<!-- Node14&#45;&gt;Node6 -->
<g id="edge23" class="edge"><title>Node14&#45;&gt;Node6</title>
<path fill="none" stroke="midnightblue" d="M867.286,-62.4721C856.303,-60.13 844.202,-57.755 833,-56 681.416,-32.2509 498.21,-18.0385 426.689,-13.0401"/>
<polygon fill="midnightblue" stroke="midnightblue" points="426.794,-9.53912 416.577,-12.3431 426.312,-16.5225 426.794,-9.53912"/>
</g>
<!-- Node15&#45;&gt;Node4 -->
<g id="edge30" class="edge"><title>Node15&#45;&gt;Node4</title>
<path fill="none" stroke="midnightblue" d="M534.532,-127.138C434.54,-115.965 217.203,-91.6819 110.95,-79.81"/>
<polygon fill="midnightblue" stroke="midnightblue" points="111.04,-76.2984 100.713,-78.6663 110.263,-83.2551 111.04,-76.2984"/>
</g>
<!-- Node15&#45;&gt;Node6 -->
<g id="edge28" class="edge"><title>Node15&#45;&gt;Node6</title>
<path fill="none" stroke="midnightblue" d="M573.569,-124.421C541.034,-103.64 457.751,-50.4431 417.895,-24.9851"/>
<polygon fill="midnightblue" stroke="midnightblue" points="419.728,-22.0028 409.416,-19.5693 415.959,-27.902 419.728,-22.0028"/>
</g>
<!-- Node15&#45;&gt;Node8 -->
<g id="edge27" class="edge"><title>Node15&#45;&gt;Node8</title>
<path fill="none" stroke="midnightblue" d="M587,-124.403C587,-115.938 587,-102.728 587,-91.8199"/>
<polygon fill="midnightblue" stroke="midnightblue" points="590.5,-91.5806 587,-81.5806 583.5,-91.5806 590.5,-91.5806"/>
</g>
<!-- Node15&#45;&gt;Node9 -->
<g id="edge32" class="edge"><title>Node15&#45;&gt;Node9</title>
<path fill="none" stroke="midnightblue" d="M545.474,-124.467C493.041,-113.693 402.857,-95.1623 346.209,-83.5223"/>
<polygon fill="midnightblue" stroke="midnightblue" points="346.883,-80.0878 336.383,-81.5034 345.474,-86.9446 346.883,-80.0878"/>
</g>
<!-- Node15&#45;&gt;Node11 -->
<g id="edge29" class="edge"><title>Node15&#45;&gt;Node11</title>
<path fill="none" stroke="midnightblue" d="M617.231,-124.403C655.364,-113.56 720.872,-94.9321 761.681,-83.3277"/>
<polygon fill="midnightblue" stroke="midnightblue" points="762.831,-86.6396 771.492,-80.5378 760.916,-79.9065 762.831,-86.6396"/>
</g>
<!-- Node15&#45;&gt;Node14 -->
<g id="edge31" class="edge"><title>Node15&#45;&gt;Node14</title>
<path fill="none" stroke="midnightblue" d="M636.082,-124.428C685.789,-115.651 764.844,-101.431 833,-88 840.053,-86.6101 847.49,-85.0945 854.788,-83.5784"/>
<polygon fill="midnightblue" stroke="midnightblue" points="855.536,-86.9978 864.606,-81.5223 854.101,-80.1464 855.536,-86.9978"/>
</g>
<!-- Node16&#45;&gt;Node2 -->
<g id="edge38" class="edge"><title>Node16&#45;&gt;Node2</title>
<path fill="none" stroke="midnightblue" d="M1140.04,-180.386C1145.41,-167.748 1153.47,-143.558 1147,-124 1133.85,-84.255 1100.7,-47.1139 1080.19,-26.8814"/>
<polygon fill="midnightblue" stroke="midnightblue" points="1082.41,-24.1563 1072.77,-19.7515 1077.56,-29.2039 1082.41,-24.1563"/>
</g>
<!-- Node16&#45;&gt;Node7 -->
<g id="edge39" class="edge"><title>Node16&#45;&gt;Node7</title>
<path fill="none" stroke="midnightblue" d="M1087.04,-180.444C1021.29,-168.953 906.683,-148.925 854.405,-139.789"/>
<polygon fill="midnightblue" stroke="midnightblue" points="854.977,-136.336 844.524,-138.062 853.772,-143.232 854.977,-136.336"/>
</g>
<!-- Node16&#45;&gt;Node12 -->
<g id="edge37" class="edge"><title>Node16&#45;&gt;Node12</title>
<path fill="none" stroke="midnightblue" d="M1132.53,-180.083C1129.69,-172.77 1125.57,-162.181 1122.04,-153.103"/>
<polygon fill="midnightblue" stroke="midnightblue" points="1125.29,-151.803 1118.4,-143.751 1118.77,-154.34 1125.29,-151.803"/>
</g>
<!-- Node17&#45;&gt;Node4 -->
<g id="edge43" class="edge"><title>Node17&#45;&gt;Node4</title>
<path fill="none" stroke="midnightblue" d="M496.224,-370.059C404.543,-360.731 253.561,-333.792 151,-256 96.972,-215.02 68.0039,-136.36 56.2984,-96.8634"/>
<polygon fill="midnightblue" stroke="midnightblue" points="59.6089,-95.7087 53.5081,-87.0467 52.8756,-97.6226 59.6089,-95.7087"/>
</g>
<!-- Node17&#45;&gt;Node5 -->
<g id="edge52" class="edge"><title>Node17&#45;&gt;Node5</title>
<path fill="none" stroke="midnightblue" d="M567.782,-360.867C548.547,-327.792 500.631,-245.393 479.404,-208.89"/>
<polygon fill="midnightblue" stroke="midnightblue" points="482.223,-206.776 474.17,-199.891 476.172,-210.295 482.223,-206.776"/>
</g>
<!-- Node17&#45;&gt;Node11 -->
<g id="edge42" class="edge"><title>Node17&#45;&gt;Node11</title>
<path fill="none" stroke="midnightblue" d="M610.025,-360.966C674.743,-331.972 812.717,-258.44 853,-144 860.875,-121.628 839.974,-100.776 821.713,-87.5354"/>
<polygon fill="midnightblue" stroke="midnightblue" points="823.335,-84.4056 813.098,-81.6738 819.397,-90.193 823.335,-84.4056"/>
</g>
<!-- Node17&#45;&gt;Node13 -->
<g id="edge51" class="edge"><title>Node17&#45;&gt;Node13</title>
<path fill="none" stroke="midnightblue" d="M577.257,-360.869C579.416,-343.31 585.143,-313.093 600,-292 628.935,-250.92 680.017,-220.328 711.827,-204.106"/>
<polygon fill="midnightblue" stroke="midnightblue" points="713.633,-207.117 721.035,-199.537 710.521,-200.847 713.633,-207.117"/>
</g>
<!-- Node17&#45;&gt;Node16 -->
<g id="edge50" class="edge"><title>Node17&#45;&gt;Node16</title>
<path fill="none" stroke="midnightblue" d="M655.611,-368.003C741.785,-359.58 873.058,-344.032 919,-324 939.869,-314.9 939.577,-303.876 959,-292 992.264,-271.661 1004.91,-274.919 1039,-256 1066.85,-240.546 1097.05,-219.577 1116.23,-205.684"/>
<polygon fill="midnightblue" stroke="midnightblue" points="1118.45,-208.395 1124.46,-199.666 1114.32,-202.745 1118.45,-208.395"/>
</g>
<!-- Node18 -->
<g id="node18" class="node"><title>Node18</title>
<g id="a_node18"><a xlink:href="../../dc/ded/Properties_8hpp.html" target="_top" xlink:title="Core/Properties.hpp">
<polygon fill="white" stroke="black" points="303,-236.5 303,-255.5 407,-255.5 407,-236.5 303,-236.5"/>
<text text-anchor="middle" x="355" y="-243.5" font-family="Helvetica,sans-Serif" font-size="10.00">Core/Properties.hpp</text>
</a>
</g>
</g>
<!-- Node17&#45;&gt;Node18 -->
<g id="edge44" class="edge"><title>Node17&#45;&gt;Node18</title>
<path fill="none" stroke="midnightblue" d="M496.234,-363.641C447.158,-355.055 390.423,-341.713 373,-324 357.837,-308.585 354.519,-282.992 354.21,-265.58"/>
<polygon fill="midnightblue" stroke="midnightblue" points="357.71,-265.555 354.347,-255.508 350.711,-265.459 357.71,-265.555"/>
</g>
<!-- Node19 -->
<g id="node19" class="node"><title>Node19</title>
<g id="a_node19"><a xlink:href="../../da/db2/FunctionTree_8hpp.html" target="_top" xlink:title="This class can be used to store a function in a tree&#45;like structure. ">
<polygon fill="white" stroke="red" points="795,-298.5 795,-317.5 911,-317.5 911,-298.5 795,-298.5"/>
<text text-anchor="middle" x="853" y="-305.5" font-family="Helvetica,sans-Serif" font-size="10.00">Core/FunctionTree.hpp</text>
</a>
</g>
</g>
<!-- Node17&#45;&gt;Node19 -->
<g id="edge53" class="edge"><title>Node17&#45;&gt;Node19</title>
<path fill="none" stroke="midnightblue" d="M635.084,-360.922C686.598,-348.648 760.25,-331.099 807.349,-319.877"/>
<polygon fill="midnightblue" stroke="midnightblue" points="808.352,-323.236 817.268,-317.514 806.729,-316.427 808.352,-323.236"/>
</g>
<!-- Node20 -->
<g id="node20" class="node"><title>Node20</title>
<g id="a_node20"><a xlink:href="../../de/dc9/FormFactor_8hpp.html" target="_top" xlink:title="Physics/DecayDynamics\l/FormFactor.hpp">
<polygon fill="white" stroke="black" points="382,-293 382,-323 510,-323 510,-293 382,-293"/>
<text text-anchor="start" x="390" y="-311" font-family="Helvetica,sans-Serif" font-size="10.00">Physics/DecayDynamics</text>
<text text-anchor="middle" x="446" y="-300" font-family="Helvetica,sans-Serif" font-size="10.00">/FormFactor.hpp</text>
</a>
</g>
</g>
<!-- Node17&#45;&gt;Node20 -->
<g id="edge61" class="edge"><title>Node17&#45;&gt;Node20</title>
<path fill="none" stroke="midnightblue" d="M548.112,-360.841C529.091,-351.185 503.693,-338.29 482.986,-327.778"/>
<polygon fill="midnightblue" stroke="midnightblue" points="484.343,-324.541 473.842,-323.135 481.174,-330.783 484.343,-324.541"/>
</g>
<!-- Node18&#45;&gt;Node2 -->
<g id="edge45" class="edge"><title>Node18&#45;&gt;Node2</title>
<path fill="none" stroke="midnightblue" d="M359.103,-236.151C374.17,-204.813 429.876,-98.7082 512,-56 603.082,-8.63302 926.716,-9.00669 1030.63,-10.4088"/>
<polygon fill="midnightblue" stroke="midnightblue" points="1030.76,-13.9111 1040.81,-10.5594 1030.87,-6.91183 1030.76,-13.9111"/>
</g>
<!-- Node18&#45;&gt;Node4 -->
<g id="edge46" class="edge"><title>Node18&#45;&gt;Node4</title>
<path fill="none" stroke="midnightblue" d="M333.082,-236.399C312.131,-227.929 279.851,-214.228 253,-200 188.896,-166.033 117.858,-119.36 79.1269,-93.0878"/>
<polygon fill="midnightblue" stroke="midnightblue" points="80.69,-89.9176 70.4551,-87.1796 76.7487,-95.7026 80.69,-89.9176"/>
</g>
<!-- Node18&#45;&gt;Node5 -->
<g id="edge49" class="edge"><title>Node18&#45;&gt;Node5</title>
<path fill="none" stroke="midnightblue" d="M373.064,-236.444C391.575,-227.675 420.581,-213.935 441.855,-203.858"/>
<polygon fill="midnightblue" stroke="midnightblue" points="443.482,-206.96 451.021,-199.516 440.485,-200.634 443.482,-206.96"/>
</g>
<!-- Node18&#45;&gt;Node9 -->
<g id="edge47" class="edge"><title>Node18&#45;&gt;Node9</title>
<path fill="none" stroke="midnightblue" d="M317.898,-236.458C298.555,-229.918 276.572,-218.724 265,-200 247.242,-171.267 256.125,-156.591 265,-124 268.354,-111.682 275.522,-99.304 282.011,-89.8277"/>
<polygon fill="midnightblue" stroke="midnightblue" points="284.846,-91.88 287.876,-81.7279 279.176,-87.7743 284.846,-91.88"/>
</g>
<!-- Node18&#45;&gt;Node15 -->
<g id="edge48" class="edge"><title>Node18&#45;&gt;Node15</title>
<path fill="none" stroke="midnightblue" d="M407.046,-237.083C440.071,-230.518 482.857,-219.083 517,-200 539.509,-187.42 560.498,-166.143 573.51,-151.375"/>
<polygon fill="midnightblue" stroke="midnightblue" points="576.364,-153.422 580.201,-143.546 571.043,-148.874 576.364,-153.422"/>
</g>
<!-- Node19&#45;&gt;Node2 -->
<g id="edge54" class="edge"><title>Node19&#45;&gt;Node2</title>
<path fill="none" stroke="midnightblue" d="M905.944,-298.445C993.518,-283.071 1162.26,-247.86 1196,-200 1226.72,-156.424 1258.63,-195.036 1133,-56 1121.27,-43.0225 1104.98,-32.2555 1091.07,-24.5106"/>
<polygon fill="midnightblue" stroke="midnightblue" points="1092.37,-21.2406 1081.9,-19.6416 1089.09,-27.4229 1092.37,-21.2406"/>
</g>
<!-- Node19&#45;&gt;Node3 -->
<g id="edge55" class="edge"><title>Node19&#45;&gt;Node3</title>
<path fill="none" stroke="midnightblue" d="M911.056,-298.992C980.353,-288.973 1091.79,-271.276 1131,-256 1174.55,-239.034 1187.53,-233.612 1220,-200 1271.16,-147.045 1307.93,-65.8552 1322.76,-29.6015"/>
<polygon fill="midnightblue" stroke="midnightblue" points="1326.19,-30.4588 1326.65,-19.874 1319.69,-27.8608 1326.19,-30.4588"/>
</g>
<!-- Node19&#45;&gt;Node6 -->
<g id="edge56" class="edge"><title>Node19&#45;&gt;Node6</title>
<path fill="none" stroke="midnightblue" d="M794.775,-302.32C653.791,-290.906 304.821,-262.122 294,-256 213.004,-210.172 175.569,-130.001 232,-56 248.092,-34.898 322.452,-21.2426 365.313,-14.9811"/>
<polygon fill="midnightblue" stroke="midnightblue" points="366.063,-18.41 375.476,-13.5484 365.085,-11.4786 366.063,-18.41"/>
</g>
<!-- Node19&#45;&gt;Node7 -->
<g id="edge57" class="edge"><title>Node19&#45;&gt;Node7</title>
<path fill="none" stroke="midnightblue" d="M851.675,-298.234C847.641,-271.548 835.447,-190.877 829.856,-153.893"/>
<polygon fill="midnightblue" stroke="midnightblue" points="833.247,-152.909 828.292,-143.544 826.326,-153.955 833.247,-152.909"/>
</g>
<!-- Node19&#45;&gt;Node10 -->
<g id="edge58" class="edge"><title>Node19&#45;&gt;Node10</title>
<path fill="none" stroke="midnightblue" d="M871.196,-298.403C892.509,-288.334 928.031,-271.552 952.663,-259.915"/>
<polygon fill="midnightblue" stroke="midnightblue" points="954.291,-263.017 961.838,-255.581 951.301,-256.688 954.291,-263.017"/>
</g>
<!-- Node19&#45;&gt;Node14 -->
<g id="edge59" class="edge"><title>Node19&#45;&gt;Node14</title>
<path fill="none" stroke="midnightblue" d="M855.347,-298.443C860.266,-280.352 871.875,-236.858 880,-200 888.424,-161.788 896.507,-116.705 900.806,-91.8433"/>
<polygon fill="midnightblue" stroke="midnightblue" points="904.311,-92.1073 902.549,-81.66 897.412,-90.9258 904.311,-92.1073"/>
</g>
<!-- Node19&#45;&gt;Node15 -->
<g id="edge60" class="edge"><title>Node19&#45;&gt;Node15</title>
<path fill="none" stroke="midnightblue" d="M825.814,-298.407C782.062,-283.601 694.881,-249.978 635,-200 618.899,-186.562 605.234,-166.651 596.65,-152.411"/>
<polygon fill="midnightblue" stroke="midnightblue" points="599.592,-150.508 591.552,-143.608 593.535,-154.015 599.592,-150.508"/>
</g>
<!-- Node21&#45;&gt;Node2 -->
<g id="edge63" class="edge"><title>Node21&#45;&gt;Node2</title>
<path fill="none" stroke="midnightblue" d="M920.118,-367.593C1034.27,-353.111 1254,-316.242 1254,-247 1254,-247 1254,-247 1254,-133 1254,-58.5163 1149.56,-27.4785 1095.14,-16.3612"/>
<polygon fill="midnightblue" stroke="midnightblue" points="1095.77,-12.9174 1085.28,-14.4537 1094.44,-19.7899 1095.77,-12.9174"/>
</g>
<!-- Node21&#45;&gt;Node3 -->
<g id="edge64" class="edge"><title>Node21&#45;&gt;Node3</title>
<path fill="none" stroke="midnightblue" d="M920.35,-369.632C1005.56,-362.035 1146.88,-346.52 1194,-324 1300.91,-272.91 1291.92,-203.58 1318,-88 1322.46,-68.2469 1325.8,-45.271 1327.82,-29.5928"/>
<polygon fill="midnightblue" stroke="midnightblue" points="1331.3,-29.969 1329.04,-19.6169 1324.35,-29.1155 1331.3,-29.969"/>
</g>
<!-- Node21&#45;&gt;Node4 -->
<g id="edge65" class="edge"><title>Node21&#45;&gt;Node4</title>
<path fill="none" stroke="midnightblue" d="M803.564,-360.995C738.686,-343.012 621.067,-311.775 519,-292 405.768,-270.062 367.046,-303.623 262,-256 177.455,-217.671 101.102,-134.729 67.7451,-95.0359"/>
<polygon fill="midnightblue" stroke="midnightblue" points="70.3695,-92.7176 61.2922,-87.2538 64.981,-97.1857 70.3695,-92.7176"/>
</g>
<!-- Node21&#45;&gt;Node5 -->
<g id="edge71" class="edge"><title>Node21&#45;&gt;Node5</title>
<path fill="none" stroke="midnightblue" d="M829.401,-360.865C800.354,-343.7 749.304,-314.281 704,-292 632.535,-256.853 545.869,-221.382 500.372,-203.291"/>
<polygon fill="midnightblue" stroke="midnightblue" points="501.631,-200.025 491.045,-199.596 499.053,-206.533 501.631,-200.025"/>
</g>
<!-- Node21&#45;&gt;Node10 -->
<g id="edge68" class="edge"><title>Node21&#45;&gt;Node10</title>
<path fill="none" stroke="midnightblue" d="M920.25,-368.908C979.217,-362.009 1058.5,-348.411 1078,-324 1086.88,-312.887 1085.68,-303.972 1078,-292 1067.73,-275.976 1050.15,-265.582 1032.7,-258.874"/>
<polygon fill="midnightblue" stroke="midnightblue" points="1033.66,-255.502 1023.07,-255.514 1031.36,-262.111 1033.66,-255.502"/>
</g>
<!-- Node21&#45;&gt;Node13 -->
<g id="edge67" class="edge"><title>Node21&#45;&gt;Node13</title>
<path fill="none" stroke="midnightblue" d="M827.729,-360.868C813.722,-351.907 796.972,-339.157 786,-324 760.176,-288.326 747.913,-236.953 742.916,-209.673"/>
<polygon fill="midnightblue" stroke="midnightblue" points="746.326,-208.846 741.201,-199.573 739.425,-210.018 746.326,-208.846"/>
</g>
<!-- Node21&#45;&gt;Node16 -->
<g id="edge69" class="edge"><title>Node21&#45;&gt;Node16</title>
<path fill="none" stroke="midnightblue" d="M920.056,-368.6C982.856,-361.282 1070.72,-347.214 1096,-324 1128.61,-294.055 1135.02,-238.64 1136.04,-209.7"/>
<polygon fill="midnightblue" stroke="midnightblue" points="1139.54,-209.754 1136.2,-199.696 1132.54,-209.636 1139.54,-209.754"/>
</g>
<!-- Node21&#45;&gt;Node18 -->
<g id="edge72" class="edge"><title>Node21&#45;&gt;Node18</title>
<path fill="none" stroke="midnightblue" d="M806.464,-360.988C778.902,-351.945 743.681,-339.071 714,-324 691.139,-312.392 689.943,-301.172 666,-292 583.84,-260.525 481.773,-250.848 417.486,-247.996"/>
<polygon fill="midnightblue" stroke="midnightblue" points="417.243,-244.483 407.111,-247.58 416.963,-251.478 417.243,-244.483"/>
</g>
<!-- Node21&#45;&gt;Node19 -->
<g id="edge70" class="edge"><title>Node21&#45;&gt;Node19</title>
<path fill="none" stroke="midnightblue" d="M853,-360.679C853,-351.101 853,-338.394 853,-327.977"/>
<polygon fill="midnightblue" stroke="midnightblue" points="856.5,-327.828 853,-317.828 849.5,-327.828 856.5,-327.828"/>
</g>
<!-- Node22 -->
<g id="node22" class="node"><title>Node22</title>
<polygon fill="white" stroke="#bfbfbf" points="968.5,-293 968.5,-323 1069.5,-323 1069.5,-293 968.5,-293"/>
<text text-anchor="start" x="976.5" y="-311" font-family="Helvetica,sans-Serif" font-size="10.00">boost/property_tree</text>
<text text-anchor="middle" x="1019" y="-300" font-family="Helvetica,sans-Serif" font-size="10.00">/exceptions.hpp</text>
</g>
<!-- Node21&#45;&gt;Node22 -->
<g id="edge66" class="edge"><title>Node21&#45;&gt;Node22</title>
<path fill="none" stroke="midnightblue" d="M888.611,-360.841C913.641,-350.89 947.317,-337.5 974.175,-326.822"/>
<polygon fill="midnightblue" stroke="midnightblue" points="975.734,-329.969 983.733,-323.022 973.147,-323.464 975.734,-329.969"/>
</g>
</g>
</svg>
        <g id="navigator" transform="translate(0 0)" fill="#404254">
                <rect fill="#f2f5e9" fill-opacity="0.5" stroke="#606060" stroke-width=".5" x="0" y="0" width="60" height="60"/>
                <use id="zoomplus" xlink:href="#zoomPlus" x="17" y="9" onmousedown="handleZoom(evt,'in')"/>
                <use id="zoomminus" xlink:href="#zoomMin" x="42" y="9" onmousedown="handleZoom(evt,'out')"/>
                <use id="reset" xlink:href="#resetDef" x="30" y="36" onmousedown="handleReset()"/>
                <g id="arrowUp" xlink:href="#dirArrow" transform="translate(30 24)" onmousedown="handlePan(0,-1)">
                  <use xlink:href="#rim" fill="#404040">
                        <set attributeName="fill" to="#808080" begin="arrowUp.mouseover" end="arrowUp.mouseout"/>
                  </use>
                  <path fill="none" stroke="white" stroke-width="1.5" d="M0,-3.0v7 M-2.5,-0.5L0,-3.0L2.5,-0.5"/>
                </g>
                <g id="arrowRight" xlink:href="#dirArrow" transform="rotate(90) translate(36 -43)" onmousedown="handlePan(1,0)">
                  <use xlink:href="#rim" fill="#404040">
                        <set attributeName="fill" to="#808080" begin="arrowRight.mouseover" end="arrowRight.mouseout"/>
                  </use>
                  <path fill="none" stroke="white" stroke-width="1.5" d="M0,-3.0v7 M-2.5,-0.5L0,-3.0L2.5,-0.5"/>
                </g>
                <g id="arrowDown" xlink:href="#dirArrow" transform="rotate(180) translate(-30 -48)" onmousedown="handlePan(0,1)">
                  <use xlink:href="#rim" fill="#404040">
                        <set attributeName="fill" to="#808080" begin="arrowDown.mouseover" end="arrowDown.mouseout"/>
                  </use>
                  <path fill="none" stroke="white" stroke-width="1.5" d="M0,-3.0v7 M-2.5,-0.5L0,-3.0L2.5,-0.5"/>
                </g>
                <g id="arrowLeft" xlink:href="#dirArrow" transform="rotate(270) translate(-36 17)" onmousedown="handlePan(-1,0)">
                  <use xlink:href="#rim" fill="#404040">
                        <set attributeName="fill" to="#808080" begin="arrowLeft.mouseover" end="arrowLeft.mouseout"/>
                  </use>
                  <path fill="none" stroke="white" stroke-width="1.5" d="M0,-3.0v7 M-2.5,-0.5L0,-3.0L2.5,-0.5"/>
                </g>
        </g>
        <svg viewBox="0 0 15 15" width="100%" height="30px" preserveAspectRatio="xMaxYMin meet">
         <g id="arrow_out" transform="scale(0.3 0.3)">
          <a xlink:href="RelativisticBreitWigner_8hpp__incl_org.svg" target="_base">
           <rect id="button" ry="5" rx="5" y="6" x="6" height="38" width="38"
                fill="#f2f5e9" fill-opacity="0.5" stroke="#606060" stroke-width="1.0"/>
           <path id="arrow"
             d="M 11.500037,31.436501 C 11.940474,20.09759 22.043105,11.32322 32.158766,21.979434 L 37.068811,17.246167 C 37.068811,17.246167 37.088388,32 37.088388,32 L 22.160133,31.978069 C 22.160133,31.978069 26.997745,27.140456 26.997745,27.140456 C 18.528582,18.264221 13.291696,25.230495 11.500037,31.436501 z"
             style="fill:#404040;"/>
          </a>
         </g>
        </svg>
</svg>
