<?xml version="1.0" encoding="UTF-8" standalone="no"?>
<!DOCTYPE svg PUBLIC "-//W3C//DTD SVG 1.1//EN"
 "http://www.w3.org/Graphics/SVG/1.1/DTD/svg11.dtd">
<!-- Generated by graphviz version 2.36.0 (20140111.2315)
 -->
<!-- Title: /home/travis/build/ComPWA/ComPWA/Physics/DynamicalDecayFunctions/TwoBodyDecay/RelativisticBreitWigner.hpp Pages: 1 -->
<svg width="1365pt" height="400pt"
 viewBox="0.00 0.00 1364.89 400.00" xmlns="http://www.w3.org/2000/svg" xmlns:xlink="http://www.w3.org/1999/xlink">
<g id="graph0" class="graph" transform="scale(1 1) rotate(0) translate(4 396)">
<title>/home/travis/build/ComPWA/ComPWA/Physics/DynamicalDecayFunctions/TwoBodyDecay/RelativisticBreitWigner.hpp</title>
<polygon fill="white" stroke="none" points="-4,4 -4,-396 1360.89,-396 1360.89,4 -4,4"/>
<!-- Node1 -->
<g id="node1" class="node"><title>Node1</title>
<polygon fill="#bfbfbf" stroke="black" points="694.5,-328.5 694.5,-391.5 855.5,-391.5 855.5,-328.5 694.5,-328.5"/>
<text text-anchor="start" x="702.5" y="-379.5" font-family="Helvetica,sans-Serif" font-size="10.00">/home/travis/build</text>
<text text-anchor="start" x="702.5" y="-368.5" font-family="Helvetica,sans-Serif" font-size="10.00">/ComPWA/ComPWA/Physics</text>
<text text-anchor="start" x="702.5" y="-357.5" font-family="Helvetica,sans-Serif" font-size="10.00">/DynamicalDecayFunctions</text>
<text text-anchor="start" x="702.5" y="-346.5" font-family="Helvetica,sans-Serif" font-size="10.00">/TwoBodyDecay/RelativisticBreit</text>
<text text-anchor="middle" x="775" y="-335.5" font-family="Helvetica,sans-Serif" font-size="10.00">Wigner.hpp</text>
</g>
<!-- Node2 -->
<g id="node2" class="node"><title>Node2</title>
<polygon fill="white" stroke="#bfbfbf" points="238,-6.5 238,-25.5 282,-25.5 282,-6.5 238,-6.5"/>
<text text-anchor="middle" x="260" y="-13.5" font-family="Helvetica,sans-Serif" font-size="10.00">vector</text>
</g>
<!-- Node1&#45;&gt;Node2 -->
<g id="edge1" class="edge"><title>Node1&#45;&gt;Node2</title>
<path fill="none" stroke="midnightblue" d="M694.427,-355.725C584.425,-349.825 381.741,-333.837 214,-292 115.018,-267.312 0,-311.014 0,-209 0,-209 0,-209 0,-139 0,-39.6088 157.639,-21.0315 227.424,-17.677"/>
<polygon fill="midnightblue" stroke="midnightblue" points="227.981,-21.1576 237.833,-17.2593 227.7,-14.1632 227.981,-21.1576"/>
</g>
<!-- Node3 -->
<g id="node3" class="node"><title>Node3</title>
<g id="a_node3"><a xlink:href="../../d4/d03/Utility_8hpp.html" target="_top" xlink:title="Basic structures for amplitude calculations. ">
<polygon fill="white" stroke="black" points="926.5,-198.5 926.5,-217.5 1011.5,-217.5 1011.5,-198.5 926.5,-198.5"/>
<text text-anchor="middle" x="969" y="-205.5" font-family="Helvetica,sans-Serif" font-size="10.00">Core/Utility.hpp</text>
</a>
</g>
</g>
<!-- Node1&#45;&gt;Node3 -->
<g id="edge2" class="edge"><title>Node1&#45;&gt;Node3</title>
<path fill="none" stroke="midnightblue" d="M814.727,-328.283C855.866,-296.475 918.418,-248.11 949.729,-223.9"/>
<polygon fill="midnightblue" stroke="midnightblue" points="951.918,-226.632 957.688,-217.746 947.636,-221.094 951.918,-226.632"/>
</g>
<!-- Node7 -->
<g id="node7" class="node"><title>Node7</title>
<g id="a_node7"><a xlink:href="../../d2/de9/Exceptions_8hpp.html" target="_top" xlink:title="This class defines the ComPWA exception base&#45;class and provides a set of standard exceptions...">
<polygon fill="white" stroke="black" points="1048,-68.5 1048,-87.5 1156,-87.5 1156,-68.5 1048,-68.5"/>
<text text-anchor="middle" x="1102" y="-75.5" font-family="Helvetica,sans-Serif" font-size="10.00">Core/Exceptions.hpp</text>
</a>
</g>
</g>
<!-- Node1&#45;&gt;Node7 -->
<g id="edge43" class="edge"><title>Node1&#45;&gt;Node7</title>
<path fill="none" stroke="midnightblue" d="M855.533,-352.266C998.341,-338.441 1286.47,-301.42 1345,-224 1399.77,-151.551 1248.7,-108.121 1160.53,-89.5814"/>
<polygon fill="midnightblue" stroke="midnightblue" points="1161.13,-86.1319 1150.63,-87.5485 1159.73,-92.9888 1161.13,-86.1319"/>
</g>
<!-- Node9 -->
<g id="node9" class="node"><title>Node9</title>
<g id="a_node9"><a xlink:href="../../dc/d66/Functions_8hpp.html" target="_top" xlink:title="This file contains Functions implementing the Strategy interface so they can be used inside a node of...">
<polygon fill="white" stroke="black" points="223,-266.5 223,-285.5 325,-285.5 325,-266.5 223,-266.5"/>
<text text-anchor="middle" x="274" y="-273.5" font-family="Helvetica,sans-Serif" font-size="10.00">Core/Functions.hpp</text>
</a>
</g>
</g>
<!-- Node1&#45;&gt;Node9 -->
<g id="edge10" class="edge"><title>Node1&#45;&gt;Node9</title>
<path fill="none" stroke="midnightblue" d="M694.227,-345.78C594.023,-329.379 425.409,-301.781 335.238,-287.023"/>
<polygon fill="midnightblue" stroke="midnightblue" points="335.604,-283.536 325.17,-285.375 334.474,-290.445 335.604,-283.536"/>
</g>
<!-- Node20 -->
<g id="node20" class="node"><title>Node20</title>
<g id="a_node20"><a xlink:href="../../de/d02/AbstractDynamicalFunction_8hpp.html" target="_top" xlink:title="Physics/DynamicalDecayFunctions\l/AbstractDynamicalFunction.hpp">
<polygon fill="white" stroke="black" points="574.5,-261 574.5,-291 747.5,-291 747.5,-261 574.5,-261"/>
<text text-anchor="start" x="582.5" y="-279" font-family="Helvetica,sans-Serif" font-size="10.00">Physics/DynamicalDecayFunctions</text>
<text text-anchor="middle" x="661" y="-268" font-family="Helvetica,sans-Serif" font-size="10.00">/AbstractDynamicalFunction.hpp</text>
</a>
</g>
</g>
<!-- Node1&#45;&gt;Node20 -->
<g id="edge44" class="edge"><title>Node1&#45;&gt;Node20</title>
<path fill="none" stroke="midnightblue" d="M732.551,-328.466C717.907,-317.933 701.889,-306.412 688.729,-296.945"/>
<polygon fill="midnightblue" stroke="midnightblue" points="690.698,-294.051 680.537,-291.053 686.611,-299.733 690.698,-294.051"/>
</g>
<!-- Node22 -->
<g id="node22" class="node"><title>Node22</title>
<g id="a_node22"><a xlink:href="../../dd/db0/ParticleStateDefinitions_8hpp.html" target="_top" xlink:title="Physics/HelicityAmplitude\l/ParticleStateDefinitions.hpp">
<polygon fill="white" stroke="black" points="955.5,-261 955.5,-291 1096.5,-291 1096.5,-261 955.5,-261"/>
<text text-anchor="start" x="963.5" y="-279" font-family="Helvetica,sans-Serif" font-size="10.00">Physics/HelicityAmplitude</text>
<text text-anchor="middle" x="1026" y="-268" font-family="Helvetica,sans-Serif" font-size="10.00">/ParticleStateDefinitions.hpp</text>
</a>
</g>
</g>
<!-- Node1&#45;&gt;Node22 -->
<g id="edge48" class="edge"><title>Node1&#45;&gt;Node22</title>
<path fill="none" stroke="midnightblue" d="M855.8,-332.603C894.278,-320.033 939.205,-305.355 973.236,-294.238"/>
<polygon fill="midnightblue" stroke="midnightblue" points="974.56,-297.487 982.979,-291.055 972.386,-290.833 974.56,-297.487"/>
</g>
<!-- Node3&#45;&gt;Node2 -->
<g id="edge5" class="edge"><title>Node3&#45;&gt;Node2</title>
<path fill="none" stroke="midnightblue" d="M969.781,-198.43C970.798,-181.787 970.533,-144.897 951,-124 889.719,-58.4385 845.17,-84.7276 757,-68 589.459,-36.214 544.465,-51.0311 375,-32 346.891,-28.8433 315.001,-24.634 291.944,-21.478"/>
<polygon fill="midnightblue" stroke="midnightblue" points="292.402,-18.0081 282.018,-20.1096 291.446,-24.9425 292.402,-18.0081"/>
</g>
<!-- Node4 -->
<g id="node4" class="node"><title>Node4</title>
<polygon fill="white" stroke="#bfbfbf" points="793.5,-6.5 793.5,-25.5 834.5,-25.5 834.5,-6.5 793.5,-6.5"/>
<text text-anchor="middle" x="814" y="-13.5" font-family="Helvetica,sans-Serif" font-size="10.00">string</text>
</g>
<!-- Node3&#45;&gt;Node4 -->
<g id="edge3" class="edge"><title>Node3&#45;&gt;Node4</title>
<path fill="none" stroke="midnightblue" d="M974.75,-198.469C989.762,-175.04 1026.9,-108.743 996,-68 977.751,-43.9346 891.645,-28.1088 844.703,-21.116"/>
<polygon fill="midnightblue" stroke="midnightblue" points="845.168,-17.647 834.771,-19.6812 844.167,-24.5751 845.168,-17.647"/>
</g>
<!-- Node5 -->
<g id="node5" class="node"><title>Node5</title>
<polygon fill="white" stroke="#bfbfbf" points="880.5,-130.5 880.5,-149.5 915.5,-149.5 915.5,-130.5 880.5,-130.5"/>
<text text-anchor="middle" x="898" y="-137.5" font-family="Helvetica,sans-Serif" font-size="10.00">map</text>
</g>
<!-- Node3&#45;&gt;Node5 -->
<g id="edge4" class="edge"><title>Node3&#45;&gt;Node5</title>
<path fill="none" stroke="midnightblue" d="M959.718,-198.372C948.406,-187.856 929.07,-169.882 915.05,-156.85"/>
<polygon fill="midnightblue" stroke="midnightblue" points="917.218,-154.086 907.511,-149.841 912.452,-159.213 917.218,-154.086"/>
</g>
<!-- Node6 -->
<g id="node6" class="node"><title>Node6</title>
<polygon fill="white" stroke="#bfbfbf" points="694,-68.5 694,-87.5 748,-87.5 748,-68.5 694,-68.5"/>
<text text-anchor="middle" x="721" y="-75.5" font-family="Helvetica,sans-Serif" font-size="10.00">iostream</text>
</g>
<!-- Node3&#45;&gt;Node6 -->
<g id="edge6" class="edge"><title>Node3&#45;&gt;Node6</title>
<path fill="none" stroke="midnightblue" d="M966.9,-198.386C962.272,-181.329 949.521,-143.243 924,-124 875.271,-87.2578 802.371,-79.4188 758.476,-78.3321"/>
<polygon fill="midnightblue" stroke="midnightblue" points="758.287,-74.8292 748.239,-78.1886 758.189,-81.8285 758.287,-74.8292"/>
</g>
<!-- Node3&#45;&gt;Node7 -->
<g id="edge7" class="edge"><title>Node3&#45;&gt;Node7</title>
<path fill="none" stroke="midnightblue" d="M981.521,-198.229C995.026,-188.533 1016.89,-172.143 1034,-156 1054.58,-136.585 1075.76,-111.667 1088.9,-95.5197"/>
<polygon fill="midnightblue" stroke="midnightblue" points="1091.78,-97.5278 1095.32,-87.5419 1086.32,-93.1405 1091.78,-97.5278"/>
</g>
<!-- Node7&#45;&gt;Node4 -->
<g id="edge9" class="edge"><title>Node7&#45;&gt;Node4</title>
<path fill="none" stroke="midnightblue" d="M1061.04,-68.4672C1002.64,-56.2994 896.74,-34.2375 844.634,-23.3822"/>
<polygon fill="midnightblue" stroke="midnightblue" points="845.168,-19.9183 834.664,-21.3051 843.74,-26.7711 845.168,-19.9183"/>
</g>
<!-- Node8 -->
<g id="node8" class="node"><title>Node8</title>
<polygon fill="white" stroke="#bfbfbf" points="1072.5,-6.5 1072.5,-25.5 1131.5,-25.5 1131.5,-6.5 1072.5,-6.5"/>
<text text-anchor="middle" x="1102" y="-13.5" font-family="Helvetica,sans-Serif" font-size="10.00">exception</text>
</g>
<!-- Node7&#45;&gt;Node8 -->
<g id="edge8" class="edge"><title>Node7&#45;&gt;Node8</title>
<path fill="none" stroke="midnightblue" d="M1102,-68.4035C1102,-59.9381 1102,-46.7283 1102,-35.8199"/>
<polygon fill="midnightblue" stroke="midnightblue" points="1105.5,-35.5806 1102,-25.5806 1098.5,-35.5806 1105.5,-35.5806"/>
</g>
<!-- Node9&#45;&gt;Node2 -->
<g id="edge11" class="edge"><title>Node9&#45;&gt;Node2</title>
<path fill="none" stroke="midnightblue" d="M222.573,-268.189C172.539,-260.382 101.688,-245.787 85,-224 57.9751,-188.716 63.2641,-162.767 85,-124 115.57,-69.4781 186.49,-39.4195 228.056,-25.9094"/>
<polygon fill="midnightblue" stroke="midnightblue" points="229.197,-29.2202 237.701,-22.9007 227.112,-22.5378 229.197,-29.2202"/>
</g>
<!-- Node9&#45;&gt;Node7 -->
<g id="edge14" class="edge"><title>Node9&#45;&gt;Node7</title>
<path fill="none" stroke="midnightblue" d="M325.279,-272.116C491.416,-262.694 1005.05,-232.912 1020,-224 1067.11,-195.916 1089.42,-129.87 1097.82,-97.5167"/>
<polygon fill="midnightblue" stroke="midnightblue" points="1101.27,-98.1391 1100.23,-87.5955 1094.47,-96.4869 1101.27,-98.1391"/>
</g>
<!-- Node10 -->
<g id="node10" class="node"><title>Node10</title>
<polygon fill="white" stroke="#bfbfbf" points="268.5,-68.5 268.5,-87.5 321.5,-87.5 321.5,-68.5 268.5,-68.5"/>
<text text-anchor="middle" x="295" y="-75.5" font-family="Helvetica,sans-Serif" font-size="10.00">complex</text>
</g>
<!-- Node9&#45;&gt;Node10 -->
<g id="edge12" class="edge"><title>Node9&#45;&gt;Node10</title>
<path fill="none" stroke="midnightblue" d="M270.714,-266.187C262.383,-242.461 242.313,-175.549 260,-124 263.719,-113.161 271.233,-102.922 278.349,-94.9566"/>
<polygon fill="midnightblue" stroke="midnightblue" points="281.054,-97.1922 285.444,-87.5497 275.999,-92.3498 281.054,-97.1922"/>
</g>
<!-- Node11 -->
<g id="node11" class="node"><title>Node11</title>
<polygon fill="white" stroke="#bfbfbf" points="94.5,-130.5 94.5,-149.5 141.5,-149.5 141.5,-130.5 94.5,-130.5"/>
<text text-anchor="middle" x="118" y="-137.5" font-family="Helvetica,sans-Serif" font-size="10.00">math.h</text>
</g>
<!-- Node9&#45;&gt;Node11 -->
<g id="edge13" class="edge"><title>Node9&#45;&gt;Node11</title>
<path fill="none" stroke="midnightblue" d="M222.598,-267.336C175.369,-259.119 110.429,-244.439 95,-224 80.2705,-204.488 93.7374,-176.043 105.392,-158.036"/>
<polygon fill="midnightblue" stroke="midnightblue" points="108.364,-159.891 111.163,-149.672 102.603,-155.915 108.364,-159.891"/>
</g>
<!-- Node12 -->
<g id="node12" class="node"><title>Node12</title>
<g id="a_node12"><a xlink:href="../../df/d9f/ParameterList_8hpp.html" target="_top" xlink:title="This class provides a list of fit parameters which can have different types. ">
<polygon fill="white" stroke="red" points="564,-198.5 564,-217.5 684,-217.5 684,-198.5 564,-198.5"/>
<text text-anchor="middle" x="624" y="-205.5" font-family="Helvetica,sans-Serif" font-size="10.00">Core/ParameterList.hpp</text>
</a>
</g>
</g>
<!-- Node9&#45;&gt;Node12 -->
<g id="edge15" class="edge"><title>Node9&#45;&gt;Node12</title>
<path fill="none" stroke="midnightblue" d="M319.398,-266.439C383.261,-254.396 499.514,-232.475 568.453,-219.475"/>
<polygon fill="midnightblue" stroke="midnightblue" points="569.505,-222.838 578.683,-217.546 568.207,-215.959 569.505,-222.838"/>
</g>
<!-- Node17 -->
<g id="node17" class="node"><title>Node17</title>
<g id="a_node17"><a xlink:href="../../d8/def/AbsParameter_8hpp.html" target="_top" xlink:title="This class defines the internal container of a parameter. ">
<polygon fill="white" stroke="red" points="416,-68.5 416,-87.5 538,-87.5 538,-68.5 416,-68.5"/>
<text text-anchor="middle" x="477" y="-75.5" font-family="Helvetica,sans-Serif" font-size="10.00">Core/AbsParameter.hpp</text>
</a>
</g>
</g>
<!-- Node9&#45;&gt;Node17 -->
<g id="edge38" class="edge"><title>Node9&#45;&gt;Node17</title>
<path fill="none" stroke="midnightblue" d="M282.906,-266.248C298.351,-251.082 331.125,-218.955 359,-192 394.957,-157.229 437.368,-116.743 460.28,-94.9138"/>
<polygon fill="midnightblue" stroke="midnightblue" points="462.963,-97.1918 467.791,-87.7608 458.135,-92.1228 462.963,-97.1918"/>
</g>
<!-- Node18 -->
<g id="node18" class="node"><title>Node18</title>
<g id="a_node18"><a xlink:href="../../db/dce/Parameter_8hpp.html" target="_top" xlink:title="This class implements some internal container of parameters. ">
<polygon fill="white" stroke="red" points="454,-130.5 454,-149.5 558,-149.5 558,-130.5 454,-130.5"/>
<text text-anchor="middle" x="506" y="-137.5" font-family="Helvetica,sans-Serif" font-size="10.00">Core/Parameter.hpp</text>
</a>
</g>
</g>
<!-- Node9&#45;&gt;Node18 -->
<g id="edge37" class="edge"><title>Node9&#45;&gt;Node18</title>
<path fill="none" stroke="midnightblue" d="M288.866,-266.414C328.151,-243.723 434.964,-182.029 482.565,-154.536"/>
<polygon fill="midnightblue" stroke="midnightblue" points="484.349,-157.547 491.258,-149.515 480.848,-151.485 484.349,-157.547"/>
</g>
<!-- Node19 -->
<g id="node19" class="node"><title>Node19</title>
<g id="a_node19"><a xlink:href="../../d8/dd4/DataPoint_8hpp.html" target="_top" xlink:title="dataPoint stores kinematic information of a dalitz plot ">
<polygon fill="white" stroke="red" points="104.5,-198.5 104.5,-217.5 207.5,-217.5 207.5,-198.5 104.5,-198.5"/>
<text text-anchor="middle" x="156" y="-205.5" font-family="Helvetica,sans-Serif" font-size="10.00">Core/DataPoint.hpp</text>
</a>
</g>
</g>
<!-- Node9&#45;&gt;Node19 -->
<g id="edge39" class="edge"><title>Node9&#45;&gt;Node19</title>
<path fill="none" stroke="midnightblue" d="M258.574,-266.372C238.697,-255.254 203.915,-235.8 180.427,-222.662"/>
<polygon fill="midnightblue" stroke="midnightblue" points="181.866,-219.457 171.43,-217.63 178.449,-225.567 181.866,-219.457"/>
</g>
<!-- Node12&#45;&gt;Node2 -->
<g id="edge20" class="edge"><title>Node12&#45;&gt;Node2</title>
<path fill="none" stroke="midnightblue" d="M563.784,-203.006C517.754,-197.663 454.221,-185.176 406,-156 361.785,-129.248 368.021,-103 330,-68 315.117,-54.3 296.545,-40.9147 282.271,-31.2968"/>
<polygon fill="midnightblue" stroke="midnightblue" points="283.865,-28.1546 273.594,-25.555 280.002,-33.9923 283.865,-28.1546"/>
</g>
<!-- Node12&#45;&gt;Node4 -->
<g id="edge17" class="edge"><title>Node12&#45;&gt;Node4</title>
<path fill="none" stroke="midnightblue" d="M656.57,-198.476C692.641,-188.461 747.732,-171.268 763,-156 796.376,-122.624 808.111,-65.613 812.079,-36.0449"/>
<polygon fill="midnightblue" stroke="midnightblue" points="815.587,-36.181 813.281,-25.8402 808.635,-35.3622 815.587,-36.181"/>
</g>
<!-- Node12&#45;&gt;Node5 -->
<g id="edge21" class="edge"><title>Node12&#45;&gt;Node5</title>
<path fill="none" stroke="midnightblue" d="M663.032,-198.451C672.814,-196.327 683.288,-194.066 693,-192 769.817,-175.658 791.494,-180.835 866,-156 868.128,-155.291 870.301,-154.478 872.463,-153.606"/>
<polygon fill="midnightblue" stroke="midnightblue" points="873.953,-156.774 881.692,-149.539 871.13,-150.368 873.953,-156.774"/>
</g>
<!-- Node12&#45;&gt;Node6 -->
<g id="edge16" class="edge"><title>Node12&#45;&gt;Node6</title>
<path fill="none" stroke="midnightblue" d="M656.88,-198.351C678.212,-190.878 704.47,-177.758 718,-156 728.791,-138.646 727.773,-114.588 725.196,-98.004"/>
<polygon fill="midnightblue" stroke="midnightblue" points="728.581,-97.0696 723.289,-87.8914 721.702,-98.3669 728.581,-97.0696"/>
</g>
<!-- Node12&#45;&gt;Node7 -->
<g id="edge36" class="edge"><title>Node12&#45;&gt;Node7</title>
<path fill="none" stroke="midnightblue" d="M661.519,-198.462C716.213,-185.888 812.988,-163.111 828,-156 849.529,-145.802 849.21,-133.629 871,-124 924.27,-100.461 989.835,-89.1836 1037.49,-83.8113"/>
<polygon fill="midnightblue" stroke="midnightblue" points="1038.11,-87.2653 1047.68,-82.7216 1037.36,-80.305 1038.11,-87.2653"/>
</g>
<!-- Node13 -->
<g id="node13" class="node"><title>Node13</title>
<polygon fill="white" stroke="#bfbfbf" points="589,-6.5 589,-25.5 641,-25.5 641,-6.5 589,-6.5"/>
<text text-anchor="middle" x="615" y="-13.5" font-family="Helvetica,sans-Serif" font-size="10.00">memory</text>
</g>
<!-- Node12&#45;&gt;Node13 -->
<g id="edge18" class="edge"><title>Node12&#45;&gt;Node13</title>
<path fill="none" stroke="midnightblue" d="M662.538,-198.439C687.087,-191.089 717.777,-178.075 737,-156 763.34,-125.752 780.075,-100.806 757,-68 733.271,-34.2639 685.011,-22.7341 651.374,-18.8565"/>
<polygon fill="midnightblue" stroke="midnightblue" points="651.309,-15.3336 641.017,-17.8479 650.63,-22.3007 651.309,-15.3336"/>
</g>
<!-- Node14 -->
<g id="node14" class="node"><title>Node14</title>
<polygon fill="white" stroke="#bfbfbf" points="594,-68.5 594,-87.5 646,-87.5 646,-68.5 594,-68.5"/>
<text text-anchor="middle" x="620" y="-75.5" font-family="Helvetica,sans-Serif" font-size="10.00">sstream</text>
</g>
<!-- Node12&#45;&gt;Node14 -->
<g id="edge19" class="edge"><title>Node12&#45;&gt;Node14</title>
<path fill="none" stroke="midnightblue" d="M619.638,-198.245C614.945,-188.298 607.782,-171.436 605,-156 602.477,-142.003 602.722,-138.039 605,-124 606.468,-114.957 609.492,-105.275 612.444,-97.2176"/>
<polygon fill="midnightblue" stroke="midnightblue" points="615.763,-98.3393 616.144,-87.7514 609.244,-95.7907 615.763,-98.3393"/>
</g>
<!-- Node15 -->
<g id="node15" class="node"><title>Node15</title>
<polygon fill="white" stroke="#bfbfbf" points="614.5,-125 614.5,-155 709.5,-155 709.5,-125 614.5,-125"/>
<text text-anchor="start" x="622.5" y="-143" font-family="Helvetica,sans-Serif" font-size="10.00">boost/serialization</text>
<text text-anchor="middle" x="662" y="-132" font-family="Helvetica,sans-Serif" font-size="10.00">/vector.hpp</text>
</g>
<!-- Node12&#45;&gt;Node15 -->
<g id="edge22" class="edge"><title>Node12&#45;&gt;Node15</title>
<path fill="none" stroke="midnightblue" d="M628.968,-198.372C633.952,-189.714 641.848,-176.001 648.67,-164.152"/>
<polygon fill="midnightblue" stroke="midnightblue" points="651.878,-165.594 653.835,-155.181 645.812,-162.101 651.878,-165.594"/>
</g>
<!-- Node16 -->
<g id="node16" class="node"><title>Node16</title>
<polygon fill="white" stroke="#bfbfbf" points="384.5,-1 384.5,-31 479.5,-31 479.5,-1 384.5,-1"/>
<text text-anchor="start" x="392.5" y="-19" font-family="Helvetica,sans-Serif" font-size="10.00">boost/serialization</text>
<text text-anchor="middle" x="432" y="-8" font-family="Helvetica,sans-Serif" font-size="10.00">/shared_ptr.hpp</text>
</g>
<!-- Node12&#45;&gt;Node16 -->
<g id="edge23" class="edge"><title>Node12&#45;&gt;Node16</title>
<path fill="none" stroke="midnightblue" d="M563.868,-204.067C523.457,-199.159 471.328,-186.754 436,-156 404.94,-128.961 397.697,-108.115 407,-68 409.234,-58.3687 413.553,-48.4584 417.981,-39.9652"/>
<polygon fill="midnightblue" stroke="midnightblue" points="421.126,-41.5102 422.921,-31.0685 415.007,-38.1117 421.126,-41.5102"/>
</g>
<!-- Node12&#45;&gt;Node17 -->
<g id="edge24" class="edge"><title>Node12&#45;&gt;Node17</title>
<path fill="none" stroke="midnightblue" d="M567.62,-198.457C520.922,-190.093 459.893,-175.729 445,-156 431.037,-137.503 447.052,-112.027 461.012,-95.5353"/>
<polygon fill="midnightblue" stroke="midnightblue" points="463.871,-97.5906 467.955,-87.8146 458.666,-92.9099 463.871,-97.5906"/>
</g>
<!-- Node12&#45;&gt;Node18 -->
<g id="edge29" class="edge"><title>Node12&#45;&gt;Node18</title>
<path fill="none" stroke="midnightblue" d="M608.574,-198.372C588.697,-187.254 553.915,-167.8 530.427,-154.662"/>
<polygon fill="midnightblue" stroke="midnightblue" points="531.866,-151.457 521.43,-149.63 528.449,-157.567 531.866,-151.457"/>
</g>
<!-- Node17&#45;&gt;Node2 -->
<g id="edge26" class="edge"><title>Node17&#45;&gt;Node2</title>
<path fill="none" stroke="midnightblue" d="M445.909,-68.4035C404.963,-57.082 333.327,-37.2749 291.955,-25.8355"/>
<polygon fill="midnightblue" stroke="midnightblue" points="292.697,-22.4093 282.126,-23.1177 290.831,-29.1562 292.697,-22.4093"/>
</g>
<!-- Node17&#45;&gt;Node4 -->
<g id="edge25" class="edge"><title>Node17&#45;&gt;Node4</title>
<path fill="none" stroke="midnightblue" d="M524.926,-68.4672C595.236,-55.9491 724.364,-32.9589 783.26,-22.4729"/>
<polygon fill="midnightblue" stroke="midnightblue" points="784.179,-25.8646 793.41,-20.6658 782.951,-18.973 784.179,-25.8646"/>
</g>
<!-- Node17&#45;&gt;Node13 -->
<g id="edge27" class="edge"><title>Node17&#45;&gt;Node13</title>
<path fill="none" stroke="midnightblue" d="M496.772,-68.4035C520.136,-58.245 559.214,-41.2547 586.003,-29.6074"/>
<polygon fill="midnightblue" stroke="midnightblue" points="587.489,-32.7777 595.265,-25.5806 584.698,-26.3582 587.489,-32.7777"/>
</g>
<!-- Node17&#45;&gt;Node16 -->
<g id="edge28" class="edge"><title>Node17&#45;&gt;Node16</title>
<path fill="none" stroke="midnightblue" d="M470.553,-68.4035C464.857,-60.8089 456.297,-49.3959 448.689,-39.2518"/>
<polygon fill="midnightblue" stroke="midnightblue" points="451.406,-37.0408 442.606,-31.1408 445.806,-41.2408 451.406,-37.0408"/>
</g>
<!-- Node18&#45;&gt;Node4 -->
<g id="edge31" class="edge"><title>Node18&#45;&gt;Node4</title>
<path fill="none" stroke="midnightblue" d="M512.834,-130.475C525.423,-115.382 553.852,-84.0431 585,-68 650.369,-34.3309 737.422,-22.7861 783.069,-18.9053"/>
<polygon fill="midnightblue" stroke="midnightblue" points="783.52,-22.3809 793.217,-18.1123 782.975,-15.4022 783.52,-22.3809"/>
</g>
<!-- Node18&#45;&gt;Node6 -->
<g id="edge30" class="edge"><title>Node18&#45;&gt;Node6</title>
<path fill="none" stroke="midnightblue" d="M536.804,-130.403C575.742,-119.537 642.693,-100.853 684.256,-89.2541"/>
<polygon fill="midnightblue" stroke="midnightblue" points="685.298,-92.5971 693.989,-86.5378 683.417,-85.8547 685.298,-92.5971"/>
</g>
<!-- Node18&#45;&gt;Node7 -->
<g id="edge35" class="edge"><title>Node18&#45;&gt;Node7</title>
<path fill="none" stroke="midnightblue" d="M558.07,-130.51C573.182,-128.209 589.727,-125.847 605,-124 759.979,-105.26 943.009,-90.6073 1037.83,-83.5719"/>
<polygon fill="midnightblue" stroke="midnightblue" points="1038.12,-87.0599 1047.83,-82.8333 1037.6,-80.0789 1038.12,-87.0599"/>
</g>
<!-- Node18&#45;&gt;Node10 -->
<g id="edge33" class="edge"><title>Node18&#45;&gt;Node10</title>
<path fill="none" stroke="midnightblue" d="M475.769,-130.403C437.636,-119.56 372.128,-100.932 331.319,-89.3277"/>
<polygon fill="midnightblue" stroke="midnightblue" points="332.084,-85.9065 321.508,-86.5378 330.169,-92.6396 332.084,-85.9065"/>
</g>
<!-- Node18&#45;&gt;Node14 -->
<g id="edge32" class="edge"><title>Node18&#45;&gt;Node14</title>
<path fill="none" stroke="midnightblue" d="M522.333,-130.403C541.211,-120.468 572.507,-103.997 594.576,-92.3812"/>
<polygon fill="midnightblue" stroke="midnightblue" points="596.478,-95.3353 603.697,-87.5806 593.218,-89.1409 596.478,-95.3353"/>
</g>
<!-- Node18&#45;&gt;Node17 -->
<g id="edge34" class="edge"><title>Node18&#45;&gt;Node17</title>
<path fill="none" stroke="midnightblue" d="M501.845,-130.403C497.624,-121.671 490.963,-107.889 485.6,-96.7936"/>
<polygon fill="midnightblue" stroke="midnightblue" points="488.65,-95.061 481.147,-87.5806 482.348,-98.1072 488.65,-95.061"/>
</g>
<!-- Node19&#45;&gt;Node2 -->
<g id="edge41" class="edge"><title>Node19&#45;&gt;Node2</title>
<path fill="none" stroke="midnightblue" d="M160.739,-198.342C176.711,-169.163 228.778,-74.0398 250.426,-34.4917"/>
<polygon fill="midnightblue" stroke="midnightblue" points="253.502,-36.1609 255.233,-25.7085 247.362,-32.7998 253.502,-36.1609"/>
</g>
<!-- Node19&#45;&gt;Node5 -->
<g id="edge42" class="edge"><title>Node19&#45;&gt;Node5</title>
<path fill="none" stroke="midnightblue" d="M207.587,-202.411C352.622,-189.511 760.555,-153.226 870.442,-143.451"/>
<polygon fill="midnightblue" stroke="midnightblue" points="870.757,-146.937 880.407,-142.565 870.136,-139.965 870.757,-146.937"/>
</g>
<!-- Node19&#45;&gt;Node11 -->
<g id="edge40" class="edge"><title>Node19&#45;&gt;Node11</title>
<path fill="none" stroke="midnightblue" d="M151.032,-198.372C145.261,-188.348 135.587,-171.546 128.195,-158.708"/>
<polygon fill="midnightblue" stroke="midnightblue" points="131.113,-156.761 123.09,-149.841 125.047,-160.254 131.113,-156.761"/>
</g>
<!-- Node20&#45;&gt;Node10 -->
<g id="edge45" class="edge"><title>Node20&#45;&gt;Node10</title>
<path fill="none" stroke="midnightblue" d="M608.217,-260.996C546.865,-243.103 444.296,-208.077 368,-156 343.383,-139.198 320.723,-112.877 307.38,-95.7806"/>
<polygon fill="midnightblue" stroke="midnightblue" points="310.132,-93.6177 301.29,-87.7806 304.562,-97.8575 310.132,-93.6177"/>
</g>
<!-- Node20&#45;&gt;Node12 -->
<g id="edge47" class="edge"><title>Node20&#45;&gt;Node12</title>
<path fill="none" stroke="midnightblue" d="M652.972,-260.679C647.374,-250.694 639.869,-237.307 633.9,-226.66"/>
<polygon fill="midnightblue" stroke="midnightblue" points="636.892,-224.84 628.949,-217.828 630.786,-228.263 636.892,-224.84"/>
</g>
<!-- Node21 -->
<g id="node21" class="node"><title>Node21</title>
<polygon fill="white" stroke="#bfbfbf" points="702.5,-193 702.5,-223 803.5,-223 803.5,-193 702.5,-193"/>
<text text-anchor="start" x="710.5" y="-211" font-family="Helvetica,sans-Serif" font-size="10.00">boost/property_tree</text>
<text text-anchor="middle" x="753" y="-200" font-family="Helvetica,sans-Serif" font-size="10.00">/ptree_fwd.hpp</text>
</g>
<!-- Node20&#45;&gt;Node21 -->
<g id="edge46" class="edge"><title>Node20&#45;&gt;Node21</title>
<path fill="none" stroke="midnightblue" d="M680.963,-260.679C693.829,-251.449 710.749,-239.311 724.957,-229.118"/>
<polygon fill="midnightblue" stroke="midnightblue" points="727.307,-231.739 733.392,-223.066 723.227,-226.052 727.307,-231.739"/>
</g>
<!-- Node22&#45;&gt;Node3 -->
<g id="edge53" class="edge"><title>Node22&#45;&gt;Node3</title>
<path fill="none" stroke="midnightblue" d="M1013.63,-260.679C1004.74,-250.388 992.736,-236.484 983.414,-225.69"/>
<polygon fill="midnightblue" stroke="midnightblue" points="985.81,-223.109 976.624,-217.828 980.512,-227.684 985.81,-223.109"/>
</g>
<!-- Node22&#45;&gt;Node5 -->
<g id="edge50" class="edge"><title>Node22&#45;&gt;Node5</title>
<path fill="none" stroke="midnightblue" d="M972.478,-260.959C952.387,-253.159 931.041,-241.395 917,-224 902.237,-205.711 898.483,-178.122 897.758,-159.841"/>
<polygon fill="midnightblue" stroke="midnightblue" points="901.257,-159.781 897.626,-149.828 894.258,-159.873 901.257,-159.781"/>
</g>
<!-- Node23 -->
<g id="node23" class="node"><title>Node23</title>
<polygon fill="white" stroke="#bfbfbf" points="1068,-198.5 1068,-217.5 1098,-217.5 1098,-198.5 1068,-198.5"/>
<text text-anchor="middle" x="1083" y="-205.5" font-family="Helvetica,sans-Serif" font-size="10.00">set</text>
</g>
<!-- Node22&#45;&gt;Node23 -->
<g id="edge49" class="edge"><title>Node22&#45;&gt;Node23</title>
<path fill="none" stroke="midnightblue" d="M1038.37,-260.679C1047.26,-250.388 1059.26,-236.484 1068.59,-225.69"/>
<polygon fill="midnightblue" stroke="midnightblue" points="1071.49,-227.684 1075.38,-217.828 1066.19,-223.109 1071.49,-227.684"/>
</g>
<!-- Node24 -->
<g id="node24" class="node"><title>Node24</title>
<polygon fill="white" stroke="#bfbfbf" points="1116.5,-193 1116.5,-223 1217.5,-223 1217.5,-193 1116.5,-193"/>
<text text-anchor="start" x="1124.5" y="-211" font-family="Helvetica,sans-Serif" font-size="10.00">boost/property_tree</text>
<text text-anchor="middle" x="1167" y="-200" font-family="Helvetica,sans-Serif" font-size="10.00">/ptree.hpp</text>
</g>
<!-- Node22&#45;&gt;Node24 -->
<g id="edge51" class="edge"><title>Node22&#45;&gt;Node24</title>
<path fill="none" stroke="midnightblue" d="M1056.25,-260.841C1077.06,-251.098 1104.92,-238.058 1127.49,-227.494"/>
<polygon fill="midnightblue" stroke="midnightblue" points="1129.23,-230.545 1136.8,-223.135 1126.26,-224.205 1129.23,-230.545"/>
</g>
<!-- Node25 -->
<g id="node25" class="node"><title>Node25</title>
<polygon fill="white" stroke="#bfbfbf" points="1235.5,-198.5 1235.5,-217.5 1336.5,-217.5 1336.5,-198.5 1235.5,-198.5"/>
<text text-anchor="middle" x="1286" y="-205.5" font-family="Helvetica,sans-Serif" font-size="10.00">boost/log/trivial.hpp</text>
</g>
<!-- Node22&#45;&gt;Node25 -->
<g id="edge52" class="edge"><title>Node22&#45;&gt;Node25</title>
<path fill="none" stroke="midnightblue" d="M1081.46,-260.922C1129.61,-248.7 1198.36,-231.246 1242.59,-220.019"/>
<polygon fill="midnightblue" stroke="midnightblue" points="1243.63,-223.367 1252.46,-217.514 1241.91,-216.582 1243.63,-223.367"/>
</g>
</g>
</svg>
