<?xml version="1.0" encoding="UTF-8" standalone="no"?>
<!DOCTYPE svg PUBLIC "-//W3C//DTD SVG 1.1//EN"
 "http://www.w3.org/Graphics/SVG/1.1/DTD/svg11.dtd">
<!-- Generated by graphviz version 2.26.3 (20100126.1600)
 -->
<!-- Title: G Pages: 1 -->
<svg width="932pt" height="262pt"
 viewBox="0.00 0.00 931.80 262.00" xmlns="http://www.w3.org/2000/svg" xmlns:xlink="http://www.w3.org/1999/xlink">
<g id="graph1" class="graph" transform="scale(1 1) rotate(0) translate(4 258)">
<title>G</title>
<polygon fill="white" stroke="white" points="-4,5 -4,-258 928.798,-258 928.798,5 -4,5"/>
<!-- Node1 -->
<g id="node1" class="node"><title>Node1</title>
<polygon fill="#bfbfbf" stroke="black" points="82.798,-232.5 82.798,-253.5 284.798,-253.5 284.798,-232.5 82.798,-232.5"/>
<text text-anchor="middle" x="183.798" y="-240.5" font-family="Helvetica,sans-Serif" font-size="10.00">Physics/AmplitudeSum/AmpGausRes.hpp</text>
</g>
<!-- Node2 -->
<g id="node3" class="node"><title>Node2</title>
<polygon fill="white" stroke="#bfbfbf" points="192.798,-0.5 192.798,-21.5 236.798,-21.5 236.798,-0.5 192.798,-0.5"/>
<text text-anchor="middle" x="214.798" y="-8.5" font-family="Helvetica,sans-Serif" font-size="10.00">vector</text>
</g>
<!-- Node1&#45;&gt;Node2 -->
<g id="edge2" class="edge"><title>Node1&#45;&gt;Node2</title>
<path fill="none" stroke="midnightblue" d="M159.936,-232.46C100.937,-204.981 -43.093,-128.388 12.798,-58 33.6404,-31.7514 131.002,-18.8236 182.563,-13.724"/>
<polygon fill="midnightblue" stroke="midnightblue" points="182.903,-17.2077 192.528,-12.7797 182.242,-10.2389 182.903,-17.2077"/>
</g>
<!-- Node3 -->
<g id="node5" class="node"><title>Node3</title>
<a xlink:href="../../d3/d76/AmpAbsDynamicalFunction_8hpp.xhtml" target="_top" xlink:title="Physics/AmplitudeSum/AmpAbsDynamicalFunction.hpp">
<polygon fill="white" stroke="black" points="211.798,-174.5 211.798,-195.5 473.798,-195.5 473.798,-174.5 211.798,-174.5"/>
<text text-anchor="middle" x="342.798" y="-182.5" font-family="Helvetica,sans-Serif" font-size="10.00">Physics/AmplitudeSum/AmpAbsDynamicalFunction.hpp</text>
</a>
</g>
<!-- Node1&#45;&gt;Node3 -->
<g id="edge4" class="edge"><title>Node1&#45;&gt;Node3</title>
<path fill="none" stroke="midnightblue" d="M212.592,-232.497C238.289,-223.123 276.116,-209.324 304.385,-199.012"/>
<polygon fill="midnightblue" stroke="midnightblue" points="305.755,-202.238 313.95,-195.523 303.356,-195.662 305.755,-202.238"/>
</g>
<!-- Node20 -->
<g id="node48" class="node"><title>Node20</title>
<a xlink:href="../../d7/dd9/DalitzKinematics_8hpp.xhtml" target="_top" xlink:title="Physics/DPKinematics/DalitzKinematics.hpp">
<polygon fill="white" stroke="black" points="223.798,-116.5 223.798,-137.5 437.798,-137.5 437.798,-116.5 223.798,-116.5"/>
<text text-anchor="middle" x="330.798" y="-124.5" font-family="Helvetica,sans-Serif" font-size="10.00">Physics/DPKinematics/DalitzKinematics.hpp</text>
</a>
</g>
<!-- Node1&#45;&gt;Node20 -->
<g id="edge56" class="edge"><title>Node1&#45;&gt;Node20</title>
<path fill="none" stroke="midnightblue" d="M183.844,-232.219C184.487,-217.277 187.823,-190.276 202.798,-174 217.396,-158.134 237.808,-147.608 258.05,-140.631"/>
<polygon fill="midnightblue" stroke="midnightblue" points="259.166,-143.949 267.63,-137.576 257.039,-137.28 259.166,-143.949"/>
</g>
<!-- Node3&#45;&gt;Node2 -->
<g id="edge6" class="edge"><title>Node3&#45;&gt;Node2</title>
<path fill="none" stroke="midnightblue" d="M298.36,-174.453C265.484,-165.646 224.758,-152.267 214.798,-138 192.724,-106.379 200.812,-58.6849 208.152,-31.6403"/>
<polygon fill="midnightblue" stroke="midnightblue" points="211.602,-32.3149 211.063,-21.7338 204.886,-30.3418 211.602,-32.3149"/>
</g>
<!-- Node4 -->
<g id="node8" class="node"><title>Node4</title>
<polygon fill="white" stroke="#bfbfbf" points="497.298,-58.5 497.298,-79.5 550.298,-79.5 550.298,-58.5 497.298,-58.5"/>
<text text-anchor="middle" x="523.798" y="-66.5" font-family="Helvetica,sans-Serif" font-size="10.00">complex</text>
</g>
<!-- Node3&#45;&gt;Node4 -->
<g id="edge8" class="edge"><title>Node3&#45;&gt;Node4</title>
<path fill="none" stroke="midnightblue" d="M372.278,-174.479C393.806,-166.142 423.226,-153.361 446.798,-138 469.337,-123.312 491.877,-102.172 506.691,-87.1695"/>
<polygon fill="midnightblue" stroke="midnightblue" points="509.244,-89.5653 513.693,-79.9501 504.219,-84.6917 509.244,-89.5653"/>
</g>
<!-- Node5 -->
<g id="node10" class="node"><title>Node5</title>
<a xlink:href="../../db/dce/Parameter_8hpp.xhtml" target="_top" xlink:title="This class implements some internal container of parameters.">
<polygon fill="white" stroke="black" points="541.798,-116.5 541.798,-137.5 645.798,-137.5 645.798,-116.5 541.798,-116.5"/>
<text text-anchor="middle" x="593.798" y="-124.5" font-family="Helvetica,sans-Serif" font-size="10.00">Core/Parameter.hpp</text>
</a>
</g>
<!-- Node3&#45;&gt;Node5 -->
<g id="edge10" class="edge"><title>Node3&#45;&gt;Node5</title>
<path fill="none" stroke="midnightblue" d="M388.252,-174.497C430.412,-164.755 493.256,-150.233 538.349,-139.813"/>
<polygon fill="midnightblue" stroke="midnightblue" points="539.303,-143.185 548.259,-137.523 537.727,-136.364 539.303,-143.185"/>
</g>
<!-- Node15 -->
<g id="node34" class="node"><title>Node15</title>
<a xlink:href="../../d8/dd4/DataPoint_8hpp.xhtml" target="_top" xlink:title="dataPoint stores kinematic information of a dalitz plot">
<polygon fill="white" stroke="black" points="65.298,-116.5 65.298,-137.5 168.298,-137.5 168.298,-116.5 65.298,-116.5"/>
<text text-anchor="middle" x="116.798" y="-124.5" font-family="Helvetica,sans-Serif" font-size="10.00">Core/DataPoint.hpp</text>
</a>
</g>
<!-- Node3&#45;&gt;Node15 -->
<g id="edge38" class="edge"><title>Node3&#45;&gt;Node15</title>
<path fill="none" stroke="midnightblue" d="M301.871,-174.497C264.15,-164.816 208.038,-150.416 167.494,-140.01"/>
<polygon fill="midnightblue" stroke="midnightblue" points="168.358,-136.619 157.802,-137.523 166.618,-143.399 168.358,-136.619"/>
</g>
<!-- Node5&#45;&gt;Node4 -->
<g id="edge18" class="edge"><title>Node5&#45;&gt;Node4</title>
<path fill="none" stroke="midnightblue" d="M580.959,-116.362C570.795,-107.941 556.397,-96.0105 544.594,-86.2308"/>
<polygon fill="midnightblue" stroke="midnightblue" points="546.489,-83.2558 536.556,-79.5707 542.023,-88.6459 546.489,-83.2558"/>
</g>
<!-- Node6 -->
<g id="node12" class="node"><title>Node6</title>
<polygon fill="white" stroke="#bfbfbf" points="425.798,-58.5 425.798,-79.5 479.798,-79.5 479.798,-58.5 425.798,-58.5"/>
<text text-anchor="middle" x="452.798" y="-66.5" font-family="Helvetica,sans-Serif" font-size="10.00">iostream</text>
</g>
<!-- Node5&#45;&gt;Node6 -->
<g id="edge12" class="edge"><title>Node5&#45;&gt;Node6</title>
<path fill="none" stroke="midnightblue" d="M568.264,-116.497C545.845,-107.275 513.013,-93.7695 488.085,-83.5153"/>
<polygon fill="midnightblue" stroke="midnightblue" points="489.198,-80.1886 478.619,-79.6212 486.535,-86.6623 489.198,-80.1886"/>
</g>
<!-- Node7 -->
<g id="node14" class="node"><title>Node7</title>
<polygon fill="white" stroke="#bfbfbf" points="773.298,-0.5 773.298,-21.5 814.298,-21.5 814.298,-0.5 773.298,-0.5"/>
<text text-anchor="middle" x="793.798" y="-8.5" font-family="Helvetica,sans-Serif" font-size="10.00">string</text>
</g>
<!-- Node5&#45;&gt;Node7 -->
<g id="edge14" class="edge"><title>Node5&#45;&gt;Node7</title>
<path fill="none" stroke="midnightblue" d="M646.072,-118.445C690.863,-110.152 750.898,-96.4363 768.798,-80 782.392,-67.5182 788.606,-47.0721 791.44,-31.6697"/>
<polygon fill="midnightblue" stroke="midnightblue" points="794.938,-31.9409 792.963,-21.5319 788.016,-30.9009 794.938,-31.9409"/>
</g>
<!-- Node8 -->
<g id="node16" class="node"><title>Node8</title>
<polygon fill="white" stroke="#bfbfbf" points="567.798,-58.5 567.798,-79.5 619.798,-79.5 619.798,-58.5 567.798,-58.5"/>
<text text-anchor="middle" x="593.798" y="-66.5" font-family="Helvetica,sans-Serif" font-size="10.00">sstream</text>
</g>
<!-- Node5&#45;&gt;Node8 -->
<g id="edge16" class="edge"><title>Node5&#45;&gt;Node8</title>
<path fill="none" stroke="midnightblue" d="M593.798,-116.362C593.798,-108.922 593.798,-98.7427 593.798,-89.7276"/>
<polygon fill="midnightblue" stroke="midnightblue" points="597.298,-89.5706 593.798,-79.5707 590.298,-89.5707 597.298,-89.5706"/>
</g>
<!-- Node9 -->
<g id="node19" class="node"><title>Node9</title>
<a xlink:href="../../d8/def/AbsParameter_8hpp.xhtml" target="_top" xlink:title="This class defines the internal container of a parameter.">
<polygon fill="white" stroke="black" points="637.798,-58.5 637.798,-79.5 759.798,-79.5 759.798,-58.5 637.798,-58.5"/>
<text text-anchor="middle" x="698.798" y="-66.5" font-family="Helvetica,sans-Serif" font-size="10.00">Core/AbsParameter.hpp</text>
</a>
</g>
<!-- Node5&#45;&gt;Node9 -->
<g id="edge20" class="edge"><title>Node5&#45;&gt;Node9</title>
<path fill="none" stroke="midnightblue" d="M613.057,-116.362C629.264,-107.409 652.651,-94.4908 670.907,-84.4064"/>
<polygon fill="midnightblue" stroke="midnightblue" points="672.6,-87.4696 679.661,-79.5707 669.216,-81.3422 672.6,-87.4696"/>
</g>
<!-- Node13 -->
<g id="node29" class="node"><title>Node13</title>
<a xlink:href="../../d2/de9/Exceptions_8hpp.xhtml" target="_top" xlink:title="This class defines the ComPWA exception base&#45;class and provides a set of standard exceptions...">
<polygon fill="white" stroke="black" points="815.798,-58.5 815.798,-79.5 923.798,-79.5 923.798,-58.5 815.798,-58.5"/>
<text text-anchor="middle" x="869.798" y="-66.5" font-family="Helvetica,sans-Serif" font-size="10.00">Core/Exceptions.hpp</text>
</a>
</g>
<!-- Node5&#45;&gt;Node13 -->
<g id="edge32" class="edge"><title>Node5&#45;&gt;Node13</title>
<path fill="none" stroke="midnightblue" d="M643.779,-116.497C690.431,-106.693 760.114,-92.0496 809.761,-81.6165"/>
<polygon fill="midnightblue" stroke="midnightblue" points="810.656,-85.0049 819.723,-79.5231 809.217,-78.1545 810.656,-85.0049"/>
</g>
<!-- Node9&#45;&gt;Node2 -->
<g id="edge24" class="edge"><title>Node9&#45;&gt;Node2</title>
<path fill="none" stroke="midnightblue" d="M637.741,-59.2154C634.719,-58.7908 631.725,-58.3829 628.798,-58 476.373,-38.0615 437.223,-41.9385 284.798,-22 272.345,-20.371 258.691,-18.2918 246.775,-16.3806"/>
<polygon fill="midnightblue" stroke="midnightblue" points="247.257,-12.9131 236.825,-14.7598 246.132,-19.822 247.257,-12.9131"/>
</g>
<!-- Node9&#45;&gt;Node7 -->
<g id="edge22" class="edge"><title>Node9&#45;&gt;Node7</title>
<path fill="none" stroke="midnightblue" d="M716.222,-58.3619C730.685,-49.532 751.467,-36.844 767.882,-26.8224"/>
<polygon fill="midnightblue" stroke="midnightblue" points="769.773,-29.7688 776.484,-21.5707 766.125,-23.7943 769.773,-29.7688"/>
</g>
<!-- Node10 -->
<g id="node23" class="node"><title>Node10</title>
<polygon fill="white" stroke="#bfbfbf" points="440.798,-0.5 440.798,-21.5 492.798,-21.5 492.798,-0.5 440.798,-0.5"/>
<text text-anchor="middle" x="466.798" y="-8.5" font-family="Helvetica,sans-Serif" font-size="10.00">memory</text>
</g>
<!-- Node9&#45;&gt;Node10 -->
<g id="edge26" class="edge"><title>Node9&#45;&gt;Node10</title>
<path fill="none" stroke="midnightblue" d="M656.785,-58.4966C612.754,-47.489 544.315,-30.3792 502.715,-19.9794"/>
<polygon fill="midnightblue" stroke="midnightblue" points="503.552,-16.5808 493.002,-17.5509 501.854,-23.3718 503.552,-16.5808"/>
</g>
<!-- Node11 -->
<g id="node25" class="node"><title>Node11</title>
<polygon fill="white" stroke="#bfbfbf" points="567.798,-0.5 567.798,-21.5 623.798,-21.5 623.798,-0.5 567.798,-0.5"/>
<text text-anchor="middle" x="595.798" y="-8.5" font-family="Helvetica,sans-Serif" font-size="10.00">algorithm</text>
</g>
<!-- Node9&#45;&gt;Node11 -->
<g id="edge28" class="edge"><title>Node9&#45;&gt;Node11</title>
<path fill="none" stroke="midnightblue" d="M679.906,-58.3619C664.08,-49.4502 641.275,-36.6087 623.403,-26.5447"/>
<polygon fill="midnightblue" stroke="midnightblue" points="625.001,-23.4276 614.57,-21.5707 621.566,-29.5271 625.001,-23.4276"/>
</g>
<!-- Node12 -->
<g id="node27" class="node"><title>Node12</title>
<a xlink:href="../../d9/d91/ParObserver_8hpp.xhtml" target="_top" xlink:title="For the use in the function tree, the observer pattern is used.">
<polygon fill="white" stroke="black" points="641.798,-0.5 641.798,-21.5 755.798,-21.5 755.798,-0.5 641.798,-0.5"/>
<text text-anchor="middle" x="698.798" y="-8.5" font-family="Helvetica,sans-Serif" font-size="10.00">Core/ParObserver.hpp</text>
</a>
</g>
<!-- Node9&#45;&gt;Node12 -->
<g id="edge30" class="edge"><title>Node9&#45;&gt;Node12</title>
<path fill="none" stroke="midnightblue" d="M698.798,-58.3619C698.798,-50.9219 698.798,-40.7427 698.798,-31.7276"/>
<polygon fill="midnightblue" stroke="midnightblue" points="702.298,-31.5706 698.798,-21.5707 695.298,-31.5707 702.298,-31.5706"/>
</g>
<!-- Node13&#45;&gt;Node7 -->
<g id="edge36" class="edge"><title>Node13&#45;&gt;Node7</title>
<path fill="none" stroke="midnightblue" d="M855.858,-58.3619C844.61,-49.7773 828.582,-37.5459 815.633,-27.6636"/>
<polygon fill="midnightblue" stroke="midnightblue" points="817.722,-24.8551 807.649,-21.5707 813.475,-30.4198 817.722,-24.8551"/>
</g>
<!-- Node14 -->
<g id="node31" class="node"><title>Node14</title>
<polygon fill="white" stroke="#bfbfbf" points="840.298,-0.5 840.298,-21.5 899.298,-21.5 899.298,-0.5 840.298,-0.5"/>
<text text-anchor="middle" x="869.798" y="-8.5" font-family="Helvetica,sans-Serif" font-size="10.00">exception</text>
</g>
<!-- Node13&#45;&gt;Node14 -->
<g id="edge34" class="edge"><title>Node13&#45;&gt;Node14</title>
<path fill="none" stroke="midnightblue" d="M869.798,-58.3619C869.798,-50.9219 869.798,-40.7427 869.798,-31.7276"/>
<polygon fill="midnightblue" stroke="midnightblue" points="873.298,-31.5706 869.798,-21.5707 866.298,-31.5707 873.298,-31.5706"/>
</g>
<!-- Node15&#45;&gt;Node2 -->
<g id="edge44" class="edge"><title>Node15&#45;&gt;Node2</title>
<path fill="none" stroke="midnightblue" d="M125.842,-116.295C142.542,-96.5271 178.403,-54.0801 199.131,-29.5443"/>
<polygon fill="midnightblue" stroke="midnightblue" points="201.996,-31.5768 205.776,-21.6792 196.649,-27.0593 201.996,-31.5768"/>
</g>
<!-- Node16 -->
<g id="node36" class="node"><title>Node16</title>
<polygon fill="white" stroke="#bfbfbf" points="21.298,-58.5 21.298,-79.5 66.298,-79.5 66.298,-58.5 21.298,-58.5"/>
<text text-anchor="middle" x="43.798" y="-66.5" font-family="Helvetica,sans-Serif" font-size="10.00">cstdlib</text>
</g>
<!-- Node15&#45;&gt;Node16 -->
<g id="edge40" class="edge"><title>Node15&#45;&gt;Node16</title>
<path fill="none" stroke="midnightblue" d="M103.409,-116.362C92.7068,-107.859 77.502,-95.7785 65.1272,-85.9466"/>
<polygon fill="midnightblue" stroke="midnightblue" points="67.1093,-83.0511 57.1024,-79.5707 62.7547,-88.5318 67.1093,-83.0511"/>
</g>
<!-- Node17 -->
<g id="node38" class="node"><title>Node17</title>
<polygon fill="white" stroke="#bfbfbf" points="83.298,-58.5 83.298,-79.5 130.298,-79.5 130.298,-58.5 83.298,-58.5"/>
<text text-anchor="middle" x="106.798" y="-66.5" font-family="Helvetica,sans-Serif" font-size="10.00">math.h</text>
</g>
<!-- Node15&#45;&gt;Node17 -->
<g id="edge42" class="edge"><title>Node15&#45;&gt;Node17</title>
<path fill="none" stroke="midnightblue" d="M114.964,-116.362C113.667,-108.84 111.887,-98.5187 110.321,-89.4308"/>
<polygon fill="midnightblue" stroke="midnightblue" points="113.769,-88.8306 108.62,-79.5707 106.871,-90.02 113.769,-88.8306"/>
</g>
<!-- Node18 -->
<g id="node41" class="node"><title>Node18</title>
<a xlink:href="../../d4/d37/Kinematics_8hpp.xhtml" target="_top" xlink:title="Core/Kinematics.hpp">
<polygon fill="white" stroke="black" points="261.798,-58.5 261.798,-79.5 369.798,-79.5 369.798,-58.5 261.798,-58.5"/>
<text text-anchor="middle" x="315.798" y="-66.5" font-family="Helvetica,sans-Serif" font-size="10.00">Core/Kinematics.hpp</text>
</a>
</g>
<!-- Node15&#45;&gt;Node18 -->
<g id="edge46" class="edge"><title>Node15&#45;&gt;Node18</title>
<path fill="none" stroke="midnightblue" d="M147.495,-116.497C178.775,-106.877 227.625,-92.5981 264.71,-82.209"/>
<polygon fill="midnightblue" stroke="midnightblue" points="265.656,-85.5789 274.349,-79.5231 263.777,-78.8357 265.656,-85.5789"/>
</g>
<!-- Node18&#45;&gt;Node2 -->
<g id="edge48" class="edge"><title>Node18&#45;&gt;Node2</title>
<path fill="none" stroke="midnightblue" d="M297.273,-58.3619C281.897,-49.532 259.802,-36.844 242.351,-26.8224"/>
<polygon fill="midnightblue" stroke="midnightblue" points="243.62,-23.5154 233.205,-21.5707 240.134,-29.5857 243.62,-23.5154"/>
</g>
<!-- Node18&#45;&gt;Node10 -->
<g id="edge50" class="edge"><title>Node18&#45;&gt;Node10</title>
<path fill="none" stroke="midnightblue" d="M343.143,-58.4966C367.819,-49.0185 404.273,-35.0162 431.212,-24.6688"/>
<polygon fill="midnightblue" stroke="midnightblue" points="432.587,-27.8901 440.667,-21.0371 430.077,-21.3556 432.587,-27.8901"/>
</g>
<!-- Node18&#45;&gt;Node15 -->
<g id="edge54" class="edge"><title>Node18&#45;&gt;Node15</title>
<path fill="none" stroke="midnightblue" d="M285.037,-79.5231C253.733,-89.1487 204.879,-103.428 167.81,-113.812"/>
<polygon fill="midnightblue" stroke="midnightblue" points="166.869,-110.441 158.175,-116.497 168.748,-117.184 166.869,-110.441"/>
</g>
<!-- Node19 -->
<g id="node45" class="node"><title>Node19</title>
<polygon fill="white" stroke="#bfbfbf" points="293.298,-0.5 293.298,-21.5 394.298,-21.5 394.298,-0.5 293.298,-0.5"/>
<text text-anchor="middle" x="343.798" y="-8.5" font-family="Helvetica,sans-Serif" font-size="10.00">boost/log/trivial.hpp</text>
</g>
<!-- Node18&#45;&gt;Node19 -->
<g id="edge52" class="edge"><title>Node18&#45;&gt;Node19</title>
<path fill="none" stroke="midnightblue" d="M320.934,-58.3619C324.644,-50.6766 329.765,-40.0686 334.22,-30.8399"/>
<polygon fill="midnightblue" stroke="midnightblue" points="337.499,-32.0978 338.695,-21.5707 331.195,-29.0545 337.499,-32.0978"/>
</g>
<!-- Node20&#45;&gt;Node2 -->
<g id="edge60" class="edge"><title>Node20&#45;&gt;Node2</title>
<path fill="none" stroke="midnightblue" d="M306.359,-116.447C289.719,-108.334 268.032,-95.8387 252.798,-80 239.241,-65.9053 228.973,-46.0272 222.549,-31.2247"/>
<polygon fill="midnightblue" stroke="midnightblue" points="225.764,-29.8385 218.723,-21.9212 219.29,-32.5009 225.764,-29.8385"/>
</g>
<!-- Node20&#45;&gt;Node6 -->
<g id="edge58" class="edge"><title>Node20&#45;&gt;Node6</title>
<path fill="none" stroke="midnightblue" d="M352.891,-116.497C372.032,-107.397 399.944,-94.1273 421.403,-83.9253"/>
<polygon fill="midnightblue" stroke="midnightblue" points="422.928,-87.0758 430.457,-79.6212 419.923,-80.7539 422.928,-87.0758"/>
</g>
<!-- Node20&#45;&gt;Node18 -->
<g id="edge64" class="edge"><title>Node20&#45;&gt;Node18</title>
<path fill="none" stroke="midnightblue" d="M328.047,-116.362C326.101,-108.84 323.432,-98.5187 321.082,-89.4308"/>
<polygon fill="midnightblue" stroke="midnightblue" points="324.424,-88.3758 318.532,-79.5707 317.647,-90.1285 324.424,-88.3758"/>
</g>
<!-- Node20&#45;&gt;Node19 -->
<g id="edge62" class="edge"><title>Node20&#45;&gt;Node19</title>
<path fill="none" stroke="midnightblue" d="M347.058,-116.423C358.313,-108.058 372.38,-95.2672 378.798,-80 386.283,-62.1963 374.319,-42.6256 362.393,-28.8888"/>
<polygon fill="midnightblue" stroke="midnightblue" points="364.905,-26.4517 355.522,-21.5324 359.79,-31.2297 364.905,-26.4517"/>
</g>
</g>
</svg>
