<?xml version="1.0" encoding="UTF-8" standalone="no"?>
<!DOCTYPE svg PUBLIC "-//W3C//DTD SVG 1.1//EN"
 "http://www.w3.org/Graphics/SVG/1.1/DTD/svg11.dtd">
<!-- Generated by graphviz version 2.36.0 (20140111.2315)
 -->
<!-- Title: /home/travis/build/ComPWA/ComPWA/Physics/DecayDynamics/AmpFlatteRes.cpp Pages: 1 -->
<svg width="474pt" height="254pt"
 viewBox="0.00 0.00 474.00 254.00" xmlns="http://www.w3.org/2000/svg" xmlns:xlink="http://www.w3.org/1999/xlink">
<g id="graph0" class="graph" transform="scale(1 1) rotate(0) translate(4 250)">
<title>/home/travis/build/ComPWA/ComPWA/Physics/DecayDynamics/AmpFlatteRes.cpp</title>
<polygon fill="white" stroke="none" points="-4,4 -4,-250 470,-250 470,4 -4,4"/>
<!-- Node1 -->
<g id="node1" class="node"><title>Node1</title>
<polygon fill="#bfbfbf" stroke="black" points="2.5,-204.5 2.5,-245.5 179.5,-245.5 179.5,-204.5 2.5,-204.5"/>
<text text-anchor="start" x="10.5" y="-233.5" font-family="Helvetica,sans-Serif" font-size="10.00">/home/travis/build</text>
<text text-anchor="start" x="10.5" y="-222.5" font-family="Helvetica,sans-Serif" font-size="10.00">/ComPWA/ComPWA/Physics</text>
<text text-anchor="middle" x="91" y="-211.5" font-family="Helvetica,sans-Serif" font-size="10.00">/DecayDynamics/AmpFlatteRes.cpp</text>
</g>
<!-- Node2 -->
<g id="node2" class="node"><title>Node2</title>
<polygon fill="white" stroke="#bfbfbf" points="0,-74.5 0,-93.5 44,-93.5 44,-74.5 0,-74.5"/>
<text text-anchor="middle" x="22" y="-81.5" font-family="Helvetica,sans-Serif" font-size="10.00">cmath</text>
</g>
<!-- Node1&#45;&gt;Node2 -->
<g id="edge1" class="edge"><title>Node1&#45;&gt;Node2</title>
<path fill="none" stroke="midnightblue" d="M78.6326,-204.376C72.161,-193.78 64.297,-180.37 58,-168 46.9063,-146.208 35.9913,-120.224 29.1407,-103.207"/>
<polygon fill="midnightblue" stroke="midnightblue" points="32.3824,-101.887 25.4352,-93.8874 25.8777,-104.473 32.3824,-101.887"/>
</g>
<!-- Node3 -->
<g id="node3" class="node"><title>Node3</title>
<polygon fill="white" stroke="#bfbfbf" points="67.5,-142.5 67.5,-161.5 114.5,-161.5 114.5,-142.5 67.5,-142.5"/>
<text text-anchor="middle" x="91" y="-149.5" font-family="Helvetica,sans-Serif" font-size="10.00">math.h</text>
</g>
<!-- Node1&#45;&gt;Node3 -->
<g id="edge2" class="edge"><title>Node1&#45;&gt;Node3</title>
<path fill="none" stroke="midnightblue" d="M91,-204.223C91,-194.086 91,-181.807 91,-171.813"/>
<polygon fill="midnightblue" stroke="midnightblue" points="94.5001,-171.735 91,-161.735 87.5001,-171.735 94.5001,-171.735"/>
</g>
<!-- Node4 -->
<g id="node4" class="node"><title>Node4</title>
<g id="a_node4"><a xlink:href="../../dd/d65/AmpFlatteRes_8hpp.html" target="_top" xlink:title="Physics/DecayDynamics\l/AmpFlatteRes.hpp">
<polygon fill="white" stroke="black" points="136,-137 136,-167 264,-167 264,-137 136,-137"/>
<text text-anchor="start" x="144" y="-155" font-family="Helvetica,sans-Serif" font-size="10.00">Physics/DecayDynamics</text>
<text text-anchor="middle" x="200" y="-144" font-family="Helvetica,sans-Serif" font-size="10.00">/AmpFlatteRes.hpp</text>
</a>
</g>
</g>
<!-- Node1&#45;&gt;Node4 -->
<g id="edge3" class="edge"><title>Node1&#45;&gt;Node4</title>
<path fill="none" stroke="midnightblue" d="M121.073,-204.411C136.244,-194.529 154.599,-182.573 169.789,-172.679"/>
<polygon fill="midnightblue" stroke="midnightblue" points="171.85,-175.514 178.318,-167.123 168.029,-169.648 171.85,-175.514"/>
</g>
<!-- Node4&#45;&gt;Node2 -->
<g id="edge5" class="edge"><title>Node4&#45;&gt;Node2</title>
<path fill="none" stroke="midnightblue" d="M155.108,-136.934C125.734,-127.362 86.6973,-113.942 53,-100 51.4048,-99.34 49.775,-98.638 48.1388,-97.9119"/>
<polygon fill="midnightblue" stroke="midnightblue" points="49.4363,-94.6555 38.8927,-93.6146 46.4859,-101.003 49.4363,-94.6555"/>
</g>
<!-- Node5 -->
<g id="node5" class="node"><title>Node5</title>
<polygon fill="white" stroke="#bfbfbf" points="62,-74.5 62,-93.5 106,-93.5 106,-74.5 62,-74.5"/>
<text text-anchor="middle" x="84" y="-81.5" font-family="Helvetica,sans-Serif" font-size="10.00">vector</text>
</g>
<!-- Node4&#45;&gt;Node5 -->
<g id="edge4" class="edge"><title>Node4&#45;&gt;Node5</title>
<path fill="none" stroke="midnightblue" d="M175.115,-136.841C155.32,-125.579 127.787,-109.913 108.179,-98.7572"/>
<polygon fill="midnightblue" stroke="midnightblue" points="109.682,-95.5851 99.2591,-93.6819 106.22,-101.669 109.682,-95.5851"/>
</g>
<!-- Node6 -->
<g id="node6" class="node"><title>Node6</title>
<g id="a_node6"><a xlink:href="../../de/d02/AbstractDynamicalFunction_8hpp.html" target="_top" xlink:title="Physics/DecayDynamics\l/AbstractDynamicalFunction.hpp">
<polygon fill="white" stroke="red" points="123.5,-69 123.5,-99 282.5,-99 282.5,-69 123.5,-69"/>
<text text-anchor="start" x="131.5" y="-87" font-family="Helvetica,sans-Serif" font-size="10.00">Physics/DecayDynamics</text>
<text text-anchor="middle" x="203" y="-76" font-family="Helvetica,sans-Serif" font-size="10.00">/AbstractDynamicalFunction.hpp</text>
</a>
</g>
</g>
<!-- Node4&#45;&gt;Node6 -->
<g id="edge6" class="edge"><title>Node4&#45;&gt;Node6</title>
<path fill="none" stroke="midnightblue" d="M200.651,-136.679C201.013,-128.722 201.473,-118.605 201.889,-109.436"/>
<polygon fill="midnightblue" stroke="midnightblue" points="205.393,-109.442 202.35,-99.2931 198.4,-109.124 205.393,-109.442"/>
</g>
<!-- Node7 -->
<g id="node7" class="node"><title>Node7</title>
<g id="a_node7"><a xlink:href="../../de/dc9/FormFactor_8hpp.html" target="_top" xlink:title="Physics/DecayDynamics\l/FormFactor.hpp">
<polygon fill="white" stroke="black" points="192,-1 192,-31 320,-31 320,-1 192,-1"/>
<text text-anchor="start" x="200" y="-19" font-family="Helvetica,sans-Serif" font-size="10.00">Physics/DecayDynamics</text>
<text text-anchor="middle" x="256" y="-8" font-family="Helvetica,sans-Serif" font-size="10.00">/FormFactor.hpp</text>
</a>
</g>
</g>
<!-- Node4&#45;&gt;Node7 -->
<g id="edge8" class="edge"><title>Node4&#45;&gt;Node7</title>
<path fill="none" stroke="midnightblue" d="M245.208,-136.929C262.712,-129.022 280.929,-117.189 291,-100 302.55,-80.2874 289.518,-56.043 276.2,-38.859"/>
<polygon fill="midnightblue" stroke="midnightblue" points="278.812,-36.5243 269.746,-31.0412 273.414,-40.981 278.812,-36.5243"/>
</g>
<!-- Node8 -->
<g id="node8" class="node"><title>Node8</title>
<g id="a_node8"><a xlink:href="../../d1/dba/Coupling_8hpp.html" target="_top" xlink:title="Physics/DecayDynamics\l/Coupling.hpp">
<polygon fill="white" stroke="black" points="338,-69 338,-99 466,-99 466,-69 338,-69"/>
<text text-anchor="start" x="346" y="-87" font-family="Helvetica,sans-Serif" font-size="10.00">Physics/DecayDynamics</text>
<text text-anchor="middle" x="402" y="-76" font-family="Helvetica,sans-Serif" font-size="10.00">/Coupling.hpp</text>
</a>
</g>
</g>
<!-- Node4&#45;&gt;Node8 -->
<g id="edge9" class="edge"><title>Node4&#45;&gt;Node8</title>
<path fill="none" stroke="midnightblue" d="M243.334,-136.841C274.326,-126.715 316.213,-113.03 349.166,-102.262"/>
<polygon fill="midnightblue" stroke="midnightblue" points="350.666,-105.455 359.085,-99.0218 348.492,-98.8007 350.666,-105.455"/>
</g>
<!-- Node6&#45;&gt;Node7 -->
<g id="edge7" class="edge"><title>Node6&#45;&gt;Node7</title>
<path fill="none" stroke="midnightblue" d="M214.5,-68.679C221.376,-60.1167 230.261,-49.0529 238.044,-39.3604"/>
<polygon fill="midnightblue" stroke="midnightblue" points="240.99,-41.2817 244.522,-31.2931 235.532,-36.8988 240.99,-41.2817"/>
</g>
</g>
</svg>
