<?xml version="1.0" encoding="UTF-8" standalone="no"?>
<!DOCTYPE svg PUBLIC "-//W3C//DTD SVG 1.1//EN"
 "http://www.w3.org/Graphics/SVG/1.1/DTD/svg11.dtd">
<!-- Generated by graphviz version 2.36.0 (20140111.2315)
 -->
<!-- Title: /home/travis/build/ComPWA/ComPWA/Physics/HelicityFormalism/AmpFlatteRes.cpp Pages: 1 -->
<svg width="704pt" height="390pt"
 viewBox="0.00 0.00 703.52 390.00" xmlns="http://www.w3.org/2000/svg" xmlns:xlink="http://www.w3.org/1999/xlink">
<g id="graph0" class="graph" transform="scale(1 1) rotate(0) translate(4 386)">
<title>/home/travis/build/ComPWA/ComPWA/Physics/HelicityFormalism/AmpFlatteRes.cpp</title>
<polygon fill="white" stroke="none" points="-4,4 -4,-386 699.523,-386 699.523,4 -4,4"/>
<!-- Node1 -->
<g id="node1" class="node"><title>Node1</title>
<polygon fill="#bfbfbf" stroke="black" points="194.5,-329 194.5,-381 343.5,-381 343.5,-329 194.5,-329"/>
<text text-anchor="start" x="202.5" y="-369" font-family="Helvetica,sans-Serif" font-size="10.00">/home/travis/build</text>
<text text-anchor="start" x="202.5" y="-358" font-family="Helvetica,sans-Serif" font-size="10.00">/ComPWA/ComPWA/Physics</text>
<text text-anchor="start" x="202.5" y="-347" font-family="Helvetica,sans-Serif" font-size="10.00">/HelicityFormalism/AmpFlatte</text>
<text text-anchor="middle" x="269" y="-336" font-family="Helvetica,sans-Serif" font-size="10.00">Res.cpp</text>
</g>
<!-- Node2 -->
<g id="node2" class="node"><title>Node2</title>
<polygon fill="white" stroke="#bfbfbf" points="247,-198.5 247,-217.5 291,-217.5 291,-198.5 247,-198.5"/>
<text text-anchor="middle" x="269" y="-205.5" font-family="Helvetica,sans-Serif" font-size="10.00">cmath</text>
</g>
<!-- Node1&#45;&gt;Node2 -->
<g id="edge1" class="edge"><title>Node1&#45;&gt;Node2</title>
<path fill="none" stroke="midnightblue" d="M269,-328.743C269,-300.035 269,-253.822 269,-228.007"/>
<polygon fill="midnightblue" stroke="midnightblue" points="272.5,-227.717 269,-217.717 265.5,-227.717 272.5,-227.717"/>
</g>
<!-- Node3 -->
<g id="node3" class="node"><title>Node3</title>
<polygon fill="white" stroke="#bfbfbf" points="-0.5,-62.5 -0.5,-81.5 46.5,-81.5 46.5,-62.5 -0.5,-62.5"/>
<text text-anchor="middle" x="23" y="-69.5" font-family="Helvetica,sans-Serif" font-size="10.00">math.h</text>
</g>
<!-- Node1&#45;&gt;Node3 -->
<g id="edge2" class="edge"><title>Node1&#45;&gt;Node3</title>
<path fill="none" stroke="midnightblue" d="M226.638,-328.966C174.784,-296.031 88.1899,-233.182 42,-156 30.1063,-136.126 25.6542,-109.489 23.9898,-91.8113"/>
<polygon fill="midnightblue" stroke="midnightblue" points="27.4669,-91.3685 23.2485,-81.6497 20.4855,-91.8779 27.4669,-91.3685"/>
</g>
<!-- Node4 -->
<g id="node4" class="node"><title>Node4</title>
<g id="a_node4"><a xlink:href="../../dd/d65/AmpFlatteRes_8hpp.html" target="_top" xlink:title="Physics/HelicityFormalism\l/AmpFlatteRes.hpp">
<polygon fill="white" stroke="black" points="309,-261 309,-291 443,-291 443,-261 309,-261"/>
<text text-anchor="start" x="317" y="-279" font-family="Helvetica,sans-Serif" font-size="10.00">Physics/HelicityFormalism</text>
<text text-anchor="middle" x="376" y="-268" font-family="Helvetica,sans-Serif" font-size="10.00">/AmpFlatteRes.hpp</text>
</a>
</g>
</g>
<!-- Node1&#45;&gt;Node4 -->
<g id="edge3" class="edge"><title>Node1&#45;&gt;Node4</title>
<path fill="none" stroke="midnightblue" d="M304.036,-328.787C318.335,-318.497 334.64,-306.764 348.11,-297.07"/>
<polygon fill="midnightblue" stroke="midnightblue" points="350.43,-299.713 356.503,-291.031 346.342,-294.031 350.43,-299.713"/>
</g>
<!-- Node4&#45;&gt;Node2 -->
<g id="edge5" class="edge"><title>Node4&#45;&gt;Node2</title>
<path fill="none" stroke="midnightblue" d="M353.046,-260.841C334.953,-249.681 309.851,-234.198 291.798,-223.063"/>
<polygon fill="midnightblue" stroke="midnightblue" points="293.424,-219.953 283.075,-217.682 289.749,-225.911 293.424,-219.953"/>
</g>
<!-- Node5 -->
<g id="node5" class="node"><title>Node5</title>
<polygon fill="white" stroke="#bfbfbf" points="363,-0.5 363,-19.5 407,-19.5 407,-0.5 363,-0.5"/>
<text text-anchor="middle" x="385" y="-7.5" font-family="Helvetica,sans-Serif" font-size="10.00">vector</text>
</g>
<!-- Node4&#45;&gt;Node5 -->
<g id="edge4" class="edge"><title>Node4&#45;&gt;Node5</title>
<path fill="none" stroke="midnightblue" d="M443.076,-270.94C517.566,-262.425 634.603,-236.236 690,-156 711.23,-125.251 661.347,-57.795 659,-56 621.626,-27.4158 481.933,-16.2589 417.694,-12.572"/>
<polygon fill="midnightblue" stroke="midnightblue" points="417.513,-9.05692 407.337,-12.0051 417.13,-16.0465 417.513,-9.05692"/>
</g>
<!-- Node6 -->
<g id="node6" class="node"><title>Node6</title>
<g id="a_node6"><a xlink:href="../../de/d02/AbstractDynamicalFunction_8hpp.html" target="_top" xlink:title="Physics/HelicityFormalism\l/AbstractDynamicalFunction.hpp">
<polygon fill="white" stroke="black" points="308.5,-193 308.5,-223 467.5,-223 467.5,-193 308.5,-193"/>
<text text-anchor="start" x="316.5" y="-211" font-family="Helvetica,sans-Serif" font-size="10.00">Physics/HelicityFormalism</text>
<text text-anchor="middle" x="388" y="-200" font-family="Helvetica,sans-Serif" font-size="10.00">/AbstractDynamicalFunction.hpp</text>
</a>
</g>
</g>
<!-- Node4&#45;&gt;Node6 -->
<g id="edge6" class="edge"><title>Node4&#45;&gt;Node6</title>
<path fill="none" stroke="midnightblue" d="M378.604,-260.679C380.066,-252.636 381.93,-242.385 383.611,-233.137"/>
<polygon fill="midnightblue" stroke="midnightblue" points="387.056,-233.758 385.401,-223.293 380.169,-232.506 387.056,-233.758"/>
</g>
<!-- Node7 -->
<g id="node7" class="node"><title>Node7</title>
<polygon fill="white" stroke="#bfbfbf" points="628.5,-130.5 628.5,-149.5 681.5,-149.5 681.5,-130.5 628.5,-130.5"/>
<text text-anchor="middle" x="655" y="-137.5" font-family="Helvetica,sans-Serif" font-size="10.00">complex</text>
</g>
<!-- Node6&#45;&gt;Node7 -->
<g id="edge7" class="edge"><title>Node6&#45;&gt;Node7</title>
<path fill="none" stroke="midnightblue" d="M461.13,-192.989C505.68,-183.838 563.55,-170.854 614,-156 617.126,-155.079 620.359,-154.045 623.575,-152.961"/>
<polygon fill="midnightblue" stroke="midnightblue" points="624.777,-156.248 633.045,-149.623 622.45,-149.646 624.777,-156.248"/>
</g>
<!-- Node8 -->
<g id="node8" class="node"><title>Node8</title>
<polygon fill="white" stroke="#bfbfbf" points="549.5,-57 549.5,-87 650.5,-87 650.5,-57 549.5,-57"/>
<text text-anchor="start" x="557.5" y="-75" font-family="Helvetica,sans-Serif" font-size="10.00">boost/property_tree</text>
<text text-anchor="middle" x="600" y="-64" font-family="Helvetica,sans-Serif" font-size="10.00">/ptree.hpp</text>
</g>
<!-- Node6&#45;&gt;Node8 -->
<g id="edge8" class="edge"><title>Node6&#45;&gt;Node8</title>
<path fill="none" stroke="midnightblue" d="M467.752,-194.466C513.51,-185.684 564.977,-172.566 581,-156 596.035,-140.456 600.091,-115.574 600.806,-97.1016"/>
<polygon fill="midnightblue" stroke="midnightblue" points="604.306,-97.1173 600.899,-87.0852 597.306,-97.0523 604.306,-97.1173"/>
</g>
<!-- Node9 -->
<g id="node9" class="node"><title>Node9</title>
<g id="a_node9"><a xlink:href="../../d8/d35/PhysConst_8hpp.html" target="_top" xlink:title="PhysConst provides particle information to the framework. ">
<polygon fill="white" stroke="red" points="464,-130.5 464,-149.5 572,-149.5 572,-130.5 464,-130.5"/>
<text text-anchor="middle" x="518" y="-137.5" font-family="Helvetica,sans-Serif" font-size="10.00">Core/PhysConst.hpp</text>
</a>
</g>
</g>
<!-- Node6&#45;&gt;Node9 -->
<g id="edge9" class="edge"><title>Node6&#45;&gt;Node9</title>
<path fill="none" stroke="midnightblue" d="M415.888,-192.841C438.374,-181.425 469.772,-165.485 491.796,-154.303"/>
<polygon fill="midnightblue" stroke="midnightblue" points="493.567,-157.33 500.899,-149.682 490.398,-151.088 493.567,-157.33"/>
</g>
<!-- Node10 -->
<g id="node10" class="node"><title>Node10</title>
<g id="a_node10"><a xlink:href="../../d9/dfb/Spin_8hpp.html" target="_top" xlink:title="Core/Spin.hpp">
<polygon fill="white" stroke="red" points="413.5,-62.5 413.5,-81.5 492.5,-81.5 492.5,-62.5 413.5,-62.5"/>
<text text-anchor="middle" x="453" y="-69.5" font-family="Helvetica,sans-Serif" font-size="10.00">Core/Spin.hpp</text>
</a>
</g>
</g>
<!-- Node6&#45;&gt;Node10 -->
<g id="edge19" class="edge"><title>Node6&#45;&gt;Node10</title>
<path fill="none" stroke="midnightblue" d="M396.543,-192.934C402.554,-182.814 410.629,-168.758 417,-156 427.925,-134.123 438.876,-108.157 445.782,-91.1674"/>
<polygon fill="midnightblue" stroke="midnightblue" points="449.038,-92.4494 449.522,-81.8656 442.544,-89.8379 449.038,-92.4494"/>
</g>
<!-- Node11 -->
<g id="node11" class="node"><title>Node11</title>
<g id="a_node11"><a xlink:href="../../d8/dd4/DataPoint_8hpp.html" target="_top" xlink:title="dataPoint stores kinematic information of a dalitz plot ">
<polygon fill="white" stroke="red" points="51.5,-130.5 51.5,-149.5 154.5,-149.5 154.5,-130.5 51.5,-130.5"/>
<text text-anchor="middle" x="103" y="-137.5" font-family="Helvetica,sans-Serif" font-size="10.00">Core/DataPoint.hpp</text>
</a>
</g>
</g>
<!-- Node6&#45;&gt;Node11 -->
<g id="edge14" class="edge"><title>Node6&#45;&gt;Node11</title>
<path fill="none" stroke="midnightblue" d="M327.21,-192.922C274.097,-180.622 198.11,-163.026 149.665,-151.807"/>
<polygon fill="midnightblue" stroke="midnightblue" points="150.296,-148.36 139.764,-149.514 148.716,-155.18 150.296,-148.36"/>
</g>
<!-- Node12 -->
<g id="node12" class="node"><title>Node12</title>
<g id="a_node12"><a xlink:href="../../df/d9f/ParameterList_8hpp.html" target="_top" xlink:title="This class provides a list of fit parameters which can have different types. ">
<polygon fill="white" stroke="red" points="103,-62.5 103,-81.5 223,-81.5 223,-62.5 103,-62.5"/>
<text text-anchor="middle" x="163" y="-69.5" font-family="Helvetica,sans-Serif" font-size="10.00">Core/ParameterList.hpp</text>
</a>
</g>
</g>
<!-- Node6&#45;&gt;Node12 -->
<g id="edge17" class="edge"><title>Node6&#45;&gt;Node12</title>
<path fill="none" stroke="midnightblue" d="M339.639,-192.978C313.774,-184.351 281.992,-171.888 256,-156 225.257,-137.207 195.164,-107.75 177.88,-89.4501"/>
<polygon fill="midnightblue" stroke="midnightblue" points="180.25,-86.8582 170.884,-81.9055 175.117,-91.6179 180.25,-86.8582"/>
</g>
<!-- Node13 -->
<g id="node13" class="node"><title>Node13</title>
<g id="a_node13"><a xlink:href="../../da/db2/FunctionTree_8hpp.html" target="_top" xlink:title="This class can be used to store a function in a tree&#45;like structure. ">
<polygon fill="white" stroke="red" points="241,-62.5 241,-81.5 357,-81.5 357,-62.5 241,-62.5"/>
<text text-anchor="middle" x="299" y="-69.5" font-family="Helvetica,sans-Serif" font-size="10.00">Core/FunctionTree.hpp</text>
</a>
</g>
</g>
<!-- Node6&#45;&gt;Node13 -->
<g id="edge20" class="edge"><title>Node6&#45;&gt;Node13</title>
<path fill="none" stroke="midnightblue" d="M316.105,-192.923C296.229,-185.372 276.877,-173.782 265,-156 250.804,-134.745 268.789,-106.625 283.525,-89.1809"/>
<polygon fill="midnightblue" stroke="midnightblue" points="286.289,-91.3407 290.342,-81.5519 281.069,-86.6763 286.289,-91.3407"/>
</g>
<!-- Node14 -->
<g id="node14" class="node"><title>Node14</title>
<g id="a_node14"><a xlink:href="../../d0/dab/HelicityKinematics_8hpp.html" target="_top" xlink:title="Physics/HelicityFormalism\l/HelicityKinematics.hpp">
<polygon fill="white" stroke="red" points="274,-125 274,-155 408,-155 408,-125 274,-125"/>
<text text-anchor="start" x="282" y="-143" font-family="Helvetica,sans-Serif" font-size="10.00">Physics/HelicityFormalism</text>
<text text-anchor="middle" x="341" y="-132" font-family="Helvetica,sans-Serif" font-size="10.00">/HelicityKinematics.hpp</text>
</a>
</g>
</g>
<!-- Node6&#45;&gt;Node14 -->
<g id="edge22" class="edge"><title>Node6&#45;&gt;Node14</title>
<path fill="none" stroke="midnightblue" d="M377.802,-192.679C371.766,-184.203 363.985,-173.276 357.133,-163.655"/>
<polygon fill="midnightblue" stroke="midnightblue" points="359.83,-161.408 351.178,-155.293 354.128,-165.469 359.83,-161.408"/>
</g>
<!-- Node9&#45;&gt;Node5 -->
<g id="edge10" class="edge"><title>Node9&#45;&gt;Node5</title>
<path fill="none" stroke="midnightblue" d="M518.761,-130.077C519.674,-113.475 519.223,-77.5748 501,-56 480.081,-31.2337 443.822,-20.0399 417.399,-15.0168"/>
<polygon fill="midnightblue" stroke="midnightblue" points="417.901,-11.5519 407.455,-13.3253 416.727,-18.4528 417.901,-11.5519"/>
</g>
<!-- Node9&#45;&gt;Node8 -->
<g id="edge11" class="edge"><title>Node9&#45;&gt;Node8</title>
<path fill="none" stroke="midnightblue" d="M528.72,-130.372C540.222,-121.114 558.906,-106.076 574.26,-93.7175"/>
<polygon fill="midnightblue" stroke="midnightblue" points="576.785,-96.1781 582.381,-87.1815 572.396,-90.725 576.785,-96.1781"/>
</g>
<!-- Node9&#45;&gt;Node10 -->
<g id="edge12" class="edge"><title>Node9&#45;&gt;Node10</title>
<path fill="none" stroke="midnightblue" d="M509.502,-130.372C499.243,-119.955 481.775,-102.217 468.971,-89.2162"/>
<polygon fill="midnightblue" stroke="midnightblue" points="471.218,-86.5101 461.707,-81.8411 466.23,-91.4219 471.218,-86.5101"/>
</g>
<!-- Node10&#45;&gt;Node5 -->
<g id="edge13" class="edge"><title>Node10&#45;&gt;Node5</title>
<path fill="none" stroke="midnightblue" d="M443.257,-62.4035C432.653,-53.047 415.481,-37.8948 402.521,-26.4599"/>
<polygon fill="midnightblue" stroke="midnightblue" points="404.539,-23.5724 394.725,-19.5806 399.907,-28.8213 404.539,-23.5724"/>
</g>
<!-- Node11&#45;&gt;Node3 -->
<g id="edge15" class="edge"><title>Node11&#45;&gt;Node3</title>
<path fill="none" stroke="midnightblue" d="M92.5414,-130.372C79.6051,-119.699 57.3548,-101.343 41.507,-88.2683"/>
<polygon fill="midnightblue" stroke="midnightblue" points="43.4023,-85.2945 33.4612,-81.6305 38.9476,-90.6941 43.4023,-85.2945"/>
</g>
<!-- Node11&#45;&gt;Node5 -->
<g id="edge16" class="edge"><title>Node11&#45;&gt;Node5</title>
<path fill="none" stroke="midnightblue" d="M98.3252,-130.253C90.1544,-113.628 75.7936,-77.2382 94,-56 127.003,-17.5009 283.613,-11.6469 352.433,-10.9619"/>
<polygon fill="midnightblue" stroke="midnightblue" points="352.716,-14.4602 362.692,-10.8921 352.668,-7.46032 352.716,-14.4602"/>
</g>
<!-- Node12&#45;&gt;Node5 -->
<g id="edge18" class="edge"><title>Node12&#45;&gt;Node5</title>
<path fill="none" stroke="midnightblue" d="M194.807,-62.4035C237.007,-50.9982 311.07,-30.981 353.244,-19.5827"/>
<polygon fill="midnightblue" stroke="midnightblue" points="354.25,-22.9366 362.99,-16.9487 352.423,-16.1791 354.25,-22.9366"/>
</g>
<!-- Node13&#45;&gt;Node5 -->
<g id="edge21" class="edge"><title>Node13&#45;&gt;Node5</title>
<path fill="none" stroke="midnightblue" d="M311.322,-62.4035C325.116,-52.7797 347.699,-37.0242 364.232,-25.4891"/>
<polygon fill="midnightblue" stroke="midnightblue" points="366.503,-28.1729 372.701,-19.5806 362.497,-22.432 366.503,-28.1729"/>
</g>
<!-- Node14&#45;&gt;Node5 -->
<g id="edge23" class="edge"><title>Node14&#45;&gt;Node5</title>
<path fill="none" stroke="midnightblue" d="M348.67,-124.577C353.792,-114.527 360.408,-100.699 365,-88 372.03,-68.5599 377.676,-45.531 381.154,-29.7548"/>
<polygon fill="midnightblue" stroke="midnightblue" points="384.634,-30.2135 383.291,-19.7041 377.787,-28.7572 384.634,-30.2135"/>
</g>
</g>
</svg>
