<?xml version="1.0" encoding="UTF-8" standalone="no"?>
<!DOCTYPE svg PUBLIC "-//W3C//DTD SVG 1.1//EN"
 "http://www.w3.org/Graphics/SVG/1.1/DTD/svg11.dtd">
<!-- Generated by graphviz version 2.26.3 (20100126.1600)
 -->
<!-- Title: G Pages: 1 -->
<svg width="2668pt" height="262pt"
 viewBox="0.00 0.00 2668.00 262.00" xmlns="http://www.w3.org/2000/svg" xmlns:xlink="http://www.w3.org/1999/xlink">
<g id="graph1" class="graph" transform="scale(1 1) rotate(0) translate(4 258)">
<title>G</title>
<polygon fill="white" stroke="white" points="-4,5 -4,-258 2665,-258 2665,5 -4,5"/>
<!-- Node1 -->
<g id="node1" class="node"><title>Node1</title>
<polygon fill="#bfbfbf" stroke="black" points="2023,-232.5 2023,-253.5 2115,-253.5 2115,-232.5 2023,-232.5"/>
<text text-anchor="middle" x="2069" y="-240.5" font-family="Helvetica,sans-Serif" font-size="10.00">Core/Particle.hpp</text>
</g>
<!-- Node2 -->
<g id="node3" class="node"><title>Node2</title>
<a xlink:href="../../df/d7d/Event_8hpp.xhtml" target="_top" xlink:title="This class provides a internal container for event&#45;based information.">
<polygon fill="white" stroke="black" points="1499.5,-174.5 1499.5,-195.5 1584.5,-195.5 1584.5,-174.5 1499.5,-174.5"/>
<text text-anchor="middle" x="1542" y="-182.5" font-family="Helvetica,sans-Serif" font-size="10.00">Core/Event.hpp</text>
</a>
</g>
<!-- Node1&#45;&gt;Node2 -->
<g id="edge2" class="edge"><title>Node1&#45;&gt;Node2</title>
<path fill="none" stroke="midnightblue" d="M2012.5,-236.782C1906.33,-225.097 1679.23,-200.103 1584.68,-189.698"/>
<polygon fill="midnightblue" stroke="midnightblue" points="2012.37,-240.289 2022.69,-237.904 2013.14,-233.331 2012.37,-240.289"/>
</g>
<!-- Node15 -->
<g id="node31" class="node"><title>Node15</title>
<a xlink:href="../../d4/d8c/DalitzDataPlotterApp_8cpp.xhtml" target="_top" xlink:title="Plotter for three particle final states.">
<polygon fill="white" stroke="black" points="1569.5,-0.5 1569.5,-21.5 1716.5,-21.5 1716.5,-0.5 1569.5,-0.5"/>
<text text-anchor="middle" x="1643" y="-8.5" font-family="Helvetica,sans-Serif" font-size="10.00">test/DalitzDataPlotterApp.cpp</text>
</a>
</g>
<!-- Node1&#45;&gt;Node15 -->
<g id="edge120" class="edge"><title>Node1&#45;&gt;Node15</title>
<path fill="none" stroke="midnightblue" d="M2072.6,-222.398C2076.23,-194.254 2077.86,-144.086 2050,-116 1977.75,-43.1657 1918.69,-114.28 1822,-80 1803.61,-73.4791 1801.79,-66.0158 1784,-58 1750.36,-42.844 1710.3,-29.9548 1681.5,-21.5291"/>
<polygon fill="midnightblue" stroke="midnightblue" points="2069.13,-221.931 2071.12,-232.338 2076.05,-222.965 2069.13,-221.931"/>
</g>
<!-- Node16 -->
<g id="node33" class="node"><title>Node16</title>
<a xlink:href="../../da/d2a/DalitzFitApp_8cpp.xhtml" target="_top" xlink:title="Test&#45;Application for full fit with simple BW&#45;dalitz&#45;model.">
<polygon fill="white" stroke="black" points="2067.5,-0.5 2067.5,-21.5 2176.5,-21.5 2176.5,-0.5 2067.5,-0.5"/>
<text text-anchor="middle" x="2122" y="-8.5" font-family="Helvetica,sans-Serif" font-size="10.00">test/DalitzFitApp.cpp</text>
</a>
</g>
<!-- Node1&#45;&gt;Node16 -->
<g id="edge122" class="edge"><title>Node1&#45;&gt;Node16</title>
<path fill="none" stroke="midnightblue" d="M2095.29,-226.364C2105.28,-218.497 2115.57,-208.15 2121,-196 2148.28,-135.017 2131.89,-51.0024 2124.78,-21.6409"/>
<polygon fill="midnightblue" stroke="midnightblue" points="2093.07,-223.645 2087.07,-232.374 2097.21,-229.295 2093.07,-223.645"/>
</g>
<!-- Node17 -->
<g id="node35" class="node"><title>Node17</title>
<a xlink:href="../../db/d8a/DataIFTestApp_8cpp.xhtml" target="_top" xlink:title="Test&#45;Application of the Root Data&#45;IF.">
<polygon fill="white" stroke="black" points="2538,-0.5 2538,-21.5 2660,-21.5 2660,-0.5 2538,-0.5"/>
<text text-anchor="middle" x="2599" y="-8.5" font-family="Helvetica,sans-Serif" font-size="10.00">test/DataIFTestApp.cpp</text>
</a>
</g>
<!-- Node1&#45;&gt;Node17 -->
<g id="edge124" class="edge"><title>Node1&#45;&gt;Node17</title>
<path fill="none" stroke="midnightblue" d="M2107.63,-228.936C2131.98,-219.898 2164.01,-207.697 2192,-196 2340.96,-133.755 2516.54,-50.5291 2577.15,-21.5078"/>
<polygon fill="midnightblue" stroke="midnightblue" points="2106.2,-225.734 2098.03,-232.483 2108.62,-232.3 2106.2,-225.734"/>
</g>
<!-- Node18 -->
<g id="node37" class="node"><title>Node18</title>
<a xlink:href="../../d4/d31/EstimatorTestApp_8cpp.xhtml" target="_top" xlink:title="Test&#45;Application of a simple &#160;estimator.">
<polygon fill="white" stroke="black" points="1916,-0.5 1916,-21.5 2050,-21.5 2050,-0.5 1916,-0.5"/>
<text text-anchor="middle" x="1983" y="-8.5" font-family="Helvetica,sans-Serif" font-size="10.00">test/EstimatorTestApp.cpp</text>
</a>
</g>
<!-- Node1&#45;&gt;Node18 -->
<g id="edge126" class="edge"><title>Node1&#45;&gt;Node18</title>
<path fill="none" stroke="midnightblue" d="M2076.93,-222.907C2085.83,-197.178 2097.26,-151.66 2083,-116 2065.98,-73.4609 2022.62,-38.3367 1998.97,-21.585"/>
<polygon fill="midnightblue" stroke="midnightblue" points="2073.63,-221.744 2073.47,-232.337 2080.2,-224.154 2073.63,-221.744"/>
</g>
<!-- Node19 -->
<g id="node40" class="node"><title>Node19</title>
<a xlink:href="../../d5/d26/IntegrationTestApp_8cpp.xhtml" target="_top" xlink:title="Test&#45;Application for full fit with simple modules.">
<polygon fill="white" stroke="black" points="2193.5,-0.5 2193.5,-21.5 2330.5,-21.5 2330.5,-0.5 2193.5,-0.5"/>
<text text-anchor="middle" x="2262" y="-8.5" font-family="Helvetica,sans-Serif" font-size="10.00">test/IntegrationTestApp.cpp</text>
</a>
</g>
<!-- Node1&#45;&gt;Node19 -->
<g id="edge128" class="edge"><title>Node1&#45;&gt;Node19</title>
<path fill="none" stroke="midnightblue" d="M2097.37,-227.123C2110.61,-218.888 2126.05,-208.036 2138,-196 2194.93,-138.645 2241.55,-51.6339 2256.75,-21.6178"/>
<polygon fill="midnightblue" stroke="midnightblue" points="2095.38,-224.234 2088.62,-232.39 2098.99,-230.231 2095.38,-224.234"/>
</g>
<!-- Node20 -->
<g id="node42" class="node"><title>Node20</title>
<a xlink:href="../../d0/d0c/IntegrationTestBinnedApp_8cpp.xhtml" target="_top" xlink:title="test/IntegrationTestBinnedApp.cpp">
<polygon fill="white" stroke="black" points="801.5,-0.5 801.5,-21.5 968.5,-21.5 968.5,-0.5 801.5,-0.5"/>
<text text-anchor="middle" x="885" y="-8.5" font-family="Helvetica,sans-Serif" font-size="10.00">test/IntegrationTestBinnedApp.cpp</text>
</a>
</g>
<!-- Node1&#45;&gt;Node20 -->
<g id="edge130" class="edge"><title>Node1&#45;&gt;Node20</title>
<path fill="none" stroke="midnightblue" d="M2012.69,-242.196C1797.61,-238.928 1027.94,-225.397 785,-196 585.507,-171.86 462.863,-244.884 348,-80 290.997,1.82751 693.772,-31.9422 793,-22 795.721,-21.7274 798.486,-21.4424 801.278,-21.148"/>
<polygon fill="midnightblue" stroke="midnightblue" points="2012.75,-245.697 2022.8,-242.348 2012.86,-238.698 2012.75,-245.697"/>
</g>
<!-- Node24 -->
<g id="node53" class="node"><title>Node24</title>
<a xlink:href="../../de/d8e/MinLogLH_8cpp.xhtml" target="_top" xlink:title="Estimator/MinLogLH/MinLogLH.cpp">
<polygon fill="white" stroke="black" points="2348,-0.5 2348,-21.5 2520,-21.5 2520,-0.5 2348,-0.5"/>
<text text-anchor="middle" x="2434" y="-8.5" font-family="Helvetica,sans-Serif" font-size="10.00">Estimator/MinLogLH/MinLogLH.cpp</text>
</a>
</g>
<!-- Node1&#45;&gt;Node24 -->
<g id="edge114" class="edge"><title>Node1&#45;&gt;Node24</title>
<path fill="none" stroke="midnightblue" d="M2101.15,-227.788C2119.06,-219.015 2141.59,-207.476 2161,-196 2263.51,-135.393 2379.66,-51.1436 2419.62,-21.6807"/>
<polygon fill="midnightblue" stroke="midnightblue" points="2099.19,-224.846 2091.72,-232.359 2102.25,-231.144 2099.19,-224.846"/>
</g>
<!-- Node26 -->
<g id="node61" class="node"><title>Node26</title>
<a xlink:href="../../d2/d9b/SliceFit_8cpp.xhtml" target="_top" xlink:title="Estimator/SliceFit/SliceFit.cpp">
<polygon fill="white" stroke="black" points="-0.5,-0.5 -0.5,-21.5 148.5,-21.5 148.5,-0.5 -0.5,-0.5"/>
<text text-anchor="middle" x="74" y="-8.5" font-family="Helvetica,sans-Serif" font-size="10.00">Estimator/SliceFit/SliceFit.cpp</text>
</a>
</g>
<!-- Node1&#45;&gt;Node26 -->
<g id="edge116" class="edge"><title>Node1&#45;&gt;Node26</title>
<path fill="none" stroke="midnightblue" d="M2012.73,-242.603C1745.42,-240.549 610.338,-229.885 456,-196 301.977,-162.184 138.523,-55.6277 89.0352,-21.5741"/>
<polygon fill="midnightblue" stroke="midnightblue" points="2012.95,-246.104 2022.98,-242.681 2013,-239.105 2012.95,-246.104"/>
</g>
<!-- Node27 -->
<g id="node63" class="node"><title>Node27</title>
<a xlink:href="../../d7/d9f/Event_8cpp.xhtml" target="_top" xlink:title="Core/Event.cpp">
<polygon fill="white" stroke="black" points="1956.5,-116.5 1956.5,-137.5 2041.5,-137.5 2041.5,-116.5 1956.5,-116.5"/>
<text text-anchor="middle" x="1999" y="-124.5" font-family="Helvetica,sans-Serif" font-size="10.00">Core/Event.cpp</text>
</a>
</g>
<!-- Node1&#45;&gt;Node27 -->
<g id="edge112" class="edge"><title>Node1&#45;&gt;Node27</title>
<path fill="none" stroke="midnightblue" d="M2057.2,-223.45C2042.31,-198.764 2017.21,-157.168 2005.44,-137.679"/>
<polygon fill="midnightblue" stroke="midnightblue" points="2054.38,-225.541 2062.54,-232.295 2060.37,-221.925 2054.38,-225.541"/>
</g>
<!-- Node29 -->
<g id="node69" class="node"><title>Node29</title>
<a xlink:href="../../db/d11/RootGenerator_8cpp.xhtml" target="_top" xlink:title="Physics/DPKinematics/RootGenerator.cpp">
<polygon fill="white" stroke="black" points="356.5,-58.5 356.5,-79.5 559.5,-79.5 559.5,-58.5 356.5,-58.5"/>
<text text-anchor="middle" x="458" y="-66.5" font-family="Helvetica,sans-Serif" font-size="10.00">Physics/DPKinematics/RootGenerator.cpp</text>
</a>
</g>
<!-- Node1&#45;&gt;Node29 -->
<g id="edge118" class="edge"><title>Node1&#45;&gt;Node29</title>
<path fill="none" stroke="midnightblue" d="M2012.7,-241.077C1753.9,-231.975 685.012,-191.423 546,-138 512.837,-125.255 482.118,-95.4724 467.296,-79.5232"/>
<polygon fill="midnightblue" stroke="midnightblue" points="2012.88,-244.586 2022.99,-241.438 2013.12,-237.59 2012.88,-244.586"/>
</g>
<!-- Node3 -->
<g id="node5" class="node"><title>Node3</title>
<a xlink:href="../../d2/d4b/Data_8hpp.xhtml" target="_top" xlink:title="This class provides the interface to experimental data.">
<polygon fill="white" stroke="black" points="1172,-116.5 1172,-137.5 1284,-137.5 1284,-116.5 1172,-116.5"/>
<text text-anchor="middle" x="1228" y="-124.5" font-family="Helvetica,sans-Serif" font-size="10.00">DataReader/Data.hpp</text>
</a>
</g>
<!-- Node2&#45;&gt;Node3 -->
<g id="edge4" class="edge"><title>Node2&#45;&gt;Node3</title>
<path fill="none" stroke="midnightblue" d="M1489.46,-175.295C1432.61,-164.795 1342.31,-148.114 1284.1,-137.363"/>
<polygon fill="midnightblue" stroke="midnightblue" points="1488.86,-178.743 1499.33,-177.118 1490.13,-171.859 1488.86,-178.743"/>
</g>
<!-- Node6 -->
<g id="node12" class="node"><title>Node6</title>
<a xlink:href="../../db/d94/RunManager_8cpp.xhtml" target="_top" xlink:title="Core/RunManager.cpp">
<polygon fill="white" stroke="black" points="165.5,-0.5 165.5,-21.5 280.5,-21.5 280.5,-0.5 165.5,-0.5"/>
<text text-anchor="middle" x="223" y="-8.5" font-family="Helvetica,sans-Serif" font-size="10.00">Core/RunManager.cpp</text>
</a>
</g>
<!-- Node2&#45;&gt;Node6 -->
<g id="edge84" class="edge"><title>Node2&#45;&gt;Node6</title>
<path fill="none" stroke="midnightblue" d="M1489.12,-184.162C1310.43,-181.07 730.028,-168.843 546,-138 455.564,-122.843 432.649,-115.258 348,-80 307.269,-63.0347 262.747,-36.3031 239.398,-21.5884"/>
<polygon fill="midnightblue" stroke="midnightblue" points="1489.25,-187.664 1499.31,-184.336 1489.37,-180.665 1489.25,-187.664"/>
</g>
<!-- Node10 -->
<g id="node21" class="node"><title>Node10</title>
<a xlink:href="../../d8/dd7/AsciiReader_8h.xhtml" target="_top" xlink:title="This class reads event&#45;based data from ascii&#45;files in the same syntax as Pawian&#39;s epemEvtReader...">
<polygon fill="white" stroke="black" points="951,-58.5 951,-79.5 1141,-79.5 1141,-58.5 951,-58.5"/>
<text text-anchor="middle" x="1046" y="-66.5" font-family="Helvetica,sans-Serif" font-size="10.00">DataReader/AsciiReader/AsciiReader.h</text>
</a>
</g>
<!-- Node2&#45;&gt;Node10 -->
<g id="edge86" class="edge"><title>Node2&#45;&gt;Node10</title>
<path fill="none" stroke="midnightblue" d="M1489.24,-181.124C1399.75,-174.108 1222.17,-158.142 1163,-138 1122.59,-124.245 1080.84,-95.4479 1059.84,-79.7551"/>
<polygon fill="midnightblue" stroke="midnightblue" points="1489.2,-184.632 1499.44,-181.916 1489.74,-177.653 1489.2,-184.632"/>
</g>
<!-- Node12 -->
<g id="node25" class="node"><title>Node12</title>
<a xlink:href="../../df/d53/RootReader_8hpp.xhtml" target="_top" xlink:title="This class reads event&#45;based data from root&#45;files.">
<polygon fill="white" stroke="black" points="1356.5,-58.5 1356.5,-79.5 1555.5,-79.5 1555.5,-58.5 1356.5,-58.5"/>
<text text-anchor="middle" x="1456" y="-66.5" font-family="Helvetica,sans-Serif" font-size="10.00">DataReader/RootReader/RootReader.hpp</text>
</a>
</g>
<!-- Node2&#45;&gt;Node12 -->
<g id="edge88" class="edge"><title>Node2&#45;&gt;Node12</title>
<path fill="none" stroke="midnightblue" d="M1527.99,-166.101C1509.75,-141.502 1478.49,-99.3409 1463.92,-79.6792"/>
<polygon fill="midnightblue" stroke="midnightblue" points="1525.3,-168.346 1534.06,-174.295 1530.92,-164.177 1525.3,-168.346"/>
</g>
<!-- Node2&#45;&gt;Node15 -->
<g id="edge102" class="edge"><title>Node2&#45;&gt;Node15</title>
<path fill="none" stroke="midnightblue" d="M1549.52,-164.804C1559.59,-138.966 1578.88,-93.3324 1602,-58 1610.89,-44.4082 1623.44,-30.6081 1632.31,-21.5102"/>
<polygon fill="midnightblue" stroke="midnightblue" points="1546.2,-163.688 1545.9,-174.278 1552.74,-166.187 1546.2,-163.688"/>
</g>
<!-- Node2&#45;&gt;Node16 -->
<g id="edge104" class="edge"><title>Node2&#45;&gt;Node16</title>
<path fill="none" stroke="midnightblue" d="M1594.56,-172.774C1678.23,-153.311 1832.98,-117.326 1839,-116 1915.7,-99.1127 1939.15,-109.327 2012,-80 2049.64,-64.8471 2088.73,-36.8904 2108.62,-21.6266"/>
<polygon fill="midnightblue" stroke="midnightblue" points="1593.67,-169.387 1584.72,-175.062 1595.25,-176.205 1593.67,-169.387"/>
</g>
<!-- Node2&#45;&gt;Node17 -->
<g id="edge106" class="edge"><title>Node2&#45;&gt;Node17</title>
<path fill="none" stroke="midnightblue" d="M1595.08,-182.677C1665.48,-178.541 1793.07,-167.366 1898,-138 1921.38,-131.457 1924.72,-122.877 1948,-116 1962.2,-111.807 2378.57,-45.8221 2537.85,-20.6523"/>
<polygon fill="midnightblue" stroke="midnightblue" points="1594.49,-179.204 1584.7,-183.26 1594.88,-186.193 1594.49,-179.204"/>
</g>
<!-- Node2&#45;&gt;Node19 -->
<g id="edge108" class="edge"><title>Node2&#45;&gt;Node19</title>
<path fill="none" stroke="midnightblue" d="M1594.56,-177.722C1648.33,-169.801 1734.09,-155.844 1807,-138 1838.68,-130.247 1845.46,-124.276 1877,-116 1951.7,-96.3995 1972.36,-99.8258 2047,-80 2114.06,-62.1879 2191.17,-36.0217 2232.37,-21.5684"/>
<polygon fill="midnightblue" stroke="midnightblue" points="1593.97,-174.272 1584.58,-179.178 1594.98,-181.199 1593.97,-174.272"/>
</g>
<!-- Node2&#45;&gt;Node20 -->
<g id="edge110" class="edge"><title>Node2&#45;&gt;Node20</title>
<path fill="none" stroke="midnightblue" d="M1514.15,-169.46C1458.53,-138.683 1335.08,-71.7525 1289,-58 1155.24,-18.0779 1115.63,-38.2859 977,-22 974.284,-21.6809 971.523,-21.3558 968.735,-21.0267"/>
<polygon fill="midnightblue" stroke="midnightblue" points="1512.66,-172.632 1523.1,-174.422 1516.05,-166.51 1512.66,-172.632"/>
</g>
<!-- Node21 -->
<g id="node45" class="node"><title>Node21</title>
<a xlink:href="../../d5/d8d/ChiOneD_8hpp.xhtml" target="_top" xlink:title="This class calculates a simple &#160;of a intensity and a dataset.">
<polygon fill="white" stroke="black" points="1611,-58.5 1611,-79.5 1775,-79.5 1775,-58.5 1611,-58.5"/>
<text text-anchor="middle" x="1693" y="-66.5" font-family="Helvetica,sans-Serif" font-size="10.00">Estimator/ChiOneD/ChiOneD.hpp</text>
</a>
</g>
<!-- Node2&#45;&gt;Node21 -->
<g id="edge90" class="edge"><title>Node2&#45;&gt;Node21</title>
<path fill="none" stroke="midnightblue" d="M1564.12,-168.006C1595.71,-143.736 1652.83,-99.8584 1679.1,-79.6792"/>
<polygon fill="midnightblue" stroke="midnightblue" points="1561.73,-165.427 1555.94,-174.295 1566,-170.978 1561.73,-165.427"/>
</g>
<!-- Node23 -->
<g id="node51" class="node"><title>Node23</title>
<a xlink:href="../../d7/de4/MinLogLH_8hpp.xhtml" target="_top" xlink:title="This class calculates a simple &#45;log(LH) of a intensity and a dataset.">
<polygon fill="white" stroke="black" points="1831,-58.5 1831,-79.5 2003,-79.5 2003,-58.5 1831,-58.5"/>
<text text-anchor="middle" x="1917" y="-66.5" font-family="Helvetica,sans-Serif" font-size="10.00">Estimator/MinLogLH/MinLogLH.hpp</text>
</a>
</g>
<!-- Node2&#45;&gt;Node23 -->
<g id="edge92" class="edge"><title>Node2&#45;&gt;Node23</title>
<path fill="none" stroke="midnightblue" d="M1585.98,-171.396C1661.62,-147.999 1814.77,-100.623 1882.94,-79.5352"/>
<polygon fill="midnightblue" stroke="midnightblue" points="1584.79,-168.099 1576.27,-174.398 1586.86,-174.787 1584.79,-168.099"/>
</g>
<!-- Node2&#45;&gt;Node24 -->
<g id="edge94" class="edge"><title>Node2&#45;&gt;Node24</title>
<path fill="none" stroke="midnightblue" d="M1594.61,-180.383C1657.33,-174.127 1764.98,-161.009 1855,-138 1882.52,-130.966 1887.65,-123.668 1915,-116 1994.39,-93.7392 2016.16,-96.2699 2097,-80 2198.58,-59.5551 2317.26,-35.1292 2383.21,-21.5094"/>
<polygon fill="midnightblue" stroke="midnightblue" points="1594.17,-176.908 1584.56,-181.364 1594.85,-183.875 1594.17,-176.908"/>
</g>
<!-- Node25 -->
<g id="node59" class="node"><title>Node25</title>
<a xlink:href="../../da/d67/SliceFit_8hpp.xhtml" target="_top" xlink:title="This class performs a Chi2&#45;Fit on slices along one axis of a dalitz&#45;plot.">
<polygon fill="white" stroke="black" points="614.5,-58.5 614.5,-79.5 763.5,-79.5 763.5,-58.5 614.5,-58.5"/>
<text text-anchor="middle" x="689" y="-66.5" font-family="Helvetica,sans-Serif" font-size="10.00">Estimator/SliceFit/SliceFit.hpp</text>
</a>
</g>
<!-- Node2&#45;&gt;Node25 -->
<g id="edge96" class="edge"><title>Node2&#45;&gt;Node25</title>
<path fill="none" stroke="midnightblue" d="M1489.53,-180.166C1408.42,-172.491 1247.76,-156.479 1112,-138 981.317,-120.212 828.815,-93.9781 747.358,-79.5213"/>
<polygon fill="midnightblue" stroke="midnightblue" points="1489.21,-183.651 1499.49,-181.105 1489.86,-176.682 1489.21,-183.651"/>
</g>
<!-- Node2&#45;&gt;Node26 -->
<g id="edge98" class="edge"><title>Node2&#45;&gt;Node26</title>
<path fill="none" stroke="midnightblue" d="M1489.3,-184.772C1298.68,-183.632 645.627,-176.91 441,-138 306.211,-112.37 153.808,-47.2362 96.9675,-21.5992"/>
<polygon fill="midnightblue" stroke="midnightblue" points="1489.32,-188.272 1499.34,-184.829 1489.36,-181.272 1489.32,-188.272"/>
</g>
<!-- Node2&#45;&gt;Node27 -->
<g id="edge72" class="edge"><title>Node2&#45;&gt;Node27</title>
<path fill="none" stroke="midnightblue" d="M1594.96,-180.109C1671.86,-172.708 1818.82,-157.444 1943,-138 1947.31,-137.326 1951.79,-136.558 1956.26,-135.749"/>
<polygon fill="midnightblue" stroke="midnightblue" points="1594.21,-176.665 1584.58,-181.1 1594.87,-183.633 1594.21,-176.665"/>
</g>
<!-- Node28 -->
<g id="node65" class="node"><title>Node28</title>
<a xlink:href="../../df/d33/Generator_8hpp.xhtml" target="_top" xlink:title="Core/Generator.hpp">
<polygon fill="white" stroke="black" points="619,-116.5 619,-137.5 721,-137.5 721,-116.5 619,-116.5"/>
<text text-anchor="middle" x="670" y="-124.5" font-family="Helvetica,sans-Serif" font-size="10.00">Core/Generator.hpp</text>
</a>
</g>
<!-- Node2&#45;&gt;Node28 -->
<g id="edge74" class="edge"><title>Node2&#45;&gt;Node28</title>
<path fill="none" stroke="midnightblue" d="M1489.16,-181.74C1369.61,-174.327 1069.21,-155.489 818,-138 785.743,-135.754 749.544,-133.067 721.02,-130.91"/>
<polygon fill="midnightblue" stroke="midnightblue" points="1488.95,-185.234 1499.15,-182.359 1489.38,-178.247 1488.95,-185.234"/>
</g>
<!-- Node2&#45;&gt;Node29 -->
<g id="edge100" class="edge"><title>Node2&#45;&gt;Node29</title>
<path fill="none" stroke="midnightblue" d="M1489.11,-183.489C1304.51,-178.054 695.326,-158.723 610,-138 558.464,-125.483 502.936,-95.6024 475.458,-79.5788"/>
<polygon fill="midnightblue" stroke="midnightblue" points="1489.28,-186.995 1499.38,-183.789 1489.49,-179.998 1489.28,-186.995"/>
</g>
<!-- Node4 -->
<g id="node7" class="node"><title>Node4</title>
<a xlink:href="../../dc/d53/Dictionary_8cpp.xhtml" target="_top" xlink:title="Core/Dictionary.cpp">
<polygon fill="white" stroke="black" points="680,-0.5 680,-21.5 784,-21.5 784,-0.5 680,-0.5"/>
<text text-anchor="middle" x="732" y="-8.5" font-family="Helvetica,sans-Serif" font-size="10.00">Core/Dictionary.cpp</text>
</a>
</g>
<!-- Node3&#45;&gt;Node4 -->
<g id="edge6" class="edge"><title>Node3&#45;&gt;Node4</title>
<path fill="none" stroke="midnightblue" d="M1251.41,-109.71C1268.6,-94.9782 1286.61,-73.754 1272,-58 1235.7,-18.8714 845.944,-28.7449 793,-22 790.118,-21.6328 787.165,-21.2207 784.189,-20.7773"/>
<polygon fill="midnightblue" stroke="midnightblue" points="1248.76,-107.355 1243.19,-116.367 1253.16,-112.796 1248.76,-107.355"/>
</g>
<!-- Node5 -->
<g id="node9" class="node"><title>Node5</title>
<a xlink:href="../../d5/dc2/Dictionary_8hpp.xhtml" target="_top" xlink:title="This class gathers information from modules, namely what they need as input and what they provide as ...">
<polygon fill="white" stroke="black" points="1159,-58.5 1159,-79.5 1263,-79.5 1263,-58.5 1159,-58.5"/>
<text text-anchor="middle" x="1211" y="-66.5" font-family="Helvetica,sans-Serif" font-size="10.00">Core/Dictionary.hpp</text>
</a>
</g>
<!-- Node3&#45;&gt;Node5 -->
<g id="edge8" class="edge"><title>Node3&#45;&gt;Node5</title>
<path fill="none" stroke="midnightblue" d="M1221.99,-106.488C1219.32,-97.3924 1216.3,-87.0756 1214.1,-79.5707"/>
<polygon fill="midnightblue" stroke="midnightblue" points="1218.71,-107.75 1224.88,-116.362 1225.43,-105.781 1218.71,-107.75"/>
</g>
<!-- Node3&#45;&gt;Node6 -->
<g id="edge12" class="edge"><title>Node3&#45;&gt;Node6</title>
<path fill="none" stroke="midnightblue" d="M1161.64,-122.867C1060.71,-116.02 873.617,-100.968 810,-80 791.466,-73.8912 790.646,-63.7596 772,-58 566.327,5.53126 502.72,-47.7209 289,-22 286.232,-21.6669 283.403,-21.2995 280.549,-20.9073"/>
<polygon fill="midnightblue" stroke="midnightblue" points="1161.52,-126.367 1171.73,-123.544 1161.98,-119.382 1161.52,-126.367"/>
</g>
<!-- Node7 -->
<g id="node14" class="node"><title>Node7</title>
<a xlink:href="../../db/d41/RunManager_8hpp.xhtml" target="_top" xlink:title="This class provides a RunManager for simple fits.">
<polygon fill="white" stroke="black" points="818.5,-58.5 818.5,-79.5 933.5,-79.5 933.5,-58.5 818.5,-58.5"/>
<text text-anchor="middle" x="876" y="-66.5" font-family="Helvetica,sans-Serif" font-size="10.00">Core/RunManager.hpp</text>
</a>
</g>
<!-- Node3&#45;&gt;Node7 -->
<g id="edge14" class="edge"><title>Node3&#45;&gt;Node7</title>
<path fill="none" stroke="midnightblue" d="M1161.7,-116.149C1103.73,-106.65 1017.28,-92.4592 942,-80 939.249,-79.5448 936.435,-79.0782 933.592,-78.6065"/>
<polygon fill="midnightblue" stroke="midnightblue" points="1161.39,-119.644 1171.83,-117.807 1162.52,-112.737 1161.39,-119.644"/>
</g>
<!-- Node3&#45;&gt;Node10 -->
<g id="edge22" class="edge"><title>Node3&#45;&gt;Node10</title>
<path fill="none" stroke="midnightblue" d="M1185.36,-113.413C1152.89,-103.065 1108.84,-89.0258 1079.02,-79.5231"/>
<polygon fill="midnightblue" stroke="midnightblue" points="1184.45,-116.795 1195.04,-116.497 1186.58,-110.125 1184.45,-116.795"/>
</g>
<!-- Node3&#45;&gt;Node12 -->
<g id="edge26" class="edge"><title>Node3&#45;&gt;Node12</title>
<path fill="none" stroke="midnightblue" d="M1279.06,-114.011C1319.94,-103.611 1376.55,-89.2102 1414.63,-79.5231"/>
<polygon fill="midnightblue" stroke="midnightblue" points="1278.12,-110.639 1269.29,-116.497 1279.84,-117.423 1278.12,-110.639"/>
</g>
<!-- Node3&#45;&gt;Node21 -->
<g id="edge48" class="edge"><title>Node3&#45;&gt;Node21</title>
<path fill="none" stroke="midnightblue" d="M1294.2,-118.743C1377.53,-108.35 1520.65,-90.4971 1610.87,-79.2438"/>
<polygon fill="midnightblue" stroke="midnightblue" points="1293.58,-115.293 1284.09,-120.004 1294.45,-122.239 1293.58,-115.293"/>
</g>
<!-- Node3&#45;&gt;Node23 -->
<g id="edge56" class="edge"><title>Node3&#45;&gt;Node23</title>
<path fill="none" stroke="midnightblue" d="M1294.32,-121.418C1419.73,-110.86 1691.54,-87.9789 1830.87,-76.2508"/>
<polygon fill="midnightblue" stroke="midnightblue" points="1293.76,-117.952 1284.09,-122.278 1294.35,-124.927 1293.76,-117.952"/>
</g>
<!-- Node3&#45;&gt;Node25 -->
<g id="edge68" class="edge"><title>Node3&#45;&gt;Node25</title>
<path fill="none" stroke="midnightblue" d="M1161.6,-120.511C1073.61,-111.812 913.546,-95.6474 777,-80 772.717,-79.5092 768.318,-78.9942 763.88,-78.4661"/>
<polygon fill="midnightblue" stroke="midnightblue" points="1161.42,-124.009 1171.71,-121.508 1162.1,-117.043 1161.42,-124.009"/>
</g>
<!-- Node5&#45;&gt;Node4 -->
<g id="edge10" class="edge"><title>Node5&#45;&gt;Node4</title>
<path fill="none" stroke="midnightblue" d="M1148.7,-57.906C990.34,-36.1619 947.685,-43.7126 793,-22 790.123,-21.5961 787.174,-21.1551 784.2,-20.6892"/>
<polygon fill="midnightblue" stroke="midnightblue" points="1148.41,-61.3998 1158.8,-59.3108 1149.38,-54.4665 1148.41,-61.3998"/>
</g>
<!-- Node7&#45;&gt;Node6 -->
<g id="edge16" class="edge"><title>Node7&#45;&gt;Node6</title>
<path fill="none" stroke="midnightblue" d="M808.278,-58.3781C807.178,-58.2478 806.085,-58.1216 805,-58 576.541,-32.3789 517.308,-48.9276 289,-22 286.231,-21.6734 283.402,-21.3114 280.547,-20.9235"/>
<polygon fill="midnightblue" stroke="midnightblue" points="807.958,-61.8654 818.318,-59.6484 808.837,-54.9207 807.958,-61.8654"/>
</g>
<!-- Node8 -->
<g id="node17" class="node"><title>Node8</title>
<a xlink:href="../../db/d19/GenRunManagerApp_8cpp.xhtml" target="_top" xlink:title="test/GenRunManagerApp.cpp">
<polygon fill="white" stroke="black" points="298,-0.5 298,-21.5 444,-21.5 444,-0.5 298,-0.5"/>
<text text-anchor="middle" x="371" y="-8.5" font-family="Helvetica,sans-Serif" font-size="10.00">test/GenRunManagerApp.cpp</text>
</a>
</g>
<!-- Node7&#45;&gt;Node8 -->
<g id="edge18" class="edge"><title>Node7&#45;&gt;Node8</title>
<path fill="none" stroke="midnightblue" d="M808.273,-58.427C807.174,-58.2816 806.083,-58.1391 805,-58 649.022,-37.9548 609.174,-40.4566 453,-22 450.147,-21.6628 447.24,-21.3112 444.303,-20.9495"/>
<polygon fill="midnightblue" stroke="midnightblue" points="807.916,-61.9108 818.3,-59.8048 808.869,-54.976 807.916,-61.9108"/>
</g>
<!-- Node9 -->
<g id="node19" class="node"><title>Node9</title>
<a xlink:href="../../dd/d77/RunManagerTestApp_8cpp.xhtml" target="_top" xlink:title="Test&#45;Application for fit with simple modules using RunManager.">
<polygon fill="white" stroke="black" points="1405.5,-0.5 1405.5,-21.5 1552.5,-21.5 1552.5,-0.5 1405.5,-0.5"/>
<text text-anchor="middle" x="1479" y="-8.5" font-family="Helvetica,sans-Serif" font-size="10.00">test/RunManagerTestApp.cpp</text>
</a>
</g>
<!-- Node7&#45;&gt;Node9 -->
<g id="edge20" class="edge"><title>Node7&#45;&gt;Node9</title>
<path fill="none" stroke="midnightblue" d="M943.57,-57.8885C1145.06,-33.6227 1198.54,-43.1469 1397,-22 1399.71,-21.7108 1402.48,-21.404 1405.27,-21.0837"/>
<polygon fill="midnightblue" stroke="midnightblue" points="943.054,-54.4254 933.551,-59.1082 943.9,-61.3741 943.054,-54.4254"/>
</g>
<!-- Node11 -->
<g id="node23" class="node"><title>Node11</title>
<a xlink:href="../../d6/d94/AsciiReader_8cpp.xhtml" target="_top" xlink:title="DataReader/AsciiReader/AsciiReader.cpp">
<polygon fill="white" stroke="black" points="462,-0.5 462,-21.5 662,-21.5 662,-0.5 462,-0.5"/>
<text text-anchor="middle" x="562" y="-8.5" font-family="Helvetica,sans-Serif" font-size="10.00">DataReader/AsciiReader/AsciiReader.cpp</text>
</a>
</g>
<!-- Node10&#45;&gt;Node11 -->
<g id="edge24" class="edge"><title>Node10&#45;&gt;Node11</title>
<path fill="none" stroke="midnightblue" d="M948.164,-57.2759C860.798,-46.8063 733.983,-31.6095 649.813,-21.5231"/>
<polygon fill="midnightblue" stroke="midnightblue" points="948.006,-60.7819 958.351,-58.4966 948.839,-53.8316 948.006,-60.7819"/>
</g>
<!-- Node12&#45;&gt;Node8 -->
<g id="edge40" class="edge"><title>Node12&#45;&gt;Node8</title>
<path fill="none" stroke="midnightblue" d="M1346.21,-62.152C1321.79,-60.7078 1296.02,-59.2456 1272,-58 908.138,-39.1279 815.921,-54.2535 453,-22 450.139,-21.7457 447.224,-21.464 444.281,-21.1607"/>
<polygon fill="midnightblue" stroke="midnightblue" points="1346.03,-65.6475 1356.23,-62.7473 1346.45,-58.6598 1346.03,-65.6475"/>
</g>
<!-- Node12&#45;&gt;Node9 -->
<g id="edge46" class="edge"><title>Node12&#45;&gt;Node9</title>
<path fill="none" stroke="midnightblue" d="M1464.02,-48.7838C1467.65,-39.617 1471.8,-29.1572 1474.81,-21.5707"/>
<polygon fill="midnightblue" stroke="midnightblue" points="1460.65,-47.7759 1460.22,-58.3619 1467.16,-50.3563 1460.65,-47.7759"/>
</g>
<!-- Node13 -->
<g id="node27" class="node"><title>Node13</title>
<a xlink:href="../../d4/d85/DataTest_8cpp.xhtml" target="_top" xlink:title="DataReader/RootReader/DataTest.cpp">
<polygon fill="white" stroke="black" points="985.5,-0.5 985.5,-21.5 1172.5,-21.5 1172.5,-0.5 985.5,-0.5"/>
<text text-anchor="middle" x="1079" y="-8.5" font-family="Helvetica,sans-Serif" font-size="10.00">DataReader/RootReader/DataTest.cpp</text>
</a>
</g>
<!-- Node12&#45;&gt;Node13 -->
<g id="edge28" class="edge"><title>Node12&#45;&gt;Node13</title>
<path fill="none" stroke="midnightblue" d="M1377.5,-56.9234C1309.54,-46.4675 1212.23,-31.4969 1147.4,-21.5231"/>
<polygon fill="midnightblue" stroke="midnightblue" points="1377.31,-60.4353 1387.73,-58.4966 1378.38,-53.5167 1377.31,-60.4353"/>
</g>
<!-- Node14 -->
<g id="node29" class="node"><title>Node14</title>
<a xlink:href="../../df/d44/RootReader_8cpp.xhtml" target="_top" xlink:title="DataReader/RootReader/RootReader.cpp">
<polygon fill="white" stroke="black" points="1189.5,-0.5 1189.5,-21.5 1388.5,-21.5 1388.5,-0.5 1189.5,-0.5"/>
<text text-anchor="middle" x="1289" y="-8.5" font-family="Helvetica,sans-Serif" font-size="10.00">DataReader/RootReader/RootReader.cpp</text>
</a>
</g>
<!-- Node12&#45;&gt;Node14 -->
<g id="edge30" class="edge"><title>Node12&#45;&gt;Node14</title>
<path fill="none" stroke="midnightblue" d="M1416.11,-55.1443C1386.39,-44.8229 1346.42,-30.9439 1319.3,-21.5231"/>
<polygon fill="midnightblue" stroke="midnightblue" points="1415.16,-58.522 1425.76,-58.4966 1417.46,-51.9095 1415.16,-58.522"/>
</g>
<!-- Node12&#45;&gt;Node15 -->
<g id="edge32" class="edge"><title>Node12&#45;&gt;Node15</title>
<path fill="none" stroke="midnightblue" d="M1499.81,-55.4127C1533.17,-45.0646 1578.43,-31.0258 1609.07,-21.5231"/>
<polygon fill="midnightblue" stroke="midnightblue" points="1498.38,-52.1913 1489.86,-58.4966 1500.45,-58.8771 1498.38,-52.1913"/>
</g>
<!-- Node12&#45;&gt;Node16 -->
<g id="edge34" class="edge"><title>Node12&#45;&gt;Node16</title>
<path fill="none" stroke="midnightblue" d="M1565.6,-60.7283C1732.84,-48.068 2034.99,-25.0247 2059,-22 2061.75,-21.653 2064.57,-21.2689 2067.41,-20.8583"/>
<polygon fill="midnightblue" stroke="midnightblue" points="1565.23,-57.2462 1555.52,-61.491 1565.76,-64.2262 1565.23,-57.2462"/>
</g>
<!-- Node12&#45;&gt;Node17 -->
<g id="edge36" class="edge"><title>Node12&#45;&gt;Node17</title>
<path fill="none" stroke="midnightblue" d="M1565.91,-60.2879C1578.08,-59.4514 1590.3,-58.6676 1602,-58 2013.64,-34.5078 2118.64,-62.0717 2529,-22 2531.94,-21.7131 2534.94,-21.3832 2537.97,-21.0211"/>
<polygon fill="midnightblue" stroke="midnightblue" points="1565.44,-56.8121 1555.71,-61.0016 1565.93,-63.7951 1565.44,-56.8121"/>
</g>
<!-- Node12&#45;&gt;Node18 -->
<g id="edge38" class="edge"><title>Node12&#45;&gt;Node18</title>
<path fill="none" stroke="midnightblue" d="M1565.65,-58.8071C1657.06,-50.0135 1790.67,-36.4749 1907,-22 1909.91,-21.6379 1912.88,-21.2567 1915.88,-20.8625"/>
<polygon fill="midnightblue" stroke="midnightblue" points="1565.17,-55.3369 1555.55,-59.7758 1565.84,-62.305 1565.17,-55.3369"/>
</g>
<!-- Node12&#45;&gt;Node19 -->
<g id="edge42" class="edge"><title>Node12&#45;&gt;Node19</title>
<path fill="none" stroke="midnightblue" d="M1565.93,-60.5574C1578.1,-59.6705 1590.31,-58.8012 1602,-58 1861,-40.2476 1926.74,-48.378 2185,-22 2187.69,-21.7256 2190.42,-21.4269 2193.19,-21.1094"/>
<polygon fill="midnightblue" stroke="midnightblue" points="1565.45,-57.0833 1555.73,-61.3054 1565.96,-64.0645 1565.45,-57.0833"/>
</g>
<!-- Node12&#45;&gt;Node20 -->
<g id="edge44" class="edge"><title>Node12&#45;&gt;Node20</title>
<path fill="none" stroke="midnightblue" d="M1346.23,-58.2881C1210.51,-45.0363 995.095,-23.9693 977,-22 974.281,-21.7041 971.518,-21.3991 968.728,-21.0873"/>
<polygon fill="midnightblue" stroke="midnightblue" points="1345.97,-61.7795 1356.26,-59.2679 1346.65,-54.8126 1345.97,-61.7795"/>
</g>
<!-- Node21&#45;&gt;Node18 -->
<g id="edge52" class="edge"><title>Node21&#45;&gt;Node18</title>
<path fill="none" stroke="midnightblue" d="M1755.33,-56.5349C1807.5,-46.0994 1881.13,-31.374 1930.38,-21.5231"/>
<polygon fill="midnightblue" stroke="midnightblue" points="1754.64,-53.1034 1745.52,-58.4966 1756.01,-59.9674 1754.64,-53.1034"/>
</g>
<!-- Node21&#45;&gt;Node20 -->
<g id="edge54" class="edge"><title>Node21&#45;&gt;Node20</title>
<path fill="none" stroke="midnightblue" d="M1600.52,-60.8466C1588.25,-59.8426 1575.82,-58.8664 1564,-58 1303.32,-38.8949 1237.32,-45.5252 977,-22 974.276,-21.7539 971.509,-21.4919 968.715,-21.2173"/>
<polygon fill="midnightblue" stroke="midnightblue" points="1600.53,-64.3592 1610.79,-61.6948 1601.11,-57.383 1600.53,-64.3592"/>
</g>
<!-- Node22 -->
<g id="node47" class="node"><title>Node22</title>
<a xlink:href="../../d1/d9e/ChiOneD_8cpp.xhtml" target="_top" xlink:title="Estimator/ChiOneD/ChiOneD.cpp">
<polygon fill="white" stroke="black" points="1734,-0.5 1734,-21.5 1898,-21.5 1898,-0.5 1734,-0.5"/>
<text text-anchor="middle" x="1816" y="-8.5" font-family="Helvetica,sans-Serif" font-size="10.00">Estimator/ChiOneD/ChiOneD.cpp</text>
</a>
</g>
<!-- Node21&#45;&gt;Node22 -->
<g id="edge50" class="edge"><title>Node21&#45;&gt;Node22</title>
<path fill="none" stroke="midnightblue" d="M1724.37,-54.2064C1745.95,-44.031 1774.1,-30.7567 1793.48,-21.6212"/>
<polygon fill="midnightblue" stroke="midnightblue" points="1722.83,-51.0658 1715.27,-58.4966 1725.81,-57.3972 1722.83,-51.0658"/>
</g>
<!-- Node23&#45;&gt;Node9 -->
<g id="edge66" class="edge"><title>Node23&#45;&gt;Node9</title>
<path fill="none" stroke="midnightblue" d="M1826.81,-57.1462C1754.84,-47.674 1651.45,-34.0374 1561,-22 1558.29,-21.64 1555.54,-21.2728 1552.76,-20.9015"/>
<polygon fill="midnightblue" stroke="midnightblue" points="1826.38,-60.6199 1836.76,-58.4546 1827.3,-53.6797 1826.38,-60.6199"/>
</g>
<!-- Node23&#45;&gt;Node16 -->
<g id="edge60" class="edge"><title>Node23&#45;&gt;Node16</title>
<path fill="none" stroke="midnightblue" d="M1964.08,-55.6795C2000.74,-45.307 2050.93,-31.1078 2084.81,-21.5231"/>
<polygon fill="midnightblue" stroke="midnightblue" points="1962.79,-52.4064 1954.12,-58.4966 1964.7,-59.142 1962.79,-52.4064"/>
</g>
<!-- Node23&#45;&gt;Node18 -->
<g id="edge62" class="edge"><title>Node23&#45;&gt;Node18</title>
<path fill="none" stroke="midnightblue" d="M1936.7,-51.6908C1947.84,-41.8996 1961.41,-29.973 1970.97,-21.5707"/>
<polygon fill="midnightblue" stroke="midnightblue" points="1934.31,-49.1316 1929.11,-58.3619 1938.93,-54.3898 1934.31,-49.1316"/>
</g>
<!-- Node23&#45;&gt;Node19 -->
<g id="edge64" class="edge"><title>Node23&#45;&gt;Node19</title>
<path fill="none" stroke="midnightblue" d="M1989.6,-56.7943C2051.76,-46.3447 2140.32,-31.4559 2199.41,-21.5231"/>
<polygon fill="midnightblue" stroke="midnightblue" points="1988.76,-53.3871 1979.48,-58.4966 1989.92,-60.2902 1988.76,-53.3871"/>
</g>
<!-- Node23&#45;&gt;Node24 -->
<g id="edge58" class="edge"><title>Node23&#45;&gt;Node24</title>
<path fill="none" stroke="midnightblue" d="M2013.04,-58.4239C2098.58,-48.9753 2227.15,-34.704 2339,-22 2341.89,-21.6721 2344.82,-21.3376 2347.79,-20.999"/>
<polygon fill="midnightblue" stroke="midnightblue" points="2012.64,-54.9466 2003.09,-59.5231 2013.41,-61.9043 2012.64,-54.9466"/>
</g>
<!-- Node25&#45;&gt;Node26 -->
<g id="edge70" class="edge"><title>Node25&#45;&gt;Node26</title>
<path fill="none" stroke="midnightblue" d="M604.289,-61.2633C592.112,-60.1615 579.736,-59.0474 568,-58 385.36,-41.6994 339.267,-42.0504 157,-22 154.255,-21.698 151.46,-21.3803 148.638,-21.0507"/>
<polygon fill="midnightblue" stroke="midnightblue" points="604.177,-64.7674 614.452,-62.1841 604.809,-57.796 604.177,-64.7674"/>
</g>
<!-- Node28&#45;&gt;Node6 -->
<g id="edge76" class="edge"><title>Node28&#45;&gt;Node6</title>
<path fill="none" stroke="midnightblue" d="M648.158,-110.453C623.555,-92.1398 584.815,-64.3588 568,-58 451.055,-13.7756 412.684,-40.2803 289,-22 286.242,-21.5924 283.421,-21.1645 280.573,-20.7238"/>
<polygon fill="midnightblue" stroke="midnightblue" points="646.11,-113.292 656.212,-116.486 650.306,-107.689 646.11,-113.292"/>
</g>
<!-- Node28&#45;&gt;Node7 -->
<g id="edge78" class="edge"><title>Node28&#45;&gt;Node7</title>
<path fill="none" stroke="midnightblue" d="M717.311,-113.68C754.151,-103.307 804.583,-89.1078 838.625,-79.5231"/>
<polygon fill="midnightblue" stroke="midnightblue" points="715.982,-110.417 707.305,-116.497 717.879,-117.155 715.982,-110.417"/>
</g>
<!-- Node28&#45;&gt;Node29 -->
<g id="edge80" class="edge"><title>Node28&#45;&gt;Node29</title>
<path fill="none" stroke="midnightblue" d="M621.797,-113.812C583.842,-103.428 531.647,-89.1487 496.464,-79.5231"/>
<polygon fill="midnightblue" stroke="midnightblue" points="621.039,-117.234 631.608,-116.497 622.886,-110.482 621.039,-117.234"/>
</g>
<!-- Node29&#45;&gt;Node8 -->
<g id="edge82" class="edge"><title>Node29&#45;&gt;Node8</title>
<path fill="none" stroke="midnightblue" d="M433.311,-52.5407C418.396,-42.5973 399.827,-30.2177 386.856,-21.5707"/>
<polygon fill="midnightblue" stroke="midnightblue" points="431.781,-55.727 442.043,-58.3619 435.664,-49.9027 431.781,-55.727"/>
</g>
</g>
</svg>
