<?xml version="1.0" encoding="UTF-8" standalone="no"?>
<!DOCTYPE svg PUBLIC "-//W3C//DTD SVG 1.1//EN"
 "http://www.w3.org/Graphics/SVG/1.1/DTD/svg11.dtd">
<!-- Generated by graphviz version 2.36.0 (20140111.2315)
 -->
<!-- Title: /home/travis/build/ComPWA/ComPWA/Core/Particle.hpp Pages: 1 -->
<svg width="3113pt" height="320pt"
 viewBox="0.00 0.00 3113.37 320.00" xmlns="http://www.w3.org/2000/svg" xmlns:xlink="http://www.w3.org/1999/xlink">
<g id="graph0" class="graph" transform="scale(1 1) rotate(0) translate(4 316)">
<title>/home/travis/build/ComPWA/ComPWA/Core/Particle.hpp</title>
<polygon fill="white" stroke="none" points="-4,4 -4,-316 3109.37,-316 3109.37,4 -4,4"/>
<!-- Node1 -->
<g id="node1" class="node"><title>Node1</title>
<polygon fill="#bfbfbf" stroke="black" points="1518.87,-270.5 1518.87,-311.5 1653.87,-311.5 1653.87,-270.5 1518.87,-270.5"/>
<text text-anchor="start" x="1526.87" y="-299.5" font-family="Helvetica,sans-Serif" font-size="10.00">/home/travis/build</text>
<text text-anchor="start" x="1526.87" y="-288.5" font-family="Helvetica,sans-Serif" font-size="10.00">/ComPWA/ComPWA/Core</text>
<text text-anchor="middle" x="1586.37" y="-277.5" font-family="Helvetica,sans-Serif" font-size="10.00">/Particle.hpp</text>
</g>
<!-- Node2 -->
<g id="node2" class="node"><title>Node2</title>
<g id="a_node2"><a xlink:href="../../d7/d9f/Event_8cpp.html" target="_top" xlink:title="/home/travis/build\l/ComPWA/ComPWA/Core\l/Event.cpp">
<polygon fill="white" stroke="black" points="20.8749,-96.5 20.8749,-137.5 155.875,-137.5 155.875,-96.5 20.8749,-96.5"/>
<text text-anchor="start" x="28.8749" y="-125.5" font-family="Helvetica,sans-Serif" font-size="10.00">/home/travis/build</text>
<text text-anchor="start" x="28.8749" y="-114.5" font-family="Helvetica,sans-Serif" font-size="10.00">/ComPWA/ComPWA/Core</text>
<text text-anchor="middle" x="88.3749" y="-103.5" font-family="Helvetica,sans-Serif" font-size="10.00">/Event.cpp</text>
</a>
</g>
</g>
<!-- Node1&#45;&gt;Node2 -->
<g id="edge1" class="edge"><title>Node1&#45;&gt;Node2</title>
<path fill="none" stroke="midnightblue" d="M1508.22,-289.545C1278.38,-287.701 607.419,-278.542 393.375,-234 294.095,-213.34 184.535,-164.859 127.61,-137.563"/>
<polygon fill="midnightblue" stroke="midnightblue" points="1508.47,-293.047 1518.5,-289.625 1508.53,-286.048 1508.47,-293.047"/>
</g>
<!-- Node3 -->
<g id="node3" class="node"><title>Node3</title>
<g id="a_node3"><a xlink:href="../../df/d7d/Event_8hpp.html" target="_top" xlink:title="This class provides a internal container for event&#45;based information. ">
<polygon fill="white" stroke="red" points="1365.87,-186.5 1365.87,-227.5 1500.87,-227.5 1500.87,-186.5 1365.87,-186.5"/>
<text text-anchor="start" x="1373.87" y="-215.5" font-family="Helvetica,sans-Serif" font-size="10.00">/home/travis/build</text>
<text text-anchor="start" x="1373.87" y="-204.5" font-family="Helvetica,sans-Serif" font-size="10.00">/ComPWA/ComPWA/Core</text>
<text text-anchor="middle" x="1433.37" y="-193.5" font-family="Helvetica,sans-Serif" font-size="10.00">/Event.hpp</text>
</a>
</g>
</g>
<!-- Node1&#45;&gt;Node3 -->
<g id="edge2" class="edge"><title>Node1&#45;&gt;Node3</title>
<path fill="none" stroke="midnightblue" d="M1540.66,-265.501C1518.08,-253.396 1491.19,-238.988 1469.99,-227.623"/>
<polygon fill="midnightblue" stroke="midnightblue" points="1539.26,-268.72 1549.73,-270.359 1542.57,-262.55 1539.26,-268.72"/>
</g>
<!-- Node4 -->
<g id="node4" class="node"><title>Node4</title>
<g id="a_node4"><a xlink:href="../../de/d8e/MinLogLH_8cpp.html" target="_top" xlink:title="/home/travis/build\l/ComPWA/ComPWA/Estimator\l/MinLogLH/MinLogLH.cpp">
<polygon fill="white" stroke="black" points="174.375,-96.5 174.375,-137.5 330.375,-137.5 330.375,-96.5 174.375,-96.5"/>
<text text-anchor="start" x="182.375" y="-125.5" font-family="Helvetica,sans-Serif" font-size="10.00">/home/travis/build</text>
<text text-anchor="start" x="182.375" y="-114.5" font-family="Helvetica,sans-Serif" font-size="10.00">/ComPWA/ComPWA/Estimator</text>
<text text-anchor="middle" x="252.375" y="-103.5" font-family="Helvetica,sans-Serif" font-size="10.00">/MinLogLH/MinLogLH.cpp</text>
</a>
</g>
</g>
<!-- Node1&#45;&gt;Node4 -->
<g id="edge24" class="edge"><title>Node1&#45;&gt;Node4</title>
<path fill="none" stroke="midnightblue" d="M1508.69,-288.597C1304.03,-284.439 753.587,-270.137 575.375,-234 470.994,-212.834 354.904,-164.671 294.346,-137.531"/>
<polygon fill="midnightblue" stroke="midnightblue" points="1508.68,-292.098 1518.75,-288.799 1508.82,-285.099 1508.68,-292.098"/>
</g>
<!-- Node5 -->
<g id="node5" class="node"><title>Node5</title>
<g id="a_node5"><a xlink:href="../../d2/d9b/SliceFit_8cpp.html" target="_top" xlink:title="/home/travis/build\l/ComPWA/ComPWA/Estimator\l/SliceFit/SliceFit.cpp">
<polygon fill="white" stroke="black" points="348.375,-96.5 348.375,-137.5 504.375,-137.5 504.375,-96.5 348.375,-96.5"/>
<text text-anchor="start" x="356.375" y="-125.5" font-family="Helvetica,sans-Serif" font-size="10.00">/home/travis/build</text>
<text text-anchor="start" x="356.375" y="-114.5" font-family="Helvetica,sans-Serif" font-size="10.00">/ComPWA/ComPWA/Estimator</text>
<text text-anchor="middle" x="426.375" y="-103.5" font-family="Helvetica,sans-Serif" font-size="10.00">/SliceFit/SliceFit.cpp</text>
</a>
</g>
</g>
<!-- Node1&#45;&gt;Node5 -->
<g id="edge25" class="edge"><title>Node1&#45;&gt;Node5</title>
<path fill="none" stroke="midnightblue" d="M1508.71,-287.576C1329.68,-281.54 892.315,-264.116 748.375,-234 644.704,-212.309 529.291,-164.586 468.75,-137.598"/>
<polygon fill="midnightblue" stroke="midnightblue" points="1508.73,-291.078 1518.84,-287.915 1508.97,-284.082 1508.73,-291.078"/>
</g>
<!-- Node6 -->
<g id="node6" class="node"><title>Node6</title>
<g id="a_node6"><a xlink:href="../../de/dd0/SliceFitUB_8cpp.html" target="_top" xlink:title="/home/travis/build\l/ComPWA/ComPWA/Estimator\l/SliceFitUB/SliceFitUB.cpp">
<polygon fill="white" stroke="black" points="522.375,-96.5 522.375,-137.5 678.375,-137.5 678.375,-96.5 522.375,-96.5"/>
<text text-anchor="start" x="530.375" y="-125.5" font-family="Helvetica,sans-Serif" font-size="10.00">/home/travis/build</text>
<text text-anchor="start" x="530.375" y="-114.5" font-family="Helvetica,sans-Serif" font-size="10.00">/ComPWA/ComPWA/Estimator</text>
<text text-anchor="middle" x="600.375" y="-103.5" font-family="Helvetica,sans-Serif" font-size="10.00">/SliceFitUB/SliceFitUB.cpp</text>
</a>
</g>
</g>
<!-- Node1&#45;&gt;Node6 -->
<g id="edge26" class="edge"><title>Node1&#45;&gt;Node6</title>
<path fill="none" stroke="midnightblue" d="M1508.6,-290.065C1383.28,-288.703 1129.56,-279.862 920.375,-234 817.774,-211.506 703.379,-164.325 643.033,-137.583"/>
<polygon fill="midnightblue" stroke="midnightblue" points="1508.83,-293.568 1518.86,-290.163 1508.89,-286.568 1508.83,-293.568"/>
</g>
<!-- Node7 -->
<g id="node7" class="node"><title>Node7</title>
<g id="a_node7"><a xlink:href="../../db/d7b/DalitzFitD03K_8cpp.html" target="_top" xlink:title="/home/travis/build\l/ComPWA/ComPWA/Examples\l/DalitzAnalysis_D0KsKK\l/DalitzFitD03K.cpp">
<polygon fill="white" stroke="black" points="1236.37,-1 1236.37,-53 1394.37,-53 1394.37,-1 1236.37,-1"/>
<text text-anchor="start" x="1244.37" y="-41" font-family="Helvetica,sans-Serif" font-size="10.00">/home/travis/build</text>
<text text-anchor="start" x="1244.37" y="-30" font-family="Helvetica,sans-Serif" font-size="10.00">/ComPWA/ComPWA/Examples</text>
<text text-anchor="start" x="1244.37" y="-19" font-family="Helvetica,sans-Serif" font-size="10.00">/DalitzAnalysis_D0KsKK</text>
<text text-anchor="middle" x="1315.37" y="-8" font-family="Helvetica,sans-Serif" font-size="10.00">/DalitzFitD03K.cpp</text>
</a>
</g>
</g>
<!-- Node1&#45;&gt;Node7 -->
<g id="edge28" class="edge"><title>Node1&#45;&gt;Node7</title>
<path fill="none" stroke="midnightblue" d="M1508.31,-290.503C1256.68,-291.545 468.913,-290.121 221.375,-234 122.344,-211.548 67.2737,-228.773 11.3749,-144 -1.83693,-123.964 -5.18782,-107.369 11.3749,-90 53.7766,-45.5343 960.208,-31.9114 1236.28,-28.786"/>
<polygon fill="midnightblue" stroke="midnightblue" points="1508.48,-294.003 1518.46,-290.459 1508.45,-287.003 1508.48,-294.003"/>
</g>
<!-- Node8 -->
<g id="node8" class="node"><title>Node8</title>
<g id="a_node8"><a xlink:href="../../d8/d43/PlotData_8hpp.html" target="_top" xlink:title="/home/travis/build\l/ComPWA/ComPWA/Examples\l/DalitzAnalysis_D0KsKK\l/PlotData.hpp">
<polygon fill="white" stroke="red" points="1236.37,-91 1236.37,-143 1394.37,-143 1394.37,-91 1236.37,-91"/>
<text text-anchor="start" x="1244.37" y="-131" font-family="Helvetica,sans-Serif" font-size="10.00">/home/travis/build</text>
<text text-anchor="start" x="1244.37" y="-120" font-family="Helvetica,sans-Serif" font-size="10.00">/ComPWA/ComPWA/Examples</text>
<text text-anchor="start" x="1244.37" y="-109" font-family="Helvetica,sans-Serif" font-size="10.00">/DalitzAnalysis_D0KsKK</text>
<text text-anchor="middle" x="1315.37" y="-98" font-family="Helvetica,sans-Serif" font-size="10.00">/PlotData.hpp</text>
</a>
</g>
</g>
<!-- Node1&#45;&gt;Node8 -->
<g id="edge29" class="edge"><title>Node1&#45;&gt;Node8</title>
<path fill="none" stroke="midnightblue" d="M1508.62,-279.145C1450.99,-269.648 1378.74,-254.212 1356.37,-234 1330.39,-210.511 1320.87,-169.511 1317.39,-143.075"/>
<polygon fill="midnightblue" stroke="midnightblue" points="1508.4,-282.654 1518.83,-280.791 1509.51,-275.743 1508.4,-282.654"/>
</g>
<!-- Node9 -->
<g id="node9" class="node"><title>Node9</title>
<g id="a_node9"><a xlink:href="../../d4/d8c/DalitzDataPlotterApp_8cpp.html" target="_top" xlink:title="Plotter for three particle final states. ">
<polygon fill="white" stroke="black" points="696.375,-96.5 696.375,-137.5 866.375,-137.5 866.375,-96.5 696.375,-96.5"/>
<text text-anchor="start" x="704.375" y="-125.5" font-family="Helvetica,sans-Serif" font-size="10.00">/home/travis/build</text>
<text text-anchor="start" x="704.375" y="-114.5" font-family="Helvetica,sans-Serif" font-size="10.00">/ComPWA/ComPWA/Examples</text>
<text text-anchor="middle" x="781.375" y="-103.5" font-family="Helvetica,sans-Serif" font-size="10.00">/DalitzFit/DalitzDataPlotterApp.cpp</text>
</a>
</g>
</g>
<!-- Node1&#45;&gt;Node9 -->
<g id="edge30" class="edge"><title>Node1&#45;&gt;Node9</title>
<path fill="none" stroke="midnightblue" d="M1508.81,-287.606C1408.74,-283.111 1229.87,-270.293 1081.37,-234 985.362,-210.535 878.704,-164.064 822.019,-137.618"/>
<polygon fill="midnightblue" stroke="midnightblue" points="1508.69,-291.104 1518.84,-288.04 1509,-284.111 1508.69,-291.104"/>
</g>
<!-- Node10 -->
<g id="node10" class="node"><title>Node10</title>
<g id="a_node10"><a xlink:href="../../da/d2a/DalitzFitApp_8cpp.html" target="_top" xlink:title="Dalitz plot analysis of the decay D0&#45;&gt;K_S0 K_ K&#45;Fit application for D0&#45;&gt;K_S0 K_ K&#45; analysis...">
<polygon fill="white" stroke="black" points="884.375,-96.5 884.375,-137.5 1042.37,-137.5 1042.37,-96.5 884.375,-96.5"/>
<text text-anchor="start" x="892.375" y="-125.5" font-family="Helvetica,sans-Serif" font-size="10.00">/home/travis/build</text>
<text text-anchor="start" x="892.375" y="-114.5" font-family="Helvetica,sans-Serif" font-size="10.00">/ComPWA/ComPWA/Examples</text>
<text text-anchor="middle" x="963.375" y="-103.5" font-family="Helvetica,sans-Serif" font-size="10.00">/DalitzFit/DalitzFitApp.cpp</text>
</a>
</g>
</g>
<!-- Node1&#45;&gt;Node10 -->
<g id="edge31" class="edge"><title>Node1&#45;&gt;Node10</title>
<path fill="none" stroke="midnightblue" d="M1508.42,-284.256C1433.39,-277.291 1317.36,-262.72 1220.37,-234 1137.53,-209.467 1046.76,-163.622 998.367,-137.515"/>
<polygon fill="midnightblue" stroke="midnightblue" points="1508.45,-287.773 1518.73,-285.189 1509.08,-280.802 1508.45,-287.773"/>
</g>
<!-- Node11 -->
<g id="node11" class="node"><title>Node11</title>
<g id="a_node11"><a xlink:href="../../d6/d0a/PythonFit_8cpp.html" target="_top" xlink:title="/home/travis/build\l/ComPWA/ComPWA/Examples\l/PythonDalitzFit/PythonFit.cpp">
<polygon fill="white" stroke="black" points="1060.37,-96.5 1060.37,-137.5 1218.37,-137.5 1218.37,-96.5 1060.37,-96.5"/>
<text text-anchor="start" x="1068.37" y="-125.5" font-family="Helvetica,sans-Serif" font-size="10.00">/home/travis/build</text>
<text text-anchor="start" x="1068.37" y="-114.5" font-family="Helvetica,sans-Serif" font-size="10.00">/ComPWA/ComPWA/Examples</text>
<text text-anchor="middle" x="1139.37" y="-103.5" font-family="Helvetica,sans-Serif" font-size="10.00">/PythonDalitzFit/PythonFit.cpp</text>
</a>
</g>
</g>
<!-- Node1&#45;&gt;Node11 -->
<g id="edge32" class="edge"><title>Node1&#45;&gt;Node11</title>
<path fill="none" stroke="midnightblue" d="M1508.6,-281.057C1454.6,-273.064 1381.8,-258.685 1321.37,-234 1260.33,-209.059 1197.2,-163.584 1163.7,-137.597"/>
<polygon fill="midnightblue" stroke="midnightblue" points="1508.4,-284.564 1518.8,-282.524 1509.4,-277.636 1508.4,-284.564"/>
</g>
<!-- Node12 -->
<g id="node12" class="node"><title>Node12</title>
<g id="a_node12"><a xlink:href="../../d6/d9a/SliceFitApp_8cpp.html" target="_top" xlink:title="/home/travis/build\l/ComPWA/ComPWA/Examples\l/SliceFit/SliceFitApp.cpp">
<polygon fill="white" stroke="black" points="1450.37,-96.5 1450.37,-137.5 1608.37,-137.5 1608.37,-96.5 1450.37,-96.5"/>
<text text-anchor="start" x="1458.37" y="-125.5" font-family="Helvetica,sans-Serif" font-size="10.00">/home/travis/build</text>
<text text-anchor="start" x="1458.37" y="-114.5" font-family="Helvetica,sans-Serif" font-size="10.00">/ComPWA/ComPWA/Examples</text>
<text text-anchor="middle" x="1529.37" y="-103.5" font-family="Helvetica,sans-Serif" font-size="10.00">/SliceFit/SliceFitApp.cpp</text>
</a>
</g>
</g>
<!-- Node1&#45;&gt;Node12 -->
<g id="edge33" class="edge"><title>Node1&#45;&gt;Node12</title>
<path fill="none" stroke="midnightblue" d="M1567.32,-261.794C1562.17,-253.167 1557.02,-243.455 1553.37,-234 1540.86,-201.575 1534.41,-161.407 1531.47,-137.851"/>
<polygon fill="midnightblue" stroke="midnightblue" points="1564.38,-263.684 1572.62,-270.333 1570.32,-259.991 1564.38,-263.684"/>
</g>
<!-- Node13 -->
<g id="node13" class="node"><title>Node13</title>
<g id="a_node13"><a xlink:href="../../d3/dbc/SliceFitRANDApp_8cpp.html" target="_top" xlink:title="/home/travis/build\l/ComPWA/ComPWA/Examples\l/SliceFit/SliceFitRANDApp.cpp">
<polygon fill="white" stroke="black" points="1626.37,-96.5 1626.37,-137.5 1784.37,-137.5 1784.37,-96.5 1626.37,-96.5"/>
<text text-anchor="start" x="1634.37" y="-125.5" font-family="Helvetica,sans-Serif" font-size="10.00">/home/travis/build</text>
<text text-anchor="start" x="1634.37" y="-114.5" font-family="Helvetica,sans-Serif" font-size="10.00">/ComPWA/ComPWA/Examples</text>
<text text-anchor="middle" x="1705.37" y="-103.5" font-family="Helvetica,sans-Serif" font-size="10.00">/SliceFit/SliceFitRANDApp.cpp</text>
</a>
</g>
</g>
<!-- Node1&#45;&gt;Node13 -->
<g id="edge34" class="edge"><title>Node1&#45;&gt;Node13</title>
<path fill="none" stroke="midnightblue" d="M1580.24,-260.316C1577.04,-236.745 1576.43,-203.892 1591.37,-180 1603.38,-160.805 1623.53,-147.126 1643.58,-137.59"/>
<polygon fill="midnightblue" stroke="midnightblue" points="1576.82,-261.101 1581.85,-270.427 1583.74,-260.001 1576.82,-261.101"/>
</g>
<!-- Node14 -->
<g id="node14" class="node"><title>Node14</title>
<g id="a_node14"><a xlink:href="../../d9/de4/SliceFitUBApp_8cpp.html" target="_top" xlink:title="/home/travis/build\l/ComPWA/ComPWA/Examples\l/SliceFit/SliceFitUBApp.cpp">
<polygon fill="white" stroke="black" points="1802.37,-96.5 1802.37,-137.5 1960.37,-137.5 1960.37,-96.5 1802.37,-96.5"/>
<text text-anchor="start" x="1810.37" y="-125.5" font-family="Helvetica,sans-Serif" font-size="10.00">/home/travis/build</text>
<text text-anchor="start" x="1810.37" y="-114.5" font-family="Helvetica,sans-Serif" font-size="10.00">/ComPWA/ComPWA/Examples</text>
<text text-anchor="middle" x="1881.37" y="-103.5" font-family="Helvetica,sans-Serif" font-size="10.00">/SliceFit/SliceFitUBApp.cpp</text>
</a>
</g>
</g>
<!-- Node1&#45;&gt;Node14 -->
<g id="edge35" class="edge"><title>Node1&#45;&gt;Node14</title>
<path fill="none" stroke="midnightblue" d="M1590.23,-260.01C1595.06,-234.955 1605.79,-200.179 1629.37,-180 1685.75,-131.766 1720.51,-162.412 1792.37,-144 1800.17,-142.003 1808.32,-139.793 1816.38,-137.532"/>
<polygon fill="midnightblue" stroke="midnightblue" points="1586.75,-259.634 1588.5,-270.082 1593.65,-260.818 1586.75,-259.634"/>
</g>
<!-- Node15 -->
<g id="node15" class="node"><title>Node15</title>
<g id="a_node15"><a xlink:href="../../de/dbe/BlackScholesApp_8cpp.html" target="_top" xlink:title="Test&#45;Application for Black&#45;Scholes stock model. ">
<polygon fill="white" stroke="black" points="1977.87,-96.5 1977.87,-137.5 2144.87,-137.5 2144.87,-96.5 1977.87,-96.5"/>
<text text-anchor="start" x="1985.87" y="-125.5" font-family="Helvetica,sans-Serif" font-size="10.00">/home/travis/build</text>
<text text-anchor="start" x="1985.87" y="-114.5" font-family="Helvetica,sans-Serif" font-size="10.00">/ComPWA/ComPWA/executables</text>
<text text-anchor="middle" x="2061.37" y="-103.5" font-family="Helvetica,sans-Serif" font-size="10.00">/BlackScholesApp.cpp</text>
</a>
</g>
</g>
<!-- Node1&#45;&gt;Node15 -->
<g id="edge36" class="edge"><title>Node1&#45;&gt;Node15</title>
<path fill="none" stroke="midnightblue" d="M1606.78,-262.153C1630.59,-229.671 1666.83,-180.32 1667.37,-180 1783.79,-112.173 1836.22,-170.215 1968.37,-144 1977.5,-142.19 1987.04,-139.942 1996.39,-137.532"/>
<polygon fill="midnightblue" stroke="midnightblue" points="1603.81,-260.276 1600.73,-270.41 1609.46,-264.414 1603.81,-260.276"/>
</g>
<!-- Node16 -->
<g id="node16" class="node"><title>Node16</title>
<g id="a_node16"><a xlink:href="../../d9/dab/CompareTreeAmpApp_8cpp.html" target="_top" xlink:title="/home/travis/build\l/ComPWA/ComPWA/executables\l/CompareTreeAmpApp.cpp">
<polygon fill="white" stroke="black" points="2162.87,-96.5 2162.87,-137.5 2329.87,-137.5 2329.87,-96.5 2162.87,-96.5"/>
<text text-anchor="start" x="2170.87" y="-125.5" font-family="Helvetica,sans-Serif" font-size="10.00">/home/travis/build</text>
<text text-anchor="start" x="2170.87" y="-114.5" font-family="Helvetica,sans-Serif" font-size="10.00">/ComPWA/ComPWA/executables</text>
<text text-anchor="middle" x="2246.37" y="-103.5" font-family="Helvetica,sans-Serif" font-size="10.00">/CompareTreeAmpApp.cpp</text>
</a>
</g>
</g>
<!-- Node1&#45;&gt;Node16 -->
<g id="edge37" class="edge"><title>Node1&#45;&gt;Node16</title>
<path fill="none" stroke="midnightblue" d="M1625.1,-264.475C1637.56,-255.491 1651.06,-244.901 1662.37,-234 1684.47,-212.716 1678.29,-194.418 1705.37,-180 1793.53,-133.062 2055.05,-161.527 2153.37,-144 2162.95,-142.294 2172.96,-140.026 2182.71,-137.539"/>
<polygon fill="midnightblue" stroke="midnightblue" points="1622.83,-261.794 1616.68,-270.422 1626.86,-267.512 1622.83,-261.794"/>
</g>
<!-- Node17 -->
<g id="node17" class="node"><title>Node17</title>
<g id="a_node17"><a xlink:href="../../d1/d13/HelicityAmplitudeFitApp_8cpp.html" target="_top" xlink:title="/home/travis/build\l/ComPWA/ComPWA/executables\l/HelicityAmplitudeFitApp.cpp">
<polygon fill="white" stroke="black" points="2347.87,-96.5 2347.87,-137.5 2514.87,-137.5 2514.87,-96.5 2347.87,-96.5"/>
<text text-anchor="start" x="2355.87" y="-125.5" font-family="Helvetica,sans-Serif" font-size="10.00">/home/travis/build</text>
<text text-anchor="start" x="2355.87" y="-114.5" font-family="Helvetica,sans-Serif" font-size="10.00">/ComPWA/ComPWA/executables</text>
<text text-anchor="middle" x="2431.37" y="-103.5" font-family="Helvetica,sans-Serif" font-size="10.00">/HelicityAmplitudeFitApp.cpp</text>
</a>
</g>
</g>
<!-- Node1&#45;&gt;Node17 -->
<g id="edge38" class="edge"><title>Node1&#45;&gt;Node17</title>
<path fill="none" stroke="midnightblue" d="M1645.35,-266.138C1663.31,-257.433 1682.48,-246.586 1698.37,-234 1722.87,-214.603 1715.5,-194.1 1743.37,-180 1861.58,-120.216 2207.74,-165.956 2338.37,-144 2348.21,-142.347 2358.5,-140.057 2368.5,-137.517"/>
<polygon fill="midnightblue" stroke="midnightblue" points="1643.66,-263.068 1636.1,-270.492 1646.64,-269.402 1643.66,-263.068"/>
</g>
<!-- Node18 -->
<g id="node18" class="node"><title>Node18</title>
<g id="a_node18"><a xlink:href="../../d6/d45/LHNormalizationTestApp_8cpp.html" target="_top" xlink:title="/home/travis/build\l/ComPWA/ComPWA/executables\l/LHNormalizationTestApp.cpp">
<polygon fill="white" stroke="black" points="2532.87,-96.5 2532.87,-137.5 2699.87,-137.5 2699.87,-96.5 2532.87,-96.5"/>
<text text-anchor="start" x="2540.87" y="-125.5" font-family="Helvetica,sans-Serif" font-size="10.00">/home/travis/build</text>
<text text-anchor="start" x="2540.87" y="-114.5" font-family="Helvetica,sans-Serif" font-size="10.00">/ComPWA/ComPWA/executables</text>
<text text-anchor="middle" x="2616.37" y="-103.5" font-family="Helvetica,sans-Serif" font-size="10.00">/LHNormalizationTestApp.cpp</text>
</a>
</g>
</g>
<!-- Node1&#45;&gt;Node18 -->
<g id="edge39" class="edge"><title>Node1&#45;&gt;Node18</title>
<path fill="none" stroke="midnightblue" d="M1663.63,-269.291C1687.89,-260.669 1713.91,-249.075 1735.37,-234 1761.17,-215.878 1753.08,-193.908 1781.37,-180 1855.45,-143.589 2441.89,-157.195 2523.37,-144 2533.3,-142.392 2543.69,-140.11 2553.77,-137.557"/>
<polygon fill="midnightblue" stroke="midnightblue" points="1662.4,-266.012 1654.08,-272.569 1664.67,-272.633 1662.4,-266.012"/>
</g>
<!-- Node19 -->
<g id="node19" class="node"><title>Node19</title>
<g id="a_node19"><a xlink:href="../../dc/d3f/NeuralNetworkApp_8cpp.html" target="_top" xlink:title="/home/travis/build\l/ComPWA/ComPWA/executables\l/NeuralNetworkApp.cpp">
<polygon fill="white" stroke="black" points="2717.87,-96.5 2717.87,-137.5 2884.87,-137.5 2884.87,-96.5 2717.87,-96.5"/>
<text text-anchor="start" x="2725.87" y="-125.5" font-family="Helvetica,sans-Serif" font-size="10.00">/home/travis/build</text>
<text text-anchor="start" x="2725.87" y="-114.5" font-family="Helvetica,sans-Serif" font-size="10.00">/ComPWA/ComPWA/executables</text>
<text text-anchor="middle" x="2801.37" y="-103.5" font-family="Helvetica,sans-Serif" font-size="10.00">/NeuralNetworkApp.cpp</text>
</a>
</g>
</g>
<!-- Node1&#45;&gt;Node19 -->
<g id="edge40" class="edge"><title>Node1&#45;&gt;Node19</title>
<path fill="none" stroke="midnightblue" d="M1663.69,-276.937C1698.83,-268.521 1739.75,-255.074 1772.37,-234 1799.1,-216.736 1790.69,-193.769 1819.37,-180 1908.5,-137.22 2610.72,-159.412 2708.37,-144 2718.39,-142.419 2728.87,-140.133 2739.03,-137.563"/>
<polygon fill="midnightblue" stroke="midnightblue" points="1662.9,-273.527 1653.94,-279.18 1664.47,-280.349 1662.9,-273.527"/>
</g>
<!-- Node20 -->
<g id="node20" class="node"><title>Node20</title>
<g id="a_node20"><a xlink:href="../../d2/d8f/HelicityKinematics_8cpp.html" target="_top" xlink:title="/home/travis/build\l/ComPWA/ComPWA/Physics\l/HelicityFormalism/HelicityKinematics.cpp">
<polygon fill="white" stroke="black" points="2903.37,-96.5 2903.37,-137.5 3105.37,-137.5 3105.37,-96.5 2903.37,-96.5"/>
<text text-anchor="start" x="2911.37" y="-125.5" font-family="Helvetica,sans-Serif" font-size="10.00">/home/travis/build</text>
<text text-anchor="start" x="2911.37" y="-114.5" font-family="Helvetica,sans-Serif" font-size="10.00">/ComPWA/ComPWA/Physics</text>
<text text-anchor="middle" x="3004.37" y="-103.5" font-family="Helvetica,sans-Serif" font-size="10.00">/HelicityFormalism/HelicityKinematics.cpp</text>
</a>
</g>
</g>
<!-- Node1&#45;&gt;Node20 -->
<g id="edge41" class="edge"><title>Node1&#45;&gt;Node20</title>
<path fill="none" stroke="midnightblue" d="M1664.1,-283.315C1709.7,-276.424 1766.74,-262.427 1810.37,-234 1835.85,-217.405 1825.3,-193.828 1852.37,-180 1955.45,-127.362 2778.65,-159.27 2893.37,-144 2905.34,-142.407 2917.91,-140.097 2930.11,-137.502"/>
<polygon fill="midnightblue" stroke="midnightblue" points="1663.36,-279.884 1653.96,-284.76 1664.35,-286.814 1663.36,-279.884"/>
</g>
<!-- Node21 -->
<g id="node21" class="node"><title>Node21</title>
<g id="a_node21"><a xlink:href="../../d0/d03/Particle_8cpp.html" target="_top" xlink:title="/home/travis/build\l/ComPWA/ComPWA/Core\l/Particle.cpp">
<polygon fill="white" stroke="black" points="2027.87,-186.5 2027.87,-227.5 2162.87,-227.5 2162.87,-186.5 2027.87,-186.5"/>
<text text-anchor="start" x="2035.87" y="-215.5" font-family="Helvetica,sans-Serif" font-size="10.00">/home/travis/build</text>
<text text-anchor="start" x="2035.87" y="-204.5" font-family="Helvetica,sans-Serif" font-size="10.00">/ComPWA/ComPWA/Core</text>
<text text-anchor="middle" x="2095.37" y="-193.5" font-family="Helvetica,sans-Serif" font-size="10.00">/Particle.cpp</text>
</a>
</g>
</g>
<!-- Node1&#45;&gt;Node21 -->
<g id="edge22" class="edge"><title>Node1&#45;&gt;Node21</title>
<path fill="none" stroke="midnightblue" d="M1664.15,-284.551C1751.27,-277.379 1896.29,-262.235 2018.37,-234 2026.07,-232.22 2034.09,-229.974 2041.91,-227.552"/>
<polygon fill="midnightblue" stroke="midnightblue" points="1663.76,-281.071 1654.08,-285.366 1664.33,-288.048 1663.76,-281.071"/>
</g>
<!-- Node22 -->
<g id="node22" class="node"><title>Node22</title>
<g id="a_node22"><a xlink:href="../../da/dbe/ParticleTest_8cpp.html" target="_top" xlink:title="/home/travis/build\l/ComPWA/ComPWA/Core\l/test/ParticleTest.cpp">
<polygon fill="white" stroke="black" points="2180.87,-186.5 2180.87,-227.5 2315.87,-227.5 2315.87,-186.5 2180.87,-186.5"/>
<text text-anchor="start" x="2188.87" y="-215.5" font-family="Helvetica,sans-Serif" font-size="10.00">/home/travis/build</text>
<text text-anchor="start" x="2188.87" y="-204.5" font-family="Helvetica,sans-Serif" font-size="10.00">/ComPWA/ComPWA/Core</text>
<text text-anchor="middle" x="2248.37" y="-193.5" font-family="Helvetica,sans-Serif" font-size="10.00">/test/ParticleTest.cpp</text>
</a>
</g>
</g>
<!-- Node1&#45;&gt;Node22 -->
<g id="edge23" class="edge"><title>Node1&#45;&gt;Node22</title>
<path fill="none" stroke="midnightblue" d="M1664.54,-288.218C1777.55,-284.36 1992.62,-272.2 2171.37,-234 2179.38,-232.29 2187.71,-230.02 2195.8,-227.532"/>
<polygon fill="midnightblue" stroke="midnightblue" points="1664.14,-284.729 1654.26,-288.555 1664.37,-291.725 1664.14,-284.729"/>
</g>
<!-- Node23 -->
<g id="node23" class="node"><title>Node23</title>
<g id="a_node23"><a xlink:href="../../d4/d31/EstimatorTestApp_8cpp.html" target="_top" xlink:title="Test&#45;Application of a simple &#160;estimator. ">
<polygon fill="white" stroke="black" points="2334.37,-186.5 2334.37,-227.5 2490.37,-227.5 2490.37,-186.5 2334.37,-186.5"/>
<text text-anchor="start" x="2342.37" y="-215.5" font-family="Helvetica,sans-Serif" font-size="10.00">/home/travis/build</text>
<text text-anchor="start" x="2342.37" y="-204.5" font-family="Helvetica,sans-Serif" font-size="10.00">/ComPWA/ComPWA/Estimator</text>
<text text-anchor="middle" x="2412.37" y="-193.5" font-family="Helvetica,sans-Serif" font-size="10.00">/test/EstimatorTestApp.cpp</text>
</a>
</g>
</g>
<!-- Node1&#45;&gt;Node23 -->
<g id="edge27" class="edge"><title>Node1&#45;&gt;Node23</title>
<path fill="none" stroke="midnightblue" d="M1664.15,-289.483C1799.47,-287.39 2086.5,-277.658 2324.37,-234 2333.46,-232.332 2342.95,-230.085 2352.19,-227.608"/>
<polygon fill="midnightblue" stroke="midnightblue" points="1663.84,-285.987 1653.89,-289.632 1663.94,-292.986 1663.84,-285.987"/>
</g>
<!-- Node24 -->
<g id="node24" class="node"><title>Node24</title>
<g id="a_node24"><a xlink:href="../../d7/d56/HelicityAngle_8cpp.html" target="_top" xlink:title="/home/travis/build\l/ComPWA/ComPWA/Physics\l/HelicityFormalism/test\l/HelicityAngle.cpp">
<polygon fill="white" stroke="black" points="2508.87,-181 2508.87,-233 2657.87,-233 2657.87,-181 2508.87,-181"/>
<text text-anchor="start" x="2516.87" y="-221" font-family="Helvetica,sans-Serif" font-size="10.00">/home/travis/build</text>
<text text-anchor="start" x="2516.87" y="-210" font-family="Helvetica,sans-Serif" font-size="10.00">/ComPWA/ComPWA/Physics</text>
<text text-anchor="start" x="2516.87" y="-199" font-family="Helvetica,sans-Serif" font-size="10.00">/HelicityFormalism/test</text>
<text text-anchor="middle" x="2583.37" y="-188" font-family="Helvetica,sans-Serif" font-size="10.00">/HelicityAngle.cpp</text>
</a>
</g>
</g>
<!-- Node1&#45;&gt;Node24 -->
<g id="edge42" class="edge"><title>Node1&#45;&gt;Node24</title>
<path fill="none" stroke="midnightblue" d="M1664.37,-287.61C1854.89,-281.387 2340.03,-263.113 2499.37,-234 2502.38,-233.451 2505.43,-232.83 2508.49,-232.15"/>
<polygon fill="midnightblue" stroke="midnightblue" points="1664.04,-284.119 1654.15,-287.942 1664.26,-291.116 1664.04,-284.119"/>
</g>
<!-- Node25 -->
<g id="node25" class="node"><title>Node25</title>
<g id="a_node25"><a xlink:href="../../d7/d36/Vector4_8h.html" target="_top" xlink:title="Vector4 template class definition file. ">
<polygon fill="white" stroke="red" points="1860.87,-186.5 1860.87,-227.5 2009.87,-227.5 2009.87,-186.5 1860.87,-186.5"/>
<text text-anchor="start" x="1868.87" y="-215.5" font-family="Helvetica,sans-Serif" font-size="10.00">/home/travis/build</text>
<text text-anchor="start" x="1868.87" y="-204.5" font-family="Helvetica,sans-Serif" font-size="10.00">/ComPWA/ComPWA/Physics</text>
<text text-anchor="middle" x="1935.37" y="-193.5" font-family="Helvetica,sans-Serif" font-size="10.00">/qft++/Vector4.h</text>
</a>
</g>
</g>
<!-- Node1&#45;&gt;Node25 -->
<g id="edge43" class="edge"><title>Node1&#45;&gt;Node25</title>
<path fill="none" stroke="midnightblue" d="M1663.87,-274.978C1715.98,-264.484 1786.09,-249.604 1847.37,-234 1855.09,-232.035 1863.15,-229.845 1871.13,-227.594"/>
<polygon fill="midnightblue" stroke="midnightblue" points="1663.14,-271.554 1654.03,-276.952 1664.52,-278.418 1663.14,-271.554"/>
</g>
<!-- Node3&#45;&gt;Node2 -->
<g id="edge3" class="edge"><title>Node3&#45;&gt;Node2</title>
<path fill="none" stroke="midnightblue" d="M1355.38,-205.006C1116.19,-201.514 395.289,-187.562 165.375,-144 157.057,-142.424 148.409,-140.159 140.041,-137.613"/>
<polygon fill="midnightblue" stroke="midnightblue" points="1355.68,-208.511 1365.73,-205.155 1355.78,-201.512 1355.68,-208.511"/>
</g>
<!-- Node3&#45;&gt;Node4 -->
<g id="edge4" class="edge"><title>Node3&#45;&gt;Node4</title>
<path fill="none" stroke="midnightblue" d="M1355.56,-203.954C1139.46,-197.894 535.027,-178.292 339.375,-144 330.058,-142.367 320.33,-140.071 310.894,-137.513"/>
<polygon fill="midnightblue" stroke="midnightblue" points="1355.77,-207.461 1365.86,-204.24 1355.97,-200.463 1355.77,-207.461"/>
</g>
<!-- Node3&#45;&gt;Node5 -->
<g id="edge5" class="edge"><title>Node3&#45;&gt;Node5</title>
<path fill="none" stroke="midnightblue" d="M1355.61,-206.577C1196.26,-206.487 821.668,-199.732 513.375,-144 504.222,-142.345 494.667,-140.072 485.382,-137.554"/>
<polygon fill="midnightblue" stroke="midnightblue" points="1355.79,-210.077 1365.79,-206.574 1355.79,-203.077 1355.79,-210.077"/>
</g>
<!-- Node3&#45;&gt;Node6 -->
<g id="edge6" class="edge"><title>Node3&#45;&gt;Node6</title>
<path fill="none" stroke="midnightblue" d="M1355.26,-204.822C1218.67,-201.585 928.05,-189.454 687.375,-144 678.39,-142.303 669.011,-140.041 659.878,-137.556"/>
<polygon fill="midnightblue" stroke="midnightblue" points="1355.54,-208.329 1365.62,-205.057 1355.7,-201.331 1355.54,-208.329"/>
</g>
<!-- Node3&#45;&gt;Node7 -->
<g id="edge7" class="edge"><title>Node3&#45;&gt;Node7</title>
<path fill="none" stroke="midnightblue" d="M1431.03,-176.27C1427.83,-151.339 1420.25,-115.779 1402.37,-90 1392.23,-75.3692 1377.46,-62.9927 1362.96,-53.2373"/>
<polygon fill="midnightblue" stroke="midnightblue" points="1427.56,-176.699 1432.15,-186.244 1434.51,-175.916 1427.56,-176.699"/>
</g>
<!-- Node3&#45;&gt;Node8 -->
<g id="edge8" class="edge"><title>Node3&#45;&gt;Node8</title>
<path fill="none" stroke="midnightblue" d="M1398.81,-180.221C1383.14,-168.538 1364.69,-154.774 1349.12,-143.166"/>
<polygon fill="midnightblue" stroke="midnightblue" points="1397.08,-183.297 1407.19,-186.47 1401.26,-177.686 1397.08,-183.297"/>
</g>
<!-- Node3&#45;&gt;Node9 -->
<g id="edge10" class="edge"><title>Node3&#45;&gt;Node9</title>
<path fill="none" stroke="midnightblue" d="M1355.67,-201.288C1247.32,-193.829 1045.06,-176.677 875.375,-144 866.064,-142.207 856.328,-139.954 846.8,-137.529"/>
<polygon fill="midnightblue" stroke="midnightblue" points="1355.65,-204.794 1365.86,-201.979 1356.12,-197.81 1355.65,-204.794"/>
</g>
<!-- Node3&#45;&gt;Node10 -->
<g id="edge11" class="edge"><title>Node3&#45;&gt;Node10</title>
<path fill="none" stroke="midnightblue" d="M1355.42,-196.287C1277.83,-185.931 1155.6,-167.755 1051.37,-144 1043.14,-142.124 1034.55,-139.91 1026.09,-137.579"/>
<polygon fill="midnightblue" stroke="midnightblue" points="1355.22,-199.791 1365.6,-197.634 1356.14,-192.852 1355.22,-199.791"/>
</g>
<!-- Node3&#45;&gt;Node11 -->
<g id="edge12" class="edge"><title>Node3&#45;&gt;Node11</title>
<path fill="none" stroke="midnightblue" d="M1358.51,-183.593C1311.04,-169.382 1250.21,-151.176 1204.69,-137.551"/>
<polygon fill="midnightblue" stroke="midnightblue" points="1357.54,-186.955 1368.13,-186.47 1359.55,-180.249 1357.54,-186.955"/>
</g>
<!-- Node3&#45;&gt;Node12 -->
<g id="edge13" class="edge"><title>Node3&#45;&gt;Node12</title>
<path fill="none" stroke="midnightblue" d="M1462.05,-179.712C1476.73,-166.262 1494.29,-150.162 1507.8,-137.78"/>
<polygon fill="midnightblue" stroke="midnightblue" points="1459.69,-177.133 1454.68,-186.47 1464.42,-182.293 1459.69,-177.133"/>
</g>
<!-- Node3&#45;&gt;Node13 -->
<g id="edge14" class="edge"><title>Node3&#45;&gt;Node13</title>
<path fill="none" stroke="midnightblue" d="M1503.44,-183.331C1547.17,-169.185 1602.88,-151.16 1644.71,-137.627"/>
<polygon fill="midnightblue" stroke="midnightblue" points="1502.18,-180.062 1493.74,-186.47 1504.33,-186.722 1502.18,-180.062"/>
</g>
<!-- Node3&#45;&gt;Node14 -->
<g id="edge15" class="edge"><title>Node3&#45;&gt;Node14</title>
<path fill="none" stroke="midnightblue" d="M1511.07,-193.063C1608.33,-176.794 1765.48,-150.229 1792.37,-144 1800.53,-142.111 1809.04,-139.917 1817.43,-137.619"/>
<polygon fill="midnightblue" stroke="midnightblue" points="1510.26,-189.649 1500.98,-194.75 1511.42,-196.553 1510.26,-189.649"/>
</g>
<!-- Node3&#45;&gt;Node15 -->
<g id="edge16" class="edge"><title>Node3&#45;&gt;Node15</title>
<path fill="none" stroke="midnightblue" d="M1510.85,-195.249C1546.86,-190.374 1590.28,-184.669 1629.37,-180 1779.82,-162.036 1819.56,-172.496 1968.37,-144 1977.68,-142.218 1987.4,-139.957 1996.91,-137.514"/>
<polygon fill="midnightblue" stroke="midnightblue" points="1510.34,-191.787 1500.9,-196.601 1511.28,-198.723 1510.34,-191.787"/>
</g>
<!-- Node3&#45;&gt;Node16 -->
<g id="edge17" class="edge"><title>Node3&#45;&gt;Node16</title>
<path fill="none" stroke="midnightblue" d="M1510.99,-196.653C1556.51,-191.352 1615.16,-184.833 1667.37,-180 1883.04,-160.037 1940.03,-181.342 2153.37,-144 2163.04,-142.309 2173.14,-140.033 2182.97,-137.528"/>
<polygon fill="midnightblue" stroke="midnightblue" points="1510.42,-193.196 1500.89,-197.834 1511.23,-200.149 1510.42,-193.196"/>
</g>
<!-- Node3&#45;&gt;Node17 -->
<g id="edge18" class="edge"><title>Node3&#45;&gt;Node17</title>
<path fill="none" stroke="midnightblue" d="M1511.19,-197.759C1565.55,-192.2 1639.83,-184.995 1705.37,-180 1986.35,-158.589 2060.4,-190.204 2338.37,-144 2348.21,-142.364 2358.5,-140.085 2368.5,-137.548"/>
<polygon fill="midnightblue" stroke="midnightblue" points="1510.53,-194.309 1500.94,-198.813 1511.25,-201.272 1510.53,-194.309"/>
</g>
<!-- Node3&#45;&gt;Node18 -->
<g id="edge19" class="edge"><title>Node3&#45;&gt;Node18</title>
<path fill="none" stroke="midnightblue" d="M1511.25,-198.653C1573.91,-192.939 1664.24,-185.143 1743.37,-180 2089.68,-157.494 2180.74,-199.072 2523.37,-144 2533.39,-142.39 2543.86,-140.089 2554.02,-137.514"/>
<polygon fill="midnightblue" stroke="midnightblue" points="1510.69,-195.19 1501.05,-199.587 1511.33,-202.161 1510.69,-195.19"/>
</g>
<!-- Node3&#45;&gt;Node19 -->
<g id="edge20" class="edge"><title>Node3&#45;&gt;Node19</title>
<path fill="none" stroke="midnightblue" d="M1511.15,-199.389C1581.64,-193.588 1688.41,-185.276 1781.37,-180 2193.02,-156.637 2301.05,-207.943 2708.37,-144 2718.48,-142.414 2729.05,-140.108 2739.29,-137.514"/>
<polygon fill="midnightblue" stroke="midnightblue" points="1510.7,-195.915 1501.02,-200.226 1511.27,-202.891 1510.7,-195.915"/>
</g>
<!-- Node3&#45;&gt;Node20 -->
<g id="edge21" class="edge"><title>Node3&#45;&gt;Node20</title>
<path fill="none" stroke="midnightblue" d="M1511.19,-199.985C1589.11,-194.143 1712.48,-185.39 1819.37,-180 2296.37,-155.948 2419.92,-206.764 2893.37,-144 2905.34,-142.413 2917.91,-140.107 2930.11,-137.513"/>
<polygon fill="midnightblue" stroke="midnightblue" points="1510.68,-196.513 1500.97,-200.753 1511.2,-203.493 1510.68,-196.513"/>
</g>
<!-- Node8&#45;&gt;Node7 -->
<g id="edge9" class="edge"><title>Node8&#45;&gt;Node7</title>
<path fill="none" stroke="midnightblue" d="M1315.37,-80.4892C1315.37,-71.3088 1315.37,-61.616 1315.37,-53.0921"/>
<polygon fill="midnightblue" stroke="midnightblue" points="1311.87,-80.5467 1315.37,-90.5468 1318.87,-80.5468 1311.87,-80.5467"/>
</g>
<!-- Node25&#45;&gt;Node20 -->
<g id="edge44" class="edge"><title>Node25&#45;&gt;Node20</title>
<path fill="none" stroke="midnightblue" d="M2001.44,-183.815C2007.45,-182.323 2013.5,-181.013 2019.37,-180 2402.5,-113.97 2508.17,-196.566 2893.37,-144 2905.14,-142.394 2917.49,-140.113 2929.5,-137.561"/>
<polygon fill="midnightblue" stroke="midnightblue" points="2000.14,-180.538 1991.37,-186.478 2001.93,-187.305 2000.14,-180.538"/>
</g>
</g>
</svg>
