<?xml version="1.0" encoding="UTF-8" standalone="no"?>
<!DOCTYPE svg PUBLIC "-//W3C//DTD SVG 1.1//EN"
 "http://www.w3.org/Graphics/SVG/1.1/DTD/svg11.dtd">
<!-- Generated by graphviz version 2.26.3 (20100126.1600)
 -->
<!-- Title: G Pages: 1 -->
<svg width="1150pt" height="378pt"
 viewBox="0.00 0.00 1150.00 378.00" xmlns="http://www.w3.org/2000/svg" xmlns:xlink="http://www.w3.org/1999/xlink">
<g id="graph1" class="graph" transform="scale(1 1) rotate(0) translate(4 374)">
<title>G</title>
<polygon fill="white" stroke="white" points="-4,5 -4,-374 1147,-374 1147,5 -4,5"/>
<!-- Node1 -->
<g id="node1" class="node"><title>Node1</title>
<polygon fill="#bfbfbf" stroke="black" points="280.5,-348.5 280.5,-369.5 525.5,-369.5 525.5,-348.5 280.5,-348.5"/>
<text text-anchor="middle" x="403" y="-356.5" font-family="Helvetica,sans-Serif" font-size="10.00">Physics/AmplitudeSum/AmpRelBreitWignerRes.hpp</text>
</g>
<!-- Node2 -->
<g id="node3" class="node"><title>Node2</title>
<polygon fill="white" stroke="#bfbfbf" points="89,-0.5 89,-21.5 133,-21.5 133,-0.5 89,-0.5"/>
<text text-anchor="middle" x="111" y="-8.5" font-family="Helvetica,sans-Serif" font-size="10.00">vector</text>
</g>
<!-- Node1&#45;&gt;Node2 -->
<g id="edge2" class="edge"><title>Node1&#45;&gt;Node2</title>
<path fill="none" stroke="midnightblue" d="M288.594,-348.476C169.45,-334.264 0,-303.429 0,-243 0,-243 0,-243 0,-127 0,-80.5022 47.1325,-45.3472 79.9719,-26.4962"/>
<polygon fill="midnightblue" stroke="midnightblue" points="81.7444,-29.5157 88.8043,-21.6158 78.3588,-23.3888 81.7444,-29.5157"/>
</g>
<!-- Node3 -->
<g id="node5" class="node"><title>Node3</title>
<a xlink:href="../../d3/d76/AmpAbsDynamicalFunction_8hpp.xhtml" target="_top" xlink:title="Physics/AmplitudeSum/AmpAbsDynamicalFunction.hpp">
<polygon fill="white" stroke="black" points="104,-174.5 104,-195.5 366,-195.5 366,-174.5 104,-174.5"/>
<text text-anchor="middle" x="235" y="-182.5" font-family="Helvetica,sans-Serif" font-size="10.00">Physics/AmplitudeSum/AmpAbsDynamicalFunction.hpp</text>
</a>
</g>
<!-- Node1&#45;&gt;Node3 -->
<g id="edge4" class="edge"><title>Node1&#45;&gt;Node3</title>
<path fill="none" stroke="midnightblue" d="M392.744,-348.377C364.926,-319.567 287.792,-239.678 252.742,-203.376"/>
<polygon fill="midnightblue" stroke="midnightblue" points="255.015,-200.691 245.551,-195.928 249.979,-205.553 255.015,-200.691"/>
</g>
<!-- Node15 -->
<g id="node34" class="node"><title>Node15</title>
<a xlink:href="../../d6/d6b/AmpKinematics_8hpp.xhtml" target="_top" xlink:title="Physics/AmplitudeSum/AmpKinematics.hpp">
<polygon fill="white" stroke="black" points="604.5,-232.5 604.5,-253.5 813.5,-253.5 813.5,-232.5 604.5,-232.5"/>
<text text-anchor="middle" x="709" y="-240.5" font-family="Helvetica,sans-Serif" font-size="10.00">Physics/AmplitudeSum/AmpKinematics.hpp</text>
</a>
</g>
<!-- Node1&#45;&gt;Node15 -->
<g id="edge38" class="edge"><title>Node1&#45;&gt;Node15</title>
<path fill="none" stroke="midnightblue" d="M477.941,-348.465C535.249,-339.564 608.888,-326.051 636,-312 659.646,-299.745 681.059,-277.556 694.488,-261.647"/>
<polygon fill="midnightblue" stroke="midnightblue" points="697.479,-263.517 701.091,-253.557 692.056,-259.091 697.479,-263.517"/>
</g>
<!-- Node18 -->
<g id="node42" class="node"><title>Node18</title>
<a xlink:href="../../d0/d2a/AmpWigner2_8hpp.xhtml" target="_top" xlink:title="Angular distribution based on WignerD functions.">
<polygon fill="white" stroke="black" points="430.5,-290.5 430.5,-311.5 627.5,-311.5 627.5,-290.5 430.5,-290.5"/>
<text text-anchor="middle" x="529" y="-298.5" font-family="Helvetica,sans-Serif" font-size="10.00">Physics/AmplitudeSum/AmpWigner2.hpp</text>
</a>
</g>
<!-- Node1&#45;&gt;Node18 -->
<g id="edge48" class="edge"><title>Node1&#45;&gt;Node18</title>
<path fill="none" stroke="midnightblue" d="M425.818,-348.497C445.586,-339.397 474.413,-326.127 496.576,-315.925"/>
<polygon fill="midnightblue" stroke="midnightblue" points="498.306,-318.982 505.926,-311.621 495.379,-312.623 498.306,-318.982"/>
</g>
<!-- Node24 -->
<g id="node67" class="node"><title>Node24</title>
<a xlink:href="../../dc/d66/Functions_8hpp.xhtml" target="_top" xlink:title="This file contains Functions implementing the Strategy interface so they can be used inside a node of...">
<polygon fill="white" stroke="black" points="381,-232.5 381,-253.5 483,-253.5 483,-232.5 381,-232.5"/>
<text text-anchor="middle" x="432" y="-240.5" font-family="Helvetica,sans-Serif" font-size="10.00">Core/Functions.hpp</text>
</a>
</g>
<!-- Node1&#45;&gt;Node24 -->
<g id="edge100" class="edge"><title>Node1&#45;&gt;Node24</title>
<path fill="none" stroke="midnightblue" d="M405.676,-348.295C410.489,-329.045 420.678,-288.289 426.873,-263.509"/>
<polygon fill="midnightblue" stroke="midnightblue" points="430.3,-264.23 429.33,-253.679 423.509,-262.532 430.3,-264.23"/>
</g>
<!-- Node3&#45;&gt;Node2 -->
<g id="edge34" class="edge"><title>Node3&#45;&gt;Node2</title>
<path fill="none" stroke="midnightblue" d="M227.43,-174.377C207.071,-145.809 150.92,-67.017 124.754,-30.2999"/>
<polygon fill="midnightblue" stroke="midnightblue" points="127.441,-28.0401 118.788,-21.9277 121.741,-32.1026 127.441,-28.0401"/>
</g>
<!-- Node4 -->
<g id="node7" class="node"><title>Node4</title>
<a xlink:href="../../db/dce/Parameter_8hpp.xhtml" target="_top" xlink:title="This class implements some internal container of parameters.">
<polygon fill="white" stroke="black" points="312,-116.5 312,-137.5 416,-137.5 416,-116.5 312,-116.5"/>
<text text-anchor="middle" x="364" y="-124.5" font-family="Helvetica,sans-Serif" font-size="10.00">Core/Parameter.hpp</text>
</a>
</g>
<!-- Node3&#45;&gt;Node4 -->
<g id="edge6" class="edge"><title>Node3&#45;&gt;Node4</title>
<path fill="none" stroke="midnightblue" d="M258.361,-174.497C278.691,-165.356 308.378,-152.008 331.109,-141.788"/>
<polygon fill="midnightblue" stroke="midnightblue" points="332.692,-144.914 340.377,-137.621 329.821,-138.53 332.692,-144.914"/>
</g>
<!-- Node8 -->
<g id="node15" class="node"><title>Node8</title>
<polygon fill="white" stroke="#bfbfbf" points="205.5,-58.5 205.5,-79.5 258.5,-79.5 258.5,-58.5 205.5,-58.5"/>
<text text-anchor="middle" x="232" y="-66.5" font-family="Helvetica,sans-Serif" font-size="10.00">complex</text>
</g>
<!-- Node3&#45;&gt;Node8 -->
<g id="edge36" class="edge"><title>Node3&#45;&gt;Node8</title>
<path fill="none" stroke="midnightblue" d="M234.723,-174.295C234.228,-155.131 233.181,-114.654 232.539,-89.8434"/>
<polygon fill="midnightblue" stroke="midnightblue" points="236.034,-89.5853 232.276,-79.6792 229.036,-89.7664 236.034,-89.5853"/>
</g>
<!-- Node5 -->
<g id="node9" class="node"><title>Node5</title>
<polygon fill="white" stroke="#bfbfbf" points="768,-58.5 768,-79.5 822,-79.5 822,-58.5 768,-58.5"/>
<text text-anchor="middle" x="795" y="-66.5" font-family="Helvetica,sans-Serif" font-size="10.00">iostream</text>
</g>
<!-- Node4&#45;&gt;Node5 -->
<g id="edge8" class="edge"><title>Node4&#45;&gt;Node5</title>
<path fill="none" stroke="midnightblue" d="M416.053,-120.197C484.928,-111.167 610.114,-94.6522 717,-80 730.364,-78.1681 745.008,-76.1149 757.963,-74.2829"/>
<polygon fill="midnightblue" stroke="midnightblue" points="758.524,-77.7385 767.934,-72.8695 757.541,-70.8077 758.524,-77.7385"/>
</g>
<!-- Node6 -->
<g id="node11" class="node"><title>Node6</title>
<polygon fill="white" stroke="#bfbfbf" points="411.5,-0.5 411.5,-21.5 452.5,-21.5 452.5,-0.5 411.5,-0.5"/>
<text text-anchor="middle" x="432" y="-8.5" font-family="Helvetica,sans-Serif" font-size="10.00">string</text>
</g>
<!-- Node4&#45;&gt;Node6 -->
<g id="edge10" class="edge"><title>Node4&#45;&gt;Node6</title>
<path fill="none" stroke="midnightblue" d="M370.799,-116.244C376.753,-106.764 385.587,-92.5474 393,-80 402.688,-63.603 413.3,-44.7672 421.005,-30.9226"/>
<polygon fill="midnightblue" stroke="midnightblue" points="424.259,-32.2727 426.047,-21.8299 418.137,-28.878 424.259,-32.2727"/>
</g>
<!-- Node7 -->
<g id="node13" class="node"><title>Node7</title>
<polygon fill="white" stroke="#bfbfbf" points="440,-58.5 440,-79.5 492,-79.5 492,-58.5 440,-58.5"/>
<text text-anchor="middle" x="466" y="-66.5" font-family="Helvetica,sans-Serif" font-size="10.00">sstream</text>
</g>
<!-- Node4&#45;&gt;Node7 -->
<g id="edge12" class="edge"><title>Node4&#45;&gt;Node7</title>
<path fill="none" stroke="midnightblue" d="M382.708,-116.362C398.381,-107.45 420.964,-94.6087 438.663,-84.5447"/>
<polygon fill="midnightblue" stroke="midnightblue" points="440.447,-87.5562 447.41,-79.5707 436.987,-81.4712 440.447,-87.5562"/>
</g>
<!-- Node4&#45;&gt;Node8 -->
<g id="edge14" class="edge"><title>Node4&#45;&gt;Node8</title>
<path fill="none" stroke="midnightblue" d="M340.096,-116.497C319.2,-107.315 288.644,-93.8889 265.345,-83.6516"/>
<polygon fill="midnightblue" stroke="midnightblue" points="266.736,-80.4397 256.172,-79.6212 263.92,-86.8483 266.736,-80.4397"/>
</g>
<!-- Node9 -->
<g id="node17" class="node"><title>Node9</title>
<a xlink:href="../../d8/def/AbsParameter_8hpp.xhtml" target="_top" xlink:title="This class defines the internal container of a parameter.">
<polygon fill="white" stroke="black" points="586,-58.5 586,-79.5 708,-79.5 708,-58.5 586,-58.5"/>
<text text-anchor="middle" x="647" y="-66.5" font-family="Helvetica,sans-Serif" font-size="10.00">Core/AbsParameter.hpp</text>
</a>
</g>
<!-- Node4&#45;&gt;Node9 -->
<g id="edge16" class="edge"><title>Node4&#45;&gt;Node9</title>
<path fill="none" stroke="midnightblue" d="M415.249,-116.497C463.183,-106.673 534.833,-91.9884 585.759,-81.5512"/>
<polygon fill="midnightblue" stroke="midnightblue" points="586.561,-84.9596 595.655,-79.5231 585.156,-78.1021 586.561,-84.9596"/>
</g>
<!-- Node13 -->
<g id="node27" class="node"><title>Node13</title>
<a xlink:href="../../d2/de9/Exceptions_8hpp.xhtml" target="_top" xlink:title="This class defines the ComPWA exception base&#45;class and provides a set of standard exceptions...">
<polygon fill="white" stroke="black" points="276,-58.5 276,-79.5 384,-79.5 384,-58.5 276,-58.5"/>
<text text-anchor="middle" x="330" y="-66.5" font-family="Helvetica,sans-Serif" font-size="10.00">Core/Exceptions.hpp</text>
</a>
</g>
<!-- Node4&#45;&gt;Node13 -->
<g id="edge28" class="edge"><title>Node4&#45;&gt;Node13</title>
<path fill="none" stroke="midnightblue" d="M357.764,-116.362C353.163,-108.513 346.775,-97.6159 341.286,-88.2527"/>
<polygon fill="midnightblue" stroke="midnightblue" points="344.273,-86.4276 336.197,-79.5707 338.234,-89.9677 344.273,-86.4276"/>
</g>
<!-- Node9&#45;&gt;Node2 -->
<g id="edge20" class="edge"><title>Node9&#45;&gt;Node2</title>
<path fill="none" stroke="midnightblue" d="M585.775,-62.3749C471.731,-50.0344 230.449,-23.9254 143.276,-14.4925"/>
<polygon fill="midnightblue" stroke="midnightblue" points="143.511,-10.9977 133.193,-13.4015 142.758,-17.957 143.511,-10.9977"/>
</g>
<!-- Node9&#45;&gt;Node6 -->
<g id="edge18" class="edge"><title>Node9&#45;&gt;Node6</title>
<path fill="none" stroke="midnightblue" d="M608.065,-58.4966C566.365,-47.2473 501.041,-29.6249 462.782,-19.3041"/>
<polygon fill="midnightblue" stroke="midnightblue" points="463.318,-15.8235 452.752,-16.5981 461.495,-22.5819 463.318,-15.8235"/>
</g>
<!-- Node10 -->
<g id="node21" class="node"><title>Node10</title>
<polygon fill="white" stroke="#bfbfbf" points="705,-0.5 705,-21.5 757,-21.5 757,-0.5 705,-0.5"/>
<text text-anchor="middle" x="731" y="-8.5" font-family="Helvetica,sans-Serif" font-size="10.00">memory</text>
</g>
<!-- Node9&#45;&gt;Node10 -->
<g id="edge22" class="edge"><title>Node9&#45;&gt;Node10</title>
<path fill="none" stroke="midnightblue" d="M662.407,-58.3619C674.958,-49.6955 692.892,-37.3126 707.275,-27.3819"/>
<polygon fill="midnightblue" stroke="midnightblue" points="709.45,-30.1327 715.691,-21.5707 705.473,-24.3725 709.45,-30.1327"/>
</g>
<!-- Node11 -->
<g id="node23" class="node"><title>Node11</title>
<polygon fill="white" stroke="#bfbfbf" points="623,-0.5 623,-21.5 679,-21.5 679,-0.5 623,-0.5"/>
<text text-anchor="middle" x="651" y="-8.5" font-family="Helvetica,sans-Serif" font-size="10.00">algorithm</text>
</g>
<!-- Node9&#45;&gt;Node11 -->
<g id="edge24" class="edge"><title>Node9&#45;&gt;Node11</title>
<path fill="none" stroke="midnightblue" d="M647.734,-58.3619C648.247,-50.9219 648.949,-40.7427 649.571,-31.7276"/>
<polygon fill="midnightblue" stroke="midnightblue" points="653.075,-31.7878 650.271,-21.5707 646.091,-31.3061 653.075,-31.7878"/>
</g>
<!-- Node12 -->
<g id="node25" class="node"><title>Node12</title>
<a xlink:href="../../d9/d91/ParObserver_8hpp.xhtml" target="_top" xlink:title="For the use in the function tree, the observer pattern is used.">
<polygon fill="white" stroke="black" points="491,-0.5 491,-21.5 605,-21.5 605,-0.5 491,-0.5"/>
<text text-anchor="middle" x="548" y="-8.5" font-family="Helvetica,sans-Serif" font-size="10.00">Core/ParObserver.hpp</text>
</a>
</g>
<!-- Node9&#45;&gt;Node12 -->
<g id="edge26" class="edge"><title>Node9&#45;&gt;Node12</title>
<path fill="none" stroke="midnightblue" d="M628.842,-58.3619C613.77,-49.532 592.113,-36.844 575.007,-26.8224"/>
<polygon fill="midnightblue" stroke="midnightblue" points="576.441,-23.6058 566.043,-21.5707 572.902,-29.6456 576.441,-23.6058"/>
</g>
<!-- Node13&#45;&gt;Node6 -->
<g id="edge32" class="edge"><title>Node13&#45;&gt;Node6</title>
<path fill="none" stroke="midnightblue" d="M348.708,-58.3619C364.381,-49.4502 386.964,-36.6087 404.663,-26.5447"/>
<polygon fill="midnightblue" stroke="midnightblue" points="406.447,-29.5562 413.41,-21.5707 402.987,-23.4712 406.447,-29.5562"/>
</g>
<!-- Node14 -->
<g id="node29" class="node"><title>Node14</title>
<polygon fill="white" stroke="#bfbfbf" points="300.5,-0.5 300.5,-21.5 359.5,-21.5 359.5,-0.5 300.5,-0.5"/>
<text text-anchor="middle" x="330" y="-8.5" font-family="Helvetica,sans-Serif" font-size="10.00">exception</text>
</g>
<!-- Node13&#45;&gt;Node14 -->
<g id="edge30" class="edge"><title>Node13&#45;&gt;Node14</title>
<path fill="none" stroke="midnightblue" d="M330,-58.3619C330,-50.9219 330,-40.7427 330,-31.7276"/>
<polygon fill="midnightblue" stroke="midnightblue" points="333.5,-31.5706 330,-21.5707 326.5,-31.5707 333.5,-31.5706"/>
</g>
<!-- Node15&#45;&gt;Node4 -->
<g id="edge46" class="edge"><title>Node15&#45;&gt;Node4</title>
<path fill="none" stroke="midnightblue" d="M633.362,-232.488C590.188,-225.102 535.558,-213.388 489,-196 451.936,-182.158 412.499,-158.755 388.055,-143.093"/>
<polygon fill="midnightblue" stroke="midnightblue" points="389.75,-140.02 379.458,-137.506 385.935,-145.889 389.75,-140.02"/>
</g>
<!-- Node15&#45;&gt;Node5 -->
<g id="edge44" class="edge"><title>Node15&#45;&gt;Node5</title>
<path fill="none" stroke="midnightblue" d="M714.664,-232.341C724.662,-213.451 745.987,-172.807 763,-138 770.948,-121.74 779.558,-103.112 785.843,-89.3127"/>
<polygon fill="midnightblue" stroke="midnightblue" points="789.205,-90.3737 790.146,-79.8208 782.829,-87.4831 789.205,-90.3737"/>
</g>
<!-- Node16 -->
<g id="node36" class="node"><title>Node16</title>
<polygon fill="white" stroke="#bfbfbf" points="877.5,-174.5 877.5,-195.5 922.5,-195.5 922.5,-174.5 877.5,-174.5"/>
<text text-anchor="middle" x="900" y="-182.5" font-family="Helvetica,sans-Serif" font-size="10.00">cstdlib</text>
</g>
<!-- Node15&#45;&gt;Node16 -->
<g id="edge40" class="edge"><title>Node15&#45;&gt;Node16</title>
<path fill="none" stroke="midnightblue" d="M747.004,-232.475C777.441,-223.904 821.425,-211.201 867.757,-196.305"/>
<polygon fill="midnightblue" stroke="midnightblue" points="868.926,-199.605 877.362,-193.195 866.77,-192.945 868.926,-199.605"/>
</g>
<!-- Node17 -->
<g id="node38" class="node"><title>Node17</title>
<polygon fill="white" stroke="#bfbfbf" points="813.5,-174.5 813.5,-195.5 860.5,-195.5 860.5,-174.5 813.5,-174.5"/>
<text text-anchor="middle" x="837" y="-182.5" font-family="Helvetica,sans-Serif" font-size="10.00">math.h</text>
</g>
<!-- Node15&#45;&gt;Node17 -->
<g id="edge42" class="edge"><title>Node15&#45;&gt;Node17</title>
<path fill="none" stroke="midnightblue" d="M732.18,-232.497C752.352,-223.356 781.81,-210.008 804.364,-199.788"/>
<polygon fill="midnightblue" stroke="midnightblue" points="805.896,-202.937 813.56,-195.621 803.007,-196.561 805.896,-202.937"/>
</g>
<!-- Node18&#45;&gt;Node2 -->
<g id="edge50" class="edge"><title>Node18&#45;&gt;Node2</title>
<path fill="none" stroke="midnightblue" d="M430.244,-291.002C312.167,-276.918 124.596,-247.076 78,-196 36.6625,-150.688 56.4861,-115.053 79,-58 82.9382,-48.0199 89.3005,-38.0423 95.3186,-29.864"/>
<polygon fill="midnightblue" stroke="midnightblue" points="98.2237,-31.8291 101.583,-21.7809 92.6907,-27.5412 98.2237,-31.8291"/>
</g>
<!-- Node19 -->
<g id="node45" class="node"><title>Node19</title>
<polygon fill="white" stroke="#bfbfbf" points="539,-232.5 539,-253.5 587,-253.5 587,-232.5 539,-232.5"/>
<text text-anchor="middle" x="563" y="-240.5" font-family="Helvetica,sans-Serif" font-size="10.00">qft++.h</text>
</g>
<!-- Node18&#45;&gt;Node19 -->
<g id="edge52" class="edge"><title>Node18&#45;&gt;Node19</title>
<path fill="none" stroke="midnightblue" d="M535.236,-290.362C539.837,-282.513 546.225,-271.616 551.714,-262.253"/>
<polygon fill="midnightblue" stroke="midnightblue" points="554.766,-263.968 556.803,-253.571 548.727,-260.428 554.766,-263.968"/>
</g>
<!-- Node20 -->
<g id="node47" class="node"><title>Node20</title>
<a xlink:href="../../d1/d72/DPKinematics_8hpp.xhtml" target="_top" xlink:title="DPKinematics stores kinematic information of a dalitz plot.">
<polygon fill="white" stroke="black" points="939.5,-174.5 939.5,-195.5 1142.5,-195.5 1142.5,-174.5 939.5,-174.5"/>
<text text-anchor="middle" x="1041" y="-182.5" font-family="Helvetica,sans-Serif" font-size="10.00">Physics/DPKinematics/DPKinematics.hpp</text>
</a>
</g>
<!-- Node18&#45;&gt;Node20 -->
<g id="edge54" class="edge"><title>Node18&#45;&gt;Node20</title>
<path fill="none" stroke="midnightblue" d="M627.694,-297.529C762.925,-291.882 992.516,-278.762 1022,-254 1035.86,-242.361 1040.1,-221.631 1041.18,-205.922"/>
<polygon fill="midnightblue" stroke="midnightblue" points="1044.69,-205.676 1041.5,-195.573 1037.69,-205.46 1044.69,-205.676"/>
</g>
<!-- Node21 -->
<g id="node50" class="node"><title>Node21</title>
<a xlink:href="../../d8/dd4/DataPoint_8hpp.xhtml" target="_top" xlink:title="dataPoint stores kinematic information of a dalitz plot">
<polygon fill="white" stroke="black" points="830.5,-232.5 830.5,-253.5 1013.5,-253.5 1013.5,-232.5 830.5,-232.5"/>
<text text-anchor="middle" x="922" y="-240.5" font-family="Helvetica,sans-Serif" font-size="10.00">Physics/DPKinematics/DataPoint.hpp</text>
</a>
</g>
<!-- Node18&#45;&gt;Node21 -->
<g id="edge58" class="edge"><title>Node18&#45;&gt;Node21</title>
<path fill="none" stroke="midnightblue" d="M600.169,-290.497C667.845,-280.509 769.56,-265.498 840.467,-255.033"/>
<polygon fill="midnightblue" stroke="midnightblue" points="841.315,-258.446 850.697,-253.523 840.293,-251.521 841.315,-258.446"/>
</g>
<!-- Node22 -->
<g id="node55" class="node"><title>Node22</title>
<a xlink:href="../../df/d9f/ParameterList_8hpp.xhtml" target="_top" xlink:title="This class provides a list of fit parameters which can have different types.">
<polygon fill="white" stroke="black" points="498,-174.5 498,-195.5 618,-195.5 618,-174.5 498,-174.5"/>
<text text-anchor="middle" x="558" y="-182.5" font-family="Helvetica,sans-Serif" font-size="10.00">Core/ParameterList.hpp</text>
</a>
</g>
<!-- Node18&#45;&gt;Node22 -->
<g id="edge66" class="edge"><title>Node18&#45;&gt;Node22</title>
<path fill="none" stroke="midnightblue" d="M527.494,-290.471C525.9,-276.726 524.322,-252.058 530,-232 532.782,-222.173 538.167,-212.309 543.478,-204.173"/>
<polygon fill="midnightblue" stroke="midnightblue" points="546.456,-206.021 549.299,-195.815 540.712,-202.021 546.456,-206.021"/>
</g>
<!-- Node18&#45;&gt;Node24 -->
<g id="edge86" class="edge"><title>Node18&#45;&gt;Node24</title>
<path fill="none" stroke="midnightblue" d="M511.209,-290.362C496.441,-281.532 475.222,-268.844 458.462,-258.822"/>
<polygon fill="midnightblue" stroke="midnightblue" points="460.057,-255.699 449.679,-253.571 456.465,-261.707 460.057,-255.699"/>
</g>
<!-- Node20&#45;&gt;Node5 -->
<g id="edge56" class="edge"><title>Node20&#45;&gt;Node5</title>
<path fill="none" stroke="midnightblue" d="M1018.3,-174.295C974.16,-153.482 876.704,-107.527 826.403,-83.808"/>
<polygon fill="midnightblue" stroke="midnightblue" points="827.83,-80.6111 817.292,-79.5117 824.844,-86.9425 827.83,-80.6111"/>
</g>
<!-- Node21&#45;&gt;Node16 -->
<g id="edge60" class="edge"><title>Node21&#45;&gt;Node16</title>
<path fill="none" stroke="midnightblue" d="M917.965,-232.362C915.081,-224.758 911.112,-214.294 907.637,-205.135"/>
<polygon fill="midnightblue" stroke="midnightblue" points="910.829,-203.679 904.01,-195.571 904.284,-206.162 910.829,-203.679"/>
</g>
<!-- Node21&#45;&gt;Node17 -->
<g id="edge62" class="edge"><title>Node21&#45;&gt;Node17</title>
<path fill="none" stroke="midnightblue" d="M906.41,-232.362C893.709,-223.696 875.562,-211.313 861.008,-201.382"/>
<polygon fill="midnightblue" stroke="midnightblue" points="862.724,-198.316 852.491,-195.571 858.779,-204.098 862.724,-198.316"/>
</g>
<!-- Node21&#45;&gt;Node20 -->
<g id="edge64" class="edge"><title>Node21&#45;&gt;Node20</title>
<path fill="none" stroke="midnightblue" d="M943.55,-232.497C962.136,-223.438 989.202,-210.246 1010.1,-200.063"/>
<polygon fill="midnightblue" stroke="midnightblue" points="1011.75,-203.149 1019.21,-195.621 1008.69,-196.856 1011.75,-203.149"/>
</g>
<!-- Node22&#45;&gt;Node2 -->
<g id="edge76" class="edge"><title>Node22&#45;&gt;Node2</title>
<path fill="none" stroke="midnightblue" d="M556.71,-174.294C553.077,-149.28 540.319,-86.9355 501,-58 472.362,-36.9246 231.556,-18.9954 143.275,-13.0733"/>
<polygon fill="midnightblue" stroke="midnightblue" points="143.261,-9.56472 133.051,-12.3955 142.798,-16.5494 143.261,-9.56472"/>
</g>
<!-- Node22&#45;&gt;Node4 -->
<g id="edge82" class="edge"><title>Node22&#45;&gt;Node4</title>
<path fill="none" stroke="midnightblue" d="M522.868,-174.497C490.967,-164.959 443.743,-150.841 409.072,-140.475"/>
<polygon fill="midnightblue" stroke="midnightblue" points="409.781,-137.034 399.198,-137.523 407.776,-143.741 409.781,-137.034"/>
</g>
<!-- Node22&#45;&gt;Node5 -->
<g id="edge68" class="edge"><title>Node22&#45;&gt;Node5</title>
<path fill="none" stroke="midnightblue" d="M618.067,-178.809C654.971,-172.798 701.922,-161.017 738,-138 757.526,-125.543 773.638,-104.199 783.693,-88.5403"/>
<polygon fill="midnightblue" stroke="midnightblue" points="786.898,-90.0093 789.146,-79.6558 780.932,-86.3473 786.898,-90.0093"/>
</g>
<!-- Node22&#45;&gt;Node6 -->
<g id="edge70" class="edge"><title>Node22&#45;&gt;Node6</title>
<path fill="none" stroke="midnightblue" d="M559.047,-174.15C560.739,-150.415 561.48,-93.1965 534,-58 516.44,-35.5091 485.624,-23.3732 462.446,-17.1031"/>
<polygon fill="midnightblue" stroke="midnightblue" points="463.275,-13.7026 452.726,-14.6903 461.588,-20.4964 463.275,-13.7026"/>
</g>
<!-- Node22&#45;&gt;Node7 -->
<g id="edge74" class="edge"><title>Node22&#45;&gt;Node7</title>
<path fill="none" stroke="midnightblue" d="M544.095,-174.437C532.942,-165.519 517.333,-151.997 506,-138 493.682,-122.786 482.77,-103.333 475.468,-88.9618"/>
<polygon fill="midnightblue" stroke="midnightblue" points="478.58,-87.3588 471.016,-79.9395 472.302,-90.456 478.58,-87.3588"/>
</g>
<!-- Node22&#45;&gt;Node9 -->
<g id="edge80" class="edge"><title>Node22&#45;&gt;Node9</title>
<path fill="none" stroke="midnightblue" d="M582.47,-174.481C598.001,-166.598 617.309,-154.355 629,-138 639.097,-123.875 643.533,-104.517 645.481,-89.8993"/>
<polygon fill="midnightblue" stroke="midnightblue" points="648.977,-90.1205 646.537,-79.8103 642.015,-89.3914 648.977,-90.1205"/>
</g>
<!-- Node22&#45;&gt;Node10 -->
<g id="edge72" class="edge"><title>Node22&#45;&gt;Node10</title>
<path fill="none" stroke="midnightblue" d="M588.411,-174.433C625.797,-159.679 687.858,-129.061 717,-80 725.669,-65.4055 729.052,-46.3398 730.334,-31.9489"/>
<polygon fill="midnightblue" stroke="midnightblue" points="733.851,-31.7808 730.972,-21.5847 726.864,-31.3508 733.851,-31.7808"/>
</g>
<!-- Node22&#45;&gt;Node13 -->
<g id="edge84" class="edge"><title>Node22&#45;&gt;Node13</title>
<path fill="none" stroke="midnightblue" d="M537.783,-174.358C511.769,-160.701 465.143,-136.341 425,-116 403.614,-105.164 379.389,-93.1834 360.755,-84.0305"/>
<polygon fill="midnightblue" stroke="midnightblue" points="362.084,-80.7841 351.565,-79.5228 359.002,-87.0688 362.084,-80.7841"/>
</g>
<!-- Node23 -->
<g id="node62" class="node"><title>Node23</title>
<polygon fill="white" stroke="#bfbfbf" points="585.5,-116.5 585.5,-137.5 620.5,-137.5 620.5,-116.5 585.5,-116.5"/>
<text text-anchor="middle" x="603" y="-124.5" font-family="Helvetica,sans-Serif" font-size="10.00">map</text>
</g>
<!-- Node22&#45;&gt;Node23 -->
<g id="edge78" class="edge"><title>Node22&#45;&gt;Node23</title>
<path fill="none" stroke="midnightblue" d="M566.254,-174.362C572.47,-166.35 581.151,-155.161 588.515,-145.67"/>
<polygon fill="midnightblue" stroke="midnightblue" points="591.434,-147.617 594.799,-137.571 585.903,-143.326 591.434,-147.617"/>
</g>
<!-- Node24&#45;&gt;Node2 -->
<g id="edge88" class="edge"><title>Node24&#45;&gt;Node2</title>
<path fill="none" stroke="midnightblue" d="M380.732,-239.512C291.063,-232.886 113.469,-217.223 95,-196 54.3773,-149.319 83.6694,-68.6305 100.869,-31.1788"/>
<polygon fill="midnightblue" stroke="midnightblue" points="104.184,-32.3587 105.331,-21.8262 97.866,-29.3444 104.184,-32.3587"/>
</g>
<!-- Node24&#45;&gt;Node4 -->
<g id="edge96" class="edge"><title>Node24&#45;&gt;Node4</title>
<path fill="none" stroke="midnightblue" d="M429.704,-232.111C426.4,-217.976 419.414,-192.888 408,-174 401.538,-163.307 392.33,-152.991 384.006,-144.761"/>
<polygon fill="midnightblue" stroke="midnightblue" points="386.377,-142.186 376.715,-137.84 381.558,-147.263 386.377,-142.186"/>
</g>
<!-- Node24&#45;&gt;Node9 -->
<g id="edge98" class="edge"><title>Node24&#45;&gt;Node9</title>
<path fill="none" stroke="midnightblue" d="M483.064,-236.251C533.475,-228.635 605.98,-214.81 627,-196 656.662,-169.457 654.704,-118.268 650.785,-89.6486"/>
<polygon fill="midnightblue" stroke="midnightblue" points="654.208,-88.8864 649.191,-79.5552 647.294,-89.9789 654.208,-88.8864"/>
</g>
<!-- Node24&#45;&gt;Node13 -->
<g id="edge92" class="edge"><title>Node24&#45;&gt;Node13</title>
<path fill="none" stroke="midnightblue" d="M425.378,-232.482C415.747,-217.851 396.644,-191.218 375,-174 347.002,-151.727 321.809,-168.434 303,-138 293.255,-122.233 303.035,-102.355 313.446,-87.9888"/>
<polygon fill="midnightblue" stroke="midnightblue" points="316.42,-89.8694 319.842,-79.8425 310.914,-85.5467 316.42,-89.8694"/>
</g>
<!-- Node24&#45;&gt;Node17 -->
<g id="edge90" class="edge"><title>Node24&#45;&gt;Node17</title>
<path fill="none" stroke="midnightblue" d="M483.294,-235.654C567.314,-223.622 732.021,-200.034 803.06,-189.861"/>
<polygon fill="midnightblue" stroke="midnightblue" points="803.833,-193.286 813.236,-188.403 802.84,-186.356 803.833,-193.286"/>
</g>
<!-- Node24&#45;&gt;Node22 -->
<g id="edge94" class="edge"><title>Node24&#45;&gt;Node22</title>
<path fill="none" stroke="midnightblue" d="M454.818,-232.497C474.586,-223.397 503.413,-210.127 525.576,-199.925"/>
<polygon fill="midnightblue" stroke="midnightblue" points="527.306,-202.982 534.926,-195.621 524.379,-196.623 527.306,-202.982"/>
</g>
</g>
</svg>
