<?xml version="1.0" encoding="UTF-8" standalone="no"?>
<!DOCTYPE svg PUBLIC "-//W3C//DTD SVG 1.1//EN"
 "http://www.w3.org/Graphics/SVG/1.1/DTD/svg11.dtd">
<!-- Generated by graphviz version 2.36.0 (20140111.2315)
 -->
<!-- Title: /home/travis/build/ComPWA/ComPWA/Physics/HelicityFormalism/HelicityKinematics.cpp Pages: 1 -->
<!--zoomable 478 -->
<svg id="main" version="1.1" xmlns="http://www.w3.org/2000/svg" xmlns:xlink="http://www.w3.org/1999/xlink" xml:space="preserve" onload="init(evt)">
<style type="text/css"><![CDATA[
.edge:hover path { stroke: red; }
.edge:hover polygon { stroke: red; fill: red; }
]]></style>
<script type="text/javascript"><![CDATA[
var edges = document.getElementsByTagName('g');
if (edges && edges.length) {
  for (var i=0;i<edges.length;i++) {
    if (edges[i].id.substr(0,4)=='edge') {
      edges[i].setAttribute('class','edge');
    }
  }
}
]]></script>
        <defs>
                <circle id="rim" cx="0" cy="0" r="7"/>
                <circle id="rim2" cx="0" cy="0" r="3.5"/>
                <g id="zoomPlus">
                        <use xlink:href="#rim" fill="#404040">
                                <set attributeName="fill" to="#808080" begin="zoomplus.mouseover" end="zoomplus.mouseout"/>
                        </use>
                        <path d="M-4,0h8M0,-4v8" fill="none" stroke="white" stroke-width="1.5" pointer-events="none"/>
                </g>
                <g id="zoomMin">
                        <use xlink:href="#rim" fill="#404040">
                                <set attributeName="fill" to="#808080" begin="zoomminus.mouseover" end="zoomminus.mouseout"/>
                        </use>
                        <path d="M-4,0h8" fill="none" stroke="white" stroke-width="1.5" pointer-events="none"/>
                </g>
                <g id="dirArrow">
                        <path fill="none" stroke="white" stroke-width="1.5" d="M0,-3.0v7 M-2.5,-0.5L0,-3.0L2.5,-0.5"/>
                </g>
               <g id="resetDef">
                       <use xlink:href="#rim2" fill="#404040">
                               <set attributeName="fill" to="#808080" begin="reset.mouseover" end="reset.mouseout"/>
                       </use>
               </g>
        </defs>

<script type="text/javascript">
var viewWidth = 1173;
var viewHeight = 478;
var sectionId = 'dynsection-0';
</script>
<script xlink:href="../../svgpan.js"/>
<svg id="graph" class="graph">
<g id="viewport">
<title>/home/travis/build/ComPWA/ComPWA/Physics/HelicityFormalism/HelicityKinematics.cpp</title>
<polygon fill="white" stroke="none" points="-4,4 -4,-474 1168.94,-474 1168.94,4 -4,4"/>
<!-- Node1 -->
<g id="node1" class="node"><title>Node1</title>
<polygon fill="#bfbfbf" stroke="black" points="103.424,-428.5 103.424,-469.5 305.424,-469.5 305.424,-428.5 103.424,-428.5"/>
<text text-anchor="start" x="111.424" y="-457.5" font-family="Helvetica,sans-Serif" font-size="10.00">/home/travis/build</text>
<text text-anchor="start" x="111.424" y="-446.5" font-family="Helvetica,sans-Serif" font-size="10.00">/ComPWA/ComPWA/Physics</text>
<text text-anchor="middle" x="204.424" y="-435.5" font-family="Helvetica,sans-Serif" font-size="10.00">/HelicityFormalism/HelicityKinematics.cpp</text>
</g>
<!-- Node2 -->
<g id="node2" class="node"><title>Node2</title>
<polygon fill="white" stroke="#bfbfbf" points="30.9244,-124.5 30.9244,-143.5 81.9244,-143.5 81.9244,-124.5 30.9244,-124.5"/>
<text text-anchor="middle" x="56.4244" y="-131.5" font-family="Helvetica,sans-Serif" font-size="10.00">numeric</text>
</g>
<!-- Node1&#45;&gt;Node2 -->
<g id="edge1" class="edge"><title>Node1&#45;&gt;Node2</title>
<path fill="none" stroke="midnightblue" d="M145.899,-428.371C98.1067,-408.21 38.4244,-371.685 38.4244,-315 38.4244,-315 38.4244,-315 38.4244,-257 38.4244,-219.85 46.6941,-177.011 52.0229,-153.263"/>
<polygon fill="midnightblue" stroke="midnightblue" points="55.4338,-154.048 54.2889,-143.515 48.6156,-152.463 55.4338,-154.048"/>
</g>
<!-- Node3 -->
<g id="node3" class="node"><title>Node3</title>
<polygon fill="white" stroke="#bfbfbf" points="145.424,-62.5 145.424,-81.5 189.424,-81.5 189.424,-62.5 145.424,-62.5"/>
<text text-anchor="middle" x="167.424" y="-69.5" font-family="Helvetica,sans-Serif" font-size="10.00">cmath</text>
</g>
<!-- Node1&#45;&gt;Node3 -->
<g id="edge2" class="edge"><title>Node1&#45;&gt;Node3</title>
<path fill="none" stroke="midnightblue" d="M120.272,-428.475C64.0779,-409.873 0.424444,-375.459 0.424444,-315 0.424444,-315 0.424444,-315 0.424444,-195 0.424444,-162.093 -1.27333,-147.826 21.4244,-124 51.504,-92.4254 102.186,-80.3869 135.219,-75.8048"/>
<polygon fill="midnightblue" stroke="midnightblue" points="135.779,-79.2623 145.276,-74.5638 134.922,-72.315 135.779,-79.2623"/>
</g>
<!-- Node4 -->
<g id="node4" class="node"><title>Node4</title>
<polygon fill="white" stroke="#bfbfbf" points="139.424,-124.5 139.424,-143.5 195.424,-143.5 195.424,-124.5 139.424,-124.5"/>
<text text-anchor="middle" x="167.424" y="-131.5" font-family="Helvetica,sans-Serif" font-size="10.00">algorithm</text>
</g>
<!-- Node1&#45;&gt;Node4 -->
<g id="edge3" class="edge"><title>Node1&#45;&gt;Node4</title>
<path fill="none" stroke="midnightblue" d="M165.325,-428.372C127.682,-406.386 76.4244,-366.916 76.4244,-315 76.4244,-315 76.4244,-315 76.4244,-257 76.4244,-210.506 119.415,-170.29 146.299,-149.686"/>
<polygon fill="midnightblue" stroke="midnightblue" points="148.429,-152.464 154.386,-143.703 144.266,-146.837 148.429,-152.464"/>
</g>
<!-- Node5 -->
<g id="node5" class="node"><title>Node5</title>
<g id="a_node5"><a xlink:href="../../df/d7d/Event_8hpp.html" target="_top" xlink:title="This class provides a internal container for event&#45;based information. ">
<polygon fill="white" stroke="black" points="283.924,-248.5 283.924,-267.5 368.924,-267.5 368.924,-248.5 283.924,-248.5"/>
<text text-anchor="middle" x="326.424" y="-255.5" font-family="Helvetica,sans-Serif" font-size="10.00">Core/Event.hpp</text>
</a>
</g>
</g>
<!-- Node1&#45;&gt;Node5 -->
<g id="edge4" class="edge"><title>Node1&#45;&gt;Node5</title>
<path fill="none" stroke="midnightblue" d="M217.021,-428.486C240.95,-391.415 292.613,-311.38 315.327,-276.191"/>
<polygon fill="midnightblue" stroke="midnightblue" points="318.436,-277.829 320.919,-267.529 312.555,-274.032 318.436,-277.829"/>
</g>
<!-- Node9 -->
<g id="node9" class="node"><title>Node9</title>
<g id="a_node9"><a xlink:href="../../d3/d65/Particle_8hpp.html" target="_top" xlink:title="This class provides a internal container for information of a particle. ">
<polygon fill="white" stroke="red" points="158.424,-186.5 158.424,-205.5 250.424,-205.5 250.424,-186.5 158.424,-186.5"/>
<text text-anchor="middle" x="204.424" y="-193.5" font-family="Helvetica,sans-Serif" font-size="10.00">Core/Particle.hpp</text>
</a>
</g>
</g>
<!-- Node1&#45;&gt;Node9 -->
<g id="edge19" class="edge"><title>Node1&#45;&gt;Node9</title>
<path fill="none" stroke="midnightblue" d="M193.884,-428.494C177.113,-396.229 145.062,-329.219 133.424,-268 131.764,-259.267 129.368,-255.909 133.424,-248 142.029,-231.226 159,-218.722 174.192,-210.294"/>
<polygon fill="midnightblue" stroke="midnightblue" points="176.054,-213.272 183.331,-205.572 172.84,-207.053 176.054,-213.272"/>
</g>
<!-- Node10 -->
<g id="node10" class="node"><title>Node10</title>
<g id="a_node10"><a xlink:href="../../d8/dd4/DataPoint_8hpp.html" target="_top" xlink:title="dataPoint stores kinematic information of a dalitz plot ">
<polygon fill="white" stroke="black" points="570.924,-186.5 570.924,-205.5 673.924,-205.5 673.924,-186.5 570.924,-186.5"/>
<text text-anchor="middle" x="622.424" y="-193.5" font-family="Helvetica,sans-Serif" font-size="10.00">Core/DataPoint.hpp</text>
</a>
</g>
</g>
<!-- Node1&#45;&gt;Node10 -->
<g id="edge14" class="edge"><title>Node1&#45;&gt;Node10</title>
<path fill="none" stroke="midnightblue" d="M305.69,-440.025C400.224,-431.31 533.553,-415.396 580.424,-392 618.948,-372.771 632.803,-363.718 649.424,-324 664.951,-286.9 645.72,-239.825 632.639,-214.7"/>
<polygon fill="midnightblue" stroke="midnightblue" points="635.558,-212.743 627.689,-205.649 629.416,-216.102 635.558,-212.743"/>
</g>
<!-- Node14 -->
<g id="node14" class="node"><title>Node14</title>
<g id="a_node14"><a xlink:href="../../dc/ded/Properties_8hpp.html" target="_top" xlink:title="Core/Properties.hpp">
<polygon fill="white" stroke="black" points="826.424,-248.5 826.424,-267.5 930.424,-267.5 930.424,-248.5 826.424,-248.5"/>
<text text-anchor="middle" x="878.424" y="-255.5" font-family="Helvetica,sans-Serif" font-size="10.00">Core/Properties.hpp</text>
</a>
</g>
</g>
<!-- Node1&#45;&gt;Node14 -->
<g id="edge20" class="edge"><title>Node1&#45;&gt;Node14</title>
<path fill="none" stroke="midnightblue" d="M305.641,-441.804C424.97,-433.514 615.525,-416.908 682.424,-392 756.362,-364.472 829.561,-303.505 861.601,-274.681"/>
<polygon fill="midnightblue" stroke="midnightblue" points="864.147,-277.096 869.175,-267.771 859.429,-271.925 864.147,-277.096"/>
</g>
<!-- Node21 -->
<g id="node21" class="node"><title>Node21</title>
<g id="a_node21"><a xlink:href="../../d0/dab/HelicityKinematics_8hpp.html" target="_top" xlink:title="Contains HelicityKinematics class. ">
<polygon fill="white" stroke="black" points="437.424,-361 437.424,-391 571.424,-391 571.424,-361 437.424,-361"/>
<text text-anchor="start" x="445.424" y="-379" font-family="Helvetica,sans-Serif" font-size="10.00">Physics/HelicityFormalism</text>
<text text-anchor="middle" x="504.424" y="-368" font-family="Helvetica,sans-Serif" font-size="10.00">/HelicityKinematics.hpp</text>
</a>
</g>
</g>
<!-- Node1&#45;&gt;Node21 -->
<g id="edge45" class="edge"><title>Node1&#45;&gt;Node21</title>
<path fill="none" stroke="midnightblue" d="M287.195,-428.411C333.793,-417.383 391.305,-403.772 435.445,-393.325"/>
<polygon fill="midnightblue" stroke="midnightblue" points="436.295,-396.721 445.22,-391.012 434.683,-389.909 436.295,-396.721"/>
</g>
<!-- Node23 -->
<g id="node23" class="node"><title>Node23</title>
<g id="a_node23"><a xlink:href="../../d7/d36/Vector4_8h.html" target="_top" xlink:title="Vector4 template class definition file. ">
<polygon fill="white" stroke="black" points="142.924,-248.5 142.924,-267.5 265.924,-267.5 265.924,-248.5 142.924,-248.5"/>
<text text-anchor="middle" x="204.424" y="-255.5" font-family="Helvetica,sans-Serif" font-size="10.00">Physics/qft++/Vector4.h</text>
</a>
</g>
</g>
<!-- Node1&#45;&gt;Node23 -->
<g id="edge54" class="edge"><title>Node1&#45;&gt;Node23</title>
<path fill="none" stroke="midnightblue" d="M204.424,-428.486C204.424,-391.891 204.424,-313.425 204.424,-277.567"/>
<polygon fill="midnightblue" stroke="midnightblue" points="207.925,-277.529 204.424,-267.529 200.925,-277.529 207.925,-277.529"/>
</g>
<!-- Node6 -->
<g id="node6" class="node"><title>Node6</title>
<polygon fill="white" stroke="#bfbfbf" points="522.424,-124.5 522.424,-143.5 566.424,-143.5 566.424,-124.5 522.424,-124.5"/>
<text text-anchor="middle" x="544.424" y="-131.5" font-family="Helvetica,sans-Serif" font-size="10.00">vector</text>
</g>
<!-- Node5&#45;&gt;Node6 -->
<g id="edge5" class="edge"><title>Node5&#45;&gt;Node6</title>
<path fill="none" stroke="midnightblue" d="M356.899,-248.428C381.86,-240.746 417.626,-228.198 446.424,-212 462.969,-202.694 502.868,-169.975 526.338,-150.308"/>
<polygon fill="midnightblue" stroke="midnightblue" points="528.769,-152.836 534.168,-143.72 524.263,-147.48 528.769,-152.836"/>
</g>
<!-- Node7 -->
<g id="node7" class="node"><title>Node7</title>
<polygon fill="white" stroke="#bfbfbf" points="744.924,-0.5 744.924,-19.5 785.924,-19.5 785.924,-0.5 744.924,-0.5"/>
<text text-anchor="middle" x="765.424" y="-7.5" font-family="Helvetica,sans-Serif" font-size="10.00">string</text>
</g>
<!-- Node5&#45;&gt;Node7 -->
<g id="edge6" class="edge"><title>Node5&#45;&gt;Node7</title>
<path fill="none" stroke="midnightblue" d="M323.631,-248.23C314.308,-217.068 287.723,-110.631 340.424,-56 367.74,-27.6845 641.534,-15.3988 734.63,-12.018"/>
<polygon fill="midnightblue" stroke="midnightblue" points="734.941,-15.5092 744.811,-11.6578 734.694,-8.51362 734.941,-15.5092"/>
</g>
<!-- Node8 -->
<g id="node8" class="node"><title>Node8</title>
<polygon fill="white" stroke="#bfbfbf" points="522.424,-62.5 522.424,-81.5 576.424,-81.5 576.424,-62.5 522.424,-62.5"/>
<text text-anchor="middle" x="549.424" y="-69.5" font-family="Helvetica,sans-Serif" font-size="10.00">iostream</text>
</g>
<!-- Node5&#45;&gt;Node8 -->
<g id="edge7" class="edge"><title>Node5&#45;&gt;Node8</title>
<path fill="none" stroke="midnightblue" d="M330.735,-248.468C338.35,-233.776 355.114,-203.058 373.424,-180 395.51,-152.189 400.929,-143.78 430.424,-124 455.856,-106.946 487.92,-93.5998 512.355,-84.8451"/>
<polygon fill="midnightblue" stroke="midnightblue" points="513.692,-88.0858 521.983,-81.4902 511.388,-81.4755 513.692,-88.0858"/>
</g>
<!-- Node5&#45;&gt;Node9 -->
<g id="edge8" class="edge"><title>Node5&#45;&gt;Node9</title>
<path fill="none" stroke="midnightblue" d="M308.945,-248.403C288.561,-238.379 254.649,-221.701 231,-210.07"/>
<polygon fill="midnightblue" stroke="midnightblue" points="232.39,-206.853 221.872,-205.581 229.301,-213.135 232.39,-206.853"/>
</g>
<!-- Node9&#45;&gt;Node2 -->
<g id="edge10" class="edge"><title>Node9&#45;&gt;Node2</title>
<path fill="none" stroke="midnightblue" d="M183.22,-186.403C158.052,-176.2 115.885,-159.105 87.1454,-147.454"/>
<polygon fill="midnightblue" stroke="midnightblue" points="88.1723,-144.094 77.5899,-143.581 85.5423,-150.581 88.1723,-144.094"/>
</g>
<!-- Node9&#45;&gt;Node3 -->
<g id="edge12" class="edge"><title>Node9&#45;&gt;Node3</title>
<path fill="none" stroke="midnightblue" d="M205.896,-186.429C207.886,-172.812 210.438,-145.571 203.424,-124 199.268,-111.216 190.688,-98.8485 182.948,-89.4942"/>
<polygon fill="midnightblue" stroke="midnightblue" points="185.449,-87.0382 176.225,-81.8253 180.185,-91.6524 185.449,-87.0382"/>
</g>
<!-- Node9&#45;&gt;Node4 -->
<g id="edge11" class="edge"><title>Node9&#45;&gt;Node4</title>
<path fill="none" stroke="midnightblue" d="M199.123,-186.403C193.628,-177.493 184.891,-163.325 177.98,-152.118"/>
<polygon fill="midnightblue" stroke="midnightblue" points="180.944,-150.255 172.716,-143.581 174.986,-153.929 180.944,-150.255"/>
</g>
<!-- Node9&#45;&gt;Node6 -->
<g id="edge9" class="edge"><title>Node9&#45;&gt;Node6</title>
<path fill="none" stroke="midnightblue" d="M250.649,-188.965C309.214,-180.961 413.383,-165.536 512.266,-143.802"/>
<polygon fill="midnightblue" stroke="midnightblue" points="513.123,-147.197 522.124,-141.61 511.603,-140.364 513.123,-147.197"/>
</g>
<!-- Node9&#45;&gt;Node8 -->
<g id="edge13" class="edge"><title>Node9&#45;&gt;Node8</title>
<path fill="none" stroke="midnightblue" d="M223.5,-186.499C255.269,-172.505 321.186,-144.16 378.424,-124 424.035,-107.936 477.599,-92.5009 512.46,-82.9001"/>
<polygon fill="midnightblue" stroke="midnightblue" points="513.489,-86.2472 522.211,-80.2325 511.642,-79.4953 513.489,-86.2472"/>
</g>
<!-- Node10&#45;&gt;Node6 -->
<g id="edge17" class="edge"><title>Node10&#45;&gt;Node6</title>
<path fill="none" stroke="midnightblue" d="M611.249,-186.403C598.854,-176.869 578.634,-161.315 563.678,-149.811"/>
<polygon fill="midnightblue" stroke="midnightblue" points="565.639,-146.904 555.579,-143.581 561.371,-152.452 565.639,-146.904"/>
</g>
<!-- Node11 -->
<g id="node11" class="node"><title>Node11</title>
<polygon fill="white" stroke="#bfbfbf" points="458.924,-124.5 458.924,-143.5 503.924,-143.5 503.924,-124.5 458.924,-124.5"/>
<text text-anchor="middle" x="481.424" y="-131.5" font-family="Helvetica,sans-Serif" font-size="10.00">cstdlib</text>
</g>
<!-- Node10&#45;&gt;Node11 -->
<g id="edge15" class="edge"><title>Node10&#45;&gt;Node11</title>
<path fill="none" stroke="midnightblue" d="M602.223,-186.403C578.35,-176.245 538.423,-159.255 511.052,-147.607"/>
<polygon fill="midnightblue" stroke="midnightblue" points="512.161,-144.276 501.589,-143.581 509.42,-150.717 512.161,-144.276"/>
</g>
<!-- Node12 -->
<g id="node12" class="node"><title>Node12</title>
<polygon fill="white" stroke="#bfbfbf" points="598.924,-124.5 598.924,-143.5 645.924,-143.5 645.924,-124.5 598.924,-124.5"/>
<text text-anchor="middle" x="622.424" y="-131.5" font-family="Helvetica,sans-Serif" font-size="10.00">math.h</text>
</g>
<!-- Node10&#45;&gt;Node12 -->
<g id="edge16" class="edge"><title>Node10&#45;&gt;Node12</title>
<path fill="none" stroke="midnightblue" d="M622.424,-186.403C622.424,-177.938 622.424,-164.728 622.424,-153.82"/>
<polygon fill="midnightblue" stroke="midnightblue" points="625.925,-153.581 622.424,-143.581 618.925,-153.581 625.925,-153.581"/>
</g>
<!-- Node13 -->
<g id="node13" class="node"><title>Node13</title>
<polygon fill="white" stroke="#bfbfbf" points="752.924,-124.5 752.924,-143.5 787.924,-143.5 787.924,-124.5 752.924,-124.5"/>
<text text-anchor="middle" x="770.424" y="-131.5" font-family="Helvetica,sans-Serif" font-size="10.00">map</text>
</g>
<!-- Node10&#45;&gt;Node13 -->
<g id="edge18" class="edge"><title>Node10&#45;&gt;Node13</title>
<path fill="none" stroke="midnightblue" d="M643.629,-186.403C669.798,-175.795 714.345,-157.735 743.067,-146.091"/>
<polygon fill="midnightblue" stroke="midnightblue" points="744.558,-149.263 752.51,-142.263 741.928,-142.776 744.558,-149.263"/>
</g>
<!-- Node14&#45;&gt;Node6 -->
<g id="edge21" class="edge"><title>Node14&#45;&gt;Node6</title>
<path fill="none" stroke="midnightblue" d="M830.137,-248.491C798.058,-241.58 755.698,-229.98 721.424,-212 701.569,-201.584 702.088,-190.772 682.424,-180 648.372,-161.345 605.32,-148.845 576.437,-141.848"/>
<polygon fill="midnightblue" stroke="midnightblue" points="577.014,-138.389 566.479,-139.518 575.419,-145.205 577.014,-138.389"/>
</g>
<!-- Node15 -->
<g id="node15" class="node"><title>Node15</title>
<polygon fill="white" stroke="#bfbfbf" points="1043.92,-57 1043.92,-87 1144.92,-87 1144.92,-57 1043.92,-57"/>
<text text-anchor="start" x="1051.92" y="-75" font-family="Helvetica,sans-Serif" font-size="10.00">boost/property_tree</text>
<text text-anchor="middle" x="1094.42" y="-64" font-family="Helvetica,sans-Serif" font-size="10.00">/ptree.hpp</text>
</g>
<!-- Node14&#45;&gt;Node15 -->
<g id="edge22" class="edge"><title>Node14&#45;&gt;Node15</title>
<path fill="none" stroke="midnightblue" d="M930.473,-254.434C992.01,-250.183 1088.94,-239.246 1111.42,-212 1138.4,-179.319 1120.76,-126.706 1106.76,-96.4511"/>
<polygon fill="midnightblue" stroke="midnightblue" points="1109.74,-94.5731 1102.22,-87.1091 1103.44,-97.6331 1109.74,-94.5731"/>
</g>
<!-- Node16 -->
<g id="node16" class="node"><title>Node16</title>
<polygon fill="white" stroke="#bfbfbf" points="827.924,-181 827.924,-211 928.924,-211 928.924,-181 827.924,-181"/>
<text text-anchor="start" x="835.924" y="-199" font-family="Helvetica,sans-Serif" font-size="10.00">boost/property_tree</text>
<text text-anchor="middle" x="878.424" y="-188" font-family="Helvetica,sans-Serif" font-size="10.00">/xml_parser.hpp</text>
</g>
<!-- Node14&#45;&gt;Node16 -->
<g id="edge23" class="edge"><title>Node14&#45;&gt;Node16</title>
<path fill="none" stroke="midnightblue" d="M878.424,-248.403C878.424,-241.341 878.424,-230.975 878.424,-221.399"/>
<polygon fill="midnightblue" stroke="midnightblue" points="881.925,-221.141 878.424,-211.141 874.925,-221.141 881.925,-221.141"/>
</g>
<!-- Node17 -->
<g id="node17" class="node"><title>Node17</title>
<g id="a_node17"><a xlink:href="../../d2/de9/Exceptions_8hpp.html" target="_top" xlink:title="This class defines the ComPWA exception base&#45;class and provides a set of standard exceptions...">
<polygon fill="white" stroke="red" points="880.424,-62.5 880.424,-81.5 988.424,-81.5 988.424,-62.5 880.424,-62.5"/>
<text text-anchor="middle" x="934.424" y="-69.5" font-family="Helvetica,sans-Serif" font-size="10.00">Core/Exceptions.hpp</text>
</a>
</g>
</g>
<!-- Node14&#45;&gt;Node17 -->
<g id="edge24" class="edge"><title>Node14&#45;&gt;Node17</title>
<path fill="none" stroke="midnightblue" d="M930.538,-253.413C987.211,-248.3 1072.42,-236.651 1092.42,-212 1136.17,-158.099 1027.94,-107.637 969.23,-85.2027"/>
<polygon fill="midnightblue" stroke="midnightblue" points="970.17,-81.8176 959.578,-81.5953 967.72,-88.3747 970.17,-81.8176"/>
</g>
<!-- Node18 -->
<g id="node18" class="node"><title>Node18</title>
<g id="a_node18"><a xlink:href="../../db/dce/Parameter_8hpp.html" target="_top" xlink:title="This class implements some internal container of parameters. ">
<polygon fill="white" stroke="red" points="882.424,-124.5 882.424,-143.5 986.424,-143.5 986.424,-124.5 882.424,-124.5"/>
<text text-anchor="middle" x="934.424" y="-131.5" font-family="Helvetica,sans-Serif" font-size="10.00">Core/Parameter.hpp</text>
</a>
</g>
</g>
<!-- Node14&#45;&gt;Node18 -->
<g id="edge26" class="edge"><title>Node14&#45;&gt;Node18</title>
<path fill="none" stroke="midnightblue" d="M930.474,-252.35C982.608,-246.486 1057.6,-234.356 1075.42,-212 1102.35,-178.234 1045.12,-157.146 995.694,-145.751"/>
<polygon fill="midnightblue" stroke="midnightblue" points="996.137,-142.265 985.619,-143.533 994.632,-149.102 996.137,-142.265"/>
</g>
<!-- Node19 -->
<g id="node19" class="node"><title>Node19</title>
<g id="a_node19"><a xlink:href="../../df/d9f/ParameterList_8hpp.html" target="_top" xlink:title="This class provides a list of fit parameters which can have different types. ">
<polygon fill="white" stroke="red" points="947.424,-186.5 947.424,-205.5 1067.42,-205.5 1067.42,-186.5 947.424,-186.5"/>
<text text-anchor="middle" x="1007.42" y="-193.5" font-family="Helvetica,sans-Serif" font-size="10.00">Core/ParameterList.hpp</text>
</a>
</g>
</g>
<!-- Node14&#45;&gt;Node19 -->
<g id="edge32" class="edge"><title>Node14&#45;&gt;Node19</title>
<path fill="none" stroke="midnightblue" d="M896.907,-248.403C918.556,-238.334 954.637,-221.552 979.657,-209.915"/>
<polygon fill="midnightblue" stroke="midnightblue" points="981.385,-212.971 988.976,-205.581 978.433,-206.624 981.385,-212.971"/>
</g>
<!-- Node20 -->
<g id="node20" class="node"><title>Node20</title>
<g id="a_node20"><a xlink:href="../../d9/dfb/Spin_8hpp.html" target="_top" xlink:title="Core/Spin.hpp">
<polygon fill="white" stroke="black" points="730.924,-186.5 730.924,-205.5 809.924,-205.5 809.924,-186.5 730.924,-186.5"/>
<text text-anchor="middle" x="770.424" y="-193.5" font-family="Helvetica,sans-Serif" font-size="10.00">Core/Spin.hpp</text>
</a>
</g>
</g>
<!-- Node14&#45;&gt;Node20 -->
<g id="edge39" class="edge"><title>Node14&#45;&gt;Node20</title>
<path fill="none" stroke="midnightblue" d="M862.951,-248.403C845.147,-238.512 815.684,-222.144 794.792,-210.538"/>
<polygon fill="midnightblue" stroke="midnightblue" points="796.311,-207.378 785.87,-205.581 792.911,-213.497 796.311,-207.378"/>
</g>
<!-- Node17&#45;&gt;Node7 -->
<g id="edge25" class="edge"><title>Node17&#45;&gt;Node7</title>
<path fill="none" stroke="midnightblue" d="M910.211,-62.4035C880.021,-51.685 828.407,-33.3608 795.653,-21.732"/>
<polygon fill="midnightblue" stroke="midnightblue" points="796.733,-18.4014 786.138,-18.3539 794.391,-24.998 796.733,-18.4014"/>
</g>
<!-- Node18&#45;&gt;Node3 -->
<g id="edge29" class="edge"><title>Node18&#45;&gt;Node3</title>
<path fill="none" stroke="midnightblue" d="M882.308,-128.923C735.175,-117.413 319.544,-84.8998 199.975,-75.5463"/>
<polygon fill="midnightblue" stroke="midnightblue" points="199.902,-72.03 189.66,-74.7394 199.356,-79.0087 199.902,-72.03"/>
</g>
<!-- Node18&#45;&gt;Node7 -->
<g id="edge28" class="edge"><title>Node18&#45;&gt;Node7</title>
<path fill="none" stroke="midnightblue" d="M922.326,-124.402C909.628,-115.367 889.093,-100.727 871.424,-88 841.387,-66.3632 806.7,-41.1163 785.415,-25.5944"/>
<polygon fill="midnightblue" stroke="midnightblue" points="787.308,-22.6427 777.167,-19.5765 783.182,-28.2978 787.308,-22.6427"/>
</g>
<!-- Node18&#45;&gt;Node8 -->
<g id="edge27" class="edge"><title>Node18&#45;&gt;Node8</title>
<path fill="none" stroke="midnightblue" d="M882.101,-124.846C803.095,-112.533 655.285,-89.4978 586.455,-78.771"/>
<polygon fill="midnightblue" stroke="midnightblue" points="586.919,-75.3011 576.499,-77.2195 585.841,-82.2177 586.919,-75.3011"/>
</g>
<!-- Node18&#45;&gt;Node15 -->
<g id="edge30" class="edge"><title>Node18&#45;&gt;Node15</title>
<path fill="none" stroke="midnightblue" d="M957.349,-124.403C980.716,-115.641 1017.64,-101.794 1047.28,-90.6789"/>
<polygon fill="midnightblue" stroke="midnightblue" points="1048.89,-93.8138 1057.02,-87.0253 1046.43,-87.2595 1048.89,-93.8138"/>
</g>
<!-- Node18&#45;&gt;Node17 -->
<g id="edge31" class="edge"><title>Node18&#45;&gt;Node17</title>
<path fill="none" stroke="midnightblue" d="M934.424,-124.403C934.424,-115.938 934.424,-102.728 934.424,-91.8199"/>
<polygon fill="midnightblue" stroke="midnightblue" points="937.925,-91.5806 934.424,-81.5806 930.925,-91.5806 937.925,-91.5806"/>
</g>
<!-- Node19&#45;&gt;Node6 -->
<g id="edge35" class="edge"><title>Node19&#45;&gt;Node6</title>
<path fill="none" stroke="midnightblue" d="M971.233,-186.466C960.404,-184.123 948.473,-181.75 937.424,-180 783.847,-155.674 743.165,-167.273 589.424,-144 585.375,-143.387 581.137,-142.657 576.95,-141.882"/>
<polygon fill="midnightblue" stroke="midnightblue" points="577.267,-138.379 566.783,-139.904 575.93,-145.25 577.267,-138.379"/>
</g>
<!-- Node19&#45;&gt;Node7 -->
<g id="edge34" class="edge"><title>Node19&#45;&gt;Node7</title>
<path fill="none" stroke="midnightblue" d="M1029.68,-186.415C1081.19,-165.37 1200.68,-109.051 1153.42,-56 1129.75,-29.4163 883.844,-16.1661 796.222,-12.2621"/>
<polygon fill="midnightblue" stroke="midnightblue" points="796.255,-8.76027 786.112,-11.8221 795.95,-15.7537 796.255,-8.76027"/>
</g>
<!-- Node19&#45;&gt;Node8 -->
<g id="edge33" class="edge"><title>Node19&#45;&gt;Node8</title>
<path fill="none" stroke="midnightblue" d="M984.908,-186.419C946.621,-172.055 866.194,-142.867 796.424,-124 722.983,-104.14 635.452,-87.7451 586.788,-79.2604"/>
<polygon fill="midnightblue" stroke="midnightblue" points="587.174,-75.7754 576.724,-77.5222 585.982,-82.6732 587.174,-75.7754"/>
</g>
<!-- Node19&#45;&gt;Node13 -->
<g id="edge36" class="edge"><title>Node19&#45;&gt;Node13</title>
<path fill="none" stroke="midnightblue" d="M973.72,-186.467C926.495,-174.512 841.54,-153.004 797.917,-141.96"/>
<polygon fill="midnightblue" stroke="midnightblue" points="798.567,-138.514 788.014,-139.453 796.849,-145.3 798.567,-138.514"/>
</g>
<!-- Node19&#45;&gt;Node17 -->
<g id="edge38" class="edge"><title>Node19&#45;&gt;Node17</title>
<path fill="none" stroke="midnightblue" d="M1007.83,-186.045C1008.06,-171.901 1006.87,-143.951 995.424,-124 986.661,-108.727 971.485,-96.0119 958.463,-87.0976"/>
<polygon fill="midnightblue" stroke="midnightblue" points="960.193,-84.0482 949.897,-81.5487 956.387,-89.9232 960.193,-84.0482"/>
</g>
<!-- Node19&#45;&gt;Node18 -->
<g id="edge37" class="edge"><title>Node19&#45;&gt;Node18</title>
<path fill="none" stroke="midnightblue" d="M996.965,-186.403C985.473,-176.958 966.795,-161.606 952.838,-150.134"/>
<polygon fill="midnightblue" stroke="midnightblue" points="954.812,-147.226 944.864,-143.581 950.367,-152.634 954.812,-147.226"/>
</g>
<!-- Node20&#45;&gt;Node6 -->
<g id="edge42" class="edge"><title>Node20&#45;&gt;Node6</title>
<path fill="none" stroke="midnightblue" d="M739.889,-186.432C732.234,-184.307 724.034,-182.052 716.424,-180 667.676,-166.853 611,-152.134 576.43,-143.22"/>
<polygon fill="midnightblue" stroke="midnightblue" points="577.002,-139.753 566.445,-140.648 575.256,-146.532 577.002,-139.753"/>
</g>
<!-- Node20&#45;&gt;Node7 -->
<g id="edge40" class="edge"><title>Node20&#45;&gt;Node7</title>
<path fill="none" stroke="midnightblue" d="M764.004,-186.152C757.352,-176.391 747.385,-159.946 743.424,-144 733.404,-103.654 747.88,-55.2667 757.683,-29.4203"/>
<polygon fill="midnightblue" stroke="midnightblue" points="761.061,-30.3977 761.513,-19.8125 754.559,-27.8054 761.061,-30.3977"/>
</g>
<!-- Node20&#45;&gt;Node8 -->
<g id="edge43" class="edge"><title>Node20&#45;&gt;Node8</title>
<path fill="none" stroke="midnightblue" d="M757.448,-186.484C736.259,-172.71 692.744,-144.969 654.424,-124 628.987,-110.08 599.182,-95.7882 577.84,-85.8887"/>
<polygon fill="midnightblue" stroke="midnightblue" points="579.222,-82.6721 568.675,-81.6665 576.293,-89.0298 579.222,-82.6721"/>
</g>
<!-- Node20&#45;&gt;Node13 -->
<g id="edge41" class="edge"><title>Node20&#45;&gt;Node13</title>
<path fill="none" stroke="midnightblue" d="M770.424,-186.403C770.424,-177.938 770.424,-164.728 770.424,-153.82"/>
<polygon fill="midnightblue" stroke="midnightblue" points="773.925,-153.581 770.424,-143.581 766.925,-153.581 773.925,-153.581"/>
</g>
<!-- Node20&#45;&gt;Node17 -->
<g id="edge44" class="edge"><title>Node20&#45;&gt;Node17</title>
<path fill="none" stroke="midnightblue" d="M781.957,-186.421C809.531,-165.908 879.562,-113.813 914.28,-87.9858"/>
<polygon fill="midnightblue" stroke="midnightblue" points="916.751,-90.5095 922.686,-81.7326 912.573,-84.8931 916.751,-90.5095"/>
</g>
<!-- Node21&#45;&gt;Node6 -->
<g id="edge46" class="edge"><title>Node21&#45;&gt;Node6</title>
<path fill="none" stroke="midnightblue" d="M506.807,-360.706C513.691,-319.401 533.61,-199.888 541.323,-153.611"/>
<polygon fill="midnightblue" stroke="midnightblue" points="544.814,-153.955 543.005,-143.515 537.909,-152.804 544.814,-153.955"/>
</g>
<!-- Node22 -->
<g id="node22" class="node"><title>Node22</title>
<g id="a_node22"><a xlink:href="../../d4/d37/Kinematics_8hpp.html" target="_top" xlink:title="Core/Kinematics.hpp">
<polygon fill="white" stroke="red" points="532.424,-304.5 532.424,-323.5 640.424,-323.5 640.424,-304.5 532.424,-304.5"/>
<text text-anchor="middle" x="586.424" y="-311.5" font-family="Helvetica,sans-Serif" font-size="10.00">Core/Kinematics.hpp</text>
</a>
</g>
</g>
<!-- Node21&#45;&gt;Node22 -->
<g id="edge47" class="edge"><title>Node21&#45;&gt;Node22</title>
<path fill="none" stroke="midnightblue" d="M523.857,-360.781C536.633,-351.433 553.314,-339.227 566.239,-329.77"/>
<polygon fill="midnightblue" stroke="midnightblue" points="568.489,-332.46 574.493,-323.731 564.356,-326.811 568.489,-332.46"/>
</g>
<!-- Node22&#45;&gt;Node5 -->
<g id="edge50" class="edge"><title>Node22&#45;&gt;Node5</title>
<path fill="none" stroke="midnightblue" d="M545.227,-304.444C499.775,-295.004 426.582,-279.802 377.515,-269.611"/>
<polygon fill="midnightblue" stroke="midnightblue" points="377.932,-266.123 367.429,-267.516 376.509,-272.977 377.932,-266.123"/>
</g>
<!-- Node22&#45;&gt;Node6 -->
<g id="edge48" class="edge"><title>Node22&#45;&gt;Node6</title>
<path fill="none" stroke="midnightblue" d="M584.21,-304.371C579.756,-286.947 569.454,-246.297 561.424,-212 556.754,-192.049 551.734,-169.107 548.369,-153.491"/>
<polygon fill="midnightblue" stroke="midnightblue" points="551.759,-152.606 546.241,-143.562 544.915,-154.073 551.759,-152.606"/>
</g>
<!-- Node22&#45;&gt;Node7 -->
<g id="edge49" class="edge"><title>Node22&#45;&gt;Node7</title>
<path fill="none" stroke="midnightblue" d="M535.926,-304.488C463.672,-289.624 342.694,-253.271 373.424,-180 432.815,-38.3946 652.856,-15.303 734.593,-11.645"/>
<polygon fill="midnightblue" stroke="midnightblue" points="734.879,-15.1368 744.739,-11.2609 734.614,-8.14183 734.879,-15.1368"/>
</g>
<!-- Node22&#45;&gt;Node10 -->
<g id="edge53" class="edge"><title>Node22&#45;&gt;Node10</title>
<path fill="none" stroke="midnightblue" d="M589.13,-304.281C594.97,-285.463 608.863,-240.697 616.733,-215.34"/>
<polygon fill="midnightblue" stroke="midnightblue" points="620.164,-216.093 619.785,-205.505 613.478,-214.018 620.164,-216.093"/>
</g>
<!-- Node22&#45;&gt;Node14 -->
<g id="edge51" class="edge"><title>Node22&#45;&gt;Node14</title>
<path fill="none" stroke="midnightblue" d="M632.693,-304.444C684.165,-294.925 767.317,-279.547 822.423,-269.356"/>
<polygon fill="midnightblue" stroke="midnightblue" points="823.176,-272.777 832.373,-267.516 821.903,-265.893 823.176,-272.777"/>
</g>
<!-- Node22&#45;&gt;Node20 -->
<g id="edge52" class="edge"><title>Node22&#45;&gt;Node20</title>
<path fill="none" stroke="midnightblue" d="M599.954,-304.47C631.323,-284.694 709.279,-235.548 747.943,-211.173"/>
<polygon fill="midnightblue" stroke="midnightblue" points="750.282,-213.836 756.875,-205.542 746.549,-207.915 750.282,-213.836"/>
</g>
<!-- Node23&#45;&gt;Node3 -->
<g id="edge55" class="edge"><title>Node23&#45;&gt;Node3</title>
<path fill="none" stroke="midnightblue" d="M189.4,-248.37C176.919,-240.449 159.615,-227.595 149.424,-212 132.26,-185.731 134.686,-175.089 130.424,-144 129.217,-135.193 127.681,-132.455 130.424,-124 134.613,-111.095 143.428,-98.7232 151.403,-89.3973"/>
<polygon fill="midnightblue" stroke="midnightblue" points="154.205,-91.518 158.335,-81.7611 149.022,-86.8131 154.205,-91.518"/>
</g>
<!-- Node23&#45;&gt;Node9 -->
<g id="edge60" class="edge"><title>Node23&#45;&gt;Node9</title>
<path fill="none" stroke="midnightblue" d="M204.424,-248.403C204.424,-239.938 204.424,-226.728 204.424,-215.82"/>
<polygon fill="midnightblue" stroke="midnightblue" points="207.925,-215.581 204.424,-205.581 200.925,-215.581 207.925,-215.581"/>
</g>
<!-- Node24 -->
<g id="node24" class="node"><title>Node24</title>
<g id="a_node24"><a xlink:href="../../df/d11/Tensor_8h.html" target="_top" xlink:title="Tensor template class definition file. ">
<polygon fill="white" stroke="red" points="382.924,-186.5 382.924,-205.5 437.924,-205.5 437.924,-186.5 382.924,-186.5"/>
<text text-anchor="middle" x="410.424" y="-193.5" font-family="Helvetica,sans-Serif" font-size="10.00">Tensor.h</text>
</a>
</g>
</g>
<!-- Node23&#45;&gt;Node24 -->
<g id="edge56" class="edge"><title>Node23&#45;&gt;Node24</title>
<path fill="none" stroke="midnightblue" d="M233.939,-248.403C270.553,-237.739 333.017,-219.546 372.971,-207.909"/>
<polygon fill="midnightblue" stroke="midnightblue" points="373.992,-211.257 382.614,-205.1 372.034,-204.536 373.992,-211.257"/>
</g>
<!-- Node24&#45;&gt;Node6 -->
<g id="edge58" class="edge"><title>Node24&#45;&gt;Node6</title>
<path fill="none" stroke="midnightblue" d="M429.623,-186.403C452.211,-176.29 489.923,-159.404 515.925,-147.761"/>
<polygon fill="midnightblue" stroke="midnightblue" points="517.565,-150.862 525.261,-143.581 514.704,-144.473 517.565,-150.862"/>
</g>
<!-- Node24&#45;&gt;Node8 -->
<g id="edge57" class="edge"><title>Node24&#45;&gt;Node8</title>
<path fill="none" stroke="midnightblue" d="M413.366,-186.062C418.567,-171.439 430.646,-142.211 449.424,-124 467.541,-106.431 492.916,-93.587 513.571,-85.183"/>
<polygon fill="midnightblue" stroke="midnightblue" points="514.931,-88.4097 522.982,-81.523 512.393,-81.8857 514.931,-88.4097"/>
</g>
<!-- Node24&#45;&gt;Node11 -->
<g id="edge59" class="edge"><title>Node24&#45;&gt;Node11</title>
<path fill="none" stroke="midnightblue" d="M420.597,-186.403C431.774,-176.958 449.941,-161.606 463.516,-150.134"/>
<polygon fill="midnightblue" stroke="midnightblue" points="465.892,-152.709 471.271,-143.581 461.374,-147.362 465.892,-152.709"/>
</g>
</g>
</svg>
        <g id="navigator" transform="translate(0 0)" fill="#404254">
                <rect fill="#f2f5e9" fill-opacity="0.5" stroke="#606060" stroke-width=".5" x="0" y="0" width="60" height="60"/>
                <use id="zoomplus" xlink:href="#zoomPlus" x="17" y="9" onmousedown="handleZoom(evt,'in')"/>
                <use id="zoomminus" xlink:href="#zoomMin" x="42" y="9" onmousedown="handleZoom(evt,'out')"/>
                <use id="reset" xlink:href="#resetDef" x="30" y="36" onmousedown="handleReset()"/>
                <g id="arrowUp" xlink:href="#dirArrow" transform="translate(30 24)" onmousedown="handlePan(0,-1)">
                  <use xlink:href="#rim" fill="#404040">
                        <set attributeName="fill" to="#808080" begin="arrowUp.mouseover" end="arrowUp.mouseout"/>
                  </use>
                  <path fill="none" stroke="white" stroke-width="1.5" d="M0,-3.0v7 M-2.5,-0.5L0,-3.0L2.5,-0.5"/>
                </g>
                <g id="arrowRight" xlink:href="#dirArrow" transform="rotate(90) translate(36 -43)" onmousedown="handlePan(1,0)">
                  <use xlink:href="#rim" fill="#404040">
                        <set attributeName="fill" to="#808080" begin="arrowRight.mouseover" end="arrowRight.mouseout"/>
                  </use>
                  <path fill="none" stroke="white" stroke-width="1.5" d="M0,-3.0v7 M-2.5,-0.5L0,-3.0L2.5,-0.5"/>
                </g>
                <g id="arrowDown" xlink:href="#dirArrow" transform="rotate(180) translate(-30 -48)" onmousedown="handlePan(0,1)">
                  <use xlink:href="#rim" fill="#404040">
                        <set attributeName="fill" to="#808080" begin="arrowDown.mouseover" end="arrowDown.mouseout"/>
                  </use>
                  <path fill="none" stroke="white" stroke-width="1.5" d="M0,-3.0v7 M-2.5,-0.5L0,-3.0L2.5,-0.5"/>
                </g>
                <g id="arrowLeft" xlink:href="#dirArrow" transform="rotate(270) translate(-36 17)" onmousedown="handlePan(-1,0)">
                  <use xlink:href="#rim" fill="#404040">
                        <set attributeName="fill" to="#808080" begin="arrowLeft.mouseover" end="arrowLeft.mouseout"/>
                  </use>
                  <path fill="none" stroke="white" stroke-width="1.5" d="M0,-3.0v7 M-2.5,-0.5L0,-3.0L2.5,-0.5"/>
                </g>
        </g>
        <svg viewBox="0 0 15 15" width="100%" height="30px" preserveAspectRatio="xMaxYMin meet">
         <g id="arrow_out" transform="scale(0.3 0.3)">
          <a xlink:href="HelicityKinematics_8cpp__incl_org.svg" target="_base">
           <rect id="button" ry="5" rx="5" y="6" x="6" height="38" width="38"
                fill="#f2f5e9" fill-opacity="0.5" stroke="#606060" stroke-width="1.0"/>
           <path id="arrow"
             d="M 11.500037,31.436501 C 11.940474,20.09759 22.043105,11.32322 32.158766,21.979434 L 37.068811,17.246167 C 37.068811,17.246167 37.088388,32 37.088388,32 L 22.160133,31.978069 C 22.160133,31.978069 26.997745,27.140456 26.997745,27.140456 C 18.528582,18.264221 13.291696,25.230495 11.500037,31.436501 z"
             style="fill:#404040;"/>
          </a>
         </g>
        </svg>
</svg>
