<?xml version="1.0" encoding="UTF-8" standalone="no"?>
<!DOCTYPE svg PUBLIC "-//W3C//DTD SVG 1.1//EN"
 "http://www.w3.org/Graphics/SVG/1.1/DTD/svg11.dtd">
<!-- Generated by graphviz version 2.26.3 (20100126.1600)
 -->
<!-- Title: G Pages: 1 -->
<svg width="616pt" height="88pt"
 viewBox="0.00 0.00 616.00 88.00" xmlns="http://www.w3.org/2000/svg" xmlns:xlink="http://www.w3.org/1999/xlink">
<g id="graph1" class="graph" transform="scale(1 1) rotate(0) translate(4 84)">
<title>G</title>
<polygon fill="white" stroke="white" points="-4,5 -4,-84 613,-84 613,5 -4,5"/>
<!-- Node1 -->
<g id="node1" class="node"><title>Node1</title>
<polygon fill="#bfbfbf" stroke="black" points="234,-58.5 234,-79.5 394,-79.5 394,-58.5 234,-58.5"/>
<text text-anchor="middle" x="314" y="-66.5" font-family="Helvetica,sans-Serif" font-size="10.00">Optimizer/Geneva/GenevaIF.hpp</text>
</g>
<!-- Node2 -->
<g id="node3" class="node"><title>Node2</title>
<a xlink:href="../../db/d24/GenevaIF_8cpp.xhtml" target="_top" xlink:title="Optimizer/Geneva/GenevaIF.cpp">
<polygon fill="white" stroke="black" points="0,-0.5 0,-21.5 160,-21.5 160,-0.5 0,-0.5"/>
<text text-anchor="middle" x="80" y="-8.5" font-family="Helvetica,sans-Serif" font-size="10.00">Optimizer/Geneva/GenevaIF.cpp</text>
</a>
</g>
<!-- Node1&#45;&gt;Node2 -->
<g id="edge2" class="edge"><title>Node1&#45;&gt;Node2</title>
<path fill="none" stroke="midnightblue" d="M261.861,-56.0766C219.883,-45.6718 161.62,-31.2306 122.455,-21.5231"/>
<polygon fill="midnightblue" stroke="midnightblue" points="261.076,-59.4879 271.624,-58.4966 262.76,-52.6935 261.076,-59.4879"/>
</g>
<!-- Node3 -->
<g id="node5" class="node"><title>Node3</title>
<a xlink:href="../../d4/d5e/GenevaTestApp_8cpp.xhtml" target="_top" xlink:title="test/GenevaTestApp.cpp">
<polygon fill="white" stroke="black" points="177.5,-0.5 177.5,-21.5 302.5,-21.5 302.5,-0.5 177.5,-0.5"/>
<text text-anchor="middle" x="240" y="-8.5" font-family="Helvetica,sans-Serif" font-size="10.00">test/GenevaTestApp.cpp</text>
</a>
</g>
<!-- Node1&#45;&gt;Node3 -->
<g id="edge4" class="edge"><title>Node1&#45;&gt;Node3</title>
<path fill="none" stroke="midnightblue" d="M292.279,-51.9753C279.72,-42.1315 264.311,-30.0545 253.487,-21.5707"/>
<polygon fill="midnightblue" stroke="midnightblue" points="290.398,-54.9478 300.427,-58.3619 294.716,-49.4383 290.398,-54.9478"/>
</g>
<!-- Node4 -->
<g id="node7" class="node"><title>Node4</title>
<a xlink:href="../../dc/d3f/NeuralNetworkApp_8cpp.xhtml" target="_top" xlink:title="test/NeuralNetworkApp.cpp">
<polygon fill="white" stroke="black" points="319.5,-0.5 319.5,-21.5 456.5,-21.5 456.5,-0.5 319.5,-0.5"/>
<text text-anchor="middle" x="388" y="-8.5" font-family="Helvetica,sans-Serif" font-size="10.00">test/NeuralNetworkApp.cpp</text>
</a>
</g>
<!-- Node1&#45;&gt;Node4 -->
<g id="edge6" class="edge"><title>Node1&#45;&gt;Node4</title>
<path fill="none" stroke="midnightblue" d="M335.721,-51.9753C348.28,-42.1315 363.689,-30.0545 374.513,-21.5707"/>
<polygon fill="midnightblue" stroke="midnightblue" points="333.284,-49.4383 327.573,-58.3619 337.602,-54.9478 333.284,-49.4383"/>
</g>
<!-- Node5 -->
<g id="node9" class="node"><title>Node5</title>
<a xlink:href="../../d4/db7/OptimizerTestApp_8cpp.xhtml" target="_top" xlink:title="Test&#45;Application of the Optimizer&#45;IF.">
<polygon fill="white" stroke="black" points="474,-0.5 474,-21.5 608,-21.5 608,-0.5 474,-0.5"/>
<text text-anchor="middle" x="541" y="-8.5" font-family="Helvetica,sans-Serif" font-size="10.00">test/OptimizerTestApp.cpp</text>
</a>
</g>
<!-- Node1&#45;&gt;Node5 -->
<g id="edge8" class="edge"><title>Node1&#45;&gt;Node5</title>
<path fill="none" stroke="midnightblue" d="M364.838,-56.0107C405.54,-45.6109 461.902,-31.2102 499.815,-21.5231"/>
<polygon fill="midnightblue" stroke="midnightblue" points="363.93,-52.63 355.108,-58.4966 365.663,-59.4121 363.93,-52.63"/>
</g>
</g>
</svg>
