<?xml version="1.0" encoding="UTF-8" standalone="no"?>
<!DOCTYPE svg PUBLIC "-//W3C//DTD SVG 1.1//EN"
 "http://www.w3.org/Graphics/SVG/1.1/DTD/svg11.dtd">
<!-- Generated by graphviz version 2.36.0 (20140111.2315)
 -->
<!-- Title: /home/travis/build/ComPWA/ComPWA/Optimizer/Geneva/GenevaIF.hpp Pages: 1 -->
<svg width="980pt" height="218pt"
 viewBox="0.00 0.00 980.00 218.00" xmlns="http://www.w3.org/2000/svg" xmlns:xlink="http://www.w3.org/1999/xlink">
<g id="graph0" class="graph" transform="scale(1 1) rotate(0) translate(4 214)">
<title>/home/travis/build/ComPWA/ComPWA/Optimizer/Geneva/GenevaIF.hpp</title>
<polygon fill="white" stroke="none" points="-4,4 -4,-214 976,-214 976,4 -4,4"/>
<!-- Node1 -->
<g id="node1" class="node"><title>Node1</title>
<polygon fill="#bfbfbf" stroke="black" points="378,-168.5 378,-209.5 534,-209.5 534,-168.5 378,-168.5"/>
<text text-anchor="start" x="386" y="-197.5" font-family="Helvetica,sans-Serif" font-size="10.00">/home/travis/build</text>
<text text-anchor="start" x="386" y="-186.5" font-family="Helvetica,sans-Serif" font-size="10.00">/ComPWA/ComPWA/Optimizer</text>
<text text-anchor="middle" x="456" y="-175.5" font-family="Helvetica,sans-Serif" font-size="10.00">/Geneva/GenevaIF.hpp</text>
</g>
<!-- Node2 -->
<g id="node2" class="node"><title>Node2</title>
<g id="a_node2"><a xlink:href="../../d6/d0a/PythonFit_8cpp.html" target="_top" xlink:title="/home/travis/build\l/ComPWA/ComPWA/Examples\l/PythonDalitzFit/PythonFit.cpp">
<polygon fill="white" stroke="black" points="0,-6.5 0,-47.5 158,-47.5 158,-6.5 0,-6.5"/>
<text text-anchor="start" x="8" y="-35.5" font-family="Helvetica,sans-Serif" font-size="10.00">/home/travis/build</text>
<text text-anchor="start" x="8" y="-24.5" font-family="Helvetica,sans-Serif" font-size="10.00">/ComPWA/ComPWA/Examples</text>
<text text-anchor="middle" x="79" y="-13.5" font-family="Helvetica,sans-Serif" font-size="10.00">/PythonDalitzFit/PythonFit.cpp</text>
</a>
</g>
</g>
<!-- Node1&#45;&gt;Node2 -->
<g id="edge1" class="edge"><title>Node1&#45;&gt;Node2</title>
<path fill="none" stroke="midnightblue" d="M367.746,-185.593C274.334,-181.129 135.324,-168.383 98,-132 75.5252,-110.092 74.5979,-71.0487 76.4598,-47.5368"/>
<polygon fill="midnightblue" stroke="midnightblue" points="367.619,-189.091 377.768,-186.049 367.938,-182.098 367.619,-189.091"/>
</g>
<!-- Node3 -->
<g id="node3" class="node"><title>Node3</title>
<g id="a_node3"><a xlink:href="../../db/deb/PythonFit_8hpp.html" target="_top" xlink:title="This class provides a Manager for simple fits. ">
<polygon fill="white" stroke="black" points="107,-90.5 107,-131.5 265,-131.5 265,-90.5 107,-90.5"/>
<text text-anchor="start" x="115" y="-119.5" font-family="Helvetica,sans-Serif" font-size="10.00">/home/travis/build</text>
<text text-anchor="start" x="115" y="-108.5" font-family="Helvetica,sans-Serif" font-size="10.00">/ComPWA/ComPWA/Examples</text>
<text text-anchor="middle" x="186" y="-97.5" font-family="Helvetica,sans-Serif" font-size="10.00">/PythonDalitzFit/PythonFit.hpp</text>
</a>
</g>
</g>
<!-- Node1&#45;&gt;Node3 -->
<g id="edge2" class="edge"><title>Node1&#45;&gt;Node3</title>
<path fill="none" stroke="midnightblue" d="M376.842,-165.718C338.315,-154.874 292.422,-141.956 255.296,-131.506"/>
<polygon fill="midnightblue" stroke="midnightblue" points="375.894,-169.088 386.468,-168.428 377.791,-162.349 375.894,-169.088"/>
</g>
<!-- Node5 -->
<g id="node5" class="node"><title>Node5</title>
<g id="a_node5"><a xlink:href="../../dc/d3f/NeuralNetworkApp_8cpp.html" target="_top" xlink:title="/home/travis/build\l/ComPWA/ComPWA/executables\l/NeuralNetworkApp.cpp">
<polygon fill="white" stroke="black" points="282.5,-90.5 282.5,-131.5 449.5,-131.5 449.5,-90.5 282.5,-90.5"/>
<text text-anchor="start" x="290.5" y="-119.5" font-family="Helvetica,sans-Serif" font-size="10.00">/home/travis/build</text>
<text text-anchor="start" x="290.5" y="-108.5" font-family="Helvetica,sans-Serif" font-size="10.00">/ComPWA/ComPWA/executables</text>
<text text-anchor="middle" x="366" y="-97.5" font-family="Helvetica,sans-Serif" font-size="10.00">/NeuralNetworkApp.cpp</text>
</a>
</g>
</g>
<!-- Node1&#45;&gt;Node5 -->
<g id="edge5" class="edge"><title>Node1&#45;&gt;Node5</title>
<path fill="none" stroke="midnightblue" d="M424.948,-161.779C413.183,-151.843 400.006,-140.716 389.099,-131.506"/>
<polygon fill="midnightblue" stroke="midnightblue" points="422.924,-164.65 432.823,-168.428 427.441,-159.302 422.924,-164.65"/>
</g>
<!-- Node6 -->
<g id="node6" class="node"><title>Node6</title>
<g id="a_node6"><a xlink:href="../../db/d24/GenevaIF_8cpp.html" target="_top" xlink:title="/home/travis/build\l/ComPWA/ComPWA/Optimizer\l/Geneva/GenevaIF.cpp">
<polygon fill="white" stroke="black" points="468,-90.5 468,-131.5 624,-131.5 624,-90.5 468,-90.5"/>
<text text-anchor="start" x="476" y="-119.5" font-family="Helvetica,sans-Serif" font-size="10.00">/home/travis/build</text>
<text text-anchor="start" x="476" y="-108.5" font-family="Helvetica,sans-Serif" font-size="10.00">/ComPWA/ComPWA/Optimizer</text>
<text text-anchor="middle" x="546" y="-97.5" font-family="Helvetica,sans-Serif" font-size="10.00">/Geneva/GenevaIF.cpp</text>
</a>
</g>
</g>
<!-- Node1&#45;&gt;Node6 -->
<g id="edge6" class="edge"><title>Node1&#45;&gt;Node6</title>
<path fill="none" stroke="midnightblue" d="M487.052,-161.779C498.817,-151.843 511.994,-140.716 522.901,-131.506"/>
<polygon fill="midnightblue" stroke="midnightblue" points="484.559,-159.302 479.177,-168.428 489.076,-164.65 484.559,-159.302"/>
</g>
<!-- Node7 -->
<g id="node7" class="node"><title>Node7</title>
<g id="a_node7"><a xlink:href="../../d4/d5e/GenevaTestApp_8cpp.html" target="_top" xlink:title="/home/travis/build\l/ComPWA/ComPWA/Optimizer\l/test/GenevaTestApp.cpp">
<polygon fill="white" stroke="black" points="642,-90.5 642,-131.5 798,-131.5 798,-90.5 642,-90.5"/>
<text text-anchor="start" x="650" y="-119.5" font-family="Helvetica,sans-Serif" font-size="10.00">/home/travis/build</text>
<text text-anchor="start" x="650" y="-108.5" font-family="Helvetica,sans-Serif" font-size="10.00">/ComPWA/ComPWA/Optimizer</text>
<text text-anchor="middle" x="720" y="-97.5" font-family="Helvetica,sans-Serif" font-size="10.00">/test/GenevaTestApp.cpp</text>
</a>
</g>
</g>
<!-- Node1&#45;&gt;Node7 -->
<g id="edge7" class="edge"><title>Node1&#45;&gt;Node7</title>
<path fill="none" stroke="midnightblue" d="M533.878,-165.58C571.45,-154.764 616.097,-141.911 652.244,-131.506"/>
<polygon fill="midnightblue" stroke="midnightblue" points="532.628,-162.298 523.987,-168.428 534.565,-169.025 532.628,-162.298"/>
</g>
<!-- Node8 -->
<g id="node8" class="node"><title>Node8</title>
<g id="a_node8"><a xlink:href="../../d4/db7/OptimizerTestApp_8cpp.html" target="_top" xlink:title="Test&#45;Application of the Optimizer&#45;IF. ">
<polygon fill="white" stroke="black" points="816,-90.5 816,-131.5 972,-131.5 972,-90.5 816,-90.5"/>
<text text-anchor="start" x="824" y="-119.5" font-family="Helvetica,sans-Serif" font-size="10.00">/home/travis/build</text>
<text text-anchor="start" x="824" y="-108.5" font-family="Helvetica,sans-Serif" font-size="10.00">/ComPWA/ComPWA/Optimizer</text>
<text text-anchor="middle" x="894" y="-97.5" font-family="Helvetica,sans-Serif" font-size="10.00">/test/OptimizerTestApp.cpp</text>
</a>
</g>
</g>
<!-- Node1&#45;&gt;Node8 -->
<g id="edge8" class="edge"><title>Node1&#45;&gt;Node8</title>
<path fill="none" stroke="midnightblue" d="M544.601,-175.56C615.745,-165.164 718.09,-149.292 807,-132 809.89,-131.438 812.831,-130.849 815.799,-130.24"/>
<polygon fill="midnightblue" stroke="midnightblue" points="543.728,-172.151 534.336,-177.054 544.736,-179.078 543.728,-172.151"/>
</g>
<!-- Node3&#45;&gt;Node2 -->
<g id="edge4" class="edge"><title>Node3&#45;&gt;Node2</title>
<path fill="none" stroke="midnightblue" d="M152.153,-84.0615C136.83,-72.318 119.007,-58.6599 104.791,-47.765"/>
<polygon fill="midnightblue" stroke="midnightblue" points="150.305,-87.0542 160.371,-90.359 154.563,-81.4981 150.305,-87.0542"/>
</g>
<!-- Node4 -->
<g id="node4" class="node"><title>Node4</title>
<g id="a_node4"><a xlink:href="../../d8/d92/Dalitz__ext_8cpp.html" target="_top" xlink:title="/home/travis/build\l/ComPWA/ComPWA/Examples\l/PythonDalitzFit/Dalitz\l_ext.cpp">
<polygon fill="white" stroke="black" points="176,-1 176,-53 334,-53 334,-1 176,-1"/>
<text text-anchor="start" x="184" y="-41" font-family="Helvetica,sans-Serif" font-size="10.00">/home/travis/build</text>
<text text-anchor="start" x="184" y="-30" font-family="Helvetica,sans-Serif" font-size="10.00">/ComPWA/ComPWA/Examples</text>
<text text-anchor="start" x="184" y="-19" font-family="Helvetica,sans-Serif" font-size="10.00">/PythonDalitzFit/Dalitz</text>
<text text-anchor="middle" x="255" y="-8" font-family="Helvetica,sans-Serif" font-size="10.00">_ext.cpp</text>
</a>
</g>
</g>
<!-- Node3&#45;&gt;Node4 -->
<g id="edge3" class="edge"><title>Node3&#45;&gt;Node4</title>
<path fill="none" stroke="midnightblue" d="M209.367,-82.2308C217.26,-72.8509 226.023,-62.4363 233.744,-53.2613"/>
<polygon fill="midnightblue" stroke="midnightblue" points="206.463,-80.2451 202.703,-90.1501 211.82,-84.752 206.463,-80.2451"/>
</g>
</g>
</svg>
