<?xml version="1.0" encoding="UTF-8" standalone="no"?>
<!DOCTYPE svg PUBLIC "-//W3C//DTD SVG 1.1//EN"
 "http://www.w3.org/Graphics/SVG/1.1/DTD/svg11.dtd">
<!-- Generated by graphviz version 2.36.0 (20140111.2315)
 -->
<!-- Title: ComPWA::Optimizer::Minuit2::MinuitIF Pages: 1 -->
<svg width="326pt" height="654pt"
 viewBox="0.00 0.00 326.00 654.00" xmlns="http://www.w3.org/2000/svg" xmlns:xlink="http://www.w3.org/1999/xlink">
<g id="graph0" class="graph" transform="scale(1 1) rotate(0) translate(4 650)">
<title>ComPWA::Optimizer::Minuit2::MinuitIF</title>
<polygon fill="white" stroke="none" points="-4,4 -4,-650 322,-650 322,4 -4,4"/>
<!-- Node1 -->
<g id="node1" class="node"><title>Node1</title>
<polygon fill="#bfbfbf" stroke="black" points="42.5,-1 42.5,-157 157.5,-157 157.5,-1 42.5,-1"/>
<text text-anchor="start" x="50.5" y="-145" font-family="Helvetica,sans-Serif" font-size="10.00">ComPWA::Optimizer::</text>
<text text-anchor="middle" x="100" y="-134" font-family="Helvetica,sans-Serif" font-size="10.00">Minuit2::MinuitIF</text>
<polyline fill="none" stroke="black" points="42.5,-127 157.5,-127 "/>
<text text-anchor="start" x="50.5" y="-115" font-family="Helvetica,sans-Serif" font-size="10.00">&#45; estimator</text>
<text text-anchor="start" x="50.5" y="-104" font-family="Helvetica,sans-Serif" font-size="10.00">&#45; enableHesse</text>
<text text-anchor="start" x="50.5" y="-93" font-family="Helvetica,sans-Serif" font-size="10.00">&#45; enableMinos</text>
<polyline fill="none" stroke="black" points="42.5,-86 157.5,-86 "/>
<text text-anchor="start" x="50.5" y="-74" font-family="Helvetica,sans-Serif" font-size="10.00">+ MinuitIF()</text>
<text text-anchor="start" x="50.5" y="-63" font-family="Helvetica,sans-Serif" font-size="10.00">+ exec()</text>
<text text-anchor="start" x="50.5" y="-52" font-family="Helvetica,sans-Serif" font-size="10.00">+ ~MinuitIF()</text>
<text text-anchor="start" x="50.5" y="-41" font-family="Helvetica,sans-Serif" font-size="10.00">+ SetHesse()</text>
<text text-anchor="start" x="50.5" y="-30" font-family="Helvetica,sans-Serif" font-size="10.00">+ GetHesse()</text>
<text text-anchor="start" x="50.5" y="-19" font-family="Helvetica,sans-Serif" font-size="10.00">+ SetMinos()</text>
<text text-anchor="start" x="50.5" y="-8" font-family="Helvetica,sans-Serif" font-size="10.00">+ GetMinos()</text>
</g>
<!-- Node2 -->
<g id="node2" class="node"><title>Node2</title>
<g id="a_node2"><a xlink:href="../../df/dcb/classComPWA_1_1Optimizer_1_1Optimizer.html" target="_top" xlink:title="{ComPWA::Optimizer::\lOptimizer\n||+ Optimizer()\l+ ~Optimizer()\l+ exec()\l}">
<polygon fill="white" stroke="black" points="-0.5,-223 -0.5,-313 114.5,-313 114.5,-223 -0.5,-223"/>
<text text-anchor="start" x="7.5" y="-301" font-family="Helvetica,sans-Serif" font-size="10.00">ComPWA::Optimizer::</text>
<text text-anchor="middle" x="57" y="-290" font-family="Helvetica,sans-Serif" font-size="10.00">Optimizer</text>
<polyline fill="none" stroke="black" points="-0.5,-283 114.5,-283 "/>
<text text-anchor="middle" x="57" y="-271" font-family="Helvetica,sans-Serif" font-size="10.00"> </text>
<polyline fill="none" stroke="black" points="-0.5,-264 114.5,-264 "/>
<text text-anchor="start" x="7.5" y="-252" font-family="Helvetica,sans-Serif" font-size="10.00">+ Optimizer()</text>
<text text-anchor="start" x="7.5" y="-241" font-family="Helvetica,sans-Serif" font-size="10.00">+ ~Optimizer()</text>
<text text-anchor="start" x="7.5" y="-230" font-family="Helvetica,sans-Serif" font-size="10.00">+ exec()</text>
</a>
</g>
</g>
<!-- Node2&#45;&gt;Node1 -->
<g id="edge1" class="edge"><title>Node2&#45;&gt;Node1</title>
<path fill="none" stroke="midnightblue" d="M69.472,-212.761C73.4553,-195.439 77.9438,-175.919 82.2285,-157.285"/>
<polygon fill="none" stroke="midnightblue" points="66.0205,-212.154 67.1904,-222.684 72.8424,-213.722 66.0205,-212.154"/>
</g>
<!-- Node3 -->
<g id="node3" class="node"><title>Node3</title>
<g id="a_node3"><a xlink:href="../../dd/d13/classROOT_1_1Minuit2_1_1MinuitFcn.html" target="_top" xlink:title="{ROOT::Minuit2::MinuitFcn\n|&#45; _myDataPtr\l&#45; _parNames\l|+ MinuitFcn()\l+ ~MinuitFcn()\l+ operator()()\l+ Up()\l+ setNameID()\l+ parName()\l}">
<polygon fill="white" stroke="black" points="132.5,-206.5 132.5,-329.5 263.5,-329.5 263.5,-206.5 132.5,-206.5"/>
<text text-anchor="middle" x="198" y="-317.5" font-family="Helvetica,sans-Serif" font-size="10.00">ROOT::Minuit2::MinuitFcn</text>
<polyline fill="none" stroke="black" points="132.5,-310.5 263.5,-310.5 "/>
<text text-anchor="start" x="140.5" y="-298.5" font-family="Helvetica,sans-Serif" font-size="10.00">&#45; _myDataPtr</text>
<text text-anchor="start" x="140.5" y="-287.5" font-family="Helvetica,sans-Serif" font-size="10.00">&#45; _parNames</text>
<polyline fill="none" stroke="black" points="132.5,-280.5 263.5,-280.5 "/>
<text text-anchor="start" x="140.5" y="-268.5" font-family="Helvetica,sans-Serif" font-size="10.00">+ MinuitFcn()</text>
<text text-anchor="start" x="140.5" y="-257.5" font-family="Helvetica,sans-Serif" font-size="10.00">+ ~MinuitFcn()</text>
<text text-anchor="start" x="140.5" y="-246.5" font-family="Helvetica,sans-Serif" font-size="10.00">+ operator()()</text>
<text text-anchor="start" x="140.5" y="-235.5" font-family="Helvetica,sans-Serif" font-size="10.00">+ Up()</text>
<text text-anchor="start" x="140.5" y="-224.5" font-family="Helvetica,sans-Serif" font-size="10.00">+ setNameID()</text>
<text text-anchor="start" x="140.5" y="-213.5" font-family="Helvetica,sans-Serif" font-size="10.00">+ parName()</text>
</a>
</g>
</g>
<!-- Node3&#45;&gt;Node1 -->
<g id="edge2" class="edge"><title>Node3&#45;&gt;Node1</title>
<path fill="none" stroke="#404040" d="M166.182,-206.286C159.764,-194.039 152.895,-180.932 146.1,-167.967"/>
<polygon fill="none" stroke="#404040" points="145.993,-167.761 139.664,-164.303 140.422,-157.132 146.75,-160.59 145.993,-167.761"/>
<text text-anchor="middle" x="175" y="-179.5" font-family="Helvetica,sans-Serif" font-size="10.00"> &#45;_myFcn</text>
</g>
<!-- Node4 -->
<g id="node4" class="node"><title>Node4</title>
<polygon fill="white" stroke="#bfbfbf" points="112,-483.5 112,-540.5 172,-540.5 172,-483.5 112,-483.5"/>
<text text-anchor="middle" x="142" y="-528.5" font-family="Helvetica,sans-Serif" font-size="10.00">FCNBase</text>
<polyline fill="none" stroke="#bfbfbf" points="112,-521.5 172,-521.5 "/>
<text text-anchor="middle" x="142" y="-509.5" font-family="Helvetica,sans-Serif" font-size="10.00"> </text>
<polyline fill="none" stroke="#bfbfbf" points="112,-502.5 172,-502.5 "/>
<text text-anchor="middle" x="142" y="-490.5" font-family="Helvetica,sans-Serif" font-size="10.00"> </text>
</g>
<!-- Node4&#45;&gt;Node3 -->
<g id="edge3" class="edge"><title>Node4&#45;&gt;Node3</title>
<path fill="none" stroke="midnightblue" d="M150.679,-473.496C159.564,-435.098 173.516,-374.804 183.973,-329.618"/>
<polygon fill="none" stroke="midnightblue" points="147.269,-472.708 148.424,-483.24 154.088,-474.286 147.269,-472.708"/>
</g>
<!-- Node5 -->
<g id="node5" class="node"><title>Node5</title>
<g id="a_node5"><a xlink:href="../../d2/d1c/classComPWA_1_1ParameterList.html" target="_top" xlink:title="{ComPWA::ParameterList\n|# vBool_\l# vInt_\l# vDouble_\l# vComplex_\l# vMultiDouble_\l# vMultiComplex_\l# vMultiUnsignedInteger_\l# out_\l|+ ParameterList()\l+ ParameterList()\l+ ParameterList()\l+ ParameterList()\l+ ParameterList()\l+ ParameterList()\l+ ParameterList()\l+ DeepCopy()\l+ ~ParameterList()\l+ GetNParameter()\land 86 more...\l# make_str()\l&#45; serialize()\l}">
<polygon fill="white" stroke="black" points="190,-379 190,-645 318,-645 318,-379 190,-379"/>
<text text-anchor="middle" x="254" y="-633" font-family="Helvetica,sans-Serif" font-size="10.00">ComPWA::ParameterList</text>
<polyline fill="none" stroke="black" points="190,-626 318,-626 "/>
<text text-anchor="start" x="198" y="-614" font-family="Helvetica,sans-Serif" font-size="10.00"># vBool_</text>
<text text-anchor="start" x="198" y="-603" font-family="Helvetica,sans-Serif" font-size="10.00"># vInt_</text>
<text text-anchor="start" x="198" y="-592" font-family="Helvetica,sans-Serif" font-size="10.00"># vDouble_</text>
<text text-anchor="start" x="198" y="-581" font-family="Helvetica,sans-Serif" font-size="10.00"># vComplex_</text>
<text text-anchor="start" x="198" y="-570" font-family="Helvetica,sans-Serif" font-size="10.00"># vMultiDouble_</text>
<text text-anchor="start" x="198" y="-559" font-family="Helvetica,sans-Serif" font-size="10.00"># vMultiComplex_</text>
<text text-anchor="start" x="198" y="-548" font-family="Helvetica,sans-Serif" font-size="10.00"># vMultiUnsignedInteger_</text>
<text text-anchor="start" x="198" y="-537" font-family="Helvetica,sans-Serif" font-size="10.00"># out_</text>
<polyline fill="none" stroke="black" points="190,-530 318,-530 "/>
<text text-anchor="start" x="198" y="-518" font-family="Helvetica,sans-Serif" font-size="10.00">+ ParameterList()</text>
<text text-anchor="start" x="198" y="-507" font-family="Helvetica,sans-Serif" font-size="10.00">+ ParameterList()</text>
<text text-anchor="start" x="198" y="-496" font-family="Helvetica,sans-Serif" font-size="10.00">+ ParameterList()</text>
<text text-anchor="start" x="198" y="-485" font-family="Helvetica,sans-Serif" font-size="10.00">+ ParameterList()</text>
<text text-anchor="start" x="198" y="-474" font-family="Helvetica,sans-Serif" font-size="10.00">+ ParameterList()</text>
<text text-anchor="start" x="198" y="-463" font-family="Helvetica,sans-Serif" font-size="10.00">+ ParameterList()</text>
<text text-anchor="start" x="198" y="-452" font-family="Helvetica,sans-Serif" font-size="10.00">+ ParameterList()</text>
<text text-anchor="start" x="198" y="-441" font-family="Helvetica,sans-Serif" font-size="10.00">+ DeepCopy()</text>
<text text-anchor="start" x="198" y="-430" font-family="Helvetica,sans-Serif" font-size="10.00">+ ~ParameterList()</text>
<text text-anchor="start" x="198" y="-419" font-family="Helvetica,sans-Serif" font-size="10.00">+ GetNParameter()</text>
<text text-anchor="start" x="198" y="-408" font-family="Helvetica,sans-Serif" font-size="10.00">and 86 more...</text>
<text text-anchor="start" x="198" y="-397" font-family="Helvetica,sans-Serif" font-size="10.00"># make_str()</text>
<text text-anchor="start" x="198" y="-386" font-family="Helvetica,sans-Serif" font-size="10.00">&#45; serialize()</text>
</a>
</g>
</g>
<!-- Node5&#45;&gt;Node3 -->
<g id="edge4" class="edge"><title>Node5&#45;&gt;Node3</title>
<path fill="none" stroke="#404040" d="M223.378,-378.671C220.441,-365.977 217.542,-353.451 214.813,-341.657"/>
<polygon fill="none" stroke="#404040" points="214.742,-341.348 209.492,-336.404 212.036,-329.657 217.286,-334.601 214.742,-341.348"/>
<text text-anchor="middle" x="237.5" y="-351.5" font-family="Helvetica,sans-Serif" font-size="10.00"> &#45;_parList</text>
</g>
</g>
</svg>
