<?xml version="1.0" encoding="UTF-8" standalone="no"?>
<!DOCTYPE svg PUBLIC "-//W3C//DTD SVG 1.1//EN"
 "http://www.w3.org/Graphics/SVG/1.1/DTD/svg11.dtd">
<!-- Generated by graphviz version 2.36.0 (20140111.2315)
 -->
<!-- Title: /home/travis/build/ComPWA/ComPWA/Physics/Resonance.hpp Pages: 1 -->
<svg width="1786pt" height="298pt"
 viewBox="0.00 0.00 1785.80 298.00" xmlns="http://www.w3.org/2000/svg" xmlns:xlink="http://www.w3.org/1999/xlink">
<g id="graph0" class="graph" transform="scale(1 1) rotate(0) translate(4 294)">
<title>/home/travis/build/ComPWA/ComPWA/Physics/Resonance.hpp</title>
<polygon fill="white" stroke="none" points="-4,4 -4,-294 1781.8,-294 1781.8,4 -4,4"/>
<!-- Node1 -->
<g id="node1" class="node"><title>Node1</title>
<polygon fill="#bfbfbf" stroke="black" points="930.5,-248.5 930.5,-289.5 1079.5,-289.5 1079.5,-248.5 930.5,-248.5"/>
<text text-anchor="start" x="938.5" y="-277.5" font-family="Helvetica,sans-Serif" font-size="10.00">/home/travis/build</text>
<text text-anchor="start" x="938.5" y="-266.5" font-family="Helvetica,sans-Serif" font-size="10.00">/ComPWA/ComPWA/Physics</text>
<text text-anchor="middle" x="1005" y="-255.5" font-family="Helvetica,sans-Serif" font-size="10.00">/Resonance.hpp</text>
</g>
<!-- Node2 -->
<g id="node2" class="node"><title>Node2</title>
<polygon fill="white" stroke="#bfbfbf" points="1610,-6.5 1610,-25.5 1654,-25.5 1654,-6.5 1610,-6.5"/>
<text text-anchor="middle" x="1632" y="-13.5" font-family="Helvetica,sans-Serif" font-size="10.00">vector</text>
</g>
<!-- Node1&#45;&gt;Node2 -->
<g id="edge1" class="edge"><title>Node1&#45;&gt;Node2</title>
<path fill="none" stroke="midnightblue" d="M1079.71,-265.016C1259.16,-255.932 1704.6,-221.322 1772,-100 1778.91,-87.5675 1780.16,-79.6513 1772,-68 1747.77,-33.3884 1697.47,-22.1819 1664.23,-18.6041"/>
<polygon fill="midnightblue" stroke="midnightblue" points="1664.37,-15.1022 1654.09,-17.6905 1663.74,-22.0739 1664.37,-15.1022"/>
</g>
<!-- Node3 -->
<g id="node3" class="node"><title>Node3</title>
<polygon fill="white" stroke="#bfbfbf" points="840,-6.5 840,-25.5 892,-25.5 892,-6.5 840,-6.5"/>
<text text-anchor="middle" x="866" y="-13.5" font-family="Helvetica,sans-Serif" font-size="10.00">memory</text>
</g>
<!-- Node1&#45;&gt;Node3 -->
<g id="edge2" class="edge"><title>Node1&#45;&gt;Node3</title>
<path fill="none" stroke="midnightblue" d="M930.272,-262.133C884.293,-255.549 825.96,-241.589 782,-212 756.41,-194.776 751.625,-184.959 741,-156 727.515,-119.244 714.87,-100.297 737,-68 762.053,-31.4377 788.874,-48.5248 830,-32 832.093,-31.1591 834.251,-30.283 836.421,-29.3951"/>
<polygon fill="midnightblue" stroke="midnightblue" points="837.947,-32.5517 845.855,-25.5 835.276,-26.0815 837.947,-32.5517"/>
</g>
<!-- Node4 -->
<g id="node4" class="node"><title>Node4</title>
<g id="a_node4"><a xlink:href="../../d8/def/AbsParameter_8hpp.html" target="_top" xlink:title="This class defines the internal container of a parameter. ">
<polygon fill="white" stroke="black" points="543,-74.5 543,-93.5 665,-93.5 665,-74.5 543,-74.5"/>
<text text-anchor="middle" x="604" y="-81.5" font-family="Helvetica,sans-Serif" font-size="10.00">Core/AbsParameter.hpp</text>
</a>
</g>
</g>
<!-- Node1&#45;&gt;Node4 -->
<g id="edge3" class="edge"><title>Node1&#45;&gt;Node4</title>
<path fill="none" stroke="midnightblue" d="M930.368,-262.439C847.079,-254.991 718.77,-239.427 679,-212 640.293,-185.306 618.526,-131.565 609.313,-103.312"/>
<polygon fill="midnightblue" stroke="midnightblue" points="612.588,-102.056 606.297,-93.5311 605.899,-104.118 612.588,-102.056"/>
</g>
<!-- Node14 -->
<g id="node14" class="node"><title>Node14</title>
<g id="a_node14"><a xlink:href="../../db/dce/Parameter_8hpp.html" target="_top" xlink:title="This class implements some internal container of parameters. ">
<polygon fill="white" stroke="black" points="953,-136.5 953,-155.5 1057,-155.5 1057,-136.5 953,-136.5"/>
<text text-anchor="middle" x="1005" y="-143.5" font-family="Helvetica,sans-Serif" font-size="10.00">Core/Parameter.hpp</text>
</a>
</g>
</g>
<!-- Node1&#45;&gt;Node14 -->
<g id="edge15" class="edge"><title>Node1&#45;&gt;Node14</title>
<path fill="none" stroke="midnightblue" d="M1005,-248.29C1005,-225.48 1005,-188.189 1005,-165.781"/>
<polygon fill="midnightblue" stroke="midnightblue" points="1008.5,-165.575 1005,-155.575 1001.5,-165.575 1008.5,-165.575"/>
</g>
<!-- Node23 -->
<g id="node23" class="node"><title>Node23</title>
<g id="a_node23"><a xlink:href="../../d8/dd4/DataPoint_8hpp.html" target="_top" xlink:title="dataPoint stores kinematic information of a dalitz plot ">
<polygon fill="white" stroke="red" points="1660.5,-74.5 1660.5,-93.5 1763.5,-93.5 1763.5,-74.5 1660.5,-74.5"/>
<text text-anchor="middle" x="1712" y="-81.5" font-family="Helvetica,sans-Serif" font-size="10.00">Core/DataPoint.hpp</text>
</a>
</g>
</g>
<!-- Node1&#45;&gt;Node23 -->
<g id="edge27" class="edge"><title>Node1&#45;&gt;Node23</title>
<path fill="none" stroke="midnightblue" d="M1079.78,-262.015C1229.65,-248.927 1560.65,-214.185 1657,-156 1678,-143.318 1693.96,-119.404 1703.15,-102.856"/>
<polygon fill="midnightblue" stroke="midnightblue" points="1706.42,-104.151 1707.97,-93.6704 1700.22,-100.894 1706.42,-104.151"/>
</g>
<!-- Node24 -->
<g id="node24" class="node"><title>Node24</title>
<g id="a_node24"><a xlink:href="../../da/db2/FunctionTree_8hpp.html" target="_top" xlink:title="This class can be used to store a function in a tree&#45;like structure. ">
<polygon fill="white" stroke="red" points="791,-192.5 791,-211.5 907,-211.5 907,-192.5 791,-192.5"/>
<text text-anchor="middle" x="849" y="-199.5" font-family="Helvetica,sans-Serif" font-size="10.00">Core/FunctionTree.hpp</text>
</a>
</g>
</g>
<!-- Node1&#45;&gt;Node24 -->
<g id="edge29" class="edge"><title>Node1&#45;&gt;Node24</title>
<path fill="none" stroke="midnightblue" d="M958.195,-248.498C932.552,-237.813 901.524,-224.885 879.107,-215.545"/>
<polygon fill="midnightblue" stroke="midnightblue" points="880.343,-212.268 869.766,-211.652 877.651,-218.729 880.343,-212.268"/>
</g>
<!-- Node25 -->
<g id="node25" class="node"><title>Node25</title>
<g id="a_node25"><a xlink:href="../../d4/d37/Kinematics_8hpp.html" target="_top" xlink:title="Core/Kinematics.hpp">
<polygon fill="white" stroke="red" points="1540,-136.5 1540,-155.5 1648,-155.5 1648,-136.5 1540,-136.5"/>
<text text-anchor="middle" x="1594" y="-143.5" font-family="Helvetica,sans-Serif" font-size="10.00">Core/Kinematics.hpp</text>
</a>
</g>
</g>
<!-- Node1&#45;&gt;Node25 -->
<g id="edge35" class="edge"><title>Node1&#45;&gt;Node25</title>
<path fill="none" stroke="midnightblue" d="M1079.6,-252.675C1200.93,-227.75 1437.95,-179.058 1542.43,-157.594"/>
<polygon fill="midnightblue" stroke="midnightblue" points="1543.33,-160.983 1552.42,-155.542 1541.92,-154.126 1543.33,-160.983"/>
</g>
<!-- Node4&#45;&gt;Node2 -->
<g id="edge5" class="edge"><title>Node4&#45;&gt;Node2</title>
<path fill="none" stroke="midnightblue" d="M665.244,-78.7913C709.823,-75.745 771.649,-71.5557 826,-68 1126.93,-48.3127 1491.15,-25.7058 1599.88,-18.9829"/>
<polygon fill="midnightblue" stroke="midnightblue" points="1600.12,-22.4751 1609.88,-18.3648 1599.68,-15.4885 1600.12,-22.4751"/>
</g>
<!-- Node4&#45;&gt;Node3 -->
<g id="edge6" class="edge"><title>Node4&#45;&gt;Node3</title>
<path fill="none" stroke="midnightblue" d="M646.064,-74.4165C701.565,-62.9339 796.178,-42.7734 830,-32 832.573,-31.1806 835.217,-30.2525 837.849,-29.2695"/>
<polygon fill="midnightblue" stroke="midnightblue" points="839.171,-32.5102 847.172,-25.5648 836.586,-26.0049 839.171,-32.5102"/>
</g>
<!-- Node5 -->
<g id="node5" class="node"><title>Node5</title>
<polygon fill="white" stroke="#bfbfbf" points="910.5,-6.5 910.5,-25.5 951.5,-25.5 951.5,-6.5 910.5,-6.5"/>
<text text-anchor="middle" x="931" y="-13.5" font-family="Helvetica,sans-Serif" font-size="10.00">string</text>
</g>
<!-- Node4&#45;&gt;Node5 -->
<g id="edge4" class="edge"><title>Node4&#45;&gt;Node5</title>
<path fill="none" stroke="midnightblue" d="M665.275,-77.7761C726.23,-71.357 821.832,-57.9591 901,-32 902.909,-31.3741 904.848,-30.6444 906.775,-29.8503"/>
<polygon fill="midnightblue" stroke="midnightblue" points="908.505,-32.9062 916.106,-25.5255 905.562,-26.5551 908.505,-32.9062"/>
</g>
<!-- Node6 -->
<g id="node6" class="node"><title>Node6</title>
<polygon fill="white" stroke="#bfbfbf" points="358,-6.5 358,-25.5 414,-25.5 414,-6.5 358,-6.5"/>
<text text-anchor="middle" x="386" y="-13.5" font-family="Helvetica,sans-Serif" font-size="10.00">algorithm</text>
</g>
<!-- Node4&#45;&gt;Node6 -->
<g id="edge7" class="edge"><title>Node4&#45;&gt;Node6</title>
<path fill="none" stroke="midnightblue" d="M569.289,-74.4376C532.593,-65.1032 473.191,-49.1861 423,-32 420.445,-31.125 417.81,-30.1688 415.179,-29.1764"/>
<polygon fill="midnightblue" stroke="midnightblue" points="416.405,-25.8979 405.818,-25.5042 413.849,-32.4144 416.405,-25.8979"/>
</g>
<!-- Node7 -->
<g id="node7" class="node"><title>Node7</title>
<polygon fill="white" stroke="#bfbfbf" points="432,-6.5 432,-25.5 482,-25.5 482,-6.5 432,-6.5"/>
<text text-anchor="middle" x="457" y="-13.5" font-family="Helvetica,sans-Serif" font-size="10.00">fstream</text>
</g>
<!-- Node4&#45;&gt;Node7 -->
<g id="edge8" class="edge"><title>Node4&#45;&gt;Node7</title>
<path fill="none" stroke="midnightblue" d="M584.782,-74.3717C559.471,-63.0075 514.755,-42.9309 485.5,-29.7961"/>
<polygon fill="midnightblue" stroke="midnightblue" points="486.779,-26.5335 476.222,-25.6305 483.912,-32.9194 486.779,-26.5335"/>
</g>
<!-- Node8 -->
<g id="node8" class="node"><title>Node8</title>
<polygon fill="white" stroke="#bfbfbf" points="500.5,-1 500.5,-31 595.5,-31 595.5,-1 500.5,-1"/>
<text text-anchor="start" x="508.5" y="-19" font-family="Helvetica,sans-Serif" font-size="10.00">boost/serialization</text>
<text text-anchor="middle" x="548" y="-8" font-family="Helvetica,sans-Serif" font-size="10.00">/serialization.hpp</text>
</g>
<!-- Node4&#45;&gt;Node8 -->
<g id="edge9" class="edge"><title>Node4&#45;&gt;Node8</title>
<path fill="none" stroke="midnightblue" d="M596.679,-74.3717C589.115,-65.4572 577.003,-51.1817 566.753,-39.1013"/>
<polygon fill="midnightblue" stroke="midnightblue" points="569.171,-36.5421 560.033,-31.1815 563.834,-41.071 569.171,-36.5421"/>
</g>
<!-- Node9 -->
<g id="node9" class="node"><title>Node9</title>
<polygon fill="white" stroke="#bfbfbf" points="613.5,-1 613.5,-31 708.5,-31 708.5,-1 613.5,-1"/>
<text text-anchor="start" x="621.5" y="-19" font-family="Helvetica,sans-Serif" font-size="10.00">boost/serialization</text>
<text text-anchor="middle" x="661" y="-8" font-family="Helvetica,sans-Serif" font-size="10.00">/shared_ptr.hpp</text>
</g>
<!-- Node4&#45;&gt;Node9 -->
<g id="edge10" class="edge"><title>Node4&#45;&gt;Node9</title>
<path fill="none" stroke="midnightblue" d="M611.452,-74.3717C619.225,-65.3715 631.717,-50.9067 642.213,-38.7534"/>
<polygon fill="midnightblue" stroke="midnightblue" points="644.865,-41.0374 648.752,-31.1815 639.567,-36.462 644.865,-41.0374"/>
</g>
<!-- Node10 -->
<g id="node10" class="node"><title>Node10</title>
<polygon fill="white" stroke="#bfbfbf" points="726.5,-1 726.5,-31 821.5,-31 821.5,-1 726.5,-1"/>
<text text-anchor="start" x="734.5" y="-19" font-family="Helvetica,sans-Serif" font-size="10.00">boost/serialization</text>
<text text-anchor="middle" x="774" y="-8" font-family="Helvetica,sans-Serif" font-size="10.00">/nvp.hpp</text>
</g>
<!-- Node4&#45;&gt;Node10 -->
<g id="edge11" class="edge"><title>Node4&#45;&gt;Node10</title>
<path fill="none" stroke="midnightblue" d="M626.225,-74.3717C652.028,-64.3539 695.269,-47.5661 728.329,-34.7312"/>
<polygon fill="midnightblue" stroke="midnightblue" points="729.739,-37.9382 737.795,-31.0562 727.206,-31.4127 729.739,-37.9382"/>
</g>
<!-- Node11 -->
<g id="node11" class="node"><title>Node11</title>
<polygon fill="white" stroke="#bfbfbf" points="-0.5,-1 -0.5,-31 94.5,-31 94.5,-1 -0.5,-1"/>
<text text-anchor="start" x="7.5" y="-19" font-family="Helvetica,sans-Serif" font-size="10.00">boost/serialization</text>
<text text-anchor="middle" x="47" y="-8" font-family="Helvetica,sans-Serif" font-size="10.00">/level.hpp</text>
</g>
<!-- Node4&#45;&gt;Node11 -->
<g id="edge12" class="edge"><title>Node4&#45;&gt;Node11</title>
<path fill="none" stroke="midnightblue" d="M542.628,-79.9274C449.675,-74.5762 267.598,-61.37 104.744,-32.1466"/>
<polygon fill="midnightblue" stroke="midnightblue" points="105.006,-28.6369 94.5408,-30.2899 103.753,-35.5238 105.006,-28.6369"/>
</g>
<!-- Node12 -->
<g id="node12" class="node"><title>Node12</title>
<polygon fill="white" stroke="#bfbfbf" points="112.5,-1 112.5,-31 207.5,-31 207.5,-1 112.5,-1"/>
<text text-anchor="start" x="120.5" y="-19" font-family="Helvetica,sans-Serif" font-size="10.00">boost/serialization</text>
<text text-anchor="middle" x="160" y="-8" font-family="Helvetica,sans-Serif" font-size="10.00">/tracking.hpp</text>
</g>
<!-- Node4&#45;&gt;Node12 -->
<g id="edge13" class="edge"><title>Node4&#45;&gt;Node12</title>
<path fill="none" stroke="midnightblue" d="M542.951,-77.362C468.455,-69.9463 338.552,-55.2886 217.941,-32.0276"/>
<polygon fill="midnightblue" stroke="midnightblue" points="218.278,-28.5273 207.793,-30.0453 216.936,-35.3975 218.278,-28.5273"/>
</g>
<!-- Node13 -->
<g id="node13" class="node"><title>Node13</title>
<g id="a_node13"><a xlink:href="../../d9/d91/ParObserver_8hpp.html" target="_top" xlink:title="For the use in the function tree, the observer pattern is used. ">
<polygon fill="white" stroke="black" points="226,-6.5 226,-25.5 340,-25.5 340,-6.5 226,-6.5"/>
<text text-anchor="middle" x="283" y="-13.5" font-family="Helvetica,sans-Serif" font-size="10.00">Core/ParObserver.hpp</text>
</a>
</g>
</g>
<!-- Node4&#45;&gt;Node13 -->
<g id="edge14" class="edge"><title>Node4&#45;&gt;Node13</title>
<path fill="none" stroke="midnightblue" d="M559.245,-74.4156C508.268,-64.5526 422.512,-47.7021 349,-32 342.741,-30.663 336.157,-29.216 329.671,-27.7661"/>
<polygon fill="midnightblue" stroke="midnightblue" points="330.143,-24.2849 319.618,-25.501 328.604,-31.1136 330.143,-24.2849"/>
</g>
<!-- Node14&#45;&gt;Node4 -->
<g id="edge23" class="edge"><title>Node14&#45;&gt;Node4</title>
<path fill="none" stroke="midnightblue" d="M952.987,-137.218C880.843,-126.423 750.345,-106.897 670.991,-95.0236"/>
<polygon fill="midnightblue" stroke="midnightblue" points="671.506,-91.5618 661.098,-93.5434 670.47,-98.4847 671.506,-91.5618"/>
</g>
<!-- Node14&#45;&gt;Node5 -->
<g id="edge17" class="edge"><title>Node14&#45;&gt;Node5</title>
<path fill="none" stroke="midnightblue" d="M952.784,-138.979C905.694,-132.347 841.516,-119.9 826,-100 817.255,-88.7842 818.426,-80.0375 826,-68 845.692,-36.7054 867.797,-48.2683 901,-32 902.177,-31.4235 903.378,-30.8325 904.591,-30.234"/>
<polygon fill="midnightblue" stroke="midnightblue" points="906.491,-33.1982 913.89,-25.6146 903.377,-26.9291 906.491,-33.1982"/>
</g>
<!-- Node15 -->
<g id="node15" class="node"><title>Node15</title>
<polygon fill="white" stroke="#bfbfbf" points="1276,-74.5 1276,-93.5 1330,-93.5 1330,-74.5 1276,-74.5"/>
<text text-anchor="middle" x="1303" y="-81.5" font-family="Helvetica,sans-Serif" font-size="10.00">iostream</text>
</g>
<!-- Node14&#45;&gt;Node15 -->
<g id="edge16" class="edge"><title>Node14&#45;&gt;Node15</title>
<path fill="none" stroke="midnightblue" d="M1057.24,-139.339C1110.46,-132.796 1195.03,-120.249 1266,-100 1268.81,-99.1977 1271.7,-98.2524 1274.57,-97.2331"/>
<polygon fill="midnightblue" stroke="midnightblue" points="1275.99,-100.436 1284.07,-93.5826 1273.48,-93.9014 1275.99,-100.436"/>
</g>
<!-- Node16 -->
<g id="node16" class="node"><title>Node16</title>
<polygon fill="white" stroke="#bfbfbf" points="835,-74.5 835,-93.5 887,-93.5 887,-74.5 835,-74.5"/>
<text text-anchor="middle" x="861" y="-81.5" font-family="Helvetica,sans-Serif" font-size="10.00">sstream</text>
</g>
<!-- Node14&#45;&gt;Node16 -->
<g id="edge18" class="edge"><title>Node14&#45;&gt;Node16</title>
<path fill="none" stroke="midnightblue" d="M984.069,-136.456C962.1,-127.465 926.571,-112.861 896,-100 894.172,-99.2309 892.292,-98.4361 890.396,-97.6322"/>
<polygon fill="midnightblue" stroke="midnightblue" points="891.541,-94.3155 880.97,-93.613 888.796,-100.755 891.541,-94.3155"/>
</g>
<!-- Node17 -->
<g id="node17" class="node"><title>Node17</title>
<polygon fill="white" stroke="#bfbfbf" points="1512.5,-74.5 1512.5,-93.5 1565.5,-93.5 1565.5,-74.5 1512.5,-74.5"/>
<text text-anchor="middle" x="1539" y="-81.5" font-family="Helvetica,sans-Serif" font-size="10.00">complex</text>
</g>
<!-- Node14&#45;&gt;Node17 -->
<g id="edge19" class="edge"><title>Node14&#45;&gt;Node17</title>
<path fill="none" stroke="midnightblue" d="M1057.3,-141.637C1142.87,-135.741 1317.99,-122.031 1465,-100 1477.23,-98.1668 1490.5,-95.6471 1502.38,-93.1961"/>
<polygon fill="midnightblue" stroke="midnightblue" points="1503.34,-96.5706 1512.4,-91.0788 1501.89,-89.7218 1503.34,-96.5706"/>
</g>
<!-- Node18 -->
<g id="node18" class="node"><title>Node18</title>
<polygon fill="white" stroke="#bfbfbf" points="905.5,-74.5 905.5,-93.5 964.5,-93.5 964.5,-74.5 905.5,-74.5"/>
<text text-anchor="middle" x="935" y="-81.5" font-family="Helvetica,sans-Serif" font-size="10.00">stdexcept</text>
</g>
<!-- Node14&#45;&gt;Node18 -->
<g id="edge20" class="edge"><title>Node14&#45;&gt;Node18</title>
<path fill="none" stroke="midnightblue" d="M994.971,-136.403C983.951,-126.958 966.04,-111.606 952.657,-100.134"/>
<polygon fill="midnightblue" stroke="midnightblue" points="954.881,-97.4311 945.011,-93.5806 950.325,-102.746 954.881,-97.4311"/>
</g>
<!-- Node19 -->
<g id="node19" class="node"><title>Node19</title>
<polygon fill="white" stroke="#bfbfbf" points="983,-74.5 983,-93.5 1027,-93.5 1027,-74.5 983,-74.5"/>
<text text-anchor="middle" x="1005" y="-81.5" font-family="Helvetica,sans-Serif" font-size="10.00">cmath</text>
</g>
<!-- Node14&#45;&gt;Node19 -->
<g id="edge21" class="edge"><title>Node14&#45;&gt;Node19</title>
<path fill="none" stroke="midnightblue" d="M1005,-136.403C1005,-127.938 1005,-114.728 1005,-103.82"/>
<polygon fill="midnightblue" stroke="midnightblue" points="1008.5,-103.581 1005,-93.5806 1001.5,-103.581 1008.5,-103.581"/>
</g>
<!-- Node20 -->
<g id="node20" class="node"><title>Node20</title>
<polygon fill="white" stroke="#bfbfbf" points="1045.5,-69 1045.5,-99 1146.5,-99 1146.5,-69 1045.5,-69"/>
<text text-anchor="start" x="1053.5" y="-87" font-family="Helvetica,sans-Serif" font-size="10.00">boost/property_tree</text>
<text text-anchor="middle" x="1096" y="-76" font-family="Helvetica,sans-Serif" font-size="10.00">/ptree.hpp</text>
</g>
<!-- Node14&#45;&gt;Node20 -->
<g id="edge22" class="edge"><title>Node14&#45;&gt;Node20</title>
<path fill="none" stroke="midnightblue" d="M1018.04,-136.403C1030.48,-128.201 1049.67,-115.545 1065.9,-104.844"/>
<polygon fill="midnightblue" stroke="midnightblue" points="1068.13,-107.567 1074.55,-99.1408 1064.28,-101.723 1068.13,-107.567"/>
</g>
<!-- Node21 -->
<g id="node21" class="node"><title>Node21</title>
<g id="a_node21"><a xlink:href="../../d2/de9/Exceptions_8hpp.html" target="_top" xlink:title="This class defines the ComPWA exception base&#45;class and provides a set of standard exceptions...">
<polygon fill="white" stroke="red" points="1348,-74.5 1348,-93.5 1456,-93.5 1456,-74.5 1348,-74.5"/>
<text text-anchor="middle" x="1402" y="-81.5" font-family="Helvetica,sans-Serif" font-size="10.00">Core/Exceptions.hpp</text>
</a>
</g>
</g>
<!-- Node14&#45;&gt;Node21 -->
<g id="edge24" class="edge"><title>Node14&#45;&gt;Node21</title>
<path fill="none" stroke="midnightblue" d="M1057.04,-139.618C1122.96,-132.427 1239.91,-118.423 1339,-100 1345.38,-98.8131 1352.09,-97.3983 1358.66,-95.9189"/>
<polygon fill="midnightblue" stroke="midnightblue" points="1359.84,-99.2383 1368.78,-93.5644 1358.25,-92.4202 1359.84,-99.2383"/>
</g>
<!-- Node22 -->
<g id="node22" class="node"><title>Node22</title>
<g id="a_node22"><a xlink:href="../../da/db4/Logging_8hpp.html" target="_top" xlink:title="Core/Logging.hpp">
<polygon fill="white" stroke="red" points="1164.5,-74.5 1164.5,-93.5 1257.5,-93.5 1257.5,-74.5 1164.5,-74.5"/>
<text text-anchor="middle" x="1211" y="-81.5" font-family="Helvetica,sans-Serif" font-size="10.00">Core/Logging.hpp</text>
</a>
</g>
</g>
<!-- Node14&#45;&gt;Node22 -->
<g id="edge26" class="edge"><title>Node14&#45;&gt;Node22</title>
<path fill="none" stroke="midnightblue" d="M1034.51,-136.403C1070.62,-125.889 1131.85,-108.054 1171.85,-96.4016"/>
<polygon fill="midnightblue" stroke="midnightblue" points="1172.92,-99.7374 1181.54,-93.5806 1170.96,-93.0167 1172.92,-99.7374"/>
</g>
<!-- Node21&#45;&gt;Node5 -->
<g id="edge25" class="edge"><title>Node21&#45;&gt;Node5</title>
<path fill="none" stroke="midnightblue" d="M1369.12,-74.4535C1359.46,-72.1381 1348.85,-69.7821 1339,-68 1199.31,-42.7184 1030.45,-25.9399 962.027,-19.7095"/>
<polygon fill="midnightblue" stroke="midnightblue" points="962.201,-16.2112 951.928,-18.8005 961.574,-23.183 962.201,-16.2112"/>
</g>
<!-- Node23&#45;&gt;Node2 -->
<g id="edge28" class="edge"><title>Node23&#45;&gt;Node2</title>
<path fill="none" stroke="midnightblue" d="M1701.54,-74.3717C1688.61,-63.6992 1666.35,-45.3427 1650.51,-32.2683"/>
<polygon fill="midnightblue" stroke="midnightblue" points="1652.4,-29.2945 1642.46,-25.6305 1647.95,-34.6941 1652.4,-29.2945"/>
</g>
<!-- Node24&#45;&gt;Node2 -->
<g id="edge30" class="edge"><title>Node24&#45;&gt;Node2</title>
<path fill="none" stroke="midnightblue" d="M907.156,-201.552C1020.04,-200.5 1274.49,-187.647 1465,-100 1485.06,-90.7715 1484.04,-79.3176 1503,-68 1533.99,-49.5013 1572.9,-35.1842 1599.84,-26.4918"/>
<polygon fill="midnightblue" stroke="midnightblue" points="1601.05,-29.7802 1609.54,-23.4388 1598.95,-23.1033 1601.05,-29.7802"/>
</g>
<!-- Node24&#45;&gt;Node3 -->
<g id="edge31" class="edge"><title>Node24&#45;&gt;Node3</title>
<path fill="none" stroke="midnightblue" d="M808.853,-192.429C789.025,-185.953 766.862,-174.83 755,-156 734.153,-122.908 733.893,-100.927 755,-68 757.405,-64.2482 804.517,-43.4314 836.583,-29.5798"/>
<polygon fill="midnightblue" stroke="midnightblue" points="838.185,-32.7008 845.986,-25.5313 835.417,-26.2715 838.185,-32.7008"/>
</g>
<!-- Node24&#45;&gt;Node4 -->
<g id="edge33" class="edge"><title>Node24&#45;&gt;Node4</title>
<path fill="none" stroke="midnightblue" d="M817.254,-192.438C789.998,-184.56 750.003,-171.73 717,-156 682.625,-139.616 645.812,-115.005 623.86,-99.4833"/>
<polygon fill="midnightblue" stroke="midnightblue" points="625.848,-96.602 615.678,-93.6307 621.775,-102.295 625.848,-96.602"/>
</g>
<!-- Node24&#45;&gt;Node5 -->
<g id="edge32" class="edge"><title>Node24&#45;&gt;Node5</title>
<path fill="none" stroke="midnightblue" d="M842.618,-192.437C826.796,-170.08 788.934,-108.856 816,-68 838.658,-33.7978 863.745,-49.1823 901,-32 902.355,-31.3751 903.739,-30.7249 905.134,-30.0609"/>
<polygon fill="midnightblue" stroke="midnightblue" points="906.822,-33.1313 914.272,-25.5973 903.75,-26.8416 906.822,-33.1313"/>
</g>
<!-- Node24&#45;&gt;Node14 -->
<g id="edge34" class="edge"><title>Node24&#45;&gt;Node14</title>
<path fill="none" stroke="midnightblue" d="M873.719,-192.444C899.848,-183.399 941.259,-169.064 970.576,-158.916"/>
<polygon fill="midnightblue" stroke="midnightblue" points="972.092,-162.095 980.397,-155.516 969.802,-155.48 972.092,-162.095"/>
</g>
<!-- Node25&#45;&gt;Node2 -->
<g id="edge36" class="edge"><title>Node25&#45;&gt;Node2</title>
<path fill="none" stroke="midnightblue" d="M1596.74,-136.389C1599.6,-127.343 1604.19,-112.695 1608,-100 1614.65,-77.8433 1622,-52.2606 1626.79,-35.4204"/>
<polygon fill="midnightblue" stroke="midnightblue" points="1630.17,-36.3159 1629.54,-25.7403 1623.44,-34.4051 1630.17,-36.3159"/>
</g>
<!-- Node25&#45;&gt;Node5 -->
<g id="edge37" class="edge"><title>Node25&#45;&gt;Node5</title>
<path fill="none" stroke="midnightblue" d="M1594.68,-136.164C1595.41,-119.833 1594.32,-85.0412 1574,-68 1526.68,-28.3143 1083.48,-19.1542 961.784,-17.3794"/>
<polygon fill="midnightblue" stroke="midnightblue" points="961.711,-13.8782 951.663,-17.2383 961.614,-20.8775 961.711,-13.8782"/>
</g>
<!-- Node25&#45;&gt;Node17 -->
<g id="edge38" class="edge"><title>Node25&#45;&gt;Node17</title>
<path fill="none" stroke="midnightblue" d="M1586.12,-136.403C1577.71,-127.225 1564.18,-112.47 1553.77,-101.117"/>
<polygon fill="midnightblue" stroke="midnightblue" points="1556.2,-98.5871 1546.87,-93.5806 1551.04,-103.317 1556.2,-98.5871"/>
</g>
<!-- Node25&#45;&gt;Node23 -->
<g id="edge39" class="edge"><title>Node25&#45;&gt;Node23</title>
<path fill="none" stroke="midnightblue" d="M1610.91,-136.403C1630.53,-126.423 1663.13,-109.849 1685.99,-98.2253"/>
<polygon fill="midnightblue" stroke="midnightblue" points="1687.8,-101.233 1695.12,-93.5806 1684.62,-94.9933 1687.8,-101.233"/>
</g>
</g>
</svg>
