<?xml version="1.0" encoding="UTF-8" standalone="no"?>
<!DOCTYPE svg PUBLIC "-//W3C//DTD SVG 1.1//EN"
 "http://www.w3.org/Graphics/SVG/1.1/DTD/svg11.dtd">
<!-- Generated by graphviz version 2.36.0 (20140111.2315)
 -->
<!-- Title: /home/travis/build/ComPWA/ComPWA/Physics/DPKinematics/RootGenerator.cpp Pages: 1 -->
<svg width="1078pt" height="410pt"
 viewBox="0.00 0.00 1078.00 410.00" xmlns="http://www.w3.org/2000/svg" xmlns:xlink="http://www.w3.org/1999/xlink">
<g id="graph0" class="graph" transform="scale(1 1) rotate(0) translate(4 406)">
<title>/home/travis/build/ComPWA/ComPWA/Physics/DPKinematics/RootGenerator.cpp</title>
<polygon fill="white" stroke="none" points="-4,4 -4,-406 1074,-406 1074,4 -4,4"/>
<!-- Node1 -->
<g id="node1" class="node"><title>Node1</title>
<polygon fill="#bfbfbf" stroke="black" points="230,-360.5 230,-401.5 398,-401.5 398,-360.5 230,-360.5"/>
<text text-anchor="start" x="238" y="-389.5" font-family="Helvetica,sans-Serif" font-size="10.00">/home/travis/build</text>
<text text-anchor="start" x="238" y="-378.5" font-family="Helvetica,sans-Serif" font-size="10.00">/ComPWA/ComPWA/Physics</text>
<text text-anchor="middle" x="314" y="-367.5" font-family="Helvetica,sans-Serif" font-size="10.00">/DPKinematics/RootGenerator.cpp</text>
</g>
<!-- Node2 -->
<g id="node2" class="node"><title>Node2</title>
<polygon fill="white" stroke="#bfbfbf" points="124.5,-0.5 124.5,-19.5 183.5,-19.5 183.5,-0.5 124.5,-0.5"/>
<text text-anchor="middle" x="154" y="-7.5" font-family="Helvetica,sans-Serif" font-size="10.00">stdexcept</text>
</g>
<!-- Node1&#45;&gt;Node2 -->
<g id="edge1" class="edge"><title>Node1&#45;&gt;Node2</title>
<path fill="none" stroke="midnightblue" d="M229.854,-377.659C136.843,-370.057 0,-341.752 0,-241 0,-241 0,-241 0,-121 0,-64.6775 69.0515,-34.4614 114.678,-20.6435"/>
<polygon fill="midnightblue" stroke="midnightblue" points="115.671,-24 124.307,-17.8628 113.729,-17.2748 115.671,-24"/>
</g>
<!-- Node3 -->
<g id="node3" class="node"><title>Node3</title>
<g id="a_node3"><a xlink:href="../../d7/ded/RootGenerator_8hpp.html" target="_top" xlink:title="Physics/DPKinematics\l/RootGenerator.hpp">
<polygon fill="white" stroke="black" points="255,-293 255,-323 373,-323 373,-293 255,-293"/>
<text text-anchor="start" x="263" y="-311" font-family="Helvetica,sans-Serif" font-size="10.00">Physics/DPKinematics</text>
<text text-anchor="middle" x="314" y="-300" font-family="Helvetica,sans-Serif" font-size="10.00">/RootGenerator.hpp</text>
</a>
</g>
</g>
<!-- Node1&#45;&gt;Node3 -->
<g id="edge2" class="edge"><title>Node1&#45;&gt;Node3</title>
<path fill="none" stroke="midnightblue" d="M314,-360.223C314,-351.821 314,-341.948 314,-333.123"/>
<polygon fill="midnightblue" stroke="midnightblue" points="317.5,-333.048 314,-323.049 310.5,-333.049 317.5,-333.048"/>
</g>
<!-- Node21 -->
<g id="node21" class="node"><title>Node21</title>
<g id="a_node21"><a xlink:href="../../d8/dd4/DataPoint_8hpp.html" target="_top" xlink:title="dataPoint stores kinematic information of a dalitz plot ">
<polygon fill="white" stroke="black" points="900.5,-230.5 900.5,-249.5 1003.5,-249.5 1003.5,-230.5 900.5,-230.5"/>
<text text-anchor="middle" x="952" y="-237.5" font-family="Helvetica,sans-Serif" font-size="10.00">Core/DataPoint.hpp</text>
</a>
</g>
</g>
<!-- Node1&#45;&gt;Node21 -->
<g id="edge37" class="edge"><title>Node1&#45;&gt;Node21</title>
<path fill="none" stroke="midnightblue" d="M398.263,-362.702C510.796,-339.415 716.27,-296.249 891,-256 896.651,-254.698 902.586,-253.29 908.443,-251.876"/>
<polygon fill="midnightblue" stroke="midnightblue" points="909.276,-255.276 918.163,-249.508 907.619,-248.475 909.276,-255.276"/>
</g>
<!-- Node4 -->
<g id="node4" class="node"><title>Node4</title>
<polygon fill="white" stroke="#bfbfbf" points="318,-0.5 318,-19.5 372,-19.5 372,-0.5 318,-0.5"/>
<text text-anchor="middle" x="345" y="-7.5" font-family="Helvetica,sans-Serif" font-size="10.00">iostream</text>
</g>
<!-- Node3&#45;&gt;Node4 -->
<g id="edge3" class="edge"><title>Node3&#45;&gt;Node4</title>
<path fill="none" stroke="midnightblue" d="M254.791,-304.94C173.693,-298.594 38,-273.81 38,-179 38,-179 38,-179 38,-121 38,-64.32 225.797,-29.0126 307.63,-16.318"/>
<polygon fill="midnightblue" stroke="midnightblue" points="308.395,-19.742 317.756,-14.7791 307.343,-12.8215 308.395,-19.742"/>
</g>
<!-- Node5 -->
<g id="node5" class="node"><title>Node5</title>
<polygon fill="white" stroke="#bfbfbf" points="142,-230.5 142,-249.5 194,-249.5 194,-230.5 142,-230.5"/>
<text text-anchor="middle" x="168" y="-237.5" font-family="Helvetica,sans-Serif" font-size="10.00">sstream</text>
</g>
<!-- Node3&#45;&gt;Node5 -->
<g id="edge4" class="edge"><title>Node3&#45;&gt;Node5</title>
<path fill="none" stroke="midnightblue" d="M282.679,-292.841C257.086,-281.272 221.214,-265.055 196.436,-253.855"/>
<polygon fill="midnightblue" stroke="midnightblue" points="197.759,-250.612 187.205,-249.682 194.876,-256.99 197.759,-250.612"/>
</g>
<!-- Node6 -->
<g id="node6" class="node"><title>Node6</title>
<polygon fill="white" stroke="#bfbfbf" points="637,-0.5 637,-19.5 681,-19.5 681,-0.5 637,-0.5"/>
<text text-anchor="middle" x="659" y="-7.5" font-family="Helvetica,sans-Serif" font-size="10.00">vector</text>
</g>
<!-- Node3&#45;&gt;Node6 -->
<g id="edge5" class="edge"><title>Node3&#45;&gt;Node6</title>
<path fill="none" stroke="midnightblue" d="M373.134,-305.467C531.432,-300.972 956.591,-286.204 1012,-256 1049.62,-235.494 1070,-221.845 1070,-179 1070,-179 1070,-179 1070,-121 1070,-42.6838 788.005,-18.6367 691.181,-12.6883"/>
<polygon fill="midnightblue" stroke="midnightblue" points="691.286,-9.18848 681.097,-12.0937 690.874,-16.1763 691.286,-9.18848"/>
</g>
<!-- Node7 -->
<g id="node7" class="node"><title>Node7</title>
<polygon fill="white" stroke="#bfbfbf" points="448.5,-56.5 448.5,-75.5 489.5,-75.5 489.5,-56.5 448.5,-56.5"/>
<text text-anchor="middle" x="469" y="-63.5" font-family="Helvetica,sans-Serif" font-size="10.00">string</text>
</g>
<!-- Node3&#45;&gt;Node7 -->
<g id="edge6" class="edge"><title>Node3&#45;&gt;Node7</title>
<path fill="none" stroke="midnightblue" d="M300.468,-292.746C286.378,-276.086 267.807,-247.769 279,-224 297.116,-185.529 401.625,-112.162 447.461,-81.2717"/>
<polygon fill="midnightblue" stroke="midnightblue" points="449.444,-84.1565 455.804,-75.6828 445.548,-78.341 449.444,-84.1565"/>
</g>
<!-- Node8 -->
<g id="node8" class="node"><title>Node8</title>
<polygon fill="white" stroke="#bfbfbf" points="288,-230.5 288,-249.5 340,-249.5 340,-230.5 288,-230.5"/>
<text text-anchor="middle" x="314" y="-237.5" font-family="Helvetica,sans-Serif" font-size="10.00">memory</text>
</g>
<!-- Node3&#45;&gt;Node8 -->
<g id="edge7" class="edge"><title>Node3&#45;&gt;Node8</title>
<path fill="none" stroke="midnightblue" d="M314,-292.679C314,-283.101 314,-270.394 314,-259.977"/>
<polygon fill="midnightblue" stroke="midnightblue" points="317.5,-259.828 314,-249.828 310.5,-259.828 317.5,-259.828"/>
</g>
<!-- Node9 -->
<g id="node9" class="node"><title>Node9</title>
<polygon fill="white" stroke="#bfbfbf" points="358,-230.5 358,-249.5 450,-249.5 450,-230.5 358,-230.5"/>
<text text-anchor="middle" x="404" y="-237.5" font-family="Helvetica,sans-Serif" font-size="10.00">TLorentzVector.h</text>
</g>
<!-- Node3&#45;&gt;Node9 -->
<g id="edge8" class="edge"><title>Node3&#45;&gt;Node9</title>
<path fill="none" stroke="midnightblue" d="M333.529,-292.679C348.482,-281.713 369.03,-266.645 384.079,-255.609"/>
<polygon fill="midnightblue" stroke="midnightblue" points="386.227,-258.374 392.221,-249.638 382.087,-252.729 386.227,-258.374"/>
</g>
<!-- Node10 -->
<g id="node10" class="node"><title>Node10</title>
<polygon fill="white" stroke="#bfbfbf" points="468,-230.5 468,-249.5 532,-249.5 532,-230.5 468,-230.5"/>
<text text-anchor="middle" x="500" y="-237.5" font-family="Helvetica,sans-Serif" font-size="10.00">TParticle.h</text>
</g>
<!-- Node3&#45;&gt;Node10 -->
<g id="edge9" class="edge"><title>Node3&#45;&gt;Node10</title>
<path fill="none" stroke="midnightblue" d="M354.363,-292.955C383.48,-282.787 423.71,-268.661 459,-256 461.586,-255.072 464.262,-254.106 466.95,-253.132"/>
<polygon fill="midnightblue" stroke="midnightblue" points="468.403,-256.328 476.602,-249.617 466.008,-249.75 468.403,-256.328"/>
</g>
<!-- Node11 -->
<g id="node11" class="node"><title>Node11</title>
<polygon fill="white" stroke="#bfbfbf" points="550,-230.5 550,-249.5 654,-249.5 654,-230.5 550,-230.5"/>
<text text-anchor="middle" x="602" y="-237.5" font-family="Helvetica,sans-Serif" font-size="10.00">TGenPhaseSpace.h</text>
</g>
<!-- Node3&#45;&gt;Node11 -->
<g id="edge10" class="edge"><title>Node3&#45;&gt;Node11</title>
<path fill="none" stroke="midnightblue" d="M373.341,-294.01C419.185,-283.892 484.185,-269.366 541,-256 546.441,-254.72 552.148,-253.351 557.796,-251.981"/>
<polygon fill="midnightblue" stroke="midnightblue" points="558.947,-255.303 567.831,-249.531 557.286,-248.503 558.947,-255.303"/>
</g>
<!-- Node12 -->
<g id="node12" class="node"><title>Node12</title>
<polygon fill="white" stroke="#bfbfbf" points="672.5,-230.5 672.5,-249.5 745.5,-249.5 745.5,-230.5 672.5,-230.5"/>
<text text-anchor="middle" x="709" y="-237.5" font-family="Helvetica,sans-Serif" font-size="10.00">TRandom3.h</text>
</g>
<!-- Node3&#45;&gt;Node12 -->
<g id="edge11" class="edge"><title>Node3&#45;&gt;Node12</title>
<path fill="none" stroke="midnightblue" d="M373.236,-301.448C443.13,-294.186 562.542,-279.539 663,-256 667.14,-255.03 671.442,-253.857 675.679,-252.599"/>
<polygon fill="midnightblue" stroke="midnightblue" points="676.85,-255.9 685.344,-249.566 674.754,-249.221 676.85,-255.9"/>
</g>
<!-- Node13 -->
<g id="node13" class="node"><title>Node13</title>
<g id="a_node13"><a xlink:href="../../df/d33/Generator_8hpp.html" target="_top" xlink:title="Core/Generator.hpp">
<polygon fill="white" stroke="black" points="104,-168.5 104,-187.5 206,-187.5 206,-168.5 104,-168.5"/>
<text text-anchor="middle" x="155" y="-175.5" font-family="Helvetica,sans-Serif" font-size="10.00">Core/Generator.hpp</text>
</a>
</g>
</g>
<!-- Node3&#45;&gt;Node13 -->
<g id="edge12" class="edge"><title>Node3&#45;&gt;Node13</title>
<path fill="none" stroke="midnightblue" d="M254.672,-298.133C207.779,-289.77 147.83,-275.586 133,-256 119.546,-238.231 131.569,-212.521 142.438,-195.784"/>
<polygon fill="midnightblue" stroke="midnightblue" points="145.351,-197.724 148.188,-187.516 139.605,-193.727 145.351,-197.724"/>
</g>
<!-- Node14 -->
<g id="node14" class="node"><title>Node14</title>
<g id="a_node14"><a xlink:href="../../df/d7d/Event_8hpp.html" target="_top" xlink:title="This class provides a internal container for event&#45;based information. ">
<polygon fill="white" stroke="black" points="265.5,-112.5 265.5,-131.5 350.5,-131.5 350.5,-112.5 265.5,-112.5"/>
<text text-anchor="middle" x="308" y="-119.5" font-family="Helvetica,sans-Serif" font-size="10.00">Core/Event.hpp</text>
</a>
</g>
</g>
<!-- Node3&#45;&gt;Node14 -->
<g id="edge21" class="edge"><title>Node3&#45;&gt;Node14</title>
<path fill="none" stroke="midnightblue" d="M284.229,-292.944C269.872,-284.44 254.051,-272.103 246,-256 225.13,-214.261 265.869,-164.159 290.736,-139.032"/>
<polygon fill="midnightblue" stroke="midnightblue" points="293.441,-141.283 298.154,-131.794 288.553,-136.273 293.441,-141.283"/>
</g>
<!-- Node15 -->
<g id="node15" class="node"><title>Node15</title>
<g id="a_node15"><a xlink:href="../../d3/d65/Particle_8hpp.html" target="_top" xlink:title="This class provides a internal container for information of a particle. ">
<polygon fill="white" stroke="red" points="262,-56.5 262,-75.5 354,-75.5 354,-56.5 262,-56.5"/>
<text text-anchor="middle" x="308" y="-63.5" font-family="Helvetica,sans-Serif" font-size="10.00">Core/Particle.hpp</text>
</a>
</g>
</g>
<!-- Node3&#45;&gt;Node15 -->
<g id="edge22" class="edge"><title>Node3&#45;&gt;Node15</title>
<path fill="none" stroke="midnightblue" d="M254.999,-304.435C213.927,-299.749 160.235,-287.459 124,-256 99.1899,-234.46 101.578,-220.191 95,-188 80.2,-115.569 183.703,-85.7132 251.675,-74.0092"/>
<polygon fill="midnightblue" stroke="midnightblue" points="252.538,-77.4148 261.842,-72.3469 251.408,-70.5066 252.538,-77.4148"/>
</g>
<!-- Node16 -->
<g id="node16" class="node"><title>Node16</title>
<g id="a_node16"><a xlink:href="../../d7/dd9/DalitzKinematics_8hpp.html" target="_top" xlink:title="DalitzKinematics stores kinematic information of a dalitz plot. ">
<polygon fill="white" stroke="black" points="764,-225 764,-255 882,-255 882,-225 764,-225"/>
<text text-anchor="start" x="772" y="-243" font-family="Helvetica,sans-Serif" font-size="10.00">Physics/DPKinematics</text>
<text text-anchor="middle" x="823" y="-232" font-family="Helvetica,sans-Serif" font-size="10.00">/DalitzKinematics.hpp</text>
</a>
</g>
</g>
<!-- Node3&#45;&gt;Node16 -->
<g id="edge23" class="edge"><title>Node3&#45;&gt;Node16</title>
<path fill="none" stroke="midnightblue" d="M373.33,-301.997C458.095,-294.424 618.591,-278.51 754,-256 754.102,-255.983 754.204,-255.966 754.306,-255.949"/>
<polygon fill="midnightblue" stroke="midnightblue" points="754.745,-259.426 763.979,-254.232 753.521,-252.534 754.745,-259.426"/>
</g>
<!-- Node13&#45;&gt;Node14 -->
<g id="edge13" class="edge"><title>Node13&#45;&gt;Node14</title>
<path fill="none" stroke="midnightblue" d="M179.243,-168.444C204.871,-159.399 245.485,-145.064 274.238,-134.916"/>
<polygon fill="midnightblue" stroke="midnightblue" points="275.605,-138.145 283.87,-131.516 273.275,-131.544 275.605,-138.145"/>
</g>
<!-- Node14&#45;&gt;Node4 -->
<g id="edge16" class="edge"><title>Node14&#45;&gt;Node4</title>
<path fill="none" stroke="midnightblue" d="M325.198,-112.386C338.251,-104.794 355.234,-92.3889 363,-76 370.263,-60.6734 363.545,-41.8822 356.342,-28.4532"/>
<polygon fill="midnightblue" stroke="midnightblue" points="359.301,-26.5814 351.204,-19.7488 353.273,-30.1397 359.301,-26.5814"/>
</g>
<!-- Node14&#45;&gt;Node6 -->
<g id="edge14" class="edge"><title>Node14&#45;&gt;Node6</title>
<path fill="none" stroke="midnightblue" d="M322.39,-112.298C345.95,-98.4164 394.583,-71.2723 439,-56 503.882,-33.6911 583.528,-20.7882 626.976,-14.9019"/>
<polygon fill="midnightblue" stroke="midnightblue" points="627.499,-18.3633 636.956,-13.5876 626.585,-11.4233 627.499,-18.3633"/>
</g>
<!-- Node14&#45;&gt;Node7 -->
<g id="edge15" class="edge"><title>Node14&#45;&gt;Node7</title>
<path fill="none" stroke="midnightblue" d="M333.511,-112.444C362.03,-102.878 408.187,-87.3969 438.567,-77.2075"/>
<polygon fill="midnightblue" stroke="midnightblue" points="439.848,-80.4693 448.216,-73.971 437.622,-73.8327 439.848,-80.4693"/>
</g>
<!-- Node14&#45;&gt;Node15 -->
<g id="edge17" class="edge"><title>Node14&#45;&gt;Node15</title>
<path fill="none" stroke="midnightblue" d="M308,-112.083C308,-105.006 308,-94.8611 308,-85.9865"/>
<polygon fill="midnightblue" stroke="midnightblue" points="311.5,-85.751 308,-75.7511 304.5,-85.7511 311.5,-85.751"/>
</g>
<!-- Node15&#45;&gt;Node2 -->
<g id="edge20" class="edge"><title>Node15&#45;&gt;Node2</title>
<path fill="none" stroke="midnightblue" d="M283.598,-56.4435C257.803,-47.3986 216.923,-33.064 187.982,-22.9158"/>
<polygon fill="midnightblue" stroke="midnightblue" points="188.882,-19.5226 178.288,-19.5164 186.566,-26.1283 188.882,-19.5226"/>
</g>
<!-- Node15&#45;&gt;Node4 -->
<g id="edge19" class="edge"><title>Node15&#45;&gt;Node4</title>
<path fill="none" stroke="midnightblue" d="M314.11,-56.083C319.282,-48.5341 326.846,-37.4948 333.194,-28.2298"/>
<polygon fill="midnightblue" stroke="midnightblue" points="336.239,-29.9787 339.004,-19.7511 330.464,-26.0221 336.239,-29.9787"/>
</g>
<!-- Node15&#45;&gt;Node6 -->
<g id="edge18" class="edge"><title>Node15&#45;&gt;Node6</title>
<path fill="none" stroke="midnightblue" d="M354.248,-57.8849C426.398,-46.7849 563.947,-25.6235 626.538,-15.9941"/>
<polygon fill="midnightblue" stroke="midnightblue" points="627.27,-19.4228 636.621,-14.4429 626.206,-12.5042 627.27,-19.4228"/>
</g>
<!-- Node16&#45;&gt;Node4 -->
<g id="edge24" class="edge"><title>Node16&#45;&gt;Node4</title>
<path fill="none" stroke="midnightblue" d="M763.987,-225.72C760.615,-225.102 757.268,-224.523 754,-224 642.873,-206.229 322.62,-222.702 256,-132 235.989,-104.755 235.103,-84.6776 253,-56 264.999,-36.7731 287.857,-25.5366 307.786,-19.1001"/>
<polygon fill="midnightblue" stroke="midnightblue" points="308.958,-22.4042 317.57,-16.2334 306.989,-15.6866 308.958,-22.4042"/>
</g>
<!-- Node16&#45;&gt;Node6 -->
<g id="edge25" class="edge"><title>Node16&#45;&gt;Node6</title>
<path fill="none" stroke="midnightblue" d="M795.09,-224.891C763.839,-207.529 714.271,-174.988 689,-132 678.837,-114.711 667.666,-59.0422 662.273,-29.622"/>
<polygon fill="midnightblue" stroke="midnightblue" points="665.716,-28.9902 660.503,-19.7664 658.826,-30.2276 665.716,-28.9902"/>
</g>
<!-- Node17 -->
<g id="node17" class="node"><title>Node17</title>
<g id="a_node17"><a xlink:href="../../d4/d37/Kinematics_8hpp.html" target="_top" xlink:title="Core/Kinematics.hpp">
<polygon fill="white" stroke="red" points="477,-168.5 477,-187.5 585,-187.5 585,-168.5 477,-168.5"/>
<text text-anchor="middle" x="531" y="-175.5" font-family="Helvetica,sans-Serif" font-size="10.00">Core/Kinematics.hpp</text>
</a>
</g>
</g>
<!-- Node16&#45;&gt;Node17 -->
<g id="edge26" class="edge"><title>Node16&#45;&gt;Node17</title>
<path fill="none" stroke="midnightblue" d="M763.917,-226.095C760.563,-225.382 757.24,-224.679 754,-224 695.96,-211.836 629.293,-198.461 584.083,-189.48"/>
<polygon fill="midnightblue" stroke="midnightblue" points="584.696,-186.034 574.206,-187.52 583.334,-192.9 584.696,-186.034"/>
</g>
<!-- Node18 -->
<g id="node18" class="node"><title>Node18</title>
<g id="a_node18"><a xlink:href="../../d4/d03/Utility_8hpp.html" target="_top" xlink:title="Basic structures for amplitude calculations. ">
<polygon fill="white" stroke="red" points="480.5,-112.5 480.5,-131.5 565.5,-131.5 565.5,-112.5 480.5,-112.5"/>
<text text-anchor="middle" x="523" y="-119.5" font-family="Helvetica,sans-Serif" font-size="10.00">Core/Utility.hpp</text>
</a>
</g>
</g>
<!-- Node16&#45;&gt;Node18 -->
<g id="edge35" class="edge"><title>Node16&#45;&gt;Node18</title>
<path fill="none" stroke="midnightblue" d="M767.44,-224.935C733.826,-215.787 690.379,-202.824 653,-188 614.938,-172.905 572.896,-150.831 547.213,-136.689"/>
<polygon fill="midnightblue" stroke="midnightblue" points="548.654,-133.486 538.213,-131.689 545.254,-139.605 548.654,-133.486"/>
</g>
<!-- Node20 -->
<g id="node20" class="node"><title>Node20</title>
<g id="a_node20"><a xlink:href="../../da/db4/Logging_8hpp.html" target="_top" xlink:title="Core/Logging.hpp">
<polygon fill="white" stroke="red" points="698.5,-112.5 698.5,-131.5 791.5,-131.5 791.5,-112.5 698.5,-112.5"/>
<text text-anchor="middle" x="745" y="-119.5" font-family="Helvetica,sans-Serif" font-size="10.00">Core/Logging.hpp</text>
</a>
</g>
</g>
<!-- Node16&#45;&gt;Node20 -->
<g id="edge36" class="edge"><title>Node16&#45;&gt;Node20</title>
<path fill="none" stroke="midnightblue" d="M799.898,-224.902C786.951,-215.871 771.536,-203.038 762,-188 753.118,-173.993 748.858,-155.494 746.826,-141.813"/>
<polygon fill="midnightblue" stroke="midnightblue" points="750.273,-141.164 745.59,-131.66 743.324,-142.009 750.273,-141.164"/>
</g>
<!-- Node17&#45;&gt;Node6 -->
<g id="edge27" class="edge"><title>Node17&#45;&gt;Node6</title>
<path fill="none" stroke="midnightblue" d="M540.728,-168.381C550.042,-159.792 564.102,-145.911 574,-132 596.01,-101.065 590.472,-86.5593 613,-56 620.918,-45.2595 631.46,-34.7458 640.455,-26.5852"/>
<polygon fill="midnightblue" stroke="midnightblue" points="642.96,-29.0437 648.161,-19.8133 638.339,-23.7856 642.96,-29.0437"/>
</g>
<!-- Node17&#45;&gt;Node7 -->
<g id="edge28" class="edge"><title>Node17&#45;&gt;Node7</title>
<path fill="none" stroke="midnightblue" d="M511.85,-168.406C497.795,-160.967 479.702,-148.755 471,-132 463.601,-117.754 463.804,-99.2809 465.447,-85.6713"/>
<polygon fill="midnightblue" stroke="midnightblue" points="468.938,-86.0045 467.031,-75.5827 462.022,-84.919 468.938,-86.0045"/>
</g>
<!-- Node17&#45;&gt;Node14 -->
<g id="edge29" class="edge"><title>Node17&#45;&gt;Node14</title>
<path fill="none" stroke="midnightblue" d="M495.665,-168.444C457.089,-159.102 395.215,-144.119 353.147,-133.933"/>
<polygon fill="midnightblue" stroke="midnightblue" points="353.713,-130.468 343.17,-131.516 352.065,-137.272 353.713,-130.468"/>
</g>
<!-- Node17&#45;&gt;Node18 -->
<g id="edge30" class="edge"><title>Node17&#45;&gt;Node18</title>
<path fill="none" stroke="midnightblue" d="M529.679,-168.083C528.619,-160.927 527.094,-150.635 525.769,-141.691"/>
<polygon fill="midnightblue" stroke="midnightblue" points="529.224,-141.13 524.296,-131.751 522.3,-142.156 529.224,-141.13"/>
</g>
<!-- Node18&#45;&gt;Node4 -->
<g id="edge34" class="edge"><title>Node18&#45;&gt;Node4</title>
<path fill="none" stroke="midnightblue" d="M522.123,-112.497C520.239,-98.6496 514.534,-71.2439 498,-56 466.178,-26.6602 416.167,-16.3729 382.047,-12.8099"/>
<polygon fill="midnightblue" stroke="midnightblue" points="382.28,-9.31681 372.007,-11.9064 381.653,-16.2886 382.28,-9.31681"/>
</g>
<!-- Node18&#45;&gt;Node6 -->
<g id="edge33" class="edge"><title>Node18&#45;&gt;Node6</title>
<path fill="none" stroke="midnightblue" d="M529.229,-112.175C538.954,-98.8363 558.834,-73.2683 580,-56 595.496,-43.3574 615.005,-32.2061 630.759,-24.1669"/>
<polygon fill="midnightblue" stroke="midnightblue" points="632.609,-27.1563 640.013,-19.578 629.499,-20.885 632.609,-27.1563"/>
</g>
<!-- Node18&#45;&gt;Node7 -->
<g id="edge31" class="edge"><title>Node18&#45;&gt;Node7</title>
<path fill="none" stroke="midnightblue" d="M514.083,-112.083C506.22,-104.22 494.569,-92.5688 485.081,-83.0813"/>
<polygon fill="midnightblue" stroke="midnightblue" points="487.297,-80.3473 477.751,-75.7511 482.347,-85.2971 487.297,-80.3473"/>
</g>
<!-- Node19 -->
<g id="node19" class="node"><title>Node19</title>
<polygon fill="white" stroke="#bfbfbf" points="622.5,-56.5 622.5,-75.5 657.5,-75.5 657.5,-56.5 622.5,-56.5"/>
<text text-anchor="middle" x="640" y="-63.5" font-family="Helvetica,sans-Serif" font-size="10.00">map</text>
</g>
<!-- Node18&#45;&gt;Node19 -->
<g id="edge32" class="edge"><title>Node18&#45;&gt;Node19</title>
<path fill="none" stroke="midnightblue" d="M541.539,-112.444C560.847,-103.532 591.281,-89.4856 613.204,-79.3674"/>
<polygon fill="midnightblue" stroke="midnightblue" points="614.701,-82.5314 622.314,-75.1629 611.767,-76.1757 614.701,-82.5314"/>
</g>
<!-- Node21&#45;&gt;Node6 -->
<g id="edge40" class="edge"><title>Node21&#45;&gt;Node6</title>
<path fill="none" stroke="midnightblue" d="M945.997,-230.195C923.289,-197.112 842.053,-80.8656 805,-56 770.075,-32.5626 722.398,-20.8947 691.167,-15.4082"/>
<polygon fill="midnightblue" stroke="midnightblue" points="691.684,-11.9463 681.249,-13.7765 690.548,-18.8535 691.684,-11.9463"/>
</g>
<!-- Node21&#45;&gt;Node14 -->
<g id="edge47" class="edge"><title>Node21&#45;&gt;Node14</title>
<path fill="none" stroke="midnightblue" d="M921.161,-230.424C911.563,-228.024 900.9,-225.628 891,-224 704.822,-193.379 651.476,-232.005 468,-188 418.54,-176.138 364.372,-151.454 333.454,-136.15"/>
<polygon fill="midnightblue" stroke="midnightblue" points="334.775,-132.898 324.268,-131.539 331.635,-139.154 334.775,-132.898"/>
</g>
<!-- Node21&#45;&gt;Node17 -->
<g id="edge42" class="edge"><title>Node21&#45;&gt;Node17</title>
<path fill="none" stroke="midnightblue" d="M920.177,-230.43C910.825,-228.114 900.545,-225.764 891,-224 788.428,-205.045 667.912,-191.782 595.591,-184.78"/>
<polygon fill="midnightblue" stroke="midnightblue" points="595.567,-181.261 585.279,-183.792 594.9,-188.23 595.567,-181.261"/>
</g>
<!-- Node21&#45;&gt;Node19 -->
<g id="edge41" class="edge"><title>Node21&#45;&gt;Node19</title>
<path fill="none" stroke="midnightblue" d="M917.044,-230.403C866.089,-217.752 775.936,-194.875 762,-188 725.329,-169.909 717.793,-161.036 689,-132 674.285,-117.161 660.221,-97.777 650.965,-84.0499"/>
<polygon fill="midnightblue" stroke="midnightblue" points="653.803,-81.9969 645.376,-75.5756 647.96,-85.8507 653.803,-81.9969"/>
</g>
<!-- Node22 -->
<g id="node22" class="node"><title>Node22</title>
<polygon fill="white" stroke="#bfbfbf" points="931.5,-168.5 931.5,-187.5 976.5,-187.5 976.5,-168.5 931.5,-168.5"/>
<text text-anchor="middle" x="954" y="-175.5" font-family="Helvetica,sans-Serif" font-size="10.00">cstdlib</text>
</g>
<!-- Node21&#45;&gt;Node22 -->
<g id="edge38" class="edge"><title>Node21&#45;&gt;Node22</title>
<path fill="none" stroke="midnightblue" d="M952.287,-230.403C952.569,-221.938 953.009,-208.728 953.373,-197.82"/>
<polygon fill="midnightblue" stroke="midnightblue" points="956.879,-197.692 953.714,-187.581 949.883,-197.458 956.879,-197.692"/>
</g>
<!-- Node23 -->
<g id="node23" class="node"><title>Node23</title>
<polygon fill="white" stroke="#bfbfbf" points="994.5,-168.5 994.5,-187.5 1041.5,-187.5 1041.5,-168.5 994.5,-168.5"/>
<text text-anchor="middle" x="1018" y="-175.5" font-family="Helvetica,sans-Serif" font-size="10.00">math.h</text>
</g>
<!-- Node21&#45;&gt;Node23 -->
<g id="edge39" class="edge"><title>Node21&#45;&gt;Node23</title>
<path fill="none" stroke="midnightblue" d="M961.456,-230.403C971.748,-221.047 988.416,-205.895 1000.99,-194.46"/>
<polygon fill="midnightblue" stroke="midnightblue" points="1003.52,-196.897 1008.56,-187.581 998.808,-191.718 1003.52,-196.897"/>
</g>
<!-- Node24 -->
<g id="node24" class="node"><title>Node24</title>
<g id="a_node24"><a xlink:href="../../d8/d6f/Efficiency_8hpp.html" target="_top" xlink:title="Core/Efficiency.hpp">
<polygon fill="white" stroke="black" points="771.5,-168.5 771.5,-187.5 874.5,-187.5 874.5,-168.5 771.5,-168.5"/>
<text text-anchor="middle" x="823" y="-175.5" font-family="Helvetica,sans-Serif" font-size="10.00">Core/Efficiency.hpp</text>
</a>
</g>
</g>
<!-- Node21&#45;&gt;Node24 -->
<g id="edge43" class="edge"><title>Node21&#45;&gt;Node24</title>
<path fill="none" stroke="midnightblue" d="M933.517,-230.403C911.868,-220.334 875.787,-203.552 850.768,-191.915"/>
<polygon fill="midnightblue" stroke="midnightblue" points="851.992,-188.624 841.448,-187.581 849.039,-194.971 851.992,-188.624"/>
</g>
<!-- Node24&#45;&gt;Node4 -->
<g id="edge44" class="edge"><title>Node24&#45;&gt;Node4</title>
<path fill="none" stroke="midnightblue" d="M822.157,-168.265C820.395,-154.58 815.134,-128.002 800,-112 755.648,-65.1039 728.25,-73.0652 666,-56 565.652,-28.4909 442.806,-17.2446 382.308,-13.1195"/>
<polygon fill="midnightblue" stroke="midnightblue" points="382.311,-9.61228 372.104,-12.4515 381.854,-16.5973 382.311,-9.61228"/>
</g>
<!-- Node24&#45;&gt;Node6 -->
<g id="edge45" class="edge"><title>Node24&#45;&gt;Node6</title>
<path fill="none" stroke="midnightblue" d="M827.827,-168.374C834.438,-155.296 844.375,-130.063 834,-112 803.333,-58.6074 732.449,-30.9503 690.915,-18.8383"/>
<polygon fill="midnightblue" stroke="midnightblue" points="691.851,-15.4659 681.278,-16.1537 689.972,-22.2091 691.851,-15.4659"/>
</g>
<!-- Node24&#45;&gt;Node20 -->
<g id="edge46" class="edge"><title>Node24&#45;&gt;Node20</title>
<path fill="none" stroke="midnightblue" d="M810.468,-168.324C798.414,-159.979 779.973,-147.212 765.731,-137.352"/>
<polygon fill="midnightblue" stroke="midnightblue" points="767.715,-134.469 757.501,-131.655 763.731,-140.224 767.715,-134.469"/>
</g>
</g>
</svg>
