<?xml version="1.0" encoding="UTF-8" standalone="no"?>
<!DOCTYPE svg PUBLIC "-//W3C//DTD SVG 1.1//EN"
 "http://www.w3.org/Graphics/SVG/1.1/DTD/svg11.dtd">
<!-- Generated by graphviz version 2.36.0 (20140111.2315)
 -->
<!-- Title: /home/travis/build/ComPWA/ComPWA/Core/test/PropertiesTest.cpp Pages: 1 -->
<!--zoomable 242 -->
<svg id="main" version="1.1" xmlns="http://www.w3.org/2000/svg" xmlns:xlink="http://www.w3.org/1999/xlink" xml:space="preserve" onload="init(evt)">
<style type="text/css"><![CDATA[
.edge:hover path { stroke: red; }
.edge:hover polygon { stroke: red; fill: red; }
]]></style>
<script type="text/javascript"><![CDATA[
var edges = document.getElementsByTagName('g');
if (edges && edges.length) {
  for (var i=0;i<edges.length;i++) {
    if (edges[i].id.substr(0,4)=='edge') {
      edges[i].setAttribute('class','edge');
    }
  }
}
]]></script>
        <defs>
                <circle id="rim" cx="0" cy="0" r="7"/>
                <circle id="rim2" cx="0" cy="0" r="3.5"/>
                <g id="zoomPlus">
                        <use xlink:href="#rim" fill="#404040">
                                <set attributeName="fill" to="#808080" begin="zoomplus.mouseover" end="zoomplus.mouseout"/>
                        </use>
                        <path d="M-4,0h8M0,-4v8" fill="none" stroke="white" stroke-width="1.5" pointer-events="none"/>
                </g>
                <g id="zoomMin">
                        <use xlink:href="#rim" fill="#404040">
                                <set attributeName="fill" to="#808080" begin="zoomminus.mouseover" end="zoomminus.mouseout"/>
                        </use>
                        <path d="M-4,0h8" fill="none" stroke="white" stroke-width="1.5" pointer-events="none"/>
                </g>
                <g id="dirArrow">
                        <path fill="none" stroke="white" stroke-width="1.5" d="M0,-3.0v7 M-2.5,-0.5L0,-3.0L2.5,-0.5"/>
                </g>
               <g id="resetDef">
                       <use xlink:href="#rim2" fill="#404040">
                               <set attributeName="fill" to="#808080" begin="reset.mouseover" end="reset.mouseout"/>
                       </use>
               </g>
        </defs>

<script type="text/javascript">
var viewWidth = 656;
var viewHeight = 242;
var sectionId = 'dynsection-0';
</script>
<script xlink:href="../../svgpan.js"/>
<svg id="graph" class="graph">
<g id="viewport">
<title>/home/travis/build/ComPWA/ComPWA/Core/test/PropertiesTest.cpp</title>
<polygon fill="white" stroke="none" points="-4,4 -4,-238 652,-238 652,4 -4,4"/>
<!-- Node1 -->
<g id="node1" class="node"><title>Node1</title>
<polygon fill="#bfbfbf" stroke="black" points="235.5,-192.5 235.5,-233.5 370.5,-233.5 370.5,-192.5 235.5,-192.5"/>
<text text-anchor="start" x="243.5" y="-221.5" font-family="Helvetica,sans-Serif" font-size="10.00">/home/travis/build</text>
<text text-anchor="start" x="243.5" y="-210.5" font-family="Helvetica,sans-Serif" font-size="10.00">/ComPWA/ComPWA/Core</text>
<text text-anchor="middle" x="303" y="-199.5" font-family="Helvetica,sans-Serif" font-size="10.00">/test/PropertiesTest.cpp</text>
</g>
<!-- Node2 -->
<g id="node2" class="node"><title>Node2</title>
<polygon fill="white" stroke="#bfbfbf" points="-0.5,-130.5 -0.5,-149.5 118.5,-149.5 118.5,-130.5 -0.5,-130.5"/>
<text text-anchor="middle" x="59" y="-137.5" font-family="Helvetica,sans-Serif" font-size="10.00">boost/test/unit_test.hpp</text>
</g>
<!-- Node1&#45;&gt;Node2 -->
<g id="edge1" class="edge"><title>Node1&#45;&gt;Node2</title>
<path fill="none" stroke="midnightblue" d="M235.68,-192.411C191.455,-179.542 135.142,-163.156 98.1284,-152.386"/>
<polygon fill="midnightblue" stroke="midnightblue" points="98.8063,-148.938 88.2266,-149.504 96.8505,-155.659 98.8063,-148.938"/>
</g>
<!-- Node3 -->
<g id="node3" class="node"><title>Node3</title>
<polygon fill="white" stroke="#bfbfbf" points="131.5,-1 131.5,-31 232.5,-31 232.5,-1 131.5,-1"/>
<text text-anchor="start" x="139.5" y="-19" font-family="Helvetica,sans-Serif" font-size="10.00">boost/property_tree</text>
<text text-anchor="middle" x="182" y="-8" font-family="Helvetica,sans-Serif" font-size="10.00">/ptree.hpp</text>
</g>
<!-- Node1&#45;&gt;Node3 -->
<g id="edge2" class="edge"><title>Node1&#45;&gt;Node3</title>
<path fill="none" stroke="midnightblue" d="M276.89,-192.271C265.09,-182.366 251.66,-169.594 242,-156 215.965,-119.362 197.94,-69.6508 188.841,-40.6786"/>
<polygon fill="midnightblue" stroke="midnightblue" points="192.156,-39.5514 185.894,-31.0055 185.46,-41.5915 192.156,-39.5514"/>
</g>
<!-- Node4 -->
<g id="node4" class="node"><title>Node4</title>
<polygon fill="white" stroke="#bfbfbf" points="547.5,-125 547.5,-155 648.5,-155 648.5,-125 547.5,-125"/>
<text text-anchor="start" x="555.5" y="-143" font-family="Helvetica,sans-Serif" font-size="10.00">boost/property_tree</text>
<text text-anchor="middle" x="598" y="-132" font-family="Helvetica,sans-Serif" font-size="10.00">/xml_parser.hpp</text>
</g>
<!-- Node1&#45;&gt;Node4 -->
<g id="edge3" class="edge"><title>Node1&#45;&gt;Node4</title>
<path fill="none" stroke="midnightblue" d="M370.679,-195.711C420.968,-183.608 488.971,-167.241 537.466,-155.569"/>
<polygon fill="midnightblue" stroke="midnightblue" points="538.295,-158.97 547.199,-153.227 536.657,-152.164 538.295,-158.97"/>
</g>
<!-- Node5 -->
<g id="node5" class="node"><title>Node5</title>
<g id="a_node5"><a xlink:href="../../dc/ded/Properties_8hpp.html" target="_top" xlink:title="Core/Properties.hpp">
<polygon fill="white" stroke="black" points="251,-130.5 251,-149.5 355,-149.5 355,-130.5 251,-130.5"/>
<text text-anchor="middle" x="303" y="-137.5" font-family="Helvetica,sans-Serif" font-size="10.00">Core/Properties.hpp</text>
</a>
</g>
</g>
<!-- Node1&#45;&gt;Node5 -->
<g id="edge4" class="edge"><title>Node1&#45;&gt;Node5</title>
<path fill="none" stroke="midnightblue" d="M303,-192.223C303,-182.086 303,-169.807 303,-159.813"/>
<polygon fill="midnightblue" stroke="midnightblue" points="306.5,-159.735 303,-149.735 299.5,-159.735 306.5,-159.735"/>
</g>
<!-- Node9 -->
<g id="node9" class="node"><title>Node9</title>
<g id="a_node9"><a xlink:href="../../da/db4/Logging_8hpp.html" target="_top" xlink:title="Core/Logging.hpp">
<polygon fill="white" stroke="red" points="467.5,-6.5 467.5,-25.5 560.5,-25.5 560.5,-6.5 467.5,-6.5"/>
<text text-anchor="middle" x="514" y="-13.5" font-family="Helvetica,sans-Serif" font-size="10.00">Core/Logging.hpp</text>
</a>
</g>
</g>
<!-- Node1&#45;&gt;Node9 -->
<g id="edge15" class="edge"><title>Node1&#45;&gt;Node9</title>
<path fill="none" stroke="midnightblue" d="M340.197,-192.459C378.355,-170.949 437.556,-133.335 477,-88 490.788,-72.1526 501.191,-50.2727 507.401,-35.0054"/>
<polygon fill="midnightblue" stroke="midnightblue" points="510.677,-36.2368 511.02,-25.6476 504.149,-33.7118 510.677,-36.2368"/>
</g>
<!-- Node5&#45;&gt;Node3 -->
<g id="edge6" class="edge"><title>Node5&#45;&gt;Node3</title>
<path fill="none" stroke="midnightblue" d="M289.567,-130.37C275.402,-120.92 252.846,-104.852 236,-88 221.221,-73.2155 207.014,-54.2823 196.885,-39.686"/>
<polygon fill="midnightblue" stroke="midnightblue" points="199.654,-37.5342 191.136,-31.234 193.866,-41.4711 199.654,-37.5342"/>
</g>
<!-- Node6 -->
<g id="node6" class="node"><title>Node6</title>
<polygon fill="white" stroke="#bfbfbf" points="396,-6.5 396,-25.5 440,-25.5 440,-6.5 396,-6.5"/>
<text text-anchor="middle" x="418" y="-13.5" font-family="Helvetica,sans-Serif" font-size="10.00">vector</text>
</g>
<!-- Node5&#45;&gt;Node6 -->
<g id="edge5" class="edge"><title>Node5&#45;&gt;Node6</title>
<path fill="none" stroke="midnightblue" d="M355.142,-137.308C391.255,-133.077 436.995,-120.974 461,-88 474.412,-69.5779 454.85,-46.8254 437.931,-32.1205"/>
<polygon fill="midnightblue" stroke="midnightblue" points="439.944,-29.2441 429.994,-25.6025 435.501,-34.6538 439.944,-29.2441"/>
</g>
<!-- Node7 -->
<g id="node7" class="node"><title>Node7</title>
<g id="a_node7"><a xlink:href="../../d2/de9/Exceptions_8hpp.html" target="_top" xlink:title="This class defines the ComPWA exception base&#45;class and provides a set of standard exceptions...">
<polygon fill="white" stroke="red" points="251,-6.5 251,-25.5 359,-25.5 359,-6.5 251,-6.5"/>
<text text-anchor="middle" x="305" y="-13.5" font-family="Helvetica,sans-Serif" font-size="10.00">Core/Exceptions.hpp</text>
</a>
</g>
</g>
<!-- Node5&#45;&gt;Node7 -->
<g id="edge7" class="edge"><title>Node5&#45;&gt;Node7</title>
<path fill="none" stroke="midnightblue" d="M285.62,-130.306C263.517,-117.964 229.615,-93.9612 242,-68 249.654,-51.9553 265.096,-39.3266 278.775,-30.6496"/>
<polygon fill="midnightblue" stroke="midnightblue" points="280.598,-33.6373 287.41,-25.5221 277.024,-27.6185 280.598,-33.6373"/>
</g>
<!-- Node8 -->
<g id="node8" class="node"><title>Node8</title>
<g id="a_node8"><a xlink:href="../../db/dce/Parameter_8hpp.html" target="_top" xlink:title="This class implements some internal container of parameters. ">
<polygon fill="white" stroke="red" points="251,-68.5 251,-87.5 355,-87.5 355,-68.5 251,-68.5"/>
<text text-anchor="middle" x="303" y="-75.5" font-family="Helvetica,sans-Serif" font-size="10.00">Core/Parameter.hpp</text>
</a>
</g>
</g>
<!-- Node5&#45;&gt;Node8 -->
<g id="edge8" class="edge"><title>Node5&#45;&gt;Node8</title>
<path fill="none" stroke="midnightblue" d="M303,-130.403C303,-121.938 303,-108.728 303,-97.8199"/>
<polygon fill="midnightblue" stroke="midnightblue" points="306.5,-97.5806 303,-87.5806 299.5,-97.5806 306.5,-97.5806"/>
</g>
<!-- Node10 -->
<g id="node10" class="node"><title>Node10</title>
<g id="a_node10"><a xlink:href="../../d9/dfb/Spin_8hpp.html" target="_top" xlink:title="Core/Spin.hpp">
<polygon fill="white" stroke="red" points="373.5,-68.5 373.5,-87.5 452.5,-87.5 452.5,-68.5 373.5,-68.5"/>
<text text-anchor="middle" x="413" y="-75.5" font-family="Helvetica,sans-Serif" font-size="10.00">Core/Spin.hpp</text>
</a>
</g>
</g>
<!-- Node5&#45;&gt;Node10 -->
<g id="edge12" class="edge"><title>Node5&#45;&gt;Node10</title>
<path fill="none" stroke="midnightblue" d="M318.76,-130.403C336.976,-120.468 367.173,-103.997 388.468,-92.3812"/>
<polygon fill="midnightblue" stroke="midnightblue" points="390.166,-95.4418 397.269,-87.5806 386.814,-89.2965 390.166,-95.4418"/>
</g>
<!-- Node8&#45;&gt;Node3 -->
<g id="edge9" class="edge"><title>Node8&#45;&gt;Node3</title>
<path fill="none" stroke="midnightblue" d="M285.664,-68.4035C268.51,-59.8976 241.697,-46.6018 219.638,-35.6635"/>
<polygon fill="midnightblue" stroke="midnightblue" points="221.031,-32.4477 210.517,-31.1408 217.921,-38.719 221.031,-32.4477"/>
</g>
<!-- Node8&#45;&gt;Node7 -->
<g id="edge10" class="edge"><title>Node8&#45;&gt;Node7</title>
<path fill="none" stroke="midnightblue" d="M303.287,-68.4035C303.569,-59.9381 304.009,-46.7283 304.373,-35.8199"/>
<polygon fill="midnightblue" stroke="midnightblue" points="307.879,-35.6917 304.714,-25.5806 300.883,-35.4584 307.879,-35.6917"/>
</g>
<!-- Node8&#45;&gt;Node9 -->
<g id="edge11" class="edge"><title>Node8&#45;&gt;Node9</title>
<path fill="none" stroke="midnightblue" d="M333.231,-68.4035C370.287,-57.8663 433.193,-39.9783 474.164,-28.3276"/>
<polygon fill="midnightblue" stroke="midnightblue" points="475.164,-31.6824 483.825,-25.5806 473.249,-24.9493 475.164,-31.6824"/>
</g>
<!-- Node10&#45;&gt;Node6 -->
<g id="edge13" class="edge"><title>Node10&#45;&gt;Node6</title>
<path fill="none" stroke="midnightblue" d="M413.716,-68.4035C414.422,-59.9381 415.523,-46.7283 416.432,-35.8199"/>
<polygon fill="midnightblue" stroke="midnightblue" points="419.942,-35.8367 417.285,-25.5806 412.966,-35.2554 419.942,-35.8367"/>
</g>
<!-- Node10&#45;&gt;Node7 -->
<g id="edge14" class="edge"><title>Node10&#45;&gt;Node7</title>
<path fill="none" stroke="midnightblue" d="M397.526,-68.4035C379.722,-58.5123 350.259,-42.1442 329.368,-30.5378"/>
<polygon fill="midnightblue" stroke="midnightblue" points="330.886,-27.3775 320.445,-25.5806 327.487,-33.4966 330.886,-27.3775"/>
</g>
</g>
</svg>
        <g id="navigator" transform="translate(0 0)" fill="#404254">
                <rect fill="#f2f5e9" fill-opacity="0.5" stroke="#606060" stroke-width=".5" x="0" y="0" width="60" height="60"/>
                <use id="zoomplus" xlink:href="#zoomPlus" x="17" y="9" onmousedown="handleZoom(evt,'in')"/>
                <use id="zoomminus" xlink:href="#zoomMin" x="42" y="9" onmousedown="handleZoom(evt,'out')"/>
                <use id="reset" xlink:href="#resetDef" x="30" y="36" onmousedown="handleReset()"/>
                <g id="arrowUp" xlink:href="#dirArrow" transform="translate(30 24)" onmousedown="handlePan(0,-1)">
                  <use xlink:href="#rim" fill="#404040">
                        <set attributeName="fill" to="#808080" begin="arrowUp.mouseover" end="arrowUp.mouseout"/>
                  </use>
                  <path fill="none" stroke="white" stroke-width="1.5" d="M0,-3.0v7 M-2.5,-0.5L0,-3.0L2.5,-0.5"/>
                </g>
                <g id="arrowRight" xlink:href="#dirArrow" transform="rotate(90) translate(36 -43)" onmousedown="handlePan(1,0)">
                  <use xlink:href="#rim" fill="#404040">
                        <set attributeName="fill" to="#808080" begin="arrowRight.mouseover" end="arrowRight.mouseout"/>
                  </use>
                  <path fill="none" stroke="white" stroke-width="1.5" d="M0,-3.0v7 M-2.5,-0.5L0,-3.0L2.5,-0.5"/>
                </g>
                <g id="arrowDown" xlink:href="#dirArrow" transform="rotate(180) translate(-30 -48)" onmousedown="handlePan(0,1)">
                  <use xlink:href="#rim" fill="#404040">
                        <set attributeName="fill" to="#808080" begin="arrowDown.mouseover" end="arrowDown.mouseout"/>
                  </use>
                  <path fill="none" stroke="white" stroke-width="1.5" d="M0,-3.0v7 M-2.5,-0.5L0,-3.0L2.5,-0.5"/>
                </g>
                <g id="arrowLeft" xlink:href="#dirArrow" transform="rotate(270) translate(-36 17)" onmousedown="handlePan(-1,0)">
                  <use xlink:href="#rim" fill="#404040">
                        <set attributeName="fill" to="#808080" begin="arrowLeft.mouseover" end="arrowLeft.mouseout"/>
                  </use>
                  <path fill="none" stroke="white" stroke-width="1.5" d="M0,-3.0v7 M-2.5,-0.5L0,-3.0L2.5,-0.5"/>
                </g>
        </g>
        <svg viewBox="0 0 15 15" width="100%" height="30px" preserveAspectRatio="xMaxYMin meet">
         <g id="arrow_out" transform="scale(0.3 0.3)">
          <a xlink:href="PropertiesTest_8cpp__incl_org.svg" target="_base">
           <rect id="button" ry="5" rx="5" y="6" x="6" height="38" width="38"
                fill="#f2f5e9" fill-opacity="0.5" stroke="#606060" stroke-width="1.0"/>
           <path id="arrow"
             d="M 11.500037,31.436501 C 11.940474,20.09759 22.043105,11.32322 32.158766,21.979434 L 37.068811,17.246167 C 37.068811,17.246167 37.088388,32 37.088388,32 L 22.160133,31.978069 C 22.160133,31.978069 26.997745,27.140456 26.997745,27.140456 C 18.528582,18.264221 13.291696,25.230495 11.500037,31.436501 z"
             style="fill:#404040;"/>
          </a>
         </g>
        </svg>
</svg>
