<?xml version="1.0" encoding="UTF-8" standalone="no"?>
<!DOCTYPE svg PUBLIC "-//W3C//DTD SVG 1.1//EN"
 "http://www.w3.org/Graphics/SVG/1.1/DTD/svg11.dtd">
<!-- Generated by graphviz version 2.36.0 (20140111.2315)
 -->
<!-- Title: /home/travis/build/ComPWA/ComPWA/Core/Event.hpp Pages: 1 -->
<svg width="2206pt" height="542pt"
 viewBox="0.00 0.00 2206.00 542.00" xmlns="http://www.w3.org/2000/svg" xmlns:xlink="http://www.w3.org/1999/xlink">
<g id="graph0" class="graph" transform="scale(1 1) rotate(0) translate(4 538)">
<title>/home/travis/build/ComPWA/ComPWA/Core/Event.hpp</title>
<polygon fill="white" stroke="none" points="-4,4 -4,-538 2202,-538 2202,4 -4,4"/>
<!-- Node1 -->
<g id="node1" class="node"><title>Node1</title>
<polygon fill="#bfbfbf" stroke="black" points="993.5,-492.5 993.5,-533.5 1128.5,-533.5 1128.5,-492.5 993.5,-492.5"/>
<text text-anchor="start" x="1001.5" y="-521.5" font-family="Helvetica,sans-Serif" font-size="10.00">/home/travis/build</text>
<text text-anchor="start" x="1001.5" y="-510.5" font-family="Helvetica,sans-Serif" font-size="10.00">/ComPWA/ComPWA/Core</text>
<text text-anchor="middle" x="1061" y="-499.5" font-family="Helvetica,sans-Serif" font-size="10.00">/Event.hpp</text>
</g>
<!-- Node2 -->
<g id="node2" class="node"><title>Node2</title>
<g id="a_node2"><a xlink:href="../../d8/dd4/DataPoint_8hpp.html" target="_top" xlink:title="dataPoint stores kinematic information of a dalitz plot ">
<polygon fill="white" stroke="red" points="350.5,-336.5 350.5,-377.5 485.5,-377.5 485.5,-336.5 350.5,-336.5"/>
<text text-anchor="start" x="358.5" y="-365.5" font-family="Helvetica,sans-Serif" font-size="10.00">/home/travis/build</text>
<text text-anchor="start" x="358.5" y="-354.5" font-family="Helvetica,sans-Serif" font-size="10.00">/ComPWA/ComPWA/Core</text>
<text text-anchor="middle" x="418" y="-343.5" font-family="Helvetica,sans-Serif" font-size="10.00">/DataPoint.hpp</text>
</a>
</g>
</g>
<!-- Node1&#45;&gt;Node2 -->
<g id="edge1" class="edge"><title>Node1&#45;&gt;Node2</title>
<path fill="none" stroke="midnightblue" d="M982.933,-509.825C854.488,-505.256 604.854,-491.93 525,-456 485.947,-438.428 451.577,-400.978 432.891,-377.799"/>
<polygon fill="midnightblue" stroke="midnightblue" points="982.981,-513.328 993.096,-510.177 983.224,-506.333 982.981,-513.328"/>
</g>
<!-- Node3 -->
<g id="node3" class="node"><title>Node3</title>
<g id="a_node3"><a xlink:href="../../de/d57/Kinematics_8cpp.html" target="_top" xlink:title="/home/travis/build\l/ComPWA/ComPWA/Core\l/Kinematics.cpp">
<polygon fill="white" stroke="black" points="106.5,-258.5 106.5,-299.5 241.5,-299.5 241.5,-258.5 106.5,-258.5"/>
<text text-anchor="start" x="114.5" y="-287.5" font-family="Helvetica,sans-Serif" font-size="10.00">/home/travis/build</text>
<text text-anchor="start" x="114.5" y="-276.5" font-family="Helvetica,sans-Serif" font-size="10.00">/ComPWA/ComPWA/Core</text>
<text text-anchor="middle" x="174" y="-265.5" font-family="Helvetica,sans-Serif" font-size="10.00">/Kinematics.cpp</text>
</a>
</g>
</g>
<!-- Node1&#45;&gt;Node3 -->
<g id="edge33" class="edge"><title>Node1&#45;&gt;Node3</title>
<path fill="none" stroke="midnightblue" d="M983.383,-510.363C759.629,-505.27 127.275,-488.085 97,-456 53.3959,-409.789 117.325,-334.894 152.894,-299.594"/>
<polygon fill="midnightblue" stroke="midnightblue" points="983.33,-513.863 993.407,-510.59 983.489,-506.865 983.33,-513.863"/>
</g>
<!-- Node4 -->
<g id="node4" class="node"><title>Node4</title>
<g id="a_node4"><a xlink:href="../../d7/dbd/AsciiReader_8hpp.html" target="_top" xlink:title="This class reads event&#45;based data from ascii&#45;files in the same syntax as Pawian&#39;s epemEvtReader...">
<polygon fill="white" stroke="red" points="324.5,-180.5 324.5,-221.5 491.5,-221.5 491.5,-180.5 324.5,-180.5"/>
<text text-anchor="start" x="332.5" y="-209.5" font-family="Helvetica,sans-Serif" font-size="10.00">/home/travis/build</text>
<text text-anchor="start" x="332.5" y="-198.5" font-family="Helvetica,sans-Serif" font-size="10.00">/ComPWA/ComPWA/DataReader</text>
<text text-anchor="middle" x="408" y="-187.5" font-family="Helvetica,sans-Serif" font-size="10.00">/AsciiReader/AsciiReader.hpp</text>
</a>
</g>
</g>
<!-- Node1&#45;&gt;Node4 -->
<g id="edge38" class="edge"><title>Node1&#45;&gt;Node4</title>
<path fill="none" stroke="midnightblue" d="M983.09,-507.569C880.292,-500.678 705.737,-485.062 649,-456 538.359,-399.327 450.696,-271.114 419.903,-221.822"/>
<polygon fill="midnightblue" stroke="midnightblue" points="982.906,-511.064 993.114,-508.228 983.365,-504.079 982.906,-511.064"/>
</g>
<!-- Node5 -->
<g id="node5" class="node"><title>Node5</title>
<g id="a_node5"><a xlink:href="../../d2/d4b/Data_8hpp.html" target="_top" xlink:title="/home/travis/build\l/ComPWA/ComPWA/DataReader\l/Data.hpp">
<polygon fill="white" stroke="red" points="897.5,-258.5 897.5,-299.5 1064.5,-299.5 1064.5,-258.5 897.5,-258.5"/>
<text text-anchor="start" x="905.5" y="-287.5" font-family="Helvetica,sans-Serif" font-size="10.00">/home/travis/build</text>
<text text-anchor="start" x="905.5" y="-276.5" font-family="Helvetica,sans-Serif" font-size="10.00">/ComPWA/ComPWA/DataReader</text>
<text text-anchor="middle" x="981" y="-265.5" font-family="Helvetica,sans-Serif" font-size="10.00">/Data.hpp</text>
</a>
</g>
</g>
<!-- Node1&#45;&gt;Node5 -->
<g id="edge39" class="edge"><title>Node1&#45;&gt;Node5</title>
<path fill="none" stroke="midnightblue" d="M1052.25,-482.673C1041.61,-447.546 1022.72,-387.049 1004,-336 999.513,-323.764 993.977,-310.243 989.46,-299.552"/>
<polygon fill="midnightblue" stroke="midnightblue" points="1048.92,-483.737 1055.16,-492.3 1055.62,-481.715 1048.92,-483.737"/>
</g>
<!-- Node6 -->
<g id="node6" class="node"><title>Node6</title>
<g id="a_node6"><a xlink:href="../../d8/d0f/JakeReader_8hpp.html" target="_top" xlink:title="This class reads event&#45;based data from BESIII root&#45;files. ">
<polygon fill="white" stroke="red" points="509.5,-180.5 509.5,-221.5 676.5,-221.5 676.5,-180.5 509.5,-180.5"/>
<text text-anchor="start" x="517.5" y="-209.5" font-family="Helvetica,sans-Serif" font-size="10.00">/home/travis/build</text>
<text text-anchor="start" x="517.5" y="-198.5" font-family="Helvetica,sans-Serif" font-size="10.00">/ComPWA/ComPWA/DataReader</text>
<text text-anchor="middle" x="593" y="-187.5" font-family="Helvetica,sans-Serif" font-size="10.00">/JakeReader/JakeReader.hpp</text>
</a>
</g>
</g>
<!-- Node1&#45;&gt;Node6 -->
<g id="edge44" class="edge"><title>Node1&#45;&gt;Node6</title>
<path fill="none" stroke="midnightblue" d="M983.046,-509.297C887.794,-504.481 733.874,-491.327 690,-456 614.997,-395.607 597.934,-270.173 594.097,-221.707"/>
<polygon fill="midnightblue" stroke="midnightblue" points="983.059,-512.802 993.217,-509.791 983.398,-505.81 983.059,-512.802"/>
</g>
<!-- Node7 -->
<g id="node7" class="node"><title>Node7</title>
<g id="a_node7"><a xlink:href="../../d4/d8c/DalitzDataPlotterApp_8cpp.html" target="_top" xlink:title="Plotter for three particle final states. ">
<polygon fill="white" stroke="black" points="634.5,-91 634.5,-143 815.5,-143 815.5,-91 634.5,-91"/>
<text text-anchor="start" x="642.5" y="-131" font-family="Helvetica,sans-Serif" font-size="10.00">/home/travis/build</text>
<text text-anchor="start" x="642.5" y="-120" font-family="Helvetica,sans-Serif" font-size="10.00">/ComPWA/ComPWA/executables</text>
<text text-anchor="start" x="642.5" y="-109" font-family="Helvetica,sans-Serif" font-size="10.00">/Examples/DalitzFit/DalitzDataPlotter</text>
<text text-anchor="middle" x="725" y="-98" font-family="Helvetica,sans-Serif" font-size="10.00">App.cpp</text>
</a>
</g>
</g>
<!-- Node1&#45;&gt;Node7 -->
<g id="edge58" class="edge"><title>Node1&#45;&gt;Node7</title>
<path fill="none" stroke="midnightblue" d="M983.177,-511.359C878.142,-505.913 704,-478.687 704,-358 704,-358 704,-358 704,-278 704,-229.953 713.425,-174.474 719.646,-143.084"/>
<polygon fill="midnightblue" stroke="midnightblue" points="983.28,-514.867 993.431,-511.833 983.604,-507.874 983.28,-514.867"/>
</g>
<!-- Node8 -->
<g id="node8" class="node"><title>Node8</title>
<g id="a_node8"><a xlink:href="../../da/d2a/DalitzFitApp_8cpp.html" target="_top" xlink:title="Dalitz plot analysis of the decay D0&#45;&gt;K_S0 K_ K&#45;Fit application for D0&#45;&gt;K_S0 K_ K&#45; analysis...">
<polygon fill="white" stroke="black" points="437.5,-96.5 437.5,-137.5 616.5,-137.5 616.5,-96.5 437.5,-96.5"/>
<text text-anchor="start" x="445.5" y="-125.5" font-family="Helvetica,sans-Serif" font-size="10.00">/home/travis/build</text>
<text text-anchor="start" x="445.5" y="-114.5" font-family="Helvetica,sans-Serif" font-size="10.00">/ComPWA/ComPWA/executables</text>
<text text-anchor="middle" x="527" y="-103.5" font-family="Helvetica,sans-Serif" font-size="10.00">/Examples/DalitzFit/DalitzFitApp.cpp</text>
</a>
</g>
</g>
<!-- Node1&#45;&gt;Node8 -->
<g id="edge59" class="edge"><title>Node1&#45;&gt;Node8</title>
<path fill="none" stroke="midnightblue" d="M983.212,-509.219C844.008,-503.496 558.059,-488.148 464,-456 402.747,-435.065 380.877,-428.991 341,-378 285.639,-307.21 245.465,-251.428 300,-180 317.075,-157.636 381.499,-141.388 437.373,-131.15"/>
<polygon fill="midnightblue" stroke="midnightblue" points="983.249,-512.723 993.382,-509.63 983.532,-505.729 983.249,-512.723"/>
</g>
<!-- Node9 -->
<g id="node9" class="node"><title>Node9</title>
<g id="a_node9"><a xlink:href="../../df/d53/RootReader_8hpp.html" target="_top" xlink:title="This class reads event&#45;based data from root&#45;files. ">
<polygon fill="white" stroke="red" points="1117.5,-180.5 1117.5,-221.5 1284.5,-221.5 1284.5,-180.5 1117.5,-180.5"/>
<text text-anchor="start" x="1125.5" y="-209.5" font-family="Helvetica,sans-Serif" font-size="10.00">/home/travis/build</text>
<text text-anchor="start" x="1125.5" y="-198.5" font-family="Helvetica,sans-Serif" font-size="10.00">/ComPWA/ComPWA/DataReader</text>
<text text-anchor="middle" x="1201" y="-187.5" font-family="Helvetica,sans-Serif" font-size="10.00">/RootReader/RootReader.hpp</text>
</a>
</g>
</g>
<!-- Node1&#45;&gt;Node9 -->
<g id="edge45" class="edge"><title>Node1&#45;&gt;Node9</title>
<path fill="none" stroke="midnightblue" d="M1111.61,-487.249C1151.16,-464.81 1203.27,-427.654 1227,-378 1252.04,-325.608 1226.28,-255.249 1210.83,-221.567"/>
<polygon fill="midnightblue" stroke="midnightblue" points="1109.43,-484.46 1102.37,-492.361 1112.81,-490.587 1109.43,-484.46"/>
</g>
<!-- Node10 -->
<g id="node10" class="node"><title>Node10</title>
<g id="a_node10"><a xlink:href="../../db/df0/DataReader_2test_2GenevaTestApp_8cpp.html" target="_top" xlink:title="/home/travis/build\l/ComPWA/ComPWA/DataReader\l/test/GenevaTestApp.cpp">
<polygon fill="white" stroke="black" points="1415.5,-96.5 1415.5,-137.5 1582.5,-137.5 1582.5,-96.5 1415.5,-96.5"/>
<text text-anchor="start" x="1423.5" y="-125.5" font-family="Helvetica,sans-Serif" font-size="10.00">/home/travis/build</text>
<text text-anchor="start" x="1423.5" y="-114.5" font-family="Helvetica,sans-Serif" font-size="10.00">/ComPWA/ComPWA/DataReader</text>
<text text-anchor="middle" x="1499" y="-103.5" font-family="Helvetica,sans-Serif" font-size="10.00">/test/GenevaTestApp.cpp</text>
</a>
</g>
</g>
<!-- Node1&#45;&gt;Node10 -->
<g id="edge46" class="edge"><title>Node1&#45;&gt;Node10</title>
<path fill="none" stroke="midnightblue" d="M1138.74,-506.051C1287.99,-492.481 1600,-452.778 1600,-358 1600,-358 1600,-358 1600,-278 1600,-233.633 1604.47,-217.65 1581,-180 1570.05,-162.431 1552.18,-148.054 1535.92,-137.584"/>
<polygon fill="midnightblue" stroke="midnightblue" points="1138.37,-502.571 1128.72,-506.946 1138.99,-509.543 1138.37,-502.571"/>
</g>
<!-- Node11 -->
<g id="node11" class="node"><title>Node11</title>
<g id="a_node11"><a xlink:href="../../d9/dab/CompareTreeAmpApp_8cpp.html" target="_top" xlink:title="/home/travis/build\l/ComPWA/ComPWA/executables\l/CompareTreeAmpApp.cpp">
<polygon fill="white" stroke="black" points="971.5,-96.5 971.5,-137.5 1138.5,-137.5 1138.5,-96.5 971.5,-96.5"/>
<text text-anchor="start" x="979.5" y="-125.5" font-family="Helvetica,sans-Serif" font-size="10.00">/home/travis/build</text>
<text text-anchor="start" x="979.5" y="-114.5" font-family="Helvetica,sans-Serif" font-size="10.00">/ComPWA/ComPWA/executables</text>
<text text-anchor="middle" x="1055" y="-103.5" font-family="Helvetica,sans-Serif" font-size="10.00">/CompareTreeAmpApp.cpp</text>
</a>
</g>
</g>
<!-- Node1&#45;&gt;Node11 -->
<g id="edge55" class="edge"><title>Node1&#45;&gt;Node11</title>
<path fill="none" stroke="midnightblue" d="M1138.36,-498.291C1212.11,-480.246 1312,-440.566 1312,-358 1312,-358 1312,-358 1312,-278 1312,-233.633 1323.36,-212.35 1293,-180 1282.08,-168.364 1202.75,-149.174 1138.63,-135.221"/>
<polygon fill="midnightblue" stroke="midnightblue" points="1137.52,-494.891 1128.59,-500.592 1139.13,-501.704 1137.52,-494.891"/>
</g>
<!-- Node12 -->
<g id="node12" class="node"><title>Node12</title>
<g id="a_node12"><a xlink:href="../../db/d7b/DalitzFitD03K_8cpp.html" target="_top" xlink:title="/home/travis/build\l/ComPWA/ComPWA/executables\l/Examples/DalitzAnalysis\l_D0KsKK/DalitzFitD03K.cpp">
<polygon fill="white" stroke="black" points="1082.5,-1 1082.5,-53 1249.5,-53 1249.5,-1 1082.5,-1"/>
<text text-anchor="start" x="1090.5" y="-41" font-family="Helvetica,sans-Serif" font-size="10.00">/home/travis/build</text>
<text text-anchor="start" x="1090.5" y="-30" font-family="Helvetica,sans-Serif" font-size="10.00">/ComPWA/ComPWA/executables</text>
<text text-anchor="start" x="1090.5" y="-19" font-family="Helvetica,sans-Serif" font-size="10.00">/Examples/DalitzAnalysis</text>
<text text-anchor="middle" x="1166" y="-8" font-family="Helvetica,sans-Serif" font-size="10.00">_D0KsKK/DalitzFitD03K.cpp</text>
</a>
</g>
</g>
<!-- Node1&#45;&gt;Node12 -->
<g id="edge56" class="edge"><title>Node1&#45;&gt;Node12</title>
<path fill="none" stroke="midnightblue" d="M1138.8,-508.457C1235.52,-499.389 1388,-467.698 1388,-358 1388,-358 1388,-358 1388,-200 1388,-150.387 1401.81,-127.21 1369,-90 1339.14,-56.1431 1291.38,-40.4917 1249.68,-33.3751"/>
<polygon fill="midnightblue" stroke="midnightblue" points="1138.41,-504.978 1128.75,-509.337 1139.02,-511.951 1138.41,-504.978"/>
</g>
<!-- Node13 -->
<g id="node13" class="node"><title>Node13</title>
<g id="a_node13"><a xlink:href="../../d8/d43/PlotData_8hpp.html" target="_top" xlink:title="/home/travis/build\l/ComPWA/ComPWA/executables\l/Examples/DalitzAnalysis\l_D0KsKK/PlotData.hpp">
<polygon fill="white" stroke="red" points="1193.5,-91 1193.5,-143 1360.5,-143 1360.5,-91 1193.5,-91"/>
<text text-anchor="start" x="1201.5" y="-131" font-family="Helvetica,sans-Serif" font-size="10.00">/home/travis/build</text>
<text text-anchor="start" x="1201.5" y="-120" font-family="Helvetica,sans-Serif" font-size="10.00">/ComPWA/ComPWA/executables</text>
<text text-anchor="start" x="1201.5" y="-109" font-family="Helvetica,sans-Serif" font-size="10.00">/Examples/DalitzAnalysis</text>
<text text-anchor="middle" x="1277" y="-98" font-family="Helvetica,sans-Serif" font-size="10.00">_D0KsKK/PlotData.hpp</text>
</a>
</g>
</g>
<!-- Node1&#45;&gt;Node13 -->
<g id="edge57" class="edge"><title>Node1&#45;&gt;Node13</title>
<path fill="none" stroke="midnightblue" d="M1138.73,-503.976C1224.33,-490.34 1350,-453.976 1350,-358 1350,-358 1350,-358 1350,-278 1350,-226.553 1318.37,-173.514 1296.75,-143.267"/>
<polygon fill="midnightblue" stroke="midnightblue" points="1138.12,-500.529 1128.76,-505.492 1139.17,-507.449 1138.12,-500.529"/>
</g>
<!-- Node14 -->
<g id="node14" class="node"><title>Node14</title>
<g id="a_node14"><a xlink:href="../../d5/d8d/ChiOneD_8hpp.html" target="_top" xlink:title="This class calculates a simple &#160;of a intensity and a dataset. ">
<polygon fill="white" stroke="red" points="906,-180.5 906,-221.5 1062,-221.5 1062,-180.5 906,-180.5"/>
<text text-anchor="start" x="914" y="-209.5" font-family="Helvetica,sans-Serif" font-size="10.00">/home/travis/build</text>
<text text-anchor="start" x="914" y="-198.5" font-family="Helvetica,sans-Serif" font-size="10.00">/ComPWA/ComPWA/Estimator</text>
<text text-anchor="middle" x="984" y="-187.5" font-family="Helvetica,sans-Serif" font-size="10.00">/ChiOneD/ChiOneD.hpp</text>
</a>
</g>
</g>
<!-- Node1&#45;&gt;Node14 -->
<g id="edge47" class="edge"><title>Node1&#45;&gt;Node14</title>
<path fill="none" stroke="midnightblue" d="M991.949,-488.579C942.89,-467.881 880.657,-432.402 851,-378 824.287,-328.997 850.251,-299.108 888,-258 901.834,-242.935 920.67,-230.745 937.995,-221.631"/>
<polygon fill="midnightblue" stroke="midnightblue" points="990.678,-491.841 1001.26,-492.398 993.335,-485.364 990.678,-491.841"/>
</g>
<!-- Node15 -->
<g id="node15" class="node"><title>Node15</title>
<g id="a_node15"><a xlink:href="../../d7/de4/MinLogLH_8hpp.html" target="_top" xlink:title="This class calculates a simple &#45;log(LH) of a intensity and a dataset. ">
<polygon fill="white" stroke="red" points="732,-180.5 732,-221.5 888,-221.5 888,-180.5 732,-180.5"/>
<text text-anchor="start" x="740" y="-209.5" font-family="Helvetica,sans-Serif" font-size="10.00">/home/travis/build</text>
<text text-anchor="start" x="740" y="-198.5" font-family="Helvetica,sans-Serif" font-size="10.00">/ComPWA/ComPWA/Estimator</text>
<text text-anchor="middle" x="810" y="-187.5" font-family="Helvetica,sans-Serif" font-size="10.00">/MinLogLH/MinLogLH.hpp</text>
</a>
</g>
</g>
<!-- Node1&#45;&gt;Node15 -->
<g id="edge49" class="edge"><title>Node1&#45;&gt;Node15</title>
<path fill="none" stroke="midnightblue" d="M983.153,-502.784C947.237,-495.182 906.016,-481.31 876,-456 804.944,-396.084 805.223,-270.367 808.268,-221.766"/>
<polygon fill="midnightblue" stroke="midnightblue" points="982.638,-506.25 993.128,-504.767 984.002,-499.385 982.638,-506.25"/>
</g>
<!-- Node16 -->
<g id="node16" class="node"><title>Node16</title>
<g id="a_node16"><a xlink:href="../../de/d8e/MinLogLH_8cpp.html" target="_top" xlink:title="/home/travis/build\l/ComPWA/ComPWA/Estimator\l/MinLogLH/MinLogLH.cpp">
<polygon fill="white" stroke="black" points="0,-96.5 0,-137.5 156,-137.5 156,-96.5 0,-96.5"/>
<text text-anchor="start" x="8" y="-125.5" font-family="Helvetica,sans-Serif" font-size="10.00">/home/travis/build</text>
<text text-anchor="start" x="8" y="-114.5" font-family="Helvetica,sans-Serif" font-size="10.00">/ComPWA/ComPWA/Estimator</text>
<text text-anchor="middle" x="78" y="-103.5" font-family="Helvetica,sans-Serif" font-size="10.00">/MinLogLH/MinLogLH.cpp</text>
</a>
</g>
</g>
<!-- Node1&#45;&gt;Node16 -->
<g id="edge48" class="edge"><title>Node1&#45;&gt;Node16</title>
<path fill="none" stroke="midnightblue" d="M983.293,-512.304C764.019,-512.508 151.616,-508.337 79,-456 40.9703,-428.591 40,-404.878 40,-358 40,-358 40,-358 40,-278 40,-226.324 58.9959,-167.738 70.1264,-137.846"/>
<polygon fill="midnightblue" stroke="midnightblue" points="983.439,-515.804 993.434,-512.291 983.43,-508.804 983.439,-515.804"/>
</g>
<!-- Node17 -->
<g id="node17" class="node"><title>Node17</title>
<g id="a_node17"><a xlink:href="../../da/d67/SliceFit_8hpp.html" target="_top" xlink:title="This class performs a Chi2&#45;Fit on slices along one axis of a dalitz&#45;plot. ">
<polygon fill="white" stroke="red" points="1416,-180.5 1416,-221.5 1572,-221.5 1572,-180.5 1416,-180.5"/>
<text text-anchor="start" x="1424" y="-209.5" font-family="Helvetica,sans-Serif" font-size="10.00">/home/travis/build</text>
<text text-anchor="start" x="1424" y="-198.5" font-family="Helvetica,sans-Serif" font-size="10.00">/ComPWA/ComPWA/Estimator</text>
<text text-anchor="middle" x="1494" y="-187.5" font-family="Helvetica,sans-Serif" font-size="10.00">/SliceFit/SliceFit.hpp</text>
</a>
</g>
</g>
<!-- Node1&#45;&gt;Node17 -->
<g id="edge51" class="edge"><title>Node1&#45;&gt;Node17</title>
<path fill="none" stroke="midnightblue" d="M1138.78,-508.221C1226.79,-502.428 1362.99,-488.399 1402,-456 1475.61,-394.874 1490.32,-269.875 1493.27,-221.616"/>
<polygon fill="midnightblue" stroke="midnightblue" points="1138.32,-504.743 1128.56,-508.871 1138.76,-511.729 1138.32,-504.743"/>
</g>
<!-- Node18 -->
<g id="node18" class="node"><title>Node18</title>
<g id="a_node18"><a xlink:href="../../d2/d9b/SliceFit_8cpp.html" target="_top" xlink:title="/home/travis/build\l/ComPWA/ComPWA/Estimator\l/SliceFit/SliceFit.cpp">
<polygon fill="white" stroke="black" points="1601,-96.5 1601,-137.5 1757,-137.5 1757,-96.5 1601,-96.5"/>
<text text-anchor="start" x="1609" y="-125.5" font-family="Helvetica,sans-Serif" font-size="10.00">/home/travis/build</text>
<text text-anchor="start" x="1609" y="-114.5" font-family="Helvetica,sans-Serif" font-size="10.00">/ComPWA/ComPWA/Estimator</text>
<text text-anchor="middle" x="1679" y="-103.5" font-family="Helvetica,sans-Serif" font-size="10.00">/SliceFit/SliceFit.cpp</text>
</a>
</g>
</g>
<!-- Node1&#45;&gt;Node18 -->
<g id="edge50" class="edge"><title>Node1&#45;&gt;Node18</title>
<path fill="none" stroke="midnightblue" d="M1139.01,-507.74C1251.34,-500.717 1452.43,-484.561 1519,-456 1581.96,-428.985 1638,-426.515 1638,-358 1638,-358 1638,-358 1638,-278 1638,-226.098 1658.5,-167.606 1670.5,-137.788"/>
<polygon fill="midnightblue" stroke="midnightblue" points="1138.53,-504.263 1128.76,-508.371 1138.96,-511.25 1138.53,-504.263"/>
</g>
<!-- Node19 -->
<g id="node19" class="node"><title>Node19</title>
<g id="a_node19"><a xlink:href="../../d8/d56/SliceFitUB_8hpp.html" target="_top" xlink:title="/home/travis/build\l/ComPWA/ComPWA/Estimator\l/SliceFitUB/SliceFitUB.hpp">
<polygon fill="white" stroke="red" points="1666,-180.5 1666,-221.5 1822,-221.5 1822,-180.5 1666,-180.5"/>
<text text-anchor="start" x="1674" y="-209.5" font-family="Helvetica,sans-Serif" font-size="10.00">/home/travis/build</text>
<text text-anchor="start" x="1674" y="-198.5" font-family="Helvetica,sans-Serif" font-size="10.00">/ComPWA/ComPWA/Estimator</text>
<text text-anchor="middle" x="1744" y="-187.5" font-family="Helvetica,sans-Serif" font-size="10.00">/SliceFitUB/SliceFitUB.hpp</text>
</a>
</g>
</g>
<!-- Node1&#45;&gt;Node19 -->
<g id="edge53" class="edge"><title>Node1&#45;&gt;Node19</title>
<path fill="none" stroke="midnightblue" d="M1138.86,-509.218C1290.1,-503.155 1612.27,-486.764 1652,-456 1727.84,-397.28 1741.22,-270.29 1743.54,-221.573"/>
<polygon fill="midnightblue" stroke="midnightblue" points="1138.57,-505.727 1128.72,-509.62 1138.85,-512.721 1138.57,-505.727"/>
</g>
<!-- Node20 -->
<g id="node20" class="node"><title>Node20</title>
<g id="a_node20"><a xlink:href="../../de/dd0/SliceFitUB_8cpp.html" target="_top" xlink:title="/home/travis/build\l/ComPWA/ComPWA/Estimator\l/SliceFitUB/SliceFitUB.cpp">
<polygon fill="white" stroke="black" points="1775,-96.5 1775,-137.5 1931,-137.5 1931,-96.5 1775,-96.5"/>
<text text-anchor="start" x="1783" y="-125.5" font-family="Helvetica,sans-Serif" font-size="10.00">/home/travis/build</text>
<text text-anchor="start" x="1783" y="-114.5" font-family="Helvetica,sans-Serif" font-size="10.00">/ComPWA/ComPWA/Estimator</text>
<text text-anchor="middle" x="1853" y="-103.5" font-family="Helvetica,sans-Serif" font-size="10.00">/SliceFitUB/SliceFitUB.cpp</text>
</a>
</g>
</g>
<!-- Node1&#45;&gt;Node20 -->
<g id="edge52" class="edge"><title>Node1&#45;&gt;Node20</title>
<path fill="none" stroke="midnightblue" d="M1138.73,-509.318C1282.74,-503.643 1585.39,-488.209 1685,-456 1766.16,-429.759 1850,-443.293 1850,-358 1850,-358 1850,-358 1850,-278 1850,-227.436 1851.52,-167.898 1852.39,-137.703"/>
<polygon fill="midnightblue" stroke="midnightblue" points="1138.5,-505.825 1128.65,-509.71 1138.77,-512.819 1138.5,-505.825"/>
</g>
<!-- Node21 -->
<g id="node21" class="node"><title>Node21</title>
<g id="a_node21"><a xlink:href="../../d7/d9f/Event_8cpp.html" target="_top" xlink:title="/home/travis/build\l/ComPWA/ComPWA/Core\l/Event.cpp">
<polygon fill="white" stroke="black" points="1878.5,-414.5 1878.5,-455.5 2013.5,-455.5 2013.5,-414.5 1878.5,-414.5"/>
<text text-anchor="start" x="1886.5" y="-443.5" font-family="Helvetica,sans-Serif" font-size="10.00">/home/travis/build</text>
<text text-anchor="start" x="1886.5" y="-432.5" font-family="Helvetica,sans-Serif" font-size="10.00">/ComPWA/ComPWA/Core</text>
<text text-anchor="middle" x="1946" y="-421.5" font-family="Helvetica,sans-Serif" font-size="10.00">/Event.cpp</text>
</a>
</g>
</g>
<!-- Node1&#45;&gt;Node21 -->
<g id="edge30" class="edge"><title>Node1&#45;&gt;Node21</title>
<path fill="none" stroke="midnightblue" d="M1138.64,-510.951C1282.53,-508.04 1600.03,-497.091 1864,-456 1868.63,-455.279 1873.39,-454.425 1878.17,-453.484"/>
<polygon fill="midnightblue" stroke="midnightblue" points="1138.51,-507.452 1128.58,-511.147 1138.65,-514.451 1138.51,-507.452"/>
</g>
<!-- Node22 -->
<g id="node22" class="node"><title>Node22</title>
<g id="a_node22"><a xlink:href="../../df/d33/Generator_8hpp.html" target="_top" xlink:title="/home/travis/build\l/ComPWA/ComPWA/Core\l/Generator.hpp">
<polygon fill="white" stroke="red" points="860.5,-336.5 860.5,-377.5 995.5,-377.5 995.5,-336.5 860.5,-336.5"/>
<text text-anchor="start" x="868.5" y="-365.5" font-family="Helvetica,sans-Serif" font-size="10.00">/home/travis/build</text>
<text text-anchor="start" x="868.5" y="-354.5" font-family="Helvetica,sans-Serif" font-size="10.00">/ComPWA/ComPWA/Core</text>
<text text-anchor="middle" x="928" y="-343.5" font-family="Helvetica,sans-Serif" font-size="10.00">/Generator.hpp</text>
</a>
</g>
</g>
<!-- Node1&#45;&gt;Node22 -->
<g id="edge31" class="edge"><title>Node1&#45;&gt;Node22</title>
<path fill="none" stroke="midnightblue" d="M1036.09,-485.111C1027.72,-475.949 1018.38,-465.596 1010,-456 986.656,-429.262 960.461,-397.665 944.097,-377.728"/>
<polygon fill="midnightblue" stroke="midnightblue" points="1033.52,-487.483 1042.86,-492.485 1038.68,-482.75 1033.52,-487.483"/>
</g>
<!-- Node23 -->
<g id="node23" class="node"><title>Node23</title>
<g id="a_node23"><a xlink:href="../../d4/d37/Kinematics_8hpp.html" target="_top" xlink:title="/home/travis/build\l/ComPWA/ComPWA/Core\l/Kinematics.hpp">
<polygon fill="white" stroke="red" points="106.5,-414.5 106.5,-455.5 241.5,-455.5 241.5,-414.5 106.5,-414.5"/>
<text text-anchor="start" x="114.5" y="-443.5" font-family="Helvetica,sans-Serif" font-size="10.00">/home/travis/build</text>
<text text-anchor="start" x="114.5" y="-432.5" font-family="Helvetica,sans-Serif" font-size="10.00">/ComPWA/ComPWA/Core</text>
<text text-anchor="middle" x="174" y="-421.5" font-family="Helvetica,sans-Serif" font-size="10.00">/Kinematics.hpp</text>
</a>
</g>
</g>
<!-- Node1&#45;&gt;Node23 -->
<g id="edge34" class="edge"><title>Node1&#45;&gt;Node23</title>
<path fill="none" stroke="midnightblue" d="M983.167,-510.966C838.913,-508.08 520.625,-497.17 256,-456 251.367,-455.279 246.61,-454.426 241.834,-453.485"/>
<polygon fill="midnightblue" stroke="midnightblue" points="983.183,-514.467 993.249,-511.16 983.318,-507.468 983.183,-514.467"/>
</g>
<!-- Node24 -->
<g id="node24" class="node"><title>Node24</title>
<g id="a_node24"><a xlink:href="../../d2/dee/DataCorrection_8hpp.html" target="_top" xlink:title="/home/travis/build\l/ComPWA/ComPWA/DataReader\l/DataCorrection.hpp">
<polygon fill="white" stroke="red" points="1051.5,-336.5 1051.5,-377.5 1218.5,-377.5 1218.5,-336.5 1051.5,-336.5"/>
<text text-anchor="start" x="1059.5" y="-365.5" font-family="Helvetica,sans-Serif" font-size="10.00">/home/travis/build</text>
<text text-anchor="start" x="1059.5" y="-354.5" font-family="Helvetica,sans-Serif" font-size="10.00">/ComPWA/ComPWA/DataReader</text>
<text text-anchor="middle" x="1135" y="-343.5" font-family="Helvetica,sans-Serif" font-size="10.00">/DataCorrection.hpp</text>
</a>
</g>
</g>
<!-- Node1&#45;&gt;Node24 -->
<g id="edge40" class="edge"><title>Node1&#45;&gt;Node24</title>
<path fill="none" stroke="midnightblue" d="M1074.85,-483.167C1089.62,-452.432 1112.61,-404.59 1125.47,-377.832"/>
<polygon fill="midnightblue" stroke="midnightblue" points="1071.55,-481.966 1070.37,-492.496 1077.86,-484.998 1071.55,-481.966"/>
</g>
<!-- Node25 -->
<g id="node25" class="node"><title>Node25</title>
<g id="a_node25"><a xlink:href="../../de/dbe/BlackScholesApp_8cpp.html" target="_top" xlink:title="Test&#45;Application for Black&#45;Scholes stock model. ">
<polygon fill="white" stroke="black" points="2031.5,-414.5 2031.5,-455.5 2198.5,-455.5 2198.5,-414.5 2031.5,-414.5"/>
<text text-anchor="start" x="2039.5" y="-443.5" font-family="Helvetica,sans-Serif" font-size="10.00">/home/travis/build</text>
<text text-anchor="start" x="2039.5" y="-432.5" font-family="Helvetica,sans-Serif" font-size="10.00">/ComPWA/ComPWA/executables</text>
<text text-anchor="middle" x="2115" y="-421.5" font-family="Helvetica,sans-Serif" font-size="10.00">/BlackScholesApp.cpp</text>
</a>
</g>
</g>
<!-- Node1&#45;&gt;Node25 -->
<g id="edge54" class="edge"><title>Node1&#45;&gt;Node25</title>
<path fill="none" stroke="midnightblue" d="M1139.11,-511.504C1303.32,-509.571 1696.09,-500.273 2022,-456 2025.11,-455.578 2028.27,-455.108 2031.46,-454.6"/>
<polygon fill="midnightblue" stroke="midnightblue" points="1138.59,-508.009 1128.63,-511.621 1138.67,-515.009 1138.59,-508.009"/>
</g>
<!-- Node2&#45;&gt;Node3 -->
<g id="edge2" class="edge"><title>Node2&#45;&gt;Node3</title>
<path fill="none" stroke="midnightblue" d="M345.578,-333.442C310.945,-322.655 269.889,-309.867 236.623,-299.506"/>
<polygon fill="midnightblue" stroke="midnightblue" points="344.575,-336.796 355.164,-336.428 346.657,-330.113 344.575,-336.796"/>
</g>
<!-- Node2&#45;&gt;Node4 -->
<g id="edge3" class="edge"><title>Node2&#45;&gt;Node4</title>
<path fill="none" stroke="midnightblue" d="M416.076,-326.365C414.078,-295.606 411.01,-248.358 409.288,-221.832"/>
<polygon fill="midnightblue" stroke="midnightblue" points="412.593,-326.744 416.733,-336.496 419.578,-326.29 412.593,-326.744"/>
</g>
<!-- Node2&#45;&gt;Node5 -->
<g id="edge4" class="edge"><title>Node2&#45;&gt;Node5</title>
<path fill="none" stroke="midnightblue" d="M495.922,-348.65C588.688,-339.436 748.148,-322.128 884,-300 888.412,-299.281 892.929,-298.502 897.483,-297.683"/>
<polygon fill="midnightblue" stroke="midnightblue" points="495.383,-345.186 485.775,-349.652 496.071,-352.153 495.383,-345.186"/>
</g>
<!-- Node2&#45;&gt;Node6 -->
<g id="edge27" class="edge"><title>Node2&#45;&gt;Node6</title>
<path fill="none" stroke="midnightblue" d="M448.107,-329.506C482.978,-298.819 539.609,-248.984 570.74,-221.588"/>
<polygon fill="midnightblue" stroke="midnightblue" points="445.359,-327.262 440.164,-336.496 449.983,-332.517 445.359,-327.262"/>
</g>
<!-- Node2&#45;&gt;Node8 -->
<g id="edge29" class="edge"><title>Node2&#45;&gt;Node8</title>
<path fill="none" stroke="midnightblue" d="M383.271,-329.877C340.434,-294.459 277.601,-229.903 315,-180 330.236,-159.67 386.492,-143.776 437.225,-133.172"/>
<polygon fill="midnightblue" stroke="midnightblue" points="381.296,-332.781 391.272,-336.35 385.699,-327.339 381.296,-332.781"/>
</g>
<!-- Node2&#45;&gt;Node9 -->
<g id="edge28" class="edge"><title>Node2&#45;&gt;Node9</title>
<path fill="none" stroke="midnightblue" d="M495.49,-339.136C588.546,-319.047 749.435,-284.836 888,-258 965.5,-242.99 1054.08,-227.276 1117.18,-216.327"/>
<polygon fill="midnightblue" stroke="midnightblue" points="494.627,-335.741 485.592,-341.274 496.106,-342.583 494.627,-335.741"/>
</g>
<!-- Node5&#45;&gt;Node4 -->
<g id="edge5" class="edge"><title>Node5&#45;&gt;Node4</title>
<path fill="none" stroke="midnightblue" d="M887.134,-269.822C789.906,-260.707 633.759,-244.27 500,-222 497.259,-221.544 494.476,-221.06 491.67,-220.554"/>
<polygon fill="midnightblue" stroke="midnightblue" points="886.95,-273.32 897.231,-270.762 887.599,-266.35 886.95,-273.32"/>
</g>
<!-- Node5&#45;&gt;Node6 -->
<g id="edge6" class="edge"><title>Node5&#45;&gt;Node6</title>
<path fill="none" stroke="midnightblue" d="M887.157,-259.618C822.916,-247.035 738.485,-230.497 676.563,-218.368"/>
<polygon fill="midnightblue" stroke="midnightblue" points="886.801,-263.115 897.287,-261.603 888.147,-256.246 886.801,-263.115"/>
</g>
<!-- Node5&#45;&gt;Node9 -->
<g id="edge9" class="edge"><title>Node5&#45;&gt;Node9</title>
<path fill="none" stroke="midnightblue" d="M1047.5,-255.026C1078.47,-244.328 1114.93,-231.734 1144.54,-221.506"/>
<polygon fill="midnightblue" stroke="midnightblue" points="1045.96,-251.855 1037.66,-258.428 1048.25,-258.471 1045.96,-251.855"/>
</g>
<!-- Node5&#45;&gt;Node14 -->
<g id="edge17" class="edge"><title>Node5&#45;&gt;Node14</title>
<path fill="none" stroke="midnightblue" d="M982.173,-248.297C982.528,-239.301 982.908,-229.653 983.23,-221.506"/>
<polygon fill="midnightblue" stroke="midnightblue" points="978.67,-248.298 981.773,-258.428 985.664,-248.574 978.67,-248.298"/>
</g>
<!-- Node5&#45;&gt;Node15 -->
<g id="edge18" class="edge"><title>Node5&#45;&gt;Node15</title>
<path fill="none" stroke="midnightblue" d="M927.74,-254.329C904.013,-243.783 876.404,-231.513 853.888,-221.506"/>
<polygon fill="midnightblue" stroke="midnightblue" points="926.404,-257.565 936.963,-258.428 929.247,-251.168 926.404,-257.565"/>
</g>
<!-- Node5&#45;&gt;Node17 -->
<g id="edge23" class="edge"><title>Node5&#45;&gt;Node17</title>
<path fill="none" stroke="midnightblue" d="M1074.75,-264.111C1172.62,-249.612 1324.36,-227.132 1415.94,-213.565"/>
<polygon fill="midnightblue" stroke="midnightblue" points="1073.94,-260.692 1064.56,-265.62 1074.97,-267.617 1073.94,-260.692"/>
</g>
<!-- Node5&#45;&gt;Node19 -->
<g id="edge25" class="edge"><title>Node5&#45;&gt;Node19</title>
<path fill="none" stroke="midnightblue" d="M1074.65,-270.107C1192.77,-259.956 1402.11,-241.319 1581,-222 1608.64,-219.015 1638.87,-215.403 1665.7,-212.074"/>
<polygon fill="midnightblue" stroke="midnightblue" points="1074.22,-266.631 1064.55,-270.973 1074.81,-273.605 1074.22,-266.631"/>
</g>
<!-- Node6&#45;&gt;Node7 -->
<g id="edge7" class="edge"><title>Node6&#45;&gt;Node7</title>
<path fill="none" stroke="midnightblue" d="M633.37,-174.921C649.637,-164.816 668.364,-153.183 684.631,-143.078"/>
<polygon fill="midnightblue" stroke="midnightblue" points="631.265,-172.109 624.617,-180.359 634.959,-178.055 631.265,-172.109"/>
</g>
<!-- Node6&#45;&gt;Node8 -->
<g id="edge8" class="edge"><title>Node6&#45;&gt;Node8</title>
<path fill="none" stroke="midnightblue" d="M570.635,-172.214C561.504,-160.869 551.156,-148.012 542.83,-137.667"/>
<polygon fill="midnightblue" stroke="midnightblue" points="568.027,-174.554 577.023,-180.15 573.48,-170.165 568.027,-174.554"/>
</g>
<!-- Node9&#45;&gt;Node7 -->
<g id="edge15" class="edge"><title>Node9&#45;&gt;Node7</title>
<path fill="none" stroke="midnightblue" d="M1107.41,-183.878C1022.85,-169.31 899.174,-148.005 815.56,-133.601"/>
<polygon fill="midnightblue" stroke="midnightblue" points="1106.82,-187.327 1117.27,-185.576 1108.01,-180.429 1106.82,-187.327"/>
</g>
<!-- Node9&#45;&gt;Node8 -->
<g id="edge16" class="edge"><title>Node9&#45;&gt;Node8</title>
<path fill="none" stroke="midnightblue" d="M1107.07,-184.728C1094.95,-182.999 1082.69,-181.37 1071,-180 873.483,-156.865 821.002,-177.632 625,-144 614.938,-142.273 604.404,-139.995 594.13,-137.502"/>
<polygon fill="midnightblue" stroke="midnightblue" points="1106.8,-188.226 1117.2,-186.2 1107.81,-181.298 1106.8,-188.226"/>
</g>
<!-- Node9&#45;&gt;Node10 -->
<g id="edge10" class="edge"><title>Node9&#45;&gt;Node10</title>
<path fill="none" stroke="midnightblue" d="M1281.87,-177.748C1327.54,-165.181 1384.09,-149.62 1428.03,-137.529"/>
<polygon fill="midnightblue" stroke="midnightblue" points="1280.71,-174.435 1272,-180.463 1282.57,-181.185 1280.71,-174.435"/>
</g>
<!-- Node9&#45;&gt;Node11 -->
<g id="edge11" class="edge"><title>Node9&#45;&gt;Node11</title>
<path fill="none" stroke="midnightblue" d="M1157.09,-175.339C1135.6,-163.268 1110.08,-148.938 1089.94,-137.623"/>
<polygon fill="midnightblue" stroke="midnightblue" points="1155.6,-178.514 1166.03,-180.359 1159.02,-172.41 1155.6,-178.514"/>
</g>
<!-- Node9&#45;&gt;Node12 -->
<g id="edge12" class="edge"><title>Node9&#45;&gt;Node12</title>
<path fill="none" stroke="midnightblue" d="M1191.31,-170.89C1188.69,-162.297 1186.01,-152.828 1184,-144 1176.93,-113.004 1171.79,-76.7092 1168.86,-53.0835"/>
<polygon fill="midnightblue" stroke="midnightblue" points="1187.99,-171.999 1194.34,-180.485 1194.67,-169.895 1187.99,-171.999"/>
</g>
<!-- Node9&#45;&gt;Node13 -->
<g id="edge13" class="edge"><title>Node9&#45;&gt;Node13</title>
<path fill="none" stroke="midnightblue" d="M1226.21,-172.798C1235.04,-163.272 1244.91,-152.622 1253.59,-143.261"/>
<polygon fill="midnightblue" stroke="midnightblue" points="1223.63,-170.437 1219.4,-180.15 1228.76,-175.195 1223.63,-170.437"/>
</g>
<!-- Node13&#45;&gt;Node12 -->
<g id="edge14" class="edge"><title>Node13&#45;&gt;Node12</title>
<path fill="none" stroke="midnightblue" d="M1237.31,-84.5335C1224.34,-74.2542 1210.12,-62.9791 1197.81,-53.221"/>
<polygon fill="midnightblue" stroke="midnightblue" points="1235.18,-87.3129 1245.19,-90.7827 1239.53,-81.8276 1235.18,-87.3129"/>
</g>
<!-- Node15&#45;&gt;Node8 -->
<g id="edge22" class="edge"><title>Node15&#45;&gt;Node8</title>
<path fill="none" stroke="midnightblue" d="M732.93,-177.669C689.608,-165.116 636.04,-149.595 594.399,-137.529"/>
<polygon fill="midnightblue" stroke="midnightblue" points="731.995,-181.042 742.574,-180.463 733.943,-174.318 731.995,-181.042"/>
</g>
<!-- Node15&#45;&gt;Node11 -->
<g id="edge20" class="edge"><title>Node15&#45;&gt;Node11</title>
<path fill="none" stroke="midnightblue" d="M878.144,-177.193C915.394,-164.725 961.056,-149.443 996.651,-137.529"/>
<polygon fill="midnightblue" stroke="midnightblue" points="876.744,-173.97 868.372,-180.463 878.966,-180.608 876.744,-173.97"/>
</g>
<!-- Node15&#45;&gt;Node12 -->
<g id="edge21" class="edge"><title>Node15&#45;&gt;Node12</title>
<path fill="none" stroke="midnightblue" d="M832.864,-172.476C855.154,-147.392 891.27,-111.129 930,-90 977.136,-64.2845 1035.45,-48.8346 1082.32,-39.7889"/>
<polygon fill="midnightblue" stroke="midnightblue" points="830.067,-170.358 826.128,-180.193 835.34,-174.961 830.067,-170.358"/>
</g>
<!-- Node15&#45;&gt;Node16 -->
<g id="edge19" class="edge"><title>Node15&#45;&gt;Node16</title>
<path fill="none" stroke="midnightblue" d="M721.52,-185.203C709.268,-183.342 696.832,-181.55 685,-180 495.677,-155.206 272.034,-134.59 156.258,-124.56"/>
<polygon fill="midnightblue" stroke="midnightblue" points="721.334,-188.716 731.75,-186.78 722.4,-181.798 721.334,-188.716"/>
</g>
<!-- Node17&#45;&gt;Node18 -->
<g id="edge24" class="edge"><title>Node17&#45;&gt;Node18</title>
<path fill="none" stroke="midnightblue" d="M1547.46,-176.304C1575.13,-164.038 1608.52,-149.241 1634.73,-137.623"/>
<polygon fill="midnightblue" stroke="midnightblue" points="1546.04,-173.107 1538.31,-180.359 1548.87,-179.506 1546.04,-173.107"/>
</g>
<!-- Node19&#45;&gt;Node20 -->
<g id="edge26" class="edge"><title>Node19&#45;&gt;Node20</title>
<path fill="none" stroke="midnightblue" d="M1778.48,-174.062C1794.09,-162.318 1812.24,-148.66 1826.73,-137.765"/>
<polygon fill="midnightblue" stroke="midnightblue" points="1776,-171.55 1770.11,-180.359 1780.2,-177.144 1776,-171.55"/>
</g>
<!-- Node22&#45;&gt;Node5 -->
<g id="edge32" class="edge"><title>Node22&#45;&gt;Node5</title>
<path fill="none" stroke="midnightblue" d="M947.493,-328.048C954.106,-318.566 961.345,-308.185 967.397,-299.506"/>
<polygon fill="midnightblue" stroke="midnightblue" points="944.498,-326.224 941.649,-336.428 950.24,-330.228 944.498,-326.224"/>
</g>
<!-- Node23&#45;&gt;Node2 -->
<g id="edge35" class="edge"><title>Node23&#45;&gt;Node2</title>
<path fill="none" stroke="midnightblue" d="M246.422,-411.442C281.055,-400.655 322.111,-387.867 355.377,-377.506"/>
<polygon fill="midnightblue" stroke="midnightblue" points="245.343,-408.113 236.836,-414.428 247.425,-414.796 245.343,-408.113"/>
</g>
<!-- Node23&#45;&gt;Node3 -->
<g id="edge36" class="edge"><title>Node23&#45;&gt;Node3</title>
<path fill="none" stroke="midnightblue" d="M174,-404.365C174,-373.606 174,-326.358 174,-299.832"/>
<polygon fill="midnightblue" stroke="midnightblue" points="170.5,-404.496 174,-414.496 177.5,-404.496 170.5,-404.496"/>
</g>
<!-- Node23&#45;&gt;Node16 -->
<g id="edge37" class="edge"><title>Node23&#45;&gt;Node16</title>
<path fill="none" stroke="midnightblue" d="M153.312,-406.126C135.171,-380.1 109.758,-339.451 97,-300 78.6218,-243.172 76.9897,-171.656 77.4194,-137.673"/>
<polygon fill="midnightblue" stroke="midnightblue" points="150.517,-408.236 159.156,-414.369 156.227,-404.187 150.517,-408.236"/>
</g>
<!-- Node24&#45;&gt;Node5 -->
<g id="edge41" class="edge"><title>Node24&#45;&gt;Node5</title>
<path fill="none" stroke="midnightblue" d="M1086.18,-331.908C1065.01,-321.458 1040.53,-309.38 1020.52,-299.506"/>
<polygon fill="midnightblue" stroke="midnightblue" points="1084.82,-335.141 1095.34,-336.428 1087.92,-328.864 1084.82,-335.141"/>
</g>
<!-- Node24&#45;&gt;Node9 -->
<g id="edge42" class="edge"><title>Node24&#45;&gt;Node9</title>
<path fill="none" stroke="midnightblue" d="M1147.36,-327.167C1160.53,-296.432 1181.03,-248.59 1192.5,-221.832"/>
<polygon fill="midnightblue" stroke="midnightblue" points="1144.08,-325.926 1143.36,-336.496 1150.52,-328.683 1144.08,-325.926"/>
</g>
<!-- Node24&#45;&gt;Node12 -->
<g id="edge43" class="edge"><title>Node24&#45;&gt;Node12</title>
<path fill="none" stroke="midnightblue" d="M1132.1,-326.221C1126.75,-287.356 1111.84,-219.639 1071,-180 1034.39,-144.466 991.888,-185.347 962,-144 947.94,-124.55 947.708,-109.281 962,-90 976.879,-69.9272 1032.8,-53.7832 1082.33,-43.0065"/>
<polygon fill="midnightblue" stroke="midnightblue" points="1128.65,-326.882 1133.37,-336.371 1135.6,-326.014 1128.65,-326.882"/>
</g>
</g>
</svg>
