<?xml version="1.0" encoding="UTF-8" standalone="no"?>
<!DOCTYPE svg PUBLIC "-//W3C//DTD SVG 1.1//EN"
 "http://www.w3.org/Graphics/SVG/1.1/DTD/svg11.dtd">
<!-- Generated by graphviz version 2.36.0 (20140111.2315)
 -->
<!-- Title: /home/travis/build/ComPWA/ComPWA/Core/DataPointStorage.hpp Pages: 1 -->
<svg width="1276pt" height="150pt"
 viewBox="0.00 0.00 1276.00 150.00" xmlns="http://www.w3.org/2000/svg" xmlns:xlink="http://www.w3.org/1999/xlink">
<g id="graph0" class="graph" transform="scale(1 1) rotate(0) translate(4 146)">
<title>/home/travis/build/ComPWA/ComPWA/Core/DataPointStorage.hpp</title>
<polygon fill="white" stroke="none" points="-4,4 -4,-146 1272,-146 1272,4 -4,4"/>
<!-- Node1 -->
<g id="node1" class="node"><title>Node1</title>
<polygon fill="#bfbfbf" stroke="black" points="527.5,-100.5 527.5,-141.5 662.5,-141.5 662.5,-100.5 527.5,-100.5"/>
<text text-anchor="start" x="535.5" y="-129.5" font-family="Helvetica,sans-Serif" font-size="10.00">/home/travis/build</text>
<text text-anchor="start" x="535.5" y="-118.5" font-family="Helvetica,sans-Serif" font-size="10.00">/ComPWA/ComPWA/Core</text>
<text text-anchor="middle" x="595" y="-107.5" font-family="Helvetica,sans-Serif" font-size="10.00">/DataPointStorage.hpp</text>
</g>
<!-- Node2 -->
<g id="node2" class="node"><title>Node2</title>
<g id="a_node2"><a xlink:href="../../d7/dc8/DataPointStorage_8cpp.html" target="_top" xlink:title="/home/travis/build\l/ComPWA/ComPWA/Core\l/DataPointStorage.cpp">
<polygon fill="white" stroke="black" points="-0.5,-11.5 -0.5,-52.5 134.5,-52.5 134.5,-11.5 -0.5,-11.5"/>
<text text-anchor="start" x="7.5" y="-40.5" font-family="Helvetica,sans-Serif" font-size="10.00">/home/travis/build</text>
<text text-anchor="start" x="7.5" y="-29.5" font-family="Helvetica,sans-Serif" font-size="10.00">/ComPWA/ComPWA/Core</text>
<text text-anchor="middle" x="67" y="-18.5" font-family="Helvetica,sans-Serif" font-size="10.00">/DataPointStorage.cpp</text>
</a>
</g>
</g>
<!-- Node1&#45;&gt;Node2 -->
<g id="edge1" class="edge"><title>Node1&#45;&gt;Node2</title>
<path fill="none" stroke="midnightblue" d="M517.094,-116.591C426.074,-111.183 271.555,-97.5494 143,-64 131.832,-61.0854 120.122,-56.9116 109.332,-52.5674"/>
<polygon fill="midnightblue" stroke="midnightblue" points="517.145,-120.1 527.329,-117.181 517.547,-113.112 517.145,-120.1"/>
</g>
<!-- Node3 -->
<g id="node3" class="node"><title>Node3</title>
<g id="a_node3"><a xlink:href="../../d1/d13/HelicityAmplitudeFitApp_8cpp.html" target="_top" xlink:title="/home/travis/build\l/ComPWA/ComPWA/executables\l/HelicityAmplitudeFitApp.cpp">
<polygon fill="white" stroke="black" points="152.5,-11.5 152.5,-52.5 319.5,-52.5 319.5,-11.5 152.5,-11.5"/>
<text text-anchor="start" x="160.5" y="-40.5" font-family="Helvetica,sans-Serif" font-size="10.00">/home/travis/build</text>
<text text-anchor="start" x="160.5" y="-29.5" font-family="Helvetica,sans-Serif" font-size="10.00">/ComPWA/ComPWA/executables</text>
<text text-anchor="middle" x="236" y="-18.5" font-family="Helvetica,sans-Serif" font-size="10.00">/HelicityAmplitudeFitApp.cpp</text>
</a>
</g>
</g>
<!-- Node1&#45;&gt;Node3 -->
<g id="edge2" class="edge"><title>Node1&#45;&gt;Node3</title>
<path fill="none" stroke="midnightblue" d="M517.151,-106.191C463.582,-96.0757 391.002,-81.1569 328,-64 315.803,-60.6786 302.857,-56.6425 290.646,-52.5957"/>
<polygon fill="midnightblue" stroke="midnightblue" points="516.791,-109.684 527.264,-108.086 518.08,-102.804 516.791,-109.684"/>
</g>
<!-- Node4 -->
<g id="node4" class="node"><title>Node4</title>
<g id="a_node4"><a xlink:href="../../d3/de0/DynamicalFunctionStrategy_8cpp.html" target="_top" xlink:title="/home/travis/build\l/ComPWA/ComPWA/Physics\l/DynamicalDecayFunctions\l/DynamicalFunctionStrategy.cpp">
<polygon fill="white" stroke="black" points="337.5,-6 337.5,-58 496.5,-58 496.5,-6 337.5,-6"/>
<text text-anchor="start" x="345.5" y="-46" font-family="Helvetica,sans-Serif" font-size="10.00">/home/travis/build</text>
<text text-anchor="start" x="345.5" y="-35" font-family="Helvetica,sans-Serif" font-size="10.00">/ComPWA/ComPWA/Physics</text>
<text text-anchor="start" x="345.5" y="-24" font-family="Helvetica,sans-Serif" font-size="10.00">/DynamicalDecayFunctions</text>
<text text-anchor="middle" x="417" y="-13" font-family="Helvetica,sans-Serif" font-size="10.00">/DynamicalFunctionStrategy.cpp</text>
</a>
</g>
</g>
<!-- Node1&#45;&gt;Node4 -->
<g id="edge3" class="edge"><title>Node1&#45;&gt;Node4</title>
<path fill="none" stroke="midnightblue" d="M546.061,-96.0804C521.911,-84.2767 492.788,-70.0423 468.323,-58.0847"/>
<polygon fill="midnightblue" stroke="midnightblue" points="544.532,-99.2288 555.053,-100.476 547.606,-92.9397 544.532,-99.2288"/>
</g>
<!-- Node5 -->
<g id="node5" class="node"><title>Node5</title>
<g id="a_node5"><a xlink:href="../../d3/d67/RelativisticBreitWigner_8cpp.html" target="_top" xlink:title="/home/travis/build\l/ComPWA/ComPWA/Physics\l/DynamicalDecayFunctions\l/TwoBodyDecay/RelativisticBreit\lWigner.cpp">
<polygon fill="white" stroke="black" points="514.5,-0.5 514.5,-63.5 675.5,-63.5 675.5,-0.5 514.5,-0.5"/>
<text text-anchor="start" x="522.5" y="-51.5" font-family="Helvetica,sans-Serif" font-size="10.00">/home/travis/build</text>
<text text-anchor="start" x="522.5" y="-40.5" font-family="Helvetica,sans-Serif" font-size="10.00">/ComPWA/ComPWA/Physics</text>
<text text-anchor="start" x="522.5" y="-29.5" font-family="Helvetica,sans-Serif" font-size="10.00">/DynamicalDecayFunctions</text>
<text text-anchor="start" x="522.5" y="-18.5" font-family="Helvetica,sans-Serif" font-size="10.00">/TwoBodyDecay/RelativisticBreit</text>
<text text-anchor="middle" x="595" y="-7.5" font-family="Helvetica,sans-Serif" font-size="10.00">Wigner.cpp</text>
</a>
</g>
</g>
<!-- Node1&#45;&gt;Node5 -->
<g id="edge4" class="edge"><title>Node1&#45;&gt;Node5</title>
<path fill="none" stroke="midnightblue" d="M595,-89.9776C595,-81.4481 595,-72.1515 595,-63.5888"/>
<polygon fill="midnightblue" stroke="midnightblue" points="591.5,-90.2583 595,-100.258 598.5,-90.2584 591.5,-90.2583"/>
</g>
<!-- Node6 -->
<g id="node6" class="node"><title>Node6</title>
<g id="a_node6"><a xlink:href="../../d9/d4d/CoherentAmplitude_8cpp.html" target="_top" xlink:title="/home/travis/build\l/ComPWA/ComPWA/Physics\l/HelicityAmplitude/CoherentAmplitude.cpp">
<polygon fill="white" stroke="black" points="693.5,-11.5 693.5,-52.5 894.5,-52.5 894.5,-11.5 693.5,-11.5"/>
<text text-anchor="start" x="701.5" y="-40.5" font-family="Helvetica,sans-Serif" font-size="10.00">/home/travis/build</text>
<text text-anchor="start" x="701.5" y="-29.5" font-family="Helvetica,sans-Serif" font-size="10.00">/ComPWA/ComPWA/Physics</text>
<text text-anchor="middle" x="794" y="-18.5" font-family="Helvetica,sans-Serif" font-size="10.00">/HelicityAmplitude/CoherentAmplitude.cpp</text>
</a>
</g>
</g>
<!-- Node1&#45;&gt;Node6 -->
<g id="edge5" class="edge"><title>Node1&#45;&gt;Node6</title>
<path fill="none" stroke="midnightblue" d="M649.128,-96.3359C680.491,-82.6244 719.507,-65.5672 749.146,-52.6097"/>
<polygon fill="midnightblue" stroke="midnightblue" points="647.42,-93.2627 639.659,-100.476 650.224,-99.6766 647.42,-93.2627"/>
</g>
<!-- Node7 -->
<g id="node7" class="node"><title>Node7</title>
<g id="a_node7"><a xlink:href="../../de/dea/TwoBodyDecayAmplitude_8cpp.html" target="_top" xlink:title="/home/travis/build\l/ComPWA/ComPWA/Physics\l/HelicityAmplitude/TwoBodyDecay\lAmplitude.cpp">
<polygon fill="white" stroke="black" points="912.5,-6 912.5,-58 1081.5,-58 1081.5,-6 912.5,-6"/>
<text text-anchor="start" x="920.5" y="-46" font-family="Helvetica,sans-Serif" font-size="10.00">/home/travis/build</text>
<text text-anchor="start" x="920.5" y="-35" font-family="Helvetica,sans-Serif" font-size="10.00">/ComPWA/ComPWA/Physics</text>
<text text-anchor="start" x="920.5" y="-24" font-family="Helvetica,sans-Serif" font-size="10.00">/HelicityAmplitude/TwoBodyDecay</text>
<text text-anchor="middle" x="997" y="-13" font-family="Helvetica,sans-Serif" font-size="10.00">Amplitude.cpp</text>
</a>
</g>
</g>
<!-- Node1&#45;&gt;Node7 -->
<g id="edge6" class="edge"><title>Node1&#45;&gt;Node7</title>
<path fill="none" stroke="midnightblue" d="M672.773,-108.918C735.435,-99.2574 825.542,-83.7127 903,-64 909.994,-62.22 917.224,-60.1896 924.423,-58.039"/>
<polygon fill="midnightblue" stroke="midnightblue" points="671.927,-105.506 662.57,-110.476 672.984,-112.426 671.927,-105.506"/>
</g>
<!-- Node8 -->
<g id="node8" class="node"><title>Node8</title>
<g id="a_node8"><a xlink:href="../../d8/d69/TwoBodyDecayAngularStrategy_8cpp.html" target="_top" xlink:title="/home/travis/build\l/ComPWA/ComPWA/Physics\l/HelicityAmplitude/TwoBodyDecay\lAngularStrategy.cpp">
<polygon fill="white" stroke="black" points="1099.5,-6 1099.5,-58 1268.5,-58 1268.5,-6 1099.5,-6"/>
<text text-anchor="start" x="1107.5" y="-46" font-family="Helvetica,sans-Serif" font-size="10.00">/home/travis/build</text>
<text text-anchor="start" x="1107.5" y="-35" font-family="Helvetica,sans-Serif" font-size="10.00">/ComPWA/ComPWA/Physics</text>
<text text-anchor="start" x="1107.5" y="-24" font-family="Helvetica,sans-Serif" font-size="10.00">/HelicityAmplitude/TwoBodyDecay</text>
<text text-anchor="middle" x="1184" y="-13" font-family="Helvetica,sans-Serif" font-size="10.00">AngularStrategy.cpp</text>
</a>
</g>
</g>
<!-- Node1&#45;&gt;Node8 -->
<g id="edge7" class="edge"><title>Node1&#45;&gt;Node8</title>
<path fill="none" stroke="midnightblue" d="M672.705,-116.164C770.871,-110.19 944.556,-95.8535 1090,-64 1097.64,-62.3273 1105.53,-60.2699 1113.34,-58.0174"/>
<polygon fill="midnightblue" stroke="midnightblue" points="672.345,-112.68 662.571,-116.768 672.761,-119.667 672.345,-112.68"/>
</g>
</g>
</svg>
