<?xml version="1.0" encoding="UTF-8" standalone="no"?>
<!DOCTYPE svg PUBLIC "-//W3C//DTD SVG 1.1//EN"
 "http://www.w3.org/Graphics/SVG/1.1/DTD/svg11.dtd">
<!-- Generated by graphviz version 2.26.3 (20100126.1600)
 -->
<!-- Title: G Pages: 1 -->
<svg width="1670pt" height="552pt"
 viewBox="0.00 0.00 1670.00 552.00" xmlns="http://www.w3.org/2000/svg" xmlns:xlink="http://www.w3.org/1999/xlink">
<g id="graph1" class="graph" transform="scale(1 1) rotate(0) translate(4 548)">
<title>G</title>
<polygon fill="white" stroke="white" points="-4,5 -4,-548 1667,-548 1667,5 -4,5"/>
<!-- Node1 -->
<g id="node1" class="node"><title>Node1</title>
<polygon fill="#bfbfbf" stroke="black" points="1236.5,-522.5 1236.5,-543.5 1351.5,-543.5 1351.5,-522.5 1236.5,-522.5"/>
<text text-anchor="middle" x="1294" y="-530.5" font-family="Helvetica,sans-Serif" font-size="10.00">Core/RunManager.cpp</text>
</g>
<!-- Node2 -->
<g id="node3" class="node"><title>Node2</title>
<polygon fill="white" stroke="#bfbfbf" points="1427,-0.5 1427,-21.5 1479,-21.5 1479,-0.5 1427,-0.5"/>
<text text-anchor="middle" x="1453" y="-8.5" font-family="Helvetica,sans-Serif" font-size="10.00">memory</text>
</g>
<!-- Node1&#45;&gt;Node2 -->
<g id="edge2" class="edge"><title>Node1&#45;&gt;Node2</title>
<path fill="none" stroke="midnightblue" d="M1351.9,-526.884C1455.54,-514.318 1662,-481.225 1662,-417 1662,-417 1662,-417 1662,-127 1662,-48.8991 1549.04,-22.9381 1489.21,-14.6652"/>
<polygon fill="midnightblue" stroke="midnightblue" points="1489.41,-11.1619 1479.05,-13.3588 1488.52,-18.1048 1489.41,-11.1619"/>
</g>
<!-- Node3 -->
<g id="node5" class="node"><title>Node3</title>
<a xlink:href="../../d2/d4b/Data_8hpp.xhtml" target="_top" xlink:title="This class provides the interface to experimental data.">
<polygon fill="white" stroke="black" points="355,-174.5 355,-195.5 467,-195.5 467,-174.5 355,-174.5"/>
<text text-anchor="middle" x="411" y="-182.5" font-family="Helvetica,sans-Serif" font-size="10.00">DataReader/Data.hpp</text>
</a>
</g>
<!-- Node1&#45;&gt;Node3 -->
<g id="edge4" class="edge"><title>Node1&#45;&gt;Node3</title>
<path fill="none" stroke="midnightblue" d="M1236.34,-529.943C1010.7,-517.605 200,-469.613 200,-417 200,-417 200,-417 200,-301 200,-233.98 282.757,-205.408 344.614,-193.413"/>
<polygon fill="midnightblue" stroke="midnightblue" points="345.527,-196.804 354.733,-191.56 344.266,-189.919 345.527,-196.804"/>
</g>
<!-- Node9 -->
<g id="node20" class="node"><title>Node9</title>
<a xlink:href="../../d5/d10/Estimator_8hpp.xhtml" target="_top" xlink:title="This class provides the interface to classes which estimate the &quot;closeness&quot; of the modeled intensity ...">
<polygon fill="white" stroke="black" points="1322,-290.5 1322,-311.5 1444,-311.5 1444,-290.5 1322,-290.5"/>
<text text-anchor="middle" x="1383" y="-298.5" font-family="Helvetica,sans-Serif" font-size="10.00">Estimator/Estimator.hpp</text>
</a>
</g>
<!-- Node1&#45;&gt;Node9 -->
<g id="edge22" class="edge"><title>Node1&#45;&gt;Node9</title>
<path fill="none" stroke="midnightblue" d="M1317.78,-522.356C1332.45,-514.488 1350.27,-502.309 1360,-486 1391.27,-433.58 1388.95,-357.994 1385.56,-321.823"/>
<polygon fill="midnightblue" stroke="midnightblue" points="1389,-321.115 1384.46,-311.543 1382.04,-321.858 1389,-321.115"/>
</g>
<!-- Node11 -->
<g id="node28" class="node"><title>Node11</title>
<a xlink:href="../../df/d9f/ParameterList_8hpp.xhtml" target="_top" xlink:title="This class provides a list of fit parameters which can have different types.">
<polygon fill="white" stroke="black" points="848,-174.5 848,-195.5 968,-195.5 968,-174.5 848,-174.5"/>
<text text-anchor="middle" x="908" y="-182.5" font-family="Helvetica,sans-Serif" font-size="10.00">Core/ParameterList.hpp</text>
</a>
</g>
<!-- Node1&#45;&gt;Node11 -->
<g id="edge146" class="edge"><title>Node1&#45;&gt;Node11</title>
<path fill="none" stroke="midnightblue" d="M1236.4,-528.444C1125.25,-518.057 892,-487.823 892,-417 892,-417 892,-417 892,-301 892,-267.456 898.647,-228.964 903.372,-205.836"/>
<polygon fill="midnightblue" stroke="midnightblue" points="906.848,-206.315 905.5,-195.806 900.001,-204.862 906.848,-206.315"/>
</g>
<!-- Node22 -->
<g id="node63" class="node"><title>Node22</title>
<a xlink:href="../../dc/de3/Amplitude_8hpp.xhtml" target="_top" xlink:title="This class provides the interface to the model which tries to describe the intensity.">
<polygon fill="white" stroke="black" points="957.5,-406.5 957.5,-427.5 1074.5,-427.5 1074.5,-406.5 957.5,-406.5"/>
<text text-anchor="middle" x="1016" y="-414.5" font-family="Helvetica,sans-Serif" font-size="10.00">Physics/Amplitude.hpp</text>
</a>
</g>
<!-- Node1&#45;&gt;Node22 -->
<g id="edge82" class="edge"><title>Node1&#45;&gt;Node22</title>
<path fill="none" stroke="midnightblue" d="M1268.34,-522.295C1218.15,-501.352 1106.96,-454.953 1050.43,-431.367"/>
<polygon fill="midnightblue" stroke="midnightblue" points="1051.77,-428.133 1041.19,-427.512 1049.07,-434.593 1051.77,-428.133"/>
</g>
<!-- Node26 -->
<g id="node95" class="node"><title>Node26</title>
<a xlink:href="../../db/d93/Optimizer_8hpp.xhtml" target="_top" xlink:title="This class provides the interface to (external) optimization libraries or routines.">
<polygon fill="white" stroke="black" points="1322,-232.5 1322,-253.5 1444,-253.5 1444,-232.5 1322,-232.5"/>
<text text-anchor="middle" x="1383" y="-240.5" font-family="Helvetica,sans-Serif" font-size="10.00">Optimizer/Optimizer.hpp</text>
</a>
</g>
<!-- Node1&#45;&gt;Node26 -->
<g id="edge138" class="edge"><title>Node1&#45;&gt;Node26</title>
<path fill="none" stroke="midnightblue" d="M1351.6,-526.885C1415.59,-516.529 1510,-489.042 1510,-417 1510,-417 1510,-417 1510,-359 1510,-309.586 1456.94,-275.586 1419.41,-257.72"/>
<polygon fill="midnightblue" stroke="midnightblue" points="1420.79,-254.504 1410.24,-253.525 1417.88,-260.87 1420.79,-254.504"/>
</g>
<!-- Node27 -->
<g id="node101" class="node"><title>Node27</title>
<a xlink:href="../../db/d41/RunManager_8hpp.xhtml" target="_top" xlink:title="This class provides a RunManager for simple fits.">
<polygon fill="white" stroke="black" points="1236.5,-464.5 1236.5,-485.5 1351.5,-485.5 1351.5,-464.5 1236.5,-464.5"/>
<text text-anchor="middle" x="1294" y="-472.5" font-family="Helvetica,sans-Serif" font-size="10.00">Core/RunManager.hpp</text>
</a>
</g>
<!-- Node1&#45;&gt;Node27 -->
<g id="edge148" class="edge"><title>Node1&#45;&gt;Node27</title>
<path fill="none" stroke="midnightblue" d="M1294,-522.362C1294,-514.922 1294,-504.743 1294,-495.728"/>
<polygon fill="midnightblue" stroke="midnightblue" points="1297.5,-495.571 1294,-485.571 1290.5,-495.571 1297.5,-495.571"/>
</g>
<!-- Node4 -->
<g id="node7" class="node"><title>Node4</title>
<polygon fill="white" stroke="#bfbfbf" points="1051,-0.5 1051,-21.5 1095,-21.5 1095,-0.5 1051,-0.5"/>
<text text-anchor="middle" x="1073" y="-8.5" font-family="Helvetica,sans-Serif" font-size="10.00">vector</text>
</g>
<!-- Node3&#45;&gt;Node4 -->
<g id="edge6" class="edge"><title>Node3&#45;&gt;Node4</title>
<path fill="none" stroke="midnightblue" d="M439.355,-174.485C462.512,-165.596 495.887,-152.089 524,-138 586.352,-106.753 592.885,-80.2036 659,-58 729.857,-34.2039 956.11,-18.1984 1040.69,-12.9128"/>
<polygon fill="midnightblue" stroke="midnightblue" points="1040.98,-16.4019 1050.74,-12.2936 1040.54,-9.41514 1040.98,-16.4019"/>
</g>
<!-- Node5 -->
<g id="node9" class="node"><title>Node5</title>
<polygon fill="white" stroke="#bfbfbf" points="338.5,-0.5 338.5,-21.5 379.5,-21.5 379.5,-0.5 338.5,-0.5"/>
<text text-anchor="middle" x="359" y="-8.5" font-family="Helvetica,sans-Serif" font-size="10.00">string</text>
</g>
<!-- Node3&#45;&gt;Node5 -->
<g id="edge8" class="edge"><title>Node3&#45;&gt;Node5</title>
<path fill="none" stroke="midnightblue" d="M407.5,-174.307C401.331,-155.364 388.21,-114.641 378,-80 373.233,-63.8248 368.18,-45.407 364.485,-31.6707"/>
<polygon fill="midnightblue" stroke="midnightblue" points="367.807,-30.5471 361.843,-21.7904 361.045,-32.3551 367.807,-30.5471"/>
</g>
<!-- Node6 -->
<g id="node11" class="node"><title>Node6</title>
<a xlink:href="../../df/d7d/Event_8hpp.xhtml" target="_top" xlink:title="This class provides a internal container for event&#45;based information.">
<polygon fill="white" stroke="black" points="430.5,-116.5 430.5,-137.5 515.5,-137.5 515.5,-116.5 430.5,-116.5"/>
<text text-anchor="middle" x="473" y="-124.5" font-family="Helvetica,sans-Serif" font-size="10.00">Core/Event.hpp</text>
</a>
</g>
<!-- Node3&#45;&gt;Node6 -->
<g id="edge10" class="edge"><title>Node3&#45;&gt;Node6</title>
<path fill="none" stroke="midnightblue" d="M422.372,-174.362C431.286,-166.023 443.879,-154.242 454.276,-144.516"/>
<polygon fill="midnightblue" stroke="midnightblue" points="456.789,-146.958 461.7,-137.571 452.007,-141.846 456.789,-146.958"/>
</g>
<!-- Node6&#45;&gt;Node4 -->
<g id="edge12" class="edge"><title>Node6&#45;&gt;Node4</title>
<path fill="none" stroke="midnightblue" d="M486.184,-116.363C506.609,-100.547 547.756,-71.2701 588,-58 672.612,-30.1001 946.32,-16.2937 1040.67,-12.2764"/>
<polygon fill="midnightblue" stroke="midnightblue" points="1040.92,-15.7694 1050.76,-11.8553 1040.63,-8.77547 1040.92,-15.7694"/>
</g>
<!-- Node6&#45;&gt;Node5 -->
<g id="edge14" class="edge"><title>Node6&#45;&gt;Node5</title>
<path fill="none" stroke="midnightblue" d="M449.546,-116.49C433.292,-108.321 411.965,-95.7403 397,-80 383.525,-65.8273 373.247,-45.9583 366.799,-31.1791"/>
<polygon fill="midnightblue" stroke="midnightblue" points="370.014,-29.7938 362.955,-21.8931 363.546,-32.4714 370.014,-29.7938"/>
</g>
<!-- Node7 -->
<g id="node15" class="node"><title>Node7</title>
<a xlink:href="../../d3/d65/Particle_8hpp.xhtml" target="_top" xlink:title="This class provides a internal container for information of a particle.">
<polygon fill="white" stroke="black" points="406,-58.5 406,-79.5 498,-79.5 498,-58.5 406,-58.5"/>
<text text-anchor="middle" x="452" y="-66.5" font-family="Helvetica,sans-Serif" font-size="10.00">Core/Particle.hpp</text>
</a>
</g>
<!-- Node6&#45;&gt;Node7 -->
<g id="edge16" class="edge"><title>Node6&#45;&gt;Node7</title>
<path fill="none" stroke="midnightblue" d="M469.148,-116.362C466.395,-108.758 462.606,-98.294 459.29,-89.1349"/>
<polygon fill="midnightblue" stroke="midnightblue" points="462.523,-87.7818 455.827,-79.5707 455.941,-90.1649 462.523,-87.7818"/>
</g>
<!-- Node7&#45;&gt;Node4 -->
<g id="edge18" class="edge"><title>Node7&#45;&gt;Node4</title>
<path fill="none" stroke="midnightblue" d="M498.339,-63.5855C514.66,-61.7351 533.136,-59.704 550,-58 735.546,-39.2518 958.512,-20.4552 1040.62,-13.659"/>
<polygon fill="midnightblue" stroke="midnightblue" points="1041.13,-17.1286 1050.81,-12.8172 1040.55,-10.1524 1041.13,-17.1286"/>
</g>
<!-- Node8 -->
<g id="node18" class="node"><title>Node8</title>
<polygon fill="white" stroke="#bfbfbf" points="149.5,-0.5 149.5,-21.5 196.5,-21.5 196.5,-0.5 149.5,-0.5"/>
<text text-anchor="middle" x="173" y="-8.5" font-family="Helvetica,sans-Serif" font-size="10.00">math.h</text>
</g>
<!-- Node7&#45;&gt;Node8 -->
<g id="edge20" class="edge"><title>Node7&#45;&gt;Node8</title>
<path fill="none" stroke="midnightblue" d="M405.733,-60.8147C357.632,-52.0826 280.251,-37.4106 214,-22 211.55,-21.4302 209.025,-20.8169 206.489,-20.1817"/>
<polygon fill="midnightblue" stroke="midnightblue" points="207.338,-16.7863 196.78,-17.6698 205.585,-23.5632 207.338,-16.7863"/>
</g>
<!-- Node9&#45;&gt;Node2 -->
<g id="edge26" class="edge"><title>Node9&#45;&gt;Node2</title>
<path fill="none" stroke="midnightblue" d="M1424.85,-290.421C1445.7,-283.234 1469.85,-271.729 1486,-254 1507.86,-229.995 1510,-217.469 1510,-185 1510,-185 1510,-185 1510,-127 1510,-89.5289 1485.75,-51.5841 1468.88,-29.7281"/>
<polygon fill="midnightblue" stroke="midnightblue" points="1471.4,-27.2705 1462.41,-21.6538 1465.93,-31.6467 1471.4,-27.2705"/>
</g>
<!-- Node9&#45;&gt;Node4 -->
<g id="edge24" class="edge"><title>Node9&#45;&gt;Node4</title>
<path fill="none" stroke="midnightblue" d="M1408.27,-290.457C1433.35,-278.321 1466.26,-256.836 1453,-232 1379.86,-95.0507 1183,-36.2 1105.24,-17.8053"/>
<polygon fill="midnightblue" stroke="midnightblue" points="1105.61,-14.2998 1095.08,-15.4743 1104.04,-21.1224 1105.61,-14.2998"/>
</g>
<!-- Node10 -->
<g id="node24" class="node"><title>Node10</title>
<a xlink:href="../../de/d1f/ControlParameter_8hpp.xhtml" target="_top" xlink:title="This class provides the interface for the optimizer module to access the data.">
<polygon fill="white" stroke="black" points="1109.5,-232.5 1109.5,-253.5 1266.5,-253.5 1266.5,-232.5 1109.5,-232.5"/>
<text text-anchor="middle" x="1188" y="-240.5" font-family="Helvetica,sans-Serif" font-size="10.00">Optimizer/ControlParameter.hpp</text>
</a>
</g>
<!-- Node9&#45;&gt;Node10 -->
<g id="edge28" class="edge"><title>Node9&#45;&gt;Node10</title>
<path fill="none" stroke="midnightblue" d="M1347.69,-290.497C1315.62,-280.959 1268.15,-266.841 1233.3,-256.475"/>
<polygon fill="midnightblue" stroke="midnightblue" points="1233.96,-253.019 1223.38,-253.523 1231.97,-259.729 1233.96,-253.019"/>
</g>
<!-- Node9&#45;&gt;Node11 -->
<g id="edge80" class="edge"><title>Node9&#45;&gt;Node11</title>
<path fill="none" stroke="midnightblue" d="M1321.83,-294.003C1264.26,-286.668 1175.94,-273.475 1101,-254 1044.41,-239.294 980.952,-215.039 942.758,-199.552"/>
<polygon fill="midnightblue" stroke="midnightblue" points="943.727,-196.168 933.146,-195.624 941.079,-202.647 943.727,-196.168"/>
</g>
<!-- Node10&#45;&gt;Node2 -->
<g id="edge32" class="edge"><title>Node10&#45;&gt;Node2</title>
<path fill="none" stroke="midnightblue" d="M1200.08,-232.429C1241.98,-195.742 1381.4,-73.6875 1433.3,-28.2443"/>
<polygon fill="midnightblue" stroke="midnightblue" points="1435.64,-30.854 1440.85,-21.6335 1431.02,-25.5872 1435.64,-30.854"/>
</g>
<!-- Node10&#45;&gt;Node4 -->
<g id="edge30" class="edge"><title>Node10&#45;&gt;Node4</title>
<path fill="none" stroke="midnightblue" d="M1188.09,-232.302C1187.84,-202.076 1183.51,-114.564 1144,-58 1134.07,-43.7847 1118.33,-32.7284 1104.19,-24.9209"/>
<polygon fill="midnightblue" stroke="midnightblue" points="1105.7,-21.7592 1095.21,-20.2588 1102.48,-27.9721 1105.7,-21.7592"/>
</g>
<!-- Node10&#45;&gt;Node11 -->
<g id="edge34" class="edge"><title>Node10&#45;&gt;Node11</title>
<path fill="none" stroke="midnightblue" d="M1137.29,-232.497C1089.97,-222.693 1019.27,-208.05 968.907,-197.616"/>
<polygon fill="midnightblue" stroke="midnightblue" points="969.303,-194.124 958.801,-195.523 967.883,-200.979 969.303,-194.124"/>
</g>
<!-- Node11&#45;&gt;Node2 -->
<g id="edge40" class="edge"><title>Node11&#45;&gt;Node2</title>
<path fill="none" stroke="midnightblue" d="M941.272,-174.377C1037.8,-143.561 1317.36,-54.3054 1417.11,-22.4584"/>
<polygon fill="midnightblue" stroke="midnightblue" points="1418.27,-25.7607 1426.74,-19.385 1416.15,-19.0923 1418.27,-25.7607"/>
</g>
<!-- Node11&#45;&gt;Node4 -->
<g id="edge44" class="edge"><title>Node11&#45;&gt;Node4</title>
<path fill="none" stroke="midnightblue" d="M924.519,-174.376C950.506,-157.048 1001.43,-120.542 1035,-80 1047.35,-65.083 1057.67,-45.553 1064.42,-31.0795"/>
<polygon fill="midnightblue" stroke="midnightblue" points="1067.79,-32.1291 1068.68,-21.5725 1061.4,-29.2643 1067.79,-32.1291"/>
</g>
<!-- Node11&#45;&gt;Node5 -->
<g id="edge38" class="edge"><title>Node11&#45;&gt;Node5</title>
<path fill="none" stroke="midnightblue" d="M852.713,-174.499C816.69,-166.689 769.105,-154.522 729,-138 710.956,-130.566 709.127,-123.228 691,-116 626.915,-90.4467 603.246,-107.566 540,-80 523.841,-72.9571 522.89,-65.6314 507,-58 468.306,-39.4158 420.49,-25.7673 389.87,-18.1041"/>
<polygon fill="midnightblue" stroke="midnightblue" points="390.344,-14.617 379.799,-15.6448 388.683,-21.4172 390.344,-14.617"/>
</g>
<!-- Node12 -->
<g id="node30" class="node"><title>Node12</title>
<polygon fill="white" stroke="#bfbfbf" points="832,-58.5 832,-79.5 886,-79.5 886,-58.5 832,-58.5"/>
<text text-anchor="middle" x="859" y="-66.5" font-family="Helvetica,sans-Serif" font-size="10.00">iostream</text>
</g>
<!-- Node11&#45;&gt;Node12 -->
<g id="edge36" class="edge"><title>Node11&#45;&gt;Node12</title>
<path fill="none" stroke="midnightblue" d="M904.764,-174.046C900.564,-160.267 892.732,-135.991 884,-116 879.959,-106.747 874.814,-96.8318 870.243,-88.5048"/>
<polygon fill="midnightblue" stroke="midnightblue" points="873.188,-86.6014 865.242,-79.594 867.084,-90.0275 873.188,-86.6014"/>
</g>
<!-- Node13 -->
<g id="node34" class="node"><title>Node13</title>
<polygon fill="white" stroke="#bfbfbf" points="904,-58.5 904,-79.5 956,-79.5 956,-58.5 904,-58.5"/>
<text text-anchor="middle" x="930" y="-66.5" font-family="Helvetica,sans-Serif" font-size="10.00">sstream</text>
</g>
<!-- Node11&#45;&gt;Node13 -->
<g id="edge42" class="edge"><title>Node11&#45;&gt;Node13</title>
<path fill="none" stroke="midnightblue" d="M911.766,-174.309C914.95,-164.869 919.398,-150.677 922,-138 925.259,-122.126 927.3,-103.906 928.505,-90.1757"/>
<polygon fill="midnightblue" stroke="midnightblue" points="932.023,-90.0953 929.328,-79.8488 925.045,-89.5389 932.023,-90.0953"/>
</g>
<!-- Node14 -->
<g id="node37" class="node"><title>Node14</title>
<polygon fill="white" stroke="#bfbfbf" points="647.5,-116.5 647.5,-137.5 682.5,-137.5 682.5,-116.5 647.5,-116.5"/>
<text text-anchor="middle" x="665" y="-124.5" font-family="Helvetica,sans-Serif" font-size="10.00">map</text>
</g>
<!-- Node11&#45;&gt;Node14 -->
<g id="edge46" class="edge"><title>Node11&#45;&gt;Node14</title>
<path fill="none" stroke="midnightblue" d="M851.734,-174.485C808.735,-165.979 748.179,-152.98 696,-138 694.765,-137.645 693.508,-137.268 692.241,-136.875"/>
<polygon fill="midnightblue" stroke="midnightblue" points="693.177,-133.498 682.583,-133.661 690.967,-140.14 693.177,-133.498"/>
</g>
<!-- Node15 -->
<g id="node39" class="node"><title>Node15</title>
<a xlink:href="../../d8/def/AbsParameter_8hpp.xhtml" target="_top" xlink:title="This class defines the internal container of a parameter.">
<polygon fill="white" stroke="black" points="190,-58.5 190,-79.5 312,-79.5 312,-58.5 190,-58.5"/>
<text text-anchor="middle" x="251" y="-66.5" font-family="Helvetica,sans-Serif" font-size="10.00">Core/AbsParameter.hpp</text>
</a>
</g>
<!-- Node11&#45;&gt;Node15 -->
<g id="edge48" class="edge"><title>Node11&#45;&gt;Node15</title>
<path fill="none" stroke="midnightblue" d="M847.756,-181.339C736.117,-174.195 501.252,-157.392 422,-138 370.632,-125.431 314.354,-100.352 280.893,-84.1417"/>
<polygon fill="midnightblue" stroke="midnightblue" points="282.197,-80.8829 271.678,-79.6211 279.114,-87.1675 282.197,-80.8829"/>
</g>
<!-- Node18 -->
<g id="node48" class="node"><title>Node18</title>
<a xlink:href="../../db/dce/Parameter_8hpp.xhtml" target="_top" xlink:title="This class implements some internal container of parameters.">
<polygon fill="white" stroke="black" points="738,-116.5 738,-137.5 842,-137.5 842,-116.5 738,-116.5"/>
<text text-anchor="middle" x="790" y="-124.5" font-family="Helvetica,sans-Serif" font-size="10.00">Core/Parameter.hpp</text>
</a>
</g>
<!-- Node11&#45;&gt;Node18 -->
<g id="edge60" class="edge"><title>Node11&#45;&gt;Node18</title>
<path fill="none" stroke="midnightblue" d="M886.631,-174.497C868.201,-165.438 841.363,-152.246 820.645,-142.063"/>
<polygon fill="midnightblue" stroke="midnightblue" points="822.127,-138.891 811.609,-137.621 819.039,-145.174 822.127,-138.891"/>
</g>
<!-- Node20 -->
<g id="node56" class="node"><title>Node20</title>
<a xlink:href="../../d2/de9/Exceptions_8hpp.xhtml" target="_top" xlink:title="This class defines the ComPWA exception base&#45;class and provides a set of standard exceptions...">
<polygon fill="white" stroke="black" points="668,-58.5 668,-79.5 776,-79.5 776,-58.5 668,-58.5"/>
<text text-anchor="middle" x="722" y="-66.5" font-family="Helvetica,sans-Serif" font-size="10.00">Core/Exceptions.hpp</text>
</a>
</g>
<!-- Node11&#45;&gt;Node20 -->
<g id="edge78" class="edge"><title>Node11&#45;&gt;Node20</title>
<path fill="none" stroke="midnightblue" d="M901.798,-174.382C892.535,-159.386 873.719,-132.044 851,-116 829.353,-100.713 802.176,-89.8389 778.357,-82.4285"/>
<polygon fill="midnightblue" stroke="midnightblue" points="779.309,-79.0602 768.726,-79.5603 777.311,-85.769 779.309,-79.0602"/>
</g>
<!-- Node15&#45;&gt;Node2 -->
<g id="edge54" class="edge"><title>Node15&#45;&gt;Node2</title>
<path fill="none" stroke="midnightblue" d="M312.062,-63.9791C338.208,-61.9383 369.089,-59.6722 397,-58 796.518,-34.0645 1281.74,-16.7999 1416.68,-12.2119"/>
<polygon fill="midnightblue" stroke="midnightblue" points="1416.98,-15.7036 1426.86,-11.8672 1416.75,-8.70761 1416.98,-15.7036"/>
</g>
<!-- Node15&#45;&gt;Node4 -->
<g id="edge52" class="edge"><title>Node15&#45;&gt;Node4</title>
<path fill="none" stroke="midnightblue" d="M312.085,-64.3186C338.234,-62.335 369.112,-60.02 397,-58 644.683,-40.0593 943.518,-19.7498 1040.75,-13.1757"/>
<polygon fill="midnightblue" stroke="midnightblue" points="1041.08,-16.6615 1050.82,-12.4951 1040.61,-9.67739 1041.08,-16.6615"/>
</g>
<!-- Node15&#45;&gt;Node5 -->
<g id="edge50" class="edge"><title>Node15&#45;&gt;Node5</title>
<path fill="none" stroke="midnightblue" d="M270.558,-58.4966C287.198,-49.5602 311.327,-36.602 330.18,-26.4772"/>
<polygon fill="midnightblue" stroke="midnightblue" points="332.069,-29.436 339.223,-21.6212 328.757,-23.2691 332.069,-29.436"/>
</g>
<!-- Node16 -->
<g id="node44" class="node"><title>Node16</title>
<polygon fill="white" stroke="#bfbfbf" points="223,-0.5 223,-21.5 279,-21.5 279,-0.5 223,-0.5"/>
<text text-anchor="middle" x="251" y="-8.5" font-family="Helvetica,sans-Serif" font-size="10.00">algorithm</text>
</g>
<!-- Node15&#45;&gt;Node16 -->
<g id="edge56" class="edge"><title>Node15&#45;&gt;Node16</title>
<path fill="none" stroke="midnightblue" d="M251,-58.3619C251,-50.9219 251,-40.7427 251,-31.7276"/>
<polygon fill="midnightblue" stroke="midnightblue" points="254.5,-31.5706 251,-21.5707 247.5,-31.5707 254.5,-31.5706"/>
</g>
<!-- Node17 -->
<g id="node46" class="node"><title>Node17</title>
<a xlink:href="../../d9/d91/ParObserver_8hpp.xhtml" target="_top" xlink:title="For the use in the function tree, the observer pattern is used.">
<polygon fill="white" stroke="black" points="0,-0.5 0,-21.5 114,-21.5 114,-0.5 0,-0.5"/>
<text text-anchor="middle" x="57" y="-8.5" font-family="Helvetica,sans-Serif" font-size="10.00">Core/ParObserver.hpp</text>
</a>
</g>
<!-- Node15&#45;&gt;Node17 -->
<g id="edge58" class="edge"><title>Node15&#45;&gt;Node17</title>
<path fill="none" stroke="midnightblue" d="M215.868,-58.4966C183.967,-48.9592 136.743,-34.8408 102.072,-24.475"/>
<polygon fill="midnightblue" stroke="midnightblue" points="102.781,-21.0342 92.1978,-21.5231 100.776,-27.7409 102.781,-21.0342"/>
</g>
<!-- Node18&#45;&gt;Node5 -->
<g id="edge64" class="edge"><title>Node18&#45;&gt;Node5</title>
<path fill="none" stroke="midnightblue" d="M752.354,-116.417C703.467,-102.719 615.46,-78.2095 540,-58 487.195,-43.858 425.551,-27.9866 389.539,-18.7788"/>
<polygon fill="midnightblue" stroke="midnightblue" points="390.212,-15.3384 379.657,-16.2548 388.48,-22.1207 390.212,-15.3384"/>
</g>
<!-- Node18&#45;&gt;Node12 -->
<g id="edge62" class="edge"><title>Node18&#45;&gt;Node12</title>
<path fill="none" stroke="midnightblue" d="M802.656,-116.362C812.674,-107.941 826.867,-96.0105 838.501,-86.2308"/>
<polygon fill="midnightblue" stroke="midnightblue" points="841.022,-88.6844 846.425,-79.5707 836.518,-83.326 841.022,-88.6844"/>
</g>
<!-- Node18&#45;&gt;Node13 -->
<g id="edge66" class="edge"><title>Node18&#45;&gt;Node13</title>
<path fill="none" stroke="midnightblue" d="M815.353,-116.497C837.613,-107.275 870.212,-93.7695 894.963,-83.5153"/>
<polygon fill="midnightblue" stroke="midnightblue" points="896.464,-86.6822 904.363,-79.6212 893.784,-80.2152 896.464,-86.6822"/>
</g>
<!-- Node18&#45;&gt;Node15 -->
<g id="edge70" class="edge"><title>Node18&#45;&gt;Node15</title>
<path fill="none" stroke="midnightblue" d="M737.854,-121.164C722.741,-119.484 706.214,-117.658 691,-116 560.971,-101.831 409.278,-85.72 322.252,-76.5171"/>
<polygon fill="midnightblue" stroke="midnightblue" points="322.537,-73.0278 312.224,-75.457 321.801,-79.989 322.537,-73.0278"/>
</g>
<!-- Node19 -->
<g id="node53" class="node"><title>Node19</title>
<polygon fill="white" stroke="#bfbfbf" points="973.5,-58.5 973.5,-79.5 1026.5,-79.5 1026.5,-58.5 973.5,-58.5"/>
<text text-anchor="middle" x="1000" y="-66.5" font-family="Helvetica,sans-Serif" font-size="10.00">complex</text>
</g>
<!-- Node18&#45;&gt;Node19 -->
<g id="edge68" class="edge"><title>Node18&#45;&gt;Node19</title>
<path fill="none" stroke="midnightblue" d="M831.153,-116.47C864.55,-107.808 913.075,-94.9585 963.51,-80.3667"/>
<polygon fill="midnightblue" stroke="midnightblue" points="964.658,-83.6781 973.282,-77.5243 962.703,-76.9567 964.658,-83.6781"/>
</g>
<!-- Node18&#45;&gt;Node20 -->
<g id="edge72" class="edge"><title>Node18&#45;&gt;Node20</title>
<path fill="none" stroke="midnightblue" d="M777.528,-116.362C767.655,-107.941 753.667,-96.0105 742.202,-86.2308"/>
<polygon fill="midnightblue" stroke="midnightblue" points="744.273,-83.3972 734.393,-79.5707 739.73,-88.7231 744.273,-83.3972"/>
</g>
<!-- Node20&#45;&gt;Node5 -->
<g id="edge76" class="edge"><title>Node20&#45;&gt;Node5</title>
<path fill="none" stroke="midnightblue" d="M667.811,-60.2223C663.14,-59.4692 658.487,-58.7204 654,-58 557.51,-42.5091 443.232,-24.3579 389.634,-15.8561"/>
<polygon fill="midnightblue" stroke="midnightblue" points="390.172,-12.3976 379.747,-14.288 389.075,-19.3112 390.172,-12.3976"/>
</g>
<!-- Node21 -->
<g id="node58" class="node"><title>Node21</title>
<polygon fill="white" stroke="#bfbfbf" points="692.5,-0.5 692.5,-21.5 751.5,-21.5 751.5,-0.5 692.5,-0.5"/>
<text text-anchor="middle" x="722" y="-8.5" font-family="Helvetica,sans-Serif" font-size="10.00">exception</text>
</g>
<!-- Node20&#45;&gt;Node21 -->
<g id="edge74" class="edge"><title>Node20&#45;&gt;Node21</title>
<path fill="none" stroke="midnightblue" d="M722,-58.3619C722,-50.9219 722,-40.7427 722,-31.7276"/>
<polygon fill="midnightblue" stroke="midnightblue" points="725.5,-31.5706 722,-21.5707 718.5,-31.5707 725.5,-31.5706"/>
</g>
<!-- Node22&#45;&gt;Node2 -->
<g id="edge86" class="edge"><title>Node22&#45;&gt;Node2</title>
<path fill="none" stroke="midnightblue" d="M1074.62,-412.649C1161.89,-404.094 1329,-379.593 1453,-312 1524.76,-272.883 1586,-266.732 1586,-185 1586,-185 1586,-185 1586,-127 1586,-75.3114 1528.24,-41.3719 1488.85,-24.2355"/>
<polygon fill="midnightblue" stroke="midnightblue" points="1489.85,-20.8619 1479.28,-20.2403 1487.16,-27.3219 1489.85,-20.8619"/>
</g>
<!-- Node22&#45;&gt;Node4 -->
<g id="edge84" class="edge"><title>Node22&#45;&gt;Node4</title>
<path fill="none" stroke="midnightblue" d="M1018.57,-406.323C1028.41,-364.791 1063.72,-209.887 1075,-80 1076.39,-63.9567 1075.77,-45.7446 1074.87,-32.0609"/>
<polygon fill="midnightblue" stroke="midnightblue" points="1078.34,-31.4819 1074.08,-21.7787 1071.36,-32.017 1078.34,-31.4819"/>
</g>
<!-- Node22&#45;&gt;Node11 -->
<g id="edge88" class="edge"><title>Node22&#45;&gt;Node11</title>
<path fill="none" stroke="midnightblue" d="M1003.99,-406.461C994.466,-397.558 981.407,-384.044 973,-370 940.181,-315.179 920.546,-241.302 912.404,-205.778"/>
<polygon fill="midnightblue" stroke="midnightblue" points="915.744,-204.671 910.163,-195.665 908.91,-206.186 915.744,-204.671"/>
</g>
<!-- Node23 -->
<g id="node68" class="node"><title>Node23</title>
<a xlink:href="../../da/db2/FunctionTree_8hpp.xhtml" target="_top" xlink:title="This class can be used to store a function in a tree&#45;like structure.">
<polygon fill="white" stroke="black" points="681,-348.5 681,-369.5 797,-369.5 797,-348.5 681,-348.5"/>
<text text-anchor="middle" x="739" y="-356.5" font-family="Helvetica,sans-Serif" font-size="10.00">Core/FunctionTree.hpp</text>
</a>
</g>
<!-- Node22&#45;&gt;Node23 -->
<g id="edge90" class="edge"><title>Node22&#45;&gt;Node23</title>
<path fill="none" stroke="midnightblue" d="M965.837,-406.497C919.017,-396.693 849.081,-382.05 799.254,-371.616"/>
<polygon fill="midnightblue" stroke="midnightblue" points="799.762,-368.147 789.257,-369.523 798.327,-374.998 799.762,-368.147"/>
</g>
<!-- Node23&#45;&gt;Node2 -->
<g id="edge94" class="edge"><title>Node23&#45;&gt;Node2</title>
<path fill="none" stroke="midnightblue" d="M797.332,-352.975C919.158,-339.534 1195.86,-304.28 1275,-254 1364.25,-197.292 1423.56,-78.5613 1444.55,-31.1676"/>
<polygon fill="midnightblue" stroke="midnightblue" points="1447.89,-32.2637 1448.65,-21.6962 1441.46,-29.4829 1447.89,-32.2637"/>
</g>
<!-- Node23&#45;&gt;Node4 -->
<g id="edge92" class="edge"><title>Node23&#45;&gt;Node4</title>
<path fill="none" stroke="midnightblue" d="M764.99,-348.345C815.605,-326.482 928.516,-272.128 998,-196 1042.46,-147.284 1062.27,-68.7585 1069.5,-31.6679"/>
<polygon fill="midnightblue" stroke="midnightblue" points="1072.99,-32.0339 1071.36,-21.5661 1066.11,-30.7693 1072.99,-32.0339"/>
</g>
<!-- Node23&#45;&gt;Node5 -->
<g id="edge96" class="edge"><title>Node23&#45;&gt;Node5</title>
<path fill="none" stroke="midnightblue" d="M680.764,-355.938C520.717,-345.947 86,-307.53 86,-185 86,-185 86,-185 86,-127 86,-81.3778 121.654,-79.2969 162,-58 190.692,-42.8549 280.39,-25.1213 328.228,-16.4014"/>
<polygon fill="midnightblue" stroke="midnightblue" points="329.099,-19.801 338.32,-14.5827 327.858,-12.912 329.099,-19.801"/>
</g>
<!-- Node23&#45;&gt;Node10 -->
<g id="edge136" class="edge"><title>Node23&#45;&gt;Node10</title>
<path fill="none" stroke="midnightblue" d="M780.036,-348.398C862.375,-327.126 1047.51,-279.296 1137.28,-256.104"/>
<polygon fill="midnightblue" stroke="midnightblue" points="1138.42,-259.425 1147.22,-253.535 1136.66,-252.648 1138.42,-259.425"/>
</g>
<!-- Node23&#45;&gt;Node14 -->
<g id="edge98" class="edge"><title>Node23&#45;&gt;Node14</title>
<path fill="none" stroke="midnightblue" d="M694.07,-348.456C649.426,-335.137 584.347,-307.228 561,-254 540.211,-206.603 601.257,-162.54 638.492,-140.933"/>
<polygon fill="midnightblue" stroke="midnightblue" points="640.379,-143.887 647.381,-135.935 636.949,-137.785 640.379,-143.887"/>
</g>
<!-- Node23&#45;&gt;Node15 -->
<g id="edge132" class="edge"><title>Node23&#45;&gt;Node15</title>
<path fill="none" stroke="midnightblue" d="M680.801,-352.87C587.797,-340.087 405.254,-302.299 298,-196 276.777,-174.966 274.476,-165.984 264,-138 258.132,-122.326 254.819,-103.618 253.008,-89.638"/>
<polygon fill="midnightblue" stroke="midnightblue" points="256.473,-89.1259 251.858,-79.5888 249.518,-89.922 256.473,-89.1259"/>
</g>
<!-- Node23&#45;&gt;Node18 -->
<g id="edge134" class="edge"><title>Node23&#45;&gt;Node18</title>
<path fill="none" stroke="midnightblue" d="M744.349,-348.438C748.879,-339.082 755.221,-324.938 759,-312 775.98,-253.864 784.65,-182.561 788.122,-147.903"/>
<polygon fill="midnightblue" stroke="midnightblue" points="791.637,-147.914 789.105,-137.627 784.669,-147.248 791.637,-147.914"/>
</g>
<!-- Node24 -->
<g id="node74" class="node"><title>Node24</title>
<a xlink:href="../../dc/d66/Functions_8hpp.xhtml" target="_top" xlink:title="This file contains Functions implementing the Strategy interface so they can be used inside a node of...">
<polygon fill="white" stroke="black" points="570,-232.5 570,-253.5 672,-253.5 672,-232.5 570,-232.5"/>
<text text-anchor="middle" x="621" y="-240.5" font-family="Helvetica,sans-Serif" font-size="10.00">Core/Functions.hpp</text>
</a>
</g>
<!-- Node23&#45;&gt;Node24 -->
<g id="edge100" class="edge"><title>Node23&#45;&gt;Node24</title>
<path fill="none" stroke="midnightblue" d="M697.278,-348.468C676.986,-341.329 653.834,-329.853 639,-312 627.777,-298.494 623.465,-278.771 621.851,-263.868"/>
<polygon fill="midnightblue" stroke="midnightblue" points="625.318,-263.3 621.073,-253.593 618.338,-263.829 625.318,-263.3"/>
</g>
<!-- Node25 -->
<g id="node82" class="node"><title>Node25</title>
<a xlink:href="../../df/d5a/TreeNode_8hpp.xhtml" target="_top" xlink:title="This class acts as a container for a parameter in a function tree.">
<polygon fill="white" stroke="black" points="648,-290.5 648,-311.5 750,-311.5 750,-290.5 648,-290.5"/>
<text text-anchor="middle" x="699" y="-298.5" font-family="Helvetica,sans-Serif" font-size="10.00">Core/TreeNode.hpp</text>
</a>
</g>
<!-- Node23&#45;&gt;Node25 -->
<g id="edge114" class="edge"><title>Node23&#45;&gt;Node25</title>
<path fill="none" stroke="midnightblue" d="M731.663,-348.362C726.194,-340.431 718.578,-329.389 712.076,-319.961"/>
<polygon fill="midnightblue" stroke="midnightblue" points="714.849,-317.816 706.29,-311.571 709.086,-321.79 714.849,-317.816"/>
</g>
<!-- Node24&#45;&gt;Node4 -->
<g id="edge102" class="edge"><title>Node24&#45;&gt;Node4</title>
<path fill="none" stroke="midnightblue" d="M618.92,-232.171C614.948,-207.971 609.136,-149.042 639,-116 683.813,-66.418 723.017,-104.993 785,-80 803.099,-72.7021 804.704,-64.789 823,-58 898.062,-30.1474 992.185,-18.1729 1040.73,-13.5559"/>
<polygon fill="midnightblue" stroke="midnightblue" points="1041.29,-17.0195 1050.93,-12.6309 1040.66,-10.0481 1041.29,-17.0195"/>
</g>
<!-- Node24&#45;&gt;Node8 -->
<g id="edge104" class="edge"><title>Node24&#45;&gt;Node8</title>
<path fill="none" stroke="midnightblue" d="M569.788,-238.185C496.596,-230.752 366.147,-215.304 323,-196 248.613,-162.719 220.115,-151.492 181,-80 172.962,-65.3077 171.29,-46.2503 171.444,-31.8875"/>
<polygon fill="midnightblue" stroke="midnightblue" points="174.955,-31.6844 171.871,-21.5484 167.961,-31.3953 174.955,-31.6844"/>
</g>
<!-- Node24&#45;&gt;Node11 -->
<g id="edge108" class="edge"><title>Node24&#45;&gt;Node11</title>
<path fill="none" stroke="midnightblue" d="M672.31,-232.631C720.831,-222.825 793.738,-208.091 845.602,-197.61"/>
<polygon fill="midnightblue" stroke="midnightblue" points="846.572,-200.985 855.68,-195.573 845.185,-194.124 846.572,-200.985"/>
</g>
<!-- Node24&#45;&gt;Node15 -->
<g id="edge112" class="edge"><title>Node24&#45;&gt;Node15</title>
<path fill="none" stroke="midnightblue" d="M569.716,-239.578C500.278,-234.059 380.998,-221.167 346,-196 313.228,-172.433 327.893,-147.777 303,-116 294.44,-105.073 283.185,-94.5532 273.336,-86.2464"/>
<polygon fill="midnightblue" stroke="midnightblue" points="275.441,-83.4467 265.483,-79.8289 271.012,-88.867 275.441,-83.4467"/>
</g>
<!-- Node24&#45;&gt;Node18 -->
<g id="edge110" class="edge"><title>Node24&#45;&gt;Node18</title>
<path fill="none" stroke="midnightblue" d="M628.949,-232.447C640.435,-217.775 662.948,-191.093 687,-174 706.139,-160.399 729.842,-149.257 749.684,-141.242"/>
<polygon fill="midnightblue" stroke="midnightblue" points="751.044,-144.468 759.078,-137.561 748.49,-137.95 751.044,-144.468"/>
</g>
<!-- Node24&#45;&gt;Node20 -->
<g id="edge106" class="edge"><title>Node24&#45;&gt;Node20</title>
<path fill="none" stroke="midnightblue" d="M615.428,-232.365C604.07,-209.058 581.312,-152.64 606,-116 618,-98.1909 638.022,-87.1276 658.085,-80.2558"/>
<polygon fill="midnightblue" stroke="midnightblue" points="659.39,-83.5156 667.902,-77.2079 657.314,-76.8304 659.39,-83.5156"/>
</g>
<!-- Node25&#45;&gt;Node2 -->
<g id="edge120" class="edge"><title>Node25&#45;&gt;Node2</title>
<path fill="none" stroke="midnightblue" d="M729.308,-290.496C756.679,-280.999 798.054,-266.613 834,-254 906.952,-228.401 925.698,-223.381 998,-196 1126.66,-147.274 1157.59,-131.913 1285,-80 1330.98,-61.2667 1383.95,-39.4747 1417.92,-25.4735"/>
<polygon fill="midnightblue" stroke="midnightblue" points="1419.49,-28.6128 1427.4,-21.5654 1416.82,-22.1412 1419.49,-28.6128"/>
</g>
<!-- Node25&#45;&gt;Node5 -->
<g id="edge116" class="edge"><title>Node25&#45;&gt;Node5</title>
<path fill="none" stroke="midnightblue" d="M647.996,-295.359C513.952,-279.848 162,-234.419 162,-185 162,-185 162,-185 162,-127 162,-95.1919 158.39,-80.3727 181,-58 201.665,-37.5518 282.844,-22.4316 328.099,-15.3927"/>
<polygon fill="midnightblue" stroke="midnightblue" points="328.877,-18.8149 338.241,-13.8571 327.829,-11.8938 328.877,-18.8149"/>
</g>
<!-- Node25&#45;&gt;Node11 -->
<g id="edge124" class="edge"><title>Node25&#45;&gt;Node11</title>
<path fill="none" stroke="midnightblue" d="M713.17,-290.354C732.582,-276.043 768.825,-250.287 802,-232 824.372,-219.667 850.612,-208.012 871.387,-199.394"/>
<polygon fill="midnightblue" stroke="midnightblue" points="872.88,-202.564 880.809,-195.537 870.228,-196.086 872.88,-202.564"/>
</g>
<!-- Node25&#45;&gt;Node15 -->
<g id="edge126" class="edge"><title>Node25&#45;&gt;Node15</title>
<path fill="none" stroke="midnightblue" d="M647.739,-291.706C557.23,-274.493 373.853,-235.768 323,-196 287.416,-168.172 266.481,-117.534 257.045,-89.3358"/>
<polygon fill="midnightblue" stroke="midnightblue" points="260.353,-88.1892 253.985,-79.7216 253.683,-90.3121 260.353,-88.1892"/>
</g>
<!-- Node25&#45;&gt;Node17 -->
<g id="edge130" class="edge"><title>Node25&#45;&gt;Node17</title>
<path fill="none" stroke="midnightblue" d="M647.959,-298.116C548.421,-292.067 331.924,-276.709 261,-254 210.966,-237.98 194.904,-233.392 158,-196 109.104,-146.458 77.1074,-68.3962 63.893,-31.5522"/>
<polygon fill="midnightblue" stroke="midnightblue" points="67.1291,-30.2025 60.5306,-21.9133 60.5197,-32.5081 67.1291,-30.2025"/>
</g>
<!-- Node25&#45;&gt;Node18 -->
<g id="edge128" class="edge"><title>Node25&#45;&gt;Node18</title>
<path fill="none" stroke="midnightblue" d="M704.279,-290.403C715.205,-268.532 741.188,-216.853 764,-174 768.787,-165.007 774.224,-155.13 778.883,-146.761"/>
<polygon fill="midnightblue" stroke="midnightblue" points="782.084,-148.209 783.911,-137.773 775.974,-144.792 782.084,-148.209"/>
</g>
<!-- Node25&#45;&gt;Node19 -->
<g id="edge118" class="edge"><title>Node25&#45;&gt;Node19</title>
<path fill="none" stroke="midnightblue" d="M722.608,-290.333C742.98,-281.027 773.121,-267.013 799,-254 817.475,-244.71 820.755,-239.569 840,-232 898.587,-208.957 934.248,-242.214 977,-196 1003.75,-167.087 1004.61,-118.001 1002.52,-90.0784"/>
<polygon fill="midnightblue" stroke="midnightblue" points="1005.98,-89.4747 1001.55,-79.8502 999.009,-90.1361 1005.98,-89.4747"/>
</g>
<!-- Node25&#45;&gt;Node24 -->
<g id="edge122" class="edge"><title>Node25&#45;&gt;Node24</title>
<path fill="none" stroke="midnightblue" d="M684.694,-290.362C673.149,-281.777 656.7,-269.546 643.41,-259.664"/>
<polygon fill="midnightblue" stroke="midnightblue" points="645.329,-256.729 635.216,-253.571 641.152,-262.346 645.329,-256.729"/>
</g>
<!-- Node26&#45;&gt;Node2 -->
<g id="edge142" class="edge"><title>Node26&#45;&gt;Node2</title>
<path fill="none" stroke="midnightblue" d="M1407.28,-232.394C1421.89,-224.605 1439.29,-212.501 1448,-196 1476.28,-142.445 1465.63,-67.455 1458.04,-31.6327"/>
<polygon fill="midnightblue" stroke="midnightblue" points="1461.45,-30.8246 1455.83,-21.8401 1454.62,-32.3652 1461.45,-30.8246"/>
</g>
<!-- Node26&#45;&gt;Node4 -->
<g id="edge140" class="edge"><title>Node26&#45;&gt;Node4</title>
<path fill="none" stroke="midnightblue" d="M1372.31,-232.427C1341.73,-202.528 1250.49,-115.795 1164,-58 1145.16,-45.413 1122.54,-33.7133 1104.56,-25.1355"/>
<polygon fill="midnightblue" stroke="midnightblue" points="1105.64,-21.7782 1095.1,-20.7053 1102.67,-28.1171 1105.64,-21.7782"/>
</g>
<!-- Node26&#45;&gt;Node11 -->
<g id="edge144" class="edge"><title>Node26&#45;&gt;Node11</title>
<path fill="none" stroke="midnightblue" d="M1321.87,-235.536C1233.72,-224.772 1071.3,-204.94 978.301,-193.584"/>
<polygon fill="midnightblue" stroke="midnightblue" points="978.493,-190.082 968.142,-192.344 977.644,-197.03 978.493,-190.082"/>
</g>
<!-- Node27&#45;&gt;Node2 -->
<g id="edge152" class="edge"><title>Node27&#45;&gt;Node2</title>
<path fill="none" stroke="midnightblue" d="M1351.86,-466.817C1446.5,-451.79 1624,-416.009 1624,-359 1624,-359 1624,-359 1624,-127 1624,-62.3941 1539.37,-31.2793 1489.19,-18.5076"/>
<polygon fill="midnightblue" stroke="midnightblue" points="1489.89,-15.0759 1479.34,-16.1241 1488.24,-21.8793 1489.89,-15.0759"/>
</g>
<!-- Node27&#45;&gt;Node3 -->
<g id="edge154" class="edge"><title>Node27&#45;&gt;Node3</title>
<path fill="none" stroke="midnightblue" d="M1236.29,-468.596C1102.39,-453.201 774.22,-412.255 672,-370 570.197,-327.918 469.476,-239.998 429.266,-202.525"/>
<polygon fill="midnightblue" stroke="midnightblue" points="431.517,-199.837 421.837,-195.53 426.718,-204.934 431.517,-199.837"/>
</g>
<!-- Node27&#45;&gt;Node4 -->
<g id="edge150" class="edge"><title>Node27&#45;&gt;Node4</title>
<path fill="none" stroke="midnightblue" d="M1344.18,-464.485C1418.21,-445.701 1548,-398.817 1548,-301 1548,-301 1548,-301 1548,-243 1548,-94.9566 1408.4,-113.12 1271,-58 1214.71,-35.4195 1144.88,-21.9888 1104.98,-15.5901"/>
<polygon fill="midnightblue" stroke="midnightblue" points="1105.45,-12.1213 1095.03,-14.0417 1104.38,-19.038 1105.45,-12.1213"/>
</g>
<!-- Node27&#45;&gt;Node9 -->
<g id="edge156" class="edge"><title>Node27&#45;&gt;Node9</title>
<path fill="none" stroke="midnightblue" d="M1299.43,-464.377C1313.92,-436.051 1353.67,-358.349 1372.65,-321.242"/>
<polygon fill="midnightblue" stroke="midnightblue" points="1375.97,-322.425 1377.41,-311.928 1369.74,-319.237 1375.97,-322.425"/>
</g>
<!-- Node27&#45;&gt;Node11 -->
<g id="edge162" class="edge"><title>Node27&#45;&gt;Node11</title>
<path fill="none" stroke="midnightblue" d="M1279.8,-464.335C1221.76,-420.727 1002.18,-255.756 930.664,-202.027"/>
<polygon fill="midnightblue" stroke="midnightblue" points="932.422,-198.971 922.325,-195.762 928.218,-204.567 932.422,-198.971"/>
</g>
<!-- Node27&#45;&gt;Node22 -->
<g id="edge158" class="edge"><title>Node27&#45;&gt;Node22</title>
<path fill="none" stroke="midnightblue" d="M1243.66,-464.497C1196.67,-454.693 1126.48,-440.05 1076.47,-429.616"/>
<polygon fill="midnightblue" stroke="midnightblue" points="1076.94,-426.139 1066.44,-427.523 1075.51,-432.992 1076.94,-426.139"/>
</g>
<!-- Node27&#45;&gt;Node26 -->
<g id="edge160" class="edge"><title>Node27&#45;&gt;Node26</title>
<path fill="none" stroke="midnightblue" d="M1292.17,-464.432C1287.58,-434.546 1278.25,-347.846 1313,-290 1321.15,-276.44 1334.89,-265.953 1348.05,-258.361"/>
<polygon fill="midnightblue" stroke="midnightblue" points="1349.83,-261.376 1356.99,-253.566 1346.53,-255.207 1349.83,-261.376"/>
</g>
</g>
</svg>
