<?xml version="1.0" encoding="UTF-8" standalone="no"?>
<!DOCTYPE svg PUBLIC "-//W3C//DTD SVG 1.1//EN"
 "http://www.w3.org/Graphics/SVG/1.1/DTD/svg11.dtd">
<!-- Generated by graphviz version 2.36.0 (20140111.2315)
 -->
<!-- Title: /home/travis/build/ComPWA/ComPWA/Physics/HelicityAmplitude/TwoBodyDecayAngularStrategy.cpp Pages: 1 -->
<svg width="969pt" height="434pt"
 viewBox="0.00 0.00 969.00 434.00" xmlns="http://www.w3.org/2000/svg" xmlns:xlink="http://www.w3.org/1999/xlink">
<g id="graph0" class="graph" transform="scale(1 1) rotate(0) translate(4 430)">
<title>/home/travis/build/ComPWA/ComPWA/Physics/HelicityAmplitude/TwoBodyDecayAngularStrategy.cpp</title>
<polygon fill="white" stroke="none" points="-4,4 -4,-430 965,-430 965,4 -4,4"/>
<!-- Node1 -->
<g id="node1" class="node"><title>Node1</title>
<polygon fill="#bfbfbf" stroke="black" points="715.5,-373 715.5,-425 884.5,-425 884.5,-373 715.5,-373"/>
<text text-anchor="start" x="723.5" y="-413" font-family="Helvetica,sans-Serif" font-size="10.00">/home/travis/build</text>
<text text-anchor="start" x="723.5" y="-402" font-family="Helvetica,sans-Serif" font-size="10.00">/ComPWA/ComPWA/Physics</text>
<text text-anchor="start" x="723.5" y="-391" font-family="Helvetica,sans-Serif" font-size="10.00">/HelicityAmplitude/TwoBodyDecay</text>
<text text-anchor="middle" x="800" y="-380" font-family="Helvetica,sans-Serif" font-size="10.00">AngularStrategy.cpp</text>
</g>
<!-- Node2 -->
<g id="node2" class="node"><title>Node2</title>
<g id="a_node2"><a xlink:href="../../d5/d8f/DataPointStorage_8hpp.html" target="_top" xlink:title="Core/DataPointStorage.hpp">
<polygon fill="white" stroke="black" points="824.5,-174.5 824.5,-193.5 961.5,-193.5 961.5,-174.5 824.5,-174.5"/>
<text text-anchor="middle" x="893" y="-181.5" font-family="Helvetica,sans-Serif" font-size="10.00">Core/DataPointStorage.hpp</text>
</a>
</g>
</g>
<!-- Node1&#45;&gt;Node2 -->
<g id="edge1" class="edge"><title>Node1&#45;&gt;Node2</title>
<path fill="none" stroke="midnightblue" d="M811.034,-372.73C830.033,-329.215 868.481,-241.157 885.077,-203.146"/>
<polygon fill="midnightblue" stroke="midnightblue" points="888.35,-204.396 889.144,-193.831 881.935,-201.595 888.35,-204.396"/>
</g>
<!-- Node5 -->
<g id="node5" class="node"><title>Node5</title>
<g id="a_node5"><a xlink:href="../../de/de3/TwoBodyDecayAngularStrategy_8hpp.html" target="_top" xlink:title="Physics/HelicityAmplitude\l/TwoBodyDecayAngularStrategy.hpp">
<polygon fill="white" stroke="black" points="641,-305 641,-335 819,-335 819,-305 641,-305"/>
<text text-anchor="start" x="649" y="-323" font-family="Helvetica,sans-Serif" font-size="10.00">Physics/HelicityAmplitude</text>
<text text-anchor="middle" x="730" y="-312" font-family="Helvetica,sans-Serif" font-size="10.00">/TwoBodyDecayAngularStrategy.hpp</text>
</a>
</g>
</g>
<!-- Node1&#45;&gt;Node5 -->
<g id="edge4" class="edge"><title>Node1&#45;&gt;Node5</title>
<path fill="none" stroke="midnightblue" d="M777.079,-372.787C768.233,-363.056 758.212,-352.033 749.697,-342.666"/>
<polygon fill="midnightblue" stroke="midnightblue" points="752.273,-340.297 742.956,-335.252 747.093,-345.006 752.273,-340.297"/>
</g>
<!-- Node3 -->
<g id="node3" class="node"><title>Node3</title>
<polygon fill="white" stroke="#bfbfbf" points="417,-0.5 417,-19.5 461,-19.5 461,-0.5 417,-0.5"/>
<text text-anchor="middle" x="439" y="-7.5" font-family="Helvetica,sans-Serif" font-size="10.00">vector</text>
</g>
<!-- Node2&#45;&gt;Node3 -->
<g id="edge2" class="edge"><title>Node2&#45;&gt;Node3</title>
<path fill="none" stroke="midnightblue" d="M883.732,-174.487C857.856,-151.245 781.752,-86.4127 706,-56 625.769,-23.7888 523.009,-14.6342 471.501,-12.0326"/>
<polygon fill="midnightblue" stroke="midnightblue" points="471.463,-8.52741 461.315,-11.571 471.146,-15.5202 471.463,-8.52741"/>
</g>
<!-- Node4 -->
<g id="node4" class="node"><title>Node4</title>
<polygon fill="white" stroke="#bfbfbf" points="502.5,-112.5 502.5,-131.5 537.5,-131.5 537.5,-112.5 502.5,-112.5"/>
<text text-anchor="middle" x="520" y="-119.5" font-family="Helvetica,sans-Serif" font-size="10.00">map</text>
</g>
<!-- Node2&#45;&gt;Node4 -->
<g id="edge3" class="edge"><title>Node2&#45;&gt;Node4</title>
<path fill="none" stroke="midnightblue" d="M850.142,-174.45C838.737,-172.259 826.415,-169.967 815,-168 717.049,-151.117 600.228,-134.265 547.834,-126.88"/>
<polygon fill="midnightblue" stroke="midnightblue" points="548.051,-123.376 537.661,-125.451 547.077,-130.308 548.051,-123.376"/>
</g>
<!-- Node6 -->
<g id="node6" class="node"><title>Node6</title>
<g id="a_node6"><a xlink:href="../../dc/d66/Functions_8hpp.html" target="_top" xlink:title="This file contains Functions implementing the Strategy interface so they can be used inside a node of...">
<polygon fill="white" stroke="black" points="284,-242.5 284,-261.5 386,-261.5 386,-242.5 284,-242.5"/>
<text text-anchor="middle" x="335" y="-249.5" font-family="Helvetica,sans-Serif" font-size="10.00">Core/Functions.hpp</text>
</a>
</g>
</g>
<!-- Node5&#45;&gt;Node6 -->
<g id="edge5" class="edge"><title>Node5&#45;&gt;Node6</title>
<path fill="none" stroke="midnightblue" d="M645.747,-304.922C570.748,-292.391 462.843,-274.361 395.925,-263.18"/>
<polygon fill="midnightblue" stroke="midnightblue" points="396.394,-259.71 385.954,-261.514 395.24,-266.614 396.394,-259.71"/>
</g>
<!-- Node14 -->
<g id="node14" class="node"><title>Node14</title>
<g id="a_node14"><a xlink:href="../../d8/dd9/TwoBodyDecayAmplitude_8hpp.html" target="_top" xlink:title="Physics/HelicityAmplitude\l/TwoBodyDecayAmplitude.hpp">
<polygon fill="white" stroke="black" points="654,-237 654,-267 806,-267 806,-237 654,-237"/>
<text text-anchor="start" x="662" y="-255" font-family="Helvetica,sans-Serif" font-size="10.00">Physics/HelicityAmplitude</text>
<text text-anchor="middle" x="730" y="-244" font-family="Helvetica,sans-Serif" font-size="10.00">/TwoBodyDecayAmplitude.hpp</text>
</a>
</g>
</g>
<!-- Node5&#45;&gt;Node14 -->
<g id="edge26" class="edge"><title>Node5&#45;&gt;Node14</title>
<path fill="none" stroke="midnightblue" d="M730,-304.679C730,-296.722 730,-286.605 730,-277.436"/>
<polygon fill="midnightblue" stroke="midnightblue" points="733.5,-277.293 730,-267.293 726.5,-277.293 733.5,-277.293"/>
</g>
<!-- Node6&#45;&gt;Node3 -->
<g id="edge6" class="edge"><title>Node6&#45;&gt;Node3</title>
<path fill="none" stroke="midnightblue" d="M386.315,-250.055C467.339,-247.424 619.476,-237.485 656,-200 700.938,-153.879 712.989,-105.663 672,-56 646.88,-25.564 528.872,-15.4803 471.069,-12.3327"/>
<polygon fill="midnightblue" stroke="midnightblue" points="471.176,-8.83373 461.012,-11.8223 470.822,-15.8247 471.176,-8.83373"/>
</g>
<!-- Node7 -->
<g id="node7" class="node"><title>Node7</title>
<polygon fill="white" stroke="#bfbfbf" points="610.5,-56.5 610.5,-75.5 663.5,-75.5 663.5,-56.5 610.5,-56.5"/>
<text text-anchor="middle" x="637" y="-63.5" font-family="Helvetica,sans-Serif" font-size="10.00">complex</text>
</g>
<!-- Node6&#45;&gt;Node7 -->
<g id="edge7" class="edge"><title>Node6&#45;&gt;Node7</title>
<path fill="none" stroke="midnightblue" d="M386.077,-249.833C462.872,-246.889 602.469,-236.521 634,-200 661.582,-168.053 651.315,-113.944 643.18,-85.5921"/>
<polygon fill="midnightblue" stroke="midnightblue" points="646.443,-84.2962 640.146,-75.7752 639.755,-86.3628 646.443,-84.2962"/>
</g>
<!-- Node8 -->
<g id="node8" class="node"><title>Node8</title>
<polygon fill="white" stroke="#bfbfbf" points="363.5,-112.5 363.5,-131.5 410.5,-131.5 410.5,-112.5 363.5,-112.5"/>
<text text-anchor="middle" x="387" y="-119.5" font-family="Helvetica,sans-Serif" font-size="10.00">math.h</text>
</g>
<!-- Node6&#45;&gt;Node8 -->
<g id="edge8" class="edge"><title>Node6&#45;&gt;Node8</title>
<path fill="none" stroke="midnightblue" d="M335.808,-242.388C337.511,-226.89 342.32,-193.543 354,-168 358.675,-157.777 365.891,-147.577 372.385,-139.478"/>
<polygon fill="midnightblue" stroke="midnightblue" points="375.239,-141.522 378.993,-131.615 369.88,-137.019 375.239,-141.522"/>
</g>
<!-- Node9 -->
<g id="node9" class="node"><title>Node9</title>
<g id="a_node9"><a xlink:href="../../d2/de9/Exceptions_8hpp.html" target="_top" xlink:title="This class defines the ComPWA exception base&#45;class and provides a set of standard exceptions...">
<polygon fill="white" stroke="red" points="201,-56.5 201,-75.5 309,-75.5 309,-56.5 201,-56.5"/>
<text text-anchor="middle" x="255" y="-63.5" font-family="Helvetica,sans-Serif" font-size="10.00">Core/Exceptions.hpp</text>
</a>
</g>
</g>
<!-- Node6&#45;&gt;Node9 -->
<g id="edge9" class="edge"><title>Node6&#45;&gt;Node9</title>
<path fill="none" stroke="midnightblue" d="M336.006,-242.438C338.272,-219.48 341.728,-155.359 316,-112 308.187,-98.8326 294.876,-88.3391 282.679,-80.8088"/>
<polygon fill="midnightblue" stroke="midnightblue" points="284.092,-77.5838 273.678,-75.6327 280.602,-83.652 284.092,-77.5838"/>
</g>
<!-- Node10 -->
<g id="node10" class="node"><title>Node10</title>
<g id="a_node10"><a xlink:href="../../df/d9f/ParameterList_8hpp.html" target="_top" xlink:title="This class provides a list of fit parameters which can have different types. ">
<polygon fill="white" stroke="red" points="111,-174.5 111,-193.5 231,-193.5 231,-174.5 111,-174.5"/>
<text text-anchor="middle" x="171" y="-181.5" font-family="Helvetica,sans-Serif" font-size="10.00">Core/ParameterList.hpp</text>
</a>
</g>
</g>
<!-- Node6&#45;&gt;Node10 -->
<g id="edge10" class="edge"><title>Node6&#45;&gt;Node10</title>
<path fill="none" stroke="midnightblue" d="M313.56,-242.372C284.997,-230.877 234.286,-210.469 201.679,-197.346"/>
<polygon fill="midnightblue" stroke="midnightblue" points="202.769,-194.012 192.186,-193.526 200.156,-200.506 202.769,-194.012"/>
</g>
<!-- Node11 -->
<g id="node11" class="node"><title>Node11</title>
<g id="a_node11"><a xlink:href="../../d8/def/AbsParameter_8hpp.html" target="_top" xlink:title="This class defines the internal container of a parameter. ">
<polygon fill="white" stroke="red" points="0,-56.5 0,-75.5 122,-75.5 122,-56.5 0,-56.5"/>
<text text-anchor="middle" x="61" y="-63.5" font-family="Helvetica,sans-Serif" font-size="10.00">Core/AbsParameter.hpp</text>
</a>
</g>
</g>
<!-- Node6&#45;&gt;Node11 -->
<g id="edge21" class="edge"><title>Node6&#45;&gt;Node11</title>
<path fill="none" stroke="midnightblue" d="M283.88,-245.824C223.543,-238.714 128.097,-224.003 102,-200 69.4885,-170.097 62.5025,-115.078 61.1653,-86.0637"/>
<polygon fill="midnightblue" stroke="midnightblue" points="64.6537,-85.5864 60.8823,-75.6856 57.6563,-85.7773 64.6537,-85.5864"/>
</g>
<!-- Node12 -->
<g id="node12" class="node"><title>Node12</title>
<g id="a_node12"><a xlink:href="../../db/dce/Parameter_8hpp.html" target="_top" xlink:title="This class implements some internal container of parameters. ">
<polygon fill="white" stroke="red" points="203,-112.5 203,-131.5 307,-131.5 307,-112.5 203,-112.5"/>
<text text-anchor="middle" x="255" y="-119.5" font-family="Helvetica,sans-Serif" font-size="10.00">Core/Parameter.hpp</text>
</a>
</g>
</g>
<!-- Node6&#45;&gt;Node12 -->
<g id="edge20" class="edge"><title>Node6&#45;&gt;Node12</title>
<path fill="none" stroke="midnightblue" d="M323.601,-242.388C311.966,-233.073 294.088,-217.225 283,-200 271.24,-181.73 263.545,-157.849 259.251,-141.557"/>
<polygon fill="midnightblue" stroke="midnightblue" points="262.602,-140.527 256.813,-131.653 255.805,-142.199 262.602,-140.527"/>
</g>
<!-- Node13 -->
<g id="node13" class="node"><title>Node13</title>
<g id="a_node13"><a xlink:href="../../d8/dd4/DataPoint_8hpp.html" target="_top" xlink:title="dataPoint stores kinematic information of a dalitz plot ">
<polygon fill="white" stroke="red" points="363.5,-174.5 363.5,-193.5 466.5,-193.5 466.5,-174.5 363.5,-174.5"/>
<text text-anchor="middle" x="415" y="-181.5" font-family="Helvetica,sans-Serif" font-size="10.00">Core/DataPoint.hpp</text>
</a>
</g>
</g>
<!-- Node6&#45;&gt;Node13 -->
<g id="edge22" class="edge"><title>Node6&#45;&gt;Node13</title>
<path fill="none" stroke="midnightblue" d="M345.459,-242.372C358.395,-231.699 380.645,-213.343 396.493,-200.268"/>
<polygon fill="midnightblue" stroke="midnightblue" points="399.052,-202.694 404.539,-193.63 394.598,-197.295 399.052,-202.694"/>
</g>
<!-- Node10&#45;&gt;Node3 -->
<g id="edge11" class="edge"><title>Node10&#45;&gt;Node3</title>
<path fill="none" stroke="midnightblue" d="M169.363,-174.362C165.556,-151.363 158.788,-88.202 192,-56 222.185,-26.7329 347.144,-16.0213 406.896,-12.5193"/>
<polygon fill="midnightblue" stroke="midnightblue" points="407.127,-16.012 416.918,-11.9641 406.74,-9.02267 407.127,-16.012"/>
</g>
<!-- Node10&#45;&gt;Node4 -->
<g id="edge12" class="edge"><title>Node10&#45;&gt;Node4</title>
<path fill="none" stroke="midnightblue" d="M220.633,-174.467C295.218,-161.644 433.716,-137.834 492.487,-127.73"/>
<polygon fill="midnightblue" stroke="midnightblue" points="493.237,-131.153 502.499,-126.009 492.051,-124.254 493.237,-131.153"/>
</g>
<!-- Node10&#45;&gt;Node9 -->
<g id="edge19" class="edge"><title>Node10&#45;&gt;Node9</title>
<path fill="none" stroke="midnightblue" d="M172.059,-174.364C174.155,-160.175 179.914,-131.555 194,-112 203.194,-99.2362 217.101,-88.5811 229.316,-80.8482"/>
<polygon fill="midnightblue" stroke="midnightblue" points="231.438,-83.6572 238.22,-75.5179 227.842,-77.6511 231.438,-83.6572"/>
</g>
<!-- Node10&#45;&gt;Node11 -->
<g id="edge13" class="edge"><title>Node10&#45;&gt;Node11</title>
<path fill="none" stroke="midnightblue" d="M162.732,-174.281C144.327,-154.872 99.7476,-107.861 76.1827,-83.0108"/>
<polygon fill="midnightblue" stroke="midnightblue" points="78.4855,-80.3527 69.0649,-75.5048 73.4061,-85.1694 78.4855,-80.3527"/>
</g>
<!-- Node10&#45;&gt;Node12 -->
<g id="edge15" class="edge"><title>Node10&#45;&gt;Node12</title>
<path fill="none" stroke="midnightblue" d="M183.035,-174.403C196.508,-164.78 218.566,-149.024 234.715,-137.489"/>
<polygon fill="midnightblue" stroke="midnightblue" points="236.884,-140.241 242.987,-131.581 232.815,-134.545 236.884,-140.241"/>
</g>
<!-- Node11&#45;&gt;Node3 -->
<g id="edge14" class="edge"><title>Node11&#45;&gt;Node3</title>
<path fill="none" stroke="midnightblue" d="M120.895,-56.4435C201.776,-44.8891 343.081,-24.7027 406.532,-15.6382"/>
<polygon fill="midnightblue" stroke="midnightblue" points="407.332,-19.0597 416.736,-14.1805 406.342,-12.13 407.332,-19.0597"/>
</g>
<!-- Node12&#45;&gt;Node7 -->
<g id="edge16" class="edge"><title>Node12&#45;&gt;Node7</title>
<path fill="none" stroke="midnightblue" d="M307.315,-113.605C385.674,-102.528 531.603,-81.8991 599.924,-72.2412"/>
<polygon fill="midnightblue" stroke="midnightblue" points="600.789,-75.6538 610.2,-70.7884 599.809,-68.7227 600.789,-75.6538"/>
</g>
<!-- Node12&#45;&gt;Node9 -->
<g id="edge18" class="edge"><title>Node12&#45;&gt;Node9</title>
<path fill="none" stroke="midnightblue" d="M255,-112.083C255,-105.006 255,-94.8611 255,-85.9865"/>
<polygon fill="midnightblue" stroke="midnightblue" points="258.5,-85.751 255,-75.7511 251.5,-85.7511 258.5,-85.751"/>
</g>
<!-- Node12&#45;&gt;Node11 -->
<g id="edge17" class="edge"><title>Node12&#45;&gt;Node11</title>
<path fill="none" stroke="midnightblue" d="M224.26,-112.444C191.056,-103.201 138.009,-88.4356 101.443,-78.2572"/>
<polygon fill="midnightblue" stroke="midnightblue" points="102.168,-74.8262 91.5961,-75.5164 100.291,-81.5699 102.168,-74.8262"/>
</g>
<!-- Node13&#45;&gt;Node3 -->
<g id="edge24" class="edge"><title>Node13&#45;&gt;Node3</title>
<path fill="none" stroke="midnightblue" d="M416.223,-174.234C419.947,-147.548 431.203,-66.8773 436.364,-29.8931"/>
<polygon fill="midnightblue" stroke="midnightblue" points="439.892,-29.932 437.808,-19.5442 432.959,-28.9645 439.892,-29.932"/>
</g>
<!-- Node13&#45;&gt;Node4 -->
<g id="edge25" class="edge"><title>Node13&#45;&gt;Node4</title>
<path fill="none" stroke="midnightblue" d="M430.044,-174.403C447.275,-164.557 475.74,-148.291 496.034,-136.695"/>
<polygon fill="midnightblue" stroke="midnightblue" points="498.038,-139.581 504.984,-131.581 494.565,-133.503 498.038,-139.581"/>
</g>
<!-- Node13&#45;&gt;Node8 -->
<g id="edge23" class="edge"><title>Node13&#45;&gt;Node8</title>
<path fill="none" stroke="midnightblue" d="M410.988,-174.403C406.913,-165.671 400.482,-151.889 395.304,-140.794"/>
<polygon fill="midnightblue" stroke="midnightblue" points="398.405,-139.162 391.004,-131.581 392.062,-142.123 398.405,-139.162"/>
</g>
<!-- Node14&#45;&gt;Node7 -->
<g id="edge27" class="edge"><title>Node14&#45;&gt;Node7</title>
<path fill="none" stroke="midnightblue" d="M724.661,-236.777C714.821,-211.142 692.57,-155.782 668,-112 662.545,-102.279 655.567,-92.0016 649.613,-83.7265"/>
<polygon fill="midnightblue" stroke="midnightblue" points="652.42,-81.6354 643.675,-75.6539 646.781,-85.7832 652.42,-81.6354"/>
</g>
<!-- Node15 -->
<g id="node15" class="node"><title>Node15</title>
<polygon fill="white" stroke="#bfbfbf" points="758,-174.5 758,-193.5 806,-193.5 806,-174.5 758,-174.5"/>
<text text-anchor="middle" x="782" y="-181.5" font-family="Helvetica,sans-Serif" font-size="10.00">qft++.h</text>
</g>
<!-- Node14&#45;&gt;Node15 -->
<g id="edge28" class="edge"><title>Node14&#45;&gt;Node15</title>
<path fill="none" stroke="midnightblue" d="M741.283,-236.679C749.391,-226.388 760.346,-212.484 768.851,-201.69"/>
<polygon fill="midnightblue" stroke="midnightblue" points="771.605,-203.849 775.044,-193.828 766.106,-199.517 771.605,-203.849"/>
</g>
<!-- Node16 -->
<g id="node16" class="node"><title>Node16</title>
<g id="a_node16"><a xlink:href="../../dd/db0/ParticleStateDefinitions_8hpp.html" target="_top" xlink:title="Physics/HelicityAmplitude\l/ParticleStateDefinitions.hpp">
<polygon fill="white" stroke="red" points="484.5,-169 484.5,-199 625.5,-199 625.5,-169 484.5,-169"/>
<text text-anchor="start" x="492.5" y="-187" font-family="Helvetica,sans-Serif" font-size="10.00">Physics/HelicityAmplitude</text>
<text text-anchor="middle" x="555" y="-176" font-family="Helvetica,sans-Serif" font-size="10.00">/ParticleStateDefinitions.hpp</text>
</a>
</g>
</g>
<!-- Node14&#45;&gt;Node16 -->
<g id="edge29" class="edge"><title>Node14&#45;&gt;Node16</title>
<path fill="none" stroke="midnightblue" d="M692.458,-236.841C665.956,-226.846 630.258,-213.383 601.883,-202.682"/>
<polygon fill="midnightblue" stroke="midnightblue" points="602.771,-199.276 592.179,-199.022 600.301,-205.826 602.771,-199.276"/>
</g>
<!-- Node16&#45;&gt;Node4 -->
<g id="edge30" class="edge"><title>Node16&#45;&gt;Node4</title>
<path fill="none" stroke="midnightblue" d="M546.705,-168.781C541.777,-160.332 535.486,-149.548 530.249,-140.569"/>
<polygon fill="midnightblue" stroke="midnightblue" points="533.155,-138.605 525.093,-131.731 527.108,-142.132 533.155,-138.605"/>
</g>
</g>
</svg>
