<?xml version="1.0" encoding="UTF-8" standalone="no"?>
<!DOCTYPE svg PUBLIC "-//W3C//DTD SVG 1.1//EN"
 "http://www.w3.org/Graphics/SVG/1.1/DTD/svg11.dtd">
<!-- Generated by graphviz version 2.36.0 (20140111.2315)
 -->
<!-- Title: /home/travis/build/ComPWA/ComPWA/Physics/HelicityFormalism/AmpWignerD.cpp Pages: 1 -->
<!--zoomable 366 -->
<svg id="main" version="1.1" xmlns="http://www.w3.org/2000/svg" xmlns:xlink="http://www.w3.org/1999/xlink" xml:space="preserve" onload="init(evt)">
<style type="text/css"><![CDATA[
.edge:hover path { stroke: red; }
.edge:hover polygon { stroke: red; fill: red; }
]]></style>
<script type="text/javascript"><![CDATA[
var edges = document.getElementsByTagName('g');
if (edges && edges.length) {
  for (var i=0;i<edges.length;i++) {
    if (edges[i].id.substr(0,4)=='edge') {
      edges[i].setAttribute('class','edge');
    }
  }
}
]]></script>
        <defs>
                <circle id="rim" cx="0" cy="0" r="7"/>
                <circle id="rim2" cx="0" cy="0" r="3.5"/>
                <g id="zoomPlus">
                        <use xlink:href="#rim" fill="#404040">
                                <set attributeName="fill" to="#808080" begin="zoomplus.mouseover" end="zoomplus.mouseout"/>
                        </use>
                        <path d="M-4,0h8M0,-4v8" fill="none" stroke="white" stroke-width="1.5" pointer-events="none"/>
                </g>
                <g id="zoomMin">
                        <use xlink:href="#rim" fill="#404040">
                                <set attributeName="fill" to="#808080" begin="zoomminus.mouseover" end="zoomminus.mouseout"/>
                        </use>
                        <path d="M-4,0h8" fill="none" stroke="white" stroke-width="1.5" pointer-events="none"/>
                </g>
                <g id="dirArrow">
                        <path fill="none" stroke="white" stroke-width="1.5" d="M0,-3.0v7 M-2.5,-0.5L0,-3.0L2.5,-0.5"/>
                </g>
               <g id="resetDef">
                       <use xlink:href="#rim2" fill="#404040">
                               <set attributeName="fill" to="#808080" begin="reset.mouseover" end="reset.mouseout"/>
                       </use>
               </g>
        </defs>

<script type="text/javascript">
var viewWidth = 984;
var viewHeight = 366;
var sectionId = 'dynsection-0';
</script>
<script xlink:href="../../svgpan.js"/>
<svg id="graph" class="graph">
<g id="viewport">
<title>/home/travis/build/ComPWA/ComPWA/Physics/HelicityFormalism/AmpWignerD.cpp</title>
<polygon fill="white" stroke="none" points="-4,4 -4,-362 980,-362 980,4 -4,4"/>
<!-- Node1 -->
<g id="node1" class="node"><title>Node1</title>
<polygon fill="#bfbfbf" stroke="black" points="62.5,-316.5 62.5,-357.5 241.5,-357.5 241.5,-316.5 62.5,-316.5"/>
<text text-anchor="start" x="70.5" y="-345.5" font-family="Helvetica,sans-Serif" font-size="10.00">/home/travis/build</text>
<text text-anchor="start" x="70.5" y="-334.5" font-family="Helvetica,sans-Serif" font-size="10.00">/ComPWA/ComPWA/Physics</text>
<text text-anchor="middle" x="152" y="-323.5" font-family="Helvetica,sans-Serif" font-size="10.00">/HelicityFormalism/AmpWignerD.cpp</text>
</g>
<!-- Node2 -->
<g id="node2" class="node"><title>Node2</title>
<polygon fill="white" stroke="#bfbfbf" points="0,-0.5 0,-19.5 44,-19.5 44,-0.5 0,-0.5"/>
<text text-anchor="middle" x="22" y="-7.5" font-family="Helvetica,sans-Serif" font-size="10.00">cmath</text>
</g>
<!-- Node1&#45;&gt;Node2 -->
<g id="edge1" class="edge"><title>Node1&#45;&gt;Node2</title>
<path fill="none" stroke="midnightblue" d="M114.399,-316.462C76.0047,-293.503 22,-251.518 22,-197 22,-197 22,-197 22,-133 22,-96.4139 22,-53.6562 22,-29.7123"/>
<polygon fill="midnightblue" stroke="midnightblue" points="25.5001,-29.5788 22,-19.5789 18.5001,-29.5789 25.5001,-29.5788"/>
</g>
<!-- Node3 -->
<g id="node3" class="node"><title>Node3</title>
<g id="a_node3"><a xlink:href="../../d9/de6/AmpWignerD_8hpp.html" target="_top" xlink:title="Contains AmpWignerD class which provides WignerD functions. ">
<polygon fill="white" stroke="black" points="579,-249 579,-279 713,-279 713,-249 579,-249"/>
<text text-anchor="start" x="587" y="-267" font-family="Helvetica,sans-Serif" font-size="10.00">Physics/HelicityFormalism</text>
<text text-anchor="middle" x="646" y="-256" font-family="Helvetica,sans-Serif" font-size="10.00">/AmpWignerD.hpp</text>
</a>
</g>
</g>
<!-- Node1&#45;&gt;Node3 -->
<g id="edge2" class="edge"><title>Node1&#45;&gt;Node3</title>
<path fill="none" stroke="midnightblue" d="M241.746,-323.101C335.224,-309.666 480.143,-288.838 568.707,-276.109"/>
<polygon fill="midnightblue" stroke="midnightblue" points="569.289,-279.561 578.689,-274.674 568.293,-272.633 569.289,-279.561"/>
</g>
<!-- Node18 -->
<g id="node18" class="node"><title>Node18</title>
<g id="a_node18"><a xlink:href="../../d9/d6e/WignerD_8h.html" target="_top" xlink:title="Some utility functions. ">
<polygon fill="white" stroke="black" points="88,-62.5 88,-81.5 216,-81.5 216,-62.5 88,-62.5"/>
<text text-anchor="middle" x="152" y="-69.5" font-family="Helvetica,sans-Serif" font-size="10.00">Physics/qft++/WignerD.h</text>
</a>
</g>
</g>
<!-- Node1&#45;&gt;Node18 -->
<g id="edge37" class="edge"><title>Node1&#45;&gt;Node18</title>
<path fill="none" stroke="midnightblue" d="M152,-316.232C152,-267.232 152,-140.634 152,-92.2187"/>
<polygon fill="midnightblue" stroke="midnightblue" points="155.5,-91.9248 152,-81.9248 148.5,-91.9249 155.5,-91.9248"/>
</g>
<!-- Node4 -->
<g id="node4" class="node"><title>Node4</title>
<polygon fill="white" stroke="#bfbfbf" points="616,-0.5 616,-19.5 660,-19.5 660,-0.5 616,-0.5"/>
<text text-anchor="middle" x="638" y="-7.5" font-family="Helvetica,sans-Serif" font-size="10.00">vector</text>
</g>
<!-- Node3&#45;&gt;Node4 -->
<g id="edge3" class="edge"><title>Node3&#45;&gt;Node4</title>
<path fill="none" stroke="midnightblue" d="M713.028,-258.421C777.966,-252.423 869.801,-239.273 892,-212 935.768,-158.228 936.545,-109.131 892,-56 864.053,-22.6665 732.259,-14.0099 670.317,-11.7732"/>
<polygon fill="midnightblue" stroke="midnightblue" points="670.41,-8.2745 660.301,-11.446 670.182,-15.2708 670.41,-8.2745"/>
</g>
<!-- Node5 -->
<g id="node5" class="node"><title>Node5</title>
<polygon fill="white" stroke="#bfbfbf" points="924,-0.5 924,-19.5 976,-19.5 976,-0.5 924,-0.5"/>
<text text-anchor="middle" x="950" y="-7.5" font-family="Helvetica,sans-Serif" font-size="10.00">memory</text>
</g>
<!-- Node3&#45;&gt;Node5 -->
<g id="edge4" class="edge"><title>Node3&#45;&gt;Node5</title>
<path fill="none" stroke="midnightblue" d="M713.007,-258.95C783.61,-253.238 888.355,-240.179 916,-212 964.952,-162.103 958.608,-69.5596 953.153,-29.8723"/>
<polygon fill="midnightblue" stroke="midnightblue" points="956.579,-29.1179 951.618,-19.7564 949.658,-30.1684 956.579,-29.1179"/>
</g>
<!-- Node6 -->
<g id="node6" class="node"><title>Node6</title>
<polygon fill="white" stroke="#bfbfbf" points="782.5,-57 782.5,-87 883.5,-87 883.5,-57 782.5,-57"/>
<text text-anchor="start" x="790.5" y="-75" font-family="Helvetica,sans-Serif" font-size="10.00">boost/property_tree</text>
<text text-anchor="middle" x="833" y="-64" font-family="Helvetica,sans-Serif" font-size="10.00">/ptree.hpp</text>
</g>
<!-- Node3&#45;&gt;Node6 -->
<g id="edge5" class="edge"><title>Node3&#45;&gt;Node6</title>
<path fill="none" stroke="midnightblue" d="M667.856,-248.84C711.262,-220.545 805.031,-158.484 815,-144 824.422,-130.31 828.915,-112.095 831.056,-97.5414"/>
<polygon fill="midnightblue" stroke="midnightblue" points="834.573,-97.6054 832.278,-87.2622 827.622,-96.7793 834.573,-97.6054"/>
</g>
<!-- Node7 -->
<g id="node7" class="node"><title>Node7</title>
<polygon fill="white" stroke="#bfbfbf" points="782.5,-181 782.5,-211 883.5,-211 883.5,-181 782.5,-181"/>
<text text-anchor="start" x="790.5" y="-199" font-family="Helvetica,sans-Serif" font-size="10.00">boost/property_tree</text>
<text text-anchor="middle" x="833" y="-188" font-family="Helvetica,sans-Serif" font-size="10.00">/exceptions.hpp</text>
</g>
<!-- Node3&#45;&gt;Node7 -->
<g id="edge6" class="edge"><title>Node3&#45;&gt;Node7</title>
<path fill="none" stroke="midnightblue" d="M686.116,-248.841C714.683,-238.759 753.249,-225.147 783.695,-214.402"/>
<polygon fill="midnightblue" stroke="midnightblue" points="785.006,-217.651 793.272,-211.022 782.677,-211.05 785.006,-217.651"/>
</g>
<!-- Node8 -->
<g id="node8" class="node"><title>Node8</title>
<g id="a_node8"><a xlink:href="../../df/d9f/ParameterList_8hpp.html" target="_top" xlink:title="This class provides a list of fit parameters which can have different types. ">
<polygon fill="white" stroke="red" points="408,-62.5 408,-81.5 528,-81.5 528,-62.5 408,-62.5"/>
<text text-anchor="middle" x="468" y="-69.5" font-family="Helvetica,sans-Serif" font-size="10.00">Core/ParameterList.hpp</text>
</a>
</g>
</g>
<!-- Node3&#45;&gt;Node8 -->
<g id="edge7" class="edge"><title>Node3&#45;&gt;Node8</title>
<path fill="none" stroke="midnightblue" d="M578.965,-253.85C530.239,-245.664 470.261,-231.871 455,-212 427.651,-176.391 446.691,-119.531 459.303,-90.8224"/>
<polygon fill="midnightblue" stroke="midnightblue" points="462.543,-92.1565 463.562,-81.6107 456.189,-89.2193 462.543,-92.1565"/>
</g>
<!-- Node12 -->
<g id="node12" class="node"><title>Node12</title>
<g id="a_node12"><a xlink:href="../../dc/d66/Functions_8hpp.html" target="_top" xlink:title="This file contains Functions implementing the Strategy interface so they can be used inside a node of...">
<polygon fill="white" stroke="red" points="489,-124.5 489,-143.5 591,-143.5 591,-124.5 489,-124.5"/>
<text text-anchor="middle" x="540" y="-131.5" font-family="Helvetica,sans-Serif" font-size="10.00">Core/Functions.hpp</text>
</a>
</g>
</g>
<!-- Node3&#45;&gt;Node12 -->
<g id="edge13" class="edge"><title>Node3&#45;&gt;Node12</title>
<path fill="none" stroke="midnightblue" d="M637.385,-248.841C626.722,-231.779 607.566,-202.59 588,-180 578.861,-169.449 567.51,-158.717 558.14,-150.381"/>
<polygon fill="midnightblue" stroke="midnightblue" points="560.359,-147.672 550.522,-143.737 555.758,-152.948 560.359,-147.672"/>
</g>
<!-- Node14 -->
<g id="node14" class="node"><title>Node14</title>
<g id="a_node14"><a xlink:href="../../d8/dd4/DataPoint_8hpp.html" target="_top" xlink:title="dataPoint stores kinematic information of a dalitz plot ">
<polygon fill="white" stroke="red" points="546.5,-62.5 546.5,-81.5 649.5,-81.5 649.5,-62.5 546.5,-62.5"/>
<text text-anchor="middle" x="598" y="-69.5" font-family="Helvetica,sans-Serif" font-size="10.00">Core/DataPoint.hpp</text>
</a>
</g>
</g>
<!-- Node3&#45;&gt;Node14 -->
<g id="edge20" class="edge"><title>Node3&#45;&gt;Node14</title>
<path fill="none" stroke="midnightblue" d="M642.392,-248.719C633.82,-214.786 612.234,-129.342 602.677,-91.5139"/>
<polygon fill="midnightblue" stroke="midnightblue" points="606.066,-90.6369 600.223,-81.7988 599.279,-92.3515 606.066,-90.6369"/>
</g>
<!-- Node15 -->
<g id="node15" class="node"><title>Node15</title>
<g id="a_node15"><a xlink:href="../../da/db2/FunctionTree_8hpp.html" target="_top" xlink:title="This class can be used to store a function in a tree&#45;like structure. ">
<polygon fill="white" stroke="red" points="464,-186.5 464,-205.5 580,-205.5 580,-186.5 464,-186.5"/>
<text text-anchor="middle" x="522" y="-193.5" font-family="Helvetica,sans-Serif" font-size="10.00">Core/FunctionTree.hpp</text>
</a>
</g>
</g>
<!-- Node3&#45;&gt;Node15 -->
<g id="edge21" class="edge"><title>Node3&#45;&gt;Node15</title>
<path fill="none" stroke="midnightblue" d="M619.399,-248.841C598.047,-237.476 568.271,-221.628 547.277,-210.454"/>
<polygon fill="midnightblue" stroke="midnightblue" points="548.783,-207.291 538.311,-205.682 545.494,-213.47 548.783,-207.291"/>
</g>
<!-- Node16 -->
<g id="node16" class="node"><title>Node16</title>
<g id="a_node16"><a xlink:href="../../d9/dfb/Spin_8hpp.html" target="_top" xlink:title="Core/Spin.hpp">
<polygon fill="white" stroke="red" points="272.5,-62.5 272.5,-81.5 351.5,-81.5 351.5,-62.5 272.5,-62.5"/>
<text text-anchor="middle" x="312" y="-69.5" font-family="Helvetica,sans-Serif" font-size="10.00">Core/Spin.hpp</text>
</a>
</g>
</g>
<!-- Node3&#45;&gt;Node16 -->
<g id="edge27" class="edge"><title>Node3&#45;&gt;Node16</title>
<path fill="none" stroke="midnightblue" d="M578.824,-256.55C536.357,-250.116 481.64,-237.33 439,-212 386,-180.516 342.166,-119.985 322.755,-90.2891"/>
<polygon fill="midnightblue" stroke="midnightblue" points="325.667,-88.3459 317.331,-81.8071 319.77,-92.1174 325.667,-88.3459"/>
</g>
<!-- Node17 -->
<g id="node17" class="node"><title>Node17</title>
<g id="a_node17"><a xlink:href="../../dc/ded/Properties_8hpp.html" target="_top" xlink:title="Core/Properties.hpp">
<polygon fill="white" stroke="red" points="702,-124.5 702,-143.5 806,-143.5 806,-124.5 702,-124.5"/>
<text text-anchor="middle" x="754" y="-131.5" font-family="Helvetica,sans-Serif" font-size="10.00">Core/Properties.hpp</text>
</a>
</g>
</g>
<!-- Node3&#45;&gt;Node17 -->
<g id="edge32" class="edge"><title>Node3&#45;&gt;Node17</title>
<path fill="none" stroke="midnightblue" d="M657.971,-248.813C678.113,-224.94 718.673,-176.869 740.064,-151.517"/>
<polygon fill="midnightblue" stroke="midnightblue" points="742.992,-153.474 746.766,-143.574 737.642,-148.96 742.992,-153.474"/>
</g>
<!-- Node8&#45;&gt;Node4 -->
<g id="edge11" class="edge"><title>Node8&#45;&gt;Node4</title>
<path fill="none" stroke="midnightblue" d="M492.357,-62.4035C522.31,-51.8319 573.226,-33.8614 606.228,-22.2136"/>
<polygon fill="midnightblue" stroke="midnightblue" points="607.587,-25.4458 615.852,-18.817 605.257,-18.8448 607.587,-25.4458"/>
</g>
<!-- Node8&#45;&gt;Node5 -->
<g id="edge10" class="edge"><title>Node8&#45;&gt;Node5</title>
<path fill="none" stroke="midnightblue" d="M503.675,-62.4933C514.349,-60.1518 526.11,-57.7719 537,-56 675.136,-33.5241 841.14,-19.2671 913.406,-13.6824"/>
<polygon fill="midnightblue" stroke="midnightblue" points="914.073,-17.1417 923.778,-12.8909 913.54,-10.162 914.073,-17.1417"/>
</g>
<!-- Node9 -->
<g id="node9" class="node"><title>Node9</title>
<polygon fill="white" stroke="#bfbfbf" points="285,-0.5 285,-19.5 339,-19.5 339,-0.5 285,-0.5"/>
<text text-anchor="middle" x="312" y="-7.5" font-family="Helvetica,sans-Serif" font-size="10.00">iostream</text>
</g>
<!-- Node8&#45;&gt;Node9 -->
<g id="edge8" class="edge"><title>Node8&#45;&gt;Node9</title>
<path fill="none" stroke="midnightblue" d="M445.649,-62.4035C419.005,-52.1559 374.286,-34.9561 343.986,-23.3021"/>
<polygon fill="midnightblue" stroke="midnightblue" points="344.899,-19.9037 334.31,-19.5806 342.387,-26.4372 344.899,-19.9037"/>
</g>
<!-- Node10 -->
<g id="node10" class="node"><title>Node10</title>
<polygon fill="white" stroke="#bfbfbf" points="224.5,-0.5 224.5,-19.5 265.5,-19.5 265.5,-0.5 224.5,-0.5"/>
<text text-anchor="middle" x="245" y="-7.5" font-family="Helvetica,sans-Serif" font-size="10.00">string</text>
</g>
<!-- Node8&#45;&gt;Node10 -->
<g id="edge9" class="edge"><title>Node8&#45;&gt;Node10</title>
<path fill="none" stroke="midnightblue" d="M434.983,-62.4754C396.679,-52.5292 331.66,-35.4697 276,-20 275.791,-19.9418 275.581,-19.8834 275.37,-19.8247"/>
<polygon fill="midnightblue" stroke="midnightblue" points="276.234,-16.4317 265.658,-17.069 274.323,-23.1658 276.234,-16.4317"/>
</g>
<!-- Node11 -->
<g id="node11" class="node"><title>Node11</title>
<polygon fill="white" stroke="#bfbfbf" points="362.5,-0.5 362.5,-19.5 397.5,-19.5 397.5,-0.5 362.5,-0.5"/>
<text text-anchor="middle" x="380" y="-7.5" font-family="Helvetica,sans-Serif" font-size="10.00">map</text>
</g>
<!-- Node8&#45;&gt;Node11 -->
<g id="edge12" class="edge"><title>Node8&#45;&gt;Node11</title>
<path fill="none" stroke="midnightblue" d="M455.392,-62.4035C441.277,-52.7797 418.169,-37.0242 401.251,-25.4891"/>
<polygon fill="midnightblue" stroke="midnightblue" points="402.819,-22.3222 392.585,-19.5806 398.875,-28.1058 402.819,-22.3222"/>
</g>
<!-- Node12&#45;&gt;Node4 -->
<g id="edge14" class="edge"><title>Node12&#45;&gt;Node4</title>
<path fill="none" stroke="midnightblue" d="M591.279,-126.883C615.765,-121.095 642.95,-109.847 658,-88 670.314,-70.1251 659.972,-45.1783 650.15,-28.5787"/>
<polygon fill="midnightblue" stroke="midnightblue" points="652.932,-26.4327 644.602,-19.8862 647.031,-30.1987 652.932,-26.4327"/>
</g>
<!-- Node12&#45;&gt;Node8 -->
<g id="edge16" class="edge"><title>Node12&#45;&gt;Node8</title>
<path fill="none" stroke="midnightblue" d="M529.684,-124.403C518.349,-114.958 499.927,-99.6056 486.161,-88.1342"/>
<polygon fill="midnightblue" stroke="midnightblue" points="488.22,-85.2937 478.297,-81.5806 483.738,-90.6713 488.22,-85.2937"/>
</g>
<!-- Node13 -->
<g id="node13" class="node"><title>Node13</title>
<polygon fill="white" stroke="#bfbfbf" points="62.5,-0.5 62.5,-19.5 115.5,-19.5 115.5,-0.5 62.5,-0.5"/>
<text text-anchor="middle" x="89" y="-7.5" font-family="Helvetica,sans-Serif" font-size="10.00">complex</text>
</g>
<!-- Node12&#45;&gt;Node13 -->
<g id="edge15" class="edge"><title>Node12&#45;&gt;Node13</title>
<path fill="none" stroke="midnightblue" d="M488.64,-131.794C374.191,-128.575 106.116,-117.892 79,-88 64.539,-72.0586 72.0061,-46.0502 79.6739,-28.7331"/>
<polygon fill="midnightblue" stroke="midnightblue" points="82.8475,-30.2098 84.0476,-19.6831 76.5449,-27.1639 82.8475,-30.2098"/>
</g>
<!-- Node12&#45;&gt;Node14 -->
<g id="edge17" class="edge"><title>Node12&#45;&gt;Node14</title>
<path fill="none" stroke="midnightblue" d="M548.31,-124.403C557.268,-115.136 571.723,-100.183 582.739,-88.7876"/>
<polygon fill="midnightblue" stroke="midnightblue" points="585.272,-91.2031 589.705,-81.5806 580.239,-86.3379 585.272,-91.2031"/>
</g>
<!-- Node14&#45;&gt;Node4 -->
<g id="edge18" class="edge"><title>Node14&#45;&gt;Node4</title>
<path fill="none" stroke="midnightblue" d="M603.731,-62.4035C609.672,-53.4925 619.117,-39.3247 626.588,-28.1177"/>
<polygon fill="midnightblue" stroke="midnightblue" points="629.645,-29.8426 632.28,-19.5806 623.82,-25.9596 629.645,-29.8426"/>
</g>
<!-- Node14&#45;&gt;Node11 -->
<g id="edge19" class="edge"><title>Node14&#45;&gt;Node11</title>
<path fill="none" stroke="midnightblue" d="M566.766,-62.4035C523.986,-50.6291 447.858,-29.6764 407.264,-18.5037"/>
<polygon fill="midnightblue" stroke="midnightblue" points="408.086,-15.1 397.516,-15.8209 406.228,-21.8491 408.086,-15.1"/>
</g>
<!-- Node15&#45;&gt;Node4 -->
<g id="edge22" class="edge"><title>Node15&#45;&gt;Node4</title>
<path fill="none" stroke="midnightblue" d="M546.59,-186.429C582.65,-172.346 648.467,-140.508 675,-88 681.414,-75.3063 679.797,-69.3886 675,-56 671.059,-45.0027 663.143,-34.7688 655.64,-26.8479"/>
<polygon fill="midnightblue" stroke="midnightblue" points="658.019,-24.2784 648.438,-19.7555 653.108,-29.2659 658.019,-24.2784"/>
</g>
<!-- Node15&#45;&gt;Node5 -->
<g id="edge23" class="edge"><title>Node15&#45;&gt;Node5</title>
<path fill="none" stroke="midnightblue" d="M580.066,-192.634C640.804,-188.412 737.857,-176.667 815,-144 853.966,-127.499 861.828,-117.67 892,-88 910.754,-69.5584 928.34,-44.7407 939.125,-28.3252"/>
<polygon fill="midnightblue" stroke="midnightblue" points="942.179,-30.0464 944.646,-19.7427 936.292,-26.2592 942.179,-30.0464"/>
</g>
<!-- Node15&#45;&gt;Node10 -->
<g id="edge24" class="edge"><title>Node15&#45;&gt;Node10</title>
<path fill="none" stroke="midnightblue" d="M463.801,-186.662C404.474,-175.038 314.114,-148.153 263,-88 249.277,-71.8498 245.559,-47.1772 244.77,-30.1335"/>
<polygon fill="midnightblue" stroke="midnightblue" points="248.263,-29.6944 244.604,-19.7514 241.264,-29.806 248.263,-29.6944"/>
</g>
<!-- Node15&#45;&gt;Node11 -->
<g id="edge25" class="edge"><title>Node15&#45;&gt;Node11</title>
<path fill="none" stroke="midnightblue" d="M507.279,-186.482C481.209,-170.603 427.034,-133.891 399,-88 388.036,-70.0518 383.391,-46.1082 381.428,-29.7139"/>
<polygon fill="midnightblue" stroke="midnightblue" points="384.909,-29.3486 380.453,-19.7366 377.943,-30.0297 384.909,-29.3486"/>
</g>
<!-- Node15&#45;&gt;Node12 -->
<g id="edge26" class="edge"><title>Node15&#45;&gt;Node12</title>
<path fill="none" stroke="midnightblue" d="M524.579,-186.403C527.145,-177.849 531.165,-164.45 534.457,-153.476"/>
<polygon fill="midnightblue" stroke="midnightblue" points="537.905,-154.165 537.426,-143.581 531.2,-152.153 537.905,-154.165"/>
</g>
<!-- Node16&#45;&gt;Node4 -->
<g id="edge30" class="edge"><title>Node16&#45;&gt;Node4</title>
<path fill="none" stroke="midnightblue" d="M351.648,-63.7028C416.959,-51.6824 545.897,-27.9514 605.893,-16.9093"/>
<polygon fill="midnightblue" stroke="midnightblue" points="606.724,-20.3153 615.925,-15.0629 605.456,-13.4309 606.724,-20.3153"/>
</g>
<!-- Node16&#45;&gt;Node9 -->
<g id="edge31" class="edge"><title>Node16&#45;&gt;Node9</title>
<path fill="none" stroke="midnightblue" d="M312,-62.4035C312,-53.9381 312,-40.7283 312,-29.8199"/>
<polygon fill="midnightblue" stroke="midnightblue" points="315.5,-29.5806 312,-19.5806 308.5,-29.5806 315.5,-29.5806"/>
</g>
<!-- Node16&#45;&gt;Node10 -->
<g id="edge28" class="edge"><title>Node16&#45;&gt;Node10</title>
<path fill="none" stroke="midnightblue" d="M302.401,-62.4035C291.952,-53.047 275.032,-37.8948 262.264,-26.4599"/>
<polygon fill="midnightblue" stroke="midnightblue" points="264.366,-23.6445 254.582,-19.5806 259.696,-28.8592 264.366,-23.6445"/>
</g>
<!-- Node16&#45;&gt;Node11 -->
<g id="edge29" class="edge"><title>Node16&#45;&gt;Node11</title>
<path fill="none" stroke="midnightblue" d="M321.743,-62.4035C332.347,-53.047 349.519,-37.8948 362.479,-26.4599"/>
<polygon fill="midnightblue" stroke="midnightblue" points="365.093,-28.8213 370.275,-19.5806 360.461,-23.5724 365.093,-28.8213"/>
</g>
<!-- Node17&#45;&gt;Node4 -->
<g id="edge33" class="edge"><title>Node17&#45;&gt;Node4</title>
<path fill="none" stroke="midnightblue" d="M753.491,-124.312C752.152,-108.827 747.322,-76.1929 730,-56 714.353,-37.7589 689.582,-26.2353 669.683,-19.4208"/>
<polygon fill="midnightblue" stroke="midnightblue" points="670.673,-16.0629 660.083,-16.3604 668.547,-22.7322 670.673,-16.0629"/>
</g>
<!-- Node17&#45;&gt;Node6 -->
<g id="edge34" class="edge"><title>Node17&#45;&gt;Node6</title>
<path fill="none" stroke="midnightblue" d="M765.319,-124.403C775.918,-116.353 792.167,-104.013 806.086,-93.4406"/>
<polygon fill="midnightblue" stroke="midnightblue" points="808.535,-95.9764 814.381,-87.1408 804.301,-90.4019 808.535,-95.9764"/>
</g>
<!-- Node17&#45;&gt;Node8 -->
<g id="edge35" class="edge"><title>Node17&#45;&gt;Node8</title>
<path fill="none" stroke="midnightblue" d="M712.375,-124.491C668.673,-115.529 597.97,-100.949 537,-88 530.474,-86.614 523.604,-85.1394 516.832,-83.6765"/>
<polygon fill="midnightblue" stroke="midnightblue" points="517.545,-80.25 507.031,-81.5533 516.063,-87.0913 517.545,-80.25"/>
</g>
<!-- Node17&#45;&gt;Node16 -->
<g id="edge36" class="edge"><title>Node17&#45;&gt;Node16</title>
<path fill="none" stroke="midnightblue" d="M701.866,-127.13C632.573,-119.158 506.37,-104.053 399,-88 386.921,-86.194 373.931,-84.0589 361.769,-81.9746"/>
<polygon fill="midnightblue" stroke="midnightblue" points="362.237,-78.5035 351.786,-80.2441 361.041,-85.4007 362.237,-78.5035"/>
</g>
<!-- Node18&#45;&gt;Node2 -->
<g id="edge38" class="edge"><title>Node18&#45;&gt;Node2</title>
<path fill="none" stroke="midnightblue" d="M133.374,-62.4035C111.557,-52.3341 75.1964,-35.5522 49.9828,-23.9151"/>
<polygon fill="midnightblue" stroke="midnightblue" points="51.1376,-20.5934 40.5913,-19.5806 48.2042,-26.9491 51.1376,-20.5934"/>
</g>
<!-- Node18&#45;&gt;Node4 -->
<g id="edge43" class="edge"><title>Node18&#45;&gt;Node4</title>
<path fill="none" stroke="midnightblue" d="M213.917,-62.4667C229.901,-60.3094 247.086,-58.03 263,-56 389.617,-39.8487 540.504,-22.2408 605.539,-14.7304"/>
<polygon fill="midnightblue" stroke="midnightblue" points="606.051,-18.1948 615.584,-13.572 605.248,-11.2409 606.051,-18.1948"/>
</g>
<!-- Node18&#45;&gt;Node9 -->
<g id="edge39" class="edge"><title>Node18&#45;&gt;Node9</title>
<path fill="none" stroke="midnightblue" d="M174.924,-62.4035C202.37,-52.1113 248.516,-34.8064 279.599,-23.1504"/>
<polygon fill="midnightblue" stroke="midnightblue" points="280.984,-26.369 289.118,-19.5806 278.526,-19.8147 280.984,-26.369"/>
</g>
<!-- Node18&#45;&gt;Node10 -->
<g id="edge41" class="edge"><title>Node18&#45;&gt;Node10</title>
<path fill="none" stroke="midnightblue" d="M165.325,-62.4035C180.38,-52.6905 205.116,-36.7319 223.037,-25.1697"/>
<polygon fill="midnightblue" stroke="midnightblue" points="225.195,-27.9429 231.7,-19.5806 221.4,-22.0609 225.195,-27.9429"/>
</g>
<!-- Node18&#45;&gt;Node11 -->
<g id="edge44" class="edge"><title>Node18&#45;&gt;Node11</title>
<path fill="none" stroke="midnightblue" d="M185.695,-62.4464C224.786,-52.4732 291.152,-35.3888 348,-20 349.462,-19.6042 350.961,-19.1949 352.474,-18.7791"/>
<polygon fill="midnightblue" stroke="midnightblue" points="353.716,-22.0663 362.412,-16.0135 351.84,-15.3226 353.716,-22.0663"/>
</g>
<!-- Node18&#45;&gt;Node13 -->
<g id="edge40" class="edge"><title>Node18&#45;&gt;Node13</title>
<path fill="none" stroke="midnightblue" d="M142.974,-62.4035C133.243,-53.1361 117.542,-38.1828 105.577,-26.7876"/>
<polygon fill="midnightblue" stroke="midnightblue" points="107.665,-23.9427 98.0096,-19.5806 102.837,-29.0117 107.665,-23.9427"/>
</g>
<!-- Node19 -->
<g id="node19" class="node"><title>Node19</title>
<polygon fill="white" stroke="#bfbfbf" points="134,-0.5 134,-19.5 180,-19.5 180,-0.5 134,-0.5"/>
<text text-anchor="middle" x="157" y="-7.5" font-family="Helvetica,sans-Serif" font-size="10.00">cctype</text>
</g>
<!-- Node18&#45;&gt;Node19 -->
<g id="edge42" class="edge"><title>Node18&#45;&gt;Node19</title>
<path fill="none" stroke="midnightblue" d="M152.716,-62.4035C153.422,-53.9381 154.523,-40.7283 155.432,-29.8199"/>
<polygon fill="midnightblue" stroke="midnightblue" points="158.942,-29.8367 156.285,-19.5806 151.966,-29.2554 158.942,-29.8367"/>
</g>
</g>
</svg>
        <g id="navigator" transform="translate(0 0)" fill="#404254">
                <rect fill="#f2f5e9" fill-opacity="0.5" stroke="#606060" stroke-width=".5" x="0" y="0" width="60" height="60"/>
                <use id="zoomplus" xlink:href="#zoomPlus" x="17" y="9" onmousedown="handleZoom(evt,'in')"/>
                <use id="zoomminus" xlink:href="#zoomMin" x="42" y="9" onmousedown="handleZoom(evt,'out')"/>
                <use id="reset" xlink:href="#resetDef" x="30" y="36" onmousedown="handleReset()"/>
                <g id="arrowUp" xlink:href="#dirArrow" transform="translate(30 24)" onmousedown="handlePan(0,-1)">
                  <use xlink:href="#rim" fill="#404040">
                        <set attributeName="fill" to="#808080" begin="arrowUp.mouseover" end="arrowUp.mouseout"/>
                  </use>
                  <path fill="none" stroke="white" stroke-width="1.5" d="M0,-3.0v7 M-2.5,-0.5L0,-3.0L2.5,-0.5"/>
                </g>
                <g id="arrowRight" xlink:href="#dirArrow" transform="rotate(90) translate(36 -43)" onmousedown="handlePan(1,0)">
                  <use xlink:href="#rim" fill="#404040">
                        <set attributeName="fill" to="#808080" begin="arrowRight.mouseover" end="arrowRight.mouseout"/>
                  </use>
                  <path fill="none" stroke="white" stroke-width="1.5" d="M0,-3.0v7 M-2.5,-0.5L0,-3.0L2.5,-0.5"/>
                </g>
                <g id="arrowDown" xlink:href="#dirArrow" transform="rotate(180) translate(-30 -48)" onmousedown="handlePan(0,1)">
                  <use xlink:href="#rim" fill="#404040">
                        <set attributeName="fill" to="#808080" begin="arrowDown.mouseover" end="arrowDown.mouseout"/>
                  </use>
                  <path fill="none" stroke="white" stroke-width="1.5" d="M0,-3.0v7 M-2.5,-0.5L0,-3.0L2.5,-0.5"/>
                </g>
                <g id="arrowLeft" xlink:href="#dirArrow" transform="rotate(270) translate(-36 17)" onmousedown="handlePan(-1,0)">
                  <use xlink:href="#rim" fill="#404040">
                        <set attributeName="fill" to="#808080" begin="arrowLeft.mouseover" end="arrowLeft.mouseout"/>
                  </use>
                  <path fill="none" stroke="white" stroke-width="1.5" d="M0,-3.0v7 M-2.5,-0.5L0,-3.0L2.5,-0.5"/>
                </g>
        </g>
        <svg viewBox="0 0 15 15" width="100%" height="30px" preserveAspectRatio="xMaxYMin meet">
         <g id="arrow_out" transform="scale(0.3 0.3)">
          <a xlink:href="AmpWignerD_8cpp__incl_org.svg" target="_base">
           <rect id="button" ry="5" rx="5" y="6" x="6" height="38" width="38"
                fill="#f2f5e9" fill-opacity="0.5" stroke="#606060" stroke-width="1.0"/>
           <path id="arrow"
             d="M 11.500037,31.436501 C 11.940474,20.09759 22.043105,11.32322 32.158766,21.979434 L 37.068811,17.246167 C 37.068811,17.246167 37.088388,32 37.088388,32 L 22.160133,31.978069 C 22.160133,31.978069 26.997745,27.140456 26.997745,27.140456 C 18.528582,18.264221 13.291696,25.230495 11.500037,31.436501 z"
             style="fill:#404040;"/>
          </a>
         </g>
        </svg>
</svg>
