<?xml version="1.0" encoding="UTF-8" standalone="no"?>
<!DOCTYPE svg PUBLIC "-//W3C//DTD SVG 1.1//EN"
 "http://www.w3.org/Graphics/SVG/1.1/DTD/svg11.dtd">
<!-- Generated by graphviz version 2.36.0 (20140111.2315)
 -->
<!-- Title: /home/travis/build/ComPWA/ComPWA/Optimizer/Optimizer.hpp Pages: 1 -->
<svg width="3594pt" height="296pt"
 viewBox="0.00 0.00 3593.83 296.00" xmlns="http://www.w3.org/2000/svg" xmlns:xlink="http://www.w3.org/1999/xlink">
<g id="graph0" class="graph" transform="scale(1 1) rotate(0) translate(4 292)">
<title>/home/travis/build/ComPWA/ComPWA/Optimizer/Optimizer.hpp</title>
<polygon fill="white" stroke="none" points="-4,4 -4,-292 3589.83,-292 3589.83,4 -4,4"/>
<!-- Node1 -->
<g id="node1" class="node"><title>Node1</title>
<polygon fill="#bfbfbf" stroke="black" points="1475.83,-246.5 1475.83,-287.5 1631.83,-287.5 1631.83,-246.5 1475.83,-246.5"/>
<text text-anchor="start" x="1483.83" y="-275.5" font-family="Helvetica,sans-Serif" font-size="10.00">/home/travis/build</text>
<text text-anchor="start" x="1483.83" y="-264.5" font-family="Helvetica,sans-Serif" font-size="10.00">/ComPWA/ComPWA/Optimizer</text>
<text text-anchor="middle" x="1553.83" y="-253.5" font-family="Helvetica,sans-Serif" font-size="10.00">/Optimizer.hpp</text>
</g>
<!-- Node2 -->
<g id="node2" class="node"><title>Node2</title>
<g id="a_node2"><a xlink:href="../../d6/d0a/PythonFit_8cpp.html" target="_top" xlink:title="/home/travis/build\l/ComPWA/ComPWA/Examples\l/PythonDalitzFit/PythonFit.cpp">
<polygon fill="white" stroke="black" points="659.832,-0.5 659.832,-41.5 817.832,-41.5 817.832,-0.5 659.832,-0.5"/>
<text text-anchor="start" x="667.832" y="-29.5" font-family="Helvetica,sans-Serif" font-size="10.00">/home/travis/build</text>
<text text-anchor="start" x="667.832" y="-18.5" font-family="Helvetica,sans-Serif" font-size="10.00">/ComPWA/ComPWA/Examples</text>
<text text-anchor="middle" x="738.832" y="-7.5" font-family="Helvetica,sans-Serif" font-size="10.00">/PythonDalitzFit/PythonFit.cpp</text>
</a>
</g>
</g>
<!-- Node1&#45;&gt;Node2 -->
<g id="edge1" class="edge"><title>Node1&#45;&gt;Node2</title>
<path fill="none" stroke="midnightblue" d="M1465.23,-265.542C1150.93,-262.959 103.297,-245.812 11.832,-132 -3.20224,-113.292 -4.47384,-95.6102 11.832,-78 55.1307,-31.2378 480.158,-23.3926 659.57,-22.1737"/>
<polygon fill="midnightblue" stroke="midnightblue" points="1465.62,-269.045 1475.65,-265.624 1465.68,-262.045 1465.62,-269.045"/>
</g>
<!-- Node3 -->
<g id="node3" class="node"><title>Node3</title>
<g id="a_node3"><a xlink:href="../../db/dad/GenevaIF_8hpp.html" target="_top" xlink:title="This class provides a wrapper around the Geneva library. ">
<polygon fill="white" stroke="black" points="374.832,-168.5 374.832,-209.5 530.832,-209.5 530.832,-168.5 374.832,-168.5"/>
<text text-anchor="start" x="382.832" y="-197.5" font-family="Helvetica,sans-Serif" font-size="10.00">/home/travis/build</text>
<text text-anchor="start" x="382.832" y="-186.5" font-family="Helvetica,sans-Serif" font-size="10.00">/ComPWA/ComPWA/Optimizer</text>
<text text-anchor="middle" x="452.832" y="-175.5" font-family="Helvetica,sans-Serif" font-size="10.00">/Geneva/GenevaIF.hpp</text>
</a>
</g>
</g>
<!-- Node1&#45;&gt;Node3 -->
<g id="edge2" class="edge"><title>Node1&#45;&gt;Node3</title>
<path fill="none" stroke="midnightblue" d="M1465.48,-259.901C1255.71,-245.421 730.33,-209.155 531.099,-195.403"/>
<polygon fill="midnightblue" stroke="midnightblue" points="1465.32,-263.398 1475.53,-260.595 1465.8,-256.415 1465.32,-263.398"/>
</g>
<!-- Node8 -->
<g id="node8" class="node"><title>Node8</title>
<g id="a_node8"><a xlink:href="../../da/d15/MinuitIF_8hpp.html" target="_top" xlink:title="This class provides a wrapper around the Minuit2 library. ">
<polygon fill="white" stroke="black" points="1475.83,-168.5 1475.83,-209.5 1631.83,-209.5 1631.83,-168.5 1475.83,-168.5"/>
<text text-anchor="start" x="1483.83" y="-197.5" font-family="Helvetica,sans-Serif" font-size="10.00">/home/travis/build</text>
<text text-anchor="start" x="1483.83" y="-186.5" font-family="Helvetica,sans-Serif" font-size="10.00">/ComPWA/ComPWA/Optimizer</text>
<text text-anchor="middle" x="1553.83" y="-175.5" font-family="Helvetica,sans-Serif" font-size="10.00">/Minuit2/MinuitIF.hpp</text>
</a>
</g>
</g>
<!-- Node1&#45;&gt;Node8 -->
<g id="edge7" class="edge"><title>Node1&#45;&gt;Node8</title>
<path fill="none" stroke="midnightblue" d="M1553.83,-236.297C1553.83,-227.301 1553.83,-217.653 1553.83,-209.506"/>
<polygon fill="midnightblue" stroke="midnightblue" points="1550.33,-236.428 1553.83,-246.428 1557.33,-236.428 1550.33,-236.428"/>
</g>
<!-- Node21 -->
<g id="node21" class="node"><title>Node21</title>
<g id="a_node21"><a xlink:href="../../db/d94/RunManager_8cpp.html" target="_top" xlink:title="/home/travis/build\l/ComPWA/ComPWA/Tools\l/RunManager.cpp">
<polygon fill="white" stroke="black" points="2910.83,-84.5 2910.83,-125.5 3048.83,-125.5 3048.83,-84.5 2910.83,-84.5"/>
<text text-anchor="start" x="2918.83" y="-113.5" font-family="Helvetica,sans-Serif" font-size="10.00">/home/travis/build</text>
<text text-anchor="start" x="2918.83" y="-102.5" font-family="Helvetica,sans-Serif" font-size="10.00">/ComPWA/ComPWA/Tools</text>
<text text-anchor="middle" x="2979.83" y="-91.5" font-family="Helvetica,sans-Serif" font-size="10.00">/RunManager.cpp</text>
</a>
</g>
</g>
<!-- Node1&#45;&gt;Node21 -->
<g id="edge24" class="edge"><title>Node1&#45;&gt;Node21</title>
<path fill="none" stroke="midnightblue" d="M1642.24,-263.875C1859.04,-257.228 2433.47,-230.906 2900.83,-132 2908.88,-130.296 2917.27,-128.062 2925.43,-125.618"/>
<polygon fill="midnightblue" stroke="midnightblue" points="1642.08,-260.379 1632.19,-264.177 1642.29,-267.375 1642.08,-260.379"/>
</g>
<!-- Node22 -->
<g id="node22" class="node"><title>Node22</title>
<g id="a_node22"><a xlink:href="../../db/d41/RunManager_8hpp.html" target="_top" xlink:title="This class provides a RunManager for simple fits. ">
<polygon fill="white" stroke="black" points="2910.83,-168.5 2910.83,-209.5 3048.83,-209.5 3048.83,-168.5 2910.83,-168.5"/>
<text text-anchor="start" x="2918.83" y="-197.5" font-family="Helvetica,sans-Serif" font-size="10.00">/home/travis/build</text>
<text text-anchor="start" x="2918.83" y="-186.5" font-family="Helvetica,sans-Serif" font-size="10.00">/ComPWA/ComPWA/Tools</text>
<text text-anchor="middle" x="2979.83" y="-175.5" font-family="Helvetica,sans-Serif" font-size="10.00">/RunManager.hpp</text>
</a>
</g>
</g>
<!-- Node1&#45;&gt;Node22 -->
<g id="edge25" class="edge"><title>Node1&#45;&gt;Node22</title>
<path fill="none" stroke="midnightblue" d="M1642.26,-261.287C1904.65,-247.303 2675.16,-206.238 2910.66,-193.687"/>
<polygon fill="midnightblue" stroke="midnightblue" points="1641.82,-257.805 1632.02,-261.833 1642.19,-264.796 1641.82,-257.805"/>
</g>
<!-- Node4 -->
<g id="node4" class="node"><title>Node4</title>
<g id="a_node4"><a xlink:href="../../dc/d3f/NeuralNetworkApp_8cpp.html" target="_top" xlink:title="/home/travis/build\l/ComPWA/ComPWA/executables\l/NeuralNetworkApp.cpp">
<polygon fill="white" stroke="black" points="369.332,-84.5 369.332,-125.5 536.332,-125.5 536.332,-84.5 369.332,-84.5"/>
<text text-anchor="start" x="377.332" y="-113.5" font-family="Helvetica,sans-Serif" font-size="10.00">/home/travis/build</text>
<text text-anchor="start" x="377.332" y="-102.5" font-family="Helvetica,sans-Serif" font-size="10.00">/ComPWA/ComPWA/executables</text>
<text text-anchor="middle" x="452.832" y="-91.5" font-family="Helvetica,sans-Serif" font-size="10.00">/NeuralNetworkApp.cpp</text>
</a>
</g>
</g>
<!-- Node3&#45;&gt;Node4 -->
<g id="edge3" class="edge"><title>Node3&#45;&gt;Node4</title>
<path fill="none" stroke="midnightblue" d="M452.832,-157.881C452.832,-147.133 452.832,-135.309 452.832,-125.667"/>
<polygon fill="midnightblue" stroke="midnightblue" points="449.332,-158.15 452.832,-168.15 456.332,-158.15 449.332,-158.15"/>
</g>
<!-- Node5 -->
<g id="node5" class="node"><title>Node5</title>
<g id="a_node5"><a xlink:href="../../db/d24/GenevaIF_8cpp.html" target="_top" xlink:title="/home/travis/build\l/ComPWA/ComPWA/Optimizer\l/Geneva/GenevaIF.cpp">
<polygon fill="white" stroke="black" points="20.832,-84.5 20.832,-125.5 176.832,-125.5 176.832,-84.5 20.832,-84.5"/>
<text text-anchor="start" x="28.832" y="-113.5" font-family="Helvetica,sans-Serif" font-size="10.00">/home/travis/build</text>
<text text-anchor="start" x="28.832" y="-102.5" font-family="Helvetica,sans-Serif" font-size="10.00">/ComPWA/ComPWA/Optimizer</text>
<text text-anchor="middle" x="98.832" y="-91.5" font-family="Helvetica,sans-Serif" font-size="10.00">/Geneva/GenevaIF.cpp</text>
</a>
</g>
</g>
<!-- Node3&#45;&gt;Node5 -->
<g id="edge4" class="edge"><title>Node3&#45;&gt;Node5</title>
<path fill="none" stroke="midnightblue" d="M364.832,-171.468C312.569,-161.172 245.132,-147.052 185.832,-132 178.039,-130.022 169.899,-127.8 161.858,-125.51"/>
<polygon fill="midnightblue" stroke="midnightblue" points="364.256,-174.921 374.742,-173.41 365.602,-168.052 364.256,-174.921"/>
</g>
<!-- Node6 -->
<g id="node6" class="node"><title>Node6</title>
<g id="a_node6"><a xlink:href="../../d4/d5e/GenevaTestApp_8cpp.html" target="_top" xlink:title="/home/travis/build\l/ComPWA/ComPWA/Optimizer\l/test/GenevaTestApp.cpp">
<polygon fill="white" stroke="black" points="194.832,-84.5 194.832,-125.5 350.832,-125.5 350.832,-84.5 194.832,-84.5"/>
<text text-anchor="start" x="202.832" y="-113.5" font-family="Helvetica,sans-Serif" font-size="10.00">/home/travis/build</text>
<text text-anchor="start" x="202.832" y="-102.5" font-family="Helvetica,sans-Serif" font-size="10.00">/ComPWA/ComPWA/Optimizer</text>
<text text-anchor="middle" x="272.832" y="-91.5" font-family="Helvetica,sans-Serif" font-size="10.00">/test/GenevaTestApp.cpp</text>
</a>
</g>
</g>
<!-- Node3&#45;&gt;Node6 -->
<g id="edge5" class="edge"><title>Node3&#45;&gt;Node6</title>
<path fill="none" stroke="midnightblue" d="M400.466,-164.144C373.609,-151.909 341.298,-137.19 315.906,-125.623"/>
<polygon fill="midnightblue" stroke="midnightblue" points="399.166,-167.398 409.718,-168.359 402.068,-161.028 399.166,-167.398"/>
</g>
<!-- Node7 -->
<g id="node7" class="node"><title>Node7</title>
<g id="a_node7"><a xlink:href="../../d4/db7/OptimizerTestApp_8cpp.html" target="_top" xlink:title="Test&#45;Application of the Optimizer&#45;IF. ">
<polygon fill="white" stroke="black" points="554.832,-84.5 554.832,-125.5 710.832,-125.5 710.832,-84.5 554.832,-84.5"/>
<text text-anchor="start" x="562.832" y="-113.5" font-family="Helvetica,sans-Serif" font-size="10.00">/home/travis/build</text>
<text text-anchor="start" x="562.832" y="-102.5" font-family="Helvetica,sans-Serif" font-size="10.00">/ComPWA/ComPWA/Optimizer</text>
<text text-anchor="middle" x="632.832" y="-91.5" font-family="Helvetica,sans-Serif" font-size="10.00">/test/OptimizerTestApp.cpp</text>
</a>
</g>
</g>
<!-- Node3&#45;&gt;Node7 -->
<g id="edge6" class="edge"><title>Node3&#45;&gt;Node7</title>
<path fill="none" stroke="midnightblue" d="M505.198,-164.144C532.056,-151.909 564.366,-137.19 589.758,-125.623"/>
<polygon fill="midnightblue" stroke="midnightblue" points="503.596,-161.028 495.947,-168.359 506.498,-167.398 503.596,-161.028"/>
</g>
<!-- Node8&#45;&gt;Node2 -->
<g id="edge10" class="edge"><title>Node8&#45;&gt;Node2</title>
<path fill="none" stroke="midnightblue" d="M1465.48,-187.814C1269.07,-186.552 809.381,-178.598 757.832,-132 732.817,-109.387 733.029,-66.6963 735.732,-41.6677"/>
<polygon fill="midnightblue" stroke="midnightblue" points="1465.46,-191.313 1475.48,-187.874 1465.5,-184.314 1465.46,-191.313"/>
</g>
<!-- Node8&#45;&gt;Node4 -->
<g id="edge20" class="edge"><title>Node8&#45;&gt;Node4</title>
<path fill="none" stroke="midnightblue" d="M1465.6,-185.556C1253.88,-179.296 721.598,-161.097 545.832,-132 535.991,-130.371 525.7,-128.095 515.701,-125.56"/>
<polygon fill="midnightblue" stroke="midnightblue" points="1465.64,-189.059 1475.74,-185.854 1465.85,-182.062 1465.64,-189.059"/>
</g>
<!-- Node8&#45;&gt;Node7 -->
<g id="edge23" class="edge"><title>Node8&#45;&gt;Node7</title>
<path fill="none" stroke="midnightblue" d="M1465.53,-188.035C1313.23,-186.762 991.779,-178.218 724.832,-132 715.183,-130.329 705.095,-128.048 695.282,-125.526"/>
<polygon fill="midnightblue" stroke="midnightblue" points="1465.73,-191.536 1475.76,-188.111 1465.79,-184.536 1465.73,-191.536"/>
</g>
<!-- Node9 -->
<g id="node9" class="node"><title>Node9</title>
<g id="a_node9"><a xlink:href="../../db/d7b/DalitzFitD03K_8cpp.html" target="_top" xlink:title="/home/travis/build\l/ComPWA/ComPWA/Examples\l/DalitzAnalysis_D0KsKK\l/DalitzFitD03K.cpp">
<polygon fill="white" stroke="black" points="2558.83,-79 2558.83,-131 2716.83,-131 2716.83,-79 2558.83,-79"/>
<text text-anchor="start" x="2566.83" y="-119" font-family="Helvetica,sans-Serif" font-size="10.00">/home/travis/build</text>
<text text-anchor="start" x="2566.83" y="-108" font-family="Helvetica,sans-Serif" font-size="10.00">/ComPWA/ComPWA/Examples</text>
<text text-anchor="start" x="2566.83" y="-97" font-family="Helvetica,sans-Serif" font-size="10.00">/DalitzAnalysis_D0KsKK</text>
<text text-anchor="middle" x="2637.83" y="-86" font-family="Helvetica,sans-Serif" font-size="10.00">/DalitzFitD03K.cpp</text>
</a>
</g>
</g>
<!-- Node8&#45;&gt;Node9 -->
<g id="edge8" class="edge"><title>Node8&#45;&gt;Node9</title>
<path fill="none" stroke="midnightblue" d="M1642.18,-185.649C1852.21,-179.638 2376.69,-162.028 2549.83,-132 2552.66,-131.51 2555.52,-130.96 2558.4,-130.362"/>
<polygon fill="midnightblue" stroke="midnightblue" points="1642.02,-182.152 1632.12,-185.935 1642.22,-189.149 1642.02,-182.152"/>
</g>
<!-- Node10 -->
<g id="node10" class="node"><title>Node10</title>
<g id="a_node10"><a xlink:href="../../da/d2a/DalitzFitApp_8cpp.html" target="_top" xlink:title="Dalitz plot analysis of the decay D0&#45;&gt;K_S0 K_ K&#45;Fit application for D0&#45;&gt;K_S0 K_ K&#45; analysis...">
<polygon fill="white" stroke="black" points="766.832,-84.5 766.832,-125.5 924.832,-125.5 924.832,-84.5 766.832,-84.5"/>
<text text-anchor="start" x="774.832" y="-113.5" font-family="Helvetica,sans-Serif" font-size="10.00">/home/travis/build</text>
<text text-anchor="start" x="774.832" y="-102.5" font-family="Helvetica,sans-Serif" font-size="10.00">/ComPWA/ComPWA/Examples</text>
<text text-anchor="middle" x="845.832" y="-91.5" font-family="Helvetica,sans-Serif" font-size="10.00">/DalitzFit/DalitzFitApp.cpp</text>
</a>
</g>
</g>
<!-- Node8&#45;&gt;Node10 -->
<g id="edge9" class="edge"><title>Node8&#45;&gt;Node10</title>
<path fill="none" stroke="midnightblue" d="M1465.51,-185.493C1344.57,-180.82 1121.05,-167.75 933.832,-132 924.913,-130.297 915.603,-128.063 906.518,-125.62"/>
<polygon fill="midnightblue" stroke="midnightblue" points="1465.7,-189.002 1475.82,-185.88 1465.96,-182.007 1465.7,-189.002"/>
</g>
<!-- Node11 -->
<g id="node11" class="node"><title>Node11</title>
<g id="a_node11"><a xlink:href="../../db/deb/PythonFit_8hpp.html" target="_top" xlink:title="This class provides a Manager for simple fits. ">
<polygon fill="white" stroke="red" points="2734.83,-84.5 2734.83,-125.5 2892.83,-125.5 2892.83,-84.5 2734.83,-84.5"/>
<text text-anchor="start" x="2742.83" y="-113.5" font-family="Helvetica,sans-Serif" font-size="10.00">/home/travis/build</text>
<text text-anchor="start" x="2742.83" y="-102.5" font-family="Helvetica,sans-Serif" font-size="10.00">/ComPWA/ComPWA/Examples</text>
<text text-anchor="middle" x="2813.83" y="-91.5" font-family="Helvetica,sans-Serif" font-size="10.00">/PythonDalitzFit/PythonFit.hpp</text>
</a>
</g>
</g>
<!-- Node8&#45;&gt;Node11 -->
<g id="edge11" class="edge"><title>Node8&#45;&gt;Node11</title>
<path fill="none" stroke="midnightblue" d="M1642.28,-186.475C1877.86,-181.982 2516.78,-166.859 2724.83,-132 2734.36,-130.404 2744.31,-128.128 2753.96,-125.578"/>
<polygon fill="midnightblue" stroke="midnightblue" points="1641.97,-182.981 1632.04,-186.669 1642.1,-189.979 1641.97,-182.981"/>
</g>
<!-- Node12 -->
<g id="node12" class="node"><title>Node12</title>
<g id="a_node12"><a xlink:href="../../d6/d9a/SliceFitApp_8cpp.html" target="_top" xlink:title="/home/travis/build\l/ComPWA/ComPWA/Examples\l/SliceFit/SliceFitApp.cpp">
<polygon fill="white" stroke="black" points="942.832,-84.5 942.832,-125.5 1100.83,-125.5 1100.83,-84.5 942.832,-84.5"/>
<text text-anchor="start" x="950.832" y="-113.5" font-family="Helvetica,sans-Serif" font-size="10.00">/home/travis/build</text>
<text text-anchor="start" x="950.832" y="-102.5" font-family="Helvetica,sans-Serif" font-size="10.00">/ComPWA/ComPWA/Examples</text>
<text text-anchor="middle" x="1021.83" y="-91.5" font-family="Helvetica,sans-Serif" font-size="10.00">/SliceFit/SliceFitApp.cpp</text>
</a>
</g>
</g>
<!-- Node8&#45;&gt;Node12 -->
<g id="edge13" class="edge"><title>Node8&#45;&gt;Node12</title>
<path fill="none" stroke="midnightblue" d="M1465.63,-181.112C1375.53,-173.088 1231.93,-157.562 1109.83,-132 1101.26,-130.205 1092.3,-127.981 1083.53,-125.595"/>
<polygon fill="midnightblue" stroke="midnightblue" points="1465.53,-184.617 1475.8,-182.006 1466.15,-177.644 1465.53,-184.617"/>
</g>
<!-- Node13 -->
<g id="node13" class="node"><title>Node13</title>
<g id="a_node13"><a xlink:href="../../d3/dbc/SliceFitRANDApp_8cpp.html" target="_top" xlink:title="/home/travis/build\l/ComPWA/ComPWA/Examples\l/SliceFit/SliceFitRANDApp.cpp">
<polygon fill="white" stroke="black" points="1118.83,-84.5 1118.83,-125.5 1276.83,-125.5 1276.83,-84.5 1118.83,-84.5"/>
<text text-anchor="start" x="1126.83" y="-113.5" font-family="Helvetica,sans-Serif" font-size="10.00">/home/travis/build</text>
<text text-anchor="start" x="1126.83" y="-102.5" font-family="Helvetica,sans-Serif" font-size="10.00">/ComPWA/ComPWA/Examples</text>
<text text-anchor="middle" x="1197.83" y="-91.5" font-family="Helvetica,sans-Serif" font-size="10.00">/SliceFit/SliceFitRANDApp.cpp</text>
</a>
</g>
</g>
<!-- Node8&#45;&gt;Node13 -->
<g id="edge14" class="edge"><title>Node8&#45;&gt;Node13</title>
<path fill="none" stroke="midnightblue" d="M1465.8,-171.479C1413.31,-161.162 1345.48,-147.018 1285.83,-132 1278.11,-130.055 1270.04,-127.878 1262.07,-125.634"/>
<polygon fill="midnightblue" stroke="midnightblue" points="1465.27,-174.941 1475.76,-173.425 1466.61,-168.071 1465.27,-174.941"/>
</g>
<!-- Node14 -->
<g id="node14" class="node"><title>Node14</title>
<g id="a_node14"><a xlink:href="../../d9/de4/SliceFitUBApp_8cpp.html" target="_top" xlink:title="/home/travis/build\l/ComPWA/ComPWA/Examples\l/SliceFit/SliceFitUBApp.cpp">
<polygon fill="white" stroke="black" points="1294.83,-84.5 1294.83,-125.5 1452.83,-125.5 1452.83,-84.5 1294.83,-84.5"/>
<text text-anchor="start" x="1302.83" y="-113.5" font-family="Helvetica,sans-Serif" font-size="10.00">/home/travis/build</text>
<text text-anchor="start" x="1302.83" y="-102.5" font-family="Helvetica,sans-Serif" font-size="10.00">/ComPWA/ComPWA/Examples</text>
<text text-anchor="middle" x="1373.83" y="-91.5" font-family="Helvetica,sans-Serif" font-size="10.00">/SliceFit/SliceFitUBApp.cpp</text>
</a>
</g>
</g>
<!-- Node8&#45;&gt;Node14 -->
<g id="edge15" class="edge"><title>Node8&#45;&gt;Node14</title>
<path fill="none" stroke="midnightblue" d="M1501.47,-164.144C1474.61,-151.909 1442.3,-137.19 1416.91,-125.623"/>
<polygon fill="midnightblue" stroke="midnightblue" points="1500.17,-167.398 1510.72,-168.359 1503.07,-161.028 1500.17,-167.398"/>
</g>
<!-- Node15 -->
<g id="node15" class="node"><title>Node15</title>
<g id="a_node15"><a xlink:href="../../de/dbe/BlackScholesApp_8cpp.html" target="_top" xlink:title="Test&#45;Application for Black&#45;Scholes stock model. ">
<polygon fill="white" stroke="black" points="1470.33,-84.5 1470.33,-125.5 1637.33,-125.5 1637.33,-84.5 1470.33,-84.5"/>
<text text-anchor="start" x="1478.33" y="-113.5" font-family="Helvetica,sans-Serif" font-size="10.00">/home/travis/build</text>
<text text-anchor="start" x="1478.33" y="-102.5" font-family="Helvetica,sans-Serif" font-size="10.00">/ComPWA/ComPWA/executables</text>
<text text-anchor="middle" x="1553.83" y="-91.5" font-family="Helvetica,sans-Serif" font-size="10.00">/BlackScholesApp.cpp</text>
</a>
</g>
</g>
<!-- Node8&#45;&gt;Node15 -->
<g id="edge16" class="edge"><title>Node8&#45;&gt;Node15</title>
<path fill="none" stroke="midnightblue" d="M1553.83,-157.881C1553.83,-147.133 1553.83,-135.309 1553.83,-125.667"/>
<polygon fill="midnightblue" stroke="midnightblue" points="1550.33,-158.15 1553.83,-168.15 1557.33,-158.15 1550.33,-158.15"/>
</g>
<!-- Node16 -->
<g id="node16" class="node"><title>Node16</title>
<g id="a_node16"><a xlink:href="../../d9/dab/CompareTreeAmpApp_8cpp.html" target="_top" xlink:title="/home/travis/build\l/ComPWA/ComPWA/executables\l/CompareTreeAmpApp.cpp">
<polygon fill="white" stroke="black" points="1655.33,-84.5 1655.33,-125.5 1822.33,-125.5 1822.33,-84.5 1655.33,-84.5"/>
<text text-anchor="start" x="1663.33" y="-113.5" font-family="Helvetica,sans-Serif" font-size="10.00">/home/travis/build</text>
<text text-anchor="start" x="1663.33" y="-102.5" font-family="Helvetica,sans-Serif" font-size="10.00">/ComPWA/ComPWA/executables</text>
<text text-anchor="middle" x="1738.83" y="-91.5" font-family="Helvetica,sans-Serif" font-size="10.00">/CompareTreeAmpApp.cpp</text>
</a>
</g>
</g>
<!-- Node8&#45;&gt;Node16 -->
<g id="edge17" class="edge"><title>Node8&#45;&gt;Node16</title>
<path fill="none" stroke="midnightblue" d="M1607.29,-164.304C1634.97,-152.038 1668.35,-137.241 1694.56,-125.623"/>
<polygon fill="midnightblue" stroke="midnightblue" points="1605.87,-161.107 1598.14,-168.359 1608.7,-167.506 1605.87,-161.107"/>
</g>
<!-- Node17 -->
<g id="node17" class="node"><title>Node17</title>
<g id="a_node17"><a xlink:href="../../d1/d13/HelicityAmplitudeFitApp_8cpp.html" target="_top" xlink:title="/home/travis/build\l/ComPWA/ComPWA/executables\l/HelicityAmplitudeFitApp.cpp">
<polygon fill="white" stroke="black" points="1840.33,-84.5 1840.33,-125.5 2007.33,-125.5 2007.33,-84.5 1840.33,-84.5"/>
<text text-anchor="start" x="1848.33" y="-113.5" font-family="Helvetica,sans-Serif" font-size="10.00">/home/travis/build</text>
<text text-anchor="start" x="1848.33" y="-102.5" font-family="Helvetica,sans-Serif" font-size="10.00">/ComPWA/ComPWA/executables</text>
<text text-anchor="middle" x="1923.83" y="-91.5" font-family="Helvetica,sans-Serif" font-size="10.00">/HelicityAmplitudeFitApp.cpp</text>
</a>
</g>
</g>
<!-- Node8&#45;&gt;Node17 -->
<g id="edge18" class="edge"><title>Node8&#45;&gt;Node17</title>
<path fill="none" stroke="midnightblue" d="M1642.07,-171.868C1696.66,-161.465 1768.07,-147.095 1830.83,-132 1839.06,-130.02 1847.67,-127.81 1856.17,-125.536"/>
<polygon fill="midnightblue" stroke="midnightblue" points="1641.25,-168.461 1632.07,-173.764 1642.55,-175.339 1641.25,-168.461"/>
</g>
<!-- Node18 -->
<g id="node18" class="node"><title>Node18</title>
<g id="a_node18"><a xlink:href="../../d6/d45/LHNormalizationTestApp_8cpp.html" target="_top" xlink:title="/home/travis/build\l/ComPWA/ComPWA/executables\l/LHNormalizationTestApp.cpp">
<polygon fill="white" stroke="black" points="2025.33,-84.5 2025.33,-125.5 2192.33,-125.5 2192.33,-84.5 2025.33,-84.5"/>
<text text-anchor="start" x="2033.33" y="-113.5" font-family="Helvetica,sans-Serif" font-size="10.00">/home/travis/build</text>
<text text-anchor="start" x="2033.33" y="-102.5" font-family="Helvetica,sans-Serif" font-size="10.00">/ComPWA/ComPWA/executables</text>
<text text-anchor="middle" x="2108.83" y="-91.5" font-family="Helvetica,sans-Serif" font-size="10.00">/LHNormalizationTestApp.cpp</text>
</a>
</g>
</g>
<!-- Node8&#45;&gt;Node18 -->
<g id="edge19" class="edge"><title>Node8&#45;&gt;Node18</title>
<path fill="none" stroke="midnightblue" d="M1642.04,-181.322C1735.48,-173.314 1887.01,-157.66 2015.83,-132 2024.96,-130.182 2034.5,-127.931 2043.84,-125.519"/>
<polygon fill="midnightblue" stroke="midnightblue" points="1641.73,-177.835 1632.06,-182.167 1642.32,-184.81 1641.73,-177.835"/>
</g>
<!-- Node19 -->
<g id="node19" class="node"><title>Node19</title>
<g id="a_node19"><a xlink:href="../../d0/d33/MinuitIF_8cpp.html" target="_top" xlink:title="/home/travis/build\l/ComPWA/ComPWA/Optimizer\l/Minuit2/MinuitIF.cpp">
<polygon fill="white" stroke="black" points="2210.83,-84.5 2210.83,-125.5 2366.83,-125.5 2366.83,-84.5 2210.83,-84.5"/>
<text text-anchor="start" x="2218.83" y="-113.5" font-family="Helvetica,sans-Serif" font-size="10.00">/home/travis/build</text>
<text text-anchor="start" x="2218.83" y="-102.5" font-family="Helvetica,sans-Serif" font-size="10.00">/ComPWA/ComPWA/Optimizer</text>
<text text-anchor="middle" x="2288.83" y="-91.5" font-family="Helvetica,sans-Serif" font-size="10.00">/Minuit2/MinuitIF.cpp</text>
</a>
</g>
</g>
<!-- Node8&#45;&gt;Node19 -->
<g id="edge21" class="edge"><title>Node8&#45;&gt;Node19</title>
<path fill="none" stroke="midnightblue" d="M1642.51,-185.952C1767.88,-181.786 2003.64,-169.272 2200.83,-132 2209.91,-130.284 2219.39,-128.011 2228.63,-125.521"/>
<polygon fill="midnightblue" stroke="midnightblue" points="1642.08,-182.464 1632.2,-186.284 1642.31,-189.46 1642.08,-182.464"/>
</g>
<!-- Node20 -->
<g id="node20" class="node"><title>Node20</title>
<g id="a_node20"><a xlink:href="../../da/d21/MinuitTestApp_8cpp.html" target="_top" xlink:title="Test&#45;Application of the Minuit2 Optimizer&#45;IF. ">
<polygon fill="white" stroke="black" points="2384.83,-84.5 2384.83,-125.5 2540.83,-125.5 2540.83,-84.5 2384.83,-84.5"/>
<text text-anchor="start" x="2392.83" y="-113.5" font-family="Helvetica,sans-Serif" font-size="10.00">/home/travis/build</text>
<text text-anchor="start" x="2392.83" y="-102.5" font-family="Helvetica,sans-Serif" font-size="10.00">/ComPWA/ComPWA/Optimizer</text>
<text text-anchor="middle" x="2462.83" y="-91.5" font-family="Helvetica,sans-Serif" font-size="10.00">/test/MinuitTestApp.cpp</text>
</a>
</g>
</g>
<!-- Node8&#45;&gt;Node20 -->
<g id="edge22" class="edge"><title>Node8&#45;&gt;Node20</title>
<path fill="none" stroke="midnightblue" d="M1642.05,-188.387C1793.43,-187.631 2111.84,-179.824 2375.83,-132 2384.98,-130.342 2394.54,-128.067 2403.82,-125.548"/>
<polygon fill="midnightblue" stroke="midnightblue" points="1641.87,-184.887 1631.89,-188.428 1641.9,-191.887 1641.87,-184.887"/>
</g>
<!-- Node11&#45;&gt;Node2 -->
<g id="edge12" class="edge"><title>Node11&#45;&gt;Node2</title>
<path fill="none" stroke="midnightblue" d="M2744.74,-81.9579C2738.06,-80.3905 2731.35,-79.0264 2724.83,-78 2347.9,-18.6368 1139.08,-20.0551 817.843,-21.534"/>
<polygon fill="midnightblue" stroke="midnightblue" points="2743.92,-85.3607 2754.47,-84.3842 2745.61,-78.5687 2743.92,-85.3607"/>
</g>
<!-- Node22&#45;&gt;Node9 -->
<g id="edge27" class="edge"><title>Node22&#45;&gt;Node9</title>
<path fill="none" stroke="midnightblue" d="M2900.95,-172.101C2850.64,-161.591 2784.15,-147.024 2725.83,-132 2722.9,-131.245 2719.92,-130.459 2716.91,-129.65"/>
<polygon fill="midnightblue" stroke="midnightblue" points="2900.29,-175.539 2910.8,-174.148 2901.72,-168.685 2900.29,-175.539"/>
</g>
<!-- Node22&#45;&gt;Node11 -->
<g id="edge28" class="edge"><title>Node22&#45;&gt;Node11</title>
<path fill="none" stroke="midnightblue" d="M2930.89,-163.823C2906.25,-151.652 2876.77,-137.089 2853.56,-125.623"/>
<polygon fill="midnightblue" stroke="midnightblue" points="2929.55,-167.068 2940.07,-168.359 2932.66,-160.792 2929.55,-167.068"/>
</g>
<!-- Node22&#45;&gt;Node21 -->
<g id="edge31" class="edge"><title>Node22&#45;&gt;Node21</title>
<path fill="none" stroke="midnightblue" d="M2979.83,-157.881C2979.83,-147.133 2979.83,-135.309 2979.83,-125.667"/>
<polygon fill="midnightblue" stroke="midnightblue" points="2976.33,-158.15 2979.83,-168.15 2983.33,-158.15 2976.33,-158.15"/>
</g>
<!-- Node23 -->
<g id="node23" class="node"><title>Node23</title>
<g id="a_node23"><a xlink:href="../../dc/d4f/RootReaderTest_8cpp.html" target="_top" xlink:title="/home/travis/build\l/ComPWA/ComPWA/DataReader\l/RootReader/test/RootReaderTest.cpp">
<polygon fill="white" stroke="black" points="3234.33,-84.5 3234.33,-125.5 3419.33,-125.5 3419.33,-84.5 3234.33,-84.5"/>
<text text-anchor="start" x="3242.33" y="-113.5" font-family="Helvetica,sans-Serif" font-size="10.00">/home/travis/build</text>
<text text-anchor="start" x="3242.33" y="-102.5" font-family="Helvetica,sans-Serif" font-size="10.00">/ComPWA/ComPWA/DataReader</text>
<text text-anchor="middle" x="3326.83" y="-91.5" font-family="Helvetica,sans-Serif" font-size="10.00">/RootReader/test/RootReaderTest.cpp</text>
</a>
</g>
</g>
<!-- Node22&#45;&gt;Node23 -->
<g id="edge26" class="edge"><title>Node22&#45;&gt;Node23</title>
<path fill="none" stroke="midnightblue" d="M3058.87,-170.457C3106.93,-159.661 3169.5,-145.374 3224.83,-132 3233.36,-129.939 3242.27,-127.737 3251.13,-125.519"/>
<polygon fill="midnightblue" stroke="midnightblue" points="3057.84,-167.102 3048.85,-172.706 3059.37,-173.933 3057.84,-167.102"/>
</g>
<!-- Node24 -->
<g id="node24" class="node"><title>Node24</title>
<g id="a_node24"><a xlink:href="../../d8/d80/AmpModel_8cpp.html" target="_top" xlink:title="/home/travis/build\l/ComPWA/ComPWA/Physics\l/HelicityFormalism/test\l/AmpModel.cpp">
<polygon fill="white" stroke="black" points="3437.33,-79 3437.33,-131 3586.33,-131 3586.33,-79 3437.33,-79"/>
<text text-anchor="start" x="3445.33" y="-119" font-family="Helvetica,sans-Serif" font-size="10.00">/home/travis/build</text>
<text text-anchor="start" x="3445.33" y="-108" font-family="Helvetica,sans-Serif" font-size="10.00">/ComPWA/ComPWA/Physics</text>
<text text-anchor="start" x="3445.33" y="-97" font-family="Helvetica,sans-Serif" font-size="10.00">/HelicityFormalism/test</text>
<text text-anchor="middle" x="3511.83" y="-86" font-family="Helvetica,sans-Serif" font-size="10.00">/AmpModel.cpp</text>
</a>
</g>
</g>
<!-- Node22&#45;&gt;Node24 -->
<g id="edge29" class="edge"><title>Node22&#45;&gt;Node24</title>
<path fill="none" stroke="midnightblue" d="M3059.3,-182.312C3149.41,-174.883 3300.38,-159.468 3427.83,-132 3430.82,-131.357 3433.85,-130.655 3436.9,-129.909"/>
<polygon fill="midnightblue" stroke="midnightblue" points="3058.84,-178.838 3049.15,-183.136 3059.41,-185.815 3058.84,-178.838"/>
</g>
<!-- Node25 -->
<g id="node25" class="node"><title>Node25</title>
<g id="a_node25"><a xlink:href="../../d7/d56/HelicityAngle_8cpp.html" target="_top" xlink:title="/home/travis/build\l/ComPWA/ComPWA/Physics\l/HelicityFormalism/test\l/HelicityAngle.cpp">
<polygon fill="white" stroke="black" points="3067.33,-79 3067.33,-131 3216.33,-131 3216.33,-79 3067.33,-79"/>
<text text-anchor="start" x="3075.33" y="-119" font-family="Helvetica,sans-Serif" font-size="10.00">/home/travis/build</text>
<text text-anchor="start" x="3075.33" y="-108" font-family="Helvetica,sans-Serif" font-size="10.00">/ComPWA/ComPWA/Physics</text>
<text text-anchor="start" x="3075.33" y="-97" font-family="Helvetica,sans-Serif" font-size="10.00">/HelicityFormalism/test</text>
<text text-anchor="middle" x="3141.83" y="-86" font-family="Helvetica,sans-Serif" font-size="10.00">/HelicityAngle.cpp</text>
</a>
</g>
</g>
<!-- Node22&#45;&gt;Node25 -->
<g id="edge30" class="edge"><title>Node22&#45;&gt;Node25</title>
<path fill="none" stroke="midnightblue" d="M3027.72,-163.76C3048.06,-153.464 3071.77,-141.464 3092.29,-131.078"/>
<polygon fill="midnightblue" stroke="midnightblue" points="3025.98,-160.72 3018.64,-168.359 3029.14,-166.966 3025.98,-160.72"/>
</g>
</g>
</svg>
