<?xml version="1.0" encoding="UTF-8" standalone="no"?>
<!DOCTYPE svg PUBLIC "-//W3C//DTD SVG 1.1//EN"
 "http://www.w3.org/Graphics/SVG/1.1/DTD/svg11.dtd">
<!-- Generated by graphviz version 2.36.0 (20140111.2315)
 -->
<!-- Title: /home/travis/build/ComPWA/ComPWA/Core/FunctionTree.hpp Pages: 1 -->
<svg width="2586pt" height="464pt"
 viewBox="0.00 0.00 2586.00 464.00" xmlns="http://www.w3.org/2000/svg" xmlns:xlink="http://www.w3.org/1999/xlink">
<g id="graph0" class="graph" transform="scale(1 1) rotate(0) translate(4 460)">
<title>/home/travis/build/ComPWA/ComPWA/Core/FunctionTree.hpp</title>
<polygon fill="white" stroke="none" points="-4,4 -4,-460 2582,-460 2582,4 -4,4"/>
<!-- Node1 -->
<g id="node1" class="node"><title>Node1</title>
<polygon fill="#bfbfbf" stroke="black" points="830.5,-414.5 830.5,-455.5 965.5,-455.5 965.5,-414.5 830.5,-414.5"/>
<text text-anchor="start" x="838.5" y="-443.5" font-family="Helvetica,sans-Serif" font-size="10.00">/home/travis/build</text>
<text text-anchor="start" x="838.5" y="-432.5" font-family="Helvetica,sans-Serif" font-size="10.00">/ComPWA/ComPWA/Core</text>
<text text-anchor="middle" x="898" y="-421.5" font-family="Helvetica,sans-Serif" font-size="10.00">/FunctionTree.hpp</text>
</g>
<!-- Node2 -->
<g id="node2" class="node"><title>Node2</title>
<g id="a_node2"><a xlink:href="../../dc/dfd/AmpIntensity_8hpp.html" target="_top" xlink:title="/home/travis/build\l/ComPWA/ComPWA/Core\l/AmpIntensity.hpp">
<polygon fill="white" stroke="red" points="257.5,-330.5 257.5,-371.5 392.5,-371.5 392.5,-330.5 257.5,-330.5"/>
<text text-anchor="start" x="265.5" y="-359.5" font-family="Helvetica,sans-Serif" font-size="10.00">/home/travis/build</text>
<text text-anchor="start" x="265.5" y="-348.5" font-family="Helvetica,sans-Serif" font-size="10.00">/ComPWA/ComPWA/Core</text>
<text text-anchor="middle" x="325" y="-337.5" font-family="Helvetica,sans-Serif" font-size="10.00">/AmpIntensity.hpp</text>
</a>
</g>
</g>
<!-- Node1&#45;&gt;Node2 -->
<g id="edge1" class="edge"><title>Node1&#45;&gt;Node2</title>
<path fill="none" stroke="midnightblue" d="M820.337,-422.886C707.351,-406.717 499.498,-376.972 392.525,-361.663"/>
<polygon fill="midnightblue" stroke="midnightblue" points="819.907,-426.36 830.302,-424.312 820.899,-419.431 819.907,-426.36"/>
</g>
<!-- Node4 -->
<g id="node4" class="node"><title>Node4</title>
<g id="a_node4"><a xlink:href="../../de/d1f/ControlParameter_8hpp.html" target="_top" xlink:title="This class provides the interface for the optimizer module to access the data. ">
<polygon fill="white" stroke="red" points="525.5,-246.5 525.5,-287.5 660.5,-287.5 660.5,-246.5 525.5,-246.5"/>
<text text-anchor="start" x="533.5" y="-275.5" font-family="Helvetica,sans-Serif" font-size="10.00">/home/travis/build</text>
<text text-anchor="start" x="533.5" y="-264.5" font-family="Helvetica,sans-Serif" font-size="10.00">/ComPWA/ComPWA/Core</text>
<text text-anchor="middle" x="593" y="-253.5" font-family="Helvetica,sans-Serif" font-size="10.00">/ControlParameter.hpp</text>
</a>
</g>
</g>
<!-- Node1&#45;&gt;Node4 -->
<g id="edge21" class="edge"><title>Node1&#45;&gt;Node4</title>
<path fill="none" stroke="midnightblue" d="M820.165,-427.531C774.735,-420.715 718.071,-406.722 675,-378 640.518,-355.006 615.028,-312.452 602.236,-287.55"/>
<polygon fill="midnightblue" stroke="midnightblue" points="819.878,-431.025 830.269,-428.957 820.857,-424.094 819.878,-431.025"/>
</g>
<!-- Node5 -->
<g id="node5" class="node"><title>Node5</title>
<g id="a_node5"><a xlink:href="../../d5/d10/Estimator_8hpp.html" target="_top" xlink:title="This class provides the interface to classes which estimate the &quot;closeness&quot; of the modeled intensity ...">
<polygon fill="white" stroke="red" points="451,-168.5 451,-209.5 607,-209.5 607,-168.5 451,-168.5"/>
<text text-anchor="start" x="459" y="-197.5" font-family="Helvetica,sans-Serif" font-size="10.00">/home/travis/build</text>
<text text-anchor="start" x="459" y="-186.5" font-family="Helvetica,sans-Serif" font-size="10.00">/ComPWA/ComPWA/Estimator</text>
<text text-anchor="middle" x="529" y="-175.5" font-family="Helvetica,sans-Serif" font-size="10.00">/Estimator.hpp</text>
</a>
</g>
</g>
<!-- Node1&#45;&gt;Node5 -->
<g id="edge24" class="edge"><title>Node1&#45;&gt;Node5</title>
<path fill="none" stroke="midnightblue" d="M820.197,-426.942C783.493,-419.859 741.586,-405.801 713,-378 668.669,-334.885 711.424,-290.993 669,-246 652.388,-228.382 629.503,-216.185 607.046,-207.791"/>
<polygon fill="midnightblue" stroke="midnightblue" points="819.936,-430.451 830.395,-428.76 821.165,-423.559 819.936,-430.451"/>
</g>
<!-- Node7 -->
<g id="node7" class="node"><title>Node7</title>
<g id="a_node7"><a xlink:href="../../d7/de4/MinLogLH_8hpp.html" target="_top" xlink:title="This class calculates a simple &#45;log(LH) of a intensity and a dataset. ">
<polygon fill="white" stroke="red" points="619,-90.5 619,-131.5 775,-131.5 775,-90.5 619,-90.5"/>
<text text-anchor="start" x="627" y="-119.5" font-family="Helvetica,sans-Serif" font-size="10.00">/home/travis/build</text>
<text text-anchor="start" x="627" y="-108.5" font-family="Helvetica,sans-Serif" font-size="10.00">/ComPWA/ComPWA/Estimator</text>
<text text-anchor="middle" x="697" y="-97.5" font-family="Helvetica,sans-Serif" font-size="10.00">/MinLogLH/MinLogLH.hpp</text>
</a>
</g>
</g>
<!-- Node1&#45;&gt;Node7 -->
<g id="edge26" class="edge"><title>Node1&#45;&gt;Node7</title>
<path fill="none" stroke="midnightblue" d="M830.289,-409.904C814.971,-401.775 800.003,-391.287 789,-378 726.932,-303.047 763.949,-258.029 727,-168 721.891,-155.552 714.838,-142.25 708.855,-131.735"/>
<polygon fill="midnightblue" stroke="midnightblue" points="828.811,-413.078 839.32,-414.421 831.942,-406.818 828.811,-413.078"/>
</g>
<!-- Node8 -->
<g id="node8" class="node"><title>Node8</title>
<g id="a_node8"><a xlink:href="../../de/d8e/MinLogLH_8cpp.html" target="_top" xlink:title="/home/travis/build\l/ComPWA/ComPWA/Estimator\l/MinLogLH/MinLogLH.cpp">
<polygon fill="white" stroke="black" points="37,-6.5 37,-47.5 193,-47.5 193,-6.5 37,-6.5"/>
<text text-anchor="start" x="45" y="-35.5" font-family="Helvetica,sans-Serif" font-size="10.00">/home/travis/build</text>
<text text-anchor="start" x="45" y="-24.5" font-family="Helvetica,sans-Serif" font-size="10.00">/ComPWA/ComPWA/Estimator</text>
<text text-anchor="middle" x="115" y="-13.5" font-family="Helvetica,sans-Serif" font-size="10.00">/MinLogLH/MinLogLH.cpp</text>
</a>
</g>
</g>
<!-- Node1&#45;&gt;Node8 -->
<g id="edge25" class="edge"><title>Node1&#45;&gt;Node8</title>
<path fill="none" stroke="midnightblue" d="M820.084,-433.297C622.772,-430.893 114.573,-420.593 52,-378 7.29729,-347.571 0,-322.076 0,-268 0,-268 0,-268 0,-188 0,-127.964 54.0471,-75.0472 88.0376,-47.7037"/>
<polygon fill="midnightblue" stroke="midnightblue" points="820.332,-436.8 830.372,-433.418 820.414,-429.8 820.332,-436.8"/>
</g>
<!-- Node9 -->
<g id="node9" class="node"><title>Node9</title>
<g id="a_node9"><a xlink:href="../../d9/dab/CompareTreeAmpApp_8cpp.html" target="_top" xlink:title="/home/travis/build\l/ComPWA/ComPWA/executables\l/CompareTreeAmpApp.cpp">
<polygon fill="white" stroke="black" points="396.5,-6.5 396.5,-47.5 563.5,-47.5 563.5,-6.5 396.5,-6.5"/>
<text text-anchor="start" x="404.5" y="-35.5" font-family="Helvetica,sans-Serif" font-size="10.00">/home/travis/build</text>
<text text-anchor="start" x="404.5" y="-24.5" font-family="Helvetica,sans-Serif" font-size="10.00">/ComPWA/ComPWA/executables</text>
<text text-anchor="middle" x="480" y="-13.5" font-family="Helvetica,sans-Serif" font-size="10.00">/CompareTreeAmpApp.cpp</text>
</a>
</g>
</g>
<!-- Node1&#45;&gt;Node9 -->
<g id="edge27" class="edge"><title>Node1&#45;&gt;Node9</title>
<path fill="none" stroke="midnightblue" d="M820.748,-416.099C797.146,-407.643 772.554,-395.438 754,-378 706.907,-333.739 729.67,-299.218 693,-246 636.106,-163.432 546.729,-83.6509 504.134,-47.7737"/>
<polygon fill="midnightblue" stroke="midnightblue" points="819.834,-419.485 830.429,-419.384 822.084,-412.856 819.834,-419.485"/>
</g>
<!-- Node10 -->
<g id="node10" class="node"><title>Node10</title>
<g id="a_node10"><a xlink:href="../../db/d7b/DalitzFitD03K_8cpp.html" target="_top" xlink:title="/home/travis/build\l/ComPWA/ComPWA/executables\l/Examples/DalitzAnalysis\l_D0KsKK/DalitzFitD03K.cpp">
<polygon fill="white" stroke="black" points="581.5,-1 581.5,-53 748.5,-53 748.5,-1 581.5,-1"/>
<text text-anchor="start" x="589.5" y="-41" font-family="Helvetica,sans-Serif" font-size="10.00">/home/travis/build</text>
<text text-anchor="start" x="589.5" y="-30" font-family="Helvetica,sans-Serif" font-size="10.00">/ComPWA/ComPWA/executables</text>
<text text-anchor="start" x="589.5" y="-19" font-family="Helvetica,sans-Serif" font-size="10.00">/Examples/DalitzAnalysis</text>
<text text-anchor="middle" x="665" y="-8" font-family="Helvetica,sans-Serif" font-size="10.00">_D0KsKK/DalitzFitD03K.cpp</text>
</a>
</g>
</g>
<!-- Node1&#45;&gt;Node10 -->
<g id="edge28" class="edge"><title>Node1&#45;&gt;Node10</title>
<path fill="none" stroke="midnightblue" d="M867.267,-407.386C858.555,-398.688 849.644,-388.536 843,-378 815.254,-333.996 803,-320.021 803,-268 803,-268 803,-268 803,-188 803,-143.633 810.531,-125.56 784,-90 772.298,-74.3159 755.464,-62.2493 738.124,-53.1147"/>
<polygon fill="midnightblue" stroke="midnightblue" points="864.851,-409.918 874.485,-414.328 869.703,-404.873 864.851,-409.918"/>
</g>
<!-- Node11 -->
<g id="node11" class="node"><title>Node11</title>
<g id="a_node11"><a xlink:href="../../da/d2a/DalitzFitApp_8cpp.html" target="_top" xlink:title="Dalitz plot analysis of the decay D0&#45;&gt;K_S0 K_ K&#45;Fit application for D0&#45;&gt;K_S0 K_ K&#45; analysis...">
<polygon fill="white" stroke="black" points="766.5,-6.5 766.5,-47.5 945.5,-47.5 945.5,-6.5 766.5,-6.5"/>
<text text-anchor="start" x="774.5" y="-35.5" font-family="Helvetica,sans-Serif" font-size="10.00">/home/travis/build</text>
<text text-anchor="start" x="774.5" y="-24.5" font-family="Helvetica,sans-Serif" font-size="10.00">/ComPWA/ComPWA/executables</text>
<text text-anchor="middle" x="856" y="-13.5" font-family="Helvetica,sans-Serif" font-size="10.00">/Examples/DalitzFit/DalitzFitApp.cpp</text>
</a>
</g>
</g>
<!-- Node1&#45;&gt;Node11 -->
<g id="edge29" class="edge"><title>Node1&#45;&gt;Node11</title>
<path fill="none" stroke="midnightblue" d="M879.011,-405.769C873.864,-397.142 868.699,-387.435 865,-378 846.735,-331.414 841,-318.039 841,-268 841,-268 841,-268 841,-188 841,-137.223 848.581,-77.7753 852.965,-47.65"/>
<polygon fill="midnightblue" stroke="midnightblue" points="876.063,-407.655 884.306,-414.311 882.012,-403.967 876.063,-407.655"/>
</g>
<!-- Node12 -->
<g id="node12" class="node"><title>Node12</title>
<g id="a_node12"><a xlink:href="../../d6/d0a/PythonFit_8cpp.html" target="_top" xlink:title="/home/travis/build\l/ComPWA/ComPWA/executables\l/Examples/PythonDalitzFit\l/PythonFit.cpp">
<polygon fill="white" stroke="black" points="211.5,-1 211.5,-53 378.5,-53 378.5,-1 211.5,-1"/>
<text text-anchor="start" x="219.5" y="-41" font-family="Helvetica,sans-Serif" font-size="10.00">/home/travis/build</text>
<text text-anchor="start" x="219.5" y="-30" font-family="Helvetica,sans-Serif" font-size="10.00">/ComPWA/ComPWA/executables</text>
<text text-anchor="start" x="219.5" y="-19" font-family="Helvetica,sans-Serif" font-size="10.00">/Examples/PythonDalitzFit</text>
<text text-anchor="middle" x="295" y="-8" font-family="Helvetica,sans-Serif" font-size="10.00">/PythonFit.cpp</text>
</a>
</g>
</g>
<!-- Node1&#45;&gt;Node12 -->
<g id="edge30" class="edge"><title>Node1&#45;&gt;Node12</title>
<path fill="none" stroke="midnightblue" d="M819.847,-430.724C671.366,-423.931 353.869,-406.52 248,-378 146.265,-350.593 38,-373.362 38,-268 38,-268 38,-268 38,-188 38,-142.471 155.706,-85.2863 231.802,-53.0741"/>
<polygon fill="midnightblue" stroke="midnightblue" points="820.093,-434.239 830.241,-431.195 820.409,-427.246 820.093,-434.239"/>
</g>
<!-- Node13 -->
<g id="node13" class="node"><title>Node13</title>
<g id="a_node13"><a xlink:href="../../d1/d13/HelicityAmplitudeFitApp_8cpp.html" target="_top" xlink:title="/home/travis/build\l/ComPWA/ComPWA/executables\l/HelicityAmplitudeFitApp.cpp">
<polygon fill="white" stroke="black" points="963.5,-6.5 963.5,-47.5 1130.5,-47.5 1130.5,-6.5 963.5,-6.5"/>
<text text-anchor="start" x="971.5" y="-35.5" font-family="Helvetica,sans-Serif" font-size="10.00">/home/travis/build</text>
<text text-anchor="start" x="971.5" y="-24.5" font-family="Helvetica,sans-Serif" font-size="10.00">/ComPWA/ComPWA/executables</text>
<text text-anchor="middle" x="1047" y="-13.5" font-family="Helvetica,sans-Serif" font-size="10.00">/HelicityAmplitudeFitApp.cpp</text>
</a>
</g>
</g>
<!-- Node1&#45;&gt;Node13 -->
<g id="edge34" class="edge"><title>Node1&#45;&gt;Node13</title>
<path fill="none" stroke="midnightblue" d="M892.564,-404.478C886.949,-371.375 879,-316.031 879,-268 879,-268 879,-268 879,-188 879,-143.157 874.036,-124.234 903,-90 914.691,-76.1817 953.102,-59.9869 987.313,-47.6146"/>
<polygon fill="midnightblue" stroke="midnightblue" points="889.129,-405.155 894.292,-414.407 896.025,-403.955 889.129,-405.155"/>
</g>
<!-- Node14 -->
<g id="node14" class="node"><title>Node14</title>
<g id="a_node14"><a xlink:href="../../d6/d45/LHNormalizationTestApp_8cpp.html" target="_top" xlink:title="/home/travis/build\l/ComPWA/ComPWA/executables\l/LHNormalizationTestApp.cpp">
<polygon fill="white" stroke="black" points="1148.5,-6.5 1148.5,-47.5 1315.5,-47.5 1315.5,-6.5 1148.5,-6.5"/>
<text text-anchor="start" x="1156.5" y="-35.5" font-family="Helvetica,sans-Serif" font-size="10.00">/home/travis/build</text>
<text text-anchor="start" x="1156.5" y="-24.5" font-family="Helvetica,sans-Serif" font-size="10.00">/ComPWA/ComPWA/executables</text>
<text text-anchor="middle" x="1232" y="-13.5" font-family="Helvetica,sans-Serif" font-size="10.00">/LHNormalizationTestApp.cpp</text>
</a>
</g>
</g>
<!-- Node1&#45;&gt;Node14 -->
<g id="edge35" class="edge"><title>Node1&#45;&gt;Node14</title>
<path fill="none" stroke="midnightblue" d="M903.436,-404.478C909.051,-371.375 917,-316.031 917,-268 917,-268 917,-268 917,-188 917,-132.949 1071.87,-76.4359 1164.42,-47.5762"/>
<polygon fill="midnightblue" stroke="midnightblue" points="899.975,-403.955 901.708,-414.407 906.871,-405.155 899.975,-403.955"/>
</g>
<!-- Node17 -->
<g id="node17" class="node"><title>Node17</title>
<g id="a_node17"><a xlink:href="../../dc/de3/FunctionTree_8cpp.html" target="_top" xlink:title="/home/travis/build\l/ComPWA/ComPWA/Core\l/FunctionTree.cpp">
<polygon fill="white" stroke="black" points="945.5,-330.5 945.5,-371.5 1080.5,-371.5 1080.5,-330.5 945.5,-330.5"/>
<text text-anchor="start" x="953.5" y="-359.5" font-family="Helvetica,sans-Serif" font-size="10.00">/home/travis/build</text>
<text text-anchor="start" x="953.5" y="-348.5" font-family="Helvetica,sans-Serif" font-size="10.00">/ComPWA/ComPWA/Core</text>
<text text-anchor="middle" x="1013" y="-337.5" font-family="Helvetica,sans-Serif" font-size="10.00">/FunctionTree.cpp</text>
</a>
</g>
</g>
<!-- Node1&#45;&gt;Node17 -->
<g id="edge22" class="edge"><title>Node1&#45;&gt;Node17</title>
<path fill="none" stroke="midnightblue" d="M933.92,-408.387C950.492,-396.571 969.86,-382.761 985.281,-371.765"/>
<polygon fill="midnightblue" stroke="midnightblue" points="931.655,-405.703 925.545,-414.359 935.72,-411.403 931.655,-405.703"/>
</g>
<!-- Node18 -->
<g id="node18" class="node"><title>Node18</title>
<g id="a_node18"><a xlink:href="../../d3/d0c/TreeTestApp_8cpp.html" target="_top" xlink:title="Test&#45;Application to show usage of the FunctionTree. ">
<polygon fill="white" stroke="black" points="1098.5,-330.5 1098.5,-371.5 1233.5,-371.5 1233.5,-330.5 1098.5,-330.5"/>
<text text-anchor="start" x="1106.5" y="-359.5" font-family="Helvetica,sans-Serif" font-size="10.00">/home/travis/build</text>
<text text-anchor="start" x="1106.5" y="-348.5" font-family="Helvetica,sans-Serif" font-size="10.00">/ComPWA/ComPWA/Core</text>
<text text-anchor="middle" x="1166" y="-337.5" font-family="Helvetica,sans-Serif" font-size="10.00">/test/TreeTestApp.cpp</text>
</a>
</g>
</g>
<!-- Node1&#45;&gt;Node18 -->
<g id="edge23" class="edge"><title>Node1&#45;&gt;Node18</title>
<path fill="none" stroke="midnightblue" d="M975.455,-412.061C1010.26,-402.004 1051.8,-389.73 1089,-378 1095.46,-375.964 1102.2,-373.777 1108.9,-371.567"/>
<polygon fill="midnightblue" stroke="midnightblue" points="974.464,-408.704 965.824,-414.837 976.402,-415.431 974.464,-408.704"/>
</g>
<!-- Node19 -->
<g id="node19" class="node"><title>Node19</title>
<g id="a_node19"><a xlink:href="../../d6/d9a/SliceFitApp_8cpp.html" target="_top" xlink:title="/home/travis/build\l/ComPWA/ComPWA/executables\l/Examples/SliceFit/SliceFitApp.cpp">
<polygon fill="white" stroke="black" points="1251.5,-330.5 1251.5,-371.5 1422.5,-371.5 1422.5,-330.5 1251.5,-330.5"/>
<text text-anchor="start" x="1259.5" y="-359.5" font-family="Helvetica,sans-Serif" font-size="10.00">/home/travis/build</text>
<text text-anchor="start" x="1259.5" y="-348.5" font-family="Helvetica,sans-Serif" font-size="10.00">/ComPWA/ComPWA/executables</text>
<text text-anchor="middle" x="1337" y="-337.5" font-family="Helvetica,sans-Serif" font-size="10.00">/Examples/SliceFit/SliceFitApp.cpp</text>
</a>
</g>
</g>
<!-- Node1&#45;&gt;Node19 -->
<g id="edge31" class="edge"><title>Node1&#45;&gt;Node19</title>
<path fill="none" stroke="midnightblue" d="M975.697,-423.745C1045.71,-413.938 1151.27,-397.742 1242,-378 1250.77,-376.091 1259.94,-373.872 1268.98,-371.55"/>
<polygon fill="midnightblue" stroke="midnightblue" points="975.054,-420.301 965.632,-425.146 976.019,-427.234 975.054,-420.301"/>
</g>
<!-- Node20 -->
<g id="node20" class="node"><title>Node20</title>
<g id="a_node20"><a xlink:href="../../d3/dbc/SliceFitRANDApp_8cpp.html" target="_top" xlink:title="/home/travis/build\l/ComPWA/ComPWA/executables\l/Examples/SliceFit/SliceFitRANDApp.cpp">
<polygon fill="white" stroke="black" points="1441,-330.5 1441,-371.5 1641,-371.5 1641,-330.5 1441,-330.5"/>
<text text-anchor="start" x="1449" y="-359.5" font-family="Helvetica,sans-Serif" font-size="10.00">/home/travis/build</text>
<text text-anchor="start" x="1449" y="-348.5" font-family="Helvetica,sans-Serif" font-size="10.00">/ComPWA/ComPWA/executables</text>
<text text-anchor="middle" x="1541" y="-337.5" font-family="Helvetica,sans-Serif" font-size="10.00">/Examples/SliceFit/SliceFitRANDApp.cpp</text>
</a>
</g>
</g>
<!-- Node1&#45;&gt;Node20 -->
<g id="edge32" class="edge"><title>Node1&#45;&gt;Node20</title>
<path fill="none" stroke="midnightblue" d="M975.804,-428.946C1079.98,-421.469 1270.32,-405.316 1431,-378 1441.74,-376.175 1452.99,-373.919 1464.03,-371.505"/>
<polygon fill="midnightblue" stroke="midnightblue" points="975.414,-425.465 965.687,-429.665 975.91,-432.447 975.414,-425.465"/>
</g>
<!-- Node21 -->
<g id="node21" class="node"><title>Node21</title>
<g id="a_node21"><a xlink:href="../../d9/de4/SliceFitUBApp_8cpp.html" target="_top" xlink:title="/home/travis/build\l/ComPWA/ComPWA/executables\l/Examples/SliceFit/SliceFitUBApp.cpp">
<polygon fill="white" stroke="black" points="1659.5,-330.5 1659.5,-371.5 1844.5,-371.5 1844.5,-330.5 1659.5,-330.5"/>
<text text-anchor="start" x="1667.5" y="-359.5" font-family="Helvetica,sans-Serif" font-size="10.00">/home/travis/build</text>
<text text-anchor="start" x="1667.5" y="-348.5" font-family="Helvetica,sans-Serif" font-size="10.00">/ComPWA/ComPWA/executables</text>
<text text-anchor="middle" x="1752" y="-337.5" font-family="Helvetica,sans-Serif" font-size="10.00">/Examples/SliceFit/SliceFitUBApp.cpp</text>
</a>
</g>
</g>
<!-- Node1&#45;&gt;Node21 -->
<g id="edge33" class="edge"><title>Node1&#45;&gt;Node21</title>
<path fill="none" stroke="midnightblue" d="M976.021,-432.684C1113.2,-429.372 1406.18,-417.838 1650,-378 1660.46,-376.291 1671.42,-374.022 1682.11,-371.534"/>
<polygon fill="midnightblue" stroke="midnightblue" points="975.536,-429.194 965.62,-432.926 975.699,-436.192 975.536,-429.194"/>
</g>
<!-- Node22 -->
<g id="node22" class="node"><title>Node22</title>
<g id="a_node22"><a xlink:href="../../dc/de3/Amplitude_8hpp.html" target="_top" xlink:title="This class provides the interface to the model which tries to describe the intensity. ">
<polygon fill="white" stroke="red" points="1862.5,-330.5 1862.5,-371.5 2011.5,-371.5 2011.5,-330.5 1862.5,-330.5"/>
<text text-anchor="start" x="1870.5" y="-359.5" font-family="Helvetica,sans-Serif" font-size="10.00">/home/travis/build</text>
<text text-anchor="start" x="1870.5" y="-348.5" font-family="Helvetica,sans-Serif" font-size="10.00">/ComPWA/ComPWA/Physics</text>
<text text-anchor="middle" x="1937" y="-337.5" font-family="Helvetica,sans-Serif" font-size="10.00">/Amplitude.hpp</text>
</a>
</g>
</g>
<!-- Node1&#45;&gt;Node22 -->
<g id="edge36" class="edge"><title>Node1&#45;&gt;Node22</title>
<path fill="none" stroke="midnightblue" d="M976.075,-431.851C1172.85,-426.046 1685.33,-408.402 1853,-378 1862.01,-376.366 1871.41,-374.069 1880.53,-371.511"/>
<polygon fill="midnightblue" stroke="midnightblue" points="975.713,-428.36 965.82,-432.152 975.918,-435.357 975.713,-428.36"/>
</g>
<!-- Node23 -->
<g id="node23" class="node"><title>Node23</title>
<g id="a_node23"><a xlink:href="../../de/d02/AbstractDynamicalFunction_8hpp.html" target="_top" xlink:title="/home/travis/build\l/ComPWA/ComPWA/Physics\l/HelicityFormalism/AbstractDynamical\lFunction.hpp">
<polygon fill="white" stroke="red" points="2029.5,-325 2029.5,-377 2214.5,-377 2214.5,-325 2029.5,-325"/>
<text text-anchor="start" x="2037.5" y="-365" font-family="Helvetica,sans-Serif" font-size="10.00">/home/travis/build</text>
<text text-anchor="start" x="2037.5" y="-354" font-family="Helvetica,sans-Serif" font-size="10.00">/ComPWA/ComPWA/Physics</text>
<text text-anchor="start" x="2037.5" y="-343" font-family="Helvetica,sans-Serif" font-size="10.00">/HelicityFormalism/AbstractDynamical</text>
<text text-anchor="middle" x="2122" y="-332" font-family="Helvetica,sans-Serif" font-size="10.00">Function.hpp</text>
</a>
</g>
</g>
<!-- Node1&#45;&gt;Node23 -->
<g id="edge37" class="edge"><title>Node1&#45;&gt;Node23</title>
<path fill="none" stroke="midnightblue" d="M975.846,-432.139C1195.64,-426.562 1818.06,-408.464 2020,-378 2023.07,-377.537 2026.19,-377.02 2029.32,-376.46"/>
<polygon fill="midnightblue" stroke="midnightblue" points="975.596,-428.644 965.687,-432.395 975.772,-435.642 975.596,-428.644"/>
</g>
<!-- Node24 -->
<g id="node24" class="node"><title>Node24</title>
<g id="a_node24"><a xlink:href="../../d9/de6/AmpWignerD_8hpp.html" target="_top" xlink:title="Angular distribution based on WignerD functions. ">
<polygon fill="white" stroke="red" points="2232.5,-330.5 2232.5,-371.5 2411.5,-371.5 2411.5,-330.5 2232.5,-330.5"/>
<text text-anchor="start" x="2240.5" y="-359.5" font-family="Helvetica,sans-Serif" font-size="10.00">/home/travis/build</text>
<text text-anchor="start" x="2240.5" y="-348.5" font-family="Helvetica,sans-Serif" font-size="10.00">/ComPWA/ComPWA/Physics</text>
<text text-anchor="middle" x="2322" y="-337.5" font-family="Helvetica,sans-Serif" font-size="10.00">/HelicityFormalism/AmpWignerD.hpp</text>
</a>
</g>
</g>
<!-- Node1&#45;&gt;Node24 -->
<g id="edge38" class="edge"><title>Node1&#45;&gt;Node24</title>
<path fill="none" stroke="midnightblue" d="M975.988,-432.9C1222.07,-429.082 1980.18,-414.583 2223,-378 2233.63,-376.398 2244.77,-374.102 2255.57,-371.528"/>
<polygon fill="midnightblue" stroke="midnightblue" points="975.649,-429.404 965.704,-433.058 975.756,-436.403 975.649,-429.404"/>
</g>
<!-- Node25 -->
<g id="node25" class="node"><title>Node25</title>
<g id="a_node25"><a xlink:href="../../d4/d62/Resonance_8hpp.html" target="_top" xlink:title="/home/travis/build\l/ComPWA/ComPWA/Physics\l/Resonance.hpp">
<polygon fill="white" stroke="red" points="2429.5,-330.5 2429.5,-371.5 2578.5,-371.5 2578.5,-330.5 2429.5,-330.5"/>
<text text-anchor="start" x="2437.5" y="-359.5" font-family="Helvetica,sans-Serif" font-size="10.00">/home/travis/build</text>
<text text-anchor="start" x="2437.5" y="-348.5" font-family="Helvetica,sans-Serif" font-size="10.00">/ComPWA/ComPWA/Physics</text>
<text text-anchor="middle" x="2504" y="-337.5" font-family="Helvetica,sans-Serif" font-size="10.00">/Resonance.hpp</text>
</a>
</g>
</g>
<!-- Node1&#45;&gt;Node25 -->
<g id="edge39" class="edge"><title>Node1&#45;&gt;Node25</title>
<path fill="none" stroke="midnightblue" d="M975.955,-433.838C1245.66,-432.853 2138.03,-425.96 2420,-378 2429.18,-376.439 2438.76,-374.145 2448.01,-371.557"/>
<polygon fill="midnightblue" stroke="midnightblue" points="975.85,-430.338 965.863,-433.873 975.875,-437.338 975.85,-430.338"/>
</g>
<!-- Node3 -->
<g id="node3" class="node"><title>Node3</title>
<g id="a_node3"><a xlink:href="../../d5/dca/AmpIntensity_8cpp.html" target="_top" xlink:title="/home/travis/build\l/ComPWA/ComPWA/Core\l/AmpIntensity.cpp">
<polygon fill="white" stroke="black" points="66.5,-246.5 66.5,-287.5 201.5,-287.5 201.5,-246.5 66.5,-246.5"/>
<text text-anchor="start" x="74.5" y="-275.5" font-family="Helvetica,sans-Serif" font-size="10.00">/home/travis/build</text>
<text text-anchor="start" x="74.5" y="-264.5" font-family="Helvetica,sans-Serif" font-size="10.00">/ComPWA/ComPWA/Core</text>
<text text-anchor="middle" x="134" y="-253.5" font-family="Helvetica,sans-Serif" font-size="10.00">/AmpIntensity.cpp</text>
</a>
</g>
</g>
<!-- Node2&#45;&gt;Node3 -->
<g id="edge2" class="edge"><title>Node2&#45;&gt;Node3</title>
<path fill="none" stroke="midnightblue" d="M269.806,-326.304C241.235,-314.038 206.768,-299.241 179.707,-287.623"/>
<polygon fill="midnightblue" stroke="midnightblue" points="268.681,-329.63 279.251,-330.359 271.443,-323.198 268.681,-329.63"/>
</g>
<!-- Node2&#45;&gt;Node4 -->
<g id="edge3" class="edge"><title>Node2&#45;&gt;Node4</title>
<path fill="none" stroke="midnightblue" d="M398.503,-327.51C439.437,-314.986 489.905,-299.544 529.173,-287.529"/>
<polygon fill="midnightblue" stroke="midnightblue" points="397.391,-324.19 388.852,-330.463 399.439,-330.884 397.391,-324.19"/>
</g>
<!-- Node2&#45;&gt;Node5 -->
<g id="edge19" class="edge"><title>Node2&#45;&gt;Node5</title>
<path fill="none" stroke="midnightblue" d="M328.76,-320.423C333.189,-297.274 342.713,-265.787 363,-246 386.624,-222.958 420.042,-209.389 450.708,-201.401"/>
<polygon fill="midnightblue" stroke="midnightblue" points="325.29,-319.955 327.064,-330.4 332.191,-321.129 325.29,-319.955"/>
</g>
<!-- Node6 -->
<g id="node6" class="node"><title>Node6</title>
<g id="a_node6"><a xlink:href="../../d5/d8d/ChiOneD_8hpp.html" target="_top" xlink:title="This class calculates a simple &#160;of a intensity and a dataset. ">
<polygon fill="white" stroke="red" points="208,-90.5 208,-131.5 364,-131.5 364,-90.5 208,-90.5"/>
<text text-anchor="start" x="216" y="-119.5" font-family="Helvetica,sans-Serif" font-size="10.00">/home/travis/build</text>
<text text-anchor="start" x="216" y="-108.5" font-family="Helvetica,sans-Serif" font-size="10.00">/ComPWA/ComPWA/Estimator</text>
<text text-anchor="middle" x="286" y="-97.5" font-family="Helvetica,sans-Serif" font-size="10.00">/ChiOneD/ChiOneD.hpp</text>
</a>
</g>
</g>
<!-- Node2&#45;&gt;Node6 -->
<g id="edge18" class="edge"><title>Node2&#45;&gt;Node6</title>
<path fill="none" stroke="midnightblue" d="M306.337,-321.492C300.651,-311.334 295.091,-299.543 292,-288 277.253,-232.921 280.809,-164.684 283.826,-131.694"/>
<polygon fill="midnightblue" stroke="midnightblue" points="303.438,-323.466 311.527,-330.308 309.47,-319.915 303.438,-323.466"/>
</g>
<!-- Node2&#45;&gt;Node7 -->
<g id="edge20" class="edge"><title>Node2&#45;&gt;Node7</title>
<path fill="none" stroke="midnightblue" d="M321.605,-320.11C320.542,-298.198 322.179,-268.477 335,-246 364.158,-194.881 388.338,-192.16 442,-168 498.312,-142.647 566.915,-128.418 618.775,-120.654"/>
<polygon fill="midnightblue" stroke="midnightblue" points="318.12,-320.442 322.307,-330.174 325.103,-319.955 318.12,-320.442"/>
</g>
<!-- Node15 -->
<g id="node15" class="node"><title>Node15</title>
<g id="a_node15"><a xlink:href="../../d5/dc2/Dictionary_8hpp.html" target="_top" xlink:title="This class gathers information from modules, namely what they need as input and what they provide as ...">
<polygon fill="white" stroke="red" points="372.5,-246.5 372.5,-287.5 507.5,-287.5 507.5,-246.5 372.5,-246.5"/>
<text text-anchor="start" x="380.5" y="-275.5" font-family="Helvetica,sans-Serif" font-size="10.00">/home/travis/build</text>
<text text-anchor="start" x="380.5" y="-264.5" font-family="Helvetica,sans-Serif" font-size="10.00">/ComPWA/ComPWA/Core</text>
<text text-anchor="middle" x="440" y="-253.5" font-family="Helvetica,sans-Serif" font-size="10.00">/Dictionary.hpp</text>
</a>
</g>
</g>
<!-- Node2&#45;&gt;Node15 -->
<g id="edge15" class="edge"><title>Node2&#45;&gt;Node15</title>
<path fill="none" stroke="midnightblue" d="M360.92,-324.387C377.492,-312.571 396.86,-298.761 412.281,-287.765"/>
<polygon fill="midnightblue" stroke="midnightblue" points="358.655,-321.703 352.545,-330.359 362.72,-327.403 358.655,-321.703"/>
</g>
<!-- Node16 -->
<g id="node16" class="node"><title>Node16</title>
<g id="a_node16"><a xlink:href="../../de/d88/FitResult_8hpp.html" target="_top" xlink:title="/home/travis/build\l/ComPWA/ComPWA/Core\l/FitResult.hpp">
<polygon fill="white" stroke="red" points="99.5,-168.5 99.5,-209.5 234.5,-209.5 234.5,-168.5 99.5,-168.5"/>
<text text-anchor="start" x="107.5" y="-197.5" font-family="Helvetica,sans-Serif" font-size="10.00">/home/travis/build</text>
<text text-anchor="start" x="107.5" y="-186.5" font-family="Helvetica,sans-Serif" font-size="10.00">/ComPWA/ComPWA/Core</text>
<text text-anchor="middle" x="167" y="-175.5" font-family="Helvetica,sans-Serif" font-size="10.00">/FitResult.hpp</text>
</a>
</g>
</g>
<!-- Node2&#45;&gt;Node16 -->
<g id="edge16" class="edge"><title>Node2&#45;&gt;Node16</title>
<path fill="none" stroke="midnightblue" d="M293.059,-323.614C280.557,-312.902 266.295,-300.195 254,-288 227.994,-262.205 200.288,-230.094 183.306,-209.814"/>
<polygon fill="midnightblue" stroke="midnightblue" points="291.094,-326.536 300.982,-330.339 295.624,-321.2 291.094,-326.536"/>
</g>
<!-- Node4&#45;&gt;Node5 -->
<g id="edge4" class="edge"><title>Node4&#45;&gt;Node5</title>
<path fill="none" stroke="midnightblue" d="M569.949,-238.627C561.834,-228.99 552.883,-218.362 545.426,-209.506"/>
<polygon fill="midnightblue" stroke="midnightblue" points="567.4,-241.033 576.518,-246.428 572.754,-236.524 567.4,-241.033"/>
</g>
<!-- Node5&#45;&gt;Node6 -->
<g id="edge5" class="edge"><title>Node5&#45;&gt;Node6</title>
<path fill="none" stroke="midnightblue" d="M456.875,-165.442C422.384,-154.655 381.496,-141.867 348.366,-131.506"/>
<polygon fill="midnightblue" stroke="midnightblue" points="455.833,-168.783 466.421,-168.428 457.922,-162.103 455.833,-168.783"/>
</g>
<!-- Node5&#45;&gt;Node7 -->
<g id="edge6" class="edge"><title>Node5&#45;&gt;Node7</title>
<path fill="none" stroke="midnightblue" d="M581.635,-164.189C604.876,-153.675 631.859,-141.469 653.882,-131.506"/>
<polygon fill="midnightblue" stroke="midnightblue" points="579.933,-161.117 572.264,-168.428 582.818,-167.495 579.933,-161.117"/>
</g>
<!-- Node5&#45;&gt;Node12 -->
<g id="edge14" class="edge"><title>Node5&#45;&gt;Node12</title>
<path fill="none" stroke="midnightblue" d="M491.926,-162.65C448.018,-132.627 375.339,-82.9325 331.627,-53.044"/>
<polygon fill="midnightblue" stroke="midnightblue" points="490.077,-165.626 500.307,-168.381 494.028,-159.847 490.077,-165.626"/>
</g>
<!-- Node7&#45;&gt;Node8 -->
<g id="edge7" class="edge"><title>Node7&#45;&gt;Node8</title>
<path fill="none" stroke="midnightblue" d="M608.718,-104.764C509.13,-97.7607 342.701,-82.7453 202,-54 193.351,-52.2329 184.322,-49.9948 175.495,-47.5763"/>
<polygon fill="midnightblue" stroke="midnightblue" points="608.52,-108.258 618.738,-105.457 609.003,-101.275 608.52,-108.258"/>
</g>
<!-- Node7&#45;&gt;Node9 -->
<g id="edge8" class="edge"><title>Node7&#45;&gt;Node9</title>
<path fill="none" stroke="midnightblue" d="M635.8,-86.8737C602.963,-74.4653 562.939,-59.3412 531.681,-47.5291"/>
<polygon fill="midnightblue" stroke="midnightblue" points="634.707,-90.2023 645.299,-90.4631 637.182,-83.6542 634.707,-90.2023"/>
</g>
<!-- Node7&#45;&gt;Node10 -->
<g id="edge9" class="edge"><title>Node7&#45;&gt;Node10</title>
<path fill="none" stroke="midnightblue" d="M685.606,-80.8019C682.093,-71.8021 678.258,-61.9729 674.858,-53.2613"/>
<polygon fill="midnightblue" stroke="midnightblue" points="682.358,-82.1067 689.254,-90.1501 688.879,-79.5619 682.358,-82.1067"/>
</g>
<!-- Node7&#45;&gt;Node11 -->
<g id="edge10" class="edge"><title>Node7&#45;&gt;Node11</title>
<path fill="none" stroke="midnightblue" d="M744.192,-85.6621C767.728,-73.5242 795.815,-59.0386 817.951,-47.6227"/>
<polygon fill="midnightblue" stroke="midnightblue" points="742.368,-82.6646 735.084,-90.359 745.576,-88.886 742.368,-82.6646"/>
</g>
<!-- Node7&#45;&gt;Node12 -->
<g id="edge11" class="edge"><title>Node7&#45;&gt;Node12</title>
<path fill="none" stroke="midnightblue" d="M608.678,-96.3791C546.399,-86.2066 461.201,-71.1446 387,-54 384.251,-53.3648 381.461,-52.6993 378.648,-52.0103"/>
<polygon fill="midnightblue" stroke="midnightblue" points="608.429,-99.8843 618.86,-98.0321 609.55,-92.9748 608.429,-99.8843"/>
</g>
<!-- Node7&#45;&gt;Node13 -->
<g id="edge12" class="edge"><title>Node7&#45;&gt;Node13</title>
<path fill="none" stroke="midnightblue" d="M785.236,-92.0953C834.965,-81.6737 898.132,-67.8839 954,-54 962.054,-51.9986 970.47,-49.799 978.807,-47.5529"/>
<polygon fill="midnightblue" stroke="midnightblue" points="784.23,-88.7299 775.156,-94.2002 785.66,-95.5821 784.23,-88.7299"/>
</g>
<!-- Node7&#45;&gt;Node14 -->
<g id="edge13" class="edge"><title>Node7&#45;&gt;Node14</title>
<path fill="none" stroke="midnightblue" d="M785.395,-100.355C894.422,-88.1877 1073.38,-67.2551 1139,-54 1148.04,-52.1743 1157.49,-49.933 1166.75,-47.5389"/>
<polygon fill="midnightblue" stroke="midnightblue" points="784.945,-96.8836 775.394,-101.469 785.72,-103.841 784.945,-96.8836"/>
</g>
<!-- Node16&#45;&gt;Node8 -->
<g id="edge17" class="edge"><title>Node16&#45;&gt;Node8</title>
<path fill="none" stroke="midnightblue" d="M157.453,-158.625C146.981,-126.402 130.463,-75.578 121.428,-47.7796"/>
<polygon fill="midnightblue" stroke="midnightblue" points="154.204,-159.952 160.624,-168.381 160.861,-157.789 154.204,-159.952"/>
</g>
</g>
</svg>
