<?xml version="1.0" encoding="UTF-8" standalone="no"?>
<!DOCTYPE svg PUBLIC "-//W3C//DTD SVG 1.1//EN"
 "http://www.w3.org/Graphics/SVG/1.1/DTD/svg11.dtd">
<!-- Generated by graphviz version 2.26.3 (20100126.1600)
 -->
<!-- Title: G Pages: 1 -->
<svg width="196pt" height="354pt"
 viewBox="0.00 0.00 196.00 354.00" xmlns="http://www.w3.org/2000/svg" xmlns:xlink="http://www.w3.org/1999/xlink">
<g id="graph1" class="graph" transform="scale(1 1) rotate(0) translate(4 350)">
<title>G</title>
<polygon fill="white" stroke="white" points="-4,5 -4,-350 193,-350 193,5 -4,5"/>
<!-- Node1 -->
<g id="node1" class="node"><title>Node1</title>
<polygon fill="#bfbfbf" stroke="black" points="28.5,-1 28.5,-129 109.5,-129 109.5,-1 28.5,-1"/>
<text text-anchor="middle" x="69" y="-116" font-family="Helvetica,sans-Serif" font-size="10.00">Exception</text>
<polyline fill="none" stroke="black" points="28.5,-108 109.5,-108 "/>
<text text-anchor="start" x="36.5" y="-95" font-family="Helvetica,sans-Serif" font-size="10.00"># what_</text>
<polyline fill="none" stroke="black" points="28.5,-87 109.5,-87 "/>
<text text-anchor="start" x="36.5" y="-74" font-family="Helvetica,sans-Serif" font-size="10.00">+ Exception()</text>
<text text-anchor="start" x="36.5" y="-61" font-family="Helvetica,sans-Serif" font-size="10.00">+ operator=()</text>
<text text-anchor="start" x="36.5" y="-48" font-family="Helvetica,sans-Serif" font-size="10.00">+ ~Exception()</text>
<text text-anchor="start" x="36.5" y="-35" font-family="Helvetica,sans-Serif" font-size="10.00">+ what()</text>
<text text-anchor="start" x="36.5" y="-22" font-family="Helvetica,sans-Serif" font-size="10.00"># Exception()</text>
<text text-anchor="start" x="36.5" y="-9" font-family="Helvetica,sans-Serif" font-size="10.00"># Exception()</text>
</g>
<!-- Node2 -->
<g id="node2" class="node"><title>Node2</title>
<a xlink:title="STL class.">
<polygon fill="white" stroke="#bfbfbf" points="0,-180.5 0,-243.5 78,-243.5 78,-180.5 0,-180.5"/>
<text text-anchor="middle" x="39" y="-230.5" font-family="Helvetica,sans-Serif" font-size="10.00">std::exception</text>
<polyline fill="none" stroke="#bfbfbf" points="0,-222.5 78,-222.5 "/>
<text text-anchor="middle" x="39" y="-209.5" font-family="Helvetica,sans-Serif" font-size="10.00"> </text>
<polyline fill="none" stroke="#bfbfbf" points="0,-201.5 78,-201.5 "/>
<text text-anchor="middle" x="39" y="-188.5" font-family="Helvetica,sans-Serif" font-size="10.00"> </text>
</a>
</g>
<!-- Node2&#45;&gt;Node1 -->
<g id="edge2" class="edge"><title>Node2&#45;&gt;Node1</title>
<path fill="none" stroke="midnightblue" d="M47.4626,-170.533C50.089,-157.664 53.0479,-143.165 55.9121,-129.131"/>
<polygon fill="none" stroke="midnightblue" points="44.0061,-169.967 45.4358,-180.465 50.8647,-171.367 44.0061,-169.967"/>
</g>
<!-- Node3 -->
<g id="node4" class="node"><title>Node3</title>
<a xlink:title="STL class.">
<polygon fill="white" stroke="#bfbfbf" points="96,-180.5 96,-243.5 156,-243.5 156,-180.5 96,-180.5"/>
<text text-anchor="middle" x="126" y="-230.5" font-family="Helvetica,sans-Serif" font-size="10.00">std::string</text>
<polyline fill="none" stroke="#bfbfbf" points="96,-222.5 156,-222.5 "/>
<text text-anchor="middle" x="126" y="-209.5" font-family="Helvetica,sans-Serif" font-size="10.00"> </text>
<polyline fill="none" stroke="#bfbfbf" points="96,-201.5 156,-201.5 "/>
<text text-anchor="middle" x="126" y="-188.5" font-family="Helvetica,sans-Serif" font-size="10.00"> </text>
</a>
</g>
<!-- Node3&#45;&gt;Node1 -->
<g id="edge4" class="edge"><title>Node3&#45;&gt;Node1</title>
<path fill="none" stroke="#9a32cd" stroke-dasharray="5,2" d="M110.069,-170.915C105.042,-157.951 99.3629,-143.304 93.8669,-129.131"/>
<polygon fill="#9a32cd" stroke="#9a32cd" points="113.772,-180.465 105.961,-172.768 111.964,-175.803 110.157,-171.141 110.157,-171.141 110.157,-171.141 111.964,-175.803 114.352,-169.514 113.772,-180.465 113.772,-180.465"/>
<text text-anchor="middle" x="118.5" y="-152.5" font-family="Helvetica,sans-Serif" font-size="10.00">what_</text>
</g>
<!-- Node4 -->
<g id="node6" class="node"><title>Node4</title>
<a xlink:title="STL class.">
<polygon fill="white" stroke="#bfbfbf" points="63.5,-282.5 63.5,-345.5 188.5,-345.5 188.5,-282.5 63.5,-282.5"/>
<text text-anchor="middle" x="126" y="-332.5" font-family="Helvetica,sans-Serif" font-size="10.00">std::basic_string&lt; char &gt;</text>
<polyline fill="none" stroke="#bfbfbf" points="63.5,-324.5 188.5,-324.5 "/>
<text text-anchor="middle" x="126" y="-311.5" font-family="Helvetica,sans-Serif" font-size="10.00"> </text>
<polyline fill="none" stroke="#bfbfbf" points="63.5,-303.5 188.5,-303.5 "/>
<text text-anchor="middle" x="126" y="-290.5" font-family="Helvetica,sans-Serif" font-size="10.00"> </text>
</a>
</g>
<!-- Node4&#45;&gt;Node3 -->
<g id="edge6" class="edge"><title>Node4&#45;&gt;Node3</title>
<path fill="none" stroke="midnightblue" d="M126,-272.194C126,-262.674 126,-252.712 126,-243.695"/>
<polygon fill="none" stroke="midnightblue" points="122.5,-272.286 126,-282.286 129.5,-272.286 122.5,-272.286"/>
</g>
</g>
</svg>
