<?xml version="1.0" encoding="UTF-8" standalone="no"?>
<!DOCTYPE svg PUBLIC "-//W3C//DTD SVG 1.1//EN"
 "http://www.w3.org/Graphics/SVG/1.1/DTD/svg11.dtd">
<!-- Generated by graphviz version 2.36.0 (20140111.2315)
 -->
<!-- Title: /home/travis/build/ComPWA/ComPWA/Core/Kinematics.hpp Pages: 1 -->
<svg width="1518pt" height="286pt"
 viewBox="0.00 0.00 1518.01 286.00" xmlns="http://www.w3.org/2000/svg" xmlns:xlink="http://www.w3.org/1999/xlink">
<g id="graph0" class="graph" transform="scale(1 1) rotate(0) translate(4 282)">
<title>/home/travis/build/ComPWA/ComPWA/Core/Kinematics.hpp</title>
<polygon fill="white" stroke="none" points="-4,4 -4,-282 1514.01,-282 1514.01,4 -4,4"/>
<!-- Node1 -->
<g id="node1" class="node"><title>Node1</title>
<polygon fill="#bfbfbf" stroke="black" points="613.512,-236.5 613.512,-277.5 748.512,-277.5 748.512,-236.5 613.512,-236.5"/>
<text text-anchor="start" x="621.512" y="-265.5" font-family="Helvetica,sans-Serif" font-size="10.00">/home/travis/build</text>
<text text-anchor="start" x="621.512" y="-254.5" font-family="Helvetica,sans-Serif" font-size="10.00">/ComPWA/ComPWA/Core</text>
<text text-anchor="middle" x="681.012" y="-243.5" font-family="Helvetica,sans-Serif" font-size="10.00">/Kinematics.hpp</text>
</g>
<!-- Node2 -->
<g id="node2" class="node"><title>Node2</title>
<polygon fill="white" stroke="#bfbfbf" points="206.012,-0.5 206.012,-19.5 250.012,-19.5 250.012,-0.5 206.012,-0.5"/>
<text text-anchor="middle" x="228.012" y="-7.5" font-family="Helvetica,sans-Serif" font-size="10.00">vector</text>
</g>
<!-- Node1&#45;&gt;Node2 -->
<g id="edge1" class="edge"><title>Node1&#45;&gt;Node2</title>
<path fill="none" stroke="midnightblue" d="M613.509,-256.513C456.35,-255.994 74.3738,-244.256 9.01157,-144 -39.9617,-68.8826 123.988,-29.5976 195.897,-16.2909"/>
<polygon fill="midnightblue" stroke="midnightblue" points="196.577,-19.7249 205.802,-14.515 195.342,-12.8347 196.577,-19.7249"/>
</g>
<!-- Node3 -->
<g id="node3" class="node"><title>Node3</title>
<polygon fill="white" stroke="#bfbfbf" points="1115.51,-0.5 1115.51,-19.5 1156.51,-19.5 1156.51,-0.5 1115.51,-0.5"/>
<text text-anchor="middle" x="1136.01" y="-7.5" font-family="Helvetica,sans-Serif" font-size="10.00">string</text>
</g>
<!-- Node1&#45;&gt;Node3 -->
<g id="edge2" class="edge"><title>Node1&#45;&gt;Node3</title>
<path fill="none" stroke="midnightblue" d="M748.529,-249.927C898.755,-234.663 1251.28,-188.509 1300.01,-88 1306.22,-75.2028 1308.64,-67.3092 1300.01,-56 1283.92,-34.898 1209.56,-21.2426 1166.7,-14.9811"/>
<polygon fill="midnightblue" stroke="midnightblue" points="1166.93,-11.4786 1156.54,-13.5484 1165.95,-18.41 1166.93,-11.4786"/>
</g>
<!-- Node4 -->
<g id="node4" class="node"><title>Node4</title>
<polygon fill="white" stroke="#bfbfbf" points="461.512,-62.5 461.512,-81.5 514.512,-81.5 514.512,-62.5 461.512,-62.5"/>
<text text-anchor="middle" x="488.012" y="-69.5" font-family="Helvetica,sans-Serif" font-size="10.00">complex</text>
</g>
<!-- Node1&#45;&gt;Node4 -->
<g id="edge3" class="edge"><title>Node1&#45;&gt;Node4</title>
<path fill="none" stroke="midnightblue" d="M623.587,-236.463C582.023,-219.084 528.507,-189.31 501.012,-144 491.376,-128.121 488.54,-106.829 487.86,-91.7147"/>
<polygon fill="midnightblue" stroke="midnightblue" points="491.357,-91.4906 487.684,-81.5529 484.358,-91.6122 491.357,-91.4906"/>
</g>
<!-- Node5 -->
<g id="node5" class="node"><title>Node5</title>
<g id="a_node5"><a xlink:href="../../df/d7d/Event_8hpp.html" target="_top" xlink:title="This class provides a internal container for event&#45;based information. ">
<polygon fill="white" stroke="black" points="582.512,-180.5 582.512,-199.5 667.512,-199.5 667.512,-180.5 582.512,-180.5"/>
<text text-anchor="middle" x="625.012" y="-187.5" font-family="Helvetica,sans-Serif" font-size="10.00">Core/Event.hpp</text>
</a>
</g>
</g>
<!-- Node1&#45;&gt;Node5 -->
<g id="edge4" class="edge"><title>Node1&#45;&gt;Node5</title>
<path fill="none" stroke="midnightblue" d="M664.21,-236.498C656.202,-227.203 646.731,-216.21 639.104,-207.358"/>
<polygon fill="midnightblue" stroke="midnightblue" points="641.645,-204.944 632.466,-199.652 636.342,-209.513 641.645,-204.944"/>
</g>
<!-- Node13 -->
<g id="node13" class="node"><title>Node13</title>
<g id="a_node13"><a xlink:href="../../dd/df5/SubSystem_8hpp.html" target="_top" xlink:title="Contains SubSystem class. ">
<polygon fill="white" stroke="black" points="18.0116,-124.5 18.0116,-143.5 128.012,-143.5 128.012,-124.5 18.0116,-124.5"/>
<text text-anchor="middle" x="73.0116" y="-131.5" font-family="Helvetica,sans-Serif" font-size="10.00">Core/SubSystem.hpp</text>
</a>
</g>
</g>
<!-- Node1&#45;&gt;Node13 -->
<g id="edge16" class="edge"><title>Node1&#45;&gt;Node13</title>
<path fill="none" stroke="midnightblue" d="M613.51,-252.074C495.936,-244.636 258.604,-226.798 180.012,-200 146.321,-188.513 111.947,-165.123 91.5517,-149.759"/>
<polygon fill="midnightblue" stroke="midnightblue" points="93.5216,-146.859 83.463,-143.531 89.2508,-152.405 93.5216,-146.859"/>
</g>
<!-- Node15 -->
<g id="node15" class="node"><title>Node15</title>
<g id="a_node15"><a xlink:href="../../dc/ded/Properties_8hpp.html" target="_top" xlink:title="Core/Properties.hpp">
<polygon fill="white" stroke="black" points="686.012,-180.5 686.012,-199.5 790.012,-199.5 790.012,-180.5 686.012,-180.5"/>
<text text-anchor="middle" x="738.012" y="-187.5" font-family="Helvetica,sans-Serif" font-size="10.00">Core/Properties.hpp</text>
</a>
</g>
</g>
<!-- Node1&#45;&gt;Node15 -->
<g id="edge19" class="edge"><title>Node1&#45;&gt;Node15</title>
<path fill="none" stroke="midnightblue" d="M698.113,-236.498C706.264,-227.203 715.905,-216.21 723.667,-207.358"/>
<polygon fill="midnightblue" stroke="midnightblue" points="726.462,-209.479 730.424,-199.652 721.199,-204.863 726.462,-209.479"/>
</g>
<!-- Node21 -->
<g id="node21" class="node"><title>Node21</title>
<g id="a_node21"><a xlink:href="../../d9/dfb/Spin_8hpp.html" target="_top" xlink:title="Core/Spin.hpp">
<polygon fill="white" stroke="black" points="1118.51,-124.5 1118.51,-143.5 1197.51,-143.5 1197.51,-124.5 1118.51,-124.5"/>
<text text-anchor="middle" x="1158.01" y="-131.5" font-family="Helvetica,sans-Serif" font-size="10.00">Core/Spin.hpp</text>
</a>
</g>
</g>
<!-- Node1&#45;&gt;Node21 -->
<g id="edge44" class="edge"><title>Node1&#45;&gt;Node21</title>
<path fill="none" stroke="midnightblue" d="M748.595,-238.856C848.022,-213.635 1030.94,-167.234 1114.42,-146.059"/>
<polygon fill="midnightblue" stroke="midnightblue" points="1115.5,-149.396 1124.33,-143.545 1113.77,-142.611 1115.5,-149.396"/>
</g>
<!-- Node23 -->
<g id="node23" class="node"><title>Node23</title>
<g id="a_node23"><a xlink:href="../../d8/dd4/DataPoint_8hpp.html" target="_top" xlink:title="dataPoint stores kinematic information of a dalitz plot ">
<polygon fill="white" stroke="black" points="1347.51,-124.5 1347.51,-143.5 1450.51,-143.5 1450.51,-124.5 1347.51,-124.5"/>
<text text-anchor="middle" x="1399.01" y="-131.5" font-family="Helvetica,sans-Serif" font-size="10.00">Core/DataPoint.hpp</text>
</a>
</g>
</g>
<!-- Node1&#45;&gt;Node23 -->
<g id="edge45" class="edge"><title>Node1&#45;&gt;Node23</title>
<path fill="none" stroke="midnightblue" d="M748.591,-255.941C893.735,-254.893 1230.41,-247.272 1333.01,-200 1355.97,-189.424 1375.61,-167.337 1387.36,-151.858"/>
<polygon fill="midnightblue" stroke="midnightblue" points="1390.28,-153.791 1393.33,-143.644 1384.62,-149.676 1390.28,-153.791"/>
</g>
<!-- Node5&#45;&gt;Node2 -->
<g id="edge5" class="edge"><title>Node5&#45;&gt;Node2</title>
<path fill="none" stroke="midnightblue" d="M582.32,-186.871C491.942,-181.944 284.163,-168.285 218.012,-144 167.542,-125.472 106.45,-101.549 135.012,-56 148.277,-34.8439 174.619,-23.3897 195.891,-17.342"/>
<polygon fill="midnightblue" stroke="midnightblue" points="197.03,-20.6632 205.847,-14.7885 195.291,-13.8826 197.03,-20.6632"/>
</g>
<!-- Node5&#45;&gt;Node3 -->
<g id="edge6" class="edge"><title>Node5&#45;&gt;Node3</title>
<path fill="none" stroke="midnightblue" d="M667.676,-180.812C780.044,-159.115 1076.73,-100.917 1094.01,-88 1113.41,-73.5064 1124.91,-47.3133 1130.84,-29.5446"/>
<polygon fill="midnightblue" stroke="midnightblue" points="1134.26,-30.3361 1133.84,-19.7497 1127.57,-28.2888 1134.26,-30.3361"/>
</g>
<!-- Node6 -->
<g id="node6" class="node"><title>Node6</title>
<polygon fill="white" stroke="#bfbfbf" points="711.012,-62.5 711.012,-81.5 765.012,-81.5 765.012,-62.5 711.012,-62.5"/>
<text text-anchor="middle" x="738.012" y="-69.5" font-family="Helvetica,sans-Serif" font-size="10.00">iostream</text>
</g>
<!-- Node5&#45;&gt;Node6 -->
<g id="edge7" class="edge"><title>Node5&#45;&gt;Node6</title>
<path fill="none" stroke="midnightblue" d="M631.229,-180.131C640.501,-167.174 658.818,-142.591 677.012,-124 689.753,-110.98 705.568,-97.831 717.902,-88.1457"/>
<polygon fill="midnightblue" stroke="midnightblue" points="720.399,-90.6395 726.174,-81.7569 716.121,-85.0995 720.399,-90.6395"/>
</g>
<!-- Node7 -->
<g id="node7" class="node"><title>Node7</title>
<g id="a_node7"><a xlink:href="../../d3/d65/Particle_8hpp.html" target="_top" xlink:title="This class provides a internal container for information of a particle. ">
<polygon fill="white" stroke="black" points="510.012,-124.5 510.012,-143.5 602.012,-143.5 602.012,-124.5 510.012,-124.5"/>
<text text-anchor="middle" x="556.012" y="-131.5" font-family="Helvetica,sans-Serif" font-size="10.00">Core/Particle.hpp</text>
</a>
</g>
</g>
<!-- Node5&#45;&gt;Node7 -->
<g id="edge8" class="edge"><title>Node5&#45;&gt;Node7</title>
<path fill="none" stroke="midnightblue" d="M613.926,-180.324C603.526,-172.185 587.751,-159.839 575.29,-150.087"/>
<polygon fill="midnightblue" stroke="midnightblue" points="577.331,-147.241 567.299,-143.834 573.017,-152.753 577.331,-147.241"/>
</g>
<!-- Node7&#45;&gt;Node2 -->
<g id="edge9" class="edge"><title>Node7&#45;&gt;Node2</title>
<path fill="none" stroke="midnightblue" d="M509.874,-130.614C461.907,-126.646 385.643,-116.085 326.012,-88 305.727,-78.4465 304.595,-69.912 287.012,-56 273.97,-45.6812 259.078,-34.3263 247.519,-25.6042"/>
<polygon fill="midnightblue" stroke="midnightblue" points="249.51,-22.7225 239.414,-19.5084 245.302,-28.3166 249.51,-22.7225"/>
</g>
<!-- Node7&#45;&gt;Node6 -->
<g id="edge14" class="edge"><title>Node7&#45;&gt;Node6</title>
<path fill="none" stroke="midnightblue" d="M586.248,-124.424C615.751,-115.866 661.792,-102.008 701.012,-88 703.41,-87.1432 705.883,-86.2233 708.359,-85.276"/>
<polygon fill="midnightblue" stroke="midnightblue" points="709.755,-88.4877 717.774,-81.5628 707.187,-81.9759 709.755,-88.4877"/>
</g>
<!-- Node8 -->
<g id="node8" class="node"><title>Node8</title>
<polygon fill="white" stroke="#bfbfbf" points="405.012,-62.5 405.012,-81.5 443.012,-81.5 443.012,-62.5 405.012,-62.5"/>
<text text-anchor="middle" x="424.012" y="-69.5" font-family="Helvetica,sans-Serif" font-size="10.00">array</text>
</g>
<!-- Node7&#45;&gt;Node8 -->
<g id="edge10" class="edge"><title>Node7&#45;&gt;Node8</title>
<path fill="none" stroke="midnightblue" d="M534.664,-124.375C513.474,-115.672 480.177,-101.608 452.012,-88 450.866,-87.4467 449.7,-86.8713 448.526,-86.2824"/>
<polygon fill="midnightblue" stroke="midnightblue" points="450.078,-83.1446 439.59,-81.6424 446.852,-89.357 450.078,-83.1446"/>
</g>
<!-- Node9 -->
<g id="node9" class="node"><title>Node9</title>
<polygon fill="white" stroke="#bfbfbf" points="335.512,-62.5 335.512,-81.5 386.512,-81.5 386.512,-62.5 335.512,-62.5"/>
<text text-anchor="middle" x="361.012" y="-69.5" font-family="Helvetica,sans-Serif" font-size="10.00">numeric</text>
</g>
<!-- Node7&#45;&gt;Node9 -->
<g id="edge11" class="edge"><title>Node7&#45;&gt;Node9</title>
<path fill="none" stroke="midnightblue" d="M520.642,-124.469C487.943,-116.25 438.184,-102.896 396.012,-88 393.75,-87.2012 391.426,-86.3275 389.104,-85.4162"/>
<polygon fill="midnightblue" stroke="midnightblue" points="390.303,-82.125 379.724,-81.554 387.638,-88.5978 390.303,-82.125"/>
</g>
<!-- Node10 -->
<g id="node10" class="node"><title>Node10</title>
<polygon fill="white" stroke="#bfbfbf" points="738.012,-0.5 738.012,-19.5 794.012,-19.5 794.012,-0.5 738.012,-0.5"/>
<text text-anchor="middle" x="766.012" y="-7.5" font-family="Helvetica,sans-Serif" font-size="10.00">algorithm</text>
</g>
<!-- Node7&#45;&gt;Node10 -->
<g id="edge12" class="edge"><title>Node7&#45;&gt;Node10</title>
<path fill="none" stroke="midnightblue" d="M553.725,-124.366C550.138,-108.677 545.207,-75.3261 562.012,-56 583.318,-31.4966 674.625,-19.2555 727.583,-14.1108"/>
<polygon fill="midnightblue" stroke="midnightblue" points="727.999,-17.5874 737.631,-13.175 727.349,-10.6175 727.999,-17.5874"/>
</g>
<!-- Node11 -->
<g id="node11" class="node"><title>Node11</title>
<polygon fill="white" stroke="#bfbfbf" points="571.012,-62.5 571.012,-81.5 615.012,-81.5 615.012,-62.5 571.012,-62.5"/>
<text text-anchor="middle" x="593.012" y="-69.5" font-family="Helvetica,sans-Serif" font-size="10.00">cmath</text>
</g>
<!-- Node7&#45;&gt;Node11 -->
<g id="edge13" class="edge"><title>Node7&#45;&gt;Node11</title>
<path fill="none" stroke="midnightblue" d="M561.313,-124.403C566.808,-115.493 575.545,-101.325 582.456,-90.1177"/>
<polygon fill="midnightblue" stroke="midnightblue" points="585.45,-91.9294 587.72,-81.5806 579.492,-88.2552 585.45,-91.9294"/>
</g>
<!-- Node12 -->
<g id="node12" class="node"><title>Node12</title>
<polygon fill="white" stroke="#bfbfbf" points="633.512,-62.5 633.512,-81.5 692.512,-81.5 692.512,-62.5 633.512,-62.5"/>
<text text-anchor="middle" x="663.012" y="-69.5" font-family="Helvetica,sans-Serif" font-size="10.00">stdexcept</text>
</g>
<!-- Node7&#45;&gt;Node12 -->
<g id="edge15" class="edge"><title>Node7&#45;&gt;Node12</title>
<path fill="none" stroke="midnightblue" d="M571.342,-124.403C588.981,-114.512 618.171,-98.1442 638.869,-86.5378"/>
<polygon fill="midnightblue" stroke="midnightblue" points="640.699,-89.5244 647.71,-81.5806 637.275,-83.4188 640.699,-89.5244"/>
</g>
<!-- Node13&#45;&gt;Node2 -->
<g id="edge17" class="edge"><title>Node13&#45;&gt;Node2</title>
<path fill="none" stroke="midnightblue" d="M73.263,-124.338C74.1874,-108.603 78.374,-75.181 97.0116,-56 123.131,-29.1194 166.003,-18.2899 195.548,-13.9307"/>
<polygon fill="midnightblue" stroke="midnightblue" points="196.31,-17.3611 205.774,-12.5996 195.406,-10.4197 196.31,-17.3611"/>
</g>
<!-- Node14 -->
<g id="node14" class="node"><title>Node14</title>
<polygon fill="white" stroke="#bfbfbf" points="177.512,-57 177.512,-87 278.512,-87 278.512,-57 177.512,-57"/>
<text text-anchor="start" x="185.512" y="-75" font-family="Helvetica,sans-Serif" font-size="10.00">boost/property_tree</text>
<text text-anchor="middle" x="228.012" y="-64" font-family="Helvetica,sans-Serif" font-size="10.00">/ptree.hpp</text>
</g>
<!-- Node13&#45;&gt;Node14 -->
<g id="edge18" class="edge"><title>Node13&#45;&gt;Node14</title>
<path fill="none" stroke="midnightblue" d="M95.2193,-124.403C117.857,-115.641 153.627,-101.794 182.341,-90.6789"/>
<polygon fill="midnightblue" stroke="midnightblue" points="183.717,-93.8993 191.78,-87.0253 181.19,-87.3713 183.717,-93.8993"/>
</g>
<!-- Node15&#45;&gt;Node2 -->
<g id="edge20" class="edge"><title>Node15&#45;&gt;Node2</title>
<path fill="none" stroke="midnightblue" d="M685.92,-181.409C682.568,-180.93 679.242,-180.456 676.012,-180 562.414,-163.951 239.567,-177.675 168.012,-88 159.141,-76.8832 161.651,-68.7207 168.012,-56 174.74,-42.5432 187.618,-32.0665 199.723,-24.6212"/>
<polygon fill="midnightblue" stroke="midnightblue" points="201.745,-27.4985 208.715,-19.5195 198.29,-21.4101 201.745,-27.4985"/>
</g>
<!-- Node15&#45;&gt;Node14 -->
<g id="edge21" class="edge"><title>Node15&#45;&gt;Node14</title>
<path fill="none" stroke="midnightblue" d="M687.886,-180.44C639.786,-172.001 565.186,-158.32 501.012,-144 406.62,-122.938 381.367,-114.192 288.468,-89.4483"/>
<polygon fill="midnightblue" stroke="midnightblue" points="289.215,-86.0254 278.652,-86.8412 287.418,-92.7909 289.215,-86.0254"/>
</g>
<!-- Node16 -->
<g id="node16" class="node"><title>Node16</title>
<g id="a_node16"><a xlink:href="../../d2/de9/Exceptions_8hpp.html" target="_top" xlink:title="This class defines the ComPWA exception base&#45;class and provides a set of standard exceptions...">
<polygon fill="white" stroke="black" points="1183.01,-62.5 1183.01,-81.5 1291.01,-81.5 1291.01,-62.5 1183.01,-62.5"/>
<text text-anchor="middle" x="1237.01" y="-69.5" font-family="Helvetica,sans-Serif" font-size="10.00">Core/Exceptions.hpp</text>
</a>
</g>
</g>
<!-- Node15&#45;&gt;Node16 -->
<g id="edge22" class="edge"><title>Node15&#45;&gt;Node16</title>
<path fill="none" stroke="midnightblue" d="M790.223,-186.941C905.245,-181.984 1172.93,-167.992 1206.01,-144 1222.82,-131.809 1230.63,-108.503 1234.18,-91.9196"/>
<polygon fill="midnightblue" stroke="midnightblue" points="1237.69,-92.1948 1236.02,-81.7324 1230.8,-90.9527 1237.69,-92.1948"/>
</g>
<!-- Node18 -->
<g id="node18" class="node"><title>Node18</title>
<g id="a_node18"><a xlink:href="../../db/dce/Parameter_8hpp.html" target="_top" xlink:title="This class implements some internal container of parameters. ">
<polygon fill="white" stroke="red" points="686.012,-124.5 686.012,-143.5 790.012,-143.5 790.012,-124.5 686.012,-124.5"/>
<text text-anchor="middle" x="738.012" y="-131.5" font-family="Helvetica,sans-Serif" font-size="10.00">Core/Parameter.hpp</text>
</a>
</g>
</g>
<!-- Node15&#45;&gt;Node18 -->
<g id="edge25" class="edge"><title>Node15&#45;&gt;Node18</title>
<path fill="none" stroke="midnightblue" d="M738.012,-180.083C738.012,-173.006 738.012,-162.861 738.012,-153.986"/>
<polygon fill="midnightblue" stroke="midnightblue" points="741.512,-153.751 738.012,-143.751 734.512,-153.751 741.512,-153.751"/>
</g>
<!-- Node15&#45;&gt;Node21 -->
<g id="edge38" class="edge"><title>Node15&#45;&gt;Node21</title>
<path fill="none" stroke="midnightblue" d="M790.229,-183.292C861.324,-175.357 992.498,-160.141 1104.01,-144 1105.31,-143.812 1106.62,-143.619 1107.95,-143.421"/>
<polygon fill="midnightblue" stroke="midnightblue" points="1108.88,-146.817 1118.23,-141.828 1107.81,-139.9 1108.88,-146.817"/>
</g>
<!-- Node16&#45;&gt;Node3 -->
<g id="edge24" class="edge"><title>Node16&#45;&gt;Node3</title>
<path fill="none" stroke="midnightblue" d="M1222.54,-62.4035C1205.97,-52.5569 1178.59,-36.2915 1159.06,-24.6949"/>
<polygon fill="midnightblue" stroke="midnightblue" points="1160.84,-21.6789 1150.46,-19.5806 1157.27,-27.6971 1160.84,-21.6789"/>
</g>
<!-- Node17 -->
<g id="node17" class="node"><title>Node17</title>
<polygon fill="white" stroke="#bfbfbf" points="1207.51,-0.5 1207.51,-19.5 1266.51,-19.5 1266.51,-0.5 1207.51,-0.5"/>
<text text-anchor="middle" x="1237.01" y="-7.5" font-family="Helvetica,sans-Serif" font-size="10.00">exception</text>
</g>
<!-- Node16&#45;&gt;Node17 -->
<g id="edge23" class="edge"><title>Node16&#45;&gt;Node17</title>
<path fill="none" stroke="midnightblue" d="M1237.01,-62.4035C1237.01,-53.9381 1237.01,-40.7283 1237.01,-29.8199"/>
<polygon fill="midnightblue" stroke="midnightblue" points="1240.51,-29.5806 1237.01,-19.5806 1233.51,-29.5806 1240.51,-29.5806"/>
</g>
<!-- Node18&#45;&gt;Node3 -->
<g id="edge27" class="edge"><title>Node18&#45;&gt;Node3</title>
<path fill="none" stroke="midnightblue" d="M790.047,-129.786C868.751,-124.25 1013.79,-111.21 1060.01,-88 1087.6,-74.1463 1111.09,-46.3443 1124.37,-28.2135"/>
<polygon fill="midnightblue" stroke="midnightblue" points="1127.45,-29.9267 1130.35,-19.7389 1121.73,-25.8892 1127.45,-29.9267"/>
</g>
<!-- Node18&#45;&gt;Node4 -->
<g id="edge29" class="edge"><title>Node18&#45;&gt;Node4</title>
<path fill="none" stroke="midnightblue" d="M702.458,-124.467C655.236,-113.134 572.249,-93.217 524.54,-81.7669"/>
<polygon fill="midnightblue" stroke="midnightblue" points="525.177,-78.3204 514.636,-79.39 523.543,-85.1271 525.177,-78.3204"/>
</g>
<!-- Node18&#45;&gt;Node6 -->
<g id="edge26" class="edge"><title>Node18&#45;&gt;Node6</title>
<path fill="none" stroke="midnightblue" d="M738.012,-124.403C738.012,-115.938 738.012,-102.728 738.012,-91.8199"/>
<polygon fill="midnightblue" stroke="midnightblue" points="741.512,-91.5806 738.012,-81.5806 734.512,-91.5806 741.512,-91.5806"/>
</g>
<!-- Node18&#45;&gt;Node11 -->
<g id="edge31" class="edge"><title>Node18&#45;&gt;Node11</title>
<path fill="none" stroke="midnightblue" d="M714.658,-124.367C691.467,-115.656 654.995,-101.588 624.012,-88 622.608,-87.3846 621.176,-86.7422 619.733,-86.0842"/>
<polygon fill="midnightblue" stroke="midnightblue" points="620.823,-82.7292 610.285,-81.6398 617.844,-89.0635 620.823,-82.7292"/>
</g>
<!-- Node18&#45;&gt;Node12 -->
<g id="edge30" class="edge"><title>Node18&#45;&gt;Node12</title>
<path fill="none" stroke="midnightblue" d="M727.266,-124.403C715.459,-114.958 696.269,-99.6056 681.929,-88.1342"/>
<polygon fill="midnightblue" stroke="midnightblue" points="683.732,-85.0945 673.737,-81.5806 679.36,-90.5606 683.732,-85.0945"/>
</g>
<!-- Node18&#45;&gt;Node14 -->
<g id="edge32" class="edge"><title>Node18&#45;&gt;Node14</title>
<path fill="none" stroke="midnightblue" d="M685.895,-128.034C607.63,-120.413 455.142,-104.926 326.012,-88 313.945,-86.4184 301.069,-84.5662 288.75,-82.7136"/>
<polygon fill="midnightblue" stroke="midnightblue" points="288.976,-79.2078 278.564,-81.1632 287.923,-86.1281 288.976,-79.2078"/>
</g>
<!-- Node18&#45;&gt;Node16 -->
<g id="edge37" class="edge"><title>Node18&#45;&gt;Node16</title>
<path fill="none" stroke="midnightblue" d="M790.47,-126.692C882.641,-115.61 1073.31,-92.6832 1173.05,-80.6908"/>
<polygon fill="midnightblue" stroke="midnightblue" points="1173.49,-84.1637 1183,-79.4948 1172.65,-77.2137 1173.49,-84.1637"/>
</g>
<!-- Node19 -->
<g id="node19" class="node"><title>Node19</title>
<polygon fill="white" stroke="#bfbfbf" points="783.012,-62.5 783.012,-81.5 835.012,-81.5 835.012,-62.5 783.012,-62.5"/>
<text text-anchor="middle" x="809.012" y="-69.5" font-family="Helvetica,sans-Serif" font-size="10.00">sstream</text>
</g>
<!-- Node18&#45;&gt;Node19 -->
<g id="edge28" class="edge"><title>Node18&#45;&gt;Node19</title>
<path fill="none" stroke="midnightblue" d="M748.184,-124.403C759.361,-114.958 777.528,-99.6056 791.103,-88.1342"/>
<polygon fill="midnightblue" stroke="midnightblue" points="793.479,-90.7085 798.858,-81.5806 788.961,-85.3619 793.479,-90.7085"/>
</g>
<!-- Node20 -->
<g id="node20" class="node"><title>Node20</title>
<g id="a_node20"><a xlink:href="../../d8/def/AbsParameter_8hpp.html" target="_top" xlink:title="This class defines the internal container of a parameter. ">
<polygon fill="white" stroke="red" points="929.012,-62.5 929.012,-81.5 1051.01,-81.5 1051.01,-62.5 929.012,-62.5"/>
<text text-anchor="middle" x="990.012" y="-69.5" font-family="Helvetica,sans-Serif" font-size="10.00">Core/AbsParameter.hpp</text>
</a>
</g>
</g>
<!-- Node18&#45;&gt;Node20 -->
<g id="edge33" class="edge"><title>Node18&#45;&gt;Node20</title>
<path fill="none" stroke="midnightblue" d="M773.849,-124.467C818.631,-113.805 895.322,-95.5452 944.29,-83.886"/>
<polygon fill="midnightblue" stroke="midnightblue" points="945.38,-87.2245 954.297,-81.5034 943.759,-80.4148 945.38,-87.2245"/>
</g>
<!-- Node20&#45;&gt;Node2 -->
<g id="edge35" class="edge"><title>Node20&#45;&gt;Node2</title>
<path fill="none" stroke="midnightblue" d="M952.404,-62.4684C940.5,-60.0401 927.254,-57.618 915.012,-56 664.311,-22.8665 358.765,-13.7635 260.256,-11.6018"/>
<polygon fill="midnightblue" stroke="midnightblue" points="260.136,-8.09861 250.064,-11.3871 259.988,-15.0971 260.136,-8.09861"/>
</g>
<!-- Node20&#45;&gt;Node3 -->
<g id="edge34" class="edge"><title>Node20&#45;&gt;Node3</title>
<path fill="none" stroke="midnightblue" d="M1010.93,-62.4035C1035.76,-52.2004 1077.35,-35.1055 1105.71,-23.4544"/>
<polygon fill="midnightblue" stroke="midnightblue" points="1107.21,-26.6191 1115.13,-19.5806 1104.55,-20.1445 1107.21,-26.6191"/>
</g>
<!-- Node20&#45;&gt;Node10 -->
<g id="edge36" class="edge"><title>Node20&#45;&gt;Node10</title>
<path fill="none" stroke="midnightblue" d="M957.918,-62.4035C917.264,-51.514 847.302,-32.7741 804.019,-21.1806"/>
<polygon fill="midnightblue" stroke="midnightblue" points="804.718,-17.7444 794.153,-18.5378 802.907,-24.5061 804.718,-17.7444"/>
</g>
<!-- Node21&#45;&gt;Node2 -->
<g id="edge41" class="edge"><title>Node21&#45;&gt;Node2</title>
<path fill="none" stroke="midnightblue" d="M1118.25,-132.208C1063.94,-129.854 964.474,-120.948 887.012,-88 865.09,-78.6758 866.337,-64.3105 844.012,-56 735.451,-15.5898 371.369,-11.3367 260.394,-10.9933"/>
<polygon fill="midnightblue" stroke="midnightblue" points="260.177,-7.49295 250.169,-10.9709 260.161,-14.4929 260.177,-7.49295"/>
</g>
<!-- Node21&#45;&gt;Node3 -->
<g id="edge39" class="edge"><title>Node21&#45;&gt;Node3</title>
<path fill="none" stroke="midnightblue" d="M1156.43,-124.226C1152.88,-104.53 1144.21,-56.4371 1139.38,-29.7004"/>
<polygon fill="midnightblue" stroke="midnightblue" points="1142.8,-28.9146 1137.58,-19.6944 1135.91,-30.1569 1142.8,-28.9146"/>
</g>
<!-- Node21&#45;&gt;Node6 -->
<g id="edge42" class="edge"><title>Node21&#45;&gt;Node6</title>
<path fill="none" stroke="midnightblue" d="M1118.37,-131.971C1047.96,-129.349 896.911,-120.132 774.012,-88 771.187,-87.2614 768.292,-86.346 765.431,-85.3343"/>
<polygon fill="midnightblue" stroke="midnightblue" points="766.573,-82.0229 755.985,-81.6407 764.024,-88.5422 766.573,-82.0229"/>
</g>
<!-- Node21&#45;&gt;Node16 -->
<g id="edge43" class="edge"><title>Node21&#45;&gt;Node16</title>
<path fill="none" stroke="midnightblue" d="M1169.33,-124.403C1181.88,-114.869 1202.36,-99.3154 1217.51,-87.8106"/>
<polygon fill="midnightblue" stroke="midnightblue" points="1219.87,-90.4162 1225.71,-81.5806 1215.63,-84.8417 1219.87,-90.4162"/>
</g>
<!-- Node22 -->
<g id="node22" class="node"><title>Node22</title>
<polygon fill="white" stroke="#bfbfbf" points="1347.51,-62.5 1347.51,-81.5 1382.51,-81.5 1382.51,-62.5 1347.51,-62.5"/>
<text text-anchor="middle" x="1365.01" y="-69.5" font-family="Helvetica,sans-Serif" font-size="10.00">map</text>
</g>
<!-- Node21&#45;&gt;Node22 -->
<g id="edge40" class="edge"><title>Node21&#45;&gt;Node22</title>
<path fill="none" stroke="midnightblue" d="M1187.67,-124.403C1227.79,-112.773 1298.81,-92.1874 1337.69,-80.918"/>
<polygon fill="midnightblue" stroke="midnightblue" points="1338.67,-84.2787 1347.3,-78.133 1336.72,-77.5554 1338.67,-84.2787"/>
</g>
<!-- Node23&#45;&gt;Node2 -->
<g id="edge48" class="edge"><title>Node23&#45;&gt;Node2</title>
<path fill="none" stroke="midnightblue" d="M1347.14,-129.812C1231.34,-122.454 958.875,-103.712 920.012,-88 898.905,-79.4665 901.222,-64.2715 880.012,-56 765.188,-11.2229 375.721,-10.036 260.425,-10.703"/>
<polygon fill="midnightblue" stroke="midnightblue" points="260.118,-7.20489 250.141,-10.7719 260.165,-14.2047 260.118,-7.20489"/>
</g>
<!-- Node23&#45;&gt;Node22 -->
<g id="edge49" class="edge"><title>Node23&#45;&gt;Node22</title>
<path fill="none" stroke="midnightblue" d="M1394.14,-124.403C1389.14,-115.582 1381.22,-101.608 1374.9,-90.4548"/>
<polygon fill="midnightblue" stroke="midnightblue" points="1377.85,-88.5553 1369.87,-81.5806 1371.76,-92.0064 1377.85,-88.5553"/>
</g>
<!-- Node24 -->
<g id="node24" class="node"><title>Node24</title>
<polygon fill="white" stroke="#bfbfbf" points="1400.51,-62.5 1400.51,-81.5 1445.51,-81.5 1445.51,-62.5 1400.51,-62.5"/>
<text text-anchor="middle" x="1423.01" y="-69.5" font-family="Helvetica,sans-Serif" font-size="10.00">cstdlib</text>
</g>
<!-- Node23&#45;&gt;Node24 -->
<g id="edge46" class="edge"><title>Node23&#45;&gt;Node24</title>
<path fill="none" stroke="midnightblue" d="M1402.45,-124.403C1405.91,-115.76 1411.34,-102.17 1415.76,-91.1341"/>
<polygon fill="midnightblue" stroke="midnightblue" points="1419.12,-92.1653 1419.58,-81.5806 1412.62,-89.5655 1419.12,-92.1653"/>
</g>
<!-- Node25 -->
<g id="node25" class="node"><title>Node25</title>
<polygon fill="white" stroke="#bfbfbf" points="1463.51,-62.5 1463.51,-81.5 1510.51,-81.5 1510.51,-62.5 1463.51,-62.5"/>
<text text-anchor="middle" x="1487.01" y="-69.5" font-family="Helvetica,sans-Serif" font-size="10.00">math.h</text>
</g>
<!-- Node23&#45;&gt;Node25 -->
<g id="edge47" class="edge"><title>Node23&#45;&gt;Node25</title>
<path fill="none" stroke="midnightblue" d="M1411.62,-124.403C1425.73,-114.78 1448.84,-99.0242 1465.76,-87.4891"/>
<polygon fill="midnightblue" stroke="midnightblue" points="1468.14,-90.1058 1474.43,-81.5806 1464.19,-84.3222 1468.14,-90.1058"/>
</g>
</g>
</svg>
