<?xml version="1.0" encoding="UTF-8" standalone="no"?>
<!DOCTYPE svg PUBLIC "-//W3C//DTD SVG 1.1//EN"
 "http://www.w3.org/Graphics/SVG/1.1/DTD/svg11.dtd">
<!-- Generated by graphviz version 2.36.0 (20140111.2315)
 -->
<!-- Title: /home/travis/build/ComPWA/ComPWA/Core/TwoBodyKinematics.cpp Pages: 1 -->
<svg width="1187pt" height="330pt"
 viewBox="0.00 0.00 1187.32 330.00" xmlns="http://www.w3.org/2000/svg" xmlns:xlink="http://www.w3.org/1999/xlink">
<g id="graph0" class="graph" transform="scale(1 1) rotate(0) translate(4 326)">
<title>/home/travis/build/ComPWA/ComPWA/Core/TwoBodyKinematics.cpp</title>
<polygon fill="white" stroke="none" points="-4,4 -4,-326 1183.32,-326 1183.32,4 -4,4"/>
<!-- Node1 -->
<g id="node1" class="node"><title>Node1</title>
<polygon fill="#bfbfbf" stroke="black" points="805.816,-280.5 805.816,-321.5 940.816,-321.5 940.816,-280.5 805.816,-280.5"/>
<text text-anchor="start" x="813.816" y="-309.5" font-family="Helvetica,sans-Serif" font-size="10.00">/home/travis/build</text>
<text text-anchor="start" x="813.816" y="-298.5" font-family="Helvetica,sans-Serif" font-size="10.00">/ComPWA/ComPWA/Core</text>
<text text-anchor="middle" x="873.316" y="-287.5" font-family="Helvetica,sans-Serif" font-size="10.00">/TwoBodyKinematics.cpp</text>
</g>
<!-- Node2 -->
<g id="node2" class="node"><title>Node2</title>
<g id="a_node2"><a xlink:href="../../db/d76/TwoBodyKinematics_8hpp.html" target="_top" xlink:title="Core/TwoBodyKinematics.hpp">
<polygon fill="white" stroke="black" points="798.816,-224.5 798.816,-243.5 947.816,-243.5 947.816,-224.5 798.816,-224.5"/>
<text text-anchor="middle" x="873.316" y="-231.5" font-family="Helvetica,sans-Serif" font-size="10.00">Core/TwoBodyKinematics.hpp</text>
</a>
</g>
</g>
<!-- Node1&#45;&gt;Node2 -->
<g id="edge1" class="edge"><title>Node1&#45;&gt;Node2</title>
<path fill="none" stroke="midnightblue" d="M873.316,-280.498C873.316,-272.065 873.316,-262.235 873.316,-253.874"/>
<polygon fill="midnightblue" stroke="midnightblue" points="876.816,-253.652 873.316,-243.652 869.816,-253.653 876.816,-253.652"/>
</g>
<!-- Node12 -->
<g id="node12" class="node"><title>Node12</title>
<g id="a_node12"><a xlink:href="../../d8/d35/PhysConst_8hpp.html" target="_top" xlink:title="PhysConst provides particle information to the framework. ">
<polygon fill="white" stroke="black" points="672.316,-224.5 672.316,-243.5 780.316,-243.5 780.316,-224.5 672.316,-224.5"/>
<text text-anchor="middle" x="726.316" y="-231.5" font-family="Helvetica,sans-Serif" font-size="10.00">Core/PhysConst.hpp</text>
</a>
</g>
</g>
<!-- Node1&#45;&gt;Node12 -->
<g id="edge17" class="edge"><title>Node1&#45;&gt;Node12</title>
<path fill="none" stroke="midnightblue" d="M829.212,-280.498C805.265,-269.909 776.334,-257.117 755.257,-247.797"/>
<polygon fill="midnightblue" stroke="midnightblue" points="756.446,-244.496 745.884,-243.652 753.615,-250.898 756.446,-244.496"/>
</g>
<!-- Node19 -->
<g id="node19" class="node"><title>Node19</title>
<g id="a_node19"><a xlink:href="../../d8/dd4/DataPoint_8hpp.html" target="_top" xlink:title="dataPoint stores kinematic information of a dalitz plot ">
<polygon fill="white" stroke="black" points="967.816,-224.5 967.816,-243.5 1070.82,-243.5 1070.82,-224.5 967.816,-224.5"/>
<text text-anchor="middle" x="1019.32" y="-231.5" font-family="Helvetica,sans-Serif" font-size="10.00">Core/DataPoint.hpp</text>
</a>
</g>
</g>
<!-- Node1&#45;&gt;Node19 -->
<g id="edge33" class="edge"><title>Node1&#45;&gt;Node19</title>
<path fill="none" stroke="midnightblue" d="M917.121,-280.498C940.905,-269.909 969.638,-257.117 990.573,-247.797"/>
<polygon fill="midnightblue" stroke="midnightblue" points="992.17,-250.917 999.882,-243.652 989.322,-244.522 992.17,-250.917"/>
</g>
<!-- Node3 -->
<g id="node3" class="node"><title>Node3</title>
<g id="a_node3"><a xlink:href="../../d4/d37/Kinematics_8hpp.html" target="_top" xlink:title="Core/Kinematics.hpp">
<polygon fill="white" stroke="black" points="818.316,-168.5 818.316,-187.5 926.316,-187.5 926.316,-168.5 818.316,-168.5"/>
<text text-anchor="middle" x="872.316" y="-175.5" font-family="Helvetica,sans-Serif" font-size="10.00">Core/Kinematics.hpp</text>
</a>
</g>
</g>
<!-- Node2&#45;&gt;Node3 -->
<g id="edge2" class="edge"><title>Node2&#45;&gt;Node3</title>
<path fill="none" stroke="midnightblue" d="M873.151,-224.083C873.02,-217.006 872.832,-206.861 872.668,-197.986"/>
<polygon fill="midnightblue" stroke="midnightblue" points="876.163,-197.685 872.478,-187.751 869.164,-197.814 876.163,-197.685"/>
</g>
<!-- Node4 -->
<g id="node4" class="node"><title>Node4</title>
<polygon fill="white" stroke="#bfbfbf" points="828.316,-56.5 828.316,-75.5 872.316,-75.5 872.316,-56.5 828.316,-56.5"/>
<text text-anchor="middle" x="850.316" y="-63.5" font-family="Helvetica,sans-Serif" font-size="10.00">vector</text>
</g>
<!-- Node3&#45;&gt;Node4 -->
<g id="edge3" class="edge"><title>Node3&#45;&gt;Node4</title>
<path fill="none" stroke="midnightblue" d="M871.727,-168.085C870.78,-155.481 868.576,-131.785 864.316,-112 862.377,-102.99 859.434,-93.1971 856.746,-85.0542"/>
<polygon fill="midnightblue" stroke="midnightblue" points="860.024,-83.8249 853.465,-75.5048 853.404,-86.0995 860.024,-83.8249"/>
</g>
<!-- Node5 -->
<g id="node5" class="node"><title>Node5</title>
<polygon fill="white" stroke="#bfbfbf" points="635.816,-0.5 635.816,-19.5 676.816,-19.5 676.816,-0.5 635.816,-0.5"/>
<text text-anchor="middle" x="656.316" y="-7.5" font-family="Helvetica,sans-Serif" font-size="10.00">string</text>
</g>
<!-- Node3&#45;&gt;Node5 -->
<g id="edge4" class="edge"><title>Node3&#45;&gt;Node5</title>
<path fill="none" stroke="midnightblue" d="M916.568,-168.428C952.526,-160.458 999.067,-147.5 1010.32,-132 1015.54,-124.806 1013.6,-120.258 1010.32,-112 997.639,-80.1627 987.702,-71.8444 957.316,-56 910.717,-31.701 754.791,-17.9937 687.58,-13.0895"/>
<polygon fill="midnightblue" stroke="midnightblue" points="687.438,-9.57059 677.214,-12.352 686.941,-16.5529 687.438,-9.57059"/>
</g>
<!-- Node6 -->
<g id="node6" class="node"><title>Node6</title>
<polygon fill="white" stroke="#bfbfbf" points="588.816,-112.5 588.816,-131.5 641.816,-131.5 641.816,-112.5 588.816,-112.5"/>
<text text-anchor="middle" x="615.316" y="-119.5" font-family="Helvetica,sans-Serif" font-size="10.00">complex</text>
</g>
<!-- Node3&#45;&gt;Node6 -->
<g id="edge5" class="edge"><title>Node3&#45;&gt;Node6</title>
<path fill="none" stroke="midnightblue" d="M831.594,-168.444C782.146,-158.054 699.48,-140.684 651.952,-130.698"/>
<polygon fill="midnightblue" stroke="midnightblue" points="652.59,-127.255 642.084,-128.624 651.151,-134.106 652.59,-127.255"/>
</g>
<!-- Node7 -->
<g id="node7" class="node"><title>Node7</title>
<g id="a_node7"><a xlink:href="../../df/d7d/Event_8hpp.html" target="_top" xlink:title="This class provides a internal container for event&#45;based information. ">
<polygon fill="white" stroke="red" points="916.816,-112.5 916.816,-131.5 1001.82,-131.5 1001.82,-112.5 916.816,-112.5"/>
<text text-anchor="middle" x="959.316" y="-119.5" font-family="Helvetica,sans-Serif" font-size="10.00">Core/Event.hpp</text>
</a>
</g>
</g>
<!-- Node3&#45;&gt;Node7 -->
<g id="edge6" class="edge"><title>Node3&#45;&gt;Node7</title>
<path fill="none" stroke="midnightblue" d="M886.294,-168.324C899.866,-159.9 920.697,-146.971 936.641,-137.074"/>
<polygon fill="midnightblue" stroke="midnightblue" points="938.722,-139.902 945.373,-131.655 935.031,-133.954 938.722,-139.902"/>
</g>
<!-- Node9 -->
<g id="node9" class="node"><title>Node9</title>
<g id="a_node9"><a xlink:href="../../d4/d03/Utility_8hpp.html" target="_top" xlink:title="Basic structures for amplitude calculations. ">
<polygon fill="white" stroke="black" points="698.816,-112.5 698.816,-131.5 783.816,-131.5 783.816,-112.5 698.816,-112.5"/>
<text text-anchor="middle" x="741.316" y="-119.5" font-family="Helvetica,sans-Serif" font-size="10.00">Core/Utility.hpp</text>
</a>
</g>
</g>
<!-- Node3&#45;&gt;Node9 -->
<g id="edge10" class="edge"><title>Node3&#45;&gt;Node9</title>
<path fill="none" stroke="midnightblue" d="M851.559,-168.444C830,-159.557 796.053,-145.563 771.523,-135.451"/>
<polygon fill="midnightblue" stroke="midnightblue" points="772.556,-132.092 761.977,-131.516 769.888,-138.563 772.556,-132.092"/>
</g>
<!-- Node7&#45;&gt;Node4 -->
<g id="edge7" class="edge"><title>Node7&#45;&gt;Node4</title>
<path fill="none" stroke="midnightblue" d="M941.804,-112.324C924.244,-103.625 896.985,-90.1202 876.785,-80.113"/>
<polygon fill="midnightblue" stroke="midnightblue" points="878.3,-76.9575 867.786,-75.6545 875.193,-83.23 878.3,-76.9575"/>
</g>
<!-- Node7&#45;&gt;Node5 -->
<g id="edge8" class="edge"><title>Node7&#45;&gt;Node5</title>
<path fill="none" stroke="midnightblue" d="M958.79,-112.267C957.435,-98.0877 952.594,-70.2165 935.316,-56 897.89,-25.2047 752.056,-15.1399 687.435,-12.1498"/>
<polygon fill="midnightblue" stroke="midnightblue" points="687.215,-8.63703 677.072,-11.6993 686.911,-15.6304 687.215,-8.63703"/>
</g>
<!-- Node8 -->
<g id="node8" class="node"><title>Node8</title>
<polygon fill="white" stroke="#bfbfbf" points="647.316,-56.5 647.316,-75.5 701.316,-75.5 701.316,-56.5 647.316,-56.5"/>
<text text-anchor="middle" x="674.316" y="-63.5" font-family="Helvetica,sans-Serif" font-size="10.00">iostream</text>
</g>
<!-- Node7&#45;&gt;Node8 -->
<g id="edge9" class="edge"><title>Node7&#45;&gt;Node8</title>
<path fill="none" stroke="midnightblue" d="M916.649,-112.916C860.892,-102.351 764.157,-84.0224 711.341,-74.0152"/>
<polygon fill="midnightblue" stroke="midnightblue" points="711.865,-70.5523 701.388,-72.1294 710.562,-77.43 711.865,-70.5523"/>
</g>
<!-- Node9&#45;&gt;Node4 -->
<g id="edge13" class="edge"><title>Node9&#45;&gt;Node4</title>
<path fill="none" stroke="midnightblue" d="M758.829,-112.324C776.389,-103.625 803.648,-90.1202 823.848,-80.113"/>
<polygon fill="midnightblue" stroke="midnightblue" points="825.44,-83.23 832.847,-75.6545 822.333,-76.9575 825.44,-83.23"/>
</g>
<!-- Node9&#45;&gt;Node5 -->
<g id="edge11" class="edge"><title>Node9&#45;&gt;Node5</title>
<path fill="none" stroke="midnightblue" d="M738.543,-112.35C734.056,-99.241 724.277,-73.9683 710.316,-56 701.218,-44.29 688.59,-33.5577 677.834,-25.5134"/>
<polygon fill="midnightblue" stroke="midnightblue" points="679.873,-22.6691 669.711,-19.6709 675.786,-28.3517 679.873,-22.6691"/>
</g>
<!-- Node9&#45;&gt;Node8 -->
<g id="edge14" class="edge"><title>Node9&#45;&gt;Node8</title>
<path fill="none" stroke="midnightblue" d="M730.552,-112.324C720.55,-104.263 705.43,-92.0765 693.386,-82.3695"/>
<polygon fill="midnightblue" stroke="midnightblue" points="695.259,-79.3841 685.277,-75.8339 690.867,-84.8343 695.259,-79.3841"/>
</g>
<!-- Node10 -->
<g id="node10" class="node"><title>Node10</title>
<polygon fill="white" stroke="#bfbfbf" points="891.816,-56.5 891.816,-75.5 926.816,-75.5 926.816,-56.5 891.816,-56.5"/>
<text text-anchor="middle" x="909.316" y="-63.5" font-family="Helvetica,sans-Serif" font-size="10.00">map</text>
</g>
<!-- Node9&#45;&gt;Node10 -->
<g id="edge12" class="edge"><title>Node9&#45;&gt;Node10</title>
<path fill="none" stroke="midnightblue" d="M767.936,-112.444C799.025,-102.451 850.201,-86.0013 881.708,-75.874"/>
<polygon fill="midnightblue" stroke="midnightblue" points="883.133,-79.0926 891.582,-72.7003 880.991,-72.4284 883.133,-79.0926"/>
</g>
<!-- Node11 -->
<g id="node11" class="node"><title>Node11</title>
<g id="a_node11"><a xlink:href="../../d2/de9/Exceptions_8hpp.html" target="_top" xlink:title="This class defines the ComPWA exception base&#45;class and provides a set of standard exceptions...">
<polygon fill="white" stroke="red" points="521.316,-56.5 521.316,-75.5 629.316,-75.5 629.316,-56.5 521.316,-56.5"/>
<text text-anchor="middle" x="575.316" y="-63.5" font-family="Helvetica,sans-Serif" font-size="10.00">Core/Exceptions.hpp</text>
</a>
</g>
</g>
<!-- Node9&#45;&gt;Node11 -->
<g id="edge15" class="edge"><title>Node9&#45;&gt;Node11</title>
<path fill="none" stroke="midnightblue" d="M715.013,-112.444C686.966,-103.32 642.372,-88.8133 611.132,-78.6509"/>
<polygon fill="midnightblue" stroke="midnightblue" points="612.089,-75.2816 601.496,-75.5164 609.923,-81.9383 612.089,-75.2816"/>
</g>
<!-- Node11&#45;&gt;Node5 -->
<g id="edge16" class="edge"><title>Node11&#45;&gt;Node5</title>
<path fill="none" stroke="midnightblue" d="M588.33,-56.324C600.848,-47.979 619.998,-35.2122 634.788,-25.3524"/>
<polygon fill="midnightblue" stroke="midnightblue" points="636.956,-28.1137 643.335,-19.6545 633.073,-22.2894 636.956,-28.1137"/>
</g>
<!-- Node12&#45;&gt;Node4 -->
<g id="edge19" class="edge"><title>Node12&#45;&gt;Node4</title>
<path fill="none" stroke="midnightblue" d="M735.453,-224.484C752.906,-207.89 791.537,-169.555 817.316,-132 827.489,-117.18 836.532,-98.7971 842.567,-85.366"/>
<polygon fill="midnightblue" stroke="midnightblue" points="845.941,-86.3847 846.727,-75.819 839.524,-83.5887 845.941,-86.3847"/>
</g>
<!-- Node12&#45;&gt;Node8 -->
<g id="edge18" class="edge"><title>Node12&#45;&gt;Node8</title>
<path fill="none" stroke="midnightblue" d="M672.304,-229.27C610.92,-221.793 513.416,-199.344 468.316,-132 408.433,-42.5804 348.825,-140.871 637.252,-76.156"/>
<polygon fill="midnightblue" stroke="midnightblue" points="638.242,-79.5202 647.215,-73.8873 636.687,-72.695 638.242,-79.5202"/>
</g>
<!-- Node12&#45;&gt;Node9 -->
<g id="edge32" class="edge"><title>Node12&#45;&gt;Node9</title>
<path fill="none" stroke="midnightblue" d="M727.493,-224.368C729.914,-206.617 735.498,-165.666 738.78,-141.597"/>
<polygon fill="midnightblue" stroke="midnightblue" points="742.261,-141.973 740.145,-131.591 735.326,-141.027 742.261,-141.973"/>
</g>
<!-- Node13 -->
<g id="node13" class="node"><title>Node13</title>
<g id="a_node13"><a xlink:href="../../db/dce/Parameter_8hpp.html" target="_top" xlink:title="This class implements some internal container of parameters. ">
<polygon fill="white" stroke="black" points="200.316,-168.5 200.316,-187.5 304.316,-187.5 304.316,-168.5 200.316,-168.5"/>
<text text-anchor="middle" x="252.316" y="-175.5" font-family="Helvetica,sans-Serif" font-size="10.00">Core/Parameter.hpp</text>
</a>
</g>
</g>
<!-- Node12&#45;&gt;Node13 -->
<g id="edge20" class="edge"><title>Node12&#45;&gt;Node13</title>
<path fill="none" stroke="midnightblue" d="M671.943,-226.806C583.345,-216.712 408.349,-196.776 314.782,-186.116"/>
<polygon fill="midnightblue" stroke="midnightblue" points="314.944,-182.612 304.612,-184.958 314.151,-189.567 314.944,-182.612"/>
</g>
<!-- Node13&#45;&gt;Node5 -->
<g id="edge22" class="edge"><title>Node13&#45;&gt;Node5</title>
<path fill="none" stroke="midnightblue" d="M200.073,-175.117C134.821,-171.54 28.7498,-161.266 4.31635,-132 -1.38039,-125.177 -1.46798,-118.749 4.31635,-112 86.1756,-16.4838 507.525,-10.5205 625.553,-10.7532"/>
<polygon fill="midnightblue" stroke="midnightblue" points="625.688,-14.2536 635.701,-10.7906 625.714,-7.25367 625.688,-14.2536"/>
</g>
<!-- Node13&#45;&gt;Node6 -->
<g id="edge24" class="edge"><title>Node13&#45;&gt;Node6</title>
<path fill="none" stroke="midnightblue" d="M304.422,-171.591C367.167,-164.686 475.899,-151.476 578.721,-131.92"/>
<polygon fill="midnightblue" stroke="midnightblue" points="579.494,-135.336 588.652,-130.008 578.17,-128.462 579.494,-135.336"/>
</g>
<!-- Node13&#45;&gt;Node8 -->
<g id="edge21" class="edge"><title>Node13&#45;&gt;Node8</title>
<path fill="none" stroke="midnightblue" d="M254.563,-168.495C258.849,-154.127 269.659,-125.311 290.316,-112 353.244,-71.45 546.644,-88.0941 637.271,-75.7572"/>
<polygon fill="midnightblue" stroke="midnightblue" points="637.937,-79.1958 647.278,-74.1968 636.858,-72.2794 637.937,-79.1958"/>
</g>
<!-- Node13&#45;&gt;Node11 -->
<g id="edge30" class="edge"><title>Node13&#45;&gt;Node11</title>
<path fill="none" stroke="midnightblue" d="M249.899,-168.071C246.719,-154.122 243.068,-127.188 257.316,-112 290.825,-76.2816 428.092,-68.3942 510.935,-66.9611"/>
<polygon fill="midnightblue" stroke="midnightblue" points="511.057,-70.4598 521.005,-66.8139 510.955,-63.4605 511.057,-70.4598"/>
</g>
<!-- Node14 -->
<g id="node14" class="node"><title>Node14</title>
<polygon fill="white" stroke="#bfbfbf" points="13.3164,-112.5 13.3164,-131.5 65.3164,-131.5 65.3164,-112.5 13.3164,-112.5"/>
<text text-anchor="middle" x="39.3164" y="-119.5" font-family="Helvetica,sans-Serif" font-size="10.00">sstream</text>
</g>
<!-- Node13&#45;&gt;Node14 -->
<g id="edge23" class="edge"><title>Node13&#45;&gt;Node14</title>
<path fill="none" stroke="midnightblue" d="M218.513,-168.498C184.729,-159.991 131.028,-146.443 75.6716,-132.339"/>
<polygon fill="midnightblue" stroke="midnightblue" points="76.2414,-128.872 65.6867,-129.793 74.5121,-135.655 76.2414,-128.872"/>
</g>
<!-- Node15 -->
<g id="node15" class="node"><title>Node15</title>
<polygon fill="white" stroke="#bfbfbf" points="83.8164,-112.5 83.8164,-131.5 142.816,-131.5 142.816,-112.5 83.8164,-112.5"/>
<text text-anchor="middle" x="113.316" y="-119.5" font-family="Helvetica,sans-Serif" font-size="10.00">stdexcept</text>
</g>
<!-- Node13&#45;&gt;Node15 -->
<g id="edge25" class="edge"><title>Node13&#45;&gt;Node15</title>
<path fill="none" stroke="midnightblue" d="M230.291,-168.444C207.212,-159.478 170.754,-145.314 144.676,-135.183"/>
<polygon fill="midnightblue" stroke="midnightblue" points="145.827,-131.875 135.238,-131.516 143.292,-138.4 145.827,-131.875"/>
</g>
<!-- Node16 -->
<g id="node16" class="node"><title>Node16</title>
<polygon fill="white" stroke="#bfbfbf" points="161.316,-112.5 161.316,-131.5 205.316,-131.5 205.316,-112.5 161.316,-112.5"/>
<text text-anchor="middle" x="183.316" y="-119.5" font-family="Helvetica,sans-Serif" font-size="10.00">cmath</text>
</g>
<!-- Node13&#45;&gt;Node16 -->
<g id="edge26" class="edge"><title>Node13&#45;&gt;Node16</title>
<path fill="none" stroke="midnightblue" d="M241.23,-168.324C230.83,-160.185 215.056,-147.839 202.595,-138.087"/>
<polygon fill="midnightblue" stroke="midnightblue" points="204.636,-135.241 194.604,-131.834 200.322,-140.753 204.636,-135.241"/>
</g>
<!-- Node17 -->
<g id="node17" class="node"><title>Node17</title>
<g id="a_node17"><a xlink:href="../../d8/def/AbsParameter_8hpp.html" target="_top" xlink:title="This class defines the internal container of a parameter. ">
<polygon fill="white" stroke="red" points="299.316,-112.5 299.316,-131.5 421.316,-131.5 421.316,-112.5 299.316,-112.5"/>
<text text-anchor="middle" x="360.316" y="-119.5" font-family="Helvetica,sans-Serif" font-size="10.00">Core/AbsParameter.hpp</text>
</a>
</g>
</g>
<!-- Node13&#45;&gt;Node17 -->
<g id="edge27" class="edge"><title>Node13&#45;&gt;Node17</title>
<path fill="none" stroke="midnightblue" d="M269.668,-168.324C286.988,-159.664 313.832,-146.242 333.818,-136.249"/>
<polygon fill="midnightblue" stroke="midnightblue" points="335.628,-139.257 343.007,-131.655 332.498,-132.996 335.628,-139.257"/>
</g>
<!-- Node18 -->
<g id="node18" class="node"><title>Node18</title>
<g id="a_node18"><a xlink:href="../../da/db4/Logging_8hpp.html" target="_top" xlink:title="Core/Logging.hpp">
<polygon fill="white" stroke="red" points="477.816,-112.5 477.816,-131.5 570.816,-131.5 570.816,-112.5 477.816,-112.5"/>
<text text-anchor="middle" x="524.316" y="-119.5" font-family="Helvetica,sans-Serif" font-size="10.00">Core/Logging.hpp</text>
</a>
</g>
</g>
<!-- Node13&#45;&gt;Node18 -->
<g id="edge31" class="edge"><title>Node13&#45;&gt;Node18</title>
<path fill="none" stroke="midnightblue" d="M295.416,-168.444C343.164,-158.964 420.177,-143.675 471.511,-133.483"/>
<polygon fill="midnightblue" stroke="midnightblue" points="472.292,-136.897 481.419,-131.516 470.929,-130.031 472.292,-136.897"/>
</g>
<!-- Node17&#45;&gt;Node4 -->
<g id="edge29" class="edge"><title>Node17&#45;&gt;Node4</title>
<path fill="none" stroke="midnightblue" d="M421.384,-114.27C526.347,-102.703 737.45,-79.4384 818.041,-70.5569"/>
<polygon fill="midnightblue" stroke="midnightblue" points="818.529,-74.0244 828.085,-69.45 817.762,-67.0665 818.529,-74.0244"/>
</g>
<!-- Node17&#45;&gt;Node5 -->
<g id="edge28" class="edge"><title>Node17&#45;&gt;Node5</title>
<path fill="none" stroke="midnightblue" d="M378.792,-112.379C407.16,-99.307 463.311,-74.0824 512.316,-56 551.003,-41.725 596.569,-27.9884 625.92,-19.5269"/>
<polygon fill="midnightblue" stroke="midnightblue" points="626.936,-22.8768 635.588,-16.7618 625.011,-16.1466 626.936,-22.8768"/>
</g>
<!-- Node19&#45;&gt;Node3 -->
<g id="edge38" class="edge"><title>Node19&#45;&gt;Node3</title>
<path fill="none" stroke="midnightblue" d="M996.024,-224.444C971.509,-215.438 932.72,-201.189 905.116,-191.049"/>
<polygon fill="midnightblue" stroke="midnightblue" points="906.094,-187.679 895.5,-187.516 903.68,-194.25 906.094,-187.679"/>
</g>
<!-- Node19&#45;&gt;Node4 -->
<g id="edge36" class="edge"><title>Node19&#45;&gt;Node4</title>
<path fill="none" stroke="midnightblue" d="M1021.81,-224.345C1027.54,-202.436 1039.05,-144.237 1010.32,-112 1010.32,-112 928.912,-89.105 882.232,-75.9764"/>
<polygon fill="midnightblue" stroke="midnightblue" points="883.138,-72.5953 872.564,-73.2571 881.243,-79.3339 883.138,-72.5953"/>
</g>
<!-- Node19&#45;&gt;Node7 -->
<g id="edge43" class="edge"><title>Node19&#45;&gt;Node7</title>
<path fill="none" stroke="midnightblue" d="M1018.03,-224.094C1015.86,-211.091 1010.68,-186.452 1000.32,-168 994.199,-157.106 984.988,-146.677 976.845,-138.607"/>
<polygon fill="midnightblue" stroke="midnightblue" points="979.17,-135.988 969.502,-131.654 974.357,-141.071 979.17,-135.988"/>
</g>
<!-- Node19&#45;&gt;Node10 -->
<g id="edge37" class="edge"><title>Node19&#45;&gt;Node10</title>
<path fill="none" stroke="midnightblue" d="M1035.65,-224.387C1048.27,-216.72 1064.81,-204.213 1072.32,-188 1087.43,-155.331 1071.51,-135.585 1044.32,-112 1013.73,-85.4736 966.984,-74.4684 937.299,-69.9828"/>
<polygon fill="midnightblue" stroke="midnightblue" points="937.577,-66.4885 927.196,-68.6086 936.633,-73.4246 937.577,-66.4885"/>
</g>
<!-- Node20 -->
<g id="node20" class="node"><title>Node20</title>
<polygon fill="white" stroke="#bfbfbf" points="1134.82,-168.5 1134.82,-187.5 1179.82,-187.5 1179.82,-168.5 1134.82,-168.5"/>
<text text-anchor="middle" x="1157.32" y="-175.5" font-family="Helvetica,sans-Serif" font-size="10.00">cstdlib</text>
</g>
<!-- Node19&#45;&gt;Node20 -->
<g id="edge34" class="edge"><title>Node19&#45;&gt;Node20</title>
<path fill="none" stroke="midnightblue" d="M1041.18,-224.444C1064.1,-215.478 1100.29,-201.314 1126.18,-191.183"/>
<polygon fill="midnightblue" stroke="midnightblue" points="1127.52,-194.42 1135.55,-187.516 1124.96,-187.901 1127.52,-194.42"/>
</g>
<!-- Node21 -->
<g id="node21" class="node"><title>Node21</title>
<polygon fill="white" stroke="#bfbfbf" points="944.816,-168.5 944.816,-187.5 991.816,-187.5 991.816,-168.5 944.816,-168.5"/>
<text text-anchor="middle" x="968.316" y="-175.5" font-family="Helvetica,sans-Serif" font-size="10.00">math.h</text>
</g>
<!-- Node19&#45;&gt;Node21 -->
<g id="edge35" class="edge"><title>Node19&#45;&gt;Node21</title>
<path fill="none" stroke="midnightblue" d="M1010.89,-224.083C1003.47,-216.22 992.465,-204.569 983.504,-195.081"/>
<polygon fill="midnightblue" stroke="midnightblue" points="985.992,-192.618 976.581,-187.751 980.903,-197.424 985.992,-192.618"/>
</g>
<!-- Node22 -->
<g id="node22" class="node"><title>Node22</title>
<g id="a_node22"><a xlink:href="../../d8/d6f/Efficiency_8hpp.html" target="_top" xlink:title="Core/Efficiency.hpp">
<polygon fill="white" stroke="black" points="613.816,-168.5 613.816,-187.5 716.816,-187.5 716.816,-168.5 613.816,-168.5"/>
<text text-anchor="middle" x="665.316" y="-175.5" font-family="Helvetica,sans-Serif" font-size="10.00">Core/Efficiency.hpp</text>
</a>
</g>
</g>
<!-- Node19&#45;&gt;Node22 -->
<g id="edge39" class="edge"><title>Node19&#45;&gt;Node22</title>
<path fill="none" stroke="midnightblue" d="M967.463,-225.09C903.62,-215.351 795.305,-198.829 727.183,-188.437"/>
<polygon fill="midnightblue" stroke="midnightblue" points="727.434,-184.935 717.021,-186.887 726.379,-191.855 727.434,-184.935"/>
</g>
<!-- Node22&#45;&gt;Node4 -->
<g id="edge41" class="edge"><title>Node22&#45;&gt;Node4</title>
<path fill="none" stroke="midnightblue" d="M704.884,-168.451C731.211,-161.498 765.712,-149.867 792.316,-132 811.267,-119.273 828.034,-98.958 838.604,-84.4268"/>
<polygon fill="midnightblue" stroke="midnightblue" points="841.741,-86.0485 844.616,-75.8509 836.009,-82.0303 841.741,-86.0485"/>
</g>
<!-- Node22&#45;&gt;Node8 -->
<g id="edge40" class="edge"><title>Node22&#45;&gt;Node8</title>
<path fill="none" stroke="midnightblue" d="M666.023,-168.368C667.475,-150.617 670.825,-109.666 672.795,-85.5974"/>
<polygon fill="midnightblue" stroke="midnightblue" points="676.286,-85.8436 673.613,-75.5914 669.31,-85.2727 676.286,-85.8436"/>
</g>
<!-- Node22&#45;&gt;Node18 -->
<g id="edge42" class="edge"><title>Node22&#45;&gt;Node18</title>
<path fill="none" stroke="midnightblue" d="M642.974,-168.444C619.563,-159.478 582.581,-145.314 556.127,-135.183"/>
<polygon fill="midnightblue" stroke="midnightblue" points="557.144,-131.824 546.554,-131.516 554.64,-138.361 557.144,-131.824"/>
</g>
</g>
</svg>
