<?xml version="1.0" encoding="UTF-8" standalone="no"?>
<!DOCTYPE svg PUBLIC "-//W3C//DTD SVG 1.1//EN"
 "http://www.w3.org/Graphics/SVG/1.1/DTD/svg11.dtd">
<!-- Generated by graphviz version 2.36.0 (20140111.2315)
 -->
<!-- Title: /home/travis/build/ComPWA/ComPWA/Tools/RootGenerator.hpp Pages: 1 -->
<svg width="1093pt" height="342pt"
 viewBox="0.00 0.00 1093.03 342.00" xmlns="http://www.w3.org/2000/svg" xmlns:xlink="http://www.w3.org/1999/xlink">
<g id="graph0" class="graph" transform="scale(1 1) rotate(0) translate(4 338)">
<title>/home/travis/build/ComPWA/ComPWA/Tools/RootGenerator.hpp</title>
<polygon fill="white" stroke="none" points="-4,4 -4,-338 1089.03,-338 1089.03,4 -4,4"/>
<!-- Node1 -->
<g id="node1" class="node"><title>Node1</title>
<polygon fill="#bfbfbf" stroke="black" points="362.033,-292.5 362.033,-333.5 500.033,-333.5 500.033,-292.5 362.033,-292.5"/>
<text text-anchor="start" x="370.033" y="-321.5" font-family="Helvetica,sans-Serif" font-size="10.00">/home/travis/build</text>
<text text-anchor="start" x="370.033" y="-310.5" font-family="Helvetica,sans-Serif" font-size="10.00">/ComPWA/ComPWA/Tools</text>
<text text-anchor="middle" x="431.033" y="-299.5" font-family="Helvetica,sans-Serif" font-size="10.00">/RootGenerator.hpp</text>
</g>
<!-- Node2 -->
<g id="node2" class="node"><title>Node2</title>
<polygon fill="white" stroke="#bfbfbf" points="167.033,-62.5 167.033,-81.5 221.033,-81.5 221.033,-62.5 167.033,-62.5"/>
<text text-anchor="middle" x="194.033" y="-69.5" font-family="Helvetica,sans-Serif" font-size="10.00">iostream</text>
</g>
<!-- Node1&#45;&gt;Node2 -->
<g id="edge1" class="edge"><title>Node1&#45;&gt;Node2</title>
<path fill="none" stroke="midnightblue" d="M361.833,-307.622C249.225,-299.785 36.5454,-281.738 14.0327,-256 -44.7115,-188.84 98.5408,-114.792 163.754,-85.7121"/>
<polygon fill="midnightblue" stroke="midnightblue" points="165.389,-88.8169 173.143,-81.5963 162.579,-82.4059 165.389,-88.8169"/>
</g>
<!-- Node3 -->
<g id="node3" class="node"><title>Node3</title>
<polygon fill="white" stroke="#bfbfbf" points="967.033,-62.5 967.033,-81.5 1019.03,-81.5 1019.03,-62.5 967.033,-62.5"/>
<text text-anchor="middle" x="993.033" y="-69.5" font-family="Helvetica,sans-Serif" font-size="10.00">sstream</text>
</g>
<!-- Node1&#45;&gt;Node3 -->
<g id="edge2" class="edge"><title>Node1&#45;&gt;Node3</title>
<path fill="none" stroke="midnightblue" d="M500.363,-307.088C602.599,-299.112 788.355,-281.614 850.033,-256 916.513,-228.392 931.986,-206.877 967.033,-144 976.404,-127.188 983.569,-106.343 987.982,-91.5998"/>
<polygon fill="midnightblue" stroke="midnightblue" points="991.433,-92.2595 990.81,-81.683 984.702,-90.3395 991.433,-92.2595"/>
</g>
<!-- Node4 -->
<g id="node4" class="node"><title>Node4</title>
<polygon fill="white" stroke="#bfbfbf" points="435.033,-62.5 435.033,-81.5 479.033,-81.5 479.033,-62.5 435.033,-62.5"/>
<text text-anchor="middle" x="457.033" y="-69.5" font-family="Helvetica,sans-Serif" font-size="10.00">vector</text>
</g>
<!-- Node1&#45;&gt;Node4 -->
<g id="edge3" class="edge"><title>Node1&#45;&gt;Node4</title>
<path fill="none" stroke="midnightblue" d="M500.289,-306.328C567.377,-299.226 662.228,-284.38 685.033,-256 690.601,-249.071 690.4,-243.085 685.033,-236 649.348,-188.894 610.789,-224.547 557.033,-200 515.881,-181.208 497.511,-181.383 472.033,-144 461.516,-128.57 458.149,-107.207 457.178,-91.9531"/>
<polygon fill="midnightblue" stroke="midnightblue" points="460.666,-91.5525 456.824,-81.6791 453.671,-91.7939 460.666,-91.5525"/>
</g>
<!-- Node5 -->
<g id="node5" class="node"><title>Node5</title>
<polygon fill="white" stroke="#bfbfbf" points="745.533,-0.5 745.533,-19.5 786.533,-19.5 786.533,-0.5 745.533,-0.5"/>
<text text-anchor="middle" x="766.033" y="-7.5" font-family="Helvetica,sans-Serif" font-size="10.00">string</text>
</g>
<!-- Node1&#45;&gt;Node5 -->
<g id="edge4" class="edge"><title>Node1&#45;&gt;Node5</title>
<path fill="none" stroke="midnightblue" d="M500.094,-306.42C668.208,-291.914 1085.03,-249.997 1085.03,-191 1085.03,-191 1085.03,-191 1085.03,-133 1085.03,-95.2222 1079.21,-78.7293 1049.03,-56 1009.7,-26.3706 861.947,-15.6558 796.993,-12.3209"/>
<polygon fill="midnightblue" stroke="midnightblue" points="797.107,-8.82234 786.948,-11.8305 796.765,-15.814 797.107,-8.82234"/>
</g>
<!-- Node6 -->
<g id="node6" class="node"><title>Node6</title>
<polygon fill="white" stroke="#bfbfbf" points="219.033,-236.5 219.033,-255.5 271.033,-255.5 271.033,-236.5 219.033,-236.5"/>
<text text-anchor="middle" x="245.033" y="-243.5" font-family="Helvetica,sans-Serif" font-size="10.00">memory</text>
</g>
<!-- Node1&#45;&gt;Node6 -->
<g id="edge5" class="edge"><title>Node1&#45;&gt;Node6</title>
<path fill="none" stroke="midnightblue" d="M375.227,-292.498C344.104,-281.622 306.329,-268.421 279.501,-259.045"/>
<polygon fill="midnightblue" stroke="midnightblue" points="280.387,-255.647 269.792,-255.652 278.078,-262.256 280.387,-255.647"/>
</g>
<!-- Node7 -->
<g id="node7" class="node"><title>Node7</title>
<polygon fill="white" stroke="#bfbfbf" points="289.033,-236.5 289.033,-255.5 381.033,-255.5 381.033,-236.5 289.033,-236.5"/>
<text text-anchor="middle" x="335.033" y="-243.5" font-family="Helvetica,sans-Serif" font-size="10.00">TLorentzVector.h</text>
</g>
<!-- Node1&#45;&gt;Node7 -->
<g id="edge6" class="edge"><title>Node1&#45;&gt;Node7</title>
<path fill="none" stroke="midnightblue" d="M402.23,-292.498C387.511,-282.532 369.909,-270.614 356.413,-261.476"/>
<polygon fill="midnightblue" stroke="midnightblue" points="358.055,-258.361 347.812,-255.652 354.13,-264.157 358.055,-258.361"/>
</g>
<!-- Node8 -->
<g id="node8" class="node"><title>Node8</title>
<polygon fill="white" stroke="#bfbfbf" points="399.033,-236.5 399.033,-255.5 463.033,-255.5 463.033,-236.5 399.033,-236.5"/>
<text text-anchor="middle" x="431.033" y="-243.5" font-family="Helvetica,sans-Serif" font-size="10.00">TParticle.h</text>
</g>
<!-- Node1&#45;&gt;Node8 -->
<g id="edge7" class="edge"><title>Node1&#45;&gt;Node8</title>
<path fill="none" stroke="midnightblue" d="M431.033,-292.498C431.033,-284.065 431.033,-274.235 431.033,-265.874"/>
<polygon fill="midnightblue" stroke="midnightblue" points="434.533,-265.652 431.033,-255.652 427.533,-265.653 434.533,-265.652"/>
</g>
<!-- Node9 -->
<g id="node9" class="node"><title>Node9</title>
<polygon fill="white" stroke="#bfbfbf" points="481.033,-236.5 481.033,-255.5 585.033,-255.5 585.033,-236.5 481.033,-236.5"/>
<text text-anchor="middle" x="533.033" y="-243.5" font-family="Helvetica,sans-Serif" font-size="10.00">TGenPhaseSpace.h</text>
</g>
<!-- Node1&#45;&gt;Node9 -->
<g id="edge8" class="edge"><title>Node1&#45;&gt;Node9</title>
<path fill="none" stroke="midnightblue" d="M461.636,-292.498C477.425,-282.436 496.336,-270.385 510.728,-261.214"/>
<polygon fill="midnightblue" stroke="midnightblue" points="512.903,-263.978 519.455,-255.652 509.141,-258.075 512.903,-263.978"/>
</g>
<!-- Node10 -->
<g id="node10" class="node"><title>Node10</title>
<polygon fill="white" stroke="#bfbfbf" points="603.533,-236.5 603.533,-255.5 676.533,-255.5 676.533,-236.5 603.533,-236.5"/>
<text text-anchor="middle" x="640.033" y="-243.5" font-family="Helvetica,sans-Serif" font-size="10.00">TRandom3.h</text>
</g>
<!-- Node1&#45;&gt;Node10 -->
<g id="edge9" class="edge"><title>Node1&#45;&gt;Node10</title>
<path fill="none" stroke="midnightblue" d="M493.74,-292.498C529.28,-281.444 572.543,-267.99 602.767,-258.59"/>
<polygon fill="midnightblue" stroke="midnightblue" points="603.977,-261.879 612.486,-255.567 601.898,-255.195 603.977,-261.879"/>
</g>
<!-- Node11 -->
<g id="node11" class="node"><title>Node11</title>
<g id="a_node11"><a xlink:href="../../df/d33/Generator_8hpp.html" target="_top" xlink:title="Core/Generator.hpp">
<polygon fill="white" stroke="black" points="23.0327,-236.5 23.0327,-255.5 125.033,-255.5 125.033,-236.5 23.0327,-236.5"/>
<text text-anchor="middle" x="74.0327" y="-243.5" font-family="Helvetica,sans-Serif" font-size="10.00">Core/Generator.hpp</text>
</a>
</g>
</g>
<!-- Node1&#45;&gt;Node11 -->
<g id="edge10" class="edge"><title>Node1&#45;&gt;Node11</title>
<path fill="none" stroke="midnightblue" d="M361.776,-299.39C294.55,-287.15 193.733,-268.794 131.017,-257.375"/>
<polygon fill="midnightblue" stroke="midnightblue" points="131.374,-253.883 120.909,-255.535 130.12,-260.77 131.374,-253.883"/>
</g>
<!-- Node12 -->
<g id="node12" class="node"><title>Node12</title>
<g id="a_node12"><a xlink:href="../../df/d7d/Event_8hpp.html" target="_top" xlink:title="This class provides a internal container for event&#45;based information. ">
<polygon fill="white" stroke="black" points="77.5327,-180.5 77.5327,-199.5 162.533,-199.5 162.533,-180.5 77.5327,-180.5"/>
<text text-anchor="middle" x="120.033" y="-187.5" font-family="Helvetica,sans-Serif" font-size="10.00">Core/Event.hpp</text>
</a>
</g>
</g>
<!-- Node1&#45;&gt;Node12 -->
<g id="edge18" class="edge"><title>Node1&#45;&gt;Node12</title>
<path fill="none" stroke="midnightblue" d="M361.804,-308.424C308.163,-303.002 233.687,-289.495 177.033,-256 157.32,-244.345 140.857,-223.493 130.773,-208.548"/>
<polygon fill="midnightblue" stroke="midnightblue" points="133.454,-206.247 125.097,-199.735 127.569,-210.038 133.454,-206.247"/>
</g>
<!-- Node13 -->
<g id="node13" class="node"><title>Node13</title>
<g id="a_node13"><a xlink:href="../../d3/d65/Particle_8hpp.html" target="_top" xlink:title="This class provides a internal container for information of a particle. ">
<polygon fill="white" stroke="red" points="148.033,-124.5 148.033,-143.5 240.033,-143.5 240.033,-124.5 148.033,-124.5"/>
<text text-anchor="middle" x="194.033" y="-131.5" font-family="Helvetica,sans-Serif" font-size="10.00">Core/Particle.hpp</text>
</a>
</g>
</g>
<!-- Node1&#45;&gt;Node13 -->
<g id="edge19" class="edge"><title>Node1&#45;&gt;Node13</title>
<path fill="none" stroke="midnightblue" d="M361.988,-303.042C304.922,-294.156 230.125,-278.586 210.033,-256 184.882,-227.729 187.034,-180.022 190.636,-153.751"/>
<polygon fill="midnightblue" stroke="midnightblue" points="194.132,-154.055 192.247,-143.629 187.219,-152.955 194.132,-154.055"/>
</g>
<!-- Node14 -->
<g id="node14" class="node"><title>Node14</title>
<g id="a_node14"><a xlink:href="../../d4/d37/Kinematics_8hpp.html" target="_top" xlink:title="Core/Kinematics.hpp">
<polygon fill="white" stroke="black" points="733.033,-236.5 733.033,-255.5 841.033,-255.5 841.033,-236.5 733.033,-236.5"/>
<text text-anchor="middle" x="787.033" y="-243.5" font-family="Helvetica,sans-Serif" font-size="10.00">Core/Kinematics.hpp</text>
</a>
</g>
</g>
<!-- Node1&#45;&gt;Node14 -->
<g id="edge20" class="edge"><title>Node1&#45;&gt;Node14</title>
<path fill="none" stroke="midnightblue" d="M500.095,-299.39C567.133,-287.15 667.668,-268.794 730.208,-257.375"/>
<polygon fill="midnightblue" stroke="midnightblue" points="731.079,-260.774 740.288,-255.535 729.822,-253.888 731.079,-260.774"/>
</g>
<!-- Node11&#45;&gt;Node12 -->
<g id="edge11" class="edge"><title>Node11&#45;&gt;Node12</title>
<path fill="none" stroke="midnightblue" d="M81.6287,-236.083C88.2602,-228.298 98.0537,-216.801 106.091,-207.367"/>
<polygon fill="midnightblue" stroke="midnightblue" points="108.758,-209.633 112.578,-199.751 103.429,-205.094 108.758,-209.633"/>
</g>
<!-- Node12&#45;&gt;Node2 -->
<g id="edge14" class="edge"><title>Node12&#45;&gt;Node2</title>
<path fill="none" stroke="midnightblue" d="M121.057,-180.408C122.924,-167.375 127.78,-142.2 139.033,-124 147.764,-109.878 161.441,-97.1724 172.971,-87.9751"/>
<polygon fill="midnightblue" stroke="midnightblue" points="175.423,-90.5071 181.253,-81.6604 171.179,-84.9407 175.423,-90.5071"/>
</g>
<!-- Node12&#45;&gt;Node4 -->
<g id="edge12" class="edge"><title>Node12&#45;&gt;Node4</title>
<path fill="none" stroke="midnightblue" d="M162.744,-188.336C215.161,-186.013 305.618,-177.031 375.033,-144 402.545,-130.908 428.035,-106.004 443.07,-89.4484"/>
<polygon fill="midnightblue" stroke="midnightblue" points="445.949,-91.4753 449.934,-81.6586 440.697,-86.8473 445.949,-91.4753"/>
</g>
<!-- Node12&#45;&gt;Node5 -->
<g id="edge13" class="edge"><title>Node12&#45;&gt;Node5</title>
<path fill="none" stroke="midnightblue" d="M119.264,-180.453C117.591,-155.857 116.654,-84.8264 158.033,-56 205.669,-22.8146 618.234,-13.4584 735.226,-11.4615"/>
<polygon fill="midnightblue" stroke="midnightblue" points="735.357,-14.9599 745.298,-11.2954 735.242,-7.96081 735.357,-14.9599"/>
</g>
<!-- Node12&#45;&gt;Node13 -->
<g id="edge15" class="edge"><title>Node12&#45;&gt;Node13</title>
<path fill="none" stroke="midnightblue" d="M131.922,-180.324C143.183,-172.107 160.319,-159.602 173.742,-149.807"/>
<polygon fill="midnightblue" stroke="midnightblue" points="175.912,-152.556 181.927,-143.834 171.786,-146.901 175.912,-152.556"/>
</g>
<!-- Node13&#45;&gt;Node2 -->
<g id="edge17" class="edge"><title>Node13&#45;&gt;Node2</title>
<path fill="none" stroke="midnightblue" d="M194.033,-124.403C194.033,-115.938 194.033,-102.728 194.033,-91.8199"/>
<polygon fill="midnightblue" stroke="midnightblue" points="197.533,-91.5806 194.033,-81.5806 190.533,-91.5806 197.533,-91.5806"/>
</g>
<!-- Node13&#45;&gt;Node4 -->
<g id="edge16" class="edge"><title>Node13&#45;&gt;Node4</title>
<path fill="none" stroke="midnightblue" d="M240.368,-125.042C296.823,-115.138 388.786,-98.2798 422.033,-88 424.52,-87.2311 427.069,-86.3438 429.604,-85.3928"/>
<polygon fill="midnightblue" stroke="midnightblue" points="431.188,-88.5273 439.139,-81.5247 428.557,-82.0407 431.188,-88.5273"/>
</g>
<!-- Node14&#45;&gt;Node4 -->
<g id="edge21" class="edge"><title>Node14&#45;&gt;Node4</title>
<path fill="none" stroke="midnightblue" d="M750.285,-236.498C679.708,-219.543 528.742,-180.05 490.033,-144 474.839,-129.85 466.028,-107.308 461.392,-91.4265"/>
<polygon fill="midnightblue" stroke="midnightblue" points="464.756,-90.4581 458.823,-81.6808 457.988,-92.2427 464.756,-90.4581"/>
</g>
<!-- Node14&#45;&gt;Node5 -->
<g id="edge22" class="edge"><title>Node14&#45;&gt;Node5</title>
<path fill="none" stroke="midnightblue" d="M830.499,-236.46C858.468,-229.604 894.741,-218.078 923.033,-200 989.777,-157.351 1079.08,-116.563 1028.03,-56 998.72,-21.2234 859.239,-13.3222 796.605,-11.5274"/>
<polygon fill="midnightblue" stroke="midnightblue" points="796.628,-8.02696 786.543,-11.2732 796.451,-15.0247 796.628,-8.02696"/>
</g>
<!-- Node14&#45;&gt;Node12 -->
<g id="edge24" class="edge"><title>Node14&#45;&gt;Node12</title>
<path fill="none" stroke="midnightblue" d="M732.781,-240.127C717.354,-238.764 700.533,-237.301 685.033,-236 496.571,-220.181 272.624,-202.75 172.704,-195.044"/>
<polygon fill="midnightblue" stroke="midnightblue" points="172.808,-191.542 162.569,-194.263 172.27,-198.521 172.808,-191.542"/>
</g>
<!-- Node15 -->
<g id="node15" class="node"><title>Node15</title>
<polygon fill="white" stroke="#bfbfbf" points="895.533,-62.5 895.533,-81.5 948.533,-81.5 948.533,-62.5 895.533,-62.5"/>
<text text-anchor="middle" x="922.033" y="-69.5" font-family="Helvetica,sans-Serif" font-size="10.00">complex</text>
</g>
<!-- Node14&#45;&gt;Node15 -->
<g id="edge23" class="edge"><title>Node14&#45;&gt;Node15</title>
<path fill="none" stroke="midnightblue" d="M817.506,-236.464C856.746,-223.645 923.301,-195.275 952.033,-144 962.094,-126.044 949.235,-104.034 937.366,-89.3242"/>
<polygon fill="midnightblue" stroke="midnightblue" points="939.864,-86.8623 930.673,-81.5923 934.572,-91.4437 939.864,-86.8623"/>
</g>
<!-- Node16 -->
<g id="node16" class="node"><title>Node16</title>
<g id="a_node16"><a xlink:href="../../dd/df5/SubSystem_8hpp.html" target="_top" xlink:title="Contains SubSystem class. ">
<polygon fill="white" stroke="black" points="597.033,-124.5 597.033,-143.5 707.033,-143.5 707.033,-124.5 597.033,-124.5"/>
<text text-anchor="middle" x="652.033" y="-131.5" font-family="Helvetica,sans-Serif" font-size="10.00">Core/SubSystem.hpp</text>
</a>
</g>
</g>
<!-- Node14&#45;&gt;Node16 -->
<g id="edge25" class="edge"><title>Node14&#45;&gt;Node16</title>
<path fill="none" stroke="midnightblue" d="M773.189,-236.464C759.518,-227.827 738.22,-213.814 721.033,-200 701.731,-184.487 681.281,-164.755 667.702,-151.122"/>
<polygon fill="midnightblue" stroke="midnightblue" points="670.074,-148.542 660.561,-143.878 665.089,-153.457 670.074,-148.542"/>
</g>
<!-- Node18 -->
<g id="node18" class="node"><title>Node18</title>
<g id="a_node18"><a xlink:href="../../dc/ded/Properties_8hpp.html" target="_top" xlink:title="Core/Properties.hpp">
<polygon fill="white" stroke="black" points="730.033,-180.5 730.033,-199.5 834.033,-199.5 834.033,-180.5 730.033,-180.5"/>
<text text-anchor="middle" x="782.033" y="-187.5" font-family="Helvetica,sans-Serif" font-size="10.00">Core/Properties.hpp</text>
</a>
</g>
</g>
<!-- Node14&#45;&gt;Node18 -->
<g id="edge28" class="edge"><title>Node14&#45;&gt;Node18</title>
<path fill="none" stroke="midnightblue" d="M786.207,-236.083C785.552,-229.006 784.612,-218.861 783.791,-209.986"/>
<polygon fill="midnightblue" stroke="midnightblue" points="787.25,-209.386 782.843,-199.751 780.28,-210.031 787.25,-209.386"/>
</g>
<!-- Node21 -->
<g id="node21" class="node"><title>Node21</title>
<g id="a_node21"><a xlink:href="../../d9/dfb/Spin_8hpp.html" target="_top" xlink:title="Core/Spin.hpp">
<polygon fill="white" stroke="black" points="499.533,-124.5 499.533,-143.5 578.533,-143.5 578.533,-124.5 499.533,-124.5"/>
<text text-anchor="middle" x="539.033" y="-131.5" font-family="Helvetica,sans-Serif" font-size="10.00">Core/Spin.hpp</text>
</a>
</g>
</g>
<!-- Node14&#45;&gt;Node21 -->
<g id="edge46" class="edge"><title>Node14&#45;&gt;Node21</title>
<path fill="none" stroke="midnightblue" d="M767.573,-236.368C724.02,-217.051 618.526,-170.259 567.548,-147.648"/>
<polygon fill="midnightblue" stroke="midnightblue" points="568.963,-144.447 558.402,-143.591 566.125,-150.845 568.963,-144.447"/>
</g>
<!-- Node23 -->
<g id="node23" class="node"><title>Node23</title>
<g id="a_node23"><a xlink:href="../../d8/dd4/DataPoint_8hpp.html" target="_top" xlink:title="dataPoint stores kinematic information of a dalitz plot ">
<polygon fill="white" stroke="black" points="263.533,-124.5 263.533,-143.5 366.533,-143.5 366.533,-124.5 263.533,-124.5"/>
<text text-anchor="middle" x="315.033" y="-131.5" font-family="Helvetica,sans-Serif" font-size="10.00">Core/DataPoint.hpp</text>
</a>
</g>
</g>
<!-- Node14&#45;&gt;Node23 -->
<g id="edge47" class="edge"><title>Node14&#45;&gt;Node23</title>
<path fill="none" stroke="midnightblue" d="M732.854,-239.826C673.751,-233.449 576.668,-220.821 495.033,-200 440.677,-186.137 379.727,-162.288 344.522,-147.654"/>
<polygon fill="midnightblue" stroke="midnightblue" points="345.455,-144.25 334.88,-143.608 342.747,-150.705 345.455,-144.25"/>
</g>
<!-- Node16&#45;&gt;Node4 -->
<g id="edge26" class="edge"><title>Node16&#45;&gt;Node4</title>
<path fill="none" stroke="midnightblue" d="M624.094,-124.403C588.381,-113.415 526.688,-94.4324 489.097,-82.8658"/>
<polygon fill="midnightblue" stroke="midnightblue" points="489.762,-79.4087 479.175,-79.813 487.703,-86.0991 489.762,-79.4087"/>
</g>
<!-- Node17 -->
<g id="node17" class="node"><title>Node17</title>
<polygon fill="white" stroke="#bfbfbf" points="737.533,-57 737.533,-87 838.533,-87 838.533,-57 737.533,-57"/>
<text text-anchor="start" x="745.533" y="-75" font-family="Helvetica,sans-Serif" font-size="10.00">boost/property_tree</text>
<text text-anchor="middle" x="788.033" y="-64" font-family="Helvetica,sans-Serif" font-size="10.00">/ptree.hpp</text>
</g>
<!-- Node16&#45;&gt;Node17 -->
<g id="edge27" class="edge"><title>Node16&#45;&gt;Node17</title>
<path fill="none" stroke="midnightblue" d="M671.518,-124.403C691.122,-115.755 721.949,-102.155 746.972,-91.1152"/>
<polygon fill="midnightblue" stroke="midnightblue" points="748.506,-94.264 756.242,-87.0253 745.68,-87.8596 748.506,-94.264"/>
</g>
<!-- Node18&#45;&gt;Node4 -->
<g id="edge29" class="edge"><title>Node18&#45;&gt;Node4</title>
<path fill="none" stroke="midnightblue" d="M775.86,-180.213C765.337,-165.955 742.481,-137.975 716.033,-124 676.948,-103.348 549.688,-84.8598 489.343,-77.0022"/>
<polygon fill="midnightblue" stroke="midnightblue" points="489.595,-73.5059 479.23,-75.7036 488.703,-80.4489 489.595,-73.5059"/>
</g>
<!-- Node18&#45;&gt;Node17 -->
<g id="edge30" class="edge"><title>Node18&#45;&gt;Node17</title>
<path fill="none" stroke="midnightblue" d="M783.239,-180.395C784.448,-171.354 786.239,-156.709 787.033,-144 788.003,-128.467 788.259,-110.986 788.27,-97.2572"/>
<polygon fill="midnightblue" stroke="midnightblue" points="791.77,-97.1476 788.235,-87.1599 784.77,-97.172 791.77,-97.1476"/>
</g>
<!-- Node19 -->
<g id="node19" class="node"><title>Node19</title>
<g id="a_node19"><a xlink:href="../../d2/de9/Exceptions_8hpp.html" target="_top" xlink:title="This class defines the ComPWA exception base&#45;class and provides a set of standard exceptions...">
<polygon fill="white" stroke="red" points="611.033,-62.5 611.033,-81.5 719.033,-81.5 719.033,-62.5 611.033,-62.5"/>
<text text-anchor="middle" x="665.033" y="-69.5" font-family="Helvetica,sans-Serif" font-size="10.00">Core/Exceptions.hpp</text>
</a>
</g>
</g>
<!-- Node18&#45;&gt;Node19 -->
<g id="edge31" class="edge"><title>Node18&#45;&gt;Node19</title>
<path fill="none" stroke="midnightblue" d="M779.28,-180.081C774.764,-166.619 764.69,-140.893 749.033,-124 733.963,-107.741 712.551,-94.8486 695.117,-86.0935"/>
<polygon fill="midnightblue" stroke="midnightblue" points="696.434,-82.8434 685.906,-81.6601 693.398,-89.1508 696.434,-82.8434"/>
</g>
<!-- Node20 -->
<g id="node20" class="node"><title>Node20</title>
<g id="a_node20"><a xlink:href="../../db/dce/Parameter_8hpp.html" target="_top" xlink:title="This class implements some internal container of parameters. ">
<polygon fill="white" stroke="red" points="839.033,-124.5 839.033,-143.5 943.033,-143.5 943.033,-124.5 839.033,-124.5"/>
<text text-anchor="middle" x="891.033" y="-131.5" font-family="Helvetica,sans-Serif" font-size="10.00">Core/Parameter.hpp</text>
</a>
</g>
</g>
<!-- Node18&#45;&gt;Node20 -->
<g id="edge33" class="edge"><title>Node18&#45;&gt;Node20</title>
<path fill="none" stroke="midnightblue" d="M799.545,-180.324C817.105,-171.625 844.364,-158.12 864.564,-148.113"/>
<polygon fill="midnightblue" stroke="midnightblue" points="866.157,-151.23 873.563,-143.655 863.049,-144.958 866.157,-151.23"/>
</g>
<!-- Node18&#45;&gt;Node21 -->
<g id="edge40" class="edge"><title>Node18&#45;&gt;Node21</title>
<path fill="none" stroke="midnightblue" d="M743.529,-180.444C701.227,-171.043 633.214,-155.929 587.36,-145.739"/>
<polygon fill="midnightblue" stroke="midnightblue" points="587.878,-142.269 577.357,-143.516 586.359,-149.102 587.878,-142.269"/>
</g>
<!-- Node19&#45;&gt;Node5 -->
<g id="edge32" class="edge"><title>Node19&#45;&gt;Node5</title>
<path fill="none" stroke="midnightblue" d="M679.504,-62.4035C696.079,-52.5569 723.459,-36.2915 742.98,-24.6949"/>
<polygon fill="midnightblue" stroke="midnightblue" points="744.779,-27.6971 751.589,-19.5806 741.204,-21.6789 744.779,-27.6971"/>
</g>
<!-- Node20&#45;&gt;Node2 -->
<g id="edge34" class="edge"><title>Node20&#45;&gt;Node2</title>
<path fill="none" stroke="midnightblue" d="M838.892,-130.301C693.852,-122.669 292.448,-100.669 234.033,-88 230.52,-87.2381 226.903,-86.2269 223.348,-85.0883"/>
<polygon fill="midnightblue" stroke="midnightblue" points="224.224,-81.6854 213.629,-81.6428 221.885,-88.2831 224.224,-81.6854"/>
</g>
<!-- Node20&#45;&gt;Node3 -->
<g id="edge36" class="edge"><title>Node20&#45;&gt;Node3</title>
<path fill="none" stroke="midnightblue" d="M905.647,-124.403C922.386,-114.557 950.037,-98.2915 969.751,-86.6949"/>
<polygon fill="midnightblue" stroke="midnightblue" points="971.601,-89.6676 978.446,-81.5806 968.052,-83.6341 971.601,-89.6676"/>
</g>
<!-- Node20&#45;&gt;Node5 -->
<g id="edge35" class="edge"><title>Node20&#45;&gt;Node5</title>
<path fill="none" stroke="midnightblue" d="M887.916,-124.385C882,-109.016 867.842,-76.5605 847.033,-56 832.492,-41.6337 812.431,-30.4427 795.912,-22.8141"/>
<polygon fill="midnightblue" stroke="midnightblue" points="797.226,-19.5682 786.663,-18.7371 794.402,-25.9735 797.226,-19.5682"/>
</g>
<!-- Node20&#45;&gt;Node15 -->
<g id="edge37" class="edge"><title>Node20&#45;&gt;Node15</title>
<path fill="none" stroke="midnightblue" d="M895.474,-124.403C899.986,-115.671 907.107,-101.889 912.839,-90.7936"/>
<polygon fill="midnightblue" stroke="midnightblue" points="916.119,-92.0714 917.599,-81.5806 909.9,-88.8583 916.119,-92.0714"/>
</g>
<!-- Node20&#45;&gt;Node17 -->
<g id="edge38" class="edge"><title>Node20&#45;&gt;Node17</title>
<path fill="none" stroke="midnightblue" d="M876.275,-124.403C861.934,-116.049 839.662,-103.075 821.081,-92.2517"/>
<polygon fill="midnightblue" stroke="midnightblue" points="822.71,-89.1501 812.308,-87.1408 819.187,-95.1987 822.71,-89.1501"/>
</g>
<!-- Node20&#45;&gt;Node19 -->
<g id="edge39" class="edge"><title>Node20&#45;&gt;Node19</title>
<path fill="none" stroke="midnightblue" d="M858.652,-124.403C818.795,-113.822 751.014,-95.8269 707.145,-84.1802"/>
<polygon fill="midnightblue" stroke="midnightblue" points="707.916,-80.7638 697.353,-81.5806 706.12,-87.5295 707.916,-80.7638"/>
</g>
<!-- Node21&#45;&gt;Node2 -->
<g id="edge44" class="edge"><title>Node21&#45;&gt;Node2</title>
<path fill="none" stroke="midnightblue" d="M499.504,-129.868C440.836,-124.615 327.578,-112.148 234.033,-88 230.801,-87.1658 227.47,-86.1614 224.173,-85.0724"/>
<polygon fill="midnightblue" stroke="midnightblue" points="225.119,-81.694 214.525,-81.6372 222.771,-88.2885 225.119,-81.694"/>
</g>
<!-- Node21&#45;&gt;Node4 -->
<g id="edge43" class="edge"><title>Node21&#45;&gt;Node4</title>
<path fill="none" stroke="midnightblue" d="M527.284,-124.403C514.132,-114.78 492.599,-99.0242 476.834,-87.4891"/>
<polygon fill="midnightblue" stroke="midnightblue" points="478.897,-84.6611 468.76,-81.5806 474.763,-90.3103 478.897,-84.6611"/>
</g>
<!-- Node21&#45;&gt;Node5 -->
<g id="edge41" class="edge"><title>Node21&#45;&gt;Node5</title>
<path fill="none" stroke="midnightblue" d="M543.663,-124.358C552.693,-108.35 574.229,-74.075 602.033,-56 643.422,-29.0937 700.706,-18.1379 735.466,-13.7748"/>
<polygon fill="midnightblue" stroke="midnightblue" points="735.953,-17.242 745.487,-12.6221 735.153,-10.2878 735.953,-17.242"/>
</g>
<!-- Node21&#45;&gt;Node19 -->
<g id="edge45" class="edge"><title>Node21&#45;&gt;Node19</title>
<path fill="none" stroke="midnightblue" d="M557.085,-124.403C578.231,-114.334 613.473,-97.5522 637.911,-85.9151"/>
<polygon fill="midnightblue" stroke="midnightblue" points="639.49,-89.04 647.013,-81.5806 636.48,-82.72 639.49,-89.04"/>
</g>
<!-- Node22 -->
<g id="node22" class="node"><title>Node22</title>
<polygon fill="white" stroke="#bfbfbf" points="378.533,-62.5 378.533,-81.5 413.533,-81.5 413.533,-62.5 378.533,-62.5"/>
<text text-anchor="middle" x="396.033" y="-69.5" font-family="Helvetica,sans-Serif" font-size="10.00">map</text>
</g>
<!-- Node21&#45;&gt;Node22 -->
<g id="edge42" class="edge"><title>Node21&#45;&gt;Node22</title>
<path fill="none" stroke="midnightblue" d="M515.853,-124.428C492.842,-115.765 456.672,-101.731 426.033,-88 424.638,-87.3749 423.214,-86.7202 421.781,-86.0487"/>
<polygon fill="midnightblue" stroke="midnightblue" points="422.942,-82.7222 412.418,-81.5059 419.887,-89.0201 422.942,-82.7222"/>
</g>
<!-- Node23&#45;&gt;Node4 -->
<g id="edge50" class="edge"><title>Node23&#45;&gt;Node4</title>
<path fill="none" stroke="midnightblue" d="M335.563,-124.414C357.116,-115.39 391.982,-100.758 422.033,-88 423.858,-87.2249 425.737,-86.4255 427.63,-85.6182"/>
<polygon fill="midnightblue" stroke="midnightblue" points="429.234,-88.7392 437.053,-81.5903 426.482,-82.3025 429.234,-88.7392"/>
</g>
<!-- Node23&#45;&gt;Node22 -->
<g id="edge51" class="edge"><title>Node23&#45;&gt;Node22</title>
<path fill="none" stroke="midnightblue" d="M326.638,-124.403C339.51,-114.869 360.507,-99.3154 376.038,-87.8106"/>
<polygon fill="midnightblue" stroke="midnightblue" points="378.497,-90.3454 384.449,-81.5806 374.33,-84.7204 378.497,-90.3454"/>
</g>
<!-- Node24 -->
<g id="node24" class="node"><title>Node24</title>
<polygon fill="white" stroke="#bfbfbf" points="308.533,-62.5 308.533,-81.5 353.533,-81.5 353.533,-62.5 308.533,-62.5"/>
<text text-anchor="middle" x="331.033" y="-69.5" font-family="Helvetica,sans-Serif" font-size="10.00">cstdlib</text>
</g>
<!-- Node23&#45;&gt;Node24 -->
<g id="edge48" class="edge"><title>Node23&#45;&gt;Node24</title>
<path fill="none" stroke="midnightblue" d="M317.325,-124.403C319.606,-115.849 323.179,-102.45 326.106,-91.4762"/>
<polygon fill="midnightblue" stroke="midnightblue" points="329.55,-92.1448 328.745,-81.5806 322.786,-90.3411 329.55,-92.1448"/>
</g>
<!-- Node25 -->
<g id="node25" class="node"><title>Node25</title>
<polygon fill="white" stroke="#bfbfbf" points="243.533,-62.5 243.533,-81.5 290.533,-81.5 290.533,-62.5 243.533,-62.5"/>
<text text-anchor="middle" x="267.033" y="-69.5" font-family="Helvetica,sans-Serif" font-size="10.00">math.h</text>
</g>
<!-- Node23&#45;&gt;Node25 -->
<g id="edge49" class="edge"><title>Node23&#45;&gt;Node25</title>
<path fill="none" stroke="midnightblue" d="M308.155,-124.403C300.884,-115.314 289.237,-100.756 280.192,-89.4489"/>
<polygon fill="midnightblue" stroke="midnightblue" points="282.877,-87.2029 273.897,-81.5806 277.411,-91.5757 282.877,-87.2029"/>
</g>
</g>
</svg>
