<?xml version="1.0" encoding="UTF-8" standalone="no"?>
<!DOCTYPE svg PUBLIC "-//W3C//DTD SVG 1.1//EN"
 "http://www.w3.org/Graphics/SVG/1.1/DTD/svg11.dtd">
<!-- Generated by graphviz version 2.36.0 (20140111.2315)
 -->
<!-- Title: /home/travis/build/ComPWA/ComPWA/Core/Amplitude.cpp Pages: 1 -->
<svg width="1373pt" height="398pt"
 viewBox="0.00 0.00 1373.34 398.00" xmlns="http://www.w3.org/2000/svg" xmlns:xlink="http://www.w3.org/1999/xlink">
<g id="graph0" class="graph" transform="scale(1 1) rotate(0) translate(4 394)">
<title>/home/travis/build/ComPWA/ComPWA/Core/Amplitude.cpp</title>
<polygon fill="white" stroke="none" points="-4,4 -4,-394 1369.34,-394 1369.34,4 -4,4"/>
<!-- Node1 -->
<g id="node1" class="node"><title>Node1</title>
<polygon fill="#bfbfbf" stroke="black" points="383.841,-348.5 383.841,-389.5 518.841,-389.5 518.841,-348.5 383.841,-348.5"/>
<text text-anchor="start" x="391.841" y="-377.5" font-family="Helvetica,sans-Serif" font-size="10.00">/home/travis/build</text>
<text text-anchor="start" x="391.841" y="-366.5" font-family="Helvetica,sans-Serif" font-size="10.00">/ComPWA/ComPWA/Core</text>
<text text-anchor="middle" x="451.341" y="-355.5" font-family="Helvetica,sans-Serif" font-size="10.00">/Amplitude.cpp</text>
</g>
<!-- Node2 -->
<g id="node2" class="node"><title>Node2</title>
<g id="a_node2"><a xlink:href="../../dc/de3/Amplitude_8hpp.html" target="_top" xlink:title="This class provides the interface to the model which tries to describe the intensity. ">
<polygon fill="white" stroke="black" points="399.841,-292.5 399.841,-311.5 502.841,-311.5 502.841,-292.5 399.841,-292.5"/>
<text text-anchor="middle" x="451.341" y="-299.5" font-family="Helvetica,sans-Serif" font-size="10.00">Core/Amplitude.hpp</text>
</a>
</g>
</g>
<!-- Node1&#45;&gt;Node2 -->
<g id="edge1" class="edge"><title>Node1&#45;&gt;Node2</title>
<path fill="none" stroke="midnightblue" d="M451.341,-348.498C451.341,-340.065 451.341,-330.235 451.341,-321.874"/>
<polygon fill="midnightblue" stroke="midnightblue" points="454.841,-321.652 451.341,-311.652 447.841,-321.653 454.841,-321.652"/>
</g>
<!-- Node3 -->
<g id="node3" class="node"><title>Node3</title>
<polygon fill="white" stroke="#bfbfbf" points="584.341,-0.5 584.341,-19.5 628.341,-19.5 628.341,-0.5 584.341,-0.5"/>
<text text-anchor="middle" x="606.341" y="-7.5" font-family="Helvetica,sans-Serif" font-size="10.00">vector</text>
</g>
<!-- Node2&#45;&gt;Node3 -->
<g id="edge2" class="edge"><title>Node2&#45;&gt;Node3</title>
<path fill="none" stroke="midnightblue" d="M399.66,-298.015C284.994,-289.978 19.3405,-262.948 19.3405,-185 19.3405,-185 19.3405,-185 19.3405,-121 19.3405,-110.139 -87.7515,-120.784 208.341,-56 342.138,-26.7255 505.65,-15.8598 573.95,-12.4052"/>
<polygon fill="midnightblue" stroke="midnightblue" points="574.257,-15.8945 584.075,-11.9126 573.917,-8.90272 574.257,-15.8945"/>
</g>
<!-- Node4 -->
<g id="node4" class="node"><title>Node4</title>
<polygon fill="white" stroke="#bfbfbf" points="1244.34,-0.5 1244.34,-19.5 1296.34,-19.5 1296.34,-0.5 1244.34,-0.5"/>
<text text-anchor="middle" x="1270.34" y="-7.5" font-family="Helvetica,sans-Serif" font-size="10.00">memory</text>
</g>
<!-- Node2&#45;&gt;Node4 -->
<g id="edge3" class="edge"><title>Node2&#45;&gt;Node4</title>
<path fill="none" stroke="midnightblue" d="M503.1,-299.919C696.451,-295.206 1365.34,-272.574 1365.34,-185 1365.34,-185 1365.34,-185 1365.34,-121 1365.34,-77.7385 1322.73,-43.0862 1294.59,-24.9149"/>
<polygon fill="midnightblue" stroke="midnightblue" points="1296.37,-21.9032 1286.03,-19.6042 1292.68,-27.851 1296.37,-21.9032"/>
</g>
<!-- Node5 -->
<g id="node5" class="node"><title>Node5</title>
<polygon fill="white" stroke="#bfbfbf" points="168.841,-112.5 168.841,-131.5 215.841,-131.5 215.841,-112.5 168.841,-112.5"/>
<text text-anchor="middle" x="192.341" y="-119.5" font-family="Helvetica,sans-Serif" font-size="10.00">math.h</text>
</g>
<!-- Node2&#45;&gt;Node5 -->
<g id="edge4" class="edge"><title>Node2&#45;&gt;Node5</title>
<path fill="none" stroke="midnightblue" d="M399.837,-293.2C314.15,-279.047 148.341,-246.263 114.341,-200 105.918,-188.54 107.227,-180.316 114.341,-168 124.014,-151.251 142.555,-140.181 159.133,-133.212"/>
<polygon fill="midnightblue" stroke="midnightblue" points="160.512,-136.432 168.586,-129.571 157.996,-129.9 160.512,-136.432"/>
</g>
<!-- Node6 -->
<g id="node6" class="node"><title>Node6</title>
<g id="a_node6"><a xlink:href="../../d4/d62/Resonance_8hpp.html" target="_top" xlink:title="Core/Resonance.hpp">
<polygon fill="white" stroke="black" points="929.841,-236.5 929.841,-255.5 1038.84,-255.5 1038.84,-236.5 929.841,-236.5"/>
<text text-anchor="middle" x="984.341" y="-243.5" font-family="Helvetica,sans-Serif" font-size="10.00">Core/Resonance.hpp</text>
</a>
</g>
</g>
<!-- Node2&#45;&gt;Node6 -->
<g id="edge5" class="edge"><title>Node2&#45;&gt;Node6</title>
<path fill="none" stroke="midnightblue" d="M502.931,-295.773C600.624,-285.876 812.404,-264.419 919.515,-253.568"/>
<polygon fill="midnightblue" stroke="midnightblue" points="919.951,-257.042 929.547,-252.551 919.245,-250.077 919.951,-257.042"/>
</g>
<!-- Node11 -->
<g id="node11" class="node"><title>Node11</title>
<g id="a_node11"><a xlink:href="../../d8/dd4/DataPoint_8hpp.html" target="_top" xlink:title="dataPoint stores kinematic information of a dalitz plot ">
<polygon fill="white" stroke="red" points="123.841,-174.5 123.841,-193.5 226.841,-193.5 226.841,-174.5 123.841,-174.5"/>
<text text-anchor="middle" x="175.341" y="-181.5" font-family="Helvetica,sans-Serif" font-size="10.00">Core/DataPoint.hpp</text>
</a>
</g>
</g>
<!-- Node2&#45;&gt;Node11 -->
<g id="edge49" class="edge"><title>Node2&#45;&gt;Node11</title>
<path fill="none" stroke="midnightblue" d="M431.046,-292.47C382.896,-272.233 261.571,-221.242 205.105,-197.51"/>
<polygon fill="midnightblue" stroke="midnightblue" points="206.24,-194.19 195.665,-193.542 203.528,-200.644 206.24,-194.19"/>
</g>
<!-- Node12 -->
<g id="node12" class="node"><title>Node12</title>
<g id="a_node12"><a xlink:href="../../d8/d6f/Efficiency_8hpp.html" target="_top" xlink:title="Core/Efficiency.hpp">
<polygon fill="white" stroke="red" points="47.8405,-112.5 47.8405,-131.5 150.841,-131.5 150.841,-112.5 47.8405,-112.5"/>
<text text-anchor="middle" x="99.3405" y="-119.5" font-family="Helvetica,sans-Serif" font-size="10.00">Core/Efficiency.hpp</text>
</a>
</g>
</g>
<!-- Node2&#45;&gt;Node12 -->
<g id="edge50" class="edge"><title>Node2&#45;&gt;Node12</title>
<path fill="none" stroke="midnightblue" d="M399.705,-301.205C341.176,-299.569 244.189,-291.103 169.341,-256 135.121,-239.951 122.285,-233.785 105.341,-200 96.2469,-181.868 95.8056,-158.276 96.9662,-142.01"/>
<polygon fill="midnightblue" stroke="midnightblue" points="100.49,-141.939 97.9936,-131.643 93.5244,-141.249 100.49,-141.939"/>
</g>
<!-- Node14 -->
<g id="node14" class="node"><title>Node14</title>
<g id="a_node14"><a xlink:href="../../da/db2/FunctionTree_8hpp.html" target="_top" xlink:title="This class can be used to store a function in a tree&#45;like structure. ">
<polygon fill="white" stroke="red" points="1145.34,-174.5 1145.34,-193.5 1261.34,-193.5 1261.34,-174.5 1145.34,-174.5"/>
<text text-anchor="middle" x="1203.34" y="-181.5" font-family="Helvetica,sans-Serif" font-size="10.00">Core/FunctionTree.hpp</text>
</a>
</g>
</g>
<!-- Node2&#45;&gt;Node14 -->
<g id="edge36" class="edge"><title>Node2&#45;&gt;Node14</title>
<path fill="none" stroke="midnightblue" d="M502.893,-299.426C628.004,-295.233 944.947,-282.28 1047.34,-256 1097.02,-243.251 1150.51,-215.488 1180.17,-198.705"/>
<polygon fill="midnightblue" stroke="midnightblue" points="1182,-201.691 1188.92,-193.675 1178.51,-195.621 1182,-201.691"/>
</g>
<!-- Node15 -->
<g id="node15" class="node"><title>Node15</title>
<g id="a_node15"><a xlink:href="../../df/d9f/ParameterList_8hpp.html" target="_top" xlink:title="This class provides a list of fit parameters which can have different types. ">
<polygon fill="white" stroke="red" points="817.341,-174.5 817.341,-193.5 937.341,-193.5 937.341,-174.5 817.341,-174.5"/>
<text text-anchor="middle" x="877.341" y="-181.5" font-family="Helvetica,sans-Serif" font-size="10.00">Core/ParameterList.hpp</text>
</a>
</g>
</g>
<!-- Node2&#45;&gt;Node15 -->
<g id="edge30" class="edge"><title>Node2&#45;&gt;Node15</title>
<path fill="none" stroke="midnightblue" d="M482.665,-292.47C558.368,-271.856 751.264,-219.331 836.166,-196.212"/>
<polygon fill="midnightblue" stroke="midnightblue" points="837.241,-199.547 845.97,-193.542 835.402,-192.793 837.241,-199.547"/>
</g>
<!-- Node16 -->
<g id="node16" class="node"><title>Node16</title>
<g id="a_node16"><a xlink:href="../../d2/d4b/Data_8hpp.html" target="_top" xlink:title="This class provides the interface to experimental data. ">
<polygon fill="white" stroke="black" points="475.341,-236.5 475.341,-255.5 587.341,-255.5 587.341,-236.5 475.341,-236.5"/>
<text text-anchor="middle" x="531.341" y="-243.5" font-family="Helvetica,sans-Serif" font-size="10.00">DataReader/Data.hpp</text>
</a>
</g>
</g>
<!-- Node2&#45;&gt;Node16 -->
<g id="edge37" class="edge"><title>Node2&#45;&gt;Node16</title>
<path fill="none" stroke="midnightblue" d="M464.194,-292.324C476.557,-283.979 495.471,-271.212 510.078,-261.352"/>
<polygon fill="midnightblue" stroke="midnightblue" points="512.189,-264.15 518.519,-255.655 508.272,-258.348 512.189,-264.15"/>
</g>
<!-- Node17 -->
<g id="node17" class="node"><title>Node17</title>
<g id="a_node17"><a xlink:href="../../df/d33/Generator_8hpp.html" target="_top" xlink:title="Core/Generator.hpp">
<polygon fill="white" stroke="black" points="245.341,-174.5 245.341,-193.5 347.341,-193.5 347.341,-174.5 245.341,-174.5"/>
<text text-anchor="middle" x="296.341" y="-181.5" font-family="Helvetica,sans-Serif" font-size="10.00">Core/Generator.hpp</text>
</a>
</g>
</g>
<!-- Node2&#45;&gt;Node17 -->
<g id="edge51" class="edge"><title>Node2&#45;&gt;Node17</title>
<path fill="none" stroke="midnightblue" d="M439.943,-292.47C413.742,-272.862 348.959,-224.379 316.113,-199.798"/>
<polygon fill="midnightblue" stroke="midnightblue" points="317.858,-196.732 307.755,-193.542 313.664,-202.336 317.858,-196.732"/>
</g>
<!-- Node6&#45;&gt;Node3 -->
<g id="edge6" class="edge"><title>Node6&#45;&gt;Node3</title>
<path fill="none" stroke="midnightblue" d="M929.773,-238.26C893.626,-232.106 846.095,-220.686 808.341,-200 724.472,-154.047 648.86,-65.2323 619.403,-28.0367"/>
<polygon fill="midnightblue" stroke="midnightblue" points="621.845,-25.477 612.931,-19.7499 616.328,-29.7856 621.845,-25.477"/>
</g>
<!-- Node6&#45;&gt;Node4 -->
<g id="edge7" class="edge"><title>Node6&#45;&gt;Node4</title>
<path fill="none" stroke="midnightblue" d="M1038.84,-245.535C1120.78,-245.045 1269.73,-238.685 1303.34,-200 1345.32,-151.688 1323.25,-116.824 1303.34,-56 1299.85,-45.3397 1292.77,-35.1174 1286.06,-27.1175"/>
<polygon fill="midnightblue" stroke="midnightblue" points="1288.65,-24.7633 1279.36,-19.66 1283.44,-29.4395 1288.65,-24.7633"/>
</g>
<!-- Node7 -->
<g id="node7" class="node"><title>Node7</title>
<polygon fill="white" stroke="#bfbfbf" points="1031.84,-169 1031.84,-199 1126.84,-199 1126.84,-169 1031.84,-169"/>
<text text-anchor="start" x="1039.84" y="-187" font-family="Helvetica,sans-Serif" font-size="10.00">boost/iterator/filter</text>
<text text-anchor="middle" x="1079.34" y="-176" font-family="Helvetica,sans-Serif" font-size="10.00">_iterator.hpp</text>
</g>
<!-- Node6&#45;&gt;Node7 -->
<g id="edge8" class="edge"><title>Node6&#45;&gt;Node7</title>
<path fill="none" stroke="midnightblue" d="M997.952,-236.403C1011.06,-228.125 1031.35,-215.311 1048.39,-204.547"/>
<polygon fill="midnightblue" stroke="midnightblue" points="1050.37,-207.44 1056.95,-199.141 1046.63,-201.522 1050.37,-207.44"/>
</g>
<!-- Node8 -->
<g id="node8" class="node"><title>Node8</title>
<g id="a_node8"><a xlink:href="../../d8/def/AbsParameter_8hpp.html" target="_top" xlink:title="This class defines the internal container of a parameter. ">
<polygon fill="white" stroke="red" points="929.341,-56.5 929.341,-75.5 1051.34,-75.5 1051.34,-56.5 929.341,-56.5"/>
<text text-anchor="middle" x="990.341" y="-63.5" font-family="Helvetica,sans-Serif" font-size="10.00">Core/AbsParameter.hpp</text>
</a>
</g>
</g>
<!-- Node6&#45;&gt;Node8 -->
<g id="edge9" class="edge"><title>Node6&#45;&gt;Node8</title>
<path fill="none" stroke="midnightblue" d="M988.423,-236.386C995.241,-222.078 1009.47,-192.559 1022.34,-168 1030.84,-151.788 1037.75,-149.718 1042.34,-132 1044.57,-123.395 1046.04,-120.084 1042.34,-112 1036.56,-99.3602 1025.29,-88.911 1014.71,-81.2737"/>
<polygon fill="midnightblue" stroke="midnightblue" points="1016.38,-78.1817 1006.12,-75.5333 1012.49,-84.0009 1016.38,-78.1817"/>
</g>
<!-- Node10 -->
<g id="node10" class="node"><title>Node10</title>
<g id="a_node10"><a xlink:href="../../db/dce/Parameter_8hpp.html" target="_top" xlink:title="This class implements some internal container of parameters. ">
<polygon fill="white" stroke="red" points="929.341,-112.5 929.341,-131.5 1033.34,-131.5 1033.34,-112.5 929.341,-112.5"/>
<text text-anchor="middle" x="981.341" y="-119.5" font-family="Helvetica,sans-Serif" font-size="10.00">Core/Parameter.hpp</text>
</a>
</g>
</g>
<!-- Node6&#45;&gt;Node10 -->
<g id="edge13" class="edge"><title>Node6&#45;&gt;Node10</title>
<path fill="none" stroke="midnightblue" d="M984.125,-236.226C983.64,-216.53 982.458,-168.437 981.8,-141.7"/>
<polygon fill="midnightblue" stroke="midnightblue" points="985.299,-141.605 981.554,-131.694 978.301,-141.777 985.299,-141.605"/>
</g>
<!-- Node6&#45;&gt;Node11 -->
<g id="edge16" class="edge"><title>Node6&#45;&gt;Node11</title>
<path fill="none" stroke="midnightblue" d="M929.55,-245.086C805.429,-244.545 493.587,-239.038 236.341,-200 229.531,-198.967 222.368,-197.53 215.442,-195.952"/>
<polygon fill="midnightblue" stroke="midnightblue" points="216.072,-192.504 205.531,-193.57 214.436,-199.31 216.072,-192.504"/>
</g>
<!-- Node6&#45;&gt;Node14 -->
<g id="edge24" class="edge"><title>Node6&#45;&gt;Node14</title>
<path fill="none" stroke="midnightblue" d="M1015.72,-236.403C1054.26,-225.844 1119.75,-207.903 1162.26,-196.254"/>
<polygon fill="midnightblue" stroke="midnightblue" points="1163.3,-199.599 1172.02,-193.581 1161.45,-192.847 1163.3,-199.599"/>
</g>
<!-- Node8&#45;&gt;Node3 -->
<g id="edge11" class="edge"><title>Node8&#45;&gt;Node3</title>
<path fill="none" stroke="midnightblue" d="M929.495,-56.4435C846.96,-44.8371 702.488,-24.5207 638.457,-15.5164"/>
<polygon fill="midnightblue" stroke="midnightblue" points="638.926,-12.048 628.536,-14.1212 637.951,-18.9798 638.926,-12.048"/>
</g>
<!-- Node8&#45;&gt;Node4 -->
<g id="edge12" class="edge"><title>Node8&#45;&gt;Node4</title>
<path fill="none" stroke="midnightblue" d="M1034.71,-56.4435C1089.96,-45.7875 1183.28,-27.7897 1234.33,-17.945"/>
<polygon fill="midnightblue" stroke="midnightblue" points="1235.09,-21.3619 1244.25,-16.0315 1233.77,-14.4886 1235.09,-21.3619"/>
</g>
<!-- Node9 -->
<g id="node9" class="node"><title>Node9</title>
<polygon fill="white" stroke="#bfbfbf" points="861.841,-0.5 861.841,-19.5 902.841,-19.5 902.841,-0.5 861.841,-0.5"/>
<text text-anchor="middle" x="882.341" y="-7.5" font-family="Helvetica,sans-Serif" font-size="10.00">string</text>
</g>
<!-- Node8&#45;&gt;Node9 -->
<g id="edge10" class="edge"><title>Node8&#45;&gt;Node9</title>
<path fill="none" stroke="midnightblue" d="M972.988,-56.324C955.669,-47.6641 928.825,-34.2424 908.839,-24.249"/>
<polygon fill="midnightblue" stroke="midnightblue" points="910.159,-20.9962 899.65,-19.6545 907.029,-27.2572 910.159,-20.9962"/>
</g>
<!-- Node10&#45;&gt;Node8 -->
<g id="edge15" class="edge"><title>Node10&#45;&gt;Node8</title>
<path fill="none" stroke="midnightblue" d="M982.827,-112.083C984.019,-104.927 985.735,-94.6353 987.225,-85.6911"/>
<polygon fill="midnightblue" stroke="midnightblue" points="990.69,-86.1904 988.882,-75.7511 983.786,-85.0396 990.69,-86.1904"/>
</g>
<!-- Node10&#45;&gt;Node9 -->
<g id="edge14" class="edge"><title>Node10&#45;&gt;Node9</title>
<path fill="none" stroke="midnightblue" d="M966.458,-112.44C953.21,-104.296 933.888,-91.0735 920.341,-76 907.668,-61.8998 897.158,-42.9139 890.427,-29.1036"/>
<polygon fill="midnightblue" stroke="midnightblue" points="893.447,-27.2977 886.044,-19.7183 887.105,-30.2599 893.447,-27.2977"/>
</g>
<!-- Node11&#45;&gt;Node3 -->
<g id="edge18" class="edge"><title>Node11&#45;&gt;Node3</title>
<path fill="none" stroke="midnightblue" d="M184.948,-174.208C211.076,-150.826 286.49,-86.7996 361.341,-56 433.657,-26.2428 526.049,-16.0718 574.076,-12.6643"/>
<polygon fill="midnightblue" stroke="midnightblue" points="574.434,-16.1484 584.183,-12.0016 573.976,-9.16339 574.434,-16.1484"/>
</g>
<!-- Node11&#45;&gt;Node5 -->
<g id="edge17" class="edge"><title>Node11&#45;&gt;Node5</title>
<path fill="none" stroke="midnightblue" d="M177.776,-174.403C180.2,-165.849 183.996,-152.45 187.106,-141.476"/>
<polygon fill="midnightblue" stroke="midnightblue" points="190.551,-142.156 189.909,-131.581 183.816,-140.248 190.551,-142.156"/>
</g>
<!-- Node11&#45;&gt;Node12 -->
<g id="edge19" class="edge"><title>Node11&#45;&gt;Node12</title>
<path fill="none" stroke="midnightblue" d="M164.452,-174.403C152.374,-164.869 132.673,-149.315 118.101,-137.811"/>
<polygon fill="midnightblue" stroke="midnightblue" points="120.227,-135.03 110.209,-131.581 115.889,-140.524 120.227,-135.03"/>
</g>
<!-- Node13 -->
<g id="node13" class="node"><title>Node13</title>
<g id="a_node13"><a xlink:href="../../df/d7d/Event_8hpp.html" target="_top" xlink:title="This class provides a internal container for event&#45;based information. ">
<polygon fill="white" stroke="red" points="563.841,-112.5 563.841,-131.5 648.841,-131.5 648.841,-112.5 563.841,-112.5"/>
<text text-anchor="middle" x="606.341" y="-119.5" font-family="Helvetica,sans-Serif" font-size="10.00">Core/Event.hpp</text>
</a>
</g>
</g>
<!-- Node11&#45;&gt;Node13 -->
<g id="edge21" class="edge"><title>Node11&#45;&gt;Node13</title>
<path fill="none" stroke="midnightblue" d="M206.845,-174.488C216.28,-172.146 226.686,-169.768 236.341,-168 348.424,-147.48 481.376,-133.898 553.456,-127.418"/>
<polygon fill="midnightblue" stroke="midnightblue" points="553.988,-130.885 563.639,-126.514 553.369,-123.912 553.988,-130.885"/>
</g>
<!-- Node12&#45;&gt;Node3 -->
<g id="edge20" class="edge"><title>Node12&#45;&gt;Node3</title>
<path fill="none" stroke="midnightblue" d="M118.294,-112.487C150.231,-98.4977 217.093,-70.7336 276.341,-56 383.311,-29.3986 513.961,-17.4618 573.706,-13.1003"/>
<polygon fill="midnightblue" stroke="midnightblue" points="574.286,-16.5681 584.015,-12.3723 573.793,-9.58554 574.286,-16.5681"/>
</g>
<!-- Node13&#45;&gt;Node3 -->
<g id="edge22" class="edge"><title>Node13&#45;&gt;Node3</title>
<path fill="none" stroke="midnightblue" d="M606.341,-112.368C606.341,-94.617 606.341,-53.6664 606.341,-29.5974"/>
<polygon fill="midnightblue" stroke="midnightblue" points="609.841,-29.5914 606.341,-19.5914 602.841,-29.5915 609.841,-29.5914"/>
</g>
<!-- Node13&#45;&gt;Node9 -->
<g id="edge23" class="edge"><title>Node13&#45;&gt;Node9</title>
<path fill="none" stroke="midnightblue" d="M621.438,-112.33C645.134,-98.9696 692.754,-73.1038 735.341,-56 774.555,-40.2507 821.493,-26.7693 851.601,-18.7749"/>
<polygon fill="midnightblue" stroke="midnightblue" points="852.72,-22.0998 861.508,-16.1813 850.948,-15.328 852.72,-22.0998"/>
</g>
<!-- Node14&#45;&gt;Node3 -->
<g id="edge25" class="edge"><title>Node14&#45;&gt;Node3</title>
<path fill="none" stroke="midnightblue" d="M1196.82,-174.2C1178.47,-150.223 1123.61,-83.6879 1060.34,-56 984.425,-22.7785 729.303,-13.8014 638.644,-11.6304"/>
<polygon fill="midnightblue" stroke="midnightblue" points="638.504,-8.12638 628.427,-11.3982 638.345,-15.1246 638.504,-8.12638"/>
</g>
<!-- Node14&#45;&gt;Node4 -->
<g id="edge26" class="edge"><title>Node14&#45;&gt;Node4</title>
<path fill="none" stroke="midnightblue" d="M1207.68,-174.453C1212.7,-164.415 1221.08,-147.201 1227.34,-132 1242.07,-96.23 1256.59,-53.3598 1264.41,-29.4484"/>
<polygon fill="midnightblue" stroke="midnightblue" points="1267.85,-30.2098 1267.6,-19.6178 1261.19,-28.05 1267.85,-30.2098"/>
</g>
<!-- Node14&#45;&gt;Node8 -->
<g id="edge28" class="edge"><title>Node14&#45;&gt;Node8</title>
<path fill="none" stroke="midnightblue" d="M1188.03,-174.378C1164.07,-160.919 1116.23,-134.159 1075.34,-112 1055.46,-101.225 1032.83,-89.2578 1015.92,-80.3743"/>
<polygon fill="midnightblue" stroke="midnightblue" points="1017.17,-77.0779 1006.69,-75.5326 1013.92,-83.277 1017.17,-77.0779"/>
</g>
<!-- Node14&#45;&gt;Node9 -->
<g id="edge27" class="edge"><title>Node14&#45;&gt;Node9</title>
<path fill="none" stroke="midnightblue" d="M1205.5,-174.454C1210.7,-151.685 1221.22,-89.0435 1189.34,-56 1151.71,-16.9955 983.54,-11.5058 913.312,-10.942"/>
<polygon fill="midnightblue" stroke="midnightblue" points="912.934,-7.44015 902.917,-10.8894 912.899,-14.4401 912.934,-7.44015"/>
</g>
<!-- Node14&#45;&gt;Node10 -->
<g id="edge29" class="edge"><title>Node14&#45;&gt;Node10</title>
<path fill="none" stroke="midnightblue" d="M1171.53,-174.403C1132.46,-163.844 1066.08,-145.903 1022.98,-134.254"/>
<polygon fill="midnightblue" stroke="midnightblue" points="1023.66,-130.811 1013.09,-131.581 1021.83,-137.569 1023.66,-130.811"/>
</g>
<!-- Node15&#45;&gt;Node3 -->
<g id="edge33" class="edge"><title>Node15&#45;&gt;Node3</title>
<path fill="none" stroke="midnightblue" d="M874.78,-174.263C867.494,-151.018 844.345,-87.3 801.341,-56 752.5,-20.4518 680.055,-12.4328 638.596,-10.9465"/>
<polygon fill="midnightblue" stroke="midnightblue" points="638.595,-7.44543 628.51,-10.693 638.419,-14.4432 638.595,-7.44543"/>
</g>
<!-- Node15&#45;&gt;Node4 -->
<g id="edge32" class="edge"><title>Node15&#45;&gt;Node4</title>
<path fill="none" stroke="midnightblue" d="M911.495,-174.462C945.329,-165.537 998.317,-150.294 1042.34,-132 1120.49,-99.5235 1207.42,-49.1108 1247.65,-24.9015"/>
<polygon fill="midnightblue" stroke="midnightblue" points="1249.65,-27.7803 1256.39,-19.6069 1246.02,-21.7923 1249.65,-27.7803"/>
</g>
<!-- Node15&#45;&gt;Node8 -->
<g id="edge34" class="edge"><title>Node15&#45;&gt;Node8</title>
<path fill="none" stroke="midnightblue" d="M881.033,-174.285C887.416,-159.983 901.643,-131.205 920.341,-112 932.705,-99.2998 949.296,-88.4371 963.222,-80.5677"/>
<polygon fill="midnightblue" stroke="midnightblue" points="965.233,-83.4583 972.353,-75.6121 961.894,-77.3061 965.233,-83.4583"/>
</g>
<!-- Node15&#45;&gt;Node9 -->
<g id="edge31" class="edge"><title>Node15&#45;&gt;Node9</title>
<path fill="none" stroke="midnightblue" d="M877.595,-174.234C878.371,-147.548 880.716,-66.8773 881.791,-29.8931"/>
<polygon fill="midnightblue" stroke="midnightblue" points="885.3,-29.6417 882.092,-19.5442 878.303,-29.4382 885.3,-29.6417"/>
</g>
<!-- Node15&#45;&gt;Node10 -->
<g id="edge35" class="edge"><title>Node15&#45;&gt;Node10</title>
<path fill="none" stroke="midnightblue" d="M892.241,-174.403C909.309,-164.557 937.502,-148.291 957.603,-136.695"/>
<polygon fill="midnightblue" stroke="midnightblue" points="959.555,-139.61 966.468,-131.581 956.057,-133.546 959.555,-139.61"/>
</g>
<!-- Node16&#45;&gt;Node3 -->
<g id="edge38" class="edge"><title>Node16&#45;&gt;Node3</title>
<path fill="none" stroke="midnightblue" d="M475.199,-241.68C446.052,-236.76 412.767,-225.448 394.341,-200 385.999,-188.481 387.942,-180.701 394.341,-168 432.318,-92.6165 525.494,-44.4015 574.705,-23.3075"/>
<polygon fill="midnightblue" stroke="midnightblue" points="576.34,-26.418 584.218,-19.334 573.641,-19.9588 576.34,-26.418"/>
</g>
<!-- Node16&#45;&gt;Node4 -->
<g id="edge40" class="edge"><title>Node16&#45;&gt;Node4</title>
<path fill="none" stroke="midnightblue" d="M587.476,-243.651C755.77,-239.338 1245.98,-224.698 1269.34,-200 1313.67,-153.135 1290.5,-66.789 1277.37,-29.2383"/>
<polygon fill="midnightblue" stroke="midnightblue" points="1280.57,-27.8135 1273.84,-19.6295 1274,-30.2232 1280.57,-27.8135"/>
</g>
<!-- Node16&#45;&gt;Node9 -->
<g id="edge39" class="edge"><title>Node16&#45;&gt;Node9</title>
<path fill="none" stroke="midnightblue" d="M587.739,-239.52C624.961,-233.905 673.632,-222.612 711.341,-200 786.587,-154.878 847.855,-66.271 871.658,-28.6093"/>
<polygon fill="midnightblue" stroke="midnightblue" points="874.825,-30.143 877.124,-19.8007 868.877,-26.4517 874.825,-30.143"/>
</g>
<!-- Node16&#45;&gt;Node11 -->
<g id="edge45" class="edge"><title>Node16&#45;&gt;Node11</title>
<path fill="none" stroke="midnightblue" d="M475.074,-237.946C415.52,-230.123 318.912,-216.416 236.341,-200 230.379,-198.815 224.122,-197.435 217.981,-196.001"/>
<polygon fill="midnightblue" stroke="midnightblue" points="218.368,-192.494 207.827,-193.561 216.733,-199.301 218.368,-192.494"/>
</g>
<!-- Node16&#45;&gt;Node13 -->
<g id="edge41" class="edge"><title>Node16&#45;&gt;Node13</title>
<path fill="none" stroke="midnightblue" d="M587.377,-236.763C628.869,-229.383 680.358,-217.081 693.341,-200 701.947,-188.677 700.735,-180.149 693.341,-168 683.881,-152.457 667.13,-142.045 650.836,-135.191"/>
<polygon fill="midnightblue" stroke="midnightblue" points="651.944,-131.868 641.353,-131.555 649.437,-138.403 651.944,-131.868"/>
</g>
<!-- Node16&#45;&gt;Node15 -->
<g id="edge42" class="edge"><title>Node16&#45;&gt;Node15</title>
<path fill="none" stroke="midnightblue" d="M580.546,-236.467C643.19,-225.604 751.311,-206.855 818.321,-195.235"/>
<polygon fill="midnightblue" stroke="midnightblue" points="819.049,-198.661 828.304,-193.503 817.853,-191.764 819.049,-198.661"/>
</g>
<!-- Node16&#45;&gt;Node17 -->
<g id="edge43" class="edge"><title>Node16&#45;&gt;Node17</title>
<path fill="none" stroke="midnightblue" d="M497.671,-236.403C456.138,-225.799 385.449,-207.751 339.842,-196.107"/>
<polygon fill="midnightblue" stroke="midnightblue" points="340.503,-192.663 329.948,-193.581 338.771,-199.446 340.503,-192.663"/>
</g>
<!-- Node18 -->
<g id="node18" class="node"><title>Node18</title>
<g id="a_node18"><a xlink:href="../../de/d34/Resolution_8hpp.html" target="_top" xlink:title="Core/Resolution.hpp">
<polygon fill="white" stroke="black" points="403.341,-174.5 403.341,-193.5 509.341,-193.5 509.341,-174.5 403.341,-174.5"/>
<text text-anchor="middle" x="456.341" y="-181.5" font-family="Helvetica,sans-Serif" font-size="10.00">Core/Resolution.hpp</text>
</a>
</g>
</g>
<!-- Node16&#45;&gt;Node18 -->
<g id="edge46" class="edge"><title>Node16&#45;&gt;Node18</title>
<path fill="none" stroke="midnightblue" d="M520.595,-236.403C508.788,-226.958 489.598,-211.606 475.258,-200.134"/>
<polygon fill="midnightblue" stroke="midnightblue" points="477.061,-197.095 467.066,-193.581 472.689,-202.561 477.061,-197.095"/>
</g>
<!-- Node19 -->
<g id="node19" class="node"><title>Node19</title>
<g id="a_node19"><a xlink:href="../../d2/dee/DataCorrection_8hpp.html" target="_top" xlink:title="DataReader/DataCorrection.hpp">
<polygon fill="white" stroke="red" points="527.841,-174.5 527.841,-193.5 684.841,-193.5 684.841,-174.5 527.841,-174.5"/>
<text text-anchor="middle" x="606.341" y="-181.5" font-family="Helvetica,sans-Serif" font-size="10.00">DataReader/DataCorrection.hpp</text>
</a>
</g>
</g>
<!-- Node16&#45;&gt;Node19 -->
<g id="edge47" class="edge"><title>Node16&#45;&gt;Node19</title>
<path fill="none" stroke="midnightblue" d="M542.086,-236.403C553.893,-226.958 573.084,-211.606 587.423,-200.134"/>
<polygon fill="midnightblue" stroke="midnightblue" points="589.993,-202.561 595.615,-193.581 585.62,-197.095 589.993,-202.561"/>
</g>
<!-- Node17&#45;&gt;Node13 -->
<g id="edge44" class="edge"><title>Node17&#45;&gt;Node13</title>
<path fill="none" stroke="midnightblue" d="M340.427,-174.467C396.523,-163.61 493.321,-144.875 553.367,-133.253"/>
<polygon fill="midnightblue" stroke="midnightblue" points="554.251,-136.647 563.404,-131.31 552.921,-129.774 554.251,-136.647"/>
</g>
<!-- Node19&#45;&gt;Node13 -->
<g id="edge48" class="edge"><title>Node19&#45;&gt;Node13</title>
<path fill="none" stroke="midnightblue" d="M606.341,-174.403C606.341,-165.938 606.341,-152.728 606.341,-141.82"/>
<polygon fill="midnightblue" stroke="midnightblue" points="609.841,-141.581 606.341,-131.581 602.841,-141.581 609.841,-141.581"/>
</g>
</g>
</svg>
