<?xml version="1.0" encoding="UTF-8" standalone="no"?>
<!DOCTYPE svg PUBLIC "-//W3C//DTD SVG 1.1//EN"
 "http://www.w3.org/Graphics/SVG/1.1/DTD/svg11.dtd">
<!-- Generated by graphviz version 2.36.0 (20140111.2315)
 -->
<!-- Title: /home/travis/build/ComPWA/ComPWA/Core/FitResult.hpp Pages: 1 -->
<svg width="1839pt" height="298pt"
 viewBox="0.00 0.00 1839.43 298.00" xmlns="http://www.w3.org/2000/svg" xmlns:xlink="http://www.w3.org/1999/xlink">
<g id="graph0" class="graph" transform="scale(1 1) rotate(0) translate(4 294)">
<title>/home/travis/build/ComPWA/ComPWA/Core/FitResult.hpp</title>
<polygon fill="white" stroke="none" points="-4,4 -4,-294 1835.43,-294 1835.43,4 -4,4"/>
<!-- Node1 -->
<g id="node1" class="node"><title>Node1</title>
<polygon fill="#bfbfbf" stroke="black" points="1124.93,-248.5 1124.93,-289.5 1259.93,-289.5 1259.93,-248.5 1124.93,-248.5"/>
<text text-anchor="start" x="1132.93" y="-277.5" font-family="Helvetica,sans-Serif" font-size="10.00">/home/travis/build</text>
<text text-anchor="start" x="1132.93" y="-266.5" font-family="Helvetica,sans-Serif" font-size="10.00">/ComPWA/ComPWA/Core</text>
<text text-anchor="middle" x="1192.43" y="-255.5" font-family="Helvetica,sans-Serif" font-size="10.00">/FitResult.hpp</text>
</g>
<!-- Node2 -->
<g id="node2" class="node"><title>Node2</title>
<polygon fill="white" stroke="#bfbfbf" points="439.43,-6.5 439.43,-25.5 483.43,-25.5 483.43,-6.5 439.43,-6.5"/>
<text text-anchor="middle" x="461.43" y="-13.5" font-family="Helvetica,sans-Serif" font-size="10.00">vector</text>
</g>
<!-- Node1&#45;&gt;Node2 -->
<g id="edge1" class="edge"><title>Node1&#45;&gt;Node2</title>
<path fill="none" stroke="midnightblue" d="M1124.78,-266.82C939.892,-263.134 429.016,-249.733 265.43,-212 140.29,-183.135 68.6444,-199.219 4.43014,-88 -0.0143938,-80.302 -1.49646,-74.6248 4.43014,-68 32.7405,-36.3546 329.618,-22.0842 429.127,-18.1655"/>
<polygon fill="midnightblue" stroke="midnightblue" points="429.338,-21.6601 439.196,-17.778 429.069,-14.6653 429.338,-21.6601"/>
</g>
<!-- Node3 -->
<g id="node3" class="node"><title>Node3</title>
<polygon fill="white" stroke="#bfbfbf" points="854.93,-6.5 854.93,-25.5 895.93,-25.5 895.93,-6.5 854.93,-6.5"/>
<text text-anchor="middle" x="875.43" y="-13.5" font-family="Helvetica,sans-Serif" font-size="10.00">string</text>
</g>
<!-- Node1&#45;&gt;Node3 -->
<g id="edge2" class="edge"><title>Node1&#45;&gt;Node3</title>
<path fill="none" stroke="midnightblue" d="M1156.67,-248.382C1117.52,-225.985 1054.01,-186.862 1006.43,-144 973.834,-114.633 975.199,-98.26 943.43,-68 929.055,-54.3076 911.009,-40.9219 897.121,-31.3019"/>
<polygon fill="midnightblue" stroke="midnightblue" points="898.912,-28.2875 888.675,-25.5586 894.976,-34.076 898.912,-28.2875"/>
</g>
<!-- Node4 -->
<g id="node4" class="node"><title>Node4</title>
<polygon fill="white" stroke="#bfbfbf" points="946.43,-6.5 946.43,-25.5 1000.43,-25.5 1000.43,-6.5 946.43,-6.5"/>
<text text-anchor="middle" x="973.43" y="-13.5" font-family="Helvetica,sans-Serif" font-size="10.00">iostream</text>
</g>
<!-- Node1&#45;&gt;Node4 -->
<g id="edge3" class="edge"><title>Node1&#45;&gt;Node4</title>
<path fill="none" stroke="midnightblue" d="M1204.66,-248.312C1227.26,-209.133 1269.45,-120.647 1225.43,-68 1196.46,-33.3548 1069.41,-42.2717 1025.43,-32 1020.6,-30.8706 1015.54,-29.5684 1010.56,-28.2127"/>
<polygon fill="midnightblue" stroke="midnightblue" points="1011.12,-24.7346 1000.55,-25.3934 1009.23,-31.4726 1011.12,-24.7346"/>
</g>
<!-- Node5 -->
<g id="node5" class="node"><title>Node5</title>
<polygon fill="white" stroke="#bfbfbf" points="1311.43,-186.5 1311.43,-205.5 1361.43,-205.5 1361.43,-186.5 1311.43,-186.5"/>
<text text-anchor="middle" x="1336.43" y="-193.5" font-family="Helvetica,sans-Serif" font-size="10.00">fstream</text>
</g>
<!-- Node1&#45;&gt;Node5 -->
<g id="edge4" class="edge"><title>Node1&#45;&gt;Node5</title>
<path fill="none" stroke="midnightblue" d="M1232.16,-248.411C1256.96,-236.183 1288.2,-220.779 1309.99,-210.035"/>
<polygon fill="midnightblue" stroke="midnightblue" points="1311.57,-213.158 1318.99,-205.597 1308.48,-206.88 1311.57,-213.158"/>
</g>
<!-- Node6 -->
<g id="node6" class="node"><title>Node6</title>
<polygon fill="white" stroke="#bfbfbf" points="501.43,-6.5 501.43,-25.5 553.43,-25.5 553.43,-6.5 501.43,-6.5"/>
<text text-anchor="middle" x="527.43" y="-13.5" font-family="Helvetica,sans-Serif" font-size="10.00">memory</text>
</g>
<!-- Node1&#45;&gt;Node6 -->
<g id="edge5" class="edge"><title>Node1&#45;&gt;Node6</title>
<path fill="none" stroke="midnightblue" d="M1124.89,-263.506C1063.1,-257.506 970.203,-243.659 895.43,-212 793.233,-168.73 790.968,-117.078 691.43,-68 649.623,-47.3867 597.72,-32.9307 563.641,-24.7988"/>
<polygon fill="midnightblue" stroke="midnightblue" points="564.201,-21.3356 553.668,-22.4783 562.614,-28.1535 564.201,-21.3356"/>
</g>
<!-- Node7 -->
<g id="node7" class="node"><title>Node7</title>
<polygon fill="white" stroke="#bfbfbf" points="1379.93,-181 1379.93,-211 1474.93,-211 1474.93,-181 1379.93,-181"/>
<text text-anchor="start" x="1387.93" y="-199" font-family="Helvetica,sans-Serif" font-size="10.00">boost/serialization</text>
<text text-anchor="middle" x="1427.43" y="-188" font-family="Helvetica,sans-Serif" font-size="10.00">/serialization.hpp</text>
</g>
<!-- Node1&#45;&gt;Node7 -->
<g id="edge6" class="edge"><title>Node1&#45;&gt;Node7</title>
<path fill="none" stroke="midnightblue" d="M1257.27,-248.411C1293,-237.614 1336.93,-224.342 1371.2,-213.988"/>
<polygon fill="midnightblue" stroke="midnightblue" points="1372.49,-217.254 1381.05,-211.012 1370.47,-210.554 1372.49,-217.254"/>
</g>
<!-- Node8 -->
<g id="node8" class="node"><title>Node8</title>
<polygon fill="white" stroke="#bfbfbf" points="1492.93,-181 1492.93,-211 1587.93,-211 1587.93,-181 1492.93,-181"/>
<text text-anchor="start" x="1500.93" y="-199" font-family="Helvetica,sans-Serif" font-size="10.00">boost/serialization</text>
<text text-anchor="middle" x="1540.43" y="-188" font-family="Helvetica,sans-Serif" font-size="10.00">/nvp.hpp</text>
</g>
<!-- Node1&#45;&gt;Node8 -->
<g id="edge7" class="edge"><title>Node1&#45;&gt;Node8</title>
<path fill="none" stroke="midnightblue" d="M1260.03,-256.321C1316.92,-246.186 1400.63,-230.566 1483.11,-211.984"/>
<polygon fill="midnightblue" stroke="midnightblue" points="1483.93,-215.388 1492.9,-209.762 1482.38,-208.562 1483.93,-215.388"/>
</g>
<!-- Node9 -->
<g id="node9" class="node"><title>Node9</title>
<polygon fill="white" stroke="#bfbfbf" points="1169.93,-1 1169.93,-31 1264.93,-31 1264.93,-1 1169.93,-1"/>
<text text-anchor="start" x="1177.93" y="-19" font-family="Helvetica,sans-Serif" font-size="10.00">boost/serialization</text>
<text text-anchor="middle" x="1217.43" y="-8" font-family="Helvetica,sans-Serif" font-size="10.00">/vector.hpp</text>
</g>
<!-- Node1&#45;&gt;Node9 -->
<g id="edge8" class="edge"><title>Node1&#45;&gt;Node9</title>
<path fill="none" stroke="midnightblue" d="M1226.77,-248.363C1239.49,-239.116 1252.5,-226.832 1259.43,-212 1286.53,-154.022 1281.04,-128.24 1259.43,-68 1255.56,-57.2003 1248.3,-47.0536 1240.89,-38.6986"/>
<polygon fill="midnightblue" stroke="midnightblue" points="1243.27,-36.1214 1233.85,-31.2743 1238.19,-40.9385 1243.27,-36.1214"/>
</g>
<!-- Node10 -->
<g id="node10" class="node"><title>Node10</title>
<polygon fill="white" stroke="#bfbfbf" points="1605.93,-181 1605.93,-211 1718.93,-211 1718.93,-181 1605.93,-181"/>
<text text-anchor="start" x="1613.93" y="-199" font-family="Helvetica,sans-Serif" font-size="10.00">boost/serialization</text>
<text text-anchor="middle" x="1662.43" y="-188" font-family="Helvetica,sans-Serif" font-size="10.00">/assume_abstract.hpp</text>
</g>
<!-- Node1&#45;&gt;Node10 -->
<g id="edge9" class="edge"><title>Node1&#45;&gt;Node10</title>
<path fill="none" stroke="midnightblue" d="M1260.26,-260.399C1338.64,-251.212 1471.64,-234.381 1595.57,-212.064"/>
<polygon fill="midnightblue" stroke="midnightblue" points="1596.4,-215.469 1605.61,-210.238 1595.15,-208.582 1596.4,-215.469"/>
</g>
<!-- Node11 -->
<g id="node11" class="node"><title>Node11</title>
<polygon fill="white" stroke="#bfbfbf" points="1736.93,-181 1736.93,-211 1831.93,-211 1831.93,-181 1736.93,-181"/>
<text text-anchor="start" x="1744.93" y="-199" font-family="Helvetica,sans-Serif" font-size="10.00">boost/serialization</text>
<text text-anchor="middle" x="1784.43" y="-188" font-family="Helvetica,sans-Serif" font-size="10.00">/export.hpp</text>
</g>
<!-- Node1&#45;&gt;Node11 -->
<g id="edge10" class="edge"><title>Node1&#45;&gt;Node11</title>
<path fill="none" stroke="midnightblue" d="M1260.04,-264.25C1360.07,-257.969 1553.38,-243.022 1726.59,-211.966"/>
<polygon fill="midnightblue" stroke="midnightblue" points="1727.44,-215.37 1736.66,-210.14 1726.19,-208.482 1727.44,-215.37"/>
</g>
<!-- Node12 -->
<g id="node12" class="node"><title>Node12</title>
<g id="a_node12"><a xlink:href="../../dc/dfd/AmpIntensity_8hpp.html" target="_top" xlink:title="Core/AmpIntensity.hpp">
<polygon fill="white" stroke="black" points="274.93,-186.5 274.93,-205.5 391.93,-205.5 391.93,-186.5 274.93,-186.5"/>
<text text-anchor="middle" x="333.43" y="-193.5" font-family="Helvetica,sans-Serif" font-size="10.00">Core/AmpIntensity.hpp</text>
</a>
</g>
</g>
<!-- Node1&#45;&gt;Node12 -->
<g id="edge11" class="edge"><title>Node1&#45;&gt;Node12</title>
<path fill="none" stroke="midnightblue" d="M1124.67,-262.399C964.469,-249.158 563.77,-216.039 402.385,-202.699"/>
<polygon fill="midnightblue" stroke="midnightblue" points="402.361,-199.186 392.106,-201.85 401.784,-206.162 402.361,-199.186"/>
</g>
<!-- Node14 -->
<g id="node14" class="node"><title>Node14</title>
<g id="a_node14"><a xlink:href="../../df/d9f/ParameterList_8hpp.html" target="_top" xlink:title="This class provides a list of fit parameters which can have different types. ">
<polygon fill="white" stroke="red" points="815.43,-68.5 815.43,-87.5 935.43,-87.5 935.43,-68.5 815.43,-68.5"/>
<text text-anchor="middle" x="875.43" y="-75.5" font-family="Helvetica,sans-Serif" font-size="10.00">Core/ParameterList.hpp</text>
</a>
</g>
</g>
<!-- Node1&#45;&gt;Node14 -->
<g id="edge41" class="edge"><title>Node1&#45;&gt;Node14</title>
<path fill="none" stroke="midnightblue" d="M1124.93,-265.554C1077.39,-260.603 1014.75,-247.189 971.43,-212 937.643,-184.553 955.143,-158.371 928.43,-124 919.518,-112.533 907.277,-101.905 896.804,-93.8606"/>
<polygon fill="midnightblue" stroke="midnightblue" points="898.656,-90.8777 888.534,-87.7487 894.496,-96.5071 898.656,-90.8777"/>
</g>
<!-- Node21 -->
<g id="node21" class="node"><title>Node21</title>
<g id="a_node21"><a xlink:href="../../d0/d0c/TableFormater_8hpp.html" target="_top" xlink:title="Core/TableFormater.hpp">
<polygon fill="white" stroke="black" points="1015.43,-124.5 1015.43,-143.5 1137.43,-143.5 1137.43,-124.5 1015.43,-124.5"/>
<text text-anchor="middle" x="1076.43" y="-131.5" font-family="Helvetica,sans-Serif" font-size="10.00">Core/TableFormater.hpp</text>
</a>
</g>
</g>
<!-- Node1&#45;&gt;Node21 -->
<g id="edge42" class="edge"><title>Node1&#45;&gt;Node21</title>
<path fill="none" stroke="midnightblue" d="M1175.31,-248.375C1152.43,-222.133 1112.25,-176.074 1090.84,-151.516"/>
<polygon fill="midnightblue" stroke="midnightblue" points="1093.31,-149.03 1084.1,-143.794 1088.04,-153.631 1093.31,-149.03"/>
</g>
<!-- Node24 -->
<g id="node24" class="node"><title>Node24</title>
<g id="a_node24"><a xlink:href="../../dc/ded/Properties_8hpp.html" target="_top" xlink:title="Core/Properties.hpp">
<polygon fill="white" stroke="red" points="815.43,-124.5 815.43,-143.5 919.43,-143.5 919.43,-124.5 815.43,-124.5"/>
<text text-anchor="middle" x="867.43" y="-131.5" font-family="Helvetica,sans-Serif" font-size="10.00">Core/Properties.hpp</text>
</a>
</g>
</g>
<!-- Node1&#45;&gt;Node24 -->
<g id="edge50" class="edge"><title>Node1&#45;&gt;Node24</title>
<path fill="none" stroke="midnightblue" d="M1124.82,-265.174C1069.86,-260.222 992.111,-246.981 933.43,-212 908.93,-197.395 889.008,-170.44 877.681,-152.614"/>
<polygon fill="midnightblue" stroke="midnightblue" points="880.493,-150.501 872.298,-143.786 874.516,-154.146 880.493,-150.501"/>
</g>
<!-- Node12&#45;&gt;Node2 -->
<g id="edge12" class="edge"><title>Node12&#45;&gt;Node2</title>
<path fill="none" stroke="midnightblue" d="M274.551,-193.364C237.926,-188.917 193.384,-176.535 169.43,-144 149.403,-116.799 147.697,-93.8577 169.43,-68 202.274,-28.9225 359.572,-19.7833 428.709,-17.6489"/>
<polygon fill="midnightblue" stroke="midnightblue" points="429.117,-21.1391 439.016,-17.363 428.923,-14.1417 429.117,-21.1391"/>
</g>
<!-- Node12&#45;&gt;Node6 -->
<g id="edge13" class="edge"><title>Node12&#45;&gt;Node6</title>
<path fill="none" stroke="midnightblue" d="M311.7,-186.393C264.557,-166.543 160.388,-115.604 202.43,-68 245.271,-19.491 428.876,-48.5979 491.43,-32 494.252,-31.2512 497.145,-30.3289 500.005,-29.313"/>
<polygon fill="midnightblue" stroke="midnightblue" points="501.415,-32.5199 509.449,-25.6137 498.862,-26.002 501.415,-32.5199"/>
</g>
<!-- Node13 -->
<g id="node13" class="node"><title>Node13</title>
<polygon fill="white" stroke="#bfbfbf" points="1.93014,-6.5 1.93014,-25.5 48.9301,-25.5 48.9301,-6.5 1.93014,-6.5"/>
<text text-anchor="middle" x="25.4301" y="-13.5" font-family="Helvetica,sans-Serif" font-size="10.00">math.h</text>
</g>
<!-- Node12&#45;&gt;Node13 -->
<g id="edge14" class="edge"><title>Node12&#45;&gt;Node13</title>
<path fill="none" stroke="midnightblue" d="M274.78,-187.212C226.984,-179.667 158.335,-166.07 101.43,-144 55.0188,-126 29.3205,-131.11 4.43014,-88 -5.271,-71.1976 3.76762,-49.527 12.8205,-34.5698"/>
<polygon fill="midnightblue" stroke="midnightblue" points="15.9995,-36.1059 18.5747,-25.8288 10.1527,-32.2569 15.9995,-36.1059"/>
</g>
<!-- Node12&#45;&gt;Node14 -->
<g id="edge15" class="edge"><title>Node12&#45;&gt;Node14</title>
<path fill="none" stroke="midnightblue" d="M378.362,-186.427C429.541,-176.575 515.635,-159.734 589.43,-144 674.286,-125.908 772.887,-103.104 829.342,-89.8749"/>
<polygon fill="midnightblue" stroke="midnightblue" points="830.444,-93.2115 839.38,-87.5196 828.845,-86.3966 830.444,-93.2115"/>
</g>
<!-- Node16 -->
<g id="node16" class="node"><title>Node16</title>
<g id="a_node16"><a xlink:href="../../da/db2/FunctionTree_8hpp.html" target="_top" xlink:title="This class can be used to store a function in a tree&#45;like structure. ">
<polygon fill="white" stroke="red" points="211.43,-68.5 211.43,-87.5 327.43,-87.5 327.43,-68.5 211.43,-68.5"/>
<text text-anchor="middle" x="269.43" y="-75.5" font-family="Helvetica,sans-Serif" font-size="10.00">Core/FunctionTree.hpp</text>
</a>
</g>
</g>
<!-- Node12&#45;&gt;Node16 -->
<g id="edge22" class="edge"><title>Node12&#45;&gt;Node16</title>
<path fill="none" stroke="midnightblue" d="M328.62,-186.281C318.098,-167.21 292.872,-121.488 278.99,-96.3272"/>
<polygon fill="midnightblue" stroke="midnightblue" points="282.018,-94.5698 274.122,-87.5048 275.889,-97.9514 282.018,-94.5698"/>
</g>
<!-- Node17 -->
<g id="node17" class="node"><title>Node17</title>
<g id="a_node17"><a xlink:href="../../d2/d4b/Data_8hpp.html" target="_top" xlink:title="Contains Data interface class. ">
<polygon fill="white" stroke="red" points="441.43,-124.5 441.43,-143.5 553.43,-143.5 553.43,-124.5 441.43,-124.5"/>
<text text-anchor="middle" x="497.43" y="-131.5" font-family="Helvetica,sans-Serif" font-size="10.00">DataReader/Data.hpp</text>
</a>
</g>
</g>
<!-- Node12&#45;&gt;Node17 -->
<g id="edge26" class="edge"><title>Node12&#45;&gt;Node17</title>
<path fill="none" stroke="midnightblue" d="M356.927,-186.403C385.059,-176.111 432.359,-158.806 464.219,-147.15"/>
<polygon fill="midnightblue" stroke="midnightblue" points="465.788,-150.303 473.977,-143.581 463.383,-143.73 465.788,-150.303"/>
</g>
<!-- Node18 -->
<g id="node18" class="node"><title>Node18</title>
<g id="a_node18"><a xlink:href="../../d8/d6f/Efficiency_8hpp.html" target="_top" xlink:title="Core/Efficiency.hpp">
<polygon fill="white" stroke="red" points="579.93,-68.5 579.93,-87.5 682.93,-87.5 682.93,-68.5 579.93,-68.5"/>
<text text-anchor="middle" x="631.43" y="-75.5" font-family="Helvetica,sans-Serif" font-size="10.00">Core/Efficiency.hpp</text>
</a>
</g>
</g>
<!-- Node12&#45;&gt;Node18 -->
<g id="edge39" class="edge"><title>Node12&#45;&gt;Node18</title>
<path fill="none" stroke="midnightblue" d="M392.077,-190.407C439.939,-184.71 508.121,-172.04 561.43,-144 584.252,-131.996 605.173,-110.596 618.085,-95.6415"/>
<polygon fill="midnightblue" stroke="midnightblue" points="620.992,-97.6204 624.715,-87.7011 615.619,-93.1339 620.992,-97.6204"/>
</g>
<!-- Node19 -->
<g id="node19" class="node"><title>Node19</title>
<g id="a_node19"><a xlink:href="../../df/d33/Generator_8hpp.html" target="_top" xlink:title="Core/Generator.hpp">
<polygon fill="white" stroke="red" points="345.43,-68.5 345.43,-87.5 447.43,-87.5 447.43,-68.5 345.43,-68.5"/>
<text text-anchor="middle" x="396.43" y="-75.5" font-family="Helvetica,sans-Serif" font-size="10.00">Core/Generator.hpp</text>
</a>
</g>
</g>
<!-- Node12&#45;&gt;Node19 -->
<g id="edge40" class="edge"><title>Node12&#45;&gt;Node19</title>
<path fill="none" stroke="midnightblue" d="M338.165,-186.281C348.523,-167.21 373.355,-121.488 387.02,-96.3272"/>
<polygon fill="midnightblue" stroke="midnightblue" points="390.114,-97.9628 391.811,-87.5048 383.963,-94.622 390.114,-97.9628"/>
</g>
<!-- Node20 -->
<g id="node20" class="node"><title>Node20</title>
<g id="a_node20"><a xlink:href="../../d8/dd4/DataPoint_8hpp.html" target="_top" xlink:title="dataPoint stores kinematic information of a dalitz plot ">
<polygon fill="white" stroke="red" points="13.9301,-68.5 13.9301,-87.5 116.93,-87.5 116.93,-68.5 13.9301,-68.5"/>
<text text-anchor="middle" x="65.4301" y="-75.5" font-family="Helvetica,sans-Serif" font-size="10.00">Core/DataPoint.hpp</text>
</a>
</g>
</g>
<!-- Node12&#45;&gt;Node20 -->
<g id="edge38" class="edge"><title>Node12&#45;&gt;Node20</title>
<path fill="none" stroke="midnightblue" d="M274.671,-188.512C232.641,-181.941 175.876,-169.01 131.43,-144 109.638,-131.738 89.9706,-110.393 77.8859,-95.5219"/>
<polygon fill="midnightblue" stroke="midnightblue" points="80.6178,-93.3337 71.6881,-87.6317 75.1129,-97.6577 80.6178,-93.3337"/>
</g>
<!-- Node14&#45;&gt;Node2 -->
<g id="edge20" class="edge"><title>Node14&#45;&gt;Node2</title>
<path fill="none" stroke="midnightblue" d="M815.24,-72.3859C723.082,-64.906 551.48,-49.2239 492.43,-32 490.238,-31.3607 488.011,-30.5783 485.806,-29.7098"/>
<polygon fill="midnightblue" stroke="midnightblue" points="487.036,-26.4253 476.479,-25.5274 484.172,-32.8126 487.036,-26.4253"/>
</g>
<!-- Node14&#45;&gt;Node3 -->
<g id="edge17" class="edge"><title>Node14&#45;&gt;Node3</title>
<path fill="none" stroke="midnightblue" d="M875.43,-68.4035C875.43,-59.9381 875.43,-46.7283 875.43,-35.8199"/>
<polygon fill="midnightblue" stroke="midnightblue" points="878.93,-35.5806 875.43,-25.5806 871.93,-35.5806 878.93,-35.5806"/>
</g>
<!-- Node14&#45;&gt;Node4 -->
<g id="edge16" class="edge"><title>Node14&#45;&gt;Node4</title>
<path fill="none" stroke="midnightblue" d="M889.471,-68.4035C905.481,-58.6014 931.881,-42.4385 950.804,-30.8526"/>
<polygon fill="midnightblue" stroke="midnightblue" points="952.714,-33.7872 959.415,-25.5806 949.059,-27.8172 952.714,-33.7872"/>
</g>
<!-- Node14&#45;&gt;Node6 -->
<g id="edge18" class="edge"><title>Node14&#45;&gt;Node6</title>
<path fill="none" stroke="midnightblue" d="M825.94,-68.4672C755.162,-56.2641 626.665,-34.1095 563.901,-23.2881"/>
<polygon fill="midnightblue" stroke="midnightblue" points="564.141,-19.7779 553.692,-21.5279 562.952,-26.6762 564.141,-19.7779"/>
</g>
<!-- Node14&#45;&gt;Node9 -->
<g id="edge21" class="edge"><title>Node14&#45;&gt;Node9</title>
<path fill="none" stroke="midnightblue" d="M924.067,-68.4672C986.25,-57.5579 1093.77,-38.6954 1159.94,-27.0868"/>
<polygon fill="midnightblue" stroke="midnightblue" points="1160.54,-30.5339 1169.79,-25.3585 1159.33,-23.6392 1160.54,-30.5339"/>
</g>
<!-- Node15 -->
<g id="node15" class="node"><title>Node15</title>
<polygon fill="white" stroke="#bfbfbf" points="1034.43,-6.5 1034.43,-25.5 1086.43,-25.5 1086.43,-6.5 1034.43,-6.5"/>
<text text-anchor="middle" x="1060.43" y="-13.5" font-family="Helvetica,sans-Serif" font-size="10.00">sstream</text>
</g>
<!-- Node14&#45;&gt;Node15 -->
<g id="edge19" class="edge"><title>Node14&#45;&gt;Node15</title>
<path fill="none" stroke="midnightblue" d="M901.936,-68.4035C934.174,-57.9481 988.726,-40.2555 1024.66,-28.6"/>
<polygon fill="midnightblue" stroke="midnightblue" points="1025.84,-31.8981 1034.27,-25.4837 1023.68,-25.2395 1025.84,-31.8981"/>
</g>
<!-- Node16&#45;&gt;Node2 -->
<g id="edge23" class="edge"><title>Node16&#45;&gt;Node2</title>
<path fill="none" stroke="midnightblue" d="M296.939,-68.4035C332.008,-57.4445 392.519,-38.5346 429.56,-26.9595"/>
<polygon fill="midnightblue" stroke="midnightblue" points="430.843,-30.2255 439.344,-23.902 428.755,-23.5441 430.843,-30.2255"/>
</g>
<!-- Node16&#45;&gt;Node3 -->
<g id="edge25" class="edge"><title>Node16&#45;&gt;Node3</title>
<path fill="none" stroke="midnightblue" d="M327.517,-69.0555C330.53,-68.6878 333.515,-68.3336 336.43,-68 529.474,-45.9101 762.208,-26.2407 844.659,-19.4864"/>
<polygon fill="midnightblue" stroke="midnightblue" points="845.156,-22.9575 854.839,-18.6557 844.587,-15.9807 845.156,-22.9575"/>
</g>
<!-- Node16&#45;&gt;Node6 -->
<g id="edge24" class="edge"><title>Node16&#45;&gt;Node6</title>
<path fill="none" stroke="midnightblue" d="M327.23,-68.4571C372.489,-61.0108 436.723,-48.7666 491.43,-32 494.011,-31.2089 496.662,-30.3003 499.298,-29.33"/>
<polygon fill="midnightblue" stroke="midnightblue" points="500.612,-32.574 508.628,-25.6454 498.041,-26.0634 500.612,-32.574"/>
</g>
<!-- Node17&#45;&gt;Node2 -->
<g id="edge27" class="edge"><title>Node17&#45;&gt;Node2</title>
<path fill="none" stroke="midnightblue" d="M494.724,-124.281C488.884,-105.463 474.991,-60.6971 467.122,-35.3399"/>
<polygon fill="midnightblue" stroke="midnightblue" points="470.376,-34.018 464.07,-25.5048 463.691,-36.0928 470.376,-34.018"/>
</g>
<!-- Node17&#45;&gt;Node3 -->
<g id="edge28" class="edge"><title>Node17&#45;&gt;Node3</title>
<path fill="none" stroke="midnightblue" d="M504.434,-124.136C516.326,-109.768 541.962,-81.6319 570.43,-68 663.001,-23.6721 787.408,-17.109 844.474,-16.6274"/>
<polygon fill="midnightblue" stroke="midnightblue" points="844.651,-20.1271 854.642,-16.6016 844.633,-13.1271 844.651,-20.1271"/>
</g>
<!-- Node17&#45;&gt;Node6 -->
<g id="edge29" class="edge"><title>Node17&#45;&gt;Node6</title>
<path fill="none" stroke="midnightblue" d="M499.685,-124.281C504.552,-105.463 516.129,-60.6971 522.687,-35.3399"/>
<polygon fill="midnightblue" stroke="midnightblue" points="526.115,-36.0626 525.231,-25.5048 519.338,-34.3099 526.115,-36.0626"/>
</g>
<!-- Node17&#45;&gt;Node14 -->
<g id="edge33" class="edge"><title>Node17&#45;&gt;Node14</title>
<path fill="none" stroke="midnightblue" d="M553.612,-124.974C620.789,-115.377 733.232,-99.314 805.844,-88.9409"/>
<polygon fill="midnightblue" stroke="midnightblue" points="806.412,-92.3953 815.817,-87.5162 805.422,-85.4657 806.412,-92.3953"/>
</g>
<!-- Node17&#45;&gt;Node18 -->
<g id="edge30" class="edge"><title>Node17&#45;&gt;Node18</title>
<path fill="none" stroke="midnightblue" d="M518.663,-124.444C540.814,-115.517 575.749,-101.439 600.866,-91.3168"/>
<polygon fill="midnightblue" stroke="midnightblue" points="602.33,-94.5006 610.297,-87.5164 599.713,-88.0079 602.33,-94.5006"/>
</g>
<!-- Node17&#45;&gt;Node19 -->
<g id="edge34" class="edge"><title>Node17&#45;&gt;Node19</title>
<path fill="none" stroke="midnightblue" d="M481.203,-124.324C465.079,-115.703 440.13,-102.364 421.466,-92.3855"/>
<polygon fill="midnightblue" stroke="midnightblue" points="423.086,-89.283 412.617,-87.6545 419.786,-95.456 423.086,-89.283"/>
</g>
<!-- Node17&#45;&gt;Node20 -->
<g id="edge35" class="edge"><title>Node17&#45;&gt;Node20</title>
<path fill="none" stroke="midnightblue" d="M441.397,-125.996C360.418,-115.873 211.196,-97.2207 127.152,-86.7152"/>
<polygon fill="midnightblue" stroke="midnightblue" points="127.342,-83.2119 116.985,-85.4444 126.474,-90.1578 127.342,-83.2119"/>
</g>
<!-- Node18&#45;&gt;Node2 -->
<g id="edge32" class="edge"><title>Node18&#45;&gt;Node2</title>
<path fill="none" stroke="midnightblue" d="M600.906,-68.4355C572.454,-60.1441 529.032,-46.6988 492.43,-32 490.79,-31.3413 489.115,-30.6347 487.436,-29.9001"/>
<polygon fill="midnightblue" stroke="midnightblue" points="488.518,-26.5447 477.973,-25.524 485.58,-32.8982 488.518,-26.5447"/>
</g>
<!-- Node18&#45;&gt;Node4 -->
<g id="edge31" class="edge"><title>Node18&#45;&gt;Node4</title>
<path fill="none" stroke="midnightblue" d="M683.143,-69.2752C738.15,-60.8718 827.64,-46.6658 904.43,-32 914.816,-30.0165 926.036,-27.6669 936.348,-25.423"/>
<polygon fill="midnightblue" stroke="midnightblue" points="937.282,-28.8013 946.295,-23.2318 935.776,-21.9653 937.282,-28.8013"/>
</g>
<!-- Node20&#45;&gt;Node2 -->
<g id="edge37" class="edge"><title>Node20&#45;&gt;Node2</title>
<path fill="none" stroke="midnightblue" d="M117.2,-69.156C200.185,-56.5827 360.597,-32.2778 429.121,-21.8953"/>
<polygon fill="midnightblue" stroke="midnightblue" points="429.941,-25.311 439.304,-20.3524 428.893,-18.39 429.941,-25.311"/>
</g>
<!-- Node20&#45;&gt;Node13 -->
<g id="edge36" class="edge"><title>Node20&#45;&gt;Node13</title>
<path fill="none" stroke="midnightblue" d="M59.6991,-68.4035C53.7585,-59.4925 44.3133,-45.3247 36.8419,-34.1177"/>
<polygon fill="midnightblue" stroke="midnightblue" points="39.6098,-31.9596 31.1505,-25.5806 33.7854,-35.8426 39.6098,-31.9596"/>
</g>
<!-- Node21&#45;&gt;Node2 -->
<g id="edge45" class="edge"><title>Node21&#45;&gt;Node2</title>
<path fill="none" stroke="midnightblue" d="M1016.64,-124.489C961.755,-116.331 878.29,-103.058 806.43,-88 770.981,-80.572 762.927,-75.1949 727.43,-68 623.873,-47.0099 593.332,-63.3603 492.43,-32 490.296,-31.3368 488.125,-30.5475 485.972,-29.6831"/>
<polygon fill="midnightblue" stroke="midnightblue" points="487.385,-26.4811 476.83,-25.5706 484.514,-32.865 487.385,-26.4811"/>
</g>
<!-- Node21&#45;&gt;Node3 -->
<g id="edge46" class="edge"><title>Node21&#45;&gt;Node3</title>
<path fill="none" stroke="midnightblue" d="M1064.22,-124.313C1045.82,-111.372 1009.68,-86.5662 977.43,-68 952.989,-53.9308 924.168,-39.7288 903.408,-29.8976"/>
<polygon fill="midnightblue" stroke="midnightblue" points="904.74,-26.6564 894.2,-25.5734 901.764,-32.9924 904.74,-26.6564"/>
</g>
<!-- Node21&#45;&gt;Node4 -->
<g id="edge43" class="edge"><title>Node21&#45;&gt;Node4</title>
<path fill="none" stroke="midnightblue" d="M1068.69,-124.281C1051.45,-104.872 1009.71,-57.8611 987.647,-33.0108"/>
<polygon fill="midnightblue" stroke="midnightblue" points="990.239,-30.6586 980.982,-25.5048 985.004,-35.3063 990.239,-30.6586"/>
</g>
<!-- Node21&#45;&gt;Node14 -->
<g id="edge49" class="edge"><title>Node21&#45;&gt;Node14</title>
<path fill="none" stroke="midnightblue" d="M1044.58,-124.444C1010.03,-115.162 954.748,-100.309 916.847,-90.127"/>
<polygon fill="midnightblue" stroke="midnightblue" points="917.696,-86.7309 907.13,-87.5164 915.88,-93.4912 917.696,-86.7309"/>
</g>
<!-- Node21&#45;&gt;Node15 -->
<g id="edge47" class="edge"><title>Node21&#45;&gt;Node15</title>
<path fill="none" stroke="midnightblue" d="M1075.23,-124.281C1072.64,-105.547 1066.51,-61.098 1063.01,-35.6822"/>
<polygon fill="midnightblue" stroke="midnightblue" points="1066.44,-34.9327 1061.6,-25.5048 1059.5,-35.8892 1066.44,-34.9327"/>
</g>
<!-- Node22 -->
<g id="node22" class="node"><title>Node22</title>
<polygon fill="white" stroke="#bfbfbf" points="1105.43,-68.5 1105.43,-87.5 1155.43,-87.5 1155.43,-68.5 1105.43,-68.5"/>
<text text-anchor="middle" x="1130.43" y="-75.5" font-family="Helvetica,sans-Serif" font-size="10.00">iomanip</text>
</g>
<!-- Node21&#45;&gt;Node22 -->
<g id="edge44" class="edge"><title>Node21&#45;&gt;Node22</title>
<path fill="none" stroke="midnightblue" d="M1085.35,-124.083C1093.21,-116.22 1104.86,-104.569 1114.35,-95.0813"/>
<polygon fill="midnightblue" stroke="midnightblue" points="1117.08,-97.2971 1121.68,-87.7511 1112.13,-92.3473 1117.08,-97.2971"/>
</g>
<!-- Node23 -->
<g id="node23" class="node"><title>Node23</title>
<polygon fill="white" stroke="#bfbfbf" points="1173.43,-68.5 1173.43,-87.5 1217.43,-87.5 1217.43,-68.5 1173.43,-68.5"/>
<text text-anchor="middle" x="1195.43" y="-75.5" font-family="Helvetica,sans-Serif" font-size="10.00">cmath</text>
</g>
<!-- Node21&#45;&gt;Node23 -->
<g id="edge48" class="edge"><title>Node21&#45;&gt;Node23</title>
<path fill="none" stroke="midnightblue" d="M1095.29,-124.444C1114.7,-115.636 1145.16,-101.812 1167.39,-91.722"/>
<polygon fill="midnightblue" stroke="midnightblue" points="1169,-94.836 1176.66,-87.5164 1166.11,-88.4615 1169,-94.836"/>
</g>
<!-- Node24&#45;&gt;Node2 -->
<g id="edge51" class="edge"><title>Node24&#45;&gt;Node2</title>
<path fill="none" stroke="midnightblue" d="M839.842,-124.466C812.937,-115.94 770.99,-102.104 735.43,-88 715.462,-80.0804 711.934,-74.4055 691.43,-68 605.639,-41.1985 577.893,-59.8305 492.43,-32 490.511,-31.3752 488.56,-30.6544 486.617,-29.8738"/>
<polygon fill="midnightblue" stroke="midnightblue" points="487.732,-26.5381 477.176,-25.64 484.868,-32.9253 487.732,-26.5381"/>
</g>
<!-- Node24&#45;&gt;Node14 -->
<g id="edge52" class="edge"><title>Node24&#45;&gt;Node14</title>
<path fill="none" stroke="midnightblue" d="M868.751,-124.083C869.811,-116.927 871.336,-106.635 872.661,-97.6911"/>
<polygon fill="midnightblue" stroke="midnightblue" points="876.13,-98.1561 874.134,-87.7511 869.206,-97.1302 876.13,-98.1561"/>
</g>
</g>
</svg>
