<?xml version="1.0" encoding="UTF-8" standalone="no"?>
<!DOCTYPE svg PUBLIC "-//W3C//DTD SVG 1.1//EN"
 "http://www.w3.org/Graphics/SVG/1.1/DTD/svg11.dtd">
<!-- Generated by graphviz version 2.36.0 (20140111.2315)
 -->
<!-- Title: /home/travis/build/ComPWA/ComPWA/Core/FitResult.hpp Pages: 1 -->
<svg width="1674pt" height="422pt"
 viewBox="0.00 0.00 1674.00 422.00" xmlns="http://www.w3.org/2000/svg" xmlns:xlink="http://www.w3.org/1999/xlink">
<g id="graph0" class="graph" transform="scale(1 1) rotate(0) translate(4 418)">
<title>/home/travis/build/ComPWA/ComPWA/Core/FitResult.hpp</title>
<polygon fill="white" stroke="none" points="-4,4 -4,-418 1670,-418 1670,4 -4,4"/>
<!-- Node1 -->
<g id="node1" class="node"><title>Node1</title>
<polygon fill="#bfbfbf" stroke="black" points="1010.5,-372.5 1010.5,-413.5 1145.5,-413.5 1145.5,-372.5 1010.5,-372.5"/>
<text text-anchor="start" x="1018.5" y="-401.5" font-family="Helvetica,sans-Serif" font-size="10.00">/home/travis/build</text>
<text text-anchor="start" x="1018.5" y="-390.5" font-family="Helvetica,sans-Serif" font-size="10.00">/ComPWA/ComPWA/Core</text>
<text text-anchor="middle" x="1078" y="-379.5" font-family="Helvetica,sans-Serif" font-size="10.00">/FitResult.hpp</text>
</g>
<!-- Node2 -->
<g id="node2" class="node"><title>Node2</title>
<polygon fill="white" stroke="#bfbfbf" points="756,-6.5 756,-25.5 800,-25.5 800,-6.5 756,-6.5"/>
<text text-anchor="middle" x="778" y="-13.5" font-family="Helvetica,sans-Serif" font-size="10.00">vector</text>
</g>
<!-- Node1&#45;&gt;Node2 -->
<g id="edge1" class="edge"><title>Node1&#45;&gt;Node2</title>
<path fill="none" stroke="midnightblue" d="M1064.64,-372.138C1029.26,-320.083 929.205,-176.252 832,-68 820.603,-55.308 806.566,-42.1153 795.661,-32.3282"/>
<polygon fill="midnightblue" stroke="midnightblue" points="797.835,-29.5788 788.027,-25.5725 793.196,-34.8208 797.835,-29.5788"/>
</g>
<!-- Node3 -->
<g id="node3" class="node"><title>Node3</title>
<polygon fill="white" stroke="#bfbfbf" points="1065.5,-6.5 1065.5,-25.5 1106.5,-25.5 1106.5,-6.5 1065.5,-6.5"/>
<text text-anchor="middle" x="1086" y="-13.5" font-family="Helvetica,sans-Serif" font-size="10.00">string</text>
</g>
<!-- Node1&#45;&gt;Node3 -->
<g id="edge2" class="edge"><title>Node1&#45;&gt;Node3</title>
<path fill="none" stroke="midnightblue" d="M1145.89,-389.592C1264.69,-384.533 1504.9,-370.301 1581,-336 1627.47,-315.054 1666,-309.974 1666,-259 1666,-259 1666,-259 1666,-139 1666,-91.7926 1630.17,-87.1105 1587,-68 1501.94,-30.3423 1212.12,-20.0508 1116.72,-17.6497"/>
<polygon fill="midnightblue" stroke="midnightblue" points="1116.66,-14.1474 1106.58,-17.4061 1116.49,-21.1453 1116.66,-14.1474"/>
</g>
<!-- Node4 -->
<g id="node4" class="node"><title>Node4</title>
<polygon fill="white" stroke="#bfbfbf" points="1319,-68.5 1319,-87.5 1373,-87.5 1373,-68.5 1319,-68.5"/>
<text text-anchor="middle" x="1346" y="-75.5" font-family="Helvetica,sans-Serif" font-size="10.00">iostream</text>
</g>
<!-- Node1&#45;&gt;Node4 -->
<g id="edge3" class="edge"><title>Node1&#45;&gt;Node4</title>
<path fill="none" stroke="midnightblue" d="M1145.72,-389.782C1292.73,-383.124 1628,-357.177 1628,-259 1628,-259 1628,-259 1628,-201 1628,-95.5392 1459.81,-80.2059 1383.21,-78.6915"/>
<polygon fill="midnightblue" stroke="midnightblue" points="1383.08,-75.1897 1373.04,-78.5616 1382.99,-82.1891 1383.08,-75.1897"/>
</g>
<!-- Node5 -->
<g id="node5" class="node"><title>Node5</title>
<polygon fill="white" stroke="#bfbfbf" points="0,-6.5 0,-25.5 50,-25.5 50,-6.5 0,-6.5"/>
<text text-anchor="middle" x="25" y="-13.5" font-family="Helvetica,sans-Serif" font-size="10.00">fstream</text>
</g>
<!-- Node1&#45;&gt;Node5 -->
<g id="edge4" class="edge"><title>Node1&#45;&gt;Node5</title>
<path fill="none" stroke="midnightblue" d="M1010.32,-391.865C796.917,-390.942 147.523,-384.164 67,-336 32.5918,-315.419 20,-299.094 20,-259 20,-259 20,-259 20,-139 20,-102.383 22.2764,-59.6363 23.7572,-35.7026"/>
<polygon fill="midnightblue" stroke="midnightblue" points="27.2595,-35.7775 24.4068,-25.5739 20.2739,-35.3294 27.2595,-35.7775"/>
</g>
<!-- Node6 -->
<g id="node6" class="node"><title>Node6</title>
<polygon fill="white" stroke="#bfbfbf" points="326,-6.5 326,-25.5 378,-25.5 378,-6.5 326,-6.5"/>
<text text-anchor="middle" x="352" y="-13.5" font-family="Helvetica,sans-Serif" font-size="10.00">memory</text>
</g>
<!-- Node1&#45;&gt;Node6 -->
<g id="edge5" class="edge"><title>Node1&#45;&gt;Node6</title>
<path fill="none" stroke="midnightblue" d="M1010.49,-389.6C794.43,-381.033 134,-347.598 134,-259 134,-259 134,-259 134,-139 134,-90.4558 175.225,-92.7256 217,-68 218.171,-67.307 279.956,-44.0554 319.526,-29.1902"/>
<polygon fill="midnightblue" stroke="midnightblue" points="320.927,-32.4031 329.058,-25.6104 318.465,-25.85 320.927,-32.4031"/>
</g>
<!-- Node7 -->
<g id="node7" class="node"><title>Node7</title>
<polygon fill="white" stroke="#bfbfbf" points="86.5,-1 86.5,-31 181.5,-31 181.5,-1 86.5,-1"/>
<text text-anchor="start" x="94.5" y="-19" font-family="Helvetica,sans-Serif" font-size="10.00">boost/serialization</text>
<text text-anchor="middle" x="134" y="-8" font-family="Helvetica,sans-Serif" font-size="10.00">/serialization.hpp</text>
</g>
<!-- Node1&#45;&gt;Node7 -->
<g id="edge6" class="edge"><title>Node1&#45;&gt;Node7</title>
<path fill="none" stroke="midnightblue" d="M1010.19,-391.459C803.371,-389.342 189.905,-379.429 112,-336 75.4906,-315.647 58,-300.799 58,-259 58,-259 58,-259 58,-139 58,-98.8687 87.9927,-61.0125 110.295,-38.4105"/>
<polygon fill="midnightblue" stroke="midnightblue" points="112.811,-40.8452 117.509,-31.3489 107.915,-35.8429 112.811,-40.8452"/>
</g>
<!-- Node8 -->
<g id="node8" class="node"><title>Node8</title>
<polygon fill="white" stroke="#bfbfbf" points="208.5,-1 208.5,-31 303.5,-31 303.5,-1 208.5,-1"/>
<text text-anchor="start" x="216.5" y="-19" font-family="Helvetica,sans-Serif" font-size="10.00">boost/serialization</text>
<text text-anchor="middle" x="256" y="-8" font-family="Helvetica,sans-Serif" font-size="10.00">/nvp.hpp</text>
</g>
<!-- Node1&#45;&gt;Node8 -->
<g id="edge7" class="edge"><title>Node1&#45;&gt;Node8</title>
<path fill="none" stroke="midnightblue" d="M1010.37,-390.004C816.933,-383.975 270.456,-364.591 195,-336 142.874,-316.249 96,-314.742 96,-259 96,-259 96,-259 96,-139 96,-85.6794 152.884,-52.5705 198.817,-34.5273"/>
<polygon fill="midnightblue" stroke="midnightblue" points="200.306,-37.7067 208.428,-30.9039 197.836,-31.1567 200.306,-37.7067"/>
</g>
<!-- Node9 -->
<g id="node9" class="node"><title>Node9</title>
<polygon fill="white" stroke="#bfbfbf" points="1270.5,-125 1270.5,-155 1365.5,-155 1365.5,-125 1270.5,-125"/>
<text text-anchor="start" x="1278.5" y="-143" font-family="Helvetica,sans-Serif" font-size="10.00">boost/serialization</text>
<text text-anchor="middle" x="1318" y="-132" font-family="Helvetica,sans-Serif" font-size="10.00">/vector.hpp</text>
</g>
<!-- Node1&#45;&gt;Node9 -->
<g id="edge8" class="edge"><title>Node1&#45;&gt;Node9</title>
<path fill="none" stroke="midnightblue" d="M1083.71,-372.403C1089.86,-353.573 1100.95,-324.966 1117,-304 1164.93,-241.382 1241.62,-188.007 1285.1,-160.635"/>
<polygon fill="midnightblue" stroke="midnightblue" points="1287.21,-163.447 1293.86,-155.195 1283.51,-157.502 1287.21,-163.447"/>
</g>
<!-- Node10 -->
<g id="node10" class="node"><title>Node10</title>
<polygon fill="white" stroke="#bfbfbf" points="1126.5,-305 1126.5,-335 1239.5,-335 1239.5,-305 1126.5,-305"/>
<text text-anchor="start" x="1134.5" y="-323" font-family="Helvetica,sans-Serif" font-size="10.00">boost/serialization</text>
<text text-anchor="middle" x="1183" y="-312" font-family="Helvetica,sans-Serif" font-size="10.00">/assume_abstract.hpp</text>
</g>
<!-- Node1&#45;&gt;Node10 -->
<g id="edge9" class="edge"><title>Node1&#45;&gt;Node10</title>
<path fill="none" stroke="midnightblue" d="M1106.97,-372.411C1121.45,-362.622 1138.93,-350.797 1153.49,-340.957"/>
<polygon fill="midnightblue" stroke="midnightblue" points="1155.79,-343.624 1162.11,-335.123 1151.87,-337.825 1155.79,-343.624"/>
</g>
<!-- Node11 -->
<g id="node11" class="node"><title>Node11</title>
<polygon fill="white" stroke="#bfbfbf" points="1257.5,-305 1257.5,-335 1352.5,-335 1352.5,-305 1257.5,-305"/>
<text text-anchor="start" x="1265.5" y="-323" font-family="Helvetica,sans-Serif" font-size="10.00">boost/serialization</text>
<text text-anchor="middle" x="1305" y="-312" font-family="Helvetica,sans-Serif" font-size="10.00">/export.hpp</text>
</g>
<!-- Node1&#45;&gt;Node11 -->
<g id="edge10" class="edge"><title>Node1&#45;&gt;Node11</title>
<path fill="none" stroke="midnightblue" d="M1140.63,-372.411C1175,-361.661 1217.22,-348.456 1250.26,-338.121"/>
<polygon fill="midnightblue" stroke="midnightblue" points="1251.7,-341.337 1260.2,-335.012 1249.61,-334.657 1251.7,-341.337"/>
</g>
<!-- Node12 -->
<g id="node12" class="node"><title>Node12</title>
<g id="a_node12"><a xlink:href="../../dc/de3/Amplitude_8hpp.html" target="_top" xlink:title="This class provides the interface to the model which tries to describe the intensity. ">
<polygon fill="white" stroke="black" points="566.5,-310.5 566.5,-329.5 669.5,-329.5 669.5,-310.5 566.5,-310.5"/>
<text text-anchor="middle" x="618" y="-317.5" font-family="Helvetica,sans-Serif" font-size="10.00">Core/Amplitude.hpp</text>
</a>
</g>
</g>
<!-- Node1&#45;&gt;Node12 -->
<g id="edge11" class="edge"><title>Node1&#45;&gt;Node12</title>
<path fill="none" stroke="midnightblue" d="M1010.13,-381.524C921.029,-367.772 765.891,-343.827 679.879,-330.551"/>
<polygon fill="midnightblue" stroke="midnightblue" points="680.158,-327.053 669.741,-328.986 679.091,-333.971 680.158,-327.053"/>
</g>
<!-- Node21 -->
<g id="node21" class="node"><title>Node21</title>
<g id="a_node21"><a xlink:href="../../df/d9f/ParameterList_8hpp.html" target="_top" xlink:title="This class provides a list of fit parameters which can have different types. ">
<polygon fill="white" stroke="red" points="996,-192.5 996,-211.5 1116,-211.5 1116,-192.5 996,-192.5"/>
<text text-anchor="middle" x="1056" y="-199.5" font-family="Helvetica,sans-Serif" font-size="10.00">Core/ParameterList.hpp</text>
</a>
</g>
</g>
<!-- Node1&#45;&gt;Node21 -->
<g id="edge62" class="edge"><title>Node1&#45;&gt;Node21</title>
<path fill="none" stroke="midnightblue" d="M1075.73,-372.486C1071.47,-335.891 1062.34,-257.425 1058.16,-221.567"/>
<polygon fill="midnightblue" stroke="midnightblue" points="1061.63,-221.057 1056.99,-211.529 1054.67,-221.866 1061.63,-221.057"/>
</g>
<!-- Node24 -->
<g id="node24" class="node"><title>Node24</title>
<g id="a_node24"><a xlink:href="../../d0/d0c/TableFormater_8hpp.html" target="_top" xlink:title="Core/TableFormater.hpp">
<polygon fill="white" stroke="red" points="1320,-248.5 1320,-267.5 1442,-267.5 1442,-248.5 1320,-248.5"/>
<text text-anchor="middle" x="1381" y="-255.5" font-family="Helvetica,sans-Serif" font-size="10.00">Core/TableFormater.hpp</text>
</a>
</g>
</g>
<!-- Node1&#45;&gt;Node24 -->
<g id="edge63" class="edge"><title>Node1&#45;&gt;Node24</title>
<path fill="none" stroke="midnightblue" d="M1145.8,-386.804C1219.41,-379.78 1330.57,-364.69 1361,-336 1376.83,-321.077 1380.75,-295.37 1381.43,-277.798"/>
<polygon fill="midnightblue" stroke="midnightblue" points="1384.93,-277.643 1381.49,-267.62 1377.93,-277.597 1384.93,-277.643"/>
</g>
<!-- Node25 -->
<g id="node25" class="node"><title>Node25</title>
<g id="a_node25"><a xlink:href="../../d8/d35/PhysConst_8hpp.html" target="_top" xlink:title="PhysConst provides particle information to the framework. ">
<polygon fill="white" stroke="red" points="1416,-192.5 1416,-211.5 1524,-211.5 1524,-192.5 1416,-192.5"/>
<text text-anchor="middle" x="1470" y="-199.5" font-family="Helvetica,sans-Serif" font-size="10.00">Core/PhysConst.hpp</text>
</a>
</g>
</g>
<!-- Node1&#45;&gt;Node25 -->
<g id="edge69" class="edge"><title>Node1&#45;&gt;Node25</title>
<path fill="none" stroke="midnightblue" d="M1145.66,-391.185C1210.32,-387.824 1308.82,-375.8 1384,-336 1421.5,-316.148 1429.51,-304.581 1451,-268 1459.47,-253.587 1464.39,-235.132 1467.09,-221.572"/>
<polygon fill="midnightblue" stroke="midnightblue" points="1470.58,-221.986 1468.87,-211.529 1463.68,-220.766 1470.58,-221.986"/>
</g>
<!-- Node12&#45;&gt;Node2 -->
<g id="edge12" class="edge"><title>Node12&#45;&gt;Node2</title>
<path fill="none" stroke="midnightblue" d="M621.811,-310.195C627.68,-296.716 639.369,-270.192 650,-248 676.707,-192.251 682.931,-178.01 713,-124 730.97,-91.7217 753.731,-55.1377 767,-34.1943"/>
<polygon fill="midnightblue" stroke="midnightblue" points="769.961,-36.0597 772.377,-25.7439 764.056,-32.3017 769.961,-36.0597"/>
</g>
<!-- Node12&#45;&gt;Node6 -->
<g id="edge13" class="edge"><title>Node12&#45;&gt;Node6</title>
<path fill="none" stroke="midnightblue" d="M566.402,-316.453C449.001,-309.251 172,-283.707 172,-203 172,-203 172,-203 172,-139 172,-103.002 271.893,-52.9328 322.847,-29.7346"/>
<polygon fill="midnightblue" stroke="midnightblue" points="324.365,-32.8896 332.049,-25.5951 321.493,-26.5057 324.365,-32.8896"/>
</g>
<!-- Node13 -->
<g id="node13" class="node"><title>Node13</title>
<polygon fill="white" stroke="#bfbfbf" points="200.5,-130.5 200.5,-149.5 247.5,-149.5 247.5,-130.5 200.5,-130.5"/>
<text text-anchor="middle" x="224" y="-137.5" font-family="Helvetica,sans-Serif" font-size="10.00">math.h</text>
</g>
<!-- Node12&#45;&gt;Node13 -->
<g id="edge14" class="edge"><title>Node12&#45;&gt;Node13</title>
<path fill="none" stroke="midnightblue" d="M566.186,-312.376C470.866,-299.003 273.79,-265.421 234,-212 222.871,-197.058 221.337,-175.319 221.982,-159.837"/>
<polygon fill="midnightblue" stroke="midnightblue" points="225.473,-160.092 222.732,-149.858 218.493,-159.567 225.473,-160.092"/>
</g>
<!-- Node14 -->
<g id="node14" class="node"><title>Node14</title>
<g id="a_node14"><a xlink:href="../../d4/d62/Resonance_8hpp.html" target="_top" xlink:title="Core/Resonance.hpp">
<polygon fill="white" stroke="red" points="391.5,-248.5 391.5,-267.5 500.5,-267.5 500.5,-248.5 391.5,-248.5"/>
<text text-anchor="middle" x="446" y="-255.5" font-family="Helvetica,sans-Serif" font-size="10.00">Core/Resonance.hpp</text>
</a>
</g>
</g>
<!-- Node12&#45;&gt;Node14 -->
<g id="edge15" class="edge"><title>Node12&#45;&gt;Node14</title>
<path fill="none" stroke="midnightblue" d="M593.357,-310.403C563.725,-300.067 513.815,-282.656 480.398,-270.999"/>
<polygon fill="midnightblue" stroke="midnightblue" points="481.193,-267.57 470.598,-267.581 478.887,-274.179 481.193,-267.57"/>
</g>
<!-- Node18 -->
<g id="node18" class="node"><title>Node18</title>
<g id="a_node18"><a xlink:href="../../d8/dd4/DataPoint_8hpp.html" target="_top" xlink:title="dataPoint stores kinematic information of a dalitz plot ">
<polygon fill="white" stroke="red" points="276.5,-192.5 276.5,-211.5 379.5,-211.5 379.5,-192.5 276.5,-192.5"/>
<text text-anchor="middle" x="328" y="-199.5" font-family="Helvetica,sans-Serif" font-size="10.00">Core/DataPoint.hpp</text>
</a>
</g>
</g>
<!-- Node12&#45;&gt;Node18 -->
<g id="edge59" class="edge"><title>Node12&#45;&gt;Node18</title>
<path fill="none" stroke="midnightblue" d="M566.098,-317.435C515.739,-313.795 438.808,-302.455 382,-268 362.861,-256.392 347.354,-235.531 337.948,-220.57"/>
<polygon fill="midnightblue" stroke="midnightblue" points="340.808,-218.533 332.671,-211.748 334.8,-222.127 340.808,-218.533"/>
</g>
<!-- Node19 -->
<g id="node19" class="node"><title>Node19</title>
<g id="a_node19"><a xlink:href="../../d8/d6f/Efficiency_8hpp.html" target="_top" xlink:title="Core/Efficiency.hpp">
<polygon fill="white" stroke="red" points="722.5,-130.5 722.5,-149.5 825.5,-149.5 825.5,-130.5 722.5,-130.5"/>
<text text-anchor="middle" x="774" y="-137.5" font-family="Helvetica,sans-Serif" font-size="10.00">Core/Efficiency.hpp</text>
</a>
</g>
</g>
<!-- Node12&#45;&gt;Node19 -->
<g id="edge60" class="edge"><title>Node12&#45;&gt;Node19</title>
<path fill="none" stroke="midnightblue" d="M623.385,-310.456C636.981,-289.213 674.37,-232.779 713,-192 725.65,-178.647 741.658,-165.377 754.1,-155.722"/>
<polygon fill="midnightblue" stroke="midnightblue" points="756.226,-158.502 762.06,-149.658 751.984,-152.934 756.226,-158.502"/>
</g>
<!-- Node20 -->
<g id="node20" class="node"><title>Node20</title>
<g id="a_node20"><a xlink:href="../../da/db2/FunctionTree_8hpp.html" target="_top" xlink:title="This class can be used to store a function in a tree&#45;like structure. ">
<polygon fill="white" stroke="red" points="474,-192.5 474,-211.5 590,-211.5 590,-192.5 474,-192.5"/>
<text text-anchor="middle" x="532" y="-199.5" font-family="Helvetica,sans-Serif" font-size="10.00">Core/FunctionTree.hpp</text>
</a>
</g>
</g>
<!-- Node12&#45;&gt;Node20 -->
<g id="edge51" class="edge"><title>Node12&#45;&gt;Node20</title>
<path fill="none" stroke="midnightblue" d="M611.536,-310.281C597.272,-291.041 562.898,-244.677 544.354,-219.664"/>
<polygon fill="midnightblue" stroke="midnightblue" points="547.072,-217.453 538.305,-211.505 541.449,-221.622 547.072,-217.453"/>
</g>
<!-- Node12&#45;&gt;Node21 -->
<g id="edge42" class="edge"><title>Node12&#45;&gt;Node21</title>
<path fill="none" stroke="midnightblue" d="M669.781,-311.454C723.051,-303.102 808.156,-288.117 880,-268 932.672,-253.252 991.971,-229.884 1026.54,-215.55"/>
<polygon fill="midnightblue" stroke="midnightblue" points="1028.15,-218.672 1036.02,-211.587 1025.45,-212.214 1028.15,-218.672"/>
</g>
<!-- Node22 -->
<g id="node22" class="node"><title>Node22</title>
<g id="a_node22"><a xlink:href="../../d2/d4b/Data_8hpp.html" target="_top" xlink:title="This class provides the interface to experimental data. ">
<polygon fill="white" stroke="red" points="760,-248.5 760,-267.5 872,-267.5 872,-248.5 760,-248.5"/>
<text text-anchor="middle" x="816" y="-255.5" font-family="Helvetica,sans-Serif" font-size="10.00">DataReader/Data.hpp</text>
</a>
</g>
</g>
<!-- Node12&#45;&gt;Node22 -->
<g id="edge52" class="edge"><title>Node12&#45;&gt;Node22</title>
<path fill="none" stroke="midnightblue" d="M646.369,-310.403C680.921,-299.933 739.424,-282.205 777.885,-270.55"/>
<polygon fill="midnightblue" stroke="midnightblue" points="779.129,-273.83 787.684,-267.581 777.099,-267.131 779.129,-273.83"/>
</g>
<!-- Node23 -->
<g id="node23" class="node"><title>Node23</title>
<g id="a_node23"><a xlink:href="../../df/d33/Generator_8hpp.html" target="_top" xlink:title="Core/Generator.hpp">
<polygon fill="white" stroke="red" points="722,-192.5 722,-211.5 824,-211.5 824,-192.5 722,-192.5"/>
<text text-anchor="middle" x="773" y="-199.5" font-family="Helvetica,sans-Serif" font-size="10.00">Core/Generator.hpp</text>
</a>
</g>
</g>
<!-- Node12&#45;&gt;Node23 -->
<g id="edge61" class="edge"><title>Node12&#45;&gt;Node23</title>
<path fill="none" stroke="midnightblue" d="M636.477,-310.377C655.325,-301.167 684.99,-285.51 708,-268 727.141,-253.434 746.274,-233.489 758.774,-219.548"/>
<polygon fill="midnightblue" stroke="midnightblue" points="761.662,-221.564 765.64,-211.745 756.407,-216.94 761.662,-221.564"/>
</g>
<!-- Node14&#45;&gt;Node2 -->
<g id="edge16" class="edge"><title>Node14&#45;&gt;Node2</title>
<path fill="none" stroke="midnightblue" d="M439.823,-248.18C419.971,-218.669 361.777,-122.199 409,-68 452.657,-17.894 664.046,-15.3697 745.71,-16.3223"/>
<polygon fill="midnightblue" stroke="midnightblue" points="745.85,-19.8246 755.899,-16.4677 745.95,-12.8253 745.85,-19.8246"/>
</g>
<!-- Node14&#45;&gt;Node6 -->
<g id="edge17" class="edge"><title>Node14&#45;&gt;Node6</title>
<path fill="none" stroke="midnightblue" d="M391.075,-250.593C344.267,-243.87 282.221,-231.521 267,-212 243.777,-182.216 311.919,-75.5513 340.258,-33.8652"/>
<polygon fill="midnightblue" stroke="midnightblue" points="343.17,-35.8076 345.948,-25.5835 337.401,-31.8436 343.17,-35.8076"/>
</g>
<!-- Node15 -->
<g id="node15" class="node"><title>Node15</title>
<g id="a_node15"><a xlink:href="../../d8/def/AbsParameter_8hpp.html" target="_top" xlink:title="This class defines the internal container of a parameter. ">
<polygon fill="white" stroke="red" points="418,-68.5 418,-87.5 540,-87.5 540,-68.5 418,-68.5"/>
<text text-anchor="middle" x="479" y="-75.5" font-family="Helvetica,sans-Serif" font-size="10.00">Core/AbsParameter.hpp</text>
</a>
</g>
</g>
<!-- Node14&#45;&gt;Node15 -->
<g id="edge18" class="edge"><title>Node14&#45;&gt;Node15</title>
<path fill="none" stroke="midnightblue" d="M447.592,-248.415C452.632,-221.227 468.328,-136.563 475.437,-98.2169"/>
<polygon fill="midnightblue" stroke="midnightblue" points="478.965,-98.389 477.347,-87.9185 472.082,-97.1129 478.965,-98.389"/>
</g>
<!-- Node16 -->
<g id="node16" class="node"><title>Node16</title>
<g id="a_node16"><a xlink:href="../../db/dce/Parameter_8hpp.html" target="_top" xlink:title="This class implements some internal container of parameters. ">
<polygon fill="white" stroke="red" points="1034,-130.5 1034,-149.5 1138,-149.5 1138,-130.5 1034,-130.5"/>
<text text-anchor="middle" x="1086" y="-137.5" font-family="Helvetica,sans-Serif" font-size="10.00">Core/Parameter.hpp</text>
</a>
</g>
</g>
<!-- Node14&#45;&gt;Node16 -->
<g id="edge25" class="edge"><title>Node14&#45;&gt;Node16</title>
<path fill="none" stroke="midnightblue" d="M476.611,-248.458C526.009,-234.919 626.519,-208.394 713,-192 821.556,-171.421 949.392,-155.782 1023.71,-147.532"/>
<polygon fill="midnightblue" stroke="midnightblue" points="1024.28,-150.991 1033.83,-146.417 1023.51,-144.033 1024.28,-150.991"/>
</g>
<!-- Node14&#45;&gt;Node18 -->
<g id="edge30" class="edge"><title>Node14&#45;&gt;Node18</title>
<path fill="none" stroke="midnightblue" d="M427.303,-248.444C408.056,-239.636 377.848,-225.812 355.8,-215.722"/>
<polygon fill="midnightblue" stroke="midnightblue" points="357.16,-212.495 346.61,-211.516 354.247,-218.86 357.16,-212.495"/>
</g>
<!-- Node14&#45;&gt;Node20 -->
<g id="edge36" class="edge"><title>Node14&#45;&gt;Node20</title>
<path fill="none" stroke="midnightblue" d="M459.817,-248.324C473.233,-239.9 493.824,-226.971 509.586,-217.074"/>
<polygon fill="midnightblue" stroke="midnightblue" points="511.609,-219.936 518.217,-211.655 507.887,-214.008 511.609,-219.936"/>
</g>
<!-- Node15&#45;&gt;Node2 -->
<g id="edge20" class="edge"><title>Node15&#45;&gt;Node2</title>
<path fill="none" stroke="midnightblue" d="M521.522,-68.4672C581.982,-56.3347 691.463,-34.3652 745.724,-23.4768"/>
<polygon fill="midnightblue" stroke="midnightblue" points="746.693,-26.8522 755.809,-21.4531 745.316,-19.989 746.693,-26.8522"/>
</g>
<!-- Node15&#45;&gt;Node3 -->
<g id="edge19" class="edge"><title>Node15&#45;&gt;Node3</title>
<path fill="none" stroke="midnightblue" d="M540.261,-70.9445C668.23,-58.2952 959.928,-29.4618 1055.24,-20.0402"/>
<polygon fill="midnightblue" stroke="midnightblue" points="1055.76,-23.5063 1065.37,-19.0395 1055.07,-16.5402 1055.76,-23.5063"/>
</g>
<!-- Node15&#45;&gt;Node5 -->
<g id="edge22" class="edge"><title>Node15&#45;&gt;Node5</title>
<path fill="none" stroke="midnightblue" d="M417.894,-73.3907C338.675,-67.9757 196.508,-55.7477 77,-32 71.4706,-30.9012 65.6766,-29.4935 60.0459,-27.9821"/>
<polygon fill="midnightblue" stroke="midnightblue" points="60.7542,-24.5452 50.1792,-25.1937 58.8505,-31.2814 60.7542,-24.5452"/>
</g>
<!-- Node15&#45;&gt;Node6 -->
<g id="edge21" class="edge"><title>Node15&#45;&gt;Node6</title>
<path fill="none" stroke="midnightblue" d="M460.804,-68.4035C439.491,-58.3341 403.969,-41.5522 379.337,-29.9151"/>
<polygon fill="midnightblue" stroke="midnightblue" points="380.699,-26.6877 370.162,-25.5806 377.709,-33.0169 380.699,-26.6877"/>
</g>
<!-- Node15&#45;&gt;Node7 -->
<g id="edge23" class="edge"><title>Node15&#45;&gt;Node7</title>
<path fill="none" stroke="midnightblue" d="M418.437,-68.4714C361.584,-60.1806 274.258,-46.7138 199,-32 196.65,-31.5406 194.256,-31.0576 191.841,-30.5578"/>
<polygon fill="midnightblue" stroke="midnightblue" points="192.353,-27.0886 181.843,-28.4259 190.893,-33.9346 192.353,-27.0886"/>
</g>
<!-- Node15&#45;&gt;Node8 -->
<g id="edge24" class="edge"><title>Node15&#45;&gt;Node8</title>
<path fill="none" stroke="midnightblue" d="M447.05,-68.4035C412.302,-59.0543 356.046,-43.9183 313.558,-32.4866"/>
<polygon fill="midnightblue" stroke="midnightblue" points="314.463,-29.1055 303.897,-29.887 312.644,-35.8651 314.463,-29.1055"/>
</g>
<!-- Node16&#45;&gt;Node3 -->
<g id="edge27" class="edge"><title>Node16&#45;&gt;Node3</title>
<path fill="none" stroke="midnightblue" d="M1086,-130.226C1086,-110.53 1086,-62.4371 1086,-35.7004"/>
<polygon fill="midnightblue" stroke="midnightblue" points="1089.5,-35.6944 1086,-25.6944 1082.5,-35.6945 1089.5,-35.6944"/>
</g>
<!-- Node16&#45;&gt;Node4 -->
<g id="edge26" class="edge"><title>Node16&#45;&gt;Node4</title>
<path fill="none" stroke="midnightblue" d="M1122.98,-130.467C1172.32,-119.08 1259.22,-99.0272 1308.72,-87.6039"/>
<polygon fill="midnightblue" stroke="midnightblue" points="1309.73,-90.9626 1318.68,-85.3036 1308.15,-84.1419 1309.73,-90.9626"/>
</g>
<!-- Node16&#45;&gt;Node15 -->
<g id="edge29" class="edge"><title>Node16&#45;&gt;Node15</title>
<path fill="none" stroke="midnightblue" d="M1033.99,-133.858C925.344,-123.12 674.191,-98.294 550.486,-86.0661"/>
<polygon fill="midnightblue" stroke="midnightblue" points="550.657,-82.5661 540.361,-85.0653 549.968,-89.5321 550.657,-82.5661"/>
</g>
<!-- Node17 -->
<g id="node17" class="node"><title>Node17</title>
<polygon fill="white" stroke="#bfbfbf" points="1124,-68.5 1124,-87.5 1176,-87.5 1176,-68.5 1124,-68.5"/>
<text text-anchor="middle" x="1150" y="-75.5" font-family="Helvetica,sans-Serif" font-size="10.00">sstream</text>
</g>
<!-- Node16&#45;&gt;Node17 -->
<g id="edge28" class="edge"><title>Node16&#45;&gt;Node17</title>
<path fill="none" stroke="midnightblue" d="M1095.17,-130.403C1105.15,-121.047 1121.31,-105.895 1133.51,-94.4599"/>
<polygon fill="midnightblue" stroke="midnightblue" points="1135.95,-96.9734 1140.85,-87.5806 1131.16,-91.8666 1135.95,-96.9734"/>
</g>
<!-- Node18&#45;&gt;Node2 -->
<g id="edge32" class="edge"><title>Node18&#45;&gt;Node2</title>
<path fill="none" stroke="midnightblue" d="M328.21,-192.44C329.303,-168.424 335.956,-100.073 376,-68 432.87,-22.4502 660.903,-17.2227 745.874,-16.8865"/>
<polygon fill="midnightblue" stroke="midnightblue" points="745.974,-20.3864 755.967,-16.8674 745.96,-13.3864 745.974,-20.3864"/>
</g>
<!-- Node18&#45;&gt;Node13 -->
<g id="edge31" class="edge"><title>Node18&#45;&gt;Node13</title>
<path fill="none" stroke="midnightblue" d="M313.099,-192.403C296.032,-182.557 267.839,-166.291 247.738,-154.695"/>
<polygon fill="midnightblue" stroke="midnightblue" points="249.284,-151.546 238.873,-149.581 245.786,-157.61 249.284,-151.546"/>
</g>
<!-- Node18&#45;&gt;Node19 -->
<g id="edge33" class="edge"><title>Node18&#45;&gt;Node19</title>
<path fill="none" stroke="midnightblue" d="M379.598,-194.059C462.089,-182.961 623.378,-161.263 712.003,-149.34"/>
<polygon fill="midnightblue" stroke="midnightblue" points="712.735,-152.774 722.179,-147.971 711.802,-145.836 712.735,-152.774"/>
</g>
<!-- Node19&#45;&gt;Node2 -->
<g id="edge35" class="edge"><title>Node19&#45;&gt;Node2</title>
<path fill="none" stroke="midnightblue" d="M774.288,-130.226C774.933,-110.53 776.51,-62.4371 777.387,-35.7004"/>
<polygon fill="midnightblue" stroke="midnightblue" points="780.885,-35.8038 777.715,-25.6944 773.889,-35.5743 780.885,-35.8038"/>
</g>
<!-- Node19&#45;&gt;Node4 -->
<g id="edge34" class="edge"><title>Node19&#45;&gt;Node4</title>
<path fill="none" stroke="midnightblue" d="M825.517,-133.596C939.184,-121.673 1209.24,-93.3459 1308.53,-82.9304"/>
<polygon fill="midnightblue" stroke="midnightblue" points="1309.11,-86.3891 1318.69,-81.8648 1308.38,-79.4273 1309.11,-86.3891"/>
</g>
<!-- Node20&#45;&gt;Node2 -->
<g id="edge37" class="edge"><title>Node20&#45;&gt;Node2</title>
<path fill="none" stroke="midnightblue" d="M539.1,-192.428C551.512,-177.675 578.291,-146.868 604,-124 635.35,-96.1145 644.395,-90.1957 680,-68 702.94,-53.7 730.324,-39.6877 750.306,-29.9805"/>
<polygon fill="midnightblue" stroke="midnightblue" points="751.971,-33.0638 759.469,-25.5786 748.94,-26.7541 751.971,-33.0638"/>
</g>
<!-- Node20&#45;&gt;Node3 -->
<g id="edge39" class="edge"><title>Node20&#45;&gt;Node3</title>
<path fill="none" stroke="midnightblue" d="M549.949,-192.49C582.135,-177.429 652.009,-145.629 713,-124 837.803,-79.7414 990.849,-40.3678 1055.19,-24.4691"/>
<polygon fill="midnightblue" stroke="midnightblue" points="1056.22,-27.8212 1065.1,-22.0353 1054.55,-21.0235 1056.22,-27.8212"/>
</g>
<!-- Node20&#45;&gt;Node6 -->
<g id="edge38" class="edge"><title>Node20&#45;&gt;Node6</title>
<path fill="none" stroke="midnightblue" d="M521.63,-192.408C499.827,-174.145 448.027,-129.716 409,-88 392.545,-70.4109 375.484,-48.6065 364.369,-33.8362"/>
<polygon fill="midnightblue" stroke="midnightblue" points="367.054,-31.581 358.275,-25.6492 361.438,-35.7608 367.054,-31.581"/>
</g>
<!-- Node20&#45;&gt;Node15 -->
<g id="edge40" class="edge"><title>Node20&#45;&gt;Node15</title>
<path fill="none" stroke="midnightblue" d="M528.188,-192.226C519.555,-172.354 498.365,-123.576 486.815,-96.9894"/>
<polygon fill="midnightblue" stroke="midnightblue" points="489.972,-95.4717 482.777,-87.6944 483.551,-98.2609 489.972,-95.4717"/>
</g>
<!-- Node20&#45;&gt;Node16 -->
<g id="edge41" class="edge"><title>Node20&#45;&gt;Node16</title>
<path fill="none" stroke="midnightblue" d="M590.241,-194.692C695.334,-183.31 915.772,-159.436 1023.73,-147.744"/>
<polygon fill="midnightblue" stroke="midnightblue" points="1024.26,-151.207 1033.82,-146.651 1023.5,-144.248 1024.26,-151.207"/>
</g>
<!-- Node21&#45;&gt;Node2 -->
<g id="edge47" class="edge"><title>Node21&#45;&gt;Node2</title>
<path fill="none" stroke="midnightblue" d="M1048.36,-192.402C1027.55,-169.428 967.334,-105.797 906,-68 875.482,-49.1935 836.832,-34.9289 810.028,-26.3331"/>
<polygon fill="midnightblue" stroke="midnightblue" points="810.966,-22.9592 800.377,-23.3185 808.879,-29.6408 810.966,-22.9592"/>
</g>
<!-- Node21&#45;&gt;Node3 -->
<g id="edge44" class="edge"><title>Node21&#45;&gt;Node3</title>
<path fill="none" stroke="midnightblue" d="M1100.83,-192.452C1123.28,-185.993 1149.19,-174.878 1166,-156 1186.87,-132.564 1180.74,-119.089 1185,-88 1186.21,-79.1935 1189.63,-75.5894 1185,-68 1170.18,-43.6985 1139.67,-30.4813 1116.41,-23.6364"/>
<polygon fill="midnightblue" stroke="midnightblue" points="1117.2,-20.2251 1106.64,-21.0011 1115.38,-26.9838 1117.2,-20.2251"/>
</g>
<!-- Node21&#45;&gt;Node4 -->
<g id="edge43" class="edge"><title>Node21&#45;&gt;Node4</title>
<path fill="none" stroke="midnightblue" d="M1104.11,-192.499C1137.25,-185.493 1181.69,-173.78 1218,-156 1239.39,-145.523 1240.86,-136.721 1261,-124 1279.65,-112.223 1301.68,-100.62 1318.64,-92.1463"/>
<polygon fill="midnightblue" stroke="midnightblue" points="1320.55,-95.1038 1327.97,-87.541 1317.46,-88.826 1320.55,-95.1038"/>
</g>
<!-- Node21&#45;&gt;Node6 -->
<g id="edge45" class="edge"><title>Node21&#45;&gt;Node6</title>
<path fill="none" stroke="midnightblue" d="M1033.18,-192.425C993.164,-177.534 907.577,-146.35 834,-124 739.93,-95.4254 715.901,-89.6465 620,-68 537.661,-49.4147 440.077,-31.9889 388.382,-23.1158"/>
<polygon fill="midnightblue" stroke="midnightblue" points="388.817,-19.6395 378.37,-21.4061 387.639,-26.5396 388.817,-19.6395"/>
</g>
<!-- Node21&#45;&gt;Node9 -->
<g id="edge48" class="edge"><title>Node21&#45;&gt;Node9</title>
<path fill="none" stroke="midnightblue" d="M1094.76,-192.473C1135.08,-183.556 1200.03,-169.067 1256,-156 1257.45,-155.662 1258.92,-155.318 1260.4,-154.969"/>
<polygon fill="midnightblue" stroke="midnightblue" points="1261.37,-158.336 1270.29,-152.624 1259.75,-151.525 1261.37,-158.336"/>
</g>
<!-- Node21&#45;&gt;Node15 -->
<g id="edge49" class="edge"><title>Node21&#45;&gt;Node15</title>
<path fill="none" stroke="midnightblue" d="M995.913,-196.55C926.958,-190.653 810.789,-178.297 713,-156 638.569,-139.029 554.169,-108.289 509.888,-91.232"/>
<polygon fill="midnightblue" stroke="midnightblue" points="511.14,-87.9636 500.551,-87.6086 508.608,-94.4895 511.14,-87.9636"/>
</g>
<!-- Node21&#45;&gt;Node16 -->
<g id="edge50" class="edge"><title>Node21&#45;&gt;Node16</title>
<path fill="none" stroke="midnightblue" d="M1060.3,-192.403C1064.66,-183.671 1071.56,-169.889 1077.1,-158.794"/>
<polygon fill="midnightblue" stroke="midnightblue" points="1080.37,-160.09 1081.71,-149.581 1074.11,-156.96 1080.37,-160.09"/>
</g>
<!-- Node21&#45;&gt;Node17 -->
<g id="edge46" class="edge"><title>Node21&#45;&gt;Node17</title>
<path fill="none" stroke="midnightblue" d="M1093.22,-192.388C1112.68,-185.825 1134.92,-174.633 1147,-156 1158.12,-138.854 1157.04,-114.755 1154.36,-98.1052"/>
<polygon fill="midnightblue" stroke="midnightblue" points="1157.72,-97.0906 1152.37,-87.9455 1150.85,-98.4305 1157.72,-97.0906"/>
</g>
<!-- Node22&#45;&gt;Node2 -->
<g id="edge53" class="edge"><title>Node22&#45;&gt;Node2</title>
<path fill="none" stroke="midnightblue" d="M830.952,-248.474C842.932,-240.702 858.873,-228.002 866,-212 869.616,-203.88 867.939,-200.675 866,-192 852.009,-129.411 810.875,-64.0662 790.181,-33.9927"/>
<polygon fill="midnightblue" stroke="midnightblue" points="792.847,-31.697 784.242,-25.5161 787.114,-35.7142 792.847,-31.697"/>
</g>
<!-- Node22&#45;&gt;Node3 -->
<g id="edge54" class="edge"><title>Node22&#45;&gt;Node3</title>
<path fill="none" stroke="midnightblue" d="M829.865,-248.491C843.553,-239.875 864.863,-225.876 882,-212 957.437,-150.918 1038.29,-67.5898 1071,-33.0309"/>
<polygon fill="midnightblue" stroke="midnightblue" points="1073.6,-35.3748 1077.91,-25.6961 1068.5,-30.5747 1073.6,-35.3748"/>
</g>
<!-- Node22&#45;&gt;Node6 -->
<g id="edge55" class="edge"><title>Node22&#45;&gt;Node6</title>
<path fill="none" stroke="midnightblue" d="M822.398,-248.104C831.201,-234.672 844.606,-208.984 832,-192 799.067,-147.63 764.041,-177.167 713,-156 636.591,-124.312 626.034,-98.1364 549,-68 494.521,-46.6873 428.098,-31.6084 387.975,-23.6157"/>
<polygon fill="midnightblue" stroke="midnightblue" points="388.606,-20.1728 378.12,-21.6901 387.263,-27.0429 388.606,-20.1728"/>
</g>
<!-- Node22&#45;&gt;Node18 -->
<g id="edge58" class="edge"><title>Node22&#45;&gt;Node18</title>
<path fill="none" stroke="midnightblue" d="M759.543,-250.753C667.314,-240.547 485.064,-220.38 389.603,-209.817"/>
<polygon fill="midnightblue" stroke="midnightblue" points="389.847,-206.322 379.522,-208.701 389.077,-213.28 389.847,-206.322"/>
</g>
<!-- Node22&#45;&gt;Node21 -->
<g id="edge56" class="edge"><title>Node22&#45;&gt;Node21</title>
<path fill="none" stroke="midnightblue" d="M854.029,-248.444C895.808,-239.043 962.982,-223.929 1008.27,-213.739"/>
<polygon fill="midnightblue" stroke="midnightblue" points="1009.16,-217.126 1018.15,-211.516 1007.62,-210.297 1009.16,-217.126"/>
</g>
<!-- Node22&#45;&gt;Node23 -->
<g id="edge57" class="edge"><title>Node22&#45;&gt;Node23</title>
<path fill="none" stroke="midnightblue" d="M808.899,-248.083C802.763,-240.377 793.73,-229.033 786.261,-219.653"/>
<polygon fill="midnightblue" stroke="midnightblue" points="788.936,-217.394 779.968,-211.751 783.46,-221.754 788.936,-217.394"/>
</g>
<!-- Node24&#45;&gt;Node2 -->
<g id="edge65" class="edge"><title>Node24&#45;&gt;Node2</title>
<path fill="none" stroke="midnightblue" d="M1442.34,-255.518C1474.81,-251.208 1512.17,-239.893 1533,-212 1581.19,-147.473 1497.21,-99.2784 1423,-68 1394.49,-55.985 937.283,-26.8743 810.42,-18.9949"/>
<polygon fill="midnightblue" stroke="midnightblue" points="810.385,-15.4861 800.188,-18.361 809.952,-22.4727 810.385,-15.4861"/>
</g>
<!-- Node24&#45;&gt;Node3 -->
<g id="edge66" class="edge"><title>Node24&#45;&gt;Node3</title>
<path fill="none" stroke="midnightblue" d="M1442.01,-250.269C1489.8,-243.591 1550.68,-231.492 1566,-212 1605.55,-161.681 1608.8,-115.586 1566,-68 1535.89,-34.5215 1218.03,-21.3101 1116.79,-17.9321"/>
<polygon fill="midnightblue" stroke="midnightblue" points="1116.72,-14.428 1106.61,-17.6015 1116.49,-21.4244 1116.72,-14.428"/>
</g>
<!-- Node24&#45;&gt;Node4 -->
<g id="edge64" class="edge"><title>Node24&#45;&gt;Node4</title>
<path fill="none" stroke="midnightblue" d="M1384.26,-248.169C1393.63,-222.137 1419.29,-146.145 1408,-124 1401,-110.27 1387.63,-99.7496 1375.1,-92.3465"/>
<polygon fill="midnightblue" stroke="midnightblue" points="1376.68,-89.2204 1366.22,-87.5055 1373.33,-95.366 1376.68,-89.2204"/>
</g>
<!-- Node24&#45;&gt;Node17 -->
<g id="edge67" class="edge"><title>Node24&#45;&gt;Node17</title>
<path fill="none" stroke="midnightblue" d="M1381.87,-248.207C1384.31,-221.585 1390.02,-142.546 1374,-124 1349.95,-96.1678 1243.19,-85.0445 1186.17,-81.0276"/>
<polygon fill="midnightblue" stroke="midnightblue" points="1186.35,-77.5316 1176.14,-80.3579 1185.88,-84.5161 1186.35,-77.5316"/>
</g>
<!-- Node24&#45;&gt;Node21 -->
<g id="edge68" class="edge"><title>Node24&#45;&gt;Node21</title>
<path fill="none" stroke="midnightblue" d="M1329.5,-248.444C1271.86,-238.865 1178.51,-223.356 1117.19,-213.167"/>
<polygon fill="midnightblue" stroke="midnightblue" points="1117.69,-209.703 1107.26,-211.516 1116.55,-216.608 1117.69,-209.703"/>
</g>
<!-- Node25&#45;&gt;Node2 -->
<g id="edge71" class="edge"><title>Node25&#45;&gt;Node2</title>
<path fill="none" stroke="midnightblue" d="M1472.4,-192.241C1476.01,-177.206 1481.18,-145.985 1469,-124 1446.71,-83.7764 1425.53,-82.8173 1382,-68 1327.72,-49.5242 928.084,-25.5424 810.473,-18.821"/>
<polygon fill="midnightblue" stroke="midnightblue" points="810.484,-15.316 800.301,-18.2426 810.086,-22.3048 810.484,-15.316"/>
</g>
<!-- Node25&#45;&gt;Node4 -->
<g id="edge70" class="edge"><title>Node25&#45;&gt;Node4</title>
<path fill="none" stroke="midnightblue" d="M1469.55,-192.256C1468.32,-176.682 1463.64,-143.913 1446,-124 1429.54,-105.425 1403.92,-94.0992 1382.73,-87.4559"/>
<polygon fill="midnightblue" stroke="midnightblue" points="1383.63,-84.0727 1373.05,-84.6418 1381.67,-90.7944 1383.63,-84.0727"/>
</g>
<!-- Node25&#45;&gt;Node16 -->
<g id="edge72" class="edge"><title>Node25&#45;&gt;Node16</title>
<path fill="none" stroke="midnightblue" d="M1415.8,-192.531C1345.31,-181.517 1222.44,-162.319 1148.22,-150.722"/>
<polygon fill="midnightblue" stroke="midnightblue" points="1148.5,-147.224 1138.08,-149.138 1147.42,-154.14 1148.5,-147.224"/>
</g>
</g>
</svg>
