<?xml version="1.0" encoding="UTF-8" standalone="no"?>
<!DOCTYPE svg PUBLIC "-//W3C//DTD SVG 1.1//EN"
 "http://www.w3.org/Graphics/SVG/1.1/DTD/svg11.dtd">
<!-- Generated by graphviz version 2.36.0 (20140111.2315)
 -->
<!-- Title: /home/travis/build/ComPWA/ComPWA/Core/TreeNode.cpp Pages: 1 -->
<svg width="622pt" height="386pt"
 viewBox="0.00 0.00 622.00 386.00" xmlns="http://www.w3.org/2000/svg" xmlns:xlink="http://www.w3.org/1999/xlink">
<g id="graph0" class="graph" transform="scale(1 1) rotate(0) translate(4 382)">
<title>/home/travis/build/ComPWA/ComPWA/Core/TreeNode.cpp</title>
<polygon fill="white" stroke="none" points="-4,4 -4,-382 618,-382 618,4 -4,4"/>
<!-- Node1 -->
<g id="node1" class="node"><title>Node1</title>
<polygon fill="#bfbfbf" stroke="black" points="353.5,-336.5 353.5,-377.5 488.5,-377.5 488.5,-336.5 353.5,-336.5"/>
<text text-anchor="start" x="361.5" y="-365.5" font-family="Helvetica,sans-Serif" font-size="10.00">/home/travis/build</text>
<text text-anchor="start" x="361.5" y="-354.5" font-family="Helvetica,sans-Serif" font-size="10.00">/ComPWA/ComPWA/Core</text>
<text text-anchor="middle" x="421" y="-343.5" font-family="Helvetica,sans-Serif" font-size="10.00">/TreeNode.cpp</text>
</g>
<!-- Node2 -->
<g id="node2" class="node"><title>Node2</title>
<polygon fill="white" stroke="#bfbfbf" points="361.5,-0.5 361.5,-19.5 402.5,-19.5 402.5,-0.5 361.5,-0.5"/>
<text text-anchor="middle" x="382" y="-7.5" font-family="Helvetica,sans-Serif" font-size="10.00">string</text>
</g>
<!-- Node1&#45;&gt;Node2 -->
<g id="edge1" class="edge"><title>Node1&#45;&gt;Node2</title>
<path fill="none" stroke="midnightblue" d="M488.502,-342.686C544.158,-327.319 614,-295.903 614,-235 614,-235 614,-235 614,-121 614,-32.9314 475.818,-15.281 412.74,-11.8117"/>
<polygon fill="midnightblue" stroke="midnightblue" points="412.74,-8.30799 402.588,-11.3411 412.416,-15.3005 412.74,-8.30799"/>
</g>
<!-- Node3 -->
<g id="node3" class="node"><title>Node3</title>
<polygon fill="white" stroke="#bfbfbf" points="418.5,-56.5 418.5,-75.5 471.5,-75.5 471.5,-56.5 418.5,-56.5"/>
<text text-anchor="middle" x="445" y="-63.5" font-family="Helvetica,sans-Serif" font-size="10.00">complex</text>
</g>
<!-- Node1&#45;&gt;Node3 -->
<g id="edge2" class="edge"><title>Node1&#45;&gt;Node3</title>
<path fill="none" stroke="midnightblue" d="M480.927,-336.354C524.544,-317.852 576,-285.354 576,-235 576,-235 576,-235 576,-177 576,-127.036 519.42,-95.2346 480.629,-79.3027"/>
<polygon fill="midnightblue" stroke="midnightblue" points="481.782,-75.9955 471.195,-75.5928 479.22,-82.5098 481.782,-75.9955"/>
</g>
<!-- Node4 -->
<g id="node4" class="node"><title>Node4</title>
<polygon fill="white" stroke="#bfbfbf" points="66,-0.5 66,-19.5 118,-19.5 118,-0.5 66,-0.5"/>
<text text-anchor="middle" x="92" y="-7.5" font-family="Helvetica,sans-Serif" font-size="10.00">memory</text>
</g>
<!-- Node1&#45;&gt;Node4 -->
<g id="edge3" class="edge"><title>Node1&#45;&gt;Node4</title>
<path fill="none" stroke="midnightblue" d="M353.359,-350.606C234.352,-339.236 0,-307.627 0,-235 0,-235 0,-235 0,-121 0,-78.5016 40.9064,-43.77 68.1656,-25.3436"/>
<polygon fill="midnightblue" stroke="midnightblue" points="70.327,-28.1133 76.8081,-19.732 66.5149,-22.2424 70.327,-28.1133"/>
</g>
<!-- Node5 -->
<g id="node5" class="node"><title>Node5</title>
<g id="a_node5"><a xlink:href="../../df/d5a/TreeNode_8hpp.html" target="_top" xlink:title="This class acts as a container for a parameter in a function tree. ">
<polygon fill="white" stroke="black" points="291,-280.5 291,-299.5 393,-299.5 393,-280.5 291,-280.5"/>
<text text-anchor="middle" x="342" y="-287.5" font-family="Helvetica,sans-Serif" font-size="10.00">Core/TreeNode.hpp</text>
</a>
</g>
</g>
<!-- Node1&#45;&gt;Node5 -->
<g id="edge4" class="edge"><title>Node1&#45;&gt;Node5</title>
<path fill="none" stroke="midnightblue" d="M397.297,-336.498C385.418,-326.724 371.257,-315.072 360.239,-306.007"/>
<polygon fill="midnightblue" stroke="midnightblue" points="362.462,-303.303 352.516,-299.652 358.014,-308.709 362.462,-303.303"/>
</g>
<!-- Node6 -->
<g id="node6" class="node"><title>Node6</title>
<g id="a_node6"><a xlink:href="../../dc/d66/Functions_8hpp.html" target="_top" xlink:title="This file contains Functions implementing the Strategy interface so they can be used inside a node of...">
<polygon fill="white" stroke="red" points="370,-224.5 370,-243.5 472,-243.5 472,-224.5 370,-224.5"/>
<text text-anchor="middle" x="421" y="-231.5" font-family="Helvetica,sans-Serif" font-size="10.00">Core/Functions.hpp</text>
</a>
</g>
</g>
<!-- Node1&#45;&gt;Node6 -->
<g id="edge27" class="edge"><title>Node1&#45;&gt;Node6</title>
<path fill="none" stroke="midnightblue" d="M421,-336.29C421,-313.48 421,-276.189 421,-253.781"/>
<polygon fill="midnightblue" stroke="midnightblue" points="424.5,-253.575 421,-243.575 417.5,-253.575 424.5,-253.575"/>
</g>
<!-- Node5&#45;&gt;Node2 -->
<g id="edge5" class="edge"><title>Node5&#45;&gt;Node2</title>
<path fill="none" stroke="midnightblue" d="M393.026,-283.94C422.073,-278.51 457.118,-267.268 480,-244 501.193,-222.449 500,-209.225 500,-179 500,-179 500,-179 500,-121 500,-90.7745 499.917,-78.7353 480,-56 462.427,-35.9408 434.07,-24.2722 412.369,-17.8672"/>
<polygon fill="midnightblue" stroke="midnightblue" points="413.198,-14.4654 402.629,-15.2077 411.354,-21.2182 413.198,-14.4654"/>
</g>
<!-- Node5&#45;&gt;Node3 -->
<g id="edge6" class="edge"><title>Node5&#45;&gt;Node3</title>
<path fill="none" stroke="midnightblue" d="M393.063,-282.555C438.246,-275.679 499.24,-263.118 514,-244 553.576,-192.737 491.845,-115.98 460.934,-82.9972"/>
<polygon fill="midnightblue" stroke="midnightblue" points="463.274,-80.3803 453.82,-75.5972 458.227,-85.2317 463.274,-80.3803"/>
</g>
<!-- Node5&#45;&gt;Node4 -->
<g id="edge7" class="edge"><title>Node5&#45;&gt;Node4</title>
<path fill="none" stroke="midnightblue" d="M290.713,-289.611C213.416,-287.549 76,-270.951 76,-179 76,-179 76,-179 76,-121 76,-88.6258 82.8708,-51.4449 87.6074,-29.6593"/>
<polygon fill="midnightblue" stroke="midnightblue" points="91.0502,-30.3028 89.8422,-19.7771 84.2226,-28.7588 91.0502,-30.3028"/>
</g>
<!-- Node5&#45;&gt;Node6 -->
<g id="edge8" class="edge"><title>Node5&#45;&gt;Node6</title>
<path fill="none" stroke="midnightblue" d="M354.693,-280.324C366.901,-271.979 385.578,-259.212 400.003,-249.352"/>
<polygon fill="midnightblue" stroke="midnightblue" points="402.058,-252.187 408.339,-243.655 398.108,-246.408 402.058,-252.187"/>
</g>
<!-- Node7 -->
<g id="node7" class="node"><title>Node7</title>
<g id="a_node7"><a xlink:href="../../df/d9f/ParameterList_8hpp.html" target="_top" xlink:title="This class provides a list of fit parameters which can have different types. ">
<polygon fill="white" stroke="red" points="180,-168.5 180,-187.5 300,-187.5 300,-168.5 180,-168.5"/>
<text text-anchor="middle" x="240" y="-175.5" font-family="Helvetica,sans-Serif" font-size="10.00">Core/ParameterList.hpp</text>
</a>
</g>
</g>
<!-- Node5&#45;&gt;Node7 -->
<g id="edge23" class="edge"><title>Node5&#45;&gt;Node7</title>
<path fill="none" stroke="midnightblue" d="M333.996,-280.368C316.94,-261.974 276.786,-218.671 254.884,-195.052"/>
<polygon fill="midnightblue" stroke="midnightblue" points="257.332,-192.544 247.967,-187.591 252.2,-197.304 257.332,-192.544"/>
</g>
<!-- Node8 -->
<g id="node8" class="node"><title>Node8</title>
<g id="a_node8"><a xlink:href="../../d8/def/AbsParameter_8hpp.html" target="_top" xlink:title="This class defines the internal container of a parameter. ">
<polygon fill="white" stroke="red" points="180,-56.5 180,-75.5 302,-75.5 302,-56.5 180,-56.5"/>
<text text-anchor="middle" x="241" y="-63.5" font-family="Helvetica,sans-Serif" font-size="10.00">Core/AbsParameter.hpp</text>
</a>
</g>
</g>
<!-- Node5&#45;&gt;Node8 -->
<g id="edge24" class="edge"><title>Node5&#45;&gt;Node8</title>
<path fill="none" stroke="midnightblue" d="M309.408,-280.48C268.657,-267.878 200.654,-239.954 171,-188 149.195,-149.797 193.356,-105.036 221.004,-82.1531"/>
<polygon fill="midnightblue" stroke="midnightblue" points="223.341,-84.7657 228.963,-75.7855 218.968,-79.2998 223.341,-84.7657"/>
</g>
<!-- Node9 -->
<g id="node9" class="node"><title>Node9</title>
<g id="a_node9"><a xlink:href="../../d9/d91/ParObserver_8hpp.html" target="_top" xlink:title="For the use in the function tree, the observer pattern is used. ">
<polygon fill="white" stroke="black" points="152,-0.5 152,-19.5 266,-19.5 266,-0.5 152,-0.5"/>
<text text-anchor="middle" x="209" y="-7.5" font-family="Helvetica,sans-Serif" font-size="10.00">Core/ParObserver.hpp</text>
</a>
</g>
</g>
<!-- Node5&#45;&gt;Node9 -->
<g id="edge26" class="edge"><title>Node5&#45;&gt;Node9</title>
<path fill="none" stroke="midnightblue" d="M290.823,-288.392C218.197,-286.32 90.8195,-277.821 62,-244 -2.06002,-168.823 132.881,-63.3181 187.455,-25.3311"/>
<polygon fill="midnightblue" stroke="midnightblue" points="189.503,-28.1708 195.775,-19.6315 185.547,-22.3961 189.503,-28.1708"/>
</g>
<!-- Node10 -->
<g id="node10" class="node"><title>Node10</title>
<g id="a_node10"><a xlink:href="../../db/dce/Parameter_8hpp.html" target="_top" xlink:title="This class implements some internal container of parameters. ">
<polygon fill="white" stroke="red" points="330,-112.5 330,-131.5 434,-131.5 434,-112.5 330,-112.5"/>
<text text-anchor="middle" x="382" y="-119.5" font-family="Helvetica,sans-Serif" font-size="10.00">Core/Parameter.hpp</text>
</a>
</g>
</g>
<!-- Node5&#45;&gt;Node10 -->
<g id="edge25" class="edge"><title>Node5&#45;&gt;Node10</title>
<path fill="none" stroke="midnightblue" d="M344.151,-280.075C350.447,-253.945 368.937,-177.211 377.524,-141.577"/>
<polygon fill="midnightblue" stroke="midnightblue" points="380.995,-142.11 379.935,-131.568 374.19,-140.47 380.995,-142.11"/>
</g>
<!-- Node6&#45;&gt;Node3 -->
<g id="edge9" class="edge"><title>Node6&#45;&gt;Node3</title>
<path fill="none" stroke="midnightblue" d="M423.423,-224.445C428.196,-207.154 438.72,-166.732 443,-132 444.901,-116.573 445.336,-98.9406 445.332,-85.9359"/>
<polygon fill="midnightblue" stroke="midnightblue" points="448.831,-85.8387 445.241,-75.8707 441.831,-85.902 448.831,-85.8387"/>
</g>
<!-- Node6&#45;&gt;Node7 -->
<g id="edge10" class="edge"><title>Node6&#45;&gt;Node7</title>
<path fill="none" stroke="midnightblue" d="M392.32,-224.444C361.473,-215.241 312.272,-200.562 278.171,-190.388"/>
<polygon fill="midnightblue" stroke="midnightblue" points="279.129,-187.021 268.546,-187.516 277.128,-193.729 279.129,-187.021"/>
</g>
<!-- Node6&#45;&gt;Node8 -->
<g id="edge22" class="edge"><title>Node6&#45;&gt;Node8</title>
<path fill="none" stroke="midnightblue" d="M411.322,-224.075C382.13,-197.153 294.689,-116.514 257.757,-82.4534"/>
<polygon fill="midnightblue" stroke="midnightblue" points="260.015,-79.7746 250.291,-75.5681 255.269,-84.9205 260.015,-79.7746"/>
</g>
<!-- Node6&#45;&gt;Node10 -->
<g id="edge21" class="edge"><title>Node6&#45;&gt;Node10</title>
<path fill="none" stroke="midnightblue" d="M417.94,-224.368C411.618,-206.537 396.996,-165.295 388.478,-141.272"/>
<polygon fill="midnightblue" stroke="midnightblue" points="391.687,-139.847 385.046,-131.591 385.089,-142.186 391.687,-139.847"/>
</g>
<!-- Node7&#45;&gt;Node2 -->
<g id="edge11" class="edge"><title>Node7&#45;&gt;Node2</title>
<path fill="none" stroke="midnightblue" d="M247.635,-168.075C270.47,-141.38 338.489,-61.865 368.038,-27.3218"/>
<polygon fill="midnightblue" stroke="midnightblue" points="370.83,-29.4423 374.671,-19.5681 365.511,-24.892 370.83,-29.4423"/>
</g>
<!-- Node7&#45;&gt;Node4 -->
<g id="edge12" class="edge"><title>Node7&#45;&gt;Node4</title>
<path fill="none" stroke="midnightblue" d="M232.043,-168.075C208.242,-141.38 137.35,-61.865 106.552,-27.3218"/>
<polygon fill="midnightblue" stroke="midnightblue" points="108.906,-24.7031 99.639,-19.5681 103.681,-29.3615 108.906,-24.7031"/>
</g>
<!-- Node7&#45;&gt;Node8 -->
<g id="edge13" class="edge"><title>Node7&#45;&gt;Node8</title>
<path fill="none" stroke="midnightblue" d="M240.078,-168.368C240.24,-150.617 240.612,-109.666 240.831,-85.5974"/>
<polygon fill="midnightblue" stroke="midnightblue" points="244.331,-85.6229 240.922,-75.5914 237.331,-85.5592 244.331,-85.6229"/>
</g>
<!-- Node7&#45;&gt;Node10 -->
<g id="edge17" class="edge"><title>Node7&#45;&gt;Node10</title>
<path fill="none" stroke="midnightblue" d="M262.5,-168.444C286.077,-159.478 323.322,-145.314 349.964,-135.183"/>
<polygon fill="midnightblue" stroke="midnightblue" points="351.502,-138.342 359.605,-131.516 349.014,-131.8 351.502,-138.342"/>
</g>
<!-- Node8&#45;&gt;Node2 -->
<g id="edge14" class="edge"><title>Node8&#45;&gt;Node2</title>
<path fill="none" stroke="midnightblue" d="M263.342,-56.4435C287.166,-47.3194 325.045,-32.8125 351.58,-22.6501"/>
<polygon fill="midnightblue" stroke="midnightblue" points="353.055,-25.8333 361.142,-18.9883 350.551,-19.2963 353.055,-25.8333"/>
</g>
<!-- Node8&#45;&gt;Node4 -->
<g id="edge15" class="edge"><title>Node8&#45;&gt;Node4</title>
<path fill="none" stroke="midnightblue" d="M217.391,-56.4435C192.542,-47.4381 153.226,-33.1891 125.246,-23.049"/>
<polygon fill="midnightblue" stroke="midnightblue" points="126.093,-19.6332 115.499,-19.5164 123.708,-26.2144 126.093,-19.6332"/>
</g>
<!-- Node8&#45;&gt;Node9 -->
<g id="edge16" class="edge"><title>Node8&#45;&gt;Node9</title>
<path fill="none" stroke="midnightblue" d="M235.716,-56.083C231.289,-48.6127 224.837,-37.7244 219.382,-28.5199"/>
<polygon fill="midnightblue" stroke="midnightblue" points="222.295,-26.5697 214.186,-19.7511 216.273,-30.1383 222.295,-26.5697"/>
</g>
<!-- Node10&#45;&gt;Node2 -->
<g id="edge18" class="edge"><title>Node10&#45;&gt;Node2</title>
<path fill="none" stroke="midnightblue" d="M382,-112.368C382,-94.617 382,-53.6664 382,-29.5974"/>
<polygon fill="midnightblue" stroke="midnightblue" points="385.5,-29.5914 382,-19.5914 378.5,-29.5915 385.5,-29.5914"/>
</g>
<!-- Node10&#45;&gt;Node3 -->
<g id="edge19" class="edge"><title>Node10&#45;&gt;Node3</title>
<path fill="none" stroke="midnightblue" d="M392.122,-112.324C401.526,-104.263 415.744,-92.0765 427.069,-82.3695"/>
<polygon fill="midnightblue" stroke="midnightblue" points="429.379,-84.9993 434.694,-75.8339 424.823,-79.6844 429.379,-84.9993"/>
</g>
<!-- Node10&#45;&gt;Node8 -->
<g id="edge20" class="edge"><title>Node10&#45;&gt;Node8</title>
<path fill="none" stroke="midnightblue" d="M359.658,-112.444C336.247,-103.478 299.264,-89.314 272.81,-79.1827"/>
<polygon fill="midnightblue" stroke="midnightblue" points="273.828,-75.8245 263.237,-75.5164 271.324,-82.3615 273.828,-75.8245"/>
</g>
</g>
</svg>
