<?xml version="1.0" encoding="UTF-8" standalone="no"?>
<!DOCTYPE svg PUBLIC "-//W3C//DTD SVG 1.1//EN"
 "http://www.w3.org/Graphics/SVG/1.1/DTD/svg11.dtd">
<!-- Generated by graphviz version 2.36.0 (20140111.2315)
 -->
<!-- Title: /home/travis/build/ComPWA/ComPWA/Physics/DecayTree/DecayTree.hpp Pages: 1 -->
<svg width="657pt" height="230pt"
 viewBox="0.00 0.00 657.00 230.00" xmlns="http://www.w3.org/2000/svg" xmlns:xlink="http://www.w3.org/1999/xlink">
<g id="graph0" class="graph" transform="scale(1 1) rotate(0) translate(4 226)">
<title>/home/travis/build/ComPWA/ComPWA/Physics/DecayTree/DecayTree.hpp</title>
<polygon fill="white" stroke="none" points="-4,4 -4,-226 653,-226 653,4 -4,4"/>
<!-- Node1 -->
<g id="node1" class="node"><title>Node1</title>
<polygon fill="#bfbfbf" stroke="black" points="179.5,-180.5 179.5,-221.5 328.5,-221.5 328.5,-180.5 179.5,-180.5"/>
<text text-anchor="start" x="187.5" y="-209.5" font-family="Helvetica,sans-Serif" font-size="10.00">/home/travis/build</text>
<text text-anchor="start" x="187.5" y="-198.5" font-family="Helvetica,sans-Serif" font-size="10.00">/ComPWA/ComPWA/Physics</text>
<text text-anchor="middle" x="254" y="-187.5" font-family="Helvetica,sans-Serif" font-size="10.00">/DecayTree/DecayTree.hpp</text>
</g>
<!-- Node2 -->
<g id="node2" class="node"><title>Node2</title>
<polygon fill="white" stroke="#bfbfbf" points="-0.5,-113 -0.5,-143 114.5,-143 114.5,-113 -0.5,-113"/>
<text text-anchor="start" x="7.5" y="-131" font-family="Helvetica,sans-Serif" font-size="10.00">boost/graph/adjacency</text>
<text text-anchor="middle" x="57" y="-120" font-family="Helvetica,sans-Serif" font-size="10.00">_list.hpp</text>
</g>
<!-- Node1&#45;&gt;Node2 -->
<g id="edge1" class="edge"><title>Node1&#45;&gt;Node2</title>
<path fill="none" stroke="midnightblue" d="M199.647,-180.411C170.205,-169.8 134.128,-156.797 105.622,-146.523"/>
<polygon fill="midnightblue" stroke="midnightblue" points="106.472,-143.11 95.8777,-143.012 104.099,-149.695 106.472,-143.11"/>
</g>
<!-- Node3 -->
<g id="node3" class="node"><title>Node3</title>
<polygon fill="white" stroke="#bfbfbf" points="133,-113 133,-143 249,-143 249,-113 133,-113"/>
<text text-anchor="start" x="141" y="-131" font-family="Helvetica,sans-Serif" font-size="10.00">boost/graph/depth_first</text>
<text text-anchor="middle" x="191" y="-120" font-family="Helvetica,sans-Serif" font-size="10.00">_search.hpp</text>
</g>
<!-- Node1&#45;&gt;Node3 -->
<g id="edge2" class="edge"><title>Node1&#45;&gt;Node3</title>
<path fill="none" stroke="midnightblue" d="M236.451,-180.223C228.259,-170.99 218.49,-159.98 210.111,-150.538"/>
<polygon fill="midnightblue" stroke="midnightblue" points="212.721,-148.205 203.466,-143.049 207.485,-152.851 212.721,-148.205"/>
</g>
<!-- Node4 -->
<g id="node4" class="node"><title>Node4</title>
<polygon fill="white" stroke="#bfbfbf" points="267.5,-113 267.5,-143 368.5,-143 368.5,-113 267.5,-113"/>
<text text-anchor="start" x="275.5" y="-131" font-family="Helvetica,sans-Serif" font-size="10.00">boost/property_tree</text>
<text text-anchor="middle" x="318" y="-120" font-family="Helvetica,sans-Serif" font-size="10.00">/ptree_fwd.hpp</text>
</g>
<!-- Node1&#45;&gt;Node4 -->
<g id="edge3" class="edge"><title>Node1&#45;&gt;Node4</title>
<path fill="none" stroke="midnightblue" d="M271.828,-180.223C280.15,-170.99 290.074,-159.98 298.585,-150.538"/>
<polygon fill="midnightblue" stroke="midnightblue" points="301.241,-152.82 305.337,-143.049 296.041,-148.133 301.241,-152.82"/>
</g>
<!-- Node5 -->
<g id="node5" class="node"><title>Node5</title>
<g id="a_node5"><a xlink:href="../../d4/d03/Utility_8hpp.html" target="_top" xlink:title="Basic structures for amplitude calculations. ">
<polygon fill="white" stroke="black" points="386.5,-118.5 386.5,-137.5 471.5,-137.5 471.5,-118.5 386.5,-118.5"/>
<text text-anchor="middle" x="429" y="-125.5" font-family="Helvetica,sans-Serif" font-size="10.00">Core/Utility.hpp</text>
</a>
</g>
</g>
<!-- Node1&#45;&gt;Node5 -->
<g id="edge4" class="edge"><title>Node1&#45;&gt;Node5</title>
<path fill="none" stroke="midnightblue" d="M302.283,-180.411C332.963,-167.963 371.755,-152.225 398.285,-141.461"/>
<polygon fill="midnightblue" stroke="midnightblue" points="399.86,-144.6 407.811,-137.597 397.228,-138.113 399.86,-144.6"/>
</g>
<!-- Node6 -->
<g id="node6" class="node"><title>Node6</title>
<polygon fill="white" stroke="#bfbfbf" points="405.5,-0.5 405.5,-19.5 446.5,-19.5 446.5,-0.5 405.5,-0.5"/>
<text text-anchor="middle" x="426" y="-7.5" font-family="Helvetica,sans-Serif" font-size="10.00">string</text>
</g>
<!-- Node5&#45;&gt;Node6 -->
<g id="edge5" class="edge"><title>Node5&#45;&gt;Node6</title>
<path fill="none" stroke="midnightblue" d="M401.024,-118.479C381.226,-110.819 356.125,-97.4151 344,-76 329.428,-50.2634 366.555,-30.9729 395.517,-20.3385"/>
<polygon fill="midnightblue" stroke="midnightblue" points="397.019,-23.5222 405.323,-16.9416 394.728,-16.9079 397.019,-23.5222"/>
</g>
<!-- Node7 -->
<g id="node7" class="node"><title>Node7</title>
<polygon fill="white" stroke="#bfbfbf" points="353.5,-56.5 353.5,-75.5 388.5,-75.5 388.5,-56.5 353.5,-56.5"/>
<text text-anchor="middle" x="371" y="-63.5" font-family="Helvetica,sans-Serif" font-size="10.00">map</text>
</g>
<!-- Node5&#45;&gt;Node7 -->
<g id="edge6" class="edge"><title>Node5&#45;&gt;Node7</title>
<path fill="none" stroke="midnightblue" d="M420.69,-118.403C411.732,-109.136 397.277,-94.1828 386.261,-82.7876"/>
<polygon fill="midnightblue" stroke="midnightblue" points="388.761,-80.3379 379.295,-75.5806 383.728,-85.2031 388.761,-80.3379"/>
</g>
<!-- Node8 -->
<g id="node8" class="node"><title>Node8</title>
<polygon fill="white" stroke="#bfbfbf" points="407,-56.5 407,-75.5 451,-75.5 451,-56.5 407,-56.5"/>
<text text-anchor="middle" x="429" y="-63.5" font-family="Helvetica,sans-Serif" font-size="10.00">vector</text>
</g>
<!-- Node5&#45;&gt;Node8 -->
<g id="edge7" class="edge"><title>Node5&#45;&gt;Node8</title>
<path fill="none" stroke="midnightblue" d="M429,-118.403C429,-109.938 429,-96.7283 429,-85.8199"/>
<polygon fill="midnightblue" stroke="midnightblue" points="432.5,-85.5806 429,-75.5806 425.5,-85.5806 432.5,-85.5806"/>
</g>
<!-- Node9 -->
<g id="node9" class="node"><title>Node9</title>
<polygon fill="white" stroke="#bfbfbf" points="469,-56.5 469,-75.5 523,-75.5 523,-56.5 469,-56.5"/>
<text text-anchor="middle" x="496" y="-63.5" font-family="Helvetica,sans-Serif" font-size="10.00">iostream</text>
</g>
<!-- Node5&#45;&gt;Node9 -->
<g id="edge8" class="edge"><title>Node5&#45;&gt;Node9</title>
<path fill="none" stroke="midnightblue" d="M438.599,-118.403C449.048,-109.047 465.968,-93.8948 478.736,-82.4599"/>
<polygon fill="midnightblue" stroke="midnightblue" points="481.304,-84.8592 486.418,-75.5806 476.634,-79.6445 481.304,-84.8592"/>
</g>
<!-- Node10 -->
<g id="node10" class="node"><title>Node10</title>
<g id="a_node10"><a xlink:href="../../d2/de9/Exceptions_8hpp.html" target="_top" xlink:title="This class defines the ComPWA exception base&#45;class and provides a set of standard exceptions...">
<polygon fill="white" stroke="black" points="541,-56.5 541,-75.5 649,-75.5 649,-56.5 541,-56.5"/>
<text text-anchor="middle" x="595" y="-63.5" font-family="Helvetica,sans-Serif" font-size="10.00">Core/Exceptions.hpp</text>
</a>
</g>
</g>
<!-- Node5&#45;&gt;Node10 -->
<g id="edge9" class="edge"><title>Node5&#45;&gt;Node10</title>
<path fill="none" stroke="midnightblue" d="M452.784,-118.403C481.382,-108.067 529.551,-90.6564 561.802,-78.9994"/>
<polygon fill="midnightblue" stroke="midnightblue" points="563.046,-82.2715 571.26,-75.5806 560.666,-75.6883 563.046,-82.2715"/>
</g>
<!-- Node10&#45;&gt;Node6 -->
<g id="edge11" class="edge"><title>Node10&#45;&gt;Node6</title>
<path fill="none" stroke="midnightblue" d="M568.221,-56.4435C537.735,-46.7024 488.048,-30.826 456.205,-20.6512"/>
<polygon fill="midnightblue" stroke="midnightblue" points="457.131,-17.2728 446.54,-17.5631 455,-23.9407 457.131,-17.2728"/>
</g>
<!-- Node11 -->
<g id="node11" class="node"><title>Node11</title>
<polygon fill="white" stroke="#bfbfbf" points="565.5,-0.5 565.5,-19.5 624.5,-19.5 624.5,-0.5 565.5,-0.5"/>
<text text-anchor="middle" x="595" y="-7.5" font-family="Helvetica,sans-Serif" font-size="10.00">exception</text>
</g>
<!-- Node10&#45;&gt;Node11 -->
<g id="edge10" class="edge"><title>Node10&#45;&gt;Node11</title>
<path fill="none" stroke="midnightblue" d="M595,-56.083C595,-49.0059 595,-38.8611 595,-29.9865"/>
<polygon fill="midnightblue" stroke="midnightblue" points="598.5,-29.751 595,-19.7511 591.5,-29.7511 598.5,-29.751"/>
</g>
</g>
</svg>
