<?xml version="1.0" encoding="UTF-8" standalone="no"?>
<!DOCTYPE svg PUBLIC "-//W3C//DTD SVG 1.1//EN"
 "http://www.w3.org/Graphics/SVG/1.1/DTD/svg11.dtd">
<!-- Generated by graphviz version 2.36.0 (20140111.2315)
 -->
<!-- Title: /home/travis/build/ComPWA/ComPWA/Tools/RunManager.hpp Pages: 1 -->
<svg width="1740pt" height="466pt"
 viewBox="0.00 0.00 1740.00 466.00" xmlns="http://www.w3.org/2000/svg" xmlns:xlink="http://www.w3.org/1999/xlink">
<g id="graph0" class="graph" transform="scale(1 1) rotate(0) translate(4 462)">
<title>/home/travis/build/ComPWA/ComPWA/Tools/RunManager.hpp</title>
<polygon fill="white" stroke="none" points="-4,4 -4,-462 1736,-462 1736,4 -4,4"/>
<!-- Node1 -->
<g id="node1" class="node"><title>Node1</title>
<polygon fill="#bfbfbf" stroke="black" points="820,-416.5 820,-457.5 958,-457.5 958,-416.5 820,-416.5"/>
<text text-anchor="start" x="828" y="-445.5" font-family="Helvetica,sans-Serif" font-size="10.00">/home/travis/build</text>
<text text-anchor="start" x="828" y="-434.5" font-family="Helvetica,sans-Serif" font-size="10.00">/ComPWA/ComPWA/Tools</text>
<text text-anchor="middle" x="889" y="-423.5" font-family="Helvetica,sans-Serif" font-size="10.00">/RunManager.hpp</text>
</g>
<!-- Node2 -->
<g id="node2" class="node"><title>Node2</title>
<polygon fill="white" stroke="#bfbfbf" points="680,-0.5 680,-19.5 724,-19.5 724,-0.5 680,-0.5"/>
<text text-anchor="middle" x="702" y="-7.5" font-family="Helvetica,sans-Serif" font-size="10.00">vector</text>
</g>
<!-- Node1&#45;&gt;Node2 -->
<g id="edge1" class="edge"><title>Node1&#45;&gt;Node2</title>
<path fill="none" stroke="midnightblue" d="M819.813,-434.393C657.674,-430.066 257.132,-415.97 128,-380 66.5363,-362.879 0,-378.804 0,-315 0,-315 0,-315 0,-133 0,-72.2264 55.6488,-76.1066 113,-56 217.092,-19.5065 562.129,-12.5693 669.69,-11.2843"/>
<polygon fill="midnightblue" stroke="midnightblue" points="669.952,-14.7817 679.912,-11.1709 669.874,-7.78214 669.952,-14.7817"/>
</g>
<!-- Node3 -->
<g id="node3" class="node"><title>Node3</title>
<polygon fill="white" stroke="#bfbfbf" points="391,-62.5 391,-81.5 443,-81.5 443,-62.5 391,-62.5"/>
<text text-anchor="middle" x="417" y="-69.5" font-family="Helvetica,sans-Serif" font-size="10.00">memory</text>
</g>
<!-- Node1&#45;&gt;Node3 -->
<g id="edge2" class="edge"><title>Node1&#45;&gt;Node3</title>
<path fill="none" stroke="midnightblue" d="M819.894,-436.562C661.151,-435.994 284,-423.253 284,-315 284,-315 284,-315 284,-189 284,-153.864 303.178,-147.828 329,-124 339.049,-114.727 369.147,-98.0079 391.358,-86.2461"/>
<polygon fill="midnightblue" stroke="midnightblue" points="393.085,-89.2923 400.313,-81.545 389.832,-83.0945 393.085,-89.2923"/>
</g>
<!-- Node4 -->
<g id="node4" class="node"><title>Node4</title>
<g id="a_node4"><a xlink:href="../../d2/d4b/Data_8hpp.html" target="_top" xlink:title="DataReader/Data.hpp">
<polygon fill="white" stroke="black" points="955,-180.5 955,-199.5 1067,-199.5 1067,-180.5 955,-180.5"/>
<text text-anchor="middle" x="1011" y="-187.5" font-family="Helvetica,sans-Serif" font-size="10.00">DataReader/Data.hpp</text>
</a>
</g>
</g>
<!-- Node1&#45;&gt;Node4 -->
<g id="edge3" class="edge"><title>Node1&#45;&gt;Node4</title>
<path fill="none" stroke="midnightblue" d="M898.778,-416.365C921.964,-369.803 979.994,-253.267 1002.18,-208.707"/>
<polygon fill="midnightblue" stroke="midnightblue" points="1005.36,-210.183 1006.68,-199.671 999.091,-207.063 1005.36,-210.183"/>
</g>
<!-- Node8 -->
<g id="node8" class="node"><title>Node8</title>
<g id="a_node8"><a xlink:href="../../df/d9f/ParameterList_8hpp.html" target="_top" xlink:title="This class provides a list of fit parameters which can have different types. ">
<polygon fill="white" stroke="red" points="1462,-124.5 1462,-143.5 1582,-143.5 1582,-124.5 1462,-124.5"/>
<text text-anchor="middle" x="1522" y="-131.5" font-family="Helvetica,sans-Serif" font-size="10.00">Core/ParameterList.hpp</text>
</a>
</g>
</g>
<!-- Node1&#45;&gt;Node8 -->
<g id="edge70" class="edge"><title>Node1&#45;&gt;Node8</title>
<path fill="none" stroke="midnightblue" d="M958.331,-432.835C1153.59,-423.006 1694,-389.108 1694,-315 1694,-315 1694,-315 1694,-251 1694,-191.909 1623.36,-160.914 1572.62,-146.273"/>
<polygon fill="midnightblue" stroke="midnightblue" points="1573.33,-142.84 1562.76,-143.56 1571.47,-149.589 1573.33,-142.84"/>
</g>
<!-- Node10 -->
<g id="node10" class="node"><title>Node10</title>
<g id="a_node10"><a xlink:href="../../df/d33/Generator_8hpp.html" target="_top" xlink:title="Core/Generator.hpp">
<polygon fill="white" stroke="black" points="1342,-124.5 1342,-143.5 1444,-143.5 1444,-124.5 1342,-124.5"/>
<text text-anchor="middle" x="1393" y="-131.5" font-family="Helvetica,sans-Serif" font-size="10.00">Core/Generator.hpp</text>
</a>
</g>
</g>
<!-- Node1&#45;&gt;Node10 -->
<g id="edge72" class="edge"><title>Node1&#45;&gt;Node10</title>
<path fill="none" stroke="midnightblue" d="M958.346,-435.177C1041.84,-430.088 1171,-407.299 1171,-315 1171,-315 1171,-315 1171,-251 1171,-210.135 1290.66,-166.75 1354.28,-146.571"/>
<polygon fill="midnightblue" stroke="midnightblue" points="1355.48,-149.862 1363.98,-143.535 1353.39,-143.181 1355.48,-149.862"/>
</g>
<!-- Node13 -->
<g id="node13" class="node"><title>Node13</title>
<g id="a_node13"><a xlink:href="../../d8/d6f/Efficiency_8hpp.html" target="_top" xlink:title="Core/Efficiency.hpp">
<polygon fill="white" stroke="red" points="806.5,-62.5 806.5,-81.5 909.5,-81.5 909.5,-62.5 806.5,-62.5"/>
<text text-anchor="middle" x="858" y="-69.5" font-family="Helvetica,sans-Serif" font-size="10.00">Core/Efficiency.hpp</text>
</a>
</g>
</g>
<!-- Node1&#45;&gt;Node13 -->
<g id="edge71" class="edge"><title>Node1&#45;&gt;Node13</title>
<path fill="none" stroke="midnightblue" d="M889,-416.299C889,-392.352 889,-350.712 889,-315 889,-315 889,-315 889,-251 889,-192.075 872.308,-123.783 863.421,-91.5989"/>
<polygon fill="midnightblue" stroke="midnightblue" points="866.737,-90.4626 860.643,-81.7956 860.002,-92.371 866.737,-90.4626"/>
</g>
<!-- Node16 -->
<g id="node16" class="node"><title>Node16</title>
<g id="a_node16"><a xlink:href="../../d5/d10/Estimator_8hpp.html" target="_top" xlink:title="This class provides the interface to classes which estimate the &quot;closeness&quot; of the modeled intensity ...">
<polygon fill="white" stroke="black" points="609,-360.5 609,-379.5 731,-379.5 731,-360.5 609,-360.5"/>
<text text-anchor="middle" x="670" y="-367.5" font-family="Helvetica,sans-Serif" font-size="10.00">Estimator/Estimator.hpp</text>
</a>
</g>
</g>
<!-- Node1&#45;&gt;Node16 -->
<g id="edge29" class="edge"><title>Node1&#45;&gt;Node16</title>
<path fill="none" stroke="midnightblue" d="M823.293,-416.498C785.889,-405.396 740.324,-391.872 708.637,-382.468"/>
<polygon fill="midnightblue" stroke="midnightblue" points="709.447,-379.057 698.864,-379.567 707.455,-385.768 709.447,-379.057"/>
</g>
<!-- Node19 -->
<g id="node19" class="node"><title>Node19</title>
<g id="a_node19"><a xlink:href="../../dc/dfd/AmpIntensity_8hpp.html" target="_top" xlink:title="Core/AmpIntensity.hpp">
<polygon fill="white" stroke="black" points="723.5,-242.5 723.5,-261.5 840.5,-261.5 840.5,-242.5 723.5,-242.5"/>
<text text-anchor="middle" x="782" y="-249.5" font-family="Helvetica,sans-Serif" font-size="10.00">Core/AmpIntensity.hpp</text>
</a>
</g>
</g>
<!-- Node1&#45;&gt;Node19 -->
<g id="edge53" class="edge"><title>Node1&#45;&gt;Node19</title>
<path fill="none" stroke="midnightblue" d="M877.549,-416.416C856.548,-380.498 812.193,-304.639 792.178,-270.408"/>
<polygon fill="midnightblue" stroke="midnightblue" points="795.077,-268.432 787.008,-261.566 789.035,-271.965 795.077,-268.432"/>
</g>
<!-- Node20 -->
<g id="node20" class="node"><title>Node20</title>
<g id="a_node20"><a xlink:href="../../db/d93/Optimizer_8hpp.html" target="_top" xlink:title="This class provides the interface to (external) optimization libraries or routines. ">
<polygon fill="white" stroke="black" points="955,-360.5 955,-379.5 1077,-379.5 1077,-360.5 955,-360.5"/>
<text text-anchor="middle" x="1016" y="-367.5" font-family="Helvetica,sans-Serif" font-size="10.00">Optimizer/Optimizer.hpp</text>
</a>
</g>
</g>
<!-- Node1&#45;&gt;Node20 -->
<g id="edge54" class="edge"><title>Node1&#45;&gt;Node20</title>
<path fill="none" stroke="midnightblue" d="M927.104,-416.498C947.325,-406.149 971.658,-393.695 989.751,-384.435"/>
<polygon fill="midnightblue" stroke="midnightblue" points="991.787,-387.324 999.094,-379.652 988.598,-381.093 991.787,-387.324"/>
</g>
<!-- Node21 -->
<g id="node21" class="node"><title>Node21</title>
<g id="a_node21"><a xlink:href="../../de/d88/FitResult_8hpp.html" target="_top" xlink:title="Core/FitResult.hpp">
<polygon fill="white" stroke="red" points="1295.5,-304.5 1295.5,-323.5 1394.5,-323.5 1394.5,-304.5 1295.5,-304.5"/>
<text text-anchor="middle" x="1345" y="-311.5" font-family="Helvetica,sans-Serif" font-size="10.00">Core/FitResult.hpp</text>
</a>
</g>
</g>
<!-- Node1&#45;&gt;Node21 -->
<g id="edge69" class="edge"><title>Node1&#45;&gt;Node21</title>
<path fill="none" stroke="midnightblue" d="M958.106,-426.903C1018.69,-417.991 1108.74,-402.46 1185,-380 1233.01,-365.859 1286.44,-342.521 1317.81,-327.994"/>
<polygon fill="midnightblue" stroke="midnightblue" points="1319.61,-331.017 1327.18,-323.61 1316.64,-324.676 1319.61,-331.017"/>
</g>
<!-- Node25 -->
<g id="node25" class="node"><title>Node25</title>
<g id="a_node25"><a xlink:href="../../d6/d6a/FitFractions_8hpp.html" target="_top" xlink:title="Tools/FitFractions.hpp">
<polygon fill="white" stroke="red" points="28,-124.5 28,-143.5 142,-143.5 142,-124.5 28,-124.5"/>
<text text-anchor="middle" x="85" y="-131.5" font-family="Helvetica,sans-Serif" font-size="10.00">Tools/FitFractions.hpp</text>
</a>
</g>
</g>
<!-- Node1&#45;&gt;Node25 -->
<g id="edge73" class="edge"><title>Node1&#45;&gt;Node25</title>
<path fill="none" stroke="midnightblue" d="M819.703,-436.254C704.126,-435.237 465.406,-426.97 270,-380 194.569,-361.869 108,-392.579 108,-315 108,-315 108,-315 108,-251 108,-215.889 97.7359,-175.922 90.9212,-153.255"/>
<polygon fill="midnightblue" stroke="midnightblue" points="94.233,-152.118 87.913,-143.615 87.5507,-154.204 94.233,-152.118"/>
</g>
<!-- Node4&#45;&gt;Node2 -->
<g id="edge4" class="edge"><title>Node4&#45;&gt;Node2</title>
<path fill="none" stroke="midnightblue" d="M997.506,-180.405C985.564,-172.237 968.323,-159 957,-144 931.226,-109.856 951.278,-82.8835 918,-56 890.124,-33.48 787.608,-19.8402 734.451,-14.1299"/>
<polygon fill="midnightblue" stroke="midnightblue" points="734.517,-10.6179 724.208,-13.0623 733.792,-17.5802 734.517,-10.6179"/>
</g>
<!-- Node4&#45;&gt;Node3 -->
<g id="edge6" class="edge"><title>Node4&#45;&gt;Node3</title>
<path fill="none" stroke="midnightblue" d="M954.917,-181.577C896.343,-173.526 801.902,-159.701 721,-144 623.579,-125.093 509.998,-96.9102 453.213,-82.3931"/>
<polygon fill="midnightblue" stroke="midnightblue" points="453.843,-78.9416 443.287,-79.8468 452.104,-85.722 453.843,-78.9416"/>
</g>
<!-- Node5 -->
<g id="node5" class="node"><title>Node5</title>
<polygon fill="white" stroke="#bfbfbf" points="1293.5,-0.5 1293.5,-19.5 1334.5,-19.5 1334.5,-0.5 1293.5,-0.5"/>
<text text-anchor="middle" x="1314" y="-7.5" font-family="Helvetica,sans-Serif" font-size="10.00">string</text>
</g>
<!-- Node4&#45;&gt;Node5 -->
<g id="edge5" class="edge"><title>Node4&#45;&gt;Node5</title>
<path fill="none" stroke="midnightblue" d="M1067.1,-180.5C1149.03,-168.026 1292,-146.015 1294,-144 1324.19,-113.554 1321.36,-58.3569 1317.35,-29.5801"/>
<polygon fill="midnightblue" stroke="midnightblue" points="1320.79,-28.9604 1315.76,-19.6366 1313.88,-30.0631 1320.79,-28.9604"/>
</g>
<!-- Node6 -->
<g id="node6" class="node"><title>Node6</title>
<g id="a_node6"><a xlink:href="../../df/d7d/Event_8hpp.html" target="_top" xlink:title="This class provides a internal container for event&#45;based information. ">
<polygon fill="white" stroke="red" points="1162.5,-62.5 1162.5,-81.5 1247.5,-81.5 1247.5,-62.5 1162.5,-62.5"/>
<text text-anchor="middle" x="1205" y="-69.5" font-family="Helvetica,sans-Serif" font-size="10.00">Core/Event.hpp</text>
</a>
</g>
</g>
<!-- Node4&#45;&gt;Node6 -->
<g id="edge7" class="edge"><title>Node4&#45;&gt;Node6</title>
<path fill="none" stroke="midnightblue" d="M1025.31,-180.349C1045.97,-167.865 1085.37,-144.09 1119,-124 1140.12,-111.38 1164.22,-97.0997 1181.52,-86.8665"/>
<polygon fill="midnightblue" stroke="midnightblue" points="1183.55,-89.7359 1190.37,-81.634 1179.99,-83.71 1183.55,-89.7359"/>
</g>
<!-- Node4&#45;&gt;Node8 -->
<g id="edge11" class="edge"><title>Node4&#45;&gt;Node8</title>
<path fill="none" stroke="midnightblue" d="M1067.09,-183.751C1149.03,-175.978 1306.53,-160.64 1451.7,-144.005"/>
<polygon fill="midnightblue" stroke="midnightblue" points="1452.15,-147.477 1461.68,-142.857 1451.35,-140.523 1452.15,-147.477"/>
</g>
<!-- Node4&#45;&gt;Node10 -->
<g id="edge17" class="edge"><title>Node4&#45;&gt;Node10</title>
<path fill="none" stroke="midnightblue" d="M1067.37,-181.032C1138.13,-171.029 1259.06,-153.935 1331.95,-143.63"/>
<polygon fill="midnightblue" stroke="midnightblue" points="1332.5,-147.088 1341.91,-142.222 1331.52,-140.157 1332.5,-147.088"/>
</g>
<!-- Node11 -->
<g id="node11" class="node"><title>Node11</title>
<g id="a_node11"><a xlink:href="../../d8/dd4/DataPoint_8hpp.html" target="_top" xlink:title="dataPoint stores kinematic information of a dalitz plot ">
<polygon fill="white" stroke="red" points="730.5,-124.5 730.5,-143.5 833.5,-143.5 833.5,-124.5 730.5,-124.5"/>
<text text-anchor="middle" x="782" y="-131.5" font-family="Helvetica,sans-Serif" font-size="10.00">Core/DataPoint.hpp</text>
</a>
</g>
</g>
<!-- Node4&#45;&gt;Node11 -->
<g id="edge19" class="edge"><title>Node4&#45;&gt;Node11</title>
<path fill="none" stroke="midnightblue" d="M974.714,-180.444C935.017,-171.083 871.293,-156.056 828.088,-145.868"/>
<polygon fill="midnightblue" stroke="midnightblue" points="828.652,-142.405 818.116,-143.516 827.046,-149.218 828.652,-142.405"/>
</g>
<!-- Node14 -->
<g id="node14" class="node"><title>Node14</title>
<g id="a_node14"><a xlink:href="../../de/d34/Resolution_8hpp.html" target="_top" xlink:title="Core/Resolution.hpp">
<polygon fill="white" stroke="black" points="966,-124.5 966,-143.5 1072,-143.5 1072,-124.5 966,-124.5"/>
<text text-anchor="middle" x="1019" y="-131.5" font-family="Helvetica,sans-Serif" font-size="10.00">Core/Resolution.hpp</text>
</a>
</g>
</g>
<!-- Node4&#45;&gt;Node14 -->
<g id="edge26" class="edge"><title>Node4&#45;&gt;Node14</title>
<path fill="none" stroke="midnightblue" d="M1012.32,-180.083C1013.38,-172.927 1014.91,-162.635 1016.23,-153.691"/>
<polygon fill="midnightblue" stroke="midnightblue" points="1019.7,-154.156 1017.7,-143.751 1012.78,-153.13 1019.7,-154.156"/>
</g>
<!-- Node15 -->
<g id="node15" class="node"><title>Node15</title>
<g id="a_node15"><a xlink:href="../../d2/dee/DataCorrection_8hpp.html" target="_top" xlink:title="DataReader/DataCorrection.hpp">
<polygon fill="white" stroke="red" points="1128.5,-124.5 1128.5,-143.5 1285.5,-143.5 1285.5,-124.5 1128.5,-124.5"/>
<text text-anchor="middle" x="1207" y="-131.5" font-family="Helvetica,sans-Serif" font-size="10.00">DataReader/DataCorrection.hpp</text>
</a>
</g>
</g>
<!-- Node4&#45;&gt;Node15 -->
<g id="edge27" class="edge"><title>Node4&#45;&gt;Node15</title>
<path fill="none" stroke="midnightblue" d="M1042.06,-180.444C1075.6,-171.201 1129.2,-156.436 1166.14,-146.257"/>
<polygon fill="midnightblue" stroke="midnightblue" points="1167.38,-149.547 1176.09,-143.516 1165.52,-142.798 1167.38,-149.547"/>
</g>
<!-- Node6&#45;&gt;Node2 -->
<g id="edge8" class="edge"><title>Node6&#45;&gt;Node2</title>
<path fill="none" stroke="midnightblue" d="M1162.11,-65.8844C1063.36,-54.1049 821.697,-25.278 734.25,-14.847"/>
<polygon fill="midnightblue" stroke="midnightblue" points="734.479,-11.3495 724.135,-13.6403 733.65,-18.3002 734.479,-11.3495"/>
</g>
<!-- Node6&#45;&gt;Node5 -->
<g id="edge9" class="edge"><title>Node6&#45;&gt;Node5</title>
<path fill="none" stroke="midnightblue" d="M1220.62,-62.4035C1238.59,-52.5123 1268.32,-36.1442 1289.41,-24.5378"/>
<polygon fill="midnightblue" stroke="midnightblue" points="1291.34,-27.4691 1298.41,-19.5806 1287.96,-21.3367 1291.34,-27.4691"/>
</g>
<!-- Node7 -->
<g id="node7" class="node"><title>Node7</title>
<polygon fill="white" stroke="#bfbfbf" points="1379,-0.5 1379,-19.5 1433,-19.5 1433,-0.5 1379,-0.5"/>
<text text-anchor="middle" x="1406" y="-7.5" font-family="Helvetica,sans-Serif" font-size="10.00">iostream</text>
</g>
<!-- Node6&#45;&gt;Node7 -->
<g id="edge10" class="edge"><title>Node6&#45;&gt;Node7</title>
<path fill="none" stroke="midnightblue" d="M1233.8,-62.4035C1269.37,-51.7844 1329.96,-33.6998 1368.96,-22.0571"/>
<polygon fill="midnightblue" stroke="midnightblue" points="1370.28,-25.3143 1378.86,-19.1001 1368.28,-18.6068 1370.28,-25.3143"/>
</g>
<!-- Node8&#45;&gt;Node2 -->
<g id="edge15" class="edge"><title>Node8&#45;&gt;Node2</title>
<path fill="none" stroke="midnightblue" d="M1498.54,-124.474C1452.65,-108.187 1347.5,-72.7839 1256,-56 1060.08,-20.0625 819.917,-12.8224 734.243,-11.366"/>
<polygon fill="midnightblue" stroke="midnightblue" points="734.166,-7.86446 724.113,-11.209 734.058,-14.8636 734.166,-7.86446"/>
</g>
<!-- Node8&#45;&gt;Node3 -->
<g id="edge14" class="edge"><title>Node8&#45;&gt;Node3</title>
<path fill="none" stroke="midnightblue" d="M1461.71,-124.917C1458.43,-124.581 1455.17,-124.272 1452,-124 1079.68,-92.1453 985.008,-110.333 612,-88 556.581,-84.6819 492.406,-79.4832 453.267,-76.1598"/>
<polygon fill="midnightblue" stroke="midnightblue" points="453.421,-72.6603 443.159,-75.2959 452.825,-79.6349 453.421,-72.6603"/>
</g>
<!-- Node8&#45;&gt;Node5 -->
<g id="edge13" class="edge"><title>Node8&#45;&gt;Node5</title>
<path fill="none" stroke="midnightblue" d="M1507.37,-124.421C1471.79,-103.552 1380.48,-49.9945 1337.3,-24.665"/>
<polygon fill="midnightblue" stroke="midnightblue" points="1339.01,-21.6097 1328.61,-19.5693 1335.46,-27.6477 1339.01,-21.6097"/>
</g>
<!-- Node8&#45;&gt;Node7 -->
<g id="edge12" class="edge"><title>Node8&#45;&gt;Node7</title>
<path fill="none" stroke="midnightblue" d="M1513.66,-124.226C1494.34,-103.914 1446.32,-53.4036 1421.46,-27.258"/>
<polygon fill="midnightblue" stroke="midnightblue" points="1423.69,-24.5298 1414.27,-19.6944 1418.62,-29.3532 1423.69,-24.5298"/>
</g>
<!-- Node9 -->
<g id="node9" class="node"><title>Node9</title>
<polygon fill="white" stroke="#bfbfbf" points="1499.5,-57 1499.5,-87 1594.5,-87 1594.5,-57 1499.5,-57"/>
<text text-anchor="start" x="1507.5" y="-75" font-family="Helvetica,sans-Serif" font-size="10.00">boost/serialization</text>
<text text-anchor="middle" x="1547" y="-64" font-family="Helvetica,sans-Serif" font-size="10.00">/vector.hpp</text>
</g>
<!-- Node8&#45;&gt;Node9 -->
<g id="edge16" class="edge"><title>Node8&#45;&gt;Node9</title>
<path fill="none" stroke="midnightblue" d="M1525.58,-124.403C1528.62,-117.113 1533.12,-106.303 1537.22,-96.4748"/>
<polygon fill="midnightblue" stroke="midnightblue" points="1540.49,-97.7178 1541.11,-87.1408 1534.03,-95.0254 1540.49,-97.7178"/>
</g>
<!-- Node10&#45;&gt;Node6 -->
<g id="edge18" class="edge"><title>Node10&#45;&gt;Node6</title>
<path fill="none" stroke="midnightblue" d="M1366.06,-124.403C1333.4,-113.978 1278.18,-96.3557 1241.66,-84.6992"/>
<polygon fill="midnightblue" stroke="midnightblue" points="1242.48,-81.2868 1231.89,-81.5806 1240.35,-87.9554 1242.48,-81.2868"/>
</g>
<!-- Node11&#45;&gt;Node2 -->
<g id="edge21" class="edge"><title>Node11&#45;&gt;Node2</title>
<path fill="none" stroke="midnightblue" d="M776.247,-124.226C763.1,-104.178 730.663,-54.7104 713.337,-28.2888"/>
<polygon fill="midnightblue" stroke="midnightblue" points="716.112,-26.1376 707.701,-19.6944 710.258,-29.9762 716.112,-26.1376"/>
</g>
<!-- Node11&#45;&gt;Node6 -->
<g id="edge25" class="edge"><title>Node11&#45;&gt;Node6</title>
<path fill="none" stroke="midnightblue" d="M833.868,-125.643C914.897,-114.149 1070.66,-92.0553 1152.24,-80.4842"/>
<polygon fill="midnightblue" stroke="midnightblue" points="1152.87,-83.9288 1162.28,-79.059 1151.89,-76.9981 1152.87,-83.9288"/>
</g>
<!-- Node12 -->
<g id="node12" class="node"><title>Node12</title>
<polygon fill="white" stroke="#bfbfbf" points="621.5,-62.5 621.5,-81.5 668.5,-81.5 668.5,-62.5 621.5,-62.5"/>
<text text-anchor="middle" x="645" y="-69.5" font-family="Helvetica,sans-Serif" font-size="10.00">math.h</text>
</g>
<!-- Node11&#45;&gt;Node12 -->
<g id="edge20" class="edge"><title>Node11&#45;&gt;Node12</title>
<path fill="none" stroke="midnightblue" d="M762.371,-124.403C739.176,-114.245 700.381,-97.2547 673.787,-85.6074"/>
<polygon fill="midnightblue" stroke="midnightblue" points="675.157,-82.3863 664.592,-81.5806 672.348,-88.7984 675.157,-82.3863"/>
</g>
<!-- Node11&#45;&gt;Node13 -->
<g id="edge22" class="edge"><title>Node11&#45;&gt;Node13</title>
<path fill="none" stroke="midnightblue" d="M792.889,-124.403C804.966,-114.869 824.667,-99.3154 839.24,-87.8106"/>
<polygon fill="midnightblue" stroke="midnightblue" points="841.451,-90.5242 847.131,-81.5806 837.114,-85.03 841.451,-90.5242"/>
</g>
<!-- Node13&#45;&gt;Node2 -->
<g id="edge24" class="edge"><title>Node13&#45;&gt;Node2</title>
<path fill="none" stroke="midnightblue" d="M835.649,-62.4035C809.005,-52.1559 764.286,-34.9561 733.986,-23.3021"/>
<polygon fill="midnightblue" stroke="midnightblue" points="734.899,-19.9037 724.31,-19.5806 732.387,-26.4372 734.899,-19.9037"/>
</g>
<!-- Node13&#45;&gt;Node7 -->
<g id="edge23" class="edge"><title>Node13&#45;&gt;Node7</title>
<path fill="none" stroke="midnightblue" d="M909.753,-66.1944C998.516,-57.8098 1185.46,-39.5293 1343,-20 1351.34,-18.9661 1360.29,-17.7519 1368.74,-16.5559"/>
<polygon fill="midnightblue" stroke="midnightblue" points="1369.34,-20.0062 1378.74,-15.1195 1368.34,-13.0774 1369.34,-20.0062"/>
</g>
<!-- Node15&#45;&gt;Node6 -->
<g id="edge28" class="edge"><title>Node15&#45;&gt;Node6</title>
<path fill="none" stroke="midnightblue" d="M1206.71,-124.403C1206.43,-115.938 1205.99,-102.728 1205.63,-91.8199"/>
<polygon fill="midnightblue" stroke="midnightblue" points="1209.12,-91.4584 1205.29,-81.5806 1202.12,-91.6917 1209.12,-91.4584"/>
</g>
<!-- Node16&#45;&gt;Node2 -->
<g id="edge30" class="edge"><title>Node16&#45;&gt;Node2</title>
<path fill="none" stroke="midnightblue" d="M608.69,-367.568C475.176,-362.787 170,-342.111 170,-253 170,-253 170,-253 170,-133 170,-87.3432 197.336,-76.7601 238,-56 313.665,-17.3711 577.275,-11.8358 669.689,-11.0945"/>
<polygon fill="midnightblue" stroke="midnightblue" points="669.862,-14.5935 679.838,-11.0273 669.815,-7.5937 669.862,-14.5935"/>
</g>
<!-- Node16&#45;&gt;Node3 -->
<g id="edge31" class="edge"><title>Node16&#45;&gt;Node3</title>
<path fill="none" stroke="midnightblue" d="M608.938,-367.989C526.367,-365.394 384.936,-356.228 346,-324 320.34,-302.761 322,-286.31 322,-253 322,-253 322,-253 322,-189 322,-158.205 327.344,-148.501 346,-124 357.878,-108.401 375.849,-95.558 390.738,-86.6619"/>
<polygon fill="midnightblue" stroke="midnightblue" points="392.579,-89.641 399.528,-81.6436 389.109,-83.5619 392.579,-89.641"/>
</g>
<!-- Node16&#45;&gt;Node8 -->
<g id="edge50" class="edge"><title>Node16&#45;&gt;Node8</title>
<path fill="none" stroke="midnightblue" d="M696.585,-360.498C784.4,-332.571 1073.41,-241.903 1316,-180 1367.61,-166.83 1427.1,-154.094 1468.84,-145.553"/>
<polygon fill="midnightblue" stroke="midnightblue" points="1469.69,-148.952 1478.79,-143.528 1468.29,-142.093 1469.69,-148.952"/>
</g>
<!-- Node17 -->
<g id="node17" class="node"><title>Node17</title>
<g id="a_node17"><a xlink:href="../../de/d1f/ControlParameter_8hpp.html" target="_top" xlink:title="This class provides the interface for the optimizer module to access the data. ">
<polygon fill="white" stroke="black" points="506,-304.5 506,-323.5 642,-323.5 642,-304.5 506,-304.5"/>
<text text-anchor="middle" x="574" y="-311.5" font-family="Helvetica,sans-Serif" font-size="10.00">Core/ControlParameter.hpp</text>
</a>
</g>
</g>
<!-- Node16&#45;&gt;Node17 -->
<g id="edge32" class="edge"><title>Node16&#45;&gt;Node17</title>
<path fill="none" stroke="midnightblue" d="M654.576,-360.324C639.46,-351.822 616.185,-338.729 598.529,-328.797"/>
<polygon fill="midnightblue" stroke="midnightblue" points="599.817,-325.507 589.386,-323.655 596.386,-331.608 599.817,-325.507"/>
</g>
<!-- Node18 -->
<g id="node18" class="node"><title>Node18</title>
<g id="a_node18"><a xlink:href="../../da/db2/FunctionTree_8hpp.html" target="_top" xlink:title="This class can be used to store a function in a tree&#45;like structure. ">
<polygon fill="white" stroke="red" points="516,-180.5 516,-199.5 632,-199.5 632,-180.5 516,-180.5"/>
<text text-anchor="middle" x="574" y="-187.5" font-family="Helvetica,sans-Serif" font-size="10.00">Core/FunctionTree.hpp</text>
</a>
</g>
</g>
<!-- Node16&#45;&gt;Node18 -->
<g id="edge51" class="edge"><title>Node16&#45;&gt;Node18</title>
<path fill="none" stroke="midnightblue" d="M668.36,-360.275C665.76,-347.497 660.038,-323.135 651,-304 633.523,-266.998 604.671,-228.593 587.687,-207.451"/>
<polygon fill="midnightblue" stroke="midnightblue" points="590.235,-205.038 581.202,-199.501 584.811,-209.463 590.235,-205.038"/>
</g>
<!-- Node16&#45;&gt;Node19 -->
<g id="edge52" class="edge"><title>Node16&#45;&gt;Node19</title>
<path fill="none" stroke="midnightblue" d="M678.418,-360.281C697.158,-340.872 742.548,-293.861 766.541,-269.011"/>
<polygon fill="midnightblue" stroke="midnightblue" points="769.36,-271.13 773.788,-261.505 764.325,-266.268 769.36,-271.13"/>
</g>
<!-- Node17&#45;&gt;Node2 -->
<g id="edge33" class="edge"><title>Node17&#45;&gt;Node2</title>
<path fill="none" stroke="midnightblue" d="M506.016,-304.473C400.172,-289.273 208,-253.123 208,-191 208,-191 208,-191 208,-133 208,-37.5677 559.866,-16.3206 669.672,-12.0136"/>
<polygon fill="midnightblue" stroke="midnightblue" points="669.951,-15.5057 679.814,-11.6375 669.691,-8.51053 669.951,-15.5057"/>
</g>
<!-- Node17&#45;&gt;Node3 -->
<g id="edge34" class="edge"><title>Node17&#45;&gt;Node3</title>
<path fill="none" stroke="midnightblue" d="M505.951,-310.268C475.316,-305.244 441.681,-293.659 422,-268 381.655,-215.4 400.086,-129.227 410.996,-91.5786"/>
<polygon fill="midnightblue" stroke="midnightblue" points="414.488,-92.1299 414.067,-81.5434 407.794,-90.0814 414.488,-92.1299"/>
</g>
<!-- Node17&#45;&gt;Node8 -->
<g id="edge35" class="edge"><title>Node17&#45;&gt;Node8</title>
<path fill="none" stroke="midnightblue" d="M631.023,-304.494C686.739,-295.989 773.887,-282.168 849,-268 991.024,-241.211 1027.05,-236.1 1167,-200 1196.68,-192.344 1203.12,-186.819 1233,-180 1273.4,-170.78 1379.77,-155.024 1451.56,-144.814"/>
<polygon fill="midnightblue" stroke="midnightblue" points="1452.48,-148.219 1461.89,-143.35 1451.5,-141.288 1452.48,-148.219"/>
</g>
<!-- Node17&#45;&gt;Node18 -->
<g id="edge36" class="edge"><title>Node17&#45;&gt;Node18</title>
<path fill="none" stroke="midnightblue" d="M574,-304.226C574,-284.53 574,-236.437 574,-209.7"/>
<polygon fill="midnightblue" stroke="midnightblue" points="577.5,-209.694 574,-199.694 570.5,-209.694 577.5,-209.694"/>
</g>
<!-- Node17&#45;&gt;Node19 -->
<g id="edge40" class="edge"><title>Node17&#45;&gt;Node19</title>
<path fill="none" stroke="midnightblue" d="M603.801,-304.403C640.253,-293.889 702.08,-276.054 742.474,-264.402"/>
<polygon fill="midnightblue" stroke="midnightblue" points="743.616,-267.715 752.254,-261.581 741.676,-260.989 743.616,-267.715"/>
</g>
<!-- Node18&#45;&gt;Node2 -->
<g id="edge37" class="edge"><title>Node18&#45;&gt;Node2</title>
<path fill="none" stroke="midnightblue" d="M574.154,-180.452C575.002,-157.602 580.254,-94.2519 612,-56 626.916,-38.0276 650.799,-26.5539 670.215,-19.6929"/>
<polygon fill="midnightblue" stroke="midnightblue" points="671.481,-22.961 679.89,-16.5154 669.297,-16.3104 671.481,-22.961"/>
</g>
<!-- Node18&#45;&gt;Node3 -->
<g id="edge38" class="edge"><title>Node18&#45;&gt;Node3</title>
<path fill="none" stroke="midnightblue" d="M562.932,-180.499C546.619,-168.001 515.12,-143.984 488,-124 471.162,-111.592 451.877,-97.7637 437.659,-87.6398"/>
<polygon fill="midnightblue" stroke="midnightblue" points="439.303,-84.5143 429.125,-81.5741 435.248,-90.2201 439.303,-84.5143"/>
</g>
<!-- Node18&#45;&gt;Node5 -->
<g id="edge39" class="edge"><title>Node18&#45;&gt;Node5</title>
<path fill="none" stroke="midnightblue" d="M584.287,-180.478C614.566,-155.95 706.915,-85.0853 797,-56 888.421,-26.4834 1186.3,-14.916 1283.22,-11.876"/>
<polygon fill="midnightblue" stroke="midnightblue" points="1283.36,-15.3734 1293.25,-11.5696 1283.15,-8.37666 1283.36,-15.3734"/>
</g>
<!-- Node19&#45;&gt;Node2 -->
<g id="edge41" class="edge"><title>Node19&#45;&gt;Node2</title>
<path fill="none" stroke="midnightblue" d="M723.302,-251.623C661.083,-249.914 561.688,-240.263 487,-200 426.939,-167.623 407.092,-151.451 382,-88 376.77,-74.7743 372.67,-66.734 382,-56 419.096,-13.3219 596.192,-9.95397 669.802,-10.4504"/>
<polygon fill="midnightblue" stroke="midnightblue" points="669.849,-13.9509 679.882,-10.5475 669.916,-6.95126 669.849,-13.9509"/>
</g>
<!-- Node19&#45;&gt;Node3 -->
<g id="edge42" class="edge"><title>Node19&#45;&gt;Node3</title>
<path fill="none" stroke="midnightblue" d="M723.361,-245.329C653.578,-237.694 542.081,-222.428 507,-200 495.913,-192.912 449.599,-123.093 428.079,-90.1023"/>
<polygon fill="midnightblue" stroke="midnightblue" points="430.874,-87.9804 422.489,-81.5047 425.006,-91.7962 430.874,-87.9804"/>
</g>
<!-- Node19&#45;&gt;Node4 -->
<g id="edge46" class="edge"><title>Node19&#45;&gt;Node4</title>
<path fill="none" stroke="midnightblue" d="M814.81,-242.403C855.197,-231.822 923.877,-213.827 968.329,-202.18"/>
<polygon fill="midnightblue" stroke="midnightblue" points="969.464,-205.501 978.251,-199.581 967.69,-198.729 969.464,-205.501"/>
</g>
<!-- Node19&#45;&gt;Node8 -->
<g id="edge44" class="edge"><title>Node19&#45;&gt;Node8</title>
<path fill="none" stroke="midnightblue" d="M840.786,-243.332C906.796,-234.387 1016.99,-218.448 1111,-200 1148.66,-192.61 1157.28,-187.069 1195,-180 1219.64,-175.382 1363.41,-156.048 1451.91,-144.276"/>
<polygon fill="midnightblue" stroke="midnightblue" points="1452.44,-147.737 1461.89,-142.95 1451.52,-140.798 1452.44,-147.737"/>
</g>
<!-- Node19&#45;&gt;Node10 -->
<g id="edge49" class="edge"><title>Node19&#45;&gt;Node10</title>
<path fill="none" stroke="midnightblue" d="M840.566,-245.243C900.457,-238.331 995.694,-224.487 1075,-200 1095.52,-193.663 1098.45,-186.239 1119,-180 1138.96,-173.94 1257.21,-155.5 1331.7,-144.193"/>
<polygon fill="midnightblue" stroke="midnightblue" points="1332.54,-147.605 1341.91,-142.647 1331.49,-140.684 1332.54,-147.605"/>
</g>
<!-- Node19&#45;&gt;Node11 -->
<g id="edge47" class="edge"><title>Node19&#45;&gt;Node11</title>
<path fill="none" stroke="midnightblue" d="M782,-242.281C782,-223.547 782,-179.098 782,-153.682"/>
<polygon fill="midnightblue" stroke="midnightblue" points="785.5,-153.505 782,-143.505 778.5,-153.505 785.5,-153.505"/>
</g>
<!-- Node19&#45;&gt;Node12 -->
<g id="edge43" class="edge"><title>Node19&#45;&gt;Node12</title>
<path fill="none" stroke="midnightblue" d="M773.389,-242.293C756.128,-224.614 716.511,-182.884 688,-144 675.261,-126.626 662.736,-105.331 654.52,-90.619"/>
<polygon fill="midnightblue" stroke="midnightblue" points="657.455,-88.6923 649.57,-81.6151 651.32,-92.0644 657.455,-88.6923"/>
</g>
<!-- Node19&#45;&gt;Node13 -->
<g id="edge48" class="edge"><title>Node19&#45;&gt;Node13</title>
<path fill="none" stroke="midnightblue" d="M788.063,-242.274C800.097,-224.561 827.123,-182.774 842,-144 848.571,-126.872 852.835,-106.335 855.296,-91.7651"/>
<polygon fill="midnightblue" stroke="midnightblue" points="858.808,-91.9586 856.891,-81.5385 851.891,-90.8792 858.808,-91.9586"/>
</g>
<!-- Node19&#45;&gt;Node18 -->
<g id="edge45" class="edge"><title>Node19&#45;&gt;Node18</title>
<path fill="none" stroke="midnightblue" d="M752.199,-242.403C715.747,-231.889 653.92,-214.054 613.526,-202.402"/>
<polygon fill="midnightblue" stroke="midnightblue" points="614.324,-198.989 603.746,-199.581 612.384,-205.715 614.324,-198.989"/>
</g>
<!-- Node20&#45;&gt;Node2 -->
<g id="edge55" class="edge"><title>Node20&#45;&gt;Node2</title>
<path fill="none" stroke="midnightblue" d="M1005.59,-360.415C979.539,-338.994 909.29,-281.631 849,-236 793.137,-193.72 757.305,-203.918 721,-144 699.213,-108.043 698.687,-56.7846 700.284,-29.5985"/>
<polygon fill="midnightblue" stroke="midnightblue" points="703.78,-29.7707 701.042,-19.5359 696.8,-29.2446 703.78,-29.7707"/>
</g>
<!-- Node20&#45;&gt;Node3 -->
<g id="edge56" class="edge"><title>Node20&#45;&gt;Node3</title>
<path fill="none" stroke="midnightblue" d="M954.703,-366.68C836.519,-361.715 581.365,-348.471 497,-324 431.135,-304.895 360,-321.58 360,-253 360,-253 360,-253 360,-189 360,-150.148 386.074,-110.788 402.952,-89.3787"/>
<polygon fill="midnightblue" stroke="midnightblue" points="405.692,-91.5574 409.313,-81.6004 400.273,-87.1263 405.692,-91.5574"/>
</g>
<!-- Node20&#45;&gt;Node8 -->
<g id="edge57" class="edge"><title>Node20&#45;&gt;Node8</title>
<path fill="none" stroke="midnightblue" d="M1028.19,-360.227C1060.36,-337.363 1150.76,-275.021 1233,-236 1318.16,-195.592 1424.03,-162.697 1481.04,-146.299"/>
<polygon fill="midnightblue" stroke="midnightblue" points="1482.11,-149.634 1490.77,-143.526 1480.19,-142.903 1482.11,-149.634"/>
</g>
<!-- Node20&#45;&gt;Node21 -->
<g id="edge58" class="edge"><title>Node20&#45;&gt;Node21</title>
<path fill="none" stroke="midnightblue" d="M1068.13,-360.444C1127.17,-350.753 1223.21,-334.99 1285.24,-324.809"/>
<polygon fill="midnightblue" stroke="midnightblue" points="1285.97,-328.236 1295.27,-323.163 1284.83,-321.329 1285.97,-328.236"/>
</g>
<!-- Node21&#45;&gt;Node2 -->
<g id="edge59" class="edge"><title>Node21&#45;&gt;Node2</title>
<path fill="none" stroke="midnightblue" d="M1315.12,-304.387C1297.46,-297.587 1276.55,-286.15 1266,-268 1258.85,-255.704 1257.43,-247.347 1266,-236 1288.56,-206.142 1564.19,-171.097 1590,-144 1617.27,-115.374 1630.25,-84.6446 1603,-56 1572.46,-23.9008 891.846,-13.3877 734.334,-11.3804"/>
<polygon fill="midnightblue" stroke="midnightblue" points="734.362,-7.88056 724.319,-11.2553 734.275,-14.88 734.362,-7.88056"/>
</g>
<!-- Node21&#45;&gt;Node3 -->
<g id="edge63" class="edge"><title>Node21&#45;&gt;Node3</title>
<path fill="none" stroke="midnightblue" d="M1295.45,-313.149C1188.39,-312.669 927.9,-307.172 714,-268 610.404,-249.028 571.539,-262.81 487,-200 450.07,-172.562 430.195,-119.582 421.844,-91.5071"/>
<polygon fill="midnightblue" stroke="midnightblue" points="425.181,-90.4469 419.114,-81.7613 418.441,-92.3347 425.181,-90.4469"/>
</g>
<!-- Node21&#45;&gt;Node5 -->
<g id="edge60" class="edge"><title>Node21&#45;&gt;Node5</title>
<path fill="none" stroke="midnightblue" d="M1394.54,-309.872C1460.56,-304.801 1572.82,-292.752 1605,-268 1682.34,-208.515 1726.63,-129.09 1662,-56 1618.69,-7.02241 1434.73,-29.1887 1370,-20 1361.77,-18.8323 1352.89,-17.4567 1344.67,-16.137"/>
<polygon fill="midnightblue" stroke="midnightblue" points="1345.15,-12.6692 1334.72,-14.5152 1344.02,-19.578 1345.15,-12.6692"/>
</g>
<!-- Node21&#45;&gt;Node7 -->
<g id="edge61" class="edge"><title>Node21&#45;&gt;Node7</title>
<path fill="none" stroke="midnightblue" d="M1394.73,-313.134C1454.67,-311.573 1557.27,-303.318 1637,-268 1686.69,-245.987 1732,-245.35 1732,-191 1732,-191 1732,-191 1732,-133 1732,-93.3621 1719.71,-78.3928 1687,-56 1648.01,-29.3073 1510.42,-17.3812 1443.34,-13.0566"/>
<polygon fill="midnightblue" stroke="midnightblue" points="1443.4,-9.55373 1433.2,-12.4266 1442.96,-16.5403 1443.4,-9.55373"/>
</g>
<!-- Node21&#45;&gt;Node8 -->
<g id="edge68" class="edge"><title>Node21&#45;&gt;Node8</title>
<path fill="none" stroke="midnightblue" d="M1394.57,-309.695C1451.46,-304.748 1539.56,-293.159 1560,-268 1588.16,-233.336 1555.35,-178.845 1535.29,-151.628"/>
<polygon fill="midnightblue" stroke="midnightblue" points="1537.94,-149.33 1529.09,-143.512 1532.38,-153.582 1537.94,-149.33"/>
</g>
<!-- Node21&#45;&gt;Node9 -->
<g id="edge66" class="edge"><title>Node21&#45;&gt;Node9</title>
<path fill="none" stroke="midnightblue" d="M1394.73,-310.369C1456.27,-305.993 1555.91,-294.867 1580,-268 1622.83,-220.238 1612.01,-184.259 1590,-124 1586.02,-113.118 1578.59,-102.954 1571.01,-94.6075"/>
<polygon fill="midnightblue" stroke="midnightblue" points="1573.28,-91.9256 1563.8,-87.1983 1568.26,-96.8067 1573.28,-91.9256"/>
</g>
<!-- Node21&#45;&gt;Node19 -->
<g id="edge67" class="edge"><title>Node21&#45;&gt;Node19</title>
<path fill="none" stroke="midnightblue" d="M1295.04,-307.675C1194.07,-296.915 965.6,-272.567 850.701,-260.322"/>
<polygon fill="midnightblue" stroke="midnightblue" points="850.929,-256.826 840.614,-259.247 850.187,-263.787 850.929,-256.826"/>
</g>
<!-- Node22 -->
<g id="node22" class="node"><title>Node22</title>
<polygon fill="white" stroke="#bfbfbf" points="1275,-242.5 1275,-261.5 1325,-261.5 1325,-242.5 1275,-242.5"/>
<text text-anchor="middle" x="1300" y="-249.5" font-family="Helvetica,sans-Serif" font-size="10.00">fstream</text>
</g>
<!-- Node21&#45;&gt;Node22 -->
<g id="edge62" class="edge"><title>Node21&#45;&gt;Node22</title>
<path fill="none" stroke="midnightblue" d="M1338.55,-304.403C1331.8,-295.403 1321.03,-281.041 1312.59,-269.782"/>
<polygon fill="midnightblue" stroke="midnightblue" points="1315.24,-267.481 1306.44,-261.581 1309.64,-271.681 1315.24,-267.481"/>
</g>
<!-- Node23 -->
<g id="node23" class="node"><title>Node23</title>
<polygon fill="white" stroke="#bfbfbf" points="1343.5,-237 1343.5,-267 1438.5,-267 1438.5,-237 1343.5,-237"/>
<text text-anchor="start" x="1351.5" y="-255" font-family="Helvetica,sans-Serif" font-size="10.00">boost/serialization</text>
<text text-anchor="middle" x="1391" y="-244" font-family="Helvetica,sans-Serif" font-size="10.00">/serialization.hpp</text>
</g>
<!-- Node21&#45;&gt;Node23 -->
<g id="edge64" class="edge"><title>Node21&#45;&gt;Node23</title>
<path fill="none" stroke="midnightblue" d="M1351.59,-304.403C1357.41,-296.809 1366.16,-285.396 1373.94,-275.252"/>
<polygon fill="midnightblue" stroke="midnightblue" points="1376.85,-277.206 1380.16,-267.141 1371.3,-272.947 1376.85,-277.206"/>
</g>
<!-- Node24 -->
<g id="node24" class="node"><title>Node24</title>
<polygon fill="white" stroke="#bfbfbf" points="1456.5,-237 1456.5,-267 1551.5,-267 1551.5,-237 1456.5,-237"/>
<text text-anchor="start" x="1464.5" y="-255" font-family="Helvetica,sans-Serif" font-size="10.00">boost/serialization</text>
<text text-anchor="middle" x="1504" y="-244" font-family="Helvetica,sans-Serif" font-size="10.00">/nvp.hpp</text>
</g>
<!-- Node21&#45;&gt;Node24 -->
<g id="edge65" class="edge"><title>Node21&#45;&gt;Node24</title>
<path fill="none" stroke="midnightblue" d="M1367.78,-304.403C1391,-295.641 1427.7,-281.794 1457.15,-270.679"/>
<polygon fill="midnightblue" stroke="midnightblue" points="1458.71,-273.831 1466.83,-267.025 1456.24,-267.281 1458.71,-273.831"/>
</g>
<!-- Node25&#45;&gt;Node2 -->
<g id="edge75" class="edge"><title>Node25&#45;&gt;Node2</title>
<path fill="none" stroke="midnightblue" d="M89.8979,-124.361C99.8707,-107.714 124.298,-71.4732 156,-56 247.325,-11.4253 566.616,-9.91126 669.668,-10.6285"/>
<polygon fill="midnightblue" stroke="midnightblue" points="669.748,-14.1292 679.776,-10.7112 669.805,-7.1294 669.748,-14.1292"/>
</g>
<!-- Node25&#45;&gt;Node3 -->
<g id="edge74" class="edge"><title>Node25&#45;&gt;Node3</title>
<path fill="none" stroke="midnightblue" d="M132.215,-124.467C199.231,-112.356 320.487,-90.4421 380.845,-79.5341"/>
<polygon fill="midnightblue" stroke="midnightblue" points="381.468,-82.9782 390.686,-77.7555 380.223,-76.0898 381.468,-82.9782"/>
</g>
</g>
</svg>
