<?xml version="1.0" encoding="UTF-8" standalone="no"?>
<!DOCTYPE svg PUBLIC "-//W3C//DTD SVG 1.1//EN"
 "http://www.w3.org/Graphics/SVG/1.1/DTD/svg11.dtd">
<!-- Generated by graphviz version 2.36.0 (20140111.2315)
 -->
<!-- Title: /home/travis/build/ComPWA/ComPWA/Tools/Integration.hpp Pages: 1 -->
<svg width="919pt" height="320pt"
 viewBox="0.00 0.00 919.00 320.00" xmlns="http://www.w3.org/2000/svg" xmlns:xlink="http://www.w3.org/1999/xlink">
<g id="graph0" class="graph" transform="scale(1 1) rotate(0) translate(4 316)">
<title>/home/travis/build/ComPWA/ComPWA/Tools/Integration.hpp</title>
<polygon fill="white" stroke="none" points="-4,4 -4,-316 915,-316 915,4 -4,4"/>
<!-- Node1 -->
<g id="node1" class="node"><title>Node1</title>
<polygon fill="#bfbfbf" stroke="black" points="390,-270.5 390,-311.5 528,-311.5 528,-270.5 390,-270.5"/>
<text text-anchor="start" x="398" y="-299.5" font-family="Helvetica,sans-Serif" font-size="10.00">/home/travis/build</text>
<text text-anchor="start" x="398" y="-288.5" font-family="Helvetica,sans-Serif" font-size="10.00">/ComPWA/ComPWA/Tools</text>
<text text-anchor="middle" x="459" y="-277.5" font-family="Helvetica,sans-Serif" font-size="10.00">/Integration.hpp</text>
</g>
<!-- Node2 -->
<g id="node2" class="node"><title>Node2</title>
<g id="a_node2"><a xlink:href="../../dd/dd1/AbstractDynamicalFunction_8cpp.html" target="_top" xlink:title="/home/travis/build\l/ComPWA/ComPWA/Physics\l/HelicityFormalism/AbstractDynamical\lFunction.cpp">
<polygon fill="white" stroke="black" points="0.5,-181 0.5,-233 185.5,-233 185.5,-181 0.5,-181"/>
<text text-anchor="start" x="8.5" y="-221" font-family="Helvetica,sans-Serif" font-size="10.00">/home/travis/build</text>
<text text-anchor="start" x="8.5" y="-210" font-family="Helvetica,sans-Serif" font-size="10.00">/ComPWA/ComPWA/Physics</text>
<text text-anchor="start" x="8.5" y="-199" font-family="Helvetica,sans-Serif" font-size="10.00">/HelicityFormalism/AbstractDynamical</text>
<text text-anchor="middle" x="93" y="-188" font-family="Helvetica,sans-Serif" font-size="10.00">Function.cpp</text>
</a>
</g>
</g>
<!-- Node1&#45;&gt;Node2 -->
<g id="edge1" class="edge"><title>Node1&#45;&gt;Node2</title>
<path fill="none" stroke="midnightblue" d="M379.974,-274.11C327.423,-263.329 256.939,-248.457 195,-234 191.886,-233.273 188.72,-232.524 185.526,-231.759"/>
<polygon fill="midnightblue" stroke="midnightblue" points="379.405,-277.566 389.903,-276.142 380.808,-270.708 379.405,-277.566"/>
</g>
<!-- Node3 -->
<g id="node3" class="node"><title>Node3</title>
<g id="a_node3"><a xlink:href="../../d0/d6d/IncoherentIntensity_8hpp.html" target="_top" xlink:title="/home/travis/build\l/ComPWA/ComPWA/Physics\l/HelicityFormalism/Incoherent\lIntensity.hpp">
<polygon fill="white" stroke="black" points="203.5,-181 203.5,-233 352.5,-233 352.5,-181 203.5,-181"/>
<text text-anchor="start" x="211.5" y="-221" font-family="Helvetica,sans-Serif" font-size="10.00">/home/travis/build</text>
<text text-anchor="start" x="211.5" y="-210" font-family="Helvetica,sans-Serif" font-size="10.00">/ComPWA/ComPWA/Physics</text>
<text text-anchor="start" x="211.5" y="-199" font-family="Helvetica,sans-Serif" font-size="10.00">/HelicityFormalism/Incoherent</text>
<text text-anchor="middle" x="278" y="-188" font-family="Helvetica,sans-Serif" font-size="10.00">Intensity.hpp</text>
</a>
</g>
</g>
<!-- Node1&#45;&gt;Node3 -->
<g id="edge2" class="edge"><title>Node1&#45;&gt;Node3</title>
<path fill="none" stroke="midnightblue" d="M406.414,-266.176C383.484,-255.788 356.59,-243.604 333.355,-233.078"/>
<polygon fill="midnightblue" stroke="midnightblue" points="405.093,-269.42 415.646,-270.359 407.982,-263.044 405.093,-269.42"/>
</g>
<!-- Node8 -->
<g id="node8" class="node"><title>Node8</title>
<g id="a_node8"><a xlink:href="../../d6/d6a/FitFractions_8hpp.html" target="_top" xlink:title="/home/travis/build\l/ComPWA/ComPWA/Tools\l/FitFractions.hpp">
<polygon fill="white" stroke="black" points="390,-186.5 390,-227.5 528,-227.5 528,-186.5 390,-186.5"/>
<text text-anchor="start" x="398" y="-215.5" font-family="Helvetica,sans-Serif" font-size="10.00">/home/travis/build</text>
<text text-anchor="start" x="398" y="-204.5" font-family="Helvetica,sans-Serif" font-size="10.00">/ComPWA/ComPWA/Tools</text>
<text text-anchor="middle" x="459" y="-193.5" font-family="Helvetica,sans-Serif" font-size="10.00">/FitFractions.hpp</text>
</a>
</g>
</g>
<!-- Node1&#45;&gt;Node8 -->
<g id="edge7" class="edge"><title>Node1&#45;&gt;Node8</title>
<path fill="none" stroke="midnightblue" d="M459,-259.881C459,-249.133 459,-237.309 459,-227.667"/>
<polygon fill="midnightblue" stroke="midnightblue" points="455.5,-260.15 459,-270.15 462.5,-260.15 455.5,-260.15"/>
</g>
<!-- Node12 -->
<g id="node12" class="node"><title>Node12</title>
<g id="a_node12"><a xlink:href="../../db/d94/RunManager_8cpp.html" target="_top" xlink:title="/home/travis/build\l/ComPWA/ComPWA/Tools\l/RunManager.cpp">
<polygon fill="white" stroke="black" points="773,-6.5 773,-47.5 911,-47.5 911,-6.5 773,-6.5"/>
<text text-anchor="start" x="781" y="-35.5" font-family="Helvetica,sans-Serif" font-size="10.00">/home/travis/build</text>
<text text-anchor="start" x="781" y="-24.5" font-family="Helvetica,sans-Serif" font-size="10.00">/ComPWA/ComPWA/Tools</text>
<text text-anchor="middle" x="842" y="-13.5" font-family="Helvetica,sans-Serif" font-size="10.00">/RunManager.cpp</text>
</a>
</g>
</g>
<!-- Node1&#45;&gt;Node12 -->
<g id="edge15" class="edge"><title>Node1&#45;&gt;Node12</title>
<path fill="none" stroke="midnightblue" d="M496.622,-264.644C509.711,-255.393 524.291,-244.595 537,-234 563.557,-211.86 565.636,-201.134 593,-180 663.347,-125.669 754.266,-74.3945 804.489,-47.5202"/>
<polygon fill="midnightblue" stroke="midnightblue" points="494.461,-261.883 488.27,-270.481 498.472,-267.621 494.461,-261.883"/>
</g>
<!-- Node13 -->
<g id="node13" class="node"><title>Node13</title>
<g id="a_node13"><a xlink:href="../../dd/d66/ToolsTest_8cpp.html" target="_top" xlink:title="/home/travis/build\l/ComPWA/ComPWA/Tools\l/test/ToolsTest.cpp">
<polygon fill="white" stroke="black" points="602,-186.5 602,-227.5 740,-227.5 740,-186.5 602,-186.5"/>
<text text-anchor="start" x="610" y="-215.5" font-family="Helvetica,sans-Serif" font-size="10.00">/home/travis/build</text>
<text text-anchor="start" x="610" y="-204.5" font-family="Helvetica,sans-Serif" font-size="10.00">/ComPWA/ComPWA/Tools</text>
<text text-anchor="middle" x="671" y="-193.5" font-family="Helvetica,sans-Serif" font-size="10.00">/test/ToolsTest.cpp</text>
</a>
</g>
</g>
<!-- Node1&#45;&gt;Node13 -->
<g id="edge16" class="edge"><title>Node1&#45;&gt;Node13</title>
<path fill="none" stroke="midnightblue" d="M519.203,-266.714C551.206,-254.336 590.103,-239.29 620.51,-227.529"/>
<polygon fill="midnightblue" stroke="midnightblue" points="517.574,-263.591 509.51,-270.463 520.099,-270.12 517.574,-263.591"/>
</g>
<!-- Node4 -->
<g id="node4" class="node"><title>Node4</title>
<g id="a_node4"><a xlink:href="../../de/dfe/IncoherentIntensity_8cpp.html" target="_top" xlink:title="/home/travis/build\l/ComPWA/ComPWA/Physics\l/HelicityFormalism/Incoherent\lIntensity.cpp">
<polygon fill="white" stroke="black" points="-0.5,-91 -0.5,-143 148.5,-143 148.5,-91 -0.5,-91"/>
<text text-anchor="start" x="7.5" y="-131" font-family="Helvetica,sans-Serif" font-size="10.00">/home/travis/build</text>
<text text-anchor="start" x="7.5" y="-120" font-family="Helvetica,sans-Serif" font-size="10.00">/ComPWA/ComPWA/Physics</text>
<text text-anchor="start" x="7.5" y="-109" font-family="Helvetica,sans-Serif" font-size="10.00">/HelicityFormalism/Incoherent</text>
<text text-anchor="middle" x="74" y="-98" font-family="Helvetica,sans-Serif" font-size="10.00">Intensity.cpp</text>
</a>
</g>
</g>
<!-- Node3&#45;&gt;Node4 -->
<g id="edge3" class="edge"><title>Node3&#45;&gt;Node4</title>
<path fill="none" stroke="midnightblue" d="M210.304,-176.798C185.042,-165.9 156.603,-153.632 132.262,-143.133"/>
<polygon fill="midnightblue" stroke="midnightblue" points="209.246,-180.153 219.815,-180.901 212.019,-173.726 209.246,-180.153"/>
</g>
<!-- Node5 -->
<g id="node5" class="node"><title>Node5</title>
<g id="a_node5"><a xlink:href="../../d8/d80/AmpModel_8cpp.html" target="_top" xlink:title="/home/travis/build\l/ComPWA/ComPWA/Physics\l/HelicityFormalism/test\l/AmpModel.cpp">
<polygon fill="white" stroke="black" points="60.5,-1 60.5,-53 209.5,-53 209.5,-1 60.5,-1"/>
<text text-anchor="start" x="68.5" y="-41" font-family="Helvetica,sans-Serif" font-size="10.00">/home/travis/build</text>
<text text-anchor="start" x="68.5" y="-30" font-family="Helvetica,sans-Serif" font-size="10.00">/ComPWA/ComPWA/Physics</text>
<text text-anchor="start" x="68.5" y="-19" font-family="Helvetica,sans-Serif" font-size="10.00">/HelicityFormalism/test</text>
<text text-anchor="middle" x="135" y="-8" font-family="Helvetica,sans-Serif" font-size="10.00">/AmpModel.cpp</text>
</a>
</g>
</g>
<!-- Node3&#45;&gt;Node5 -->
<g id="edge4" class="edge"><title>Node3&#45;&gt;Node5</title>
<path fill="none" stroke="midnightblue" d="M228.69,-174.885C216.737,-165.875 204.64,-155.369 195,-144 171.538,-116.33 153.966,-77.9353 144.087,-53.03"/>
<polygon fill="midnightblue" stroke="midnightblue" points="226.767,-177.814 236.91,-180.876 230.89,-172.157 226.767,-177.814"/>
</g>
<!-- Node6 -->
<g id="node6" class="node"><title>Node6</title>
<g id="a_node6"><a xlink:href="../../d3/d1f/HelicityFormalism_8hpp.html" target="_top" xlink:title="/home/travis/build\l/ComPWA/ComPWA/Physics\l/HelicityFormalism.hpp">
<polygon fill="white" stroke="black" points="203.5,-96.5 203.5,-137.5 352.5,-137.5 352.5,-96.5 203.5,-96.5"/>
<text text-anchor="start" x="211.5" y="-125.5" font-family="Helvetica,sans-Serif" font-size="10.00">/home/travis/build</text>
<text text-anchor="start" x="211.5" y="-114.5" font-family="Helvetica,sans-Serif" font-size="10.00">/ComPWA/ComPWA/Physics</text>
<text text-anchor="middle" x="278" y="-103.5" font-family="Helvetica,sans-Serif" font-size="10.00">/HelicityFormalism.hpp</text>
</a>
</g>
</g>
<!-- Node3&#45;&gt;Node6 -->
<g id="edge5" class="edge"><title>Node3&#45;&gt;Node6</title>
<path fill="none" stroke="midnightblue" d="M278,-170.515C278,-159.257 278,-147.227 278,-137.525"/>
<polygon fill="midnightblue" stroke="midnightblue" points="274.5,-170.547 278,-180.547 281.5,-170.547 274.5,-170.547"/>
</g>
<!-- Node7 -->
<g id="node7" class="node"><title>Node7</title>
<g id="a_node7"><a xlink:href="../../db/d7b/DalitzFitD03K_8cpp.html" target="_top" xlink:title="/home/travis/build\l/ComPWA/ComPWA/Examples\l/DalitzAnalysis_D0KsKK\l/DalitzFitD03K.cpp">
<polygon fill="white" stroke="black" points="227,-1 227,-53 385,-53 385,-1 227,-1"/>
<text text-anchor="start" x="235" y="-41" font-family="Helvetica,sans-Serif" font-size="10.00">/home/travis/build</text>
<text text-anchor="start" x="235" y="-30" font-family="Helvetica,sans-Serif" font-size="10.00">/ComPWA/ComPWA/Examples</text>
<text text-anchor="start" x="235" y="-19" font-family="Helvetica,sans-Serif" font-size="10.00">/DalitzAnalysis_D0KsKK</text>
<text text-anchor="middle" x="306" y="-8" font-family="Helvetica,sans-Serif" font-size="10.00">/DalitzFitD03K.cpp</text>
</a>
</g>
</g>
<!-- Node6&#45;&gt;Node7 -->
<g id="edge6" class="edge"><title>Node6&#45;&gt;Node7</title>
<path fill="none" stroke="midnightblue" d="M287.251,-86.9253C290.725,-76.0076 294.641,-63.6991 297.993,-53.1657"/>
<polygon fill="midnightblue" stroke="midnightblue" points="283.911,-85.8794 284.214,-96.4699 290.581,-88.0019 283.911,-85.8794"/>
</g>
<!-- Node8&#45;&gt;Node7 -->
<g id="edge8" class="edge"><title>Node8&#45;&gt;Node7</title>
<path fill="none" stroke="midnightblue" d="M431.104,-179.019C420.649,-168.44 408.911,-155.981 399,-144 380.295,-121.387 379.211,-113.013 361,-90 351.089,-77.4754 339.433,-64.1558 329.408,-53.0852"/>
<polygon fill="midnightblue" stroke="midnightblue" points="428.898,-181.762 438.445,-186.356 433.846,-176.811 428.898,-181.762"/>
</g>
<!-- Node9 -->
<g id="node9" class="node"><title>Node9</title>
<g id="a_node9"><a xlink:href="../../db/d41/RunManager_8hpp.html" target="_top" xlink:title="This class provides a RunManager for simple fits. ">
<polygon fill="white" stroke="black" points="408,-96.5 408,-137.5 546,-137.5 546,-96.5 408,-96.5"/>
<text text-anchor="start" x="416" y="-125.5" font-family="Helvetica,sans-Serif" font-size="10.00">/home/travis/build</text>
<text text-anchor="start" x="416" y="-114.5" font-family="Helvetica,sans-Serif" font-size="10.00">/ComPWA/ComPWA/Tools</text>
<text text-anchor="middle" x="477" y="-103.5" font-family="Helvetica,sans-Serif" font-size="10.00">/RunManager.hpp</text>
</a>
</g>
</g>
<!-- Node8&#45;&gt;Node9 -->
<g id="edge9" class="edge"><title>Node8&#45;&gt;Node9</title>
<path fill="none" stroke="midnightblue" d="M465.069,-176.33C467.667,-163.629 470.63,-149.14 472.954,-137.78"/>
<polygon fill="midnightblue" stroke="midnightblue" points="461.57,-175.971 462.995,-186.47 468.428,-177.374 461.57,-175.971"/>
</g>
<!-- Node9&#45;&gt;Node5 -->
<g id="edge12" class="edge"><title>Node9&#45;&gt;Node5</title>
<path fill="none" stroke="midnightblue" d="M398.021,-97.7212C334.84,-82.9815 251.475,-63.238 218,-54 215.234,-53.2368 212.422,-52.4436 209.585,-51.6292"/>
<polygon fill="midnightblue" stroke="midnightblue" points="397.444,-101.18 407.977,-100.041 399.033,-94.3631 397.444,-101.18"/>
</g>
<!-- Node9&#45;&gt;Node7 -->
<g id="edge11" class="edge"><title>Node9&#45;&gt;Node7</title>
<path fill="none" stroke="midnightblue" d="M429.995,-91.8104C406.555,-79.7478 378.237,-65.1745 354.584,-53.0021"/>
<polygon fill="midnightblue" stroke="midnightblue" points="428.556,-95.0062 439.05,-96.4699 431.759,-88.782 428.556,-95.0062"/>
</g>
<!-- Node10 -->
<g id="node10" class="node"><title>Node10</title>
<g id="a_node10"><a xlink:href="../../dc/d4f/RootReaderTest_8cpp.html" target="_top" xlink:title="/home/travis/build\l/ComPWA/ComPWA/DataReader\l/RootReader/test/RootReaderTest.cpp">
<polygon fill="white" stroke="black" points="569.5,-6.5 569.5,-47.5 754.5,-47.5 754.5,-6.5 569.5,-6.5"/>
<text text-anchor="start" x="577.5" y="-35.5" font-family="Helvetica,sans-Serif" font-size="10.00">/home/travis/build</text>
<text text-anchor="start" x="577.5" y="-24.5" font-family="Helvetica,sans-Serif" font-size="10.00">/ComPWA/ComPWA/DataReader</text>
<text text-anchor="middle" x="662" y="-13.5" font-family="Helvetica,sans-Serif" font-size="10.00">/RootReader/test/RootReaderTest.cpp</text>
</a>
</g>
</g>
<!-- Node9&#45;&gt;Node10 -->
<g id="edge10" class="edge"><title>Node9&#45;&gt;Node10</title>
<path fill="none" stroke="midnightblue" d="M527.302,-92.0727C556.616,-78.1288 593.126,-60.7617 620.738,-47.6274"/>
<polygon fill="midnightblue" stroke="midnightblue" points="525.584,-89.0137 518.057,-96.4699 528.591,-95.335 525.584,-89.0137"/>
</g>
<!-- Node11 -->
<g id="node11" class="node"><title>Node11</title>
<g id="a_node11"><a xlink:href="../../d7/d56/HelicityAngle_8cpp.html" target="_top" xlink:title="/home/travis/build\l/ComPWA/ComPWA/Physics\l/HelicityFormalism/test\l/HelicityAngle.cpp">
<polygon fill="white" stroke="black" points="402.5,-1 402.5,-53 551.5,-53 551.5,-1 402.5,-1"/>
<text text-anchor="start" x="410.5" y="-41" font-family="Helvetica,sans-Serif" font-size="10.00">/home/travis/build</text>
<text text-anchor="start" x="410.5" y="-30" font-family="Helvetica,sans-Serif" font-size="10.00">/ComPWA/ComPWA/Physics</text>
<text text-anchor="start" x="410.5" y="-19" font-family="Helvetica,sans-Serif" font-size="10.00">/HelicityFormalism/test</text>
<text text-anchor="middle" x="477" y="-8" font-family="Helvetica,sans-Serif" font-size="10.00">/HelicityAngle.cpp</text>
</a>
</g>
</g>
<!-- Node9&#45;&gt;Node11 -->
<g id="edge13" class="edge"><title>Node9&#45;&gt;Node11</title>
<path fill="none" stroke="midnightblue" d="M477,-86.2552C477,-75.5059 477,-63.4841 477,-53.1657"/>
<polygon fill="midnightblue" stroke="midnightblue" points="473.5,-86.4699 477,-96.4699 480.5,-86.47 473.5,-86.4699"/>
</g>
<!-- Node9&#45;&gt;Node12 -->
<g id="edge14" class="edge"><title>Node9&#45;&gt;Node12</title>
<path fill="none" stroke="midnightblue" d="M545.893,-93.6839C550.648,-92.3705 555.384,-91.1274 560,-90 649.014,-68.26 674.145,-76.3793 763,-54 770.421,-52.1309 778.155,-49.9214 785.755,-47.5924"/>
<polygon fill="midnightblue" stroke="midnightblue" points="544.793,-90.3578 536.134,-96.4637 546.711,-97.09 544.793,-90.3578"/>
</g>
</g>
</svg>
