<?xml version="1.0" encoding="UTF-8" standalone="no"?>
<!DOCTYPE svg PUBLIC "-//W3C//DTD SVG 1.1//EN"
 "http://www.w3.org/Graphics/SVG/1.1/DTD/svg11.dtd">
<!-- Generated by graphviz version 2.26.3 (20100126.1600)
 -->
<!-- Title: G Pages: 1 -->
<svg width="709pt" height="262pt"
 viewBox="0.00 0.00 709.00 262.00" xmlns="http://www.w3.org/2000/svg" xmlns:xlink="http://www.w3.org/1999/xlink">
<g id="graph1" class="graph" transform="scale(1 1) rotate(0) translate(4 258)">
<title>G</title>
<polygon fill="white" stroke="white" points="-4,5 -4,-258 706,-258 706,5 -4,5"/>
<!-- Node1 -->
<g id="node1" class="node"><title>Node1</title>
<polygon fill="#bfbfbf" stroke="black" points="0,-232.5 0,-253.5 122,-253.5 122,-232.5 0,-232.5"/>
<text text-anchor="middle" x="61" y="-240.5" font-family="Helvetica,sans-Serif" font-size="10.00">Optimizer/Optimizer.hpp</text>
</g>
<!-- Node2 -->
<g id="node3" class="node"><title>Node2</title>
<polygon fill="white" stroke="#bfbfbf" points="53,-0.5 53,-21.5 97,-21.5 97,-0.5 53,-0.5"/>
<text text-anchor="middle" x="75" y="-8.5" font-family="Helvetica,sans-Serif" font-size="10.00">vector</text>
</g>
<!-- Node1&#45;&gt;Node2 -->
<g id="edge2" class="edge"><title>Node1&#45;&gt;Node2</title>
<path fill="none" stroke="midnightblue" d="M56.8699,-232.372C53.4523,-222.974 48.8667,-208.806 47,-196 38.1529,-135.308 30.7207,-117.133 47,-58 49.7108,-48.153 55.0846,-38.2859 60.4058,-30.1528"/>
<polygon fill="midnightblue" stroke="midnightblue" points="63.384,-32.0015 66.2467,-21.8007 57.6475,-27.9898 63.384,-32.0015"/>
</g>
<!-- Node3 -->
<g id="node5" class="node"><title>Node3</title>
<polygon fill="white" stroke="#bfbfbf" points="115,-0.5 115,-21.5 167,-21.5 167,-0.5 115,-0.5"/>
<text text-anchor="middle" x="141" y="-8.5" font-family="Helvetica,sans-Serif" font-size="10.00">memory</text>
</g>
<!-- Node1&#45;&gt;Node3 -->
<g id="edge4" class="edge"><title>Node1&#45;&gt;Node3</title>
<path fill="none" stroke="midnightblue" d="M64.6453,-232.429C77.0355,-196.497 117.664,-78.6742 134.053,-31.1453"/>
<polygon fill="midnightblue" stroke="midnightblue" points="137.382,-32.2282 137.333,-21.6335 130.764,-29.9463 137.382,-32.2282"/>
</g>
<!-- Node4 -->
<g id="node7" class="node"><title>Node4</title>
<a xlink:href="../../df/d9f/ParameterList_8hpp.xhtml" target="_top" xlink:title="This class provides a list of fit parameters which can have different types.">
<polygon fill="white" stroke="black" points="274,-174.5 274,-195.5 394,-195.5 394,-174.5 274,-174.5"/>
<text text-anchor="middle" x="334" y="-182.5" font-family="Helvetica,sans-Serif" font-size="10.00">Core/ParameterList.hpp</text>
</a>
</g>
<!-- Node1&#45;&gt;Node4 -->
<g id="edge6" class="edge"><title>Node1&#45;&gt;Node4</title>
<path fill="none" stroke="midnightblue" d="M110.438,-232.497C156.582,-222.693 225.508,-208.05 274.616,-197.616"/>
<polygon fill="midnightblue" stroke="midnightblue" points="275.415,-201.025 284.469,-195.523 273.96,-194.178 275.415,-201.025"/>
</g>
<!-- Node4&#45;&gt;Node2 -->
<g id="edge16" class="edge"><title>Node4&#45;&gt;Node2</title>
<path fill="none" stroke="midnightblue" d="M278.242,-174.428C249.651,-167.242 215.217,-155.737 188,-138 143.348,-108.902 105.463,-57.6597 87.0165,-29.9946"/>
<polygon fill="midnightblue" stroke="midnightblue" points="89.9219,-28.0424 81.5243,-21.5824 84.0605,-31.8693 89.9219,-28.0424"/>
</g>
<!-- Node4&#45;&gt;Node3 -->
<g id="edge12" class="edge"><title>Node4&#45;&gt;Node3</title>
<path fill="none" stroke="midnightblue" d="M300.049,-174.404C259.29,-159.867 191.945,-129.72 156,-80 145.927,-66.0665 142.389,-46.6903 141.249,-32.0169"/>
<polygon fill="midnightblue" stroke="midnightblue" points="144.738,-31.7068 140.776,-21.8808 137.746,-32.0331 144.738,-31.7068"/>
</g>
<!-- Node5 -->
<g id="node9" class="node"><title>Node5</title>
<polygon fill="white" stroke="#bfbfbf" points="343,-58.5 343,-79.5 397,-79.5 397,-58.5 343,-58.5"/>
<text text-anchor="middle" x="370" y="-66.5" font-family="Helvetica,sans-Serif" font-size="10.00">iostream</text>
</g>
<!-- Node4&#45;&gt;Node5 -->
<g id="edge8" class="edge"><title>Node4&#45;&gt;Node5</title>
<path fill="none" stroke="midnightblue" d="M337.322,-174.295C343.296,-155.045 355.945,-114.289 363.635,-89.5091"/>
<polygon fill="midnightblue" stroke="midnightblue" points="367.064,-90.2673 366.686,-79.6792 360.379,-88.1924 367.064,-90.2673"/>
</g>
<!-- Node6 -->
<g id="node11" class="node"><title>Node6</title>
<polygon fill="white" stroke="#bfbfbf" points="435.5,-0.5 435.5,-21.5 476.5,-21.5 476.5,-0.5 435.5,-0.5"/>
<text text-anchor="middle" x="456" y="-8.5" font-family="Helvetica,sans-Serif" font-size="10.00">string</text>
</g>
<!-- Node4&#45;&gt;Node6 -->
<g id="edge10" class="edge"><title>Node4&#45;&gt;Node6</title>
<path fill="none" stroke="midnightblue" d="M330.307,-174.296C322.943,-150.851 309.17,-94.1749 334,-58 344.663,-42.4647 392.812,-27.3109 425.338,-18.5784"/>
<polygon fill="midnightblue" stroke="midnightblue" points="426.493,-21.8939 435.281,-15.9765 424.721,-15.1219 426.493,-21.8939"/>
</g>
<!-- Node7 -->
<g id="node14" class="node"><title>Node7</title>
<polygon fill="white" stroke="#bfbfbf" points="523,-58.5 523,-79.5 575,-79.5 575,-58.5 523,-58.5"/>
<text text-anchor="middle" x="549" y="-66.5" font-family="Helvetica,sans-Serif" font-size="10.00">sstream</text>
</g>
<!-- Node4&#45;&gt;Node7 -->
<g id="edge14" class="edge"><title>Node4&#45;&gt;Node7</title>
<path fill="none" stroke="midnightblue" d="M394.211,-179.73C449.864,-173.491 526.768,-160.925 546,-138 557.038,-124.843 556.664,-104.808 554.192,-89.711"/>
<polygon fill="midnightblue" stroke="midnightblue" points="557.589,-88.8543 552.155,-79.7595 550.731,-90.2583 557.589,-88.8543"/>
</g>
<!-- Node8 -->
<g id="node17" class="node"><title>Node8</title>
<polygon fill="white" stroke="#bfbfbf" points="502.5,-116.5 502.5,-137.5 537.5,-137.5 537.5,-116.5 502.5,-116.5"/>
<text text-anchor="middle" x="520" y="-124.5" font-family="Helvetica,sans-Serif" font-size="10.00">map</text>
</g>
<!-- Node4&#45;&gt;Node8 -->
<g id="edge18" class="edge"><title>Node4&#45;&gt;Node8</title>
<path fill="none" stroke="midnightblue" d="M374.52,-174.478C404.949,-166.269 447.766,-154.068 492.837,-138.178"/>
<polygon fill="midnightblue" stroke="midnightblue" points="494.246,-141.392 502.485,-134.731 491.891,-134.8 494.246,-141.392"/>
</g>
<!-- Node9 -->
<g id="node19" class="node"><title>Node9</title>
<a xlink:href="../../d8/def/AbsParameter_8hpp.xhtml" target="_top" xlink:title="This class defines the internal container of a parameter.">
<polygon fill="white" stroke="black" points="165,-58.5 165,-79.5 287,-79.5 287,-58.5 165,-58.5"/>
<text text-anchor="middle" x="226" y="-66.5" font-family="Helvetica,sans-Serif" font-size="10.00">Core/AbsParameter.hpp</text>
</a>
</g>
<!-- Node4&#45;&gt;Node9 -->
<g id="edge20" class="edge"><title>Node4&#45;&gt;Node9</title>
<path fill="none" stroke="midnightblue" d="M324.033,-174.295C305.548,-154.441 265.764,-111.709 242.967,-87.2239"/>
<polygon fill="midnightblue" stroke="midnightblue" points="245.319,-84.6132 235.943,-79.6792 240.195,-89.3831 245.319,-84.6132"/>
</g>
<!-- Node12 -->
<g id="node28" class="node"><title>Node12</title>
<a xlink:href="../../db/dce/Parameter_8hpp.xhtml" target="_top" xlink:title="This class implements some internal container of parameters.">
<polygon fill="white" stroke="black" points="381,-116.5 381,-137.5 485,-137.5 485,-116.5 381,-116.5"/>
<text text-anchor="middle" x="433" y="-124.5" font-family="Helvetica,sans-Serif" font-size="10.00">Core/Parameter.hpp</text>
</a>
</g>
<!-- Node4&#45;&gt;Node12 -->
<g id="edge32" class="edge"><title>Node4&#45;&gt;Node12</title>
<path fill="none" stroke="midnightblue" d="M352.158,-174.362C367.23,-165.532 388.887,-152.844 405.993,-142.822"/>
<polygon fill="midnightblue" stroke="midnightblue" points="408.098,-145.646 414.957,-137.571 404.559,-139.606 408.098,-145.646"/>
</g>
<!-- Node14 -->
<g id="node36" class="node"><title>Node14</title>
<a xlink:href="../../d2/de9/Exceptions_8hpp.xhtml" target="_top" xlink:title="This class defines the ComPWA exception base&#45;class and provides a set of standard exceptions...">
<polygon fill="white" stroke="black" points="593,-58.5 593,-79.5 701,-79.5 701,-58.5 593,-58.5"/>
<text text-anchor="middle" x="647" y="-66.5" font-family="Helvetica,sans-Serif" font-size="10.00">Core/Exceptions.hpp</text>
</a>
</g>
<!-- Node4&#45;&gt;Node14 -->
<g id="edge50" class="edge"><title>Node4&#45;&gt;Node14</title>
<path fill="none" stroke="midnightblue" d="M394.208,-180.795C442.17,-175.576 509.99,-163.928 564,-138 590.038,-125.501 614.809,-103.04 630.401,-87.1439"/>
<polygon fill="midnightblue" stroke="midnightblue" points="633.306,-89.1692 637.676,-79.5173 628.241,-84.3377 633.306,-89.1692"/>
</g>
<!-- Node9&#45;&gt;Node2 -->
<g id="edge24" class="edge"><title>Node9&#45;&gt;Node2</title>
<path fill="none" stroke="midnightblue" d="M198.655,-58.4966C172.768,-48.5533 133.918,-33.6309 106.691,-23.1727"/>
<polygon fill="midnightblue" stroke="midnightblue" points="107.821,-19.8575 97.2311,-19.5391 105.311,-26.3921 107.821,-19.8575"/>
</g>
<!-- Node9&#45;&gt;Node3 -->
<g id="edge26" class="edge"><title>Node9&#45;&gt;Node3</title>
<path fill="none" stroke="midnightblue" d="M210.41,-58.3619C197.709,-49.6955 179.562,-37.3126 165.008,-27.3819"/>
<polygon fill="midnightblue" stroke="midnightblue" points="166.724,-24.316 156.491,-21.5707 162.779,-30.0982 166.724,-24.316"/>
</g>
<!-- Node9&#45;&gt;Node6 -->
<g id="edge22" class="edge"><title>Node9&#45;&gt;Node6</title>
<path fill="none" stroke="midnightblue" d="M267.651,-58.4966C313.142,-47.025 384.914,-28.926 425.461,-18.701"/>
<polygon fill="midnightblue" stroke="midnightblue" points="426.462,-22.0584 435.303,-16.2194 424.75,-15.2709 426.462,-22.0584"/>
</g>
<!-- Node10 -->
<g id="node24" class="node"><title>Node10</title>
<polygon fill="white" stroke="#bfbfbf" points="190,-0.5 190,-21.5 246,-21.5 246,-0.5 190,-0.5"/>
<text text-anchor="middle" x="218" y="-8.5" font-family="Helvetica,sans-Serif" font-size="10.00">algorithm</text>
</g>
<!-- Node9&#45;&gt;Node10 -->
<g id="edge28" class="edge"><title>Node9&#45;&gt;Node10</title>
<path fill="none" stroke="midnightblue" d="M224.533,-58.3619C223.506,-50.9219 222.102,-40.7427 220.859,-31.7276"/>
<polygon fill="midnightblue" stroke="midnightblue" points="224.292,-30.9986 219.458,-21.5707 217.357,-31.9551 224.292,-30.9986"/>
</g>
<!-- Node11 -->
<g id="node26" class="node"><title>Node11</title>
<a xlink:href="../../d9/d91/ParObserver_8hpp.xhtml" target="_top" xlink:title="For the use in the function tree, the observer pattern is used.">
<polygon fill="white" stroke="black" points="264,-0.5 264,-21.5 378,-21.5 378,-0.5 264,-0.5"/>
<text text-anchor="middle" x="321" y="-8.5" font-family="Helvetica,sans-Serif" font-size="10.00">Core/ParObserver.hpp</text>
</a>
</g>
<!-- Node9&#45;&gt;Node11 -->
<g id="edge30" class="edge"><title>Node9&#45;&gt;Node11</title>
<path fill="none" stroke="midnightblue" d="M243.424,-58.3619C257.887,-49.532 278.669,-36.844 295.084,-26.8224"/>
<polygon fill="midnightblue" stroke="midnightblue" points="296.975,-29.7688 303.686,-21.5707 293.327,-23.7943 296.975,-29.7688"/>
</g>
<!-- Node12&#45;&gt;Node5 -->
<g id="edge34" class="edge"><title>Node12&#45;&gt;Node5</title>
<path fill="none" stroke="midnightblue" d="M421.445,-116.362C412.387,-108.023 399.59,-96.2418 389.026,-86.5162"/>
<polygon fill="midnightblue" stroke="midnightblue" points="391.21,-83.7688 381.482,-79.5707 386.468,-88.9187 391.21,-83.7688"/>
</g>
<!-- Node12&#45;&gt;Node6 -->
<g id="edge36" class="edge"><title>Node12&#45;&gt;Node6</title>
<path fill="none" stroke="midnightblue" d="M447.179,-116.408C457.349,-107.861 470.234,-94.845 476,-80 482.311,-63.7527 475.772,-44.6818 468.531,-30.7119"/>
<polygon fill="midnightblue" stroke="midnightblue" points="471.538,-28.9192 463.556,-21.9527 465.451,-32.3766 471.538,-28.9192"/>
</g>
<!-- Node12&#45;&gt;Node7 -->
<g id="edge38" class="edge"><title>Node12&#45;&gt;Node7</title>
<path fill="none" stroke="midnightblue" d="M454.007,-116.497C472.043,-107.479 498.27,-94.3649 518.599,-84.2006"/>
<polygon fill="midnightblue" stroke="midnightblue" points="520.379,-87.2239 527.758,-79.6212 517.248,-80.9629 520.379,-87.2239"/>
</g>
<!-- Node12&#45;&gt;Node9 -->
<g id="edge42" class="edge"><title>Node12&#45;&gt;Node9</title>
<path fill="none" stroke="midnightblue" d="M395.514,-116.497C361.329,-106.918 310.654,-92.7196 273.616,-82.3418"/>
<polygon fill="midnightblue" stroke="midnightblue" points="274.13,-78.8509 263.556,-79.5231 272.241,-85.5914 274.13,-78.8509"/>
</g>
<!-- Node13 -->
<g id="node33" class="node"><title>Node13</title>
<polygon fill="white" stroke="#bfbfbf" points="414.5,-58.5 414.5,-79.5 467.5,-79.5 467.5,-58.5 414.5,-58.5"/>
<text text-anchor="middle" x="441" y="-66.5" font-family="Helvetica,sans-Serif" font-size="10.00">complex</text>
</g>
<!-- Node12&#45;&gt;Node13 -->
<g id="edge40" class="edge"><title>Node12&#45;&gt;Node13</title>
<path fill="none" stroke="midnightblue" d="M434.467,-116.362C435.494,-108.922 436.898,-98.7427 438.141,-89.7276"/>
<polygon fill="midnightblue" stroke="midnightblue" points="441.643,-89.9551 439.542,-79.5707 434.708,-88.9986 441.643,-89.9551"/>
</g>
<!-- Node12&#45;&gt;Node14 -->
<g id="edge44" class="edge"><title>Node12&#45;&gt;Node14</title>
<path fill="none" stroke="midnightblue" d="M471.754,-116.497C507.246,-106.877 559.931,-92.5981 598.264,-82.209"/>
<polygon fill="midnightblue" stroke="midnightblue" points="599.437,-85.5172 608.174,-79.5231 597.606,-78.7609 599.437,-85.5172"/>
</g>
<!-- Node14&#45;&gt;Node6 -->
<g id="edge48" class="edge"><title>Node14&#45;&gt;Node6</title>
<path fill="none" stroke="midnightblue" d="M612.411,-58.4966C576.462,-47.5801 520.749,-30.662 486.425,-20.239"/>
<polygon fill="midnightblue" stroke="midnightblue" points="487.09,-16.7833 476.505,-17.2266 485.056,-23.4813 487.09,-16.7833"/>
</g>
<!-- Node15 -->
<g id="node38" class="node"><title>Node15</title>
<polygon fill="white" stroke="#bfbfbf" points="617.5,-0.5 617.5,-21.5 676.5,-21.5 676.5,-0.5 617.5,-0.5"/>
<text text-anchor="middle" x="647" y="-8.5" font-family="Helvetica,sans-Serif" font-size="10.00">exception</text>
</g>
<!-- Node14&#45;&gt;Node15 -->
<g id="edge46" class="edge"><title>Node14&#45;&gt;Node15</title>
<path fill="none" stroke="midnightblue" d="M647,-58.3619C647,-50.9219 647,-40.7427 647,-31.7276"/>
<polygon fill="midnightblue" stroke="midnightblue" points="650.5,-31.5706 647,-21.5707 643.5,-31.5707 650.5,-31.5706"/>
</g>
</g>
</svg>
