<?xml version="1.0" encoding="UTF-8" standalone="no"?>
<!DOCTYPE svg PUBLIC "-//W3C//DTD SVG 1.1//EN"
 "http://www.w3.org/Graphics/SVG/1.1/DTD/svg11.dtd">
<!-- Generated by graphviz version 2.36.0 (20140111.2315)
 -->
<!-- Title: /home/travis/build/ComPWA/ComPWA/Physics/HelicityAmplitude/TopologyAmplitude.cpp Pages: 1 -->
<svg width="969pt" height="354pt"
 viewBox="0.00 0.00 969.15 354.00" xmlns="http://www.w3.org/2000/svg" xmlns:xlink="http://www.w3.org/1999/xlink">
<g id="graph0" class="graph" transform="scale(1 1) rotate(0) translate(4 350)">
<title>/home/travis/build/ComPWA/ComPWA/Physics/HelicityAmplitude/TopologyAmplitude.cpp</title>
<polygon fill="white" stroke="none" points="-4,4 -4,-350 965.149,-350 965.149,4 -4,4"/>
<!-- Node1 -->
<g id="node1" class="node"><title>Node1</title>
<polygon fill="#bfbfbf" stroke="black" points="383.649,-304.5 383.649,-345.5 584.649,-345.5 584.649,-304.5 383.649,-304.5"/>
<text text-anchor="start" x="391.649" y="-333.5" font-family="Helvetica,sans-Serif" font-size="10.00">/home/travis/build</text>
<text text-anchor="start" x="391.649" y="-322.5" font-family="Helvetica,sans-Serif" font-size="10.00">/ComPWA/ComPWA/Physics</text>
<text text-anchor="middle" x="484.149" y="-311.5" font-family="Helvetica,sans-Serif" font-size="10.00">/HelicityAmplitude/TopologyAmplitude.cpp</text>
</g>
<!-- Node2 -->
<g id="node2" class="node"><title>Node2</title>
<g id="a_node2"><a xlink:href="../../d8/dd4/DataPoint_8hpp.html" target="_top" xlink:title="dataPoint stores kinematic information of a dalitz plot ">
<polygon fill="white" stroke="black" points="220.649,-192.5 220.649,-211.5 323.649,-211.5 323.649,-192.5 220.649,-192.5"/>
<text text-anchor="middle" x="272.149" y="-199.5" font-family="Helvetica,sans-Serif" font-size="10.00">Core/DataPoint.hpp</text>
</a>
</g>
</g>
<!-- Node1&#45;&gt;Node2 -->
<g id="edge1" class="edge"><title>Node1&#45;&gt;Node2</title>
<path fill="none" stroke="midnightblue" d="M449.616,-304.29C406.35,-279.596 333.352,-237.932 295.891,-216.551"/>
<polygon fill="midnightblue" stroke="midnightblue" points="297.592,-213.492 287.172,-211.575 294.122,-219.572 297.592,-213.492"/>
</g>
<!-- Node15 -->
<g id="node15" class="node"><title>Node15</title>
<g id="a_node15"><a xlink:href="../../d7/ddb/TopologyAmplitude_8hpp.html" target="_top" xlink:title="TopologyAmplitude.hpp">
<polygon fill="white" stroke="black" points="502.649,-248.5 502.649,-267.5 621.649,-267.5 621.649,-248.5 502.649,-248.5"/>
<text text-anchor="middle" x="562.149" y="-255.5" font-family="Helvetica,sans-Serif" font-size="10.00">TopologyAmplitude.hpp</text>
</a>
</g>
</g>
<!-- Node1&#45;&gt;Node15 -->
<g id="edge24" class="edge"><title>Node1&#45;&gt;Node15</title>
<path fill="none" stroke="midnightblue" d="M507.551,-304.498C519.165,-294.82 532.989,-283.3 543.82,-274.274"/>
<polygon fill="midnightblue" stroke="midnightblue" points="546.324,-276.743 551.766,-267.652 541.843,-271.366 546.324,-276.743"/>
</g>
<!-- Node3 -->
<g id="node3" class="node"><title>Node3</title>
<polygon fill="white" stroke="#bfbfbf" points="19.6489,-130.5 19.6489,-149.5 64.6489,-149.5 64.6489,-130.5 19.6489,-130.5"/>
<text text-anchor="middle" x="42.1489" y="-137.5" font-family="Helvetica,sans-Serif" font-size="10.00">cstdlib</text>
</g>
<!-- Node2&#45;&gt;Node3 -->
<g id="edge2" class="edge"><title>Node2&#45;&gt;Node3</title>
<path fill="none" stroke="midnightblue" d="M226.372,-192.426C186.92,-184.54 128.671,-171.706 79.1489,-156 76.5143,-155.164 73.8028,-154.225 71.1022,-153.235"/>
<polygon fill="midnightblue" stroke="midnightblue" points="72.1154,-149.874 61.5265,-149.519 69.5827,-156.4 72.1154,-149.874"/>
</g>
<!-- Node4 -->
<g id="node4" class="node"><title>Node4</title>
<polygon fill="white" stroke="#bfbfbf" points="177.649,-130.5 177.649,-149.5 224.649,-149.5 224.649,-130.5 177.649,-130.5"/>
<text text-anchor="middle" x="201.149" y="-137.5" font-family="Helvetica,sans-Serif" font-size="10.00">math.h</text>
</g>
<!-- Node2&#45;&gt;Node4 -->
<g id="edge3" class="edge"><title>Node2&#45;&gt;Node4</title>
<path fill="none" stroke="midnightblue" d="M261.976,-192.403C250.799,-182.958 232.632,-167.606 219.058,-156.134"/>
<polygon fill="midnightblue" stroke="midnightblue" points="221.2,-153.362 211.303,-149.581 216.681,-158.709 221.2,-153.362"/>
</g>
<!-- Node5 -->
<g id="node5" class="node"><title>Node5</title>
<polygon fill="white" stroke="#bfbfbf" points="157.149,-0.5 157.149,-19.5 201.149,-19.5 201.149,-0.5 157.149,-0.5"/>
<text text-anchor="middle" x="179.149" y="-7.5" font-family="Helvetica,sans-Serif" font-size="10.00">vector</text>
</g>
<!-- Node2&#45;&gt;Node5 -->
<g id="edge4" class="edge"><title>Node2&#45;&gt;Node5</title>
<path fill="none" stroke="midnightblue" d="M243.313,-192.388C202.605,-178.342 130.828,-146.066 109.149,-88 104.174,-74.6761 102.334,-68.483 109.149,-56 117.44,-40.813 133.294,-29.9869 147.82,-22.7653"/>
<polygon fill="midnightblue" stroke="midnightblue" points="149.443,-25.8722 157.082,-18.5306 146.532,-19.5061 149.443,-25.8722"/>
</g>
<!-- Node6 -->
<g id="node6" class="node"><title>Node6</title>
<polygon fill="white" stroke="#bfbfbf" points="525.649,-0.5 525.649,-19.5 560.649,-19.5 560.649,-0.5 525.649,-0.5"/>
<text text-anchor="middle" x="543.149" y="-7.5" font-family="Helvetica,sans-Serif" font-size="10.00">map</text>
</g>
<!-- Node2&#45;&gt;Node6 -->
<g id="edge5" class="edge"><title>Node2&#45;&gt;Node6</title>
<path fill="none" stroke="midnightblue" d="M323.736,-198.348C419.245,-192.906 615.8,-179.019 636.149,-156 645.265,-145.688 652.98,-84.1092 635.149,-56 620.989,-33.6778 592.247,-22.1056 570.636,-16.326"/>
<polygon fill="midnightblue" stroke="midnightblue" points="571.236,-12.8706 560.694,-13.9323 569.597,-19.6761 571.236,-12.8706"/>
</g>
<!-- Node7 -->
<g id="node7" class="node"><title>Node7</title>
<g id="a_node7"><a xlink:href="../../d4/d37/Kinematics_8hpp.html" target="_top" xlink:title="Core/Kinematics.hpp">
<polygon fill="white" stroke="black" points="352.149,-130.5 352.149,-149.5 460.149,-149.5 460.149,-130.5 352.149,-130.5"/>
<text text-anchor="middle" x="406.149" y="-137.5" font-family="Helvetica,sans-Serif" font-size="10.00">Core/Kinematics.hpp</text>
</a>
</g>
</g>
<!-- Node2&#45;&gt;Node7 -->
<g id="edge6" class="edge"><title>Node2&#45;&gt;Node7</title>
<path fill="none" stroke="midnightblue" d="M291.348,-192.403C313.936,-182.29 351.648,-165.404 377.649,-153.761"/>
<polygon fill="midnightblue" stroke="midnightblue" points="379.289,-156.862 386.986,-149.581 376.428,-150.473 379.289,-156.862"/>
</g>
<!-- Node10 -->
<g id="node10" class="node"><title>Node10</title>
<g id="a_node10"><a xlink:href="../../df/d7d/Event_8hpp.html" target="_top" xlink:title="This class provides a internal container for event&#45;based information. ">
<polygon fill="white" stroke="red" points="248.649,-62.5 248.649,-81.5 333.649,-81.5 333.649,-62.5 248.649,-62.5"/>
<text text-anchor="middle" x="291.149" y="-69.5" font-family="Helvetica,sans-Serif" font-size="10.00">Core/Event.hpp</text>
</a>
</g>
</g>
<!-- Node2&#45;&gt;Node10 -->
<g id="edge23" class="edge"><title>Node2&#45;&gt;Node10</title>
<path fill="none" stroke="midnightblue" d="M273.455,-192.202C276.52,-171.551 284.231,-119.606 288.389,-91.5937"/>
<polygon fill="midnightblue" stroke="midnightblue" points="291.878,-91.928 289.884,-81.5224 284.953,-90.9001 291.878,-91.928"/>
</g>
<!-- Node13 -->
<g id="node13" class="node"><title>Node13</title>
<g id="a_node13"><a xlink:href="../../d8/d6f/Efficiency_8hpp.html" target="_top" xlink:title="Core/Efficiency.hpp">
<polygon fill="white" stroke="black" points="127.649,-62.5 127.649,-81.5 230.649,-81.5 230.649,-62.5 127.649,-62.5"/>
<text text-anchor="middle" x="179.149" y="-69.5" font-family="Helvetica,sans-Serif" font-size="10.00">Core/Efficiency.hpp</text>
</a>
</g>
</g>
<!-- Node2&#45;&gt;Node13 -->
<g id="edge19" class="edge"><title>Node2&#45;&gt;Node13</title>
<path fill="none" stroke="midnightblue" d="M268.923,-192.366C263.136,-177.518 250.004,-146.573 233.149,-124 223.189,-110.661 209.542,-97.8066 198.46,-88.3395"/>
<polygon fill="midnightblue" stroke="midnightblue" points="200.519,-85.5003 190.588,-81.8084 196.049,-90.8874 200.519,-85.5003"/>
</g>
<!-- Node7&#45;&gt;Node5 -->
<g id="edge7" class="edge"><title>Node7&#45;&gt;Node5</title>
<path fill="none" stroke="midnightblue" d="M351.915,-133.155C272.678,-124.063 133.014,-105.728 118.149,-88 109.011,-77.1018 111.738,-68.6955 118.149,-56 124.956,-42.5199 137.917,-32.083 150.147,-24.6696"/>
<polygon fill="midnightblue" stroke="midnightblue" points="152.219,-27.5214 159.243,-19.5896 148.805,-21.4099 152.219,-27.5214"/>
</g>
<!-- Node8 -->
<g id="node8" class="node"><title>Node8</title>
<polygon fill="white" stroke="#bfbfbf" points="459.649,-0.5 459.649,-19.5 500.649,-19.5 500.649,-0.5 459.649,-0.5"/>
<text text-anchor="middle" x="480.149" y="-7.5" font-family="Helvetica,sans-Serif" font-size="10.00">string</text>
</g>
<!-- Node7&#45;&gt;Node8 -->
<g id="edge8" class="edge"><title>Node7&#45;&gt;Node8</title>
<path fill="none" stroke="midnightblue" d="M444.939,-130.481C494.695,-119.165 575.635,-99.2953 584.149,-88 592.709,-76.6425 591.957,-67.8869 584.149,-56 575.635,-43.0397 538.171,-28.9773 510.639,-20.0846"/>
<polygon fill="midnightblue" stroke="midnightblue" points="511.607,-16.7199 501.017,-17.0538 509.504,-23.3966 511.607,-16.7199"/>
</g>
<!-- Node9 -->
<g id="node9" class="node"><title>Node9</title>
<polygon fill="white" stroke="#bfbfbf" points="708.649,-62.5 708.649,-81.5 761.649,-81.5 761.649,-62.5 708.649,-62.5"/>
<text text-anchor="middle" x="735.149" y="-69.5" font-family="Helvetica,sans-Serif" font-size="10.00">complex</text>
</g>
<!-- Node7&#45;&gt;Node9 -->
<g id="edge9" class="edge"><title>Node7&#45;&gt;Node9</title>
<path fill="none" stroke="midnightblue" d="M445.934,-130.499C456.106,-128.352 467.028,-126.069 477.149,-124 555.871,-107.904 648.282,-89.8373 698.36,-80.1155"/>
<polygon fill="midnightblue" stroke="midnightblue" points="699.233,-83.5115 708.384,-78.1714 697.9,-76.6396 699.233,-83.5115"/>
</g>
<!-- Node7&#45;&gt;Node10 -->
<g id="edge10" class="edge"><title>Node7&#45;&gt;Node10</title>
<path fill="none" stroke="midnightblue" d="M391.115,-130.372C371.744,-119.254 337.845,-99.7997 314.955,-86.6624"/>
<polygon fill="midnightblue" stroke="midnightblue" points="316.602,-83.5725 306.187,-81.6305 313.118,-89.6437 316.602,-83.5725"/>
</g>
<!-- Node12 -->
<g id="node12" class="node"><title>Node12</title>
<g id="a_node12"><a xlink:href="../../d4/d03/Utility_8hpp.html" target="_top" xlink:title="Basic structures for amplitude calculations. ">
<polygon fill="white" stroke="red" points="490.649,-62.5 490.649,-81.5 575.649,-81.5 575.649,-62.5 490.649,-62.5"/>
<text text-anchor="middle" x="533.149" y="-69.5" font-family="Helvetica,sans-Serif" font-size="10.00">Core/Utility.hpp</text>
</a>
</g>
</g>
<!-- Node7&#45;&gt;Node12 -->
<g id="edge14" class="edge"><title>Node7&#45;&gt;Node12</title>
<path fill="none" stroke="midnightblue" d="M422.752,-130.372C444.334,-119.156 482.247,-99.4532 507.53,-86.3136"/>
<polygon fill="midnightblue" stroke="midnightblue" points="509.282,-89.3475 516.542,-81.6305 506.054,-83.1362 509.282,-89.3475"/>
</g>
<!-- Node10&#45;&gt;Node5 -->
<g id="edge11" class="edge"><title>Node10&#45;&gt;Node5</title>
<path fill="none" stroke="midnightblue" d="M275.102,-62.4035C256.555,-52.4678 225.809,-35.9966 204.127,-24.3812"/>
<polygon fill="midnightblue" stroke="midnightblue" points="205.634,-21.2177 195.166,-19.5806 202.328,-27.388 205.634,-21.2177"/>
</g>
<!-- Node10&#45;&gt;Node8 -->
<g id="edge12" class="edge"><title>Node10&#45;&gt;Node8</title>
<path fill="none" stroke="midnightblue" d="M318.228,-62.4035C353.122,-51.3261 413.606,-32.1248 449.951,-20.5867"/>
<polygon fill="midnightblue" stroke="midnightblue" points="451.048,-23.9105 459.52,-17.5487 448.93,-17.2386 451.048,-23.9105"/>
</g>
<!-- Node11 -->
<g id="node11" class="node"><title>Node11</title>
<polygon fill="white" stroke="#bfbfbf" points="374.149,-0.5 374.149,-19.5 428.149,-19.5 428.149,-0.5 374.149,-0.5"/>
<text text-anchor="middle" x="401.149" y="-7.5" font-family="Helvetica,sans-Serif" font-size="10.00">iostream</text>
</g>
<!-- Node10&#45;&gt;Node11 -->
<g id="edge13" class="edge"><title>Node10&#45;&gt;Node11</title>
<path fill="none" stroke="midnightblue" d="M306.909,-62.4035C325.125,-52.4678 355.322,-35.9966 376.617,-24.3812"/>
<polygon fill="midnightblue" stroke="midnightblue" points="378.315,-27.4418 385.418,-19.5806 374.963,-21.2965 378.315,-27.4418"/>
</g>
<!-- Node12&#45;&gt;Node5 -->
<g id="edge17" class="edge"><title>Node12&#45;&gt;Node5</title>
<path fill="none" stroke="midnightblue" d="M505.543,-62.4253C497.419,-60.1093 488.476,-57.76 480.149,-56 368.596,-32.4216 338.617,-38.7272 226.149,-20 221.38,-19.206 216.351,-18.308 211.427,-17.3942"/>
<polygon fill="midnightblue" stroke="midnightblue" points="212.059,-13.9518 201.582,-15.5249 210.753,-20.8289 212.059,-13.9518"/>
</g>
<!-- Node12&#45;&gt;Node6 -->
<g id="edge16" class="edge"><title>Node12&#45;&gt;Node6</title>
<path fill="none" stroke="midnightblue" d="M534.582,-62.4035C536.007,-53.849 538.241,-40.4497 540.069,-29.4762"/>
<polygon fill="midnightblue" stroke="midnightblue" points="543.527,-30.02 541.719,-19.5806 536.622,-28.8691 543.527,-30.02"/>
</g>
<!-- Node12&#45;&gt;Node8 -->
<g id="edge15" class="edge"><title>Node12&#45;&gt;Node8</title>
<path fill="none" stroke="midnightblue" d="M525.555,-62.4035C517.448,-53.2252 504.414,-38.4699 494.386,-27.1173"/>
<polygon fill="midnightblue" stroke="midnightblue" points="496.972,-24.7582 487.728,-19.5806 491.726,-29.3925 496.972,-24.7582"/>
</g>
<!-- Node12&#45;&gt;Node11 -->
<g id="edge18" class="edge"><title>Node12&#45;&gt;Node11</title>
<path fill="none" stroke="midnightblue" d="M514.236,-62.4035C491.986,-52.2896 454.837,-35.4036 429.223,-23.761"/>
<polygon fill="midnightblue" stroke="midnightblue" points="430.578,-20.5324 420.026,-19.5806 427.682,-26.905 430.578,-20.5324"/>
</g>
<!-- Node13&#45;&gt;Node5 -->
<g id="edge21" class="edge"><title>Node13&#45;&gt;Node5</title>
<path fill="none" stroke="midnightblue" d="M179.149,-62.4035C179.149,-53.9381 179.149,-40.7283 179.149,-29.8199"/>
<polygon fill="midnightblue" stroke="midnightblue" points="182.649,-29.5806 179.149,-19.5806 175.649,-29.5806 182.649,-29.5806"/>
</g>
<!-- Node13&#45;&gt;Node11 -->
<g id="edge20" class="edge"><title>Node13&#45;&gt;Node11</title>
<path fill="none" stroke="midnightblue" d="M210.956,-62.4035C251.469,-51.454 321.35,-32.5674 364.187,-20.9896"/>
<polygon fill="midnightblue" stroke="midnightblue" points="365.199,-24.3418 373.939,-18.3539 363.373,-17.5843 365.199,-24.3418"/>
</g>
<!-- Node14 -->
<g id="node14" class="node"><title>Node14</title>
<g id="a_node14"><a xlink:href="../../da/db4/Logging_8hpp.html" target="_top" xlink:title="Core/Logging.hpp">
<polygon fill="white" stroke="red" points="235.649,-0.5 235.649,-19.5 328.649,-19.5 328.649,-0.5 235.649,-0.5"/>
<text text-anchor="middle" x="282.149" y="-7.5" font-family="Helvetica,sans-Serif" font-size="10.00">Core/Logging.hpp</text>
</a>
</g>
</g>
<!-- Node13&#45;&gt;Node14 -->
<g id="edge22" class="edge"><title>Node13&#45;&gt;Node14</title>
<path fill="none" stroke="midnightblue" d="M193.906,-62.4035C210.81,-52.5569 238.732,-36.2915 258.639,-24.6949"/>
<polygon fill="midnightblue" stroke="midnightblue" points="260.54,-27.6384 267.419,-19.5806 257.016,-21.5898 260.54,-27.6384"/>
</g>
<!-- Node15&#45;&gt;Node5 -->
<g id="edge25" class="edge"><title>Node15&#45;&gt;Node5</title>
<path fill="none" stroke="midnightblue" d="M502.433,-255.737C372.083,-251.544 68.9994,-233.488 10.1489,-156 -35.4782,-95.9232 86.6474,-43.1846 147.296,-21.5034"/>
<polygon fill="midnightblue" stroke="midnightblue" points="148.53,-24.7799 156.814,-18.1753 146.22,-18.1722 148.53,-24.7799"/>
</g>
<!-- Node16 -->
<g id="node16" class="node"><title>Node16</title>
<g id="a_node16"><a xlink:href="../../d8/dd9/TwoBodyDecayAmplitude_8hpp.html" target="_top" xlink:title="TwoBodyDecayAmplitude.hpp">
<polygon fill="white" stroke="black" points="536.649,-192.5 536.649,-211.5 685.649,-211.5 685.649,-192.5 536.649,-192.5"/>
<text text-anchor="middle" x="611.149" y="-199.5" font-family="Helvetica,sans-Serif" font-size="10.00">TwoBodyDecayAmplitude.hpp</text>
</a>
</g>
</g>
<!-- Node15&#45;&gt;Node16 -->
<g id="edge26" class="edge"><title>Node15&#45;&gt;Node16</title>
<path fill="none" stroke="midnightblue" d="M570.24,-248.083C577.304,-240.298 587.736,-228.801 596.298,-219.367"/>
<polygon fill="midnightblue" stroke="midnightblue" points="599.08,-221.509 603.208,-211.751 593.896,-216.805 599.08,-221.509"/>
</g>
<!-- Node19 -->
<g id="node19" class="node"><title>Node19</title>
<g id="a_node19"><a xlink:href="../../de/d02/AbstractDynamicalFunction_8hpp.html" target="_top" xlink:title="Physics/DynamicalDecayFunctions\l/AbstractDynamicalFunction.hpp">
<polygon fill="white" stroke="black" points="788.649,-125 788.649,-155 961.649,-155 961.649,-125 788.649,-125"/>
<text text-anchor="start" x="796.649" y="-143" font-family="Helvetica,sans-Serif" font-size="10.00">Physics/DynamicalDecayFunctions</text>
<text text-anchor="middle" x="875.149" y="-132" font-family="Helvetica,sans-Serif" font-size="10.00">/AbstractDynamicalFunction.hpp</text>
</a>
</g>
</g>
<!-- Node15&#45;&gt;Node19 -->
<g id="edge32" class="edge"><title>Node15&#45;&gt;Node19</title>
<path fill="none" stroke="midnightblue" d="M588.569,-248.384C615.306,-239.573 657.774,-225.327 694.149,-212 741.282,-194.732 794.734,-173.567 831.258,-158.86"/>
<polygon fill="midnightblue" stroke="midnightblue" points="832.664,-162.067 840.627,-155.079 830.044,-155.575 832.664,-162.067"/>
</g>
<!-- Node16&#45;&gt;Node9 -->
<g id="edge27" class="edge"><title>Node16&#45;&gt;Node9</title>
<path fill="none" stroke="midnightblue" d="M624.577,-192.228C637.067,-183.741 655.848,-170.119 670.149,-156 691.138,-135.277 711.46,-107.753 723.637,-90.2027"/>
<polygon fill="midnightblue" stroke="midnightblue" points="726.772,-91.8184 729.517,-81.5853 720.99,-87.8732 726.772,-91.8184"/>
</g>
<!-- Node17 -->
<g id="node17" class="node"><title>Node17</title>
<polygon fill="white" stroke="#bfbfbf" points="722.149,-130.5 722.149,-149.5 770.149,-149.5 770.149,-130.5 722.149,-130.5"/>
<text text-anchor="middle" x="746.149" y="-137.5" font-family="Helvetica,sans-Serif" font-size="10.00">qft++.h</text>
</g>
<!-- Node16&#45;&gt;Node17 -->
<g id="edge28" class="edge"><title>Node16&#45;&gt;Node17</title>
<path fill="none" stroke="midnightblue" d="M630.491,-192.403C653.247,-182.29 691.241,-165.404 717.437,-153.761"/>
<polygon fill="midnightblue" stroke="midnightblue" points="719.126,-156.84 726.843,-149.581 716.283,-150.444 719.126,-156.84"/>
</g>
<!-- Node18 -->
<g id="node18" class="node"><title>Node18</title>
<g id="a_node18"><a xlink:href="../../dd/db0/ParticleStateDefinitions_8hpp.html" target="_top" xlink:title="Physics/HelicityAmplitude\l/ParticleStateDefinitions.hpp">
<polygon fill="white" stroke="red" points="486.649,-125 486.649,-155 627.649,-155 627.649,-125 486.649,-125"/>
<text text-anchor="start" x="494.649" y="-143" font-family="Helvetica,sans-Serif" font-size="10.00">Physics/HelicityAmplitude</text>
<text text-anchor="middle" x="557.149" y="-132" font-family="Helvetica,sans-Serif" font-size="10.00">/ParticleStateDefinitions.hpp</text>
</a>
</g>
</g>
<!-- Node16&#45;&gt;Node18 -->
<g id="edge29" class="edge"><title>Node16&#45;&gt;Node18</title>
<path fill="none" stroke="midnightblue" d="M603.412,-192.403C596.44,-184.657 585.893,-172.938 576.629,-162.645"/>
<polygon fill="midnightblue" stroke="midnightblue" points="579.167,-160.232 569.876,-155.141 573.964,-164.915 579.167,-160.232"/>
</g>
<!-- Node18&#45;&gt;Node6 -->
<g id="edge30" class="edge"><title>Node18&#45;&gt;Node6</title>
<path fill="none" stroke="midnightblue" d="M582.981,-124.884C596.128,-116.158 610.843,-103.632 618.149,-88 624.171,-75.1157 625.156,-68.3762 618.149,-56 607.955,-37.9952 587.365,-26.4084 570.334,-19.5082"/>
<polygon fill="midnightblue" stroke="midnightblue" points="571.416,-16.1765 560.823,-15.974 568.978,-22.7381 571.416,-16.1765"/>
</g>
<!-- Node18&#45;&gt;Node12 -->
<g id="edge31" class="edge"><title>Node18&#45;&gt;Node12</title>
<path fill="none" stroke="midnightblue" d="M551.941,-124.679C548.384,-114.898 543.64,-101.852 539.809,-91.3148"/>
<polygon fill="midnightblue" stroke="midnightblue" points="543.066,-90.0301 536.359,-81.8283 536.487,-92.4224 543.066,-90.0301"/>
</g>
<!-- Node19&#45;&gt;Node9 -->
<g id="edge33" class="edge"><title>Node19&#45;&gt;Node9</title>
<path fill="none" stroke="midnightblue" d="M845.115,-124.841C820.682,-113.323 786.48,-97.1989 762.732,-86.0036"/>
<polygon fill="midnightblue" stroke="midnightblue" points="764.103,-82.7803 753.565,-81.6819 761.118,-89.112 764.103,-82.7803"/>
</g>
<!-- Node20 -->
<g id="node20" class="node"><title>Node20</title>
<polygon fill="white" stroke="#bfbfbf" points="824.649,-57 824.649,-87 925.649,-87 925.649,-57 824.649,-57"/>
<text text-anchor="start" x="832.649" y="-75" font-family="Helvetica,sans-Serif" font-size="10.00">boost/property_tree</text>
<text text-anchor="middle" x="875.149" y="-64" font-family="Helvetica,sans-Serif" font-size="10.00">/ptree_fwd.hpp</text>
</g>
<!-- Node19&#45;&gt;Node20 -->
<g id="edge34" class="edge"><title>Node19&#45;&gt;Node20</title>
<path fill="none" stroke="midnightblue" d="M875.149,-124.679C875.149,-116.722 875.149,-106.605 875.149,-97.4356"/>
<polygon fill="midnightblue" stroke="midnightblue" points="878.649,-97.293 875.149,-87.2931 871.649,-97.2931 878.649,-97.293"/>
</g>
<!-- Node21 -->
<g id="node21" class="node"><title>Node21</title>
<g id="a_node21"><a xlink:href="../../df/d9f/ParameterList_8hpp.html" target="_top" xlink:title="This class provides a list of fit parameters which can have different types. ">
<polygon fill="white" stroke="red" points="352.149,-62.5 352.149,-81.5 472.149,-81.5 472.149,-62.5 352.149,-62.5"/>
<text text-anchor="middle" x="412.149" y="-69.5" font-family="Helvetica,sans-Serif" font-size="10.00">Core/ParameterList.hpp</text>
</a>
</g>
</g>
<!-- Node19&#45;&gt;Node21 -->
<g id="edge35" class="edge"><title>Node19&#45;&gt;Node21</title>
<path fill="none" stroke="midnightblue" d="M788.562,-125.329C785.386,-124.873 782.24,-124.428 779.149,-124 647.003,-105.7 612.697,-110.194 481.149,-88 473.668,-86.7379 465.773,-85.2095 458.099,-83.6173"/>
<polygon fill="midnightblue" stroke="midnightblue" points="458.704,-80.1676 448.194,-81.5044 457.244,-87.0136 458.704,-80.1676"/>
</g>
<!-- Node21&#45;&gt;Node5 -->
<g id="edge38" class="edge"><title>Node21&#45;&gt;Node5</title>
<path fill="none" stroke="midnightblue" d="M378.766,-62.4035C334.032,-50.8841 255.183,-30.5796 211.16,-19.2432"/>
<polygon fill="midnightblue" stroke="midnightblue" points="211.836,-15.8031 201.279,-16.6987 210.09,-22.582 211.836,-15.8031"/>
</g>
<!-- Node21&#45;&gt;Node6 -->
<g id="edge39" class="edge"><title>Node21&#45;&gt;Node6</title>
<path fill="none" stroke="midnightblue" d="M430.918,-62.4035C453.251,-52.1746 490.708,-35.0189 516.15,-23.3661"/>
<polygon fill="midnightblue" stroke="midnightblue" points="517.621,-26.5417 525.256,-19.1954 514.706,-20.1775 517.621,-26.5417"/>
</g>
<!-- Node21&#45;&gt;Node8 -->
<g id="edge37" class="edge"><title>Node21&#45;&gt;Node8</title>
<path fill="none" stroke="midnightblue" d="M421.892,-62.4035C432.496,-53.047 449.668,-37.8948 462.628,-26.4599"/>
<polygon fill="midnightblue" stroke="midnightblue" points="465.241,-28.8213 470.424,-19.5806 460.61,-23.5724 465.241,-28.8213"/>
</g>
<!-- Node21&#45;&gt;Node11 -->
<g id="edge36" class="edge"><title>Node21&#45;&gt;Node11</title>
<path fill="none" stroke="midnightblue" d="M410.573,-62.4035C409.005,-53.849 406.548,-40.4497 404.536,-29.4762"/>
<polygon fill="midnightblue" stroke="midnightblue" points="407.968,-28.7855 402.722,-19.5806 401.083,-30.0478 407.968,-28.7855"/>
</g>
<!-- Node21&#45;&gt;Node14 -->
<g id="edge40" class="edge"><title>Node21&#45;&gt;Node14</title>
<path fill="none" stroke="midnightblue" d="M393.523,-62.4035C371.706,-52.3341 335.345,-35.5522 310.132,-23.9151"/>
<polygon fill="midnightblue" stroke="midnightblue" points="311.286,-20.5934 300.74,-19.5806 308.353,-26.9491 311.286,-20.5934"/>
</g>
</g>
</svg>
