<?xml version="1.0" encoding="UTF-8" standalone="no"?>
<!DOCTYPE svg PUBLIC "-//W3C//DTD SVG 1.1//EN"
 "http://www.w3.org/Graphics/SVG/1.1/DTD/svg11.dtd">
<!-- Generated by graphviz version 2.36.0 (20140111.2315)
 -->
<!-- Title: /home/travis/build/ComPWA/ComPWA/Physics/DecayDynamics/FormFactor.hpp Pages: 1 -->
<svg width="1082pt" height="398pt"
 viewBox="0.00 0.00 1082.45 398.00" xmlns="http://www.w3.org/2000/svg" xmlns:xlink="http://www.w3.org/1999/xlink">
<g id="graph0" class="graph" transform="scale(1 1) rotate(0) translate(4 394)">
<title>/home/travis/build/ComPWA/ComPWA/Physics/DecayDynamics/FormFactor.hpp</title>
<polygon fill="white" stroke="none" points="-4,4 -4,-394 1078.45,-394 1078.45,4 -4,4"/>
<!-- Node1 -->
<g id="node1" class="node"><title>Node1</title>
<polygon fill="#bfbfbf" stroke="black" points="383,-348.5 383,-389.5 547,-389.5 547,-348.5 383,-348.5"/>
<text text-anchor="start" x="391" y="-377.5" font-family="Helvetica,sans-Serif" font-size="10.00">/home/travis/build</text>
<text text-anchor="start" x="391" y="-366.5" font-family="Helvetica,sans-Serif" font-size="10.00">/ComPWA/ComPWA/Physics</text>
<text text-anchor="middle" x="465" y="-355.5" font-family="Helvetica,sans-Serif" font-size="10.00">/DecayDynamics/FormFactor.hpp</text>
</g>
<!-- Node2 -->
<g id="node2" class="node"><title>Node2</title>
<g id="a_node2"><a xlink:href="../../de/d02/AbstractDynamicalFunction_8hpp.html" target="_top" xlink:title="/home/travis/build\l/ComPWA/ComPWA/Physics\l/DecayDynamics/AbstractDynamical\lFunction.hpp">
<polygon fill="white" stroke="black" points="501.5,-259 501.5,-311 680.5,-311 680.5,-259 501.5,-259"/>
<text text-anchor="start" x="509.5" y="-299" font-family="Helvetica,sans-Serif" font-size="10.00">/home/travis/build</text>
<text text-anchor="start" x="509.5" y="-288" font-family="Helvetica,sans-Serif" font-size="10.00">/ComPWA/ComPWA/Physics</text>
<text text-anchor="start" x="509.5" y="-277" font-family="Helvetica,sans-Serif" font-size="10.00">/DecayDynamics/AbstractDynamical</text>
<text text-anchor="middle" x="591" y="-266" font-family="Helvetica,sans-Serif" font-size="10.00">Function.hpp</text>
</a>
</g>
</g>
<!-- Node1&#45;&gt;Node2 -->
<g id="edge1" class="edge"><title>Node1&#45;&gt;Node2</title>
<path fill="none" stroke="midnightblue" d="M503.967,-342.64C519.394,-332.601 537.082,-321.09 552.466,-311.078"/>
<polygon fill="midnightblue" stroke="midnightblue" points="501.652,-339.971 495.18,-348.359 505.471,-345.838 501.652,-339.971"/>
</g>
<!-- Node4 -->
<g id="node4" class="node"><title>Node4</title>
<g id="a_node4"><a xlink:href="../../dd/d65/AmpFlatteRes_8hpp.html" target="_top" xlink:title="/home/travis/build\l/ComPWA/ComPWA/Physics\l/DecayDynamics/AmpFlatteRes.hpp">
<polygon fill="white" stroke="black" points="115.5,-174.5 115.5,-215.5 292.5,-215.5 292.5,-174.5 115.5,-174.5"/>
<text text-anchor="start" x="123.5" y="-203.5" font-family="Helvetica,sans-Serif" font-size="10.00">/home/travis/build</text>
<text text-anchor="start" x="123.5" y="-192.5" font-family="Helvetica,sans-Serif" font-size="10.00">/ComPWA/ComPWA/Physics</text>
<text text-anchor="middle" x="204" y="-181.5" font-family="Helvetica,sans-Serif" font-size="10.00">/DecayDynamics/AmpFlatteRes.hpp</text>
</a>
</g>
</g>
<!-- Node1&#45;&gt;Node4 -->
<g id="edge21" class="edge"><title>Node1&#45;&gt;Node4</title>
<path fill="none" stroke="midnightblue" d="M426.956,-342.929C374.545,-308.39 281.228,-246.894 233.658,-215.545"/>
<polygon fill="midnightblue" stroke="midnightblue" points="425.038,-345.857 435.314,-348.437 428.89,-340.012 425.038,-345.857"/>
</g>
<!-- Node3 -->
<g id="node3" class="node"><title>Node3</title>
<g id="a_node3"><a xlink:href="../../dd/dd1/AbstractDynamicalFunction_8cpp.html" target="_top" xlink:title="/home/travis/build\l/ComPWA/ComPWA/Physics\l/DecayDynamics/AbstractDynamical\lFunction.cpp">
<polygon fill="white" stroke="black" points="696.5,-169 696.5,-221 875.5,-221 875.5,-169 696.5,-169"/>
<text text-anchor="start" x="704.5" y="-209" font-family="Helvetica,sans-Serif" font-size="10.00">/home/travis/build</text>
<text text-anchor="start" x="704.5" y="-198" font-family="Helvetica,sans-Serif" font-size="10.00">/ComPWA/ComPWA/Physics</text>
<text text-anchor="start" x="704.5" y="-187" font-family="Helvetica,sans-Serif" font-size="10.00">/DecayDynamics/AbstractDynamical</text>
<text text-anchor="middle" x="786" y="-176" font-family="Helvetica,sans-Serif" font-size="10.00">Function.cpp</text>
</a>
</g>
</g>
<!-- Node2&#45;&gt;Node3 -->
<g id="edge2" class="edge"><title>Node2&#45;&gt;Node3</title>
<path fill="none" stroke="midnightblue" d="M656.029,-254.654C680.097,-243.792 707.144,-231.586 730.308,-221.133"/>
<polygon fill="midnightblue" stroke="midnightblue" points="654.293,-251.597 646.618,-258.901 657.173,-257.977 654.293,-251.597"/>
</g>
<!-- Node2&#45;&gt;Node4 -->
<g id="edge3" class="edge"><title>Node2&#45;&gt;Node4</title>
<path fill="none" stroke="midnightblue" d="M491.311,-264.003C435.237,-252.426 364.038,-237.176 301,-222 292.61,-219.98 283.837,-217.769 275.144,-215.517"/>
<polygon fill="midnightblue" stroke="midnightblue" points="490.743,-267.459 501.243,-266.048 492.154,-260.603 490.743,-267.459"/>
</g>
<!-- Node7 -->
<g id="node7" class="node"><title>Node7</title>
<g id="a_node7"><a xlink:href="../../d3/d1f/HelicityFormalism_8hpp.html" target="_top" xlink:title="/home/travis/build\l/ComPWA/ComPWA/Physics\l/HelicityFormalism.hpp">
<polygon fill="white" stroke="red" points="513.5,-0.5 513.5,-41.5 662.5,-41.5 662.5,-0.5 513.5,-0.5"/>
<text text-anchor="start" x="521.5" y="-29.5" font-family="Helvetica,sans-Serif" font-size="10.00">/home/travis/build</text>
<text text-anchor="start" x="521.5" y="-18.5" font-family="Helvetica,sans-Serif" font-size="10.00">/ComPWA/ComPWA/Physics</text>
<text text-anchor="middle" x="588" y="-7.5" font-family="Helvetica,sans-Serif" font-size="10.00">/HelicityFormalism.hpp</text>
</a>
</g>
</g>
<!-- Node2&#45;&gt;Node7 -->
<g id="edge20" class="edge"><title>Node2&#45;&gt;Node7</title>
<path fill="none" stroke="midnightblue" d="M690.666,-277.943C822.896,-268.874 1042.58,-249.806 1067,-222 1086.61,-199.674 1061.18,-86.7777 1052,-78 1024.43,-51.6479 787.117,-33.7993 662.988,-26.1765"/>
<polygon fill="midnightblue" stroke="midnightblue" points="690.255,-274.463 680.515,-278.631 690.729,-281.447 690.255,-274.463"/>
</g>
<!-- Node8 -->
<g id="node8" class="node"><title>Node8</title>
<g id="a_node8"><a xlink:href="../../d4/db6/NonResonant_8hpp.html" target="_top" xlink:title="/home/travis/build\l/ComPWA/ComPWA/Physics\l/DecayDynamics/NonResonant.hpp">
<polygon fill="white" stroke="black" points="504,-174.5 504,-215.5 678,-215.5 678,-174.5 504,-174.5"/>
<text text-anchor="start" x="512" y="-203.5" font-family="Helvetica,sans-Serif" font-size="10.00">/home/travis/build</text>
<text text-anchor="start" x="512" y="-192.5" font-family="Helvetica,sans-Serif" font-size="10.00">/ComPWA/ComPWA/Physics</text>
<text text-anchor="middle" x="591" y="-181.5" font-family="Helvetica,sans-Serif" font-size="10.00">/DecayDynamics/NonResonant.hpp</text>
</a>
</g>
</g>
<!-- Node2&#45;&gt;Node8 -->
<g id="edge7" class="edge"><title>Node2&#45;&gt;Node8</title>
<path fill="none" stroke="midnightblue" d="M591,-248.515C591,-237.257 591,-225.227 591,-215.525"/>
<polygon fill="midnightblue" stroke="midnightblue" points="587.5,-248.547 591,-258.547 594.5,-248.547 587.5,-248.547"/>
</g>
<!-- Node10 -->
<g id="node10" class="node"><title>Node10</title>
<g id="a_node10"><a xlink:href="../../d6/da5/RelativisticBreitWigner_8hpp.html" target="_top" xlink:title="/home/travis/build\l/ComPWA/ComPWA/Physics\l/DecayDynamics/RelativisticBreit\lWigner.hpp">
<polygon fill="white" stroke="black" points="894,-169 894,-221 1058,-221 1058,-169 894,-169"/>
<text text-anchor="start" x="902" y="-209" font-family="Helvetica,sans-Serif" font-size="10.00">/home/travis/build</text>
<text text-anchor="start" x="902" y="-198" font-family="Helvetica,sans-Serif" font-size="10.00">/ComPWA/ComPWA/Physics</text>
<text text-anchor="start" x="902" y="-187" font-family="Helvetica,sans-Serif" font-size="10.00">/DecayDynamics/RelativisticBreit</text>
<text text-anchor="middle" x="976" y="-176" font-family="Helvetica,sans-Serif" font-size="10.00">Wigner.hpp</text>
</a>
</g>
</g>
<!-- Node2&#45;&gt;Node10 -->
<g id="edge11" class="edge"><title>Node2&#45;&gt;Node10</title>
<path fill="none" stroke="midnightblue" d="M690.857,-264.594C747.685,-253.12 820.07,-237.779 884,-222 887.223,-221.205 890.504,-220.375 893.814,-219.521"/>
<polygon fill="midnightblue" stroke="midnightblue" points="689.908,-261.215 680.794,-266.618 691.288,-268.077 689.908,-261.215"/>
</g>
<!-- Node12 -->
<g id="node12" class="node"><title>Node12</title>
<g id="a_node12"><a xlink:href="../../db/d49/PartialDecay_8hpp.html" target="_top" xlink:title="/home/travis/build\l/ComPWA/ComPWA/Physics\l/HelicityFormalism/PartialDecay.hpp">
<polygon fill="white" stroke="black" points="310,-174.5 310,-215.5 486,-215.5 486,-174.5 310,-174.5"/>
<text text-anchor="start" x="318" y="-203.5" font-family="Helvetica,sans-Serif" font-size="10.00">/home/travis/build</text>
<text text-anchor="start" x="318" y="-192.5" font-family="Helvetica,sans-Serif" font-size="10.00">/ComPWA/ComPWA/Physics</text>
<text text-anchor="middle" x="398" y="-181.5" font-family="Helvetica,sans-Serif" font-size="10.00">/HelicityFormalism/PartialDecay.hpp</text>
</a>
</g>
</g>
<!-- Node2&#45;&gt;Node12 -->
<g id="edge15" class="edge"><title>Node2&#45;&gt;Node12</title>
<path fill="none" stroke="midnightblue" d="M526.562,-254.619C498.358,-241.759 466.033,-227.02 440.851,-215.538"/>
<polygon fill="midnightblue" stroke="midnightblue" points="525.401,-257.936 535.952,-258.901 528.305,-251.567 525.401,-257.936"/>
</g>
<!-- Node5 -->
<g id="node5" class="node"><title>Node5</title>
<g id="a_node5"><a xlink:href="../../d2/d84/AmpFlatteRes_8cpp.html" target="_top" xlink:title="/home/travis/build\l/ComPWA/ComPWA/Physics\l/DecayDynamics/AmpFlatteRes.cpp">
<polygon fill="white" stroke="black" points="-0.5,-84.5 -0.5,-125.5 176.5,-125.5 176.5,-84.5 -0.5,-84.5"/>
<text text-anchor="start" x="7.5" y="-113.5" font-family="Helvetica,sans-Serif" font-size="10.00">/home/travis/build</text>
<text text-anchor="start" x="7.5" y="-102.5" font-family="Helvetica,sans-Serif" font-size="10.00">/ComPWA/ComPWA/Physics</text>
<text text-anchor="middle" x="88" y="-91.5" font-family="Helvetica,sans-Serif" font-size="10.00">/DecayDynamics/AmpFlatteRes.cpp</text>
</a>
</g>
</g>
<!-- Node4&#45;&gt;Node5 -->
<g id="edge4" class="edge"><title>Node4&#45;&gt;Node5</title>
<path fill="none" stroke="midnightblue" d="M169.835,-168.081C152.008,-154.558 130.546,-138.276 114.073,-125.78"/>
<polygon fill="midnightblue" stroke="midnightblue" points="168.174,-171.214 178.256,-174.47 172.404,-165.638 168.174,-171.214"/>
</g>
<!-- Node6 -->
<g id="node6" class="node"><title>Node6</title>
<g id="a_node6"><a xlink:href="../../df/d53/PartialDecay_8cpp.html" target="_top" xlink:title="/home/travis/build\l/ComPWA/ComPWA/Physics\l/HelicityFormalism/PartialDecay.cpp">
<polygon fill="white" stroke="black" points="436,-84.5 436,-125.5 612,-125.5 612,-84.5 436,-84.5"/>
<text text-anchor="start" x="444" y="-113.5" font-family="Helvetica,sans-Serif" font-size="10.00">/home/travis/build</text>
<text text-anchor="start" x="444" y="-102.5" font-family="Helvetica,sans-Serif" font-size="10.00">/ComPWA/ComPWA/Physics</text>
<text text-anchor="middle" x="524" y="-91.5" font-family="Helvetica,sans-Serif" font-size="10.00">/HelicityFormalism/PartialDecay.cpp</text>
</a>
</g>
</g>
<!-- Node4&#45;&gt;Node6 -->
<g id="edge5" class="edge"><title>Node4&#45;&gt;Node6</title>
<path fill="none" stroke="midnightblue" d="M284.835,-171.77C336.604,-157.534 403.154,-139.233 452.904,-125.551"/>
<polygon fill="midnightblue" stroke="midnightblue" points="283.732,-168.444 275.018,-174.47 285.589,-175.193 283.732,-168.444"/>
</g>
<!-- Node4&#45;&gt;Node7 -->
<g id="edge6" class="edge"><title>Node4&#45;&gt;Node7</title>
<path fill="none" stroke="midnightblue" d="M206.498,-164.175C210.399,-137.441 220.395,-99.2563 246,-78 285.638,-45.0942 425.286,-31.1535 513.403,-25.5295"/>
<polygon fill="midnightblue" stroke="midnightblue" points="203.018,-163.791 205.244,-174.15 209.964,-164.664 203.018,-163.791"/>
</g>
<!-- Node8&#45;&gt;Node6 -->
<g id="edge9" class="edge"><title>Node8&#45;&gt;Node6</title>
<path fill="none" stroke="midnightblue" d="M569.85,-166.221C559.849,-153.086 548.141,-137.708 539.06,-125.78"/>
<polygon fill="midnightblue" stroke="midnightblue" points="567.288,-168.634 576.131,-174.47 572.858,-164.393 567.288,-168.634"/>
</g>
<!-- Node8&#45;&gt;Node7 -->
<g id="edge10" class="edge"><title>Node8&#45;&gt;Node7</title>
<path fill="none" stroke="midnightblue" d="M672.813,-171.755C735.626,-154.583 811.864,-133.496 813,-132 827.51,-112.883 827.78,-96.9092 813,-78 794.439,-54.2529 720.602,-39.126 662.51,-30.6601"/>
<polygon fill="midnightblue" stroke="midnightblue" points="671.585,-168.463 662.861,-174.474 673.43,-175.215 671.585,-168.463"/>
</g>
<!-- Node9 -->
<g id="node9" class="node"><title>Node9</title>
<g id="a_node9"><a xlink:href="../../d4/df9/NonResonant_8cpp.html" target="_top" xlink:title="/home/travis/build\l/ComPWA/ComPWA/Physics\l/DecayDynamics/NonResonant.cpp">
<polygon fill="white" stroke="black" points="630,-84.5 630,-125.5 804,-125.5 804,-84.5 630,-84.5"/>
<text text-anchor="start" x="638" y="-113.5" font-family="Helvetica,sans-Serif" font-size="10.00">/home/travis/build</text>
<text text-anchor="start" x="638" y="-102.5" font-family="Helvetica,sans-Serif" font-size="10.00">/ComPWA/ComPWA/Physics</text>
<text text-anchor="middle" x="717" y="-91.5" font-family="Helvetica,sans-Serif" font-size="10.00">/DecayDynamics/NonResonant.cpp</text>
</a>
</g>
</g>
<!-- Node8&#45;&gt;Node9 -->
<g id="edge8" class="edge"><title>Node8&#45;&gt;Node9</title>
<path fill="none" stroke="midnightblue" d="M627.321,-168.633C646.837,-155.003 670.543,-138.446 688.679,-125.78"/>
<polygon fill="midnightblue" stroke="midnightblue" points="625.158,-165.875 618.963,-174.47 629.166,-171.613 625.158,-165.875"/>
</g>
<!-- Node10&#45;&gt;Node6 -->
<g id="edge13" class="edge"><title>Node10&#45;&gt;Node6</title>
<path fill="none" stroke="midnightblue" d="M884.305,-168.064C884.203,-168.042 884.102,-168.021 884,-168 768.509,-143.899 736.651,-155.319 621,-132 611.771,-130.139 602.119,-127.907 592.634,-125.542"/>
<polygon fill="midnightblue" stroke="midnightblue" points="883.362,-171.44 893.882,-170.18 884.873,-164.605 883.362,-171.44"/>
</g>
<!-- Node10&#45;&gt;Node7 -->
<g id="edge14" class="edge"><title>Node10&#45;&gt;Node7</title>
<path fill="none" stroke="midnightblue" d="M1014.08,-161.467C1021.79,-152.759 1028.81,-142.747 1033,-132 1041.72,-109.639 1048.88,-95.9989 1033,-78 1008.95,-50.7364 783.179,-33.449 662.792,-26.0913"/>
<polygon fill="midnightblue" stroke="midnightblue" points="1011.51,-159.097 1007.18,-168.77 1016.59,-163.903 1011.51,-159.097"/>
</g>
<!-- Node11 -->
<g id="node11" class="node"><title>Node11</title>
<g id="a_node11"><a xlink:href="../../d3/d67/RelativisticBreitWigner_8cpp.html" target="_top" xlink:title="/home/travis/build\l/ComPWA/ComPWA/Physics\l/DecayDynamics/RelativisticBreit\lWigner.cpp">
<polygon fill="white" stroke="black" points="860,-79 860,-131 1024,-131 1024,-79 860,-79"/>
<text text-anchor="start" x="868" y="-119" font-family="Helvetica,sans-Serif" font-size="10.00">/home/travis/build</text>
<text text-anchor="start" x="868" y="-108" font-family="Helvetica,sans-Serif" font-size="10.00">/ComPWA/ComPWA/Physics</text>
<text text-anchor="start" x="868" y="-97" font-family="Helvetica,sans-Serif" font-size="10.00">/DecayDynamics/RelativisticBreit</text>
<text text-anchor="middle" x="942" y="-86" font-family="Helvetica,sans-Serif" font-size="10.00">Wigner.cpp</text>
</a>
</g>
</g>
<!-- Node10&#45;&gt;Node11 -->
<g id="edge12" class="edge"><title>Node10&#45;&gt;Node11</title>
<path fill="none" stroke="midnightblue" d="M962.508,-159.081C958.894,-149.726 955.059,-139.799 951.695,-131.092"/>
<polygon fill="midnightblue" stroke="midnightblue" points="959.297,-160.48 966.166,-168.547 965.827,-157.957 959.297,-160.48"/>
</g>
<!-- Node12&#45;&gt;Node6 -->
<g id="edge16" class="edge"><title>Node12&#45;&gt;Node6</title>
<path fill="none" stroke="midnightblue" d="M434.321,-168.633C453.837,-155.003 477.543,-138.446 495.679,-125.78"/>
<polygon fill="midnightblue" stroke="midnightblue" points="432.158,-165.875 425.963,-174.47 436.166,-171.613 432.158,-165.875"/>
</g>
<!-- Node12&#45;&gt;Node7 -->
<g id="edge19" class="edge"><title>Node12&#45;&gt;Node7</title>
<path fill="none" stroke="midnightblue" d="M305.501,-170.082C287.505,-161.102 270.874,-148.807 260,-132 246.963,-111.85 244.523,-96.3431 260,-78 291.758,-40.3603 426.707,-28.0175 513.306,-23.9715"/>
<polygon fill="midnightblue" stroke="midnightblue" points="304.468,-173.46 315.013,-174.482 307.407,-167.107 304.468,-173.46"/>
</g>
<!-- Node13 -->
<g id="node13" class="node"><title>Node13</title>
<g id="a_node13"><a xlink:href="../../d5/df6/SequentialTwoBodyDecay_8hpp.html" target="_top" xlink:title="/home/travis/build\l/ComPWA/ComPWA/Physics\l/HelicityFormalism/Sequential\lTwoBodyDecay.hpp">
<polygon fill="white" stroke="red" points="269.5,-79 269.5,-131 418.5,-131 418.5,-79 269.5,-79"/>
<text text-anchor="start" x="277.5" y="-119" font-family="Helvetica,sans-Serif" font-size="10.00">/home/travis/build</text>
<text text-anchor="start" x="277.5" y="-108" font-family="Helvetica,sans-Serif" font-size="10.00">/ComPWA/ComPWA/Physics</text>
<text text-anchor="start" x="277.5" y="-97" font-family="Helvetica,sans-Serif" font-size="10.00">/HelicityFormalism/Sequential</text>
<text text-anchor="middle" x="344" y="-86" font-family="Helvetica,sans-Serif" font-size="10.00">TwoBodyDecay.hpp</text>
</a>
</g>
</g>
<!-- Node12&#45;&gt;Node13 -->
<g id="edge17" class="edge"><title>Node12&#45;&gt;Node13</title>
<path fill="none" stroke="midnightblue" d="M380.772,-165.924C373.923,-154.763 366.104,-142.022 359.443,-131.166"/>
<polygon fill="midnightblue" stroke="midnightblue" points="377.802,-167.777 386.016,-174.47 383.769,-164.116 377.802,-167.777"/>
</g>
<!-- Node13&#45;&gt;Node7 -->
<g id="edge18" class="edge"><title>Node13&#45;&gt;Node7</title>
<path fill="none" stroke="midnightblue" d="M428.311,-75.6659C461.779,-64.4186 499.443,-51.7611 529.784,-41.5645"/>
<polygon fill="midnightblue" stroke="midnightblue" points="426.898,-72.4484 418.534,-78.9517 429.128,-79.0838 426.898,-72.4484"/>
</g>
</g>
</svg>
