<?xml version="1.0" encoding="UTF-8" standalone="no"?>
<!DOCTYPE svg PUBLIC "-//W3C//DTD SVG 1.1//EN"
 "http://www.w3.org/Graphics/SVG/1.1/DTD/svg11.dtd">
<!-- Generated by graphviz version 2.26.3 (20100126.1600)
 -->
<!-- Title: G Pages: 1 -->
<svg width="1340pt" height="146pt"
 viewBox="0.00 0.00 1340.00 146.00" xmlns="http://www.w3.org/2000/svg" xmlns:xlink="http://www.w3.org/1999/xlink">
<g id="graph1" class="graph" transform="scale(1 1) rotate(0) translate(4 142)">
<title>G</title>
<polygon fill="white" stroke="white" points="-4,5 -4,-142 1337,-142 1337,5 -4,5"/>
<!-- Node1 -->
<g id="node1" class="node"><title>Node1</title>
<polygon fill="#bfbfbf" stroke="black" points="589.5,-116.5 589.5,-137.5 720.5,-137.5 720.5,-116.5 589.5,-116.5"/>
<text text-anchor="middle" x="655" y="-124.5" font-family="Helvetica,sans-Serif" font-size="10.00">Core/PWAGenericPar.hpp</text>
</g>
<!-- Node2 -->
<g id="node3" class="node"><title>Node2</title>
<a xlink:href="../../da/d90/PWAParameterList_8hpp.xhtml" target="_top" xlink:title="This class provides a list of fit parameters which can have different types.">
<polygon fill="white" stroke="black" points="57.5,-58.5 57.5,-79.5 200.5,-79.5 200.5,-58.5 57.5,-58.5"/>
<text text-anchor="middle" x="129" y="-66.5" font-family="Helvetica,sans-Serif" font-size="10.00">Core/PWAParameterList.hpp</text>
</a>
</g>
<!-- Node1&#45;&gt;Node2 -->
<g id="edge2" class="edge"><title>Node1&#45;&gt;Node2</title>
<path fill="none" stroke="midnightblue" d="M579.048,-119.43C491.123,-110.545 341.983,-95.0993 214,-80 209.715,-79.4944 205.309,-78.9622 200.866,-78.4159"/>
<polygon fill="midnightblue" stroke="midnightblue" points="578.898,-122.933 589.199,-120.454 579.601,-115.968 578.898,-122.933"/>
</g>
<!-- Node4 -->
<g id="node7" class="node"><title>Node4</title>
<a xlink:href="../../de/d58/ParameterTestApp_8cpp.xhtml" target="_top" xlink:title="Test&#45;Application of internal PWAParameter.">
<polygon fill="white" stroke="black" points="159.5,-0.5 159.5,-21.5 296.5,-21.5 296.5,-0.5 159.5,-0.5"/>
<text text-anchor="middle" x="228" y="-8.5" font-family="Helvetica,sans-Serif" font-size="10.00">test/ParameterTestApp.cpp</text>
</a>
</g>
<!-- Node1&#45;&gt;Node4 -->
<g id="edge18" class="edge"><title>Node1&#45;&gt;Node4</title>
<path fill="none" stroke="midnightblue" d="M579.176,-122.815C468.124,-116.008 271.679,-101.143 247,-80 229.921,-65.3682 227.495,-36.934 227.539,-21.5293"/>
<polygon fill="midnightblue" stroke="midnightblue" points="579.125,-126.318 589.319,-123.428 579.548,-119.331 579.125,-126.318"/>
</g>
<!-- Node5 -->
<g id="node9" class="node"><title>Node5</title>
<a xlink:href="../../da/d1c/BreitWigner_8cpp.xhtml" target="_top" xlink:title="Physics/BreitWigner/BreitWigner.cpp">
<polygon fill="white" stroke="black" points="255.5,-58.5 255.5,-79.5 434.5,-79.5 434.5,-58.5 255.5,-58.5"/>
<text text-anchor="middle" x="345" y="-66.5" font-family="Helvetica,sans-Serif" font-size="10.00">Physics/BreitWigner/BreitWigner.cpp</text>
</a>
</g>
<!-- Node1&#45;&gt;Node5 -->
<g id="edge8" class="edge"><title>Node1&#45;&gt;Node5</title>
<path fill="none" stroke="midnightblue" d="M588.724,-114.6C532.928,-104.161 454.005,-89.3945 401.244,-79.5231"/>
<polygon fill="midnightblue" stroke="midnightblue" points="588.388,-118.098 598.861,-116.497 589.676,-111.217 588.388,-118.098"/>
</g>
<!-- Node6 -->
<g id="node11" class="node"><title>Node6</title>
<a xlink:href="../../de/d2f/Physics_2RootGenerator_2GenDalitzApp_8cpp.xhtml" target="_top" xlink:title="Physics/RootGenerator/GenDalitzApp.cpp">
<polygon fill="white" stroke="black" points="451.5,-58.5 451.5,-79.5 652.5,-79.5 652.5,-58.5 451.5,-58.5"/>
<text text-anchor="middle" x="552" y="-66.5" font-family="Helvetica,sans-Serif" font-size="10.00">Physics/RootGenerator/GenDalitzApp.cpp</text>
</a>
</g>
<!-- Node1&#45;&gt;Node6 -->
<g id="edge10" class="edge"><title>Node1&#45;&gt;Node6</title>
<path fill="none" stroke="midnightblue" d="M627.259,-111.379C609.362,-101.301 586.563,-88.4624 570.772,-79.5707"/>
<polygon fill="midnightblue" stroke="midnightblue" points="625.677,-114.505 636.108,-116.362 629.112,-108.405 625.677,-114.505"/>
</g>
<!-- Node7 -->
<g id="node13" class="node"><title>Node7</title>
<a xlink:href="../../db/d6f/RootGen_8hpp.xhtml" target="_top" xlink:title="Class to generate 4&#45;Vectors.">
<polygon fill="white" stroke="black" points="669.5,-58.5 669.5,-79.5 848.5,-79.5 848.5,-58.5 669.5,-58.5"/>
<text text-anchor="middle" x="759" y="-66.5" font-family="Helvetica,sans-Serif" font-size="10.00">Physics/RootGenerator/RootGen.hpp</text>
</a>
</g>
<!-- Node1&#45;&gt;Node7 -->
<g id="edge12" class="edge"><title>Node1&#45;&gt;Node7</title>
<path fill="none" stroke="midnightblue" d="M683.01,-111.379C701.081,-101.301 724.102,-88.4624 740.046,-79.5707"/>
<polygon fill="midnightblue" stroke="midnightblue" points="681.104,-108.434 674.075,-116.362 684.514,-114.548 681.104,-108.434"/>
</g>
<!-- Node8 -->
<g id="node15" class="node"><title>Node8</title>
<a xlink:href="../../d0/d0c/IntegrationTestBinnedApp_8cpp.xhtml" target="_top" xlink:title="test/IntegrationTestBinnedApp.cpp">
<polygon fill="white" stroke="black" points="865.5,-58.5 865.5,-79.5 1032.5,-79.5 1032.5,-58.5 865.5,-58.5"/>
<text text-anchor="middle" x="949" y="-66.5" font-family="Helvetica,sans-Serif" font-size="10.00">test/IntegrationTestBinnedApp.cpp</text>
</a>
</g>
<!-- Node1&#45;&gt;Node8 -->
<g id="edge14" class="edge"><title>Node1&#45;&gt;Node8</title>
<path fill="none" stroke="midnightblue" d="M718.185,-114.535C771.082,-104.099 845.725,-89.374 895.659,-79.5231"/>
<polygon fill="midnightblue" stroke="midnightblue" points="717.375,-111.127 708.241,-116.497 718.73,-117.995 717.375,-111.127"/>
</g>
<!-- Node9 -->
<g id="node17" class="node"><title>Node9</title>
<a xlink:href="../../da/d21/MinuitTestApp_8cpp.xhtml" target="_top" xlink:title="Test&#45;Application of the Minuit2 Optimizer&#45;IF.">
<polygon fill="white" stroke="black" points="1050,-58.5 1050,-79.5 1168,-79.5 1168,-58.5 1050,-58.5"/>
<text text-anchor="middle" x="1109" y="-66.5" font-family="Helvetica,sans-Serif" font-size="10.00">test/MinuitTestApp.cpp</text>
</a>
</g>
<!-- Node1&#45;&gt;Node9 -->
<g id="edge16" class="edge"><title>Node1&#45;&gt;Node9</title>
<path fill="none" stroke="midnightblue" d="M730.876,-118.651C808.798,-109.868 933.532,-95.229 1041,-80 1043.84,-79.5973 1046.75,-79.1734 1049.68,-78.7359"/>
<polygon fill="midnightblue" stroke="midnightblue" points="730.216,-115.203 720.669,-119.798 730.998,-122.159 730.216,-115.203"/>
</g>
<!-- Node10 -->
<g id="node20" class="node"><title>Node10</title>
<a xlink:href="../../dd/d77/RunManagerTestApp_8cpp.xhtml" target="_top" xlink:title="Test&#45;Application for fit with simple modules using RunManager.">
<polygon fill="white" stroke="black" points="1185.5,-58.5 1185.5,-79.5 1332.5,-79.5 1332.5,-58.5 1185.5,-58.5"/>
<text text-anchor="middle" x="1259" y="-66.5" font-family="Helvetica,sans-Serif" font-size="10.00">test/RunManagerTestApp.cpp</text>
</a>
</g>
<!-- Node1&#45;&gt;Node10 -->
<g id="edge20" class="edge"><title>Node1&#45;&gt;Node10</title>
<path fill="none" stroke="midnightblue" d="M730.775,-121.218C832.437,-113.224 1018.55,-97.7531 1177,-80 1179.71,-79.6961 1182.47,-79.3768 1185.26,-79.0459"/>
<polygon fill="midnightblue" stroke="midnightblue" points="730.301,-117.745 720.605,-122.015 730.847,-124.723 730.301,-117.745"/>
</g>
<!-- Node3 -->
<g id="node5" class="node"><title>Node3</title>
<a xlink:href="../../de/d61/PWAParameterList_8cpp.xhtml" target="_top" xlink:title="Core/PWAParameterList.cpp">
<polygon fill="white" stroke="black" points="-0.5,-0.5 -0.5,-21.5 142.5,-21.5 142.5,-0.5 -0.5,-0.5"/>
<text text-anchor="middle" x="71" y="-8.5" font-family="Helvetica,sans-Serif" font-size="10.00">Core/PWAParameterList.cpp</text>
</a>
</g>
<!-- Node2&#45;&gt;Node3 -->
<g id="edge4" class="edge"><title>Node2&#45;&gt;Node3</title>
<path fill="none" stroke="midnightblue" d="M111.118,-51.118C101.438,-41.4377 89.8098,-29.8098 81.5707,-21.5707"/>
<polygon fill="midnightblue" stroke="midnightblue" points="108.816,-53.7657 118.362,-58.3619 113.766,-48.8159 108.816,-53.7657"/>
</g>
<!-- Node2&#45;&gt;Node4 -->
<g id="edge6" class="edge"><title>Node2&#45;&gt;Node4</title>
<path fill="none" stroke="midnightblue" d="M156.138,-53.1009C173.267,-43.0658 194.919,-30.3808 209.957,-21.5707"/>
<polygon fill="midnightblue" stroke="midnightblue" points="154.017,-50.287 147.158,-58.3619 157.556,-56.3268 154.017,-50.287"/>
</g>
</g>
</svg>
