<?xml version="1.0" encoding="UTF-8" standalone="no"?>
<!DOCTYPE svg PUBLIC "-//W3C//DTD SVG 1.1//EN"
 "http://www.w3.org/Graphics/SVG/1.1/DTD/svg11.dtd">
<!-- Generated by graphviz version 2.36.0 (20140111.2315)
 -->
<!-- Title: /home/travis/build/ComPWA/ComPWA/Physics/AmplitudeSum/NonResonant.hpp Pages: 1 -->
<svg width="1369pt" height="410pt"
 viewBox="0.00 0.00 1369.00 410.00" xmlns="http://www.w3.org/2000/svg" xmlns:xlink="http://www.w3.org/1999/xlink">
<g id="graph0" class="graph" transform="scale(1 1) rotate(0) translate(4 406)">
<title>/home/travis/build/ComPWA/ComPWA/Physics/AmplitudeSum/NonResonant.hpp</title>
<polygon fill="white" stroke="none" points="-4,4 -4,-406 1365,-406 1365,4 -4,4"/>
<!-- Node1 -->
<g id="node1" class="node"><title>Node1</title>
<polygon fill="#bfbfbf" stroke="black" points="578.5,-360.5 578.5,-401.5 743.5,-401.5 743.5,-360.5 578.5,-360.5"/>
<text text-anchor="start" x="586.5" y="-389.5" font-family="Helvetica,sans-Serif" font-size="10.00">/home/travis/build</text>
<text text-anchor="start" x="586.5" y="-378.5" font-family="Helvetica,sans-Serif" font-size="10.00">/ComPWA/ComPWA/Physics</text>
<text text-anchor="middle" x="661" y="-367.5" font-family="Helvetica,sans-Serif" font-size="10.00">/AmplitudeSum/NonResonant.hpp</text>
</g>
<!-- Node2 -->
<g id="node2" class="node"><title>Node2</title>
<g id="a_node2"><a xlink:href="../../d8/dd4/DataPoint_8hpp.html" target="_top" xlink:title="dataPoint stores kinematic information of a dalitz plot ">
<polygon fill="white" stroke="black" points="949.5,-168.5 949.5,-187.5 1052.5,-187.5 1052.5,-168.5 949.5,-168.5"/>
<text text-anchor="middle" x="1001" y="-175.5" font-family="Helvetica,sans-Serif" font-size="10.00">Core/DataPoint.hpp</text>
</a>
</g>
</g>
<!-- Node1&#45;&gt;Node2 -->
<g id="edge1" class="edge"><title>Node1&#45;&gt;Node2</title>
<path fill="none" stroke="midnightblue" d="M743.697,-369.961C817.183,-356.613 922.123,-325.912 983,-256 996.917,-240.017 1000.6,-215.31 1001.32,-198.213"/>
<polygon fill="midnightblue" stroke="midnightblue" points="1004.83,-197.833 1001.44,-187.792 997.827,-197.751 1004.83,-197.833"/>
</g>
<!-- Node14 -->
<g id="node14" class="node"><title>Node14</title>
<g id="a_node14"><a xlink:href="../../db/dce/Parameter_8hpp.html" target="_top" xlink:title="This class implements some internal container of parameters. ">
<polygon fill="white" stroke="black" points="318,-112.5 318,-131.5 422,-131.5 422,-112.5 318,-112.5"/>
<text text-anchor="middle" x="370" y="-119.5" font-family="Helvetica,sans-Serif" font-size="10.00">Core/Parameter.hpp</text>
</a>
</g>
</g>
<!-- Node1&#45;&gt;Node14 -->
<g id="edge19" class="edge"><title>Node1&#45;&gt;Node14</title>
<path fill="none" stroke="midnightblue" d="M586.536,-360.489C529.651,-342.097 452.942,-309.255 404,-256 374.66,-224.075 369.85,-170.353 369.523,-141.94"/>
<polygon fill="midnightblue" stroke="midnightblue" points="373.024,-141.783 369.591,-131.76 366.024,-141.737 373.024,-141.783"/>
</g>
<!-- Node20 -->
<g id="node20" class="node"><title>Node20</title>
<g id="a_node20"><a xlink:href="../../d3/d76/AmpAbsDynamicalFunction_8hpp.html" target="_top" xlink:title="Physics/AmplitudeSum\l/AmpAbsDynamicalFunction.hpp">
<polygon fill="white" stroke="black" points="581,-293 581,-323 741,-323 741,-293 581,-293"/>
<text text-anchor="start" x="589" y="-311" font-family="Helvetica,sans-Serif" font-size="10.00">Physics/AmplitudeSum</text>
<text text-anchor="middle" x="661" y="-300" font-family="Helvetica,sans-Serif" font-size="10.00">/AmpAbsDynamicalFunction.hpp</text>
</a>
</g>
</g>
<!-- Node1&#45;&gt;Node20 -->
<g id="edge32" class="edge"><title>Node1&#45;&gt;Node20</title>
<path fill="none" stroke="midnightblue" d="M661,-360.223C661,-351.821 661,-341.948 661,-333.123"/>
<polygon fill="midnightblue" stroke="midnightblue" points="664.5,-333.048 661,-323.049 657.5,-333.049 664.5,-333.048"/>
</g>
<!-- Node3 -->
<g id="node3" class="node"><title>Node3</title>
<polygon fill="white" stroke="#bfbfbf" points="1146.5,-112.5 1146.5,-131.5 1191.5,-131.5 1191.5,-112.5 1146.5,-112.5"/>
<text text-anchor="middle" x="1169" y="-119.5" font-family="Helvetica,sans-Serif" font-size="10.00">cstdlib</text>
</g>
<!-- Node2&#45;&gt;Node3 -->
<g id="edge2" class="edge"><title>Node2&#45;&gt;Node3</title>
<path fill="none" stroke="midnightblue" d="M1027.62,-168.444C1057.17,-158.944 1104.88,-143.609 1136.59,-133.418"/>
<polygon fill="midnightblue" stroke="midnightblue" points="1137.83,-136.696 1146.28,-130.304 1135.68,-130.032 1137.83,-136.696"/>
</g>
<!-- Node4 -->
<g id="node4" class="node"><title>Node4</title>
<polygon fill="white" stroke="#bfbfbf" points="1209.5,-112.5 1209.5,-131.5 1256.5,-131.5 1256.5,-112.5 1209.5,-112.5"/>
<text text-anchor="middle" x="1233" y="-119.5" font-family="Helvetica,sans-Serif" font-size="10.00">math.h</text>
</g>
<!-- Node2&#45;&gt;Node4 -->
<g id="edge3" class="edge"><title>Node2&#45;&gt;Node4</title>
<path fill="none" stroke="midnightblue" d="M1041.14,-168.464C1079.38,-160.213 1138.77,-147.085 1199.49,-132.044"/>
<polygon fill="midnightblue" stroke="midnightblue" points="1200.38,-135.428 1209.24,-129.614 1198.69,-128.635 1200.38,-135.428"/>
</g>
<!-- Node5 -->
<g id="node5" class="node"><title>Node5</title>
<polygon fill="white" stroke="#bfbfbf" points="1074,-0.5 1074,-19.5 1118,-19.5 1118,-0.5 1074,-0.5"/>
<text text-anchor="middle" x="1096" y="-7.5" font-family="Helvetica,sans-Serif" font-size="10.00">vector</text>
</g>
<!-- Node2&#45;&gt;Node5 -->
<g id="edge4" class="edge"><title>Node2&#45;&gt;Node5</title>
<path fill="none" stroke="midnightblue" d="M1052.74,-175.796C1121.76,-172.973 1238.39,-163.534 1265,-132 1310.32,-78.2988 1188.9,-36.2816 1128.19,-19.2463"/>
<polygon fill="midnightblue" stroke="midnightblue" points="1128.88,-15.8054 1118.31,-16.5432 1127.03,-22.5574 1128.88,-15.8054"/>
</g>
<!-- Node6 -->
<g id="node6" class="node"><title>Node6</title>
<polygon fill="white" stroke="#bfbfbf" points="692.5,-112.5 692.5,-131.5 727.5,-131.5 727.5,-112.5 692.5,-112.5"/>
<text text-anchor="middle" x="710" y="-119.5" font-family="Helvetica,sans-Serif" font-size="10.00">map</text>
</g>
<!-- Node2&#45;&gt;Node6 -->
<g id="edge5" class="edge"><title>Node2&#45;&gt;Node6</title>
<path fill="none" stroke="midnightblue" d="M949.414,-170.585C898.042,-163.667 816.841,-151.302 737.74,-131.835"/>
<polygon fill="midnightblue" stroke="midnightblue" points="738.155,-128.331 727.605,-129.298 736.456,-135.121 738.155,-128.331"/>
</g>
<!-- Node7 -->
<g id="node7" class="node"><title>Node7</title>
<g id="a_node7"><a xlink:href="../../d4/d37/Kinematics_8hpp.html" target="_top" xlink:title="Core/Kinematics.hpp">
<polygon fill="white" stroke="red" points="746,-112.5 746,-131.5 854,-131.5 854,-112.5 746,-112.5"/>
<text text-anchor="middle" x="800" y="-119.5" font-family="Helvetica,sans-Serif" font-size="10.00">Core/Kinematics.hpp</text>
</a>
</g>
</g>
<!-- Node2&#45;&gt;Node7 -->
<g id="edge6" class="edge"><title>Node2&#45;&gt;Node7</title>
<path fill="none" stroke="midnightblue" d="M969.151,-168.444C934.602,-159.162 879.318,-144.309 841.417,-134.127"/>
<polygon fill="midnightblue" stroke="midnightblue" points="842.266,-130.731 831.7,-131.516 840.449,-137.491 842.266,-130.731"/>
</g>
<!-- Node10 -->
<g id="node10" class="node"><title>Node10</title>
<g id="a_node10"><a xlink:href="../../df/d7d/Event_8hpp.html" target="_top" xlink:title="This class provides a internal container for event&#45;based information. ">
<polygon fill="white" stroke="red" points="738.5,-56.5 738.5,-75.5 823.5,-75.5 823.5,-56.5 738.5,-56.5"/>
<text text-anchor="middle" x="781" y="-63.5" font-family="Helvetica,sans-Serif" font-size="10.00">Core/Event.hpp</text>
</a>
</g>
</g>
<!-- Node2&#45;&gt;Node10 -->
<g id="edge18" class="edge"><title>Node2&#45;&gt;Node10</title>
<path fill="none" stroke="midnightblue" d="M983.737,-168.368C945.342,-149.171 852.684,-102.842 807.148,-80.074"/>
<polygon fill="midnightblue" stroke="midnightblue" points="808.692,-76.9331 798.183,-75.5914 805.562,-83.1941 808.692,-76.9331"/>
</g>
<!-- Node12 -->
<g id="node12" class="node"><title>Node12</title>
<g id="a_node12"><a xlink:href="../../d8/d6f/Efficiency_8hpp.html" target="_top" xlink:title="Core/Efficiency.hpp">
<polygon fill="white" stroke="black" points="948.5,-112.5 948.5,-131.5 1051.5,-131.5 1051.5,-112.5 948.5,-112.5"/>
<text text-anchor="middle" x="1000" y="-119.5" font-family="Helvetica,sans-Serif" font-size="10.00">Core/Efficiency.hpp</text>
</a>
</g>
</g>
<!-- Node2&#45;&gt;Node12 -->
<g id="edge14" class="edge"><title>Node2&#45;&gt;Node12</title>
<path fill="none" stroke="midnightblue" d="M1000.83,-168.083C1000.7,-161.006 1000.52,-150.861 1000.35,-141.986"/>
<polygon fill="midnightblue" stroke="midnightblue" points="1003.85,-141.685 1000.16,-131.751 996.848,-141.814 1003.85,-141.685"/>
</g>
<!-- Node7&#45;&gt;Node5 -->
<g id="edge7" class="edge"><title>Node7&#45;&gt;Node5</title>
<path fill="none" stroke="midnightblue" d="M830.138,-112.44C859.276,-103.947 904.54,-90.1832 943,-76 987.469,-59.601 1037.85,-37.4925 1068.25,-23.7486"/>
<polygon fill="midnightblue" stroke="midnightblue" points="1069.73,-26.9205 1077.39,-19.5981 1066.84,-20.5471 1069.73,-26.9205"/>
</g>
<!-- Node8 -->
<g id="node8" class="node"><title>Node8</title>
<polygon fill="white" stroke="#bfbfbf" points="528.5,-0.5 528.5,-19.5 569.5,-19.5 569.5,-0.5 528.5,-0.5"/>
<text text-anchor="middle" x="549" y="-7.5" font-family="Helvetica,sans-Serif" font-size="10.00">string</text>
</g>
<!-- Node7&#45;&gt;Node8 -->
<g id="edge8" class="edge"><title>Node7&#45;&gt;Node8</title>
<path fill="none" stroke="midnightblue" d="M786.586,-112.469C761.959,-96.8971 710.293,-64.6692 691,-56 654.024,-39.3853 609.091,-26.2459 579.808,-18.555"/>
<polygon fill="midnightblue" stroke="midnightblue" points="580.328,-15.0748 569.771,-15.9717 578.583,-21.8539 580.328,-15.0748"/>
</g>
<!-- Node9 -->
<g id="node9" class="node"><title>Node9</title>
<polygon fill="white" stroke="#bfbfbf" points="412.5,-56.5 412.5,-75.5 465.5,-75.5 465.5,-56.5 412.5,-56.5"/>
<text text-anchor="middle" x="439" y="-63.5" font-family="Helvetica,sans-Serif" font-size="10.00">complex</text>
</g>
<!-- Node7&#45;&gt;Node9 -->
<g id="edge9" class="edge"><title>Node7&#45;&gt;Node9</title>
<path fill="none" stroke="midnightblue" d="M745.955,-112.916C671.613,-101.795 539.757,-82.0717 475.813,-72.5067"/>
<polygon fill="midnightblue" stroke="midnightblue" points="476.195,-69.0249 465.787,-71.0069 475.159,-75.9479 476.195,-69.0249"/>
</g>
<!-- Node7&#45;&gt;Node10 -->
<g id="edge10" class="edge"><title>Node7&#45;&gt;Node10</title>
<path fill="none" stroke="midnightblue" d="M796.863,-112.083C794.317,-104.849 790.644,-94.4087 787.473,-85.3968"/>
<polygon fill="midnightblue" stroke="midnightblue" points="790.7,-84.0225 784.079,-75.7511 784.097,-86.3459 790.7,-84.0225"/>
</g>
<!-- Node10&#45;&gt;Node5 -->
<g id="edge11" class="edge"><title>Node10&#45;&gt;Node5</title>
<path fill="none" stroke="midnightblue" d="M823.573,-57.4679C826.425,-56.9693 829.254,-56.4764 832,-56 915.437,-41.5269 1013.78,-24.8697 1063.59,-16.4623"/>
<polygon fill="midnightblue" stroke="midnightblue" points="1064.46,-19.8641 1073.74,-14.749 1063.3,-12.9616 1064.46,-19.8641"/>
</g>
<!-- Node10&#45;&gt;Node8 -->
<g id="edge12" class="edge"><title>Node10&#45;&gt;Node8</title>
<path fill="none" stroke="midnightblue" d="M744.239,-56.4435C698.677,-45.8386 621.874,-27.962 579.448,-18.0871"/>
<polygon fill="midnightblue" stroke="midnightblue" points="580.225,-14.6744 569.692,-15.8162 578.638,-21.4922 580.225,-14.6744"/>
</g>
<!-- Node11 -->
<g id="node11" class="node"><title>Node11</title>
<polygon fill="white" stroke="#bfbfbf" points="644,-0.5 644,-19.5 698,-19.5 698,-0.5 644,-0.5"/>
<text text-anchor="middle" x="671" y="-7.5" font-family="Helvetica,sans-Serif" font-size="10.00">iostream</text>
</g>
<!-- Node10&#45;&gt;Node11 -->
<g id="edge13" class="edge"><title>Node10&#45;&gt;Node11</title>
<path fill="none" stroke="midnightblue" d="M763.327,-56.324C745.606,-47.6247 718.097,-34.1202 697.712,-24.113"/>
<polygon fill="midnightblue" stroke="midnightblue" points="699.149,-20.9195 688.63,-19.6545 696.064,-27.2031 699.149,-20.9195"/>
</g>
<!-- Node12&#45;&gt;Node5 -->
<g id="edge16" class="edge"><title>Node12&#45;&gt;Node5</title>
<path fill="none" stroke="midnightblue" d="M1012.22,-112.213C1023.56,-103.715 1040.5,-90.0863 1053,-76 1066.15,-61.1763 1078.33,-42.0403 1086.34,-28.3774"/>
<polygon fill="midnightblue" stroke="midnightblue" points="1089.47,-29.9546 1091.39,-19.5359 1083.39,-26.4809 1089.47,-29.9546"/>
</g>
<!-- Node12&#45;&gt;Node11 -->
<g id="edge15" class="edge"><title>Node12&#45;&gt;Node11</title>
<path fill="none" stroke="midnightblue" d="M995.018,-112.121C986.433,-97.7316 967.399,-69.5654 943,-56 903.373,-33.9683 773.43,-19.9004 708.551,-14.0752"/>
<polygon fill="midnightblue" stroke="midnightblue" points="708.615,-10.5675 698.347,-13.1791 708.003,-17.5406 708.615,-10.5675"/>
</g>
<!-- Node13 -->
<g id="node13" class="node"><title>Node13</title>
<g id="a_node13"><a xlink:href="../../da/db4/Logging_8hpp.html" target="_top" xlink:title="Core/Logging.hpp">
<polygon fill="white" stroke="red" points="841.5,-56.5 841.5,-75.5 934.5,-75.5 934.5,-56.5 841.5,-56.5"/>
<text text-anchor="middle" x="888" y="-63.5" font-family="Helvetica,sans-Serif" font-size="10.00">Core/Logging.hpp</text>
</a>
</g>
</g>
<!-- Node12&#45;&gt;Node13 -->
<g id="edge17" class="edge"><title>Node12&#45;&gt;Node13</title>
<path fill="none" stroke="midnightblue" d="M982.005,-112.324C963.962,-103.625 935.953,-90.1202 915.197,-80.113"/>
<polygon fill="midnightblue" stroke="midnightblue" points="916.478,-76.8449 905.95,-75.6545 913.438,-83.1502 916.478,-76.8449"/>
</g>
<!-- Node14&#45;&gt;Node8 -->
<g id="edge21" class="edge"><title>Node14&#45;&gt;Node8</title>
<path fill="none" stroke="midnightblue" d="M317.845,-121.184C239.917,-119.748 107.1,-109.682 155,-56 179.091,-29.0008 429.326,-15.9981 518.032,-12.2118"/>
<polygon fill="midnightblue" stroke="midnightblue" points="518.415,-15.699 528.261,-11.7858 518.124,-8.70505 518.415,-15.699"/>
</g>
<!-- Node14&#45;&gt;Node9 -->
<g id="edge23" class="edge"><title>Node14&#45;&gt;Node9</title>
<path fill="none" stroke="midnightblue" d="M381.086,-112.324C391.486,-104.185 407.261,-91.8395 419.722,-82.0874"/>
<polygon fill="midnightblue" stroke="midnightblue" points="421.994,-84.7533 427.712,-75.8339 417.68,-79.2407 421.994,-84.7533"/>
</g>
<!-- Node14&#45;&gt;Node11 -->
<g id="edge20" class="edge"><title>Node14&#45;&gt;Node11</title>
<path fill="none" stroke="midnightblue" d="M371.798,-112.204C375.206,-97.9356 384.031,-69.9383 403,-56 421.353,-42.5149 564.484,-23.7719 633.724,-15.3741"/>
<polygon fill="midnightblue" stroke="midnightblue" points="634.266,-18.8342 643.776,-14.1647 633.43,-11.8844 634.266,-18.8342"/>
</g>
<!-- Node14&#45;&gt;Node13 -->
<g id="edge31" class="edge"><title>Node14&#45;&gt;Node13</title>
<path fill="none" stroke="midnightblue" d="M422.083,-116.991C505.921,-110.303 676.217,-95.7583 831.102,-76.0379"/>
<polygon fill="midnightblue" stroke="midnightblue" points="831.808,-79.4761 841.281,-74.7315 830.916,-72.5331 831.808,-79.4761"/>
</g>
<!-- Node15 -->
<g id="node15" class="node"><title>Node15</title>
<polygon fill="white" stroke="#bfbfbf" points="164,-56.5 164,-75.5 216,-75.5 216,-56.5 164,-56.5"/>
<text text-anchor="middle" x="190" y="-63.5" font-family="Helvetica,sans-Serif" font-size="10.00">sstream</text>
</g>
<!-- Node14&#45;&gt;Node15 -->
<g id="edge22" class="edge"><title>Node14&#45;&gt;Node15</title>
<path fill="none" stroke="midnightblue" d="M341.478,-112.444C310.215,-103.064 259.993,-87.9978 226.03,-77.8089"/>
<polygon fill="midnightblue" stroke="midnightblue" points="226.634,-74.3363 216.05,-74.8151 224.623,-81.041 226.634,-74.3363"/>
</g>
<!-- Node16 -->
<g id="node16" class="node"><title>Node16</title>
<polygon fill="white" stroke="#bfbfbf" points="234.5,-56.5 234.5,-75.5 293.5,-75.5 293.5,-56.5 234.5,-56.5"/>
<text text-anchor="middle" x="264" y="-63.5" font-family="Helvetica,sans-Serif" font-size="10.00">stdexcept</text>
</g>
<!-- Node14&#45;&gt;Node16 -->
<g id="edge24" class="edge"><title>Node14&#45;&gt;Node16</title>
<path fill="none" stroke="midnightblue" d="M352.969,-112.324C335.97,-103.664 309.624,-90.2424 290.007,-80.249"/>
<polygon fill="midnightblue" stroke="midnightblue" points="291.488,-77.0752 280.988,-75.6545 288.31,-83.3125 291.488,-77.0752"/>
</g>
<!-- Node17 -->
<g id="node17" class="node"><title>Node17</title>
<polygon fill="white" stroke="#bfbfbf" points="312,-56.5 312,-75.5 356,-75.5 356,-56.5 312,-56.5"/>
<text text-anchor="middle" x="334" y="-63.5" font-family="Helvetica,sans-Serif" font-size="10.00">cmath</text>
</g>
<!-- Node14&#45;&gt;Node17 -->
<g id="edge25" class="edge"><title>Node14&#45;&gt;Node17</title>
<path fill="none" stroke="midnightblue" d="M364.055,-112.083C359.023,-104.534 351.663,-93.4948 345.487,-84.2298"/>
<polygon fill="midnightblue" stroke="midnightblue" points="348.293,-82.1301 339.834,-75.7511 342.469,-86.0131 348.293,-82.1301"/>
</g>
<!-- Node18 -->
<g id="node18" class="node"><title>Node18</title>
<g id="a_node18"><a xlink:href="../../d8/def/AbsParameter_8hpp.html" target="_top" xlink:title="This class defines the internal container of a parameter. ">
<polygon fill="white" stroke="red" points="560,-56.5 560,-75.5 682,-75.5 682,-56.5 560,-56.5"/>
<text text-anchor="middle" x="621" y="-63.5" font-family="Helvetica,sans-Serif" font-size="10.00">Core/AbsParameter.hpp</text>
</a>
</g>
</g>
<!-- Node14&#45;&gt;Node18 -->
<g id="edge26" class="edge"><title>Node14&#45;&gt;Node18</title>
<path fill="none" stroke="midnightblue" d="M409.772,-112.444C453.558,-103.023 524.014,-87.8656 571.38,-77.6752"/>
<polygon fill="midnightblue" stroke="midnightblue" points="572.374,-81.0415 581.414,-75.5164 570.902,-74.1981 572.374,-81.0415"/>
</g>
<!-- Node19 -->
<g id="node19" class="node"><title>Node19</title>
<g id="a_node19"><a xlink:href="../../d2/de9/Exceptions_8hpp.html" target="_top" xlink:title="This class defines the ComPWA exception base&#45;class and provides a set of standard exceptions...">
<polygon fill="white" stroke="red" points="0,-56.5 0,-75.5 108,-75.5 108,-56.5 0,-56.5"/>
<text text-anchor="middle" x="54" y="-63.5" font-family="Helvetica,sans-Serif" font-size="10.00">Core/Exceptions.hpp</text>
</a>
</g>
</g>
<!-- Node14&#45;&gt;Node19 -->
<g id="edge29" class="edge"><title>Node14&#45;&gt;Node19</title>
<path fill="none" stroke="midnightblue" d="M319.929,-112.444C263.994,-102.885 173.492,-87.4195 113.863,-77.2298"/>
<polygon fill="midnightblue" stroke="midnightblue" points="114.284,-73.751 103.837,-75.5164 113.104,-80.6509 114.284,-73.751"/>
</g>
<!-- Node18&#45;&gt;Node5 -->
<g id="edge28" class="edge"><title>Node18&#45;&gt;Node5</title>
<path fill="none" stroke="midnightblue" d="M682.126,-58.051C784.072,-46.4613 985.346,-23.5796 1063.71,-14.6711"/>
<polygon fill="midnightblue" stroke="midnightblue" points="1064.39,-18.1166 1073.93,-13.5094 1063.6,-11.1614 1064.39,-18.1166"/>
</g>
<!-- Node18&#45;&gt;Node8 -->
<g id="edge27" class="edge"><title>Node18&#45;&gt;Node8</title>
<path fill="none" stroke="midnightblue" d="M609.432,-56.324C598.58,-48.1849 582.119,-35.8395 569.117,-26.0874"/>
<polygon fill="midnightblue" stroke="midnightblue" points="570.879,-23.0339 560.779,-19.8339 566.679,-28.6339 570.879,-23.0339"/>
</g>
<!-- Node19&#45;&gt;Node8 -->
<g id="edge30" class="edge"><title>Node19&#45;&gt;Node8</title>
<path fill="none" stroke="midnightblue" d="M108.174,-57.6979C112.849,-57.1079 117.506,-56.5341 122,-56 270.207,-38.3858 447.782,-20.7976 518.128,-13.9694"/>
<polygon fill="midnightblue" stroke="midnightblue" points="518.479,-17.4518 528.095,-13.0043 517.804,-10.4844 518.479,-17.4518"/>
</g>
<!-- Node20&#45;&gt;Node2 -->
<g id="edge37" class="edge"><title>Node20&#45;&gt;Node2</title>
<path fill="none" stroke="midnightblue" d="M715.305,-292.994C743.658,-284.472 778.321,-272.102 807,-256 826.551,-245.023 826.163,-234.45 846,-224 876.515,-207.925 913.518,-196.906 943.716,-189.796"/>
<polygon fill="midnightblue" stroke="midnightblue" points="944.701,-193.161 953.677,-187.533 943.15,-186.335 944.701,-193.161"/>
</g>
<!-- Node20&#45;&gt;Node5 -->
<g id="edge33" class="edge"><title>Node20&#45;&gt;Node5</title>
<path fill="none" stroke="midnightblue" d="M741.299,-300.645C925.166,-285.016 1361,-241.389 1361,-179 1361,-179 1361,-179 1361,-121 1361,-21.2634 1198.9,-10.2504 1128.26,-10.1861"/>
<polygon fill="midnightblue" stroke="midnightblue" points="1128.11,-6.68687 1118.14,-10.2522 1128.16,-13.6867 1128.11,-6.68687"/>
</g>
<!-- Node20&#45;&gt;Node9 -->
<g id="edge34" class="edge"><title>Node20&#45;&gt;Node9</title>
<path fill="none" stroke="midnightblue" d="M580.819,-301.594C546.689,-295.259 509.058,-282.259 484,-256 438.418,-208.233 436.233,-123.01 437.73,-85.5412"/>
<polygon fill="midnightblue" stroke="midnightblue" points="441.226,-85.7142 438.269,-75.5403 434.236,-85.3376 441.226,-85.7142"/>
</g>
<!-- Node20&#45;&gt;Node14 -->
<g id="edge36" class="edge"><title>Node20&#45;&gt;Node14</title>
<path fill="none" stroke="midnightblue" d="M580.879,-305.493C534.307,-300.841 476.925,-288.193 436,-256 398.798,-226.736 381.008,-171.025 373.922,-141.863"/>
<polygon fill="midnightblue" stroke="midnightblue" points="377.262,-140.762 371.646,-131.778 370.434,-142.303 377.262,-140.762"/>
</g>
<!-- Node21 -->
<g id="node21" class="node"><title>Node21</title>
<polygon fill="white" stroke="#bfbfbf" points="493.5,-225 493.5,-255 594.5,-255 594.5,-225 493.5,-225"/>
<text text-anchor="start" x="501.5" y="-243" font-family="Helvetica,sans-Serif" font-size="10.00">boost/property_tree</text>
<text text-anchor="middle" x="544" y="-232" font-family="Helvetica,sans-Serif" font-size="10.00">/ptree.hpp</text>
</g>
<!-- Node20&#45;&gt;Node21 -->
<g id="edge35" class="edge"><title>Node20&#45;&gt;Node21</title>
<path fill="none" stroke="midnightblue" d="M635.901,-292.841C618.936,-283.272 596.335,-270.523 577.792,-260.062"/>
<polygon fill="midnightblue" stroke="midnightblue" points="579.487,-257 569.058,-255.135 576.048,-263.097 579.487,-257"/>
</g>
<!-- Node22 -->
<g id="node22" class="node"><title>Node22</title>
<g id="a_node22"><a xlink:href="../../da/db2/FunctionTree_8hpp.html" target="_top" xlink:title="This class can be used to store a function in a tree&#45;like structure. ">
<polygon fill="white" stroke="red" points="604,-168.5 604,-187.5 720,-187.5 720,-168.5 604,-168.5"/>
<text text-anchor="middle" x="662" y="-175.5" font-family="Helvetica,sans-Serif" font-size="10.00">Core/FunctionTree.hpp</text>
</a>
</g>
</g>
<!-- Node20&#45;&gt;Node22 -->
<g id="edge38" class="edge"><title>Node20&#45;&gt;Node22</title>
<path fill="none" stroke="midnightblue" d="M661.111,-292.813C661.292,-269.67 661.65,-223.785 661.852,-197.904"/>
<polygon fill="midnightblue" stroke="midnightblue" points="665.355,-197.601 661.933,-187.574 658.355,-197.546 665.355,-197.601"/>
</g>
<!-- Node23 -->
<g id="node23" class="node"><title>Node23</title>
<g id="a_node23"><a xlink:href="../../d8/d35/PhysConst_8hpp.html" target="_top" xlink:title="PhysConst provides particle information to the framework. ">
<polygon fill="white" stroke="red" points="478,-168.5 478,-187.5 586,-187.5 586,-168.5 478,-168.5"/>
<text text-anchor="middle" x="532" y="-175.5" font-family="Helvetica,sans-Serif" font-size="10.00">Core/PhysConst.hpp</text>
</a>
</g>
</g>
<!-- Node20&#45;&gt;Node23 -->
<g id="edge44" class="edge"><title>Node20&#45;&gt;Node23</title>
<path fill="none" stroke="midnightblue" d="M653.424,-292.804C643.525,-275.179 624.856,-244.894 603,-224 589.847,-211.426 572.663,-200.425 558.496,-192.448"/>
<polygon fill="midnightblue" stroke="midnightblue" points="560.15,-189.364 549.694,-187.657 556.803,-195.512 560.15,-189.364"/>
</g>
<!-- Node24 -->
<g id="node24" class="node"><title>Node24</title>
<g id="a_node24"><a xlink:href="../../d4/d62/Resonance_8hpp.html" target="_top" xlink:title="Core/Resonance.hpp">
<polygon fill="white" stroke="red" points="689.5,-230.5 689.5,-249.5 798.5,-249.5 798.5,-230.5 689.5,-230.5"/>
<text text-anchor="middle" x="744" y="-237.5" font-family="Helvetica,sans-Serif" font-size="10.00">Core/Resonance.hpp</text>
</a>
</g>
</g>
<!-- Node20&#45;&gt;Node24 -->
<g id="edge48" class="edge"><title>Node20&#45;&gt;Node24</title>
<path fill="none" stroke="midnightblue" d="M679.01,-292.679C692.592,-281.879 711.179,-267.098 724.998,-256.11"/>
<polygon fill="midnightblue" stroke="midnightblue" points="727.249,-258.792 732.898,-249.828 722.892,-253.313 727.249,-258.792"/>
</g>
<!-- Node25 -->
<g id="node25" class="node"><title>Node25</title>
<g id="a_node25"><a xlink:href="../../d0/d2a/AmpWigner2_8hpp.html" target="_top" xlink:title="Angular distribution based on WignerD functions. ">
<polygon fill="white" stroke="red" points="855.5,-225 855.5,-255 974.5,-255 974.5,-225 855.5,-225"/>
<text text-anchor="start" x="863.5" y="-243" font-family="Helvetica,sans-Serif" font-size="10.00">Physics/AmplitudeSum</text>
<text text-anchor="middle" x="915" y="-232" font-family="Helvetica,sans-Serif" font-size="10.00">/AmpWigner2.hpp</text>
</a>
</g>
</g>
<!-- Node20&#45;&gt;Node25 -->
<g id="edge54" class="edge"><title>Node20&#45;&gt;Node25</title>
<path fill="none" stroke="midnightblue" d="M715.178,-292.922C754.969,-282.583 809.164,-268.501 851.076,-257.61"/>
<polygon fill="midnightblue" stroke="midnightblue" points="852.107,-260.959 860.905,-255.056 850.347,-254.184 852.107,-260.959"/>
</g>
<!-- Node22&#45;&gt;Node5 -->
<g id="edge39" class="edge"><title>Node22&#45;&gt;Node5</title>
<path fill="none" stroke="midnightblue" d="M720.203,-173.94C824.428,-167.951 1034.48,-153.373 1060,-132 1090.29,-106.638 1095.77,-57.0038 1096.37,-29.8513"/>
<polygon fill="midnightblue" stroke="midnightblue" points="1099.87,-29.7316 1096.38,-19.7272 1092.87,-29.7227 1099.87,-29.7316"/>
</g>
<!-- Node22&#45;&gt;Node6 -->
<g id="edge41" class="edge"><title>Node22&#45;&gt;Node6</title>
<path fill="none" stroke="midnightblue" d="M669.926,-168.083C676.846,-160.298 687.065,-148.801 695.452,-139.367"/>
<polygon fill="midnightblue" stroke="midnightblue" points="698.194,-141.55 702.221,-131.751 692.962,-136.9 698.194,-141.55"/>
</g>
<!-- Node22&#45;&gt;Node8 -->
<g id="edge40" class="edge"><title>Node22&#45;&gt;Node8</title>
<path fill="none" stroke="midnightblue" d="M646.189,-168.348C620.684,-153.389 571.275,-120.016 551,-76 544.358,-61.5796 544.409,-43.3883 545.805,-29.9202"/>
<polygon fill="midnightblue" stroke="midnightblue" points="549.287,-30.2867 547.176,-19.9044 542.352,-29.3373 549.287,-30.2867"/>
</g>
<!-- Node22&#45;&gt;Node14 -->
<g id="edge43" class="edge"><title>Node22&#45;&gt;Node14</title>
<path fill="none" stroke="midnightblue" d="M615.732,-168.444C564.259,-158.925 481.107,-143.547 426.001,-133.356"/>
<polygon fill="midnightblue" stroke="midnightblue" points="426.522,-129.893 416.052,-131.516 425.249,-136.777 426.522,-129.893"/>
</g>
<!-- Node22&#45;&gt;Node18 -->
<g id="edge42" class="edge"><title>Node22&#45;&gt;Node18</title>
<path fill="none" stroke="midnightblue" d="M658.783,-168.368C652.136,-150.537 636.765,-109.295 627.81,-85.2717"/>
<polygon fill="midnightblue" stroke="midnightblue" points="630.974,-83.7393 624.202,-75.5914 624.415,-86.1841 630.974,-83.7393"/>
</g>
<!-- Node23&#45;&gt;Node5 -->
<g id="edge46" class="edge"><title>Node23&#45;&gt;Node5</title>
<path fill="none" stroke="midnightblue" d="M586.292,-169.215C589.237,-168.801 592.155,-168.394 595,-168 714.043,-151.502 747.78,-166.172 863,-132 918.655,-115.494 929.477,-102.744 981,-76 1013.38,-59.1923 1049.93,-38.1736 1072.96,-24.6678"/>
<polygon fill="midnightblue" stroke="midnightblue" points="1074.82,-27.6335 1081.66,-19.5439 1071.27,-21.6013 1074.82,-27.6335"/>
</g>
<!-- Node23&#45;&gt;Node11 -->
<g id="edge45" class="edge"><title>Node23&#45;&gt;Node11</title>
<path fill="none" stroke="midnightblue" d="M530.641,-168.213C527.8,-146.496 523.592,-89.6242 551,-56 571.256,-31.1493 606.727,-20.017 633.867,-15.033"/>
<polygon fill="midnightblue" stroke="midnightblue" points="634.508,-18.4749 643.812,-13.4081 633.379,-11.5665 634.508,-18.4749"/>
</g>
<!-- Node23&#45;&gt;Node14 -->
<g id="edge47" class="edge"><title>Node23&#45;&gt;Node14</title>
<path fill="none" stroke="midnightblue" d="M506.331,-168.444C479.077,-159.359 435.816,-144.939 405.349,-134.783"/>
<polygon fill="midnightblue" stroke="midnightblue" points="406.143,-131.358 395.549,-131.516 403.929,-137.999 406.143,-131.358"/>
</g>
<!-- Node24&#45;&gt;Node2 -->
<g id="edge52" class="edge"><title>Node24&#45;&gt;Node2</title>
<path fill="none" stroke="midnightblue" d="M780.549,-230.467C826.315,-219.783 904.759,-201.469 954.685,-189.813"/>
<polygon fill="midnightblue" stroke="midnightblue" points="955.635,-193.185 964.577,-187.503 954.043,-186.369 955.635,-193.185"/>
</g>
<!-- Node24&#45;&gt;Node5 -->
<g id="edge49" class="edge"><title>Node24&#45;&gt;Node5</title>
<path fill="none" stroke="midnightblue" d="M765.515,-230.41C801.341,-216.286 875.649,-187.759 940,-168 1002.24,-148.889 1032.19,-173.924 1082,-132 1109.21,-109.103 1111.25,-91.3032 1107,-56 1105.93,-47.1069 1103.71,-37.4344 1101.54,-29.344"/>
<polygon fill="midnightblue" stroke="midnightblue" points="1104.84,-28.1668 1098.73,-19.5139 1098.11,-30.0908 1104.84,-28.1668"/>
</g>
<!-- Node24&#45;&gt;Node14 -->
<g id="edge51" class="edge"><title>Node24&#45;&gt;Node14</title>
<path fill="none" stroke="midnightblue" d="M689.255,-235.262C632.444,-229.928 541.875,-217.291 469,-188 438.228,-175.632 406.932,-153.045 387.987,-138.027"/>
<polygon fill="midnightblue" stroke="midnightblue" points="390.174,-135.294 380.199,-131.723 385.77,-140.735 390.174,-135.294"/>
</g>
<!-- Node24&#45;&gt;Node18 -->
<g id="edge50" class="edge"><title>Node24&#45;&gt;Node18</title>
<path fill="none" stroke="midnightblue" d="M743.86,-230.447C743.261,-216.378 740.461,-187.927 728,-168 714.42,-146.284 701.882,-149.306 683,-132 665.863,-116.293 647.662,-96.8397 635.446,-83.3282"/>
<polygon fill="midnightblue" stroke="midnightblue" points="637.956,-80.884 628.677,-75.7699 632.741,-85.5541 637.956,-80.884"/>
</g>
<!-- Node24&#45;&gt;Node22 -->
<g id="edge53" class="edge"><title>Node24&#45;&gt;Node22</title>
<path fill="none" stroke="midnightblue" d="M732.251,-230.403C719.099,-220.78 697.566,-205.024 681.802,-193.489"/>
<polygon fill="midnightblue" stroke="midnightblue" points="683.864,-190.661 673.727,-187.581 679.73,-196.31 683.864,-190.661"/>
</g>
<!-- Node25&#45;&gt;Node2 -->
<g id="edge56" class="edge"><title>Node25&#45;&gt;Node2</title>
<path fill="none" stroke="midnightblue" d="M935.381,-224.781C948.99,-215.286 966.824,-202.843 980.465,-193.327"/>
<polygon fill="midnightblue" stroke="midnightblue" points="982.538,-196.148 988.737,-187.556 978.533,-190.407 982.538,-196.148"/>
</g>
<!-- Node25&#45;&gt;Node5 -->
<g id="edge55" class="edge"><title>Node25&#45;&gt;Node5</title>
<path fill="none" stroke="midnightblue" d="M974.545,-230.414C1068.9,-215.456 1245.9,-181.42 1283,-132 1301.07,-107.931 1270.25,-68.6257 1255,-56 1218.55,-25.8265 1163.07,-15.854 1128.21,-12.5773"/>
<polygon fill="midnightblue" stroke="midnightblue" points="1128.34,-9.07698 1118.09,-11.7603 1127.78,-16.0542 1128.34,-9.07698"/>
</g>
<!-- Node25&#45;&gt;Node22 -->
<g id="edge57" class="edge"><title>Node25&#45;&gt;Node22</title>
<path fill="none" stroke="midnightblue" d="M855.683,-224.933C810.482,-214.213 749.159,-199.67 707.72,-189.843"/>
<polygon fill="midnightblue" stroke="midnightblue" points="708.433,-186.415 697.895,-187.513 706.818,-193.226 708.433,-186.415"/>
</g>
</g>
</svg>
