<?xml version="1.0" encoding="UTF-8" standalone="no"?>
<!DOCTYPE svg PUBLIC "-//W3C//DTD SVG 1.1//EN"
 "http://www.w3.org/Graphics/SVG/1.1/DTD/svg11.dtd">
<!-- Generated by graphviz version 2.36.0 (20140111.2315)
 -->
<!-- Title: /home/travis/build/ComPWA/ComPWA/Optimizer/Minuit2/MinuitIF.hpp Pages: 1 -->
<svg width="2615pt" height="140pt"
 viewBox="0.00 0.00 2615.00 140.00" xmlns="http://www.w3.org/2000/svg" xmlns:xlink="http://www.w3.org/1999/xlink">
<g id="graph0" class="graph" transform="scale(1 1) rotate(0) translate(4 136)">
<title>/home/travis/build/ComPWA/ComPWA/Optimizer/Minuit2/MinuitIF.hpp</title>
<polygon fill="white" stroke="none" points="-4,4 -4,-136 2611,-136 2611,4 -4,4"/>
<!-- Node1 -->
<g id="node1" class="node"><title>Node1</title>
<polygon fill="#bfbfbf" stroke="black" points="1253,-90.5 1253,-131.5 1409,-131.5 1409,-90.5 1253,-90.5"/>
<text text-anchor="start" x="1261" y="-119.5" font-family="Helvetica,sans-Serif" font-size="10.00">/home/travis/build</text>
<text text-anchor="start" x="1261" y="-108.5" font-family="Helvetica,sans-Serif" font-size="10.00">/ComPWA/ComPWA/Optimizer</text>
<text text-anchor="middle" x="1331" y="-97.5" font-family="Helvetica,sans-Serif" font-size="10.00">/Minuit2/MinuitIF.hpp</text>
</g>
<!-- Node2 -->
<g id="node2" class="node"><title>Node2</title>
<g id="a_node2"><a xlink:href="../../de/dbe/BlackScholesApp_8cpp.html" target="_top" xlink:title="Test&#45;Application for Black&#45;Scholes stock model. ">
<polygon fill="white" stroke="black" points="-0.5,-6.5 -0.5,-47.5 166.5,-47.5 166.5,-6.5 -0.5,-6.5"/>
<text text-anchor="start" x="7.5" y="-35.5" font-family="Helvetica,sans-Serif" font-size="10.00">/home/travis/build</text>
<text text-anchor="start" x="7.5" y="-24.5" font-family="Helvetica,sans-Serif" font-size="10.00">/ComPWA/ComPWA/executables</text>
<text text-anchor="middle" x="83" y="-13.5" font-family="Helvetica,sans-Serif" font-size="10.00">/BlackScholesApp.cpp</text>
</a>
</g>
</g>
<!-- Node1&#45;&gt;Node2 -->
<g id="edge1" class="edge"><title>Node1&#45;&gt;Node2</title>
<path fill="none" stroke="midnightblue" d="M1242.46,-108.31C1008.93,-103.436 380.167,-87.5131 175,-54 165.172,-52.3946 154.897,-50.1135 144.924,-47.5616"/>
<polygon fill="midnightblue" stroke="midnightblue" points="1242.54,-111.812 1252.61,-108.52 1242.68,-104.814 1242.54,-111.812"/>
</g>
<!-- Node3 -->
<g id="node3" class="node"><title>Node3</title>
<g id="a_node3"><a xlink:href="../../d9/dab/CompareTreeAmpApp_8cpp.html" target="_top" xlink:title="/home/travis/build\l/ComPWA/ComPWA/executables\l/CompareTreeAmpApp.cpp">
<polygon fill="white" stroke="black" points="184.5,-6.5 184.5,-47.5 351.5,-47.5 351.5,-6.5 184.5,-6.5"/>
<text text-anchor="start" x="192.5" y="-35.5" font-family="Helvetica,sans-Serif" font-size="10.00">/home/travis/build</text>
<text text-anchor="start" x="192.5" y="-24.5" font-family="Helvetica,sans-Serif" font-size="10.00">/ComPWA/ComPWA/executables</text>
<text text-anchor="middle" x="268" y="-13.5" font-family="Helvetica,sans-Serif" font-size="10.00">/CompareTreeAmpApp.cpp</text>
</a>
</g>
</g>
<!-- Node1&#45;&gt;Node3 -->
<g id="edge2" class="edge"><title>Node1&#45;&gt;Node3</title>
<path fill="none" stroke="midnightblue" d="M1242.71,-107.37C1036.58,-100.831 528.362,-82.2972 360,-54 350.343,-52.3769 340.25,-50.1209 330.436,-47.61"/>
<polygon fill="midnightblue" stroke="midnightblue" points="1242.78,-110.874 1252.89,-107.691 1243,-103.877 1242.78,-110.874"/>
</g>
<!-- Node4 -->
<g id="node4" class="node"><title>Node4</title>
<g id="a_node4"><a xlink:href="../../db/d7b/DalitzFitD03K_8cpp.html" target="_top" xlink:title="/home/travis/build\l/ComPWA/ComPWA/executables\l/Examples/DalitzAnalysis\l_D0KsKK/DalitzFitD03K.cpp">
<polygon fill="white" stroke="black" points="369.5,-1 369.5,-53 536.5,-53 536.5,-1 369.5,-1"/>
<text text-anchor="start" x="377.5" y="-41" font-family="Helvetica,sans-Serif" font-size="10.00">/home/travis/build</text>
<text text-anchor="start" x="377.5" y="-30" font-family="Helvetica,sans-Serif" font-size="10.00">/ComPWA/ComPWA/executables</text>
<text text-anchor="start" x="377.5" y="-19" font-family="Helvetica,sans-Serif" font-size="10.00">/Examples/DalitzAnalysis</text>
<text text-anchor="middle" x="453" y="-8" font-family="Helvetica,sans-Serif" font-size="10.00">_D0KsKK/DalitzFitD03K.cpp</text>
</a>
</g>
</g>
<!-- Node1&#45;&gt;Node4 -->
<g id="edge3" class="edge"><title>Node1&#45;&gt;Node4</title>
<path fill="none" stroke="midnightblue" d="M1242.56,-109.562C1096.32,-107.532 795.364,-97.8216 545,-54 542.221,-53.5135 539.405,-52.977 536.569,-52.3992"/>
<polygon fill="midnightblue" stroke="midnightblue" points="1242.78,-113.065 1252.82,-109.696 1242.87,-106.066 1242.78,-113.065"/>
</g>
<!-- Node5 -->
<g id="node5" class="node"><title>Node5</title>
<g id="a_node5"><a xlink:href="../../da/d2a/DalitzFitApp_8cpp.html" target="_top" xlink:title="Dalitz plot analysis of the decay D0&#45;&gt;K_S0 K_ K&#45;Fit application for D0&#45;&gt;K_S0 K_ K&#45; analysis...">
<polygon fill="white" stroke="black" points="554.5,-6.5 554.5,-47.5 733.5,-47.5 733.5,-6.5 554.5,-6.5"/>
<text text-anchor="start" x="562.5" y="-35.5" font-family="Helvetica,sans-Serif" font-size="10.00">/home/travis/build</text>
<text text-anchor="start" x="562.5" y="-24.5" font-family="Helvetica,sans-Serif" font-size="10.00">/ComPWA/ComPWA/executables</text>
<text text-anchor="middle" x="644" y="-13.5" font-family="Helvetica,sans-Serif" font-size="10.00">/Examples/DalitzFit/DalitzFitApp.cpp</text>
</a>
</g>
</g>
<!-- Node1&#45;&gt;Node5 -->
<g id="edge4" class="edge"><title>Node1&#45;&gt;Node5</title>
<path fill="none" stroke="midnightblue" d="M1242.57,-106.134C1126.81,-100.038 917.934,-85.4808 742,-54 732.123,-52.2327 721.787,-49.9635 711.684,-47.5034"/>
<polygon fill="midnightblue" stroke="midnightblue" points="1242.63,-109.641 1252.79,-106.663 1242.99,-102.651 1242.63,-109.641"/>
</g>
<!-- Node6 -->
<g id="node6" class="node"><title>Node6</title>
<g id="a_node6"><a xlink:href="../../d6/d0a/PythonFit_8cpp.html" target="_top" xlink:title="/home/travis/build\l/ComPWA/ComPWA/executables\l/Examples/PythonDalitzFit\l/PythonFit.cpp">
<polygon fill="white" stroke="black" points="751.5,-1 751.5,-53 918.5,-53 918.5,-1 751.5,-1"/>
<text text-anchor="start" x="759.5" y="-41" font-family="Helvetica,sans-Serif" font-size="10.00">/home/travis/build</text>
<text text-anchor="start" x="759.5" y="-30" font-family="Helvetica,sans-Serif" font-size="10.00">/ComPWA/ComPWA/executables</text>
<text text-anchor="start" x="759.5" y="-19" font-family="Helvetica,sans-Serif" font-size="10.00">/Examples/PythonDalitzFit</text>
<text text-anchor="middle" x="835" y="-8" font-family="Helvetica,sans-Serif" font-size="10.00">/PythonFit.cpp</text>
</a>
</g>
</g>
<!-- Node1&#45;&gt;Node6 -->
<g id="edge5" class="edge"><title>Node1&#45;&gt;Node6</title>
<path fill="none" stroke="midnightblue" d="M1242.56,-101.288C1160.31,-92.3485 1034.61,-76.5521 927,-54 924.238,-53.4212 921.438,-52.8047 918.616,-52.1579"/>
<polygon fill="midnightblue" stroke="midnightblue" points="1242.31,-104.78 1252.62,-102.371 1243.06,-97.8205 1242.31,-104.78"/>
</g>
<!-- Node7 -->
<g id="node7" class="node"><title>Node7</title>
<g id="a_node7"><a xlink:href="../../d6/d9a/SliceFitApp_8cpp.html" target="_top" xlink:title="/home/travis/build\l/ComPWA/ComPWA/executables\l/Examples/SliceFit/SliceFitApp.cpp">
<polygon fill="white" stroke="black" points="936.5,-6.5 936.5,-47.5 1107.5,-47.5 1107.5,-6.5 936.5,-6.5"/>
<text text-anchor="start" x="944.5" y="-35.5" font-family="Helvetica,sans-Serif" font-size="10.00">/home/travis/build</text>
<text text-anchor="start" x="944.5" y="-24.5" font-family="Helvetica,sans-Serif" font-size="10.00">/ComPWA/ComPWA/executables</text>
<text text-anchor="middle" x="1022" y="-13.5" font-family="Helvetica,sans-Serif" font-size="10.00">/Examples/SliceFit/SliceFitApp.cpp</text>
</a>
</g>
</g>
<!-- Node1&#45;&gt;Node7 -->
<g id="edge6" class="edge"><title>Node1&#45;&gt;Node7</title>
<path fill="none" stroke="midnightblue" d="M1245.4,-87.8337C1206.23,-77.6313 1159.24,-65.3056 1117,-54 1109.24,-51.9219 1101.12,-49.7305 1093.05,-47.5374"/>
<polygon fill="midnightblue" stroke="midnightblue" points="1244.62,-91.2478 1255.18,-90.3799 1246.38,-84.4736 1244.62,-91.2478"/>
</g>
<!-- Node8 -->
<g id="node8" class="node"><title>Node8</title>
<g id="a_node8"><a xlink:href="../../d3/dbc/SliceFitRANDApp_8cpp.html" target="_top" xlink:title="/home/travis/build\l/ComPWA/ComPWA/executables\l/Examples/SliceFit/SliceFitRANDApp.cpp">
<polygon fill="white" stroke="black" points="1126,-6.5 1126,-47.5 1326,-47.5 1326,-6.5 1126,-6.5"/>
<text text-anchor="start" x="1134" y="-35.5" font-family="Helvetica,sans-Serif" font-size="10.00">/home/travis/build</text>
<text text-anchor="start" x="1134" y="-24.5" font-family="Helvetica,sans-Serif" font-size="10.00">/ComPWA/ComPWA/executables</text>
<text text-anchor="middle" x="1226" y="-13.5" font-family="Helvetica,sans-Serif" font-size="10.00">/Examples/SliceFit/SliceFitRANDApp.cpp</text>
</a>
</g>
</g>
<!-- Node1&#45;&gt;Node8 -->
<g id="edge7" class="edge"><title>Node1&#45;&gt;Node8</title>
<path fill="none" stroke="midnightblue" d="M1297.79,-84.0615C1282.75,-72.318 1265.26,-58.6599 1251.31,-47.765"/>
<polygon fill="midnightblue" stroke="midnightblue" points="1295.81,-86.9624 1305.85,-90.359 1300.12,-81.4454 1295.81,-86.9624"/>
</g>
<!-- Node9 -->
<g id="node9" class="node"><title>Node9</title>
<g id="a_node9"><a xlink:href="../../d9/de4/SliceFitUBApp_8cpp.html" target="_top" xlink:title="/home/travis/build\l/ComPWA/ComPWA/executables\l/Examples/SliceFit/SliceFitUBApp.cpp">
<polygon fill="white" stroke="black" points="1344.5,-6.5 1344.5,-47.5 1529.5,-47.5 1529.5,-6.5 1344.5,-6.5"/>
<text text-anchor="start" x="1352.5" y="-35.5" font-family="Helvetica,sans-Serif" font-size="10.00">/home/travis/build</text>
<text text-anchor="start" x="1352.5" y="-24.5" font-family="Helvetica,sans-Serif" font-size="10.00">/ComPWA/ComPWA/executables</text>
<text text-anchor="middle" x="1437" y="-13.5" font-family="Helvetica,sans-Serif" font-size="10.00">/Examples/SliceFit/SliceFitUBApp.cpp</text>
</a>
</g>
</g>
<!-- Node1&#45;&gt;Node9 -->
<g id="edge8" class="edge"><title>Node1&#45;&gt;Node9</title>
<path fill="none" stroke="midnightblue" d="M1364.53,-84.0615C1379.71,-72.318 1397.37,-58.6599 1411.45,-47.765"/>
<polygon fill="midnightblue" stroke="midnightblue" points="1362.16,-81.4718 1356.39,-90.359 1366.44,-87.0086 1362.16,-81.4718"/>
</g>
<!-- Node10 -->
<g id="node10" class="node"><title>Node10</title>
<g id="a_node10"><a xlink:href="../../d1/d13/HelicityAmplitudeFitApp_8cpp.html" target="_top" xlink:title="/home/travis/build\l/ComPWA/ComPWA/executables\l/HelicityAmplitudeFitApp.cpp">
<polygon fill="white" stroke="black" points="1547.5,-6.5 1547.5,-47.5 1714.5,-47.5 1714.5,-6.5 1547.5,-6.5"/>
<text text-anchor="start" x="1555.5" y="-35.5" font-family="Helvetica,sans-Serif" font-size="10.00">/home/travis/build</text>
<text text-anchor="start" x="1555.5" y="-24.5" font-family="Helvetica,sans-Serif" font-size="10.00">/ComPWA/ComPWA/executables</text>
<text text-anchor="middle" x="1631" y="-13.5" font-family="Helvetica,sans-Serif" font-size="10.00">/HelicityAmplitudeFitApp.cpp</text>
</a>
</g>
</g>
<!-- Node1&#45;&gt;Node10 -->
<g id="edge9" class="edge"><title>Node1&#45;&gt;Node10</title>
<path fill="none" stroke="midnightblue" d="M1413.81,-87.7674C1451.69,-77.5542 1497.14,-65.2384 1538,-54 1545.6,-51.9104 1553.54,-49.7117 1561.44,-47.5143"/>
<polygon fill="midnightblue" stroke="midnightblue" points="1412.59,-84.4712 1403.85,-90.4528 1414.41,-91.2301 1412.59,-84.4712"/>
</g>
<!-- Node11 -->
<g id="node11" class="node"><title>Node11</title>
<g id="a_node11"><a xlink:href="../../d6/d45/LHNormalizationTestApp_8cpp.html" target="_top" xlink:title="/home/travis/build\l/ComPWA/ComPWA/executables\l/LHNormalizationTestApp.cpp">
<polygon fill="white" stroke="black" points="1732.5,-6.5 1732.5,-47.5 1899.5,-47.5 1899.5,-6.5 1732.5,-6.5"/>
<text text-anchor="start" x="1740.5" y="-35.5" font-family="Helvetica,sans-Serif" font-size="10.00">/home/travis/build</text>
<text text-anchor="start" x="1740.5" y="-24.5" font-family="Helvetica,sans-Serif" font-size="10.00">/ComPWA/ComPWA/executables</text>
<text text-anchor="middle" x="1816" y="-13.5" font-family="Helvetica,sans-Serif" font-size="10.00">/LHNormalizationTestApp.cpp</text>
</a>
</g>
</g>
<!-- Node1&#45;&gt;Node11 -->
<g id="edge10" class="edge"><title>Node1&#45;&gt;Node11</title>
<path fill="none" stroke="midnightblue" d="M1419.26,-100.732C1499.09,-91.5587 1619.61,-75.7394 1723,-54 1731.86,-52.1371 1741.12,-49.9033 1750.22,-47.5379"/>
<polygon fill="midnightblue" stroke="midnightblue" points="1418.79,-97.2629 1409.25,-101.872 1419.58,-104.218 1418.79,-97.2629"/>
</g>
<!-- Node12 -->
<g id="node12" class="node"><title>Node12</title>
<g id="a_node12"><a xlink:href="../../dc/d3f/NeuralNetworkApp_8cpp.html" target="_top" xlink:title="/home/travis/build\l/ComPWA/ComPWA/executables\l/NeuralNetworkApp.cpp">
<polygon fill="white" stroke="black" points="1917.5,-6.5 1917.5,-47.5 2084.5,-47.5 2084.5,-6.5 1917.5,-6.5"/>
<text text-anchor="start" x="1925.5" y="-35.5" font-family="Helvetica,sans-Serif" font-size="10.00">/home/travis/build</text>
<text text-anchor="start" x="1925.5" y="-24.5" font-family="Helvetica,sans-Serif" font-size="10.00">/ComPWA/ComPWA/executables</text>
<text text-anchor="middle" x="2001" y="-13.5" font-family="Helvetica,sans-Serif" font-size="10.00">/NeuralNetworkApp.cpp</text>
</a>
</g>
</g>
<!-- Node1&#45;&gt;Node12 -->
<g id="edge11" class="edge"><title>Node1&#45;&gt;Node12</title>
<path fill="none" stroke="midnightblue" d="M1419.12,-106.268C1532.88,-100.351 1736.58,-86.0231 1908,-54 1917.39,-52.2452 1927.21,-49.9829 1936.81,-47.526"/>
<polygon fill="midnightblue" stroke="midnightblue" points="1418.88,-102.776 1409.07,-106.781 1419.24,-109.766 1418.88,-102.776"/>
</g>
<!-- Node13 -->
<g id="node13" class="node"><title>Node13</title>
<g id="a_node13"><a xlink:href="../../d0/d33/MinuitIF_8cpp.html" target="_top" xlink:title="/home/travis/build\l/ComPWA/ComPWA/Optimizer\l/Minuit2/MinuitIF.cpp">
<polygon fill="white" stroke="black" points="2103,-6.5 2103,-47.5 2259,-47.5 2259,-6.5 2103,-6.5"/>
<text text-anchor="start" x="2111" y="-35.5" font-family="Helvetica,sans-Serif" font-size="10.00">/home/travis/build</text>
<text text-anchor="start" x="2111" y="-24.5" font-family="Helvetica,sans-Serif" font-size="10.00">/ComPWA/ComPWA/Optimizer</text>
<text text-anchor="middle" x="2181" y="-13.5" font-family="Helvetica,sans-Serif" font-size="10.00">/Minuit2/MinuitIF.cpp</text>
</a>
</g>
</g>
<!-- Node1&#45;&gt;Node13 -->
<g id="edge12" class="edge"><title>Node1&#45;&gt;Node13</title>
<path fill="none" stroke="midnightblue" d="M1419.05,-109.617C1561.73,-107.638 1851.82,-97.9669 2093,-54 2102.09,-52.3429 2111.58,-50.1021 2120.82,-47.6271"/>
<polygon fill="midnightblue" stroke="midnightblue" points="1418.98,-106.117 1409.03,-109.746 1419.07,-113.117 1418.98,-106.117"/>
</g>
<!-- Node14 -->
<g id="node14" class="node"><title>Node14</title>
<g id="a_node14"><a xlink:href="../../da/d21/MinuitTestApp_8cpp.html" target="_top" xlink:title="Test&#45;Application of the Minuit2 Optimizer&#45;IF. ">
<polygon fill="white" stroke="black" points="2277,-6.5 2277,-47.5 2433,-47.5 2433,-6.5 2277,-6.5"/>
<text text-anchor="start" x="2285" y="-35.5" font-family="Helvetica,sans-Serif" font-size="10.00">/home/travis/build</text>
<text text-anchor="start" x="2285" y="-24.5" font-family="Helvetica,sans-Serif" font-size="10.00">/ComPWA/ComPWA/Optimizer</text>
<text text-anchor="middle" x="2355" y="-13.5" font-family="Helvetica,sans-Serif" font-size="10.00">/test/MinuitTestApp.cpp</text>
</a>
</g>
</g>
<!-- Node1&#45;&gt;Node14 -->
<g id="edge13" class="edge"><title>Node1&#45;&gt;Node14</title>
<path fill="none" stroke="midnightblue" d="M1419.45,-107.318C1620.45,-100.802 2106.62,-82.5411 2268,-54 2277.16,-52.3802 2286.72,-50.126 2296,-47.6159"/>
<polygon fill="midnightblue" stroke="midnightblue" points="1419.11,-103.827 1409.23,-107.648 1419.33,-110.824 1419.11,-103.827"/>
</g>
<!-- Node15 -->
<g id="node15" class="node"><title>Node15</title>
<g id="a_node15"><a xlink:href="../../d4/db7/OptimizerTestApp_8cpp.html" target="_top" xlink:title="Test&#45;Application of the Optimizer&#45;IF. ">
<polygon fill="white" stroke="black" points="2451,-6.5 2451,-47.5 2607,-47.5 2607,-6.5 2451,-6.5"/>
<text text-anchor="start" x="2459" y="-35.5" font-family="Helvetica,sans-Serif" font-size="10.00">/home/travis/build</text>
<text text-anchor="start" x="2459" y="-24.5" font-family="Helvetica,sans-Serif" font-size="10.00">/ComPWA/ComPWA/Optimizer</text>
<text text-anchor="middle" x="2529" y="-13.5" font-family="Helvetica,sans-Serif" font-size="10.00">/test/OptimizerTestApp.cpp</text>
</a>
</g>
</g>
<!-- Node1&#45;&gt;Node15 -->
<g id="edge14" class="edge"><title>Node1&#45;&gt;Node15</title>
<path fill="none" stroke="midnightblue" d="M1419.29,-108.283C1646.26,-103.43 2246,-87.7222 2442,-54 2451.32,-52.3962 2461.05,-50.116 2470.49,-47.5645"/>
<polygon fill="midnightblue" stroke="midnightblue" points="1419.01,-104.788 1409.09,-108.499 1419.16,-111.786 1419.01,-104.788"/>
</g>
</g>
</svg>
