<?xml version="1.0" encoding="UTF-8" standalone="no"?>
<!DOCTYPE svg PUBLIC "-//W3C//DTD SVG 1.1//EN"
 "http://www.w3.org/Graphics/SVG/1.1/DTD/svg11.dtd">
<!-- Generated by graphviz version 2.36.0 (20140111.2315)
 -->
<!-- Title: /home/travis/build/ComPWA/ComPWA/Optimizer/Minuit2/MinuitIF.hpp Pages: 1 -->
<svg width="3011pt" height="140pt"
 viewBox="0.00 0.00 3011.00 140.00" xmlns="http://www.w3.org/2000/svg" xmlns:xlink="http://www.w3.org/1999/xlink">
<g id="graph0" class="graph" transform="scale(1 1) rotate(0) translate(4 136)">
<title>/home/travis/build/ComPWA/ComPWA/Optimizer/Minuit2/MinuitIF.hpp</title>
<polygon fill="white" stroke="none" points="-4,4 -4,-136 3007,-136 3007,4 -4,4"/>
<!-- Node1 -->
<g id="node1" class="node"><title>Node1</title>
<polygon fill="#bfbfbf" stroke="black" points="1460,-90.5 1460,-131.5 1616,-131.5 1616,-90.5 1460,-90.5"/>
<text text-anchor="start" x="1468" y="-119.5" font-family="Helvetica,sans-Serif" font-size="10.00">/home/travis/build</text>
<text text-anchor="start" x="1468" y="-108.5" font-family="Helvetica,sans-Serif" font-size="10.00">/ComPWA/ComPWA/Optimizer</text>
<text text-anchor="middle" x="1538" y="-97.5" font-family="Helvetica,sans-Serif" font-size="10.00">/Minuit2/MinuitIF.hpp</text>
</g>
<!-- Node2 -->
<g id="node2" class="node"><title>Node2</title>
<g id="a_node2"><a xlink:href="../../de/dbe/BlackScholesApp_8cpp.html" target="_top" xlink:title="Test&#45;Application for Black&#45;Scholes stock model. ">
<polygon fill="white" stroke="black" points="-0.5,-6.5 -0.5,-47.5 166.5,-47.5 166.5,-6.5 -0.5,-6.5"/>
<text text-anchor="start" x="7.5" y="-35.5" font-family="Helvetica,sans-Serif" font-size="10.00">/home/travis/build</text>
<text text-anchor="start" x="7.5" y="-24.5" font-family="Helvetica,sans-Serif" font-size="10.00">/ComPWA/ComPWA/executables</text>
<text text-anchor="middle" x="83" y="-13.5" font-family="Helvetica,sans-Serif" font-size="10.00">/BlackScholesApp.cpp</text>
</a>
</g>
</g>
<!-- Node1&#45;&gt;Node2 -->
<g id="edge1" class="edge"><title>Node1&#45;&gt;Node2</title>
<path fill="none" stroke="midnightblue" d="M1449.54,-109.07C1188.08,-105.892 421.8,-93.384 175,-54 165.166,-52.4307 154.888,-50.1687 144.914,-47.6251"/>
<polygon fill="midnightblue" stroke="midnightblue" points="1449.7,-112.572 1459.74,-109.192 1449.79,-105.572 1449.7,-112.572"/>
</g>
<!-- Node3 -->
<g id="node3" class="node"><title>Node3</title>
<g id="a_node3"><a xlink:href="../../d9/dab/CompareTreeAmpApp_8cpp.html" target="_top" xlink:title="/home/travis/build\l/ComPWA/ComPWA/executables\l/CompareTreeAmpApp.cpp">
<polygon fill="white" stroke="black" points="184.5,-6.5 184.5,-47.5 351.5,-47.5 351.5,-6.5 184.5,-6.5"/>
<text text-anchor="start" x="192.5" y="-35.5" font-family="Helvetica,sans-Serif" font-size="10.00">/home/travis/build</text>
<text text-anchor="start" x="192.5" y="-24.5" font-family="Helvetica,sans-Serif" font-size="10.00">/ComPWA/ComPWA/executables</text>
<text text-anchor="middle" x="268" y="-13.5" font-family="Helvetica,sans-Serif" font-size="10.00">/CompareTreeAmpApp.cpp</text>
</a>
</g>
</g>
<!-- Node1&#45;&gt;Node3 -->
<g id="edge2" class="edge"><title>Node1&#45;&gt;Node3</title>
<path fill="none" stroke="midnightblue" d="M1449.47,-108.403C1212.85,-103.718 569.575,-88.1361 360,-54 350.171,-52.399 339.895,-50.1203 329.923,-47.5694"/>
<polygon fill="midnightblue" stroke="midnightblue" points="1449.68,-111.908 1459.75,-108.605 1449.82,-104.909 1449.68,-111.908"/>
</g>
<!-- Node4 -->
<g id="node4" class="node"><title>Node4</title>
<g id="a_node4"><a xlink:href="../../db/d7b/DalitzFitD03K_8cpp.html" target="_top" xlink:title="/home/travis/build\l/ComPWA/ComPWA/executables\l/Examples/DalitzAnalysis\l_D0KsKK/DalitzFitD03K.cpp">
<polygon fill="white" stroke="black" points="369.5,-1 369.5,-53 536.5,-53 536.5,-1 369.5,-1"/>
<text text-anchor="start" x="377.5" y="-41" font-family="Helvetica,sans-Serif" font-size="10.00">/home/travis/build</text>
<text text-anchor="start" x="377.5" y="-30" font-family="Helvetica,sans-Serif" font-size="10.00">/ComPWA/ComPWA/executables</text>
<text text-anchor="start" x="377.5" y="-19" font-family="Helvetica,sans-Serif" font-size="10.00">/Examples/DalitzAnalysis</text>
<text text-anchor="middle" x="453" y="-8" font-family="Helvetica,sans-Serif" font-size="10.00">_D0KsKK/DalitzFitD03K.cpp</text>
</a>
</g>
</g>
<!-- Node1&#45;&gt;Node4 -->
<g id="edge3" class="edge"><title>Node1&#45;&gt;Node4</title>
<path fill="none" stroke="midnightblue" d="M1449.94,-107.507C1240.59,-101.182 717.792,-82.9286 545,-54 542.217,-53.5341 539.398,-53.0154 536.56,-52.453"/>
<polygon fill="midnightblue" stroke="midnightblue" points="1449.87,-111.007 1459.97,-107.809 1450.08,-104.01 1449.87,-111.007"/>
</g>
<!-- Node5 -->
<g id="node5" class="node"><title>Node5</title>
<g id="a_node5"><a xlink:href="../../da/d2a/DalitzFitApp_8cpp.html" target="_top" xlink:title="Dalitz plot analysis of the decay D0&#45;&gt;K_S0 K_ K&#45;Fit application for D0&#45;&gt;K_S0 K_ K&#45; analysis...">
<polygon fill="white" stroke="black" points="554.5,-6.5 554.5,-47.5 733.5,-47.5 733.5,-6.5 554.5,-6.5"/>
<text text-anchor="start" x="562.5" y="-35.5" font-family="Helvetica,sans-Serif" font-size="10.00">/home/travis/build</text>
<text text-anchor="start" x="562.5" y="-24.5" font-family="Helvetica,sans-Serif" font-size="10.00">/ComPWA/ComPWA/executables</text>
<text text-anchor="middle" x="644" y="-13.5" font-family="Helvetica,sans-Serif" font-size="10.00">/Examples/DalitzFit/DalitzFitApp.cpp</text>
</a>
</g>
</g>
<!-- Node1&#45;&gt;Node5 -->
<g id="edge4" class="edge"><title>Node1&#45;&gt;Node5</title>
<path fill="none" stroke="midnightblue" d="M1449.39,-109.216C1301.73,-106.696 996.401,-96.3048 742,-54 731.842,-52.3108 721.209,-50.0359 710.849,-47.5313"/>
<polygon fill="midnightblue" stroke="midnightblue" points="1449.69,-112.722 1459.75,-109.385 1449.81,-105.722 1449.69,-112.722"/>
</g>
<!-- Node6 -->
<g id="node6" class="node"><title>Node6</title>
<g id="a_node6"><a xlink:href="../../d6/d9a/SliceFitApp_8cpp.html" target="_top" xlink:title="/home/travis/build\l/ComPWA/ComPWA/executables\l/Examples/SliceFit/SliceFitApp.cpp">
<polygon fill="white" stroke="black" points="751.5,-6.5 751.5,-47.5 922.5,-47.5 922.5,-6.5 751.5,-6.5"/>
<text text-anchor="start" x="759.5" y="-35.5" font-family="Helvetica,sans-Serif" font-size="10.00">/home/travis/build</text>
<text text-anchor="start" x="759.5" y="-24.5" font-family="Helvetica,sans-Serif" font-size="10.00">/ComPWA/ComPWA/executables</text>
<text text-anchor="middle" x="837" y="-13.5" font-family="Helvetica,sans-Serif" font-size="10.00">/Examples/SliceFit/SliceFitApp.cpp</text>
</a>
</g>
</g>
<!-- Node1&#45;&gt;Node6 -->
<g id="edge5" class="edge"><title>Node1&#45;&gt;Node6</title>
<path fill="none" stroke="midnightblue" d="M1449.81,-106.688C1331.27,-101.138 1114.33,-87.1111 932,-54 922.41,-52.2584 912.381,-50.0035 902.584,-47.55"/>
<polygon fill="midnightblue" stroke="midnightblue" points="1449.78,-110.19 1459.92,-107.152 1450.1,-103.197 1449.78,-110.19"/>
</g>
<!-- Node7 -->
<g id="node7" class="node"><title>Node7</title>
<g id="a_node7"><a xlink:href="../../d3/dbc/SliceFitRANDApp_8cpp.html" target="_top" xlink:title="/home/travis/build\l/ComPWA/ComPWA/executables\l/Examples/SliceFit/SliceFitRANDApp.cpp">
<polygon fill="white" stroke="black" points="941,-6.5 941,-47.5 1141,-47.5 1141,-6.5 941,-6.5"/>
<text text-anchor="start" x="949" y="-35.5" font-family="Helvetica,sans-Serif" font-size="10.00">/home/travis/build</text>
<text text-anchor="start" x="949" y="-24.5" font-family="Helvetica,sans-Serif" font-size="10.00">/ComPWA/ComPWA/executables</text>
<text text-anchor="middle" x="1041" y="-13.5" font-family="Helvetica,sans-Serif" font-size="10.00">/Examples/SliceFit/SliceFitRANDApp.cpp</text>
</a>
</g>
</g>
<!-- Node1&#45;&gt;Node7 -->
<g id="edge6" class="edge"><title>Node1&#45;&gt;Node7</title>
<path fill="none" stroke="midnightblue" d="M1449.61,-99.5651C1370.72,-89.7006 1252.2,-73.5234 1150,-54 1139.97,-52.0836 1129.47,-49.8598 1119.11,-47.5352"/>
<polygon fill="midnightblue" stroke="midnightblue" points="1449.63,-103.095 1459.99,-100.855 1450.5,-96.1487 1449.63,-103.095"/>
</g>
<!-- Node8 -->
<g id="node8" class="node"><title>Node8</title>
<g id="a_node8"><a xlink:href="../../d9/de4/SliceFitUBApp_8cpp.html" target="_top" xlink:title="/home/travis/build\l/ComPWA/ComPWA/executables\l/Examples/SliceFit/SliceFitUBApp.cpp">
<polygon fill="white" stroke="black" points="1159.5,-6.5 1159.5,-47.5 1344.5,-47.5 1344.5,-6.5 1159.5,-6.5"/>
<text text-anchor="start" x="1167.5" y="-35.5" font-family="Helvetica,sans-Serif" font-size="10.00">/home/travis/build</text>
<text text-anchor="start" x="1167.5" y="-24.5" font-family="Helvetica,sans-Serif" font-size="10.00">/ComPWA/ComPWA/executables</text>
<text text-anchor="middle" x="1252" y="-13.5" font-family="Helvetica,sans-Serif" font-size="10.00">/Examples/SliceFit/SliceFitUBApp.cpp</text>
</a>
</g>
</g>
<!-- Node1&#45;&gt;Node8 -->
<g id="edge7" class="edge"><title>Node1&#45;&gt;Node8</title>
<path fill="none" stroke="midnightblue" d="M1460.11,-87.6687C1416.33,-75.116 1362.2,-59.5947 1320.11,-47.5291"/>
<polygon fill="midnightblue" stroke="midnightblue" points="1459.28,-91.0714 1469.86,-90.4631 1461.21,-84.3425 1459.28,-91.0714"/>
</g>
<!-- Node9 -->
<g id="node9" class="node"><title>Node9</title>
<g id="a_node9"><a xlink:href="../../d1/d13/HelicityAmplitudeFitApp_8cpp.html" target="_top" xlink:title="/home/travis/build\l/ComPWA/ComPWA/executables\l/HelicityAmplitudeFitApp.cpp">
<polygon fill="white" stroke="black" points="1362.5,-6.5 1362.5,-47.5 1529.5,-47.5 1529.5,-6.5 1362.5,-6.5"/>
<text text-anchor="start" x="1370.5" y="-35.5" font-family="Helvetica,sans-Serif" font-size="10.00">/home/travis/build</text>
<text text-anchor="start" x="1370.5" y="-24.5" font-family="Helvetica,sans-Serif" font-size="10.00">/ComPWA/ComPWA/executables</text>
<text text-anchor="middle" x="1446" y="-13.5" font-family="Helvetica,sans-Serif" font-size="10.00">/HelicityAmplitudeFitApp.cpp</text>
</a>
</g>
</g>
<!-- Node1&#45;&gt;Node9 -->
<g id="edge8" class="edge"><title>Node1&#45;&gt;Node9</title>
<path fill="none" stroke="midnightblue" d="M1507.93,-83.2011C1494.94,-71.6197 1480.01,-58.3134 1468.07,-47.6671"/>
<polygon fill="midnightblue" stroke="midnightblue" points="1505.94,-86.1092 1515.73,-90.1501 1510.59,-80.8835 1505.94,-86.1092"/>
</g>
<!-- Node10 -->
<g id="node10" class="node"><title>Node10</title>
<g id="a_node10"><a xlink:href="../../d6/d45/LHNormalizationTestApp_8cpp.html" target="_top" xlink:title="/home/travis/build\l/ComPWA/ComPWA/executables\l/LHNormalizationTestApp.cpp">
<polygon fill="white" stroke="black" points="1547.5,-6.5 1547.5,-47.5 1714.5,-47.5 1714.5,-6.5 1547.5,-6.5"/>
<text text-anchor="start" x="1555.5" y="-35.5" font-family="Helvetica,sans-Serif" font-size="10.00">/home/travis/build</text>
<text text-anchor="start" x="1555.5" y="-24.5" font-family="Helvetica,sans-Serif" font-size="10.00">/ComPWA/ComPWA/executables</text>
<text text-anchor="middle" x="1631" y="-13.5" font-family="Helvetica,sans-Serif" font-size="10.00">/LHNormalizationTestApp.cpp</text>
</a>
</g>
</g>
<!-- Node1&#45;&gt;Node10 -->
<g id="edge9" class="edge"><title>Node1&#45;&gt;Node10</title>
<path fill="none" stroke="midnightblue" d="M1568.02,-83.5284C1581.24,-71.871 1596.51,-58.4138 1608.69,-47.6671"/>
<polygon fill="midnightblue" stroke="midnightblue" points="1565.7,-80.9112 1560.51,-90.1501 1570.33,-86.1618 1565.7,-80.9112"/>
</g>
<!-- Node11 -->
<g id="node11" class="node"><title>Node11</title>
<g id="a_node11"><a xlink:href="../../dc/d3f/NeuralNetworkApp_8cpp.html" target="_top" xlink:title="/home/travis/build\l/ComPWA/ComPWA/executables\l/NeuralNetworkApp.cpp">
<polygon fill="white" stroke="black" points="1732.5,-6.5 1732.5,-47.5 1899.5,-47.5 1899.5,-6.5 1732.5,-6.5"/>
<text text-anchor="start" x="1740.5" y="-35.5" font-family="Helvetica,sans-Serif" font-size="10.00">/home/travis/build</text>
<text text-anchor="start" x="1740.5" y="-24.5" font-family="Helvetica,sans-Serif" font-size="10.00">/ComPWA/ComPWA/executables</text>
<text text-anchor="middle" x="1816" y="-13.5" font-family="Helvetica,sans-Serif" font-size="10.00">/NeuralNetworkApp.cpp</text>
</a>
</g>
</g>
<!-- Node1&#45;&gt;Node11 -->
<g id="edge10" class="edge"><title>Node1&#45;&gt;Node11</title>
<path fill="none" stroke="midnightblue" d="M1613.98,-87.5896C1656.49,-75.0508 1708.97,-59.5693 1749.79,-47.5291"/>
<polygon fill="midnightblue" stroke="midnightblue" points="1612.84,-84.2769 1604.23,-90.4631 1614.82,-90.9909 1612.84,-84.2769"/>
</g>
<!-- Node12 -->
<g id="node12" class="node"><title>Node12</title>
<g id="a_node12"><a xlink:href="../../d5/d26/IntegrationTestApp_8cpp.html" target="_top" xlink:title="Test&#45;Application for full fit with simple modules. ">
<polygon fill="white" stroke="black" points="1917.5,-6.5 1917.5,-47.5 2084.5,-47.5 2084.5,-6.5 1917.5,-6.5"/>
<text text-anchor="start" x="1925.5" y="-35.5" font-family="Helvetica,sans-Serif" font-size="10.00">/home/travis/build</text>
<text text-anchor="start" x="1925.5" y="-24.5" font-family="Helvetica,sans-Serif" font-size="10.00">/ComPWA/ComPWA/executables</text>
<text text-anchor="middle" x="2001" y="-13.5" font-family="Helvetica,sans-Serif" font-size="10.00">/test/IntegrationTestApp.cpp</text>
</a>
</g>
</g>
<!-- Node1&#45;&gt;Node12 -->
<g id="edge11" class="edge"><title>Node1&#45;&gt;Node12</title>
<path fill="none" stroke="midnightblue" d="M1626.03,-99.7591C1701.34,-90.2638 1812.4,-74.5164 1908,-54 1916.77,-52.1179 1925.94,-49.8869 1934.95,-47.5351"/>
<polygon fill="midnightblue" stroke="midnightblue" points="1625.59,-96.2861 1616.1,-101 1626.46,-103.232 1625.59,-96.2861"/>
</g>
<!-- Node13 -->
<g id="node13" class="node"><title>Node13</title>
<g id="a_node13"><a xlink:href="../../d0/d0c/IntegrationTestBinnedApp_8cpp.html" target="_top" xlink:title="/home/travis/build\l/ComPWA/ComPWA/executables\l/test/IntegrationTestBinnedApp.cpp">
<polygon fill="white" stroke="black" points="2103,-6.5 2103,-47.5 2273,-47.5 2273,-6.5 2103,-6.5"/>
<text text-anchor="start" x="2111" y="-35.5" font-family="Helvetica,sans-Serif" font-size="10.00">/home/travis/build</text>
<text text-anchor="start" x="2111" y="-24.5" font-family="Helvetica,sans-Serif" font-size="10.00">/ComPWA/ComPWA/executables</text>
<text text-anchor="middle" x="2188" y="-13.5" font-family="Helvetica,sans-Serif" font-size="10.00">/test/IntegrationTestBinnedApp.cpp</text>
</a>
</g>
</g>
<!-- Node1&#45;&gt;Node13 -->
<g id="edge12" class="edge"><title>Node1&#45;&gt;Node13</title>
<path fill="none" stroke="midnightblue" d="M1626.31,-105.637C1736.35,-99.1598 1929.81,-84.3457 2093,-54 2102.5,-52.2338 2112.43,-49.9807 2122.15,-47.5417"/>
<polygon fill="midnightblue" stroke="midnightblue" points="1626.03,-102.147 1616.25,-106.219 1626.44,-109.135 1626.03,-102.147"/>
</g>
<!-- Node14 -->
<g id="node14" class="node"><title>Node14</title>
<g id="a_node14"><a xlink:href="../../da/d21/MinuitTestApp_8cpp.html" target="_top" xlink:title="Test&#45;Application of the Minuit2 Optimizer&#45;IF. ">
<polygon fill="white" stroke="black" points="2291.5,-6.5 2291.5,-47.5 2458.5,-47.5 2458.5,-6.5 2291.5,-6.5"/>
<text text-anchor="start" x="2299.5" y="-35.5" font-family="Helvetica,sans-Serif" font-size="10.00">/home/travis/build</text>
<text text-anchor="start" x="2299.5" y="-24.5" font-family="Helvetica,sans-Serif" font-size="10.00">/ComPWA/ComPWA/executables</text>
<text text-anchor="middle" x="2375" y="-13.5" font-family="Helvetica,sans-Serif" font-size="10.00">/test/MinuitTestApp.cpp</text>
</a>
</g>
</g>
<!-- Node1&#45;&gt;Node14 -->
<g id="edge13" class="edge"><title>Node1&#45;&gt;Node14</title>
<path fill="none" stroke="midnightblue" d="M1626.26,-108.976C1766.29,-106.096 2047.54,-95.181 2282,-54 2291.66,-52.3034 2301.76,-50.0244 2311.6,-47.518"/>
<polygon fill="midnightblue" stroke="midnightblue" points="1625.94,-105.482 1616.01,-109.178 1626.08,-112.481 1625.94,-105.482"/>
</g>
<!-- Node15 -->
<g id="node15" class="node"><title>Node15</title>
<g id="a_node15"><a xlink:href="../../d4/db7/OptimizerTestApp_8cpp.html" target="_top" xlink:title="Test&#45;Application of the Optimizer&#45;IF. ">
<polygon fill="white" stroke="black" points="2476.5,-6.5 2476.5,-47.5 2643.5,-47.5 2643.5,-6.5 2476.5,-6.5"/>
<text text-anchor="start" x="2484.5" y="-35.5" font-family="Helvetica,sans-Serif" font-size="10.00">/home/travis/build</text>
<text text-anchor="start" x="2484.5" y="-24.5" font-family="Helvetica,sans-Serif" font-size="10.00">/ComPWA/ComPWA/executables</text>
<text text-anchor="middle" x="2560" y="-13.5" font-family="Helvetica,sans-Serif" font-size="10.00">/test/OptimizerTestApp.cpp</text>
</a>
</g>
</g>
<!-- Node1&#45;&gt;Node15 -->
<g id="edge14" class="edge"><title>Node1&#45;&gt;Node15</title>
<path fill="none" stroke="midnightblue" d="M1626.16,-110.886C1792.01,-111.185 2161.28,-105.349 2467,-54 2476.84,-52.3477 2487.13,-50.0589 2497.12,-47.5188"/>
<polygon fill="midnightblue" stroke="midnightblue" points="1626.02,-107.385 1616.01,-110.859 1626,-114.385 1626.02,-107.385"/>
</g>
<!-- Node16 -->
<g id="node16" class="node"><title>Node16</title>
<g id="a_node16"><a xlink:href="../../dd/d77/RunManagerTestApp_8cpp.html" target="_top" xlink:title="Test&#45;Application for fit with simple modules using RunManager. ">
<polygon fill="white" stroke="black" points="2661.5,-6.5 2661.5,-47.5 2828.5,-47.5 2828.5,-6.5 2661.5,-6.5"/>
<text text-anchor="start" x="2669.5" y="-35.5" font-family="Helvetica,sans-Serif" font-size="10.00">/home/travis/build</text>
<text text-anchor="start" x="2669.5" y="-24.5" font-family="Helvetica,sans-Serif" font-size="10.00">/ComPWA/ComPWA/executables</text>
<text text-anchor="middle" x="2745" y="-13.5" font-family="Helvetica,sans-Serif" font-size="10.00">/test/RunManagerTestApp.cpp</text>
</a>
</g>
</g>
<!-- Node1&#45;&gt;Node16 -->
<g id="edge15" class="edge"><title>Node1&#45;&gt;Node16</title>
<path fill="none" stroke="midnightblue" d="M1626.49,-108.091C1854,-102.777 2455.18,-86.05 2652,-54 2661.93,-52.3833 2672.31,-50.0963 2682.39,-47.5418"/>
<polygon fill="midnightblue" stroke="midnightblue" points="1626.19,-104.597 1616.27,-108.328 1626.35,-111.595 1626.19,-104.597"/>
</g>
<!-- Node17 -->
<g id="node17" class="node"><title>Node17</title>
<g id="a_node17"><a xlink:href="../../d0/d33/MinuitIF_8cpp.html" target="_top" xlink:title="/home/travis/build\l/ComPWA/ComPWA/Optimizer\l/Minuit2/MinuitIF.cpp">
<polygon fill="white" stroke="black" points="2847,-6.5 2847,-47.5 3003,-47.5 3003,-6.5 2847,-6.5"/>
<text text-anchor="start" x="2855" y="-35.5" font-family="Helvetica,sans-Serif" font-size="10.00">/home/travis/build</text>
<text text-anchor="start" x="2855" y="-24.5" font-family="Helvetica,sans-Serif" font-size="10.00">/ComPWA/ComPWA/Optimizer</text>
<text text-anchor="middle" x="2925" y="-13.5" font-family="Helvetica,sans-Serif" font-size="10.00">/Minuit2/MinuitIF.cpp</text>
</a>
</g>
</g>
<!-- Node1&#45;&gt;Node17 -->
<g id="edge16" class="edge"><title>Node1&#45;&gt;Node17</title>
<path fill="none" stroke="midnightblue" d="M1626.68,-108.993C1879.96,-105.67 2603.39,-92.9438 2837,-54 2846.43,-52.4283 2856.27,-50.1651 2865.82,-47.6209"/>
<polygon fill="midnightblue" stroke="midnightblue" points="1626.38,-105.497 1616.42,-109.126 1626.47,-112.496 1626.38,-105.497"/>
</g>
</g>
</svg>
