<?xml version="1.0" encoding="UTF-8" standalone="no"?>
<!DOCTYPE svg PUBLIC "-//W3C//DTD SVG 1.1//EN"
 "http://www.w3.org/Graphics/SVG/1.1/DTD/svg11.dtd">
<!-- Generated by graphviz version 2.26.3 (20100126.1600)
 -->
<!-- Title: G Pages: 1 -->
<svg width="108pt" height="316pt"
 viewBox="0.00 0.00 108.00 316.00" xmlns="http://www.w3.org/2000/svg" xmlns:xlink="http://www.w3.org/1999/xlink">
<g id="graph1" class="graph" transform="scale(1 1) rotate(0) translate(4 312)">
<title>G</title>
<polygon fill="white" stroke="white" points="-4,5 -4,-312 105,-312 105,5 -4,5"/>
<!-- Node1 -->
<g id="node1" class="node"><title>Node1</title>
<polygon fill="#bfbfbf" stroke="black" points="-0.5,-0.5 -0.5,-141.5 100.5,-141.5 100.5,-0.5 -0.5,-0.5"/>
<text text-anchor="middle" x="50" y="-128.5" font-family="Helvetica,sans-Serif" font-size="10.00">RootGenerator</text>
<polyline fill="none" stroke="black" points="-0.5,-120.5 100.5,-120.5 "/>
<text text-anchor="start" x="7.5" y="-107.5" font-family="Helvetica,sans-Serif" font-size="10.00">&#45; event</text>
<polyline fill="none" stroke="black" points="-0.5,-99.5 100.5,-99.5 "/>
<text text-anchor="start" x="7.5" y="-86.5" font-family="Helvetica,sans-Serif" font-size="10.00">+ RootGenerator()</text>
<text text-anchor="start" x="7.5" y="-73.5" font-family="Helvetica,sans-Serif" font-size="10.00">+ ~RootGenerator()</text>
<text text-anchor="start" x="7.5" y="-60.5" font-family="Helvetica,sans-Serif" font-size="10.00">+ RootGenerator()</text>
<text text-anchor="start" x="7.5" y="-47.5" font-family="Helvetica,sans-Serif" font-size="10.00">+ Clone()</text>
<text text-anchor="start" x="7.5" y="-34.5" font-family="Helvetica,sans-Serif" font-size="10.00">+ generate()</text>
<text text-anchor="start" x="7.5" y="-21.5" font-family="Helvetica,sans-Serif" font-size="10.00">+ setSeed()</text>
<text text-anchor="start" x="7.5" y="-8.5" font-family="Helvetica,sans-Serif" font-size="10.00">+ getSeed()</text>
</g>
<!-- Node2 -->
<g id="node2" class="node"><title>Node2</title>
<a xlink:href="../../d9/d12/classGenerator.xhtml" target="_top" xlink:title="Virtual class for PHSP generators.">
<polygon fill="white" stroke="black" points="10,-179 10,-307 90,-307 90,-179 10,-179"/>
<text text-anchor="middle" x="50" y="-294" font-family="Helvetica,sans-Serif" font-size="10.00">Generator</text>
<polyline fill="none" stroke="black" points="10,-286 90,-286 "/>
<text text-anchor="middle" x="50" y="-273" font-family="Helvetica,sans-Serif" font-size="10.00"> </text>
<polyline fill="none" stroke="black" points="10,-265 90,-265 "/>
<text text-anchor="start" x="18" y="-252" font-family="Helvetica,sans-Serif" font-size="10.00">+ Generator()</text>
<text text-anchor="start" x="18" y="-239" font-family="Helvetica,sans-Serif" font-size="10.00">+ ~Generator()</text>
<text text-anchor="start" x="18" y="-226" font-family="Helvetica,sans-Serif" font-size="10.00">+ generate()</text>
<text text-anchor="start" x="18" y="-213" font-family="Helvetica,sans-Serif" font-size="10.00">+ Clone()</text>
<text text-anchor="start" x="18" y="-200" font-family="Helvetica,sans-Serif" font-size="10.00">+ setSeed()</text>
<text text-anchor="start" x="18" y="-187" font-family="Helvetica,sans-Serif" font-size="10.00">+ getSeed()</text>
</a>
</g>
<!-- Node2&#45;&gt;Node1 -->
<g id="edge2" class="edge"><title>Node2&#45;&gt;Node1</title>
<path fill="none" stroke="midnightblue" d="M50,-168.885C50,-159.881 50,-150.7 50,-141.746"/>
<polygon fill="none" stroke="midnightblue" points="46.5001,-168.954 50,-178.954 53.5001,-168.954 46.5001,-168.954"/>
</g>
</g>
</svg>
