<?xml version="1.0" encoding="UTF-8" standalone="no"?>
<!DOCTYPE svg PUBLIC "-//W3C//DTD SVG 1.1//EN"
 "http://www.w3.org/Graphics/SVG/1.1/DTD/svg11.dtd">
<!-- Generated by graphviz version 2.36.0 (20140111.2315)
 -->
<!-- Title: ComPWA::Physics::DecayTree::DecayProductsInfo Pages: 1 -->
<svg width="183pt" height="194pt"
 viewBox="0.00 0.00 183.00 194.00" xmlns="http://www.w3.org/2000/svg" xmlns:xlink="http://www.w3.org/1999/xlink">
<g id="graph0" class="graph" transform="scale(1 1) rotate(0) translate(4 190)">
<title>ComPWA::Physics::DecayTree::DecayProductsInfo</title>
<polygon fill="white" stroke="none" points="-4,4 -4,-190 179,-190 179,4 -4,4"/>
<!-- Node1 -->
<g id="node1" class="node"><title>Node1</title>
<polygon fill="#bfbfbf" stroke="black" points="0,-1 0,-69 156,-69 156,-1 0,-1"/>
<text text-anchor="start" x="8" y="-57" font-family="Helvetica,sans-Serif" font-size="10.00">ComPWA::Physics::DecayTree</text>
<text text-anchor="middle" x="78" y="-46" font-family="Helvetica,sans-Serif" font-size="10.00">::DecayProductsInfo</text>
<polyline fill="none" stroke="black" points="0,-39 156,-39 "/>
<text text-anchor="start" x="8" y="-27" font-family="Helvetica,sans-Serif" font-size="10.00">+ particle_indices_</text>
<polyline fill="none" stroke="black" points="0,-20 156,-20 "/>
<text text-anchor="middle" x="78" y="-8" font-family="Helvetica,sans-Serif" font-size="10.00"> </text>
</g>
<!-- Node2 -->
<g id="node2" class="node"><title>Node2</title>
<polygon fill="white" stroke="#bfbfbf" points="59,-128.5 59,-185.5 97,-185.5 97,-128.5 59,-128.5"/>
<text text-anchor="middle" x="78" y="-173.5" font-family="Helvetica,sans-Serif" font-size="10.00">ptree</text>
<polyline fill="none" stroke="#bfbfbf" points="59,-166.5 97,-166.5 "/>
<text text-anchor="middle" x="78" y="-154.5" font-family="Helvetica,sans-Serif" font-size="10.00"> </text>
<polyline fill="none" stroke="#bfbfbf" points="59,-147.5 97,-147.5 "/>
<text text-anchor="middle" x="78" y="-135.5" font-family="Helvetica,sans-Serif" font-size="10.00"> </text>
</g>
<!-- Node2&#45;&gt;Node1 -->
<g id="edge1" class="edge"><title>Node2&#45;&gt;Node1</title>
<path fill="none" stroke="#404040" d="M78,-128.47C78,-114.601 78,-97.4211 78,-81.647"/>
<polygon fill="none" stroke="#404040" points="78.0001,-81.3881 74,-75.3881 78,-69.3881 82,-75.388 78.0001,-81.3881"/>
<text text-anchor="start" x="78" y="-102" font-family="Helvetica,sans-Serif" font-size="10.00"> +decay_strength_info</text>
<text text-anchor="middle" x="126.5" y="-91" font-family="Helvetica,sans-Serif" font-size="10.00">_and_phase_</text>
</g>
</g>
</svg>
