<?xml version="1.0" encoding="UTF-8" standalone="no"?>
<!DOCTYPE svg PUBLIC "-//W3C//DTD SVG 1.1//EN"
 "http://www.w3.org/Graphics/SVG/1.1/DTD/svg11.dtd">
<!-- Generated by graphviz version 2.36.0 (20140111.2315)
 -->
<!-- Title: /home/travis/build/ComPWA/ComPWA/Physics/AmplitudeSum/AmpGausRes.hpp Pages: 1 -->
<svg width="598pt" height="128pt"
 viewBox="0.00 0.00 598.00 128.00" xmlns="http://www.w3.org/2000/svg" xmlns:xlink="http://www.w3.org/1999/xlink">
<g id="graph0" class="graph" transform="scale(1 1) rotate(0) translate(4 124)">
<title>/home/travis/build/ComPWA/ComPWA/Physics/AmplitudeSum/AmpGausRes.hpp</title>
<polygon fill="white" stroke="none" points="-4,4 -4,-124 594,-124 594,4 -4,4"/>
<!-- Node1 -->
<g id="node1" class="node"><title>Node1</title>
<polygon fill="#bfbfbf" stroke="black" points="192.5,-78.5 192.5,-119.5 359.5,-119.5 359.5,-78.5 192.5,-78.5"/>
<text text-anchor="start" x="200.5" y="-107.5" font-family="Helvetica,sans-Serif" font-size="10.00">/home/travis/build</text>
<text text-anchor="start" x="200.5" y="-96.5" font-family="Helvetica,sans-Serif" font-size="10.00">/ComPWA/ComPWA/Physics</text>
<text text-anchor="middle" x="276" y="-85.5" font-family="Helvetica,sans-Serif" font-size="10.00">/AmplitudeSum/AmpGausRes.hpp</text>
</g>
<!-- Node2 -->
<g id="node2" class="node"><title>Node2</title>
<g id="a_node2"><a xlink:href="../../d9/d61/AmpGausRes_8cpp.html" target="_top" xlink:title="/home/travis/build\l/ComPWA/ComPWA/Physics\l/AmplitudeSum/AmpGausRes.cpp">
<polygon fill="white" stroke="black" points="-0.5,-0.5 -0.5,-41.5 166.5,-41.5 166.5,-0.5 -0.5,-0.5"/>
<text text-anchor="start" x="7.5" y="-29.5" font-family="Helvetica,sans-Serif" font-size="10.00">/home/travis/build</text>
<text text-anchor="start" x="7.5" y="-18.5" font-family="Helvetica,sans-Serif" font-size="10.00">/ComPWA/ComPWA/Physics</text>
<text text-anchor="middle" x="83" y="-7.5" font-family="Helvetica,sans-Serif" font-size="10.00">/AmplitudeSum/AmpGausRes.cpp</text>
</a>
</g>
</g>
<!-- Node1&#45;&gt;Node2 -->
<g id="edge1" class="edge"><title>Node1&#45;&gt;Node2</title>
<path fill="none" stroke="midnightblue" d="M216.952,-74.7481C189.936,-64.1096 158.285,-51.6458 132.534,-41.5056"/>
<polygon fill="midnightblue" stroke="midnightblue" points="215.711,-78.0207 226.298,-78.4281 218.276,-71.5075 215.711,-78.0207"/>
</g>
<!-- Node3 -->
<g id="node3" class="node"><title>Node3</title>
<g id="a_node3"><a xlink:href="../../db/dd9/AmpSumIntensity_8cpp.html" target="_top" xlink:title="/home/travis/build\l/ComPWA/ComPWA/Physics\l/AmplitudeSum/AmpSumIntensity.cpp">
<polygon fill="white" stroke="black" points="184.5,-0.5 184.5,-41.5 367.5,-41.5 367.5,-0.5 184.5,-0.5"/>
<text text-anchor="start" x="192.5" y="-29.5" font-family="Helvetica,sans-Serif" font-size="10.00">/home/travis/build</text>
<text text-anchor="start" x="192.5" y="-18.5" font-family="Helvetica,sans-Serif" font-size="10.00">/ComPWA/ComPWA/Physics</text>
<text text-anchor="middle" x="276" y="-7.5" font-family="Helvetica,sans-Serif" font-size="10.00">/AmplitudeSum/AmpSumIntensity.cpp</text>
</a>
</g>
</g>
<!-- Node1&#45;&gt;Node3 -->
<g id="edge2" class="edge"><title>Node1&#45;&gt;Node3</title>
<path fill="none" stroke="midnightblue" d="M276,-68.2965C276,-59.3009 276,-49.6532 276,-41.5056"/>
<polygon fill="midnightblue" stroke="midnightblue" points="272.5,-68.4281 276,-78.4281 279.5,-68.4281 272.5,-68.4281"/>
</g>
<!-- Node4 -->
<g id="node4" class="node"><title>Node4</title>
<g id="a_node4"><a xlink:href="../../dc/d4f/AmpSumSliceIntensity_8hpp.html" target="_top" xlink:title="/home/travis/build\l/ComPWA/ComPWA/Physics\l/AmplitudeSum/AmpSumSliceIntensity.hpp">
<polygon fill="white" stroke="black" points="385.5,-0.5 385.5,-41.5 590.5,-41.5 590.5,-0.5 385.5,-0.5"/>
<text text-anchor="start" x="393.5" y="-29.5" font-family="Helvetica,sans-Serif" font-size="10.00">/home/travis/build</text>
<text text-anchor="start" x="393.5" y="-18.5" font-family="Helvetica,sans-Serif" font-size="10.00">/ComPWA/ComPWA/Physics</text>
<text text-anchor="middle" x="488" y="-7.5" font-family="Helvetica,sans-Serif" font-size="10.00">/AmplitudeSum/AmpSumSliceIntensity.hpp</text>
</a>
</g>
</g>
<!-- Node1&#45;&gt;Node4 -->
<g id="edge3" class="edge"><title>Node1&#45;&gt;Node4</title>
<path fill="none" stroke="midnightblue" d="M340.084,-75.0264C369.928,-64.3275 405.057,-51.7343 433.59,-41.5056"/>
<polygon fill="midnightblue" stroke="midnightblue" points="338.828,-71.7587 330.595,-78.4281 341.19,-78.3481 338.828,-71.7587"/>
</g>
</g>
</svg>
