<?xml version="1.0" encoding="UTF-8" standalone="no"?>
<!DOCTYPE svg PUBLIC "-//W3C//DTD SVG 1.1//EN"
 "http://www.w3.org/Graphics/SVG/1.1/DTD/svg11.dtd">
<!-- Generated by graphviz version 2.36.0 (20140111.2315)
 -->
<!-- Title: /home/travis/build/ComPWA/ComPWA/Physics/DecayTree/DecayXMLConfigReader.cpp Pages: 1 -->
<svg width="1050pt" height="422pt"
 viewBox="0.00 0.00 1049.98 422.00" xmlns="http://www.w3.org/2000/svg" xmlns:xlink="http://www.w3.org/1999/xlink">
<g id="graph0" class="graph" transform="scale(1 1) rotate(0) translate(4 418)">
<title>/home/travis/build/ComPWA/ComPWA/Physics/DecayTree/DecayXMLConfigReader.cpp</title>
<polygon fill="white" stroke="none" points="-4,4 -4,-418 1045.98,-418 1045.98,4 -4,4"/>
<!-- Node1 -->
<g id="node1" class="node"><title>Node1</title>
<polygon fill="#bfbfbf" stroke="black" points="586.454,-372.5 586.454,-413.5 784.454,-413.5 784.454,-372.5 586.454,-372.5"/>
<text text-anchor="start" x="594.454" y="-401.5" font-family="Helvetica,sans-Serif" font-size="10.00">/home/travis/build</text>
<text text-anchor="start" x="594.454" y="-390.5" font-family="Helvetica,sans-Serif" font-size="10.00">/ComPWA/ComPWA/Physics</text>
<text text-anchor="middle" x="685.454" y="-379.5" font-family="Helvetica,sans-Serif" font-size="10.00">/DecayTree/DecayXMLConfigReader.cpp</text>
</g>
<!-- Node2 -->
<g id="node2" class="node"><title>Node2</title>
<polygon fill="white" stroke="#bfbfbf" points="480.954,-305 480.954,-335 581.954,-335 581.954,-305 480.954,-305"/>
<text text-anchor="start" x="488.954" y="-323" font-family="Helvetica,sans-Serif" font-size="10.00">boost/property_tree</text>
<text text-anchor="middle" x="531.454" y="-312" font-family="Helvetica,sans-Serif" font-size="10.00">/xml_parser.hpp</text>
</g>
<!-- Node1&#45;&gt;Node2 -->
<g id="edge1" class="edge"><title>Node1&#45;&gt;Node2</title>
<path fill="none" stroke="midnightblue" d="M642.965,-372.411C620.63,-362.114 593.41,-349.564 571.455,-339.442"/>
<polygon fill="midnightblue" stroke="midnightblue" points="572.634,-336.131 562.087,-335.123 569.703,-342.488 572.634,-336.131"/>
</g>
<!-- Node3 -->
<g id="node3" class="node"><title>Node3</title>
<polygon fill="white" stroke="#bfbfbf" points="599.954,-310.5 599.954,-329.5 694.954,-329.5 694.954,-310.5 599.954,-310.5"/>
<text text-anchor="middle" x="647.454" y="-317.5" font-family="Helvetica,sans-Serif" font-size="10.00">boost/foreach.hpp</text>
</g>
<!-- Node1&#45;&gt;Node3 -->
<g id="edge2" class="edge"><title>Node1&#45;&gt;Node3</title>
<path fill="none" stroke="midnightblue" d="M674.869,-372.223C669.269,-361.759 662.447,-349.013 657.009,-338.853"/>
<polygon fill="midnightblue" stroke="midnightblue" points="659.934,-336.9 652.129,-329.735 653.762,-340.203 659.934,-336.9"/>
</g>
<!-- Node4 -->
<g id="node4" class="node"><title>Node4</title>
<g id="a_node4"><a xlink:href="../../d8/d35/PhysConst_8hpp.html" target="_top" xlink:title="PhysConst provides particle information to the framework. ">
<polygon fill="white" stroke="black" points="669.454,-186.5 669.454,-205.5 777.454,-205.5 777.454,-186.5 669.454,-186.5"/>
<text text-anchor="middle" x="723.454" y="-193.5" font-family="Helvetica,sans-Serif" font-size="10.00">Core/PhysConst.hpp</text>
</a>
</g>
</g>
<!-- Node1&#45;&gt;Node4 -->
<g id="edge3" class="edge"><title>Node1&#45;&gt;Node4</title>
<path fill="none" stroke="midnightblue" d="M692.693,-372.27C696.362,-361.644 700.628,-348.239 703.454,-336 713.25,-293.579 719.111,-242.705 721.761,-215.812"/>
<polygon fill="midnightblue" stroke="midnightblue" points="725.274,-215.838 722.728,-205.554 718.305,-215.181 725.274,-215.838"/>
</g>
<!-- Node18 -->
<g id="node18" class="node"><title>Node18</title>
<g id="a_node18"><a xlink:href="../../d8/d04/DecayXMLConfigReader_8hpp.html" target="_top" xlink:title="Physics/DecayTree/DecayXMLConfig\lReader.hpp">
<polygon fill="white" stroke="black" points="751.954,-305 751.954,-335 934.954,-335 934.954,-305 751.954,-305"/>
<text text-anchor="start" x="759.954" y="-323" font-family="Helvetica,sans-Serif" font-size="10.00">Physics/DecayTree/DecayXMLConfig</text>
<text text-anchor="middle" x="843.454" y="-312" font-family="Helvetica,sans-Serif" font-size="10.00">Reader.hpp</text>
</a>
</g>
</g>
<!-- Node1&#45;&gt;Node18 -->
<g id="edge25" class="edge"><title>Node1&#45;&gt;Node18</title>
<path fill="none" stroke="midnightblue" d="M729.047,-372.411C752.065,-362.067 780.139,-349.452 802.717,-339.306"/>
<polygon fill="midnightblue" stroke="midnightblue" points="804.339,-342.414 812.026,-335.123 801.47,-336.029 804.339,-342.414"/>
</g>
<!-- Node5 -->
<g id="node5" class="node"><title>Node5</title>
<polygon fill="white" stroke="#bfbfbf" points="545.454,-56.5 545.454,-75.5 599.454,-75.5 599.454,-56.5 545.454,-56.5"/>
<text text-anchor="middle" x="572.454" y="-63.5" font-family="Helvetica,sans-Serif" font-size="10.00">iostream</text>
</g>
<!-- Node4&#45;&gt;Node5 -->
<g id="edge4" class="edge"><title>Node4&#45;&gt;Node5</title>
<path fill="none" stroke="midnightblue" d="M713.075,-186.202C687.631,-164.633 621.915,-108.927 590.156,-82.0054"/>
<polygon fill="midnightblue" stroke="midnightblue" points="592.399,-79.3188 582.508,-75.5224 587.873,-84.6585 592.399,-79.3188"/>
</g>
<!-- Node6 -->
<g id="node6" class="node"><title>Node6</title>
<polygon fill="white" stroke="#bfbfbf" points="788.454,-0.5 788.454,-19.5 832.454,-19.5 832.454,-0.5 788.454,-0.5"/>
<text text-anchor="middle" x="810.454" y="-7.5" font-family="Helvetica,sans-Serif" font-size="10.00">vector</text>
</g>
<!-- Node4&#45;&gt;Node6 -->
<g id="edge5" class="edge"><title>Node4&#45;&gt;Node6</title>
<path fill="none" stroke="midnightblue" d="M748.709,-186.459C767.622,-178.609 792.252,-164.97 804.454,-144 825.407,-107.99 819.829,-56.7533 814.693,-29.5846"/>
<polygon fill="midnightblue" stroke="midnightblue" points="818.064,-28.6047 812.597,-19.529 811.211,-30.0328 818.064,-28.6047"/>
</g>
<!-- Node7 -->
<g id="node7" class="node"><title>Node7</title>
<g id="a_node7"><a xlink:href="../../db/dce/Parameter_8hpp.html" target="_top" xlink:title="This class implements some internal container of parameters. ">
<polygon fill="white" stroke="black" points="264.454,-118.5 264.454,-137.5 368.454,-137.5 368.454,-118.5 264.454,-118.5"/>
<text text-anchor="middle" x="316.454" y="-125.5" font-family="Helvetica,sans-Serif" font-size="10.00">Core/Parameter.hpp</text>
</a>
</g>
</g>
<!-- Node4&#45;&gt;Node7 -->
<g id="edge6" class="edge"><title>Node4&#45;&gt;Node7</title>
<path fill="none" stroke="midnightblue" d="M670.663,-186.439C595.583,-174.264 458.235,-151.991 378.424,-139.049"/>
<polygon fill="midnightblue" stroke="midnightblue" points="378.94,-135.587 368.508,-137.441 377.819,-142.497 378.94,-135.587"/>
</g>
<!-- Node16 -->
<g id="node16" class="node"><title>Node16</title>
<g id="a_node16"><a xlink:href="../../d4/d03/Utility_8hpp.html" target="_top" xlink:title="Basic structures for amplitude calculations. ">
<polygon fill="white" stroke="black" points="710.954,-118.5 710.954,-137.5 795.954,-137.5 795.954,-118.5 710.954,-118.5"/>
<text text-anchor="middle" x="753.454" y="-125.5" font-family="Helvetica,sans-Serif" font-size="10.00">Core/Utility.hpp</text>
</a>
</g>
</g>
<!-- Node4&#45;&gt;Node16 -->
<g id="edge19" class="edge"><title>Node4&#45;&gt;Node16</title>
<path fill="none" stroke="midnightblue" d="M727.376,-186.372C731.888,-176.446 739.42,-159.874 745.233,-147.086"/>
<polygon fill="midnightblue" stroke="midnightblue" points="748.484,-148.393 749.435,-137.841 742.111,-145.496 748.484,-148.393"/>
</g>
<!-- Node7&#45;&gt;Node5 -->
<g id="edge7" class="edge"><title>Node7&#45;&gt;Node5</title>
<path fill="none" stroke="midnightblue" d="M354.262,-118.443C396.157,-108.915 465.978,-92.9007 535.53,-76.1931"/>
<polygon fill="midnightblue" stroke="midnightblue" points="536.437,-79.575 545.34,-73.8316 534.798,-72.7694 536.437,-79.575"/>
</g>
<!-- Node8 -->
<g id="node8" class="node"><title>Node8</title>
<polygon fill="white" stroke="#bfbfbf" points="547.954,-0.5 547.954,-19.5 588.954,-19.5 588.954,-0.5 547.954,-0.5"/>
<text text-anchor="middle" x="568.454" y="-7.5" font-family="Helvetica,sans-Serif" font-size="10.00">string</text>
</g>
<!-- Node7&#45;&gt;Node8 -->
<g id="edge8" class="edge"><title>Node7&#45;&gt;Node8</title>
<path fill="none" stroke="midnightblue" d="M264.383,-126.307C184.426,-124.016 37.1972,-114.53 4.45416,-76 -1.30197,-69.2266 -1.5761,-62.5306 4.45416,-56 40.8108,-16.627 425.045,-11.6809 537.624,-11.0784"/>
<polygon fill="midnightblue" stroke="midnightblue" points="537.96,-14.577 547.944,-11.0316 537.929,-7.57711 537.96,-14.577"/>
</g>
<!-- Node9 -->
<g id="node9" class="node"><title>Node9</title>
<polygon fill="white" stroke="#bfbfbf" points="335.454,-56.5 335.454,-75.5 387.454,-75.5 387.454,-56.5 335.454,-56.5"/>
<text text-anchor="middle" x="361.454" y="-63.5" font-family="Helvetica,sans-Serif" font-size="10.00">sstream</text>
</g>
<!-- Node7&#45;&gt;Node9 -->
<g id="edge9" class="edge"><title>Node7&#45;&gt;Node9</title>
<path fill="none" stroke="midnightblue" d="M322.902,-118.403C329.652,-109.403 340.424,-95.0408 348.867,-83.7824"/>
<polygon fill="midnightblue" stroke="midnightblue" points="351.819,-85.6806 355.019,-75.5806 346.219,-81.4806 351.819,-85.6806"/>
</g>
<!-- Node10 -->
<g id="node10" class="node"><title>Node10</title>
<polygon fill="white" stroke="#bfbfbf" points="13.9542,-56.5 13.9542,-75.5 66.9542,-75.5 66.9542,-56.5 13.9542,-56.5"/>
<text text-anchor="middle" x="40.4542" y="-63.5" font-family="Helvetica,sans-Serif" font-size="10.00">complex</text>
</g>
<!-- Node7&#45;&gt;Node10 -->
<g id="edge10" class="edge"><title>Node7&#45;&gt;Node10</title>
<path fill="none" stroke="midnightblue" d="M273.23,-118.438C226.979,-109.147 151.229,-93.5566 77.1439,-76.3284"/>
<polygon fill="midnightblue" stroke="midnightblue" points="77.7122,-72.8669 67.1779,-73.9983 76.1185,-79.6831 77.7122,-72.8669"/>
</g>
<!-- Node11 -->
<g id="node11" class="node"><title>Node11</title>
<polygon fill="white" stroke="#bfbfbf" points="84.9542,-56.5 84.9542,-75.5 143.954,-75.5 143.954,-56.5 84.9542,-56.5"/>
<text text-anchor="middle" x="114.454" y="-63.5" font-family="Helvetica,sans-Serif" font-size="10.00">stdexcept</text>
</g>
<!-- Node7&#45;&gt;Node11 -->
<g id="edge11" class="edge"><title>Node7&#45;&gt;Node11</title>
<path fill="none" stroke="midnightblue" d="M287.512,-118.403C252.187,-107.911 192.323,-90.1295 153.089,-78.4758"/>
<polygon fill="midnightblue" stroke="midnightblue" points="153.925,-75.0729 143.342,-75.5806 151.932,-81.7831 153.925,-75.0729"/>
</g>
<!-- Node12 -->
<g id="node12" class="node"><title>Node12</title>
<polygon fill="white" stroke="#bfbfbf" points="162.454,-56.5 162.454,-75.5 206.454,-75.5 206.454,-56.5 162.454,-56.5"/>
<text text-anchor="middle" x="184.454" y="-63.5" font-family="Helvetica,sans-Serif" font-size="10.00">cmath</text>
</g>
<!-- Node7&#45;&gt;Node12 -->
<g id="edge12" class="edge"><title>Node7&#45;&gt;Node12</title>
<path fill="none" stroke="midnightblue" d="M297.542,-118.403C275.291,-108.29 238.142,-91.4036 212.528,-79.761"/>
<polygon fill="midnightblue" stroke="midnightblue" points="213.883,-76.5324 203.331,-75.5806 210.987,-82.905 213.883,-76.5324"/>
</g>
<!-- Node13 -->
<g id="node13" class="node"><title>Node13</title>
<g id="a_node13"><a xlink:href="../../d8/def/AbsParameter_8hpp.html" target="_top" xlink:title="This class defines the internal container of a parameter. ">
<polygon fill="white" stroke="red" points="405.454,-56.5 405.454,-75.5 527.454,-75.5 527.454,-56.5 405.454,-56.5"/>
<text text-anchor="middle" x="466.454" y="-63.5" font-family="Helvetica,sans-Serif" font-size="10.00">Core/AbsParameter.hpp</text>
</a>
</g>
</g>
<!-- Node7&#45;&gt;Node13 -->
<g id="edge13" class="edge"><title>Node7&#45;&gt;Node13</title>
<path fill="none" stroke="midnightblue" d="M337.946,-118.403C363.564,-108.156 406.564,-90.9561 435.699,-79.3021"/>
<polygon fill="midnightblue" stroke="midnightblue" points="437.018,-82.5442 445.003,-75.5806 434.418,-76.0449 437.018,-82.5442"/>
</g>
<!-- Node14 -->
<g id="node14" class="node"><title>Node14</title>
<g id="a_node14"><a xlink:href="../../d2/de9/Exceptions_8hpp.html" target="_top" xlink:title="This class defines the ComPWA exception base&#45;class and provides a set of standard exceptions...">
<polygon fill="white" stroke="red" points="617.454,-56.5 617.454,-75.5 725.454,-75.5 725.454,-56.5 617.454,-56.5"/>
<text text-anchor="middle" x="671.454" y="-63.5" font-family="Helvetica,sans-Serif" font-size="10.00">Core/Exceptions.hpp</text>
</a>
</g>
</g>
<!-- Node7&#45;&gt;Node14 -->
<g id="edge16" class="edge"><title>Node7&#45;&gt;Node14</title>
<path fill="none" stroke="midnightblue" d="M366.94,-118.467C431.213,-107.604 542.146,-88.8549 610.9,-77.2346"/>
<polygon fill="midnightblue" stroke="midnightblue" points="611.866,-80.621 621.142,-75.5034 610.699,-73.7189 611.866,-80.621"/>
</g>
<!-- Node15 -->
<g id="node15" class="node"><title>Node15</title>
<g id="a_node15"><a xlink:href="../../da/db4/Logging_8hpp.html" target="_top" xlink:title="Core/Logging.hpp">
<polygon fill="white" stroke="red" points="223.954,-56.5 223.954,-75.5 316.954,-75.5 316.954,-56.5 223.954,-56.5"/>
<text text-anchor="middle" x="270.454" y="-63.5" font-family="Helvetica,sans-Serif" font-size="10.00">Core/Logging.hpp</text>
</a>
</g>
</g>
<!-- Node7&#45;&gt;Node15 -->
<g id="edge18" class="edge"><title>Node7&#45;&gt;Node15</title>
<path fill="none" stroke="midnightblue" d="M309.863,-118.403C302.963,-109.403 291.952,-95.0408 283.321,-83.7824"/>
<polygon fill="midnightblue" stroke="midnightblue" points="285.895,-81.3872 277.033,-75.5806 280.339,-85.6462 285.895,-81.3872"/>
</g>
<!-- Node13&#45;&gt;Node6 -->
<g id="edge15" class="edge"><title>Node13&#45;&gt;Node6</title>
<path fill="none" stroke="midnightblue" d="M520.962,-56.4435C593.372,-45.0768 718.999,-25.3564 778.037,-16.0888"/>
<polygon fill="midnightblue" stroke="midnightblue" points="778.922,-19.4928 788.258,-14.4843 777.836,-12.5775 778.922,-19.4928"/>
</g>
<!-- Node13&#45;&gt;Node8 -->
<g id="edge14" class="edge"><title>Node13&#45;&gt;Node8</title>
<path fill="none" stroke="midnightblue" d="M482.842,-56.324C499.125,-47.7034 524.322,-34.3643 543.17,-24.3855"/>
<polygon fill="midnightblue" stroke="midnightblue" points="544.907,-27.4267 552.107,-19.6545 541.631,-21.2402 544.907,-27.4267"/>
</g>
<!-- Node14&#45;&gt;Node8 -->
<g id="edge17" class="edge"><title>Node14&#45;&gt;Node8</title>
<path fill="none" stroke="midnightblue" d="M654.905,-56.324C638.463,-47.7034 613.019,-34.3643 593.986,-24.3855"/>
<polygon fill="midnightblue" stroke="midnightblue" points="595.444,-21.198 584.962,-19.6545 592.193,-27.3977 595.444,-21.198"/>
</g>
<!-- Node16&#45;&gt;Node5 -->
<g id="edge23" class="edge"><title>Node16&#45;&gt;Node5</title>
<path fill="none" stroke="midnightblue" d="M727.521,-118.403C696.205,-108.022 643.364,-90.5062 608.199,-78.849"/>
<polygon fill="midnightblue" stroke="midnightblue" points="608.932,-75.405 598.339,-75.5806 606.73,-82.0494 608.932,-75.405"/>
</g>
<!-- Node16&#45;&gt;Node6 -->
<g id="edge22" class="edge"><title>Node16&#45;&gt;Node6</title>
<path fill="none" stroke="midnightblue" d="M757.738,-118.281C767.068,-99.2943 789.378,-53.892 801.775,-28.6624"/>
<polygon fill="midnightblue" stroke="midnightblue" points="805.006,-30.0234 806.275,-19.5048 798.724,-26.9362 805.006,-30.0234"/>
</g>
<!-- Node16&#45;&gt;Node8 -->
<g id="edge20" class="edge"><title>Node16&#45;&gt;Node8</title>
<path fill="none" stroke="midnightblue" d="M753.729,-118.229C753.698,-103.317 751.389,-72.9903 734.454,-56 698.385,-19.8136 636.372,-11.897 599.21,-10.6257"/>
<polygon fill="midnightblue" stroke="midnightblue" points="599.048,-7.12192 588.981,-10.4227 598.909,-14.1205 599.048,-7.12192"/>
</g>
<!-- Node16&#45;&gt;Node14 -->
<g id="edge24" class="edge"><title>Node16&#45;&gt;Node14</title>
<path fill="none" stroke="midnightblue" d="M741.706,-118.403C728.553,-108.78 707.021,-93.0242 691.256,-81.4891"/>
<polygon fill="midnightblue" stroke="midnightblue" points="693.318,-78.6611 683.181,-75.5806 689.184,-84.3103 693.318,-78.6611"/>
</g>
<!-- Node17 -->
<g id="node17" class="node"><title>Node17</title>
<polygon fill="white" stroke="#bfbfbf" points="966.954,-56.5 966.954,-75.5 1001.95,-75.5 1001.95,-56.5 966.954,-56.5"/>
<text text-anchor="middle" x="984.454" y="-63.5" font-family="Helvetica,sans-Serif" font-size="10.00">map</text>
</g>
<!-- Node16&#45;&gt;Node17 -->
<g id="edge21" class="edge"><title>Node16&#45;&gt;Node17</title>
<path fill="none" stroke="midnightblue" d="M786.551,-118.403C832.42,-106.489 914.471,-85.1775 957.081,-74.1099"/>
<polygon fill="midnightblue" stroke="midnightblue" points="957.975,-77.4939 966.774,-71.5922 956.215,-70.7187 957.975,-77.4939"/>
</g>
<!-- Node19 -->
<g id="node19" class="node"><title>Node19</title>
<polygon fill="white" stroke="#bfbfbf" points="854.954,-113 854.954,-143 955.954,-143 955.954,-113 854.954,-113"/>
<text text-anchor="start" x="862.954" y="-131" font-family="Helvetica,sans-Serif" font-size="10.00">boost/property_tree</text>
<text text-anchor="middle" x="905.454" y="-120" font-family="Helvetica,sans-Serif" font-size="10.00">/ptree.hpp</text>
</g>
<!-- Node18&#45;&gt;Node19 -->
<g id="edge26" class="edge"><title>Node18&#45;&gt;Node19</title>
<path fill="none" stroke="midnightblue" d="M839.811,-304.73C833.91,-278.544 824.787,-221.687 844.454,-180 850.264,-167.686 860.651,-157.291 871.228,-149.163"/>
<polygon fill="midnightblue" stroke="midnightblue" points="873.562,-151.797 879.666,-143.137 869.494,-146.1 873.562,-151.797"/>
</g>
<!-- Node20 -->
<g id="node20" class="node"><title>Node20</title>
<g id="a_node20"><a xlink:href="../../da/d62/DecayConfiguration_8hpp.html" target="_top" xlink:title="DecayConfiguration.hpp">
<polygon fill="white" stroke="black" points="911.454,-248.5 911.454,-267.5 1033.45,-267.5 1033.45,-248.5 911.454,-248.5"/>
<text text-anchor="middle" x="972.454" y="-255.5" font-family="Helvetica,sans-Serif" font-size="10.00">DecayConfiguration.hpp</text>
</a>
</g>
</g>
<!-- Node18&#45;&gt;Node20 -->
<g id="edge27" class="edge"><title>Node18&#45;&gt;Node20</title>
<path fill="none" stroke="midnightblue" d="M873.699,-304.933C895.171,-294.946 923.779,-281.64 944.675,-271.92"/>
<polygon fill="midnightblue" stroke="midnightblue" points="946.373,-274.991 953.964,-267.6 943.421,-268.644 946.373,-274.991"/>
</g>
<!-- Node20&#45;&gt;Node6 -->
<g id="edge29" class="edge"><title>Node20&#45;&gt;Node6</title>
<path fill="none" stroke="midnightblue" d="M986.241,-248.189C997.28,-240.241 1011.96,-227.447 1018.45,-212 1045.37,-148.007 1056.65,-107.821 1010.45,-56 988.509,-31.3843 893.53,-18.8258 842.755,-13.7675"/>
<polygon fill="midnightblue" stroke="midnightblue" points="842.921,-10.2675 832.634,-12.8003 842.255,-17.2358 842.921,-10.2675"/>
</g>
<!-- Node20&#45;&gt;Node17 -->
<g id="edge28" class="edge"><title>Node20&#45;&gt;Node17</title>
<path fill="none" stroke="midnightblue" d="M980.668,-248.182C987.998,-239.663 998.21,-226.019 1002.45,-212 1015.82,-167.847 1001.11,-113.251 991.473,-85.3313"/>
<polygon fill="midnightblue" stroke="midnightblue" points="994.682,-83.9145 987.979,-75.7097 988.102,-86.3038 994.682,-83.9145"/>
</g>
<!-- Node21 -->
<g id="node21" class="node"><title>Node21</title>
<g id="a_node21"><a xlink:href="../../dd/db0/ParticleStateDefinitions_8hpp.html" target="_top" xlink:title="Physics/HelicityAmplitude\l/ParticleStateDefinitions.hpp">
<polygon fill="white" stroke="red" points="852.954,-181 852.954,-211 993.954,-211 993.954,-181 852.954,-181"/>
<text text-anchor="start" x="860.954" y="-199" font-family="Helvetica,sans-Serif" font-size="10.00">Physics/HelicityAmplitude</text>
<text text-anchor="middle" x="923.454" y="-188" font-family="Helvetica,sans-Serif" font-size="10.00">/ParticleStateDefinitions.hpp</text>
</a>
</g>
</g>
<!-- Node20&#45;&gt;Node21 -->
<g id="edge30" class="edge"><title>Node20&#45;&gt;Node21</title>
<path fill="none" stroke="midnightblue" d="M965.434,-248.403C959.169,-240.733 949.724,-229.167 941.378,-218.948"/>
<polygon fill="midnightblue" stroke="midnightblue" points="944.039,-216.672 935.002,-211.141 938.617,-221.1 944.039,-216.672"/>
</g>
<!-- Node21&#45;&gt;Node16 -->
<g id="edge33" class="edge"><title>Node21&#45;&gt;Node16</title>
<path fill="none" stroke="midnightblue" d="M886.985,-180.841C856.789,-169.118 814.304,-152.624 785.423,-141.411"/>
<polygon fill="midnightblue" stroke="midnightblue" points="786.405,-138.038 775.817,-137.682 783.872,-144.564 786.405,-138.038"/>
</g>
<!-- Node21&#45;&gt;Node17 -->
<g id="edge31" class="edge"><title>Node21&#45;&gt;Node17</title>
<path fill="none" stroke="midnightblue" d="M937.462,-180.988C946.379,-171.336 957.517,-157.806 964.454,-144 973.835,-125.33 979.113,-101.836 981.862,-85.7399"/>
<polygon fill="midnightblue" stroke="midnightblue" points="985.375,-85.9175 983.438,-75.5013 978.457,-84.8521 985.375,-85.9175"/>
</g>
<!-- Node21&#45;&gt;Node19 -->
<g id="edge32" class="edge"><title>Node21&#45;&gt;Node19</title>
<path fill="none" stroke="midnightblue" d="M919.548,-180.679C917.355,-172.636 914.559,-162.385 912.037,-153.137"/>
<polygon fill="midnightblue" stroke="midnightblue" points="915.36,-152.02 909.352,-143.293 908.607,-153.862 915.36,-152.02"/>
</g>
</g>
</svg>
