<?xml version="1.0" encoding="UTF-8" standalone="no"?>
<!DOCTYPE svg PUBLIC "-//W3C//DTD SVG 1.1//EN"
 "http://www.w3.org/Graphics/SVG/1.1/DTD/svg11.dtd">
<!-- Generated by graphviz version 2.36.0 (20140111.2315)
 -->
<!-- Title: ComPWA::Generator Pages: 1 -->
<svg width="168pt" height="520pt"
 viewBox="0.00 0.00 168.00 520.00" xmlns="http://www.w3.org/2000/svg" xmlns:xlink="http://www.w3.org/1999/xlink">
<g id="graph0" class="graph" transform="scale(1 1) rotate(0) translate(4 516)">
<title>ComPWA::Generator</title>
<polygon fill="white" stroke="none" points="-4,4 -4,-516 164,-516 164,4 -4,4"/>
<!-- Node1 -->
<g id="node1" class="node"><title>Node1</title>
<polygon fill="#bfbfbf" stroke="black" points="25,-377 25,-511 135,-511 135,-377 25,-377"/>
<text text-anchor="middle" x="80" y="-499" font-family="Helvetica,sans-Serif" font-size="10.00">ComPWA::Generator</text>
<polyline fill="none" stroke="black" points="25,-492 135,-492 "/>
<text text-anchor="middle" x="80" y="-480" font-family="Helvetica,sans-Serif" font-size="10.00"> </text>
<polyline fill="none" stroke="black" points="25,-473 135,-473 "/>
<text text-anchor="start" x="33" y="-461" font-family="Helvetica,sans-Serif" font-size="10.00">+ Generator()</text>
<text text-anchor="start" x="33" y="-450" font-family="Helvetica,sans-Serif" font-size="10.00">+ ~Generator()</text>
<text text-anchor="start" x="33" y="-439" font-family="Helvetica,sans-Serif" font-size="10.00">+ Generate()</text>
<text text-anchor="start" x="33" y="-428" font-family="Helvetica,sans-Serif" font-size="10.00">+ Clone()</text>
<text text-anchor="start" x="33" y="-417" font-family="Helvetica,sans-Serif" font-size="10.00">+ SetSeed()</text>
<text text-anchor="start" x="33" y="-406" font-family="Helvetica,sans-Serif" font-size="10.00">+ GetSeed()</text>
<text text-anchor="start" x="33" y="-395" font-family="Helvetica,sans-Serif" font-size="10.00">+ GetUniform()</text>
<text text-anchor="start" x="33" y="-384" font-family="Helvetica,sans-Serif" font-size="10.00">+ GetGaussDist()</text>
</g>
<!-- Node2 -->
<g id="node2" class="node"><title>Node2</title>
<g id="a_node2"><a xlink:href="../../d9/d48/classComPWA_1_1Tools_1_1RootGenerator.html" target="_top" xlink:title="{ComPWA::Tools::RootGenerator\n|# sqrtS\l# event\l# nPart\l# masses\l|+ RootGenerator()\l+ RootGenerator()\l+ RootGenerator()\l+ ~RootGenerator()\l+ Clone()\l+ Generate()\l+ SetSeed()\l+ GetSeed()\l+ GetUniform()\l+ GetGaussDist()\l+ GetGenerator()\l}">
<polygon fill="white" stroke="black" points="-0.5,-139 -0.5,-339 160.5,-339 160.5,-139 -0.5,-139"/>
<text text-anchor="middle" x="80" y="-327" font-family="Helvetica,sans-Serif" font-size="10.00">ComPWA::Tools::RootGenerator</text>
<polyline fill="none" stroke="black" points="-0.5,-320 160.5,-320 "/>
<text text-anchor="start" x="7.5" y="-308" font-family="Helvetica,sans-Serif" font-size="10.00"># sqrtS</text>
<text text-anchor="start" x="7.5" y="-297" font-family="Helvetica,sans-Serif" font-size="10.00"># event</text>
<text text-anchor="start" x="7.5" y="-286" font-family="Helvetica,sans-Serif" font-size="10.00"># nPart</text>
<text text-anchor="start" x="7.5" y="-275" font-family="Helvetica,sans-Serif" font-size="10.00"># masses</text>
<polyline fill="none" stroke="black" points="-0.5,-268 160.5,-268 "/>
<text text-anchor="start" x="7.5" y="-256" font-family="Helvetica,sans-Serif" font-size="10.00">+ RootGenerator()</text>
<text text-anchor="start" x="7.5" y="-245" font-family="Helvetica,sans-Serif" font-size="10.00">+ RootGenerator()</text>
<text text-anchor="start" x="7.5" y="-234" font-family="Helvetica,sans-Serif" font-size="10.00">+ RootGenerator()</text>
<text text-anchor="start" x="7.5" y="-223" font-family="Helvetica,sans-Serif" font-size="10.00">+ ~RootGenerator()</text>
<text text-anchor="start" x="7.5" y="-212" font-family="Helvetica,sans-Serif" font-size="10.00">+ Clone()</text>
<text text-anchor="start" x="7.5" y="-201" font-family="Helvetica,sans-Serif" font-size="10.00">+ Generate()</text>
<text text-anchor="start" x="7.5" y="-190" font-family="Helvetica,sans-Serif" font-size="10.00">+ SetSeed()</text>
<text text-anchor="start" x="7.5" y="-179" font-family="Helvetica,sans-Serif" font-size="10.00">+ GetSeed()</text>
<text text-anchor="start" x="7.5" y="-168" font-family="Helvetica,sans-Serif" font-size="10.00">+ GetUniform()</text>
<text text-anchor="start" x="7.5" y="-157" font-family="Helvetica,sans-Serif" font-size="10.00">+ GetGaussDist()</text>
<text text-anchor="start" x="7.5" y="-146" font-family="Helvetica,sans-Serif" font-size="10.00">+ GetGenerator()</text>
</a>
</g>
</g>
<!-- Node1&#45;&gt;Node2 -->
<g id="edge1" class="edge"><title>Node1&#45;&gt;Node2</title>
<path fill="none" stroke="midnightblue" d="M80,-366.787C80,-357.787 80,-348.505 80,-339.247"/>
<polygon fill="none" stroke="midnightblue" points="76.5001,-366.811 80,-376.811 83.5001,-366.811 76.5001,-366.811"/>
</g>
<!-- Node3 -->
<g id="node3" class="node"><title>Node3</title>
<g id="a_node3"><a xlink:href="../../d6/d28/classComPWA_1_1Tools_1_1UniformTwoBodyGenerator.html" target="_top" xlink:title="{ComPWA::Tools::UniformTwo\lBodyGenerator\n|# minSq\l# maxSq\l|+ UniformTwoBodyGenerator()\l+ Generate()\l+ Clone()\l}">
<polygon fill="white" stroke="black" points="5,-0.5 5,-101.5 155,-101.5 155,-0.5 5,-0.5"/>
<text text-anchor="start" x="13" y="-89.5" font-family="Helvetica,sans-Serif" font-size="10.00">ComPWA::Tools::UniformTwo</text>
<text text-anchor="middle" x="80" y="-78.5" font-family="Helvetica,sans-Serif" font-size="10.00">BodyGenerator</text>
<polyline fill="none" stroke="black" points="5,-71.5 155,-71.5 "/>
<text text-anchor="start" x="13" y="-59.5" font-family="Helvetica,sans-Serif" font-size="10.00"># minSq</text>
<text text-anchor="start" x="13" y="-48.5" font-family="Helvetica,sans-Serif" font-size="10.00"># maxSq</text>
<polyline fill="none" stroke="black" points="5,-41.5 155,-41.5 "/>
<text text-anchor="start" x="13" y="-29.5" font-family="Helvetica,sans-Serif" font-size="10.00">+ UniformTwoBodyGenerator()</text>
<text text-anchor="start" x="13" y="-18.5" font-family="Helvetica,sans-Serif" font-size="10.00">+ Generate()</text>
<text text-anchor="start" x="13" y="-7.5" font-family="Helvetica,sans-Serif" font-size="10.00">+ Clone()</text>
</a>
</g>
</g>
<!-- Node2&#45;&gt;Node3 -->
<g id="edge2" class="edge"><title>Node2&#45;&gt;Node3</title>
<path fill="none" stroke="midnightblue" d="M80,-128.58C80,-119.285 80,-110.215 80,-101.759"/>
<polygon fill="none" stroke="midnightblue" points="76.5001,-128.738 80,-138.738 83.5001,-128.738 76.5001,-128.738"/>
</g>
</g>
</svg>
