<?xml version="1.0" encoding="UTF-8" standalone="no"?>
<!DOCTYPE svg PUBLIC "-//W3C//DTD SVG 1.1//EN"
 "http://www.w3.org/Graphics/SVG/1.1/DTD/svg11.dtd">
<!-- Generated by graphviz version 2.26.3 (20100126.1600)
 -->
<!-- Title: G Pages: 1 -->
<svg width="120pt" height="364pt"
 viewBox="0.00 0.00 120.00 364.00" xmlns="http://www.w3.org/2000/svg" xmlns:xlink="http://www.w3.org/1999/xlink">
<g id="graph1" class="graph" transform="scale(1 1) rotate(0) translate(4 360)">
<title>G</title>
<polygon fill="white" stroke="white" points="-4,5 -4,-360 117,-360 117,5 -4,5"/>
<!-- Node1 -->
<g id="node1" class="node"><title>Node1</title>
<polygon fill="#bfbfbf" stroke="black" points="3,-0.5 3,-89.5 109,-89.5 109,-0.5 3,-0.5"/>
<text text-anchor="middle" x="56" y="-76.5" font-family="Helvetica,sans-Serif" font-size="10.00">AmpFcn</text>
<polyline fill="none" stroke="black" points="3,-68.5 109,-68.5 "/>
<text text-anchor="start" x="11" y="-55.5" font-family="Helvetica,sans-Serif" font-size="10.00">&#45; _amp</text>
<text text-anchor="start" x="11" y="-42.5" font-family="Helvetica,sans-Serif" font-size="10.00">&#45; _par</text>
<polyline fill="none" stroke="black" points="3,-34.5 109,-34.5 "/>
<text text-anchor="start" x="11" y="-21.5" font-family="Helvetica,sans-Serif" font-size="10.00">+ AmpFcn()</text>
<text text-anchor="start" x="11" y="-8.5" font-family="Helvetica,sans-Serif" font-size="10.00">+ controlParameter()</text>
</g>
<!-- Node2 -->
<g id="node2" class="node"><title>Node2</title>
<a xlink:href="../../d8/dff/classEstimator.xhtml" target="_top" xlink:title="Estimator Interface Base&#45;Class.">
<polygon fill="white" stroke="black" points="3,-126.5 3,-215.5 109,-215.5 109,-126.5 3,-126.5"/>
<text text-anchor="middle" x="56" y="-202.5" font-family="Helvetica,sans-Serif" font-size="10.00">Estimator</text>
<polyline fill="none" stroke="black" points="3,-194.5 109,-194.5 "/>
<text text-anchor="middle" x="56" y="-181.5" font-family="Helvetica,sans-Serif" font-size="10.00"> </text>
<polyline fill="none" stroke="black" points="3,-173.5 109,-173.5 "/>
<text text-anchor="start" x="11" y="-160.5" font-family="Helvetica,sans-Serif" font-size="10.00">+ controlParameter()</text>
<text text-anchor="start" x="11" y="-147.5" font-family="Helvetica,sans-Serif" font-size="10.00"># Estimator()</text>
<text text-anchor="start" x="11" y="-134.5" font-family="Helvetica,sans-Serif" font-size="10.00"># ~Estimator()</text>
</a>
</g>
<!-- Node2&#45;&gt;Node1 -->
<g id="edge2" class="edge"><title>Node2&#45;&gt;Node1</title>
<path fill="none" stroke="midnightblue" d="M56,-116.013C56,-107.198 56,-98.1691 56,-89.6335"/>
<polygon fill="none" stroke="midnightblue" points="52.5001,-116.222 56,-126.222 59.5001,-116.222 52.5001,-116.222"/>
</g>
<!-- Node3 -->
<g id="node4" class="node"><title>Node3</title>
<a xlink:href="../../d5/db1/classControlParameter.xhtml" target="_top" xlink:title="Optimizer Data Base&#45;Class.">
<polygon fill="white" stroke="black" points="-0.5,-253 -0.5,-355 112.5,-355 112.5,-253 -0.5,-253"/>
<text text-anchor="middle" x="56" y="-342" font-family="Helvetica,sans-Serif" font-size="10.00">ControlParameter</text>
<polyline fill="none" stroke="black" points="-0.5,-334 112.5,-334 "/>
<text text-anchor="start" x="7.5" y="-321" font-family="Helvetica,sans-Serif" font-size="10.00"># instance_</text>
<polyline fill="none" stroke="black" points="-0.5,-313 112.5,-313 "/>
<text text-anchor="start" x="7.5" y="-300" font-family="Helvetica,sans-Serif" font-size="10.00">+ controlParameter()</text>
<text text-anchor="start" x="7.5" y="-287" font-family="Helvetica,sans-Serif" font-size="10.00">+ Instance()</text>
<text text-anchor="start" x="7.5" y="-274" font-family="Helvetica,sans-Serif" font-size="10.00"># ControlParameter()</text>
<text text-anchor="start" x="7.5" y="-261" font-family="Helvetica,sans-Serif" font-size="10.00"># ~ControlParameter()</text>
</a>
</g>
<!-- Node3&#45;&gt;Node2 -->
<g id="edge4" class="edge"><title>Node3&#45;&gt;Node2</title>
<path fill="none" stroke="midnightblue" d="M56,-242.733C56,-233.593 56,-224.32 56,-215.611"/>
<polygon fill="none" stroke="midnightblue" points="52.5001,-242.959 56,-252.959 59.5001,-242.959 52.5001,-242.959"/>
</g>
</g>
</svg>
