<?xml version="1.0" encoding="UTF-8" standalone="no"?>
<!DOCTYPE svg PUBLIC "-//W3C//DTD SVG 1.1//EN"
 "http://www.w3.org/Graphics/SVG/1.1/DTD/svg11.dtd">
<!-- Generated by graphviz version 2.36.0 (20140111.2315)
 -->
<!-- Title: /home/travis/build/ComPWA/ComPWA/Physics/HelicityFormalism.hpp Pages: 1 -->
<svg width="1520pt" height="638pt"
 viewBox="0.00 0.00 1520.00 638.00" xmlns="http://www.w3.org/2000/svg" xmlns:xlink="http://www.w3.org/1999/xlink">
<g id="graph0" class="graph" transform="scale(1 1) rotate(0) translate(4 634)">
<title>/home/travis/build/ComPWA/ComPWA/Physics/HelicityFormalism.hpp</title>
<polygon fill="white" stroke="none" points="-4,4 -4,-634 1516,-634 1516,4 -4,4"/>
<!-- Node1 -->
<g id="node1" class="node"><title>Node1</title>
<polygon fill="#bfbfbf" stroke="black" points="791.5,-588.5 791.5,-629.5 940.5,-629.5 940.5,-588.5 791.5,-588.5"/>
<text text-anchor="start" x="799.5" y="-617.5" font-family="Helvetica,sans-Serif" font-size="10.00">/home/travis/build</text>
<text text-anchor="start" x="799.5" y="-606.5" font-family="Helvetica,sans-Serif" font-size="10.00">/ComPWA/ComPWA/Physics</text>
<text text-anchor="middle" x="866" y="-595.5" font-family="Helvetica,sans-Serif" font-size="10.00">/HelicityFormalism.hpp</text>
</g>
<!-- Node2 -->
<g id="node2" class="node"><title>Node2</title>
<g id="a_node2"><a xlink:href="../../de/d02/AbstractDynamicalFunction_8hpp.html" target="_top" xlink:title="Physics/DecayDynamics\l/AbstractDynamicalFunction.hpp">
<polygon fill="white" stroke="black" points="614.5,-249 614.5,-279 773.5,-279 773.5,-249 614.5,-249"/>
<text text-anchor="start" x="622.5" y="-267" font-family="Helvetica,sans-Serif" font-size="10.00">Physics/DecayDynamics</text>
<text text-anchor="middle" x="694" y="-256" font-family="Helvetica,sans-Serif" font-size="10.00">/AbstractDynamicalFunction.hpp</text>
</a>
</g>
</g>
<!-- Node1&#45;&gt;Node2 -->
<g id="edge1" class="edge"><title>Node1&#45;&gt;Node2</title>
<path fill="none" stroke="midnightblue" d="M843.853,-588.253C818.372,-563.243 780,-517.525 780,-469 780,-469 780,-469 780,-399 780,-361.157 781.504,-347.807 761,-316 752.969,-303.542 740.79,-292.953 729.008,-284.706"/>
<polygon fill="midnightblue" stroke="midnightblue" points="730.836,-281.718 720.564,-279.121 726.974,-287.557 730.836,-281.718"/>
</g>
<!-- Node14 -->
<g id="node14" class="node"><title>Node14</title>
<g id="a_node14"><a xlink:href="../../dd/d65/AmpFlatteRes_8hpp.html" target="_top" xlink:title="Physics/DecayDynamics\l/AmpFlatteRes.hpp">
<polygon fill="white" stroke="black" points="167,-317 167,-347 295,-347 295,-317 167,-317"/>
<text text-anchor="start" x="175" y="-335" font-family="Helvetica,sans-Serif" font-size="10.00">Physics/DecayDynamics</text>
<text text-anchor="middle" x="231" y="-324" font-family="Helvetica,sans-Serif" font-size="10.00">/AmpFlatteRes.hpp</text>
</a>
</g>
</g>
<!-- Node1&#45;&gt;Node14 -->
<g id="edge24" class="edge"><title>Node1&#45;&gt;Node14</title>
<path fill="none" stroke="midnightblue" d="M791.476,-605.708C720.866,-601.252 613.11,-588.442 527,-552 410.69,-502.777 297.605,-399.092 252.043,-354.325"/>
<polygon fill="midnightblue" stroke="midnightblue" points="254.392,-351.725 244.826,-347.169 249.463,-356.696 254.392,-351.725"/>
</g>
<!-- Node17 -->
<g id="node17" class="node"><title>Node17</title>
<g id="a_node17"><a xlink:href="../../d4/db6/NonResonant_8hpp.html" target="_top" xlink:title="Physics/DecayDynamics\l/NonResonant.hpp">
<polygon fill="white" stroke="black" points="624,-317 624,-347 752,-347 752,-317 624,-317"/>
<text text-anchor="start" x="632" y="-335" font-family="Helvetica,sans-Serif" font-size="10.00">Physics/DecayDynamics</text>
<text text-anchor="middle" x="688" y="-324" font-family="Helvetica,sans-Serif" font-size="10.00">/NonResonant.hpp</text>
</a>
</g>
</g>
<!-- Node1&#45;&gt;Node17 -->
<g id="edge30" class="edge"><title>Node1&#45;&gt;Node17</title>
<path fill="none" stroke="midnightblue" d="M815.191,-588.421C797.629,-579.547 779.094,-567.507 766,-552 716.431,-493.296 697.451,-400.798 690.977,-357.228"/>
<polygon fill="midnightblue" stroke="midnightblue" points="694.435,-356.677 689.59,-347.255 687.501,-357.642 694.435,-356.677"/>
</g>
<!-- Node19 -->
<g id="node19" class="node"><title>Node19</title>
<g id="a_node19"><a xlink:href="../../d6/da5/RelativisticBreitWigner_8hpp.html" target="_top" xlink:title="Physics/DecayDynamics\l/RelativisticBreitWigner.hpp">
<polygon fill="white" stroke="red" points="808,-317 808,-347 946,-347 946,-317 808,-317"/>
<text text-anchor="start" x="816" y="-335" font-family="Helvetica,sans-Serif" font-size="10.00">Physics/DecayDynamics</text>
<text text-anchor="middle" x="877" y="-324" font-family="Helvetica,sans-Serif" font-size="10.00">/RelativisticBreitWigner.hpp</text>
</a>
</g>
</g>
<!-- Node1&#45;&gt;Node19 -->
<g id="edge38" class="edge"><title>Node1&#45;&gt;Node19</title>
<path fill="none" stroke="midnightblue" d="M865.815,-588.496C865.582,-549.565 865.73,-459.474 871,-384 871.611,-375.245 872.64,-365.683 873.674,-357.228"/>
<polygon fill="midnightblue" stroke="midnightblue" points="877.152,-357.62 874.956,-347.255 870.209,-356.727 877.152,-357.62"/>
</g>
<!-- Node20 -->
<g id="node20" class="node"><title>Node20</title>
<g id="a_node20"><a xlink:href="../../d9/de6/AmpWignerD_8hpp.html" target="_top" xlink:title="Angular distribution based on WignerD functions. ">
<polygon fill="white" stroke="red" points="949,-249 949,-279 1083,-279 1083,-249 949,-249"/>
<text text-anchor="start" x="957" y="-267" font-family="Helvetica,sans-Serif" font-size="10.00">Physics/HelicityFormalism</text>
<text text-anchor="middle" x="1016" y="-256" font-family="Helvetica,sans-Serif" font-size="10.00">/AmpWignerD.hpp</text>
</a>
</g>
</g>
<!-- Node1&#45;&gt;Node20 -->
<g id="edge55" class="edge"><title>Node1&#45;&gt;Node20</title>
<path fill="none" stroke="midnightblue" d="M940.735,-607.51C1110.78,-604.377 1512,-584.723 1512,-469 1512,-469 1512,-469 1512,-399 1512,-313.339 1232.8,-280.787 1093.35,-269.87"/>
<polygon fill="midnightblue" stroke="midnightblue" points="1093.39,-266.363 1083.15,-269.091 1092.85,-273.343 1093.39,-266.363"/>
</g>
<!-- Node21 -->
<g id="node21" class="node"><title>Node21</title>
<g id="a_node21"><a xlink:href="../../df/d1f/CoherentIntensity_8hpp.html" target="_top" xlink:title="Physics/HelicityFormalism\l/CoherentIntensity.hpp">
<polygon fill="white" stroke="red" points="1026,-453 1026,-483 1160,-483 1160,-453 1026,-453"/>
<text text-anchor="start" x="1034" y="-471" font-family="Helvetica,sans-Serif" font-size="10.00">Physics/HelicityFormalism</text>
<text text-anchor="middle" x="1093" y="-460" font-family="Helvetica,sans-Serif" font-size="10.00">/CoherentIntensity.hpp</text>
</a>
</g>
</g>
<!-- Node1&#45;&gt;Node21 -->
<g id="edge56" class="edge"><title>Node1&#45;&gt;Node21</title>
<path fill="none" stroke="midnightblue" d="M940.608,-599.604C999.601,-591.248 1075.07,-576.137 1094,-552 1106.93,-535.505 1104.85,-510.96 1100.63,-492.837"/>
<polygon fill="midnightblue" stroke="midnightblue" points="1103.97,-491.773 1098,-483.018 1097.21,-493.583 1103.97,-491.773"/>
</g>
<!-- Node22 -->
<g id="node22" class="node"><title>Node22</title>
<g id="a_node22"><a xlink:href="../../d5/df6/SequentialTwoBodyDecay_8hpp.html" target="_top" xlink:title="Physics/HelicityFormalism\l/SequentialTwoBodyDecay.hpp">
<polygon fill="white" stroke="red" points="995,-385 995,-415 1149,-415 1149,-385 995,-385"/>
<text text-anchor="start" x="1003" y="-403" font-family="Helvetica,sans-Serif" font-size="10.00">Physics/HelicityFormalism</text>
<text text-anchor="middle" x="1072" y="-392" font-family="Helvetica,sans-Serif" font-size="10.00">/SequentialTwoBodyDecay.hpp</text>
</a>
</g>
</g>
<!-- Node1&#45;&gt;Node22 -->
<g id="edge72" class="edge"><title>Node1&#45;&gt;Node22</title>
<path fill="none" stroke="midnightblue" d="M881.974,-588.195C896.935,-569.968 920.197,-542.442 942,-520 977.166,-483.803 1020.98,-444.851 1047.7,-421.719"/>
<polygon fill="midnightblue" stroke="midnightblue" points="1050.13,-424.249 1055.42,-415.069 1045.56,-418.947 1050.13,-424.249"/>
</g>
<!-- Node23 -->
<g id="node23" class="node"><title>Node23</title>
<g id="a_node23"><a xlink:href="../../db/d49/PartialDecay_8hpp.html" target="_top" xlink:title="Physics/HelicityFormalism\l/PartialDecay.hpp">
<polygon fill="white" stroke="red" points="964,-317 964,-347 1098,-347 1098,-317 964,-317"/>
<text text-anchor="start" x="972" y="-335" font-family="Helvetica,sans-Serif" font-size="10.00">Physics/HelicityFormalism</text>
<text text-anchor="middle" x="1031" y="-324" font-family="Helvetica,sans-Serif" font-size="10.00">/PartialDecay.hpp</text>
</a>
</g>
</g>
<!-- Node1&#45;&gt;Node23 -->
<g id="edge71" class="edge"><title>Node1&#45;&gt;Node23</title>
<path fill="none" stroke="midnightblue" d="M874.416,-588.459C892.137,-548.315 935.822,-454.423 986,-384 993.24,-373.839 1002.17,-363.379 1010.16,-354.596"/>
<polygon fill="midnightblue" stroke="midnightblue" points="1012.92,-356.768 1017.16,-347.059 1007.79,-352.005 1012.92,-356.768"/>
</g>
<!-- Node24 -->
<g id="node24" class="node"><title>Node24</title>
<g id="a_node24"><a xlink:href="../../d0/dab/HelicityKinematics_8hpp.html" target="_top" xlink:title="Physics/HelicityFormalism\l/HelicityKinematics.hpp">
<polygon fill="white" stroke="red" points="425,-249 425,-279 559,-279 559,-249 425,-249"/>
<text text-anchor="start" x="433" y="-267" font-family="Helvetica,sans-Serif" font-size="10.00">Physics/HelicityFormalism</text>
<text text-anchor="middle" x="492" y="-256" font-family="Helvetica,sans-Serif" font-size="10.00">/HelicityKinematics.hpp</text>
</a>
</g>
</g>
<!-- Node1&#45;&gt;Node24 -->
<g id="edge68" class="edge"><title>Node1&#45;&gt;Node24</title>
<path fill="none" stroke="midnightblue" d="M791.438,-607.448C695.487,-602.346 541,-577.314 541,-469 541,-469 541,-469 541,-399 541,-357.966 520.482,-313.928 506,-287.956"/>
<polygon fill="midnightblue" stroke="midnightblue" points="509.008,-286.165 500.987,-279.243 502.941,-289.656 509.008,-286.165"/>
</g>
<!-- Node25 -->
<g id="node25" class="node"><title>Node25</title>
<g id="a_node25"><a xlink:href="../../d0/d6d/IncoherentIntensity_8hpp.html" target="_top" xlink:title="Physics/HelicityFormalism\l/IncoherentIntensity.hpp">
<polygon fill="white" stroke="red" points="951,-521 951,-551 1085,-551 1085,-521 951,-521"/>
<text text-anchor="start" x="959" y="-539" font-family="Helvetica,sans-Serif" font-size="10.00">Physics/HelicityFormalism</text>
<text text-anchor="middle" x="1018" y="-528" font-family="Helvetica,sans-Serif" font-size="10.00">/IncoherentIntensity.hpp</text>
</a>
</g>
</g>
<!-- Node1&#45;&gt;Node25 -->
<g id="edge69" class="edge"><title>Node1&#45;&gt;Node25</title>
<path fill="none" stroke="midnightblue" d="M907.937,-588.411C929.982,-578.114 956.849,-565.564 978.519,-555.442"/>
<polygon fill="midnightblue" stroke="midnightblue" points="980.186,-558.526 987.765,-551.123 977.224,-552.184 980.186,-558.526"/>
</g>
<!-- Node3 -->
<g id="node3" class="node"><title>Node3</title>
<polygon fill="white" stroke="#bfbfbf" points="600.5,-62.5 600.5,-81.5 653.5,-81.5 653.5,-62.5 600.5,-62.5"/>
<text text-anchor="middle" x="627" y="-69.5" font-family="Helvetica,sans-Serif" font-size="10.00">complex</text>
</g>
<!-- Node2&#45;&gt;Node3 -->
<g id="edge2" class="edge"><title>Node2&#45;&gt;Node3</title>
<path fill="none" stroke="midnightblue" d="M694.824,-248.786C695.756,-222.693 695.045,-165.98 675,-124 668.386,-110.147 656.621,-97.5543 646.395,-88.3475"/>
<polygon fill="midnightblue" stroke="midnightblue" points="648.527,-85.5659 638.651,-81.7304 643.98,-90.8877 648.527,-85.5659"/>
</g>
<!-- Node4 -->
<g id="node4" class="node"><title>Node4</title>
<polygon fill="white" stroke="#bfbfbf" points="1310.5,-57 1310.5,-87 1411.5,-87 1411.5,-57 1310.5,-57"/>
<text text-anchor="start" x="1318.5" y="-75" font-family="Helvetica,sans-Serif" font-size="10.00">boost/property_tree</text>
<text text-anchor="middle" x="1361" y="-64" font-family="Helvetica,sans-Serif" font-size="10.00">/ptree.hpp</text>
</g>
<!-- Node2&#45;&gt;Node4 -->
<g id="edge3" class="edge"><title>Node2&#45;&gt;Node4</title>
<path fill="none" stroke="midnightblue" d="M773.78,-259.644C851.759,-254.662 973.128,-242.345 1074,-212 1172.03,-182.511 1278.17,-123.109 1329.57,-92.3869"/>
<polygon fill="midnightblue" stroke="midnightblue" points="1331.46,-95.3334 1338.22,-87.1759 1327.85,-89.3369 1331.46,-95.3334"/>
</g>
<!-- Node5 -->
<g id="node5" class="node"><title>Node5</title>
<g id="a_node5"><a xlink:href="../../d8/d35/PhysConst_8hpp.html" target="_top" xlink:title="PhysConst provides particle information to the framework. ">
<polygon fill="white" stroke="red" points="558,-124.5 558,-143.5 666,-143.5 666,-124.5 558,-124.5"/>
<text text-anchor="middle" x="612" y="-131.5" font-family="Helvetica,sans-Serif" font-size="10.00">Core/PhysConst.hpp</text>
</a>
</g>
</g>
<!-- Node2&#45;&gt;Node5 -->
<g id="edge4" class="edge"><title>Node2&#45;&gt;Node5</title>
<path fill="none" stroke="midnightblue" d="M676.186,-248.927C665.143,-239.453 651.333,-226.142 642,-212 629.93,-193.709 621.583,-169.832 616.813,-153.547"/>
<polygon fill="midnightblue" stroke="midnightblue" points="620.115,-152.356 614.081,-143.647 613.368,-154.218 620.115,-152.356"/>
</g>
<!-- Node7 -->
<g id="node7" class="node"><title>Node7</title>
<g id="a_node7"><a xlink:href="../../d9/dfb/Spin_8hpp.html" target="_top" xlink:title="Core/Spin.hpp">
<polygon fill="white" stroke="red" points="420.5,-62.5 420.5,-81.5 499.5,-81.5 499.5,-62.5 420.5,-62.5"/>
<text text-anchor="middle" x="460" y="-69.5" font-family="Helvetica,sans-Serif" font-size="10.00">Core/Spin.hpp</text>
</a>
</g>
</g>
<!-- Node2&#45;&gt;Node7 -->
<g id="edge14" class="edge"><title>Node2&#45;&gt;Node7</title>
<path fill="none" stroke="midnightblue" d="M614.338,-252.373C542.618,-242.002 446.702,-225.812 435,-212 405.381,-177.04 432.326,-119.051 449.037,-90.2838"/>
<polygon fill="midnightblue" stroke="midnightblue" points="452.034,-92.0915 454.216,-81.7237 446.045,-88.4683 452.034,-92.0915"/>
</g>
<!-- Node8 -->
<g id="node8" class="node"><title>Node8</title>
<g id="a_node8"><a xlink:href="../../d8/dd4/DataPoint_8hpp.html" target="_top" xlink:title="dataPoint stores kinematic information of a dalitz plot ">
<polygon fill="white" stroke="red" points="710.5,-62.5 710.5,-81.5 813.5,-81.5 813.5,-62.5 710.5,-62.5"/>
<text text-anchor="middle" x="762" y="-69.5" font-family="Helvetica,sans-Serif" font-size="10.00">Core/DataPoint.hpp</text>
</a>
</g>
</g>
<!-- Node2&#45;&gt;Node8 -->
<g id="edge9" class="edge"><title>Node2&#45;&gt;Node8</title>
<path fill="none" stroke="midnightblue" d="M699.111,-248.719C711.255,-214.786 741.835,-129.342 755.374,-91.5139"/>
<polygon fill="midnightblue" stroke="midnightblue" points="758.777,-92.3933 758.851,-81.7988 752.186,-90.0346 758.777,-92.3933"/>
</g>
<!-- Node9 -->
<g id="node9" class="node"><title>Node9</title>
<g id="a_node9"><a xlink:href="../../df/d9f/ParameterList_8hpp.html" target="_top" xlink:title="This class provides a list of fit parameters which can have different types. ">
<polygon fill="white" stroke="red" points="870,-62.5 870,-81.5 990,-81.5 990,-62.5 870,-62.5"/>
<text text-anchor="middle" x="930" y="-69.5" font-family="Helvetica,sans-Serif" font-size="10.00">Core/ParameterList.hpp</text>
</a>
</g>
</g>
<!-- Node2&#45;&gt;Node9 -->
<g id="edge11" class="edge"><title>Node2&#45;&gt;Node9</title>
<path fill="none" stroke="midnightblue" d="M711.398,-248.693C742.22,-223.383 808.499,-169.124 865,-124 880.299,-111.782 897.763,-98.0935 910.733,-87.9766"/>
<polygon fill="midnightblue" stroke="midnightblue" points="913.175,-90.5114 918.913,-81.6051 908.873,-84.9889 913.175,-90.5114"/>
</g>
<!-- Node11 -->
<g id="node11" class="node"><title>Node11</title>
<g id="a_node11"><a xlink:href="../../da/db2/FunctionTree_8hpp.html" target="_top" xlink:title="This class can be used to store a function in a tree&#45;like structure. ">
<polygon fill="white" stroke="red" points="950,-186.5 950,-205.5 1066,-205.5 1066,-186.5 950,-186.5"/>
<text text-anchor="middle" x="1008" y="-193.5" font-family="Helvetica,sans-Serif" font-size="10.00">Core/FunctionTree.hpp</text>
</a>
</g>
</g>
<!-- Node2&#45;&gt;Node11 -->
<g id="edge15" class="edge"><title>Node2&#45;&gt;Node11</title>
<path fill="none" stroke="midnightblue" d="M760.976,-248.922C819.86,-236.545 904.264,-218.804 957.588,-207.596"/>
<polygon fill="midnightblue" stroke="midnightblue" points="958.429,-210.996 967.495,-205.514 956.989,-204.146 958.429,-210.996"/>
</g>
<!-- Node13 -->
<g id="node13" class="node"><title>Node13</title>
<g id="a_node13"><a xlink:href="../../de/dc9/FormFactor_8hpp.html" target="_top" xlink:title="Physics/DecayDynamics\l/FormFactor.hpp">
<polygon fill="white" stroke="black" points="260,-181 260,-211 388,-211 388,-181 260,-181"/>
<text text-anchor="start" x="268" y="-199" font-family="Helvetica,sans-Serif" font-size="10.00">Physics/DecayDynamics</text>
<text text-anchor="middle" x="324" y="-188" font-family="Helvetica,sans-Serif" font-size="10.00">/FormFactor.hpp</text>
</a>
</g>
</g>
<!-- Node2&#45;&gt;Node13 -->
<g id="edge23" class="edge"><title>Node2&#45;&gt;Node13</title>
<path fill="none" stroke="midnightblue" d="M614.307,-249.459C555.568,-239.386 473.75,-225.164 402,-212 400.741,-211.769 399.471,-211.535 398.192,-211.299"/>
<polygon fill="midnightblue" stroke="midnightblue" points="398.729,-207.839 388.257,-209.447 397.446,-214.72 398.729,-207.839"/>
</g>
<!-- Node5&#45;&gt;Node4 -->
<g id="edge6" class="edge"><title>Node5&#45;&gt;Node4</title>
<path fill="none" stroke="midnightblue" d="M666.168,-128.661C802.053,-117.775 1156.72,-89.3639 1299.82,-77.901"/>
<polygon fill="midnightblue" stroke="midnightblue" points="1300.47,-81.3602 1310.16,-77.0728 1299.91,-74.3825 1300.47,-81.3602"/>
</g>
<!-- Node6 -->
<g id="node6" class="node"><title>Node6</title>
<polygon fill="white" stroke="#bfbfbf" points="660,-0.5 660,-19.5 704,-19.5 704,-0.5 660,-0.5"/>
<text text-anchor="middle" x="682" y="-7.5" font-family="Helvetica,sans-Serif" font-size="10.00">vector</text>
</g>
<!-- Node5&#45;&gt;Node6 -->
<g id="edge5" class="edge"><title>Node5&#45;&gt;Node6</title>
<path fill="none" stroke="midnightblue" d="M605.433,-124.272C595.024,-109.283 577.256,-78.1291 591,-56 603.866,-35.2848 629.406,-23.8166 650.162,-17.6511"/>
<polygon fill="midnightblue" stroke="midnightblue" points="651.144,-21.0115 659.891,-15.0331 649.325,-14.252 651.144,-21.0115"/>
</g>
<!-- Node5&#45;&gt;Node7 -->
<g id="edge7" class="edge"><title>Node5&#45;&gt;Node7</title>
<path fill="none" stroke="midnightblue" d="M590.222,-124.403C564.262,-114.156 520.689,-96.9561 491.165,-85.3021"/>
<polygon fill="midnightblue" stroke="midnightblue" points="492.324,-81.9968 481.737,-81.5806 489.754,-88.5079 492.324,-81.9968"/>
</g>
<!-- Node7&#45;&gt;Node6 -->
<g id="edge8" class="edge"><title>Node7&#45;&gt;Node6</title>
<path fill="none" stroke="midnightblue" d="M491.807,-62.4035C534.007,-50.9982 608.07,-30.981 650.244,-19.5827"/>
<polygon fill="midnightblue" stroke="midnightblue" points="651.25,-22.9366 659.99,-16.9487 649.423,-16.1791 651.25,-22.9366"/>
</g>
<!-- Node8&#45;&gt;Node6 -->
<g id="edge10" class="edge"><title>Node8&#45;&gt;Node6</title>
<path fill="none" stroke="midnightblue" d="M750.538,-62.4035C737.825,-52.8688 717.087,-37.3154 701.747,-25.8106"/>
<polygon fill="midnightblue" stroke="midnightblue" points="703.541,-22.7806 693.441,-19.5806 699.341,-28.3806 703.541,-22.7806"/>
</g>
<!-- Node9&#45;&gt;Node6 -->
<g id="edge13" class="edge"><title>Node9&#45;&gt;Node6</title>
<path fill="none" stroke="midnightblue" d="M894.731,-62.4672C846.493,-50.7967 760.634,-30.0243 714.107,-18.7679"/>
<polygon fill="midnightblue" stroke="midnightblue" points="714.802,-15.335 704.259,-16.3853 713.156,-22.1387 714.802,-15.335"/>
</g>
<!-- Node10 -->
<g id="node10" class="node"><title>Node10</title>
<polygon fill="white" stroke="#bfbfbf" points="1182,-0.5 1182,-19.5 1234,-19.5 1234,-0.5 1182,-0.5"/>
<text text-anchor="middle" x="1208" y="-7.5" font-family="Helvetica,sans-Serif" font-size="10.00">memory</text>
</g>
<!-- Node9&#45;&gt;Node10 -->
<g id="edge12" class="edge"><title>Node9&#45;&gt;Node10</title>
<path fill="none" stroke="midnightblue" d="M969.535,-62.4672C1023.64,-50.7896 1119.97,-29.9991 1172.1,-18.7474"/>
<polygon fill="midnightblue" stroke="midnightblue" points="1172.88,-22.1608 1181.92,-16.6298 1171.4,-15.3183 1172.88,-22.1608"/>
</g>
<!-- Node11&#45;&gt;Node6 -->
<g id="edge16" class="edge"><title>Node11&#45;&gt;Node6</title>
<path fill="none" stroke="midnightblue" d="M1010.6,-186.404C1017.33,-162.224 1032.49,-92.9786 998,-56 960.072,-15.3344 787.395,-10.7727 714.559,-10.6995"/>
<polygon fill="midnightblue" stroke="midnightblue" points="714.157,-7.20017 704.163,-10.7194 714.17,-14.2002 714.157,-7.20017"/>
</g>
<!-- Node11&#45;&gt;Node10 -->
<g id="edge17" class="edge"><title>Node11&#45;&gt;Node10</title>
<path fill="none" stroke="midnightblue" d="M1016.71,-186.096C1030.1,-172.488 1056.64,-145.798 1080,-124 1118.39,-88.1807 1164.93,-47.8352 1189.96,-26.3724"/>
<polygon fill="midnightblue" stroke="midnightblue" points="1192.55,-28.7662 1197.87,-19.6066 1188,-23.4466 1192.55,-28.7662"/>
</g>
<!-- Node12 -->
<g id="node12" class="node"><title>Node12</title>
<g id="a_node12"><a xlink:href="../../dc/d66/Functions_8hpp.html" target="_top" xlink:title="This file contains Functions implementing the Strategy interface so they can be used inside a node of...">
<polygon fill="white" stroke="red" points="874,-124.5 874,-143.5 976,-143.5 976,-124.5 874,-124.5"/>
<text text-anchor="middle" x="925" y="-131.5" font-family="Helvetica,sans-Serif" font-size="10.00">Core/Functions.hpp</text>
</a>
</g>
</g>
<!-- Node11&#45;&gt;Node12 -->
<g id="edge18" class="edge"><title>Node11&#45;&gt;Node12</title>
<path fill="none" stroke="midnightblue" d="M996.108,-186.403C982.795,-176.78 961,-161.024 945.043,-149.489"/>
<polygon fill="midnightblue" stroke="midnightblue" points="947.025,-146.603 936.87,-143.581 942.924,-152.276 947.025,-146.603"/>
</g>
<!-- Node12&#45;&gt;Node3 -->
<g id="edge20" class="edge"><title>Node12&#45;&gt;Node3</title>
<path fill="none" stroke="midnightblue" d="M882.47,-124.479C837.409,-115.445 764.183,-100.75 701,-88 688.875,-85.5533 675.635,-82.8723 663.749,-80.4623"/>
<polygon fill="midnightblue" stroke="midnightblue" points="664.211,-76.9847 653.714,-78.4267 662.819,-83.8449 664.211,-76.9847"/>
</g>
<!-- Node12&#45;&gt;Node6 -->
<g id="edge19" class="edge"><title>Node12&#45;&gt;Node6</title>
<path fill="none" stroke="midnightblue" d="M912.049,-124.31C898.976,-115.442 878.301,-101.152 861,-88 843.15,-74.4314 841.687,-66.7309 822,-56 787.461,-37.1735 743.784,-24.7081 714.48,-17.7665"/>
<polygon fill="midnightblue" stroke="midnightblue" points="714.906,-14.2737 704.377,-15.4575 713.346,-21.0977 714.906,-14.2737"/>
</g>
<!-- Node12&#45;&gt;Node8 -->
<g id="edge22" class="edge"><title>Node12&#45;&gt;Node8</title>
<path fill="none" stroke="midnightblue" d="M901.646,-124.403C873.686,-114.111 826.674,-96.8064 795.009,-85.1504"/>
<polygon fill="midnightblue" stroke="midnightblue" points="795.904,-81.7505 785.311,-81.5806 793.486,-88.3196 795.904,-81.7505"/>
</g>
<!-- Node12&#45;&gt;Node9 -->
<g id="edge21" class="edge"><title>Node12&#45;&gt;Node9</title>
<path fill="none" stroke="midnightblue" d="M925.716,-124.403C926.422,-115.938 927.523,-102.728 928.432,-91.8199"/>
<polygon fill="midnightblue" stroke="midnightblue" points="931.942,-91.8367 929.285,-81.5806 924.966,-91.2554 931.942,-91.8367"/>
</g>
<!-- Node14&#45;&gt;Node2 -->
<g id="edge27" class="edge"><title>Node14&#45;&gt;Node2</title>
<path fill="none" stroke="midnightblue" d="M295.378,-321.823C375.73,-310.369 513.598,-290.716 604.274,-277.79"/>
<polygon fill="midnightblue" stroke="midnightblue" points="604.862,-281.242 614.268,-276.366 603.874,-274.312 604.862,-281.242"/>
</g>
<!-- Node14&#45;&gt;Node6 -->
<g id="edge25" class="edge"><title>Node14&#45;&gt;Node6</title>
<path fill="none" stroke="midnightblue" d="M209.921,-316.826C197.927,-307.683 183.621,-294.762 175,-280 155.916,-247.321 156,-234.843 156,-197 156,-197 156,-197 156,-133 156,-31.1747 534.786,-14.3124 649.481,-11.5406"/>
<polygon fill="midnightblue" stroke="midnightblue" points="649.814,-15.0341 659.734,-11.3139 649.659,-8.03585 649.814,-15.0341"/>
</g>
<!-- Node14&#45;&gt;Node13 -->
<g id="edge28" class="edge"><title>Node14&#45;&gt;Node13</title>
<path fill="none" stroke="midnightblue" d="M240.953,-316.66C257.104,-293.387 289.149,-247.215 308.367,-219.526"/>
<polygon fill="midnightblue" stroke="midnightblue" points="311.293,-221.448 314.119,-211.237 305.542,-217.457 311.293,-221.448"/>
</g>
<!-- Node15 -->
<g id="node15" class="node"><title>Node15</title>
<polygon fill="white" stroke="#bfbfbf" points="184,-254.5 184,-273.5 228,-273.5 228,-254.5 184,-254.5"/>
<text text-anchor="middle" x="206" y="-261.5" font-family="Helvetica,sans-Serif" font-size="10.00">cmath</text>
</g>
<!-- Node14&#45;&gt;Node15 -->
<g id="edge26" class="edge"><title>Node14&#45;&gt;Node15</title>
<path fill="none" stroke="midnightblue" d="M225.575,-316.679C221.87,-306.898 216.929,-293.852 212.937,-283.315"/>
<polygon fill="midnightblue" stroke="midnightblue" points="216.159,-281.94 209.344,-273.828 209.613,-284.42 216.159,-281.94"/>
</g>
<!-- Node16 -->
<g id="node16" class="node"><title>Node16</title>
<g id="a_node16"><a xlink:href="../../d1/dba/Coupling_8hpp.html" target="_top" xlink:title="Physics/DecayDynamics\l/Coupling.hpp">
<polygon fill="white" stroke="black" points="0,-249 0,-279 128,-279 128,-249 0,-249"/>
<text text-anchor="start" x="8" y="-267" font-family="Helvetica,sans-Serif" font-size="10.00">Physics/DecayDynamics</text>
<text text-anchor="middle" x="64" y="-256" font-family="Helvetica,sans-Serif" font-size="10.00">/Coupling.hpp</text>
</a>
</g>
</g>
<!-- Node14&#45;&gt;Node16 -->
<g id="edge29" class="edge"><title>Node14&#45;&gt;Node16</title>
<path fill="none" stroke="midnightblue" d="M195.174,-316.841C169.994,-306.89 136.115,-293.5 109.095,-282.822"/>
<polygon fill="midnightblue" stroke="midnightblue" points="110.066,-279.442 99.4795,-279.022 107.493,-285.952 110.066,-279.442"/>
</g>
<!-- Node17&#45;&gt;Node2 -->
<g id="edge31" class="edge"><title>Node17&#45;&gt;Node2</title>
<path fill="none" stroke="midnightblue" d="M689.302,-316.679C690.025,-308.722 690.945,-298.605 691.779,-289.436"/>
<polygon fill="midnightblue" stroke="midnightblue" points="695.281,-289.569 692.701,-279.293 688.31,-288.935 695.281,-289.569"/>
</g>
<!-- Node18 -->
<g id="node18" class="node"><title>Node18</title>
<g id="a_node18"><a xlink:href="../../d4/d37/Kinematics_8hpp.html" target="_top" xlink:title="Core/Kinematics.hpp">
<polygon fill="white" stroke="red" points="444,-186.5 444,-205.5 552,-205.5 552,-186.5 444,-186.5"/>
<text text-anchor="middle" x="498" y="-193.5" font-family="Helvetica,sans-Serif" font-size="10.00">Core/Kinematics.hpp</text>
</a>
</g>
</g>
<!-- Node17&#45;&gt;Node18 -->
<g id="edge32" class="edge"><title>Node17&#45;&gt;Node18</title>
<path fill="none" stroke="midnightblue" d="M662.619,-316.845C645.823,-307.133 623.558,-293.589 605,-280 587.458,-267.156 585.023,-261.524 568,-248 551.872,-235.187 532.96,-221.483 518.862,-211.51"/>
<polygon fill="midnightblue" stroke="midnightblue" points="520.564,-208.429 510.37,-205.543 516.539,-214.156 520.564,-208.429"/>
</g>
<!-- Node18&#45;&gt;Node3 -->
<g id="edge34" class="edge"><title>Node18&#45;&gt;Node3</title>
<path fill="none" stroke="midnightblue" d="M491.225,-186.324C480.984,-172.078 464.15,-143.379 478,-124 503.285,-88.6208 554.664,-77.5169 589.954,-74.1808"/>
<polygon fill="midnightblue" stroke="midnightblue" points="590.643,-77.638 600.343,-73.3766 590.102,-70.6589 590.643,-77.638"/>
</g>
<!-- Node18&#45;&gt;Node5 -->
<g id="edge35" class="edge"><title>Node18&#45;&gt;Node5</title>
<path fill="none" stroke="midnightblue" d="M514.333,-186.403C533.211,-176.468 564.507,-159.997 586.576,-148.381"/>
<polygon fill="midnightblue" stroke="midnightblue" points="588.478,-151.335 595.697,-143.581 585.218,-145.141 588.478,-151.335"/>
</g>
<!-- Node18&#45;&gt;Node6 -->
<g id="edge33" class="edge"><title>Node18&#45;&gt;Node6</title>
<path fill="none" stroke="midnightblue" d="M482.941,-186.462C468.394,-177.537 446.618,-162.294 433,-144 408.927,-111.662 384.932,-86.7532 411,-56 441.308,-20.2448 584.835,-12.867 649.854,-11.3686"/>
<polygon fill="midnightblue" stroke="midnightblue" points="650.021,-14.8661 659.95,-11.1691 649.883,-7.86745 650.021,-14.8661"/>
</g>
<!-- Node18&#45;&gt;Node7 -->
<g id="edge36" class="edge"><title>Node18&#45;&gt;Node7</title>
<path fill="none" stroke="midnightblue" d="M482.31,-186.458C468.272,-177.828 448.62,-163.059 440,-144 432.034,-126.388 440.414,-104.863 448.634,-90.1609"/>
<polygon fill="midnightblue" stroke="midnightblue" points="451.638,-91.9583 453.839,-81.5948 445.655,-88.3232 451.638,-91.9583"/>
</g>
<!-- Node18&#45;&gt;Node8 -->
<g id="edge37" class="edge"><title>Node18&#45;&gt;Node8</title>
<path fill="none" stroke="midnightblue" d="M501.648,-186.482C508.564,-171.4 525.062,-140.078 549,-124 573.465,-107.568 646.396,-92.3369 700.131,-82.8769"/>
<polygon fill="midnightblue" stroke="midnightblue" points="701.008,-86.2772 710.263,-81.121 699.812,-79.38 701.008,-86.2772"/>
</g>
<!-- Node19&#45;&gt;Node2 -->
<g id="edge44" class="edge"><title>Node19&#45;&gt;Node2</title>
<path fill="none" stroke="midnightblue" d="M837.742,-316.841C809.907,-306.802 772.372,-293.265 742.638,-282.542"/>
<polygon fill="midnightblue" stroke="midnightblue" points="743.473,-279.122 732.879,-279.022 741.098,-285.707 743.473,-279.122"/>
</g>
<!-- Node19&#45;&gt;Node4 -->
<g id="edge41" class="edge"><title>Node19&#45;&gt;Node4</title>
<path fill="none" stroke="midnightblue" d="M946.27,-317.361C949.216,-316.881 952.135,-316.425 955,-316 1030.81,-304.753 1238.89,-328.783 1298,-280 1353.42,-234.262 1361.19,-141.3 1361.58,-97.2254"/>
<polygon fill="midnightblue" stroke="midnightblue" points="1365.08,-97.1192 1361.55,-87.1317 1358.08,-97.1441 1365.08,-97.1192"/>
</g>
<!-- Node19&#45;&gt;Node6 -->
<g id="edge39" class="edge"><title>Node19&#45;&gt;Node6</title>
<path fill="none" stroke="midnightblue" d="M863.7,-316.927C830.93,-281.468 745.721,-184.396 701,-88 692.327,-69.3055 687.301,-46.1504 684.622,-30.1407"/>
<polygon fill="midnightblue" stroke="midnightblue" points="688.03,-29.2725 683.067,-19.912 681.11,-30.3243 688.03,-29.2725"/>
</g>
<!-- Node19&#45;&gt;Node7 -->
<g id="edge42" class="edge"><title>Node19&#45;&gt;Node7</title>
<path fill="none" stroke="midnightblue" d="M807.721,-321.758C792.347,-319.786 776.127,-317.767 761,-316 646.115,-302.58 315.346,-308.115 251,-212 206.107,-144.942 335.529,-102.165 410.565,-83.6304"/>
<polygon fill="midnightblue" stroke="midnightblue" points="411.42,-87.0247 420.323,-81.2805 409.781,-80.2193 411.42,-87.0247"/>
</g>
<!-- Node19&#45;&gt;Node10 -->
<g id="edge40" class="edge"><title>Node19&#45;&gt;Node10</title>
<path fill="none" stroke="midnightblue" d="M945.975,-316.959C998.368,-305.861 1065.74,-290.535 1092,-280 1147.46,-257.747 1170.57,-258.591 1208,-212 1251.89,-157.362 1247.4,-124.136 1231,-56 1228.69,-46.4183 1223.98,-36.5813 1219.42,-28.5579"/>
<polygon fill="midnightblue" stroke="midnightblue" points="1222.29,-26.537 1214.1,-19.8095 1216.31,-30.1727 1222.29,-26.537"/>
</g>
<!-- Node19&#45;&gt;Node12 -->
<g id="edge43" class="edge"><title>Node19&#45;&gt;Node12</title>
<path fill="none" stroke="midnightblue" d="M880.452,-316.904C888.961,-282.158 910.942,-192.403 920.477,-153.471"/>
<polygon fill="midnightblue" stroke="midnightblue" points="923.884,-154.272 922.863,-143.727 917.085,-152.607 923.884,-154.272"/>
</g>
<!-- Node19&#45;&gt;Node20 -->
<g id="edge45" class="edge"><title>Node19&#45;&gt;Node20</title>
<path fill="none" stroke="midnightblue" d="M906.819,-316.841C927.34,-307.098 954.802,-294.058 977.05,-283.494"/>
<polygon fill="midnightblue" stroke="midnightblue" points="978.698,-286.586 986.23,-279.135 975.696,-280.263 978.698,-286.586"/>
</g>
<!-- Node20&#45;&gt;Node4 -->
<g id="edge48" class="edge"><title>Node20&#45;&gt;Node4</title>
<path fill="none" stroke="midnightblue" d="M1083.04,-255.925C1125.12,-249.25 1179.31,-236.431 1222,-212 1269.46,-184.837 1269.18,-162.519 1308,-124 1318.01,-114.064 1329.25,-103.206 1338.8,-94.0729"/>
<polygon fill="midnightblue" stroke="midnightblue" points="1341.21,-96.6044 1346.03,-87.1682 1336.38,-91.5405 1341.21,-96.6044"/>
</g>
<!-- Node20&#45;&gt;Node5 -->
<g id="edge54" class="edge"><title>Node20&#45;&gt;Node5</title>
<path fill="none" stroke="midnightblue" d="M948.631,-250.706C904.188,-241.822 844.98,-228.501 794,-212 737.162,-193.603 673.441,-164.608 638.498,-147.944"/>
<polygon fill="midnightblue" stroke="midnightblue" points="639.964,-144.766 629.434,-143.59 636.933,-151.075 639.964,-144.766"/>
</g>
<!-- Node20&#45;&gt;Node6 -->
<g id="edge46" class="edge"><title>Node20&#45;&gt;Node6</title>
<path fill="none" stroke="midnightblue" d="M1050.31,-248.834C1065.69,-240.54 1082.31,-228.422 1091,-212 1122.67,-152.157 1061.62,-83.46 1021,-56 971.423,-22.487 789.721,-13.8502 714.717,-11.6927"/>
<polygon fill="midnightblue" stroke="midnightblue" points="714.543,-8.18687 704.454,-11.4192 714.357,-15.1844 714.543,-8.18687"/>
</g>
<!-- Node20&#45;&gt;Node7 -->
<g id="edge53" class="edge"><title>Node20&#45;&gt;Node7</title>
<path fill="none" stroke="midnightblue" d="M948.807,-256.482C885.916,-249.297 789.797,-235.518 709,-212 634.812,-190.406 615.367,-183.568 549,-144 521.863,-127.821 493.916,-104.166 476.751,-88.6779"/>
<polygon fill="midnightblue" stroke="midnightblue" points="478.979,-85.9728 469.241,-81.7996 474.251,-91.1349 478.979,-85.9728"/>
</g>
<!-- Node20&#45;&gt;Node8 -->
<g id="edge51" class="edge"><title>Node20&#45;&gt;Node8</title>
<path fill="none" stroke="midnightblue" d="M987.674,-248.956C969.271,-239.394 945.061,-225.975 925,-212 867.784,-172.142 806.945,-116.108 778.479,-88.9722"/>
<polygon fill="midnightblue" stroke="midnightblue" points="780.669,-86.223 771.031,-81.8244 775.823,-91.2737 780.669,-86.223"/>
</g>
<!-- Node20&#45;&gt;Node9 -->
<g id="edge49" class="edge"><title>Node20&#45;&gt;Node9</title>
<path fill="none" stroke="midnightblue" d="M1040.29,-248.811C1052.88,-239.989 1067.04,-227.393 1074,-212 1079.86,-199.042 1080.39,-192.707 1074,-180 1050.53,-133.326 996,-101.88 961.184,-85.7437"/>
<polygon fill="midnightblue" stroke="midnightblue" points="962.486,-82.492 951.929,-81.5985 959.625,-88.8805 962.486,-82.492"/>
</g>
<!-- Node20&#45;&gt;Node10 -->
<g id="edge47" class="edge"><title>Node20&#45;&gt;Node10</title>
<path fill="none" stroke="midnightblue" d="M1083.31,-259.611C1118.58,-254.15 1159.43,-241.321 1184,-212 1228.58,-158.798 1218.66,-68.0493 1211.8,-29.3547"/>
<polygon fill="midnightblue" stroke="midnightblue" points="1215.23,-28.6664 1209.91,-19.5036 1208.35,-29.9836 1215.23,-28.6664"/>
</g>
<!-- Node20&#45;&gt;Node11 -->
<g id="edge52" class="edge"><title>Node20&#45;&gt;Node11</title>
<path fill="none" stroke="midnightblue" d="M1014.26,-248.679C1013.1,-239.101 1011.56,-226.394 1010.3,-215.977"/>
<polygon fill="midnightblue" stroke="midnightblue" points="1013.75,-215.334 1009.07,-205.828 1006.8,-216.177 1013.75,-215.334"/>
</g>
<!-- Node20&#45;&gt;Node12 -->
<g id="edge50" class="edge"><title>Node20&#45;&gt;Node12</title>
<path fill="none" stroke="midnightblue" d="M984.64,-248.836C969.21,-240.302 951.676,-227.971 941,-212 929.41,-194.661 925.954,-170.6 925.052,-154.011"/>
<polygon fill="midnightblue" stroke="midnightblue" points="928.548,-153.793 924.768,-143.895 921.551,-153.99 928.548,-153.793"/>
</g>
<!-- Node21&#45;&gt;Node4 -->
<g id="edge57" class="edge"><title>Node21&#45;&gt;Node4</title>
<path fill="none" stroke="midnightblue" d="M1160.24,-457.471C1269.62,-440.062 1474,-398.735 1474,-333 1474,-333 1474,-333 1474,-195 1474,-149.083 1430.38,-113.13 1397.35,-92.4838"/>
<polygon fill="midnightblue" stroke="midnightblue" points="1398.73,-89.2293 1388.35,-87.0708 1395.12,-95.2267 1398.73,-89.2293"/>
</g>
<!-- Node21&#45;&gt;Node22 -->
<g id="edge58" class="edge"><title>Node21&#45;&gt;Node22</title>
<path fill="none" stroke="midnightblue" d="M1088.44,-452.679C1085.86,-444.549 1082.55,-434.164 1079.59,-424.839"/>
<polygon fill="midnightblue" stroke="midnightblue" points="1082.92,-423.761 1076.55,-415.293 1076.24,-425.884 1082.92,-423.761"/>
</g>
<!-- Node22&#45;&gt;Node4 -->
<g id="edge59" class="edge"><title>Node22&#45;&gt;Node4</title>
<path fill="none" stroke="midnightblue" d="M1149.2,-386.607C1256.04,-367.233 1436,-325.606 1436,-265 1436,-265 1436,-265 1436,-195 1436,-154.792 1406.07,-116.698 1384.02,-94.0932"/>
<polygon fill="midnightblue" stroke="midnightblue" points="1386.47,-91.5916 1376.91,-87.0402 1381.55,-96.5645 1386.47,-91.5916"/>
</g>
<!-- Node22&#45;&gt;Node23 -->
<g id="edge60" class="edge"><title>Node22&#45;&gt;Node23</title>
<path fill="none" stroke="midnightblue" d="M1063.1,-384.679C1057.89,-376.29 1051.19,-365.499 1045.26,-355.949"/>
<polygon fill="midnightblue" stroke="midnightblue" points="1048.13,-353.941 1039.88,-347.293 1042.18,-357.634 1048.13,-353.941"/>
</g>
<!-- Node23&#45;&gt;Node2 -->
<g id="edge63" class="edge"><title>Node23&#45;&gt;Node2</title>
<path fill="none" stroke="midnightblue" d="M963.865,-317.742C960.869,-317.153 957.903,-316.57 955,-316 895.114,-304.239 827.484,-291.026 776.074,-280.996"/>
<polygon fill="midnightblue" stroke="midnightblue" points="776.501,-277.514 766.016,-279.034 775.161,-284.384 776.501,-277.514"/>
</g>
<!-- Node23&#45;&gt;Node4 -->
<g id="edge62" class="edge"><title>Node23&#45;&gt;Node4</title>
<path fill="none" stroke="midnightblue" d="M1098.01,-328.895C1177.75,-324.895 1304.15,-313.333 1336,-280 1383.61,-230.177 1374.23,-139.988 1366.3,-97.0171"/>
<polygon fill="midnightblue" stroke="midnightblue" points="1369.72,-96.293 1364.35,-87.1631 1362.86,-97.6524 1369.72,-96.293"/>
</g>
<!-- Node23&#45;&gt;Node10 -->
<g id="edge61" class="edge"><title>Node23&#45;&gt;Node10</title>
<path fill="none" stroke="midnightblue" d="M1098.21,-328.602C1182.88,-324.256 1322.07,-312.291 1361,-280 1440.24,-214.276 1484.8,-135.999 1420,-56 1398.3,-29.2068 1299,-17.7126 1244.35,-13.3444"/>
<polygon fill="midnightblue" stroke="midnightblue" points="1244.28,-9.82959 1234.05,-12.5634 1243.75,-16.8096 1244.28,-9.82959"/>
</g>
<!-- Node23&#45;&gt;Node20 -->
<g id="edge64" class="edge"><title>Node23&#45;&gt;Node20</title>
<path fill="none" stroke="midnightblue" d="M1027.75,-316.679C1025.92,-308.636 1023.59,-298.385 1021.49,-289.137"/>
<polygon fill="midnightblue" stroke="midnightblue" points="1024.88,-288.269 1019.25,-279.293 1018.05,-289.82 1024.88,-288.269"/>
</g>
<!-- Node23&#45;&gt;Node24 -->
<g id="edge65" class="edge"><title>Node23&#45;&gt;Node24</title>
<path fill="none" stroke="midnightblue" d="M963.922,-317.412C960.911,-316.912 957.926,-316.438 955,-316 800.349,-292.835 760.303,-298.291 605,-280 593.407,-278.635 581.157,-277.102 569.169,-275.552"/>
<polygon fill="midnightblue" stroke="midnightblue" points="569.549,-272.072 559.181,-274.249 568.644,-279.013 569.549,-272.072"/>
</g>
<!-- Node24&#45;&gt;Node6 -->
<g id="edge66" class="edge"><title>Node24&#45;&gt;Node6</title>
<path fill="none" stroke="midnightblue" d="M424.835,-258.076C361.298,-251.856 272.543,-238.579 251,-212 242.045,-200.951 245.05,-192.918 251,-180 320.966,-28.1059 561.921,-11.4814 649.692,-10.5807"/>
<polygon fill="midnightblue" stroke="midnightblue" points="649.866,-14.0801 659.852,-10.5414 649.838,-7.08019 649.866,-14.0801"/>
</g>
<!-- Node24&#45;&gt;Node18 -->
<g id="edge67" class="edge"><title>Node24&#45;&gt;Node18</title>
<path fill="none" stroke="midnightblue" d="M493.302,-248.679C494.173,-239.101 495.328,-226.394 496.275,-215.977"/>
<polygon fill="midnightblue" stroke="midnightblue" points="499.778,-216.104 497.197,-205.828 492.806,-215.47 499.778,-216.104"/>
</g>
<!-- Node25&#45;&gt;Node21 -->
<g id="edge70" class="edge"><title>Node25&#45;&gt;Node21</title>
<path fill="none" stroke="midnightblue" d="M1034.27,-520.679C1044.57,-511.623 1058.04,-499.768 1069.48,-489.697"/>
<polygon fill="midnightblue" stroke="midnightblue" points="1071.82,-492.3 1077.02,-483.066 1067.2,-487.045 1071.82,-492.3"/>
</g>
</g>
</svg>
