<?xml version="1.0" encoding="UTF-8" standalone="no"?>
<!DOCTYPE svg PUBLIC "-//W3C//DTD SVG 1.1//EN"
 "http://www.w3.org/Graphics/SVG/1.1/DTD/svg11.dtd">
<!-- Generated by graphviz version 2.36.0 (20140111.2315)
 -->
<!-- Title: /home/travis/build/ComPWA/ComPWA/Physics/DPKinematics/DalitzKinematics.cpp Pages: 1 -->
<svg width="1375pt" height="342pt"
 viewBox="0.00 0.00 1375.00 342.00" xmlns="http://www.w3.org/2000/svg" xmlns:xlink="http://www.w3.org/1999/xlink">
<g id="graph0" class="graph" transform="scale(1 1) rotate(0) translate(4 338)">
<title>/home/travis/build/ComPWA/ComPWA/Physics/DPKinematics/DalitzKinematics.cpp</title>
<polygon fill="white" stroke="none" points="-4,4 -4,-338 1371,-338 1371,4 -4,4"/>
<!-- Node1 -->
<g id="node1" class="node"><title>Node1</title>
<polygon fill="#bfbfbf" stroke="black" points="710.5,-292.5 710.5,-333.5 889.5,-333.5 889.5,-292.5 710.5,-292.5"/>
<text text-anchor="start" x="718.5" y="-321.5" font-family="Helvetica,sans-Serif" font-size="10.00">/home/travis/build</text>
<text text-anchor="start" x="718.5" y="-310.5" font-family="Helvetica,sans-Serif" font-size="10.00">/ComPWA/ComPWA/Physics</text>
<text text-anchor="middle" x="800" y="-299.5" font-family="Helvetica,sans-Serif" font-size="10.00">/DPKinematics/DalitzKinematics.cpp</text>
</g>
<!-- Node2 -->
<g id="node2" class="node"><title>Node2</title>
<polygon fill="white" stroke="#bfbfbf" points="377,-230.5 377,-249.5 425,-249.5 425,-230.5 377,-230.5"/>
<text text-anchor="middle" x="401" y="-237.5" font-family="Helvetica,sans-Serif" font-size="10.00">stdlib.h</text>
</g>
<!-- Node1&#45;&gt;Node2 -->
<g id="edge1" class="edge"><title>Node1&#45;&gt;Node2</title>
<path fill="none" stroke="midnightblue" d="M710.204,-303.674C636.453,-295.505 529.744,-280.62 439,-256 436.016,-255.19 432.946,-254.222 429.907,-253.171"/>
<polygon fill="midnightblue" stroke="midnightblue" points="431.034,-249.856 420.441,-249.633 428.583,-256.413 431.034,-249.856"/>
</g>
<!-- Node3 -->
<g id="node3" class="node"><title>Node3</title>
<g id="a_node3"><a xlink:href="../../d7/dd9/DalitzKinematics_8hpp.html" target="_top" xlink:title="DalitzKinematics stores kinematic information of a dalitz plot. ">
<polygon fill="white" stroke="black" points="481,-225 481,-255 599,-255 599,-225 481,-225"/>
<text text-anchor="start" x="489" y="-243" font-family="Helvetica,sans-Serif" font-size="10.00">Physics/DPKinematics</text>
<text text-anchor="middle" x="540" y="-232" font-family="Helvetica,sans-Serif" font-size="10.00">/DalitzKinematics.hpp</text>
</a>
</g>
</g>
<!-- Node1&#45;&gt;Node3 -->
<g id="edge2" class="edge"><title>Node1&#45;&gt;Node3</title>
<path fill="none" stroke="midnightblue" d="M728.266,-292.411C688.39,-281.522 639.292,-268.114 601.234,-257.722"/>
<polygon fill="midnightblue" stroke="midnightblue" points="601.879,-254.27 591.311,-255.012 600.035,-261.023 601.879,-254.27"/>
</g>
<!-- Node15 -->
<g id="node15" class="node"><title>Node15</title>
<g id="a_node15"><a xlink:href="../../d8/d35/PhysConst_8hpp.html" target="_top" xlink:title="PhysConst provides particle information to the framework. ">
<polygon fill="white" stroke="black" points="109,-168.5 109,-187.5 217,-187.5 217,-168.5 109,-168.5"/>
<text text-anchor="middle" x="163" y="-175.5" font-family="Helvetica,sans-Serif" font-size="10.00">Core/PhysConst.hpp</text>
</a>
</g>
</g>
<!-- Node1&#45;&gt;Node15 -->
<g id="edge23" class="edge"><title>Node1&#45;&gt;Node15</title>
<path fill="none" stroke="midnightblue" d="M710.273,-309.356C642.134,-304.406 547.588,-291.079 472,-256 451.972,-246.706 454.049,-233.249 434,-224 415.542,-215.485 301.485,-198.355 227.342,-187.86"/>
<polygon fill="midnightblue" stroke="midnightblue" points="227.549,-184.354 217.159,-186.424 226.572,-191.286 227.549,-184.354"/>
</g>
<!-- Node17 -->
<g id="node17" class="node"><title>Node17</title>
<g id="a_node17"><a xlink:href="../../d8/dd4/DataPoint_8hpp.html" target="_top" xlink:title="dataPoint stores kinematic information of a dalitz plot ">
<polygon fill="white" stroke="black" points="635.5,-230.5 635.5,-249.5 738.5,-249.5 738.5,-230.5 635.5,-230.5"/>
<text text-anchor="middle" x="687" y="-237.5" font-family="Helvetica,sans-Serif" font-size="10.00">Core/DataPoint.hpp</text>
</a>
</g>
</g>
<!-- Node1&#45;&gt;Node17 -->
<g id="edge33" class="edge"><title>Node1&#45;&gt;Node17</title>
<path fill="none" stroke="midnightblue" d="M768.823,-292.411C749.972,-280.567 726.379,-265.743 709.378,-255.06"/>
<polygon fill="midnightblue" stroke="midnightblue" points="711.012,-251.953 700.682,-249.597 707.288,-257.881 711.012,-251.953"/>
</g>
<!-- Node21 -->
<g id="node21" class="node"><title>Node21</title>
<polygon fill="white" stroke="#bfbfbf" points="757,-230.5 757,-249.5 843,-249.5 843,-230.5 757,-230.5"/>
<text text-anchor="middle" x="800" y="-237.5" font-family="Helvetica,sans-Serif" font-size="10.00">gsl/gsl_monte.h</text>
</g>
<!-- Node1&#45;&gt;Node21 -->
<g id="edge44" class="edge"><title>Node1&#45;&gt;Node21</title>
<path fill="none" stroke="midnightblue" d="M800,-292.223C800,-282.086 800,-269.807 800,-259.813"/>
<polygon fill="midnightblue" stroke="midnightblue" points="803.5,-259.735 800,-249.735 796.5,-259.735 803.5,-259.735"/>
</g>
<!-- Node22 -->
<g id="node22" class="node"><title>Node22</title>
<polygon fill="white" stroke="#bfbfbf" points="861.5,-230.5 861.5,-249.5 972.5,-249.5 972.5,-230.5 861.5,-230.5"/>
<text text-anchor="middle" x="917" y="-237.5" font-family="Helvetica,sans-Serif" font-size="10.00">gsl/gsl_monte_plain.h</text>
</g>
<!-- Node1&#45;&gt;Node22 -->
<g id="edge45" class="edge"><title>Node1&#45;&gt;Node22</title>
<path fill="none" stroke="midnightblue" d="M832.28,-292.411C851.799,-280.567 876.227,-265.743 893.83,-255.06"/>
<polygon fill="midnightblue" stroke="midnightblue" points="896.1,-257.777 902.833,-249.597 892.469,-251.793 896.1,-257.777"/>
</g>
<!-- Node23 -->
<g id="node23" class="node"><title>Node23</title>
<polygon fill="white" stroke="#bfbfbf" points="990.5,-230.5 990.5,-249.5 1105.5,-249.5 1105.5,-230.5 990.5,-230.5"/>
<text text-anchor="middle" x="1048" y="-237.5" font-family="Helvetica,sans-Serif" font-size="10.00">gsl/gsl_monte_miser.h</text>
</g>
<!-- Node1&#45;&gt;Node23 -->
<g id="edge46" class="edge"><title>Node1&#45;&gt;Node23</title>
<path fill="none" stroke="midnightblue" d="M868.424,-292.411C913.374,-279.542 970.61,-263.156 1008.23,-252.386"/>
<polygon fill="midnightblue" stroke="midnightblue" points="1009.64,-255.622 1018.29,-249.504 1007.72,-248.892 1009.64,-255.622"/>
</g>
<!-- Node24 -->
<g id="node24" class="node"><title>Node24</title>
<polygon fill="white" stroke="#bfbfbf" points="1123.5,-230.5 1123.5,-249.5 1240.5,-249.5 1240.5,-230.5 1123.5,-230.5"/>
<text text-anchor="middle" x="1182" y="-237.5" font-family="Helvetica,sans-Serif" font-size="10.00">gsl/gsl_monte_vegas.h</text>
</g>
<!-- Node1&#45;&gt;Node24 -->
<g id="edge47" class="edge"><title>Node1&#45;&gt;Node24</title>
<path fill="none" stroke="midnightblue" d="M889.511,-297.031C952.431,-286.266 1038.52,-271.05 1114,-256 1120.69,-254.666 1127.74,-253.191 1134.66,-251.702"/>
<polygon fill="midnightblue" stroke="midnightblue" points="1135.62,-255.074 1144.65,-249.526 1134.13,-248.235 1135.62,-255.074"/>
</g>
<!-- Node25 -->
<g id="node25" class="node"><title>Node25</title>
<polygon fill="white" stroke="#bfbfbf" points="1258.5,-230.5 1258.5,-249.5 1367.5,-249.5 1367.5,-230.5 1258.5,-230.5"/>
<text text-anchor="middle" x="1313" y="-237.5" font-family="Helvetica,sans-Serif" font-size="10.00">gsl/gsl_sf_legendre.h</text>
</g>
<!-- Node1&#45;&gt;Node25 -->
<g id="edge48" class="edge"><title>Node1&#45;&gt;Node25</title>
<path fill="none" stroke="midnightblue" d="M889.871,-303.626C980.818,-294.487 1125.28,-278.149 1249,-256 1255.72,-254.797 1262.79,-253.338 1269.68,-251.808"/>
<polygon fill="midnightblue" stroke="midnightblue" points="1270.63,-255.182 1279.59,-249.537 1269.06,-248.359 1270.63,-255.182"/>
</g>
<!-- Node4 -->
<g id="node4" class="node"><title>Node4</title>
<polygon fill="white" stroke="#bfbfbf" points="351,-56.5 351,-75.5 405,-75.5 405,-56.5 351,-56.5"/>
<text text-anchor="middle" x="378" y="-63.5" font-family="Helvetica,sans-Serif" font-size="10.00">iostream</text>
</g>
<!-- Node3&#45;&gt;Node4 -->
<g id="edge3" class="edge"><title>Node3&#45;&gt;Node4</title>
<path fill="none" stroke="midnightblue" d="M487.87,-224.974C419.129,-205.302 304.041,-167.891 280,-132 275.053,-124.615 275.202,-119.483 280,-112 287.226,-100.73 316.964,-88.008 341.805,-78.9734"/>
<polygon fill="midnightblue" stroke="midnightblue" points="343.118,-82.2214 351.375,-75.5825 340.78,-75.6234 343.118,-82.2214"/>
</g>
<!-- Node5 -->
<g id="node5" class="node"><title>Node5</title>
<polygon fill="white" stroke="#bfbfbf" points="540,-56.5 540,-75.5 584,-75.5 584,-56.5 540,-56.5"/>
<text text-anchor="middle" x="562" y="-63.5" font-family="Helvetica,sans-Serif" font-size="10.00">vector</text>
</g>
<!-- Node3&#45;&gt;Node5 -->
<g id="edge4" class="edge"><title>Node3&#45;&gt;Node5</title>
<path fill="none" stroke="midnightblue" d="M541.8,-224.925C545.746,-194.073 555.159,-120.484 559.601,-85.7549"/>
<polygon fill="midnightblue" stroke="midnightblue" points="563.105,-85.9479 560.902,-75.5847 556.161,-85.0598 563.105,-85.9479"/>
</g>
<!-- Node6 -->
<g id="node6" class="node"><title>Node6</title>
<g id="a_node6"><a xlink:href="../../d4/d37/Kinematics_8hpp.html" target="_top" xlink:title="Core/Kinematics.hpp">
<polygon fill="white" stroke="black" points="568,-168.5 568,-187.5 676,-187.5 676,-168.5 568,-168.5"/>
<text text-anchor="middle" x="622" y="-175.5" font-family="Helvetica,sans-Serif" font-size="10.00">Core/Kinematics.hpp</text>
</a>
</g>
</g>
<!-- Node3&#45;&gt;Node6 -->
<g id="edge5" class="edge"><title>Node3&#45;&gt;Node6</title>
<path fill="none" stroke="midnightblue" d="M559.433,-224.781C572.208,-215.433 588.889,-203.227 601.814,-193.77"/>
<polygon fill="midnightblue" stroke="midnightblue" points="604.065,-196.46 610.068,-187.731 599.931,-190.811 604.065,-196.46"/>
</g>
<!-- Node10 -->
<g id="node10" class="node"><title>Node10</title>
<g id="a_node10"><a xlink:href="../../d4/d03/Utility_8hpp.html" target="_top" xlink:title="Basic structures for amplitude calculations. ">
<polygon fill="white" stroke="black" points="410.5,-112.5 410.5,-131.5 495.5,-131.5 495.5,-112.5 410.5,-112.5"/>
<text text-anchor="middle" x="453" y="-119.5" font-family="Helvetica,sans-Serif" font-size="10.00">Core/Utility.hpp</text>
</a>
</g>
</g>
<!-- Node3&#45;&gt;Node10 -->
<g id="edge20" class="edge"><title>Node3&#45;&gt;Node10</title>
<path fill="none" stroke="midnightblue" d="M529.332,-224.776C513.229,-203.306 482.776,-162.701 465.603,-139.803"/>
<polygon fill="midnightblue" stroke="midnightblue" points="468.33,-137.607 459.53,-131.707 462.73,-141.807 468.33,-137.607"/>
</g>
<!-- Node13 -->
<g id="node13" class="node"><title>Node13</title>
<g id="a_node13"><a xlink:href="../../da/db4/Logging_8hpp.html" target="_top" xlink:title="Core/Logging.hpp">
<polygon fill="white" stroke="red" points="3.5,-56.5 3.5,-75.5 96.5,-75.5 96.5,-56.5 3.5,-56.5"/>
<text text-anchor="middle" x="50" y="-63.5" font-family="Helvetica,sans-Serif" font-size="10.00">Core/Logging.hpp</text>
</a>
</g>
</g>
<!-- Node3&#45;&gt;Node13 -->
<g id="edge21" class="edge"><title>Node3&#45;&gt;Node13</title>
<path fill="none" stroke="midnightblue" d="M480.898,-230.282C465.633,-228.128 449.216,-225.896 434,-224 285.842,-205.538 234.675,-252.456 100,-188 68.2507,-172.805 57.4698,-164.519 44,-132 37.9013,-117.276 40.3133,-99.1151 43.7262,-85.7355"/>
<polygon fill="midnightblue" stroke="midnightblue" points="47.1842,-86.3839 46.6635,-75.8018 40.4715,-84.3989 47.1842,-86.3839"/>
</g>
<!-- Node6&#45;&gt;Node5 -->
<g id="edge6" class="edge"><title>Node6&#45;&gt;Node5</title>
<path fill="none" stroke="midnightblue" d="M617.292,-168.368C607.478,-150.376 584.664,-108.55 571.615,-84.6267"/>
<polygon fill="midnightblue" stroke="midnightblue" points="574.547,-82.6944 566.686,-75.5914 568.402,-86.0464 574.547,-82.6944"/>
</g>
<!-- Node7 -->
<g id="node7" class="node"><title>Node7</title>
<polygon fill="white" stroke="#bfbfbf" points="432.5,-0.5 432.5,-19.5 473.5,-19.5 473.5,-0.5 432.5,-0.5"/>
<text text-anchor="middle" x="453" y="-7.5" font-family="Helvetica,sans-Serif" font-size="10.00">string</text>
</g>
<!-- Node6&#45;&gt;Node7 -->
<g id="edge7" class="edge"><title>Node6&#45;&gt;Node7</title>
<path fill="none" stroke="midnightblue" d="M662.341,-168.439C695.071,-159.199 733.973,-141.666 722,-112 685.289,-21.043 546.281,-10.2255 483.774,-10.1005"/>
<polygon fill="midnightblue" stroke="midnightblue" points="483.703,-6.60082 473.729,-10.1727 483.754,-13.6006 483.703,-6.60082"/>
</g>
<!-- Node8 -->
<g id="node8" class="node"><title>Node8</title>
<polygon fill="white" stroke="#bfbfbf" points="153.5,-56.5 153.5,-75.5 206.5,-75.5 206.5,-56.5 153.5,-56.5"/>
<text text-anchor="middle" x="180" y="-63.5" font-family="Helvetica,sans-Serif" font-size="10.00">complex</text>
</g>
<!-- Node6&#45;&gt;Node8 -->
<g id="edge8" class="edge"><title>Node6&#45;&gt;Node8</title>
<path fill="none" stroke="midnightblue" d="M567.812,-177.184C498.857,-175.791 377.054,-167.824 280,-132 248.499,-120.373 216.781,-97.3939 197.76,-82.1106"/>
<polygon fill="midnightblue" stroke="midnightblue" points="199.909,-79.3457 189.961,-75.6985 195.463,-84.7529 199.909,-79.3457"/>
</g>
<!-- Node9 -->
<g id="node9" class="node"><title>Node9</title>
<g id="a_node9"><a xlink:href="../../df/d7d/Event_8hpp.html" target="_top" xlink:title="This class provides a internal container for event&#45;based information. ">
<polygon fill="white" stroke="red" points="628.5,-112.5 628.5,-131.5 713.5,-131.5 713.5,-112.5 628.5,-112.5"/>
<text text-anchor="middle" x="671" y="-119.5" font-family="Helvetica,sans-Serif" font-size="10.00">Core/Event.hpp</text>
</a>
</g>
</g>
<!-- Node6&#45;&gt;Node9 -->
<g id="edge9" class="edge"><title>Node6&#45;&gt;Node9</title>
<path fill="none" stroke="midnightblue" d="M630.091,-168.083C637.155,-160.298 647.588,-148.801 656.149,-139.367"/>
<polygon fill="midnightblue" stroke="midnightblue" points="658.931,-141.509 663.059,-131.751 653.747,-136.805 658.931,-141.509"/>
</g>
<!-- Node6&#45;&gt;Node10 -->
<g id="edge13" class="edge"><title>Node6&#45;&gt;Node10</title>
<path fill="none" stroke="midnightblue" d="M595.221,-168.444C566.667,-159.32 521.267,-144.813 489.463,-134.651"/>
<polygon fill="midnightblue" stroke="midnightblue" points="490.244,-131.226 479.653,-131.516 488.114,-137.894 490.244,-131.226"/>
</g>
<!-- Node9&#45;&gt;Node4 -->
<g id="edge12" class="edge"><title>Node9&#45;&gt;Node4</title>
<path fill="none" stroke="midnightblue" d="M628.395,-113.148C570.989,-102.568 469.733,-83.9064 415.228,-73.8611"/>
<polygon fill="midnightblue" stroke="midnightblue" points="415.765,-70.4013 405.296,-72.0308 414.496,-77.2853 415.765,-70.4013"/>
</g>
<!-- Node9&#45;&gt;Node5 -->
<g id="edge10" class="edge"><title>Node9&#45;&gt;Node5</title>
<path fill="none" stroke="midnightblue" d="M653.487,-112.324C635.928,-103.625 608.669,-90.1202 588.469,-80.113"/>
<polygon fill="midnightblue" stroke="midnightblue" points="589.984,-76.9575 579.469,-75.6545 586.876,-83.23 589.984,-76.9575"/>
</g>
<!-- Node9&#45;&gt;Node7 -->
<g id="edge11" class="edge"><title>Node9&#45;&gt;Node7</title>
<path fill="none" stroke="midnightblue" d="M670.507,-112.404C669.225,-98.4216 664.61,-70.827 648,-56 623.913,-34.4983 532.015,-20.4981 483.467,-14.4406"/>
<polygon fill="midnightblue" stroke="midnightblue" points="483.873,-10.9643 473.525,-13.2357 483.031,-17.9135 483.873,-10.9643"/>
</g>
<!-- Node10&#45;&gt;Node4 -->
<g id="edge17" class="edge"><title>Node10&#45;&gt;Node4</title>
<path fill="none" stroke="midnightblue" d="M440.95,-112.324C429.537,-104.107 412.169,-91.6017 398.565,-81.8069"/>
<polygon fill="midnightblue" stroke="midnightblue" points="400.43,-78.8366 390.269,-75.8339 396.34,-84.5174 400.43,-78.8366"/>
</g>
<!-- Node10&#45;&gt;Node5 -->
<g id="edge16" class="edge"><title>Node10&#45;&gt;Node5</title>
<path fill="none" stroke="midnightblue" d="M470.513,-112.324C488.072,-103.625 515.331,-90.1202 535.531,-80.113"/>
<polygon fill="midnightblue" stroke="midnightblue" points="537.124,-83.23 544.531,-75.6545 534.016,-76.9575 537.124,-83.23"/>
</g>
<!-- Node10&#45;&gt;Node7 -->
<g id="edge14" class="edge"><title>Node10&#45;&gt;Node7</title>
<path fill="none" stroke="midnightblue" d="M453,-112.368C453,-94.617 453,-53.6664 453,-29.5974"/>
<polygon fill="midnightblue" stroke="midnightblue" points="456.5,-29.5914 453,-19.5914 449.5,-29.5915 456.5,-29.5914"/>
</g>
<!-- Node11 -->
<g id="node11" class="node"><title>Node11</title>
<polygon fill="white" stroke="#bfbfbf" points="604.5,-56.5 604.5,-75.5 639.5,-75.5 639.5,-56.5 604.5,-56.5"/>
<text text-anchor="middle" x="622" y="-63.5" font-family="Helvetica,sans-Serif" font-size="10.00">map</text>
</g>
<!-- Node10&#45;&gt;Node11 -->
<g id="edge15" class="edge"><title>Node10&#45;&gt;Node11</title>
<path fill="none" stroke="midnightblue" d="M479.779,-112.444C511.053,-102.451 562.533,-86.0013 594.228,-75.874"/>
<polygon fill="midnightblue" stroke="midnightblue" points="595.7,-79.078 604.16,-72.7003 593.569,-72.4101 595.7,-79.078"/>
</g>
<!-- Node12 -->
<g id="node12" class="node"><title>Node12</title>
<g id="a_node12"><a xlink:href="../../d2/de9/Exceptions_8hpp.html" target="_top" xlink:title="This class defines the ComPWA exception base&#45;class and provides a set of standard exceptions...">
<polygon fill="white" stroke="red" points="225,-56.5 225,-75.5 333,-75.5 333,-56.5 225,-56.5"/>
<text text-anchor="middle" x="279" y="-63.5" font-family="Helvetica,sans-Serif" font-size="10.00">Core/Exceptions.hpp</text>
</a>
</g>
</g>
<!-- Node10&#45;&gt;Node12 -->
<g id="edge18" class="edge"><title>Node10&#45;&gt;Node12</title>
<path fill="none" stroke="midnightblue" d="M425.429,-112.444C395.903,-103.28 348.882,-88.6876 316.117,-78.5192"/>
<polygon fill="midnightblue" stroke="midnightblue" points="317.03,-75.1378 306.442,-75.5164 314.955,-81.8232 317.03,-75.1378"/>
</g>
<!-- Node12&#45;&gt;Node7 -->
<g id="edge19" class="edge"><title>Node12&#45;&gt;Node7</title>
<path fill="none" stroke="midnightblue" d="M306.571,-56.4435C338.132,-46.6487 389.681,-30.6509 422.442,-20.4836"/>
<polygon fill="midnightblue" stroke="midnightblue" points="423.856,-23.7094 432.369,-17.4026 421.781,-17.0239 423.856,-23.7094"/>
</g>
<!-- Node14 -->
<g id="node14" class="node"><title>Node14</title>
<polygon fill="white" stroke="#bfbfbf" points="-0.5,-0.5 -0.5,-19.5 100.5,-19.5 100.5,-0.5 -0.5,-0.5"/>
<text text-anchor="middle" x="50" y="-7.5" font-family="Helvetica,sans-Serif" font-size="10.00">boost/log/trivial.hpp</text>
</g>
<!-- Node13&#45;&gt;Node14 -->
<g id="edge22" class="edge"><title>Node13&#45;&gt;Node14</title>
<path fill="none" stroke="midnightblue" d="M50,-56.083C50,-49.0059 50,-38.8611 50,-29.9865"/>
<polygon fill="midnightblue" stroke="midnightblue" points="53.5001,-29.751 50,-19.7511 46.5001,-29.7511 53.5001,-29.751"/>
</g>
<!-- Node15&#45;&gt;Node4 -->
<g id="edge24" class="edge"><title>Node15&#45;&gt;Node4</title>
<path fill="none" stroke="midnightblue" d="M166.702,-168.371C173.171,-154.341 187.888,-126.68 209,-112 211.764,-110.078 291.836,-89.2147 340.756,-76.5815"/>
<polygon fill="midnightblue" stroke="midnightblue" points="341.875,-79.9076 350.683,-74.0204 340.126,-73.1295 341.875,-79.9076"/>
</g>
<!-- Node15&#45;&gt;Node5 -->
<g id="edge25" class="edge"><title>Node15&#45;&gt;Node5</title>
<path fill="none" stroke="midnightblue" d="M217.225,-174.421C300.525,-169.701 455.442,-157.696 504,-132 524.812,-120.987 541.761,-99.3285 551.849,-84.0463"/>
<polygon fill="midnightblue" stroke="midnightblue" points="554.858,-85.8361 557.217,-75.5071 548.932,-82.1109 554.858,-85.8361"/>
</g>
<!-- Node15&#45;&gt;Node10 -->
<g id="edge32" class="edge"><title>Node15&#45;&gt;Node10</title>
<path fill="none" stroke="midnightblue" d="M208.951,-168.444C260.974,-158.757 345.578,-143.003 400.254,-132.822"/>
<polygon fill="midnightblue" stroke="midnightblue" points="400.91,-136.26 410.1,-130.988 399.628,-129.378 400.91,-136.26"/>
</g>
<!-- Node16 -->
<g id="node16" class="node"><title>Node16</title>
<g id="a_node16"><a xlink:href="../../db/dce/Parameter_8hpp.html" target="_top" xlink:title="This class implements some internal container of parameters. ">
<polygon fill="white" stroke="red" points="53,-112.5 53,-131.5 157,-131.5 157,-112.5 53,-112.5"/>
<text text-anchor="middle" x="105" y="-119.5" font-family="Helvetica,sans-Serif" font-size="10.00">Core/Parameter.hpp</text>
</a>
</g>
</g>
<!-- Node15&#45;&gt;Node16 -->
<g id="edge26" class="edge"><title>Node15&#45;&gt;Node16</title>
<path fill="none" stroke="midnightblue" d="M153.681,-168.324C145.107,-160.341 132.188,-148.313 121.812,-138.653"/>
<polygon fill="midnightblue" stroke="midnightblue" points="124.192,-136.086 114.488,-131.834 119.422,-141.21 124.192,-136.086"/>
</g>
<!-- Node16&#45;&gt;Node4 -->
<g id="edge27" class="edge"><title>Node16&#45;&gt;Node4</title>
<path fill="none" stroke="midnightblue" d="M154.646,-112.428C200.556,-104.309 270.903,-91.3838 341.022,-76.118"/>
<polygon fill="midnightblue" stroke="midnightblue" points="341.895,-79.51 350.912,-73.9487 340.395,-72.6725 341.895,-79.51"/>
</g>
<!-- Node16&#45;&gt;Node7 -->
<g id="edge28" class="edge"><title>Node16&#45;&gt;Node7</title>
<path fill="none" stroke="midnightblue" d="M107.583,-112.121C112.27,-97.7328 123.626,-69.5675 144,-56 189.186,-25.9088 352.805,-15.3579 421.884,-12.1907"/>
<polygon fill="midnightblue" stroke="midnightblue" points="422.288,-15.6765 432.126,-11.7439 421.983,-8.68316 422.288,-15.6765"/>
</g>
<!-- Node16&#45;&gt;Node8 -->
<g id="edge29" class="edge"><title>Node16&#45;&gt;Node8</title>
<path fill="none" stroke="midnightblue" d="M117.05,-112.324C128.463,-104.107 145.831,-91.6017 159.435,-81.8069"/>
<polygon fill="midnightblue" stroke="midnightblue" points="161.66,-84.5174 167.731,-75.8339 157.57,-78.8366 161.66,-84.5174"/>
</g>
<!-- Node16&#45;&gt;Node12 -->
<g id="edge30" class="edge"><title>Node16&#45;&gt;Node12</title>
<path fill="none" stroke="midnightblue" d="M132.571,-112.444C162.097,-103.28 209.118,-88.6876 241.883,-78.5192"/>
<polygon fill="midnightblue" stroke="midnightblue" points="243.045,-81.8232 251.558,-75.5164 240.97,-75.1378 243.045,-81.8232"/>
</g>
<!-- Node16&#45;&gt;Node13 -->
<g id="edge31" class="edge"><title>Node16&#45;&gt;Node13</title>
<path fill="none" stroke="midnightblue" d="M95.9179,-112.083C87.8287,-104.141 75.8046,-92.3354 66.0898,-82.7973"/>
<polygon fill="midnightblue" stroke="midnightblue" points="68.5009,-80.2595 58.9131,-75.7511 63.5967,-85.2545 68.5009,-80.2595"/>
</g>
<!-- Node17&#45;&gt;Node5 -->
<g id="edge36" class="edge"><title>Node17&#45;&gt;Node5</title>
<path fill="none" stroke="midnightblue" d="M693.985,-230.337C710.836,-208.329 750.311,-149.372 722,-112 721.008,-110.69 640.364,-88.4459 593.963,-75.7327"/>
<polygon fill="midnightblue" stroke="midnightblue" points="594.641,-72.2896 584.071,-73.0249 592.792,-79.0412 594.641,-72.2896"/>
</g>
<!-- Node17&#45;&gt;Node6 -->
<g id="edge38" class="edge"><title>Node17&#45;&gt;Node6</title>
<path fill="none" stroke="midnightblue" d="M677.687,-230.403C667.551,-221.047 651.136,-205.895 638.748,-194.46"/>
<polygon fill="midnightblue" stroke="midnightblue" points="641.018,-191.792 631.296,-187.581 636.27,-196.935 641.018,-191.792"/>
</g>
<!-- Node17&#45;&gt;Node9 -->
<g id="edge43" class="edge"><title>Node17&#45;&gt;Node9</title>
<path fill="none" stroke="midnightblue" d="M687.519,-230.182C688.141,-216.685 688.684,-190.139 685,-168 683.506,-159.021 680.666,-149.348 677.933,-141.279"/>
<polygon fill="midnightblue" stroke="midnightblue" points="681.199,-140.018 674.523,-131.79 674.611,-142.385 681.199,-140.018"/>
</g>
<!-- Node17&#45;&gt;Node11 -->
<g id="edge37" class="edge"><title>Node17&#45;&gt;Node11</title>
<path fill="none" stroke="midnightblue" d="M707.189,-230.435C723.684,-222.218 745.87,-208.083 756,-188 771.211,-157.841 775.72,-139.424 756,-112 731.906,-78.4927 681.641,-69.5892 649.987,-67.4238"/>
<polygon fill="midnightblue" stroke="midnightblue" points="649.801,-63.9104 639.64,-66.9097 649.454,-70.9018 649.801,-63.9104"/>
</g>
<!-- Node18 -->
<g id="node18" class="node"><title>Node18</title>
<polygon fill="white" stroke="#bfbfbf" points="808.5,-168.5 808.5,-187.5 853.5,-187.5 853.5,-168.5 808.5,-168.5"/>
<text text-anchor="middle" x="831" y="-175.5" font-family="Helvetica,sans-Serif" font-size="10.00">cstdlib</text>
</g>
<!-- Node17&#45;&gt;Node18 -->
<g id="edge34" class="edge"><title>Node17&#45;&gt;Node18</title>
<path fill="none" stroke="midnightblue" d="M707.632,-230.403C732.119,-220.2 773.147,-203.105 801.109,-191.454"/>
<polygon fill="midnightblue" stroke="midnightblue" points="802.522,-194.658 810.407,-187.581 799.83,-188.196 802.522,-194.658"/>
</g>
<!-- Node19 -->
<g id="node19" class="node"><title>Node19</title>
<polygon fill="white" stroke="#bfbfbf" points="871.5,-168.5 871.5,-187.5 918.5,-187.5 918.5,-168.5 871.5,-168.5"/>
<text text-anchor="middle" x="895" y="-175.5" font-family="Helvetica,sans-Serif" font-size="10.00">math.h</text>
</g>
<!-- Node17&#45;&gt;Node19 -->
<g id="edge35" class="edge"><title>Node17&#45;&gt;Node19</title>
<path fill="none" stroke="midnightblue" d="M716.801,-230.403C755.139,-219.344 821.546,-200.189 861.566,-188.644"/>
<polygon fill="midnightblue" stroke="midnightblue" points="862.744,-191.948 871.382,-185.813 860.803,-185.222 862.744,-191.948"/>
</g>
<!-- Node20 -->
<g id="node20" class="node"><title>Node20</title>
<g id="a_node20"><a xlink:href="../../d8/d6f/Efficiency_8hpp.html" target="_top" xlink:title="Core/Efficiency.hpp">
<polygon fill="white" stroke="black" points="289.5,-112.5 289.5,-131.5 392.5,-131.5 392.5,-112.5 289.5,-112.5"/>
<text text-anchor="middle" x="341" y="-119.5" font-family="Helvetica,sans-Serif" font-size="10.00">Core/Efficiency.hpp</text>
</a>
</g>
</g>
<!-- Node17&#45;&gt;Node20 -->
<g id="edge39" class="edge"><title>Node17&#45;&gt;Node20</title>
<path fill="none" stroke="midnightblue" d="M661.558,-230.47C600.571,-210.024 445.941,-158.183 376.141,-134.781"/>
<polygon fill="midnightblue" stroke="midnightblue" points="377.073,-131.403 366.479,-131.542 374.848,-138.04 377.073,-131.403"/>
</g>
<!-- Node20&#45;&gt;Node4 -->
<g id="edge40" class="edge"><title>Node20&#45;&gt;Node4</title>
<path fill="none" stroke="midnightblue" d="M347.11,-112.083C352.282,-104.534 359.846,-93.4948 366.194,-84.2298"/>
<polygon fill="midnightblue" stroke="midnightblue" points="369.239,-85.9787 372.004,-75.7511 363.464,-82.0221 369.239,-85.9787"/>
</g>
<!-- Node20&#45;&gt;Node5 -->
<g id="edge41" class="edge"><title>Node20&#45;&gt;Node5</title>
<path fill="none" stroke="midnightblue" d="M376.018,-112.444C418.431,-102.08 489.262,-84.7732 530.181,-74.7747"/>
<polygon fill="midnightblue" stroke="midnightblue" points="531.021,-78.1725 539.905,-72.3989 529.36,-71.3726 531.021,-78.1725"/>
</g>
<!-- Node20&#45;&gt;Node13 -->
<g id="edge42" class="edge"><title>Node20&#45;&gt;Node13</title>
<path fill="none" stroke="midnightblue" d="M294.89,-112.444C243.594,-102.925 160.727,-87.5472 105.809,-77.3563"/>
<polygon fill="midnightblue" stroke="midnightblue" points="106.365,-73.8998 95.8941,-75.5164 105.088,-80.7823 106.365,-73.8998"/>
</g>
</g>
</svg>
