<?xml version="1.0" encoding="UTF-8" standalone="no"?>
<!DOCTYPE svg PUBLIC "-//W3C//DTD SVG 1.1//EN"
 "http://www.w3.org/Graphics/SVG/1.1/DTD/svg11.dtd">
<!-- Generated by graphviz version 2.26.3 (20100126.1600)
 -->
<!-- Title: G Pages: 1 -->
<svg width="656pt" height="204pt"
 viewBox="0.00 0.00 656.00 204.00" xmlns="http://www.w3.org/2000/svg" xmlns:xlink="http://www.w3.org/1999/xlink">
<g id="graph1" class="graph" transform="scale(1 1) rotate(0) translate(4 200)">
<title>G</title>
<polygon fill="white" stroke="white" points="-4,5 -4,-200 653,-200 653,5 -4,5"/>
<!-- Node1 -->
<g id="node1" class="node"><title>Node1</title>
<polygon fill="#bfbfbf" stroke="black" points="242,-174.5 242,-195.5 366,-195.5 366,-174.5 242,-174.5"/>
<text text-anchor="middle" x="304" y="-182.5" font-family="Helvetica,sans-Serif" font-size="10.00">Core/ParameterTest.cpp</text>
</g>
<!-- Node2 -->
<g id="node3" class="node"><title>Node2</title>
<polygon fill="white" stroke="#bfbfbf" points="34.5,-116.5 34.5,-137.5 153.5,-137.5 153.5,-116.5 34.5,-116.5"/>
<text text-anchor="middle" x="94" y="-124.5" font-family="Helvetica,sans-Serif" font-size="10.00">boost/test/unit_test.hpp</text>
</g>
<!-- Node1&#45;&gt;Node2 -->
<g id="edge2" class="edge"><title>Node1&#45;&gt;Node2</title>
<path fill="none" stroke="midnightblue" d="M265.971,-174.497C231.142,-164.877 179.441,-150.598 141.826,-140.209"/>
<polygon fill="midnightblue" stroke="midnightblue" points="142.672,-136.812 132.101,-137.523 140.808,-143.559 142.672,-136.812"/>
</g>
<!-- Node3 -->
<g id="node5" class="node"><title>Node3</title>
<a xlink:href="../../db/dce/Parameter_8hpp.xhtml" target="_top" xlink:title="This class implements some internal container of parameters.">
<polygon fill="white" stroke="black" points="171,-116.5 171,-137.5 275,-137.5 275,-116.5 171,-116.5"/>
<text text-anchor="middle" x="223" y="-124.5" font-family="Helvetica,sans-Serif" font-size="10.00">Core/Parameter.hpp</text>
</a>
</g>
<!-- Node1&#45;&gt;Node3 -->
<g id="edge4" class="edge"><title>Node1&#45;&gt;Node3</title>
<path fill="none" stroke="midnightblue" d="M289.143,-174.362C277.154,-165.777 260.073,-153.546 246.272,-143.664"/>
<polygon fill="midnightblue" stroke="midnightblue" points="247.931,-140.547 237.762,-137.571 243.855,-146.238 247.931,-140.547"/>
</g>
<!-- Node9 -->
<g id="node18" class="node"><title>Node9</title>
<polygon fill="white" stroke="#bfbfbf" points="534,-0.5 534,-21.5 578,-21.5 578,-0.5 534,-0.5"/>
<text text-anchor="middle" x="556" y="-8.5" font-family="Helvetica,sans-Serif" font-size="10.00">vector</text>
</g>
<!-- Node1&#45;&gt;Node9 -->
<g id="edge36" class="edge"><title>Node1&#45;&gt;Node9</title>
<path fill="none" stroke="midnightblue" d="M344.104,-174.432C391.787,-160.078 471.276,-130.271 522,-80 535.586,-66.5351 544.613,-46.5372 549.929,-31.532"/>
<polygon fill="midnightblue" stroke="midnightblue" points="553.378,-32.2456 553.157,-21.6531 546.724,-30.0718 553.378,-32.2456"/>
</g>
<!-- Node10 -->
<g id="node20" class="node"><title>Node10</title>
<polygon fill="white" stroke="#bfbfbf" points="596,-0.5 596,-21.5 648,-21.5 648,-0.5 596,-0.5"/>
<text text-anchor="middle" x="622" y="-8.5" font-family="Helvetica,sans-Serif" font-size="10.00">memory</text>
</g>
<!-- Node1&#45;&gt;Node10 -->
<g id="edge34" class="edge"><title>Node1&#45;&gt;Node10</title>
<path fill="none" stroke="midnightblue" d="M362.973,-174.496C395.964,-167.148 437.138,-155.467 471,-138 526.693,-109.272 579.9,-56.7472 605.733,-29.1074"/>
<polygon fill="midnightblue" stroke="midnightblue" points="608.358,-31.4231 612.559,-21.6965 603.209,-26.6807 608.358,-31.4231"/>
</g>
<!-- Node13 -->
<g id="node26" class="node"><title>Node13</title>
<a xlink:href="../../d2/de9/Exceptions_8hpp.xhtml" target="_top" xlink:title="This class defines the ComPWA exception base&#45;class and provides a set of standard exceptions...">
<polygon fill="white" stroke="black" points="250,-58.5 250,-79.5 358,-79.5 358,-58.5 250,-58.5"/>
<text text-anchor="middle" x="304" y="-66.5" font-family="Helvetica,sans-Serif" font-size="10.00">Core/Exceptions.hpp</text>
</a>
</g>
<!-- Node1&#45;&gt;Node13 -->
<g id="edge32" class="edge"><title>Node1&#45;&gt;Node13</title>
<path fill="none" stroke="midnightblue" d="M304,-174.295C304,-155.131 304,-114.654 304,-89.8434"/>
<polygon fill="midnightblue" stroke="midnightblue" points="307.5,-89.6792 304,-79.6792 300.5,-89.6792 307.5,-89.6792"/>
</g>
<!-- Node4 -->
<g id="node7" class="node"><title>Node4</title>
<polygon fill="white" stroke="#bfbfbf" points="140,-58.5 140,-79.5 194,-79.5 194,-58.5 140,-58.5"/>
<text text-anchor="middle" x="167" y="-66.5" font-family="Helvetica,sans-Serif" font-size="10.00">iostream</text>
</g>
<!-- Node3&#45;&gt;Node4 -->
<g id="edge6" class="edge"><title>Node3&#45;&gt;Node4</title>
<path fill="none" stroke="midnightblue" d="M212.729,-116.362C204.756,-108.104 193.525,-96.4725 184.189,-86.8029"/>
<polygon fill="midnightblue" stroke="midnightblue" points="186.67,-84.3336 177.206,-79.5707 181.634,-89.1958 186.67,-84.3336"/>
</g>
<!-- Node5 -->
<g id="node9" class="node"><title>Node5</title>
<polygon fill="white" stroke="#bfbfbf" points="193.5,-0.5 193.5,-21.5 234.5,-21.5 234.5,-0.5 193.5,-0.5"/>
<text text-anchor="middle" x="214" y="-8.5" font-family="Helvetica,sans-Serif" font-size="10.00">string</text>
</g>
<!-- Node3&#45;&gt;Node5 -->
<g id="edge8" class="edge"><title>Node3&#45;&gt;Node5</title>
<path fill="none" stroke="midnightblue" d="M222.169,-116.295C220.683,-97.1314 217.542,-56.654 215.617,-31.8434"/>
<polygon fill="midnightblue" stroke="midnightblue" points="219.092,-31.3785 214.829,-21.6792 212.113,-31.92 219.092,-31.3785"/>
</g>
<!-- Node6 -->
<g id="node11" class="node"><title>Node6</title>
<polygon fill="white" stroke="#bfbfbf" points="0,-58.5 0,-79.5 52,-79.5 52,-58.5 0,-58.5"/>
<text text-anchor="middle" x="26" y="-66.5" font-family="Helvetica,sans-Serif" font-size="10.00">sstream</text>
</g>
<!-- Node3&#45;&gt;Node6 -->
<g id="edge10" class="edge"><title>Node3&#45;&gt;Node6</title>
<path fill="none" stroke="midnightblue" d="M185.935,-116.499C155.11,-107.71 109.849,-94.6745 61.9628,-80.2532"/>
<polygon fill="midnightblue" stroke="midnightblue" points="62.9389,-76.8919 52.354,-77.3513 60.9151,-83.593 62.9389,-76.8919"/>
</g>
<!-- Node7 -->
<g id="node13" class="node"><title>Node7</title>
<polygon fill="white" stroke="#bfbfbf" points="69.5,-58.5 69.5,-79.5 122.5,-79.5 122.5,-58.5 69.5,-58.5"/>
<text text-anchor="middle" x="96" y="-66.5" font-family="Helvetica,sans-Serif" font-size="10.00">complex</text>
</g>
<!-- Node3&#45;&gt;Node7 -->
<g id="edge12" class="edge"><title>Node3&#45;&gt;Node7</title>
<path fill="none" stroke="midnightblue" d="M200.001,-116.497C179.987,-107.356 150.759,-94.0082 128.381,-83.7883"/>
<polygon fill="midnightblue" stroke="midnightblue" points="129.807,-80.5918 119.257,-79.6212 126.899,-86.9592 129.807,-80.5918"/>
</g>
<!-- Node8 -->
<g id="node15" class="node"><title>Node8</title>
<a xlink:href="../../d8/def/AbsParameter_8hpp.xhtml" target="_top" xlink:title="This class defines the internal container of a parameter.">
<polygon fill="white" stroke="black" points="391,-58.5 391,-79.5 513,-79.5 513,-58.5 391,-58.5"/>
<text text-anchor="middle" x="452" y="-66.5" font-family="Helvetica,sans-Serif" font-size="10.00">Core/AbsParameter.hpp</text>
</a>
</g>
<!-- Node3&#45;&gt;Node8 -->
<g id="edge14" class="edge"><title>Node3&#45;&gt;Node8</title>
<path fill="none" stroke="midnightblue" d="M264.47,-116.497C302.692,-106.816 359.549,-92.4156 400.631,-82.0105"/>
<polygon fill="midnightblue" stroke="midnightblue" points="401.617,-85.3712 410.452,-79.5231 399.899,-78.5855 401.617,-85.3712"/>
</g>
<!-- Node3&#45;&gt;Node13 -->
<g id="edge26" class="edge"><title>Node3&#45;&gt;Node13</title>
<path fill="none" stroke="midnightblue" d="M237.857,-116.362C249.846,-107.777 266.927,-95.5459 280.728,-85.6636"/>
<polygon fill="midnightblue" stroke="midnightblue" points="283.145,-88.2383 289.238,-79.5707 279.069,-82.5469 283.145,-88.2383"/>
</g>
<!-- Node8&#45;&gt;Node5 -->
<g id="edge16" class="edge"><title>Node8&#45;&gt;Node5</title>
<path fill="none" stroke="midnightblue" d="M395.112,-58.4689C355.08,-50.5436 300.16,-38.6402 244.46,-22.1889"/>
<polygon fill="midnightblue" stroke="midnightblue" points="245.372,-18.8084 234.788,-19.2879 243.361,-25.5133 245.372,-18.8084"/>
</g>
<!-- Node8&#45;&gt;Node9 -->
<g id="edge18" class="edge"><title>Node8&#45;&gt;Node9</title>
<path fill="none" stroke="midnightblue" d="M471.075,-58.3619C487.055,-49.4502 510.081,-36.6087 528.127,-26.5447"/>
<polygon fill="midnightblue" stroke="midnightblue" points="530.017,-29.4982 537.046,-21.5707 526.607,-23.3846 530.017,-29.4982"/>
</g>
<!-- Node8&#45;&gt;Node10 -->
<g id="edge20" class="edge"><title>Node8&#45;&gt;Node10</title>
<path fill="none" stroke="midnightblue" d="M482.786,-58.4966C511.842,-48.5834 555.404,-33.7211 586.043,-23.2677"/>
<polygon fill="midnightblue" stroke="midnightblue" points="587.564,-26.4468 595.899,-19.9052 585.304,-19.8218 587.564,-26.4468"/>
</g>
<!-- Node11 -->
<g id="node22" class="node"><title>Node11</title>
<polygon fill="white" stroke="#bfbfbf" points="328,-0.5 328,-21.5 384,-21.5 384,-0.5 328,-0.5"/>
<text text-anchor="middle" x="356" y="-8.5" font-family="Helvetica,sans-Serif" font-size="10.00">algorithm</text>
</g>
<!-- Node8&#45;&gt;Node11 -->
<g id="edge22" class="edge"><title>Node8&#45;&gt;Node11</title>
<path fill="none" stroke="midnightblue" d="M434.392,-58.3619C419.777,-49.532 398.776,-36.844 382.189,-26.8224"/>
<polygon fill="midnightblue" stroke="midnightblue" points="383.865,-23.7461 373.496,-21.5707 380.246,-29.7376 383.865,-23.7461"/>
</g>
<!-- Node12 -->
<g id="node24" class="node"><title>Node12</title>
<a xlink:href="../../d9/d91/ParObserver_8hpp.xhtml" target="_top" xlink:title="For the use in the function tree, the observer pattern is used.">
<polygon fill="white" stroke="black" points="402,-0.5 402,-21.5 516,-21.5 516,-0.5 402,-0.5"/>
<text text-anchor="middle" x="459" y="-8.5" font-family="Helvetica,sans-Serif" font-size="10.00">Core/ParObserver.hpp</text>
</a>
</g>
<!-- Node8&#45;&gt;Node12 -->
<g id="edge24" class="edge"><title>Node8&#45;&gt;Node12</title>
<path fill="none" stroke="midnightblue" d="M453.284,-58.3619C454.182,-50.9219 455.41,-40.7427 456.498,-31.7276"/>
<polygon fill="midnightblue" stroke="midnightblue" points="460.001,-31.918 457.724,-21.5707 453.051,-31.0792 460.001,-31.918"/>
</g>
<!-- Node13&#45;&gt;Node5 -->
<g id="edge30" class="edge"><title>Node13&#45;&gt;Node5</title>
<path fill="none" stroke="midnightblue" d="M287.493,-58.3619C273.918,-49.6138 254.467,-37.0786 238.985,-27.1015"/>
<polygon fill="midnightblue" stroke="midnightblue" points="240.704,-24.0457 230.403,-21.5707 236.912,-29.9297 240.704,-24.0457"/>
</g>
<!-- Node14 -->
<g id="node28" class="node"><title>Node14</title>
<polygon fill="white" stroke="#bfbfbf" points="251.5,-0.5 251.5,-21.5 310.5,-21.5 310.5,-0.5 251.5,-0.5"/>
<text text-anchor="middle" x="281" y="-8.5" font-family="Helvetica,sans-Serif" font-size="10.00">exception</text>
</g>
<!-- Node13&#45;&gt;Node14 -->
<g id="edge28" class="edge"><title>Node13&#45;&gt;Node14</title>
<path fill="none" stroke="midnightblue" d="M299.781,-58.3619C296.766,-50.7584 292.617,-40.294 288.985,-31.1349"/>
<polygon fill="midnightblue" stroke="midnightblue" points="292.132,-29.5762 285.192,-21.5707 285.625,-32.1567 292.132,-29.5762"/>
</g>
</g>
</svg>
