<?xml version="1.0" encoding="UTF-8" standalone="no"?>
<!DOCTYPE svg PUBLIC "-//W3C//DTD SVG 1.1//EN"
 "http://www.w3.org/Graphics/SVG/1.1/DTD/svg11.dtd">
<!-- Generated by graphviz version 2.36.0 (20140111.2315)
 -->
<!-- Title: /home/travis/build/ComPWA/ComPWA/Core/test/ParameterTest.cpp Pages: 1 -->
<svg width="1536pt" height="310pt"
 viewBox="0.00 0.00 1536.00 310.00" xmlns="http://www.w3.org/2000/svg" xmlns:xlink="http://www.w3.org/1999/xlink">
<g id="graph0" class="graph" transform="scale(1 1) rotate(0) translate(4 306)">
<title>/home/travis/build/ComPWA/ComPWA/Core/test/ParameterTest.cpp</title>
<polygon fill="white" stroke="none" points="-4,4 -4,-306 1532,-306 1532,4 -4,4"/>
<!-- Node1 -->
<g id="node1" class="node"><title>Node1</title>
<polygon fill="#bfbfbf" stroke="black" points="1001.5,-260.5 1001.5,-301.5 1136.5,-301.5 1136.5,-260.5 1001.5,-260.5"/>
<text text-anchor="start" x="1009.5" y="-289.5" font-family="Helvetica,sans-Serif" font-size="10.00">/home/travis/build</text>
<text text-anchor="start" x="1009.5" y="-278.5" font-family="Helvetica,sans-Serif" font-size="10.00">/ComPWA/ComPWA/Core</text>
<text text-anchor="middle" x="1069" y="-267.5" font-family="Helvetica,sans-Serif" font-size="10.00">/test/ParameterTest.cpp</text>
</g>
<!-- Node2 -->
<g id="node2" class="node"><title>Node2</title>
<polygon fill="white" stroke="#bfbfbf" points="948,-6.5 948,-25.5 1000,-25.5 1000,-6.5 948,-6.5"/>
<text text-anchor="middle" x="974" y="-13.5" font-family="Helvetica,sans-Serif" font-size="10.00">memory</text>
</g>
<!-- Node1&#45;&gt;Node2 -->
<g id="edge1" class="edge"><title>Node1&#45;&gt;Node2</title>
<path fill="none" stroke="midnightblue" d="M1136.71,-264.418C1215.01,-243.045 1327.89,-199.866 1284,-136 1221.24,-44.6782 1077.96,-23.405 1010.45,-18.4735"/>
<polygon fill="midnightblue" stroke="midnightblue" points="1010.5,-14.9692 1000.29,-17.8141 1010.05,-21.9545 1010.5,-14.9692"/>
</g>
<!-- Node3 -->
<g id="node3" class="node"><title>Node3</title>
<polygon fill="white" stroke="#bfbfbf" points="1282,-6.5 1282,-25.5 1326,-25.5 1326,-6.5 1282,-6.5"/>
<text text-anchor="middle" x="1304" y="-13.5" font-family="Helvetica,sans-Serif" font-size="10.00">vector</text>
</g>
<!-- Node1&#45;&gt;Node3 -->
<g id="edge2" class="edge"><title>Node1&#45;&gt;Node3</title>
<path fill="none" stroke="midnightblue" d="M1136.67,-274.692C1179.3,-268.34 1233.37,-254.427 1272,-224 1329.31,-178.86 1316.45,-77.3541 1308.2,-35.5404"/>
<polygon fill="midnightblue" stroke="midnightblue" points="1311.6,-34.6938 1306.11,-25.6341 1304.75,-36.1419 1311.6,-34.6938"/>
</g>
<!-- Node4 -->
<g id="node4" class="node"><title>Node4</title>
<polygon fill="white" stroke="#bfbfbf" points="1408.5,-204.5 1408.5,-223.5 1527.5,-223.5 1527.5,-204.5 1408.5,-204.5"/>
<text text-anchor="middle" x="1468" y="-211.5" font-family="Helvetica,sans-Serif" font-size="10.00">boost/test/unit_test.hpp</text>
</g>
<!-- Node1&#45;&gt;Node4 -->
<g id="edge3" class="edge"><title>Node1&#45;&gt;Node4</title>
<path fill="none" stroke="midnightblue" d="M1136.68,-268.974C1211.96,-256.71 1332.56,-237.064 1405.62,-225.161"/>
<polygon fill="midnightblue" stroke="midnightblue" points="1406.3,-228.597 1415.61,-223.535 1405.18,-221.688 1406.3,-228.597"/>
</g>
<!-- Node5 -->
<g id="node5" class="node"><title>Node5</title>
<g id="a_node5"><a xlink:href="../../db/dce/Parameter_8hpp.html" target="_top" xlink:title="This class implements some internal container of parameters. ">
<polygon fill="white" stroke="black" points="295,-142.5 295,-161.5 399,-161.5 399,-142.5 295,-142.5"/>
<text text-anchor="middle" x="347" y="-149.5" font-family="Helvetica,sans-Serif" font-size="10.00">Core/Parameter.hpp</text>
</a>
</g>
</g>
<!-- Node1&#45;&gt;Node5 -->
<g id="edge4" class="edge"><title>Node1&#45;&gt;Node5</title>
<path fill="none" stroke="midnightblue" d="M1001.11,-270.311C880.962,-252.763 623.266,-213.308 408,-168 402.12,-166.762 395.946,-165.363 389.877,-163.928"/>
<polygon fill="midnightblue" stroke="midnightblue" points="390.373,-160.448 379.831,-161.503 388.731,-167.252 390.373,-160.448"/>
</g>
<!-- Node15 -->
<g id="node15" class="node"><title>Node15</title>
<g id="a_node15"><a xlink:href="../../d2/de9/Exceptions_8hpp.html" target="_top" xlink:title="This class defines the ComPWA exception base&#45;class and provides a set of standard exceptions...">
<polygon fill="white" stroke="red" points="0,-74.5 0,-93.5 108,-93.5 108,-74.5 0,-74.5"/>
<text text-anchor="middle" x="54" y="-81.5" font-family="Helvetica,sans-Serif" font-size="10.00">Core/Exceptions.hpp</text>
</a>
</g>
</g>
<!-- Node1&#45;&gt;Node15 -->
<g id="edge20" class="edge"><title>Node1&#45;&gt;Node15</title>
<path fill="none" stroke="midnightblue" d="M1001.23,-275.549C820.45,-263.03 330.196,-224.692 179,-168 136.608,-152.105 94.1634,-119.537 71.2758,-100.261"/>
<polygon fill="midnightblue" stroke="midnightblue" points="73.3694,-97.4457 63.5023,-93.5867 68.8092,-102.757 73.3694,-97.4457"/>
</g>
<!-- Node17 -->
<g id="node17" class="node"><title>Node17</title>
<g id="a_node17"><a xlink:href="../../df/d9f/ParameterList_8hpp.html" target="_top" xlink:title="This class provides a list of fit parameters which can have different types. ">
<polygon fill="white" stroke="black" points="736,-204.5 736,-223.5 856,-223.5 856,-204.5 736,-204.5"/>
<text text-anchor="middle" x="796" y="-211.5" font-family="Helvetica,sans-Serif" font-size="10.00">Core/ParameterList.hpp</text>
</a>
</g>
</g>
<!-- Node1&#45;&gt;Node17 -->
<g id="edge21" class="edge"><title>Node1&#45;&gt;Node17</title>
<path fill="none" stroke="midnightblue" d="M1001.17,-263.849C951.355,-251.989 885.048,-236.202 841.477,-225.828"/>
<polygon fill="midnightblue" stroke="midnightblue" points="842.266,-222.418 831.727,-223.506 840.645,-229.228 842.266,-222.418"/>
</g>
<!-- Node6 -->
<g id="node6" class="node"><title>Node6</title>
<polygon fill="white" stroke="#bfbfbf" points="676,-74.5 676,-93.5 730,-93.5 730,-74.5 676,-74.5"/>
<text text-anchor="middle" x="703" y="-81.5" font-family="Helvetica,sans-Serif" font-size="10.00">iostream</text>
</g>
<!-- Node5&#45;&gt;Node6 -->
<g id="edge5" class="edge"><title>Node5&#45;&gt;Node6</title>
<path fill="none" stroke="midnightblue" d="M379.155,-142.439C388.422,-140.15 398.575,-137.811 408,-136 521.697,-114.148 554.17,-129.977 666,-100 668.983,-99.2003 672.049,-98.2244 675.079,-97.158"/>
<polygon fill="midnightblue" stroke="midnightblue" points="676.403,-100.399 684.485,-93.5478 673.894,-93.8637 676.403,-100.399"/>
</g>
<!-- Node7 -->
<g id="node7" class="node"><title>Node7</title>
<polygon fill="white" stroke="#bfbfbf" points="588.5,-6.5 588.5,-25.5 629.5,-25.5 629.5,-6.5 588.5,-6.5"/>
<text text-anchor="middle" x="609" y="-13.5" font-family="Helvetica,sans-Serif" font-size="10.00">string</text>
</g>
<!-- Node5&#45;&gt;Node7 -->
<g id="edge6" class="edge"><title>Node5&#45;&gt;Node7</title>
<path fill="none" stroke="midnightblue" d="M366.654,-142.379C387.133,-133.056 419.825,-117.202 446,-100 464.737,-87.6861 465.754,-79.5019 485,-68 515.164,-49.9736 552.872,-35.4727 578.738,-26.6078"/>
<polygon fill="midnightblue" stroke="midnightblue" points="579.998,-29.877 588.367,-23.3804 577.774,-23.2398 579.998,-29.877"/>
</g>
<!-- Node8 -->
<g id="node8" class="node"><title>Node8</title>
<polygon fill="white" stroke="#bfbfbf" points="494,-74.5 494,-93.5 546,-93.5 546,-74.5 494,-74.5"/>
<text text-anchor="middle" x="520" y="-81.5" font-family="Helvetica,sans-Serif" font-size="10.00">sstream</text>
</g>
<!-- Node5&#45;&gt;Node8 -->
<g id="edge7" class="edge"><title>Node5&#45;&gt;Node8</title>
<path fill="none" stroke="midnightblue" d="M369.617,-142.372C399.877,-130.827 453.703,-110.293 488.081,-97.1772"/>
<polygon fill="midnightblue" stroke="midnightblue" points="489.556,-100.36 497.652,-93.5259 487.061,-93.8203 489.556,-100.36"/>
</g>
<!-- Node9 -->
<g id="node9" class="node"><title>Node9</title>
<polygon fill="white" stroke="#bfbfbf" points="245.5,-74.5 245.5,-93.5 298.5,-93.5 298.5,-74.5 245.5,-74.5"/>
<text text-anchor="middle" x="272" y="-81.5" font-family="Helvetica,sans-Serif" font-size="10.00">complex</text>
</g>
<!-- Node5&#45;&gt;Node9 -->
<g id="edge8" class="edge"><title>Node5&#45;&gt;Node9</title>
<path fill="none" stroke="midnightblue" d="M337.195,-142.372C325.134,-131.758 304.438,-113.545 289.597,-100.485"/>
<polygon fill="midnightblue" stroke="midnightblue" points="291.866,-97.8199 282.047,-93.8411 287.242,-103.075 291.866,-97.8199"/>
</g>
<!-- Node10 -->
<g id="node10" class="node"><title>Node10</title>
<polygon fill="white" stroke="#bfbfbf" points="316.5,-74.5 316.5,-93.5 375.5,-93.5 375.5,-74.5 316.5,-74.5"/>
<text text-anchor="middle" x="346" y="-81.5" font-family="Helvetica,sans-Serif" font-size="10.00">stdexcept</text>
</g>
<!-- Node5&#45;&gt;Node10 -->
<g id="edge9" class="edge"><title>Node5&#45;&gt;Node10</title>
<path fill="none" stroke="midnightblue" d="M346.869,-142.372C346.722,-132.643 346.478,-116.528 346.286,-103.85"/>
<polygon fill="midnightblue" stroke="midnightblue" points="349.785,-103.787 346.134,-93.8411 342.786,-103.893 349.785,-103.787"/>
</g>
<!-- Node11 -->
<g id="node11" class="node"><title>Node11</title>
<polygon fill="white" stroke="#bfbfbf" points="394,-74.5 394,-93.5 438,-93.5 438,-74.5 394,-74.5"/>
<text text-anchor="middle" x="416" y="-81.5" font-family="Helvetica,sans-Serif" font-size="10.00">cmath</text>
</g>
<!-- Node5&#45;&gt;Node11 -->
<g id="edge10" class="edge"><title>Node5&#45;&gt;Node11</title>
<path fill="none" stroke="midnightblue" d="M356.021,-142.372C367.014,-131.856 385.805,-113.882 399.43,-100.85"/>
<polygon fill="midnightblue" stroke="midnightblue" points="401.95,-103.283 406.757,-93.8411 397.111,-98.2241 401.95,-103.283"/>
</g>
<!-- Node12 -->
<g id="node12" class="node"><title>Node12</title>
<polygon fill="white" stroke="#bfbfbf" points="126.5,-69 126.5,-99 227.5,-99 227.5,-69 126.5,-69"/>
<text text-anchor="start" x="134.5" y="-87" font-family="Helvetica,sans-Serif" font-size="10.00">boost/property_tree</text>
<text text-anchor="middle" x="177" y="-76" font-family="Helvetica,sans-Serif" font-size="10.00">/ptree.hpp</text>
</g>
<!-- Node5&#45;&gt;Node12 -->
<g id="edge11" class="edge"><title>Node5&#45;&gt;Node12</title>
<path fill="none" stroke="midnightblue" d="M324.775,-142.372C298.972,-132.354 255.731,-115.566 222.671,-102.731"/>
<polygon fill="midnightblue" stroke="midnightblue" points="223.794,-99.4127 213.205,-99.0562 221.261,-105.938 223.794,-99.4127"/>
</g>
<!-- Node13 -->
<g id="node13" class="node"><title>Node13</title>
<g id="a_node13"><a xlink:href="../../d8/def/AbsParameter_8hpp.html" target="_top" xlink:title="Core/AbsParameter.hpp">
<polygon fill="white" stroke="red" points="824,-74.5 824,-93.5 946,-93.5 946,-74.5 824,-74.5"/>
<text text-anchor="middle" x="885" y="-81.5" font-family="Helvetica,sans-Serif" font-size="10.00">Core/AbsParameter.hpp</text>
</a>
</g>
</g>
<!-- Node5&#45;&gt;Node13 -->
<g id="edge12" class="edge"><title>Node5&#45;&gt;Node13</title>
<path fill="none" stroke="midnightblue" d="M378.174,-142.478C387.692,-140.108 398.225,-137.716 408,-136 427.667,-132.547 685.633,-105.639 813.771,-92.3609"/>
<polygon fill="midnightblue" stroke="midnightblue" points="814.302,-95.8247 823.888,-91.3129 813.581,-88.862 814.302,-95.8247"/>
</g>
<!-- Node5&#45;&gt;Node15 -->
<g id="edge17" class="edge"><title>Node5&#45;&gt;Node15</title>
<path fill="none" stroke="midnightblue" d="M307.481,-142.432C261.627,-132.446 183.766,-115.35 117,-100 111.244,-98.6767 105.197,-97.2648 99.222,-95.8565"/>
<polygon fill="midnightblue" stroke="midnightblue" points="99.8343,-92.4048 89.2968,-93.506 98.2211,-99.2164 99.8343,-92.4048"/>
</g>
<!-- Node16 -->
<g id="node16" class="node"><title>Node16</title>
<g id="a_node16"><a xlink:href="../../da/db4/Logging_8hpp.html" target="_top" xlink:title="Core/Logging.hpp">
<polygon fill="white" stroke="red" points="564.5,-74.5 564.5,-93.5 657.5,-93.5 657.5,-74.5 564.5,-74.5"/>
<text text-anchor="middle" x="611" y="-81.5" font-family="Helvetica,sans-Serif" font-size="10.00">Core/Logging.hpp</text>
</a>
</g>
</g>
<!-- Node5&#45;&gt;Node16 -->
<g id="edge19" class="edge"><title>Node5&#45;&gt;Node16</title>
<path fill="none" stroke="midnightblue" d="M381.837,-142.427C390.392,-140.324 399.527,-138.079 408,-136 473.326,-119.969 489.843,-116.703 555,-100 559.747,-98.7832 564.714,-97.4866 569.645,-96.1847"/>
<polygon fill="midnightblue" stroke="midnightblue" points="570.871,-99.4804 579.636,-93.5286 569.073,-92.7154 570.871,-99.4804"/>
</g>
<!-- Node13&#45;&gt;Node2 -->
<g id="edge15" class="edge"><title>Node13&#45;&gt;Node2</title>
<path fill="none" stroke="midnightblue" d="M896.635,-74.3717C911.16,-63.6004 936.24,-45.0021 953.899,-31.9065"/>
<polygon fill="midnightblue" stroke="midnightblue" points="956.414,-34.3984 962.362,-25.6305 952.245,-28.7758 956.414,-34.3984"/>
</g>
<!-- Node13&#45;&gt;Node3 -->
<g id="edge14" class="edge"><title>Node13&#45;&gt;Node3</title>
<path fill="none" stroke="midnightblue" d="M939.347,-74.4393C1027.81,-60.5055 1200.23,-33.3464 1271.73,-22.0833"/>
<polygon fill="midnightblue" stroke="midnightblue" points="1272.58,-25.4917 1281.92,-20.4783 1271.5,-18.577 1272.58,-25.4917"/>
</g>
<!-- Node13&#45;&gt;Node7 -->
<g id="edge13" class="edge"><title>Node13&#45;&gt;Node7</title>
<path fill="none" stroke="midnightblue" d="M849.201,-74.4393C794.482,-61.3544 690.991,-36.6065 639.578,-24.3122"/>
<polygon fill="midnightblue" stroke="midnightblue" points="640.267,-20.8782 629.727,-21.9564 638.639,-27.6862 640.267,-20.8782"/>
</g>
<!-- Node14 -->
<g id="node14" class="node"><title>Node14</title>
<polygon fill="white" stroke="#bfbfbf" points="791.5,-1 791.5,-31 886.5,-31 886.5,-1 791.5,-1"/>
<text text-anchor="start" x="799.5" y="-19" font-family="Helvetica,sans-Serif" font-size="10.00">boost/serialization</text>
<text text-anchor="middle" x="839" y="-8" font-family="Helvetica,sans-Serif" font-size="10.00">/shared_ptr.hpp</text>
</g>
<!-- Node13&#45;&gt;Node14 -->
<g id="edge16" class="edge"><title>Node13&#45;&gt;Node14</title>
<path fill="none" stroke="midnightblue" d="M878.986,-74.3717C872.833,-65.5429 863.015,-51.4557 854.647,-39.4503"/>
<polygon fill="midnightblue" stroke="midnightblue" points="857.473,-37.3842 848.884,-31.1815 851.731,-41.3867 857.473,-37.3842"/>
</g>
<!-- Node15&#45;&gt;Node7 -->
<g id="edge18" class="edge"><title>Node15&#45;&gt;Node7</title>
<path fill="none" stroke="midnightblue" d="M86.2075,-74.4772C96.0374,-72.1074 106.914,-69.716 117,-68 290.03,-38.5625 500.381,-23.6216 578.167,-18.7935"/>
<polygon fill="midnightblue" stroke="midnightblue" points="578.477,-22.2812 588.246,-18.1789 578.051,-15.2942 578.477,-22.2812"/>
</g>
<!-- Node17&#45;&gt;Node2 -->
<g id="edge24" class="edge"><title>Node17&#45;&gt;Node2</title>
<path fill="none" stroke="midnightblue" d="M830.061,-204.44C853.198,-197.407 883.554,-185.687 906,-168 935.259,-144.945 939.65,-133.942 955,-100 964.494,-79.0072 969.47,-52.8108 971.911,-35.5284"/>
<polygon fill="midnightblue" stroke="midnightblue" points="975.384,-35.9639 973.17,-25.6028 968.439,-35.0826 975.384,-35.9639"/>
</g>
<!-- Node17&#45;&gt;Node3 -->
<g id="edge26" class="edge"><title>Node17&#45;&gt;Node3</title>
<path fill="none" stroke="midnightblue" d="M856.058,-211.585C979.705,-208.087 1253.71,-197.109 1284,-168 1319.99,-133.415 1313.78,-67.7452 1308.04,-35.628"/>
<polygon fill="midnightblue" stroke="midnightblue" points="1311.46,-34.9071 1306.09,-25.773 1304.59,-36.2612 1311.46,-34.9071"/>
</g>
<!-- Node17&#45;&gt;Node5 -->
<g id="edge31" class="edge"><title>Node17&#45;&gt;Node5</title>
<path fill="none" stroke="midnightblue" d="M735.835,-208.382C659.269,-201.965 523.123,-188.746 408,-168 401.661,-166.858 395,-165.444 388.503,-163.945"/>
<polygon fill="midnightblue" stroke="midnightblue" points="389.039,-160.474 378.498,-161.546 387.406,-167.281 389.039,-160.474"/>
</g>
<!-- Node17&#45;&gt;Node6 -->
<g id="edge22" class="edge"><title>Node17&#45;&gt;Node6</title>
<path fill="none" stroke="midnightblue" d="M783.169,-204.189C771.779,-195.876 755.245,-182.546 744,-168 728.451,-147.888 716.465,-120.944 709.574,-103.287"/>
<polygon fill="midnightblue" stroke="midnightblue" points="712.744,-101.773 705.956,-93.6384 706.19,-104.231 712.744,-101.773"/>
</g>
<!-- Node17&#45;&gt;Node7 -->
<g id="edge23" class="edge"><title>Node17&#45;&gt;Node7</title>
<path fill="none" stroke="midnightblue" d="M794.985,-204.173C791.675,-179.318 778.988,-107.96 739,-68 711.966,-40.9847 668.932,-27.9019 639.853,-21.8367"/>
<polygon fill="midnightblue" stroke="midnightblue" points="640.309,-18.3602 629.827,-19.9069 638.985,-25.234 640.309,-18.3602"/>
</g>
<!-- Node17&#45;&gt;Node8 -->
<g id="edge25" class="edge"><title>Node17&#45;&gt;Node8</title>
<path fill="none" stroke="midnightblue" d="M767.935,-204.374C742.968,-196.28 705.754,-183.168 675,-168 651.001,-156.163 647.378,-149.02 624,-136 598.861,-122 569.334,-107.717 548.178,-97.8418"/>
<polygon fill="midnightblue" stroke="midnightblue" points="549.637,-94.6605 539.092,-93.6314 546.694,-101.012 549.637,-94.6605"/>
</g>
<!-- Node17&#45;&gt;Node13 -->
<g id="edge30" class="edge"><title>Node17&#45;&gt;Node13</title>
<path fill="none" stroke="midnightblue" d="M802.117,-204.202C816.796,-183.092 854.21,-129.282 873.345,-101.762"/>
<polygon fill="midnightblue" stroke="midnightblue" points="876.239,-103.731 879.074,-93.5224 870.492,-99.7347 876.239,-103.731"/>
</g>
<!-- Node17&#45;&gt;Node14 -->
<g id="edge29" class="edge"><title>Node17&#45;&gt;Node14</title>
<path fill="none" stroke="midnightblue" d="M796.208,-204.311C796.952,-181.496 800.292,-118.19 815,-68 817.759,-58.5844 822.039,-48.7209 826.224,-40.2047"/>
<polygon fill="midnightblue" stroke="midnightblue" points="829.364,-41.7516 830.824,-31.2578 823.139,-38.551 829.364,-41.7516"/>
</g>
<!-- Node17&#45;&gt;Node15 -->
<g id="edge32" class="edge"><title>Node17&#45;&gt;Node15</title>
<path fill="none" stroke="midnightblue" d="M735.97,-212.641C639.856,-210.967 445.974,-203.066 286,-168 210.019,-151.345 124.927,-116.475 82.0012,-97.6684"/>
<polygon fill="midnightblue" stroke="midnightblue" points="83.3231,-94.426 72.7619,-93.5823 80.4918,-100.828 83.3231,-94.426"/>
</g>
<!-- Node17&#45;&gt;Node16 -->
<g id="edge33" class="edge"><title>Node17&#45;&gt;Node16</title>
<path fill="none" stroke="midnightblue" d="M780.996,-204.444C765.857,-195.68 741.934,-181.469 722,-168 688.705,-145.504 651.616,-117.039 629.85,-99.9651"/>
<polygon fill="midnightblue" stroke="midnightblue" points="631.796,-97.0428 621.776,-93.6019 627.463,-102.541 631.796,-97.0428"/>
</g>
<!-- Node18 -->
<g id="node18" class="node"><title>Node18</title>
<polygon fill="white" stroke="#bfbfbf" points="862.5,-142.5 862.5,-161.5 897.5,-161.5 897.5,-142.5 862.5,-142.5"/>
<text text-anchor="middle" x="880" y="-149.5" font-family="Helvetica,sans-Serif" font-size="10.00">map</text>
</g>
<!-- Node17&#45;&gt;Node18 -->
<g id="edge27" class="edge"><title>Node17&#45;&gt;Node18</title>
<path fill="none" stroke="midnightblue" d="M808.035,-204.403C821.508,-194.78 843.566,-179.024 859.715,-167.489"/>
<polygon fill="midnightblue" stroke="midnightblue" points="861.884,-170.241 867.987,-161.581 857.815,-164.545 861.884,-170.241"/>
</g>
<!-- Node19 -->
<g id="node19" class="node"><title>Node19</title>
<polygon fill="white" stroke="#bfbfbf" points="954.5,-137 954.5,-167 1049.5,-167 1049.5,-137 954.5,-137"/>
<text text-anchor="start" x="962.5" y="-155" font-family="Helvetica,sans-Serif" font-size="10.00">boost/serialization</text>
<text text-anchor="middle" x="1002" y="-144" font-family="Helvetica,sans-Serif" font-size="10.00">/vector.hpp</text>
</g>
<!-- Node17&#45;&gt;Node19 -->
<g id="edge28" class="edge"><title>Node17&#45;&gt;Node19</title>
<path fill="none" stroke="midnightblue" d="M825.515,-204.403C856.357,-195.42 905.541,-181.095 944.162,-169.846"/>
<polygon fill="midnightblue" stroke="midnightblue" points="945.62,-173.067 954.242,-166.91 943.662,-166.346 945.62,-173.067"/>
</g>
<!-- Node20 -->
<g id="node20" class="node"><title>Node20</title>
<polygon fill="white" stroke="#bfbfbf" points="1068,-142.5 1068,-161.5 1162,-161.5 1162,-142.5 1068,-142.5"/>
<text text-anchor="middle" x="1115" y="-149.5" font-family="Helvetica,sans-Serif" font-size="10.00">boost/version.hpp</text>
</g>
<!-- Node17&#45;&gt;Node20 -->
<g id="edge34" class="edge"><title>Node17&#45;&gt;Node20</title>
<path fill="none" stroke="midnightblue" d="M854.296,-204.48C907.577,-196.339 988.43,-183.098 1058,-168 1063.44,-166.82 1069.14,-165.464 1074.74,-164.061"/>
<polygon fill="midnightblue" stroke="midnightblue" points="1075.84,-167.393 1084.65,-161.512 1074.09,-160.614 1075.84,-167.393"/>
</g>
<!-- Node21 -->
<g id="node21" class="node"><title>Node21</title>
<polygon fill="white" stroke="#bfbfbf" points="1180.5,-137 1180.5,-167 1275.5,-167 1275.5,-137 1180.5,-137"/>
<text text-anchor="start" x="1188.5" y="-155" font-family="Helvetica,sans-Serif" font-size="10.00">boost/serialization</text>
<text text-anchor="middle" x="1228" y="-144" font-family="Helvetica,sans-Serif" font-size="10.00">/split_free.hpp</text>
</g>
<!-- Node17&#45;&gt;Node21 -->
<g id="edge35" class="edge"><title>Node17&#45;&gt;Node21</title>
<path fill="none" stroke="midnightblue" d="M856.144,-208.356C928.433,-202.201 1053.52,-189.73 1170.05,-168.009"/>
<polygon fill="midnightblue" stroke="midnightblue" points="1171.04,-171.384 1180.22,-166.086 1169.74,-164.506 1171.04,-171.384"/>
</g>
<!-- Node22 -->
<g id="node22" class="node"><title>Node22</title>
<polygon fill="white" stroke="#bfbfbf" points="417.5,-142.5 417.5,-161.5 546.5,-161.5 546.5,-142.5 417.5,-142.5"/>
<text text-anchor="middle" x="482" y="-149.5" font-family="Helvetica,sans-Serif" font-size="10.00">boost/unordered_map.hpp</text>
</g>
<!-- Node17&#45;&gt;Node22 -->
<g id="edge36" class="edge"><title>Node17&#45;&gt;Node22</title>
<path fill="none" stroke="midnightblue" d="M748.849,-204.456C700.231,-195.585 622.247,-181.186 555,-168 547.842,-166.596 540.297,-165.084 532.882,-163.578"/>
<polygon fill="midnightblue" stroke="midnightblue" points="533.398,-160.111 522.9,-161.54 531.997,-166.97 533.398,-160.111"/>
</g>
<!-- Node23 -->
<g id="node23" class="node"><title>Node23</title>
<polygon fill="white" stroke="#bfbfbf" points="564.5,-142.5 564.5,-161.5 615.5,-161.5 615.5,-142.5 564.5,-142.5"/>
<text text-anchor="middle" x="590" y="-149.5" font-family="Helvetica,sans-Serif" font-size="10.00">typeinfo</text>
</g>
<!-- Node17&#45;&gt;Node23 -->
<g id="edge37" class="edge"><title>Node17&#45;&gt;Node23</title>
<path fill="none" stroke="midnightblue" d="M760.743,-204.467C726.946,-196.046 674.62,-182.379 630,-168 627.22,-167.104 624.35,-166.129 621.481,-165.12"/>
<polygon fill="midnightblue" stroke="midnightblue" points="622.47,-161.756 611.876,-161.627 620.078,-168.334 622.47,-161.756"/>
</g>
</g>
</svg>
