<?xml version="1.0" encoding="UTF-8" standalone="no"?>
<!DOCTYPE svg PUBLIC "-//W3C//DTD SVG 1.1//EN"
 "http://www.w3.org/Graphics/SVG/1.1/DTD/svg11.dtd">
<!-- Generated by graphviz version 2.36.0 (20140111.2315)
 -->
<!-- Title: /home/travis/build/ComPWA/ComPWA/Physics/HelicityFormalism/PartialDecay.hpp Pages: 1 -->
<svg width="634pt" height="398pt"
 viewBox="0.00 0.00 633.75 398.00" xmlns="http://www.w3.org/2000/svg" xmlns:xlink="http://www.w3.org/1999/xlink">
<g id="graph0" class="graph" transform="scale(1 1) rotate(0) translate(4 394)">
<title>/home/travis/build/ComPWA/ComPWA/Physics/HelicityFormalism/PartialDecay.hpp</title>
<polygon fill="white" stroke="none" points="-4,4 -4,-394 629.747,-394 629.747,4 -4,4"/>
<!-- Node1 -->
<g id="node1" class="node"><title>Node1</title>
<polygon fill="#bfbfbf" stroke="black" points="392,-348.5 392,-389.5 568,-389.5 568,-348.5 392,-348.5"/>
<text text-anchor="start" x="400" y="-377.5" font-family="Helvetica,sans-Serif" font-size="10.00">/home/travis/build</text>
<text text-anchor="start" x="400" y="-366.5" font-family="Helvetica,sans-Serif" font-size="10.00">/ComPWA/ComPWA/Physics</text>
<text text-anchor="middle" x="480" y="-355.5" font-family="Helvetica,sans-Serif" font-size="10.00">/HelicityFormalism/PartialDecay.hpp</text>
</g>
<!-- Node2 -->
<g id="node2" class="node"><title>Node2</title>
<g id="a_node2"><a xlink:href="../../df/d53/PartialDecay_8cpp.html" target="_top" xlink:title="/home/travis/build\l/ComPWA/ComPWA/Physics\l/HelicityFormalism/PartialDecay.cpp">
<polygon fill="white" stroke="black" points="212,-264.5 212,-305.5 388,-305.5 388,-264.5 212,-264.5"/>
<text text-anchor="start" x="220" y="-293.5" font-family="Helvetica,sans-Serif" font-size="10.00">/home/travis/build</text>
<text text-anchor="start" x="220" y="-282.5" font-family="Helvetica,sans-Serif" font-size="10.00">/ComPWA/ComPWA/Physics</text>
<text text-anchor="middle" x="300" y="-271.5" font-family="Helvetica,sans-Serif" font-size="10.00">/HelicityFormalism/PartialDecay.cpp</text>
</a>
</g>
</g>
<!-- Node1&#45;&gt;Node2 -->
<g id="edge1" class="edge"><title>Node1&#45;&gt;Node2</title>
<path fill="none" stroke="midnightblue" d="M427.634,-344.144C400.776,-331.909 368.466,-317.19 343.074,-305.623"/>
<polygon fill="midnightblue" stroke="midnightblue" points="426.334,-347.398 436.886,-348.359 429.236,-341.028 426.334,-347.398"/>
</g>
<!-- Node3 -->
<g id="node3" class="node"><title>Node3</title>
<g id="a_node3"><a xlink:href="../../d5/df6/SequentialTwoBodyDecay_8hpp.html" target="_top" xlink:title="/home/travis/build\l/ComPWA/ComPWA/Physics\l/HelicityFormalism/Sequential\lTwoBodyDecay.hpp">
<polygon fill="white" stroke="black" points="405.5,-259 405.5,-311 554.5,-311 554.5,-259 405.5,-259"/>
<text text-anchor="start" x="413.5" y="-299" font-family="Helvetica,sans-Serif" font-size="10.00">/home/travis/build</text>
<text text-anchor="start" x="413.5" y="-288" font-family="Helvetica,sans-Serif" font-size="10.00">/ComPWA/ComPWA/Physics</text>
<text text-anchor="start" x="413.5" y="-277" font-family="Helvetica,sans-Serif" font-size="10.00">/HelicityFormalism/Sequential</text>
<text text-anchor="middle" x="480" y="-266" font-family="Helvetica,sans-Serif" font-size="10.00">TwoBodyDecay.hpp</text>
</a>
</g>
</g>
<!-- Node1&#45;&gt;Node3 -->
<g id="edge2" class="edge"><title>Node1&#45;&gt;Node3</title>
<path fill="none" stroke="midnightblue" d="M480,-337.938C480,-329.176 480,-319.695 480,-311.261"/>
<polygon fill="midnightblue" stroke="midnightblue" points="476.5,-338.15 480,-348.15 483.5,-338.15 476.5,-338.15"/>
</g>
<!-- Node7 -->
<g id="node7" class="node"><title>Node7</title>
<g id="a_node7"><a xlink:href="../../d3/d1f/HelicityFormalism_8hpp.html" target="_top" xlink:title="/home/travis/build\l/ComPWA/ComPWA/Physics\l/HelicityFormalism.hpp">
<polygon fill="white" stroke="red" points="335.5,-0.5 335.5,-41.5 484.5,-41.5 484.5,-0.5 335.5,-0.5"/>
<text text-anchor="start" x="343.5" y="-29.5" font-family="Helvetica,sans-Serif" font-size="10.00">/home/travis/build</text>
<text text-anchor="start" x="343.5" y="-18.5" font-family="Helvetica,sans-Serif" font-size="10.00">/ComPWA/ComPWA/Physics</text>
<text text-anchor="middle" x="410" y="-7.5" font-family="Helvetica,sans-Serif" font-size="10.00">/HelicityFormalism.hpp</text>
</a>
</g>
</g>
<!-- Node1&#45;&gt;Node7 -->
<g id="edge10" class="edge"><title>Node1&#45;&gt;Node7</title>
<path fill="none" stroke="midnightblue" d="M525.231,-342.918C538.405,-334.246 552.156,-323.724 563,-312 609.101,-262.156 645.04,-228.385 614,-168 581.943,-105.637 509.521,-63.9687 460.185,-41.6309"/>
<polygon fill="midnightblue" stroke="midnightblue" points="523.255,-340.027 516.693,-348.344 527.01,-345.935 523.255,-340.027"/>
</g>
<!-- Node4 -->
<g id="node4" class="node"><title>Node4</title>
<g id="a_node4"><a xlink:href="../../df/d1f/CoherentIntensity_8hpp.html" target="_top" xlink:title="/home/travis/build\l/ComPWA/ComPWA/Physics\l/HelicityFormalism/CoherentIntensity.hpp">
<polygon fill="white" stroke="black" points="196.5,-174.5 196.5,-215.5 393.5,-215.5 393.5,-174.5 196.5,-174.5"/>
<text text-anchor="start" x="204.5" y="-203.5" font-family="Helvetica,sans-Serif" font-size="10.00">/home/travis/build</text>
<text text-anchor="start" x="204.5" y="-192.5" font-family="Helvetica,sans-Serif" font-size="10.00">/ComPWA/ComPWA/Physics</text>
<text text-anchor="middle" x="295" y="-181.5" font-family="Helvetica,sans-Serif" font-size="10.00">/HelicityFormalism/CoherentIntensity.hpp</text>
</a>
</g>
</g>
<!-- Node3&#45;&gt;Node4 -->
<g id="edge3" class="edge"><title>Node3&#45;&gt;Node4</title>
<path fill="none" stroke="midnightblue" d="M417.672,-254.352C390.841,-241.589 360.207,-227.018 336.264,-215.628"/>
<polygon fill="midnightblue" stroke="midnightblue" points="416.453,-257.648 426.986,-258.783 419.459,-251.326 416.453,-257.648"/>
</g>
<!-- Node3&#45;&gt;Node7 -->
<g id="edge9" class="edge"><title>Node3&#45;&gt;Node7</title>
<path fill="none" stroke="midnightblue" d="M460.175,-249.905C455.647,-241.04 451.224,-231.349 448,-222 425.933,-158.016 415.616,-77.8432 411.819,-41.5054"/>
<polygon fill="midnightblue" stroke="midnightblue" points="457.111,-251.598 464.886,-258.795 463.296,-248.32 457.111,-251.598"/>
</g>
<!-- Node8 -->
<g id="node8" class="node"><title>Node8</title>
<g id="a_node8"><a xlink:href="../../d4/de6/SequentialTwoBodyDecay_8cpp.html" target="_top" xlink:title="/home/travis/build\l/ComPWA/ComPWA/Physics\l/HelicityFormalism/Sequential\lTwoBodyDecay.cpp">
<polygon fill="white" stroke="black" points="456.5,-169 456.5,-221 605.5,-221 605.5,-169 456.5,-169"/>
<text text-anchor="start" x="464.5" y="-209" font-family="Helvetica,sans-Serif" font-size="10.00">/home/travis/build</text>
<text text-anchor="start" x="464.5" y="-198" font-family="Helvetica,sans-Serif" font-size="10.00">/ComPWA/ComPWA/Physics</text>
<text text-anchor="start" x="464.5" y="-187" font-family="Helvetica,sans-Serif" font-size="10.00">/HelicityFormalism/Sequential</text>
<text text-anchor="middle" x="531" y="-176" font-family="Helvetica,sans-Serif" font-size="10.00">TwoBodyDecay.cpp</text>
</a>
</g>
</g>
<!-- Node3&#45;&gt;Node8 -->
<g id="edge8" class="edge"><title>Node3&#45;&gt;Node8</title>
<path fill="none" stroke="midnightblue" d="M499.895,-249.671C505.416,-240.145 511.306,-229.983 516.458,-221.092"/>
<polygon fill="midnightblue" stroke="midnightblue" points="496.737,-248.14 494.751,-258.547 502.794,-251.65 496.737,-248.14"/>
</g>
<!-- Node5 -->
<g id="node5" class="node"><title>Node5</title>
<g id="a_node5"><a xlink:href="../../d2/db6/CoherentIntensity_8cpp.html" target="_top" xlink:title="/home/travis/build\l/ComPWA/ComPWA/Physics\l/HelicityFormalism/CoherentIntensity.cpp">
<polygon fill="white" stroke="black" points="-0.5,-84.5 -0.5,-125.5 196.5,-125.5 196.5,-84.5 -0.5,-84.5"/>
<text text-anchor="start" x="7.5" y="-113.5" font-family="Helvetica,sans-Serif" font-size="10.00">/home/travis/build</text>
<text text-anchor="start" x="7.5" y="-102.5" font-family="Helvetica,sans-Serif" font-size="10.00">/ComPWA/ComPWA/Physics</text>
<text text-anchor="middle" x="98" y="-91.5" font-family="Helvetica,sans-Serif" font-size="10.00">/HelicityFormalism/CoherentIntensity.cpp</text>
</a>
</g>
</g>
<!-- Node4&#45;&gt;Node5 -->
<g id="edge4" class="edge"><title>Node4&#45;&gt;Node5</title>
<path fill="none" stroke="midnightblue" d="M241.84,-170.254C210.557,-156.279 171.469,-138.819 141.939,-125.627"/>
<polygon fill="midnightblue" stroke="midnightblue" points="240.721,-173.587 251.279,-174.47 243.576,-167.196 240.721,-173.587"/>
</g>
<!-- Node6 -->
<g id="node6" class="node"><title>Node6</title>
<g id="a_node6"><a xlink:href="../../d0/d6d/IncoherentIntensity_8hpp.html" target="_top" xlink:title="/home/travis/build\l/ComPWA/ComPWA/Physics\l/HelicityFormalism/Incoherent\lIntensity.hpp">
<polygon fill="white" stroke="red" points="214.5,-79 214.5,-131 363.5,-131 363.5,-79 214.5,-79"/>
<text text-anchor="start" x="222.5" y="-119" font-family="Helvetica,sans-Serif" font-size="10.00">/home/travis/build</text>
<text text-anchor="start" x="222.5" y="-108" font-family="Helvetica,sans-Serif" font-size="10.00">/ComPWA/ComPWA/Physics</text>
<text text-anchor="start" x="222.5" y="-97" font-family="Helvetica,sans-Serif" font-size="10.00">/HelicityFormalism/Incoherent</text>
<text text-anchor="middle" x="289" y="-86" font-family="Helvetica,sans-Serif" font-size="10.00">Intensity.hpp</text>
</a>
</g>
</g>
<!-- Node4&#45;&gt;Node6 -->
<g id="edge5" class="edge"><title>Node4&#45;&gt;Node6</title>
<path fill="none" stroke="midnightblue" d="M292.972,-164.255C292.239,-153.506 291.419,-141.484 290.716,-131.166"/>
<polygon fill="midnightblue" stroke="midnightblue" points="289.496,-164.731 293.668,-174.47 296.48,-164.255 289.496,-164.731"/>
</g>
<!-- Node4&#45;&gt;Node7 -->
<g id="edge7" class="edge"><title>Node4&#45;&gt;Node7</title>
<path fill="none" stroke="midnightblue" d="M335.184,-168.443C348.394,-158.415 362.191,-145.953 372,-132 391.638,-104.066 401.908,-65.0753 406.621,-41.7995"/>
<polygon fill="midnightblue" stroke="midnightblue" points="333.088,-165.639 327.076,-174.363 337.216,-171.293 333.088,-165.639"/>
</g>
<!-- Node6&#45;&gt;Node7 -->
<g id="edge6" class="edge"><title>Node6&#45;&gt;Node7</title>
<path fill="none" stroke="midnightblue" d="M334.44,-73.2061C350.015,-62.6507 367.013,-51.1315 380.936,-41.6965"/>
<polygon fill="midnightblue" stroke="midnightblue" points="332.276,-70.4443 325.961,-78.9517 336.203,-76.2391 332.276,-70.4443"/>
</g>
</g>
</svg>
