<?xml version="1.0" encoding="UTF-8" standalone="no"?>
<!DOCTYPE svg PUBLIC "-//W3C//DTD SVG 1.1//EN"
 "http://www.w3.org/Graphics/SVG/1.1/DTD/svg11.dtd">
<!-- Generated by graphviz version 2.36.0 (20140111.2315)
 -->
<!-- Title: /home/travis/build/ComPWA/ComPWA/Core/Properties.hpp Pages: 1 -->
<!--zoomable 230 -->
<svg id="main" version="1.1" xmlns="http://www.w3.org/2000/svg" xmlns:xlink="http://www.w3.org/1999/xlink" xml:space="preserve" onload="init(evt)">
<style type="text/css"><![CDATA[
.edge:hover path { stroke: red; }
.edge:hover polygon { stroke: red; fill: red; }
]]></style>
<script type="text/javascript"><![CDATA[
var edges = document.getElementsByTagName('g');
if (edges && edges.length) {
  for (var i=0;i<edges.length;i++) {
    if (edges[i].id.substr(0,4)=='edge') {
      edges[i].setAttribute('class','edge');
    }
  }
}
]]></script>
        <defs>
                <circle id="rim" cx="0" cy="0" r="7"/>
                <circle id="rim2" cx="0" cy="0" r="3.5"/>
                <g id="zoomPlus">
                        <use xlink:href="#rim" fill="#404040">
                                <set attributeName="fill" to="#808080" begin="zoomplus.mouseover" end="zoomplus.mouseout"/>
                        </use>
                        <path d="M-4,0h8M0,-4v8" fill="none" stroke="white" stroke-width="1.5" pointer-events="none"/>
                </g>
                <g id="zoomMin">
                        <use xlink:href="#rim" fill="#404040">
                                <set attributeName="fill" to="#808080" begin="zoomminus.mouseover" end="zoomminus.mouseout"/>
                        </use>
                        <path d="M-4,0h8" fill="none" stroke="white" stroke-width="1.5" pointer-events="none"/>
                </g>
                <g id="dirArrow">
                        <path fill="none" stroke="white" stroke-width="1.5" d="M0,-3.0v7 M-2.5,-0.5L0,-3.0L2.5,-0.5"/>
                </g>
               <g id="resetDef">
                       <use xlink:href="#rim2" fill="#404040">
                               <set attributeName="fill" to="#808080" begin="reset.mouseover" end="reset.mouseout"/>
                       </use>
               </g>
        </defs>

<script type="text/javascript">
var viewWidth = 1038;
var viewHeight = 230;
var sectionId = 'dynsection-0';
</script>
<script xlink:href="../../svgpan.js"/>
<svg id="graph" class="graph">
<g id="viewport">
<title>/home/travis/build/ComPWA/ComPWA/Core/Properties.hpp</title>
<polygon fill="white" stroke="none" points="-4,4 -4,-226 1034.38,-226 1034.38,4 -4,4"/>
<!-- Node1 -->
<g id="node1" class="node"><title>Node1</title>
<polygon fill="#bfbfbf" stroke="black" points="400.882,-180.5 400.882,-221.5 535.882,-221.5 535.882,-180.5 400.882,-180.5"/>
<text text-anchor="start" x="408.882" y="-209.5" font-family="Helvetica,sans-Serif" font-size="10.00">/home/travis/build</text>
<text text-anchor="start" x="408.882" y="-198.5" font-family="Helvetica,sans-Serif" font-size="10.00">/ComPWA/ComPWA/Core</text>
<text text-anchor="middle" x="468.382" y="-187.5" font-family="Helvetica,sans-Serif" font-size="10.00">/Properties.hpp</text>
</g>
<!-- Node2 -->
<g id="node2" class="node"><title>Node2</title>
<polygon fill="white" stroke="#bfbfbf" points="582.382,-0.5 582.382,-19.5 626.382,-19.5 626.382,-0.5 582.382,-0.5"/>
<text text-anchor="middle" x="604.382" y="-7.5" font-family="Helvetica,sans-Serif" font-size="10.00">vector</text>
</g>
<!-- Node1&#45;&gt;Node2 -->
<g id="edge1" class="edge"><title>Node1&#45;&gt;Node2</title>
<path fill="none" stroke="midnightblue" d="M400.645,-199.547C250.433,-196.393 -88.8542,-176.169 22.3819,-56 59.8921,-15.4776 455.367,-11.3369 572.112,-11.0012"/>
<polygon fill="midnightblue" stroke="midnightblue" points="572.218,-14.5011 582.211,-10.9799 572.204,-7.5011 572.218,-14.5011"/>
</g>
<!-- Node3 -->
<g id="node3" class="node"><title>Node3</title>
<polygon fill="white" stroke="#bfbfbf" points="31.8819,-57 31.8819,-87 132.882,-87 132.882,-57 31.8819,-57"/>
<text text-anchor="start" x="39.8819" y="-75" font-family="Helvetica,sans-Serif" font-size="10.00">boost/property_tree</text>
<text text-anchor="middle" x="82.3819" y="-64" font-family="Helvetica,sans-Serif" font-size="10.00">/ptree.hpp</text>
</g>
<!-- Node1&#45;&gt;Node3 -->
<g id="edge2" class="edge"><title>Node1&#45;&gt;Node3</title>
<path fill="none" stroke="midnightblue" d="M408.915,-180.435C333.982,-155.78 206.374,-113.795 134.888,-90.2752"/>
<polygon fill="midnightblue" stroke="midnightblue" points="135.777,-86.8834 125.184,-87.0827 133.59,-93.5327 135.777,-86.8834"/>
</g>
<!-- Node4 -->
<g id="node4" class="node"><title>Node4</title>
<g id="a_node4"><a xlink:href="../../d2/de9/Exceptions_8hpp.html" target="_top" xlink:title="This class defines the ComPWA exception base&#45;class and provides a set of standard exceptions...">
<polygon fill="white" stroke="black" points="869.382,-62.5 869.382,-81.5 977.382,-81.5 977.382,-62.5 869.382,-62.5"/>
<text text-anchor="middle" x="923.382" y="-69.5" font-family="Helvetica,sans-Serif" font-size="10.00">Core/Exceptions.hpp</text>
</a>
</g>
</g>
<!-- Node1&#45;&gt;Node4 -->
<g id="edge3" class="edge"><title>Node1&#45;&gt;Node4</title>
<path fill="none" stroke="midnightblue" d="M535.899,-196.307C633.788,-189.977 809.433,-174.661 864.382,-144 886.611,-131.596 903.967,-107.254 913.941,-90.5617"/>
<polygon fill="midnightblue" stroke="midnightblue" points="917.042,-92.1887 918.942,-81.7655 910.957,-88.7293 917.042,-92.1887"/>
</g>
<!-- Node7 -->
<g id="node7" class="node"><title>Node7</title>
<g id="a_node7"><a xlink:href="../../db/dce/Parameter_8hpp.html" target="_top" xlink:title="This class implements some internal container of parameters. ">
<polygon fill="white" stroke="black" points="416.382,-124.5 416.382,-143.5 520.382,-143.5 520.382,-124.5 416.382,-124.5"/>
<text text-anchor="middle" x="468.382" y="-131.5" font-family="Helvetica,sans-Serif" font-size="10.00">Core/Parameter.hpp</text>
</a>
</g>
</g>
<!-- Node1&#45;&gt;Node7 -->
<g id="edge6" class="edge"><title>Node1&#45;&gt;Node7</title>
<path fill="none" stroke="midnightblue" d="M468.382,-180.498C468.382,-172.065 468.382,-162.235 468.382,-153.874"/>
<polygon fill="midnightblue" stroke="midnightblue" points="471.882,-153.652 468.382,-143.652 464.882,-153.653 471.882,-153.652"/>
</g>
<!-- Node15 -->
<g id="node15" class="node"><title>Node15</title>
<g id="a_node15"><a xlink:href="../../d9/dfb/Spin_8hpp.html" target="_top" xlink:title="Core/Spin.hpp">
<polygon fill="white" stroke="black" points="776.882,-124.5 776.882,-143.5 855.882,-143.5 855.882,-124.5 776.882,-124.5"/>
<text text-anchor="middle" x="816.382" y="-131.5" font-family="Helvetica,sans-Serif" font-size="10.00">Core/Spin.hpp</text>
</a>
</g>
</g>
<!-- Node1&#45;&gt;Node15 -->
<g id="edge19" class="edge"><title>Node1&#45;&gt;Node15</title>
<path fill="none" stroke="midnightblue" d="M535.892,-187.39C603.531,-174.757 706.053,-155.607 766.614,-144.296"/>
<polygon fill="midnightblue" stroke="midnightblue" points="767.501,-147.691 776.688,-142.414 766.216,-140.81 767.501,-147.691"/>
</g>
<!-- Node5 -->
<g id="node5" class="node"><title>Node5</title>
<polygon fill="white" stroke="#bfbfbf" points="893.882,-0.5 893.882,-19.5 952.882,-19.5 952.882,-0.5 893.882,-0.5"/>
<text text-anchor="middle" x="923.382" y="-7.5" font-family="Helvetica,sans-Serif" font-size="10.00">exception</text>
</g>
<!-- Node4&#45;&gt;Node5 -->
<g id="edge4" class="edge"><title>Node4&#45;&gt;Node5</title>
<path fill="none" stroke="midnightblue" d="M923.382,-62.4035C923.382,-53.9381 923.382,-40.7283 923.382,-29.8199"/>
<polygon fill="midnightblue" stroke="midnightblue" points="926.882,-29.5806 923.382,-19.5806 919.882,-29.5806 926.882,-29.5806"/>
</g>
<!-- Node6 -->
<g id="node6" class="node"><title>Node6</title>
<polygon fill="white" stroke="#bfbfbf" points="746.882,-0.5 746.882,-19.5 787.882,-19.5 787.882,-0.5 746.882,-0.5"/>
<text text-anchor="middle" x="767.382" y="-7.5" font-family="Helvetica,sans-Serif" font-size="10.00">string</text>
</g>
<!-- Node4&#45;&gt;Node6 -->
<g id="edge5" class="edge"><title>Node4&#45;&gt;Node6</title>
<path fill="none" stroke="midnightblue" d="M901.031,-62.4035C873.933,-51.9812 828.138,-34.3677 797.831,-22.7111"/>
<polygon fill="midnightblue" stroke="midnightblue" points="798.786,-19.3285 788.196,-19.0053 796.273,-25.8619 798.786,-19.3285"/>
</g>
<!-- Node7&#45;&gt;Node3 -->
<g id="edge13" class="edge"><title>Node7&#45;&gt;Node3</title>
<path fill="none" stroke="midnightblue" d="M416.264,-127.654C353.507,-120.812 244.762,-107.664 142.976,-88.1956"/>
<polygon fill="midnightblue" stroke="midnightblue" points="143.632,-84.7578 133.149,-86.2919 142.301,-91.63 143.632,-84.7578"/>
</g>
<!-- Node7&#45;&gt;Node4 -->
<g id="edge17" class="edge"><title>Node7&#45;&gt;Node4</title>
<path fill="none" stroke="midnightblue" d="M520.576,-126.117C604.3,-115.077 768.4,-93.4372 859.174,-81.4669"/>
<polygon fill="midnightblue" stroke="midnightblue" points="859.877,-84.9046 869.334,-80.1272 858.962,-77.9647 859.877,-84.9046"/>
</g>
<!-- Node7&#45;&gt;Node6 -->
<g id="edge8" class="edge"><title>Node7&#45;&gt;Node6</title>
<path fill="none" stroke="midnightblue" d="M520.615,-128.614C563.69,-123.383 625.446,-112.092 674.382,-88 694.191,-78.2477 695.393,-70.1023 712.382,-56 724.517,-45.9272 738.246,-34.6939 748.952,-25.9704"/>
<polygon fill="midnightblue" stroke="midnightblue" points="751.255,-28.6093 756.802,-19.5826 746.836,-23.1799 751.255,-28.6093"/>
</g>
<!-- Node8 -->
<g id="node8" class="node"><title>Node8</title>
<polygon fill="white" stroke="#bfbfbf" points="721.382,-62.5 721.382,-81.5 775.382,-81.5 775.382,-62.5 721.382,-62.5"/>
<text text-anchor="middle" x="748.382" y="-69.5" font-family="Helvetica,sans-Serif" font-size="10.00">iostream</text>
</g>
<!-- Node7&#45;&gt;Node8 -->
<g id="edge7" class="edge"><title>Node7&#45;&gt;Node8</title>
<path fill="none" stroke="midnightblue" d="M520.695,-125.69C569.496,-118.275 644.078,-105.412 707.382,-88 710.597,-87.1155 713.919,-86.092 717.215,-85.0033"/>
<polygon fill="midnightblue" stroke="midnightblue" points="718.612,-88.2226 726.894,-81.6158 716.299,-81.6155 718.612,-88.2226"/>
</g>
<!-- Node9 -->
<g id="node9" class="node"><title>Node9</title>
<polygon fill="white" stroke="#bfbfbf" points="262.382,-62.5 262.382,-81.5 314.382,-81.5 314.382,-62.5 262.382,-62.5"/>
<text text-anchor="middle" x="288.382" y="-69.5" font-family="Helvetica,sans-Serif" font-size="10.00">sstream</text>
</g>
<!-- Node7&#45;&gt;Node9 -->
<g id="edge9" class="edge"><title>Node7&#45;&gt;Node9</title>
<path fill="none" stroke="midnightblue" d="M437.521,-124.433C407.952,-115.987 362.214,-102.303 323.382,-88 321.265,-87.2203 319.091,-86.3819 316.911,-85.5143"/>
<polygon fill="midnightblue" stroke="midnightblue" points="318.071,-82.2065 307.493,-81.6156 315.394,-88.6743 318.071,-82.2065"/>
</g>
<!-- Node10 -->
<g id="node10" class="node"><title>Node10</title>
<polygon fill="white" stroke="#bfbfbf" points="332.882,-62.5 332.882,-81.5 385.882,-81.5 385.882,-62.5 332.882,-62.5"/>
<text text-anchor="middle" x="359.382" y="-69.5" font-family="Helvetica,sans-Serif" font-size="10.00">complex</text>
</g>
<!-- Node7&#45;&gt;Node10 -->
<g id="edge10" class="edge"><title>Node7&#45;&gt;Node10</title>
<path fill="none" stroke="midnightblue" d="M452.765,-124.403C434.796,-114.512 405.06,-98.1442 383.976,-86.5378"/>
<polygon fill="midnightblue" stroke="midnightblue" points="385.418,-83.3367 374.97,-81.5806 382.043,-89.4691 385.418,-83.3367"/>
</g>
<!-- Node11 -->
<g id="node11" class="node"><title>Node11</title>
<polygon fill="white" stroke="#bfbfbf" points="403.882,-62.5 403.882,-81.5 462.882,-81.5 462.882,-62.5 403.882,-62.5"/>
<text text-anchor="middle" x="433.382" y="-69.5" font-family="Helvetica,sans-Serif" font-size="10.00">stdexcept</text>
</g>
<!-- Node7&#45;&gt;Node11 -->
<g id="edge11" class="edge"><title>Node7&#45;&gt;Node11</title>
<path fill="none" stroke="midnightblue" d="M463.367,-124.403C458.221,-115.582 450.07,-101.608 443.564,-90.4548"/>
<polygon fill="midnightblue" stroke="midnightblue" points="446.449,-88.4548 438.387,-81.5806 440.403,-91.982 446.449,-88.4548"/>
</g>
<!-- Node12 -->
<g id="node12" class="node"><title>Node12</title>
<polygon fill="white" stroke="#bfbfbf" points="481.382,-62.5 481.382,-81.5 525.382,-81.5 525.382,-62.5 481.382,-62.5"/>
<text text-anchor="middle" x="503.382" y="-69.5" font-family="Helvetica,sans-Serif" font-size="10.00">cmath</text>
</g>
<!-- Node7&#45;&gt;Node12 -->
<g id="edge12" class="edge"><title>Node7&#45;&gt;Node12</title>
<path fill="none" stroke="midnightblue" d="M473.397,-124.403C478.543,-115.582 486.694,-101.608 493.2,-90.4548"/>
<polygon fill="midnightblue" stroke="midnightblue" points="496.361,-91.982 498.377,-81.5806 490.315,-88.4548 496.361,-91.982"/>
</g>
<!-- Node13 -->
<g id="node13" class="node"><title>Node13</title>
<g id="a_node13"><a xlink:href="../../d8/def/AbsParameter_8hpp.html" target="_top" xlink:title="This class defines the internal container of a parameter. ">
<polygon fill="white" stroke="red" points="543.382,-62.5 543.382,-81.5 665.382,-81.5 665.382,-62.5 543.382,-62.5"/>
<text text-anchor="middle" x="604.382" y="-69.5" font-family="Helvetica,sans-Serif" font-size="10.00">Core/AbsParameter.hpp</text>
</a>
</g>
</g>
<!-- Node7&#45;&gt;Node13 -->
<g id="edge14" class="edge"><title>Node7&#45;&gt;Node13</title>
<path fill="none" stroke="midnightblue" d="M487.867,-124.403C510.792,-114.29 549.067,-97.4036 575.457,-85.761"/>
<polygon fill="midnightblue" stroke="midnightblue" points="577.196,-88.8193 584.933,-81.5806 574.371,-82.4148 577.196,-88.8193"/>
</g>
<!-- Node14 -->
<g id="node14" class="node"><title>Node14</title>
<g id="a_node14"><a xlink:href="../../da/db4/Logging_8hpp.html" target="_top" xlink:title="Core/Logging.hpp">
<polygon fill="white" stroke="red" points="150.882,-62.5 150.882,-81.5 243.882,-81.5 243.882,-62.5 150.882,-62.5"/>
<text text-anchor="middle" x="197.382" y="-69.5" font-family="Helvetica,sans-Serif" font-size="10.00">Core/Logging.hpp</text>
</a>
</g>
</g>
<!-- Node7&#45;&gt;Node14 -->
<g id="edge18" class="edge"><title>Node7&#45;&gt;Node14</title>
<path fill="none" stroke="midnightblue" d="M424.164,-124.489C380.586,-115.927 312.179,-102.016 253.382,-88 248.37,-86.8053 243.124,-85.4887 237.937,-84.1466"/>
<polygon fill="midnightblue" stroke="midnightblue" points="238.675,-80.7216 228.113,-81.5598 236.892,-87.4909 238.675,-80.7216"/>
</g>
<!-- Node13&#45;&gt;Node2 -->
<g id="edge16" class="edge"><title>Node13&#45;&gt;Node2</title>
<path fill="none" stroke="midnightblue" d="M604.382,-62.4035C604.382,-53.9381 604.382,-40.7283 604.382,-29.8199"/>
<polygon fill="midnightblue" stroke="midnightblue" points="607.882,-29.5806 604.382,-19.5806 600.882,-29.5806 607.882,-29.5806"/>
</g>
<!-- Node13&#45;&gt;Node6 -->
<g id="edge15" class="edge"><title>Node13&#45;&gt;Node6</title>
<path fill="none" stroke="midnightblue" d="M627.736,-62.4035C656.49,-51.8189 705.395,-33.8175 737.034,-22.171"/>
<polygon fill="midnightblue" stroke="midnightblue" points="738.477,-25.3694 746.653,-18.6304 736.059,-18.8003 738.477,-25.3694"/>
</g>
<!-- Node15&#45;&gt;Node2 -->
<g id="edge22" class="edge"><title>Node15&#45;&gt;Node2</title>
<path fill="none" stroke="midnightblue" d="M815.331,-124.37C812.913,-108.381 805.443,-74.1377 784.382,-56 742.572,-19.9938 676.124,-12.0251 636.729,-10.6937"/>
<polygon fill="midnightblue" stroke="midnightblue" points="636.687,-7.19213 626.615,-10.4784 636.538,-14.1905 636.687,-7.19213"/>
</g>
<!-- Node15&#45;&gt;Node4 -->
<g id="edge24" class="edge"><title>Node15&#45;&gt;Node4</title>
<path fill="none" stroke="midnightblue" d="M831.712,-124.403C849.352,-114.512 878.542,-98.1442 899.24,-86.5378"/>
<polygon fill="midnightblue" stroke="midnightblue" points="901.069,-89.5244 908.08,-81.5806 897.646,-83.4188 901.069,-89.5244"/>
</g>
<!-- Node15&#45;&gt;Node6 -->
<g id="edge20" class="edge"><title>Node15&#45;&gt;Node6</title>
<path fill="none" stroke="midnightblue" d="M818.721,-124.448C822.275,-109.724 827.607,-78.96 817.382,-56 811.814,-43.4981 800.866,-33.0124 790.631,-25.3167"/>
<polygon fill="midnightblue" stroke="midnightblue" points="792.538,-22.3794 782.334,-19.5256 788.531,-28.1193 792.538,-22.3794"/>
</g>
<!-- Node15&#45;&gt;Node8 -->
<g id="edge23" class="edge"><title>Node15&#45;&gt;Node8</title>
<path fill="none" stroke="midnightblue" d="M806.639,-124.403C796.035,-115.047 778.863,-99.8948 765.903,-88.4599"/>
<polygon fill="midnightblue" stroke="midnightblue" points="767.921,-85.5724 758.107,-81.5806 763.289,-90.8213 767.921,-85.5724"/>
</g>
<!-- Node16 -->
<g id="node16" class="node"><title>Node16</title>
<polygon fill="white" stroke="#bfbfbf" points="995.882,-62.5 995.882,-81.5 1030.88,-81.5 1030.88,-62.5 995.882,-62.5"/>
<text text-anchor="middle" x="1013.38" y="-69.5" font-family="Helvetica,sans-Serif" font-size="10.00">map</text>
</g>
<!-- Node15&#45;&gt;Node16 -->
<g id="edge21" class="edge"><title>Node15&#45;&gt;Node16</title>
<path fill="none" stroke="midnightblue" d="M856.098,-125.412C891.135,-118.035 943.195,-105.396 986.382,-88 987.75,-87.449 989.135,-86.8433 990.519,-86.201"/>
<polygon fill="midnightblue" stroke="midnightblue" points="992.125,-89.311 999.415,-81.6232 988.922,-83.0868 992.125,-89.311"/>
</g>
</g>
</svg>
        <g id="navigator" transform="translate(0 0)" fill="#404254">
                <rect fill="#f2f5e9" fill-opacity="0.5" stroke="#606060" stroke-width=".5" x="0" y="0" width="60" height="60"/>
                <use id="zoomplus" xlink:href="#zoomPlus" x="17" y="9" onmousedown="handleZoom(evt,'in')"/>
                <use id="zoomminus" xlink:href="#zoomMin" x="42" y="9" onmousedown="handleZoom(evt,'out')"/>
                <use id="reset" xlink:href="#resetDef" x="30" y="36" onmousedown="handleReset()"/>
                <g id="arrowUp" xlink:href="#dirArrow" transform="translate(30 24)" onmousedown="handlePan(0,-1)">
                  <use xlink:href="#rim" fill="#404040">
                        <set attributeName="fill" to="#808080" begin="arrowUp.mouseover" end="arrowUp.mouseout"/>
                  </use>
                  <path fill="none" stroke="white" stroke-width="1.5" d="M0,-3.0v7 M-2.5,-0.5L0,-3.0L2.5,-0.5"/>
                </g>
                <g id="arrowRight" xlink:href="#dirArrow" transform="rotate(90) translate(36 -43)" onmousedown="handlePan(1,0)">
                  <use xlink:href="#rim" fill="#404040">
                        <set attributeName="fill" to="#808080" begin="arrowRight.mouseover" end="arrowRight.mouseout"/>
                  </use>
                  <path fill="none" stroke="white" stroke-width="1.5" d="M0,-3.0v7 M-2.5,-0.5L0,-3.0L2.5,-0.5"/>
                </g>
                <g id="arrowDown" xlink:href="#dirArrow" transform="rotate(180) translate(-30 -48)" onmousedown="handlePan(0,1)">
                  <use xlink:href="#rim" fill="#404040">
                        <set attributeName="fill" to="#808080" begin="arrowDown.mouseover" end="arrowDown.mouseout"/>
                  </use>
                  <path fill="none" stroke="white" stroke-width="1.5" d="M0,-3.0v7 M-2.5,-0.5L0,-3.0L2.5,-0.5"/>
                </g>
                <g id="arrowLeft" xlink:href="#dirArrow" transform="rotate(270) translate(-36 17)" onmousedown="handlePan(-1,0)">
                  <use xlink:href="#rim" fill="#404040">
                        <set attributeName="fill" to="#808080" begin="arrowLeft.mouseover" end="arrowLeft.mouseout"/>
                  </use>
                  <path fill="none" stroke="white" stroke-width="1.5" d="M0,-3.0v7 M-2.5,-0.5L0,-3.0L2.5,-0.5"/>
                </g>
        </g>
        <svg viewBox="0 0 15 15" width="100%" height="30px" preserveAspectRatio="xMaxYMin meet">
         <g id="arrow_out" transform="scale(0.3 0.3)">
          <a xlink:href="Properties_8hpp__incl_org.svg" target="_base">
           <rect id="button" ry="5" rx="5" y="6" x="6" height="38" width="38"
                fill="#f2f5e9" fill-opacity="0.5" stroke="#606060" stroke-width="1.0"/>
           <path id="arrow"
             d="M 11.500037,31.436501 C 11.940474,20.09759 22.043105,11.32322 32.158766,21.979434 L 37.068811,17.246167 C 37.068811,17.246167 37.088388,32 37.088388,32 L 22.160133,31.978069 C 22.160133,31.978069 26.997745,27.140456 26.997745,27.140456 C 18.528582,18.264221 13.291696,25.230495 11.500037,31.436501 z"
             style="fill:#404040;"/>
          </a>
         </g>
        </svg>
</svg>
