<?xml version="1.0" encoding="UTF-8" standalone="no"?>
<!DOCTYPE svg PUBLIC "-//W3C//DTD SVG 1.1//EN"
 "http://www.w3.org/Graphics/SVG/1.1/DTD/svg11.dtd">
<!-- Generated by graphviz version 2.36.0 (20140111.2315)
 -->
<!-- Title: /home/travis/build/ComPWA/ComPWA/Core/Exceptions.hpp Pages: 1 -->
<svg width="2338pt" height="608pt"
 viewBox="0.00 0.00 2338.00 608.00" xmlns="http://www.w3.org/2000/svg" xmlns:xlink="http://www.w3.org/1999/xlink">
<g id="graph0" class="graph" transform="scale(1 1) rotate(0) translate(4 604)">
<title>/home/travis/build/ComPWA/ComPWA/Core/Exceptions.hpp</title>
<polygon fill="white" stroke="none" points="-4,4 -4,-604 2334,-604 2334,4 -4,4"/>
<!-- Node1 -->
<g id="node1" class="node"><title>Node1</title>
<polygon fill="#bfbfbf" stroke="black" points="1459.5,-558.5 1459.5,-599.5 1594.5,-599.5 1594.5,-558.5 1459.5,-558.5"/>
<text text-anchor="start" x="1467.5" y="-587.5" font-family="Helvetica,sans-Serif" font-size="10.00">/home/travis/build</text>
<text text-anchor="start" x="1467.5" y="-576.5" font-family="Helvetica,sans-Serif" font-size="10.00">/ComPWA/ComPWA/Core</text>
<text text-anchor="middle" x="1527" y="-565.5" font-family="Helvetica,sans-Serif" font-size="10.00">/Exceptions.hpp</text>
</g>
<!-- Node2 -->
<g id="node2" class="node"><title>Node2</title>
<g id="a_node2"><a xlink:href="../../d5/da9/DataPoint_8cpp.html" target="_top" xlink:title="/home/travis/build\l/ComPWA/ComPWA/Core\l/DataPoint.cpp">
<polygon fill="white" stroke="black" points="-0.5,-480.5 -0.5,-521.5 134.5,-521.5 134.5,-480.5 -0.5,-480.5"/>
<text text-anchor="start" x="7.5" y="-509.5" font-family="Helvetica,sans-Serif" font-size="10.00">/home/travis/build</text>
<text text-anchor="start" x="7.5" y="-498.5" font-family="Helvetica,sans-Serif" font-size="10.00">/ComPWA/ComPWA/Core</text>
<text text-anchor="middle" x="67" y="-487.5" font-family="Helvetica,sans-Serif" font-size="10.00">/DataPoint.cpp</text>
</a>
</g>
</g>
<!-- Node1&#45;&gt;Node2 -->
<g id="edge1" class="edge"><title>Node1&#45;&gt;Node2</title>
<path fill="none" stroke="midnightblue" d="M1448.94,-576.867C1196.34,-572.879 402.876,-557.757 149,-522 144.357,-521.346 139.593,-520.543 134.812,-519.639"/>
<polygon fill="midnightblue" stroke="midnightblue" points="1449.07,-580.369 1459.13,-577.026 1449.18,-573.37 1449.07,-580.369"/>
</g>
<!-- Node3 -->
<g id="node3" class="node"><title>Node3</title>
<g id="a_node3"><a xlink:href="../../dc/d66/Functions_8hpp.html" target="_top" xlink:title="This file contains Functions implementing the Strategy interface so they can be used inside a node of...">
<polygon fill="white" stroke="black" points="267.5,-324.5 267.5,-365.5 402.5,-365.5 402.5,-324.5 267.5,-324.5"/>
<text text-anchor="start" x="275.5" y="-353.5" font-family="Helvetica,sans-Serif" font-size="10.00">/home/travis/build</text>
<text text-anchor="start" x="275.5" y="-342.5" font-family="Helvetica,sans-Serif" font-size="10.00">/ComPWA/ComPWA/Core</text>
<text text-anchor="middle" x="335" y="-331.5" font-family="Helvetica,sans-Serif" font-size="10.00">/Functions.hpp</text>
</a>
</g>
</g>
<!-- Node1&#45;&gt;Node3 -->
<g id="edge2" class="edge"><title>Node1&#45;&gt;Node3</title>
<path fill="none" stroke="midnightblue" d="M1449.17,-578.544C1294.69,-578.421 938.855,-572.123 645,-522 518.922,-500.495 460.685,-532.134 368,-444 346.274,-423.34 338.85,-387.931 336.314,-365.807"/>
<polygon fill="midnightblue" stroke="midnightblue" points="1449.5,-582.045 1459.5,-578.544 1449.5,-575.045 1449.5,-582.045"/>
</g>
<!-- Node8 -->
<g id="node8" class="node"><title>Node8</title>
<g id="a_node8"><a xlink:href="../../d6/da5/RelativisticBreitWigner_8hpp.html" target="_top" xlink:title="/home/travis/build\l/ComPWA/ComPWA/Physics\l/HelicityFormalism/Relativistic\lBreitWigner.hpp">
<polygon fill="white" stroke="red" points="1529,-1 1529,-53 1679,-53 1679,-1 1529,-1"/>
<text text-anchor="start" x="1537" y="-41" font-family="Helvetica,sans-Serif" font-size="10.00">/home/travis/build</text>
<text text-anchor="start" x="1537" y="-30" font-family="Helvetica,sans-Serif" font-size="10.00">/ComPWA/ComPWA/Physics</text>
<text text-anchor="start" x="1537" y="-19" font-family="Helvetica,sans-Serif" font-size="10.00">/HelicityFormalism/Relativistic</text>
<text text-anchor="middle" x="1604" y="-8" font-family="Helvetica,sans-Serif" font-size="10.00">BreitWigner.hpp</text>
</a>
</g>
</g>
<!-- Node1&#45;&gt;Node8 -->
<g id="edge53" class="edge"><title>Node1&#45;&gt;Node8</title>
<path fill="none" stroke="midnightblue" d="M1604.87,-573.139C1650.61,-566.901 1707.43,-552.951 1749,-522 1822.06,-467.605 1854,-437.085 1854,-346 1854,-346 1854,-346 1854,-188 1854,-104.005 1752.65,-62.1067 1679.01,-42.75"/>
<polygon fill="midnightblue" stroke="midnightblue" points="1604.17,-569.699 1594.69,-574.426 1605.05,-576.644 1604.17,-569.699"/>
</g>
<!-- Node11 -->
<g id="node11" class="node"><title>Node11</title>
<g id="a_node11"><a xlink:href="../../de/d57/Kinematics_8cpp.html" target="_top" xlink:title="/home/travis/build\l/ComPWA/ComPWA/Core\l/Kinematics.cpp">
<polygon fill="white" stroke="black" points="1576.5,-324.5 1576.5,-365.5 1711.5,-365.5 1711.5,-324.5 1576.5,-324.5"/>
<text text-anchor="start" x="1584.5" y="-353.5" font-family="Helvetica,sans-Serif" font-size="10.00">/home/travis/build</text>
<text text-anchor="start" x="1584.5" y="-342.5" font-family="Helvetica,sans-Serif" font-size="10.00">/ComPWA/ComPWA/Core</text>
<text text-anchor="middle" x="1644" y="-331.5" font-family="Helvetica,sans-Serif" font-size="10.00">/Kinematics.cpp</text>
</a>
</g>
</g>
<!-- Node1&#45;&gt;Node11 -->
<g id="edge16" class="edge"><title>Node1&#45;&gt;Node11</title>
<path fill="none" stroke="midnightblue" d="M1531.34,-548.286C1537.76,-511.558 1552.38,-448.253 1582,-402 1590.92,-388.075 1604.19,-375.447 1616.16,-365.722"/>
<polygon fill="midnightblue" stroke="midnightblue" points="1527.85,-547.906 1529.67,-558.344 1534.76,-549.052 1527.85,-547.906"/>
</g>
<!-- Node12 -->
<g id="node12" class="node"><title>Node12</title>
<g id="a_node12"><a xlink:href="../../db/dce/Parameter_8hpp.html" target="_top" xlink:title="This class implements some internal container of parameters. ">
<polygon fill="white" stroke="red" points="654.5,-480.5 654.5,-521.5 789.5,-521.5 789.5,-480.5 654.5,-480.5"/>
<text text-anchor="start" x="662.5" y="-509.5" font-family="Helvetica,sans-Serif" font-size="10.00">/home/travis/build</text>
<text text-anchor="start" x="662.5" y="-498.5" font-family="Helvetica,sans-Serif" font-size="10.00">/ComPWA/ComPWA/Core</text>
<text text-anchor="middle" x="722" y="-487.5" font-family="Helvetica,sans-Serif" font-size="10.00">/Parameter.hpp</text>
</a>
</g>
</g>
<!-- Node1&#45;&gt;Node12 -->
<g id="edge17" class="edge"><title>Node1&#45;&gt;Node12</title>
<path fill="none" stroke="midnightblue" d="M1449.33,-570.667C1292,-555.813 938.012,-522.394 789.549,-508.377"/>
<polygon fill="midnightblue" stroke="midnightblue" points="1449.12,-574.163 1459.41,-571.618 1449.78,-567.194 1449.12,-574.163"/>
</g>
<!-- Node15 -->
<g id="node15" class="node"><title>Node15</title>
<g id="a_node15"><a xlink:href="../../df/d9f/ParameterList_8hpp.html" target="_top" xlink:title="This class provides a list of fit parameters which can have different types. ">
<polygon fill="white" stroke="red" points="964.5,-402.5 964.5,-443.5 1099.5,-443.5 1099.5,-402.5 964.5,-402.5"/>
<text text-anchor="start" x="972.5" y="-431.5" font-family="Helvetica,sans-Serif" font-size="10.00">/home/travis/build</text>
<text text-anchor="start" x="972.5" y="-420.5" font-family="Helvetica,sans-Serif" font-size="10.00">/ComPWA/ComPWA/Core</text>
<text text-anchor="middle" x="1032" y="-409.5" font-family="Helvetica,sans-Serif" font-size="10.00">/ParameterList.hpp</text>
</a>
</g>
</g>
<!-- Node1&#45;&gt;Node15 -->
<g id="edge44" class="edge"><title>Node1&#45;&gt;Node15</title>
<path fill="none" stroke="midnightblue" d="M1454.58,-555.468C1357.54,-525.279 1186.92,-472.197 1094.96,-443.588"/>
<polygon fill="midnightblue" stroke="midnightblue" points="1453.72,-558.867 1464.31,-558.496 1455.8,-552.183 1453.72,-558.867"/>
</g>
<!-- Node16 -->
<g id="node16" class="node"><title>Node16</title>
<g id="a_node16"><a xlink:href="../../d2/dd8/ParameterList_8cpp.html" target="_top" xlink:title="/home/travis/build\l/ComPWA/ComPWA/Core\l/ParameterList.cpp">
<polygon fill="white" stroke="black" points="1270.5,-324.5 1270.5,-365.5 1405.5,-365.5 1405.5,-324.5 1270.5,-324.5"/>
<text text-anchor="start" x="1278.5" y="-353.5" font-family="Helvetica,sans-Serif" font-size="10.00">/home/travis/build</text>
<text text-anchor="start" x="1278.5" y="-342.5" font-family="Helvetica,sans-Serif" font-size="10.00">/ComPWA/ComPWA/Core</text>
<text text-anchor="middle" x="1338" y="-331.5" font-family="Helvetica,sans-Serif" font-size="10.00">/ParameterList.cpp</text>
</a>
</g>
</g>
<!-- Node1&#45;&gt;Node16 -->
<g id="edge43" class="edge"><title>Node1&#45;&gt;Node16</title>
<path fill="none" stroke="midnightblue" d="M1504.36,-550.207C1465.66,-502.704 1387.72,-407.035 1354.07,-365.73"/>
<polygon fill="midnightblue" stroke="midnightblue" points="1501.86,-552.677 1510.89,-558.22 1507.28,-548.256 1501.86,-552.677"/>
</g>
<!-- Node17 -->
<g id="node17" class="node"><title>Node17</title>
<g id="a_node17"><a xlink:href="../../dc/d31/ParameterTest_8cpp.html" target="_top" xlink:title="/home/travis/build\l/ComPWA/ComPWA/Core\l/test/ParameterTest.cpp">
<polygon fill="white" stroke="black" points="1423.5,-324.5 1423.5,-365.5 1558.5,-365.5 1558.5,-324.5 1423.5,-324.5"/>
<text text-anchor="start" x="1431.5" y="-353.5" font-family="Helvetica,sans-Serif" font-size="10.00">/home/travis/build</text>
<text text-anchor="start" x="1431.5" y="-342.5" font-family="Helvetica,sans-Serif" font-size="10.00">/ComPWA/ComPWA/Core</text>
<text text-anchor="middle" x="1491" y="-331.5" font-family="Helvetica,sans-Serif" font-size="10.00">/test/ParameterTest.cpp</text>
</a>
</g>
</g>
<!-- Node1&#45;&gt;Node17 -->
<g id="edge49" class="edge"><title>Node1&#45;&gt;Node17</title>
<path fill="none" stroke="midnightblue" d="M1522.36,-548.111C1514.89,-499.943 1500.38,-406.436 1494.06,-365.73"/>
<polygon fill="midnightblue" stroke="midnightblue" points="1518.94,-548.875 1523.93,-558.22 1525.86,-547.801 1518.94,-548.875"/>
</g>
<!-- Node22 -->
<g id="node22" class="node"><title>Node22</title>
<g id="a_node22"><a xlink:href="../../d9/dfb/Spin_8hpp.html" target="_top" xlink:title="/home/travis/build\l/ComPWA/ComPWA/Core\l/Spin.hpp">
<polygon fill="white" stroke="red" points="1605.5,-480.5 1605.5,-521.5 1740.5,-521.5 1740.5,-480.5 1605.5,-480.5"/>
<text text-anchor="start" x="1613.5" y="-509.5" font-family="Helvetica,sans-Serif" font-size="10.00">/home/travis/build</text>
<text text-anchor="start" x="1613.5" y="-498.5" font-family="Helvetica,sans-Serif" font-size="10.00">/ComPWA/ComPWA/Core</text>
<text text-anchor="middle" x="1673" y="-487.5" font-family="Helvetica,sans-Serif" font-size="10.00">/Spin.hpp</text>
</a>
</g>
</g>
<!-- Node1&#45;&gt;Node22 -->
<g id="edge45" class="edge"><title>Node1&#45;&gt;Node22</title>
<path fill="none" stroke="midnightblue" d="M1573.55,-553.768C1593.56,-543.35 1616.64,-531.336 1635.53,-521.506"/>
<polygon fill="midnightblue" stroke="midnightblue" points="1571.85,-550.706 1564.6,-558.428 1575.08,-556.915 1571.85,-550.706"/>
</g>
<!-- Node23 -->
<g id="node23" class="node"><title>Node23</title>
<g id="a_node23"><a xlink:href="../../da/dbe/ParticleTest_8cpp.html" target="_top" xlink:title="/home/travis/build\l/ComPWA/ComPWA/Core\l/test/ParticleTest.cpp">
<polygon fill="white" stroke="black" points="1825.5,-480.5 1825.5,-521.5 1960.5,-521.5 1960.5,-480.5 1825.5,-480.5"/>
<text text-anchor="start" x="1833.5" y="-509.5" font-family="Helvetica,sans-Serif" font-size="10.00">/home/travis/build</text>
<text text-anchor="start" x="1833.5" y="-498.5" font-family="Helvetica,sans-Serif" font-size="10.00">/ComPWA/ComPWA/Core</text>
<text text-anchor="middle" x="1893" y="-487.5" font-family="Helvetica,sans-Serif" font-size="10.00">/test/ParticleTest.cpp</text>
</a>
</g>
</g>
<!-- Node1&#45;&gt;Node23 -->
<g id="edge50" class="edge"><title>Node1&#45;&gt;Node23</title>
<path fill="none" stroke="midnightblue" d="M1604.65,-563.655C1661.84,-552.854 1741.44,-537.333 1811,-522 1815.72,-520.959 1820.59,-519.854 1825.49,-518.719"/>
<polygon fill="midnightblue" stroke="midnightblue" points="1603.78,-560.257 1594.6,-565.548 1605.07,-567.137 1603.78,-560.257"/>
</g>
<!-- Node24 -->
<g id="node24" class="node"><title>Node24</title>
<g id="a_node24"><a xlink:href="../../d6/d94/AsciiReader_8cpp.html" target="_top" xlink:title="/home/travis/build\l/ComPWA/ComPWA/DataReader\l/AsciiReader/AsciiReader.cpp">
<polygon fill="white" stroke="black" points="1978.5,-480.5 1978.5,-521.5 2145.5,-521.5 2145.5,-480.5 1978.5,-480.5"/>
<text text-anchor="start" x="1986.5" y="-509.5" font-family="Helvetica,sans-Serif" font-size="10.00">/home/travis/build</text>
<text text-anchor="start" x="1986.5" y="-498.5" font-family="Helvetica,sans-Serif" font-size="10.00">/ComPWA/ComPWA/DataReader</text>
<text text-anchor="middle" x="2062" y="-487.5" font-family="Helvetica,sans-Serif" font-size="10.00">/AsciiReader/AsciiReader.cpp</text>
</a>
</g>
</g>
<!-- Node1&#45;&gt;Node24 -->
<g id="edge51" class="edge"><title>Node1&#45;&gt;Node24</title>
<path fill="none" stroke="midnightblue" d="M1604.62,-570.205C1693.12,-560.845 1841.99,-543.663 1969,-522 1972.09,-521.472 1975.24,-520.913 1978.41,-520.329"/>
<polygon fill="midnightblue" stroke="midnightblue" points="1604.24,-566.725 1594.66,-571.252 1604.97,-573.687 1604.24,-566.725"/>
</g>
<!-- Node25 -->
<g id="node25" class="node"><title>Node25</title>
<g id="a_node25"><a xlink:href="../../d2/df3/RootEfficiency_8cpp.html" target="_top" xlink:title="/home/travis/build\l/ComPWA/ComPWA/DataReader\l/RootReader/RootEfficiency.cpp">
<polygon fill="white" stroke="black" points="2163.5,-480.5 2163.5,-521.5 2330.5,-521.5 2330.5,-480.5 2163.5,-480.5"/>
<text text-anchor="start" x="2171.5" y="-509.5" font-family="Helvetica,sans-Serif" font-size="10.00">/home/travis/build</text>
<text text-anchor="start" x="2171.5" y="-498.5" font-family="Helvetica,sans-Serif" font-size="10.00">/ComPWA/ComPWA/DataReader</text>
<text text-anchor="middle" x="2247" y="-487.5" font-family="Helvetica,sans-Serif" font-size="10.00">/RootReader/RootEfficiency.cpp</text>
</a>
</g>
</g>
<!-- Node1&#45;&gt;Node25 -->
<g id="edge52" class="edge"><title>Node1&#45;&gt;Node25</title>
<path fill="none" stroke="midnightblue" d="M1604.69,-574.135C1723.54,-567.531 1957.4,-551.804 2154,-522 2157.1,-521.53 2160.26,-521.019 2163.44,-520.477"/>
<polygon fill="midnightblue" stroke="midnightblue" points="1604.39,-570.646 1594.6,-574.689 1604.77,-577.636 1604.39,-570.646"/>
</g>
<!-- Node4 -->
<g id="node4" class="node"><title>Node4</title>
<g id="a_node4"><a xlink:href="../../db/db8/Functions_8cpp.html" target="_top" xlink:title="/home/travis/build\l/ComPWA/ComPWA/Core\l/Functions.cpp">
<polygon fill="white" stroke="black" points="651.5,-246.5 651.5,-287.5 786.5,-287.5 786.5,-246.5 651.5,-246.5"/>
<text text-anchor="start" x="659.5" y="-275.5" font-family="Helvetica,sans-Serif" font-size="10.00">/home/travis/build</text>
<text text-anchor="start" x="659.5" y="-264.5" font-family="Helvetica,sans-Serif" font-size="10.00">/ComPWA/ComPWA/Core</text>
<text text-anchor="middle" x="719" y="-253.5" font-family="Helvetica,sans-Serif" font-size="10.00">/Functions.cpp</text>
</a>
</g>
</g>
<!-- Node3&#45;&gt;Node4 -->
<g id="edge3" class="edge"><title>Node3&#45;&gt;Node4</title>
<path fill="none" stroke="midnightblue" d="M413.094,-324.807C414.405,-324.532 415.708,-324.263 417,-324 514.089,-304.247 539.911,-307.753 637,-288 641.595,-287.065 646.322,-286.051 651.077,-284.993"/>
<polygon fill="midnightblue" stroke="midnightblue" points="411.957,-321.472 402.923,-327.007 413.436,-328.313 411.957,-321.472"/>
</g>
<!-- Node5 -->
<g id="node5" class="node"><title>Node5</title>
<g id="a_node5"><a xlink:href="../../da/db2/FunctionTree_8hpp.html" target="_top" xlink:title="This class can be used to store a function in a tree&#45;like structure. ">
<polygon fill="white" stroke="red" points="267.5,-168.5 267.5,-209.5 402.5,-209.5 402.5,-168.5 267.5,-168.5"/>
<text text-anchor="start" x="275.5" y="-197.5" font-family="Helvetica,sans-Serif" font-size="10.00">/home/travis/build</text>
<text text-anchor="start" x="275.5" y="-186.5" font-family="Helvetica,sans-Serif" font-size="10.00">/ComPWA/ComPWA/Core</text>
<text text-anchor="middle" x="335" y="-175.5" font-family="Helvetica,sans-Serif" font-size="10.00">/FunctionTree.hpp</text>
</a>
</g>
</g>
<!-- Node3&#45;&gt;Node5 -->
<g id="edge4" class="edge"><title>Node3&#45;&gt;Node5</title>
<path fill="none" stroke="midnightblue" d="M335,-314.365C335,-283.606 335,-236.358 335,-209.832"/>
<polygon fill="midnightblue" stroke="midnightblue" points="331.5,-314.496 335,-324.496 338.5,-314.496 331.5,-314.496"/>
</g>
<!-- Node6 -->
<g id="node6" class="node"><title>Node6</title>
<g id="a_node6"><a xlink:href="../../d3/d0c/TreeTestApp_8cpp.html" target="_top" xlink:title="Test&#45;Application to show usage of the FunctionTree. ">
<polygon fill="white" stroke="black" points="229.5,-90.5 229.5,-131.5 364.5,-131.5 364.5,-90.5 229.5,-90.5"/>
<text text-anchor="start" x="237.5" y="-119.5" font-family="Helvetica,sans-Serif" font-size="10.00">/home/travis/build</text>
<text text-anchor="start" x="237.5" y="-108.5" font-family="Helvetica,sans-Serif" font-size="10.00">/ComPWA/ComPWA/Core</text>
<text text-anchor="middle" x="297" y="-97.5" font-family="Helvetica,sans-Serif" font-size="10.00">/test/TreeTestApp.cpp</text>
</a>
</g>
</g>
<!-- Node3&#45;&gt;Node6 -->
<g id="edge8" class="edge"><title>Node3&#45;&gt;Node6</title>
<path fill="none" stroke="midnightblue" d="M313.008,-315.962C294.232,-290.113 268.628,-249.828 258,-210 253.187,-191.964 252.409,-185.81 258,-168 262.187,-154.662 270.8,-141.722 278.87,-131.647"/>
<polygon fill="midnightblue" stroke="midnightblue" points="310.315,-318.206 319.083,-324.153 315.938,-314.036 310.315,-318.206"/>
</g>
<!-- Node7 -->
<g id="node7" class="node"><title>Node7</title>
<g id="a_node7"><a xlink:href="../../d9/de6/AmpWignerD_8hpp.html" target="_top" xlink:title="Angular distribution based on WignerD functions. ">
<polygon fill="white" stroke="red" points="1303.5,-90.5 1303.5,-131.5 1482.5,-131.5 1482.5,-90.5 1303.5,-90.5"/>
<text text-anchor="start" x="1311.5" y="-119.5" font-family="Helvetica,sans-Serif" font-size="10.00">/home/travis/build</text>
<text text-anchor="start" x="1311.5" y="-108.5" font-family="Helvetica,sans-Serif" font-size="10.00">/ComPWA/ComPWA/Physics</text>
<text text-anchor="middle" x="1393" y="-97.5" font-family="Helvetica,sans-Serif" font-size="10.00">/HelicityFormalism/AmpWignerD.hpp</text>
</a>
</g>
</g>
<!-- Node3&#45;&gt;Node7 -->
<g id="edge14" class="edge"><title>Node3&#45;&gt;Node7</title>
<path fill="none" stroke="midnightblue" d="M412.558,-323.445C448.763,-313.441 492.311,-300.822 531,-288 581.069,-271.407 591.164,-260.068 642,-246 830.459,-193.847 882.488,-202.29 1075,-168 1151.99,-154.287 1239.5,-138.89 1303.2,-127.717"/>
<polygon fill="midnightblue" stroke="midnightblue" points="411.267,-320.171 402.552,-326.196 413.122,-326.92 411.267,-320.171"/>
</g>
<!-- Node3&#45;&gt;Node8 -->
<g id="edge15" class="edge"><title>Node3&#45;&gt;Node8</title>
<path fill="none" stroke="midnightblue" d="M296.563,-318.245C286.086,-309.669 275.556,-299.369 268,-288 217.882,-212.586 157.421,-155.445 220,-90 265.53,-42.3851 1247.12,-30.8578 1528.96,-28.5248"/>
<polygon fill="midnightblue" stroke="midnightblue" points="294.479,-321.058 304.514,-324.456 298.788,-315.542 294.479,-321.058"/>
</g>
<!-- Node9 -->
<g id="node9" class="node"><title>Node9</title>
<g id="a_node9"><a xlink:href="../../d3/d71/TreeNode_8cpp.html" target="_top" xlink:title="/home/travis/build\l/ComPWA/ComPWA/Core\l/TreeNode.cpp">
<polygon fill="white" stroke="black" points="459.5,-168.5 459.5,-209.5 594.5,-209.5 594.5,-168.5 459.5,-168.5"/>
<text text-anchor="start" x="467.5" y="-197.5" font-family="Helvetica,sans-Serif" font-size="10.00">/home/travis/build</text>
<text text-anchor="start" x="467.5" y="-186.5" font-family="Helvetica,sans-Serif" font-size="10.00">/ComPWA/ComPWA/Core</text>
<text text-anchor="middle" x="527" y="-175.5" font-family="Helvetica,sans-Serif" font-size="10.00">/TreeNode.cpp</text>
</a>
</g>
</g>
<!-- Node3&#45;&gt;Node9 -->
<g id="edge9" class="edge"><title>Node3&#45;&gt;Node9</title>
<path fill="none" stroke="midnightblue" d="M412.366,-322.68C454.766,-310.321 500.113,-295.716 507,-288 526.194,-266.495 528.905,-231.673 528.439,-209.847"/>
<polygon fill="midnightblue" stroke="midnightblue" points="411.165,-319.384 402.531,-325.523 413.109,-326.109 411.165,-319.384"/>
</g>
<!-- Node10 -->
<g id="node10" class="node"><title>Node10</title>
<g id="a_node10"><a xlink:href="../../df/d5a/TreeNode_8hpp.html" target="_top" xlink:title="This class acts as a container for a parameter in a function tree. ">
<polygon fill="white" stroke="black" points="363.5,-246.5 363.5,-287.5 498.5,-287.5 498.5,-246.5 363.5,-246.5"/>
<text text-anchor="start" x="371.5" y="-275.5" font-family="Helvetica,sans-Serif" font-size="10.00">/home/travis/build</text>
<text text-anchor="start" x="371.5" y="-264.5" font-family="Helvetica,sans-Serif" font-size="10.00">/ComPWA/ComPWA/Core</text>
<text text-anchor="middle" x="431" y="-253.5" font-family="Helvetica,sans-Serif" font-size="10.00">/TreeNode.hpp</text>
</a>
</g>
</g>
<!-- Node3&#45;&gt;Node10 -->
<g id="edge10" class="edge"><title>Node3&#45;&gt;Node10</title>
<path fill="none" stroke="midnightblue" d="M367.76,-318.065C380.401,-308.057 394.615,-296.804 406.361,-287.506"/>
<polygon fill="midnightblue" stroke="midnightblue" points="365.39,-315.477 359.722,-324.428 369.735,-320.965 365.39,-315.477"/>
</g>
<!-- Node5&#45;&gt;Node6 -->
<g id="edge5" class="edge"><title>Node5&#45;&gt;Node6</title>
<path fill="none" stroke="midnightblue" d="M320.733,-159.466C316.071,-150.143 311.004,-140.007 306.753,-131.506"/>
<polygon fill="midnightblue" stroke="midnightblue" points="317.611,-161.049 325.214,-168.428 323.872,-157.919 317.611,-161.049"/>
</g>
<!-- Node5&#45;&gt;Node7 -->
<g id="edge6" class="edge"><title>Node5&#45;&gt;Node7</title>
<path fill="none" stroke="midnightblue" d="M412.545,-173.287C425.035,-171.271 437.849,-169.413 450,-168 762.169,-131.703 1135.37,-118.368 1303.32,-113.957"/>
<polygon fill="midnightblue" stroke="midnightblue" points="411.911,-169.844 402.617,-174.931 413.055,-176.75 411.911,-169.844"/>
</g>
<!-- Node7&#45;&gt;Node8 -->
<g id="edge7" class="edge"><title>Node7&#45;&gt;Node8</title>
<path fill="none" stroke="midnightblue" d="M1452.61,-86.8329C1479.65,-76.3238 1511.69,-63.8733 1539.32,-53.1381"/>
<polygon fill="midnightblue" stroke="midnightblue" points="1451.32,-83.5784 1443.27,-90.4631 1453.86,-90.1031 1451.32,-83.5784"/>
</g>
<!-- Node10&#45;&gt;Node5 -->
<g id="edge11" class="edge"><title>Node10&#45;&gt;Node5</title>
<path fill="none" stroke="midnightblue" d="M398.24,-240.065C385.599,-230.057 371.385,-218.804 359.639,-209.506"/>
<polygon fill="midnightblue" stroke="midnightblue" points="396.265,-242.965 406.278,-246.428 400.61,-237.477 396.265,-242.965"/>
</g>
<!-- Node10&#45;&gt;Node6 -->
<g id="edge12" class="edge"><title>Node10&#45;&gt;Node6</title>
<path fill="none" stroke="midnightblue" d="M431.583,-236.237C430.525,-215.197 425.984,-187.397 411,-168 398.531,-151.859 380.189,-140.071 361.846,-131.597"/>
<polygon fill="midnightblue" stroke="midnightblue" points="428.085,-236.348 431.855,-246.249 435.082,-236.158 428.085,-236.348"/>
</g>
<!-- Node10&#45;&gt;Node9 -->
<g id="edge13" class="edge"><title>Node10&#45;&gt;Node9</title>
<path fill="none" stroke="midnightblue" d="M463.76,-240.065C476.401,-230.057 490.615,-218.804 502.361,-209.506"/>
<polygon fill="midnightblue" stroke="midnightblue" points="461.39,-237.477 455.722,-246.428 465.735,-242.965 461.39,-237.477"/>
</g>
<!-- Node12&#45;&gt;Node3 -->
<g id="edge21" class="edge"><title>Node12&#45;&gt;Node3</title>
<path fill="none" stroke="midnightblue" d="M644.038,-491.774C566.773,-482.55 454.668,-465.96 417,-444 384.611,-425.117 359.249,-388.457 345.752,-365.72"/>
<polygon fill="midnightblue" stroke="midnightblue" points="643.885,-495.28 654.225,-492.971 644.702,-488.327 643.885,-495.28"/>
</g>
<!-- Node12&#45;&gt;Node5 -->
<g id="edge22" class="edge"><title>Node12&#45;&gt;Node5</title>
<path fill="none" stroke="midnightblue" d="M644.068,-499.264C532.799,-496.716 335.68,-486.178 280,-444 235.909,-410.6 231.154,-376.995 247,-324 260.554,-278.669 294.913,-234.452 316.468,-209.859"/>
<polygon fill="midnightblue" stroke="midnightblue" points="644.159,-502.767 654.232,-499.48 644.308,-495.768 644.159,-502.767"/>
</g>
<!-- Node12&#45;&gt;Node6 -->
<g id="edge38" class="edge"><title>Node12&#45;&gt;Node6</title>
<path fill="none" stroke="midnightblue" d="M644.147,-496.391C526.997,-490.047 311.581,-474.567 241,-444 179.067,-417.178 125,-413.491 125,-346 125,-346 125,-346 125,-266 125,-200.066 196.02,-155.28 246.788,-131.688"/>
<polygon fill="midnightblue" stroke="midnightblue" points="644.307,-499.905 654.478,-496.941 644.678,-492.915 644.307,-499.905"/>
</g>
<!-- Node12&#45;&gt;Node10 -->
<g id="edge39" class="edge"><title>Node12&#45;&gt;Node10</title>
<path fill="none" stroke="midnightblue" d="M644.196,-497.858C570.591,-493.508 458.259,-480.769 368,-444 312.496,-421.389 285.516,-419.243 258,-366 249.43,-349.417 247.02,-339.096 258,-324 281.955,-291.067 325.696,-277.104 363.2,-271.356"/>
<polygon fill="midnightblue" stroke="midnightblue" points="644.141,-501.36 654.319,-498.417 644.527,-494.371 644.141,-501.36"/>
</g>
<!-- Node13 -->
<g id="node13" class="node"><title>Node13</title>
<g id="a_node13"><a xlink:href="../../dc/d53/Dictionary_8cpp.html" target="_top" xlink:title="/home/travis/build\l/ComPWA/ComPWA/Core\l/Dictionary.cpp">
<polygon fill="white" stroke="black" points="925.5,-246.5 925.5,-287.5 1060.5,-287.5 1060.5,-246.5 925.5,-246.5"/>
<text text-anchor="start" x="933.5" y="-275.5" font-family="Helvetica,sans-Serif" font-size="10.00">/home/travis/build</text>
<text text-anchor="start" x="933.5" y="-264.5" font-family="Helvetica,sans-Serif" font-size="10.00">/ComPWA/ComPWA/Core</text>
<text text-anchor="middle" x="993" y="-253.5" font-family="Helvetica,sans-Serif" font-size="10.00">/Dictionary.cpp</text>
</a>
</g>
</g>
<!-- Node12&#45;&gt;Node13 -->
<g id="edge18" class="edge"><title>Node12&#45;&gt;Node13</title>
<path fill="none" stroke="midnightblue" d="M644.369,-482.14C541.75,-455.115 381.386,-398.932 449,-324 449.991,-322.901 779.811,-289.506 925.347,-274.819"/>
<polygon fill="midnightblue" stroke="midnightblue" points="643.552,-485.543 654.11,-484.664 645.308,-478.767 643.552,-485.543"/>
</g>
<!-- Node14 -->
<g id="node14" class="node"><title>Node14</title>
<g id="a_node14"><a xlink:href="../../d5/dc2/Dictionary_8hpp.html" target="_top" xlink:title="This class gathers information from modules, namely what they need as input and what they provide as ...">
<polygon fill="white" stroke="black" points="1117.5,-324.5 1117.5,-365.5 1252.5,-365.5 1252.5,-324.5 1117.5,-324.5"/>
<text text-anchor="start" x="1125.5" y="-353.5" font-family="Helvetica,sans-Serif" font-size="10.00">/home/travis/build</text>
<text text-anchor="start" x="1125.5" y="-342.5" font-family="Helvetica,sans-Serif" font-size="10.00">/ComPWA/ComPWA/Core</text>
<text text-anchor="middle" x="1185" y="-331.5" font-family="Helvetica,sans-Serif" font-size="10.00">/Dictionary.hpp</text>
</a>
</g>
</g>
<!-- Node12&#45;&gt;Node14 -->
<g id="edge19" class="edge"><title>Node12&#45;&gt;Node14</title>
<path fill="none" stroke="midnightblue" d="M799.594,-495.534C896.845,-488.784 1056.98,-473.515 1108,-444 1139.84,-425.581 1163.35,-388.409 1175.55,-365.512"/>
<polygon fill="midnightblue" stroke="midnightblue" points="799.253,-492.049 789.513,-496.219 799.728,-499.033 799.253,-492.049"/>
</g>
<!-- Node12&#45;&gt;Node15 -->
<g id="edge23" class="edge"><title>Node12&#45;&gt;Node15</title>
<path fill="none" stroke="midnightblue" d="M799.586,-480.979C850.314,-468.542 915.928,-452.456 964.496,-440.549"/>
<polygon fill="midnightblue" stroke="midnightblue" points="798.527,-477.635 789.648,-483.415 800.194,-484.434 798.527,-477.635"/>
</g>
<!-- Node12&#45;&gt;Node17 -->
<g id="edge37" class="edge"><title>Node12&#45;&gt;Node17</title>
<path fill="none" stroke="midnightblue" d="M799.842,-493.045C884.947,-484.659 1025.07,-468.554 1144,-444 1246.54,-422.831 1363.2,-387.493 1431.77,-365.536"/>
<polygon fill="midnightblue" stroke="midnightblue" points="799.354,-489.576 789.741,-494.03 800.033,-496.543 799.354,-489.576"/>
</g>
<!-- Node18 -->
<g id="node18" class="node"><title>Node18</title>
<g id="a_node18"><a xlink:href="../../d4/d31/EstimatorTestApp_8cpp.html" target="_top" xlink:title="Test&#45;Application of a simple &#160;estimator. ">
<polygon fill="white" stroke="black" points="644,-324.5 644,-365.5 800,-365.5 800,-324.5 644,-324.5"/>
<text text-anchor="start" x="652" y="-353.5" font-family="Helvetica,sans-Serif" font-size="10.00">/home/travis/build</text>
<text text-anchor="start" x="652" y="-342.5" font-family="Helvetica,sans-Serif" font-size="10.00">/ComPWA/ComPWA/Estimator</text>
<text text-anchor="middle" x="722" y="-331.5" font-family="Helvetica,sans-Serif" font-size="10.00">/test/EstimatorTestApp.cpp</text>
</a>
</g>
</g>
<!-- Node12&#45;&gt;Node18 -->
<g id="edge40" class="edge"><title>Node12&#45;&gt;Node18</title>
<path fill="none" stroke="midnightblue" d="M722,-470.365C722,-439.606 722,-392.358 722,-365.832"/>
<polygon fill="midnightblue" stroke="midnightblue" points="718.5,-470.496 722,-480.496 725.5,-470.496 718.5,-470.496"/>
</g>
<!-- Node19 -->
<g id="node19" class="node"><title>Node19</title>
<g id="a_node19"><a xlink:href="../../d3/d54/AmpPlotterApp_8cpp.html" target="_top" xlink:title="Plotting Tool for Physics&#45;IF amplitudes. ">
<polygon fill="white" stroke="black" points="818.5,-324.5 818.5,-365.5 985.5,-365.5 985.5,-324.5 818.5,-324.5"/>
<text text-anchor="start" x="826.5" y="-353.5" font-family="Helvetica,sans-Serif" font-size="10.00">/home/travis/build</text>
<text text-anchor="start" x="826.5" y="-342.5" font-family="Helvetica,sans-Serif" font-size="10.00">/ComPWA/ComPWA/executables</text>
<text text-anchor="middle" x="902" y="-331.5" font-family="Helvetica,sans-Serif" font-size="10.00">/AmpPlotter/AmpPlotterApp.cpp</text>
</a>
</g>
</g>
<!-- Node12&#45;&gt;Node19 -->
<g id="edge41" class="edge"><title>Node12&#45;&gt;Node19</title>
<path fill="none" stroke="midnightblue" d="M752.514,-473.894C788.342,-443.24 846.949,-393.099 879.104,-365.588"/>
<polygon fill="midnightblue" stroke="midnightblue" points="750.12,-471.335 744.797,-480.496 754.671,-476.654 750.12,-471.335"/>
</g>
<!-- Node20 -->
<g id="node20" class="node"><title>Node20</title>
<g id="a_node20"><a xlink:href="../../de/dbe/BlackScholesApp_8cpp.html" target="_top" xlink:title="Test&#45;Application for Black&#45;Scholes stock model. ">
<polygon fill="white" stroke="black" points="458.5,-324.5 458.5,-365.5 625.5,-365.5 625.5,-324.5 458.5,-324.5"/>
<text text-anchor="start" x="466.5" y="-353.5" font-family="Helvetica,sans-Serif" font-size="10.00">/home/travis/build</text>
<text text-anchor="start" x="466.5" y="-342.5" font-family="Helvetica,sans-Serif" font-size="10.00">/ComPWA/ComPWA/executables</text>
<text text-anchor="middle" x="542" y="-331.5" font-family="Helvetica,sans-Serif" font-size="10.00">/BlackScholesApp.cpp</text>
</a>
</g>
</g>
<!-- Node12&#45;&gt;Node20 -->
<g id="edge42" class="edge"><title>Node12&#45;&gt;Node20</title>
<path fill="none" stroke="midnightblue" d="M691.486,-473.894C655.658,-443.24 597.051,-393.099 564.896,-365.588"/>
<polygon fill="midnightblue" stroke="midnightblue" points="689.329,-476.654 699.203,-480.496 693.88,-471.335 689.329,-476.654"/>
</g>
<!-- Node21 -->
<g id="node21" class="node"><title>Node21</title>
<g id="a_node21"><a xlink:href="../../d8/d35/PhysConst_8hpp.html" target="_top" xlink:title="PhysConst provides particle information to the framework. ">
<polygon fill="white" stroke="red" points="1590.5,-402.5 1590.5,-443.5 1725.5,-443.5 1725.5,-402.5 1590.5,-402.5"/>
<text text-anchor="start" x="1598.5" y="-431.5" font-family="Helvetica,sans-Serif" font-size="10.00">/home/travis/build</text>
<text text-anchor="start" x="1598.5" y="-420.5" font-family="Helvetica,sans-Serif" font-size="10.00">/ComPWA/ComPWA/Core</text>
<text text-anchor="middle" x="1658" y="-409.5" font-family="Helvetica,sans-Serif" font-size="10.00">/PhysConst.hpp</text>
</a>
</g>
</g>
<!-- Node12&#45;&gt;Node21 -->
<g id="edge34" class="edge"><title>Node12&#45;&gt;Node21</title>
<path fill="none" stroke="midnightblue" d="M799.697,-494.581C933.288,-485.144 1215.1,-464.715 1453,-444 1498.78,-440.014 1550.25,-434.99 1590.17,-430.975"/>
<polygon fill="midnightblue" stroke="midnightblue" points="799.29,-491.101 789.562,-495.296 799.783,-498.083 799.29,-491.101"/>
</g>
<!-- Node14&#45;&gt;Node13 -->
<g id="edge20" class="edge"><title>Node14&#45;&gt;Node13</title>
<path fill="none" stroke="midnightblue" d="M1125.91,-320.609C1099.11,-310.001 1067.78,-297.602 1042.28,-287.506"/>
<polygon fill="midnightblue" stroke="midnightblue" points="1124.97,-324.002 1135.56,-324.428 1127.55,-317.493 1124.97,-324.002"/>
</g>
<!-- Node15&#45;&gt;Node3 -->
<g id="edge26" class="edge"><title>Node15&#45;&gt;Node3</title>
<path fill="none" stroke="midnightblue" d="M954.289,-416.472C842.327,-408.067 629.274,-390.434 449,-366 433.967,-363.962 417.885,-361.387 402.681,-358.768"/>
<polygon fill="midnightblue" stroke="midnightblue" points="954.242,-419.978 964.475,-417.232 954.763,-412.997 954.242,-419.978"/>
</g>
<!-- Node15&#45;&gt;Node7 -->
<g id="edge33" class="edge"><title>Node15&#45;&gt;Node7</title>
<path fill="none" stroke="midnightblue" d="M1050.61,-394.009C1064.99,-373.457 1086.07,-345.495 1108,-324 1190.8,-242.849 1305.69,-166.555 1360.88,-131.75"/>
<polygon fill="midnightblue" stroke="midnightblue" points="1047.67,-392.103 1044.88,-402.323 1053.44,-396.077 1047.67,-392.103"/>
</g>
<!-- Node15&#45;&gt;Node10 -->
<g id="edge29" class="edge"><title>Node15&#45;&gt;Node10</title>
<path fill="none" stroke="midnightblue" d="M1028.72,-392.15C1024.57,-369.689 1015.19,-340.112 994,-324 991.55,-322.138 647.59,-288.842 498.566,-274.492"/>
<polygon fill="midnightblue" stroke="midnightblue" points="1025.29,-392.88 1030.32,-402.205 1032.2,-391.778 1025.29,-392.88"/>
</g>
<!-- Node15&#45;&gt;Node13 -->
<g id="edge24" class="edge"><title>Node15&#45;&gt;Node13</title>
<path fill="none" stroke="midnightblue" d="M1034.22,-392.118C1034.79,-372.359 1033.8,-346.12 1027,-324 1022.99,-310.954 1015.27,-297.834 1008.2,-287.576"/>
<polygon fill="midnightblue" stroke="midnightblue" points="1030.72,-392.217 1033.78,-402.36 1037.71,-392.523 1030.72,-392.217"/>
</g>
<!-- Node15&#45;&gt;Node14 -->
<g id="edge25" class="edge"><title>Node15&#45;&gt;Node14</title>
<path fill="none" stroke="midnightblue" d="M1080.5,-397.908C1101.54,-387.458 1125.85,-375.38 1145.73,-365.506"/>
<polygon fill="midnightblue" stroke="midnightblue" points="1078.8,-394.845 1071.4,-402.428 1081.91,-401.114 1078.8,-394.845"/>
</g>
<!-- Node15&#45;&gt;Node16 -->
<g id="edge27" class="edge"><title>Node15&#45;&gt;Node16</title>
<path fill="none" stroke="midnightblue" d="M1109.55,-403.327C1153.93,-392.568 1210.64,-378.698 1261,-366 1264.08,-365.223 1267.23,-364.425 1270.41,-363.615"/>
<polygon fill="midnightblue" stroke="midnightblue" points="1108.59,-399.957 1099.7,-405.713 1110.24,-406.761 1108.59,-399.957"/>
</g>
<!-- Node15&#45;&gt;Node17 -->
<g id="edge28" class="edge"><title>Node15&#45;&gt;Node17</title>
<path fill="none" stroke="midnightblue" d="M1109.82,-413.104C1187.32,-403.657 1309.48,-387.171 1414,-366 1417.11,-365.369 1420.29,-364.691 1423.49,-363.978"/>
<polygon fill="midnightblue" stroke="midnightblue" points="1109.17,-409.658 1099.66,-414.334 1110.01,-416.607 1109.17,-409.658"/>
</g>
<!-- Node15&#45;&gt;Node18 -->
<g id="edge30" class="edge"><title>Node15&#45;&gt;Node18</title>
<path fill="none" stroke="midnightblue" d="M954.503,-403.001C907.386,-391.45 847.405,-376.745 800.168,-365.164"/>
<polygon fill="midnightblue" stroke="midnightblue" points="953.806,-406.434 964.352,-405.415 955.473,-399.635 953.806,-406.434"/>
</g>
<!-- Node15&#45;&gt;Node19 -->
<g id="edge31" class="edge"><title>Node15&#45;&gt;Node19</title>
<path fill="none" stroke="midnightblue" d="M989.584,-397.203C971.991,-386.918 951.877,-375.159 935.365,-365.506"/>
<polygon fill="midnightblue" stroke="midnightblue" points="988.122,-400.403 998.522,-402.428 991.655,-394.36 988.122,-400.403"/>
</g>
<!-- Node15&#45;&gt;Node20 -->
<g id="edge32" class="edge"><title>Node15&#45;&gt;Node20</title>
<path fill="none" stroke="midnightblue" d="M954.309,-412.714C874.086,-402.734 745.41,-385.633 635,-366 631.911,-365.451 628.768,-364.873 625.596,-364.273"/>
<polygon fill="midnightblue" stroke="midnightblue" points="953.977,-416.2 964.331,-413.955 954.837,-409.253 953.977,-416.2"/>
</g>
<!-- Node21&#45;&gt;Node7 -->
<g id="edge36" class="edge"><title>Node21&#45;&gt;Node7</title>
<path fill="none" stroke="midnightblue" d="M1697.03,-395.776C1706.29,-387.445 1714.94,-377.391 1720,-366 1727.58,-348.941 1728.91,-340.401 1720,-324 1663.87,-220.712 1533.3,-159.972 1455.19,-131.604"/>
<polygon fill="midnightblue" stroke="midnightblue" points="1694.59,-393.254 1689.17,-402.36 1699.09,-398.619 1694.59,-393.254"/>
</g>
<!-- Node21&#45;&gt;Node11 -->
<g id="edge35" class="edge"><title>Node21&#45;&gt;Node11</title>
<path fill="none" stroke="midnightblue" d="M1652.58,-392.59C1650.91,-383.511 1649.11,-373.742 1647.59,-365.506"/>
<polygon fill="midnightblue" stroke="midnightblue" points="1649.14,-393.228 1654.39,-402.428 1656.03,-391.959 1649.14,-393.228"/>
</g>
<!-- Node22&#45;&gt;Node7 -->
<g id="edge47" class="edge"><title>Node22&#45;&gt;Node7</title>
<path fill="none" stroke="midnightblue" d="M1705.72,-473.572C1736.54,-445.499 1778,-398.055 1778,-346 1778,-346 1778,-346 1778,-266 1778,-202.74 1596.54,-153.756 1482.78,-129.262"/>
<polygon fill="midnightblue" stroke="midnightblue" points="1703.31,-471.031 1698.15,-480.282 1707.96,-476.27 1703.31,-471.031"/>
</g>
<!-- Node22&#45;&gt;Node8 -->
<g id="edge48" class="edge"><title>Node22&#45;&gt;Node8</title>
<path fill="none" stroke="midnightblue" d="M1722.01,-475.282C1736.03,-466.673 1750.59,-456.095 1762,-444 1796.13,-407.831 1816,-395.73 1816,-346 1816,-346 1816,-346 1816,-188 1816,-117.334 1740.03,-73.9365 1679.04,-50.4834"/>
<polygon fill="midnightblue" stroke="midnightblue" points="1720.2,-472.281 1713.38,-480.384 1723.77,-478.307 1720.2,-472.281"/>
</g>
<!-- Node22&#45;&gt;Node21 -->
<g id="edge46" class="edge"><title>Node22&#45;&gt;Node21</title>
<path fill="none" stroke="midnightblue" d="M1667.2,-470.59C1665.4,-461.511 1663.48,-451.742 1661.85,-443.506"/>
<polygon fill="midnightblue" stroke="midnightblue" points="1663.77,-471.295 1669.14,-480.428 1670.63,-469.94 1663.77,-471.295"/>
</g>
</g>
</svg>
