<?xml version="1.0" encoding="UTF-8" standalone="no"?>
<!DOCTYPE svg PUBLIC "-//W3C//DTD SVG 1.1//EN"
 "http://www.w3.org/Graphics/SVG/1.1/DTD/svg11.dtd">
<!-- Generated by graphviz version 2.36.0 (20140111.2315)
 -->
<!-- Title: /home/travis/build/ComPWA/ComPWA/Core/Exceptions.hpp Pages: 1 -->
<svg width="2009pt" height="620pt"
 viewBox="0.00 0.00 2009.00 620.00" xmlns="http://www.w3.org/2000/svg" xmlns:xlink="http://www.w3.org/1999/xlink">
<g id="graph0" class="graph" transform="scale(1 1) rotate(0) translate(4 616)">
<title>/home/travis/build/ComPWA/ComPWA/Core/Exceptions.hpp</title>
<polygon fill="white" stroke="none" points="-4,4 -4,-616 2005,-616 2005,4 -4,4"/>
<!-- Node1 -->
<g id="node1" class="node"><title>Node1</title>
<polygon fill="#bfbfbf" stroke="black" points="944.5,-570.5 944.5,-611.5 1079.5,-611.5 1079.5,-570.5 944.5,-570.5"/>
<text text-anchor="start" x="952.5" y="-599.5" font-family="Helvetica,sans-Serif" font-size="10.00">/home/travis/build</text>
<text text-anchor="start" x="952.5" y="-588.5" font-family="Helvetica,sans-Serif" font-size="10.00">/ComPWA/ComPWA/Core</text>
<text text-anchor="middle" x="1012" y="-577.5" font-family="Helvetica,sans-Serif" font-size="10.00">/Exceptions.hpp</text>
</g>
<!-- Node2 -->
<g id="node2" class="node"><title>Node2</title>
<g id="a_node2"><a xlink:href="../../d5/da9/DataPoint_8cpp.html" target="_top" xlink:title="/home/travis/build\l/ComPWA/ComPWA/Core\l/DataPoint.cpp">
<polygon fill="white" stroke="black" points="-0.5,-492.5 -0.5,-533.5 134.5,-533.5 134.5,-492.5 -0.5,-492.5"/>
<text text-anchor="start" x="7.5" y="-521.5" font-family="Helvetica,sans-Serif" font-size="10.00">/home/travis/build</text>
<text text-anchor="start" x="7.5" y="-510.5" font-family="Helvetica,sans-Serif" font-size="10.00">/ComPWA/ComPWA/Core</text>
<text text-anchor="middle" x="67" y="-499.5" font-family="Helvetica,sans-Serif" font-size="10.00">/DataPoint.cpp</text>
</a>
</g>
</g>
<!-- Node1&#45;&gt;Node2 -->
<g id="edge1" class="edge"><title>Node1&#45;&gt;Node2</title>
<path fill="none" stroke="midnightblue" d="M934.24,-589.998C781.547,-588.894 432.203,-580.92 143,-534 140.306,-533.563 137.57,-533.072 134.814,-532.539"/>
<polygon fill="midnightblue" stroke="midnightblue" points="934.428,-593.5 944.451,-590.064 934.473,-586.5 934.428,-593.5"/>
</g>
<!-- Node3 -->
<g id="node3" class="node"><title>Node3</title>
<g id="a_node3"><a xlink:href="../../dc/d66/Functions_8hpp.html" target="_top" xlink:title="This file contains Functions implementing the Strategy interface so they can be used inside a node of...">
<polygon fill="white" stroke="black" points="454.5,-336.5 454.5,-377.5 589.5,-377.5 589.5,-336.5 454.5,-336.5"/>
<text text-anchor="start" x="462.5" y="-365.5" font-family="Helvetica,sans-Serif" font-size="10.00">/home/travis/build</text>
<text text-anchor="start" x="462.5" y="-354.5" font-family="Helvetica,sans-Serif" font-size="10.00">/ComPWA/ComPWA/Core</text>
<text text-anchor="middle" x="522" y="-343.5" font-family="Helvetica,sans-Serif" font-size="10.00">/Functions.hpp</text>
</a>
</g>
</g>
<!-- Node1&#45;&gt;Node3 -->
<g id="edge2" class="edge"><title>Node1&#45;&gt;Node3</title>
<path fill="none" stroke="midnightblue" d="M934.244,-580.272C875.302,-571.625 792.813,-556.774 723,-534 645.503,-508.719 611.802,-516.347 557,-456 536.838,-433.798 528.107,-399.183 524.46,-377.589"/>
<polygon fill="midnightblue" stroke="midnightblue" points="933.833,-583.749 944.23,-581.711 934.831,-576.821 933.833,-583.749"/>
</g>
<!-- Node9 -->
<g id="node9" class="node"><title>Node9</title>
<g id="a_node9"><a xlink:href="../../d6/da5/RelativisticBreitWigner_8hpp.html" target="_top" xlink:title="/home/travis/build\l/ComPWA/ComPWA/Physics\l/DecayDynamics/RelativisticBreit\lWigner.hpp">
<polygon fill="white" stroke="red" points="430,-1 430,-53 594,-53 594,-1 430,-1"/>
<text text-anchor="start" x="438" y="-41" font-family="Helvetica,sans-Serif" font-size="10.00">/home/travis/build</text>
<text text-anchor="start" x="438" y="-30" font-family="Helvetica,sans-Serif" font-size="10.00">/ComPWA/ComPWA/Physics</text>
<text text-anchor="start" x="438" y="-19" font-family="Helvetica,sans-Serif" font-size="10.00">/DecayDynamics/RelativisticBreit</text>
<text text-anchor="middle" x="512" y="-8" font-family="Helvetica,sans-Serif" font-size="10.00">Wigner.hpp</text>
</a>
</g>
</g>
<!-- Node1&#45;&gt;Node9 -->
<g id="edge56" class="edge"><title>Node1&#45;&gt;Node9</title>
<path fill="none" stroke="midnightblue" d="M1089.8,-577.657C1138.06,-568.626 1200.8,-554.367 1254,-534 1388.13,-482.654 1451.9,-493.697 1537,-378 1563.34,-342.19 1557,-324.453 1557,-280 1557,-280 1557,-280 1557,-200 1557,-43.7122 1376.09,-121.443 1223,-90 998.613,-43.9144 727.511,-32.0572 594.19,-29.026"/>
<polygon fill="midnightblue" stroke="midnightblue" points="1088.93,-574.258 1079.73,-579.505 1090.2,-581.143 1088.93,-574.258"/>
</g>
<!-- Node12 -->
<g id="node12" class="node"><title>Node12</title>
<g id="a_node12"><a xlink:href="../../de/d57/Kinematics_8cpp.html" target="_top" xlink:title="/home/travis/build\l/ComPWA/ComPWA/Core\l/Kinematics.cpp">
<polygon fill="white" stroke="black" points="224.5,-258.5 224.5,-299.5 359.5,-299.5 359.5,-258.5 224.5,-258.5"/>
<text text-anchor="start" x="232.5" y="-287.5" font-family="Helvetica,sans-Serif" font-size="10.00">/home/travis/build</text>
<text text-anchor="start" x="232.5" y="-276.5" font-family="Helvetica,sans-Serif" font-size="10.00">/ComPWA/ComPWA/Core</text>
<text text-anchor="middle" x="292" y="-265.5" font-family="Helvetica,sans-Serif" font-size="10.00">/Kinematics.cpp</text>
</a>
</g>
</g>
<!-- Node1&#45;&gt;Node12 -->
<g id="edge17" class="edge"><title>Node1&#45;&gt;Node12</title>
<path fill="none" stroke="midnightblue" d="M934.027,-584.732C830.566,-576.856 654.093,-560.085 595,-534 496.296,-490.43 488.115,-451.36 409,-378 389.872,-360.263 387.676,-353.127 368,-336 353.165,-323.087 335.539,-309.976 320.998,-299.689"/>
<polygon fill="midnightblue" stroke="midnightblue" points="933.879,-588.231 944.113,-585.49 934.403,-581.251 933.879,-588.231"/>
</g>
<!-- Node13 -->
<g id="node13" class="node"><title>Node13</title>
<g id="a_node13"><a xlink:href="../../db/dce/Parameter_8hpp.html" target="_top" xlink:title="This class implements some internal container of parameters. ">
<polygon fill="white" stroke="red" points="732.5,-492.5 732.5,-533.5 867.5,-533.5 867.5,-492.5 732.5,-492.5"/>
<text text-anchor="start" x="740.5" y="-521.5" font-family="Helvetica,sans-Serif" font-size="10.00">/home/travis/build</text>
<text text-anchor="start" x="740.5" y="-510.5" font-family="Helvetica,sans-Serif" font-size="10.00">/ComPWA/ComPWA/Core</text>
<text text-anchor="middle" x="800" y="-499.5" font-family="Helvetica,sans-Serif" font-size="10.00">/Parameter.hpp</text>
</a>
</g>
</g>
<!-- Node1&#45;&gt;Node13 -->
<g id="edge18" class="edge"><title>Node1&#45;&gt;Node13</title>
<path fill="none" stroke="midnightblue" d="M947.916,-567.026C918.072,-556.328 882.943,-543.734 854.41,-533.506"/>
<polygon fill="midnightblue" stroke="midnightblue" points="946.81,-570.348 957.405,-570.428 949.172,-563.759 946.81,-570.348"/>
</g>
<!-- Node16 -->
<g id="node16" class="node"><title>Node16</title>
<g id="a_node16"><a xlink:href="../../df/d9f/ParameterList_8hpp.html" target="_top" xlink:title="This class provides a list of fit parameters which can have different types. ">
<polygon fill="white" stroke="red" points="944.5,-414.5 944.5,-455.5 1079.5,-455.5 1079.5,-414.5 944.5,-414.5"/>
<text text-anchor="start" x="952.5" y="-443.5" font-family="Helvetica,sans-Serif" font-size="10.00">/home/travis/build</text>
<text text-anchor="start" x="952.5" y="-432.5" font-family="Helvetica,sans-Serif" font-size="10.00">/ComPWA/ComPWA/Core</text>
<text text-anchor="middle" x="1012" y="-421.5" font-family="Helvetica,sans-Serif" font-size="10.00">/ParameterList.hpp</text>
</a>
</g>
</g>
<!-- Node1&#45;&gt;Node16 -->
<g id="edge45" class="edge"><title>Node1&#45;&gt;Node16</title>
<path fill="none" stroke="midnightblue" d="M1012,-560.365C1012,-529.606 1012,-482.358 1012,-455.832"/>
<polygon fill="midnightblue" stroke="midnightblue" points="1008.5,-560.496 1012,-570.496 1015.5,-560.496 1008.5,-560.496"/>
</g>
<!-- Node17 -->
<g id="node17" class="node"><title>Node17</title>
<g id="a_node17"><a xlink:href="../../d2/dd8/ParameterList_8cpp.html" target="_top" xlink:title="/home/travis/build\l/ComPWA/ComPWA/Core\l/ParameterList.cpp">
<polygon fill="white" stroke="black" points="1393.5,-336.5 1393.5,-377.5 1528.5,-377.5 1528.5,-336.5 1393.5,-336.5"/>
<text text-anchor="start" x="1401.5" y="-365.5" font-family="Helvetica,sans-Serif" font-size="10.00">/home/travis/build</text>
<text text-anchor="start" x="1401.5" y="-354.5" font-family="Helvetica,sans-Serif" font-size="10.00">/ComPWA/ComPWA/Core</text>
<text text-anchor="middle" x="1461" y="-343.5" font-family="Helvetica,sans-Serif" font-size="10.00">/ParameterList.cpp</text>
</a>
</g>
</g>
<!-- Node1&#45;&gt;Node17 -->
<g id="edge44" class="edge"><title>Node1&#45;&gt;Node17</title>
<path fill="none" stroke="midnightblue" d="M1089.57,-573.148C1125.1,-563.958 1167.17,-550.954 1203,-534 1296.61,-489.708 1394.16,-413.536 1437.65,-377.711"/>
<polygon fill="midnightblue" stroke="midnightblue" points="1088.57,-569.791 1079.74,-575.639 1090.29,-576.577 1088.57,-569.791"/>
</g>
<!-- Node18 -->
<g id="node18" class="node"><title>Node18</title>
<g id="a_node18"><a xlink:href="../../dc/d31/ParameterTest_8cpp.html" target="_top" xlink:title="/home/travis/build\l/ComPWA/ComPWA/Core\l/test/ParameterTest.cpp">
<polygon fill="white" stroke="black" points="1240.5,-336.5 1240.5,-377.5 1375.5,-377.5 1375.5,-336.5 1240.5,-336.5"/>
<text text-anchor="start" x="1248.5" y="-365.5" font-family="Helvetica,sans-Serif" font-size="10.00">/home/travis/build</text>
<text text-anchor="start" x="1248.5" y="-354.5" font-family="Helvetica,sans-Serif" font-size="10.00">/ComPWA/ComPWA/Core</text>
<text text-anchor="middle" x="1308" y="-343.5" font-family="Helvetica,sans-Serif" font-size="10.00">/test/ParameterTest.cpp</text>
</a>
</g>
</g>
<!-- Node1&#45;&gt;Node18 -->
<g id="edge52" class="edge"><title>Node1&#45;&gt;Node18</title>
<path fill="none" stroke="midnightblue" d="M1081.89,-566.864C1137.12,-545.546 1212.98,-509.114 1263,-456 1284.18,-433.512 1296.75,-399.301 1303.01,-377.821"/>
<polygon fill="midnightblue" stroke="midnightblue" points="1080.64,-563.597 1072.52,-570.412 1083.12,-570.144 1080.64,-563.597"/>
</g>
<!-- Node21 -->
<g id="node21" class="node"><title>Node21</title>
<g id="a_node21"><a xlink:href="../../dc/ded/Properties_8hpp.html" target="_top" xlink:title="/home/travis/build\l/ComPWA/ComPWA/Core\l/Properties.hpp">
<polygon fill="white" stroke="red" points="224.5,-414.5 224.5,-455.5 359.5,-455.5 359.5,-414.5 224.5,-414.5"/>
<text text-anchor="start" x="232.5" y="-443.5" font-family="Helvetica,sans-Serif" font-size="10.00">/home/travis/build</text>
<text text-anchor="start" x="232.5" y="-432.5" font-family="Helvetica,sans-Serif" font-size="10.00">/ComPWA/ComPWA/Core</text>
<text text-anchor="middle" x="292" y="-421.5" font-family="Helvetica,sans-Serif" font-size="10.00">/Properties.hpp</text>
</a>
</g>
</g>
<!-- Node1&#45;&gt;Node21 -->
<g id="edge46" class="edge"><title>Node1&#45;&gt;Node21</title>
<path fill="none" stroke="midnightblue" d="M934.222,-588.351C793.958,-584.457 504.612,-571.954 412,-534 369.689,-516.66 330.655,-479.134 309.204,-455.878"/>
<polygon fill="midnightblue" stroke="midnightblue" points="934.376,-591.856 944.467,-588.627 934.565,-584.859 934.376,-591.856"/>
</g>
<!-- Node22 -->
<g id="node22" class="node"><title>Node22</title>
<g id="a_node22"><a xlink:href="../../d9/dfb/Spin_8hpp.html" target="_top" xlink:title="/home/travis/build\l/ComPWA/ComPWA/Core\l/Spin.hpp">
<polygon fill="white" stroke="red" points="152.5,-492.5 152.5,-533.5 287.5,-533.5 287.5,-492.5 152.5,-492.5"/>
<text text-anchor="start" x="160.5" y="-521.5" font-family="Helvetica,sans-Serif" font-size="10.00">/home/travis/build</text>
<text text-anchor="start" x="160.5" y="-510.5" font-family="Helvetica,sans-Serif" font-size="10.00">/ComPWA/ComPWA/Core</text>
<text text-anchor="middle" x="220" y="-499.5" font-family="Helvetica,sans-Serif" font-size="10.00">/Spin.hpp</text>
</a>
</g>
</g>
<!-- Node1&#45;&gt;Node22 -->
<g id="edge47" class="edge"><title>Node1&#45;&gt;Node22</title>
<path fill="none" stroke="midnightblue" d="M934.007,-586.306C806.432,-579.664 545.359,-563.564 326,-534 313.565,-532.324 300.378,-530.155 287.685,-527.867"/>
<polygon fill="midnightblue" stroke="midnightblue" points="933.908,-589.805 944.075,-586.825 934.268,-582.814 933.908,-589.805"/>
</g>
<!-- Node23 -->
<g id="node23" class="node"><title>Node23</title>
<g id="a_node23"><a xlink:href="../../da/dbe/ParticleTest_8cpp.html" target="_top" xlink:title="/home/travis/build\l/ComPWA/ComPWA/Core\l/test/ParticleTest.cpp">
<polygon fill="white" stroke="black" points="1496.5,-492.5 1496.5,-533.5 1631.5,-533.5 1631.5,-492.5 1496.5,-492.5"/>
<text text-anchor="start" x="1504.5" y="-521.5" font-family="Helvetica,sans-Serif" font-size="10.00">/home/travis/build</text>
<text text-anchor="start" x="1504.5" y="-510.5" font-family="Helvetica,sans-Serif" font-size="10.00">/ComPWA/ComPWA/Core</text>
<text text-anchor="middle" x="1564" y="-499.5" font-family="Helvetica,sans-Serif" font-size="10.00">/test/ParticleTest.cpp</text>
</a>
</g>
</g>
<!-- Node1&#45;&gt;Node23 -->
<g id="edge53" class="edge"><title>Node1&#45;&gt;Node23</title>
<path fill="none" stroke="midnightblue" d="M1089.94,-583.615C1183.52,-575.281 1345.02,-558.772 1482,-534 1486.61,-533.166 1491.36,-532.227 1496.12,-531.224"/>
<polygon fill="midnightblue" stroke="midnightblue" points="1089.36,-580.153 1079.7,-584.518 1089.97,-587.125 1089.36,-580.153"/>
</g>
<!-- Node24 -->
<g id="node24" class="node"><title>Node24</title>
<g id="a_node24"><a xlink:href="../../d6/d94/AsciiReader_8cpp.html" target="_top" xlink:title="/home/travis/build\l/ComPWA/ComPWA/DataReader\l/AsciiReader/AsciiReader.cpp">
<polygon fill="white" stroke="black" points="1649.5,-492.5 1649.5,-533.5 1816.5,-533.5 1816.5,-492.5 1649.5,-492.5"/>
<text text-anchor="start" x="1657.5" y="-521.5" font-family="Helvetica,sans-Serif" font-size="10.00">/home/travis/build</text>
<text text-anchor="start" x="1657.5" y="-510.5" font-family="Helvetica,sans-Serif" font-size="10.00">/ComPWA/ComPWA/DataReader</text>
<text text-anchor="middle" x="1733" y="-499.5" font-family="Helvetica,sans-Serif" font-size="10.00">/AsciiReader/AsciiReader.cpp</text>
</a>
</g>
</g>
<!-- Node1&#45;&gt;Node24 -->
<g id="edge54" class="edge"><title>Node1&#45;&gt;Node24</title>
<path fill="none" stroke="midnightblue" d="M1089.81,-586.143C1208.85,-579.55 1443.09,-563.837 1640,-534 1643.1,-533.53 1646.26,-533.019 1649.44,-532.477"/>
<polygon fill="midnightblue" stroke="midnightblue" points="1089.5,-582.655 1079.7,-586.697 1089.88,-589.645 1089.5,-582.655"/>
</g>
<!-- Node25 -->
<g id="node25" class="node"><title>Node25</title>
<g id="a_node25"><a xlink:href="../../d2/df3/RootEfficiency_8cpp.html" target="_top" xlink:title="/home/travis/build\l/ComPWA/ComPWA/DataReader\l/RootReader/RootEfficiency.cpp">
<polygon fill="white" stroke="black" points="1834.5,-492.5 1834.5,-533.5 2001.5,-533.5 2001.5,-492.5 1834.5,-492.5"/>
<text text-anchor="start" x="1842.5" y="-521.5" font-family="Helvetica,sans-Serif" font-size="10.00">/home/travis/build</text>
<text text-anchor="start" x="1842.5" y="-510.5" font-family="Helvetica,sans-Serif" font-size="10.00">/ComPWA/ComPWA/DataReader</text>
<text text-anchor="middle" x="1918" y="-499.5" font-family="Helvetica,sans-Serif" font-size="10.00">/RootReader/RootEfficiency.cpp</text>
</a>
</g>
</g>
<!-- Node1&#45;&gt;Node25 -->
<g id="edge55" class="edge"><title>Node1&#45;&gt;Node25</title>
<path fill="none" stroke="midnightblue" d="M1089.67,-588.344C1234.79,-584.432 1556.69,-571.893 1825,-534 1828.11,-533.561 1831.27,-533.077 1834.45,-532.558"/>
<polygon fill="midnightblue" stroke="midnightblue" points="1089.43,-584.849 1079.53,-588.611 1089.62,-591.846 1089.43,-584.849"/>
</g>
<!-- Node4 -->
<g id="node4" class="node"><title>Node4</title>
<g id="a_node4"><a xlink:href="../../db/db8/Functions_8cpp.html" target="_top" xlink:title="/home/travis/build\l/ComPWA/ComPWA/Core\l/Functions.cpp">
<polygon fill="white" stroke="black" points="454.5,-258.5 454.5,-299.5 589.5,-299.5 589.5,-258.5 454.5,-258.5"/>
<text text-anchor="start" x="462.5" y="-287.5" font-family="Helvetica,sans-Serif" font-size="10.00">/home/travis/build</text>
<text text-anchor="start" x="462.5" y="-276.5" font-family="Helvetica,sans-Serif" font-size="10.00">/ComPWA/ComPWA/Core</text>
<text text-anchor="middle" x="522" y="-265.5" font-family="Helvetica,sans-Serif" font-size="10.00">/Functions.cpp</text>
</a>
</g>
</g>
<!-- Node3&#45;&gt;Node4 -->
<g id="edge3" class="edge"><title>Node3&#45;&gt;Node4</title>
<path fill="none" stroke="midnightblue" d="M522,-326.297C522,-317.301 522,-307.653 522,-299.506"/>
<polygon fill="midnightblue" stroke="midnightblue" points="518.5,-326.428 522,-336.428 525.5,-326.428 518.5,-326.428"/>
</g>
<!-- Node5 -->
<g id="node5" class="node"><title>Node5</title>
<g id="a_node5"><a xlink:href="../../da/db2/FunctionTree_8hpp.html" target="_top" xlink:title="This class can be used to store a function in a tree&#45;like structure. ">
<polygon fill="white" stroke="red" points="952.5,-180.5 952.5,-221.5 1087.5,-221.5 1087.5,-180.5 952.5,-180.5"/>
<text text-anchor="start" x="960.5" y="-209.5" font-family="Helvetica,sans-Serif" font-size="10.00">/home/travis/build</text>
<text text-anchor="start" x="960.5" y="-198.5" font-family="Helvetica,sans-Serif" font-size="10.00">/ComPWA/ComPWA/Core</text>
<text text-anchor="middle" x="1020" y="-187.5" font-family="Helvetica,sans-Serif" font-size="10.00">/FunctionTree.hpp</text>
</a>
</g>
</g>
<!-- Node3&#45;&gt;Node5 -->
<g id="edge4" class="edge"><title>Node3&#45;&gt;Node5</title>
<path fill="none" stroke="midnightblue" d="M600.005,-345.887C707.797,-331.72 890.629,-306.922 904,-300 926.892,-288.15 924.661,-275.044 944,-258 958.755,-244.996 976.376,-231.879 990.935,-221.611"/>
<polygon fill="midnightblue" stroke="midnightblue" points="599.275,-342.452 589.816,-347.224 600.186,-349.393 599.275,-342.452"/>
</g>
<!-- Node6 -->
<g id="node6" class="node"><title>Node6</title>
<g id="a_node6"><a xlink:href="../../d3/d0c/TreeTestApp_8cpp.html" target="_top" xlink:title="Test&#45;Application to show usage of the FunctionTree. ">
<polygon fill="white" stroke="black" points="760.5,-96.5 760.5,-137.5 895.5,-137.5 895.5,-96.5 760.5,-96.5"/>
<text text-anchor="start" x="768.5" y="-125.5" font-family="Helvetica,sans-Serif" font-size="10.00">/home/travis/build</text>
<text text-anchor="start" x="768.5" y="-114.5" font-family="Helvetica,sans-Serif" font-size="10.00">/ComPWA/ComPWA/Core</text>
<text text-anchor="middle" x="828" y="-103.5" font-family="Helvetica,sans-Serif" font-size="10.00">/test/TreeTestApp.cpp</text>
</a>
</g>
</g>
<!-- Node3&#45;&gt;Node6 -->
<g id="edge9" class="edge"><title>Node3&#45;&gt;Node6</title>
<path fill="none" stroke="midnightblue" d="M581.921,-331.954C599.154,-323.39 617.259,-312.669 632,-300 681.763,-257.233 669.154,-223.811 718,-180 737.257,-162.728 762.132,-148.206 783.355,-137.568"/>
<polygon fill="midnightblue" stroke="midnightblue" points="579.967,-329.009 572.463,-336.488 582.994,-335.321 579.967,-329.009"/>
</g>
<!-- Node8 -->
<g id="node8" class="node"><title>Node8</title>
<g id="a_node8"><a xlink:href="../../d9/de6/AmpWignerD_8hpp.html" target="_top" xlink:title="Angular distribution based on WignerD functions. ">
<polygon fill="white" stroke="red" points="317.5,-96.5 317.5,-137.5 496.5,-137.5 496.5,-96.5 317.5,-96.5"/>
<text text-anchor="start" x="325.5" y="-125.5" font-family="Helvetica,sans-Serif" font-size="10.00">/home/travis/build</text>
<text text-anchor="start" x="325.5" y="-114.5" font-family="Helvetica,sans-Serif" font-size="10.00">/ComPWA/ComPWA/Physics</text>
<text text-anchor="middle" x="407" y="-103.5" font-family="Helvetica,sans-Serif" font-size="10.00">/HelicityFormalism/AmpWignerD.hpp</text>
</a>
</g>
</g>
<!-- Node3&#45;&gt;Node8 -->
<g id="edge16" class="edge"><title>Node3&#45;&gt;Node8</title>
<path fill="none" stroke="midnightblue" d="M475.482,-330.536C463.967,-322.199 452.727,-311.952 445,-300 411.615,-248.361 406.874,-172.794 406.633,-137.505"/>
<polygon fill="midnightblue" stroke="midnightblue" points="473.638,-333.515 483.869,-336.266 477.587,-327.735 473.638,-333.515"/>
</g>
<!-- Node3&#45;&gt;Node9 -->
<g id="edge15" class="edge"><title>Node3&#45;&gt;Node9</title>
<path fill="none" stroke="midnightblue" d="M570.857,-330.44C581.75,-322.266 591.874,-312.123 598,-300 606.419,-283.34 601.322,-276.369 598,-258 583.927,-180.182 545.094,-94.376 524.773,-53.0172"/>
<polygon fill="midnightblue" stroke="midnightblue" points="568.638,-327.72 562.432,-336.307 572.638,-333.465 568.638,-327.72"/>
</g>
<!-- Node10 -->
<g id="node10" class="node"><title>Node10</title>
<g id="a_node10"><a xlink:href="../../d3/d71/TreeNode_8cpp.html" target="_top" xlink:title="/home/travis/build\l/ComPWA/ComPWA/Core\l/TreeNode.cpp">
<polygon fill="white" stroke="black" points="760.5,-180.5 760.5,-221.5 895.5,-221.5 895.5,-180.5 760.5,-180.5"/>
<text text-anchor="start" x="768.5" y="-209.5" font-family="Helvetica,sans-Serif" font-size="10.00">/home/travis/build</text>
<text text-anchor="start" x="768.5" y="-198.5" font-family="Helvetica,sans-Serif" font-size="10.00">/ComPWA/ComPWA/Core</text>
<text text-anchor="middle" x="828" y="-187.5" font-family="Helvetica,sans-Serif" font-size="10.00">/TreeNode.cpp</text>
</a>
</g>
</g>
<!-- Node3&#45;&gt;Node10 -->
<g id="edge10" class="edge"><title>Node3&#45;&gt;Node10</title>
<path fill="none" stroke="midnightblue" d="M590.977,-333.042C616.288,-323.804 644.879,-312.398 670,-300 717.615,-276.501 769.277,-242.737 800.124,-221.603"/>
<polygon fill="midnightblue" stroke="midnightblue" points="589.673,-329.791 581.451,-336.474 592.046,-336.377 589.673,-329.791"/>
</g>
<!-- Node11 -->
<g id="node11" class="node"><title>Node11</title>
<g id="a_node11"><a xlink:href="../../df/d5a/TreeNode_8hpp.html" target="_top" xlink:title="This class acts as a container for a parameter in a function tree. ">
<polygon fill="white" stroke="black" points="760.5,-258.5 760.5,-299.5 895.5,-299.5 895.5,-258.5 760.5,-258.5"/>
<text text-anchor="start" x="768.5" y="-287.5" font-family="Helvetica,sans-Serif" font-size="10.00">/home/travis/build</text>
<text text-anchor="start" x="768.5" y="-276.5" font-family="Helvetica,sans-Serif" font-size="10.00">/ComPWA/ComPWA/Core</text>
<text text-anchor="middle" x="828" y="-265.5" font-family="Helvetica,sans-Serif" font-size="10.00">/TreeNode.hpp</text>
</a>
</g>
</g>
<!-- Node3&#45;&gt;Node11 -->
<g id="edge11" class="edge"><title>Node3&#45;&gt;Node11</title>
<path fill="none" stroke="midnightblue" d="M599.26,-336.811C648.895,-324.484 712.752,-308.624 760.377,-296.795"/>
<polygon fill="midnightblue" stroke="midnightblue" points="598.393,-333.42 589.532,-339.227 600.081,-340.214 598.393,-333.42"/>
</g>
<!-- Node5&#45;&gt;Node6 -->
<g id="edge5" class="edge"><title>Node5&#45;&gt;Node6</title>
<path fill="none" stroke="midnightblue" d="M964.517,-176.304C935.796,-164.038 901.149,-149.241 873.946,-137.623"/>
<polygon fill="midnightblue" stroke="midnightblue" points="963.44,-179.65 974.011,-180.359 966.19,-173.213 963.44,-179.65"/>
</g>
<!-- Node7 -->
<g id="node7" class="node"><title>Node7</title>
<g id="a_node7"><a xlink:href="../../db/d7b/DalitzFitD03K_8cpp.html" target="_top" xlink:title="/home/travis/build\l/ComPWA/ComPWA/Examples\l/DalitzAnalysis_D0KsKK\l/DalitzFitD03K.cpp">
<polygon fill="white" stroke="black" points="1057,-91 1057,-143 1215,-143 1215,-91 1057,-91"/>
<text text-anchor="start" x="1065" y="-131" font-family="Helvetica,sans-Serif" font-size="10.00">/home/travis/build</text>
<text text-anchor="start" x="1065" y="-120" font-family="Helvetica,sans-Serif" font-size="10.00">/ComPWA/ComPWA/Examples</text>
<text text-anchor="start" x="1065" y="-109" font-family="Helvetica,sans-Serif" font-size="10.00">/DalitzAnalysis_D0KsKK</text>
<text text-anchor="middle" x="1136" y="-98" font-family="Helvetica,sans-Serif" font-size="10.00">/DalitzFitD03K.cpp</text>
</a>
</g>
</g>
<!-- Node5&#45;&gt;Node7 -->
<g id="edge6" class="edge"><title>Node5&#45;&gt;Node7</title>
<path fill="none" stroke="midnightblue" d="M1056.27,-174.359C1070.38,-164.386 1086.49,-152.996 1100.52,-143.078"/>
<polygon fill="midnightblue" stroke="midnightblue" points="1053.93,-171.729 1047.78,-180.359 1057.97,-177.445 1053.93,-171.729"/>
</g>
<!-- Node5&#45;&gt;Node8 -->
<g id="edge7" class="edge"><title>Node5&#45;&gt;Node8</title>
<path fill="none" stroke="midnightblue" d="M942.179,-186.069C929.437,-183.936 916.362,-181.836 904,-180 761.868,-158.894 596.14,-139.202 496.503,-127.893"/>
<polygon fill="midnightblue" stroke="midnightblue" points="941.863,-189.565 952.306,-187.782 943.03,-182.663 941.863,-189.565"/>
</g>
<!-- Node8&#45;&gt;Node9 -->
<g id="edge8" class="edge"><title>Node8&#45;&gt;Node9</title>
<path fill="none" stroke="midnightblue" d="M438.147,-89.8956C452.003,-78.2833 468.25,-64.6665 481.973,-53.1657"/>
<polygon fill="midnightblue" stroke="midnightblue" points="435.719,-87.3641 430.303,-96.4699 440.215,-92.729 435.719,-87.3641"/>
</g>
<!-- Node11&#45;&gt;Node5 -->
<g id="edge12" class="edge"><title>Node11&#45;&gt;Node5</title>
<path fill="none" stroke="midnightblue" d="M887.094,-254.609C913.893,-244.001 945.217,-231.602 970.723,-221.506"/>
<polygon fill="midnightblue" stroke="midnightblue" points="885.455,-251.493 877.445,-258.428 888.031,-258.002 885.455,-251.493"/>
</g>
<!-- Node11&#45;&gt;Node6 -->
<g id="edge13" class="edge"><title>Node11&#45;&gt;Node6</title>
<path fill="none" stroke="midnightblue" d="M876.857,-252.44C887.75,-244.266 897.874,-234.123 904,-222 912.419,-205.34 912.006,-196.863 904,-180 895.602,-162.31 879.412,-148.002 864.126,-137.607"/>
<polygon fill="midnightblue" stroke="midnightblue" points="874.638,-249.72 868.432,-258.307 878.638,-255.465 874.638,-249.72"/>
</g>
<!-- Node11&#45;&gt;Node10 -->
<g id="edge14" class="edge"><title>Node11&#45;&gt;Node10</title>
<path fill="none" stroke="midnightblue" d="M828,-248.297C828,-239.301 828,-229.653 828,-221.506"/>
<polygon fill="midnightblue" stroke="midnightblue" points="824.5,-248.428 828,-258.428 831.5,-248.428 824.5,-248.428"/>
</g>
<!-- Node13&#45;&gt;Node3 -->
<g id="edge22" class="edge"><title>Node13&#45;&gt;Node3</title>
<path fill="none" stroke="midnightblue" d="M722.343,-500.833C684.402,-492.735 639.414,-479.009 604,-456 572.748,-435.695 547.2,-399.835 533.328,-377.581"/>
<polygon fill="midnightblue" stroke="midnightblue" points="721.836,-504.302 732.334,-502.872 723.235,-497.443 721.836,-504.302"/>
</g>
<!-- Node13&#45;&gt;Node5 -->
<g id="edge23" class="edge"><title>Node13&#45;&gt;Node5</title>
<path fill="none" stroke="midnightblue" d="M877.737,-507.437C953.473,-501.217 1061.03,-487.058 1088,-456 1145.74,-389.497 1135.72,-336.606 1096,-258 1088.31,-242.787 1074.33,-230.692 1060.43,-221.693"/>
<polygon fill="midnightblue" stroke="midnightblue" points="877.432,-503.951 867.739,-508.228 877.984,-510.929 877.432,-503.951"/>
</g>
<!-- Node13&#45;&gt;Node6 -->
<g id="edge40" class="edge"><title>Node13&#45;&gt;Node6</title>
<path fill="none" stroke="midnightblue" d="M722.793,-499.542C697.63,-491.439 672.266,-478.068 657,-456 626.657,-412.137 641.594,-387.353 656,-336 666.963,-296.92 724.238,-210.516 751,-180 765.032,-163.999 783.536,-148.953 798.888,-137.69"/>
<polygon fill="midnightblue" stroke="midnightblue" points="721.823,-502.905 732.406,-502.396 723.816,-496.194 721.823,-502.905"/>
</g>
<!-- Node13&#45;&gt;Node7 -->
<g id="edge43" class="edge"><title>Node13&#45;&gt;Node7</title>
<path fill="none" stroke="midnightblue" d="M877.711,-511.151C944.181,-507.491 1040.61,-495.032 1115,-456 1169.27,-427.525 1212,-419.283 1212,-358 1212,-358 1212,-358 1212,-278 1212,-226.183 1179.07,-173.261 1156.57,-143.138"/>
<polygon fill="midnightblue" stroke="midnightblue" points="877.533,-507.655 867.719,-511.648 877.88,-514.647 877.533,-507.655"/>
</g>
<!-- Node13&#45;&gt;Node11 -->
<g id="edge41" class="edge"><title>Node13&#45;&gt;Node11</title>
<path fill="none" stroke="midnightblue" d="M722.986,-491.547C706.017,-483.317 690.108,-471.871 680,-456 651.351,-411.015 649.686,-379.881 680,-336 689.876,-321.703 726.13,-307.862 760.281,-297.517"/>
<polygon fill="midnightblue" stroke="midnightblue" points="721.935,-494.91 732.493,-495.795 724.791,-488.519 721.935,-494.91"/>
</g>
<!-- Node14 -->
<g id="node14" class="node"><title>Node14</title>
<g id="a_node14"><a xlink:href="../../dc/d53/Dictionary_8cpp.html" target="_top" xlink:title="/home/travis/build\l/ComPWA/ComPWA/Core\l/Dictionary.cpp">
<polygon fill="white" stroke="black" points="952.5,-258.5 952.5,-299.5 1087.5,-299.5 1087.5,-258.5 952.5,-258.5"/>
<text text-anchor="start" x="960.5" y="-287.5" font-family="Helvetica,sans-Serif" font-size="10.00">/home/travis/build</text>
<text text-anchor="start" x="960.5" y="-276.5" font-family="Helvetica,sans-Serif" font-size="10.00">/ComPWA/ComPWA/Core</text>
<text text-anchor="middle" x="1020" y="-265.5" font-family="Helvetica,sans-Serif" font-size="10.00">/Dictionary.cpp</text>
</a>
</g>
</g>
<!-- Node13&#45;&gt;Node14 -->
<g id="edge19" class="edge"><title>Node13&#45;&gt;Node14</title>
<path fill="none" stroke="midnightblue" d="M769.504,-485.585C730.851,-448.962 673.71,-382.077 713,-336 745.855,-297.47 888.363,-310.007 938,-300 942.597,-299.073 947.325,-298.066 952.081,-297.012"/>
<polygon fill="midnightblue" stroke="midnightblue" points="767.241,-488.26 776.954,-492.491 772,-483.126 767.241,-488.26"/>
</g>
<!-- Node15 -->
<g id="node15" class="node"><title>Node15</title>
<g id="a_node15"><a xlink:href="../../d5/dc2/Dictionary_8hpp.html" target="_top" xlink:title="This class gathers information from modules, namely what they need as input and what they provide as ...">
<polygon fill="white" stroke="black" points="896.5,-336.5 896.5,-377.5 1031.5,-377.5 1031.5,-336.5 896.5,-336.5"/>
<text text-anchor="start" x="904.5" y="-365.5" font-family="Helvetica,sans-Serif" font-size="10.00">/home/travis/build</text>
<text text-anchor="start" x="904.5" y="-354.5" font-family="Helvetica,sans-Serif" font-size="10.00">/ComPWA/ComPWA/Core</text>
<text text-anchor="middle" x="964" y="-343.5" font-family="Helvetica,sans-Serif" font-size="10.00">/Dictionary.hpp</text>
</a>
</g>
</g>
<!-- Node13&#45;&gt;Node15 -->
<g id="edge20" class="edge"><title>Node13&#45;&gt;Node15</title>
<path fill="none" stroke="midnightblue" d="M828.214,-485.506C860.894,-454.819 913.965,-404.984 943.14,-377.588"/>
<polygon fill="midnightblue" stroke="midnightblue" points="825.665,-483.099 820.771,-492.496 830.456,-488.202 825.665,-483.099"/>
</g>
<!-- Node13&#45;&gt;Node16 -->
<g id="edge24" class="edge"><title>Node13&#45;&gt;Node16</title>
<path fill="none" stroke="midnightblue" d="M864.084,-489.026C893.928,-478.328 929.057,-465.734 957.59,-455.506"/>
<polygon fill="midnightblue" stroke="midnightblue" points="862.828,-485.759 854.595,-492.428 865.19,-492.348 862.828,-485.759"/>
</g>
<!-- Node13&#45;&gt;Node18 -->
<g id="edge39" class="edge"><title>Node13&#45;&gt;Node18</title>
<path fill="none" stroke="midnightblue" d="M877.891,-508.5C984.074,-502.595 1167.73,-488.012 1226,-456 1259.05,-437.841 1284.37,-400.583 1297.65,-377.6"/>
<polygon fill="midnightblue" stroke="midnightblue" points="877.659,-505.007 867.864,-509.044 878.039,-511.997 877.659,-505.007"/>
</g>
<!-- Node19 -->
<g id="node19" class="node"><title>Node19</title>
<g id="a_node19"><a xlink:href="../../d4/d31/EstimatorTestApp_8cpp.html" target="_top" xlink:title="Test&#45;Application of a simple &#160;estimator. ">
<polygon fill="white" stroke="black" points="722,-336.5 722,-377.5 878,-377.5 878,-336.5 722,-336.5"/>
<text text-anchor="start" x="730" y="-365.5" font-family="Helvetica,sans-Serif" font-size="10.00">/home/travis/build</text>
<text text-anchor="start" x="730" y="-354.5" font-family="Helvetica,sans-Serif" font-size="10.00">/ComPWA/ComPWA/Estimator</text>
<text text-anchor="middle" x="800" y="-343.5" font-family="Helvetica,sans-Serif" font-size="10.00">/test/EstimatorTestApp.cpp</text>
</a>
</g>
</g>
<!-- Node13&#45;&gt;Node19 -->
<g id="edge42" class="edge"><title>Node13&#45;&gt;Node19</title>
<path fill="none" stroke="midnightblue" d="M800,-482.365C800,-451.606 800,-404.358 800,-377.832"/>
<polygon fill="midnightblue" stroke="midnightblue" points="796.5,-482.496 800,-492.496 803.5,-482.496 796.5,-482.496"/>
</g>
<!-- Node20 -->
<g id="node20" class="node"><title>Node20</title>
<g id="a_node20"><a xlink:href="../../d8/d35/PhysConst_8hpp.html" target="_top" xlink:title="PhysConst provides particle information to the framework. ">
<polygon fill="white" stroke="red" points="224.5,-336.5 224.5,-377.5 359.5,-377.5 359.5,-336.5 224.5,-336.5"/>
<text text-anchor="start" x="232.5" y="-365.5" font-family="Helvetica,sans-Serif" font-size="10.00">/home/travis/build</text>
<text text-anchor="start" x="232.5" y="-354.5" font-family="Helvetica,sans-Serif" font-size="10.00">/ComPWA/ComPWA/Core</text>
<text text-anchor="middle" x="292" y="-343.5" font-family="Helvetica,sans-Serif" font-size="10.00">/PhysConst.hpp</text>
</a>
</g>
</g>
<!-- Node13&#45;&gt;Node20 -->
<g id="edge34" class="edge"><title>Node13&#45;&gt;Node20</title>
<path fill="none" stroke="midnightblue" d="M722.336,-496.744C674.304,-486.659 611.604,-472.316 557,-456 479.452,-432.829 391.782,-398.815 339.252,-377.562"/>
<polygon fill="midnightblue" stroke="midnightblue" points="721.851,-500.218 732.355,-498.831 723.278,-493.365 721.851,-500.218"/>
</g>
<!-- Node13&#45;&gt;Node21 -->
<g id="edge37" class="edge"><title>Node13&#45;&gt;Node21</title>
<path fill="none" stroke="midnightblue" d="M721.958,-504.311C636.223,-495.268 494.659,-478.576 374,-456 369.391,-455.138 364.653,-454.178 359.89,-453.16"/>
<polygon fill="midnightblue" stroke="midnightblue" points="721.822,-507.816 732.132,-505.376 722.551,-500.854 721.822,-507.816"/>
</g>
<!-- Node15&#45;&gt;Node14 -->
<g id="edge21" class="edge"><title>Node15&#45;&gt;Node14</title>
<path fill="none" stroke="midnightblue" d="M984.383,-328.338C991.427,-318.778 999.167,-308.273 1005.63,-299.506"/>
<polygon fill="midnightblue" stroke="midnightblue" points="981.536,-326.301 978.421,-336.428 987.171,-330.454 981.536,-326.301"/>
</g>
<!-- Node16&#45;&gt;Node3 -->
<g id="edge27" class="edge"><title>Node16&#45;&gt;Node3</title>
<path fill="none" stroke="midnightblue" d="M934.256,-421.942C839.219,-407.201 679.935,-382.496 589.71,-368.502"/>
<polygon fill="midnightblue" stroke="midnightblue" points="933.964,-425.438 944.382,-423.512 935.037,-418.521 933.964,-425.438"/>
</g>
<!-- Node16&#45;&gt;Node7 -->
<g id="edge32" class="edge"><title>Node16&#45;&gt;Node7</title>
<path fill="none" stroke="midnightblue" d="M1059.69,-408.562C1071.24,-400.267 1082.43,-390.035 1090,-378 1137.36,-302.731 1139.36,-192.229 1137.55,-143.119"/>
<polygon fill="midnightblue" stroke="midnightblue" points="1057.59,-405.758 1051.26,-414.257 1061.51,-411.558 1057.59,-405.758"/>
</g>
<!-- Node16&#45;&gt;Node8 -->
<g id="edge33" class="edge"><title>Node16&#45;&gt;Node8</title>
<path fill="none" stroke="midnightblue" d="M934.187,-431.131C787.565,-425.033 481.728,-408.758 445,-378 373.303,-317.957 392.066,-187.351 402.387,-137.696"/>
<polygon fill="midnightblue" stroke="midnightblue" points="934.328,-434.64 944.463,-431.553 934.615,-427.646 934.328,-434.64"/>
</g>
<!-- Node16&#45;&gt;Node11 -->
<g id="edge30" class="edge"><title>Node16&#45;&gt;Node11</title>
<path fill="none" stroke="midnightblue" d="M1032.22,-405.896C1044.69,-384.82 1055.59,-356.24 1040,-336 1030.94,-324.238 954.199,-306.016 895.627,-293.575"/>
<polygon fill="midnightblue" stroke="midnightblue" points="1029.22,-404.095 1026.85,-414.423 1035.14,-407.824 1029.22,-404.095"/>
</g>
<!-- Node16&#45;&gt;Node14 -->
<g id="edge25" class="edge"><title>Node16&#45;&gt;Node14</title>
<path fill="none" stroke="midnightblue" d="M1051.03,-407.776C1060.29,-399.445 1068.94,-389.391 1074,-378 1081.58,-360.941 1080.99,-353.31 1074,-336 1068.29,-321.847 1057.1,-309.278 1046.38,-299.651"/>
<polygon fill="midnightblue" stroke="midnightblue" points="1048.59,-405.254 1043.17,-414.36 1053.09,-410.619 1048.59,-405.254"/>
</g>
<!-- Node16&#45;&gt;Node15 -->
<g id="edge26" class="edge"><title>Node16&#45;&gt;Node15</title>
<path fill="none" stroke="midnightblue" d="M994.162,-405.757C988.224,-396.354 981.745,-386.096 976.319,-377.506"/>
<polygon fill="midnightblue" stroke="midnightblue" points="991.34,-407.842 999.639,-414.428 997.258,-404.104 991.34,-407.842"/>
</g>
<!-- Node16&#45;&gt;Node17 -->
<g id="edge28" class="edge"><title>Node16&#45;&gt;Node17</title>
<path fill="none" stroke="midnightblue" d="M1089.95,-424.68C1165.51,-415.079 1283.17,-398.626 1384,-378 1387.11,-377.363 1390.29,-376.68 1393.49,-375.963"/>
<polygon fill="midnightblue" stroke="midnightblue" points="1089.06,-421.265 1079.58,-425.989 1089.94,-428.21 1089.06,-421.265"/>
</g>
<!-- Node16&#45;&gt;Node18 -->
<g id="edge29" class="edge"><title>Node16&#45;&gt;Node18</title>
<path fill="none" stroke="midnightblue" d="M1089.35,-414.141C1136.24,-402.1 1195.5,-386.884 1240.5,-375.332"/>
<polygon fill="midnightblue" stroke="midnightblue" points="1088.35,-410.782 1079.54,-416.659 1090.09,-417.562 1088.35,-410.782"/>
</g>
<!-- Node16&#45;&gt;Node19 -->
<g id="edge31" class="edge"><title>Node16&#45;&gt;Node19</title>
<path fill="none" stroke="midnightblue" d="M947.916,-411.026C918.072,-400.328 882.943,-387.734 854.41,-377.506"/>
<polygon fill="midnightblue" stroke="midnightblue" points="946.81,-414.348 957.405,-414.428 949.172,-407.759 946.81,-414.348"/>
</g>
<!-- Node20&#45;&gt;Node8 -->
<g id="edge36" class="edge"><title>Node20&#45;&gt;Node8</title>
<path fill="none" stroke="midnightblue" d="M242.513,-330.555C231.477,-322.38 221.216,-312.207 215,-300 206.529,-283.366 206.54,-274.639 215,-258 244.822,-199.346 312.015,-159.434 358.435,-137.679"/>
<polygon fill="midnightblue" stroke="midnightblue" points="240.825,-333.642 251.049,-336.419 244.788,-327.872 240.825,-333.642"/>
</g>
<!-- Node20&#45;&gt;Node12 -->
<g id="edge35" class="edge"><title>Node20&#45;&gt;Node12</title>
<path fill="none" stroke="midnightblue" d="M292,-326.297C292,-317.301 292,-307.653 292,-299.506"/>
<polygon fill="midnightblue" stroke="midnightblue" points="288.5,-326.428 292,-336.428 295.5,-326.428 288.5,-326.428"/>
</g>
<!-- Node21&#45;&gt;Node20 -->
<g id="edge38" class="edge"><title>Node21&#45;&gt;Node20</title>
<path fill="none" stroke="midnightblue" d="M292,-404.297C292,-395.301 292,-385.653 292,-377.506"/>
<polygon fill="midnightblue" stroke="midnightblue" points="288.5,-404.428 292,-414.428 295.5,-404.428 288.5,-404.428"/>
</g>
<!-- Node22&#45;&gt;Node8 -->
<g id="edge51" class="edge"><title>Node22&#45;&gt;Node8</title>
<path fill="none" stroke="midnightblue" d="M200.829,-483.462C182.618,-453.54 158,-404.493 158,-358 158,-358 158,-358 158,-278 158,-199.767 246.071,-157.997 317.457,-136.989"/>
<polygon fill="midnightblue" stroke="midnightblue" points="197.969,-485.49 206.24,-492.11 203.903,-481.777 197.969,-485.49"/>
</g>
<!-- Node22&#45;&gt;Node9 -->
<g id="edge50" class="edge"><title>Node22&#45;&gt;Node9</title>
<path fill="none" stroke="midnightblue" d="M188.964,-485.376C159.603,-457.064 120,-409.357 120,-358 120,-358 120,-358 120,-200 120,-65.855 314.877,-35.3682 429.824,-29.0535"/>
<polygon fill="midnightblue" stroke="midnightblue" points="186.865,-488.205 196.554,-492.49 191.652,-483.098 186.865,-488.205"/>
</g>
<!-- Node22&#45;&gt;Node20 -->
<g id="edge48" class="edge"><title>Node22&#45;&gt;Node20</title>
<path fill="none" stroke="midnightblue" d="M211.069,-482.438C206.645,-462.104 204.27,-435.072 215,-414 222.801,-398.681 236.971,-386.567 251.049,-377.581"/>
<polygon fill="midnightblue" stroke="midnightblue" points="207.73,-483.515 213.511,-492.394 214.528,-481.848 207.73,-483.515"/>
</g>
<!-- Node22&#45;&gt;Node21 -->
<g id="edge49" class="edge"><title>Node22&#45;&gt;Node21</title>
<path fill="none" stroke="midnightblue" d="M245.659,-484.916C254.86,-475.203 265.047,-464.45 273.521,-455.506"/>
<polygon fill="midnightblue" stroke="midnightblue" points="242.878,-482.761 238.542,-492.428 247.96,-487.576 242.878,-482.761"/>
</g>
</g>
</svg>
