<?xml version="1.0" encoding="UTF-8" standalone="no"?>
<!DOCTYPE svg PUBLIC "-//W3C//DTD SVG 1.1//EN"
 "http://www.w3.org/Graphics/SVG/1.1/DTD/svg11.dtd">
<!-- Generated by graphviz version 2.36.0 (20140111.2315)
 -->
<!-- Title: /home/travis/build/ComPWA/ComPWA/Physics/AmplitudeSum/NonResonant.cpp Pages: 1 -->
<svg width="1308pt" height="478pt"
 viewBox="0.00 0.00 1308.27 478.00" xmlns="http://www.w3.org/2000/svg" xmlns:xlink="http://www.w3.org/1999/xlink">
<g id="graph0" class="graph" transform="scale(1 1) rotate(0) translate(4 474)">
<title>/home/travis/build/ComPWA/ComPWA/Physics/AmplitudeSum/NonResonant.cpp</title>
<polygon fill="white" stroke="none" points="-4,4 -4,-474 1304.27,-474 1304.27,4 -4,4"/>
<!-- Node1 -->
<g id="node1" class="node"><title>Node1</title>
<polygon fill="#bfbfbf" stroke="black" points="507.5,-428.5 507.5,-469.5 672.5,-469.5 672.5,-428.5 507.5,-428.5"/>
<text text-anchor="start" x="515.5" y="-457.5" font-family="Helvetica,sans-Serif" font-size="10.00">/home/travis/build</text>
<text text-anchor="start" x="515.5" y="-446.5" font-family="Helvetica,sans-Serif" font-size="10.00">/ComPWA/ComPWA/Physics</text>
<text text-anchor="middle" x="590" y="-435.5" font-family="Helvetica,sans-Serif" font-size="10.00">/AmplitudeSum/NonResonant.cpp</text>
</g>
<!-- Node2 -->
<g id="node2" class="node"><title>Node2</title>
<g id="a_node2"><a xlink:href="../../d4/db6/NonResonant_8hpp.html" target="_top" xlink:title="Physics/AmplitudeSum\l/NonResonant.hpp">
<polygon fill="white" stroke="black" points="530.5,-361 530.5,-391 649.5,-391 649.5,-361 530.5,-361"/>
<text text-anchor="start" x="538.5" y="-379" font-family="Helvetica,sans-Serif" font-size="10.00">Physics/AmplitudeSum</text>
<text text-anchor="middle" x="590" y="-368" font-family="Helvetica,sans-Serif" font-size="10.00">/NonResonant.hpp</text>
</a>
</g>
</g>
<!-- Node1&#45;&gt;Node2 -->
<g id="edge1" class="edge"><title>Node1&#45;&gt;Node2</title>
<path fill="none" stroke="midnightblue" d="M590,-428.223C590,-419.821 590,-409.948 590,-401.123"/>
<polygon fill="midnightblue" stroke="midnightblue" points="593.5,-401.048 590,-391.049 586.5,-401.049 593.5,-401.048"/>
</g>
<!-- Node3 -->
<g id="node3" class="node"><title>Node3</title>
<g id="a_node3"><a xlink:href="../../d8/dd4/DataPoint_8hpp.html" target="_top" xlink:title="dataPoint stores kinematic information of a dalitz plot ">
<polygon fill="white" stroke="black" points="371.5,-168.5 371.5,-187.5 474.5,-187.5 474.5,-168.5 371.5,-168.5"/>
<text text-anchor="middle" x="423" y="-175.5" font-family="Helvetica,sans-Serif" font-size="10.00">Core/DataPoint.hpp</text>
</a>
</g>
</g>
<!-- Node2&#45;&gt;Node3 -->
<g id="edge2" class="edge"><title>Node2&#45;&gt;Node3</title>
<path fill="none" stroke="midnightblue" d="M556.438,-360.831C538.507,-352.089 516.915,-339.565 501,-324 462.961,-286.797 439.001,-227.035 428.757,-197.189"/>
<polygon fill="midnightblue" stroke="midnightblue" points="432.064,-196.041 425.603,-187.644 425.417,-198.237 432.064,-196.041"/>
</g>
<!-- Node15 -->
<g id="node15" class="node"><title>Node15</title>
<g id="a_node15"><a xlink:href="../../db/dce/Parameter_8hpp.html" target="_top" xlink:title="This class implements some internal container of parameters. ">
<polygon fill="white" stroke="black" points="891,-112.5 891,-131.5 995,-131.5 995,-112.5 891,-112.5"/>
<text text-anchor="middle" x="943" y="-119.5" font-family="Helvetica,sans-Serif" font-size="10.00">Core/Parameter.hpp</text>
</a>
</g>
</g>
<!-- Node2&#45;&gt;Node15 -->
<g id="edge20" class="edge"><title>Node2&#45;&gt;Node15</title>
<path fill="none" stroke="midnightblue" d="M643.254,-360.953C704.555,-343.12 806.483,-308.25 882,-256 915.88,-232.558 929.963,-226.357 945,-188 950.795,-173.219 949.62,-155.063 947.384,-141.7"/>
<polygon fill="midnightblue" stroke="midnightblue" points="950.792,-140.894 945.385,-131.782 943.929,-142.277 950.792,-140.894"/>
</g>
<!-- Node21 -->
<g id="node21" class="node"><title>Node21</title>
<g id="a_node21"><a xlink:href="../../d3/d76/AmpAbsDynamicalFunction_8hpp.html" target="_top" xlink:title="Physics/AmplitudeSum\l/AmpAbsDynamicalFunction.hpp">
<polygon fill="white" stroke="red" points="510,-293 510,-323 670,-323 670,-293 510,-293"/>
<text text-anchor="start" x="518" y="-311" font-family="Helvetica,sans-Serif" font-size="10.00">Physics/AmplitudeSum</text>
<text text-anchor="middle" x="590" y="-300" font-family="Helvetica,sans-Serif" font-size="10.00">/AmpAbsDynamicalFunction.hpp</text>
</a>
</g>
</g>
<!-- Node2&#45;&gt;Node21 -->
<g id="edge33" class="edge"><title>Node2&#45;&gt;Node21</title>
<path fill="none" stroke="midnightblue" d="M590,-360.679C590,-352.722 590,-342.605 590,-333.436"/>
<polygon fill="midnightblue" stroke="midnightblue" points="593.5,-333.293 590,-323.293 586.5,-333.293 593.5,-333.293"/>
</g>
<!-- Node4 -->
<g id="node4" class="node"><title>Node4</title>
<polygon fill="white" stroke="#bfbfbf" points="66.5,-112.5 66.5,-131.5 111.5,-131.5 111.5,-112.5 66.5,-112.5"/>
<text text-anchor="middle" x="89" y="-119.5" font-family="Helvetica,sans-Serif" font-size="10.00">cstdlib</text>
</g>
<!-- Node3&#45;&gt;Node4 -->
<g id="edge3" class="edge"><title>Node3&#45;&gt;Node4</title>
<path fill="none" stroke="midnightblue" d="M371.417,-171.492C312.88,-164.762 214.435,-152 121.446,-132.084"/>
<polygon fill="midnightblue" stroke="midnightblue" points="122.112,-128.647 111.596,-129.943 120.625,-135.487 122.112,-128.647"/>
</g>
<!-- Node5 -->
<g id="node5" class="node"><title>Node5</title>
<polygon fill="white" stroke="#bfbfbf" points="129.5,-112.5 129.5,-131.5 176.5,-131.5 176.5,-112.5 129.5,-112.5"/>
<text text-anchor="middle" x="153" y="-119.5" font-family="Helvetica,sans-Serif" font-size="10.00">math.h</text>
</g>
<!-- Node3&#45;&gt;Node5 -->
<g id="edge4" class="edge"><title>Node3&#45;&gt;Node5</title>
<path fill="none" stroke="midnightblue" d="M375.785,-168.428C328.824,-159.765 254.774,-145.731 191,-132 189.55,-131.688 188.071,-131.363 186.577,-131.031"/>
<polygon fill="midnightblue" stroke="midnightblue" points="187.211,-127.586 176.683,-128.767 185.65,-134.409 187.211,-127.586"/>
</g>
<!-- Node6 -->
<g id="node6" class="node"><title>Node6</title>
<polygon fill="white" stroke="#bfbfbf" points="248,-0.5 248,-19.5 292,-19.5 292,-0.5 248,-0.5"/>
<text text-anchor="middle" x="270" y="-7.5" font-family="Helvetica,sans-Serif" font-size="10.00">vector</text>
</g>
<!-- Node3&#45;&gt;Node6 -->
<g id="edge5" class="edge"><title>Node3&#45;&gt;Node6</title>
<path fill="none" stroke="midnightblue" d="M371.131,-174.369C275.098,-168.964 77.4663,-155.137 57,-132 0.0623654,-67.6331 165.707,-29.493 238.035,-16.2787"/>
<polygon fill="midnightblue" stroke="midnightblue" points="238.759,-19.7051 247.992,-14.5097 237.534,-12.813 238.759,-19.7051"/>
</g>
<!-- Node7 -->
<g id="node7" class="node"><title>Node7</title>
<polygon fill="white" stroke="#bfbfbf" points="431.5,-112.5 431.5,-131.5 466.5,-131.5 466.5,-112.5 431.5,-112.5"/>
<text text-anchor="middle" x="449" y="-119.5" font-family="Helvetica,sans-Serif" font-size="10.00">map</text>
</g>
<!-- Node3&#45;&gt;Node7 -->
<g id="edge6" class="edge"><title>Node3&#45;&gt;Node7</title>
<path fill="none" stroke="midnightblue" d="M427.293,-168.083C430.852,-160.691 436.022,-149.953 440.424,-140.811"/>
<polygon fill="midnightblue" stroke="midnightblue" points="443.602,-142.279 444.787,-131.751 437.295,-139.243 443.602,-142.279"/>
</g>
<!-- Node8 -->
<g id="node8" class="node"><title>Node8</title>
<g id="a_node8"><a xlink:href="../../d4/d37/Kinematics_8hpp.html" target="_top" xlink:title="Core/Kinematics.hpp">
<polygon fill="white" stroke="red" points="523,-112.5 523,-131.5 631,-131.5 631,-112.5 523,-112.5"/>
<text text-anchor="middle" x="577" y="-119.5" font-family="Helvetica,sans-Serif" font-size="10.00">Core/Kinematics.hpp</text>
</a>
</g>
</g>
<!-- Node3&#45;&gt;Node8 -->
<g id="edge7" class="edge"><title>Node3&#45;&gt;Node8</title>
<path fill="none" stroke="midnightblue" d="M447.402,-168.444C473.197,-159.399 514.077,-145.064 543.018,-134.916"/>
<polygon fill="midnightblue" stroke="midnightblue" points="544.434,-138.128 552.712,-131.516 542.118,-131.523 544.434,-138.128"/>
</g>
<!-- Node11 -->
<g id="node11" class="node"><title>Node11</title>
<g id="a_node11"><a xlink:href="../../df/d7d/Event_8hpp.html" target="_top" xlink:title="This class provides a internal container for event&#45;based information. ">
<polygon fill="white" stroke="red" points="523.5,-56.5 523.5,-75.5 608.5,-75.5 608.5,-56.5 523.5,-56.5"/>
<text text-anchor="middle" x="566" y="-63.5" font-family="Helvetica,sans-Serif" font-size="10.00">Core/Event.hpp</text>
</a>
</g>
</g>
<!-- Node3&#45;&gt;Node11 -->
<g id="edge19" class="edge"><title>Node3&#45;&gt;Node11</title>
<path fill="none" stroke="midnightblue" d="M419.888,-168.438C415.597,-154.99 409.699,-128.731 422,-112 433.097,-96.9061 476.756,-84.6297 513.121,-76.7351"/>
<polygon fill="midnightblue" stroke="midnightblue" points="514.086,-80.1089 523.151,-74.6259 512.645,-73.2587 514.086,-80.1089"/>
</g>
<!-- Node13 -->
<g id="node13" class="node"><title>Node13</title>
<g id="a_node13"><a xlink:href="../../d8/d6f/Efficiency_8hpp.html" target="_top" xlink:title="Core/Efficiency.hpp">
<polygon fill="white" stroke="black" points="271.5,-112.5 271.5,-131.5 374.5,-131.5 374.5,-112.5 271.5,-112.5"/>
<text text-anchor="middle" x="323" y="-119.5" font-family="Helvetica,sans-Serif" font-size="10.00">Core/Efficiency.hpp</text>
</a>
</g>
</g>
<!-- Node3&#45;&gt;Node13 -->
<g id="edge15" class="edge"><title>Node3&#45;&gt;Node13</title>
<path fill="none" stroke="midnightblue" d="M406.933,-168.324C391.042,-159.743 366.493,-146.486 348.042,-136.522"/>
<polygon fill="midnightblue" stroke="midnightblue" points="349.489,-133.326 339.027,-131.655 346.163,-139.486 349.489,-133.326"/>
</g>
<!-- Node8&#45;&gt;Node6 -->
<g id="edge8" class="edge"><title>Node8&#45;&gt;Node6</title>
<path fill="none" stroke="midnightblue" d="M534.074,-112.43C498.401,-104.71 446.611,-92.1089 403,-76 363.493,-61.407 320.065,-38.8616 293.926,-24.525"/>
<polygon fill="midnightblue" stroke="midnightblue" points="295.561,-21.4293 285.117,-19.6444 292.168,-27.5523 295.561,-21.4293"/>
</g>
<!-- Node9 -->
<g id="node9" class="node"><title>Node9</title>
<polygon fill="white" stroke="#bfbfbf" points="1005.5,-0.5 1005.5,-19.5 1046.5,-19.5 1046.5,-0.5 1005.5,-0.5"/>
<text text-anchor="middle" x="1026" y="-7.5" font-family="Helvetica,sans-Serif" font-size="10.00">string</text>
</g>
<!-- Node8&#45;&gt;Node9 -->
<g id="edge9" class="edge"><title>Node8&#45;&gt;Node9</title>
<path fill="none" stroke="midnightblue" d="M584.264,-112.461C597.089,-98.0403 625.307,-69.149 656,-56 717.07,-29.8373 918.224,-16.6931 995.443,-12.5155"/>
<polygon fill="midnightblue" stroke="midnightblue" points="995.687,-16.0076 1005.49,-11.9851 995.318,-9.01731 995.687,-16.0076"/>
</g>
<!-- Node10 -->
<g id="node10" class="node"><title>Node10</title>
<polygon fill="white" stroke="#bfbfbf" points="665.5,-56.5 665.5,-75.5 718.5,-75.5 718.5,-56.5 665.5,-56.5"/>
<text text-anchor="middle" x="692" y="-63.5" font-family="Helvetica,sans-Serif" font-size="10.00">complex</text>
</g>
<!-- Node8&#45;&gt;Node10 -->
<g id="edge10" class="edge"><title>Node8&#45;&gt;Node10</title>
<path fill="none" stroke="midnightblue" d="M595.222,-112.444C613.896,-103.675 643.156,-89.9355 664.617,-79.8579"/>
<polygon fill="midnightblue" stroke="midnightblue" points="666.299,-82.935 673.863,-75.5164 663.324,-76.5988 666.299,-82.935"/>
</g>
<!-- Node8&#45;&gt;Node11 -->
<g id="edge11" class="edge"><title>Node8&#45;&gt;Node11</title>
<path fill="none" stroke="midnightblue" d="M575.184,-112.083C573.726,-104.927 571.629,-94.6353 569.807,-85.6911"/>
<polygon fill="midnightblue" stroke="midnightblue" points="573.208,-84.8512 567.783,-75.7511 566.349,-86.2485 573.208,-84.8512"/>
</g>
<!-- Node11&#45;&gt;Node6 -->
<g id="edge12" class="edge"><title>Node11&#45;&gt;Node6</title>
<path fill="none" stroke="midnightblue" d="M523.275,-57.2056C463.388,-46.2802 355.818,-26.6559 302.204,-16.875"/>
<polygon fill="midnightblue" stroke="midnightblue" points="302.696,-13.4072 292.231,-15.0556 301.44,-20.2935 302.696,-13.4072"/>
</g>
<!-- Node11&#45;&gt;Node9 -->
<g id="edge13" class="edge"><title>Node11&#45;&gt;Node9</title>
<path fill="none" stroke="midnightblue" d="M608.611,-58.0556C613.459,-57.3298 618.333,-56.6286 623,-56 761.46,-37.3484 927.43,-20.572 995.052,-13.972"/>
<polygon fill="midnightblue" stroke="midnightblue" points="995.794,-17.4164 1005.41,-12.9658 995.117,-10.4492 995.794,-17.4164"/>
</g>
<!-- Node12 -->
<g id="node12" class="node"><title>Node12</title>
<polygon fill="white" stroke="#bfbfbf" points="629,-0.5 629,-19.5 683,-19.5 683,-0.5 629,-0.5"/>
<text text-anchor="middle" x="656" y="-7.5" font-family="Helvetica,sans-Serif" font-size="10.00">iostream</text>
</g>
<!-- Node11&#45;&gt;Node12 -->
<g id="edge14" class="edge"><title>Node11&#45;&gt;Node12</title>
<path fill="none" stroke="midnightblue" d="M580.46,-56.324C594.5,-47.9002 616.048,-34.9709 632.543,-25.0741"/>
<polygon fill="midnightblue" stroke="midnightblue" points="634.802,-27.8007 641.576,-19.6545 631.2,-21.7983 634.802,-27.8007"/>
</g>
<!-- Node13&#45;&gt;Node6 -->
<g id="edge17" class="edge"><title>Node13&#45;&gt;Node6</title>
<path fill="none" stroke="midnightblue" d="M316.627,-112.375C310.31,-103.557 300.643,-89.3046 294,-76 286.443,-60.8653 279.947,-42.7444 275.626,-29.485"/>
<polygon fill="midnightblue" stroke="midnightblue" points="278.875,-28.1494 272.532,-19.6627 272.198,-30.2522 278.875,-28.1494"/>
</g>
<!-- Node13&#45;&gt;Node12 -->
<g id="edge16" class="edge"><title>Node13&#45;&gt;Node12</title>
<path fill="none" stroke="midnightblue" d="M330.884,-112.185C344.216,-97.8876 372.733,-69.8507 403,-56 474.58,-23.2436 567.68,-14.264 618.628,-11.8462"/>
<polygon fill="midnightblue" stroke="midnightblue" points="618.991,-15.3343 628.837,-11.4237 618.701,-8.34032 618.991,-15.3343"/>
</g>
<!-- Node14 -->
<g id="node14" class="node"><title>Node14</title>
<g id="a_node14"><a xlink:href="../../da/db4/Logging_8hpp.html" target="_top" xlink:title="Core/Logging.hpp">
<polygon fill="white" stroke="red" points="412.5,-56.5 412.5,-75.5 505.5,-75.5 505.5,-56.5 412.5,-56.5"/>
<text text-anchor="middle" x="459" y="-63.5" font-family="Helvetica,sans-Serif" font-size="10.00">Core/Logging.hpp</text>
</a>
</g>
</g>
<!-- Node13&#45;&gt;Node14 -->
<g id="edge18" class="edge"><title>Node13&#45;&gt;Node14</title>
<path fill="none" stroke="midnightblue" d="M344.55,-112.444C367.031,-103.517 402.488,-89.4387 427.98,-79.3168"/>
<polygon fill="midnightblue" stroke="midnightblue" points="429.549,-82.4598 437.551,-75.5164 426.965,-75.9539 429.549,-82.4598"/>
</g>
<!-- Node15&#45;&gt;Node9 -->
<g id="edge22" class="edge"><title>Node15&#45;&gt;Node9</title>
<path fill="none" stroke="midnightblue" d="M995.322,-117.752C1085.31,-111.628 1261.56,-97.069 1280,-76 1285.85,-69.3116 1285.71,-62.8116 1280,-56 1251.84,-22.4116 1118.24,-13.8789 1056.91,-11.723"/>
<polygon fill="midnightblue" stroke="midnightblue" points="1056.79,-8.21754 1046.68,-11.3996 1056.57,-15.214 1056.79,-8.21754"/>
</g>
<!-- Node15&#45;&gt;Node10 -->
<g id="edge24" class="edge"><title>Node15&#45;&gt;Node10</title>
<path fill="none" stroke="midnightblue" d="M903.228,-112.444C855.293,-102.131 775.394,-84.9414 728.819,-74.9212"/>
<polygon fill="midnightblue" stroke="midnightblue" points="729.364,-71.4584 718.851,-72.7767 727.891,-78.3018 729.364,-71.4584"/>
</g>
<!-- Node15&#45;&gt;Node12 -->
<g id="edge21" class="edge"><title>Node15&#45;&gt;Node12</title>
<path fill="none" stroke="midnightblue" d="M940.636,-112.207C936.315,-97.9411 925.717,-69.9485 906,-56 872.307,-32.1643 754.241,-19.1276 693.19,-13.8405"/>
<polygon fill="midnightblue" stroke="midnightblue" points="693.453,-10.3503 683.195,-13.0001 692.866,-17.3257 693.453,-10.3503"/>
</g>
<!-- Node15&#45;&gt;Node14 -->
<g id="edge32" class="edge"><title>Node15&#45;&gt;Node14</title>
<path fill="none" stroke="midnightblue" d="M890.714,-116.496C811.702,-109.473 656.929,-94.8768 515.909,-76.1954"/>
<polygon fill="midnightblue" stroke="midnightblue" points="516.156,-72.6974 505.78,-74.8434 515.229,-79.6359 516.156,-72.6974"/>
</g>
<!-- Node16 -->
<g id="node16" class="node"><title>Node16</title>
<polygon fill="white" stroke="#bfbfbf" points="1015,-56.5 1015,-75.5 1067,-75.5 1067,-56.5 1015,-56.5"/>
<text text-anchor="middle" x="1041" y="-63.5" font-family="Helvetica,sans-Serif" font-size="10.00">sstream</text>
</g>
<!-- Node15&#45;&gt;Node16 -->
<g id="edge23" class="edge"><title>Node15&#45;&gt;Node16</title>
<path fill="none" stroke="midnightblue" d="M958.745,-112.324C974.319,-103.743 998.377,-90.486 1016.46,-80.5224"/>
<polygon fill="midnightblue" stroke="midnightblue" points="1018.22,-83.546 1025.29,-75.6545 1014.85,-77.4152 1018.22,-83.546"/>
</g>
<!-- Node17 -->
<g id="node17" class="node"><title>Node17</title>
<polygon fill="white" stroke="#bfbfbf" points="1085.5,-56.5 1085.5,-75.5 1144.5,-75.5 1144.5,-56.5 1085.5,-56.5"/>
<text text-anchor="middle" x="1115" y="-63.5" font-family="Helvetica,sans-Serif" font-size="10.00">stdexcept</text>
</g>
<!-- Node15&#45;&gt;Node17 -->
<g id="edge25" class="edge"><title>Node15&#45;&gt;Node17</title>
<path fill="none" stroke="midnightblue" d="M970.254,-112.444C999.441,-103.28 1045.92,-88.6876 1078.31,-78.5192"/>
<polygon fill="midnightblue" stroke="midnightblue" points="1079.38,-81.8512 1087.87,-75.5164 1077.28,-75.1726 1079.38,-81.8512"/>
</g>
<!-- Node18 -->
<g id="node18" class="node"><title>Node18</title>
<polygon fill="white" stroke="#bfbfbf" points="953,-56.5 953,-75.5 997,-75.5 997,-56.5 953,-56.5"/>
<text text-anchor="middle" x="975" y="-63.5" font-family="Helvetica,sans-Serif" font-size="10.00">cmath</text>
</g>
<!-- Node15&#45;&gt;Node18 -->
<g id="edge26" class="edge"><title>Node15&#45;&gt;Node18</title>
<path fill="none" stroke="midnightblue" d="M948.284,-112.083C952.711,-104.613 959.163,-93.7244 964.618,-84.5199"/>
<polygon fill="midnightblue" stroke="midnightblue" points="967.727,-86.1383 969.814,-75.7511 961.705,-82.5697 967.727,-86.1383"/>
</g>
<!-- Node19 -->
<g id="node19" class="node"><title>Node19</title>
<g id="a_node19"><a xlink:href="../../d8/def/AbsParameter_8hpp.html" target="_top" xlink:title="This class defines the internal container of a parameter. ">
<polygon fill="white" stroke="red" points="775,-56.5 775,-75.5 897,-75.5 897,-56.5 775,-56.5"/>
<text text-anchor="middle" x="836" y="-63.5" font-family="Helvetica,sans-Serif" font-size="10.00">Core/AbsParameter.hpp</text>
</a>
</g>
</g>
<!-- Node15&#45;&gt;Node19 -->
<g id="edge27" class="edge"><title>Node15&#45;&gt;Node19</title>
<path fill="none" stroke="midnightblue" d="M925.809,-112.324C908.649,-103.664 882.054,-90.2424 862.253,-80.249"/>
<polygon fill="midnightblue" stroke="midnightblue" points="863.653,-77.0354 853.149,-75.6545 860.499,-83.2847 863.653,-77.0354"/>
</g>
<!-- Node20 -->
<g id="node20" class="node"><title>Node20</title>
<g id="a_node20"><a xlink:href="../../d2/de9/Exceptions_8hpp.html" target="_top" xlink:title="This class defines the ComPWA exception base&#45;class and provides a set of standard exceptions...">
<polygon fill="white" stroke="red" points="1163,-56.5 1163,-75.5 1271,-75.5 1271,-56.5 1163,-56.5"/>
<text text-anchor="middle" x="1217" y="-63.5" font-family="Helvetica,sans-Serif" font-size="10.00">Core/Exceptions.hpp</text>
</a>
</g>
</g>
<!-- Node15&#45;&gt;Node20 -->
<g id="edge30" class="edge"><title>Node15&#45;&gt;Node20</title>
<path fill="none" stroke="midnightblue" d="M986.416,-112.444C1034.52,-102.964 1112.09,-87.6747 1163.81,-77.4835"/>
<polygon fill="midnightblue" stroke="midnightblue" points="1164.65,-80.8841 1173.79,-75.5164 1163.3,-74.0162 1164.65,-80.8841"/>
</g>
<!-- Node19&#45;&gt;Node6 -->
<g id="edge29" class="edge"><title>Node19&#45;&gt;Node6</title>
<path fill="none" stroke="midnightblue" d="M774.89,-59.1697C655.144,-47.7452 393.357,-22.769 302.124,-14.0648"/>
<polygon fill="midnightblue" stroke="midnightblue" points="302.396,-10.575 292.109,-13.1093 301.731,-17.5433 302.396,-10.575"/>
</g>
<!-- Node19&#45;&gt;Node9 -->
<g id="edge28" class="edge"><title>Node19&#45;&gt;Node9</title>
<path fill="none" stroke="midnightblue" d="M866.106,-56.4435C901.534,-46.3745 960.028,-29.7501 995.588,-19.6434"/>
<polygon fill="midnightblue" stroke="midnightblue" points="996.742,-22.9541 1005.4,-16.8536 994.828,-16.2208 996.742,-22.9541"/>
</g>
<!-- Node20&#45;&gt;Node9 -->
<g id="edge31" class="edge"><title>Node20&#45;&gt;Node9</title>
<path fill="none" stroke="midnightblue" d="M1186.74,-56.4435C1151.12,-46.3745 1092.32,-29.7501 1056.57,-19.6434"/>
<polygon fill="midnightblue" stroke="midnightblue" points="1057.28,-16.2062 1046.7,-16.8536 1055.37,-22.9422 1057.28,-16.2062"/>
</g>
<!-- Node21&#45;&gt;Node3 -->
<g id="edge38" class="edge"><title>Node21&#45;&gt;Node3</title>
<path fill="none" stroke="midnightblue" d="M560.013,-292.896C541.611,-283.6 518.011,-270.494 499,-256 475.087,-237.769 451.36,-212.227 436.939,-195.647"/>
<polygon fill="midnightblue" stroke="midnightblue" points="439.455,-193.204 430.294,-187.881 434.136,-197.755 439.455,-193.204"/>
</g>
<!-- Node21&#45;&gt;Node6 -->
<g id="edge34" class="edge"><title>Node21&#45;&gt;Node6</title>
<path fill="none" stroke="midnightblue" d="M509.816,-306.174C348.499,-302.335 0,-282.11 0,-179 0,-179 0,-179 0,-121 0,-81.3821 26.5131,-75.4995 61,-56 117.592,-24.002 194.583,-14.7243 237.567,-12.0556"/>
<polygon fill="midnightblue" stroke="midnightblue" points="237.931,-15.5411 247.729,-11.5097 237.555,-8.55121 237.931,-15.5411"/>
</g>
<!-- Node21&#45;&gt;Node10 -->
<g id="edge35" class="edge"><title>Node21&#45;&gt;Node10</title>
<path fill="none" stroke="midnightblue" d="M575.433,-292.918C549.947,-266.552 502.645,-208.729 532,-168 561.584,-126.954 598.497,-160.94 640,-132 657.892,-119.524 672.763,-99.1637 681.955,-84.5535"/>
<polygon fill="midnightblue" stroke="midnightblue" points="684.991,-86.296 687.15,-75.9235 678.994,-82.6858 684.991,-86.296"/>
</g>
<!-- Node21&#45;&gt;Node15 -->
<g id="edge37" class="edge"><title>Node21&#45;&gt;Node15</title>
<path fill="none" stroke="midnightblue" d="M670.027,-300.075C720.349,-293.463 785.621,-280.657 839,-256 883.553,-235.42 899.04,-229.008 926,-188 935.111,-174.142 939.346,-155.626 941.31,-141.901"/>
<polygon fill="midnightblue" stroke="midnightblue" points="944.817,-142.042 942.483,-131.707 937.863,-141.241 944.817,-142.042"/>
</g>
<!-- Node22 -->
<g id="node22" class="node"><title>Node22</title>
<polygon fill="white" stroke="#bfbfbf" points="579.5,-225 579.5,-255 680.5,-255 680.5,-225 579.5,-225"/>
<text text-anchor="start" x="587.5" y="-243" font-family="Helvetica,sans-Serif" font-size="10.00">boost/property_tree</text>
<text text-anchor="middle" x="630" y="-232" font-family="Helvetica,sans-Serif" font-size="10.00">/ptree.hpp</text>
</g>
<!-- Node21&#45;&gt;Node22 -->
<g id="edge36" class="edge"><title>Node21&#45;&gt;Node22</title>
<path fill="none" stroke="midnightblue" d="M598.679,-292.679C603.764,-284.29 610.304,-273.499 616.091,-263.949"/>
<polygon fill="midnightblue" stroke="midnightblue" points="619.148,-265.659 621.338,-255.293 613.161,-262.031 619.148,-265.659"/>
</g>
<!-- Node23 -->
<g id="node23" class="node"><title>Node23</title>
<g id="a_node23"><a xlink:href="../../da/db2/FunctionTree_8hpp.html" target="_top" xlink:title="This class can be used to store a function in a tree&#45;like structure. ">
<polygon fill="white" stroke="red" points="778,-168.5 778,-187.5 894,-187.5 894,-168.5 778,-168.5"/>
<text text-anchor="middle" x="836" y="-175.5" font-family="Helvetica,sans-Serif" font-size="10.00">Core/FunctionTree.hpp</text>
</a>
</g>
</g>
<!-- Node21&#45;&gt;Node23 -->
<g id="edge39" class="edge"><title>Node21&#45;&gt;Node23</title>
<path fill="none" stroke="midnightblue" d="M670.27,-297.783C726.527,-289.717 795.231,-276.111 816,-256 831.627,-240.868 835.596,-215.21 836.336,-197.705"/>
<polygon fill="midnightblue" stroke="midnightblue" points="839.838,-197.61 836.447,-187.572 832.838,-197.534 839.838,-197.61"/>
</g>
<!-- Node24 -->
<g id="node24" class="node"><title>Node24</title>
<g id="a_node24"><a xlink:href="../../d8/d35/PhysConst_8hpp.html" target="_top" xlink:title="PhysConst provides particle information to the framework. ">
<polygon fill="white" stroke="red" points="541,-168.5 541,-187.5 649,-187.5 649,-168.5 541,-168.5"/>
<text text-anchor="middle" x="595" y="-175.5" font-family="Helvetica,sans-Serif" font-size="10.00">Core/PhysConst.hpp</text>
</a>
</g>
</g>
<!-- Node21&#45;&gt;Node24 -->
<g id="edge45" class="edge"><title>Node21&#45;&gt;Node24</title>
<path fill="none" stroke="midnightblue" d="M582.321,-292.865C574.319,-276.317 563.754,-248.105 570,-224 572.546,-214.175 577.753,-204.212 582.759,-196.166"/>
<polygon fill="midnightblue" stroke="midnightblue" points="585.749,-197.99 588.371,-187.725 579.92,-194.114 585.749,-197.99"/>
</g>
<!-- Node25 -->
<g id="node25" class="node"><title>Node25</title>
<g id="a_node25"><a xlink:href="../../d4/d62/Resonance_8hpp.html" target="_top" xlink:title="Core/Resonance.hpp">
<polygon fill="white" stroke="red" points="698.5,-230.5 698.5,-249.5 807.5,-249.5 807.5,-230.5 698.5,-230.5"/>
<text text-anchor="middle" x="753" y="-237.5" font-family="Helvetica,sans-Serif" font-size="10.00">Core/Resonance.hpp</text>
</a>
</g>
</g>
<!-- Node21&#45;&gt;Node25 -->
<g id="edge49" class="edge"><title>Node21&#45;&gt;Node25</title>
<path fill="none" stroke="midnightblue" d="M624.968,-292.841C653.794,-281.169 694.3,-264.768 721.984,-253.558"/>
<polygon fill="midnightblue" stroke="midnightblue" points="723.603,-256.679 731.558,-249.682 720.976,-250.191 723.603,-256.679"/>
</g>
<!-- Node23&#45;&gt;Node6 -->
<g id="edge40" class="edge"><title>Node23&#45;&gt;Node6</title>
<path fill="none" stroke="midnightblue" d="M777.714,-174.703C712.207,-170.79 603.338,-160.258 514,-132 495.427,-126.125 493.071,-119.273 475,-112 423.345,-91.2094 404.59,-101.324 355,-76 329.077,-62.7615 303.044,-41.3784 286.747,-26.78"/>
<polygon fill="midnightblue" stroke="midnightblue" points="288.906,-24.0108 279.165,-19.8435 284.181,-29.1757 288.906,-24.0108"/>
</g>
<!-- Node23&#45;&gt;Node7 -->
<g id="edge42" class="edge"><title>Node23&#45;&gt;Node7</title>
<path fill="none" stroke="midnightblue" d="M777.771,-172.285C707.09,-165.95 584.505,-152.995 481,-132 479.551,-131.706 478.071,-131.381 476.581,-131.033"/>
<polygon fill="midnightblue" stroke="midnightblue" points="477.383,-127.626 466.826,-128.518 475.635,-134.404 477.383,-127.626"/>
</g>
<!-- Node23&#45;&gt;Node9 -->
<g id="edge41" class="edge"><title>Node23&#45;&gt;Node9</title>
<path fill="none" stroke="midnightblue" d="M894.26,-173.042C1006.52,-164.072 1246.17,-137.962 1296,-76 1301.57,-69.0733 1301.75,-62.7824 1296,-56 1265.66,-20.1806 1121.33,-12.8465 1057.03,-11.3647"/>
<polygon fill="midnightblue" stroke="midnightblue" points="1056.78,-7.85913 1046.71,-11.1619 1056.64,-14.8578 1056.78,-7.85913"/>
</g>
<!-- Node23&#45;&gt;Node15 -->
<g id="edge44" class="edge"><title>Node23&#45;&gt;Node15</title>
<path fill="none" stroke="midnightblue" d="M853.191,-168.324C870.351,-159.664 896.946,-146.242 916.747,-136.249"/>
<polygon fill="midnightblue" stroke="midnightblue" points="918.501,-139.285 925.851,-131.655 915.347,-133.035 918.501,-139.285"/>
</g>
<!-- Node23&#45;&gt;Node19 -->
<g id="edge43" class="edge"><title>Node23&#45;&gt;Node19</title>
<path fill="none" stroke="midnightblue" d="M836,-168.368C836,-150.617 836,-109.666 836,-85.5974"/>
<polygon fill="midnightblue" stroke="midnightblue" points="839.5,-85.5914 836,-75.5914 832.5,-85.5915 839.5,-85.5914"/>
</g>
<!-- Node24&#45;&gt;Node6 -->
<g id="edge47" class="edge"><title>Node24&#45;&gt;Node6</title>
<path fill="none" stroke="midnightblue" d="M540.696,-172.005C441.543,-162.651 240.276,-142.496 229,-132 204.018,-108.746 203.812,-87.041 218,-56 223.777,-43.3602 235.052,-32.911 245.631,-25.2737"/>
<polygon fill="midnightblue" stroke="midnightblue" points="247.849,-28.0009 254.217,-19.5333 243.958,-22.1817 247.849,-28.0009"/>
</g>
<!-- Node24&#45;&gt;Node12 -->
<g id="edge46" class="edge"><title>Node24&#45;&gt;Node12</title>
<path fill="none" stroke="midnightblue" d="M617.585,-168.43C649.88,-154.699 707.506,-124.299 727,-76 730.327,-67.7572 731.285,-63.7881 727,-56 719.113,-41.6632 704.514,-31.2525 690.597,-24.0792"/>
<polygon fill="midnightblue" stroke="midnightblue" points="691.698,-20.7285 681.161,-19.6217 688.708,-27.0578 691.698,-20.7285"/>
</g>
<!-- Node24&#45;&gt;Node15 -->
<g id="edge48" class="edge"><title>Node24&#45;&gt;Node15</title>
<path fill="none" stroke="midnightblue" d="M649.375,-168.562C712.068,-158.834 814.917,-142.875 880.758,-132.658"/>
<polygon fill="midnightblue" stroke="midnightblue" points="881.65,-136.062 890.995,-131.07 880.576,-129.145 881.65,-136.062"/>
</g>
<!-- Node25&#45;&gt;Node3 -->
<g id="edge53" class="edge"><title>Node25&#45;&gt;Node3</title>
<path fill="none" stroke="midnightblue" d="M718.21,-230.429C708.759,-228.214 698.509,-225.917 689,-224 619.34,-209.959 538.817,-196.755 484.776,-188.328"/>
<polygon fill="midnightblue" stroke="midnightblue" points="485.086,-184.834 474.667,-186.759 484.012,-191.751 485.086,-184.834"/>
</g>
<!-- Node25&#45;&gt;Node6 -->
<g id="edge50" class="edge"><title>Node25&#45;&gt;Node6</title>
<path fill="none" stroke="midnightblue" d="M744.838,-230.316C729.529,-214.674 694.719,-182.083 658,-168 575.497,-136.357 321.586,-197.249 262,-132 236.421,-103.99 250.81,-55.4701 261.578,-29.1853"/>
<polygon fill="midnightblue" stroke="midnightblue" points="264.926,-30.2648 265.709,-19.6989 258.508,-27.4702 264.926,-30.2648"/>
</g>
<!-- Node25&#45;&gt;Node15 -->
<g id="edge52" class="edge"><title>Node25&#45;&gt;Node15</title>
<path fill="none" stroke="midnightblue" d="M804.081,-230.448C834.957,-223.241 873.687,-210.381 902,-188 917.497,-175.749 928.783,-155.926 935.545,-141.388"/>
<polygon fill="midnightblue" stroke="midnightblue" points="938.884,-142.486 939.665,-131.92 932.466,-139.693 938.884,-142.486"/>
</g>
<!-- Node25&#45;&gt;Node19 -->
<g id="edge51" class="edge"><title>Node25&#45;&gt;Node19</title>
<path fill="none" stroke="midnightblue" d="M753.918,-230.384C755.597,-216.705 759.868,-189.381 769,-168 782.771,-135.759 806.997,-102.703 822.236,-83.5498"/>
<polygon fill="midnightblue" stroke="midnightblue" points="825.14,-85.5252 828.722,-75.5543 819.704,-81.1149 825.14,-85.5252"/>
</g>
<!-- Node25&#45;&gt;Node23 -->
<g id="edge54" class="edge"><title>Node25&#45;&gt;Node23</title>
<path fill="none" stroke="midnightblue" d="M764.892,-230.403C778.205,-220.78 800,-205.024 815.957,-193.489"/>
<polygon fill="midnightblue" stroke="midnightblue" points="818.076,-196.276 824.13,-187.581 813.975,-190.603 818.076,-196.276"/>
</g>
</g>
</svg>
