<?xml version="1.0" encoding="UTF-8" standalone="no"?>
<!DOCTYPE svg PUBLIC "-//W3C//DTD SVG 1.1//EN"
 "http://www.w3.org/Graphics/SVG/1.1/DTD/svg11.dtd">
<!-- Generated by graphviz version 2.36.0 (20140111.2315)
 -->
<!-- Title: /home/travis/build/ComPWA/ComPWA/Physics/DecayDynamics/NonResonant.cpp Pages: 1 -->
<svg width="843pt" height="378pt"
 viewBox="0.00 0.00 842.85 378.00" xmlns="http://www.w3.org/2000/svg" xmlns:xlink="http://www.w3.org/1999/xlink">
<g id="graph0" class="graph" transform="scale(1 1) rotate(0) translate(4 374)">
<title>/home/travis/build/ComPWA/ComPWA/Physics/DecayDynamics/NonResonant.cpp</title>
<polygon fill="white" stroke="none" points="-4,4 -4,-374 838.85,-374 838.85,4 -4,4"/>
<!-- Node1 -->
<g id="node1" class="node"><title>Node1</title>
<polygon fill="#bfbfbf" stroke="black" points="360,-328.5 360,-369.5 534,-369.5 534,-328.5 360,-328.5"/>
<text text-anchor="start" x="368" y="-357.5" font-family="Helvetica,sans-Serif" font-size="10.00">/home/travis/build</text>
<text text-anchor="start" x="368" y="-346.5" font-family="Helvetica,sans-Serif" font-size="10.00">/ComPWA/ComPWA/Physics</text>
<text text-anchor="middle" x="447" y="-335.5" font-family="Helvetica,sans-Serif" font-size="10.00">/DecayDynamics/NonResonant.cpp</text>
</g>
<!-- Node2 -->
<g id="node2" class="node"><title>Node2</title>
<g id="a_node2"><a xlink:href="../../d4/db6/NonResonant_8hpp.html" target="_top" xlink:title="Physics/DecayDynamics\l/NonResonant.hpp">
<polygon fill="white" stroke="black" points="383,-261 383,-291 511,-291 511,-261 383,-261"/>
<text text-anchor="start" x="391" y="-279" font-family="Helvetica,sans-Serif" font-size="10.00">Physics/DecayDynamics</text>
<text text-anchor="middle" x="447" y="-268" font-family="Helvetica,sans-Serif" font-size="10.00">/NonResonant.hpp</text>
</a>
</g>
</g>
<!-- Node1&#45;&gt;Node2 -->
<g id="edge1" class="edge"><title>Node1&#45;&gt;Node2</title>
<path fill="none" stroke="midnightblue" d="M447,-328.223C447,-319.821 447,-309.948 447,-301.123"/>
<polygon fill="midnightblue" stroke="midnightblue" points="450.5,-301.048 447,-291.049 443.5,-301.049 450.5,-301.048"/>
</g>
<!-- Node3 -->
<g id="node3" class="node"><title>Node3</title>
<g id="a_node3"><a xlink:href="../../de/d02/AbstractDynamicalFunction_8hpp.html" target="_top" xlink:title="Physics/DecayDynamics\l/AbstractDynamicalFunction.hpp">
<polygon fill="white" stroke="black" points="232.5,-193 232.5,-223 391.5,-223 391.5,-193 232.5,-193"/>
<text text-anchor="start" x="240.5" y="-211" font-family="Helvetica,sans-Serif" font-size="10.00">Physics/DecayDynamics</text>
<text text-anchor="middle" x="312" y="-200" font-family="Helvetica,sans-Serif" font-size="10.00">/AbstractDynamicalFunction.hpp</text>
</a>
</g>
</g>
<!-- Node2&#45;&gt;Node3 -->
<g id="edge2" class="edge"><title>Node2&#45;&gt;Node3</title>
<path fill="none" stroke="midnightblue" d="M418.039,-260.841C398.198,-251.141 371.675,-238.174 350.119,-227.636"/>
<polygon fill="midnightblue" stroke="midnightblue" points="351.434,-224.383 340.913,-223.135 348.36,-230.672 351.434,-224.383"/>
</g>
<!-- Node14 -->
<g id="node14" class="node"><title>Node14</title>
<g id="a_node14"><a xlink:href="../../d4/d37/Kinematics_8hpp.html" target="_top" xlink:title="Core/Kinematics.hpp">
<polygon fill="white" stroke="black" points="528,-198.5 528,-217.5 636,-217.5 636,-198.5 528,-198.5"/>
<text text-anchor="middle" x="582" y="-205.5" font-family="Helvetica,sans-Serif" font-size="10.00">Core/Kinematics.hpp</text>
</a>
</g>
</g>
<!-- Node2&#45;&gt;Node14 -->
<g id="edge21" class="edge"><title>Node2&#45;&gt;Node14</title>
<path fill="none" stroke="midnightblue" d="M475.961,-260.841C499.417,-249.374 532.209,-233.342 555.096,-222.153"/>
<polygon fill="midnightblue" stroke="midnightblue" points="556.795,-225.218 564.242,-217.682 553.72,-218.93 556.795,-225.218"/>
</g>
<!-- Node4 -->
<g id="node4" class="node"><title>Node4</title>
<polygon fill="white" stroke="#bfbfbf" points="420.5,-130.5 420.5,-149.5 473.5,-149.5 473.5,-130.5 420.5,-130.5"/>
<text text-anchor="middle" x="447" y="-137.5" font-family="Helvetica,sans-Serif" font-size="10.00">complex</text>
</g>
<!-- Node3&#45;&gt;Node4 -->
<g id="edge3" class="edge"><title>Node3&#45;&gt;Node4</title>
<path fill="none" stroke="midnightblue" d="M340.961,-192.841C364.417,-181.374 397.209,-165.342 420.096,-154.153"/>
<polygon fill="midnightblue" stroke="midnightblue" points="421.795,-157.218 429.242,-149.682 418.72,-150.93 421.795,-157.218"/>
</g>
<!-- Node5 -->
<g id="node5" class="node"><title>Node5</title>
<polygon fill="white" stroke="#bfbfbf" points="494.5,-57 494.5,-87 595.5,-87 595.5,-57 494.5,-57"/>
<text text-anchor="start" x="502.5" y="-75" font-family="Helvetica,sans-Serif" font-size="10.00">boost/property_tree</text>
<text text-anchor="middle" x="545" y="-64" font-family="Helvetica,sans-Serif" font-size="10.00">/ptree.hpp</text>
</g>
<!-- Node3&#45;&gt;Node5 -->
<g id="edge4" class="edge"><title>Node3&#45;&gt;Node5</title>
<path fill="none" stroke="midnightblue" d="M328.843,-192.945C341.099,-182.712 358.09,-168.511 373,-156 389.914,-141.808 391.97,-135.196 411,-124 434.675,-110.072 462.839,-98.6746 487.222,-90.2149"/>
<polygon fill="midnightblue" stroke="midnightblue" points="488.363,-93.5238 496.712,-87.0021 486.118,-86.8933 488.363,-93.5238"/>
</g>
<!-- Node6 -->
<g id="node6" class="node"><title>Node6</title>
<g id="a_node6"><a xlink:href="../../dc/ded/Properties_8hpp.html" target="_top" xlink:title="Core/Properties.hpp">
<polygon fill="white" stroke="red" points="260,-130.5 260,-149.5 364,-149.5 364,-130.5 260,-130.5"/>
<text text-anchor="middle" x="312" y="-137.5" font-family="Helvetica,sans-Serif" font-size="10.00">Core/Properties.hpp</text>
</a>
</g>
</g>
<!-- Node3&#45;&gt;Node6 -->
<g id="edge5" class="edge"><title>Node3&#45;&gt;Node6</title>
<path fill="none" stroke="midnightblue" d="M312,-192.679C312,-183.101 312,-170.394 312,-159.977"/>
<polygon fill="midnightblue" stroke="midnightblue" points="315.5,-159.828 312,-149.828 308.5,-159.828 315.5,-159.828"/>
</g>
<!-- Node8 -->
<g id="node8" class="node"><title>Node8</title>
<g id="a_node8"><a xlink:href="../../d9/dfb/Spin_8hpp.html" target="_top" xlink:title="Core/Spin.hpp">
<polygon fill="white" stroke="red" points="358.5,-62.5 358.5,-81.5 437.5,-81.5 437.5,-62.5 358.5,-62.5"/>
<text text-anchor="middle" x="398" y="-69.5" font-family="Helvetica,sans-Serif" font-size="10.00">Core/Spin.hpp</text>
</a>
</g>
</g>
<!-- Node3&#45;&gt;Node8 -->
<g id="edge16" class="edge"><title>Node3&#45;&gt;Node8</title>
<path fill="none" stroke="midnightblue" d="M286.167,-192.884C273.021,-184.158 258.306,-171.632 251,-156 244.978,-143.116 242.755,-135.588 251,-124 254.344,-119.301 318.666,-98.1684 361.107,-84.6237"/>
<polygon fill="midnightblue" stroke="midnightblue" points="362.381,-87.8914 370.85,-81.5248 360.259,-81.2207 362.381,-87.8914"/>
</g>
<!-- Node10 -->
<g id="node10" class="node"><title>Node10</title>
<g id="a_node10"><a xlink:href="../../d8/dd4/DataPoint_8hpp.html" target="_top" xlink:title="dataPoint stores kinematic information of a dalitz plot ">
<polygon fill="white" stroke="red" points="530.5,-130.5 530.5,-149.5 633.5,-149.5 633.5,-130.5 530.5,-130.5"/>
<text text-anchor="middle" x="582" y="-137.5" font-family="Helvetica,sans-Serif" font-size="10.00">Core/DataPoint.hpp</text>
</a>
</g>
</g>
<!-- Node3&#45;&gt;Node10 -->
<g id="edge11" class="edge"><title>Node3&#45;&gt;Node10</title>
<path fill="none" stroke="midnightblue" d="M369.591,-192.922C419.698,-180.674 491.293,-163.173 537.213,-151.948"/>
<polygon fill="midnightblue" stroke="midnightblue" points="538.288,-155.288 547.171,-149.514 536.626,-148.488 538.288,-155.288"/>
</g>
<!-- Node11 -->
<g id="node11" class="node"><title>Node11</title>
<g id="a_node11"><a xlink:href="../../df/d9f/ParameterList_8hpp.html" target="_top" xlink:title="This class provides a list of fit parameters which can have different types. ">
<polygon fill="white" stroke="red" points="221,-62.5 221,-81.5 341,-81.5 341,-62.5 221,-62.5"/>
<text text-anchor="middle" x="281" y="-69.5" font-family="Helvetica,sans-Serif" font-size="10.00">Core/ParameterList.hpp</text>
</a>
</g>
</g>
<!-- Node3&#45;&gt;Node11 -->
<g id="edge13" class="edge"><title>Node3&#45;&gt;Node11</title>
<path fill="none" stroke="midnightblue" d="M264.357,-192.85C246.587,-185 228.255,-173.231 218,-156 210.726,-143.778 211.876,-136.836 218,-124 225.654,-107.955 241.096,-95.3266 254.775,-86.6496"/>
<polygon fill="midnightblue" stroke="midnightblue" points="256.598,-89.6373 263.41,-81.5221 253.024,-83.6185 256.598,-89.6373"/>
</g>
<!-- Node12 -->
<g id="node12" class="node"><title>Node12</title>
<g id="a_node12"><a xlink:href="../../da/db2/FunctionTree_8hpp.html" target="_top" xlink:title="This class can be used to store a function in a tree&#45;like structure. ">
<polygon fill="white" stroke="red" points="87,-62.5 87,-81.5 203,-81.5 203,-62.5 87,-62.5"/>
<text text-anchor="middle" x="145" y="-69.5" font-family="Helvetica,sans-Serif" font-size="10.00">Core/FunctionTree.hpp</text>
</a>
</g>
</g>
<!-- Node3&#45;&gt;Node12 -->
<g id="edge17" class="edge"><title>Node3&#45;&gt;Node12</title>
<path fill="none" stroke="midnightblue" d="M273.347,-192.819C252.896,-184.145 228.132,-171.69 209,-156 186.206,-137.308 166.632,-109.036 155.33,-90.7933"/>
<polygon fill="midnightblue" stroke="midnightblue" points="158.086,-88.5835 149.935,-81.815 152.086,-92.1892 158.086,-88.5835"/>
</g>
<!-- Node13 -->
<g id="node13" class="node"><title>Node13</title>
<g id="a_node13"><a xlink:href="../../de/dc9/FormFactor_8hpp.html" target="_top" xlink:title="Physics/DecayDynamics\l/FormFactor.hpp">
<polygon fill="white" stroke="black" points="0,-125 0,-155 128,-155 128,-125 0,-125"/>
<text text-anchor="start" x="8" y="-143" font-family="Helvetica,sans-Serif" font-size="10.00">Physics/DecayDynamics</text>
<text text-anchor="middle" x="64" y="-132" font-family="Helvetica,sans-Serif" font-size="10.00">/FormFactor.hpp</text>
</a>
</g>
</g>
<!-- Node3&#45;&gt;Node13 -->
<g id="edge20" class="edge"><title>Node3&#45;&gt;Node13</title>
<path fill="none" stroke="midnightblue" d="M259.102,-192.922C220.333,-182.605 167.559,-168.56 126.673,-157.679"/>
<polygon fill="midnightblue" stroke="midnightblue" points="127.381,-154.246 116.817,-155.056 125.58,-161.01 127.381,-154.246"/>
</g>
<!-- Node6&#45;&gt;Node5 -->
<g id="edge7" class="edge"><title>Node6&#45;&gt;Node5</title>
<path fill="none" stroke="midnightblue" d="M342.461,-130.372C378.661,-120.117 439.904,-102.77 485.588,-89.8291"/>
<polygon fill="midnightblue" stroke="midnightblue" points="486.71,-93.1492 495.377,-87.0562 484.802,-86.4142 486.71,-93.1492"/>
</g>
<!-- Node7 -->
<g id="node7" class="node"><title>Node7</title>
<polygon fill="white" stroke="#bfbfbf" points="523,-0.5 523,-19.5 567,-19.5 567,-0.5 523,-0.5"/>
<text text-anchor="middle" x="545" y="-7.5" font-family="Helvetica,sans-Serif" font-size="10.00">vector</text>
</g>
<!-- Node6&#45;&gt;Node7 -->
<g id="edge6" class="edge"><title>Node6&#45;&gt;Node7</title>
<path fill="none" stroke="midnightblue" d="M342.203,-130.471C370.173,-121.897 412.394,-107.206 446,-88 465.766,-76.7034 468.059,-70.0155 486,-56 499.106,-45.7621 513.997,-34.4065 525.54,-25.6639"/>
<polygon fill="midnightblue" stroke="midnightblue" points="527.762,-28.3714 533.63,-19.5494 523.542,-22.7871 527.762,-28.3714"/>
</g>
<!-- Node6&#45;&gt;Node8 -->
<g id="edge8" class="edge"><title>Node6&#45;&gt;Node8</title>
<path fill="none" stroke="midnightblue" d="M323.243,-130.372C337.278,-119.6 361.512,-101.002 378.576,-87.9065"/>
<polygon fill="midnightblue" stroke="midnightblue" points="380.952,-90.4953 386.754,-81.6305 376.69,-84.9421 380.952,-90.4953"/>
</g>
<!-- Node8&#45;&gt;Node7 -->
<g id="edge10" class="edge"><title>Node8&#45;&gt;Node7</title>
<path fill="none" stroke="midnightblue" d="M419.062,-62.4035C444.059,-52.2004 485.942,-35.1055 514.487,-23.4544"/>
<polygon fill="midnightblue" stroke="midnightblue" points="516.042,-26.6001 523.978,-19.5806 513.396,-20.1192 516.042,-26.6001"/>
</g>
<!-- Node9 -->
<g id="node9" class="node"><title>Node9</title>
<polygon fill="white" stroke="#bfbfbf" points="377.5,-0.5 377.5,-19.5 418.5,-19.5 418.5,-0.5 377.5,-0.5"/>
<text text-anchor="middle" x="398" y="-7.5" font-family="Helvetica,sans-Serif" font-size="10.00">string</text>
</g>
<!-- Node8&#45;&gt;Node9 -->
<g id="edge9" class="edge"><title>Node8&#45;&gt;Node9</title>
<path fill="none" stroke="midnightblue" d="M398,-62.4035C398,-53.9381 398,-40.7283 398,-29.8199"/>
<polygon fill="midnightblue" stroke="midnightblue" points="401.5,-29.5806 398,-19.5806 394.5,-29.5806 401.5,-29.5806"/>
</g>
<!-- Node10&#45;&gt;Node7 -->
<g id="edge12" class="edge"><title>Node10&#45;&gt;Node7</title>
<path fill="none" stroke="midnightblue" d="M588.138,-130.356C598.36,-114.809 616.564,-81.3847 604,-56 597.397,-42.6595 584.735,-32.1941 572.829,-24.7262"/>
<polygon fill="midnightblue" stroke="midnightblue" points="574.391,-21.5866 563.984,-19.6018 570.882,-27.6435 574.391,-21.5866"/>
</g>
<!-- Node11&#45;&gt;Node7 -->
<g id="edge15" class="edge"><title>Node11&#45;&gt;Node7</title>
<path fill="none" stroke="midnightblue" d="M318.544,-62.4672C370.642,-50.6269 463.962,-29.4177 512.957,-18.2825"/>
<polygon fill="midnightblue" stroke="midnightblue" points="513.733,-21.6955 522.708,-16.0663 512.181,-14.8696 513.733,-21.6955"/>
</g>
<!-- Node11&#45;&gt;Node9 -->
<g id="edge14" class="edge"><title>Node11&#45;&gt;Node9</title>
<path fill="none" stroke="midnightblue" d="M297.763,-62.4035C317.225,-52.4232 349.545,-35.8487 372.211,-24.2253"/>
<polygon fill="midnightblue" stroke="midnightblue" points="373.967,-27.2582 381.268,-19.5806 370.773,-21.0294 373.967,-27.2582"/>
</g>
<!-- Node12&#45;&gt;Node7 -->
<g id="edge18" class="edge"><title>Node12&#45;&gt;Node7</title>
<path fill="none" stroke="midnightblue" d="M180.352,-62.4889C190.531,-60.2005 201.675,-57.8499 212,-56 321.696,-36.3461 453.104,-20.9667 512.739,-14.4264"/>
<polygon fill="midnightblue" stroke="midnightblue" points="513.121,-17.9055 522.684,-13.3449 512.364,-10.9466 513.121,-17.9055"/>
</g>
<!-- Node12&#45;&gt;Node9 -->
<g id="edge19" class="edge"><title>Node12&#45;&gt;Node9</title>
<path fill="none" stroke="midnightblue" d="M180.98,-62.4672C230.952,-50.6162 320.499,-29.3797 367.418,-18.2526"/>
<polygon fill="midnightblue" stroke="midnightblue" points="368.374,-21.623 377.297,-15.9099 366.759,-14.8119 368.374,-21.623"/>
</g>
<!-- Node14&#45;&gt;Node4 -->
<g id="edge24" class="edge"><title>Node14&#45;&gt;Node4</title>
<path fill="none" stroke="midnightblue" d="M564.351,-198.372C541.308,-187.106 500.753,-167.279 473.878,-154.14"/>
<polygon fill="midnightblue" stroke="midnightblue" points="475.174,-150.878 464.653,-149.63 472.1,-157.167 475.174,-150.878"/>
</g>
<!-- Node14&#45;&gt;Node6 -->
<g id="edge31" class="edge"><title>Node14&#45;&gt;Node6</title>
<path fill="none" stroke="midnightblue" d="M546.979,-198.439C498.32,-186.545 410.236,-165.013 356.832,-151.959"/>
<polygon fill="midnightblue" stroke="midnightblue" points="357.504,-148.52 346.959,-149.546 355.842,-155.32 357.504,-148.52"/>
</g>
<!-- Node14&#45;&gt;Node7 -->
<g id="edge22" class="edge"><title>Node14&#45;&gt;Node7</title>
<path fill="none" stroke="midnightblue" d="M636.052,-203.402C700.267,-197.871 801.667,-184.738 825,-156 836.061,-142.377 840.9,-77.2503 822,-56 790.102,-20.135 643.219,-12.8208 577.244,-11.3541"/>
<polygon fill="midnightblue" stroke="midnightblue" points="577.076,-7.85038 567.011,-11.1596 576.943,-14.8491 577.076,-7.85038"/>
</g>
<!-- Node14&#45;&gt;Node8 -->
<g id="edge32" class="edge"><title>Node14&#45;&gt;Node8</title>
<path fill="none" stroke="midnightblue" d="M572.054,-198.426C550.567,-179.956 500.281,-137.029 482,-124 462.658,-110.215 439.511,-96.3399 422.417,-86.55"/>
<polygon fill="midnightblue" stroke="midnightblue" points="424.032,-83.4423 413.606,-81.5579 420.582,-89.5327 424.032,-83.4423"/>
</g>
<!-- Node14&#45;&gt;Node9 -->
<g id="edge23" class="edge"><title>Node14&#45;&gt;Node9</title>
<path fill="none" stroke="midnightblue" d="M598.495,-198.43C612.986,-189.873 633.106,-175.233 642,-156 661.956,-112.846 642.189,-84.3226 604,-56 576.481,-35.5903 479.069,-20.9685 428.687,-14.5824"/>
<polygon fill="midnightblue" stroke="midnightblue" points="429.046,-11.1002 418.692,-13.3455 428.187,-18.0472 429.046,-11.1002"/>
</g>
<!-- Node14&#45;&gt;Node10 -->
<g id="edge33" class="edge"><title>Node14&#45;&gt;Node10</title>
<path fill="none" stroke="midnightblue" d="M582,-198.372C582,-188.643 582,-172.528 582,-159.85"/>
<polygon fill="midnightblue" stroke="midnightblue" points="585.5,-159.841 582,-149.841 578.5,-159.841 585.5,-159.841"/>
</g>
<!-- Node15 -->
<g id="node15" class="node"><title>Node15</title>
<g id="a_node15"><a xlink:href="../../df/d7d/Event_8hpp.html" target="_top" xlink:title="This class provides a internal container for event&#45;based information. ">
<polygon fill="white" stroke="red" points="728.5,-62.5 728.5,-81.5 813.5,-81.5 813.5,-62.5 728.5,-62.5"/>
<text text-anchor="middle" x="771" y="-69.5" font-family="Helvetica,sans-Serif" font-size="10.00">Core/Event.hpp</text>
</a>
</g>
</g>
<!-- Node14&#45;&gt;Node15 -->
<g id="edge25" class="edge"><title>Node14&#45;&gt;Node15</title>
<path fill="none" stroke="midnightblue" d="M636.245,-202.483C696.393,-196.217 787.769,-182.53 809,-156 825.487,-135.398 804.454,-106.485 787.732,-88.7865"/>
<polygon fill="midnightblue" stroke="midnightblue" points="790.035,-86.1386 780.502,-81.5142 785.07,-91.0737 790.035,-86.1386"/>
</g>
<!-- Node16 -->
<g id="node16" class="node"><title>Node16</title>
<g id="a_node16"><a xlink:href="../../dd/df5/SubSystem_8hpp.html" target="_top" xlink:title="Contains SubSystem class. ">
<polygon fill="white" stroke="black" points="690,-130.5 690,-149.5 800,-149.5 800,-130.5 690,-130.5"/>
<text text-anchor="middle" x="745" y="-137.5" font-family="Helvetica,sans-Serif" font-size="10.00">Core/SubSystem.hpp</text>
</a>
</g>
</g>
<!-- Node14&#45;&gt;Node16 -->
<g id="edge28" class="edge"><title>Node14&#45;&gt;Node16</title>
<path fill="none" stroke="midnightblue" d="M603.309,-198.372C631.698,-186.877 682.1,-166.469 714.508,-153.346"/>
<polygon fill="midnightblue" stroke="midnightblue" points="715.988,-156.523 723.944,-149.526 713.361,-150.035 715.988,-156.523"/>
</g>
<!-- Node15&#45;&gt;Node7 -->
<g id="edge26" class="edge"><title>Node15&#45;&gt;Node7</title>
<path fill="none" stroke="midnightblue" d="M738.62,-62.4035C695.547,-50.9682 619.866,-30.8759 576.991,-19.4931"/>
<polygon fill="midnightblue" stroke="midnightblue" points="577.654,-16.0481 567.091,-16.8649 575.858,-22.8137 577.654,-16.0481"/>
</g>
<!-- Node15&#45;&gt;Node9 -->
<g id="edge27" class="edge"><title>Node15&#45;&gt;Node9</title>
<path fill="none" stroke="midnightblue" d="M728.212,-64.1172C652.262,-51.9 495.627,-26.7041 429.044,-15.9936"/>
<polygon fill="midnightblue" stroke="midnightblue" points="429.219,-12.477 418.79,-14.3443 428.108,-19.3881 429.219,-12.477"/>
</g>
<!-- Node16&#45;&gt;Node5 -->
<g id="edge30" class="edge"><title>Node16&#45;&gt;Node5</title>
<path fill="none" stroke="midnightblue" d="M718.853,-130.372C688.106,-120.225 636.311,-103.133 597.235,-90.2375"/>
<polygon fill="midnightblue" stroke="midnightblue" points="598.188,-86.8664 587.595,-87.0562 595.994,-93.5138 598.188,-86.8664"/>
</g>
<!-- Node16&#45;&gt;Node7 -->
<g id="edge29" class="edge"><title>Node16&#45;&gt;Node7</title>
<path fill="none" stroke="midnightblue" d="M740.084,-130.386C730.118,-113.667 705.92,-76.6483 676,-56 645.814,-35.1682 605.099,-23.186 577.115,-16.9028"/>
<polygon fill="midnightblue" stroke="midnightblue" points="577.57,-13.4216 567.061,-14.7672 576.116,-20.2688 577.57,-13.4216"/>
</g>
</g>
</svg>
