<?xml version="1.0" encoding="UTF-8" standalone="no"?>
<!DOCTYPE svg PUBLIC "-//W3C//DTD SVG 1.1//EN"
 "http://www.w3.org/Graphics/SVG/1.1/DTD/svg11.dtd">
<!-- Generated by graphviz version 2.26.3 (20100126.1600)
 -->
<!-- Title: G Pages: 1 -->
<svg width="486pt" height="494pt"
 viewBox="0.00 0.00 486.00 494.00" xmlns="http://www.w3.org/2000/svg" xmlns:xlink="http://www.w3.org/1999/xlink">
<g id="graph1" class="graph" transform="scale(1 1) rotate(0) translate(4 490)">
<title>G</title>
<polygon fill="white" stroke="white" points="-4,5 -4,-490 483,-490 483,5 -4,5"/>
<!-- Node1 -->
<g id="node1" class="node"><title>Node1</title>
<polygon fill="#bfbfbf" stroke="black" points="186,-256.5 186,-345.5 292,-345.5 292,-256.5 186,-256.5"/>
<text text-anchor="middle" x="239" y="-332.5" font-family="Helvetica,sans-Serif" font-size="10.00">Estimator</text>
<polyline fill="none" stroke="black" points="186,-324.5 292,-324.5 "/>
<text text-anchor="middle" x="239" y="-311.5" font-family="Helvetica,sans-Serif" font-size="10.00"> </text>
<polyline fill="none" stroke="black" points="186,-303.5 292,-303.5 "/>
<text text-anchor="start" x="194" y="-290.5" font-family="Helvetica,sans-Serif" font-size="10.00">+ controlParameter()</text>
<text text-anchor="start" x="194" y="-277.5" font-family="Helvetica,sans-Serif" font-size="10.00"># Estimator()</text>
<text text-anchor="start" x="194" y="-264.5" font-family="Helvetica,sans-Serif" font-size="10.00"># ~Estimator()</text>
</g>
<!-- Node3 -->
<g id="node5" class="node"><title>Node3</title>
<a xlink:href="../../dd/dd1/classAmpFcn.xhtml" target="_top" xlink:title="{AmpFcn\n|&#45; _amp\l&#45; _par\l|+ AmpFcn()\l+ controlParameter()\l}">
<polygon fill="white" stroke="black" points="0,-65.5 0,-154.5 106,-154.5 106,-65.5 0,-65.5"/>
<text text-anchor="middle" x="53" y="-141.5" font-family="Helvetica,sans-Serif" font-size="10.00">AmpFcn</text>
<polyline fill="none" stroke="black" points="0,-133.5 106,-133.5 "/>
<text text-anchor="start" x="8" y="-120.5" font-family="Helvetica,sans-Serif" font-size="10.00">&#45; _amp</text>
<text text-anchor="start" x="8" y="-107.5" font-family="Helvetica,sans-Serif" font-size="10.00">&#45; _par</text>
<polyline fill="none" stroke="black" points="0,-99.5 106,-99.5 "/>
<text text-anchor="start" x="8" y="-86.5" font-family="Helvetica,sans-Serif" font-size="10.00">+ AmpFcn()</text>
<text text-anchor="start" x="8" y="-73.5" font-family="Helvetica,sans-Serif" font-size="10.00">+ controlParameter()</text>
</a>
</g>
<!-- Node1&#45;&gt;Node3 -->
<g id="edge4" class="edge"><title>Node1&#45;&gt;Node3</title>
<path fill="none" stroke="midnightblue" d="M177.247,-268.751C155.834,-255.585 132.767,-238.969 115,-220 97.2415,-201.041 82.6389,-176.064 72.0756,-154.703"/>
<polygon fill="none" stroke="midnightblue" points="175.609,-271.849 185.985,-273.993 179.21,-265.847 175.609,-271.849"/>
</g>
<!-- Node4 -->
<g id="node7" class="node"><title>Node4</title>
<a xlink:href="../../d7/d79/classChiOneD.xhtml" target="_top" xlink:title="Simple &#45;Estimator.">
<polygon fill="white" stroke="black" points="124,-52.5 124,-167.5 230,-167.5 230,-52.5 124,-52.5"/>
<text text-anchor="middle" x="177" y="-154.5" font-family="Helvetica,sans-Serif" font-size="10.00">ChiOneD</text>
<polyline fill="none" stroke="black" points="124,-146.5 230,-146.5 "/>
<text text-anchor="start" x="132" y="-133.5" font-family="Helvetica,sans-Serif" font-size="10.00">&#45; pPIF_</text>
<text text-anchor="start" x="132" y="-120.5" font-family="Helvetica,sans-Serif" font-size="10.00">&#45; pDIF_</text>
<polyline fill="none" stroke="black" points="124,-112.5 230,-112.5 "/>
<text text-anchor="start" x="132" y="-99.5" font-family="Helvetica,sans-Serif" font-size="10.00">+ controlParameter()</text>
<text text-anchor="start" x="132" y="-86.5" font-family="Helvetica,sans-Serif" font-size="10.00">+ ~ChiOneD()</text>
<text text-anchor="start" x="132" y="-73.5" font-family="Helvetica,sans-Serif" font-size="10.00">+ createInstance()</text>
<text text-anchor="start" x="132" y="-60.5" font-family="Helvetica,sans-Serif" font-size="10.00"># ChiOneD()</text>
</a>
</g>
<!-- Node1&#45;&gt;Node4 -->
<g id="edge6" class="edge"><title>Node1&#45;&gt;Node4</title>
<path fill="none" stroke="midnightblue" d="M221.353,-246.635C213.327,-221.912 203.827,-192.643 195.681,-167.549"/>
<polygon fill="none" stroke="midnightblue" points="218.047,-247.788 224.464,-256.219 224.705,-245.627 218.047,-247.788"/>
</g>
<!-- Node5 -->
<g id="node9" class="node"><title>Node5</title>
<a xlink:href="../../d3/da3/classMinLogLH.xhtml" target="_top" xlink:title="Negative Log Likelihood&#45;Estimator.">
<polygon fill="white" stroke="black" points="248,-0.5 248,-219.5 354,-219.5 354,-0.5 248,-0.5"/>
<text text-anchor="middle" x="301" y="-206.5" font-family="Helvetica,sans-Serif" font-size="10.00">MinLogLH</text>
<polyline fill="none" stroke="black" points="248,-198.5 354,-198.5 "/>
<text text-anchor="start" x="256" y="-185.5" font-family="Helvetica,sans-Serif" font-size="10.00">&#45; pPIF_</text>
<text text-anchor="start" x="256" y="-172.5" font-family="Helvetica,sans-Serif" font-size="10.00">&#45; pFcnTree_</text>
<text text-anchor="start" x="256" y="-159.5" font-family="Helvetica,sans-Serif" font-size="10.00">&#45; pDIF_</text>
<text text-anchor="start" x="256" y="-146.5" font-family="Helvetica,sans-Serif" font-size="10.00">&#45; pPHSP_</text>
<polyline fill="none" stroke="black" points="248,-138.5 354,-138.5 "/>
<text text-anchor="start" x="256" y="-125.5" font-family="Helvetica,sans-Serif" font-size="10.00">+ controlParameter()</text>
<text text-anchor="start" x="256" y="-112.5" font-family="Helvetica,sans-Serif" font-size="10.00">+ ~MinLogLH()</text>
<text text-anchor="start" x="256" y="-99.5" font-family="Helvetica,sans-Serif" font-size="10.00">+ createInstance()</text>
<text text-anchor="start" x="256" y="-86.5" font-family="Helvetica,sans-Serif" font-size="10.00">+ createInstance()</text>
<text text-anchor="start" x="256" y="-73.5" font-family="Helvetica,sans-Serif" font-size="10.00">+ createInstance()</text>
<text text-anchor="start" x="256" y="-60.5" font-family="Helvetica,sans-Serif" font-size="10.00">+ createInstance()</text>
<text text-anchor="start" x="256" y="-47.5" font-family="Helvetica,sans-Serif" font-size="10.00"># MinLogLH()</text>
<text text-anchor="start" x="256" y="-34.5" font-family="Helvetica,sans-Serif" font-size="10.00"># MinLogLH()</text>
<text text-anchor="start" x="256" y="-21.5" font-family="Helvetica,sans-Serif" font-size="10.00"># MinLogLH()</text>
<text text-anchor="start" x="256" y="-8.5" font-family="Helvetica,sans-Serif" font-size="10.00"># MinLogLH()</text>
</a>
</g>
<!-- Node1&#45;&gt;Node5 -->
<g id="edge8" class="edge"><title>Node1&#45;&gt;Node5</title>
<path fill="none" stroke="midnightblue" d="M256.679,-246.536C259.43,-238.061 262.354,-229.054 265.337,-219.866"/>
<polygon fill="none" stroke="midnightblue" points="253.295,-245.627 253.536,-256.219 259.953,-247.788 253.295,-245.627"/>
</g>
<!-- Node6 -->
<g id="node11" class="node"><title>Node6</title>
<a xlink:href="../../dc/d61/classSliceFit.xhtml" target="_top" xlink:title="Estimator for a Fit of Dalitz&#45;Plot Slices.">
<polygon fill="white" stroke="black" points="372,-13.5 372,-206.5 478,-206.5 478,-13.5 372,-13.5"/>
<text text-anchor="middle" x="425" y="-193.5" font-family="Helvetica,sans-Serif" font-size="10.00">SliceFit</text>
<polyline fill="none" stroke="black" points="372,-185.5 478,-185.5 "/>
<text text-anchor="start" x="380" y="-172.5" font-family="Helvetica,sans-Serif" font-size="10.00">&#45; dalitzPlot_</text>
<text text-anchor="start" x="380" y="-159.5" font-family="Helvetica,sans-Serif" font-size="10.00">&#45; pPIF_</text>
<text text-anchor="start" x="380" y="-146.5" font-family="Helvetica,sans-Serif" font-size="10.00">&#45; pDIF_</text>
<text text-anchor="start" x="380" y="-133.5" font-family="Helvetica,sans-Serif" font-size="10.00">&#45; M</text>
<text text-anchor="start" x="380" y="-120.5" font-family="Helvetica,sans-Serif" font-size="10.00">&#45; Br</text>
<text text-anchor="start" x="380" y="-107.5" font-family="Helvetica,sans-Serif" font-size="10.00">&#45; m1</text>
<text text-anchor="start" x="380" y="-94.5" font-family="Helvetica,sans-Serif" font-size="10.00">&#45; m2</text>
<text text-anchor="start" x="380" y="-81.5" font-family="Helvetica,sans-Serif" font-size="10.00">&#45; m3</text>
<text text-anchor="start" x="380" y="-68.5" font-family="Helvetica,sans-Serif" font-size="10.00">&#45; PI</text>
<polyline fill="none" stroke="black" points="372,-60.5 478,-60.5 "/>
<text text-anchor="start" x="380" y="-47.5" font-family="Helvetica,sans-Serif" font-size="10.00">+ SliceFit()</text>
<text text-anchor="start" x="380" y="-34.5" font-family="Helvetica,sans-Serif" font-size="10.00">+ controlParameter()</text>
<text text-anchor="start" x="380" y="-21.5" font-family="Helvetica,sans-Serif" font-size="10.00">+ ~SliceFit()</text>
</a>
</g>
<!-- Node1&#45;&gt;Node6 -->
<g id="edge10" class="edge"><title>Node1&#45;&gt;Node6</title>
<path fill="none" stroke="midnightblue" d="M300.753,-268.751C322.166,-255.585 345.233,-238.969 363,-220 366.896,-215.84 370.641,-211.391 374.224,-206.753"/>
<polygon fill="none" stroke="midnightblue" points="298.79,-265.847 292.015,-273.993 302.391,-271.849 298.79,-265.847"/>
</g>
<!-- Node2 -->
<g id="node2" class="node"><title>Node2</title>
<a xlink:href="../../d5/db1/classControlParameter.xhtml" target="_top" xlink:title="Optimizer Data Base&#45;Class.">
<polygon fill="white" stroke="black" points="182.5,-383 182.5,-485 295.5,-485 295.5,-383 182.5,-383"/>
<text text-anchor="middle" x="239" y="-472" font-family="Helvetica,sans-Serif" font-size="10.00">ControlParameter</text>
<polyline fill="none" stroke="black" points="182.5,-464 295.5,-464 "/>
<text text-anchor="start" x="190.5" y="-451" font-family="Helvetica,sans-Serif" font-size="10.00"># instance_</text>
<polyline fill="none" stroke="black" points="182.5,-443 295.5,-443 "/>
<text text-anchor="start" x="190.5" y="-430" font-family="Helvetica,sans-Serif" font-size="10.00">+ controlParameter()</text>
<text text-anchor="start" x="190.5" y="-417" font-family="Helvetica,sans-Serif" font-size="10.00">+ Instance()</text>
<text text-anchor="start" x="190.5" y="-404" font-family="Helvetica,sans-Serif" font-size="10.00"># ControlParameter()</text>
<text text-anchor="start" x="190.5" y="-391" font-family="Helvetica,sans-Serif" font-size="10.00"># ~ControlParameter()</text>
</a>
</g>
<!-- Node2&#45;&gt;Node1 -->
<g id="edge2" class="edge"><title>Node2&#45;&gt;Node1</title>
<path fill="none" stroke="midnightblue" d="M239,-372.733C239,-363.593 239,-354.32 239,-345.611"/>
<polygon fill="none" stroke="midnightblue" points="235.5,-372.959 239,-382.959 242.5,-372.959 235.5,-372.959"/>
</g>
</g>
</svg>
