<?xml version="1.0" encoding="UTF-8" standalone="no"?>
<!DOCTYPE svg PUBLIC "-//W3C//DTD SVG 1.1//EN"
 "http://www.w3.org/Graphics/SVG/1.1/DTD/svg11.dtd">
<!-- Generated by graphviz version 2.36.0 (20140111.2315)
 -->
<!-- Title: /home/travis/build/ComPWA/ComPWA/Physics/HelicityFormalism/AbstractDynamicalFunction.cpp Pages: 1 -->
<svg width="1359pt" height="490pt"
 viewBox="0.00 0.00 1359.00 490.00" xmlns="http://www.w3.org/2000/svg" xmlns:xlink="http://www.w3.org/1999/xlink">
<g id="graph0" class="graph" transform="scale(1 1) rotate(0) translate(4 486)">
<title>/home/travis/build/ComPWA/ComPWA/Physics/HelicityFormalism/AbstractDynamicalFunction.cpp</title>
<polygon fill="white" stroke="none" points="-4,4 -4,-486 1355,-486 1355,4 -4,4"/>
<!-- Node1 -->
<g id="node1" class="node"><title>Node1</title>
<polygon fill="#bfbfbf" stroke="black" points="829.5,-429 829.5,-481 1014.5,-481 1014.5,-429 829.5,-429"/>
<text text-anchor="start" x="837.5" y="-469" font-family="Helvetica,sans-Serif" font-size="10.00">/home/travis/build</text>
<text text-anchor="start" x="837.5" y="-458" font-family="Helvetica,sans-Serif" font-size="10.00">/ComPWA/ComPWA/Physics</text>
<text text-anchor="start" x="837.5" y="-447" font-family="Helvetica,sans-Serif" font-size="10.00">/HelicityFormalism/AbstractDynamical</text>
<text text-anchor="middle" x="922" y="-436" font-family="Helvetica,sans-Serif" font-size="10.00">Function.cpp</text>
</g>
<!-- Node2 -->
<g id="node2" class="node"><title>Node2</title>
<g id="a_node2"><a xlink:href="../../de/d02/AbstractDynamicalFunction_8hpp.html" target="_top" xlink:title="Physics/HelicityFormalism\l/AbstractDynamicalFunction.hpp">
<polygon fill="white" stroke="black" points="540.5,-305 540.5,-335 699.5,-335 699.5,-305 540.5,-305"/>
<text text-anchor="start" x="548.5" y="-323" font-family="Helvetica,sans-Serif" font-size="10.00">Physics/HelicityFormalism</text>
<text text-anchor="middle" x="620" y="-312" font-family="Helvetica,sans-Serif" font-size="10.00">/AbstractDynamicalFunction.hpp</text>
</a>
</g>
</g>
<!-- Node1&#45;&gt;Node2 -->
<g id="edge1" class="edge"><title>Node1&#45;&gt;Node2</title>
<path fill="none" stroke="midnightblue" d="M865.196,-428.984C805.842,-402.844 714.158,-362.467 661.336,-339.204"/>
<polygon fill="midnightblue" stroke="midnightblue" points="662.505,-335.895 651.942,-335.067 659.683,-342.301 662.505,-335.895"/>
</g>
<!-- Node24 -->
<g id="node24" class="node"><title>Node24</title>
<g id="a_node24"><a xlink:href="../../d0/d27/Integration_8hpp.html" target="_top" xlink:title="Tools/Integration.hpp">
<polygon fill="white" stroke="black" points="979,-372.5 979,-391.5 1087,-391.5 1087,-372.5 979,-372.5"/>
<text text-anchor="middle" x="1033" y="-379.5" font-family="Helvetica,sans-Serif" font-size="10.00">Tools/Integration.hpp</text>
</a>
</g>
</g>
<!-- Node1&#45;&gt;Node24 -->
<g id="edge58" class="edge"><title>Node1&#45;&gt;Node24</title>
<path fill="none" stroke="midnightblue" d="M961.134,-428.968C977.826,-418.291 996.687,-406.227 1010.9,-397.138"/>
<polygon fill="midnightblue" stroke="midnightblue" points="1012.96,-399.976 1019.49,-391.639 1009.18,-394.079 1012.96,-399.976"/>
</g>
<!-- Node3 -->
<g id="node3" class="node"><title>Node3</title>
<polygon fill="white" stroke="#bfbfbf" points="68.5,-6.5 68.5,-25.5 121.5,-25.5 121.5,-6.5 68.5,-6.5"/>
<text text-anchor="middle" x="95" y="-13.5" font-family="Helvetica,sans-Serif" font-size="10.00">complex</text>
</g>
<!-- Node2&#45;&gt;Node3 -->
<g id="edge2" class="edge"><title>Node2&#45;&gt;Node3</title>
<path fill="none" stroke="midnightblue" d="M540.215,-319.038C372.763,-316.96 0,-300.085 0,-191 0,-191 0,-191 0,-133 0,-102.205 5.34366,-92.5007 24,-68 35.878,-52.401 53.8487,-39.558 68.738,-30.6619"/>
<polygon fill="midnightblue" stroke="midnightblue" points="70.5793,-33.641 77.5285,-25.6436 67.1087,-27.5619 70.5793,-33.641"/>
</g>
<!-- Node4 -->
<g id="node4" class="node"><title>Node4</title>
<polygon fill="white" stroke="#bfbfbf" points="215.5,-1 215.5,-31 316.5,-31 316.5,-1 215.5,-1"/>
<text text-anchor="start" x="223.5" y="-19" font-family="Helvetica,sans-Serif" font-size="10.00">boost/property_tree</text>
<text text-anchor="middle" x="266" y="-8" font-family="Helvetica,sans-Serif" font-size="10.00">/ptree.hpp</text>
</g>
<!-- Node2&#45;&gt;Node4 -->
<g id="edge3" class="edge"><title>Node2&#45;&gt;Node4</title>
<path fill="none" stroke="midnightblue" d="M540.315,-316.699C389.214,-310.158 76,-285.234 76,-191 76,-191 76,-191 76,-133 76,-71.3846 149.689,-41.524 205.285,-27.7634"/>
<polygon fill="midnightblue" stroke="midnightblue" points="206.152,-31.1549 215.083,-25.4555 204.547,-24.3414 206.152,-31.1549"/>
</g>
<!-- Node5 -->
<g id="node5" class="node"><title>Node5</title>
<g id="a_node5"><a xlink:href="../../d8/d35/PhysConst_8hpp.html" target="_top" xlink:title="PhysConst provides particle information to the framework. ">
<polygon fill="white" stroke="black" points="484,-124.5 484,-143.5 592,-143.5 592,-124.5 484,-124.5"/>
<text text-anchor="middle" x="538" y="-131.5" font-family="Helvetica,sans-Serif" font-size="10.00">Core/PhysConst.hpp</text>
</a>
</g>
</g>
<!-- Node2&#45;&gt;Node5 -->
<g id="edge4" class="edge"><title>Node2&#45;&gt;Node5</title>
<path fill="none" stroke="midnightblue" d="M613.702,-304.867C599.024,-271.933 562.554,-190.096 546.183,-153.361"/>
<polygon fill="midnightblue" stroke="midnightblue" points="549.23,-151.6 541.962,-143.891 542.836,-154.45 549.23,-151.6"/>
</g>
<!-- Node12 -->
<g id="node12" class="node"><title>Node12</title>
<g id="a_node12"><a xlink:href="../../d9/dfb/Spin_8hpp.html" target="_top" xlink:title="Core/Spin.hpp">
<polygon fill="white" stroke="red" points="511.5,-68.5 511.5,-87.5 590.5,-87.5 590.5,-68.5 511.5,-68.5"/>
<text text-anchor="middle" x="551" y="-75.5" font-family="Helvetica,sans-Serif" font-size="10.00">Core/Spin.hpp</text>
</a>
</g>
</g>
<!-- Node2&#45;&gt;Node12 -->
<g id="edge48" class="edge"><title>Node2&#45;&gt;Node12</title>
<path fill="none" stroke="midnightblue" d="M621.954,-304.818C625.894,-271.286 631.968,-185.335 601,-124 594.832,-111.783 583.833,-101.321 573.719,-93.5681"/>
<polygon fill="midnightblue" stroke="midnightblue" points="575.723,-90.698 565.557,-87.7132 571.643,-96.386 575.723,-90.698"/>
</g>
<!-- Node14 -->
<g id="node14" class="node"><title>Node14</title>
<g id="a_node14"><a xlink:href="../../d8/dd4/DataPoint_8hpp.html" target="_top" xlink:title="dataPoint stores kinematic information of a dalitz plot ">
<polygon fill="white" stroke="black" points="762.5,-242.5 762.5,-261.5 865.5,-261.5 865.5,-242.5 762.5,-242.5"/>
<text text-anchor="middle" x="814" y="-249.5" font-family="Helvetica,sans-Serif" font-size="10.00">Core/DataPoint.hpp</text>
</a>
</g>
</g>
<!-- Node2&#45;&gt;Node14 -->
<g id="edge20" class="edge"><title>Node2&#45;&gt;Node14</title>
<path fill="none" stroke="midnightblue" d="M661.618,-304.841C696.629,-292.93 746.117,-276.094 779.091,-264.876"/>
<polygon fill="midnightblue" stroke="midnightblue" points="780.42,-268.121 788.76,-261.587 778.166,-261.494 780.42,-268.121"/>
</g>
<!-- Node20 -->
<g id="node20" class="node"><title>Node20</title>
<g id="a_node20"><a xlink:href="../../df/d9f/ParameterList_8hpp.html" target="_top" xlink:title="This class provides a list of fit parameters which can have different types. ">
<polygon fill="white" stroke="red" points="941,-124.5 941,-143.5 1061,-143.5 1061,-124.5 941,-124.5"/>
<text text-anchor="middle" x="1001" y="-131.5" font-family="Helvetica,sans-Serif" font-size="10.00">Core/ParameterList.hpp</text>
</a>
</g>
</g>
<!-- Node2&#45;&gt;Node20 -->
<g id="edge40" class="edge"><title>Node2&#45;&gt;Node20</title>
<path fill="none" stroke="midnightblue" d="M636.016,-304.762C647.465,-294.562 663.221,-280.479 677,-268 719.901,-229.147 721.354,-206.131 773,-180 822.304,-155.054 884.107,-143.92 930.926,-138.959"/>
<polygon fill="midnightblue" stroke="midnightblue" points="931.372,-142.432 940.979,-137.964 930.683,-135.467 931.372,-142.432"/>
</g>
<!-- Node22 -->
<g id="node22" class="node"><title>Node22</title>
<g id="a_node22"><a xlink:href="../../da/db2/FunctionTree_8hpp.html" target="_top" xlink:title="This class can be used to store a function in a tree&#45;like structure. ">
<polygon fill="white" stroke="red" points="717,-124.5 717,-143.5 833,-143.5 833,-124.5 717,-124.5"/>
<text text-anchor="middle" x="775" y="-131.5" font-family="Helvetica,sans-Serif" font-size="10.00">Core/FunctionTree.hpp</text>
</a>
</g>
</g>
<!-- Node2&#45;&gt;Node22 -->
<g id="edge49" class="edge"><title>Node2&#45;&gt;Node22</title>
<path fill="none" stroke="midnightblue" d="M628.546,-304.67C644.588,-278.387 681.116,-221.377 720,-180 730.4,-168.933 743.515,-158.105 754.329,-149.845"/>
<polygon fill="midnightblue" stroke="midnightblue" points="756.49,-152.599 762.413,-143.815 752.305,-146.988 756.49,-152.599"/>
</g>
<!-- Node23 -->
<g id="node23" class="node"><title>Node23</title>
<g id="a_node23"><a xlink:href="../../d0/dab/HelicityKinematics_8hpp.html" target="_top" xlink:title="Physics/HelicityFormalism\l/HelicityKinematics.hpp">
<polygon fill="white" stroke="red" points="351,-237 351,-267 485,-267 485,-237 351,-237"/>
<text text-anchor="start" x="359" y="-255" font-family="Helvetica,sans-Serif" font-size="10.00">Physics/HelicityFormalism</text>
<text text-anchor="middle" x="418" y="-244" font-family="Helvetica,sans-Serif" font-size="10.00">/HelicityKinematics.hpp</text>
</a>
</g>
</g>
<!-- Node2&#45;&gt;Node23 -->
<g id="edge55" class="edge"><title>Node2&#45;&gt;Node23</title>
<path fill="none" stroke="midnightblue" d="M576.666,-304.841C545.674,-294.715 503.787,-281.03 470.834,-270.262"/>
<polygon fill="midnightblue" stroke="midnightblue" points="471.508,-266.801 460.915,-267.022 469.334,-273.455 471.508,-266.801"/>
</g>
<!-- Node5&#45;&gt;Node4 -->
<g id="edge7" class="edge"><title>Node5&#45;&gt;Node4</title>
<path fill="none" stroke="midnightblue" d="M501.344,-124.446C470.663,-116.696 426.075,-104.044 389,-88 355.545,-73.5227 319.708,-52.087 295.399,-36.5585"/>
<polygon fill="midnightblue" stroke="midnightblue" points="297.289,-33.6131 286.99,-31.1286 293.492,-39.4936 297.289,-33.6131"/>
</g>
<!-- Node6 -->
<g id="node6" class="node"><title>Node6</title>
<polygon fill="white" stroke="#bfbfbf" points="670,-6.5 670,-25.5 724,-25.5 724,-6.5 670,-6.5"/>
<text text-anchor="middle" x="697" y="-13.5" font-family="Helvetica,sans-Serif" font-size="10.00">iostream</text>
</g>
<!-- Node5&#45;&gt;Node6 -->
<g id="edge5" class="edge"><title>Node5&#45;&gt;Node6</title>
<path fill="none" stroke="midnightblue" d="M549.692,-124.47C576.684,-104.778 643.592,-55.9643 677.147,-31.484"/>
<polygon fill="midnightblue" stroke="midnightblue" points="679.275,-34.2636 685.291,-25.5423 675.15,-28.6086 679.275,-34.2636"/>
</g>
<!-- Node7 -->
<g id="node7" class="node"><title>Node7</title>
<polygon fill="white" stroke="#bfbfbf" points="382,-6.5 382,-25.5 426,-25.5 426,-6.5 382,-6.5"/>
<text text-anchor="middle" x="404" y="-13.5" font-family="Helvetica,sans-Serif" font-size="10.00">vector</text>
</g>
<!-- Node5&#45;&gt;Node7 -->
<g id="edge6" class="edge"><title>Node5&#45;&gt;Node7</title>
<path fill="none" stroke="midnightblue" d="M483.875,-130.354C453.664,-125.768 418.322,-114.564 399,-88 388.015,-72.898 391.742,-50.8834 396.64,-35.3807"/>
<polygon fill="midnightblue" stroke="midnightblue" points="399.975,-36.4479 400.05,-25.8533 393.385,-34.0884 399.975,-36.4479"/>
</g>
<!-- Node8 -->
<g id="node8" class="node"><title>Node8</title>
<g id="a_node8"><a xlink:href="../../db/dce/Parameter_8hpp.html" target="_top" xlink:title="This class implements some internal container of parameters. ">
<polygon fill="white" stroke="red" points="723,-68.5 723,-87.5 827,-87.5 827,-68.5 723,-68.5"/>
<text text-anchor="middle" x="775" y="-75.5" font-family="Helvetica,sans-Serif" font-size="10.00">Core/Parameter.hpp</text>
</a>
</g>
</g>
<!-- Node5&#45;&gt;Node8 -->
<g id="edge8" class="edge"><title>Node5&#45;&gt;Node8</title>
<path fill="none" stroke="midnightblue" d="M575.553,-124.444C616.811,-115.043 683.144,-99.9291 727.866,-89.7393"/>
<polygon fill="midnightblue" stroke="midnightblue" points="728.65,-93.1506 737.622,-87.5164 727.095,-86.3255 728.65,-93.1506"/>
</g>
<!-- Node5&#45;&gt;Node12 -->
<g id="edge15" class="edge"><title>Node5&#45;&gt;Node12</title>
<path fill="none" stroke="midnightblue" d="M540.147,-124.083C541.869,-116.927 544.347,-106.635 546.5,-97.6911"/>
<polygon fill="midnightblue" stroke="midnightblue" points="549.955,-98.2925 548.893,-87.7511 543.15,-96.6541 549.955,-98.2925"/>
</g>
<!-- Node8&#45;&gt;Node3 -->
<g id="edge11" class="edge"><title>Node8&#45;&gt;Node3</title>
<path fill="none" stroke="midnightblue" d="M722.742,-73.8389C622.414,-67.5547 395.917,-52.3264 206,-32 181.241,-29.3501 153.48,-25.5984 131.914,-22.5099"/>
<polygon fill="midnightblue" stroke="midnightblue" points="132.264,-19.0241 121.865,-21.0548 131.26,-25.9519 132.264,-19.0241"/>
</g>
<!-- Node8&#45;&gt;Node4 -->
<g id="edge13" class="edge"><title>Node8&#45;&gt;Node4</title>
<path fill="none" stroke="midnightblue" d="M722.907,-71.6362C646.209,-63.633 498.417,-47.8075 373,-32 358.03,-30.1132 341.904,-27.9312 326.825,-25.8258"/>
<polygon fill="midnightblue" stroke="midnightblue" points="326.971,-22.3119 316.581,-24.385 325.996,-29.2437 326.971,-22.3119"/>
</g>
<!-- Node8&#45;&gt;Node6 -->
<g id="edge9" class="edge"><title>Node8&#45;&gt;Node6</title>
<path fill="none" stroke="midnightblue" d="M763.825,-68.4035C751.429,-58.8688 731.21,-43.3154 716.254,-31.8106"/>
<polygon fill="midnightblue" stroke="midnightblue" points="718.215,-28.9035 708.155,-25.5806 713.947,-34.4519 718.215,-28.9035"/>
</g>
<!-- Node9 -->
<g id="node9" class="node"><title>Node9</title>
<polygon fill="white" stroke="#bfbfbf" points="570.5,-6.5 570.5,-25.5 611.5,-25.5 611.5,-6.5 570.5,-6.5"/>
<text text-anchor="middle" x="591" y="-13.5" font-family="Helvetica,sans-Serif" font-size="10.00">string</text>
</g>
<!-- Node8&#45;&gt;Node9 -->
<g id="edge10" class="edge"><title>Node8&#45;&gt;Node9</title>
<path fill="none" stroke="midnightblue" d="M748.637,-68.4035C714.993,-57.4324 656.911,-38.4927 621.425,-26.9211"/>
<polygon fill="midnightblue" stroke="midnightblue" points="622.214,-23.4971 611.622,-23.7244 620.044,-30.1522 622.214,-23.4971"/>
</g>
<!-- Node10 -->
<g id="node10" class="node"><title>Node10</title>
<polygon fill="white" stroke="#bfbfbf" points="1010,-6.5 1010,-25.5 1054,-25.5 1054,-6.5 1010,-6.5"/>
<text text-anchor="middle" x="1032" y="-13.5" font-family="Helvetica,sans-Serif" font-size="10.00">cmath</text>
</g>
<!-- Node8&#45;&gt;Node10 -->
<g id="edge12" class="edge"><title>Node8&#45;&gt;Node10</title>
<path fill="none" stroke="midnightblue" d="M811.549,-68.4672C862.03,-56.6818 952.269,-35.6143 1000.14,-24.4381"/>
<polygon fill="midnightblue" stroke="midnightblue" points="1001.02,-27.8272 1009.96,-22.1453 999.427,-21.0105 1001.02,-27.8272"/>
</g>
<!-- Node11 -->
<g id="node11" class="node"><title>Node11</title>
<g id="a_node11"><a xlink:href="../../da/db4/Logging_8hpp.html" target="_top" xlink:title="Core/Logging.hpp">
<polygon fill="white" stroke="red" points="1150.5,-6.5 1150.5,-25.5 1243.5,-25.5 1243.5,-6.5 1150.5,-6.5"/>
<text text-anchor="middle" x="1197" y="-13.5" font-family="Helvetica,sans-Serif" font-size="10.00">Core/Logging.hpp</text>
</a>
</g>
</g>
<!-- Node8&#45;&gt;Node11 -->
<g id="edge14" class="edge"><title>Node8&#45;&gt;Node11</title>
<path fill="none" stroke="midnightblue" d="M827.169,-69.5826C906.87,-58.2507 1058.34,-36.7151 1140.53,-25.0283"/>
<polygon fill="midnightblue" stroke="midnightblue" points="1141.04,-28.4917 1150.45,-23.6188 1140.05,-21.5614 1141.04,-28.4917"/>
</g>
<!-- Node12&#45;&gt;Node6 -->
<g id="edge19" class="edge"><title>Node12&#45;&gt;Node6</title>
<path fill="none" stroke="midnightblue" d="M571.918,-68.4035C596.746,-58.2004 638.343,-41.1055 666.694,-29.4544"/>
<polygon fill="midnightblue" stroke="midnightblue" points="668.202,-32.6191 676.121,-25.5806 665.541,-26.1445 668.202,-32.6191"/>
</g>
<!-- Node12&#45;&gt;Node7 -->
<g id="edge18" class="edge"><title>Node12&#45;&gt;Node7</title>
<path fill="none" stroke="midnightblue" d="M529.938,-68.4035C504.941,-58.2004 463.058,-41.1055 434.513,-29.4544"/>
<polygon fill="midnightblue" stroke="midnightblue" points="435.604,-26.1192 425.022,-25.5806 432.958,-32.6001 435.604,-26.1192"/>
</g>
<!-- Node12&#45;&gt;Node9 -->
<g id="edge16" class="edge"><title>Node12&#45;&gt;Node9</title>
<path fill="none" stroke="midnightblue" d="M556.731,-68.4035C562.672,-59.4925 572.117,-45.3247 579.588,-34.1177"/>
<polygon fill="midnightblue" stroke="midnightblue" points="582.645,-35.8426 585.28,-25.5806 576.82,-31.9596 582.645,-35.8426"/>
</g>
<!-- Node13 -->
<g id="node13" class="node"><title>Node13</title>
<polygon fill="white" stroke="#bfbfbf" points="896.5,-6.5 896.5,-25.5 931.5,-25.5 931.5,-6.5 896.5,-6.5"/>
<text text-anchor="middle" x="914" y="-13.5" font-family="Helvetica,sans-Serif" font-size="10.00">map</text>
</g>
<!-- Node12&#45;&gt;Node13 -->
<g id="edge17" class="edge"><title>Node12&#45;&gt;Node13</title>
<path fill="none" stroke="midnightblue" d="M590.538,-70.4647C664.536,-58.2337 822.234,-32.168 886.189,-21.5968"/>
<polygon fill="midnightblue" stroke="midnightblue" points="887.018,-25.0074 896.313,-19.9234 885.876,-18.1011 887.018,-25.0074"/>
</g>
<!-- Node14&#45;&gt;Node7 -->
<g id="edge23" class="edge"><title>Node14&#45;&gt;Node7</title>
<path fill="none" stroke="midnightblue" d="M762.413,-249.071C648.175,-244.268 381.803,-229.946 355,-200 315.819,-156.224 339.719,-122.36 362,-68 367.506,-54.5676 377.833,-41.9515 386.869,-32.6277"/>
<polygon fill="midnightblue" stroke="midnightblue" points="389.325,-35.1215 394.021,-25.6244 384.427,-30.12 389.325,-35.1215"/>
</g>
<!-- Node14&#45;&gt;Node13 -->
<g id="edge24" class="edge"><title>Node14&#45;&gt;Node13</title>
<path fill="none" stroke="midnightblue" d="M840.036,-242.437C925.823,-213.964 1195.38,-122.322 1217,-88 1287.62,24.0956 1477.46,-112.779 1001,-32 981.103,-28.6266 958.658,-24.7551 941.55,-21.7904"/>
<polygon fill="midnightblue" stroke="midnightblue" points="942.109,-18.3352 931.658,-20.0742 940.912,-25.2322 942.109,-18.3352"/>
</g>
<!-- Node15 -->
<g id="node15" class="node"><title>Node15</title>
<polygon fill="white" stroke="#bfbfbf" points="782.5,-180.5 782.5,-199.5 827.5,-199.5 827.5,-180.5 782.5,-180.5"/>
<text text-anchor="middle" x="805" y="-187.5" font-family="Helvetica,sans-Serif" font-size="10.00">cstdlib</text>
</g>
<!-- Node14&#45;&gt;Node15 -->
<g id="edge21" class="edge"><title>Node14&#45;&gt;Node15</title>
<path fill="none" stroke="midnightblue" d="M812.711,-242.403C811.427,-233.849 809.417,-220.45 807.771,-209.476"/>
<polygon fill="midnightblue" stroke="midnightblue" points="811.232,-208.951 806.287,-199.581 804.309,-209.989 811.232,-208.951"/>
</g>
<!-- Node16 -->
<g id="node16" class="node"><title>Node16</title>
<polygon fill="white" stroke="#bfbfbf" points="1036.5,-180.5 1036.5,-199.5 1083.5,-199.5 1083.5,-180.5 1036.5,-180.5"/>
<text text-anchor="middle" x="1060" y="-187.5" font-family="Helvetica,sans-Serif" font-size="10.00">math.h</text>
</g>
<!-- Node14&#45;&gt;Node16 -->
<g id="edge22" class="edge"><title>Node14&#45;&gt;Node16</title>
<path fill="none" stroke="midnightblue" d="M848.985,-242.467C896.217,-230.947 979.811,-210.558 1026.35,-199.208"/>
<polygon fill="midnightblue" stroke="midnightblue" points="1027.35,-202.565 1036.24,-196.795 1025.69,-195.765 1027.35,-202.565"/>
</g>
<!-- Node17 -->
<g id="node17" class="node"><title>Node17</title>
<g id="a_node17"><a xlink:href="../../d4/d37/Kinematics_8hpp.html" target="_top" xlink:title="Core/Kinematics.hpp">
<polygon fill="white" stroke="black" points="364,-180.5 364,-199.5 472,-199.5 472,-180.5 364,-180.5"/>
<text text-anchor="middle" x="418" y="-187.5" font-family="Helvetica,sans-Serif" font-size="10.00">Core/Kinematics.hpp</text>
</a>
</g>
</g>
<!-- Node14&#45;&gt;Node17 -->
<g id="edge25" class="edge"><title>Node14&#45;&gt;Node17</title>
<path fill="none" stroke="midnightblue" d="M762.23,-243.156C690.3,-232.258 560.197,-212.545 482.185,-200.725"/>
<polygon fill="midnightblue" stroke="midnightblue" points="482.414,-197.22 472.002,-199.182 481.365,-204.141 482.414,-197.22"/>
</g>
<!-- Node18 -->
<g id="node18" class="node"><title>Node18</title>
<g id="a_node18"><a xlink:href="../../df/d7d/Event_8hpp.html" target="_top" xlink:title="This class provides a internal container for event&#45;based information. ">
<polygon fill="white" stroke="red" points="408.5,-68.5 408.5,-87.5 493.5,-87.5 493.5,-68.5 408.5,-68.5"/>
<text text-anchor="middle" x="451" y="-75.5" font-family="Helvetica,sans-Serif" font-size="10.00">Core/Event.hpp</text>
</a>
</g>
</g>
<!-- Node14&#45;&gt;Node18 -->
<g id="edge39" class="edge"><title>Node14&#45;&gt;Node18</title>
<path fill="none" stroke="midnightblue" d="M802.088,-242.447C770.632,-220.19 682.178,-159.723 601,-124 567.798,-109.389 528.462,-97.7853 498.403,-90.0224"/>
<polygon fill="midnightblue" stroke="midnightblue" points="499.14,-86.5987 488.587,-87.5382 497.423,-93.3847 499.14,-86.5987"/>
</g>
<!-- Node19 -->
<g id="node19" class="node"><title>Node19</title>
<g id="a_node19"><a xlink:href="../../d8/d6f/Efficiency_8hpp.html" target="_top" xlink:title="Core/Efficiency.hpp">
<polygon fill="white" stroke="black" points="1105.5,-68.5 1105.5,-87.5 1208.5,-87.5 1208.5,-68.5 1105.5,-68.5"/>
<text text-anchor="middle" x="1157" y="-75.5" font-family="Helvetica,sans-Serif" font-size="10.00">Core/Efficiency.hpp</text>
</a>
</g>
</g>
<!-- Node14&#45;&gt;Node19 -->
<g id="edge35" class="edge"><title>Node14&#45;&gt;Node19</title>
<path fill="none" stroke="midnightblue" d="M823.877,-242.391C841.535,-227.45 880.214,-196.717 918,-180 981.093,-152.087 1006.44,-173.081 1069,-144 1096.28,-131.319 1123.49,-109.448 1140.27,-94.6123"/>
<polygon fill="midnightblue" stroke="midnightblue" points="1142.98,-96.8861 1148.05,-87.5818 1138.28,-91.6951 1142.98,-96.8861"/>
</g>
<!-- Node17&#45;&gt;Node3 -->
<g id="edge28" class="edge"><title>Node17&#45;&gt;Node3</title>
<path fill="none" stroke="midnightblue" d="M401.982,-180.47C349.676,-152.617 183.603,-64.1818 120.06,-30.3448"/>
<polygon fill="midnightblue" stroke="midnightblue" points="121.586,-27.192 111.114,-25.581 118.296,-33.3705 121.586,-27.192"/>
</g>
<!-- Node17&#45;&gt;Node5 -->
<g id="edge33" class="edge"><title>Node17&#45;&gt;Node5</title>
<path fill="none" stroke="midnightblue" d="M437.014,-180.444C456.588,-171.636 487.308,-157.812 509.729,-147.722"/>
<polygon fill="midnightblue" stroke="midnightblue" points="511.392,-150.812 519.075,-143.516 508.519,-144.428 511.392,-150.812"/>
</g>
<!-- Node17&#45;&gt;Node7 -->
<g id="edge26" class="edge"><title>Node17&#45;&gt;Node7</title>
<path fill="none" stroke="midnightblue" d="M402.217,-180.467C389.797,-172.769 373.395,-160.179 366,-144 348.779,-106.322 374.563,-58.8404 391.389,-33.9699"/>
<polygon fill="midnightblue" stroke="midnightblue" points="394.381,-35.8002 397.291,-25.6127 388.663,-31.7621 394.381,-35.8002"/>
</g>
<!-- Node17&#45;&gt;Node9 -->
<g id="edge27" class="edge"><title>Node17&#45;&gt;Node9</title>
<path fill="none" stroke="midnightblue" d="M412.693,-180.307C400.322,-158.806 372.555,-102.386 399,-68 418.588,-42.5295 511.375,-27.1185 560.43,-20.6167"/>
<polygon fill="midnightblue" stroke="midnightblue" points="561.002,-24.0721 570.475,-19.3289 560.111,-17.1289 561.002,-24.0721"/>
</g>
<!-- Node17&#45;&gt;Node12 -->
<g id="edge34" class="edge"><title>Node17&#45;&gt;Node12</title>
<path fill="none" stroke="midnightblue" d="M424.266,-180.219C434.038,-166.939 453.98,-141.446 475,-124 490.048,-111.511 508.964,-100.297 524.16,-92.1881"/>
<polygon fill="midnightblue" stroke="midnightblue" points="525.814,-95.2733 533.073,-87.5563 522.586,-89.0619 525.814,-95.2733"/>
</g>
<!-- Node17&#45;&gt;Node18 -->
<g id="edge29" class="edge"><title>Node17&#45;&gt;Node18</title>
<path fill="none" stroke="midnightblue" d="M420.589,-180.368C425.939,-162.537 438.311,-121.295 445.518,-97.2717"/>
<polygon fill="midnightblue" stroke="midnightblue" points="448.901,-98.1754 448.423,-87.5914 442.197,-96.1639 448.901,-98.1754"/>
</g>
<!-- Node18&#45;&gt;Node6 -->
<g id="edge32" class="edge"><title>Node18&#45;&gt;Node6</title>
<path fill="none" stroke="midnightblue" d="M485.985,-68.4672C532.08,-57.2243 612.809,-37.5343 659.925,-26.0426"/>
<polygon fill="midnightblue" stroke="midnightblue" points="660.841,-29.4219 669.727,-23.652 659.182,-22.6213 660.841,-29.4219"/>
</g>
<!-- Node18&#45;&gt;Node7 -->
<g id="edge30" class="edge"><title>Node18&#45;&gt;Node7</title>
<path fill="none" stroke="midnightblue" d="M444.266,-68.4035C437.216,-59.4034 425.965,-45.0408 417.146,-33.7824"/>
<polygon fill="midnightblue" stroke="midnightblue" points="419.643,-31.2946 410.721,-25.5806 414.133,-35.6112 419.643,-31.2946"/>
</g>
<!-- Node18&#45;&gt;Node9 -->
<g id="edge31" class="edge"><title>Node18&#45;&gt;Node9</title>
<path fill="none" stroke="midnightblue" d="M471.059,-68.4035C494.762,-58.245 534.406,-41.2547 561.583,-29.6074"/>
<polygon fill="midnightblue" stroke="midnightblue" points="563.166,-32.7369 570.979,-25.5806 560.408,-26.3028 563.166,-32.7369"/>
</g>
<!-- Node19&#45;&gt;Node6 -->
<g id="edge36" class="edge"><title>Node19&#45;&gt;Node6</title>
<path fill="none" stroke="midnightblue" d="M1105.13,-70.2339C1011.47,-58.0177 816.276,-32.5577 734.408,-21.8794"/>
<polygon fill="midnightblue" stroke="midnightblue" points="734.455,-18.3559 724.086,-20.533 733.549,-25.2971 734.455,-18.3559"/>
</g>
<!-- Node19&#45;&gt;Node7 -->
<g id="edge37" class="edge"><title>Node19&#45;&gt;Node7</title>
<path fill="none" stroke="midnightblue" d="M1105.15,-73.4339C1001.66,-66.2382 762.092,-49.1962 561,-32 517.739,-28.3005 467.832,-23.4288 436.112,-20.2565"/>
<polygon fill="midnightblue" stroke="midnightblue" points="436.387,-16.7667 426.088,-19.25 435.688,-23.7316 436.387,-16.7667"/>
</g>
<!-- Node19&#45;&gt;Node11 -->
<g id="edge38" class="edge"><title>Node19&#45;&gt;Node11</title>
<path fill="none" stroke="midnightblue" d="M1162.73,-68.4035C1168.67,-59.4925 1178.12,-45.3247 1185.59,-34.1177"/>
<polygon fill="midnightblue" stroke="midnightblue" points="1188.64,-35.8426 1191.28,-25.5806 1182.82,-31.9596 1188.64,-35.8426"/>
</g>
<!-- Node20&#45;&gt;Node6 -->
<g id="edge41" class="edge"><title>Node20&#45;&gt;Node6</title>
<path fill="none" stroke="midnightblue" d="M1006.97,-124.303C1015.52,-110.672 1028.78,-84.1645 1015,-68 996.927,-46.798 814.256,-27.6975 734.227,-20.2769"/>
<polygon fill="midnightblue" stroke="midnightblue" points="734.37,-16.7754 724.092,-19.3488 733.732,-23.7462 734.37,-16.7754"/>
</g>
<!-- Node20&#45;&gt;Node7 -->
<g id="edge44" class="edge"><title>Node20&#45;&gt;Node7</title>
<path fill="none" stroke="midnightblue" d="M996.39,-124.395C988.09,-109.875 969.128,-80.8369 944,-68 867.872,-29.1093 646.105,-40.0652 561,-32 517.774,-27.9036 467.859,-23.1267 436.127,-20.084"/>
<polygon fill="midnightblue" stroke="midnightblue" points="436.388,-16.593 426.099,-19.1222 435.719,-23.561 436.388,-16.593"/>
</g>
<!-- Node20&#45;&gt;Node8 -->
<g id="edge46" class="edge"><title>Node20&#45;&gt;Node8</title>
<path fill="none" stroke="midnightblue" d="M965.19,-124.444C926.012,-115.083 863.123,-100.056 820.485,-89.868"/>
<polygon fill="midnightblue" stroke="midnightblue" points="821.182,-86.4363 810.643,-87.5164 819.556,-93.2446 821.182,-86.4363"/>
</g>
<!-- Node20&#45;&gt;Node9 -->
<g id="edge42" class="edge"><title>Node20&#45;&gt;Node9</title>
<path fill="none" stroke="midnightblue" d="M1000.55,-124.176C999.296,-109.866 994.603,-81.8111 977,-68 921.395,-24.3738 730.748,-43.418 661,-32 648.098,-29.888 633.981,-26.9791 621.825,-24.2848"/>
<polygon fill="midnightblue" stroke="midnightblue" points="622.253,-20.7933 611.727,-21.9977 620.707,-27.6203 622.253,-20.7933"/>
</g>
<!-- Node20&#45;&gt;Node11 -->
<g id="edge47" class="edge"><title>Node20&#45;&gt;Node11</title>
<path fill="none" stroke="midnightblue" d="M1061.19,-128.792C1118.13,-123.41 1197.67,-111.776 1217,-88 1229.44,-72.6956 1219.67,-50.1043 1209.91,-34.5355"/>
<polygon fill="midnightblue" stroke="midnightblue" points="1212.55,-32.1864 1204.04,-25.8772 1206.76,-36.1171 1212.55,-32.1864"/>
</g>
<!-- Node20&#45;&gt;Node13 -->
<g id="edge45" class="edge"><title>Node20&#45;&gt;Node13</title>
<path fill="none" stroke="midnightblue" d="M1016.64,-124.448C1036.83,-112.277 1067.73,-89.0907 1053,-68 1039.97,-49.3456 978.496,-32.1033 941.805,-23.2403"/>
<polygon fill="midnightblue" stroke="midnightblue" points="942.27,-19.7542 931.734,-20.8672 940.665,-26.5676 942.27,-19.7542"/>
</g>
<!-- Node21 -->
<g id="node21" class="node"><title>Node21</title>
<polygon fill="white" stroke="#bfbfbf" points="883,-68.5 883,-87.5 935,-87.5 935,-68.5 883,-68.5"/>
<text text-anchor="middle" x="909" y="-75.5" font-family="Helvetica,sans-Serif" font-size="10.00">memory</text>
</g>
<!-- Node20&#45;&gt;Node21 -->
<g id="edge43" class="edge"><title>Node20&#45;&gt;Node21</title>
<path fill="none" stroke="midnightblue" d="M986.219,-124.324C971.733,-115.822 949.427,-102.729 932.507,-92.7975"/>
<polygon fill="midnightblue" stroke="midnightblue" points="934.141,-89.6981 923.745,-87.6545 930.597,-95.735 934.141,-89.6981"/>
</g>
<!-- Node22&#45;&gt;Node7 -->
<g id="edge50" class="edge"><title>Node22&#45;&gt;Node7</title>
<path fill="none" stroke="midnightblue" d="M753.83,-124.414C721.007,-111.278 655.705,-85.8394 599,-68 542.401,-50.1942 475.233,-33.602 436.325,-24.4271"/>
<polygon fill="midnightblue" stroke="midnightblue" points="436.668,-20.9127 426.133,-22.0411 435.072,-27.7284 436.668,-20.9127"/>
</g>
<!-- Node22&#45;&gt;Node8 -->
<g id="edge54" class="edge"><title>Node22&#45;&gt;Node8</title>
<path fill="none" stroke="midnightblue" d="M775,-124.083C775,-117.006 775,-106.861 775,-97.9865"/>
<polygon fill="midnightblue" stroke="midnightblue" points="778.5,-97.751 775,-87.7511 771.5,-97.7511 778.5,-97.751"/>
</g>
<!-- Node22&#45;&gt;Node9 -->
<g id="edge52" class="edge"><title>Node22&#45;&gt;Node9</title>
<path fill="none" stroke="midnightblue" d="M761.47,-124.47C730.101,-104.694 652.146,-55.5484 613.481,-31.1728"/>
<polygon fill="midnightblue" stroke="midnightblue" points="614.876,-27.9146 604.55,-25.5423 611.142,-33.8361 614.876,-27.9146"/>
</g>
<!-- Node22&#45;&gt;Node13 -->
<g id="edge53" class="edge"><title>Node22&#45;&gt;Node13</title>
<path fill="none" stroke="midnightblue" d="M787.433,-124.396C799.962,-115.594 819.721,-101.355 836,-88 858.183,-69.8025 882.432,-47.283 897.907,-32.5494"/>
<polygon fill="midnightblue" stroke="midnightblue" points="900.342,-35.0634 905.143,-25.6184 895.5,-30.0083 900.342,-35.0634"/>
</g>
<!-- Node22&#45;&gt;Node21 -->
<g id="edge51" class="edge"><title>Node22&#45;&gt;Node21</title>
<path fill="none" stroke="midnightblue" d="M796.233,-124.444C818.384,-115.517 853.319,-101.439 878.436,-91.3168"/>
<polygon fill="midnightblue" stroke="midnightblue" points="879.9,-94.5006 887.867,-87.5164 877.283,-88.0079 879.9,-94.5006"/>
</g>
<!-- Node23&#45;&gt;Node7 -->
<g id="edge56" class="edge"><title>Node23&#45;&gt;Node7</title>
<path fill="none" stroke="midnightblue" d="M350.964,-246.443C308.519,-240.77 254.252,-228.12 214,-200 189.343,-182.774 184.834,-172.752 176,-144 166.079,-111.712 154.883,-94.3628 176,-68 182.158,-60.3127 310.259,-34.9249 371.689,-23.1266"/>
<polygon fill="midnightblue" stroke="midnightblue" points="372.48,-26.5387 381.644,-21.2215 371.164,-19.6635 372.48,-26.5387"/>
</g>
<!-- Node23&#45;&gt;Node17 -->
<g id="edge57" class="edge"><title>Node23&#45;&gt;Node17</title>
<path fill="none" stroke="midnightblue" d="M418,-236.781C418,-228.781 418,-218.689 418,-210.017"/>
<polygon fill="midnightblue" stroke="midnightblue" points="421.5,-209.73 418,-199.731 414.5,-209.731 421.5,-209.73"/>
</g>
<!-- Node24&#45;&gt;Node3 -->
<g id="edge61" class="edge"><title>Node24&#45;&gt;Node3</title>
<path fill="none" stroke="midnightblue" d="M978.798,-379.783C771.164,-374.414 38,-348.683 38,-253 38,-253 38,-253 38,-133 38,-94.1483 64.0743,-54.7875 80.9524,-33.3787"/>
<polygon fill="midnightblue" stroke="midnightblue" points="83.6921,-35.5574 87.3127,-25.6004 78.2731,-31.1263 83.6921,-35.5574"/>
</g>
<!-- Node24&#45;&gt;Node10 -->
<g id="edge59" class="edge"><title>Node24&#45;&gt;Node10</title>
<path fill="none" stroke="midnightblue" d="M1087.32,-379.637C1168.74,-374.383 1313,-351.214 1313,-253 1313,-253 1313,-253 1313,-133 1313,-89.225 1277.8,-88.2591 1239,-68 1181.68,-38.0759 1106.2,-25.243 1064.03,-20.11"/>
<polygon fill="midnightblue" stroke="midnightblue" points="1064.39,-16.6288 1054.06,-18.9652 1063.6,-23.5831 1064.39,-16.6288"/>
</g>
<!-- Node24&#45;&gt;Node11 -->
<g id="edge62" class="edge"><title>Node24&#45;&gt;Node11</title>
<path fill="none" stroke="midnightblue" d="M1087.24,-376.617C1153.4,-370.428 1260.56,-357.428 1294,-336 1331.68,-311.856 1351,-297.75 1351,-253 1351,-253 1351,-253 1351,-133 1351,-76.7126 1284.55,-44.3204 1238.95,-28.7183"/>
<polygon fill="midnightblue" stroke="midnightblue" points="1239.88,-25.3387 1229.28,-25.5523 1237.7,-31.991 1239.88,-25.3387"/>
</g>
<!-- Node24&#45;&gt;Node16 -->
<g id="edge60" class="edge"><title>Node24&#45;&gt;Node16</title>
<path fill="none" stroke="midnightblue" d="M1037.18,-372.269C1041.22,-363.369 1047.15,-349.055 1050,-336 1059.71,-291.564 1060.7,-237.818 1060.44,-209.902"/>
<polygon fill="midnightblue" stroke="midnightblue" points="1063.94,-209.563 1060.27,-199.622 1056.94,-209.677 1063.94,-209.563"/>
</g>
<!-- Node25 -->
<g id="node25" class="node"><title>Node25</title>
<g id="a_node25"><a xlink:href="../../dc/dfd/AmpIntensity_8hpp.html" target="_top" xlink:title="Core/AmpIntensity.hpp">
<polygon fill="white" stroke="red" points="924.5,-310.5 924.5,-329.5 1041.5,-329.5 1041.5,-310.5 924.5,-310.5"/>
<text text-anchor="middle" x="983" y="-317.5" font-family="Helvetica,sans-Serif" font-size="10.00">Core/AmpIntensity.hpp</text>
</a>
</g>
</g>
<!-- Node24&#45;&gt;Node25 -->
<g id="edge63" class="edge"><title>Node24&#45;&gt;Node25</title>
<path fill="none" stroke="midnightblue" d="M1025.84,-372.403C1018.26,-363.314 1006.13,-348.756 996.707,-337.449"/>
<polygon fill="midnightblue" stroke="midnightblue" points="999.241,-335.022 990.15,-329.581 993.864,-339.503 999.241,-335.022"/>
</g>
<!-- Node25&#45;&gt;Node7 -->
<g id="edge64" class="edge"><title>Node25&#45;&gt;Node7</title>
<path fill="none" stroke="midnightblue" d="M933.518,-310.487C786.901,-285.152 364.357,-211.297 355,-200 317.524,-154.756 339.719,-122.36 362,-68 367.506,-54.5676 377.833,-41.9515 386.869,-32.6277"/>
<polygon fill="midnightblue" stroke="midnightblue" points="389.325,-35.1215 394.021,-25.6244 384.427,-30.12 389.325,-35.1215"/>
</g>
<!-- Node25&#45;&gt;Node14 -->
<g id="edge69" class="edge"><title>Node25&#45;&gt;Node14</title>
<path fill="none" stroke="midnightblue" d="M960.906,-310.372C931.346,-298.827 878.764,-278.293 845.181,-265.177"/>
<polygon fill="midnightblue" stroke="midnightblue" points="846.42,-261.903 835.831,-261.526 843.873,-268.424 846.42,-261.903"/>
</g>
<!-- Node25&#45;&gt;Node16 -->
<g id="edge66" class="edge"><title>Node25&#45;&gt;Node16</title>
<path fill="none" stroke="midnightblue" d="M990.453,-310.35C998.739,-300.497 1012.24,-283.719 1022,-268 1034,-248.676 1045.19,-225.035 1052.28,-209.086"/>
<polygon fill="midnightblue" stroke="midnightblue" points="1055.52,-210.405 1056.31,-199.839 1049.11,-207.607 1055.52,-210.405"/>
</g>
<!-- Node25&#45;&gt;Node19 -->
<g id="edge70" class="edge"><title>Node25&#45;&gt;Node19</title>
<path fill="none" stroke="midnightblue" d="M995.271,-310.493C1008.43,-301.023 1029.53,-284.824 1045,-268 1095.07,-213.556 1133.56,-133.133 1149.27,-97.3389"/>
<polygon fill="midnightblue" stroke="midnightblue" points="1152.67,-98.3101 1153.41,-87.7413 1146.24,-95.5409 1152.67,-98.3101"/>
</g>
<!-- Node25&#45;&gt;Node20 -->
<g id="edge67" class="edge"><title>Node25&#45;&gt;Node20</title>
<path fill="none" stroke="midnightblue" d="M983.868,-310.125C986.642,-281.769 995.333,-192.93 999.16,-153.811"/>
<polygon fill="midnightblue" stroke="midnightblue" points="1002.65,-154.079 1000.14,-143.786 995.683,-153.397 1002.65,-154.079"/>
</g>
<!-- Node25&#45;&gt;Node21 -->
<g id="edge65" class="edge"><title>Node25&#45;&gt;Node21</title>
<path fill="none" stroke="midnightblue" d="M980.366,-310.458C969.713,-275.907 929.669,-146.036 914.696,-97.4747"/>
<polygon fill="midnightblue" stroke="midnightblue" points="917.971,-96.215 911.679,-87.6902 911.281,-98.2775 917.971,-96.215"/>
</g>
<!-- Node25&#45;&gt;Node22 -->
<g id="edge68" class="edge"><title>Node25&#45;&gt;Node22</title>
<path fill="none" stroke="midnightblue" d="M974.719,-310.476C952.866,-288.138 891.502,-226.419 836,-180 823.129,-169.235 807.948,-158.031 795.95,-149.495"/>
<polygon fill="midnightblue" stroke="midnightblue" points="797.679,-146.432 787.487,-143.539 793.65,-152.157 797.679,-146.432"/>
</g>
</g>
</svg>
