<?xml version="1.0" encoding="UTF-8" standalone="no"?>
<!DOCTYPE svg PUBLIC "-//W3C//DTD SVG 1.1//EN"
 "http://www.w3.org/Graphics/SVG/1.1/DTD/svg11.dtd">
<!-- Generated by graphviz version 2.36.0 (20140111.2315)
 -->
<!-- Title: /home/travis/build/ComPWA/ComPWA/Physics/HelicityFormalism/RelativisticBreitWigner.cpp Pages: 1 -->
<svg width="1502pt" height="558pt"
 viewBox="0.00 0.00 1502.00 558.00" xmlns="http://www.w3.org/2000/svg" xmlns:xlink="http://www.w3.org/1999/xlink">
<g id="graph0" class="graph" transform="scale(1 1) rotate(0) translate(4 554)">
<title>/home/travis/build/ComPWA/ComPWA/Physics/HelicityFormalism/RelativisticBreitWigner.cpp</title>
<polygon fill="white" stroke="none" points="-4,4 -4,-554 1498,-554 1498,4 -4,4"/>
<!-- Node1 -->
<g id="node1" class="node"><title>Node1</title>
<polygon fill="#bfbfbf" stroke="black" points="285,-497 285,-549 435,-549 435,-497 285,-497"/>
<text text-anchor="start" x="293" y="-537" font-family="Helvetica,sans-Serif" font-size="10.00">/home/travis/build</text>
<text text-anchor="start" x="293" y="-526" font-family="Helvetica,sans-Serif" font-size="10.00">/ComPWA/ComPWA/Physics</text>
<text text-anchor="start" x="293" y="-515" font-family="Helvetica,sans-Serif" font-size="10.00">/HelicityFormalism/Relativistic</text>
<text text-anchor="middle" x="360" y="-504" font-family="Helvetica,sans-Serif" font-size="10.00">BreitWigner.cpp</text>
</g>
<!-- Node2 -->
<g id="node2" class="node"><title>Node2</title>
<polygon fill="white" stroke="#bfbfbf" points="91,-62.5 91,-81.5 135,-81.5 135,-62.5 91,-62.5"/>
<text text-anchor="middle" x="113" y="-69.5" font-family="Helvetica,sans-Serif" font-size="10.00">cmath</text>
</g>
<!-- Node1&#45;&gt;Node2 -->
<g id="edge1" class="edge"><title>Node1&#45;&gt;Node2</title>
<path fill="none" stroke="midnightblue" d="M284.912,-519.952C189.763,-512.895 38,-484.751 38,-377 38,-377 38,-377 38,-189 38,-147.351 72.5176,-108.824 94.7189,-88.3523"/>
<polygon fill="midnightblue" stroke="midnightblue" points="97.1053,-90.914 102.254,-81.6545 92.4548,-85.682 97.1053,-90.914"/>
</g>
<!-- Node3 -->
<g id="node3" class="node"><title>Node3</title>
<polygon fill="white" stroke="#bfbfbf" points="16.5,-62.5 16.5,-81.5 67.5,-81.5 67.5,-62.5 16.5,-62.5"/>
<text text-anchor="middle" x="42" y="-69.5" font-family="Helvetica,sans-Serif" font-size="10.00">numeric</text>
</g>
<!-- Node1&#45;&gt;Node3 -->
<g id="edge2" class="edge"><title>Node1&#45;&gt;Node3</title>
<path fill="none" stroke="midnightblue" d="M284.945,-513.767C206.265,-503.949 89.0153,-485.59 52,-460 16.193,-435.246 0,-420.531 0,-377 0,-377 0,-377 0,-189 0,-152.224 18.8941,-112.597 31.3371,-90.4871"/>
<polygon fill="midnightblue" stroke="midnightblue" points="34.4867,-92.0345 36.5092,-81.6345 28.4426,-88.5032 34.4867,-92.0345"/>
</g>
<!-- Node4 -->
<g id="node4" class="node"><title>Node4</title>
<polygon fill="white" stroke="#bfbfbf" points="284.5,-434.5 284.5,-453.5 331.5,-453.5 331.5,-434.5 284.5,-434.5"/>
<text text-anchor="middle" x="308" y="-441.5" font-family="Helvetica,sans-Serif" font-size="10.00">iterator</text>
</g>
<!-- Node1&#45;&gt;Node4 -->
<g id="edge3" class="edge"><title>Node1&#45;&gt;Node4</title>
<path fill="none" stroke="midnightblue" d="M342.973,-496.787C335.263,-485.37 326.352,-472.176 319.455,-461.962"/>
<polygon fill="midnightblue" stroke="midnightblue" points="322.276,-459.886 313.779,-453.558 316.475,-463.804 322.276,-459.886"/>
</g>
<!-- Node5 -->
<g id="node5" class="node"><title>Node5</title>
<polygon fill="white" stroke="#bfbfbf" points="480,-62.5 480,-81.5 524,-81.5 524,-62.5 480,-62.5"/>
<text text-anchor="middle" x="502" y="-69.5" font-family="Helvetica,sans-Serif" font-size="10.00">vector</text>
</g>
<!-- Node1&#45;&gt;Node5 -->
<g id="edge4" class="edge"><title>Node1&#45;&gt;Node5</title>
<path fill="none" stroke="midnightblue" d="M360,-496.853C360,-467.936 360,-419.04 360,-377 360,-377 360,-377 360,-189 360,-132.417 428.459,-98.4853 470.309,-83.0285"/>
<polygon fill="midnightblue" stroke="midnightblue" points="471.553,-86.3011 479.812,-79.6652 469.218,-79.7021 471.553,-86.3011"/>
</g>
<!-- Node6 -->
<g id="node6" class="node"><title>Node6</title>
<polygon fill="white" stroke="#bfbfbf" points="1346.5,-57 1346.5,-87 1447.5,-87 1447.5,-57 1346.5,-57"/>
<text text-anchor="start" x="1354.5" y="-75" font-family="Helvetica,sans-Serif" font-size="10.00">boost/property_tree</text>
<text text-anchor="middle" x="1397" y="-64" font-family="Helvetica,sans-Serif" font-size="10.00">/ptree.hpp</text>
</g>
<!-- Node1&#45;&gt;Node6 -->
<g id="edge5" class="edge"><title>Node1&#45;&gt;Node6</title>
<path fill="none" stroke="midnightblue" d="M435.283,-520.313C688.557,-513.652 1494,-484.054 1494,-377 1494,-377 1494,-377 1494,-189 1494,-147.604 1457.2,-113.193 1428.93,-92.8681"/>
<polygon fill="midnightblue" stroke="midnightblue" points="1430.7,-89.8339 1420.48,-87.0205 1426.71,-95.5897 1430.7,-89.8339"/>
</g>
<!-- Node7 -->
<g id="node7" class="node"><title>Node7</title>
<g id="a_node7"><a xlink:href="../../d0/dab/HelicityKinematics_8hpp.html" target="_top" xlink:title="Physics/HelicityFormalism\l/HelicityKinematics.hpp">
<polygon fill="white" stroke="black" points="388,-293 388,-323 522,-323 522,-293 388,-293"/>
<text text-anchor="start" x="396" y="-311" font-family="Helvetica,sans-Serif" font-size="10.00">Physics/HelicityFormalism</text>
<text text-anchor="middle" x="455" y="-300" font-family="Helvetica,sans-Serif" font-size="10.00">/HelicityKinematics.hpp</text>
</a>
</g>
</g>
<!-- Node1&#45;&gt;Node7 -->
<g id="edge6" class="edge"><title>Node1&#45;&gt;Node7</title>
<path fill="none" stroke="midnightblue" d="M371.271,-496.73C389.848,-455.078 426.627,-372.616 444.61,-332.296"/>
<polygon fill="midnightblue" stroke="midnightblue" points="447.877,-333.562 448.754,-323.004 441.484,-330.711 447.877,-333.562"/>
</g>
<!-- Node19 -->
<g id="node19" class="node"><title>Node19</title>
<g id="a_node19"><a xlink:href="../../d6/da5/RelativisticBreitWigner_8hpp.html" target="_top" xlink:title="Physics/HelicityFormalism\l/RelativisticBreitWigner.hpp">
<polygon fill="white" stroke="black" points="868,-429 868,-459 1006,-459 1006,-429 868,-429"/>
<text text-anchor="start" x="876" y="-447" font-family="Helvetica,sans-Serif" font-size="10.00">Physics/HelicityFormalism</text>
<text text-anchor="middle" x="937" y="-436" font-family="Helvetica,sans-Serif" font-size="10.00">/RelativisticBreitWigner.hpp</text>
</a>
</g>
</g>
<!-- Node1&#45;&gt;Node19 -->
<g id="edge40" class="edge"><title>Node1&#45;&gt;Node19</title>
<path fill="none" stroke="midnightblue" d="M435.137,-511.973C544.346,-497.399 746.036,-470.484 857.598,-455.596"/>
<polygon fill="midnightblue" stroke="midnightblue" points="858.328,-459.03 867.777,-454.238 857.402,-452.091 858.328,-459.03"/>
</g>
<!-- Node7&#45;&gt;Node5 -->
<g id="edge7" class="edge"><title>Node7&#45;&gt;Node5</title>
<path fill="none" stroke="midnightblue" d="M440.508,-292.86C431.85,-283.359 421.657,-270.044 417,-256 414.202,-247.563 415.659,-244.787 417,-236 424.868,-184.445 425.223,-168.753 452,-124 460.138,-110.399 472.615,-97.6646 483.07,-88.3229"/>
<polygon fill="midnightblue" stroke="midnightblue" points="485.588,-90.7743 490.898,-81.6066 481.03,-85.4615 485.588,-90.7743"/>
</g>
<!-- Node8 -->
<g id="node8" class="node"><title>Node8</title>
<g id="a_node8"><a xlink:href="../../d4/d37/Kinematics_8hpp.html" target="_top" xlink:title="Core/Kinematics.hpp">
<polygon fill="white" stroke="black" points="426,-236.5 426,-255.5 534,-255.5 534,-236.5 426,-236.5"/>
<text text-anchor="middle" x="480" y="-243.5" font-family="Helvetica,sans-Serif" font-size="10.00">Core/Kinematics.hpp</text>
</a>
</g>
</g>
<!-- Node7&#45;&gt;Node8 -->
<g id="edge8" class="edge"><title>Node7&#45;&gt;Node8</title>
<path fill="none" stroke="midnightblue" d="M460.925,-292.781C464.37,-284.512 468.748,-274.006 472.44,-265.145"/>
<polygon fill="midnightblue" stroke="midnightblue" points="475.747,-266.307 476.362,-255.731 469.285,-263.615 475.747,-266.307"/>
</g>
<!-- Node17 -->
<g id="node17" class="node"><title>Node17</title>
<g id="a_node17"><a xlink:href="../../d7/d36/Vector4_8h.html" target="_top" xlink:title="Vector4 template class definition file. ">
<polygon fill="white" stroke="black" points="66.5,-180.5 66.5,-199.5 189.5,-199.5 189.5,-180.5 66.5,-180.5"/>
<text text-anchor="middle" x="128" y="-187.5" font-family="Helvetica,sans-Serif" font-size="10.00">Physics/qft++/Vector4.h</text>
</a>
</g>
</g>
<!-- Node7&#45;&gt;Node17 -->
<g id="edge34" class="edge"><title>Node7&#45;&gt;Node17</title>
<path fill="none" stroke="midnightblue" d="M415.23,-292.892C350.254,-269.842 222.493,-224.52 161.694,-202.953"/>
<polygon fill="midnightblue" stroke="midnightblue" points="162.779,-199.624 152.185,-199.579 160.439,-206.221 162.779,-199.624"/>
</g>
<!-- Node8&#45;&gt;Node5 -->
<g id="edge9" class="edge"><title>Node8&#45;&gt;Node5</title>
<path fill="none" stroke="midnightblue" d="M475.626,-236.223C466.12,-215.902 445.548,-164.283 460,-124 464.902,-110.336 475.223,-97.7172 484.406,-88.45"/>
<polygon fill="midnightblue" stroke="midnightblue" points="486.875,-90.9323 491.708,-81.5044 482.05,-85.8601 486.875,-90.9323"/>
</g>
<!-- Node9 -->
<g id="node9" class="node"><title>Node9</title>
<polygon fill="white" stroke="#bfbfbf" points="859.5,-0.5 859.5,-19.5 900.5,-19.5 900.5,-0.5 859.5,-0.5"/>
<text text-anchor="middle" x="880" y="-7.5" font-family="Helvetica,sans-Serif" font-size="10.00">string</text>
</g>
<!-- Node8&#45;&gt;Node9 -->
<g id="edge10" class="edge"><title>Node8&#45;&gt;Node9</title>
<path fill="none" stroke="midnightblue" d="M425.742,-242.773C361.589,-238.868 260.528,-228.285 237,-200 231.316,-193.166 233.582,-188.205 237,-180 267.092,-107.763 291.002,-88.9073 362,-56 449.427,-15.4783 751.304,-11.2466 849.134,-10.9584"/>
<polygon fill="midnightblue" stroke="midnightblue" points="849.26,-14.4583 859.254,-10.941 849.248,-7.45834 849.26,-14.4583"/>
</g>
<!-- Node10 -->
<g id="node10" class="node"><title>Node10</title>
<polygon fill="white" stroke="#bfbfbf" points="673.5,-62.5 673.5,-81.5 726.5,-81.5 726.5,-62.5 673.5,-62.5"/>
<text text-anchor="middle" x="700" y="-69.5" font-family="Helvetica,sans-Serif" font-size="10.00">complex</text>
</g>
<!-- Node8&#45;&gt;Node10 -->
<g id="edge11" class="edge"><title>Node8&#45;&gt;Node10</title>
<path fill="none" stroke="midnightblue" d="M490.91,-236.47C526.024,-209.017 636.415,-122.712 681.022,-87.8374"/>
<polygon fill="midnightblue" stroke="midnightblue" points="683.302,-90.4976 689.024,-81.581 678.99,-84.9829 683.302,-90.4976"/>
</g>
<!-- Node11 -->
<g id="node11" class="node"><title>Node11</title>
<g id="a_node11"><a xlink:href="../../df/d7d/Event_8hpp.html" target="_top" xlink:title="This class provides a internal container for event&#45;based information. ">
<polygon fill="white" stroke="red" points="246.5,-180.5 246.5,-199.5 331.5,-199.5 331.5,-180.5 246.5,-180.5"/>
<text text-anchor="middle" x="289" y="-187.5" font-family="Helvetica,sans-Serif" font-size="10.00">Core/Event.hpp</text>
</a>
</g>
</g>
<!-- Node8&#45;&gt;Node11 -->
<g id="edge12" class="edge"><title>Node8&#45;&gt;Node11</title>
<path fill="none" stroke="midnightblue" d="M449.735,-236.444C417.045,-227.201 364.818,-212.436 328.817,-202.257"/>
<polygon fill="midnightblue" stroke="midnightblue" points="329.698,-198.869 319.123,-199.516 327.794,-205.605 329.698,-198.869"/>
</g>
<!-- Node13 -->
<g id="node13" class="node"><title>Node13</title>
<g id="a_node13"><a xlink:href="../../d8/d35/PhysConst_8hpp.html" target="_top" xlink:title="PhysConst provides particle information to the framework. ">
<polygon fill="white" stroke="red" points="850,-180.5 850,-199.5 958,-199.5 958,-180.5 850,-180.5"/>
<text text-anchor="middle" x="904" y="-187.5" font-family="Helvetica,sans-Serif" font-size="10.00">Core/PhysConst.hpp</text>
</a>
</g>
</g>
<!-- Node8&#45;&gt;Node13 -->
<g id="edge19" class="edge"><title>Node8&#45;&gt;Node13</title>
<path fill="none" stroke="midnightblue" d="M534.131,-238.106C612.248,-228.157 756.34,-209.806 839.747,-199.183"/>
<polygon fill="midnightblue" stroke="midnightblue" points="840.38,-202.631 849.857,-197.896 839.495,-195.687 840.38,-202.631"/>
</g>
<!-- Node16 -->
<g id="node16" class="node"><title>Node16</title>
<g id="a_node16"><a xlink:href="../../d9/dfb/Spin_8hpp.html" target="_top" xlink:title="Core/Spin.hpp">
<polygon fill="white" stroke="red" points="766.5,-124.5 766.5,-143.5 845.5,-143.5 845.5,-124.5 766.5,-124.5"/>
<text text-anchor="middle" x="806" y="-131.5" font-family="Helvetica,sans-Serif" font-size="10.00">Core/Spin.hpp</text>
</a>
</g>
</g>
<!-- Node8&#45;&gt;Node16 -->
<g id="edge33" class="edge"><title>Node8&#45;&gt;Node16</title>
<path fill="none" stroke="midnightblue" d="M505.309,-236.46C563.081,-216.966 704.765,-169.159 770.914,-146.839"/>
<polygon fill="midnightblue" stroke="midnightblue" points="772.126,-150.124 780.482,-143.61 769.888,-143.491 772.126,-150.124"/>
</g>
<!-- Node11&#45;&gt;Node5 -->
<g id="edge13" class="edge"><title>Node11&#45;&gt;Node5</title>
<path fill="none" stroke="midnightblue" d="M294.521,-180.078C303.589,-166.137 322.952,-139.214 346,-124 384.517,-98.5757 436.743,-84.9075 469.912,-78.2969"/>
<polygon fill="midnightblue" stroke="midnightblue" points="470.795,-81.6919 479.969,-76.3926 469.493,-74.8141 470.795,-81.6919"/>
</g>
<!-- Node11&#45;&gt;Node9 -->
<g id="edge14" class="edge"><title>Node11&#45;&gt;Node9</title>
<path fill="none" stroke="midnightblue" d="M290.924,-180.282C294.353,-166.622 302.735,-140.075 319,-124 371.638,-71.9769 399.578,-75.3921 471,-56 608.421,-18.6881 779.814,-12.1987 848.954,-11.154"/>
<polygon fill="midnightblue" stroke="midnightblue" points="849.196,-14.6514 859.152,-11.0292 849.11,-7.65193 849.196,-14.6514"/>
</g>
<!-- Node12 -->
<g id="node12" class="node"><title>Node12</title>
<g id="a_node12"><a xlink:href="../../d3/d65/Particle_8hpp.html" target="_top" xlink:title="This class provides a internal container for information of a particle. ">
<polygon fill="white" stroke="red" points="104,-124.5 104,-143.5 196,-143.5 196,-124.5 104,-124.5"/>
<text text-anchor="middle" x="150" y="-131.5" font-family="Helvetica,sans-Serif" font-size="10.00">Core/Particle.hpp</text>
</a>
</g>
</g>
<!-- Node11&#45;&gt;Node12 -->
<g id="edge15" class="edge"><title>Node11&#45;&gt;Node12</title>
<path fill="none" stroke="midnightblue" d="M266.975,-180.444C243.896,-171.478 207.438,-157.314 181.359,-147.183"/>
<polygon fill="midnightblue" stroke="midnightblue" points="182.511,-143.875 171.922,-143.516 179.976,-150.4 182.511,-143.875"/>
</g>
<!-- Node12&#45;&gt;Node2 -->
<g id="edge18" class="edge"><title>Node12&#45;&gt;Node2</title>
<path fill="none" stroke="midnightblue" d="M144.699,-124.403C139.204,-115.493 130.467,-101.325 123.556,-90.1177"/>
<polygon fill="midnightblue" stroke="midnightblue" points="126.519,-88.2552 118.291,-81.5806 120.561,-91.9294 126.519,-88.2552"/>
</g>
<!-- Node12&#45;&gt;Node3 -->
<g id="edge17" class="edge"><title>Node12&#45;&gt;Node3</title>
<path fill="none" stroke="midnightblue" d="M134.526,-124.403C116.722,-114.512 87.2595,-98.1442 66.368,-86.5378"/>
<polygon fill="midnightblue" stroke="midnightblue" points="67.8864,-83.3775 57.4451,-81.5806 64.4869,-89.4966 67.8864,-83.3775"/>
</g>
<!-- Node12&#45;&gt;Node5 -->
<g id="edge16" class="edge"><title>Node12&#45;&gt;Node5</title>
<path fill="none" stroke="midnightblue" d="M196.018,-125.156C268.421,-112.815 407.134,-89.1703 469.828,-78.4838"/>
<polygon fill="midnightblue" stroke="midnightblue" points="470.649,-81.8945 479.918,-76.7639 469.472,-74.9941 470.649,-81.8945"/>
</g>
<!-- Node13&#45;&gt;Node5 -->
<g id="edge20" class="edge"><title>Node13&#45;&gt;Node5</title>
<path fill="none" stroke="midnightblue" d="M899.956,-180.078C892.893,-165.628 876.855,-137.376 854,-124 826.617,-107.975 616.329,-84.8097 534.466,-76.2974"/>
<polygon fill="midnightblue" stroke="midnightblue" points="534.551,-72.7877 524.244,-75.2415 533.831,-79.7506 534.551,-72.7877"/>
</g>
<!-- Node13&#45;&gt;Node6 -->
<g id="edge21" class="edge"><title>Node13&#45;&gt;Node6</title>
<path fill="none" stroke="midnightblue" d="M940.251,-180.47C1024.18,-160.722 1232.58,-111.688 1336.32,-87.2769"/>
<polygon fill="midnightblue" stroke="midnightblue" points="1337.4,-90.6195 1346.33,-84.9221 1335.8,-83.8056 1337.4,-90.6195"/>
</g>
<!-- Node14 -->
<g id="node14" class="node"><title>Node14</title>
<g id="a_node14"><a xlink:href="../../db/dce/Parameter_8hpp.html" target="_top" xlink:title="This class implements some internal container of parameters. ">
<polygon fill="white" stroke="red" points="940,-124.5 940,-143.5 1044,-143.5 1044,-124.5 940,-124.5"/>
<text text-anchor="middle" x="992" y="-131.5" font-family="Helvetica,sans-Serif" font-size="10.00">Core/Parameter.hpp</text>
</a>
</g>
</g>
<!-- Node13&#45;&gt;Node14 -->
<g id="edge22" class="edge"><title>Node13&#45;&gt;Node14</title>
<path fill="none" stroke="midnightblue" d="M918.139,-180.324C931.866,-171.9 952.936,-158.971 969.064,-149.074"/>
<polygon fill="midnightblue" stroke="midnightblue" points="971.204,-151.868 977.896,-143.655 967.543,-145.902 971.204,-151.868"/>
</g>
<!-- Node13&#45;&gt;Node16 -->
<g id="edge29" class="edge"><title>Node13&#45;&gt;Node16</title>
<path fill="none" stroke="midnightblue" d="M888.255,-180.324C872.681,-171.743 848.623,-158.486 830.541,-148.522"/>
<polygon fill="midnightblue" stroke="midnightblue" points="832.154,-145.415 821.706,-143.655 828.776,-151.546 832.154,-145.415"/>
</g>
<!-- Node14&#45;&gt;Node2 -->
<g id="edge25" class="edge"><title>Node14&#45;&gt;Node2</title>
<path fill="none" stroke="midnightblue" d="M939.972,-129.449C776.756,-118.308 277.835,-84.2516 145.503,-75.2186"/>
<polygon fill="midnightblue" stroke="midnightblue" points="145.442,-71.7064 135.227,-74.5172 144.965,-78.6902 145.442,-71.7064"/>
</g>
<!-- Node14&#45;&gt;Node6 -->
<g id="edge26" class="edge"><title>Node14&#45;&gt;Node6</title>
<path fill="none" stroke="midnightblue" d="M1044.12,-125.279C1118.95,-114.193 1256.55,-93.807 1336.02,-82.0347"/>
<polygon fill="midnightblue" stroke="midnightblue" points="1336.98,-85.4306 1346.36,-80.5028 1335.95,-78.5061 1336.98,-85.4306"/>
</g>
<!-- Node14&#45;&gt;Node9 -->
<g id="edge23" class="edge"><title>Node14&#45;&gt;Node9</title>
<path fill="none" stroke="midnightblue" d="M983.945,-124.226C965.298,-103.914 918.928,-53.4036 894.925,-27.258"/>
<polygon fill="midnightblue" stroke="midnightblue" points="897.323,-24.694 887.982,-19.6944 892.166,-29.428 897.323,-24.694"/>
</g>
<!-- Node14&#45;&gt;Node10 -->
<g id="edge24" class="edge"><title>Node14&#45;&gt;Node10</title>
<path fill="none" stroke="midnightblue" d="M950.474,-124.467C893.229,-112.705 790.985,-91.6955 736.514,-80.5029"/>
<polygon fill="midnightblue" stroke="midnightblue" points="737.102,-77.0507 726.603,-78.4663 735.693,-83.9075 737.102,-77.0507"/>
</g>
<!-- Node15 -->
<g id="node15" class="node"><title>Node15</title>
<g id="a_node15"><a xlink:href="../../d2/de9/Exceptions_8hpp.html" target="_top" xlink:title="This class defines the ComPWA exception base&#45;class and provides a set of standard exceptions...">
<polygon fill="white" stroke="red" points="1138,-62.5 1138,-81.5 1246,-81.5 1246,-62.5 1138,-62.5"/>
<text text-anchor="middle" x="1192" y="-69.5" font-family="Helvetica,sans-Serif" font-size="10.00">Core/Exceptions.hpp</text>
</a>
</g>
</g>
<!-- Node14&#45;&gt;Node15 -->
<g id="edge27" class="edge"><title>Node14&#45;&gt;Node15</title>
<path fill="none" stroke="midnightblue" d="M1020.66,-124.403C1055.56,-113.933 1114.65,-96.2049 1153.5,-84.5501"/>
<polygon fill="midnightblue" stroke="midnightblue" points="1154.83,-87.8065 1163.4,-81.5806 1152.81,-81.1017 1154.83,-87.8065"/>
</g>
<!-- Node15&#45;&gt;Node9 -->
<g id="edge28" class="edge"><title>Node15&#45;&gt;Node9</title>
<path fill="none" stroke="midnightblue" d="M1154.28,-62.4356C1144.44,-60.2677 1133.83,-57.991 1124,-56 1047.43,-40.4982 956.879,-24.3742 910.595,-16.2908"/>
<polygon fill="midnightblue" stroke="midnightblue" points="911.064,-12.8199 900.612,-14.5523 909.863,-19.7161 911.064,-12.8199"/>
</g>
<!-- Node16&#45;&gt;Node5 -->
<g id="edge31" class="edge"><title>Node16&#45;&gt;Node5</title>
<path fill="none" stroke="midnightblue" d="M766.257,-125.156C705.324,-113.13 590.012,-90.3708 534.06,-79.3276"/>
<polygon fill="midnightblue" stroke="midnightblue" points="534.5,-75.8471 524.012,-77.3445 533.145,-82.7146 534.5,-75.8471"/>
</g>
<!-- Node16&#45;&gt;Node9 -->
<g id="edge30" class="edge"><title>Node16&#45;&gt;Node9</title>
<path fill="none" stroke="midnightblue" d="M811.322,-124.226C823.482,-104.178 853.487,-54.7104 869.513,-28.2888"/>
<polygon fill="midnightblue" stroke="midnightblue" points="872.533,-30.0597 874.726,-19.6944 866.548,-26.4294 872.533,-30.0597"/>
</g>
<!-- Node16&#45;&gt;Node15 -->
<g id="edge32" class="edge"><title>Node16&#45;&gt;Node15</title>
<path fill="none" stroke="midnightblue" d="M845.855,-126.805C912.632,-116.425 1047.67,-95.4342 1127.92,-82.9604"/>
<polygon fill="midnightblue" stroke="midnightblue" points="1128.56,-86.4027 1137.91,-81.4081 1127.49,-79.4857 1128.56,-86.4027"/>
</g>
<!-- Node17&#45;&gt;Node2 -->
<g id="edge35" class="edge"><title>Node17&#45;&gt;Node2</title>
<path fill="none" stroke="midnightblue" d="M118.98,-180.34C110.928,-171.932 99.7021,-158.363 95,-144 89.1496,-126.129 96.0639,-105.214 102.948,-90.7341"/>
<polygon fill="midnightblue" stroke="midnightblue" points="106.057,-92.3431 107.552,-81.8544 99.8422,-89.1209 106.057,-92.3431"/>
</g>
<!-- Node17&#45;&gt;Node12 -->
<g id="edge39" class="edge"><title>Node17&#45;&gt;Node12</title>
<path fill="none" stroke="midnightblue" d="M131.633,-180.083C134.612,-172.77 138.926,-162.181 142.625,-153.103"/>
<polygon fill="midnightblue" stroke="midnightblue" points="145.903,-154.333 146.435,-143.751 139.42,-151.691 145.903,-154.333"/>
</g>
<!-- Node18 -->
<g id="node18" class="node"><title>Node18</title>
<g id="a_node18"><a xlink:href="../../df/d11/Tensor_8h.html" target="_top" xlink:title="Tensor template class definition file. ">
<polygon fill="white" stroke="red" points="502.5,-124.5 502.5,-143.5 557.5,-143.5 557.5,-124.5 502.5,-124.5"/>
<text text-anchor="middle" x="530" y="-131.5" font-family="Helvetica,sans-Serif" font-size="10.00">Tensor.h</text>
</a>
</g>
</g>
<!-- Node17&#45;&gt;Node18 -->
<g id="edge36" class="edge"><title>Node17&#45;&gt;Node18</title>
<path fill="none" stroke="midnightblue" d="M189.932,-180.681C274.355,-169.34 422.981,-149.376 492.355,-140.057"/>
<polygon fill="midnightblue" stroke="midnightblue" points="492.947,-143.509 502.392,-138.708 492.015,-136.571 492.947,-143.509"/>
</g>
<!-- Node18&#45;&gt;Node5 -->
<g id="edge37" class="edge"><title>Node18&#45;&gt;Node5</title>
<path fill="none" stroke="midnightblue" d="M525.988,-124.403C521.913,-115.671 515.482,-101.889 510.304,-90.7936"/>
<polygon fill="midnightblue" stroke="midnightblue" points="513.405,-89.1623 506.004,-81.5806 507.062,-92.1225 513.405,-89.1623"/>
</g>
<!-- Node18&#45;&gt;Node10 -->
<g id="edge38" class="edge"><title>Node18&#45;&gt;Node10</title>
<path fill="none" stroke="midnightblue" d="M554.357,-124.403C583.644,-114.067 632.974,-96.6564 666.002,-84.9994"/>
<polygon fill="midnightblue" stroke="midnightblue" points="667.423,-88.2093 675.688,-81.5806 665.094,-81.6084 667.423,-88.2093"/>
</g>
<!-- Node19&#45;&gt;Node5 -->
<g id="edge41" class="edge"><title>Node19&#45;&gt;Node5</title>
<path fill="none" stroke="midnightblue" d="M867.782,-437.039C823.629,-430.797 766.543,-418.042 722,-392 657.243,-354.14 520.321,-213.86 493,-144 486.3,-126.867 490.36,-105.802 494.976,-91.0846"/>
<polygon fill="midnightblue" stroke="midnightblue" points="498.282,-92.2317 498.289,-81.6369 491.677,-89.9154 498.282,-92.2317"/>
</g>
<!-- Node19&#45;&gt;Node6 -->
<g id="edge43" class="edge"><title>Node19&#45;&gt;Node6</title>
<path fill="none" stroke="midnightblue" d="M1006.19,-439.585C1147.49,-430.717 1456,-400.838 1456,-309 1456,-309 1456,-309 1456,-189 1456,-153.138 1433.32,-117.154 1416.08,-94.9846"/>
<polygon fill="midnightblue" stroke="midnightblue" points="1418.8,-92.7821 1409.8,-87.1936 1413.35,-97.1755 1418.8,-92.7821"/>
</g>
<!-- Node19&#45;&gt;Node15 -->
<g id="edge57" class="edge"><title>Node19&#45;&gt;Node15</title>
<path fill="none" stroke="midnightblue" d="M1006.22,-436.526C1130.81,-422.944 1380,-386.137 1380,-309 1380,-309 1380,-309 1380,-245 1380,-184.37 1361.81,-164.841 1317,-124 1295.82,-104.696 1266.36,-92.198 1241.35,-84.408"/>
<polygon fill="midnightblue" stroke="midnightblue" points="1242.25,-81.0218 1231.66,-81.5498 1240.27,-87.7358 1242.25,-81.0218"/>
</g>
<!-- Node19&#45;&gt;Node16 -->
<g id="edge44" class="edge"><title>Node19&#45;&gt;Node16</title>
<path fill="none" stroke="midnightblue" d="M867.974,-434.05C818.031,-425.992 756.672,-412.272 741,-392 682.922,-316.876 760.682,-195.907 793.047,-151.789"/>
<polygon fill="midnightblue" stroke="midnightblue" points="795.999,-153.686 799.199,-143.586 790.399,-149.486 795.999,-153.686"/>
</g>
<!-- Node20 -->
<g id="node20" class="node"><title>Node20</title>
<polygon fill="white" stroke="#bfbfbf" points="1256,-124.5 1256,-143.5 1308,-143.5 1308,-124.5 1256,-124.5"/>
<text text-anchor="middle" x="1282" y="-131.5" font-family="Helvetica,sans-Serif" font-size="10.00">memory</text>
</g>
<!-- Node19&#45;&gt;Node20 -->
<g id="edge42" class="edge"><title>Node19&#45;&gt;Node20</title>
<path fill="none" stroke="midnightblue" d="M1006.03,-432.274C1112.34,-413.781 1304,-371.742 1304,-309 1304,-309 1304,-309 1304,-245 1304,-212.328 1294.55,-175.24 1288.04,-153.553"/>
<polygon fill="midnightblue" stroke="midnightblue" points="1291.29,-152.222 1284.97,-143.721 1284.61,-154.31 1291.29,-152.222"/>
</g>
<!-- Node21 -->
<g id="node21" class="node"><title>Node21</title>
<g id="a_node21"><a xlink:href="../../dc/d66/Functions_8hpp.html" target="_top" xlink:title="This file contains Functions implementing the Strategy interface so they can be used inside a node of...">
<polygon fill="white" stroke="red" points="956,-236.5 956,-255.5 1058,-255.5 1058,-236.5 956,-236.5"/>
<text text-anchor="middle" x="1007" y="-243.5" font-family="Helvetica,sans-Serif" font-size="10.00">Core/Functions.hpp</text>
</a>
</g>
</g>
<!-- Node19&#45;&gt;Node21 -->
<g id="edge45" class="edge"><title>Node19&#45;&gt;Node21</title>
<path fill="none" stroke="midnightblue" d="M935.587,-428.693C933.481,-400.664 932.035,-337.312 956,-292 962.469,-279.768 973.703,-269.305 983.983,-261.555"/>
<polygon fill="midnightblue" stroke="midnightblue" points="986.119,-264.331 992.269,-255.703 982.081,-258.613 986.119,-264.331"/>
</g>
<!-- Node24 -->
<g id="node24" class="node"><title>Node24</title>
<g id="a_node24"><a xlink:href="../../de/d02/AbstractDynamicalFunction_8hpp.html" target="_top" xlink:title="Physics/HelicityFormalism\l/AbstractDynamicalFunction.hpp">
<polygon fill="white" stroke="red" points="750.5,-361 750.5,-391 909.5,-391 909.5,-361 750.5,-361"/>
<text text-anchor="start" x="758.5" y="-379" font-family="Helvetica,sans-Serif" font-size="10.00">Physics/HelicityFormalism</text>
<text text-anchor="middle" x="830" y="-368" font-family="Helvetica,sans-Serif" font-size="10.00">/AbstractDynamicalFunction.hpp</text>
</a>
</g>
</g>
<!-- Node19&#45;&gt;Node24 -->
<g id="edge58" class="edge"><title>Node19&#45;&gt;Node24</title>
<path fill="none" stroke="midnightblue" d="M914.046,-428.841C898.813,-419.446 878.612,-406.985 861.833,-396.635"/>
<polygon fill="midnightblue" stroke="midnightblue" points="863.265,-393.406 852.916,-391.135 859.59,-399.364 863.265,-393.406"/>
</g>
<!-- Node25 -->
<g id="node25" class="node"><title>Node25</title>
<g id="a_node25"><a xlink:href="../../d9/de6/AmpWignerD_8hpp.html" target="_top" xlink:title="Angular distribution based on WignerD functions. ">
<polygon fill="white" stroke="red" points="965,-293 965,-323 1099,-323 1099,-293 965,-293"/>
<text text-anchor="start" x="973" y="-311" font-family="Helvetica,sans-Serif" font-size="10.00">Physics/HelicityFormalism</text>
<text text-anchor="middle" x="1032" y="-300" font-family="Helvetica,sans-Serif" font-size="10.00">/AmpWignerD.hpp</text>
</a>
</g>
</g>
<!-- Node19&#45;&gt;Node25 -->
<g id="edge65" class="edge"><title>Node19&#45;&gt;Node25</title>
<path fill="none" stroke="midnightblue" d="M947.167,-428.66C963.666,-405.387 996.4,-359.215 1016.03,-331.526"/>
<polygon fill="midnightblue" stroke="midnightblue" points="1018.98,-333.419 1021.91,-323.237 1013.27,-329.371 1018.98,-333.419"/>
</g>
<!-- Node21&#45;&gt;Node5 -->
<g id="edge46" class="edge"><title>Node21&#45;&gt;Node5</title>
<path fill="none" stroke="midnightblue" d="M955.853,-236.75C913.307,-229.22 851.45,-216.719 799,-200 695.598,-167.04 578.802,-111.335 527.955,-86.1097"/>
<polygon fill="midnightblue" stroke="midnightblue" points="529.478,-82.9581 518.967,-81.6265 526.354,-89.2221 529.478,-82.9581"/>
</g>
<!-- Node21&#45;&gt;Node10 -->
<g id="edge47" class="edge"><title>Node21&#45;&gt;Node10</title>
<path fill="none" stroke="midnightblue" d="M959.808,-236.457C925.797,-229.295 879.333,-217.412 841,-200 800.148,-181.444 790.099,-174.293 757,-144 739.039,-127.561 722.056,-105.201 711.377,-89.9957"/>
<polygon fill="midnightblue" stroke="midnightblue" points="714.137,-87.8313 705.59,-81.57 708.366,-91.7945 714.137,-87.8313"/>
</g>
<!-- Node21&#45;&gt;Node14 -->
<g id="edge56" class="edge"><title>Node21&#45;&gt;Node14</title>
<path fill="none" stroke="midnightblue" d="M1014.68,-236.177C1024.57,-223.683 1039.65,-200.116 1032,-180 1027.66,-168.598 1018.97,-158.239 1010.79,-150.343"/>
<polygon fill="midnightblue" stroke="midnightblue" points="1013.04,-147.66 1003.27,-143.573 1008.36,-152.863 1013.04,-147.66"/>
</g>
<!-- Node21&#45;&gt;Node15 -->
<g id="edge49" class="edge"><title>Node21&#45;&gt;Node15</title>
<path fill="none" stroke="midnightblue" d="M1058.15,-240.713C1111.39,-235.065 1189.56,-223.027 1208,-200 1233.38,-168.316 1214.39,-117.188 1201.43,-90.4947"/>
<polygon fill="midnightblue" stroke="midnightblue" points="1204.53,-88.8666 1196.87,-81.5523 1198.3,-92.0501 1204.53,-88.8666"/>
</g>
<!-- Node22 -->
<g id="node22" class="node"><title>Node22</title>
<polygon fill="white" stroke="#bfbfbf" points="976.5,-180.5 976.5,-199.5 1023.5,-199.5 1023.5,-180.5 976.5,-180.5"/>
<text text-anchor="middle" x="1000" y="-187.5" font-family="Helvetica,sans-Serif" font-size="10.00">math.h</text>
</g>
<!-- Node21&#45;&gt;Node22 -->
<g id="edge48" class="edge"><title>Node21&#45;&gt;Node22</title>
<path fill="none" stroke="midnightblue" d="M1005.84,-236.083C1004.92,-228.927 1003.58,-218.635 1002.42,-209.691"/>
<polygon fill="midnightblue" stroke="midnightblue" points="1005.89,-209.218 1001.13,-199.751 998.949,-210.118 1005.89,-209.218"/>
</g>
<!-- Node23 -->
<g id="node23" class="node"><title>Node23</title>
<g id="a_node23"><a xlink:href="../../df/d9f/ParameterList_8hpp.html" target="_top" xlink:title="This class provides a list of fit parameters which can have different types. ">
<polygon fill="white" stroke="red" points="1080,-180.5 1080,-199.5 1200,-199.5 1200,-180.5 1080,-180.5"/>
<text text-anchor="middle" x="1140" y="-187.5" font-family="Helvetica,sans-Serif" font-size="10.00">Core/ParameterList.hpp</text>
</a>
</g>
</g>
<!-- Node21&#45;&gt;Node23 -->
<g id="edge50" class="edge"><title>Node21&#45;&gt;Node23</title>
<path fill="none" stroke="midnightblue" d="M1028.07,-236.444C1050.06,-227.517 1084.73,-213.439 1109.66,-203.317"/>
<polygon fill="midnightblue" stroke="midnightblue" points="1111.08,-206.521 1119.02,-199.516 1108.44,-200.035 1111.08,-206.521"/>
</g>
<!-- Node23&#45;&gt;Node5 -->
<g id="edge53" class="edge"><title>Node23&#45;&gt;Node5</title>
<path fill="none" stroke="midnightblue" d="M1090.05,-180.5C1047.36,-172.702 984.533,-159.953 931,-144 907.27,-136.928 902.987,-130.146 879,-124 813.769,-107.287 613.268,-84.8417 534.373,-76.3995"/>
<polygon fill="midnightblue" stroke="midnightblue" points="534.389,-72.8815 524.074,-75.3032 533.648,-79.8422 534.389,-72.8815"/>
</g>
<!-- Node23&#45;&gt;Node9 -->
<g id="edge51" class="edge"><title>Node23&#45;&gt;Node9</title>
<path fill="none" stroke="midnightblue" d="M1128.89,-180.375C1112.5,-167.721 1080.77,-143.514 1053,-124 1008.12,-92.4597 995.961,-85.9431 950,-56 934.067,-45.6196 916.013,-34.0174 902.231,-25.1939"/>
<polygon fill="midnightblue" stroke="midnightblue" points="903.761,-22.0179 893.451,-19.5784 899.989,-27.9149 903.761,-22.0179"/>
</g>
<!-- Node23&#45;&gt;Node14 -->
<g id="edge54" class="edge"><title>Node23&#45;&gt;Node14</title>
<path fill="none" stroke="midnightblue" d="M1116.55,-180.444C1091.87,-171.438 1052.81,-157.189 1025.02,-147.049"/>
<polygon fill="midnightblue" stroke="midnightblue" points="1025.94,-143.656 1015.34,-143.516 1023.54,-150.232 1025.94,-143.656"/>
</g>
<!-- Node23&#45;&gt;Node15 -->
<g id="edge55" class="edge"><title>Node23&#45;&gt;Node15</title>
<path fill="none" stroke="midnightblue" d="M1143.91,-180.281C1152.42,-161.294 1172.77,-115.892 1184.08,-90.6624"/>
<polygon fill="midnightblue" stroke="midnightblue" points="1187.29,-92.0616 1188.19,-81.5048 1180.9,-89.1982 1187.29,-92.0616"/>
</g>
<!-- Node23&#45;&gt;Node20 -->
<g id="edge52" class="edge"><title>Node23&#45;&gt;Node20</title>
<path fill="none" stroke="midnightblue" d="M1162.5,-180.444C1186.08,-171.478 1223.32,-157.314 1249.96,-147.183"/>
<polygon fill="midnightblue" stroke="midnightblue" points="1251.5,-150.342 1259.6,-143.516 1249.01,-143.8 1251.5,-150.342"/>
</g>
<!-- Node24&#45;&gt;Node6 -->
<g id="edge60" class="edge"><title>Node24&#45;&gt;Node6</title>
<path fill="none" stroke="midnightblue" d="M909.609,-372.973C972.757,-368.738 1061.91,-356.781 1133,-324 1248.4,-270.786 1345.29,-146.473 1381.63,-95.4567"/>
<polygon fill="midnightblue" stroke="midnightblue" points="1384.62,-97.2847 1387.51,-87.0913 1378.9,-93.2583 1384.62,-97.2847"/>
</g>
<!-- Node24&#45;&gt;Node7 -->
<g id="edge64" class="edge"><title>Node24&#45;&gt;Node7</title>
<path fill="none" stroke="midnightblue" d="M750.472,-361.003C686.086,-349.671 595.931,-333.804 532.181,-322.584"/>
<polygon fill="midnightblue" stroke="midnightblue" points="532.64,-319.111 522.184,-320.824 531.426,-326.005 532.64,-319.111"/>
</g>
<!-- Node24&#45;&gt;Node10 -->
<g id="edge59" class="edge"><title>Node24&#45;&gt;Node10</title>
<path fill="none" stroke="midnightblue" d="M823.904,-360.839C802.588,-311.321 731.403,-145.952 707.73,-90.9577"/>
<polygon fill="midnightblue" stroke="midnightblue" points="710.94,-89.5619 703.771,-81.7606 704.51,-92.3296 710.94,-89.5619"/>
</g>
<!-- Node24&#45;&gt;Node13 -->
<g id="edge61" class="edge"><title>Node24&#45;&gt;Node13</title>
<path fill="none" stroke="midnightblue" d="M835.684,-360.867C848.929,-327.933 881.842,-246.096 896.616,-209.361"/>
<polygon fill="midnightblue" stroke="midnightblue" points="899.94,-210.475 900.424,-199.891 893.446,-207.863 899.94,-210.475"/>
</g>
<!-- Node24&#45;&gt;Node16 -->
<g id="edge63" class="edge"><title>Node24&#45;&gt;Node16</title>
<path fill="none" stroke="midnightblue" d="M828.571,-360.706C824.44,-319.401 812.489,-199.888 807.861,-153.611"/>
<polygon fill="midnightblue" stroke="midnightblue" points="811.329,-153.117 806.852,-143.515 804.364,-153.814 811.329,-153.117"/>
</g>
<!-- Node24&#45;&gt;Node23 -->
<g id="edge62" class="edge"><title>Node24&#45;&gt;Node23</title>
<path fill="none" stroke="midnightblue" d="M909.678,-369.929C981.493,-363.706 1079.98,-350.525 1108,-324 1139.67,-294.018 1142.37,-238.619 1141.37,-209.691"/>
<polygon fill="midnightblue" stroke="midnightblue" points="1144.86,-209.49 1140.83,-199.692 1137.87,-209.865 1144.86,-209.49"/>
</g>
<!-- Node25&#45;&gt;Node5 -->
<g id="edge66" class="edge"><title>Node25&#45;&gt;Node5</title>
<path fill="none" stroke="midnightblue" d="M984.549,-292.935C954.038,-283.464 913.747,-270.154 879,-256 742.732,-200.491 586.48,-118.475 526.865,-86.477"/>
<polygon fill="midnightblue" stroke="midnightblue" points="528.292,-83.27 517.827,-81.6112 524.973,-89.4335 528.292,-83.27"/>
</g>
<!-- Node25&#45;&gt;Node6 -->
<g id="edge68" class="edge"><title>Node25&#45;&gt;Node6</title>
<path fill="none" stroke="midnightblue" d="M1080.68,-292.977C1108.5,-284.092 1143.59,-271.381 1173,-256 1244.85,-218.426 1255.96,-197.371 1317,-144 1336.05,-127.345 1357.48,-108.307 1373.36,-94.1396"/>
<polygon fill="midnightblue" stroke="midnightblue" points="1375.99,-96.4841 1381.12,-87.2137 1371.33,-91.2621 1375.99,-96.4841"/>
</g>
<!-- Node25&#45;&gt;Node13 -->
<g id="edge72" class="edge"><title>Node25&#45;&gt;Node13</title>
<path fill="none" stroke="midnightblue" d="M1001.44,-292.922C984.165,-283.98 962.915,-271.23 947,-256 932.683,-242.3 920.674,-223.002 913.018,-208.995"/>
<polygon fill="midnightblue" stroke="midnightblue" points="915.985,-207.117 908.242,-199.886 909.786,-210.368 915.985,-207.117"/>
</g>
<!-- Node25&#45;&gt;Node16 -->
<g id="edge71" class="edge"><title>Node25&#45;&gt;Node16</title>
<path fill="none" stroke="midnightblue" d="M991.301,-292.948C948.911,-276.505 882.947,-245.593 841,-200 828.415,-186.321 818.856,-167.279 812.934,-153.341"/>
<polygon fill="midnightblue" stroke="midnightblue" points="816.097,-151.827 809.124,-143.851 809.601,-154.435 816.097,-151.827"/>
</g>
<!-- Node25&#45;&gt;Node20 -->
<g id="edge67" class="edge"><title>Node25&#45;&gt;Node20</title>
<path fill="none" stroke="midnightblue" d="M1066.02,-292.952C1106.86,-275.097 1176.17,-241.543 1227,-200 1244.09,-186.034 1259.95,-166.25 1270.21,-152.185"/>
<polygon fill="midnightblue" stroke="midnightblue" points="1273.16,-154.068 1276.09,-143.886 1267.45,-150.018 1273.16,-154.068"/>
</g>
<!-- Node25&#45;&gt;Node21 -->
<g id="edge70" class="edge"><title>Node25&#45;&gt;Node21</title>
<path fill="none" stroke="midnightblue" d="M1026.08,-292.781C1022.63,-284.512 1018.25,-274.006 1014.56,-265.145"/>
<polygon fill="midnightblue" stroke="midnightblue" points="1017.71,-263.615 1010.64,-255.731 1011.25,-266.307 1017.71,-263.615"/>
</g>
<!-- Node25&#45;&gt;Node23 -->
<g id="edge69" class="edge"><title>Node25&#45;&gt;Node23</title>
<path fill="none" stroke="midnightblue" d="M1045.24,-292.776C1065.41,-271.116 1103.71,-229.981 1124.92,-207.2"/>
<polygon fill="midnightblue" stroke="midnightblue" points="1127.64,-209.411 1131.89,-199.707 1122.52,-204.641 1127.64,-209.411"/>
</g>
</g>
</svg>
