<?xml version="1.0" encoding="UTF-8" standalone="no"?>
<!DOCTYPE svg PUBLIC "-//W3C//DTD SVG 1.1//EN"
 "http://www.w3.org/Graphics/SVG/1.1/DTD/svg11.dtd">
<!-- Generated by graphviz version 2.36.0 (20140111.2315)
 -->
<!-- Title: /home/travis/build/ComPWA/ComPWA/Physics/DynamicalDecayFunctions/TwoBodyDecay/RelativisticBreitWigner.cpp Pages: 1 -->
<svg width="1532pt" height="512pt"
 viewBox="0.00 0.00 1531.68 512.00" xmlns="http://www.w3.org/2000/svg" xmlns:xlink="http://www.w3.org/1999/xlink">
<g id="graph0" class="graph" transform="scale(1 1) rotate(0) translate(4 508)">
<title>/home/travis/build/ComPWA/ComPWA/Physics/DynamicalDecayFunctions/TwoBodyDecay/RelativisticBreitWigner.cpp</title>
<polygon fill="white" stroke="none" points="-4,4 -4,-508 1527.68,-508 1527.68,4 -4,4"/>
<!-- Node1 -->
<g id="node1" class="node"><title>Node1</title>
<polygon fill="#bfbfbf" stroke="black" points="1023.18,-440.5 1023.18,-503.5 1184.18,-503.5 1184.18,-440.5 1023.18,-440.5"/>
<text text-anchor="start" x="1031.18" y="-491.5" font-family="Helvetica,sans-Serif" font-size="10.00">/home/travis/build</text>
<text text-anchor="start" x="1031.18" y="-480.5" font-family="Helvetica,sans-Serif" font-size="10.00">/ComPWA/ComPWA/Physics</text>
<text text-anchor="start" x="1031.18" y="-469.5" font-family="Helvetica,sans-Serif" font-size="10.00">/DynamicalDecayFunctions</text>
<text text-anchor="start" x="1031.18" y="-458.5" font-family="Helvetica,sans-Serif" font-size="10.00">/TwoBodyDecay/RelativisticBreit</text>
<text text-anchor="middle" x="1103.68" y="-447.5" font-family="Helvetica,sans-Serif" font-size="10.00">Wigner.cpp</text>
</g>
<!-- Node2 -->
<g id="node2" class="node"><title>Node2</title>
<polygon fill="white" stroke="#bfbfbf" points="180.684,-0.5 180.684,-19.5 224.684,-19.5 224.684,-0.5 180.684,-0.5"/>
<text text-anchor="middle" x="202.684" y="-7.5" font-family="Helvetica,sans-Serif" font-size="10.00">cmath</text>
</g>
<!-- Node1&#45;&gt;Node2 -->
<g id="edge1" class="edge"><title>Node1&#45;&gt;Node2</title>
<path fill="none" stroke="midnightblue" d="M1023.03,-468.515C768.753,-459.62 0.684436,-424.211 0.684436,-321 0.684436,-321 0.684436,-321 0.684436,-121 0.684436,-90.9022 -2.05331,-76.817 19.6844,-56 41.0584,-35.5314 123.611,-21.5196 170.202,-15.0607"/>
<polygon fill="midnightblue" stroke="midnightblue" points="170.946,-18.4922 180.389,-13.6893 170.012,-11.5548 170.946,-18.4922"/>
</g>
<!-- Node3 -->
<g id="node3" class="node"><title>Node3</title>
<polygon fill="white" stroke="#bfbfbf" points="1192.18,-237 1192.18,-267 1293.18,-267 1293.18,-237 1192.18,-237"/>
<text text-anchor="start" x="1200.18" y="-255" font-family="Helvetica,sans-Serif" font-size="10.00">boost/property_tree</text>
<text text-anchor="middle" x="1242.68" y="-244" font-family="Helvetica,sans-Serif" font-size="10.00">/ptree.hpp</text>
</g>
<!-- Node1&#45;&gt;Node3 -->
<g id="edge2" class="edge"><title>Node1&#45;&gt;Node3</title>
<path fill="none" stroke="midnightblue" d="M1123.3,-440.228C1151.57,-395.897 1203.1,-315.076 1228.19,-275.732"/>
<polygon fill="midnightblue" stroke="midnightblue" points="1231.26,-277.423 1233.69,-267.109 1225.36,-273.66 1231.26,-277.423"/>
</g>
<!-- Node4 -->
<g id="node4" class="node"><title>Node4</title>
<g id="a_node4"><a xlink:href="../../d5/d8f/DataPointStorage_8hpp.html" target="_top" xlink:title="Core/DataPointStorage.hpp">
<polygon fill="white" stroke="black" points="1192.18,-112.5 1192.18,-131.5 1329.18,-131.5 1329.18,-112.5 1192.18,-112.5"/>
<text text-anchor="middle" x="1260.68" y="-119.5" font-family="Helvetica,sans-Serif" font-size="10.00">Core/DataPointStorage.hpp</text>
</a>
</g>
</g>
<!-- Node1&#45;&gt;Node4 -->
<g id="edge3" class="edge"><title>Node1&#45;&gt;Node4</title>
<path fill="none" stroke="midnightblue" d="M1184.24,-450.799C1246.34,-429.83 1321.68,-390.141 1321.68,-321 1321.68,-321 1321.68,-321 1321.68,-251 1321.68,-207.344 1292.41,-162.746 1274.42,-139.462"/>
<polygon fill="midnightblue" stroke="midnightblue" points="1277.14,-137.257 1268.16,-131.628 1271.67,-141.625 1277.14,-137.257"/>
</g>
<!-- Node7 -->
<g id="node7" class="node"><title>Node7</title>
<g id="a_node7"><a xlink:href="../../d4/d37/Kinematics_8hpp.html" target="_top" xlink:title="Core/Kinematics.hpp">
<polygon fill="white" stroke="black" points="756.684,-174.5 756.684,-193.5 864.684,-193.5 864.684,-174.5 756.684,-174.5"/>
<text text-anchor="middle" x="810.684" y="-181.5" font-family="Helvetica,sans-Serif" font-size="10.00">Core/Kinematics.hpp</text>
</a>
</g>
</g>
<!-- Node1&#45;&gt;Node7 -->
<g id="edge6" class="edge"><title>Node1&#45;&gt;Node7</title>
<path fill="none" stroke="midnightblue" d="M1055.29,-440.344C968.581,-385.307 795.377,-274.808 791.684,-268 780.431,-247.253 790.606,-220.099 799.857,-202.601"/>
<polygon fill="midnightblue" stroke="midnightblue" points="803.114,-203.956 805.028,-193.535 797.033,-200.487 803.114,-203.956"/>
</g>
<!-- Node15 -->
<g id="node15" class="node"><title>Node15</title>
<g id="a_node15"><a xlink:href="../../d6/da5/RelativisticBreitWigner_8hpp.html" target="_top" xlink:title="Physics/DynamicalDecayFunctions\l/TwoBodyDecay/RelativisticBreitWigner.hpp">
<polygon fill="white" stroke="black" points="726.184,-373 726.184,-403 937.184,-403 937.184,-373 726.184,-373"/>
<text text-anchor="start" x="734.184" y="-391" font-family="Helvetica,sans-Serif" font-size="10.00">Physics/DynamicalDecayFunctions</text>
<text text-anchor="middle" x="831.684" y="-380" font-family="Helvetica,sans-Serif" font-size="10.00">/TwoBodyDecay/RelativisticBreitWigner.hpp</text>
</a>
</g>
</g>
<!-- Node1&#45;&gt;Node15 -->
<g id="edge25" class="edge"><title>Node1&#45;&gt;Node15</title>
<path fill="none" stroke="midnightblue" d="M1023.18,-446.73C979.711,-433.626 927.112,-417.769 888.048,-405.992"/>
<polygon fill="midnightblue" stroke="midnightblue" points="889.006,-402.625 878.422,-403.09 886.986,-409.327 889.006,-402.625"/>
</g>
<!-- Node25 -->
<g id="node25" class="node"><title>Node25</title>
<polygon fill="white" stroke="#bfbfbf" points="1350.18,-373 1350.18,-403 1523.18,-403 1523.18,-373 1350.18,-373"/>
<text text-anchor="start" x="1358.18" y="-391" font-family="Helvetica,sans-Serif" font-size="10.00">Physics/DynamicalDecayFunctions</text>
<text text-anchor="middle" x="1436.68" y="-380" font-family="Helvetica,sans-Serif" font-size="10.00">/Kinematics.hpp</text>
</g>
<!-- Node1&#45;&gt;Node25 -->
<g id="edge66" class="edge"><title>Node1&#45;&gt;Node25</title>
<path fill="none" stroke="midnightblue" d="M1184.29,-451.15C1241.19,-437.139 1316.52,-418.59 1370.03,-405.413"/>
<polygon fill="midnightblue" stroke="midnightblue" points="1370.89,-408.807 1379.76,-403.018 1369.21,-402.01 1370.89,-408.807"/>
</g>
<!-- Node5 -->
<g id="node5" class="node"><title>Node5</title>
<polygon fill="white" stroke="#bfbfbf" points="939.684,-0.5 939.684,-19.5 983.684,-19.5 983.684,-0.5 939.684,-0.5"/>
<text text-anchor="middle" x="961.684" y="-7.5" font-family="Helvetica,sans-Serif" font-size="10.00">vector</text>
</g>
<!-- Node4&#45;&gt;Node5 -->
<g id="edge4" class="edge"><title>Node4&#45;&gt;Node5</title>
<path fill="none" stroke="midnightblue" d="M1252.39,-112.295C1238.38,-98.1565 1208.56,-70.3424 1177.68,-56 1116.55,-27.5986 1037.39,-16.9798 993.877,-13.1165"/>
<polygon fill="midnightblue" stroke="midnightblue" points="994.126,-9.62519 983.872,-12.2925 993.551,-16.6016 994.126,-9.62519"/>
</g>
<!-- Node6 -->
<g id="node6" class="node"><title>Node6</title>
<polygon fill="white" stroke="#bfbfbf" points="1047.18,-56.5 1047.18,-75.5 1082.18,-75.5 1082.18,-56.5 1047.18,-56.5"/>
<text text-anchor="middle" x="1064.68" y="-63.5" font-family="Helvetica,sans-Serif" font-size="10.00">map</text>
</g>
<!-- Node4&#45;&gt;Node6 -->
<g id="edge5" class="edge"><title>Node4&#45;&gt;Node6</title>
<path fill="none" stroke="midnightblue" d="M1229.63,-112.444C1191.8,-102.023 1128.49,-84.5801 1092.3,-74.6083"/>
<polygon fill="midnightblue" stroke="midnightblue" points="1092.99,-71.1695 1082.42,-71.8876 1091.14,-77.9181 1092.99,-71.1695"/>
</g>
<!-- Node7&#45;&gt;Node5 -->
<g id="edge7" class="edge"><title>Node7&#45;&gt;Node5</title>
<path fill="none" stroke="midnightblue" d="M814.547,-174.142C820.895,-160.131 834.462,-132.359 850.684,-112 878.183,-77.4894 917.88,-44.4356 941.599,-26.0158"/>
<polygon fill="midnightblue" stroke="midnightblue" points="944.035,-28.5581 949.848,-19.7002 939.78,-22.9999 944.035,-28.5581"/>
</g>
<!-- Node8 -->
<g id="node8" class="node"><title>Node8</title>
<polygon fill="white" stroke="#bfbfbf" points="347.184,-0.5 347.184,-19.5 388.184,-19.5 388.184,-0.5 347.184,-0.5"/>
<text text-anchor="middle" x="367.684" y="-7.5" font-family="Helvetica,sans-Serif" font-size="10.00">string</text>
</g>
<!-- Node7&#45;&gt;Node8 -->
<g id="edge8" class="edge"><title>Node7&#45;&gt;Node8</title>
<path fill="none" stroke="midnightblue" d="M784.425,-174.437C755.37,-164.792 707.286,-148.325 666.684,-132 610.579,-109.442 596.378,-103.815 542.684,-76 527.117,-67.936 524.69,-63.1539 508.684,-56 471.913,-39.5642 427.309,-26.3846 398.25,-18.6356"/>
<polygon fill="midnightblue" stroke="midnightblue" points="398.851,-15.1752 388.291,-16.0305 397.08,-21.9473 398.851,-15.1752"/>
</g>
<!-- Node9 -->
<g id="node9" class="node"><title>Node9</title>
<polygon fill="white" stroke="#bfbfbf" points="447.184,-56.5 447.184,-75.5 500.184,-75.5 500.184,-56.5 447.184,-56.5"/>
<text text-anchor="middle" x="473.684" y="-63.5" font-family="Helvetica,sans-Serif" font-size="10.00">complex</text>
</g>
<!-- Node7&#45;&gt;Node9 -->
<g id="edge9" class="edge"><title>Node7&#45;&gt;Node9</title>
<path fill="none" stroke="midnightblue" d="M775.884,-174.479C766.433,-172.265 756.186,-169.954 746.684,-168 656.934,-149.539 625.71,-172.839 543.684,-132 520.601,-120.507 499.736,-98.9975 486.909,-83.8779"/>
<polygon fill="midnightblue" stroke="midnightblue" points="489.372,-81.3606 480.33,-75.8383 483.954,-85.7938 489.372,-81.3606"/>
</g>
<!-- Node10 -->
<g id="node10" class="node"><title>Node10</title>
<g id="a_node10"><a xlink:href="../../df/d7d/Event_8hpp.html" target="_top" xlink:title="This class provides a internal container for event&#45;based information. ">
<polygon fill="white" stroke="black" points="676.184,-112.5 676.184,-131.5 761.184,-131.5 761.184,-112.5 676.184,-112.5"/>
<text text-anchor="middle" x="718.684" y="-119.5" font-family="Helvetica,sans-Serif" font-size="10.00">Core/Event.hpp</text>
</a>
</g>
</g>
<!-- Node7&#45;&gt;Node10 -->
<g id="edge10" class="edge"><title>Node7&#45;&gt;Node10</title>
<path fill="none" stroke="midnightblue" d="M797.503,-174.403C782.61,-164.691 758.14,-148.732 740.411,-137.17"/>
<polygon fill="midnightblue" stroke="midnightblue" points="742.129,-134.112 731.841,-131.581 738.306,-139.975 742.129,-134.112"/>
</g>
<!-- Node13 -->
<g id="node13" class="node"><title>Node13</title>
<g id="a_node13"><a xlink:href="../../d4/d03/Utility_8hpp.html" target="_top" xlink:title="Basic structures for amplitude calculations. ">
<polygon fill="white" stroke="black" points="860.184,-112.5 860.184,-131.5 945.184,-131.5 945.184,-112.5 860.184,-112.5"/>
<text text-anchor="middle" x="902.684" y="-119.5" font-family="Helvetica,sans-Serif" font-size="10.00">Core/Utility.hpp</text>
</a>
</g>
</g>
<!-- Node7&#45;&gt;Node13 -->
<g id="edge18" class="edge"><title>Node7&#45;&gt;Node13</title>
<path fill="none" stroke="midnightblue" d="M823.866,-174.403C838.759,-164.691 863.229,-148.732 880.958,-137.17"/>
<polygon fill="midnightblue" stroke="midnightblue" points="883.063,-139.975 889.528,-131.581 879.239,-134.112 883.063,-139.975"/>
</g>
<!-- Node10&#45;&gt;Node5 -->
<g id="edge11" class="edge"><title>Node10&#45;&gt;Node5</title>
<path fill="none" stroke="midnightblue" d="M735.454,-112.463C760.678,-99.7143 809.982,-75.1508 852.684,-56 878.603,-44.3761 908.446,-32.1333 930.345,-23.3571"/>
<polygon fill="midnightblue" stroke="midnightblue" points="931.814,-26.5395 939.805,-19.5834 929.22,-20.0377 931.814,-26.5395"/>
</g>
<!-- Node10&#45;&gt;Node8 -->
<g id="edge12" class="edge"><title>Node10&#45;&gt;Node8</title>
<path fill="none" stroke="midnightblue" d="M697.792,-112.493C665.07,-99.3502 599.582,-73.7711 542.684,-56 492.753,-40.4047 433.62,-26.0334 398.458,-17.9083"/>
<polygon fill="midnightblue" stroke="midnightblue" points="398.881,-14.4145 388.352,-15.5928 397.317,-21.2377 398.881,-14.4145"/>
</g>
<!-- Node11 -->
<g id="node11" class="node"><title>Node11</title>
<polygon fill="white" stroke="#bfbfbf" points="615.684,-0.5 615.684,-19.5 669.684,-19.5 669.684,-0.5 615.684,-0.5"/>
<text text-anchor="middle" x="642.684" y="-7.5" font-family="Helvetica,sans-Serif" font-size="10.00">iostream</text>
</g>
<!-- Node10&#45;&gt;Node11 -->
<g id="edge13" class="edge"><title>Node10&#45;&gt;Node11</title>
<path fill="none" stroke="midnightblue" d="M703.157,-112.465C690.249,-104.603 672.331,-91.783 661.684,-76 652.336,-62.1414 647.511,-43.6255 645.068,-29.9012"/>
<polygon fill="midnightblue" stroke="midnightblue" points="648.483,-29.0728 643.53,-19.707 641.561,-30.1174 648.483,-29.0728"/>
</g>
<!-- Node12 -->
<g id="node12" class="node"><title>Node12</title>
<g id="a_node12"><a xlink:href="../../d3/d65/Particle_8hpp.html" target="_top" xlink:title="This class provides a internal container for information of a particle. ">
<polygon fill="white" stroke="red" points="670.684,-56.5 670.684,-75.5 762.684,-75.5 762.684,-56.5 670.684,-56.5"/>
<text text-anchor="middle" x="716.684" y="-63.5" font-family="Helvetica,sans-Serif" font-size="10.00">Core/Particle.hpp</text>
</a>
</g>
</g>
<!-- Node10&#45;&gt;Node12 -->
<g id="edge14" class="edge"><title>Node10&#45;&gt;Node12</title>
<path fill="none" stroke="midnightblue" d="M718.354,-112.083C718.092,-105.006 717.716,-94.8611 717.388,-85.9865"/>
<polygon fill="midnightblue" stroke="midnightblue" points="720.876,-85.6147 717.009,-75.7511 713.881,-85.8738 720.876,-85.6147"/>
</g>
<!-- Node12&#45;&gt;Node2 -->
<g id="edge16" class="edge"><title>Node12&#45;&gt;Node2</title>
<path fill="none" stroke="midnightblue" d="M670.618,-60.1603C568.076,-49.3875 323.1,-23.6507 234.966,-14.3914"/>
<polygon fill="midnightblue" stroke="midnightblue" points="235.089,-10.8852 224.778,-13.3211 234.357,-17.8469 235.089,-10.8852"/>
</g>
<!-- Node12&#45;&gt;Node5 -->
<g id="edge15" class="edge"><title>Node12&#45;&gt;Node5</title>
<path fill="none" stroke="midnightblue" d="M755.505,-56.4435C803.597,-45.8437 884.649,-27.9792 929.465,-18.1014"/>
<polygon fill="midnightblue" stroke="midnightblue" points="930.497,-21.458 939.509,-15.8876 928.99,-14.6221 930.497,-21.458"/>
</g>
<!-- Node12&#45;&gt;Node11 -->
<g id="edge17" class="edge"><title>Node12&#45;&gt;Node11</title>
<path fill="none" stroke="midnightblue" d="M704.795,-56.324C693.534,-48.1066 676.398,-35.6017 662.975,-25.8069"/>
<polygon fill="midnightblue" stroke="midnightblue" points="664.931,-22.9014 654.79,-19.8339 660.805,-28.5559 664.931,-22.9014"/>
</g>
<!-- Node13&#45;&gt;Node5 -->
<g id="edge21" class="edge"><title>Node13&#45;&gt;Node5</title>
<path fill="none" stroke="midnightblue" d="M918.729,-112.456C931.421,-104.752 948.346,-92.1584 956.684,-76 964.065,-61.6992 964.789,-43.2323 963.974,-29.6389"/>
<polygon fill="midnightblue" stroke="midnightblue" points="967.449,-29.1994 963.041,-19.5652 960.479,-29.8456 967.449,-29.1994"/>
</g>
<!-- Node13&#45;&gt;Node6 -->
<g id="edge20" class="edge"><title>Node13&#45;&gt;Node6</title>
<path fill="none" stroke="midnightblue" d="M928.354,-112.444C958.172,-102.504 1007.15,-86.1771 1037.57,-76.037"/>
<polygon fill="midnightblue" stroke="midnightblue" points="1038.74,-79.3363 1047.12,-72.8536 1036.53,-72.6955 1038.74,-79.3363"/>
</g>
<!-- Node13&#45;&gt;Node8 -->
<g id="edge19" class="edge"><title>Node13&#45;&gt;Node8</title>
<path fill="none" stroke="midnightblue" d="M882.084,-112.359C862.022,-103.753 830.817,-89.8604 804.684,-76 789.534,-67.9641 787.921,-61.5232 771.684,-56 702.467,-32.454 480.645,-17.5444 398.587,-12.7155"/>
<polygon fill="midnightblue" stroke="midnightblue" points="398.591,-9.21 388.405,-12.1262 398.186,-16.1983 398.591,-9.21"/>
</g>
<!-- Node13&#45;&gt;Node11 -->
<g id="edge22" class="edge"><title>Node13&#45;&gt;Node11</title>
<path fill="none" stroke="midnightblue" d="M892.18,-112.394C874.921,-98.6462 839.043,-71.6866 804.684,-56 763.776,-37.3227 713.434,-24.828 679.828,-17.8387"/>
<polygon fill="midnightblue" stroke="midnightblue" points="680.46,-14.3958 669.965,-15.8457 679.074,-21.2571 680.46,-14.3958"/>
</g>
<!-- Node14 -->
<g id="node14" class="node"><title>Node14</title>
<g id="a_node14"><a xlink:href="../../d2/de9/Exceptions_8hpp.html" target="_top" xlink:title="This class defines the ComPWA exception base&#45;class and provides a set of standard exceptions...">
<polygon fill="white" stroke="red" points="28.6844,-56.5 28.6844,-75.5 136.684,-75.5 136.684,-56.5 28.6844,-56.5"/>
<text text-anchor="middle" x="82.6844" y="-63.5" font-family="Helvetica,sans-Serif" font-size="10.00">Core/Exceptions.hpp</text>
</a>
</g>
</g>
<!-- Node13&#45;&gt;Node14 -->
<g id="edge23" class="edge"><title>Node13&#45;&gt;Node14</title>
<path fill="none" stroke="midnightblue" d="M860.159,-118.099C834.053,-116.324 799.935,-114.014 769.684,-112 540.812,-96.7604 269.019,-79.0812 147.271,-71.1839"/>
<polygon fill="midnightblue" stroke="midnightblue" points="147.219,-67.6733 137.013,-70.5187 146.765,-74.6586 147.219,-67.6733"/>
</g>
<!-- Node14&#45;&gt;Node8 -->
<g id="edge24" class="edge"><title>Node14&#45;&gt;Node8</title>
<path fill="none" stroke="midnightblue" d="M127.844,-56.4435C186.311,-45.3655 286.656,-26.3527 336.995,-16.8148"/>
<polygon fill="midnightblue" stroke="midnightblue" points="337.771,-20.2301 346.945,-14.9296 336.468,-13.3525 337.771,-20.2301"/>
</g>
<!-- Node15&#45;&gt;Node5 -->
<g id="edge26" class="edge"><title>Node15&#45;&gt;Node5</title>
<path fill="none" stroke="midnightblue" d="M937.525,-382.032C1015.97,-376.143 1114.17,-363.398 1143.68,-336 1171.5,-310.186 1163.68,-290.945 1163.68,-253 1163.68,-253 1163.68,-253 1163.68,-121 1163.68,-44.4997 1050.56,-20.8944 993.624,-13.8584"/>
<polygon fill="midnightblue" stroke="midnightblue" points="994.018,-10.3807 983.687,-12.7284 993.227,-17.3359 994.018,-10.3807"/>
</g>
<!-- Node15&#45;&gt;Node13 -->
<g id="edge27" class="edge"><title>Node15&#45;&gt;Node13</title>
<path fill="none" stroke="midnightblue" d="M845.686,-372.782C865.161,-351.898 899.515,-310.752 912.684,-268 926.194,-224.144 915.463,-169.423 908.114,-141.406"/>
<polygon fill="midnightblue" stroke="midnightblue" points="911.48,-140.446 905.431,-131.748 904.736,-142.32 911.48,-140.446"/>
</g>
<!-- Node15&#45;&gt;Node14 -->
<g id="edge57" class="edge"><title>Node15&#45;&gt;Node14</title>
<path fill="none" stroke="midnightblue" d="M725.949,-379.694C512.589,-363.528 50.6844,-320.711 50.6844,-253 50.6844,-253 50.6844,-253 50.6844,-183 50.6844,-147.111 65.095,-107.151 74.5752,-84.7464"/>
<polygon fill="midnightblue" stroke="midnightblue" points="77.8158,-86.0718 78.6316,-75.5084 71.4064,-83.2574 77.8158,-86.0718"/>
</g>
<!-- Node16 -->
<g id="node16" class="node"><title>Node16</title>
<g id="a_node16"><a xlink:href="../../dc/d66/Functions_8hpp.html" target="_top" xlink:title="This file contains Functions implementing the Strategy interface so they can be used inside a node of...">
<polygon fill="white" stroke="black" points="404.684,-310.5 404.684,-329.5 506.684,-329.5 506.684,-310.5 404.684,-310.5"/>
<text text-anchor="middle" x="455.684" y="-317.5" font-family="Helvetica,sans-Serif" font-size="10.00">Core/Functions.hpp</text>
</a>
</g>
</g>
<!-- Node15&#45;&gt;Node16 -->
<g id="edge28" class="edge"><title>Node15&#45;&gt;Node16</title>
<path fill="none" stroke="midnightblue" d="M751.484,-372.922C680.24,-360.417 577.799,-342.435 514.072,-331.249"/>
<polygon fill="midnightblue" stroke="midnightblue" points="514.642,-327.795 504.187,-329.514 513.431,-334.69 514.642,-327.795"/>
</g>
<!-- Node22 -->
<g id="node22" class="node"><title>Node22</title>
<g id="a_node22"><a xlink:href="../../de/d02/AbstractDynamicalFunction_8hpp.html" target="_top" xlink:title="Physics/DynamicalDecayFunctions\l/AbstractDynamicalFunction.hpp">
<polygon fill="white" stroke="black" points="492.184,-237 492.184,-267 665.184,-267 665.184,-237 492.184,-237"/>
<text text-anchor="start" x="500.184" y="-255" font-family="Helvetica,sans-Serif" font-size="10.00">Physics/DynamicalDecayFunctions</text>
<text text-anchor="middle" x="578.684" y="-244" font-family="Helvetica,sans-Serif" font-size="10.00">/AbstractDynamicalFunction.hpp</text>
</a>
</g>
</g>
<!-- Node15&#45;&gt;Node22 -->
<g id="edge58" class="edge"><title>Node15&#45;&gt;Node22</title>
<path fill="none" stroke="midnightblue" d="M805.087,-372.913C759.344,-348.685 665.749,-299.113 614.384,-271.908"/>
<polygon fill="midnightblue" stroke="midnightblue" points="615.78,-268.687 605.305,-267.099 612.504,-274.873 615.78,-268.687"/>
</g>
<!-- Node24 -->
<g id="node24" class="node"><title>Node24</title>
<g id="a_node24"><a xlink:href="../../dd/db0/ParticleStateDefinitions_8hpp.html" target="_top" xlink:title="Physics/HelicityAmplitude\l/ParticleStateDefinitions.hpp">
<polygon fill="white" stroke="red" points="994.184,-305 994.184,-335 1135.18,-335 1135.18,-305 994.184,-305"/>
<text text-anchor="start" x="1002.18" y="-323" font-family="Helvetica,sans-Serif" font-size="10.00">Physics/HelicityAmplitude</text>
<text text-anchor="middle" x="1064.68" y="-312" font-family="Helvetica,sans-Serif" font-size="10.00">/ParticleStateDefinitions.hpp</text>
</a>
</g>
</g>
<!-- Node15&#45;&gt;Node24 -->
<g id="edge62" class="edge"><title>Node15&#45;&gt;Node24</title>
<path fill="none" stroke="midnightblue" d="M881.383,-372.922C917.576,-362.67 966.761,-348.738 1005.07,-337.887"/>
<polygon fill="midnightblue" stroke="midnightblue" points="1006.39,-341.149 1015.06,-335.056 1004.49,-334.414 1006.39,-341.149"/>
</g>
<!-- Node16&#45;&gt;Node5 -->
<g id="edge29" class="edge"><title>Node16&#45;&gt;Node5</title>
<path fill="none" stroke="midnightblue" d="M506.701,-316.293C609.705,-310.342 838.967,-294.501 912.684,-268 1022.19,-228.635 1060.07,-188.263 1090.68,-76 1093.02,-67.4243 1095.83,-63.247 1090.68,-56 1068.88,-25.2953 1024.5,-15.3677 993.932,-12.2557"/>
<polygon fill="midnightblue" stroke="midnightblue" points="994.011,-8.75044 983.757,-11.4163 993.436,-15.7267 994.011,-8.75044"/>
</g>
<!-- Node16&#45;&gt;Node9 -->
<g id="edge30" class="edge"><title>Node16&#45;&gt;Node9</title>
<path fill="none" stroke="midnightblue" d="M446.451,-310.339C423.29,-287.519 366.017,-223.661 386.684,-168 400.126,-131.8 433.003,-99.8835 454.271,-82.0442"/>
<polygon fill="midnightblue" stroke="midnightblue" points="456.51,-84.7352 462.055,-75.7072 452.09,-79.3068 456.51,-84.7352"/>
</g>
<!-- Node16&#45;&gt;Node14 -->
<g id="edge32" class="edge"><title>Node16&#45;&gt;Node14</title>
<path fill="none" stroke="midnightblue" d="M410.779,-310.469C375.612,-302.626 326.201,-288.99 286.684,-268 202.149,-223.098 181.527,-205.062 119.684,-132 107.518,-117.626 97.2612,-98.6763 90.6555,-84.9491"/>
<polygon fill="midnightblue" stroke="midnightblue" points="93.7203,-83.2379 86.3446,-75.632 87.3674,-86.1774 93.7203,-83.2379"/>
</g>
<!-- Node17 -->
<g id="node17" class="node"><title>Node17</title>
<polygon fill="white" stroke="#bfbfbf" points="691.184,-174.5 691.184,-193.5 738.184,-193.5 738.184,-174.5 691.184,-174.5"/>
<text text-anchor="middle" x="714.684" y="-181.5" font-family="Helvetica,sans-Serif" font-size="10.00">math.h</text>
</g>
<!-- Node16&#45;&gt;Node17 -->
<g id="edge31" class="edge"><title>Node16&#45;&gt;Node17</title>
<path fill="none" stroke="midnightblue" d="M506.83,-319.039C554.723,-316.525 625.886,-305.938 673.684,-268 694.205,-251.713 705.216,-222.515 710.508,-203.452"/>
<polygon fill="midnightblue" stroke="midnightblue" points="713.948,-204.125 712.991,-193.573 707.159,-202.418 713.948,-204.125"/>
</g>
<!-- Node18 -->
<g id="node18" class="node"><title>Node18</title>
<g id="a_node18"><a xlink:href="../../df/d9f/ParameterList_8hpp.html" target="_top" xlink:title="This class provides a list of fit parameters which can have different types. ">
<polygon fill="white" stroke="red" points="395.684,-174.5 395.684,-193.5 515.684,-193.5 515.684,-174.5 395.684,-174.5"/>
<text text-anchor="middle" x="455.684" y="-181.5" font-family="Helvetica,sans-Serif" font-size="10.00">Core/ParameterList.hpp</text>
</a>
</g>
</g>
<!-- Node16&#45;&gt;Node18 -->
<g id="edge33" class="edge"><title>Node16&#45;&gt;Node18</title>
<path fill="none" stroke="midnightblue" d="M455.684,-310.208C455.684,-288.722 455.684,-233.167 455.684,-203.814"/>
<polygon fill="midnightblue" stroke="midnightblue" points="459.185,-203.65 455.684,-193.65 452.185,-203.65 459.185,-203.65"/>
</g>
<!-- Node19 -->
<g id="node19" class="node"><title>Node19</title>
<g id="a_node19"><a xlink:href="../../d8/def/AbsParameter_8hpp.html" target="_top" xlink:title="This class defines the internal container of a parameter. ">
<polygon fill="white" stroke="red" points="306.684,-56.5 306.684,-75.5 428.684,-75.5 428.684,-56.5 306.684,-56.5"/>
<text text-anchor="middle" x="367.684" y="-63.5" font-family="Helvetica,sans-Serif" font-size="10.00">Core/AbsParameter.hpp</text>
</a>
</g>
</g>
<!-- Node16&#45;&gt;Node19 -->
<g id="edge50" class="edge"><title>Node16&#45;&gt;Node19</title>
<path fill="none" stroke="midnightblue" d="M438.329,-310.456C422.934,-301.917 401.16,-287.29 389.684,-268 354.716,-209.216 360.233,-123.478 364.864,-85.8679"/>
<polygon fill="midnightblue" stroke="midnightblue" points="368.351,-86.2041 366.227,-75.8242 361.414,-85.2626 368.351,-86.2041"/>
</g>
<!-- Node20 -->
<g id="node20" class="node"><title>Node20</title>
<g id="a_node20"><a xlink:href="../../db/dce/Parameter_8hpp.html" target="_top" xlink:title="This class implements some internal container of parameters. ">
<polygon fill="white" stroke="red" points="197.684,-112.5 197.684,-131.5 301.684,-131.5 301.684,-112.5 197.684,-112.5"/>
<text text-anchor="middle" x="249.684" y="-119.5" font-family="Helvetica,sans-Serif" font-size="10.00">Core/Parameter.hpp</text>
</a>
</g>
</g>
<!-- Node16&#45;&gt;Node20 -->
<g id="edge49" class="edge"><title>Node16&#45;&gt;Node20</title>
<path fill="none" stroke="midnightblue" d="M404.591,-310.53C375.538,-303.433 340.18,-290.66 315.684,-268 277.877,-233.025 260.151,-172.213 253.296,-141.655"/>
<polygon fill="midnightblue" stroke="midnightblue" points="256.654,-140.614 251.182,-131.542 249.802,-142.047 256.654,-140.614"/>
</g>
<!-- Node21 -->
<g id="node21" class="node"><title>Node21</title>
<g id="a_node21"><a xlink:href="../../d8/dd4/DataPoint_8hpp.html" target="_top" xlink:title="dataPoint stores kinematic information of a dalitz plot ">
<polygon fill="white" stroke="red" points="801.184,-242.5 801.184,-261.5 904.184,-261.5 904.184,-242.5 801.184,-242.5"/>
<text text-anchor="middle" x="852.684" y="-249.5" font-family="Helvetica,sans-Serif" font-size="10.00">Core/DataPoint.hpp</text>
</a>
</g>
</g>
<!-- Node16&#45;&gt;Node21 -->
<g id="edge51" class="edge"><title>Node16&#45;&gt;Node21</title>
<path fill="none" stroke="midnightblue" d="M506.773,-310.507C579.626,-298.395 713.171,-276.194 791.301,-263.205"/>
<polygon fill="midnightblue" stroke="midnightblue" points="792.188,-266.605 801.478,-261.513 791.04,-259.7 792.188,-266.605"/>
</g>
<!-- Node18&#45;&gt;Node5 -->
<g id="edge36" class="edge"><title>Node18&#45;&gt;Node5</title>
<path fill="none" stroke="midnightblue" d="M515.823,-174.675C600.342,-162.756 746.579,-141.247 769.684,-132 825.193,-109.785 829.83,-87.4411 880.684,-56 898.985,-44.6853 920.274,-32.9101 936.432,-24.2442"/>
<polygon fill="midnightblue" stroke="midnightblue" points="938.109,-27.3165 945.292,-19.528 934.82,-21.1374 938.109,-27.3165"/>
</g>
<!-- Node18&#45;&gt;Node6 -->
<g id="edge37" class="edge"><title>Node18&#45;&gt;Node6</title>
<path fill="none" stroke="midnightblue" d="M512.816,-174.48C528.923,-172.217 546.474,-169.881 562.684,-168 736.034,-147.881 787.532,-185.367 953.684,-132 988.66,-120.766 1024.52,-97.1305 1045.68,-81.67"/>
<polygon fill="midnightblue" stroke="midnightblue" points="1047.89,-84.3911 1053.81,-75.6045 1043.7,-78.7815 1047.89,-84.3911"/>
</g>
<!-- Node18&#45;&gt;Node8 -->
<g id="edge35" class="edge"><title>Node18&#45;&gt;Node8</title>
<path fill="none" stroke="midnightblue" d="M395.43,-180.15C324.892,-175.403 214.4,-163.093 188.684,-132 141.241,-74.637 274.923,-33.4962 337.422,-17.8983"/>
<polygon fill="midnightblue" stroke="midnightblue" points="338.265,-21.2955 347.155,-15.5324 336.611,-14.4936 338.265,-21.2955"/>
</g>
<!-- Node18&#45;&gt;Node11 -->
<g id="edge34" class="edge"><title>Node18&#45;&gt;Node11</title>
<path fill="none" stroke="midnightblue" d="M464.958,-174.47C494.556,-147.246 587.078,-62.1459 625.594,-26.7199"/>
<polygon fill="midnightblue" stroke="midnightblue" points="628.364,-28.9268 633.355,-19.581 623.626,-23.7747 628.364,-28.9268"/>
</g>
<!-- Node18&#45;&gt;Node14 -->
<g id="edge48" class="edge"><title>Node18&#45;&gt;Node14</title>
<path fill="none" stroke="midnightblue" d="M395.448,-183.221C331.499,-181.176 229.051,-171.244 150.684,-132 127.979,-120.63 107.77,-99.0937 95.4009,-83.9346"/>
<polygon fill="midnightblue" stroke="midnightblue" points="97.9951,-81.5713 89.0643,-75.8711 92.4912,-85.8965 97.9951,-81.5713"/>
</g>
<!-- Node18&#45;&gt;Node19 -->
<g id="edge38" class="edge"><title>Node18&#45;&gt;Node19</title>
<path fill="none" stroke="midnightblue" d="M449.07,-174.281C434.474,-155.041 399.301,-108.677 380.326,-83.6641"/>
<polygon fill="midnightblue" stroke="midnightblue" points="382.969,-81.3563 374.136,-75.5048 377.392,-85.5871 382.969,-81.3563"/>
</g>
<!-- Node18&#45;&gt;Node20 -->
<g id="edge41" class="edge"><title>Node18&#45;&gt;Node20</title>
<path fill="none" stroke="midnightblue" d="M426.17,-174.403C390.069,-163.889 328.836,-146.054 288.83,-134.402"/>
<polygon fill="midnightblue" stroke="midnightblue" points="289.724,-131.017 279.144,-131.581 287.767,-137.737 289.724,-131.017"/>
</g>
<!-- Node19&#45;&gt;Node5 -->
<g id="edge40" class="edge"><title>Node19&#45;&gt;Node5</title>
<path fill="none" stroke="midnightblue" d="M428.75,-56.9946C431.77,-56.6471 434.761,-56.3134 437.684,-56 623.404,-36.0953 846.905,-19.2676 929.218,-13.3092"/>
<polygon fill="midnightblue" stroke="midnightblue" points="929.712,-16.7827 939.435,-12.573 929.209,-9.80079 929.712,-16.7827"/>
</g>
<!-- Node19&#45;&gt;Node8 -->
<g id="edge39" class="edge"><title>Node19&#45;&gt;Node8</title>
<path fill="none" stroke="midnightblue" d="M367.684,-56.083C367.684,-49.0059 367.684,-38.8611 367.684,-29.9865"/>
<polygon fill="midnightblue" stroke="midnightblue" points="371.185,-29.751 367.684,-19.7511 364.185,-29.7511 371.185,-29.751"/>
</g>
<!-- Node20&#45;&gt;Node2 -->
<g id="edge45" class="edge"><title>Node20&#45;&gt;Node2</title>
<path fill="none" stroke="midnightblue" d="M244.785,-112.186C239.896,-103.221 232.32,-88.8572 226.684,-76 219.893,-60.5067 213.321,-42.4212 208.777,-29.2664"/>
<polygon fill="midnightblue" stroke="midnightblue" points="212.004,-27.8858 205.476,-19.5413 205.376,-30.1357 212.004,-27.8858"/>
</g>
<!-- Node20&#45;&gt;Node8 -->
<g id="edge43" class="edge"><title>Node20&#45;&gt;Node8</title>
<path fill="none" stroke="midnightblue" d="M249.347,-112.358C249.279,-98.802 251.073,-72.3963 264.684,-56 282.843,-34.1254 313.692,-22.5742 336.906,-16.6808"/>
<polygon fill="midnightblue" stroke="midnightblue" points="338.008,-20.0184 346.962,-14.3545 336.431,-13.1985 338.008,-20.0184"/>
</g>
<!-- Node20&#45;&gt;Node9 -->
<g id="edge44" class="edge"><title>Node20&#45;&gt;Node9</title>
<path fill="none" stroke="midnightblue" d="M285.751,-112.48C321.62,-103.983 378.478,-90.4444 437.144,-76.1139"/>
<polygon fill="midnightblue" stroke="midnightblue" points="438.074,-79.4898 446.955,-73.7139 436.41,-72.6903 438.074,-79.4898"/>
</g>
<!-- Node20&#45;&gt;Node11 -->
<g id="edge42" class="edge"><title>Node20&#45;&gt;Node11</title>
<path fill="none" stroke="midnightblue" d="M253.445,-112.048C260.05,-97.5539 275.201,-69.2403 297.684,-56 349.135,-25.7013 526.876,-15.3621 605.162,-12.2243"/>
<polygon fill="midnightblue" stroke="midnightblue" points="605.666,-15.7077 615.525,-11.8281 605.399,-8.71283 605.666,-15.7077"/>
</g>
<!-- Node20&#45;&gt;Node14 -->
<g id="edge47" class="edge"><title>Node20&#45;&gt;Node14</title>
<path fill="none" stroke="midnightblue" d="M223.223,-112.444C195.006,-103.32 150.144,-88.8133 118.716,-78.6509"/>
<polygon fill="midnightblue" stroke="midnightblue" points="119.614,-75.263 109.022,-75.5164 117.46,-81.9234 119.614,-75.263"/>
</g>
<!-- Node20&#45;&gt;Node19 -->
<g id="edge46" class="edge"><title>Node20&#45;&gt;Node19</title>
<path fill="none" stroke="midnightblue" d="M268.382,-112.444C287.629,-103.636 317.837,-89.8116 339.885,-79.722"/>
<polygon fill="midnightblue" stroke="midnightblue" points="341.438,-82.8603 349.074,-75.5164 338.525,-76.4951 341.438,-82.8603"/>
</g>
<!-- Node21&#45;&gt;Node5 -->
<g id="edge53" class="edge"><title>Node21&#45;&gt;Node5</title>
<path fill="none" stroke="midnightblue" d="M862.054,-242.319C881.576,-223.781 927.003,-178.236 953.684,-132 971.142,-101.748 978.223,-90.6317 973.684,-56 972.529,-47.1813 970.151,-37.6328 967.814,-29.6098"/>
<polygon fill="midnightblue" stroke="midnightblue" points="971.084,-28.3366 964.772,-19.8268 964.399,-30.4151 971.084,-28.3366"/>
</g>
<!-- Node21&#45;&gt;Node6 -->
<g id="edge54" class="edge"><title>Node21&#45;&gt;Node6</title>
<path fill="none" stroke="midnightblue" d="M896.424,-242.5C924.958,-235.156 961.607,-222.126 987.684,-200 1025.03,-168.316 1048.41,-113.694 1058.65,-85.3145"/>
<polygon fill="midnightblue" stroke="midnightblue" points="1061.97,-86.4201 1061.93,-75.8254 1055.35,-84.131 1061.97,-86.4201"/>
</g>
<!-- Node21&#45;&gt;Node7 -->
<g id="edge55" class="edge"><title>Node21&#45;&gt;Node7</title>
<path fill="none" stroke="midnightblue" d="M847.194,-242.372C840.752,-232.25 829.912,-215.215 821.713,-202.331"/>
<polygon fill="midnightblue" stroke="midnightblue" points="824.632,-200.399 816.311,-193.841 818.727,-204.157 824.632,-200.399"/>
</g>
<!-- Node21&#45;&gt;Node10 -->
<g id="edge56" class="edge"><title>Node21&#45;&gt;Node10</title>
<path fill="none" stroke="midnightblue" d="M859.179,-242.31C870.441,-226.098 890.822,-190.82 873.684,-168 861.197,-151.372 811.088,-138.899 771.179,-131.352"/>
<polygon fill="midnightblue" stroke="midnightblue" points="771.749,-127.898 761.282,-129.54 770.488,-134.784 771.749,-127.898"/>
</g>
<!-- Node21&#45;&gt;Node17 -->
<g id="edge52" class="edge"><title>Node21&#45;&gt;Node17</title>
<path fill="none" stroke="midnightblue" d="M834.643,-242.372C810.985,-231.057 769.268,-211.105 741.799,-197.968"/>
<polygon fill="midnightblue" stroke="midnightblue" points="743.261,-194.788 732.73,-193.63 740.241,-201.103 743.261,-194.788"/>
</g>
<!-- Node22&#45;&gt;Node9 -->
<g id="edge59" class="edge"><title>Node22&#45;&gt;Node9</title>
<path fill="none" stroke="midnightblue" d="M570.62,-236.867C551.745,-203.792 504.724,-121.393 483.894,-84.8905"/>
<polygon fill="midnightblue" stroke="midnightblue" points="486.754,-82.8418 478.758,-75.8912 480.675,-86.3113 486.754,-82.8418"/>
</g>
<!-- Node22&#45;&gt;Node18 -->
<g id="edge61" class="edge"><title>Node22&#45;&gt;Node18</title>
<path fill="none" stroke="midnightblue" d="M552.298,-236.841C531.118,-225.476 501.582,-209.628 480.758,-198.454"/>
<polygon fill="midnightblue" stroke="midnightblue" points="482.331,-195.326 471.864,-193.682 479.021,-201.494 482.331,-195.326"/>
</g>
<!-- Node23 -->
<g id="node23" class="node"><title>Node23</title>
<polygon fill="white" stroke="#bfbfbf" points="572.184,-169 572.184,-199 673.184,-199 673.184,-169 572.184,-169"/>
<text text-anchor="start" x="580.184" y="-187" font-family="Helvetica,sans-Serif" font-size="10.00">boost/property_tree</text>
<text text-anchor="middle" x="622.684" y="-176" font-family="Helvetica,sans-Serif" font-size="10.00">/ptree_fwd.hpp</text>
</g>
<!-- Node22&#45;&gt;Node23 -->
<g id="edge60" class="edge"><title>Node22&#45;&gt;Node23</title>
<path fill="none" stroke="midnightblue" d="M588.232,-236.679C593.882,-228.203 601.167,-217.276 607.581,-207.655"/>
<polygon fill="midnightblue" stroke="midnightblue" points="610.521,-209.555 613.156,-199.293 604.696,-205.672 610.521,-209.555"/>
</g>
<!-- Node24&#45;&gt;Node3 -->
<g id="edge64" class="edge"><title>Node24&#45;&gt;Node3</title>
<path fill="none" stroke="midnightblue" d="M1102.87,-304.841C1129.94,-294.802 1166.45,-281.265 1195.38,-270.542"/>
<polygon fill="midnightblue" stroke="midnightblue" points="1196.71,-273.78 1204.87,-267.022 1194.27,-267.217 1196.71,-273.78"/>
</g>
<!-- Node24&#45;&gt;Node6 -->
<g id="edge63" class="edge"><title>Node24&#45;&gt;Node6</title>
<path fill="none" stroke="midnightblue" d="M1064.68,-304.729C1064.68,-261.829 1064.68,-134.021 1064.68,-85.7447"/>
<polygon fill="midnightblue" stroke="midnightblue" points="1068.18,-85.5175 1064.68,-75.5176 1061.18,-85.5176 1068.18,-85.5175"/>
</g>
<!-- Node24&#45;&gt;Node13 -->
<g id="edge65" class="edge"><title>Node24&#45;&gt;Node13</title>
<path fill="none" stroke="midnightblue" d="M1054.44,-304.847C1034.56,-277.611 988.964,-216.328 946.684,-168 937.871,-157.926 927.418,-147.189 918.911,-138.731"/>
<polygon fill="midnightblue" stroke="midnightblue" points="921.334,-136.204 911.75,-131.687 916.425,-141.195 921.334,-136.204"/>
</g>
</g>
</svg>
