<?xml version="1.0" encoding="UTF-8" standalone="no"?>
<!DOCTYPE svg PUBLIC "-//W3C//DTD SVG 1.1//EN"
 "http://www.w3.org/Graphics/SVG/1.1/DTD/svg11.dtd">
<!-- Generated by graphviz version 2.36.0 (20140111.2315)
 -->
<!-- Title: /home/travis/build/ComPWA/ComPWA/DataReader/CorrectionTable.hpp Pages: 1 -->
<svg width="1825pt" height="530pt"
 viewBox="0.00 0.00 1825.00 530.00" xmlns="http://www.w3.org/2000/svg" xmlns:xlink="http://www.w3.org/1999/xlink">
<g id="graph0" class="graph" transform="scale(1 1) rotate(0) translate(4 526)">
<title>/home/travis/build/ComPWA/ComPWA/DataReader/CorrectionTable.hpp</title>
<polygon fill="white" stroke="none" points="-4,4 -4,-526 1821,-526 1821,4 -4,4"/>
<!-- Node1 -->
<g id="node1" class="node"><title>Node1</title>
<polygon fill="#bfbfbf" stroke="black" points="560.5,-480.5 560.5,-521.5 727.5,-521.5 727.5,-480.5 560.5,-480.5"/>
<text text-anchor="start" x="568.5" y="-509.5" font-family="Helvetica,sans-Serif" font-size="10.00">/home/travis/build</text>
<text text-anchor="start" x="568.5" y="-498.5" font-family="Helvetica,sans-Serif" font-size="10.00">/ComPWA/ComPWA/DataReader</text>
<text text-anchor="middle" x="644" y="-487.5" font-family="Helvetica,sans-Serif" font-size="10.00">/CorrectionTable.hpp</text>
</g>
<!-- Node2 -->
<g id="node2" class="node"><title>Node2</title>
<g id="a_node2"><a xlink:href="../../d5/d8c/CorrectionTable_8cpp.html" target="_top" xlink:title="/home/travis/build\l/ComPWA/ComPWA/DataReader\l/CorrectionTable.cpp">
<polygon fill="white" stroke="black" points="-0.5,-402.5 -0.5,-443.5 166.5,-443.5 166.5,-402.5 -0.5,-402.5"/>
<text text-anchor="start" x="7.5" y="-431.5" font-family="Helvetica,sans-Serif" font-size="10.00">/home/travis/build</text>
<text text-anchor="start" x="7.5" y="-420.5" font-family="Helvetica,sans-Serif" font-size="10.00">/ComPWA/ComPWA/DataReader</text>
<text text-anchor="middle" x="83" y="-409.5" font-family="Helvetica,sans-Serif" font-size="10.00">/CorrectionTable.cpp</text>
</a>
</g>
</g>
<!-- Node1&#45;&gt;Node2 -->
<g id="edge1" class="edge"><title>Node1&#45;&gt;Node2</title>
<path fill="none" stroke="midnightblue" d="M550.255,-491C456.304,-481.437 307.682,-464.831 180,-444 175.588,-443.28 171.071,-442.5 166.517,-441.68"/>
<polygon fill="midnightblue" stroke="midnightblue" points="550.002,-494.492 560.304,-492.017 550.707,-487.527 550.002,-494.492"/>
</g>
<!-- Node3 -->
<g id="node3" class="node"><title>Node3</title>
<g id="a_node3"><a xlink:href="../../d2/dee/DataCorrection_8hpp.html" target="_top" xlink:title="/home/travis/build\l/ComPWA/ComPWA/DataReader\l/DataCorrection.hpp">
<polygon fill="white" stroke="black" points="805.5,-402.5 805.5,-443.5 972.5,-443.5 972.5,-402.5 805.5,-402.5"/>
<text text-anchor="start" x="813.5" y="-431.5" font-family="Helvetica,sans-Serif" font-size="10.00">/home/travis/build</text>
<text text-anchor="start" x="813.5" y="-420.5" font-family="Helvetica,sans-Serif" font-size="10.00">/ComPWA/ComPWA/DataReader</text>
<text text-anchor="middle" x="889" y="-409.5" font-family="Helvetica,sans-Serif" font-size="10.00">/DataCorrection.hpp</text>
</a>
</g>
</g>
<!-- Node1&#45;&gt;Node3 -->
<g id="edge2" class="edge"><title>Node1&#45;&gt;Node3</title>
<path fill="none" stroke="midnightblue" d="M716.719,-477.442C751.494,-466.655 792.718,-453.867 826.12,-443.506"/>
<polygon fill="midnightblue" stroke="midnightblue" points="715.608,-474.122 707.094,-480.428 717.682,-480.808 715.608,-474.122"/>
</g>
<!-- Node10 -->
<g id="node10" class="node"><title>Node10</title>
<g id="a_node10"><a xlink:href="../../db/d7b/DalitzFitD03K_8cpp.html" target="_top" xlink:title="/home/travis/build\l/ComPWA/ComPWA/Examples\l/DalitzAnalysis_D0KsKK\l/DalitzFitD03K.cpp">
<polygon fill="white" stroke="black" points="484,-79 484,-131 642,-131 642,-79 484,-79"/>
<text text-anchor="start" x="492" y="-119" font-family="Helvetica,sans-Serif" font-size="10.00">/home/travis/build</text>
<text text-anchor="start" x="492" y="-108" font-family="Helvetica,sans-Serif" font-size="10.00">/ComPWA/ComPWA/Examples</text>
<text text-anchor="start" x="492" y="-97" font-family="Helvetica,sans-Serif" font-size="10.00">/DalitzAnalysis_D0KsKK</text>
<text text-anchor="middle" x="563" y="-86" font-family="Helvetica,sans-Serif" font-size="10.00">/DalitzFitD03K.cpp</text>
</a>
</g>
</g>
<!-- Node1&#45;&gt;Node10 -->
<g id="edge40" class="edge"><title>Node1&#45;&gt;Node10</title>
<path fill="none" stroke="midnightblue" d="M550.287,-483.477C478.847,-466.107 383.144,-431.759 325,-366 301.141,-339.016 307.935,-323.679 303,-288 295.591,-234.441 284.802,-206.267 323,-168 345.612,-145.347 422.976,-128.087 483.83,-117.6"/>
<polygon fill="midnightblue" stroke="midnightblue" points="549.663,-486.926 560.199,-485.817 551.271,-480.113 549.663,-486.926"/>
</g>
<!-- Node12 -->
<g id="node12" class="node"><title>Node12</title>
<g id="a_node12"><a xlink:href="../../db/deb/PythonFit_8hpp.html" target="_top" xlink:title="This class provides a Manager for simple fits. ">
<polygon fill="white" stroke="red" points="950,-84.5 950,-125.5 1108,-125.5 1108,-84.5 950,-84.5"/>
<text text-anchor="start" x="958" y="-113.5" font-family="Helvetica,sans-Serif" font-size="10.00">/home/travis/build</text>
<text text-anchor="start" x="958" y="-102.5" font-family="Helvetica,sans-Serif" font-size="10.00">/ComPWA/ComPWA/Examples</text>
<text text-anchor="middle" x="1029" y="-91.5" font-family="Helvetica,sans-Serif" font-size="10.00">/PythonDalitzFit/PythonFit.hpp</text>
</a>
</g>
</g>
<!-- Node1&#45;&gt;Node12 -->
<g id="edge41" class="edge"><title>Node1&#45;&gt;Node12</title>
<path fill="none" stroke="midnightblue" d="M738.294,-497.286C1013.78,-488.114 1798,-452.638 1798,-346 1798,-346 1798,-346 1798,-266 1798,-218.956 1795.9,-195.87 1758,-168 1706.55,-130.164 1285.98,-113.511 1108.04,-108.11"/>
<polygon fill="midnightblue" stroke="midnightblue" points="737.802,-493.8 727.922,-497.627 738.032,-500.796 737.802,-493.8"/>
</g>
<!-- Node4 -->
<g id="node4" class="node"><title>Node4</title>
<g id="a_node4"><a xlink:href="../../d2/d4b/Data_8hpp.html" target="_top" xlink:title="/home/travis/build\l/ComPWA/ComPWA/DataReader\l/Data.hpp">
<polygon fill="white" stroke="black" points="1030.5,-324.5 1030.5,-365.5 1197.5,-365.5 1197.5,-324.5 1030.5,-324.5"/>
<text text-anchor="start" x="1038.5" y="-353.5" font-family="Helvetica,sans-Serif" font-size="10.00">/home/travis/build</text>
<text text-anchor="start" x="1038.5" y="-342.5" font-family="Helvetica,sans-Serif" font-size="10.00">/ComPWA/ComPWA/DataReader</text>
<text text-anchor="middle" x="1114" y="-331.5" font-family="Helvetica,sans-Serif" font-size="10.00">/Data.hpp</text>
</a>
</g>
</g>
<!-- Node3&#45;&gt;Node4 -->
<g id="edge3" class="edge"><title>Node3&#45;&gt;Node4</title>
<path fill="none" stroke="midnightblue" d="M956.603,-399.165C988.365,-388.437 1025.84,-375.779 1056.25,-365.506"/>
<polygon fill="midnightblue" stroke="midnightblue" points="955.297,-395.912 946.943,-402.428 957.537,-402.544 955.297,-395.912"/>
</g>
<!-- Node3&#45;&gt;Node10 -->
<g id="edge38" class="edge"><title>Node3&#45;&gt;Node10</title>
<path fill="none" stroke="midnightblue" d="M795.197,-419.865C668.127,-415.596 449.097,-402.962 379,-366 338.575,-344.685 327.878,-330.853 312,-288 280.535,-203.079 398.848,-151.168 483.654,-125.559"/>
<polygon fill="midnightblue" stroke="midnightblue" points="795.206,-423.367 805.314,-420.193 795.433,-416.37 795.206,-423.367"/>
</g>
<!-- Node3&#45;&gt;Node12 -->
<g id="edge39" class="edge"><title>Node3&#45;&gt;Node12</title>
<path fill="none" stroke="midnightblue" d="M982.809,-413.51C1185.1,-392.99 1651.3,-333.062 1740,-210 1750.91,-194.857 1752.61,-181.761 1740,-168 1697.98,-122.158 1284.64,-110.087 1108.19,-107.011"/>
<polygon fill="midnightblue" stroke="midnightblue" points="982.392,-410.034 972.792,-414.515 983.092,-416.999 982.392,-410.034"/>
</g>
<!-- Node19 -->
<g id="node19" class="node"><title>Node19</title>
<g id="a_node19"><a xlink:href="../../df/d53/RootReader_8hpp.html" target="_top" xlink:title="This class reads event&#45;based data from root&#45;files. ">
<polygon fill="white" stroke="red" points="479.5,-168.5 479.5,-209.5 646.5,-209.5 646.5,-168.5 479.5,-168.5"/>
<text text-anchor="start" x="487.5" y="-197.5" font-family="Helvetica,sans-Serif" font-size="10.00">/home/travis/build</text>
<text text-anchor="start" x="487.5" y="-186.5" font-family="Helvetica,sans-Serif" font-size="10.00">/ComPWA/ComPWA/DataReader</text>
<text text-anchor="middle" x="563" y="-175.5" font-family="Helvetica,sans-Serif" font-size="10.00">/RootReader/RootReader.hpp</text>
</a>
</g>
</g>
<!-- Node3&#45;&gt;Node19 -->
<g id="edge37" class="edge"><title>Node3&#45;&gt;Node19</title>
<path fill="none" stroke="midnightblue" d="M795.102,-413.488C650.373,-398.208 383.437,-360.712 326,-288 280.116,-229.914 393.78,-205.941 479.117,-196.272"/>
<polygon fill="midnightblue" stroke="midnightblue" points="794.998,-416.996 805.307,-414.55 795.723,-410.034 794.998,-416.996"/>
</g>
<!-- Node22 -->
<g id="node22" class="node"><title>Node22</title>
<g id="a_node22"><a xlink:href="../../d6/de4/DataCorrection_8cpp.html" target="_top" xlink:title="/home/travis/build\l/ComPWA/ComPWA/DataReader\l/DataCorrection.cpp">
<polygon fill="white" stroke="black" points="1603.5,-324.5 1603.5,-365.5 1770.5,-365.5 1770.5,-324.5 1603.5,-324.5"/>
<text text-anchor="start" x="1611.5" y="-353.5" font-family="Helvetica,sans-Serif" font-size="10.00">/home/travis/build</text>
<text text-anchor="start" x="1611.5" y="-342.5" font-family="Helvetica,sans-Serif" font-size="10.00">/ComPWA/ComPWA/DataReader</text>
<text text-anchor="middle" x="1687" y="-331.5" font-family="Helvetica,sans-Serif" font-size="10.00">/DataCorrection.cpp</text>
</a>
</g>
</g>
<!-- Node3&#45;&gt;Node22 -->
<g id="edge36" class="edge"><title>Node3&#45;&gt;Node22</title>
<path fill="none" stroke="midnightblue" d="M983.022,-418.186C1117.93,-411.875 1373.99,-396.778 1590,-366 1594.34,-365.382 1598.78,-364.688 1603.25,-363.94"/>
<polygon fill="midnightblue" stroke="midnightblue" points="982.555,-414.703 972.727,-418.661 982.878,-421.696 982.555,-414.703"/>
</g>
<!-- Node5 -->
<g id="node5" class="node"><title>Node5</title>
<g id="a_node5"><a xlink:href="../../dc/dfd/AmpIntensity_8hpp.html" target="_top" xlink:title="/home/travis/build\l/ComPWA/ComPWA/Core\l/AmpIntensity.hpp">
<polygon fill="white" stroke="red" points="1237.5,-246.5 1237.5,-287.5 1372.5,-287.5 1372.5,-246.5 1237.5,-246.5"/>
<text text-anchor="start" x="1245.5" y="-275.5" font-family="Helvetica,sans-Serif" font-size="10.00">/home/travis/build</text>
<text text-anchor="start" x="1245.5" y="-264.5" font-family="Helvetica,sans-Serif" font-size="10.00">/ComPWA/ComPWA/Core</text>
<text text-anchor="middle" x="1305" y="-253.5" font-family="Helvetica,sans-Serif" font-size="10.00">/AmpIntensity.hpp</text>
</a>
</g>
</g>
<!-- Node4&#45;&gt;Node5 -->
<g id="edge4" class="edge"><title>Node4&#45;&gt;Node5</title>
<path fill="none" stroke="midnightblue" d="M1172.79,-320.609C1199.45,-310.001 1230.61,-297.602 1255.98,-287.506"/>
<polygon fill="midnightblue" stroke="midnightblue" points="1171.18,-317.479 1163.19,-324.428 1173.77,-323.983 1171.18,-317.479"/>
</g>
<!-- Node6 -->
<g id="node6" class="node"><title>Node6</title>
<g id="a_node6"><a xlink:href="../../d5/dc2/Dictionary_8hpp.html" target="_top" xlink:title="This class gathers information from modules, namely what they need as input and what they provide as ...">
<polygon fill="white" stroke="black" points="1596.5,-168.5 1596.5,-209.5 1731.5,-209.5 1731.5,-168.5 1596.5,-168.5"/>
<text text-anchor="start" x="1604.5" y="-197.5" font-family="Helvetica,sans-Serif" font-size="10.00">/home/travis/build</text>
<text text-anchor="start" x="1604.5" y="-186.5" font-family="Helvetica,sans-Serif" font-size="10.00">/ComPWA/ComPWA/Core</text>
<text text-anchor="middle" x="1664" y="-175.5" font-family="Helvetica,sans-Serif" font-size="10.00">/Dictionary.hpp</text>
</a>
</g>
</g>
<!-- Node4&#45;&gt;Node6 -->
<g id="edge20" class="edge"><title>Node4&#45;&gt;Node6</title>
<path fill="none" stroke="midnightblue" d="M1207.67,-333.915C1273.35,-325.383 1362.69,-310.829 1439,-288 1507.58,-267.483 1583.05,-231.69 1626.83,-209.506"/>
<polygon fill="midnightblue" stroke="midnightblue" points="1207.23,-330.443 1197.75,-335.181 1208.11,-337.387 1207.23,-330.443"/>
</g>
<!-- Node7 -->
<g id="node7" class="node"><title>Node7</title>
<g id="a_node7"><a xlink:href="../../dc/d53/Dictionary_8cpp.html" target="_top" xlink:title="/home/travis/build\l/ComPWA/ComPWA/Core\l/Dictionary.cpp">
<polygon fill="white" stroke="black" points="1682.5,-84.5 1682.5,-125.5 1817.5,-125.5 1817.5,-84.5 1682.5,-84.5"/>
<text text-anchor="start" x="1690.5" y="-113.5" font-family="Helvetica,sans-Serif" font-size="10.00">/home/travis/build</text>
<text text-anchor="start" x="1690.5" y="-102.5" font-family="Helvetica,sans-Serif" font-size="10.00">/ComPWA/ComPWA/Core</text>
<text text-anchor="middle" x="1750" y="-91.5" font-family="Helvetica,sans-Serif" font-size="10.00">/Dictionary.cpp</text>
</a>
</g>
</g>
<!-- Node4&#45;&gt;Node7 -->
<g id="edge19" class="edge"><title>Node4&#45;&gt;Node7</title>
<path fill="none" stroke="midnightblue" d="M1207.73,-338.077C1365.83,-325.905 1674.71,-291.994 1740,-210 1759.09,-186.019 1757.34,-148.377 1753.94,-125.561"/>
<polygon fill="midnightblue" stroke="midnightblue" points="1207.25,-334.604 1197.54,-338.848 1207.77,-341.584 1207.25,-334.604"/>
</g>
<!-- Node8 -->
<g id="node8" class="node"><title>Node8</title>
<g id="a_node8"><a xlink:href="../../d5/d8d/ChiOneD_8hpp.html" target="_top" xlink:title="This class calculates a simple &#160;of a intensity and a dataset. ">
<polygon fill="white" stroke="red" points="702,-168.5 702,-209.5 858,-209.5 858,-168.5 702,-168.5"/>
<text text-anchor="start" x="710" y="-197.5" font-family="Helvetica,sans-Serif" font-size="10.00">/home/travis/build</text>
<text text-anchor="start" x="710" y="-186.5" font-family="Helvetica,sans-Serif" font-size="10.00">/ComPWA/ComPWA/Estimator</text>
<text text-anchor="middle" x="780" y="-175.5" font-family="Helvetica,sans-Serif" font-size="10.00">/ChiOneD/ChiOneD.hpp</text>
</a>
</g>
</g>
<!-- Node4&#45;&gt;Node8 -->
<g id="edge27" class="edge"><title>Node4&#45;&gt;Node8</title>
<path fill="none" stroke="midnightblue" d="M1121.47,-314.351C1125.01,-292.709 1125.43,-264.104 1109,-246 1072.46,-205.742 920.424,-220.098 867,-210 864.107,-209.453 861.163,-208.877 858.194,-208.28"/>
<polygon fill="midnightblue" stroke="midnightblue" points="1118,-313.858 1119.54,-324.34 1124.87,-315.185 1118,-313.858"/>
</g>
<!-- Node9 -->
<g id="node9" class="node"><title>Node9</title>
<g id="a_node9"><a xlink:href="../../d7/de4/MinLogLH_8hpp.html" target="_top" xlink:title="This class calculates a simple &#45;log(LH) of a intensity and a dataset. ">
<polygon fill="white" stroke="red" points="1422,-168.5 1422,-209.5 1578,-209.5 1578,-168.5 1422,-168.5"/>
<text text-anchor="start" x="1430" y="-197.5" font-family="Helvetica,sans-Serif" font-size="10.00">/home/travis/build</text>
<text text-anchor="start" x="1430" y="-186.5" font-family="Helvetica,sans-Serif" font-size="10.00">/ComPWA/ComPWA/Estimator</text>
<text text-anchor="middle" x="1500" y="-175.5" font-family="Helvetica,sans-Serif" font-size="10.00">/MinLogLH/MinLogLH.hpp</text>
</a>
</g>
</g>
<!-- Node4&#45;&gt;Node9 -->
<g id="edge28" class="edge"><title>Node4&#45;&gt;Node9</title>
<path fill="none" stroke="midnightblue" d="M1207.84,-338.885C1265.41,-332.582 1339.13,-318.652 1398,-288 1434.81,-268.834 1467.47,-232.264 1485.42,-209.621"/>
<polygon fill="midnightblue" stroke="midnightblue" points="1207.24,-335.429 1197.65,-339.94 1207.96,-342.391 1207.24,-335.429"/>
</g>
<!-- Node11 -->
<g id="node11" class="node"><title>Node11</title>
<g id="a_node11"><a xlink:href="../../d6/d0a/PythonFit_8cpp.html" target="_top" xlink:title="/home/travis/build\l/ComPWA/ComPWA/Examples\l/PythonDalitzFit/PythonFit.cpp">
<polygon fill="white" stroke="black" points="773,-0.5 773,-41.5 931,-41.5 931,-0.5 773,-0.5"/>
<text text-anchor="start" x="781" y="-29.5" font-family="Helvetica,sans-Serif" font-size="10.00">/home/travis/build</text>
<text text-anchor="start" x="781" y="-18.5" font-family="Helvetica,sans-Serif" font-size="10.00">/ComPWA/ComPWA/Examples</text>
<text text-anchor="middle" x="852" y="-7.5" font-family="Helvetica,sans-Serif" font-size="10.00">/PythonDalitzFit/PythonFit.cpp</text>
</a>
</g>
</g>
<!-- Node4&#45;&gt;Node11 -->
<g id="edge31" class="edge"><title>Node4&#45;&gt;Node11</title>
<path fill="none" stroke="midnightblue" d="M1020.13,-344.332C821.38,-344.052 372.429,-337.846 326,-288 243.859,-199.814 246.879,-201.548 475,-78 524.966,-50.9391 677.577,-34.9826 772.615,-27.4108"/>
<polygon fill="midnightblue" stroke="midnightblue" points="1020.26,-347.832 1030.27,-344.341 1020.27,-340.832 1020.26,-347.832"/>
</g>
<!-- Node13 -->
<g id="node13" class="node"><title>Node13</title>
<g id="a_node13"><a xlink:href="../../d8/d56/SliceFitUB_8hpp.html" target="_top" xlink:title="/home/travis/build\l/ComPWA/ComPWA/Estimator\l/SliceFitUB/SliceFitUB.hpp">
<polygon fill="white" stroke="red" points="1032,-168.5 1032,-209.5 1188,-209.5 1188,-168.5 1032,-168.5"/>
<text text-anchor="start" x="1040" y="-197.5" font-family="Helvetica,sans-Serif" font-size="10.00">/home/travis/build</text>
<text text-anchor="start" x="1040" y="-186.5" font-family="Helvetica,sans-Serif" font-size="10.00">/ComPWA/ComPWA/Estimator</text>
<text text-anchor="middle" x="1110" y="-175.5" font-family="Helvetica,sans-Serif" font-size="10.00">/SliceFitUB/SliceFitUB.hpp</text>
</a>
</g>
</g>
<!-- Node4&#45;&gt;Node13 -->
<g id="edge30" class="edge"><title>Node4&#45;&gt;Node13</title>
<path fill="none" stroke="midnightblue" d="M1159.42,-318.095C1169.71,-309.888 1179.27,-299.815 1185,-288 1193.14,-271.204 1193.37,-262.687 1185,-246 1177.35,-230.747 1163.36,-218.585 1149.52,-209.545"/>
<polygon fill="midnightblue" stroke="midnightblue" points="1157.04,-315.509 1151.08,-324.275 1161.2,-321.133 1157.04,-315.509"/>
</g>
<!-- Node14 -->
<g id="node14" class="node"><title>Node14</title>
<g id="a_node14"><a xlink:href="../../df/d1f/CoherentIntensity_8hpp.html" target="_top" xlink:title="/home/travis/build\l/ComPWA/ComPWA/Physics\l/HelicityFormalism/CoherentIntensity.hpp">
<polygon fill="white" stroke="red" points="1206.5,-168.5 1206.5,-209.5 1403.5,-209.5 1403.5,-168.5 1206.5,-168.5"/>
<text text-anchor="start" x="1214.5" y="-197.5" font-family="Helvetica,sans-Serif" font-size="10.00">/home/travis/build</text>
<text text-anchor="start" x="1214.5" y="-186.5" font-family="Helvetica,sans-Serif" font-size="10.00">/ComPWA/ComPWA/Physics</text>
<text text-anchor="middle" x="1305" y="-175.5" font-family="Helvetica,sans-Serif" font-size="10.00">/HelicityFormalism/CoherentIntensity.hpp</text>
</a>
</g>
</g>
<!-- Node4&#45;&gt;Node14 -->
<g id="edge33" class="edge"><title>Node4&#45;&gt;Node14</title>
<path fill="none" stroke="midnightblue" d="M1208.11,-336.662C1275.97,-329.187 1359.28,-314.754 1381,-288 1392.77,-273.509 1389.42,-262.66 1381,-246 1373.31,-230.787 1359.33,-218.692 1345.43,-209.693"/>
<polygon fill="midnightblue" stroke="midnightblue" points="1207.37,-333.221 1197.79,-337.759 1208.11,-340.182 1207.37,-333.221"/>
</g>
<!-- Node15 -->
<g id="node15" class="node"><title>Node15</title>
<g id="a_node15"><a xlink:href="../../db/d41/RunManager_8hpp.html" target="_top" xlink:title="This class provides a RunManager for simple fits. ">
<polygon fill="white" stroke="red" points="876,-168.5 876,-209.5 1014,-209.5 1014,-168.5 876,-168.5"/>
<text text-anchor="start" x="884" y="-197.5" font-family="Helvetica,sans-Serif" font-size="10.00">/home/travis/build</text>
<text text-anchor="start" x="884" y="-186.5" font-family="Helvetica,sans-Serif" font-size="10.00">/ComPWA/ComPWA/Tools</text>
<text text-anchor="middle" x="945" y="-175.5" font-family="Helvetica,sans-Serif" font-size="10.00">/RunManager.hpp</text>
</a>
</g>
</g>
<!-- Node4&#45;&gt;Node15 -->
<g id="edge35" class="edge"><title>Node4&#45;&gt;Node15</title>
<path fill="none" stroke="midnightblue" d="M1136.37,-316.017C1150.23,-295.069 1162.66,-266.597 1147,-246 1144.87,-243.203 1071.74,-223.385 1014.08,-208.11"/>
<polygon fill="midnightblue" stroke="midnightblue" points="1133.5,-314.009 1130.63,-324.207 1139.23,-318.026 1133.5,-314.009"/>
</g>
<!-- Node16 -->
<g id="node16" class="node"><title>Node16</title>
<g id="a_node16"><a xlink:href="../../db/d94/RunManager_8cpp.html" target="_top" xlink:title="/home/travis/build\l/ComPWA/ComPWA/Tools\l/RunManager.cpp">
<polygon fill="white" stroke="black" points="791,-84.5 791,-125.5 929,-125.5 929,-84.5 791,-84.5"/>
<text text-anchor="start" x="799" y="-113.5" font-family="Helvetica,sans-Serif" font-size="10.00">/home/travis/build</text>
<text text-anchor="start" x="799" y="-102.5" font-family="Helvetica,sans-Serif" font-size="10.00">/ComPWA/ComPWA/Tools</text>
<text text-anchor="middle" x="860" y="-91.5" font-family="Helvetica,sans-Serif" font-size="10.00">/RunManager.cpp</text>
</a>
</g>
</g>
<!-- Node4&#45;&gt;Node16 -->
<g id="edge34" class="edge"><title>Node4&#45;&gt;Node16</title>
<path fill="none" stroke="midnightblue" d="M1108.93,-314.312C1103.41,-291.735 1092.21,-261.926 1070,-246 1001.6,-196.964 749.61,-272.274 693,-210 656.412,-169.752 729.969,-139.333 790.793,-122.089"/>
<polygon fill="midnightblue" stroke="midnightblue" points="1105.52,-315.087 1111.08,-324.101 1112.35,-313.582 1105.52,-315.087"/>
</g>
<!-- Node17 -->
<g id="node17" class="node"><title>Node17</title>
<g id="a_node17"><a xlink:href="../../d7/dbd/AsciiReader_8hpp.html" target="_top" xlink:title="This class reads event&#45;based data from ascii&#45;files in the same syntax as Pawian&#39;s epemEvtReader...">
<polygon fill="white" stroke="red" points="335.5,-246.5 335.5,-287.5 502.5,-287.5 502.5,-246.5 335.5,-246.5"/>
<text text-anchor="start" x="343.5" y="-275.5" font-family="Helvetica,sans-Serif" font-size="10.00">/home/travis/build</text>
<text text-anchor="start" x="343.5" y="-264.5" font-family="Helvetica,sans-Serif" font-size="10.00">/ComPWA/ComPWA/DataReader</text>
<text text-anchor="middle" x="419" y="-253.5" font-family="Helvetica,sans-Serif" font-size="10.00">/AsciiReader/AsciiReader.hpp</text>
</a>
</g>
</g>
<!-- Node4&#45;&gt;Node17 -->
<g id="edge21" class="edge"><title>Node4&#45;&gt;Node17</title>
<path fill="none" stroke="midnightblue" d="M1020.21,-338.745C901.424,-331.296 690.689,-315.425 512,-288 508.898,-287.524 505.745,-287.008 502.565,-286.462"/>
<polygon fill="midnightblue" stroke="midnightblue" points="1020.16,-342.249 1030.35,-339.375 1020.59,-335.262 1020.16,-342.249"/>
</g>
<!-- Node18 -->
<g id="node18" class="node"><title>Node18</title>
<g id="a_node18"><a xlink:href="../../d8/db3/Data_8cpp.html" target="_top" xlink:title="/home/travis/build\l/ComPWA/ComPWA/DataReader\l/Data.cpp">
<polygon fill="white" stroke="black" points="520.5,-246.5 520.5,-287.5 687.5,-287.5 687.5,-246.5 520.5,-246.5"/>
<text text-anchor="start" x="528.5" y="-275.5" font-family="Helvetica,sans-Serif" font-size="10.00">/home/travis/build</text>
<text text-anchor="start" x="528.5" y="-264.5" font-family="Helvetica,sans-Serif" font-size="10.00">/ComPWA/ComPWA/DataReader</text>
<text text-anchor="middle" x="604" y="-253.5" font-family="Helvetica,sans-Serif" font-size="10.00">/Data.cpp</text>
</a>
</g>
</g>
<!-- Node4&#45;&gt;Node18 -->
<g id="edge22" class="edge"><title>Node4&#45;&gt;Node18</title>
<path fill="none" stroke="midnightblue" d="M1020.12,-333.523C935.394,-323.562 807.465,-307.265 697,-288 693.909,-287.461 690.764,-286.892 687.591,-286.3"/>
<polygon fill="midnightblue" stroke="midnightblue" points="1019.9,-337.02 1030.24,-334.706 1020.71,-330.068 1019.9,-337.02"/>
</g>
<!-- Node4&#45;&gt;Node19 -->
<g id="edge23" class="edge"><title>Node4&#45;&gt;Node19</title>
<path fill="none" stroke="midnightblue" d="M1096,-316.019C1078.69,-290.068 1053,-254.253 1038,-246 964.074,-205.32 743.443,-222.538 660,-210 655.664,-209.348 651.23,-208.628 646.759,-207.86"/>
<polygon fill="midnightblue" stroke="midnightblue" points="1093.09,-317.968 1101.52,-324.387 1098.94,-314.112 1093.09,-317.968"/>
</g>
<!-- Node20 -->
<g id="node20" class="node"><title>Node20</title>
<g id="a_node20"><a xlink:href="../../da/d67/SliceFit_8hpp.html" target="_top" xlink:title="This class performs a Chi2&#45;Fit on slices along one axis of a dalitz&#45;plot. ">
<polygon fill="white" stroke="red" points="706,-246.5 706,-287.5 862,-287.5 862,-246.5 706,-246.5"/>
<text text-anchor="start" x="714" y="-275.5" font-family="Helvetica,sans-Serif" font-size="10.00">/home/travis/build</text>
<text text-anchor="start" x="714" y="-264.5" font-family="Helvetica,sans-Serif" font-size="10.00">/ComPWA/ComPWA/Estimator</text>
<text text-anchor="middle" x="784" y="-253.5" font-family="Helvetica,sans-Serif" font-size="10.00">/SliceFit/SliceFit.hpp</text>
</a>
</g>
</g>
<!-- Node4&#45;&gt;Node20 -->
<g id="edge29" class="edge"><title>Node4&#45;&gt;Node20</title>
<path fill="none" stroke="midnightblue" d="M1020.46,-322.457C970.48,-310.947 909.664,-296.941 862.224,-286.015"/>
<polygon fill="midnightblue" stroke="midnightblue" points="1019.77,-325.89 1030.3,-324.724 1021.34,-319.069 1019.77,-325.89"/>
</g>
<!-- Node21 -->
<g id="node21" class="node"><title>Node21</title>
<g id="a_node21"><a xlink:href="../../dc/de3/Amplitude_8hpp.html" target="_top" xlink:title="This class provides the interface to the model which tries to describe the intensity. ">
<polygon fill="white" stroke="red" points="880.5,-246.5 880.5,-287.5 1029.5,-287.5 1029.5,-246.5 880.5,-246.5"/>
<text text-anchor="start" x="888.5" y="-275.5" font-family="Helvetica,sans-Serif" font-size="10.00">/home/travis/build</text>
<text text-anchor="start" x="888.5" y="-264.5" font-family="Helvetica,sans-Serif" font-size="10.00">/ComPWA/ComPWA/Physics</text>
<text text-anchor="middle" x="955" y="-253.5" font-family="Helvetica,sans-Serif" font-size="10.00">/Amplitude.hpp</text>
</a>
</g>
</g>
<!-- Node4&#45;&gt;Node21 -->
<g id="edge32" class="edge"><title>Node4&#45;&gt;Node21</title>
<path fill="none" stroke="midnightblue" d="M1063.89,-320.049C1041.96,-309.566 1016.56,-297.424 995.808,-287.506"/>
<polygon fill="midnightblue" stroke="midnightblue" points="1062.52,-323.273 1073.05,-324.428 1065.54,-316.958 1062.52,-323.273"/>
</g>
<!-- Node5&#45;&gt;Node6 -->
<g id="edge5" class="edge"><title>Node5&#45;&gt;Node6</title>
<path fill="none" stroke="midnightblue" d="M1382.74,-251.821C1439.52,-241.159 1518.27,-225.737 1587,-210 1590.1,-209.291 1593.26,-208.548 1596.45,-207.783"/>
<polygon fill="midnightblue" stroke="midnightblue" points="1381.94,-248.409 1372.75,-253.689 1383.23,-255.29 1381.94,-248.409"/>
</g>
<!-- Node5&#45;&gt;Node8 -->
<g id="edge7" class="edge"><title>Node5&#45;&gt;Node8</title>
<path fill="none" stroke="midnightblue" d="M1227.16,-256.146C1103.66,-240.5 875.786,-211.568 867,-210 864.101,-209.483 861.153,-208.932 858.18,-208.356"/>
<polygon fill="midnightblue" stroke="midnightblue" points="1226.96,-259.649 1237.32,-257.434 1227.84,-252.704 1226.96,-259.649"/>
</g>
<!-- Node5&#45;&gt;Node9 -->
<g id="edge8" class="edge"><title>Node5&#45;&gt;Node9</title>
<path fill="none" stroke="midnightblue" d="M1364.66,-242.748C1391.96,-232.11 1423.94,-219.646 1449.95,-209.506"/>
<polygon fill="midnightblue" stroke="midnightblue" points="1363.26,-239.536 1355.22,-246.428 1365.81,-246.058 1363.26,-239.536"/>
</g>
<!-- Node5&#45;&gt;Node13 -->
<g id="edge13" class="edge"><title>Node5&#45;&gt;Node13</title>
<path fill="none" stroke="midnightblue" d="M1245.34,-242.748C1218.04,-232.11 1186.06,-219.646 1160.05,-209.506"/>
<polygon fill="midnightblue" stroke="midnightblue" points="1244.19,-246.058 1254.78,-246.428 1246.74,-239.536 1244.19,-246.058"/>
</g>
<!-- Node5&#45;&gt;Node14 -->
<g id="edge14" class="edge"><title>Node5&#45;&gt;Node14</title>
<path fill="none" stroke="midnightblue" d="M1305,-236.297C1305,-227.301 1305,-217.653 1305,-209.506"/>
<polygon fill="midnightblue" stroke="midnightblue" points="1301.5,-236.428 1305,-246.428 1308.5,-236.428 1301.5,-236.428"/>
</g>
<!-- Node5&#45;&gt;Node15 -->
<g id="edge15" class="edge"><title>Node5&#45;&gt;Node15</title>
<path fill="none" stroke="midnightblue" d="M1227.28,-251.756C1170.5,-241.063 1091.76,-225.63 1023,-210 1020.14,-209.349 1017.22,-208.671 1014.27,-207.973"/>
<polygon fill="midnightblue" stroke="midnightblue" points="1226.78,-255.225 1237.26,-253.63 1228.08,-248.345 1226.78,-255.225"/>
</g>
<!-- Node6&#45;&gt;Node7 -->
<g id="edge6" class="edge"><title>Node6&#45;&gt;Node7</title>
<path fill="none" stroke="midnightblue" d="M1692.11,-161.201C1704.25,-149.62 1718.21,-136.313 1729.37,-125.667"/>
<polygon fill="midnightblue" stroke="midnightblue" points="1689.64,-158.716 1684.82,-168.15 1694.47,-163.782 1689.64,-158.716"/>
</g>
<!-- Node9&#45;&gt;Node10 -->
<g id="edge9" class="edge"><title>Node9&#45;&gt;Node10</title>
<path fill="none" stroke="midnightblue" d="M1412.31,-168.043C1412.2,-168.029 1412.1,-168.014 1412,-168 1134.3,-128.787 1061.38,-156.543 782,-132 735.563,-127.921 683.762,-121.841 642.202,-116.586"/>
<polygon fill="midnightblue" stroke="midnightblue" points="1411.49,-171.459 1421.92,-169.545 1412.58,-164.543 1411.49,-171.459"/>
</g>
<!-- Node9&#45;&gt;Node11 -->
<g id="edge10" class="edge"><title>Node9&#45;&gt;Node11</title>
<path fill="none" stroke="midnightblue" d="M1427.23,-165.51C1350.31,-142.122 1225.22,-105.193 1116,-78 1054.28,-62.6341 983.784,-47.8178 931.173,-37.289"/>
<polygon fill="midnightblue" stroke="midnightblue" points="1426.25,-168.869 1436.84,-168.435 1428.29,-162.173 1426.25,-168.869"/>
</g>
<!-- Node9&#45;&gt;Node12 -->
<g id="edge11" class="edge"><title>Node9&#45;&gt;Node12</title>
<path fill="none" stroke="midnightblue" d="M1412.3,-168.059C1412.2,-168.039 1412.1,-168.02 1412,-168 1307.36,-147.661 1185.74,-128.776 1108.11,-117.319"/>
<polygon fill="midnightblue" stroke="midnightblue" points="1411.35,-171.438 1421.84,-169.969 1412.73,-164.574 1411.35,-171.438"/>
</g>
<!-- Node12&#45;&gt;Node11 -->
<g id="edge12" class="edge"><title>Node12&#45;&gt;Node11</title>
<path fill="none" stroke="midnightblue" d="M977.506,-80.1442C951.097,-67.9093 919.325,-53.1901 894.356,-41.6227"/>
<polygon fill="midnightblue" stroke="midnightblue" points="976.059,-83.3311 986.604,-84.359 979.002,-76.9796 976.059,-83.3311"/>
</g>
<!-- Node15&#45;&gt;Node10 -->
<g id="edge16" class="edge"><title>Node15&#45;&gt;Node10</title>
<path fill="none" stroke="midnightblue" d="M865.785,-167.767C784.239,-149.16 701.365,-132.52 642.285,-121.047"/>
<polygon fill="midnightblue" stroke="midnightblue" points="865.192,-171.222 875.721,-170.045 866.757,-164.399 865.192,-171.222"/>
</g>
<!-- Node15&#45;&gt;Node12 -->
<g id="edge17" class="edge"><title>Node15&#45;&gt;Node12</title>
<path fill="none" stroke="midnightblue" d="M972.789,-160.873C984.573,-149.369 998.05,-136.213 1008.85,-125.667"/>
<polygon fill="midnightblue" stroke="midnightblue" points="970.045,-158.66 965.334,-168.15 974.935,-163.669 970.045,-158.66"/>
</g>
<!-- Node15&#45;&gt;Node16 -->
<g id="edge18" class="edge"><title>Node15&#45;&gt;Node16</title>
<path fill="none" stroke="midnightblue" d="M917.221,-161.201C905.216,-149.62 891.422,-136.313 880.387,-125.667"/>
<polygon fill="midnightblue" stroke="midnightblue" points="914.797,-163.726 924.424,-168.15 919.657,-158.688 914.797,-163.726"/>
</g>
<!-- Node19&#45;&gt;Node10 -->
<g id="edge24" class="edge"><title>Node19&#45;&gt;Node10</title>
<path fill="none" stroke="midnightblue" d="M563,-157.938C563,-149.176 563,-139.695 563,-131.261"/>
<polygon fill="midnightblue" stroke="midnightblue" points="559.5,-158.15 563,-168.15 566.5,-158.15 559.5,-158.15"/>
</g>
<!-- Node19&#45;&gt;Node11 -->
<g id="edge25" class="edge"><title>Node19&#45;&gt;Node11</title>
<path fill="none" stroke="midnightblue" d="M605.861,-163.381C663.486,-130.281 764.797,-72.0887 817.68,-41.7135"/>
<polygon fill="midnightblue" stroke="midnightblue" points="603.93,-160.454 597.002,-168.47 607.416,-166.524 603.93,-160.454"/>
</g>
<!-- Node19&#45;&gt;Node12 -->
<g id="edge26" class="edge"><title>Node19&#45;&gt;Node12</title>
<path fill="none" stroke="midnightblue" d="M656.752,-173.499C668.944,-171.636 681.268,-169.764 693,-168 801.834,-151.632 830.408,-155.168 938,-132 946.674,-130.132 955.737,-127.896 964.64,-125.529"/>
<polygon fill="midnightblue" stroke="midnightblue" points="655.912,-170.087 646.556,-175.06 656.971,-177.007 655.912,-170.087"/>
</g>
</g>
</svg>
