<?xml version="1.0" encoding="UTF-8" standalone="no"?>
<!DOCTYPE svg PUBLIC "-//W3C//DTD SVG 1.1//EN"
 "http://www.w3.org/Graphics/SVG/1.1/DTD/svg11.dtd">
<!-- Generated by graphviz version 2.26.3 (20100126.1600)
 -->
<!-- Title: G Pages: 1 -->
<svg width="1239pt" height="262pt"
 viewBox="0.00 0.00 1239.00 262.00" xmlns="http://www.w3.org/2000/svg" xmlns:xlink="http://www.w3.org/1999/xlink">
<g id="graph1" class="graph" transform="scale(1 1) rotate(0) translate(4 258)">
<title>G</title>
<polygon fill="white" stroke="white" points="-4,5 -4,-258 1236,-258 1236,5 -4,5"/>
<!-- Node1 -->
<g id="node1" class="node"><title>Node1</title>
<polygon fill="#bfbfbf" stroke="black" points="180,-232.5 180,-253.5 414,-253.5 414,-232.5 180,-232.5"/>
<text text-anchor="middle" x="297" y="-240.5" font-family="Helvetica,sans-Serif" font-size="10.00">Physics/AmplitudeSum/PhiSumOfAmplitudes.cpp</text>
</g>
<!-- Node2 -->
<g id="node3" class="node"><title>Node2</title>
<polygon fill="white" stroke="#bfbfbf" points="0,-174.5 0,-195.5 44,-195.5 44,-174.5 0,-174.5"/>
<text text-anchor="middle" x="22" y="-182.5" font-family="Helvetica,sans-Serif" font-size="10.00">cmath</text>
</g>
<!-- Node1&#45;&gt;Node2 -->
<g id="edge2" class="edge"><title>Node1&#45;&gt;Node2</title>
<path fill="none" stroke="midnightblue" d="M227.475,-232.474C180.706,-224.733 117.592,-213.012 54.0162,-196"/>
<polygon fill="midnightblue" stroke="midnightblue" points="54.7917,-192.584 44.2237,-193.338 52.9554,-199.338 54.7917,-192.584"/>
</g>
<!-- Node3 -->
<g id="node5" class="node"><title>Node3</title>
<polygon fill="white" stroke="#bfbfbf" points="62,-174.5 62,-195.5 132,-195.5 132,-174.5 62,-174.5"/>
<text text-anchor="middle" x="97" y="-182.5" font-family="Helvetica,sans-Serif" font-size="10.00">Riostream.h</text>
</g>
<!-- Node1&#45;&gt;Node3 -->
<g id="edge4" class="edge"><title>Node1&#45;&gt;Node3</title>
<path fill="none" stroke="midnightblue" d="M260.782,-232.497C227.444,-222.829 177.875,-208.454 142.006,-198.052"/>
<polygon fill="midnightblue" stroke="midnightblue" points="142.857,-194.654 132.278,-195.231 140.907,-201.377 142.857,-194.654"/>
</g>
<!-- Node4 -->
<g id="node7" class="node"><title>Node4</title>
<polygon fill="white" stroke="#bfbfbf" points="149.5,-174.5 149.5,-195.5 202.5,-195.5 202.5,-174.5 149.5,-174.5"/>
<text text-anchor="middle" x="176" y="-182.5" font-family="Helvetica,sans-Serif" font-size="10.00">TMath.h</text>
</g>
<!-- Node1&#45;&gt;Node4 -->
<g id="edge6" class="edge"><title>Node1&#45;&gt;Node4</title>
<path fill="none" stroke="midnightblue" d="M275.088,-232.497C256.189,-223.438 228.669,-210.246 207.424,-200.063"/>
<polygon fill="midnightblue" stroke="midnightblue" points="208.689,-196.788 198.158,-195.621 205.663,-203.1 208.689,-196.788"/>
</g>
<!-- Node5 -->
<g id="node9" class="node"><title>Node5</title>
<polygon fill="white" stroke="#bfbfbf" points="645,-58.5 645,-79.5 725,-79.5 725,-58.5 645,-58.5"/>
<text text-anchor="middle" x="685" y="-66.5" font-family="Helvetica,sans-Serif" font-size="10.00">RooAbsReal.h</text>
</g>
<!-- Node1&#45;&gt;Node5 -->
<g id="edge8" class="edge"><title>Node1&#45;&gt;Node5</title>
<path fill="none" stroke="midnightblue" d="M414.214,-239.713C549.548,-234.682 756.78,-222.686 781,-196 798.394,-176.835 775.243,-135.934 759,-116 748.195,-102.741 732.616,-92.0652 718.536,-84.2603"/>
<polygon fill="midnightblue" stroke="midnightblue" points="720.046,-81.1 709.566,-79.5476 716.791,-87.2969 720.046,-81.1"/>
</g>
<!-- Node6 -->
<g id="node11" class="node"><title>Node6</title>
<polygon fill="white" stroke="#bfbfbf" points="258,-174.5 258,-195.5 336,-195.5 336,-174.5 258,-174.5"/>
<text text-anchor="middle" x="297" y="-182.5" font-family="Helvetica,sans-Serif" font-size="10.00">RooRealVar.h</text>
</g>
<!-- Node1&#45;&gt;Node6 -->
<g id="edge10" class="edge"><title>Node1&#45;&gt;Node6</title>
<path fill="none" stroke="midnightblue" d="M297,-232.362C297,-224.922 297,-214.743 297,-205.728"/>
<polygon fill="midnightblue" stroke="midnightblue" points="300.5,-205.571 297,-195.571 293.5,-205.571 300.5,-205.571"/>
</g>
<!-- Node7 -->
<g id="node13" class="node"><title>Node7</title>
<polygon fill="white" stroke="#bfbfbf" points="160,-116.5 160,-137.5 260,-137.5 260,-116.5 160,-116.5"/>
<text text-anchor="middle" x="210" y="-124.5" font-family="Helvetica,sans-Serif" font-size="10.00">RooAbsCategory.h</text>
</g>
<!-- Node1&#45;&gt;Node7 -->
<g id="edge12" class="edge"><title>Node1&#45;&gt;Node7</title>
<path fill="none" stroke="midnightblue" d="M284.195,-232.271C273.917,-223.257 259.517,-209.687 249,-196 237.261,-180.723 226.696,-161.516 219.533,-147.249"/>
<polygon fill="midnightblue" stroke="midnightblue" points="222.482,-145.311 214.95,-137.859 216.191,-148.381 222.482,-145.311"/>
</g>
<!-- Node8 -->
<g id="node15" class="node"><title>Node8</title>
<polygon fill="white" stroke="#bfbfbf" points="605.5,-174.5 605.5,-195.5 706.5,-195.5 706.5,-174.5 605.5,-174.5"/>
<text text-anchor="middle" x="656" y="-182.5" font-family="Helvetica,sans-Serif" font-size="10.00">RooLinkedListIter.h</text>
</g>
<!-- Node1&#45;&gt;Node8 -->
<g id="edge14" class="edge"><title>Node1&#45;&gt;Node8</title>
<path fill="none" stroke="midnightblue" d="M368.014,-232.466C426.544,-223.648 511.992,-210.463 595.57,-196.214"/>
<polygon fill="midnightblue" stroke="midnightblue" points="596.221,-199.654 605.487,-194.517 595.04,-192.754 596.221,-199.654"/>
</g>
<!-- Node9 -->
<g id="node17" class="node"><title>Node9</title>
<polygon fill="white" stroke="#bfbfbf" points="724,-174.5 724,-195.5 772,-195.5 772,-174.5 724,-174.5"/>
<text text-anchor="middle" x="748" y="-182.5" font-family="Helvetica,sans-Serif" font-size="10.00">qft++.h</text>
</g>
<!-- Node1&#45;&gt;Node9 -->
<g id="edge16" class="edge"><title>Node1&#45;&gt;Node9</title>
<path fill="none" stroke="midnightblue" d="M414.294,-236.413C496.124,-230.269 607.799,-218.798 713.747,-195.925"/>
<polygon fill="midnightblue" stroke="midnightblue" points="714.636,-199.314 723.652,-193.75 713.134,-192.477 714.636,-199.314"/>
</g>
<!-- Node10 -->
<g id="node19" class="node"><title>Node10</title>
<a xlink:href="../../d3/d66/PhiSumOfAmplitudes_8hpp.xhtml" target="_top" xlink:title="Physics/AmplitudeSum/PhiSumOfAmplitudes.hpp">
<polygon fill="white" stroke="black" points="354,-174.5 354,-195.5 588,-195.5 588,-174.5 354,-174.5"/>
<text text-anchor="middle" x="471" y="-182.5" font-family="Helvetica,sans-Serif" font-size="10.00">Physics/AmplitudeSum/PhiSumOfAmplitudes.hpp</text>
</a>
</g>
<!-- Node1&#45;&gt;Node10 -->
<g id="edge18" class="edge"><title>Node1&#45;&gt;Node10</title>
<path fill="none" stroke="midnightblue" d="M328.51,-232.497C356.877,-223.041 398.751,-209.083 429.772,-198.743"/>
<polygon fill="midnightblue" stroke="midnightblue" points="431.051,-202.006 439.431,-195.523 428.837,-195.365 431.051,-202.006"/>
</g>
<!-- Node10&#45;&gt;Node5 -->
<g id="edge26" class="edge"><title>Node10&#45;&gt;Node5</title>
<path fill="none" stroke="midnightblue" d="M567.067,-174.479C640.639,-165.428 731.464,-151.701 743,-138 758.326,-119.799 734.985,-98.8771 713.503,-84.8877"/>
<polygon fill="midnightblue" stroke="midnightblue" points="715.182,-81.8103 704.836,-79.5255 711.499,-87.7632 715.182,-81.8103"/>
</g>
<!-- Node10&#45;&gt;Node7 -->
<g id="edge28" class="edge"><title>Node10&#45;&gt;Node7</title>
<path fill="none" stroke="midnightblue" d="M423.735,-174.497C379.803,-164.734 314.273,-150.172 267.363,-139.747"/>
<polygon fill="midnightblue" stroke="midnightblue" points="267.875,-136.276 257.354,-137.523 266.356,-143.109 267.875,-136.276"/>
</g>
<!-- Node11 -->
<g id="node21" class="node"><title>Node11</title>
<polygon fill="white" stroke="#bfbfbf" points="1089.5,-116.5 1089.5,-137.5 1164.5,-137.5 1164.5,-116.5 1089.5,-116.5"/>
<text text-anchor="middle" x="1127" y="-124.5" font-family="Helvetica,sans-Serif" font-size="10.00">RooAbsPdf.h</text>
</g>
<!-- Node10&#45;&gt;Node11 -->
<g id="edge20" class="edge"><title>Node10&#45;&gt;Node11</title>
<path fill="none" stroke="midnightblue" d="M588.032,-174.732C591.052,-174.483 594.045,-174.239 597,-174 808.75,-156.883 866.136,-170.757 1079.49,-138.042"/>
<polygon fill="midnightblue" stroke="midnightblue" points="1080.1,-141.49 1089.44,-136.5 1079.02,-134.573 1080.1,-141.49"/>
</g>
<!-- Node12 -->
<g id="node23" class="node"><title>Node12</title>
<polygon fill="white" stroke="#bfbfbf" points="366.5,-58.5 366.5,-79.5 455.5,-79.5 455.5,-58.5 366.5,-58.5"/>
<text text-anchor="middle" x="411" y="-66.5" font-family="Helvetica,sans-Serif" font-size="10.00">RooRealProxy.h</text>
</g>
<!-- Node10&#45;&gt;Node12 -->
<g id="edge22" class="edge"><title>Node10&#45;&gt;Node12</title>
<path fill="none" stroke="midnightblue" d="M405.55,-174.477C365.321,-166.523 319.211,-154.202 307,-138 288.165,-113.009 323.681,-94.2554 358.218,-82.6549"/>
<polygon fill="midnightblue" stroke="midnightblue" points="359.422,-85.9447 367.888,-79.5735 357.297,-79.2752 359.422,-85.9447"/>
</g>
<!-- Node13 -->
<g id="node25" class="node"><title>Node13</title>
<polygon fill="white" stroke="#bfbfbf" points="524,-116.5 524,-137.5 632,-137.5 632,-116.5 524,-116.5"/>
<text text-anchor="middle" x="578" y="-124.5" font-family="Helvetica,sans-Serif" font-size="10.00">RooCategoryProxy.h</text>
</g>
<!-- Node10&#45;&gt;Node13 -->
<g id="edge24" class="edge"><title>Node10&#45;&gt;Node13</title>
<path fill="none" stroke="midnightblue" d="M490.625,-174.362C507.141,-165.409 530.974,-152.491 549.578,-142.406"/>
<polygon fill="midnightblue" stroke="midnightblue" points="551.375,-145.413 558.499,-137.571 548.04,-139.259 551.375,-145.413"/>
</g>
<!-- Node14 -->
<g id="node29" class="node"><title>Node14</title>
<polygon fill="white" stroke="#bfbfbf" points="650,-116.5 650,-137.5 734,-137.5 734,-116.5 650,-116.5"/>
<text text-anchor="middle" x="692" y="-124.5" font-family="Helvetica,sans-Serif" font-size="10.00">RooListProxy.h</text>
</g>
<!-- Node10&#45;&gt;Node14 -->
<g id="edge30" class="edge"><title>Node10&#45;&gt;Node14</title>
<path fill="none" stroke="midnightblue" d="M511.021,-174.497C547.83,-164.836 602.546,-150.477 642.174,-140.077"/>
<polygon fill="midnightblue" stroke="midnightblue" points="643.12,-143.447 651.904,-137.523 641.343,-136.676 643.12,-143.447"/>
</g>
<!-- Node15 -->
<g id="node31" class="node"><title>Node15</title>
<a xlink:href="../../d2/d45/AmpRelBreitWignerRes_8hpp.xhtml" target="_top" xlink:title="Physics/AmplitudeSum/AmpRelBreitWignerRes.hpp">
<polygon fill="white" stroke="black" points="827.5,-116.5 827.5,-137.5 1072.5,-137.5 1072.5,-116.5 827.5,-116.5"/>
<text text-anchor="middle" x="950" y="-124.5" font-family="Helvetica,sans-Serif" font-size="10.00">Physics/AmplitudeSum/AmpRelBreitWignerRes.hpp</text>
</a>
</g>
<!-- Node10&#45;&gt;Node15 -->
<g id="edge32" class="edge"><title>Node10&#45;&gt;Node15</title>
<path fill="none" stroke="midnightblue" d="M557.743,-174.497C640.989,-164.417 766.491,-149.22 853.006,-138.745"/>
<polygon fill="midnightblue" stroke="midnightblue" points="853.587,-142.2 863.094,-137.523 852.746,-135.251 853.587,-142.2"/>
</g>
<!-- Node22 -->
<g id="node51" class="node"><title>Node22</title>
<a xlink:href="../../d4/d12/AmpWigner_8hpp.xhtml" target="_top" xlink:title="Physics/AmplitudeSum/AmpWigner.hpp">
<polygon fill="white" stroke="black" points="315.5,-116.5 315.5,-137.5 506.5,-137.5 506.5,-116.5 315.5,-116.5"/>
<text text-anchor="middle" x="411" y="-124.5" font-family="Helvetica,sans-Serif" font-size="10.00">Physics/AmplitudeSum/AmpWigner.hpp</text>
</a>
</g>
<!-- Node10&#45;&gt;Node22 -->
<g id="edge58" class="edge"><title>Node10&#45;&gt;Node22</title>
<path fill="none" stroke="midnightblue" d="M459.995,-174.362C451.453,-166.104 439.42,-154.472 429.417,-144.803"/>
<polygon fill="midnightblue" stroke="midnightblue" points="431.558,-142.004 421.935,-137.571 426.692,-147.037 431.558,-142.004"/>
</g>
<!-- Node15&#45;&gt;Node5 -->
<g id="edge42" class="edge"><title>Node15&#45;&gt;Node5</title>
<path fill="none" stroke="midnightblue" d="M902.01,-116.497C854.806,-106.165 783.04,-90.4578 735.114,-79.9684"/>
<polygon fill="midnightblue" stroke="midnightblue" points="735.784,-76.5322 725.267,-77.8131 734.287,-83.3704 735.784,-76.5322"/>
</g>
<!-- Node15&#45;&gt;Node12 -->
<g id="edge46" class="edge"><title>Node15&#45;&gt;Node12</title>
<path fill="none" stroke="midnightblue" d="M852.391,-116.497C739.198,-104.316 556.571,-84.6644 465.825,-74.8995"/>
<polygon fill="midnightblue" stroke="midnightblue" points="466.068,-71.4056 455.751,-73.8155 465.319,-78.3654 466.068,-71.4056"/>
</g>
<!-- Node16 -->
<g id="node33" class="node"><title>Node16</title>
<polygon fill="white" stroke="#bfbfbf" points="731,-0.5 731,-21.5 775,-21.5 775,-0.5 731,-0.5"/>
<text text-anchor="middle" x="753" y="-8.5" font-family="Helvetica,sans-Serif" font-size="10.00">vector</text>
</g>
<!-- Node15&#45;&gt;Node16 -->
<g id="edge34" class="edge"><title>Node15&#45;&gt;Node16</title>
<path fill="none" stroke="midnightblue" d="M885.946,-116.482C857.896,-109.549 825.798,-98.2438 801,-80 783.644,-67.2314 770.341,-46.2374 762.189,-30.7544"/>
<polygon fill="midnightblue" stroke="midnightblue" points="765.179,-28.9063 757.585,-21.5175 758.914,-32.0288 765.179,-28.9063"/>
</g>
<!-- Node17 -->
<g id="node35" class="node"><title>Node17</title>
<polygon fill="white" stroke="#bfbfbf" points="1088.5,-0.5 1088.5,-21.5 1147.5,-21.5 1147.5,-0.5 1088.5,-0.5"/>
<text text-anchor="middle" x="1118" y="-8.5" font-family="Helvetica,sans-Serif" font-size="10.00">TObject.h</text>
</g>
<!-- Node15&#45;&gt;Node17 -->
<g id="edge36" class="edge"><title>Node15&#45;&gt;Node17</title>
<path fill="none" stroke="midnightblue" d="M1006.51,-116.459C1045.48,-108.027 1092.59,-95.1355 1106,-80 1117.44,-67.0928 1119.89,-47.3057 1119.79,-32.2252"/>
<polygon fill="midnightblue" stroke="midnightblue" points="1123.27,-31.6387 1119.33,-21.8024 1116.28,-31.9466 1123.27,-31.6387"/>
</g>
<!-- Node18 -->
<g id="node37" class="node"><title>Node18</title>
<polygon fill="white" stroke="#bfbfbf" points="1175,-58.5 1175,-79.5 1231,-79.5 1231,-58.5 1175,-58.5"/>
<text text-anchor="middle" x="1203" y="-66.5" font-family="Helvetica,sans-Serif" font-size="10.00">TString.h</text>
</g>
<!-- Node15&#45;&gt;Node18 -->
<g id="edge38" class="edge"><title>Node15&#45;&gt;Node18</title>
<path fill="none" stroke="midnightblue" d="M999.574,-116.499C1042.41,-107.296 1105.92,-93.3418 1161,-80 1162.24,-79.7005 1163.49,-79.3928 1164.76,-79.0791"/>
<polygon fill="midnightblue" stroke="midnightblue" points="1165.73,-82.4431 1174.57,-76.5981 1164.02,-75.6568 1165.73,-82.4431"/>
</g>
<!-- Node19 -->
<g id="node39" class="node"><title>Node19</title>
<polygon fill="white" stroke="#bfbfbf" points="831,-0.5 831,-21.5 913,-21.5 913,-0.5 831,-0.5"/>
<text text-anchor="middle" x="872" y="-8.5" font-family="Helvetica,sans-Serif" font-size="10.00">RooComplex.h</text>
</g>
<!-- Node15&#45;&gt;Node19 -->
<g id="edge40" class="edge"><title>Node15&#45;&gt;Node19</title>
<path fill="none" stroke="midnightblue" d="M899.245,-116.489C863.727,-107.985 820.778,-94.9869 810,-80 795.951,-60.4643 819.422,-40.228 841.401,-26.7637"/>
<polygon fill="midnightblue" stroke="midnightblue" points="843.404,-29.6481 850.299,-21.6036 839.892,-23.5927 843.404,-29.6481"/>
</g>
<!-- Node20 -->
<g id="node42" class="node"><title>Node20</title>
<polygon fill="white" stroke="#bfbfbf" points="940.5,-0.5 940.5,-21.5 1015.5,-21.5 1015.5,-0.5 940.5,-0.5"/>
<text text-anchor="middle" x="978" y="-8.5" font-family="Helvetica,sans-Serif" font-size="10.00">RooAbsArg.h</text>
</g>
<!-- Node15&#45;&gt;Node20 -->
<g id="edge44" class="edge"><title>Node15&#45;&gt;Node20</title>
<path fill="none" stroke="midnightblue" d="M1000.75,-116.489C1036.27,-107.985 1079.22,-94.9869 1090,-80 1110.77,-51.1127 1064.78,-31.8303 1025.59,-21.1611"/>
<polygon fill="midnightblue" stroke="midnightblue" points="1026.38,-17.7494 1015.82,-18.6336 1024.63,-24.5264 1026.38,-17.7494"/>
</g>
<!-- Node21 -->
<g id="node45" class="node"><title>Node21</title>
<a xlink:href="../../d3/d76/AmpAbsDynamicalFunction_8hpp.xhtml" target="_top" xlink:title="Physics/AmplitudeSum/AmpAbsDynamicalFunction.hpp">
<polygon fill="white" stroke="black" points="819,-58.5 819,-79.5 1081,-79.5 1081,-58.5 819,-58.5"/>
<text text-anchor="middle" x="950" y="-66.5" font-family="Helvetica,sans-Serif" font-size="10.00">Physics/AmplitudeSum/AmpAbsDynamicalFunction.hpp</text>
</a>
</g>
<!-- Node15&#45;&gt;Node21 -->
<g id="edge48" class="edge"><title>Node15&#45;&gt;Node21</title>
<path fill="none" stroke="midnightblue" d="M950,-116.362C950,-108.922 950,-98.7427 950,-89.7276"/>
<polygon fill="midnightblue" stroke="midnightblue" points="953.5,-89.5706 950,-79.5707 946.5,-89.5707 953.5,-89.5706"/>
</g>
<!-- Node21&#45;&gt;Node16 -->
<g id="edge56" class="edge"><title>Node21&#45;&gt;Node16</title>
<path fill="none" stroke="midnightblue" d="M914.325,-58.4966C877.49,-47.6519 820.538,-30.8843 785.082,-20.4455"/>
<polygon fill="midnightblue" stroke="midnightblue" points="785.832,-17.0178 775.251,-17.5509 783.855,-23.7328 785.832,-17.0178"/>
</g>
<!-- Node21&#45;&gt;Node17 -->
<g id="edge50" class="edge"><title>Node21&#45;&gt;Node17</title>
<path fill="none" stroke="midnightblue" d="M980.424,-58.4966C1007.95,-48.994 1048.65,-34.9438 1078.64,-24.5887"/>
<polygon fill="midnightblue" stroke="midnightblue" points="1080.06,-27.8024 1088.37,-21.2305 1077.77,-21.1856 1080.06,-27.8024"/>
</g>
<!-- Node21&#45;&gt;Node19 -->
<g id="edge52" class="edge"><title>Node21&#45;&gt;Node19</title>
<path fill="none" stroke="midnightblue" d="M935.694,-58.3619C924.149,-49.7773 907.7,-37.5459 894.41,-27.6636"/>
<polygon fill="midnightblue" stroke="midnightblue" points="896.329,-24.7291 886.216,-21.5707 892.152,-30.3463 896.329,-24.7291"/>
</g>
<!-- Node21&#45;&gt;Node20 -->
<g id="edge54" class="edge"><title>Node21&#45;&gt;Node20</title>
<path fill="none" stroke="midnightblue" d="M955.136,-58.3619C958.846,-50.6766 963.967,-40.0686 968.422,-30.8399"/>
<polygon fill="midnightblue" stroke="midnightblue" points="971.701,-32.0978 972.897,-21.5707 965.397,-29.0545 971.701,-32.0978"/>
</g>
<!-- Node22&#45;&gt;Node5 -->
<g id="edge64" class="edge"><title>Node22&#45;&gt;Node5</title>
<path fill="none" stroke="midnightblue" d="M460.619,-116.497C509.962,-106.052 585.26,-90.1129 634.804,-79.6254"/>
<polygon fill="midnightblue" stroke="midnightblue" points="635.602,-83.0342 644.66,-77.5391 634.152,-76.186 635.602,-83.0342"/>
</g>
<!-- Node22&#45;&gt;Node12 -->
<g id="edge62" class="edge"><title>Node22&#45;&gt;Node12</title>
<path fill="none" stroke="midnightblue" d="M411,-116.362C411,-108.922 411,-98.7427 411,-89.7276"/>
<polygon fill="midnightblue" stroke="midnightblue" points="414.5,-89.5706 411,-79.5707 407.5,-89.5707 414.5,-89.5706"/>
</g>
<!-- Node22&#45;&gt;Node16 -->
<g id="edge60" class="edge"><title>Node22&#45;&gt;Node16</title>
<path fill="none" stroke="midnightblue" d="M442.257,-116.398C507.057,-94.4192 655.445,-44.0887 720.934,-21.876"/>
<polygon fill="midnightblue" stroke="midnightblue" points="722.362,-25.0878 730.708,-18.5611 720.113,-18.4587 722.362,-25.0878"/>
</g>
</g>
</svg>
