<?xml version="1.0" encoding="UTF-8" standalone="no"?>
<!DOCTYPE svg PUBLIC "-//W3C//DTD SVG 1.1//EN"
 "http://www.w3.org/Graphics/SVG/1.1/DTD/svg11.dtd">
<!-- Generated by graphviz version 2.26.3 (20100126.1600)
 -->
<!-- Title: G Pages: 1 -->
<svg width="1063pt" height="320pt"
 viewBox="0.00 0.00 1063.00 320.00" xmlns="http://www.w3.org/2000/svg" xmlns:xlink="http://www.w3.org/1999/xlink">
<g id="graph1" class="graph" transform="scale(1 1) rotate(0) translate(4 316)">
<title>G</title>
<polygon fill="white" stroke="white" points="-4,5 -4,-316 1060,-316 1060,5 -4,5"/>
<!-- Node1 -->
<g id="node1" class="node"><title>Node1</title>
<polygon fill="#bfbfbf" stroke="black" points="185,-290.5 185,-311.5 419,-311.5 419,-290.5 185,-290.5"/>
<text text-anchor="middle" x="302" y="-298.5" font-family="Helvetica,sans-Serif" font-size="10.00">Physics/AmplitudeSum/PhiSumOfAmplitudes.cpp</text>
</g>
<!-- Node2 -->
<g id="node3" class="node"><title>Node2</title>
<polygon fill="white" stroke="#bfbfbf" points="216,-232.5 216,-253.5 260,-253.5 260,-232.5 216,-232.5"/>
<text text-anchor="middle" x="238" y="-240.5" font-family="Helvetica,sans-Serif" font-size="10.00">cmath</text>
</g>
<!-- Node1&#45;&gt;Node2 -->
<g id="edge2" class="edge"><title>Node1&#45;&gt;Node2</title>
<path fill="none" stroke="midnightblue" d="M290.261,-290.362C281.059,-282.023 268.06,-270.242 257.328,-260.516"/>
<polygon fill="midnightblue" stroke="midnightblue" points="259.424,-257.692 249.664,-253.571 254.724,-262.879 259.424,-257.692"/>
</g>
<!-- Node3 -->
<g id="node5" class="node"><title>Node3</title>
<polygon fill="white" stroke="#bfbfbf" points="278,-232.5 278,-253.5 326,-253.5 326,-232.5 278,-232.5"/>
<text text-anchor="middle" x="302" y="-240.5" font-family="Helvetica,sans-Serif" font-size="10.00">qft++.h</text>
</g>
<!-- Node1&#45;&gt;Node3 -->
<g id="edge4" class="edge"><title>Node1&#45;&gt;Node3</title>
<path fill="none" stroke="midnightblue" d="M302,-290.362C302,-282.922 302,-272.743 302,-263.728"/>
<polygon fill="midnightblue" stroke="midnightblue" points="305.5,-263.571 302,-253.571 298.5,-263.571 305.5,-263.571"/>
</g>
<!-- Node4 -->
<g id="node7" class="node"><title>Node4</title>
<a xlink:href="../../d3/d66/PhiSumOfAmplitudes_8hpp.xhtml" target="_top" xlink:title="Physics/AmplitudeSum/PhiSumOfAmplitudes.hpp">
<polygon fill="white" stroke="black" points="344,-232.5 344,-253.5 578,-253.5 578,-232.5 344,-232.5"/>
<text text-anchor="middle" x="461" y="-240.5" font-family="Helvetica,sans-Serif" font-size="10.00">Physics/AmplitudeSum/PhiSumOfAmplitudes.hpp</text>
</a>
</g>
<!-- Node1&#45;&gt;Node4 -->
<g id="edge6" class="edge"><title>Node1&#45;&gt;Node4</title>
<path fill="none" stroke="midnightblue" d="M330.794,-290.497C356.491,-281.123 394.318,-267.324 422.587,-257.012"/>
<polygon fill="midnightblue" stroke="midnightblue" points="423.957,-260.238 432.152,-253.523 421.558,-253.662 423.957,-260.238"/>
</g>
<!-- Node5 -->
<g id="node9" class="node"><title>Node5</title>
<a xlink:href="../../db/dce/Parameter_8hpp.xhtml" target="_top" xlink:title="This class implements some internal container of parameters.">
<polygon fill="white" stroke="black" points="558,-116.5 558,-137.5 662,-137.5 662,-116.5 558,-116.5"/>
<text text-anchor="middle" x="610" y="-124.5" font-family="Helvetica,sans-Serif" font-size="10.00">Core/Parameter.hpp</text>
</a>
</g>
<!-- Node4&#45;&gt;Node5 -->
<g id="edge8" class="edge"><title>Node4&#45;&gt;Node5</title>
<path fill="none" stroke="midnightblue" d="M509.746,-232.431C545.247,-223.709 589.111,-210.455 601,-196 611.885,-182.766 613.471,-163.014 612.721,-148.03"/>
<polygon fill="midnightblue" stroke="midnightblue" points="616.173,-147.341 611.807,-137.688 609.201,-147.957 616.173,-147.341"/>
</g>
<!-- Node11 -->
<g id="node22" class="node"><title>Node11</title>
<polygon fill="white" stroke="#bfbfbf" points="133,-0.5 133,-21.5 177,-21.5 177,-0.5 133,-0.5"/>
<text text-anchor="middle" x="155" y="-8.5" font-family="Helvetica,sans-Serif" font-size="10.00">vector</text>
</g>
<!-- Node4&#45;&gt;Node11 -->
<g id="edge78" class="edge"><title>Node4&#45;&gt;Node11</title>
<path fill="none" stroke="midnightblue" d="M344.063,-232.479C238.044,-222.364 94.6754,-207.028 70,-196 34.3483,-180.066 20.0982,-173.578 4,-138 -7.04089,-113.599 20.7474,-60.3108 23,-58 37.119,-43.5164 88.5955,-28.0169 122.937,-18.9331"/>
<polygon fill="midnightblue" stroke="midnightblue" points="124.183,-22.2259 132.984,-16.3282 122.426,-15.45 124.183,-22.2259"/>
</g>
<!-- Node12 -->
<g id="node24" class="node"><title>Node12</title>
<polygon fill="white" stroke="#bfbfbf" points="929,-0.5 929,-21.5 981,-21.5 981,-0.5 929,-0.5"/>
<text text-anchor="middle" x="955" y="-8.5" font-family="Helvetica,sans-Serif" font-size="10.00">memory</text>
</g>
<!-- Node4&#45;&gt;Node12 -->
<g id="edge80" class="edge"><title>Node4&#45;&gt;Node12</title>
<path fill="none" stroke="midnightblue" d="M498.874,-232.444C531.01,-223.318 578.251,-209.502 619,-196 761.411,-148.812 834.358,-190.348 936,-80 947.94,-67.037 952.482,-47.2559 954.158,-32.1919"/>
<polygon fill="midnightblue" stroke="midnightblue" points="957.681,-32.0212 954.956,-21.7828 950.702,-31.4859 957.681,-32.0212"/>
</g>
<!-- Node17 -->
<g id="node35" class="node"><title>Node17</title>
<a xlink:href="../../d3/d76/AmpAbsDynamicalFunction_8hpp.xhtml" target="_top" xlink:title="Physics/AmplitudeSum/AmpAbsDynamicalFunction.hpp">
<polygon fill="white" stroke="black" points="330,-174.5 330,-195.5 592,-195.5 592,-174.5 330,-174.5"/>
<text text-anchor="middle" x="461" y="-182.5" font-family="Helvetica,sans-Serif" font-size="10.00">Physics/AmplitudeSum/AmpAbsDynamicalFunction.hpp</text>
</a>
</g>
<!-- Node4&#45;&gt;Node17 -->
<g id="edge36" class="edge"><title>Node4&#45;&gt;Node17</title>
<path fill="none" stroke="midnightblue" d="M461,-232.362C461,-224.922 461,-214.743 461,-205.728"/>
<polygon fill="midnightblue" stroke="midnightblue" points="464.5,-205.571 461,-195.571 457.5,-205.571 464.5,-205.571"/>
</g>
<!-- Node23 -->
<g id="node54" class="node"><title>Node23</title>
<a xlink:href="../../d4/d12/AmpWigner_8hpp.xhtml" target="_top" xlink:title="Physics/AmplitudeSum/AmpWigner.hpp">
<polygon fill="white" stroke="black" points="78.5,-174.5 78.5,-195.5 269.5,-195.5 269.5,-174.5 78.5,-174.5"/>
<text text-anchor="middle" x="174" y="-182.5" font-family="Helvetica,sans-Serif" font-size="10.00">Physics/AmplitudeSum/AmpWigner.hpp</text>
</a>
</g>
<!-- Node4&#45;&gt;Node23 -->
<g id="edge62" class="edge"><title>Node4&#45;&gt;Node23</title>
<path fill="none" stroke="midnightblue" d="M409.026,-232.497C360.415,-222.673 287.753,-207.988 236.107,-197.551"/>
<polygon fill="midnightblue" stroke="midnightblue" points="236.566,-194.073 226.071,-195.523 235.18,-200.935 236.566,-194.073"/>
</g>
<!-- Node6 -->
<g id="node11" class="node"><title>Node6</title>
<polygon fill="white" stroke="#bfbfbf" points="327,-58.5 327,-79.5 381,-79.5 381,-58.5 327,-58.5"/>
<text text-anchor="middle" x="354" y="-66.5" font-family="Helvetica,sans-Serif" font-size="10.00">iostream</text>
</g>
<!-- Node5&#45;&gt;Node6 -->
<g id="edge10" class="edge"><title>Node5&#45;&gt;Node6</title>
<path fill="none" stroke="midnightblue" d="M557.696,-117.144C515.207,-108.839 453.553,-96.1161 391.086,-80.1331"/>
<polygon fill="midnightblue" stroke="midnightblue" points="391.614,-76.6546 381.056,-77.5401 389.861,-83.4317 391.614,-76.6546"/>
</g>
<!-- Node7 -->
<g id="node13" class="node"><title>Node7</title>
<polygon fill="white" stroke="#bfbfbf" points="738.5,-0.5 738.5,-21.5 779.5,-21.5 779.5,-0.5 738.5,-0.5"/>
<text text-anchor="middle" x="759" y="-8.5" font-family="Helvetica,sans-Serif" font-size="10.00">string</text>
</g>
<!-- Node5&#45;&gt;Node7 -->
<g id="edge12" class="edge"><title>Node5&#45;&gt;Node7</title>
<path fill="none" stroke="midnightblue" d="M662.382,-117.089C700.095,-108.774 746.305,-95.7441 758,-80 768.233,-66.2247 767.328,-46.2637 764.545,-31.3513"/>
<polygon fill="midnightblue" stroke="midnightblue" points="767.946,-30.5229 762.32,-21.5457 761.12,-32.0724 767.946,-30.5229"/>
</g>
<!-- Node8 -->
<g id="node15" class="node"><title>Node8</title>
<polygon fill="white" stroke="#bfbfbf" points="571,-58.5 571,-79.5 623,-79.5 623,-58.5 571,-58.5"/>
<text text-anchor="middle" x="597" y="-66.5" font-family="Helvetica,sans-Serif" font-size="10.00">sstream</text>
</g>
<!-- Node5&#45;&gt;Node8 -->
<g id="edge14" class="edge"><title>Node5&#45;&gt;Node8</title>
<path fill="none" stroke="midnightblue" d="M607.616,-116.362C605.93,-108.84 603.616,-98.5187 601.579,-89.4308"/>
<polygon fill="midnightblue" stroke="midnightblue" points="604.972,-88.563 599.369,-79.5707 598.141,-90.0941 604.972,-88.563"/>
</g>
<!-- Node9 -->
<g id="node17" class="node"><title>Node9</title>
<polygon fill="white" stroke="#bfbfbf" points="500.5,-58.5 500.5,-79.5 553.5,-79.5 553.5,-58.5 500.5,-58.5"/>
<text text-anchor="middle" x="527" y="-66.5" font-family="Helvetica,sans-Serif" font-size="10.00">complex</text>
</g>
<!-- Node5&#45;&gt;Node9 -->
<g id="edge16" class="edge"><title>Node5&#45;&gt;Node9</title>
<path fill="none" stroke="midnightblue" d="M594.777,-116.362C582.375,-107.696 564.654,-95.3126 550.443,-85.3819"/>
<polygon fill="midnightblue" stroke="midnightblue" points="552.329,-82.4297 542.127,-79.5707 548.319,-88.1676 552.329,-82.4297"/>
</g>
<!-- Node10 -->
<g id="node19" class="node"><title>Node10</title>
<a xlink:href="../../d8/def/AbsParameter_8hpp.xhtml" target="_top" xlink:title="This class defines the internal container of a parameter.">
<polygon fill="white" stroke="black" points="805,-58.5 805,-79.5 927,-79.5 927,-58.5 805,-58.5"/>
<text text-anchor="middle" x="866" y="-66.5" font-family="Helvetica,sans-Serif" font-size="10.00">Core/AbsParameter.hpp</text>
</a>
</g>
<!-- Node5&#45;&gt;Node10 -->
<g id="edge18" class="edge"><title>Node5&#45;&gt;Node10</title>
<path fill="none" stroke="midnightblue" d="M656.36,-116.497C699.45,-106.734 763.725,-92.1718 809.736,-81.7474"/>
<polygon fill="midnightblue" stroke="midnightblue" points="810.574,-85.1463 819.553,-79.5231 809.027,-78.3193 810.574,-85.1463"/>
</g>
<!-- Node15 -->
<g id="node30" class="node"><title>Node15</title>
<a xlink:href="../../d2/de9/Exceptions_8hpp.xhtml" target="_top" xlink:title="This class defines the ComPWA exception base&#45;class and provides a set of standard exceptions...">
<polygon fill="white" stroke="black" points="641,-58.5 641,-79.5 749,-79.5 749,-58.5 641,-58.5"/>
<text text-anchor="middle" x="695" y="-66.5" font-family="Helvetica,sans-Serif" font-size="10.00">Core/Exceptions.hpp</text>
</a>
</g>
<!-- Node5&#45;&gt;Node15 -->
<g id="edge30" class="edge"><title>Node5&#45;&gt;Node15</title>
<path fill="none" stroke="midnightblue" d="M625.59,-116.362C638.291,-107.696 656.438,-95.3126 670.992,-85.3819"/>
<polygon fill="midnightblue" stroke="midnightblue" points="673.221,-88.0982 679.509,-79.5707 669.276,-82.316 673.221,-88.0982"/>
</g>
<!-- Node10&#45;&gt;Node7 -->
<g id="edge20" class="edge"><title>Node10&#45;&gt;Node7</title>
<path fill="none" stroke="midnightblue" d="M846.375,-58.3619C829.859,-49.4094 806.026,-36.4908 787.422,-26.4064"/>
<polygon fill="midnightblue" stroke="midnightblue" points="788.96,-23.2592 778.501,-21.5707 785.625,-29.4132 788.96,-23.2592"/>
</g>
<!-- Node10&#45;&gt;Node11 -->
<g id="edge22" class="edge"><title>Node10&#45;&gt;Node11</title>
<path fill="none" stroke="midnightblue" d="M804.91,-62.5228C789.6,-60.9698 773.205,-59.3667 758,-58 540.17,-38.4204 277.637,-19.5891 187.336,-13.2492"/>
<polygon fill="midnightblue" stroke="midnightblue" points="187.412,-9.74609 177.192,-12.5388 186.923,-16.729 187.412,-9.74609"/>
</g>
<!-- Node10&#45;&gt;Node12 -->
<g id="edge24" class="edge"><title>Node10&#45;&gt;Node12</title>
<path fill="none" stroke="midnightblue" d="M882.324,-58.3619C895.748,-49.6138 914.983,-37.0786 930.293,-27.1015"/>
<polygon fill="midnightblue" stroke="midnightblue" points="932.312,-29.9628 938.78,-21.5707 928.491,-24.0982 932.312,-29.9628"/>
</g>
<!-- Node13 -->
<g id="node26" class="node"><title>Node13</title>
<polygon fill="white" stroke="#bfbfbf" points="999,-0.5 999,-21.5 1055,-21.5 1055,-0.5 999,-0.5"/>
<text text-anchor="middle" x="1027" y="-8.5" font-family="Helvetica,sans-Serif" font-size="10.00">algorithm</text>
</g>
<!-- Node10&#45;&gt;Node13 -->
<g id="edge26" class="edge"><title>Node10&#45;&gt;Node13</title>
<path fill="none" stroke="midnightblue" d="M895.156,-58.4966C921.5,-49.0061 960.436,-34.9797 989.17,-24.6283"/>
<polygon fill="midnightblue" stroke="midnightblue" points="990.648,-27.8158 998.87,-21.1337 988.276,-21.2301 990.648,-27.8158"/>
</g>
<!-- Node14 -->
<g id="node28" class="node"><title>Node14</title>
<a xlink:href="../../d9/d91/ParObserver_8hpp.xhtml" target="_top" xlink:title="For the use in the function tree, the observer pattern is used.">
<polygon fill="white" stroke="black" points="797,-0.5 797,-21.5 911,-21.5 911,-0.5 797,-0.5"/>
<text text-anchor="middle" x="854" y="-8.5" font-family="Helvetica,sans-Serif" font-size="10.00">Core/ParObserver.hpp</text>
</a>
</g>
<!-- Node10&#45;&gt;Node14 -->
<g id="edge28" class="edge"><title>Node10&#45;&gt;Node14</title>
<path fill="none" stroke="midnightblue" d="M863.799,-58.3619C862.243,-50.8401 860.107,-40.5187 858.227,-31.4308"/>
<polygon fill="midnightblue" stroke="midnightblue" points="861.641,-30.6541 856.187,-21.5707 854.786,-32.0724 861.641,-30.6541"/>
</g>
<!-- Node15&#45;&gt;Node7 -->
<g id="edge34" class="edge"><title>Node15&#45;&gt;Node7</title>
<path fill="none" stroke="midnightblue" d="M706.739,-58.3619C715.941,-50.0226 728.94,-38.2418 739.672,-28.5162"/>
<polygon fill="midnightblue" stroke="midnightblue" points="742.276,-30.8793 747.336,-21.5707 737.576,-25.6924 742.276,-30.8793"/>
</g>
<!-- Node16 -->
<g id="node32" class="node"><title>Node16</title>
<polygon fill="white" stroke="#bfbfbf" points="662.5,-0.5 662.5,-21.5 721.5,-21.5 721.5,-0.5 662.5,-0.5"/>
<text text-anchor="middle" x="692" y="-8.5" font-family="Helvetica,sans-Serif" font-size="10.00">exception</text>
</g>
<!-- Node15&#45;&gt;Node16 -->
<g id="edge32" class="edge"><title>Node15&#45;&gt;Node16</title>
<path fill="none" stroke="midnightblue" d="M694.45,-58.3619C694.065,-50.9219 693.538,-40.7427 693.072,-31.7276"/>
<polygon fill="midnightblue" stroke="midnightblue" points="696.559,-31.3765 692.547,-21.5707 689.568,-31.7381 696.559,-31.3765"/>
</g>
<!-- Node17&#45;&gt;Node5 -->
<g id="edge42" class="edge"><title>Node17&#45;&gt;Node5</title>
<path fill="none" stroke="midnightblue" d="M487.983,-174.497C511.853,-165.205 546.894,-151.565 573.307,-141.283"/>
<polygon fill="midnightblue" stroke="midnightblue" points="574.917,-144.412 582.967,-137.523 572.378,-137.889 574.917,-144.412"/>
</g>
<!-- Node17&#45;&gt;Node9 -->
<g id="edge40" class="edge"><title>Node17&#45;&gt;Node9</title>
<path fill="none" stroke="midnightblue" d="M467.091,-174.295C478.191,-154.786 501.858,-113.188 515.895,-88.5177"/>
<polygon fill="midnightblue" stroke="midnightblue" points="519.021,-90.1017 520.924,-79.6792 512.937,-86.64 519.021,-90.1017"/>
</g>
<!-- Node17&#45;&gt;Node11 -->
<g id="edge38" class="edge"><title>Node17&#45;&gt;Node11</title>
<path fill="none" stroke="midnightblue" d="M464.291,-174.492C471.104,-150.44 483.763,-90.927 454,-58 436.242,-38.3544 261.05,-20.5052 187.377,-13.8049"/>
<polygon fill="midnightblue" stroke="midnightblue" points="187.547,-10.3062 177.274,-12.8983 186.921,-17.2782 187.547,-10.3062"/>
</g>
<!-- Node18 -->
<g id="node40" class="node"><title>Node18</title>
<a xlink:href="../../d8/dd4/DataPoint_8hpp.xhtml" target="_top" xlink:title="dataPoint stores kinematic information of a dalitz plot">
<polygon fill="white" stroke="black" points="256.5,-116.5 256.5,-137.5 359.5,-137.5 359.5,-116.5 256.5,-116.5"/>
<text text-anchor="middle" x="308" y="-124.5" font-family="Helvetica,sans-Serif" font-size="10.00">Core/DataPoint.hpp</text>
</a>
</g>
<!-- Node17&#45;&gt;Node18 -->
<g id="edge44" class="edge"><title>Node17&#45;&gt;Node18</title>
<path fill="none" stroke="midnightblue" d="M433.293,-174.497C408.674,-165.164 372.483,-151.445 345.32,-141.147"/>
<polygon fill="midnightblue" stroke="midnightblue" points="346.35,-137.795 335.759,-137.523 343.869,-144.341 346.35,-137.795"/>
</g>
<!-- Node18&#45;&gt;Node11 -->
<g id="edge50" class="edge"><title>Node18&#45;&gt;Node11</title>
<path fill="none" stroke="midnightblue" d="M294.32,-116.423C276.717,-102.834 245.167,-78.5461 218,-58 204.688,-47.9321 189.715,-36.7557 177.707,-27.8284"/>
<polygon fill="midnightblue" stroke="midnightblue" points="179.669,-24.9256 169.554,-21.7734 175.495,-30.5454 179.669,-24.9256"/>
</g>
<!-- Node19 -->
<g id="node42" class="node"><title>Node19</title>
<polygon fill="white" stroke="#bfbfbf" points="264.5,-58.5 264.5,-79.5 309.5,-79.5 309.5,-58.5 264.5,-58.5"/>
<text text-anchor="middle" x="287" y="-66.5" font-family="Helvetica,sans-Serif" font-size="10.00">cstdlib</text>
</g>
<!-- Node18&#45;&gt;Node19 -->
<g id="edge46" class="edge"><title>Node18&#45;&gt;Node19</title>
<path fill="none" stroke="midnightblue" d="M304.148,-116.362C301.395,-108.758 297.606,-98.294 294.29,-89.1349"/>
<polygon fill="midnightblue" stroke="midnightblue" points="297.523,-87.7818 290.827,-79.5707 290.941,-90.1649 297.523,-87.7818"/>
</g>
<!-- Node20 -->
<g id="node44" class="node"><title>Node20</title>
<polygon fill="white" stroke="#bfbfbf" points="398.5,-58.5 398.5,-79.5 445.5,-79.5 445.5,-58.5 398.5,-58.5"/>
<text text-anchor="middle" x="422" y="-66.5" font-family="Helvetica,sans-Serif" font-size="10.00">math.h</text>
</g>
<!-- Node18&#45;&gt;Node20 -->
<g id="edge48" class="edge"><title>Node18&#45;&gt;Node20</title>
<path fill="none" stroke="midnightblue" d="M328.645,-116.497C346.37,-107.479 372.145,-94.3649 392.123,-84.2006"/>
<polygon fill="midnightblue" stroke="midnightblue" points="393.798,-87.2753 401.124,-79.6212 390.624,-81.0364 393.798,-87.2753"/>
</g>
<!-- Node21 -->
<g id="node47" class="node"><title>Node21</title>
<a xlink:href="../../d4/d37/Kinematics_8hpp.xhtml" target="_top" xlink:title="Core/Kinematics.hpp">
<polygon fill="white" stroke="black" points="101,-58.5 101,-79.5 209,-79.5 209,-58.5 101,-58.5"/>
<text text-anchor="middle" x="155" y="-66.5" font-family="Helvetica,sans-Serif" font-size="10.00">Core/Kinematics.hpp</text>
</a>
</g>
<!-- Node18&#45;&gt;Node21 -->
<g id="edge52" class="edge"><title>Node18&#45;&gt;Node21</title>
<path fill="none" stroke="midnightblue" d="M274.953,-116.497C248.857,-107.234 212.83,-93.6499 187.011,-83.3793"/>
<polygon fill="midnightblue" stroke="midnightblue" points="188.241,-80.1017 177.657,-79.6212 185.631,-86.5971 188.241,-80.1017"/>
</g>
<!-- Node21&#45;&gt;Node11 -->
<g id="edge54" class="edge"><title>Node21&#45;&gt;Node11</title>
<path fill="none" stroke="midnightblue" d="M155,-58.3619C155,-50.9219 155,-40.7427 155,-31.7276"/>
<polygon fill="midnightblue" stroke="midnightblue" points="158.5,-31.5706 155,-21.5707 151.5,-31.5707 158.5,-31.5706"/>
</g>
<!-- Node21&#45;&gt;Node12 -->
<g id="edge56" class="edge"><title>Node21&#45;&gt;Node12</title>
<path fill="none" stroke="midnightblue" d="M209.2,-62.5489C224.332,-60.8971 240.793,-59.2394 256,-58 547.26,-34.2614 627.402,-73.8119 918.793,-21.8145"/>
<polygon fill="midnightblue" stroke="midnightblue" points="919.585,-25.2282 928.804,-20.0071 918.341,-18.3395 919.585,-25.2282"/>
</g>
<!-- Node21&#45;&gt;Node18 -->
<g id="edge60" class="edge"><title>Node21&#45;&gt;Node18</title>
<path fill="none" stroke="midnightblue" d="M188.103,-79.5231C214.294,-88.821 250.464,-102.462 276.286,-112.739"/>
<polygon fill="midnightblue" stroke="midnightblue" points="275.049,-116.014 285.633,-116.497 277.66,-109.519 275.049,-116.014"/>
</g>
<!-- Node22 -->
<g id="node51" class="node"><title>Node22</title>
<polygon fill="white" stroke="#bfbfbf" points="-0.5,-0.5 -0.5,-21.5 100.5,-21.5 100.5,-0.5 -0.5,-0.5"/>
<text text-anchor="middle" x="50" y="-8.5" font-family="Helvetica,sans-Serif" font-size="10.00">boost/log/trivial.hpp</text>
</g>
<!-- Node21&#45;&gt;Node22 -->
<g id="edge58" class="edge"><title>Node21&#45;&gt;Node22</title>
<path fill="none" stroke="midnightblue" d="M135.741,-58.3619C119.534,-49.4094 96.1471,-36.4908 77.8909,-26.4064"/>
<polygon fill="midnightblue" stroke="midnightblue" points="79.5822,-23.3422 69.1365,-21.5707 76.1976,-29.4696 79.5822,-23.3422"/>
</g>
<!-- Node23&#45;&gt;Node11 -->
<g id="edge64" class="edge"><title>Node23&#45;&gt;Node11</title>
<path fill="none" stroke="midnightblue" d="M112.187,-174.425C73.1229,-166.34 27.8486,-153.886 16,-138 -20.8109,-88.6449 71.7991,-43.1643 123.307,-22.5763"/>
<polygon fill="midnightblue" stroke="midnightblue" points="124.663,-25.8046 132.708,-18.9115 122.12,-19.2826 124.663,-25.8046"/>
</g>
<!-- Node23&#45;&gt;Node18 -->
<g id="edge76" class="edge"><title>Node23&#45;&gt;Node18</title>
<path fill="none" stroke="midnightblue" d="M198.266,-174.497C219.478,-165.315 250.498,-151.889 274.15,-141.652"/>
<polygon fill="midnightblue" stroke="midnightblue" points="275.674,-144.806 283.461,-137.621 272.894,-138.381 275.674,-144.806"/>
</g>
<!-- Node24 -->
<g id="node57" class="node"><title>Node24</title>
<a xlink:href="../../d7/dd9/DalitzKinematics_8hpp.xhtml" target="_top" xlink:title="Physics/DPKinematics/DalitzKinematics.hpp">
<polygon fill="white" stroke="black" points="25,-116.5 25,-137.5 239,-137.5 239,-116.5 25,-116.5"/>
<text text-anchor="middle" x="132" y="-124.5" font-family="Helvetica,sans-Serif" font-size="10.00">Physics/DPKinematics/DalitzKinematics.hpp</text>
</a>
</g>
<!-- Node23&#45;&gt;Node24 -->
<g id="edge66" class="edge"><title>Node23&#45;&gt;Node24</title>
<path fill="none" stroke="midnightblue" d="M166.297,-174.362C160.554,-166.431 152.557,-155.389 145.73,-145.961"/>
<polygon fill="midnightblue" stroke="midnightblue" points="148.355,-143.617 139.655,-137.571 142.685,-147.723 148.355,-143.617"/>
</g>
<!-- Node24&#45;&gt;Node6 -->
<g id="edge68" class="edge"><title>Node24&#45;&gt;Node6</title>
<path fill="none" stroke="midnightblue" d="M176.131,-116.495C211.779,-107.863 263.454,-95.025 317.212,-80.1353"/>
<polygon fill="midnightblue" stroke="midnightblue" points="318.221,-83.4875 326.915,-77.4316 316.342,-76.7444 318.221,-83.4875"/>
</g>
<!-- Node24&#45;&gt;Node11 -->
<g id="edge70" class="edge"><title>Node24&#45;&gt;Node11</title>
<path fill="none" stroke="midnightblue" d="M118.457,-116.464C103.049,-103.118 81.3221,-79.2881 92,-58 98.8432,-44.3569 111.733,-33.6635 124.08,-25.9466"/>
<polygon fill="midnightblue" stroke="midnightblue" points="125.978,-28.8922 132.88,-20.8539 122.471,-22.8336 125.978,-28.8922"/>
</g>
<!-- Node24&#45;&gt;Node21 -->
<g id="edge74" class="edge"><title>Node24&#45;&gt;Node21</title>
<path fill="none" stroke="midnightblue" d="M136.219,-116.362C139.234,-108.758 143.383,-98.294 147.015,-89.1349"/>
<polygon fill="midnightblue" stroke="midnightblue" points="150.375,-90.1567 150.808,-79.5707 143.868,-87.5762 150.375,-90.1567"/>
</g>
<!-- Node24&#45;&gt;Node22 -->
<g id="edge72" class="edge"><title>Node24&#45;&gt;Node22</title>
<path fill="none" stroke="midnightblue" d="M119.646,-116.265C109.749,-107.248 95.9248,-93.6762 86,-80 74.8885,-64.6886 65.1626,-45.4853 58.6304,-31.2276"/>
<polygon fill="midnightblue" stroke="midnightblue" points="61.7218,-29.5651 54.4644,-21.8462 55.3242,-32.4061 61.7218,-29.5651"/>
</g>
</g>
</svg>
