<?xml version="1.0" encoding="UTF-8" standalone="no"?>
<!DOCTYPE svg PUBLIC "-//W3C//DTD SVG 1.1//EN"
 "http://www.w3.org/Graphics/SVG/1.1/DTD/svg11.dtd">
<!-- Generated by graphviz version 2.36.0 (20140111.2315)
 -->
<!-- Title: /home/travis/build/ComPWA/ComPWA/Core/FitResult.cpp Pages: 1 -->
<!--zoomable 298 -->
<svg id="main" version="1.1" xmlns="http://www.w3.org/2000/svg" xmlns:xlink="http://www.w3.org/1999/xlink" xml:space="preserve" onload="init(evt)">
<style type="text/css"><![CDATA[
.edge:hover path { stroke: red; }
.edge:hover polygon { stroke: red; fill: red; }
]]></style>
<script type="text/javascript"><![CDATA[
var edges = document.getElementsByTagName('g');
if (edges && edges.length) {
  for (var i=0;i<edges.length;i++) {
    if (edges[i].id.substr(0,4)=='edge') {
      edges[i].setAttribute('class','edge');
    }
  }
}
]]></script>
        <defs>
                <circle id="rim" cx="0" cy="0" r="7"/>
                <circle id="rim2" cx="0" cy="0" r="3.5"/>
                <g id="zoomPlus">
                        <use xlink:href="#rim" fill="#404040">
                                <set attributeName="fill" to="#808080" begin="zoomplus.mouseover" end="zoomplus.mouseout"/>
                        </use>
                        <path d="M-4,0h8M0,-4v8" fill="none" stroke="white" stroke-width="1.5" pointer-events="none"/>
                </g>
                <g id="zoomMin">
                        <use xlink:href="#rim" fill="#404040">
                                <set attributeName="fill" to="#808080" begin="zoomminus.mouseover" end="zoomminus.mouseout"/>
                        </use>
                        <path d="M-4,0h8" fill="none" stroke="white" stroke-width="1.5" pointer-events="none"/>
                </g>
                <g id="dirArrow">
                        <path fill="none" stroke="white" stroke-width="1.5" d="M0,-3.0v7 M-2.5,-0.5L0,-3.0L2.5,-0.5"/>
                </g>
               <g id="resetDef">
                       <use xlink:href="#rim2" fill="#404040">
                               <set attributeName="fill" to="#808080" begin="reset.mouseover" end="reset.mouseout"/>
                       </use>
               </g>
        </defs>

<script type="text/javascript">
var viewWidth = 1071;
var viewHeight = 298;
var sectionId = 'dynsection-0';
</script>
<script xlink:href="../../svgpan.js"/>
<svg id="graph" class="graph">
<g id="viewport">
<title>/home/travis/build/ComPWA/ComPWA/Core/FitResult.cpp</title>
<polygon fill="white" stroke="none" points="-4,4 -4,-294 1066.5,-294 1066.5,4 -4,4"/>
<!-- Node1 -->
<g id="node1" class="node"><title>Node1</title>
<polygon fill="#bfbfbf" stroke="black" points="771.001,-248.5 771.001,-289.5 906.001,-289.5 906.001,-248.5 771.001,-248.5"/>
<text text-anchor="start" x="779.001" y="-277.5" font-family="Helvetica,sans-Serif" font-size="10.00">/home/travis/build</text>
<text text-anchor="start" x="779.001" y="-266.5" font-family="Helvetica,sans-Serif" font-size="10.00">/ComPWA/ComPWA/Core</text>
<text text-anchor="middle" x="838.501" y="-255.5" font-family="Helvetica,sans-Serif" font-size="10.00">/FitResult.cpp</text>
</g>
<!-- Node2 -->
<g id="node2" class="node"><title>Node2</title>
<g id="a_node2"><a xlink:href="../../de/d88/FitResult_8hpp.html" target="_top" xlink:title="Core/FitResult.hpp">
<polygon fill="white" stroke="black" points="516.001,-192.5 516.001,-211.5 615.001,-211.5 615.001,-192.5 516.001,-192.5"/>
<text text-anchor="middle" x="565.501" y="-199.5" font-family="Helvetica,sans-Serif" font-size="10.00">Core/FitResult.hpp</text>
</a>
</g>
</g>
<!-- Node1&#45;&gt;Node2 -->
<g id="edge1" class="edge"><title>Node1&#45;&gt;Node2</title>
<path fill="none" stroke="midnightblue" d="M770.667,-251.849C720.856,-239.989 654.55,-224.202 610.978,-213.828"/>
<polygon fill="midnightblue" stroke="midnightblue" points="611.767,-210.418 601.228,-211.506 610.146,-217.228 611.767,-210.418"/>
</g>
<!-- Node15 -->
<g id="node15" class="node"><title>Node15</title>
<g id="a_node15"><a xlink:href="../../da/db4/Logging_8hpp.html" target="_top" xlink:title="Core/Logging.hpp">
<polygon fill="white" stroke="red" points="970.001,-6.5 970.001,-25.5 1063,-25.5 1063,-6.5 970.001,-6.5"/>
<text text-anchor="middle" x="1016.5" y="-13.5" font-family="Helvetica,sans-Serif" font-size="10.00">Core/Logging.hpp</text>
</a>
</g>
</g>
<!-- Node1&#45;&gt;Node15 -->
<g id="edge30" class="edge"><title>Node1&#45;&gt;Node15</title>
<path fill="none" stroke="midnightblue" d="M906.091,-248.537C950.601,-231.811 1005.47,-202.815 1032.5,-156 1054.8,-117.387 1036.89,-62.6872 1024.98,-34.8192"/>
<polygon fill="midnightblue" stroke="midnightblue" points="1028.1,-33.2225 1020.8,-25.5418 1021.71,-36.097 1028.1,-33.2225"/>
</g>
<!-- Node3 -->
<g id="node3" class="node"><title>Node3</title>
<polygon fill="white" stroke="#bfbfbf" points="127.501,-6.5 127.501,-25.5 171.501,-25.5 171.501,-6.5 127.501,-6.5"/>
<text text-anchor="middle" x="149.501" y="-13.5" font-family="Helvetica,sans-Serif" font-size="10.00">vector</text>
</g>
<!-- Node2&#45;&gt;Node3 -->
<g id="edge2" class="edge"><title>Node2&#45;&gt;Node3</title>
<path fill="none" stroke="midnightblue" d="M515.61,-200.936C406.177,-200.082 148.679,-193.968 71.5013,-156 28.3408,-134.767 -19.1277,-107.374 8.50126,-68 32.9219,-33.1979 83.5731,-22.044 117.046,-18.5292"/>
<polygon fill="midnightblue" stroke="midnightblue" points="117.598,-21.9943 127.255,-17.6361 116.988,-15.021 117.598,-21.9943"/>
</g>
<!-- Node4 -->
<g id="node4" class="node"><title>Node4</title>
<polygon fill="white" stroke="#bfbfbf" points="513.001,-6.5 513.001,-25.5 554.001,-25.5 554.001,-6.5 513.001,-6.5"/>
<text text-anchor="middle" x="533.501" y="-13.5" font-family="Helvetica,sans-Serif" font-size="10.00">string</text>
</g>
<!-- Node2&#45;&gt;Node4 -->
<g id="edge3" class="edge"><title>Node2&#45;&gt;Node4</title>
<path fill="none" stroke="midnightblue" d="M615.025,-199.471C722.681,-195.636 970.414,-183.85 995.501,-156 1005.02,-145.433 1004.35,-135.134 995.501,-124 941.054,-55.502 658.517,-26.986 564.194,-19.2804"/>
<polygon fill="midnightblue" stroke="midnightblue" points="564.397,-15.7856 554.151,-18.4811 563.842,-22.7636 564.397,-15.7856"/>
</g>
<!-- Node5 -->
<g id="node5" class="node"><title>Node5</title>
<polygon fill="white" stroke="#bfbfbf" points="330.501,-6.5 330.501,-25.5 384.501,-25.5 384.501,-6.5 330.501,-6.5"/>
<text text-anchor="middle" x="357.501" y="-13.5" font-family="Helvetica,sans-Serif" font-size="10.00">iostream</text>
</g>
<!-- Node2&#45;&gt;Node5 -->
<g id="edge4" class="edge"><title>Node2&#45;&gt;Node5</title>
<path fill="none" stroke="midnightblue" d="M515.891,-199.919C446.937,-197.248 327.524,-187.998 300.501,-156 268.796,-118.457 314.63,-60.8885 341.045,-33.1038"/>
<polygon fill="midnightblue" stroke="midnightblue" points="343.709,-35.3867 348.207,-25.7943 338.709,-30.4877 343.709,-35.3867"/>
</g>
<!-- Node6 -->
<g id="node6" class="node"><title>Node6</title>
<polygon fill="white" stroke="#bfbfbf" points="449.501,-130.5 449.501,-149.5 499.501,-149.5 499.501,-130.5 449.501,-130.5"/>
<text text-anchor="middle" x="474.501" y="-137.5" font-family="Helvetica,sans-Serif" font-size="10.00">fstream</text>
</g>
<!-- Node2&#45;&gt;Node6 -->
<g id="edge5" class="edge"><title>Node2&#45;&gt;Node6</title>
<path fill="none" stroke="midnightblue" d="M552.463,-192.403C537.732,-182.691 513.528,-166.732 495.992,-155.17"/>
<polygon fill="midnightblue" stroke="midnightblue" points="497.79,-152.163 487.515,-149.581 493.937,-158.007 497.79,-152.163"/>
</g>
<!-- Node7 -->
<g id="node7" class="node"><title>Node7</title>
<polygon fill="white" stroke="#bfbfbf" points="199.501,-6.5 199.501,-25.5 251.501,-25.5 251.501,-6.5 199.501,-6.5"/>
<text text-anchor="middle" x="225.501" y="-13.5" font-family="Helvetica,sans-Serif" font-size="10.00">memory</text>
</g>
<!-- Node2&#45;&gt;Node7 -->
<g id="edge6" class="edge"><title>Node2&#45;&gt;Node7</title>
<path fill="none" stroke="midnightblue" d="M515.767,-199.578C406.31,-195.935 152.203,-184.47 126.501,-156 88.5602,-113.971 162.442,-57.2274 202.333,-31.1626"/>
<polygon fill="midnightblue" stroke="midnightblue" points="204.42,-33.9821 210.967,-25.6515 200.654,-28.0816 204.42,-33.9821"/>
</g>
<!-- Node8 -->
<g id="node8" class="node"><title>Node8</title>
<polygon fill="white" stroke="#bfbfbf" points="518.001,-125 518.001,-155 613.001,-155 613.001,-125 518.001,-125"/>
<text text-anchor="start" x="526.001" y="-143" font-family="Helvetica,sans-Serif" font-size="10.00">boost/serialization</text>
<text text-anchor="middle" x="565.501" y="-132" font-family="Helvetica,sans-Serif" font-size="10.00">/serialization.hpp</text>
</g>
<!-- Node2&#45;&gt;Node8 -->
<g id="edge7" class="edge"><title>Node2&#45;&gt;Node8</title>
<path fill="none" stroke="midnightblue" d="M565.501,-192.403C565.501,-185.341 565.501,-174.975 565.501,-165.399"/>
<polygon fill="midnightblue" stroke="midnightblue" points="569.001,-165.141 565.501,-155.141 562.001,-165.141 569.001,-165.141"/>
</g>
<!-- Node9 -->
<g id="node9" class="node"><title>Node9</title>
<polygon fill="white" stroke="#bfbfbf" points="631.001,-125 631.001,-155 726.001,-155 726.001,-125 631.001,-125"/>
<text text-anchor="start" x="639.001" y="-143" font-family="Helvetica,sans-Serif" font-size="10.00">boost/serialization</text>
<text text-anchor="middle" x="678.501" y="-132" font-family="Helvetica,sans-Serif" font-size="10.00">/nvp.hpp</text>
</g>
<!-- Node2&#45;&gt;Node9 -->
<g id="edge8" class="edge"><title>Node2&#45;&gt;Node9</title>
<path fill="none" stroke="midnightblue" d="M581.691,-192.403C597.568,-183.974 622.305,-170.839 642.799,-159.957"/>
<polygon fill="midnightblue" stroke="midnightblue" points="644.679,-162.922 651.869,-155.141 641.396,-156.739 644.679,-162.922"/>
</g>
<!-- Node10 -->
<g id="node10" class="node"><title>Node10</title>
<polygon fill="white" stroke="#bfbfbf" points="762.001,-1 762.001,-31 857.001,-31 857.001,-1 762.001,-1"/>
<text text-anchor="start" x="770.001" y="-19" font-family="Helvetica,sans-Serif" font-size="10.00">boost/serialization</text>
<text text-anchor="middle" x="809.501" y="-8" font-family="Helvetica,sans-Serif" font-size="10.00">/vector.hpp</text>
</g>
<!-- Node2&#45;&gt;Node10 -->
<g id="edge9" class="edge"><title>Node2&#45;&gt;Node10</title>
<path fill="none" stroke="midnightblue" d="M615.307,-199.674C726.291,-196.204 986.245,-185.032 1012.5,-156 1063.84,-99.2292 943.831,-53.8262 867.206,-31.6947"/>
<polygon fill="midnightblue" stroke="midnightblue" points="867.742,-28.2091 857.167,-28.8556 865.837,-34.9449 867.742,-28.2091"/>
</g>
<!-- Node11 -->
<g id="node11" class="node"><title>Node11</title>
<polygon fill="white" stroke="#bfbfbf" points="744.001,-125 744.001,-155 857.001,-155 857.001,-125 744.001,-125"/>
<text text-anchor="start" x="752.001" y="-143" font-family="Helvetica,sans-Serif" font-size="10.00">boost/serialization</text>
<text text-anchor="middle" x="800.501" y="-132" font-family="Helvetica,sans-Serif" font-size="10.00">/assume_abstract.hpp</text>
</g>
<!-- Node2&#45;&gt;Node11 -->
<g id="edge10" class="edge"><title>Node2&#45;&gt;Node11</title>
<path fill="none" stroke="midnightblue" d="M599.171,-192.403C634.686,-183.336 691.521,-168.825 735.762,-157.529"/>
<polygon fill="midnightblue" stroke="midnightblue" points="736.745,-160.89 745.569,-155.025 735.014,-154.108 736.745,-160.89"/>
</g>
<!-- Node12 -->
<g id="node12" class="node"><title>Node12</title>
<polygon fill="white" stroke="#bfbfbf" points="875.001,-125 875.001,-155 970.001,-155 970.001,-125 875.001,-125"/>
<text text-anchor="start" x="883.001" y="-143" font-family="Helvetica,sans-Serif" font-size="10.00">boost/serialization</text>
<text text-anchor="middle" x="922.501" y="-132" font-family="Helvetica,sans-Serif" font-size="10.00">/export.hpp</text>
</g>
<!-- Node2&#45;&gt;Node12 -->
<g id="edge11" class="edge"><title>Node2&#45;&gt;Node12</title>
<path fill="none" stroke="midnightblue" d="M615.161,-195.226C672.857,-188.147 771.065,-174.949 864.767,-156.014"/>
<polygon fill="midnightblue" stroke="midnightblue" points="865.601,-159.416 874.696,-153.983 864.197,-152.558 865.601,-159.416"/>
</g>
<!-- Node13 -->
<g id="node13" class="node"><title>Node13</title>
<g id="a_node13"><a xlink:href="../../dc/dfd/AmpIntensity_8hpp.html" target="_top" xlink:title="Core/AmpIntensity.hpp">
<polygon fill="white" stroke="red" points="136.001,-130.5 136.001,-149.5 253.001,-149.5 253.001,-130.5 136.001,-130.5"/>
<text text-anchor="middle" x="194.501" y="-137.5" font-family="Helvetica,sans-Serif" font-size="10.00">Core/AmpIntensity.hpp</text>
</a>
</g>
</g>
<!-- Node2&#45;&gt;Node13 -->
<g id="edge12" class="edge"><title>Node2&#45;&gt;Node13</title>
<path fill="none" stroke="midnightblue" d="M515.806,-194.313C456.542,-186.15 354.556,-171.506 267.501,-156 259.973,-154.659 252.03,-153.138 244.265,-151.591"/>
<polygon fill="midnightblue" stroke="midnightblue" points="244.705,-148.109 234.209,-149.556 243.316,-154.97 244.705,-148.109"/>
</g>
<!-- Node14 -->
<g id="node14" class="node"><title>Node14</title>
<g id="a_node14"><a xlink:href="../../df/d9f/ParameterList_8hpp.html" target="_top" xlink:title="This class provides a list of fit parameters which can have different types. ">
<polygon fill="white" stroke="red" points="385.501,-68.5 385.501,-87.5 505.501,-87.5 505.501,-68.5 385.501,-68.5"/>
<text text-anchor="middle" x="445.501" y="-75.5" font-family="Helvetica,sans-Serif" font-size="10.00">Core/ParameterList.hpp</text>
</a>
</g>
</g>
<!-- Node2&#45;&gt;Node14 -->
<g id="edge22" class="edge"><title>Node2&#45;&gt;Node14</title>
<path fill="none" stroke="midnightblue" d="M615.031,-199.242C719.457,-195.025 954.602,-182.645 978.501,-156 987.998,-145.413 988.126,-134.471 978.501,-124 947.809,-90.6074 653.56,-81.974 515.884,-79.7577"/>
<polygon fill="midnightblue" stroke="midnightblue" points="515.901,-76.2576 505.849,-79.603 515.793,-83.2568 515.901,-76.2576"/>
</g>
<!-- Node16 -->
<g id="node16" class="node"><title>Node16</title>
<g id="a_node16"><a xlink:href="../../d0/d0c/TableFormater_8hpp.html" target="_top" xlink:title="Core/TableFormater.hpp">
<polygon fill="white" stroke="red" points="309.501,-130.5 309.501,-149.5 431.501,-149.5 431.501,-130.5 309.501,-130.5"/>
<text text-anchor="middle" x="370.501" y="-137.5" font-family="Helvetica,sans-Serif" font-size="10.00">Core/TableFormater.hpp</text>
</a>
</g>
</g>
<!-- Node2&#45;&gt;Node16 -->
<g id="edge23" class="edge"><title>Node2&#45;&gt;Node16</title>
<path fill="none" stroke="midnightblue" d="M537.563,-192.403C503.534,-181.933 445.917,-164.205 408.039,-152.55"/>
<polygon fill="midnightblue" stroke="midnightblue" points="408.975,-149.176 398.388,-149.581 406.917,-155.867 408.975,-149.176"/>
</g>
<!-- Node17 -->
<g id="node17" class="node"><title>Node17</title>
<g id="a_node17"><a xlink:href="../../dc/ded/Properties_8hpp.html" target="_top" xlink:title="Core/Properties.hpp">
<polygon fill="white" stroke="red" points="17.5013,-68.5 17.5013,-87.5 121.501,-87.5 121.501,-68.5 17.5013,-68.5"/>
<text text-anchor="middle" x="69.5013" y="-75.5" font-family="Helvetica,sans-Serif" font-size="10.00">Core/Properties.hpp</text>
</a>
</g>
</g>
<!-- Node2&#45;&gt;Node17 -->
<g id="edge28" class="edge"><title>Node2&#45;&gt;Node17</title>
<path fill="none" stroke="midnightblue" d="M515.665,-199.335C400.994,-195.07 125.776,-182.198 93.5013,-156 76.2971,-142.035 71.1919,-115.911 69.8015,-97.9978"/>
<polygon fill="midnightblue" stroke="midnightblue" points="73.2909,-97.6839 69.3375,-87.8543 66.2982,-98.0039 73.2909,-97.6839"/>
</g>
<!-- Node13&#45;&gt;Node3 -->
<g id="edge13" class="edge"><title>Node13&#45;&gt;Node3</title>
<path fill="none" stroke="midnightblue" d="M191.265,-130.226C183.968,-110.442 166.102,-62.0071 156.267,-35.3436"/>
<polygon fill="midnightblue" stroke="midnightblue" points="159.453,-33.8653 152.708,-25.6944 152.885,-36.2878 159.453,-33.8653"/>
</g>
<!-- Node13&#45;&gt;Node7 -->
<g id="edge14" class="edge"><title>Node13&#45;&gt;Node7</title>
<path fill="none" stroke="midnightblue" d="M196.731,-130.226C201.735,-110.53 213.956,-62.4371 220.75,-35.7004"/>
<polygon fill="midnightblue" stroke="midnightblue" points="224.221,-36.2484 223.292,-25.6944 217.437,-34.5245 224.221,-36.2484"/>
</g>
<!-- Node13&#45;&gt;Node14 -->
<g id="edge15" class="edge"><title>Node13&#45;&gt;Node14</title>
<path fill="none" stroke="midnightblue" d="M230.197,-130.467C274.801,-119.805 351.187,-101.545 399.961,-89.886"/>
<polygon fill="midnightblue" stroke="midnightblue" points="401.017,-93.2325 409.929,-87.5034 399.389,-86.4243 401.017,-93.2325"/>
</g>
<!-- Node14&#45;&gt;Node3 -->
<g id="edge19" class="edge"><title>Node14&#45;&gt;Node3</title>
<path fill="none" stroke="midnightblue" d="M385.339,-69.432C333.248,-62.1582 256.163,-49.6574 190.501,-32 187.105,-31.0866 183.592,-30.0114 180.117,-28.8632"/>
<polygon fill="midnightblue" stroke="midnightblue" points="181.147,-25.5154 170.552,-25.5072 178.83,-32.1206 181.147,-25.5154"/>
</g>
<!-- Node14&#45;&gt;Node4 -->
<g id="edge17" class="edge"><title>Node14&#45;&gt;Node4</title>
<path fill="none" stroke="midnightblue" d="M458.11,-68.4035C472.224,-58.7797 495.332,-43.0242 512.251,-31.4891"/>
<polygon fill="midnightblue" stroke="midnightblue" points="514.626,-34.1058 520.916,-25.5806 510.682,-28.3222 514.626,-34.1058"/>
</g>
<!-- Node14&#45;&gt;Node5 -->
<g id="edge16" class="edge"><title>Node14&#45;&gt;Node5</title>
<path fill="none" stroke="midnightblue" d="M432.893,-68.4035C418.778,-58.7797 395.67,-43.0242 378.752,-31.4891"/>
<polygon fill="midnightblue" stroke="midnightblue" points="380.32,-28.3222 370.086,-25.5806 376.377,-34.1058 380.32,-28.3222"/>
</g>
<!-- Node14&#45;&gt;Node7 -->
<g id="edge18" class="edge"><title>Node14&#45;&gt;Node7</title>
<path fill="none" stroke="midnightblue" d="M413.981,-68.4035C373.698,-57.4173 304.116,-38.4404 261.703,-26.8732"/>
<polygon fill="midnightblue" stroke="midnightblue" points="262.366,-23.4263 251.798,-24.1718 260.524,-30.1797 262.366,-23.4263"/>
</g>
<!-- Node14&#45;&gt;Node10 -->
<g id="edge20" class="edge"><title>Node14&#45;&gt;Node10</title>
<path fill="none" stroke="midnightblue" d="M497.267,-68.4672C564.615,-57.3659 681.926,-38.029 751.985,-26.4807"/>
<polygon fill="midnightblue" stroke="midnightblue" points="752.67,-29.9152 761.967,-24.8353 751.531,-23.0084 752.67,-29.9152"/>
</g>
<!-- Node14&#45;&gt;Node15 -->
<g id="edge21" class="edge"><title>Node14&#45;&gt;Node15</title>
<path fill="none" stroke="midnightblue" d="M505.529,-70.6924C616.344,-59.048 851.585,-34.3292 959.831,-22.9548"/>
<polygon fill="midnightblue" stroke="midnightblue" points="960.322,-26.4226 969.902,-21.8966 959.591,-19.4609 960.322,-26.4226"/>
</g>
<!-- Node16&#45;&gt;Node3 -->
<g id="edge25" class="edge"><title>Node16&#45;&gt;Node3</title>
<path fill="none" stroke="midnightblue" d="M354.961,-130.421C317.078,-109.508 219.732,-55.7698 173.967,-30.5061"/>
<polygon fill="midnightblue" stroke="midnightblue" points="175.471,-27.3381 165.024,-25.5693 172.087,-33.4664 175.471,-27.3381"/>
</g>
<!-- Node16&#45;&gt;Node4 -->
<g id="edge26" class="edge"><title>Node16&#45;&gt;Node4</title>
<path fill="none" stroke="midnightblue" d="M405.559,-130.449C442.873,-120.685 498.567,-103.986 513.501,-88 526.727,-73.8433 531.305,-51.624 532.838,-35.815"/>
<polygon fill="midnightblue" stroke="midnightblue" points="536.343,-35.8485 533.496,-25.6434 529.358,-35.3965 536.343,-35.8485"/>
</g>
<!-- Node16&#45;&gt;Node5 -->
<g id="edge24" class="edge"><title>Node16&#45;&gt;Node5</title>
<path fill="none" stroke="midnightblue" d="M369.566,-130.226C367.468,-110.53 362.343,-62.4371 359.494,-35.7004"/>
<polygon fill="midnightblue" stroke="midnightblue" points="362.968,-35.2673 358.428,-25.6944 356.007,-36.009 362.968,-35.2673"/>
</g>
<!-- Node16&#45;&gt;Node14 -->
<g id="edge27" class="edge"><title>Node16&#45;&gt;Node14</title>
<path fill="none" stroke="midnightblue" d="M381.247,-130.403C393.054,-120.958 412.244,-105.606 426.584,-94.1342"/>
<polygon fill="midnightblue" stroke="midnightblue" points="429.153,-96.5606 434.776,-87.5806 424.78,-91.0945 429.153,-96.5606"/>
</g>
<!-- Node17&#45;&gt;Node3 -->
<g id="edge29" class="edge"><title>Node17&#45;&gt;Node3</title>
<path fill="none" stroke="midnightblue" d="M80.9633,-68.4035C93.6762,-58.8688 114.414,-43.3154 129.754,-31.8106"/>
<polygon fill="midnightblue" stroke="midnightblue" points="132.16,-34.3806 138.06,-25.5806 127.96,-28.7806 132.16,-34.3806"/>
</g>
</g>
</svg>
        <g id="navigator" transform="translate(0 0)" fill="#404254">
                <rect fill="#f2f5e9" fill-opacity="0.5" stroke="#606060" stroke-width=".5" x="0" y="0" width="60" height="60"/>
                <use id="zoomplus" xlink:href="#zoomPlus" x="17" y="9" onmousedown="handleZoom(evt,'in')"/>
                <use id="zoomminus" xlink:href="#zoomMin" x="42" y="9" onmousedown="handleZoom(evt,'out')"/>
                <use id="reset" xlink:href="#resetDef" x="30" y="36" onmousedown="handleReset()"/>
                <g id="arrowUp" xlink:href="#dirArrow" transform="translate(30 24)" onmousedown="handlePan(0,-1)">
                  <use xlink:href="#rim" fill="#404040">
                        <set attributeName="fill" to="#808080" begin="arrowUp.mouseover" end="arrowUp.mouseout"/>
                  </use>
                  <path fill="none" stroke="white" stroke-width="1.5" d="M0,-3.0v7 M-2.5,-0.5L0,-3.0L2.5,-0.5"/>
                </g>
                <g id="arrowRight" xlink:href="#dirArrow" transform="rotate(90) translate(36 -43)" onmousedown="handlePan(1,0)">
                  <use xlink:href="#rim" fill="#404040">
                        <set attributeName="fill" to="#808080" begin="arrowRight.mouseover" end="arrowRight.mouseout"/>
                  </use>
                  <path fill="none" stroke="white" stroke-width="1.5" d="M0,-3.0v7 M-2.5,-0.5L0,-3.0L2.5,-0.5"/>
                </g>
                <g id="arrowDown" xlink:href="#dirArrow" transform="rotate(180) translate(-30 -48)" onmousedown="handlePan(0,1)">
                  <use xlink:href="#rim" fill="#404040">
                        <set attributeName="fill" to="#808080" begin="arrowDown.mouseover" end="arrowDown.mouseout"/>
                  </use>
                  <path fill="none" stroke="white" stroke-width="1.5" d="M0,-3.0v7 M-2.5,-0.5L0,-3.0L2.5,-0.5"/>
                </g>
                <g id="arrowLeft" xlink:href="#dirArrow" transform="rotate(270) translate(-36 17)" onmousedown="handlePan(-1,0)">
                  <use xlink:href="#rim" fill="#404040">
                        <set attributeName="fill" to="#808080" begin="arrowLeft.mouseover" end="arrowLeft.mouseout"/>
                  </use>
                  <path fill="none" stroke="white" stroke-width="1.5" d="M0,-3.0v7 M-2.5,-0.5L0,-3.0L2.5,-0.5"/>
                </g>
        </g>
        <svg viewBox="0 0 15 15" width="100%" height="30px" preserveAspectRatio="xMaxYMin meet">
         <g id="arrow_out" transform="scale(0.3 0.3)">
          <a xlink:href="FitResult_8cpp__incl_org.svg" target="_base">
           <rect id="button" ry="5" rx="5" y="6" x="6" height="38" width="38"
                fill="#f2f5e9" fill-opacity="0.5" stroke="#606060" stroke-width="1.0"/>
           <path id="arrow"
             d="M 11.500037,31.436501 C 11.940474,20.09759 22.043105,11.32322 32.158766,21.979434 L 37.068811,17.246167 C 37.068811,17.246167 37.088388,32 37.088388,32 L 22.160133,31.978069 C 22.160133,31.978069 26.997745,27.140456 26.997745,27.140456 C 18.528582,18.264221 13.291696,25.230495 11.500037,31.436501 z"
             style="fill:#404040;"/>
          </a>
         </g>
        </svg>
</svg>
