<?xml version="1.0" encoding="UTF-8" standalone="no"?>
<!DOCTYPE svg PUBLIC "-//W3C//DTD SVG 1.1//EN"
 "http://www.w3.org/Graphics/SVG/1.1/DTD/svg11.dtd">
<!-- Generated by graphviz version 2.26.3 (20100126.1600)
 -->
<!-- Title: G Pages: 1 -->
<svg width="868pt" height="88pt"
 viewBox="0.00 0.00 868.00 88.00" xmlns="http://www.w3.org/2000/svg" xmlns:xlink="http://www.w3.org/1999/xlink">
<g id="graph1" class="graph" transform="scale(1 1) rotate(0) translate(4 84)">
<title>G</title>
<polygon fill="white" stroke="white" points="-4,5 -4,-84 865,-84 865,5 -4,5"/>
<!-- Node1 -->
<g id="node1" class="node"><title>Node1</title>
<polygon fill="#bfbfbf" stroke="black" points="399,-58.5 399,-79.5 617,-79.5 617,-58.5 399,-58.5"/>
<text text-anchor="middle" x="508" y="-66.5" font-family="Helvetica,sans-Serif" font-size="10.00">Physics/AmplitudeSum/AmpSumIntensity.hpp</text>
</g>
<!-- Node2 -->
<g id="node3" class="node"><title>Node2</title>
<a xlink:href="../../db/dd9/AmpSumIntensity_8cpp.xhtml" target="_top" xlink:title="Physics/AmplitudeSum/AmpSumIntensity.cpp">
<polygon fill="white" stroke="black" points="0,-0.5 0,-21.5 218,-21.5 218,-0.5 0,-0.5"/>
<text text-anchor="middle" x="109" y="-8.5" font-family="Helvetica,sans-Serif" font-size="10.00">Physics/AmplitudeSum/AmpSumIntensity.cpp</text>
</a>
</g>
<!-- Node1&#45;&gt;Node2 -->
<g id="edge2" class="edge"><title>Node1&#45;&gt;Node2</title>
<path fill="none" stroke="midnightblue" d="M425.806,-57.052C353.839,-46.5906 250.286,-31.5378 181.391,-21.5231"/>
<polygon fill="midnightblue" stroke="midnightblue" points="425.345,-60.5216 435.744,-58.4966 426.352,-53.5944 425.345,-60.5216"/>
</g>
<!-- Node3 -->
<g id="node5" class="node"><title>Node3</title>
<a xlink:href="../../de/d2f/Physics_2RootGenerator_2GenDalitzApp_8cpp.xhtml" target="_top" xlink:title="Physics/RootGenerator/GenDalitzApp.cpp">
<polygon fill="white" stroke="black" points="235.5,-0.5 235.5,-21.5 436.5,-21.5 436.5,-0.5 235.5,-0.5"/>
<text text-anchor="middle" x="336" y="-8.5" font-family="Helvetica,sans-Serif" font-size="10.00">Physics/RootGenerator/GenDalitzApp.cpp</text>
</a>
</g>
<!-- Node1&#45;&gt;Node3 -->
<g id="edge4" class="edge"><title>Node1&#45;&gt;Node3</title>
<path fill="none" stroke="midnightblue" d="M467.309,-55.2787C436.661,-44.9437 395.265,-30.9849 367.206,-21.5231"/>
<polygon fill="midnightblue" stroke="midnightblue" points="466.258,-58.6178 476.852,-58.4966 468.495,-51.9847 466.258,-58.6178"/>
</g>
<!-- Node4 -->
<g id="node7" class="node"><title>Node4</title>
<a xlink:href="../../da/d2a/DalitzFitApp_8cpp.xhtml" target="_top" xlink:title="Test&#45;Application for full fit with simple BW&#45;dalitz&#45;model.">
<polygon fill="white" stroke="black" points="453.5,-0.5 453.5,-21.5 562.5,-21.5 562.5,-0.5 453.5,-0.5"/>
<text text-anchor="middle" x="508" y="-8.5" font-family="Helvetica,sans-Serif" font-size="10.00">test/DalitzFitApp.cpp</text>
</a>
</g>
<!-- Node1&#45;&gt;Node4 -->
<g id="edge6" class="edge"><title>Node1&#45;&gt;Node4</title>
<path fill="none" stroke="midnightblue" d="M508,-48.1906C508,-39.1684 508,-28.9941 508,-21.5707"/>
<polygon fill="midnightblue" stroke="midnightblue" points="504.5,-48.3619 508,-58.3619 511.5,-48.3619 504.5,-48.3619"/>
</g>
<!-- Node5 -->
<g id="node9" class="node"><title>Node5</title>
<a xlink:href="../../d2/d52/test_2GenDalitzApp_8cpp.xhtml" target="_top" xlink:title="test/GenDalitzApp.cpp">
<polygon fill="white" stroke="black" points="580,-0.5 580,-21.5 696,-21.5 696,-0.5 580,-0.5"/>
<text text-anchor="middle" x="638" y="-8.5" font-family="Helvetica,sans-Serif" font-size="10.00">test/GenDalitzApp.cpp</text>
</a>
</g>
<!-- Node1&#45;&gt;Node5 -->
<g id="edge8" class="edge"><title>Node1&#45;&gt;Node5</title>
<path fill="none" stroke="midnightblue" d="M540.852,-54.3431C563.698,-44.1502 593.626,-30.7977 614.194,-21.6212"/>
<polygon fill="midnightblue" stroke="midnightblue" points="539.248,-51.2259 531.542,-58.4966 542.1,-57.6185 539.248,-51.2259"/>
</g>
<!-- Node6 -->
<g id="node11" class="node"><title>Node6</title>
<a xlink:href="../../db/d19/GenRunManagerApp_8cpp.xhtml" target="_top" xlink:title="test/GenRunManagerApp.cpp">
<polygon fill="white" stroke="black" points="714,-0.5 714,-21.5 860,-21.5 860,-0.5 714,-0.5"/>
<text text-anchor="middle" x="787" y="-8.5" font-family="Helvetica,sans-Serif" font-size="10.00">test/GenRunManagerApp.cpp</text>
</a>
</g>
<!-- Node1&#45;&gt;Node6 -->
<g id="edge10" class="edge"><title>Node1&#45;&gt;Node6</title>
<path fill="none" stroke="midnightblue" d="M568.589,-56.4045C618.748,-45.977 689.191,-31.333 736.38,-21.5231"/>
<polygon fill="midnightblue" stroke="midnightblue" points="567.603,-53.0345 558.525,-58.4966 569.028,-59.888 567.603,-53.0345"/>
</g>
</g>
</svg>
