<?xml version="1.0" encoding="UTF-8" standalone="no"?>
<!DOCTYPE svg PUBLIC "-//W3C//DTD SVG 1.1//EN"
 "http://www.w3.org/Graphics/SVG/1.1/DTD/svg11.dtd">
<!-- Generated by graphviz version 2.36.0 (20140111.2315)
 -->
<!-- Title: /home/travis/build/ComPWA/ComPWA/Physics/AmplitudeSum/AmpSumIntensity.hpp Pages: 1 -->
<svg width="2318pt" height="230pt"
 viewBox="0.00 0.00 2318.00 230.00" xmlns="http://www.w3.org/2000/svg" xmlns:xlink="http://www.w3.org/1999/xlink">
<g id="graph0" class="graph" transform="scale(1 1) rotate(0) translate(4 226)">
<title>/home/travis/build/ComPWA/ComPWA/Physics/AmplitudeSum/AmpSumIntensity.hpp</title>
<polygon fill="white" stroke="none" points="-4,4 -4,-226 2314,-226 2314,4 -4,4"/>
<!-- Node1 -->
<g id="node1" class="node"><title>Node1</title>
<polygon fill="#bfbfbf" stroke="black" points="923.5,-180.5 923.5,-221.5 1106.5,-221.5 1106.5,-180.5 923.5,-180.5"/>
<text text-anchor="start" x="931.5" y="-209.5" font-family="Helvetica,sans-Serif" font-size="10.00">/home/travis/build</text>
<text text-anchor="start" x="931.5" y="-198.5" font-family="Helvetica,sans-Serif" font-size="10.00">/ComPWA/ComPWA/Physics</text>
<text text-anchor="middle" x="1015" y="-187.5" font-family="Helvetica,sans-Serif" font-size="10.00">/AmplitudeSum/AmpSumIntensity.hpp</text>
</g>
<!-- Node2 -->
<g id="node2" class="node"><title>Node2</title>
<g id="a_node2"><a xlink:href="../../da/d67/SliceFit_8hpp.html" target="_top" xlink:title="This class performs a Chi2&#45;Fit on slices along one axis of a dalitz&#45;plot. ">
<polygon fill="white" stroke="black" points="182,-96.5 182,-137.5 338,-137.5 338,-96.5 182,-96.5"/>
<text text-anchor="start" x="190" y="-125.5" font-family="Helvetica,sans-Serif" font-size="10.00">/home/travis/build</text>
<text text-anchor="start" x="190" y="-114.5" font-family="Helvetica,sans-Serif" font-size="10.00">/ComPWA/ComPWA/Estimator</text>
<text text-anchor="middle" x="260" y="-103.5" font-family="Helvetica,sans-Serif" font-size="10.00">/SliceFit/SliceFit.hpp</text>
</a>
</g>
</g>
<!-- Node1&#45;&gt;Node2 -->
<g id="edge1" class="edge"><title>Node1&#45;&gt;Node2</title>
<path fill="none" stroke="midnightblue" d="M913.031,-194.81C787.555,-187.542 568.237,-171.977 382,-144 367.758,-141.861 352.683,-139.078 338.169,-136.131"/>
<polygon fill="midnightblue" stroke="midnightblue" points="913.205,-198.325 923.388,-195.403 913.605,-191.337 913.205,-198.325"/>
</g>
<!-- Node4 -->
<g id="node4" class="node"><title>Node4</title>
<g id="a_node4"><a xlink:href="../../d6/d9a/SliceFitApp_8cpp.html" target="_top" xlink:title="/home/travis/build\l/ComPWA/ComPWA/executables\l/Examples/SliceFit/SliceFitApp.cpp">
<polygon fill="white" stroke="black" points="174.5,-6.5 174.5,-47.5 345.5,-47.5 345.5,-6.5 174.5,-6.5"/>
<text text-anchor="start" x="182.5" y="-35.5" font-family="Helvetica,sans-Serif" font-size="10.00">/home/travis/build</text>
<text text-anchor="start" x="182.5" y="-24.5" font-family="Helvetica,sans-Serif" font-size="10.00">/ComPWA/ComPWA/executables</text>
<text text-anchor="middle" x="260" y="-13.5" font-family="Helvetica,sans-Serif" font-size="10.00">/Examples/SliceFit/SliceFitApp.cpp</text>
</a>
</g>
</g>
<!-- Node1&#45;&gt;Node4 -->
<g id="edge16" class="edge"><title>Node1&#45;&gt;Node4</title>
<path fill="none" stroke="midnightblue" d="M913.187,-199.74C806.252,-197.024 634.193,-185.684 492,-144 415.296,-121.515 333.426,-74.4434 290.428,-47.6898"/>
<polygon fill="midnightblue" stroke="midnightblue" points="913.25,-203.242 923.329,-199.976 913.413,-196.244 913.25,-203.242"/>
</g>
<!-- Node5 -->
<g id="node5" class="node"><title>Node5</title>
<g id="a_node5"><a xlink:href="../../d8/d56/SliceFitUB_8hpp.html" target="_top" xlink:title="/home/travis/build\l/ComPWA/ComPWA/Estimator\l/SliceFitUB/SliceFitUB.hpp">
<polygon fill="white" stroke="black" points="554,-96.5 554,-137.5 710,-137.5 710,-96.5 554,-96.5"/>
<text text-anchor="start" x="562" y="-125.5" font-family="Helvetica,sans-Serif" font-size="10.00">/home/travis/build</text>
<text text-anchor="start" x="562" y="-114.5" font-family="Helvetica,sans-Serif" font-size="10.00">/ComPWA/ComPWA/Estimator</text>
<text text-anchor="middle" x="632" y="-103.5" font-family="Helvetica,sans-Serif" font-size="10.00">/SliceFitUB/SliceFitUB.hpp</text>
</a>
</g>
</g>
<!-- Node1&#45;&gt;Node5 -->
<g id="edge4" class="edge"><title>Node1&#45;&gt;Node5</title>
<path fill="none" stroke="midnightblue" d="M913.536,-182.668C857.416,-172.533 786.573,-158.834 724,-144 715.763,-142.047 707.157,-139.841 698.656,-137.559"/>
<polygon fill="midnightblue" stroke="midnightblue" points="913.019,-186.131 923.481,-184.455 914.257,-179.242 913.019,-186.131"/>
</g>
<!-- Node7 -->
<g id="node7" class="node"><title>Node7</title>
<g id="a_node7"><a xlink:href="../../d3/dbc/SliceFitRANDApp_8cpp.html" target="_top" xlink:title="/home/travis/build\l/ComPWA/ComPWA/executables\l/Examples/SliceFit/SliceFitRANDApp.cpp">
<polygon fill="white" stroke="black" points="364,-6.5 364,-47.5 564,-47.5 564,-6.5 364,-6.5"/>
<text text-anchor="start" x="372" y="-35.5" font-family="Helvetica,sans-Serif" font-size="10.00">/home/travis/build</text>
<text text-anchor="start" x="372" y="-24.5" font-family="Helvetica,sans-Serif" font-size="10.00">/ComPWA/ComPWA/executables</text>
<text text-anchor="middle" x="464" y="-13.5" font-family="Helvetica,sans-Serif" font-size="10.00">/Examples/SliceFit/SliceFitRANDApp.cpp</text>
</a>
</g>
</g>
<!-- Node1&#45;&gt;Node7 -->
<g id="edge17" class="edge"><title>Node1&#45;&gt;Node7</title>
<path fill="none" stroke="midnightblue" d="M913.165,-197.496C793.953,-192.918 605.142,-180.044 545,-144 507.708,-121.651 483.262,-74.7534 471.726,-47.9372"/>
<polygon fill="midnightblue" stroke="midnightblue" points="913.284,-201.003 923.406,-197.875 913.543,-194.007 913.284,-201.003"/>
</g>
<!-- Node8 -->
<g id="node8" class="node"><title>Node8</title>
<g id="a_node8"><a xlink:href="../../d9/de4/SliceFitUBApp_8cpp.html" target="_top" xlink:title="/home/travis/build\l/ComPWA/ComPWA/executables\l/Examples/SliceFit/SliceFitUBApp.cpp">
<polygon fill="white" stroke="black" points="756.5,-6.5 756.5,-47.5 941.5,-47.5 941.5,-6.5 756.5,-6.5"/>
<text text-anchor="start" x="764.5" y="-35.5" font-family="Helvetica,sans-Serif" font-size="10.00">/home/travis/build</text>
<text text-anchor="start" x="764.5" y="-24.5" font-family="Helvetica,sans-Serif" font-size="10.00">/ComPWA/ComPWA/executables</text>
<text text-anchor="middle" x="849" y="-13.5" font-family="Helvetica,sans-Serif" font-size="10.00">/Examples/SliceFit/SliceFitUBApp.cpp</text>
</a>
</g>
</g>
<!-- Node1&#45;&gt;Node8 -->
<g id="edge18" class="edge"><title>Node1&#45;&gt;Node8</title>
<path fill="none" stroke="midnightblue" d="M913.176,-190.999C849.504,-183.021 775.915,-168.681 756,-144 740.929,-125.322 744.675,-111.16 756,-90 765.889,-71.5225 783.986,-57.6007 801.606,-47.6794"/>
<polygon fill="midnightblue" stroke="midnightblue" points="912.951,-194.497 923.3,-192.225 913.793,-187.548 912.951,-194.497"/>
</g>
<!-- Node9 -->
<g id="node9" class="node"><title>Node9</title>
<g id="a_node9"><a xlink:href="../../d9/dab/CompareTreeAmpApp_8cpp.html" target="_top" xlink:title="/home/travis/build\l/ComPWA/ComPWA/executables\l/CompareTreeAmpApp.cpp">
<polygon fill="white" stroke="black" points="765.5,-96.5 765.5,-137.5 932.5,-137.5 932.5,-96.5 765.5,-96.5"/>
<text text-anchor="start" x="773.5" y="-125.5" font-family="Helvetica,sans-Serif" font-size="10.00">/home/travis/build</text>
<text text-anchor="start" x="773.5" y="-114.5" font-family="Helvetica,sans-Serif" font-size="10.00">/ComPWA/ComPWA/executables</text>
<text text-anchor="middle" x="849" y="-103.5" font-family="Helvetica,sans-Serif" font-size="10.00">/CompareTreeAmpApp.cpp</text>
</a>
</g>
</g>
<!-- Node1&#45;&gt;Node9 -->
<g id="edge8" class="edge"><title>Node1&#45;&gt;Node9</title>
<path fill="none" stroke="midnightblue" d="M966.056,-175.823C941.418,-163.652 911.936,-149.089 888.724,-137.623"/>
<polygon fill="midnightblue" stroke="midnightblue" points="964.723,-179.068 975.239,-180.359 967.823,-172.792 964.723,-179.068"/>
</g>
<!-- Node10 -->
<g id="node10" class="node"><title>Node10</title>
<g id="a_node10"><a xlink:href="../../db/d7b/DalitzFitD03K_8cpp.html" target="_top" xlink:title="/home/travis/build\l/ComPWA/ComPWA/executables\l/Examples/DalitzAnalysis\l_D0KsKK/DalitzFitD03K.cpp">
<polygon fill="white" stroke="black" points="959.5,-1 959.5,-53 1126.5,-53 1126.5,-1 959.5,-1"/>
<text text-anchor="start" x="967.5" y="-41" font-family="Helvetica,sans-Serif" font-size="10.00">/home/travis/build</text>
<text text-anchor="start" x="967.5" y="-30" font-family="Helvetica,sans-Serif" font-size="10.00">/ComPWA/ComPWA/executables</text>
<text text-anchor="start" x="967.5" y="-19" font-family="Helvetica,sans-Serif" font-size="10.00">/Examples/DalitzAnalysis</text>
<text text-anchor="middle" x="1043" y="-8" font-family="Helvetica,sans-Serif" font-size="10.00">_D0KsKK/DalitzFitD03K.cpp</text>
</a>
</g>
</g>
<!-- Node1&#45;&gt;Node10 -->
<g id="edge9" class="edge"><title>Node1&#45;&gt;Node10</title>
<path fill="none" stroke="midnightblue" d="M992.601,-172.003C987.053,-163.496 981.877,-153.794 979,-144 972.237,-120.973 969.64,-112.1 979,-90 985.033,-75.7551 996.119,-63.1786 1007.39,-53.1406"/>
<polygon fill="midnightblue" stroke="midnightblue" points="989.851,-174.179 998.435,-180.39 995.597,-170.182 989.851,-174.179"/>
</g>
<!-- Node11 -->
<g id="node11" class="node"><title>Node11</title>
<g id="a_node11"><a xlink:href="../../d8/d43/PlotData_8hpp.html" target="_top" xlink:title="/home/travis/build\l/ComPWA/ComPWA/executables\l/Examples/DalitzAnalysis\l_D0KsKK/PlotData.hpp">
<polygon fill="white" stroke="black" points="987.5,-91 987.5,-143 1154.5,-143 1154.5,-91 987.5,-91"/>
<text text-anchor="start" x="995.5" y="-131" font-family="Helvetica,sans-Serif" font-size="10.00">/home/travis/build</text>
<text text-anchor="start" x="995.5" y="-120" font-family="Helvetica,sans-Serif" font-size="10.00">/ComPWA/ComPWA/executables</text>
<text text-anchor="start" x="995.5" y="-109" font-family="Helvetica,sans-Serif" font-size="10.00">/Examples/DalitzAnalysis</text>
<text text-anchor="middle" x="1071" y="-98" font-family="Helvetica,sans-Serif" font-size="10.00">_D0KsKK/PlotData.hpp</text>
</a>
</g>
</g>
<!-- Node1&#45;&gt;Node11 -->
<g id="edge10" class="edge"><title>Node1&#45;&gt;Node11</title>
<path fill="none" stroke="midnightblue" d="M1034.35,-171.661C1040.66,-162.431 1047.61,-152.251 1053.75,-143.261"/>
<polygon fill="midnightblue" stroke="midnightblue" points="1031.31,-169.918 1028.56,-180.15 1037.09,-173.866 1031.31,-169.918"/>
</g>
<!-- Node13 -->
<g id="node13" class="node"><title>Node13</title>
<g id="a_node13"><a xlink:href="../../da/d2a/DalitzFitApp_8cpp.html" target="_top" xlink:title="Dalitz plot analysis of the decay D0&#45;&gt;K_S0 K_ K&#45;Fit application for D0&#45;&gt;K_S0 K_ K&#45; analysis...">
<polygon fill="white" stroke="black" points="1172.5,-96.5 1172.5,-137.5 1351.5,-137.5 1351.5,-96.5 1172.5,-96.5"/>
<text text-anchor="start" x="1180.5" y="-125.5" font-family="Helvetica,sans-Serif" font-size="10.00">/home/travis/build</text>
<text text-anchor="start" x="1180.5" y="-114.5" font-family="Helvetica,sans-Serif" font-size="10.00">/ComPWA/ComPWA/executables</text>
<text text-anchor="middle" x="1262" y="-103.5" font-family="Helvetica,sans-Serif" font-size="10.00">/Examples/DalitzFit/DalitzFitApp.cpp</text>
</a>
</g>
</g>
<!-- Node1&#45;&gt;Node13 -->
<g id="edge13" class="edge"><title>Node1&#45;&gt;Node13</title>
<path fill="none" stroke="midnightblue" d="M1083.7,-177.193C1121.25,-164.725 1167.29,-149.443 1203.17,-137.529"/>
<polygon fill="midnightblue" stroke="midnightblue" points="1082.24,-173.991 1073.85,-180.463 1084.44,-180.634 1082.24,-173.991"/>
</g>
<!-- Node14 -->
<g id="node14" class="node"><title>Node14</title>
<g id="a_node14"><a xlink:href="../../d1/d93/GenDalitzApp_8cpp.html" target="_top" xlink:title="Application to generate J/Psi &#45;&gt; g pi pi. ">
<polygon fill="white" stroke="black" points="1369.5,-96.5 1369.5,-137.5 1554.5,-137.5 1554.5,-96.5 1369.5,-96.5"/>
<text text-anchor="start" x="1377.5" y="-125.5" font-family="Helvetica,sans-Serif" font-size="10.00">/home/travis/build</text>
<text text-anchor="start" x="1377.5" y="-114.5" font-family="Helvetica,sans-Serif" font-size="10.00">/ComPWA/ComPWA/executables</text>
<text text-anchor="middle" x="1462" y="-103.5" font-family="Helvetica,sans-Serif" font-size="10.00">/Examples/DalitzFit/GenDalitzApp.cpp</text>
</a>
</g>
</g>
<!-- Node1&#45;&gt;Node14 -->
<g id="edge14" class="edge"><title>Node1&#45;&gt;Node14</title>
<path fill="none" stroke="midnightblue" d="M1116.56,-185.934C1185.51,-175.792 1278.61,-160.945 1360,-144 1369.3,-142.063 1379.04,-139.84 1388.64,-137.528"/>
<polygon fill="midnightblue" stroke="midnightblue" points="1115.96,-182.485 1106.57,-187.396 1116.97,-189.412 1115.96,-182.485"/>
</g>
<!-- Node15 -->
<g id="node15" class="node"><title>Node15</title>
<g id="a_node15"><a xlink:href="../../d6/d0a/PythonFit_8cpp.html" target="_top" xlink:title="/home/travis/build\l/ComPWA/ComPWA/executables\l/Examples/PythonDalitzFit\l/PythonFit.cpp">
<polygon fill="white" stroke="black" points="1572.5,-91 1572.5,-143 1739.5,-143 1739.5,-91 1572.5,-91"/>
<text text-anchor="start" x="1580.5" y="-131" font-family="Helvetica,sans-Serif" font-size="10.00">/home/travis/build</text>
<text text-anchor="start" x="1580.5" y="-120" font-family="Helvetica,sans-Serif" font-size="10.00">/ComPWA/ComPWA/executables</text>
<text text-anchor="start" x="1580.5" y="-109" font-family="Helvetica,sans-Serif" font-size="10.00">/Examples/PythonDalitzFit</text>
<text text-anchor="middle" x="1656" y="-98" font-family="Helvetica,sans-Serif" font-size="10.00">/PythonFit.cpp</text>
</a>
</g>
</g>
<!-- Node1&#45;&gt;Node15 -->
<g id="edge15" class="edge"><title>Node1&#45;&gt;Node15</title>
<path fill="none" stroke="midnightblue" d="M1116.98,-194.797C1227.6,-187.944 1409.01,-173.172 1563,-144 1566.05,-143.423 1569.14,-142.793 1572.26,-142.122"/>
<polygon fill="midnightblue" stroke="midnightblue" points="1116.6,-191.314 1106.83,-195.416 1117.03,-198.301 1116.6,-191.314"/>
</g>
<!-- Node16 -->
<g id="node16" class="node"><title>Node16</title>
<g id="a_node16"><a xlink:href="../../db/d19/GenRunManagerApp_8cpp.html" target="_top" xlink:title="/home/travis/build\l/ComPWA/ComPWA/executables\l/GenRunManagerApp.cpp">
<polygon fill="white" stroke="black" points="1757.5,-96.5 1757.5,-137.5 1924.5,-137.5 1924.5,-96.5 1757.5,-96.5"/>
<text text-anchor="start" x="1765.5" y="-125.5" font-family="Helvetica,sans-Serif" font-size="10.00">/home/travis/build</text>
<text text-anchor="start" x="1765.5" y="-114.5" font-family="Helvetica,sans-Serif" font-size="10.00">/ComPWA/ComPWA/executables</text>
<text text-anchor="middle" x="1841" y="-103.5" font-family="Helvetica,sans-Serif" font-size="10.00">/GenRunManagerApp.cpp</text>
</a>
</g>
</g>
<!-- Node1&#45;&gt;Node16 -->
<g id="edge19" class="edge"><title>Node1&#45;&gt;Node16</title>
<path fill="none" stroke="midnightblue" d="M1116.59,-198.522C1258.82,-195.032 1524.91,-183.313 1748,-144 1757.66,-142.298 1767.76,-140.016 1777.6,-137.508"/>
<polygon fill="midnightblue" stroke="midnightblue" points="1116.48,-195.024 1106.57,-198.76 1116.65,-202.022 1116.48,-195.024"/>
</g>
<!-- Node17 -->
<g id="node17" class="node"><title>Node17</title>
<g id="a_node17"><a xlink:href="../../d6/d45/LHNormalizationTestApp_8cpp.html" target="_top" xlink:title="/home/travis/build\l/ComPWA/ComPWA/executables\l/LHNormalizationTestApp.cpp">
<polygon fill="white" stroke="black" points="1942.5,-96.5 1942.5,-137.5 2109.5,-137.5 2109.5,-96.5 1942.5,-96.5"/>
<text text-anchor="start" x="1950.5" y="-125.5" font-family="Helvetica,sans-Serif" font-size="10.00">/home/travis/build</text>
<text text-anchor="start" x="1950.5" y="-114.5" font-family="Helvetica,sans-Serif" font-size="10.00">/ComPWA/ComPWA/executables</text>
<text text-anchor="middle" x="2026" y="-103.5" font-family="Helvetica,sans-Serif" font-size="10.00">/LHNormalizationTestApp.cpp</text>
</a>
</g>
</g>
<!-- Node1&#45;&gt;Node17 -->
<g id="edge20" class="edge"><title>Node1&#45;&gt;Node17</title>
<path fill="none" stroke="midnightblue" d="M1116.81,-200.788C1287.03,-200.547 1639.63,-193.383 1933,-144 1942.84,-142.344 1953.12,-140.054 1963.12,-137.513"/>
<polygon fill="midnightblue" stroke="midnightblue" points="1116.6,-197.288 1106.61,-200.794 1116.61,-204.288 1116.6,-197.288"/>
</g>
<!-- Node18 -->
<g id="node18" class="node"><title>Node18</title>
<g id="a_node18"><a xlink:href="../../db/dd9/AmpSumIntensity_8cpp.html" target="_top" xlink:title="/home/travis/build\l/ComPWA/ComPWA/Physics\l/AmplitudeSum/AmpSumIntensity.cpp">
<polygon fill="white" stroke="black" points="2127.5,-96.5 2127.5,-137.5 2310.5,-137.5 2310.5,-96.5 2127.5,-96.5"/>
<text text-anchor="start" x="2135.5" y="-125.5" font-family="Helvetica,sans-Serif" font-size="10.00">/home/travis/build</text>
<text text-anchor="start" x="2135.5" y="-114.5" font-family="Helvetica,sans-Serif" font-size="10.00">/ComPWA/ComPWA/Physics</text>
<text text-anchor="middle" x="2219" y="-103.5" font-family="Helvetica,sans-Serif" font-size="10.00">/AmplitudeSum/AmpSumIntensity.cpp</text>
</a>
</g>
</g>
<!-- Node1&#45;&gt;Node18 -->
<g id="edge21" class="edge"><title>Node1&#45;&gt;Node18</title>
<path fill="none" stroke="midnightblue" d="M1116.84,-197.45C1351.91,-191.14 1926.79,-173.161 2118,-144 2128.74,-142.362 2139.99,-140.064 2150.93,-137.505"/>
<polygon fill="midnightblue" stroke="midnightblue" points="1116.49,-193.958 1106.59,-197.724 1116.68,-200.956 1116.49,-193.958"/>
</g>
<!-- Node3 -->
<g id="node3" class="node"><title>Node3</title>
<g id="a_node3"><a xlink:href="../../d2/d9b/SliceFit_8cpp.html" target="_top" xlink:title="/home/travis/build\l/ComPWA/ComPWA/Estimator\l/SliceFit/SliceFit.cpp">
<polygon fill="white" stroke="black" points="0,-6.5 0,-47.5 156,-47.5 156,-6.5 0,-6.5"/>
<text text-anchor="start" x="8" y="-35.5" font-family="Helvetica,sans-Serif" font-size="10.00">/home/travis/build</text>
<text text-anchor="start" x="8" y="-24.5" font-family="Helvetica,sans-Serif" font-size="10.00">/ComPWA/ComPWA/Estimator</text>
<text text-anchor="middle" x="78" y="-13.5" font-family="Helvetica,sans-Serif" font-size="10.00">/SliceFit/SliceFit.cpp</text>
</a>
</g>
</g>
<!-- Node2&#45;&gt;Node3 -->
<g id="edge2" class="edge"><title>Node2&#45;&gt;Node3</title>
<path fill="none" stroke="midnightblue" d="M210.514,-92.0727C181.675,-78.1288 145.757,-60.7617 118.593,-47.6274"/>
<polygon fill="midnightblue" stroke="midnightblue" points="209.082,-95.2679 219.608,-96.4699 212.129,-88.9659 209.082,-95.2679"/>
</g>
<!-- Node2&#45;&gt;Node4 -->
<g id="edge3" class="edge"><title>Node2&#45;&gt;Node4</title>
<path fill="none" stroke="midnightblue" d="M260,-86.3298C260,-73.6289 260,-59.1399 260,-47.7798"/>
<polygon fill="midnightblue" stroke="midnightblue" points="256.5,-86.4699 260,-96.4699 263.5,-86.47 256.5,-86.4699"/>
</g>
<!-- Node6 -->
<g id="node6" class="node"><title>Node6</title>
<g id="a_node6"><a xlink:href="../../de/dd0/SliceFitUB_8cpp.html" target="_top" xlink:title="/home/travis/build\l/ComPWA/ComPWA/Estimator\l/SliceFitUB/SliceFitUB.cpp">
<polygon fill="white" stroke="black" points="582,-6.5 582,-47.5 738,-47.5 738,-6.5 582,-6.5"/>
<text text-anchor="start" x="590" y="-35.5" font-family="Helvetica,sans-Serif" font-size="10.00">/home/travis/build</text>
<text text-anchor="start" x="590" y="-24.5" font-family="Helvetica,sans-Serif" font-size="10.00">/ComPWA/ComPWA/Estimator</text>
<text text-anchor="middle" x="660" y="-13.5" font-family="Helvetica,sans-Serif" font-size="10.00">/SliceFitUB/SliceFitUB.cpp</text>
</a>
</g>
</g>
<!-- Node5&#45;&gt;Node6 -->
<g id="edge5" class="edge"><title>Node5&#45;&gt;Node6</title>
<path fill="none" stroke="midnightblue" d="M641.319,-86.7103C645.389,-73.919 650.056,-59.2535 653.706,-47.7798"/>
<polygon fill="midnightblue" stroke="midnightblue" points="637.911,-85.8794 638.214,-96.4699 644.581,-88.0019 637.911,-85.8794"/>
</g>
<!-- Node5&#45;&gt;Node7 -->
<g id="edge6" class="edge"><title>Node5&#45;&gt;Node7</title>
<path fill="none" stroke="midnightblue" d="M585.628,-91.7098C559.127,-77.8284 526.328,-60.648 501.471,-47.6274"/>
<polygon fill="midnightblue" stroke="midnightblue" points="584.233,-94.9302 594.715,-96.4699 587.481,-88.7294 584.233,-94.9302"/>
</g>
<!-- Node5&#45;&gt;Node8 -->
<g id="edge7" class="edge"><title>Node5&#45;&gt;Node8</title>
<path fill="none" stroke="midnightblue" d="M689.667,-92.6142C724.273,-78.5806 767.792,-60.9323 800.601,-47.6274"/>
<polygon fill="midnightblue" stroke="midnightblue" points="688.111,-89.4684 680.159,-96.4699 690.742,-95.9553 688.111,-89.4684"/>
</g>
<!-- Node11&#45;&gt;Node10 -->
<g id="edge11" class="edge"><title>Node11&#45;&gt;Node10</title>
<path fill="none" stroke="midnightblue" d="M1059.8,-80.7852C1056.85,-71.5174 1053.73,-61.7076 1050.98,-53.0921"/>
<polygon fill="midnightblue" stroke="midnightblue" points="1056.53,-82.0787 1062.9,-90.5468 1063.2,-79.9563 1056.53,-82.0787"/>
</g>
<!-- Node12 -->
<g id="node12" class="node"><title>Node12</title>
<g id="a_node12"><a xlink:href="../../dc/df0/PlotData_8cpp.html" target="_top" xlink:title="/home/travis/build\l/ComPWA/ComPWA/executables\l/Examples/DalitzAnalysis\l_D0KsKK/PlotData.cpp">
<polygon fill="white" stroke="black" points="1144.5,-1 1144.5,-53 1311.5,-53 1311.5,-1 1144.5,-1"/>
<text text-anchor="start" x="1152.5" y="-41" font-family="Helvetica,sans-Serif" font-size="10.00">/home/travis/build</text>
<text text-anchor="start" x="1152.5" y="-30" font-family="Helvetica,sans-Serif" font-size="10.00">/ComPWA/ComPWA/executables</text>
<text text-anchor="start" x="1152.5" y="-19" font-family="Helvetica,sans-Serif" font-size="10.00">/Examples/DalitzAnalysis</text>
<text text-anchor="middle" x="1228" y="-8" font-family="Helvetica,sans-Serif" font-size="10.00">_D0KsKK/PlotData.cpp</text>
</a>
</g>
</g>
<!-- Node11&#45;&gt;Node12 -->
<g id="edge12" class="edge"><title>Node11&#45;&gt;Node12</title>
<path fill="none" stroke="midnightblue" d="M1124.85,-85.8154C1143.89,-75.1451 1165.08,-63.2684 1183.28,-53.0687"/>
<polygon fill="midnightblue" stroke="midnightblue" points="1123,-82.8402 1115.99,-90.7827 1126.42,-88.9464 1123,-82.8402"/>
</g>
</g>
</svg>
