<?xml version="1.0" encoding="UTF-8" standalone="no"?>
<!DOCTYPE svg PUBLIC "-//W3C//DTD SVG 1.1//EN"
 "http://www.w3.org/Graphics/SVG/1.1/DTD/svg11.dtd">
<!-- Generated by graphviz version 2.36.0 (20140111.2315)
 -->
<!-- Title: /home/travis/build/ComPWA/ComPWA/Physics/HelicityFormalism/SequentialTwoBodyDecay.cpp Pages: 1 -->
<svg width="1504pt" height="502pt"
 viewBox="0.00 0.00 1504.00 502.00" xmlns="http://www.w3.org/2000/svg" xmlns:xlink="http://www.w3.org/1999/xlink">
<g id="graph0" class="graph" transform="scale(1 1) rotate(0) translate(4 498)">
<title>/home/travis/build/ComPWA/ComPWA/Physics/HelicityFormalism/SequentialTwoBodyDecay.cpp</title>
<polygon fill="white" stroke="none" points="-4,4 -4,-498 1500,-498 1500,4 -4,4"/>
<!-- Node1 -->
<g id="node1" class="node"><title>Node1</title>
<polygon fill="#bfbfbf" stroke="black" points="435.5,-441 435.5,-493 584.5,-493 584.5,-441 435.5,-441"/>
<text text-anchor="start" x="443.5" y="-481" font-family="Helvetica,sans-Serif" font-size="10.00">/home/travis/build</text>
<text text-anchor="start" x="443.5" y="-470" font-family="Helvetica,sans-Serif" font-size="10.00">/ComPWA/ComPWA/Physics</text>
<text text-anchor="start" x="443.5" y="-459" font-family="Helvetica,sans-Serif" font-size="10.00">/HelicityFormalism/Sequential</text>
<text text-anchor="middle" x="510" y="-448" font-family="Helvetica,sans-Serif" font-size="10.00">TwoBodyDecay.cpp</text>
</g>
<!-- Node2 -->
<g id="node2" class="node"><title>Node2</title>
<polygon fill="white" stroke="#bfbfbf" points="126,-0.5 126,-19.5 178,-19.5 178,-0.5 126,-0.5"/>
<text text-anchor="middle" x="152" y="-7.5" font-family="Helvetica,sans-Serif" font-size="10.00">memory</text>
</g>
<!-- Node1&#45;&gt;Node2 -->
<g id="edge1" class="edge"><title>Node1&#45;&gt;Node2</title>
<path fill="none" stroke="midnightblue" d="M435.295,-460.366C293.638,-447.616 0,-410.404 0,-321 0,-321 0,-321 0,-133 0,-73.7008 71.2296,-38.4176 116.168,-22.0584"/>
<polygon fill="midnightblue" stroke="midnightblue" points="117.584,-25.2712 125.87,-18.6692 115.275,-18.6627 117.584,-25.2712"/>
</g>
<!-- Node3 -->
<g id="node3" class="node"><title>Node3</title>
<g id="a_node3"><a xlink:href="../../d5/df6/SequentialTwoBodyDecay_8hpp.html" target="_top" xlink:title="Physics/HelicityFormalism\l/SequentialTwoBodyDecay.hpp">
<polygon fill="white" stroke="black" points="944,-373 944,-403 1098,-403 1098,-373 944,-373"/>
<text text-anchor="start" x="952" y="-391" font-family="Helvetica,sans-Serif" font-size="10.00">Physics/HelicityFormalism</text>
<text text-anchor="middle" x="1021" y="-380" font-family="Helvetica,sans-Serif" font-size="10.00">/SequentialTwoBodyDecay.hpp</text>
</a>
</g>
</g>
<!-- Node1&#45;&gt;Node3 -->
<g id="edge2" class="edge"><title>Node1&#45;&gt;Node3</title>
<path fill="none" stroke="midnightblue" d="M584.577,-454.762C677.375,-440.779 835.569,-416.942 933.857,-402.131"/>
<polygon fill="midnightblue" stroke="midnightblue" points="934.4,-405.589 943.767,-400.638 933.357,-398.667 934.4,-405.589"/>
</g>
<!-- Node4 -->
<g id="node4" class="node"><title>Node4</title>
<polygon fill="white" stroke="#bfbfbf" points="1395.5,-57 1395.5,-87 1496.5,-87 1496.5,-57 1395.5,-57"/>
<text text-anchor="start" x="1403.5" y="-75" font-family="Helvetica,sans-Serif" font-size="10.00">boost/property_tree</text>
<text text-anchor="middle" x="1446" y="-64" font-family="Helvetica,sans-Serif" font-size="10.00">/ptree.hpp</text>
</g>
<!-- Node3&#45;&gt;Node4 -->
<g id="edge3" class="edge"><title>Node3&#45;&gt;Node4</title>
<path fill="none" stroke="midnightblue" d="M1098.23,-382.893C1182.33,-373.764 1305,-344.727 1305,-253 1305,-253 1305,-253 1305,-189 1305,-140.771 1354.81,-108.895 1395.21,-90.9704"/>
<polygon fill="midnightblue" stroke="midnightblue" points="1396.63,-94.1723 1404.46,-87.0345 1393.89,-87.7319 1396.63,-94.1723"/>
</g>
<!-- Node5 -->
<g id="node5" class="node"><title>Node5</title>
<polygon fill="white" stroke="#bfbfbf" points="1333.5,-305 1333.5,-335 1434.5,-335 1434.5,-305 1333.5,-305"/>
<text text-anchor="start" x="1341.5" y="-323" font-family="Helvetica,sans-Serif" font-size="10.00">boost/property_tree</text>
<text text-anchor="middle" x="1384" y="-312" font-family="Helvetica,sans-Serif" font-size="10.00">/xml_parser.hpp</text>
</g>
<!-- Node3&#45;&gt;Node5 -->
<g id="edge4" class="edge"><title>Node3&#45;&gt;Node5</title>
<path fill="none" stroke="midnightblue" d="M1098.09,-375.05C1158.39,-365.404 1244.25,-351.008 1319,-336 1320.45,-335.708 1321.93,-335.407 1323.41,-335.1"/>
<polygon fill="midnightblue" stroke="midnightblue" points="1324.27,-338.497 1333.32,-332.991 1322.81,-331.65 1324.27,-338.497"/>
</g>
<!-- Node6 -->
<g id="node6" class="node"><title>Node6</title>
<g id="a_node6"><a xlink:href="../../db/dce/Parameter_8hpp.html" target="_top" xlink:title="This class implements some internal container of parameters. ">
<polygon fill="white" stroke="black" points="983,-124.5 983,-143.5 1087,-143.5 1087,-124.5 983,-124.5"/>
<text text-anchor="middle" x="1035" y="-131.5" font-family="Helvetica,sans-Serif" font-size="10.00">Core/Parameter.hpp</text>
</a>
</g>
</g>
<!-- Node3&#45;&gt;Node6 -->
<g id="edge5" class="edge"><title>Node3&#45;&gt;Node6</title>
<path fill="none" stroke="midnightblue" d="M1021.79,-372.729C1024.18,-329.829 1031.28,-202.021 1033.96,-153.745"/>
<polygon fill="midnightblue" stroke="midnightblue" points="1037.47,-153.696 1034.53,-143.518 1030.48,-153.308 1037.47,-153.696"/>
</g>
<!-- Node17 -->
<g id="node17" class="node"><title>Node17</title>
<g id="a_node17"><a xlink:href="../../dc/de3/Amplitude_8hpp.html" target="_top" xlink:title="This class provides the interface to the model which tries to describe the intensity. ">
<polygon fill="white" stroke="black" points="249.5,-242.5 249.5,-261.5 366.5,-261.5 366.5,-242.5 249.5,-242.5"/>
<text text-anchor="middle" x="308" y="-249.5" font-family="Helvetica,sans-Serif" font-size="10.00">Physics/Amplitude.hpp</text>
</a>
</g>
</g>
<!-- Node3&#45;&gt;Node17 -->
<g id="edge20" class="edge"><title>Node3&#45;&gt;Node17</title>
<path fill="none" stroke="midnightblue" d="M943.779,-373.35C886.859,-363.224 807.566,-348.982 738,-336 602.176,-310.654 442.502,-279.467 361.283,-263.505"/>
<polygon fill="midnightblue" stroke="midnightblue" points="361.788,-260.037 351.301,-261.542 360.438,-266.906 361.788,-260.037"/>
</g>
<!-- Node23 -->
<g id="node23" class="node"><title>Node23</title>
<g id="a_node23"><a xlink:href="../../db/d49/PartialDecay_8hpp.html" target="_top" xlink:title="Containt PartialDecay class which represents a two&#45;body decay within the helicity formalism...">
<polygon fill="white" stroke="red" points="747,-305 747,-335 881,-335 881,-305 747,-305"/>
<text text-anchor="start" x="755" y="-323" font-family="Helvetica,sans-Serif" font-size="10.00">Physics/HelicityFormalism</text>
<text text-anchor="middle" x="814" y="-312" font-family="Helvetica,sans-Serif" font-size="10.00">/PartialDecay.hpp</text>
</a>
</g>
</g>
<!-- Node3&#45;&gt;Node23 -->
<g id="edge48" class="edge"><title>Node3&#45;&gt;Node23</title>
<path fill="none" stroke="midnightblue" d="M976.847,-372.922C944.967,-362.757 901.739,-348.975 867.833,-338.164"/>
<polygon fill="midnightblue" stroke="midnightblue" points="868.676,-334.759 858.085,-335.056 866.549,-341.428 868.676,-334.759"/>
</g>
<!-- Node6&#45;&gt;Node4 -->
<g id="edge12" class="edge"><title>Node6&#45;&gt;Node4</title>
<path fill="none" stroke="midnightblue" d="M1087.04,-128.257C1153.82,-121.745 1273.38,-108.648 1385.25,-87.9966"/>
<polygon fill="midnightblue" stroke="midnightblue" points="1386.17,-91.3853 1395.35,-86.1061 1384.88,-84.5046 1386.17,-91.3853"/>
</g>
<!-- Node7 -->
<g id="node7" class="node"><title>Node7</title>
<polygon fill="white" stroke="#bfbfbf" points="840,-62.5 840,-81.5 894,-81.5 894,-62.5 840,-62.5"/>
<text text-anchor="middle" x="867" y="-69.5" font-family="Helvetica,sans-Serif" font-size="10.00">iostream</text>
</g>
<!-- Node6&#45;&gt;Node7 -->
<g id="edge6" class="edge"><title>Node6&#45;&gt;Node7</title>
<path fill="none" stroke="midnightblue" d="M1008.27,-124.463C981.471,-115.77 939.119,-101.664 903,-88 900.89,-87.2019 898.72,-86.3575 896.541,-85.4924"/>
<polygon fill="midnightblue" stroke="midnightblue" points="897.67,-82.1733 887.088,-81.6462 895.032,-88.6571 897.67,-82.1733"/>
</g>
<!-- Node8 -->
<g id="node8" class="node"><title>Node8</title>
<polygon fill="white" stroke="#bfbfbf" points="903.5,-0.5 903.5,-19.5 944.5,-19.5 944.5,-0.5 903.5,-0.5"/>
<text text-anchor="middle" x="924" y="-7.5" font-family="Helvetica,sans-Serif" font-size="10.00">string</text>
</g>
<!-- Node6&#45;&gt;Node8 -->
<g id="edge7" class="edge"><title>Node6&#45;&gt;Node8</title>
<path fill="none" stroke="midnightblue" d="M1080.98,-124.466C1131.22,-114.677 1205.72,-98.6133 1214,-88 1222.75,-76.7842 1223.25,-66.8002 1214,-56 1180.88,-17.3461 1022.79,-11.6179 954.993,-10.9655"/>
<polygon fill="midnightblue" stroke="midnightblue" points="954.942,-7.4652 944.92,-10.9001 954.897,-14.4651 954.942,-7.4652"/>
</g>
<!-- Node9 -->
<g id="node9" class="node"><title>Node9</title>
<polygon fill="white" stroke="#bfbfbf" points="912,-62.5 912,-81.5 964,-81.5 964,-62.5 912,-62.5"/>
<text text-anchor="middle" x="938" y="-69.5" font-family="Helvetica,sans-Serif" font-size="10.00">sstream</text>
</g>
<!-- Node6&#45;&gt;Node9 -->
<g id="edge8" class="edge"><title>Node6&#45;&gt;Node9</title>
<path fill="none" stroke="midnightblue" d="M1021.1,-124.403C1005.26,-114.601 979.126,-98.4385 960.395,-86.8526"/>
<polygon fill="midnightblue" stroke="midnightblue" points="962.218,-83.8646 951.872,-81.5806 958.535,-89.8178 962.218,-83.8646"/>
</g>
<!-- Node10 -->
<g id="node10" class="node"><title>Node10</title>
<polygon fill="white" stroke="#bfbfbf" points="1324.5,-62.5 1324.5,-81.5 1377.5,-81.5 1377.5,-62.5 1324.5,-62.5"/>
<text text-anchor="middle" x="1351" y="-69.5" font-family="Helvetica,sans-Serif" font-size="10.00">complex</text>
</g>
<!-- Node6&#45;&gt;Node10 -->
<g id="edge9" class="edge"><title>Node6&#45;&gt;Node10</title>
<path fill="none" stroke="midnightblue" d="M1087.3,-125.215C1162,-113.997 1292.62,-93.976 1314,-88 1316.82,-87.2129 1319.71,-86.2778 1322.58,-85.265"/>
<polygon fill="midnightblue" stroke="midnightblue" points="1324,-88.4694 1332.08,-81.6236 1321.49,-81.9326 1324,-88.4694"/>
</g>
<!-- Node11 -->
<g id="node11" class="node"><title>Node11</title>
<polygon fill="white" stroke="#bfbfbf" points="1146.5,-62.5 1146.5,-81.5 1205.5,-81.5 1205.5,-62.5 1146.5,-62.5"/>
<text text-anchor="middle" x="1176" y="-69.5" font-family="Helvetica,sans-Serif" font-size="10.00">stdexcept</text>
</g>
<!-- Node6&#45;&gt;Node11 -->
<g id="edge10" class="edge"><title>Node6&#45;&gt;Node11</title>
<path fill="none" stroke="midnightblue" d="M1055.2,-124.403C1079.07,-114.245 1119,-97.2547 1146.37,-85.6074"/>
<polygon fill="midnightblue" stroke="midnightblue" points="1148,-88.7167 1155.84,-81.5806 1145.26,-82.2757 1148,-88.7167"/>
</g>
<!-- Node12 -->
<g id="node12" class="node"><title>Node12</title>
<polygon fill="white" stroke="#bfbfbf" points="1262,-62.5 1262,-81.5 1306,-81.5 1306,-62.5 1262,-62.5"/>
<text text-anchor="middle" x="1284" y="-69.5" font-family="Helvetica,sans-Serif" font-size="10.00">cmath</text>
</g>
<!-- Node6&#45;&gt;Node12 -->
<g id="edge11" class="edge"><title>Node6&#45;&gt;Node12</title>
<path fill="none" stroke="midnightblue" d="M1087.34,-124.752C1130.89,-117.223 1194.23,-104.723 1248,-88 1250.58,-87.1983 1253.23,-86.2824 1255.86,-85.3073"/>
<polygon fill="midnightblue" stroke="midnightblue" points="1257.18,-88.5501 1265.19,-81.6152 1254.6,-82.0415 1257.18,-88.5501"/>
</g>
<!-- Node13 -->
<g id="node13" class="node"><title>Node13</title>
<g id="a_node13"><a xlink:href="../../d8/def/AbsParameter_8hpp.html" target="_top" xlink:title="This class defines the internal container of a parameter. ">
<polygon fill="white" stroke="red" points="474,-62.5 474,-81.5 596,-81.5 596,-62.5 474,-62.5"/>
<text text-anchor="middle" x="535" y="-69.5" font-family="Helvetica,sans-Serif" font-size="10.00">Core/AbsParameter.hpp</text>
</a>
</g>
</g>
<!-- Node6&#45;&gt;Node13 -->
<g id="edge13" class="edge"><title>Node6&#45;&gt;Node13</title>
<path fill="none" stroke="midnightblue" d="M982.906,-126.749C892.95,-115.954 708.366,-93.8039 606.48,-81.5776"/>
<polygon fill="midnightblue" stroke="midnightblue" points="606.628,-78.0704 596.282,-80.3539 605.794,-85.0205 606.628,-78.0704"/>
</g>
<!-- Node15 -->
<g id="node15" class="node"><title>Node15</title>
<g id="a_node15"><a xlink:href="../../d2/de9/Exceptions_8hpp.html" target="_top" xlink:title="This class defines the ComPWA exception base&#45;class and provides a set of standard exceptions...">
<polygon fill="white" stroke="red" points="982,-62.5 982,-81.5 1090,-81.5 1090,-62.5 982,-62.5"/>
<text text-anchor="middle" x="1036" y="-69.5" font-family="Helvetica,sans-Serif" font-size="10.00">Core/Exceptions.hpp</text>
</a>
</g>
</g>
<!-- Node6&#45;&gt;Node15 -->
<g id="edge17" class="edge"><title>Node6&#45;&gt;Node15</title>
<path fill="none" stroke="midnightblue" d="M1035.14,-124.403C1035.28,-115.938 1035.5,-102.728 1035.69,-91.8199"/>
<polygon fill="midnightblue" stroke="midnightblue" points="1039.19,-91.6376 1035.86,-81.5806 1032.19,-91.5208 1039.19,-91.6376"/>
</g>
<!-- Node16 -->
<g id="node16" class="node"><title>Node16</title>
<g id="a_node16"><a xlink:href="../../da/db4/Logging_8hpp.html" target="_top" xlink:title="Core/Logging.hpp">
<polygon fill="white" stroke="red" points="690.5,-62.5 690.5,-81.5 783.5,-81.5 783.5,-62.5 690.5,-62.5"/>
<text text-anchor="middle" x="737" y="-69.5" font-family="Helvetica,sans-Serif" font-size="10.00">Core/Logging.hpp</text>
</a>
</g>
</g>
<!-- Node6&#45;&gt;Node16 -->
<g id="edge19" class="edge"><title>Node6&#45;&gt;Node16</title>
<path fill="none" stroke="midnightblue" d="M992.62,-124.467C939.11,-113.693 847.073,-95.1623 789.261,-83.5223"/>
<polygon fill="midnightblue" stroke="midnightblue" points="789.728,-80.0461 779.233,-81.5034 788.346,-86.9084 789.728,-80.0461"/>
</g>
<!-- Node13&#45;&gt;Node2 -->
<g id="edge16" class="edge"><title>Node13&#45;&gt;Node2</title>
<path fill="none" stroke="midnightblue" d="M480.532,-62.4672C401.138,-50.0295 255.753,-27.2537 188.235,-16.6765"/>
<polygon fill="midnightblue" stroke="midnightblue" points="188.51,-13.177 178.089,-15.0871 187.427,-20.0927 188.51,-13.177"/>
</g>
<!-- Node13&#45;&gt;Node8 -->
<g id="edge14" class="edge"><title>Node13&#45;&gt;Node8</title>
<path fill="none" stroke="midnightblue" d="M575.405,-62.4951C586.587,-60.2568 598.745,-57.9305 610,-56 713.513,-38.2451 837.058,-21.9703 893.344,-14.8236"/>
<polygon fill="midnightblue" stroke="midnightblue" points="893.883,-18.2834 903.365,-13.5576 893.005,-11.3386 893.883,-18.2834"/>
</g>
<!-- Node14 -->
<g id="node14" class="node"><title>Node14</title>
<polygon fill="white" stroke="#bfbfbf" points="386,-0.5 386,-19.5 430,-19.5 430,-0.5 386,-0.5"/>
<text text-anchor="middle" x="408" y="-7.5" font-family="Helvetica,sans-Serif" font-size="10.00">vector</text>
</g>
<!-- Node13&#45;&gt;Node14 -->
<g id="edge15" class="edge"><title>Node13&#45;&gt;Node14</title>
<path fill="none" stroke="midnightblue" d="M516.804,-62.4035C495.491,-52.3341 459.969,-35.5522 435.337,-23.9151"/>
<polygon fill="midnightblue" stroke="midnightblue" points="436.699,-20.6877 426.162,-19.5806 433.709,-27.0169 436.699,-20.6877"/>
</g>
<!-- Node15&#45;&gt;Node8 -->
<g id="edge18" class="edge"><title>Node15&#45;&gt;Node8</title>
<path fill="none" stroke="midnightblue" d="M1019.95,-62.4035C1001.41,-52.4678 970.66,-35.9966 948.978,-24.3812"/>
<polygon fill="midnightblue" stroke="midnightblue" points="950.485,-21.2177 940.017,-19.5806 947.179,-27.388 950.485,-21.2177"/>
</g>
<!-- Node17&#45;&gt;Node2 -->
<g id="edge22" class="edge"><title>Node17&#45;&gt;Node2</title>
<path fill="none" stroke="midnightblue" d="M283.861,-242.434C261.866,-233.879 229.215,-219.241 205,-200 179.783,-179.962 171.721,-173.591 159,-144 142.692,-106.066 145.73,-56.3388 149.059,-29.7289"/>
<polygon fill="midnightblue" stroke="midnightblue" points="152.564,-29.9382 150.494,-19.5475 145.632,-28.961 152.564,-29.9382"/>
</g>
<!-- Node17&#45;&gt;Node14 -->
<g id="edge21" class="edge"><title>Node17&#45;&gt;Node14</title>
<path fill="none" stroke="midnightblue" d="M288.201,-242.361C270.342,-233.756 244.297,-219.086 227,-200 180.887,-149.117 127.206,-108.892 171,-56 196.585,-25.1003 316.602,-15.247 375.387,-12.2446"/>
<polygon fill="midnightblue" stroke="midnightblue" points="375.791,-15.7294 385.615,-11.7601 375.46,-8.73727 375.791,-15.7294"/>
</g>
<!-- Node18 -->
<g id="node18" class="node"><title>Node18</title>
<polygon fill="white" stroke="#bfbfbf" points="180.5,-62.5 180.5,-81.5 227.5,-81.5 227.5,-62.5 180.5,-62.5"/>
<text text-anchor="middle" x="204" y="-69.5" font-family="Helvetica,sans-Serif" font-size="10.00">math.h</text>
</g>
<!-- Node17&#45;&gt;Node18 -->
<g id="edge23" class="edge"><title>Node17&#45;&gt;Node18</title>
<path fill="none" stroke="midnightblue" d="M295.807,-242.388C273.858,-226.09 228.199,-188.362 209,-144 201.874,-127.535 201.223,-106.909 201.994,-92.1377"/>
<polygon fill="midnightblue" stroke="midnightblue" points="205.517,-91.9838 202.821,-81.7378 198.539,-91.4289 205.517,-91.9838"/>
</g>
<!-- Node19 -->
<g id="node19" class="node"><title>Node19</title>
<g id="a_node19"><a xlink:href="../../df/d9f/ParameterList_8hpp.html" target="_top" xlink:title="This class provides a list of fit parameters which can have different types. ">
<polygon fill="white" stroke="red" points="618,-180.5 618,-199.5 738,-199.5 738,-180.5 618,-180.5"/>
<text text-anchor="middle" x="678" y="-187.5" font-family="Helvetica,sans-Serif" font-size="10.00">Core/ParameterList.hpp</text>
</a>
</g>
</g>
<!-- Node17&#45;&gt;Node19 -->
<g id="edge24" class="edge"><title>Node17&#45;&gt;Node19</title>
<path fill="none" stroke="midnightblue" d="M360.619,-242.467C427.746,-231.582 543.703,-212.778 615.328,-201.163"/>
<polygon fill="midnightblue" stroke="midnightblue" points="616.252,-204.559 625.562,-199.503 615.131,-197.649 616.252,-204.559"/>
</g>
<!-- Node20 -->
<g id="node20" class="node"><title>Node20</title>
<g id="a_node20"><a xlink:href="../../da/db2/FunctionTree_8hpp.html" target="_top" xlink:title="This class can be used to store a function in a tree&#45;like structure. ">
<polygon fill="white" stroke="red" points="756,-180.5 756,-199.5 872,-199.5 872,-180.5 756,-180.5"/>
<text text-anchor="middle" x="814" y="-187.5" font-family="Helvetica,sans-Serif" font-size="10.00">Core/FunctionTree.hpp</text>
</a>
</g>
</g>
<!-- Node17&#45;&gt;Node20 -->
<g id="edge34" class="edge"><title>Node17&#45;&gt;Node20</title>
<path fill="none" stroke="midnightblue" d="M366.837,-244.446C448.977,-235.229 602.961,-217.713 745.525,-200.041"/>
<polygon fill="midnightblue" stroke="midnightblue" points="746.277,-203.474 755.769,-198.768 745.414,-196.528 746.277,-203.474"/>
</g>
<!-- Node21 -->
<g id="node21" class="node"><title>Node21</title>
<g id="a_node21"><a xlink:href="../../d8/dd4/DataPoint_8hpp.html" target="_top" xlink:title="dataPoint stores kinematic information of a dalitz plot ">
<polygon fill="white" stroke="red" points="218.5,-124.5 218.5,-143.5 321.5,-143.5 321.5,-124.5 218.5,-124.5"/>
<text text-anchor="middle" x="270" y="-131.5" font-family="Helvetica,sans-Serif" font-size="10.00">Core/DataPoint.hpp</text>
</a>
</g>
</g>
<!-- Node17&#45;&gt;Node21 -->
<g id="edge40" class="edge"><title>Node17&#45;&gt;Node21</title>
<path fill="none" stroke="midnightblue" d="M302.317,-242.361C296.112,-232.517 286.346,-215.748 281,-200 275.878,-184.912 273.074,-167.011 271.581,-153.819"/>
<polygon fill="midnightblue" stroke="midnightblue" points="275.041,-153.238 270.582,-143.627 268.074,-153.921 275.041,-153.238"/>
</g>
<!-- Node22 -->
<g id="node22" class="node"><title>Node22</title>
<g id="a_node22"><a xlink:href="../../d4/d37/Kinematics_8hpp.html" target="_top" xlink:title="Core/Kinematics.hpp">
<polygon fill="white" stroke="red" points="361,-180.5 361,-199.5 469,-199.5 469,-180.5 361,-180.5"/>
<text text-anchor="middle" x="415" y="-187.5" font-family="Helvetica,sans-Serif" font-size="10.00">Core/Kinematics.hpp</text>
</a>
</g>
</g>
<!-- Node17&#45;&gt;Node22 -->
<g id="edge43" class="edge"><title>Node17&#45;&gt;Node22</title>
<path fill="none" stroke="midnightblue" d="M323.33,-242.403C340.97,-232.512 370.16,-216.144 390.858,-204.538"/>
<polygon fill="midnightblue" stroke="midnightblue" points="392.688,-207.524 399.698,-199.581 389.264,-201.419 392.688,-207.524"/>
</g>
<!-- Node19&#45;&gt;Node2 -->
<g id="edge27" class="edge"><title>Node19&#45;&gt;Node2</title>
<path fill="none" stroke="midnightblue" d="M644.399,-180.451C611.302,-171.86 559.398,-157.929 515,-144 390.034,-104.795 244.666,-48.0815 182.607,-23.3304"/>
<polygon fill="midnightblue" stroke="midnightblue" points="183.62,-19.9659 173.036,-19.5024 181.021,-26.4655 183.62,-19.9659"/>
</g>
<!-- Node19&#45;&gt;Node6 -->
<g id="edge31" class="edge"><title>Node19&#45;&gt;Node6</title>
<path fill="none" stroke="midnightblue" d="M734.568,-180.444C799.46,-170.628 905.536,-154.583 972.732,-144.419"/>
<polygon fill="midnightblue" stroke="midnightblue" points="973.398,-147.858 982.762,-142.902 972.351,-140.937 973.398,-147.858"/>
</g>
<!-- Node19&#45;&gt;Node7 -->
<g id="edge25" class="edge"><title>Node19&#45;&gt;Node7</title>
<path fill="none" stroke="midnightblue" d="M691.898,-180.47C724.255,-160.61 804.872,-111.131 844.411,-86.8643"/>
<polygon fill="midnightblue" stroke="midnightblue" points="846.39,-89.7562 853.082,-81.5423 842.728,-83.7902 846.39,-89.7562"/>
</g>
<!-- Node19&#45;&gt;Node8 -->
<g id="edge26" class="edge"><title>Node19&#45;&gt;Node8</title>
<path fill="none" stroke="midnightblue" d="M687.732,-180.269C718.919,-152.329 815.257,-66.3299 831,-56 850.922,-42.9282 875.211,-31.3053 893.97,-23.1476"/>
<polygon fill="midnightblue" stroke="midnightblue" points="895.394,-26.3456 903.224,-19.2081 892.652,-19.905 895.394,-26.3456"/>
</g>
<!-- Node19&#45;&gt;Node9 -->
<g id="edge28" class="edge"><title>Node19&#45;&gt;Node9</title>
<path fill="none" stroke="midnightblue" d="M698.798,-180.391C720.23,-171.468 754.567,-157.029 784,-144 828.455,-124.322 879.634,-100.489 910.367,-86.0486"/>
<polygon fill="midnightblue" stroke="midnightblue" points="912.035,-89.1322 919.593,-81.7074 909.054,-82.7985 912.035,-89.1322"/>
</g>
<!-- Node19&#45;&gt;Node13 -->
<g id="edge30" class="edge"><title>Node19&#45;&gt;Node13</title>
<path fill="none" stroke="midnightblue" d="M667.252,-180.281C643.013,-160.619 583.854,-112.63 553.553,-88.0498"/>
<polygon fill="midnightblue" stroke="midnightblue" points="555.455,-85.0865 545.484,-81.5048 551.046,-90.5228 555.455,-85.0865"/>
</g>
<!-- Node19&#45;&gt;Node14 -->
<g id="edge29" class="edge"><title>Node19&#45;&gt;Node14</title>
<path fill="none" stroke="midnightblue" d="M649.318,-180.42C605.918,-166.398 522.533,-135.307 465,-88 444.595,-71.2221 427.569,-45.6238 417.583,-28.6081"/>
<polygon fill="midnightblue" stroke="midnightblue" points="420.519,-26.6892 412.545,-19.7128 414.428,-30.139 420.519,-26.6892"/>
</g>
<!-- Node19&#45;&gt;Node15 -->
<g id="edge32" class="edge"><title>Node19&#45;&gt;Node15</title>
<path fill="none" stroke="midnightblue" d="M705.25,-180.459C733.857,-171.471 780.131,-156.87 820,-144 883.816,-123.401 958.054,-98.875 1000.78,-84.7051"/>
<polygon fill="midnightblue" stroke="midnightblue" points="1002.04,-87.9755 1010.43,-81.5042 999.833,-81.3317 1002.04,-87.9755"/>
</g>
<!-- Node19&#45;&gt;Node16 -->
<g id="edge33" class="edge"><title>Node19&#45;&gt;Node16</title>
<path fill="none" stroke="midnightblue" d="M675.068,-180.077C671.327,-167.052 666.316,-142.387 675,-124 682.447,-108.231 697.426,-95.6928 710.795,-86.9947"/>
<polygon fill="midnightblue" stroke="midnightblue" points="712.953,-89.7788 719.681,-81.5939 709.318,-83.797 712.953,-89.7788"/>
</g>
<!-- Node20&#45;&gt;Node2 -->
<g id="edge36" class="edge"><title>Node20&#45;&gt;Node2</title>
<path fill="none" stroke="midnightblue" d="M783.206,-180.458C706.221,-159.135 499.136,-101.98 326,-56 278.379,-43.3532 223.301,-29.1863 188.085,-20.1866"/>
<polygon fill="midnightblue" stroke="midnightblue" points="188.818,-16.7616 178.263,-17.679 187.087,-23.5441 188.818,-16.7616"/>
</g>
<!-- Node20&#45;&gt;Node6 -->
<g id="edge39" class="edge"><title>Node20&#45;&gt;Node6</title>
<path fill="none" stroke="midnightblue" d="M849.018,-180.444C887.248,-171.102 948.567,-156.119 990.257,-145.933"/>
<polygon fill="midnightblue" stroke="midnightblue" points="991.262,-149.29 1000.15,-143.516 989.601,-142.49 991.262,-149.29"/>
</g>
<!-- Node20&#45;&gt;Node8 -->
<g id="edge37" class="edge"><title>Node20&#45;&gt;Node8</title>
<path fill="none" stroke="midnightblue" d="M833.452,-180.319C863.318,-167.17 922.432,-141.845 974,-124 1028.63,-105.094 1064.23,-134.192 1099,-88 1138.17,-35.9616 1014.48,-18.4592 954.58,-13.1225"/>
<polygon fill="midnightblue" stroke="midnightblue" points="954.784,-9.62755 944.529,-12.288 954.205,-16.6035 954.784,-9.62755"/>
</g>
<!-- Node20&#45;&gt;Node13 -->
<g id="edge38" class="edge"><title>Node20&#45;&gt;Node13</title>
<path fill="none" stroke="midnightblue" d="M806.874,-180.379C794.806,-166.362 768.922,-138.718 741,-124 699.147,-101.939 647.449,-89.1778 606.314,-81.9375"/>
<polygon fill="midnightblue" stroke="midnightblue" points="606.809,-78.4716 596.366,-80.257 605.643,-85.3739 606.809,-78.4716"/>
</g>
<!-- Node20&#45;&gt;Node14 -->
<g id="edge35" class="edge"><title>Node20&#45;&gt;Node14</title>
<path fill="none" stroke="midnightblue" d="M810.143,-180.209C803.697,-166.448 789.496,-139.767 770,-124 736.823,-97.1684 720.441,-104.279 681,-88 647.122,-74.0171 639.886,-67.2344 605,-56 548.105,-37.6777 479.681,-23.8113 440.276,-16.5855"/>
<polygon fill="midnightblue" stroke="midnightblue" points="440.664,-13.0989 430.201,-14.7671 439.42,-19.9876 440.664,-13.0989"/>
</g>
<!-- Node21&#45;&gt;Node14 -->
<g id="edge42" class="edge"><title>Node21&#45;&gt;Node14</title>
<path fill="none" stroke="midnightblue" d="M273.513,-124.303C280.147,-108.804 295.867,-76.1486 318,-56 334.863,-40.6485 357.93,-29.2523 376.489,-21.7693"/>
<polygon fill="midnightblue" stroke="midnightblue" points="377.919,-24.9693 385.997,-18.1136 375.407,-18.4357 377.919,-24.9693"/>
</g>
<!-- Node21&#45;&gt;Node18 -->
<g id="edge41" class="edge"><title>Node21&#45;&gt;Node18</title>
<path fill="none" stroke="midnightblue" d="M260.544,-124.403C250.252,-115.047 233.584,-99.8948 221.006,-88.4599"/>
<polygon fill="midnightblue" stroke="midnightblue" points="223.192,-85.7176 213.439,-81.5806 218.484,-90.8971 223.192,-85.7176"/>
</g>
<!-- Node22&#45;&gt;Node8 -->
<g id="edge45" class="edge"><title>Node22&#45;&gt;Node8</title>
<path fill="none" stroke="midnightblue" d="M430.58,-180.482C479.34,-153.943 628.863,-73.4735 681,-56 754.972,-31.2086 846.459,-18.9322 893.258,-13.8999"/>
<polygon fill="midnightblue" stroke="midnightblue" points="893.766,-17.3661 903.352,-12.8533 893.044,-10.4034 893.766,-17.3661"/>
</g>
<!-- Node22&#45;&gt;Node10 -->
<g id="edge46" class="edge"><title>Node22&#45;&gt;Node10</title>
<path fill="none" stroke="midnightblue" d="M469.099,-186.572C619.581,-179.656 1035.99,-159.366 1096,-144 1116.42,-138.772 1118.99,-130.613 1139,-124 1214.4,-99.0878 1238,-111.012 1314,-88 1316.65,-87.199 1319.36,-86.2836 1322.07,-85.3089"/>
<polygon fill="midnightblue" stroke="midnightblue" points="1323.58,-88.4781 1331.65,-81.6173 1321.06,-81.946 1323.58,-88.4781"/>
</g>
<!-- Node22&#45;&gt;Node14 -->
<g id="edge44" class="edge"><title>Node22&#45;&gt;Node14</title>
<path fill="none" stroke="midnightblue" d="M409.616,-180.443C404.444,-171.678 396.988,-157.467 394,-144 385.529,-105.817 388.124,-94.6672 394,-56 395.368,-47.001 398.19,-37.3251 400.945,-29.2601"/>
<polygon fill="midnightblue" stroke="midnightblue" points="404.265,-30.3722 404.4,-19.7782 397.688,-27.9759 404.265,-30.3722"/>
</g>
<!-- Node22&#45;&gt;Node21 -->
<g id="edge47" class="edge"><title>Node22&#45;&gt;Node21</title>
<path fill="none" stroke="midnightblue" d="M392.024,-180.444C367.843,-171.438 329.582,-157.189 302.354,-147.049"/>
<polygon fill="midnightblue" stroke="midnightblue" points="303.461,-143.727 292.868,-143.516 301.018,-150.286 303.461,-143.727"/>
</g>
<!-- Node23&#45;&gt;Node2 -->
<g id="edge49" class="edge"><title>Node23&#45;&gt;Node2</title>
<path fill="none" stroke="midnightblue" d="M746.778,-318.984C638.619,-317.635 419.873,-309.434 240,-268 146.373,-246.433 38,-287.079 38,-191 38,-191 38,-191 38,-133 38,-82.1254 91.5771,-43.6678 125.272,-24.512"/>
<polygon fill="midnightblue" stroke="midnightblue" points="127.1,-27.5016 134.188,-19.6267 123.736,-21.3628 127.1,-27.5016"/>
</g>
<!-- Node23&#45;&gt;Node4 -->
<g id="edge50" class="edge"><title>Node23&#45;&gt;Node4</title>
<path fill="none" stroke="midnightblue" d="M846.082,-304.97C922.47,-271.767 1121.42,-186.473 1291,-124 1323.84,-111.902 1361.08,-99.6041 1390.82,-90.1163"/>
<polygon fill="midnightblue" stroke="midnightblue" points="1392.13,-93.3723 1400.61,-87.0107 1390.02,-86.7004 1392.13,-93.3723"/>
</g>
<!-- Node24 -->
<g id="node24" class="node"><title>Node24</title>
<g id="a_node24"><a xlink:href="../../d4/d62/Resonance_8hpp.html" target="_top" xlink:title="Contains Resonance interface class. ">
<polygon fill="white" stroke="black" points="454.5,-242.5 454.5,-261.5 577.5,-261.5 577.5,-242.5 454.5,-242.5"/>
<text text-anchor="middle" x="516" y="-249.5" font-family="Helvetica,sans-Serif" font-size="10.00">Physics/Resonance.hpp</text>
</a>
</g>
</g>
<!-- Node23&#45;&gt;Node24 -->
<g id="edge51" class="edge"><title>Node23&#45;&gt;Node24</title>
<path fill="none" stroke="midnightblue" d="M750.437,-304.922C694.785,-292.597 615.116,-274.952 564.476,-263.736"/>
<polygon fill="midnightblue" stroke="midnightblue" points="564.961,-260.259 554.441,-261.514 563.447,-267.093 564.961,-260.259"/>
</g>
<!-- Node25 -->
<g id="node25" class="node"><title>Node25</title>
<g id="a_node25"><a xlink:href="../../de/d02/AbstractDynamicalFunction_8hpp.html" target="_top" xlink:title="Physics/DecayDynamics\l/AbstractDynamicalFunction.hpp">
<polygon fill="white" stroke="red" points="734.5,-237 734.5,-267 893.5,-267 893.5,-237 734.5,-237"/>
<text text-anchor="start" x="742.5" y="-255" font-family="Helvetica,sans-Serif" font-size="10.00">Physics/DecayDynamics</text>
<text text-anchor="middle" x="814" y="-244" font-family="Helvetica,sans-Serif" font-size="10.00">/AbstractDynamicalFunction.hpp</text>
</a>
</g>
</g>
<!-- Node23&#45;&gt;Node25 -->
<g id="edge59" class="edge"><title>Node23&#45;&gt;Node25</title>
<path fill="none" stroke="midnightblue" d="M814,-304.679C814,-296.722 814,-286.605 814,-277.436"/>
<polygon fill="midnightblue" stroke="midnightblue" points="817.5,-277.293 814,-267.293 810.5,-277.293 817.5,-277.293"/>
</g>
<!-- Node24&#45;&gt;Node2 -->
<g id="edge53" class="edge"><title>Node24&#45;&gt;Node2</title>
<path fill="none" stroke="midnightblue" d="M454.199,-245.11C385.644,-235.408 275.904,-209.997 209,-144 187.587,-122.877 183.239,-115.475 171,-88 162.614,-69.1749 157.54,-46.0419 154.771,-30.0731"/>
<polygon fill="midnightblue" stroke="midnightblue" points="158.176,-29.201 153.147,-19.8755 151.263,-30.3014 158.176,-29.201"/>
</g>
<!-- Node24&#45;&gt;Node6 -->
<g id="edge55" class="edge"><title>Node24&#45;&gt;Node6</title>
<path fill="none" stroke="midnightblue" d="M577.515,-247.232C650.687,-241.646 776.012,-228.572 880,-200 927.225,-187.025 979.15,-163.124 1009.31,-148.201"/>
<polygon fill="midnightblue" stroke="midnightblue" points="1010.94,-151.304 1018.31,-143.697 1007.8,-145.045 1010.94,-151.304"/>
</g>
<!-- Node24&#45;&gt;Node13 -->
<g id="edge54" class="edge"><title>Node24&#45;&gt;Node13</title>
<path fill="none" stroke="midnightblue" d="M516.916,-242.415C519.818,-215.227 528.856,-130.563 532.949,-92.2169"/>
<polygon fill="midnightblue" stroke="midnightblue" points="536.467,-92.2335 534.048,-81.9185 529.506,-91.4905 536.467,-92.2335"/>
</g>
<!-- Node24&#45;&gt;Node14 -->
<g id="edge52" class="edge"><title>Node24&#45;&gt;Node14</title>
<path fill="none" stroke="midnightblue" d="M511.432,-242.353C494.867,-210.967 438.58,-104.054 432,-88 424.052,-68.6081 417.194,-45.5711 412.868,-29.7798"/>
<polygon fill="midnightblue" stroke="midnightblue" points="416.144,-28.479 410.186,-19.7176 409.38,-30.2816 416.144,-28.479"/>
</g>
<!-- Node24&#45;&gt;Node20 -->
<g id="edge57" class="edge"><title>Node24&#45;&gt;Node20</title>
<path fill="none" stroke="midnightblue" d="M558.38,-242.467C611.89,-231.693 703.927,-213.162 761.739,-201.522"/>
<polygon fill="midnightblue" stroke="midnightblue" points="762.654,-204.908 771.767,-199.503 761.272,-198.046 762.654,-204.908"/>
</g>
<!-- Node24&#45;&gt;Node21 -->
<g id="edge56" class="edge"><title>Node24&#45;&gt;Node21</title>
<path fill="none" stroke="midnightblue" d="M454.408,-245.682C413.224,-239.699 359.39,-226.989 319,-200 301.243,-188.134 287.375,-167.626 278.992,-152.814"/>
<polygon fill="midnightblue" stroke="midnightblue" points="281.89,-150.811 274.085,-143.646 275.718,-154.114 281.89,-150.811"/>
</g>
<!-- Node24&#45;&gt;Node22 -->
<g id="edge58" class="edge"><title>Node24&#45;&gt;Node22</title>
<path fill="none" stroke="midnightblue" d="M501.529,-242.403C484.954,-232.557 457.574,-216.291 438.053,-204.695"/>
<polygon fill="midnightblue" stroke="midnightblue" points="439.829,-201.679 429.444,-199.581 436.254,-207.697 439.829,-201.679"/>
</g>
<!-- Node25&#45;&gt;Node4 -->
<g id="edge61" class="edge"><title>Node25&#45;&gt;Node4</title>
<path fill="none" stroke="midnightblue" d="M875.604,-236.984C916.702,-227.33 971.83,-213.799 1020,-200 1124.71,-170.003 1148.52,-154.815 1253,-124 1277.67,-116.723 1338.62,-100.738 1385.49,-88.5897"/>
<polygon fill="midnightblue" stroke="midnightblue" points="1386.45,-91.9554 1395.25,-86.0602 1384.7,-85.1789 1386.45,-91.9554"/>
</g>
<!-- Node25&#45;&gt;Node10 -->
<g id="edge60" class="edge"><title>Node25&#45;&gt;Node10</title>
<path fill="none" stroke="midnightblue" d="M860.299,-236.919C922.639,-217.62 1036.74,-181.101 1132,-144 1152.39,-136.057 1156.35,-131.249 1177,-124 1236.4,-103.148 1254.26,-107.867 1314,-88 1316.56,-87.1476 1319.2,-86.2072 1321.84,-85.2252"/>
<polygon fill="midnightblue" stroke="midnightblue" points="1323.16,-88.4659 1331.2,-81.5703 1320.62,-81.9448 1323.16,-88.4659"/>
</g>
<!-- Node25&#45;&gt;Node19 -->
<g id="edge63" class="edge"><title>Node25&#45;&gt;Node19</title>
<path fill="none" stroke="midnightblue" d="M782.114,-236.933C759.272,-226.855 728.77,-213.399 706.69,-203.657"/>
<polygon fill="midnightblue" stroke="midnightblue" points="708.055,-200.434 697.493,-199.6 705.23,-206.839 708.055,-200.434"/>
</g>
<!-- Node25&#45;&gt;Node20 -->
<g id="edge64" class="edge"><title>Node25&#45;&gt;Node20</title>
<path fill="none" stroke="midnightblue" d="M814,-236.781C814,-228.781 814,-218.689 814,-210.017"/>
<polygon fill="midnightblue" stroke="midnightblue" points="817.5,-209.73 814,-199.731 810.5,-209.731 817.5,-209.73"/>
</g>
<!-- Node25&#45;&gt;Node21 -->
<g id="edge62" class="edge"><title>Node25&#45;&gt;Node21</title>
<path fill="none" stroke="midnightblue" d="M734.07,-244.6C611.198,-234.397 386.424,-214.155 352,-200 337.813,-194.167 306.66,-167.744 287.099,-150.435"/>
<polygon fill="midnightblue" stroke="midnightblue" points="289.3,-147.708 279.508,-143.661 284.639,-152.931 289.3,-147.708"/>
</g>
</g>
</svg>
