<?xml version="1.0" encoding="UTF-8" standalone="no"?>
<!DOCTYPE svg PUBLIC "-//W3C//DTD SVG 1.1//EN"
 "http://www.w3.org/Graphics/SVG/1.1/DTD/svg11.dtd">
<!-- Generated by graphviz version 2.26.3 (20100126.1600)
 -->
<!-- Title: G Pages: 1 -->
<svg width="3312pt" height="552pt"
 viewBox="0.00 0.00 3312.16 552.00" xmlns="http://www.w3.org/2000/svg" xmlns:xlink="http://www.w3.org/1999/xlink">
<g id="graph1" class="graph" transform="scale(1 1) rotate(0) translate(4 548)">
<title>G</title>
<polygon fill="white" stroke="white" points="-4,5 -4,-548 3309.16,-548 3309.16,5 -4,5"/>
<!-- Node1 -->
<g id="node1" class="node"><title>Node1</title>
<polygon fill="#bfbfbf" stroke="black" points="1081.66,-522.5 1081.66,-543.5 1248.66,-543.5 1248.66,-522.5 1081.66,-522.5"/>
<text text-anchor="middle" x="1165.16" y="-530.5" font-family="Helvetica,sans-Serif" font-size="10.00">test/IntegrationTestBinnedApp.cpp</text>
</g>
<!-- Node2 -->
<g id="node3" class="node"><title>Node2</title>
<polygon fill="white" stroke="#bfbfbf" points="1904.16,-58.5 1904.16,-79.5 1958.16,-79.5 1958.16,-58.5 1904.16,-58.5"/>
<text text-anchor="middle" x="1931.16" y="-66.5" font-family="Helvetica,sans-Serif" font-size="10.00">iostream</text>
</g>
<!-- Node1&#45;&gt;Node2 -->
<g id="edge2" class="edge"><title>Node1&#45;&gt;Node2</title>
<path fill="none" stroke="midnightblue" d="M1175.83,-522.452C1205.5,-493.327 1291.96,-409.862 1370.16,-348 1536.2,-216.666 1590.89,-197.767 1786.16,-116 1821.97,-101.005 1864.36,-87.7616 1894.02,-79.1863"/>
<polygon fill="midnightblue" stroke="midnightblue" points="1895.3,-82.4623 1903.95,-76.3526 1893.38,-75.731 1895.3,-82.4623"/>
</g>
<!-- Node3 -->
<g id="node5" class="node"><title>Node3</title>
<polygon fill="white" stroke="#bfbfbf" points="135.162,-464.5 135.162,-485.5 179.162,-485.5 179.162,-464.5 135.162,-464.5"/>
<text text-anchor="middle" x="157.162" y="-472.5" font-family="Helvetica,sans-Serif" font-size="10.00">cmath</text>
</g>
<!-- Node1&#45;&gt;Node3 -->
<g id="edge4" class="edge"><title>Node1&#45;&gt;Node3</title>
<path fill="none" stroke="midnightblue" d="M1081.41,-531.616C878.096,-527.827 362.725,-515.531 193.162,-486 191.895,-485.779 190.609,-485.527 189.316,-485.251"/>
<polygon fill="midnightblue" stroke="midnightblue" points="189.976,-481.807 179.422,-482.739 188.254,-488.592 189.976,-481.807"/>
</g>
<!-- Node4 -->
<g id="node7" class="node"><title>Node4</title>
<polygon fill="white" stroke="#bfbfbf" points="1976.16,-58.5 1976.16,-79.5 2028.16,-79.5 2028.16,-58.5 1976.16,-58.5"/>
<text text-anchor="middle" x="2002.16" y="-66.5" font-family="Helvetica,sans-Serif" font-size="10.00">sstream</text>
</g>
<!-- Node1&#45;&gt;Node4 -->
<g id="edge6" class="edge"><title>Node1&#45;&gt;Node4</title>
<path fill="none" stroke="midnightblue" d="M1204.5,-522.462C1232.89,-514.2 1271.77,-501.518 1304.16,-486 1520.43,-382.396 1564.83,-336.509 1759.16,-196 1804.72,-163.056 1807.79,-142.908 1857.16,-116 1859.66,-114.641 1924.06,-93.9545 1966.18,-80.4833"/>
<polygon fill="midnightblue" stroke="midnightblue" points="1967.38,-83.7745 1975.84,-77.3961 1965.25,-77.1068 1967.38,-83.7745"/>
</g>
<!-- Node5 -->
<g id="node9" class="node"><title>Node5</title>
<polygon fill="white" stroke="#bfbfbf" points="1634.16,-0.5 1634.16,-21.5 1678.16,-21.5 1678.16,-0.5 1634.16,-0.5"/>
<text text-anchor="middle" x="1656.16" y="-8.5" font-family="Helvetica,sans-Serif" font-size="10.00">vector</text>
</g>
<!-- Node1&#45;&gt;Node5 -->
<g id="edge8" class="edge"><title>Node1&#45;&gt;Node5</title>
<path fill="none" stroke="midnightblue" d="M1169.38,-522.319C1176.97,-502.1 1192.16,-456.7 1192.16,-417 1192.16,-417 1192.16,-417 1192.16,-359 1192.16,-263.774 1415.15,-106.395 1497.16,-58 1537.32,-34.3057 1590.31,-21.7796 1623.82,-15.7746"/>
<polygon fill="midnightblue" stroke="midnightblue" points="1624.7,-19.1748 1633.97,-14.0481 1623.53,-12.2738 1624.7,-19.1748"/>
</g>
<!-- Node6 -->
<g id="node11" class="node"><title>Node6</title>
<polygon fill="white" stroke="#bfbfbf" points="1255.66,-0.5 1255.66,-21.5 1296.66,-21.5 1296.66,-0.5 1255.66,-0.5"/>
<text text-anchor="middle" x="1276.16" y="-8.5" font-family="Helvetica,sans-Serif" font-size="10.00">string</text>
</g>
<!-- Node1&#45;&gt;Node6 -->
<g id="edge10" class="edge"><title>Node1&#45;&gt;Node6</title>
<path fill="none" stroke="midnightblue" d="M1081.48,-532.329C840.321,-529.987 158.99,-520.346 126.162,-486 97.6695,-456.189 -170.801,-648.024 176.162,-174 209.271,-128.766 236.051,-136.658 288.162,-116 375.788,-81.2632 399.236,-73.8023 492.162,-58 641.068,-32.6783 1119.4,-15.9842 1245.47,-11.949"/>
<polygon fill="midnightblue" stroke="midnightblue" points="1245.69,-15.4437 1255.58,-11.6285 1245.47,-8.44725 1245.69,-15.4437"/>
</g>
<!-- Node7 -->
<g id="node13" class="node"><title>Node7</title>
<polygon fill="white" stroke="#bfbfbf" points="2970.16,-0.5 2970.16,-21.5 3022.16,-21.5 3022.16,-0.5 2970.16,-0.5"/>
<text text-anchor="middle" x="2996.16" y="-8.5" font-family="Helvetica,sans-Serif" font-size="10.00">memory</text>
</g>
<!-- Node1&#45;&gt;Node7 -->
<g id="edge12" class="edge"><title>Node1&#45;&gt;Node7</title>
<path fill="none" stroke="midnightblue" d="M1248.68,-530.694C1643.56,-519.523 3304.16,-469.429 3304.16,-417 3304.16,-417 3304.16,-417 3304.16,-127 3304.16,-91.5529 3293.23,-78.2925 3264.16,-58 3227.29,-32.2556 3097.02,-18.8073 3032.67,-13.6055"/>
<polygon fill="midnightblue" stroke="midnightblue" points="3032.81,-10.1056 3022.57,-12.8127 3032.26,-17.0842 3032.81,-10.1056"/>
</g>
<!-- Node8 -->
<g id="node15" class="node"><title>Node8</title>
<polygon fill="white" stroke="#bfbfbf" points="1054.16,-464.5 1054.16,-485.5 1096.16,-485.5 1096.16,-464.5 1054.16,-464.5"/>
<text text-anchor="middle" x="1075.16" y="-472.5" font-family="Helvetica,sans-Serif" font-size="10.00">TF1.h</text>
</g>
<!-- Node1&#45;&gt;Node8 -->
<g id="edge14" class="edge"><title>Node1&#45;&gt;Node8</title>
<path fill="none" stroke="midnightblue" d="M1148.65,-522.362C1135.08,-513.614 1115.63,-501.079 1100.15,-491.101"/>
<polygon fill="midnightblue" stroke="midnightblue" points="1101.87,-488.046 1091.56,-485.571 1098.07,-493.93 1101.87,-488.046"/>
</g>
<!-- Node9 -->
<g id="node17" class="node"><title>Node9</title>
<polygon fill="white" stroke="#bfbfbf" points="1113.66,-464.5 1113.66,-485.5 1164.66,-485.5 1164.66,-464.5 1113.66,-464.5"/>
<text text-anchor="middle" x="1139.16" y="-472.5" font-family="Helvetica,sans-Serif" font-size="10.00">TH1D.h</text>
</g>
<!-- Node1&#45;&gt;Node9 -->
<g id="edge16" class="edge"><title>Node1&#45;&gt;Node9</title>
<path fill="none" stroke="midnightblue" d="M1160.39,-522.362C1156.95,-514.677 1152.19,-504.069 1148.06,-494.84"/>
<polygon fill="midnightblue" stroke="midnightblue" points="1151.19,-493.264 1143.9,-485.571 1144.8,-496.127 1151.19,-493.264"/>
</g>
<!-- Node10 -->
<g id="node19" class="node"><title>Node10</title>
<polygon fill="white" stroke="#bfbfbf" points="255.662,-174.5 255.662,-195.5 302.662,-195.5 302.662,-174.5 255.662,-174.5"/>
<text text-anchor="middle" x="279.162" y="-182.5" font-family="Helvetica,sans-Serif" font-size="10.00">TFile.h</text>
</g>
<!-- Node1&#45;&gt;Node10 -->
<g id="edge18" class="edge"><title>Node1&#45;&gt;Node10</title>
<path fill="none" stroke="midnightblue" d="M1081.46,-526.747C905.26,-512.459 512.162,-474.176 512.162,-417 512.162,-417 512.162,-417 512.162,-301 512.162,-256.928 376.883,-212.67 312.482,-194.097"/>
<polygon fill="midnightblue" stroke="midnightblue" points="313.362,-190.709 302.786,-191.341 311.448,-197.442 313.362,-190.709"/>
</g>
<!-- Node11 -->
<g id="node21" class="node"><title>Node11</title>
<a xlink:href="../../df/d7d/Event_8hpp.xhtml" target="_top" xlink:title="This class provides a internal container for event&#45;based information.">
<polygon fill="white" stroke="black" points="1049.66,-116.5 1049.66,-137.5 1134.66,-137.5 1134.66,-116.5 1049.66,-116.5"/>
<text text-anchor="middle" x="1092.16" y="-124.5" font-family="Helvetica,sans-Serif" font-size="10.00">Core/Event.hpp</text>
</a>
</g>
<!-- Node1&#45;&gt;Node11 -->
<g id="edge20" class="edge"><title>Node1&#45;&gt;Node11</title>
<path fill="none" stroke="midnightblue" d="M1081.5,-530.722C947.172,-526.276 689.716,-514.278 603.162,-486 403.178,-420.663 102.586,-326.841 247.162,-174 274.461,-145.14 858.874,-131.496 1039.47,-127.958"/>
<polygon fill="midnightblue" stroke="midnightblue" points="1039.6,-131.457 1049.53,-127.764 1039.46,-124.458 1039.6,-131.457"/>
</g>
<!-- Node12 -->
<g id="node25" class="node"><title>Node12</title>
<a xlink:href="../../d3/d65/Particle_8hpp.xhtml" target="_top" xlink:title="This class provides a internal container for information of a particle.">
<polygon fill="white" stroke="black" points="677.162,-58.5 677.162,-79.5 769.162,-79.5 769.162,-58.5 677.162,-58.5"/>
<text text-anchor="middle" x="723.162" y="-66.5" font-family="Helvetica,sans-Serif" font-size="10.00">Core/Particle.hpp</text>
</a>
</g>
<!-- Node1&#45;&gt;Node12 -->
<g id="edge32" class="edge"><title>Node1&#45;&gt;Node12</title>
<path fill="none" stroke="midnightblue" d="M1081.45,-529.721C934.329,-523.468 635.321,-508.432 533.162,-486 461.32,-470.225 445.159,-458.358 378.162,-428 271.386,-379.617 190.162,-360.226 190.162,-243 190.162,-243 190.162,-243 190.162,-185 190.162,-136.66 529.222,-91.6384 666.487,-75.3926"/>
<polygon fill="midnightblue" stroke="midnightblue" points="667.271,-78.8247 676.794,-74.182 666.454,-71.8724 667.271,-78.8247"/>
</g>
<!-- Node14 -->
<g id="node31" class="node"><title>Node14</title>
<a xlink:href="../../db/dce/Parameter_8hpp.xhtml" target="_top" xlink:title="This class implements some internal container of parameters.">
<polygon fill="white" stroke="black" points="1866.16,-116.5 1866.16,-137.5 1970.16,-137.5 1970.16,-116.5 1866.16,-116.5"/>
<text text-anchor="middle" x="1918.16" y="-124.5" font-family="Helvetica,sans-Serif" font-size="10.00">Core/Parameter.hpp</text>
</a>
</g>
<!-- Node1&#45;&gt;Node14 -->
<g id="edge34" class="edge"><title>Node1&#45;&gt;Node14</title>
<path fill="none" stroke="midnightblue" d="M1209.93,-522.448C1233.41,-515.192 1261.51,-503.614 1282.16,-486 1313.71,-459.092 1299.45,-433.858 1330.16,-406 1495.93,-255.64 1757.17,-170.935 1866.92,-140.297"/>
<polygon fill="midnightblue" stroke="midnightblue" points="1868.04,-143.619 1876.75,-137.585 1866.18,-136.871 1868.04,-143.619"/>
</g>
<!-- Node21 -->
<g id="node52" class="node"><title>Node21</title>
<a xlink:href="../../df/d53/RootReader_8hpp.xhtml" target="_top" xlink:title="This class reads event&#45;based data from root&#45;files.">
<polygon fill="white" stroke="black" points="723.662,-232.5 723.662,-253.5 922.662,-253.5 922.662,-232.5 723.662,-232.5"/>
<text text-anchor="middle" x="823.162" y="-240.5" font-family="Helvetica,sans-Serif" font-size="10.00">DataReader/RootReader/RootReader.hpp</text>
</a>
</g>
<!-- Node1&#45;&gt;Node21 -->
<g id="edge62" class="edge"><title>Node1&#45;&gt;Node21</title>
<path fill="none" stroke="midnightblue" d="M1124.99,-522.461C1056.67,-503.343 925.162,-460.849 925.162,-417 925.162,-417 925.162,-417 925.162,-359 925.162,-314.282 881.886,-278.604 851.711,-259.161"/>
<polygon fill="midnightblue" stroke="midnightblue" points="853.173,-255.95 842.829,-253.657 849.485,-261.9 853.173,-255.95"/>
</g>
<!-- Node32 -->
<g id="node82" class="node"><title>Node32</title>
<a xlink:href="../../d3/da8/BreitWigner_8hpp.xhtml" target="_top" xlink:title="This class provides a simple Breit&#45;Wigner calculation with given parameters.">
<polygon fill="white" stroke="black" points="1903.66,-464.5 1903.66,-485.5 2082.66,-485.5 2082.66,-464.5 1903.66,-464.5"/>
<text text-anchor="middle" x="1993.16" y="-472.5" font-family="Helvetica,sans-Serif" font-size="10.00">Physics/BreitWigner/BreitWigner.hpp</text>
</a>
</g>
<!-- Node1&#45;&gt;Node32 -->
<g id="edge100" class="edge"><title>Node1&#45;&gt;Node32</title>
<path fill="none" stroke="midnightblue" d="M1248.73,-527.146C1402.27,-516.391 1728.59,-493.533 1893.44,-481.986"/>
<polygon fill="midnightblue" stroke="midnightblue" points="1893.85,-485.466 1903.58,-481.275 1893.36,-478.483 1893.85,-485.466"/>
</g>
<!-- Node39 -->
<g id="node133" class="node"><title>Node39</title>
<a xlink:href="../../d5/d8d/ChiOneD_8hpp.xhtml" target="_top" xlink:title="This class calculates a simple &#160;of a intensity and a dataset.">
<polygon fill="white" stroke="black" points="1376.16,-464.5 1376.16,-485.5 1540.16,-485.5 1540.16,-464.5 1376.16,-464.5"/>
<text text-anchor="middle" x="1458.16" y="-472.5" font-family="Helvetica,sans-Serif" font-size="10.00">Estimator/ChiOneD/ChiOneD.hpp</text>
</a>
</g>
<!-- Node1&#45;&gt;Node39 -->
<g id="edge188" class="edge"><title>Node1&#45;&gt;Node39</title>
<path fill="none" stroke="midnightblue" d="M1218.22,-522.497C1267.95,-512.652 1342.34,-497.927 1395.09,-487.486"/>
<polygon fill="midnightblue" stroke="midnightblue" points="1395.87,-490.898 1405,-485.523 1394.51,-484.032 1395.87,-490.898"/>
</g>
<!-- Node41 -->
<g id="node148" class="node"><title>Node41</title>
<a xlink:href="../../da/d15/MinuitIF_8hpp.xhtml" target="_top" xlink:title="This class provides a wrapper around the Minuit2 library.">
<polygon fill="white" stroke="black" points="2589.16,-348.5 2589.16,-369.5 2739.16,-369.5 2739.16,-348.5 2589.16,-348.5"/>
<text text-anchor="middle" x="2664.16" y="-356.5" font-family="Helvetica,sans-Serif" font-size="10.00">Optimizer/Minuit2/MinuitIF.hpp</text>
</a>
</g>
<!-- Node1&#45;&gt;Node41 -->
<g id="edge214" class="edge"><title>Node1&#45;&gt;Node41</title>
<path fill="none" stroke="midnightblue" d="M1248.79,-530.55C1444.85,-524.516 1929.75,-507.828 2091.16,-486 2289.13,-459.229 2519.96,-398.972 2617.2,-372.223"/>
<polygon fill="midnightblue" stroke="midnightblue" points="2618.3,-375.549 2627.01,-369.512 2616.44,-368.801 2618.3,-375.549"/>
</g>
<!-- Node11&#45;&gt;Node5 -->
<g id="edge22" class="edge"><title>Node11&#45;&gt;Node5</title>
<path fill="none" stroke="midnightblue" d="M1124.86,-116.398C1171.68,-101.544 1260.73,-74.5128 1338.16,-58 1441.7,-35.9213 1566.4,-20.7567 1624.05,-14.3823"/>
<polygon fill="midnightblue" stroke="midnightblue" points="1624.45,-17.8592 1634.01,-13.2947 1623.69,-10.9005 1624.45,-17.8592"/>
</g>
<!-- Node11&#45;&gt;Node6 -->
<g id="edge24" class="edge"><title>Node11&#45;&gt;Node6</title>
<path fill="none" stroke="midnightblue" d="M1098.22,-116.386C1107.27,-101.393 1125.69,-74.0563 1148.16,-58 1177.88,-36.764 1218.27,-24.0534 1245.67,-17.3055"/>
<polygon fill="midnightblue" stroke="midnightblue" points="1246.55,-20.6943 1255.49,-15.0059 1244.96,-13.8787 1246.55,-20.6943"/>
</g>
<!-- Node11&#45;&gt;Node12 -->
<g id="edge26" class="edge"><title>Node11&#45;&gt;Node12</title>
<path fill="none" stroke="midnightblue" d="M1049.47,-120.29C982.705,-109.795 853.543,-89.4935 779.315,-77.8261"/>
<polygon fill="midnightblue" stroke="midnightblue" points="779.64,-74.3343 769.217,-76.239 778.553,-81.2494 779.64,-74.3343"/>
</g>
<!-- Node12&#45;&gt;Node5 -->
<g id="edge28" class="edge"><title>Node12&#45;&gt;Node5</title>
<path fill="none" stroke="midnightblue" d="M769.43,-66.1238C933.379,-55.9318 1484.28,-21.6852 1623.82,-13.0104"/>
<polygon fill="midnightblue" stroke="midnightblue" points="1624.11,-16.4991 1633.88,-12.3853 1623.68,-9.51261 1624.11,-16.4991"/>
</g>
<!-- Node13 -->
<g id="node28" class="node"><title>Node13</title>
<polygon fill="white" stroke="#bfbfbf" points="414.662,-0.5 414.662,-21.5 461.662,-21.5 461.662,-0.5 414.662,-0.5"/>
<text text-anchor="middle" x="438.162" y="-8.5" font-family="Helvetica,sans-Serif" font-size="10.00">math.h</text>
</g>
<!-- Node12&#45;&gt;Node13 -->
<g id="edge30" class="edge"><title>Node12&#45;&gt;Node13</title>
<path fill="none" stroke="midnightblue" d="M677.055,-59.6168C619.574,-47.9189 522.7,-28.2042 471.769,-17.8392"/>
<polygon fill="midnightblue" stroke="midnightblue" points="472.421,-14.4004 461.924,-15.8358 471.025,-21.2598 472.421,-14.4004"/>
</g>
<!-- Node14&#45;&gt;Node2 -->
<g id="edge36" class="edge"><title>Node14&#45;&gt;Node2</title>
<path fill="none" stroke="midnightblue" d="M1920.55,-116.362C1922.23,-108.84 1924.55,-98.5187 1926.58,-89.4308"/>
<polygon fill="midnightblue" stroke="midnightblue" points="1930.02,-90.0941 1928.79,-79.5707 1923.19,-88.563 1930.02,-90.0941"/>
</g>
<!-- Node14&#45;&gt;Node4 -->
<g id="edge40" class="edge"><title>Node14&#45;&gt;Node4</title>
<path fill="none" stroke="midnightblue" d="M1933.57,-116.362C1946.12,-107.696 1964.05,-95.3126 1978.44,-85.3819"/>
<polygon fill="midnightblue" stroke="midnightblue" points="1980.61,-88.1327 1986.85,-79.5707 1976.64,-82.3725 1980.61,-88.1327"/>
</g>
<!-- Node14&#45;&gt;Node6 -->
<g id="edge38" class="edge"><title>Node14&#45;&gt;Node6</title>
<path fill="none" stroke="midnightblue" d="M1907.11,-116.292C1889.93,-100.382 1855.01,-70.9854 1819.16,-58 1723.77,-23.4487 1407.19,-13.8034 1306.91,-11.5821"/>
<polygon fill="midnightblue" stroke="midnightblue" points="1306.9,-8.0813 1296.83,-11.3681 1306.76,-15.0797 1306.9,-8.0813"/>
</g>
<!-- Node15 -->
<g id="node36" class="node"><title>Node15</title>
<polygon fill="white" stroke="#bfbfbf" points="1757.66,-58.5 1757.66,-79.5 1810.66,-79.5 1810.66,-58.5 1757.66,-58.5"/>
<text text-anchor="middle" x="1784.16" y="-66.5" font-family="Helvetica,sans-Serif" font-size="10.00">complex</text>
</g>
<!-- Node14&#45;&gt;Node15 -->
<g id="edge42" class="edge"><title>Node14&#45;&gt;Node15</title>
<path fill="none" stroke="midnightblue" d="M1893.9,-116.497C1872.68,-107.315 1841.66,-93.8889 1818.01,-83.6516"/>
<polygon fill="midnightblue" stroke="midnightblue" points="1819.27,-80.3815 1808.7,-79.6212 1816.49,-86.8055 1819.27,-80.3815"/>
</g>
<!-- Node16 -->
<g id="node38" class="node"><title>Node16</title>
<a xlink:href="../../d8/def/AbsParameter_8hpp.xhtml" target="_top" xlink:title="This class defines the internal container of a parameter.">
<polygon fill="white" stroke="black" points="2210.16,-58.5 2210.16,-79.5 2332.16,-79.5 2332.16,-58.5 2210.16,-58.5"/>
<text text-anchor="middle" x="2271.16" y="-66.5" font-family="Helvetica,sans-Serif" font-size="10.00">Core/AbsParameter.hpp</text>
</a>
</g>
<!-- Node14&#45;&gt;Node16 -->
<g id="edge44" class="edge"><title>Node14&#45;&gt;Node16</title>
<path fill="none" stroke="midnightblue" d="M1970.25,-118.442C2030.99,-108.461 2131.74,-91.9074 2199.75,-80.733"/>
<polygon fill="midnightblue" stroke="midnightblue" points="2200.66,-84.1313 2209.96,-79.0563 2199.52,-77.224 2200.66,-84.1313"/>
</g>
<!-- Node19 -->
<g id="node47" class="node"><title>Node19</title>
<a xlink:href="../../d2/de9/Exceptions_8hpp.xhtml" target="_top" xlink:title="This class defines the ComPWA exception base&#45;class and provides a set of standard exceptions...">
<polygon fill="white" stroke="black" points="2046.16,-58.5 2046.16,-79.5 2154.16,-79.5 2154.16,-58.5 2046.16,-58.5"/>
<text text-anchor="middle" x="2100.16" y="-66.5" font-family="Helvetica,sans-Serif" font-size="10.00">Core/Exceptions.hpp</text>
</a>
</g>
<!-- Node14&#45;&gt;Node19 -->
<g id="edge56" class="edge"><title>Node14&#45;&gt;Node19</title>
<path fill="none" stroke="midnightblue" d="M1951.12,-116.497C1980.92,-107 2024.97,-92.9619 2057.46,-82.6087"/>
<polygon fill="midnightblue" stroke="midnightblue" points="2058.68,-85.8942 2067.14,-79.5231 2056.55,-79.2247 2058.68,-85.8942"/>
</g>
<!-- Node16&#45;&gt;Node5 -->
<g id="edge48" class="edge"><title>Node16&#45;&gt;Node5</title>
<path fill="none" stroke="midnightblue" d="M2209.81,-59.7011C2205.19,-59.0939 2200.61,-58.5189 2196.16,-58 2004.09,-35.5756 1772.43,-18.8678 1688.5,-13.1479"/>
<polygon fill="midnightblue" stroke="midnightblue" points="1688.54,-9.64296 1678.33,-12.4596 1688.07,-16.627 1688.54,-9.64296"/>
</g>
<!-- Node16&#45;&gt;Node6 -->
<g id="edge46" class="edge"><title>Node16&#45;&gt;Node6</title>
<path fill="none" stroke="midnightblue" d="M2210.09,-62.2578C2194.78,-60.7113 2178.38,-59.1777 2163.16,-58 1828.04,-32.07 1420.56,-16.223 1306.89,-12.0868"/>
<polygon fill="midnightblue" stroke="midnightblue" points="1306.93,-8.58642 1296.81,-11.7232 1306.68,-15.5819 1306.93,-8.58642"/>
</g>
<!-- Node16&#45;&gt;Node7 -->
<g id="edge50" class="edge"><title>Node16&#45;&gt;Node7</title>
<path fill="none" stroke="midnightblue" d="M2332.51,-59.6277C2337.12,-59.0375 2341.71,-58.4863 2346.16,-58 2579.47,-32.4901 2861.47,-17.4615 2960.06,-12.6781"/>
<polygon fill="midnightblue" stroke="midnightblue" points="2960.27,-16.1719 2970.09,-12.196 2959.94,-9.17998 2960.27,-16.1719"/>
</g>
<!-- Node17 -->
<g id="node43" class="node"><title>Node17</title>
<polygon fill="white" stroke="#bfbfbf" points="2243.16,-0.5 2243.16,-21.5 2299.16,-21.5 2299.16,-0.5 2243.16,-0.5"/>
<text text-anchor="middle" x="2271.16" y="-8.5" font-family="Helvetica,sans-Serif" font-size="10.00">algorithm</text>
</g>
<!-- Node16&#45;&gt;Node17 -->
<g id="edge52" class="edge"><title>Node16&#45;&gt;Node17</title>
<path fill="none" stroke="midnightblue" d="M2271.16,-58.3619C2271.16,-50.9219 2271.16,-40.7427 2271.16,-31.7276"/>
<polygon fill="midnightblue" stroke="midnightblue" points="2274.66,-31.5706 2271.16,-21.5707 2267.66,-31.5707 2274.66,-31.5706"/>
</g>
<!-- Node18 -->
<g id="node45" class="node"><title>Node18</title>
<a xlink:href="../../d9/d91/ParObserver_8hpp.xhtml" target="_top" xlink:title="For the use in the function tree, the observer pattern is used.">
<polygon fill="white" stroke="black" points="2364.16,-0.5 2364.16,-21.5 2478.16,-21.5 2478.16,-0.5 2364.16,-0.5"/>
<text text-anchor="middle" x="2421.16" y="-8.5" font-family="Helvetica,sans-Serif" font-size="10.00">Core/ParObserver.hpp</text>
</a>
</g>
<!-- Node16&#45;&gt;Node18 -->
<g id="edge54" class="edge"><title>Node16&#45;&gt;Node18</title>
<path fill="none" stroke="midnightblue" d="M2298.33,-58.4966C2322.46,-49.1639 2357.94,-35.4447 2384.57,-25.1475"/>
<polygon fill="midnightblue" stroke="midnightblue" points="2385.88,-28.394 2393.95,-21.5231 2383.36,-21.8651 2385.88,-28.394"/>
</g>
<!-- Node19&#45;&gt;Node6 -->
<g id="edge60" class="edge"><title>Node19&#45;&gt;Node6</title>
<path fill="none" stroke="midnightblue" d="M2045.92,-59.1353C2042.96,-58.7204 2040.03,-58.3378 2037.16,-58 1754.66,-24.7178 1410.2,-14.1935 1306.87,-11.6719"/>
<polygon fill="midnightblue" stroke="midnightblue" points="1306.9,-8.17167 1296.82,-11.4336 1306.73,-15.1697 1306.9,-8.17167"/>
</g>
<!-- Node20 -->
<g id="node49" class="node"><title>Node20</title>
<polygon fill="white" stroke="#bfbfbf" points="2070.66,-0.5 2070.66,-21.5 2129.66,-21.5 2129.66,-0.5 2070.66,-0.5"/>
<text text-anchor="middle" x="2100.16" y="-8.5" font-family="Helvetica,sans-Serif" font-size="10.00">exception</text>
</g>
<!-- Node19&#45;&gt;Node20 -->
<g id="edge58" class="edge"><title>Node19&#45;&gt;Node20</title>
<path fill="none" stroke="midnightblue" d="M2100.16,-58.3619C2100.16,-50.9219 2100.16,-40.7427 2100.16,-31.7276"/>
<polygon fill="midnightblue" stroke="midnightblue" points="2103.66,-31.5706 2100.16,-21.5707 2096.66,-31.5707 2103.66,-31.5706"/>
</g>
<!-- Node21&#45;&gt;Node5 -->
<g id="edge64" class="edge"><title>Node21&#45;&gt;Node5</title>
<path fill="none" stroke="midnightblue" d="M923.096,-237.553C1029.79,-230.753 1191.31,-217.345 1249.16,-196 1351.51,-158.237 1352.18,-101.661 1452.16,-58 1509.77,-32.8446 1582.64,-20.2272 1623.87,-14.6879"/>
<polygon fill="midnightblue" stroke="midnightblue" points="1624.41,-18.1469 1633.88,-13.3986 1623.52,-11.2041 1624.41,-18.1469"/>
</g>
<!-- Node21&#45;&gt;Node6 -->
<g id="edge70" class="edge"><title>Node21&#45;&gt;Node6</title>
<path fill="none" stroke="midnightblue" d="M723.458,-240.114C591.837,-235.258 373.779,-223.179 349.162,-196 342.598,-188.753 343.553,-182.009 349.162,-174 435.71,-50.435 520.71,-89.885 668.162,-58 780.21,-33.7708 1137.79,-16.9004 1245.3,-12.2775"/>
<polygon fill="midnightblue" stroke="midnightblue" points="1245.63,-15.7668 1255.47,-11.8448 1245.33,-8.77309 1245.63,-15.7668"/>
</g>
<!-- Node21&#45;&gt;Node7 -->
<g id="edge68" class="edge"><title>Node21&#45;&gt;Node7</title>
<path fill="none" stroke="midnightblue" d="M922.731,-236.029C1123.14,-221.542 1589.34,-185.53 1979.16,-138 2212.15,-109.593 2268.24,-86.8825 2501.16,-58 2672.48,-36.7562 2878.21,-20.0212 2960.04,-13.7147"/>
<polygon fill="midnightblue" stroke="midnightblue" points="2960.37,-17.1998 2970.07,-12.946 2959.84,-10.2203 2960.37,-17.1998"/>
</g>
<!-- Node21&#45;&gt;Node10 -->
<g id="edge92" class="edge"><title>Node21&#45;&gt;Node10</title>
<path fill="none" stroke="midnightblue" d="M723.255,-239.532C620.406,-234.612 455.903,-222.977 316.162,-196 315.076,-195.79 313.977,-195.562 312.87,-195.318"/>
<polygon fill="midnightblue" stroke="midnightblue" points="313.428,-191.85 302.876,-192.798 311.716,-198.637 313.428,-191.85"/>
</g>
<!-- Node21&#45;&gt;Node11 -->
<g id="edge82" class="edge"><title>Node21&#45;&gt;Node11</title>
<path fill="none" stroke="midnightblue" d="M891.256,-232.425C926.511,-225.238 969.516,-213.733 1005.16,-196 1031.86,-182.718 1058.06,-160.294 1074.61,-144.626"/>
<polygon fill="midnightblue" stroke="midnightblue" points="1077.18,-147.017 1081.93,-137.547 1072.31,-141.988 1077.18,-147.017"/>
</g>
<!-- Node22 -->
<g id="node55" class="node"><title>Node22</title>
<polygon fill="white" stroke="#bfbfbf" points="2367.66,-116.5 2367.66,-137.5 2402.66,-137.5 2402.66,-116.5 2367.66,-116.5"/>
<text text-anchor="middle" x="2385.16" y="-124.5" font-family="Helvetica,sans-Serif" font-size="10.00">map</text>
</g>
<!-- Node21&#45;&gt;Node22 -->
<g id="edge66" class="edge"><title>Node21&#45;&gt;Node22</title>
<path fill="none" stroke="midnightblue" d="M922.95,-235.589C1235.1,-212.408 2182.57,-142.046 2357.3,-129.069"/>
<polygon fill="midnightblue" stroke="midnightblue" points="2357.75,-132.545 2367.46,-128.314 2357.23,-125.565 2357.75,-132.545"/>
</g>
<!-- Node23 -->
<g id="node59" class="node"><title>Node23</title>
<polygon fill="white" stroke="#bfbfbf" points="694.162,-174.5 694.162,-195.5 734.162,-195.5 734.162,-174.5 694.162,-174.5"/>
<text text-anchor="middle" x="714.162" y="-182.5" font-family="Helvetica,sans-Serif" font-size="10.00">utility</text>
</g>
<!-- Node21&#45;&gt;Node23 -->
<g id="edge72" class="edge"><title>Node21&#45;&gt;Node23</title>
<path fill="none" stroke="midnightblue" d="M803.423,-232.497C786.552,-223.519 762.054,-210.484 742.988,-200.339"/>
<polygon fill="midnightblue" stroke="midnightblue" points="744.595,-197.229 734.123,-195.621 741.307,-203.409 744.595,-197.229"/>
</g>
<!-- Node24 -->
<g id="node61" class="node"><title>Node24</title>
<a xlink:href="../../d2/d4b/Data_8hpp.xhtml" target="_top" xlink:title="This class provides the interface to experimental data.">
<polygon fill="white" stroke="black" points="1128.16,-174.5 1128.16,-195.5 1240.16,-195.5 1240.16,-174.5 1128.16,-174.5"/>
<text text-anchor="middle" x="1184.16" y="-182.5" font-family="Helvetica,sans-Serif" font-size="10.00">DataReader/Data.hpp</text>
</a>
</g>
<!-- Node21&#45;&gt;Node24 -->
<g id="edge74" class="edge"><title>Node21&#45;&gt;Node24</title>
<path fill="none" stroke="midnightblue" d="M888.537,-232.497C953.532,-222.054 1052.71,-206.12 1117.98,-195.632"/>
<polygon fill="midnightblue" stroke="midnightblue" points="1118.84,-199.04 1128.16,-193.998 1117.73,-192.128 1118.84,-199.04"/>
</g>
<!-- Node25 -->
<g id="node67" class="node"><title>Node25</title>
<polygon fill="white" stroke="#bfbfbf" points="751.662,-174.5 751.662,-195.5 804.662,-195.5 804.662,-174.5 751.662,-174.5"/>
<text text-anchor="middle" x="778.162" y="-182.5" font-family="Helvetica,sans-Serif" font-size="10.00">TMath.h</text>
</g>
<!-- Node21&#45;&gt;Node25 -->
<g id="edge84" class="edge"><title>Node21&#45;&gt;Node25</title>
<path fill="none" stroke="midnightblue" d="M814.908,-232.362C808.692,-224.35 800.011,-213.161 792.647,-203.67"/>
<polygon fill="midnightblue" stroke="midnightblue" points="795.259,-201.326 786.364,-195.571 789.728,-205.617 795.259,-201.326"/>
</g>
<!-- Node26 -->
<g id="node69" class="node"><title>Node26</title>
<polygon fill="white" stroke="#bfbfbf" points="822.162,-174.5 822.162,-195.5 914.162,-195.5 914.162,-174.5 822.162,-174.5"/>
<text text-anchor="middle" x="868.162" y="-182.5" font-family="Helvetica,sans-Serif" font-size="10.00">TLorentzVector.h</text>
</g>
<!-- Node21&#45;&gt;Node26 -->
<g id="edge86" class="edge"><title>Node21&#45;&gt;Node26</title>
<path fill="none" stroke="midnightblue" d="M831.416,-232.362C837.632,-224.35 846.314,-213.161 853.677,-203.67"/>
<polygon fill="midnightblue" stroke="midnightblue" points="856.596,-205.617 859.961,-195.571 851.066,-201.326 856.596,-205.617"/>
</g>
<!-- Node27 -->
<g id="node71" class="node"><title>Node27</title>
<polygon fill="white" stroke="#bfbfbf" points="932.162,-174.5 932.162,-195.5 996.162,-195.5 996.162,-174.5 932.162,-174.5"/>
<text text-anchor="middle" x="964.162" y="-182.5" font-family="Helvetica,sans-Serif" font-size="10.00">TParticle.h</text>
</g>
<!-- Node21&#45;&gt;Node27 -->
<g id="edge88" class="edge"><title>Node21&#45;&gt;Node27</title>
<path fill="none" stroke="midnightblue" d="M848.696,-232.497C871.115,-223.275 903.947,-209.769 928.875,-199.515"/>
<polygon fill="midnightblue" stroke="midnightblue" points="930.425,-202.662 938.342,-195.621 927.762,-196.189 930.425,-202.662"/>
</g>
<!-- Node28 -->
<g id="node73" class="node"><title>Node28</title>
<polygon fill="white" stroke="#bfbfbf" points="357.662,-174.5 357.662,-195.5 416.662,-195.5 416.662,-174.5 357.662,-174.5"/>
<text text-anchor="middle" x="387.162" y="-182.5" font-family="Helvetica,sans-Serif" font-size="10.00">TROOT.h</text>
</g>
<!-- Node21&#45;&gt;Node28 -->
<g id="edge90" class="edge"><title>Node21&#45;&gt;Node28</title>
<path fill="none" stroke="midnightblue" d="M723.491,-235.797C645.002,-229.066 532.789,-217.106 426.823,-196.108"/>
<polygon fill="midnightblue" stroke="midnightblue" points="427.412,-192.656 416.918,-194.115 426.031,-199.519 427.412,-192.656"/>
</g>
<!-- Node29 -->
<g id="node76" class="node"><title>Node29</title>
<polygon fill="white" stroke="#bfbfbf" points="433.662,-174.5 433.662,-195.5 518.662,-195.5 518.662,-174.5 433.662,-174.5"/>
<text text-anchor="middle" x="476.162" y="-182.5" font-family="Helvetica,sans-Serif" font-size="10.00">TClonesArray.h</text>
</g>
<!-- Node21&#45;&gt;Node29 -->
<g id="edge94" class="edge"><title>Node21&#45;&gt;Node29</title>
<path fill="none" stroke="midnightblue" d="M749.679,-232.479C692.011,-223.958 609.48,-211.183 528.562,-196.197"/>
<polygon fill="midnightblue" stroke="midnightblue" points="529.176,-192.751 518.704,-194.359 527.892,-199.633 529.176,-192.751"/>
</g>
<!-- Node30 -->
<g id="node78" class="node"><title>Node30</title>
<polygon fill="white" stroke="#bfbfbf" points="536.162,-174.5 536.162,-195.5 586.162,-195.5 586.162,-174.5 536.162,-174.5"/>
<text text-anchor="middle" x="561.162" y="-182.5" font-family="Helvetica,sans-Serif" font-size="10.00">TTree.h</text>
</g>
<!-- Node21&#45;&gt;Node30 -->
<g id="edge96" class="edge"><title>Node21&#45;&gt;Node30</title>
<path fill="none" stroke="midnightblue" d="M762.738,-232.413C718.886,-224.303 657.997,-212.165 596.239,-196.093"/>
<polygon fill="midnightblue" stroke="midnightblue" points="596.884,-192.643 586.322,-193.48 595.1,-199.412 596.884,-192.643"/>
</g>
<!-- Node31 -->
<g id="node80" class="node"><title>Node31</title>
<polygon fill="white" stroke="#bfbfbf" points="603.662,-174.5 603.662,-195.5 676.662,-195.5 676.662,-174.5 603.662,-174.5"/>
<text text-anchor="middle" x="640.162" y="-182.5" font-family="Helvetica,sans-Serif" font-size="10.00">TRandom3.h</text>
</g>
<!-- Node21&#45;&gt;Node31 -->
<g id="edge98" class="edge"><title>Node21&#45;&gt;Node31</title>
<path fill="none" stroke="midnightblue" d="M790.022,-232.497C760.059,-223 715.766,-208.962 683.1,-198.609"/>
<polygon fill="midnightblue" stroke="midnightblue" points="683.954,-195.208 673.364,-195.523 681.839,-201.881 683.954,-195.208"/>
</g>
<!-- Node24&#45;&gt;Node5 -->
<g id="edge76" class="edge"><title>Node24&#45;&gt;Node5</title>
<path fill="none" stroke="midnightblue" d="M1199.25,-174.447C1234.88,-150.033 1327.77,-89.358 1414.16,-58 1486.54,-31.7318 1576.69,-19.1727 1623.9,-14.027"/>
<polygon fill="midnightblue" stroke="midnightblue" points="1624.27,-17.5078 1633.85,-12.984 1623.54,-10.5459 1624.27,-17.5078"/>
</g>
<!-- Node24&#45;&gt;Node6 -->
<g id="edge78" class="edge"><title>Node24&#45;&gt;Node6</title>
<path fill="none" stroke="midnightblue" d="M1180.99,-174.47C1174.7,-151.374 1163.13,-95.35 1186.16,-58 1199.2,-36.8547 1225.16,-24.7466 1245.87,-18.1341"/>
<polygon fill="midnightblue" stroke="midnightblue" points="1246.91,-21.4761 1255.53,-15.3139 1244.95,-14.7565 1246.91,-21.4761"/>
</g>
<!-- Node24&#45;&gt;Node11 -->
<g id="edge80" class="edge"><title>Node24&#45;&gt;Node11</title>
<path fill="none" stroke="midnightblue" d="M1167.29,-174.362C1153.41,-165.614 1133.53,-153.079 1117.7,-143.101"/>
<polygon fill="midnightblue" stroke="midnightblue" points="1119.26,-139.943 1108.93,-137.571 1115.52,-145.864 1119.26,-139.943"/>
</g>
<!-- Node32&#45;&gt;Node5 -->
<g id="edge102" class="edge"><title>Node32&#45;&gt;Node5</title>
<path fill="none" stroke="midnightblue" d="M1949.06,-464.474C1827.42,-434.17 1496.16,-342.508 1496.16,-243 1496.16,-243 1496.16,-243 1496.16,-185 1496.16,-109.365 1579.09,-52.4496 1625.54,-26.5018"/>
<polygon fill="midnightblue" stroke="midnightblue" points="1627.47,-29.4365 1634.58,-21.5839 1624.13,-23.2872 1627.47,-29.4365"/>
</g>
<!-- Node32&#45;&gt;Node7 -->
<g id="edge104" class="edge"><title>Node32&#45;&gt;Node7</title>
<path fill="none" stroke="midnightblue" d="M2083.11,-474.375C2361.91,-472.078 3195.71,-462.356 3242.16,-428 3268.27,-408.692 3266.16,-391.469 3266.16,-359 3266.16,-359 3266.16,-359 3266.16,-127 3266.16,-94.5312 3266.73,-79.2238 3242.16,-58 3211.28,-31.3219 3093.4,-18.4964 3032.73,-13.5531"/>
<polygon fill="midnightblue" stroke="midnightblue" points="3032.69,-10.0396 3022.45,-12.7466 3032.14,-17.0181 3032.69,-10.0396"/>
</g>
<!-- Node33 -->
<g id="node86" class="node"><title>Node33</title>
<a xlink:href="../../dc/de3/Amplitude_8hpp.xhtml" target="_top" xlink:title="This class provides the interface to the model which tries to describe the intensity.">
<polygon fill="white" stroke="black" points="1934.66,-406.5 1934.66,-427.5 2051.66,-427.5 2051.66,-406.5 1934.66,-406.5"/>
<text text-anchor="middle" x="1993.16" y="-414.5" font-family="Helvetica,sans-Serif" font-size="10.00">Physics/Amplitude.hpp</text>
</a>
</g>
<!-- Node32&#45;&gt;Node33 -->
<g id="edge106" class="edge"><title>Node32&#45;&gt;Node33</title>
<path fill="none" stroke="midnightblue" d="M1993.16,-464.362C1993.16,-456.922 1993.16,-446.743 1993.16,-437.728"/>
<polygon fill="midnightblue" stroke="midnightblue" points="1996.66,-437.571 1993.16,-427.571 1989.66,-437.571 1996.66,-437.571"/>
</g>
<!-- Node34 -->
<g id="node90" class="node"><title>Node34</title>
<a xlink:href="../../df/d9f/ParameterList_8hpp.xhtml" target="_top" xlink:title="This class provides a list of fit parameters which can have different types.">
<polygon fill="white" stroke="black" points="2132.16,-174.5 2132.16,-195.5 2252.16,-195.5 2252.16,-174.5 2132.16,-174.5"/>
<text text-anchor="middle" x="2192.16" y="-182.5" font-family="Helvetica,sans-Serif" font-size="10.00">Core/ParameterList.hpp</text>
</a>
</g>
<!-- Node32&#45;&gt;Node34 -->
<g id="edge186" class="edge"><title>Node32&#45;&gt;Node34</title>
<path fill="none" stroke="midnightblue" d="M2036.68,-464.427C2101.5,-446.024 2220.95,-401.231 2269.16,-312 2291.01,-271.565 2245.11,-225.87 2215.2,-201.841"/>
<polygon fill="midnightblue" stroke="midnightblue" points="2217.31,-199.042 2207.27,-195.661 2213.01,-204.565 2217.31,-199.042"/>
</g>
<!-- Node33&#45;&gt;Node5 -->
<g id="edge108" class="edge"><title>Node33&#45;&gt;Node5</title>
<path fill="none" stroke="midnightblue" d="M1976.72,-406.408C1962.87,-397.26 1942.71,-383.433 1926.16,-370 1795.83,-264.196 1763.27,-228.062 1684.16,-80 1675.71,-64.1898 1668.2,-45.2643 1663.09,-31.2362"/>
<polygon fill="midnightblue" stroke="midnightblue" points="1666.32,-29.8528 1659.68,-21.5962 1659.72,-32.1909 1666.32,-29.8528"/>
</g>
<!-- Node33&#45;&gt;Node7 -->
<g id="edge110" class="edge"><title>Node33&#45;&gt;Node7</title>
<path fill="none" stroke="midnightblue" d="M2051.71,-414.434C2292.03,-403.523 3190.16,-358.873 3190.16,-301 3190.16,-301 3190.16,-301 3190.16,-127 3190.16,-91.5529 3177.93,-80.035 3150.16,-58 3115.98,-30.8739 3066.22,-19.3536 3032.59,-14.4932"/>
<polygon fill="midnightblue" stroke="midnightblue" points="3032.65,-10.9711 3022.28,-13.1379 3031.74,-17.9114 3032.65,-10.9711"/>
</g>
<!-- Node33&#45;&gt;Node34 -->
<g id="edge112" class="edge"><title>Node33&#45;&gt;Node34</title>
<path fill="none" stroke="midnightblue" d="M2011.78,-406.338C2025.98,-397.661 2045.54,-384.51 2060.16,-370 2113.67,-316.915 2160.83,-240.036 2181.31,-204.437"/>
<polygon fill="midnightblue" stroke="midnightblue" points="2184.47,-205.968 2186.37,-195.545 2178.38,-202.509 2184.47,-205.968"/>
</g>
<!-- Node35 -->
<g id="node101" class="node"><title>Node35</title>
<a xlink:href="../../da/db2/FunctionTree_8hpp.xhtml" target="_top" xlink:title="This class can be used to store a function in a tree&#45;like structure.">
<polygon fill="white" stroke="black" points="1935.16,-348.5 1935.16,-369.5 2051.16,-369.5 2051.16,-348.5 1935.16,-348.5"/>
<text text-anchor="middle" x="1993.16" y="-356.5" font-family="Helvetica,sans-Serif" font-size="10.00">Core/FunctionTree.hpp</text>
</a>
</g>
<!-- Node33&#45;&gt;Node35 -->
<g id="edge132" class="edge"><title>Node33&#45;&gt;Node35</title>
<path fill="none" stroke="midnightblue" d="M1993.16,-406.362C1993.16,-398.922 1993.16,-388.743 1993.16,-379.728"/>
<polygon fill="midnightblue" stroke="midnightblue" points="1996.66,-379.571 1993.16,-369.571 1989.66,-379.571 1996.66,-379.571"/>
</g>
<!-- Node34&#45;&gt;Node2 -->
<g id="edge114" class="edge"><title>Node34&#45;&gt;Node2</title>
<path fill="none" stroke="midnightblue" d="M2164.53,-174.483C2140.69,-165.27 2105.42,-151.309 2075.16,-138 2035.49,-120.55 1990.57,-98.682 1961.61,-84.2985"/>
<polygon fill="midnightblue" stroke="midnightblue" points="1962.94,-81.0514 1952.43,-79.7248 1959.82,-87.3169 1962.94,-81.0514"/>
</g>
<!-- Node34&#45;&gt;Node4 -->
<g id="edge120" class="edge"><title>Node34&#45;&gt;Node4</title>
<path fill="none" stroke="midnightblue" d="M2174.63,-174.295C2141.03,-153.785 2067.45,-108.859 2028.14,-84.8575"/>
<polygon fill="midnightblue" stroke="midnightblue" points="2029.74,-81.7353 2019.38,-79.5117 2026.09,-87.7098 2029.74,-81.7353"/>
</g>
<!-- Node34&#45;&gt;Node5 -->
<g id="edge122" class="edge"><title>Node34&#45;&gt;Node5</title>
<path fill="none" stroke="midnightblue" d="M2193.42,-174.45C2195.72,-149.772 2197.53,-88.102 2163.16,-58 2127.44,-26.7114 1794.51,-14.8353 1688.45,-11.8268"/>
<polygon fill="midnightblue" stroke="midnightblue" points="1688.44,-8.32529 1678.35,-11.5478 1688.25,-15.3226 1688.44,-8.32529"/>
</g>
<!-- Node34&#45;&gt;Node6 -->
<g id="edge116" class="edge"><title>Node34&#45;&gt;Node6</title>
<path fill="none" stroke="midnightblue" d="M2132.03,-177.959C2064.82,-169.764 1952.84,-155.143 1857.16,-138 1645.21,-100.023 1393.01,-39.6371 1306.8,-18.5573"/>
<polygon fill="midnightblue" stroke="midnightblue" points="1307.44,-15.1107 1296.89,-16.1293 1305.77,-21.9094 1307.44,-15.1107"/>
</g>
<!-- Node34&#45;&gt;Node7 -->
<g id="edge118" class="edge"><title>Node34&#45;&gt;Node7</title>
<path fill="none" stroke="midnightblue" d="M2213.51,-174.439C2244.76,-159.386 2305.12,-131.833 2359.16,-116 2582.03,-50.7026 2861.42,-22.3211 2959.84,-13.8735"/>
<polygon fill="midnightblue" stroke="midnightblue" points="2960.2,-17.356 2969.87,-13.0286 2959.61,-10.3807 2960.2,-17.356"/>
</g>
<!-- Node34&#45;&gt;Node14 -->
<g id="edge128" class="edge"><title>Node34&#45;&gt;Node14</title>
<path fill="none" stroke="midnightblue" d="M2142.54,-174.497C2096.23,-164.693 2027.05,-150.05 1977.76,-139.616"/>
<polygon fill="midnightblue" stroke="midnightblue" points="1978.38,-136.17 1967.87,-137.523 1976.93,-143.018 1978.38,-136.17"/>
</g>
<!-- Node34&#45;&gt;Node16 -->
<g id="edge126" class="edge"><title>Node34&#45;&gt;Node16</title>
<path fill="none" stroke="midnightblue" d="M2205.74,-174.16C2216.18,-165.289 2230.42,-151.966 2240.16,-138 2250.68,-122.919 2258.97,-103.694 2264.32,-89.3695"/>
<polygon fill="midnightblue" stroke="midnightblue" points="2267.62,-90.529 2267.68,-79.9343 2261.03,-88.1772 2267.62,-90.529"/>
</g>
<!-- Node34&#45;&gt;Node19 -->
<g id="edge130" class="edge"><title>Node34&#45;&gt;Node19</title>
<path fill="none" stroke="midnightblue" d="M2183.67,-174.295C2167.99,-154.527 2134.33,-112.08 2114.87,-87.5443"/>
<polygon fill="midnightblue" stroke="midnightblue" points="2117.59,-85.3393 2108.63,-79.6792 2112.1,-89.6891 2117.59,-85.3393"/>
</g>
<!-- Node34&#45;&gt;Node22 -->
<g id="edge124" class="edge"><title>Node34&#45;&gt;Node22</title>
<path fill="none" stroke="midnightblue" d="M2230.98,-174.427C2263.92,-165.291 2312.35,-151.47 2354.16,-138 2355.39,-137.606 2356.63,-137.196 2357.89,-136.777"/>
<polygon fill="midnightblue" stroke="midnightblue" points="2359.2,-140.027 2367.52,-133.462 2356.92,-133.408 2359.2,-140.027"/>
</g>
<!-- Node35&#45;&gt;Node5 -->
<g id="edge134" class="edge"><title>Node35&#45;&gt;Node5</title>
<path fill="none" stroke="midnightblue" d="M1951.49,-348.427C1871.84,-325.656 1700.05,-263.567 1634.16,-138 1615.99,-103.365 1632.89,-56.8179 1645.44,-30.7735"/>
<polygon fill="midnightblue" stroke="midnightblue" points="1648.71,-32.0627 1650.12,-21.5615 1642.47,-28.8943 1648.71,-32.0627"/>
</g>
<!-- Node35&#45;&gt;Node6 -->
<g id="edge138" class="edge"><title>Node35&#45;&gt;Node6</title>
<path fill="none" stroke="midnightblue" d="M1935.03,-355.919C1822.75,-347.347 1572.5,-315.237 1406.16,-196 1344.63,-151.89 1302.03,-69.2391 1284.75,-31.1564"/>
<polygon fill="midnightblue" stroke="midnightblue" points="1287.8,-29.3978 1280.56,-21.666 1281.4,-32.2274 1287.8,-29.3978"/>
</g>
<!-- Node35&#45;&gt;Node7 -->
<g id="edge136" class="edge"><title>Node35&#45;&gt;Node7</title>
<path fill="none" stroke="midnightblue" d="M2051.39,-356.886C2210.56,-350.9 2650.63,-332.904 2794.16,-312 2945.58,-289.948 3114.16,-338.014 3114.16,-185 3114.16,-185 3114.16,-185 3114.16,-127 3114.16,-79.1371 3064.18,-44.4404 3029.28,-26.0456"/>
<polygon fill="midnightblue" stroke="midnightblue" points="3030.83,-22.9084 3020.33,-21.507 3027.66,-29.1515 3030.83,-22.9084"/>
</g>
<!-- Node35&#45;&gt;Node14 -->
<g id="edge176" class="edge"><title>Node35&#45;&gt;Node14</title>
<path fill="none" stroke="midnightblue" d="M1973.79,-348.377C1959.3,-339.815 1939.59,-326.793 1925.16,-312 1903.64,-289.94 1895.97,-283.531 1887.16,-254 1882.1,-237.046 1888.76,-188.439 1893.16,-174 1896.07,-164.469 1900.96,-154.63 1905.65,-146.432"/>
<polygon fill="midnightblue" stroke="midnightblue" points="1908.76,-148.051 1910.93,-137.681 1902.77,-144.434 1908.76,-148.051"/>
</g>
<!-- Node35&#45;&gt;Node16 -->
<g id="edge174" class="edge"><title>Node35&#45;&gt;Node16</title>
<path fill="none" stroke="midnightblue" d="M2051.2,-357.113C2217.22,-351.476 2686.32,-333.797 2752.16,-312 2796.98,-297.162 2818.67,-295.51 2841.16,-254 2891.32,-161.436 2505.92,-99.6029 2342.29,-77.7638"/>
<polygon fill="midnightblue" stroke="midnightblue" points="2342.68,-74.2853 2332.31,-76.4448 2341.76,-81.225 2342.68,-74.2853"/>
</g>
<!-- Node35&#45;&gt;Node22 -->
<g id="edge140" class="edge"><title>Node35&#45;&gt;Node22</title>
<path fill="none" stroke="midnightblue" d="M2015.16,-348.362C2052.42,-330.145 2130.03,-291.321 2193.16,-254 2255.64,-217.063 2326.1,-168.618 2361.77,-143.583"/>
<polygon fill="midnightblue" stroke="midnightblue" points="2363.91,-146.362 2370.07,-137.743 2359.88,-140.638 2363.91,-146.362"/>
</g>
<!-- Node36 -->
<g id="node107" class="node"><title>Node36</title>
<a xlink:href="../../dc/d66/Functions_8hpp.xhtml" target="_top" xlink:title="This file contains Functions implementing the Strategy interface so they can be used inside a node of...">
<polygon fill="white" stroke="black" points="1904.16,-232.5 1904.16,-253.5 2006.16,-253.5 2006.16,-232.5 1904.16,-232.5"/>
<text text-anchor="middle" x="1955.16" y="-240.5" font-family="Helvetica,sans-Serif" font-size="10.00">Core/Functions.hpp</text>
</a>
</g>
<!-- Node35&#45;&gt;Node36 -->
<g id="edge142" class="edge"><title>Node35&#45;&gt;Node36</title>
<path fill="none" stroke="midnightblue" d="M1971.16,-348.365C1957.48,-340.433 1941.04,-328.179 1933.16,-312 1925.31,-295.865 1933.05,-276.272 1941.44,-262.094"/>
<polygon fill="midnightblue" stroke="midnightblue" points="1944.41,-263.949 1946.89,-253.649 1938.53,-260.153 1944.41,-263.949"/>
</g>
<!-- Node37 -->
<g id="node115" class="node"><title>Node37</title>
<a xlink:href="../../df/d5a/TreeNode_8hpp.xhtml" target="_top" xlink:title="This class acts as a container for a parameter in a function tree.">
<polygon fill="white" stroke="black" points="1942.16,-290.5 1942.16,-311.5 2044.16,-311.5 2044.16,-290.5 1942.16,-290.5"/>
<text text-anchor="middle" x="1993.16" y="-298.5" font-family="Helvetica,sans-Serif" font-size="10.00">Core/TreeNode.hpp</text>
</a>
</g>
<!-- Node35&#45;&gt;Node37 -->
<g id="edge156" class="edge"><title>Node35&#45;&gt;Node37</title>
<path fill="none" stroke="midnightblue" d="M1993.16,-348.362C1993.16,-340.922 1993.16,-330.743 1993.16,-321.728"/>
<polygon fill="midnightblue" stroke="midnightblue" points="1996.66,-321.571 1993.16,-311.571 1989.66,-321.571 1996.66,-321.571"/>
</g>
<!-- Node38 -->
<g id="node127" class="node"><title>Node38</title>
<a xlink:href="../../de/d1f/ControlParameter_8hpp.xhtml" target="_top" xlink:title="This class provides the interface for the optimizer module to access the data.">
<polygon fill="white" stroke="black" points="2441.66,-232.5 2441.66,-253.5 2598.66,-253.5 2598.66,-232.5 2441.66,-232.5"/>
<text text-anchor="middle" x="2520.16" y="-240.5" font-family="Helvetica,sans-Serif" font-size="10.00">Optimizer/ControlParameter.hpp</text>
</a>
</g>
<!-- Node35&#45;&gt;Node38 -->
<g id="edge178" class="edge"><title>Node35&#45;&gt;Node38</title>
<path fill="none" stroke="midnightblue" d="M2051.37,-350.81C2107.46,-342.514 2194.55,-328.566 2269.16,-312 2342.43,-295.734 2426.26,-271.537 2476.12,-256.543"/>
<polygon fill="midnightblue" stroke="midnightblue" points="2477.36,-259.823 2485.92,-253.581 2475.34,-253.122 2477.36,-259.823"/>
</g>
<!-- Node36&#45;&gt;Node5 -->
<g id="edge144" class="edge"><title>Node36&#45;&gt;Node5</title>
<path fill="none" stroke="midnightblue" d="M1943.04,-232.344C1923.16,-214.403 1883.24,-176.352 1857.16,-138 1835.03,-105.45 1849.17,-83.4796 1819.16,-58 1799.4,-41.2162 1729.71,-25.2858 1688.12,-16.9749"/>
<polygon fill="midnightblue" stroke="midnightblue" points="1688.69,-13.5194 1678.2,-15.0302 1687.34,-20.3887 1688.69,-13.5194"/>
</g>
<!-- Node36&#45;&gt;Node13 -->
<g id="edge146" class="edge"><title>Node36&#45;&gt;Node13</title>
<path fill="none" stroke="midnightblue" d="M1903.89,-241.433C1746.5,-236.414 1271.7,-219.671 1119.16,-196 1016.9,-180.131 767.853,-107.762 668.162,-80 597.93,-60.4415 516.322,-35.4057 471.654,-21.5029"/>
<polygon fill="midnightblue" stroke="midnightblue" points="472.5,-18.1004 461.911,-18.4645 470.416,-24.783 472.5,-18.1004"/>
</g>
<!-- Node36&#45;&gt;Node14 -->
<g id="edge152" class="edge"><title>Node36&#45;&gt;Node14</title>
<path fill="none" stroke="midnightblue" d="M1972.02,-232.378C1990.81,-219.137 2016.98,-195.609 2004.16,-174 1995.47,-159.336 1980.4,-148.95 1965.29,-141.741"/>
<polygon fill="midnightblue" stroke="midnightblue" points="1966.49,-138.448 1955.92,-137.653 1963.69,-144.862 1966.49,-138.448"/>
</g>
<!-- Node36&#45;&gt;Node16 -->
<g id="edge154" class="edge"><title>Node36&#45;&gt;Node16</title>
<path fill="none" stroke="midnightblue" d="M1974.64,-232.384C1992.08,-222.874 2018.35,-208.534 2041.16,-196 2114.16,-155.898 2200.04,-108.389 2243.29,-84.4435"/>
<polygon fill="midnightblue" stroke="midnightblue" points="2245.04,-87.4719 2252.09,-79.5652 2241.65,-81.3482 2245.04,-87.4719"/>
</g>
<!-- Node36&#45;&gt;Node19 -->
<g id="edge148" class="edge"><title>Node36&#45;&gt;Node19</title>
<path fill="none" stroke="midnightblue" d="M1973.12,-232.383C1986.78,-223.731 2005.5,-210.591 2019.16,-196 2050.54,-162.485 2076.98,-115.206 2090.49,-88.8063"/>
<polygon fill="midnightblue" stroke="midnightblue" points="2093.66,-90.2901 2095.02,-79.7827 2087.41,-87.1497 2093.66,-90.2901"/>
</g>
<!-- Node36&#45;&gt;Node34 -->
<g id="edge150" class="edge"><title>Node36&#45;&gt;Node34</title>
<path fill="none" stroke="midnightblue" d="M1998.08,-232.497C2037.72,-222.795 2096.73,-208.355 2139.27,-197.945"/>
<polygon fill="midnightblue" stroke="midnightblue" points="2140.28,-201.3 2149.16,-195.523 2138.62,-194.501 2140.28,-201.3"/>
</g>
<!-- Node37&#45;&gt;Node6 -->
<g id="edge158" class="edge"><title>Node37&#45;&gt;Node6</title>
<path fill="none" stroke="midnightblue" d="M1941.92,-290.531C1903.13,-282.092 1848.76,-269.16 1802.16,-254 1607.68,-190.729 1556.05,-177.31 1376.16,-80 1347.56,-64.5261 1317.13,-42.6623 1297.46,-27.7186"/>
<polygon fill="midnightblue" stroke="midnightblue" points="1299.53,-24.8989 1289.47,-21.5822 1295.27,-30.4499 1299.53,-24.8989"/>
</g>
<!-- Node37&#45;&gt;Node7 -->
<g id="edge162" class="edge"><title>Node37&#45;&gt;Node7</title>
<path fill="none" stroke="midnightblue" d="M2044.6,-293.223C2095.24,-285.114 2174.59,-271.195 2242.16,-254 2523.32,-182.458 2853.08,-63.8247 2960.45,-24.283"/>
<polygon fill="midnightblue" stroke="midnightblue" points="2961.96,-27.4538 2970.13,-20.7075 2959.54,-20.8869 2961.96,-27.4538"/>
</g>
<!-- Node37&#45;&gt;Node14 -->
<g id="edge170" class="edge"><title>Node37&#45;&gt;Node14</title>
<path fill="none" stroke="midnightblue" d="M1946.73,-290.464C1927.31,-283.516 1906.62,-272.205 1895.16,-254 1884.22,-236.613 1900.75,-178.969 1911.02,-147.664"/>
<polygon fill="midnightblue" stroke="midnightblue" points="1914.46,-148.393 1914.33,-137.799 1907.83,-146.164 1914.46,-148.393"/>
</g>
<!-- Node37&#45;&gt;Node15 -->
<g id="edge160" class="edge"><title>Node37&#45;&gt;Node15</title>
<path fill="none" stroke="midnightblue" d="M1942.13,-292.278C1898.83,-283.919 1841.11,-270.201 1824.16,-254 1778.54,-210.4 1778.86,-128.106 1781.86,-89.7073"/>
<polygon fill="midnightblue" stroke="midnightblue" points="1785.35,-89.979 1782.79,-79.6988 1778.38,-89.3333 1785.35,-89.979"/>
</g>
<!-- Node37&#45;&gt;Node16 -->
<g id="edge168" class="edge"><title>Node37&#45;&gt;Node16</title>
<path fill="none" stroke="midnightblue" d="M2034.74,-290.481C2102.81,-272.362 2233.3,-233.583 2261.16,-196 2284.2,-164.926 2280.43,-117.031 2275.72,-89.8049"/>
<polygon fill="midnightblue" stroke="midnightblue" points="2279.13,-88.9801 2273.79,-79.8263 2272.26,-90.3089 2279.13,-88.9801"/>
</g>
<!-- Node37&#45;&gt;Node18 -->
<g id="edge172" class="edge"><title>Node37&#45;&gt;Node18</title>
<path fill="none" stroke="midnightblue" d="M2044.37,-292.737C2085.43,-285.222 2144.09,-272.466 2193.16,-254 2295.88,-215.347 2351,-229.792 2411.16,-138 2432.27,-105.791 2429.29,-58.6423 2425.23,-31.7784"/>
<polygon fill="midnightblue" stroke="midnightblue" points="2428.62,-30.8753 2423.48,-21.6099 2421.72,-32.0574 2428.62,-30.8753"/>
</g>
<!-- Node37&#45;&gt;Node34 -->
<g id="edge166" class="edge"><title>Node37&#45;&gt;Node34</title>
<path fill="none" stroke="midnightblue" d="M2007.77,-290.296C2027.38,-276.144 2063.53,-250.806 2096.16,-232 2116.56,-220.244 2140.32,-208.596 2159.1,-199.836"/>
<polygon fill="midnightblue" stroke="midnightblue" points="2160.81,-202.902 2168.42,-195.534 2157.88,-196.547 2160.81,-202.902"/>
</g>
<!-- Node37&#45;&gt;Node36 -->
<g id="edge164" class="edge"><title>Node37&#45;&gt;Node36</title>
<path fill="none" stroke="midnightblue" d="M1986.19,-290.362C1981,-282.431 1973.76,-271.389 1967.58,-261.961"/>
<polygon fill="midnightblue" stroke="midnightblue" points="1970.5,-260.017 1962.09,-253.571 1964.64,-263.853 1970.5,-260.017"/>
</g>
<!-- Node38&#45;&gt;Node5 -->
<g id="edge180" class="edge"><title>Node38&#45;&gt;Node5</title>
<path fill="none" stroke="midnightblue" d="M2514.19,-232.085C2494.77,-197.939 2429.56,-93.3277 2341.16,-58 2280.19,-33.6325 1816.77,-16.3948 1688.8,-12.064"/>
<polygon fill="midnightblue" stroke="midnightblue" points="1688.6,-8.55529 1678.49,-11.7184 1688.37,-15.5514 1688.6,-8.55529"/>
</g>
<!-- Node38&#45;&gt;Node7 -->
<g id="edge182" class="edge"><title>Node38&#45;&gt;Node7</title>
<path fill="none" stroke="midnightblue" d="M2555.72,-232.49C2583.52,-223.849 2622.91,-210.673 2656.16,-196 2777.88,-142.295 2914.68,-61.0118 2970.44,-26.9256"/>
<polygon fill="midnightblue" stroke="midnightblue" points="2972.29,-29.8975 2978.98,-21.6845 2968.63,-23.931 2972.29,-29.8975"/>
</g>
<!-- Node38&#45;&gt;Node34 -->
<g id="edge184" class="edge"><title>Node38&#45;&gt;Node34</title>
<path fill="none" stroke="midnightblue" d="M2460.76,-232.497C2404.74,-222.591 2320.78,-207.743 2261.67,-197.291"/>
<polygon fill="midnightblue" stroke="midnightblue" points="2262.13,-193.818 2251.67,-195.523 2260.91,-200.711 2262.13,-193.818"/>
</g>
<!-- Node39&#45;&gt;Node5 -->
<g id="edge190" class="edge"><title>Node39&#45;&gt;Node5</title>
<path fill="none" stroke="midnightblue" d="M1456.64,-464.229C1450.76,-419.546 1432.3,-245.066 1482.16,-116 1494.02,-85.3094 1501.5,-77.2793 1528.16,-58 1557.25,-36.9662 1596.78,-24.3605 1624.19,-17.5781"/>
<polygon fill="midnightblue" stroke="midnightblue" points="1625.12,-20.9553 1634.05,-15.2583 1623.51,-14.1413 1625.12,-20.9553"/>
</g>
<!-- Node39&#45;&gt;Node6 -->
<g id="edge194" class="edge"><title>Node39&#45;&gt;Node6</title>
<path fill="none" stroke="midnightblue" d="M1453.03,-464.216C1431.45,-418.548 1346.7,-236.244 1294.16,-80 1288.81,-64.0741 1284.07,-45.6413 1280.8,-31.8358"/>
<polygon fill="midnightblue" stroke="midnightblue" points="1284.17,-30.8516 1278.51,-21.8924 1277.35,-32.4229 1284.17,-30.8516"/>
</g>
<!-- Node39&#45;&gt;Node7 -->
<g id="edge192" class="edge"><title>Node39&#45;&gt;Node7</title>
<path fill="none" stroke="midnightblue" d="M1540.28,-471.796C1888.84,-457.929 3228.16,-401.861 3228.16,-359 3228.16,-359 3228.16,-359 3228.16,-127 3228.16,-40.6192 3097.91,-18.5604 3032.59,-12.9292"/>
<polygon fill="midnightblue" stroke="midnightblue" points="3032.57,-9.41651 3022.32,-12.1332 3032.02,-16.3956 3032.57,-9.41651"/>
</g>
<!-- Node39&#45;&gt;Node11 -->
<g id="edge210" class="edge"><title>Node39&#45;&gt;Node11</title>
<path fill="none" stroke="midnightblue" d="M1439.16,-464.45C1423.43,-455.436 1400.73,-441.774 1382.16,-428 1256.99,-335.122 1208.51,-323.716 1119.16,-196 1108.82,-181.217 1101.71,-161.922 1097.39,-147.496"/>
<polygon fill="midnightblue" stroke="midnightblue" points="1100.68,-146.263 1094.62,-137.569 1093.93,-148.141 1100.68,-146.263"/>
</g>
<!-- Node39&#45;&gt;Node24 -->
<g id="edge208" class="edge"><title>Node39&#45;&gt;Node24</title>
<path fill="none" stroke="midnightblue" d="M1445.88,-464.49C1435.15,-455.168 1419.28,-441.044 1406.16,-428 1325.05,-347.321 1235.03,-244.211 1199.64,-203.099"/>
<polygon fill="midnightblue" stroke="midnightblue" points="1202.3,-200.819 1193.13,-195.512 1196.99,-205.379 1202.3,-200.819"/>
</g>
<!-- Node39&#45;&gt;Node33 -->
<g id="edge206" class="edge"><title>Node39&#45;&gt;Node33</title>
<path fill="none" stroke="midnightblue" d="M1540.29,-466.096C1645.53,-454.687 1826.07,-435.114 1924.41,-424.453"/>
<polygon fill="midnightblue" stroke="midnightblue" points="1924.98,-427.913 1934.54,-423.355 1924.22,-420.954 1924.98,-427.913"/>
</g>
<!-- Node39&#45;&gt;Node34 -->
<g id="edge212" class="edge"><title>Node39&#45;&gt;Node34</title>
<path fill="none" stroke="midnightblue" d="M1485.86,-464.453C1583.69,-427.134 1912.57,-301.067 2015.16,-254 2034.32,-245.213 2037.83,-240.376 2057.16,-232 2086.74,-219.186 2121.07,-207.274 2147.7,-198.649"/>
<polygon fill="midnightblue" stroke="midnightblue" points="2149.05,-201.892 2157.51,-195.509 2146.91,-195.225 2149.05,-201.892"/>
</g>
<!-- Node40 -->
<g id="node138" class="node"><title>Node40</title>
<a xlink:href="../../d5/d10/Estimator_8hpp.xhtml" target="_top" xlink:title="This class provides the interface to classes which estimate the &quot;closeness&quot; of the modeled intensity ...">
<polygon fill="white" stroke="black" points="2138.16,-290.5 2138.16,-311.5 2260.16,-311.5 2260.16,-290.5 2138.16,-290.5"/>
<text text-anchor="middle" x="2199.16" y="-298.5" font-family="Helvetica,sans-Serif" font-size="10.00">Estimator/Estimator.hpp</text>
</a>
</g>
<!-- Node39&#45;&gt;Node40 -->
<g id="edge196" class="edge"><title>Node39&#45;&gt;Node40</title>
<path fill="none" stroke="midnightblue" d="M1540.26,-471.541C1693.9,-464.635 2013.62,-448.066 2060.16,-428 2115.38,-404.19 2163.02,-349.015 2185.46,-319.851"/>
<polygon fill="midnightblue" stroke="midnightblue" points="2188.38,-321.793 2191.59,-311.698 2182.78,-317.584 2188.38,-321.793"/>
</g>
<!-- Node40&#45;&gt;Node5 -->
<g id="edge198" class="edge"><title>Node40&#45;&gt;Node5</title>
<path fill="none" stroke="midnightblue" d="M2137.97,-296.115C2061.73,-289.246 1936.45,-275.158 1895.16,-254 1787.76,-198.963 1699.8,-77.389 1668.47,-30.2264"/>
<polygon fill="midnightblue" stroke="midnightblue" points="1671.21,-28.0345 1662.81,-21.5844 1665.36,-31.8682 1671.21,-28.0345"/>
</g>
<!-- Node40&#45;&gt;Node7 -->
<g id="edge200" class="edge"><title>Node40&#45;&gt;Node7</title>
<path fill="none" stroke="midnightblue" d="M2217.32,-290.286C2282.64,-252.235 2512.75,-122.442 2719.16,-58 2803.19,-31.7661 2906.41,-19.1624 2960,-14.0088"/>
<polygon fill="midnightblue" stroke="midnightblue" points="2960.4,-17.4865 2970.03,-13.0756 2959.75,-10.5166 2960.4,-17.4865"/>
</g>
<!-- Node40&#45;&gt;Node34 -->
<g id="edge204" class="edge"><title>Node40&#45;&gt;Node34</title>
<path fill="none" stroke="midnightblue" d="M2198.52,-290.295C2197.36,-271.131 2194.92,-230.654 2193.42,-205.843"/>
<polygon fill="midnightblue" stroke="midnightblue" points="2196.9,-205.45 2192.81,-195.679 2189.92,-205.872 2196.9,-205.45"/>
</g>
<!-- Node40&#45;&gt;Node38 -->
<g id="edge202" class="edge"><title>Node40&#45;&gt;Node38</title>
<path fill="none" stroke="midnightblue" d="M2257.29,-290.497C2312,-280.611 2393.95,-265.805 2451.78,-255.356"/>
<polygon fill="midnightblue" stroke="midnightblue" points="2452.7,-258.745 2461.92,-253.523 2451.46,-251.857 2452.7,-258.745"/>
</g>
<!-- Node41&#45;&gt;Node5 -->
<g id="edge216" class="edge"><title>Node41&#45;&gt;Node5</title>
<path fill="none" stroke="midnightblue" d="M2739.19,-349.4C2786.72,-342.051 2849.03,-330.058 2902.16,-312 2961.81,-291.731 3051.65,-285.97 3019.16,-232 2930.8,-85.2077 2841.58,-98.7704 2675.16,-58 2577.53,-34.081 1851.62,-15.6215 1688.6,-11.7503"/>
<polygon fill="midnightblue" stroke="midnightblue" points="1688.35,-8.24353 1678.27,-11.5067 1688.18,-15.2416 1688.35,-8.24353"/>
</g>
<!-- Node41&#45;&gt;Node7 -->
<g id="edge218" class="edge"><title>Node41&#45;&gt;Node7</title>
<path fill="none" stroke="midnightblue" d="M2739.19,-357.104C2844.7,-353.367 3030.67,-342.544 3090.16,-312 3126.84,-293.169 3152.16,-284.228 3152.16,-243 3152.16,-243 3152.16,-243 3152.16,-127 3152.16,-94.5312 3151.04,-81.0429 3128.16,-58 3102.48,-32.1327 3061.65,-20.4446 3032.19,-15.1991"/>
<polygon fill="midnightblue" stroke="midnightblue" points="3032.72,-11.7393 3022.29,-13.5996 3031.6,-18.6497 3032.72,-11.7393"/>
</g>
<!-- Node41&#45;&gt;Node34 -->
<g id="edge230" class="edge"><title>Node41&#45;&gt;Node34</title>
<path fill="none" stroke="midnightblue" d="M2635.35,-348.377C2553.95,-318.37 2322.25,-232.956 2230.37,-199.086"/>
<polygon fill="midnightblue" stroke="midnightblue" points="2231.49,-195.769 2220.9,-195.594 2229.07,-202.337 2231.49,-195.769"/>
</g>
<!-- Node41&#45;&gt;Node38 -->
<g id="edge220" class="edge"><title>Node41&#45;&gt;Node38</title>
<path fill="none" stroke="midnightblue" d="M2638.25,-348.476C2619.78,-340.221 2595,-327.541 2576.16,-312 2558.82,-297.69 2543.07,-277.309 2532.72,-262.408"/>
<polygon fill="midnightblue" stroke="midnightblue" points="2535.51,-260.275 2527.01,-253.941 2529.7,-264.189 2535.51,-260.275"/>
</g>
<!-- Node42 -->
<g id="node153" class="node"><title>Node42</title>
<a xlink:href="../../db/d93/Optimizer_8hpp.xhtml" target="_top" xlink:title="This class provides the interface to (external) optimization libraries or routines.">
<polygon fill="white" stroke="black" points="2888.16,-232.5 2888.16,-253.5 3010.16,-253.5 3010.16,-232.5 2888.16,-232.5"/>
<text text-anchor="middle" x="2949.16" y="-240.5" font-family="Helvetica,sans-Serif" font-size="10.00">Optimizer/Optimizer.hpp</text>
</a>
</g>
<!-- Node41&#45;&gt;Node42 -->
<g id="edge222" class="edge"><title>Node41&#45;&gt;Node42</title>
<path fill="none" stroke="midnightblue" d="M2739.35,-351.83C2780.93,-345.547 2832.45,-333.82 2874.16,-312 2897.97,-299.545 2919.93,-277.583 2933.85,-261.778"/>
<polygon fill="midnightblue" stroke="midnightblue" points="2936.89,-263.609 2940.72,-253.73 2931.56,-259.064 2936.89,-263.609"/>
</g>
<!-- Node43 -->
<g id="node159" class="node"><title>Node43</title>
<a xlink:href="../../de/d83/MinuitFcn_8hpp.xhtml" target="_top" xlink:title="Based on the Minuit2 FcnBase.">
<polygon fill="white" stroke="black" points="2585.16,-290.5 2585.16,-311.5 2743.16,-311.5 2743.16,-290.5 2585.16,-290.5"/>
<text text-anchor="middle" x="2664.16" y="-298.5" font-family="Helvetica,sans-Serif" font-size="10.00">Optimizer/Minuit2/MinuitFcn.hpp</text>
</a>
</g>
<!-- Node41&#45;&gt;Node43 -->
<g id="edge232" class="edge"><title>Node41&#45;&gt;Node43</title>
<path fill="none" stroke="midnightblue" d="M2664.16,-348.362C2664.16,-340.922 2664.16,-330.743 2664.16,-321.728"/>
<polygon fill="midnightblue" stroke="midnightblue" points="2667.66,-321.571 2664.16,-311.571 2660.66,-321.571 2667.66,-321.571"/>
</g>
<!-- Node42&#45;&gt;Node5 -->
<g id="edge224" class="edge"><title>Node42&#45;&gt;Node5</title>
<path fill="none" stroke="midnightblue" d="M2936.4,-232.36C2895.53,-199.029 2762.96,-96.5717 2633.16,-58 2586.97,-44.2722 1854.3,-17.9278 1689.08,-12.1418"/>
<polygon fill="midnightblue" stroke="midnightblue" points="1688.72,-8.62722 1678.61,-11.7759 1688.48,-15.623 1688.72,-8.62722"/>
</g>
<!-- Node42&#45;&gt;Node7 -->
<g id="edge226" class="edge"><title>Node42&#45;&gt;Node7</title>
<path fill="none" stroke="midnightblue" d="M2951.3,-232.429C2958.57,-196.573 2982.35,-79.1689 2992.02,-31.4458"/>
<polygon fill="midnightblue" stroke="midnightblue" points="2995.45,-32.1294 2994.01,-21.6335 2988.59,-30.7394 2995.45,-32.1294"/>
</g>
<!-- Node42&#45;&gt;Node34 -->
<g id="edge228" class="edge"><title>Node42&#45;&gt;Node34</title>
<path fill="none" stroke="midnightblue" d="M2888.08,-236.464C2872.77,-234.913 2856.37,-233.325 2841.16,-232 2630.93,-213.685 2381.94,-197.073 2262.7,-189.431"/>
<polygon fill="midnightblue" stroke="midnightblue" points="2262.81,-185.931 2252.6,-188.786 2262.36,-192.917 2262.81,-185.931"/>
</g>
<!-- Node43&#45;&gt;Node5 -->
<g id="edge234" class="edge"><title>Node43&#45;&gt;Node5</title>
<path fill="none" stroke="midnightblue" d="M2665.45,-290.233C2666.61,-275.785 2666.68,-249.875 2655.16,-232 2575.82,-108.825 2514.66,-102.787 2375.16,-58 2309.27,-36.8467 1820.1,-17.1465 1688.62,-12.1918"/>
<polygon fill="midnightblue" stroke="midnightblue" points="1688.52,-8.68575 1678.39,-11.8092 1688.26,-15.6809 1688.52,-8.68575"/>
</g>
<!-- Node43&#45;&gt;Node6 -->
<g id="edge238" class="edge"><title>Node43&#45;&gt;Node6</title>
<path fill="none" stroke="midnightblue" d="M2585.14,-299.296C2416.23,-295.146 2024.87,-282.673 1895.16,-254 1772.73,-226.935 1412.41,-70.847 1306.05,-24.1769"/>
<polygon fill="midnightblue" stroke="midnightblue" points="1307.4,-20.9513 1296.84,-20.1331 1304.59,-27.36 1307.4,-20.9513"/>
</g>
<!-- Node43&#45;&gt;Node7 -->
<g id="edge236" class="edge"><title>Node43&#45;&gt;Node7</title>
<path fill="none" stroke="midnightblue" d="M2743.4,-295.126C2841.65,-287.14 2998.75,-271.794 3019.16,-254 3043.14,-233.101 3038.16,-216.808 3038.16,-185 3038.16,-185 3038.16,-185 3038.16,-127 3038.16,-91.3645 3020.42,-53.0517 3008,-30.5938"/>
<polygon fill="midnightblue" stroke="midnightblue" points="3010.92,-28.656 3002.91,-21.7254 3004.85,-32.1407 3010.92,-28.656"/>
</g>
<!-- Node43&#45;&gt;Node22 -->
<g id="edge240" class="edge"><title>Node43&#45;&gt;Node22</title>
<path fill="none" stroke="midnightblue" d="M2662.11,-290.24C2658.74,-275.322 2650.69,-248.35 2634.16,-232 2617.38,-215.398 2473.04,-159.986 2412.12,-137.061"/>
<polygon fill="midnightblue" stroke="midnightblue" points="2413.34,-133.784 2402.75,-133.547 2410.88,-140.338 2413.34,-133.784"/>
</g>
<!-- Node43&#45;&gt;Node34 -->
<g id="edge246" class="edge"><title>Node43&#45;&gt;Node34</title>
<path fill="none" stroke="midnightblue" d="M2658.86,-290.414C2650.35,-274.663 2632.03,-245.472 2607.16,-232 2549.3,-200.649 2364.85,-190.127 2262.42,-186.659"/>
<polygon fill="midnightblue" stroke="midnightblue" points="2262.27,-183.152 2252.16,-186.326 2262.04,-190.149 2262.27,-183.152"/>
</g>
<!-- Node43&#45;&gt;Node38 -->
<g id="edge244" class="edge"><title>Node43&#45;&gt;Node38</title>
<path fill="none" stroke="midnightblue" d="M2638.08,-290.497C2615.09,-281.234 2581.36,-267.65 2555.86,-257.379"/>
<polygon fill="midnightblue" stroke="midnightblue" points="2557.12,-254.111 2546.53,-253.621 2554.5,-260.604 2557.12,-254.111"/>
</g>
<!-- Node44 -->
<g id="node165" class="node"><title>Node44</title>
<polygon fill="white" stroke="#bfbfbf" points="2729.66,-232.5 2729.66,-253.5 2832.66,-253.5 2832.66,-232.5 2729.66,-232.5"/>
<text text-anchor="middle" x="2781.16" y="-240.5" font-family="Helvetica,sans-Serif" font-size="10.00">Minuit2/FCNBase.h</text>
</g>
<!-- Node43&#45;&gt;Node44 -->
<g id="edge242" class="edge"><title>Node43&#45;&gt;Node44</title>
<path fill="none" stroke="midnightblue" d="M2685.35,-290.497C2703.62,-281.438 2730.23,-268.246 2750.78,-258.063"/>
<polygon fill="midnightblue" stroke="midnightblue" points="2752.33,-261.199 2759.74,-253.621 2749.22,-254.927 2752.33,-261.199"/>
</g>
</g>
</svg>
