<?xml version="1.0" encoding="UTF-8" standalone="no"?>
<!DOCTYPE svg PUBLIC "-//W3C//DTD SVG 1.1//EN"
 "http://www.w3.org/Graphics/SVG/1.1/DTD/svg11.dtd">
<!-- Generated by graphviz version 2.36.0 (20140111.2315)
 -->
<!-- Title: /home/travis/build/ComPWA/ComPWA/DataReader/DataCorrection.cpp Pages: 1 -->
<svg width="907pt" height="286pt"
 viewBox="0.00 0.00 906.93 286.00" xmlns="http://www.w3.org/2000/svg" xmlns:xlink="http://www.w3.org/1999/xlink">
<g id="graph0" class="graph" transform="scale(1 1) rotate(0) translate(4 282)">
<title>/home/travis/build/ComPWA/ComPWA/DataReader/DataCorrection.cpp</title>
<polygon fill="white" stroke="none" points="-4,4 -4,-282 902.93,-282 902.93,4 -4,4"/>
<!-- Node1 -->
<g id="node1" class="node"><title>Node1</title>
<polygon fill="#bfbfbf" stroke="black" points="373.43,-236.5 373.43,-277.5 540.43,-277.5 540.43,-236.5 373.43,-236.5"/>
<text text-anchor="start" x="381.43" y="-265.5" font-family="Helvetica,sans-Serif" font-size="10.00">/home/travis/build</text>
<text text-anchor="start" x="381.43" y="-254.5" font-family="Helvetica,sans-Serif" font-size="10.00">/ComPWA/ComPWA/DataReader</text>
<text text-anchor="middle" x="456.93" y="-243.5" font-family="Helvetica,sans-Serif" font-size="10.00">/DataCorrection.cpp</text>
</g>
<!-- Node2 -->
<g id="node2" class="node"><title>Node2</title>
<g id="a_node2"><a xlink:href="../../d4/d37/Kinematics_8hpp.html" target="_top" xlink:title="Core/Kinematics.hpp">
<polygon fill="white" stroke="black" points="183.93,-180.5 183.93,-199.5 291.93,-199.5 291.93,-180.5 183.93,-180.5"/>
<text text-anchor="middle" x="237.93" y="-187.5" font-family="Helvetica,sans-Serif" font-size="10.00">Core/Kinematics.hpp</text>
</a>
</g>
</g>
<!-- Node1&#45;&gt;Node2 -->
<g id="edge1" class="edge"><title>Node1&#45;&gt;Node2</title>
<path fill="none" stroke="midnightblue" d="M391.222,-236.498C353.819,-225.396 308.254,-211.872 276.567,-202.468"/>
<polygon fill="midnightblue" stroke="midnightblue" points="277.377,-199.057 266.794,-199.567 275.385,-205.768 277.377,-199.057"/>
</g>
<!-- Node16 -->
<g id="node16" class="node"><title>Node16</title>
<g id="a_node16"><a xlink:href="../../d2/dee/DataCorrection_8hpp.html" target="_top" xlink:title="DataReader/DataCorrection.hpp">
<polygon fill="white" stroke="black" points="597.43,-180.5 597.43,-199.5 754.43,-199.5 754.43,-180.5 597.43,-180.5"/>
<text text-anchor="middle" x="675.93" y="-187.5" font-family="Helvetica,sans-Serif" font-size="10.00">DataReader/DataCorrection.hpp</text>
</a>
</g>
</g>
<!-- Node1&#45;&gt;Node16 -->
<g id="edge31" class="edge"><title>Node1&#45;&gt;Node16</title>
<path fill="none" stroke="midnightblue" d="M522.637,-236.498C560.04,-225.396 605.606,-211.872 637.293,-202.468"/>
<polygon fill="midnightblue" stroke="midnightblue" points="638.475,-205.768 647.065,-199.567 636.483,-199.057 638.475,-205.768"/>
</g>
<!-- Node3 -->
<g id="node3" class="node"><title>Node3</title>
<polygon fill="white" stroke="#bfbfbf" points="37.9297,-6.5 37.9297,-25.5 81.9297,-25.5 81.9297,-6.5 37.9297,-6.5"/>
<text text-anchor="middle" x="59.9297" y="-13.5" font-family="Helvetica,sans-Serif" font-size="10.00">vector</text>
</g>
<!-- Node2&#45;&gt;Node3 -->
<g id="edge2" class="edge"><title>Node2&#45;&gt;Node3</title>
<path fill="none" stroke="midnightblue" d="M183.834,-182.914C127.722,-173.369 42.851,-149.114 3.9297,-88 -9.42632,-67.0284 15.176,-44.8312 35.8825,-30.9513"/>
<polygon fill="midnightblue" stroke="midnightblue" points="37.8342,-33.858 44.3961,-25.5398 34.0791,-27.9504 37.8342,-33.858"/>
</g>
<!-- Node4 -->
<g id="node4" class="node"><title>Node4</title>
<polygon fill="white" stroke="#bfbfbf" points="179.43,-6.5 179.43,-25.5 220.43,-25.5 220.43,-6.5 179.43,-6.5"/>
<text text-anchor="middle" x="199.93" y="-13.5" font-family="Helvetica,sans-Serif" font-size="10.00">string</text>
</g>
<!-- Node2&#45;&gt;Node4 -->
<g id="edge3" class="edge"><title>Node2&#45;&gt;Node4</title>
<path fill="none" stroke="midnightblue" d="M222.146,-180.467C209.727,-172.769 193.325,-160.179 185.93,-144 169.55,-108.165 182.641,-60.917 192.191,-35.3458"/>
<polygon fill="midnightblue" stroke="midnightblue" points="195.539,-36.3963 195.971,-25.8103 189.032,-33.8167 195.539,-36.3963"/>
</g>
<!-- Node5 -->
<g id="node5" class="node"><title>Node5</title>
<polygon fill="white" stroke="#bfbfbf" points="616.43,-6.5 616.43,-25.5 669.43,-25.5 669.43,-6.5 616.43,-6.5"/>
<text text-anchor="middle" x="642.93" y="-13.5" font-family="Helvetica,sans-Serif" font-size="10.00">complex</text>
</g>
<!-- Node2&#45;&gt;Node5 -->
<g id="edge4" class="edge"><title>Node2&#45;&gt;Node5</title>
<path fill="none" stroke="midnightblue" d="M292.31,-185.543C404.101,-177.185 653.558,-151.67 704.93,-88 721.513,-67.4463 692.549,-44.5909 668.873,-30.504"/>
<polygon fill="midnightblue" stroke="midnightblue" points="670.588,-27.4529 660.164,-25.5575 667.131,-33.5397 670.588,-27.4529"/>
</g>
<!-- Node6 -->
<g id="node6" class="node"><title>Node6</title>
<g id="a_node6"><a xlink:href="../../df/d7d/Event_8hpp.html" target="_top" xlink:title="This class provides a internal container for event&#45;based information. ">
<polygon fill="white" stroke="black" points="195.43,-124.5 195.43,-143.5 280.43,-143.5 280.43,-124.5 195.43,-124.5"/>
<text text-anchor="middle" x="237.93" y="-131.5" font-family="Helvetica,sans-Serif" font-size="10.00">Core/Event.hpp</text>
</a>
</g>
</g>
<!-- Node2&#45;&gt;Node6 -->
<g id="edge5" class="edge"><title>Node2&#45;&gt;Node6</title>
<path fill="none" stroke="midnightblue" d="M237.93,-180.083C237.93,-173.006 237.93,-162.861 237.93,-153.986"/>
<polygon fill="midnightblue" stroke="midnightblue" points="241.43,-153.751 237.93,-143.751 234.43,-153.751 241.43,-153.751"/>
</g>
<!-- Node11 -->
<g id="node11" class="node"><title>Node11</title>
<g id="a_node11"><a xlink:href="../../d8/d35/PhysConst_8hpp.html" target="_top" xlink:title="PhysConst provides particle information to the framework. ">
<polygon fill="white" stroke="black" points="315.93,-124.5 315.93,-143.5 423.93,-143.5 423.93,-124.5 315.93,-124.5"/>
<text text-anchor="middle" x="369.93" y="-131.5" font-family="Helvetica,sans-Serif" font-size="10.00">Core/PhysConst.hpp</text>
</a>
</g>
</g>
<!-- Node2&#45;&gt;Node11 -->
<g id="edge14" class="edge"><title>Node2&#45;&gt;Node11</title>
<path fill="none" stroke="midnightblue" d="M258.845,-180.444C280.666,-171.517 315.08,-157.439 339.822,-147.317"/>
<polygon fill="midnightblue" stroke="midnightblue" points="341.182,-150.542 349.112,-143.516 338.531,-144.063 341.182,-150.542"/>
</g>
<!-- Node15 -->
<g id="node15" class="node"><title>Node15</title>
<g id="a_node15"><a xlink:href="../../d9/dfb/Spin_8hpp.html" target="_top" xlink:title="Core/Spin.hpp">
<polygon fill="white" stroke="red" points="54.4297,-68.5 54.4297,-87.5 133.43,-87.5 133.43,-68.5 54.4297,-68.5"/>
<text text-anchor="middle" x="93.9297" y="-75.5" font-family="Helvetica,sans-Serif" font-size="10.00">Core/Spin.hpp</text>
</a>
</g>
</g>
<!-- Node2&#45;&gt;Node15 -->
<g id="edge30" class="edge"><title>Node2&#45;&gt;Node15</title>
<path fill="none" stroke="midnightblue" d="M214.592,-180.465C195.465,-172.767 168.322,-160.176 147.93,-144 130.581,-130.238 114.918,-110.109 104.984,-95.904"/>
<polygon fill="midnightblue" stroke="midnightblue" points="107.831,-93.8657 99.3228,-87.5516 102.036,-97.7931 107.831,-93.8657"/>
</g>
<!-- Node6&#45;&gt;Node3 -->
<g id="edge6" class="edge"><title>Node6&#45;&gt;Node3</title>
<path fill="none" stroke="midnightblue" d="M195.055,-130.748C136.085,-126.652 34.6419,-115.68 11.9297,-88 -3.19766,-69.5636 19.4334,-46.3812 38.4718,-31.6229"/>
<polygon fill="midnightblue" stroke="midnightblue" points="40.5799,-34.4171 46.5538,-25.667 36.4272,-28.7819 40.5799,-34.4171"/>
</g>
<!-- Node6&#45;&gt;Node4 -->
<g id="edge7" class="edge"><title>Node6&#45;&gt;Node4</title>
<path fill="none" stroke="midnightblue" d="M235.074,-124.281C228.909,-105.463 214.244,-60.6971 205.938,-35.3399"/>
<polygon fill="midnightblue" stroke="midnightblue" points="209.155,-33.9183 202.716,-25.5048 202.503,-36.0975 209.155,-33.9183"/>
</g>
<!-- Node7 -->
<g id="node7" class="node"><title>Node7</title>
<polygon fill="white" stroke="#bfbfbf" points="308.93,-6.5 308.93,-25.5 362.93,-25.5 362.93,-6.5 308.93,-6.5"/>
<text text-anchor="middle" x="335.93" y="-13.5" font-family="Helvetica,sans-Serif" font-size="10.00">iostream</text>
</g>
<!-- Node6&#45;&gt;Node7 -->
<g id="edge8" class="edge"><title>Node6&#45;&gt;Node7</title>
<path fill="none" stroke="midnightblue" d="M238.567,-124.145C239.929,-110.768 244.135,-85.1506 256.93,-68 269.333,-51.3741 288.886,-38.6884 305.435,-30.1274"/>
<polygon fill="midnightblue" stroke="midnightblue" points="307.313,-33.1052 314.755,-25.5648 304.235,-26.8181 307.313,-33.1052"/>
</g>
<!-- Node8 -->
<g id="node8" class="node"><title>Node8</title>
<g id="a_node8"><a xlink:href="../../d3/d65/Particle_8hpp.html" target="_top" xlink:title="This class provides a internal container for information of a particle. ">
<polygon fill="white" stroke="red" points="265.93,-68.5 265.93,-87.5 357.93,-87.5 357.93,-68.5 265.93,-68.5"/>
<text text-anchor="middle" x="311.93" y="-75.5" font-family="Helvetica,sans-Serif" font-size="10.00">Core/Particle.hpp</text>
</a>
</g>
</g>
<!-- Node6&#45;&gt;Node8 -->
<g id="edge9" class="edge"><title>Node6&#45;&gt;Node8</title>
<path fill="none" stroke="midnightblue" d="M249.819,-124.324C261.08,-116.107 278.216,-103.602 291.639,-93.8069"/>
<polygon fill="midnightblue" stroke="midnightblue" points="293.809,-96.5559 299.824,-87.8339 289.683,-90.9014 293.809,-96.5559"/>
</g>
<!-- Node8&#45;&gt;Node3 -->
<g id="edge10" class="edge"><title>Node8&#45;&gt;Node3</title>
<path fill="none" stroke="midnightblue" d="M276.092,-68.4672C226.95,-56.7666 139.382,-35.9172 92.1901,-24.681"/>
<polygon fill="midnightblue" stroke="midnightblue" points="92.7484,-21.2162 82.2097,-22.3048 91.127,-28.0259 92.7484,-21.2162"/>
</g>
<!-- Node8&#45;&gt;Node7 -->
<g id="edge12" class="edge"><title>Node8&#45;&gt;Node7</title>
<path fill="none" stroke="midnightblue" d="M315.368,-68.4035C318.826,-59.7599 324.262,-46.17 328.676,-35.1341"/>
<polygon fill="midnightblue" stroke="midnightblue" points="332.033,-36.1653 332.497,-25.5806 325.534,-33.5655 332.033,-36.1653"/>
</g>
<!-- Node9 -->
<g id="node9" class="node"><title>Node9</title>
<polygon fill="white" stroke="#bfbfbf" points="405.93,-6.5 405.93,-25.5 449.93,-25.5 449.93,-6.5 405.93,-6.5"/>
<text text-anchor="middle" x="427.93" y="-13.5" font-family="Helvetica,sans-Serif" font-size="10.00">cmath</text>
</g>
<!-- Node8&#45;&gt;Node9 -->
<g id="edge11" class="edge"><title>Node8&#45;&gt;Node9</title>
<path fill="none" stroke="midnightblue" d="M328.55,-68.4035C347.845,-58.4232 379.889,-41.8487 402.361,-30.2253"/>
<polygon fill="midnightblue" stroke="midnightblue" points="404.066,-33.2836 411.341,-25.5806 400.85,-27.0661 404.066,-33.2836"/>
</g>
<!-- Node10 -->
<g id="node10" class="node"><title>Node10</title>
<polygon fill="white" stroke="#bfbfbf" points="539.43,-6.5 539.43,-25.5 598.43,-25.5 598.43,-6.5 539.43,-6.5"/>
<text text-anchor="middle" x="568.93" y="-13.5" font-family="Helvetica,sans-Serif" font-size="10.00">stdexcept</text>
</g>
<!-- Node8&#45;&gt;Node10 -->
<g id="edge13" class="edge"><title>Node8&#45;&gt;Node10</title>
<path fill="none" stroke="midnightblue" d="M358.154,-69.5475C402.433,-61.9094 470.903,-48.7877 528.93,-32 532.064,-31.0931 535.303,-30.0548 538.518,-28.9571"/>
<polygon fill="midnightblue" stroke="midnightblue" points="539.737,-32.2382 547.96,-25.5577 537.366,-25.652 539.737,-32.2382"/>
</g>
<!-- Node11&#45;&gt;Node3 -->
<g id="edge16" class="edge"><title>Node11&#45;&gt;Node3</title>
<path fill="none" stroke="midnightblue" d="M315.706,-126.409C224.387,-115.183 49.3493,-93.0737 44.9297,-88 32.0465,-73.2101 40.381,-50.1498 48.8908,-34.3485"/>
<polygon fill="midnightblue" stroke="midnightblue" points="51.9888,-35.9845 54.0239,-25.5869 45.949,-32.446 51.9888,-35.9845"/>
</g>
<!-- Node11&#45;&gt;Node7 -->
<g id="edge15" class="edge"><title>Node11&#45;&gt;Node7</title>
<path fill="none" stroke="midnightblue" d="M370.863,-124.358C371.936,-111.683 372.864,-87.449 366.93,-68 363.172,-55.6831 355.756,-43.3054 349.12,-33.8287"/>
<polygon fill="midnightblue" stroke="midnightblue" points="351.896,-31.6958 343.142,-25.7285 346.264,-35.8528 351.896,-31.6958"/>
</g>
<!-- Node12 -->
<g id="node12" class="node"><title>Node12</title>
<polygon fill="white" stroke="#bfbfbf" points="798.43,-1 798.43,-31 899.43,-31 899.43,-1 798.43,-1"/>
<text text-anchor="start" x="806.43" y="-19" font-family="Helvetica,sans-Serif" font-size="10.00">boost/property_tree</text>
<text text-anchor="middle" x="848.93" y="-8" font-family="Helvetica,sans-Serif" font-size="10.00">/ptree.hpp</text>
</g>
<!-- Node11&#45;&gt;Node12 -->
<g id="edge17" class="edge"><title>Node11&#45;&gt;Node12</title>
<path fill="none" stroke="midnightblue" d="M424.159,-131.102C491.374,-127.533 608.801,-117.295 704.93,-88 745.59,-75.6091 788.906,-52.7865 817.286,-36.3571"/>
<polygon fill="midnightblue" stroke="midnightblue" points="819.101,-39.35 825.953,-31.2688 815.557,-33.3134 819.101,-39.35"/>
</g>
<!-- Node13 -->
<g id="node13" class="node"><title>Node13</title>
<g id="a_node13"><a xlink:href="../../db/dce/Parameter_8hpp.html" target="_top" xlink:title="This class implements some internal container of parameters. ">
<polygon fill="white" stroke="red" points="591.93,-68.5 591.93,-87.5 695.93,-87.5 695.93,-68.5 591.93,-68.5"/>
<text text-anchor="middle" x="643.93" y="-75.5" font-family="Helvetica,sans-Serif" font-size="10.00">Core/Parameter.hpp</text>
</a>
</g>
</g>
<!-- Node11&#45;&gt;Node13 -->
<g id="edge18" class="edge"><title>Node11&#45;&gt;Node13</title>
<path fill="none" stroke="midnightblue" d="M413.346,-124.444C461.445,-114.964 539.025,-99.6747 590.736,-89.4835"/>
<polygon fill="midnightblue" stroke="midnightblue" points="591.582,-92.8841 600.717,-87.5164 590.229,-86.0162 591.582,-92.8841"/>
</g>
<!-- Node11&#45;&gt;Node15 -->
<g id="edge26" class="edge"><title>Node11&#45;&gt;Node15</title>
<path fill="none" stroke="midnightblue" d="M326.197,-124.444C276.464,-114.713 195.443,-98.8612 143.431,-88.6851"/>
<polygon fill="midnightblue" stroke="midnightblue" points="143.92,-85.2144 133.434,-86.729 142.576,-92.0841 143.92,-85.2144"/>
</g>
<!-- Node13&#45;&gt;Node4 -->
<g id="edge20" class="edge"><title>Node13&#45;&gt;Node4</title>
<path fill="none" stroke="midnightblue" d="M591.696,-69.2234C588.731,-68.8038 585.793,-68.3933 582.93,-68 457.318,-50.7459 425.521,-49.4052 299.93,-32 276.64,-28.7724 250.349,-24.8165 230.572,-21.7776"/>
<polygon fill="midnightblue" stroke="midnightblue" points="231.011,-18.3041 220.595,-20.2376 229.944,-25.2222 231.011,-18.3041"/>
</g>
<!-- Node13&#45;&gt;Node5 -->
<g id="edge21" class="edge"><title>Node13&#45;&gt;Node5</title>
<path fill="none" stroke="midnightblue" d="M643.786,-68.4035C643.645,-59.9381 643.425,-46.7283 643.243,-35.8199"/>
<polygon fill="midnightblue" stroke="midnightblue" points="646.739,-35.5208 643.073,-25.5806 639.74,-35.6376 646.739,-35.5208"/>
</g>
<!-- Node13&#45;&gt;Node7 -->
<g id="edge19" class="edge"><title>Node13&#45;&gt;Node7</title>
<path fill="none" stroke="midnightblue" d="M591.706,-68.4359C541.588,-59.993 463.85,-46.3099 396.93,-32 389.131,-30.3324 380.811,-28.3936 372.903,-26.4746"/>
<polygon fill="midnightblue" stroke="midnightblue" points="373.724,-23.0723 363.177,-24.0763 372.048,-29.8688 373.724,-23.0723"/>
</g>
<!-- Node13&#45;&gt;Node9 -->
<g id="edge23" class="edge"><title>Node13&#45;&gt;Node9</title>
<path fill="none" stroke="midnightblue" d="M597.133,-68.4785C559.243,-60.9016 504.818,-48.4722 458.93,-32 457.073,-31.3334 455.179,-30.5894 453.29,-29.7991"/>
<polygon fill="midnightblue" stroke="midnightblue" points="454.613,-26.5559 444.061,-25.6046 451.716,-32.9286 454.613,-26.5559"/>
</g>
<!-- Node13&#45;&gt;Node10 -->
<g id="edge22" class="edge"><title>Node13&#45;&gt;Node10</title>
<path fill="none" stroke="midnightblue" d="M633.184,-68.4035C621.377,-58.9579 602.187,-43.6056 587.847,-32.1342"/>
<polygon fill="midnightblue" stroke="midnightblue" points="589.651,-29.0945 579.655,-25.5806 585.278,-34.5606 589.651,-29.0945"/>
</g>
<!-- Node13&#45;&gt;Node12 -->
<g id="edge24" class="edge"><title>Node13&#45;&gt;Node12</title>
<path fill="none" stroke="midnightblue" d="M673.301,-68.4035C703.892,-59.4501 752.615,-45.1897 790.99,-33.9579"/>
<polygon fill="midnightblue" stroke="midnightblue" points="792.396,-37.1935 801.01,-31.0253 790.429,-30.4753 792.396,-37.1935"/>
</g>
<!-- Node14 -->
<g id="node14" class="node"><title>Node14</title>
<g id="a_node14"><a xlink:href="../../da/db4/Logging_8hpp.html" target="_top" xlink:title="Core/Logging.hpp">
<polygon fill="white" stroke="red" points="687.43,-6.5 687.43,-25.5 780.43,-25.5 780.43,-6.5 687.43,-6.5"/>
<text text-anchor="middle" x="733.93" y="-13.5" font-family="Helvetica,sans-Serif" font-size="10.00">Core/Logging.hpp</text>
</a>
</g>
</g>
<!-- Node13&#45;&gt;Node14 -->
<g id="edge25" class="edge"><title>Node13&#45;&gt;Node14</title>
<path fill="none" stroke="midnightblue" d="M656.825,-68.4035C671.394,-58.6905 695.332,-42.7319 712.675,-31.1697"/>
<polygon fill="midnightblue" stroke="midnightblue" points="714.68,-34.0398 721.059,-25.5806 710.797,-28.2155 714.68,-34.0398"/>
</g>
<!-- Node15&#45;&gt;Node3 -->
<g id="edge28" class="edge"><title>Node15&#45;&gt;Node3</title>
<path fill="none" stroke="midnightblue" d="M89.0583,-68.4035C84.0593,-59.5816 76.1406,-45.6075 69.8207,-34.4548"/>
<polygon fill="midnightblue" stroke="midnightblue" points="72.7673,-32.5553 64.792,-25.5806 66.6771,-36.0064 72.7673,-32.5553"/>
</g>
<!-- Node15&#45;&gt;Node4 -->
<g id="edge27" class="edge"><title>Node15&#45;&gt;Node4</title>
<path fill="none" stroke="midnightblue" d="M109.117,-68.4035C126.591,-58.5123 155.508,-42.1442 176.013,-30.5378"/>
<polygon fill="midnightblue" stroke="midnightblue" points="177.792,-33.5525 184.771,-25.5806 174.344,-27.4607 177.792,-33.5525"/>
</g>
<!-- Node15&#45;&gt;Node7 -->
<g id="edge29" class="edge"><title>Node15&#45;&gt;Node7</title>
<path fill="none" stroke="midnightblue" d="M128.345,-68.4672C173.475,-57.278 252.351,-37.722 298.792,-26.2077"/>
<polygon fill="midnightblue" stroke="midnightblue" points="299.88,-29.544 308.744,-23.7403 298.196,-22.7497 299.88,-29.544"/>
</g>
<!-- Node16&#45;&gt;Node6 -->
<g id="edge34" class="edge"><title>Node16&#45;&gt;Node6</title>
<path fill="none" stroke="midnightblue" d="M604.479,-180.466C530.129,-171.543 410.337,-157.049 306.93,-144 301.744,-143.346 296.34,-142.655 290.94,-141.96"/>
<polygon fill="midnightblue" stroke="midnightblue" points="290.986,-138.437 280.619,-140.625 290.087,-145.379 290.986,-138.437"/>
</g>
<!-- Node16&#45;&gt;Node10 -->
<g id="edge32" class="edge"><title>Node16&#45;&gt;Node10</title>
<path fill="none" stroke="midnightblue" d="M682.371,-180.212C697.087,-158.974 730.029,-103.959 704.93,-68 678.372,-29.9506 650.291,-48.5197 606.93,-32 604.693,-31.1478 602.385,-30.2596 600.065,-29.3596"/>
<polygon fill="midnightblue" stroke="midnightblue" points="601.186,-26.04 590.598,-25.6566 598.636,-32.559 601.186,-26.04"/>
</g>
<!-- Node16&#45;&gt;Node14 -->
<g id="edge35" class="edge"><title>Node16&#45;&gt;Node14</title>
<path fill="none" stroke="midnightblue" d="M720.626,-180.476C741.156,-174.086 763.629,-163.025 775.93,-144 794.27,-115.635 787.336,-99.7936 775.93,-68 771.027,-54.3358 760.707,-41.7172 751.524,-32.45"/>
<polygon fill="midnightblue" stroke="midnightblue" points="753.879,-29.8601 744.221,-25.5044 749.055,-34.9323 753.879,-29.8601"/>
</g>
<!-- Node17 -->
<g id="node17" class="node"><title>Node17</title>
<polygon fill="white" stroke="#bfbfbf" points="828.43,-124.5 828.43,-143.5 869.43,-143.5 869.43,-124.5 828.43,-124.5"/>
<text text-anchor="middle" x="848.93" y="-131.5" font-family="Helvetica,sans-Serif" font-size="10.00">cfloat</text>
</g>
<!-- Node16&#45;&gt;Node17 -->
<g id="edge33" class="edge"><title>Node16&#45;&gt;Node17</title>
<path fill="none" stroke="midnightblue" d="M703.342,-180.444C734.722,-170.649 785.974,-154.651 818.547,-144.484"/>
<polygon fill="midnightblue" stroke="midnightblue" points="819.915,-147.723 828.418,-141.403 817.829,-141.041 819.915,-147.723"/>
</g>
<!-- Node18 -->
<g id="node18" class="node"><title>Node18</title>
<g id="a_node18"><a xlink:href="../../d4/d9c/CorrectionTable_8hpp.html" target="_top" xlink:title="DataReader/CorrectionTable.hpp">
<polygon fill="white" stroke="black" points="413.93,-68.5 413.93,-87.5 573.93,-87.5 573.93,-68.5 413.93,-68.5"/>
<text text-anchor="middle" x="493.93" y="-75.5" font-family="Helvetica,sans-Serif" font-size="10.00">DataReader/CorrectionTable.hpp</text>
</a>
</g>
</g>
<!-- Node16&#45;&gt;Node18 -->
<g id="edge36" class="edge"><title>Node16&#45;&gt;Node18</title>
<path fill="none" stroke="midnightblue" d="M661.648,-180.368C630.284,-161.412 555.149,-116.001 516.998,-92.9424"/>
<polygon fill="midnightblue" stroke="midnightblue" points="518.513,-89.7687 508.145,-87.5914 514.892,-95.7595 518.513,-89.7687"/>
</g>
<!-- Node18&#45;&gt;Node3 -->
<g id="edge39" class="edge"><title>Node18&#45;&gt;Node3</title>
<path fill="none" stroke="midnightblue" d="M432.209,-68.4672C338.719,-55.5423 164.477,-31.4535 92.4147,-21.491"/>
<polygon fill="midnightblue" stroke="midnightblue" points="92.5345,-17.9744 82.1494,-20.0719 91.5759,-24.9084 92.5345,-17.9744"/>
</g>
<!-- Node18&#45;&gt;Node4 -->
<g id="edge38" class="edge"><title>Node18&#45;&gt;Node4</title>
<path fill="none" stroke="midnightblue" d="M452.119,-68.4672C392.224,-56.2437 283.402,-34.0351 230.475,-23.2337"/>
<polygon fill="midnightblue" stroke="midnightblue" points="231.164,-19.8022 220.666,-21.2319 229.764,-26.6609 231.164,-19.8022"/>
</g>
<!-- Node18&#45;&gt;Node7 -->
<g id="edge37" class="edge"><title>Node18&#45;&gt;Node7</title>
<path fill="none" stroke="midnightblue" d="M471.292,-68.4035C444.19,-58.1113 398.62,-40.8064 367.926,-29.1504"/>
<polygon fill="midnightblue" stroke="midnightblue" points="369.116,-25.8587 358.525,-25.5806 366.631,-32.4028 369.116,-25.8587"/>
</g>
<!-- Node18&#45;&gt;Node9 -->
<g id="edge41" class="edge"><title>Node18&#45;&gt;Node9</title>
<path fill="none" stroke="midnightblue" d="M484.474,-68.4035C474.181,-59.047 457.514,-43.8948 444.936,-32.4599"/>
<polygon fill="midnightblue" stroke="midnightblue" points="447.122,-29.7176 437.368,-25.5806 442.413,-34.8971 447.122,-29.7176"/>
</g>
<!-- Node18&#45;&gt;Node10 -->
<g id="edge42" class="edge"><title>Node18&#45;&gt;Node10</title>
<path fill="none" stroke="midnightblue" d="M504.675,-68.4035C516.482,-58.9579 535.673,-43.6056 550.012,-32.1342"/>
<polygon fill="midnightblue" stroke="midnightblue" points="552.582,-34.5606 558.204,-25.5806 548.209,-29.0945 552.582,-34.5606"/>
</g>
<!-- Node19 -->
<g id="node19" class="node"><title>Node19</title>
<polygon fill="white" stroke="#bfbfbf" points="467.93,-6.5 467.93,-25.5 519.93,-25.5 519.93,-6.5 467.93,-6.5"/>
<text text-anchor="middle" x="493.93" y="-13.5" font-family="Helvetica,sans-Serif" font-size="10.00">memory</text>
</g>
<!-- Node18&#45;&gt;Node19 -->
<g id="edge40" class="edge"><title>Node18&#45;&gt;Node19</title>
<path fill="none" stroke="midnightblue" d="M493.93,-68.4035C493.93,-59.9381 493.93,-46.7283 493.93,-35.8199"/>
<polygon fill="midnightblue" stroke="midnightblue" points="497.43,-35.5806 493.93,-25.5806 490.43,-35.5806 497.43,-35.5806"/>
</g>
</g>
</svg>
