<?xml version="1.0" encoding="UTF-8" standalone="no"?>
<!DOCTYPE svg PUBLIC "-//W3C//DTD SVG 1.1//EN"
 "http://www.w3.org/Graphics/SVG/1.1/DTD/svg11.dtd">
<!-- Generated by graphviz version 2.36.0 (20140111.2315)
 -->
<!-- Title: ComPWA::Strategy Pages: 1 -->
<svg width="1731pt" height="238pt"
 viewBox="0.00 0.00 1731.00 238.00" xmlns="http://www.w3.org/2000/svg" xmlns:xlink="http://www.w3.org/1999/xlink">
<g id="graph0" class="graph" transform="scale(1 1) rotate(0) translate(4 234)">
<title>ComPWA::Strategy</title>
<polygon fill="white" stroke="none" points="-4,4 -4,-234 1727,-234 1727,4 -4,4"/>
<!-- Node1 -->
<g id="node1" class="node"><title>Node1</title>
<polygon fill="#bfbfbf" stroke="black" points="773,-128.5 773,-229.5 877,-229.5 877,-128.5 773,-128.5"/>
<text text-anchor="middle" x="825" y="-217.5" font-family="Helvetica,sans-Serif" font-size="10.00">ComPWA::Strategy</text>
<polyline fill="none" stroke="black" points="773,-210.5 877,-210.5 "/>
<text text-anchor="start" x="781" y="-198.5" font-family="Helvetica,sans-Serif" font-size="10.00"># checkType</text>
<polyline fill="none" stroke="black" points="773,-191.5 877,-191.5 "/>
<text text-anchor="start" x="781" y="-179.5" font-family="Helvetica,sans-Serif" font-size="10.00">+ Strategy()</text>
<text text-anchor="start" x="781" y="-168.5" font-family="Helvetica,sans-Serif" font-size="10.00">+ ~Strategy()</text>
<text text-anchor="start" x="781" y="-157.5" font-family="Helvetica,sans-Serif" font-size="10.00">+ OutType()</text>
<text text-anchor="start" x="781" y="-146.5" font-family="Helvetica,sans-Serif" font-size="10.00">+ to_str()</text>
<text text-anchor="start" x="781" y="-135.5" font-family="Helvetica,sans-Serif" font-size="10.00">+ execute()</text>
</g>
<!-- Node2 -->
<g id="node2" class="node"><title>Node2</title>
<g id="a_node2"><a xlink:href="../../db/d57/classComPWA_1_1AbsSquare.html" target="_top" xlink:title="{ComPWA::AbsSquare\n||+ AbsSquare()\l+ ~AbsSquare()\l+ to_str()\l+ execute()\l}">
<polygon fill="white" stroke="black" points="-0.5,-1 -0.5,-91 114.5,-91 114.5,-1 -0.5,-1"/>
<text text-anchor="middle" x="57" y="-79" font-family="Helvetica,sans-Serif" font-size="10.00">ComPWA::AbsSquare</text>
<polyline fill="none" stroke="black" points="-0.5,-72 114.5,-72 "/>
<text text-anchor="middle" x="57" y="-60" font-family="Helvetica,sans-Serif" font-size="10.00"> </text>
<polyline fill="none" stroke="black" points="-0.5,-53 114.5,-53 "/>
<text text-anchor="start" x="7.5" y="-41" font-family="Helvetica,sans-Serif" font-size="10.00">+ AbsSquare()</text>
<text text-anchor="start" x="7.5" y="-30" font-family="Helvetica,sans-Serif" font-size="10.00">+ ~AbsSquare()</text>
<text text-anchor="start" x="7.5" y="-19" font-family="Helvetica,sans-Serif" font-size="10.00">+ to_str()</text>
<text text-anchor="start" x="7.5" y="-8" font-family="Helvetica,sans-Serif" font-size="10.00">+ execute()</text>
</a>
</g>
</g>
<!-- Node1&#45;&gt;Node2 -->
<g id="edge1" class="edge"><title>Node1&#45;&gt;Node2</title>
<path fill="none" stroke="midnightblue" d="M762.465,-174.134C613.17,-164.298 239.704,-135.949 123,-92 120.275,-90.9736 117.552,-89.8128 114.85,-88.5466"/>
<polygon fill="none" stroke="midnightblue" points="762.613,-177.651 772.82,-174.81 763.069,-170.666 762.613,-177.651"/>
</g>
<!-- Node3 -->
<g id="node3" class="node"><title>Node3</title>
<g id="a_node3"><a xlink:href="../../d5/d22/classComPWA_1_1AddAll.html" target="_top" xlink:title="{ComPWA::AddAll\n||+ AddAll()\l+ ~AddAll()\l+ to_str()\l+ execute()\l}">
<polygon fill="white" stroke="black" points="132.5,-1 132.5,-91 227.5,-91 227.5,-1 132.5,-1"/>
<text text-anchor="middle" x="180" y="-79" font-family="Helvetica,sans-Serif" font-size="10.00">ComPWA::AddAll</text>
<polyline fill="none" stroke="black" points="132.5,-72 227.5,-72 "/>
<text text-anchor="middle" x="180" y="-60" font-family="Helvetica,sans-Serif" font-size="10.00"> </text>
<polyline fill="none" stroke="black" points="132.5,-53 227.5,-53 "/>
<text text-anchor="start" x="140.5" y="-41" font-family="Helvetica,sans-Serif" font-size="10.00">+ AddAll()</text>
<text text-anchor="start" x="140.5" y="-30" font-family="Helvetica,sans-Serif" font-size="10.00">+ ~AddAll()</text>
<text text-anchor="start" x="140.5" y="-19" font-family="Helvetica,sans-Serif" font-size="10.00">+ to_str()</text>
<text text-anchor="start" x="140.5" y="-8" font-family="Helvetica,sans-Serif" font-size="10.00">+ execute()</text>
</a>
</g>
</g>
<!-- Node1&#45;&gt;Node3 -->
<g id="edge2" class="edge"><title>Node1&#45;&gt;Node3</title>
<path fill="none" stroke="midnightblue" d="M762.357,-172.961C630.919,-161.724 330.752,-132.387 237,-92 233.874,-90.6532 230.773,-89.0899 227.726,-87.3708"/>
<polygon fill="none" stroke="midnightblue" points="762.397,-176.477 772.657,-173.834 762.988,-169.502 762.397,-176.477"/>
</g>
<!-- Node4 -->
<g id="node4" class="node"><title>Node4</title>
<g id="a_node4"><a xlink:href="../../da/ded/classComPWA_1_1ComplexConjugate.html" target="_top" xlink:title="{ComPWA::ComplexConjugate\n||+ ComplexConjugate()\l+ ~ComplexConjugate()\l+ to_str()\l+ execute()\l}">
<polygon fill="white" stroke="black" points="246,-1 246,-91 396,-91 396,-1 246,-1"/>
<text text-anchor="middle" x="321" y="-79" font-family="Helvetica,sans-Serif" font-size="10.00">ComPWA::ComplexConjugate</text>
<polyline fill="none" stroke="black" points="246,-72 396,-72 "/>
<text text-anchor="middle" x="321" y="-60" font-family="Helvetica,sans-Serif" font-size="10.00"> </text>
<polyline fill="none" stroke="black" points="246,-53 396,-53 "/>
<text text-anchor="start" x="254" y="-41" font-family="Helvetica,sans-Serif" font-size="10.00">+ ComplexConjugate()</text>
<text text-anchor="start" x="254" y="-30" font-family="Helvetica,sans-Serif" font-size="10.00">+ ~ComplexConjugate()</text>
<text text-anchor="start" x="254" y="-19" font-family="Helvetica,sans-Serif" font-size="10.00">+ to_str()</text>
<text text-anchor="start" x="254" y="-8" font-family="Helvetica,sans-Serif" font-size="10.00">+ execute()</text>
</a>
</g>
</g>
<!-- Node1&#45;&gt;Node4 -->
<g id="edge3" class="edge"><title>Node1&#45;&gt;Node4</title>
<path fill="none" stroke="midnightblue" d="M762.874,-170.998C679.53,-160.328 527.796,-136.392 405,-92 402.044,-90.9313 399.064,-89.7734 396.08,-88.5454"/>
<polygon fill="none" stroke="midnightblue" points="762.579,-174.489 772.938,-172.264 763.453,-167.543 762.579,-174.489"/>
</g>
<!-- Node5 -->
<g id="node5" class="node"><title>Node5</title>
<g id="a_node5"><a xlink:href="../../d0/dc9/classComPWA_1_1Complexify.html" target="_top" xlink:title="{ComPWA::Complexify\n||+ Complexify()\l+ ~Complexify()\l+ to_str()\l+ execute()\l}">
<polygon fill="white" stroke="black" points="414,-1 414,-91 530,-91 530,-1 414,-1"/>
<text text-anchor="middle" x="472" y="-79" font-family="Helvetica,sans-Serif" font-size="10.00">ComPWA::Complexify</text>
<polyline fill="none" stroke="black" points="414,-72 530,-72 "/>
<text text-anchor="middle" x="472" y="-60" font-family="Helvetica,sans-Serif" font-size="10.00"> </text>
<polyline fill="none" stroke="black" points="414,-53 530,-53 "/>
<text text-anchor="start" x="422" y="-41" font-family="Helvetica,sans-Serif" font-size="10.00">+ Complexify()</text>
<text text-anchor="start" x="422" y="-30" font-family="Helvetica,sans-Serif" font-size="10.00">+ ~Complexify()</text>
<text text-anchor="start" x="422" y="-19" font-family="Helvetica,sans-Serif" font-size="10.00">+ to_str()</text>
<text text-anchor="start" x="422" y="-8" font-family="Helvetica,sans-Serif" font-size="10.00">+ execute()</text>
</a>
</g>
</g>
<!-- Node1&#45;&gt;Node5 -->
<g id="edge4" class="edge"><title>Node1&#45;&gt;Node5</title>
<path fill="none" stroke="midnightblue" d="M762.961,-165.019C703.668,-151.313 612.662,-126.838 539,-92 536.087,-90.6221 533.156,-89.1286 530.235,-87.5514"/>
<polygon fill="none" stroke="midnightblue" points="762.396,-168.48 772.924,-167.29 763.951,-161.655 762.396,-168.48"/>
</g>
<!-- Node6 -->
<g id="node6" class="node"><title>Node6</title>
<g id="a_node6"><a xlink:href="../../d7/d64/classComPWA_1_1Inverse.html" target="_top" xlink:title="{ComPWA::Inverse\n||+ Inverse()\l+ ~Inverse()\l+ to_str()\l+ execute()\l}">
<polygon fill="white" stroke="black" points="548.5,-1 548.5,-91 647.5,-91 647.5,-1 548.5,-1"/>
<text text-anchor="middle" x="598" y="-79" font-family="Helvetica,sans-Serif" font-size="10.00">ComPWA::Inverse</text>
<polyline fill="none" stroke="black" points="548.5,-72 647.5,-72 "/>
<text text-anchor="middle" x="598" y="-60" font-family="Helvetica,sans-Serif" font-size="10.00"> </text>
<polyline fill="none" stroke="black" points="548.5,-53 647.5,-53 "/>
<text text-anchor="start" x="556.5" y="-41" font-family="Helvetica,sans-Serif" font-size="10.00">+ Inverse()</text>
<text text-anchor="start" x="556.5" y="-30" font-family="Helvetica,sans-Serif" font-size="10.00">+ ~Inverse()</text>
<text text-anchor="start" x="556.5" y="-19" font-family="Helvetica,sans-Serif" font-size="10.00">+ to_str()</text>
<text text-anchor="start" x="556.5" y="-8" font-family="Helvetica,sans-Serif" font-size="10.00">+ execute()</text>
</a>
</g>
</g>
<!-- Node1&#45;&gt;Node6 -->
<g id="edge5" class="edge"><title>Node1&#45;&gt;Node6</title>
<path fill="none" stroke="midnightblue" d="M763.92,-150.371C731.104,-134.678 690.431,-113.841 656,-92 653.202,-90.225 650.374,-88.3464 647.551,-86.4035"/>
<polygon fill="none" stroke="midnightblue" points="762.421,-153.533 772.956,-154.657 765.421,-147.209 762.421,-153.533"/>
</g>
<!-- Node7 -->
<g id="node7" class="node"><title>Node7</title>
<g id="a_node7"><a xlink:href="../../df/d91/classComPWA_1_1LogOf.html" target="_top" xlink:title="{ComPWA::LogOf\n||+ LogOf()\l+ ~LogOf()\l+ to_str()\l+ execute()\l}">
<polygon fill="white" stroke="black" points="665.5,-1 665.5,-91 758.5,-91 758.5,-1 665.5,-1"/>
<text text-anchor="middle" x="712" y="-79" font-family="Helvetica,sans-Serif" font-size="10.00">ComPWA::LogOf</text>
<polyline fill="none" stroke="black" points="665.5,-72 758.5,-72 "/>
<text text-anchor="middle" x="712" y="-60" font-family="Helvetica,sans-Serif" font-size="10.00"> </text>
<polyline fill="none" stroke="black" points="665.5,-53 758.5,-53 "/>
<text text-anchor="start" x="673.5" y="-41" font-family="Helvetica,sans-Serif" font-size="10.00">+ LogOf()</text>
<text text-anchor="start" x="673.5" y="-30" font-family="Helvetica,sans-Serif" font-size="10.00">+ ~LogOf()</text>
<text text-anchor="start" x="673.5" y="-19" font-family="Helvetica,sans-Serif" font-size="10.00">+ to_str()</text>
<text text-anchor="start" x="673.5" y="-8" font-family="Helvetica,sans-Serif" font-size="10.00">+ execute()</text>
</a>
</g>
</g>
<!-- Node1&#45;&gt;Node7 -->
<g id="edge6" class="edge"><title>Node1&#45;&gt;Node7</title>
<path fill="none" stroke="midnightblue" d="M775.733,-120.885C767.096,-110.872 758.229,-100.593 749.959,-91.0055"/>
<polygon fill="none" stroke="midnightblue" points="773.098,-123.188 782.28,-128.475 778.398,-118.616 773.098,-123.188"/>
</g>
<!-- Node8 -->
<g id="node8" class="node"><title>Node8</title>
<g id="a_node8"><a xlink:href="../../de/d37/classComPWA_1_1MultAll.html" target="_top" xlink:title="{ComPWA::MultAll\n||+ MultAll()\l+ ~MultAll()\l+ to_str()\l+ execute()\l}">
<polygon fill="white" stroke="black" points="776.5,-1 776.5,-91 873.5,-91 873.5,-1 776.5,-1"/>
<text text-anchor="middle" x="825" y="-79" font-family="Helvetica,sans-Serif" font-size="10.00">ComPWA::MultAll</text>
<polyline fill="none" stroke="black" points="776.5,-72 873.5,-72 "/>
<text text-anchor="middle" x="825" y="-60" font-family="Helvetica,sans-Serif" font-size="10.00"> </text>
<polyline fill="none" stroke="black" points="776.5,-53 873.5,-53 "/>
<text text-anchor="start" x="784.5" y="-41" font-family="Helvetica,sans-Serif" font-size="10.00">+ MultAll()</text>
<text text-anchor="start" x="784.5" y="-30" font-family="Helvetica,sans-Serif" font-size="10.00">+ ~MultAll()</text>
<text text-anchor="start" x="784.5" y="-19" font-family="Helvetica,sans-Serif" font-size="10.00">+ to_str()</text>
<text text-anchor="start" x="784.5" y="-8" font-family="Helvetica,sans-Serif" font-size="10.00">+ execute()</text>
</a>
</g>
</g>
<!-- Node1&#45;&gt;Node8 -->
<g id="edge7" class="edge"><title>Node1&#45;&gt;Node8</title>
<path fill="none" stroke="midnightblue" d="M825,-118.229C825,-109.064 825,-99.7473 825,-91.0055"/>
<polygon fill="none" stroke="midnightblue" points="821.5,-118.474 825,-128.475 828.5,-118.475 821.5,-118.474"/>
</g>
<!-- Node9 -->
<g id="node9" class="node"><title>Node9</title>
<g id="a_node9"><a xlink:href="../../df/d9c/classComPWA_1_1Physics_1_1HelicityFormalism_1_1BreitWignerStrategy.html" target="_top" xlink:title="{ComPWA::Physics::Helicity\lFormalism::BreitWignerStrategy\n|# name\l|+ BreitWignerStrategy()\l+ to_str()\l+ execute()\l}">
<polygon fill="white" stroke="black" points="892,-1 892,-91 1048,-91 1048,-1 892,-1"/>
<text text-anchor="start" x="900" y="-79" font-family="Helvetica,sans-Serif" font-size="10.00">ComPWA::Physics::Helicity</text>
<text text-anchor="middle" x="970" y="-68" font-family="Helvetica,sans-Serif" font-size="10.00">Formalism::BreitWignerStrategy</text>
<polyline fill="none" stroke="black" points="892,-61 1048,-61 "/>
<text text-anchor="start" x="900" y="-49" font-family="Helvetica,sans-Serif" font-size="10.00"># name</text>
<polyline fill="none" stroke="black" points="892,-42 1048,-42 "/>
<text text-anchor="start" x="900" y="-30" font-family="Helvetica,sans-Serif" font-size="10.00">+ BreitWignerStrategy()</text>
<text text-anchor="start" x="900" y="-19" font-family="Helvetica,sans-Serif" font-size="10.00">+ to_str()</text>
<text text-anchor="start" x="900" y="-8" font-family="Helvetica,sans-Serif" font-size="10.00">+ execute()</text>
</a>
</g>
</g>
<!-- Node1&#45;&gt;Node9 -->
<g id="edge8" class="edge"><title>Node1&#45;&gt;Node9</title>
<path fill="none" stroke="midnightblue" d="M884.798,-123.976C896.883,-113.057 909.455,-101.7 921.112,-91.168"/>
<polygon fill="none" stroke="midnightblue" points="882.422,-121.405 877.348,-130.706 887.115,-126.599 882.422,-121.405"/>
</g>
<!-- Node10 -->
<g id="node10" class="node"><title>Node10</title>
<g id="a_node10"><a xlink:href="../../da/d33/classComPWA_1_1Physics_1_1HelicityFormalism_1_1FlatteStrategy.html" target="_top" xlink:title="{ComPWA::Physics::Helicity\lFormalism::FlatteStrategy\n|# name\l|+ FlatteStrategy()\l+ to_str()\l+ execute()\l}">
<polygon fill="white" stroke="black" points="1066.5,-1 1066.5,-91 1207.5,-91 1207.5,-1 1066.5,-1"/>
<text text-anchor="start" x="1074.5" y="-79" font-family="Helvetica,sans-Serif" font-size="10.00">ComPWA::Physics::Helicity</text>
<text text-anchor="middle" x="1137" y="-68" font-family="Helvetica,sans-Serif" font-size="10.00">Formalism::FlatteStrategy</text>
<polyline fill="none" stroke="black" points="1066.5,-61 1207.5,-61 "/>
<text text-anchor="start" x="1074.5" y="-49" font-family="Helvetica,sans-Serif" font-size="10.00"># name</text>
<polyline fill="none" stroke="black" points="1066.5,-42 1207.5,-42 "/>
<text text-anchor="start" x="1074.5" y="-30" font-family="Helvetica,sans-Serif" font-size="10.00">+ FlatteStrategy()</text>
<text text-anchor="start" x="1074.5" y="-19" font-family="Helvetica,sans-Serif" font-size="10.00">+ to_str()</text>
<text text-anchor="start" x="1074.5" y="-8" font-family="Helvetica,sans-Serif" font-size="10.00">+ execute()</text>
</a>
</g>
</g>
<!-- Node1&#45;&gt;Node10 -->
<g id="edge9" class="edge"><title>Node1&#45;&gt;Node10</title>
<path fill="none" stroke="midnightblue" d="M886.598,-158.127C933.98,-142.136 1000.66,-118.091 1057,-92 1060.04,-90.5938 1063.11,-89.1154 1066.2,-87.5863"/>
<polygon fill="none" stroke="midnightblue" points="885.458,-154.817 877.09,-161.315 887.684,-161.454 885.458,-154.817"/>
</g>
<!-- Node11 -->
<g id="node11" class="node"><title>Node11</title>
<g id="a_node11"><a xlink:href="../../df/d8b/classComPWA_1_1Physics_1_1HelicityFormalism_1_1WignerDStrategy.html" target="_top" xlink:title="{ComPWA::Physics::Helicity\lFormalism::WignerDStrategy\n|# name\l|+ WignerDStrategy()\l+ to_str()\l+ execute()\l}">
<polygon fill="white" stroke="black" points="1225.5,-1 1225.5,-91 1368.5,-91 1368.5,-1 1225.5,-1"/>
<text text-anchor="start" x="1233.5" y="-79" font-family="Helvetica,sans-Serif" font-size="10.00">ComPWA::Physics::Helicity</text>
<text text-anchor="middle" x="1297" y="-68" font-family="Helvetica,sans-Serif" font-size="10.00">Formalism::WignerDStrategy</text>
<polyline fill="none" stroke="black" points="1225.5,-61 1368.5,-61 "/>
<text text-anchor="start" x="1233.5" y="-49" font-family="Helvetica,sans-Serif" font-size="10.00"># name</text>
<polyline fill="none" stroke="black" points="1225.5,-42 1368.5,-42 "/>
<text text-anchor="start" x="1233.5" y="-30" font-family="Helvetica,sans-Serif" font-size="10.00">+ WignerDStrategy()</text>
<text text-anchor="start" x="1233.5" y="-19" font-family="Helvetica,sans-Serif" font-size="10.00">+ to_str()</text>
<text text-anchor="start" x="1233.5" y="-8" font-family="Helvetica,sans-Serif" font-size="10.00">+ execute()</text>
</a>
</g>
</g>
<!-- Node1&#45;&gt;Node11 -->
<g id="edge10" class="edge"><title>Node1&#45;&gt;Node11</title>
<path fill="none" stroke="midnightblue" d="M887.516,-169.971C966.08,-158.598 1104.17,-134.321 1216,-92 1219.01,-90.8612 1222.04,-89.6256 1225.08,-88.3155"/>
<polygon fill="none" stroke="midnightblue" points="886.708,-166.551 877.301,-171.426 887.695,-173.481 886.708,-166.551"/>
</g>
<!-- Node12 -->
<g id="node12" class="node"><title>Node12</title>
<g id="a_node12"><a xlink:href="../../d2/da0/classComPWA_1_1Power.html" target="_top" xlink:title="{ComPWA::Power\n||+ Power()\l+ ~Power()\l+ to_str()\l+ execute()\l}">
<polygon fill="white" stroke="black" points="1386.5,-1 1386.5,-91 1481.5,-91 1481.5,-1 1386.5,-1"/>
<text text-anchor="middle" x="1434" y="-79" font-family="Helvetica,sans-Serif" font-size="10.00">ComPWA::Power</text>
<polyline fill="none" stroke="black" points="1386.5,-72 1481.5,-72 "/>
<text text-anchor="middle" x="1434" y="-60" font-family="Helvetica,sans-Serif" font-size="10.00"> </text>
<polyline fill="none" stroke="black" points="1386.5,-53 1481.5,-53 "/>
<text text-anchor="start" x="1394.5" y="-41" font-family="Helvetica,sans-Serif" font-size="10.00">+ Power()</text>
<text text-anchor="start" x="1394.5" y="-30" font-family="Helvetica,sans-Serif" font-size="10.00">+ ~Power()</text>
<text text-anchor="start" x="1394.5" y="-19" font-family="Helvetica,sans-Serif" font-size="10.00">+ to_str()</text>
<text text-anchor="start" x="1394.5" y="-8" font-family="Helvetica,sans-Serif" font-size="10.00">+ execute()</text>
</a>
</g>
</g>
<!-- Node1&#45;&gt;Node12 -->
<g id="edge11" class="edge"><title>Node1&#45;&gt;Node12</title>
<path fill="none" stroke="midnightblue" d="M887.419,-178.433C992.798,-176.991 1210.74,-164.541 1377,-92 1380.12,-90.6386 1383.22,-89.0639 1386.26,-87.3358"/>
<polygon fill="none" stroke="midnightblue" points="887.234,-174.935 877.273,-178.543 887.31,-181.935 887.234,-174.935"/>
</g>
<!-- Node13 -->
<g id="node13" class="node"><title>Node13</title>
<g id="a_node13"><a xlink:href="../../d3/d92/classComPWA_1_1Real.html" target="_top" xlink:title="{ComPWA::Real\n||+ Real()\l+ ~Real()\l+ to_str()\l+ execute()\l}">
<polygon fill="white" stroke="black" points="1499.5,-1 1499.5,-91 1586.5,-91 1586.5,-1 1499.5,-1"/>
<text text-anchor="middle" x="1543" y="-79" font-family="Helvetica,sans-Serif" font-size="10.00">ComPWA::Real</text>
<polyline fill="none" stroke="black" points="1499.5,-72 1586.5,-72 "/>
<text text-anchor="middle" x="1543" y="-60" font-family="Helvetica,sans-Serif" font-size="10.00"> </text>
<polyline fill="none" stroke="black" points="1499.5,-53 1586.5,-53 "/>
<text text-anchor="start" x="1507.5" y="-41" font-family="Helvetica,sans-Serif" font-size="10.00">+ Real()</text>
<text text-anchor="start" x="1507.5" y="-30" font-family="Helvetica,sans-Serif" font-size="10.00">+ ~Real()</text>
<text text-anchor="start" x="1507.5" y="-19" font-family="Helvetica,sans-Serif" font-size="10.00">+ to_str()</text>
<text text-anchor="start" x="1507.5" y="-8" font-family="Helvetica,sans-Serif" font-size="10.00">+ execute()</text>
</a>
</g>
</g>
<!-- Node1&#45;&gt;Node13 -->
<g id="edge12" class="edge"><title>Node1&#45;&gt;Node13</title>
<path fill="none" stroke="midnightblue" d="M887.134,-174.468C1030.92,-165.578 1382.52,-139.521 1490,-92 1493.2,-90.5845 1496.36,-88.9123 1499.44,-87.0596"/>
<polygon fill="none" stroke="midnightblue" points="886.914,-170.975 877.146,-175.079 887.341,-177.962 886.914,-170.975"/>
</g>
<!-- Node14 -->
<g id="node14" class="node"><title>Node14</title>
<g id="a_node14"><a xlink:href="../../df/df9/classComPWA_1_1SquareRoot.html" target="_top" xlink:title="{ComPWA::SquareRoot\n||+ SquareRoot()\l+ ~SquareRoot()\l+ to_str()\l+ execute()\l}">
<polygon fill="white" stroke="black" points="1604.5,-1 1604.5,-91 1723.5,-91 1723.5,-1 1604.5,-1"/>
<text text-anchor="middle" x="1664" y="-79" font-family="Helvetica,sans-Serif" font-size="10.00">ComPWA::SquareRoot</text>
<polyline fill="none" stroke="black" points="1604.5,-72 1723.5,-72 "/>
<text text-anchor="middle" x="1664" y="-60" font-family="Helvetica,sans-Serif" font-size="10.00"> </text>
<polyline fill="none" stroke="black" points="1604.5,-53 1723.5,-53 "/>
<text text-anchor="start" x="1612.5" y="-41" font-family="Helvetica,sans-Serif" font-size="10.00">+ SquareRoot()</text>
<text text-anchor="start" x="1612.5" y="-30" font-family="Helvetica,sans-Serif" font-size="10.00">+ ~SquareRoot()</text>
<text text-anchor="start" x="1612.5" y="-19" font-family="Helvetica,sans-Serif" font-size="10.00">+ to_str()</text>
<text text-anchor="start" x="1612.5" y="-8" font-family="Helvetica,sans-Serif" font-size="10.00">+ execute()</text>
</a>
</g>
</g>
<!-- Node1&#45;&gt;Node14 -->
<g id="edge13" class="edge"><title>Node1&#45;&gt;Node14</title>
<path fill="none" stroke="midnightblue" d="M887.341,-174.761C1046.56,-165.897 1464.77,-138.739 1595,-92 1598.1,-90.8889 1601.19,-89.6142 1604.26,-88.2143"/>
<polygon fill="none" stroke="midnightblue" points="887.026,-171.273 877.234,-175.318 887.412,-178.262 887.026,-171.273"/>
</g>
</g>
</svg>
