<?xml version="1.0" encoding="UTF-8" standalone="no"?>
<!DOCTYPE svg PUBLIC "-//W3C//DTD SVG 1.1//EN"
 "http://www.w3.org/Graphics/SVG/1.1/DTD/svg11.dtd">
<!-- Generated by graphviz version 2.36.0 (20140111.2315)
 -->
<!-- Title: /home/travis/build/ComPWA/ComPWA/Physics/AmplitudeSum/AmpFlatteRes.hpp Pages: 1 -->
<svg width="1389pt" height="410pt"
 viewBox="0.00 0.00 1388.73 410.00" xmlns="http://www.w3.org/2000/svg" xmlns:xlink="http://www.w3.org/1999/xlink">
<g id="graph0" class="graph" transform="scale(1 1) rotate(0) translate(4 406)">
<title>/home/travis/build/ComPWA/ComPWA/Physics/AmplitudeSum/AmpFlatteRes.hpp</title>
<polygon fill="white" stroke="none" points="-4,4 -4,-406 1384.73,-406 1384.73,4 -4,4"/>
<!-- Node1 -->
<g id="node1" class="node"><title>Node1</title>
<polygon fill="#bfbfbf" stroke="black" points="853.731,-360.5 853.731,-401.5 1021.73,-401.5 1021.73,-360.5 853.731,-360.5"/>
<text text-anchor="start" x="861.731" y="-389.5" font-family="Helvetica,sans-Serif" font-size="10.00">/home/travis/build</text>
<text text-anchor="start" x="861.731" y="-378.5" font-family="Helvetica,sans-Serif" font-size="10.00">/ComPWA/ComPWA/Physics</text>
<text text-anchor="middle" x="937.731" y="-367.5" font-family="Helvetica,sans-Serif" font-size="10.00">/AmplitudeSum/AmpFlatteRes.hpp</text>
</g>
<!-- Node2 -->
<g id="node2" class="node"><title>Node2</title>
<polygon fill="white" stroke="#bfbfbf" points="1023.73,-0.5 1023.73,-19.5 1067.73,-19.5 1067.73,-0.5 1023.73,-0.5"/>
<text text-anchor="middle" x="1045.73" y="-7.5" font-family="Helvetica,sans-Serif" font-size="10.00">vector</text>
</g>
<!-- Node1&#45;&gt;Node2 -->
<g id="edge1" class="edge"><title>Node1&#45;&gt;Node2</title>
<path fill="none" stroke="midnightblue" d="M1021.84,-370.963C1150.32,-354.789 1380.73,-315.41 1380.73,-241 1380.73,-241 1380.73,-241 1380.73,-121 1380.73,-57.673 1161.91,-24.8568 1077.97,-14.5984"/>
<polygon fill="midnightblue" stroke="midnightblue" points="1078.32,-11.1145 1067.97,-13.4054 1077.49,-18.0653 1078.32,-11.1145"/>
</g>
<!-- Node3 -->
<g id="node3" class="node"><title>Node3</title>
<polygon fill="white" stroke="#bfbfbf" points="19.7311,-56.5 19.7311,-75.5 63.7311,-75.5 63.7311,-56.5 19.7311,-56.5"/>
<text text-anchor="middle" x="41.7311" y="-63.5" font-family="Helvetica,sans-Serif" font-size="10.00">cmath</text>
</g>
<!-- Node1&#45;&gt;Node3 -->
<g id="edge2" class="edge"><title>Node1&#45;&gt;Node3</title>
<path fill="none" stroke="midnightblue" d="M853.601,-375.636C631.745,-363.011 47.7311,-322.077 47.7311,-241 47.7311,-241 47.7311,-241 47.7311,-177 47.7311,-144.9 45.1522,-107.61 43.3758,-85.7319"/>
<polygon fill="midnightblue" stroke="midnightblue" points="46.8451,-85.2189 42.5155,-75.5491 39.8699,-85.8083 46.8451,-85.2189"/>
</g>
<!-- Node4 -->
<g id="node4" class="node"><title>Node4</title>
<g id="a_node4"><a xlink:href="../../d3/d76/AmpAbsDynamicalFunction_8hpp.html" target="_top" xlink:title="Physics/AmplitudeSum\l/AmpAbsDynamicalFunction.hpp">
<polygon fill="white" stroke="black" points="857.731,-293 857.731,-323 1017.73,-323 1017.73,-293 857.731,-293"/>
<text text-anchor="start" x="865.731" y="-311" font-family="Helvetica,sans-Serif" font-size="10.00">Physics/AmplitudeSum</text>
<text text-anchor="middle" x="937.731" y="-300" font-family="Helvetica,sans-Serif" font-size="10.00">/AmpAbsDynamicalFunction.hpp</text>
</a>
</g>
</g>
<!-- Node1&#45;&gt;Node4 -->
<g id="edge3" class="edge"><title>Node1&#45;&gt;Node4</title>
<path fill="none" stroke="midnightblue" d="M937.731,-360.223C937.731,-351.821 937.731,-341.948 937.731,-333.123"/>
<polygon fill="midnightblue" stroke="midnightblue" points="941.231,-333.048 937.731,-323.049 934.231,-333.049 941.231,-333.048"/>
</g>
<!-- Node4&#45;&gt;Node2 -->
<g id="edge4" class="edge"><title>Node4&#45;&gt;Node2</title>
<path fill="none" stroke="midnightblue" d="M1018.03,-297.876C1077.68,-289.651 1152.7,-275.791 1176.73,-256 1222.23,-218.532 1214.6,-190.226 1223.73,-132 1229.08,-97.8983 1232.23,-80.3182 1207.73,-56 1173.04,-21.5611 1114.41,-12.9228 1078.01,-11.0669"/>
<polygon fill="midnightblue" stroke="midnightblue" points="1078.04,-7.56592 1067.92,-10.6972 1077.79,-14.5612 1078.04,-7.56592"/>
</g>
<!-- Node5 -->
<g id="node5" class="node"><title>Node5</title>
<polygon fill="white" stroke="#bfbfbf" points="581.231,-56.5 581.231,-75.5 634.231,-75.5 634.231,-56.5 581.231,-56.5"/>
<text text-anchor="middle" x="607.731" y="-63.5" font-family="Helvetica,sans-Serif" font-size="10.00">complex</text>
</g>
<!-- Node4&#45;&gt;Node5 -->
<g id="edge5" class="edge"><title>Node4&#45;&gt;Node5</title>
<path fill="none" stroke="midnightblue" d="M857.365,-301.405C753.651,-289.371 576.913,-251.456 495.731,-132 490.735,-124.648 490.753,-119.364 495.731,-112 504.601,-98.8769 542.052,-85.5603 571.236,-76.8551"/>
<polygon fill="midnightblue" stroke="midnightblue" points="572.525,-80.1254 581.153,-73.9762 570.574,-73.4029 572.525,-80.1254"/>
</g>
<!-- Node6 -->
<g id="node6" class="node"><title>Node6</title>
<polygon fill="white" stroke="#bfbfbf" points="1251.23,-225 1251.23,-255 1352.23,-255 1352.23,-225 1251.23,-225"/>
<text text-anchor="start" x="1259.23" y="-243" font-family="Helvetica,sans-Serif" font-size="10.00">boost/property_tree</text>
<text text-anchor="middle" x="1301.73" y="-232" font-family="Helvetica,sans-Serif" font-size="10.00">/ptree.hpp</text>
</g>
<!-- Node4&#45;&gt;Node6 -->
<g id="edge6" class="edge"><title>Node4&#45;&gt;Node6</title>
<path fill="none" stroke="midnightblue" d="M1017.91,-294.615C1078.25,-284.982 1162.9,-270.803 1236.73,-256 1238.19,-255.708 1239.66,-255.408 1241.14,-255.101"/>
<polygon fill="midnightblue" stroke="midnightblue" points="1242,-258.498 1251.05,-252.994 1240.54,-251.651 1242,-258.498"/>
</g>
<!-- Node7 -->
<g id="node7" class="node"><title>Node7</title>
<g id="a_node7"><a xlink:href="../../db/dce/Parameter_8hpp.html" target="_top" xlink:title="This class implements some internal container of parameters. ">
<polygon fill="white" stroke="black" points="344.731,-112.5 344.731,-131.5 448.731,-131.5 448.731,-112.5 344.731,-112.5"/>
<text text-anchor="middle" x="396.731" y="-119.5" font-family="Helvetica,sans-Serif" font-size="10.00">Core/Parameter.hpp</text>
</a>
</g>
</g>
<!-- Node4&#45;&gt;Node7 -->
<g id="edge7" class="edge"><title>Node4&#45;&gt;Node7</title>
<path fill="none" stroke="midnightblue" d="M857.618,-307.498C739.2,-306.743 524.741,-299.207 462.731,-256 423.536,-228.69 406.501,-171.22 400.083,-141.569"/>
<polygon fill="midnightblue" stroke="midnightblue" points="403.501,-140.814 398.118,-131.688 396.635,-142.179 403.501,-140.814"/>
</g>
<!-- Node15 -->
<g id="node15" class="node"><title>Node15</title>
<g id="a_node15"><a xlink:href="../../d8/dd4/DataPoint_8hpp.html" target="_top" xlink:title="dataPoint stores kinematic information of a dalitz plot ">
<polygon fill="white" stroke="black" points="821.231,-168.5 821.231,-187.5 924.231,-187.5 924.231,-168.5 821.231,-168.5"/>
<text text-anchor="middle" x="872.731" y="-175.5" font-family="Helvetica,sans-Serif" font-size="10.00">Core/DataPoint.hpp</text>
</a>
</g>
</g>
<!-- Node4&#45;&gt;Node15 -->
<g id="edge20" class="edge"><title>Node4&#45;&gt;Node15</title>
<path fill="none" stroke="midnightblue" d="M910.413,-292.924C896.739,-284.281 881.481,-271.821 873.731,-256 864.748,-237.66 866.129,-213.793 868.704,-197.523"/>
<polygon fill="midnightblue" stroke="midnightblue" points="872.155,-198.109 870.565,-187.635 865.276,-196.815 872.155,-198.109"/>
</g>
<!-- Node22 -->
<g id="node22" class="node"><title>Node22</title>
<g id="a_node22"><a xlink:href="../../da/db2/FunctionTree_8hpp.html" target="_top" xlink:title="This class can be used to store a function in a tree&#45;like structure. ">
<polygon fill="white" stroke="red" points="962.731,-168.5 962.731,-187.5 1078.73,-187.5 1078.73,-168.5 962.731,-168.5"/>
<text text-anchor="middle" x="1020.73" y="-175.5" font-family="Helvetica,sans-Serif" font-size="10.00">Core/FunctionTree.hpp</text>
</a>
</g>
</g>
<!-- Node4&#45;&gt;Node22 -->
<g id="edge38" class="edge"><title>Node4&#45;&gt;Node22</title>
<path fill="none" stroke="midnightblue" d="M961.916,-292.857C975.228,-283.893 990.978,-271.143 1000.73,-256 1012.15,-238.263 1017.07,-214.279 1019.17,-197.817"/>
<polygon fill="midnightblue" stroke="midnightblue" points="1022.66,-198.103 1020.22,-187.792 1015.7,-197.371 1022.66,-198.103"/>
</g>
<!-- Node23 -->
<g id="node23" class="node"><title>Node23</title>
<g id="a_node23"><a xlink:href="../../d8/d35/PhysConst_8hpp.html" target="_top" xlink:title="PhysConst provides particle information to the framework. ">
<polygon fill="white" stroke="red" points="131.731,-168.5 131.731,-187.5 239.731,-187.5 239.731,-168.5 131.731,-168.5"/>
<text text-anchor="middle" x="185.731" y="-175.5" font-family="Helvetica,sans-Serif" font-size="10.00">Core/PhysConst.hpp</text>
</a>
</g>
</g>
<!-- Node4&#45;&gt;Node23 -->
<g id="edge44" class="edge"><title>Node4&#45;&gt;Node23</title>
<path fill="none" stroke="midnightblue" d="M857.407,-306.524C748.792,-304.316 549.695,-294.726 384.731,-256 320.671,-240.962 249.702,-209.722 212.253,-192.003"/>
<polygon fill="midnightblue" stroke="midnightblue" points="213.576,-188.757 203.045,-187.598 210.555,-195.071 213.576,-188.757"/>
</g>
<!-- Node24 -->
<g id="node24" class="node"><title>Node24</title>
<g id="a_node24"><a xlink:href="../../d4/d62/Resonance_8hpp.html" target="_top" xlink:title="Core/Resonance.hpp">
<polygon fill="white" stroke="red" points="883.231,-230.5 883.231,-249.5 992.231,-249.5 992.231,-230.5 883.231,-230.5"/>
<text text-anchor="middle" x="937.731" y="-237.5" font-family="Helvetica,sans-Serif" font-size="10.00">Core/Resonance.hpp</text>
</a>
</g>
</g>
<!-- Node4&#45;&gt;Node24 -->
<g id="edge48" class="edge"><title>Node4&#45;&gt;Node24</title>
<path fill="none" stroke="midnightblue" d="M937.731,-292.679C937.731,-283.101 937.731,-270.394 937.731,-259.977"/>
<polygon fill="midnightblue" stroke="midnightblue" points="941.231,-259.828 937.731,-249.828 934.231,-259.828 941.231,-259.828"/>
</g>
<!-- Node25 -->
<g id="node25" class="node"><title>Node25</title>
<g id="a_node25"><a xlink:href="../../d0/d2a/AmpWigner2_8hpp.html" target="_top" xlink:title="Angular distribution based on WignerD functions. ">
<polygon fill="white" stroke="red" points="1049.23,-225 1049.23,-255 1168.23,-255 1168.23,-225 1049.23,-225"/>
<text text-anchor="start" x="1057.23" y="-243" font-family="Helvetica,sans-Serif" font-size="10.00">Physics/AmplitudeSum</text>
<text text-anchor="middle" x="1108.73" y="-232" font-family="Helvetica,sans-Serif" font-size="10.00">/AmpWigner2.hpp</text>
</a>
</g>
</g>
<!-- Node4&#45;&gt;Node25 -->
<g id="edge54" class="edge"><title>Node4&#45;&gt;Node25</title>
<path fill="none" stroke="midnightblue" d="M974.415,-292.841C1000.31,-282.846 1035.19,-269.383 1062.92,-258.682"/>
<polygon fill="midnightblue" stroke="midnightblue" points="1064.33,-261.888 1072.4,-255.022 1061.81,-255.357 1064.33,-261.888"/>
</g>
<!-- Node7&#45;&gt;Node3 -->
<g id="edge13" class="edge"><title>Node7&#45;&gt;Node3</title>
<path fill="none" stroke="midnightblue" d="M344.731,-113.09C270.27,-101.764 135.484,-81.261 73.9412,-71.8996"/>
<polygon fill="midnightblue" stroke="midnightblue" points="74.4341,-68.4344 64.0214,-70.3906 73.3813,-75.3548 74.4341,-68.4344"/>
</g>
<!-- Node7&#45;&gt;Node5 -->
<g id="edge11" class="edge"><title>Node7&#45;&gt;Node5</title>
<path fill="none" stroke="midnightblue" d="M430.165,-112.444C468.648,-102.595 531.637,-86.4742 571.33,-76.3159"/>
<polygon fill="midnightblue" stroke="midnightblue" points="572.315,-79.6768 581.135,-73.8067 570.579,-72.8953 572.315,-79.6768"/>
</g>
<!-- Node8 -->
<g id="node8" class="node"><title>Node8</title>
<polygon fill="white" stroke="#bfbfbf" points="368.731,-0.5 368.731,-19.5 422.731,-19.5 422.731,-0.5 368.731,-0.5"/>
<text text-anchor="middle" x="395.731" y="-7.5" font-family="Helvetica,sans-Serif" font-size="10.00">iostream</text>
</g>
<!-- Node7&#45;&gt;Node8 -->
<g id="edge8" class="edge"><title>Node7&#45;&gt;Node8</title>
<path fill="none" stroke="midnightblue" d="M344.488,-119.117C279.235,-115.54 173.165,-105.266 148.731,-76 143.034,-69.1766 143.037,-62.8255 148.731,-56 174.995,-24.519 296.035,-15.0055 358.379,-12.1737"/>
<polygon fill="midnightblue" stroke="midnightblue" points="358.736,-15.6619 368.581,-11.7463 358.443,-8.66804 358.736,-15.6619"/>
</g>
<!-- Node9 -->
<g id="node9" class="node"><title>Node9</title>
<polygon fill="white" stroke="#bfbfbf" points="753.231,-0.5 753.231,-19.5 794.231,-19.5 794.231,-0.5 753.231,-0.5"/>
<text text-anchor="middle" x="773.731" y="-7.5" font-family="Helvetica,sans-Serif" font-size="10.00">string</text>
</g>
<!-- Node7&#45;&gt;Node9 -->
<g id="edge9" class="edge"><title>Node7&#45;&gt;Node9</title>
<path fill="none" stroke="midnightblue" d="M369.485,-112.482C337.46,-101.129 291.236,-79.6957 312.731,-56 341.634,-24.1385 644.298,-14.1008 742.882,-11.664"/>
<polygon fill="midnightblue" stroke="midnightblue" points="743.169,-15.1582 753.083,-11.4212 743.002,-8.16019 743.169,-15.1582"/>
</g>
<!-- Node10 -->
<g id="node10" class="node"><title>Node10</title>
<polygon fill="white" stroke="#bfbfbf" points="399.731,-56.5 399.731,-75.5 451.731,-75.5 451.731,-56.5 399.731,-56.5"/>
<text text-anchor="middle" x="425.731" y="-63.5" font-family="Helvetica,sans-Serif" font-size="10.00">sstream</text>
</g>
<!-- Node7&#45;&gt;Node10 -->
<g id="edge10" class="edge"><title>Node7&#45;&gt;Node10</title>
<path fill="none" stroke="midnightblue" d="M401.52,-112.083C405.489,-104.691 411.256,-93.9533 416.166,-84.8111"/>
<polygon fill="midnightblue" stroke="midnightblue" points="419.384,-86.217 421.031,-75.7511 413.217,-82.9051 419.384,-86.217"/>
</g>
<!-- Node11 -->
<g id="node11" class="node"><title>Node11</title>
<polygon fill="white" stroke="#bfbfbf" points="322.231,-56.5 322.231,-75.5 381.231,-75.5 381.231,-56.5 322.231,-56.5"/>
<text text-anchor="middle" x="351.731" y="-63.5" font-family="Helvetica,sans-Serif" font-size="10.00">stdexcept</text>
</g>
<!-- Node7&#45;&gt;Node11 -->
<g id="edge12" class="edge"><title>Node7&#45;&gt;Node11</title>
<path fill="none" stroke="midnightblue" d="M389.3,-112.083C382.878,-104.377 373.426,-93.0333 365.609,-83.6531"/>
<polygon fill="midnightblue" stroke="midnightblue" points="368.114,-81.1927 359.024,-75.7511 362.737,-85.674 368.114,-81.1927"/>
</g>
<!-- Node12 -->
<g id="node12" class="node"><title>Node12</title>
<g id="a_node12"><a xlink:href="../../d8/def/AbsParameter_8hpp.html" target="_top" xlink:title="This class defines the internal container of a parameter. ">
<polygon fill="white" stroke="red" points="984.731,-56.5 984.731,-75.5 1106.73,-75.5 1106.73,-56.5 984.731,-56.5"/>
<text text-anchor="middle" x="1045.73" y="-63.5" font-family="Helvetica,sans-Serif" font-size="10.00">Core/AbsParameter.hpp</text>
</a>
</g>
</g>
<!-- Node7&#45;&gt;Node12 -->
<g id="edge14" class="edge"><title>Node7&#45;&gt;Node12</title>
<path fill="none" stroke="midnightblue" d="M448.873,-116.171C463.987,-114.795 480.514,-113.314 495.731,-112 667.547,-97.1617 869.668,-80.9417 974.528,-72.6193"/>
<polygon fill="midnightblue" stroke="midnightblue" points="974.983,-76.0943 984.675,-71.8146 974.429,-69.1162 974.983,-76.0943"/>
</g>
<!-- Node13 -->
<g id="node13" class="node"><title>Node13</title>
<g id="a_node13"><a xlink:href="../../d2/de9/Exceptions_8hpp.html" target="_top" xlink:title="This class defines the ComPWA exception base&#45;class and provides a set of standard exceptions...">
<polygon fill="white" stroke="red" points="157.731,-56.5 157.731,-75.5 265.731,-75.5 265.731,-56.5 157.731,-56.5"/>
<text text-anchor="middle" x="211.731" y="-63.5" font-family="Helvetica,sans-Serif" font-size="10.00">Core/Exceptions.hpp</text>
</a>
</g>
</g>
<!-- Node7&#45;&gt;Node13 -->
<g id="edge17" class="edge"><title>Node7&#45;&gt;Node13</title>
<path fill="none" stroke="midnightblue" d="M367.417,-112.444C335.889,-103.241 285.6,-88.5617 250.745,-78.3879"/>
<polygon fill="midnightblue" stroke="midnightblue" points="251.488,-74.9587 240.908,-75.5164 249.526,-81.6783 251.488,-74.9587"/>
</g>
<!-- Node14 -->
<g id="node14" class="node"><title>Node14</title>
<g id="a_node14"><a xlink:href="../../da/db4/Logging_8hpp.html" target="_top" xlink:title="Core/Logging.hpp">
<polygon fill="white" stroke="red" points="470.231,-56.5 470.231,-75.5 563.231,-75.5 563.231,-56.5 470.231,-56.5"/>
<text text-anchor="middle" x="516.731" y="-63.5" font-family="Helvetica,sans-Serif" font-size="10.00">Core/Logging.hpp</text>
</a>
</g>
</g>
<!-- Node7&#45;&gt;Node14 -->
<g id="edge19" class="edge"><title>Node7&#45;&gt;Node14</title>
<path fill="none" stroke="midnightblue" d="M415.745,-112.444C435.319,-103.636 466.039,-89.8116 488.46,-79.722"/>
<polygon fill="midnightblue" stroke="midnightblue" points="490.123,-82.8119 497.806,-75.5164 487.25,-76.4284 490.123,-82.8119"/>
</g>
<!-- Node12&#45;&gt;Node2 -->
<g id="edge16" class="edge"><title>Node12&#45;&gt;Node2</title>
<path fill="none" stroke="midnightblue" d="M1045.73,-56.083C1045.73,-49.0059 1045.73,-38.8611 1045.73,-29.9865"/>
<polygon fill="midnightblue" stroke="midnightblue" points="1049.23,-29.751 1045.73,-19.7511 1042.23,-29.7511 1049.23,-29.751"/>
</g>
<!-- Node12&#45;&gt;Node9 -->
<g id="edge15" class="edge"><title>Node12&#45;&gt;Node9</title>
<path fill="none" stroke="midnightblue" d="M1002.63,-56.4435C947.367,-45.4718 852.897,-26.7168 804.417,-17.092"/>
<polygon fill="midnightblue" stroke="midnightblue" points="805.011,-13.6418 794.521,-15.1274 803.648,-20.5078 805.011,-13.6418"/>
</g>
<!-- Node13&#45;&gt;Node9 -->
<g id="edge18" class="edge"><title>Node13&#45;&gt;Node9</title>
<path fill="none" stroke="midnightblue" d="M265.897,-57.6286C270.573,-57.0537 275.234,-56.5022 279.731,-56 454.659,-36.4647 665.153,-19.4389 742.919,-13.3677"/>
<polygon fill="midnightblue" stroke="midnightblue" points="743.295,-16.8491 752.994,-12.5846 742.752,-9.87018 743.295,-16.8491"/>
</g>
<!-- Node15&#45;&gt;Node2 -->
<g id="edge23" class="edge"><title>Node15&#45;&gt;Node2</title>
<path fill="none" stroke="midnightblue" d="M878.726,-168.329C893.508,-147.348 933.572,-92.862 975.731,-56 989.428,-44.0238 1006.59,-32.9405 1020.49,-24.7699"/>
<polygon fill="midnightblue" stroke="midnightblue" points="1022.57,-27.6103 1029.51,-19.6034 1019.1,-21.5359 1022.57,-27.6103"/>
</g>
<!-- Node16 -->
<g id="node16" class="node"><title>Node16</title>
<polygon fill="white" stroke="#bfbfbf" points="505.231,-112.5 505.231,-131.5 550.231,-131.5 550.231,-112.5 505.231,-112.5"/>
<text text-anchor="middle" x="527.731" y="-119.5" font-family="Helvetica,sans-Serif" font-size="10.00">cstdlib</text>
</g>
<!-- Node15&#45;&gt;Node16 -->
<g id="edge21" class="edge"><title>Node15&#45;&gt;Node16</title>
<path fill="none" stroke="midnightblue" d="M821.215,-171.86C760.762,-165.331 657.397,-152.621 560.304,-132.099"/>
<polygon fill="midnightblue" stroke="midnightblue" points="560.836,-128.633 550.325,-129.956 559.367,-135.477 560.836,-128.633"/>
</g>
<!-- Node17 -->
<g id="node17" class="node"><title>Node17</title>
<polygon fill="white" stroke="#bfbfbf" points="568.231,-112.5 568.231,-131.5 615.231,-131.5 615.231,-112.5 568.231,-112.5"/>
<text text-anchor="middle" x="591.731" y="-119.5" font-family="Helvetica,sans-Serif" font-size="10.00">math.h</text>
</g>
<!-- Node15&#45;&gt;Node17 -->
<g id="edge22" class="edge"><title>Node15&#45;&gt;Node17</title>
<path fill="none" stroke="midnightblue" d="M820.934,-169.117C772.537,-161.42 698.103,-148.735 625.235,-132.189"/>
<polygon fill="midnightblue" stroke="midnightblue" points="625.962,-128.765 615.432,-129.938 624.395,-135.588 625.962,-128.765"/>
</g>
<!-- Node18 -->
<g id="node18" class="node"><title>Node18</title>
<polygon fill="white" stroke="#bfbfbf" points="957.231,-112.5 957.231,-131.5 992.231,-131.5 992.231,-112.5 957.231,-112.5"/>
<text text-anchor="middle" x="974.731" y="-119.5" font-family="Helvetica,sans-Serif" font-size="10.00">map</text>
</g>
<!-- Node15&#45;&gt;Node18 -->
<g id="edge24" class="edge"><title>Node15&#45;&gt;Node18</title>
<path fill="none" stroke="midnightblue" d="M889.119,-168.324C905.402,-159.703 930.599,-146.364 949.447,-136.386"/>
<polygon fill="midnightblue" stroke="midnightblue" points="951.183,-139.427 958.384,-131.655 947.908,-133.24 951.183,-139.427"/>
</g>
<!-- Node19 -->
<g id="node19" class="node"><title>Node19</title>
<g id="a_node19"><a xlink:href="../../d4/d37/Kinematics_8hpp.html" target="_top" xlink:title="Core/Kinematics.hpp">
<polygon fill="white" stroke="red" points="754.731,-112.5 754.731,-131.5 862.731,-131.5 862.731,-112.5 754.731,-112.5"/>
<text text-anchor="middle" x="808.731" y="-119.5" font-family="Helvetica,sans-Serif" font-size="10.00">Core/Kinematics.hpp</text>
</a>
</g>
</g>
<!-- Node15&#45;&gt;Node19 -->
<g id="edge25" class="edge"><title>Node15&#45;&gt;Node19</title>
<path fill="none" stroke="midnightblue" d="M862.448,-168.324C852.895,-160.263 838.451,-148.077 826.947,-138.369"/>
<polygon fill="midnightblue" stroke="midnightblue" points="829.101,-135.608 819.201,-131.834 824.587,-140.958 829.101,-135.608"/>
</g>
<!-- Node20 -->
<g id="node20" class="node"><title>Node20</title>
<g id="a_node20"><a xlink:href="../../df/d7d/Event_8hpp.html" target="_top" xlink:title="This class provides a internal container for event&#45;based information. ">
<polygon fill="white" stroke="red" points="767.231,-56.5 767.231,-75.5 852.231,-75.5 852.231,-56.5 767.231,-56.5"/>
<text text-anchor="middle" x="809.731" y="-63.5" font-family="Helvetica,sans-Serif" font-size="10.00">Core/Event.hpp</text>
</a>
</g>
</g>
<!-- Node15&#45;&gt;Node20 -->
<g id="edge37" class="edge"><title>Node15&#45;&gt;Node20</title>
<path fill="none" stroke="midnightblue" d="M874.903,-168.415C877.711,-155.391 881.201,-130.227 871.731,-112 864.626,-98.324 851.25,-87.809 838.736,-80.3952"/>
<polygon fill="midnightblue" stroke="midnightblue" points="840.331,-77.2779 829.878,-75.5442 836.968,-83.4175 840.331,-77.2779"/>
</g>
<!-- Node21 -->
<g id="node21" class="node"><title>Node21</title>
<g id="a_node21"><a xlink:href="../../d8/d6f/Efficiency_8hpp.html" target="_top" xlink:title="Core/Efficiency.hpp">
<polygon fill="white" stroke="black" points="633.231,-112.5 633.231,-131.5 736.231,-131.5 736.231,-112.5 633.231,-112.5"/>
<text text-anchor="middle" x="684.731" y="-119.5" font-family="Helvetica,sans-Serif" font-size="10.00">Core/Efficiency.hpp</text>
</a>
</g>
</g>
<!-- Node15&#45;&gt;Node21 -->
<g id="edge33" class="edge"><title>Node15&#45;&gt;Node21</title>
<path fill="none" stroke="midnightblue" d="M842.942,-168.444C810.902,-159.241 759.798,-144.562 724.378,-134.388"/>
<polygon fill="midnightblue" stroke="midnightblue" points="724.959,-130.913 714.381,-131.516 723.026,-137.641 724.959,-130.913"/>
</g>
<!-- Node19&#45;&gt;Node2 -->
<g id="edge26" class="edge"><title>Node19&#45;&gt;Node2</title>
<path fill="none" stroke="midnightblue" d="M825.973,-112.365C851.386,-99.6992 900.461,-75.4766 942.731,-56 967.364,-44.6499 995.61,-32.3598 1016.29,-23.4961"/>
<polygon fill="midnightblue" stroke="midnightblue" points="1017.67,-26.7086 1025.49,-19.5599 1014.92,-20.272 1017.67,-26.7086"/>
</g>
<!-- Node19&#45;&gt;Node5 -->
<g id="edge28" class="edge"><title>Node19&#45;&gt;Node5</title>
<path fill="none" stroke="midnightblue" d="M776.882,-112.444C740.861,-102.766 682.301,-87.0336 644.402,-76.8518"/>
<polygon fill="midnightblue" stroke="midnightblue" points="644.862,-73.3513 634.296,-74.1368 643.045,-80.1116 644.862,-73.3513"/>
</g>
<!-- Node19&#45;&gt;Node9 -->
<g id="edge27" class="edge"><title>Node19&#45;&gt;Node9</title>
<path fill="none" stroke="midnightblue" d="M792.997,-112.236C780.842,-104.481 764.919,-91.9292 757.731,-76 750.874,-60.8058 756.724,-42.2322 763.194,-28.8363"/>
<polygon fill="midnightblue" stroke="midnightblue" points="766.428,-30.2114 768.063,-19.7434 760.257,-26.9073 766.428,-30.2114"/>
</g>
<!-- Node19&#45;&gt;Node20 -->
<g id="edge29" class="edge"><title>Node19&#45;&gt;Node20</title>
<path fill="none" stroke="midnightblue" d="M808.896,-112.083C809.027,-105.006 809.215,-94.8611 809.38,-85.9865"/>
<polygon fill="midnightblue" stroke="midnightblue" points="812.883,-85.8142 809.569,-75.7511 805.884,-85.6845 812.883,-85.8142"/>
</g>
<!-- Node20&#45;&gt;Node2 -->
<g id="edge30" class="edge"><title>Node20&#45;&gt;Node2</title>
<path fill="none" stroke="midnightblue" d="M847.126,-56.4435C892.993,-45.9485 969.985,-28.3317 1013.4,-18.3967"/>
<polygon fill="midnightblue" stroke="midnightblue" points="1014.46,-21.7465 1023.42,-16.1041 1012.9,-14.9229 1014.46,-21.7465"/>
</g>
<!-- Node20&#45;&gt;Node8 -->
<g id="edge32" class="edge"><title>Node20&#45;&gt;Node8</title>
<path fill="none" stroke="midnightblue" d="M766.985,-59.4244C685.692,-48.821 510.071,-25.9138 433.127,-15.8777"/>
<polygon fill="midnightblue" stroke="midnightblue" points="433.314,-12.3725 422.945,-14.5496 432.408,-19.3137 433.314,-12.3725"/>
</g>
<!-- Node20&#45;&gt;Node9 -->
<g id="edge31" class="edge"><title>Node20&#45;&gt;Node9</title>
<path fill="none" stroke="midnightblue" d="M803.786,-56.083C798.754,-48.5341 791.394,-37.4948 785.218,-28.2298"/>
<polygon fill="midnightblue" stroke="midnightblue" points="788.024,-26.1301 779.565,-19.7511 782.2,-30.0131 788.024,-26.1301"/>
</g>
<!-- Node21&#45;&gt;Node2 -->
<g id="edge35" class="edge"><title>Node21&#45;&gt;Node2</title>
<path fill="none" stroke="midnightblue" d="M691.719,-112.102C703.587,-97.6847 729.191,-69.4796 757.731,-56 843.53,-15.4769 958.142,-10.1739 1013.33,-10.2374"/>
<polygon fill="midnightblue" stroke="midnightblue" points="1013.53,-13.7388 1023.55,-10.3128 1013.58,-6.739 1013.53,-13.7388"/>
</g>
<!-- Node21&#45;&gt;Node8 -->
<g id="edge34" class="edge"><title>Node21&#45;&gt;Node8</title>
<path fill="none" stroke="midnightblue" d="M681.69,-112.19C676.269,-97.9014 663.515,-69.8759 642.731,-56 608.961,-33.4539 493.516,-19.89 433.168,-14.1761"/>
<polygon fill="midnightblue" stroke="midnightblue" points="433.202,-10.6645 422.923,-13.2316 432.559,-17.6349 433.202,-10.6645"/>
</g>
<!-- Node21&#45;&gt;Node14 -->
<g id="edge36" class="edge"><title>Node21&#45;&gt;Node14</title>
<path fill="none" stroke="midnightblue" d="M658.111,-112.444C629.725,-103.32 584.595,-88.8133 552.978,-78.6509"/>
<polygon fill="midnightblue" stroke="midnightblue" points="553.818,-75.2445 543.227,-75.5164 551.676,-81.9087 553.818,-75.2445"/>
</g>
<!-- Node22&#45;&gt;Node2 -->
<g id="edge39" class="edge"><title>Node22&#45;&gt;Node2</title>
<path fill="none" stroke="midnightblue" d="M1033.75,-168.312C1055.64,-152.82 1099.05,-118.072 1115.73,-76 1119.01,-67.7367 1119.99,-63.8019 1115.73,-56 1107.44,-40.813 1091.59,-29.9869 1077.06,-22.7653"/>
<polygon fill="midnightblue" stroke="midnightblue" points="1078.35,-19.5061 1067.8,-18.5306 1075.44,-25.8722 1078.35,-19.5061"/>
</g>
<!-- Node22&#45;&gt;Node7 -->
<g id="edge43" class="edge"><title>Node22&#45;&gt;Node7</title>
<path fill="none" stroke="midnightblue" d="M962.524,-170.883C952.587,-169.886 942.365,-168.889 932.731,-168 738.676,-150.085 689.884,-148.822 495.731,-132 483.843,-130.97 471.155,-129.84 458.966,-128.739"/>
<polygon fill="midnightblue" stroke="midnightblue" points="459.149,-125.241 448.874,-127.824 458.517,-132.213 459.149,-125.241"/>
</g>
<!-- Node22&#45;&gt;Node9 -->
<g id="edge40" class="edge"><title>Node22&#45;&gt;Node9</title>
<path fill="none" stroke="midnightblue" d="M1020.29,-168.325C1019.17,-154.723 1015.14,-128.256 1000.73,-112 947.814,-52.3104 852.892,-26.1527 804.267,-16.2294"/>
<polygon fill="midnightblue" stroke="midnightblue" points="804.83,-12.7735 794.346,-14.3004 803.494,-19.6448 804.83,-12.7735"/>
</g>
<!-- Node22&#45;&gt;Node12 -->
<g id="edge42" class="edge"><title>Node22&#45;&gt;Node12</title>
<path fill="none" stroke="midnightblue" d="M1023.76,-168.468C1026.86,-159.487 1031.65,-144.891 1034.73,-132 1038.39,-116.675 1041.3,-99.0344 1043.2,-86.0009"/>
<polygon fill="midnightblue" stroke="midnightblue" points="1046.69,-86.2949 1044.61,-75.9073 1039.76,-85.3279 1046.69,-86.2949"/>
</g>
<!-- Node22&#45;&gt;Node18 -->
<g id="edge41" class="edge"><title>Node22&#45;&gt;Node18</title>
<path fill="none" stroke="midnightblue" d="M1013.14,-168.083C1006.5,-160.298 996.71,-148.801 988.673,-139.367"/>
<polygon fill="midnightblue" stroke="midnightblue" points="991.335,-137.094 982.186,-131.751 986.006,-141.633 991.335,-137.094"/>
</g>
<!-- Node23&#45;&gt;Node2 -->
<g id="edge46" class="edge"><title>Node23&#45;&gt;Node2</title>
<path fill="none" stroke="midnightblue" d="M178.216,-168.392C160.092,-146.593 117.696,-88.6308 148.731,-56 156.339,-48.0013 852.94,-18.919 1013.14,-12.3325"/>
<polygon fill="midnightblue" stroke="midnightblue" points="1013.47,-15.8219 1023.32,-11.9146 1013.18,-8.82783 1013.47,-15.8219"/>
</g>
<!-- Node23&#45;&gt;Node7 -->
<g id="edge47" class="edge"><title>Node23&#45;&gt;Node7</title>
<path fill="none" stroke="midnightblue" d="M219.165,-168.444C255.587,-159.122 313.961,-144.183 353.76,-133.997"/>
<polygon fill="midnightblue" stroke="midnightblue" points="354.634,-137.387 363.454,-131.516 352.898,-130.605 354.634,-137.387"/>
</g>
<!-- Node23&#45;&gt;Node8 -->
<g id="edge45" class="edge"><title>Node23&#45;&gt;Node8</title>
<path fill="none" stroke="midnightblue" d="M151.035,-168.432C87.5119,-151.201 -36.7841,-109.392 10.7311,-56 33.6429,-30.2542 266.418,-16.8973 358.514,-12.5879"/>
<polygon fill="midnightblue" stroke="midnightblue" points="358.686,-16.0838 368.515,-12.1297 358.365,-9.09109 358.686,-16.0838"/>
</g>
<!-- Node24&#45;&gt;Node2 -->
<g id="edge49" class="edge"><title>Node24&#45;&gt;Node2</title>
<path fill="none" stroke="midnightblue" d="M982.743,-230.482C1026.26,-221.356 1088,-205.764 1104.73,-188 1145.79,-144.41 1162.74,-107.226 1131.73,-56 1119.99,-36.6046 1096.83,-25.1664 1077.51,-18.6787"/>
<polygon fill="midnightblue" stroke="midnightblue" points="1078.42,-15.2966 1067.83,-15.7214 1076.37,-21.9911 1078.42,-15.2966"/>
</g>
<!-- Node24&#45;&gt;Node7 -->
<g id="edge51" class="edge"><title>Node24&#45;&gt;Node7</title>
<path fill="none" stroke="midnightblue" d="M897.95,-230.47C801.029,-209.689 552.849,-156.475 446.418,-133.654"/>
<polygon fill="midnightblue" stroke="midnightblue" points="447.082,-130.217 436.57,-131.542 445.614,-137.061 447.082,-130.217"/>
</g>
<!-- Node24&#45;&gt;Node12 -->
<g id="edge50" class="edge"><title>Node24&#45;&gt;Node12</title>
<path fill="none" stroke="midnightblue" d="M992.482,-235.601C1025.6,-230.384 1065.43,-217.808 1086.73,-188 1110.15,-155.231 1079.72,-108.069 1060.04,-83.4201"/>
<polygon fill="midnightblue" stroke="midnightblue" points="1062.72,-81.1632 1053.64,-75.7011 1057.33,-85.6323 1062.72,-81.1632"/>
</g>
<!-- Node24&#45;&gt;Node15 -->
<g id="edge52" class="edge"><title>Node24&#45;&gt;Node15</title>
<path fill="none" stroke="midnightblue" d="M928.418,-230.403C918.282,-221.047 901.867,-205.895 889.479,-194.46"/>
<polygon fill="midnightblue" stroke="midnightblue" points="891.749,-191.792 882.027,-187.581 887.001,-196.935 891.749,-191.792"/>
</g>
<!-- Node24&#45;&gt;Node22 -->
<g id="edge53" class="edge"><title>Node24&#45;&gt;Node22</title>
<path fill="none" stroke="midnightblue" d="M949.623,-230.403C962.936,-220.78 984.731,-205.024 1000.69,-193.489"/>
<polygon fill="midnightblue" stroke="midnightblue" points="1002.81,-196.276 1008.86,-187.581 998.707,-190.603 1002.81,-196.276"/>
</g>
<!-- Node25&#45;&gt;Node2 -->
<g id="edge55" class="edge"><title>Node25&#45;&gt;Node2</title>
<path fill="none" stroke="midnightblue" d="M1144.78,-224.947C1160.66,-216.734 1177.72,-204.65 1186.73,-188 1214.64,-136.399 1221.34,-103.372 1186.73,-56 1161.97,-22.1125 1111.42,-13.1483 1078.05,-11.0991"/>
<polygon fill="midnightblue" stroke="midnightblue" points="1078.03,-7.59454 1067.88,-10.6539 1077.72,-14.5878 1078.03,-7.59454"/>
</g>
<!-- Node25&#45;&gt;Node15 -->
<g id="edge56" class="edge"><title>Node25&#45;&gt;Node15</title>
<path fill="none" stroke="midnightblue" d="M1053.4,-224.933C1011.5,-214.281 954.759,-199.855 916.117,-190.03"/>
<polygon fill="midnightblue" stroke="midnightblue" points="916.768,-186.585 906.214,-187.513 915.044,-193.369 916.768,-186.585"/>
</g>
<!-- Node25&#45;&gt;Node22 -->
<g id="edge57" class="edge"><title>Node25&#45;&gt;Node22</title>
<path fill="none" stroke="midnightblue" d="M1087.88,-224.781C1073.95,-215.286 1055.7,-202.843 1041.74,-193.327"/>
<polygon fill="midnightblue" stroke="midnightblue" points="1043.51,-190.297 1033.28,-187.556 1039.57,-196.081 1043.51,-190.297"/>
</g>
</g>
</svg>
